<?xml version="1.0" encoding="utf-8"?>
<!-- Generator: Adobe Illustrator 24.3.0, SVG Export Plug-In . SVG Version: 6.00 Build 0)  -->
<svg version="1.1" id="图层_1" xmlns="http://www.w3.org/2000/svg" xmlns:xlink="http://www.w3.org/1999/xlink" x="0px" y="0px"
	 viewBox="0 0 56.69 56.69" style="enable-background:new 0 0 56.69 56.69;" xml:space="preserve">
<style type="text/css">
	.st0{fill-rule:evenodd;clip-rule:evenodd;}
</style>
<g>
	<polygon points="22.69,29.72 20.02,25.4 20.49,14.31 14.73,14.31 14.51,19.63 16.19,19.63 16.19,25.75 21.01,31.16 30.84,31.16 
		35.83,25.5 30.08,29.45 	"/>
	<polygon points="15.83,38.31 12.93,35.4 12.93,20.43 6.98,20.11 6.98,36.32 15.27,41.87 28.64,41.87 35.63,33.48 28.97,38.49 	"/>
	<polygon points="49.71,30.65 38.3,30.65 38.3,31.44 43.73,31.44 41.4,36.11 43.43,36.11 43.43,37.43 41.4,37.43 43.63,41.91 
		38.3,41.91 38.3,42.7 49.71,42.7 49.71,41.91 44.01,41.91 46.25,37.43 44.22,37.43 44.22,36.11 46.25,36.11 43.91,31.44 
		49.71,31.44 	"/>
</g>
</svg>
