<?xml version="1.0" encoding="utf-8"?>
<!-- Generator: Adobe Illustrator 24.3.0, SVG Export Plug-In . SVG Version: 6.00 Build 0)  -->
<svg version="1.1" id="图层_1" xmlns="http://www.w3.org/2000/svg" xmlns:xlink="http://www.w3.org/1999/xlink" x="0px" y="0px"
	 viewBox="0 0 56.69 56.69" style="enable-background:new 0 0 56.69 56.69;" xml:space="preserve">
<style type="text/css">
	.st0{fill-rule:evenodd;clip-rule:evenodd;}
</style>
<g>
	<path d="M11.34,26c-1-0.24-2.79-0.91-2.8-0.91l-0.28,0.74c0.08,0.03,1.85,0.68,2.89,0.94c0.32,0.08,0.71,0.18,1.09,0.18
		c0.64,0,1.27-0.27,1.56-1.34c0.22-0.79,0.15-1.8,0.07-2.87c-0.05-0.76-0.11-1.54-0.06-2.26c0.13-1.98-4.2-3.45-5.07-3.73
		l-0.24,0.75c1.92,0.61,4.59,1.92,4.52,2.93c-0.05,0.78,0.01,1.59,0.06,2.37c0.07,1,0.13,1.95-0.05,2.61
		C12.82,26.23,12.48,26.27,11.34,26z"/>
	<path d="M15.61,28.22L14.85,28c-0.75,2.51-5.98,1.2-6.04,1.18l-0.2,0.77c0.12,0.03,1.5,0.38,3.01,0.38
		C13.29,30.32,15.1,29.91,15.61,28.22z"/>
	<path d="M42.04,23.24c4.33-0.73,6.15-2.27,6.39-3.36c0.09-0.38-0.03-0.73-0.31-0.92c-0.35-0.24-0.85-0.18-1.38,0.17
		c-1.34,0.89-3.52,2.1-7,2.45c-1.12,0.11-1.87,0.52-2.24,1.22c-0.68,1.29,0.2,3.22,0.93,4.55c0.23,0.43,0.7,0.96,1.19,1.52
		c0.59,0.67,1.26,1.44,1.41,1.92c0.06,0.2,0.02,0.35-0.13,0.48c-0.28,0.24-0.86,0.33-1.37,0.08c-1.83-0.92-4.38-4.18-4.23-7.19
		c0.05-0.95,0.22-1.61,0.36-2.13c0.38-1.44,0.24-1.89-1.94-2.62c-2.64-0.89-4.52,1.28-5.15,2.54c-0.2,0.4-0.37,0.82-0.54,1.24
		c-0.68-0.76-1.42-1.04-2.43-1.38c-0.94-0.33-2.12-0.73-3.84-1.7c-4.24-2.38-7.45-2.07-7.58-2.06l0,0.04
		c-1.63-1.55-4.88-2.56-5.36-2.7L8.6,16.15c2.27,0.68,5.84,2.3,5.73,3.78c-0.07,1.03,0.01,2.1,0.09,3.13
		c0.1,1.33,0.2,2.59-0.07,3.48c-0.38,1.28-1.12,1.25-2.71,0.9c-1.45-0.32-3.1-0.98-3.11-0.99l-0.29,0.73
		c0.07,0.03,1.72,0.69,3.24,1.02c0.5,0.11,1.04,0.23,1.55,0.23c0.88,0,1.69-0.35,2.08-1.68c0.31-1.03,0.21-2.36,0.1-3.77
		c-0.06-0.81-0.1-1.63-0.09-2.44c0.15-0.02,3.33-0.08,6.52,1.71c1.45,0.81,2.48,1.17,3.23,1.43c1.02,0.35,1.49,0.52,2.04,1.42
		c0.13,0.21,0.23,0.49,0.32,0.79c-0.41,1.79-0.62,3.63-0.66,5.3c-0.11,0.1-0.23,0.18-0.37,0.2c-1.35,0.21-7.49-1.75-9.73-2.52
		l-0.21,0.62l-0.37-0.18c-0.42,0.88-1.18,1.49-2.25,1.8c-1.97,0.57-4.38-0.03-4.67-0.21l-0.24,0.25l-0.15-0.36L8.3,31.25
		c0.02,0.17,0.05,0.49,1.73,0.78c0.36,0.06,0.98,0.14,1.7,0.14c0.52,0,1.1-0.05,1.68-0.17l-0.25,0.35c3.04,2.25,8.05,3.82,12.76,4
		c0.41,0.01,0.82,0.03,1.23,0.03c0.09,0.23,0.18,0.42,0.28,0.57c1.27,1.82,8.33,4.19,10.31,4.35c0.07,0.01,0.14,0.01,0.22,0.01
		c1.37,0,2.93-1.04,3.36-2.28c0.22-0.63,0.34-1.86-1.32-2.98c-2.71-1.81-5.57-2.05-11.45-1.96c-0.03-0.4-0.03-0.88,0-1.4
		c0.1-0.14,0.19-0.28,0.28-0.48c0.62-1.33,0.8-3.52,0.59-5.41c0.02-0.1,0.05-0.2,0.07-0.3c0.2-0.78,0.28-1.39,0.33-1.89
		c0.13-1.12,0.19-1.63,1.48-2.5c1.14-0.77,1.97-0.57,2.22-0.26c0.12,0.14,0.11,0.28-0.03,0.42l-0.09,0.13
		c-0.89,2.13,0.76,6.24,0.86,6.47c2.05,3.33,4.68,4.51,6.33,4.51c0.01,0,0.01,0,0.02,0c0.92,0,1.63-0.36,2.02-0.99
		c1.03-1.72,0.11-2.93-1.55-5.12l-0.64-0.85c-0.8-1.08-1.13-1.82-0.97-2.21C39.66,23.7,40.82,23.45,42.04,23.24z M27.34,32.74
		c-0.01-0.38-0.02-0.78-0.01-1.19c0.13-0.16,0.26-0.36,0.37-0.61c0.14-0.29,0.24-0.64,0.32-0.99c-0.12,0.81-0.22,1.67-0.26,2.49
		C27.65,32.58,27.5,32.68,27.34,32.74z M26.67,34.12c-0.25,0.01-0.51,0.01-0.77,0.02c-6.13,0.12-9.44-2.28-10.4-3.1
		c0.06-0.05,0.12-0.1,0.18-0.15c0.88,0.31,3.55,1.24,5.47,1.72c2.54,0.64,4.36,0.97,5.47,1C26.65,33.78,26.66,33.96,26.67,34.12z
		 M28.23,28.71c0.08-0.97,0.02-1.98-0.19-2.82c0.07-0.28,0.13-0.56,0.21-0.83c0.17,0.49,0.29,1.09,0.37,1.72
		C28.52,27.22,28.37,27.9,28.23,28.71z M25.12,22.96c-0.76-0.26-1.71-0.59-3.1-1.37c-3.34-1.88-6.6-1.82-6.92-1.81
		c-0.02-0.33-0.13-0.64-0.31-0.95c1.04,0.02,3.54,0.26,6.59,1.98c1.78,1,3.05,1.44,3.97,1.76c1.13,0.39,1.75,0.64,2.37,1.53
		c-0.06,0.19-0.13,0.38-0.18,0.57C26.85,23.57,26.16,23.32,25.12,22.96z M25.99,32.22c0.12,0,0.23-0.01,0.32-0.02
		c0.08-0.01,0.16-0.04,0.25-0.07c0,0.23,0,0.47,0.01,0.7c-1.04-0.04-2.84-0.37-5.22-0.98c-1.7-0.43-4.03-1.22-5.11-1.6
		c0.11-0.15,0.2-0.31,0.29-0.49C18.12,30.29,23.95,32.22,25.99,32.22z M25.94,35.54c-4.44-0.17-9.12-1.61-12.06-3.67
		c0.32-0.09,0.63-0.22,0.93-0.38c0.86,0.81,4.3,3.61,11.11,3.43c0.29-0.01,0.58-0.01,0.85-0.02c0.04,0.24,0.08,0.46,0.13,0.67
		C26.59,35.57,26.27,35.56,25.94,35.54z M27.4,33.56c0.11-0.02,0.22-0.06,0.35-0.12c0,0.23,0.01,0.45,0.03,0.66
		c-0.11,0-0.22,0-0.34,0.01C27.42,33.94,27.41,33.74,27.4,33.56z M27.71,35.59c-0.06-0.21-0.11-0.44-0.15-0.7
		c0.11,0,0.23,0,0.34-0.01c0.06,0.27,0.15,0.51,0.25,0.71C28,35.59,27.85,35.59,27.71,35.59z M29.16,36.39
		c1.94,1.09,6.19,3.34,8.61,3.49c1.76,0.09,2.04-0.93,2.08-1.26c0.14-1.03-0.81-2.37-2.44-2.72c-1.5-0.32-3.87-0.32-6.58-0.3
		c-0.48,0-0.93,0.01-1.46,0c-0.14-0.08-0.27-0.16-0.41-0.24c-0.12-0.07-0.22-0.24-0.28-0.49c5.87-0.07,8.39,0.16,10.89,1.83
		c0.64,0.43,1.34,1.13,1.01,2.06c-0.34,0.97-1.68,1.82-2.77,1.74c-2.02-0.17-8.67-2.51-9.73-4.02c-0.02-0.03-0.04-0.07-0.07-0.1
		C28.4,36.39,28.78,36.39,29.16,36.39z M30.8,36.39c0.01,0,0.02,0,0.03,0c2.57-0.01,5-0.02,6.41,0.29c1.25,0.27,1.9,1.25,1.82,1.84
		c-0.08,0.58-0.9,0.58-1.25,0.58C36.2,38.99,33.38,37.76,30.8,36.39z M39.8,26.9l0.65,0.86c1.71,2.26,2.22,3.03,1.5,4.23
		c-0.23,0.39-0.71,0.61-1.34,0.61c0,0-0.01,0-0.01,0c-1.55,0-3.9-1.28-5.62-4.08c-0.02-0.04-1.56-3.89-0.86-5.75
		c0.37-0.42,0.38-0.98,0.02-1.42c-0.56-0.67-1.86-0.85-3.27,0.11c-1.59,1.08-1.68,1.87-1.82,3.06c-0.01,0.1-0.03,0.22-0.04,0.32
		c-0.11-0.33-0.24-0.64-0.4-0.89c0.2-0.57,0.42-1.12,0.68-1.64c0.05-0.11,1.18-2.31,3.21-2.31c0.31,0,0.63,0.05,0.98,0.17
		c1.72,0.58,1.71,0.62,1.43,1.67c-0.14,0.53-0.33,1.26-0.38,2.29c-0.18,3.38,2.59,6.9,4.66,7.94c0.74,0.36,1.68,0.29,2.23-0.19
		c0.4-0.34,0.54-0.82,0.38-1.32c-0.2-0.65-0.9-1.44-1.57-2.21c-0.44-0.5-0.9-1.03-1.09-1.38c-0.37-0.68-1.49-2.74-0.92-3.81
		c0.24-0.45,0.78-0.72,1.62-0.8c3.65-0.37,5.95-1.65,7.36-2.58c0.3-0.2,0.47-0.19,0.49-0.19c0.01,0.02,0.02,0.13-0.09,0.32
		c-0.16,0.29-1.18,1.79-5.67,2.54c-1.81,0.3-2.85,0.63-3.18,1.45C38.44,24.62,38.77,25.51,39.8,26.9z"/>
</g>
</svg>
