<?xml version="1.0" encoding="utf-8"?>
<!-- Generator: Adobe Illustrator 24.3.0, SVG Export Plug-In . SVG Version: 6.00 Build 0)  -->
<svg version="1.1" id="图层_1" xmlns="http://www.w3.org/2000/svg" xmlns:xlink="http://www.w3.org/1999/xlink" x="0px" y="0px"
	 viewBox="0 0 56.69 56.69" style="enable-background:new 0 0 56.69 56.69;" xml:space="preserve">
<style type="text/css">
	.st0{fill-rule:evenodd;clip-rule:evenodd;}
</style>
<g>
	<path d="M40.22,24.44l-0.01-1.02l-0.35,1.06c-0.4,0.12-0.7,0.48-0.7,0.92c0,0.22,0.08,0.41,0.2,0.57l-0.66,1.98h-1.96l-0.73-1.96
		c0.13-0.16,0.21-0.36,0.21-0.58c0-0.47-0.34-0.85-0.78-0.94l-0.12-0.33l-0.11,0.3c-0.52,0.02-0.94,0.45-0.94,0.97
		c0,0.28,0.12,0.53,0.31,0.71l-0.69,1.84h-2.11l-0.71-1.91c0.15-0.17,0.25-0.39,0.25-0.64c0-0.49-0.37-0.88-0.84-0.95l-0.04-0.12
		l-0.04,0.1c-0.02,0-0.04-0.01-0.06-0.01c-0.54,0-0.98,0.44-0.98,0.98c0,0.28,0.13,0.54,0.32,0.71l-0.78,1.83h-2.28l-0.68-1.72
		c0.28-0.17,0.48-0.47,0.48-0.82c0-0.54-0.44-0.98-0.98-0.98c-0.07,0-0.13,0.03-0.2,0.04l-0.18-0.45l-0.24,0.65
		c-0.22,0.18-0.36,0.44-0.36,0.74c0,0.05,0.02,0.1,0.03,0.15l-0.9,2.4h-1.74l-0.63-1.84c0.18-0.18,0.3-0.43,0.3-0.7
		c0-0.5-0.38-0.9-0.87-0.96l-0.01-0.02l-0.01,0.02c-0.04,0-0.07-0.02-0.1-0.02c-0.54,0-0.98,0.44-0.98,0.98
		c0,0.31,0.15,0.57,0.38,0.75l-0.74,1.79h-2.06l-0.7-2.01c0.1-0.16,0.18-0.33,0.18-0.53c0-0.44-0.29-0.79-0.69-0.92l-0.1-0.3
		l-0.11,0.25c-0.03,0-0.05-0.02-0.08-0.02c-0.54,0-0.98,0.44-0.98,0.98c0,0.28,0.12,0.53,0.31,0.71l-0.81,1.83h-2.29l-0.64-1.72
		c0.29-0.17,0.49-0.47,0.49-0.83c0-0.54-0.44-0.98-0.98-0.98s-0.98,0.44-0.98,0.98c0,0.28,0.12,0.53,0.32,0.71l-0.96,1.83H7.78
		v-0.55c0.17,0.09,0.35,0.15,0.56,0.15c0.66,0,1.2-0.54,1.2-1.2s-0.54-1.2-1.2-1.2c-0.03,0-0.06,0.02-0.09,0.02
		c-0.11-0.43-0.47-0.75-0.93-0.75c-0.54,0-0.98,0.44-0.98,0.98c0,0.43,0.28,0.78,0.66,0.91v1.63H6.96v0.79h0.04v2.8
		c-0.13,0.17-0.22,0.37-0.22,0.59s0.09,0.43,0.22,0.59v1.01l0.37-0.71c0.12,0.05,0.25,0.08,0.39,0.08c0.54,0,0.98-0.44,0.98-0.98
		c0-0.35-0.2-0.64-0.47-0.82l1.35-2.57h1.73l0.94,2.51c-0.27,0.17-0.46,0.46-0.46,0.81c0,0.54,0.44,0.98,0.98,0.98
		s0.98-0.44,0.98-0.98c0-0.26-0.1-0.49-0.27-0.66l1.18-2.65h1.9l0.85,2.43c-0.34,0.16-0.57,0.49-0.57,0.89
		c0,0.54,0.44,0.98,0.98,0.98s0.98-0.44,0.98-0.98c0-0.22-0.09-0.42-0.21-0.58l1.13-2.73h1.56l0.86,2.51
		c-0.27,0.17-0.46,0.46-0.46,0.81c0,0.54,0.44,0.98,0.98,0.98s0.98-0.44,0.98-0.98c0-0.34-0.19-0.63-0.45-0.8l0.94-2.51h1.95
		l1.02,2.56c-0.22,0.18-0.38,0.44-0.38,0.75c0,0.54,0.44,0.98,0.98,0.98s0.98-0.44,0.98-0.98c0-0.3-0.14-0.56-0.36-0.74l1.09-2.57
		h1.8l0.94,2.55c-0.24,0.18-0.4,0.45-0.4,0.77c0,0.54,0.44,0.98,0.98,0.98c0.02,0,0.04-0.01,0.07-0.01l0.01,0.02l0.01-0.02
		c0.5-0.04,0.9-0.45,0.9-0.97c0-0.27-0.11-0.51-0.28-0.69l0.98-2.63h1.76l0.97,2.59c-0.21,0.18-0.34,0.44-0.34,0.73
		c0,0.54,0.44,0.98,0.98,0.98l0,0l0.02,0.06l0.02-0.07c0.52-0.02,0.94-0.45,0.94-0.97c0-0.3-0.15-0.56-0.36-0.74l0.86-2.57h0.21
		l0.03,2.4c-0.38,0.14-0.65,0.49-0.65,0.91c0,0.54,0.44,0.98,0.98,0.98s0.98-0.44,0.98-0.98c0-0.37-0.22-0.68-0.52-0.85l-0.06-4.85
		c0.49-0.06,0.87-0.46,0.87-0.96C41.12,24.89,40.72,24.48,40.22,24.44z M7.78,30.52v-1.78h0.93L7.78,30.52z M10.02,27.94l0.6-1.14
		l0.42,1.14H10.02z M12.93,30.74l-0.75-2.01h1.64L12.93,30.74z M15.03,27.94l0.7-1.58c0.01,0,0.02,0,0.02,0l0.55,1.59H15.03z
		 M18.09,30.65l-0.67-1.91h1.45L18.09,30.65z M20.06,27.94l0.53-1.28l0.44,1.28H20.06z M22.68,30.37l-0.56-1.63h1.17L22.68,30.37z
		 M24.43,27.94l0.62-1.65c0.02,0.01,0.05,0.01,0.08,0.02l0.64,1.63H24.43z M27.72,30.72l-0.79-1.98h1.63L27.72,30.72z M29.76,27.94
		l0.63-1.48l0.55,1.48H29.76z M32.83,30.77l-0.76-2.04h1.52L32.83,30.77z M34.73,27.94l0.58-1.56l0.58,1.56H34.73z M37.78,30.72
		l-0.74-1.99h1.4L37.78,30.72z"/>
	<path d="M47.51,27.86c0-0.25-0.07-0.5-0.21-0.72c-0.15-0.24-0.35-0.41-0.6-0.52c-0.23-0.1-0.52-0.15-0.87-0.15h-1.86v4.69h1.88
		c0.29,0,0.53-0.03,0.72-0.08c0.22-0.05,0.41-0.14,0.57-0.26c0.16-0.12,0.3-0.29,0.41-0.51c0.1-0.21,0.16-0.44,0.16-0.68
		c0-0.31-0.09-0.59-0.27-0.83c-0.05-0.07-0.11-0.13-0.17-0.18c0.02-0.03,0.04-0.05,0.05-0.08C47.45,28.32,47.51,28.09,47.51,27.86z
		 M46.19,28.02l-0.09,0.05v0c-0.02,0.01-0.11,0.03-0.38,0.03h-0.45v-0.39h0.38c0.33,0,0.45,0.03,0.52,0.07
		c0.02,0.04,0.03,0.08,0.03,0.13C46.22,27.97,46.21,28,46.19,28.02z M45.28,29.35h0.5c0.27,0,0.4,0.03,0.45,0.05
		c0.05,0.01,0.08,0.04,0.1,0.07c0.03,0.05,0.04,0.09,0.04,0.16c0,0.06-0.01,0.1-0.09,0.21c-0.03,0.02-0.08,0.04-0.16,0.06
		c-0.05,0.01-0.15,0.01-0.28,0.01h-0.57V29.35z"/>
	<polygon points="46.23,24.71 46.23,19.22 45.44,19.22 45.44,24.71 41.32,24.71 41.32,25.5 50.36,25.5 50.36,24.71 	"/>
	<polygon points="41.32,32.71 45.44,32.71 45.44,38.2 46.23,38.2 46.23,32.71 50.36,32.71 50.36,31.92 41.32,31.92 	"/>
</g>
</svg>
