<?xml version="1.0" encoding="utf-8"?>
<!-- Generator: Adobe Illustrator 24.3.0, SVG Export Plug-In . SVG Version: 6.00 Build 0)  -->
<svg version="1.1" id="图层_1" xmlns="http://www.w3.org/2000/svg" xmlns:xlink="http://www.w3.org/1999/xlink" x="0px" y="0px"
	 viewBox="0 0 56.69 56.69" style="enable-background:new 0 0 56.69 56.69;" xml:space="preserve">
<style type="text/css">
	.st0{fill-rule:evenodd;clip-rule:evenodd;}
</style>
<g>
	<path d="M49.4,20.21c0-0.6-0.48-1.09-1.08-1.1l-0.01-0.8l-0.29,0.86c-0.48,0.12-0.84,0.54-0.84,1.05c0,0.26,0.1,0.49,0.26,0.68
		l-0.83,2.5H44.1l-0.93-2.48c0.16-0.19,0.27-0.43,0.27-0.7c0-0.55-0.41-0.98-0.93-1.07l-0.09-0.24l-0.08,0.2c0,0-0.01,0-0.01,0
		c-0.61,0-1.11,0.5-1.11,1.11c0,0.34,0.16,0.63,0.4,0.83l-0.88,2.35h-2.68l-0.9-2.41c0.19-0.2,0.31-0.47,0.31-0.76
		c0-0.61-0.5-1.11-1.11-1.11c-0.61,0-1.11,0.5-1.11,1.11c0,0.34,0.17,0.64,0.41,0.84l-0.99,2.34h-2.88l-0.87-2.21
		c0.35-0.19,0.6-0.54,0.6-0.97c0-0.61-0.5-1.11-1.1-1.11c-0.1,0-0.2,0.03-0.29,0.06l-0.16-0.41l-0.23,0.6
		c-0.25,0.2-0.43,0.5-0.43,0.85c0,0.07,0.03,0.12,0.04,0.19l-1.12,2.99h-2.23l-0.81-2.36c0.23-0.2,0.38-0.49,0.38-0.82
		c0-0.61-0.5-1.11-1.11-1.11s-1.11,0.5-1.11,1.11c0,0.37,0.2,0.68,0.48,0.88l-0.94,2.29h-2.61l-0.89-2.54
		c0.13-0.18,0.23-0.4,0.23-0.64c0-0.51-0.35-0.92-0.82-1.05l-0.07-0.2l-0.08,0.17c-0.05-0.01-0.09-0.03-0.14-0.03
		c-0.61,0-1.1,0.5-1.1,1.11c0,0.34,0.16,0.63,0.4,0.83l-1.04,2.34h-2.89l-0.82-2.2c0.36-0.18,0.61-0.55,0.61-0.97
		c0-0.61-0.5-1.11-1.11-1.11s-1.11,0.5-1.11,1.11c0,0.34,0.17,0.64,0.41,0.84l-1.22,2.34H8.88v-0.91c0.22,0.15,0.47,0.26,0.76,0.26
		c0.76,0,1.37-0.61,1.37-1.37c0-0.76-0.61-1.37-1.37-1.37c-0.06,0-0.11,0.03-0.17,0.04C9.38,19.51,8.95,19.1,8.4,19.1
		c-0.61,0-1.11,0.5-1.11,1.11c0,0.5,0.34,0.91,0.8,1.04v2.13H7.97v0.79h0.13v3.51c-0.16,0.19-0.27,0.43-0.27,0.7s0.11,0.5,0.27,0.7
		v0.91l0.33-0.64c0.15,0.08,0.32,0.14,0.51,0.14c0.61,0,1.11-0.5,1.11-1.11c0-0.42-0.25-0.78-0.6-0.97l1.69-3.24h2.21l1.18,3.17
		c-0.33,0.19-0.57,0.54-0.57,0.95c0,0.61,0.5,1.11,1.1,1.11s1.11-0.5,1.11-1.11c0-0.31-0.13-0.59-0.34-0.79l1.47-3.32h2.43
		l1.08,3.09c-0.42,0.16-0.72,0.56-0.72,1.03c0,0.61,0.5,1.11,1.11,1.11s1.11-0.5,1.11-1.11c0-0.27-0.11-0.51-0.27-0.7l1.41-3.41
		h2.01l1.08,3.16c-0.34,0.19-0.57,0.54-0.57,0.95c0,0.61,0.5,1.11,1.1,1.11c0.61,0,1.11-0.5,1.11-1.11c0-0.41-0.23-0.75-0.57-0.94
		l1.19-3.17h2.49l1.28,3.23c-0.28,0.2-0.47,0.51-0.47,0.88c0,0.61,0.5,1.11,1.11,1.11c0.61,0,1.11-0.5,1.11-1.11
		c0-0.36-0.19-0.67-0.46-0.87l1.38-3.24h2.31l1.19,3.21c-0.3,0.2-0.5,0.52-0.5,0.9c0,0.61,0.5,1.11,1.1,1.11
		c0.61,0,1.11-0.5,1.11-1.11c0-0.32-0.14-0.6-0.36-0.81l1.24-3.31h2.26l1.22,3.26c-0.26,0.2-0.43,0.5-0.43,0.85
		c0,0.61,0.5,1.11,1.11,1.11c0.61,0,1.11-0.5,1.11-1.11c0-0.36-0.19-0.67-0.46-0.87l1.08-3.24h0.4l0.04,3.07
		c-0.45,0.14-0.79,0.55-0.79,1.04c0,0.61,0.5,1.11,1.11,1.11c0.61,0,1.1-0.5,1.1-1.11c0-0.44-0.26-0.81-0.63-0.99l-0.07-6
		C48.93,21.28,49.4,20.8,49.4,20.21z M8.88,26.78v-2.6h1.36L8.88,26.78z M11.55,23.39l0.88-1.68l0.63,1.68H11.55z M15.22,26.93
		l-1.03-2.75h2.25L15.22,26.93z M17.65,23.39l0.92-2.08c0.05,0,0.1-0.02,0.15-0.03l0.74,2.11H17.65z M21.49,26.83l-0.92-2.65h2.01
		L21.49,26.83z M23.76,23.39l0.77-1.88l0.64,1.88H23.76z M27.08,26.5l-0.79-2.32h1.66L27.08,26.5z M29.09,23.39l0.83-2.22
		c0.06,0.03,0.13,0.06,0.2,0.08l0.85,2.14H29.09z M33.2,26.9l-1.08-2.72h2.23L33.2,26.9z M35.55,23.39l0.89-2.08
		c0.01,0,0.01,0,0.02,0l0.77,2.09H35.55z M39.41,26.98l-1.04-2.81h2.09L39.41,26.98z M41.6,23.39l0.78-2.08
		c0.04,0,0.07-0.02,0.1-0.02l0.78,2.1H41.6z M45.43,26.93l-1.03-2.75h1.95L45.43,26.93z M47.44,23.39L47.57,23l0,0.38H47.44z"/>
	<polygon points="27.9,32.24 26.51,32.24 26.51,39.08 30.03,39.08 30.03,37.71 27.9,37.71 	"/>
	<polygon points="9.06,30.34 8.27,30.34 8.27,38.07 9.06,38.07 9.06,34.51 22.26,34.51 22.26,33.72 9.06,33.72 	"/>
	<polygon points="47.81,33.72 34.65,33.72 34.65,34.51 47.81,34.51 47.81,38.07 48.6,38.07 48.6,30.34 47.81,30.34 	"/>
</g>
</svg>
