<?xml version="1.0" encoding="utf-8"?>
<!-- Generator: Adobe Illustrator 24.3.0, SVG Export Plug-In . SVG Version: 6.00 Build 0)  -->
<svg version="1.1" id="图层_1" xmlns="http://www.w3.org/2000/svg" xmlns:xlink="http://www.w3.org/1999/xlink" x="0px" y="0px"
	 viewBox="0 0 56.69 56.69" style="enable-background:new 0 0 56.69 56.69;" xml:space="preserve">
<style type="text/css">
	.st0{fill-rule:evenodd;clip-rule:evenodd;}
</style>
<g>
	<path d="M41.24,21.71c-0.6-6.55-6.12-11.7-12.82-11.7c-6.7,0-12.22,5.15-12.82,11.7h-0.22v24.97h0.79V26.86
		c1.68,5.16,6.53,8.91,12.24,8.91c5.55,0,10.28-3.54,12.09-8.48v19.39h0.79V21.71H41.24z M28.42,34.98
		c-6.66,0-12.09-5.42-12.09-12.09c0-6.66,5.42-12.09,12.09-12.09c6.67,0,12.09,5.42,12.09,12.09
		C40.51,29.56,35.09,34.98,28.42,34.98z"/>
	<circle cx="23.56" cy="22.26" r="2.04"/>
	<circle cx="32.66" cy="22.26" r="2.04"/>
</g>
</svg>
