<?xml version="1.0" encoding="utf-8"?>
<!-- Generator: Adobe Illustrator 24.3.0, SVG Export Plug-In . SVG Version: 6.00 Build 0)  -->
<svg version="1.1" id="图层_1" xmlns="http://www.w3.org/2000/svg" xmlns:xlink="http://www.w3.org/1999/xlink" x="0px" y="0px"
	 viewBox="0 0 56.69 56.69" style="enable-background:new 0 0 56.69 56.69;" xml:space="preserve">
<style type="text/css">
	.st0{fill-rule:evenodd;clip-rule:evenodd;}
</style>
<g>
	<path d="M41.73,28.23l-0.12-0.2l-0.24,0.01c-0.04,0-3.99,0.18-4.5,0.18c-0.43-0.13-1.84-2.14-3.2-4.09l-0.33-0.47
		c-1.02-1.47-2.63-3.1-4.05-4.53c-1.15-1.17-2.23-2.27-2.46-2.76c-0.43-0.92-0.97-4.69-1.15-6.06l-0.06-0.47l-2.77,0.89
		c-0.12,0.05-3.04,1.4-3.14,4.16c-0.09,2.6,1.9,6.49,2.71,7.61c0.47,0.65,0.62,2.21,0.64,3.03c-0.44,0.15-1.34,0.43-2.05,0.54
		c-0.2,0.03-0.43,0.03-0.7,0.02c-1.14-0.01-2.84-0.02-5.52,1.84c-3.21,2.23-0.95,6.8-0.4,7.79c-0.36,0.81-0.4,1.57-0.14,2.29
		c0.37,0.99,1.24,1.61,1.72,1.88c-0.22,0.69-0.17,1.33,0.13,1.93c0.65,1.25,2.32,1.91,3.26,2.19c-0.14,0.27-0.25,0.65-0.2,1.18
		c0.11,1.37,0.83,1.71,2.51,1.99c1.66,0.28,4.52,0.02,4.56,0c0.11,0.01,2.19,0.27,3.76,0.27c0.5,0,0.95-0.03,1.28-0.09
		c1.27-0.27,5.24-4.01,6.08-4.81l4.8-0.09l0.06-0.31c0.01-0.04,0.82-4.31,1.27-7.1C43.97,32.11,41.82,28.39,41.73,28.23z
		 M25.06,26.65c-0.02-0.17-0.57-4.11-2.05-6.68c-1.48-2.59-2.06-3.87-1.44-5.28c0.64-1.45,1.76-1.96,1.76-1.96
		c0.31-0.1,0.67-0.2,0.95-0.28c-0.14,1.41,0.14,4.35,1.17,5.61c0.43,0.53,1.28,1.4,2.26,2.4c1.88,1.92,4.45,4.55,5.33,6.09
		c1.33,2.31,2.4,3.24,4.09,3.55c1.17,0.22,3.03,0.62,3.67,0.77c0.3,1,0.84,3.2,0.65,4.22c-0.1,0.55-0.18,1.29-0.26,2.08
		c-0.12,1.19-0.27,2.67-0.51,3.05c-0.23,0.28-2.06,0.44-3.92,0.36l-0.16-0.01l-0.12,0.11c0,0-3.45,3-4.72,4.09
		c-0.96,0.82-1.29,0.84-1.9,0.87c-0.13,0.01-0.27,0.02-0.43,0.03c-0.18,0.02-0.32,0.02-0.44,0.01c0.23-0.19,0.59-0.4,1.1-0.51
		c0.63-0.14,0.87-0.46,0.96-0.71c0.22-0.59-0.22-1.21-0.25-1.24l-0.99-1.75l1.07-0.63l-0.17-0.33c-0.1-0.19-0.95-1.89-1.53-2.47
		c-0.16-0.16-0.28-0.3-0.36-0.42l1.31-0.5l-2.65-2.85l0.31-0.54l-0.05-0.17c-0.05-0.14-1.2-3.52-3.43-3.72
		c-1.72-0.15-2.07-0.11-3.12,0.01l-4.22,0.47l-0.07,0.26c-0.02,0.07-0.17,0.67,0.25,1.18c0.34,0.42,0.95,0.63,1.79,0.58
		c0.78-0.03,1.47-0.24,2.08-0.42c1.03-0.3,1.85-0.54,2.79,0c0.65,0.38,0.97,0.65,1.12,0.83c-0.79,0.2-2.38,0.69-3.06,1.59
		c-0.64,0.86-4.14,0.84-5.06,0.42c-0.85-0.38-2.41-2.28-1.71-3.84c0.81-1.81,1.67-2.25,2.87-2.4c1.42-0.18,6.28-0.45,6.33-0.45
		l0.26-0.01l0.48-1.34L25.06,26.65z M25.44,39.19c0.25-0.14,0.47-0.27,0.66-0.36c0.7-0.36,1.5-0.16,1.88-0.06
		c0.13,0.05,0.34,0.46,0.5,0.91c-0.32,0.13-0.85,0.33-1.55,0.62c-0.69,0.28-1.22,0.59-1.73,0.89c-0.38,0.22-0.74,0.43-1.14,0.61
		c-0.86,0.39-2.38,0.31-3.24,0.27c-0.72-0.04-2.27-0.69-2.78-0.93c0.01-0.09,0.06-0.25,0.12-0.4c0.81-0.03,3.4-0.16,4.46-0.35
		C23.61,40.22,24.62,39.65,25.44,39.19z M16.13,36.56c0.34,0.04,1.29,0.16,2.72,0.34c1.83,0.22,2.74-0.06,3.97-0.75
		c0.86-0.48,2.1-1.08,2.97-0.76c0.75,0.27,1.06,0.64,1.34,0.97l0.04,0.05c-0.02,0.01-0.03,0.01-0.05,0.02l-0.14,0.06
		c-0.15,0.07-0.5,0.13-0.83,0.19c-0.59,0.1-1.26,0.22-1.71,0.49c-0.22,0.13-0.43,0.3-0.64,0.47c-0.42,0.34-0.82,0.66-1.34,0.71
		c-0.89,0.08-4.52,0.09-5.32,0c-0.46-0.05-1.12-0.45-1.42-0.87c-0.11-0.15-0.13-0.25-0.12-0.28C15.66,36.91,15.95,36.67,16.13,36.56
		z M21.25,44.2c0.65,0.07,1.89,0.11,3.16-0.45c0.54-0.23,0.94-0.44,1.27-0.61c0.71-0.36,1.02-0.55,1.71-0.5
		c0.68,0.03,0.97,0.26,1.25,0.49c0.08,0.06,0.15,0.13,0.25,0.19c-0.01,0.01-0.03,0.02-0.04,0.03l-0.09,0.07
		c-0.15,0.1-0.4,0.2-0.71,0.32c-0.22,0.08-0.48,0.18-0.76,0.3c-0.39,0.17-0.67,0.36-0.92,0.52c-0.22,0.15-0.43,0.29-0.7,0.4
		c-0.23,0.1-0.36,0.18-0.47,0.25c-0.14,0.09-0.2,0.13-0.71,0.16c-0.56,0.02-0.96-0.05-1.39-0.13c-0.25-0.05-0.5-0.1-0.79-0.13
		c-0.46-0.05-0.88-0.31-1.09-0.46L21.25,44.2z"/>
	<polygon points="15.53,19.11 17.88,19.11 17.88,11.42 15.53,11.42 15.53,12.86 14.11,12.86 14.11,17.67 15.53,17.67 	"/>
</g>
</svg>
