<?xml version="1.0" encoding="utf-8"?>
<!-- Generator: Adobe Illustrator 24.3.0, SVG Export Plug-In . SVG Version: 6.00 Build 0)  -->
<svg version="1.1" id="图层_1" xmlns="http://www.w3.org/2000/svg" xmlns:xlink="http://www.w3.org/1999/xlink" x="0px" y="0px"
	 viewBox="0 0 56.69 56.69" style="enable-background:new 0 0 56.69 56.69;" xml:space="preserve">
<style type="text/css">
	.st0{fill-rule:evenodd;clip-rule:evenodd;}
</style>
<g>
	<path d="M28.51,44.35l11.65-11.43l-5.42-5.48l5.13-5.05L28.43,10.75l-5.17,5.09l-5.35-5.41L6.26,21.85l5.37,5.43l-5.17,5.09
		l11.43,11.65l0.91-0.9l3.94,3.94l0.11-0.11h0.44l0.11,0.11l0.11-0.11h0.16V46.8l3.65-3.65L28.51,44.35z M38.84,32.91L28.52,43.04
		l-4.75-4.8l10.3-10.15L38.84,32.91z M27.4,33.36l-3.73-3.73V17.57l9.75,9.86L27.4,33.36z M22.74,29.37l-3.89,3.89l-5.9-5.97
		l9.79-9.64V29.37z M23.08,30.35l3.66,3.66l-3.62,3.57l-3.62-3.66L23.08,30.35z M28.42,12.06l10.13,10.32l-4.47,4.4L23.92,16.5
		L28.42,12.06z M7.58,21.86L17.9,11.73l4.7,4.75L12.3,26.63L7.58,21.86z M7.78,32.39l4.51-4.44l10.17,10.28l-4.55,4.48L7.78,32.39z
		 M22.74,39.25v6.5l-3.28-3.28L22.74,39.25z M23.67,45.49v-6.03l3,3.03L23.67,45.49z"/>
	<path d="M38.55,39.47c0.79,0,1.41,0.3,1.86,0.9l0.53-0.33c-0.16-0.26-0.34-0.47-0.57-0.63c-0.22-0.17-0.49-0.3-0.81-0.41
		c-0.32-0.1-0.65-0.16-0.99-0.16c-0.54,0-1.04,0.12-1.48,0.36c-0.44,0.24-0.79,0.57-1.03,1c-0.25,0.43-0.38,0.89-0.38,1.38
		c0,0.74,0.27,1.37,0.8,1.88c0.54,0.52,1.21,0.77,2.03,0.77c0.53,0,1-0.1,1.42-0.31c0.42-0.2,0.75-0.49,0.99-0.86l-0.53-0.35
		c-0.48,0.6-1.1,0.9-1.86,0.9c-0.41,0-0.79-0.09-1.12-0.27c-0.33-0.18-0.6-0.44-0.79-0.77c-0.19-0.33-0.29-0.68-0.29-1.06
		c0-0.58,0.21-1.06,0.62-1.47C37.39,39.68,37.92,39.47,38.55,39.47z"/>
	<path d="M50.23,39.87c-0.13-0.32-0.33-0.57-0.61-0.75c-0.27-0.18-0.59-0.27-0.94-0.27c-0.38,0-0.74,0.11-1.07,0.32
		c-0.33,0.21-0.61,0.52-0.83,0.92c-0.1-0.3-0.23-0.54-0.37-0.7c-0.14-0.16-0.32-0.29-0.55-0.39c-0.22-0.1-0.46-0.15-0.71-0.15
		c-0.37,0-0.72,0.1-1.05,0.3c-0.24,0.15-0.48,0.39-0.71,0.72v-0.89h-0.66v5.14h0.66v-2.18c0-0.64,0.06-1.12,0.19-1.43
		c0.13-0.31,0.32-0.56,0.59-0.74c0.27-0.18,0.55-0.28,0.86-0.28c0.26,0,0.49,0.07,0.69,0.2c0.19,0.13,0.33,0.31,0.4,0.53
		c0.08,0.22,0.12,0.64,0.12,1.26v2.63h0.66v-2.01c0-0.74,0.06-1.26,0.18-1.58c0.12-0.32,0.32-0.57,0.58-0.76
		c0.26-0.19,0.56-0.28,0.88-0.28c0.27,0,0.49,0.06,0.68,0.19c0.19,0.13,0.32,0.29,0.4,0.5c0.08,0.21,0.12,0.58,0.12,1.14v2.81h0.68
		v-2.8C50.43,40.68,50.37,40.2,50.23,39.87z"/>
</g>
</svg>
