<?xml version="1.0" encoding="utf-8"?>
<!-- Generator: Adobe Illustrator 24.3.0, SVG Export Plug-In . SVG Version: 6.00 Build 0)  -->
<svg version="1.1" id="图层_1" xmlns="http://www.w3.org/2000/svg" xmlns:xlink="http://www.w3.org/1999/xlink" x="0px" y="0px"
	 viewBox="0 0 56.69 56.69" style="enable-background:new 0 0 56.69 56.69;" xml:space="preserve">
<style type="text/css">
	.st0{fill-rule:evenodd;clip-rule:evenodd;}
</style>
<g>
	<path d="M16.9,12.16c0,0.15-0.21,14.73-0.21,23.29c0,8.64,3.17,16.24,3.2,16.32l0.22,0.52l0.41-0.38
		c1.29-1.18,2.51-6.27,3.08-12.96c0.63-7.24,0.85-33.44,0.85-33.71l0-0.4H16.9V12.16z M21.58,30.26c0.02,1.19,0.04,2.32-0.11,3.56
		l-0.06,0.52c-0.1,0.83-0.21,1.76-0.38,1.86c0,0-0.08,0.03-0.36-0.1c-0.83-0.38-1.26-2.13-1.13-4.57c0.14-2.47,0.27-4.57,0.27-4.59
		c0.02-0.65,0.16-0.68,0.5-0.75c0.21-0.04,0.46-0.1,0.68-0.29c0.07-0.03,0.23-0.07,0.34-0.01c0.08,0.05,0.33,0.3,0.27,1.38
		C21.55,28.38,21.56,29.34,21.58,30.26z"/>
	<polygon points="33.51,4.88 33.78,44.01 40,34.76 40,4.88 	"/>
</g>
</svg>
