<?xml version="1.0" encoding="utf-8"?>
<!-- Generator: Adobe Illustrator 24.3.0, SVG Export Plug-In . SVG Version: 6.00 Build 0)  -->
<svg version="1.1" id="图层_1" xmlns="http://www.w3.org/2000/svg" xmlns:xlink="http://www.w3.org/1999/xlink" x="0px" y="0px"
	 viewBox="0 0 56.69 56.69" style="enable-background:new 0 0 56.69 56.69;" xml:space="preserve">
<style type="text/css">
	.st0{fill-rule:evenodd;clip-rule:evenodd;}
</style>
<g>
	<polygon points="5.96,11.53 26.06,45.16 31.01,36.62 28.98,34.95 25.98,40.26 10.99,14.47 40.53,14.47 37.42,19.99 40.14,20.87 
		45.56,11.53 	"/>
	<path d="M26.74,32.04v-9.03h-0.71c-0.19,0.39-0.52,0.79-0.98,1.2c-0.46,0.41-1,0.77-1.62,1.05v1.07c0.34-0.13,0.73-0.32,1.16-0.57
		c0.43-0.25,0.78-0.51,1.05-0.76v7.04H26.74z"/>
	<path d="M35.56,30.39c0.19-0.2,0.61-0.58,1.28-1.13c0.79-0.67,1.36-1.2,1.7-1.58c0.34-0.38,0.59-0.75,0.73-1.1
		c0.15-0.35,0.22-0.7,0.22-1.06c0-0.71-0.25-1.3-0.76-1.78c-0.5-0.48-1.19-0.72-2.05-0.72c-0.86,0-1.54,0.22-2.04,0.67
		c-0.51,0.44-0.8,1.09-0.88,1.93l1.13,0.11c0-0.56,0.17-1,0.49-1.32c0.32-0.32,0.75-0.48,1.28-0.48c0.5,0,0.92,0.15,1.23,0.45
		c0.31,0.3,0.47,0.67,0.47,1.11c0,0.42-0.17,0.86-0.52,1.33c-0.34,0.47-1.01,1.1-1.98,1.91c-0.63,0.51-1.11,0.96-1.44,1.36
		c-0.34,0.39-0.58,0.79-0.73,1.2c-0.09,0.25-0.14,0.5-0.13,0.77h5.95v-1.05h-4.41C35.21,30.78,35.37,30.58,35.56,30.39z"/>
	<path d="M50.29,27.92c-0.3-0.39-0.71-0.64-1.24-0.76c0.41-0.19,0.72-0.44,0.93-0.76c0.21-0.32,0.31-0.67,0.31-1.06
		c0-0.41-0.11-0.79-0.33-1.16c-0.22-0.36-0.53-0.65-0.95-0.86c-0.41-0.21-0.86-0.32-1.35-0.32c-0.71,0-1.31,0.2-1.79,0.61
		c-0.48,0.41-0.78,0.98-0.92,1.72l1.11,0.2c0.08-0.54,0.27-0.95,0.55-1.22c0.29-0.27,0.64-0.41,1.08-0.41c0.43,0,0.79,0.13,1.06,0.4
		c0.27,0.27,0.41,0.6,0.41,1c0,0.51-0.19,0.89-0.57,1.13c-0.38,0.24-0.8,0.37-1.27,0.37c-0.04,0-0.1,0-0.18-0.01l-0.12,0.97
		c0.31-0.08,0.57-0.12,0.78-0.12c0.51,0,0.93,0.17,1.26,0.49c0.33,0.33,0.5,0.75,0.5,1.26c0,0.53-0.18,0.98-0.53,1.34
		c-0.36,0.36-0.8,0.54-1.32,0.54c-0.44,0-0.81-0.14-1.12-0.41c-0.3-0.28-0.52-0.73-0.65-1.36l-1.1,0.15
		c0.07,0.75,0.37,1.36,0.89,1.83c0.52,0.47,1.18,0.71,1.97,0.71c0.87,0,1.6-0.27,2.17-0.82c0.57-0.55,0.86-1.21,0.86-2
		C50.73,28.79,50.58,28.31,50.29,27.92z"/>
	<path d="M31.1,30.9c-0.34,0-0.59,0.29-0.59,0.64c0,0.34,0.25,0.64,0.59,0.64c0.35,0,0.6-0.3,0.6-0.64
		C31.71,31.21,31.48,30.9,31.1,30.9z"/>
	<path d="M42.23,30.9c-0.34,0-0.59,0.29-0.59,0.64c0,0.34,0.25,0.64,0.59,0.64c0.35,0,0.6-0.3,0.6-0.64
		C42.83,31.21,42.6,30.9,42.23,30.9z"/>
</g>
</svg>
