<?xml version="1.0" encoding="utf-8"?>
<!-- Generator: Adobe Illustrator 24.3.0, SVG Export Plug-In . SVG Version: 6.00 Build 0)  -->
<svg version="1.1" id="图层_1" xmlns="http://www.w3.org/2000/svg" xmlns:xlink="http://www.w3.org/1999/xlink" x="0px" y="0px"
	 viewBox="0 0 56.69 56.69" style="enable-background:new 0 0 56.69 56.69;" xml:space="preserve">
<style type="text/css">
	.st0{fill-rule:evenodd;clip-rule:evenodd;}
</style>
<path d="M48.04,32.2l0.01-0.79l-3.66-0.03l0.05-9.28h2.82v-7.89l-31.53-0.13v-0.73h-0.79v0.72l-1.95-0.01v12h1.81v1.83h0.79v-1.83
	h1.14l1.46-4.11h16.24v12.02H11.04v3.28l23.39,0.84v4.44H8.65v0.79h39.19v-0.79h-3.5l0.05-10.37L48.04,32.2z M34.29,37.31
	L11.83,36.5v-1.73h22.46V37.31z M46.47,21.32h-2.03L44.47,15l2,0.01V21.32z M43.55,42.55h-8.33V21.18H17.63l-1.46,4.11h-2.39V14.87
	l29.9,0.12L43.6,31.38l-5.51-0.04l-0.01,0.79l5.51,0.04L43.55,42.55z"/>
</svg>
