<?xml version="1.0" encoding="utf-8"?>
<!-- Generator: Adobe Illustrator 24.3.0, SVG Export Plug-In . SVG Version: 6.00 Build 0)  -->
<svg version="1.1" id="图层_1" xmlns="http://www.w3.org/2000/svg" xmlns:xlink="http://www.w3.org/1999/xlink" x="0px" y="0px"
	 viewBox="0 0 56.69 56.69" style="enable-background:new 0 0 56.69 56.69;" xml:space="preserve">
<style type="text/css">
	.st0{fill-rule:evenodd;clip-rule:evenodd;}
</style>
<g>
	<polygon points="20.55,22.26 13.85,17.03 13.85,22.01 7.13,16.51 6.87,26.22 28.29,26.22 28.29,22.32 20.55,16.99 	"/>
	<polygon points="41.5,16.75 41.5,22.24 34.87,16.66 34.83,26.22 49.83,26.22 49.83,22.52 	"/>
	<polygon points="25.26,33.77 25.24,33.42 25.2,33.07 25.15,32.72 25.1,32.38 25.03,32.05 24.94,31.73 24.85,31.42 24.74,31.12 
		24.62,30.84 24.48,30.57 24.32,30.32 24.15,30.1 23.95,29.89 23.74,29.72 23.5,29.57 23.24,29.47 22.96,29.41 22.83,29.39 
		22.7,29.37 22.58,29.35 22.45,29.34 22.32,29.32 22.19,29.31 22.06,29.29 21.94,29.28 21.81,29.26 21.69,29.25 21.56,29.24 
		21.44,29.23 21.31,29.22 21.19,29.21 21.07,29.2 20.95,29.19 20.82,29.18 20.7,29.17 20.58,29.16 20.46,29.15 20.34,29.15 
		20.23,29.14 20.11,29.14 19.99,29.13 19.87,29.13 19.76,29.12 19.64,29.12 19.53,29.12 19.41,29.12 19.3,29.12 19.18,29.11 
		19.14,29.11 19.14,27.08 14.28,29.51 19.14,31.94 19.14,29.9 19.18,29.9 19.29,29.9 19.4,29.91 19.51,29.91 19.62,29.91 
		19.73,29.91 19.85,29.92 19.96,29.92 20.07,29.93 20.19,29.93 20.3,29.94 20.42,29.94 20.53,29.95 20.65,29.96 20.77,29.97 
		20.89,29.97 21.01,29.98 21.12,29.99 21.24,30 21.36,30.01 21.48,30.03 21.61,30.04 21.73,30.05 21.85,30.06 21.97,30.08 
		22.1,30.09 22.22,30.11 22.35,30.12 22.47,30.14 22.6,30.15 22.73,30.17 22.85,30.19 23,30.22 23.15,30.28 23.28,30.36 
		23.42,30.47 23.55,30.61 23.67,30.77 23.79,30.96 23.9,31.18 24.01,31.41 24.1,31.67 24.18,31.94 24.26,32.23 24.32,32.53 
		24.37,32.84 24.42,33.16 24.45,33.49 24.47,33.82 24.49,34.15 24.49,34.48 24.48,34.81 24.47,35.13 24.44,35.45 24.41,35.76 
		24.36,36.05 24.31,36.34 24.25,36.6 24.19,36.85 24.11,37.08 24.03,37.28 23.95,37.46 23.86,37.61 23.78,37.73 23.63,37.9 
		23.47,38.07 23.32,38.22 23.18,38.35 23.03,38.48 22.89,38.6 22.75,38.7 22.61,38.8 22.48,38.88 22.35,38.96 22.22,39.03 
		22.1,39.09 21.98,39.14 21.86,39.19 21.75,39.22 21.64,39.26 21.54,39.29 21.45,39.31 21.36,39.33 21.27,39.34 21.19,39.35 
		21.12,39.36 21.05,39.36 21,39.36 20.94,39.36 20.9,39.36 20.86,39.36 20.83,39.36 20.81,39.36 20.79,39.36 20.79,39.36 
		20.77,39.35 20.74,39.35 20.52,39.34 20.29,39.34 20.05,39.34 19.81,39.34 19.57,39.34 19.31,39.34 19.06,39.35 18.8,39.36 
		18.54,39.36 18.28,39.37 18.02,39.38 17.75,39.38 17.49,39.39 17.24,39.39 16.98,39.39 16.73,39.39 16.48,39.39 16.24,39.39 
		16.01,39.39 15.78,39.38 15.57,39.37 15.36,39.35 15.16,39.33 14.98,39.31 14.81,39.28 14.65,39.25 14.51,39.22 14.39,39.18 
		14.29,39.14 14.21,39.1 14.15,39.07 14.11,39.04 14.06,38.98 14,38.91 13.93,38.83 13.87,38.73 13.8,38.63 13.74,38.52 
		13.67,38.41 13.6,38.28 13.54,38.15 13.47,38.01 13.41,37.86 13.35,37.71 13.29,37.55 13.23,37.38 13.17,37.21 13.11,37.04 
		13.06,36.86 13.01,36.67 12.96,36.48 12.92,36.29 12.88,36.09 12.84,35.89 12.8,35.69 12.77,35.48 12.75,35.27 12.72,35.06 
		12.7,34.85 12.69,34.64 12.68,34.42 12.67,34.21 12.67,33.99 12.68,33.77 12.69,33.57 12.71,33.37 12.74,33.18 12.77,33 
		12.81,32.82 12.85,32.66 12.9,32.5 12.96,32.34 13.02,32.2 13.08,32.06 13.14,31.93 13.21,31.8 13.28,31.68 13.35,31.57 
		13.42,31.47 13.49,31.37 13.57,31.28 13.63,31.19 13.7,31.11 13.77,31.04 13.84,30.97 13.9,30.91 13.95,30.86 14.01,30.81 
		14.06,30.77 14.1,30.73 14.14,30.7 14.17,30.68 14.19,30.66 14.21,30.65 14.22,30.65 14.22,30.65 13.8,29.98 13.78,29.99 13.77,30 
		13.74,30.02 13.7,30.04 13.66,30.08 13.61,30.12 13.55,30.16 13.49,30.22 13.42,30.28 13.35,30.34 13.28,30.42 13.2,30.5 
		13.12,30.59 13.03,30.68 12.95,30.78 12.86,30.9 12.78,31.01 12.69,31.14 12.61,31.27 12.52,31.42 12.44,31.57 12.36,31.72 
		12.29,31.89 12.22,32.06 12.16,32.25 12.1,32.44 12.04,32.63 12,32.84 11.96,33.05 11.93,33.28 11.9,33.51 11.89,33.74 
		11.88,33.98 11.88,34.21 11.89,34.45 11.9,34.68 11.92,34.91 11.94,35.14 11.96,35.37 11.99,35.59 12.02,35.81 12.06,36.03 
		12.1,36.25 12.15,36.46 12.19,36.67 12.25,36.87 12.3,37.07 12.36,37.27 12.42,37.46 12.48,37.64 12.55,37.82 12.61,38 
		12.68,38.17 12.75,38.33 12.83,38.49 12.9,38.64 12.98,38.79 13.06,38.92 13.13,39.05 13.21,39.18 13.3,39.29 13.38,39.4 
		13.47,39.5 13.56,39.6 13.68,39.71 13.82,39.8 13.97,39.87 14.13,39.93 14.3,39.98 14.48,40.02 14.67,40.06 14.87,40.09 
		15.08,40.12 15.29,40.14 15.52,40.15 15.75,40.17 15.98,40.18 16.23,40.18 16.48,40.18 16.73,40.18 16.99,40.18 17.25,40.18 
		17.51,40.18 17.77,40.17 18.04,40.17 18.3,40.16 18.56,40.15 18.82,40.15 19.08,40.14 19.33,40.13 19.58,40.13 19.82,40.13 
		20.05,40.13 20.28,40.13 20.5,40.13 20.69,40.14 20.69,40.14 20.72,40.14 20.77,40.15 20.81,40.15 20.87,40.15 20.94,40.15 
		21.02,40.15 21.1,40.15 21.19,40.14 21.29,40.13 21.39,40.12 21.5,40.1 21.62,40.08 21.74,40.05 21.87,40.01 22,39.97 22.14,39.92 
		22.28,39.87 22.43,39.8 22.58,39.73 22.73,39.65 22.89,39.56 23.05,39.45 23.21,39.34 23.37,39.22 23.54,39.09 23.71,38.94 
		23.88,38.78 24.05,38.61 24.21,38.43 24.38,38.23 24.52,38.04 24.65,37.83 24.76,37.59 24.86,37.34 24.94,37.08 25.02,36.79 
		25.09,36.49 25.14,36.18 25.19,35.86 25.23,35.52 25.25,35.18 25.27,34.83 25.28,34.48 25.28,34.13 	"/>
	<polygon points="48.2,34.04 48.17,33.66 48.14,33.29 48.09,32.92 48.03,32.56 47.96,32.21 47.88,31.87 47.78,31.54 47.68,31.22 
		47.55,30.92 47.42,30.64 47.26,30.38 47.09,30.14 46.9,29.92 46.68,29.74 46.44,29.58 46.18,29.47 45.9,29.41 45.75,29.39 
		45.6,29.37 45.43,29.35 45.25,29.34 45.06,29.32 44.86,29.3 44.65,29.29 44.43,29.28 44.21,29.26 43.98,29.25 43.74,29.24 
		43.5,29.23 43.26,29.22 43.02,29.21 42.77,29.2 42.52,29.19 42.28,29.18 42.03,29.17 41.79,29.16 41.55,29.15 41.32,29.15 
		41.09,29.14 40.87,29.14 40.65,29.13 40.45,29.13 40.25,29.12 40.06,29.12 39.89,29.12 39.73,29.12 39.58,29.12 39.44,29.11 
		39.39,29.11 39.39,27.08 34.53,29.51 39.39,31.94 39.39,29.9 39.44,29.9 39.57,29.9 39.72,29.91 39.88,29.91 40.05,29.91 
		40.24,29.91 40.43,29.92 40.64,29.92 40.85,29.93 41.07,29.93 41.3,29.94 41.53,29.94 41.77,29.95 42.01,29.96 42.25,29.97 
		42.49,29.98 42.74,29.98 42.98,29.99 43.23,30 43.47,30.02 43.7,30.03 43.94,30.04 44.16,30.05 44.38,30.06 44.6,30.08 44.8,30.09 
		45,30.11 45.18,30.12 45.35,30.14 45.51,30.16 45.66,30.17 45.79,30.19 45.93,30.22 46.07,30.28 46.21,30.37 46.34,30.49 
		46.47,30.63 46.6,30.81 46.72,31.01 46.83,31.24 46.94,31.5 47.03,31.77 47.12,32.07 47.19,32.38 47.25,32.7 47.31,33.03 
		47.35,33.38 47.38,33.73 47.41,34.08 47.42,34.44 47.42,34.79 47.42,35.14 47.4,35.49 47.38,35.83 47.34,36.15 47.3,36.47 
		47.25,36.77 47.19,37.05 47.12,37.31 47.04,37.55 46.96,37.76 46.88,37.95 46.8,38.1 46.71,38.21 46.62,38.3 46.46,38.41 
		46.25,38.52 45.99,38.63 45.68,38.73 45.34,38.83 44.95,38.92 44.54,39 44.1,39.08 43.63,39.14 43.14,39.2 42.64,39.25 
		42.12,39.29 41.59,39.33 41.05,39.35 40.51,39.37 39.98,39.38 39.44,39.38 38.91,39.38 38.39,39.36 37.89,39.34 37.4,39.31 
		36.94,39.27 36.5,39.22 36.08,39.16 35.7,39.1 35.36,39.03 35.05,38.95 34.8,38.87 34.59,38.79 34.44,38.71 34.36,38.65 
		34.36,38.65 34.3,38.58 34.24,38.51 34.18,38.43 34.11,38.35 34.04,38.25 33.98,38.15 33.91,38.05 33.85,37.93 33.78,37.82 
		33.72,37.69 33.65,37.56 33.59,37.43 33.53,37.28 33.47,37.14 33.42,36.99 33.36,36.83 33.31,36.67 33.26,36.5 33.21,36.33 
		33.17,36.16 33.13,35.98 33.09,35.79 33.05,35.61 33.02,35.42 32.99,35.22 32.97,35.02 32.95,34.82 32.94,34.62 32.93,34.41 
		32.92,34.2 32.92,33.99 32.93,33.77 32.94,33.57 32.96,33.37 32.99,33.18 33.02,33 33.06,32.82 33.1,32.66 33.15,32.5 33.21,32.34 
		33.27,32.2 33.33,32.06 33.39,31.93 33.46,31.8 33.53,31.68 33.6,31.57 33.67,31.47 33.74,31.37 33.82,31.28 33.89,31.19 
		33.95,31.11 34.02,31.04 34.09,30.97 34.15,30.91 34.21,30.86 34.26,30.81 34.31,30.77 34.35,30.73 34.39,30.7 34.42,30.68 
		34.44,30.66 34.46,30.65 34.47,30.65 34.47,30.65 34.05,29.98 34.04,29.99 34.02,30 33.99,30.02 33.95,30.04 33.91,30.08 
		33.86,30.12 33.8,30.16 33.74,30.22 33.67,30.28 33.6,30.34 33.53,30.42 33.45,30.5 33.37,30.59 33.28,30.68 33.2,30.78 
		33.11,30.9 33.03,31.01 32.94,31.14 32.86,31.27 32.77,31.42 32.69,31.57 32.61,31.72 32.54,31.89 32.47,32.06 32.41,32.25 
		32.35,32.44 32.29,32.63 32.25,32.84 32.21,33.05 32.18,33.28 32.15,33.51 32.14,33.74 32.13,33.98 32.13,34.21 32.14,34.44 
		32.15,34.66 32.17,34.89 32.19,35.11 32.21,35.32 32.24,35.53 32.27,35.74 32.31,35.94 32.35,36.15 32.4,36.34 32.45,36.53 
		32.5,36.72 32.55,36.9 32.61,37.08 32.67,37.26 32.74,37.42 32.8,37.59 32.87,37.75 32.94,37.9 33.01,38.05 33.08,38.19 
		33.16,38.33 33.24,38.46 33.31,38.58 33.39,38.7 33.47,38.81 33.55,38.92 33.64,39.02 33.72,39.12 33.8,39.2 33.81,39.2 
		34.01,39.37 34.26,39.5 34.53,39.62 34.84,39.71 35.18,39.8 35.56,39.88 35.97,39.94 36.4,40 36.86,40.05 37.34,40.09 37.85,40.13 
		38.36,40.15 38.89,40.17 39.44,40.17 39.98,40.17 40.53,40.16 41.08,40.14 41.63,40.12 42.17,40.08 42.71,40.04 43.23,39.99 
		43.73,39.93 44.22,39.86 44.68,39.78 45.12,39.69 45.53,39.59 45.92,39.48 46.27,39.37 46.58,39.23 46.87,39.09 47.11,38.92 
		47.32,38.72 47.46,38.52 47.58,38.31 47.69,38.07 47.79,37.81 47.88,37.53 47.95,37.23 48.02,36.92 48.08,36.59 48.12,36.25 
		48.16,35.9 48.19,35.53 48.21,35.17 48.21,34.79 48.21,34.42 	"/>
</g>
</svg>
