<?xml version="1.0" encoding="utf-8"?>
<!-- Generator: Adobe Illustrator 24.3.0, SVG Export Plug-In . SVG Version: 6.00 Build 0)  -->
<svg version="1.1" id="图层_1" xmlns="http://www.w3.org/2000/svg" xmlns:xlink="http://www.w3.org/1999/xlink" x="0px" y="0px"
	 viewBox="0 0 56.69 56.69" style="enable-background:new 0 0 56.69 56.69;" xml:space="preserve">
<style type="text/css">
	.st0{fill-rule:evenodd;clip-rule:evenodd;}
</style>
<path d="M49.82,38.74l0-0.79l-4,0.02l0.03-4.7h2.32v-0.79h-2.32l0.05-6.9l3.43-0.01l0.19-9.2l-37.6,0.07v-0.69h-0.79v0.69l-2.2,0
	h-0.4l0.26,14.31l2.13-0.03v0.93h0.79v-0.94l1.5-0.02l1.81-5.11l19.27,0.07l-0.07,12.37L6.88,38.15l0,0.79l2.11-0.01v2l36.42-0.16
	l0.39,0l0.01-2.01L49.82,38.74z M48.55,24.79L45.9,24.8l0.05-7.62l2.75-0.01L48.55,24.79z M14.74,24.79l-0.28,0l-1.82,5.13
	l-3.09,0.05L9.32,17.25l35.84-0.07l-0.1,15.3h-7.78v0.79h7.77l-0.03,4.7L35,38.02l0.08-13.15L14.74,24.79z M45.01,39.99L9.78,40.14
	v-1.21l35.24-0.16L45.01,39.99z"/>
</svg>
