<?xml version="1.0" encoding="utf-8"?>
<!-- Generator: Adobe Illustrator 24.3.0, SVG Export Plug-In . SVG Version: 6.00 Build 0)  -->
<svg version="1.1" id="图层_1" xmlns="http://www.w3.org/2000/svg" xmlns:xlink="http://www.w3.org/1999/xlink" x="0px" y="0px"
	 viewBox="0 0 56.69 56.69" style="enable-background:new 0 0 56.69 56.69;" xml:space="preserve">
<style type="text/css">
	.st0{fill-rule:evenodd;clip-rule:evenodd;}
</style>
<g>
	<path d="M37,10.22H18.52l-7.14,22.2l1.28-1.49c4.82-5.63,11.56-5.23,11.62-5.24l0.77,0.05l-0.41-0.66
		c-0.03-0.04-2.61-4.18-3.66-7.78c-0.5-1.71-0.6-2.78-0.31-3.17c0.17-0.22,0.54-0.27,1.13-0.27c0.98,0,1.03,0.97,1.03,1.16v0.4h10.2
		l0.12-1.54c0.21,0.01,0.4,0.01,0.59,0.01c1.26,0.01,1.56,0.01,1.64,1.39c0.09,1.66-3.21,7.56-4.48,9.68l-0.4,0.66l0.77-0.07
		c8.18-0.7,12.26,5.26,12.3,5.32l1.75,2.59L37,10.22z"/>
	<path d="M24.15,46.47h5.93V28.61h-5.93V46.47z M26.99,36.37c-0.54,0-0.98-0.44-0.98-0.98s0.44-0.98,0.98-0.98
		c0.54,0,0.98,0.44,0.98,0.98S27.53,36.37,26.99,36.37z M26.99,40.62c0.54,0,0.98,0.44,0.98,0.98s-0.44,0.98-0.98,0.98
		c-0.54,0-0.98-0.44-0.98-0.98S26.45,40.62,26.99,40.62z"/>
</g>
</svg>
