<?xml version="1.0" encoding="utf-8"?>
<!-- Generator: Adobe Illustrator 24.3.0, SVG Export Plug-In . SVG Version: 6.00 Build 0)  -->
<svg version="1.1" id="图层_1" xmlns="http://www.w3.org/2000/svg" xmlns:xlink="http://www.w3.org/1999/xlink" x="0px" y="0px"
	 viewBox="0 0 56.69 56.69" style="enable-background:new 0 0 56.69 56.69;" xml:space="preserve">
<style type="text/css">
	.st0{fill-rule:evenodd;clip-rule:evenodd;}
</style>
<g>
	<path d="M28.35,10.66c-9.62,0-17.44,7.93-17.44,17.68c0,9.75,7.82,17.68,17.44,17.68s17.44-7.93,17.44-17.68
		C45.79,18.6,37.96,10.66,28.35,10.66z M16.85,36.04c-1.44-2.21-2.28-4.85-2.28-7.69c0-7.71,6.18-13.98,13.78-13.98
		s13.78,6.27,13.78,13.98c0,2.84-0.84,5.48-2.28,7.69H16.85z M36,39.96c-2.19,1.49-4.82,2.36-7.66,2.36s-5.46-0.87-7.66-2.36H36z"/>
	<polygon points="31.67,27.02 25.85,27.02 25.85,21.34 23.69,21.34 23.69,34.8 25.85,34.8 25.85,29.02 31.67,29.02 31.67,34.8 
		33.83,34.8 33.83,21.34 31.67,21.34 	"/>
</g>
</svg>
