<?xml version="1.0" encoding="utf-8"?>
<!-- Generator: Adobe Illustrator 24.3.0, SVG Export Plug-In . SVG Version: 6.00 Build 0)  -->
<svg version="1.1" id="图层_1" xmlns="http://www.w3.org/2000/svg" xmlns:xlink="http://www.w3.org/1999/xlink" x="0px" y="0px"
	 viewBox="0 0 56.69 56.69" style="enable-background:new 0 0 56.69 56.69;" xml:space="preserve">
<style type="text/css">
	.st0{fill-rule:evenodd;clip-rule:evenodd;}
</style>
<g>
	<path d="M24.36,23.76l-0.19-12.54l-11.37,0.2l0.05,8.35h-2.07l-0.01-1.65l-0.79,0l0.09,24.7l0.79,0l-0.01-2.07h1.15l0.07,5.6
		l11.75,0.05l0.24-13.02l4.79,0.04l-0.02-9.66H24.36z M10.86,39.95l-0.07-19.4h2.07l0.04,7.06l5.19-5.28v7.08l-6.23,0.06L12,39.95
		H10.86z M19.03,21.39h2.13v7.99l-2.27,0.02v-7.87L19.03,21.39z M23.3,32.58l-0.24,13.03l-10.19-0.05l-0.06-4.82h0.77v-0.79h-0.78
		l-0.12-9.7l5.43-0.05v1.19h0.79v-1.2l3.06-0.03V20.6H18.7l-0.02,0.02H18.1v0.59l-4.42,4.49l-0.03-5.15h0.11v-0.79h-0.11l-0.05-7.57
		l9.8-0.17l0.19,12.53h4.48l0.02,8.08L23.3,32.58z"/>
	<path d="M22.05,13.44L22.05,13.44l-7.12,0.1l0.11,8.48l0,0l0,0.1l0.68-0.78l1.91-1.91l4.31-0.1l0.1-5.56L22.05,13.44L22.05,13.44z
		 M15.74,14.33l5.51-0.08l-0.14,4.09l-3.89,0.09l-1.4,1.62L15.74,14.33z"/>
	<path d="M21.67,32.12L21.67,32.12L21.67,32.12L14,32.01l0.3,13.04l7.47,0.21l-0.09-12.71L21.67,32.12z M20.88,32.9l-0.05,10.49
		l-5.76-0.1l-0.26-10.48L20.88,32.9z M15.07,44.28l0-0.2l5.9,0.1l0,0.27L15.07,44.28z"/>
	<path d="M23.58,25.33v6.72v0.3l4.22-0.11v-6.91h-0.3H23.58z M24.37,26.12h2.34v5.05l-2.34,0.07V26.12z"/>
	<path d="M37.59,28.47c5.03,0,9.12-4.08,9.12-9.09c0-5.01-4.09-9.09-9.12-9.09c-5.03,0-9.12,4.08-9.12,9.09
		C28.46,24.4,32.56,28.47,37.59,28.47z M39.13,19.38c0,0.64-0.39,1.19-0.94,1.42c-0.19,0.08-0.39,0.12-0.6,0.12
		c-0.21,0-0.42-0.04-0.6-0.12c-0.56-0.23-0.94-0.78-0.94-1.42c0-0.85,0.69-1.54,1.55-1.54S39.13,18.53,39.13,19.38z"/>
	<path d="M37.32,31.78c-3.86,0-7,3.14-7,7s3.14,7,7,7s7-3.14,7-7S41.18,31.78,37.32,31.78z M37.32,44.99
		c-3.42,0-6.21-2.79-6.21-6.21c0-3.42,2.79-6.21,6.21-6.21c3.42,0,6.21,2.79,6.21,6.21C43.53,42.21,40.75,44.99,37.32,44.99z"/>
	<path d="M37.24,35.88c-1.49,0-2.71,1.27-2.71,2.82s1.22,2.82,2.71,2.82c1.49,0,2.71-1.27,2.71-2.82S38.74,35.88,37.24,35.88z
		 M37.24,40.74c-1.06,0-1.92-0.91-1.92-2.04c0-1.12,0.86-2.04,1.92-2.04c1.06,0,1.92,0.91,1.92,2.04
		C39.17,39.83,38.3,40.74,37.24,40.74z"/>
</g>
</svg>
