<?xml version="1.0" encoding="utf-8"?>
<!-- Generator: Adobe Illustrator 24.3.0, SVG Export Plug-In . SVG Version: 6.00 Build 0)  -->
<svg version="1.1" id="图层_1" xmlns="http://www.w3.org/2000/svg" xmlns:xlink="http://www.w3.org/1999/xlink" x="0px" y="0px"
	 viewBox="0 0 56.69 56.69" style="enable-background:new 0 0 56.69 56.69;" xml:space="preserve">
<style type="text/css">
	.st0{fill-rule:evenodd;clip-rule:evenodd;}
</style>
<g>
	<path d="M45.95,26.82c-5.01,4.12-7.96,6.1-19.63,5.4l0.09-5.95l-4.53-8.6l-0.4-6.8l-9.72,0.2l-0.1,7.82l3.03,0.3l6.4,7.5l-0.26,5.5
		L9.95,32l0.12,3.82h0.38c0.09,0,0.17,0,0.25,0c2.93,0,5.87,0.1,8.71,0.2c2.72,0.09,5.37,0.18,7.88,0.18c9.61,0,17.2-1.33,19.3-8.97
		l0.33-1.2L45.95,26.82z"/>
	<polygon points="23.96,37.03 23.17,37.03 23.17,42.1 9.78,42.1 9.78,45.82 45,45.82 45,42.1 23.96,42.1 	"/>
</g>
</svg>
