<?xml version="1.0" encoding="utf-8"?>
<!-- Generator: Adobe Illustrator 24.3.0, SVG Export Plug-In . SVG Version: 6.00 Build 0)  -->
<svg version="1.1" id="图层_1" xmlns="http://www.w3.org/2000/svg" xmlns:xlink="http://www.w3.org/1999/xlink" x="0px" y="0px"
	 viewBox="0 0 56.69 56.69" style="enable-background:new 0 0 56.69 56.69;" xml:space="preserve">
<style type="text/css">
	.st0{fill-rule:evenodd;clip-rule:evenodd;}
</style>
<g>
	<path d="M28.35,10.66c-9.62,0-17.44,7.93-17.44,17.68s7.82,17.68,17.44,17.68s17.44-7.93,17.44-17.68S37.96,10.66,28.35,10.66z
		 M38.5,37.77c-2.52,2.79-6.13,4.56-10.15,4.56s-7.63-1.77-10.15-4.56H38.5z M16.19,34.93c-1.04-1.96-1.63-4.2-1.63-6.58
		c0-7.71,6.18-13.98,13.78-13.98s13.78,6.27,13.78,13.98c0,2.38-0.59,4.62-1.63,6.58H16.19z"/>
	<polygon points="26.31,18.78 23.39,18.78 23.39,33.29 33.31,33.29 33.31,30.41 26.31,30.41 	"/>
</g>
</svg>
