<?xml version="1.0" encoding="utf-8"?>
<!-- Generator: Adobe Illustrator 24.3.0, SVG Export Plug-In . SVG Version: 6.00 Build 0)  -->
<svg version="1.1" id="图层_1" xmlns="http://www.w3.org/2000/svg" xmlns:xlink="http://www.w3.org/1999/xlink" x="0px" y="0px"
	 viewBox="0 0 56.69 56.69" style="enable-background:new 0 0 56.69 56.69;" xml:space="preserve">
<style type="text/css">
	.st0{fill-rule:evenodd;clip-rule:evenodd;}
</style>
<g>
	<path d="M40.35,37.85l7.03-14.94l-0.12-0.19c-1.47-2.24-3.5-4.02-6.37-5.62l-0.38-0.21l-7.97,18.18L40.35,37.85z"/>
	<polygon points="12.58,35.14 14.74,36.17 12.22,43.91 18.59,46.42 22.13,38.49 37.83,43.32 40.61,38.07 14.99,28.86 	"/>
	<path d="M18.62,16.3l0.13,0.18l0.22-0.02c7.99-0.83,14.43,2.99,17.8,6.84l0.4,0.46l3.08-6.59l-0.23-0.2
		C32,10.09,17.12,10.38,11.1,10.83l-1.78,0.13l1.67,0.63C14.42,12.89,16.82,13.92,18.62,16.3z M18.22,12.55h3.49v0.33h-3.49V12.55z"
		/>
</g>
</svg>
