<?xml version="1.0" encoding="utf-8"?>
<!-- Generator: Adobe Illustrator 24.3.0, SVG Export Plug-In . SVG Version: 6.00 Build 0)  -->
<svg version="1.1" id="图层_1" xmlns="http://www.w3.org/2000/svg" xmlns:xlink="http://www.w3.org/1999/xlink" x="0px" y="0px"
	 viewBox="0 0 56.69 56.69" style="enable-background:new 0 0 56.69 56.69;" xml:space="preserve">
<style type="text/css">
	.st0{fill-rule:evenodd;clip-rule:evenodd;}
</style>
<g>
	<polygon points="27.89,20.1 20.94,15.32 20.94,20.64 14.24,15.42 14.24,20.42 7.5,14.9 7.27,23.39 27.89,23.39 	"/>
	<polygon points="41.89,15.08 41.89,20.66 35.26,15.08 35.26,20.42 34.34,19.76 34.34,23.39 49.43,23.39 49.43,20.3 	"/>
	<polygon points="37.52,34.6 37.48,34.26 37.43,33.94 37.37,33.64 37.3,33.36 37.21,33.09 37.12,32.84 37.02,32.61 36.92,32.39 
		36.8,32.19 36.69,32 36.57,31.83 36.44,31.67 36.32,31.52 36.19,31.39 36.06,31.27 35.94,31.16 35.81,31.07 35.7,30.98 
		35.58,30.91 35.47,30.84 35.37,30.79 35.27,30.74 35.19,30.7 35.11,30.67 35.04,30.64 34.98,30.63 34.94,30.61 34.91,30.6 
		34.89,30.6 34.85,30.59 34.8,30.59 24.39,30.59 24.39,28.56 19.54,30.98 24.39,33.41 24.39,31.38 34.75,31.38 34.78,31.39 
		34.82,31.41 34.88,31.43 34.94,31.46 35.01,31.49 35.08,31.53 35.16,31.58 35.25,31.63 35.34,31.7 35.44,31.77 35.53,31.86 
		35.63,31.95 35.73,32.05 35.83,32.17 35.93,32.29 36.03,32.43 36.12,32.59 36.22,32.75 36.3,32.93 36.39,33.13 36.47,33.34 
		36.54,33.57 36.6,33.82 36.66,34.08 36.7,34.37 36.74,34.67 36.76,35 36.77,35.34 36.77,35.7 36.75,36.08 36.74,36.44 36.71,36.78 
		36.69,37.11 36.65,37.42 36.62,37.71 36.58,37.99 36.53,38.25 36.48,38.5 36.43,38.73 36.38,38.95 36.32,39.15 36.26,39.35 
		36.19,39.52 36.13,39.69 36.06,39.84 35.99,39.98 35.92,40.11 35.85,40.22 35.77,40.33 35.7,40.42 35.62,40.51 35.55,40.59 
		35.47,40.66 35.39,40.72 35.32,40.77 35.24,40.81 35.16,40.85 35.08,40.89 35,40.92 34.92,40.94 34.84,40.96 34.74,40.97 
		34.59,40.99 34.39,41 34.15,41 33.88,41 33.57,41 33.23,41 32.87,40.99 32.49,40.98 32.09,40.97 31.67,40.96 31.24,40.94 
		30.8,40.93 30.35,40.91 29.91,40.89 29.46,40.87 29.01,40.85 28.58,40.82 28.15,40.8 27.73,40.78 27.33,40.76 26.95,40.74 
		26.59,40.72 26.25,40.7 25.94,40.68 25.67,40.66 25.43,40.65 25.22,40.64 25.05,40.63 24.93,40.62 24.86,40.62 24.85,40.61 
		24.81,40.6 24.76,40.59 24.71,40.58 24.65,40.56 24.58,40.54 24.51,40.52 24.43,40.5 24.34,40.47 24.26,40.44 24.17,40.41 
		24.07,40.37 23.98,40.33 23.89,40.29 23.79,40.25 23.7,40.21 23.61,40.16 23.52,40.11 23.44,40.06 23.36,40.01 23.28,39.95 
		23.22,39.9 23.16,39.85 23.1,39.79 23.06,39.74 23.02,39.69 23,39.64 22.98,39.59 22.96,39.55 22.95,39.5 22.95,39.5 22.94,39.41 
		22.94,39.32 22.93,39.23 22.93,39.13 22.93,39.03 22.93,38.93 22.93,38.82 22.93,38.72 22.93,38.61 22.93,38.51 22.94,38.4 
		22.94,38.3 22.95,38.2 22.95,38.1 22.96,38 22.97,37.9 22.98,37.81 22.99,37.72 22.99,37.63 23,37.55 23.01,37.47 23.02,37.39 
		23.03,37.33 23.03,37.26 23.04,37.2 23.05,37.16 23.05,37.11 23.06,37.08 23.06,37.05 23.06,37.02 23.06,37.02 23.06,37.01 
		22.28,36.9 22.28,36.9 22.28,36.92 22.28,36.94 22.27,36.97 22.27,37.01 22.26,37.06 22.25,37.11 22.25,37.17 22.24,37.24 
		22.23,37.31 22.22,37.38 22.22,37.47 22.21,37.55 22.2,37.64 22.19,37.74 22.18,37.84 22.17,37.94 22.17,38.04 22.16,38.15 
		22.15,38.26 22.15,38.37 22.14,38.48 22.14,38.59 22.14,38.71 22.14,38.82 22.14,38.93 22.14,39.04 22.14,39.15 22.14,39.26 
		22.15,39.38 22.16,39.48 22.17,39.59 22.17,39.59 22.19,39.73 22.23,39.86 22.29,39.99 22.36,40.11 22.43,40.22 22.52,40.32 
		22.61,40.41 22.7,40.5 22.8,40.58 22.91,40.66 23.01,40.73 23.12,40.79 23.23,40.86 23.35,40.91 23.46,40.97 23.57,41.02 
		23.68,41.06 23.79,41.11 23.89,41.15 24,41.19 24.1,41.22 24.19,41.25 24.28,41.28 24.36,41.3 24.44,41.32 24.51,41.34 
		24.57,41.36 24.62,41.37 24.66,41.38 24.7,41.39 24.72,41.39 24.73,41.39 24.75,41.4 24.78,41.4 24.81,41.4 24.88,41.41 
		25.01,41.42 25.17,41.43 25.38,41.44 25.62,41.45 25.9,41.47 26.21,41.49 26.54,41.51 26.9,41.53 27.29,41.55 27.69,41.57 
		28.11,41.59 28.54,41.61 28.98,41.63 29.42,41.66 29.87,41.68 30.32,41.7 30.77,41.72 31.21,41.73 31.64,41.75 32.06,41.76 
		32.47,41.77 32.85,41.78 33.22,41.79 33.56,41.79 33.88,41.79 34.17,41.79 34.42,41.78 34.64,41.77 34.83,41.76 34.99,41.73 
		35.12,41.7 35.25,41.67 35.37,41.62 35.5,41.57 35.62,41.5 35.74,41.43 35.86,41.35 35.98,41.26 36.09,41.16 36.2,41.05 
		36.31,40.93 36.41,40.8 36.51,40.66 36.6,40.51 36.69,40.35 36.77,40.18 36.86,40 36.93,39.8 37.01,39.6 37.08,39.38 37.14,39.15 
		37.2,38.91 37.26,38.66 37.31,38.39 37.36,38.11 37.4,37.82 37.44,37.51 37.47,37.18 37.5,36.84 37.52,36.49 37.54,36.11 
		37.56,35.73 37.56,35.33 37.55,34.96 	"/>
</g>
</svg>
