<?xml version="1.0" encoding="utf-8"?>
<!-- Generator: Adobe Illustrator 24.3.0, SVG Export Plug-In . SVG Version: 6.00 Build 0)  -->
<svg version="1.1" id="图层_1" xmlns="http://www.w3.org/2000/svg" xmlns:xlink="http://www.w3.org/1999/xlink" x="0px" y="0px"
	 viewBox="0 0 56.69 56.69" style="enable-background:new 0 0 56.69 56.69;" xml:space="preserve">
<style type="text/css">
	.st0{fill-rule:evenodd;clip-rule:evenodd;}
</style>
<g>
	<path d="M28.35,10.66c-9.62,0-17.44,7.93-17.44,17.68c0,9.75,7.82,17.68,17.44,17.68s17.44-7.93,17.44-17.68
		C45.79,18.6,37.96,10.66,28.35,10.66z M37.38,38.88c-2.42,2.14-5.58,3.45-9.03,3.45s-6.61-1.31-9.03-3.45H37.38z M16.85,36.04
		c-1.44-2.21-2.28-4.85-2.28-7.69c0-7.71,6.18-13.98,13.78-13.98s13.78,6.27,13.78,13.98c0,2.84-0.84,5.48-2.28,7.69H16.85z"/>
	<polygon points="33.7,21.02 33.61,21.25 32.41,21.25 28.4,31.57 24.38,21.25 23.19,21.25 23.1,21.02 23.1,21.25 21.92,21.25 
		21.92,34.7 23.89,34.7 23.89,25.22 27.58,34.7 29.22,34.7 32.91,25.22 32.91,34.7 34.87,34.7 34.87,21.25 33.7,21.25 	"/>
</g>
</svg>
