<?xml version="1.0" encoding="utf-8"?>
<!-- Generator: Adobe Illustrator 24.3.0, SVG Export Plug-In . SVG Version: 6.00 Build 0)  -->
<svg version="1.1" id="图层_1" xmlns="http://www.w3.org/2000/svg" xmlns:xlink="http://www.w3.org/1999/xlink" x="0px" y="0px"
	 viewBox="0 0 56.69 56.69" style="enable-background:new 0 0 56.69 56.69;" xml:space="preserve">
<style type="text/css">
	.st0{fill-rule:evenodd;clip-rule:evenodd;}
</style>
<path d="M44.53,39.98l-3.75-3.85c1.43-2.27,2.27-4.93,2.27-7.79c0-8.21-6.83-14.89-15.22-14.89c-4.48,0-8.5,1.91-11.29,4.94
	l-2.87-2.12l-1.51,1.51l2.79,2.67c-1.47,2.29-2.34,4.99-2.34,7.89c0,8.21,6.83,14.89,15.22,14.89c4.56,0,8.65-1.98,11.45-5.11
	l4.17,3.04L44.53,39.98z M27.83,14.25c7.96,0,14.43,6.32,14.43,14.09c0,2.63-0.76,5.09-2.05,7.2L28.29,23.31l-2.49,1.95l-8.62-6.39
	C19.82,16.04,23.61,14.25,27.83,14.25z M27.83,42.44c-7.96,0-14.43-6.32-14.43-14.1c0-2.69,0.79-5.2,2.13-7.34l13.84,13.23L31,32.08
	l7.64,5.58C35.99,40.58,32.14,42.44,27.83,42.44z"/>
</svg>
