<?xml version="1.0" encoding="utf-8"?>
<!-- Generator: Adobe Illustrator 24.3.0, SVG Export Plug-In . SVG Version: 6.00 Build 0)  -->
<svg version="1.1" id="图层_1" xmlns="http://www.w3.org/2000/svg" xmlns:xlink="http://www.w3.org/1999/xlink" x="0px" y="0px"
	 viewBox="0 0 56.69 56.69" style="enable-background:new 0 0 56.69 56.69;" xml:space="preserve">
<style type="text/css">
	.st0{fill-rule:evenodd;clip-rule:evenodd;}
</style>
<g>
	<path d="M13.01,21.02c0,0.11-0.14,11.1-0.14,17.56c0,6.52,2.1,12.27,2.12,12.32l0.22,0.59l0.44-0.45c0.88-0.92,1.67-4.68,2.06-9.82
		c0.42-5.46,0.56-25.22,0.56-25.41l0-0.4h-5.26V21.02z M16.1,34.66c0.01,0.9,0.03,1.75-0.07,2.68l-0.04,0.39
		c-0.06,0.6-0.13,1.23-0.14,1.32c0,0-0.04,0-0.15-0.06c-0.38-0.2-0.79-1.2-0.69-3.36c0.09-1.86,0.18-3.45,0.18-3.46
		c0.01-0.42,0.06-0.44,0.23-0.48c0.14-0.03,0.35-0.08,0.53-0.26l0.01,0.02c0,0,0.18,0.14,0.14,0.97
		C16.08,33.24,16.09,33.96,16.1,34.66z"/>
	<path d="M38.56,5.82v5.61c0,0.11-0.14,11.1-0.14,17.56c0,6.52,2.1,12.27,2.12,12.32l0.22,0.59l0.44-0.45
		c0.88-0.92,1.67-4.68,2.06-9.82c0.42-5.46,0.56-25.22,0.56-25.41l0-0.4H38.56z M41.66,25.09c0.01,0.9,0.03,1.75-0.07,2.67
		l-0.04,0.39c-0.06,0.6-0.13,1.23-0.14,1.31c0,0-0.04,0-0.14-0.06c-0.38-0.2-0.79-1.2-0.69-3.36c0.09-1.86,0.18-3.44,0.18-3.46
		c0.01-0.42,0.06-0.44,0.23-0.48c0.14-0.03,0.35-0.09,0.53-0.26l0.01,0.02c0,0,0.18,0.14,0.14,0.97
		C41.64,23.66,41.65,24.38,41.66,25.09z"/>
	<polygon points="31.15,23.01 25.84,25.07 25.1,23.18 21.46,27.2 26.86,27.7 26.12,25.81 31.44,23.74 32.17,25.64 35.82,21.62 
		30.41,21.11 	"/>
</g>
</svg>
