<?xml version="1.0" encoding="utf-8"?>
<!-- Generator: Adobe Illustrator 24.3.0, SVG Export Plug-In . SVG Version: 6.00 Build 0)  -->
<svg version="1.1" id="图层_1" xmlns="http://www.w3.org/2000/svg" xmlns:xlink="http://www.w3.org/1999/xlink" x="0px" y="0px"
	 viewBox="0 0 56.69 56.69" style="enable-background:new 0 0 56.69 56.69;" xml:space="preserve">
<style type="text/css">
	.st0{fill-rule:evenodd;clip-rule:evenodd;}
</style>
<g>
	<path d="M33.64,14.68c0-1.87-1.52-3.43-3.39-3.47l-0.4-0.01v1.89h-1.09V9.46h-1.51V7.08h-8.94v2.38H16.8v7.94h1.51v2.38h1.68
		c-0.36,10.13-0.39,21.5,2.03,29.56l0.08,0.28h0.69l0.1-0.26c1.85-4.85,2.71-14.54,2.66-29.58h1.69V17.4h1.51v-1.25h1.09v2.01
		l0.4-0.01C32.12,18.11,33.64,16.55,33.64,14.68z M22.94,30.92c0,2.14-0.23,3.52-0.42,4.11c-0.19-0.59-0.42-1.98-0.42-4.11
		c0-2.14,0.23-3.52,0.42-4.11C22.72,27.39,22.94,28.78,22.94,30.92z"/>
	<polygon points="36.65,29.99 39.89,29.99 35.63,22.61 31.36,29.99 34.6,29.99 34.6,40.74 31.36,40.74 35.63,48.13 39.89,40.74 
		36.65,40.74 	"/>
</g>
</svg>
