<?xml version="1.0" encoding="utf-8"?>
<!-- Generator: Adobe Illustrator 24.3.0, SVG Export Plug-In . SVG Version: 6.00 Build 0)  -->
<svg version="1.1" id="图层_1" xmlns="http://www.w3.org/2000/svg" xmlns:xlink="http://www.w3.org/1999/xlink" x="0px" y="0px"
	 viewBox="0 0 56.69 56.69" style="enable-background:new 0 0 56.69 56.69;" xml:space="preserve">
<style type="text/css">
	.st0{fill-rule:evenodd;clip-rule:evenodd;}
</style>
<g>
	<polygon points="24.04,46.26 20.65,44.61 20.67,46.64 13.42,46.72 13.43,47.51 20.68,47.43 20.7,49.46 24.04,47.75 24.04,51.56 
		26.55,51.56 26.55,42.79 24.04,42.79 	"/>
	<path d="M30.94,7.81l-0.06-2.68h-5.57l0.03,0.43c0.31,4.11,0.27,8.55,0.23,12.84c-0.09,8.65-0.17,17.58,2.63,24.4l0.41,1.01
		l0.33-1.04C31.53,34.56,31.24,21.57,30.94,7.81z M29.06,23.41v6.61H27.7v-6.61H29.06z"/>
	<polygon points="43.27,46.59 36.17,46.52 36.19,44.49 32.81,46.14 32.81,42.79 30.3,42.79 30.3,51.56 32.81,51.56 32.81,47.63 
		36.14,49.34 36.17,47.31 43.26,47.38 	"/>
</g>
</svg>
