<?xml version="1.0" encoding="utf-8"?>
<!-- Generator: Adobe Illustrator 24.3.0, SVG Export Plug-In . SVG Version: 6.00 Build 0)  -->
<svg version="1.1" id="图层_1" xmlns="http://www.w3.org/2000/svg" xmlns:xlink="http://www.w3.org/1999/xlink" x="0px" y="0px"
	 viewBox="0 0 56.69 56.69" style="enable-background:new 0 0 56.69 56.69;" xml:space="preserve">
<style type="text/css">
	.st0{fill-rule:evenodd;clip-rule:evenodd;}
</style>
<g>
	<path d="M19.03,5.64H12.7l0,0.39c-0.01,2.55-0.04,5.07-0.07,7.54c-0.17,15.22-0.32,28.37,3.17,36.48l0.42,0.98l0.32-1.02
		c3.2-10.26,2.86-26.65,2.51-43.99L19.03,5.64z M16.64,26.88v7.95h-1.29v-7.95H16.64z"/>
	<path d="M43.93,6.03l-0.01-0.39h-6.25l0,0.39c-0.01,2.54-0.04,5.06-0.07,7.52c-0.17,15.23-0.32,28.38,3.12,36.5l0.42,1l0.32-1.04
		C44.6,39.77,44.27,23.38,43.93,6.03z M41.55,26.88v7.95H40.3v-7.95H41.55z"/>
	<polygon points="31.46,26.83 26.16,26.87 26.14,24.83 21.31,27.29 26.18,29.69 26.16,27.66 31.46,27.62 31.47,29.65 36.31,27.19 
		31.44,24.8 	"/>
</g>
</svg>
