<?xml version="1.0" encoding="utf-8"?>
<!-- Generator: Adobe Illustrator 24.3.0, SVG Export Plug-In . SVG Version: 6.00 Build 0)  -->
<svg version="1.1" id="图层_1" xmlns="http://www.w3.org/2000/svg" xmlns:xlink="http://www.w3.org/1999/xlink" x="0px" y="0px"
	 viewBox="0 0 56.69 56.69" style="enable-background:new 0 0 56.69 56.69;" xml:space="preserve">
<style type="text/css">
	.st0{fill-rule:evenodd;clip-rule:evenodd;}
</style>
<path d="M48.97,38.54c0.02-0.01,0.04-0.01,0.06-0.02l-0.06-0.18l0.01-0.55l-0.19,0l0-0.01c-0.01,0-0.02,0.01-0.04,0.01l-1.23-0.02
	l-6.54-22.41h1.07v-2.72H29.78v-2.29h-2.63v2.2H15.06l0,2.53h1.04L9.48,37.48l-1.75-0.04l0,0.09l-0.01,0l-0.01,0.55l-0.05,0.09
	c0,0,0.04,0.02,0.05,0.03l0,0.12l0.22,0c0.65,0.35,2.36,1.27,3.72,1.8c0.9,0.35,3.06,0.61,5.21,0.61c1.89,0,3.79-0.2,4.81-0.71
	c1.58-0.79,1.65-0.83,2.09-1.12c0.1-0.06,0.23-0.15,0.38-0.24l0.65,0.01l0.01-0.79l-0.55-0.01l0-0.08l-0.79-0.02L16.92,15.3l0-0.23
	h10.14v29.79H14.97v2.27h27.16v-2.36H29.49V15.35h10.54l0,0.05l-6.78,22.08l-1.35-0.03l-0.01,0.79l0.15,0
	c0.44,0.25,2.39,1.31,3.88,1.89c0.9,0.35,3.06,0.61,5.21,0.61c1.89,0,3.79-0.2,4.81-0.71c0.75-0.37,1.22-0.63,1.58-0.82
	c0.55-0.29,0.82-0.43,1.35-0.62l0.09,0L48.97,38.54z M40.98,37.63L40.83,17.7l5.85,20.04L40.98,37.63z M16.14,17.7l0.15,19.92
	L10.3,37.5L16.14,17.7z M21.32,39.31c-1.96,0.98-7.88,0.66-9.39,0.08c-0.7-0.27-1.52-0.66-2.23-1.02l12.97,0.26
	C22.41,38.76,22.02,38.96,21.32,39.31z M22.65,37.75l-5.56-0.12l-0.15-19.44L22.65,37.75z M28.7,14.56v31h12.64v0.78H15.76v-0.69
	h12.09V14.27h-12v-0.95h12.09v-2.2h1.05v2.29h12.26v1.14H28.7z M40.05,18.02l0.15,19.59l-6.13-0.12L40.05,18.02z M45.58,39.31
	c-1.96,0.98-7.88,0.66-9.39,0.08c-0.76-0.3-1.67-0.73-2.41-1.12l13.29,0.27C46.73,38.73,46.28,38.96,45.58,39.31z"/>
</svg>
