<?xml version="1.0" encoding="utf-8"?>
<!-- Generator: Adobe Illustrator 24.3.0, SVG Export Plug-In . SVG Version: 6.00 Build 0)  -->
<svg version="1.1" id="图层_1" xmlns="http://www.w3.org/2000/svg" xmlns:xlink="http://www.w3.org/1999/xlink" x="0px" y="0px"
	 viewBox="0 0 56.69 56.69" style="enable-background:new 0 0 56.69 56.69;" xml:space="preserve">
<style type="text/css">
	.st0{fill-rule:evenodd;clip-rule:evenodd;}
</style>
<g>
	<path d="M35.86,15.14l-0.48-0.58l-0.31,0.25c-0.06,0.05-0.29,0.28-0.5,0.93c-0.15,0.48-0.5,1.24-1.31,2.19
		c-0.12,0.14-0.26,0.29-0.41,0.44c-0.81,0.86-1.93,2.03-2.06,4.28c-0.17,2.75,2.53,4.02,2.64,4.07l0.91,0.42l-0.93-2.24
		c-1.36-2.53,0.42-4.48,1.48-5.64c0.25-0.28,0.45-0.49,0.57-0.68c0.65-0.99,0.43-3.09,0.4-3.33L35.86,15.14z"/>
	<path d="M26.7,38.32v-2.04h-1.42v-2.6h-1.44L22.45,9.2l-0.79,0.01l-0.64,24.67h-1v2.44l-1.28,0.01l0.06,2.06
		c-3.63,1.89-4.65,6.39-4.87,7.69h-1.24v1.98h20.36V45.7l-1.28-0.34C31.54,41,28.37,39.05,26.7,38.32z M21.79,34.68l0.41-15.93
		l0.88,15.34l0.02,0.37h1.39v1.83h-3.68v-1.61H21.79z M20.81,37.1v-0.02h4.38v-0.01h0.71v0.87h-3.27l2.78-0.84l-5.84,0.87
		l-0.03-0.85L20.81,37.1z M32.25,47.28H13.48v-0.4h1.14l0.04-0.35c0.01-0.06,0.84-6.44,5.6-7.88l2.28-0.69l2.96,0.75
		c0.22,0.06,5.37,1.42,5.48,6.96l0.01,0.3l1.27,0.34V47.28z"/>
	<path d="M41.24,17.23c-2.51-2.86-4.53-7.96-4.55-8.01l-0.56-0.6l-0.34,0.74l-0.09,0.47c-0.87,4.05-4.01,7.54-4.03,7.57
		c-3.8,3.87-1.9,8.45-1.87,8.53c1.27,2.39,2.94,3.83,4.97,4.3c0.5,0.11,0.99,0.16,1.46,0.16c2.79,0,5.09-1.67,5.25-1.79
		C45.9,23.82,43.67,20.01,41.24,17.23z M40.94,28c-0.03,0.02-2.97,2.16-6.02,1.45c-1.79-0.41-3.29-1.72-4.43-3.87
		c-0.07-0.17-1.7-4.14,1.73-7.64c0.13-0.14,3.08-3.41,4.12-7.47c0.72,1.65,2.34,5.06,4.29,7.28C43,20.44,44.87,23.77,40.94,28z"/>
</g>
</svg>
