<?xml version="1.0" encoding="utf-8"?>
<!-- Generator: Adobe Illustrator 24.3.0, SVG Export Plug-In . SVG Version: 6.00 Build 0)  -->
<svg version="1.1" id="图层_1" xmlns="http://www.w3.org/2000/svg" xmlns:xlink="http://www.w3.org/1999/xlink" x="0px" y="0px"
	 viewBox="0 0 56.69 56.69" style="enable-background:new 0 0 56.69 56.69;" xml:space="preserve">
<style type="text/css">
	.st0{fill-rule:evenodd;clip-rule:evenodd;}
</style>
<path d="M47.91,41.05l0-0.79l-3.55,0.01l-0.04-10.44h3.53v-0.79h-3.53l-0.04-9.13h2.79v-7.82l-31.18,0.06v-0.78h-0.79v0.78l-1.63,0
	h-0.39v11.6H15v2.15h0.79v-2.15h1.43l0.96-3.93h16.38L34.5,40.29l-16.92,0.03l-0.21-8.87h-4.01l-0.09,8.88l-4.48,0.01l0,0.79
	l4.47-0.01l-0.04,4.14l31.17,0.07l-0.02-4.26L47.91,41.05z M46.27,19.12h-2.01l-0.03-6.23l2.03,0V19.12z M17.57,19.05l-0.96,3.93
	h-2.74V12.95l29.59-0.06l0.07,16.15h-5.46v0.79h5.46l0.04,10.45l-8.28,0.01l0.07-21.24H17.57z M14.13,32.23h2.46l0.19,8.08l-2.73,0
	L14.13,32.23z M43.59,44.53L14,44.47l0.04-3.35l29.53-0.05L43.59,44.53z"/>
</svg>
