<?xml version="1.0" encoding="utf-8"?>
<!-- Generator: Adobe Illustrator 24.3.0, SVG Export Plug-In . SVG Version: 6.00 Build 0)  -->
<svg version="1.1" id="图层_1" xmlns="http://www.w3.org/2000/svg" xmlns:xlink="http://www.w3.org/1999/xlink" x="0px" y="0px"
	 viewBox="0 0 56.69 56.69" style="enable-background:new 0 0 56.69 56.69;" xml:space="preserve">
<style type="text/css">
	.st0{fill-rule:evenodd;clip-rule:evenodd;}
</style>
<path d="M50.93,23.4l-0.49-0.62l-11.68,9.21c0.22-0.43,0.37-0.8,0.45-1.03c0.3-0.82,0-1.89-0.25-2.56c1.25,0.02,3.96-0.11,5.69-1.37
	c2.31-1.68,2.04-4.92,2.02-5.06l-0.01-0.13l-0.98-1.06c1.03-0.9,2.52-1.22,2.54-1.23l-0.16-0.77c-0.13,0.03-3.06,0.65-3.91,2.79
	c-0.76,1.9-0.82,2.77,0.24,4.64c-0.07,0.06-0.13,0.13-0.2,0.19c-2.01,1.46-5.77,1.2-5.81,1.2l-0.69-0.05L38,28.16
	c0.22,0.45,0.75,1.77,0.47,2.53c-0.39,1.07-1.12,2.58-3.01,3.4c-1.89,0.81-4.4,0-4.42-0.01l-1.11-0.37
	c0.12-0.08,0.23-0.18,0.37-0.25c1.46-0.77,3.24-0.82,4.77-0.12l0.33-0.72c-1.75-0.8-3.79-0.75-5.46,0.14
	c-0.07,0.04-0.13,0.09-0.2,0.13l-0.88-0.87c0.28-0.3,0.5-0.57,0.64-0.79c0.29-0.46,1.94-1.21,3.03-1.6l0.15-0.1
	c1.26-1.32,2.35-2.1,3.24-2.74c0.06-0.05,0.12-0.09,0.18-0.13l0.12,0.12c-0.52,0.67-1.86,2.73-0.54,5.02l0.69-0.39
	c-1.07-1.85-0.02-3.51,0.41-4.07l0.04,0.04l0.49-0.49c2.77-1.88,5.57-0.58,5.69-0.52l0.35-0.71c-0.14-0.07-3.31-1.58-6.52,0.6
	l-0.09-0.09c0.2-0.16,0.38-0.31,0.54-0.47c0.35-0.35,0.64-0.77,0.94-1.21c0.49-0.71,1.05-1.52,2.05-2.29
	c1.17-0.89,1.91-2.04,2.28-2.72l1.51,1.51l0.56-0.56l-6.91-6.91l0.9-0.73l-0.5-0.61l-1,0.81l0,0c-0.16-0.05-3.9-1.2-6.3,0.7
	c-1.36,1.08-1.97,2.93-1.85,5.45c-1.28-0.25-3.67-0.45-5.39,0.91c-1.37,1.08-1.97,2.94-1.85,5.47c-1.26-0.25-3.73-0.5-5.49,0.89
	c-1.25,0.99-1.85,2.65-1.85,4.86l-8.04-7.81l-0.55,0.57l9.16,8.9c-0.37,0.28-0.61,0.49-0.64,0.52l0.54,0.57
	c0.01-0.01,0.26-0.24,0.67-0.53l1.73,1.68c-0.36,0.45-0.55,0.8-0.57,0.84l0.24,0.13l-0.08,0.34c0.05,0.01,0.48,0.11,1.16,0.11
	c0.2,0,0.43-0.01,0.67-0.04l2.42,2.35c-0.48,0.24-0.96,0.43-1.4,0.53l0.02,0.11L6.7,26.73l-0.56,0.56l17.68,17.48l4.91-3.87
	c0.16-0.07,0.32-0.13,0.49-0.22c0.07-0.04,1.31-0.68,2.14-1.85L50.93,23.4z M44.89,21.87c0.07-0.18,0.17-0.33,0.28-0.48l0.73,0.79
	c0.02,0.47-0.01,2.15-0.94,3.43C44.14,24.12,44.24,23.49,44.89,21.87z M34.83,35.09l-2.81,2.21c0.14-0.74,0.05-1.49-0.3-2.24
	C32.51,35.22,33.68,35.33,34.83,35.09z M27.59,38.68l0.75-0.23c-0.25-0.8-0.32-1.54-0.21-2.19c0.17-1.02,0.82-1.92,1.77-2.54
	l0.68,0.96c0.63,0.9,0.85,1.78,0.64,2.62c-0.09,0.37-0.27,0.7-0.47,1.01l-2.38,1.88c-2.67,1.13-4.89-0.22-4.99-0.28l-0.07,0.11
	l-0.97-0.94c1.15-0.77,2.11-1.8,2.11-2.75c0-0.25,0.05-0.46,0.12-0.64c0.04-0.08,0.1-0.21,0.18-0.36c0.24-0.39,0.54-0.59,0.54-0.59
	c0.98-0.43,2.13-1.31,3-2.13l0.76,0.76c-0.9,0.73-1.51,1.7-1.69,2.78C27.23,36.9,27.31,37.76,27.59,38.68z M27.73,32.02
	c-0.56,0.52-1.24,1.08-1.93,1.51c0.24-0.35,0.51-0.68,0.78-0.96c0.28-0.28,0.54-0.59,0.79-0.9L27.73,32.02z M35.44,26.16
	c-0.89,0.64-2,1.44-3.28,2.76c-0.63,0.23-2.84,1.08-3.35,1.89c-0.1,0.17-0.29,0.39-0.53,0.65l-0.42-0.42
	c0.04-0.06,0.09-0.12,0.14-0.18c0.49-0.65,0.96-1.27,1.32-1.45c0.78-0.39,4.02-2.58,4.68-3.9c0.09-0.18,0.25-0.34,0.45-0.48
	l1.06,1.06C35.49,26.12,35.47,26.13,35.44,26.16z M34.64,22.25l-0.19,0.1c-0.47,0.25-0.78,0.41-1.02,0.56l-0.75-0.75
	c0.74-0.48,1.01-0.98,1.28-1.49l0.12-0.23c0.06-0.1,0.12-0.22,0.18-0.34c0.44-0.85,0.99-1.91,2.31-1.91c1.51,0,2.31-1.26,2.57-2.06
	l0.64,0.64C38.55,19.87,36.39,21.33,34.64,22.25z M40.4,17.37l0.55,0.55c-0.59,0.93-2.42,3.72-3.44,4.58
	c-0.5,0.43-1.2,0.73-1.88,1.03c-0.38,0.16-0.73,0.33-1.07,0.51l-0.55-0.55c0.19-0.11,0.44-0.25,0.8-0.44l0.19-0.1
	C36.68,22.07,39.01,20.53,40.4,17.37z M33.4,23.98l0.5,0.5c-0.24,0.2-0.46,0.42-0.59,0.69c-0.51,1.01-3.49,3.13-4.33,3.54
	c-0.53,0.26-1.02,0.92-1.6,1.68c-0.02,0.03-0.05,0.06-0.07,0.09l-0.45-0.45c0.31-0.38,0.46-0.67,0.56-0.9
	c0.12-0.27,0.2-0.43,0.6-0.73c0.31-0.23,0.74-0.46,1.19-0.7c1.06-0.58,2.37-1.29,3.3-2.51c0.25-0.33,0.43-0.58,0.58-0.78
	C33.2,24.23,33.3,24.09,33.4,23.98z M39.78,21.6c-1.1,0.84-1.7,1.7-2.22,2.46c-0.3,0.43-0.55,0.8-0.85,1.1
	c-0.15,0.15-0.33,0.31-0.54,0.47l-1.01-1.01c0.25-0.13,0.52-0.25,0.8-0.37c0.73-0.32,1.48-0.65,2.07-1.15
	c1.06-0.89,2.81-3.53,3.5-4.61l0.44,0.44C41.67,19.49,40.95,20.71,39.78,21.6z M31.29,14.34c1.59-1.27,4-0.93,5.04-0.7l-0.29,0.23
	l0.5,0.61l0.54-0.43l1.8,1.8l-0.42-0.11c-0.02,0.07-0.44,1.66-1.87,1.66c-1.8,0-2.53,1.4-3.01,2.33l-0.3,0.56
	c-0.24,0.46-0.47,0.87-1.16,1.29l-1.69-1.69l1.12-0.91l-0.5-0.61l-1.23,1c-0.01,0-0.06-0.02-0.09-0.02
	C29.59,16.98,30.1,15.28,31.29,14.34z M24.04,20.7c1.58-1.25,3.94-0.93,5.01-0.7L29,20.04l0.5,0.61l0.32-0.26l1.55,1.55
	c-0.3,0.12-0.64,0.25-1.06,0.37c-2.86,0.85-3.3,4.11-3.31,4.25l0.78,0.1c0-0.03,0.4-2.89,2.76-3.59c0.58-0.17,1.05-0.35,1.43-0.53
	l0.87,0.87c-0.12,0.14-0.24,0.3-0.4,0.53c-0.14,0.2-0.32,0.44-0.57,0.76c-0.83,1.08-2.01,1.73-3.05,2.29
	c-0.47,0.26-0.92,0.5-1.28,0.76c-0.57,0.42-0.71,0.72-0.86,1.04c-0.08,0.18-0.18,0.39-0.4,0.66l-1.34-1.34
	c0.29-0.18,0.47-0.29,0.47-0.29l-0.39-0.69c-0.02,0.01-0.28,0.16-0.65,0.4l-1.35-1.35l0.69-0.56l-0.5-0.61l-0.73,0.59
	C22.36,23.3,22.87,21.64,24.04,20.7z M15.14,32.07c-0.15-2.37,0.37-4.06,1.55-5c1.53-1.22,3.8-0.95,4.91-0.72l-0.44,0.36l0.5,0.61
	l0.75-0.61l1.3,1.3c-0.42,0.3-0.91,0.65-1.38,1.05c-0.45,0.38-0.71,0.77-0.94,1.11c-0.44,0.65-0.72,1.09-2.25,1.15
	c-1.42,0.05-2.67,0.64-3.55,1.19L15.14,32.07z M19.17,32.1c1.93-0.07,2.39-0.77,2.88-1.5c0.21-0.31,0.42-0.64,0.79-0.95
	c0.49-0.42,1-0.79,1.44-1.09l1.48,1.48c-0.1,0.09-0.18,0.18-0.3,0.29c-0.83,0.74-1.05,1.2-1.26,1.65c-0.06,0.14-0.13,0.28-0.22,0.43
	l0.01-0.12c-0.05-0.01-1.28-0.1-3.68,0.7c-1.12,0.37-1.96,1.01-2.55,1.61l-1.58-1.53C16.96,32.61,18.02,32.15,19.17,32.1z
	 M18.32,35.16c0.52-0.52,1.26-1.09,2.23-1.41c1.42-0.47,2.39-0.61,2.92-0.65c-0.27,0.31-0.66,0.67-1.24,1.15
	c-1.18,0.97-2.37,1.35-3.32,1.49L18.32,35.16z M17.75,35.81c0.02-0.02,0.03-0.04,0.04-0.06l0.07,0.06
	C17.82,35.81,17.79,35.81,17.75,35.81z M19.62,36.42c0.95-0.22,2.04-0.67,3.12-1.56c1.61-1.32,1.91-1.97,2.18-2.54
	c0.19-0.41,0.36-0.76,1.07-1.39c0.13-0.12,0.22-0.21,0.33-0.32l0.51,0.51c-0.25,0.32-0.51,0.63-0.79,0.9
	c-0.81,0.81-1.5,2.01-1.9,2.77c-0.12,0.18-0.23,0.39-0.32,0.63c-0.01,0.01-0.02,0.04-0.02,0.05l0.01,0
	c-0.08,0.25-0.14,0.52-0.14,0.84c0,0.67-0.85,1.54-1.89,2.2L19.62,36.42z M23.89,43.72l-3.66-3.62c0.45-0.14,0.93-0.35,1.42-0.61
	l1.15,1.12l0.38-0.38l-0.22,0.34c0.08,0.05,1.4,0.88,3.27,0.88c0.19,0,0.39-0.01,0.59-0.03L23.89,43.72z"/>
</svg>
