<?xml version="1.0" encoding="utf-8"?>
<!-- Generator: Adobe Illustrator 24.3.0, SVG Export Plug-In . SVG Version: 6.00 Build 0)  -->
<svg version="1.1" id="图层_1" xmlns="http://www.w3.org/2000/svg" xmlns:xlink="http://www.w3.org/1999/xlink" x="0px" y="0px"
	 viewBox="0 0 56.69 56.69" style="enable-background:new 0 0 56.69 56.69;" xml:space="preserve">
<style type="text/css">
	.st0{fill-rule:evenodd;clip-rule:evenodd;}
</style>
<path d="M32.68,12.27l-8.31,12.45c-0.79-0.15-1.59-0.25-2.27-0.25c-6.51,0-11.8,5.3-11.8,11.8s5.3,11.81,11.8,11.81
	s11.81-5.3,11.81-11.81c0-2.27-0.73-4.58-1.97-6.47l3.72-5.16l7.78-3.76L46.4,8.62L32.68,12.27z M33.11,36.26
	c0,6.07-4.94,11.01-11.01,11.01s-11.01-4.94-11.01-11.01s4.94-11.01,11.01-11.01c0.54,0,1.16,0.07,1.79,0.18l-5.47,8.2l0.21,0.14
	c-0.51,0.7-0.81,1.56-0.81,2.49c0,2.36,1.92,4.29,4.29,4.29c2.19,0,3.99-1.66,4.24-3.79l0.38,0.27l4.72-6.55
	C32.49,32.2,33.11,34.24,33.11,36.26z M42.75,20.32l-7.53,3.64l-4.09,5.65l-0.16,0.12c0.01,0.02,0.02,0.04,0.03,0.05l-4.62,6.37
	c-0.06-2.31-1.95-4.18-4.28-4.18c-0.71,0-1.37,0.19-1.97,0.5l13.03-19.53l12.15-3.23L42.75,20.32z"/>
</svg>
