<?xml version="1.0" encoding="utf-8"?>
<!-- Generator: Adobe Illustrator 24.3.0, SVG Export Plug-In . SVG Version: 6.00 Build 0)  -->
<svg version="1.1" id="图层_1" xmlns="http://www.w3.org/2000/svg" xmlns:xlink="http://www.w3.org/1999/xlink" x="0px" y="0px"
	 viewBox="0 0 56.69 56.69" style="enable-background:new 0 0 56.69 56.69;" xml:space="preserve">
<style type="text/css">
	.st0{fill-rule:evenodd;clip-rule:evenodd;}
</style>
<path d="M28.79,10.88c-6.95,0-12.97,3.99-15.86,9.76l-2.01-4.53l-0.72,0.32l2.28,5.14c-0.89,2.09-1.39,4.38-1.39,6.78
	c0,9.63,7.94,17.47,17.7,17.47c9.76,0,17.7-7.83,17.7-17.47S38.55,10.88,28.79,10.88z M28.79,45.02c-9.32,0-16.91-7.48-16.91-16.67
	c0-2.32,0.48-4.53,1.36-6.54l5.66-1.44l-0.2-0.77l-5.01,1.28c2.78-5.45,8.5-9.21,15.1-9.21c9.32,0,16.91,7.48,16.91,16.67
	S38.12,45.02,28.79,45.02z"/>
</svg>
