<?xml version="1.0" encoding="utf-8"?>
<!-- Generator: Adobe Illustrator 24.3.0, SVG Export Plug-In . SVG Version: 6.00 Build 0)  -->
<svg version="1.1" id="图层_1" xmlns="http://www.w3.org/2000/svg" xmlns:xlink="http://www.w3.org/1999/xlink" x="0px" y="0px"
	 viewBox="0 0 56.69 56.69" style="enable-background:new 0 0 56.69 56.69;" xml:space="preserve">
<style type="text/css">
	.st0{fill-rule:evenodd;clip-rule:evenodd;}
</style>
<g>
	<polygon points="15.51,8.52 14.72,8.52 14.72,23.89 22.76,9.96 22.76,46.35 14.31,31.71 14.31,49.61 15.1,49.61 15.1,34.65 
		23.55,49.29 23.55,7.01 15.51,20.95 	"/>
	<polygon points="42.38,34.24 32.02,34.54 41.52,26.09 32.33,25.79 40.89,18.95 32.58,17.9 42.08,10.22 31.4,10.22 31.4,11.01 
		39.85,11.01 30.64,18.45 38.94,19.5 30.16,26.51 39.51,26.82 29.88,35.4 40.13,35.1 30.99,42.77 39.55,43.36 31.17,49.44 
		31.63,50.08 41.77,42.72 33,42.11 	"/>
</g>
</svg>
