<?xml version="1.0" encoding="utf-8"?>
<!-- Generator: Adobe Illustrator 24.3.0, SVG Export Plug-In . SVG Version: 6.00 Build 0)  -->
<svg version="1.1" id="图层_1" xmlns="http://www.w3.org/2000/svg" xmlns:xlink="http://www.w3.org/1999/xlink" x="0px" y="0px"
	 viewBox="0 0 56.69 56.69" style="enable-background:new 0 0 56.69 56.69;" xml:space="preserve">
<style type="text/css">
	.st0{fill-rule:evenodd;clip-rule:evenodd;}
</style>
<g>
	<rect x="14" y="27" transform="matrix(0.127 -0.9919 0.9919 0.127 -18.6379 41.9644)" width="1.05" height="9.14"/>
	<rect x="26.2" y="29.21" transform="matrix(0.127 -0.9919 0.9919 0.127 -10.1767 55.9937)" width="1.05" height="9.14"/>
	<polygon points="47.15,31.98 46.27,31.39 43.77,35.15 43.16,31.26 42.12,31.42 42.83,35.96 34.46,34.88 34.32,35.93 43,37.04 
		43.14,37.98 	"/>
	<rect x="10.8" y="17.72" transform="matrix(0.1273 -0.9919 0.9919 0.1273 -9.4057 28.2146)" width="1.05" height="3.46"/>
	<rect x="20.19" y="16.73" transform="matrix(0.1272 -0.9919 0.9919 0.1272 -3.0451 39.1375)" width="1.05" height="9.14"/>
	<polygon points="37.14,25.5 41.14,19.5 40.26,18.92 37.76,22.67 37.16,18.78 36.11,18.94 36.82,23.48 28.45,22.4 28.32,23.45 
		36.99,24.56 	"/>
</g>
</svg>
