<?xml version="1.0" encoding="utf-8"?>
<!-- Generator: Adobe Illustrator 24.3.0, SVG Export Plug-In . SVG Version: 6.00 Build 0)  -->
<svg version="1.1" id="图层_1" xmlns="http://www.w3.org/2000/svg" xmlns:xlink="http://www.w3.org/1999/xlink" x="0px" y="0px"
	 viewBox="0 0 56.69 56.69" style="enable-background:new 0 0 56.69 56.69;" xml:space="preserve">
<style type="text/css">
	.st0{fill-rule:evenodd;clip-rule:evenodd;}
</style>
<path d="M33.57,19.02c-5.54,0-10.05,4.12-10.05,9.18c0,0.82,0.13,1.62,0.35,2.38l-4.21-1.24c-0.03-0.25-0.05-0.44-0.05-0.48
	c0.61-4.92,2.52-8.5,5.67-10.66c5.43-3.71,12.8-1.9,12.88-1.88l1.03,0.26l-0.61-0.87c-1.47-2.1-4.51-3.09-5.99-3.46L33.06,12
	c3.84-1.66,8.4-0.4,8.45-0.39l2.63,0.75l-2.37-1.49c-12.81-5.12-21.64,2.68-21.7,2.73c-11.11,8.26-6.62,20.18-6.58,20.26
	c3.57,13.49,20.06,13.7,20.99,13.7c0.02,0,0.04,0,0.04,0l0.38-0.01L35.05,41l-0.41,0.01c-0.15,0-0.3,0.01-0.45,0.01
	c-8.31,0-11.87-4.28-13.41-7.77l6.02,1.71c1.64,1.37,3.76,2.25,6.11,2.39v0.06l0.38,0.01c0.1,0,0.2,0,0.3,0
	c0.53,0,1.16-0.04,1.9-0.22c4.62-0.82,8.13-4.55,8.13-9C43.62,23.14,39.11,19.02,33.57,19.02z M19.3,31.26
	c0.07,0.26,0.15,0.53,0.25,0.81l-0.37-0.11L19.3,31.26z M34.2,41.8c0.02,0,0.03,0,0.05,0l-0.12,4.96
	c-2.51-0.07-16.68-1.02-19.89-13.15c-0.05-0.11-4.33-11.48,6.33-19.41c0.06-0.06,4.87-4.29,12.5-4.29c1.33,0,2.75,0.13,4.25,0.43
	c-1.43,0.03-3.05,0.27-4.59,0.94l-1.3,0.66l-0.22,0.81l0.43,0.07c0.04,0.01,3.53,0.63,5.57,2.48c-2.37-0.38-7.89-0.82-12.34,2.22
	c-3.35,2.28-5.37,6.06-6.02,11.28c0,0.01,0.01,0.16,0.04,0.35l-0.61,3.36l1.61,0.46C21.39,36.79,25.13,41.8,34.2,41.8z M19.81,30.2
	l4.4,1.3c0.35,0.83,0.84,1.61,1.43,2.3l-5.23-1.48C20.12,31.51,19.92,30.78,19.81,30.2z M35.73,36.32c-0.18,0.05-0.33,0.07-0.5,0.11
	c-0.48,0.08-0.97,0.13-1.47,0.13l-0.06-1.35v-3.6h2.02V36.32z M32.91,35.86l-5.72-1.62c-0.8-0.69-1.45-1.52-1.93-2.44l7.6,2.25
	l0.05,1.17V35.86z M32.06,36.44c-0.85-0.13-1.66-0.36-2.42-0.69L32.06,36.44z M36.52,36.11v-5.29h-3.61v2.43l-8.07-2.39
	c-0.31-0.84-0.52-1.73-0.52-2.66c0-4.62,4.15-8.39,9.26-8.39c5.1,0,9.26,3.76,9.26,8.39C42.83,31.88,40.17,34.99,36.52,36.11z"/>
</svg>
