<?xml version="1.0" encoding="utf-8"?>
<!-- Generator: Adobe Illustrator 24.3.0, SVG Export Plug-In . SVG Version: 6.00 Build 0)  -->
<svg version="1.1" id="图层_1" xmlns="http://www.w3.org/2000/svg" xmlns:xlink="http://www.w3.org/1999/xlink" x="0px" y="0px"
	 viewBox="0 0 56.69 56.69" style="enable-background:new 0 0 56.69 56.69;" xml:space="preserve">
<style type="text/css">
	.st0{fill-rule:evenodd;clip-rule:evenodd;}
</style>
<g>
	<path d="M16.02,13.38c0,0.13-0.17,12.66-0.17,20.03c0,7.43,2.48,13.98,2.51,14.04l0.22,0.57l0.43-0.43
		c1.02-1.02,1.98-5.41,2.43-11.17c0.49-6.23,0.67-28.76,0.67-28.98l0-0.4h-6.09V13.38z M19.69,28.95c0.02,1.03,0.03,2-0.09,3.06
		l-0.05,0.45c-0.08,0.71-0.15,1.44-0.24,1.55c-0.01,0-0.07,0-0.21-0.07c-0.49-0.25-0.97-1.39-0.85-3.88
		c0.11-2.13,0.21-3.93,0.21-3.94c0.01-0.52,0.1-0.54,0.33-0.59c0.16-0.04,0.38-0.09,0.57-0.26c0.05-0.02,0.11-0.03,0.14-0.01
		c0.01,0.01,0.24,0.16,0.19,1.15C19.66,27.32,19.68,28.15,19.69,28.95z"/>
	<path d="M40.83,7.43l0-0.4h-6.09v4.72c0,0.09-0.17,9.2-0.17,14.56c0,2.03,0.34,3.94,0.76,5.56h-0.82l-0.13,1.74
		c0,0.05-0.42,4.88,0.11,9.44c0.55,4.7,3.05,6.39,3.15,6.46l0.24,0.15l0.22-0.17c1.12-0.87,2.28-4.12,2.39-6.68
		c0.11-2.54-0.1-10.23-0.11-10.56l-0.01-0.38h-0.73c0.2-1.01,0.38-2.13,0.51-3.35C40.66,23.98,40.83,7.6,40.83,7.43z M38.41,26.85
		c0.02,0.74,0.03,1.43-0.08,2.19l-0.05,0.33c-0.07,0.45-0.14,0.97-0.22,1.05c-0.01,0-0.07,0.01-0.27-0.06
		c-0.6-0.22-0.9-1.23-0.8-2.69c0.11-1.54,0.21-2.86,0.21-2.87c0.01-0.28,0.02-0.28,0.31-0.33c0.17-0.03,0.36-0.06,0.55-0.18
		c0.07-0.02,0.19-0.04,0.25,0c0.03,0.02,0.16,0.15,0.13,0.7C38.39,25.66,38.4,26.26,38.41,26.85z"/>
</g>
</svg>
