<?xml version="1.0" encoding="utf-8"?>
<!-- Generator: Adobe Illustrator 24.3.0, SVG Export Plug-In . SVG Version: 6.00 Build 0)  -->
<svg version="1.1" id="图层_1" xmlns="http://www.w3.org/2000/svg" xmlns:xlink="http://www.w3.org/1999/xlink" x="0px" y="0px"
	 viewBox="0 0 56.69 56.69" style="enable-background:new 0 0 56.69 56.69;" xml:space="preserve">
<style type="text/css">
	.st0{fill-rule:evenodd;clip-rule:evenodd;}
</style>
<path d="M48.3,21.56l-0.52-0.59l-4.24,3.71c0.84-1.1,1.2-2.53,0.96-4.11l-0.78,0.12c0.15,0.96,0.04,1.81-0.26,2.57
	c-0.53-0.93-0.64-1.77-0.29-2.51c0.47-1,1.66-1.57,2.35-1.66l-0.09-0.78c-0.46,0.06-1,0.26-1.51,0.57l-7.08-6.95l1.03-0.87
	l-0.51-0.6l-0.83,0.7l0.01-0.07c-2.85-0.54-4.66,0.62-5.69,1.7c-1.17,1.23-1.82,2.9-1.97,4.27c-1.79-0.08-3.58,0.58-4.93,1.91
	c-1.3,1.28-1.95,2.92-1.88,4.58c-1.92,0.04-3.4,0.58-4.39,1.65c-1.27,1.38-1.4,3.21-1.36,4.28L8.95,22l-0.56,0.55l16.24,16.5
	l0.15,0.1c0.46,0.16,0.92,0.24,1.38,0.24c0.2,0,0.4-0.03,0.6-0.06l-1.88,1.64L9.26,25.06L8.7,25.61L20.87,38l-2.9,2.68l-3.33-3.28
	l2.71-2.78L9.2,34.24l0.23,8.56l3.01-2.93l3.31,3.14l-2.92,2.85l8.16,0.39v-8.13l3.85,3.92L48.3,21.56z M31.06,32.65l-0.76,0.22
	c0.39,1.35-0.13,3.04-1.24,4.27c-0.69-1.33-0.74-2.64-0.08-3.8c0.86-1.51,2.87-2.61,4.6-2.58c0.43,0.01,1.12,0.11,1.64,0.55
	c-1,0.64-2.28,0.91-3.65,0.72l-0.11,0.78c0.34,0.05,0.67,0.07,0.99,0.07c0.75,0,1.45-0.13,2.11-0.37l-3.72,3.25
	C31.24,34.72,31.34,33.61,31.06,32.65z M43.27,23.68c-0.18,0.33-0.39,0.63-0.65,0.9c-1.05,1.06-2.66,1.53-4.4,1.3l-0.11,0.78
	c0.34,0.05,0.66,0.07,0.99,0.07c1.09,0,2.09-0.27,2.95-0.76l-4.68,4.09c0.48-0.97,0.66-2.11,0.47-3.35l-0.78,0.12
	c0.24,1.58-0.14,2.93-1.1,3.9c-0.04,0.04-0.08,0.06-0.12,0.09c-0.54-0.53-1.31-0.83-2.24-0.86c-1.19-0.02-2.41,0.38-3.43,1.05
	l-5.28-5.41l10.44,0.93c-0.49,1.05-0.61,2.23-0.28,3.36l0.76-0.22c-0.4-1.35-0.05-2.8,0.93-3.88c1.14-1.25,2.88-1.75,4.79-1.37
	l0.15-0.77c-1.84-0.36-3.53,0.04-4.82,1.03l-5.18-5.3l10.83,0.93c-0.02,0.03-0.04,0.05-0.06,0.09c-0.34,0.73-0.54,1.93,0.46,3.51
	L43.27,23.68z M31.41,13.32c0.81-0.85,2.21-1.76,4.36-1.54l-0.79,0.67l0.51,0.6l0.73-0.62l7.06,6.92c-0.08,0.07-0.17,0.13-0.25,0.21
	l-12.94-1.11l1.4-1.18l-0.51-0.6l-0.71,0.6c-0.2-0.06-0.41-0.11-0.61-0.14C29.78,15.97,30.32,14.47,31.41,13.32z M24.49,19.52
	c1.19-1.17,2.77-1.76,4.34-1.68c0.01,0.21,0.03,0.41,0.07,0.59l-0.29,0.25l0.51,0.6l0.74-0.62l6.39,6.54
	c-0.03,0.03-0.07,0.05-0.09,0.08c-0.15,0.16-0.25,0.35-0.37,0.52L23.52,24.7l1.17-0.99l-0.51-0.6l-0.57,0.48
	c-0.26-0.03-0.49-0.01-0.74-0.02C22.79,22.1,23.34,20.65,24.49,19.52z M25.12,38.43l-7.64-7.76l1.18-0.95l-0.49-0.62l-1.04,0.84
	c-0.08-0.7-0.19-2.8,1.12-4.22c0.85-0.92,2.17-1.37,3.9-1.4c0.03,0.14,0.05,0.28,0.09,0.43l-0.42,0.36l0.51,0.6l0.85-0.72l6.35,6.5
	c-0.25,0.21-0.48,0.43-0.68,0.68l-10.58-1.79l-0.13,0.78l10.19,1.72c-0.01,0.02-0.03,0.04-0.04,0.06c-0.83,1.45-0.74,3.13,0.17,4.76
	C27.45,38.51,26.26,38.79,25.12,38.43z"/>
</svg>
