<?xml version="1.0" encoding="utf-8"?>
<!-- Generator: Adobe Illustrator 24.3.0, SVG Export Plug-In . SVG Version: 6.00 Build 0)  -->
<svg version="1.1" id="图层_1" xmlns="http://www.w3.org/2000/svg" xmlns:xlink="http://www.w3.org/1999/xlink" x="0px" y="0px"
	 viewBox="0 0 56.69 56.69" style="enable-background:new 0 0 56.69 56.69;" xml:space="preserve">
<style type="text/css">
	.st0{fill-rule:evenodd;clip-rule:evenodd;}
</style>
<g>
	<rect x="8.14" y="37.66" width="11.4" height="3.2"/>
	<rect x="23" y="37.52" width="11.4" height="3.19"/>
	<rect x="37.15" y="37.66" width="11.4" height="3.2"/>
	<polygon points="21.32,24.68 21.38,15.84 20.59,15.84 20.53,24.04 15.51,19.96 15.5,23.26 9.27,23.22 9.33,27.27 15.58,27.28 
		15.58,30.59 20.52,26.21 20.45,35.79 21.24,35.79 21.31,25.5 21.8,25.07 	"/>
	<polygon points="41.37,30.01 41.37,26.71 47.79,26.7 47.85,22.66 41.45,22.69 41.45,19.41 35.9,23.8 35.96,15.84 35.17,15.84 
		35.11,24.43 35,24.51 35.11,24.59 35.03,35.79 35.82,35.79 35.89,25.27 	"/>
</g>
</svg>
