<?xml version="1.0" encoding="utf-8"?>
<!-- Generator: Adobe Illustrator 24.3.0, SVG Export Plug-In . SVG Version: 6.00 Build 0)  -->
<svg version="1.1" id="图层_1" xmlns="http://www.w3.org/2000/svg" xmlns:xlink="http://www.w3.org/1999/xlink" x="0px" y="0px"
	 viewBox="0 0 56.69 56.69" style="enable-background:new 0 0 56.69 56.69;" xml:space="preserve">
<style type="text/css">
	.st0{fill-rule:evenodd;clip-rule:evenodd;}
</style>
<path d="M48.35,21.25l-0.3-0.37c-3.99-5-7.51-5.18-9.76-4.44c-3.79,1.24-6.29,5.82-6.68,9.8L12.59,15.68
	c-2.13-0.92-2.97,0.35-3.71,1.48l-0.23,0.36l20.02,10.99L8.34,39.37l0.16,0.34c0.36,0.75,0.89,1.26,1.54,1.49
	c0.25,0.09,0.51,0.13,0.78,0.13c0.45,0,0.93-0.12,1.43-0.36l19.12-10.41c0.58,6.31,3.86,9.37,6.81,10.14
	c3.35,0.87,6.82-0.79,9.08-4.32l0.22-0.33l-12.39-7.8L48.35,21.25z M42.61,36.82c-1.62,1.6-3.22,1.26-4.3,0.65
	c-1.88-1.05-3.28-3.51-3.11-5.28L42.61,36.82z M37.16,20.15c1.01-0.76,2.22-1.07,3.29-1.07c0.67,0,1.29,0.12,1.78,0.34
	c0.48,0.22,1.07,0.62,1.24,1.33l-8.25,4.12C35.05,22.32,36.16,20.9,37.16,20.15z"/>
</svg>
