<?xml version="1.0" encoding="utf-8"?>
<!-- Generator: Adobe Illustrator 24.3.0, SVG Export Plug-In . SVG Version: 6.00 Build 0)  -->
<svg version="1.1" id="图层_1" xmlns="http://www.w3.org/2000/svg" xmlns:xlink="http://www.w3.org/1999/xlink" x="0px" y="0px"
	 viewBox="0 0 56.69 56.69" style="enable-background:new 0 0 56.69 56.69;" xml:space="preserve">
<style type="text/css">
	.st0{fill-rule:evenodd;clip-rule:evenodd;}
</style>
<g>
	<polygon points="21.94,44.58 23.27,47.63 29.21,45.3 27.47,42.62 	"/>
	<path d="M44.08,29.23L31.57,26.1c0.08-3.52,0.04-7.19,0-10.7c-0.03-2.54-0.06-4.94-0.04-7.13l0-0.41l-6.35,0.12l0.01,0.4
		c0.11,2.74,0.11,5.77,0.1,8.97c0,2.4-0.01,4.83,0.04,7.18l-7.48-1.87c-0.51-0.73-1.39-1.21-2.38-1.21c-1.58,0-2.86,1.22-2.86,2.71
		c0,0.91,0.48,1.71,1.21,2.2v3.43h0.79v-3.07c0.27,0.08,0.56,0.14,0.86,0.14c0.22,0,0.44-0.03,0.65-0.08l0.01,3.11l0.79,0
		l-0.01-3.19l8.58,2.21c0.29,5.41,1.03,10.12,2.86,12.91l-0.14,0.07l1.33,3.05l5.78-3.24l-1.74-2.67l-4.27,2.27
		c1.2-2.67,1.8-6.52,2.08-10.88l7.49,1.93l-1.41,2.44l-0.01-0.01l-3.87,3.87l2.15,2.15l4.24-3.76l-2.16-1.94l2.51,2.05L44.08,29.23z
		"/>
	<rect x="13.82" y="31.22" width="0.79" height="3.62"/>
	<rect x="13.82" y="37.16" width="0.79" height="3.62"/>
	<rect x="16.14" y="31.32" width="0.79" height="3.62"/>
	<rect x="16.14" y="37.26" width="0.79" height="3.62"/>
	<path d="M16.93,45.18V43.1h-0.79v2.09l-1.52,0.02V43h-0.79v2.23v1.4v2.2l0.39,0c0.11,0,0.23,0,0.34,0c3.43,0,5.95-0.5,7.91-1.56
		l0.3-0.16l-0.71-1.99L16.93,45.18z"/>
</g>
</svg>
