<?xml version="1.0" encoding="utf-8"?>
<!-- Generator: Adobe Illustrator 24.3.0, SVG Export Plug-In . SVG Version: 6.00 Build 0)  -->
<svg version="1.1" id="图层_1" xmlns="http://www.w3.org/2000/svg" xmlns:xlink="http://www.w3.org/1999/xlink" x="0px" y="0px"
	 viewBox="0 0 56.69 56.69" style="enable-background:new 0 0 56.69 56.69;" xml:space="preserve">
<style type="text/css">
	.st0{fill-rule:evenodd;clip-rule:evenodd;}
</style>
<g>
	<polygon points="33.66,17.54 33.66,22.32 34.61,21.66 34.61,27.08 41.49,21.5 41.49,26.99 50.11,21.24 50.11,17.54 	"/>
	<path d="M29.46,9.15l-0.01-0.38l-5.88-0.13l-0.01,1.3c-0.07,12.88-0.16,30.53,2.68,37.14l0.42,0.98l0.32-1.02
		C29.23,39.81,29.72,22.11,29.46,9.15z M26.84,30.6v5.45h-0.69V30.6H26.84z"/>
	<polygon points="21.62,43.4 14.26,38.17 14.26,43.16 6.87,37.65 6.58,47.31 24.09,47.31 24.09,39.67 21.62,38.13 	"/>
	<polygon points="44.65,43.38 37.36,37.8 37.36,43.21 29.58,38.11 29.58,43.11 29.52,43.07 29.52,47.31 50.11,47.31 50.11,41.32 
		44.65,37.89 	"/>
</g>
</svg>
