<?xml version="1.0" encoding="utf-8"?>
<!-- Generator: Adobe Illustrator 24.3.0, SVG Export Plug-In . SVG Version: 6.00 Build 0)  -->
<svg version="1.1" id="图层_1" xmlns="http://www.w3.org/2000/svg" xmlns:xlink="http://www.w3.org/1999/xlink" x="0px" y="0px"
	 viewBox="0 0 56.69 56.69" style="enable-background:new 0 0 56.69 56.69;" xml:space="preserve">
<style type="text/css">
	.st0{fill-rule:evenodd;clip-rule:evenodd;}
</style>
<g>
	<path d="M24.52,23.75v3.69h7.01v-0.09h0v-3.99h0v-0.35h-0.17l0-0.27l-6.88,0.13L24.52,23.75z M30.63,26.11l-5.17,0.09v-2.05h5.14
		L30.63,26.11z"/>
	<path d="M25.19,22.04v-8.16H12.06v0.15h-0.04v7.86h0.04v0.15H25.19z M24.35,14.81v6.28h-11.5v-6.28H24.35z"/>
	<path d="M22.83,28.67l10.17,0.06v-4.93l12.5-0.11V12.67h-8.3L37.17,11l1.24,0l0-0.79l-24.2-0.07l0,0.79l1.41,0l0.02,1.09
		l-5.68-0.04l0.06,12.05l12.68,0.06L22.83,28.67z M16.43,10.93l19.95,0.06l0.03,1.67h-8.03l6.8,5.18l-8.14,0.15l-0.04-5.89
		l-10.56-0.07L16.43,10.93z M35.55,18.63v2.52l-8.49-0.05l-0.01-2.32L35.55,18.63z M10.77,12.78l4.9,0.03l0.02,1.05l0.79-0.01
		l-0.02-1.03l9.76,0.07l0.03,5.12l-0.75,0.01l0.01,0.79l0.74-0.01l0.02,3.09l10.07,0.06v-4.21l-5.62-4.27h5.7l0.01,0.32l0.79-0.01
		l-0.01-0.3h7.5v9.45l-12.5,0.11v4.92l-8.61-0.05l-0.11-4.59l-12.66-0.06L10.77,12.78z"/>
	<path d="M37.59,21.94h5.94l-0.07-7.13h-8.9l3.03,2.67V21.94z M36.65,15.61h6.03l0.05,5.55h-4.35v-4.03L36.65,15.61z"/>
	<path d="M37.4,28.1c-5.13,0-9.31,4.14-9.31,9.23c0,5.09,4.18,9.23,9.31,9.23s9.31-4.14,9.31-9.23C46.71,32.24,42.54,28.1,37.4,28.1
		z M39,37.33c0,0.87-0.72,1.58-1.6,1.58c-0.88,0-1.59-0.71-1.59-1.58c0-0.87,0.71-1.58,1.59-1.58C38.28,35.75,39,36.46,39,37.33z"/>
	<path d="M17.51,30.16c-3.86,0-7,3.18-7,7.08s3.14,7.08,7,7.08s7-3.18,7-7.08S21.37,30.16,17.51,30.16z M17.51,43.54
		c-3.42,0-6.21-2.82-6.21-6.29c0-3.47,2.78-6.29,6.21-6.29s6.21,2.82,6.21,6.29C23.72,40.72,20.93,43.54,17.51,43.54z"/>
	<path d="M17.51,34.45c-1.52,0-2.76,1.25-2.76,2.8c0,1.54,1.24,2.8,2.76,2.8c1.53,0,2.77-1.26,2.77-2.8
		C20.28,35.7,19.04,34.45,17.51,34.45z M17.51,39.25c-1.09,0-1.97-0.9-1.97-2.01c0-1.1,0.89-2,1.97-2c1.09,0,1.98,0.9,1.98,2
		C19.49,38.35,18.6,39.25,17.51,39.25z"/>
</g>
</svg>
