<?xml version="1.0" encoding="utf-8"?>
<!-- Generator: Adobe Illustrator 24.3.0, SVG Export Plug-In . SVG Version: 6.00 Build 0)  -->
<svg version="1.1" id="图层_1" xmlns="http://www.w3.org/2000/svg" xmlns:xlink="http://www.w3.org/1999/xlink" x="0px" y="0px"
	 viewBox="0 0 56.69 56.69" style="enable-background:new 0 0 56.69 56.69;" xml:space="preserve">
<style type="text/css">
	.st0{fill-rule:evenodd;clip-rule:evenodd;}
</style>
<g>
	<path d="M17.95,29.64c-4.07,0-7.39,3.37-7.39,7.52s3.32,7.52,7.39,7.52s7.39-3.37,7.39-7.52S22.02,29.64,17.95,29.64z M19.24,37.16
		c0,0.73-0.58,1.32-1.29,1.32s-1.29-0.59-1.29-1.32c0-0.73,0.58-1.32,1.29-1.32S19.24,36.43,19.24,37.16z"/>
	<path d="M37.22,21.74l5.66,0.1l-0.1-6.82l-8.15,0.11l2.5,2.5L37.22,21.74z M41.99,15.82l0.08,5.22l-4.08-0.07l-0.08-3.67l-1.4-1.4
		L41.99,15.82z"/>
	<path d="M23.59,28.92l9.45-0.1v-4.78L45,23.87l-0.19-10.88l-7.96,0.05v-2.09l1.55-0.01l0-0.79l-23.55,0.09l0,0.79l1.37-0.01v1.26
		l-5.48,0.09l-0.28,11.31l12.95,0.09L23.59,28.92z M17.02,11.03l19.04-0.07v2.09l-6.76,0.04l5.03,4.95h-6.9l-0.06-5.94l-10.35,0.17
		V11.03z M35.26,18.95v2.01h-7.8l-0.02-2.13h7.7L35.26,18.95z M11.52,13.16l4.71-0.08v0.66h0.79v-0.68l9.57-0.16l0.05,5.14h-0.9
		v0.79h0.91l0.03,2.92h9.37v-3.13l-0.04-0.04v-0.54h-0.55l-4.24-4.17l4.84-0.03v0.08h0.79v-0.09l7.18-0.04l0.16,9.31l-11.94,0.18
		v4.78l-7.9,0.08L24.17,23l-12.9-0.09L11.52,13.16z"/>
	<path d="M24.91,27.33h6.62v-4.07H24.8L24.91,27.33z M30.74,24.05v2.49h-5.06l-0.07-2.49H30.74z"/>
	<path d="M25.17,14.13L12.7,14.42l-0.2,7.16l12.57-0.09L25.17,14.13z M24.29,20.7l-10.98,0.08l0.16-5.59l10.9-0.25L24.29,20.7z"/>
	<path d="M37.25,28.31c-4.95,0-8.98,4.09-8.98,9.12c0,5.02,4.03,9.11,8.98,9.11s8.98-4.09,8.98-9.11
		C46.23,32.4,42.2,28.31,37.25,28.31z M37.25,45.74c-4.52,0-8.19-3.73-8.19-8.32c0-4.59,3.67-8.32,8.19-8.32s8.19,3.73,8.19,8.32
		C45.44,42.01,41.76,45.74,37.25,45.74z"/>
	<path d="M37.25,34.87c-1.39,0-2.52,1.15-2.52,2.55c0,1.41,1.13,2.55,2.52,2.55s2.52-1.14,2.52-2.55
		C39.77,36.01,38.64,34.87,37.25,34.87z M37.25,39.18c-0.95,0-1.73-0.79-1.73-1.76c0-0.97,0.77-1.76,1.73-1.76s1.73,0.79,1.73,1.76
		C38.98,38.39,38.2,39.18,37.25,39.18z"/>
</g>
</svg>
