<?xml version="1.0" encoding="utf-8"?>
<!-- Generator: Adobe Illustrator 24.3.0, SVG Export Plug-In . SVG Version: 6.00 Build 0)  -->
<svg version="1.1" id="图层_1" xmlns="http://www.w3.org/2000/svg" xmlns:xlink="http://www.w3.org/1999/xlink" x="0px" y="0px"
	 viewBox="0 0 56.69 56.69" style="enable-background:new 0 0 56.69 56.69;" xml:space="preserve">
<style type="text/css">
	.st0{fill-rule:evenodd;clip-rule:evenodd;}
</style>
<g>
	<path d="M28.01,20.77c2.28,0,4.13-1.85,4.13-4.13s-1.85-4.13-4.13-4.13s-4.13,1.85-4.13,4.13S25.73,20.77,28.01,20.77z"/>
	<path d="M28.01,40.34c-2.28,0-4.13,1.85-4.13,4.13c0,2.28,1.85,4.13,4.13,4.13s4.13-1.85,4.13-4.13
		C32.13,42.19,30.28,40.34,28.01,40.34z"/>
	<path d="M28.01,25.18c4.71,0,8.54-3.83,8.54-8.54c0-4.71-3.83-8.54-8.54-8.54s-8.54,3.83-8.54,8.54
		C19.47,21.35,23.3,25.18,28.01,25.18z M28.01,8.89c4.27,0,7.75,3.48,7.75,7.75c0,4.27-3.48,7.75-7.75,7.75s-7.75-3.48-7.75-7.75
		C20.26,12.37,23.73,8.89,28.01,8.89z"/>
	<path d="M28.35,26.76c-9.97,0-18.56,7.71-19.55,17.56l0.79,0.08c0.95-9.45,9.19-16.85,18.76-16.85c9.71,0,17.95,7.56,18.76,17.22
		l0.79-0.07C47.05,34.64,38.46,26.76,28.35,26.76z"/>
</g>
</svg>
