<?xml version="1.0" encoding="utf-8"?>
<!-- Generator: Adobe Illustrator 24.3.0, SVG Export Plug-In . SVG Version: 6.00 Build 0)  -->
<svg version="1.1" id="图层_1" xmlns="http://www.w3.org/2000/svg" xmlns:xlink="http://www.w3.org/1999/xlink" x="0px" y="0px"
	 viewBox="0 0 56.69 56.69" style="enable-background:new 0 0 56.69 56.69;" xml:space="preserve">
<style type="text/css">
	.st0{fill-rule:evenodd;clip-rule:evenodd;}
</style>
<g>
	<path d="M21.19,11.82c0,0.1-0.11,10.01-0.11,15.84c0,5.88,1.72,11.06,1.74,11.12l0.22,0.65l0.45-0.52c0.73-0.83,1.38-4.23,1.7-8.87
		c0.34-4.93,0.46-22.74,0.46-22.92l0-0.4h-4.45V11.82z M23.72,24.13c0.01,0.81,0.02,1.57-0.06,2.41l-0.03,0.35
		c-0.04,0.43-0.08,0.87-0.14,1.09c-0.32-0.22-0.59-1.22-0.51-2.99c0.07-1.68,0.15-3.11,0.15-3.12c0.01-0.3,0.06-0.37,0.15-0.39
		c0.1-0.03,0.25-0.07,0.39-0.18c0.04,0.09,0.09,0.32,0.07,0.8C23.71,22.84,23.72,23.5,23.72,24.13z"/>
	<polygon points="38.27,26.54 38.27,5.83 33.44,5.83 33.63,33.23 	"/>
	<rect x="22.87" y="40.88" width="0.79" height="10.45"/>
	<rect x="33.58" y="37.18" width="0.79" height="14.16"/>
	<polygon points="17.03,41.04 5.96,41.04 5.96,41.83 17.03,41.83 17.03,43.86 21.88,41.43 17.03,39.01 	"/>
	<polygon points="50.73,40.76 39.66,40.76 39.66,38.73 34.81,41.16 39.66,43.59 39.66,41.55 50.73,41.55 	"/>
</g>
</svg>
