<?xml version="1.0" encoding="utf-8"?>
<!-- Generator: Adobe Illustrator 24.3.0, SVG Export Plug-In . SVG Version: 6.00 Build 0)  -->
<svg version="1.1" id="图层_1" xmlns="http://www.w3.org/2000/svg" xmlns:xlink="http://www.w3.org/1999/xlink" x="0px" y="0px"
	 viewBox="0 0 56.69 56.69" style="enable-background:new 0 0 56.69 56.69;" xml:space="preserve">
<style type="text/css">
	.st0{fill-rule:evenodd;clip-rule:evenodd;}
</style>
<g>
	<rect x="47.43" y="32" width="0.79" height="7.21"/>
	<rect x="50.14" y="33.31" width="0.79" height="4.91"/>
	<path d="M42.28,25.88c-0.32,0-0.6,0.1-0.87,0.24c0.24-0.32,0.4-0.69,0.4-1.12c0-1.04-0.85-1.89-1.89-1.89
		c-0.21,0-0.41,0.06-0.6,0.12c0.19-0.29,0.33-0.62,0.33-1c0-1.04-0.85-1.89-1.89-1.89c-0.15,0-0.27,0.05-0.41,0.08
		c0.11-0.24,0.18-0.5,0.18-0.78c0-1.04-0.85-1.89-1.89-1.89c-1.04,0-1.89,0.85-1.89,1.89c0,1.04,0.85,1.89,1.89,1.89
		c0.15,0,0.28-0.05,0.41-0.08c-0.11,0.24-0.18,0.5-0.18,0.78c0,1.04,0.85,1.89,1.89,1.89c0.21,0,0.41-0.06,0.6-0.12
		c-0.19,0.29-0.33,0.63-0.33,1c0,1.04,0.85,1.89,1.89,1.89c0.32,0,0.6-0.1,0.86-0.24c-0.24,0.32-0.4,0.69-0.4,1.11
		c0,1.04,0.85,1.89,1.89,1.89c1.04,0,1.89-0.85,1.89-1.89C44.18,26.73,43.33,25.88,42.28,25.88z M34.53,19.64
		c0-0.61,0.5-1.1,1.1-1.1c0.61,0,1.1,0.5,1.1,1.1c0,0.61-0.5,1.1-1.1,1.1C35.03,20.74,34.53,20.25,34.53,19.64z M36.66,22.23
		c0-0.61,0.5-1.1,1.1-1.1s1.1,0.5,1.1,1.1c0,0.61-0.5,1.1-1.1,1.1S36.66,22.84,36.66,22.23z M39.93,26.1c-0.61,0-1.1-0.5-1.1-1.1
		s0.5-1.1,1.1-1.1c0.61,0,1.1,0.5,1.1,1.1S40.54,26.1,39.93,26.1z M42.28,28.88c-0.61,0-1.1-0.5-1.1-1.1c0-0.61,0.5-1.1,1.1-1.1
		c0.61,0,1.1,0.5,1.1,1.1C43.39,28.38,42.89,28.88,42.28,28.88z"/>
	<path d="M46.53,40.38L44.42,15.2l-15.5-0.16l0.13-0.78l-0.78-0.13l-0.15,0.9l-17.44-0.19v13.91l4.36-0.42l1.57-4.54l16.91-0.08
		l-0.08,10.27L5.76,34.24l0.2,6.75l11.89,0.03v1.55h4.2v-1.54l20.47,0.05v1.5l4.38-0.02l-0.21-2.17H46.53z M21.26,41.78h-2.62v-0.61
		h2.62V41.78z M6.58,35.02l27.64-0.26l0.09-11.85L16.04,23l-1.58,4.59l-2.99,0.29V15.64l32.23,0.34l2.04,24.31l-39-0.09L6.58,35.02z
		 M43.32,41.78v-0.61h2.66l0.06,0.6L43.32,41.78z"/>
</g>
</svg>
