<?xml version="1.0" encoding="utf-8"?>
<!-- Generator: Adobe Illustrator 24.3.0, SVG Export Plug-In . SVG Version: 6.00 Build 0)  -->
<svg version="1.1" id="图层_1" xmlns="http://www.w3.org/2000/svg" xmlns:xlink="http://www.w3.org/1999/xlink" x="0px" y="0px"
	 viewBox="0 0 56.69 56.69" style="enable-background:new 0 0 56.69 56.69;" xml:space="preserve">
<style type="text/css">
	.st0{fill-rule:evenodd;clip-rule:evenodd;}
</style>
<path d="M49.85,22.55l-5,4.36c1.11-1.24,1.59-2.94,1.3-4.84l-0.78,0.12c0.27,1.76-0.15,3.26-1.22,4.35
	c-1.17,1.19-2.97,1.71-4.9,1.45l-0.11,0.78c0.37,0.05,0.73,0.08,1.09,0.08c1.32,0,2.54-0.34,3.54-0.99l-5.56,4.85
	c0.59-1.1,0.81-2.41,0.59-3.84L38.02,29c0.27,1.76-0.15,3.26-1.22,4.35c-0.05,0.05-0.11,0.08-0.16,0.13
	c-0.59-0.59-1.44-0.93-2.48-0.96c-0.04,0-0.09,0-0.13,0c-1.26,0-2.57,0.45-3.67,1.17l-5.94-6.08l11.94,1.07
	c-0.54,1.16-0.67,2.45-0.31,3.7l0.76-0.22c-0.45-1.52-0.06-3.15,1.04-4.37c1.28-1.4,3.24-1.96,5.38-1.54l0.15-0.77
	c-2.14-0.42-4.1,0.09-5.55,1.31l-5.92-6.05l12.78,1.1l0.07-0.79l-14.6-1.25l1.62-1.37l-0.51-0.6l-0.8,0.68
	c-0.24-0.07-0.49-0.13-0.73-0.17c0.14-1.29,0.74-2.98,1.96-4.27c0.92-0.96,2.51-1.98,4.95-1.71l-0.95,0.81l0.51,0.6l0.84-0.71
	l8.28,8.12l0.55-0.56l-8.23-8.07l1.17-0.99l-0.51-0.6l-0.95,0.81l0.02-0.11c-3.13-0.6-5.12,0.69-6.25,1.87
	c-1.3,1.37-2.01,3.22-2.17,4.74c-1.98-0.1-3.97,0.63-5.46,2.1c-1.44,1.41-2.15,3.24-2.06,5.08c-2.13,0.04-3.78,0.63-4.87,1.82
	c-1.43,1.56-1.55,3.65-1.49,4.8l-4.75-4.83l5.48-0.18l-2.39-2.42l2.44-2.64l2.37,2.16l0.11-6.8l-7.12,0.42l2.5,2.41l-2.33,2.62
	l-2.43-2.34l-0.08,5.29L6.88,23.7l-0.56,0.55l2.53,2.57l-0.01,0.43l0.41-0.01l15.01,15.25l0.15,0.1c0.5,0.17,1,0.26,1.51,0.26
	c0.27,0,0.53-0.04,0.79-0.08l-2.21,1.93L7.22,27.08l-0.56,0.55l17.82,18.14l25.9-22.62L49.85,22.55z M34.03,33.3
	c0.04,0,0.07,0,0.11,0c0.49,0.01,1.28,0.13,1.87,0.66c-1.12,0.73-2.56,1.04-4.1,0.83l-0.11,0.78c0.37,0.05,0.73,0.08,1.09,0.08
	c0.89,0,1.73-0.16,2.5-0.46L31,39.02c0.49-1.19,0.63-2.46,0.31-3.57l-0.76,0.22c0.44,1.53-0.15,3.47-1.43,4.84
	c-1.02-1.89-0.65-3.39-0.11-4.33C29.95,34.52,32.09,33.3,34.03,33.3z M29.72,19.13c0,0,0-0.01,0-0.01c0,0,0.01,0,0.01,0L29.72,19.13
	z M24.05,20.9c1.34-1.31,3.11-1.97,4.87-1.87c0.01,0.25,0.03,0.49,0.08,0.71l-0.34,0.29l0.51,0.6l0.84-0.71l7.22,7.39
	c-0.22,0.24-0.38,0.51-0.55,0.78l0.01-0.17l-13.79-1.23l1.36-1.16l-0.51-0.6l-0.65,0.55l0-0.01c-0.31-0.03-0.59-0.01-0.88-0.03
	C22.13,23.8,22.76,22.16,24.05,20.9z M24.76,41.86l-8.48-8.62l1.34-1.08l-0.49-0.62l-1.21,0.97c-0.09-0.71-0.26-3.14,1.24-4.77
	c0.95-1.03,2.43-1.54,4.37-1.56c0.03,0.18,0.07,0.35,0.11,0.53l-0.49,0.41l0.51,0.6l0.97-0.82l7.08,7.25
	c-0.29,0.24-0.56,0.51-0.8,0.79l-11.71-1.98l-0.13,0.78l11.33,1.91c-0.02,0.04-0.06,0.08-0.08,0.12c-0.65,1.15-1.11,2.98,0.19,5.26
	C27.37,41.96,26.03,42.28,24.76,41.86z"/>
</svg>
