<?xml version="1.0" encoding="utf-8"?>
<!-- Generator: Adobe Illustrator 24.3.0, SVG Export Plug-In . SVG Version: 6.00 Build 0)  -->
<svg version="1.1" id="图层_1" xmlns="http://www.w3.org/2000/svg" xmlns:xlink="http://www.w3.org/1999/xlink" x="0px" y="0px"
	 viewBox="0 0 56.69 56.69" style="enable-background:new 0 0 56.69 56.69;" xml:space="preserve">
<style type="text/css">
	.st0{fill-rule:evenodd;clip-rule:evenodd;}
</style>
<g>
	<polygon points="48.37,21.06 40.04,15.29 40.04,20.77 33.42,15.19 33.38,24.75 48.37,24.75 	"/>
	<polygon points="19.09,20.79 12.39,15.57 12.39,20.55 5.67,15.04 5.41,24.75 26.83,24.75 26.83,20.85 19.09,15.53 	"/>
	<polygon points="51.27,34.81 51.24,34.46 51.21,34.13 51.15,33.82 51.09,33.53 51.02,33.25 50.93,32.99 50.84,32.76 50.74,32.53 
		50.63,32.33 50.52,32.14 50.4,31.96 50.28,31.8 50.15,31.66 50.02,31.52 49.89,31.41 49.76,31.3 49.63,31.21 49.51,31.13 
		49.38,31.06 49.27,31 49.16,30.95 49.05,30.91 48.95,30.87 48.86,30.84 48.78,30.82 48.72,30.81 48.66,30.79 48.61,30.79 
		48.58,30.78 48.56,30.78 48.54,30.78 48.53,30.78 32.13,30.78 32.13,28.75 27.27,31.17 32.13,33.6 32.13,31.57 48.5,31.57 
		48.52,31.57 48.55,31.58 48.59,31.59 48.64,31.6 48.7,31.62 48.77,31.64 48.84,31.67 48.92,31.71 49.01,31.75 49.1,31.8 
		49.19,31.86 49.28,31.93 49.38,32.01 49.47,32.1 49.57,32.19 49.67,32.3 49.76,32.43 49.85,32.56 49.94,32.71 50.03,32.88 
		50.11,33.06 50.19,33.26 50.26,33.48 50.32,33.71 50.38,33.97 50.42,34.24 50.46,34.54 50.48,34.86 50.49,35.2 50.49,35.56 
		50.48,35.94 50.46,36.3 50.44,36.64 50.41,36.96 50.38,37.27 50.34,37.57 50.3,37.85 50.26,38.11 50.21,38.35 50.16,38.59 
		50.1,38.81 50.04,39.01 49.98,39.2 49.92,39.38 49.85,39.54 49.78,39.7 49.71,39.84 49.64,39.96 49.57,40.08 49.49,40.19 
		49.42,40.28 49.35,40.37 49.27,40.44 49.19,40.51 49.12,40.57 49.04,40.62 48.96,40.67 48.88,40.71 48.81,40.74 48.72,40.77 
		48.64,40.8 48.56,40.82 48.45,40.83 48.24,40.84 47.94,40.85 47.56,40.86 47.12,40.86 46.61,40.86 46.05,40.86 45.45,40.85 
		44.79,40.84 44.1,40.83 43.39,40.82 42.64,40.8 41.87,40.78 41.09,40.76 40.3,40.74 39.51,40.72 38.73,40.7 37.95,40.68 
		37.18,40.66 36.44,40.64 35.73,40.62 35.04,40.59 34.39,40.57 33.79,40.55 33.24,40.54 32.74,40.52 32.3,40.51 31.93,40.49 
		31.63,40.48 31.41,40.48 31.27,40.47 31.26,40.47 31.25,40.47 31.21,40.46 31.17,40.45 31.12,40.44 31.05,40.42 30.99,40.4 
		30.91,40.38 30.83,40.35 30.75,40.33 30.66,40.3 30.57,40.26 30.48,40.23 30.38,40.19 30.29,40.15 30.2,40.11 30.1,40.06 
		30.01,40.02 29.93,39.97 29.84,39.92 29.76,39.86 29.69,39.81 29.62,39.76 29.56,39.7 29.51,39.65 29.46,39.6 29.43,39.54 
		29.4,39.5 29.38,39.45 29.37,39.4 29.36,39.36 29.36,39.36 29.35,39.26 29.34,39.16 29.32,39.06 29.31,38.96 29.29,38.86 
		29.28,38.76 29.26,38.66 29.25,38.56 29.23,38.46 29.22,38.36 29.2,38.27 29.18,38.17 29.17,38.08 29.15,37.99 29.13,37.9 
		29.12,37.82 29.1,37.74 29.09,37.66 29.07,37.58 29.06,37.51 29.05,37.45 29.03,37.38 29.02,37.33 29.01,37.27 29,37.22 
		28.99,37.18 28.99,37.15 28.98,37.12 28.97,37.09 28.97,37.08 28.97,37.06 28.97,37.06 28.19,37.23 28.2,37.23 28.2,37.24 
		28.2,37.26 28.21,37.28 28.21,37.31 28.22,37.35 28.23,37.39 28.24,37.43 28.25,37.48 28.26,37.54 28.27,37.6 28.29,37.67 
		28.3,37.74 28.31,37.81 28.33,37.89 28.34,37.97 28.36,38.05 28.37,38.13 28.39,38.22 28.41,38.31 28.42,38.4 28.44,38.49 
		28.45,38.59 28.47,38.68 28.48,38.78 28.5,38.87 28.51,38.97 28.53,39.07 28.54,39.16 28.55,39.26 28.56,39.35 28.57,39.44 
		28.57,39.44 28.6,39.59 28.64,39.72 28.69,39.85 28.76,39.96 28.84,40.08 28.92,40.18 29.01,40.27 29.11,40.36 29.21,40.44 
		29.31,40.51 29.42,40.58 29.53,40.65 29.64,40.71 29.75,40.77 29.86,40.82 29.97,40.87 30.08,40.92 30.19,40.96 30.3,41.01 
		30.4,41.04 30.5,41.08 30.6,41.11 30.68,41.13 30.77,41.16 30.85,41.18 30.91,41.2 30.97,41.21 31.03,41.23 31.07,41.24 
		31.1,41.24 31.12,41.25 31.13,41.25 31.17,41.26 31.2,41.26 31.25,41.26 31.38,41.27 31.6,41.27 31.9,41.28 32.27,41.3 
		32.71,41.31 33.21,41.33 33.76,41.34 34.37,41.36 35.02,41.38 35.7,41.41 36.42,41.43 37.16,41.45 37.93,41.47 38.7,41.49 
		39.49,41.51 40.28,41.53 41.07,41.55 41.86,41.57 42.62,41.59 43.37,41.61 44.09,41.62 44.78,41.63 45.44,41.64 46.05,41.65 
		46.61,41.65 47.12,41.65 47.57,41.65 47.96,41.64 48.27,41.63 48.52,41.62 48.72,41.59 48.84,41.56 48.97,41.52 49.09,41.48 
		49.22,41.42 49.34,41.36 49.46,41.29 49.58,41.21 49.7,41.12 49.81,41.02 49.92,40.91 50.03,40.79 50.13,40.66 50.23,40.52 
		50.32,40.37 50.41,40.21 50.5,40.03 50.58,39.85 50.66,39.66 50.73,39.46 50.8,39.24 50.86,39.01 50.92,38.77 50.98,38.52 
		51.03,38.25 51.08,37.97 51.12,37.67 51.16,37.36 51.19,37.04 51.22,36.7 51.25,36.34 51.26,35.97 51.28,35.58 51.28,35.19 	"/>
</g>
</svg>
