<?xml version="1.0" encoding="utf-8"?>
<!-- Generator: Adobe Illustrator 24.3.0, SVG Export Plug-In . SVG Version: 6.00 Build 0)  -->
<svg version="1.1" id="图层_1" xmlns="http://www.w3.org/2000/svg" xmlns:xlink="http://www.w3.org/1999/xlink" x="0px" y="0px"
	 viewBox="0 0 56.69 56.69" style="enable-background:new 0 0 56.69 56.69;" xml:space="preserve">
<style type="text/css">
	.st0{fill-rule:evenodd;clip-rule:evenodd;}
</style>
<g>
	<path d="M28.35,10.66c-9.62,0-17.44,7.93-17.44,17.68s7.82,17.68,17.44,17.68s17.44-7.93,17.44-17.68S37.96,10.66,28.35,10.66z
		 M42.13,28.35c0,7.71-6.18,13.98-13.78,13.98s-13.78-6.27-13.78-13.98c0-7.71,6.18-13.98,13.78-13.98S42.13,20.64,42.13,28.35z"/>
	<path d="M27.75,22.85h-2.6l-2.37,3.13c-0.2,0.26-0.39,0.52-0.56,0.77c-0.16-0.25-0.36-0.54-0.59-0.86l-2.15-3.04h-2.73l4.1,5.75
		l-4.63,6.24h2.77l2.93-4.07c0.05-0.08,0.13-0.19,0.22-0.33c0.05,0.08,0.11,0.16,0.16,0.24l2.94,4.16h2.81l-4.52-6.31L27.75,22.85z"
		/>
	<polygon points="36.4,27.45 31.37,27.45 31.37,22.85 29.1,22.85 29.1,34.84 31.37,34.84 31.37,29.57 36.4,29.57 36.4,34.84 
		38.68,34.84 38.68,22.85 36.4,22.85 	"/>
</g>
</svg>
