<?xml version="1.0" encoding="utf-8"?>
<!-- Generator: Adobe Illustrator 24.3.0, SVG Export Plug-In . SVG Version: 6.00 Build 0)  -->
<svg version="1.1" id="图层_1" xmlns="http://www.w3.org/2000/svg" xmlns:xlink="http://www.w3.org/1999/xlink" x="0px" y="0px"
	 viewBox="0 0 56.69 56.69" style="enable-background:new 0 0 56.69 56.69;" xml:space="preserve">
<style type="text/css">
	.st0{fill-rule:evenodd;clip-rule:evenodd;}
</style>
<g>
	<path d="M37.16,31.35c-4.14,0-7.52,3.31-7.52,7.39c0,4.07,3.37,7.39,7.52,7.39c4.14,0,7.52-3.31,7.52-7.39
		C44.67,34.67,41.3,31.35,37.16,31.35z M35.84,38.74c0-0.71,0.59-1.29,1.32-1.29c0.73,0,1.32,0.58,1.32,1.29
		c0,0.71-0.59,1.29-1.32,1.29C36.43,40.03,35.84,39.45,35.84,38.74z"/>
	<path d="M24.04,23.65L23.87,11.7l-10.88,0.19l0.05,7.96h-2.08l-0.01-1.55l-0.79,0l0.09,23.55l0.79,0l-0.01-1.37h1.25l0.09,5.48
		l11.31,0.28l0.09-12.95l5.14-0.18l-0.1-9.45H24.04z M11.03,39.68l-0.07-19.04h2.09l0.04,6.76l4.95-5.03v6.9l-5.94,0.06l0.17,10.35
		H11.03z M18.95,21.43h2.01v7.8l-2.13,0.02v-7.7L18.95,21.43z M23,32.52l-0.09,12.9l-9.75-0.25l-0.08-4.71h0.66v-0.79h-0.68
		L12.9,30.1l5.13-0.05v0.9h0.79v-0.91l2.92-0.03v-9.37h-3.13l-0.04,0.04h-0.55v0.56l-4.17,4.24l-0.03-4.84h0.09v-0.79h-0.09
		l-0.04-7.18l9.31-0.16l0.18,11.94h4.78l0.08,7.9L23,32.52z"/>
	<path d="M37.42,28.43c5.03,0,9.12-4.03,9.12-8.98s-4.09-8.98-9.12-8.98s-9.12,4.03-9.12,8.98S32.39,28.43,37.42,28.43z
		 M37.42,11.25c4.59,0,8.32,3.68,8.32,8.19s-3.73,8.19-8.32,8.19s-8.32-3.68-8.32-8.19S32.83,11.25,37.42,11.25z"/>
	<path d="M37.42,21.96c1.41,0,2.55-1.13,2.55-2.52c0-1.39-1.14-2.52-2.55-2.52s-2.55,1.13-2.55,2.52
		C34.87,20.83,36.01,21.96,37.42,21.96z M37.42,17.71c0.97,0,1.76,0.78,1.76,1.73c0,0.95-0.79,1.73-1.76,1.73s-1.76-0.78-1.76-1.73
		C35.66,18.49,36.45,17.71,37.42,17.71z"/>
	<path d="M23.26,31.89l4.07-0.11v-6.62h-4.07V31.89z M24.05,25.95h2.48v5.06l-2.48,0.07V25.95z"/>
	<path d="M15.13,22.07l2.5-2.5l4.12-0.09l0.1-5.66l-6.82,0.1L15.13,22.07z M21.04,14.62l-0.07,4.08l-3.67,0.08l-1.4,1.4l-0.07-5.49
		L21.04,14.62z"/>
	<path d="M14.13,31.53L14.41,44l7.16,0.2l-0.09-12.57L14.13,31.53z M15.19,43.23l-0.25-10.9l5.75,0.08l0.08,10.98L15.19,43.23z"/>
</g>
</svg>
