<?xml version="1.0" encoding="utf-8"?>
<!-- Generator: Adobe Illustrator 24.3.0, SVG Export Plug-In . SVG Version: 6.00 Build 0)  -->
<svg version="1.1" id="图层_1" xmlns="http://www.w3.org/2000/svg" xmlns:xlink="http://www.w3.org/1999/xlink" x="0px" y="0px"
	 viewBox="0 0 56.69 56.69" style="enable-background:new 0 0 56.69 56.69;" xml:space="preserve">
<style type="text/css">
	.st0{fill-rule:evenodd;clip-rule:evenodd;}
</style>
<g>
	<rect x="7.98" y="47.02" width="11" height="4"/>
	<rect x="21.98" y="47.02" width="11" height="4"/>
	<rect x="37.14" y="47.02" width="11" height="4"/>
	<polygon points="18.29,19.36 25.68,14.21 25.68,22.04 26.47,22.04 26.47,13.66 26.79,13.43 26.47,13.25 26.47,6.22 25.68,6.22 
		25.68,12.79 18.24,8.5 18.48,11.65 11.08,11.65 11.08,16.04 18.29,16.04 	"/>
	<polygon points="31.22,13.67 31.22,22.04 32.01,22.04 32.01,14.22 39.37,19.36 39.37,16.04 46.58,16.04 46.58,11.65 39.19,11.65 
		39.43,8.5 32.01,12.78 32.01,6.22 31.22,6.22 31.22,13.24 30.88,13.43 	"/>
	<polygon points="43.76,35.68 44,32.53 36.3,36.97 36.3,29.26 35.51,29.26 35.51,37.43 35.45,37.46 35.51,37.5 35.51,45.08 
		36.3,45.08 36.3,38.06 43.95,43.39 43.95,40.07 51.16,40.07 51.16,35.68 	"/>
	<polygon points="27.3,30.06 27.3,33.78 29.9,33.78 29.9,30.13 31.75,30.13 28.38,25.27 25.55,30.19 	"/>
	<polygon points="20.72,29.26 20.7,29.26 20.7,36.5 12.69,31.87 12.93,35.03 5.54,35.03 5.54,39.42 12.75,39.42 12.75,42.74 
		20.7,37.18 20.7,45.08 20.72,45.08 21.49,45.08 21.51,45.08 21.51,29.26 21.49,29.26 	"/>
</g>
</svg>
