<?xml version="1.0" encoding="utf-8"?>
<!-- Generator: Adobe Illustrator 24.3.0, SVG Export Plug-In . SVG Version: 6.00 Build 0)  -->
<svg version="1.1" id="图层_1" xmlns="http://www.w3.org/2000/svg" xmlns:xlink="http://www.w3.org/1999/xlink" x="0px" y="0px"
	 viewBox="0 0 56.69 56.69" style="enable-background:new 0 0 56.69 56.69;" xml:space="preserve">
<style type="text/css">
	.st0{fill-rule:evenodd;clip-rule:evenodd;}
</style>
<g>
	<polygon class="st0" points="38.6,36.79 33.15,32.17 33.15,37.03 33.13,39.69 45.19,39.69 45.19,36.83 38.6,32.22 	"/>
	<polygon class="st0" points="21.39,36.8 15.88,32.47 15.88,36.6 10.68,32.3 10.36,32.04 10.15,39.69 27.5,39.69 27.5,36.66 
		21.39,32.42 	"/>
	<rect x="10.36" y="29.14" class="st0" width="36.18" height="0.4"/>
	<polygon class="st0" points="32.93,24.06 33.01,24 33.01,21.81 24.03,21.81 24.05,27.5 28.05,24.11 28.05,27.46 	"/>
	<rect x="18.36" y="17" class="st0" width="0.4" height="5.18"/>
	<polygon class="st0" points="21.99,20.77 21.99,19.79 35.05,19.79 35.05,19.39 21.99,19.39 21.99,18.42 20.4,19 18.81,19.59 
		20.4,20.18 	"/>
	<polygon class="st0" points="38.13,19.63 38.13,22.18 38.54,22.18 38.54,17 38.13,17 38.13,19.55 36.65,19 35.06,18.42 
		35.06,19.59 35.06,20.77 36.65,20.18 	"/>
</g>
</svg>
