<?xml version="1.0" encoding="utf-8"?>
<!-- Generator: Adobe Illustrator 24.3.0, SVG Export Plug-In . SVG Version: 6.00 Build 0)  -->
<svg version="1.1" id="图层_1" xmlns="http://www.w3.org/2000/svg" xmlns:xlink="http://www.w3.org/1999/xlink" x="0px" y="0px"
	 viewBox="0 0 56.69 56.69" style="enable-background:new 0 0 56.69 56.69;" xml:space="preserve">
<style type="text/css">
	.st0{fill-rule:evenodd;clip-rule:evenodd;}
</style>
<g>
	<path d="M15.17,8.1h-4.95v5.01c0,0.1-0.13,9.83-0.13,15.55c0,5.79,1.9,10.73,1.98,10.93l0.22,0.56l0.43-0.42
		c0.83-0.82,1.57-4.17,1.93-8.73c0.38-4.84,0.52-22.33,0.52-22.51L15.17,8.1z M13.1,25.2c0.01,0.79,0.03,1.54-0.07,2.36l-0.04,0.35
		c-0.05,0.45-0.1,0.92-0.17,1.1c-0.02-0.01-0.04-0.02-0.06-0.03c-0.34-0.17-0.71-1.04-0.61-2.93c0.08-1.65,0.17-3.05,0.17-3.06
		c0.01-0.28,0.06-0.34,0.06-0.34c0.01-0.01,0.09-0.03,0.13-0.04c0.13-0.03,0.32-0.07,0.49-0.23l0,0.01c0,0,0.14,0.14,0.11,0.82
		C13.08,23.94,13.09,24.58,13.1,25.2z"/>
	<polygon points="25.66,24.85 25.66,4.99 21.35,4.99 21.52,31.43 	"/>
	<rect x="18.31" y="31.65" width="28.29" height="0.79"/>
	<polygon points="34.66,30.63 37.09,25.78 35.06,25.78 35.06,20.46 34.27,20.46 34.27,25.78 32.23,25.78 	"/>
	<polygon points="17.3,42.04 14.88,46.9 16.91,46.9 16.91,52.21 17.7,52.21 17.7,46.9 19.73,46.9 	"/>
</g>
</svg>
