<svg id="Layer_1" viewBox="0 0 24 24" xmlns="http://www.w3.org/2000/svg" data-name="Layer 1"><path d="m23 7.592v-1.092c0-.551-.448-1-1-1h-1c-.552 0-1 .449-1 1v1.092c-.581.207-1 .757-1 1.408v1.887c0 1.244.855 2.324 2 2.557v6.056c0 1.93-1.57 3.5-3.5 3.5h-3.206c1.032-.825 1.706-2.079 1.706-3.5v-15c0-2.481-2.019-4.5-4.5-4.5h-7c-2.481 0-4.5 2.019-4.5 4.5v15c0 2.481 2.019 4.5 4.5 4.5h13c2.481 0 4.5-2.019 4.5-4.5v-6.057c.408-.083.793-.262 1.116-.537.562-.477.884-1.172.884-1.907v-2c0-.651-.419-1.201-1-1.408zm-22 11.908v-15c0-1.93 1.57-3.5 3.5-3.5h7c1.93 0 3.5 1.57 3.5 3.5v15c0 1.93-1.57 3.5-3.5 3.5h-7c-1.93 0-3.5-1.57-3.5-3.5zm21-13v1h-1v-1zm1 4.5c0 .441-.193.858-.531 1.144-.341.29-.775.408-1.226.335-.709-.117-1.243-.802-1.243-1.592v-1.887c0-.276.225-.5.5-.5h2c.275 0 .5.224.5.5zm-13 9.5c0 .276-.224.5-.5.5h-3c-.276 0-.5-.224-.5-.5s.224-.5.5-.5h3c.276 0 .5.224.5.5zm.836-9.829c.229.428.21.938-.051 1.332l-2.361 3.763c-.149.236-.459.304-.689.158-.234-.146-.305-.455-.158-.689l2.368-3.773c.075-.114.054-.237.011-.317-.023-.043-.091-.144-.216-.144h-3.474c-.419 0-.796-.185-1.034-.506-.229-.308-.295-.701-.181-1.078.012-.041 2.522-4.176 2.522-4.176.144-.237.452-.31.687-.167.236.144.311.451.167.687l-2.429 3.993c-.007.055.005.103.036.145.048.065.133.102.231.102h3.474c.461 0 .871.251 1.097.671z"/></svg>