<?xml version="1.0" encoding="UTF-8"?>
<svg xmlns="http://www.w3.org/2000/svg" id="Layer_1" data-name="Layer 1" viewBox="0 0 24 24">
  <path d="M8.146,8.146l3.146-3.146-3.146-3.146c-.466-.452,.255-1.172,.707-.707l3.146,3.146,3.146-3.146c.452-.466,1.172,.255,.707,.707l-3.146,3.146,3.146,3.146c.466,.452-.255,1.172-.707,.707l-3.146-3.146-3.146,3.146c-.452,.466-1.172-.255-.707-.707Zm5.854,11.854c0,1.103-.897,2-2,2s-2-.897-2-2,.897-2,2-2,2,.897,2,2Zm-1,0c0-.551-.449-1-1-1s-1,.449-1,1,.449,1,1,1,1-.449,1-1Zm10.313-11.313c-1.861-1.861-4.167-3.244-6.669-4-.615-.198-.914,.779-.289,.957,2.345,.709,4.506,2.006,6.251,3.75,.452,.466,1.172-.255,.707-.707ZM7.979,5.02c-.08-.265-.361-.416-.623-.334-2.502,.756-4.808,2.14-6.669,4-.466,.452,.255,1.172,.707,.707,1.745-1.745,3.906-3.042,6.251-3.75,.265-.08,.414-.359,.334-.623Zm4.021,5.98c-2.404,0-4.664,.936-6.364,2.636-.466,.452,.255,1.172,.707,.707,1.511-1.511,3.52-2.343,5.657-2.343s4.146,.832,5.657,2.343c.452,.466,1.172-.255,.707-.707-1.7-1.7-3.96-2.636-6.364-2.636Z"/>
</svg>
