<svg id="Layer_1" viewBox="0 0 24 24" xmlns="http://www.w3.org/2000/svg" data-name="Layer 1"><path d="m11 15c0 .552-.448 1-1 1s-1-.448-1-1 .448-1 1-1 1 .448 1 1zm3-1c-.552 0-1 .448-1 1s.448 1 1 1 1-.448 1-1-.448-1-1-1zm5 .5v1c0 .667-.44 1.226-1.043 1.421-.211 1.729-1.672 3.079-3.457 3.079h-5c-1.785 0-3.246-1.349-3.457-3.079-.603-.195-1.043-.755-1.043-1.421v-1c0-.667.44-1.226 1.043-1.421.211-1.729 1.672-3.079 3.457-3.079h2v-1.5c0-.276.224-.5.5-.5s.5.224.5.5v1.5h2c1.785 0 3.246 1.349 3.457 3.079.603.195 1.043.755 1.043 1.421zm-2 2v-3c0-1.379-1.122-2.5-2.5-2.5h-5c-1.378 0-2.5 1.121-2.5 2.5v3c0 1.379 1.122 2.5 2.5 2.5h5c1.378 0 2.5-1.121 2.5-2.5zm7-6.939v9.939c0 2.481-2.019 4.5-4.5 4.5h-15c-2.481 0-4.5-2.019-4.5-4.5v-9.939c0-1.497.741-2.892 1.983-3.729l7.5-5.061c1.53-1.033 3.506-1.032 5.034 0l7.5 5.061c1.242.838 1.983 2.232 1.983 3.729zm-1 0c0-1.164-.577-2.249-1.542-2.901l-7.5-5.061c-.595-.401-1.276-.602-1.958-.602s-1.363.2-1.958.602l-7.5 5.06c-.966.652-1.542 1.737-1.542 2.901v9.939c0 1.93 1.57 3.5 3.5 3.5h15c1.93 0 3.5-1.57 3.5-3.5z"/></svg>