<svg id="Layer_1" viewBox="0 0 24 24" xmlns="http://www.w3.org/2000/svg" data-name="Layer 1"><path d="m16.5 5c1.378 0 2.5-1.121 2.5-2.5s-1.122-2.5-2.5-2.5-2.5 1.121-2.5 2.5 1.122 2.5 2.5 2.5zm0-4c.827 0 1.5.673 1.5 1.5s-.673 1.5-1.5 1.5-1.5-.673-1.5-1.5.673-1.5 1.5-1.5zm5.5 15h-4v-9h5.5c.276 0 .5-.224.5-.5s-.224-.5-.5-.5h-8c-1.378 0-2.5 1.121-2.5 2.5v4.913c-1.254-2.098-3.629-3.522-6.242-3.401-3.73.125-6.763 3.208-6.758 6.988 0 3.859 3.14 7 7 7 3.78.005 6.862-3.027 6.988-6.756.023-.259.007-.522-.015-.779.424.33.95.535 1.527.535h6.5c.551 0 1 .448 1 1v5.5c0 .276.224.5.5.5s.5-.224.5-.5v-5.5c0-1.103-.897-2-2-2zm-15 7c-3.309 0-6-2.691-6-6 0-1.245.381-2.401 1.032-3.361.315 4.453 3.876 8.013 8.328 8.328-.959.651-2.116 1.032-3.361 1.032zm4.472-2.014s0 0-.001 0c-.156.009-.312.014-.471.014-4.411 0-8-3.589-8-8 0-.158.004-.315.014-.471 0 0 0 0 0-.001.843-.752 1.897-1.268 3.063-1.45-.047.304-.076.611-.076.921 0 3.309 2.691 6 6 6 .31 0 .617-.029.921-.076-.181 1.166-.697 2.22-1.45 3.063zm.528-3.986c-2.757 0-5-2.243-5-5 0-.337.045-.668.111-.994 3.22.059 5.824 2.664 5.884 5.883-.327.066-.658.111-.994.111zm5-1h-1.5c-.827 0-1.5-.673-1.5-1.5v-6c0-.827.673-1.5 1.5-1.5h1.5z"/></svg>