<?xml version="1.0" encoding="UTF-8"?>
<svg xmlns="http://www.w3.org/2000/svg" id="Layer_1" data-name="Layer 1" viewBox="0 0 24 24">
  <path d="m12,12c3.309,0,6-2.691,6-6,0-.341-.035-.674-.09-1h1.59c.276,0,.5-.224.5-.5s-.224-.5-.5-.5h-1.85c-.826-2.327-3.043-4-5.65-4-3.309,0-6,2.691-6,6s2.691,6,6,6Zm0-11c2.045,0,3.802,1.237,4.576,3H7.424c.774-1.763,2.531-3,4.576-3Zm-4.899,4h9.798c.066.323.101.658.101,1,0,2.757-2.243,5-5,5s-5-2.243-5-5c0-.342.035-.677.101-1Zm4.899,9c-4.962,0-9,4.038-9,9v.5c0,.276.224.5.5.5s.5-.224.5-.5v-.5c0-2.507,1.162-4.747,2.973-6.215l1.397,2.561c.245.385.646.622,1.102.651.446.023.883-.155,1.174-.505l1.316-1.58,1.316,1.58c.272.326.662.508,1.082.508.031,0,.062,0,.093-.003.455-.029.856-.267,1.118-.68l1.402-2.572c1.841,1.467,3.027,3.724,3.027,6.255v.5c0,.276.224.5.5.5s.5-.224.5-.5v-.5c0-4.962-4.038-9-9-9Zm2.71,4.809c-.071.112-.188.182-.321.19-.127.01-.257-.045-.342-.147l-1.701-2.041c-.19-.228-.578-.228-.769,0l-1.701,2.042c-.085.102-.211.158-.342.147-.133-.008-.25-.078-.304-.161l-1.434-2.632c1.223-.76,2.661-1.207,4.204-1.207,1.519,0,2.935.433,4.146,1.172l-1.436,2.638Z"/>
</svg>
