<?xml version="1.0" encoding="UTF-8"?>
<svg xmlns="http://www.w3.org/2000/svg" id="Layer_1" data-name="Layer 1" viewBox="0 0 24 24">
  <path d="M24,4.5v3c0,.276-.224,.5-.5,.5s-.5-.224-.5-.5v-3c0-1.93-1.57-3.5-3.5-3.5h-3c-.276,0-.5-.224-.5-.5s.224-.5,.5-.5h3c2.481,0,4.5,2.019,4.5,4.5ZM7.5,0h-3C2.019,0,0,2.019,0,4.5v3c0,.276,.224,.5,.5,.5s.5-.224,.5-.5v-3c0-1.93,1.57-3.5,3.5-3.5h3c.276,0,.5-.224,.5-.5s-.224-.5-.5-.5Zm0,23h-3c-1.93,0-3.5-1.57-3.5-3.5v-3c0-.276-.224-.5-.5-.5s-.5,.224-.5,.5v3c0,2.481,2.019,4.5,4.5,4.5h3c.276,0,.5-.224,.5-.5s-.224-.5-.5-.5Zm16-7c-.276,0-.5,.224-.5,.5v3c0,1.93-1.57,3.5-3.5,3.5h-3c-.276,0-.5,.224-.5,.5s.224,.5,.5,.5h3c2.481,0,4.5-2.019,4.5-4.5v-3c0-.276-.224-.5-.5-.5Z"/>
</svg>
