<svg id="Layer_1" viewBox="0 0 24 24" xmlns="http://www.w3.org/2000/svg" data-name="Layer 1"><path d="m23.637 23.019c-1.055-.299-1.66-.935-1.679-.954-.653-.653-1.101-1.531-1.259-2.472-.239-1.414-1.307-2.481-2.721-2.721-.945-.159-1.826-.607-2.481-1.263s-1.104-1.536-1.263-2.481c-.223-1.315-1.223-2.329-2.677-2.711-1.178-.311-1.641-.79-2.228-1.397l-.571-.575c1.732-1.876 1.639-4.294-.291-6.223-2.172-2.176-6.193-2.927-7.683-1.437s-.737 5.51 1.437 7.683c1.02 1.02 2.177 1.531 3.318 1.531.858 0 1.705-.301 2.48-.881l.592.596c.64.663 1.244 1.288 2.692 1.669 1.079.284 1.788.981 1.945 1.911.194 1.148.741 2.222 1.542 3.022s1.874 1.348 3.022 1.542c.987.167 1.733.913 1.9 1.9.193 1.145.739 2.214 1.523 2.998.032.034.789.845 2.127 1.225.259.074.543-.077.618-.345.075-.266-.079-.542-.345-.618zm-20.709-15.258c-1.861-1.86-2.435-5.271-1.437-6.269.327-.327.912-.485 1.616-.485 1.448 0 3.402.669 4.654 1.921 1.605 1.605 1.66 3.467.147 4.98-.699.699-1.507 1.077-2.335 1.092-.928.031-1.819-.412-2.645-1.238zm9.832-.985c.816.817 1.744 1.227 2.659 1.227.778 0 1.543-.313 2.227-.906.184.131.398.294.482.377.405.404.682.95.78 1.536.17 1 .926 1.757 1.927 1.926.586.099 1.131.376 1.553.796.226.206.567.612.623.872.057.272.331.443.594.384.271-.058.442-.323.385-.593-.146-.677-.849-1.331-.911-1.386-.551-.55-1.288-.926-2.077-1.06-.575-.097-1.01-.532-1.106-1.106-.133-.789-.509-1.527-1.06-2.077-.116-.116-.314-.27-.5-.406 1.042-1.441.856-3.186-.559-4.601-1.584-1.582-4.842-2.408-6.134-1.116-.6.6-.792 1.682-.528 2.97.25 1.215.849 2.368 1.645 3.164zm-.41-5.426c.239-.239.666-.354 1.183-.354 1.092 0 2.581.516 3.537 1.472 1.198 1.199 1.241 2.588.114 3.716-1.128 1.127-2.517 1.084-3.717-.114-.651-.651-1.165-1.645-1.372-2.658-.19-.924-.092-1.714.255-2.062zm.255 21.661c-.26-.056-.667-.397-.888-.64-.404-.405-.682-.95-.78-1.536-.169-1.001-.926-1.757-1.927-1.927-.586-.099-1.131-.375-1.536-.78-.083-.083-.247-.298-.378-.482 1.291-1.491 1.191-3.375-.32-4.886-.796-.796-1.949-1.396-3.164-1.645-1.289-.265-2.37-.072-2.97.528-1.292 1.292-.466 4.551 1.117 6.134.817.816 1.744 1.227 2.66 1.227.67 0 1.333-.225 1.942-.666.135.185.289.383.405.498.55.551 1.288.927 2.076 1.06.575.097 1.01.531 1.107 1.106.133.789.509 1.526 1.042 2.06.073.08.727.783 1.403.929.264.057.537-.112.593-.385.058-.27-.114-.536-.384-.594zm-10.138-5.942c-1.409-1.409-1.861-3.976-1.117-4.72.347-.348 1.137-.445 2.062-.255 1.013.208 2.006.721 2.658 1.372 1.199 1.199 1.242 2.589.114 3.717-1.129 1.128-2.518 1.083-3.716-.114z"/></svg>