<svg id="Layer_1" viewBox="0 0 24 24" xmlns="http://www.w3.org/2000/svg" data-name="Layer 1"><path d="m23.653 20.755-3.672-6.533c-.426-.759-1.187-1.215-2.04-1.22-.849.002-1.609.458-2.034 1.218l-3.673 6.532c-.478.85-.363 1.86.292 2.573.611.666 1.534.856 2.344.486l3.072-1.395 3.074 1.397c.275.125.562.186.846.186.555 0 1.095-.233 1.499-.674.654-.714.769-1.723.291-2.571zm-1.028 1.896c-.121.131-.563.539-1.193.253l-3.281-1.491c-.132-.06-.282-.06-.414 0l-3.279 1.489c-.63.285-1.073-.121-1.193-.252-.271-.295-.476-.841-.157-1.407l3.673-6.533c.247-.441.683-.706 1.161-.708.484.002.921.268 1.169.709l3.673 6.533c.317.564.114 1.11-.157 1.405zm-12.625.85c0 .276-.224.5-.5.5h-4.817c-1.386 0-2.693-.608-3.584-1.67-.892-1.061-1.267-2.453-1.028-3.818l2.561-14.638c.393-2.246 2.332-3.875 4.612-3.875h9.499c2.277 0 4.216 1.628 4.61 3.871l1.756 10.547c.045.272-.139.53-.411.575-.267.048-.529-.138-.575-.411l-1.755-10.543c-.31-1.759-1.834-3.039-3.625-3.039h-9.499c-1.792 0-3.318 1.281-3.626 3.047l-2.562 14.637c-.188 1.074.107 2.168.808 3.003.701.834 1.729 1.313 2.819 1.313h4.817c.276 0 .5.224.5.5zm2.5-16.001c0 .276-.224.5-.5.5s-.5-.224-.5-.5v-3c0-.276.224-.5.5-.5s.5.224.5.5zm0 3v3c0 .276-.224.5-.5.5s-.5-.224-.5-.5v-3c0-.276.224-.5.5-.5s.5.224.5.5zm-.5 7.5c-.276 0-.5-.224-.5-.5v-1c0-.276.224-.5.5-.5s.5.224.5.5v1c0 .276-.224.5-.5.5z"/></svg>