<svg id="Layer_1" viewBox="0 0 24 24" xmlns="http://www.w3.org/2000/svg" data-name="Layer 1"><path d="m11 7c0 .552-.448 1-1 1s-1-.448-1-1 .448-1 1-1 1 .448 1 1zm4 2c.552 0 1-.448 1-1s-.448-1-1-1-1 .448-1 1 .448 1 1 1zm-3 1c-.552 0-1 .448-1 1s.448 1 1 1 1-.448 1-1-.448-1-1-1zm12-1.695v3.654c0 1.094-.837 1.989-1.904 2.039-.539.025-1.054-.163-1.444-.532-.42-.396-.656-.955-.664-1.575 0-.288-.175-.416-.25-.458-.203-.185-.785.048-.737.429l.072 6.134c.026 1.117-.986 2.081-2.096 2.003-1.068-.05-1.904-.947-1.904-2.04l-.072-3.093c-.078-.47-.313-.599-.747-.435l-.804.487c-.893.536-2.003.539-2.897 0l-10.31-6.184c-.151-.09-.243-.253-.243-.429s.092-.338.243-.429l10.31-6.185c.893-.536 2.001-.536 2.895 0l10.308 6.186c.151.09.243.253.243.429zm-1 .283-10.066-6.04c-.576-.346-1.292-.346-1.866 0l-9.596 5.757 9.595 5.757c.576.346 1.292.346 1.866 0l.804-.487s0 0 0 0c.469-.281 1.03-.288 1.505-.019s.758.754.758 1.3l.072 3.093c0 .561.427 1.028.951 1.053.292.015.539-.085.739-.275.199-.191.31-.448.31-.724l-.072-6.134c0-.527.278-1.018.726-1.286.467-.28 1.029-.288 1.504-.019s.758.754.758 1.299c.005.362.129.668.35.876.192.181.447.281.712.261.524-.024.951-.491.951-1.04v-3.371zm-22.757 3.73 11.5 6.9c.158.095.355.095.514 0l.5-.3c.237-.142.314-.449.172-.686-.144-.237-.452-.313-.686-.171l-.243.146-11.243-6.746c-.233-.141-.543-.066-.686.171s-.065.544.172.686zm13.5 8.343-1.743 1.045-11.243-6.745c-.233-.141-.543-.065-.686.171s-.065.544.172.686l11.5 6.9c.158.095.355.095.514 0l2-1.2c.237-.142.314-.449.172-.686s-.451-.312-.686-.171zm9.5-5.7-2 1.2c-.237.142-.314.449-.172.686.094.156.26.243.429.243.088 0 .177-.023.257-.071l2-1.2c.237-.142.314-.449.172-.686s-.451-.312-.686-.171z"/></svg>