<?xml version="1.0" encoding="UTF-8"?>
<svg xmlns="http://www.w3.org/2000/svg" id="Layer_1" data-name="Layer 1" viewBox="0 0 24 24">
  <path d="M24,4.5v3c0,.276-.224,.5-.5,.5s-.5-.224-.5-.5v-3c0-1.93-1.57-3.5-3.5-3.5h-3c-.276,0-.5-.224-.5-.5s.224-.5,.5-.5h3c2.481,0,4.5,2.019,4.5,4.5ZM.5,8c.276,0,.5-.224,.5-.5v-3c0-1.93,1.57-3.5,3.5-3.5h3c.276,0,.5-.224,.5-.5s-.224-.5-.5-.5h-3C2.019,0,0,2.019,0,4.5v3c0,.276,.224,.5,.5,.5Zm7,15h-3c-1.93,0-3.5-1.57-3.5-3.5v-3c0-.276-.224-.5-.5-.5s-.5,.224-.5,.5v3c0,2.481,2.019,4.5,4.5,4.5h3c.276,0,.5-.224,.5-.5s-.224-.5-.5-.5Zm16-7c-.276,0-.5,.224-.5,.5v3c0,1.93-1.57,3.5-3.5,3.5h-3c-.276,0-.5,.224-.5,.5s.224,.5,.5,.5h3c2.481,0,4.5-2.019,4.5-4.5v-3c0-.276-.224-.5-.5-.5Zm-5.518,3.538c.021,.263,.239,.462,.498,.462,.014,0,.026,0,.039,0,.275-.021,.481-.262,.461-.537-.276-3.623-3.343-6.462-6.98-6.462s-6.704,2.839-6.98,6.462c-.021,.275,.186,.516,.461,.537,.253,.021,.516-.185,.537-.461,.236-3.105,2.864-5.538,5.982-5.538s5.746,2.433,5.982,5.538ZM8,7c0-2.206,1.794-4,4-4s4,1.794,4,4-1.794,4-4,4-4-1.794-4-4Zm1,0c0,1.654,1.346,3,3,3s3-1.346,3-3-1.346-3-3-3-3,1.346-3,3Z"/>
</svg>
