<?xml version="1.0" encoding="UTF-8"?>
<svg xmlns="http://www.w3.org/2000/svg" id="Layer_1" data-name="Layer 1" viewBox="0 0 24 24">
  <path d="M22,14h-1v-1c0-1.654-1.346-3-3-3s-3,1.346-3,3v1h-1c-1.103,0-2,.897-2,2v4.5c0,1.93,1.57,3.5,3.5,3.5h5c1.93,0,3.5-1.57,3.5-3.5v-4.5c0-1.103-.897-2-2-2Zm-6-1c0-1.103,.897-2,2-2s2,.897,2,2v1h-4v-1Zm7,7.5c0,1.378-1.122,2.5-2.5,2.5h-5c-1.378,0-2.5-1.122-2.5-2.5v-4.5c0-.551,.449-1,1-1h1v1.5c0,.276,.224,.5,.5,.5s.5-.224,.5-.5v-1.5h4v1.5c0,.276,.224,.5,.5,.5s.5-.224,.5-.5v-1.5h1c.551,0,1,.449,1,1v4.5ZM9,12c3.309,0,6-2.691,6-6S12.309,0,9,0,3,2.691,3,6s2.691,6,6,6Zm0-11c2.757,0,5,2.243,5,5s-2.243,5-5,5-5-2.243-5-5S6.243,1,9,1Zm.999,13.544c-.016,.275-.26,.482-.528,.47-.156-.009-.312-.014-.471-.014-4.411,0-8,3.589-8,8v.5c0,.276-.224,.5-.5,.5s-.5-.224-.5-.5v-.5c0-4.962,4.038-9,9-9,.178,0,.354,.005,.529,.016,.276,.016,.486,.253,.47,.528Z"/>
</svg>
