<svg id="Layer_1" viewBox="0 0 24 24" xmlns="http://www.w3.org/2000/svg" data-name="Layer 1"><path d="m23.989 12.521c-.275 6.437-5.542 11.479-11.989 11.479-4.033 0-7.789-2.067-10-5.412v3.912c0 .276-.224.5-.5.5s-.5-.224-.5-.5v-4c0-.827.673-1.5 1.5-1.5h4c.276 0 .5.224.5.5s-.224.5-.5.5h-3.693c2.024 3.09 5.481 5 9.193 5 5.91 0 10.737-4.622 10.989-10.521.012-.275.203-.513.521-.478.275.012.49.245.479.521zm-11.989-11.521c3.712 0 7.169 1.91 9.193 5h-3.693c-.276 0-.5.224-.5.5s.224.5.5.5h4c.827 0 1.5-.673 1.5-1.5v-4c0-.276-.224-.5-.5-.5s-.5.224-.5.5v3.912c-2.211-3.345-5.967-5.412-10-5.412-6.447 0-11.714 5.042-11.989 11.479-.012.276.203.509.479.521h.021c.267 0 .488-.21.5-.479.252-5.899 5.079-10.521 10.989-10.521zm4 8c1.654 0 3 1.346 3 3s-1.346 3-3 3c-1.483 0-3.243-1.551-4-2.291-.757.74-2.517 2.291-4 2.291-1.654 0-3-1.346-3-3s1.346-3 3-3c1.483 0 3.243 1.551 4 2.291.757-.74 2.517-2.291 4-2.291zm-4.703 3c-.792-.765-2.283-2-3.297-2-1.103 0-2 .897-2 2s.897 2 2 2c1.014 0 2.505-1.235 3.297-2zm4.703-2c-1.014 0-2.505 1.235-3.297 2 .792.765 2.283 2 3.297 2 1.103 0 2-.897 2-2s-.897-2-2-2z"/></svg>