<svg id="Layer_1" viewBox="0 0 24 24" xmlns="http://www.w3.org/2000/svg" data-name="Layer 1"><path d="m16 8.5h2.149l1.705 1.397c.051.031.192.103.393.103.415 0 .752-.337.752-.751v-4.249c0-1.103-.896-2-1.999-2h-3s-.001 0-.001 0c-.534 0-1.036.208-1.414.585-.378.378-.586.88-.586 1.415v1.5c0 1.103.897 2 2 2zm-.708-4.208c.189-.188.44-.292.707-.292h3c.551 0 1 .449 1 1v3.728s-1.354-1.114-1.354-1.114c-.09-.074-.202-.114-.318-.114h-2.328c-.551 0-1-.449-1-1v-1.5c0-.267.104-.519.292-.708zm6.32 7.237c1.456-1.193 2.388-3.004 2.388-5.029 0-3.584-2.916-6.5-6.5-6.5s-6.5 2.916-6.5 6.5c0 1.746.696 3.331 1.821 4.5h-8.321c-2.481 0-4.5 2.019-4.5 4.5v4c0 2.481 2.019 4.5 4.5 4.5h15c2.481 0 4.5-2.019 4.5-4.5v-4c0-1.689-.935-3.201-2.388-3.971zm-4.112-10.529c3.033 0 5.5 2.467 5.5 5.5s-2.467 5.5-5.5 5.5-5.5-2.467-5.5-5.5 2.467-5.5 5.5-5.5zm5.5 18.5c0 1.93-1.57 3.5-3.5 3.5h-15c-1.93 0-3.5-1.57-3.5-3.5v-4c0-1.93 1.57-3.5 3.5-3.5h9.552c1.001.63 2.181 1 3.448 1 1.136 0 2.204-.295 3.134-.809 1.416.485 2.366 1.807 2.366 3.309zm-9-4.5c-.827 0-1.5.673-1.5 1.5v3c0 .276.224.5.5.5s.5-.224.5-.5v-1h1v1c0 .276.224.5.5.5s.5-.224.5-.5v-3c0-.827-.673-1.5-1.5-1.5zm-.5 2.5v-1c0-.275.224-.5.5-.5s.5.225.5.5v1zm5.75-2c0 .276-.224.5-.5.5h-.5v3.5c0 .276-.224.5-.5.5s-.5-.224-.5-.5v-3.5h-.5c-.276 0-.5-.224-.5-.5s.224-.5.5-.5h2c.276 0 .5.224.5.5zm-7.75 0v4c0 .276-.224.5-.5.5s-.5-.224-.5-.5v-1.5h-1v1.5c0 .276-.224.5-.5.5s-.5-.224-.5-.5v-4c0-.276.224-.5.5-.5s.5.224.5.5v1.5h1v-1.5c0-.276.224-.5.5-.5s.5.224.5.5zm-5.75 1v2c0 .275.224.5.5.5.178 0 .344-.096.434-.25.137-.239.442-.323.683-.183.239.138.321.444.182.683-.267.463-.765.75-1.299.75-.827 0-1.5-.673-1.5-1.5v-2c0-.827.673-1.5 1.5-1.5.534 0 1.032.287 1.299.75.139.238.057.545-.182.683-.241.139-.546.056-.683-.183-.089-.154-.255-.25-.434-.25-.276 0-.5.225-.5.5z"/></svg>