<svg id="Layer_1" viewBox="0 0 24 24" xmlns="http://www.w3.org/2000/svg" data-name="Layer 1"><path d="m2 17.5v6c0 .276-.224.5-.5.5s-.5-.224-.5-.5v-6c0-.276.224-.5.5-.5s.5.224.5.5zm19.5-9.5c.276 0 .5-.224.5-.5v-7c0-.276-.224-.5-.5-.5s-.5.224-.5.5v7c0 .276.224.5.5.5zm-9.5-2c0 3.309-2.691 6-6 6s-6-2.691-6-6 2.691-6 6-6 6 2.691 6 6zm-5.5-4.949v2c1.252.212 2.237 1.197 2.449 2.449h2c-.238-2.353-2.097-4.211-4.449-4.449zm-.5 6.949c1.103 0 2-.897 2-2s-.897-2-2-2-2 .897-2 2 .897 2 2 2zm-5-2c0 1.198.441 2.284 1.146 3.146l1.413-1.413c-.349-.49-.56-1.086-.56-1.733 0-1.483 1.084-2.71 2.5-2.949v-2c-2.519.255-4.499 2.363-4.499 4.949zm9.949.5h-2c-.24 1.416-1.466 2.5-2.949 2.5-.647 0-1.243-.21-1.733-.56l-1.413 1.413c.862.705 1.948 1.146 3.146 1.146 2.586 0 4.694-1.98 4.949-4.5zm-4.449 7.5c-.276 0-.5.224-.5.5v9c0 .276.224.5.5.5s.5-.224.5-.5v-9c0-.276-.224-.5-.5-.5zm5-2c-.276 0-.5.224-.5.5v11c0 .276.224.5.5.5s.5-.224.5-.5v-11c0-.276-.224-.5-.5-.5zm5-2c.276 0 .5-.224.5-.5v-6c0-.276-.224-.5-.5-.5s-.5.224-.5.5v6c0 .276.224.5.5.5zm5.69 7.105-4.105-1.173c-.639-.182-1.085-.773-1.085-1.438 0-.824.671-1.495 1.495-1.495h3.01c.824 0 1.495.671 1.495 1.495 0 .276.224.5.5.5s.5-.224.5-.5c0-1.376-1.119-2.495-2.495-2.495h-1.005v-1.5c0-.276-.224-.5-.5-.5s-.5.224-.5.5v1.5h-1.005c-1.376 0-2.495 1.119-2.495 2.495 0 1.108.744 2.095 1.81 2.399l4.105 1.173c.639.182 1.085.773 1.085 1.438 0 .824-.671 1.495-1.495 1.495h-3.01c-.824 0-1.495-.671-1.495-1.495 0-.276-.224-.5-.5-.5s-.5.224-.5.5c0 1.376 1.119 2.495 2.495 2.495h1.005v1.5c0 .276.224.5.5.5s.5-.224.5-.5v-1.5h1.005c1.376 0 2.495-1.119 2.495-2.495 0-1.108-.744-2.095-1.81-2.399z"/></svg>