<?xml version="1.0" encoding="UTF-8"?>
<svg xmlns="http://www.w3.org/2000/svg" id="Layer_1" data-name="Layer 1" viewBox="0 0 24 24">
  <path d="M17.625,15.875c.098,.098,.226,.146,.354,.146s.256-.049,.354-.146c.195-.195,.195-.512,0-.707l-2.772-2.772c-.228-.228-.531-.339-.843-.383-.066-.032-.138-.055-.217-.055s-.151,.022-.217,.055c-.312,.044-.615,.155-.843,.383l-2.772,2.772c-.195,.195-.195,.512,0,.707s.512,.195,.707,0l2.625-2.626v10.251c0,.276,.224,.5,.5,.5s.5-.224,.5-.5V13.249l2.625,2.626Z"/>
  <path d="M18.51,7.408c-.438-.145-.773-.481-.919-.923C16.356,2.752,12.624,.488,8.707,1.102c-3.169,.498-5.779,2.927-6.494,6.045-.352,1.533-.262,3.105,.258,4.547,.198,.549,.005,1.171-.493,1.586C.605,14.425-.127,16.175,.019,17.962c.231,2.825,2.736,5.038,5.703,5.038h5.778c.276,0,.5-.224,.5-.5s-.224-.5-.5-.5H5.722c-2.45,0-4.517-1.81-4.706-4.12-.122-1.484,.462-2.882,1.603-3.833,.824-.688,1.136-1.744,.792-2.693-.455-1.261-.532-2.638-.224-3.984,.625-2.723,2.905-4.845,5.675-5.279,3.425-.541,6.698,1.442,7.78,4.71,.246,.745,.813,1.312,1.555,1.558,2.873,.948,4.804,3.618,4.804,6.643,0,3.316-2.355,6.201-5.6,6.859-.271,.055-.445,.319-.391,.59,.055,.271,.317,.448,.59,.391,3.708-.753,6.4-4.05,6.4-7.84,0-3.457-2.207-6.508-5.49-7.592Z"/>
</svg>
