<svg id="Layer_1" viewBox="0 0 24 24" xmlns="http://www.w3.org/2000/svg" data-name="Layer 1"><path d="m8 0c-3.309 0-6 2.691-6 6s2.691 6 6 6 6-2.691 6-6-2.691-6-6-6zm0 11c-2.757 0-5-2.243-5-5s2.243-5 5-5 5 2.243 5 5-2.243 5-5 5zm10 9.5c0 .276-.224.5-.5.5h-1c-.276 0-.5-.224-.5-.5s.224-.5.5-.5h1c.276 0 .5.224.5.5zm-7.333-6.045c-.855-.302-1.753-.455-2.667-.455-4.411 0-8 3.589-8 8v1.5c0 .276.224.5.5.5s.5-.224.5-.5v-1.5c0-2.991 1.89-5.544 4.536-6.544l1.425 2.137-1.446 5.785c-.066.268.096.539.364.606.261.066.541-.094.606-.364l1.52-6.006 1.509 6.006c.066.27.345.431.606.364.269-.067.431-.339.364-.606l-1.446-5.785 1.448-2.173c.211.006.41-.117.484-.327.092-.261-.045-.547-.305-.639zm-2.667 2.894-1.462-2.192c.472-.101.96-.156 1.462-.156.493 0 .977.068 1.453.169zm13 3.151c0 .276-.224.5-.5.5h-1c-.276 0-.5-.224-.5-.5s.224-.5.5-.5h1c.276 0 .5.224.5.5zm0-9.5h-5c-1.654 0-3 1.346-3 3v7c0 1.654 1.346 3 3 3h5c1.654 0 3-1.346 3-3v-7c0-1.654-1.346-3-3-3zm2 10c0 1.103-.897 2-2 2h-5c-1.103 0-2-.897-2-2v-7c0-1.103.897-2 2-2h5c1.103 0 2 .897 2 2zm-5-3.5c0 .276-.224.5-.5.5h-1c-.276 0-.5-.224-.5-.5s.224-.5.5-.5h1c.276 0 .5.224.5.5zm3-3c0 .276-.224.5-.5.5h-4c-.276 0-.5-.224-.5-.5s.224-.5.5-.5h4c.276 0 .5.224.5.5zm0 3c0 .276-.224.5-.5.5h-1c-.276 0-.5-.224-.5-.5s.224-.5.5-.5h1c.276 0 .5.224.5.5z"/></svg>