<?xml version="1.0" encoding="UTF-8"?>
<svg xmlns="http://www.w3.org/2000/svg" id="Layer_1" data-name="Layer 1" viewBox="0 0 24 24">
  <path d="M23.527,4.855c-.524-1.203-1.361-2.17-2.238-2.585-.642-.311-1.41-.356-2.071-.112l-1.415-1.337C16.961-.018,15.676-.24,14.601,.272c-.681,.307-.798,1.285-.253,1.793l1.013,.929c.533,.533,1.242,.828,1.996,.828,.052,0,.102-.012,.154-.015-3.269,4.114-6.975,4.193-7.011,4.193-3.555,0-6.511,2.781-6.728,6.332-.135,2.198-.323,4.655-.493,6.412-.124,1.286-1.194,2.256-2.488,2.256h-.291c-.276,0-.5,.224-.5,.5s.224,.5,.5,.5h.5c1.726,0,5.764-.632,5.99-6.48,.011-.276-.204-.509-.48-.52-.274,.003-.509,.204-.519,.48-.101,2.609-1.04,4.006-2.162,4.744,.235-.415,.396-.879,.445-1.384,.17-1.768,.36-4.238,.496-6.447,.185-3.023,2.702-5.393,5.73-5.393,.161,0,3.718-.052,7.114-3.772,.06,.295,.215,.562,.386,.804v2.632c0,.708-.302,1.385-.828,1.857l-3.402,3.063c-.452,.406-.737,.956-.804,1.547-.38,3.41-3.874,3.854-4.022,3.871-.291,.027-.507,.335-.429,.618l.811,3.242c.167,.669,.766,1.137,1.455,1.137h3.719c.276,0,.5-.224,.5-.5s-.224-.5-.5-.5h-3.719c-.23,0-.429-.156-.485-.379l-.683-2.734c1.206-.3,3.979-1.344,4.348-4.644,.038-.348,.208-.672,.479-.914,0,0,3.506-3.183,3.562-3.24v.744c0,1.071,.634,2.035,1.578,2.399,1.048,.404,2.206,1.294,2.433,2.37,.056,.273,.328,.444,.592,.387,.271-.057,.443-.322,.387-.592-.324-1.543-1.847-2.634-3.052-3.099-.561-.216-.938-.805-.938-1.466V6.899c1.346,.641,2.521,1.049,3.78,1.101,.484,0,.93-.109,1.097-.468,.211-.447,.186-1.448-.35-2.677Zm-7.476-2.583l-1.014-.93c-.035-.035-.042-.087-.009-.167,.249-.118,.516-.176,.779-.176,.475,0,.943,.185,1.293,.534l.01,.01,1.118,1.057c-.679,.371-1.588,.261-2.178-.328Zm6.942,4.715c-.134,.019-.388,.026-.785-.041-.745-.119-1.757-.458-2.705-.906-.804-.359-1.252-1.364-.859-2.162,.351-.796,1.433-1.102,2.217-.703,.655,.31,1.325,1.107,1.75,2.08,.38,.875,.408,1.479,.383,1.732Z"/>
</svg>
