<?xml version="1.0" encoding="UTF-8"?>
<svg xmlns="http://www.w3.org/2000/svg" id="Layer_1" data-name="Layer 1" viewBox="0 0 24 24">
  <path d="M6.5,10h-1c-.827,0-1.5,.673-1.5,1.5v8c0,.827,.673,1.5,1.5,1.5h1c.827,0,1.5-.673,1.5-1.5V11.5c0-.827-.673-1.5-1.5-1.5Zm.5,9.5c0,.275-.224,.5-.5,.5h-1c-.276,0-.5-.225-.5-.5V11.5c0-.275,.224-.5,.5-.5h1c.276,0,.5,.225,.5,.5v8ZM6,3c-1.378,0-2.5,1.121-2.5,2.5s1.122,2.5,2.5,2.5,2.5-1.121,2.5-2.5-1.122-2.5-2.5-2.5Zm0,4c-.827,0-1.5-.673-1.5-1.5s.673-1.5,1.5-1.5,1.5,.673,1.5,1.5-.673,1.5-1.5,1.5ZM19.5,0h-3.5c-1.752,0-3.257,1.016-4,2.482-.743-1.465-2.248-2.482-4-2.482h-3.5C2.019,0,0,2.019,0,4.5v15c0,2.481,2.019,4.5,4.5,4.5h3.5c1.752,0,3.257-1.016,4-2.482,.743,1.465,2.248,2.482,4,2.482h3.5c2.481,0,4.5-2.019,4.5-4.5V4.5c0-2.481-2.019-4.5-4.5-4.5ZM8,23h-3.5c-1.93,0-3.5-1.57-3.5-3.5V4.5c0-1.93,1.57-3.5,3.5-3.5h3.5c1.93,0,3.5,1.57,3.5,3.5v15c0,1.93-1.57,3.5-3.5,3.5Zm15-3.5c0,1.93-1.57,3.5-3.5,3.5h-3.5c-1.93,0-3.5-1.57-3.5-3.5V4.5c0-1.93,1.57-3.5,3.5-3.5h3.5c1.93,0,3.5,1.57,3.5,3.5v15Zm-4.5-9.5h-1c-.827,0-1.5,.673-1.5,1.5v8c0,.827,.673,1.5,1.5,1.5h1c.827,0,1.5-.673,1.5-1.5V11.5c0-.827-.673-1.5-1.5-1.5Zm.5,9.5c0,.275-.225,.5-.5,.5h-1c-.275,0-.5-.225-.5-.5V11.5c0-.275,.225-.5,.5-.5h1c.275,0,.5,.225,.5,.5v8Zm-1-16.5c-1.379,0-2.5,1.121-2.5,2.5s1.121,2.5,2.5,2.5,2.5-1.121,2.5-2.5-1.121-2.5-2.5-2.5Zm0,4c-.827,0-1.5-.673-1.5-1.5s.673-1.5,1.5-1.5,1.5,.673,1.5,1.5-.673,1.5-1.5,1.5Z"/>
</svg>
