<?xml version="1.0" encoding="UTF-8"?>
<svg xmlns="http://www.w3.org/2000/svg" id="Layer_1" data-name="Layer 1" viewBox="0 0 24 24">
  <path d="M19.279,14.028c-.633-2.658-1.279-5.927-1.279-7.528,0-.827,.673-1.5,1.5-1.5s1.5,.673,1.5,1.5c0,.276,.224,.5,.5,.5s.5-.224,.5-.5c0-1.379-1.122-2.5-2.5-2.5s-2.5,1.121-2.5,2.5c0,.577,.073,1.314,.186,2.111l-6.035,4.694-4.927-4.458c-.362-.383-.242-.75,.276-.848h4c.276,0,.5-.224,.5-.5s-.224-.5-.5-.5H6.5c-1.361-.071-2.005,1.879-.907,2.623l4.755,4.306-1.893,1.473c-.899-.863-2.113-1.401-3.455-1.401-2.757,0-5,2.243-5,5s2.243,5,5,5,5-2.243,5-5c0-1.055-.333-2.031-.893-2.839l8.256-6.421c.281,1.636,.66,3.326,.898,4.335-2.405,.361-4.261,2.421-4.261,4.925,0,2.757,2.243,5,5,5s5-2.243,5-5c0-2.661-2.096-4.823-4.721-4.972ZM5,23c-2.206,0-4-1.794-4-4s1.794-4,4-4,4,1.794,4,4-1.794,4-4,4Zm14,0c-2.206,0-4-1.794-4-4s1.794-4,4-4,4,1.794,4,4-1.794,4-4,4ZM1,4.5c0-.276,.224-.5,.5-.5H9.5c.276,0,.5,.224,.5,.5s-.224,.5-.5,.5H1.5c-.276,0-.5-.224-.5-.5ZM3,1.5c0-.276,.224-.5,.5-.5H11.5c.276,0,.5,.224,.5,.5s-.224,.5-.5,.5H3.5c-.276,0-.5-.224-.5-.5ZM0,7.5c0-.276,.224-.5,.5-.5H2.5c.276,0,.5,.224,.5,.5s-.224,.5-.5,.5H.5c-.276,0-.5-.224-.5-.5Z"/>
</svg>
