<?xml version="1.0" encoding="UTF-8"?>
<svg xmlns="http://www.w3.org/2000/svg" id="Layer_1" data-name="Layer 1" viewBox="0 0 24 24">
  <path d="M22.991,19.047c.002-.016,.009-.03,.009-.047V6.5c0-2.31-1.756-4.197-4-4.449V.5c0-.276-.224-.5-.5-.5s-.5,.224-.5,.5v1.5H5.5c-.171,0-.334,.032-.5,.051V.5c0-.276-.224-.5-.5-.5s-.5,.224-.5,.5v1.776c-1.742,.621-3,2.271-3,4.224v6c0,.827,.673,1.5,1.5,1.5h1.5v1.5c0,.276,.224,.5,.5,.5s.5-.224,.5-.5v-1.5h1.5c.827,0,1.5-.673,1.5-1.5v-2c0-.827,.673-1.5,1.5-1.5h3c.827,0,1.5,.673,1.5,1.5v7.5H3.5c-1.93,0-3.5,1.57-3.5,3.5v1c0,.827,.673,1.5,1.5,1.5H22.5c.827,0,1.5-.673,1.5-1.5v-1c0-.955-.387-1.821-1.009-2.453ZM12.5,8h-3c-1.378,0-2.5,1.122-2.5,2.5v2c0,.276-.224,.5-.5,.5H2.5c-.276,0-.5-.224-.5-.5V6.5c0-1.93,1.57-3.5,3.5-3.5h13c1.93,0,3.5,1.57,3.5,3.5v11.851c-.456-.219-.961-.351-1.5-.351h-5.5v-7.5c0-1.378-1.122-2.5-2.5-2.5Zm10.5,14.5c0,.275-.224,.5-.5,.5H1.5c-.276,0-.5-.225-.5-.5v-1c0-1.379,1.122-2.5,2.5-2.5H20.5c1.378,0,2.5,1.121,2.5,2.5v1Zm-4.5-5.5c1.103,0,2-.897,2-2s-.897-2-2-2-2,.897-2,2,.897,2,2,2Zm0-3c.551,0,1,.448,1,1s-.449,1-1,1-1-.448-1-1,.449-1,1-1Zm0-2c1.103,0,2-.897,2-2s-.897-2-2-2-2,.897-2,2,.897,2,2,2Zm0-3c.551,0,1,.449,1,1s-.449,1-1,1-1-.449-1-1,.449-1,1-1Z"/>
</svg>
