<svg id="Layer_1" viewBox="0 0 24 24" xmlns="http://www.w3.org/2000/svg" data-name="Layer 1"><path d="m24 13.545c0 .584-.412 1.455-1.546 1.455h-.549l-.517 2.434c-.438 2.066-2.289 3.566-4.402 3.566h-.986v.5c0 1.378-1.121 2.5-2.5 2.5h-8c-1.472 0-2.5-1.028-2.5-2.5v-1.28c0-.925-.331-1.87-.958-2.733-.834-1.149-1.417-2.454-1.733-3.878-.06-.27.11-.537.38-.597.269-.06.537.11.597.38.286 1.29.813 2.469 1.566 3.508.751 1.035 1.148 2.184 1.148 3.32v1.28c0 1.107.808 1.5 1.5 1.5h8c.827 0 1.5-.673 1.5-1.5v-1c0-.276.224-.5.5-.5h1.486c1.644 0 3.083-1.167 3.424-2.773l.601-2.831c.049-.231.251-.396.487-.396h.956c.438 0 .539-.251.546-.462 0-.858-2.607-6.783-4.015-8.522-2.226-2.974-5.743-4.43-9.416-3.914-.274.036-.526-.152-.564-.426s.152-.526.426-.564c4.041-.564 7.907 1.037 10.344 4.29 1.374 1.698 4.226 7.862 4.226 9.145zm-23.715-6.121c-.275-.37-.356-.833-.223-1.271l1.818-5.158c.205-.594.775-.995 1.417-.995h2.202c.497 0 .96.243 1.239.649.277.403.337.917.161 1.376l-.694 1.975h1.388c.521 0 .996.283 1.24.738.243.452.216 1-.069 1.431l-4.283 5.265c-.371.547-1.102.715-1.69.43-.62-.293-.922-.958-.734-1.617l.75-2.247h-1.384c-.452 0-.867-.21-1.139-.576zm.803-.596c.081.109.204.172.336.172h2.076c.161 0 .312.077.406.208.094.13.12.298.068.451l-.962 2.884c-.074.261.138.386.205.417.068.033.299.116.465-.125l4.278-5.258c.09-.14.026-.304-.008-.366-.034-.063-.137-.211-.359-.211h-2.093c-.162 0-.314-.079-.408-.211s-.117-.302-.063-.455l.933-2.653c.064-.167.045-.332-.046-.465-.094-.137-.246-.215-.416-.215h-2.203c-.219 0-.405.127-.473.324l-1.812 5.139c-.033.11-.008.251.076.364z"/></svg>