<?xml version="1.0" encoding="UTF-8"?>
<svg xmlns="http://www.w3.org/2000/svg" id="Layer_1" data-name="Layer 1" viewBox="0 0 24 24">
  <path d="m18.986,9.601c-.61-.517-1.188-1.006-1.633-1.451-.098-.098-.235-.157-.371-.146-.139.005-.27.067-.36.172-1.058,1.221-1.484,2.782-1.828,4.037-.229.839-.489,1.79-.794,1.79-.897,0-1-1.514-1.001-1.529-.012-.197-.14-.37-.325-.439-.184-.068-.394-.022-.532.12-1.401,1.444-2.142,3.119-2.142,4.845,0,3.651,2.923,7.037,7,7.037s7-3.386,7-7.037c0-3.152-2.78-5.507-5.014-7.399Zm-3.986,11.438c0-.534.208-1.037.586-1.415l1.414-1.414,1.414,1.414c.378.378.586.88.586,1.415s-.5,1.961-2,1.961-2-1.427-2-1.961Zm4.68,1.322c.202-.408.32-.854.32-1.322,0-.801-.313-1.555-.879-2.122l-1.768-1.768c-.195-.195-.512-.195-.707,0l-1.768,1.768c-.566.567-.879,1.32-.879,2.122,0,.468.118.914.32,1.322-1.965-.987-3.32-3.016-3.32-5.36,0-1.202.411-2.347,1.226-3.416.269.721.808,1.418,1.774,1.418,1.068,0,1.389-1.171,1.759-2.526.276-1.01.611-2.236,1.297-3.229.389.357.827.729,1.284,1.116,2.076,1.759,4.66,3.948,4.66,6.636,0,2.345-1.355,4.374-3.32,5.36Zm4.32-12.799v.939c0,.276-.224.5-.5.5s-.5-.224-.5-.5v-.939c0-1.166-.576-2.25-1.542-2.901L13.958,1.599c-1.189-.803-2.727-.803-3.916,0L2.542,6.66c-.966.651-1.542,1.736-1.542,2.901v9.939c0,1.93,1.57,3.5,3.5,3.5h6c.276,0,.5.224.5.5s-.224.5-.5.5h-6c-2.481,0-4.5-2.019-4.5-4.5v-9.939c0-1.499.741-2.893,1.983-3.73L9.483.77c1.527-1.031,3.504-1.032,5.033,0l7.5,5.061c1.242.837,1.983,2.232,1.983,3.73Z"/>
</svg>
