<?xml version="1.0" encoding="UTF-8"?>
<svg xmlns="http://www.w3.org/2000/svg" id="Layer_1" data-name="Layer 1" viewBox="0 0 24 24">
  <path d="M24,19.5c0,2.481-2.019,4.5-4.5,4.5h-7c-.276,0-.5-.224-.5-.5s.224-.5,.5-.5h7c1.93,0,3.5-1.57,3.5-3.5s-1.57-3.5-3.5-3.5H4c-2.206,0-4-1.794-4-4s1.794-4,4-4h6.5c.276,0,.5,.224,.5,.5s-.224,.5-.5,.5H4c-1.654,0-3,1.346-3,3s1.346,3,3,3h15.5c2.481,0,4.5,2.019,4.5,4.5Zm-14.5,3.5h-3c-.276,0-.5,.224-.5,.5s.224,.5,.5,.5h3c.276,0,.5-.224,.5-.5s-.224-.5-.5-.5Zm-6,0H.5c-.276,0-.5,.224-.5,.5s.224,.5,.5,.5H3.5c.276,0,.5-.224,.5-.5s-.224-.5-.5-.5ZM13,6.5c0-1.379,1.122-2.5,2.5-2.5,.2,0,.392,.03,.579,.074,.006-.004,.009-.01,.015-.013l.271-.148-1.003-1.671c-.09-.149-.254-.242-.429-.242h-.434c-.276,0-.5-.224-.5-.5s.224-.5,.5-.5h.434c.523,0,1.016,.278,1.286,.728l1.024,1.707,1.786-.974-.353-.627c-.475-.78,.161-1.864,1.072-1.833h1.752c.276,0,.5,.224,.5,.5s-.224,.5-.5,.5h-1.752c-.203,.029-.275,.152-.2,.343l1.519,2.701c.141-.025,.285-.044,.433-.044,1.378,0,2.5,1.121,2.5,2.5s-1.122,2.5-2.5,2.5-2.5-1.121-2.5-2.5c0-.872,.45-1.639,1.128-2.086l-.609-1.083-2.378,1.298c.522,.458,.859,1.123,.859,1.871,0,1.379-1.122,2.5-2.5,2.5s-2.5-1.121-2.5-2.5Zm8.5-1.5c-.827,0-1.5,.673-1.5,1.5s.673,1.5,1.5,1.5,1.5-.673,1.5-1.5-.673-1.5-1.5-1.5Zm-7.5,1.5c0,.827,.673,1.5,1.5,1.5s1.5-.673,1.5-1.5-.673-1.5-1.5-1.5-1.5,.673-1.5,1.5Z"/>
</svg>
