<?xml version="1.0" encoding="UTF-8"?>
<svg xmlns="http://www.w3.org/2000/svg" id="Layer_1" data-name="Layer 1" viewBox="0 0 24 24">
  <path d="m9,11h-2c-1.654,0-3,1.346-3,3v4.513c-.419-.317-.935-.513-1.5-.513-1.378,0-2.5,1.121-2.5,2.5s1.122,2.5,2.5,2.5,2.5-1.121,2.5-2.5v-6.5c0-1.103.897-2,2-2h2c1.103,0,2,.897,2,2v4.513c-.419-.317-.935-.513-1.5-.513-1.378,0-2.5,1.121-2.5,2.5s1.122,2.5,2.5,2.5,2.5-1.121,2.5-2.5v-6.5c0-1.654-1.346-3-3-3Zm-6.5,11c-.827,0-1.5-.673-1.5-1.5s.673-1.5,1.5-1.5,1.5.673,1.5,1.5-.673,1.5-1.5,1.5Zm7,0c-.827,0-1.5-.673-1.5-1.5s.673-1.5,1.5-1.5,1.5.673,1.5,1.5-.673,1.5-1.5,1.5Zm14.354,1.854c-.098.098-.226.146-.354.146s-.256-.049-.354-.146l-6.448-6.448c-.591.535-1.24,1.014-1.961,1.403-.076.04-.157.06-.237.06-.178,0-.351-.095-.441-.263-.131-.243-.04-.547.203-.678,2.922-1.573,4.737-4.611,4.737-7.928,0-4.963-4.038-9-9-9S1,5.037,1,10c0,1.68.465,3.317,1.346,4.736.146.234.073.543-.161.688-.234.145-.542.073-.688-.161-.979-1.578-1.496-3.397-1.496-5.264C0,4.486,4.486,0,10,0s10,4.486,10,10c0,2.522-.962,4.884-2.599,6.694l6.452,6.452c.195.195.195.512,0,.707Z"/>
</svg>
