<svg id="Layer_1" viewBox="0 0 24 24" xmlns="http://www.w3.org/2000/svg" data-name="Layer 1"><path d="m19.5 2c-.276 0-.5.224-.5.5s.224.5.5.5c1.93 0 3.5 1.57 3.5 3.5v8.5h-22v-8.5c0-1.93 1.57-3.5 3.5-3.5.276 0 .5-.224.5-.5s-.224-.5-.5-.5c-2.481 0-4.5 2.019-4.5 4.5v9c0 2.481 2.019 4.5 4.5 4.5h7v3h-5c-.276 0-.5.224-.5.5s.224.5.5.5h11c.276 0 .5-.224.5-.5s-.224-.5-.5-.5h-5v-3h7c2.481 0 4.5-2.019 4.5-4.5v-9c0-2.481-2.019-4.5-4.5-4.5zm0 17h-15c-1.758 0-3.204-1.308-3.449-3h21.898c-.245 1.692-1.691 3-3.449 3zm-7.947-5.665c.267.189.584.202.866.035 1.192-.48 5.08-2.363 5.08-6.458v-3.31c.001-1.08-.687-2.033-1.712-2.373l-3.63-1.204c-.102-.034-.213-.034-.314 0l-3.629 1.204c-1.025.339-1.713 1.293-1.713 2.373v3.312c-.001 3.614 3.867 5.83 5.053 6.422zm-4.053-9.733c0-.648.413-1.22 1.028-1.423l3.472-1.151 3.472 1.151c.615.204 1.028.776 1.028 1.424v3.312c-.001 3.467-3.41 5.109-4.455 5.53l-.023.009-.022-.011c-1.056-.528-4.501-2.487-4.501-5.528v-3.313z"/></svg>