<svg id="Layer_1" viewBox="0 0 24 24" xmlns="http://www.w3.org/2000/svg" data-name="Layer 1"><path d="m4.5 13c-1.671 0-4.5.369-4.5 1.75v7.583c0 1.315 2.829 1.667 4.5 1.667s4.5-.351 4.5-1.667v-7.583c0-1.381-2.829-1.75-4.5-1.75zm3.508 6.782c-.133.214-1.314.718-3.508.718-2.151 0-3.33-.484-3.5-.705v-1.349c.976.419 2.461.555 3.5.555s2.53-.137 3.506-.557l.002 1.339zm-.004-2.496c-.143.216-1.321.714-3.504.714-2.151 0-3.33-.484-3.5-.705v-1.377c.976.44 2.461.582 3.5.582s2.526-.143 3.502-.583zm-3.504-3.286c2.216 0 3.405.558 3.505.721-.1.222-1.289.779-3.505.779-2.123 0-3.304-.512-3.486-.75.183-.238 1.363-.75 3.486-.75zm0 9c-2.205 0-3.389-.509-3.5-.667v-1.388c.976.419 2.461.555 3.5.555s2.534-.137 3.51-.558l.002 1.337c-.123.212-1.307.722-3.512.722zm8.5-13c0-.552.448-1 1-1s1 .448 1 1-.448 1-1 1-1-.448-1-1zm10.5-3h-12c-.276 0-.5.224-.5.5v3c0 1.378 1.121 2.5 2.5 2.5h8c1.379 0 2.5-1.122 2.5-2.5v-3c0-.276-.224-.5-.5-.5zm-.5 3.5c0 .827-.673 1.5-1.5 1.5h-8c-.827 0-1.5-.673-1.5-1.5v-2.5h11zm-6-.5c0-.276.224-.5.5-.5h3c.276 0 .5.224.5.5s-.224.5-.5.5h-3c-.276 0-.5-.224-.5-.5zm-2-7c0 .552-.448 1-1 1s-1-.448-1-1 .448-1 1-1 1 .448 1 1zm6.5-3h-8c-1.379 0-2.5 1.122-2.5 2.5v3c0 .276.224.5.5.5h12c.276 0 .5-.224.5-.5v-3c0-1.378-1.121-2.5-2.5-2.5zm1.5 5h-11v-2.5c0-.827.673-1.5 1.5-1.5h8c.827 0 1.5.673 1.5 1.5zm-2-2c0 .276-.224.5-.5.5h-3c-.276 0-.5-.224-.5-.5s.224-.5.5-.5h3c.276 0 .5.224.5.5zm-12-.5c0 .276-.224.5-.5.5h-2c-1.379 0-2.5 1.122-2.5 2.5v3.199l2.154-2.06c.199-.191.516-.183.707.016.19.2.184.516-.016.707l-2.32 2.218c-.268.268-.635.42-1.025.42s-.758-.152-1.033-.428l-2.313-2.211c-.199-.191-.206-.507-.016-.707.189-.199.508-.207.707-.016l2.154 2.06v-3.198c0-1.93 1.57-3.5 3.5-3.5h2c.276 0 .5.224.5.5zm11 13v2c0 1.93-1.57 3.5-3.5 3.5h-3.199l2.061 2.154c.19.2.184.516-.016.707-.199.191-.516.184-.707-.016l-2.219-2.32c-.562-.562-.562-1.49.008-2.06l2.211-2.312c.192-.198.508-.206.707-.016.199.191.206.507.016.707l-2.06 2.154h3.199c1.379 0 2.5-1.122 2.5-2.5v-2c0-.276.224-.5.5-.5s.5.224.5.5z"/></svg>