<?xml version="1.0" encoding="UTF-8"?>
<svg xmlns="http://www.w3.org/2000/svg" id="Layer_1" data-name="Layer 1" viewBox="0 0 24 24">
  <path d="M21.226,24.021c-.452,.466-1.172-.255-.707-.707,3.317-3.318,3.317-8.719,0-12.037-.195-.195-.195-.512,0-.707s.512-.195,.707,0c3.708,3.709,3.708,9.742,0,13.451Zm-2.115-11.336c-.195-.195-.512-.195-.707,0s-.195,.512,0,.707c2.151,2.152,2.151,5.654,0,7.807-.466,.452,.255,1.172,.707,.707,2.541-2.542,2.541-6.679,0-9.221Zm-2.836,2.129c-.195,.195-.195,.512,0,.707,.475,.474,.735,1.104,.735,1.774s-.261,1.301-.735,1.774c-.466,.452,.255,1.172,.707,.707,.663-.662,1.028-1.544,1.028-2.481s-.365-1.819-1.028-2.481c-.195-.195-.512-.195-.707,0ZM.43,.111C.157,.149-.034,.402,.005,.676c.038,.273,.285,.458,.565,.426,3.676-.514,7.189,.941,9.416,3.914,1.407,1.739,4.014,7.664,4.014,8.53,0,.137-.053,.454-.546,.454h-.956c-.236,0-.438,.165-.487,.396l-.6,2.83c-.341,1.606-1.781,2.773-3.424,2.773h-1.487c-.276,0-.5,.224-.5,.5v1c0,.827-.673,1.5-1.5,1.5H.5c-.276,0-.5,.224-.5,.5s.224,.5,.5,.5H4.5c1.378,0,2.5-1.121,2.5-2.5v-.5h.987c2.112,0,3.964-1.5,4.402-3.566l.516-2.434h.549c1.134,0,1.546-.869,1.546-1.454,0-1.283-2.851-7.446-4.225-9.145C8.337,1.146,4.472-.455,.43,.111Z"/>
</svg>
