<?xml version="1.0" encoding="UTF-8"?>
<svg xmlns="http://www.w3.org/2000/svg" id="Layer_1" data-name="Layer 1" viewBox="0 0 24 24">
  <path d="M20.975,3.768l-2.742-2.742c-.651-.651-1.553-1.025-2.475-1.025h-4.758c-2.206,0-4,1.794-4,4h-1c-2.206,0-4,1.794-4,4v12c0,2.206,1.794,4,4,4h7c2.206,0,4-1.794,4-4h1c2.206,0,4-1.794,4-4V6.243c0-.935-.364-1.813-1.025-2.475Zm-.707,.707c.158,.158,.282,.337,.391,.525h-2.658c-.552,0-1-.449-1-1V1.344c.189,.109,.37,.233,.525,.388l2.742,2.742Zm-7.268,18.525H6c-1.654,0-3-1.346-3-3V8c0-1.654,1.346-3,3-3h1v11c0,2.206,1.794,4,4,4h5c0,1.654-1.346,3-3,3Zm8-7c0,1.654-1.346,3-3,3h-7c-1.654,0-3-1.346-3-3V4c0-1.654,1.346-3,3-3h4.758c.082,0,.161,.016,.242,.024v2.976c0,1.103,.897,2,2,2h2.976c.008,.081,.024,.16,.024,.243v9.757Z"/>
</svg>
