<svg id="Layer_1" viewBox="0 0 24 24" xmlns="http://www.w3.org/2000/svg" data-name="Layer 1"><path d="m18 12c-3.309 0-6 2.691-6 6s2.691 6 6 6 6-2.691 6-6-2.691-6-6-6zm0 11c-2.757 0-5-2.243-5-5s2.243-5 5-5 5 2.243 5 5-2.243 5-5 5zm2.618-3.608c0 .887-.703 1.608-1.568 1.608h-.55v.5c0 .276-.224.5-.5.5s-.5-.224-.5-.5v-.5h-.512c-.812 0-1.483-.625-1.562-1.453-.025-.275.177-.519.451-.545.267-.025.519.177.545.451.029.312.272.547.565.547h2.062c.313 0 .568-.273.568-.608 0-.272-.171-.514-.417-.586l-2.575-.646c-.687-.204-1.152-.839-1.152-1.551 0-.887.703-1.608 1.568-1.608h.458v-.5c0-.276.224-.5.5-.5s.5.224.5.5v.5h.518c.813 0 1.485.625 1.562 1.454.025.275-.177.519-.452.544-.271.026-.519-.177-.544-.452-.028-.311-.271-.546-.565-.546h-1.976c-.313 0-.568.273-.568.608 0 .272.172.514.417.587l2.575.646c.687.204 1.152.839 1.152 1.551zm3.382-13.879c.002-.822-.49-1.546-1.256-1.845l-8.183-3.194c-.825-.322-1.561-.474-2.561-.474-.831 0-1.661.16-2.452.466l-8.282 3.205c-.768.297-1.265 1.021-1.264 1.845s.497 1.547 1.265 1.843l3.733 1.44v3.701c0 .276.224.5.5.5s.5-.224.5-.5v-3.315l3.502 1.351c.803.31 1.647.465 2.491.465s1.688-.155 2.49-.465l3.517-1.357v1.32c0 .276.224.5.5.5s.5-.224.5-.5v-1.706l3.736-1.441c.097-.037.176-.1.264-.15v4.297c0 .276.224.5.5.5s.5-.224.5-.5zm-1.623.907-8.253 3.184c-1.375.53-2.887.53-4.261 0l-8.236-3.178c-.46-.178-.625-.587-.625-.911s.164-.733.625-.911l8.282-3.205c1.385-.535 2.908-.534 4.289.006l8.184 3.194c.453.177.616.578.62.899v.002.026c-.006.321-.17.72-.623.894zm-9.877 17.08c0 .276-.224.5-.5.5h-9.5c-1.378 0-2.5-1.122-2.5-2.5 0-.821.403-1.544 1.015-2-.613-.456-1.015-1.179-1.015-2 0-1.378 1.122-2.5 2.5-2.5h7.5c.276 0 .5.224.5.5s-.224.5-.5.5h-7.5c-.827 0-1.5.673-1.5 1.5s.673 1.5 1.5 1.5h7c.276 0 .5.224.5.5s-.224.5-.5.5h-7c-.827 0-1.5.673-1.5 1.5s.673 1.5 1.5 1.5h9.5c.276 0 .5.224.5.5z"/></svg>