<svg id="Layer_1" viewBox="0 0 24 24" xmlns="http://www.w3.org/2000/svg" data-name="Layer 1"><path d="m23.313 9.687c-.458-.458-1.092-.695-1.736-.673-2.183.102-3.861.786-4.989 2.032-1.925 2.127-1.621 5.179-1.493 6.016-.024.004-2.575 2.575-2.595 2.588v-7.865c.468-.325 3.345-2.452 3.507-5.698.09-1.814-.691-3.619-2.322-5.364-.429-.459-1.038-.723-1.67-.723-.634 0-1.243.263-1.672.723-1.631 1.746-2.413 3.551-2.322 5.364.16 3.196 2.947 5.304 3.479 5.679v7.885c-.02-.013-2.571-2.584-2.595-2.588.128-.837.431-3.889-1.493-6.016-1.127-1.247-2.806-1.93-4.989-2.032-.646-.023-1.278.215-1.736.673s-.704 1.089-.673 1.735c.103 2.183.787 3.862 2.032 4.989 1.457 1.318 3.348 1.591 4.664 1.591.903-.005 1.499-.114 1.584-.144l3.206 3.206v2.436c0 .276.224.5.5.5s.5-.224.5-.5v-2.436l3.206-3.206c.084.031.681.139 1.584.144 1.316 0 3.207-.273 4.664-1.591 1.246-1.127 1.93-2.805 2.032-4.989.03-.646-.215-1.278-.673-1.736zm-15.399 7.228c-.687.103-3.407.376-5.198-1.244-1.041-.942-1.615-2.387-1.704-4.294-.018-.37.118-.719.381-.982.248-.249.572-.383.918-.383.021 0 .042 0 .063.001 1.907.089 3.352.663 4.294 1.704 1.62 1.791 1.346 4.51 1.244 5.198zm1.105-10.877c-.077-1.533.614-3.091 2.053-4.632.244-.261.579-.405.941-.405s.696.144.94.405c1.439 1.54 2.13 3.099 2.054 4.632-.13 2.596-2.428 4.448-2.995 4.866-.567-.416-2.864-2.26-2.994-4.866zm12.263 9.633c-1.792 1.621-4.511 1.347-5.198 1.244-.102-.688-.376-3.407 1.244-5.198.942-1.042 2.387-1.615 4.294-1.704.362-.022.718.118.982.381s.399.612.381.982c-.089 1.908-.663 3.353-1.704 4.294z"/></svg>