<?xml version="1.0" encoding="UTF-8"?>
<svg xmlns="http://www.w3.org/2000/svg" id="Layer_1" data-name="Layer 1" viewBox="0 0 24 24">
  <path d="M17.5,16.5c-1.379,0-2.5,1.122-2.5,2.5s1.121,2.5,2.5,2.5,2.5-1.122,2.5-2.5-1.121-2.5-2.5-2.5Zm0,4c-.827,0-1.5-.673-1.5-1.5s.673-1.5,1.5-1.5,1.5,.673,1.5,1.5-.673,1.5-1.5,1.5Zm3.287-6.471l-.904-1.36c-.278-.419-.746-.669-1.249-.669h-2.268c-.503,0-.971,.25-1.249,.669l-.904,1.36c-1.794,.149-3.213,1.64-3.213,3.471v3c0,1.93,1.57,3.5,3.5,3.5h6c1.93,0,3.5-1.57,3.5-3.5v-3c0-1.831-1.419-3.322-3.213-3.471Zm-4.421-1.029h2.268c.168,0,.323,.083,.417,.223l.517,.777h-4.135l.517-.777c.094-.14,.249-.223,.417-.223Zm6.634,7.5c0,1.378-1.121,2.5-2.5,2.5h-6c-1.379,0-2.5-1.122-2.5-2.5v-3c0-1.378,1.121-2.5,2.5-2.5h6c1.379,0,2.5,1.122,2.5,2.5v3ZM19.5,2h-7.028c-.231,0-.464-.055-.671-.158L8.646,.264c-.345-.172-.732-.264-1.118-.264h-3.028C2.019,0,0,2.019,0,4.5v13c0,2.481,2.019,4.5,4.5,4.5h4c.276,0,.5-.224,.5-.5s-.224-.5-.5-.5H4.5c-1.93,0-3.5-1.57-3.5-3.5V7H23v4.5c0,.276,.224,.5,.5,.5s.5-.224,.5-.5V6.5c0-2.481-2.019-4.5-4.5-4.5ZM1,4.5c0-1.93,1.57-3.5,3.5-3.5h3.028c.231,0,.464,.055,.671,.158l3.156,1.578c.345,.172,.732,.264,1.118,.264h7.028c1.758,0,3.204,1.308,3.449,3H1v-1.5Z"/>
</svg>
