<svg id="Layer_1" viewBox="0 0 24 24" xmlns="http://www.w3.org/2000/svg" data-name="Layer 1"><path d="m23.853 16.441c-.195-.195-.512-.195-.707 0l-1.389 1.405c-.425.427-.992.661-1.594.662-.601 0-1.167-.235-1.593-.661l-1.206-1.208.619-.619c1.353-1.354 1.353-3.555 0-4.909l-9.129-9.08c-1.211-1.212-3.096-1.33-4.45-.374l-2.394-1.435c-.509-.345-1.197-.283-1.632.155-.437.436-.501 1.123-.167 1.612l1.467 2.39c-.975 1.356-.863 3.257.355 4.476l9.186 9.146h-5.718c-.276 0-.5.224-.5.5s.224.5.5.5h6.723l.685.682-3.472 3.473c-.195.195-.195.512 0 .707.098.098.226.139.353.139s.256-.041.353-.139l6.513-6.514 1.205 1.208c.615.615 1.431.954 2.301.954h.001c.87 0 1.687-.341 2.302-.956l1.389-1.404c.093-.094.141-.215.145-.338.004-.133-.044-.268-.146-.369zm-6.577-4.622c.025.025.042.055.066.08l-2.369 2.369-2.75-2.708 2.391-2.391 2.663 2.649zm-16.225-10.373c-.077-.113-.062-.266.035-.362.096-.096.249-.112.387-.02l2.151 1.289-1.248 1.248zm1.689 6.7c-.963-.963-.963-2.531 0-3.495l1.913-1.913c.482-.481 1.114-.723 1.747-.723s1.266.241 1.748.724l5.756 5.726-5.41 5.41zm9.198 9.158-2.735-2.723 2.312-2.313 2.75 2.708zm1.678 1.671-.969-.965 5.217-5.218c.283.859.094 1.841-.588 2.522z"/></svg>