<svg id="Layer_1" viewBox="0 0 24 24" xmlns="http://www.w3.org/2000/svg" data-name="Layer 1"><path d="m19 5.99v-.49c0-3.033-2.468-5.5-5.5-5.5h-3c-3.032 0-5.5 2.467-5.5 5.5v.49c-3.13 2.042-5 5.462-5 9.207v8.303c0 .276.224.5.5.5s.5-.224.5-.5v-8.303c0-3.179 1.488-6.094 4-7.98v7.783c0 3.859 3.141 7 7 7s7-3.141 7-7v-7.783c2.512 1.886 4 4.802 4 7.98v8.303c0 .276.224.5.5.5s.5-.224.5-.5v-8.303c0-3.745-1.87-7.165-5-9.208zm-1 9.01c0 3.309-2.691 6-6 6s-6-2.691-6-6v-9.5c0-2.481 2.019-4.5 4.5-4.5h3c2.481 0 4.5 2.019 4.5 4.5zm-1.814-.464-1.943-.778-.778-1.943c-.15-.38-.777-.38-.928 0l-.776 1.938-1.937.733c-.191.072-.319.254-.323.459-.004.204.117.39.306.47l1.95.822.78 1.948c.075.19.26.314.464.314s.389-.124.464-.314l.778-1.943 1.943-.778c.19-.075.314-.26.314-.464s-.124-.389-.314-.464zm-2.514.858c-.127.051-.228.151-.278.278l-.394.982-.394-.982c-.049-.124-.146-.224-.27-.275l-.991-.418.974-.368c.131-.05.235-.152.287-.282l.394-.982.394.982c.051.127.151.228.278.278l.982.394-.982.394zm-3.136-6.208c.075.19.26.314.464.314s.389-.125.464-.314l.635-1.586 1.587-.635c.19-.076.314-.26.314-.464s-.124-.388-.314-.464l-1.587-.635-.635-1.586c-.15-.38-.777-.38-.928 0l-.633 1.582-1.58.598c-.191.073-.319.254-.323.458s.117.391.306.47l1.594.671.637 1.591zm-.073-2.933c.131-.05.235-.152.287-.282l.25-.624.25.624c.051.127.151.228.278.279l.625.25-.625.25c-.127.051-.228.152-.278.279l-.25.624-.25-.624c-.049-.124-.146-.223-.27-.275l-.634-.267.616-.233z"/></svg>