<?xml version="1.0" encoding="UTF-8"?>
<svg xmlns="http://www.w3.org/2000/svg" id="Layer_1" data-name="Layer 1" viewBox="0 0 24 24">
  <path d="M17.5,0c-1.93,0-3.5,1.57-3.5,3.5V20.5c0,1.93,1.57,3.5,3.5,3.5s3.5-1.57,3.5-3.5V3.5c0-1.93-1.57-3.5-3.5-3.5Zm2.5,20.5c0,1.379-1.122,2.5-2.5,2.5s-2.5-1.121-2.5-2.5V3.5c0-1.379,1.122-2.5,2.5-2.5s2.5,1.121,2.5,2.5V20.5ZM6.5,0c-1.93,0-3.5,1.57-3.5,3.5V20.5c0,1.93,1.57,3.5,3.5,3.5s3.5-1.57,3.5-3.5V3.5c0-1.93-1.57-3.5-3.5-3.5Zm2.5,20.5c0,1.379-1.122,2.5-2.5,2.5s-2.5-1.121-2.5-2.5V3.5c0-1.379,1.122-2.5,2.5-2.5s2.5,1.121,2.5,2.5V20.5Z"/>
</svg>
