<?xml version="1.0" encoding="UTF-8"?>
<svg xmlns="http://www.w3.org/2000/svg" id="Layer_1" data-name="Layer 1" viewBox="0 0 24 24">
  <path d="m12,17h-2v6.5c0,.276-.224.5-.5.5s-.5-.224-.5-.5v-6.5h-2c-.276,0-.5-.224-.5-.5s.224-.5.5-.5h5c.276,0,.5.224.5.5s-.224.5-.5.5Zm12-10.5v7c0,.276-.224.5-.5.5s-.5-.224-.5-.5v-4.5H1v10.5c0,1.93,1.57,3.5,3.5,3.5h2c.276,0,.5.224.5.5s-.224.5-.5.5h-2c-2.481,0-4.5-2.019-4.5-4.5V6.5C0,4.019,2.019,2,4.5,2h1.5V.5c0-.276.224-.5.5-.5s.5.224.5.5v1.5h10V.5c0-.276.224-.5.5-.5s.5.224.5.5v1.5h1.5c2.481,0,4.5,2.019,4.5,4.5Zm-1,0c0-1.93-1.57-3.5-3.5-3.5H4.5c-1.93,0-3.5,1.57-3.5,3.5v1.5h22v-1.5Zm-6.684,10.539l1.667,6.334c.07.267-.112.627-.484.627-.222,0-.424-.148-.483-.373l-.428-1.627h-3.177l-.428,1.627c-.07.267-.342.429-.611.356-.267-.07-.426-.344-.356-.611l1.667-6.334c.16-.607.688-1.015,1.316-1.015s1.157.408,1.316,1.015Zm.009,3.961l-.976-3.707c-.066-.25-.284-.27-.35-.27s-.284.019-.35.269l-.976,3.708h2.65Zm7.423-4.934c-.241-.139-.545-.054-.682.186l-1.566,2.74-1.566-2.74c-.138-.24-.442-.325-.682-.186-.24.137-.323.442-.186.682l1.858,3.252-1.858,3.252c-.137.24-.054.545.186.682.078.045.164.066.248.066.174,0,.342-.09.435-.252l1.566-2.74,1.566,2.74c.092.162.261.252.435.252.084,0,.169-.021.248-.066.24-.137.323-.442.186-.682l-1.858-3.252,1.858-3.252c.137-.24.054-.545-.186-.682Z"/>
</svg>
