<?xml version="1.0" encoding="UTF-8"?>
<svg xmlns="http://www.w3.org/2000/svg" id="Layer_1" data-name="Layer 1" viewBox="0 0 24 24">
  <path d="M18.018,5.018c0-1.053-.63-1.996-1.573-2.419-.033-1.438-1.213-2.599-2.659-2.599-.572,0-1.335,.336-1.785,.667-.45-.327-1.197-.667-1.766-.667-1.446,0-2.628,1.16-2.66,2.599-.943,.423-1.572,1.366-1.572,2.418,0,.334,.065,.664,.196,.982-.131,.318-.196,.648-.196,.982,0,.801,.364,1.553,.998,2.066,.025,1.632,1.361,2.952,3,2.952,.752,0,1.456-.277,2.003-.774,.543,.497,1.245,.774,1.997,.774,1.654,0,3-1.346,3.016-2.95,.637-.512,1.002-1.266,1.002-2.068,0-.333-.066-.663-.197-.982,.131-.319,.197-.649,.197-.982Zm-6.516,5.274c-.383,.446-.917,.708-1.502,.708-1.103,0-2-.897-1.991-2.079,0,0-.009-1.421,1.591-1.931,.271-.055,.445-.319,.391-.589-.055-.271-.318-.444-.59-.391-.99,.201-1.779,.9-2.156,1.807-.152-.252-.243-.536-.243-.835,0-.254,.064-.507,.19-.753,.074-.144,.074-.314,0-.458-.126-.246-.19-.499-.19-.753,0-.743,.506-1.399,1.23-1.595,.243-.065,.391-.364,.355-.614-.006-.049-.015-.097-.015-.148,0-.916,.745-1.661,1.661-1.661,.493,0,.953,.231,1.268,.609V10.292Zm5.324-4.063c.127,.247,.191,.5,.191,.753,0,.498-.229,.967-.625,1.286-.107,.084-.393,.31-.393,.732,0,1.103-.897,2-2,2-.585,0-1.119-.263-1.498-.712V1.626c.314-.389,.781-.626,1.283-.626,.898,0,1.689,.607,1.715,1.5,0,.6-.535,1.357-1.13,1.517-.267,.072-.425,.347-.353,.613,.06,.223,.262,.37,.482,.37,.885-.205,1.409-.736,1.708-1.385,.489,.295,.81,.817,.81,1.403,0,.253-.064,.507-.191,.753-.074,.144-.074,.314,0,.458Z"/>
  <path d="M21.5,6c-1.379,0-2.5,1.122-2.5,2.5v5.997c-.391-.294-.86-.466-1.359-.493-.663-.041-1.306,.188-1.808,.638l-2.734,2.516c-.43,.395-.793,.848-1.098,1.336-.306-.489-.669-.939-1.099-1.336l-2.739-2.52c-.497-.445-1.129-.676-1.803-.634-.5,.027-.969,.199-1.359,.493v-5.997c0-1.378-1.121-2.5-2.5-2.5S0,7.122,0,8.5v8.101c0,2.003,.78,3.887,2.196,5.303l1.95,1.95c.098,.098,.226,.146,.354,.146s.256-.049,.354-.146c.195-.195,.195-.512,0-.707l-1.95-1.95c-1.228-1.228-1.903-2.859-1.903-4.596V8.5c0-.827,.673-1.5,1.5-1.5s1.5,.673,1.5,1.5c0,0-.004,8.052,0,8.079,.02,.548,.226,1.095,.606,1.547l2.616,2.721c.098,.102,.229,.153,.36,.153,.125,0,.25-.046,.347-.14,.199-.191,.205-.508,.014-.707l-2.594-2.695c-.476-.566-.462-1.409,.032-1.96,.267-.298,.634-.475,1.032-.496,.397-.009,.782,.113,1.075,.376l2.734,2.516c.521,.479,.925,1.053,1.229,1.691-.291,.745-.452,1.542-.452,2.356v1.56c0,.276,.224,.5,.5,.5s.5-.224,.5-.5v-1.56c0-1.533,.647-3.009,1.776-4.047l2.729-2.512c.298-.267,.689-.389,1.08-.38,.398,.021,.766,.198,1.032,.496,.246,.274,.372,.621,.382,.967v.009c.007,.345-.102,.689-.327,.959l-2.616,2.721c-.191,.199-.186,.516,.014,.707,.198,.192,.516,.185,.707-.014l2.639-2.746c.375-.446,.571-.995,.584-1.546,.002-.019,0-8.055,0-8.055,0-.827,.673-1.5,1.5-1.5s1.5,.673,1.5,1.5v8.101c0,1.736-.676,3.368-1.903,4.596l-1.95,1.95c-.195,.195-.195,.512,0,.707,.098,.098,.226,.146,.354,.146s.256-.049,.354-.146l1.95-1.95c1.416-1.416,2.196-3.3,2.196-5.303V8.5c0-1.378-1.121-2.5-2.5-2.5Z"/>
</svg>
