<?xml version="1.0" encoding="UTF-8"?>
<svg xmlns="http://www.w3.org/2000/svg" id="Layer_1" data-name="Layer 1" viewBox="0 0 24 24">
  <path d="M21.75,8.603c-.241-.14-.545-.057-.683,.183-.139,.239-.057,.545,.182,.683,1.08,.624,1.75,1.786,1.75,3.032v2.5H9v-2.5c0-1.93,1.57-3.5,3.5-3.5h1.5c.276,0,.5-.224,.5-.5s-.224-.5-.5-.5h-1.5c-1.971,0-3.632,1.282-4.239,3.05-.551-.637-1.354-1.05-2.261-1.05-1.654,0-3,1.346-3,3,0,.771,.301,1.468,.78,2H1V5.5c0-.276-.224-.5-.5-.5s-.5,.224-.5,.5V23.5c0,.276,.224,.5,.5,.5s.5-.224,.5-.5v-3.5H23v3.5c0,.276,.224,.5,.5,.5s.5-.224,.5-.5V12.5c0-1.602-.862-3.096-2.25-3.897ZM4,13c0-1.103,.897-2,2-2s2,.897,2,2-.897,2-2,2-2-.897-2-2Zm-3,6v-3H23v3H1ZM8,4.5c0-.276,.224-.5,.5-.5h3.3c.209,0,.398-.132,.469-.329l1.044-2.87c.338-1.064,1.98-1.001,2.245,.079l1.872,6.991c.075,.176,.261,.176,.354,.01l1.01-2.878c.21-.6,.779-1.003,1.415-1.003h3.292c.276,0,.5,.224,.5,.5s-.224,.5-.5,.5h-3.292c-.212,0-.401,.135-.472,.335l-1.018,2.897c-.375,1.062-1.983,.981-2.253-.095l-1.872-6.991c-.064-.163-.261-.178-.341-.004l-1.043,2.87c-.214,.591-.781,.987-1.409,.987h-3.3c-.276,0-.5-.224-.5-.5Z"/>
</svg>
