<?xml version="1.0" encoding="UTF-8"?>
<svg xmlns="http://www.w3.org/2000/svg" id="Layer_1" data-name="Layer 1" viewBox="0 0 24 24">
  <path d="m18.17,4.122l1.301.351.325,1.3c.108.429.492.728.934.728s.825-.299.934-.729l.321-1.288,1.288-.32c.429-.108.728-.492.728-.934s-.3-.827-.729-.934l-1.287-.321-.322-1.287c-.103-.411-.478-.688-.933-.688s-.831.276-.934.688l-.318,1.275-1.274.294c-.432.101-.738.479-.745.921-.007.442.286.831.712.944Zm1.831-1.254c.183-.042.327-.184.373-.366l.319-1.572.394,1.578c.045.18.185.319.364.364l1.578.32-1.578.394c-.179.045-.319.185-.364.364l-.357,1.433-.359-1.438c-.044-.176-.18-.314-.355-.361l-1.586-.353,1.572-.363Zm3.161,11.961l-1.441-.531-.548-1.452c-.216-.647-.917-.998-1.569-.781-.367.124-.658.416-.773.764l-.548,1.456-1.437.542c-.313.104-.567.325-.715.621-.148.297-.171.633-.066.946.122.367.415.659.764.775l1.469.554.527,1.432c.122.365.413.657.782.782.13.043.262.063.392.063.518,0,1.001-.325,1.17-.831l.538-1.46,1.447-.533c.367-.123.66-.415.782-.782.105-.313.082-.649-.066-.946-.146-.293-.397-.513-.707-.618Zm-.175,1.248c-.023.07-.08.126-.165.155l-1.678.618c-.137.05-.246.158-.296.296l-.623,1.691c-.041.125-.174.192-.3.15-.072-.024-.128-.08-.157-.165l-.611-1.661c-.05-.136-.157-.244-.293-.295l-1.701-.641c-.07-.023-.126-.079-.15-.149-.027-.082-.003-.149.013-.183.017-.033.056-.093.156-.126l1.667-.629c.134-.051.241-.157.291-.292l.634-1.686c.023-.07.154-.162.224-.162.101,0,.196.066.234.181l.635,1.684c.051.136.159.242.294.292,0,0,1.672.617,1.677.619.081.026.121.086.137.119.016.033.04.101.013.183ZM4.828,5.169l1.469.554.527,1.432c.122.365.413.657.782.782.13.043.262.063.392.063.518,0,1.001-.325,1.17-.831l.538-1.46,1.447-.533c.367-.123.66-.415.782-.782.105-.313.082-.649-.066-.946-.146-.293-.397-.513-.707-.618l-1.441-.531-.548-1.452c-.216-.647-.918-.999-1.569-.781-.367.124-.658.416-.773.764l-.548,1.456-1.437.542c-.313.104-.567.325-.715.621-.148.297-.171.633-.066.946.122.367.415.659.764.775Zm.197-1.274c.017-.033.056-.093.156-.126l1.667-.629c.134-.051.241-.157.291-.292l.634-1.686c.023-.07.161-.162.224-.162.101,0,.196.066.234.181l.635,1.684c.051.136.159.242.294.292,0,0,1.672.617,1.677.619.081.026.121.086.137.119.016.033.04.101.013.183-.023.07-.08.126-.165.155l-1.678.618c-.137.05-.246.158-.296.296l-.623,1.691c-.041.124-.175.191-.3.15-.072-.024-.128-.08-.157-.165l-.611-1.661c-.05-.136-.157-.244-.293-.295l-1.701-.641c-.07-.023-.126-.079-.15-.149-.027-.082-.003-.149.013-.183Zm12.249,2.834c-.484-.484-1.128-.751-1.812-.751h-.002c-.685,0-1.329.268-1.813.753L.751,19.623c-.484.484-.751,1.128-.751,1.812s.267,1.329.751,1.813c.5.5,1.157.75,1.813.75s1.313-.25,1.813-.75l12.899-12.896c.998-1,.997-2.626-.002-3.625ZM3.67,22.542c-.609.609-1.601.609-2.212,0-.295-.295-.458-.688-.458-1.106s.163-.811.458-1.105l8.636-8.634,2.212,2.212L3.67,22.542Zm12.898-12.896l-3.556,3.555-2.212-2.212,3.553-3.552c.295-.297.688-.46,1.106-.46h0c.417,0,.81.163,1.105.458.609.609.61,1.602.001,2.211Z"/>
</svg>
