<svg id="Layer_1" viewBox="0 0 24 24" xmlns="http://www.w3.org/2000/svg" data-name="Layer 1"><path d="m10.501 23h-6c-1.93 0-3.5-1.57-3.5-3.5v-7c0-1.93 1.57-3.5 3.5-3.5.827 0 1.5-.673 1.5-1.5v-2.5h5.966l.025 2.515c.008.819.681 1.485 1.51 1.485 1.598 0 2.992 1.079 3.39 2.625.069.27.349.428.609.36.268-.069.428-.342.359-.609-.512-1.987-2.305-3.375-4.368-3.375-.273 0-.498-.222-.5-.495l-.025-2.552c1.157-.219 2.035-1.234 2.035-2.453 0-1.378-1.121-2.5-2.5-2.5h-7c-1.378 0-2.5 1.122-2.5 2.5 0 1.207.86 2.217 2 2.449v2.551c0 .276-.224.5-.5.5-2.483-.001-4.502 2.018-4.502 4.499v7c0 2.481 2.019 4.5 4.501 4.5h6c.276 0 .5-.224.5-.5s-.224-.5-.5-.5zm-6.5-20.5c0-.827.673-1.5 1.5-1.5h7c.827 0 1.5.673 1.5 1.5s-.673 1.5-1.5 1.5h-7c-.827 0-1.5-.673-1.5-1.5zm9 13.5c0 .276-.224.5-.5.5h-3v3c0 .276-.224.5-.5.5s-.5-.224-.5-.5v-3h-3c-.276 0-.5-.224-.5-.5s.224-.5.5-.5h3v-3c0-.276.224-.5.5-.5s.5.224.5.5v3h3c.276 0 .5.224.5.5zm10.04-2.04c-1.278-1.278-3.359-1.276-4.636 0l-4.444 4.444c-1.278 1.278-1.278 3.358 0 4.636.639.639 1.479.958 2.317.958s1.68-.319 2.318-.958l4.444-4.444c1.278-1.278 1.278-3.358 0-4.636zm-5.152 8.373c-.888.887-2.332.888-3.222 0-.884-.848-.884-2.374 0-3.222l1.93-1.93 3.222 3.222zm4.445-4.444-1.807 1.807-3.222-3.222 1.807-1.807c.888-.887 2.333-.888 3.222 0 .884.848.884 2.374 0 3.222z"/></svg>