<svg id="Layer_1" viewBox="0 0 24 24" xmlns="http://www.w3.org/2000/svg" data-name="Layer 1"><path d="m9 3h-1c-1.103 0-2 .897-2 2s.897 2 2 2v3c0 .551.449 1 1 1h.5c.276 0 .5-.224.5-.5s-.224-.5-.5-.5h-.5v-3c1.103 0 2-.897 2-2s-.897-2-2-2zm0 3h-1c-.551 0-1-.449-1-1s.449-1 1-1h1c.551 0 1 .449 1 1s-.449 1-1 1zm14.924 12.317c-.306-1.37-1.622-2.337-3.138-2.315-1.072.021-2.371.19-3.786.424v-8.426c0-1.828-1.266-3.405-3-3.857v-.643c0-1.93-1.57-3.5-3.5-3.5h-4c-1.93 0-3.5 1.57-3.5 3.5v.643c-1.734.451-3 2.029-3 3.857v15.5c0 .276.224.5.5.5s.5-.224.5-.5v-15.5c0-1.283.828-2.408 2-2.825v5.325c0 1.93 1.57 3.5 3.5 3.5h4c1.93 0 3.5-1.57 3.5-3.5v-5.325c1.172.417 2 1.542 2 2.825v8.597c-.673.119-1.364.247-2.068.378l-1.117.212c-1.764.338-3.587.688-5.36.786-.816.045-1.456.708-1.456 1.511-.015.836.691 1.499 1.519 1.515 1.7-.009 4.231-.071 6.572-.507.594-.111 1.228-.202 1.909-.274v3.283c0 .276.224.5.5.5s.5-.224.5-.5v-3.372c.385-.029.781-.054 1.196-.072.435 1.148 1.554 1.944 2.804 1.944.915 0 1.769-.411 2.342-1.127.573-.715.785-1.647.582-2.556zm-10.924-7.817c0 1.378-1.122 2.5-2.5 2.5h-4c-1.378 0-2.5-1.122-2.5-2.5v-7c0-1.378 1.122-2.5 2.5-2.5h4c1.378 0 2.5 1.122 2.5 2.5zm9.562 9.748c-.383.478-.952.752-1.562.752-.928 0-1.748-.66-1.949-1.568-.051-.229-.254-.392-.488-.392-.006 0-.012 0-.019 0-1.786.066-3.302.22-4.635.468-2.524.47-5.438.485-6.395.49-.267.027-.523-.246-.514-.515 0-.276.22-.497.511-.513 1.839-.101 3.697-.457 5.493-.802l1.111-.211c2.551-.475 4.96-.924 6.69-.957 1.067-.014 1.94.626 2.144 1.534.136.611-.004 1.235-.387 1.712z"/></svg>