<svg id="Layer_1" viewBox="0 0 24 24" xmlns="http://www.w3.org/2000/svg" data-name="Layer 1"><path d="m24 16.508c0 2.071-1.167 3.958-3 4.894v2.098c0 .276-.224.5-.5.5s-.5-.224-.5-.5v-2.414c0-.199.118-.378.299-.458 1.641-.718 2.701-2.335 2.701-4.12 0-1.338-.592-2.598-1.625-3.455-.195-.113-.337-.047-.375.176v2.172c0 1.274-.896 2.38-2.084 2.573-1.481.278-2.95-.962-2.916-2.466v-2.279c-.038-.223-.18-.289-.375-.176-1.032.857-1.625 2.117-1.625 3.455 0 1.785 1.06 3.402 2.701 4.12.182.08.299.259.299.458v2.414c0 .276-.224.5-.5.5s-.5-.224-.5-.5v-2.098c-1.833-.937-3-2.823-3-4.894 0-1.636.724-3.176 1.986-4.225.751-.672 2.051-.062 2.014.946v2.279c-.018.905.86 1.65 1.755 1.479.71-.115 1.245-.797 1.245-1.586v-2.172c-.037-1.008 1.263-1.617 2.014-.946 1.262 1.049 1.986 2.588 1.986 4.225zm-9.987-8.509c0 3.31-2.691 6.001-6 6.001s-6-2.691-6-6l-.002-1h-1.011c-.276 0-.5-.224-.5-.5s.224-.5.5-.5h1.01v-.491c-.067-2.959 2.539-5.57 5.499-5.509h1c3.028 0 5.495 2.463 5.5 5.491v.509h.992c.276 0 .5.224.5.5s-.224.5-.5.5h-.989l.002.999zm-11.003-1.999h9.999v-.507c-.004-1.952-1.266-3.6-3.009-4.219v2.226c0 .276-.224.5-.5.5s-.5-.224-.5-.5v-2.45c-.164-.018-.323-.05-.492-.05h-1c-.173 0-.34.031-.509.05v2.45c0 .276-.224.5-.5.5s-.5-.224-.5-.5v-2.225c-.621.221-1.196.565-1.676 1.045-.85.852-1.317 1.983-1.315 3.187v.493zm10.004 2-.002-1h-10.001l.002.999c0 2.758 2.243 5.001 5 5.001s5-2.243 5-5zm-2.347 7.451c-.851-.299-1.744-.451-2.653-.451-4.412 0-8.001 3.589-8.001 7.987l-.013.5c-.007.276.211.505.487.513h.013c.27 0 .493-.216.5-.487l.013-.513c0-3.86 3.14-7 7-7 .796 0 1.577.133 2.322.394.257.09.545-.045.637-.306.092-.26-.045-.546-.306-.637z"/></svg>