<?xml version="1.0" encoding="UTF-8"?>
<svg xmlns="http://www.w3.org/2000/svg" id="Layer_1" data-name="Layer 1" viewBox="0 0 24 24">
  <path d="M14,17h-4c-.827,0-1.5,.673-1.5,1.5v2c0,.827,.673,1.5,1.5,1.5h1.5v1h-.5c-.276,0-.5,.224-.5,.5s.224,.5,.5,.5h2c.276,0,.5-.224,.5-.5s-.224-.5-.5-.5h-.5v-1h1.5c.827,0,1.5-.673,1.5-1.5v-2c0-.827-.673-1.5-1.5-1.5Zm.5,3.5c0,.276-.225,.5-.5,.5h-4c-.275,0-.5-.224-.5-.5v-2c0-.276,.225-.5,.5-.5h4c.275,0,.5,.224,.5,.5v2Zm8-3.5h-4c-.827,0-1.5,.673-1.5,1.5v2c0,.827,.673,1.5,1.5,1.5h1.5v1h-.5c-.276,0-.5,.224-.5,.5s.224,.5,.5,.5h2c.276,0,.5-.224,.5-.5s-.224-.5-.5-.5h-.5v-1h1.5c.827,0,1.5-.673,1.5-1.5v-2c0-.827-.673-1.5-1.5-1.5Zm.5,3.5c0,.276-.225,.5-.5,.5h-4c-.275,0-.5-.224-.5-.5v-2c0-.276,.225-.5,.5-.5h4c.275,0,.5,.224,.5,.5v2ZM3.5,15.5c.276,0,.5-.224,.5-.5v-.5c0-.827,.673-1.5,1.5-1.5h6v2c0,.276,.224,.5,.5,.5s.5-.224,.5-.5v-2h6c.827,0,1.5,.673,1.5,1.5v.5c0,.276,.224,.5,.5,.5s.5-.224,.5-.5v-.5c0-1.378-1.121-2.5-2.5-2.5h-6v-2h1.5c3.089,0,3.874-1.751,3.988-3.221,.11-1.403-.63-2.729-1.884-3.376-.109-.056-.192-.16-.217-.271h0c-.268-1.208-1.095-2.241-2.212-2.762-1.171-.546-2.504-.49-3.752,.16-1.335,.695-1.928,2.334-1.924,3.651,0,.423-.104,.46-.166,.482-1.225,.432-1.97,1.636-1.812,2.928,.166,1.373,1.388,2.409,2.843,2.409h2.636v2H5.5c-1.379,0-2.5,1.122-2.5,2.5v.5c0,.276,.224,.5,.5,.5ZM7.014,7.471c-.1-.823,.374-1.59,1.152-1.864,.556-.195,.836-.676,.834-1.428-.003-.98,.43-2.263,1.386-2.761,.534-.277,1.083-.417,1.617-.417,.433,0,.855,.092,1.251,.276,.837,.39,1.456,1.165,1.657,2.071,.088,.399,.363,.752,.734,.944,.896,.462,1.425,1.408,1.347,2.409-.077,.987-.472,2.299-2.992,2.299h-5.136c-.934,0-1.747-.671-1.851-1.529Zm-1.514,9.529H1.5c-.827,0-1.5,.673-1.5,1.5v2c0,.827,.673,1.5,1.5,1.5h1.5v1h-.5c-.276,0-.5,.224-.5,.5s.224,.5,.5,.5h2c.276,0,.5-.224,.5-.5s-.224-.5-.5-.5h-.5v-1h1.5c.827,0,1.5-.673,1.5-1.5v-2c0-.827-.673-1.5-1.5-1.5Zm.5,3.5c0,.276-.225,.5-.5,.5H1.5c-.275,0-.5-.224-.5-.5v-2c0-.276,.225-.5,.5-.5H5.5c.275,0,.5,.224,.5,.5v2Z"/>
</svg>
