<?xml version="1.0" encoding="UTF-8"?>
<svg xmlns="http://www.w3.org/2000/svg" id="Layer_1" data-name="Layer 1" viewBox="0 0 24 24">
  <path d="m24,9.561v.939c0,.276-.224.5-.5.5s-.5-.224-.5-.5v-.939c0-1.164-.577-2.249-1.542-2.901L13.958,1.599c-1.189-.803-2.726-.803-3.915,0L2.542,6.659c-.966.652-1.542,1.737-1.542,2.901v9.939c0,1.93,1.57,3.5,3.5,3.5h7c.276,0,.5.224.5.5s-.224.5-.5.5h-7c-2.481,0-4.5-2.019-4.5-4.5v-9.939c0-1.497.741-2.892,1.983-3.729L9.483.771c1.53-1.032,3.506-1.032,5.034,0l7.5,5.061c1.242.838,1.983,2.232,1.983,3.729Zm0,8.939v2c0,1.93-1.57,3.5-3.5,3.5h-4c-1.93,0-3.5-1.57-3.5-3.5v-2c0-1.391.822-2.585,2-3.149v-1.851c0-1.93,1.57-3.5,3.5-3.5s3.5,1.57,3.5,3.5v1.851c1.178.564,2,1.758,2,3.149Zm-8-3.449c.165-.024.329-.051.5-.051h4c.171,0,.335.027.5.051v-1.551c0-1.379-1.122-2.5-2.5-2.5s-2.5,1.121-2.5,2.5v1.551Zm7,3.449c0-1.379-1.122-2.5-2.5-2.5h-4c-1.378,0-2.5,1.121-2.5,2.5v2c0,1.379,1.122,2.5,2.5,2.5h4c1.378,0,2.5-1.121,2.5-2.5v-2Zm-4.5,0c-.552,0-1,.448-1,1s.448,1,1,1,1-.448,1-1-.448-1-1-1Z"/>
</svg>
