<svg id="Layer_1" viewBox="0 0 24 24" xmlns="http://www.w3.org/2000/svg" data-name="Layer 1"><path d="m21.418 8.242c-.755-1.383-2.248-2.242-3.896-2.242h-3.272l1.442-3.462c.39-.935 1.295-1.538 2.308-1.538h3.5c.276 0 .5-.224.5-.5s-.224-.5-.5-.5h-3.5c-1.417 0-2.686.845-3.231 2.153l-1.602 3.847h-6.689c-1.647 0-3.141.859-3.896 2.242-1.035 1.894-1.582 4.058-1.582 6.258 0 2.95.97 5.675 2.803 7.879.858 1.03 2.122 1.621 3.469 1.621h9.457c1.347 0 2.61-.591 3.469-1.622 1.833-2.203 2.803-4.928 2.803-7.878 0-2.2-.547-4.364-1.582-6.258zm-17.959.479c.58-1.062 1.736-1.721 3.019-1.721h11.045c1.282 0 2.438.659 3.019 1.721.383.702.673 1.452.908 2.221-.727.121-1.474-.04-2.086-.475-.828-.59-1.897-.59-2.724 0-.971.688-2.308.688-3.276 0-.828-.59-1.897-.59-2.724 0-.971.688-2.308.688-3.276 0-.828-.59-1.897-.59-2.724 0-.613.434-1.359.596-2.087.475.235-.769.524-1.519.908-2.221zm15.969 13.018c-.667.802-1.65 1.262-2.699 1.262h-.743c1.949-2.73 2.013-5.372 2.015-5.493.004-.276-.218-.503-.493-.507h-.007c-.273 0-.496.22-.5.493 0 .029-.067 2.832-2.273 5.507h-2.354c1.588-2.448 1.626-4.411 1.626-4.5 0-.275-.223-.498-.498-.499h-.002c-.274 0-.498.223-.5.497 0 .02-.045 2.064-1.833 4.502h-3.896c-1.049 0-2.032-.46-2.699-1.261-1.683-2.022-2.572-4.525-2.572-7.239 0-.88.112-1.748.297-2.597 1.012.193 2.07-.016 2.921-.622.475-.338 1.089-.338 1.565 0 1.303.928 3.13.928 4.435 0 .475-.338 1.089-.338 1.565 0 1.303.928 3.13.928 4.435 0 .475-.338 1.089-.338 1.565 0 .651.464 1.439.719 2.217.719.237 0 .472-.031.707-.077.182.843.293 1.705.293 2.577 0 2.714-.89 5.217-2.572 7.238z"/></svg>