<svg id="Layer_1" viewBox="0 0 24 24" xmlns="http://www.w3.org/2000/svg" data-name="Layer 1"><path d="m13 6c-2.206 0-4 1.794-4 4v4c0 2.206 1.794 4 4 4s4-1.794 4-4v-4c0-2.206-1.794-4-4-4zm3 8c0 1.654-1.346 3-3 3s-3-1.346-3-3v-4c0-1.654 1.346-3 3-3s3 1.346 3 3zm-12-8c-2.206 0-4 1.794-4 4s1.794 4 4 4c1.201 0 2.266-.542 3-1.382v.882c0 1.93-1.57 3.5-3.5 3.5h-2c-.276 0-.5.224-.5.5s.224.5.5.5h2c2.481 0 4.5-2.019 4.5-4.5v-3.5c0-2.206-1.794-4-4-4zm0 7c-1.654 0-3-1.346-3-3s1.346-3 3-3 3 1.346 3 3-1.346 3-3 3zm19.946 3.056c-.183 1.127-1.162 1.944-2.329 1.944-.878 0-1.946-.551-2.473-1.084-.194-.196-.192-.513.004-.707.196-.195.513-.191.707.004.414.419 1.237.787 1.762.787.674 0 1.238-.465 1.343-1.104.037-.229.076-1.007-.976-1.432-.111-.042-1.208-.457-1.699-.763-.672-.474-.978-1.163-.88-1.917.104-.783.627-1.421 1.365-1.665.902-.298 1.822-.046 2.736.746.209.181.231.497.051.705-.181.209-.497.231-.705.051-.647-.562-1.21-.737-1.769-.553-.371.123-.634.447-.687.846-.05.38.103.717.427.948.335.204 1.214.554 1.523.67 1.395.563 1.731 1.711 1.599 2.523zm-4.946-7.556c0 .276-.224.5-.5.5s-.5-.224-.5-.5v-2c0-.276.224-.5.5-.5s.5.224.5.5z"/></svg>