<svg id="Layer_1" viewBox="0 0 24 24" xmlns="http://www.w3.org/2000/svg" data-name="Layer 1"><path d="m23.299 11.401c-.377-.502-.872-.867-1.426-1.104.074-.287.125-.576.125-.856 0-.981-.37-1.887-1.017-2.611.652-.69 1.017-1.583 1.017-2.538 0-.456-.079-.938-.217-1.323-.171-.476-.566-.825-1.057-.935-.485-.109-.985.036-1.291.348-.295.232-.465.547-.525.881-.741-.784-1.786-1.265-2.908-1.265-.201 0-.403.019-.62.057-.662-1.262-1.947-2.057-3.38-2.057s-2.718.794-3.38 2.057c-.216-.038-.418-.057-.619-.057-.855 0-1.644.275-2.295.734-.986-.732-2.307-.93-3.46-.517-.476.171-.825.566-.935 1.057-.108.485.037.985.388 1.336l.15.15c.356.356.888.461 1.423.277.288-.101.625 0 .801.254-.069.363-.092.748-.05 1.122-1.239.706-2.021 2.02-2.021 3.445 0 .159.027.311.047.466-.522.239-.987.597-1.347 1.075-.664.884-.869 1.998-.562 3.056.771 2.659 1.812 4.174 3.853 6.564 1.617 1.893 3.972 2.979 6.459 2.979h3.127c2.497 0 4.857-1.092 6.474-2.996 2.005-2.36 3.03-3.865 3.809-6.546.308-1.058.103-2.172-.561-3.056zm-3.8-5.901c.542-.337.548-1.259.402-1.843-.094-.248.054-.412.194-.527.334-.231.54-.18.745.178.098.272.159.65.159.985 0 .723-.282 1.403-.793 1.914s-1.191.793-1.914.793c-.335 0-.712-.061-.985-.159-.358-.206-.408-.41-.178-.745.121-.17.351-.288.543-.188.621.211 1.374.045 1.826-.408zm-16.551-1.408c-.159.095-.43-.012-.543-.188-.156-.156-.135-.339-.119-.411.017-.075.079-.256.297-.334.781-.281 1.665-.16 2.366.286-.212.253-.395.528-.54.829-.43-.273-.959-.352-1.46-.182zm1.827 3.061c.213-.096.331-.326.285-.555-.04-.199-.061-.399-.061-.597 0-1.654 1.346-3 3-3 .234 0 .48.037.774.116.247.065.502-.062.595-.3.435-1.104 1.467-1.816 2.63-1.816s2.196.713 2.63 1.816c.093.236.348.365.595.3.294-.079.541-.116.775-.116 1.203 0 2.284.736 2.751 1.822-.191.159-.508.223-.755.139-.623-.218-1.192-.025-1.573.428-.352.352-.497.851-.388 1.336.11.491.459.887.934 1.058.385.138.867.217 1.323.217.688 0 1.341-.197 1.914-.545.505.546.793 1.238.793 1.986 0 .196-.037.401-.09.606-.137-.016-.271-.047-.411-.047h-2.999c-.827 0-1.5.673-1.5 1.5v3.5c0 .551-.449 1-1 1s-1-.449-1-1c0 0-.008-5.531-.01-5.548.026-.471-.208-.906-.564-1.214-.355-.355-.886-.458-1.423-.277-.26.09-.584.018-.771-.168-.184-.184-.258-.534-.168-.797.217-.621.025-1.193-.428-1.573-.351-.352-.851-.499-1.336-.388-.491.11-.887.459-1.057.935-.138.385-.217.867-.217 1.323 0 .991.386 1.921 1.086 2.621.264.264.568.467.889.638v2.448c0 .551-.449 1-1 1s-1-.449-1-1v-1.5c0-.827-.673-1.5-1.5-1.5h-2.994c-.165 0-.322.034-.483.056-.123-1.22.629-2.395 1.755-2.903zm5.75 1.347c.456.456 1.18.621 1.801.408.158-.094.43.012.543.188.231.335.181.539-.178.745-.281.101-.63.159-.959.159-.723 0-1.403-.282-1.914-.793s-.793-1.191-.793-1.914c0-.335.061-.712.159-.985.188-.368.467-.395.745-.178.177.113.284.386.188.543-.212.623-.045 1.374.408 1.827zm12.375 5.679c-.727 2.505-1.702 3.931-3.61 6.178-1.427 1.68-3.509 2.644-5.712 2.644h-3.127c-2.195 0-4.271-.958-5.698-2.628-1.983-2.322-2.929-3.696-3.654-6.193-.218-.753-.072-1.546.401-2.177.478-.637 1.208-1.002 2.003-1.002h2.997c.276 0 .5.224.5.5v1.5c0 1.103.897 2 2 2s2-.897 2-2v-2.072c.239.048.484.072.732.072.435 0 .883-.076 1.267-.21v4.21c0 1.103.897 2 2 2s2-.897 2-2v-3.5c0-.276.224-.5.5-.5h2.999c.794 0 1.524.365 2.002 1.001.473.631.62 1.424.401 2.177z"/></svg>