<svg id="Layer_1" viewBox="0 0 24 24" xmlns="http://www.w3.org/2000/svg" data-name="Layer 1"><path d="m12 .5c0-.276.224-.5.5-.5h4.5c2.206 0 4 1.794 4 4v2.593l2.147-2.119c.199-.191.515-.189.707.009.193.197.189.514-.008.707l-2.499 2.462c-.442.463-1.249.45-1.696-.004l-2.48-2.421c-.197-.193-.201-.51-.008-.707s.51-.201.707-.009l2.131 2.08v-2.591c0-1.654-1.346-3-3-3h-4.5c-.276 0-.5-.224-.5-.5zm-12 5.5c0-3.309 2.691-6 6-6s6 2.691 6 6-2.691 6-6 6-6-2.691-6-6zm1 0c0 2.757 2.243 5 5 5s5-2.243 5-5-2.243-5-5-5-5 2.243-5 5zm6.05 2h-2.061c-.293 0-.537-.235-.566-.547-.026-.275-.264-.472-.545-.451-.275.026-.477.27-.451.545.078.828.75 1.453 1.562 1.453h.511v.5c0 .276.224.5.5.5s.5-.224.5-.5v-.5h.55c.865 0 1.569-.722 1.569-1.608 0-.712-.466-1.347-1.154-1.551l-2.574-.646c-.246-.073-.417-.314-.417-.586 0-.335.255-.608.569-.608h1.976c.293 0 .537.235.566.547.026.274.268.478.545.451.275-.026.477-.27.451-.545-.078-.828-.75-1.453-1.562-1.453h-.518v-.5c0-.276-.224-.5-.5-.5s-.5.224-.5.5v.5h-.458c-.865 0-1.569.722-1.569 1.608 0 .712.466 1.347 1.154 1.551l2.574.646c.246.073.417.314.417.586 0 .335-.255.608-.569.608zm14.322 3.002c-.67.032-1.288.322-1.739.818l-3.742 4.112c-.312-1.111-1.324-1.933-2.534-1.933h-9.857c-1.93 0-3.5 1.57-3.5 3.5v6c0 .276.224.5.5.5s.5-.224.5-.5v-6c0-1.378 1.122-2.5 2.5-2.5h9.857c.905 0 1.643.737 1.643 1.642 0 .812-.606 1.511-1.398 1.624l-6.161.737c-.274.033-.47.282-.437.556s.274.474.556.437l6.173-.739c1.016-.145 1.827-.874 2.132-1.811.002-.002.004-.003.006-.004l4.503-4.948c.271-.298.643-.473 1.046-.492s.79.12 1.088.393c.609.555.658 1.506.11 2.122l-6.807 7.639c-.305.343-.643.665-1.003.956-.216.173-.249.488-.075.703.174.216.49.248.702.075.404-.325.782-.686 1.123-1.07l6.806-7.639c.911-1.022.829-2.604-.183-3.526-.496-.452-1.141-.676-1.809-.652zm-6.06-1.314-.327-1.31c-.111-.444-.859-.444-.971 0l-.327 1.31-1.309.327c-.223.056-.379.255-.379.485s.156.429.379.485l1.309.327.327 1.31c.056.222.256.378.485.378s.43-.156.485-.378l.327-1.31 1.309-.327c.223-.056.379-.255.379-.485s-.156-.429-.379-.485l-1.309-.327z"/></svg>