<?xml version="1.0" encoding="UTF-8"?>
<svg xmlns="http://www.w3.org/2000/svg" id="Layer_1" data-name="Layer 1" viewBox="0 0 24 24">
  <path d="M19.343,11.026h-2.343v-3.526c0-1.916-1.574-3.474-3.508-3.474h-2.992c-1.935,0-3.509,1.559-3.509,3.475l.008,3.525h-2.342c-1.096,.003-2.036,.635-2.453,1.647s-.194,2.123,.562,2.877l6.589,7.379c.728,.727,1.682,1.091,2.639,1.091,.964,0,1.931-.369,2.672-1.11l6.56-7.349c.766-.772,.985-1.877,.57-2.885-.417-1.013-1.355-1.645-2.453-1.65Zm1.165,3.839c-.006,.007-6.569,7.358-6.569,7.358-1.069,1.067-2.807,1.067-3.857,.02L3.493,14.864c-.579-.578-.567-1.314-.363-1.81,.204-.496,.713-1.025,1.529-1.028h2.841c.133,0,.26-.053,.354-.147,.094-.094,.146-.221,.146-.354l-.009-4.025c0-1.364,1.125-2.474,2.509-2.474h2.992c1.383,0,2.508,1.11,2.508,2.474v4.026c0,.276,.224,.5,.5,.5h2.841c.817,.004,1.326,.535,1.53,1.031,.204,.496,.215,1.231-.363,1.809Zm3.492-10.365v4c0,.276-.224,.5-.5,.5s-.5-.224-.5-.5V4.5c0-1.93-1.57-3.5-3.5-3.5H4.5c-1.93,0-3.5,1.57-3.5,3.5v4c0,.276-.224,.5-.5,.5s-.5-.224-.5-.5V4.5C0,2.019,2.019,0,4.5,0h15c2.481,0,4.5,2.019,4.5,4.5Z"/>
</svg>
