<svg id="Layer_1" viewBox="0 0 24 24" xmlns="http://www.w3.org/2000/svg" data-name="Layer 1"><path d="m17 9.5c0-1.528.241-2.234.496-2.981.248-.726.504-1.477.504-2.906 0-1.144-.97-1.553-1.538-1.613-.494-.001-1.873-.169-2.313-.912-.397-.67-1.272-1.088-2.149-1.088-1 0-1.733.368-2.149 1.089-.44.743-1.819.911-2.343.913-.606.037-1.508.478-1.507 1.569.079 1.413.321 2.154.556 2.871.25.761.485 1.48.52 3.07.012.557-.156 1.031-.37 1.631-.315.887-.708 1.992-.708 3.858v.5c0 1.379 1.122 2.5 2.5 2.5h3v4.026c-2.05.129-4.101.974-4.194 1.013-.254.107-.374.4-.267.655.081.19.266.306.461.306.238.007 2.309-.996 4.5-1 2.114 0 4.275.947 4.297.957.254.113.548 0 .66-.254.112-.253-.001-.548-.254-.66-.089-.039-2.057-.894-4.203-1.018v-4.025h3c1.378 0 2.5-1.121 2.5-2.5v-.5c0-1.882-.362-2.989-.652-3.878-.194-.595-.348-1.064-.348-1.622zm0 6c0 .827-.673 1.5-1.5 1.5h-7c-.827 0-1.5-.673-1.5-1.5v-.5c0-1.694.345-2.665.65-3.523.228-.642.443-1.248.427-1.988-.039-1.738-.309-2.562-.57-3.359-.225-.686-.437-1.333-.507-2.587 0-.448.401-.529.539-.542.096 0 2.351-.016 3.172-1.402.218-.369.763-.598 1.289-.598.5 0 1.055.179 1.289.598.82 1.385 3.073 1.4 3.112 1.399.141.019.599.118.599.617 0 1.263-.219 1.904-.451 2.583-.257.754-.549 1.609-.549 3.304 0 .717.193 1.308.397 1.933.282.865.603 1.845.603 3.567v.5z"/></svg>