<svg id="Layer_1" viewBox="0 0 24 24" xmlns="http://www.w3.org/2000/svg" data-name="Layer 1"><path d="m23.013 7.687c.637.794.987 1.793.987 2.813v9c0 2.481-2.019 4.5-4.5 4.5h-15c-2.481 0-4.5-2.019-4.5-4.5v-9c0-2.481 2.019-4.5 4.5-4.5h6c.276 0 .5.224.5.5s-.224.5-.5.5h-6c-1.758 0-3.204 1.308-3.449 3h7.449c.276 0 .5.224.5.5s-.224.5-.5.5h-7.5v2h7.5c.276 0 .5.224.5.5s-.224.5-.5.5h-7.5v5.5c0 1.93 1.57 3.5 3.5 3.5h15c1.93 0 3.5-1.57 3.5-3.5v-5.5h-5.5c-.276 0-.5-.224-.5-.5s.224-.5.5-.5h5.5v-2h-2.5c-.276 0-.5-.224-.5-.5s.224-.5.5-.5h2.458c-.087-.616-.33-1.193-.726-1.687-.173-.216-.138-.53.077-.703.217-.171.532-.137.703.077zm-18.071 9.313c1.103 0 2 .897 2 2s-.897 2-2 2-2-.897-2-2 .897-2 2-2zm0 1c-.551 0-1 .449-1 1s.449 1 1 1 1-.449 1-1-.449-1-1-1zm6.058-7.086c0-.935.364-1.814 1.025-2.475l7.707-7.707c.943-.944 2.592-.944 3.535 0 .97.93.97 2.606 0 3.535l-7.707 7.707c-.661.661-1.54 1.025-2.475 1.025h-1.586c-.276 0-.5-.224-.5-.5v-1.586zm1 1.086h1.086c.668 0 1.295-.26 1.768-.732l7.707-7.707c.582-.558.582-1.563 0-2.121-.566-.566-1.555-.566-2.121 0l-7.707 7.707c-.472.472-.732 1.1-.732 1.768v1.086z"/></svg>