<?xml version="1.0" encoding="UTF-8"?>
<svg xmlns="http://www.w3.org/2000/svg" id="Layer_1" data-name="Layer 1" viewBox="0 0 24 24">
  <path d="M16.618,15.911c.006-1.018-.297-2.085-.489-3.067-.132-.544,.031-1.127,.427-1.522l1.678-1.678c.324-.321,.9-.368,1.218-.03,.941,.972,2.437,1.14,3.473,.393,.631-.455,1.028-1.154,1.09-1.92,.062-.766-.215-1.517-.758-2.059L18.052,.824c-.942-.943-2.424-1.098-3.442-.363-.631,.454-1.028,1.154-1.09,1.919-.062,.766,.214,1.517,.757,2.06,.404,.335,.459,.951,.08,1.327l-1.687,1.686c-.402,.402-.996,.562-1.54,.423-.978-.269-2.02-.509-3.041-.494L.854,.146C.658-.049,.342-.049,.146,.146S-.049,.658,.146,.854L23.146,23.854c.195,.195,.512,.195,.707,0s.195-.512,0-.707l-7.235-7.235Zm-6.605-7.289l.869,.222c.888,.228,1.845-.034,2.495-.684l1.687-1.687c.767-.762,.721-2.021-.08-2.741-.702-.674-.602-1.91,.21-2.46,.627-.452,1.553-.341,2.151,.258l5.204,5.204c.702,.674,.602,1.91-.209,2.46-.638,.459-1.572,.34-2.172-.277-.688-.733-1.944-.71-2.642,.019l-1.678,1.678c-.641,.64-.905,1.585-.695,2.448,.085,.441,.283,1.302,.351,1.735l-6.339-6.339c.284,.041,.568,.091,.847,.163Zm5.384,9.958c.168,.22,.127,.533-.092,.701-.573,.439-1.343,.717-2.194,.717-1.072,0-2.276-.439-3.384-1.547l-1.705-1.765L.854,23.854c-.195,.195-.512,.195-.707,0s-.195-.512,0-.707l7.18-7.18-2.238-2.317c-1.345-1.345-1.45-3.482-.237-4.966,.175-.214,.49-.244,.703-.071,.214,.175,.245,.49,.07,.704-.753,.922-.947,2.508,.177,3.632l4.639,4.801c1.553,1.554,3.296,1.475,4.256,.738,.217-.17,.531-.127,.701,.092Z"/>
</svg>
