<?xml version="1.0" encoding="UTF-8"?>
<svg xmlns="http://www.w3.org/2000/svg" id="Layer_1" data-name="Layer 1" viewBox="0 0 24 24">
  <path d="m19.5,4h-1.551c-.252-2.244-2.139-4-4.449-4H4.5C2.019,0,0,2.019,0,4.5v13.855c0,.609.333,1.166.871,1.453.244.13.511.195.777.195.319,0,.638-.093.914-.277l3.526-2.351c.409,2.063,2.23,3.625,4.412,3.625h6.849l4.089,2.726c.276.184.594.277.914.277.266,0,.533-.065.777-.195.537-.287.871-.844.871-1.453v-13.855c0-2.481-2.019-4.5-4.5-4.5ZM2.007,18.894c-.203.135-.45.147-.665.032-.214-.115-.342-.328-.342-.571V4.5c0-1.93,1.57-3.5,3.5-3.5h9c1.93,0,3.5,1.57,3.5,3.5v8c0,1.93-1.57,3.5-3.5,3.5h-7c-.092,0-.174.032-.248.075-.009.005-.021.003-.03.009l-4.215,2.81Zm20.993,3.461c0,.243-.128.457-.342.571-.214.114-.463.102-.665-.032l-4.215-2.81c-.082-.055-.179-.084-.277-.084h-7c-1.758,0-3.204-1.308-3.449-3h6.449c2.481,0,4.5-2.019,4.5-4.5v-7.5h1.5c1.93,0,3.5,1.57,3.5,3.5v13.855Zm-14-8.855c.508,0,1.017-.07,1.511-.211l2.676-.765c1.068-.305,1.813-1.293,1.813-2.404v-3.945c0-.792-.362-1.519-.994-1.996-.632-.477-1.432-.625-2.192-.408l-1.812.518c-.399.114-.744.344-1.002.646-.258-.302-.603-.531-1.002-.646l-1.811-.518c-.76-.217-1.56-.068-2.192.408-.632.477-.994,1.205-.994,1.996v3.945c0,1.11.746,2.099,1.813,2.404l2.676.765c.494.141,1.002.211,1.511.211Zm.5-7.22c0-.476.319-.899.777-1.03l1.811-.518c.138-.04.277-.059.416-.059.321,0,.635.104.899.304.379.286.597.723.597,1.198v3.945c0,.666-.447,1.259-1.088,1.442l-2.676.765c-.242.069-.488.118-.736.146v-6.192Zm-5.5,3.84v-3.945c0-.475.217-.912.597-1.198.265-.2.579-.304.899-.304.138,0,.278.02.416.059l1.811.518c.458.131.777.554.777,1.03v6.192c-.248-.028-.494-.076-.736-.146l-2.676-.765c-.641-.183-1.088-.776-1.088-1.442Z"/>
</svg>
