<?xml version="1.0" encoding="UTF-8"?>
<svg xmlns="http://www.w3.org/2000/svg" id="Layer_1" data-name="Layer 1" viewBox="0 0 24 24">
  <path d="M23.5,17h-.5v-2c0-1.103-.897-2-2-2-.366,0-.705,.106-1,.278v-.278c0-1.103-.897-2-2-2s-2,.897-2,2v4H8v-4c0-1.103-.897-2-2-2s-2,.897-2,2v.278c-.295-.172-.634-.278-1-.278-1.103,0-2,.897-2,2v2H.5c-.276,0-.5,.224-.5,.5s.224,.5,.5,.5h.5v2c0,1.103,.897,2,2,2,.366,0,.705-.106,1-.278v.278c0,1.103,.897,2,2,2s2-.897,2-2v-4h8v4c0,1.103,.897,2,2,2s2-.897,2-2v-.278c.295,.172,.634,.278,1,.278,1.103,0,2-.897,2-2v-2h.5c.276,0,.5-.224,.5-.5s-.224-.5-.5-.5ZM3,21c-.551,0-1-.448-1-1v-5c0-.552,.449-1,1-1s1,.448,1,1v5c0,.552-.449,1-1,1Zm4,1c0,.552-.449,1-1,1s-1-.448-1-1V13c0-.552,.449-1,1-1s1,.448,1,1v9Zm12,0c0,.552-.449,1-1,1s-1-.448-1-1V13c0-.552,.449-1,1-1s1,.448,1,1v9Zm3-2c0,.552-.449,1-1,1s-1-.448-1-1v-5c0-.552,.449-1,1-1s1,.448,1,1v5ZM8.923,9h2.383l-.75,2.246c-.188,.66,.114,1.325,.734,1.618,.195,.092,.398,.136,.597,.136,.435,0,.851-.211,1.118-.6l4.258-6.231c.286-.431,.312-.979,.069-1.431-.244-.455-.72-.738-1.24-.738h-2.388l.694-1.975c.176-.459,.116-.974-.161-1.376-.279-.407-.743-.649-1.24-.649h-1.894c-.642,0-1.212,.401-1.418,.998l-2.125,6.155c-.133,.438-.051,.9,.223,1.271,.271,.366,.687,.576,1.139,.576Zm-.411-1.539L10.632,1.324c.068-.197,.253-.324,.473-.324h1.894c.17,0,.321,.078,.416,.216,.091,.133,.11,.297,.046,.464l-.933,2.654c-.054,.153-.03,.323,.063,.455s.246,.211,.408,.211h3.093c.222,0,.325,.147,.359,.211,.034,.062,.098,.226-.017,.399l-4.253,6.224c-.166,.242-.397,.156-.464,.126-.067-.032-.279-.157-.206-.418l.962-2.884c.051-.152,.025-.32-.068-.45-.094-.131-.245-.208-.406-.208h-3.077c-.132,0-.255-.062-.336-.172-.083-.113-.109-.254-.075-.367Z"/>
</svg>
