<svg id="Layer_1" viewBox="0 0 24 24" xmlns="http://www.w3.org/2000/svg" data-name="Layer 1"><path d="m23.6 1.51c-.487-.827-1.3-1.369-2.229-1.486-.933-.118-1.841.195-2.499.854l-.269.268c-.196.195-.196.511-.002.707.195.196.512.195.707 0l.27-.268c.44-.44 1.049-.649 1.667-.57.62.079 1.165.444 1.494 1.002.352.596.352 1.368 0 1.964-.359.609-.958.979-1.643 1.015-1.911.1-3.779.97-5.26 2.451l-4.227 4.235c-1.036-.929-2.63-.905-3.626.091l-7.004 7.005c-1.134 1.133-1.269 2.939-.308 4.114.54.659 1.328 1.104 2.179 1.104.842 0 1.674-.276 2.271-.875l7.105-7.104c.995-.996 1.019-2.59.09-3.627l4.227-4.235c1.306-1.305 2.94-2.072 4.605-2.159 1.01-.053 1.927-.616 2.451-1.506.533-.905.533-2.075 0-2.98zm-12.081 13.8-7.105 7.104c-.399.399-.953.6-1.514.584-.572-.029-1.088-.291-1.455-.738-.64-.782-.534-2 .241-2.774l7.004-7.004c.641-.64 1.683-.64 2.323 0l.505.505c.64.641.64 1.683 0 2.323z"/></svg>