<svg id="Layer_1" viewBox="0 0 24 24" xmlns="http://www.w3.org/2000/svg" data-name="Layer 1"><path d="m10 14.75c0-.073.028.062 0 0zm12.5-11.75c-.276 0-.5.224-.5.5v3.327c-1.836-3.33-5.51-5.625-9.477-5.814-.269-.037-.509.199-.522.476-.014.275.199.51.476.522 3.892.187 7.467 2.587 8.984 5.989h-3.961c-.276 0-.5.224-.5.5s.224.5.5.5h4c.827 0 1.5-.673 1.5-1.5v-4c0-.276-.224-.5-.5-.5zm-19 8c-1.379 0-2.5-1.121-2.5-2.5v-6c0-1.379 1.121-2.5 2.5-2.5h2.172c.668 0 1.295.26 1.768.732l1.828 1.828c.473.473.732 1.1.732 1.768v4.172c0 1.379-1.121 2.5-2.5 2.5zm3.5-8h1.293l-1.293-1.293zm-3.5 7h4c.827 0 1.5-.673 1.5-1.5v-4.172c0-.111-.016-.221-.04-.328h-1.96c-.552 0-1-.448-1-1v-1.96c-.108-.024-.217-.04-.328-.04h-2.172c-.827 0-1.5.673-1.5 1.5v6c0 .827.673 1.5 1.5 1.5zm6.5 4.75v7.583c0 1.151-2.009 1.667-4 1.667s-4-.516-4-1.667v-7.583c0-1.314 2.084-1.723 4-1.75 1.81 0 4 .462 4 1.75zm-6.998 0c.088.216 1.103.75 2.998.75 1.922 0 2.938-.55 3.001-.759-.062-.191-1.079-.741-3.001-.741-1.896 0-2.91.534-2.998.75zm-.002 2.562c.117.204 1.142.688 3 .688 1.876 0 2.902-.493 3.002-.694v-1.361c-.783.372-1.909.555-3.002.555s-2.218-.183-3-.554zm0 2.5c.117.204 1.142.688 3 .688 1.881 0 2.908-.496 3.003-.695v-1.322c-.771.347-1.884.517-3.003.517s-2.23-.169-3-.516zm6.005 2.491v-1.321c-.771.348-1.884.518-3.005.518s-2.23-.169-3-.516v1.349c.086.168 1.114.667 3 .667s2.914-.499 3.005-.697zm12.995-7.553c.028.062 0-.073 0 0zm0 0v7.583c0 1.151-2.009 1.667-4 1.667s-4-.516-4-1.667v-7.583c0-1.263 2.084-1.723 4-1.75 1.81 0 4 .487 4 1.75zm-6.998 0c.088.216 1.103.75 2.998.75 1.922 0 2.938-.55 3.001-.759-.062-.191-1.079-.741-3.001-.741-1.896 0-2.91.534-2.998.75zm-.002 2.562c.117.204 1.142.688 3 .688 1.876 0 2.902-.493 3.002-.694v-1.361c-.783.372-1.909.555-3.002.555s-2.218-.183-3-.554zm0 2.5c.117.204 1.142.688 3 .688 1.881 0 2.908-.496 3.003-.695v-1.322c-.771.347-1.884.517-3.003.517s-2.23-.169-3-.516zm6.005 2.491v-1.321c-.771.348-1.884.518-3.005.518s-2.23-.169-3-.516v1.349c.086.168 1.114.667 3 .667s2.914-.499 3.005-.697z"/></svg>