<svg id="Layer_1" viewBox="0 0 24 24" xmlns="http://www.w3.org/2000/svg" data-name="Layer 1"><path d="m17.047 3.754-5.384 5.384c-.76.76-.861 1.93-.311 2.803l-1.205 1.205c-.195.195-.195.512 0 .707s.512.195.707 0l1.205-1.205c.883.559 2.048.443 2.803-.311l5.384-5.384.9.9c.195.195.512.195.707 0s.195-.512 0-.707c-.497-.497-.497-1.304 0-1.801l1.484-1.484c.47-.469.708-1.119.655-1.782-.054-.663-.397-1.269-.943-1.662-.883-.636-2.164-.502-2.978.312l-1.417 1.417c-.496.496-1.305.496-1.801 0-.195-.195-.512-.195-.707 0s-.195.512 0 .707l.9.9zm-2.892 7.876c-.492.492-1.293.492-1.785 0s-.492-1.293 0-1.785l5.384-5.384 1.785 1.785zm5.206-8.776 1.417-1.417c.47-.472 1.195-.561 1.687-.207.312.225.5.555.53.931.03.37-.103.732-.365.994l-1.484 1.484c-.333.333-.541.746-.624 1.177l-2.339-2.339c.431-.083.843-.29 1.177-.624zm-10.342 9.479c-.657.734-1.019 1.681-1.019 2.667 0 2.206 1.794 4 4 4s4-1.794 4-4c0-.3-.033-.6-.099-.89-.061-.27.108-.537.377-.598.27-.063.537.107.598.377.082.362.124.736.124 1.11 0 2.757-2.243 5-5 5s-5-2.243-5-5c0-1.232.452-2.416 1.273-3.333.184-.206.502-.222.706-.039.206.184.223.5.039.706zm14.298 5.003c-1.559 2.487-5.102 6.663-11.317 6.663s-9.759-4.176-11.32-6.666c-.908-1.438-.907-3.229.003-4.67 1.496-2.387 4.89-6.427 10.798-6.653.266-.01.508.204.519.48s-.205.508-.48.519c-5.449.208-8.598 3.966-9.99 6.187-.704 1.114-.704 2.494-.003 3.605 1.452 2.315 4.742 6.199 10.474 6.199s9.021-3.882 10.47-6.195c.704-1.113.705-2.494.003-3.605-.671-1.071-1.451-2.034-2.319-2.867-.199-.191-.206-.507-.015-.707.191-.199.507-.206.707-.015.928.89 1.759 1.917 2.472 3.053.911 1.441.91 3.231 0 4.673z"/></svg>