<?xml version="1.0" encoding="UTF-8"?>
<svg xmlns="http://www.w3.org/2000/svg" id="Layer_1" data-name="Layer 1" viewBox="0 0 24 24">
  <path d="m12,4c1.103,0,2-.897,2-2s-.897-2-2-2-2,.897-2,2,.897,2,2,2Zm0-3c.551,0,1,.449,1,1s-.449,1-1,1-1-.449-1-1,.449-1,1-1Zm9.5,18h-3.5c-.565,0-1.081.195-1.5.512v-1.012c0-1.379-1.121-2.5-2.5-2.5v-4.278c.595-.347,1-.985,1-1.722v-4.308L19.372.834c.185-.205.168-.521-.037-.706-.205-.184-.52-.168-.707.037l-4.351,4.834h-4.555L5.372.166c-.186-.206-.501-.222-.706-.037-.205.185-.222.501-.037.706l4.372,4.857v4.308c0,.737.405,1.375,1,1.722v4.278c-1.378,0-2.5,1.121-2.5,2.5v.013c-.419-.317-.935-.513-1.5-.513h-3.5c-1.378,0-2.5,1.121-2.5,2.5v1c0,1.379,1.122,2.5,2.5,2.5h19c1.379,0,2.5-1.121,2.5-2.5s-1.121-2.5-2.5-2.5Zm-8.5-8h-2c-.551,0-1-.449-1-1v-4h4v4c0,.551-.448,1-1,1Zm-2,1h2v4h-2v-4ZM1,21.5v-1c0-.827.673-1.5,1.5-1.5h3.5c.827,0,1.5.673,1.5,1.5v2.5H2.5c-.827,0-1.5-.673-1.5-1.5Zm7.5-3c0-.827.673-1.5,1.5-1.5h4c.827,0,1.5.673,1.5,1.5v4.5h-7v-4.5Zm13,4.5h-5v-1.5c0-.827.673-1.5,1.5-1.5h3.5c.827,0,1.5.673,1.5,1.5s-.673,1.5-1.5,1.5Z"/>
</svg>
