<svg id="Layer_1" viewBox="0 0 24 24" xmlns="http://www.w3.org/2000/svg" data-name="Layer 1"><path d="m10.887 12.5c0 .276-.224.5-.5.5-1.337 0-2.601-.596-3.387-1.063v2.564c0 2.295-1.75 3.531-2.896 4.094 1.61 1.016 2.869 1.875 5.393 2.237.273.039.463.292.424.565-.036.25-.25.43-.495.43-3.107-.419-4.465-1.553-6.507-2.788-1.154.587-1.919 1.781-1.919 3.115v1.346c0 .276-.224.5-.5.5s-.5-.224-.5-.5v-1.346c0-2.021 1.359-3.806 3.305-4.34 1.012-.305 2.664-1.369 2.695-3.313v-10.528c-1.889-.205-3.521-1.55-3.984-3.349-.069-.267.092-.54.36-.609.267-.067.54.093.609.36.385 1.496 1.896 2.625 3.516 2.625h6c3.584 0 6.5 2.915 6.5 6.499 0 .276-.224.5-.5.5s-.5-.224-.5-.5c0-3.033-2.467-5.5-5.5-5.5h-5.501v6.746c.488.343 1.918 1.255 3.387 1.255.276 0 .5.224.5.5zm11.062 6c-.092.727-.374 1.388-.803 1.94l.71.711c.196-.094.412-.15.643-.15.827 0 1.5.673 1.5 1.5s-.673 1.5-1.5 1.5-1.5-.673-1.5-1.5c0-.231.057-.447.15-.642l-.71-.711c-.552.429-1.213.711-1.94.803v1.551c0 .276-.224.5-.5.5s-.5-.224-.5-.5v-1.551c-.727-.092-1.388-.374-1.94-.803l-.711.711c.094.196.15.412.15.643 0 .827-.673 1.5-1.5 1.5s-1.5-.673-1.5-1.5.673-1.5 1.5-1.5c.231 0 .447.057.643.15l.71-.71c-.429-.552-.711-1.213-.803-1.94h-1.551c-.276 0-.5-.224-.5-.5s.224-.5.5-.5h1.551c.092-.727.374-1.388.803-1.94l-.71-.71c-.196.094-.412.15-.643.15-.827 0-1.5-.673-1.5-1.5s.673-1.5 1.5-1.5 1.5.673 1.5 1.5c0 .231-.057.447-.15.643l.711.711c.552-.429 1.213-.711 1.94-.803v-1.551c0-.276.224-.5.5-.5s.5.224.5.5v1.551c.727.092 1.388.374 1.94.803l.711-.711c-.094-.196-.15-.412-.15-.643 0-.827.673-1.5 1.5-1.5s1.5.673 1.5 1.5-.673 1.5-1.5 1.5c-.231 0-.447-.057-.643-.15l-.71.71c.429.552.711 1.213.803 1.94h1.551c.276 0 .5.224.5.5s-.224.5-.5.5h-1.551zm.051-5c0 .275.224.5.5.5s.5-.225.5-.5-.224-.5-.5-.5-.5.225-.5.5zm-8 0c0-.275-.224-.5-.5-.5s-.5.225-.5.5.224.5.5.5.5-.225.5-.5zm0 9c0-.275-.224-.5-.5-.5s-.5.225-.5.5.224.5.5.5.5-.225.5-.5zm8 0c0 .275.224.5.5.5s.5-.225.5-.5-.224-.5-.5-.5-.5.225-.5.5zm-1-4.5c0-1.654-1.346-3-3-3s-3 1.346-3 3 1.346 3 3 3c.827 0 1.576-.336 2.119-.879s0 0 0 0c.543-.543.879-1.293.879-2.119z"/></svg>