<svg id="Layer_1" viewBox="0 0 24 24" xmlns="http://www.w3.org/2000/svg" data-name="Layer 1"><path d="m15.991 5.412c-.267-.266-.622-.413-1-.413h-.002c-.378 0-.733.148-.999.415l-1.854 1.831c-.273.319-.334.754-.158 1.136s.546.619.966.619h1.558v2.5c0 .276.224.5.5.5s.5-.224.5-.5v-2.5h1.551c.421 0 .792-.238.967-.621s.113-.819-.19-1.167l-1.836-1.8zm-3.192 2.588 1.894-1.876.003-.003c.078-.078.182-.121.293-.121.112 0 .216.042.297.124l1.912 1.877h-4.401zm2.201-8c-2.685 0-4.284 1.217-5.695 2.29-1.206.917-2.247 1.71-3.805 1.71h-.5c-.551 0-1-.449-1-1v-1.5c0-.827-.673-1.5-1.5-1.5s-1.5.673-1.5 1.5v1.5c0 2.202 1.788 3.994 3.907 3.994h.012c1.439.236 2.081 1.163 2.081 3.006v4c0 1.844-.642 2.771-2.161 3.012-2.153.097-3.839 1.853-3.839 3.996v1.492c0 .827.673 1.5 1.5 1.5s1.5-.673 1.5-1.5v-1.5c0-.552.449-1 1-1 1.463 0 2.348.688 3.468 1.559 1.472 1.145 3.14 2.441 6.532 2.441 2.126 0 4.119-.747 5.612-2.104 1.54-1.399 2.388-3.315 2.388-5.396v-9c0-4.206-3.515-7.5-8-7.5zm7 16.5c0 1.795-.731 3.449-2.06 4.656-1.309 1.188-3.063 1.844-4.94 1.844-3.049 0-4.507-1.134-5.918-2.23-1.17-.91-2.276-1.77-4.082-1.77-1.103 0-2 .897-2 2v1.5c0 .275-.224.5-.5.5s-.5-.225-.5-.5v-1.492c0-1.607 1.267-2.924 2.884-2.998 1.417-.13 2.425-.927 2.842-2.194.637-.256 2.222-.815 3.924-.815 1.108 0 1.988.234 2.92.483.953.254 1.939.517 3.178.517 1.672 0 3.322-.692 4.252-1.16v1.66zm0-2.79c-.621.347-2.468 1.29-4.252 1.29-1.108 0-1.988-.234-2.92-.483-.953-.254-1.939-.517-3.178-.517-1.456 0-2.822.367-3.687.662.02-.213.037-.429.037-.662v-4c0-2.333-.982-3.676-3-4-1.654 0-3-1.346-3-3v-1.5c0-.276.224-.5.5-.5s.5.224.5.5v1.5c0 1.103.897 2 2 2h.5c1.895 0 3.174-.973 4.411-1.914 1.348-1.025 2.741-2.086 5.089-2.086 3.925 0 7 2.855 7 6.5z"/></svg>