<svg id="Layer_1" viewBox="0 0 24 24" xmlns="http://www.w3.org/2000/svg" data-name="Layer 1"><path d="m5 5.3v1.4c0 .165.134.3.3.3h7.2c.276 0 .5.224.5.5s-.224.5-.5.5h-7.2c-.717 0-1.3-.583-1.3-1.3v-1.4c0-.717.583-1.3 1.3-1.3h4.2c.276 0 .5.224.5.5s-.224.5-.5.5h-4.2c-.166 0-.3.135-.3.3zm.5 4.7h-1c-.276 0-.5.224-.5.5s.224.5.5.5h1c.276 0 .5-.224.5-.5s-.224-.5-.5-.5zm8 0h-1c-.276 0-.5.224-.5.5s.224.5.5.5h1c.276 0 .5-.224.5-.5s-.224-.5-.5-.5zm-8 3h-1c-.276 0-.5.224-.5.5s.224.5.5.5h1c.276 0 .5-.224.5-.5s-.224-.5-.5-.5zm8 0h-1c-.276 0-.5.224-.5.5s.224.5.5.5h1c.276 0 .5-.224.5-.5s-.224-.5-.5-.5zm-4-3h-1c-.276 0-.5.224-.5.5s.224.5.5.5h1c.276 0 .5-.224.5-.5s-.224-.5-.5-.5zm0 3h-1c-.276 0-.5.224-.5.5s.224.5.5.5h1c.276 0 .5-.224.5-.5s-.224-.5-.5-.5zm-4 3h-1c-.276 0-.5.224-.5.5s.224.5.5.5h1c.276 0 .5-.224.5-.5s-.224-.5-.5-.5zm8 0h-1c-.276 0-.5.224-.5.5s.224.5.5.5h1c.276 0 .5-.224.5-.5s-.224-.5-.5-.5zm-4 0h-1c-.276 0-.5.224-.5.5s.224.5.5.5h1c.276 0 .5-.224.5-.5s-.224-.5-.5-.5zm-4 3h-1c-.276 0-.5.224-.5.5s.224.5.5.5h1c.276 0 .5-.224.5-.5s-.224-.5-.5-.5zm8 0h-1c-.276 0-.5.224-.5.5s.224.5.5.5h1c.276 0 .5-.224.5-.5s-.224-.5-.5-.5zm-4 0h-1c-.276 0-.5.224-.5.5s.224.5.5.5h1c.276 0 .5-.224.5-.5s-.224-.5-.5-.5zm10-11c-.276 0-.5.224-.5.5v11c0 .275-.224.5-.5.5h-.551c.019-.166.051-.329.051-.5v-10c0-.276-.224-.5-.5-.5s-.5.224-.5.5v10c0 1.93-1.57 3.5-3.5 3.5h-9c-1.93 0-3.5-1.57-3.5-3.5v-15c0-1.93 1.57-3.5 3.5-3.5h9c.276 0 .5-.224.5-.5s-.224-.5-.5-.5h-9c-2.481 0-4.5 2.019-4.5 4.5v15c0 2.481 2.019 4.5 4.5 4.5h9c1.953 0 3.602-1.258 4.224-3h.776c.827 0 1.5-.673 1.5-1.5v-11c0-.276-.224-.5-.5-.5zm4.354-7.852c-.195-.197-.512-.197-.707-.002l-5.499 5.462c-.623.615-1.639.616-2.263.004l-2.513-2.469c-.198-.194-.514-.191-.708.006s-.19.514.006.707l2.514 2.469c.505.496 1.167.744 1.83.744.666 0 1.332-.25 1.838-.751l5.501-5.463c.196-.194.197-.511.002-.707z"/></svg>