<svg id="Layer_1" viewBox="0 0 24 24" xmlns="http://www.w3.org/2000/svg" data-name="Layer 1"><path d="m12.7 5h-7.4c-.166 0-.3.135-.3.3v1.4c0 .165.134.3.3.3h5.2c.276 0 .5.224.5.5s-.224.5-.5.5h-5.2c-.717 0-1.3-.583-1.3-1.3v-1.4c0-.717.583-1.3 1.3-1.3h7.4c.276 0 .5.224.5.5s-.224.5-.5.5zm-7.2 5h-1c-.276 0-.5.224-.5.5s.224.5.5.5h1c.276 0 .5-.224.5-.5s-.224-.5-.5-.5zm0 3h-1c-.276 0-.5.224-.5.5s.224.5.5.5h1c.276 0 .5-.224.5-.5s-.224-.5-.5-.5zm4-3h-1c-.276 0-.5.224-.5.5s.224.5.5.5h1c.276 0 .5-.224.5-.5s-.224-.5-.5-.5zm0 3h-1c-.276 0-.5.224-.5.5s.224.5.5.5h1c.276 0 .5-.224.5-.5s-.224-.5-.5-.5zm-4 3h-1c-.276 0-.5.224-.5.5s.224.5.5.5h1c.276 0 .5-.224.5-.5s-.224-.5-.5-.5zm8 0h-1c-.276 0-.5.224-.5.5s.224.5.5.5h1c.276 0 .5-.224.5-.5s-.224-.5-.5-.5zm-4 0h-1c-.276 0-.5.224-.5.5s.224.5.5.5h1c.276 0 .5-.224.5-.5s-.224-.5-.5-.5zm-4 3h-1c-.276 0-.5.224-.5.5s.224.5.5.5h1c.276 0 .5-.224.5-.5s-.224-.5-.5-.5zm8 0h-1c-.276 0-.5.224-.5.5s.224.5.5.5h1c.276 0 .5-.224.5-.5s-.224-.5-.5-.5zm-4 0h-1c-.276 0-.5.224-.5.5s.224.5.5.5h1c.276 0 .5-.224.5-.5s-.224-.5-.5-.5zm10-3c-.276 0-.5.224-.5.5v3c0 .275-.224.5-.5.5h-.551c.019-.166.051-.329.051-.5v-3c0-.276-.224-.5-.5-.5s-.5.224-.5.5v3c0 1.93-1.57 3.5-3.5 3.5h-9c-1.93 0-3.5-1.57-3.5-3.5v-15c0-1.93 1.57-3.5 3.5-3.5h9c.276 0 .5-.224.5-.5s-.224-.5-.5-.5h-9c-2.481 0-4.5 2.019-4.5 4.5v15c0 2.481 2.019 4.5 4.5 4.5h9c1.953 0 3.602-1.258 4.224-3h.776c.827 0 1.5-.673 1.5-1.5v-3c0-.276-.224-.5-.5-.5zm4.5-7.5v2c0 1.93-1.57 3.5-3.5 3.5h-4c-1.93 0-3.5-1.57-3.5-3.5v-2c0-1.391.822-2.585 2-3.149v-1.851c0-1.93 1.57-3.5 3.5-3.5s3.5 1.57 3.5 3.5v1.851c1.178.564 2 1.758 2 3.149zm-8-3.449c.165-.024.329-.051.5-.051h4c.171 0 .335.027.5.051v-1.551c0-1.379-1.122-2.5-2.5-2.5s-2.5 1.121-2.5 2.5zm7 3.449c0-1.379-1.122-2.5-2.5-2.5h-4c-1.378 0-2.5 1.121-2.5 2.5v2c0 1.379 1.122 2.5 2.5 2.5h4c1.378 0 2.5-1.121 2.5-2.5zm-4.5 0c-.552 0-1 .448-1 1s.448 1 1 1 1-.448 1-1-.448-1-1-1z"/></svg>