<svg id="Layer_1" viewBox="0 0 24 24" xmlns="http://www.w3.org/2000/svg" data-name="Layer 1"><path d="m1.5 4h1.53c-.09.69.2 1.43.72 1.93-.19.62-.28 1.29-.23 1.99.11 1.52.79 2.99 1.94 4.13 1.25 1.24 2.86 1.95 4.53 1.95 1.39 0 2.65-.5 3.58-1.44 1.02-1.02 1.53-2.44 1.42-3.99-.11-1.52-.79-2.99-1.94-4.13-1.14-1.14-2.61-1.83-4.13-1.94-.7-.04-1.36.05-1.98.24-.49-.53-1.25-.81-1.94-.73v-1.51c0-.28-.22-.5-.5-.5s-.5.22-.5.5v1.88c-.24.16-.46.38-.62.62h-1.88c-.28 0-.5.22-.5.5s.22.5.5.5zm7.35-.49c1.28.09 2.52.67 3.49 1.65s1.56 2.21 1.65 3.49c.09 1.25-.32 2.39-1.13 3.21-.82.82-1.95 1.22-3.21 1.13-1.28-.09-2.52-.67-3.49-1.65s-1.56-2.21-1.65-3.49c-.03-.43.02-.84.1-1.24l5.32 4.14c.53.41 1.23.37 1.71-.11.48-.47.52-1.18.11-1.71l-4.15-5.33c.3-.06.78-.09 1.25-.09zm2.11 6.04c.14.18.03.33-.02.39s-.2.17-.39.02l-5.59-4.35c.18-.35.4-.69.68-.97s.62-.5.97-.68zm-6.59-6.18c.42-.42 1.05-.45 1.53-.16-.34.2-.67.44-.96.73s-.53.61-.73.95c-.12-.19-.2-.41-.2-.64 0-.33.13-.65.37-.88zm19.5.52c-.21 1.89-1.31 11.5-5.04 15.22-1.92 1.92-4.45 2.88-6.97 2.88-2.37 0-4.73-.86-6.6-2.55l-4.41 4.41c-.2.2-.51.2-.71 0s-.2-.51 0-.71l4.41-4.41c-1.79-1.98-2.71-4.6-2.53-7.27.02-.28.26-.49.53-.46.28.02.48.26.46.53-.16 2.39.66 4.72 2.24 6.5l2.39-2.39c.2-.2.51-.2.71 0s.2.51 0 .71l-2.39 2.39c3.48 3.11 8.83 3 12.16-.34 2.71-2.71 4.2-9.57 4.75-14.63.06-.59-.08-1.17-.4-1.65l-5.12 5.23c-.2.2-.51.2-.71 0s-.2-.51 0-.71l5.12-5.23c-.49-.32-1.07-.47-1.66-.4-1.25.14-3.66.48-6.49 1.19-.27.07-.54-.09-.61-.36s.09-.54.36-.61c2.9-.72 5.36-1.07 6.64-1.21 1.07-.12 2.11.25 2.87 1 .75.75 1.12 1.8 1.01 2.86z"/></svg>