<svg id="Layer_1" viewBox="0 0 24 24" xmlns="http://www.w3.org/2000/svg" data-name="Layer 1"><path d="m23.494 15.684c-.384-.435-.936-.684-1.516-.684h-4.956c-.58 0-1.132.249-1.516.684-.383.435-.562 1.014-.49 1.588l.567 4.538c.156 1.249 1.223 2.19 2.481 2.19h2.872c1.258 0 2.325-.941 2.481-2.19l.567-4.537c.072-.575-.106-1.154-.49-1.589zm-1.069 6.003c-.094.749-.733 1.313-1.489 1.313h-2.872c-.755 0-1.395-.564-1.489-1.313l-.567-4.539c-.037-.294.051-.579.248-.802.196-.223.469-.346.766-.346h4.956c.297 0 .57.123.766.346.197.223.285.508.248.803zm-14.425-9.687c-2.206 0-4 1.794-4 4s1.794 4 4 4 4-1.794 4-4-1.794-4-4-4zm0 7c-1.654 0-3-1.346-3-3s1.346-3 3-3 3 1.346 3 3-1.346 3-3 3zm7.175-6c-.221 0-.423-.147-.482-.371-.413-1.544-1.228-2.958-2.358-4.087-.86-.86-1.334-2.005-1.334-3.222v-4.32h-6.001v4.32c0 1.217-.474 2.361-1.334 3.222-1.719 1.719-2.666 4.004-2.666 6.435v4.523c0 1.93 1.57 3.5 3.5 3.5h7c.62 0 1.226-.159 1.751-.461.239-.137.545-.056.683.185.138.239.055.545-.185.683-.677.389-1.455.594-2.249.594h-7c-2.481 0-4.5-2.019-4.5-4.5v-4.523c0-2.698 1.051-5.234 2.958-7.142.671-.672 1.042-1.565 1.042-2.515v-4.321h-.5c-.276 0-.5-.224-.5-.5s.224-.5.5-.5h9c.276 0 .5.224.5.5s-.224.5-.5.5h-.5v4.32c0 .95.37 1.843 1.042 2.515 1.254 1.254 2.159 2.823 2.617 4.537.088.311-.161.633-.483.629z"/></svg>