<?xml version="1.0" encoding="UTF-8"?>
<svg xmlns="http://www.w3.org/2000/svg" id="Layer_1" data-name="Layer 1" viewBox="0 0 24 24">
  <path d="m12,8c1.103,0,2-.897,2-2s-.897-2-2-2-2,.897-2,2,.897,2,2,2Zm0-3c.552,0,1,.448,1,1s-.448,1-1,1-1-.448-1-1,.448-1,1-1Zm8,14c1.379,0,2.5-1.121,2.5-2.5s-1.121-2.5-2.5-2.5-2.5,1.121-2.5,2.5,1.121,2.5,2.5,2.5Zm0-4c.827,0,1.5.673,1.5,1.5s-.673,1.5-1.5,1.5-1.5-.673-1.5-1.5.673-1.5,1.5-1.5Zm-18.5,1.5c0,1.379,1.121,2.5,2.5,2.5s2.5-1.121,2.5-2.5-1.121-2.5-2.5-2.5-2.5,1.121-2.5,2.5Zm4,0c0,.827-.673,1.5-1.5,1.5s-1.5-.673-1.5-1.5.673-1.5,1.5-1.5,1.5.673,1.5,1.5Zm18.456,6.924c.042.273-.184.534-.456.576-.242,0-.494-.177-.532-.424-.225-1.469-1.608-2.576-3.218-2.576s-2.993,1.107-3.218,2.576c-.037.244-.292.418-.532.424-.24,0-.493-.174-.533-.419-.241-1.472-1.731-2.581-3.467-2.581s-3.226,1.109-3.467,2.581c-.04.243-.3.417-.533.419-.242,0-.494-.177-.532-.424-.225-1.469-1.608-2.576-3.218-2.576s-2.993,1.107-3.218,2.576c-.042.273-.292.459-.57.418-.272-.042-.46-.297-.418-.57.299-1.952,2.107-3.424,4.206-3.424,1.613,0,3.048.874,3.764,2.163.759-1.289,2.278-2.163,3.986-2.163s3.227.874,3.986,2.163c.716-1.289,2.151-2.163,3.764-2.163,2.099,0,3.907,1.472,4.206,3.424Zm.044-13.924v3c0,.276-.224.5-.5.5s-.5-.224-.5-.5v-3c0-1.379-1.121-2.5-2.5-2.5h-1c-.276,0-.5-.224-.5-.5s.224-.5.5-.5h1c1.93,0,3.5,1.57,3.5,3.5Zm-17.331-1.597c-.101.389-.044.792.158,1.137.203.346.528.592.916.692.389.104.792.045,1.139-.159l.223-.131c.407.34.881.606,1.396.786v.271c0,.827.673,1.5,1.5,1.5s1.5-.673,1.5-1.5v-.271c.515-.18.988-.446,1.396-.786l.223.131c.347.204.75.263,1.139.159.388-.101.713-.347.915-.691.203-.346.26-.749.159-1.138-.101-.388-.347-.713-.692-.917l-.232-.137c.063-.299.094-.575.094-.85s-.03-.551-.095-.851l.233-.137c.346-.203.592-.528.692-.916.101-.389.044-.792-.158-1.137-.203-.346-.528-.592-.916-.692-.389-.103-.792-.045-1.139.159l-.223.131c-.407-.34-.881-.606-1.396-.786v-.271c0-.827-.673-1.5-1.5-1.5s-1.5.673-1.5,1.5v.271c-.515.18-.988.446-1.396.786l-.223-.131c-.347-.204-.75-.262-1.139-.159-.388.101-.713.347-.915.691-.203.346-.26.749-.159,1.138.101.388.347.713.691.915l.234.138c-.064.3-.095.576-.095.851s.03.551.094.85l-.233.138c-.345.203-.591.528-.691.916Zm1.981-.948c-.103-.361-.15-.665-.15-.955s.048-.594.15-.955c.062-.219-.03-.452-.227-.567l-.557-.328c-.115-.067-.197-.176-.23-.305s-.015-.264.054-.379c.067-.115.175-.197.305-.23.13-.034.264-.015.379.053l.54.318c.197.116.448.085.607-.077.431-.432.984-.743,1.604-.903.221-.058.375-.257.375-.484v-.642c0-.275.225-.5.5-.5s.5.225.5.5v.642c0,.228.154.427.375.484.619.16,1.173.472,1.604.903.16.161.41.192.607.077l.54-.318c.114-.067.249-.086.379-.053s.237.115.306.231c.067.114.086.249.053.378s-.115.237-.231.306l-.556.327c-.196.115-.289.349-.227.567.103.361.15.665.15.955s-.048.594-.15.955c-.062.219.031.452.228.568l.555.325c.116.068.198.177.231.307.033.129.015.264-.054.379-.067.115-.175.197-.305.23-.132.033-.264.015-.379-.053l-.54-.318c-.196-.115-.446-.084-.607.077-.431.432-.984.743-1.604.903-.221.058-.375.257-.375.484v.642c0,.275-.225.5-.5.5s-.5-.225-.5-.5v-.642c0-.228-.154-.427-.375-.484-.619-.16-1.173-.472-1.604-.903-.096-.097-.225-.146-.354-.146-.087,0-.175.022-.254.069l-.54.318c-.113.067-.247.087-.379.053-.13-.033-.237-.115-.306-.231-.067-.114-.086-.249-.053-.378.033-.13.115-.238.23-.306l.556-.326c.196-.116.29-.35.228-.568ZM0,12.5v-3c0-1.93,1.57-3.5,3.5-3.5h1c.276,0,.5.224.5.5s-.224.5-.5.5h-1c-1.379,0-2.5,1.121-2.5,2.5v3c0,.276-.224.5-.5.5s-.5-.224-.5-.5Zm9.5,4c0,1.379,1.121,2.5,2.5,2.5s2.5-1.121,2.5-2.5-1.121-2.5-2.5-2.5-2.5,1.121-2.5,2.5Zm4,0c0,.827-.673,1.5-1.5,1.5s-1.5-.673-1.5-1.5.673-1.5,1.5-1.5,1.5.673,1.5,1.5Z"/>
</svg>
