<?xml version="1.0" encoding="UTF-8"?>
<svg xmlns="http://www.w3.org/2000/svg" id="Layer_1" data-name="Layer 1" viewBox="0 0 24 24">
  <path d="m18.594,13.088c-.408.568-1.068.908-1.768.908h-.652c-1.198,0-2.174-.976-2.174-2.174v-.322c0-.276-.224-.5-.5-.5s-.5.224-.5.5v.322c0,1.198-.975,2.174-2.174,2.174h-1.652c-1.199,0-2.174-.976-2.174-2.174v-.322c0-.276-.224-.5-.5-.5s-.5.224-.5.5v.322c0,1.198-.975,2.174-2.174,2.174h-.652c-1.175,0-2.135-.938-2.173-2.104l1.343-4.412c.452-1.483,1.797-2.48,3.348-2.48h.308v2.5c0,.276.224.5.5.5s.5-.224.5-.5v-2.5h4.5c.276,0,.5-.224.5-.5s-.224-.5-.5-.5h-5.808c-1.994,0-3.724,1.281-4.305,3.189L.021,11.677c-.014.047-.021.096-.021.146,0,.907.388,1.721,1,2.3v5.877c0,2.206,1.794,4,4,4h10c2.206,0,4-1.794,4-4v-5.887c.145-.137.288-.278.406-.443.161-.224.109-.536-.115-.697-.223-.161-.535-.111-.697.115Zm-3.594,9.912H5c-1.654,0-3-1.346-3-3v-5.235c.364.146.758.231,1.174.231h.652c1.126,0,2.11-.593,2.674-1.479.564.886,1.548,1.479,2.674,1.479h1.652c1.126,0,2.11-.593,2.674-1.479.564.886,1.548,1.479,2.674,1.479h.652c.41,0,.802-.099,1.174-.249v5.253c0,1.654-1.346,3-3,3Zm5-18c0,.552-.448,1-1,1s-1-.448-1-1,.448-1,1-1,1,.448,1,1Zm2.535-3.535c-.943-.944-2.199-1.465-3.535-1.465s-2.592.521-3.535,1.465c-.944.944-1.465,2.199-1.465,3.535s.521,2.591,1.478,3.548l1.986,1.846c.433.402.986.604,1.541.604s1.113-.203,1.547-.607l1.983-1.854c.944-.944,1.465-2.199,1.465-3.535s-.521-2.591-1.465-3.535Zm-.695,6.352l-1.971,1.843c-.482.449-1.239.454-1.724.002l-1.974-1.833c-.756-.756-1.172-1.76-1.172-2.828s.416-2.072,1.172-2.828c.755-.756,1.76-1.172,2.828-1.172s2.073.416,2.828,1.172c.756.756,1.172,1.76,1.172,2.828s-.416,2.072-1.16,2.816Z"/>
</svg>
