<?xml version="1.0" encoding="UTF-8"?>
<svg xmlns="http://www.w3.org/2000/svg" id="Layer_1" data-name="Layer 1" viewBox="0 0 24 24">
  <path d="M12,14c-2.756,.001-4.998,2.245-5,5,0,2.757,2.243,5,5,5,2.756-.001,4.998-2.245,5-5,0-2.757-2.243-5-5-5Zm4,5c0,.922-.326,1.762-.853,2.44l-5.587-5.586c.677-.527,1.517-.853,2.44-.853,2.206,0,4,1.794,4,4Zm-8,0c0-.922,.326-1.762,.853-2.44l5.587,5.586c-.677,.527-1.517,.853-2.44,.853-2.206,0-4-1.794-4-4Zm15.977-5.49c.258,2.712-1.725,5.161-4.421,5.46-.019,.002-.038,.003-.056,.003-.251,0-.468-.189-.497-.445-.03-.274,.167-.521,.442-.552,2.157-.238,3.743-2.199,3.537-4.37-.193-2.021-2.027-3.605-4.175-3.605-.445,0-.807,.362-.807,.807v3.693c0,.276-.224,.5-.5,.5s-.5-.224-.5-.5v-3.693c0-.996,.811-1.807,1.807-1.807,.411,0,.807,.062,1.193,.151v-.151c0-4.411-3.589-8-8-8S4,4.589,4,9v.151c.386-.089,.782-.151,1.193-.151,.996,0,1.807,.811,1.807,1.807v3.693c0,.276-.224,.5-.5,.5s-.5-.224-.5-.5v-3.693c0-.444-.362-.807-.807-.807-2.148,0-3.982,1.584-4.175,3.605-.207,2.171,1.38,4.132,3.537,4.37,.274,.03,.472,.277,.442,.552-.028,.256-.245,.445-.497,.445-.018,0-.037,0-.056-.003C1.749,18.671-.235,16.222,.023,13.51c.17-1.785,1.361-3.28,2.977-4.016v-.494C3,4.037,7.038,0,12,0s9,4.037,9,9v.494c1.615,.735,2.806,2.231,2.977,4.016Z"/>
</svg>
