<svg id="Layer_1" viewBox="0 0 24 24" xmlns="http://www.w3.org/2000/svg" data-name="Layer 1"><path d="m10 12c0 .552-.448 1-1 1s-1-.448-1-1 .448-1 1-1 1 .448 1 1zm4 0c0-.552-.448-1-1-1s-1 .448-1 1 .448 1 1 1 1-.448 1-1zm-9-1c-.552 0-1 .448-1 1s.448 1 1 1 1-.448 1-1-.448-1-1-1zm-4 0c-.552 0-1 .448-1 1s.448 1 1 1 1-.448 1-1-.448-1-1-1zm21.975-1.475-8.379-8.379c-.195-.195-.512-.195-.707 0s-.195.512 0 .707l8.379 8.379c.97.93.97 2.604 0 3.535l-8.379 8.379c-.195.195-.195.512 0 .707s.512.195.707 0l8.379-8.379c1.358-1.303 1.358-3.647 0-4.949zm-4.653.846-6.597-6.596c-.195-.195-.512-.195-.707 0s-.195.512 0 .707l6.597 6.596c.508.508.508 1.335 0 1.844l-6.597 6.596c-.195.195-.195.512 0 .707s.512.195.707 0l6.597-6.596c.897-.898.897-2.359 0-3.258z"/></svg>