<?xml version="1.0" encoding="UTF-8"?>
<svg xmlns="http://www.w3.org/2000/svg" id="Layer_1" data-name="Layer 1" viewBox="0 0 24 24">
  <path d="M23.181,9.655c-.982-.924-2.66-.853-3.548,.166l-3.732,4.102c-.314-1.108-1.335-1.922-2.543-1.922H3.5c-1.93,0-3.5,1.57-3.5,3.5v5c0,1.93,1.57,3.5,3.5,3.5h5.965c2.707,0,5.292-1.159,7.093-3.181l6.806-7.639c.911-1.022,.829-2.604-.183-3.526Zm-.563,2.861l-6.806,7.639c-1.611,1.809-3.925,2.846-6.347,2.846H3.5c-1.379,0-2.5-1.122-2.5-2.5v-5c0-1.378,1.121-2.5,2.5-2.5H13.357c.905,0,1.643,.737,1.643,1.642,0,.812-.606,1.511-1.398,1.624l-6.161,.737c-.274,.033-.47,.282-.437,.556,.032,.274,.282,.47,.556,.437l6.173-.739c1.021-.146,1.844-.878,2.145-1.824l4.496-4.94c.535-.613,1.541-.656,2.134-.1,.609,.555,.658,1.506,.11,2.122ZM13,5c0-.552,.448-1,1-1s1,.448,1,1-.448,1-1,1-1-.448-1-1ZM1.062,6.475c.661,.661,1.54,1.025,2.475,1.025h5.153c.896,1.55,2.521,2.5,4.311,2.5,2.757,0,5-2.243,5-5S15.757,0,13,0c-1.79,0-3.414,.95-4.311,2.5h-.87c-.547,0-1.076,.228-1.452,.625l-.427,.451-.344-.343c-.372-.389-1.043-.389-1.415,0l-.707,.707-.707-.708c-.391-.39-1.023-.39-1.414,0L.293,4.293c-.39,.39-.39,1.024,0,1.414l.769,.768Zm.999-2.536l1.061,1.061c.186,.194,.521,.194,.707,0l1.061-1.06,.708,.707c.186,.198,.533,.192,.717-.01l.78-.824c.188-.199,.452-.312,.726-.312h1.169c.189,0,.362-.107,.447-.276,.686-1.372,2.052-2.224,3.564-2.224,2.206,0,4,1.794,4,4s-1.794,4-4,4c-1.513,0-2.879-.852-3.564-2.224-.085-.169-.258-.276-.447-.276H3.536c-.668,0-1.296-.26-1.768-.732l-.769-.768,1.061-1.061Z"/>
</svg>
