<svg id="Layer_1" viewBox="0 0 24 24" xmlns="http://www.w3.org/2000/svg" data-name="Layer 1"><path d="m11 10.5c0 .276-.224.5-.5.5h-5c-.276 0-.5-.224-.5-.5s.224-.5.5-.5h4.5v-5.5c0-.276.224-.5.5-.5s.5.224.5.5zm-2.4 9.31c-4.403-.894-7.6-4.81-7.6-9.31 0-5.238 4.262-9.5 9.5-9.5s9.5 4.262 9.5 9.5c0 .32-.016.637-.047.95-.028.275.172.52.447.548.017.001.033.002.051.002.253 0 .471-.192.496-.45.035-.346.053-.696.053-1.05 0-5.79-4.71-10.5-10.5-10.5s-10.5 4.71-10.5 10.5c0 4.974 3.533 9.302 8.4 10.29.264.055.535-.117.59-.391.055-.271-.12-.534-.391-.59zm15.162 1.604-4.778-8.062c-.311-.534-.865-.853-1.483-.853s-1.173.319-1.481.85l-4.782 8.067c-.314.538-.316 1.181-.006 1.721s.866.862 1.489.862h2.123c.276 0 .5-.224.5-.5s-.224-.5-.5-.5h-2.123c-.261 0-.493-.135-.622-.36-.13-.226-.129-.494 0-.716l4.782-8.067c.26-.445.979-.448 1.242.003l4.778 8.062c.131.225.132.493.002.719-.129.226-.361.36-.622.36h-2.123c-.276 0-.5.224-.5.5s.224.5.5.5h2.123c.623 0 1.18-.322 1.489-.862.145-.252.23-.526.23-.802 0-.336-.069-.633-.238-.922zm-5.762-.914v-3c0-.276-.224-.5-.5-.5s-.5.224-.5.5v3c0 .276.224.5.5.5s.5-.224.5-.5zm-.5 1.5c-.552 0-1 .448-1 1s.448 1 1 1 1-.448 1-1-.448-1-1-1z"/></svg>