<?xml version="1.0" encoding="UTF-8"?>
<svg xmlns="http://www.w3.org/2000/svg" id="Layer_1" data-name="Layer 1" viewBox="0 0 24 24">
  <path d="m20.5,0H3.5C1.57,0,0,1.57,0,3.5v9c0,2.481,2.019,4.5,4.5,4.5h4c.276,0,.5.224.5.5v3.5c0,1.654,1.346,3,3,3s3-1.346,3-3v-3.5c0-.276.224-.5.5-.5h4c2.481,0,4.5-2.019,4.5-4.5V3.5c0-1.93-1.57-3.5-3.5-3.5ZM3.5,1h7.5v2.5c0,.276.224.5.5.5s.5-.224.5-.5V1h3v4.5c0,.276.224.5.5.5s.5-.224.5-.5V1h3v6.5c0,.276.224.5.5.5s.5-.224.5-.5V1h.5c1.378,0,2.5,1.122,2.5,2.5v7.5H1V3.5c0-1.378,1.122-2.5,2.5-2.5Zm16,15h-4c-.827,0-1.5.673-1.5,1.5v3.5c0,1.103-.897,2-2,2s-2-.897-2-2v-3.5c0-.827-.673-1.5-1.5-1.5h-4c-1.93,0-3.5-1.57-3.5-3.5v-.5h22v.5c0,1.93-1.57,3.5-3.5,3.5Z"/>
</svg>
