<?xml version="1.0" encoding="UTF-8"?>
<svg xmlns="http://www.w3.org/2000/svg" id="Layer_1" data-name="Layer 1" viewBox="0 0 24 24">
  <path d="M21.206,14.116c1.052-1.207,1.052-3.026,0-4.232-1-1.146-4.619-4.884-9.205-4.884S3.795,8.738,2.795,9.883c-1.054,1.207-1.054,3.026,0,4.232,1,1.146,4.619,4.884,9.205,4.884s8.206-3.738,9.206-4.884Zm-9.206,3.884c-3.309,0-6.535-2.346-8.452-4.542-.726-.831-.726-2.085,0-2.917,1.916-2.195,5.142-4.541,8.451-4.541s6.536,2.346,8.452,4.541c.726,.832,.726,2.086,0,2.918-1.917,2.195-5.143,4.541-8.452,4.541Zm0-9c-1.654,0-3,1.346-3,3s1.346,3,3,3,3-1.346,3-3-1.346-3-3-3Zm0,5c-1.103,0-2-.897-2-2s.897-2,2-2,2,.897,2,2-.897,2-2,2ZM0,6.5v-2C0,2.019,2.019,0,4.5,0h2c.276,0,.5,.224,.5,.5s-.224,.5-.5,.5h-2c-1.93,0-3.5,1.57-3.5,3.5v2c0,.276-.224,.5-.5,.5s-.5-.224-.5-.5ZM7,23.5c0,.276-.224,.5-.5,.5h-2c-2.481,0-4.5-2.019-4.5-4.5v-2c0-.276,.224-.5,.5-.5s.5,.224,.5,.5v2c0,1.93,1.57,3.5,3.5,3.5h2c.276,0,.5,.224,.5,.5Zm17-6v2c0,2.481-2.019,4.5-4.5,4.5h-2c-.276,0-.5-.224-.5-.5s.224-.5,.5-.5h2c1.93,0,3.5-1.57,3.5-3.5v-2c0-.276,.224-.5,.5-.5s.5,.224,.5,.5Zm0-13v2c0,.276-.224,.5-.5,.5s-.5-.224-.5-.5v-2c0-1.93-1.57-3.5-3.5-3.5h-2c-.276,0-.5-.224-.5-.5s.224-.5,.5-.5h2c2.481,0,4.5,2.019,4.5,4.5Z"/>
</svg>
