<?xml version="1.0" encoding="UTF-8"?>
<svg xmlns="http://www.w3.org/2000/svg" id="Layer_1" data-name="Layer 1" viewBox="0 0 24 24">
  <path d="M20.096,5.389l-3.484-3.485c-1.229-1.228-2.861-1.904-4.597-1.904H6.5C4.019,0,2,2.019,2,4.5v15c0,2.481,2.019,4.5,4.5,4.5h12c.583,0,1.151-.11,1.688-.327,.256-.104,.38-.396,.276-.651-.104-.257-.397-.379-.651-.276-.417,.169-.858,.255-1.312,.255H6.5c-1.93,0-3.5-1.57-3.5-3.5V4.5c0-1.93,1.57-3.5,3.5-3.5h5.515c.335,0,.663,.038,.985,.096V6.5c0,1.378,1.121,2.5,2.5,2.5h5.404c.058,.323,.096,.651,.096,.985v.515c0,.276,.224,.5,.5,.5s.5-.224,.5-.5v-.515c0-1.737-.677-3.369-1.904-4.596Zm-4.596,2.611c-.827,0-1.5-.673-1.5-1.5V1.38c.704,.273,1.354,.682,1.904,1.231l3.484,3.485c.55,.55,.959,1.199,1.232,1.904h-5.121Zm-3.065,5.748l-1.858,3.252,1.858,3.252c.137,.239,.054,.545-.187,.683-.078,.044-.163,.065-.248,.065-.173,0-.342-.091-.435-.252l-1.565-2.74-1.565,2.74c-.093,.161-.262,.252-.435,.252-.085,0-.17-.021-.248-.065-.24-.138-.323-.443-.187-.683l1.858-3.252-1.858-3.252c-.137-.239-.054-.545,.187-.683,.236-.134,.544-.055,.683,.187l1.565,2.74,1.565-2.74c.138-.241,.444-.321,.683-.187,.24,.138,.323,.443,.187,.683Zm5.565,6.752c0,.276-.224,.5-.5,.5h-2.5c-.552,0-1-.448-1-1v-6.5c0-.276,.224-.5,.5-.5s.5,.224,.5,.5v6.5h2.5c.276,0,.5,.224,.5,.5Zm5.974-1.447c-.183,1.127-1.162,1.944-2.328,1.944-.878,0-1.947-.551-2.474-1.084-.194-.196-.192-.513,.004-.707,.197-.195,.513-.192,.707,.004,.414,.419,1.238,.787,1.763,.787,.673,0,1.237-.465,1.342-1.104,.037-.229,.076-1.007-.976-1.432-.111-.042-1.208-.458-1.7-.764-.671-.473-.977-1.162-.879-1.916,.104-.783,.627-1.421,1.365-1.665,.902-.298,1.822-.047,2.736,.746,.209,.181,.231,.497,.051,.705-.181,.209-.496,.231-.705,.051-.648-.562-1.211-.737-1.769-.553-.371,.123-.634,.447-.687,.846-.048,.367,.093,.695,.396,.926,.007,.004,.014,.008,.02,.011,.346,.216,1.225,.565,1.534,.682,1.395,.563,1.731,1.711,1.599,2.523Z"/>
</svg>
