<svg id="Layer_1" viewBox="0 0 24 24" xmlns="http://www.w3.org/2000/svg" data-name="Layer 1"><path d="m12 0c-6.617 0-12 5.383-12 12s5.383 12 12 12 12-5.383 12-12-5.383-12-12-12zm.5 22.975v-1.475c0-.276-.224-.5-.5-.5s-.5.224-.5.5v1.475c-5.666-.257-10.218-4.809-10.475-10.475h1.475c.276 0 .5-.224.5-.5s-.224-.5-.5-.5h-1.475c.257-5.666 4.809-10.218 10.475-10.475v1.475c0 .276.224.5.5.5s.5-.224.5-.5v-1.475c5.666.257 10.218 4.809 10.475 10.475h-1.475c-.276 0-.5.224-.5.5s.224.5.5.5h1.475c-.257 5.666-4.809 10.218-10.475 10.475zm4.123-13.617c-.006-.011-.017-.017-.023-.027-.217-.341-.507-.636-.87-.841l-2.503-1.416c-.76-.429-1.702-.429-2.462.001l-2.496 1.414c-.782.443-1.269 1.276-1.269 2.175v3.129c0 .894.482 1.726 1.26 2.17l2.515 1.437c.382.218.812.328 1.241.328.419 0 .838-.104 1.213-.312l2.484-1.379c.794-.44 1.287-1.278 1.287-2.186v-3.186c0-.469-.138-.916-.375-1.303-.001-.002 0-.004-.002-.006zm-5.366-1.411c.229-.129.483-.194.739-.194s.511.064.738.193c0 0 2.61 1.496 2.663 1.536l-3.396 1.941-3.4-1.943c.053-.04 2.654-1.534 2.654-1.534zm-2.501 7.15c-.466-.267-.756-.766-.756-1.302v-3.129c0-.12.02-.237.047-.351l3.453 1.973v4.34c-.078-.028-2.744-1.531-2.744-1.531zm7.244-1.245c0 .545-.296 1.047-.772 1.312 0 0-2.645 1.448-2.728 1.476v-4.349l3.453-1.974c.028.114.047.231.047.351v3.186z"/></svg>