<svg id="Layer_1" viewBox="0 0 24 24" xmlns="http://www.w3.org/2000/svg" data-name="Layer 1"><path d="m24 15.5v4c0 2.481-2.019 4.5-4.5 4.5h-15c-2.481 0-4.5-2.019-4.5-4.5v-9c0-2.481 2.019-4.5 4.5-4.5h6c.276 0 .5.224.5.5s-.224.5-.5.5h-6c-1.758 0-3.204 1.308-3.449 3h9.449c.276 0 .5.224.5.5s-.224.5-.5.5h-9.5v2h10.5c.276 0 .5.224.5.5s-.224.5-.5.5h-10.5v5.5c0 1.93 1.57 3.5 3.5 3.5h15c1.93 0 3.5-1.57 3.5-3.5v-4c0-.276.224-.5.5-.5s.5.224.5.5zm-19.058 1.5c1.103 0 2 .897 2 2s-.897 2-2 2-2-.897-2-2 .897-2 2-2zm0 1c-.551 0-1 .448-1 1s.449 1 1 1 1-.448 1-1-.449-1-1-1zm19.058-9.5v2c0 1.93-1.57 3.5-3.5 3.5h-4c-1.93 0-3.5-1.57-3.5-3.5v-2c0-1.391.822-2.585 2-3.149v-1.851c0-1.93 1.57-3.5 3.5-3.5s3.5 1.57 3.5 3.5v1.851c1.178.564 2 1.758 2 3.149zm-8-3.449c.165-.024.329-.051.5-.051h4c.171 0 .335.027.5.051v-1.551c0-1.379-1.122-2.5-2.5-2.5s-2.5 1.121-2.5 2.5zm7 3.449c0-1.379-1.122-2.5-2.5-2.5h-4c-1.378 0-2.5 1.121-2.5 2.5v2c0 1.379 1.122 2.5 2.5 2.5h4c1.378 0 2.5-1.121 2.5-2.5zm-4.5 0c-.552 0-1 .448-1 1s.448 1 1 1 1-.448 1-1-.448-1-1-1z"/></svg>