<?xml version="1.0" encoding="UTF-8"?>
<svg xmlns="http://www.w3.org/2000/svg" id="Layer_1" data-name="Layer 1" viewBox="0 0 24 24">
  <path d="m16.5,3c-1.55,0-2.934,1.041-3.363,2.53l-4.335,15.394c-.167.629-.752,1.055-1.411,1.076-.638,0-1.175-.387-1.378-.997l-2.808-9.308c-.336-1.009-1.29-1.696-2.367-1.696h-.338c-.276,0-.5-.224-.5-.5s.224-.5.5-.5h.338c1.509,0,2.843.962,3.32,2.393l2.808,9.308c.096.287.38.3.444.299.08-.002.347-.035.427-.34l4.338-15.404c.553-1.918,2.331-3.256,4.325-3.256h7c.276,0,.5.224.5.5s-.224.5-.5.5h-7Zm7.307,9.105c-.218-.17-.532-.13-.702.087l-3.105,3.993-3.105-3.993c-.169-.217-.482-.258-.702-.087-.218.169-.257.483-.087.702l3.261,4.193-3.261,4.193c-.17.218-.13.532.087.702.091.071.2.105.307.105.149,0,.296-.066.395-.193l3.105-3.993,3.105,3.993c.099.126.246.193.395.193.107,0,.215-.034.307-.105.218-.169.257-.483.087-.702l-3.261-4.193,3.261-4.193c.17-.218.13-.532-.087-.702Z"/>
</svg>
