<svg id="Layer_1" viewBox="0 0 24 24" xmlns="http://www.w3.org/2000/svg" data-name="Layer 1"><path d="m18.864 13h-7.864v-7.864c0-.591-.26-1.148-.715-1.527-.466-.389-1.08-.549-1.683-.438-5.126.936-8.742 5.405-8.598 10.626.148 5.575 4.919 10.203 10.5 10.203 5.091 0 9.407-3.575 10.325-8.603.11-.604-.049-1.217-.438-1.683-.379-.455-.936-.715-1.527-.715zm-8.864 9.987c-4.848-.257-8.861-4.344-8.996-9.217-.07-2.54.842-4.882 2.421-6.638l6.575 6.575zm0-10.694-5.867-5.867c1.267-1.138 2.856-1.943 4.649-2.271.309-.058.625.024.863.223.229.191.355.46.355.759v7.157zm1 10.694v-8.987h7.864c.298 0 .568.126.759.355.198.238.279.552.223.863-.8 4.384-4.457 7.547-8.845 7.77zm12.622-20.355c-.225-.349-.517-.662-.894-.873l-2.504-1.414c-.76-.429-1.703-.429-2.461 0l-2.496 1.414c-.782.443-1.268 1.276-1.268 2.175v3.129c0 .895.482 1.727 1.259 2.17l2.515 1.438c.754.431 1.695.437 2.454.015l2.485-1.38c.793-.44 1.287-1.278 1.287-2.186v-3.183c0-.469-.138-.917-.376-1.305zm-5.367-1.416c.456-.257 1.021-.258 1.477 0 0 0 2.611 1.495 2.664 1.536l-3.397 1.942-3.399-1.943c.053-.04 2.654-1.534 2.654-1.534zm-2.501 7.15c-.466-.266-.755-.765-.755-1.302v-3.128c0-.12.019-.237.047-.351l3.452 1.973v4.34c-.078-.028-.157-.052-.229-.094zm7.245-1.245c0 .544-.296 1.047-.772 1.312l-2.485 1.38c-.077.043-.161.068-.243.096v-4.349l3.453-1.974c.028.114.047.231.047.351v3.185z"/></svg>