<?xml version="1.0" encoding="UTF-8"?>
<svg xmlns="http://www.w3.org/2000/svg" id="Layer_1" data-name="Layer 1" viewBox="0 0 24 24">
  <path d="M15.879,13.297c-.438-1.927-2.131-3.297-4.129-3.297-2.343,0-4.25,1.906-4.25,4.25,0,.308,.036,.612,.11,.923-.948,.362-1.61,1.28-1.61,2.327,0,1.379,1.122,2.5,2.5,2.5h6c1.93,0,3.5-1.57,3.5-3.5,0-1.402-.841-2.654-2.121-3.203Zm-1.379,5.703h-6c-.827,0-1.5-.673-1.5-1.5,0-.744,.561-1.38,1.304-1.478,.15-.021,.283-.107,.362-.236,.078-.13,.094-.288,.042-.431-.14-.385-.208-.746-.208-1.105,0-1.792,1.458-3.25,3.25-3.25,1.602,0,2.946,1.153,3.197,2.743,.029,.185,.159,.337,.336,.396,1.027,.341,1.717,1.29,1.717,2.36,0,1.379-1.121,2.5-2.5,2.5Zm5.596-13.611l-3.484-3.484c-1.228-1.228-2.86-1.904-4.597-1.904H6.5C4.019,0,2,2.019,2,4.5v15c0,2.481,2.019,4.5,4.5,4.5h11c2.481,0,4.5-2.019,4.5-4.5V9.985c0-1.736-.677-3.369-1.904-4.597Zm-.707,.707c.55,.55,.959,1.2,1.232,1.904h-5.121c-.827,0-1.5-.673-1.5-1.5V1.379c.704,.273,1.354,.682,1.904,1.232l3.484,3.484Zm1.611,13.404c0,1.93-1.57,3.5-3.5,3.5H6.5c-1.93,0-3.5-1.57-3.5-3.5V4.5c0-1.93,1.57-3.5,3.5-3.5h5.515c.335,0,.663,.038,.985,.096V6.5c0,1.379,1.121,2.5,2.5,2.5h5.404c.058,.323,.096,.651,.096,.985v9.515Z"/>
</svg>
