<?xml version="1.0" encoding="UTF-8"?>
<svg xmlns="http://www.w3.org/2000/svg" id="Layer_1" data-name="Layer 1" viewBox="0 0 24 24">
  <path d="M23.381,9.854c-.363-.415-.85-.691-1.381-.8v-.554c0-1.953-1.258-3.602-3-4.224V1.5c0-.827-.673-1.5-1.5-1.5h-3c-.827,0-1.5,.673-1.5,1.5v1c0,.276,.224,.5,.5,.5s.5-.224,.5-.5V1.5c0-.276,.224-.5,.5-.5h3c.276,0,.5,.224,.5,.5v2.551c-.166-.019-.329-.051-.5-.051h-2c-.276,0-.5,.224-.5,.5s.224,.5,.5,.5h2c1.93,0,3.5,1.57,3.5,3.5v.5h-7v-.5c0-1.953-1.258-3.602-3-4.224V1.5c0-.827-.673-1.5-1.5-1.5h-3c-.827,0-1.5,.673-1.5,1.5v2.776c-1.742,.621-3,2.271-3,4.224v.554c-.531,.109-1.018,.385-1.381,.8-.475,.542-.692,1.263-.595,1.985l1.118,7.389c.363,2.721,2.707,4.772,5.452,4.772h10.812c2.745,0,5.089-2.052,5.451-4.764l1.121-7.406c.095-.714-.122-1.435-.597-1.977ZM6,1.5c0-.276,.224-.5,.5-.5h3c.276,0,.5,.224,.5,.5v2.551c-.166-.019-.329-.051-.5-.051h-3c-.171,0-.334,.032-.5,.051V1.5Zm.5,3.5h3c1.93,0,3.5,1.57,3.5,3.5v.5H3v-.5c0-1.93,1.57-3.5,3.5-3.5Zm16.488,6.689l-1.121,7.405c-.297,2.227-2.215,3.905-4.461,3.905H6.594c-2.246,0-4.164-1.679-4.462-3.914l-1.118-7.388c-.057-.428,.073-.86,.358-1.186,.285-.326,.696-.512,1.129-.512H21.5c.433,0,.844,.187,1.129,.512,.285,.325,.415,.757,.359,1.177Zm-10.488,.811v7c0,.276-.224,.5-.5,.5s-.5-.224-.5-.5v-7c0-.276,.224-.5,.5-.5s.5,.224,.5,.5Zm5.5,0v7c0,.276-.224,.5-.5,.5s-.5-.224-.5-.5v-7c0-.276,.224-.5,.5-.5s.5,.224,.5,.5Zm-11,0v7c0,.276-.224,.5-.5,.5s-.5-.224-.5-.5v-7c0-.276,.224-.5,.5-.5s.5,.224,.5,.5Z"/>
</svg>
