<?xml version="1.0" encoding="UTF-8"?>
<svg xmlns="http://www.w3.org/2000/svg" id="Layer_1" data-name="Layer 1" viewBox="0 0 24 24">
  <path d="m10,8c-1.103,0-2,.897-2,2s.897,2,2,2,2-.897,2-2-.897-2-2-2Zm0,3c-.552,0-1-.449-1-1s.448-1,1-1,1,.449,1,1-.448,1-1,1Zm10,6.5c0-.276.224-.5.5-.5s.5.224.5.5c0,1.93-1.57,3.5-3.5,3.5-.276,0-.5-.224-.5-.5s.224-.5.5-.5c1.379,0,2.5-1.122,2.5-2.5Zm4,0c0,3.584-2.916,6.5-6.5,6.5-.276,0-.5-.224-.5-.5s.224-.5.5-.5c3.032,0,5.5-2.467,5.5-5.5,0-.276.224-.5.5-.5s.5.224.5.5Zm-4.389-4.225c-.23-.321-.514-.711-.827-1.128.141-.332.217-.692.215-1.064-.004-.726-.293-1.405-.813-1.914-2.272-2.223-4.144-3.9-6.988-5.897-2.372-1.666-5.235-1.621-7.208.012L.854.146C.658-.049.342-.049.146.146S-.049.658.146.854l3.135,3.135c-1.634,1.972-1.688,4.981-.059,7.16,2.39,3.198,3.666,4.711,5.939,7.04.506.519,1.2.807,1.928.811.367,0,.721-.074,1.048-.212.419.313.809.598,1.131.828.325.233.703.348,1.078.348.479,0,.955-.186,1.317-.549l3.745-3.746c.646-.646.731-1.653.201-2.395Zm-8.531,4.725c-.458-.003-.885-.184-1.203-.509-2.236-2.292-3.495-3.784-5.854-6.94-1.413-1.89-1.331-4.529.189-6.139.863-.914,2.019-1.376,3.238-1.376,1.06,0,2.168.349,3.173,1.055,2.788,1.958,4.628,3.606,6.863,5.793.328.32.51.748.513,1.205.003.452-.172.878-.492,1.198l-5.222,5.22c-.321.321-.744.493-1.206.494Zm7.623-3.038l-3.745,3.746c-.299.299-.766.34-1.106.095-.244-.174-.533-.386-.838-.611l5.174-5.172c.225.304.436.593.61.836.244.342.204.807-.095,1.106Z"/>
</svg>
