<?xml version="1.0" encoding="UTF-8"?>
<svg xmlns="http://www.w3.org/2000/svg" id="Layer_1" data-name="Layer 1" viewBox="0 0 24 24">
  <path d="M15.5,14.5c.183,0,.359-.101,.447-.276,.123-.247,.023-.547-.224-.671l-3.42-1.71c-.246-.123-.432-.344-.504-.584l-.73-2.936c-.417-1.389-1.671-2.323-3.122-2.323-1.691,0-3.353,.457-4.807,1.32l-1.228,.729c-.469,.279-.808,.744-.923,1.254L.018,12.869c-.073,.266,.084,.541,.351,.614,.262,.073,.541-.084,.614-.351l.977-3.585c.061-.265,.23-.498,.464-.637l1.228-.729c.542-.322,1.122-.565,1.718-.757l-1.289,4.647c-.365,1.509,.323,3.099,1.678,3.868l3.736,2.066c.312,.178,.506,.511,.506,.87v4.627c0,.276,.224,.5,.5,.5s.5-.224,.5-.5v-4.627c0-.718-.388-1.384-1.017-1.742l-1.783-.986,1.956-7.352,.679,2.729c.158,.526,.53,.968,1.021,1.214l3.42,1.71c.072,.036,.148,.053,.224,.053Zm-9.253,.565c-.964-.548-1.456-1.683-1.199-2.745l1.436-5.176c.482-.085,.97-.145,1.463-.145,.582,0,1.114,.222,1.518,.587l-2.125,8.083-1.093-.605Zm11.753,2.935h-1.609l2.111,2.111c.195,.195,.195,.512,0,.707s-.512,.195-.707,0l-2.4-2.4c-.49-.531-.536-1.381,0-1.907l2.4-2.4c.195-.195,.512-.195,.707,0s.195,.512,0,.707l-2.183,2.182h1.681c2.757,0,5-2.243,5-5s-2.243-5-5-5h-4.5c-.276,0-.5-.224-.5-.5s.224-.5,.5-.5h4.5c3.309,0,6,2.691,6,6s-2.691,6-6,6ZM8.5,5c1.378,0,2.5-1.122,2.5-2.5s-1.122-2.5-2.5-2.5-2.5,1.122-2.5,2.5,1.122,2.5,2.5,2.5Zm0-4c.827,0,1.5,.673,1.5,1.5s-.673,1.5-1.5,1.5-1.5-.673-1.5-1.5,.673-1.5,1.5-1.5Zm-3.515,16.621l-1.5,6c-.066,.27-.345,.431-.606,.364-.268-.067-.431-.338-.364-.606l1.5-6c.067-.269,.337-.433,.606-.364,.268,.067,.431,.338,.364,.606Z"/>
</svg>
