<svg id="Layer_1" viewBox="0 0 24 24" xmlns="http://www.w3.org/2000/svg" data-name="Layer 1"><path d="m23.723 6.553c-.247-.123-.547-.023-.671.224l-3.635 7.269-1.436-.773c-1.044-.562-2.328-.226-2.984.784-.728 1.119-1.644 2.273-2.647 3.34-.378.401-.564.944-.513 1.49.051.537.331 1.026.767 1.343.656.475 1.374.941 2.077 1.352.353.205.787.221 1.164.039.38-.183 1.173-.604 2-1.287-.099.399-.242.775-.418 1.177-.287.621.032 1.425.682 1.655l.38.141c.841.306 1.818.011 2.332-.741 1.079-1.571 1.796-3.174 2.132-4.764.207-.981-.267-1.998-1.152-2.473l-1.501-.808 3.648-7.296c.124-.247.023-.547-.224-.671zm-2.396 9.656c.496.267.762.836.646 1.385-.309 1.461-.974 2.942-1.978 4.404-.255.372-.736.52-1.168.367l-.365-.135c-.139-.062-.168-.196-.12-.318.395-.901.658-1.741.658-2.912 0-.209-.13-.396-.326-.469-.193-.072-.416-.017-.553.142-.994 1.15-2.226 1.813-2.709 2.045-.046.022-.136.05-.228 0-.674-.394-1.364-.842-1.994-1.298-.207-.149-.333-.372-.358-.627-.024-.26.065-.519.245-.71 1.06-1.125 1.987-2.296 2.758-3.48.37-.569 1.089-.762 1.672-.448l3.818 2.056zm-8.966 6.275c-1.164.337-2.499.516-3.861.516-4.065 0-7.5-1.603-7.5-3.5v-2.851c1.419 1.411 4.213 2.351 7.5 2.351.35 0 .693-.011 1.031-.032.275-.018.485-.255.468-.53-.018-.275-.256-.5-.53-.468-.317.02-.641.03-.969.03-4.065 0-7.5-1.603-7.5-3.5v-2.851c1.419 1.411 4.213 2.351 7.5 2.351 4.767 0 8.5-1.977 8.5-4.5v-5c0-2.523-3.733-4.5-8.5-4.5s-8.5 1.977-8.5 4.5v15c0 2.523 3.733 4.5 8.5 4.5 1.455 0 2.886-.191 4.139-.555.265-.077.418-.354.341-.619s-.353-.421-.62-.342zm-3.861-21.484c4.065 0 7.5 1.603 7.5 3.5s-3.435 3.5-7.5 3.5-7.5-1.603-7.5-3.5 3.435-3.5 7.5-3.5zm0 8c3.287 0 6.081-.94 7.5-2.351v2.851c0 1.897-3.435 3.5-7.5 3.5s-7.5-1.603-7.5-3.5v-2.851c1.419 1.411 4.213 2.351 7.5 2.351z"/></svg>