<?xml version="1.0" encoding="UTF-8"?>
<svg xmlns="http://www.w3.org/2000/svg" id="Layer_1" data-name="Layer 1" viewBox="0 0 24 24">
  <path d="m12,12c-.276,0-.5-.224-.5-.5v-.5h-.45c-.945,0-1.738-.524-2.022-1.335-.091-.261.046-.546.307-.637.261-.093.546.047.637.307.141.404.564.665,1.078.665h1.818c.625,0,1.132-.508,1.132-1.132,0-.512-.345-.962-.839-1.094l-2.634-.706c-.9-.246-1.527-1.067-1.527-1.998,0-1.142.929-2.07,2.07-2.07h.43v-.5c0-.276.224-.5.5-.5s.5.224.5.5v.5h.537c.859,0,1.616.518,1.929,1.318.101.257-.027.547-.284.647-.258.101-.548-.025-.648-.284-.162-.414-.553-.682-.998-.682h-1.966c-.59,0-1.07.48-1.07,1.07,0,.481.324.905.789,1.032l2.631.705c.93.25,1.58,1.098,1.58,2.061,0,1.176-.957,2.132-2.132,2.132h-.368v.5c0,.276-.224.5-.5.5Zm11.945,3.934c-2.168,7.84-10.951,8.066-11.945,8.066S2.223,23.773.054,15.934c-.132-.476-.017-.99.306-1.377.33-.395.827-.597,1.334-.555,5.583.52,8.47,4.368,9.806,6.969v-6.997c-3.626-.258-6.5-3.284-6.5-6.975,0-3.859,3.14-7,7-7s7,3.141,7,7c0,3.691-2.874,6.716-6.5,6.975v6.996c1.335-2.602,4.222-6.449,9.805-6.969.508-.042,1.004.16,1.334.555.323.387.438.901.306,1.377Zm-11.945-2.934c3.309,0,6-2.691,6-6S15.309,1,12,1s-6,2.691-6,6,2.691,6,6,6Zm-.689,9.975c-.678-1.914-3.171-7.367-9.709-7.977-.016-.002-.033-.003-.049-.003-.161,0-.317.074-.426.204-.114.136-.154.307-.109.469,1.716,6.202,8.07,7.162,10.292,7.307Zm11.562-7.776c-.108-.129-.265-.203-.426-.203-.016,0-.033,0-.049.003-6.538.609-9.03,6.062-9.708,7.977,2.223-.145,8.576-1.104,10.292-7.308.045-.161.005-.332-.109-.469Z"/>
</svg>
