<svg id="Layer_1" viewBox="0 0 24 24" xmlns="http://www.w3.org/2000/svg" data-name="Layer 1"><path d="m14.854 17.146c.195.195.195.512 0 .707s-.512.195-.707 0l-2.5-2.5c-.094-.094-.146-.221-.146-.354v-4.5c0-.276.224-.5.5-.5s.5.224.5.5v4.293l2.354 2.354zm6.146-2.146c0 4.963-4.037 9-9 9s-9-4.037-9-9c0-2.656 1.164-5.04 3-6.689v-7.306c0-.427.261-.797.664-.942.408-.147.84-.018 1.13.335l1.469 2.242 1.697-2.184c.625-.625 1.502-.574 2.035-.051l1.741 2.234 1.438-2.198c.322-.396.757-.523 1.16-.379.405.146.666.516.666.942v7.306c1.836 1.649 3 4.033 3 6.689zm-14.002-7.477c1.431-.961 3.152-1.523 5.002-1.523s3.569.562 5 1.522v-6.517l-1.809 2.769c-.089.135-.237.22-.398.226-.156.015-.315-.065-.416-.193l-2.128-2.738c-.071-.059-.38-.111-.543.051l-2.083 2.688c-.101.127-.255.199-.416.193s-.31-.091-.398-.226l-1.821-2.786.01 6.533zm13.002 7.477c0-4.411-3.589-8-8-8s-8 3.589-8 8 3.589 8 8 8 8-3.589 8-8z"/></svg>