<?xml version="1.0" encoding="UTF-8"?>
<svg xmlns="http://www.w3.org/2000/svg" id="Layer_1" data-name="Layer 1" viewBox="0 0 24 24">
  <path d="m12,14c-2.134,0-3.947,1.216-4.646,2.034-.47.55-.47,1.38,0,1.933.699.817,2.513,2.033,4.646,2.033s3.947-1.216,4.646-2.034c.469-.551.469-1.381,0-1.933-.698-.817-2.512-2.033-4.646-2.033Zm3.886,3.316c-.556.651-2.103,1.684-3.886,1.684s-3.329-1.032-3.885-1.683c-.154-.181-.154-.454,0-.634.556-.651,2.103-1.684,3.886-1.684s3.33,1.032,3.885,1.683c.154.181.154.454,0,.634Zm7.752-5.364c-.785-.826-2.371-1.495-3.638-1.778v-5.032c0-1.603-1.183-2.976-2.692-3.127-.842-.081-1.692.192-2.32.76-.003.003-.006.007-.009.01-.112-1.553-1.398-2.785-2.978-2.785-1.598,0-2.897,1.26-2.984,2.837-.463-.448-1.051-.756-1.709-.822-.844-.081-1.692.192-2.32.76-.627.568-.987,1.379-.987,2.225v5.18c-1.289.322-2.87,1.167-3.638,1.975-.335.353-.45.86-.301,1.326.147.458.514.784.98.872,2.9.55,2.957,3.043,2.958,3.146,0,4.191,2.131,6.5,6,6.5h4c3.869,0,6-2.309,6-6.5,0-.026.034-2.618,2.986-3.355.469-.117.828-.461.962-.922.132-.452.016-.927-.311-1.27Zm-.649.991c-.017.055-.072.187-.244.23-3.701.925-3.744,4.292-3.744,4.326,0,3.649-1.683,5.5-5,5.5h-4c-3.317,0-5-1.851-5-5.5,0-.034-.043-3.422-3.772-4.129-.14-.026-.193-.134-.214-.195-.014-.045-.051-.2.073-.331.636-.668,2.227-1.558,3.494-1.765.241-.04.419-.249.419-.494v-5.586c0-.564.24-1.104.658-1.483.425-.383.975-.561,1.55-.506,1.005.101,1.792,1.037,1.792,2.132v5.357c0,.276.224.5.5.5s.5-.224.5-.5V3c0-1.103.897-2,2-2s2,.897,2,2v7.5c0,.276.224.5.5.5s.5-.224.5-.5v-5.5c0-.564.24-1.104.658-1.483.425-.383.976-.561,1.55-.506,1.005.101,1.792,1.037,1.792,2.132v5.444c0,.245.178.454.419.494,1.312.214,2.879.915,3.494,1.562.108.114.094.238.075.302Zm-9.988,4.056c0,.552-.448,1-1,1s-1-.448-1-1,.448-1,1-1,1,.448,1,1Z"/>
</svg>
