<?xml version="1.0" encoding="UTF-8"?>
<svg xmlns="http://www.w3.org/2000/svg" id="Layer_1" data-name="Layer 1" viewBox="0 0 24 24">
  <path d="m23.5,20c-.276,0-.5.224-.5.5,0,1.378-1.121,2.5-2.5,2.5h-4.5v-5h2.638c1.854,0,3.362-1.508,3.362-3.362,0-2.637-1.88-4.91-4.471-5.403l-4.259-.811c-1.085-.207-1.896-1.083-2.017-2.181l-.453-4.096c-.099-.688-.482-1.308-1.054-1.703-.571-.395-1.287-.535-1.983-.379L2.606,1.427c-1.535.405-2.606,1.797-2.606,3.384v8.689c0,2.481,2.019,4.5,4.5,4.5h.5v5H.5c-.276,0-.5.224-.5.5s.224.5.5.5h20c1.93,0,3.5-1.57,3.5-3.5,0-.276-.224-.5-.5-.5ZM1,13.5V4.811c0-1.134.766-2.127,1.861-2.417l5.139-1.357c.11-.025.221-.037.331-.037.301,0,.593.091.848.267.348.241.572.604.63,1.006l.301,2.728h-3.11c-.276,0-.5.224-.5.5s.224.5.5.5h3.22l.039.353c.049.447.189.862.387,1.241l-2.752,1.672c-.236.144-.311.451-.167.687.094.155.259.24.428.24.088,0,.178-.023.259-.073l2.818-1.712c.409.42.925.731,1.51.904l-1.676,2.941c-.137.24-.053.545.187.682.078.044.163.065.247.065.174,0,.343-.091.435-.252l1.83-3.212,3.577.681c2.12.404,3.658,2.263,3.658,4.421,0,1.303-1.06,2.362-2.362,2.362H4.5c-1.93,0-3.5-1.57-3.5-3.5Zm5,4.5h9v5H6v-5Z"/>
</svg>
