<svg id="Layer_1" viewBox="0 0 24 24" xmlns="http://www.w3.org/2000/svg" data-name="Layer 1"><path d="m15.5 14.5c-.276 0-.5.224-.5.5v.996c-.921-.953-2.388-1.514-4-1.788v-9.416c1.612-.273 3.079-.834 4-1.788v.996c0 .276.224.5.5.5s.5-.224.5-.5v-3.5c0-.276-.224-.5-.5-.5s-.5.224-.5.5c0 2.581-3.358 3.5-6.5 3.5h-3c-3.033 0-5.5 2.467-5.5 5.5 0 1.66.742 3.147 1.909 4.157l3.242 8.699c.37 1.014 1.33 1.645 2.352 1.645.284 0 .572-.049.854-.151 1.295-.473 1.964-1.911 1.493-3.205l-2.046-5.644h.698c3.142 0 6.5.92 6.5 3.5 0 .276.224.5.5.5s.5-.224.5-.5v-3.5c0-.276-.224-.5-.5-.5zm-6.591 6.485c.283.777-.119 1.641-.895 1.924-.78.284-1.64-.118-1.924-.899l-2.783-7.469c.673.294 1.414.459 2.194.459h1.238zm-3.409-6.985c-2.481 0-4.5-2.019-4.5-4.5s2.019-4.5 4.5-4.5h3c.499 0 1.002-.029 1.5-.077v9.154c-.498-.047-1.001-.077-1.5-.077zm17.229-7.875-2.003-1.132c-.761-.429-1.704-.428-2.461.001l-1.997 1.131c-.782.443-1.269 1.276-1.269 2.175v2.324c0 .894.482 1.726 1.26 2.17l2.014 1.151c.382.219.812.328 1.241.328.419 0 .838-.104 1.214-.312l1.984-1.103c.794-.44 1.287-1.278 1.287-2.186v-2.373c0-.899-.487-1.733-1.271-2.177zm-3.972-.26c.229-.129.483-.193.739-.193s.51.064.737.192l2.003 1.132c.076.043.139.101.206.156l-2.941 1.633-2.933-1.643c.062-.05.121-.105.192-.146zm-2.002 6.062c-.466-.267-.756-.766-.756-1.302v-2.324c0-.106.02-.208.042-.31l2.958 1.657v3.524c-.078-.029-.157-.053-.229-.095l-2.015-1.151zm6.244-1.253c0 .545-.296 1.047-.772 1.312l-1.984 1.102c-.077.043-.161.068-.243.096v-3.532l2.961-1.644c.02.097.039.193.039.294v2.373z"/></svg>