<?xml version="1.0" encoding="UTF-8"?>
<svg xmlns="http://www.w3.org/2000/svg" id="Layer_1" data-name="Layer 1" viewBox="0 0 24 24">
  <path d="M9.5,8.5c0-1.378-1.121-2.5-2.5-2.5s-2.5,1.122-2.5,2.5,1.121,2.5,2.5,2.5,2.5-1.122,2.5-2.5Zm-4,0c0-.827,.673-1.5,1.5-1.5s1.5,.673,1.5,1.5-.673,1.5-1.5,1.5-1.5-.673-1.5-1.5Zm1.5,3.5c1.995,0,3.713,1.474,3.995,3.429,.039,.273-.15,.526-.424,.566-.267,.04-.528-.149-.566-.424-.212-1.466-1.504-2.571-3.005-2.571s-2.793,1.105-3.005,2.571c-.04,.273-.301,.456-.566,.424-.273-.04-.463-.293-.424-.566,.282-1.955,2-3.429,3.995-3.429Zm17,.5v3c0,2.481-2.019,4.5-4.5,4.5h-7v3h5c.276,0,.5,.224,.5,.5s-.224,.5-.5,.5H6.5c-.276,0-.5-.224-.5-.5s.224-.5,.5-.5h5v-3H4.5c-2.481,0-4.5-2.019-4.5-4.5V6.5C0,4.019,2.019,2,4.5,2h6c.276,0,.5,.224,.5,.5s-.224,.5-.5,.5H4.5c-1.93,0-3.5,1.57-3.5,3.5V15.5c0,1.93,1.57,3.5,3.5,3.5h15c1.93,0,3.5-1.57,3.5-3.5v-3c0-.276,.224-.5,.5-.5s.5,.224,.5,.5Zm-7.383-4.174c.386,.228,.851,.233,1.243,.016l2.244-1.247c.849-.433,.848-1.756,0-2.188l-2.244-1.247c-.796-.478-1.891,.169-1.86,1.094v2.494c0,.448,.23,.852,.617,1.079Zm.383-3.573c.025-.229,.194-.299,.374-.22l2.245,1.247c.184,.151,.184,.29,0,.44l-2.244,1.247c-.218,.074-.334,.01-.374-.22v-2.494Zm1,7.247c3.309,0,6-2.691,6-6S21.309,0,18,0s-6,2.691-6,6,2.691,6,6,6Zm0-11c2.757,0,5,2.243,5,5s-2.243,5-5,5-5-2.243-5-5S15.243,1,18,1Z"/>
</svg>
