<?xml version="1.0" encoding="UTF-8"?>
<svg xmlns="http://www.w3.org/2000/svg" id="Layer_1" data-name="Layer 1" viewBox="0 0 24 24">
  <path d="M24,3.5V7.5c0,.827-.673,1.5-1.5,1.5h-4c-.276,0-.5-.224-.5-.5s.224-.5,.5-.5h3.744c-1.639-4.193-5.729-7-10.244-7C6.09,1,1.263,5.622,1.01,11.521c-.011,.269-.233,.479-.499,.479-.007,0-.015,0-.022,0-.276-.012-.49-.245-.478-.521C.287,5.042,5.553,0,12,0c4.773,0,9.108,2.876,11,7.216V3.5c0-.276,.224-.5,.5-.5s.5,.224,.5,.5Zm-.489,8.5c-.322-.023-.51,.202-.521,.478-.252,5.9-5.079,10.521-10.989,10.521-4.515,0-8.605-2.807-10.244-7h3.744c.276,0,.5-.224,.5-.5s-.224-.5-.5-.5H1.5c-.827,0-1.5,.673-1.5,1.5v4c0,.276,.224,.5,.5,.5s.5-.224,.5-.5v-3.716c1.891,4.34,6.227,7.216,11,7.216,6.447,0,11.714-5.042,11.989-11.479,.012-.276-.203-.509-.479-.521ZM11.5,5c-.276,0-.5,.224-.5,.5v6.5c0,.167,.083,.323,.223,.416l4.5,3c.085,.057,.182,.084,.277,.084,.161,0,.319-.078,.416-.223,.153-.229,.091-.54-.139-.693l-4.277-2.852V5.5c0-.276-.224-.5-.5-.5Z"/>
</svg>
