<svg id="Layer_1" viewBox="0 0 24 24" xmlns="http://www.w3.org/2000/svg" data-name="Layer 1"><path d="m23.5 21h-1.5v-18h1.5c.276 0 .5-.224.5-.5s-.224-.5-.5-.5h-8.551c-.232-1.14-1.242-2-2.449-2h-1c-1.208 0-2.217.86-2.449 2h-8.551c-.276 0-.5.224-.5.5s.224.5.5.5h1.5v18h-1.5c-.276 0-.5.224-.5.5s.224.5.5.5h8.551c.232 1.14 1.242 2 2.449 2h1c1.208 0 2.217-.86 2.449-2h8.551c.276 0 .5-.224.5-.5s-.224-.5-.5-.5zm-12-20h1c.651 0 1.201.419 1.408 1h-3.816c.207-.581.757-1 1.408-1zm-8.5 2h15.414l-15.414 3.854zm9.5 20h-1c-.651 0-1.201-.419-1.408-1h3.816c-.207.581-.757 1-1.408 1zm8.5-2h-14.516l14.516-3.629zm0-4.659-18 4.5v-2.47l18-4.5zm0-3.5-18 4.5v-2.457l18-4.5zm0-3.487-18 4.5v-2.47l18-4.5zm0-3.5-18 4.5v-2.47l18-4.5z"/></svg>