<?xml version="1.0" encoding="UTF-8"?>
<svg xmlns="http://www.w3.org/2000/svg" id="Layer_1" data-name="Layer 1" viewBox="0 0 24 24">
  <path d="M12,2.838c0-.99-.573-1.884-1.46-2.276-.841-.373-1.779-.562-2.79-.562C5.073,0,3.703,1.339,3.7,1.35c-1.69,1.268-2.7,3.286-2.7,5.4,.024,5.872,1.044,11.144,1.836,15.809,.143,.835,.863,1.441,1.713,1.441h1.302c1.15,.029,2.008-1.171,1.67-2.256-.56-2.882-1.384-7.125-1.505-9.944,.555,.121,1.207,.2,1.734,.2,1.011,0,1.949-.189,2.789-.562,.888-.393,1.461-1.286,1.461-2.276V2.838ZM6.422,22.731c-.141,.171-.349,.269-.571,.269h-1.302c-.927,.034-.79-1.416-.966-2h2.775c.061,.317,.123,.636,.181,.935,.073,.269,.079,.576-.116,.796Zm4.578-13.57c0,.595-.34,1.129-.866,1.362-.712,.316-1.514,.476-2.384,.476-.659,0-1.572-.146-2.078-.331-.313-.124-.682,.132-.672,.469,0,2.351,.595,5.837,1.167,8.861H3.41c-.647-3.765-1.41-8.586-1.41-13.25,0-1.801,.859-3.521,2.352-4.645,.046-.045,1.159-1.105,3.398-1.105,.87,0,1.672,.16,2.385,.476,.525,.233,.865,.768,.865,1.362v6.323Zm-2-4.662v3c0,.276-.224,.5-.5,.5s-.5-.224-.5-.5v-3c0-.276,.224-.5,.5-.5s.5,.224,.5,.5Zm12.386-1.769l-.222-1.29c-.143-.835-.863-1.441-1.713-1.441h-1.302c-1.15-.029-2.008,1.171-1.67,2.256,.56,2.882,1.384,7.125,1.505,9.944-.555-.121-1.207-.2-1.734-.2-1.011,0-1.949,.189-2.789,.562-.888,.393-1.461,1.286-1.461,2.276v6.323c0,.99,.573,1.884,1.46,2.276,.841,.373,1.779,.562,2.79,.562,2.677,0,4.047-1.339,4.05-1.35,1.69-1.268,2.7-3.286,2.7-5.4,0-5.212-.933-10.591-1.614-14.519Zm-3.808-1.462c.141-.171,.349-.269,.571-.269h1.302c.361,0,.667,.256,.727,.609l.223,1.292c.005,.031,.011,.067,.017,.098h-2.775c-.042-.577-.442-1.221-.064-1.731Zm2.07,20.626c-.046,.045-1.159,1.105-3.398,1.105-.87,0-1.672-.16-2.385-.476-.525-.233-.865-.768-.865-1.362v-6.323c0-.595,.34-1.129,.866-1.362,.712-.316,1.514-.476,2.384-.476,.659,0,1.572,.146,2.078,.331,.314,.126,.681-.133,.672-.469,0-2.351-.595-5.837-1.167-8.861h2.757c.647,3.765,1.41,8.586,1.41,13.25,0,1.801-.859,3.521-2.352,4.645Zm-3.648-5.395v3c0,.276-.224,.5-.5,.5s-.5-.224-.5-.5v-3c0-.276,.224-.5,.5-.5s.5,.224,.5,.5Z"/>
</svg>
