<?xml version="1.0" encoding="UTF-8"?>
<svg xmlns="http://www.w3.org/2000/svg" id="Layer_1" data-name="Layer 1" viewBox="0 0 24 24">
  <path d="M10.5,6c0-1.103-.897-2-2-2s-2,.897-2,2,.897,2,2,2,2-.897,2-2Zm-2,1c-.552,0-1-.448-1-1s.448-1,1-1,1,.448,1,1-.448,1-1,1Zm-4.64-.013l.233-.138c-.063-.299-.094-.575-.094-.85s.03-.551,.095-.851l-.234-.138c-.345-.202-.591-.527-.691-.915-.101-.389-.044-.792,.159-1.138,.202-.345,.527-.591,.915-.691,.389-.103,.792-.045,1.139,.159l.223,.131c.407-.34,.881-.606,1.396-.786v-.271c0-.827,.673-1.5,1.5-1.5s1.5,.673,1.5,1.5v.271c.515,.18,.988,.446,1.396,.786l.223-.131c.347-.204,.749-.262,1.139-.159,.388,.101,.713,.347,.916,.692,.202,.345,.259,.748,.158,1.137-.101,.388-.347,.713-.692,.916l-.233,.137c.064,.3,.095,.576,.095,.851s-.03,.551-.094,.85l.232,.137c.346,.204,.592,.529,.692,.917,.101,.389,.044,.792-.159,1.138-.202,.345-.527,.591-.915,.691-.39,.104-.792,.045-1.139-.159l-.223-.131c-.407,.34-.881,.606-1.396,.786v.271c0,.276-.224,.5-.5,.5s-.5-.224-.5-.5v-.642c0-.228,.154-.427,.375-.484,.619-.16,1.173-.472,1.604-.903,.16-.161,.411-.192,.607-.077l.54,.318c.115,.067,.248,.086,.379,.053,.13-.033,.237-.115,.305-.23,.068-.115,.087-.25,.054-.379-.033-.13-.115-.238-.231-.307l-.555-.325c-.196-.116-.29-.35-.228-.568,.103-.361,.15-.665,.15-.955s-.048-.594-.15-.955c-.062-.219,.03-.452,.227-.567l.556-.327c.116-.068,.198-.177,.231-.306s.015-.264-.053-.378c-.068-.116-.176-.198-.306-.231s-.265-.015-.379,.053l-.54,.318c-.197,.115-.447,.084-.607-.077-.431-.432-.984-.743-1.604-.903-.221-.058-.375-.257-.375-.484v-.642c0-.275-.225-.5-.5-.5s-.5,.225-.5,.5v.642c0,.228-.154,.427-.375,.484-.619,.16-1.173,.472-1.604,.903-.16,.162-.41,.193-.607,.077l-.54-.318c-.115-.067-.249-.087-.379-.053-.13,.033-.237,.115-.305,.23-.068,.115-.087,.25-.054,.379s.115,.237,.23,.305l.557,.328c.196,.115,.289,.349,.227,.567-.103,.361-.15,.665-.15,.955s.048,.594,.15,.955c.062,.219-.031,.452-.228,.568l-.556,.326c-.115,.067-.197,.176-.23,.306-.033,.129-.015,.264,.053,.378,.068,.116,.176,.198,.306,.231,.132,.034,.266,.015,.379-.053l.54-.318c.195-.116,.446-.085,.607,.077,.431,.432,.984,.743,1.604,.903,.221,.058,.375,.257,.375,.484v.642c0,.276-.224,.5-.5,.5s-.5-.224-.5-.5v-.271c-.515-.18-.988-.446-1.396-.786l-.223,.131c-.347,.204-.75,.263-1.139,.159-.388-.101-.713-.347-.916-.692-.202-.345-.259-.748-.158-1.137,.101-.388,.347-.713,.691-.916Zm19.32,2.667c-.497-.451-1.146-.683-1.809-.651-.67,.031-1.288,.321-1.739,.817l-3.732,4.103c-.314-1.108-1.335-1.923-2.543-1.923H3.5c-1.93,0-3.5,1.57-3.5,3.5v5c0,1.93,1.57,3.5,3.5,3.5h5.965c2.706,0,5.291-1.159,7.093-3.18l6.806-7.64c.911-1.021,.829-2.604-.183-3.526Zm-.563,2.86l-6.806,7.64c-1.612,1.809-3.926,2.846-6.347,2.846H3.5c-1.379,0-2.5-1.121-2.5-2.5v-5c0-1.379,1.121-2.5,2.5-2.5H13.357c.905,0,1.643,.737,1.643,1.643,0,.812-.605,1.511-1.398,1.624l-6.161,.737c-.274,.032-.47,.281-.437,.556,.032,.274,.282,.477,.556,.437l6.172-.738c1.022-.146,1.846-.879,2.146-1.824l4.496-4.939c.271-.299,.643-.474,1.046-.492,.402-.019,.79,.12,1.088,.392,.609,.556,.658,1.507,.11,2.121Z"/>
</svg>
