<svg id="Layer_1" viewBox="0 0 24 24" xmlns="http://www.w3.org/2000/svg" data-name="Layer 1"><path d="m22.683 17.294c-.415-.223-.684-.717-.684-1.257v-8.04h.621c.665 0 1.207-.437 1.347-1.088.141-.65-.173-1.272-.801-1.555l-12.03-4.768c-3.144-1.07-5.828-.666-7.98 1.216l-2.374 2.197c-.722.632-.971 1.621-.633 2.519.337.898 1.175 1.479 2.135 1.479h2.716v15h-4.5c-.277 0-.5.223-.5.5s.224.5.5.5h15c.276 0 .5-.224.5-.5s-.224-.5-.5-.5h-4.5v-15h10v8.04c0 .917.463 1.736 1.209 2.138.488.262.791.769.791 1.322 0 .827-.673 1.5-1.5 1.5s-1.5-.673-1.5-1.5c0-.276-.224-.5-.5-.5s-.5.224-.5.5c0 1.378 1.121 2.5 2.5 2.5s2.5-1.122 2.5-2.5c0-.921-.505-1.766-1.316-2.203zm-20.399-10.297c-.654 0-1.048-.429-1.199-.83-.15-.401-.137-.984.366-1.423l2.374-2.198c1.185-1.036 2.53-1.55 4.065-1.55.9 0 1.865.177 2.9.529l11.985 4.75c.259.117.229.354.214.424s-.086.298-.369.298zm3.716 9.792v-7.586l3.793 3.793zm4-2.585v7.586l-3.793-3.793zm-4 5 3.793 3.793h-3.793zm4-7.415-3.793-3.793h3.793z"/></svg>