<?xml version="1.0" encoding="UTF-8"?>
<svg xmlns="http://www.w3.org/2000/svg" id="Layer_1" data-name="Layer 1" viewBox="0 0 24 24">
  <path d="M23.5,9h-1.504l.002-2.498c0-.936-.363-1.815-1.024-2.477-.661-.662-1.54-1.026-2.476-1.026h-3.261S13.225,.508,13.225,.508c-.654-.655-1.76-.695-2.486,.04l-1.976,2.449h-3.262s0,0,0,0c-.935,0-1.813,.364-2.475,1.025s-1.025,1.54-1.025,2.475v2.504H.5c-.276,0-.5,.224-.5,.5s.224,.5,.5,.5H9v13h-3.5c-.276,0-.5,.224-.5,.5s.224,.5,.5,.5h13c.276,0,.5-.224,.5-.5s-.224-.5-.5-.5h-3.5V10h6.473c.008,0,.014,.004,.022,.004h0c.008,0,.014-.004,.022-.004h1.983c.276,0,.5-.224,.5-.5s-.224-.5-.5-.5ZM11.482,1.215c.277-.277,.794-.238,1-.04l1.47,1.823h-3.906s1.435-1.783,1.435-1.783ZM3,6.496c0-.668,.26-1.296,.732-1.768s1.1-.732,1.768-.732h3.548s.004,.001,.006,0h5.938s.005,.003,.008,.003c.004,0,.007-.002,.01-.002h3.488c.668,0,1.296,.262,1.768,.734,.472,.473,.732,1.101,.731,1.769l-.002,2.499h-.996v-1.5c0-.827-.673-1.5-1.5-1.5s-1.5,.673-1.5,1.5v1.5h-1v-1.5c0-.827-.673-1.5-1.5-1.5s-1.5,.673-1.5,1.5v1.5h-2v-1.5c0-.827-.673-1.5-1.5-1.5s-1.5,.673-1.5,1.5v1.5h-1v-1.5c0-.827-.673-1.5-1.5-1.5s-1.5,.673-1.5,1.5v1.5h-1v-2.504Zm16,2.504h-1v-1.5c0-.276,.224-.5,.5-.5s.5,.224,.5,.5v1.5Zm-5,0v-1.5c0-.276,.224-.5,.5-.5s.5,.224,.5,.5v1.5h-1Zm0,9.043l-3.793-3.793,3.793-3.793v7.586Zm-5-9.043v-1.5c0-.276,.224-.5,.5-.5s.5,.224,.5,.5v1.5h-1Zm-3,0h-1v-1.5c0-.276,.224-.5,.5-.5s.5,.224,.5,.5v1.5Zm7.043,1l-3.043,3.043v-3.043h3.043Zm-3.043,5.457l3.793,3.793-3.75,3.75h-.043v-7.543Zm1.457,7.543l2.543-2.543v2.543h-2.543Z"/>
</svg>
