<svg id="Layer_1" viewBox="0 0 24 24" xmlns="http://www.w3.org/2000/svg" data-name="Layer 1"><path d="m7.892 9c.398 0 .755-.195.955-.521.185-.302.199-.671.038-.987-.484-.947-1.354-1.492-2.387-1.493h-.003c-1.033 0-1.903.544-2.386 1.494-.161.315-.146.684.039.986.199.326.556.52.954.52h2.792zm-2.893-1.053c.311-.611.842-.947 1.495-.947h.002c.654 0 1.186.337 1.5.951-.001.008-.027.049-.104.049h-2.792c-.077 0-.103-.041-.102-.053zm14.936 7.632c-.523 3.257-4.223 5.987-7.233 7.705-.82.468-1.753.716-2.698.716h-.009c-.945 0-1.878-.247-2.699-.716-3.328-1.899-7.294-4.911-7.296-8.477v-9.736c0-2.137 1.537-3.993 3.654-4.413 2.195-.435 4.329-.657 6.344-.658.519 0 1.029.016 1.529.042.276.015.487.25.473.526-.015.276-.259.492-.526.473-2.363-.129-4.948.066-7.625.597-1.65.328-2.849 1.771-2.849 3.433v9.736c.002 3.248 4.256 6.161 6.792 7.608.67.383 1.432.585 2.203.585h.009c.771 0 1.533-.202 2.203-.585 2.31-1.317 6.256-3.978 6.742-6.994.044-.273.3-.455.573-.415.272.044.458.301.414.573zm-1.935-11.579c-1.103 0-2 .897-2 2s.897 2 2 2 2-.897 2-2-.897-2-2-2zm0 3c-.551 0-1-.449-1-1s.449-1 1-1 1 .449 1 1-.449 1-1 1zm0 6c-.276 0-.5-.224-.5-.5v-3c0-.276.224-.5.5-.5s.5.224.5.5v3c0 .276-.224.5-.5.5zm6-7c0 2.036-1.02 3.916-2.727 5.029-.228.149-.54.087-.692-.146-.151-.231-.085-.541.146-.692 1.423-.928 2.273-2.495 2.273-4.191 0-2.757-2.243-5-5-5s-5 2.243-5 5c0 1.697.85 3.264 2.273 4.191.231.151.297.461.146.692-.152.231-.462.296-.692.146-1.708-1.113-2.727-2.994-2.727-5.029 0-3.309 2.691-6 6-6s6 2.691 6 6zm-14 11c2.151 0 4.095-1.172 5.332-3.215.25-.413.218-.929-.082-1.315-.308-.397-.816-.561-1.294-.419l-.62.19c-1.089.338-2.445.758-3.333.758h-.006c-.888 0-2.244-.42-3.333-.758l-.62-.19c-.48-.142-.987.021-1.294.419-.299.386-.332.902-.082 1.315 1.237 2.043 3.181 3.215 5.332 3.215zm-4.46-3.917c.091-.209.681.098.828.114 1.214.376 2.589.803 3.629.803h.006c1.04 0 2.416-.427 3.629-.803.19-.044.996-.419.844.07-.498.821-1.93 2.732-4.477 2.732s-3.979-1.911-4.477-2.732c-.037-.061-.031-.123.016-.185z"/></svg>