<svg id="Layer_1" viewBox="0 0 24 24" xmlns="http://www.w3.org/2000/svg" data-name="Layer 1"><path d="m12 12c-3.309 0-6 2.691-6 6s2.691 6 6 6 6-2.691 6-6-2.691-6-6-6zm0 11c-2.757 0-5-2.243-5-5s2.243-5 5-5 5 2.243 5 5-2.243 5-5 5zm1.854-3.854c.195.195.195.512 0 .707s-.512.195-.707 0l-1.5-1.5c-.094-.094-.146-.221-.146-.354v-2.5c0-.276.224-.5.5-.5s.5.224.5.5v2.293l1.354 1.354zm10.146-7.646c0 1.378-1.122 2.5-2.5 2.5h-2.5c-.276 0-.5-.224-.5-.5s.224-.5.5-.5h2.5c.827 0 1.5-.673 1.5-1.5s-.673-1.5-1.5-1.5h-4.426c-.189 0-.362-.106-.447-.275l-4.005-7.958c-.255-.468-.76-.767-1.309-.767h-.183c-.73-.021-1.308.749-1.084 1.444l2.004 6.917c.043.151.014.314-.081.439-.095.126-.243.2-.4.2h-4.446c-1.202 0-2.333-.468-3.182-1.318l-1.417-1.417c-.285-.284-.706-.347-1.07-.158-.458.225-.575.879-.319 1.305l1.614 2.825c.534.935 1.441 1.597 2.427 1.771.272.048.453.308.405.579-.047.274-.314.454-.58.405-1.275-.226-2.441-1.071-3.121-2.26l-1.614-2.824c-.541-.901-.228-2.225.731-2.691.748-.384 1.646-.246 2.233.341l1.417 1.418c.661.661 1.54 1.025 2.475 1.025h3.781l-1.819-6.278c-.42-1.311.67-2.761 2.045-2.722h.183c.916 0 1.757.5 2.195 1.303l3.875 7.697h4.118c1.378 0 2.5 1.122 2.5 2.5z"/></svg>