<svg id="Layer_1" viewBox="0 0 24 24" xmlns="http://www.w3.org/2000/svg" data-name="Layer 1"><path d="m10 10.278v-3.278c0-.737-.405-1.375-1-1.722v-2.778c0-1.378-1.122-2.5-2.5-2.5h-2c-1.378 0-2.5 1.122-2.5 2.5v2.778c-.595.347-1 .985-1 1.722v3.278c-.595.347-1 .985-1 1.722v8.5c0 1.93 1.57 3.5 3.5 3.5h4c1.93 0 3.5-1.57 3.5-3.5v-8.5c0-.737-.405-1.375-1-1.722zm-7-7.778c0-.827.673-1.5 1.5-1.5h2c.827 0 1.5.673 1.5 1.5v2.5h-5zm-1 4.5c0-.551.449-1 1-1h5c.551 0 1 .449 1 1v3h-7zm8 13.5c0 1.379-1.122 2.5-2.5 2.5h-4c-1.378 0-2.5-1.121-2.5-2.5v-8.5c0-.551.449-1 1-1h7c.551 0 1 .449 1 1zm12-4.5h-7c-1.103 0-2 .897-2 2v2.5c0 1.93 1.57 3.5 3.5 3.5h4c1.93 0 3.5-1.57 3.5-3.5v-2.5c0-1.103-.897-2-2-2zm1 4.5c0 1.379-1.122 2.5-2.5 2.5h-4c-1.378 0-2.5-1.121-2.5-2.5v-2.5c0-.552.449-1 1-1h7c.551 0 1 .448 1 1z"/></svg>