<svg id="Layer_1" viewBox="0 0 24 24" xmlns="http://www.w3.org/2000/svg" data-name="Layer 1"><path d="m16 2.028v-.528c0-.827-.673-1.5-1.5-1.5h-5c-.827 0-1.5.673-1.5 1.5v.528c-2.247.25-4 2.16-4 4.472v13c0 2.481 2.019 4.5 4.5 4.5h7c2.481 0 4.5-2.019 4.5-4.5v-13c0-2.312-1.753-4.223-4-4.472zm3 17.472c0 1.93-1.57 3.5-3.5 3.5h-7c-1.93 0-3.5-1.57-3.5-3.5v-13c0-1.93 1.57-3.5 3.5-3.5.276 0 .5-.224.5-.5v-1c0-.276.224-.5.5-.5h5c.275 0 .5.224.5.5v1c0 .276.224.5.5.5 1.93 0 3.5 1.57 3.5 3.5zm-8.46-11.383c-2.354 2.327-3.103 4.705-2.109 6.695.588 1.163 1.766 2.05 3.069 2.131v1.557c0 .276.224.5.5.5s.5-.224.5-.5v-1.543c.723-.091 1.412-.365 1.992-.828.958-.764 1.508-1.905 1.508-3.129 0-1.958-1.376-3.731-2.531-4.874-.809-.802-2.124-.808-2.929-.009zm3.329 7.23c-.4.319-.872.512-1.368.596v-2.443c0-.276-.224-.5-.5-.5s-.5.224-.5.5v2.443c-.927-.096-1.751-.745-2.175-1.579-1.059-2.121.747-4.379 1.917-5.537.418-.413 1.102-.409 1.523.009.834.826 2.234 2.465 2.234 4.163 0 .918-.412 1.774-1.132 2.347z"/></svg>