<svg id="Layer_1" viewBox="0 0 24 24" xmlns="http://www.w3.org/2000/svg" data-name="Layer 1"><path d="m16.657 14.7-2.501-1.957c-1.27-.994-3.042-.994-4.313 0l-2.5 1.957c-.854.668-1.343 1.673-1.343 2.756v3.043c0 1.93 1.57 3.5 3.5 3.5h5c1.93 0 3.5-1.57 3.5-3.5v-3.043c0-1.083-.489-2.088-1.343-2.756zm.343 5.8c0 1.378-1.121 2.5-2.5 2.5h-5c-1.379 0-2.5-1.122-2.5-2.5v-3.043c0-.774.35-1.492.96-1.969l2.499-1.957c.454-.354.997-.532 1.541-.532s1.087.178 1.54.532l2.5 1.957c.61.478.96 1.195.96 1.969zm-4.5-3.5h-1c-.827 0-1.5.673-1.5 1.5v1c0 .827.673 1.5 1.5 1.5h1c.827 0 1.5-.673 1.5-1.5v-1c0-.827-.673-1.5-1.5-1.5zm.5 2.5c0 .276-.225.5-.5.5h-1c-.275 0-.5-.224-.5-.5v-1c0-.276.225-.5.5-.5h1c.275 0 .5.224.5.5zm10.5-16.5h-8.5v-.5c0-1.378-1.121-2.5-2.5-2.5h-1c-1.379 0-2.5 1.122-2.5 2.5v.5h-8.5c-.276 0-.5.224-.5.5s.224.5.5.5h8.503c.009.787.318 1.527.875 2.086l1.621 1.621v1.793c0 .276.224.5.5.5s.5-.224.5-.5v-1.793l1.621-1.621c.558-.559.866-1.299.875-2.086h8.503c.276 0 .5-.224.5-.5s-.224-.5-.5-.5zm-9.5.964c0 .534-.208 1.036-.586 1.415l-1.414 1.414-1.414-1.414c-.378-.378-.586-.881-.586-1.415v-1.464c0-.827.673-1.5 1.5-1.5h1c.827 0 1.5.673 1.5 1.5z"/></svg>