<?xml version="1.0" encoding="UTF-8"?>
<svg xmlns="http://www.w3.org/2000/svg" id="Layer_1" data-name="Layer 1" viewBox="0 0 24 24">
  <path d="M8.8,6.803c.353,.28,.776,.42,1.2,.42s.847-.14,1.2-.42c1.083-.859,2.8-2.808,2.8-4.378,0-1.337-1.009-2.425-2.25-2.425-.689,0-1.33,.317-1.75,.796-.42-.479-1.061-.796-1.75-.796-1.241,0-2.25,1.088-2.25,2.425,0,1.57,1.717,3.519,2.8,4.378Zm-.55-5.803c.704,0,1.25,.567,1.25,1.056,0,.276,.224,.5,.5,.5s.5-.224,.5-.5c0-.488,.546-1.056,1.25-1.056,.689,0,1.25,.64,1.25,1.425,0,1.141-1.445,2.819-2.421,3.595-.341,.27-.817,.27-1.157,0-.977-.775-2.422-2.454-2.422-3.595,0-.785,.561-1.425,1.25-1.425Zm11.65,12h-.557c.055-.418,.103-.828,.143-1.222,.071-.715-.162-1.429-.641-1.958-.47-.52-1.142-.817-1.842-.817l-14.506-.003c-.7,0-1.372,.298-1.843,.818C.175,10.347-.059,11.061,.013,11.775c.331,3.322,1.255,7.733,2.315,9.363,1.165,1.792,3.179,2.861,5.388,2.861h4.068c2.209,0,4.223-1.069,5.388-2.861h0c.192-.295,.379-.684,.559-1.139h2.169c2.222,0,4.1-1.799,4.1-3.929,0-1.923-1.533-3.071-4.1-3.071Zm-8.117,10H7.716c-1.869,0-3.57-.899-4.55-2.406-.827-1.271-1.794-5.271-2.158-8.918-.043-.434,.098-.866,.388-1.187,.285-.315,.676-.489,1.101-.489l14.506,.003c.424,0,.815,.174,1.101,.489,.29,.319,.431,.752,.387,1.187-.363,3.645-1.331,7.644-2.157,8.915-.98,1.507-2.681,2.406-4.55,2.406Zm8.117-4h-1.817c.454-1.436,.842-3.248,1.115-5h.702c1.158,0,3.1,.27,3.1,2.071,0,1.561-1.448,2.929-3.1,2.929Z"/>
</svg>
