<svg id="Layer_1" viewBox="0 0 24 24" xmlns="http://www.w3.org/2000/svg" data-name="Layer 1"><path d="m12 12c3.309 0 6-2.691 6-6s-2.691-6-6-6-6 2.691-6 6 2.691 6 6 6zm0-11c2.757 0 5 2.243 5 5s-2.243 5-5 5-5-2.243-5-5 2.243-5 5-5zm9 19.875v2.625c0 .276-.224.5-.5.5s-.5-.224-.5-.5v-2.625c0-2.114-.87-4.349-2.164-5.562-.225-.211-.533-.322-.836-.304v8.491c0 .276-.224.5-.5.5s-.5-.224-.5-.5v-7.901l-2 2.507v5.393c0 .276-.224.5-.5.5s-.5-.224-.5-.5v-4.139l-.609.764c-.188.248-.595.248-.782 0l-.608-.765v4.142c0 .276-.224.5-.5.5s-.5-.224-.5-.5v-5.4l-2-2.516v7.916c0 .276-.224.5-.5.5s-.5-.224-.5-.5v-8.498c-.307-.012-.604.094-.828.301-1.299 1.214-2.172 3.453-2.172 5.571v2.625c0 .276-.224.5-.5.5s-.5-.224-.5-.5v-2.625c0-2.378 1-4.91 2.49-6.301.424-.396.981-.597 1.567-.571.593.028 1.16.298 1.553.743l3.391 4.265 3.383-4.24c.411-.463.978-.733 1.571-.76.579-.027 1.142.177 1.565.574 1.483 1.39 2.48 3.918 2.48 6.292z"/></svg>