<?xml version="1.0" encoding="UTF-8"?>
<svg xmlns="http://www.w3.org/2000/svg" id="Layer_1" data-name="Layer 1" viewBox="0 0 24 24">
  <path d="M23.995,12.789c-.081,2.19-1.177,4.235-3.005,5.61-.219,.166-.534,.123-.7-.099-.166-.221-.122-.534,.099-.7,1.587-1.193,2.537-2.961,2.606-4.849,.116-3.131-2.015-5.899-5.065-6.584-.734-.164-1.346-.636-1.677-1.294-1.414-2.821-4.468-4.324-7.598-3.745C5.918,1.638,3.704,3.821,3.146,6.563c-.167,.82-.191,1.646-.073,2.452,.13,.894-.119,1.715-.686,2.255-.894,.854-1.387,2.001-1.388,3.229,0,1.909,1.006,3.461,2.689,4.15,.256,.104,.378,.396,.273,.652-.079,.193-.267,.311-.463,.311-.063,0-.128-.012-.189-.037-2.042-.837-3.311-2.782-3.311-5.076,0-1.504,.604-2.908,1.697-3.953,.328-.313,.469-.818,.386-1.387-.134-.922-.106-1.862,.083-2.796C2.804,3.228,5.339,.729,8.474,.146c3.565-.665,7.06,1.056,8.674,4.279,.194,.389,.56,.668,1,.766,3.522,.791,5.981,3.985,5.848,7.598Zm-5.495,4.711c0,3.584-2.916,6.5-6.5,6.5s-6.5-2.916-6.5-6.5,2.916-6.5,6.5-6.5,6.5,2.916,6.5,6.5Zm-1,0c0-3.032-2.468-5.5-5.5-5.5s-5.5,2.468-5.5,5.5,2.468,5.5,5.5,5.5,5.5-2.468,5.5-5.5Zm-2.673-1.788c.304,.349,.366,.784,.191,1.167s-.546,.621-.967,.621h-1.552v3c0,.276-.224,.5-.5,.5s-.5-.224-.5-.5v-3h-1.558c-.42,0-.79-.237-.966-.618-.176-.382-.115-.817,.158-1.137l1.854-1.831c.551-.552,1.447-.553,2.002-.003l1.837,1.801Zm-.701,.713l-1.838-1.802c-.083-.083-.191-.124-.298-.124-.107,0-.213,.041-.294,.122l-.004,.004-1.827,1.802,.077,.073h4.109l.074-.075Z"/>
</svg>
