<svg id="Layer_1" viewBox="0 0 24 24" xmlns="http://www.w3.org/2000/svg" data-name="Layer 1"><path d="m24 10.127c0-5.584-4.486-10.127-10-10.127s-10 4.543-10 10.127c0 .315.022.602.056.875-2.455 1.847-4.056 4.797-4.056 8.125 0 4.781 4.169 4.839 6.661 4.873h7.216c3.027-.094 6.123-.746 6.123-4.873 0-1.5-.332-2.92-.913-4.202 2.397-.231 4.913-1.093 4.913-4.798zm-10.139 12.873h-7.19c-3.678-.051-5.671-.684-5.671-3.873 0-5.032 4.038-9.127 9-9.127s9 4.095 9 9.127c0 3.092-1.972 3.774-5.139 3.873zm4.723-9.041c-1.747-2.964-4.936-4.959-8.584-4.959-1.816 0-3.516.501-4.985 1.361-.003-.08-.015-.15-.015-.234 0-5.032 4.038-9.127 9-9.127s9 4.095 9 9.127c0 2.5-1.287 3.612-4.416 3.832zm-8.546-.959c-2.749 0-5.137 1.594-6.084 4.061-.253.66-.164 1.407.241 1.997.404.589 1.067.941 1.774.942h8.145c.708-.006 1.37-.362 1.772-.952.399-.588.488-1.332.235-1.989-.948-2.466-3.336-4.059-6.083-4.059zm5.021 5.485c-.221.324-.568.512-.949.515h-8.139c-.383 0-.729-.186-.951-.508-.222-.323-.27-.715-.132-1.073.797-2.077 2.819-3.419 5.15-3.419s4.351 1.342 5.15 3.418c.137.356.09.745-.129 1.067z"/></svg>