<svg id="Layer_1" viewBox="0 0 24 24" xmlns="http://www.w3.org/2000/svg" data-name="Layer 1"><path d="m10.999 15c0 .552-.448 1-1 1s-1-.448-1-1 .448-1 1-1 1 .448 1 1zm2-6c-.552 0-1 .448-1 1s.448 1 1 1 1-.448 1-1-.448-1-1-1zm4 9c-.552 0-1 .448-1 1s.448 1 1 1 1-.448 1-1-.448-1-1-1zm-2-2c.552 0 1-.448 1-1s-.448-1-1-1-1 .448-1 1 .448 1 1 1zm7 4c-.552 0-1 .448-1 1s.448 1 1 1 1-.448 1-1-.448-1-1-1zm1.847-3.5-.397-.354c-1.03-1.03-1.569-2.354-1.45-3.656v-6.99c0-.734-.32-1.442-.88-1.919-.56-.476-1.305-.681-2.035-.561-1.189.193-2.084 1.3-2.084 2.573v2.145l-7.072-7.084c-.465-.464-1.101-.7-1.761-.646-.654.053-1.252.392-1.64.931-.188.261-.299.558-.354.866l-.356-.356c-.464-.464-1.112-.701-1.76-.647-.655.053-1.253.393-1.641.932-.42.582-.493 1.337-.261 2.016-.699-.022-1.348.334-1.745.883-.629.872-.497 2.137.307 2.939l1.067 1.067c-.553.11-1.051.415-1.388.883-.257.355-.387.778-.396 1.208-.013.62.226 1.253.697 1.723l5.725 5.936c1.3 1.338 2.959 2.201 4.797 2.497.825.134 1.537.484 2.059 1.016l1.916 1.949c.194.197.51.199.707.006s.199-.51.006-.707l-1.916-1.949c-.672-.684-1.576-1.134-2.613-1.301-1.625-.262-3.091-1.025-4.238-2.206l-5.729-5.941c-.461-.461-.548-1.169-.202-1.648.421-.62 1.368-.701 1.881-.162l2.791 2.803c.193.195.511.195.708.002.195-.195.196-.512.001-.707l-5.165-5.178c-.461-.461-.548-1.169-.203-1.648.43-.629 1.442-.611 1.95-.081l5.161 5.16c.195.195.512.195.707 0s.195-.512 0-.707l-5.609-5.621c-.461-.461-.548-1.17-.203-1.649.42-.621 1.367-.699 1.881-.161l5.676 5.687c.195.195.512.196.707 0 .196-.194.196-.512 0-.707l-3.945-3.953s-.004-.007-.007-.01c-.461-.461-.548-1.17-.203-1.649.419-.623 1.365-.691 1.882-.161l7.44 7.452c.225.224.559.294.856.17.294-.121.484-.406.484-.725v-2.665c0-.789.535-1.471 1.244-1.587.897-.169 1.774.574 1.755 1.482.016 2.635 0 6.896 0 6.896-.146 1.6.503 3.229 1.751 4.477l.405.361c.199.191.516.184.707-.016.19-.199.184-.516-.016-.707z"/></svg>