<?xml version="1.0" encoding="UTF-8"?>
<svg xmlns="http://www.w3.org/2000/svg" id="Layer_1" data-name="Layer 1" viewBox="0 0 24 24">
  <path d="M12.5,24c.135,0-.053,.019,0,0h0Zm0,0C5,24,0,18.617,0,12S5.383,0,12,0s12,5.383,12,12c0,7-5.5,12-11.5,12Zm3.93-20h-.93c-.827,0-1.5,.673-1.5,1.5v1c0,.827-.673,1.5-1.5,1.5s-1.5,.673-1.5,1.5v1c0,.827,.673,1.5,1.5,1.5h3c1.379,0,2.5,1.121,2.5,2.5v.5c0,.106,.055,2.576,2.524,3.941,1.546-1.895,2.476-4.31,2.476-6.941,0-3.691-1.833-6.955-4.63-8.951-.472,.591-1.175,.951-1.94,.951Zm-4.43,13.5c0-.827-.673-1.5-1.5-1.5h-3.258c-.921,0-1.823-.374-2.475-1.025l-3.729-3.729c-.017,.25-.038,.5-.038,.755,0,6.065,4.935,11,11,11v-5.5Zm7.84,2.202c-2.8-1.676-2.84-4.574-2.84-4.702v-.5c0-.827-.673-1.5-1.5-1.5h-3c-1.379,0-2.5-1.122-2.5-2.5v-1c0-1.378,1.121-2.5,2.5-2.5,.275,0,.5-.224,.5-.5v-1c0-1.378,1.121-2.5,2.5-2.5h.93c.425,0,.817-.186,1.099-.495-1.627-.951-3.512-1.505-5.528-1.505C6.623,1,2.143,4.88,1.193,9.986l4.281,4.281c.466,.466,1.109,.732,1.768,.732h3.258c1.379,0,2.5,1.121,2.5,2.5v5.449c2.668-.242,5.063-1.438,6.84-3.247Z"/>
</svg>
