<svg id="Layer_1" viewBox="0 0 24 24" xmlns="http://www.w3.org/2000/svg" data-name="Layer 1"><path d="m9.802 12.486c-1.146 1.058-1.802 2.716-1.802 4.551v6.462c0 .276-.224.5-.5.5s-.5-.224-.5-.5v-6.462c0-2.113.774-4.04 2.124-5.286.702-.648 1.008-1.606.821-2.564-.203-1.036-1.03-1.886-2.058-2.116-.824-.184-1.636-.008-2.288.495-.48.373-1.123.531-1.81.451-.278-.034-.56-.019-.84.044-.955.212-1.74 1.025-1.909 1.979-.145.818.102 1.621.676 2.201.828.836 1.283 1.949 1.283 3.134v8.125c0 .276-.224.5-.5.5s-.5-.224-.5-.5v-8.125c0-.92-.353-1.783-.994-2.431-.805-.814-1.151-1.936-.948-3.078.241-1.361 1.316-2.479 2.676-2.781.392-.086.787-.106 1.176-.061.421.05.807-.038 1.079-.249.891-.689 1.998-.93 3.119-.68 1.409.315 2.542 1.48 2.82 2.9.254 1.301-.166 2.605-1.124 3.49zm13.518-9.84c-.24-1.534-1.547-2.646-3.106-2.646-1.106 0-2.077.19-2.966.582-2.251.989-4.593.529-6.164-.032-1.023-.365-2.097-.55-3.191-.55-5.768 0-6.384 4.394-6.389 4.438-.034.273.159.521.432.557.275.04.523-.157.56-.43.02-.146.537-3.564 5.397-3.564.979 0 1.939.166 2.855.492 1.741.622 4.354 1.129 6.902.005.76-.334 1.599-.497 2.563-.497 1.064 0 1.955.757 2.118 1.801.305 1.943.668 5.117.668 9.199 0 2.708-.157 5.327-.468 7.785-.232 1.833-1.811 3.215-3.671 3.215-1.082 0-2.106-.471-2.799-1.278l-5.17-6.533c-.17-.215-.484-.253-.703-.082-.216.171-.253.486-.082.703l5.183 6.547c.895 1.043 2.195 1.642 3.57 1.642 2.362 0 4.367-1.758 4.663-4.09.315-2.5.476-5.161.476-7.91 0-4.146-.37-7.375-.68-9.354z"/></svg>