<svg id="Layer_1" viewBox="0 0 24 24" xmlns="http://www.w3.org/2000/svg" data-name="Layer 1"><path d="m23.854 7.146c.195.195.195.512 0 .707s-.512.195-.707 0l-3.146-3.146-3.146 3.146c-.195.195-.512.195-.707 0s-.195-.512 0-.707l3.146-3.146-3.146-3.146c-.195-.195-.195-.512 0-.707s.512-.195.707 0l3.146 3.146 3.145-3.147c.195-.195.512-.195.707 0s.195.512 0 .707l-3.146 3.146 3.146 3.146zm.146 14.354c0 1.379-1.122 2.5-2.5 2.5h-19c-1.378 0-2.5-1.121-2.5-2.5 0-1.208.86-2.217 2-2.449v-8.551c0-2.481 2.019-4.5 4.5-4.5h7.5c.276 0 .5.224.5.5s-.224.5-.5.5h-7.5c-1.93 0-3.5 1.57-3.5 3.5v8.5h5.5c.133 0 .26.053.354.146l.854.854h4.586l.854-.854c.094-.094.221-.146.354-.146h5.5v-8.5c0-.296-.037-.591-.11-.876-.069-.267.092-.54.36-.608.269-.067.54.092.609.36.094.365.142.744.142 1.124v8.551c1.14.232 2 1.242 2 2.449zm-1 0c0-.827-.673-1.5-1.5-1.5h-5.793l-.854.854c-.094.094-.221.146-.354.146h-5c-.133 0-.26-.053-.354-.146l-.854-.854h-5.791c-.827 0-1.5.673-1.5 1.5s.673 1.5 1.5 1.5h19c.827 0 1.5-.673 1.5-1.5zm-8.609-10.932c.375.193.609.575.609.998v2.867c0 .423-.233.805-.609.998-.374.193-.822.161-1.166-.086l-1.386-.989c-.351.956-1.263 1.643-2.339 1.643h-2c-1.378 0-2.5-1.121-2.5-2.5v-1c0-1.379 1.122-2.5 2.5-2.5h2c1.076 0 1.988.687 2.339 1.643l1.386-.99c.342-.244.789-.279 1.166-.085zm-3.391 1.932c0-.827-.673-1.5-1.5-1.5h-2c-.827 0-1.5.673-1.5 1.5v1c0 .827.673 1.5 1.5 1.5h2c.827 0 1.5-.673 1.5-1.5zm3-.934c-.009-.108-.1-.155-.193-.1l-1.807 1.291v.485l1.807 1.29c.094.057.183.01.193-.099z"/></svg>