<svg id="Layer_1" viewBox="0 0 24 24" xmlns="http://www.w3.org/2000/svg" data-name="Layer 1"><path d="m15.777 9.609c.241.138.504.206.768.206.269 0 .537-.072.782-.215l2.912-1.712c.477-.281.761-.778.761-1.332s-.284-1.05-.761-1.331l-2.912-1.713c-.486-.284-1.063-.287-1.55-.009-.486.278-.777.78-.777 1.341v3.425c0 .561.291 1.062.777 1.34zm.223-4.766c0-.285.191-.425.274-.473.123-.081.378-.111.545.003l2.912 1.713c.242.142.269.375.269.469s-.026.327-.269.469l-2.912 1.712c-.243.145-.464.05-.545.003-.083-.047-.274-.188-.274-.472v-3.425zm5.612 6.685c1.456-1.193 2.388-3.004 2.388-5.029 0-3.584-2.916-6.5-6.5-6.5s-6.5 2.916-6.5 6.5c0 1.746.696 3.331 1.821 4.5h-8.321c-2.481 0-4.5 2.019-4.5 4.5v4c0 2.481 2.019 4.5 4.5 4.5h15c2.481 0 4.5-2.019 4.5-4.5v-4c0-1.689-.935-3.201-2.388-3.971zm-4.112-10.528c3.032 0 5.5 2.467 5.5 5.5s-2.468 5.5-5.5 5.5-5.5-2.467-5.5-5.5 2.468-5.5 5.5-5.5zm5.5 18.5c0 1.93-1.57 3.5-3.5 3.5h-15c-1.93 0-3.5-1.57-3.5-3.5v-4c0-1.93 1.57-3.5 3.5-3.5h9.552c1.001.63 2.181 1 3.448 1 1.136 0 2.204-.295 3.134-.809 1.416.485 2.366 1.807 2.366 3.309zm-9.5-4.5c-.827 0-1.5.673-1.5 1.5v3c0 .276.224.5.5.5s.5-.224.5-.5v-1h1v1c0 .276.224.5.5.5s.5-.224.5-.5v-3c0-.827-.673-1.5-1.5-1.5zm-.5 2.5v-1c0-.275.225-.5.5-.5s.5.225.5.5v1zm-1.75 2c0 .276-.224.5-.5.5h-1.25c-.276 0-.5-.224-.5-.5v-4c0-.276.224-.5.5-.5s.5.224.5.5v3.5h.75c.276 0 .5.224.5.5zm-4.75-4.5h-1c-.276 0-.5.224-.5.5v4c0 .276.224.5.5.5s.5-.224.5-.5v-1.5h.5c.827 0 1.5-.673 1.5-1.5s-.673-1.5-1.5-1.5zm0 2h-.5v-1h.5c.275 0 .5.225.5.5s-.225.5-.5.5zm12.225-1.342-.975 2.924v.918c0 .276-.224.5-.5.5s-.5-.224-.5-.5v-.918l-.975-2.924c-.087-.262.055-.545.316-.633.262-.086.545.055.633.316l.525 1.577.525-1.577c.089-.262.372-.402.633-.316.262.088.403.371.316.633z"/></svg>