<svg id="Layer_1" viewBox="0 0 24 24" xmlns="http://www.w3.org/2000/svg" data-name="Layer 1"><path d="m19.952 17.596c-.248-1.439-.763-2.481-1.216-3.401-.411-.833-.736-1.491-.736-2.195 0-1.109.339-2.436.612-3.503.217-.849.388-1.519.388-1.996 0-.098-.029-.195-.083-.276-.01-.014-.917-1.41-.917-3.223v-2.501c0-.267-.209-.486-.476-.499-.27-.031-.497.186-.522.451-.048.493-.202 1-.458 1.508-.614 1.224-2.793 3.04-4.544 3.04s-3.93-1.816-4.545-3.041c-.255-.507-.409-1.015-.457-1.508-.026-.265-.261-.469-.522-.451-.267.013-.476.233-.476.499v2.5c0 1.814-.907 3.209-.917 3.223-.054.082-.083.178-.083.276 0 .477.171 1.147.388 1.996.273 1.067.612 2.394.612 3.503 0 .704-.325 1.362-.736 2.195-.453.919-.968 1.961-1.215 3.4-.213 1.23.274 2.49 1.272 3.289l2.661 2.129c.795.636 1.793.986 2.811.986h2.414c1.018 0 2.016-.35 2.811-.986l2.661-2.129c.998-.799 1.485-2.059 1.273-3.289zm-1.898 2.507-2.661 2.129c-.618.495-1.394.767-2.186.767h-2.414c-.792 0-1.567-.272-2.186-.767l-2.661-2.129c-.714-.571-1.063-1.467-.912-2.338.223-1.297.703-2.269 1.127-3.128.272-.551.522-1.086.679-1.638h7.66c.276 0 .5-.224.5-.5s-.224-.5-.5-.5h-7.5c0-1.234-.356-2.63-.643-3.751-.163-.638-.318-1.244-.351-1.618.257-.436.967-1.796.992-3.535 1.03 1.362 3.111 2.904 5.001 2.904s3.971-1.542 5.001-2.904c.025 1.738.735 3.098.992 3.535-.032.374-.188.98-.351 1.618-.286 1.121-.643 2.516-.643 3.751 0 .937.407 1.763.839 2.638.424.858.904 1.831 1.128 3.128.15.871-.199 1.766-.913 2.337z"/></svg>