<?xml version="1.0" encoding="UTF-8"?>
<svg xmlns="http://www.w3.org/2000/svg" id="Layer_1" data-name="Layer 1" viewBox="0 0 24 24">
  <path d="m12.023.001s-.008,0-.012,0c-.004,0-.007,0-.01,0-.005,0-.009,0-.014,0-.002,0-.003,0-.005,0C5.373.011,0,5.389,0,12c0,.175.004.348.011.521.012.275.231.464.521.479.276-.012.49-.245.479-.521-.007-.159-.011-.318-.011-.479,0-1.412.277-2.758.764-4h4.907c-.147.454-.281.916-.385,1.395-.059.27.133.605.488.605.23,0,.438-.16.488-.395.119-.552.279-1.086.462-1.605h8.546c.438,1.246.73,2.593.73,4s-.292,2.753-.731,4h-1.769c-.276,0-.5.224-.5.5s.224.5.5.5h1.377c-1.361,3.142-3.528,5.444-4.079,5.995-.093-.002-.186-.002-.278-.006-.281-.004-.509.204-.521.479-.011.275.203.509.479.521.173.007.346.011.521.011,6.617,0,12-5.383,12-12S18.629.014,12.023.001Zm-4.991,6.999H2.214C3.86,3.793,7.027,1.495,10.762,1.074c-1.017,1.143-2.661,3.253-3.73,5.926Zm1.08,0c1.226-2.834,3.122-4.987,3.888-5.789.762.797,2.651,2.948,3.88,5.789h-7.767Zm8.859,0c-1.067-2.669-2.712-4.781-3.732-5.925,3.734.421,6.901,2.719,8.546,5.925h-4.814Zm-3.732,15.925c1.019-1.144,2.664-3.256,3.732-5.925h4.814c-1.645,3.206-4.812,5.504-8.546,5.925Zm4.091-6.925c.403-1.248.669-2.589.669-4s-.265-2.752-.669-4h4.905c.487,1.242.764,2.588.764,4s-.277,2.758-.764,4h-4.905Zm-5.054-4.267c-.678-.678-1.667-.904-2.582-.597-.014.005-8.805,3.997-8.805,3.997-.523.237-.868.763-.879,1.338-.01.574.315,1.111.829,1.369l1.938.969-2.304,2.292c-.661.661-.661,1.737,0,2.4.662.662,1.74.661,2.4,0l2.312-2.302.983,1.97c.257.511.771.828,1.369.828.575-.011,1.101-.355,1.338-.879l3.961-8.717c.342-.98.133-1.979-.561-2.67Zm-.366,2.298l-3.944,8.675c-.079.175-.254.29-.455.293-.19,0-.362-.106-.447-.276l-1.293-2.588c-.071-.144-.221-.287-.447-.276-.131,0-.259.052-.353.146l-2.803,2.791c-.271.271-.716.271-.987,0-.271-.272-.271-.715,0-.985l2.796-2.782c.114-.113.167-.275.141-.434-.025-.159-.126-.296-.27-.368l-2.56-1.279c-.171-.086-.28-.266-.276-.457.003-.191.118-.366.293-.445l8.718-3.962c.549-.185,1.142-.05,1.548.358.421.421.539,1.016.341,1.591Z"/>
</svg>
