<svg id="Layer_1" viewBox="0 0 24 24" xmlns="http://www.w3.org/2000/svg" data-name="Layer 1"><path d="m7.339 9.2c-.215.216-.34.519-.339.84 0 .322.128.624.357.85l2.478 2.238c.205.186.221.501.036.706-.185.206-.502.22-.706.036l-2.494-2.253c-.437-.43-.669-.983-.671-1.574s.227-1.146.645-1.563l2.514-2.347c.202-.188.519-.178.707.024s.177.519-.024.707l-2.502 2.334zm6.826 3.929c-.205.186-.221.501-.036.706.185.206.502.22.706.036l2.51-2.269c.42-.415.653-.968.655-1.559s-.227-1.146-.657-1.575l-2.502-2.334c-.202-.188-.518-.177-.707.024-.188.202-.177.519.024.707l2.49 2.322c.228.228.353.531.352.853 0 .322-.128.624-.341.835l-2.494 2.253zm-3.665 3.871h-.793l-.854-.854c-.094-.094-.221-.146-.354-.146h-5.499v-8.5c0-1.93 1.57-3.5 3.5-3.5h11c1.93 0 3.5 1.57 3.5 3.5v1c0 .276.224.5.5.5s.5-.224.5-.5v-1c0-2.481-2.019-4.5-4.5-4.5h-11c-2.481 0-4.5 2.019-4.5 4.5v8.551c-1.14.232-2 1.242-2 2.449 0 1.379 1.122 2.5 2.5 2.5h6c.276 0 .5-.224.5-.5s-.224-.5-.5-.5h-6c-.827 0-1.5-.673-1.5-1.5s.673-1.5 1.5-1.5h5.793l.854.854c.094.094.221.146.354.146h1c.276 0 .5-.224.5-.5s-.224-.5-.5-.5zm13.5-3.5c0 .668-.26 1.295-.732 1.768l-7.707 7.707c-.651.651-1.554 1.025-2.475 1.025h-1.586c-.276 0-.5-.224-.5-.5v-1.586c0-.936.364-1.814 1.025-2.475l7.707-7.707c.943-.944 2.592-.944 3.535 0 .472.472.732 1.1.732 1.768zm-1 0c0-.4-.156-.777-.439-1.061-.566-.566-1.555-.566-2.121 0l-7.707 7.707c-.472.472-.732 1.1-.732 1.768v1.086h1.086c.658 0 1.302-.267 1.768-.732l7.707-7.707c.283-.283.439-.66.439-1.061z"/></svg>