<svg id="Layer_1" viewBox="0 0 24 24" xmlns="http://www.w3.org/2000/svg" data-name="Layer 1"><path d="m14.5 5c1.378 0 2.5-1.121 2.5-2.5s-1.122-2.5-2.5-2.5-2.5 1.121-2.5 2.5 1.122 2.5 2.5 2.5zm0-4c.827 0 1.5.673 1.5 1.5s-.673 1.5-1.5 1.5-1.5-.673-1.5-1.5.673-1.5 1.5-1.5zm7.5 19c-1.103 0-2 .897-2 2s.897 2 2 2 2-.897 2-2-.897-2-2-2zm0 3c-.551 0-1-.448-1-1s.449-1 1-1 1 .448 1 1-.449 1-1 1zm-6.486-4.137c-.373-.849-.958-1.596-1.694-2.159l-2.047-1.566 3.272-6.263 7.235 3.572c.242.121.547.023.669-.227.123-.248.021-.548-.227-.67l-14.475-7.146c-.604-.298-1.141-.736-1.556-1.268l-2.297-2.944c-.17-.217-.484-.258-.702-.087-.218.17-.256.484-.086.702l2.296 2.944c.506.649 1.164 1.185 1.902 1.549l2.826 1.396-2.428 4.651c-.46 1.124-.05 2.412.94 3.036l4.069 3.115c.602.46 1.082 1.071 1.386 1.767l1.944 4.436c.111.255.412.366.659.257.253-.111.368-.406.257-.659l-1.944-4.436zm-6.405-7.095 2.419-4.629 2.62 1.294-3.181 6.089-1.253-.958c-.616-.39-.862-1.162-.605-1.795zm-1.218 3.919c.172.216.137.53-.078.703l-1.358 1.086c-.457.365-1.008.55-1.561.55-.481 0-.964-.14-1.388-.422l-3.283-2.188c-.23-.153-.292-.464-.139-.693.152-.23.462-.292.693-.139l3.283 2.188c.547.366 1.257.334 1.769-.077l1.358-1.086c.217-.172.53-.137.703.078z"/></svg>