<svg id="Layer_1" viewBox="0 0 24 24" xmlns="http://www.w3.org/2000/svg" data-name="Layer 1"><path d="m22 19.051v-5.551c0-.276-.224-.5-.5-.5s-.5.224-.5.5v5.5h-5.5c-.133 0-.26.053-.354.146l-.854.854h-4.586l-.854-.854c-.094-.094-.221-.146-.354-.146h-5.498v-8.5c0-1.93 1.57-3.5 3.5-3.5h8c.276 0 .5-.224.5-.5s-.224-.5-.5-.5h-8c-2.481 0-4.5 2.019-4.5 4.5v8.551c-1.14.232-2 1.242-2 2.449 0 1.378 1.121 2.5 2.5 2.5h19c1.379 0 2.5-1.122 2.5-2.5 0-1.207-.86-2.217-2-2.449zm-.5 3.949h-19c-.827 0-1.5-.673-1.5-1.5s.673-1.5 1.5-1.5h5.793l.854.854c.094.094.221.146.354.146h5c.133 0 .26-.053.354-.146l.854-.854h5.793c.827 0 1.5.673 1.5 1.5s-.673 1.5-1.5 1.5zm2.5-15.395c0 1.321-1.074 2.395-2.395 2.395h-.605v.5c0 .276-.224.5-.5.5s-.5-.224-.5-.5v-.5h-.5c-1.379 0-2.5-1.122-2.5-2.5 0-.276.224-.5.5-.5s.5.224.5.5c0 .827.673 1.5 1.5 1.5h2.105c.769 0 1.395-.626 1.395-1.395 0-.685-.49-1.263-1.165-1.375l-2.834-.473c-1.159-.193-2.001-1.186-2.001-2.362 0-1.321 1.074-2.395 2.395-2.395h.605v-.5c0-.276.224-.5.5-.5s.5.224.5.5v.5h.5c1.379 0 2.5 1.122 2.5 2.5 0 .276-.224.5-.5.5s-.5-.224-.5-.5c0-.827-.673-1.5-1.5-1.5h-2.105c-.769 0-1.395.626-1.395 1.395 0 .685.49 1.263 1.165 1.375l2.834.473c1.159.193 2.001 1.186 2.001 2.362z"/></svg>