<svg id="Layer_1" viewBox="0 0 24 24" xmlns="http://www.w3.org/2000/svg" data-name="Layer 1"><path d="m12 0c-6.617 0-12 5.383-12 12v7.5c0 2.481 2.019 4.5 4.5 4.5h7.5c6.617 0 12-5.383 12-12s-5.383-12-12-12zm0 23h-7.5c-1.93 0-3.5-1.57-3.5-3.5v-7.5c0-6.065 4.935-11 11-11s11 4.935 11 11-4.935 11-11 11zm6-16.5v3.5c0 .551-.449 1-1 1h-3.5c-.276 0-.5-.224-.5-.5s.224-.5.5-.5h3.069c-.789-1.809-2.559-3-4.569-3-2.757 0-5 2.243-5 5s2.243 5 5 5c2.228 0 4.207-1.495 4.812-3.636.075-.266.351-.423.617-.345.266.075.42.351.345.617-.727 2.569-3.101 4.364-5.774 4.364-3.309 0-6-2.691-6-6s2.691-6 6-6c2.062 0 3.911 1.047 5 2.704v-2.204c0-.276.224-.5.5-.5s.5.224.5.5z"/></svg>