<svg id="Layer_1" viewBox="0 0 24 24" xmlns="http://www.w3.org/2000/svg" data-name="Layer 1"><path d="m17 0c-2.206 0-4 1.794-4 4s1.794 4 4 4 4-1.794 4-4-1.794-4-4-4zm0 7c-1.654 0-3-1.346-3-3s1.346-3 3-3 3 1.346 3 3-1.346 3-3 3zm-7.5 2c-.276 0-.5.224-.5.5v5.551c-1.14.232-2 1.242-2 2.449 0 1.379 1.122 2.5 2.5 2.5s2.5-1.121 2.5-2.5c0-1.208-.86-2.217-2-2.449v-5.551c0-.276-.224-.5-.5-.5zm1.5 8.5c0 .827-.673 1.5-1.5 1.5s-1.5-.673-1.5-1.5.673-1.5 1.5-1.5 1.5.673 1.5 1.5zm3-4.681c1.274 1.225 2 2.918 2 4.681 0 1.964-.875 3.803-2.4 5.044-1.168.951-2.616 1.454-4.112 1.454-2.988 0-5.763-2.184-6.347-5.13-.461-2.244.233-4.488 1.859-6.049v-8.319c0-2.481 2.019-4.5 4.5-4.5.792 0 1.57.208 2.25.603.239.139.321.444.182.684s-.446.319-.683.182c-.528-.306-1.133-.468-1.75-.468-1.93 0-3.5 1.57-3.5 3.5v8.536c0 .142-.061.277-.166.372-1.478 1.325-2.118 3.29-1.714 5.258.429 2.086 2.115 3.778 4.195 4.21 1.665.346 3.363-.058 4.654-1.108s2.031-2.606 2.031-4.269c0-1.554-.668-3.045-1.834-4.091-.105-.095-.166-.23-.166-.372v-4.037c0-.276.224-.5.5-.5s.5.224.5.5v3.819z"/></svg>