<?xml version="1.0" encoding="UTF-8"?>
<svg xmlns="http://www.w3.org/2000/svg" id="Layer_1" data-name="Layer 1" viewBox="0 0 24 24">
  <path d="m9.85,17.035l-2.809-6.846,1.737-4.234c.754-1.762,1.222-3.288,1.222-5.455,0-.276-.224-.5-.5-.5s-.5.224-.5.5c0,1.996-.437,3.416-1.145,5.068l-1.355,3.303-1.359-3.311c-.705-1.645-1.142-3.064-1.142-5.061,0-.276-.224-.5-.5-.5s-.5.224-.5.5c0,2.167.468,3.693,1.219,5.447l1.741,4.242-2.809,6.846c-1.764.179-3.15,1.655-3.15,3.465,0,1.93,1.57,3.5,3.5,3.5,1.28,0,2.39-.698,3-1.726.61,1.028,1.72,1.726,3,1.726,1.93,0,3.5-1.57,3.5-3.5,0-1.81-1.386-3.286-3.15-3.465Zm-1.065.039c-.975.203-1.791.82-2.285,1.651-.494-.831-1.31-1.448-2.285-1.651l2.285-5.568,2.285,5.568Zm-5.285,5.925c-1.379,0-2.5-1.121-2.5-2.5s1.121-2.5,2.5-2.5,2.5,1.121,2.5,2.5-1.121,2.5-2.5,2.5Zm6,0c-1.379,0-2.5-1.121-2.5-2.5s1.121-2.5,2.5-2.5,2.5,1.121,2.5,2.5-1.121,2.5-2.5,2.5Zm7.5-18v3h6.5c.276,0,.5.224.5.5s-.224.5-.5.5h-6.5v3h6.5c.276,0,.5.224.5.5s-.224.5-.5.5h-6.5v3h6.5c.276,0,.5.224.5.5s-.224.5-.5.5h-6.5v6.5c0,.276-.224.5-.5.5s-.5-.224-.5-.5V3.5c0-1.93,1.57-3.5,3.5-3.5h4c.276,0,.5.224.5.5s-.224.5-.5.5h-4c-1.379,0-2.5,1.121-2.5,2.5v.5h6.5c.276,0,.5.224.5.5s-.224.5-.5.5h-6.5Z"/>
</svg>
