<svg id="Layer_1" viewBox="0 0 24 24" xmlns="http://www.w3.org/2000/svg" data-name="Layer 1"><path d="m19 4v-3.5c0-.276.224-.5.5-.5s.5.224.5.5v3.5h3.5c.276 0 .5.224.5.5s-.224.5-.5.5h-3.5v3.5c0 .276-.224.5-.5.5s-.5-.224-.5-.5v-3.5h-3.5c-.276 0-.5-.224-.5-.5s.224-.5.5-.5zm-3 6c0 2.206-1.794 4-4 4s-4-1.794-4-4 1.794-4 4-4 4 1.794 4 4zm-1 0c0-1.654-1.346-3-3-3s-3 1.346-3 3 1.346 3 3 3 3-1.346 3-3zm8.479-1.509c.346 1.134.521 2.314.521 3.509 0 6.617-5.383 12-12 12s-12-5.383-12-12 5.383-12 12-12c1.247 0 2.477.19 3.652.566.263.084.408.365.324.628-.085.263-.367.409-.629.324-1.077-.344-2.204-.519-3.348-.519-6.064.001-10.999 4.936-10.999 11.001 0 3.874 2.018 7.28 5.054 9.24.375-2.95 2.896-5.24 5.946-5.24s5.571 2.29 5.946 5.24c3.035-1.96 5.054-5.366 5.054-9.24 0-1.096-.16-2.178-.478-3.217-.08-.264.068-.544.333-.624.264-.083.543.069.624.332zm-11.479 14.509c1.793 0 3.482-.44 4.979-1.204-.11-2.66-2.292-4.796-4.979-4.796s-4.87 2.135-4.979 4.796c1.497.764 3.186 1.204 4.979 1.204z"/></svg>