<svg id="Layer_1" viewBox="0 0 24 24" xmlns="http://www.w3.org/2000/svg" data-name="Layer 1"><path d="m23.5 20c-.82 0-1.63-.33-2.21-.91l-3.09-3.09 1-1h4.29c.28 0 .5-.22.5-.5s-.22-.5-.5-.5h-22.99c-.28 0-.5.22-.5.5s.22.5.5.5h1.79l2.25 2.25-4.39 4.4c-.2.2-.2.51 0 .71s.51.2.71 0l4.4-4.4 1.75 1.75v3.79c0 .28.22.5.5.5s.5-.22.5-.5v-3.5h5.79l3.85 3.85c.2.2.51.2.71 0s.2-.51 0-.71l-3.65-3.65 2.79-2.79 3.09 3.09c.77.77 1.83 1.21 2.91 1.21.28 0 .5-.22.5-.5s-.22-.5-.5-.5zm-9.71-1h-6.09l-4-4h14.09zm-6.99-10.01c.14.24.45.32.68.18l1.34-.77c.65.85 1.62 1.43 2.74 1.55l-.06 1.52c-.01.28.2.51.48.52h.02c.27 0 .49-.21.5-.48l.07-1.58c1.06-.15 1.99-.72 2.61-1.54l1.34.77c.24.14.54.06.68-.18s.06-.54-.18-.68l-1.33-.76c.2-.48.31-1 .31-1.55s-.11-1.07-.31-1.55l1.33-.76c.24-.14.32-.44.18-.68s-.45-.32-.68-.18l-1.34.77c-.63-.84-1.58-1.41-2.67-1.54v-1.55c0-.28-.22-.5-.5-.5s-.5.22-.5.5v1.55c-1.09.14-2.04.71-2.67 1.54l-1.34-.77c-.24-.14-.54-.06-.68.18s-.06.54.18.68l1.33.76c-.2.48-.31 1-.31 1.55s.11 1.07.31 1.55l-1.33.76c-.24.14-.32.44-.18.68zm5.2-5.99c1.66 0 3 1.34 3 3s-1.34 3-3 3-3-1.34-3-3 1.34-3 3-3z"/></svg>