<?xml version="1.0" encoding="UTF-8"?>
<svg xmlns="http://www.w3.org/2000/svg" id="Layer_1" data-name="Layer 1" viewBox="0 0 24 24">
  <path d="M4,7.5c0,1.93,1.57,3.5,3.5,3.5s3.5-1.57,3.5-3.5-1.57-3.5-3.5-3.5-3.5,1.57-3.5,3.5Zm6,0c0,1.378-1.122,2.5-2.5,2.5s-2.5-1.122-2.5-2.5,1.122-2.5,2.5-2.5,2.5,1.122,2.5,2.5Zm7.835,8.166c.205,.185,.221,.501,.037,.707-.186,.204-.501,.22-.707,.037l-4.438-4c-.604-.537-1.53-.544-2.148-.019-.685,.558-.774,1.653-.188,2.314l3.806,5.481c.525,.757,.803,1.644,.803,2.565v.748c0,.276-.224,.5-.5,.5s-.5-.224-.5-.5v-.748c0-.717-.216-1.407-.625-1.995l-.862-1.242c-.623,.313-1.311,.486-2.013,.486H4.5c-2.481,0-4.5-2.019-4.5-4.5V7.5C0,3.364,3.364,0,7.5,0s7.5,3.364,7.5,7.5v2.077c0,.276-.224,.5-.5,.5s-.5-.224-.5-.5v-2.077c0-3.584-2.916-6.5-6.5-6.5S1,3.916,1,7.5V15.5c0,1.93,1.57,3.5,3.5,3.5h6c.499,0,.988-.111,1.438-.314l-2.339-3.372c-.908-1.021-.755-2.817,.333-3.686,.997-.845,2.484-.831,3.462,.035l4.441,4.002Zm6.165,1.733v6.101c0,.276-.224,.5-.5,.5s-.5-.224-.5-.5v-6.101c0-2.656-1.123-5.208-3.081-7.003l-2.757-2.527c-.204-.187-.217-.503-.031-.707,.187-.203,.503-.218,.707-.031l2.757,2.527c2.164,1.983,3.405,4.805,3.405,7.74Z"/>
</svg>
