<svg id="Layer_1" viewBox="0 0 24 24" xmlns="http://www.w3.org/2000/svg" data-name="Layer 1"><path d="m15 17v2.5h2.5c.276 0 .5.224.5.5s-.224.5-.5.5h-2.5v2.5h2.5c.276 0 .5.224.5.5s-.224.5-.5.5h-2.5c-.552 0-1-.449-1-1v-6c0-.551.448-1 1-1h2.5c.276 0 .5.224.5.5s-.224.5-.5.5zm-2.5 0c.276 0 .5-.224.5-.5s-.224-.5-.5-.5h-2.5c-.551 0-1 .449-1 1v6.5c0 .276.224.5.5.5s.5-.224.5-.5v-3h2.5c.276 0 .5-.224.5-.5s-.224-.5-.5-.5h-2.5v-2.5zm11.5 4.75c0 1.241-1.01 2.25-2.25 2.25h-1.75c-.552 0-1-.449-1-1v-6c0-.551.448-1 1-1h1.25c1.24 0 2.25 1.009 2.25 2.25 0 .602-.237 1.149-.623 1.553.671.39 1.123 1.117 1.123 1.947zm-4-2.25h1.25c.689 0 1.25-.561 1.25-1.25s-.561-1.25-1.25-1.25h-1.25zm3 2.25c0-.689-.561-1.25-1.25-1.25h-1.75v2.5h1.75c.689 0 1.25-.561 1.25-1.25zm1-15.25v7c0 .276-.224.5-.5.5s-.5-.224-.5-.5v-4.5h-22v10.5c0 1.93 1.57 3.5 3.5 3.5h2c.276 0 .5.224.5.5s-.224.5-.5.5h-2c-2.481 0-4.5-2.019-4.5-4.5v-13c0-2.481 2.019-4.5 4.5-4.5h1.5v-1.5c0-.276.224-.5.5-.5s.5.224.5.5v1.5h10v-1.5c0-.276.224-.5.5-.5s.5.224.5.5v1.5h1.5c2.481 0 4.5 2.019 4.5 4.5zm-1 1.5v-1.5c0-1.93-1.57-3.5-3.5-3.5h-15c-1.93 0-3.5 1.57-3.5 3.5v1.5z"/></svg>