<svg id="Layer_1" viewBox="0 0 24 24" xmlns="http://www.w3.org/2000/svg" data-name="Layer 1"><path d="m24 8.5v9.708c0 2.177-1.554 4.038-3.695 4.428l-6.719 1.222c-.526.096-1.056.143-1.585.143s-1.06-.047-1.585-.143l-6.719-1.222c-2.141-.39-3.695-2.251-3.695-4.428v-9.708c0-1.219.479-2.359 1.348-3.212.872-.854 2.006-1.331 3.234-1.288.276.006.495.234.49.51s-.241.501-.51.49c-.94-.048-1.835.337-2.514 1.003-.675.662-1.047 1.549-1.047 2.497v9.708c0 1.692 1.208 3.141 2.874 3.443l6.719 1.222c.301.055.604.085.907.105v-6.478c0-.276.224-.5.5-.5s.5.224.5.5v6.478c.303-.019.606-.05.907-.105l6.719-1.222c1.666-.303 2.874-1.751 2.874-3.443v-9.708c0-1.597-1.08-2.991-2.625-3.391-.268-.069-.428-.342-.359-.609.068-.268.34-.428.609-.359 1.987.514 3.375 2.307 3.375 4.359zm-11.271 5.421c.229.148.541.084.691-.15l1.83-2.846 1.83 2.846c.15.234.462.298.691.15.232-.149.299-.459.15-.691l-2.076-3.229 2.076-3.229c.149-.232.082-.542-.15-.691-.233-.148-.542-.082-.691.15l-1.83 2.846-1.83-2.846c-.149-.231-.457-.298-.691-.15-.232.149-.299.459-.15.691l2.076 3.229-2.076 3.229c-.149.232-.082.542.15.691zm-6.229-5.921h1.5v5.5c0 .276.224.5.5.5s.5-.224.5-.5v-5.5h1.5c.276 0 .5-.224.5-.5s-.224-.5-.5-.5h-1.5v-4.5c0-.827.673-1.5 1.5-1.5.276 0 .5-.224.5-.5s-.224-.5-.5-.5c-1.378 0-2.5 1.121-2.5 2.5v4.5h-1.5c-.276 0-.5.224-.5.5s.224.5.5.5z"/></svg>