<svg id="Layer_1" viewBox="0 0 24 24" xmlns="http://www.w3.org/2000/svg" data-name="Layer 1"><path d="m18 3v10c0 1.654-1.346 3-3 3h-2.5c-.276 0-.5-.224-.5-.5s.224-.5.5-.5h2.5c1.103 0 2-.897 2-2v-1h-2.5c-.276 0-.5-.224-.5-.5s.224-.5.5-.5h2.5v-8c0-1.103-.897-2-2-2h-5c-1.103 0-2 .897-2 2v4.5c0 .276-.224.5-.5.5s-.5-.224-.5-.5v-2.354l-4.243 3.94c-1.116 1.037-1.757 2.506-1.757 4.03v8.384c0 .827.673 1.5 1.5 1.5h3c.827 0 1.5-.673 1.5-1.5v-3.852c0-.101.03-.198.086-.281l3.586-5.281c.476-.564.412-1.349-.109-1.792-.465-.396-1.165-.389-1.626.017l-3.536 3.243c-.202.187-.519.174-.706-.03-.187-.203-.173-.52.03-.707l3.543-3.249c.835-.74 2.096-.754 2.943-.036.94.8 1.056 2.216.256 3.158l-3.467 5.111v3.698c0 1.379-1.121 2.5-2.5 2.5h-3c-1.379 0-2.5-1.121-2.5-2.5v-8.384c0-1.801.757-3.538 2.077-4.763l4.923-4.57v-.782c0-1.654 1.346-3 3-3h5c1.654 0 3 1.346 3 3zm-5.5 20h-2c-.276 0-.5.224-.5.5s.224.5.5.5h2c.276 0 .5-.224.5-.5s-.224-.5-.5-.5zm5 0h-2c-.276 0-.5.224-.5.5s.224.5.5.5h2c.276 0 .5-.224.5-.5s-.224-.5-.5-.5zm6-8c-.276 0-.5.224-.5.5v2c0 .276.224.5.5.5s.5-.224.5-.5v-2c0-.276-.224-.5-.5-.5zm0 5c-.276 0-.5.224-.5.5v1.5c0 .551-.448.999-1 .999h-1.5c-.276 0-.5.226-.5.501s.224.5.5.5h1.5c1.103 0 2-.897 2-2v-1.5c0-.276-.224-.5-.5-.5zm-.086-10.415c-.378-.377-.88-.585-1.413-.585h-1.502c-.275.002-.499.226-.499.502s.224.5.5.5h1.501c.267-.001.518.103.706.291.189.188.293.439.293.706v1.501c0 .276.224.5.5.5s.5-.224.5-.5v-1.501c0-.534-.208-1.036-.586-1.414z"/></svg>