<svg id="Layer_1" viewBox="0 0 24 24" xmlns="http://www.w3.org/2000/svg" data-name="Layer 1"><path d="m15.5 13c-.276 0-.5.224-.5.5v3.5h-14v-12.5c0-1.93 1.57-3.5 3.5-3.5h7c.276 0 .5-.224.5-.5s-.224-.5-.5-.5h-7c-2.481 0-4.5 2.019-4.5 4.5v15c0 2.481 2.019 4.5 4.5 4.5h7c2.481 0 4.5-2.019 4.5-4.5v-6c0-.276-.224-.5-.5-.5zm-.5 6.5c0 1.93-1.57 3.5-3.5 3.5h-7c-1.93 0-3.5-1.57-3.5-3.5v-1.5h14zm-9 1c0-.276.224-.5.5-.5h3c.276 0 .5.224.5.5s-.224.5-.5.5h-3c-.276 0-.5-.224-.5-.5zm15.945-17.301c.193.197.191.513-.006.707l-2.006 1.975c-.39.384-.903.576-1.417.576s-1.022-.19-1.412-.571l-.925-.903c-.197-.193-.201-.51-.008-.708.194-.197.51-.201.708-.008l.925.904c.395.386 1.036.384 1.429-.002l2.006-1.975c.197-.194.512-.191.707.006zm-13.586 11.998c-.215-.173-.249-.488-.076-.703.253-.315.555-.768.826-1.243.137-.239.441-.323.683-.186.239.137.323.443.186.683-.174.304-.525.888-.916 1.373-.174.216-.489.249-.703.076zm1.848-3.278c-.271-.053-.448-.315-.395-.586.188-.966.188-1.844.188-2.368 0-1.083-.881-1.964-1.964-1.964-.557 0-1.09.239-1.462.655-.185.207-.5.224-.706.039-.206-.184-.223-.5-.039-.706.562-.628 1.367-.988 2.208-.988 1.634 0 2.964 1.33 2.964 2.964 0 .561 0 1.499-.207 2.56-.051.273-.322.448-.586.395zm-7.207.524c.082 0 2.006-.039 2.006-3.446 0-.276.224-.5.5-.5s.5.224.5.5c0 3.517-1.966 4.446-3.006 4.446-.276 0-.5-.224-.5-.5s.224-.5.5-.5zm.5-1.942c-.276 0-.5-.224-.5-.5v-1c0-2.757 2.252-5 5.021-5 1.086 0 2.119.345 2.988.999.221.166.265.479.099.7s-.479.266-.7.099c-.694-.521-1.52-.797-2.387-.797-2.217 0-4.021 1.794-4.021 4v1c0 .276-.224.5-.5.5zm8.333-3.922c.251-.12.548-.016.668.231.331.68.498 1.41.498 2.17 0 1.006 0 3.363-1.073 5.666-.117.253-.42.357-.665.242-.25-.117-.358-.414-.242-.665.979-2.102.979-4.303.979-5.243 0-.607-.134-1.19-.397-1.732-.121-.249-.017-.548.231-.668zm-7.046 8.416c-.146-.234-.074-.543.161-.689 2.647-1.646 2.589-3.833 2.558-5.007l-.005-.299c0-.276.224-.5.5-.5s.5.224.5.5l.005.272c.031 1.177.104 3.934-3.03 5.883-.231.144-.542.076-.689-.161zm18.481-14.263c-.473-.472-1.1-.732-1.768-.732h-5c-1.379.002-2.5 1.124-2.5 2.502v7.359c.001.438.246.831.639 1.024.391.193.852.15 1.2-.119l2.303-1.767h3.358c1.378 0 2.5-1.122 2.5-2.5v-3.999c0-.668-.26-1.296-.732-1.768zm-.268 5.768c0 .827-.673 1.5-1.5 1.5h-3.528c-.11 0-.217.036-.304.104l-2.438 1.87c-.057.045-.113.033-.149.015s-.079-.054-.079-.127v-7.36c-.002-.827.671-1.5 1.498-1.5h5s0-.001 0-.001c.4 0 .777.156 1.061.439.283.284.439.66.439 1.061z"/></svg>