<?xml version="1.0" encoding="UTF-8"?>
<svg xmlns="http://www.w3.org/2000/svg" id="Layer_1" data-name="Layer 1" viewBox="0 0 24 24">
  <path d="M18.2,13c1.687,0,3.306-.716,4.44-1.965,1.151-1.266,1.694-2.908,1.531-4.623-.289-3.035-3.017-5.412-6.208-5.412h-.964V.5c0-.276-.224-.5-.5-.5s-.5,.224-.5,.5v.5h-7.206C5.295,1,2.125,2.934,.522,6.047c-.753,1.461-.684,3.183,.183,4.606,.896,1.469,2.453,2.347,4.164,2.347h11.131v3.049c-1.81,.24-3,1.757-3,3.951,0,2.393,1.406,4,3.5,4s3.5-1.607,3.5-4c0-2.194-1.19-3.711-3-3.951v-3.049h1.2Zm-4.2,7c0-1.248,.541-2.674,2-2.943v5.887c-1.459-.27-2-1.695-2-2.943Zm5,0c0,1.248-.541,2.674-2,2.943v-5.887c1.459,.27,2,1.695,2,2.943ZM1.559,10.132c-.685-1.123-.74-2.479-.148-3.627C2.842,3.727,5.671,2,8.794,2h9.169c2.682,0,4.972,1.979,5.212,4.507,.137,1.431-.315,2.8-1.274,3.855-.946,1.041-2.295,1.638-3.701,1.638H4.869c-1.36,0-2.597-.698-3.31-1.868ZM20,5c0-1.103-.897-2-2-2h-7c-1.103,0-2,.897-2,2s.897,2,2,2h7c1.103,0,2-.897,2-2Zm-10,0c0-.551,.449-1,1-1h7c.552,0,1,.449,1,1s-.448,1-1,1h-7c-.551,0-1-.449-1-1Z"/>
</svg>
