<?xml version="1.0" encoding="UTF-8"?>
<svg xmlns="http://www.w3.org/2000/svg" id="Layer_1" data-name="Layer 1" viewBox="0 0 24 24">
  <path d="m20,3.051v-.55c0-.792-.362-1.519-.994-1.996-.633-.477-1.43-.625-2.193-.408l-3.396.971c-.584.167-1.077.527-1.416.999-.34-.472-.833-.832-1.417-1L7.187.097c-.761-.217-1.56-.068-2.192.408-.632.477-.995,1.205-.995,1.996v.55C1.756,3.303,0,5.19,0,7.5v8c0,2.481,2.019,4.5,4.5,4.5h7v3h-4c-.276,0-.5.224-.5.5s.224.5.5.5h9c.276,0,.5-.224.5-.5s-.224-.5-.5-.5h-4v-3h7c2.481,0,4.5-2.019,4.5-4.5V7.5c0-2.31-1.756-4.197-4-4.449Zm-7.5.558c0-.729.49-1.379,1.191-1.58l3.396-.97c.138-.04.277-.059.416-.059.321,0,.635.104.899.304.379.286.597.722.597,1.197v6.21c0,.888-.597,1.679-1.451,1.923l-4.038,1.154c-.332.095-.67.158-1.011.189V3.609Zm-7.5-1.108c0-.475.218-.912.597-1.198.265-.199.579-.303.899-.303.139,0,.278.02.417.059l3.396.97c.702.201,1.192.851,1.192,1.58v8.369c-.34-.031-.679-.094-1.011-.189l-4.039-1.154c-.854-.244-1.45-1.035-1.45-1.923V2.501Zm18,12.999c0,1.93-1.57,3.5-3.5,3.5H4.5c-1.93,0-3.5-1.57-3.5-3.5V7.5c0-1.758,1.308-3.204,3-3.449v4.661c0,1.333.895,2.519,2.176,2.885l4.039,1.154c.584.167,1.185.25,1.786.25s1.202-.083,1.786-.25l4.038-1.154c1.281-.366,2.176-1.552,2.176-2.885v-4.661c1.692.245,3,1.691,3,3.449v8Z"/>
</svg>
