<svg id="Layer_1" viewBox="0 0 24 24" xmlns="http://www.w3.org/2000/svg" data-name="Layer 1"><path d="m17.5 0c-3.584 0-6.5 2.916-6.5 6.5s2.916 6.5 6.5 6.5 6.5-2.916 6.5-6.5-2.916-6.5-6.5-6.5zm0 12c-3.032 0-5.5-2.467-5.5-5.5s2.468-5.5 5.5-5.5 5.5 2.467 5.5 5.5-2.468 5.5-5.5 5.5zm-.5-4.5v-5c0-.276.224-.5.5-.5s.5.224.5.5v5c0 .276-.224.5-.5.5s-.5-.224-.5-.5zm1.5 2.5c0 .552-.448 1-1 1s-1-.448-1-1 .448-1 1-1 1 .448 1 1zm3 4c-.276 0-.5.224-.5.5v5c0 .537-.132 1.04-.349 1.496l-5.613-5.81c-.696-.718-1.632-1.118-2.633-1.125-1.005-.011-1.943.378-2.651 1.086l-7.235 7.234c-.916-.632-1.519-1.686-1.519-2.881v-13c0-1.93 1.57-3.5 3.5-3.5h5c.276 0 .5-.224.5-.5s-.224-.5-.5-.5h-5c-2.481 0-4.5 2.019-4.5 4.5v13c-.003 2.496 2.079 4.483 4.5 4.5h13c2.481 0 4.5-2.019 4.5-4.5v-5c0-.276-.224-.5-.5-.5zm-4 9h-13c-.356 0-.693-.069-1.017-.169l6.978-6.978c.517-.517 1.181-.82 1.937-.793.731.005 1.414.297 1.923.821l5.76 5.962c-.641.705-1.555 1.156-2.58 1.156zm-13.5-13.5c0 1.378 1.122 2.5 2.5 2.5s2.5-1.122 2.5-2.5-1.122-2.5-2.5-2.5-2.5 1.122-2.5 2.5zm4 0c0 .827-.673 1.5-1.5 1.5s-1.5-.673-1.5-1.5.673-1.5 1.5-1.5 1.5.673 1.5 1.5z"/></svg>