<?xml version="1.0" encoding="UTF-8"?>
<svg xmlns="http://www.w3.org/2000/svg" id="Layer_1" data-name="Layer 1" viewBox="0 0 24 24">
  <path d="m6,6.319v2.681c0,3.309,2.691,6,6,6s6-2.691,6-6v-2.686c.968-.486,1.962-1.219,1.962-2.533,0-2.438-2.841-3.781-8-3.781S3.962,1.343,3.962,3.781c0,1.316.986,2.031,2.038,2.538Zm6,7.681c-2.757,0-5-2.243-5-5v-.745c.868.314,2.503.745,5,.745s4.132-.43,5-.745v.745c0,2.757-2.243,5-5,5Zm-.038-13c4.383,0,7,1.04,7,2.781,0,.705-.484,1.216-1.672,1.765-.177.082-.29.259-.29.454v1.183c-.593.252-2.233.817-5,.817s-4.408-.565-5-.816v-1.184c0-.197-.116-.376-.296-.457-1.254-.56-1.742-1.054-1.742-1.762,0-1.742,2.617-2.781,7-2.781Zm7.038,15h-2.395c-1.173,0-2.261.583-2.912,1.559l-1.693,2.54-2.139-3.208c-.372-.558-.994-.891-1.664-.891h-3.197c-1.103,0-2,.897-2,2v2.5c0,1.93,1.57,3.5,3.5,3.5h11c1.93,0,3.5-1.57,3.5-3.5v-2.5c0-1.103-.897-2-2-2Zm-1.5,7H6.5c-1.379,0-2.5-1.122-2.5-2.5v-1.5h2.5c.276,0,.5-.224.5-.5s-.224-.5-.5-.5h-2.5c0-.551.448-1,1-1h3.197c.335,0,.646.167.832.445l2.555,3.832c.093.139.249.223.416.223s.323-.083.416-.223l2.109-3.164c.465-.697,1.242-1.113,2.08-1.113h2.395c.552,0,1,.449,1,1h-2.5c-.276,0-.5.224-.5.5s.224.5.5.5h2.5v1.5c0,1.378-1.121,2.5-2.5,2.5ZM9.686,4.247c-.133-.113-.182-.297-.121-.461.06-.164.216-.273.391-.273h1.25l.443-1.242c.061-.163.216-.271.39-.271s.33.108.39.271l.443,1.242h1.25c.175,0,.331.109.391.274.06.164.011.349-.123.462l-.986.803.408,1.242c.056.168,0,.353-.141.461-.141.108-.334.115-.482.019l-1.147-.747-1.128.755c-.07.047-.151.07-.232.07-.088,0-.176-.028-.25-.083-.142-.106-.201-.29-.148-.459l.392-1.257-.991-.806Z"/>
</svg>
