<?xml version="1.0" encoding="UTF-8"?>
<svg xmlns="http://www.w3.org/2000/svg" id="Layer_1" data-name="Layer 1" viewBox="0 0 24 24">
  <path d="M21.5,8c-1.378,0-2.5,1.122-2.5,2.5s1.122,2.5,2.5,2.5,2.5-1.122,2.5-2.5-1.122-2.5-2.5-2.5Zm0,4c-.827,0-1.5-.673-1.5-1.5s.673-1.5,1.5-1.5,1.5,.673,1.5,1.5-.673,1.5-1.5,1.5ZM17.5,0c-.276,0-.5,.224-.5,.5v7.5h-7.94c-1.749,0-3.353,1.026-4.086,2.614L.046,21.29c-.116,.251-.006,.548,.245,.664,.245,.114,.547,.009,.664-.244L4.976,12.995c.008,0,3.55,.005,3.55,.005l4.02,8.71c.116,.253,.419,.358,.664,.244,.251-.116,.36-.413,.245-.664l-3.826-8.29h7.372v8.5c0,.276,.224,.5,.5,.5s.5-.224,.5-.5V.5c0-.276-.224-.5-.5-.5ZM5.436,12l.446-.967c.57-1.235,1.817-2.033,3.178-2.033h7.94v3H5.436Z"/>
</svg>
