<svg id="Layer_1" viewBox="0 0 24 24" xmlns="http://www.w3.org/2000/svg" data-name="Layer 1"><path d="m24 4.735v6.38c0 1.711-.774 3.294-2.126 4.344-.488.407-1.943.857-2.628 1.209-.166.086-.229.138-.229.332v.5c0 1.078-.579 2.064-1.5 2.596v2.404c0 .827-.673 1.5-1.5 1.5s-1.5-.673-1.5-1.5v-2.404c-.921-.532-1.5-1.518-1.5-2.596l-.017-1.11c0-1.445.54-2.669 1.651-3.749.642-.581 1.771-1.146 2.681-1.6.248-.124.479-.239.675-.342l-.007-3.561c.008-.293-.267-.536-.556-.497-1.376.163-3.438.358-5.444.358-2.38 0-4.602-.239-5.446-.341-.285-.046-.562.208-.554.497v3.345c0 .276-.224.5-.5.5s-.5-.224-.5-.5v-3.345c0-.431.185-.841.506-1.125.318-.283.737-.413 1.169-.364.826.101 3 .334 5.325.334 1.957 0 3.977-.191 5.327-.351.418-.049.85.083 1.169.366.32.284.504.694.504 1.124v3.564c0 .373-.202.71-.526.881-.203.106-.44.225-.695.353-.854.426-1.916.957-2.442 1.434-.907.881-1.336 1.842-1.336 3.012l.017 1.11c0 .8.472 1.519 1.2 1.838.183.08.3.259.3.458v2.711c0 .276.225.5.5.5s.5-.224.5-.5v-2.711c0-.199.117-.378.3-.458.729-.319 1.2-1.038 1.2-1.831v-.5c0-.82.579-1.121.771-1.219.583-.316 2.006-.768 2.465-1.104 1.114-.866 1.748-2.162 1.748-3.562v-6.38c0-1.178-.539-2.258-1.479-2.963-.955-.718-2.168-.938-3.328-.601-1.573.458-4.352.83-6.193.83s-4.62-.372-6.193-.83c-1.159-.335-2.372-.117-3.328.601-.939.706-1.479 1.786-1.479 2.963v7.765c0 .276-.224.5-.5.5s-.5-.224-.5-.5v-7.765c-.002-1.495.683-2.867 1.876-3.763 1.21-.908 2.741-1.188 4.208-.762 1.473.428 4.181.79 5.914.79s4.441-.362 5.914-.79c1.466-.426 2.998-.148 4.208.761 1.193.896 1.878 2.268 1.878 3.763zm-13 13.765c0 3.033-2.468 5.5-5.5 5.5s-5.5-2.467-5.5-5.5 2.468-5.5 5.5-5.5 5.5 2.467 5.5 5.5zm-5.5-4.5c-.171 0-.334.032-.5.051v1.526c0 .473-.135.935-.39 1.336-.399.629-.61 1.178-.61 1.587 0 .827.673 1.5 1.5 1.5s1.5-.673 1.5-1.5c0-.409-.211-.958-.61-1.588-.255-.4-.39-.862-.39-1.335v-1.526c-.166-.019-.329-.051-.5-.051zm4.5 4.5c0-1.953-1.258-3.602-3-4.224v1.3c0 .283.081.559.233.799.509.802.767 1.517.767 2.125 0 1.378-1.121 2.5-2.5 2.5s-2.5-1.122-2.5-2.5c0-.608.258-1.322.767-2.124.152-.24.233-.517.233-.799v-1.3c-1.742.621-3 2.271-3 4.224 0 2.481 2.019 4.5 4.5 4.5s4.5-2.019 4.5-4.5z"/></svg>