<svg id="Layer_1" viewBox="0 0 24 24" xmlns="http://www.w3.org/2000/svg" data-name="Layer 1"><path d="m13.41 9.401c.06-.295.09-.599.09-.901 0-2.481-2.019-4.5-4.5-4.5s-4.5 2.019-4.5 4.5c0 1.411.665 2.656 1.684 3.482.423-1.169 1.543-1.982 2.816-1.982 1.193 0 2.272.707 2.75 1.8.111.253-.005.548-.258.658-.252.114-.547-.005-.658-.258-.319-.729-1.039-1.2-1.834-1.2-.927 0-1.732.646-1.943 1.541.591.285 1.244.459 1.943.459.153 0 .304-.008.453-.022.276-.038.519.176.545.451.026.274-.175.519-.45.545-.18.017-.362.026-.547.026-3.033 0-5.5-2.467-5.5-5.5s2.466-5.5 5.499-5.5 5.5 2.467 5.5 5.5c0 .369-.037.738-.11 1.099-.055.271-.321.446-.589.391-.271-.055-.446-.319-.391-.589zm-4.41-4.401c1.103 0 2 .897 2 2s-.897 2-2 2-2-.897-2-2 .897-2 2-2zm0 1c-.551 0-1 .449-1 1s.449 1 1 1 1-.449 1-1-.449-1-1-1zm1.5 17h-6c-1.93 0-3.5-1.57-3.5-3.5v-15c0-1.93 1.57-3.5 3.5-3.5h9c1.93 0 3.5 1.57 3.5 3.5v4c0 .276.224.5.5.5s.5-.224.5-.5v-4c0-2.481-2.019-4.5-4.5-4.5h-9c-2.481 0-4.5 2.019-4.5 4.5v15c0 2.481 2.019 4.5 4.5 4.5h6c.276 0 .5-.224.5-.5s-.224-.5-.5-.5zm13.5-5.5c0 3.584-2.916 6.5-6.5 6.5s-6.5-2.916-6.5-6.5 2.916-6.5 6.5-6.5 6.5 2.916 6.5 6.5zm-1 0c0-3.032-2.467-5.5-5.5-5.5s-5.5 2.468-5.5 5.5 2.467 5.5 5.5 5.5 5.5-2.468 5.5-5.5zm-2.857-1.369-2.706 2.618c-.336.33-.885.334-1.223.004l-1.363-1.345c-.196-.194-.513-.191-.707.004-.194.197-.192.514.005.707l1.364 1.347c.362.354.837.531 1.312.531s.951-.178 1.311-.533l2.703-2.614c.198-.192.204-.509.012-.707-.191-.198-.507-.203-.707-.012zm-11.643-.131h-4c-.276 0-.5.224-.5.5s.224.5.5.5h4c.276 0 .5-.224.5-.5s-.224-.5-.5-.5zm0 3h-4c-.276 0-.5.224-.5.5s.224.5.5.5h4c.276 0 .5-.224.5-.5s-.224-.5-.5-.5z"/></svg>