<?xml version="1.0" encoding="UTF-8"?>
<svg xmlns="http://www.w3.org/2000/svg" id="Layer_1" data-name="Layer 1" viewBox="0 0 24 24">
  <path d="m21.887,9.114c-.52-.077-1.137-.114-1.887-.114-2.451,0-4.784,2.583-5.436,3.367-.586-.242-1.267-.412-2.076-.391-1.947.044-3.682,1.011-4.846,1.868.471-1.861.423-3.823.38-5.484-.024-.952-.047-1.798.047-2.361h1.494c.763,0,1.448-.424,1.789-1.105l.447-.895h.19c.644,0,1-.51,1.01-1C13,1.548,11.778.006,9.513,0h-.018c-1.664.006-2.976,1.147-3.005,1.175C.009,6.161.002,14.132,0,16.751c0,1.209.497,2.38,1.366,3.212,1.948,1.862,5.901,4.037,10.634,4.037,4.613,0,8.01-1.196,10.047-2.199,1.205-.593,1.953-1.797,1.953-3.142v-7.074c0-1.232-.909-2.294-2.113-2.472Zm1.113,9.546c0,.961-.534,1.821-1.395,2.244-1.942.957-5.185,2.096-9.605,2.096s-8.129-2.025-9.942-3.76c-.683-.653-1.059-1.537-1.058-2.488.002-2.498.008-10.098,6.125-14.805.011-.009,1.097-.945,2.38-.947,1.817.002,2.495,1.228,2.485,2h-1.5c-.402,0-.494-.274-.5-.505-.003-.274-.226-.495-.5-.495-.276,0-.5.224-.5.5,0,.603.399,1.5,1.5,1.5h.191l-.223.447c-.17.341-.513.553-.895.553h-1.884c-.212,0-.4.133-.472.333-.246.697-.22,1.737-.186,3.054.055,2.123.123,4.764-.967,6.885-.005.01-.051.094-.051.221,0,.031-.019.507.495.507.195,0,.36-.152.367-.16.026-.028,2.621-2.795,5.644-2.863,2.33-.045,3.522,1.726,3.573,1.802.154.229.465.289.693.137.229-.153.292-.462.14-.691-.035-.051-.505-.73-1.376-1.33.722-.866,2.607-2.894,4.459-2.894.69,0,1.276.035,1.74.103.719.105,1.26.743,1.26,1.482v7.074Zm-4.142-12.062c.336.27.738.404,1.142.404s.806-.135,1.142-.404c.293-.234,2.858-2.348,2.858-4.348,0-1.241-1.01-2.25-2.25-2.25-.706,0-1.337.327-1.75.837-.413-.511-1.044-.837-1.75-.837-1.24,0-2.25,1.009-2.25,2.25,0,2,2.565,4.113,2.858,4.348Zm-.608-5.598c.689,0,1.25.561,1.25,1.25,0,.276.224.5.5.5s.5-.224.5-.5c0-.689.561-1.25,1.25-1.25s1.25.561,1.25,1.25c0,1.157-1.485,2.767-2.483,3.567-.305.243-.729.245-1.033,0-.998-.8-2.483-2.41-2.483-3.567,0-.689.561-1.25,1.25-1.25Z"/>
</svg>
