<?xml version="1.0" encoding="UTF-8"?>
<svg xmlns="http://www.w3.org/2000/svg" id="Layer_1" data-name="Layer 1" viewBox="0 0 24 24">
  <path d="M21.5,3h-1.5V1.5c0-1.101-.897-1.5-1.5-1.5-1.379,0-2.5,1.122-2.5,2.5v.5h-.5c-1.379,0-2.5,1.122-2.5,2.5v1.5h-.5c-1.379,0-2.5,1.122-2.5,2.5v.5h-.5c-1.379,0-2.5,1.122-2.5,2.5v.5h-.5c-1.379,0-2.5,1.121-2.5,2.5v1.5h-.5c-1.379,0-2.5,1.121-2.5,2.5,0,.603,.399,1.5,1.5,1.5h1.5v1.5c0,1.101,.897,1.5,1.5,1.5,1.379,0,2.5-1.121,2.5-2.5v-.5h.5c1.379,0,2.5-1.121,2.5-2.5v-.5h.5c1.379,0,2.5-1.121,2.5-2.5v-1.5h.5c1.379,0,2.5-1.122,2.5-2.5v-.5h.5c1.379,0,2.5-1.122,2.5-2.5v-1.5h.5c1.379,0,2.5-1.122,2.5-2.5,0-.603-.399-1.5-1.5-1.5ZM2.5,20c-.402,0-.494-.275-.5-.5,0-.827,.673-1.5,1.5-1.5h.5v2h-1.5Zm4.5,1.5c0,.827-.673,1.5-1.494,1.5-.23-.006-.506-.098-.506-.5v-7c0-.827,.673-1.5,1.5-1.5h.5v7.5Zm3-3c0,.827-.673,1.5-1.5,1.5h-.5v-7.5c0-.827,.673-1.5,1.5-1.5h.5v7.5Zm1.5-1.5h-.5v-7.5c0-.827,.673-1.5,1.5-1.5h.5v7.5c0,.827-.673,1.5-1.5,1.5Zm4.5-5.5c0,.827-.673,1.5-1.5,1.5h-.5V5.5c0-.827,.673-1.5,1.5-1.5h.5v7.5Zm3-3c0,.827-.673,1.5-1.5,1.5h-.5V2.5c0-.827,.673-1.5,1.494-1.5,.23,.006,.506,.097,.506,.5v7Zm1.5-2.5h-.5v-2h1.5c.402,0,.494,.275,.5,.5,0,.827-.673,1.5-1.5,1.5Z"/>
</svg>
