<?xml version="1.0" encoding="UTF-8"?>
<svg xmlns="http://www.w3.org/2000/svg" id="Layer_1" data-name="Layer 1" viewBox="0 0 24 24">
  <path d="M13.541,11.268c.469-.722,.592-1.864,.293-3.065-.165-.664-.843-1.084-1.514-.935l-1.838,.409c-.393,.087-.714,.349-.882,.717-.167,.368-.152,.781,.042,1.135,.378,.69,.814,1.381,1.333,1.858-3.015,1.414-5.974,6.477-5.974,9.277,0,.899,.271,1.625,.805,2.158,1.195,1.192,3.479,1.185,5.692,1.178,.468-.002,1.037,0,1.504,0,2.049,0,4.087-.077,5.193-1.179,.534-.533,.805-1.259,.805-2.158,0-2.415-2.77-8.112-5.459-9.396Zm-3.023-2.22c-.056-.102-.029-.195-.008-.242s.074-.128,.188-.153l1.839-.409h0c.02-.005,.04-.007,.059-.007,.123,0,.236,.083,.267,.207,.274,1.102,.091,1.997-.194,2.363-.135,.172-.254,.192-.332,.192-.751,0-1.555-1.469-1.819-1.951Zm6.97,13.065c-.901,.899-2.974,.893-4.983,.887-.251,0-.759,0-1.011,0-2.007,.005-4.082,.013-4.983-.887-.344-.343-.511-.817-.511-1.45,0-2.719,3.709-8.665,6.5-8.665,1.991,0,5.5,5.98,5.5,8.665,0,.633-.167,1.107-.511,1.45ZM6.14,3.347c-.735-.762-1.14-1.773-1.14-2.847,0-.276,.224-.5,.5-.5s.5,.224,.5,.5c0,.802,.313,1.587,.86,2.153,.735,.762,1.14,1.773,1.14,2.847,0,.276-.224,.5-.5,.5s-.5-.224-.5-.5c0-.802-.313-1.587-.86-2.153Zm10,0c-.735-.762-1.14-1.773-1.14-2.847,0-.276,.224-.5,.5-.5s.5,.224,.5,.5c0,.802,.313,1.587,.86,2.153,.735,.762,1.14,1.773,1.14,2.847,0,.276-.224,.5-.5,.5s-.5-.224-.5-.5c0-.802-.313-1.587-.86-2.153ZM10,.5c0-.276,.224-.5,.5-.5s.5,.224,.5,.5c0,.589,.29,1.149,.815,1.577,.742,.604,1.185,1.51,1.185,2.423,0,.276-.224,.5-.5,.5s-.5-.224-.5-.5c0-.606-.312-1.238-.816-1.647-.752-.612-1.184-1.47-1.184-2.353ZM3.572,23.005c-2.306-.338-2.572-1.592-2.572-2.505,0-2.95,1.932-7.498,4.498-7.5h.502c.133,0,.26-.053,.354-.146,.673-.673,1.011-1.588,1.033-2.798,.006-.349-.141-.682-.403-.914-.266-.235-.618-.342-.973-.291l-1.301,.186c-.357,.051-.671,.257-.86,.565-.188,.306-.229,.676-.113,1.017,.188,.547,.456,1.059,.802,1.53C1.775,13.01,0,17.456,0,20.5c0,1.365,.595,3.08,3.428,3.495,.024,.004,.049,.005,.073,.005,.244,0,.458-.179,.494-.428,.04-.273-.149-.527-.422-.567Zm1.13-12.881c.019-.031,.064-.085,.149-.098l1.301-.186c.085-.017,.142,.026,.169,.05,.031,.027,.067,.074,.065,.146-.016,.859-.209,1.489-.606,1.962h-.068c-.469-.506-.815-1.08-1.03-1.705-.026-.078,0-.14,.02-.17Zm15.279,2.232c.367-.309,.652-.658,.812-.872,.229-.307,.3-.707,.189-1.069-.11-.363-.379-.643-.689-.748l-1.272-.601c-.327-.114-.69-.081-.991,.095-.297,.173-.503,.466-.565,.805-.11,.613-.227,1.785,.239,2.751,.083,.173,.258,.283,.45,.283h.346c2.568,0,4.5,4.55,4.5,7.5,0,.914-.267,2.167-2.572,2.505-.273,.04-.462,.294-.422,.567,.036,.249,.25,.428,.494,.428,.024,0,.048-.001,.073-.005,2.833-.415,3.428-2.129,3.428-3.495,0-2.849-1.555-6.925-4.019-8.143Zm-1.481-.357h-.006c-.215-.693-.108-1.507-.045-1.855,.011-.064,.052-.1,.084-.119,.028-.016,.084-.042,.108-.035l1.272,.6c.071,.025,.101,.077,.112,.116,.009,.029,.023,.104-.033,.179-.506,.677-1.091,1.114-1.493,1.114Z"/>
</svg>
