<svg id="Layer_1" viewBox="0 0 24 24" xmlns="http://www.w3.org/2000/svg" data-name="Layer 1"><path d="m19.5 0h-15c-2.481 0-4.5 2.019-4.5 4.5v13c0 1.602.862 3.096 2.25 3.897.235.137.545.059.683-.183.139-.239.057-.545-.182-.683-1.08-.624-1.75-1.786-1.75-3.032v-9.499h21.999v9.5c0 .276.224.5.5.5s.5-.224.5-.5v-13c0-2.481-2.019-4.5-4.5-4.5zm-18.5 7v-2.5c0-1.93 1.57-3.5 3.5-3.5h15c1.93 0 3.5 1.57 3.5 3.5v2.5zm4-3c0 .552-.448 1-1 1s-1-.448-1-1 .448-1 1-1 1 .448 1 1zm3 0c0 .552-.448 1-1 1s-1-.448-1-1 .448-1 1-1 1 .448 1 1zm3 0c0 .552-.448 1-1 1s-1-.448-1-1 .448-1 1-1 1 .448 1 1zm12.418 17.525c.3.516.302 1.132.005 1.648-.297.518-.831.826-1.427.826h-1.997c-.276 0-.5-.224-.5-.5s.224-.5.5-.5h1.997c.594-.106.765-.404.558-.971l-4.497-7.709c-.237-.406-.877-.406-1.116 0l-4.496 7.709c-.207.566-.037.865.558.971h1.997c.276 0 .5.224.5.5s-.224.5-.5.5h-1.997c-.597 0-1.13-.309-1.427-.826s-.295-1.133.005-1.648l4.497-7.709c.299-.512.83-.816 1.422-.816s1.123.305 1.421.816zm-5.918-.525c-.276 0-.5-.224-.5-.5v-3c0-.276.224-.5.5-.5s.5.224.5.5v3c0 .276-.224.5-.5.5zm1 2c0 .552-.448 1-1 1s-1-.448-1-1 .448-1 1-1 1 .448 1 1zm-5.9-7.2c.166.221.48.268.7.1.221-.165.265-.479.1-.699-.362-.482-.853-.816-1.4-1.01v-1.19c0-1.654-1.346-3-3-3s-3 1.346-3 3v1.184c-1.161.414-2 1.514-2 2.816v2c0 1.654 1.346 3 3 3h2.5c.276 0 .5-.224.5-.5s-.224-.5-.5-.5h-2.5c-1.103 0-2-.897-2-2v-2c0-1.103.897-2 2-2h4c.635 0 1.218.292 1.6.8zm-5.6-1.8v-1c0-1.103.897-2 2-2s2 .897 2 2v1zm2 3c.552 0 1 .448 1 1s-.448 1-1 1-1-.448-1-1 .448-1 1-1z"/></svg>