<?xml version="1.0" encoding="UTF-8"?>
<svg xmlns="http://www.w3.org/2000/svg" id="Layer_1" data-name="Layer 1" viewBox="0 0 24 24">
  <path d="m0,19.5v-6c0-2.481,2.019-4.5,4.5-4.5h4c.276,0,.5.224.5.5s-.224.5-.5.5h-4c-1.93,0-3.5,1.57-3.5,3.5v6c0,.276-.224.5-.5.5s-.5-.224-.5-.5Zm19.5-10.5h-4c-.276,0-.5.224-.5.5s.224.5.5.5h4c1.93,0,3.5,1.57,3.5,3.5v6c0,.276.224.5.5.5s.5-.224.5-.5v-6c0-2.481-2.019-4.5-4.5-4.5ZM7.5,5c.131,0,.263-.051.36-.154l3.353-3.493c.085-.084.186-.138.287-.19v17.337c0,.276.224.5.5.5s.5-.224.5-.5V1.139c.109.051.215.109.305.197l3.333,3.508c.188.201.508.208.707.018.2-.19.208-.506.018-.707l-3.344-3.52c-.37-.364-1.019-.636-1.519-.636s-1.138.29-1.501.654l-3.359,3.5c-.191.199-.186.516.014.707.098.093.222.139.347.139Zm15.674,17.354c-.484.417-1.111.646-1.765.646-1.168,0-2.315-.719-2.668-1.673-.145-.393-.793-.393-.938,0-.353.954-1.499,1.673-2.667,1.673s-2.315-.719-2.668-1.673c-.145-.393-.793-.393-.938,0-.353.954-1.5,1.673-2.668,1.673s-2.314-.719-2.667-1.673c-.145-.393-.793-.393-.938,0-.353.954-1.5,1.673-2.668,1.673-.653,0-1.28-.229-1.765-.646-.209-.18-.524-.155-.705.054-.181.209-.156.525.053.705.666.572,1.524.887,2.417.887,1.239,0,2.434-.594,3.137-1.494.703.9,1.896,1.494,3.136,1.494s2.434-.594,3.137-1.494c.703.9,1.897,1.494,3.137,1.494s2.433-.594,3.136-1.494c.703.9,1.897,1.494,3.137,1.494.893,0,1.751-.315,2.417-.887.209-.18.233-.496.053-.705-.179-.209-.494-.234-.705-.054Z"/>
</svg>
