<?xml version="1.0" encoding="UTF-8"?>
<svg xmlns="http://www.w3.org/2000/svg" id="Layer_1" data-name="Layer 1" viewBox="0 0 24 24">
  <path d="m13.5,3.5c0-.276.224-.5.5-.5h3.5c1.93,0,3.5,1.57,3.5,3.5v3.5c0,.276-.224.5-.5.5s-.5-.224-.5-.5v-3.5c0-1.378-1.121-2.5-2.5-2.5h-3.5c-.276,0-.5-.224-.5-.5Zm-7.5,2.5c-1.103,0-2-.897-2-2s.897-2,2-2,2,.897,2,2-.897,2-2,2Zm0-1c.552,0,1-.449,1-1s-.448-1-1-1-1,.449-1,1,.448,1,1,1Zm14,11c0,1.103-.897,2-2,2s-2-.897-2-2,.897-2,2-2,2,.897,2,2Zm-1,0c0-.551-.448-1-1-1s-1,.449-1,1,.448,1,1,1,1-.449,1-1Zm5,2c0,3.309-2.691,6-6,6s-6-2.691-6-6,2.691-6,6-6,6,2.691,6,6Zm-4,4c0-1.103-.897-2-2-2s-2,.897-2,2v.574c.614.27,1.288.426,2,.426s1.386-.156,2-.426v-.574Zm3-4c0-2.757-2.243-5-5-5s-5,2.243-5,5c0,1.628.794,3.063,2.002,3.976.013-1.643,1.351-2.976,2.998-2.976s2.985,1.333,2.998,2.976c1.208-.914,2.002-2.348,2.002-3.976Zm-13,2h-3.5c-1.379,0-2.5-1.122-2.5-2.5v-3.5c0-.276-.224-.5-.5-.5s-.5.224-.5.5v3.5c0,1.93,1.57,3.5,3.5,3.5h3.5c.276,0,.5-.224.5-.5s-.224-.5-.5-.5Zm-4-8c-3.309,0-6-2.691-6-6S2.691,0,6,0s6,2.691,6,6-2.691,6-6,6Zm0-5c1.646,0,2.985,1.333,2.998,2.976,1.208-.914,2.002-2.348,2.002-3.976,0-2.757-2.243-5-5-5S1,3.243,1,6c0,1.628.794,3.063,2.002,3.976.013-1.643,1.351-2.976,2.998-2.976Zm-2,3.574c.614.27,1.288.426,2,.426s1.386-.156,2-.426c0-.024,0-.574,0-.574,0-1.103-.897-2-2-2s-2,.897-2,2c0,0,0,.549,0,.574Z"/>
</svg>
