<svg id="Layer_1" viewBox="0 0 24 24" xmlns="http://www.w3.org/2000/svg" data-name="Layer 1"><path d="m23.5 5.5c0-1.93-1.57-3.5-3.5-3.5-1.133 0-2.081.542-2.998 1.065-.841.48-1.635.935-2.502.935-1.683 0-2.785-.774-4.061-1.671-1.552-1.092-3.312-2.329-6.439-2.329h-2.5c-.827 0-1.5.673-1.5 1.5s.673 1.5 1.5 1.5h.5v18h-.5c-.827 0-1.5.673-1.5 1.5s.673 1.5 1.5 1.5h10c.827 0 1.5-.673 1.5-1.5s-.673-1.5-1.5-1.5h-.003c7.776-6.989 12.003-13.832 12.003-15.5zm-13.794 16.175c.073.195.26.325.469.325h1.325c.275 0 .5.225.5.5s-.225.5-.5.5h-10c-.275 0-.5-.225-.5-.5s.225-.5.5-.5h5.671c.115 0 .227-.04.315-.112 9.343-7.598 13.616-14.875 13.992-16.257.092-.823-.671-1.548-1.479-1.541-.602 0-1.284.39-2.006.803-1.007.575-2.126 1.107-3.494 1.107-2.255 0-3.751-.92-5.211-1.945-1.506-1.057-2.786-2.048-5.289-2.055h-2.499c-.275 0-.5-.225-.5-.5s.225-.5.5-.5h2.5c2.811 0 4.363 1.092 5.864 2.146 1.355.953 2.637 1.854 4.636 1.854 1.133 0 2.081-.542 2.998-1.065.841-.48 1.635-.935 2.502-.935 1.379 0 2.5 1.121 2.5 2.5 0 1.086-3.944 8.078-12.652 15.622-.158.137-.214.357-.142.553zm-6.706-.675v-18h1c.363 0 .689.032 1 .078v17.922zm3 0v-17.693c.746.25 1.369.632 2 1.066v15.779c-.332.282-.66.564-1.007.848zm3-1.711v-14.22c.633.436 1.284.841 2 1.17v11.217c-.633.604-1.3 1.216-2 1.833zm3-2.808v-9.851c.602.188 1.267.305 2 .345v7.434c-.618.672-1.29 1.366-2 2.072zm3-3.184v-6.342c.73-.059 1.393-.227 2-.47v4.395c-.591.758-1.253 1.564-2 2.417zm3-3.745v-3.53c.164-.087.332-.171.49-.261.55-.314 1.173-.671 1.51-.671.229 0 .427.158.484.373-.205.596-1.025 2.078-2.484 4.089z"/></svg>