<?xml version="1.0" encoding="UTF-8"?>
<svg xmlns="http://www.w3.org/2000/svg" id="Layer_1" data-name="Layer 1" viewBox="0 0 24 24">
  <path d="M6,14c2.206,0,4-1.794,4-4s-1.794-4-4-4-4,1.794-4,4,1.794,4,4,4Zm0-7c1.654,0,3,1.346,3,3s-1.346,3-3,3-3-1.346-3-3,1.346-3,3-3Zm6,15v1.5c0,.276-.224,.5-.5,.5s-.5-.224-.5-.5v-1.5c0-2.757-2.243-5-5-5s-5,2.243-5,5v1.5c0,.276-.224,.5-.5,.5s-.5-.224-.5-.5v-1.5c0-3.309,2.691-6,6-6s6,2.691,6,6ZM20.5,4.5c0,.939-.519,1.791-1.354,2.223-.538,.277-.646,.503-.646,.777,0,.276-.224,.5-.5,.5s-.5-.224-.5-.5c0-.944,.677-1.403,1.187-1.666,.502-.259,.813-.77,.813-1.334,0-.827-.673-1.5-1.5-1.5s-1.5,.673-1.5,1.5c0,.276-.224,.5-.5,.5s-.5-.224-.5-.5c0-1.378,1.122-2.5,2.5-2.5s2.5,1.122,2.5,2.5Zm-1.5,5.5c0,.552-.448,1-1,1s-1-.448-1-1,.448-1,1-1,1,.448,1,1Zm5-7.5v6c0,1.378-1.122,2.5-2.5,2.5h-1c-.276,0-.5-.224-.5-.5s.224-.5,.5-.5h1c.827,0,1.5-.673,1.5-1.5V2.5c0-.401-.156-.777-.439-1.061-.283-.283-.66-.439-1.06-.439h-7.001c-.827,.002-1.5,.675-1.5,1.502V11.861c.012,.129,.123,.182,.23,.113l1.965-1.509c.22-.168,.534-.125,.701,.092,.168,.219,.127,.533-.092,.701l-1.965,1.509c-.349,.268-.81,.311-1.201,.119-.393-.194-.637-.586-.637-1.024V2.502C12,1.124,13.121,.002,14.5,.001h7s0-.001,0-.001c.667,0,1.295,.26,1.767,.732s.732,1.1,.732,1.768Z"/>
</svg>
