<?xml version="1.0" encoding="UTF-8"?>
<svg xmlns="http://www.w3.org/2000/svg" id="Layer_1" data-name="Layer 1" viewBox="0 0 24 24">
  <path d="m19.776,3.208c-2.076-2.068-4.839-3.208-7.776-3.208s-5.701,1.139-7.777,3.208c-2.078,2.069-3.223,4.821-3.223,7.747s1.145,5.678,3.236,7.761l4.151,3.818c.971.945,2.254,1.466,3.612,1.466s2.641-.521,3.602-1.457l4.175-3.842c2.078-2.069,3.223-4.821,3.223-7.747s-1.145-5.678-3.223-7.747Zm-.691,14.771l-4.171,3.838c-1.566,1.526-4.253,1.536-5.839-.01l-4.147-3.814c-1.888-1.88-2.928-4.379-2.928-7.038s1.04-5.158,2.928-7.038c1.889-1.881,4.4-2.917,7.072-2.917s5.183,1.036,7.071,2.917c1.888,1.88,2.928,4.379,2.928,7.038s-1.04,5.158-2.914,7.024ZM10,7.5v7c0,.276-.224.5-.5.5s-.5-.224-.5-.5v-7c0-.276.224-.5.5-.5s.5.224.5.5Zm4.5-.5h-1.5c-.552,0-1,.449-1,1v6.5c0,.276.224.5.5.5s.5-.224.5-.5v-2.5h1.5c1.379,0,2.5-1.122,2.5-2.5s-1.121-2.5-2.5-2.5Zm0,4h-1.5v-3h1.5c.827,0,1.5.673,1.5,1.5s-.673,1.5-1.5,1.5Z"/>
</svg>
