<svg id="Layer_1" viewBox="0 0 24 24" xmlns="http://www.w3.org/2000/svg" data-name="Layer 1"><path d="m8 13c2.757 0 5-2.243 5-5s-2.243-5-5-5-5 2.243-5 5 2.243 5 5 5zm0-9c2.206 0 4 1.794 4 4s-1.794 4-4 4-4-1.794-4-4 1.794-4 4-4zm15.757 12.071-5.848-3.509c.053-.18.09-.366.09-.563 0-1.103-.897-2-2-2s-2 .897-2 2 .897 2 2 2c.546 0 1.04-.221 1.401-.576l5.841 3.505c.233.141.543.067.686-.171.142-.237.065-.544-.171-.686zm-7.757-3.071c-.551 0-1-.449-1-1s.449-1 1-1 1 .449 1 1-.449 1-1 1zm0 10v.5c0 .276-.224.5-.5.5s-.5-.224-.5-.5v-.5c0-2.992-1.89-5.544-4.537-6.544l-1.417 2.125 1.433 4.775c.079.264-.071.543-.335.623-.258.079-.544-.068-.623-.335l-1.5-5c-.042-.143-.02-.297.063-.421l1.378-2.067c-.472-.101-.96-.156-1.462-.156s-.99.055-1.462.156l1.378 2.067c.083.124.105.278.063.421l-1.5 5c-.079.267-.365.414-.623.335-.265-.08-.415-.358-.335-.623l1.433-4.775-1.417-2.125c-2.646 1-4.537 3.552-4.537 6.544v.5c0 .276-.224.5-.5.5s-.5-.224-.5-.5v-.5c0-4.411 3.589-8 8-8s8 3.589 8 8zm6.356-3.641c-.779 1.648-1.811 3.157-3.065 4.484-.19.201-.506.21-.707.02-.201-.189-.21-.506-.02-.707 1.182-1.251 2.153-2.672 2.887-4.226.118-.25.415-.356.666-.238.25.118.356.416.238.666zm.105-11.524c-.071-.267.088-.541.355-.611.268-.069.541.088.611.355.379 1.435.572 2.922.572 4.421 0 .344-.01.687-.03 1.026-.016.265-.236.47-.499.47-.01 0-.02 0-.03 0-.275-.016-.486-.253-.469-.529.019-.32.028-.642.028-.966 0-1.413-.181-2.813-.539-4.165zm-3.896-6.992c-.19-.201-.181-.517.02-.707.202-.19.517-.18.707.02 1.161 1.228 2.132 2.614 2.886 4.119.124.247.024.547-.223.671-.241.123-.547.026-.671-.223-.711-1.418-1.626-2.724-2.719-3.881z"/></svg>