<?xml version="1.0" encoding="UTF-8"?>
<svg xmlns="http://www.w3.org/2000/svg" id="Layer_1" data-name="Layer 1" viewBox="0 0 24 24">
  <path d="m20.372,0c-1.44,0-6.541.399-11.683,5.542C5.082,9.149,2.178,13.377.293,17.766c-.59,1.375-.286,2.949.774,4.009l1.157,1.157c.701.701,1.626,1.071,2.57,1.071.482,0,.97-.097,1.436-.296,4.38-1.874,8.608-4.778,12.228-8.397,5.143-5.142,5.542-10.242,5.542-11.683,0-2.374-1.254-3.628-3.628-3.628Zm-2.621,14.604c-3.53,3.53-7.65,6.36-11.914,8.185-.98.42-2.148.194-2.905-.563l-.225-.225,13.147-13.147c.195-.195.195-.512,0-.707s-.512-.195-.707,0L2,21.293l-.225-.225c-.757-.757-.983-1.926-.562-2.908,1.835-4.274,4.665-8.393,8.184-11.912,3.87-3.87,8.207-5.249,10.976-5.249,1.817,0,2.628.811,2.628,2.628,0,2.769-1.379,7.106-5.249,10.976Z"/>
</svg>
