<?xml version="1.0" encoding="UTF-8"?>
<svg xmlns="http://www.w3.org/2000/svg" id="Layer_1" data-name="Layer 1" viewBox="0 0 24 24">
  <path d="M9,14.5c0-.276,.224-.5,.5-.5h1c.276,0,.5,.224,.5,.5s-.224,.5-.5,.5h-1c-.276,0-.5-.224-.5-.5Zm4.5,.5h1c.276,0,.5-.224,.5-.5s-.224-.5-.5-.5h-1c-.276,0-.5,.224-.5,.5s.224,.5,.5,.5Zm-4,4h1c.276,0,.5-.224,.5-.5s-.224-.5-.5-.5h-1c-.276,0-.5,.224-.5,.5s.224,.5,.5,.5Zm4,0h1c.276,0,.5-.224,.5-.5s-.224-.5-.5-.5h-1c-.276,0-.5,.224-.5,.5s.224,.5,.5,.5ZM9.5,7h1c.276,0,.5-.224,.5-.5s-.224-.5-.5-.5h-1c-.276,0-.5,.224-.5,.5s.224,.5,.5,.5Zm4,0h1c.276,0,.5-.224,.5-.5s-.224-.5-.5-.5h-1c-.276,0-.5,.224-.5,.5s.224,.5,.5,.5Zm-4,4h1c.276,0,.5-.224,.5-.5s-.224-.5-.5-.5h-1c-.276,0-.5,.224-.5,.5s.224,.5,.5,.5Zm4,0h1c.276,0,.5-.224,.5-.5s-.224-.5-.5-.5h-1c-.276,0-.5,.224-.5,.5s.224,.5,.5,.5Zm6-6h-.5v-.5c0-2.481-2.019-4.5-4.5-4.5h-5c-2.481,0-4.5,2.019-4.5,4.5v2c0,.276,.224,.5,.5,.5s.5-.224,.5-.5v-2c0-1.93,1.57-3.5,3.5-3.5h5c1.93,0,3.5,1.57,3.5,3.5v1c0,.276,.224,.5,.5,.5h1c1.93,0,3.5,1.57,3.5,3.5v10c0,1.93-1.57,3.5-3.5,3.5H9.5c-1.93,0-3.5-1.57-3.5-3.5v-1c0-.276-.224-.5-.5-.5s-.5,.224-.5,.5v1c0,2.481,2.019,4.5,4.5,4.5h10c2.481,0,4.5-2.019,4.5-4.5V9.5c0-2.481-2.019-4.5-4.5-4.5Zm-1,10h1c.276,0,.5-.224,.5-.5s-.224-.5-.5-.5h-1c-.276,0-.5,.224-.5,.5s.224,.5,.5,.5Zm0,4h1c.276,0,.5-.224,.5-.5s-.224-.5-.5-.5h-1c-.276,0-.5,.224-.5,.5s.224,.5,.5,.5Zm0-8h1c.276,0,.5-.224,.5-.5s-.224-.5-.5-.5h-1c-.276,0-.5,.224-.5,.5s.224,.5,.5,.5Zm-10.5,1.5c0-.372-.145-.72-.399-.974l-2.739-2.872c-.19-.2-.507-.207-.706-.017-.2,.19-.208,.507-.017,.707l2.532,2.655H.5c-.276,0-.5,.224-.5,.5s.224,.5,.5,.5H6.671l-2.532,2.655c-.191,.2-.184,.517,.017,.707,.199,.19,.516,.183,.706-.017l2.731-2.863c.263-.262,.407-.611,.407-.982Z"/>
</svg>
