<svg id="Layer_1" viewBox="0 0 24 24" xmlns="http://www.w3.org/2000/svg" data-name="Layer 1"><path d="m10.5 23h-7c-1.378 0-2.5-1.121-2.5-2.5v-9.5h3.381c1.174 0 2.286-.45 3.129-1.267l3.415-3.305c.603-.583 1.546-.583 2.149 0l3.078 2.979c.198.192.515.188.707-.012.192-.198.187-.515-.012-.707l-1.745-1.688h4.397c1.93 0 3.5 1.57 3.5 3.5 0 .276.224.5.5.5s.5-.224.5-.5c0-2.481-2.019-4.5-4.5-4.5h-5.43l-.3-.291c-.354-.343-.781-.557-1.228-.655l3.37-1.619c.79-.48.784-1.674-.053-2.148l-2.399-1.124c-1.107-.545-2.486.328-2.459 1.564v3.474c-.277.119-.54.285-.77.508l-.3.291h-5.43c-2.481 0-4.5 2.019-4.5 4.5v10c0 1.93 1.57 3.5 3.5 3.5h7c.276 0 .5-.224.5-.5s-.224-.5-.5-.5zm1.5-21.273c-.011-.52.569-.889 1.035-.658l2.347 1.094c.162.127.148.274.05.397l-3.432 1.646zm-7.5 5.273h4.397l-2.081 2.015c-.656.635-1.521.985-2.434.985h-3.331c.245-1.692 1.691-3 3.449-3zm2.5 8.5c0 .276-.224.5-.5.5h-2c-.276 0-.5-.224-.5-.5s.224-.5.5-.5h2c.276 0 .5.224.5.5zm0 4c0 .276-.224.5-.5.5h-2c-.276 0-.5-.224-.5-.5s.224-.5.5-.5h2c.276 0 .5.224.5.5zm5-10.5c.552 0 1 .448 1 1s-.448 1-1 1-1-.448-1-1 .448-1 1-1zm5.5 2c-3.584 0-6.5 2.916-6.5 6.5s2.916 6.5 6.5 6.5 6.5-2.916 6.5-6.5-2.916-6.5-6.5-6.5zm0 12c-3.032 0-5.5-2.468-5.5-5.5s2.468-5.5 5.5-5.5 5.5 2.468 5.5 5.5-2.468 5.5-5.5 5.5zm2.854-7.646-2.146 2.146 2.146 2.146c.195.195.195.512 0 .707s-.512.195-.707 0l-2.146-2.146-2.146 2.146c-.195.195-.512.195-.707 0s-.195-.512 0-.707l2.146-2.146-2.146-2.146c-.195-.195-.195-.512 0-.707s.512-.195.707 0l2.146 2.146 2.146-2.146c.195-.195.512-.195.707 0s.195.512 0 .707z"/></svg>