<svg id="Layer_1" viewBox="0 0 24 24" xmlns="http://www.w3.org/2000/svg" data-name="Layer 1"><path d="m19.394 4.483-.154-.362c-.553-1.288-1.815-2.121-3.218-2.121h-5.021v-1c0-.552-.448-1-1-1h-1c-.552 0-1 .448-1 1v1h-.021c-1.402 0-2.665.833-3.218 2.122l-.153.36c-.403.938-.607 1.932-.607 2.954v1.097l.751 11.266c.158 2.355 2.13 4.201 4.49 4.201h5.516c2.36 0 4.332-1.846 4.49-4.201l.752-11.299v-1.063c0-1.021-.204-2.016-.606-2.953zm-14.394 2.954c0-.147.012-.291.022-.437h13.956c.028.272.022.723.022 1h-14zm4-6.437h1v1h-1zm-3.319 3.516c.394-.921 1.296-1.516 2.298-1.516h8.043c1.002 0 1.904.595 2.298 1.515l.154.361s0 0 0 0c.157.365.273.741.36 1.123h-13.668c.087-.383.204-.759.361-1.124l.154-.36zm9.077 18.484h-5.516c-1.744 0-3.2-1.3-3.448-3h2.706c.276 0 .5-.224.5-.5s-.224-.5-.5-.5h-2.799l-.2-3h2.999c.276 0 .5-.224.5-.5s-.224-.5-.5-.5h-3.066l-.2-3h3.266c.276 0 .5-.224.5-.5s-.224-.5-.5-.5h-3.333l-.134-2h13.932l-.715 10.732c-.122 1.832-1.656 3.268-3.492 3.268z"/></svg>