<svg id="Layer_1" viewBox="0 0 24 24" xmlns="http://www.w3.org/2000/svg" data-name="Layer 1"><path d="m6 19v2c0 1.654-1.346 3-3 3s-3-1.346-3-3v-20.5c0-.276.224-.5.5-.5s.5.224.5.5v20.5c0 1.103.897 2 2 2s2-.897 2-2v-.5h-.5c-.242 0-.449-.173-.492-.41-.043-.238.089-.473.315-.558.36-.136.596-.367.701-.688.077-.233.314-.37.554-.339.243.039.421.248.421.494zm10-17c0-1.103.897-2 2-2s2 .897 2 2-.897 2-2 2-2-.897-2-2zm1 0c0 .552.449 1 1 1s1-.448 1-1-.449-1-1-1-1 .448-1 1zm-8 3c.552 0 1-.448 1-1s-.448-1-1-1-1 .448-1 1 .448 1 1 1zm14.336 7.498c.564.907.766 1.852.615 2.876-.105.715-.596 1.3-1.28 1.527-.679.223-1.416.05-1.923-.457l-1.888-1.888c-.452.449-.969.906-1.534 1.338l.17.174c.738.708.651 1.935-.183 2.531-.792.596-1.925.514-2.624-.196-.044-.045-.425-.434-.715-.73-.681.204-1.395.325-2.139.325-2.771 0-5.214-1.688-6.776-3.104-.673-.611-1.059-1.484-1.059-2.396 0-.911.386-1.784 1.059-2.394 1.151-1.045 2.784-2.233 4.673-2.787 1.509-1.575 3.004-2.314 4.691-2.314h.004c.936 0 1.906.327 2.731.92 1.069.726 1.031 2.305.132 3.158.577.439 1.105.904 1.566 1.362l1.89-1.89c.506-.507 1.244-.681 1.923-.457.685.227 1.175.812 1.28 1.527.151 1.024-.05 1.969-.615 2.876zm-11.775-5.48c.092-.004.181-.02.274-.02 1.728 0 3.299.645 4.641 1.511.506-.515.75-1.311.103-1.772-.66-.475-1.423-.734-2.151-.734h-.003c-1.016 0-1.936.326-2.863 1.016zm-5.831 7.135c.693.628 1.573 1.312 2.572 1.853.23-.49.697-1.704.697-3.508 0-1.864-.496-3.06-.714-3.498-.992.54-1.867 1.219-2.555 1.844-.464.421-.731 1.024-.731 1.654s.266 1.233.73 1.655zm10.765 2.324c-.472.305-.97.583-1.496.814.188.193.319.33.4.425l.008-.009c.349.35.91.389 1.304.092.354-.255.386-.725.073-1.027l-.29-.295zm5.833-4.27c.569-.798.764-1.55.633-2.439-.051-.345-.277-.615-.605-.725-.323-.107-.66-.026-.901.215l-2.247 2.247c-.095.095-.233.128-.36.146-.135-.002-.263-.058-.356-.155-1.241-1.307-3.755-3.499-6.656-3.499-.926 0-1.818.221-2.648.566.278.562.813 1.903.813 3.934 0 1.994-.515 3.35-.796 3.943.825.34 1.711.557 2.63.557 2.903 0 5.417-2.19 6.658-3.497.093-.098.221-.153.356-.155.126.002.265.052.36.146l2.245 2.245c.242.241.58.322.902.215.329-.109.555-.38.605-.724.131-.891-.064-1.643-.633-2.44-.125-.173-.125-.407 0-.58z"/></svg>