<svg id="Layer_1" viewBox="0 0 24 24" xmlns="http://www.w3.org/2000/svg" data-name="Layer 1"><path d="m12 8c-1.103 0-2 .897-2 2s.897 2 2 2 2-.897 2-2-.897-2-2-2zm0 3c-.551 0-1-.448-1-1s.449-1 1-1 1 .448 1 1-.449 1-1 1zm-4.95 3.95c.195.195.195.512 0 .707s-.512.195-.707 0c-3.119-3.119-3.119-8.195 0-11.314.195-.195.512-.195.707 0s.195.512 0 .707c-2.729 2.729-2.729 7.171 0 9.9zm10.607-10.607c3.119 3.119 3.119 8.195 0 11.314-.195.195-.512.195-.707 0s-.195-.512 0-.707c2.729-2.729 2.729-7.171 0-9.9-.195-.195-.195-.512 0-.707s.512-.195.707 0zm-8.485 2.829c-.755.755-1.171 1.76-1.171 2.828s.416 2.073 1.171 2.828c.195.195.195.512 0 .707s-.512.195-.707 0c-.944-.944-1.464-2.199-1.464-3.535s.52-2.591 1.464-3.535c.195-.195.512-.195.707 0s.195.512 0 .707zm7.829 2.828c0 1.336-.52 2.591-1.464 3.535-.195.195-.512.195-.707 0s-.195-.512 0-.707c.755-.755 1.171-1.76 1.171-2.828s-.416-2.073-1.171-2.828c-.195-.195-.195-.512 0-.707s.512-.195.707 0c.944.944 1.464 2.199 1.464 3.535zm3.499-10h-17c-1.93 0-3.5 1.57-3.5 3.5v13c0 1.93 1.57 3.5 3.5 3.5h3.312l4.192 3.621c.285.253.642.379.999.379.354 0 .708-.124.988-.374l4.224-3.626h3.286c1.93 0 3.5-1.57 3.5-3.5v-13c0-1.93-1.57-3.5-3.5-3.5zm2.5 16.5c0 1.379-1.122 2.5-2.5 2.5h-3.471c-.12 0-.235.043-.326.121l-4.371 3.752c-.19.17-.475.169-.67-.004l-4.338-3.747c-.091-.079-.207-.122-.327-.122h-3.497c-1.378 0-2.5-1.121-2.5-2.5v-13c0-1.379 1.122-2.5 2.5-2.5h17c1.378 0 2.5 1.121 2.5 2.5z"/></svg>