<svg id="Layer_1" viewBox="0 0 24 24" xmlns="http://www.w3.org/2000/svg" data-name="Layer 1"><path d="m18.41 21.332c.158.227.103.538-.124.696-1.849 1.29-4.022 1.972-6.286 1.972-2.765 0-5.287-1.033-7.222-2.723-.658.167-1.778.676-1.778 2.223 0 .276-.224.5-.5.5s-.5-.224-.5-.5c0-1.606.921-2.55 1.978-2.997-1.841-1.967-2.978-4.602-2.978-7.503 0-2.263.682-4.437 1.972-6.286.157-.227.469-.282.696-.124s.282.47.124.696c-1.173 1.681-1.792 3.657-1.792 5.714 0 5.514 4.486 10 10 10 2.059 0 4.034-.619 5.714-1.792.224-.156.537-.104.696.124zm1.09-20.294c2.273 0 3.5 1.784 3.5 3.462 0 .276.224.5.5.5s.5-.224.5-.5c0-2.502-1.977-4.462-4.5-4.462-.276 0-.5.224-.5.5s.224.5.5.5zm4.354 22.109c.195.195.195.512 0 .707s-.512.195-.707 0l-23.001-23c-.195-.196-.195-.512 0-.708s.512-.195.708 0l.844.844c.784-.615 1.743-.952 2.802-.952.276 0 .5.224.5.5s-.224.5-.5.5c-.788 0-1.499.238-2.089.667l2.717 2.717c1.815-1.455 4.047-2.294 6.371-2.4v-1.522c0-.276.224-.5.5-.5s.5.224.5.5v1.525c5.833.264 10.5 5.078 10.5 10.975 0 2.503-.863 4.926-2.422 6.871l3.275 3.275zm-18.013-18.013 5.659 5.659v-4.293c0-.276.224-.5.5-.5s.5.224.5.5v5.293l.707.707h3.293c.276 0 .5.224.5.5s-.224.5-.5.5h-2.293l5.659 5.659c1.374-1.753 2.134-3.921 2.134-6.159 0-5.514-4.486-10-10-10-2.238 0-4.406.76-6.159 2.134z"/></svg>