<svg id="Layer_1" viewBox="0 0 24 24" xmlns="http://www.w3.org/2000/svg" data-name="Layer 1"><path d="m24 9.561v.939c0 .276-.224.5-.5.5s-.5-.224-.5-.5v-.939c0-1.166-.576-2.25-1.542-2.901l-7.5-5.061c-1.189-.803-2.727-.803-3.916 0l-7.5 5.061c-.966.651-1.542 1.736-1.542 2.901v9.939c0 1.93 1.57 3.5 3.5 3.5h7c.276 0 .5.224.5.5s-.224.5-.5.5h-7c-2.481 0-4.5-2.019-4.5-4.5v-9.939c0-1.499.741-2.893 1.983-3.73l7.5-5.061c1.527-1.031 3.504-1.032 5.033 0l7.5 5.061c1.242.837 1.983 2.232 1.983 3.73zm0 8.939v2c0 1.93-1.57 3.5-3.5 3.5h-4c-1.93 0-3.5-1.57-3.5-3.5v-2c0-1.391.822-2.585 2-3.149v-1.851c0-1.93 1.57-3.5 3.5-3.5 1.48 0 2.807.938 3.301 2.333.092.26-.045.546-.305.638-.264.089-.546-.044-.639-.305-.353-.997-1.3-1.667-2.357-1.667-1.379 0-2.5 1.122-2.5 2.5v1.551c.165-.024.329-.051.5-.051h4c1.93 0 3.5 1.57 3.5 3.5zm-1 0c0-1.379-1.121-2.5-2.5-2.5h-4c-1.379 0-2.5 1.121-2.5 2.5v2c0 1.379 1.121 2.5 2.5 2.5h4c1.379 0 2.5-1.121 2.5-2.5zm-4.5 0c-.552 0-1 .448-1 1s.448 1 1 1 1-.448 1-1-.448-1-1-1z"/></svg>