<svg id="Layer_1" viewBox="0 0 24 24" xmlns="http://www.w3.org/2000/svg" data-name="Layer 1"><path d="m19.5 3h-15c-2.481 0-4.5 2.019-4.5 4.5v9c0 2.481 2.019 4.5 4.5 4.5h15c2.481 0 4.5-2.019 4.5-4.5v-9c0-2.481-2.019-4.5-4.5-4.5zm3.5 13.5c0 1.93-1.57 3.5-3.5 3.5h-15c-1.93 0-3.5-1.57-3.5-3.5v-9c0-1.93 1.57-3.5 3.5-3.5h15c1.93 0 3.5 1.57 3.5 3.5zm-11-8v5c0 1.378-1.121 2.5-2.5 2.5s-2.5-1.122-2.5-2.5v-5c0-.276.224-.5.5-.5s.5.224.5.5v5c0 .827.673 1.5 1.5 1.5s1.5-.673 1.5-1.5v-5c0-.276.224-.5.5-.5s.5.224.5.5zm5.166.161-1.138 3.339 1.138 3.339c.089.261-.051.545-.312.634-.054.019-.107.027-.161.027-.208 0-.402-.131-.474-.339l-1.077-3.161h-1.142v3c0 .276-.224.5-.5.5s-.5-.224-.5-.5v-7c0-.276.224-.5.5-.5s.5.224.5.5v3h1.142l1.077-3.161c.09-.262.374-.402.635-.312.262.089.401.373.312.634z"/></svg>