<?xml version="1.0" encoding="UTF-8"?>
<svg xmlns="http://www.w3.org/2000/svg" id="Layer_1" data-name="Layer 1" viewBox="0 0 24 24">
  <path d="m5,6c1.654,0,3-1.346,3-3S6.654,0,5,0s-3,1.346-3,3,1.346,3,3,3Zm0-5c1.103,0,2,.897,2,2s-.897,2-2,2-2-.897-2-2,.897-2,2-2Zm14,5c1.654,0,3-1.346,3-3s-1.346-3-3-3-3,1.346-3,3,1.346,3,3,3Zm0-5c1.103,0,2,.897,2,2s-.897,2-2,2-2-.897-2-2,.897-2,2-2Zm3.845,16.638c.2.19.208.507.017.707-.098.104-.23.155-.362.155-.124,0-.248-.046-.345-.138l-2.155-2.053v4.191c0,1.93-1.57,3.5-3.5,3.5H7.5c-1.93,0-3.5-1.57-3.5-3.5v-5c0-.276.224-.5.5-.5s.5.224.5.5v5c0,1.379,1.122,2.5,2.5,2.5h9c1.378,0,2.5-1.121,2.5-2.5v-4.148l-2.159,2.013c-.202.188-.518.177-.707-.024-.188-.202-.177-.519.025-.707l2.407-2.244c.213-.213.597-.388.934-.388s.724.127.998.4l2.347,2.235Zm1.152-5.194c.031.274-.167.522-.441.554-.019.002-.038.003-.057.003-.251,0-.467-.188-.497-.443-.229-2.027-1.95-3.557-4.003-3.557s-3.773,1.529-4.003,3.557c-.031.273-.28.466-.553.44-.274-.031-.472-.279-.441-.554.287-2.533,2.435-4.443,4.997-4.443s4.71,1.91,4.997,4.443Zm-18.997-3.443c-2.053,0-3.773,1.529-4.003,3.557-.032.273-.281.466-.553.44-.274-.031-.472-.279-.441-.554.287-2.533,2.435-4.443,4.997-4.443s4.71,1.91,4.997,4.443c.031.274-.167.522-.441.554-.019.002-.038.003-.057.003-.251,0-.467-.188-.497-.443-.229-2.027-1.95-3.557-4.003-3.557Z"/>
</svg>
