<svg id="Layer_1" viewBox="0 0 24 24" xmlns="http://www.w3.org/2000/svg" data-name="Layer 1"><path d="m6 6c0-.552.448-1 1-1s1 .448 1 1-.448 1-1 1-1-.448-1-1zm-1.793 3.5-1.353 1.354c-.195.195-.512.195-.707 0s-.195-.512 0-.707l1.353-1.354-.793-.793h-1.52c-.655 0-1.187-.533-1.187-1.187 0-.273.097-.542.272-.757 1.033-1.258 2.499-1.999 4.046-2.053 1.67-1.351 3.799-2.605 6.503-3.831.579-.261 1.245-.141 1.696.31s.572 1.116.31 1.696c-1.204 2.659-2.458 4.788-3.829 6.502-.054 1.548-.795 3.015-2.052 4.046-.216.176-.485.273-.759.273-.654 0-1.187-.533-1.187-1.187v-1.52l-.793-.793zm1.647.233c.094.094.146.221.146.354v1.727c0 .147.189.242.312.14 1.073-.88 1.688-2.139 1.688-3.453 0-.115.04-.227.112-.316 1.359-1.669 2.604-3.769 3.804-6.418.136-.301-.047-.518-.106-.577-.066-.099-.389-.224-.577-.105-2.696 1.223-4.794 2.466-6.414 3.802-.09.074-.202.114-.318.114-1.313 0-2.573.616-3.454 1.689-.105.117-.016.314.141.311h1.728c.133 0 .26.053.354.146l2.586 2.586zm18.146 13.767c0 .276-.224.5-.5.5h-17.126c-.914 0-1.73-.511-2.131-1.332-.4-.82-.3-1.778.264-2.497l10.493-12.849v-6.322c0-.649.516-1 1-1 .076 0 .151.018.22.051l3.26 1.597c.328.178.521.5.521.853s-.192.675-.502.843c0 0-3.488 1.614-3.498 1.618v2.361l7.888 9.657c.174.214.143.529-.071.704-.213.173-.527.144-.704-.071l-2.598-3.181-1.191 1.973c-.216.356-.593.58-1.01.599-.418-.003-.812-.174-1.057-.511l-.752-1.035-1.416 1.983c-.255.355-.652.562-1.09.564-.434 0-.839-.199-1.096-.55l-2.319-3.144-5.296 6.484c-.324.414-.381.953-.146 1.436.235.481.696.77 1.232.77h17.125c.276 0 .5.224.5.5zm-8-19.635 3.049-1.416-3.049-1.4zm-4.763 9.646s0 0 0 0l2.471 3.35c.067.091.159.137.284.143.113 0 .217-.054.283-.146l1.818-2.548c.094-.131.244-.208.405-.209.117.02.312.075.406.206l1.16 1.597c.066.092.164.111.205.099.049-.002.139-.02.197-.116 0 0 1.358-2.221 1.395-2.253l-4.362-5.341-4.263 5.22z"/></svg>