<svg id="Layer_1" viewBox="0 0 24 24" xmlns="http://www.w3.org/2000/svg" data-name="Layer 1"><path d="m7 18.5v-2.5h-2.5c-.276 0-.5-.224-.5-.5s.224-.5.5-.5h2.5v-9c0-.276.224-.5.5-.5s.5.224.5.5v9h2.5c.276 0 .5.224.5.5s-.224.5-.5.5h-2.5v2.5c0 .276-.224.5-.5.5s-.5-.224-.5-.5zm12.5-.5h-5c-.276 0-.5.224-.5.5s.224.5.5.5h5c.276 0 .5-.224.5-.5s-.224-.5-.5-.5zm0-3h-5c-.276 0-.5.224-.5.5s.224.5.5.5h5c.276 0 .5-.224.5-.5s-.224-.5-.5-.5zm4-5c-.276 0-.5.224-.5.5v9c0 1.93-1.57 3.5-3.5 3.5h-15c-1.93 0-3.5-1.57-3.5-3.5v-15c0-1.93 1.57-3.5 3.5-3.5h10c.276 0 .5-.224.5-.5s-.224-.5-.5-.5h-10c-2.481 0-4.5 2.019-4.5 4.5v15c0 2.481 2.019 4.5 4.5 4.5h15c2.481 0 4.5-2.019 4.5-4.5v-9c0-.276-.224-.5-.5-.5zm-1.183-3.551c-.262.087-.404.371-.317.632.087.265.377.403.632.317.818-.272 1.368-1.035 1.368-1.898 0-.805-.479-1.529-1.221-1.843-.251-.106-.547.01-.655.266-.107.254.011.547.266.655.371.157.611.519.611.922 0 .432-.274.813-.683.949zm-6.817-3.949h.766l2.469-2.174c.429-.353.99-.422 1.476-.192s.789.707.789 1.245v8.242c.018.748-.641 1.39-1.38 1.379-.311 0-.618-.107-.871-.315l-2.482-2.185h-.766c-1.378 0-2.5-1.122-2.5-2.5v-1c0-1.378 1.122-2.5 2.5-2.5zm-1.5 3.5c0 .827.673 1.5 1.5 1.5h.955c.122 0 .239.044.331.125l2.611 2.299c.154.127.323.069.388.039.065-.031.216-.125.216-.341v-8.243c0-.215-.151-.31-.216-.341s-.234-.087-.401.049l-2.598 2.288c-.091.08-.209.125-.331.125h-.955c-.827 0-1.5.673-1.5 1.5zm.5 7h3c.276 0 .5-.224.5-.5s-.224-.5-.5-.5h-3c-.276 0-.5.224-.5.5s.224.5.5.5z"/></svg>