<svg id="Layer_1" viewBox="0 0 24 24" xmlns="http://www.w3.org/2000/svg" data-name="Layer 1"><path d="m11.5 6c0 .552-.448 1-1 1s-1-.448-1-1 .448-1 1-1 1 .448 1 1zm-2 3h-1c-.276 0-.5.224-.5.5s.224.5.5.5h1c.276 0 .5.224.5.5v5c0 .276.224.5.5.5s.5-.224.5-.5v-5c0-.827-.673-1.5-1.5-1.5zm1 11h-7c-1.378 0-2.5-1.122-2.5-2.5v-7c0-5.238 4.262-9.5 9.5-9.5s9.5 4.262 9.5 9.5c0 .276.224.5.5.5s.5-.224.5-.5c0-5.79-4.71-10.5-10.5-10.5s-10.5 4.71-10.5 10.5v7c0 1.93 1.57 3.5 3.5 3.5h7c.276 0 .5-.224.5-.5s-.224-.5-.5-.5zm9.5 2c-.552 0-1 .448-1 1s.448 1 1 1 1-.448 1-1-.448-1-1-1zm3-3c-.552 0-1 .448-1 1s.448 1 1 1 1-.448 1-1-.448-1-1-1zm-3 0c-.552 0-1 .448-1 1s.448 1 1 1 1-.448 1-1-.448-1-1-1zm-2-4.5v2c0 .827-.673 1.5-1.5 1.5h-2c-.827 0-1.5-.673-1.5-1.5v-2c0-.827.673-1.5 1.5-1.5h2c.827 0 1.5.673 1.5 1.5zm-1 0c0-.276-.225-.5-.5-.5h-2c-.275 0-.5.224-.5.5v2c0 .276.225.5.5.5h2c.275 0 .5-.224.5-.5zm1 6v2c0 .827-.673 1.5-1.5 1.5h-2c-.827 0-1.5-.673-1.5-1.5v-2c0-.827.673-1.5 1.5-1.5h2c.827 0 1.5.673 1.5 1.5zm-1 0c0-.276-.225-.5-.5-.5h-2c-.275 0-.5.224-.5.5v2c0 .276.225.5.5.5h2c.275 0 .5-.224.5-.5zm7-6v2c0 .827-.673 1.5-1.5 1.5h-2c-.827 0-1.5-.673-1.5-1.5v-2c0-.827.673-1.5 1.5-1.5h2c.827 0 1.5.673 1.5 1.5zm-1 0c0-.276-.225-.5-.5-.5h-2c-.275 0-.5.224-.5.5v2c0 .276.225.5.5.5h2c.275 0 .5-.224.5-.5zm-1.5.25c-.414 0-.75.336-.75.75s.336.75.75.75.75-.336.75-.75-.336-.75-.75-.75zm-6 0c-.414 0-.75.336-.75.75s.336.75.75.75.75-.336.75-.75-.336-.75-.75-.75zm0 6c-.414 0-.75.336-.75.75s.336.75.75.75.75-.336.75-.75-.336-.75-.75-.75z"/></svg>