<?xml version="1.0" encoding="UTF-8"?>
<svg xmlns="http://www.w3.org/2000/svg" id="Layer_1" data-name="Layer 1" viewBox="0 0 24 24">
  <path d="M21,9.5c-1.379,0-2.5,1.122-2.5,2.5s1.121,2.5,2.5,2.5,2.5-1.121,2.5-2.5-1.121-2.5-2.5-2.5Zm0,4c-.827,0-1.5-.673-1.5-1.5s.673-1.5,1.5-1.5,1.5,.673,1.5,1.5-.673,1.5-1.5,1.5Zm-6-4c-1.379,0-2.5,1.122-2.5,2.5s1.121,2.5,2.5,2.5,2.5-1.121,2.5-2.5-1.121-2.5-2.5-2.5Zm0,4c-.827,0-1.5-.673-1.5-1.5s.673-1.5,1.5-1.5,1.5,.673,1.5,1.5-.673,1.5-1.5,1.5Zm-3.5-1.5c0,1.378-1.122,2.5-2.5,2.5-1.207,0-2.217-.86-2.449-2h-1.101c-.232,1.14-1.242,2-2.449,2-1.378,0-2.5-1.122-2.5-2.5s1.122-2.5,2.5-2.5c1.207,0,2.217,.86,2.449,2h1.101c.232-1.14,1.242-2,2.449-2,1.378,0,2.5,1.122,2.5,2.5Z"/>
</svg>
