<?xml version="1.0" encoding="UTF-8"?>
<svg xmlns="http://www.w3.org/2000/svg" id="Layer_1" data-name="Layer 1" viewBox="0 0 24 24">
  <path d="M19.5,4h-.537c-.18-1.634-1.224-3.044-2.775-3.672-.256-.104-.547,.02-.651,.276-.104,.256,.02,.547,.276,.651,1.329,.538,2.188,1.812,2.188,3.246V12.5c0,1.93-1.57,3.5-3.5,3.5H6.5c-.105-.004-.189,.05-.277,.084l-4.215,2.81c-.408,.295-1.025-.037-1.007-.539V4.5c0-1.93,1.57-3.5,3.5-3.5h2c.276,0,.5-.224,.5-.5s-.224-.5-.5-.5h-2C2.019,0,0,2.019,0,4.5v13.855c-.041,1.276,1.522,2.113,2.562,1.371l3.526-2.351c.409,2.063,2.23,3.625,4.412,3.625h6.849l4.089,2.726c1.039,.742,2.603-.096,2.562-1.371V8.5c0-2.481-2.019-4.5-4.5-4.5Zm3.5,18.355c0,.243-.128,.457-.342,.571-.215,.114-.463,.102-.665-.032l-4.215-2.81c-.082-.055-.179-.084-.277-.084h-7c-1.758,0-3.204-1.308-3.449-3h7.449c2.481,0,4.5-2.019,4.5-4.5V5h.5c1.93,0,3.5,1.57,3.5,3.5v13.855ZM7,6.5v3c0,1.378,1.122,2.5,2.5,2.5h4c1.378,0,2.5-1.122,2.5-2.5v-3c0-1.207-.86-2.217-2-2.449v-1.551c0-1.378-1.122-2.5-2.5-2.5s-2.5,1.122-2.5,2.5v1.551c-1.14,.232-2,1.242-2,2.449ZM11.5,1c.827,0,1.5,.673,1.5,1.5v1.5h-3v-1.5c0-.827,.673-1.5,1.5-1.5Zm-3.5,5.5c0-.827,.673-1.5,1.5-1.5h4c.827,0,1.5,.673,1.5,1.5v3c0,.827-.673,1.5-1.5,1.5h-4c-.827,0-1.5-.673-1.5-1.5v-3Zm2.5,1.5c0-.552,.448-1,1-1s1,.448,1,1-.448,1-1,1-1-.448-1-1Z"/>
</svg>
