<?xml version="1.0" encoding="UTF-8"?>
<svg xmlns="http://www.w3.org/2000/svg" id="Layer_1" data-name="Layer 1" viewBox="0 0 24 24">
  <path d="M20.879,13.55c-1.167-.35-2.205-.565-3.119-.755-1.964-.408-3.401-.706-4.76-2.004V2.5c.057-1.616-1.549-2.795-3.062-2.442-.038,.009-4.053,1.942-4.053,1.942H3.5C1.57,2,0,3.57,0,5.5V22c0,1.103,.897,2,2,2H6c1.103,0,2-.897,2-2v-1.473c.126,.038,2.928,.986,3,.992v1.981c0,.276,.224,.5,.5,.5s.5-.224,.5-.5v-1.725c.697,.144,1.406,.225,2.123,.225h.877v1.5c0,.276,.224,.5,.5,.5s.5-.224,.5-.5v-1.5h3v1.5c0,.276,.224,.5,.5,.5s.5-.224,.5-.5v-1.5h3v1.5c0,.276,.224,.5,.5,.5s.5-.224,.5-.5v-5c0-2.046-1.077-4.404-3.121-4.95ZM3.5,3h2.5v2.5c0,.827-.673,1.5-1.5,1.5H1v-1.5c0-1.378,1.122-2.5,2.5-2.5Zm2.5,20H2c-.551,0-1-.448-1-1v-2h3.877c.718,0,1.428,.085,2.123,.245v1.755c0,.552-.449,1-1,1Zm8.123-2c-1.024,0-2.035-.164-3.004-.487-1.841-.597-4.284-1.603-6.241-1.513H1V8h3.5c1.378,0,2.5-1.122,2.5-2.5V2.572l3.208-1.549c.92-.108,1.751,.344,1.792,1.477v7.923l-1.99,1.143c-.239,.138-.322,.443-.185,.683,.138,.242,.447,.321,.683,.185l1.732-.995c.712,.697,1.438,1.151,2.21,1.478l-1.07,1.873c-.137,.239-.054,.545,.186,.683,.236,.135,.544,.055,.682-.187l1.156-2.023c.672,.202,1.382,.351,2.153,.511,.896,.186,1.91,.396,3.05,.737,1.554,.415,2.393,2.365,2.393,3.988v2.5H14.123Z"/>
</svg>
