<svg id="Layer_1" viewBox="0 0 24 24" xmlns="http://www.w3.org/2000/svg" data-name="Layer 1"><path d="m22 22c0 .276-.224.5-.5.5h-13c-.276 0-.5-.224-.5-.5s.224-.5.5-.5h13c.276 0 .5.224.5.5zm-16 0c0 1.103-.897 2-2 2s-2-.897-2-2 .897-2 2-2 2 .897 2 2zm-1 0c0-.551-.449-1-1-1s-1 .449-1 1 .449 1 1 1 1-.449 1-1zm3-5c0 .276.224.5.5.5h13c.276 0 .5-.224.5-.5s-.224-.5-.5-.5h-13c-.276 0-.5.224-.5.5zm-2 0c0 1.103-.897 2-2 2s-2-.897-2-2 .897-2 2-2 2 .897 2 2zm-1 0c0-.551-.449-1-1-1s-1 .449-1 1 .449 1 1 1 1-.449 1-1zm9-13.5c0-1.93 1.57-3.5 3.5-3.5s3.5 1.57 3.5 3.5-1.57 3.5-3.5 3.5-3.5-1.57-3.5-3.5zm1 0c0 1.378 1.122 2.5 2.5 2.5s2.5-1.122 2.5-2.5-1.122-2.5-2.5-2.5-2.5 1.122-2.5 2.5zm-9.321 8.243c-.614-.765-.821-1.777-.583-2.852.104-.469.71-2.952.822-3.473.756-3.494 2.916-5.418 6.082-5.418.183 0 .362.006.536.019.275.02.482.259.462.535-.019.276-.267.487-.535.462-.151-.011-.306-.016-.464-.016-3.391 0-4.647 2.518-5.104 4.629-.114.528-.721 3.016-.823 3.479-.174.783-.041 1.478.386 2.009.457.569 1.198.883 2.087.883h6.908c.823 0 1.531-.274 1.992-.773.408-.441.597-1.025.545-1.688-.021-.275.185-.516.46-.537.282-.021.516.185.537.46.072.936-.215 1.804-.809 2.445-.653.705-1.621 1.094-2.726 1.094h-1.454c0 1.103-.897 2-2 2s-2-.897-2-2h-1.454c-1.181 0-2.226-.458-2.867-1.257zm7.321 1.257h-2c0 .551.449 1 1 1s1-.449 1-1z"/></svg>