<?xml version="1.0" encoding="UTF-8"?>
<svg xmlns="http://www.w3.org/2000/svg" id="Layer_1" data-name="Layer 1" viewBox="0 0 24 24">
  <path d="M12.5,7c1.93,0,3.5-1.57,3.5-3.5s-1.57-3.5-3.5-3.5-3.5,1.57-3.5,3.5,1.57,3.5,3.5,3.5Zm0-6c1.378,0,2.5,1.121,2.5,2.5s-1.122,2.5-2.5,2.5-2.5-1.121-2.5-2.5,1.122-2.5,2.5-2.5ZM1.063,.743c-.134-.242-.047-.546,.194-.681,.24-.132,.546-.046,.68,.194l2.329,4.192c.085,.153,.195,.289,.327,.403l2.822,2.45,7.072,1.992,4.097-.729c.164-.029,.321-.085,.466-.166l4.208-2.338c.24-.132,.546-.046,.68,.194,.134,.242,.047,.546-.194,.681l-4.208,2.338c-.241,.134-.502,.227-.775,.275l-4.185,.745-.75,2.429c-.08,.266-.368,.412-.625,.33-.264-.081-.412-.361-.33-.625l.725-2.347-5.942-1.674-1.209,4.266c-.075,.268-.359,.419-.617,.345-.266-.075-.42-.353-.345-.618l1.24-4.377-2.782-2.416c-.22-.19-.404-.417-.546-.673L1.063,.743ZM23.879,22.407c.18,.21,.156,.525-.054,.705-.666,.572-1.524,.888-2.417,.888-1.24,0-2.434-.594-3.137-1.494-.703,.9-1.896,1.494-3.136,1.494s-2.434-.594-3.136-1.494c-.703,.9-1.897,1.494-3.136,1.494s-2.434-.594-3.136-1.494c-.703,.9-1.897,1.494-3.137,1.494-.893,0-1.75-.315-2.417-.888-.209-.18-.233-.495-.054-.705,.181-.21,.497-.232,.705-.053,.485,.416,1.112,.646,1.765,.646,1.168,0,2.315-.72,2.668-1.674,.072-.196,.259-.326,.469-.326s.396,.131,.469,.327c.352,.953,1.499,1.673,2.667,1.673s2.314-.72,2.667-1.674c.145-.393,.793-.393,.938,0,.353,.954,1.5,1.674,2.667,1.674s2.315-.72,2.667-1.673c.146-.392,.794-.394,.938,0,.353,.954,1.5,1.674,2.668,1.674,.653,0,1.28-.229,1.765-.646,.21-.18,.525-.157,.705,.053ZM.174,17.112c-.209-.18-.233-.495-.054-.705,.181-.209,.497-.232,.705-.053,.485,.416,1.112,.646,1.765,.646,1.168,0,2.315-.72,2.668-1.674,.072-.196,.259-.326,.469-.326s.396,.131,.469,.327c.352,.953,1.499,1.673,2.667,1.673s2.314-.72,2.667-1.674c.145-.393,.793-.393,.938,0,.353,.954,1.5,1.674,2.667,1.674s2.315-.72,2.667-1.673c.146-.392,.794-.394,.938,0,.353,.954,1.5,1.674,2.668,1.674,.653,0,1.28-.229,1.765-.646,.21-.18,.525-.156,.705,.053,.18,.21,.156,.525-.054,.705-.666,.572-1.524,.888-2.417,.888-1.24,0-2.434-.594-3.137-1.494-.703,.9-1.896,1.494-3.136,1.494s-2.434-.594-3.136-1.494c-.703,.9-1.897,1.494-3.136,1.494s-2.434-.594-3.136-1.494c-.703,.9-1.897,1.494-3.137,1.494-.893,0-1.75-.315-2.417-.888Z"/>
</svg>
