<?xml version="1.0" encoding="UTF-8"?>
<svg xmlns="http://www.w3.org/2000/svg" id="Layer_1" data-name="Layer 1" viewBox="0 0 24 24">
  <path d="M18,6.5c.552,0,1,.672,1,1.5s-.448,1.5-1,1.5-1-.672-1-1.5,.448-1.5,1-1.5Zm6,15.5c0,1.202-1.263,2-2.098,2H11c-2.206,0-4-1.794-4-4v-4h-2.25C1.998,16,0,12.636,0,8S1.998,0,4.75,0h13.25c2.243,0,4,3.514,4,8v9c0,1.162,0,1.803,1.034,2.907,.45,.481,.966,1.153,.966,2.093ZM18,1c-1.419,0-3,2.875-3,7s1.581,7,3,7,3-2.875,3-7-1.581-7-3-7ZM4.75,15h11.288c-1.225-1.352-2.038-3.95-2.038-7s.813-5.648,2.038-7H4.75c-2.138,0-3.75,3.009-3.75,7s1.612,7,3.75,7Zm18.25,7c0-.584-.335-1.023-.697-1.409-1.303-1.394-1.303-2.363-1.303-3.591v-3.668c-.728,1.642-1.792,2.668-3,2.668H8v4c0,1.654,1.346,3,3,3h10.902c.366,0,1.098-.432,1.098-1ZM10.146,10.854c.098,.098,.226,.146,.354,.146s.256-.049,.354-.146c.195-.195,.195-.512,0-.707l-2.146-2.146,2.146-2.146c.195-.195,.195-.512,0-.707s-.512-.195-.707,0l-2.146,2.146-2.146-2.146c-.195-.195-.512-.195-.707,0s-.195,.512,0,.707l2.146,2.146-2.146,2.146c-.195,.195-.195,.512,0,.707,.098,.098,.226,.146,.354,.146s.256-.049,.354-.146l2.146-2.146,2.146,2.146Z"/>
</svg>
