<?xml version="1.0" encoding="UTF-8"?>
<svg xmlns="http://www.w3.org/2000/svg" id="Layer_1" data-name="Layer 1" viewBox="0 0 24 24">
  <path d="m17,16c0,.552-.448,1-1,1s-1-.448-1-1,.448-1,1-1,1,.448,1,1Zm3-1c-.552,0-1,.448-1,1s.448,1,1,1,1-.448,1-1-.448-1-1-1Zm-2-3c-.552,0-1,.448-1,1s.448,1,1,1,1-.448,1-1-.448-1-1-1Zm6,4c0,4.411-3.589,8-8,8-1.888,0-3.69-.666-5.129-1.871-.828,1.153-2.173,1.871-3.654,1.871h-2.434c-1.946,0-3.663-1.235-4.272-3.074-.339-1.024-.511-2.177-.511-3.426,0-2.19.896-3.819,1.686-5.257.676-1.229,1.314-2.391,1.314-3.743,0-.431-.204-1.079-.419-1.766-.272-.867-.581-1.85-.581-2.734C2,1.794,3.794,0,6,0s4,1.794,4,4c0,.885-.309,1.867-.581,2.734-.215.687-.419,1.335-.419,1.766,0,.922.3,1.755.703,2.582,1.511-1.938,3.806-3.082,6.297-3.082,4.411,0,8,3.589,8,8ZM3,4c0,.731.272,1.597.535,2.435.175.557.34,1.09.418,1.565h4.094c.078-.475.243-1.008.418-1.565.263-.838.535-1.704.535-2.435,0-1.654-1.346-3-3-3s-3,1.346-3,3Zm7.54,16.612c.306-.922.46-1.969.46-3.112,0-1.933-.794-3.378-1.562-4.775-.661-1.203-1.285-2.347-1.411-3.725H3.973c-.126,1.378-.75,2.522-1.411,3.725-.768,1.397-1.562,2.842-1.562,4.775,0,1.143.155,2.189.46,3.112.474,1.428,1.809,2.388,3.323,2.388h2.434c1.514,0,2.849-.96,3.323-2.388Zm12.46-4.612c0-3.86-3.14-7-7-7-2.335,0-4.472,1.148-5.78,3.07.031.057.062.115.094.172.791,1.438,1.686,3.067,1.686,5.257,0,1.25-.172,2.402-.511,3.426-.035.107-.087.204-.13.307,1.282,1.138,2.922,1.767,4.641,1.767,3.86,0,7-3.14,7-7Z"/>
</svg>
