<svg id="Layer_1" viewBox="0 0 24 24" xmlns="http://www.w3.org/2000/svg" data-name="Layer 1"><path d="m15.5 0h-7c-2.481 0-4.5 2.019-4.5 4.5v15c0 2.481 2.019 4.5 4.5 4.5h7c2.481 0 4.5-2.019 4.5-4.5v-15c0-2.481-2.019-4.5-4.5-4.5zm3.5 19.5c0 1.93-1.57 3.5-3.5 3.5h-7c-1.93 0-3.5-1.57-3.5-3.5v-1.5h14zm0-2.5h-14v-12.5c0-1.93 1.57-3.5 3.5-3.5h7c1.93 0 3.5 1.57 3.5 3.5zm-9 3.5c0-.276.224-.5.5-.5h3c.276 0 .5.224.5.5s-.224.5-.5.5h-3c-.276 0-.5-.224-.5-.5zm3.978-6.751c-.174.304-.525.888-.916 1.373-.174.216-.489.249-.703.076-.215-.173-.249-.488-.076-.703.253-.315.555-.768.826-1.243.137-.239.442-.323.683-.186.239.137.323.443.186.683zm1.022-4.785c0 .561 0 1.499-.207 2.56-.046.239-.256.404-.49.404-.31.003-.554-.291-.491-.596.188-.966.188-1.844.188-2.368 0-1.083-.881-1.964-1.964-1.964-.557 0-1.09.239-1.462.655-.184.207-.5.224-.706.039-.206-.184-.223-.5-.039-.706.562-.628 1.367-.988 2.208-.988 1.634 0 2.964 1.33 2.964 2.964zm-8 4.478c-.276 0-.5-.224-.5-.5s.224-.5.5-.5c.082 0 2.006-.039 2.006-3.446 0-.276.224-.5.5-.5s.5.224.5.5c0 3.517-1.966 4.446-3.006 4.446zm0-3.442v-1c0-2.757 2.252-5 5.021-5 1.086 0 2.119.345 2.988.998.221.166.265.479.099.7-.165.221-.479.265-.7.1-.694-.522-1.52-.798-2.387-.798-2.217 0-4.021 1.794-4.021 4v1c0 .276-.224.5-.5.5s-.5-.224-.5-.5zm2.476 5.155c-.231.144-.542.076-.689-.161-.146-.234-.074-.543.161-.689 2.647-1.646 2.589-3.833 2.558-5.007l-.005-.299c0-.276.224-.5.5-.5s.5.224.5.5l.005.272c.031 1.177.104 3.934-3.03 5.883zm7.026-8.346c.331.68.498 1.41.498 2.17 0 1.006 0 3.363-1.073 5.666-.117.253-.42.357-.665.242-.25-.117-.358-.414-.242-.665.979-2.102.979-4.303.979-5.243 0-.607-.134-1.19-.397-1.732-.121-.249-.017-.548.231-.668.25-.12.548-.016.668.231z"/></svg>