<?xml version="1.0" encoding="UTF-8"?>
<svg xmlns="http://www.w3.org/2000/svg" id="Layer_1" data-name="Layer 1" viewBox="0 0 24 24">
  <path d="m18.852,12.632c.199-.401.199-.862,0-1.264-.679-1.368-3.345-4.368-6.852-4.368s-6.173,3-6.852,4.368c-.199.402-.199.862,0,1.264.679,1.369,3.346,4.368,6.852,4.368s6.173-3,6.852-4.368Zm-6.852,3.368c-3.342,0-5.58-3.056-5.955-3.812-.06-.119-.06-.255,0-.375.504-1.018,2.853-3.812,5.955-3.812s5.451,2.795,5.955,3.812h0c.061.121.061.254,0,.375-.504,1.018-2.853,3.812-5.955,3.812Zm0-6.5c-1.379,0-2.5,1.121-2.5,2.5s1.121,2.5,2.5,2.5,2.5-1.121,2.5-2.5-1.121-2.5-2.5-2.5Zm0,4c-.827,0-1.5-.673-1.5-1.5s.673-1.5,1.5-1.5,1.5.673,1.5,1.5-.673,1.5-1.5,1.5ZM.146.854C-.049.658-.049.342.146.146S.658-.049.854.146l5.112,5.112c.022-.083.034-.169.034-.259V1.5c0-.276.224-.5.5-.5s.5.224.5.5v3.5c0,1.103-.897,2-2,2H1.5c-.276,0-.5-.224-.5-.5s.224-.5.5-.5h3.5c.09,0,.176-.012.259-.034L.146.854Zm16.863,4.152l-.01-3.505c0-.275.223-.5.499-.501h0c.275,0,.499.223.5.499l.01,3.504c0,.086.011.169.032.248L23.224.069c.195-.195.512-.195.707,0s.195.512,0,.707l-5.187,5.187c.085.024.174.036.266.036h3.49c.276,0,.5.224.5.5s-.224.5-.5.5h-3.49c-1.099,0-1.996-.895-2-1.994Zm-10.01,13.994v3.5c0,.276-.224.5-.5.5s-.5-.224-.5-.5v-3.5c0-.09-.012-.176-.034-.259L.776,23.931c-.098.098-.226.146-.354.146s-.256-.049-.354-.146c-.195-.195-.195-.512,0-.707l5.19-5.19c-.083-.022-.169-.034-.259-.034H1.5c-.276,0-.5-.224-.5-.5s.224-.5.5-.5h3.5c1.103,0,2,.897,2,2Zm16.931,4.224c.195.195.195.512,0,.707-.098.098-.226.146-.354.146s-.256-.049-.354-.146l-5.182-5.182c-.021.08-.032.163-.032.249l-.01,3.503c0,.276-.225.499-.5.499h0c-.276,0-.5-.226-.499-.501l.01-3.504c.004-1.101.901-1.995,2-1.995h3.49c.276,0,.5.224.5.5s-.224.5-.5.5h-3.49c-.092,0-.181.013-.266.036l5.187,5.187Z"/>
</svg>
