<svg id="Layer_1" viewBox="0 0 24 24" xmlns="http://www.w3.org/2000/svg" data-name="Layer 1"><path d="m20 8c2.206 0 4-1.794 4-4s-1.794-4-4-4-4 1.794-4 4 1.794 4 4 4zm0-7c1.654 0 3 1.346 3 3s-1.346 3-3 3-3-1.346-3-3 1.346-3 3-3zm4 8.5v10c0 2.481-2.019 4.5-4.5 4.5h-15c-2.481 0-4.5-2.019-4.5-4.5v-13c0-2.481 2.019-4.5 4.5-4.5h3.028c.386 0 .772.091 1.118.264l3.156 1.578c.207.104.439.158.671.158h1.028c.276 0 .5.224.5.5s-.224.5-.5.5h-1.028c-.386 0-.772-.091-1.118-.264l-3.156-1.578c-.207-.104-.439-.158-.671-.158h-3.028c-1.93 0-3.5 1.57-3.5 3.5v1.5h14.5c.276 0 .5.224.5.5s-.224.5-.5.5h-14.5v10.5c0 1.93 1.57 3.5 3.5 3.5h15c1.93 0 3.5-1.57 3.5-3.5v-10c0-.276.224-.5.5-.5s.5.224.5.5z"/></svg>