<svg id="Layer_1" viewBox="0 0 24 24" xmlns="http://www.w3.org/2000/svg" data-name="Layer 1"><path d="m5.5 13c-3.033 0-5.5 2.467-5.5 5.5s2.467 5.5 5.5 5.5 5.5-2.467 5.5-5.5-2.467-5.5-5.5-5.5zm0 10c-2.481 0-4.5-2.019-4.5-4.5s2.019-4.5 4.5-4.5 4.5 2.019 4.5 4.5-2.019 4.5-4.5 4.5zm2-6.5c0 .276-.224.5-.5.5h-1v3.5c0 .276-.224.5-.5.5s-.5-.224-.5-.5v-3.5h-1c-.276 0-.5-.224-.5-.5s.224-.5.5-.5h3c.276 0 .5.224.5.5zm11-3.5c-3.033 0-5.5 2.467-5.5 5.5s2.467 5.5 5.5 5.5 5.5-2.467 5.5-5.5-2.467-5.5-5.5-5.5zm0 10c-2.481 0-4.5-2.019-4.5-4.5s2.019-4.5 4.5-4.5 4.5 2.019 4.5 4.5-2.019 4.5-4.5 4.5zm2-6.5c0 .276-.224.5-.5.5h-2v1h1c.276 0 .5.224.5.5s-.224.5-.5.5h-1v1.5c0 .276-.224.5-.5.5s-.5-.224-.5-.5v-3.5c0-.551.449-1 1-1h2c.276 0 .5.224.5.5zm-12.5-12v-.5c0-1.224.549-2.365 1.508-3.128.958-.766 2.208-1.044 3.428-.765 1.462.333 2.624 1.494 2.957 2.957.408 1.784-.382 3.569-1.965 4.441-.895.493-1.428 1.325-1.428 2.227v.768c0 .276-.224.5-.5.5s-.5-.224-.5-.5v-.768c0-1.271.728-2.431 1.946-3.103 1.188-.655 1.78-1.998 1.473-3.343-.245-1.074-1.131-1.96-2.205-2.205-.922-.21-1.864-.002-2.582.572-.719.573-1.131 1.429-1.131 2.347v.5c0 .276-.224.5-.5.5s-.5-.224-.5-.5zm5 8.5c0 .552-.448 1-1 1s-1-.448-1-1 .448-1 1-1 1 .448 1 1z"/></svg>