<svg id="Layer_1" viewBox="0 0 24 24" xmlns="http://www.w3.org/2000/svg" data-name="Layer 1"><path d="m12 13.998c-4.964 0-9.002 4.038-9.002 9.002v.5c0 .276.224.5.5.5s.5-.224.5-.5v-.5c0-3.684 2.506-6.787 5.901-7.713l-.849 3.565c-.128.521-.012 1.061.319 1.483s.828.664 1.365.664h2.533c.536 0 1.033-.242 1.365-.664.33-.422.446-.962.319-1.48l-.85-3.568c3.395.926 5.901 4.028 5.901 7.713v.5c0 .276.224.5.5.5s.5-.224.5-.5v-.5c0-4.964-4.038-9.002-9.002-9.002zm1.979 5.093c.054.221.005.449-.135.627-.14.179-.351.281-.577.281h-2.533c-.227 0-.438-.103-.577-.281-.14-.178-.189-.406-.134-.63l.957-4.017c.335-.043.674-.073 1.021-.073s.686.03 1.021.073l.958 4.02zm-9.981-8.094c0 1.103.897 2 2 2s2-.898 2-2c0-.224-.045-.435-.113-.636 1.101 1.04 2.561 1.637 4.114 1.637s3.013-.597 4.114-1.636c-.068.201-.113.413-.113.636 0 1.103.898 2 2 2s2-.898 2-2c0-.6-.271-1.133-.692-1.5.42-.367.692-.9.692-1.5 0-.73-.397-1.363-.983-1.713.297-.349.483-.795.483-1.288 0-.931-.639-1.715-1.501-1.937 0-.021 0-.042 0-.063 0-1.192-1.101-2.143-2.264-1.983-.517-.914-1.808-1.291-2.737-.745-.607-.356-1.394-.356-2 0-.929-.545-2.219-.169-2.737.745-1.176-.158-2.265.792-2.265 1.983v.063c-.863.223-1.501 1.007-1.501 1.938 0 .493.186.939.483 1.288-.586.349-.983.983-.983 1.713 0 .6.271 1.133.691 1.5-.42.367-.691.9-.691 1.5zm8.002 0c-1.677 0-3.225-.833-4.157-2.227.1-.238.156-.5.156-.774 0-.493-.186-.939-.483-1.288.603-.358 1.008-1.029.982-1.777.522-.136.971-.482 1.237-.953.438.059.885-.032 1.264-.255.607.356 1.394.356 2 0 .379.223.832.314 1.264.255.267.472.715.818 1.238.953-.026.748.379 1.42.982 1.777-.297.349-.483.795-.483 1.288 0 .274.056.536.156.774-.932 1.394-2.48 2.227-4.157 2.227zm7.002 0c0 .552-.448 1-1 1s-1-.448-1-1 .448-1 1-1 1 .448 1 1zm-2.001-3.001c0-.552.448-1 1-1s1 .448 1 1-.448 1-1 1-1-.448-1-1zm-10.456-3.992h.018c.17.021.33-.064.431-.199.101-.136.127-.312.07-.471-.044-.12-.065-.231-.065-.339 0-.677.718-1.191 1.371-.927.268.115.599-.051.669-.333.183-.673 1.097-.956 1.625-.48.19.172.481.172.671 0 .371-.336.958-.336 1.329 0 .19.172.481.172.671 0 .529-.478 1.443-.193 1.625.48.07.282.4.447.669.333.653-.265 1.371.25 1.371.927 0 .107-.021.219-.065.341-.059.163.002.342.11.478.105.132.297.201.469.182.545.008.987.453.987 1 0 .552-.448 1-1 1s-1-.448-1-1c0-.107.021-.219.065-.341.057-.158-.002-.33-.103-.464-.095-.127-.271-.196-.431-.196-.449.004-.871-.293-.992-.739-.037-.138-.132-.253-.26-.316-.128-.065-.277-.071-.409-.017-.358.145-.754.067-1.036-.188-.189-.172-.48-.172-.671 0-.371.336-.958.336-1.329 0-.19-.172-.481-.172-.671 0-.281.255-.68.33-1.036.188-.267-.115-.6.051-.669.333-.119.436-.533.74-1.024.732-.166-.017-.33.065-.431.199-.101.136-.127.312-.07.471.044.12.065.231.065.339 0 .552-.449 1-1 1s-1-.448-1-1c0-.546.44-.991 1.047-.991zm-1.547 3.992c0-.552.449-1 1-1s1 .448 1 1-.449 1-1 1-1-.448-1-1zm2.001 3.001c0 .552-.449 1-1 1s-1-.448-1-1 .449-1 1-1 1 .448 1 1z"/></svg>