<svg id="Layer_1" viewBox="0 0 24 24" xmlns="http://www.w3.org/2000/svg" data-name="Layer 1"><path d="m21 23c0 .552-.448 1-1 1s-1-.448-1-1 .448-1 1-1 1 .448 1 1zm2-4c-.552 0-1 .448-1 1s.448 1 1 1 1-.448 1-1-.448-1-1-1zm-3 0c-.552 0-1 .448-1 1s.448 1 1 1 1-.448 1-1-.448-1-1-1zm-2-4.5v2c0 .827-.673 1.5-1.5 1.5h-2c-.827 0-1.5-.673-1.5-1.5v-2c0-.827.673-1.5 1.5-1.5h2c.827 0 1.5.673 1.5 1.5zm-1 0c0-.276-.225-.5-.5-.5h-2c-.275 0-.5.224-.5.5v2c0 .276.225.5.5.5h2c.275 0 .5-.224.5-.5zm1 6v2c0 .827-.673 1.5-1.5 1.5h-2c-.827 0-1.5-.673-1.5-1.5v-2c0-.827.673-1.5 1.5-1.5h2c.827 0 1.5.673 1.5 1.5zm-1 0c0-.276-.225-.5-.5-.5h-2c-.275 0-.5.224-.5.5v2c0 .276.225.5.5.5h2c.275 0 .5-.224.5-.5zm7-6v2c0 .827-.673 1.5-1.5 1.5h-2c-.827 0-1.5-.673-1.5-1.5v-2c0-.827.673-1.5 1.5-1.5h2c.827 0 1.5.673 1.5 1.5zm-1 0c0-.276-.225-.5-.5-.5h-2c-.275 0-.5.224-.5.5v2c0 .276.225.5.5.5h2c.275 0 .5-.224.5-.5zm-12.5-11v.525c2.799.254 5 2.611 5 5.475v.5h1c.276 0 .5.224.5.5s-.224.5-.5.5h-13c-.276 0-.5-.224-.5-.5s.224-.5.5-.5h1v-.5c0-2.864 2.201-5.221 5-5.475v-.525c0-.276.224-.5.5-.5s.5.224.5.5zm-.5 1.5c-2.481 0-4.5 2.019-4.5 4.5v.5h9v-.5c0-2.481-2.019-4.5-4.5-4.5zm11.5 9.75c-.414 0-.75.336-.75.75s.336.75.75.75.75-.336.75-.75-.336-.75-.75-.75zm-6 0c-.414 0-.75.336-.75.75s.336.75.75.75.75-.336.75-.75-.336-.75-.75-.75zm0 6c-.414 0-.75.336-.75.75s.336.75.75.75.75-.336.75-.75-.336-.75-.75-.75zm-12-2.75h7c.276 0 .5-.224.5-.5s-.224-.5-.5-.5h-7c-.98 0-1.864.407-2.5 1.058v-13.558c0-1.93 1.57-3.5 3.5-3.5h11c1.93 0 3.5 1.57 3.5 3.5v6c0 .276.224.5.5.5s.5-.224.5-.5v-6c0-2.481-2.019-4.5-4.5-4.5h-11c-2.481 0-4.5 2.019-4.5 4.5v16c0 1.93 1.57 3.5 3.5 3.5h7c.276 0 .5-.224.5-.5s-.224-.5-.5-.5h-7c-1.379 0-2.5-1.122-2.5-2.5s1.121-2.5 2.5-2.5z"/></svg>