<?xml version="1.0" encoding="UTF-8"?>
<svg xmlns="http://www.w3.org/2000/svg" id="Layer_1" data-name="Layer 1" viewBox="0 0 24 24">
  <path d="M22.723,9.544L14.062,3.575c-1.005-.692-2.251-.767-3.333-.199-1.081,.567-1.726,1.636-1.726,2.856v.225l-3.942-2.816c-.979-.699-2.254-.793-3.323-.24C.667,3.951,.003,5.041,.003,6.244v11.699c0,1.156,.64,2.203,1.668,2.732,.446,.229,.928,.343,1.408,.343,.628,0,1.251-.193,1.785-.574l4.141-2.958v.312c0,1.212,.641,2.273,1.714,2.837,1.072,.564,2.309,.49,3.308-.195l8.718-5.998c.787-.562,1.257-1.476,1.257-2.441s-.476-1.883-1.277-2.456Zm-.554,4.078l-8.71,5.993c-.688,.472-1.538,.521-2.276,.135-.738-.389-1.179-1.118-1.179-1.952v-1.283c0-.188-.104-.358-.271-.444-.167-.086-.368-.071-.52,.037l-4.931,3.522c-.644,.461-1.449,.52-2.154,.157-.704-.362-1.125-1.052-1.125-1.844V6.244c0-.84,.445-1.57,1.191-1.955,.325-.167,.67-.25,1.012-.25,.445,0,.886,.14,1.272,.416l4.733,3.381c.152,.107,.352,.122,.52,.037,.167-.086,.271-.257,.271-.444v-1.196c0-.843,.445-1.579,1.191-1.972,.747-.391,1.605-.34,2.3,.139l8.653,5.964c.534,.381,.853,.993,.853,1.637s-.313,1.252-.831,1.622Z"/>
</svg>
