<svg id="Layer_1" viewBox="0 0 24 24" xmlns="http://www.w3.org/2000/svg" data-name="Layer 1"><path d="m12.383 13.54c.178.211.15.527-.061.705-1.347 1.132-3.06 1.755-4.822 1.755-4.136 0-7.5-3.364-7.5-7.5s3.364-7.5 7.5-7.5c.923 0 1.824.166 2.679.493.258.099.387.388.288.646s-.387.387-.646.288c-.74-.283-1.521-.426-2.321-.426-3.584-.001-6.5 2.915-6.5 6.499s2.916 6.5 6.5 6.5c1.527 0 3.012-.54 4.179-1.521.211-.178.526-.15.705.061zm7.107-5.54c-.547 0-.99.443-.99.99s.443.99.99.99.99-.443.99-.99-.443-.99-.99-.99zm-2.99-3.99c0-.558-.448-1.01-1-1.01s-1 .452-1 1.01.448 1.01 1 1.01 1-.452 1-1.01zm3.653 16.63-2.153 2.073v-7.213c0-.276-.224-.5-.5-.5s-.5.224-.5.5v7.212l-2.153-2.073c-.2-.191-.516-.186-.707.014-.191.199-.186.516.014.707l2.286 2.2c.294.303.561.439 1.063.439.382 0 .763-.145 1.051-.433l2.293-2.207c.199-.191.205-.508.014-.707s-.509-.205-.707-.014zm-10 0-2.153 2.073v-4.213c0-.276-.224-.5-.5-.5s-.5.224-.5.5v4.212l-2.153-2.073c-.199-.191-.516-.186-.707.014-.191.199-.186.516.014.707l2.286 2.2c.294.303.561.439 1.063.439.382 0 .763-.145 1.051-.433l2.293-2.207c.199-.191.205-.508.014-.707s-.509-.205-.707-.014zm13.847-14.14c0 3.584-2.916 6.5-6.5 6.5s-6.5-2.916-6.5-6.5 2.916-6.5 6.5-6.5 6.5 2.916 6.5 6.5zm-1 0c0-3.033-2.467-5.5-5.5-5.5s-5.5 2.467-5.5 5.5 2.467 5.5 5.5 5.5 5.5-2.467 5.5-5.5zm-3.223-3.416c-.23-.154-.541-.091-.693.139l-4 6c-.153.23-.091.54.139.693.227.152.539.093.693-.139l4-6c.153-.23.091-.54-.139-.693zm-12.277 10.916c.276 0 .5-.224.5-.5v-.5h.605c1.321 0 2.395-1.074 2.395-2.395 0-1.176-.842-2.169-2.001-2.362l-2.833-.473c-.675-.112-1.166-.691-1.166-1.375 0-.769.626-1.395 1.395-1.395h2.105c.276 0 .5-.224.5-.5s-.224-.5-.5-.5h-.5v-.5c0-.276-.224-.5-.5-.5s-.5.224-.5.5v.5h-.605c-1.321 0-2.395 1.074-2.395 2.395 0 1.176.842 2.169 2.001 2.362l2.833.473c.675.112 1.166.691 1.166 1.375 0 .769-.626 1.395-1.395 1.395h-2.435c-.515 0-.986-.282-1.23-.736-.13-.243-.434-.335-.677-.204-.243.13-.335.434-.204.677.418.779 1.227 1.264 2.111 1.264h.83v.5c0 .276.224.5.5.5z"/></svg>