<svg id="Layer_1" viewBox="0 0 24 24" xmlns="http://www.w3.org/2000/svg" data-name="Layer 1"><path d="m23.5 1h-6.5c-2.027 0-2.908 1.336-3.761 2.628-.283.431-.552.837-.859 1.197-.043.061-1.628 2.175-4.38 2.175-2.768 0-4.831-3.094-4.918-3.226-.151-.23-.087-.54.144-.692.228-.152.539-.089.692.143.018.028 1.856 2.775 4.082 2.775s3.585-1.779 3.598-1.797c.289-.34.541-.721.807-1.125.904-1.371 2.029-3.078 4.596-3.078h6.5c.276 0 .5.224.5.5s-.224.5-.5.5zm-.269 3.547c.503.746.769 1.615.769 2.515v14.438c0 1.378-1.121 2.5-2.5 2.5s-2.5-1.122-2.5-2.5v-14.438c0-.9.266-1.77.768-2.515s.658-.977.658-.977c.479-.715 1.667-.716 2.147 0l.657.975zm-.231 2.515c0-.7-.206-1.376-.598-1.956l-.657-.976c-.08-.118-.198-.131-.245-.131s-.165.013-.244.13l-.659.977c-.391.58-.597 1.256-.597 1.956v14.438c0 .827.673 1.5 1.5 1.5s1.5-.673 1.5-1.5zm-9.029.501c.641-.625 1.123-1.269 1.458-1.794.148-.232.08-.542-.153-.69-.229-.147-.54-.082-.69.153-.896 1.407-2.945 3.769-6.585 3.769s-5.689-2.362-6.586-3.77c-.148-.234-.46-.3-.69-.153-.233.148-.302.458-.153.69.335.525.817 1.169 1.458 1.794l-1.855 1.597c-.209.18-.233.496-.053.705.18.21.497.232.705.053l1.963-1.69c.358.279.753.542 1.187.777l-1.4 2.229c-.146.234-.076.542.158.689.23.146.541.078.689-.157l1.469-2.339c.431.168.895.305 1.391.403l-.547 2.566c-.058.27.115.536.385.593.263.057.536-.112.594-.385l.561-2.633c.235.018.475.029.723.029.237 0 .467-.011.692-.028l.579 2.635c.057.271.332.441.596.381.27-.059.44-.326.381-.596l-.562-2.556c.508-.098.981-.237 1.422-.409l1.469 2.339c.148.235.46.303.689.157.234-.147.305-.456.158-.689l-1.4-2.229c.434-.235.829-.498 1.187-.777l1.963 1.69c.208.18.525.157.705-.053.181-.209.156-.525-.053-.705l-1.855-1.597z"/></svg>