<?xml version="1.0" encoding="UTF-8"?>
<svg xmlns="http://www.w3.org/2000/svg" id="Layer_1" data-name="Layer 1" viewBox="0 0 24 24">
  <path d="M12,0C5.383,0,0,5.383,0,12s5.383,12,12,12,12-5.383,12-12S18.617,0,12,0ZM1,12c0-2.853,1.101-5.447,2.889-7.404l2.758,2.758c.195,.195,.512,.195,.707,0s.195-.512,0-.707l-2.758-2.758c1.957-1.788,4.551-2.889,7.404-2.889,6.065,0,11,4.935,11,11,0,2.853-1.101,5.447-2.889,7.404l-2.282-2.282c-.195-.195-.512-.195-.707,0s-.195,.512,0,.707l2.282,2.282c-1.957,1.788-4.551,2.889-7.404,2.889-6.065,0-11-4.935-11-11Zm16.5-1.5c0-1.378-1.122-2.5-2.5-2.5h-1c-.551,0-1,.449-1,1v6c0,.551,.449,1,1,1h1c1.378,0,2.5-1.122,2.5-2.5v-3Zm-1,3c0,.827-.673,1.5-1.5,1.5h-1v-6h1c.827,0,1.5,.673,1.5,1.5v3Zm-5.909-4.307c-.12-.668-.589-1.192-1.346-1.192h0c-.757,0-1.281,.586-1.385,1.166l-1.253,6.242c-.061,.306,.172,.591,.484,.591,.235,0,.437-.166,.484-.396l.325-1.604h2.66l.331,1.606c.047,.23,.249,.394,.484,.394h.007c.313,0,.547-.287,.484-.593,.01-.078-1.275-6.214-1.275-6.214Zm-2.488,3.807l.741-3.656c.02-.112,.144-.344,.401-.344h0c.096,0,.295,0,.366,.394l.743,3.606h-2.252Z"/>
</svg>
