<svg id="Layer_1" viewBox="0 0 24 24" xmlns="http://www.w3.org/2000/svg" data-name="Layer 1"><path d="m19.5 0h-15c-2.481 0-4.5 2.019-4.5 4.5v15c0 2.481 2.019 4.5 4.5 4.5h15c2.481 0 4.5-2.019 4.5-4.5v-15c0-2.481-2.019-4.5-4.5-4.5zm3.5 19.5c0 1.93-1.57 3.5-3.5 3.5h-15c-1.93 0-3.5-1.57-3.5-3.5v-15c0-1.93 1.57-3.5 3.5-3.5h15c1.93 0 3.5 1.57 3.5 3.5zm-7.5-13.5h-7c-1.93 0-3.5 1.57-3.5 3.5v5c0 1.93 1.57 3.5 3.5 3.5h7c1.93 0 3.5-1.57 3.5-3.5v-5c0-1.93-1.57-3.5-3.5-3.5zm0 1c.593 0 1.131.216 1.56.562l-4 3.999c-.565.567-1.554.567-2.121 0l-3.999-3.999c.429-.346.967-.562 1.56-.562zm2.5 7.5c0 1.378-1.122 2.5-2.5 2.5h-7c-1.378 0-2.5-1.122-2.5-2.5v-5c0-.422.115-.814.301-1.164l3.931 3.931c.472.472 1.1.732 1.768.732s1.296-.26 1.768-.732l3.932-3.931c.186.349.301.741.301 1.164v5z"/></svg>