<svg id="Layer_1" viewBox="0 0 24 24" xmlns="http://www.w3.org/2000/svg" data-name="Layer 1"><path d="m14.717 8.155c-.349-.206-.766-.212-1.121-.018-.354.194-.574.552-.589.957-.044 1.335.113 1.784.236 2.007.315.574.91.899 1.523.899.282 0 .569-.069.834-.215.406-.223.701-.591.83-1.036.13-.446.077-.915-.146-1.32-.122-.222-.416-.595-1.568-1.273zm.754 2.314c-.055.189-.18.345-.353.44-.355.195-.804.066-.999-.29-.015-.028-.15-.311-.111-1.491.002-.063.039-.097.069-.114.039-.022.089-.025.133.002 1.02.601 1.184.865 1.199.893.095.172.117.371.062.56zm2.091-4.641c-.132-.083-.167-.211-.176-.28-.017-.127.023-.255.11-.35.253-.275.445-.503.518-.613.434-.661.585-1.451.425-2.224-.16-.774-.611-1.439-1.272-1.874-1.007-.662-2.493-.636-3.503.014-.982-.649-2.344-.649-3.326 0-1.01-.649-2.496-.675-3.503-.014-.661.435-1.112 1.099-1.272 1.874-.16.774-.009 1.564.426 2.226.056.083.182.248.631.707.092.093.136.221.12.35-.008.071-.043.204-.183.292-3.984 2.489-6.557 7.019-6.557 11.54 0 2.042.508 3.541 1.553 4.582 1.965 1.961 5.484 1.96 9.558 1.941 0 0 2.352.002 2.633.002 3.709 0 6.878-.121 8.704-1.943 1.045-1.042 1.553-2.541 1.553-4.582 0-4.672-2.467-9.135-6.438-11.648zm4.18 15.523c-1.672 1.668-4.987 1.667-8.85 1.649h-1.783c-3.869.018-7.178.019-8.85-1.649-.847-.845-1.259-2.112-1.259-3.875 0-4.184 2.389-8.381 6.086-10.693.36-.226.596-.598.646-1.022.051-.431-.094-.856-.398-1.167-.424-.433-.504-.548-.511-.559-.594-.902-.342-2.119.561-2.713.746-.49 1.971-.407 2.622.177.188.17.477.17.664.003.738-.648 1.924-.648 2.662 0 .189.166.475.166.664-.003.652-.583 1.877-.666 2.622-.177.902.593 1.154 1.81.562 2.711-.058.086-.217.267-.419.488-.288.313-.421.735-.365 1.157.055.411.284.773.632.994 3.685 2.332 5.974 6.471 5.974 10.803 0 1.762-.412 3.03-1.259 3.875zm-11.338-13.214c-.354-.194-.771-.188-1.121.018-1.152.679-1.446 1.052-1.568 1.272-.223.406-.275.875-.146 1.321.129.445.424.813.83 1.036.265.145.551.215.834.215.613 0 1.208-.325 1.523-.899.123-.222.28-.672.236-2.007-.015-.404-.234-.762-.589-.956zm-.522 2.481c-.196.357-.644.485-.999.29-.173-.095-.298-.251-.353-.44s-.032-.388.062-.56c.016-.028.18-.292 1.199-.892.044-.027.094-.024.133-.002.03.017.067.05.069.113.039 1.181-.097 1.463-.111 1.491z"/></svg>