<?xml version="1.0" encoding="UTF-8"?>
<svg xmlns="http://www.w3.org/2000/svg" id="Layer_1" data-name="Layer 1" viewBox="0 0 24 24">
  <path d="m17.242,7.062c-.242-.134-.545-.047-.68.195l-1.459,2.647c-.062.08-.143.094-.187.095-.041.005-.126-.009-.165-.051l-2.325-3.186c-.524-.492-1.208-.763-1.927-.763-1.379,0-2.5,1.122-2.5,2.5v5.146c0,1.335.741,2.534,1.935,3.13l1.065.533v6.191c0,.276.224.5.5.5s.5-.224.5-.5v-6.411c.172-.489.885-2.817.987-7.871l.983,1.352c.237.274.578.43.94.43.012,0,.023,0,.036,0,.375-.011.722-.188.991-.548l1.5-2.709c.134-.242.046-.546-.195-.68Zm-6.046,9.226l-.814-.407c-.853-.426-1.382-1.282-1.382-2.236v-5.146c0-.827.673-1.5,1.5-1.5.463,0,.904.175,1.181.422l.341.469c0,4.683-.552,7.374-.826,8.398Zm.304-11.289c1.379,0,2.5-1.122,2.5-2.5s-1.121-2.5-2.5-2.5-2.5,1.122-2.5,2.5,1.121,2.5,2.5,2.5Zm0-4c.827,0,1.5.673,1.5,1.5s-.673,1.5-1.5,1.5-1.5-.673-1.5-1.5.673-1.5,1.5-1.5Z"/>
</svg>
