<?xml version="1.0" encoding="UTF-8"?>
<svg xmlns="http://www.w3.org/2000/svg" id="Layer_1" data-name="Layer 1" viewBox="0 0 24 24">
  <path d="M12,0C5.383,0,0,5.383,0,12s5.383,12,12,12,12-5.383,12-12S18.617,0,12,0Zm0,23c-6.065,0-11-4.935-11-11S5.935,1,12,1s11,4.935,11,11-4.935,11-11,11Zm4.807-15.654c-.244-.553-.689-.977-1.254-1.194-.565-.218-1.182-.202-1.734,.042-1.584,.685-6.914,3.634-7.125,3.75-.775,.395-1.255,1.179-1.252,2.048,.003,.869,.488,1.65,1.255,2.033,0,0,7.02,3.729,7.08,3.762,.009,.004,.019,.009,.028,.014,.297,.135,.61,.201,.922,.201,.58,0,1.155-.229,1.601-.664,.637-.633,.848-1.58,.51-2.393-.079-.155-1.147-2.243-1.506-2.945,.439-.854,1.296-2.512,1.449-2.774,.283-.591,.293-1.276,.027-1.88Zm-.908,1.41c-.19,.322-1.433,2.741-1.574,3.016-.073,.143-.074,.313,0,.456,0,0,1.527,2.984,1.605,3.136,.163,.394,.034,.926-.304,1.263-.382,.372-.927,.479-1.395,.27-.146-.078-1.066-.566-7.077-3.759-.445-.222-.711-.651-.713-1.147-.002-.497,.262-.927,.721-1.161,.055-.03,5.513-3.051,7.056-3.717,.312-.138,.66-.146,.975-.026,.314,.121,.562,.357,.698,.665,.148,.336,.144,.717,.007,1.006Z"/>
</svg>
