<svg id="Layer_1" viewBox="0 0 24 24" xmlns="http://www.w3.org/2000/svg" data-name="Layer 1"><path d="m12 12c3.309 0 6-2.691 6-6s-2.691-6-6-6c-3.321-.019-6.018 2.765-6 6 0 3.309 2.691 6 6 6zm0-11c.534 0 1.04.106 1.523.262-.683 2.21-2.702 3.738-5.023 3.738h-1.399c.465-2.279 2.484-4 4.899-4zm-3.5 5c2.723 0 5.095-1.769 5.939-4.338 1.521.859 2.561 2.471 2.561 4.338 0 2.757-2.243 5-5 5s-5-2.243-5-5zm12.5 14.875v2.625c0 .276-.224.5-.5.5s-.5-.224-.5-.5v-2.625c0-2.114-.87-4.35-2.164-5.562-.462-.456-1.273-.382-1.689.101l-3.767 4.411c-.189.231-.573.231-.761 0l-3.764-4.423c-.406-.482-1.223-.534-1.683-.097-1.299 1.213-2.172 3.452-2.172 5.57v2.625c0 .276-.224.5-.5.5s-.5-.224-.5-.5v-2.625c0-2.379 1-4.911 2.49-6.301.851-.84 2.351-.728 3.12.171l3.391 3.984 3.393-3.973c.774-.908 2.285-1.013 3.127-.173 1.483 1.39 2.479 3.918 2.479 6.291z"/></svg>