<svg id="Layer_1" viewBox="0 0 24 24" xmlns="http://www.w3.org/2000/svg" data-name="Layer 1"><path d="m9.5 16c-1.378 0-2.5 1.121-2.5 2.5v3c0 1.379 1.122 2.5 2.5 2.5s2.5-1.121 2.5-2.5v-3c0-1.379-1.122-2.5-2.5-2.5zm1.5 5.5c0 .827-.673 1.5-1.5 1.5s-1.5-.673-1.5-1.5v-3c0-.827.673-1.5 1.5-1.5s1.5.673 1.5 1.5zm3-3v3c0 .827.673 1.5 1.5 1.5.685 0 1.282-.463 1.453-1.125.069-.268.345-.429.609-.359.268.069.429.342.36.609-.285 1.104-1.28 1.875-2.421 1.875-1.378 0-2.5-1.121-2.5-2.5v-3c0-1.379 1.122-2.5 2.5-2.5 1.141 0 2.137.771 2.421 1.875.069.268-.092.54-.36.609-.263.069-.54-.092-.609-.359-.17-.662-.768-1.125-1.453-1.125-.827 0-1.5.673-1.5 1.5zm10-2c0 .276-.224.5-.5.5h-1.5v6.5c0 .276-.224.5-.5.5s-.5-.224-.5-.5v-6.5h-1.5c-.276 0-.5-.224-.5-.5s.224-.5.5-.5h4c.276 0 .5.224.5.5zm-4.5-14.5h-1.5v-1.5c0-.276-.224-.5-.5-.5s-.5.224-.5.5v1.5h-10v-1.5c0-.276-.224-.5-.5-.5s-.5.224-.5.5v1.5h-1.5c-2.481 0-4.5 2.019-4.5 4.5v13c0 2.481 2.019 4.5 4.5 4.5.276 0 .5-.224.5-.5s-.224-.5-.5-.5c-1.93 0-3.5-1.57-3.5-3.5v-10.5h22v4.5c0 .276.224.5.5.5s.5-.224.5-.5v-7c0-2.481-2.019-4.5-4.5-4.5zm-18.5 6v-1.5c0-1.93 1.57-3.5 3.5-3.5h15c1.93 0 3.5 1.57 3.5 3.5v1.5z"/></svg>