<svg id="Layer_1" viewBox="0 0 24 24" xmlns="http://www.w3.org/2000/svg" data-name="Layer 1"><path d="m24 4.5v17.85c.019.888-.766 1.666-1.649 1.648-.319 0-.637-.093-.913-.276l-5.101-3.722h-11.837c-2.481 0-4.5-2.019-4.5-4.5v-1c0-.276.224-.5.5-.5s.5.224.5.5v1c0 1.93 1.57 3.5 3.5 3.5h12c.106 0 .209.033.295.096l5.215 3.806c.185.123.434.135.647.02.214-.114.342-.328.342-.571v-17.851c0-1.93-1.57-3.5-3.5-3.5h-9.999c-.276 0-.5-.224-.5-.5s.224-.5.5-.5h10c2.481 0 4.5 2.019 4.5 4.5zm-24 5v-2c0-1.391.822-2.585 2-3.149v-1.351c0-1.654 1.346-3 3-3s3 1.346 3 3v1.351c1.178.564 2 1.758 2 3.149v2c0 1.93-1.57 3.5-3.5 3.5h-3c-1.93 0-3.5-1.57-3.5-3.5zm3-5.449c.165-.024.329-.051.5-.051h3c.171 0 .335.027.5.051v-1.051c0-1.103-.897-2-2-2s-2 .897-2 2zm-2 5.449c0 1.379 1.122 2.5 2.5 2.5h3c1.378 0 2.5-1.121 2.5-2.5v-2c0-1.379-1.122-2.5-2.5-2.5h-3c-1.378 0-2.5 1.121-2.5 2.5zm4 0c.552 0 1-.448 1-1s-.448-1-1-1-1 .448-1 1 .448 1 1 1z"/></svg>