<svg id="Layer_1" viewBox="0 0 24 24" xmlns="http://www.w3.org/2000/svg" data-name="Layer 1"><path d="m19.5 5c-.276 0-.5.224-.5.5s.224.5.5.5c1.93 0 3.5 1.57 3.5 3.5v3.5h-4v-2.5c0-.276-.224-.5-.5-.5s-.5.224-.5.5v2.5h-12v-2.5c0-.276-.224-.5-.5-.5s-.5.224-.5.5v2.5h-4v-3.5c0-1.93 1.57-3.5 3.5-3.5.276 0 .5-.224.5-.5s-.224-.5-.5-.5c-2.481 0-4.5 2.019-4.5 4.5v10c0 2.481 2.019 4.5 4.5 4.5h15c2.481 0 4.5-2.019 4.5-4.5v-10c0-2.481-2.019-4.5-4.5-4.5zm0 18h-.5v-6.5c0-.276-.224-.5-.5-.5s-.5.224-.5.5v6.5h-12v-6.5c0-.276-.224-.5-.5-.5s-.5.224-.5.5v6.5h-.5c-1.93 0-3.5-1.57-3.5-3.5v-5.5h22v5.5c0 1.93-1.57 3.5-3.5 3.5zm-10.5-15h6c1.103 0 2-.897 2-2l-.002-5.201c.028-.318-.146-.606-.443-.734-.329-.142-.718-.044-.972.242-.007.007-.013.015-.019.023-.134.171-.848 1.103-1.302 1.695l-1.364-1.642c-.238-.238-.549-.377-.923-.394-.325.016-.636.156-.906.428l-1.333 1.607c-.455-.594-1.173-1.531-1.32-1.718-.253-.287-.643-.384-.972-.242-.298.128-.472.417-.445.69v5.246c0 1.103.897 2 2 2zm.325-4.87c.184.255.581.252.782.016l1.701-2.055c.122-.135.257-.112.353-.035l1.733 2.09c.189.237.601.239.782-.016 0 0 .825-1.078 1.325-1.729v4.599c0 .551-.449 1-1 1h-6c-.551 0-1-.449-1-1l-.002-4.601c.5.65 1.327 1.731 1.327 1.731z"/></svg>