<svg id="Layer_1" viewBox="0 0 24 24" xmlns="http://www.w3.org/2000/svg" data-name="Layer 1"><path d="m12 12c3.309 0 6-2.691 6-6s-2.691-6-6-6c-3.321-.019-6.018 2.765-6 6 0 3.309 2.691 6 6 6zm5-6c0 2.757-2.243 5-5 5s-5-2.243-5-5h1.5c2.724 0 5.095-1.769 5.939-4.338 1.521.859 2.561 2.471 2.561 4.338zm-5-5c.534 0 1.04.106 1.523.262-.683 2.21-2.702 3.738-5.023 3.738h-1.399c.465-2.279 2.484-4 4.899-4zm0 13c-4.963 0-9 4.037-9 9v.5c0 .276.224.5.5.5s.5-.224.5-.5v-.5c0-2.953 1.613-5.532 4-6.918v2.989c-.86.224-1.5 1-1.5 1.929 0 1.103.897 2 2 2s2-.897 2-2c0-.929-.64-1.705-1.5-1.929v-3.482c.927-.377 1.939-.589 3-.589s2.073.212 3 .589v3.462c-1.14.232-2 1.242-2 2.449v2c0 .276.224.5.5.5s.5-.224.5-.5v-2c0-.827.673-1.5 1.5-1.5s1.5.673 1.5 1.5v2c0 .276.224.5.5.5s.5-.224.5-.5v-2c0-1.208-.86-2.217-2-2.449v-2.968c2.387 1.386 4 3.964 4 6.918v.5c0 .276.224.5.5.5s.5-.224.5-.5v-.5c0-4.963-4.037-9-9-9zm-2.5 7c0 .552-.448 1-1 1s-1-.448-1-1 .448-1 1-1 1 .448 1 1z"/></svg>