<?xml version="1.0" encoding="UTF-8"?>
<svg xmlns="http://www.w3.org/2000/svg" id="Layer_1" data-name="Layer 1" viewBox="0 0 24 24">
  <path d="m.515,7.649C.069,7.05-.098,6.299.049,5.579c.142-.695.568-1.298,1.173-1.652,3.256-1.915,6.982-2.927,10.778-2.927s7.518,1.011,10.772,2.924c.604.354,1.032.958,1.173,1.655.146.722-.022,1.473-.463,2.062l-1.156,1.484c-.099.126-.246.192-.395.192-.107,0-.216-.034-.308-.105-.218-.17-.257-.484-.087-.702l1.15-1.476c.264-.354.367-.815.278-1.258-.086-.425-.335-.777-.699-.992-2.958-1.738-6.325-2.684-9.767-2.769v3.483c0,.276-.224.5-.5.5s-.5-.224-.5-.5v-3.483c-3.444.085-6.813,1.032-9.771,2.771-.365.215-.613.566-.699.99-.09.442.012.903.28,1.265l1.151,1.467c.17.217.133.531-.085.702-.217.169-.531.134-.702-.085l-1.159-1.478Zm19.299,3.461c.215.173.249.487.076.703l-5.72,7.125c.512.538.831,1.262.831,2.061,0,1.654-1.346,3-3,3s-3-1.346-3-3,1.346-3,3-3c.494,0,.953.131,1.365.344l5.746-7.157c.174-.213.487-.249.703-.076Zm-5.813,9.89c0-1.103-.897-2-2-2s-2,.897-2,2,.897,2,2,2,2-.897,2-2ZM1.5,16h2c.276,0,.5-.224.5-.5s-.224-.5-.5-.5H1.5c-.827,0-1.5.673-1.5,1.5v5c0,.827.673,1.5,1.5,1.5h2c.276,0,.5-.224.5-.5s-.224-.5-.5-.5H1.5c-.275,0-.5-.225-.5-.5v-2h2.5c.276,0,.5-.224.5-.5s-.224-.5-.5-.5H1v-2c0-.275.225-.5.5-.5Zm22,2.5h-2.5v-2c0-.275.225-.5.5-.5h2c.276,0,.5-.224.5-.5s-.224-.5-.5-.5h-2c-.827,0-1.5.673-1.5,1.5v6c0,.276.224.5.5.5s.5-.224.5-.5v-3h2.5c.276,0,.5-.224.5-.5s-.224-.5-.5-.5Z"/>
</svg>
