<svg id="Layer_1" viewBox="0 0 24 24" xmlns="http://www.w3.org/2000/svg" data-name="Layer 1"><path d="m23.854 23.146-6.449-6.449c1.607-1.775 2.596-4.12 2.596-6.697-.001-5.514-4.487-10-10.001-10s-10 4.486-10 10 4.486 10 10 10c2.577 0 4.922-.989 6.697-2.596l6.449 6.449c.195.195.512.195.707 0s.195-.512 0-.707zm-22.854-13.146c0-4.963 4.038-9 9-9s9 4.037 9 9-4.037 9-9 9-9-4.037-9-9zm12.857-3.15c.196.094.412.15.643.15.827 0 1.5-.673 1.5-1.5s-.673-1.5-1.5-1.5-1.5.673-1.5 1.5c0 .231.057.447.15.643l-.711.711c-.552-.429-1.213-.711-1.94-.803v-1.551c0-.276-.224-.5-.5-.5s-.5.224-.5.5v1.551c-.727.092-1.388.374-1.94.803l-.711-.711c.094-.196.15-.412.15-.643 0-.827-.673-1.5-1.5-1.5s-1.5.673-1.5 1.5.673 1.5 1.5 1.5c.231 0 .447-.057.643-.15l.71.71c-.429.552-.711 1.213-.803 1.94h-1.551c-.276 0-.5.224-.5.5s.224.5.5.5h1.551c.092.727.374 1.388.803 1.94l-.71.71c-.196-.094-.412-.15-.643-.15-.827 0-1.5.673-1.5 1.5s.673 1.5 1.5 1.5 1.5-.673 1.5-1.5c0-.231-.057-.447-.15-.643l.711-.711c.552.429 1.213.711 1.94.803v1.551c0 .276.224.5.5.5s.5-.224.5-.5v-1.551c.727-.092 1.388-.374 1.94-.803l.711.711c-.094.196-.15.412-.15.643 0 .827.673 1.5 1.5 1.5s1.5-.673 1.5-1.5-.673-1.5-1.5-1.5c-.231 0-.447.057-.643.15l-.71-.71c.429-.552.711-1.213.803-1.94h1.551c.276 0 .5-.224.5-.5s-.224-.5-.5-.5h-1.551c-.092-.727-.374-1.388-.803-1.94zm.643-1.85c.275 0 .5.225.5.5s-.225.5-.5.5-.5-.225-.5-.5.225-.5.5-.5zm-2.379 7.119s0 0 0 0c-.543.543-1.293.879-2.119.879-1.654 0-3-1.346-3-3s1.346-3 3-3 3 1.346 3 3c0 .827-.336 1.576-.879 2.119zm-7.121-6.619c0-.275.224-.5.5-.5s.5.225.5.5-.224.5-.5.5-.5-.225-.5-.5zm.5 9.5c-.276 0-.5-.225-.5-.5s.224-.5.5-.5.5.225.5.5-.224.5-.5.5zm9.5-.5c0 .275-.225.5-.5.5s-.5-.225-.5-.5.225-.5.5-.5.5.225.5.5z"/></svg>