<svg id="Layer_1" viewBox="0 0 24 24" xmlns="http://www.w3.org/2000/svg" data-name="Layer 1"><path d="m11.976 18.545c-.28 3.11-2.849 5.455-5.976 5.455-2.039 0-3.895-1.022-5-2.698v2.198c0 .276-.224.5-.5.5s-.5-.224-.5-.5v-2.5c0-.552.449-1 1-1h2.5c.276 0 .5.224.5.5s-.224.5-.5.5h-1.491c.935 1.247 2.396 2 3.991 2 2.605 0 4.746-1.954 4.979-4.545.025-.275.27-.467.543-.453.275.024.478.268.453.543zm-.476-6.545c-.276 0-.5.224-.5.5v2.198c-1.105-1.675-2.961-2.698-5-2.698-3.126 0-5.695 2.345-5.976 5.455-.025.275.178.519.453.543.015 0 .03.002.045.002.256 0 .474-.195.498-.455.233-2.591 2.374-4.545 4.979-4.545 1.596 0 3.056.753 3.991 2h-1.491c-.276 0-.5.224-.5.5s.224.5.5.5h2.5c.551 0 1-.448 1-1v-2.5c0-.276-.224-.5-.5-.5zm9.5 0c0-.552-.448-1-1-1s-1 .448-1 1 .448 1 1 1 1-.448 1-1zm.5-8h-17c-1.144 0-2.213-.571-2.864-1.5.633-.904 1.679-1.5 2.864-1.5h19c.276 0 .5-.224.5-.5s-.224-.5-.5-.5h-19c-2.498-.004-4.482 2.074-4.5 4.5v7c0 .276.224.5.5.5s.5-.224.5-.5v-7c0-.349.067-.679.162-.997.845.936 2.053 1.497 3.338 1.497h17c.827 0 1.5.673 1.5 1.5v11c0 .827-.673 1.5-1.5 1.5h-7c-.276 0-.5.224-.5.5s.224.5.5.5h7c1.378 0 2.5-1.121 2.5-2.5v-11c0-1.379-1.122-2.5-2.5-2.5z"/></svg>