<?xml version="1.0" encoding="UTF-8"?>
<svg xmlns="http://www.w3.org/2000/svg" id="Layer_1" data-name="Layer 1" viewBox="0 0 24 24">
  <path d="m12,12c-1.654,0-3,1.346-3,3s1.346,3,3,3,3-1.346,3-3-1.346-3-3-3Zm0,5c-1.103,0-2-.897-2-2s.897-2,2-2,2,.897,2,2-.897,2-2,2Zm9.854-3.146l-5.854,5.854v3.793c0,.276-.224.5-.5.5s-.5-.224-.5-.5v-3.5h-6v3.5c0,.276-.224.5-.5.5s-.5-.224-.5-.5v-3.793l-5.854-5.854c-.195-.195-.195-.512,0-.707s.512-.195.707,0l5.854,5.854h6.586l5.854-5.854c.195-.195.512-.195.707,0s.195.512,0,.707Zm-13.156-7.073l-.683,2.19c-.169.54.021,1.129.473,1.467.232.174.509.266.8.266.264,0,.521-.078.742-.225l1.982-1.327,2.019,1.315c.473.307,1.092.283,1.542-.062.448-.345.629-.938.452-1.474l-.708-2.157,1.711-1.394c.427-.359.585-.953.395-1.478-.191-.523-.695-.875-1.253-.875h-2.148l-.769-2.157c-.193-.52-.695-.869-1.25-.869s-1.057.349-1.252.875l-.767,2.151h-2.148c-.557,0-1.06.351-1.251.873-.192.523-.036,1.116.397,1.483l1.718,1.398Zm-1.177-2.536c.048-.13.174-.218.313-.218h2.5c.211,0,.4-.133.471-.332l.883-2.478c.096-.259.531-.253.622-.006l.885,2.483c.071.199.26.332.471.332h2.5c.14,0,.266.088.313.218.048.131.008.28-.093.365l-1.971,1.606c-.16.131-.224.347-.159.543l.816,2.485c.044.134,0,.283-.112.368-.113.088-.268.092-.387.016l-2.295-1.495c-.168-.11-.384-.107-.551.003l-2.255,1.51c-.118.079-.275.073-.387-.01-.112-.084-.16-.232-.117-.368l.784-2.514c.061-.195-.003-.408-.162-.537l-1.973-1.605c-.106-.09-.145-.238-.097-.369Z"/>
</svg>
