<?xml version="1.0" encoding="UTF-8"?>
<svg xmlns="http://www.w3.org/2000/svg" id="Layer_1" data-name="Layer 1" viewBox="0 0 24 24">
  <path d="M18.302,12.303c.272-.154,.326-.559,.102-.777L9.055,1.89c-1.099-1.14-2.878-1.199-4.098-.089-.619,.564-.964,1.37-.948,2.186l-.014,.5c-.007,.276,.21,.506,.486,.514,.273-.009,.506-.21,.514-.486l.014-.523c-.011-.552,.216-1.081,.668-1.493,.769-.7,1.936-.663,2.659,.088l3.22,3.319c-.914,1.72-.69,3.797,.53,5.298L.142,23.146c-.195,.195-.195,.512,0,.707,.098,.098,.226,.146,.354,.146s.256-.049,.354-.146L12.8,11.902c.871,.705,1.93,1.09,3.013,1.09,.854,0,1.713-.226,2.489-.689Zm-6.004-5.634l2.128,2.193-1.635,1.635c-.844-1.097-1.035-2.558-.493-3.828Zm1.2,4.536l1.625-1.625,2.086,2.15c-1.242,.486-2.651,.287-3.71-.525Z"/>
  <path d="M23.496,19.999c-.276,0-.5,.224-.5,.5v.474c0,1.113-.905,2.021-2.019,2.022-2.248-.006-2.498-2.964-1.055-4.215l2.442-2.443c2.164-2.163,2.182-5.7,.044-7.881l-.017-.018,1.457-1.457c.195-.195,.195-.512,0-.707s-.512-.195-.707,0l-1.444,1.444-2.312-2.402,1.463-1.463c.195-.195,.195-.512,0-.707s-.512-.195-.707,0l-1.449,1.45-2.302-2.392,1.333-1.353c.193-.197,.191-.514-.006-.708-.196-.193-.513-.191-.707,.005l-1.675,1.7c-.19,.193-.192,.502-.004,.698l6.358,6.606c1.76,1.794,1.744,4.7-.033,6.477l-2.442,2.443c-1.319,1.285-1.758,3.674-.346,5.051,.562,.562,1.31,.871,2.105,.871h.004c1.663-.004,3.017-1.359,3.017-3.022v-.474c0-.276-.224-.5-.5-.5Z"/>
  <path d="M19.555,10.631c.442,.475,1.178-.232,.721-.692L14.22,3.636c-.443-.475-1.177,.232-.721,.692l6.056,6.303Z"/>
</svg>
