<svg id="Layer_1" viewBox="0 0 24 24" xmlns="http://www.w3.org/2000/svg" data-name="Layer 1"><path d="m10 12c0 1.103.897 2 2 2s2-.897 2-2-.897-2-2-2-2 .897-2 2zm3 0c0 .551-.448 1-1 1s-1-.449-1-1 .448-1 1-1 1 .449 1 1zm-4.889 1.061-3.536 3.535c-.195.195-.512.195-.707 0s-.195-.512 0-.707l3.39-3.389h-6.758c-.276 0-.5-.224-.5-.5s.224-.5.5-.5h6.742l-3.375-3.39c-.194-.195-.194-.512.002-.707.195-.194.512-.194.707.002l3.536 3.552c.579.58.579 1.524 0 2.104zm-.706-8.484c-.196-.195-.196-.512-.002-.707.195-.196.512-.196.707-.002l3.39 3.374v-6.742c0-.276.224-.5.5-.5s.5.224.5.5v6.757l3.39-3.389c.195-.195.512-.195.707 0s.195.512 0 .707l-3.536 3.536c-.554.577-1.551.578-2.104 0l-3.551-3.535zm9.19 14.849c.195.195.195.512 0 .707s-.512.195-.707 0l-3.389-3.39v6.758c0 .276-.224.5-.5.5s-.5-.224-.5-.5v-6.742l-3.39 3.375c-.196.194-.512.194-.707-.002-.194-.195-.194-.512.002-.707l3.552-3.536c.578-.578 1.523-.579 2.104 0l3.535 3.536zm7.404-7.425c0 .276-.224.5-.5.5h-6.742l3.375 3.39c.194.195.194.512-.002.707-.196.194-.512.194-.707-.002l-3.536-3.551c-.579-.58-.579-1.524 0-2.104l3.536-3.536c.195-.195.512-.195.707 0s.195.512 0 .707l-3.39 3.389h6.758c.276 0 .5.224.5.5z"/></svg>