<?xml version="1.0" encoding="UTF-8"?>
<svg xmlns="http://www.w3.org/2000/svg" id="Layer_1" data-name="Layer 1" viewBox="0 0 24 24">
  <path d="M.338,4.321c-.451-.451-.451-1.191,.004-1.646L2.81,.15c.193-.197,.509-.2,.707-.008,.197,.193,.201,.51,.008,.707L1.422,3H3.5c1.93,0,3.5,1.57,3.5,3.5v2c0,.276-.224,.5-.5,.5s-.5-.224-.5-.5v-2c0-1.379-1.121-2.5-2.5-2.5H1.422l2.102,2.15c.193,.197,.189,.514-.008,.707-.198,.192-.514,.19-.707-.008L.338,4.321Zm9.162,4.679c.276,0,.5-.224,.5-.5v-2c0-1.379,1.121-2.5,2.5-2.5h2.078l-2.102,2.15c-.193,.197-.189,.514,.008,.707,.198,.192,.514,.19,.707-.008l2.468-2.524c.228-.228,.341-.527,.342-.825,0,0,0,0,0,0,0-.004-.002-.006-.002-.01-.002-.295-.113-.589-.336-.811L13.19,.15c-.191-.197-.508-.2-.707-.008-.197,.193-.201,.51-.008,.707l2.102,2.15h-2.078c-1.93,0-3.5,1.57-3.5,3.5v2c0,.276,.224,.5,.5,.5Zm13.863,4.181l-6.806,7.64c-1.802,2.021-4.387,3.18-7.093,3.18H3.5c-1.93,0-3.5-1.57-3.5-3.5v-5c0-1.93,1.57-3.5,3.5-3.5H13.357c1.208,0,2.229,.814,2.543,1.923l3.732-4.103c.89-1.017,2.562-1.094,3.548-.166,1.012,.923,1.094,2.505,.183,3.526Zm-.856-2.787c-.589-.558-1.6-.512-2.134,.101l-4.496,4.939c-.3,.945-1.123,1.679-2.146,1.824l-6.172,.738c-.273,.04-.523-.162-.556-.437-.033-.274,.162-.523,.437-.556l6.161-.737c.793-.113,1.398-.812,1.398-1.624,0-.905-.737-1.643-1.643-1.643H3.5c-1.379,0-2.5,1.121-2.5,2.5v5c0,1.379,1.121,2.5,2.5,2.5h5.965c2.421,0,4.734-1.037,6.347-2.846l6.806-7.64c.548-.614,.499-1.565-.11-2.121Z"/>
</svg>
