<svg id="Layer_1" viewBox="0 0 24 24" xmlns="http://www.w3.org/2000/svg" data-name="Layer 1"><path d="m23.5 8h-3.5v-4h3.5c.276 0 .5-.224.5-.5s-.224-.5-.5-.5h-3.5v-2.5c0-.276-.224-.5-.5-.5s-.5.224-.5.5v.5h-3c-2.586 0-4.694 1.98-4.949 4.5h-6.551c-2.481 0-4.5 2.019-4.5 4.5v9.5c0 2.481 2.019 4.5 4.5 4.5h1c.276 0 .5-.224.5-.5s-.224-.5-.5-.5h-1c-1.93 0-3.5-1.57-3.5-3.5v-9.5c0-1.93 1.57-3.5 3.5-3.5h6.551c.255 2.52 2.364 4.5 4.949 4.5h3v.5c0 .276.224.5.5.5s.5-.224.5-.5v-2.5h3.5c.276 0 .5-.224.5-.5s-.224-.5-.5-.5zm-7.5 2c-2.206 0-4-1.794-4-4s1.794-4 4-4h3v8zm5.5 4c-1.379 0-2.5 1.121-2.5 2.5v5c0 1.379 1.121 2.5 2.5 2.5s2.5-1.121 2.5-2.5v-5c0-1.379-1.121-2.5-2.5-2.5zm1.5 7.5c0 .827-.673 1.5-1.5 1.5s-1.5-.673-1.5-1.5v-5c0-.827.673-1.5 1.5-1.5s1.5.673 1.5 1.5zm-14-6v3h1.5c.276 0 .5.224.5.5s-.224.5-.5.5h-1.5v3c0 .275.225.5.5.5h2c.276 0 .5.224.5.5s-.224.5-.5.5h-2c-.827 0-1.5-.673-1.5-1.5v-7c0-.827.673-1.5 1.5-1.5h2c.276 0 .5.224.5.5s-.224.5-.5.5h-2c-.275 0-.5.225-.5.5zm5 1v5c0 .827.673 1.5 1.5 1.5s1.5-.673 1.5-1.5c0-.276.224-.5.5-.5s.5.224.5.5c0 1.379-1.121 2.5-2.5 2.5s-2.5-1.121-2.5-2.5v-5c0-1.379 1.121-2.5 2.5-2.5s2.5 1.121 2.5 2.5c0 .276-.224.5-.5.5s-.5-.224-.5-.5c0-.827-.673-1.5-1.5-1.5s-1.5.673-1.5 1.5z"/></svg>