<svg id="Layer_1" viewBox="0 0 24 24" xmlns="http://www.w3.org/2000/svg" data-name="Layer 1"><path d="m2.501 3.984c.266.069.54-.092.609-.36.397-1.545 1.792-2.625 3.39-2.625h5.515c.335 0 .663.038.985.096v5.404c0 1.378 1.121 2.5 2.5 2.5h5.465c.018.164.035.329.035.5 0 .276.224.5.5.5s.5-.224.5-.5c0-1.093-.308-2.104-.891-2.925-.28-.396-.622-.795-1.014-1.186l-3.484-3.485c-1.229-1.228-2.861-1.904-4.597-1.904h-5.515c-2.055 0-3.847 1.388-4.358 3.375-.069.268.092.54.36.609zm11.499-2.604c.704.273 1.354.682 1.904 1.231l3.484 3.486c.353.352.657.708.906 1.058.182.257.32.544.433.846h-5.227c-.827 0-1.5-.673-1.5-1.5zm2.5 10.62c.276 0 .5.224.5.5s-.224.5-.5.5h-5c-.276 0-.5-.224-.5-.5s.224-.5.5-.5zm6.768.732c-.975-.975-2.561-.975-3.535 0l-6.707 6.707c-.661.661-1.025 1.54-1.025 2.475v1.586c0 .276.224.5.5.5h1.586c.936 0 1.814-.364 2.475-1.025l6.707-6.707c.97-.929.97-2.606 0-3.535zm-.707 2.829-6.707 6.707c-.472.472-1.1.732-1.768.732h-1.086v-1.086c0-.668.26-1.295.732-1.768l6.707-6.707c.584-.585 1.537-.585 2.121 0 .582.558.582 1.563 0 2.121zm-17.87 1.371c2.812-1.158 4.261-2.948 4.309-5.332v-3.134c0-.599-.382-1.127-.951-1.316l-3.392-1.125c-.102-.034-.213-.034-.314 0l-3.392 1.125c-.569.188-.951.717-.951 1.316v3.145c.046 2.096 1.484 3.88 4.274 5.304.13.067.283.072.417.017zm-3.691-5.332v-3.134c0-.167.107-.314.266-.367l3.234-1.072 3.234 1.072c.159.053.266.2.266.367v3.124c-.038 1.908-1.176 3.326-3.477 4.327-2.302-1.222-3.487-2.677-3.523-4.317zm12.5 4.4h-3c-.276 0-.5-.224-.5-.5s.224-.5.5-.5h3c.276 0 .5.224.5.5s-.224.5-.5.5zm-3.5 7.5c0 .276-.224.5-.5.5h-3c-2.481 0-4.5-2.019-4.5-4.5v-1c0-.276.224-.5.5-.5s.5.224.5.5v1c0 1.93 1.57 3.5 3.5 3.5h3c.276 0 .5.224.5.5z"/></svg>