<svg id="Layer_1" viewBox="0 0 24 24" xmlns="http://www.w3.org/2000/svg" data-name="Layer 1"><path d="m19.767 11.767c-.529-.443-1.03-.863-1.413-1.246-.201-.211-.549-.189-.731.026-.852.983-1.134 2.09-1.361 2.98-.274 1.076-.396 1.347-.799 1.347-.247 0-.46-.825-.462-1.501.014-.436-.57-.67-.859-.347-.977 1.008-2.141 2.688-2.141 4.973 0 3.309 2.691 6 6 6s6-2.691 6-6c0-2.688-2.348-4.653-4.233-6.233zm-3.182 10.647c-.779-.78-.779-2.05 0-2.829l1.415-1.415 1.414 1.415c.378.378.586.881.586 1.415s-.208 1.036-.586 1.414c-.763.772-2.066.773-2.829 0zm4.182-.255c.471-1.093.21-2.447-.646-3.281l-1.768-1.769c-.186-.194-.521-.194-.707 0l-1.769 1.769c-.886.886-1.097 2.193-.64 3.284-1.347-.897-2.238-2.426-2.238-4.162 0-1.415.532-2.567 1.148-3.429.197.725.605 1.304 1.313 1.304 1.232 0 1.505-1.067 1.769-2.1.176-.688.37-1.454.831-2.154.324.293.687.597 1.063.912 1.727 1.446 3.875 3.246 3.875 5.466 0 1.734-.889 3.262-2.233 4.159zm-11.767-3.727v5.068c0 .276-.224.5-.5.5s-.5-.224-.5-.5v-5.068c0-.249-.185-.459-.43-.489-3.745-.463-6.57-3.662-6.57-7.442v-3.5h-.5c-.276 0-.5-.224-.5-.5s.224-.5.5-.5h3.5v-5.501c0-.276.224-.5.5-.5s.5.224.5.5v5.5h7v-5.5c0-.276.224-.5.5-.5s.5.224.5.5v5.5h3.5c.276 0 .5.224.5.5s-.224.5-.5.5h-.5v2.5c0 .276-.224.5-.5.5s-.5-.224-.5-.5v-2.5h-13v3.5c0 3.276 2.447 6.049 5.693 6.45.745.092 1.307.729 1.307 1.481z"/></svg>