<svg id="Layer_1" viewBox="0 0 24 24" xmlns="http://www.w3.org/2000/svg" data-name="Layer 1"><path d="m24 16.5c0-.072.027.062 0 0zm0 0v6c0 1.036-1.758 1.5-3.5 1.5s-3.5-.464-3.5-1.5v-6c0-1 1.453-1.377 3-1.483v-.517c0-.827-.673-1.5-1.5-1.5h-6v2.017c1.547.106 3 .483 3 1.483v6c0 1.036-1.758 1.5-3.5 1.5s-3.5-.464-3.5-1.5v-6c0-1 1.453-1.377 3-1.483v-2.017h-6c-.827 0-1.5.673-1.5 1.5v.517c1.547.106 3 .483 3 1.483v6c0 1.036-1.758 1.5-3.5 1.5s-3.5-.464-3.5-1.5v-6c0-1 1.453-1.377 3-1.483v-.517c0-1.378 1.122-2.5 2.5-2.5h6v-2h-2.636c-1.454 0-2.677-1.036-2.843-2.409-.157-1.292.589-2.497 1.813-2.928.062-.022.167-.059.166-.482-.003-1.316.59-2.956 1.925-3.651 1.249-.65 2.58-.707 3.751-.16 1.117.521 1.943 1.553 2.211 2.761.024.112.108.216.217.272 1.254.647 1.994 1.973 1.885 3.375-.115 1.47-.9 3.221-3.989 3.221h-1.5v2h6c1.378 0 2.5 1.122 2.5 2.5v.517c1.442.075 3 .483 3 1.483zm-17.991 4.089c-.668.276-1.587.411-2.509.411s-1.833-.133-2.5-.406v1.906c.087.105.953.5 2.5.5s2.413-.395 2.513-.56zm-.007-2.997c-.667.274-1.583.408-2.502.408s-1.833-.133-2.5-.406v1.863c.145.173 1.003.543 2.5.543 1.53 0 2.39-.385 2.507-.554l-.004-1.854zm-2.502-1.592c-1.382 0-2.22.315-2.455.5.235.185 1.073.5 2.455.5s2.22-.315 2.455-.5c-.235-.185-1.073-.5-2.455-.5zm11.009 4.589c-.668.276-1.587.411-2.509.411s-1.833-.133-2.5-.406v1.906c.087.105.953.5 2.5.5s2.413-.395 2.513-.56zm-.007-2.997c-.667.274-1.583.408-2.502.408s-1.833-.133-2.5-.406v1.863c.145.173 1.003.543 2.5.543 1.53 0 2.39-.385 2.507-.554l-.004-1.854zm-2.502-1.592c-1.382 0-2.22.315-2.455.5.235.185 1.073.5 2.455.5s2.22-.315 2.455-.5c-.235-.185-1.073-.5-2.455-.5zm2-7c2.521 0 2.915-1.312 2.992-2.299.078-1.001-.45-1.947-1.346-2.409-.371-.191-.646-.544-.735-.943t0 0c-.201-.907-.82-1.681-1.657-2.071-.396-.185-.818-.276-1.251-.276-.534 0-1.083.14-1.616.417-.957.499-1.39 1.781-1.387 2.761.002.752-.279 1.233-.834 1.428-.778.274-1.252 1.041-1.152 1.865.104.857.917 1.529 1.85 1.529h5.136zm4.045 7.5c.235.185 1.073.5 2.455.5s2.22-.315 2.455-.5c-.235-.185-1.073-.5-2.455-.5s-2.22.315-2.455.5zm-.045 2.957c.145.173 1.003.543 2.5.543 1.53 0 2.39-.385 2.507-.554l-.004-1.854c-.667.274-1.583.408-2.502.408s-1.833-.133-2.5-.406v1.863zm5.013 2.983-.004-1.851c-.668.276-1.587.411-2.509.411s-1.833-.133-2.5-.406v1.906c.087.105.953.5 2.5.5s2.413-.395 2.513-.56z"/></svg>