<?xml version="1.0" encoding="UTF-8"?>
<svg xmlns="http://www.w3.org/2000/svg" id="Layer_1" data-name="Layer 1" viewBox="0 0 24 24">
  <path d="m24,14.5c0,4.136-3.364,7.5-7.5,7.5H7.5c-4.136,0-7.5-3.364-7.5-7.5s3.364-7.5,7.5-7.5h6.26L8.646,1.853c-.195-.196-.194-.513.002-.707.196-.196.512-.194.707.002l5.263,5.297c.58.584.579,1.532,0,2.115l-5.263,5.293c-.098.098-.226.147-.354.147-.127,0-.255-.048-.353-.146-.196-.195-.197-.511-.002-.707l5.118-5.147h-6.263c-3.584,0-6.5,2.916-6.5,6.5s2.916,6.5,6.5,6.5h9c3.584,0,6.5-2.916,6.5-6.5,0-3.214-2.395-5.98-5.571-6.434-.273-.039-.463-.292-.424-.566.04-.273.294-.462.566-.424,3.665.524,6.429,3.716,6.429,7.424Z"/>
</svg>
