<?xml version="1.0" encoding="UTF-8"?>
<svg xmlns="http://www.w3.org/2000/svg" id="Layer_1" data-name="Layer 1" viewBox="0 0 24 24">
  <path d="M5.5,5c1.379,0,2.5-1.121,2.5-2.5S6.879,0,5.5,0,3,1.121,3,2.5s1.121,2.5,2.5,2.5Zm0-4c.827,0,1.5,.673,1.5,1.5s-.673,1.5-1.5,1.5-1.5-.673-1.5-1.5,.673-1.5,1.5-1.5Zm5.474,16.151c.096,.75-.125,1.466-.6,2.003-.474,.537-1.157,.846-1.874,.846h-.5v3.5c0,.276-.224,.5-.5,.5s-.5-.224-.5-.5v-3.5h-3v3.5c0,.276-.224,.5-.5,.5s-.5-.224-.5-.5v-3.5h-.5c-.717,0-1.4-.309-1.874-.846-.475-.537-.695-1.253-.606-1.965L1.686,9.107c.372-1.801,1.977-3.107,3.814-3.107,.276,0,.5,.224,.5,.5s-.224,.5-.5,.5c-1.366,0-2.559,.972-2.836,2.31l-1.659,8.043c-.047,.388,.086,.817,.37,1.14,.285,.323,.695,.508,1.125,.508h6c.43,0,.84-.185,1.125-.508,.284-.322,.417-.752,.363-1.178l-.364-1.759c-.057-.271,.118-.535,.389-.591,.259-.06,.534,.116,.59,.389l.371,1.798Zm7.526-12.151c1.379,0,2.5-1.121,2.5-2.5s-1.121-2.5-2.5-2.5-2.5,1.121-2.5,2.5,1.121,2.5,2.5,2.5Zm0-4c.827,0,1.5,.673,1.5,1.5s-.673,1.5-1.5,1.5-1.5-.673-1.5-1.5,.673-1.5,1.5-1.5Zm4.874,18.154c-.474,.537-1.157,.846-1.874,.846h-.5v3.5c0,.276-.224,.5-.5,.5s-.5-.224-.5-.5v-3.5h-3v3.5c0,.276-.224,.5-.5,.5s-.5-.224-.5-.5v-3.5h-.5c-.717,0-1.4-.309-1.874-.846-.475-.537-.695-1.253-.606-1.965l.375-1.822c.056-.271,.326-.447,.591-.388,.27,.056,.444,.32,.388,.591l-.368,1.783c-.047,.387,.086,.816,.37,1.139,.285,.323,.695,.508,1.125,.508h6c.43,0,.84-.185,1.125-.508,.284-.322,.417-.752,.363-1.178l-1.653-8.006c-.276-1.338-1.469-2.309-2.835-2.309-.276,0-.5-.224-.5-.5s.224-.5,.5-.5c1.839,0,3.442,1.307,3.813,3.107l1.66,8.044c.096,.75-.125,1.466-.6,2.003Zm-7.374-10.729c0-1.337-1.01-2.425-2.25-2.425-.689,0-1.33,.317-1.75,.796-.42-.479-1.061-.796-1.75-.796-1.24,0-2.25,1.088-2.25,2.425,0,1.57,1.718,3.519,2.801,4.378,.353,.28,.776,.42,1.199,.42s.847-.14,1.199-.42c1.083-.859,2.801-2.808,2.801-4.378Zm-4.578,3.595c-.977-.775-2.422-2.454-2.422-3.595,0-.785,.561-1.425,1.25-1.425,.704,0,1.25,.567,1.25,1.056,0,.276,.224,.5,.5,.5s.5-.224,.5-.5c0-.488,.546-1.056,1.25-1.056,.689,0,1.25,.64,1.25,1.425,0,1.141-1.445,2.819-2.422,3.595-.34,.27-.816,.27-1.156,0Z"/>
</svg>
