<?xml version="1.0" encoding="UTF-8"?>
<svg xmlns="http://www.w3.org/2000/svg" id="Layer_1" data-name="Layer 1" viewBox="0 0 24 24">
  <path d="M23.931,23.247l-2.646-4.499c-.329-.559-.805-1.015-1.377-1.318l-1.851-.981,1.269-5.05,3.872,1.968c.073,.037,.15,.054,.226,.054,.182,0,.358-.1,.446-.273,.125-.246,.027-.547-.219-.672l-4.075-2.071,.349-1.39c.184-.724,.029-1.478-.426-2.07s-1.145-.936-1.891-.944c-.671-.007-1.324,.162-1.916,.497l-4.741,2.858c-.449,.271-1.017,.287-1.479,.04L3.787,6.366c-.022-.012-.047-.012-.07-.021-.37-.218-.797-.346-1.249-.346-.754,0-1.456,.338-1.927,.927S-.104,8.275,.063,9.018l1.472,6.068c.157,.657,.561,1.213,1.138,1.564,.4,.244,.848,.369,1.304,.369,.032,0,.064-.011,.096-.012l1.647,6.613c.057,.228,.261,.379,.485,.379,.04,0,.081-.005,.121-.015,.268-.067,.431-.338,.365-.606l-1.643-6.598c.453-.21,.833-.55,1.095-.989,.347-.581,.445-1.262,.277-1.918l-1.497-5.769,4.077,2.172c.772,.412,1.717,.386,2.466-.066l3.867-2.332-1.267,5.478c-.251,1.071,.242,2.199,1.212,2.75l4.161,2.206c.409,.216,.749,.542,.983,.941l2.646,4.499c.093,.159,.26,.247,.432,.247,.086,0,.173-.022,.253-.069,.238-.14,.317-.447,.178-.685ZM5.285,15.279c-.209,.35-.542,.597-.939,.694-.396,.097-.805,.035-1.152-.177-.348-.212-.591-.547-.687-.944l-1.47-6.062c-.099-.437,.005-.889,.285-1.239,.28-.35,.697-.551,1.146-.551,.669,0,1.253,.452,1.42,1.1,0,0,0,0,0,0l1.563,6.024c.102,.395,.042,.805-.167,1.155Zm9.755-1.695l1.469-6.349c.341-.138,.699-.227,1.087-.236,.438,.005,.842,.207,1.109,.554,.267,.347,.358,.79,.25,1.215l-1.809,7.197-1.387-.735c-.574-.326-.87-1.003-.719-1.647Zm3.46-8.584c1.378,0,2.5-1.122,2.5-2.5s-1.122-2.5-2.5-2.5-2.5,1.122-2.5,2.5,1.122,2.5,2.5,2.5Zm0-4c.827,0,1.5,.673,1.5,1.5s-.673,1.5-1.5,1.5-1.5-.673-1.5-1.5,.673-1.5,1.5-1.5ZM2.5,5c1.378,0,2.5-1.122,2.5-2.5S3.878,0,2.5,0,0,1.122,0,2.5s1.122,2.5,2.5,2.5ZM2.5,1c.827,0,1.5,.673,1.5,1.5s-.673,1.5-1.5,1.5-1.5-.673-1.5-1.5,.673-1.5,1.5-1.5ZM15.001,18.141l-1.618,5.5c-.064,.218-.263,.359-.479,.359-.046,0-.094-.006-.141-.021-.265-.078-.417-.355-.338-.621l1.618-5.5c.078-.264,.353-.419,.621-.338,.265,.078,.417,.355,.338,.621Z"/>
</svg>
