<svg id="Layer_1" viewBox="0 0 24 24" xmlns="http://www.w3.org/2000/svg" data-name="Layer 1"><path d="m21.729 8.454c-.232.149-.3.458-.15.691.839 1.307 1.3 2.805 1.385 4.355h-4.99c-.028-.691-.097-1.392-.238-2.098-.055-.271-.323-.449-.588-.392-.271.054-.446.317-.393.588.128.64.191 1.276.218 1.902h-5.951c.12-2.734 1.177-5.163 2.083-6.753.137-.24.053-.545-.188-.682s-.544-.053-.682.187c-.966 1.696-2.094 4.298-2.214 7.248h-4.999c.226-4.006 3.13-7.453 7.082-8.3.271-.058.442-.324.385-.594-.059-.271-.326-.441-.594-.384-4.575.98-7.896 5.092-7.896 9.778 0 5.514 4.486 10 10 10s10-4.486 10-10c0-1.92-.546-3.786-1.579-5.396-.15-.233-.46-.3-.691-.151zm-4.75 6.046c-.166 3.757-2.131 6.951-2.98 8.159-.848-1.208-2.813-4.402-2.98-8.159h5.959zm-11.954 0h4.994c.151 3.782 1.953 6.961 2.951 8.436-4.315-.494-7.702-4.051-7.945-8.436zm10.004 8.436c.997-1.476 2.799-4.654 2.951-8.436h4.994c-.243 4.385-3.63 7.942-7.945 8.436zm.289-17.647c.381.452.938.711 1.528.711h.59l-.614 1.579c-.125.321-.084.683.11.967.195.284.517.454.861.454h.319c.589 0 1.131-.321 1.368-.77l1.761-2.23h1.258c.827 0 1.5-.673 1.5-1.5s-.673-1.5-1.5-1.5h-1.26l-1.729-2.16c-.282-.518-.824-.84-1.415-.84h-.298c-.346 0-.668.17-.862.456s-.234.648-.107.97l.621 1.574h-.352l-.912-.625c-.568-.567-1.608-.432-2.012.263-.231.399-.233.876.048 1.351zm-.279-2.149c.024-.042.097-.14.242-.14.073 0 .146.03.266.139l1.11.771c.084.058.184.089.285.089h1.241c.165 0 .32-.082.413-.219.094-.137.112-.311.052-.465l-.851-2.316h.298c.224 0 .43.122.585.391l1.929 2.421c.095.119.238.188.391.188h1.5c.275 0 .5.224.5.5s-.225.5-.5.5h-1.5c-.153 0-.298.07-.393.19l-1.957 2.49c-.107.197-.313.319-.537.319h-.359l.879-2.319c.06-.154.04-.327-.053-.463-.094-.136-.248-.218-.413-.218h-1.32c-.295 0-.573-.13-.765-.355l-1.044-1.226c-.072-.126-.023-.237 0-.279zm-10.275 20.008c.194.196.192.513-.004.707-.195.195-.513.193-.707-.003-2.614-2.639-4.053-6.137-4.053-9.852 0-6.493 4.585-11.714 11.408-12.992.267-.047.532.127.583.4.051.271-.128.532-.399.583-6.335 1.187-10.592 6.012-10.592 12.009 0 3.449 1.337 6.698 3.764 9.148z"/></svg>