<svg id="Layer_1" viewBox="0 0 24 24" xmlns="http://www.w3.org/2000/svg" data-name="Layer 1"><path d="m16.5 11h-7v-7h1c1.355 0 2.658.497 3.667 1.4.205.186.523.168.706-.039.184-.205.167-.521-.039-.705-1.193-1.068-2.732-1.656-4.334-1.656h-1v-2.5c0-.276-.224-.5-.5-.5s-.5.224-.5.5v2.5h-1c-3.584 0-6.5 2.916-6.5 6.5v6.5c-.098 4.392 3.864 8.228 8.246 7.996 4.276-.128 7.754-3.856 7.754-8.311v-4.186c0-.276-.224-.5-.5-.5zm-14.5-1.5c0-3.032 2.467-5.5 5.5-5.5h1v7h-6.5zm14 6.186c0 3.919-3.043 7.198-6.785 7.311-3.844.187-7.298-3.146-7.215-6.996v-4h14v3.686zm7.029-8.521-2.174-1.69 2.24-1.779c.272-.239.405-.49.406-.766 0-.412-.306-.684-.445-.804l-2.668-1.922c-.242-.216-.596-.266-.903-.127-.299.135-.485.413-.485.727v3.431l-1.193-1.129c-.217-.17-.532-.129-.701.088-.17.218-.13.532.087.701l1.807 1.605-1.811 1.608c-.216.172-.252.486-.081.702.171.217.485.253.703.081l1.189-1.115v3.42c0 .313.186.592.485.727.282.129.652.1.875-.104l2.758-2.119c.092-.083.375-.334.374-.723 0-.363-.25-.626-.463-.812zm-3.029-6.012s2.454 1.775 2.453 1.775l-2.453 1.882zm0 8.684v-3.684s2.418 1.806 2.429 1.816l-2.429 1.867z"/></svg>