<svg id="Layer_1" viewBox="0 0 24 24" xmlns="http://www.w3.org/2000/svg" data-name="Layer 1"><path d="m13.5 3h-1v-2.5c0-.276-.224-.5-.5-.5s-.5.224-.5.5v2.5h-1c-3.59 0-6.5 2.91-6.5 6.5v6.5c0 4.418 3.582 8 8 8s8-3.582 8-8v-6.5c0-3.59-2.91-6.5-6.5-6.5zm-8.5 6.5c0-3.033 2.468-5.5 5.5-5.5h1v7h-6.5zm14 6.5c0 1.91-.755 3.694-2.126 5.024-1.37 1.329-3.174 2.023-5.09 1.972-3.74-.112-6.784-3.392-6.784-7.311v-3.686h14v4zm0-5h-6.5v-7h1c3.032 0 5.5 2.467 5.5 5.5z"/><path d="m14.087 5.038c-.308-.04-.587.185-.587.496v3.966c0 .276.224.5.5.5h3.5c.5 0 .5-.5.5-.5 0-2.286-1.705-4.174-3.913-4.462z"/></svg>