<svg id="Layer_1" viewBox="0 0 24 24" xmlns="http://www.w3.org/2000/svg" data-name="Layer 1"><path d="m7.258 10.991 3.514 2.008c.382.219.812.328 1.242.328.419 0 .838-.104 1.213-.312l3.485-1.935c.793-.44 1.287-1.278 1.287-2.187v-4.413c0-.9-.487-1.734-1.27-2.177l-3.506-1.98c-.759-.429-1.703-.429-2.461 0l-3.495 1.979c-.783.442-1.269 1.276-1.269 2.176v4.341c0 .895.482 1.726 1.26 2.171zm.496-.868c-.466-.268-.756-.767-.756-1.303v-4.341c0-.125.019-.247.049-.366l4.45 2.544v5.568c-.077-.029-.156-.053-.229-.094l-3.515-2.008zm9.244-1.229c0 .545-.296 1.048-.772 1.312l-3.485 1.935c-.077.043-.161.068-.244.096v-5.577l4.452-2.544c.03.118.049.24.049.364zm-5.744-7.699c.457-.26 1.023-.259 1.477 0 0 0 3.603 2.055 3.653 2.092l-4.384 2.506-4.386-2.508c.049-.036 3.64-2.09 3.64-2.09zm-4.34 12.815h-1.419l-.375-1.373c-.132-.505-.588-.862-1.127-.871-.522.009-.979.366-1.109.865l-.377 1.379h-1.421c-.671 0-1.086.541-1.086 1.042 0 .454.272.888.69 1.119l.909.565-.417 1.137c-.185.504-.021 1.06.409 1.384.433.327 1.037.322 1.467-.01l.942-.728.942.728c.43.333 1.033.335 1.468.01.429-.324.593-.88.408-1.384l-.417-1.137.887-.553c.439-.244.711-.678.711-1.132 0-.501-.415-1.042-1.086-1.042zm-.133 1.312-1.253.781c-.201.126-.287.375-.205.597l.557 1.518c.076.191-.167.37-.326.239l-1.248-.964c-.18-.139-.432-.139-.611 0l-1.248.964c-.187.139-.39-.056-.326-.239l.557-1.518c.082-.222-.004-.471-.205-.597l-1.275-.794c-.098-.054-.233-.299.035-.299h1.656c.226 0 .423-.15.482-.368l.479-1.753c.042-.163.269-.132.304.006l.478 1.747c.06.218.257.368.482.368h1.665c.217 0 .203.197.004.312zm16.133-1.312h-1.419l-.375-1.373c-.132-.505-.588-.862-1.127-.871-.522.009-.979.366-1.109.865l-.377 1.379h-1.419c-.671 0-1.086.541-1.086 1.042 0 .454.272.888.69 1.119l.909.565-.417 1.137c-.185.504-.021 1.06.409 1.384.433.327 1.037.322 1.467-.01l.942-.728.942.728c.43.333 1.033.335 1.468.01.429-.324.593-.88.408-1.384l-.417-1.137.887-.553c.439-.244.711-.678.711-1.132 0-.501-.415-1.042-1.086-1.042zm-.133 1.312-1.253.781c-.201.126-.287.375-.205.597l.557 1.518c.076.191-.167.37-.326.239l-1.248-.964c-.18-.139-.432-.139-.611 0l-1.248.964c-.187.139-.39-.056-.326-.239l.557-1.518c.082-.222-.004-.471-.205-.597l-1.275-.794c-.098-.054-.233-.299.035-.299h1.656c.226 0 .423-.15.482-.368l.479-1.753c.042-.163.269-.132.304.006l.478 1.747c.06.218.257.368.482.368h1.665c.217 0 .203.197.004.312zm-7.867 3.188h-1.419l-.375-1.373c-.132-.505-.588-.862-1.127-.871-.522.009-.979.366-1.109.865l-.377 1.379h-1.419c-.671 0-1.086.541-1.086 1.042 0 .454.272.888.69 1.119l.909.565-.417 1.137c-.185.504-.021 1.06.409 1.384.433.327 1.037.322 1.467-.01l.942-.728.942.728c.43.333 1.033.335 1.468.01.429-.324.593-.88.408-1.384l-.417-1.137.887-.553c.439-.244.711-.678.711-1.132 0-.501-.415-1.042-1.086-1.042zm-.133 1.312-1.253.781c-.201.126-.287.375-.205.597l.557 1.518c.076.191-.167.37-.326.239l-1.248-.964c-.18-.139-.432-.139-.611 0l-1.248.964c-.187.139-.39-.056-.326-.239l.557-1.518c.082-.222-.004-.471-.205-.597l-1.275-.794c-.098-.054-.233-.299.035-.299h1.656c.226 0 .423-.15.482-.368l.479-1.753c.042-.163.269-.132.304.006l.478 1.747c.06.218.257.368.482.368h1.665c.217 0 .203.197.004.312z"/></svg>