<svg id="Layer_1" viewBox="0 0 24 24" xmlns="http://www.w3.org/2000/svg" data-name="Layer 1"><path d="m23 17c0 .276-.224.5-.5.5h-2.5v3c0 .276-.224.5-.5.5s-.5-.224-.5-.5v-6.5c0-.552.448-1 1-1h2.5c.276 0 .5.224.5.5s-.224.5-.5.5h-2.5v2.5h2.5c.276 0 .5.224.5.5zm-5-3.5c0-.276-.224-.5-.5-.5h-4c-.276 0-.5.224-.5.5s.224.5.5.5h1.501l.016 6.501c0 .276.225.499.5.499.276 0 .5-.226.499-.501l-.016-6.499h1.499c.276 0 .5-.224.5-.5zm-7.5-.5c-.276 0-.5.224-.5.5v6.5c0 .552.449 1 1 1h2.5c.276 0 .5-.224.5-.5s-.224-.5-.5-.5h-2.5v-6.5c0-.276-.224-.5-.5-.5zm-4 1c.685 0 1.282.463 1.453 1.125.069.269.347.431.609.359.268-.069.429-.342.36-.609-.285-1.104-1.28-1.875-2.421-1.875-1.378 0-2.5 1.121-2.5 2.5v3c0 1.379 1.122 2.5 2.5 2.5s2.5-1.121 2.5-2.5v-1c0-.276-.224-.5-.5-.5h-1.5c-.276 0-.5.224-.5.5s.224.5.5.5h1v.5c0 .827-.673 1.5-1.5 1.5s-1.5-.673-1.5-1.5v-3c0-.827.673-1.5 1.5-1.5zm12.433 8.714c.139.239.057.545-.182.684-.681.395-1.459.603-2.251.603h-11c-2.481 0-4.5-2.019-4.5-4.5v-15.001c0-2.481 2.019-4.5 4.5-4.5h5.515c1.736 0 3.369.677 4.597 1.904l3.484 3.484c1.228 1.228 1.904 2.86 1.904 4.597v.515c0 .276-.224.5-.5.5s-.5-.224-.5-.5v-.515c0-.335-.038-.663-.096-.985h-5.404c-1.379 0-2.5-1.121-2.5-2.5v-5.404c-.323-.058-.651-.096-.985-.096h-5.515c-1.93 0-3.5 1.57-3.5 3.5v15c0 1.93 1.57 3.5 3.5 3.5h11c.616 0 1.222-.162 1.749-.468.236-.138.544-.059.684.182zm-4.029-20.103c-.55-.55-1.2-.959-1.904-1.232v5.121c0 .827.673 1.5 1.5 1.5h5.121c-.273-.704-.682-1.354-1.232-1.904l-3.484-3.484z"/></svg>