<svg id="Layer_1" viewBox="0 0 24 24" xmlns="http://www.w3.org/2000/svg" data-name="Layer 1"><path d="m9.5 0h-5c-2.481 0-4.5 2.019-4.5 4.5v15c0 2.481 2.019 4.5 4.5 4.5h5c.827 0 1.5-.673 1.5-1.5v-21c0-.827-.673-1.5-1.5-1.5zm.5 22.5c0 .275-.224.5-.5.5h-5c-1.93 0-3.5-1.57-3.5-3.5v-15c0-1.93 1.57-3.5 3.5-3.5h5c.276 0 .5.225.5.5zm9.5-22.5h-5c-.827 0-1.5.673-1.5 1.5v21c0 .827.673 1.5 1.5 1.5h5c2.481 0 4.5-2.019 4.5-4.5v-15c0-2.481-2.019-4.5-4.5-4.5zm3.5 19.5c0 1.93-1.57 3.5-3.5 3.5h-5c-.276 0-.5-.225-.5-.5v-21c0-.275.224-.5.5-.5h5c1.93 0 3.5 1.57 3.5 3.5z"/></svg>