<?xml version="1.0" encoding="UTF-8"?>
<svg xmlns="http://www.w3.org/2000/svg" id="Layer_1" data-name="Layer 1" viewBox="0 0 24 24">
  <path d="m17.494,24H6.506c-1.009,0-1.97-.438-2.635-1.197-.668-.764-.974-1.776-.839-2.781.489-3.656,3.258-6.08,5.669-8.021-2.411-1.941-5.18-4.365-5.669-8.021-.135-1.007.171-2.021.838-2.784C4.534.436,5.492,0,6.499,0h11.002c1.007,0,1.965.434,2.629,1.191.667.763.973,1.775.839,2.781-.487,3.659-3.258,6.084-5.67,8.026,2.412,1.942,5.183,4.367,5.67,8.026.133,1.003-.173,2.016-.84,2.777-.665.76-1.626,1.196-2.635,1.196Zm.007-23H6.499c-.719,0-1.402.312-1.876.853-.478.546-.696,1.272-.601,1.993.47,3.508,3.42,5.868,5.79,7.764.118.095.188.238.188.391s-.069.296-.188.391c-2.37,1.896-5.32,4.256-5.79,7.764-.096.719.123,1.443.601,1.989.476.544,1.162.855,1.883.855h10.988c.721,0,1.407-.311,1.883-.854.477-.545.695-1.269.6-1.985-.467-3.511-3.418-5.872-5.789-7.769-.118-.095-.187-.238-.187-.391s.069-.296.187-.391c2.371-1.896,5.322-4.258,5.789-7.769.097-.719-.122-1.444-.6-1.989-.474-.541-1.157-.852-1.876-.852Z"/>
</svg>
