<svg id="Layer_1" viewBox="0 0 24 24" xmlns="http://www.w3.org/2000/svg" data-name="Layer 1"><path d="m24 10.999s0-.001 0-.002c-.002-7.555-6.221-10.997-12-10.997s-11.998 3.441-12 10.997v.002c0 3.215.855 5.636 2.544 7.196 1.793 1.658 3.966 1.812 4.7 1.812.152 0 .243-.006.256-.008h.5v3.5c0 .276.224.5.5.5s.5-.224.5-.5v-4.148c.952.405 1.965.648 3 .648s2.048-.243 3-.648v4.148c0 .276.224.5.5.5s.5-.224.5-.5v-3.501h.461c.113.009 2.832.196 4.995-1.803 1.688-1.56 2.544-3.981 2.544-7.196zm-12-9.999c4.624 0 9.553 2.385 10.734 7.559-.491-.35-1.086-.56-1.734-.56h-2c-1.448.001-2.073-.889-2.625-1.675-.101-.143-.194-.277-.286-.395-.146-.187-.4-.246-.613-.143-.293.142-.671.214-1.132.214-.74 0-1.456-.253-1.997-.773-.193-.187-.5-.187-.693 0-.518.498-1.193.772-1.914.772-.477.017-.902-.061-1.215-.213-.212-.102-.467-.043-.613.143-.092.118-.186.251-.286.395-.552.786-1.177 1.676-2.625 1.676h-2.001c-.647-.001-1.243.209-1.734.559 1.181-5.174 6.11-7.559 10.734-7.559zm-4.538 18.001c-.026.003-2.415.156-4.25-1.55-1.033-.959-1.699-2.327-2.008-4.065.502.379 1.12.612 1.797.612h.6c.766 1.841 2.4 3.722 4.426 4.876-.011.041-.025.081-.025.125s-.538.001-.538.001zm-3.05-5.672c-.071-.198-.26-.331-.471-.331h-.941c-1.102 0-2-.897-2-2 0 0 0-.001 0-.002 0-1.102.898-1.998 2-1.998h2c1.968.001 2.855-1.263 3.443-2.1.014-.019.026-.038.04-.057.344.106.733.16 1.158.16.859 0 1.682-.245 2.358-.756.647.49 1.431.755 2.239.755.484.008.904-.044 1.277-.159.014.019.026.038.04.057.588.837 1.476 2.102 3.443 2.102h2c1.102-.001 1.999.895 2 1.997v.002c0 1.103-.898 2-2 2h-.941c-.211 0-.399.132-.471.331-.982 2.727-4.162 5.671-7.588 5.671s-6.605-2.944-7.588-5.671zm16.376 4.123c-1.838 1.707-4.23 1.549-4.288 1.548h-.5c0-.044-.014-.084-.025-.125 2.025-1.154 3.66-3.036 4.426-4.876h.6c.676 0 1.294-.233 1.797-.612-.309 1.738-.975 3.106-2.008 4.065z"/><circle cx="9" cy="10" r="1"/><circle cx="15" cy="10" r="1"/><path d="m13.915 14h-3.831c-.506 0-.795.612-.447.98.592.628 1.431 1.02 2.362 1.02s1.77-.392 2.362-1.02c.347-.368.059-.98-.447-.98z"/></svg>