<svg id="Layer_1" viewBox="0 0 24 24" xmlns="http://www.w3.org/2000/svg" data-name="Layer 1"><path d="m12.5 3.5v1c0 .276-.224.5-.5.5s-.5-.224-.5-.5v-1c0-.276.224-.5.5-.5s.5.224.5.5zm-.5 3.5c-.276 0-.5.224-.5.5v1c0 .276.224.5.5.5s.5-.224.5-.5v-1c0-.276-.224-.5-.5-.5zm0 4c-.276 0-.5.224-.5.5v1c0 .276.224.5.5.5s.5-.224.5-.5v-1c0-.276-.224-.5-.5-.5zm0 4c-.276 0-.5.224-.5.5v1c0 .276.224.5.5.5s.5-.224.5-.5v-1c0-.276-.224-.5-.5-.5zm-5.513-8.964c-.311-.107-.645-.014-.852.244l-1.526 1.908c-.172.216-.137.53.078.703.217.173.531.136.703-.078l1.109-1.387v6.075c0 .276.224.5.5.5s.5-.224.5-.5v-6.742c0-.33-.201-.614-.513-.723zm13.513 6.964h-3.247c-.151 0-.212-.101-.235-.161-.019-.05-.05-.179.072-.288.304-.271.744-.531 1.209-.807 1.288-.764 2.891-1.714 2.68-3.615-.135-1.214-1.201-2.129-2.479-2.129-1.378 0-2.5 1.122-2.5 2.5 0 .276.224.5.5.5s.5-.224.5-.5c0-.827.673-1.5 1.5-1.5.755 0 1.408.544 1.485 1.239.13 1.171-.785 1.808-2.196 2.644-.508.301-.988.586-1.364.92-.395.352-.529.898-.342 1.392.186.488.646.805 1.17.805h3.247c.276 0 .5-.224.5-.5s-.224-.5-.5-.5zm4-7.5v9c0 2.481-2.019 4.5-4.5 4.5h-7v3h5c.276 0 .5.224.5.5s-.224.5-.5.5h-11c-.276 0-.5-.224-.5-.5s.224-.5.5-.5h5v-3h-7c-2.481 0-4.5-2.019-4.5-4.5v-9c0-2.481 2.019-4.5 4.5-4.5h15c2.481 0 4.5 2.019 4.5 4.5zm-1 0c0-1.93-1.57-3.5-3.5-3.5h-15c-1.93 0-3.5 1.57-3.5 3.5v9c0 1.93 1.57 3.5 3.5 3.5h15c1.93 0 3.5-1.57 3.5-3.5z"/></svg>