<?xml version="1.0" encoding="UTF-8"?>
<svg xmlns="http://www.w3.org/2000/svg" id="Layer_1" data-name="Layer 1" viewBox="0 0 24 24">
  <path d="m23.854,21.854c-.098.098-.226.146-.354.146s-.256-.049-.354-.146c-.739-.74-1.146-1.723-1.146-2.768v-5.851c0-1.358-.416-2.661-1.203-3.767L15.231,1.644c-.476-.682-1.414-.847-2.091-.372-.329.229-.548.573-.618.968s.019.792.248,1.121l4.184,6.133c.631.478,1.045,1.254,1.045,2.114v5.893c0,.276-.224.5-.5.5s-.5-.224-.5-.5v-5.893c0-.789-.535-1.471-1.245-1.587-.45-.071-.886.046-1.226.336-.336.286-.529.703-.529,1.144v6.5c0,3.233,1.836,5.129,1.854,5.147.194.196.193.513-.002.707-.098.097-.225.146-.353.146s-.255-.049-.353-.146c-.088-.088-2.146-2.188-2.146-5.854v-6.5c0-.734.321-1.429.881-1.905.431-.366.97-.568,1.531-.588l-3.412-5.003-3.411,5.002c.561.02,1.099.222,1.53.588.56.477.881,1.171.881,1.905v6.5c0,3.665-2.059,5.766-2.146,5.854-.098.098-.225.146-.353.146s-.255-.049-.353-.146c-.195-.194-.196-.511-.002-.707.019-.019,1.854-1.914,1.854-5.147v-6.5c0-.44-.193-.857-.529-1.144-.34-.29-.776-.407-1.226-.336-.709.116-1.245.798-1.245,1.587v5.893c0,.276-.224.5-.5.5s-.5-.224-.5-.5v-5.893c0-.86.414-1.636,1.045-2.114l4.181-6.13c.233-.333.321-.73.251-1.125s-.289-.738-.618-.968c-.677-.474-1.614-.31-2.089.369l-5.567,7.828c-.788,1.105-1.204,2.408-1.204,3.767v5.851c0,1.045-.407,2.027-1.146,2.768-.098.098-.226.146-.354.146s-.256-.049-.354-.146c-.195-.195-.195-.512,0-.707.55-.551.854-1.282.854-2.061v-5.851c0-1.567.48-3.07,1.389-4.347L7.954,1.063c.787-1.125,2.349-1.401,3.479-.612.224.157.409.352.567.565.159-.213.343-.409.567-.565,1.13-.787,2.691-.513,3.481.615l5.562,7.822c.909,1.276,1.389,2.779,1.389,4.347v5.851c0,.778.303,1.51.854,2.061.195.195.195.512,0,.707Z"/>
</svg>
