<?xml version="1.0" encoding="UTF-8"?>
<svg xmlns="http://www.w3.org/2000/svg" id="Layer_1" data-name="Layer 1" viewBox="0 0 24 24">
  <path d="M14.843,2.521c-1.646-1.362-4.039-1.362-5.686,0C4.808,6.114,.087,12.058,0,16.618c-.039,2.07,1.13,4.13,3.05,5.375,1.884,1.221,3.939,1.339,5.791,.332,1.429-.776,2.551-2.129,3.158-3.696,.607,1.567,1.729,2.92,3.158,3.696,.833,.453,1.707,.678,2.588,.678,1.078,0,2.167-.338,3.203-1.01,1.92-1.245,3.089-3.305,3.05-5.375-.086-4.56-4.807-10.504-9.156-14.097Zm5.562,18.633c-1.559,1.012-3.253,1.116-4.769,.292-1.847-1.003-3.136-3.243-3.136-5.446,0-.276-.224-.5-.5-.5s-.5,.224-.5,.5c0,2.204-1.289,4.443-3.136,5.446-1.517,.824-3.212,.718-4.769-.292-1.634-1.059-2.628-2.79-2.595-4.518,.08-4.244,4.614-9.893,8.793-13.345,1.279-1.057,3.133-1.057,4.412,0,4.179,3.452,8.713,9.1,8.793,13.344,.033,1.728-.961,3.459-2.595,4.518Z"/>
</svg>
