<svg id="Layer_1" viewBox="0 0 24 24" xmlns="http://www.w3.org/2000/svg" data-name="Layer 1"><path d="m24 23.5c0 .276-.224.5-.5.5h-21c-1.378 0-2.5-1.122-2.5-2.5v-21c0-.276.224-.5.5-.5s.5.224.5.5v21c0 .827.673 1.5 1.5 1.5h21c.276 0 .5.224.5.5zm-1.5-14.5h-5c-.276 0-.5.224-.5.5s.224.5.5.5h4.83l-6.405 6.406c-.5.499-1.312.499-1.812 0l-1.249-1.25c-.89-.89-2.337-.89-3.227 0l-4.99 4.99c-.195.195-.195.512 0 .707s.512.195.707 0l4.99-4.99c.5-.5 1.312-.5 1.812 0l1.249 1.25c.892.889 2.339.888 3.227 0l6.368-6.369v4.756c0 .276.224.5.5.5s.5-.224.5-.5v-5c0-.827-.673-1.5-1.5-1.5zm-18.502-1.938v-3.128c0-.899.486-1.732 1.268-2.175l2.496-1.414c.759-.43 1.702-.43 2.461 0l2.504 1.414c.772.449 1.266 1.28 1.27 2.177v3.185c0 .907-.493 1.745-1.287 2.186l-2.485 1.38c-.759.422-1.7.416-2.454-.015l-2.515-1.438c-.777-.444-1.259-1.275-1.259-2.17zm4.27 2.74c.073.042.152.066.229.094v-4.34l-3.452-1.973c-.028.114-.047.231-.047.351v3.129c0 .537.29 1.036.755 1.302l2.515 1.438zm4.73-5.867c0-.12-.019-.237-.047-.351l-3.453 1.974v4.349c.082-.028.166-.053.243-.096l2.485-1.38c.476-.265.772-.767.772-1.312zm-7.397-1.186 3.399 1.943 3.397-1.942c-.053-.041-2.664-1.536-2.664-1.536-.456-.258-1.021-.256-1.477 0 0 0-2.601 1.494-2.654 1.534z"/></svg>