<?xml version="1.0" encoding="UTF-8"?>
<svg xmlns="http://www.w3.org/2000/svg" id="Layer_1" data-name="Layer 1" viewBox="0 0 24 24">
  <path d="m17.242,7.471l3.748-3.755c.297.176.64.283,1.01.283,1.103,0,2-.897,2-2s-.897-2-2-2-2,.897-2,2c0,.37.108.713.284,1.01l-3.743,3.75-3.066-3.111c-.196-.197-.513-.199-.707-.005-.197.194-.199.51-.006.707l3.073,3.117-.875.876c-.587-.547-1.506-.543-2.078.029l-2.458,2.457h0c-.283.284-.439.66-.439,1.061,0,.384.147.743.408,1.022l-.835.841-4.797-4.858,1.158-1.158c.195-.195.195-.512,0-.707s-.512-.195-.707,0l-3,3c-.195.195-.195.512,0,.707.098.098.226.146.354.146s.256-.049.354-.146l1.135-1.135,2.955,2.993-5.076,5.087c-.569.565-.884,1.319-.885,2.122,0,.668.225,1.296.624,1.817l-1.525,1.525c-.195.195-.195.512,0,.707.098.098.226.146.354.146s.256-.049.354-.146l1.522-1.521c.544.434,1.2.665,1.862.665.766,0,1.532-.291,2.116-.871l5.06-5.071,3.717,3.764c.755.759,1.761,1.179,2.831,1.18h.007c1.068,0,2.072-.416,2.828-1.171l2.032-2.033c1.555-1.553,1.56-4.086.012-5.646l-5.597-5.679Zm4.758-6.471c.552,0,1,.449,1,1s-.448,1-1,1c-.273,0-.52-.111-.701-.289-.002-.002-.002-.004-.004-.006-.002-.002-.004-.002-.006-.004-.178-.181-.289-.428-.289-.701,0-.551.448-1,1-1Zm-10.869,10.538h0s2.458-2.458,2.458-2.458c.098-.098.226-.146.354-.146s.256.048.354.146l.316.316s0,.001,0,.001.001,0,.001,0l.318.318c.195.195.195.512,0,.708l-2.457,2.457c-.195.195-.512.195-.707,0l-.321-.321s0,0,0,0c0,0,0,0,0,0l-.316-.315c-.095-.095-.146-.22-.146-.354s.052-.259.146-.353Zm-.028,2.079c.288.268.651.41,1.019.41.384,0,.769-.146,1.061-.438l2.457-2.458c.573-.573.577-1.494.027-2.081l.869-.871,3.283,3.33-.853.853c-.589-.513-1.479-.505-2.039.055l-2.458,2.458c-.283.283-.439.66-.439,1.061,0,.367.137.712.378.985l-.866.866-3.281-3.322.843-.849Zm4.359,2.958s0,0,0,0,0,0,0,0l-.284-.284c-.095-.095-.146-.22-.146-.354s.052-.259.146-.353h0s2.458-2.458,2.458-2.458c.098-.098.226-.146.354-.146s.256.049.354.146l.637.637c.095.095.146.22.146.354s-.052.259-.146.354l-2.457,2.458c-.189.189-.518.189-.707,0l-.352-.352Zm-9.814,4.844c-.779.775-2.048.771-2.823-.004l-.19-.19c-.379-.379-.587-.882-.586-1.418s.21-1.038.591-1.417l5.072-5.083,3,3.038-5.064,5.074Zm16.474-3.331l-2.032,2.033c-.567.567-1.333.836-2.126.878-.803,0-1.558-.315-2.123-.884l-1.597-1.617.864-.864c.282.283.659.438,1.059.438s.777-.156,1.061-.439l2.457-2.458c.283-.283.439-.66.439-1.061s-.156-.776-.438-1.059l.835-.835,1.608,1.631c1.161,1.17,1.158,3.07-.008,4.235Z"/>
</svg>
