<?xml version="1.0" encoding="UTF-8"?>
<svg xmlns="http://www.w3.org/2000/svg" id="Layer_1" data-name="Layer 1" viewBox="0 0 24 24">
  <path d="M23.181,9.654c-.986-.928-2.658-.851-3.548,.166l-3.732,4.103c-.314-1.108-1.335-1.923-2.543-1.923H3.5c-1.93,0-3.5,1.57-3.5,3.5v5c0,1.93,1.57,3.5,3.5,3.5h5.965c2.706,0,5.291-1.159,7.093-3.18l6.806-7.64c.911-1.021,.829-2.604-.183-3.526Zm-.563,2.86l-6.806,7.64c-1.612,1.809-3.926,2.846-6.347,2.846H3.5c-1.379,0-2.5-1.121-2.5-2.5v-5c0-1.379,1.121-2.5,2.5-2.5H13.357c.905,0,1.643,.737,1.643,1.643,0,.812-.605,1.511-1.398,1.624l-6.161,.737c-.274,.032-.47,.281-.437,.556,.032,.274,.282,.476,.556,.437l6.172-.738c1.022-.146,1.846-.879,2.146-1.824l4.496-4.939c.533-.613,1.545-.657,2.134-.101,.609,.556,.658,1.507,.11,2.121ZM2.5,10c.276,0,.5-.224,.5-.5v-2c0-1.379,1.121-2.5,2.5-2.5h2.5v4.5c0,.276,.224,.5,.5,.5s.5-.224,.5-.5V5h2.5c1.379,0,2.5,1.121,2.5,2.5v2c0,.276,.224,.5,.5,.5s.5-.224,.5-.5v-2c0-1.8-1.371-3.27-3.121-3.462,.134-.107,.246-.208,.32-.288,.893-.702,1.066-1.997,.381-2.91-.694-.925-2.013-1.113-2.939-.42-.527,.396-.891,.915-1.14,1.413-.249-.497-.612-1.018-1.141-1.413-.925-.692-2.243-.506-2.94,.42-.694,.926-.506,2.245,.416,2.937,.06,.047,.187,.142,.363,.254-1.787,.156-3.199,1.643-3.199,3.47v2c0,.276,.224,.5,.5,.5ZM10.24,1.221c.484-.366,1.176-.266,1.54,.219,.405,.534,.22,1.246-.305,1.62-.179,.201-.865,.808-2.476,.918v-.521c.06-.316,.341-1.562,1.24-2.235Zm-5.021,.219c.367-.487,1.06-.581,1.541-.219,.9,.674,1.18,1.917,1.239,2.235v.513c-1.446-.149-2.428-.885-2.56-.989-.485-.363-.584-1.055-.221-1.54Z"/>
</svg>
