<svg id="Layer_1" viewBox="0 0 24 24" xmlns="http://www.w3.org/2000/svg" data-name="Layer 1"><path d="m24 7.972c0-1.716-.953-3.258-2.487-4.025l-.789-.395c-.247-.123-.547-.024-.671.224-.124.247-.023.547.224.671l.789.395c.316.158.597.36.844.593-.628.169-1.275.457-1.625 1.056-.396.676-.765 1.191-1.28 1.502-.576.347-1.41.558-2.038.508-1.061-.084-1.898.43-2.336 1.437-.264.606-.708 1.12-1.253 1.449l-.612.377c-.464.289-1.064.29-1.529 0l-.612-.376c-.545-.329-.99-.843-1.253-1.449-.438-1.007-1.265-1.515-2.337-1.437-.619.045-1.462-.162-2.037-.508-.516-.311-.885-.826-1.28-1.501-.373-.638-1.079-.921-1.743-1.084.23-.242.493-.455.791-.625l1.484-.848c.24-.137.323-.442.186-.682-.138-.24-.443-.324-.682-.186l-1.484.848c-1.401.797-2.27 2.294-2.27 3.905v5.679c0 1.777.93 3.379 2.37 4.081.231.113.389.246.483.406.409.7.89 1.409 1.627 1.854.748.451 1.805.712 2.629.649.646-.05 1.075.218 1.344.838.345.795.933 1.472 1.654 1.907l.601.369c.393.245.843.367 1.292.367s.9-.123 1.292-.367l.601-.37c.721-.435 1.309-1.112 1.654-1.907.27-.62.691-.887 1.344-.838.821.06 1.881-.198 2.629-.649.737-.445 1.218-1.154 1.627-1.854.094-.161.251-.293.483-.406 1.439-.702 2.37-2.304 2.37-4.081zm-23 1.892c.804.128 1.643.298 1.924.779.409.7.889 1.409 1.627 1.854.747.451 1.804.717 2.629.649.648-.049 1.074.217 1.344.838.344.794.932 1.471 1.654 1.907.159.096.376.229.6.369.398.249.846.373 1.292.373s.895-.125 1.293-.373c.224-.14.441-.273.6-.369.721-.436 1.309-1.113 1.654-1.907.27-.62.7-.887 1.344-.838.828.063 1.882-.199 2.629-.649.738-.446 1.218-1.154 1.627-1.854.264-.452 1.023-.629 1.781-.755v2.696c-1.03.163-2.134.39-2.645 1.263-.396.676-.765 1.191-1.28 1.502-.575.347-1.409.554-2.038.508-1.062-.081-1.898.429-2.336 1.437-.263.605-.708 1.12-1.253 1.449l-.612.377c-.472.293-1.058.293-1.529 0l-.612-.376c-.545-.329-.99-.843-1.253-1.449-.439-1.007-1.266-1.524-2.336-1.436-.624.049-1.463-.162-2.038-.508-.516-.311-.885-.825-1.28-1.502-.535-.914-1.718-1.12-2.788-1.286v-2.697zm.365-3.58c.788.169 1.311.379 1.487.712.409.699.889 1.408 1.627 1.854.748.451 1.81.713 2.629.649.654-.051 1.075.217 1.344.838.345.795.933 1.472 1.654 1.907l.601.369c.393.245.843.367 1.292.367s.9-.123 1.292-.367l.601-.37c.721-.435 1.309-1.112 1.654-1.907.27-.621.696-.888 1.344-.838.82.064 1.881-.198 2.629-.649.738-.446 1.218-1.154 1.627-1.854.186-.319.628-.532 1.425-.69.272.502.427 1.069.427 1.667v.902c-1.03.163-2.134.39-2.645 1.263-.396.676-.765 1.191-1.28 1.502-.575.346-1.409.555-2.038.508-1.069-.087-1.898.429-2.336 1.437-.263.605-.708 1.12-1.253 1.449-.162.098-.384.234-.612.377-.471.293-1.057.293-1.529 0-.229-.143-.45-.279-.612-.377-.545-.329-.99-.843-1.253-1.449-.439-1.007-1.266-1.521-2.336-1.436-.624.047-1.463-.162-2.038-.508-.516-.311-.885-.825-1.28-1.502-.535-.914-1.718-1.12-2.788-1.286v-1.03c0-.543.133-1.065.365-1.538zm19.827 10.399c-.409.199-.714.468-.908.8-.396.677-.765 1.191-1.28 1.502-.575.347-1.414.551-2.038.508-1.076-.078-1.899.43-2.336 1.437-.264.606-.708 1.12-1.253 1.449l-.612.377c-.464.289-1.064.29-1.529 0l-.612-.376c-.545-.329-.99-.843-1.253-1.449-.438-1.007-1.262-1.515-2.337-1.437-.625.043-1.462-.162-2.037-.508-.516-.311-.885-.825-1.28-1.502-.194-.332-.499-.601-.908-.8-1.078-.526-1.778-1.742-1.803-3.109.803.128 1.639.298 1.92.778.409.7.889 1.409 1.627 1.854.747.451 1.804.716 2.629.649.648-.05 1.074.217 1.344.838.344.794.932 1.471 1.654 1.907l.6.369c.399.249.846.373 1.293.373s.894-.124 1.292-.372l.6-.37c.721-.436 1.309-1.113 1.654-1.907.27-.621.7-.885 1.344-.838.828.065 1.882-.198 2.629-.649.738-.446 1.218-1.154 1.627-1.854.263-.451 1.018-.628 1.775-.754-.033 1.357-.73 2.561-1.802 3.085zm-11.745-10.21c1.187.473 2.337.531 2.832.531.215-.002.177-.005.379 0 .596 0 2.473-.104 3.847-1.335.915-.819 1.417-1.959 1.493-3.388.019-.361-.125-.709-.395-.956-.271-.247-.631-.361-.991-.306-2.374.346-3.525 1.924-4.086 3.295-.591-1.679-1.92-3.792-4.914-4.251-.411-.064-.825.065-1.138.351-.318.29-.485.699-.458 1.122.188 3.025 1.97 4.354 3.431 4.937zm7.31-4.466c.152 0 .23.065.242.219-.167 3.141-2.782 3.679-3.937 3.763.188-1.109.915-3.577 3.694-3.982zm-9.296-.955c3.471.532 4.292 3.678 4.483 4.946-1.326-.063-4.687-.611-4.93-4.524 0-.238.158-.445.447-.423z"/></svg>