<svg id="Layer_1" viewBox="0 0 24 24" xmlns="http://www.w3.org/2000/svg" data-name="Layer 1"><path d="m22 12c-.493 0-.939.186-1.288.483-.349-.586-.983-.983-1.712-.983-.493 0-.939.186-1.288.483-.349-.586-.983-.983-1.712-.983-.366 0-.705.106-1 .278v-2.278c0-1.103-.897-2-2-2s-2 .897-2 2v9.5c0 .275-.224.5-.5.5h-1.893c-1.273 0-2.379.896-2.573 2.084-.119.733.085 1.476.562 2.035s1.17.881 1.905.881h10c3.032 0 5.5-2.468 5.5-5.5v-4.5c0-1.103-.897-2-2-2zm0 1c.552 0 1 .448 1 1v2c0 .552-.448 1-1 1s-1-.448-1-1v-2c0-.552.448-1 1-1zm-3-.5c.552 0 1 .449 1 1v2c0 .552-.448 1-1 1s-1-.448-1-1v-2c0-.551.448-1 1-1zm-3-.5c.552 0 1 .449 1 1v2c0 .552-.448 1-1 1s-1-.448-1-1v-2c0-.551.448-1 1-1zm2.5 11h-10c-.44 0-.857-.192-1.143-.528-.29-.341-.409-.777-.336-1.228.115-.709.797-1.244 1.586-1.244h1.893c.827 0 1.5-.673 1.5-1.5v-9.5c0-.551.449-1 1-1s1 .449 1 1v6c0 1.103.897 2 2 2 .493 0 .939-.186 1.288-.483.349.585.983.983 1.712.983.493 0 .939-.186 1.288-.483.349.585.983.983 1.712.983.366 0 .705-.106 1-.278v.778c0 2.481-2.019 4.5-4.5 4.5zm-9.5-6.5c0-.276-.224-.5-.5-.5h-3c-2.481 0-4.5-2.019-4.5-4.5v-.778c.295.172.634.278 1 .278.731 0 1.365-.399 1.714-.986.099.084.211.149.326.213-.067.717.165 1.462.718 2.015l2.654 2.653c.195.195.512.195.707 0s.195-.512 0-.707l-2.654-2.653c-.596-.596-.608-1.518-.028-2.099.282-.282.657-.437 1.057-.438.004 0 .007.002.01 0 .399.002.774.158 1.056.44l1.586 1.585c.144.144.359.187.545.108.187-.077.309-.26.309-.462v-8.669c0-.551.449-1 1-1s1 .449 1 1v2.5c0 .276.224.5.5.5s.5-.224.5-.5v-2.5c0-1.103-.897-2-2-2s-2 .897-2 2v2.278c-.295-.172-.634-.278-1-.278-.73 0-1.363.397-1.712.982-.349-.297-.795-.482-1.288-.482-.73 0-1.363.397-1.712.982-.349-.297-.795-.482-1.288-.482-1.103 0-2 .897-2 2v4.5c0 3.032 2.467 5.5 5.5 5.5h3c.276 0 .5-.224.5-.5zm-2-10.5c0-.551.449-1 1-1s1 .449 1 1v2c0 .386-.23.727-.572.892l-.16-.16c-.357-.357-.797-.581-1.258-.677-.001-.019-.01-2.056-.01-2.056zm-3 .5c0-.551.449-1 1-1s1 .449 1 1v1.551c-.466.094-.91.318-1.271.678-.156.157-.277.333-.382.517-.212-.187-.347-.453-.347-.747v-2zm-3 .5c0-.551.449-1 1-1s1 .449 1 1v2c0 .551-.449 1-1 1s-1-.449-1-1z"/></svg>