<?xml version="1.0" encoding="UTF-8"?>
<svg xmlns="http://www.w3.org/2000/svg" id="Layer_1" data-name="Layer 1" viewBox="0 0 24 24">
  <path d="m20.607,3.969L14.107.524c-1.32-.699-2.895-.699-4.215,0L3.393,3.969c-1.476.782-2.393,2.306-2.393,3.976v8.11c0,1.67.917,3.193,2.393,3.976l6.5,3.445c.66.35,1.384.524,2.107.524s1.447-.175,2.107-.524l6.5-3.445c1.476-.783,2.393-2.306,2.393-3.976V7.945c0-1.67-.917-3.194-2.393-3.976ZM2,7.945c0-.205.024-.406.058-.603l7.834,4.135c.66.35,1.384.524,2.108.524s1.445-.174,2.104-.523l7.841-4.113c.032.19.054.383.054.58v1.293c-.044.009-8.361,4.355-8.361,4.355-1.024.544-2.25.545-3.278,0,0,0-8.298-4.363-8.36-4.37v-1.277Zm1.861-3.092l6.5-3.445c.513-.272,1.076-.408,1.639-.408s1.126.136,1.639.408l6.5,3.445c.664.351,1.175.899,1.495,1.547l-7.995,4.193c-1.024.544-2.25.545-3.278,0L2.377,6.379c.32-.638.828-1.178,1.484-1.526Zm16.277,14.295l-6.5,3.445c-1.025.544-2.252.544-3.277,0l-6.5-3.445c-1.148-.608-1.861-1.793-1.861-3.092v-2.745l1.288.68c.074.039.154.058.233.058.179,0,.353-.097.442-.267.129-.244.035-.547-.209-.676,0,0-1.693-.877-1.755-.883v-1.911l7.893,4.165c.66.35,1.384.524,2.108.524s1.445-.174,2.104-.523l7.895-4.141v1.901c-.044.009-1.703.863-1.703.863-.244.128-.339.431-.21.675.089.17.263.268.442.268.079,0,.158-.019.232-.057l1.238-.65v2.719c0,1.299-.713,2.484-1.861,3.092Zm-12.112-3.234c-.088.175-.265.276-.447.276-.076,0-.152-.017-.225-.053l-1.631-.818c-.246-.124-.346-.424-.223-.671.125-.248.426-.346.672-.223l1.631.818c.246.124.346.424.223.671Zm6.02,1.06c.109.253-.007.548-.261.657-.572.247-1.178.371-1.784.371-.541,0-1.083-.099-1.603-.296-.258-.098-.388-.387-.29-.645.099-.259.389-.386.646-.29.857.326,1.793.305,2.635-.058.252-.108.549.007.657.261Zm4.363-2.4c.137.24.053.545-.188.682l-1.448.823c-.078.044-.163.065-.247.065-.174,0-.343-.091-.435-.253-.137-.24-.053-.545.188-.682l1.448-.823c.239-.137.545-.053.682.188Z"/>
</svg>
