<svg id="Layer_1" viewBox="0 0 24 24" xmlns="http://www.w3.org/2000/svg" data-name="Layer 1"><path d="m4.218 13.988c.263.06.537-.11.596-.381 0 0 .999-4.532 1.364-6.185.641 2.623 3.005 4.577 5.823 4.577 1.668 0 3.218-.668 4.363-1.882.189-.201.181-.517-.02-.707-.2-.19-.519-.181-.707.02-.955 1.011-2.247 1.568-3.637 1.568-2.415 0-4.435-1.722-4.899-4.002h.914c3.161-.094 5.87-2.206 6.803-5.189 1.267.802 2.21 2.165 2.635 3.945.049.204 1.734 7.853 1.734 7.853.052.233.258.393.488.393.314.003.56-.301.488-.607 0 0-1.689-7.666-1.738-7.87-.813-3.406-3.275-5.522-6.425-5.522-3.128.037-5.615 2.104-6.425 5.523-.049.204-1.738 7.87-1.738 7.87-.06.27.111.536.381.596zm3.781-7.991h-.999c0-2.755 2.244-4.997 5-4.997.682 0 1.325.123 1.918.35-.756 2.666-3.142 4.565-5.919 4.647zm13.001 15.878v1.625c0 .276-.224.5-.5.5s-.5-.224-.5-.5v-1.625c0-2.114-.869-4.349-2.163-5.562-.464-.45-1.273-.384-1.688.102l-3.769 4.41c-.188.232-.573.231-.761 0l-3.765-4.423c-.407-.477-1.227-.546-1.683-.097-1.299 1.214-2.172 3.453-2.172 5.571v1.625c0 .276-.224.5-.5.5s-.5-.224-.5-.5v-1.625c0-2.378 1.001-4.91 2.489-6.301.854-.831 2.351-.731 3.12.171l3.392 3.984 3.394-3.972c.777-.909 2.266-1.009 3.126-.174 1.483 1.39 2.479 3.918 2.479 6.292z"/></svg>