<svg id="Layer_1" viewBox="0 0 24 24" xmlns="http://www.w3.org/2000/svg" data-name="Layer 1"><path d="m17.5 17h-14.5v-12.5c0-1.93 1.57-3.5 3.5-3.5h7c.276 0 .5-.224.5-.5s-.224-.5-.5-.5h-7c-2.481 0-4.5 2.019-4.5 4.5v15c0 2.481 2.019 4.5 4.5 4.5h7c2.481 0 4.5-2.019 4.5-4.5v-2c0-.276-.224-.5-.5-.5zm-.5 2.5c0 1.93-1.57 3.5-3.5 3.5h-7c-1.93 0-3.5-1.57-3.5-3.5v-1.5h14zm-9 1c0-.276.224-.5.5-.5h3c.276 0 .5.224.5.5s-.224.5-.5.5h-3c-.276 0-.5-.224-.5-.5zm14-14.149v-1.851c0-1.93-1.57-3.5-3.5-3.5s-3.5 1.57-3.5 3.5v1.851c-1.178.564-2 1.758-2 3.149v2c0 1.93 1.57 3.5 3.5 3.5h4c1.93 0 3.5-1.57 3.5-3.5v-2c0-1.391-.822-2.585-2-3.149zm-6-1.851c0-1.378 1.121-2.5 2.5-2.5s2.5 1.122 2.5 2.5v1.551c-.165-.024-.329-.051-.5-.051h-4c-.171 0-.335.027-.5.051zm7 7c0 1.378-1.121 2.5-2.5 2.5h-4c-1.379 0-2.5-1.122-2.5-2.5v-2c0-1.378 1.121-2.5 2.5-2.5h4c1.379 0 2.5 1.122 2.5 2.5zm-3.5-1c0 .552-.448 1-1 1s-1-.448-1-1 .448-1 1-1 1 .448 1 1z"/></svg>