<svg id="Layer_1" viewBox="0 0 24 24" xmlns="http://www.w3.org/2000/svg" data-name="Layer 1"><path d="m18.917 2.266-6.758-2.24c-.102-.034-.213-.034-.314 0l-6.759 2.241c-1.845.611-3.084 2.328-3.084 4.27l-.003 5.397c.233 7.032 7.234 10.818 10.003 12.065 2.786-1.036 9.775-4.143 9.997-12.065l.003-5.397c0-1.943-1.239-3.66-3.084-4.271zm2.081 9.669c-.083 7.047-6.709 10.094-8.975 11.017-2.252-1.137-8.948-4.813-9.025-11.017l.003-5.397c0-1.511.964-2.846 2.398-3.322l6.601-2.189 6.601 2.188c1.435.476 2.398 1.811 2.398 3.322l-.003 5.397zm-8.161-6.659c-.245-.226-.573-.319-.904-.257-.33.063-.604.271-.75.573-.304.627-.454 1.298-.586 1.89-.263 1.177-.405 1.519-.803 1.53-.122-.085-.27-.602-.298-1.043-.013-.197-.141-.369-.326-.437-.188-.07-.396-.021-.532.121-.856.884-1.637 2.957-1.637 4.348-.01 2.788 2.308 5 5 5 2.715 0 5.011-2.212 5-5 0-2.405-2.265-4.985-4.164-6.725zm-.129 10.431c-.391.39-1.023.39-1.414 0-.39-.39-.39-1.025 0-1.415l.689-.725.725.725c.388.372.388 1.042 0 1.415zm1.229-.228c.038-.155.064-.315.064-.479 0-.535-.208-1.037-.586-1.415l-.769-.769c-.172-.172-.401-.268-.646-.268s-.474.095-.646.267l-.769.769c-.513.513-.682 1.237-.52 1.895-1.226-.684-2.066-1.979-2.066-3.48 0-.798.33-1.927.764-2.773.182.415.483.773.986.773 1.309 0 1.581-1.222 1.822-2.3.126-.565.256-1.15.588-1.687 1.435 1.314 3.84 3.839 3.84 5.988 0 1.5-.839 2.794-2.064 3.479z"/></svg>