<?xml version="1.0" encoding="UTF-8"?>
<svg xmlns="http://www.w3.org/2000/svg" id="Layer_1" data-name="Layer 1" viewBox="0 0 24 24">
  <path d="M9,18.431v5.069c0,.276-.224,.5-.5,.5s-.5-.224-.5-.5v-5.069c0-.248-.185-.458-.43-.488-3.746-.463-6.57-3.663-6.57-7.443v-3.5H.5c-.276,0-.5-.224-.5-.5s.224-.5,.5-.5h3.5V.5c0-.276,.224-.5,.5-.5s.5,.224,.5,.5V6h7V.5c0-.276,.224-.5,.5-.5s.5,.224,.5,.5V6h3.5c.276,0,.5,.224,.5,.5s-.224,.5-.5,.5h-.5v2c0,.276-.224,.5-.5,.5s-.5-.224-.5-.5v-2H2v3.5c0,3.276,2.447,6.049,5.693,6.451,.745,.092,1.307,.729,1.307,1.48Zm15-.931c0,3.584-2.916,6.5-6.5,6.5s-6.5-2.916-6.5-6.5,2.916-6.5,6.5-6.5,6.5,2.916,6.5,6.5Zm-1,0c0-3.033-2.468-5.5-5.5-5.5s-5.5,2.467-5.5,5.5,2.468,5.5,5.5,5.5,5.5-2.467,5.5-5.5Zm-4.104-.484h-2.78c-.054,0-.083-.023-.104-.102l1.917-3.154c.143-.236,.068-.543-.168-.687-.233-.143-.543-.069-.688,.167,0,0-2.013,3.323-2.024,3.363-.102,.335-.041,.687,.165,.964,.211,.285,.54,.448,.902,.448h2.78c.046,0,.072,.032,.087,.059,.011,.021,.033,.075-.008,.137l-1.898,3.022c-.146,.234-.076,.542,.158,.689,.082,.052,.174,.077,.266,.077,.166,0,.328-.083,.424-.234l1.892-3.012c.227-.343,.245-.785,.048-1.153-.194-.361-.565-.586-.968-.586Z"/>
</svg>
