<svg id="Layer_1" viewBox="0 0 24 24" xmlns="http://www.w3.org/2000/svg" data-name="Layer 1"><path d="m11.2 7.399-1.217-.912c-.087-.675-.513-1.487-1.482-1.487h-4c-.97 0-1.395.812-1.482 1.487l-1.218.912c-1.127.847-1.8 2.192-1.8 3.601v8.5c0 2.481 2.019 4.5 4.5 4.5h4c2.481 0 4.5-2.019 4.5-4.5v-8.5c0-1.408-.673-2.754-1.8-3.601zm.8 10.601h-5.5c-.276 0-.5-.225-.5-.5v-3c0-.275.224-.5.5-.5h5.5zm0-5h-5.5c-.827 0-1.5.673-1.5 1.5v3c0 .827.673 1.5 1.5 1.5h5.5v.5c0 1.93-1.57 3.5-3.5 3.5h-4c-1.93 0-3.5-1.57-3.5-3.5v-8.5c0-1.096.523-2.143 1.4-2.8l1.4-1.05c.126-.095.2-.243.2-.4 0-.03.006-.75.5-.75h4c.477 0 .499.676.5.75 0 .157.074.306.2.4l1.4 1.05c.876.657 1.4 1.704 1.4 2.8zm8.302 6.827c-.442-.432-1.163-.434-1.645.044l-.572.715c-.78.779-.78 2.049 0 2.828.378.378.88.586 1.414.586s1.036-.208 1.414-.586c.78-.779.78-2.049.036-2.788l-.648-.799zm-.095 2.88c-.378.377-1.036.377-1.414 0-.39-.39-.39-1.024.036-1.454l.568-.711c.039-.038.057-.072.11-.072s.091.064.097.068l.603.756c.39.39.39 1.024 0 1.414zm3.293-15.707c-1.206 0-1.5-.393-1.5-2v-2.5c0-1.379-1.122-2.5-2.5-2.5s-2.5 1.121-2.5 2.5v2.5c0 1.607-.294 2-1.5 2-.276 0-.5.224-.5.5s.224.5.5.5h1.5v5.5c0 1.208.86 2.217 2 2.45v1.55c0 .276.224.5.5.5s.5-.224.5-.5v-1.551c1.14-.232 2-1.242 2-2.449v-5.5h1.5c.276 0 .5-.224.5-.5s-.224-.5-.5-.5zm-5.5-2v-2.5c0-.827.673-1.5 1.5-1.5s1.5.673 1.5 1.5v2.5c0 .74.068 1.454.376 2h-3.752c.308-.546.376-1.26.376-2zm3 8.5c0 .827-.673 1.5-1.5 1.5s-1.5-.673-1.5-1.5v-5.5h3z"/></svg>