<svg id="Layer_1" viewBox="0 0 24 24" xmlns="http://www.w3.org/2000/svg" data-name="Layer 1"><path d="m22.5 20.071v-.571c0-1.93-1.57-3.5-3.5-3.5h-1v-2.233c0-1.079-.688-2.033-1.714-2.373l-4.129-1.368c-.102-.033-.213-.033-.314 0l-4.129 1.368c-1.025.34-1.714 1.294-1.714 2.373v2.233s-1 0-1 0c-1.93 0-3.5 1.57-3.5 3.5v.571c-.86.224-1.5 1-1.5 1.929 0 1.103.897 2 2 2s2-.897 2-2c0-.929-.64-1.705-1.5-1.929v-.571c0-1.379 1.121-2.5 2.5-2.5h1.001c.069 4.055 3.446 5.966 5.004 6.75.316.167.661.25 1.007.25.29 0 .581-.059.856-.178 1.464-.588 5.036-2.281 5.132-6.822h1c1.379 0 2.5 1.121 2.5 2.5v.571c-.86.224-1.5 1-1.5 1.929 0 1.103.897 2 2 2s2-.897 2-2c0-.929-.64-1.705-1.5-1.929zm-19.5 1.929c0 .552-.448 1-1 1s-1-.448-1-1 .448-1 1-1 1 .448 1 1zm9.472.904c-.323.139-.688.126-1.001-.039-2.218-1.169-4.294-2.674-4.471-5.72v-3.379c0-.647.413-1.22 1.028-1.424l3.972-1.316 3.972 1.316c.615.204 1.028.776 1.028 1.424v2.729s0 .003 0 .004 0 .003 0 .004v.615c-.185 3.447-2.286 4.817-4.529 5.785zm9.528.096c-.552 0-1-.448-1-1s.448-1 1-1 1 .448 1 1-.448 1-1 1zm-21.447-11.059c-.502-.649-.673-1.472-.469-2.259 1.288-4.961 5.943-8.459 11.416-8.662v-.52c0-.276.224-.5.5-.5s.5.224.5.5v.52c5.473.203 10.128 3.702 11.416 8.662.204.787.033 1.61-.469 2.26-.52.673-1.311 1.059-2.17 1.059h-.777c-.276 0-.5-.224-.5-.5s.224-.5.5-.5h.777c.547 0 1.049-.244 1.379-.67.312-.403.417-.912.291-1.396-1.119-4.314-5.047-7.42-9.763-7.871.97 1.178 2.507 3.411 3.111 6.336.057.271-.118.535-.388.591-.263.058-.536-.115-.591-.388-.653-3.161-2.536-5.512-3.316-6.377-.78.865-2.663 3.216-3.316 6.377-.057.271-.324.448-.591.388-.27-.056-.444-.32-.388-.591.604-2.924 2.14-5.158 3.111-6.336-4.716.449-8.644 3.556-9.763 7.87-.126.484-.021.993.291 1.396.33.426.832.67 1.379.67h.777c.276 0 .5.224.5.5s-.224.5-.5.5h-.777c-.858 0-1.649-.386-2.17-1.059zm14.065 5.95c0 .887-.703 1.608-1.568 1.608h-.55v.5c0 .276-.224.5-.5.5s-.5-.224-.5-.5v-.5h-.512c-.812 0-1.483-.625-1.562-1.453-.025-.275.177-.519.451-.545.271-.014.52.177.545.451.029.312.272.547.565.547h2.062c.313 0 .568-.272.568-.608 0-.272-.171-.514-.416-.586l-2.576-.646c-.687-.203-1.152-.839-1.152-1.551 0-.887.703-1.608 1.568-1.608h.458v-.5c0-.276.224-.5.5-.5s.5.224.5.5v.5h.518c.865 0 1.569.722 1.569 1.608 0 .276-.224.5-.5.5s-.5-.224-.5-.5c0-.336-.256-.608-.569-.608h-1.976c-.313 0-.568.272-.568.608 0 .272.171.514.416.586l2.576.646c.687.203 1.152.839 1.152 1.551z"/></svg>