<svg id="Layer_1" viewBox="0 0 24 24" xmlns="http://www.w3.org/2000/svg" data-name="Layer 1"><path d="m23.5 19h-.973c-.25-2.199-1.334-11.67-1.651-13.546-.251-1.482-.912-3.454-3.73-3.454-.59 0-1.156.131-1.694.36-.55-1.494-1.767-2.36-3.451-2.36s-2.901.866-3.451 2.36c-.538-.229-1.104-.36-1.694-.36-2.818 0-3.479 1.972-3.73 3.454-.318 1.876-1.401 11.347-1.651 13.546h-.975c-.276 0-.5.224-.5.5s.224.5.5.5h1.002l.255.613c.856 2.058 2.85 3.387 5.078 3.387h10.329c2.229 0 4.222-1.33 5.078-3.388l.255-.612h1.003c.276 0 .5-.224.5-.5s-.224-.5-.5-.5zm-7.786-15.679c.449-.213.931-.321 1.431-.321 1.633 0 2.429.76 2.744 2.622.304 1.794 1.361 11.007 1.631 13.378h-4.709c-.161-2.418-.905-13.592-1.055-15.287-.012-.136-.048-.388-.041-.392zm-3.714-2.321c1.642 0 2.596.969 2.759 2.801.149 1.67.88 12.652 1.049 15.199h-7.617c.169-2.547.9-13.529 1.049-15.199.164-1.832 1.118-2.801 2.759-2.801zm-7.889 4.622c.315-1.862 1.111-2.622 2.744-2.622.509-.004.993.12 1.452.326-.02.129-.05.251-.062.386-.151 1.695-.895 12.869-1.055 15.287h-4.71c.27-2.371 1.327-11.584 1.631-13.378zm13.054 17.378h-10.33c-1.913.007-3.6-1.208-4.25-3h18.829c-.65 1.792-2.337 3.007-4.25 3z"/></svg>