<?xml version="1.0" encoding="UTF-8"?>
<svg xmlns="http://www.w3.org/2000/svg" id="Layer_1" data-name="Layer 1" viewBox="0 0 24 24">
  <path d="M4.484,11.805c1.104,.599,2.182,1.055,3.229,1.92,.458,.39,1.189,.376,1.53-.14l.613-1.145c.294-.57,.172-1.173-.305-1.501-.606-.58-3.083-1.166-4.702-.876-.886,.066-1.176,1.337-.366,1.742Zm1.513-.805c1.565,.01,2.49,.421,2.989,.763,.058,.041,.022,.141-.014,.212l-.547,1.021c-1.114-.875-2.163-1.399-3.26-1.96,.293-.027,.569-.034,.831-.036Zm3.33-2.766l1.055,.675c.516,.241,1.184-.019,1.384-.556,.25-.622,.954-1.849,1.776-2.496,.776-.551,.426-1.953-.588-1.841-1.721,.16-3.243,1.557-4.024,2.703-.358,.498-.157,1.257,.397,1.515Zm3.642-3.276c.005,.013,.006,.073-.045,.113-1.059,.833-1.827,2.267-2.067,2.961,0,0-1.077-.739-1.101-.75,.711-1.044,2.004-2.151,3.213-2.324Zm11.031,15.542c0-1.378-1.121-2.5-2.5-2.5-.14,0-.275,.019-.409,.041-.402-.871-1.14-1.531-2.026-1.841l2.544-13.568c.181-.961,.958-1.632,1.892-1.632,.276,0,.5-.224,.5-.5s-.224-.5-.5-.5c-1.422,0-2.604,1.007-2.874,2.448l-2.543,13.565c-.054-.003-.107-.013-.162-.013h-2.788c-1.379,0-2.627,.813-3.212,2.043-.138-.024-.277-.043-.421-.043-1.379,0-2.5,1.122-2.5,2.5s1.121,2.5,2.5,2.5c1.208,0,2.217-.86,2.449-2h5.101c.232,1.14,1.242,2,2.449,2,1.379,0,2.5-1.122,2.5-2.5Zm-8.867-3.5h2.788c.954,0,1.821,.556,2.237,1.398-.56,.359-.97,.929-1.107,1.602h-5.101c-.136-.669-.542-1.238-1.097-1.597,.434-.849,1.313-1.403,2.28-1.403Zm-3.633,5c-.827,0-1.5-.673-1.5-1.5s.673-1.5,1.5-1.5,1.5,.673,1.5,1.5-.673,1.5-1.5,1.5Zm10,0c-.827,0-1.5-.673-1.5-1.5s.673-1.5,1.5-1.5,1.5,.673,1.5,1.5-.673,1.5-1.5,1.5Zm-14.473,1c.099-1.199,.487-3.464,1.01-4.819,.139-.357,.024-.753-.284-.986-.317-.238-.741-.238-1.055,0-.665,.507-1.189,1.144-1.602,1.816-.593-1.303-1.434-2.161-2.147-2.779-.595-.554-1.613,.078-1.36,.855,.144,.504,.281,.978,.393,1.449-.086-.087-.172-.176-.257-.258-.663-.687-1.914,.003-1.707,.928,.068,.375,.205,.822,.362,1.341,.228,.75,.491,1.646,.58,2.453h-.46c-.276,0-.5,.224-.5,.5s.224,.5,.5,.5H23.5c.276,0,.5-.224,.5-.5s-.224-.5-.5-.5H7.027Zm-4.322-5.637c.666,.641,1.369,1.533,1.778,2.846-.235,.547-.409,1.078-.536,1.55-.169-.54-.375-1.015-.607-1.435,0-.006,.002-.012,0-.018-.228-1.432-.395-2.092-.635-2.943Zm-.729,5.637c-.087-.93-.389-1.922-.639-2.744-.143-.469-.277-.913-.306-1.256,.929,.892,1.828,1.996,2.197,4H1.976Zm2.718,0c.188-1.035,.752-3.295,2.237-4.693-.495,1.516-.822,3.56-.908,4.693h-1.329Z"/>
</svg>
