<svg id="Layer_1" viewBox="0 0 24 24" xmlns="http://www.w3.org/2000/svg" data-name="Layer 1"><path d="m6 5.5v-1c0-.276.224-.5.5-.5s.5.224.5.5v1c0 .276-.224.5-.5.5s-.5-.224-.5-.5zm5.5.5c.276 0 .5-.224.5-.5v-1c0-.276-.224-.5-.5-.5s-.5.224-.5.5v1c0 .276.224.5.5.5zm1.456 16.542c.114.251.002.548-.25.661-1.167.529-2.414.797-3.706.797-4.962 0-9-4.037-9-9v-3.5c0-1.391.822-2.585 2-3.149v-5.851c0-1.379 1.122-2.5 2.5-2.5h9c1.378 0 2.5 1.121 2.5 2.5v5.851c1.178.564 2 1.758 2 3.149v1c0 .276-.224.5-.5.5s-.5-.224-.5-.5v-1c0-1.379-1.122-2.5-2.5-2.5h-11c-1.378 0-2.5 1.121-2.5 2.5v3.5c0 4.411 3.589 8 8 8 1.149 0 2.257-.238 3.294-.707.251-.113.548-.002.662.249zm-9.956-14.491c.165-.024.329-.051.5-.051h11c.171 0 .335.027.5.051v-5.551c0-.827-.673-1.5-1.5-1.5h-9c-.827 0-1.5.673-1.5 1.5zm15 13.949c-.552 0-1 .448-1 1s.448 1 1 1 1-.448 1-1-.448-1-1-1zm-2.829-1.828c-.195.195-.195.512 0 .707s.512.195.707 0c1.17-1.17 3.073-1.17 4.243 0 .195.195.512.195.707 0s.195-.512 0-.707c-1.56-1.561-4.098-1.561-5.657 0zm8.485-2.829c-3.119-3.119-8.194-3.119-11.313 0-.195.195-.195.512 0 .707s.512.195.707 0c2.729-2.729 7.17-2.729 9.899 0 .195.195.512.195.707 0s.195-.512 0-.707z"/></svg>