<?xml version="1.0" encoding="UTF-8"?>
<svg xmlns="http://www.w3.org/2000/svg" id="Layer_1" data-name="Layer 1" viewBox="0 0 24 24">
  <path d="M19.5,6h-7V2.5c0-.276-.224-.5-.5-.5s-.5,.224-.5,.5v3.5H4.5C2.019,6,0,8.019,0,10.5v6c0,2.481,2.019,4.5,4.5,4.5h15c2.481,0,4.5-2.019,4.5-4.5v-6c0-2.481-2.019-4.5-4.5-4.5Zm3.5,10.5c0,1.93-1.57,3.5-3.5,3.5H4.5c-1.93,0-3.5-1.57-3.5-3.5v-6c0-1.93,1.57-3.5,3.5-3.5h15c1.93,0,3.5,1.57,3.5,3.5v6ZM7,10.5c0,.276-.224,.5-.5,.5h-2c-.276,0-.5-.224-.5-.5s.224-.5,.5-.5h2c.276,0,.5,.224,.5,.5Zm2,0c0-.276,.224-.5,.5-.5h2c.276,0,.5,.224,.5,.5s-.224,.5-.5,.5h-2c-.276,0-.5-.224-.5-.5Zm11,0c0,.276-.224,.5-.5,.5h-5c-.276,0-.5-.224-.5-.5s.224-.5,.5-.5h5c.276,0,.5,.224,.5,.5Zm-13,3c0,.276-.224,.5-.5,.5h-2c-.276,0-.5-.224-.5-.5s.224-.5,.5-.5h2c.276,0,.5,.224,.5,.5Zm2,0c0-.276,.224-.5,.5-.5h2c.276,0,.5,.224,.5,.5s-.224,.5-.5,.5h-2c-.276,0-.5-.224-.5-.5Zm11,0c0,.276-.224,.5-.5,.5h-5c-.276,0-.5-.224-.5-.5s.224-.5,.5-.5h5c.276,0,.5,.224,.5,.5Zm0,3c0,.276-.224,.5-.5,.5h-2c-.276,0-.5-.224-.5-.5s.224-.5,.5-.5h2c.276,0,.5,.224,.5,.5Zm-5,0c0,.276-.224,.5-.5,.5h-5c-.276,0-.5-.224-.5-.5s.224-.5,.5-.5h5c.276,0,.5,.224,.5,.5Zm-8,0c0,.276-.224,.5-.5,.5h-2c-.276,0-.5-.224-.5-.5s.224-.5,.5-.5h2c.276,0,.5,.224,.5,.5Z"/>
</svg>
