<?xml version="1.0" encoding="UTF-8"?>
<svg xmlns="http://www.w3.org/2000/svg" id="Layer_1" data-name="Layer 1" viewBox="0 0 24 24">
  <path d="M3,17.5c0,1.378,1.122,2.5,2.5,2.5s2.5-1.122,2.5-2.5c0-.734-.323-1.388-.828-1.846l2.046-3.461c.467-.792,.334-1.815-.317-2.435-.903-.858-1.4-2.015-1.4-3.258,0-2.471,2.01-4.489,4.48-4.5h.017c1.153,0,2.302,.486,3.155,1.335,.856,.853,1.348,2.007,1.348,3.165,0,.688-.151,1.349-.45,1.963-.121,.249-.017,.548,.231,.668,.251,.12,.548,.017,.668-.231,.365-.751,.55-1.559,.55-2.4,0-1.443-.583-2.819-1.642-3.874-1.054-1.049-2.424-1.626-3.859-1.626h-.022c-3.02,.013-5.477,2.48-5.477,5.5,0,1.52,.608,2.935,1.711,3.983,.317,.301,.378,.807,.145,1.201l-2.046,3.462c-.255-.088-.525-.146-.81-.146-1.378,0-2.5,1.122-2.5,2.5Zm2.5-1.5c.828,0,1.5,.672,1.5,1.5s-.672,1.5-1.5,1.5-1.5-.672-1.5-1.5,.672-1.5,1.5-1.5Zm13,4c1.378,0,2.5-1.122,2.5-2.5s-1.122-2.5-2.5-2.5c-1.207,0-2.217,.86-2.449,2h-4.154c-.96,0-1.807,.643-2.015,1.529-.477,2.039-2.275,3.466-4.373,3.471h-.009c-2.381,0-4.441-2.007-4.499-4.387-.057-2.343,1.721-4.359,4.048-4.59,.275-.027,.476-.272,.448-.547-.027-.275-.276-.472-.547-.448C2.106,12.31-.068,14.774,.001,17.637c.071,2.91,2.588,5.363,5.5,5.363h.01c2.564-.005,4.761-1.75,5.344-4.243,.103-.439,.541-.757,1.041-.757h4.154c.232,1.14,1.242,2,2.449,2Zm0-4c.827,0,1.5,.673,1.5,1.5s-.673,1.5-1.5,1.5-1.5-.673-1.5-1.5,.673-1.5,1.5-1.5Zm4.27-1.968c-1.05-1.292-2.606-2.032-4.27-2.032-.56,0-1.111,.083-1.64,.249-.404,.128-.868-.063-1.101-.453l-2.075-3.46c.498-.457,.816-1.108,.816-1.836,0-1.378-1.122-2.5-2.5-2.5s-2.5,1.122-2.5,2.5,1.122,2.5,2.5,2.5c.291,0,.566-.06,.826-.151l2.076,3.462c.475,.792,1.404,1.161,2.256,.893,1.715-.535,3.686,.047,4.835,1.46,.859,1.057,1.189,2.446,.905,3.811-.364,1.745-1.792,3.131-3.554,3.45-1.708,.308-3.413-.351-4.444-1.723-.166-.221-.479-.265-.7-.1-.221,.166-.265,.479-.1,.7,1.055,1.404,2.683,2.198,4.409,2.198,.335,0,.674-.03,1.013-.091,2.159-.391,3.909-2.09,4.355-4.23,.346-1.661-.058-3.354-1.107-4.646Zm-10.77-6.032c-.828,0-1.5-.672-1.5-1.5s.672-1.5,1.5-1.5,1.5,.672,1.5,1.5-.672,1.5-1.5,1.5Z"/>
</svg>
