<svg id="Layer_1" viewBox="0 0 24 24" xmlns="http://www.w3.org/2000/svg" data-name="Layer 1"><path d="m20.45 16.769 2.211 2.744c.173.216.139.53-.076.703-.215.172-.53.14-.705-.076l-2.203-2.734c-.862.659-1.857 1.251-2.993 1.705l1.145 3.339c.09.262-.05.546-.311.635-.255.09-.548-.047-.637-.311l-1.142-3.332c-.983.302-2.061.492-3.237.536v3.521c0 .276-.224.5-.501.5s-.501-.224-.501-.5v-3.521c-1.177-.044-2.254-.234-3.237-.536l-1.142 3.332c-.088.263-.382.4-.637.311-.261-.089-.401-.373-.311-.635l1.145-3.34c-1.144-.458-2.146-1.056-3.013-1.721l-2.216 2.75c-.175.217-.49.248-.705.076-.215-.173-.25-.487-.076-.703l2.225-2.761c-1.305-1.159-2.254-2.421-2.88-3.416-.345-.544-.562-1.141-.646-1.771-.036-.273.157-.524.432-.562.265-.037.525.155.563.431.065.485.233.946.5 1.369 1.456 2.315 4.754 6.197 10.5 6.197s9.045-3.882 10.499-6.196c.27-.426.438-.886.501-1.369.036-.275.305-.468.562-.432.275.036.468.287.433.561-.083.629-.3 1.225-.645 1.771-.629 1-1.585 2.27-2.9 3.435zm-11.531-3.698c-1.811-1.806-.706-5.521.922-7.145 1.189-1.185 2.396-1.064 3.391-.572l5.532-4.87c.778-.678 1.958-.639 2.687.09.718.716.767 1.883.112 2.656l-4.806 5.764c.401.947.429 2.059-.673 3.158-1.033 1.03-2.912 1.851-4.609 1.851-.977 0-1.894-.272-2.555-.931zm5.197-7.161c.44.336.801.693 1.045.936.264.263.662.661 1.022 1.149l4.615-5.413c.32-.378.297-.95-.056-1.302-.356-.355-.935-.378-1.316-.045l-5.309 4.675zm-4.488 6.454c1.243 1.239 4.29.531 5.746-.92 1.071-1.069.813-2.16-.922-3.891-1.052-1.049-1.867-1.557-2.585-1.557-.468 0-.893.215-1.316.637-1.456 1.452-2.165 4.492-.922 5.731z"/></svg>