<svg id="Layer_1" viewBox="0 0 24 24" xmlns="http://www.w3.org/2000/svg" data-name="Layer 1"><path d="m22.12 13.81c-.179.21-.154.525.056.705.376.32.824.839.824 1.485 0 1.626-2.748 3-6 3s-6-1.374-6-3c0-1.061 1.23-2.09 3.135-2.624.266-.074.421-.351.347-.616s-.352-.42-.616-.347c-1.502.421-2.643 1.123-3.284 1.97-1.046.401-2.279.616-3.581.616-3.252 0-6-1.374-6-3v-1.92c1.213 1.158 3.419 1.92 6 1.92 1.764 0 3.443-.366 4.729-1.03.246-.127.341-.429.215-.674-.127-.245-.43-.343-.674-.215-1.146.593-2.663.919-4.271.919-3.252 0-6-1.374-6-3s2.748-3 6-3c1.19 0 2.344.181 3.337.522.26.089.545-.049.635-.31.09-.262-.049-.546-.31-.636-1.097-.378-2.363-.577-3.663-.577-3.924.002-6.999 1.759-6.999 4.002v8c0 2.243 3.075 4 7 4 1.045 0 2.067-.137 3-.385v.385c0 2.243 3.075 4 7 4s7-1.757 7-4v-4c0-.814-.407-1.591-1.176-2.247-.209-.178-.526-.153-.705.057zm-15.12 5.19c-3.252 0-6-1.374-6-3v-1.92c1.213 1.158 3.419 1.92 6 1.92 1.071 0 2.105-.136 3.047-.391-.021.13-.047.259-.047.391v2.578c-.914.273-1.943.422-3 .422zm10 4c-3.252 0-6-1.374-6-3v-1.92c1.213 1.158 3.419 1.92 6 1.92s4.787-.762 6-1.92v1.92c0 1.626-2.748 3-6 3zm5.134-21.821-3.477-1.154c-.102-.033-.213-.033-.314 0l-3.477 1.153c-1.116.369-1.866 1.407-1.866 2.584v2.767c.057 2.571 1.831 4.766 5.274 6.521.13.066.283.073.417.017 3.464-1.426 5.25-3.626 5.308-6.549v-2.756c0-1.176-.75-2.214-1.866-2.583zm.866 5.33c-.049 2.455-1.514 4.271-4.477 5.545-2.955-1.555-4.477-3.42-4.523-5.535v-2.756c0-.744.474-1.401 1.18-1.635l3.32-1.102 3.32 1.102c.706.233 1.18.89 1.18 1.634z"/></svg>