<svg id="Layer_1" viewBox="0 0 24 24" xmlns="http://www.w3.org/2000/svg" data-name="Layer 1"><path d="m24 11.5v5c0 1.93-1.57 3.5-3.5 3.5h-3.532l-3.985 3.295c-.275.245-.626.368-.979.368-.356 0-.715-.126-1.001-.379l-3.897-3.284h-3.606c-1.93 0-3.5-1.57-3.5-3.5v-13c0-1.93 1.57-3.5 3.5-3.5h9c.276 0 .5.224.5.5s-.224.5-.5.5h-9c-1.378 0-2.5 1.122-2.5 2.5v13c0 1.378 1.122 2.5 2.5 2.5h3.789c.118 0 .232.042.322.118l4.047 3.41c.198.175.485.178.675.008l4.137-3.421c.09-.074.203-.115.319-.115h3.711c1.378 0 2.5-1.122 2.5-2.5v-5c0-.276.224-.5.5-.5s.5.224.5.5zm-11-6c0-3.033 2.467-5.5 5.5-5.5s5.5 2.467 5.5 5.5-2.467 5.5-5.5 5.5-5.5-2.467-5.5-5.5zm1 0c0 2.481 2.019 4.5 4.5 4.5s4.5-2.019 4.5-4.5-2.019-4.5-4.5-4.5-4.5 2.019-4.5 4.5zm5.646 1.854c.195.195.512.195.707 0s.195-.512 0-.707l-1.354-1.354v-1.793c0-.276-.224-.5-.5-.5s-.5.224-.5.5v2c0 .133.053.26.146.354l1.5 1.5zm-7.646 2.646c-.552 0-1 .448-1 1s.448 1 1 1 1-.448 1-1-.448-1-1-1zm-5 1c0 .552.448 1 1 1s1-.448 1-1-.448-1-1-1-1 .448-1 1z"/></svg>