<svg id="Layer_1" viewBox="0 0 24 24" xmlns="http://www.w3.org/2000/svg" data-name="Layer 1"><path d="m12 23.5c0 .276-.224.5-.5.5h-2.869c-2.002 0-3.631-1.628-3.631-3.63v-7.778c0-1.209.599-2.334 1.601-3.01l5.869-3.96c1.232-.832 2.828-.832 4.061 0l5.869 3.96c.968.652 1.565 1.738 1.6 2.904.008.276-.209.506-.485.515-.277-.013-.507-.209-.515-.485-.024-.845-.458-1.631-1.158-2.104l-5.869-3.96c-.895-.604-2.049-.604-2.943 0l-5.869 3.96c-.726.489-1.159 1.305-1.159 2.181v7.778c0 1.45 1.181 2.63 2.631 2.63h2.869c.276 0 .5.224.5.5zm12-5.375c0 3.309-2.691 6-6 6s-6-2.691-6-6c0-2.284 1.164-3.965 2.141-4.973.29-.322.873-.089.859.348.002.675.215 1.5.462 1.5.402 0 .524-.271.799-1.347.228-.89.51-1.998 1.361-2.98.183-.215.53-.235.731-.026.383.383.884.802 1.413 1.246 1.886 1.58 4.233 3.545 4.233 6.233zm-6.388 4.961c.654.103 1.319-.055 1.802-.546.78-.78.779-2.049 0-2.83l-1.414-1.415-1.415 1.415c-.779.78-.779 2.05 0 2.831.291.291.65.472 1.027.546zm5.388-4.961c0-2.221-2.148-4.02-3.875-5.466-.377-.315-.739-.619-1.063-.912-.461.7-.655 1.465-.831 2.154-.264 1.032-.536 2.1-1.769 2.1-.708 0-1.116-.579-1.313-1.303-.616.86-1.148 2.014-1.148 3.428 0 1.736.891 3.265 2.238 4.162-.457-1.091-.246-2.398.64-3.284l1.769-1.768c.186-.194.521-.194.707 0l1.768 1.768c.886.887 1.098 2.194.641 3.284 1.347-.897 2.238-2.426 2.238-4.162zm-16.468-14.896c.098.789.22 1.771 1.468 1.771.716 0 1.126-.593 1.32-1.33.244.309.508.676.754 1.087.144.238.452.313.686.171.237-.142.314-.449.172-.686-.586-.977-1.261-1.729-1.61-2.09-.144-.147-.36-.193-.547-.116-.188.076-.312.26-.312.463 0 .675-.213 1.5-.462 1.5-.316 0-.364 0-.476-.894-.098-.792-.232-1.878-1.146-2.933-.181-.217-.534-.232-.731-.026-.383.383-.884.802-1.413 1.246-1.887 1.58-4.235 3.546-4.235 6.233 0 2.036 1.02 3.916 2.727 5.029.229.149.54.088.692-.146.15-.231.086-.541-.146-.692-1.424-.928-2.273-2.495-2.273-4.191 0-2.221 2.148-4.02 3.875-5.466.376-.314.737-.617 1.062-.91.436.686.52 1.367.596 1.98zm11.873 1.063c.545-.755 1.158-1.52 1.97-2.08.225.424.493.873.773 1.339.745 1.242 1.589 2.651 1.86 4.044.052.273.323.449.587.395.271-.053.448-.315.396-.586-.306-1.566-1.198-3.054-1.985-4.367-.378-.631-.735-1.228-.972-1.745-.111-.259-.452-.373-.694-.231-1.381.754-2.303 2.032-2.745 2.646-.162.224-.111.537.113.698.222.16.535.11.697-.113zm-14.747 18.734c-1.54-.516-2.658-2.156-2.658-3.901 0-1.015.283-1.779.636-2.358.093.411.249.825.511 1.087.195.195.512.195.707 0s.195-.512 0-.707c-.229-.229-.353-1.104-.354-1.647 0-.204-.124-.387-.312-.463-.19-.077-.405-.03-.547.115-1.104 1.14-1.641 2.439-1.641 3.973 0 2.162 1.405 4.201 3.342 4.849.254.087.546-.052.633-.315.087-.262-.054-.545-.316-.633z"/></svg>