<svg id="Layer_1" viewBox="0 0 24 24" xmlns="http://www.w3.org/2000/svg" data-name="Layer 1"><path d="m21.947 12.185c-.979-.706-2.397-.558-3.302.346l-1.762 1.762c-.074-.539-.31-1.039-.701-1.429-.582-.582-1.38-.809-2.138-.697.137-.779-.141-1.585-.698-2.14-.413-.413-.961-.635-1.525-.688l2.841-2.94c.903-.903 1.053-2.322.347-3.301-.855-1.252-2.777-1.408-3.819-.314l-6.04 6.217h-.649c-2.481 0-4.5 2.019-4.5 4.5v4.989c0 1.472.573 2.854 1.615 3.894 1.038 1.036 2.418 1.606 3.885 1.606h.012l4.859-.01c2.53-.006 4.909-.995 6.697-2.783l5.197-5.197c.521-.521.786-1.24.727-1.975-.06-.733-.439-1.404-1.045-1.84zm-7.536.945c.386 0 .771.147 1.064.44.585.56.585 1.569 0 2.13l-1.415 1.416-.003.003c-.588.589-1.542.587-2.13 0-.585-.56-.585-1.569 0-2.13l1.418-1.419c.294-.293.68-.44 1.065-.44zm-3.902-2.396c.588-.588 1.542-.586 2.13 0 .585.56.585 1.569 0 2.13l-1.418 1.419c-.588.586-1.543.586-2.131 0-.587-.588-.587-1.544 0-2.131zm1.393-7.248c.625-.654 1.784-.562 2.297.196.421.586.317 1.449-.249 2.016l-5.031 5.206c-.268-1.076-1.227-1.878-2.38-1.898l5.362-5.521zm9.657 11.807-5.197 5.197c-1.601 1.601-3.729 2.484-5.992 2.49l-4.859.01h-.01c-1.2 0-2.329-.467-3.179-1.314-.852-.851-1.321-1.981-1.321-3.186v-4.989c0-1.93 1.57-3.5 3.5-3.5h1.995c.83 0 1.505.676 1.505 1.506 0 .824-.67 1.494-1.494 1.494h-2.006c-.276 0-.5.224-.5.5s.224.5.5.5h2.006c.433 0 .834-.121 1.189-.316.09.478.319.935.688 1.305.583.575 1.37.826 2.139.697-.137.779.141 1.584.698 2.14.928.967 2.595.972 3.529.012.002-.002 4.602-4.601 4.602-4.601.56-.562 1.424-.664 2.011-.242.371.269.596.662.632 1.11.036.441-.123.874-.437 1.187zm2.296-11.651c-.212-.396-.622-.641-1.07-.641h-.683l.489-1.247c.338-.81-.326-1.778-1.204-1.753h-1.654c-.55 0-1.039.349-1.209.842l-1.471 3.575c-.253.759.377 1.606 1.177 1.583h.658l-.812 1.352c-.289.458-.192 1.041.229 1.388.527.409 1.227.335 1.774-.185l3.652-3.588c.316-.365.349-.907.124-1.326zm-.873.66-3.64 3.601c-.192.184-.513.138-.329-.169l1.188-1.975c.093-.154.096-.347.007-.504s-.255-.254-.436-.254h-1.542c-.186-.003-.293-.106-.236-.249l1.465-3.555c.04-.117.15-.196.274-.196h1.654c.138 0 .213.088.239.126.026.037.081.139.032.265l-.756 1.927c-.132.315.124.692.466.683h1.416c.216.004.333.134.197.301z"/></svg>