<svg id="Layer_1" viewBox="0 0 24 24" xmlns="http://www.w3.org/2000/svg" data-name="Layer 1"><path d="m0 2.5c0-.276.224-.5.5-.5h8c.276 0 .5.224.5.5s-.224.5-.5.5h-8c-.276 0-.5-.224-.5-.5zm.5 4.5h6c.276 0 .5-.224.5-.5s-.224-.5-.5-.5h-6c-.276 0-.5.224-.5.5s.224.5.5.5zm23.5 5.773v2.727c0 1.758-1.308 3.204-3 3.449v1.051c0 1.654-1.346 3-3 3s-3-1.346-3-3v-1h-6v1c0 1.654-1.346 3-3 3s-3-1.346-3-3v-1.148c-1.562-.408-3-1.701-3-3.352v-2c0-.276.224-.5.5-.5s.5.224.5.5v2c0 1.385 1.642 2.5 3 2.5h16.5c1.379 0 2.5-1.121 2.5-2.5v-2.727c0-.61-.102-1.204-.297-1.773h-15.203c-.276 0-.5-.224-.5-.5s.224-.5.5-.5h6.5v-7h-2.5c-.276 0-.5-.224-.5-.5s.224-.5.5-.5h5.4c1.777 0 3.392 1.049 4.112 2.672l2.427 5.462c.372.834.561 1.723.561 2.64zm-1.715-2.773-2.187-4.922c-.561-1.263-1.816-2.078-3.198-2.078h-1.9v7zm-14.285 9h-4v1c0 1.103.897 2 2 2s2-.897 2-2zm12 0h-4v1c0 1.103.897 2 2 2s2-.897 2-2zm-19.5-8h4c.276 0 .5-.224.5-.5s-.224-.5-.5-.5h-4c-.276 0-.5.224-.5.5s.224.5.5.5z"/></svg>