<svg id="Layer_1" viewBox="0 0 24 24" xmlns="http://www.w3.org/2000/svg" data-name="Layer 1"><path d="m24 2.5v17c0 2.481-2.019 4.5-4.5 4.5h-15c-2.481 0-4.5-2.019-4.5-4.5v-17c0-.276.224-.5.5-.5s.5.224.5.5c0 1.378 1.121 2.5 2.5 2.5h3.5c0 .343.035.677.101 1h-3.601c-.98 0-1.864-.407-2.5-1.058v14.558c0 1.93 1.57 3.5 3.5 3.5h15c1.93 0 3.5-1.57 3.5-3.5v-14.558c-.636.651-1.52 1.058-2.5 1.058h-3.601c.066-.323.101-.657.101-1h3.5c1.379 0 2.5-1.122 2.5-2.5 0-.276.224-.5.5-.5s.5.224.5.5zm-15 2.5c0-1.483 1.084-2.71 2.5-2.949v-1.551c0-.276.224-.5.5-.5s.5.224.5.5v1.551c1.416.24 2.5 1.466 2.5 2.949 0 .835-.344 1.59-.896 2.134l2.55 5.866h1.846c.276 0 .5.224.5.5s-.224.5-.5.5h-1.411l1.87 4.301c.109.253-.007.548-.26.658-.247.109-.548-.003-.658-.259l-2.043-4.699h-7.996l-2.043 4.699c-.111.256-.411.368-.658.259-.253-.11-.369-.405-.26-.658l1.87-4.301h-1.411c-.276 0-.5-.224-.5-.5s.224-.5.5-.5h1.846l2.55-5.866c-.552-.544-.896-1.299-.896-2.134zm4.264 2.711c-.385.18-.811.289-1.264.289s-.878-.108-1.264-.289l-2.299 5.289h7.126zm-3.264-2.711c0 1.103.897 2 2 2s2-.897 2-2-.897-2-2-2-2 .897-2 2z"/></svg>