<svg id="Layer_1" viewBox="0 0 24 24" xmlns="http://www.w3.org/2000/svg" data-name="Layer 1"><path d="m9.5 7c1.378 0 2.5-1.122 2.5-2.5s-1.122-2.5-2.5-2.5-2.5 1.122-2.5 2.5 1.122 2.5 2.5 2.5zm0-4c.827 0 1.5.673 1.5 1.5s-.673 1.5-1.5 1.5-1.5-.673-1.5-1.5.673-1.5 1.5-1.5zm12.5-3h-2.148c-1.23 0-2.269.881-2.467 2.096 0 0-.766 4.783-.765 4.817-.415.6-.62 1.124-.62 1.587 0 1.335 1.557 1.553 2.931 1.745.922.129 2.069.29 2.069.755 0 .374-.52 1-4 1-.276 0-.5.224-.5.5s.224.5.5.5c1.496 0 5 0 5-2 0-1.335-1.557-1.553-2.931-1.745-.922-.129-2.069-.29-2.069-.755 0-.173.085-.54.555-1.173l4.349-.712c1.214-.199 2.096-1.237 2.096-2.467v-2.148c0-1.103-.897-2-2-2zm1 4.148c0 .738-.529 1.361-1.258 1.48l-4.011.647.64-4.018c.119-.729.742-1.257 1.48-1.257h2.148c.552 0 1 .449 1 1v2.148zm-17.525 14.01-.202.605c-.247.739-.937 1.236-1.716 1.236h-3.057c-.276 0-.5-.224-.5-.5s.224-.5.5-.5h3.057c.349 0 .657-.222.767-.553l.201-.605c.087-.262.369-.402.633-.316.262.087.403.371.316.633zm9.025-6.158h-1.716c-.317 0-.619-.153-.807-.409l-2.006-2.737c-.461-.527-1.208-.854-1.948-.854h-.359c-1.019 0-1.927.609-2.323 1.58l-1.153 3.384c-.461 1.125-.051 2.412.996 3.073l4.076 2.32c.47.267.76.77.758 1.311l-.018 3.831c-.002.277.223.502.5.502.275 0 .499-.222.5-.498l.018-3.831c.004-.902-.48-1.739-1.263-2.185l-2.16-1.229 2.085-6.113 1.491 2.036c.375.513.979.818 1.614.818h1.716c.276 0 .5-.224.5-.5s-.224-.5-.5-.5zm-7.791 3.755-1.011-.575c-.616-.389-.862-1.162-.575-1.865l1.154-3.384c.231-.565.776-.931 1.387-.931h.359c.322 0 .648.104.901.263z"/></svg>