<svg id="Layer_1" viewBox="0 0 24 24" xmlns="http://www.w3.org/2000/svg" data-name="Layer 1"><path d="m24 13.5v6c0 2.481-2.019 4.5-4.5 4.5h-15c-2.481 0-4.5-2.019-4.5-4.5v-12c0-2.481 2.019-4.5 4.5-4.5h5c.276 0 .5.224.5.5s-.224.5-.5.5h-5c-1.611 0-2.958 1.101-3.363 2.586l8.389 8.389c1.322 1.322 3.627 1.322 4.949 0l2.36-2.331c.196-.194.513-.192.707.005.194.196.192.513-.004.707l-2.358 2.329c-.848.848-1.978 1.315-3.18 1.315s-2.332-.468-3.182-1.318l-7.818-7.819v11.637c0 1.93 1.57 3.5 3.5 3.5h15c1.93 0 3.5-1.57 3.5-3.5v-6c0-.276.224-.5.5-.5s.5.224.5.5zm-11.492-7.669c-.459-.389-.625-1.02-.42-1.575.202-.555.737-.928 1.329-.928h2.398l.854-2.399c.208-.558.741-.929 1.33-.929s1.122.371 1.328.922l.856 2.406h2.398c.593 0 1.128.375 1.331.931s.035 1.187-.418 1.569l-1.903 1.55.781 2.227c.191.58 0 1.209-.477 1.576-.479.365-1.135.391-1.639.065l-2.248-1.464-2.208 1.478c-.484.333-1.17.314-1.637-.044-.479-.358-.682-.985-.503-1.558l.757-2.272-1.912-1.556zm.638-.769 2.172 1.767c.161.131.225.348.159.545l-.862 2.591c-.051.161.009.345.15.451.139.105.338.108.48.014l2.482-1.662c.166-.111.383-.112.551-.003l2.524 1.644c.148.096.342.088.484-.02.139-.107.195-.292.14-.46l-.895-2.55c-.07-.199-.008-.42.156-.553l2.169-1.767c.126-.107.176-.293.116-.457s-.217-.274-.392-.274h-2.751c-.212 0-.4-.133-.471-.332l-.973-2.731c-.117-.312-.658-.318-.779.007l-.971 2.725c-.07.199-.259.332-.471.332h-2.751c-.174 0-.331.109-.391.272-.061.164-.012.349.12.461z"/></svg>