<svg id="Layer_1" viewBox="0 0 24 24" xmlns="http://www.w3.org/2000/svg" data-name="Layer 1"><path d="m19.536 13.062c-.244-.135-.546-.044-.679.198-1.58 2.88-4.271 4.74-6.856 4.74-4.309 0-8-4.845-8-8.811 0-1.794 1.34-5.19 6.411-5.202.276 0 .5-.225.499-.501s-.225-.499-.5-.499c-3.243.008-5.246 1.331-6.34 2.923-.619-.189-1.069-.741-1.069-1.41v-3c0-.827-.673-1.5-1.5-1.5s-1.502.673-1.502 1.5v3c0 1.932 1.229 3.611 3.022 4.235-.014.155-.022.307-.022.454 0 3.951 3.328 8.674 7.5 9.627v3.684c0 .827.673 1.5 1.5 1.5s1.5-.673 1.5-1.5v-3.695c2.437-.56 4.778-2.413 6.233-5.065.133-.242.044-.546-.198-.679zm-18.536-8.562v-3c0-.275.224-.5.5-.5s.5.225.5.5v3c0 1.038.638 1.929 1.556 2.305-.145.313-.264.628-.35.939-1.317-.522-2.206-1.793-2.206-3.244zm11.5 18c0 .275-.224.5-.5.5s-.5-.225-.5-.5v-3.534c.167.013.332.034.5.034.166 0 .333-.03.5-.043z"/><path d="m21.949 6h1.551c.276 0 .5-.224.5-.5s-.224-.5-.5-.5h-1.551c-.086-.59-.314-1.129-.656-1.586l.564-.564c.196.094.412.15.643.15.827 0 1.5-.673 1.5-1.5s-.673-1.5-1.5-1.5-1.5.673-1.5 1.5c0 .231.057.447.15.643l-.564.564c-.457-.342-.996-.571-1.586-.656v-1.551c0-.276-.224-.5-.5-.5s-.5.224-.5.5v1.551c-.59.086-1.13.314-1.586.656l-.564-.564c.094-.196.15-.412.15-.643 0-.827-.673-1.5-1.5-1.5s-1.5.673-1.5 1.5.673 1.5 1.5 1.5c.231 0 .447-.057.642-.15l.564.564c-.342.457-.571.996-.656 1.586h-1.551c-.276 0-.5.224-.5.5s.224.5.5.5h1.551c.086.59.314 1.129.656 1.586l-.564.564c-.195-.094-.412-.15-.642-.15-.827 0-1.5.673-1.5 1.5s.673 1.5 1.5 1.5 1.5-.673 1.5-1.5c0-.231-.057-.447-.15-.643l.564-.564c.457.342.996.571 1.586.656v1.551c0 .276.224.5.5.5s.5-.224.5-.5v-1.551c.59-.086 1.129-.314 1.586-.656l.564.564c-.094.196-.15.412-.15.643 0 .827.673 1.5 1.5 1.5s1.5-.673 1.5-1.5-.673-1.5-1.5-1.5c-.231 0-.447.057-.643.15l-.564-.564c.342-.457.571-.996.656-1.586zm-3.449 2c-1.378 0-2.5-1.121-2.5-2.5s1.122-2.5 2.5-2.5 2.5 1.121 2.5 2.5-1.122 2.5-2.5 2.5zm4-7c.276 0 .5.225.5.5s-.224.5-.5.5-.5-.225-.5-.5.224-.5.5-.5zm-8.5.5c0-.275.224-.5.5-.5s.5.225.5.5-.224.5-.5.5-.5-.225-.5-.5zm.5 8.5c-.276 0-.5-.225-.5-.5s.224-.5.5-.5.5.225.5.5-.224.5-.5.5zm8.5-.5c0 .275-.224.5-.5.5s-.5-.225-.5-.5.224-.5.5-.5.5.225.5.5z"/></svg>