<?xml version="1.0" encoding="UTF-8"?>
<svg xmlns="http://www.w3.org/2000/svg" id="Layer_1" data-name="Layer 1" viewBox="0 0 24 24">
  <path d="M24,5.5v5c0,.827-.673,1.5-1.5,1.5h-.5v1.5c0,.276-.224,.5-.5,.5s-.5-.224-.5-.5v-2c0-.276,.224-.5,.5-.5h1c.276,0,.5-.224,.5-.5V5.5c0-.276-.224-.5-.5-.5h-1c-.276,0-.5-.224-.5-.5,0-1.93-1.57-3.5-3.5-3.5H4.5c-1.93,0-3.5,1.57-3.5,3.5V13.5c0,.276-.224,.5-.5,.5s-.5-.224-.5-.5V4.5C0,2.019,2.019,0,4.5,0h13c2.312,0,4.223,1.753,4.472,4h.528c.827,0,1.5,.673,1.5,1.5Zm-6.5,7.5H4.5c-.827,0-1.5-.673-1.5-1.5V4.5c0-.827,.673-1.5,1.5-1.5h13c.827,0,1.5,.673,1.5,1.5v7c0,.827-.673,1.5-1.5,1.5Zm-13-1h13c.276,0,.5-.224,.5-.5V4.5c0-.276-.224-.5-.5-.5H4.5c-.276,0-.5,.224-.5,.5v7c0,.276,.224,.5,.5,.5Zm5.5,6.5v3c0,1.378-1.122,2.5-2.5,2.5s-2.5-1.122-2.5-2.5v-3c0-1.378,1.122-2.5,2.5-2.5s2.5,1.122,2.5,2.5Zm-1,0c0-.827-.673-1.5-1.5-1.5s-1.5,.673-1.5,1.5v3c0,.827,.673,1.5,1.5,1.5s1.5-.673,1.5-1.5v-3Zm7,0v3c0,1.378-1.122,2.5-2.5,2.5s-2.5-1.122-2.5-2.5v-3c0-1.378,1.122-2.5,2.5-2.5s2.5,1.122,2.5,2.5Zm-1,0c0-.827-.673-1.5-1.5-1.5s-1.5,.673-1.5,1.5v3c0,.827,.673,1.5,1.5,1.5s1.5-.673,1.5-1.5v-3Zm7.01,3.5c-.547,0-.99,.443-.99,.99s.443,.99,.99,.99,.99-.443,.99-.99-.443-.99-.99-.99Zm-3.99-6.019c-.552,0-1,.452-1,1.01s.448,1.01,1,1.01,1-.452,1-1.01-.448-1.01-1-1.01Zm-14.555,.086c-.323-.136-.695-.061-.996,.248l-1.373,1.892c-.162,.224-.112,.536,.111,.699,.223,.162,.536,.111,.699-.111l1.095-1.518v6.224c0,.276,.224,.5,.5,.5s.5-.224,.5-.5v-6.632c0-.352-.21-.667-.536-.801Zm19.326,.026c-.224-.16-.536-.108-.697,.116l-5,7c-.384,.522,.443,1.115,.813,.581l5-7c.161-.225,.108-.537-.116-.697Z"/>
</svg>
