<?xml version="1.0" encoding="UTF-8"?>
<svg xmlns="http://www.w3.org/2000/svg" id="Layer_1" data-name="Layer 1" viewBox="0 0 24 24">
  <path d="M10,10c0,.552-.448,1-1,1s-1-.448-1-1,.448-1,1-1,1,.448,1,1ZM19,2c.552,0,1-.448,1-1s-.448-1-1-1-1,.448-1,1,.448,1,1,1Zm3,5c.552,0,1-.448,1-1s-.448-1-1-1-1,.448-1,1,.448,1,1,1Zm-13,7c-.552,0-1,.448-1,1s.448,1,1,1,1-.448,1-1-.448-1-1-1Zm5,0c-.552,0-1,.448-1,1s.448,1,1,1,1-.448,1-1-.448-1-1-1Zm10-2c0,6.617-5.383,12-12,12S0,18.617,0,12,5.383,0,12,0c.841,0,1.9,.322,2.175,1.856,.775,4.015,3.954,7.194,7.92,7.959,1.584,.287,1.905,1.346,1.905,2.185Zm-1,0c0-.927-.532-1.101-1.031-1.19-4.426-.854-7.924-4.352-8.768-8.715-.101-.562-.273-1.095-1.201-1.095C5.935,1,1,5.935,1,12s4.935,11,11,11,11-4.935,11-11Z"/>
</svg>
