<?xml version="1.0" encoding="UTF-8"?>
<svg xmlns="http://www.w3.org/2000/svg" id="Layer_1" data-name="Layer 1" viewBox="0 0 24 24">
  <path d="m12,0C5.383,0,0,5.383,0,12s5.383,12,12,12,12-5.383,12-12S18.617,0,12,0Zm0,23c-6.065,0-11-4.935-11-11S5.935,1,12,1s11,4.935,11,11-4.935,11-11,11Zm0-19c-4.411,0-8,3.589-8,8s3.589,8,8,8,8-3.589,8-8-3.589-8-8-8Zm0,15c-3.859,0-7-3.141-7-7s3.141-7,7-7,7,3.141,7,7-3.141,7-7,7Zm2.798-9.308c.259.434.271.957.031,1.402l-2.894,5.15c-.092.163-.261.255-.436.255-.083,0-.167-.021-.245-.064-.24-.135-.326-.439-.19-.681l2.889-5.143c.098-.182.022-.346-.015-.407-.036-.062-.146-.205-.36-.205h-3.578c-.276,0-.5-.224-.5-.5s.224-.5.5-.5h3.578c.505,0,.96.259,1.22.692Z"/>
</svg>
