<?xml version="1.0" encoding="UTF-8"?>
<svg xmlns="http://www.w3.org/2000/svg" id="Layer_1" data-name="Layer 1" viewBox="0 0 24 24">
  <path d="M9,13c0,1.654,1.346,3,3,3s3-1.346,3-3-1.346-3-3-3-3,1.346-3,3Zm3-2c1.103,0,2,.897,2,2s-.897,2-2,2-2-.897-2-2,.897-2,2-2Zm10-1.5v5.539c0,.763-.342,1.475-.938,1.952l-4.062,3.25v3.26c0,.276-.224,.5-.5,.5s-.5-.224-.5-.5v-3.5c0-.152,.069-.295,.188-.391l3.614-2.891-2.937,1.175c-.18,.071-.366,.107-.557,.107H7.692c-.19,0-.377-.036-.556-.106l-2.94-1.176,3.615,2.892c.119,.095,.188,.239,.188,.391v3.5c0,.276-.224,.5-.5,.5s-.5-.224-.5-.5v-3.26l-4.062-3.249c-.596-.478-.938-1.189-.938-1.953v-5.539c0-.276,.224-.5,.5-.5s.5,.224,.5,.5v5.539c0,.044,.011,.086,.014,.129l4.492,1.797c.059,.023,.122,.036,.186,.036h8.615c.063,0,.126-.012,.187-.036l4.491-1.797c.004-.043,.014-.085,.014-.129v-5.539c0-.276,.224-.5,.5-.5s.5,.224,.5,.5ZM4.581,6.415c.321,.646,1.271,.787,1.761,.261l.929-.929,.772,1.671c.48,1.038,2.143,.516,1.947-.611l-.728-4.901c-.122-.853-1.267-1.211-1.856-.584l-.905,.905-.682-1.582c-.313-.694-1.314-.866-1.836-.31l-.978,.978c-.385,.385-.481,.972-.239,1.461l1.816,3.641Zm-.87-4.395l.979-.978c.083-.069,.161-.053,.22,.019l.965,2.239c.126,.319,.58,.405,.812,.156l1.523-1.451c.034,.01,.056,.032,.065,.065l.669,4.916-1.066-2.309c-.134-.31-.574-.39-.808-.144l-1.436,1.436-.166-.013-1.809-3.627c-.051-.103-.031-.227,.051-.309ZM15.032,7.991c.394,0,.752-.222,.932-.586l.766-1.658,.929,.929c.508,.528,1.439,.386,1.768-.274l1.811-3.629c.241-.487,.146-1.074-.239-1.46l-.979-.978c-.536-.556-1.524-.389-1.846,.33l-.673,1.562-.905-.905c-.286-.286-.703-.391-1.092-.275-.389,.117-.679,.436-.76,.833-.002,.008-.003,.017-.004,.026l-.728,4.9c-.106,.604,.412,1.199,1.021,1.185Zm.693-5.919c.01-.034,.038-.055,.162-.042l1.426,1.426c.234,.249,.687,.163,.812-.156l.956-2.218c.066-.098,.138-.11,.229-.04l.978,.978c.082,.082,.103,.206,.052,.308l-1.81,3.628-.166,.013-1.436-1.436c-.23-.246-.676-.166-.808,.144l-1.122,2.277,.726-4.882Z"/>
</svg>
