<?xml version="1.0" encoding="UTF-8"?>
<svg xmlns="http://www.w3.org/2000/svg" id="Layer_1" data-name="Layer 1" viewBox="0 0 24 24">
  <path d="m23.982,10.282c.059.733-.205,1.451-.724,1.97l-3.416,4.05c-.096.091-.219.136-.342.136-.133,0-.266-.053-.364-.157-.189-.201-.179-.518.022-.707l3.363-3.996c.341-.344.5-.775.464-1.215-.036-.446-.259-.839-.63-1.105-.583-.421-1.443-.315-2.001.242l-.463.584c-.132.167-.355.231-.556.16-.2-.07-.334-.259-.334-.472v-5.771c0-.551-.449-1-1-1s-1,.449-1,1v3.5c0,.276-.224.5-.5.5s-.5-.224-.5-.5V2c0-.551-.449-1-1-1s-1,.449-1,1v3.5c0,.276-.224.5-.5.5s-.5-.224-.5-.5v-2.5c0-.551-.449-1-1-1s-1,.449-1,1v1.5c0,.276-.224.5-.5.5-.014,0-.026-.007-.039-.008-.015.001.055.008.039.008-.206,0-.484-.128-.557-.333-.141-.398-.521-.667-.943-.667s-.802.268-.943.667c-.092.261-.379.397-.638.305-.261-.092-.397-.377-.305-.638.282-.798,1.04-1.333,1.886-1.333.363,0,.7.115,1,.29v-.29c0-1.103.897-2,2-2,.415,0,.8.127,1.12.344.273-.78,1.008-1.344,1.88-1.344,1.103,0,2,.897,2,2v.278c.295-.172.634-.278,1-.278,1.103,0,2,.897,2,2v4.504c.911-.637,2.091-.67,2.939-.059.604.435.983,1.104,1.042,1.836Zm-6.982.718v6.5c0,3.645-2.855,6.5-6.5,6.5h-1.798c-1.812,0-3.517-.665-4.675-1.825l-3.314-3.956c-.489-.486-.753-1.204-.694-1.937s.439-1.401,1.042-1.836c.857-.619,2.05-.579,2.94.048v-4.494c0-1.103.897-2,2-2,.366,0,.705.106,1,.278v-.278c0-1.103.897-2,2-2,.872,0,1.607.564,1.88,1.344.32-.217.705-.344,1.12-.344,1.103,0,2,.897,2,2v.278c.295-.172.634-.278,1-.278,1.103,0,2,.897,2,2Zm-1,0c0-.551-.449-1-1-1s-1,.449-1,1v4.5c0,.276-.224.5-.5.5s-.5-.224-.5-.5v-6.5c0-.551-.449-1-1-1s-1,.449-1,1v6.5c0,.276-.224.5-.5.5s-.5-.224-.5-.5v-7.5c0-.551-.449-1-1-1s-1,.449-1,1v7.5c0,.276-.224.5-.5.5s-.5-.224-.5-.5v-5.5c0-.551-.449-1-1-1s-1,.449-1,1v5.771c0,.212-.134.401-.334.472-.201.071-.423.007-.556-.159l-.5-.625c-.521-.518-1.382-.62-1.964-.201-.371.268-.594.66-.63,1.105-.036.439.123.87.434,1.182l3.314,3.956c.943.941,2.39,1.5,3.938,1.5h1.798c3.084,0,5.5-2.416,5.5-5.5v-6.5Z"/>
</svg>
