<svg id="Layer_1" viewBox="0 0 24 24" xmlns="http://www.w3.org/2000/svg" data-name="Layer 1"><path d="m22.708 15.003c-.21-.6-.779-1.003-1.415-1.003h-3.292v-1.5c0-.276-.224-.5-.5-.5s-.5.224-.5.5v1.5h-3.279c-.646 0-1.218.412-1.423 1.025 0 0-1.298 3.921-1.298 3.975 0 1.103.897 2 2 2s2-.897 2-2c0-.122 0-.324-1.293-4h3.293v8h-2.5c-.276 0-.5.224-.5.5s.224.5.5.5h6c.276 0 .5-.224.5-.5s-.224-.5-.5-.5h-2.5v-8h3.292.019s-1.312 3.945-1.312 4c0 1.103.897 2 2 2s2-.897 2-2c0-.122 0-.324-1.292-3.997zm-8.708 3.997h-1.973l.986-2.957c.684 1.963.964 2.844.987 2.957zm8.015-2.95c.685 1.962.962 2.84.985 2.95h-1.973zm-11.515-5.05h-6c-.276 0-.5-.224-.5-.5s.224-.5.5-.5h6c.276 0 .5.224.5.5s-.224.5-.5.5zm0 12h-6c-1.93 0-3.5-1.57-3.5-3.5v-15c0-1.93 1.57-3.5 3.5-3.5h5.515c.335 0 .663.038.985.096v5.404c0 1.378 1.122 2.5 2.5 2.5 0 0 5.842.01 5.938-.016.268-.068.429-.341.36-.608-.289-1.13-.877-2.163-1.702-2.987l-3.485-3.485c-1.228-1.228-2.86-1.904-4.596-1.904h-5.515c-2.481 0-4.5 2.019-4.5 4.5v15c0 2.481 2.019 4.5 4.5 4.5h6c.276 0 .5-.224.5-.5s-.224-.5-.5-.5zm6.889-16.904c.542.542.959 1.193 1.235 1.904h-5.124c-.827 0-1.5-.673-1.5-1.5v-5.121c.704.273 1.354.682 1.904 1.231l3.485 3.485zm-7.889 8.904h-5c-.276 0-.5-.224-.5-.5s.224-.5.5-.5h5c.276 0 .5.224.5.5s-.224.5-.5.5zm-1 3c.276 0 .5.224.5.5s-.224.5-.5.5h-4c-.276 0-.5-.224-.5-.5s.224-.5.5-.5z"/></svg>