<?xml version="1.0" encoding="UTF-8"?>
<svg xmlns="http://www.w3.org/2000/svg" id="Layer_1" data-name="Layer 1" viewBox="0 0 24 24">
  <path d="m7.5,11c2.481,0,4.5-2.019,4.5-4.5s-2.019-4.5-4.5-4.5S3,4.019,3,6.5s2.019,4.5,4.5,4.5Zm0-8c1.93,0,3.5,1.57,3.5,3.5s-1.57,3.5-3.5,3.5-3.5-1.57-3.5-3.5,1.57-3.5,3.5-3.5Zm5.042,13.3c.304.695.458,1.436.458,2.2v5c0,.276-.224.5-.5.5s-.5-.224-.5-.5v-5c0-.626-.126-1.231-.374-1.8-.11-.253.005-.548.258-.658.253-.109.548.004.658.258ZM23.222,3.5c0-1.356-1.34-2.41-2.272-3.155-.093-.074-.203-.109-.311-.109-.189,0-.372.106-.45.298-.453,1.117.362,2.467-.689,2.467-.326,0-.476-.583-.5-1.021-.008-.152-.133-.246-.262-.246-.071,0-.143.029-.198.092-.329.379-.763.972-.763,1.675,0,1.071.645,1.879,1.016,2.258l.65,5.306c.015.126.055.243.11.35l-2.643,1.322c-.346.173-.732.264-1.118.264H7.5c-3.032,0-5.5,2.467-5.5,5.5v5c0,.276.224.5.5.5s.5-.224.5-.5v-5c0-2.481,2.019-4.5,4.5-4.5h8.292c.54,0,1.082-.128,1.565-.37l3.331-1.665c.45-.083.812-.433.869-.901l.643-5.254c.346-.356,1.022-1.194,1.022-2.31Zm-3.722.5c.597,0,.957-.248,1.153-.457.469-.497.431-1.152.401-1.678-.003-.048-.006-.097-.008-.146.611.535,1.176,1.158,1.176,1.781,0,.663-.381,1.209-.634,1.5h-2.138c-.225-.244-.552-.677-.646-1.207.203.135.438.207.696.207Zm1.064,6.943s-.08,0-.113,0c-.01,0-.016,0-.016,0l-.604-4.943h1.338l-.604,4.943Z"/>
</svg>
