<?xml version="1.0" encoding="UTF-8"?>
<svg xmlns="http://www.w3.org/2000/svg" id="Layer_1" data-name="Layer 1" viewBox="0 0 24 24">
  <path d="M22.926,12.736c-.093-.021-.196-.04-.296-.06,.466-.35,.873-.803,1.087-1.356,.608-1.57,.433-3.521,.178-4.88-.079-.422-.359-.778-.75-.952-.362-.16-.771-.138-1.121,.04,.171-.635,.155-1.3-.185-1.946-.784-1.488-2.308-2.656-3.448-3.375-.799-.531-1.914,.016-2.071,.95-.252,1.267-.55,4.382,1.668,7.293,.943,7.48-2.896,11.568-5.844,12.012-2.96-.445-6.817-4.535-5.873-12.015,1.622-2.093,2.206-4.593,1.669-7.289-.158-.934-1.27-1.482-2.071-.95-1.141,.718-2.665,1.887-3.448,3.375-.34,.646-.356,1.311-.185,1.946-.351-.178-.762-.199-1.121-.04-.391,.173-.672,.529-.751,.951-.254,1.36-.431,3.311,.178,4.881,.21,.541,.607,.986,1.064,1.334-.138,.026-.275,.052-.401,.081-.911,.181-1.482,1.227-1.062,2.065,.482,1.017,1.349,2.341,2.818,3.234-.111,.086-.219,.171-.317,.254-.739,.592-.691,1.828,.104,2.346,.788,.546,1.978,1.182,3.381,1.332-.018,.042-.045,.094-.062,.135-.156,.382-.128,.808,.077,1.168,.433,.817,1.551,.732,2.31,.771,1.639,0,2.88-.546,3.675-1.595,.647,.854,1.755,1.595,3.675,1.595,.736-.038,1.889,.045,2.314-.771,.205-.36,.232-.786,.077-1.168-.017-.041-.044-.093-.062-.135,1.403-.15,2.593-.786,3.381-1.331,.795-.519,.842-1.755,.104-2.347-.116-.099-.242-.2-.376-.302,1.426-.893,2.275-2.188,2.748-3.187,.188-.394,.186-.845-.006-1.239-.203-.418-.588-.72-1.057-.826Zm-.187-6.333c.054,.023,.146,.084,.173,.221,.188,1.009,.424,2.914-.127,4.335-.292,.773-1.224,1.276-1.981,1.542-.577,.007-1.185,.082-1.79,.254,.081-.654,.117-1.348,.114-2.075,.005-.012,.015-.021,.019-.034,.742-2.268,2.205-3.547,3.302-4.221,.129-.078,.247-.041,.29-.021ZM17.299,1.353c.049-.26,.314-.451,.558-.299,.85,.534,2.381,1.634,3.097,2.994,.756,1.436-1.166,3.311-1.994,4.026-2.169-2.655-1.892-5.56-1.66-6.721ZM3.303,4.048c.716-1.359,2.248-2.459,3.096-2.994,.244-.152,.509,.038,.558,.299,.505,2.539-.052,4.798-1.658,6.723-.826-.713-2.752-2.591-1.996-4.028Zm-1.959,2.576c.089-.245,.211-.302,.463-.2,1.104,.633,2.547,2.044,3.323,4.194-.005,.764,.033,1.491,.12,2.175-.627-.195-1.258-.279-1.859-.291-.678-.311-1.614-.729-1.92-1.543-.551-1.421-.316-3.326-.127-4.335Zm-.302,7.748c-.136-.331,.081-.581,.381-.661,1.052-.24,2.6-.396,4.007,.209,.002,0,.004,0,.006,.001,.204,.975,.502,1.851,.866,2.638-.919,.129-1.729,.456-2.406,.844-1.515-.752-2.389-2.052-2.854-3.032Zm2.271,5.441c-.295-.237-.249-.546-.025-.761,.771-.655,1.998-1.432,3.515-1.533,.357,.604,.753,1.142,1.18,1.609-.59,.638-1.038,1.278-1.368,1.866-1.357-.036-2.54-.655-3.3-1.181Zm3.94,3.132c-.254-.079-.326-.206-.263-.464,.285-.698,.821-1.691,1.704-2.652,.939,.814,1.959,1.324,2.932,1.544-.701,1.375-2.17,1.905-4.372,1.573Zm9.993-.168c-.03,.054-.103,.147-.243,.168-2.205,.334-3.667-.197-4.369-1.568,.975-.215,1.997-.723,2.938-1.539,.876,.957,1.411,1.946,1.695,2.642,.039,.097,.031,.205-.021,.296Zm3.697-2.963c-.761,.526-1.944,1.145-3.301,1.18-.329-.586-.775-1.223-1.36-1.858,.428-.469,.825-1.011,1.183-1.619,.985,.068,1.843,.419,2.534,.838,.009,.006,.018,.012,.027,.017,.362,.221,.681,.458,.942,.68,.224,.217,.27,.524-.025,.762Zm2.142-5.441c-.458,.966-1.314,2.241-2.789,2.998-.661-.371-1.447-.68-2.336-.806,.369-.802,.672-1.695,.876-2.693,1.371-.539,2.85-.391,3.869-.16,.17,.039,.308,.144,.378,.288,.041,.085,.075,.219,.002,.373Zm-11.085-4.372c1.103,0,2-.897,2-2s-.897-2-2-2-2,.897-2,2,.897,2,2,2Zm0-3c.551,0,1,.449,1,1s-.449,1-1,1-1-.449-1-1,.449-1,1-1Zm-3.5,7.5c0-1.93,1.57-3.5,3.5-3.5s3.5,1.57,3.5,3.5c0,.276-.224,.5-.5,.5s-.5-.224-.5-.5c0-1.378-1.121-2.5-2.5-2.5s-2.5,1.122-2.5,2.5c0,.276-.224,.5-.5,.5s-.5-.224-.5-.5Z"/>
</svg>
