<svg id="Layer_1" viewBox="0 0 24 24" xmlns="http://www.w3.org/2000/svg" data-name="Layer 1"><path d="m23.994 12.784c-.101 2.691-1.737 5.14-4.274 6.392-.247.123-.547.021-.67-.227-.122-.248-.021-.547.227-.669 2.207-1.089 3.631-3.21 3.717-5.533.116-3.131-2.015-5.9-5.066-6.584-.735-.164-1.347-.636-1.677-1.294-1.413-2.819-4.464-4.325-7.598-3.744-2.738.508-4.952 2.691-5.508 5.434-.167.819-.191 1.644-.074 2.452.13.892-.119 1.714-.685 2.254-1.127 1.078-1.609 2.647-1.288 4.196.356 1.724 1.761 3.11 3.496 3.451.271.053.448.316.395.587-.052.273-.322.448-.587.395-2.125-.417-3.846-2.117-4.283-4.23-.391-1.89.198-3.804 1.577-5.122.329-.314.469-.819.387-1.387-.135-.923-.107-1.863.083-2.796.636-3.137 3.171-5.636 6.305-6.218 3.576-.663 7.061 1.057 8.675 4.279.194.389.56.668 1.001.767 3.522.79 5.981 3.985 5.847 7.597zm-6.995-1.284v12c0 .276-.224.5-.5.5s-.5-.224-.5-.5v-1.5h-8v1.5c0 .276-.224.5-.5.5s-.5-.224-.5-.5v-12c0-.276.224-.5.5-.5s.5.224.5.5v1.5h8v-1.5c0-.276.224-.5.5-.5s.5.224.5.5zm-9 2.5v3h8v-3zm8 7v-3h-8v3z"/></svg>