<?xml version="1.0" encoding="UTF-8"?>
<svg xmlns="http://www.w3.org/2000/svg" id="Layer_1" data-name="Layer 1" viewBox="0 0 24 24">
  <path d="m23.616.579c-.348-.412-.877-.622-1.415-.57-1.388.143-4.912.715-7.678,2.947-3.079,2.488-5.347,7.227-5.514,11.524-.011.276.205.508.48.519.007,0,.014,0,.02,0,.268,0,.489-.211.5-.48.02-.502.069-1.011.147-1.521,3.131-.039,6.21-1.253,9.155-3.608,3.104-2.483,4.327-6.248,4.629-7.343.141-.513.02-1.062-.325-1.469Zm-.64,1.204c-.28,1.021-1.421,4.533-4.289,6.827-2.535,2.028-5.161,3.143-7.816,3.345,1.857-2.288,5.002-4.936,7.406-6.538.229-.153.292-.463.139-.693-.154-.231-.466-.291-.693-.139-2.209,1.473-5.029,3.814-6.983,5.992.878-2.728,2.468-5.271,4.413-6.842,2.557-2.064,5.921-2.601,7.22-2.734.187,0,.358.08.481.225.133.157.178.36.123.558Z"/>
  <path d="m21,18h-1v-5.5c0-.276-.224-.5-.5-.5s-.5.224-.5.5v5.5h-6c-1.654,0-3,1.346-3,3,0,1.103-.897,2-2,2s-2-.897-2-2V3c0-.771-.301-1.468-.78-2h8.28c.276,0,.5-.224.5-.5s-.224-.5-.5-.5H3C1.346,0,0,1.346,0,3s1.346,3,3,3h2v15c0,1.654,1.346,3,3,3h13c1.654,0,3-1.346,3-3s-1.346-3-3-3ZM5,5h-2c-1.103,0-2-.897-2-2S1.897,1,3,1s2,.897,2,2v2Zm16,18h-10.766c.476-.531.766-1.232.766-2,0-1.103.897-2,2-2h8c1.103,0,2,.897,2,2s-.897,2-2,2Z"/>
</svg>
