<svg id="Layer_1" viewBox="0 0 24 24" xmlns="http://www.w3.org/2000/svg" data-name="Layer 1"><path d="m19.562 3h-1.254c-.767-.677-1.706-1.161-2.661-1.397-.913-.98-2.205-1.603-3.647-1.603s-2.733.623-3.647 1.603c-.956.236-1.894.72-2.661 1.397h-1.254c-1.905 0-4.438.385-4.438 3.714 0 2.044 1.052 5.286 3.875 5.286 1.141.063 2.13-.846 2.125-2 0-.495-.187-.942-.486-1.292-.334-.778-.514-1.539-.514-2.208 0-1.578 1.086-2.815 2.421-3.495-.268.612-.421 1.285-.421 1.995 0 2.757 2.243 5 5 5s5-2.243 5-5c0-.71-.153-1.383-.421-1.995 1.335.68 2.421 1.917 2.421 3.495.014.662-.194 1.4-.475 2.161-.323.355-.525.823-.525 1.339-.005 1.154.984 2.063 2.125 2 2.823 0 3.875-3.242 3.875-5.286 0-3.329-2.533-3.714-4.438-3.714zm-17.562 6.997c-.728-.969-1-2.414-1-3.283 0-1.953.964-2.714 3.438-2.714h.354c-.487.717-.791 1.557-.791 2.5 0 .487.079.997.22 1.522-.073-.008-.145-.022-.22-.022-1.102 0-1.998.896-2 1.997zm2 1.003c-.551 0-1-.448-1-1s.449-1 1-1 1 .448 1 1-.449 1-1 1zm8-2c-2.206 0-4-1.794-4-4s1.794-4 4-4 4 1.794 4 4-1.794 4-4 4zm8 2c-.551 0-1-.448-1-1s.449-1 1-1 1 .448 1 1-.449 1-1 1zm2-1.003c-.001-1.101-.898-1.997-2-1.997-.075 0-.147.014-.22.022.141-.525.22-1.036.22-1.522 0-.943-.305-1.783-.791-2.5h.354c2.474 0 3.438.761 3.438 2.714 0 .87-.272 2.315-1 3.283zm-7.5-5.497c.276 0 .5.224.5.5s-.224.5-.5.5h-2v2c0 .276-.224.5-.5.5s-.5-.224-.5-.5v-2h-2c-.276 0-.5-.224-.5-.5s.224-.5.5-.5h2v-2c0-.276.224-.5.5-.5s.5.224.5.5v2zm1.657 7.444c-1.344 1.269-2.937 2.056-4.157 2.056s-2.813-.787-4.157-2.056c-.201-.189-.518-.18-.707.021-.189.2-.18.518.021.707.845.796 1.768 1.409 2.675 1.809-.226.148-.439.317-.617.528-.543.642-.776 1.485-.635 2.332l.937 4.645c.235 1.167 1.27 2.014 2.46 2.014 1.18 0 2.186-.804 2.447-1.953l1.073-4.722c.138-.83-.094-1.674-.638-2.315-.187-.22-.41-.395-.648-.547.893-.4 1.801-1.007 2.632-1.79.201-.189.21-.507.021-.707-.188-.201-.506-.211-.707-.021zm-1.641 5.188-1.068 4.693c-.157.691-.763 1.175-1.472 1.175-.716 0-1.338-.51-1.48-1.211l-.934-4.628c-.209-1.094.717-2.188 1.83-2.161h1.288c1.098-.035 2.036 1.069 1.836 2.132z"/></svg>