<?xml version="1.0" encoding="UTF-8"?>
<svg xmlns="http://www.w3.org/2000/svg" id="Layer_1" data-name="Layer 1" viewBox="0 0 24 24">
  <path d="m24,16v3.5c0,2.481-2.019,4.5-4.5,4.5-.276,0-.5-.224-.5-.5s.224-.5.5-.5c1.93,0,3.5-1.57,3.5-3.5v-3.5c0-.276.224-.5.5-.5s.5.224.5.5Zm-10.538,7H4.5c-1.93,0-3.5-1.57-3.5-3.5v-9.939c0-1.166.576-2.25,1.542-2.901L10.042,1.599c1.189-.803,2.727-.803,3.916,0l7.5,5.061c.966.651,1.542,1.736,1.542,2.901,0,.276.224.5.5.5s.5-.224.5-.5c0-1.499-.741-2.893-1.983-3.73L14.517.77c-1.529-1.032-3.506-1.031-5.033,0L1.983,5.831c-1.242.837-1.983,2.232-1.983,3.73v9.939c0,2.481,2.019,4.5,4.5,4.5h8.962c.276,0,.5-.224.5-.5s-.224-.5-.5-.5Zm8.703-8.893l-5.165,2.163v7.23c0,.276-.224.5-.5.5s-.5-.224-.5-.5v-12.999c0-.524.266-1.001.711-1.276.446-.274.99-.3,1.46-.065l4.151,2.329c.482.345.715.85.673,1.382-.043.533-.353.995-.83,1.236Zm-.167-1.315c.007-.088,0-.308-.213-.462,0,0-4.217-2.333-4.278-2.333-.122,0-.223.05-.27.08-.071.044-.237.173-.237.425v4.685l4.746-1.987c.203-.104.245-.32.252-.408Z"/>
</svg>
