<?xml version="1.0" encoding="UTF-8"?>
<svg xmlns="http://www.w3.org/2000/svg" id="Layer_1" data-name="Layer 1" viewBox="0 0 24 24">
  <path d="M10,12.5c0,.552-.448,1-1,1s-1-.448-1-1,.448-1,1-1,1,.448,1,1Zm1.5,1.5c-.552,0-1,.448-1,1s.448,1,1,1,1-.448,1-1-.448-1-1-1Zm-2.5,3.5c0,1.378-1.122,2.5-2.5,2.5s-2.5-1.122-2.5-2.5,1.122-2.5,2.5-2.5,2.5,1.122,2.5,2.5Zm-1,0c0-.827-.673-1.5-1.5-1.5s-1.5,.673-1.5,1.5,.673,1.5,1.5,1.5,1.5-.673,1.5-1.5ZM16,3c-.276,0-.5,.224-.5,.5s.224,.5,.5,.5c2.206,0,4,1.794,4,4,0,.276,.224,.5,.5,.5s.5-.224,.5-.5c0-2.757-2.243-5-5-5Zm1.679,6.155c1.748,1.674,1.75,4.688,.006,6.365l-7.156,7.16c-1.674,1.747-4.689,1.749-6.365,.003l-2.844-2.841c-1.755-1.753-1.756-4.607-.004-6.363l7.154-7.158c1.752-1.755,4.607-1.758,6.363-.005l2.846,2.84Zm.321,3.182c0-.935-.366-1.814-1.027-2.474l-2.846-2.84c-1.366-1.363-3.586-1.361-4.95,.004h0L2.023,14.186c-1.363,1.365-1.362,3.585,.003,4.949l2.844,2.841c1.304,1.357,3.648,1.356,4.95-.003l7.156-7.16c.66-.662,1.024-1.541,1.023-2.476ZM16,0c-.276,0-.5,.224-.5,.5s.224,.5,.5,.5c3.86,0,7,3.14,7,7,0,.276,.224,.5,.5,.5s.5-.224,.5-.5C24,3.589,20.411,0,16,0Zm-2,11.5c-.552,0-1,.448-1,1s.448,1,1,1,1-.448,1-1-.448-1-1-1Zm-2.5-2.5c-.552,0-1,.448-1,1s.448,1,1,1,1-.448,1-1-.448-1-1-1Z"/>
</svg>
