<svg id="Layer_1" viewBox="0 0 24 24" xmlns="http://www.w3.org/2000/svg" data-name="Layer 1"><path d="m13 16.5v5c0 1.379-1.122 2.5-2.5 2.5s-2.5-1.121-2.5-2.5c0-.276.224-.5.5-.5s.5.224.5.5c0 .827.673 1.5 1.5 1.5s1.5-.673 1.5-1.5v-5c0-.276.224-.5.5-.5s.5.224.5.5zm5.5-.5c-.276 0-.5.224-.5.5v5c0 .827-.673 1.5-1.5 1.5s-1.5-.673-1.5-1.5v-5c0-.276-.224-.5-.5-.5s-.5.224-.5.5v5c0 1.379 1.121 2.5 2.5 2.5s2.5-1.121 2.5-2.5v-5c0-.276-.224-.5-.5-.5zm5 7h-2.5v-6.5c0-.276-.224-.5-.5-.5s-.5.224-.5.5v6.5c0 .552.448 1 1 1h2.5c.276 0 .5-.224.5-.5s-.224-.5-.5-.5zm.5-16.5v8c0 .276-.224.5-.5.5s-.5-.224-.5-.5v-5.5h-22v10.5c0 1.93 1.57 3.5 3.5 3.5h1c.276 0 .5.224.5.5s-.224.5-.5.5h-1c-2.481 0-4.5-2.019-4.5-4.5v-13c0-2.481 2.019-4.5 4.5-4.5h1.5v-1.5c0-.276.224-.5.5-.5s.5.224.5.5v1.5h10v-1.5c0-.276.224-.5.5-.5s.5.224.5.5v1.5h1.5c2.481 0 4.5 2.019 4.5 4.5zm-1 0c0-1.93-1.57-3.5-3.5-3.5h-15c-1.93 0-3.5 1.57-3.5 3.5v1.5h22z"/></svg>