<?xml version="1.0" encoding="UTF-8"?>
<svg xmlns="http://www.w3.org/2000/svg" id="Layer_1" data-name="Layer 1" viewBox="0 0 24 24">
  <path d="M15.433,24.001c-.542,0-1.075-.181-1.518-.526-.604-.471-.95-1.181-.951-1.946l-.005-4.958c0-.521,.278-.996,.743-1.273,1.794-1.071,3.254-2.887,3.254-4.047,0-1.367-.883-2.25-2.25-2.25-.435,0-.917,.202-1.322,.555l-.378,.431c-.266,.3-.648,.472-1.049,.472h0c-.401,0-.784-.172-1.05-.472l-.423-.476c-.36-.308-.842-.51-1.276-.51-1.367,0-2.25,.883-2.25,2.25,0,1.157,1.463,2.973,3.261,4.047,.464,.278,.741,.752,.742,1.27h0l.005,4.952c0,.769-.346,1.479-.951,1.952-.605,.473-1.379,.635-2.125,.45l-4.54-1.055c-.65-.145-1.209-.566-1.529-1.156-.32-.591-.369-1.29-.133-1.919l1.447-2.742c.118-.182,.14-.354,.085-.517-.044-.132-.101-.288-.166-.468-.408-1.125-1.091-3.009-1.091-5.138C1.962,4.46,9.138,.936,10.577,.294c.876-.391,1.875-.391,2.751,0,.884,.395,8.634,4.04,8.634,10.706,0,2.089-.68,3.915-1.085,5.006-.076,.203-.141,.379-.19,.526-.055,.162-.033,.335,.059,.474l1.536,2.715c.269,.699,.22,1.398-.1,1.989-.32,.59-.879,1.012-1.534,1.157l-4.62,1.061c-.196,.049-.396,.073-.594,.073Zm-.726-16.001c1.914,0,3.25,1.337,3.25,3.25,0,1.735-1.928,3.823-3.742,4.906-.16,.095-.255,.249-.255,.413l.005,4.957c0,.457,.207,.88,.567,1.16,.36,.281,.822,.381,1.263,.269l4.632-1.063c.375-.083,.693-.323,.875-.658,.182-.336,.21-.733,.076-1.091l-1.483-2.613c-.246-.367-.309-.857-.156-1.315,.052-.155,.122-.342,.202-.557,.382-1.028,1.022-2.748,1.022-4.657C20.962,4.965,13.744,1.574,12.92,1.208c-.618-.275-1.318-.275-1.937,0-1.34,.597-8.022,3.87-8.022,9.719,0,1.954,.645,3.733,1.031,4.797,.068,.188,.128,.353,.174,.49,.153,.458,.09,.948-.175,1.347l-1.395,2.641c-.108,.299-.08,.696,.102,1.032,.182,.335,.5,.575,.872,.657l4.553,1.058c.45,.114,.914,.016,1.274-.266,.36-.281,.567-.705,.566-1.163l-.005-4.951c0-.163-.096-.317-.255-.413-1.816-1.085-3.748-3.174-3.748-4.905,0-1.913,1.336-3.25,3.25-3.25,.682,0,1.384,.284,1.978,.801l.469,.521c.156,.176,.45,.176,.605,0l.424-.476c.64-.562,1.342-.846,2.024-.846Z"/>
</svg>
