<svg id="Layer_1" viewBox="0 0 24 24" xmlns="http://www.w3.org/2000/svg" data-name="Layer 1"><path d="m4.5 12c.668 0 1.295-.26 1.768-.732s.732-1.1.732-1.768-.26-1.296-.736-1.771l-.855-.837c-.5-.49-1.316-.49-1.816 0l-.859.841c-.473.472-.732 1.1-.732 1.768s.26 1.296.732 1.768c.473.472 1.1.732 1.768.732zm-1.064-3.557.855-.837c.117-.115.301-.115.418 0l.852.833c.283.283.439.66.439 1.061s-.156.777-.439 1.061c-.566.566-1.555.566-2.121 0-.283-.283-.439-.66-.439-1.061s.156-.777.436-1.057zm19.927 6.738-6.806 7.64c-.344.386-.722.745-1.123 1.069-.213.172-.529.141-.702-.076-.174-.215-.141-.529.075-.702.358-.29.696-.611 1.004-.957l6.806-7.64c.548-.614.499-1.566-.11-2.121-.299-.272-.689-.405-1.088-.393-.403.019-.774.194-1.046.492l-4.503 4.949s-.004.003-.006.005c-.305.938-1.117 1.666-2.133 1.811l-6.172.738c-.273.036-.523-.162-.556-.437-.033-.274.162-.523.437-.556l6.161-.737c.793-.113 1.398-.812 1.398-1.624 0-.905-.737-1.643-1.643-1.643h-9.856c-1.379 0-2.5 1.121-2.5 2.5v6c0 .276-.224.5-.5.5s-.5-.224-.5-.5v-6c0-1.93 1.57-3.5 3.5-3.5h9.857c1.209 0 2.221.822 2.533 1.932l3.742-4.112c.451-.496 1.069-.787 1.739-.818.668-.024 1.312.201 1.809.652 1.012.922 1.094 2.504.183 3.526zm.637 3.319v1c0 2.481-2.019 4.5-4.5 4.5h-1c-.276 0-.5-.224-.5-.5s.224-.5.5-.5h1c1.93 0 3.5-1.57 3.5-3.5v-1c0-.276.224-.5.5-.5s.5.224.5.5zm-19.217-15.228 1.227-.845c1.4-.934 3.031-1.428 4.715-1.428h3.275v4.196c-2.47 1.191-4 3.492-4 6.099v.205c0 .276.224.5.5.5s.5-.224.5-.5v-.205c0-2.282 1.386-4.3 3.618-5.295h4.767c1.652.737 2.879 2.059 3.37 3.647.081.266.368.412.625.33.264-.081.412-.361.33-.625-.554-1.795-1.901-3.291-3.71-4.163v-2.189c0-1.654-1.346-3-3-3h-6.275c-1.882 0-3.704.552-5.275 1.6l-1.232.849c-.228.157-.285.468-.129.695.159.228.471.283.695.128zm10.217-2.272h2c1.103 0 2 .897 2 2v2h-4z"/></svg>