<svg id="Layer_1" viewBox="0 0 24 24" xmlns="http://www.w3.org/2000/svg" data-name="Layer 1"><path d="m23.863 20.395c-.401 1.691-1.752 3.047-3.44 3.454-.293.07-.594.115-.894.133-.271.026-.512-.194-.528-.47s.194-.512.47-.528c.24-.015.482-.051.718-.107 1.326-.319 2.387-1.384 2.702-2.712.478-2.02-.692-4.017-2.665-4.547-.727-.194-1.286-.691-1.536-1.365-.762-2.055-2.774-3.383-4.939-3.256-2.499.122-4.628 2.254-4.745 4.754-.02.431.016.863.104 1.283.147.693-.183 1.378-.804 1.664-1.03.477-1.528 1.592-1.211 2.71.2.703.784 1.287 1.486 1.487.202.058.407.089.611.094.266.007.727.01 1.31.012.275 0 .499.226.498.502 0 .275-.225.498-.5.498h-.002c-.593-.002-1.062-.005-1.331-.012-.287-.007-.576-.052-.859-.133-1.044-.297-1.877-1.13-2.174-2.175-.449-1.577.288-3.214 1.753-3.892.194-.089.294-.314.244-.548-.106-.504-.148-1.021-.124-1.538.143-3.052 2.644-5.558 5.694-5.707 2.604-.131 5.012 1.442 5.926 3.908.136.365.448.638.857.747 2.499.672 3.982 3.194 3.379 5.743zm-17.835-5.395c.119 0 .238-.042.333-.128.206-.184.224-.5.039-.705-.903-1.01-1.4-2.312-1.4-3.667 0-3.033 2.468-5.5 5.5-5.5 1.671 0 3.231.747 4.282 2.048.487.603 1.339.747 1.983.331l2.56-1.652c.231-.149.299-.459.148-.691-.15-.233-.46-.298-.691-.149l-2.56 1.652c-.216.139-.495.09-.663-.119-.393-.488-.853-.901-1.352-1.249l1.795-3.065c.14-.238.06-.544-.179-.684-.24-.139-.546-.06-.685.179l-1.79 3.056c-.728-.355-1.524-.567-2.349-.63v-3.527c0-.276-.224-.5-.5-.5s-.5.224-.5.5v3.525c-.816.063-1.587.277-2.292.614l-1.808-3.05c-.14-.238-.447-.316-.685-.175-.237.141-.316.448-.175.685l1.799 3.034c-.648.443-1.209 1.002-1.66 1.644l-3.038-1.779c-.239-.139-.546-.061-.685.179-.14.238-.06.544.179.684l3.036 1.778c-.356.723-.582 1.518-.647 2.36h-3.523c-.276 0-.5.224-.5.5s.224.5.5.5h3.546c.058.751.241 1.476.546 2.155l-3.067 1.807c-.238.14-.317.446-.177.685.141.24.451.315.685.177l3.032-1.787c.18.276.369.547.591.796.099.11.235.167.372.167zm9.707 3.3c.196.21 1.765 1.938 1.765 3.2.028 1.343-1.157 2.528-2.5 2.5-1.343.028-2.528-1.157-2.5-2.5 0-1.235 1.566-2.984 1.745-3.18.424-.419 1.082-.419 1.49-.021zm.765 3.2c0-.658-.908-1.885-1.481-2.503-.608.626-1.519 1.861-1.519 2.503 0 .4.156.777.439 1.061.566.566 1.555.566 2.121 0 .283-.283.439-.66.439-1.061z"/></svg>