<?xml version="1.0" encoding="UTF-8"?>
<svg xmlns="http://www.w3.org/2000/svg" id="Layer_1" data-name="Layer 1" viewBox="0 0 24 24">
  <path d="M17.004,13.537c1.117-2.217,1.996-4.582,1.996-6.537,0-3.86-3.14-7-7-7S5,3.14,5,7c0,1.956,.88,4.322,1.996,6.539-2.477,1.662-3.994,4.438-3.994,7.461l-.003,2.5c0,.276,.223,.5,.5,.5h0c.276,0,.5-.224,.5-.5l.003-2.5c0-2.651,1.31-5.091,3.459-6.575,1.049,2.08,3.648,5.798,4.038,6.245v2.83c0,.276,.224,.5,.5,.5s.5-.224,.5-.5v-2.83c.378-.431,2.963-4.127,4.039-6.246,2.151,1.484,3.461,3.925,3.461,6.577v2.5c0,.276,.224,.5,.5,.5s.5-.224,.5-.5v-2.5c0-3.024-1.517-5.8-3.996-7.463Zm-5.004,6.129c-.61-.83-1.835-2.556-3.019-4.587-.629-1.88-.954-3.549-.981-5.088-.031-1.767,.386-3.14,1.204-3.973,.664-.676,1.605-1.019,2.796-1.019s2.132,.343,2.796,1.019c.818,.833,1.234,2.206,1.204,3.973-.027,1.54-.352,3.209-.981,5.088-1.185,2.031-2.41,3.757-3.019,4.587ZM12,1c3.309,0,6,2.691,6,6,0,1.296-.443,2.822-1.093,4.367,.053-.462,.086-.915,.093-1.358,.036-2.07-.466-3.648-1.49-4.691-.859-.875-2.041-1.318-3.51-1.318s-2.65,.443-3.51,1.318c-1.024,1.042-1.526,2.621-1.49,4.691,.008,.443,.041,.896,.093,1.358-.651-1.545-1.093-3.071-1.093-4.367,0-3.309,2.691-6,6-6Z"/>
</svg>
