<svg id="Layer_1" viewBox="0 0 24 24" xmlns="http://www.w3.org/2000/svg" data-name="Layer 1"><path d="m12 8c2.206 0 4-1.794 4-4s-1.794-4-4-4-4 1.794-4 4 1.794 4 4 4zm0-7c1.654 0 3 1.346 3 3s-1.346 3-3 3-3-1.346-3-3 1.346-3 3-3zm-6.33 3.378-2.476 2.476c-.195.195-.512.195-.707 0s-.195-.512 0-.707l2.146-2.146h-4.133c-.276 0-.5-.224-.5-.5s.224-.5.5-.5h4.134l-2.146-2.147c-.195-.195-.195-.512 0-.707s.512-.195.707 0l2.476 2.476c.484.484.484 1.272 0 1.756zm18.33-.878c0 .276-.224.5-.5.5h-4.133l2.146 2.146c.195.195.195.512 0 .707s-.512.195-.707 0l-2.476-2.476c-.234-.234-.364-.546-.364-.878s.13-.644.364-.878l2.476-2.475c.195-.195.512-.195.707 0s.195.512 0 .707l-2.146 2.146h4.134c.276 0 .5.224.5.5zm-.976 20c0 .276-.224.5-.5.5s-.5-.224-.5-.5c0-1.489-.801-2.453-2.596-3.126l-5.565-1.9c-.203-.069-.339-.259-.339-.473v-5.394c0-.789-.535-1.471-1.245-1.586-.449-.072-.885.046-1.227.336-.336.286-.529.703-.529 1.143v7.424c0 .42-.235.795-.614.978-.378.183-.818.132-1.146-.128l-1.688-1.344c-.007-.006-.01-.014-.016-.02-.004-.004-.01-.004-.015-.008-.606-.562-1.553-.529-2.115.073-.565.604-.534 1.557.064 2.118l1.633 1.551c.325.309.107.856-.342.856-.127 0-.249-.048-.341-.135l-1.64-1.548c-1-.937-1.048-2.518-.106-3.524.928-.994 2.482-1.054 3.49-.15.003.002.007.003.01.005l1.688 1.344.138-.067v-7.424c0-.734.321-1.429.881-1.905s1.305-.677 2.035-.562c1.188.194 2.084 1.3 2.084 2.573v5.037l5.241 1.789c2.197.824 3.259 2.152 3.259 4.067z"/></svg>