<?xml version="1.0" encoding="UTF-8"?>
<svg xmlns="http://www.w3.org/2000/svg" id="Layer_1" data-name="Layer 1" viewBox="0 0 24 24">
  <path d="m23.551,4.779c-.548-1.078-1.482-1.875-2.634-2.246L13.72.217c-1.16-.374-2.393-.267-3.472.3s-1.866,1.521-2.217,2.688l-.239.794h-3.293C2.019,4,0,6.019,0,8.5v11c0,2.481,2.019,4.5,4.5,4.5h7c1.585,0,2.974-.828,3.776-2.069.238.038.477.074.713.074,1.902,0,3.646-1.215,4.266-3.088l3.557-10.687c.38-1.147.288-2.373-.26-3.451Zm-12.051,18.221h-7c-1.93,0-3.5-1.57-3.5-3.5v-11c0-1.93,1.57-3.5,3.5-3.5h7c1.93,0,3.5,1.57,3.5,3.5v11c0,1.93-1.57,3.5-3.5,3.5Zm11.361-15.084l-3.557,10.687c-.51,1.542-2,2.497-3.576,2.381.164-.467.271-.961.271-1.483v-11c0-2.481-2.019-4.5-4.5-4.5h-2.663l.152-.506c.272-.908.885-1.65,1.724-2.091.839-.441,1.799-.523,2.7-.233l7.197,2.316c.896.288,1.623.909,2.049,1.747.426.838.497,1.791.202,2.683Zm-12.344,3.245c-.634-.273-1.324-.196-1.944.212-.215.142-.41.316-.573.506-.163-.19-.357-.365-.573-.506-.621-.409-1.311-.485-1.944-.212-1.102.475-1.68,1.583-1.406,2.696.445,1.814,2.688,3.606,2.942,3.805.289.226.635.339.981.339s.692-.113.981-.339c.254-.198,2.497-1.991,2.942-3.804.274-1.113-.304-2.222-1.406-2.697Zm.436,2.458c-.258,1.051-1.522,2.424-2.586,3.255-.215.168-.516.168-.732,0-1.064-.831-2.328-2.204-2.586-3.255-.157-.639.177-1.257.831-1.539.123-.053.248-.08.374-.08.201,0,.406.067.612.2.415.267.633.683.636.801v.003s0,.001,0,.003v.003c.005.271.227.49.5.49.276,0,.5-.224.5-.5.002-.118.221-.534.636-.801.335-.216.668-.258.986-.12.654.281.988.9.831,1.539Z"/>
</svg>
