<svg id="Layer_1" viewBox="0 0 24 24" xmlns="http://www.w3.org/2000/svg" data-name="Layer 1"><path d="m11 4.5c0 .276-.224.5-.5.5h-6c-.276 0-.5-.224-.5-.5s.224-.5.5-.5h6c.276 0 .5.224.5.5zm-.5 2.5h-6c-.276 0-.5.224-.5.5s.224.5.5.5h6c.276 0 .5-.224.5-.5s-.224-.5-.5-.5zm13.5-1c0 .276-.224.5-.5.5h-3.5v.5c0 1.103-.897 2-2 2h-2.293l-1.389 1.389c-1.039 1.039-2.42 1.611-3.89 1.611h-1.105l-.875 7h1.051c1.378 0 2.5 1.121 2.5 2.5s-1.122 2.5-2.5 2.5h-6.999c-1.378 0-2.5-1.121-2.5-2.5s1.122-2.5 2.5-2.5h.559l.882-7.057c-2.215-.279-3.941-2.154-3.941-4.443v-3c0-2.481 2.019-4.5 4.5-4.5h5.929c1.469 0 2.851.572 3.89 1.611l1.389 1.389h2.293c1.103 0 2 .897 2 2v.5h3.5c.276 0 .5.224.5.5zm-14.5 14h-7c-.827 0-1.5.673-1.5 1.5s.673 1.5 1.5 1.5h7c.827 0 1.5-.673 1.5-1.5s-.673-1.5-1.5-1.5zm-1.184-8h-3.375l-.875 7h3.375zm6.684-3.707v-4.586l-1.389-1.389c-.85-.851-1.98-1.318-3.183-1.318h-5.929c-1.93 0-3.5 1.57-3.5 3.5v3c0 1.93 1.57 3.5 3.5 3.5h5.929c1.202 0 2.333-.468 3.183-1.318zm4-3.293c0-.552-.448-1-1-1h-2v4h2c.552 0 1-.448 1-1z"/></svg>