<?xml version="1.0" encoding="UTF-8"?>
<svg xmlns="http://www.w3.org/2000/svg" id="Layer_1" data-name="Layer 1" viewBox="0 0 24 24">
  <path d="M2,2.883v1.117c0,1.93,1.57,3.5,3.5,3.5s3.5-1.57,3.5-3.5v-1.162c.033-.034,.442-.762,.452-.803C9.725,.976,8.855-.058,7.737,.004L2.708,.512c-.864,.046-1.435,.888-1.108,1.735,0,0,.347,.594,.4,.636Zm3.5,3.617c-1.379,0-2.5-1.122-2.5-2.5v-1h5v1c0,1.378-1.121,2.5-2.5,2.5ZM2.545,1.623c.047-.07,.119-.107,.241-.115l5.018-.507c.416-.018,.758,.341,.688,.743l-.137,.256H2.597c-.068-.107-.147-.259-.052-.377Zm15.955,5.877c1.654,0,3-1.346,3-3s-1.346-3-3-3-3,1.346-3,3,1.346,3,3,3Zm0-5c1.103,0,2,.897,2,2s-.897,2-2,2-2-.897-2-2,.897-2,2-2Zm-7.922,17.018c.559,.536,.558,1.501,0,2.036l-2.336,2.335c-.195,.195-.512,.195-.707,0s-.195-.512,0-.707l2.182-2.182H.5c-.276,0-.5-.224-.5-.5s.224-.5,.5-.5H9.646l-2.111-2.111c-.195-.195-.195-.512,0-.707s.512-.195,.707,0l2.336,2.336Zm13.422,.982c0,.276-.224,.5-.5,.5H14.284l2.181,2.182c.195,.195,.195,.512,0,.707s-.512,.195-.707,0l-2.336-2.336c-.559-.534-.559-1.5,0-2.035l2.336-2.336c.195-.195,.512-.195,.707,0s.195,.512,0,.707l-2.111,2.111h9.146c.276,0,.5,.224,.5,.5Zm-10-6v-1c0-2.481,2.019-4.5,4.5-4.5s4.5,2.019,4.5,4.5v1c0,.276-.224,.5-.5,.5s-.5-.224-.5-.5v-1c0-1.93-1.57-3.5-3.5-3.5s-3.5,1.57-3.5,3.5v1c0,.276-.224,.5-.5,.5s-.5-.224-.5-.5Zm-13,0v-1c0-2.481,2.019-4.5,4.5-4.5s4.5,2.019,4.5,4.5v1c0,.276-.224,.5-.5,.5s-.5-.224-.5-.5v-1c0-1.046-.471-1.975-1.2-2.617l-3.945,3.97c-.194,.196-.512,.196-.707,.002-.195-.194-.196-.511-.002-.707l3.802-3.825c-.442-.202-.93-.322-1.447-.322-1.93,0-3.5,1.57-3.5,3.5v1c0,.276-.224,.5-.5,.5s-.5-.224-.5-.5Z"/>
</svg>
