<svg id="Layer_1" viewBox="0 0 24 24" xmlns="http://www.w3.org/2000/svg" data-name="Layer 1"><path d="m11.739 9h4.761c.276 0 .5-.224.5-.5s-.224-.5-.5-.5h-4.107c.385-.751.607-1.599.607-2.5s-.222-1.749-.607-2.5h8.107c1.379 0 2.5 1.121 2.5 2.5 0 .616-.226 1.208-.637 1.667-.184.205-.166.521.04.706.205.183.521.166.706-.04.574-.642.891-1.471.891-2.333 0-1.93-1.57-3.5-3.5-3.5h-8.761c-1.009-1.221-2.535-2-4.239-2h-2c-3.033 0-5.5 2.468-5.5 5.5s2.467 5.5 5.5 5.5h2c1.704 0 3.23-.779 4.239-2zm-10.739-3.5c0-2.481 2.019-4.5 4.5-4.5h.5v9h-.5c-2.481 0-4.5-2.019-4.5-4.5zm6.5 4.5h-.5v-9h.5c2.481 0 4.5 2.019 4.5 4.5s-2.019 4.5-4.5 4.5zm2.5 6h-1c-.551 0-1 .448-1 1v6.5c0 .276.224.5.5.5s.5-.224.5-.5v-2.5h1c1.378 0 2.5-1.121 2.5-2.5s-1.122-2.5-2.5-2.5zm0 4h-1v-3h1c.827 0 1.5.673 1.5 1.5s-.673 1.5-1.5 1.5zm11.5-4h-1c-.552 0-1 .448-1 1v6.5c0 .276.224.5.5.5s.5-.224.5-.5v-2.5h1c1.379 0 2.5-1.121 2.5-2.5s-1.121-2.5-2.5-2.5zm0 4h-1v-3h1c.827 0 1.5.673 1.5 1.5s-.673 1.5-1.5 1.5zm-5.5-4c-1.379 0-2.5 1.121-2.5 2.5v3c0 1.379 1.121 2.5 2.5 2.5s2.5-1.121 2.5-2.5v-3c0-1.379-1.121-2.5-2.5-2.5zm1.5 5.5c0 .827-.673 1.5-1.5 1.5s-1.5-.673-1.5-1.5v-3c0-.827.673-1.5 1.5-1.5s1.5.673 1.5 1.5zm-13.034-4.819-1.184 3.053 1.192 3.609c.087.263-.056.545-.318.632-.255.087-.546-.053-.631-.317l-1.208-3.657h-1.317v3.5c0 .276-.224.5-.5.5s-.5-.224-.5-.5v-7c0-.276.224-.5.5-.5s.5.224.5.5v2.5h1.494l1.039-2.681c.101-.258.391-.388.647-.285.258.1.385.389.286.646zm2.534 2.819c0 .276-.224.5-.5.5h-1c-.276 0-.5-.224-.5-.5s.224-.5.5-.5h1c.276 0 .5.224.5.5zm16.686-8.964-2.301-.921-.921-2.301c-.15-.381-.777-.381-.928 0l-.919 2.296-2.294.868c-.191.072-.319.254-.323.459-.004.204.117.39.306.47l2.308.973.923 2.306c.075.19.26.314.464.314s.389-.124.464-.314l.921-2.301 2.301-.921c.19-.075.314-.26.314-.464s-.124-.389-.314-.464zm-2.871 1c-.127.051-.228.151-.278.278l-.536 1.339-.536-1.339c-.049-.124-.146-.224-.27-.275l-1.348-.567 1.33-.504c.131-.05.235-.152.287-.282l.536-1.339.536 1.339c.051.127.151.228.278.278l1.339.536-1.339.536zm-7.314 4.423c-.191 0-.358-.13-.404-.316l-.357-1.429-1.43-.385c-.185-.05-.312-.218-.308-.409.003-.191.137-.356.323-.399l1.418-.328.354-1.418c.093-.371.716-.371.809 0l.356 1.424 1.424.356c.186.046.316.213.316.404s-.13.358-.316.404l-1.424.356-.356 1.424c-.046.186-.213.316-.404.316z"/></svg>