<svg id="Layer_1" viewBox="0 0 24 24" xmlns="http://www.w3.org/2000/svg" data-name="Layer 1"><path d="m21.499 0-3.972.002c-1.378 0-2.499 1.122-2.499 2.5l.002 6.358c-.014.618.531 1.153 1.144 1.143.246 0 .489-.08.694-.237l2.302-1.767h2.33c1.379 0 2.5-1.122 2.5-2.5v-3c0-1.377-1.122-2.499-2.501-2.499zm1.501 5.5c0 .827-.673 1.5-1.5 1.5h-2.5c-.11 0-.217.036-.305.104l-2.437 1.87c-.057.044-.112.033-.149.015-.036-.018-.079-.055-.079-.127l-.002-6.358c0-.827.673-1.5 1.499-1.5l3.972-.002c.828 0 1.501.673 1.501 1.5v3zm-6.5 11.5h-1.525c-.257-3.351-3.059-6-6.475-6s-6.218 2.649-6.475 6h-1.525c-.276 0-.5.224-.5.5s.224.5.5.5h.5v5.5c0 .276.224.5.5.5s.5-.224.5-.5v-5.5h13v5.5c0 .276.224.5.5.5s.5-.224.5-.5v-5.5h.5c.276 0 .5-.224.5-.5s-.224-.5-.5-.5zm-13.475 0c.254-2.799 2.611-5 5.475-5s5.221 2.201 5.475 5zm5.475-8c2.481 0 4.5-2.019 4.5-4.5s-2.019-4.5-4.5-4.5-4.5 2.019-4.5 4.5 2.019 4.5 4.5 4.5zm0-8c1.93 0 3.5 1.57 3.5 3.5s-1.57 3.5-3.5 3.5-3.5-1.57-3.5-3.5 1.57-3.5 3.5-3.5z"/></svg>