<?xml version="1.0" encoding="UTF-8"?>
<svg xmlns="http://www.w3.org/2000/svg" id="Layer_1" data-name="Layer 1" viewBox="0 0 24 24">
  <path d="m23.654,21.024c-.26-.086-.545.059-.63.321-.259.795-1.169,1.654-2.188,1.654-1.232,0-2.258-1.228-2.332-1.922.076-.116.157-.224.247-.323,1.738-1.902,2.812-4.003,3.194-6.244.222-1.303-.513-2.546-1.747-2.956h0l-.198-.065v-2.99c0-1.93-1.57-3.5-3.5-3.5h-.5v-1.5c0-1.93-1.57-3.5-3.5-3.5h-1c-1.93,0-3.5,1.57-3.5,3.5v1.5h-.5c-1.93,0-3.5,1.57-3.5,3.5v2.98l-.229.075c-1.234.41-1.969,1.653-1.748,2.956.378,2.212,1.464,4.313,3.228,6.244.09.098.17.206.246.322-.07.759-1.131,1.923-2.334,1.923-1.014,0-1.925-.86-2.188-1.656-.087-.263-.371-.408-.631-.318-.263.086-.405.369-.318.631.38,1.152,1.657,2.344,3.137,2.344,1.238,0,2.38-.824,2.953-1.772.598.921,1.737,1.772,2.988,1.772,1.229,0,2.301-.7,2.897-1.564.593.861,1.655,1.559,2.873,1.559,1.672,0,2.594-1.06,3.019-1.754.575.943,1.712,1.76,2.944,1.76,1.487,0,2.764-1.192,3.139-2.346.085-.263-.059-.544-.321-.63ZM9,3.5c0-1.379,1.121-2.5,2.5-2.5h1c1.379,0,2.5,1.121,2.5,2.5v1.5h-6v-1.5Zm.103,19.5c-1.076,0-2.017-.963-2.314-1.614-.19-.416-.425-.894-.8-1.305-1.633-1.787-2.635-3.718-2.979-5.738-.139-.812.314-1.586,1.074-1.838l7.408-2.422s.006-.002.009-.003v10.92s0,.006,0,.008c-.012.792-1.081,1.992-2.398,1.992Zm2.075-13.867l-6.178,2.02v-2.653c0-1.379,1.121-2.5,2.5-2.5h9c1.379,0,2.5,1.121,2.5,2.5v2.661l-6.174-2.027c-.532-.177-1.118-.178-1.648,0Zm6.836,10.948c-.363.397-.599.863-.799,1.308-.217.483-.879,1.605-2.342,1.605-1.31,0-2.372-1.21-2.372-1.999v-10.915s.007.002.011.003l7.373,2.421c.762.253,1.214,1.026,1.075,1.839-.349,2.049-1.34,3.979-2.946,5.738Z"/>
</svg>
