<svg id="Layer_1" viewBox="0 0 24 24" xmlns="http://www.w3.org/2000/svg" data-name="Layer 1"><path d="m18 8c1.103 0 2-.897 2-2s-.897-2-2-2-2 .897-2 2 .897 2 2 2zm0-3c.552 0 1 .449 1 1s-.448 1-1 1-1-.449-1-1 .448-1 1-1zm2.5 9h-5c-1.93 0-3.5 1.57-3.5 3.5v3c0 1.93 1.57 3.5 3.5 3.5h5c1.93 0 3.5-1.57 3.5-3.5v-3c0-1.93-1.57-3.5-3.5-3.5zm2.5 6.5c0 1.379-1.121 2.5-2.5 2.5h-5c-1.379 0-2.5-1.121-2.5-2.5v-3c0-1.379 1.121-2.5 2.5-2.5h5c1.379 0 2.5 1.121 2.5 2.5zm-10.331-12.596c-.101.388-.044.792.158 1.136.392.704 1.37.956 2.053.534l.224-.131c.408.34.882.606 1.396.786v.271c0 .827.673 1.5 1.5 1.5s1.5-.673 1.5-1.5v-.271c.515-.18.988-.446 1.396-.786l.223.131c.684.422 1.661.171 2.053-.533.423-.687.171-1.659-.533-2.053l-.232-.137c.063-.299.094-.576.094-.85s-.03-.551-.094-.85l.232-.137c.704-.394.956-1.366.534-2.053-.394-.704-1.366-.956-2.053-.534l-.224.131c-.408-.34-.882-.606-1.396-.786v-.271c0-.827-.673-1.5-1.5-1.5s-1.5.673-1.5 1.5v.271c-.515.18-.988.446-1.396.786l-.223-.131c-.688-.424-1.659-.17-2.053.533-.423.687-.171 1.659.533 2.053l.232.137c-.063.299-.094.576-.094.85s.03.551.094.85l-.232.137c-.346.203-.592.528-.692.917zm1.981-.949c-.103-.361-.15-.664-.15-.955s.048-.594.15-.955c.062-.219-.03-.453-.228-.568l-.556-.327c-.235-.132-.318-.455-.177-.685.131-.235.456-.318.684-.177l.541.318c.194.116.446.084.606-.078.431-.431.985-.743 1.604-.903.221-.057.375-.256.375-.484v-.642c0-.276.225-.5.5-.5s.5.224.5.5v.642c0 .228.154.427.375.484.618.16 1.173.473 1.604.903.159.161.412.193.606.078l.542-.318c.228-.142.552-.057.684.178.14.228.057.552-.178.684l-.556.327c-.197.116-.29.349-.228.568.103.361.15.664.15.955s-.048.594-.15.955c-.062.219.03.453.228.568l.556.327c.235.132.318.455.177.685-.131.234-.454.319-.684.177l-.541-.318c-.193-.114-.446-.083-.606.078-.43.43-.984.742-1.604.903-.221.057-.375.256-.375.484v.642c0 .276-.225.5-.5.5s-.5-.224-.5-.5v-.642c0-.228-.154-.427-.375-.484-.619-.161-1.174-.473-1.604-.903-.161-.162-.412-.193-.606-.078l-.542.318c-.226.142-.553.056-.684-.178-.14-.228-.057-.552.178-.684l.556-.327c.197-.116.29-.349.228-.568zm2.833 9.588c-.119-.331-.422-.543-.772-.543h-.008c-.354.003-.656.222-.777.577l-1.405 4.782c-.078.265.073.543.339.62.258.078.544-.072.62-.339l.188-.641h2.153l.201.648c.082.263.358.412.626.329.264-.082.411-.362.329-.626l-1.494-4.809zm-1.522 3.457.753-2.563.796 2.563zm-6.461-20h-9c-.276 0-.5.224-.5.5s.224.5.5.5h.5v19c0 2.206 1.794 4 4 4s4-1.794 4-4v-19h.5c.276 0 .5-.224.5-.5s-.224-.5-.5-.5zm-1.5 20c0 1.654-1.346 3-3 3s-3-1.346-3-3v-10h6zm0-11h-6v-8h6zm13 7.5v5c0 .276-.224.5-.5.5s-.5-.224-.5-.5v-5c0-.276.224-.5.5-.5s.5.224.5.5z"/></svg>