<?xml version="1.0" encoding="UTF-8"?>
<svg xmlns="http://www.w3.org/2000/svg" id="Outline" viewBox="0 0 24 24">
  <path d="m16.5,0H7.5C5.019,0,3,2.019,3,4.5v18.5c0,.371.204.71.534.885.324.17.729.147,1.03-.06l2.106-1.44,2.106,1.44c.343.234.787.233,1.13-.001l2.101-1.439,2.1,1.439c.172.117.369.176.565.176.198,0,.396-.059.566-.177l2.099-1.438,2.097,1.438c.308.21.702.234,1.032.06.329-.174.533-.513.533-.885V4.5c0-2.481-2.019-4.5-4.5-4.5Zm3.5,23l-2.379-1.632c-.172-.117-.396-.117-.565,0l-2.385,1.632-2.381-1.632c-.171-.116-.395-.116-.565,0l-2.384,1.633-2.388-1.632c-.17-.116-.395-.116-.564,0l-2.388,1.632V4.5c0-1.93,1.57-3.5,3.5-3.5h9c1.93,0,3.5,1.57,3.5,3.5v18.5Zm-3-15.5c0,.276-.224.5-.5.5H7.5c-.276,0-.5-.224-.5-.5s.224-.5.5-.5h9c.276,0,.5.224.5.5Zm0,3c0,.276-.224.5-.5.5H7.5c-.276,0-.5-.224-.5-.5s.224-.5.5-.5h9c.276,0,.5.224.5.5Zm-3,3c0,.276-.224.5-.5.5h-6c-.276,0-.5-.224-.5-.5s.224-.5.5-.5h6c.276,0,.5.224.5.5Z"/>
</svg>
