<?xml version="1.0" encoding="UTF-8"?>
<svg xmlns="http://www.w3.org/2000/svg" id="Layer_1" data-name="Layer 1" viewBox="0 0 24 24">
  <path d="m23.884,16.126c-.259-.684-.898-1.126-1.63-1.126h-6.135l2.87-13.395c.058-.27-.114-.536-.385-.594-.266-.06-.535.114-.594.384l-2.915,13.605h-2.595V.5c0-.276-.224-.5-.5-.5s-.5.224-.5.5v14.5h-2.595L5.989,1.395c-.059-.27-.326-.443-.594-.384-.271.058-.442.324-.385.594l2.87,13.395H1.746c-.731,0-1.371.442-1.63,1.126-.261.688-.073,1.446.478,1.934,1.75,1.547,3.822,2.537,5.843,2.835-.84.491-1.576,1.163-2.134,2l-.219.328c-.153.23-.091.54.139.693.228.152.54.092.693-.139l.219-.328c1.022-1.534,2.733-2.449,4.576-2.449h4.578c1.844,0,3.555.916,4.576,2.449l.219.328c.097.145.255.223.416.223.096,0,.192-.027.277-.084.229-.153.292-.463.139-.693l-.219-.328c-.558-.837-1.294-1.509-2.133-2,2.022-.299,4.094-1.288,5.842-2.835.551-.487.738-1.246.478-1.934Zm-1.14,1.185c-1.932,1.709-4.276,2.689-6.432,2.689H7.688c-2.155,0-4.5-.98-6.433-2.689-.286-.254-.294-.595-.205-.83.043-.113.22-.48.695-.48h20.508c.476,0,.652.368.695.48.089.235.081.576-.205.83Z"/>
</svg>
