<svg id="Layer_1" viewBox="0 0 24 24" xmlns="http://www.w3.org/2000/svg" data-name="Layer 1"><path d="m24 13.5v10c0 .276-.224.5-.5.5s-.5-.224-.5-.5v-10c0-2.46-1.108-4.729-3-6.241v5.741c0 3.309-2.691 6-6 6s-6-2.691-6-6v-.5c0-.276.224-.5.5-.5s.5.224.5.5v.5c0 2.757 2.243 5 5 5s5-2.243 5-5v-8.5c0-1.93-1.57-3.5-3.5-3.5h-3c-1.068 0-2.064.479-2.732 1.312-.172.216-.486.251-.703.078-.216-.173-.25-.487-.078-.703.859-1.072 2.14-1.688 3.513-1.688h3c2.481 0 4.5 2.019 4.5 4.5v1.532c2.504 1.677 4 4.442 4 7.468zm-19.146-2.486c-.263-.066-.538.1-.603.369-.167.689-.251 1.401-.251 2.117v10c0 .276.224.5.5.5s.5-.224.5-.5v-10c0-.637.075-1.27.223-1.883.065-.268-.1-.539-.369-.603zm2.396-3.082-.71.709c-.292.292-.676.438-1.061.438s-.766-.145-1.058-.435l-3.539-3.519c-.568-.566-.882-1.32-.882-2.123s.312-1.556.879-2.123c1.167-1.168 3.068-1.17 4.239-.003l3.542 3.52c.285.283.441.66.442 1.061 0 .402-.155.779-.439 1.063l-.705.705 3.127 3.12 2.964 1.628c.509.279.607.969.197 1.38l-.868.868c-.411.411-1.1.312-1.38-.197l-1.645-2.996-3.102-3.095zm.705-2.119c.195-.186.194-.523 0-.708l-3.542-3.521c-.39-.389-.901-.583-1.413-.583s-1.024.195-1.414.584c-.378.378-.586.881-.586 1.416s.209 1.037.588 1.415l3.54 3.519c.195.194.513.193.706 0l2.121-2.121z"/></svg>