<svg id="Layer_1" viewBox="0 0 24 24" xmlns="http://www.w3.org/2000/svg" data-name="Layer 1"><path d="m2.716 13.727c.075.244.254.437.502.431.211 0 .407-.134.476-.346 1.134-3.5 3.447-6.308 6.861-8.359.654 1.306.983 2.769.944 4.267-1.475.808-2.773 2.039-3.662 3.523-.142.237-.065.544.172.686.233.141.543.067.686-.172.807-1.346 1.983-2.46 3.319-3.183 1.246.716 2.931 1.49 4.697 1.407 1.56 0 2.913-.334 4.233-1.003-.086.803-.275 1.587-.573 2.338-.102.257.024.547.28.649.25.101.547-.021.649-.28.468-1.17.683-2.422.701-3.685.029-5.547-4.61-10.008-10.001-10-5.406-.011-10.013 4.44-10 10 0 1.273.236 2.512.701 3.685.006.015.008.028.015.042zm18.275-3.9c-1.028.603-2.044.954-3.175 1.086.125-3.289-.906-6.584-2.948-9.436 3.506 1.184 6.048 4.467 6.123 8.35zm-7.678-8.72c2.423 2.908 3.665 6.4 3.505 9.874-1.597.096-3.09-.574-4.323-1.282.066-3.137-1.357-6.124-3.808-8.058 1.027-.408 2.142-.64 3.313-.64.447 0 .883.044 1.313.107zm-5.649 1.011c.959.672 1.765 1.513 2.386 2.472-3.174 1.904-5.456 4.428-6.789 7.532-.167-.69-.261-1.399-.261-2.121 0-3.391 1.887-6.348 4.664-7.882zm16.215 20.29c.18.209.156.525-.054.705-.666.572-1.524.887-2.417.887-1.24 0-2.434-.594-3.137-1.494-.703.9-1.896 1.494-3.136 1.494s-2.434-.594-3.136-1.494c-.703.9-1.897 1.494-3.136 1.494s-2.434-.594-3.136-1.494c-.703.9-1.897 1.494-3.137 1.494-.893 0-1.75-.315-2.417-.887-.209-.18-.233-.496-.054-.705.181-.209.497-.233.705-.054.485.417 1.112.646 1.765.646 1.168 0 2.315-.719 2.668-1.673.072-.196.259-.327.469-.327s.396.13.469.327c.352.954 1.499 1.673 2.667 1.673s2.314-.719 2.667-1.673c.145-.393.793-.393.938 0 .353.954 1.5 1.673 2.667 1.673s2.315-.719 2.667-1.673c.146-.392.794-.393.938 0 .353.954 1.5 1.673 2.668 1.673.653 0 1.28-.229 1.765-.646.21-.179.525-.156.705.054zm-23.705-5.295c-.209-.18-.233-.496-.054-.705.181-.209.497-.233.705-.054.485.417 1.112.646 1.765.646 1.168 0 2.315-.719 2.668-1.673.072-.196.259-.327.469-.327s.396.13.469.327c.352.954 1.499 1.673 2.667 1.673s2.314-.719 2.667-1.673c.145-.393.793-.393.938 0 .353.954 1.5 1.673 2.667 1.673s2.315-.719 2.667-1.673c.146-.392.794-.393.938 0 .353.954 1.5 1.673 2.668 1.673.653 0 1.28-.229 1.765-.646.21-.179.525-.156.705.054.18.209.156.525-.054.705-.666.572-1.524.887-2.417.887-1.24 0-2.434-.594-3.137-1.494-.703.9-1.896 1.494-3.136 1.494s-2.434-.594-3.136-1.494c-.703.9-1.897 1.494-3.136 1.494s-2.434-.594-3.136-1.494c-.703.9-1.897 1.494-3.137 1.494-.893 0-1.75-.315-2.417-.887z"/></svg>