<svg id="Layer_1" viewBox="0 0 24 24" xmlns="http://www.w3.org/2000/svg" data-name="Layer 1"><path d="m21.612 11.529c1.456-1.193 2.388-3.004 2.388-5.029 0-3.584-2.916-6.5-6.5-6.5s-6.5 2.916-6.5 6.5c0 1.746.696 3.331 1.821 4.5h-8.321c-2.481 0-4.5 2.019-4.5 4.5v4c0 2.481 2.019 4.5 4.5 4.5h15c2.481 0 4.5-2.019 4.5-4.5v-4c0-1.689-.935-3.201-2.388-3.971zm-4.112-10.529c3.032 0 5.5 2.467 5.5 5.5s-2.468 5.5-5.5 5.5-5.5-2.467-5.5-5.5 2.468-5.5 5.5-5.5zm5.5 18.5c0 1.93-1.57 3.5-3.5 3.5h-15c-1.93 0-3.5-1.57-3.5-3.5v-4c0-1.93 1.57-3.5 3.5-3.5h9.552c1.001.63 2.181 1 3.448 1 1.136 0 2.204-.295 3.134-.809 1.416.485 2.366 1.807 2.366 3.309zm-16-4.5c-.827 0-1.5.673-1.5 1.5v3c0 .276.224.5.5.5s.5-.224.5-.5v-1h1v1c0 .276.224.5.5.5s.5-.224.5-.5v-3c0-.827-.673-1.5-1.5-1.5zm-.5 2.5v-1c0-.276.224-.5.5-.5s.5.224.5.5v1zm11.5-1.5v1h.75c.276 0 .5.224.5.5s-.224.5-.5.5h-.75v1h.75c.276 0 .5.224.5.5s-.224.5-.5.5h-.75c-.552 0-1-.449-1-1v-3c0-.551.448-1 1-1h.75c.276 0 .5.224.5.5s-.224.5-.5.5zm3.75 3c.276 0 .5.224.5.5s-.224.5-.5.5h-1.25c-.276 0-.5-.224-.5-.5v-4c0-.276.224-.5.5-.5s.5.224.5.5v3.5zm-9.25-2.5v3c0 .276-.224.5-.5.5s-.5-.224-.5-.5v-3c0-.276-.224-.5-.5-.5s-.5.224-.5.5v3c0 .276-.224.5-.5.5s-.5-.224-.5-.5v-4c0-.276.224-.5.5-.5.14 0 .266.058.357.151.196-.094.412-.151.643-.151.827 0 1.5.673 1.5 1.5zm2.146-7.854 2.146-2.146-2.146-2.146c-.195-.195-.195-.512 0-.707s.512-.195.707 0l2.146 2.146 2.146-2.146c.195-.195.512-.195.707 0s.195.512 0 .707l-2.146 2.146 2.146 2.146c.195.195.195.512 0 .707s-.512.195-.707 0l-2.146-2.146-2.146 2.146c-.195.195-.512.195-.707 0s-.195-.512 0-.707zm-11.646 7.854v2c0 .276.224.5.5.5.178 0 .344-.096.434-.25.137-.239.442-.321.683-.182.239.138.321.444.182.683-.267.462-.765.75-1.299.75-.827 0-1.5-.673-1.5-1.5v-2c0-.827.673-1.5 1.5-1.5.534 0 1.032.287 1.299.75.139.239.057.545-.182.683-.241.139-.546.056-.683-.182-.089-.155-.255-.25-.434-.25-.276 0-.5.224-.5.5zm11.25 0v2c0 .276.225.5.5.5.178 0 .344-.096.434-.25.139-.239.447-.319.683-.182.239.138.321.444.183.683-.268.462-.765.75-1.299.75-.827 0-1.5-.673-1.5-1.5v-2c0-.827.673-1.5 1.5-1.5.534 0 1.031.287 1.299.75.139.239.057.545-.183.683-.236.138-.545.057-.683-.182-.09-.155-.256-.25-.434-.25-.275 0-.5.224-.5.5z"/></svg>