<svg id="Layer_1" viewBox="0 0 24 24" xmlns="http://www.w3.org/2000/svg" data-name="Layer 1"><path d="m23.684 17.744c-1.146-5.631-3.125-11.239-3.145-11.295-1.413-3.857-5.475-6.449-10.108-6.449-5.725 0-10.382 4.657-10.382 10.382 0 1.188.216 4.061.525 6.282.279 2.001 1.867 3.577 3.862 3.832 3.226.412 6.482 1.36 10.254 2.458 1.011.295 2.064.602 3.174.915.318.09.642.133.96.133 1.154 0 2.252-.571 2.904-1.564l1.455-2.054c.51-.777.688-1.715.5-2.64zm-.98.199c.031.15.043.299.048.448l-11.209-3.702c1.442-.605 2.458-2.03 2.458-3.689 0-1.201-.542-2.266-1.382-3h7.382s.004-.001.007-.001c.638 1.94 1.881 5.933 2.696 9.945zm-12.704-9.943c1.654 0 3 1.346 3 3s-1.346 3-3 3-3-1.346-3-3 1.346-3 3-3zm10.902 13.874c-.601.915-1.714 1.329-2.767 1.032-1.106-.312-2.157-.618-3.166-.912-3.812-1.109-7.104-2.067-10.406-2.49-1.549-.197-2.782-1.423-2.999-2.979-.295-2.118-.516-4.99-.516-6.144.001-5.172 4.21-9.381 9.383-9.381 4.3.007 8.033 2.401 9.241 6h-9.672c-2.206 0-4 1.794-4 4 0 1.724 1.102 3.183 2.634 3.744.046.038 13.947 4.644 13.947 4.644-.06.151-.134.296-.224.432z"/></svg>