<svg id="Layer_1" viewBox="0 0 24 24" xmlns="http://www.w3.org/2000/svg" data-name="Layer 1"><path d="m10.5 23h-7c-1.378 0-2.5-1.122-2.5-2.5s1.122-2.5 2.5-2.5h5c.276 0 .5-.224.5-.5s-.224-.5-.5-.5h-3.5v-16h10.5c1.93 0 3.5 1.57 3.5 3.5v5c0 .276.224.5.5.5s.5-.224.5-.5v-5c0-2.481-2.019-4.5-4.5-4.5h-11c-2.481 0-4.5 2.019-4.5 4.5v16c0 1.93 1.57 3.5 3.5 3.5h7c.276 0 .5-.224.5-.5s-.224-.5-.5-.5zm-9.5-18.5c0-1.758 1.308-3.204 3-3.449v15.949h-.5c-.98 0-1.864.407-2.5 1.058zm21.708 10.503c-.21-.6-.779-1.003-1.415-1.003h-3.292v-1.5c0-.276-.224-.5-.5-.5s-.5.224-.5.5v1.5h-3.279c-.646 0-1.218.412-1.423 1.025 0 0-1.298 3.921-1.298 3.975 0 1.103.897 2 2 2s2-.897 2-2c0-.122 0-.324-1.293-4h3.293v8h-2.5c-.276 0-.5.224-.5.5s.224.5.5.5h6c.276 0 .5-.224.5-.5s-.224-.5-.5-.5h-2.5v-8h3.292.019s-1.312 3.945-1.312 4c0 1.103.897 2 2 2s2-.897 2-2c0-.122 0-.324-1.292-3.997zm-8.708 3.997h-1.973l.986-2.957c.684 1.963.964 2.844.987 2.957zm8.015-2.95c.685 1.962.962 2.84.985 2.95h-1.973z"/></svg>