<?xml version="1.0" encoding="UTF-8"?>
<svg xmlns="http://www.w3.org/2000/svg" id="Layer_1" data-name="Layer 1" viewBox="0 0 24 24">
  <path d="M22.048,15.228l-5.989-5.88,.597-2.239c.229-1.034,.345-2.092,.345-3.145V.5c0-.276-.224-.5-.5-.5s-.5,.224-.5,.5V3.036c-1.84,.174-3.344,1.243-4,1.793-.656-.55-2.16-1.619-4-1.793V.5c0-.276-.224-.5-.5-.5s-.5,.224-.5,.5V3.963c0,1.058,.116,2.116,.35,3.166l.592,2.218L1.979,15.203c-1.082,.92-1.299,2.494-.503,3.661,2.091,3.072,6.32,5.136,10.524,5.136s8.434-2.063,10.524-5.136c.796-1.167,.579-2.741-.477-3.637ZM12,6c.128,0,.256-.048,.354-.146,.017-.017,1.621-1.566,3.642-1.806-.006,.953-.11,1.909-.312,2.823l-.568,2.128h-6.231l-.563-2.108c-.207-.931-.311-1.887-.317-2.844,2.021,.239,3.625,1.789,3.642,1.806,.098,.097,.226,.146,.354,.146Zm9.698,12.302c-1.884,2.767-5.872,4.698-9.698,4.698s-7.814-1.932-9.698-4.698c-.507-.744-.367-1.748,.352-2.361l6.051-5.94h6.592l6.077,5.965c.692,.589,.832,1.593,.325,2.337Z"/>
</svg>
