<?xml version="1.0" encoding="UTF-8"?>
<svg xmlns="http://www.w3.org/2000/svg" id="Layer_1" data-name="Layer 1" viewBox="0 0 24 24">
  <path d="m23.427,4.925l-1.33-1.877c-.914-1.293-2.653-1.692-4.042-.932l-9.826,5.393C7.26,3.82,4.215,1.222.53,1.001.223.971.017,1.195,0,1.47c-.017.276.193.513.469.529,3.328.199,6.065,2.611,6.852,6.008l-4.664,2.56C1.285,11.538.373,12.986.09,14.644c-.282,1.658.097,3.326,1.068,4.699.972,1.372,2.42,2.284,4.077,2.567.356.061.713.091,1.067.091,1.296,0,2.564-.404,3.679-1.196l.59-.534c.831,1.612,2.494,2.729,4.429,2.729,2.757,0,5-2.243,5-5,0-1.758-.917-3.3-2.293-4.192l5.269-4.772c1.168-1.058,1.361-2.826.451-4.111ZM5.404,20.924c-1.395-.238-2.612-1.005-3.43-2.159-1.688-2.383-1.122-5.695,1.212-7.352l.479-.263,6.037,8.559-.346.316c-1.155.817-2.561,1.14-3.952.898Zm13.596-2.924c0,2.206-1.794,4-4,4s-4-1.794-4-4,1.794-4,4-4,4,1.794,4,4Zm-2.029-4.876c-.072.065-.111.148-.136.235-.569-.226-1.186-.359-1.835-.359-2.757,0-5,2.243-5,5,0,.159.032.308.047.463l-5.5-7.797,13.988-7.674c.944-.518,2.124-.246,2.745.633l1.33,1.877c.618.873.486,2.073-.307,2.792l-5.333,4.829Z"/>
  <path d="m13,18c0,1.103.897,2,2,2s2-.897,2-2-.897-2-2-2-2,.897-2,2Zm3,0c0,.552-.448,1-1,1s-1-.448-1-1,.448-1,1-1,1,.448,1,1Z"/>
</svg>
