<?xml version="1.0" encoding="UTF-8"?>
<svg xmlns="http://www.w3.org/2000/svg" id="Layer_1" data-name="Layer 1" viewBox="0 0 24 24">
  <path d="M13.614,17c-.604,0-1.211,.227-1.619,.669-.417-.442-1.038-.669-1.655-.669-1.178,0-2.137,1.032-2.137,2.301,0,1.622,1.913,3.644,2.839,4.369,.566,.443,1.352,.441,1.915-.006,.911-.725,2.794-2.745,2.794-4.363,0-1.269-.959-2.301-2.137-2.301Zm-1.28,5.881c-.199,.158-.476,.157-.675,.002-1.004-.786-2.456-2.514-2.456-3.582,0-.717,.51-1.301,1.137-1.301,.401,0,1.16,.209,1.16,1v.002c0,.276,.224,.5,.5,.5s.5-.224,.5-.5c0-.74,.601-1.002,1.114-1.002,.627,0,1.137,.583,1.137,1.301,0,1.068-1.429,2.794-2.417,3.58Zm-.334-10.881c3.309,0,6-2.691,6-6S15.309,0,12,0,6,2.691,6,6s2.691,6,6,6Zm0-11c2.757,0,5,2.243,5,5s-2.243,5-5,5-5-2.243-5-5S9.243,1,12,1Zm9,22v.5c0,.276-.224,.5-.5,.5s-.5-.224-.5-.5v-.5c0-4.411-3.589-8-8-8s-8,3.589-8,8v.5c0,.276-.224,.5-.5,.5s-.5-.224-.5-.5v-.5c0-4.962,4.037-9,9-9s9,4.038,9,9Z"/>
</svg>
