<?xml version="1.0" encoding="UTF-8"?>
<svg xmlns="http://www.w3.org/2000/svg" id="Layer_1" data-name="Layer 1" viewBox="0 0 24 24">
  <path d="m18.854,17.147c.195.196.193.513-.002.707l-5.721,5.677c-.312.312-.722.468-1.131.468s-.821-.156-1.134-.469l-5.72-5.676c-.195-.194-.197-.511-.002-.707.193-.196.51-.198.707-.002l5.647,5.604V7.5c0-.276.224-.5.5-.5s.5.224.5.5v15.25l5.647-5.604c.196-.196.513-.194.707.002ZM12,0C5.553,0,.286,5.042.011,11.479c-.012.276.203.509.479.521.305.017.51-.203.521-.478C1.263,5.622,6.09,1,12,1s10.737,4.622,10.989,10.521c.012.269.233.479.5.479.007,0,.014,0,.021,0,.275-.012.49-.245.479-.521-.275-6.437-5.542-11.479-11.989-11.479Z"/>
</svg>
