<?xml version="1.0" encoding="UTF-8"?>
<svg xmlns="http://www.w3.org/2000/svg" id="Layer_1" data-name="Layer 1" viewBox="0 0 24 24">
  <path d="M23.085,8.683c-.579-.291-1.262-.23-1.806,.174l-1.333,1.117c-.264-2.231-2.146-3.974-4.447-3.974h-.793l-3.682-3.682c-.85-.85-1.979-1.318-3.182-1.318H.5c-.276,0-.5,.224-.5,.5s.224,.5,.5,.5H7.843c.935,0,1.813,.364,2.475,1.025l2.975,2.975H4.5C2.019,6,0,8.019,0,10.5v9c0,2.481,2.019,4.5,4.5,4.5H15.5c2.301,0,4.182-1.742,4.447-3.974l1.356,1.135c.298,.221,.649,.338,1.017,.338,.264,0,.529-.063,.766-.182,.58-.291,.939-.874,.939-1.523V10.205c0-.649-.36-1.232-.939-1.522Zm-4.085,10.817c0,1.93-1.57,3.5-3.5,3.5H4.5c-1.93,0-3.5-1.57-3.5-3.5V10.5c0-1.93,1.57-3.5,3.5-3.5H15.5c1.93,0,3.5,1.57,3.5,3.5v9Zm4.024,.295c0,.268-.148,.509-.388,.629-.234,.118-.54,.081-.714-.047l-1.922-1.611v-7.533l1.9-1.592c.214-.161,.496-.186,.737-.064,.239,.12,.387,.36,.387,.628v9.59Z"/>
</svg>
