<?xml version="1.0" encoding="UTF-8"?>
<svg xmlns="http://www.w3.org/2000/svg" id="Layer_1" data-name="Layer 1" viewBox="0 0 24 24">
  <path d="m23.56.44c-.364-.365-.882-.515-1.432-.392-2.355.773-4.527,2.108-6.28,3.861L6.105,13.652c-2.266-1.303-4.413-1.629-4.535-1.647-.269-.036-.526.15-.565.424s.15.526.424.566c.035.005,3.43.526,6.018,2.851l-4.947,4.947-1.646-1.646c-.195-.195-.512-.195-.707,0s-.195.512,0,.707l4,4c.098.098.226.146.354.146s.256-.049.354-.146c.195-.195.195-.512,0-.707l-1.646-1.646,4.947-4.947c2.325,2.588,2.846,5.983,2.851,6.018.036.249.25.429.494.429.024,0,.048-.002.072-.005.273-.04.463-.293.424-.565-.017-.122-.343-2.269-1.647-4.535l9.741-9.742c1.753-1.753,3.088-3.925,3.874-6.329.11-.502-.04-1.02-.404-1.383Zm-4.177,7.005l-9.582,9.583c-.367-.531-.788-1.056-1.28-1.549-.493-.493-1.018-.914-1.549-1.28l9.583-9.582c1.643-1.643,3.678-2.894,5.837-3.604.176-.036.339.013.461.135.123.123.172.291.147.412-.724,2.208-1.975,4.243-3.617,5.886Z"/>
</svg>
