<?xml version="1.0" encoding="UTF-8"?>
<svg xmlns="http://www.w3.org/2000/svg" id="Layer_1" data-name="Layer 1" viewBox="0 0 24 24">
  <path d="M23.925,21.237l-3.342-5.402c-1.799-2.982-5.08-4.835-8.562-4.835H.5c-.276,0-.5,.224-.5,.5s.224,.5,.5,.5H7v9.5c0,1.379,1.121,2.5,2.5,2.5h5c1.379,0,2.5-1.121,2.5-2.5v-7.968c1.09,.726,2.037,1.674,2.73,2.823l3.345,5.407c.145,.238,.457,.306,.688,.162,.235-.145,.308-.453,.162-.688Zm-13.903-.237l5.978-7.686v7.686h-5.978Zm-2.022,0v-.944l6.069-7.803c.41,.097,.812,.218,1.202,.37l-6.515,8.377h-.756Zm4.021-9c.313,0,.622,.029,.931,.061l-4.951,6.366v-6.428h4.021Zm2.479,11h-5c-.651,0-1.201-.419-1.408-1h7.816c-.207,.581-.757,1-1.408,1ZM8,3.088v2.412c0,2.206,1.794,4,4,4s4-1.794,4-4V3.5l.468-1.415c.214-.707-.387-1.564-1.154-1.572L9.298,.001c-1.082-.074-1.971,1.003-1.664,2.086l.366,1Zm4,5.412c-1.654,0-3-1.346-3-3v-1.5h6v1.5c0,1.654-1.346,3-3,3ZM8.714,1.243c.133-.166,.304-.257,.514-.245l6.031,.513c.137-.023,.252,.199,.261,.258l-.453,1.23h-6.066c0-.059-.011-.117-.03-.172l-.38-1.03c-.048-.198-.004-.395,.124-.555Z"/>
</svg>
