<svg id="Layer_1" viewBox="0 0 24 24" xmlns="http://www.w3.org/2000/svg" data-name="Layer 1"><path d="m18.213 21.788c.195.195.195.512 0 .708l-.334.334c-.779.779-1.805 1.169-2.829 1.169s-2.048-.39-2.828-1.169c-1.56-1.56-1.56-4.097 0-5.657l1.414-1.414c1.56-1.559 4.096-1.56 5.657 0 .297.298.543.636.732 1.005.126.246.028.547-.218.673-.241.125-.546.03-.673-.218-.142-.276-.326-.53-.549-.753-1.171-1.169-3.074-1.169-4.243 0l-1.414 1.414c-1.169 1.17-1.169 3.073 0 4.243 1.171 1.169 3.074 1.168 4.243 0l.334-.334c.195-.195.512-.195.707 0zm4.615-9.617c-1.51-1.511-4.146-1.511-5.656 0l-.335.335c-.195.195-.195.512 0 .707s.512.195.707 0l.335-.335c1.133-1.133 3.109-1.133 4.242 0 1.17 1.17 1.17 3.073 0 4.243l-1.414 1.414c-1.134 1.133-3.11 1.133-4.242 0-.223-.222-.408-.476-.55-.753-.127-.246-.43-.342-.673-.217-.246.126-.344.427-.218.673.19.371.437.708.733 1.004.755.755 1.76 1.171 2.828 1.171s2.072-.416 2.828-1.171l1.414-1.414c.756-.756 1.172-1.76 1.172-2.829s-.416-2.073-1.172-2.829zm-19.828-6.171c0-3.309 2.691-6 6-6s6 2.691 6 6-2.691 6-6 6-6-2.691-6-6zm1 0c0 2.757 2.243 5 5 5s5-2.243 5-5-2.243-5-5-5-5 2.243-5 5zm7.978 9.021c.081-.264-.066-.544-.331-.625-.854-.262-1.745-.396-2.646-.396-4.964 0-9.001 4.038-9.001 9v.5c0 .276.224.5.5.5s.5-.224.5-.5v-.5c0-4.411 3.589-8 8-8 .802 0 1.594.118 2.354.352.262.081.543-.067.624-.331z"/></svg>