<?xml version="1.0" encoding="UTF-8"?>
<svg xmlns="http://www.w3.org/2000/svg" id="Layer_1" data-name="Layer 1" viewBox="0 0 24 24">
  <path d="M15.5,17H1V4.5c0-1.93,1.57-3.5,3.5-3.5h7c1.068,0,2.063,.479,2.731,1.312,.174,.217,.49,.251,.703,.078,.216-.172,.25-.487,.078-.703-.859-1.072-2.14-1.688-3.513-1.688H4.5C2.019,0,0,2.019,0,4.5v15c0,2.481,2.019,4.5,4.5,4.5h7c2.481,0,4.5-2.019,4.5-4.5v-2c0-.276-.224-.5-.5-.5Zm-.5,1v1.5c0,1.93-1.57,3.5-3.5,3.5H4.5c-1.93,0-3.5-1.57-3.5-3.5v-1.5H15Zm8.5-4h-.5v-5.129c.587-.249,1-.831,1-1.507,0-.599-.326-1.149-.853-1.437l-4.122-2.248c-.643-.351-1.408-.351-2.051,0l-4.125,2.25c-.524,.286-.85,.836-.85,1.435,0,.677,.413,1.258,1,1.507v5.129h-.5c-.276,0-.5,.224-.5,.5s.224,.5,.5,.5h11c.276,0,.5-.224,.5-.5s-.224-.5-.5-.5Zm-4.5-5v5h-2v-5h2Zm1,0h2v5h-2v-5Zm-6.672-2.193l4.125-2.25c.172-.093,.359-.14,.547-.14s.376,.047,.547,.14l4.121,2.248c.205,.112,.332,.326,.332,.559,0,.351-.285,.636-.637,.636H13.637c-.352,0-.637-.286-.637-.637,0-.233,.126-.446,.328-.557Zm.672,2.193h2v5h-2v-5Zm-4.5,12h-3c-.276,0-.5-.224-.5-.5s.224-.5,.5-.5h3c.276,0,.5,.224,.5,.5s-.224,.5-.5,.5Z"/>
</svg>
