<?xml version="1.0" encoding="UTF-8"?>
<svg xmlns="http://www.w3.org/2000/svg" id="Layer_1" data-name="Layer 1" viewBox="0 0 24 24">
  <path d="M20,0c-2.206,0-4,1.794-4,4,0,.241,.03,.475,.071,.704L7.63,7.342c-.632-1.378-2.017-2.342-3.63-2.342C1.794,5,0,6.794,0,9s1.794,4,4,4c.985,0,1.876-.371,2.573-.963l6.17,5.656c-.464,.653-.743,1.446-.743,2.307,0,2.206,1.794,4,4,4s4-1.794,4-4c0-1.695-1.063-3.138-2.555-3.719l2.082-8.328c.157,.019,.311,.048,.472,.048,2.206,0,4-1.794,4-4S22.206,0,20,0ZM4,12c-1.654,0-3-1.346-3-3s1.346-3,3-3,3,1.346,3,3-1.346,3-3,3Zm15,8c0,1.654-1.346,3-3,3s-3-1.346-3-3,1.346-3,3-3,3,1.346,3,3Zm-2.528-3.952c-.157-.019-.311-.048-.472-.048-.985,0-1.876,.371-2.573,.963l-6.17-5.657c.464-.653,.743-1.446,.743-2.307,0-.241-.03-.475-.071-.704l8.442-2.638c.432,.941,1.215,1.683,2.184,2.061l-2.082,8.328Zm3.528-9.048c-1.654,0-3-1.346-3-3s1.346-3,3-3,3,1.346,3,3-1.346,3-3,3Z"/>
</svg>
