<svg id="Layer_1" viewBox="0 0 24 24" xmlns="http://www.w3.org/2000/svg" data-name="Layer 1"><path d="m24 7.435c0 3.393-1.619 6.561-4.226 8.27-.084.056-.179.082-.273.082-.163 0-.323-.08-.418-.226-.151-.231-.087-.54.144-.692 2.328-1.526 3.774-4.375 3.774-7.434 0-2.23-.727-4.717-1.809-6.19-.139-.189-.361-.277-.587-.23-.234.045-.409.211-.469.444-.51 1.986-1.192 4.248-1.874 6.206-.091.26-.376.4-.636.308-.261-.09-.399-.375-.308-.636.465-1.337.927-2.816 1.336-4.25-.801-1.324-1.939-2.085-3.153-2.085-1.221 0-2.364.769-3.166 2.107.117.411.235.824.364 1.249.08.264-.069.543-.334.623-.257.08-.544-.067-.623-.334-.336-1.11-.635-2.182-.89-3.186-.07-.275-.293-.413-.479-.449-.104-.022-.36-.042-.539.202-.618.833-1.142 2.043-1.475 3.407-.066.269-.336.432-.604.367s-.433-.336-.367-.604c.364-1.491.947-2.828 1.643-3.766.355-.479.946-.703 1.535-.587.619.122 1.1.576 1.255 1.184.053.208.115.43.172.643.945-1.187 2.18-1.857 3.507-1.857s2.55.664 3.496 1.839c.056-.21.117-.426.17-.631.156-.607.634-1.058 1.247-1.177.609-.117 1.216.12 1.583.62 1.198 1.631 2.003 4.357 2.003 6.783zm-9.003.217c1.198 1.631 2.003 4.357 2.003 6.783 0 5.274-3.813 9.565-8.5 9.565s-8.5-4.292-8.5-9.566c0-2.405.834-5.209 2.029-6.819.355-.478.944-.701 1.535-.587.62.122 1.1.576 1.255 1.184.054.211.114.429.171.644.948-1.185 2.183-1.856 3.51-1.856s2.551.665 3.497 1.839c.056-.211.116-.425.169-.632.156-.607.634-1.058 1.247-1.177.61-.118 1.215.121 1.583.62zm-9.663 2.455c.862 3.029 1.942 6.124 2.675 7.593.094.188.276.3.486.3h.001c.21 0 .392-.113.485-.302.723-1.462 1.803-4.568 2.672-7.611-.801-1.324-1.939-2.085-3.153-2.085-1.221 0-2.364.769-3.166 2.106zm10.666 4.328c0-2.23-.727-4.717-1.809-6.19-.139-.189-.358-.276-.587-.23-.234.045-.409.211-.469.443-.942 3.672-2.343 7.835-3.257 9.684-.261.528-.79.857-1.379.859h-.003c-.588 0-1.117-.327-1.38-.853-.93-1.863-2.333-6.027-3.264-9.687-.07-.275-.293-.413-.479-.449-.185-.028-.371-.012-.539.202-1.079 1.454-1.832 4.013-1.832 6.223 0 4.723 3.364 8.565 7.5 8.565s7.5-3.842 7.5-8.565z"/></svg>