<?xml version="1.0" encoding="UTF-8"?>
<svg xmlns="http://www.w3.org/2000/svg" id="Layer_1" data-name="Layer 1" viewBox="0 0 24 24">
  <path d="M1,9.5V3.501C.946,1.356,3.096-.406,5.189,.07l4.5,.904c.993,.199,1.816,.817,2.311,1.643,.494-.826,1.317-1.444,2.311-1.643L18.811,.07c2.092-.475,4.244,1.286,4.189,3.431v5.999c0,.276-.224,.5-.5,.5s-.5-.224-.5-.5V3.501c.04-1.532-1.501-2.792-2.992-2.451l-4.5,.904c-1.164,.233-2.008,1.264-2.008,2.451v5.095c0,.276-.224,.5-.5,.5s-.5-.224-.5-.5V4.405c0-1.187-.844-2.217-2.008-2.451l-4.5-.904c-1.493-.342-3.031,.919-2.992,2.451v5.999c0,.276-.224,.5-.5,.5s-.5-.224-.5-.5Zm22.989,3.021c-.275,6.437-5.542,11.479-11.989,11.479S.287,18.958,.011,12.521c-.012-.276,.202-.509,.478-.521,.271-.006,.509,.202,.521,.478,.053,1.243,.32,2.423,.746,3.521H6.663c-.353-1.092-.597-2.257-.652-3.478-.012-.276,.201-.51,.477-.522,.272-.014,.509,.201,.522,.477,.055,1.235,.331,2.417,.72,3.522h8.538c.389-1.105,.665-2.287,.72-3.522,.013-.276,.251-.488,.522-.477,.276,.012,.489,.246,.477,.522-.055,1.22-.299,2.386-.652,3.478h4.907c.427-1.098,.693-2.279,.746-3.521,.012-.275,.249-.482,.521-.478,.276,.012,.49,.245,.478,.521Zm-15.866,4.479c1.229,2.838,3.115,4.991,3.877,5.788,.762-.798,2.648-2.951,3.877-5.788h-7.755Zm2.637,5.925c-1.02-1.145-2.67-3.257-3.736-5.925H2.204c1.641,3.222,4.81,5.507,8.555,5.925Zm11.036-5.925h-4.819c-1.066,2.668-2.716,4.78-3.736,5.925,3.745-.418,6.914-2.703,8.555-5.925Z"/>
</svg>
