<?xml version="1.0" encoding="UTF-8"?>
<svg xmlns="http://www.w3.org/2000/svg" id="Layer_1" data-name="Layer 1" viewBox="0 0 24 24">
  <path d="M13.5,5c1.379,0,2.5-1.122,2.5-2.5s-1.121-2.5-2.5-2.5-2.5,1.122-2.5,2.5,1.121,2.5,2.5,2.5Zm0-4c.827,0,1.5,.673,1.5,1.5s-.673,1.5-1.5,1.5-1.5-.673-1.5-1.5,.673-1.5,1.5-1.5Zm6,15h-4.5v-7.096c0-1.601-1.303-2.904-2.903-2.904-1.158,0-2.259,.439-3.098,1.236l-2.515,2.386c-.489,.45-.623,1.18-.326,1.775l1.663,3.326c.124,.247,.423,.348,.671,.224,.247-.124,.347-.424,.224-.671l-1.663-3.326c-.099-.199-.055-.442,.114-.598,0,0,2.727-2.557,2.833-2.636v6.783c0,1.379,1.121,2.5,2.5,2.5h7c.275,0,.5,.225,.5,.5v6c0,.276,.224,.5,.5,.5s.5-.224,.5-.5v-6c0-.827-.673-1.5-1.5-1.5Zm-8.5-1.5V7.189c.351-.116,.718-.189,1.097-.189,1.05,0,1.903,.854,1.903,1.904v7.096h-1.5c-.827,0-1.5-.673-1.5-1.5Zm-.036,4.186l-1.749,4.371c-.228,.573-.774,.943-1.392,.943H2.5c-.276,0-.5-.224-.5-.5s.224-.5,.5-.5H7.823c.205,0,.388-.123,.463-.314l1.75-4.371c.103-.256,.394-.381,.649-.278,.257,.103,.381,.394,.278,.649Z"/>
</svg>
