<?xml version="1.0" encoding="UTF-8"?>
<svg xmlns="http://www.w3.org/2000/svg" id="Layer_1" data-name="Layer 1" viewBox="0 0 24 24">
  <path d="M23.639,14.557c-.331-.395-.826-.605-1.334-.555-5.583,.521-8.47,4.368-9.805,6.969v-5.022c1.219-.235,2.143-1.306,2.143-2.593,0-.188-.033-.529-.243-1.375,.65,.581,.937,.769,1.104,.856,.625,.331,1.34,.398,2.014,.188,.675-.208,1.228-.667,1.558-1.291,.68-1.289,.185-2.891-1.104-3.571-.08-.042-.196-.096-.398-.165,.202-.069,.319-.122,.398-.165,1.289-.68,1.783-2.282,1.104-3.571-.33-.625-.883-1.083-1.558-1.292-.674-.209-1.39-.142-2.014,.188-.167,.088-.453,.276-1.104,.858,.21-.847,.243-1.188,.243-1.376,0-1.458-1.186-2.643-2.643-2.643s-2.643,1.186-2.643,2.643c0,.188,.033,.529,.242,1.375-.65-.581-.936-.769-1.103-.857-.624-.33-1.339-.397-2.014-.188-.675,.208-1.228,.667-1.558,1.292-.68,1.289-.185,2.891,1.104,3.571,.08,.042,.196,.096,.398,.165-.202,.069-.319,.122-.398,.165-1.289,.68-1.783,2.282-1.103,3.571,.33,.625,.882,1.083,1.557,1.291,.674,.21,1.39,.143,2.014-.188,.167-.088,.453-.276,1.103-.855-.209,.845-.242,1.186-.242,1.374,0,1.286,.924,2.358,2.143,2.593v5.022c-1.335-2.601-4.222-6.449-9.806-6.97-1.023-.13-1.944,.944-1.64,1.933,2.168,7.839,10.952,8.065,11.946,8.065s9.777-.227,11.945-8.065c.132-.477,.017-.991-.306-1.378Zm-5.449-3.288c-.424,.801-1.419,1.107-2.22,.686-.163-.086-.634-.425-1.973-1.717,.496-.444,.833-1.053,.949-1.737,.97-.054,2.65,.559,2.559,.548,.801,.423,1.108,1.419,.686,2.22Zm-2.22-7.223c.388-.206,.833-.247,1.252-.117,.419,.129,.763,.415,.968,.803,.423,.801,.115,1.797-.686,2.22,.074-.006-1.582,.601-2.559,.548-.116-.683-.452-1.292-.948-1.736,1.338-1.293,1.809-1.632,1.972-1.719Zm-3.97-3.045c.906,0,1.643,.737,1.643,1.643,0,.184-.08,.758-.599,2.544-.651-.243-1.439-.243-2.091,0-.517-1.786-.597-2.36-.597-2.545,0-.906,.737-1.643,1.643-1.643Zm-6.19,3.731c.205-.388,.548-.673,.968-.803,.418-.13,.864-.089,1.252,.117,.163,.086,.634,.425,1.972,1.719-.496,.443-.832,1.052-.948,1.736-.967,.055-2.648-.558-2.559-.548-.801-.423-1.108-1.419-.686-2.22Zm2.22,7.223c-.802,.421-1.797,.115-2.22-.686-.423-.801-.115-1.797,.686-2.22-.076,.007,1.578-.599,2.559-.548,.116,.684,.452,1.293,.949,1.737-1.338,1.292-1.81,1.631-1.973,1.718Zm1.97-3.955c0-1.103,.897-2,2-2s2,.897,2,2-.897,2-2,2-2-.897-2-2Zm.357,5.357c0-.184,.08-.758,.597-2.545,.651,.243,1.438,.243,2.09,0,.519,1.786,.599,2.36,.599,2.544,0,.906-.737,1.643-1.643,1.643s-1.643-.737-1.643-1.643ZM1.018,15.668c-.106-.341,.235-.715,.583-.67,6.538,.609,9.031,6.063,9.709,7.977-2.223-.145-8.577-1.104-10.292-7.307Zm21.963,0c-1.714,6.195-8.055,7.16-10.285,7.307,.696-1.905,3.245-7.375,9.701-7.977,.349-.045,.69,.328,.583,.67Z"/>
</svg>
