<svg id="Layer_1" viewBox="0 0 24 24" xmlns="http://www.w3.org/2000/svg" data-name="Layer 1"><path d="m21.609 11.531c1.458-1.193 2.391-3.005 2.391-5.031 0-3.584-2.916-6.5-6.5-6.5s-6.5 2.916-6.5 6.5c0 1.746.696 3.331 1.821 4.5h-8.321c-2.481 0-4.5 2.019-4.5 4.5v4c0 2.481 2.019 4.5 4.5 4.5h15c2.481 0 4.5-2.019 4.5-4.5v-4c0-1.702-.936-3.201-2.391-3.969zm-4.109-10.531c3.032 0 5.5 2.468 5.5 5.5s-2.468 5.5-5.5 5.5-5.5-2.468-5.5-5.5 2.468-5.5 5.5-5.5zm5.5 18.5c0 1.93-1.57 3.5-3.5 3.5h-15c-1.93 0-3.5-1.57-3.5-3.5v-4c0-1.93 1.57-3.5 3.5-3.5h9.552c1.001.63 2.181 1 3.448 1 1.134 0 2.2-.293 3.129-.806 1.4.479 2.371 1.817 2.371 3.306zm-6-3.5v1h.808c.276 0 .5.224.5.5s-.224.5-.5.5h-.808v1h.808c.276 0 .5.224.5.5s-.224.5-.5.5h-.808c-.552 0-1-.448-1-1v-3c0-.552.448-1 1-1h.808c.276 0 .5.224.5.5s-.224.5-.5.5zm3.5-1h-.75c-.413 0-.75.337-.75.75v3.5c0 .413.337.75.75.75h.75c.827 0 1.5-.673 1.5-1.5v-2c0-.827-.673-1.5-1.5-1.5zm.5 3.5c0 .275-.225.5-.5.5h-.5v-3h.5c.275 0 .5.225.5.5zm-10-3v4c0 .276-.224.5-.5.5s-.5-.224-.5-.5v-4c0-.276.224-.5.5-.5s.5.224.5.5zm-7.5-.5h-.5c-.484 0-1 .351-1 1v3.5c0 .276.224.5.5.5s.5-.224.5-.5v-1.5h.5c.827 0 1.5-.673 1.5-1.5s-.673-1.5-1.5-1.5zm0 2h-.5v-1h.5c.275 0 .5.225.5.5s-.225.5-.5.5zm11.5-.5c0-.827-.673-1.5-1.5-1.5h-.5c-.484 0-1 .351-1 1v3.5c0 .276.224.5.5.5s.5-.224.5-.5v-1.5h.416l.615 1.673c.096.262.389.39.643.297.259-.096.392-.383.297-.643l-.593-1.615c.376-.273.624-.713.624-1.212zm-2-.5h.5c.275 0 .5.225.5.5s-.225.5-.5.5h-.5zm-5.5-1c-.827 0-1.5.673-1.5 1.5v3c0 .276.224.5.5.5s.5-.224.5-.5v-1h1v1c0 .276.224.5.5.5s.5-.224.5-.5v-3c0-.827-.673-1.5-1.5-1.5zm-.5 2.5v-1c0-.275.225-.5.5-.5s.5.225.5.5v1zm7.148-10.381c-.196-.193-.198-.51-.004-.707.193-.196.51-.198.707-.004l1.362 1.345c.336.33.886.326 1.222-.004l2.707-2.618c.198-.191.517-.187.707.012.192.198.187.515-.012.707l-2.703 2.614c-.359.355-.835.533-1.311.533s-.949-.177-1.312-.531l-1.364-1.347z"/></svg>