<?xml version="1.0" encoding="UTF-8"?>
<svg xmlns="http://www.w3.org/2000/svg" id="Layer_1" data-name="Layer 1" viewBox="0 0 24 24">
  <path d="m15.816,3.149c-.607-1.175-1.861-1.826-3.128-1.61C5.539,2.738,1.564,8.446.516,10.168c-.688,1.13-.688,2.534,0,3.664,1.048,1.722,5.023,7.43,12.171,8.629.16.027.32.04.479.04,1.094,0,2.12-.624,2.65-1.65.996-1.93,2.184-5.031,2.184-8.851s-1.188-6.921-2.184-8.851Zm.174,14.759c-2.85-.485-4.991-3.005-4.991-5.908s2.141-5.423,4.991-5.908c.303.874.563,1.862.747,2.935-1.53.135-2.737,1.409-2.737,2.973s1.208,2.838,2.737,2.973c-.184,1.072-.444,2.061-.747,2.935Zm-.991-5.908c0-1.06.831-1.922,1.876-1.987.073.639.124,1.296.124,1.987s-.051,1.349-.124,1.987c-1.044-.066-1.876-.927-1.876-1.987Zm-.072,8.392c-.407.788-1.24,1.222-2.075,1.083-6.73-1.129-10.49-6.533-11.482-8.162-.493-.81-.493-1.815,0-2.625.992-1.629,4.752-7.033,11.483-8.162.104-.018.208-.026.312-.026.724,0,1.407.42,1.763,1.109.23.446.471.961.704,1.532-3.28.647-5.632,3.481-5.632,6.859s2.352,6.213,5.632,6.859c-.233.572-.474,1.086-.704,1.532ZM19.886,1.515c-.365-.479-1.003-.598-1.519-.285-.516.314-.703.938-.445,1.484,1.359,2.877,2.077,6.089,2.077,9.286,0,3.233-.718,6.464-2.077,9.341-.258.546-.071,1.17.445,1.484.192.117.402.174.608.174.346,0,.682-.159.911-.459,2.768-3.617,4.114-7.064,4.114-10.54s-1.307-6.818-4.114-10.485Zm-.794,20.418c-.023.03-.087.108-.204.038-.122-.074-.076-.171-.061-.202,1.421-3.011,2.173-6.389,2.173-9.769,0-3.345-.751-6.703-2.173-9.714-.015-.031-.061-.128.061-.202.035-.021.065-.03.091-.03.061,0,.097.047.113.068h0c2.666,3.484,3.908,6.623,3.908,9.878,0,3.293-1.242,6.448-3.908,9.933Z"/>
</svg>
