<?xml version="1.0" encoding="UTF-8"?>
<svg xmlns="http://www.w3.org/2000/svg" id="Layer_1" data-name="Layer 1" viewBox="0 0 24 24">
  <path d="M12,9.256c-1.654,0-3,1.346-3,3s1.346,3,3,3,3-1.346,3-3-1.346-3-3-3Zm0,5c-1.103,0-2-.897-2-2s.897-2,2-2,2,.897,2,2-.897,2-2,2Zm10.11,.609c-.304-.094-1.315-.433-2.48-1.065,.988-.948,1.898-2.176,2.635-3.958,.525-1.269,.158-2.698-.915-3.557l-4.622-3.701c-.641-.512-1.471-.7-2.276-.518-.789,.179-1.438,.689-1.781,1.401-.462,.957-.984,1.708-1.544,2.343-.893-1.244-1.57-2.558-1.992-3.921-.355-1.148-1.346-1.89-2.523-1.89H2C.897,0,0,.897,0,2c0,.872,.564,1.607,1.344,1.88-.217,.32-.344,.705-.344,1.12,0,.872,.564,1.607,1.344,1.88-.217,.32-.344,.705-.344,1.12,0,1.103,.897,2,2,2h1.332c-1.204,.885-2.376,2.014-3.419,3.775-.767,1.296-.453,2.934,.746,3.894l4.671,3.74c.481,.386,1.08,.591,1.692,.591,.157,0,.314-.014,.471-.041,.734-.128,1.372-.554,1.75-1.168,.84-1.367,1.782-2.31,2.756-3.069v2.278c0,1.103,.897,2,2,2,.414,0,.8-.127,1.12-.344,.273,.78,1.009,1.344,1.88,1.344,.414,0,.8-.127,1.12-.344,.273,.78,1.009,1.344,1.88,1.344,1.103,0,2-.897,2-2v-4.611c0-1.178-.742-2.168-1.89-2.523ZM4,9c-.551,0-1-.449-1-1s.449-1,1-1h1.5c.276,0,.5-.224,.5-.5s-.224-.5-.5-.5H3c-.551,0-1-.449-1-1s.449-1,1-1h1.5c.276,0,.5-.224,.5-.5s-.224-.5-.5-.5H2c-.551,0-1-.449-1-1s.449-1,1-1H6.611c.741,0,1.342,.455,1.568,1.186,.471,1.52,1.23,2.98,2.238,4.354-.911,.835-1.904,1.443-2.929,2.063-.217,.131-.434,.263-.652,.397h-2.836Zm6.392,11.268c-.231,.376-.611,.627-1.069,.707-.489,.084-.986-.042-1.367-.346l-4.671-3.74c-.807-.646-1.021-1.741-.511-2.604,1.533-2.59,3.414-3.728,5.232-4.827,2.002-1.211,4.073-2.463,5.565-5.555,.21-.436,.611-.749,1.102-.86,.508-.115,1.03,.002,1.431,.322l4.622,3.701c.722,.579,.97,1.541,.616,2.394-1.386,3.35-3.382,4.557-5.495,5.834-1.877,1.135-3.817,2.308-5.455,4.973Zm12.608,1.732c0,.551-.448,1-1,1s-1-.449-1-1v-2.5c0-.276-.224-.5-.5-.5s-.5,.224-.5,.5v1.5c0,.551-.448,1-1,1s-1-.449-1-1v-2.5c0-.276-.224-.5-.5-.5s-.5,.224-.5,.5v1.5c0,.551-.448,1-1,1s-1-.449-1-1v-2.999c.454-.3,.911-.578,1.364-.851,.827-.5,1.664-1.01,2.469-1.65,1.377,.792,2.626,1.21,2.982,1.32,.731,.227,1.186,.827,1.186,1.568v4.611Z"/>
</svg>
