<svg id="Layer_1" viewBox="0 0 24 24" xmlns="http://www.w3.org/2000/svg" data-name="Layer 1"><path d="m6 10.808v-2.308c0-.276.224-.5.5-.5s.5.224.5.5v1.793l4.293-4.293-4.293-4.293v1.793c0 .276-.224.5-.5.5s-.5-.224-.5-.5v-2.308c0-.658.535-1.192 1.192-1.192h2.308c.276 0 .5.224.5.5s-.224.5-.5.5h-1.793l4.293 4.293 4.293-4.293h-1.793c-.276 0-.5-.224-.5-.5s.224-.5.5-.5h2.308c.657 0 1.192.535 1.192 1.192v2.308c0 .276-.224.5-.5.5s-.5-.224-.5-.5v-1.793l-4.293 4.293 4.293 4.293v-1.793c0-.276.224-.5.5-.5s.5.224.5.5v2.308c0 .658-.535 1.192-1.192 1.192h-2.308c-.276 0-.5-.224-.5-.5s.224-.5.5-.5h1.793l-4.293-4.293-4.293 4.293h1.793c.276 0 .5.224.5.5s-.224.5-.5.5h-2.308c-.657 0-1.192-.535-1.192-1.192zm14.625-8.666c-.271-.068-.54.092-.609.36-.068.267.092.54.359.609 1.546.398 2.625 1.792 2.625 3.39v8.999c0 1.93-1.57 3.5-3.5 3.5h-15c-1.93 0-3.5-1.57-3.5-3.5v-9c0-1.598 1.079-2.992 2.625-3.39.267-.069.428-.341.359-.609s-.339-.428-.609-.36c-1.987.512-3.375 2.304-3.375 4.359v9c0 2.481 2.019 4.5 4.5 4.5h7v3h-5c-.276 0-.5.224-.5.5s.224.5.5.5h11c.276 0 .5-.224.5-.5s-.224-.5-.5-.5h-5v-3h7c2.481 0 4.5-2.019 4.5-4.5v-9c0-2.054-1.388-3.847-3.375-4.358z"/></svg>