<?xml version="1.0" encoding="UTF-8"?>
<svg xmlns="http://www.w3.org/2000/svg" id="Layer_1" data-name="Layer 1" viewBox="0 0 24 24">
  <path d="m19.475,1.025H4.475C1.993,1.025-.025,3.044-.025,5.525v9c0,2.481,2.019,4.5,4.5,4.5h6c.276,0,.5-.224.5-.5s-.224-.5-.5-.5h-6c-1.93,0-3.5-1.57-3.5-3.5v-5.5h22v1.5c0,.276.224.5.5.5s.5-.224.5-.5v-5c0-2.481-2.019-4.5-4.5-4.5Zm-15,1h15c1.758,0,3.204,1.308,3.449,3H1.025c.245-1.692,1.691-3,3.449-3ZM.975,8.025v-2h22v2H.975Zm1.942,6c0,1.103.897,2,2,2s2-.897,2-2-.897-2-2-2-2,.897-2,2Zm3,0c0,.552-.448,1-1,1s-1-.448-1-1,.448-1,1-1,1,.448,1,1Zm16.058,1.351v-1.851c0-1.93-1.57-3.5-3.5-3.5s-3.5,1.57-3.5,3.5v1.851c-1.178.564-2,1.758-2,3.149v2c0,1.93,1.57,3.5,3.5,3.5h4c1.93,0,3.5-1.57,3.5-3.5v-2c0-1.391-.822-2.585-2-3.149Zm-6-1.851c0-1.378,1.121-2.5,2.5-2.5s2.5,1.122,2.5,2.5v1.551c-.165-.024-.329-.051-.5-.051h-4c-.171,0-.335.027-.5.051v-1.551Zm7,7c0,1.379-1.121,2.5-2.5,2.5h-4c-1.379,0-2.5-1.121-2.5-2.5v-2c0-1.379,1.121-2.5,2.5-2.5h4c1.379,0,2.5,1.121,2.5,2.5v2Zm-3.5-1c0,.552-.448,1-1,1s-1-.448-1-1,.448-1,1-1,1,.448,1,1Z"/>
</svg>
