<?xml version="1.0" encoding="UTF-8"?>
<svg xmlns="http://www.w3.org/2000/svg" id="Layer_1" data-name="Layer 1" viewBox="0 0 24 24">
  <path d="M24,13c0-2.797-1.206-4.976-3.479-6.319C19.342,2.713,16.073,0,12,0c-2.939,0-5.46,1.415-7.081,3.691C1.924,4.463,0,7.543,0,11.633c0,5.174,2.14,8.111,6.031,8.344l-.031,3.518c-.002,.276,.22,.502,.496,.504h.004c.274,0,.498-.221,.5-.496l.031-3.522c1.032-.06,1.69-.29,2.01-.44,.763,.249,1.587,.392,2.459,.434v3.524c0,.276,.224,.5,.5,.5s.5-.224,.5-.5v-3.524c.903-.043,1.753-.199,2.539-.464,.626,.259,1.284,.411,1.961,.463v3.524c0,.276,.224,.5,.5,.5s.5-.224,.5-.5v-3.524c3.556-.241,6-3.038,6-6.976ZM6.535,19c-4.575,0-5.535-4.006-5.535-7.367,0-3.056,1.177-5.444,3.072-6.512-.686,1.427-1.072,3.083-1.072,4.879,0,4.144,1.738,7.343,4.595,8.919-.295,.047-.643,.081-1.06,.081Zm5.965-5.793l3.354-3.354c.195-.195,.195-.512,0-.707s-.512-.195-.707,0l-2.646,2.646V7.5c0-.276-.224-.5-.5-.5s-.5,.224-.5,.5v4.293l-2.646-2.646c-.195-.195-.512-.195-.707,0s-.195,.512,0,.707l3.354,3.354v5.77c-4.571-.237-7.5-3.702-7.5-8.977-.041-4.711,3.148-8.994,8-9,4.561,0,8,3.869,8,9,0,5.275-2.929,8.74-7.5,8.977v-5.77Zm5,5.793c-.357,0-.708-.036-1.051-.103,2.831-1.584,4.551-4.774,4.551-8.897,0-.644-.056-1.267-.151-1.87,1.421,1.161,2.151,2.79,2.151,4.87,0,3.533-2.262,6-5.5,6Z"/>
</svg>
