<svg id="Layer_1" viewBox="0 0 24 24" xmlns="http://www.w3.org/2000/svg" data-name="Layer 1"><path d="m23.5 19h-4.303s-6.186-3.521-6.186-3.521l6.505-3.701c.622-.354.995-.993.998-1.709s-.364-1.357-.983-1.717l-6.534-3.791 6.129-3.556h4.375c.276.001.5-.222.5-.499s-.225-.499-.501-.499h-4.531c-.013 0-.026-.003-.039-.001l-18.43-.005c-.276-.001-.5.223-.5.499s.224.5.5.5h4.367s6.136 3.562 6.136 3.562l-6.534 3.791c-.619.359-.986 1.001-.983 1.717s.376 1.354.998 1.709l6.505 3.701-6.178 3.515h-4.311c-.276-.001-.5.222-.5.499s.224.5.5.5h1.5v1.007c0 1.654 1.346 3 3 3s3-1.346 3-3v-1.005l8 .002v1.002c0 1.654 1.346 3 3 3s3-1.346 3-3v-1h1.5c.276 0 .5-.223.5-.5s-.224-.5-.5-.5zm-16.638-17.998 10.272.003-5.133 2.978zm-1.883 9.907c-.307-.175-.491-.49-.492-.844-.002-.354.18-.671.485-.848l7.028-4.078 7.028 4.078c.306.177.487.494.485.848 0 .354-.186.669-.492.844l-7.021 3.995zm7.021 5.145 5.174 2.944-10.343-.003zm-5 4.946c0 1.103-.897 2-2 2s-2-.897-2-2v-1.006h4zm14 0c0 1.103-.897 2-2 2s-2-.897-2-2v-1.002h4z"/></svg>