<svg id="Layer_1" viewBox="0 0 24 24" xmlns="http://www.w3.org/2000/svg" data-name="Layer 1"><circle cx="15" cy="10" r="1"/><path d="m10.085 14c-.506 0-.795.612-.447.98.592.628 1.431 1.02 2.362 1.02s1.77-.392 2.362-1.02c.347-.368.059-.98-.447-.98h-3.831z"/><path d="m23.927 18.702-1.314-5.586s.004-.003.005-.005c.569-.561.882-1.31.882-2.113 0-1.321-.864-2.468-2.098-2.855-.665-4.666-4.646-8.143-9.402-8.143-6.575 0-8.703 4.96-10.11 8.243-.574 1.338-1.07 2.494-1.641 2.827-.195.114-.29.344-.231.562s.257.37.483.37c.22 0 3.705-.049 7.512-2.06-.001.021-.012.038-.012.059 0 .552.448 1 1 1s1-.448 1-1c0-.397-.236-.734-.572-.895 1.565-1.03 3.124-2.416 4.479-4.313.161-.225.108-.537-.116-.697s-.537-.107-.697.116c-3.64 5.095-8.986 6.368-11.37 6.686.373-.6.707-1.377 1.085-2.259 1.381-3.225 3.274-7.639 9.19-7.639 4.361 0 7.994 3.266 8.451 7.597.023.221.189.4.408.439.95.173 1.64.998 1.641 1.965 0 .53-.207 1.026-.584 1.397s-.878.579-1.405.564l-.429-.006c-.202.017-.407.131-.479.333-.969 2.747-4.15 5.709-7.6 5.709h-.002c-2.433 0-5.051-1.514-6.669-3.858-.494-.714-1.294-1.141-2.143-1.141-1.211 0-2.278.859-2.536 2.043l-.586 2.689c-.228 1.312.133 2.648.99 3.667s2.112 1.603 3.444 1.603h3.999c.269.006.505-.231.5-.5v-4.127c.982.405 2.004.626 3 .627 1.037 0 2.049-.242 3-.645v4.144c0 .276.224.5.5.5h3.999c1.332 0 2.586-.584 3.444-1.603.857-1.019 1.218-2.355.984-3.696zm-19.426 4.299c-1.036 0-2.012-.455-2.679-1.247s-.947-1.832-.774-2.831l.58-2.666c.159-.728.814-1.256 1.559-1.256.52 0 1.014.265 1.32.709.924 1.337 2.147 2.431 3.492 3.18v4.11h-3.499zm17.676-1.247c-.667.792-1.643 1.247-2.679 1.247h-3.499s0-4.137 0-4.137c2.027-1.161 3.658-3.052 4.417-4.902.469.017.918-.072 1.31-.246l1.221 5.186c.177 1.021-.104 2.06-.77 2.852z"/></svg>