<svg id="Layer_1" viewBox="0 0 24 24" xmlns="http://www.w3.org/2000/svg" data-name="Layer 1"><path d="m22.573 9c-.544 0-1.033.302-1.276.789l-.605 1.211h-3.872l.605-.865c.783-1.088.672-2.571-.291-3.55l-4.134-3.666c-.612-.623-1.455-.883-2.263-.771-.327-.318-.959-.888-1.271-1.104-1.991-1.376-4.68-1.408-6.694-.081-1.834 1.209-2.868 3.222-2.766 5.361 0 3.44.354 5.781 2.16 7.571.022.02 4.423 3.96 4.445 3.98.777.793 1.86 1.199 2.951 1.114 1.102-.084 2.108-.652 2.764-1.564l2.395-3.425h5.97l.605 1.211c.244.486.732.789 1.276.789.787 0 1.427-.64 1.427-1.427v-4.146c0-.787-.64-1.427-1.427-1.427zm-19.25-7.202c1.675-1.104 3.916-1.077 5.574.069.165.114.498.403.794.672-.082.052-.166.097-.243.159-.727.58-1.602 1.263-2.557 2.008-1.372 1.072-2.908 2.271-4.405 3.475-.572.46-.98 1.082-1.211 1.771-.185-.973-.27-2.151-.27-3.653-.085-1.806.781-3.489 2.317-4.502zm19.677 12.775c0 .235-.192.427-.427.427-.163 0-.309-.091-.382-.236l-.744-1.487c-.085-.169-.258-.276-.447-.276h-6.539c-.163 0-.316.08-.41.214l-2.541 3.633c-.479.666-1.218 1.084-2.025 1.146-.802.059-1.591-.237-2.185-.84l-4.427-3.964c-.563-.573-.858-1.366-.811-2.176.047-.805.43-1.553 1.05-2.052 1.492-1.201 3.024-2.397 4.394-3.466.958-.748 1.835-1.433 2.564-2.014.3-.24.66-.358 1.021-.358.438 0 .877.175 1.219.521l4.134 3.666c.585.597.658 1.561.164 2.247l-1.159 1.657c-.107.153-.12.353-.034.518.086.166.257.269.443.269h5.14c.189 0 .362-.107.447-.276l.744-1.487c.073-.146.219-.236.382-.236.235 0 .427.192.427.427v4.146zm-.283 3.429c-1.107.065-2.022.432-2.647 1.058-.24.24-.422.508-.569.786-.147-.278-.33-.547-.569-.786-.625-.626-1.541-.992-2.648-1.058-.343-.028-.683.109-.927.354s-.373.583-.352.926c.066 1.106.432 2.022 1.058 2.649.832.832 1.981 1.053 2.94 1.064v.504c0 .276.224.5.5.5s.5-.224.5-.5v-.504c.959-.011 2.108-.233 2.94-1.064.626-.627.992-1.543 1.058-2.648.021-.344-.108-.682-.352-.927-.246-.245-.586-.373-.928-.354zm-5.95 3.223c-.569-.569-.731-1.402-.767-2.002-.005-.08.037-.135.062-.159.024-.024.075-.063.149-.063h.012c.599.036 1.432.197 2 .767.621.621.767 1.544.776 2.23-.691-.013-1.619-.16-2.232-.772zm5.466 0c-.613.612-1.541.76-2.232.772.009-.687.155-1.609.776-2.23.568-.569 1.401-.73 1.999-.767h.013c.074 0 .125.039.149.063.025.024.067.079.062.16-.036.599-.198 1.432-.767 2.001z"/></svg>