<?xml version="1.0" encoding="UTF-8"?>
<svg xmlns="http://www.w3.org/2000/svg" id="Layer_1" data-name="Layer 1" viewBox="0 0 24 24">
  <path d="M7.732,8h8.537c.389,1.105,.665,2.287,.721,3.522,.012,.268,.232,.478,.499,.478,.007,0,.015,0,.022,0,.275-.012,.489-.246,.477-.522-.055-1.22-.298-2.386-.651-3.478h4.907c.426,1.098,.693,2.279,.746,3.521,.012,.275,.198,.494,.521,.478,.275-.012,.49-.245,.479-.521C23.714,5.042,18.447,0,12,0c-.005,0-.009,0-.013,0-.002,0-.004,0-.007,0C5.373,.012,0,5.39,0,12s5.383,12,12,12c1.245,0,2.474-.19,3.651-.565,.264-.084,.409-.365,.325-.628s-.367-.408-.628-.325c-1.017,.324-2.077,.492-3.151,.511-.556-.557-2.719-2.853-4.077-5.992h6.379c.276,0,.5-.224,.5-.5s-.224-.5-.5-.5H7.73c-.438-1.246-.73-2.593-.73-4s.292-2.753,.732-4Zm.391-1c1.229-2.838,3.116-4.99,3.878-5.788,.762,.798,2.648,2.951,3.877,5.788h-7.755Zm13.673,0h-4.82c-1.066-2.668-2.716-4.78-3.735-5.925,3.745,.418,6.914,2.703,8.555,5.925ZM10.76,1.075c-1.019,1.144-2.664,3.257-3.731,5.925H2.214C3.859,3.794,7.026,1.496,10.76,1.075Zm0,21.85c-3.734-.421-6.901-2.719-8.546-5.925H7.029c1.067,2.669,2.712,4.781,3.732,5.925ZM1.764,16c-.487-1.242-.764-2.588-.764-4s.277-2.758,.764-4H6.669c-.404,1.248-.669,2.589-.669,4s.265,2.752,.669,4H1.764Zm22.236,4.605c0,1.32-1.074,2.395-2.395,2.395h-.605v.5c0,.276-.224,.5-.5,.5s-.5-.224-.5-.5v-.5h-.5c-1.379,0-2.5-1.121-2.5-2.5,0-.276,.224-.5,.5-.5s.5,.224,.5,.5c0,.827,.673,1.5,1.5,1.5h2.105c.769,0,1.395-.626,1.395-1.395,0-.685-.49-1.264-1.165-1.376l-2.834-.473c-1.159-.193-2.001-1.187-2.001-2.362,0-1.32,1.074-2.395,2.395-2.395h.605v-.5c0-.276,.224-.5,.5-.5s.5,.224,.5,.5v.5h.5c1.379,0,2.5,1.121,2.5,2.5,0,.276-.224,.5-.5,.5s-.5-.224-.5-.5c0-.827-.673-1.5-1.5-1.5h-2.105c-.769,0-1.395,.626-1.395,1.395,0,.685,.49,1.264,1.165,1.376l2.834,.473c1.159,.193,2.001,1.187,2.001,2.362Z"/>
</svg>
