<?xml version="1.0" encoding="UTF-8"?>
<svg xmlns="http://www.w3.org/2000/svg" id="Layer_1" data-name="Layer 1" viewBox="0 0 24 24">
  <path d="m21.5,10h-3.615L13.507,1.303c-.438-.804-1.279-1.303-2.195-1.303h-.183c-.676,0-1.296.31-1.702.851-.406.54-.531,1.223-.343,1.871l2.109,7.278h-4.071c-.935,0-1.814-.364-2.475-1.025l-1.417-1.417c-.587-.586-1.485-.725-2.233-.342-.443.228-.768.624-.915,1.117-.156.524-.089,1.099.183,1.574l1.614,2.825c.8,1.398,2.297,2.268,3.907,2.268h5.252l-2.39,5.848c-.269.717-.168,1.52.267,2.148.436.629,1.153,1.004,1.918,1.004,1.006,0,1.931-.549,2.399-1.408l4.736-7.592h3.529c1.378,0,2.5-1.121,2.5-2.5s-1.122-2.5-2.5-2.5ZM10.045,2.444c-.1-.345-.034-.707.182-.993.215-.287.544-.451.902-.451h.183c.55,0,1.054.3,1.309.767l4.144,8.233h-4.531l-2.189-7.556Zm11.455,11.556h-3.807c-.172,0-.333.089-.424.235l-4.898,7.853c-.307.562-.896.912-1.536.912-.444,0-.843-.209-1.096-.574-.252-.364-.308-.812-.158-1.213l2.666-6.523c.063-.154.045-.33-.048-.468-.093-.139-.249-.222-.415-.222h-5.997c-1.252,0-2.417-.676-3.039-1.764l-1.614-2.825c-.137-.24-.171-.529-.093-.794.068-.229.214-.409.412-.511.141-.072.289-.107.435-.107.234,0,.46.091.636.266l1.417,1.417c.85.851,1.98,1.318,3.182,1.318h14.377c.827,0,1.5.673,1.5,1.5s-.673,1.5-1.5,1.5Z"/>
</svg>
