<svg id="Layer_1" viewBox="0 0 24 24" xmlns="http://www.w3.org/2000/svg" data-name="Layer 1"><path d="m5.977 5h5.111c2.709 0 4.912 2.467 4.912 5.5 0 1.666-.669 3.227-1.836 4.284-.204.186-.22.501-.035.706.188.207.504.221.707.035 1.375-1.246 2.164-3.076 2.164-5.023 0-3.215-2.135-5.885-4.926-6.404.103-.08.207-.159.302-.254.813-.813 1.053-1.939 1.11-2.741.059-.598-.496-1.148-1.089-1.088-.801.057-1.927.295-2.742 1.11-.421.421-.682.933-.853 1.431-.237-1.129-.632-1.87-.863-2.294-.132-.243-.436-.332-.679-.2-.242.132-.332.436-.2.678.3.55.83 1.541.921 3.261h-2.005c-3.295-.001-5.976 2.915-5.976 6.499 0 2.886 1.789 5.458 4.352 6.255.257.081.545-.063.626-.329.082-.264-.065-.544-.329-.626-2.148-.668-3.648-2.847-3.648-5.298 0-3.034 2.232-5.502 4.977-5.502zm4.385-3.168c.628-.628 1.589-.783 2.12-.814.007.006.007.011.006.014-.037.517-.192 1.479-.819 2.105-.623.623-1.578.799-2.154.848.049-.575.226-1.531.848-2.153zm13.138 16.168h-.5v-1.5c0-.827-.673-1.5-1.5-1.5-.176 0-.343.036-.5.092v-.592c0-.827-.673-1.5-1.5-1.5s-1.5.673-1.5 1.5v3.5h-6v-3.5c0-.827-.673-1.5-1.5-1.5s-1.5.673-1.5 1.5v.592c-.157-.056-.324-.092-.5-.092-.827 0-1.5.673-1.5 1.5v1.5h-.5c-.276 0-.5.224-.5.5s.224.5.5.5h.5v1.5c0 .827.673 1.5 1.5 1.5.176 0 .343-.036.5-.092v.592c0 .827.673 1.5 1.5 1.5s1.5-.673 1.5-1.5v-3.5h6v3.5c0 .827.673 1.5 1.5 1.5s1.5-.673 1.5-1.5v-.592c.157.056.324.092.5.092.827 0 1.5-.673 1.5-1.5v-1.5h.5c.276 0 .5-.224.5-.5s-.224-.5-.5-.5zm-15 3c-.275 0-.5-.224-.5-.5v-4c0-.276.225-.5.5-.5s.5.224.5.5v4c0 .276-.225.5-.5.5zm2.5 1.5c0 .276-.225.5-.5.5s-.5-.224-.5-.5v-8c0-.276.225-.5.5-.5s.5.224.5.5zm9 0c0 .276-.225.5-.5.5s-.5-.224-.5-.5v-8c0-.276.225-.5.5-.5s.5.224.5.5zm2-2c0 .276-.225.5-.5.5s-.5-.224-.5-.5v-4c0-.276.225-.5.5-.5s.5.224.5.5z"/></svg>