<?xml version="1.0" encoding="UTF-8"?>
<svg xmlns="http://www.w3.org/2000/svg" id="Layer_1" data-name="Layer 1" viewBox="0 0 24 24">
  <path d="m19.5,0H4.5C2.019,0,0,2.019,0,4.5v15c0,2.481,2.019,4.5,4.5,4.5h15c2.481,0,4.5-2.019,4.5-4.5V4.5c0-2.481-2.019-4.5-4.5-4.5Zm-2.5,11.5h-4.5v-4.5h4.5v4.5Zm1-4.5h5v4.5h-5v-4.5Zm-5.5-1V1h4.5v5h-4.5Zm-1,0h-4.5V1h4.5v5Zm0,1v4.5h-4.5v-4.5h4.5Zm-5.5,4.5H1v-4.5h5v4.5Zm-5,1h5v4.5H1v-4.5Zm6,0h4.5v4.5h-4.5v-4.5Zm4.5,5.5v5h-4.5v-5h4.5Zm1,0h4.5v5h-4.5v-5Zm0-1v-4.5h4.5v4.5h-4.5Zm5.5-4.5h5v4.5h-5v-4.5Zm5-8v1.5h-5V1h1.5c1.93,0,3.5,1.57,3.5,3.5ZM4.5,1h1.5v5H1v-1.5c0-1.93,1.57-3.5,3.5-3.5ZM1,19.5v-1.5h5v5h-1.5c-1.93,0-3.5-1.57-3.5-3.5Zm18.5,3.5h-1.5v-5h5v1.5c0,1.93-1.57,3.5-3.5,3.5Z"/>
</svg>
