<?xml version="1.0" encoding="UTF-8"?>
<svg xmlns="http://www.w3.org/2000/svg" id="Layer_1" data-name="Layer 1" viewBox="0 0 24 24">
  <path d="m23.181,9.655c-.496-.452-1.141-.675-1.809-.652-.67.032-1.288.322-1.739.818l-3.732,4.102c-.314-1.108-1.335-1.923-2.543-1.923H3.5c-1.93,0-3.5,1.57-3.5,3.5v5c0,1.93,1.57,3.5,3.5,3.5h5.965c2.706,0,5.291-1.159,7.093-3.18l6.806-7.64c.911-1.022.829-2.604-.183-3.526Zm-.563,2.861l-6.806,7.639c-1.612,1.809-3.925,2.846-6.347,2.846H3.5c-1.378,0-2.5-1.121-2.5-2.5v-5c0-1.379,1.122-2.5,2.5-2.5h9.857c.905,0,1.643.737,1.643,1.643,0,.812-.605,1.511-1.398,1.624l-6.161.737c-.274.032-.47.281-.437.556.033.273.274.479.556.437l6.172-.738c1.022-.146,1.846-.879,2.146-1.824l4.496-4.94c.271-.298.643-.473,1.046-.492.403-.02.79.12,1.088.393.609.555.658,1.506.11,2.122Zm-17.918-2.517l6.606.016c.719,0,1.396-.28,1.906-.789.512-.509.793-1.188.793-1.912V2.501c0-.64-.39-1.194-.996-1.414-.606-.216-1.269-.022-1.703.516l-.887,1.22-1.068-1.258c-.758-.751-1.964-.724-2.775.092l-.992,1.175-1-1.342c-.066-.088-.145-.166-.232-.227-.403-.288-.981-.329-1.476-.104-.537.248-.87.769-.87,1.361v4.779c0,1.486,1.209,2.697,2.694,2.7Zm-1.694-7.479c0-.2.108-.369.285-.451.08-.036.163-.052.239-.052.101,0,.191.027.251.072l1.377,1.847c.091.123.233.196.386.201.161.003.299-.061.397-.177l1.371-1.626c.388-.39.975-.416,1.306-.09l1.45,1.712c.099.117.238.189.4.176.153-.005.295-.082.386-.206l1.245-1.714c.152-.188.368-.256.573-.183.206.074.333.255.333.472v4.813c0,.456-.177.883-.499,1.204s-.748.497-1.201.497l-6.604-.016c-.936-.001-1.696-.764-1.696-1.7V2.52Z"/>
</svg>
