<svg id="Layer_1" viewBox="0 0 24 24" xmlns="http://www.w3.org/2000/svg" data-name="Layer 1"><path d="m12.617 13c1.912 0 3.628 1.064 4.48 2.777.123.247.022.548-.225.67-.242.123-.547.025-.67-.225-.681-1.371-2.055-2.223-3.584-2.223s-2.903.852-3.584 2.223c-.123.247-.421.351-.67.225-.247-.122-.348-.423-.225-.67.852-1.713 2.568-2.777 4.48-2.777zm-9-5c-1.657 0-3-1.343-3-3v-1.999c0-1.657 1.343-3.001 3-3.001h3c1.657.001 3 1.345 2.999 3.002l-.002 5.771c0 .638-.524 1.088-1.089 1.088-.196 0-.397-.054-.583-.173l-2.454-1.69h-1.872zm0-1h1.872c.203 0 .4.061.567.176l2.414 1.662c.071.048.145.019.145-.064l.002-5.771c0-.534-.208-1.036-.585-1.414-.378-.378-.88-.586-1.414-.586h-3c-1.103 0-2.001.896-2.001 1.999v1.999c0 1.103.897 2 2 2zm18.499 7.506-.748-.424c.166-.692.25-1.391.25-2.082s-.084-1.39-.25-2.082l.748-.423c1.183-.638 1.63-2.252.944-3.407-.637-1.183-2.252-1.633-3.407-.944l-.751.425c-1.063-1.04-2.358-1.795-3.784-2.207v-.861c0-1.379-1.122-2.5-2.5-2.5-.61 0-1.197.222-1.653.625-.207.184-.227.499-.043.706.184.208.5.228.706.044.273-.242.625-.375.991-.375.827 0 1.5.673 1.5 1.5v1.246c0 .23.158.432.382.486 1.514.366 2.879 1.162 3.949 2.303.158.168.411.206.611.093l1.085-.614c.692-.413 1.662-.143 2.044.566.412.694.144 1.661-.566 2.045l-1.083.613c-.201.113-.297.35-.234.571.207.728.312 1.464.312 2.19s-.105 1.463-.312 2.19c-.063.222.034.458.234.571l1.083.614c.71.383.978 1.35.566 2.044-.383.71-1.35.977-2.044.565l-1.085-.614c-.199-.11-.452-.074-.611.094-1.07 1.141-2.435 1.937-3.949 2.303-.224.055-.382.256-.382.486v1.246c0 .827-.673 1.5-1.5 1.5s-1.5-.673-1.5-1.5v-1.246c0-.23-.158-.432-.382-.486-1.514-.366-2.879-1.162-3.949-2.303-.158-.169-.412-.206-.611-.094l-1.086.615c-.695.41-1.661.144-2.044-.566-.412-.694-.144-1.661.566-2.045l1.083-.613c.201-.113.297-.35.234-.571-.207-.728-.312-1.464-.312-2.19 0-.484.045-.929.142-1.399.056-.271-.119-.535-.389-.591-.272-.057-.535.12-.59.39-.111.539-.162 1.047-.162 1.601 0 .691.084 1.39.25 2.082l-.748.423c-1.183.638-1.63 2.252-.944 3.407.636 1.185 2.253 1.63 3.407.944l.751-.426c1.064 1.041 2.359 1.796 3.784 2.208v.861c0 1.379 1.122 2.5 2.5 2.5s2.5-1.121 2.5-2.5v-.861c1.425-.412 2.72-1.167 3.784-2.208l.75.425c1.155.688 2.77.241 3.407-.943.686-1.155.239-2.77-.943-3.406zm-9.499-2.506c1.654 0 3-1.346 3-3s-1.346-3-3-3c-.205 0-.405.021-.598.06-.271.054-.447.317-.393.588s.32.448.588.393c.13-.025.265-.04.402-.04 1.103 0 2 .897 2 2s-.897 2-2 2c-.437 0-.852-.138-1.199-.399-.222-.167-.535-.122-.7.099-.166.221-.122.534.099.7.522.393 1.145.601 1.801.601z"/></svg>