<?xml version="1.0" encoding="UTF-8"?>
<svg xmlns="http://www.w3.org/2000/svg" id="Layer_1" data-name="Layer 1" viewBox="0 0 24 24">
  <path d="m11.777,10.947c.07.035.147.053.224.053.063,0,.126-.012.187-.036,1.012-.407,4.312-1.994,4.312-5.333v-2.467c0-1.079-.688-2.033-1.713-2.373l-2-.663c-.508-.168-1.066-.168-1.573,0l-2,.663c-1.025.34-1.713,1.293-1.713,2.373v2.467c0,2.949,3.274,4.815,4.277,5.317Zm-3.277-7.784c0-.647.413-1.22,1.028-1.424l2-.663c.152-.05.312-.076.472-.076s.32.025.472.076l2,.663c.614.204,1.027.776,1.027,1.424v2.467c0,2.522-2.439,3.863-3.477,4.318-.911-.488-3.523-2.082-3.523-4.318v-2.467Zm15.5,16.337c0,.276-.224.5-.5.5h-5.203l-4.201,3.279c-.596.465-1.34.721-2.096.721s-1.5-.256-2.096-.721l-4.201-3.279H.5c-.276,0-.5-.224-.5-.5s.224-.5.5-.5h5.375c.111,0,.22.037.308.105l4.337,3.385c.842.658,2.119.658,2.961,0l3.797-2.963-3.803-3.38c-.202-.183-.504-.17-.692.02l-1.263,1.281c-.588.586-1.539.587-2.123.003-.585-.585-.585-1.537,0-2.122l1.931-1.909-.989-.901c-.367-.334-.842-.518-1.338-.518-.215,0-.687.06-1.691.464-.885.356-1.797.536-2.71.536H.5c-.276,0-.5-.224-.5-.5s.224-.5.5-.5h4.098c.785,0,1.571-.156,2.337-.464.885-.356,1.572-.536,2.041-.536.769,0,1.483.276,2.035.779l1.028.936.922-.912c.547-.515,1.274-.803,2.038-.803.501,0,1.343.214,2.503.637.663.241,1.37.363,2.104.363h3.894c.276,0,.5.224.5.5s-.224.5-.5.5h-3.894c-.851,0-1.673-.143-2.445-.424-1.006-.366-1.794-.576-2.161-.576-.508,0-.992.192-1.362.541l-3.534,3.495c-.195.195-.195.513,0,.708.195.193.513.194.708,0l1.259-1.278c.563-.572,1.475-.6,2.07-.064l4.05,3.6h5.31c.276,0,.5.224.5.5Z"/>
</svg>
