<svg id="Layer_1" viewBox="0 0 24 24" xmlns="http://www.w3.org/2000/svg" data-name="Layer 1"><path d="m24 14.5v8.999c0 .276-.224.5-.5.5s-.5-.224-.5-.5v-8.999c0-.551-.449-1-1-1s-1 .449-1 1v2c0 .276-.224.5-.5.5s-.5-.224-.5-.5v-4.499c0-.551-.449-1-1-1s-1 .449-1 1v4.499c0 .276-.224.5-.5.5s-.5-.224-.5-.5v-5.499c0-.551-.449-1-1-1s-1 .449-1 1v5.499c0 .276-.224.5-.5.5s-.5-.224-.5-.5v-4.499c0-.551-.449-1-1-1s-1 .449-1 1v6.312c0 .628-.759.942-1.203.498l-.347-.347c-.519-.518-1.32-.616-1.86-.226-.701.475-.788 1.542-.182 2.124s.003.002.004.003l2.668 2.779c.308.321.081.854-.364.854-.138 0-.27-.056-.365-.156l-2.654-2.777c-1.033-.999-.884-2.823.308-3.639.88-.633 2.132-.545 2.995.186v-5.612c0-1.103.897-2 2-2 .415 0 .8.127 1.12.344.273-.78 1.008-1.344 1.88-1.344s1.607.564 1.88 1.344c.32-.217.705-.344 1.12-.344 1.103 0 2 .897 2 2v.778c.295-.172.634-.278 1-.278 1.103 0 2 .897 2 2zm-6.063-10.687c-.273-.371-.304-.852-.079-1.256.957-1.715 2.451-2.622 4.183-2.555 1.071 0 1.958.887 1.958 1.978s-.888 1.978-1.979 1.978c-1.081-.002-1.983.082-2.95.287-.426.092-.872-.071-1.135-.432zm.804-.594c.047.063.103.051.124.047 1.039-.22 2.011-.311 3.16-.308.537 0 .976-.439.976-.978s-.439-.978-.979-.978c-1.667-.09-2.771 1.07-3.29 2.042-.046.083-.009.15.01.175zm-13.941 14.881c.221.166.265.479.1.7-.167.222-.481.264-.7.1-2.666-2.004-4.188-5.074-4.2-8.4-.007-5.828 4.808-10.508 10.5-10.498 1.834.025 3.662.479 5.25 1.405.239.138.321.444.182.683s-.444.32-.683.182c-.73-.422-1.513-.741-2.325-.954 1.243 1.534 2.228 3.24 2.856 5.017.092.26-.045.546-.305.638-.254.091-.546-.042-.638-.305-.713-2.019-1.909-3.95-3.451-5.608-.294-.028-.588-.058-.885-.058-1.43 0-2.781.326-3.999.894 2.204 1.538 3.751 3.861 4.289 6.505.055.271-.12.535-.391.59-.264.055-.536-.118-.59-.391-.204-1.007-.571-1.963-1.075-2.838-3.436 2.318-5.694 5.354-6.715 9.032.648 1.278 1.587 2.41 2.781 3.306zm-3.364-4.782c1.219-3.378 3.487-6.196 6.753-8.395-.717-.987-1.629-1.829-2.686-2.486-2.698 1.677-4.503 4.66-4.503 8.063 0 .975.159 1.918.436 2.818zm7.459-1.671c-.195-.195-.512-.197-.707 0-1.307 1.303-2.27 2.983-2.711 4.731-.067.268.095.539.363.607.261.067.54-.093.607-.363.397-1.575 1.266-3.091 2.447-4.268.195-.195.196-.511 0-.707zm14.56-4.831c.721.674.715 1.988-.012 2.655-.668.698-1.976.697-2.645-.007-.717-.727-1.376-1.265-2.207-1.802-.344-.222-.529-.628-.472-1.035.055-.398.326-.718.707-.834 1.852-.565 3.493-.202 4.629 1.023zm-2.985-.284c-.484 0-.95.094-1.351.217.899.643 1.631 1.241 2.389 2.01.303.303.928.305 1.236-.002.344-.313.333-.952-.014-1.252-.677-.735-1.492-.972-2.26-.972z"/></svg>