<svg id="Layer_1" viewBox="0 0 24 24" xmlns="http://www.w3.org/2000/svg" data-name="Layer 1"><path d="m21.5 8c-1.378 0-2.5 1.122-2.5 2.5s1.122 2.5 2.5 2.5c.476 0 .918-.141 1.297-.373-.995 5.396-5.681 9.774-11.49 10.369-.205.026-.405-.044-.561-.185s-.246-.342-.246-.551v-2.295c3.608-.178 6.816-2.235 8.448-5.495.124-.247.023-.547-.224-.671-.247-.123-.547-.024-.671.224-1.537 3.07-4.623 4.977-8.053 4.977-4.962 0-9-4.038-9-9s4.038-9 9-9c3.715 0 7 2.231 8.37 5.684.102.257.395.383.649.281.257-.102.382-.393.281-.649-1.522-3.837-5.172-6.316-9.3-6.316-5.514 0-10 4.486-10 10 0 5.345 4.219 9.712 9.5 9.975v2.286c0 .491.21.962.576 1.293.319.289.734.447 1.159.447 7.123-.61 12.771-6.611 12.765-13.5 0-1.378-1.122-2.5-2.5-2.5zm0 4c-.827 0-1.5-.673-1.5-1.5s.673-1.5 1.5-1.5 1.5.673 1.5 1.5-.673 1.5-1.5 1.5zm-11.571-7.99c-.327.062-.599.27-.745.569-.306.628-.456 1.302-.589 1.896-.262 1.176-.405 1.518-.802 1.53-.031-.021-.127-.15-.209-.485-.076-.31-.328-.542-.642-.592-.312-.048-.626.092-.796.362-.664 1.063-1.146 2.62-1.146 3.703-.01 2.788 2.285 5 5 5s5.011-2.212 5-5c0-2.406-2.264-4.985-4.164-6.725-.248-.227-.577-.321-.907-.258zm.778 10.69c-.39.39-1.024.39-1.414 0s-.39-1.025 0-1.415l.707-.707.707.707c.39.39.39 1.025 0 1.415zm3.293-3.707c0 1.501-.841 2.796-2.067 3.48.162-.658-.006-1.381-.519-1.895l-.769-.769c-.344-.344-.945-.345-1.291 0l-.769.769c-.513.513-.682 1.237-.519 1.895-1.226-.684-2.067-1.979-2.067-3.48 0-.776.316-1.894.766-2.769.27.624.67.769.984.769 1.308 0 1.581-1.222 1.821-2.3.126-.567.257-1.153.589-1.688 1.434 1.313 3.839 3.838 3.839 5.988z"/></svg>