<?xml version="1.0" encoding="UTF-8"?>
<svg xmlns="http://www.w3.org/2000/svg" id="Layer_1" data-name="Layer 1" viewBox="0 0 24 24">
  <path d="m7,9.5v14c0,.276-.224.5-.5.5s-.5-.224-.5-.5v-14c0-.276.224-.5.5-.5s.5.224.5.5Zm-5.5,2.5c-.276,0-.5.224-.5.5v11c0,.276.224.5.5.5s.5-.224.5-.5v-11c0-.276-.224-.5-.5-.5Zm10-6c-.276,0-.5.224-.5.5v17c0,.276.224.5.5.5s.5-.224.5-.5V6.5c0-.276-.224-.5-.5-.5Zm10,3c.276,0,.5-.224.5-.5V.5c0-.276-.224-.5-.5-.5s-.5.224-.5.5v8c0,.276.224.5.5.5Zm-5,2c.276,0,.5-.224.5-.5V3.5c0-.276-.224-.5-.5-.5s-.5.224-.5.5v7c0,.276.224.5.5.5Zm7.036,9.005c-.271-.039-.527.15-.566.424-.21,1.465-1.486,2.571-2.97,2.571-1.654,0-3-1.346-3-3h2.5c.276,0,.5-.224.5-.5s-.224-.5-.5-.5h-2.5v-2h2.5c.276,0,.5-.224.5-.5s-.224-.5-.5-.5h-2.5c0-1.654,1.346-3,3-3,1.483,0,2.76,1.105,2.97,2.571.039.274.296.458.566.424.273-.04.463-.292.424-.566-.28-1.955-1.982-3.429-3.96-3.429-2.206,0-4,1.794-4,4h-.5c-.276,0-.5.224-.5.5s.224.5.5.5h.5v2h-.5c-.276,0-.5.224-.5.5s.224.5.5.5h.5c0,2.206,1.794,4,4,4,1.978,0,3.68-1.474,3.96-3.429.039-.273-.15-.526-.424-.566Z"/>
</svg>
