<?xml version="1.0" encoding="UTF-8"?>
<svg xmlns="http://www.w3.org/2000/svg" id="Layer_1" data-name="Layer 1" viewBox="0 0 24 24">
  <path d="m8,12c3.309,0,6-2.691,6-6S11.309,0,8,0,2,2.691,2,6s2.691,6,6,6Zm0-11c2.757,0,5,2.243,5,5s-2.243,5-5,5-5-2.243-5-5S5.243,1,8,1Zm4.9,15.301c-.165.22-.477.267-.7.099-1.218-.915-2.671-1.399-4.2-1.399-3.859,0-7,3.141-7,7v1.5c0,.276-.224.5-.5.5s-.5-.224-.5-.5v-1.5c0-4.411,3.589-8,8-8,1.748,0,3.408.554,4.802,1.601.221.166.265.479.099.7Zm10.514.613l-3.548,3.548c-.098.098-.226.146-.354.146s-.256-.049-.354-.146c-.195-.195-.195-.512,0-.707l3.548-3.548c.063-.063.116-.133.159-.207h-4.366c-1.93,0-3.5,1.57-3.5,3.5v4c0,.276-.224.5-.5.5s-.5-.224-.5-.5v-4c0-2.481,2.019-4.5,4.5-4.5h4.366c-.043-.074-.096-.144-.159-.207l-3.548-3.548c-.195-.195-.195-.512,0-.707s.512-.195.707,0l3.548,3.548c.779.779.779,2.049,0,2.828Z"/>
</svg>
