<?xml version="1.0" encoding="UTF-8"?>
<svg xmlns="http://www.w3.org/2000/svg" id="Layer_1" data-name="Layer 1" viewBox="0 0 24 24">
  <path d="M21,6h0c-1.326-.994-2.794-1.783-4.355-2.338l-2.153-.766,.004-.616c.003-.487-.239-.942-.644-1.212-.51-.34-1.179-.322-1.67,.046l-1.181,.886h-1l-.92-1.329c-.297-.43-.781-.671-1.281-.671-.308-.016-.681,.151-.968,.26-.597,.228-.999,.799-1,1.438,0,.468,.177,1.266-.024,1.34-.27,.067-.499-.234-.749-.57-.223-.318-.577-.492-.937-.492-.213,0-.428,.061-.62,.188-.314,.209-.502,.561-.502,.938v2.396l-1.284,.963c-.45,.338-.716,.868-.716,1.431,0,.678,.383,1.297,.989,1.6,.417,.204,.952,.534,1.433,.506h2.578v1c0,.552,.448,1,1,1h1v1c0,.5,.5,1,1,1v1.257c0,.796,.316,1.559,.879,2.121l1.121,1.121v1s-.961,.586-1.5,1c-.586,.45-.673,1.315-.175,1.86,.354,.388,1.093,.94,1.502,1.271,.628,.509,1.55,.498,2.14-.07,.777-.749,1.878-2.416,2.322-4.16,.366-1.315,.856-2.232,2.212-2.401,.383-.048,2.5-1.383,2.5-4.5v-.5c.341-.341,1.489-1.12,2.269-1.758,.465-.38,.732-.947,.732-1.548v-.694c0-1.105-.896-2-2-2Zm1,2.694c0,.302-.133,.584-.365,.774-.334,.273-2.115,1.597-2.342,1.825-.333,.291-.301,.807-.293,1.207,0,2.437-1.499,3.393-1.724,3.521-1.914,.284-2.567,1.729-2.958,3.133-.375,1.475-1.334,3-2.046,3.686-.375,.355-.819,.05-1.137-.242-.359-.283-.851-.671-1.072-.914-.101-.147-.09-.257,.046-.392,.49-.376,1.403-.934,1.412-.939,.298-.182,.479-.505,.479-.854v-1c0-.265-.105-.52-.293-.707l-1.121-1.121c-.378-.378-.586-.88-.586-1.414v-1.257c.01-.521-.436-.986-.956-.999-.015-.01-.033-.028-.044-.043v-.958c0-.552-.448-1-1-1h-1v-1c0-.552-.448-1-1-1H3.422c-.259,.023-.757-.303-.986-.4-.269-.134-.436-.405-.436-.706,0-.247,.118-.483,.316-.631l1.284-.963c.252-.189,.4-.485,.4-.8V3.104c.006-.123,.15-.182,.239-.062,.303,.433,.787,1.01,1.493,1.01,.143,0,.284-.025,.417-.073,.866-.315,.775-1.245,.714-1.86-.055-.364-.075-.773,.326-.924,.33-.147,.823-.347,1.069,.046l.92,1.329c.187,.27,.494,.431,.822,.431h1c.216,0,.427-.07,.6-.2l1.181-.886c.304-.228,.718,.006,.714,.36l-.004,.616c-.003,.425,.264,.806,.665,.948l2.153,.766c1.468,.522,2.844,1.261,4.091,2.196,.173,.13,.384,.2,.6,.2,.551,0,1,.449,1,1v.694Z"/>
</svg>
