<?xml version="1.0" encoding="UTF-8"?>
<svg xmlns="http://www.w3.org/2000/svg" id="Layer_1" data-name="Layer 1" viewBox="0 0 24 24">
  <path d="M0,9.5c0-.276,.224-.5,.5-.5H3.025c.104-1.338,.635-2.633,1.558-3.71l-1.937-1.937c-.195-.195-.195-.512,0-.707s.512-.195,.707,0l1.937,1.937c1.076-.923,2.372-1.454,3.71-1.558V.5c0-.276,.224-.5,.5-.5s.5,.224,.5,.5V3.033c1.273,.098,2.527,.552,3.589,1.414,.08,.063,.211,.046,.295-.038l1.763-1.763c.195-.195,.512-.195,.707,0s.195,.512,0,.707l-1.763,1.763c-.452,.45-1.152,.497-1.632,.107-2.192-1.777-5.351-1.61-7.348,.388-1.998,1.998-2.164,5.157-.388,7.349,.39,.479,.344,1.181-.107,1.631l-1.763,1.763c-.098,.098-.226,.146-.354,.146s-.256-.049-.354-.146c-.195-.195-.195-.512,0-.707l1.763-1.763c.084-.084,.101-.216,.038-.294-.861-1.062-1.315-2.317-1.413-3.59H.5c-.276,0-.5-.224-.5-.5ZM23.954,.046c-.195-.195-.512-.195-.707,0L.046,23.246c-.195,.195-.195,.512,0,.707,.098,.098,.226,.146,.354,.146s.256-.049,.354-.146L23.954,.753c.195-.195,.195-.512,0-.707Zm-.56,21.108c-1.863-.942-3.021-2.821-3.021-4.904s1.157-3.962,3.02-4.904c.373-.188,.604-.57,.606-.995,.001-.423-.227-.805-.597-.995-1.541-.794-3.273-1.044-5.012-.716-.271,.051-.45,.312-.399,.583,.051,.272,.314,.452,.583,.399,1.517-.284,3.027-.069,4.37,.623,.047,.025,.055,.075,.055,.103,0,.029-.008,.081-.058,.106-2.201,1.114-3.568,3.334-3.568,5.796s1.368,4.684,3.569,5.797c.05,.025,.058,.077,.058,.105,0,.028-.007,.078-.054,.103-.959,.494-1.993,.745-3.073,.745-3.724,0-6.807-2.92-6.873-6.509-.006-.335,.013-.675,.055-1.012,.035-.273-.159-.523-.433-.559-.269-.034-.524,.159-.559,.434-.048,.384-.07,.771-.063,1.154,.076,4.131,3.607,7.491,7.873,7.491,1.242,0,2.43-.288,3.532-.856,.369-.19,.597-.572,.595-.995-.002-.426-.234-.806-.606-.994Z"/>
</svg>
