<?xml version="1.0" encoding="UTF-8"?>
<svg xmlns="http://www.w3.org/2000/svg" id="Layer_1" data-name="Layer 1" viewBox="0 0 24 24">
  <path d="M18,12c-3.309,0-6,2.691-6,6s2.691,6,6,6,6-2.691,6-6-2.691-6-6-6Zm0,11c-2.757,0-5-2.243-5-5s2.243-5,5-5,5,2.243,5,5-2.243,5-5,5Zm3.104-8.104c-.195-.195-.512-.195-.707,0l-.663,.663c-.49-.349-1.086-.56-1.733-.56s-1.243,.21-1.733,.56l-.663-.663c-.195-.195-.512-.195-.707,0s-.195,.512,0,.707l.663,.663c-.349,.49-.56,1.086-.56,1.733s.21,1.243,.56,1.733l-.663,.663c-.195,.195-.195,.512,0,.707,.098,.098,.226,.146,.354,.146s.256-.049,.354-.146l.663-.663c.49,.349,1.086,.56,1.733,.56s1.243-.21,1.733-.56l.663,.663c.098,.098,.226,.146,.354,.146s.256-.049,.354-.146c.195-.195,.195-.512,0-.707l-.663-.663c.349-.49,.56-1.086,.56-1.733s-.21-1.243-.56-1.733l.663-.663c.195-.195,.195-.512,0-.707Zm-3.104,5.104c-1.103,0-2-.897-2-2s.897-2,2-2,2,.897,2,2-.897,2-2,2Zm-2.483-10h6.451c.611,0,1.185-.272,1.573-.748,.387-.474,.539-1.088,.418-1.686C23.187,3.768,20.232,.814,16.434,.041c-.597-.124-1.212,.031-1.687,.418-.475,.388-.747,.961-.747,1.573v6.451c0,.836,.681,1.517,1.517,1.517Zm-.517-7.968c0-.311,.139-.602,.38-.799,.187-.152,.416-.242,.65-.233,2.008,.077,6.008,2.538,6.948,6.766,.067,.301-.016,.613-.212,.854-.197,.241-.488,.38-.799,.38h-6.451c-.285,0-.517-.232-.517-.517V2.032Zm-3.001,21.434c.013,.275-.2,.51-.477,.521-.173,.009-.348,.013-.523,.013-.098,0-.195-.002-.293-.004C5.178,23.852,.492,19.431,.039,13.932-.425,8.307,3.387,3.264,8.905,2.2c.242-.047,1.497-.245,2.367,.472,.503,.416,.759,1.031,.759,1.829,0,1.491-.018,6.208-.026,8.002,0,.275-.225,.498-.5,.498h-.003c-.275-.001-.498-.226-.497-.502,.009-1.794,.026-6.507,.026-7.998,0-.492-.13-.837-.396-1.057-.435-.358-1.174-.333-1.541-.262C4.078,4.148,.613,8.735,1.035,13.85c.412,4.998,4.672,9.016,9.696,9.146,.251,.008,.5,.004,.746-.007,.008,0,.016,0,.022,0,.266,0,.487,.209,.499,.478Z"/>
</svg>
