<svg id="Layer_1" viewBox="0 0 24 24" xmlns="http://www.w3.org/2000/svg" data-name="Layer 1"><path d="m12.5 20.071v-.571c0-.276-.224-.5-.5-.5s-.5.224-.5.5v.571c-.86.224-1.5 1-1.5 1.929 0 1.103.897 2 2 2s2-.897 2-2c0-.929-.64-1.705-1.5-1.929zm-.5 2.929c-.551 0-1-.449-1-1s.449-1 1-1 1 .449 1 1-.449 1-1 1zm4.5-16.5c.276 0 .5-.224.5-.5v-2c0-.827.673-1.5 1.5-1.5h1.571c.224.86 1 1.5 1.929 1.5 1.103 0 2-.897 2-2s-.897-2-2-2c-.929 0-1.705.64-1.929 1.5h-1.571c-1.378 0-2.5 1.122-2.5 2.5v2c0 .276.224.5.5.5zm5.5-5.5c.551 0 1 .449 1 1s-.449 1-1 1-1-.449-1-1 .449-1 1-1zm-10.5 2.929v.571c0 .276.224.5.5.5s.5-.224.5-.5v-.571c.86-.224 1.5-1 1.5-1.929 0-1.103-.897-2-2-2s-2 .897-2 2c0 .929.64 1.705 1.5 1.929zm.5-2.929c.551 0 1 .449 1 1s-.449 1-1 1-1-.449-1-1 .449-1 1-1zm10 19c-.929 0-1.705.64-1.929 1.5h-1.571c-.827 0-1.5-.673-1.5-1.5v-2c0-.276-.224-.5-.5-.5s-.5.224-.5.5v2c0 1.378 1.122 2.5 2.5 2.5h1.571c.224.86 1 1.5 1.929 1.5 1.103 0 2-.897 2-2s-.897-2-2-2zm0 3c-.551 0-1-.449-1-1s.449-1 1-1 1 .449 1 1-.449 1-1 1zm-10-13c-1.103 0-2 .897-2 2s.897 2 2 2 2-.897 2-2-.897-2-2-2zm0 3c-.551 0-1-.449-1-1s.449-1 1-1 1 .449 1 1-.449 1-1 1zm-4.5 4.5c-.276 0-.5.224-.5.5v2c0 .827-.673 1.5-1.5 1.5h-1.571c-.224-.86-1-1.5-1.929-1.5-1.103 0-2 .897-2 2s.897 2 2 2c.929 0 1.705-.64 1.929-1.5h1.571c1.378 0 2.5-1.122 2.5-2.5v-2c0-.276-.224-.5-.5-.5zm-5.5 5.5c-.551 0-1-.449-1-1s.449-1 1-1 1 .449 1 1-.449 1-1 1zm15.172-7.959c.424-.686.171-1.659-.532-2.053l-.234-.137c.064-.299.094-.576.094-.85s-.03-.55-.094-.85l.234-.137c.703-.394.957-1.367.532-2.053-.393-.704-1.366-.955-2.053-.533l-.223.131c-.408-.34-.881-.606-1.396-.786v-.271c0-.827-.673-1.5-1.5-1.5s-1.5.673-1.5 1.5v.271c-.515.18-.988.446-1.396.786l-.223-.131c-.687-.422-1.659-.171-2.053.533-.424.686-.171 1.659.532 2.053l.234.137c-.064.299-.094.576-.094.85s.03.55.094.85l-.234.137c-.703.394-.956 1.367-.533 2.053.419.713 1.339.952 2.053.533l.223-.131c.408.34.881.606 1.396.786v.271c0 .827.673 1.5 1.5 1.5s1.5-.673 1.5-1.5v-.271c.515-.18.988-.446 1.396-.786l.223.131c.714.419 1.635.181 2.053-.533zm-.862-.507c-.131.234-.456.321-.684.178l-.541-.318c-.196-.116-.447-.083-.607.078-.429.43-.983.742-1.603.903-.221.057-.375.256-.375.484v.642c0 .276-.224.5-.5.5s-.5-.224-.5-.5v-.642c0-.228-.154-.427-.375-.484-.619-.161-1.173-.473-1.603-.903-.096-.097-.225-.147-.354-.147-.087 0-.174.022-.253.069l-.541.318c-.228.142-.553.057-.685-.178-.141-.228-.057-.553.178-.684l.556-.327c.196-.115.29-.349.228-.568-.103-.361-.151-.664-.151-.955s.048-.594.151-.955c.062-.219-.031-.453-.228-.568l-.556-.327c-.235-.131-.318-.455-.177-.685.132-.234.454-.319.684-.177l.541.318c.196.115.446.083.607-.078.43-.43.984-.743 1.603-.903.221-.057.375-.256.375-.484v-.642c0-.276.224-.5.5-.5s.5.224.5.5v.642c0 .228.154.427.375.484.619.16 1.173.473 1.603.903.162.162.411.193.607.078l.541-.318c.228-.142.553-.057.684.177.141.228.058.554-.177.685l-.556.327c-.196.115-.29.349-.228.568.103.361.151.664.151.955s-.048.594-.151.955c-.062.219.031.453.228.568l.556.327c.235.131.319.455.177.684zm-14.31-10.534c.929 0 1.705-.64 1.929-1.5h1.571c.827 0 1.5.673 1.5 1.5v2c0 .276.224.5.5.5s.5-.224.5-.5v-2c0-1.378-1.122-2.5-2.5-2.5h-1.571c-.224-.86-1-1.5-1.929-1.5-1.103 0-2 .897-2 2s.897 2 2 2zm0-3c.551 0 1 .449 1 1s-.449 1-1 1-1-.449-1-1 .449-1 1-1z"/></svg>