<?xml version="1.0" encoding="UTF-8"?>
<svg xmlns="http://www.w3.org/2000/svg" id="Layer_1" data-name="Layer 1" viewBox="0 0 24 24">
  <path d="M12,17.5c0,.276-.224,.5-.5,.5h-3c-2.481,0-4.5-2.019-4.5-4.5V7.259c-1.892,1.511-3,3.78-3,6.241v10c0,.276-.224,.5-.5,.5s-.5-.224-.5-.5V13.5c0-3.026,1.496-5.791,4-7.468v-.032C4,2.691,6.691,0,10,0s6,2.691,6,6v.025c1.719,1.152,2.997,2.852,3.604,4.828,.081,.264-.067,.544-.331,.625-.257,.081-.544-.065-.625-.331-.472-1.536-1.402-2.884-2.648-3.884v4.237c0,.276-.224,.5-.5,.5s-.5-.224-.5-.5V6c0-2.757-2.243-5-5-5S5,3.243,5,6v7.5c0,.938,.376,1.786,.978,2.415,.991-1.202,2.464-1.915,4.022-1.915,.981,0,1.938,.276,2.767,.798,.233,.147,.304,.456,.156,.689-.146,.234-.455,.304-.689,.156-.668-.421-1.441-.644-2.233-.644-1.247,0-2.428,.567-3.23,1.524,.512,.294,1.098,.476,1.73,.476h3c.276,0,.5,.224,.5,.5Zm11.918,4.025l-4.497-7.708c-.298-.511-.83-.816-1.421-.816s-1.123,.305-1.422,.816l-4.497,7.708c-.656,1.043,.19,2.517,1.422,2.475h1.997c.276,0,.5-.224,.5-.5s-.224-.5-.5-.5h-1.997c-.595-.106-.765-.404-.558-.971l4.496-7.708c.238-.407,.878-.407,1.116,0l4.497,7.708c.207,.567,.037,.865-.558,.971h-1.997c-.276,0-.5,.224-.5,.5s.224,.5,.5,.5h1.997c1.232,.042,2.078-1.432,1.422-2.475Zm-5.418-1.025v-3c0-.276-.224-.5-.5-.5s-.5,.224-.5,.5v3c0,.276,.224,.5,.5,.5s.5-.224,.5-.5Zm-.5,1.5c-.552,0-1,.448-1,1s.448,1,1,1,1-.448,1-1-.448-1-1-1Z"/>
</svg>
