<svg id="Layer_1" viewBox="0 0 24 24" xmlns="http://www.w3.org/2000/svg" data-name="Layer 1"><path d="m1 23.5c0 .276-.224.5-.5.5s-.5-.224-.5-.5c0-4.821 2.801-6.922 5.051-8.61 1.647-1.236 2.949-2.211 2.949-3.89 0-.748-.575-1.369-1.241-2.087-.825-.889-1.759-1.897-1.759-3.413 0-4.566 10.648-5.5 13.5-5.5h5c.276 0 .5.224.5.5s-.224.5-.5.5h-5c-3.204 0-12.5 1.108-12.5 4.5 0 1.124.725 1.905 1.492 2.733.741.8 1.508 1.627 1.508 2.767 0 2.179-1.627 3.398-3.349 4.69-2.18 1.635-4.651 3.489-4.651 7.81zm19.5-20.5h3c.276 0 .5-.224.5-.5s-.224-.5-.5-.5h-3c-2.659 0-5.5.788-5.5 3 0 1.621 1.761 2.759 3.624 3.965.424.274.847.552 1.259.836-.507.71-1.43 1.2-2.383 1.2-1.168 0-2.315-.719-2.668-1.673-.145-.393-.793-.393-.938 0-.329.891-1.33 1.575-2.435 1.664-.275.022-.48.263-.458.539s.267.483.538.458c1.127-.09 2.182-.664 2.822-1.482.703.901 1.897 1.495 3.138 1.495 1.28 0 2.514-.629 3.209-1.597 1.296 1.002 2.291 2.128 2.291 3.596-.002 1.186-.389 2.07-.888 2.98-1.272.151-2.619-.606-3.006-1.652-.072-.197-.259-.327-.469-.327s-.396.13-.469.327c-.353.954-1.5 1.673-2.668 1.673s-2.315-.719-2.668-1.673c-.146-.394-.794-.393-.938 0-.353.954-1.498 1.673-2.667 1.673-.509 0-1.068-.133-1.496-.357-.244-.125-.546-.033-.675.212-.127.245-.033.547.212.675.572.299 1.286.47 1.959.47 1.24 0 2.434-.594 3.136-1.494.703.9 1.897 1.494 3.137 1.494s2.434-.594 3.137-1.494c.66.845 1.756 1.401 2.914 1.468-.687 1.211-1.393 2.612-1.534 4.758-.396.176-.821.268-1.244.268-1.168 0-2.314-.719-2.667-1.673-.072-.197-.259-.327-.469-.327s-.396.13-.469.327c-.353.954-1.5 1.673-2.668 1.673s-2.315-.719-2.668-1.673c-.146-.394-.794-.393-.938 0-.353.954-1.499 1.673-2.667 1.673-.981 0-1.972-.511-2.465-1.272-.15-.231-.459-.299-.691-.147-.231.15-.298.459-.147.691.68 1.05 1.977 1.728 3.304 1.728 1.24 0 2.434-.594 3.136-1.494.703.9 1.897 1.494 3.137 1.494s2.434-.594 3.137-1.494c.702.9 1.896 1.494 3.136 1.494.68 0 1.36-.177 1.969-.512.153-.084.251-.243.259-.418.092-2.295.872-3.651 1.627-4.963.704-1.225 1.37-2.382 1.373-4.106 0-2.75-2.567-4.41-4.832-5.875-1.629-1.054-3.168-2.049-3.168-3.125 0-1.944 4.039-2 4.5-2z"/></svg>