<?xml version="1.0" encoding="UTF-8"?>
<svg xmlns="http://www.w3.org/2000/svg" id="Layer_1" data-name="Layer 1" viewBox="0 0 24 24">
  <path d="M20,2c-.271,0-.773,0-1.064-.331-.933-1.061-2.367-1.669-3.936-1.669-.867,0-1.702,.204-2.481,.606-.33,.171-.707,.17-1.037,0C9.478-.427,7.045-.114,5.104,1.628c-.381,.343-.77,.372-1.104,.372C1.794,2,0,3.794,0,6s1.794,4,4,4c.314,0,.63-.04,.938-.118,.354-.089,.687-.042,.938,.134,.392,.273,.816,.486,1.258,.646,.028,.025,2.805,2.592,2.861,7.199-2.4-.337-3.995-1.22-3.995-1.861,0-.319,.412-.713,1.102-1.051,.247-.122,.35-.422,.229-.67-.122-.248-.422-.348-.67-.229-1.372,.674-1.66,1.432-1.66,1.949,0,1.473,2.298,2.497,4.931,2.857-.506,3.331-3.933,4.012-5.474,4.145-.275,.023-.479,.266-.455,.541,.022,.261,.241,.457,.497,.457,.015,0,.029,0,.044-.002,1.413-.122,5.804-.847,6.389-5.039,.356,.025,.713,.04,1.068,.04s.712-.016,1.068-.04c.585,4.191,4.976,4.916,6.389,5.039,.015,0,.029,.002,.044,.002,.256,0,.475-.196,.497-.457,.023-.275-.18-.518-.455-.541-1.541-.134-4.968-.814-5.474-4.145,2.633-.359,4.931-1.384,4.931-2.857,0-.539-.311-1.325-1.79-2.011-.248-.116-.547-.007-.664,.244-.115,.25-.007,.548,.244,.664,.758,.351,1.21,.763,1.21,1.103,0,.64-1.594,1.524-3.995,1.861,.056-4.607,2.838-7.181,2.866-7.206,.438-.161,.862-.366,1.252-.639,.252-.176,.583-.224,.938-.135,.309,.079,.624,.119,.938,.119,2.206,0,4-1.794,4-4s-1.794-4-4-4Zm-6.999,15.963c-.324,.022-.657,.037-1.001,.037s-.677-.015-1.001-.037c-.01-3.4-1.332-5.747-2.266-6.984,.939,.046,1.891-.142,2.749-.587,.33-.17,.707-.169,1.037,0,.778,.403,1.613,.607,2.481,.607,.09,0,.178-.016,.268-.02-.934,1.237-2.257,3.584-2.266,6.984Zm6.999-8.963c-.231,0-.464-.029-.693-.088-.637-.163-1.262-.06-1.755,.284-1.337,.931-3.114,1.064-4.574,.309-.311-.16-.644-.24-.978-.24s-.667,.08-.978,.241c-1.46,.754-3.236,.622-4.574-.309-.493-.344-1.119-.444-1.756-.283-.229,.058-.461,.087-.692,.087-1.654,0-3-1.346-3-3s1.346-3,3-3c.321,0,1.075,0,1.773-.628,1.646-1.479,3.597-1.73,5.249-.876,.621,.32,1.334,.32,1.955,0,1.789-.925,4.056-.476,5.207,.834,.589,.67,1.448,.67,1.815,.67,1.654,0,3,1.346,3,3s-1.346,3-3,3Z"/>
</svg>
