<svg id="Layer_1" viewBox="0 0 24 24" xmlns="http://www.w3.org/2000/svg" data-name="Layer 1"><path d="m15.5 13.5c-.276 0-.5.224-.5.5v3h-14v-12.5c0-1.93 1.57-3.5 3.5-3.5h7c.276 0 .5-.224.5-.5s-.224-.5-.5-.5h-7c-2.481 0-4.5 2.019-4.5 4.5v15c0 2.481 2.019 4.5 4.5 4.5h7c2.481 0 4.5-2.019 4.5-4.5v-5.5c0-.276-.224-.5-.5-.5zm-4 9.5h-7c-1.93 0-3.5-1.57-3.5-3.5v-1.5h14v1.5c0 1.93-1.57 3.5-3.5 3.5zm-1.5-2.5c0 .276-.224.5-.5.5h-3c-.276 0-.5-.224-.5-.5s.224-.5.5-.5h3c.276 0 .5.224.5.5zm11.104-16.099c.192.198.187.515-.012.707l-2.481 2.4c-.339.334-.785.501-1.231.501s-.894-.167-1.233-.5l-1.253-1.236c-.196-.193-.198-.51-.004-.707.194-.195.511-.199.707-.004l1.251 1.234c.292.286.771.286 1.065-.004l2.484-2.403c.199-.191.516-.186.707.012zm-3.104-4.401c-3.309 0-6 2.691-6 6s2.691 6 6 6 6-2.691 6-6-2.691-6-6-6zm0 11c-2.757 0-5-2.243-5-5s2.243-5 5-5 5 2.243 5 5-2.243 5-5 5zm-13.067 2.546c.194.284.516.454.86.454h.32c.591 0 1.132-.322 1.368-.77l1.761-2.23h1.258c.827 0 1.5-.673 1.5-1.5s-.673-1.5-1.5-1.5h-1.26l-1.729-2.16c-.282-.518-.824-.84-1.415-.84h-.298c-.346 0-.668.171-.862.456-.194.286-.234.648-.108.97l.621 1.574h-.352l-.911-.625c-.568-.569-1.608-.433-2.012.263-.231.398-.233.876.048 1.352l1.096 1.3c.381.452.939.711 1.529.711h.588l-.614 1.579c-.125.321-.083.683.111.967zm-.086-3.546c-.295 0-.574-.13-.765-.355l-1.044-1.226c-.072-.127-.023-.238 0-.279.077-.151.326-.209.508 0l1.11.771c.083.059.183.09.285.09h1.241c.166 0 .32-.082.414-.219.093-.137.112-.311.052-.465l-.851-2.316h.298c.224 0 .429.122.584.391l1.929 2.421c.095.119.239.188.391.188h1.5c.276 0 .5.225.5.5s-.224.5-.5.5h-1.5c-.153 0-.297.07-.393.19l-1.958 2.491c-.106.196-.312.318-.536.318l-.36-.058.879-2.261c.06-.154.04-.328-.053-.464-.093-.137-.248-.218-.413-.218h-1.319z"/></svg>