<svg id="Layer_1" viewBox="0 0 24 24" xmlns="http://www.w3.org/2000/svg" data-name="Layer 1"><path d="m12 6c0-3.309 2.691-6 6-6s6 2.691 6 6c0 2.036-1.02 3.916-2.727 5.029-.229.149-.54.088-.692-.146-.15-.231-.086-.541.146-.692 1.424-.928 2.273-2.495 2.273-4.191 0-2.757-2.243-5-5-5s-5 2.243-5 5c0 1.696.85 3.263 2.273 4.191.231.151.296.461.146.692-.15.232-.459.297-.692.146-1.707-1.114-2.727-2.994-2.727-5.029zm6 2c-1.103 0-2-.897-2-2s.897-2 2-2 2 .897 2 2-.897 2-2 2zm1-2c0-.551-.448-1-1-1s-1 .449-1 1 .448 1 1 1 1-.449 1-1zm-1.5 3.5v3c0 .276.224.5.5.5s.5-.224.5-.5v-3c0-.276-.224-.5-.5-.5s-.5.224-.5.5zm6 2.5c-.276 0-.5.224-.5.5v5.556c0 1.781-1.271 3.304-3.023 3.623l-6.569 1.194c-.301.055-.604.085-.907.105v-11.478c0-.276-.224-.5-.5-.5s-.5.224-.5.5v11.477c-.303-.019-.606-.05-.906-.104l-6.57-1.195c-1.752-.318-3.023-1.842-3.023-3.623v-11.372c0-1.095.482-2.125 1.322-2.827.842-.702 1.948-.991 3.018-.795l4.006.721c.328.072.567-.055.639-.359.08-.336-.174-.579-.443-.626-.003 0-4.022-.72-4.022-.72-1.371-.25-2.769.119-3.838 1.011-1.068.892-1.682 2.203-1.682 3.595v11.373c0 2.264 1.617 4.201 3.844 4.606l6.57 1.195c.526.095 1.057.143 1.586.143s1.06-.048 1.586-.144l6.57-1.195c2.227-.405 3.844-2.342 3.844-4.606v-5.556c0-.276-.224-.5-.5-.5z"/></svg>