<svg id="Layer_1" viewBox="0 0 24 24" xmlns="http://www.w3.org/2000/svg" data-name="Layer 1"><path d="m18 13c2.206 0 4-1.794 4-4s-1.794-4-4-4-4 1.794-4 4 1.794 4 4 4zm0-7c1.654 0 3 1.346 3 3s-1.346 3-3 3-3-1.346-3-3 1.346-3 3-3zm-7.5-1c1.378 0 2.5-1.122 2.5-2.5s-1.122-2.5-2.5-2.5-2.5 1.122-2.5 2.5 1.122 2.5 2.5 2.5zm0-4c.827 0 1.5.673 1.5 1.5s-.673 1.5-1.5 1.5-1.5-.673-1.5-1.5.673-1.5 1.5-1.5zm13.326 22.113c-.666.572-1.524.887-2.417.887-1.239 0-2.434-.594-3.137-1.494-.703.9-1.896 1.494-3.136 1.494s-2.434-.594-3.137-1.494c-.703.9-1.897 1.494-3.136 1.494s-2.434-.594-3.136-1.494c-.703.9-1.897 1.494-3.137 1.494-.893 0-1.75-.315-2.417-.887-.209-.18-.233-.496-.054-.705.181-.209.498-.233.705-.054.485.417 1.112.646 1.765.646 1.168 0 2.315-.719 2.668-1.673.072-.196.259-.327.469-.327s.396.13.469.327c.352.954 1.499 1.673 2.667 1.673s2.314-.719 2.667-1.673c.145-.393.793-.393.938 0 .353.954 1.5 1.673 2.668 1.673s2.314-.719 2.667-1.673c.145-.393.793-.393.938 0 .353.954 1.5 1.673 2.668 1.673.653 0 1.28-.229 1.765-.646.211-.18.526-.156.705.054.181.209.156.525-.053.705zm-19.649-4.163c-.227-.158-.284-.469-.126-.696l4.533-6.54-2.076-1.405c-.946-.657-1.508-1.731-1.508-2.877v-6.932c0-.276.224-.5.5-.5s.5.224.5.5v6.932c0 .818.401 1.586 1.073 2.053l12.707 8.602c.229.155.289.466.134.694-.156.23-.468.287-.694.134l-9.808-6.639-4.539 6.548c-.158.228-.471.282-.696.126z"/></svg>