<?xml version="1.0" encoding="UTF-8"?>
<svg xmlns="http://www.w3.org/2000/svg" id="Layer_1" data-name="Layer 1" viewBox="0 0 24 24">
  <path d="M11.383,.021C6.605,.341,3,4.526,3,9.315v5.046c0,5.611,4.029,9.64,9,9.64h0c4.971,0,9-4.029,9-9v-6C21,3.833,16.623-.331,11.383,.021Zm.617,.979c3.35,0,6.221,2.072,7.411,5H4.589C5.779,3.072,8.65,1,12,1Zm7.904,15.173c-.311,1.056-1.351,1.827-2.563,1.827h-5.759c-.759,0-1.41-.496-1.549-1.18-.166-.812,.3-1.425,.836-1.672,.514-.238,.798-.779,.69-1.317-.138-.687-.035-1.344,.313-2.007,.53-1.009,1.5-1.701,2.533-1.807,.113-.012,.225-.017,.336-.017,1.435,0,2.716,.945,3.119,2.35,.115,.4,.402,.744,.787,.942,.823,.425,1.313,1.263,1.33,2.171-.014,.239-.038,.475-.072,.708Zm.096-3.101c-.258-.263-.555-.492-.895-.667-.139-.072-.246-.195-.284-.329-.568-1.979-2.472-3.271-4.518-3.052-1.361,.139-2.632,1.034-3.316,2.336-.454,.862-.591,1.76-.409,2.668,.021,.104-.054,.178-.129,.213-1.056,.487-1.63,1.63-1.396,2.779,.233,1.147,1.297,1.98,2.529,1.98h5.759c.667,0,1.291-.181,1.834-.484-1.305,2.651-4.026,4.484-7.175,4.484-4.411,0-8-3.589-8-8v-6c0-.692,.097-1.359,.263-2h15.473c.166,.641,.263,1.308,.263,2v4.071Z"/>
</svg>
