<svg id="Layer_1" viewBox="0 0 24 24" xmlns="http://www.w3.org/2000/svg" data-name="Layer 1"><path d="m8.541 8.727v-.227c0-.276.224-.5.5-.5s.5.224.5.5v.227c0 .702.543 1.273 1.21 1.273h2.579c.667 0 1.21-.571 1.21-1.273 0-.568-.363-1.072-.882-1.225l-3.519-1.043c-.941-.278-1.598-1.176-1.598-2.184 0-1.253.991-2.273 2.209-2.273h.751v-1.499c0-.276.224-.5.5-.5s.5.224.5.5v1.5h.828c1.218 0 2.209 1.02 2.209 2.273v.227c0 .276-.224.5-.5.5s-.5-.224-.5-.5v-.227c0-.702-.543-1.273-1.21-1.273h-2.579c-.667 0-1.21.571-1.21 1.273 0 .568.363 1.072.882 1.225l3.519 1.043c.941.279 1.598 1.176 1.598 2.184 0 1.253-.991 2.273-2.209 2.273h-.799l-.029 1.509c-.005.272-.228.49-.5.49h-.01c-.276-.005-.495-.233-.49-.51l.029-1.49h-.78c-1.218 0-2.209-1.02-2.209-2.273zm10.959 14.27h-6.998v-7.498c0-.276-.224-.5-.5-.5s-.5.224-.5.5v7.498h-6.998c-.276 0-.5.224-.5.5s.224.5.5.5h14.996c.276 0 .5-.224.5-.5s-.224-.5-.5-.5zm4.487-8.437c-.065 2.14-1.524 3.982-3.53 4.409-.313.066-.628.099-.94.099-1.014 0-2.001-.345-2.806-.996-1.087-.88-1.71-2.182-1.71-3.572.009-.133-.026-.557.033-.678l3.688-9.706c-.178-.074-.373-.113-.575-.113h-.646c-.276 0-.5-.224-.5-.5s.224-.5.5-.5h.646c1.028 0 1.939.617 2.321 1.571l3.5 9.249c.021.056.032.116.032.177-.005.107.011.464-.012.561zm-1.036.439h-6.894c.126.894.565 1.714 1.283 2.296.829.671 1.862.922 2.908.696 1.411-.3 2.475-1.514 2.702-2.991zm.014-1s-3.449-9.11-3.459-9.133l-3.47 9.133zm-18.478 5.069c-.312 0-.627-.033-.94-.099-2.006-.427-3.465-2.269-3.53-4.409-.014-.192-.038-.547.02-.737l3.496-9.241c.385-.964 1.296-1.58 2.324-1.58h.646c.276 0 .5.224.5.5s-.224.5-.5.5h-.646c-.202 0-.396.04-.575.113l3.688 9.706c.059.123.024.542.033.678 0 1.39-.623 2.693-1.71 3.572-.804.652-1.792.996-2.806.996zm-3.448-5.069h6.929l-3.469-9.132c-.012.025-3.46 9.132-3.46 9.132zm2.716 3.992c1.049.226 2.08-.024 2.908-.696.718-.581 1.157-1.402 1.283-2.296h-6.893c.226 1.477 1.291 2.692 2.702 2.991z"/></svg>