<svg id="Layer_1" viewBox="0 0 24 24" xmlns="http://www.w3.org/2000/svg" data-name="Layer 1"><path d="m24 4.5v10c0 1.291-.555 2.521-1.524 3.375-.206.184-.522.162-.706-.044-.183-.207-.163-.523.044-.706.753-.664 1.185-1.621 1.185-2.625v-10c0-1.93-1.57-3.5-3.5-3.5h-14.999c-1.93 0-3.5 1.57-3.5 3.5v.5h2.5c.276 0 .5.224.5.5s-.224.5-.5.5h-2.5v7h2.5c.276 0 .5.224.5.5s-.224.5-.5.5h-2.5v.5c0 1.93 1.57 3.5 3.5 3.5h5c.276 0 .5.224.5.5s-.224.5-.5.5h-5c-.529 0-1.029-.108-1.5-.276v1.776c0 .276-.224.5-.5.5s-.5-.224-.5-.5v-2.262c-1.205-.808-2-2.182-2-3.738v-10c0-2.481 2.019-4.5 4.5-4.5h15c2.481 0 4.5 2.019 4.5 4.5zm-7 5.474c-.049 2.454-1.491 4.409-4.171 5.663-.244.113-.507.17-.77.17-.307 0-.614-.077-.89-.229-2.68-1.488-4.121-3.423-4.169-5.593v-2.549c0-1.08.688-2.033 1.714-2.372l2.7-.896c.379-.125.794-.125 1.171 0l2.702.896c1.025.34 1.713 1.294 1.713 2.373v2.538zm-1-2.538c0-.647-.413-1.22-1.028-1.424l-2.701-.896c-.175-.058-.367-.057-.542 0l-2.7.896c-.615.203-1.028.775-1.028 1.423v2.538c.04 1.81 1.27 3.404 3.654 4.729.232.13.512.139.751.028 2.344-1.097 3.554-2.7 3.595-4.767v-2.528zm8 14.564c0 1.103-.897 2-2 2-.929 0-1.705-.64-1.929-1.5h-1.071c-1.654 0-3-1.346-3-3v-3.5c0-.276.224-.5.5-.5s.5.224.5.5v3.5c0 1.103.897 2 2 2h1.071c.224-.86 1-1.5 1.929-1.5 1.103 0 2 .897 2 2zm-1 0c0-.552-.449-1-1-1s-1 .448-1 1 .449 1 1 1 1-.448 1-1zm-8.5 0c0 1.103-.897 2-2 2s-2-.897-2-2c0-.929.64-1.705 1.5-1.929v-1.571c0-.276.224-.5.5-.5s.5.224.5.5v1.571c.86.224 1.5 1 1.5 1.929zm-1 0c0-.552-.449-1-1-1s-1 .448-1 1 .449 1 1 1 1-.448 1-1zm-1.5-14c-.552 0-1 .448-1 1 0 .366.207.672.5.847v1.653c0 .276.224.5.5.5s.5-.224.5-.5v-1.653c.294-.174.5-.481.5-.847 0-.552-.448-1-1-1z"/></svg>