<svg id="Layer_1" viewBox="0 0 24 24" xmlns="http://www.w3.org/2000/svg" data-name="Layer 1"><path d="m23.041 15.879-3-2.348c-.907-.709-2.174-.709-3.081 0l-3 2.348c-.61.478-.959 1.195-.959 1.969v3.652c0 1.378 1.122 2.5 2.5 2.5h6c1.378 0 2.5-1.122 2.5-2.5v-3.652c0-.774-.35-1.491-.959-1.969zm-.041 5.621c0 .827-.673 1.5-1.5 1.5h-6c-.827 0-1.5-.673-1.5-1.5v-3.652c0-.464.21-.895.576-1.182l3-2.347c.272-.213.598-.319.924-.319s.652.106.924.319l3 2.348c.366.287.576.717.576 1.182v3.652zm-3.5-17.5h-13.5v-1.5c0-1.378-1.122-2.5-2.5-2.5h-.5c-1.654 0-3 1.346-3 3v18c0 1.654 1.346 3 3 3h7.5c.276 0 .5-.224.5-.5s-.224-.5-.5-.5h-7.5c-1.103 0-2-.897-2-2s.897-2 2-2h.5c1.378 0 2.5-1.122 2.5-2.5v-11.5h13.5c1.93 0 3.5 1.57 3.5 3.5v3.5c0 .276.224.5.5.5s.5-.224.5-.5v-3.5c0-2.481-2.019-4.5-4.5-4.5zm-14.5 12.5c0 .827-.673 1.5-1.5 1.5h-.5c-.768 0-1.469.29-2 .766v-15.766c0-1.103.897-2 2-2h.5c.827 0 1.5.673 1.5 1.5zm14 1.5h-1c-.551 0-1 .449-1 1v1c0 .551.449 1 1 1h1c.551 0 1-.449 1-1v-1c0-.551-.449-1-1-1zm-1 2v-1h1v1zm-9-11.5v2.5h1.5c.276 0 .5.224.5.5s-.224.5-.5.5h-1.5v7.5c0 .276.224.5.5.5h1c.276 0 .5.224.5.5s-.224.5-.5.5h-1c-.827 0-1.5-.673-1.5-1.5v-11c0-.827.673-1.5 1.5-1.5h1c.276 0 .5.224.5.5s-.224.5-.5.5h-1c-.276 0-.5.224-.5.5zm11 2.5v-2.5c0-.276-.224-.5-.5-.5h-4c-.276 0-.5.224-.5.5v2c0 .276-.224.5-.5.5s-.5-.224-.5-.5v-2c0-.827.673-1.5 1.5-1.5h4c.827 0 1.5.673 1.5 1.5v2.5c0 .276-.224.5-.5.5s-.5-.224-.5-.5z"/></svg>