<svg id="Layer_1" viewBox="0 0 24 24" xmlns="http://www.w3.org/2000/svg" data-name="Layer 1"><path d="m20.81 0h-.012c-3.503 0-9.979.614-14.081 4.717-5.417 5.417-4.779 14.802-4.617 16.476l-1.954 1.954c-.195.195-.195.512 0 .707.098.098.226.146.354.146s.256-.049.354-.146l1.954-1.954c.412.04 1.294.109 2.47.109 3.591 0 9.925-.645 14.005-4.726 4.107-4.107 4.718-10.593 4.717-14.093 0-1.758-1.432-3.189-3.19-3.19zm1.042 11h-8.145l4-4h5.044c-.172 1.276-.452 2.646-.898 4zm-2.748 5.011c-.034-.007-10.397-.011-10.397-.011l4-4h8.784c-.567 1.43-1.34 2.812-2.387 4.011zm-11.115-11.115c1.199-1.047 2.581-1.819 4.011-2.387v8.784l-4 4s-.004-10.363-.011-10.397zm5.011 5.397v-8.145c1.354-.446 2.724-.727 4-.898v5.043zm5.707-4.293 3.958-3.958c.211.334.334.727.335 1.148 0 .798-.032 1.759-.134 2.81zm3.25-4.664-3.957 3.957v-4.159c1.046-.101 2.002-.134 2.798-.134.42 0 .819.123 1.159.336zm-14.957 4.536v10.421l-3.96 3.96c-.134-2.696-.065-9.891 3.96-14.381zm-3.252 15.088 3.959-3.959h10.421c-4.49 4.025-11.686 4.09-14.381 3.959z"/></svg>