<svg id="Layer_1" viewBox="0 0 24 24" xmlns="http://www.w3.org/2000/svg" data-name="Layer 1"><path d="m22 15.343v-1.843c0-1.93-1.57-3.5-3.5-3.5s-3.5 1.57-3.5 3.5v1.843c-1.18.563-2 1.765-2 3.157v2c0 1.93 1.57 3.5 3.5 3.5h4c1.93 0 3.5-1.57 3.5-3.5v-2c0-1.392-.82-2.594-2-3.157zm-6-1.843c0-1.379 1.122-2.5 2.5-2.5s2.5 1.121 2.5 2.5v1.54c-.164-.024-.33-.04-.5-.04h-4c-.17 0-.336.016-.5.04zm7 7c0 1.379-1.122 2.5-2.5 2.5h-4c-1.378 0-2.5-1.121-2.5-2.5v-2c0-1.379 1.122-2.5 2.5-2.5h4c1.378 0 2.5 1.121 2.5 2.5zm-3.5-1c0 .552-.448 1-1 1s-1-.448-1-1 .448-1 1-1 1 .448 1 1zm-6.205-18.024c-.455-.388-1.036-.547-1.635-.448-.946.154-1.66 1.06-1.66 2.106v3.892c0 .18-.096.345-.251.434l-7.785 4.454c-.598.327-.964.944-.964 1.615-.029.976 1.024 1.731 1.939 1.392l6.394-2.274c.151-.056.322-.032.456.062.133.094.212.246.212.408v5.661c0 .168-.084.324-.224.417l-2.104 1.394c-.42.278-.671.746-.671 1.251-.007.792.86 1.286 1.605 1.135l1.716-.664c.255-.098.547.03.646.288.098.259-.031.548-.289.646l-1.804.688c-.189.037-.375.056-.556.056-1.223.026-2.335-.927-2.318-2.148 0-.842.418-1.621 1.12-2.085l1.88-1.245v-4.684l-5.733 2.039c-1.542.579-3.315-.694-3.267-2.336 0-1.037.565-1.99 1.476-2.487l7.524-4.307v-3.602c-.002-1.531 1.073-2.862 2.498-3.093.881-.147 1.771.102 2.443.673s1.057 1.404 1.057 2.286v3.735l1.749 1.001c.239.137.323.442.186.682-.137.241-.442.322-.683.186l-2-1.145c-.155-.089-.251-.254-.251-.434v-4.025c0-.588-.257-1.144-.705-1.524z"/></svg>