<?xml version="1.0" encoding="UTF-8"?>
<svg xmlns="http://www.w3.org/2000/svg" id="Layer_1" data-name="Layer 1" viewBox="0 0 24 24">
  <path d="M7.5,3c-1.379,0-2.5,1.122-2.5,2.5s1.121,2.5,2.5,2.5,2.5-1.122,2.5-2.5-1.121-2.5-2.5-2.5Zm0,4c-.827,0-1.5-.673-1.5-1.5s.673-1.5,1.5-1.5,1.5,.673,1.5,1.5-.673,1.5-1.5,1.5ZM19.5,0H4.5C2.019,0,0,2.019,0,4.5v12c0,2.481,2.019,4.5,4.5,4.5h7.353l1.189,2.701c.112,.256,.412,.367,.659,.256,.253-.111,.368-.406,.257-.659l-2.771-6.299h7.222c.267,0,.527,.109,.715,.3l2.156,2.198c-.523,.312-1.127,.503-1.779,.503h-4c-.276,0-.5,.224-.5,.5s.224,.5,.5,.5h4c2.481,0,4.5-2.019,4.5-4.5V4.5c0-2.481-2.019-4.5-4.5-4.5ZM8.384,10.693c.295-.263,.608-.506,.956-.701l1.542-.865,3.066,6.873h-3.201s-2.336-5.273-2.363-5.307Zm14.616,5.807c0,.916-.361,1.743-.939,2.368l-2.225-2.268c-.373-.381-.894-.6-1.428-.6h-3.365l-3.285-7.364,2.662-1.492c.358-.201,.665-.49,.887-.837l1.691-2.653c.148-.233,.08-.542-.153-.69-.23-.147-.541-.081-.69,.152l-1.691,2.653c-.133,.208-.316,.382-.531,.502l-5.081,2.849c-1.298,.727-2.314,1.889-2.864,3.273l-1.952,4.923c-.102,.256,.023,.547,.28,.649,.251,.101,.547-.021,.649-.281l1.952-4.922c.185-.465,.447-.889,.747-1.284l3.75,8.522H4.5c-1.93,0-3.5-1.57-3.5-3.5V4.5c0-1.93,1.57-3.5,3.5-3.5h15c1.93,0,3.5,1.57,3.5,3.5v12Z"/>
</svg>
