<?xml version="1.0" encoding="UTF-8"?>
<svg xmlns="http://www.w3.org/2000/svg" id="Layer_1" data-name="Layer 1" viewBox="0 0 24 24">
  <path d="m23.5,15h-1.5V4.5c0-2.481-2.019-4.5-4.5-4.5H6.5C4.019,0,2,2.019,2,4.5v10.5H.5c-.276,0-.5.224-.5.5s.224.5.5.5h11v5h-3c-1.379,0-2.5,1.121-2.5,2.5,0,.276.224.5.5.5s.5-.224.5-.5c0-.827.673-1.5,1.5-1.5h7c.827,0,1.5.673,1.5,1.5,0,.276.224.5.5.5s.5-.224.5-.5c0-1.379-1.121-2.5-2.5-2.5h-3v-5h11c.276,0,.5-.224.5-.5s-.224-.5-.5-.5ZM3,4.5c0-1.93,1.57-3.5,3.5-3.5h11c1.93,0,3.5,1.57,3.5,3.5v10.5H3V4.5Z"/>
</svg>
