<?xml version="1.0" encoding="UTF-8"?>
<svg xmlns="http://www.w3.org/2000/svg" id="Layer_1" data-name="Layer 1" viewBox="0 0 24 24">
  <path d="M23.667,10.418l-1.009-3.024c-.478-1.432-1.812-2.394-3.32-2.394h-2.388c-.252-2.244-2.139-4-4.449-4H4.5C2.445,1,.653,2.388,.142,4.375c-.068,.268,.092,.54,.359,.609,.271,.068,.54-.093,.609-.359,.397-1.546,1.792-2.625,3.39-2.625H12.5c1.93,0,3.5,1.57,3.5,3.5v12.5H3.5c-1.379,0-2.5-1.121-2.5-2.5,0-.276-.224-.5-.5-.5s-.5,.224-.5,.5c0,1.391,.822,2.585,2,3.149v1.351c0,1.654,1.346,3,3,3s3-1.346,3-3v-1h8v1c0,1.654,1.346,3,3,3s3-1.346,3-3v-1.351c1.178-.564,2-1.758,2-3.149v-3.026c0-.7-.112-1.393-.333-2.056Zm-1.958-2.708l1.009,3.024c.029,.087,.041,.178,.065,.266h-5.783V6h2.338c1.078,0,2.03,.688,2.371,1.71ZM7,20c0,1.103-.897,2-2,2s-2-.897-2-2v-1.051c.165,.024,.329,.051,.5,.051h3.5v1Zm14,0c0,1.103-.897,2-2,2s-2-.897-2-2v-1h3.5c.171,0,.335-.027,.5-.051v1.051Zm2-4.5c0,1.379-1.121,2.5-2.5,2.5h-3.5v-6h5.962c.014,.158,.038,.314,.038,.474v3.026Zm-14-7.5v1.5h1c.276,0,.5,.224,.5,.5s-.224,.5-.5,.5h-1v1.5h1c.276,0,.5,.224,.5,.5s-.224,.5-.5,.5h-1c-.552,0-1-.448-1-1v-4c0-.552,.448-1,1-1h1c.276,0,.5,.224,.5,.5s-.224,.5-.5,.5h-1Zm3.5,0v1.5h1c.276,0,.5,.224,.5,.5s-.224,.5-.5,.5h-1v1.5h1c.276,0,.5,.224,.5,.5s-.224,.5-.5,.5h-1c-.552,0-1-.448-1-1v-4c0-.552,.448-1,1-1h1c.276,0,.5,.224,.5,.5s-.224,.5-.5,.5h-1Zm-5.5,1c0-1.084-.896-2-1.958-2h-.542c-.552,0-1,.448-1,1v4.5c0,.276,.224,.5,.5,.5s.5-.224,.5-.5v-1.5h.542c.113,0,.223-.015,.331-.035l.66,1.715c.076,.198,.266,.32,.467,.32,.06,0,.12-.011,.18-.033,.258-.1,.386-.389,.287-.646l-.69-1.793c.435-.37,.723-.919,.723-1.527Zm-2.5,1v-2h.542c.52,0,.958,.458,.958,1s-.438,1-.958,1h-.542ZM0,12.5v-4.5c0-.552,.448-1,1-1h1c.276,0,.5,.224,.5,.5s-.224,.5-.5,.5H1v1.5h1c.276,0,.5,.224,.5,.5s-.224,.5-.5,.5H1v2c0,.276-.224,.5-.5,.5s-.5-.224-.5-.5Z"/>
</svg>
