<?xml version="1.0" encoding="UTF-8"?>
<svg xmlns="http://www.w3.org/2000/svg" id="Layer_1" data-name="Layer 1" viewBox="0 0 24 24">
  <path d="M20.168,16.193l-1.168-10.219,1.987-1.987c.679-.651,.679-1.824,0-2.475-.659-.66-1.812-.661-2.475,0l-1.602,1.602L14.012,.717c-1.166-.952-2.858-.953-4.026,.001l-2.902,2.391-1.597-1.597c-.661-.661-1.814-.66-2.475,0-.679,.651-.679,1.823,0,2.475l1.987,1.987-1.168,10.219-.819,.819c-.682,.683-.682,1.792,0,2.475,.147,.147,.319,.26,.502,.346,.109,2.287,2.171,4.215,4.468,4.167h1.517c.551,0,1-.448,1-1v-2.394c0-.788,.535-1.47,1.245-1.586,.894-.17,1.774,.574,1.755,1.479v2.5c0,.552,.449,1,1,1h1.517c2.297,.048,4.36-1.88,4.468-4.167,.184-.085,.355-.198,.502-.346,.682-.683,.682-1.792,0-2.475l-.82-.82Zm.112,2.587c-.283,.283-.777,.283-1.061,0l-4.5-4.5c-.292-.292-.292-.769,0-1.061,.279-.291,.781-.291,1.061,0l4.5,4.5c.292,.292,.292,.769,0,1.061Zm-1.248-3.723l-2.545-2.545c-.539-.539-1.4-.63-2.059-.292l-1.078-1.078c.197-.385,.197-.901,0-1.286l1.073-1.073c.655,.374,1.538,.247,2.064-.296l1.61-1.61,.935,8.18Zm.188-12.838c.279-.291,.781-.291,1.061,0,.291,.279,.291,.781,0,1.061l-4.5,4.5c-.283,.283-.777,.283-1.061,0-.291-.279-.291-.781,0-1.061l4.5-4.5Zm-8.599-.728c.799-.652,1.96-.652,2.756-.002l2.823,2.335-2.188,2.188c-.544,.526-.671,1.409-.296,2.064l-1.073,1.073c-.385-.197-.901-.197-1.286,0l-1.073-1.073c.374-.655,.247-1.538-.296-2.064l-2.193-2.193,2.827-2.328ZM3.5,2.75c0-.2,.078-.389,.22-.53,.279-.291,.781-.291,1.061,0l4.5,4.5c.291,.279,.291,.781,0,1.061-.283,.283-.777,.283-1.061,0L3.72,3.28c-.142-.142-.22-.33-.22-.53Zm2.403,4.127l1.61,1.61c.526,.544,1.409,.671,2.064,.296l1.073,1.073c-.197,.385-.197,.901,0,1.286l-1.078,1.078c-.659-.339-1.52-.247-2.059,.292l-2.545,2.545,.935-8.18Zm-2.183,10.842l4.5-4.5c.279-.291,.781-.291,1.061,0,.292,.292,.292,.769,0,1.061l-4.5,4.5c-.283,.283-.777,.283-1.061,0-.292-.292-.292-.769,0-1.061Zm14.773,4.254c-.661,.662-1.54,1.026-2.476,1.026h-1.517v-2.5c.033-1.504-1.433-2.745-2.917-2.466-1.188,.193-2.083,1.299-2.083,2.572v2.394h-1.517c-.936,0-1.815-.364-2.476-1.026-.548-.549-.878-1.249-.979-2.001,.361-.058,.695-.221,.959-.486l4.5-4.5c.558-.559,.652-1.401,.296-2.063l1.074-1.074c.385,.197,.901,.197,1.286,0l1.074,1.074c-.356,.663-.263,1.504,.296,2.063l4.5,4.5c.264,.264,.598,.428,.959,.486-.101,.752-.431,1.452-.979,2.001Z"/>
</svg>
