<svg id="Layer_1" viewBox="0 0 24 24" xmlns="http://www.w3.org/2000/svg" data-name="Layer 1"><path d="m23.189 10.581c-1.026-.602-2.601-1.208-4.212-1.46 1.018-1.42 1.66-3.029 1.917-4.078.141-.571-.028-1.158-.451-1.569-.423-.412-1.014-.564-1.582-.408-1.033.285-2.599.96-3.977 1.995-.248-1.624-.859-3.216-1.467-4.25-.298-.508-.828-.811-1.418-.811s-1.12.303-1.419.811c-.605 1.03-1.213 2.614-1.463 4.231-1.4-1.027-2.988-1.687-4.028-1.958-.572-.148-1.158.013-1.576.431-.417.418-.578 1.007-.43 1.576.272 1.043.931 2.63 1.957 4.028-1.617.25-3.201.858-4.231 1.464-.508.298-.811.828-.811 1.418s.303 1.12.811 1.419c1.026.602 2.601 1.208 4.212 1.46-1.018 1.42-1.66 3.029-1.917 4.078-.141.571.028 1.158.451 1.569.313.306.72.468 1.141.468.146 0 .295-.02.441-.06 1.033-.285 2.599-.96 3.977-1.995.248 1.624.859 3.216 1.467 4.25.298.508.828.811 1.418.811s1.12-.303 1.419-.811c.602-1.026 1.208-2.601 1.46-4.212 1.42 1.018 3.029 1.66 4.078 1.917.132.033.266.049.397.049.437 0 .855-.175 1.172-.5.412-.423.564-1.015.408-1.582-.285-1.033-.96-2.599-1.995-3.977 1.624-.248 3.216-.859 4.25-1.467.508-.298.811-.828.811-1.418s-.303-1.12-.811-1.419zm-4.062-6.551c.317-.091.539.082.619.16.08.077.257.293.178.614-.285 1.161-1.044 2.885-2.116 4.202-1.216-.055-2.455.213-3.392.578.359-.924.625-2.127.581-3.332 1.282-1.101 2.979-1.905 4.131-2.223zm-8.127 7.97c0-.552.448-1 1-1s1 .448 1 1-.448 1-1 1-1-.448-1-1zm.443-10.684c.168-.285.445-.316.557-.316s.389.031.556.316c.696 1.186 1.444 3.312 1.444 5.184 0 1.527-.49 2.826-.99 3.755-.006.003-.011.007-.017.01-.293-.168-.632-.265-.993-.265s-.7.097-.993.265c-.006-.003-.011-.007-.017-.01-.5-.929-.99-2.228-.99-3.755 0-1.871.748-3.998 1.443-5.184zm-7.391 3.522c-.084-.32.091-.538.169-.617.079-.078.295-.248.617-.17 1.155.301 2.865 1.084 4.166 2.17-.05 1.211.217 2.432.579 3.363-.93-.362-2.152-.629-3.362-.579-1.086-1.299-1.868-3.009-2.17-4.166zm-3.052 7.162c0-.111.031-.389.316-.556 1.186-.696 3.312-1.444 5.184-1.444 1.527 0 2.826.49 3.755.99.003.006.007.011.01.017-.168.293-.265.632-.265.993s.097.7.265.993c-.003.006-.007.011-.01.017-.929.5-2.228.99-3.755.99-1.871 0-3.998-.748-5.184-1.443-.285-.168-.316-.445-.316-.557zm3.873 7.97c-.318.089-.539-.082-.619-.16-.08-.077-.257-.293-.178-.614.285-1.161 1.044-2.885 2.116-4.202 1.216.055 2.455-.213 3.392-.578-.359.924-.625 2.127-.581 3.332-1.282 1.101-2.979 1.905-4.131 2.223zm7.684 2.714c-.168.285-.445.316-.557.316s-.389-.031-.556-.316c-.696-1.186-1.444-3.312-1.444-5.184 0-1.527.49-2.826.99-3.755.006-.003.011-.007.017-.01.293.168.632.265.993.265s.7-.097.993-.265c.006.003.011.007.017.01.5.929.99 2.228.99 3.755 0 1.871-.748 3.998-1.443 5.184zm7.413-3.557c.089.319-.083.539-.16.619-.077.079-.29.257-.614.178-1.161-.285-2.885-1.044-4.202-2.116.055-1.216-.213-2.455-.578-3.392.924.359 2.127.625 3.332.581 1.101 1.282 1.905 2.979 2.223 4.131zm2.714-6.571c-1.186.696-3.312 1.444-5.184 1.444-1.527 0-2.826-.49-3.755-.99-.003-.006-.007-.011-.01-.017.168-.293.265-.632.265-.993s-.097-.7-.265-.993c.003-.006.007-.011.01-.017.929-.5 2.228-.99 3.755-.99 1.871 0 3.998.748 5.184 1.443.285.168.316.445.316.557s-.031.389-.316.556z"/></svg>