<?xml version="1.0" encoding="UTF-8"?>
<svg xmlns="http://www.w3.org/2000/svg" id="Layer_1" data-name="Layer 1" viewBox="0 0 24 24">
  <path d="M14,16.5c0-.276,.224-.5,.5-.5h4c.276,0,.5,.224,.5,.5s-.224,.5-.5,.5h-4c-.276,0-.5-.224-.5-.5Zm.5-4.5h4c.276,0,.5-.224,.5-.5s-.224-.5-.5-.5h-4c-.276,0-.5,.224-.5,.5s.224,.5,.5,.5Zm9.5-4.5v11c0,2.481-2.019,4.5-4.5,4.5H4.5c-2.481,0-4.5-2.019-4.5-4.5V5.5C0,3.019,2.019,1,4.5,1h3.028c.386,0,.772,.091,1.117,.264l3.156,1.578c.207,.104,.438,.158,.67,.158h7.028c2.481,0,4.5,2.019,4.5,4.5ZM1,7H22.949c-.245-1.692-1.691-3-3.449-3h-7.028c-.386,0-.772-.091-1.117-.264l-3.156-1.578c-.207-.104-.438-.158-.67-.158h-3.028c-1.93,0-3.5,1.57-3.5,3.5v1.5Zm22,1H1v10.5c0,1.93,1.57,3.5,3.5,3.5h15c1.93,0,3.5-1.57,3.5-3.5V8ZM5.5,12h1.5v1.5c0,.276,.224,.5,.5,.5s.5-.224,.5-.5v-1.5h1.5c.276,0,.5-.224,.5-.5s-.224-.5-.5-.5h-1.5v-1.5c0-.276-.224-.5-.5-.5s-.5,.224-.5,.5v1.5h-1.5c-.276,0-.5,.224-.5,.5s.224,.5,.5,.5Zm9,8h4c.276,0,.5-.224,.5-.5s-.224-.5-.5-.5h-4c-.276,0-.5,.224-.5,.5s.224,.5,.5,.5Zm-6.293-2l1.396-1.396c.195-.196,.195-.512,0-.708-.195-.194-.512-.195-.707,0l-1.396,1.396-1.396-1.396c-.195-.195-.512-.195-.707,0-.195,.195-.195,.512,0,.708l1.396,1.396-1.396,1.396c-.195,.196-.195,.512,0,.708,.195,.194,.512,.195,.707,0l1.396-1.396,1.396,1.396c.195,.195,.512,.195,.707,0,.195-.195,.195-.512,0-.708l-1.396-1.396Z"/>
</svg>
