<?xml version="1.0" encoding="UTF-8"?>
<svg xmlns="http://www.w3.org/2000/svg" id="Layer_1" data-name="Layer 1" viewBox="0 0 24 24">
  <path d="M0,4.5c0-.276,.224-.5,.5-.5H23.5c.276,0,.5,.224,.5,.5s-.224,.5-.5,.5H.5c-.276,0-.5-.224-.5-.5Zm23.5,4.5H8.5c-.276,0-.5,.224-.5,.5s.224,.5,.5,.5h15c.276,0,.5-.224,.5-.5s-.224-.5-.5-.5Zm0,5H8.5c-.276,0-.5,.224-.5,.5s.224,.5,.5,.5h15c.276,0,.5-.224,.5-.5s-.224-.5-.5-.5Zm0,5H.5c-.276,0-.5,.224-.5,.5s.224,.5,.5,.5H23.5c.276,0,.5-.224,.5-.5s-.224-.5-.5-.5ZM0,15.077v-6.075c0-.618,.355-1.149,.926-1.386,.57-.236,1.197-.112,1.635,.325l2.974,2.974c.62,.62,.62,1.629,0,2.249l-2.974,2.974c-.291,.291-.665,.443-1.051,.443-.195,0-.392-.039-.583-.118-.571-.237-.926-.768-.926-1.386Zm1,0c0,.31,.236,.432,.309,.462,.072,.029,.325,.11,.545-.108l2.974-2.974c.23-.23,.23-.605,0-.835l-2.974-2.974c-.116-.116-.241-.148-.344-.148-.092,0-.167,.025-.201,.04-.072,.03-.309,.152-.309,.462v6.075Z"/>
</svg>
