<?xml version="1.0" encoding="UTF-8"?>
<svg xmlns="http://www.w3.org/2000/svg" id="Layer_1" data-name="Layer 1" viewBox="0 0 24 24">
  <path d="M23.995,12.784c-.1,2.691-1.737,5.14-4.273,6.392-.247,.123-.548,.021-.669-.227-.123-.248-.021-.547,.227-.669,2.206-1.089,3.63-3.209,3.717-5.533,.116-3.131-2.015-5.9-5.066-6.584-.735-.165-1.346-.636-1.676-1.295-1.413-2.819-4.47-4.324-7.598-3.743C5.917,1.633,3.704,3.816,3.147,6.559c-.167,.819-.191,1.644-.074,2.452,.13,.892-.119,1.714-.685,2.254-.894,.854-1.387,2.002-1.388,3.231,0,2.237,1.444,4.012,3.592,4.416,.271,.051,.45,.312,.399,.583-.045,.24-.255,.408-.491,.408-.031,0-.062-.003-.093-.009-2.636-.495-4.408-2.665-4.408-5.399,.001-1.505,.604-2.909,1.698-3.953,.328-.314,.469-.819,.386-1.387-.135-.923-.107-1.863,.083-2.796C2.804,3.222,5.338,.724,8.473,.142c3.574-.664,7.06,1.056,8.675,4.279,.195,.389,.559,.668,1,.767,3.521,.79,5.98,3.984,5.847,7.597Zm-6.995-.284v9.593c0,.949-1.546,1.907-5,1.907s-5-.958-5-1.907V12.5c0-1.495,2.009-2.5,5-2.5s5,1.005,5,2.5Zm-.999,4.791c-.806,.417-2.108,.709-4.001,.709s-3.194-.292-4-.708v1.802c.08,.225,1.183,.907,4,.907s3.916-.68,4.002-.929v-1.78Zm-.002-3.215c-.873,.577-2.263,.924-4,.924s-3.127-.347-4-.924v2.017c.08,.225,1.183,.907,4,.907s3.912-.678,4.001-.928v-1.997Zm-8.001-1.576c0,.737,1.496,1.5,4,1.5s4-.763,4-1.5-1.496-1.5-4-1.5-4,.763-4,1.5Zm8.003,9.57v-1.779c-.807,.417-2.108,.71-4.003,.71s-3.194-.292-4-.708v1.802c.08,.225,1.183,.907,4,.907s3.92-.682,4.003-.93Z"/>
</svg>
