<svg id="Layer_1" viewBox="0 0 24 24" xmlns="http://www.w3.org/2000/svg" data-name="Layer 1"><path d="m23.854 23.146-6.903-6.903c1.59-1.443 3.823-2.64 5.481-3.408.431-.2.653-.663.539-1.126s-.527-.778-.998-.745c-2.285.111-5.399.686-7.64 2.662l-.479-.479c-.195-.195-.512-.195-.707 0s-.195.512 0 .707l.479.479c-1.975 2.242-2.55 5.356-2.662 7.64-.023.474.283.884.744.998.45.113.928-.103 1.127-.54.768-1.658 1.964-3.891 3.408-5.48l6.903 6.903c.195.195.512.195.707 0s.195-.512 0-.707zm-11.891-1.125c.109-2.237.665-5.33 2.697-7.361 2.031-2.032 5.124-2.589 7.351-2.732-1.861.862-4.437 2.247-6.136 3.947-1.7 1.699-3.085 4.274-3.912 6.146zm-1.522-9.135c-.633.075-1.286.113-1.941.113-4.486 0-7.5-1.672-7.5-3.233v-3.117c1.419 1.411 4.213 2.351 7.5 2.351s6.081-.94 7.5-2.351v2.851c0 .276.224.5.5.5s.5-.224.5-.5v-5c0-2.523-3.733-4.5-8.5-4.5s-8.5 1.977-8.5 4.5v15.571c0 2.203 3.733 3.929 8.5 3.929.276 0 .5-.224.5-.5s-.224-.5-.5-.5c-4.42 0-7.5-1.544-7.5-2.929v-3.283c1.419 1.327 4.213 2.211 7.5 2.211.276 0 .5-.224.5-.5s-.224-.5-.5-.5c-4.486 0-7.5-1.672-7.5-3.233v-2.978c1.419 1.327 4.213 2.211 7.5 2.211.694 0 1.387-.041 2.059-.121.274-.032.47-.281.438-.556-.033-.273-.283-.479-.556-.437zm-1.941-11.886c4.065 0 7.5 1.603 7.5 3.5s-3.435 3.5-7.5 3.5-7.5-1.603-7.5-3.5 3.435-3.5 7.5-3.5z"/></svg>