<?xml version="1.0" encoding="UTF-8"?>
<svg xmlns="http://www.w3.org/2000/svg" id="Layer_1" data-name="Layer 1" viewBox="0 0 24 24">
  <path d="m24,12c0,6.617-5.383,12-12,12S0,18.617,0,12c0-.352.015-.699.045-1.042.023-.275.256-.487.541-.455.275.023.479.266.455.541-.027.315-.041.634-.041.957,0,6.065,4.935,11,11,11s11-4.935,11-11S18.065,1,12,1c-.322,0-.641.014-.957.041-.015.001-.029.002-.043.002-.257,0-.475-.197-.498-.457-.024-.275.18-.518.455-.541.344-.03.691-.045,1.042-.045,6.617,0,12,5.383,12,12ZM3.262,5.023c.141,0,.281-.059.379-.175.37-.431.776-.837,1.207-1.206.21-.18.234-.496.055-.705-.18-.21-.495-.233-.705-.055-.47.402-.912.845-1.315,1.315-.18.209-.156.525.054.705.094.081.21.121.325.121Zm-2.339,3.833c.052.017.105.025.157.025.21,0,.405-.133.475-.343.179-.54.401-1.068.661-1.572.126-.245.03-.547-.215-.673-.246-.127-.546-.031-.673.215-.284.549-.526,1.126-.721,1.715-.087.262.055.545.317.632ZM6.738,2.272c.077,0,.155-.018.229-.056.504-.26,1.032-.482,1.571-.661.262-.087.404-.37.317-.632-.087-.262-.371-.404-.632-.317-.588.195-1.165.438-1.714.721-.246.126-.342.428-.215.673.089.172.264.271.445.271Zm-.738,9.728c0-.276.224-.5.5-.5h3.571c.182-.699.73-1.247,1.429-1.429v-4.571c0-.276.224-.5.5-.5s.5.224.5.5v4.571c.86.224,1.5,1,1.5,1.929,0,1.103-.897,2-2,2-.929,0-1.705-.64-1.929-1.5h-3.571c-.276,0-.5-.224-.5-.5Zm5,0c0,.551.449,1,1,1s1-.449,1-1-.449-1-1-1-1,.449-1,1Z"/>
</svg>
