<?xml version="1.0" encoding="UTF-8"?>
<svg xmlns="http://www.w3.org/2000/svg" id="Layer_1" data-name="Layer 1" viewBox="0 0 24 24">
  <path d="M23.5,0c-.276,0-.5,.224-.5,.5v.5H1V.5c0-.276-.224-.5-.5-.5S0,.224,0,.5V11.146c0,1.335,.741,2.535,1.935,3.131l8.947,4.474L2.276,23.053c-.247,.124-.347,.424-.224,.671,.125,.249,.429,.346,.671,.224l9.276-4.638,9.276,4.638c.242,.122,.546,.026,.671-.224,.123-.247,.023-.547-.224-.671l-8.605-4.303,8.947-4.474c1.193-.596,1.935-1.796,1.935-3.131V.5c0-.276-.224-.5-.5-.5ZM12,18.191l-7.904-3.952c1.877,.384,4.567,.761,7.904,.761s6.027-.377,7.904-.761l-7.904,3.952Zm11-7.045c0,.49-.144,.951-.395,1.345-.041,.016-4.133,1.51-10.605,1.51S1.436,12.506,1.395,12.49c-.251-.393-.395-.855-.395-1.345v-2.146H23v2.146Zm0-3.146H1V2H23v6Z"/>
</svg>
