<?xml version="1.0" encoding="UTF-8"?>
<svg xmlns="http://www.w3.org/2000/svg" id="Layer_1" data-name="Layer 1" viewBox="0 0 24 24">
  <path d="m18.332,11.939c-.658-1.734-2.346-2.9-4.2-2.903l-4.308-.007h-.008c-1.897,0-3.599,1.199-4.237,2.986l-.967,2.708c-.406,1.137-.612,2.325-.612,3.531,0,1.435.816,2.671,2,3.307v.938c0,.827.673,1.5,1.5,1.5s1.5-.673,1.5-1.5v-.477h6v.477c0,.827.673,1.5,1.5,1.5s1.5-.673,1.5-1.5v-.938c1.184-.636,2-1.872,2-3.307,0-1.206-.206-2.394-.615-3.541l-1.053-2.775Zm-11.811.412c.497-1.39,1.82-2.322,3.296-2.322h.006l4.308.007c1.442.002,2.755.91,3.267,2.258l1.027,2.707-12.858.023.954-2.672Zm1.479,10.149c0,.276-.224.5-.5.5s-.5-.224-.5-.5v-.5l1,.023v.477Zm9,0c0,.276-.224.5-.5.5s-.5-.224-.5-.5v-.477l1-.023v.5Zm-9-6.5v1.5c0,.276.224.5.5.5s.5-.224.5-.5v-1.483l6-.01v1.494c0,.276.224.5.5.5s.5-.224.5-.5v-1.496l2.722-.003c.18.737.278,1.491.278,2.254,0,1.449-1.122,2.627-2.541,2.745H7.541c-1.419-.118-2.541-1.296-2.541-2.745,0-.756.096-1.525.273-2.255h2.727Zm16-4v11.5c0,.276-.224.5-.5.5s-.5-.224-.5-.5v-11.5c0-6.065-4.935-11-11-11S1,5.935,1,12v11.5c0,.276-.224.5-.5.5s-.5-.224-.5-.5v-11.5C0,5.383,5.383,0,12,0s12,5.383,12,12Z"/>
</svg>
