<?xml version="1.0" encoding="UTF-8"?>
<svg xmlns="http://www.w3.org/2000/svg" id="Layer_1" data-name="Layer 1" viewBox="0 0 24 24">
  <path d="m23.588,15.405c-.306-.299-.717-.444-1.145-.396-1.297.147-2.465.547-3.476,1.144-.153-2.037-.879-3.757-2.349-5.612-.545-.688-1.693-.688-2.238,0-1.482,1.87-2.188,3.551-2.325,5.608-1.012-.602-2.181-1.005-3.481-1.152-.42-.051-.838.096-1.144.396-.31.303-.465.724-.425,1.153.422,4.598,3.677,7.454,8.494,7.454s8.093-2.852,8.514-7.442c.039-.43-.116-.85-.426-1.153Zm-8.424-4.243c.164-.206.508-.206.672,0,1.496,1.889,2.125,3.546,2.158,5.668-1.137.926-1.994,2.154-2.492,3.599-.494-1.441-1.341-2.665-2.465-3.591.019-2.134.64-3.797,2.128-5.676Zm-7.162,5.292c-.012-.128.035-.255.129-.347.047-.047.145-.12.285-.12.015,0,.031,0,.047.002,3.744.424,6.311,3.208,6.522,6.998-4.026-.188-6.623-2.601-6.983-6.534Zm8.013,6.534c.213-3.781,2.787-6.561,6.542-6.986.016-.001.031-.002.047-.002.14,0,.237.073.285.12.094.092.141.218.129.347-.36,3.927-2.964,6.335-7.003,6.522Zm-8.02.405c.039.273-.151.527-.424.566-.187.026-.377.041-.571.041h-3c-2.206,0-4-1.794-4-4v-8c0-2.206,1.794-4,4-4h3c2.206,0,4,1.794,4,4v.5c0,.276-.224.5-.5.5s-.5-.224-.5-.5v-.5c0-1.654-1.346-3-3-3h-3c-1.654,0-3,1.346-3,3v8c0,1.654,1.346,3,3,3h3c.146,0,.289-.01.429-.031.275-.042.527.151.566.424ZM5.5,7c1.539,0,2.791-1.252,2.791-2.791,0-.253,0-1.025-1.484-3.473-.28-.461-.768-.736-1.307-.736s-1.027.275-1.307.736c-1.484,2.448-1.484,3.22-1.484,3.473,0,1.539,1.252,2.791,2.791,2.791Zm-.452-5.746c.139-.229.362-.254.452-.254s.312.025.452.254c1.209,1.993,1.339,2.73,1.339,2.955,0,.988-.803,1.791-1.791,1.791s-1.791-.803-1.791-1.791c0-.224.13-.961,1.339-2.955Z"/>
</svg>
