<svg id="Layer_1" viewBox="0 0 24 24" xmlns="http://www.w3.org/2000/svg" data-name="Layer 1"><path d="m22 6.03v10.011c0 1.095.136 2.156.405 3.154.271 1.009.595 2.575.595 4.305 0 .276-.224.5-.5.5s-.5-.224-.5-.5c0-1.621-.305-3.095-.561-4.045-.292-1.082-.439-2.23-.439-3.414v-9.42c-.554.238-1.158.379-1.793.379h-5.707c-.276 0-.5-.224-.5-.5s.224-.5.5-.5h5.707c1.516 0 2.846-.946 3.31-2.353.321-.973.484-2.032.484-3.147 0-.276.224-.5.5-.5s.5.224.5.5c0 1.222-.18 2.386-.534 3.46-.277.841-.799 1.546-1.466 2.07zm-11.5.97c.276 0 .5-.224.5-.5s-.224-.5-.5-.5h-5.674c-1.474 0-2.796-.921-3.29-2.293-.356-.989-.537-2.068-.537-3.207 0-.276-.224-.5-.5-.5s-.499.224-.499.5c0 1.255.201 2.448.596 3.546.282.784.781 1.443 1.406 1.946 0 .003-.002.005-.002.008v10.041c0 1.095-.136 2.156-.405 3.154-.271 1.009-.595 2.575-.595 4.305 0 .276.224.5.5.5s.5-.224.5-.5c0-1.621.305-3.095.561-4.045.292-1.082.439-2.23.439-3.414v-9.438c.565.251 1.182.397 1.826.397zm7.5 2.5v12c0 1.378-1.122 2.5-2.5 2.5h-1.5c-.821 0-1.544-.403-2-1.015-.456.613-1.179 1.015-2 1.015h-1.5c-1.378 0-2.5-1.122-2.5-2.5v-12c0-.276.224-.5.5-.5s.5.224.5.5v2c0 .827.673 1.5 1.5 1.5h1.5c.827 0 1.5-.673 1.5-1.5v-2c0-.276.224-.5.5-.5s.5.224.5.5v2c0 .827.673 1.5 1.5 1.5h1.5c.827 0 1.5-.673 1.5-1.5v-2c0-.276.224-.5.5-.5s.5.224.5.5zm-5.5 3.987v3.013c0 .827.673 1.5 1.5 1.5h1.5c.827 0 1.5-.673 1.5-1.5v-3.013c-.419.317-.935.513-1.5.513h-1.5c-.565 0-1.081-.195-1.5-.513zm-5.5 0v3.013c0 .827.673 1.5 1.5 1.5h1.5c.827 0 1.5-.673 1.5-1.5v-3.013c-.419.317-.935.513-1.5.513h-1.5c-.565 0-1.081-.195-1.5-.513zm4.5 8.013v-3.013c-.419.317-.935.513-1.5.513h-1.5c-.565 0-1.081-.195-1.5-.513v3.013c0 .827.673 1.5 1.5 1.5h1.5c.827 0 1.5-.673 1.5-1.5zm5.5 0v-3.013c-.419.317-.935.513-1.5.513h-1.5c-.565 0-1.081-.195-1.5-.513v3.013c0 .827.673 1.5 1.5 1.5h1.5c.827 0 1.5-.673 1.5-1.5zm-12-17.5c.552 0 1-.448 1-1s-.448-1-1-1-1 .448-1 1 .448 1 1 1zm14 0c.552 0 1-.448 1-1s-.448-1-1-1-1 .448-1 1 .448 1 1 1z"/></svg>