<?xml version="1.0" encoding="UTF-8"?>
<svg xmlns="http://www.w3.org/2000/svg" id="Layer_1" data-name="Layer 1" viewBox="0 0 24 24">
  <path d="M15.854,12.854l-3.146,3.146,3.146,3.146c.195,.195,.195,.512,0,.707-.098,.098-.226,.146-.354,.146s-.256-.049-.354-.146l-3.146-3.146-3.146,3.146c-.098,.098-.226,.146-.354,.146s-.256-.049-.354-.146c-.195-.195-.195-.512,0-.707l3.146-3.146-3.146-3.146c-.195-.195-.195-.512,0-.707s.512-.195,.707,0l3.146,3.146,3.146-3.146c.195-.195,.512-.195,.707,0s.195,.512,0,.707Zm6.146-2.868v9.515c0,2.481-2.019,4.5-4.5,4.5H6.5c-2.481,0-4.5-2.019-4.5-4.5V4.5C2,2.019,4.019,0,6.5,0h5.515c1.736,0,3.369,.677,4.597,1.904l3.484,3.484c1.228,1.228,1.904,2.86,1.904,4.597ZM15.904,2.611c-.55-.55-1.2-.959-1.904-1.232V6.5c0,.827,.673,1.5,1.5,1.5h5.121c-.273-.704-.682-1.354-1.232-1.904l-3.484-3.484Zm5.096,7.374c0-.335-.038-.663-.096-.985h-5.404c-1.379,0-2.5-1.121-2.5-2.5V1.096c-.323-.058-.651-.096-.985-.096H6.5c-1.93,0-3.5,1.57-3.5,3.5v15c0,1.93,1.57,3.5,3.5,3.5h11c1.93,0,3.5-1.57,3.5-3.5V9.985Z"/>
</svg>
