<?xml version="1.0" encoding="UTF-8"?>
<svg xmlns="http://www.w3.org/2000/svg" id="Layer_1" data-name="Layer 1" viewBox="0 0 24 24">
  <path d="M.691,13.989h-.007c-.28,.05-.547-.143-.584-.425-.067-.517-.101-1.041-.101-1.564,0-.518,.033-1.038,.099-1.55,.036-.282,.303-.475,.583-.426h.006c.264,.047,.447,.293,.411,.558-.063,.464-.1,.937-.1,1.419,0,.486,.038,.963,.102,1.432,.036,.265-.147,.511-.411,.557Zm.501-5.89l.01,.004c.254,.092,.533-.035,.635-.285,.363-.887,.835-1.718,1.405-2.47,.163-.215,.131-.518-.076-.691-.218-.182-.546-.147-.718,.079-.635,.833-1.154,1.739-1.551,2.704-.108,.263,.028,.563,.295,.659ZM4.569,3.245c.174,.205,.479,.234,.692,.069,.747-.579,1.57-1.061,2.452-1.434,.248-.105,.372-.385,.278-.638l-.004-.01c-.099-.266-.401-.399-.663-.288-.961,.407-1.861,.936-2.687,1.578-.224,.174-.255,.502-.071,.719l.002,.003ZM12,0c-.555,0-1.11,.038-1.656,.113-.282,.039-.473,.309-.422,.589,.049,.268,.302,.446,.572,.407,.493-.07,.995-.11,1.507-.11V23c-.512,0-1.014-.04-1.507-.11-.27-.038-.523,.139-.572,.407-.051,.28,.14,.551,.422,.589,.547,.075,1.102,.113,1.656,.113,6.617,0,12-5.383,12-12S18.617,0,12,0ZM1.842,16.195c-.103-.25-.381-.376-.635-.284l-.009,.003c-.267,.097-.403,.397-.294,.66,.398,.964,.918,1.869,1.553,2.701,.172,.226,.5,.26,.718,.078h0c.207-.173,.238-.476,.075-.691-.571-.752-1.044-1.581-1.408-2.468Zm5.883,5.93c-.883-.372-1.708-.853-2.455-1.431-.213-.165-.517-.136-.691,.07l-.002,.003c-.184,.217-.152,.545,.072,.719,.827,.642,1.728,1.17,2.69,1.576,.262,.11,.563-.023,.662-.289l.004-.01c.094-.253-.03-.532-.279-.637Z"/>
</svg>
