<?xml version="1.0" encoding="UTF-8"?>
<svg xmlns="http://www.w3.org/2000/svg" id="Layer_1" data-name="Layer 1" viewBox="0 0 24 24">
  <path d="M15.5,5.5c0-.276,.224-.5,.5-.5h2V3c0-.276,.224-.5,.5-.5s.5,.224,.5,.5v2h2c.276,0,.5,.224,.5,.5s-.224,.5-.5,.5h-2v2c0,.276-.224,.5-.5,.5s-.5-.224-.5-.5v-2h-2c-.276,0-.5-.224-.5-.5Zm-2.5,3v-3c0-3.033,2.467-5.5,5.5-5.5s5.5,2.467,5.5,5.5-2.467,5.5-5.5,5.5h-3c-.865,0-2.5-.522-2.5-2.5Zm1,0c0,1.412,1.252,1.497,1.503,1.5h2.997c2.481,0,4.5-2.019,4.5-4.5s-2.019-4.5-4.5-4.5-4.5,2.019-4.5,4.5v3Zm9.139,8.798c.557,.551,.837,1.227,.837,1.945s-.28,1.395-.788,1.902l-.977,1.125c-1.122,1.124-2.609,1.729-4.211,1.729C10.251,24-.024,13.725-.024,5.976-.024,4.374,.582,2.887,1.681,1.789L2.855,.765c.966-.97,2.763-.994,3.78,.023l1.959,2.543c1.006,1,1.006,2.707-.043,3.756l-1.488,1.525c1.616,3.803,4.614,6.804,8.295,8.303l1.532-1.493c1.049-1.048,2.754-1.046,3.802,.002l2.446,1.873Zm-.658,.75l-2.446-1.873c-.736-.725-1.801-.682-2.439-.043-.001,.002-.003,.003-.004,.005l-1.766,1.722c-.14,.136-.348,.179-.527,.108-4.172-1.593-7.557-4.976-9.286-9.28-.074-.184-.032-.394,.106-.536l1.722-1.766c.664-.664,.664-1.736,.004-2.396l-1.959-2.543c-.639-.627-1.71-.592-2.348,.049l-1.175,1.025c-.885,.885-1.387,2.121-1.387,3.456,0,7.16,9.864,17.024,17.024,17.024,1.335,0,2.571-.501,3.48-1.411l.978-1.125c.683-.685,.683-1.757,.023-2.416Z"/>
</svg>
