<svg id="Layer_1" viewBox="0 0 24 24" xmlns="http://www.w3.org/2000/svg" data-name="Layer 1"><path d="m23.5 20c-.276 0-.5.224-.5.5 0 1.378-1.121 2.5-2.5 2.5s-2.5-1.122-2.5-2.5c0-1.11.456-2.162 1.034-3.494.876-2.019 1.966-4.532 1.966-8.516 0-.039-.016-.492-.11-1.125.957-.84 2.04-1.857 2.191-2.008 1.224-1.224 1.224-3.214 0-4.438-1.187-1.187-3.254-1.186-4.438 0-.136.136-.558.595-1.177 1.279-1.044-.58-4.449-2.198-9.965-2.198-3.028 0-6.957.974-7.122 1.015-.268.067-.431.339-.364.606.067.268.336.432.606.364.04-.01 3.977-.985 6.879-.985 4.921 0 8.115 1.37 9.272 1.965-4.203 4.66-14.042 15.71-16.361 18.322-.571.643-.541 1.624.069 2.234.318.318.736.478 1.155.478.389 0 .778-.138 1.088-.416 2.933-2.627 14.061-12.558 17.257-15.408.017.201.02.322.02.324 0 3.767-1.044 6.174-1.883 8.108-.6 1.381-1.117 2.575-1.117 3.892 0 1.93 1.57 3.5 3.5 3.5s3.5-1.57 3.5-3.5c0-.276-.224-.5-.5-.5zm-4.15-18.374c.404-.404.941-.626 1.513-.626s1.107.222 1.512.626c.834.833.834 2.19 0 3.024-.12.12-.916.867-1.719 1.587-.133-.503-.312-1.034-.569-1.541-.124-.247-.427-.342-.672-.219-.246.125-.345.426-.219.672.275.541.454 1.128.573 1.658-.72.34-1.606.221-2.202-.375-.757-.757-.757-1.989 0-2.746.603-.928 1.73-1.953 1.783-2.061zm-17.294 21.213c-.25.224-.631.212-.869-.024-.236-.236-.249-.616-.029-.863 2.489-2.803 10.313-11.588 14.864-16.657.053.673.324 1.332.837 1.846.512.512 1.17.783 1.842.837-3.822 3.409-13.88 12.384-16.645 14.862z"/></svg>