<?xml version="1.0" encoding="UTF-8"?>
<svg xmlns="http://www.w3.org/2000/svg" id="Layer_1" data-name="Layer 1" viewBox="0 0 24 24">
  <path d="M23.021,1.516c-.614-.473-1.396-.631-2.141-.433-1.175,.318-2.738,.912-3.881,.917C13.986,1.973,10.046-.011,7,0,5.032,0,2.896,.795,1.45,1.461c-.881,.407-1.45,1.297-1.45,2.27V23.5c0,.276,.224,.5,.5,.5s.5-.224,.5-.5v-5.259c.785-.514,3.604-2.241,6.002-2.241,3.015,.027,6.951,2.01,9.998,2,1.888,0,4.148-.467,5.376-1.109,1.017-.533,1.624-1.432,1.624-2.403V3.504c0-.785-.356-1.51-.979-1.988Zm-.021,12.971c0,.593-.407,1.16-1.089,1.517-1.083,.568-3.194,.996-4.911,.996-3.014-.027-6.952-2.01-9.998-2-2.276,0-4.764,1.308-6.002,2.058V3.731c0-.583,.341-1.118,.869-1.362,1.109-.512,3.25-1.37,5.131-1.37,3.015,.027,6.953,2.011,10,2,1.004,0,2.258-.384,3.266-.693,.322-.099,.618-.189,.871-.256,.446-.118,.909-.024,1.275,.258,.373,.288,.588,.723,.588,1.195V14.487ZM13,5c0,.552-.448,1-1,1s-1-.448-1-1,.448-1,1-1,1,.448,1,1Zm0,8c0,.552-.448,1-1,1s-1-.448-1-1,.448-1,1-1,1,.448,1,1Zm-5-3c-.552,0-1-.448-1-1s.448-1,1-1,1,.448,1,1-.448,1-1,1Zm9-1c0,.552-.448,1-1,1s-1-.448-1-1,.448-1,1-1,1,.448,1,1Zm-7.121-3.536c.391,.391,.391,1.024,0,1.414-.391,.391-1.024,.391-1.414,0-.391-.391-.391-1.024,0-1.414,.391-.391,1.024-.391,1.414,0Zm5.657,5.657c.391,.391,.391,1.024,0,1.414-.391,.391-1.024,.391-1.414,0-.391-.391-.391-1.024,0-1.414s1.024-.391,1.414,0Zm-1.414-4.243c-.391-.391-.391-1.024,0-1.414,.391-.391,1.024-.391,1.414,0,.391,.391,.391,1.024,0,1.414-.391,.391-1.024,.391-1.414,0Zm-4.243,4.243c.391,.391,.391,1.024,0,1.414-.391,.391-1.024,.391-1.414,0-.391-.391-.391-1.024,0-1.414s1.024-.391,1.414,0Z"/>
</svg>
