<?xml version="1.0" encoding="UTF-8"?>
<svg xmlns="http://www.w3.org/2000/svg" id="Layer_1" data-name="Layer 1" viewBox="0 0 24 24">
  <path d="M21,11h-1V2.04c.679,.761,1.747,1.683,3.318,2.297,.06,.023,.122,.034,.182,.034,.2,0,.388-.12,.466-.317,.101-.258-.026-.548-.284-.648-2.648-1.036-3.725-3.11-3.735-3.131-.009-.018-.118-.269-.443-.269s-.442,.252-.451,.269c-.077,.151-1.948,3.725-7.053,3.725S5.024,.427,4.947,.275C4.861,.107,4.688,0,4.5,0h-.001c-.189,0-.362,.106-.446,.275-.01,.021-1.068,2.086-3.735,3.13-.257,.101-.384,.391-.284,.648,.101,.257,.392,.383,.648,.283,1.568-.614,2.639-1.535,3.318-2.295V11h-1.5c-1.378,0-2.5,1.121-2.5,2.5v1.929c0,.887,.521,1.718,1.361,2.168,1.627,.874,2.639,2.561,2.639,4.403v1c0,.552,.449,1,1,1h1c.551,0,1-.448,1-1v-.764c0-2.682,1.98-4.972,4.507-5.213,1.432-.145,2.8,.317,3.855,1.275,1.041,.946,1.638,2.296,1.638,3.701v1c0,.552,.449,1,1,1h1c.551,0,1-.448,1-1v-1c0-1.843,1.011-3.529,2.639-4.403,.84-.45,1.361-1.281,1.361-2.168v-1.429c0-1.654-1.346-3-3-3Zm-2-8.952V11h-6.5V4.978c3.387-.147,5.434-1.731,6.5-2.929Zm-14-.005c1.064,1.198,3.114,2.772,6.5,2.922v6.034H5V2.044ZM23,15.429c0,.525-.312,1.007-.834,1.287-1.953,1.048-3.166,3.072-3.166,5.284v1h-1v-1c0-1.687-.716-3.306-1.965-4.44-1.119-1.018-2.53-1.561-4.027-1.561-.197,0-.396,.01-.596,.028-3.035,.29-5.413,3.018-5.413,6.209v.764h-1v-1c0-2.212-1.213-4.236-3.166-5.284-.522-.28-.834-.762-.834-1.287v-1.929c0-.827,.673-1.5,1.5-1.5H21c1.103,0,2,.897,2,2v1.429Z"/>
</svg>
