<svg id="Layer_1" viewBox="0 0 24 24" xmlns="http://www.w3.org/2000/svg" data-name="Layer 1"><path d="m16.45 1.841c.062-.169.223-.281.403-.281h1.289l.456-1.28c.062-.168.223-.279.402-.279s.34.111.403.279l.456 1.28h1.289c.18 0 .341.113.403.282s.011.359-.127.476l-1.016.828.42 1.28c.057.173 0 .364-.146.475-.145.111-.344.119-.497.02l-1.182-.77-1.162.778c-.151.102-.351.096-.497-.013s-.207-.299-.152-.473l.404-1.295-1.021-.831c-.137-.117-.187-.307-.125-.475zm-7.375 2.475 1.021.831-.404 1.295c-.055.174.006.363.152.473.146.109.345.114.497.013l1.162-.778 1.182.77c.153.099.352.091.497-.02s.203-.302.146-.475l-.42-1.28 1.016-.828c.138-.117.189-.307.127-.476s-.223-.282-.403-.282h-1.289l-.456-1.28c-.062-.168-.223-.279-.403-.279s-.34.111-.402.279l-.456 1.28h-1.289c-.18 0-.341.113-.403.281-.062.169-.012.359.125.475zm-7.5 2 1.021.831-.404 1.295c-.055.174.006.363.152.473.146.109.345.114.497.013l1.162-.778 1.182.77c.153.099.352.091.497-.02s.203-.302.146-.475l-.42-1.28 1.016-.828c.138-.117.189-.307.127-.476s-.223-.282-.403-.282h-1.289l-.456-1.28c-.062-.168-.223-.279-.403-.279s-.34.111-.402.279l-.456 1.28h-1.289c-.18 0-.341.113-.403.281-.062.169-.012.359.125.475zm19.425.684h-3c-1.564 0-2.853 1.203-2.988 2.733-.531-.459-1.222-.733-1.962-.733h-3.05c-1.585 0-2.873 1.239-2.979 2.797-.534-.49-1.24-.797-2.021-.797h-2c-1.654 0-3 1.346-3 3v7c0 1.654 1.346 3 3 3h3.5c.276 0 .5-.224.5-.5s-.224-.5-.5-.5h-3.5c-1.103 0-2-.897-2-2v-7c0-1.103.897-2 2-2h2c1.103 0 2 .897 2 2v4.5c0 .276.224.5.5.5s.5-.224.5-.5v-6.5c0-1.103.897-2 2-2h3.05c.948 0 1.772.673 1.96 1.6.051.251.284.419.54.398.256-.026.45-.241.45-.498v-1.5c0-1.103.897-2 2-2h3c1.103 0 2 .897 2 2v3.5c0 .276.224.5.5.5s.5-.224.5-.5v-3.5c0-1.654-1.346-3-3-3zm1.766 9.398c.933 2.774 1.234 5.148 1.234 5.863 0 .958-.78 1.738-1.738 1.738-1.271 0-3.161-1.975-4.098-3.377-.26-.39-.715-.623-1.216-.623h-.867c-.499 0-.953.231-1.213.617-.945 1.404-2.851 3.383-4.13 3.383-.958 0-1.738-.78-1.738-1.738 0-.715.302-3.089 1.234-5.863.421-1.254 1.496-2.148 2.766-2.353v-.545c0-.276.224-.5.5-.5s.5.224.5.5v.5h5v-.5c0-.276.224-.5.5-.5s.5.224.5.5v.545c1.271.205 2.345 1.099 2.766 2.353zm.234 5.864c0-.635-.298-2.914-1.182-5.545-.345-1.027-1.301-1.717-2.378-1.717h-5.881c-1.077 0-2.033.69-2.377 1.717-.884 2.631-1.182 4.91-1.182 5.545 0 .407.331.738.738.738.667 0 2.302-1.457 3.3-2.941.447-.663 1.211-1.059 2.043-1.059h.867c.836 0 1.602.399 2.048 1.068.988 1.479 2.606 2.932 3.266 2.932.407 0 .738-.331.738-.738z"/></svg>