<svg id="Layer_1" viewBox="0 0 24 24" xmlns="http://www.w3.org/2000/svg" data-name="Layer 1"><path d="m24 5.5v10.101c0 2.003-.78 3.887-2.196 5.303l-2.95 2.95c-.195.195-.512.195-.707 0s-.195-.512 0-.707l2.95-2.95c1.228-1.228 1.903-2.859 1.903-4.596v-10.101c0-.827-.673-1.5-1.5-1.5s-1.5.673-1.5 1.5v8c-.03.569-.187 1.139-.584 1.601l-2.639 2.746c-.191.199-.509.205-.707.014-.199-.191-.205-.508-.014-.707l2.616-2.721c.461-.553.43-1.396-.055-1.935-.526-.611-1.517-.662-2.112-.116l-2.729 2.512c-.521.479-.925 1.053-1.229 1.691.291.745.452 1.542.452 2.356v4.56c0 .276-.224.5-.5.5s-.5-.224-.5-.5v-4.56c0-1.533-.647-3.009-1.776-4.047l-2.734-2.516c-.583-.541-1.587-.489-2.107.12-.494.551-.508 1.394-.032 1.96l2.594 2.695c.191.199.186.516-.014.707-.197.192-.515.186-.707-.014l-2.616-2.721c-.412-.476-.564-1.051-.606-1.626v-7.999c0-.827-.673-1.5-1.5-1.5s-1.5.673-1.5 1.5v10.101c0 1.736.676 3.368 1.903 4.596l2.95 2.95c.195.195.195.512 0 .707s-.512.195-.707 0l-2.95-2.95c-1.416-1.416-2.196-3.3-2.196-5.303v-10.101c0-1.378 1.121-2.5 2.5-2.5s2.5 1.122 2.5 2.5v5.997c.391-.294.86-.466 1.359-.494.674-.045 1.307.188 1.803.633l2.739 2.521c.43.395.793.848 1.098 1.336.306-.489.669-.939 1.099-1.336l2.734-2.516c.502-.449 1.146-.678 1.808-.637.5.027.969.199 1.359.494v-5.998c0-1.378 1.121-2.5 2.5-2.5s2.5 1.122 2.5 2.5zm-12.5 1.5h1c.276 0 .5-.224.5-.5v-1c0-.276-.224-.5-.5-.5h-1c-.276 0-.5.224-.5.5v1c0 .276.224.5.5.5zm-4.5.5v-3.313c0-.833.412-1.607 1.102-2.072l2.5-1.687c.85-.573 1.947-.573 2.797 0l2.5 1.687c.689.465 1.102 1.24 1.102 2.072v3.313c0 1.378-1.121 2.5-2.5 2.5h-5c-1.379 0-2.5-1.122-2.5-2.5zm1 0c0 .827.673 1.5 1.5 1.5h5c.827 0 1.5-.673 1.5-1.5v-3.313c0-.5-.247-.964-.66-1.243l-2.5-1.687c-.255-.172-.548-.258-.84-.258s-.585.086-.84.258l-2.5 1.687c-.413.279-.66.744-.66 1.243z"/></svg>