<svg id="Layer_1" viewBox="0 0 24 24" xmlns="http://www.w3.org/2000/svg" data-name="Layer 1"><path d="m22.916 1.193c-1.101-.747-2.378-1.193-3.417-1.193-1.03 0-2.308.449-3.415 1.202-.946.642-1.327 1.83-.928 2.889l1.353 3.583.897 14.36c.069 1.103.988 1.966 2.093 1.966s2.023-.863 2.093-1.966l.897-14.36 1.354-3.592c.399-1.059.019-2.247-.927-2.888zm-1.699 10.807h-3.436l-.25-4h3.936zm-.623 9.972c-.036.577-.517 1.028-1.095 1.028s-1.059-.452-1.095-1.028l-.561-8.972h3.311l-.561 8.972zm2.313-18.243-1.232 3.271h-4.352l-1.231-3.262c-.235-.625-.009-1.328.554-1.709.935-.635 2.028-1.029 2.854-1.029.847 0 1.914.381 2.855 1.021.562.381.788 1.083.553 1.708zm-22.601.156 1.951.822.779 1.949c.076.19.26.314.464.314s.388-.125.464-.314l.777-1.944 1.944-.777c.19-.076.314-.26.314-.464s-.125-.388-.314-.464l-1.944-.777-.777-1.944c-.152-.38-.776-.38-.929 0l-.775 1.939-1.937.733c-.191.072-.319.253-.323.457s.117.391.306.47zm2.514-.804c.131-.05.235-.152.288-.282l.393-.982.393.982c.051.127.152.228.279.279l.982.393-.982.393c-.127.051-.228.152-.279.279l-.393.982-.393-.982c-.05-.124-.147-.223-.27-.275l-.991-.417.973-.368zm7.779 10.32-.635-1.586c-.152-.38-.776-.38-.929 0l-.633 1.582-1.58.598c-.191.073-.319.254-.323.458s.117.391.306.47l1.593.671.637 1.591c.076.19.26.314.464.314s.388-.125.464-.314l.635-1.586 1.586-.635c.19-.076.314-.26.314-.464s-.125-.388-.314-.464l-1.586-.635zm-.57 1.349c-.127.051-.228.151-.279.279l-.25.625-.25-.625c-.05-.125-.147-.223-.27-.275l-.634-.267.617-.233c.131-.05.235-.152.287-.282l.25-.625.25.625c.051.127.151.228.279.279l.625.25-.625.25zm5.367 4.837c.229.155.287.467.132.695-1.587 2.328-4.215 3.718-7.028 3.718-4.687 0-8.5-3.813-8.5-8.5s3.813-8.5 8.5-8.5c2.438 0 4.761 1.049 6.375 2.878.183.208.163.523-.044.706-.208.183-.523.163-.706-.044-1.424-1.614-3.475-2.54-5.625-2.54-4.136 0-7.5 3.364-7.5 7.5s3.364 7.5 7.5 7.5c2.482 0 4.801-1.227 6.202-3.282.156-.229.469-.285.694-.131z"/></svg>