<?xml version="1.0" encoding="UTF-8"?>
<svg xmlns="http://www.w3.org/2000/svg" id="Layer_1" data-name="Layer 1" viewBox="0 0 24 24">
  <path d="M20,16H4c-2.206,0-4,1.794-4,4s1.794,4,4,4H20c2.206,0,4-1.794,4-4s-1.794-4-4-4ZM1,20c0-1.654,1.346-3,3-3H15v6H4c-1.654,0-3-1.346-3-3Zm19,3h-4v-6h4c1.654,0,3,1.346,3,3s-1.346,3-3,3ZM12,14c3.86,0,7-3.141,7-7S15.86,0,12,0,5,3.141,5,7s3.14,7,7,7Zm0-13c3.309,0,6,2.691,6,6s-2.691,6-6,6-6-2.691-6-6S8.691,1,12,1Zm-.354,6.354c-.094-.094-.146-.221-.146-.354V3.5c0-.276,.224-.5,.5-.5s.5,.224,.5,.5v3.293l1.854,1.854c.195,.195,.195,.512,0,.707-.098,.098-.226,.146-.354,.146s-.256-.049-.354-.146l-2-2Z"/>
</svg>
