<svg id="Layer_1" viewBox="0 0 24 24" xmlns="http://www.w3.org/2000/svg" data-name="Layer 1"><path d="m18 13.772c.002-.2-.081-.485-.49-.711-.49-.269-6.77-3.81-6.77-3.809-.472-.267-1.018-.333-1.541-.185-.521.148-.952.491-1.213.966l-.732 1.332c-.527.958-.183 2.178.767 2.719l2.626 1.498-.527 1.044c-.427.848-1.283 1.374-2.232 1.374h-1.387c-.276 0-.5.224-.5.5s.224.5.5.5h1.387c1.329 0 2.526-.737 3.125-1.923l.504-.999 2.535 1.446c.466.277 1.1.131 1.392-.326l.533.289c.271.15.585.184.88.098.296-.086.541-.283.69-.555l.304-.558c.302-.555.098-1.255-.459-1.562l-.289-.157.447-.31c.216-.113.447-.349.451-.671zm-3.453 2.883-6.032-3.44c-.478-.272-.65-.886-.386-1.368l.732-1.331c.254-.487.913-.674 1.387-.393 0 0 5.086 2.868 6.5 3.662l-.794.548c-.064.044-.117.103-.154.172l-1.254 2.15zm2.424-.661-.303.557c-.063.088-.116.098-.213.06l-.513-.278.451-.826.517.281c.074.041.101.134.061.207zm6.492 1.49-8.427-14.772c-.691-1.12-1.741-1.712-3.035-1.712s-2.38.608-3.068 1.728l-8.385 14.742c-.696 1.131-.729 2.501-.089 3.666.652 1.185 1.798 1.864 3.144 1.864h16.797c1.325 0 2.5-.697 3.144-1.866.639-1.162.605-2.532-.081-3.649zm-.795 3.167c-.466.845-1.313 1.349-2.268 1.349h-16.797c-.97 0-1.797-.491-2.268-1.347-.465-.845-.441-1.839.073-2.674l8.385-14.742c.491-.798 1.275-1.237 2.208-1.237.942 0 1.677.417 2.175 1.222l8.427 14.772c.504.821.528 1.814.065 2.657z"/></svg>