<svg id="Layer_1" viewBox="0 0 24 24" xmlns="http://www.w3.org/2000/svg" data-name="Layer 1"><path d="m21.5 8h-4.5v-3.5c0-1.103.897-2 2-2h1.071c.224.86 1 1.5 1.929 1.5 1.103 0 2-.897 2-2s-.897-2-2-2c-.929 0-1.705.64-1.929 1.5h-1.071c-1.654 0-3 1.346-3 3v3.5h-3.5v-4.071c.86-.224 1.5-1 1.5-1.929 0-1.103-.897-2-2-2s-2 .897-2 2c0 .929.64 1.705 1.5 1.929v4.071h-7c-1.146 0-2.221-.567-2.872-1.499.634-.907 1.685-1.501 2.872-1.501h4c.276 0 .5-.224.5-.5s-.224-.5-.5-.5h-4c-2.5-.004-4.509 2.057-4.5 4.5v11c0 2.481 2.019 4.5 4.5 4.5h17c1.379 0 2.5-1.122 2.5-2.5v-11c0-1.378-1.121-2.5-2.5-2.5zm.5-7c.552 0 1 .449 1 1s-.448 1-1 1-1-.449-1-1 .448-1 1-1zm-11 1c0-.551.448-1 1-1s1 .449 1 1-.448 1-1 1-1-.449-1-1zm12 19.5c0 .827-.673 1.5-1.5 1.5h-17c-1.93 0-3.5-1.57-3.5-3.5v-11c0-.348.051-.684.146-1.001.846.942 2.064 1.501 3.354 1.501h17c.827 0 1.5.673 1.5 1.5zm-2-5.5c0 .552-.448 1-1 1s-1-.448-1-1 .448-1 1-1 1 .448 1 1z"/></svg>