<svg id="Layer_1" viewBox="0 0 24 24" xmlns="http://www.w3.org/2000/svg" data-name="Layer 1"><path d="m21.627 18.017c-.27-.072-.541.089-.61.356-.07.267.089.541.356.61.897.236 1.627 1.141 1.627 2.017 0 1.103-.897 2-2 2s-2-.897-2-2v-12.818c0-3.784-3.058-8.182-7-8.182s-7 4.398-7 8.182v12.818c0 1.103-.897 2-2 2s-2-.897-2-2c0-1.002.667-1.846 1.587-2.007.271-.048.453-.307.405-.579-.047-.272-.312-.452-.579-.406-1.398.246-2.413 1.504-2.413 2.993 0 1.654 1.346 3 3 3s3-1.346 3-3v-5c0-.551.448-1 1-1s1 .449 1 1v6.5c0 .827.673 1.5 1.5 1.5s1.5-.673 1.5-1.5v-6.5c0-.551.448-1 1-1s1 .449 1 1v6.5c0 .827.673 1.5 1.5 1.5s1.5-.673 1.5-1.5v-6.5c0-.551.448-1 1-1s1 .449 1 1v5c0 1.654 1.346 3 3 3s3-1.346 3-3c0-1.346-1.021-2.628-2.373-2.983zm-4.627-4.017c-1.103 0-2 .897-2 2v6.5c0 .276-.225.5-.5.5s-.5-.224-.5-.5v-6.5c0-1.103-.897-2-2-2s-2 .897-2 2v6.5c0 .276-.225.5-.5.5s-.5-.224-.5-.5v-6.5c0-1.103-.897-2-2-2-.366 0-.705.106-1 .278v-6.097c0-3.253 2.677-7.182 6-7.182s6 3.929 6 7.182v6.097c-.295-.172-.634-.278-1-.278zm-6-4c0 .552-.448 1-1 1s-1-.448-1-1 .448-1 1-1 1 .448 1 1zm4 0c0 .552-.448 1-1 1s-1-.448-1-1 .448-1 1-1 1 .448 1 1z"/></svg>