<svg id="Layer_1" viewBox="0 0 24 24" xmlns="http://www.w3.org/2000/svg" data-name="Layer 1"><path d="m23.879 22.408c.181.209.156.525-.053.705-.666.572-1.524.887-2.417.887-1.239 0-2.434-.594-3.137-1.494-.703.9-1.896 1.494-3.136 1.494s-2.434-.594-3.137-1.494c-.703.9-1.897 1.494-3.136 1.494s-2.434-.594-3.136-1.494c-.703.9-1.897 1.494-3.137 1.494-.893 0-1.75-.315-2.417-.887-.209-.18-.233-.496-.054-.705.181-.209.498-.233.705-.054.485.417 1.112.646 1.765.646 1.168 0 2.315-.719 2.668-1.673.142-.428.796-.428.938 0 .352.954 1.499 1.673 2.667 1.673s2.314-.719 2.667-1.673c.145-.393.793-.393.938 0 .353.954 1.5 1.673 2.668 1.673s2.314-.719 2.667-1.673c.145-.393.793-.393.938 0 .353.954 1.5 1.673 2.668 1.673.653 0 1.28-.229 1.765-.646.211-.18.526-.155.705.054zm.121-9.871v5.963c0 .276-.224.5-.5.5s-.5-.224-.5-.5v-5.963c0-1.166-.576-2.25-1.542-2.901l-4.5-3.037c-1.189-.803-2.727-.803-3.916 0l-4.5 3.037c-.966.652-1.542 1.736-1.542 2.901v5.963c0 .276-.224.5-.5.5s-.5-.224-.5-.5v-2.483c-.355.011-.828.022-1.224.022-.516 0-1.025-.009-1.578-.119-1.491-.295-2.695-1.431-3.067-2.891-.25-.983-.143-1.967.311-2.847.057-.111.055-.255-.005-.373-.289-.566-.436-1.174-.436-1.809 0-1.297.599-2.49 1.601-3.191.251-.176.409-.486.432-.851.087-1.383.855-2.595 2.106-3.324 1.358-.792 3.037-.844 4.49-.138 1.293.628 2.169 1.973 2.344 3.598.03.283.189.55.425.715.388.271.696.64.956 1.047l.128-.087c1.529-1.031 3.504-1.032 5.034 0l4.5 3.037c1.242.837 1.983 2.232 1.983 3.73zm-12.468-6.126c-.192-.306-.42-.582-.706-.783-.477-.333-.786-.853-.847-1.427-.138-1.28-.805-2.329-1.786-2.805-1.152-.56-2.479-.521-3.55.102-.958.559-1.545 1.478-1.611 2.523-.042.67-.354 1.256-.857 1.607-.735.514-1.174 1.4-1.174 2.372 0 .474.11.93.327 1.354.208.406.209.886.004 1.286-.34.66-.42 1.4-.231 2.143.273 1.073 1.195 1.939 2.293 2.158.464.092.901.1 1.383.1.398 0 .874-.012 1.224-.022v-2.48c0-1.498.741-2.893 1.983-3.73l3.549-2.395zm.468 10.089v-3c0-.827.673-1.5 1.5-1.5h3c.827 0 1.5.673 1.5 1.5v3c0 .827-.673 1.5-1.5 1.5h-3c-.827 0-1.5-.673-1.5-1.5zm1 0c0 .276.225.5.5.5h3c.275 0 .5-.224.5-.5v-3c0-.276-.225-.5-.5-.5h-3c-.275 0-.5.224-.5.5z"/></svg>