<?xml version="1.0" encoding="UTF-8"?>
<svg xmlns="http://www.w3.org/2000/svg" id="Layer_1" data-name="Layer 1" viewBox="0 0 24 24">
  <path d="M6,10.5c0,2.481,2.019,4.5,4.5,4.5s4.5-2.019,4.5-4.5-2.019-4.5-4.5-4.5-4.5,2.019-4.5,4.5Zm8,0c0,1.93-1.57,3.5-3.5,3.5s-3.5-1.57-3.5-3.5,1.57-3.5,3.5-3.5,3.5,1.57,3.5,3.5Zm-3.5-1c.552,0,1,.448,1,1s-.448,1-1,1-1-.448-1-1,.448-1,1-1Zm12,3.5c-.197,0-.385,.04-.558,.11-.173-.638-.751-1.11-1.442-1.11-.197,0-.385,.04-.558,.11-.173-.638-.751-1.11-1.442-1.11s-1.269,.473-1.442,1.11c-.173-.07-.36-.11-.558-.11-.827,0-1.5,.673-1.5,1.5v4.782l-.298-.298c-.113-.113-.529-.483-1.139-.484h-.001c-.401,0-.779,.167-1.095,.482-.606,.606-.618,1.618-.022,2.214l2.292,2.238c1.033,1.01,2.398,1.565,3.843,1.565h1.921c1.93,0,3.5-1.57,3.5-3.5v-6c0-.827-.673-1.5-1.5-1.5Zm.5,7.5c0,1.379-1.122,2.5-2.5,2.5h-1.921c-1.182,0-2.299-.455-3.144-1.28l-2.288-2.234c-.095-.095-.148-.234-.147-.382,.002-.157,.063-.304,.173-.414,.127-.127,.254-.189,.388-.189h0c.167,0,.341,.099,.433,.19l1.152,1.152c.144,.144,.358,.187,.545,.108,.187-.077,.309-.26,.309-.462v-5.989c0-.275,.224-.5,.5-.5s.5,.225,.5,.5v4c0,.276,.224,.5,.5,.5s.5-.224,.5-.5v-5c0-.275,.224-.5,.5-.5s.5,.225,.5,.5v5c0,.276,.224,.5,.5,.5s.5-.224,.5-.5v-4c0-.275,.224-.5,.5-.5s.5,.225,.5,.5v4c0,.276,.224,.5,.5,.5s.5-.224,.5-.5v-3c0-.275,.224-.5,.5-.5s.5,.225,.5,.5v6Zm-12,0c0,.276-.224,.5-.5,.5C4.71,21,0,16.29,0,10.5S4.71,0,10.5,0c5.421,0,9.913,4.062,10.448,9.45,.027,.275-.173,.521-.448,.547-.266,.032-.52-.173-.547-.447-.484-4.874-4.548-8.55-9.453-8.55C5.262,1,1,5.262,1,10.5s4.262,9.5,9.5,9.5c.276,0,.5,.224,.5,.5Z"/>
</svg>
