<?xml version="1.0" encoding="UTF-8"?>
<svg xmlns="http://www.w3.org/2000/svg" id="Layer_1" data-name="Layer 1" viewBox="0 0 24 24">
  <path d="m23.328,13.549c-.656-.97-1.746-1.549-2.914-1.549h-1.443c-1.285-3.057-3.052-4.931-4.328-5.974-.808-.662-1.824-1.026-2.862-1.026h-3.395l-.806-3.058c-.301-1.144-1.337-1.942-2.52-1.942-.814,0-1.567.37-2.064,1.016s-.663,1.467-.455,2.254l.456,1.73H.5c-.276,0-.5.224-.5.5s.224.5.5.5h11.28c.808,0,1.6.284,2.229.8,1.133.926,2.683,2.562,3.869,5.2h-2.274c-.496,0-.976.146-1.387.42l-1.991,1.328c-.249.165-.537.252-.833.252H.5c-.276,0-.5.224-.5.5s.224.5.5.5h10.895c.494,0,.974-.146,1.387-.42l1.992-1.328c.247-.165.534-.252.832-.252h4.809c.836,0,1.616.415,2.087,1.109.466.688.559,1.521.254,2.285-1.604,4.013-5.433,6.605-9.755,6.605H.5c-.276,0-.5.224-.5.5s.224.5.5.5h12.5c4.733,0,8.927-2.84,10.683-7.234.424-1.061.292-2.264-.354-3.217ZM3.507,3.015c-.128-.485-.025-.992.28-1.389.307-.398.771-.626,1.272-.626.729,0,1.367.492,1.553,1.197l.739,2.803h-3.321l-.523-1.985ZM0,9.5c0-.276.224-.5.5-.5h11c.276,0,.5.224.5.5s-.224.5-.5.5H.5c-.276,0-.5-.224-.5-.5Zm3,10.5c-.552,0-1-.448-1-1s.448-1,1-1,1,.448,1,1-.448,1-1,1Zm4,0c-.552,0-1-.448-1-1s.448-1,1-1,1,.448,1,1-.448,1-1,1Zm4,0c-.552,0-1-.448-1-1s.448-1,1-1,1,.448,1,1-.448,1-1,1Z"/>
</svg>
