<svg id="Layer_1" viewBox="0 0 24 24" xmlns="http://www.w3.org/2000/svg" data-name="Layer 1"><path d="m18.532 14.324-1.88-.705c-.374-.73-1.032-1.296-1.836-1.511-.937-.249-1.896-.062-2.643.511-.746.573-1.174 1.44-1.174 2.38 0 .535.143 1.06.413 1.517.094.16.058.382-.087.541-.72.788-1.801 1.848-2.816 1.944-.277-.13-.603-.648-.882-.836-.288-.212-.656-.251-.994-.105-.335.147-.568.46-.606.817-.102.953.068 2.412.586 3.238.763 1.216 2.101 1.885 3.766 1.885h3.968c1.472 0 3.662-.959 3.662-3.6v-.016c-.038-1.219-.765-2.311-1.471-3.219-.202-.268-.045-.718.101-.78l1.892-.71c.282-.106.468-.375.468-.676s-.187-.57-.468-.676zm-1.523 6.083c-.005 2.05-1.742 2.592-2.662 2.592h-3.968c-1.309 0-2.345-.503-2.918-1.417-.366-.585-.523-1.817-.429-2.615.067.05.172.167.273.279.3.334.672.75 1.235.75h.004c1.402-.127 2.617-1.278 3.52-2.267.438-.479.524-1.187.21-1.722-.18-.304-.274-.653-.274-1.009 0-.626.285-1.205.783-1.587.497-.382 1.146-.506 1.775-.338s1.157.677 1.346 1.298c.177.58.105 1.17-.199 1.662-.354.57-.337 1.255.044 1.745.604.779 1.228 1.7 1.26 2.629zm-3.798-1.38c-.527.104-1.16.452-1.881 1.036-.276.225-.405.581-.337.929s.323.628.663.731c.641.194 1.192.292 1.649.292.176 0 .337-.014.484-.043.393-.077.732-.303.956-.635s.304-.732.227-1.125c-.158-.812-.951-1.342-1.761-1.184zm.386 1.963c-.353.07-.928-.007-1.596-.184.56-.447 1.057-.729 1.402-.797.266-.055.534.124.588.395.053.271-.124.534-.395.587zm9.903-17.99h-8.5v-.5c0-1.378-1.121-2.5-2.5-2.5h-1c-1.379 0-2.5 1.122-2.5 2.5v.5h-8.5c-.276 0-.5.224-.5.5s.224.5.5.5h8.503c.009.787.318 1.527.875 2.086l1.621 1.621v1.793c0 .276.224.5.5.5s.5-.224.5-.5v-1.793l1.621-1.621c.558-.559.866-1.299.875-2.086h8.503c.276 0 .5-.224.5-.5s-.224-.5-.5-.5zm-9.5.964c0 .534-.208 1.036-.586 1.415l-1.414 1.414-1.414-1.414c-.378-.378-.586-.881-.586-1.415v-1.464c0-.827.673-1.5 1.5-1.5h1c.827 0 1.5.673 1.5 1.5z"/></svg>