<svg id="Layer_1" viewBox="0 0 24 24" xmlns="http://www.w3.org/2000/svg" data-name="Layer 1"><path d="m22.5 12h-21c-.827 0-1.5.673-1.5 1.5v6c0 2.481 2.019 4.5 4.5 4.5h15c2.481 0 4.5-2.019 4.5-4.5v-6c0-.827-.673-1.5-1.5-1.5zm-7 1v10h-7v-10zm-14.5 6.5v-6c0-.276.225-.5.5-.5h6v10h-3c-1.93 0-3.5-1.57-3.5-3.5zm22 0c0 1.93-1.57 3.5-3.5 3.5h-3v-10h6c.275 0 .5.224.5.5zm-22.989-10.102c.407-1.969 2.19-3.398 4.239-3.398 1.584 0 3 .859 3.754 2.156.779-1.31 2.267-2.156 3.996-2.156s3.217.846 3.996 2.156c.753-1.297 2.17-2.156 3.754-2.156 2.049 0 3.832 1.429 4.239 3.398.057.271-.117.535-.388.591-.263.056-.536-.116-.591-.388-.312-1.507-1.684-2.602-3.261-2.602s-2.948 1.094-3.261 2.602c-.053.222-.258.397-.49.398-.224-.01-.442-.168-.488-.398-.317-1.532-1.761-2.602-3.511-2.602s-3.193 1.07-3.511 2.602c-.053.223-.258.397-.49.398-.224-.01-.442-.168-.488-.398-.312-1.507-1.684-2.602-3.261-2.602s-2.948 1.094-3.261 2.602c-.056.271-.325.442-.591.388-.271-.056-.444-.321-.388-.591zm4.489-4.398c1.379 0 2.5-1.122 2.5-2.5s-1.121-2.5-2.5-2.5-2.5 1.122-2.5 2.5 1.121 2.5 2.5 2.5zm0-4c.827 0 1.5.673 1.5 1.5s-.673 1.5-1.5 1.5-1.5-.673-1.5-1.5.673-1.5 1.5-1.5zm7.5 4c1.379 0 2.5-1.122 2.5-2.5s-1.121-2.5-2.5-2.5-2.5 1.122-2.5 2.5 1.121 2.5 2.5 2.5zm0-4c.827 0 1.5.673 1.5 1.5s-.673 1.5-1.5 1.5-1.5-.673-1.5-1.5.673-1.5 1.5-1.5zm7.5 4c1.379 0 2.5-1.122 2.5-2.5s-1.121-2.5-2.5-2.5-2.5 1.122-2.5 2.5 1.121 2.5 2.5 2.5zm0-4c.827 0 1.5.673 1.5 1.5s-.673 1.5-1.5 1.5-1.5-.673-1.5-1.5.673-1.5 1.5-1.5z"/></svg>