<svg id="Layer_1" viewBox="0 0 24 24" xmlns="http://www.w3.org/2000/svg" data-name="Layer 1"><path d="m23.5 0c-.276 0-.5.224-.5.5v1.5h-22v-1.5c0-.276-.224-.5-.5-.5s-.5.224-.5.5v19c0 .276.224.5.5.5s.5-.224.5-.5v-7.5h12c.276 0 .5-.224.5-.5s-.224-.5-.5-.5h-1.293l8-8h3.293v1.293l-3.854 3.854c-.195.195-.195.512 0 .707s.512.195.707 0l3.146-3.146v5.293h-2c-.276 0-.5.224-.5.5s.224.5.5.5h2v7.5c0 .276.224.5.5.5s.5-.224.5-.5v-19.001c0-.276-.224-.5-.5-.5zm-17.207 3-5.293 5.293v-5.293zm-5.293 6.707 6.707-6.707h4.586l-8 8h-3.293zm9.293 1.293h-4.586l8-8h4.586zm13.207 12h-.868l-4.49-12.204c-.176-.476-.635-.796-1.142-.796s-.967.32-1.142.796l-4.49 12.204h-.868c-.276 0-.5.224-.5.5s.224.5.5.5h13c.276 0 .5-.224.5-.5s-.224-.5-.5-.5zm-8.491-7h3.981l1.104 3h-6.189zm1.787-4.858c.062-.169.344-.169.407 0l1.419 3.858h-3.246zm-3.259 8.858h6.924l1.104 3h-9.131l1.104-3z"/></svg>