<?xml version="1.0" encoding="UTF-8"?>
<svg xmlns="http://www.w3.org/2000/svg" id="Layer_1" data-name="Layer 1" viewBox="0 0 24 24">
  <path d="m24,11.5c0,.276-.224.5-.5.5h-7c-.276,0-.5-.224-.5-.5s.224-.5.5-.5h7c.276,0,.5.224.5.5ZM2.949,6C2.949,2.678,5.652-.025,8.974-.025s6.026,2.703,6.026,6.025-2.703,6.025-6.026,6.025-6.025-2.703-6.025-6.025Zm1,0c0,2.771,2.254,5.025,5.025,5.025s5.026-2.254,5.026-5.025S11.746.975,8.974.975,3.949,3.229,3.949,6Zm5.051,8C4.038,14,0,18.037,0,23v.5c0,.276.224.5.5.5s.5-.224.5-.5v-.5c0-4.411,3.589-8,8-8s8,3.589,8,8v.5c0,.276.224.5.5.5s.5-.224.5-.5v-.5c0-4.963-4.038-9-9-9Z"/>
</svg>
