<svg id="Layer_1" viewBox="0 0 24 24" xmlns="http://www.w3.org/2000/svg" data-name="Layer 1"><path d="m19.5 2h-1.5v-1.5c0-.276-.224-.5-.5-.5s-.5.224-.5.5v1.5h-10v-1.5c0-.276-.224-.5-.5-.5s-.5.224-.5.5v1.5h-1.5c-2.481 0-4.5 2.019-4.5 4.5v13c0 1.636.889 3.145 2.32 3.938.237.132.545.049.68-.195.134-.241.046-.546-.195-.68-1.113-.617-1.805-1.79-1.805-3.062v-10.501h22v4.5c0 .276.224.5.5.5s.5-.224.5-.5v-7c0-2.481-2.019-4.5-4.5-4.5zm-18.5 6v-1.5c0-1.93 1.57-3.5 3.5-3.5h15c1.93 0 3.5 1.57 3.5 3.5v1.5zm14.5 8c-.776 0-1.397.512-1.546 1.273l-1.2 6.131c-.053.271.124.533.395.586.273.054.534-.123.587-.395l.315-1.612h2.898l.315 1.612c.047.239.256.404.49.404.032 0 .064-.003.097-.01.271-.053.448-.315.395-.586l-1.2-6.131c-.149-.762-.771-1.273-1.546-1.273zm-1.253 4.983.689-3.519c.067-.343.336-.465.565-.465s.498.122.565.465l.689 3.519h-2.507zm9.69-4.24-2.437 4.387v2.37c0 .276-.224.5-.5.5s-.5-.224-.5-.5v-2.37l-2.437-4.387c-.134-.242-.047-.546.194-.681.242-.132.546-.047.68.194l2.063 3.714 2.063-3.714c.134-.241.438-.326.68-.194.242.135.329.438.194.681zm-12.675.257.469 6.464c.021.29-.208.536-.499.536-.262 0-.48-.202-.499-.464l-.459-6.33-1.41 3.102c-.232.51-.957.51-1.189 0l-1.41-3.103-.459 6.33c-.019.261-.237.464-.499.464-.29 0-.52-.247-.499-.536l.469-6.464c.043-.705.472-1 .988-1 .342 0 .66.242.841.64l1.164 2.56 1.164-2.56c.181-.398.499-.64.841-.64.516 0 .945.295.988 1z"/></svg>