<?xml version="1.0" encoding="UTF-8"?>
<svg xmlns="http://www.w3.org/2000/svg" id="Layer_1" data-name="Layer 1" viewBox="0 0 24 24">
  <path d="m19.658,12.525c-.944-.314-1.772-.599-2.536-.865.753-2.541,1.251-5.079,1.539-6.806.179-1.074,1.101-1.854,2.192-1.854,1.313,0,2.483-.785,2.982-2l.127-.311c.105-.255-.017-.547-.272-.652-.253-.104-.548.019-.652.273l-.127.311c-.344.838-1.152,1.379-2.057,1.379-1.583,0-2.919,1.132-3.179,2.69-.281,1.688-.766,4.163-1.497,6.638-.615-.217-1.19-.423-1.7-.605-3.401-1.219-4.809-1.724-7.478-1.724-.593,0-1.166.082-1.716.222l-1.607-5.222h2.823c.276,0,.5-.224.5-.5s-.224-.5-.5-.5H.5c-.276,0-.5.224-.5.5s.224.5.5.5h2.13l1.702,5.531c-2.54,1.051-4.332,3.554-4.332,6.469,0,3.164,2.112,5.842,5,6.705v.795c0,.276.224.5.5.5s.5-.224.5-.5v-.58c.328.047.66.08,1,.08h11v.5c0,.276.224.5.5.5s.5-.224.5-.5v-.534c2.786-.177,5-2.249,5-4.799,0-2.665-1.371-4.454-4.342-5.642Zm-1.033,9.475H7c-3.309,0-6-2.691-6-6s2.691-6,6-6c2.495,0,3.76.453,7.14,1.665.615.22,4.118,1.447,5.174,1.799,3.267,1.307,3.686,3.2,3.686,4.703,0,2.367-2.271,3.833-4.375,3.833Zm-6.125-6.5h-2.551c-.24-1.416-1.466-2.5-2.949-2.5-1.654,0-3,1.346-3,3s1.346,3,3,3c1.483,0,2.71-1.084,2.949-2.5h2.551c.276,0,.5-.224.5-.5s-.224-.5-.5-.5Zm-5.5,2.5c-1.103,0-2-.897-2-2s.897-2,2-2,2,.897,2,2-.897,2-2,2Z"/>
</svg>
