<svg id="Layer_1" viewBox="0 0 24 24" xmlns="http://www.w3.org/2000/svg" data-name="Layer 1"><path d="m21 21.092v-5.592c0-.276-.224-.5-.5-.5s-.5.224-.5.5v5.5h-16v-7.5h2.5c.276 0 .5-.224.5-.5s-.224-.5-.5-.5h-3c-.275 0-.5-.225-.5-.5s.225-.5.5-.5h3c.276 0 .5-.224.5-.5s-.224-.5-.5-.5h-2.5v-7.5h11c.276 0 .5-.224.5-.5s-.224-.5-.5-.5h-11.5c-.275 0-.5-.225-.5-.5s.225-.5.5-.5h13.5c.276 0 .5-.224.5-.5s-.224-.5-.5-.5h-13.5c-.827 0-1.5.673-1.5 1.5 0 .651.419 1.201 1 1.408v7.684c-.581.207-1 .757-1 1.408s.419 1.201 1 1.408v7.684c-.581.207-1 .757-1 1.408 0 .827.673 1.5 1.5 1.5h17c.827 0 1.5-.673 1.5-1.5 0-.651-.419-1.201-1-1.408zm-.5 1.908h-17c-.275 0-.5-.225-.5-.5s.225-.5.5-.5h17c.275 0 .5.225.5.5s-.225.5-.5.5zm-9.534-14.186-1.087 1.064c-1.17 1.17-1.17 3.072 0 4.242.566.566 1.32.879 2.121.879s1.555-.312 2.121-.879c1.17-1.17 1.17-3.072-.004-4.246l-1.084-1.061c-.58-.566-1.487-.566-2.067 0zm2.448 4.6c-.756.756-2.072.756-2.828 0-.779-.779-.779-2.049-.004-2.824l1.082-1.06c.093-.091.215-.136.336-.136s.242.045.334.135l1.08 1.057c.779.779.779 2.049 0 2.828zm9.586-8.914v-.227c0-.702-.543-1.273-1.21-1.273h-2.58c-.667 0-1.21.571-1.21 1.273 0 .567.363 1.071.883 1.226l3.519 1.043c.941.279 1.599 1.178 1.599 2.185 0 1.254-.991 2.273-2.21 2.273h-.79v1.5c0 .276-.224.5-.5.5s-.5-.224-.5-.5v-1.5h-.79c-1.219 0-2.21-1.02-2.21-2.273v-.227c0-.276.224-.5.5-.5s.5.224.5.5v.227c0 .702.543 1.273 1.21 1.273h2.58c.667 0 1.21-.571 1.21-1.273 0-.567-.363-1.071-.883-1.226l-3.519-1.043c-.941-.279-1.599-1.178-1.599-2.185 0-1.254.991-2.273 2.21-2.273h.79v-1.5c0-.276.224-.5.5-.5s.5.224.5.5v1.5h.79c1.219 0 2.21 1.02 2.21 2.273v.227c0 .276-.224.5-.5.5s-.5-.224-.5-.5z"/></svg>