<svg id="Layer_1" viewBox="0 0 24 24" xmlns="http://www.w3.org/2000/svg" data-name="Layer 1"><path d="m7 14v2.5h2.5c.276 0 .5.224.5.5s-.224.5-.5.5h-2.5v3c0 .276-.224.5-.5.5s-.5-.224-.5-.5v-6.5c0-.551.448-1 1-1h2.5c.276 0 .5.224.5.5s-.224.5-.5.5zm8.5 1.25c0 .602-.237 1.149-.623 1.553.671.39 1.123 1.117 1.123 1.947 0 1.241-1.01 2.25-2.25 2.25h-1.75c-.552 0-1-.449-1-1v-6c0-.551.448-1 1-1h1.25c1.24 0 2.25 1.009 2.25 2.25zm-3.5 1.25h1.25c.689 0 1.25-.561 1.25-1.25s-.561-1.25-1.25-1.25h-1.25zm1.75 1h-1.75v2.5h1.75c.689 0 1.25-.561 1.25-1.25s-.561-1.25-1.25-1.25zm7.998-4.434c-.238-.137-.545-.055-.683.186l-1.565 2.74-1.565-2.74c-.139-.241-.445-.323-.683-.186-.24.137-.323.442-.187.682l1.858 3.252-1.858 3.252c-.137.24-.054.545.187.682.235.136.544.056.683-.186l1.565-2.74 1.565 2.74c.139.242.447.322.683.186.24-.137.323-.442.187-.682l-1.858-3.252 1.858-3.252c.137-.24.054-.545-.187-.682zm.252-3.081v.515c0 .276-.224.5-.5.5s-.5-.224-.5-.5v-.515c0-.335-.038-.663-.096-.985h-5.404c-1.379 0-2.5-1.122-2.5-2.5v-5.404c-.323-.058-.651-.096-.985-.096h-5.515c-1.93 0-3.5 1.57-3.5 3.5v15c0 1.93 1.57 3.5 3.5 3.5h11c.616 0 1.221-.162 1.749-.468.237-.138.544-.059.684.182.139.239.057.545-.182.683-.682.394-1.46.603-2.251.603h-11c-2.481 0-4.5-2.019-4.5-4.5v-15c0-2.481 2.019-4.5 4.5-4.5h5.515c1.735 0 3.368.676 4.597 1.904l3.484 3.485c1.228 1.227 1.904 2.859 1.904 4.596zm-1.379-1.985c-.273-.704-.682-1.354-1.232-1.904l-3.484-3.485c-.551-.55-1.2-.959-1.904-1.231v5.12c0 .827.673 1.5 1.5 1.5h5.121z"/></svg>