<svg id="Layer_1" viewBox="0 0 24 24" xmlns="http://www.w3.org/2000/svg" data-name="Layer 1"><path d="m18.985 10.472c.146-2.548-.81-5.044-2.621-6.847-1.7-1.693-3.96-2.625-6.365-2.625s-4.664.932-6.364 2.625c-1.7 1.692-2.635 3.941-2.635 6.333 0 2.393.936 4.643 2.635 6.334l3.862 3.731c.804.778 1.903 1.135 3.015.98.271-.04.526.152.564.426s-.152.526-.426.564c-.218.03-.435.045-.651.045-1.189 0-2.328-.456-3.198-1.297l-3.867-3.736c-1.894-1.884-2.934-4.386-2.934-7.047 0-2.66 1.041-5.161 2.929-7.042 1.889-1.88 4.4-2.916 7.071-2.916s5.182 1.036 7.07 2.916c2.013 2.005 3.075 4.779 2.913 7.612-.016.276-.266.482-.527.471-.276-.016-.487-.252-.471-.527zm1.015 11.528c-.552 0-1 .448-1 1s.448 1 1 1 1-.448 1-1-.448-1-1-1zm3-3c-.552 0-1 .448-1 1s.448 1 1 1 1-.448 1-1-.448-1-1-1zm-3 0c-.552 0-1 .448-1 1s.448 1 1 1 1-.448 1-1-.448-1-1-1zm-2-4.5v2c0 .827-.673 1.5-1.5 1.5h-2c-.827 0-1.5-.673-1.5-1.5v-2c0-.827.673-1.5 1.5-1.5h2c.827 0 1.5.673 1.5 1.5zm-1 0c0-.276-.224-.5-.5-.5h-2c-.276 0-.5.224-.5.5v2c0 .276.224.5.5.5h2c.276 0 .5-.224.5-.5zm1 6v2c0 .827-.673 1.5-1.5 1.5h-2c-.827 0-1.5-.673-1.5-1.5v-2c0-.827.673-1.5 1.5-1.5h2c.827 0 1.5.673 1.5 1.5zm-1 0c0-.276-.224-.5-.5-.5h-2c-.276 0-.5.224-.5.5v2c0 .276.224.5.5.5h2c.276 0 .5-.224.5-.5zm7-6v2c0 .827-.673 1.5-1.5 1.5h-2c-.827 0-1.5-.673-1.5-1.5v-2c0-.827.673-1.5 1.5-1.5h2c.827 0 1.5.673 1.5 1.5zm-1 0c0-.276-.224-.5-.5-.5h-2c-.276 0-.5.224-.5.5v2c0 .276.224.5.5.5h2c.276 0 .5-.224.5-.5zm-1.5.25c-.414 0-.75.336-.75.75s.336.75.75.75.75-.336.75-.75-.336-.75-.75-.75zm-6 0c-.414 0-.75.336-.75.75s.336.75.75.75.75-.336.75-.75-.336-.75-.75-.75zm0 6c-.414 0-.75.336-.75.75s.336.75.75.75.75-.336.75-.75-.336-.75-.75-.75zm-2.288-9.271c.27.077.543-.072.622-.337.11-.37.166-.754.166-1.143 0-2.206-1.794-4-4-4s-4 1.794-4 4 1.794 4 4 4c.388 0 .772-.056 1.143-.166.265-.079.416-.357.337-.622-.079-.264-.356-.415-.622-.337-.277.083-.566.125-.857.125-1.654 0-3-1.346-3-3s1.346-3 3-3 3 1.346 3 3c0 .292-.042.58-.125.857-.079.265.072.543.337.622z"/></svg>