<svg id="Layer_1" viewBox="0 0 24 24" xmlns="http://www.w3.org/2000/svg" data-name="Layer 1"><path d="m24 7.5v12c0 2.481-2.019 4.5-4.5 4.5h-15c-2.481 0-4.5-2.019-4.5-4.5v-13c0-2.481 2.019-4.5 4.5-4.5h10c.276 0 .5.224.5.5s-.224.5-.5.5h-10c-1.93 0-3.5 1.57-3.5 3.5v2.5h6.5c.276 0 .5.224.5.5s-.224.5-.5.5h-6.5v9.5c0 1.93 1.57 3.5 3.5 3.5h15c1.93 0 3.5-1.57 3.5-3.5v-9.5h-1.5c-.276 0-.5-.224-.5-.5s.224-.5.5-.5h1.5v-1.5c0-.276.224-.5.5-.5s.5.224.5.5zm-21-1.5c0 .552.448 1 1 1s1-.448 1-1-.448-1-1-1-1 .448-1 1zm2.5 13c-.276 0-.5.224-.5.5s.224.5.5.5h13c.276 0 .5-.224.5-.5s-.224-.5-.5-.5zm.5-13c0 .552.448 1 1 1s1-.448 1-1-.448-1-1-1-1 .448-1 1zm5 0c0-.552-.448-1-1-1s-1 .448-1 1 .448 1 1 1 1-.448 1-1zm.253 4.019c7.125-8.332 7.8-9.118 7.837-9.16 1.141-1.137 2.958-1.137 4.074-.022 1.115 1.118 1.109 2.941-.012 4.065l-8.172 8.815s-.005.003-.008.005c-.01.157-.009.314-.039.471-.316 1.626-1.81 2.807-3.551 2.807h-3.95c-.458 0-.877-.21-1.15-.578-.271-.365-.352-.825-.221-1.261.444-1.472 1.832-4.856 5.19-5.138.001-.001.001-.003.003-.005zm1.202.132c.678.193 1.289.57 1.746 1.125.283.343.477.737.611 1.151l2.104-2.269c-.388-1.142-1.369-1.933-2.635-2.141-.549.643-1.162 1.359-1.826 2.135zm.975 1.762c-.478-.58-1.181-.913-1.93-.913-2.866.114-4.089 3.15-4.481 4.45-.088.265.135.558.414.55h3.95c1.264 0 2.344-.84 2.569-1.997.146-.75-.044-1.512-.521-2.09zm1.585-4.755c1.187.346 2.129 1.124 2.647 2.195l4.769-5.144c.746-.748.751-1.938.025-2.666-.725-.724-1.909-.725-2.638 0-.006.008-.387.45-4.803 5.614z"/></svg>