<svg id="Layer_1" viewBox="0 0 24 24" xmlns="http://www.w3.org/2000/svg" data-name="Layer 1"><path d="m6 22.5c0 .276-.224.5-.5.5h-1c-2.481 0-4.5-2.019-4.5-4.5v-9c0-2.481 2.019-4.5 4.5-4.5h9c1.843 0 3.481 1.104 4.172 2.812.104.256-.02.547-.276.651s-.547-.02-.651-.276c-.538-1.329-1.812-2.188-3.246-2.188h-8.999c-1.93 0-3.5 1.57-3.5 3.5v9c0 1.93 1.57 3.5 3.5 3.5h1c.276 0 .5.224.5.5zm16-9.5c-.366 0-.705.106-1 .278v-.278c0-1.103-.897-2-2-2-.415 0-.8.127-1.12.344-.273-.78-1.008-1.344-1.88-1.344-1.103 0-2 .897-2 2v.278c-.295-.172-.634-.278-1-.278-1.103 0-2 .897-2 2v4.494c-.888-.627-2.083-.665-2.94-.048-.603.435-.983 1.104-1.042 1.836-.059.733.205 1.451.694 1.937l1.404 1.678c.177.212.494.24.704.062.212-.177.24-.493.062-.704l-1.434-1.71c-.312-.312-.47-.742-.434-1.182.036-.446.259-.839.629-1.105.583-.419 1.444-.317 1.965.2l.5.625c.132.166.354.23.556.16.2-.07.334-.259.334-.472v-5.771c0-.551.449-1 1-1s1 .449 1 1v5.5c0 .276.224.5.5.5s.5-.224.5-.5v-7.5c0-.551.449-1 1-1s1 .449 1 1v7.5c0 .276.224.5.5.5s.5-.224.5-.5v-6.5c0-.551.449-1 1-1s1 .449 1 1v6.5c0 .276.224.5.5.5s.5-.224.5-.5v-4.5c0-.551.449-1 1-1s1 .449 1 1v8.5c0 .276.224.5.5.5s.5-.224.5-.5v-8.5c0-1.103-.897-2-2-2zm-5-9.568c.004-.205.132-.386.323-.458l1.938-.733.775-1.938c.152-.38.776-.38.929 0l.777 1.943 1.944.778c.19.076.314.26.314.464s-.125.388-.314.464l-1.944.777-.777 1.944c-.076.19-.26.314-.464.314s-.388-.125-.464-.314l-.779-1.949-1.951-.822c-.188-.08-.31-.266-.306-.47zm1.847.034.991.417c.123.052.22.151.27.275l.393.982.393-.982c.051-.127.152-.228.279-.279l.982-.393-.982-.393c-.127-.051-.228-.152-.279-.279l-.393-.982-.393.982c-.052.13-.156.232-.287.282l-.974.369zm-11.105 9.276-.777 1.944c-.076.19-.26.314-.464.314s-.388-.125-.464-.314l-.779-1.949-1.951-.822c-.188-.08-.31-.266-.306-.47s.132-.386.323-.458l1.937-.733.775-1.939c.152-.38.776-.38.929 0l.777 1.944 1.944.777c.19.076.314.26.314.464s-.125.388-.314.464l-1.944.777zm-.571-.849.982-.393-.982-.393c-.127-.051-.228-.152-.279-.279l-.393-.982-.393.982c-.052.13-.156.232-.288.282l-.973.368.991.417c.123.052.22.151.27.275l.393.982.393-.982c.051-.127.152-.228.279-.279z"/></svg>