<svg id="Layer_1" viewBox="0 0 24 24" xmlns="http://www.w3.org/2000/svg" data-name="Layer 1"><path d="m2 6c1.103 0 2-.898 2-2s-.897-2-2-2-2 .897-2 1.999.897 2 2 2zm0-3.001c.551 0 1 .448 1 1s-.449 1-1 1-1-.448-1-1 .449-1 1-1zm11.267 13.08c.126.64.495 1.187 1.038 1.54.537.349 1.179.463 1.797.322l6.041-1.366c1.177-.265 1.985-1.406 1.84-2.599-.87-7.14-6.943-12.177-10.813-13.821-.658-.279-1.41-.175-1.962.274-.561.455-.812 1.155-.67 1.87l2.729 13.779zm-1.428-14.874c.269-.22.625-.265.94-.13 3.657 1.553 9.393 6.302 10.211 13.023.084.689-.386 1.349-1.068 1.503l-6.041 1.366c-.356.08-.723.014-1.031-.187-.314-.204-.528-.523-.603-.895l-2.728-13.779c-.068-.347.051-.683.32-.901zm-8.404 6.035c-.576-.205-1.085-.339-1.717-.205-1.164.247-1.904 1.425-1.651 2.626l.616 2.929c.222 1.056.921 2.29 2.229 2.592l3.587.733c.594.121 1.054.584 1.171 1.179l.59 2.989c.053.272.323.448.587.394.271-.053.447-.316.394-.587l-.59-2.989c-.196-.992-.962-1.764-1.953-1.966l-1.342-.274-1.288-6.121 1.748.655c.447.168.93.204 1.394.105l2.892-.61c.271-.057.443-.322.386-.593s-.324-.44-.592-.386l-2.893.61c-.28.062-.569.038-.836-.063 0 0-2.645-1.011-2.734-1.019zm-.31 6.965c-.838-.193-1.312-1.101-1.463-1.819l-.616-2.93c-.137-.65.266-1.312.881-1.442.338-.073.614-.024 1.036.118l1.328 6.311-1.165-.238zm20.701 8.908c-.666.572-1.524.888-2.417.888-1.239 0-2.434-.594-3.137-1.494-.703.9-1.896 1.494-3.136 1.494s-2.434-.594-3.137-1.494c-.703.9-1.897 1.494-3.136 1.494s-2.434-.594-3.136-1.494c-.703.9-1.897 1.494-3.137 1.494-.893 0-1.75-.315-2.416-.888-.209-.18-.233-.495-.054-.705.181-.209.498-.232.705-.053.485.416 1.112.646 1.765.646 1.168 0 2.315-.72 2.668-1.674.072-.196.259-.326.469-.326s.396.131.469.327c.352.953 1.499 1.673 2.667 1.673s2.314-.72 2.667-1.674c.145-.393.793-.393.937 0 .353.954 1.5 1.674 2.668 1.674s2.314-.72 2.667-1.674c.145-.393.793-.393.937 0 .353.954 1.5 1.674 2.668 1.674.653 0 1.28-.23 1.765-.646.211-.18.526-.156.705.053.181.21.156.525-.053.705z"/></svg>