<svg id="Layer_1" viewBox="0 0 24 24" xmlns="http://www.w3.org/2000/svg" data-name="Layer 1"><path d="m10 6c.276 0 .5.224.5.5v5.5c0 .133-.053.26-.146.354l-3 3c-.195.195-.512.195-.707 0s-.195-.512 0-.707l2.854-2.854v-5.293c0-.276.224-.5.5-.5zm6.158 12.563c-1.674 1.571-3.86 2.437-6.158 2.437-4.963 0-9-4.037-9-9s4.037-9 9-9c.805 0 1.602.105 2.369.314.271.073.542-.085.613-.352.072-.266-.085-.541-.352-.613-.853-.232-1.737-.35-2.631-.35-5.513.001-9.999 4.487-9.999 10.001s4.486 10 10 10c2.553 0 4.982-.962 6.842-2.708.202-.188.212-.505.022-.706-.19-.203-.507-.211-.706-.022zm7.342-18.563c-.276 0-.5.224-.5.5v5c0 1.758-1.308 3.204-3 3.449v-8.449c0-.276-.224-.5-.5-.5s-.5.224-.5.5v8.449c-1.692-.245-3-1.691-3-3.449v-5c0-.276-.224-.5-.5-.5s-.5.224-.5.5v5c0 2.31 1.756 4.197 4 4.449v13.551c0 .276.224.5.5.5s.5-.224.5-.5v-13.551c2.244-.252 4-2.139 4-4.449v-5c0-.276-.224-.5-.5-.5z"/></svg>