<?xml version="1.0" encoding="UTF-8"?>
<svg xmlns="http://www.w3.org/2000/svg" id="Layer_1" data-name="Layer 1" viewBox="0 0 24 24">
  <path d="m13,.5c0-.276-.224-.5-.5-.5s-.5.224-.5.5v9.719l-.513.256c-1.534.768-2.487,2.31-2.487,4.025v8.5h-3.521c-.223,0-.34-.145-.38-.208-.041-.062-.124-.229-.076-.354l2.888-4.153c.158-.227.102-.539-.125-.696-.229-.158-.539-.102-.696.125l-2.932,4.232c-.206.452-.167.971.101,1.388s.725.666,1.221.666h5.521c1.654,0,3-1.346,3-3,0-7.503-.783-10.019-1-10.572V.5Zm-2,22.5h-1v-8.5c0-1.334.741-2.534,1.935-3.13l.274-.137c.27.99.791,3.688.791,9.768,0,1.103-.897,2-2,2Zm6.464-4c-1.382,0-2.464,1.098-2.464,2.5s1.083,2.5,2.464,2.5c1.398,0,2.536-1.122,2.536-2.5s-1.138-2.5-2.536-2.5Zm0,4c-.835,0-1.464-.645-1.464-1.5s.629-1.5,1.464-1.5c.847,0,1.536.673,1.536,1.5s-.689,1.5-1.536,1.5Z"/>
</svg>
