<?xml version="1.0" encoding="UTF-8"?>
<svg xmlns="http://www.w3.org/2000/svg" id="Layer_1" data-name="Layer 1" viewBox="0 0 24 24">
  <path d="M.5,8c-.276,0-.5,.224-.5,.5s.224,.5,.5,.5H13.5c.276,0,.5-.224,.5-.5s-.224-.5-.5-.5h-1.5V3h1.5c.276,0,.5-.224,.5-.5s-.224-.5-.5-.5H.5c-.276,0-.5,.224-.5,.5s.224,.5,.5,.5h1.5v5H.5Zm5.5,0V3h2v5h-2Zm5,0h-2V3h2v5ZM3,3h2v5H3V3Zm20.667,7.418l-1.009-3.025c-.478-1.431-1.812-2.393-3.32-2.393h-.838c-1.379,0-2.5,1.122-2.5,2.5v3.5H3.5c-1.93,0-3.5,1.57-3.5,3.5v5.5c0,1.654,1.346,3,3,3,1.044,0,1.962-.537,2.5-1.348,.538,.811,1.456,1.348,2.5,1.348,1.654,0,3-1.346,3-3v-1h5v1c0,1.654,1.346,3,3,3s3-1.346,3-3v-1.351c1.178-.564,2-1.758,2-3.149v-3.026c0-.701-.112-1.393-.333-2.056Zm-6.667-2.918c0-.827,.673-1.5,1.5-1.5h.838c1.078,0,2.03,.687,2.371,1.709l1.009,3.025c.029,.088,.057,.177,.081,.266h-5.799v-3.5ZM1,14.5c0-1.379,1.122-2.5,2.5-2.5h12.5v6H1v-3.5Zm2,7.5c-1.103,0-2-.897-2-2v-1H5v1c0,1.103-.897,2-2,2Zm7-2c0,1.103-.897,2-2,2s-2-.897-2-2v-1h4v1Zm11,0c0,1.103-.897,2-2,2s-2-.897-2-2v-1h3.5c.171,0,.335-.027,.5-.051v1.051Zm2-4.5c0,1.379-1.121,2.5-2.5,2.5h-3.5v-6h5.979c.014,.157,.021,.315,.021,.474v3.026Z"/>
</svg>
