<?xml version="1.0" encoding="UTF-8"?>
<svg xmlns="http://www.w3.org/2000/svg" id="Layer_1" data-name="Layer 1" viewBox="0 0 24 24">
  <path d="m23.328,14.015c-.271-.069-.539.099-.604.366-1.184,4.814-5.499,8.44-10.262,8.622-3.112.115-6.021-1.025-8.225-3.231-2.192-2.191-3.335-5.107-3.217-8.211C1.233,5.949,5.972,1.21,11.583.998c5.634-.216,10.515,3.833,11.316,9.415.038.265-.041.527-.225.738-.192.223-.47.35-.76.35h-1.937c-.047-.76-.198-1.504-.456-2.218.294-.348.478-.792.478-1.282,0-1.103-.897-2-2-2-.212,0-.412.042-.604.103-1.479-1.354-3.384-2.103-5.396-2.103s-3.923.747-5.402,2.102c-.19-.06-.389-.102-.598-.102-1.103,0-2,.897-2,2,0,.491.185.936.48,1.284-.314.87-.48,1.782-.48,2.716,0,3.66,2.513,6.853,6.025,7.747.123.986.956,1.753,1.975,1.753s1.857-.772,1.976-1.762c2.563-.656,4.68-2.559,5.569-5.071.092-.26-.045-.546-.305-.638-.261-.092-.545.043-.639.305-.763,2.159-2.565,3.803-4.754,4.404-.3-.726-1.015-1.238-1.847-1.238s-1.542.507-1.844,1.228c-3.008-.824-5.156-3.569-5.156-6.728,0-.727.117-1.438.334-2.122.209.074.431.122.666.122,1.103,0,2-.897,2-2,0-.515-.201-.98-.521-1.334,1.264-1.072,2.854-1.666,4.521-1.666s3.258.592,4.521,1.665c-.321.355-.521.82-.521,1.335,0,1.103.897,2,2,2,.229,0,.445-.047.65-.118.167.525.266,1.065.305,1.618h-2.98c-.247-1.97-1.936-3.5-3.976-3.5-2.206,0-4,1.794-4,4s1.794,4,4,4c1.084,0,2.1-.427,2.857-1.201.193-.197.189-.514-.008-.707-.196-.193-.515-.188-.707.008-.568.581-1.329.9-2.143.9-1.654,0-3-1.346-3-3s1.346-3,3-3,3.007,1.346,3.007,3c0,.276.224.5.5.5h6.408c.58,0,1.133-.253,1.516-.695.37-.427.538-.987.459-1.535C23.015,4.18,17.686-.239,11.545-.001,5.319.235.257,5.297.021,11.522c-.129,3.385,1.118,6.566,3.523,8.97,2.277,2.279,5.273,3.519,8.48,3.519.158,0,.316-.003.476-.009,5.199-.197,9.907-4.143,11.194-9.382.066-.268-.098-.539-.366-.604Zm-11.328,4.485c.551,0,1,.449,1,1s-.449,1-1,1-1-.449-1-1,.449-1,1-1Zm-6-9.5c-.551,0-1-.449-1-1s.449-1,1-1,1,.449,1,1-.449,1-1,1Zm11-1c0-.551.448-1,1-1s1,.449,1,1-.448,1-1,1-1-.449-1-1Z"/>
</svg>
