<?xml version="1.0" encoding="UTF-8"?>
<svg xmlns="http://www.w3.org/2000/svg" id="Layer_1" data-name="Layer 1" viewBox="0 0 24 24">
  <path d="M18,11c.552,0,1,.448,1,1s-.448,1-1,1-1-.448-1-1,.448-1,1-1Zm6,4c0,3.364-5.271,6-12,6S0,18.364,0,15c0-1.995,1.828-3.766,5.007-4.89,.077-3.726,2.884-6.826,6.461-7.09,3.377-.247,6.395,1.897,7.276,5.127,.734,.296,1.255,1.013,1.255,1.853,.974,0,1.785,.7,1.962,1.623,1.329,.986,2.038,2.148,2.038,3.377Zm-5-5c0-.551-.448-1-1-1s-1,.449-1,1c0,.514-.486,1-1,1-.552,0-1,.449-1,1s.448,1,1,1c.514,0,1,.486,1,1,0,.551,.448,1,1,1s1-.449,1-1c0-.514,.486-1,1-1,.552,0,1-.449,1-1s-.448-1-1-1c-.514,0-1-.486-1-1Zm-13,2.236c0,.442,.189,.856,.518,1.137,.871,.742,2.529,1.627,5.482,1.627,1.557,0,2.905-.257,4.025-.749-.011-.083-.025-.165-.025-.251-.618,0-1.165-.288-1.532-.73-.766,.149-1.593,.23-2.468,.23-3.177,0-5.022-.972-6-1.76v.497Zm0-1.97v.077c.334,.442,1.893,2.157,6,2.157,.721,0,1.395-.067,2.033-.175-.018-.106-.033-.214-.033-.325,0-1.103,.897-2,2-2,0-.982,.713-1.797,1.647-1.964-.883-2.553-3.356-4.221-6.104-4.019-3.108,.229-5.542,2.975-5.542,6.249Zm17,4.734c0-.895-.55-1.643-1.169-2.201-.309,.706-1.013,1.201-1.831,1.201,0,1.103-.897,2-2,2-.66,0-1.242-.326-1.607-.821-1.241,.538-2.711,.821-4.393,.821-3.258,0-5.132-1.015-6.131-1.866-.552-.471-.869-1.163-.869-1.897v-1.056c-2.508,.961-4,2.362-4,3.819,0,2.71,5.038,5,11,5s11-2.29,11-5Z"/>
</svg>
