<?xml version="1.0" encoding="UTF-8"?>
<svg xmlns="http://www.w3.org/2000/svg" id="Layer_1" data-name="Layer 1" viewBox="0 0 24 24">
  <path d="m11.944,1.291c-.756-.82-1.829-1.291-2.946-1.291h-4.996C2.885,0,1.812.471,1.056,1.291.302,2.109-.078,3.214.014,4.323c.484,5.841,1.901,13.75,1.986,14.223v2.454c0,1.654,1.346,3,3,3h3c1.654,0,3-1.346,3-3v-2.454c.085-.473,1.503-8.382,1.986-14.224.092-1.108-.288-2.213-1.042-3.031ZM1.791,1.969c.575-.625,1.36-.969,2.211-.969h4.996c.851,0,1.636.344,2.211.969.573.622.851,1.429.781,2.271-.429,5.179-1.604,12.029-1.909,13.76H2.919c-.306-1.731-1.48-8.581-1.909-13.76-.069-.843.208-1.649.781-2.271Zm8.209,19.031c0,1.103-.897,2-2,2h-3c-1.103,0-2-.897-2-2v-2h7v2Zm14-12.5c0,.276-.224.5-.5.5h-2.525c-.059.648-.233,1.261-.498,1.825l2.134,1.243c.238.139.319.445.18.684-.093.16-.26.249-.432.249-.086,0-.173-.022-.252-.068l-2.135-1.243c-.359.502-.799.94-1.302,1.297l1.262,2.17c.139.239.058.545-.182.684-.079.046-.165.068-.251.068-.172,0-.34-.089-.433-.249l-1.263-2.172c-.558.259-1.164.429-1.804.487v2.525c0,.276-.224.5-.5.5s-.5-.224-.5-.5v-2.538c-.391-.035-.777-.097-1.15-.214-.263-.083-.409-.364-.326-.627.082-.263.359-.41.627-.327.435.137.889.206,1.35.206,2.481,0,4.5-2.019,4.5-4.5s-2.019-4.5-4.5-4.5c-.276,0-.5-.224-.5-.5V.5c0-.276.224-.5.5-.5s.5.224.5.5v2.522c.647.059,1.256.24,1.819.504l1.248-2.146c.141-.239.445-.318.684-.181.239.139.32.445.182.684l-1.25,2.148c.498.355.925.794,1.28,1.292l2.156-1.255c.236-.138.544-.059.684.181.14.239.059.544-.18.684l-2.155,1.255c.262.561.425,1.169.485,1.813h2.548c.276,0,.5.224.5.5Z"/>
</svg>
