<svg id="Layer_1" viewBox="0 0 24 24" xmlns="http://www.w3.org/2000/svg" data-name="Layer 1"><path d="m9.919 21.81c-.768.126-1.582.19-2.419.19-3.831 0-6.5-1.317-6.5-2.5v-2.209c1.272 1.037 3.649 1.709 6.5 1.709.35 0 .693-.011 1.03-.031.276-.017.486-.253.469-.529-.016-.274-.263-.499-.529-.469-.317.019-.641.029-.97.029-3.831 0-6.5-1.317-6.5-2.5v-2.209c1.272 1.037 3.649 1.709 6.5 1.709.526 0 1.047-.024 1.547-.071.275-.026.477-.271.45-.545-.026-.274-.268-.473-.545-.451-.469.045-.958.067-1.453.067-3.831 0-6.5-1.317-6.5-2.5v-2.209c1.272 1.037 3.649 1.709 6.5 1.709 4.276 0 7.5-1.505 7.5-3.5v-4c0-1.995-3.224-3.5-7.5-3.5s-7.499 1.505-7.499 3.5v16c0 1.995 3.224 3.5 7.5 3.5.892 0 1.76-.068 2.581-.204.273-.045.457-.302.412-.574-.044-.272-.299-.458-.574-.412zm-2.419-11.81c-3.831 0-6.5-1.317-6.5-2.5v-2.209c1.272 1.037 3.649 1.709 6.5 1.709s5.228-.671 6.5-1.709v2.209c0 1.183-2.669 2.5-6.5 2.5zm0-9c3.831 0 6.5 1.317 6.5 2.5s-2.669 2.5-6.5 2.5-6.5-1.317-6.5-2.5 2.669-2.5 6.5-2.5zm10 10c-3.584 0-6.5 2.916-6.5 6.5s2.916 6.5 6.5 6.5 6.5-2.916 6.5-6.5-2.916-6.5-6.5-6.5zm0 12c-3.032 0-5.5-2.468-5.5-5.5s2.468-5.5 5.5-5.5 5.5 2.468 5.5 5.5-2.468 5.5-5.5 5.5zm3.038-3.83c0 1.009-.8 1.83-1.782 1.83h-.756v.5c0 .276-.224.5-.5.5s-.5-.224-.5-.5v-.5h-.757c-.817 0-1.528-.567-1.729-1.381-.066-.268.098-.539.366-.604.273-.064.539.099.604.366.09.364.401.619.758.619h2.513c.432 0 .782-.372.782-.83 0-.371-.235-.7-.571-.8l-3.095-.775c-.778-.23-1.308-.954-1.308-1.765 0-1.009.8-1.83 1.782-1.83h.653v-.5c0-.276.224-.5.5-.5s.5.224.5.5v.5h.757c.817 0 1.528.567 1.729 1.381.066.268-.098.539-.366.604-.271.066-.539-.098-.604-.366-.09-.364-.401-.619-.758-.619h-2.41c-.432 0-.782.372-.782.83 0 .371.235.7.571.8l3.095.775c.778.23 1.308.954 1.308 1.765z"/></svg>