<svg id="Layer_1" viewBox="0 0 24 24" xmlns="http://www.w3.org/2000/svg" data-name="Layer 1"><path d="m12.5 12.5v4c0 .276-.224.5-.5.5s-.5-.224-.5-.5v-4h-4c-.276 0-.5-.224-.5-.5s.224-.5.5-.5h4v-4c0-.276.224-.5.5-.5s.5.224.5.5v4h4c.276 0 .5.224.5.5s-.224.5-.5.5zm-5 10.5h-3c-1.93 0-3.5-1.57-3.5-3.5v-3c0-.276-.224-.5-.5-.5s-.5.224-.5.5v3c0 2.481 2.019 4.5 4.5 4.5h3c.276 0 .5-.224.5-.5s-.224-.5-.5-.5zm12-23h-3c-.276 0-.5.224-.5.5s.224.5.5.5h3c1.93 0 3.5 1.57 3.5 3.5v3c0 .276.224.5.5.5s.5-.224.5-.5v-3c0-2.481-2.019-4.5-4.5-4.5zm-19 8c.276 0 .5-.224.5-.5v-3c0-1.93 1.57-3.5 3.5-3.5h3c.276 0 .5-.224.5-.5s-.224-.5-.5-.5h-3c-2.481 0-4.5 2.019-4.5 4.5v3c0 .276.224.5.5.5zm23 8c-.276 0-.5.224-.5.5v3c0 1.93-1.57 3.5-3.5 3.5h-3c-.276 0-.5.224-.5.5s.224.5.5.5h3c2.481 0 4.5-2.019 4.5-4.5v-3c0-.276-.224-.5-.5-.5z"/></svg>