<svg id="Layer_1" viewBox="0 0 24 24" xmlns="http://www.w3.org/2000/svg" data-name="Layer 1"><path d="m19.601 8.544.773-.773c.453-.454.676-1.08.613-1.718s-.405-1.207-.938-1.562l-5.488-3.659c-1.088-.725-2.393-.978-3.674-.719-1.282.262-2.388 1.018-3.115 2.128-.746 1.14-.928 2.543-.577 3.871l-2.291 2.292c-1.228 1.228-1.904 2.859-1.904 4.596v10h-2.5c-.276 0-.5.224-.5.5s.224.5.5.5h6c.276 0 .5-.224.5-.5s-.224-.5-.5-.5h-2.5v-10c0-1.447.587-2.865 1.611-3.889l1.969-1.969c.098.195.203.387.327.573l3.567 5.351c.392.593.962.949 1.775.949.562 0 1.102-.222 1.504-.624l.776-.776c.445.253.945.4 1.471.4.801 0 1.555-.312 2.121-.879.567-.566.879-1.319.879-2.121 0-.526-.147-1.025-.399-1.471zm-5.555 4.14c-.241.241-.573.363-.911.325-.338-.033-.641-.215-.83-.498l-3.567-5.351c-.903-1.354-.955-3.11-.129-4.372.58-.885 1.46-1.486 2.479-1.694.261-.054.523-.08.783-.08.755 0 1.493.222 2.136.65l5.488 3.658c.283.188.464.491.498.829.034.339-.085.671-.326.912l-5.621 5.62zm4.368-1.255c-.557.557-1.418.7-2.135.436l2.581-2.58c.09.23.14.476.14.73 0 .534-.208 1.036-.586 1.414zm3.939 3.218c.195.195.195.512 0 .707s-.512.195-.707 0l-1.5-1.5c-.195-.195-.195-.512 0-.707s.512-.195.707 0zm-4.354-.146v2c0 .276-.224.5-.5.5s-.5-.224-.5-.5v-2c0-.276.224-.5.5-.5s.5.224.5.5zm6-4c0 .276-.224.5-.5.5h-2c-.276 0-.5-.224-.5-.5s.224-.5.5-.5h2c.276 0 .5.224.5.5z"/></svg>