<svg id="Layer_1" viewBox="0 0 24 24" xmlns="http://www.w3.org/2000/svg" data-name="Layer 1"><path d="m20.096 5.389-3.484-3.485c-1.229-1.228-2.861-1.904-4.597-1.904h-5.515c-2.481 0-4.5 2.019-4.5 4.5v15c0 2.481 2.019 4.5 4.5 4.5h11c.792 0 1.57-.208 2.251-.603.238-.139.32-.444.182-.684-.14-.241-.446-.32-.684-.182-.527.306-1.133.468-1.749.468h-11c-1.93 0-3.5-1.57-3.5-3.5v-14.999c0-1.93 1.57-3.5 3.5-3.5h5.515c.335 0 .663.038.985.096v5.404c0 1.378 1.121 2.5 2.5 2.5h5.404c.058.323.096.651.096.985v.515c0 .276.224.5.5.5s.5-.224.5-.5v-.515c0-1.737-.677-3.369-1.904-4.596zm-4.596 2.611c-.827 0-1.5-.673-1.5-1.5v-5.12c.704.273 1.354.682 1.904 1.231l3.484 3.485c.55.55.959 1.199 1.232 1.904h-5.121zm-4.75 5.017c-.774 0-1.396.511-1.544 1.271l-1.196 6.116c-.054.271.123.533.395.586.265.054.533-.122.586-.395l.312-1.596h2.895l.312 1.596c.051.273.323.449.586.395.271-.053.448-.315.395-.586l-1.196-6.116c-.148-.761-.77-1.271-1.544-1.271zm-1.252 4.983.689-3.521c.067-.341.335-.463.563-.463s.496.122.563.463l.689 3.521zm9.598-4.99c.271.053.448.315.395.586l-1.196 6.116c-.148.761-.77 1.271-1.544 1.271s-1.396-.511-1.544-1.271l-1.196-6.116c-.054-.271.123-.533.395-.586.266-.058.533.122.586.395l1.196 6.116c.067.341.335.463.563.463s.496-.122.563-.463l1.196-6.116c.052-.272.321-.454.586-.395zm2.904.49v7c0 .276-.224.5-.5.5s-.5-.224-.5-.5v-7c0-.276.224-.5.5-.5s.5.224.5.5z"/></svg>