<svg id="Layer_1" viewBox="0 0 24 24" xmlns="http://www.w3.org/2000/svg" data-name="Layer 1"><path d="m12.5 12h.758c1.448 0 2.866-.587 3.889-1.611l6.121-6.121c.473-.473.732-1.1.732-1.768s-.26-1.296-.732-1.768c-.975-.975-2.561-.975-3.535 0l-6.121 6.121c-1.024 1.022-1.611 2.44-1.611 3.889v.758c0 .276.224.5.5.5zm.5-1.258c0-1.185.48-2.345 1.318-3.182l6.121-6.121c.584-.585 1.537-.585 2.121 0 .283.283.439.66.439 1.061s-.156.777-.439 1.061l-6.121 6.121c-.837.838-1.997 1.318-3.182 1.318h-.258v-.258zm9.309-3.132c-.215.173-.249.487-.076.703.502.625.768 1.381.768 2.187v9c0 1.93-1.57 3.5-3.5 3.5h-13.501v-16h4.5c.276 0 .5-.224.5-.5s-.224-.5-.5-.5h-6c-2.481 0-4.5 2.019-4.5 4.5v9c0 2.481 2.019 4.5 4.5 4.5h15c2.481 0 4.5-2.019 4.5-4.5v-9c0-1.021-.351-2.02-.988-2.813-.173-.216-.486-.248-.703-.076zm-21.309 11.89v-9c0-1.93 1.57-3.5 3.5-3.5h.5v16h-.5c-1.93 0-3.5-1.57-3.5-3.5zm7-7v-2c0-.827.673-1.5 1.5-1.5h.5c.276 0 .5.224.5.5s-.224.5-.5.5h-.5c-.275 0-.5.225-.5.5v2c0 .276-.224.5-.5.5s-.5-.224-.5-.5zm1.5 7.5h2c.276 0 .5.224.5.5s-.224.5-.5.5h-2c-.827 0-1.5-.673-1.5-1.5v-2c0-.276.224-.5.5-.5s.5.224.5.5v2c0 .275.225.5.5.5zm11.5-2.5v2c0 .827-.673 1.5-1.5 1.5h-2c-.276 0-.5-.224-.5-.5s.224-.5.5-.5h2c.275 0 .5-.225.5-.5v-2c0-.276.224-.5.5-.5s.5.224.5.5zm0-5c0 .276-.224.5-.5.5s-.5-.224-.5-.5v-2c0-.276.224-.5.5-.5s.5.224.5.5z"/></svg>