<?xml version="1.0" encoding="UTF-8"?>
<svg xmlns="http://www.w3.org/2000/svg" id="Layer_1" data-name="Layer 1" viewBox="0 0 24 24">
  <path d="M19.5,1H4.5C2.019,1,0,3.019,0,5.5v13c0,2.481,2.019,4.5,4.5,4.5h15c2.481,0,4.5-2.019,4.5-4.5V5.5c0-2.481-2.019-4.5-4.5-4.5ZM4.5,2h15c1.93,0,3.5,1.57,3.5,3.5v2.5H1v-2.5c0-1.93,1.57-3.5,3.5-3.5Zm15,20H4.5c-1.93,0-3.5-1.57-3.5-3.5V9H23v9.5c0,1.93-1.57,3.5-3.5,3.5ZM3,5c0-.552,.448-1,1-1s1,.448,1,1-.448,1-1,1-1-.448-1-1Zm3,0c0-.552,.448-1,1-1s1,.448,1,1-.448,1-1,1-1-.448-1-1Zm3,0c0-.552,.448-1,1-1s1,.448,1,1-.448,1-1,1-1-.448-1-1Zm5.196,12.068c0,1.269-1.082,1.932-2.151,1.932-1.121,0-2.17-.904-2.286-1.007-.206-.184-.225-.499-.042-.705,.183-.205,.5-.226,.706-.043,.238,.21,.994,.755,1.623,.755,.428,0,1.151-.196,1.151-.932,0-.501-.516-.776-1.366-1.171-.857-.398-1.924-.894-1.924-2.049,0-1.201,1.03-1.849,2-1.849,.889,0,1.926,.786,2.042,.876,.218,.169,.257,.482,.088,.7-.168,.22-.482,.259-.701,.09-.333-.258-1.015-.666-1.429-.666-.346,0-1,.178-1,.849,0,.482,.508,.753,1.346,1.142,.866,.402,1.944,.902,1.944,2.078Zm5.714,0c0,1.269-1.082,1.932-2.151,1.932-1.121,0-2.17-.904-2.286-1.007-.206-.184-.225-.499-.042-.705,.183-.205,.499-.226,.706-.043,.238,.21,.994,.755,1.623,.755,.428,0,1.151-.196,1.151-.932,0-.501-.516-.776-1.365-1.171-.857-.398-1.924-.894-1.924-2.049,0-1.201,1.03-1.849,2-1.849,.889,0,1.926,.786,2.042,.876,.218,.169,.257,.482,.088,.7-.169,.22-.482,.259-.701,.09-.333-.258-1.015-.666-1.429-.666-.346,0-1,.178-1,.849,0,.482,.508,.753,1.345,1.142,.866,.402,1.944,.902,1.944,2.078Zm-14.91-2.818v2.5c0,.689,.561,1.25,1.25,1.25,.48,0,.924-.28,1.13-.714,.118-.25,.416-.354,.666-.238,.25,.119,.356,.417,.237,.666-.371,.781-1.168,1.286-2.033,1.286-1.241,0-2.25-1.01-2.25-2.25v-2.5c0-1.24,1.009-2.25,2.25-2.25,.865,0,1.663,.505,2.033,1.286,.119,.249,.012,.547-.237,.666-.25,.116-.548,.012-.666-.238-.206-.434-.649-.714-1.13-.714-.689,0-1.25,.561-1.25,1.25Z"/>
</svg>
