<?xml version="1.0" encoding="UTF-8"?>
<svg xmlns="http://www.w3.org/2000/svg" id="Layer_1" data-name="Layer 1" viewBox="0 0 24 24">
  <path d="M17.976,23.455c.025,.275-.178,.519-.453,.543-.015,0-.03,.002-.045,.002-.256,0-.474-.195-.498-.455-.233-2.591-2.374-4.545-4.979-4.545s-4.746,1.954-4.979,4.545c-.025,.275-.267,.473-.543,.453-.275-.024-.478-.268-.453-.543,.28-3.11,2.849-5.455,5.976-5.455s5.695,2.345,5.976,5.455Zm-2.476-9.955c0,1.93-1.57,3.5-3.5,3.5s-3.5-1.57-3.5-3.5,1.57-3.5,3.5-3.5,3.5,1.57,3.5,3.5Zm-1,0c0-1.379-1.122-2.5-2.5-2.5s-2.5,1.121-2.5,2.5,1.122,2.5,2.5,2.5,2.5-1.121,2.5-2.5ZM8.391,4.033c-.776-.615-.291-1.943,.693-1.915h1.398l.501-1.406c.309-.931,1.722-.932,2.033-.006l.503,1.412h1.398c.981-.032,1.468,1.306,.698,1.912l-1.114,.907,.455,1.298c.351,.941-.799,1.824-1.616,1.256l-1.33-.866-1.306,.874c-.804,.58-1.967-.289-1.636-1.226l.442-1.329-1.119-.911Zm.631-.775l1.387,1.129c.162,.131,.225,.349,.159,.546l-.549,1.648,.082,.101c.012,0,.028-.002,.044-.013l1.582-1.059c.167-.11,.382-.111,.551-.003l1.606,1.046,.127-.088-.571-1.629c-.07-.198-.007-.42,.156-.553l1.38-1.124-.06-.142h-1.75c-.211,0-.4-.133-.471-.332l-.62-1.738h-.15l-.62,1.738c-.071,.199-.26,.332-.471,.332h-1.75l-.062,.14Zm14.593,3.664l-1.114,.907,.455,1.298c.351,.942-.8,1.824-1.616,1.256l-1.33-.866-1.306,.874c-.804,.58-1.967-.289-1.636-1.226l.442-1.329-1.119-.911c-.776-.615-.291-1.943,.693-1.915h1.398l.501-1.406c.309-.931,1.722-.932,2.033-.006l.503,1.412h1.398c.981-.032,1.468,1.306,.698,1.912Zm-.638-.771l-.06-.142h-1.75c-.211,0-.4-.133-.471-.332l-.62-1.738h-.15l-.62,1.738c-.071,.199-.26,.332-.471,.332h-1.75l-.062,.14,1.387,1.129c.162,.131,.225,.349,.159,.546l-.549,1.649,.082,.1c.012,0,.028-.002,.044-.013l1.582-1.059c.166-.109,.382-.112,.551-.003l1.606,1.046,.127-.088-.571-1.629c-.07-.198-.007-.42,.156-.553l1.38-1.124ZM6.591,10.333c-.366,.28-.869,.3-1.252,.05l-1.33-.866-1.306,.874c-.804,.58-1.967-.289-1.636-1.226l.442-1.329-1.119-.911c-.776-.615-.291-1.943,.693-1.915h1.398l.501-1.406c.309-.931,1.722-.932,2.033-.006l.503,1.412h1.398c.981-.032,1.468,1.306,.698,1.912l-1.114,.907,.455,1.298c.148,.444,0,.926-.364,1.206Zm-.58-.876l-.571-1.629c-.07-.198-.007-.42,.156-.553l1.38-1.124-.06-.142h-1.75c-.211,0-.4-.133-.471-.332l-.62-1.738h-.15l-.62,1.738c-.071,.199-.26,.332-.471,.332H1.083l-.062,.14,1.387,1.129c.162,.131,.225,.349,.159,.546l-.549,1.649,.082,.1c.012,0,.028-.002,.044-.013l1.582-1.059c.166-.109,.383-.112,.551-.003l1.606,1.046,.127-.088Z"/>
</svg>
