<svg id="Layer_1" viewBox="0 0 24 24" xmlns="http://www.w3.org/2000/svg" data-name="Layer 1"><path d="m13.109 10.462c-.611-.608-1.606-.608-2.218 0l-1.72 1.71c-1.56 1.559-1.56 4.097 0 5.657 1.489 1.551 4.168 1.552 5.657 0 1.552-1.49 1.553-4.168 0-5.658l-1.718-1.709zm1.012 6.66c-1.133 1.133-3.109 1.133-4.243 0-1.169-1.17-1.169-3.073 0-4.242l1.719-1.709c.223-.221.585-.221.808 0l1.717 1.708c1.164 1.117 1.164 3.126 0 4.243zm6.574-11.746.865-.865c.585-.585.585-1.537 0-2.122l-1.449-1.449c-.585-.585-1.537-.584-2.122 0l-.864.864-.486-.486c-.851-.85-1.98-1.318-3.182-1.318h-6.957c-2.481 0-4.5 2.019-4.5 4.5v15c0 2.481 2.019 4.5 4.5 4.5h11c2.481 0 4.5-2.019 4.5-4.5v-10.958c0-1.195-.464-2.317-1.305-3.166zm-1.998-3.729c.195-.195.512-.196.708 0l1.449 1.449c.195.195.195.512 0 .708l-.864.864-2.157-2.157zm2.303 17.854c0 1.93-1.57 3.5-3.5 3.5h-11c-1.93 0-3.5-1.57-3.5-3.5v-15.001c0-1.93 1.57-3.5 3.5-3.5h6.958c.935 0 1.814.364 2.475 1.025l4.042 4.042c.661.661 1.025 1.541 1.025 2.475v10.958zm-6-16.001v-.5c0-.551-.449-1-1-1h-7.5c-1.378 0-2.5 1.122-2.5 2.5v.5c0 .551.449 1 1 1h7.5c1.378 0 2.5-1.122 2.5-2.5zm-10 1c0-.827.673-1.5 1.5-1.5h7.5v.501c0 .827-.673 1.5-1.5 1.5h-7.5v-.5z"/></svg>