<svg id="Layer_1" viewBox="0 0 24 24" xmlns="http://www.w3.org/2000/svg" data-name="Layer 1"><path d="m23.268 7.732-6.414-6.414c-.85-.85-1.98-1.318-3.182-1.318h-1.171c-.276 0-.5.224-.5.5v1.171c0 1.202.468 2.333 1.318 3.182l6.415 6.414c.472.472 1.1.732 1.768.732s1.296-.26 1.768-.732.732-1.1.732-1.768-.26-1.295-.732-1.768zm-.707 2.828c-.566.566-1.555.566-2.121 0l-6.415-6.414c-.661-.661-1.025-1.54-1.025-2.475v-.671h.671c.935 0 1.814.364 2.475 1.025l6.414 6.415c.283.283.439.66.439 1.061s-.156.777-.439 1.061zm-5.833 2.413-3.505-1.979c-.227-.129-.473-.206-.723-.257v-1.237c0-1.93-1.57-3.5-3.5-3.5h-5.5c-1.378 0-2.5-1.122-2.5-2.5s1.122-2.5 2.5-2.5h6c.276 0 .5-.224.5-.5s-.224-.5-.5-.5h-6c-1.93 0-3.5 1.57-3.5 3.5s1.57 3.5 3.5 3.5h5.5c1.378 0 2.5 1.122 2.5 2.5v1.235c-.256.051-.506.129-.738.26l-3.495 1.979c-.782.444-1.268 1.277-1.268 2.175v4.342c0 .895.482 1.726 1.26 2.171l3.515 2.009c.382.218.811.327 1.241.327.418 0 .838-.104 1.213-.312l3.485-1.936c.793-.44 1.287-1.278 1.287-2.186v-4.414c0-.899-.486-1.734-1.27-2.178zm-5.474-1.108c.456-.256 1.021-.258 1.477 0 0 0 3.603 2.055 3.653 2.092l-4.384 2.505-4.386-2.507c.049-.036 3.641-2.09 3.641-2.09zm-3.5 8.929c-.466-.268-.756-.767-.756-1.303v-4.342c0-.125.019-.247.049-.366l4.45 2.543v5.568c-.077-.028-3.744-2.102-3.744-2.102zm9.244-1.229c0 .544-.296 1.047-.772 1.311 0 0-3.646 2.004-3.729 2.032v-5.578l4.451-2.544c.03.118.049.24.049.365v4.414z"/></svg>