<svg id="Layer_1" viewBox="0 0 24 24" xmlns="http://www.w3.org/2000/svg" data-name="Layer 1"><path d="m11.5 8h-6.2c-.717 0-1.3-.583-1.3-1.3v-1.4c0-.717.583-1.3 1.3-1.3h6.2c.276 0 .5.224.5.5s-.224.5-.5.5h-6.2c-.165 0-.3.135-.3.3v1.4c0 .165.135.3.3.3h6.2c.276 0 .5.224.5.5s-.224.5-.5.5zm-6 2h-1c-.276 0-.5.224-.5.5s.224.5.5.5h1c.276 0 .5-.224.5-.5s-.224-.5-.5-.5zm0 3h-1c-.276 0-.5.224-.5.5s.224.5.5.5h1c.276 0 .5-.224.5-.5s-.224-.5-.5-.5zm4-3h-1c-.276 0-.5.224-.5.5s.224.5.5.5h1c.276 0 .5-.224.5-.5s-.224-.5-.5-.5zm0 3h-1c-.276 0-.5.224-.5.5s.224.5.5.5h1c.276 0 .5-.224.5-.5s-.224-.5-.5-.5zm-4 3h-1c-.276 0-.5.224-.5.5s.224.5.5.5h1c.276 0 .5-.224.5-.5s-.224-.5-.5-.5zm6.5.5c0 .276.224.5.5.5h1c.276 0 .5-.224.5-.5s-.224-.5-.5-.5h-1c-.276 0-.5.224-.5.5zm-2.5-.5h-1c-.276 0-.5.224-.5.5s.224.5.5.5h1c.276 0 .5-.224.5-.5s-.224-.5-.5-.5zm-4 3h-1c-.276 0-.5.224-.5.5s.224.5.5.5h1c.276 0 .5-.224.5-.5s-.224-.5-.5-.5zm8 0h-1c-.276 0-.5.224-.5.5s.224.5.5.5h1c.276 0 .5-.224.5-.5s-.224-.5-.5-.5zm-4 0h-1c-.276 0-.5.224-.5.5s.224.5.5.5h1c.276 0 .5-.224.5-.5s-.224-.5-.5-.5zm10-3c-.276 0-.5.224-.5.5v3c0 .275-.225.5-.5.5h-.551c.019-.166.051-.329.051-.5v-3c0-.276-.224-.5-.5-.5s-.5.224-.5.5v3c0 1.93-1.57 3.5-3.5 3.5h-9c-1.93 0-3.5-1.57-3.5-3.5v-15c0-1.93 1.57-3.5 3.5-3.5h8c.276 0 .5-.224.5-.5s-.224-.5-.5-.5h-8c-2.481 0-4.5 2.019-4.5 4.5v15c0 2.481 2.019 4.5 4.5 4.5h9c1.953 0 3.602-1.258 4.224-3h.776c.827 0 1.5-.673 1.5-1.5v-3c0-.276-.224-.5-.5-.5zm4.5-12.5v7c0 1.93-1.57 3.5-3.5 3.5h-3c-1.93 0-3.5-1.57-3.5-3.5v-7c0-1.93 1.57-3.5 3.5-3.5h3c1.93 0 3.5 1.57 3.5 3.5zm-1 0c0-1.379-1.121-2.5-2.5-2.5h-3c-1.379 0-2.5 1.121-2.5 2.5v7c0 1.379 1.121 2.5 2.5 2.5h3c1.379 0 2.5-1.121 2.5-2.5zm-3 6.5h-2c-.276 0-.5.224-.5.5s.224.5.5.5h2c.276 0 .5-.224.5-.5s-.224-.5-.5-.5z"/></svg>