<?xml version="1.0" encoding="UTF-8"?>
<svg xmlns="http://www.w3.org/2000/svg" id="Layer_1" data-name="Layer 1" viewBox="0 0 24 24">
  <path d="M24,7.003c-.006-1.204-.481-2.333-1.339-3.18l-2.559-2.526c-1.761-1.737-4.61-1.724-6.355,.032L1.307,13.804c-1.743,1.684-1.729,4.706,.032,6.372l2.559,2.526c1.761,1.739,4.612,1.724,6.355-.031l12.44-12.475c.849-.854,1.312-1.989,1.307-3.193Zm-11.972,12.471l-7.538-7.445,7.482-7.503,7.539,7.446-7.483,7.503Zm-2.484,2.491c-1.356,1.366-3.574,1.378-4.943,.026l-2.559-2.526h0c-1.369-1.294-1.383-3.648-.026-4.955l1.767-1.772,7.539,7.445-1.778,1.783Zm10.673-10.702L12.678,3.817l1.778-1.783c1.356-1.366,3.574-1.377,4.943-.025l2.559,2.526c1.369,1.296,1.383,3.646,.026,4.956l-1.767,1.772Zm2.453,2.484c1.756,1.743,1.771,4.594,.032,6.355l-2.526,2.559c-1.666,1.761-4.688,1.776-6.372,.032-.195-.194-.197-.511-.002-.707,.193-.196,.51-.196,.707-.002,.664,.659,1.56,1.017,2.482,1.016,.938-.005,1.815-.375,2.473-1.042l2.527-2.559c1.352-1.369,1.34-3.587-.026-4.943-.195-.194-.197-.511-.002-.707,.194-.195,.511-.199,.707-.002ZM1.33,10.253c-1.757-1.743-1.771-4.594-.032-6.355L3.824,1.339c1.67-1.76,4.67-1.775,6.372-.033,.195,.195,.197,.511,.002,.708-.193,.195-.51,.197-.707,.002-1.305-1.358-3.661-1.343-4.956,.025l-2.526,2.56c-1.352,1.37-1.341,3.587,.026,4.943,.195,.194,.197,.511,.002,.707-.194,.196-.511,.197-.707,.003Zm11.67-1.253c0,.552-.448,1-1,1s-1-.448-1-1,.448-1,1-1,1,.448,1,1Zm-3,3c0,.552-.448,1-1,1s-1-.448-1-1,.448-1,1-1,1,.448,1,1Zm3,3c0,.552-.448,1-1,1s-1-.448-1-1,.448-1,1-1,1,.448,1,1Zm3-3c0,.552-.448,1-1,1s-1-.448-1-1,.448-1,1-1,1,.448,1,1Z"/>
</svg>
