<?xml version="1.0" encoding="UTF-8"?>
<svg xmlns="http://www.w3.org/2000/svg" id="Layer_1" data-name="Layer 1" viewBox="0 0 24 24">
  <path d="M14,9.5c0,.876,.628,1.612,1.492,1.751l3.174,.51c1.353,.217,2.334,1.369,2.334,2.739,0,1.378-1.121,2.5-2.5,2.5h-1v1.5c0,.276-.224,.5-.5,.5s-.5-.224-.5-.5v-1.5h-1c-1.379,0-2.5-1.122-2.5-2.5,0-.276,.224-.5,.5-.5s.5,.224,.5,.5c0,.827,.673,1.5,1.5,1.5h3c.827,0,1.5-.673,1.5-1.5,0-.876-.628-1.612-1.492-1.751l-3.174-.51c-1.353-.217-2.334-1.369-2.334-2.739,0-1.378,1.121-2.5,2.5-2.5h1v-1.5c0-.276,.224-.5,.5-.5s.5,.224,.5,.5v1.5h1c1.379,0,2.5,1.122,2.5,2.5,0,.276-.224,.5-.5,.5s-.5-.224-.5-.5c0-.827-.673-1.5-1.5-1.5h-3c-.827,0-1.5,.673-1.5,1.5Zm10-3v11c0,2.481-2.019,4.5-4.5,4.5H4.5c-2.481,0-4.5-2.019-4.5-4.5V6.5C0,4.019,2.019,2,4.5,2h15c2.481,0,4.5,2.019,4.5,4.5Zm-1,0c0-1.93-1.57-3.5-3.5-3.5H4.5c-1.93,0-3.5,1.57-3.5,3.5v11c0,1.93,1.57,3.5,3.5,3.5h15c1.93,0,3.5-1.57,3.5-3.5V6.5Zm-13.5,1.5H3.5c-.276,0-.5,.224-.5,.5s.224,.5,.5,.5h6c.276,0,.5-.224,.5-.5s-.224-.5-.5-.5Zm0,3.5H3.5c-.276,0-.5,.224-.5,.5s.224,.5,.5,.5h6c.276,0,.5-.224,.5-.5s-.224-.5-.5-.5Zm0,3.5H3.5c-.276,0-.5,.224-.5,.5s.224,.5,.5,.5h6c.276,0,.5-.224,.5-.5s-.224-.5-.5-.5Z"/>
</svg>
