<svg id="Layer_1" viewBox="0 0 24 24" xmlns="http://www.w3.org/2000/svg" data-name="Layer 1"><path d="m23.629 9.591c-.286-.354-.711-.558-1.166-.558h-1.298c-1.075 0-1.912.604-2.133 1.54l-1.518 6.427h-.515c-1.103 0-2 .897-2 2v1c0 1.103.897 2 2 2h1.703c1.64 0 3.078-1.161 3.421-2.761.524-2.443 1.331-6.2 1.804-8.39.096-.445-.012-.904-.298-1.259zm-3.623 1.213c.114-.482.547-.771 1.159-.771h1.298c.151 0 .292.067.388.186s.131.271.099.42c-.144.666-.32 1.486-.509 2.361h-2.954zm1.14 8.227c-.245 1.142-1.272 1.97-2.443 1.97h-1.703c-.551 0-1-.448-1-1v-1c0-.552.449-1 1-1h.91c.232 0 .433-.159.487-.385l.854-3.615h2.975c-.375 1.744-.775 3.607-1.08 5.03zm-6.146-5.484c0 .585-.412 1.454-1.545 1.454h-.549l-.516 2.434c-.438 2.066-2.29 3.566-4.402 3.566h-.987v.5c0 1.379-1.122 2.5-2.5 2.5h-4.001c-.276 0-.5-.224-.5-.5s.224-.5.5-.5h4c.827 0 1.5-.673 1.5-1.5v-1c0-.276.224-.5.5-.5h1.487c1.643 0 3.083-1.167 3.424-2.773l.6-2.83c.049-.231.251-.396.487-.396h.957c.492 0 .545-.317.545-.454 0-.866-2.607-6.791-4.014-8.53-2.227-2.975-5.741-4.43-9.416-3.916-.281.032-.527-.153-.565-.426s.152-.527.425-.565c4.042-.566 7.907 1.035 10.345 4.29 1.374 1.698 4.225 7.861 4.225 9.145z"/></svg>