<?xml version="1.0" encoding="UTF-8"?>
<svg xmlns="http://www.w3.org/2000/svg" id="Layer_1" data-name="Layer 1" viewBox="0 0 24 24">
  <path d="M23.854,23.146l-6.449-6.449c1.607-1.775,2.596-4.12,2.596-6.697C20,4.486,15.514,0,10,0S0,4.486,0,10s4.486,10,10,10c2.577,0,4.922-.989,6.697-2.596l6.449,6.449c.452,.466,1.172-.255,.707-.707Zm-13.854-4.146C5.037,19,1,14.963,1,10S5.037,1,10,1s9,4.038,9,9-4.037,9-9,9Zm6.001-10.424h0c-1.059-1.403-2.958-3.076-6.001-3.076s-4.942,1.672-6.001,3.076c-.632,.838-.632,2.01,0,2.849,1.059,1.403,2.96,3.075,6.001,3.075s4.942-1.672,6.001-3.076c.632-.838,.632-2.01,0-2.849Zm-.799,2.247c-.921,1.222-2.571,2.678-5.202,2.678s-4.28-1.456-5.202-2.677c-.365-.484-.365-1.161,0-1.645,.921-1.222,2.571-2.678,5.202-2.678s4.281,1.456,5.202,2.677c.365,.484,.365,1.161,0,1.645Zm-5.202-2.822c-1.103,0-2,.897-2,2s.897,2,2,2,2-.897,2-2-.897-2-2-2Zm0,3c-.552,0-1-.449-1-1s.448-1,1-1,1,.449,1,1-.448,1-1,1Z"/>
</svg>
