<?xml version="1.0" encoding="UTF-8"?>
<svg xmlns="http://www.w3.org/2000/svg" id="Layer_1" data-name="Layer 1" viewBox="0 0 24 24">
  <path d="M19,15.412v-1.847l.786-2.948c.158-.591,.469-1.133,.901-1.566,2.313-2.324,2.313-2.545,2.313-2.801,0-.689-.561-1.25-1.25-1.25h-1.029c-.667-.707-3.346-3.264-7.208-3.479l.026-1.008c.007-.276-.211-.505-.487-.513-.312-.007-.505,.212-.513,.487l-.027,1.035c-3.936,.209-6.64,2.843-7.255,3.502-2.367,.129-4.257,2.077-4.257,4.475v4c0,.827,.673,1.5,1.5,1.5s1.5-.673,1.5-1.5v-4c0-.827,.673-1.5,1.5-1.5,.005,0,.01-.003,.015-.003l1.485,5.568v1.847l-1.842,5.065c-.654,1.706,.711,3.585,2.583,3.523h10.518c1.872,.062,3.237-1.817,2.583-3.523l-1.842-5.065Zm-11-.412v-1h10v1H8Zm6.059,1l.875,7h-3.867l.875-7h2.117Zm-1.059-13.5c2.855,0,5.098,1.515,6.256,2.5H6.744c1.158-.985,3.4-2.5,6.256-2.5Zm1.934,3.5l-.875,7h-2.117l-.875-7h3.867Zm7.054,.171c-.115,.167-.529,.688-2.009,2.175-.555,.558-.955,1.254-1.158,2.014l-.704,2.64h-3.05l.875-7h5.809c.11,0,.205,.072,.237,.171ZM3,9.5v4c0,.276-.224,.5-.5,.5s-.5-.224-.5-.5v-4c0-1.761,1.312-3.208,3.007-3.45-.017-.011,.243,.952,.249,.975-1.263,.125-2.256,1.18-2.256,2.475Zm3.017-3.5h4.041l.875,7h-3.05l-1.867-7Zm.262,16.289c-.294-.442-.36-.978-.182-1.47l1.752-4.819h3.084l-.875,7h-2.317c-.611,0-1.171-.272-1.462-.711Zm13.441,0c-.291,.438-.851,.711-1.462,.711h-2.317l-.875-7h3.084l1.752,4.819c.179,.492,.112,1.027-.182,1.47Z"/>
</svg>
