<?xml version="1.0" encoding="UTF-8"?>
<svg xmlns="http://www.w3.org/2000/svg" id="Layer_1" data-name="Layer 1" viewBox="0 0 24 24">
  <path d="M24,12c0,6.617-5.383,12-12,12-1.168,0-2.322-.167-3.429-.497-.265-.079-.415-.357-.336-.622,.079-.266,.355-.414,.622-.337,1.014,.303,2.071,.456,3.143,.456,6.065,0,11-4.935,11-11S18.065,1,12,1c-1.072,0-2.129,.153-3.143,.456-.266,.075-.544-.071-.622-.337-.079-.265,.071-.543,.336-.622,1.106-.33,2.26-.497,3.429-.497,6.617,0,12,5.383,12,12ZM11.502,7.154l-.002,10.346c0,.276,.224,.5,.5,.5s.5-.224,.5-.5l.002-10.347c.07,.042,.144,.077,.202,.135l3.436,3.56c.098,.102,.229,.152,.36,.152,.125,0,.25-.047,.347-.141,.199-.191,.205-.508,.013-.707l-3.441-3.565c-.378-.378-.88-.587-1.416-.587h0c-.535,0-1.037,.208-1.421,.592l-3.441,3.561c-.192,.199-.187,.516,.012,.707,.2,.192,.516,.188,.707-.012l3.435-3.555c.061-.06,.136-.097,.208-.139ZM5.464,1.935c-.96,.625-1.826,1.383-2.572,2.253-.18,.209-.156,.524,.054,.705,.094,.08,.21,.12,.326,.12,.141,0,.281-.06,.379-.175,.684-.797,1.478-1.492,2.359-2.065,.231-.15,.297-.46,.146-.691-.15-.232-.46-.298-.692-.146ZM1.733,6.789c-.254-.114-.548-.003-.662,.248-.472,1.038-.792,2.137-.952,3.265-.039,.273,.151,.526,.425,.565,.024,.003,.047,.005,.071,.005,.245,0,.459-.181,.495-.43,.146-1.034,.44-2.04,.872-2.991,.114-.252,.003-.548-.248-.662Zm-.624,6.769c-.039-.272-.289-.458-.565-.425-.273,.039-.464,.292-.425,.565,.16,1.128,.48,2.226,.952,3.265,.083,.185,.265,.293,.456,.293,.069,0,.139-.015,.207-.045,.251-.114,.362-.41,.248-.662-.433-.951-.726-1.958-.872-2.991Zm4.9,7.67c-.875-.569-1.665-1.26-2.35-2.055-.182-.212-.498-.232-.705-.053-.209,.181-.233,.496-.053,.705,.747,.866,1.609,1.62,2.562,2.24,.084,.055,.179,.081,.272,.081,.164,0,.324-.08,.419-.228,.151-.231,.085-.541-.146-.691Z"/>
</svg>
