<?xml version="1.0" encoding="UTF-8"?>
<svg xmlns="http://www.w3.org/2000/svg" id="Layer_1" data-name="Layer 1" viewBox="0 0 24 24">
  <path d="M4,3.381V20.619l2.146-2.146c.195-.195,.512-.195,.707,0s.195,.512,0,.707l-2.443,2.443c-.234,.234-.41,.377-.91,.377s-.676-.143-.91-.377L.146,19.18c-.195-.195-.195-.512,0-.707s.512-.195,.707,0l2.146,2.146V3.381L.854,5.527c-.195,.195-.512,.195-.707,0s-.195-.512,0-.707L2.59,2.377c.19-.19,.41-.377,.91-.377s.72,.187,.91,.377l2.443,2.443c.195,.195,.195,.512,0,.707-.098,.098-.226,.146-.354,.146s-.256-.049-.354-.146l-2.146-2.146Zm6.5,1.619h13c.276,0,.5-.224,.5-.5s-.224-.5-.5-.5H10.5c-.276,0-.5,.224-.5,.5s.224,.5,.5,.5Zm13,6.5H10.5c-.276,0-.5,.224-.5,.5s.224,.5,.5,.5h13c.276,0,.5-.224,.5-.5s-.224-.5-.5-.5Zm0,7.5H10.5c-.276,0-.5,.224-.5,.5s.224,.5,.5,.5h13c.276,0,.5-.224,.5-.5s-.224-.5-.5-.5Z"/>
</svg>
