<svg id="Layer_1" viewBox="0 0 24 24" xmlns="http://www.w3.org/2000/svg" data-name="Layer 1"><path d="m4.75 15.5v3c0 .827-.673 1.5-1.5 1.5s-1.5-.673-1.5-1.5v-3c0-.276.224-.5.5-.5s.5.224.5.5v3c0 .276.225.5.5.5s.5-.224.5-.5v-3c0-.276.224-.5.5-.5s.5.224.5.5zm3.75 1c0 .827-.673 1.5-1.5 1.5h-.5v1.5c0 .276-.224.5-.5.5s-.5-.224-.5-.5v-4c0-.276.224-.5.5-.5h1c.827 0 1.5.673 1.5 1.5zm-1 0c0-.276-.225-.5-.5-.5h-.5v1h.5c.275 0 .5-.224.5-.5zm7.25 0v2c0 .827-.673 1.5-1.5 1.5s-1.5-.673-1.5-1.5v-2c0-.827.673-1.5 1.5-1.5s1.5.673 1.5 1.5zm-1 0c0-.276-.225-.5-.5-.5s-.5.224-.5.5v2c0 .276.225.5.5.5s.5-.224.5-.5zm10.25-1v4c0 2.481-2.019 4.5-4.5 4.5h-15c-2.481 0-4.5-2.019-4.5-4.5v-4c0-2.481 2.019-4.5 4.5-4.5h8.321c-1.125-1.169-1.821-2.754-1.821-4.5 0-3.584 2.916-6.5 6.5-6.5s6.5 2.916 6.5 6.5c0 2.025-.931 3.836-2.388 5.029 1.453.771 2.388 2.283 2.388 3.971zm-12-9c0 3.033 2.468 5.5 5.5 5.5s5.5-2.467 5.5-5.5-2.468-5.5-5.5-5.5-5.5 2.467-5.5 5.5zm11 9c0-1.501-.95-2.824-2.366-3.309-.93.514-1.998.809-3.134.809-1.267 0-2.447-.37-3.448-1h-9.552c-1.93 0-3.5 1.57-3.5 3.5v4c0 1.93 1.57 3.5 3.5 3.5h15c1.93 0 3.5-1.57 3.5-3.5zm-12.25 3.5h-.5v-3.5c0-.276-.224-.5-.5-.5s-.5.224-.5.5v4c0 .276.224.5.5.5h1c.276 0 .5-.224.5-.5s-.224-.5-.5-.5zm11.5-2.5v2c0 .827-.673 1.5-1.5 1.5h-1c-.276 0-.5-.224-.5-.5v-4c0-.276.224-.5.5-.5h1c.827 0 1.5.673 1.5 1.5zm-1 0c0-.276-.225-.5-.5-.5h-.5v3h.5c.275 0 .5-.224.5-.5zm-2.75 0v3c0 .276-.224.5-.5.5s-.5-.224-.5-.5v-1h-1v1c0 .276-.224.5-.5.5s-.5-.224-.5-.5v-3c0-.827.673-1.5 1.5-1.5s1.5.673 1.5 1.5zm-1 1v-1c0-.276-.225-.5-.5-.5s-.5.224-.5.5v1zm-2-7.5h4c.276 0 .5-.224.5-.5s-.224-.5-.5-.5h-4c-.276 0-.5.224-.5.5s.224.5.5.5zm.356-4.899 1.144-1.164v3.563c0 .276.224.5.5.5s.5-.224.5-.5v-3.563l1.144 1.164c.193.197.51.199.707.006s.199-.51.006-.707l-1.531-1.558c-.439-.44-1.208-.443-1.653.003l-1.528 1.555c-.193.197-.191.514.006.707.197.192.514.191.707-.006z"/></svg>