<svg id="Layer_1" viewBox="0 0 24 24" xmlns="http://www.w3.org/2000/svg" data-name="Layer 1"><path d="m11 10.5c0 .276-.224.5-.5.5h-1c-.275 0-.5.224-.5.5v1c0 .276-.224.5-.5.5s-.5-.224-.5-.5v-1c0-.827.673-1.5 1.5-1.5h1c.276 0 .5.224.5.5zm-.5 6.5h-1c-.275 0-.5-.224-.5-.5v-1c0-.276-.224-.5-.5-.5s-.5.224-.5.5v1c0 .827.673 1.5 1.5 1.5h1c.276 0 .5-.224.5-.5s-.224-.5-.5-.5zm5-2c-.276 0-.5.224-.5.5v1c0 .276-.225.5-.5.5h-1c-.276 0-.5.224-.5.5s.224.5.5.5h1c.827 0 1.5-.673 1.5-1.5v-1c0-.276-.224-.5-.5-.5zm-1-5h-1c-.276 0-.5.224-.5.5s.224.5.5.5h1c.275 0 .5.224.5.5v1c0 .276.224.5.5.5s.5-.224.5-.5v-1c0-.827-.673-1.5-1.5-1.5zm9.5-4.5v14.36c0 1.517-1.055 2.868-3.049 3.907-.634.33-1.379.31-1.992-.062-.601-.364-.959-1.001-.959-1.703v-10.197c0-1.384.83-2.644 2.116-3.209 1.315-.579 2.884-1.585 2.884-3.096 0-2.565-4.729-4.5-11-4.5s-11 1.935-11 4.5c0 1.511 1.568 2.518 2.884 3.096 1.286.566 2.116 1.826 2.116 3.209v10.197c0 .702-.358 1.339-.959 1.703-.613.372-1.358.392-1.992.062-1.994-1.04-3.049-2.391-3.049-3.907v-14.36c0-3.238 4.935-5.5 12-5.5s12 2.262 12 5.5zm-23 2.364v11.996c0 1.104.892 2.176 2.512 3.021.323.168.702.158 1.011-.03.304-.184.478-.493.478-.848v-10.197c0-.987-.596-1.888-1.519-2.294-1.067-.469-1.899-1.023-2.481-1.647zm22 0c-.582.624-1.414 1.178-2.481 1.647-.923.406-1.519 1.307-1.519 2.294v10.197c0 .355.174.664.478.848.31.188.688.199 1.011.03 1.62-.844 2.512-1.917 2.512-3.021v-11.995z"/></svg>