<svg id="Layer_1" viewBox="0 0 24 24" xmlns="http://www.w3.org/2000/svg" data-name="Layer 1"><path d="m6 20.5c0-.276.224-.5.5-.5h2c.276 0 .5.224.5.5s-.224.5-.5.5h-2c-.276 0-.5-.224-.5-.5zm18-7.303v2.303c0 1.391-.822 2.585-2 3.149v1.351c0 1.654-1.346 3-3 3s-3-1.346-3-3v-1h-1v.5c0 2.481-2.019 4.5-4.5 4.5h-6c-2.481 0-4.5-2.019-4.5-4.5v-15c0-2.481 2.019-4.5 4.5-4.5h6c1.554 0 2.918.798 3.726 2h2.674c1.777 0 3.392 1.049 4.112 2.672l2.255 5.073c.486 1.096.732 2.257.732 3.452zm-10 4.803h-13v1.5c0 1.93 1.57 3.5 3.5 3.5h6c1.93 0 3.5-1.57 3.5-3.5zm0-13.5c0-1.93-1.57-3.5-3.5-3.5h-6c-1.93 0-3.5 1.57-3.5 3.5v12.5h13zm1 0v5.5h7.286l-2.188-4.922c-.561-1.263-1.816-2.078-3.198-2.078h-2.177c.168.471.276.971.276 1.5zm6 14.449c-.165.024-.329.051-.5.051h-3.5v1c0 1.103.897 2 2 2s2-.897 2-2zm2-5.752c0-.751-.116-1.486-.334-2.197h-7.666v7h5.5c1.379 0 2.5-1.121 2.5-2.5zm-16.605-7.197h2.105c.827 0 1.5.673 1.5 1.5 0 .276.224.5.5.5s.5-.224.5-.5c0-1.379-1.122-2.5-2.5-2.5h-.5v-.5c0-.276-.224-.5-.5-.5s-.5.224-.5.5v.5h-.605c-1.321 0-2.395 1.074-2.395 2.395 0 1.176.842 2.169 2.001 2.362l2.833.473c.675.112 1.166.691 1.166 1.376 0 .769-.626 1.395-1.395 1.395h-2.105c-.827 0-1.5-.673-1.5-1.5 0-.276-.224-.5-.5-.5s-.5.224-.5.5c0 1.379 1.122 2.5 2.5 2.5h.5v.5c0 .276.224.5.5.5s.5-.224.5-.5v-.5h.605c1.321 0 2.395-1.074 2.395-2.395 0-1.176-.842-2.169-2.001-2.362l-2.833-.473c-.675-.112-1.166-.691-1.166-1.376 0-.769.626-1.395 1.395-1.395z"/></svg>