<?xml version="1.0" encoding="UTF-8"?>
<svg xmlns="http://www.w3.org/2000/svg" id="Layer_1" data-name="Layer 1" viewBox="0 0 24 24">
  <path d="m19.5,0H4.5C2.019,0,0,2.019,0,4.5v15c0,2.481,2.019,4.5,4.5,4.5h7c.276,0,.5-.224.5-.5s-.224-.5-.5-.5h-7c-1.93,0-3.5-1.57-3.5-3.5v-.5h8.5c.276,0,.5-.224.5-.5s-.224-.5-.5-.5h-2.5v-5h4.5c.276,0,.5-.224.5-.5v-5.5h11v4.5c0,.276.224.5.5.5s.5-.224.5-.5v-7c0-2.481-2.019-4.5-4.5-4.5ZM7,6V1h10v5H7ZM4.5,1h1.5v5H1v-1.5c0-1.93,1.57-3.5,3.5-3.5Zm1.5,17H1v-5h5v5Zm5-6H1v-5h10v5Zm7-6V1h1.5c1.93,0,3.5,1.57,3.5,3.5v1.5h-5Zm1.767,5.767c-.53-.443-1.03-.863-1.413-1.246-.098-.098-.231-.164-.372-.146-.139.005-.269.067-.36.172-.851.983-1.134,2.09-1.361,2.98-.274,1.076-.397,1.347-.8,1.347-.247,0-.46-.825-.461-1.5,0-.204-.124-.387-.313-.463-.187-.076-.404-.031-.546.115-.977,1.008-2.141,2.689-2.141,4.973,0,3.309,2.691,6,6,6s6-2.691,6-6c0-2.688-2.347-4.653-4.233-6.233Zm-3.181,10.647c-.78-.781-.78-2.05,0-2.83l1.415-1.415,1.414,1.415c.78.781.78,2.05,0,2.83-.29.29-.656.581-1.369.581s-1.17-.291-1.46-.581Zm4.176-.252c.457-1.091.245-2.398-.64-3.285l-1.768-1.768c-.094-.094-.221-.146-.354-.146s-.26.053-.354.146l-1.768,1.768c-.886.886-1.098,2.193-.64,3.285-1.347-.897-2.238-2.426-2.238-4.162,0-1.415.533-2.567,1.149-3.428.197.724.605,1.303,1.312,1.303,1.233,0,1.505-1.067,1.769-2.1.176-.688.371-1.453.832-2.153.324.293.687.597,1.063.912,1.727,1.446,3.875,3.246,3.875,5.466,0,1.736-.891,3.266-2.238,4.162Z"/>
</svg>
