<?xml version="1.0" encoding="UTF-8"?>
<svg xmlns="http://www.w3.org/2000/svg" id="Layer_1" data-name="Layer 1" viewBox="0 0 24 24">
  <path d="M22,6.538c0-1.943-1.239-3.66-3.084-4.271L12.157,.025c-.102-.034-.213-.034-.314,0L5.084,2.267c-1.845,.611-3.084,2.328-3.084,4.271l-.002,5.462c0,6.609,7.159,10.703,9.354,11.8,0,0,.29,.2,.649,.2s.627-.148,.627-.148c2.198-.885,9.37-4.354,9.37-11.852l.002-5.462Zm-1,0l-.002,4.462H12.5V1.193l6.102,2.023c1.435,.476,2.398,1.811,2.398,3.322ZM5.398,3.216L11.5,1.193V11H2.998l.002-4.462c0-1.511,.964-2.846,2.398-3.322ZM3.006,12H11.5v10.635c-2.321-1.207-8.41-4.924-8.494-10.635Zm9.494,10.704V12h8.49c-.075,6.549-6.224,9.75-8.49,10.704Z"/>
</svg>
