<?xml version="1.0" encoding="UTF-8"?>
<svg xmlns="http://www.w3.org/2000/svg" id="Layer_1" data-name="Layer 1" viewBox="0 0 24 24">
  <path d="m18.272,0c-1.794,0-2.932.315-3.936.594-.786.218-1.465.406-2.337.406s-1.551-.188-2.337-.406c-1.003-.278-2.141-.594-3.936-.594C.065,0,0,5.67,0,5.728c0,6.466,3.332,12.899,5.837,17.176.396.677,1.135,1.097,1.927,1.097,1.232,0,2.235-1.003,2.235-2.235v-6.622c0-1.095.787-2.031,1.792-2.133.577-.057,1.125.123,1.55.507.418.379.658.92.658,1.483v6.765c0,1.232,1.003,2.235,2.235,2.235.793,0,1.531-.42,1.928-1.097,2.506-4.276,5.837-10.708,5.837-17.176,0-.058-.065-5.728-5.728-5.728Zm-.973,22.397c-.218.372-.625.603-1.064.603-.682,0-1.235-.554-1.235-1.235v-6.765c0-.846-.36-1.656-.987-2.225-.553-.501-1.276-.775-2.02-.775-.1,0-.2.005-.3.016-1.51.151-2.692,1.525-2.692,3.127v6.622c0,.682-.554,1.235-1.235,1.235-.439,0-.847-.23-1.065-.603C4.253,18.222,1,11.95,1,5.729c0-.193.073-4.729,4.728-4.729,1.659,0,2.68.283,3.668.558.821.228,1.596.442,2.604.442s1.783-.215,2.604-.442c.988-.274,2.01-.558,3.668-.558,4.654,0,4.727,4.535,4.728,4.728,0,6.224-3.253,12.495-5.7,16.67Z"/>
</svg>
