<?xml version="1.0" encoding="UTF-8"?>
<svg xmlns="http://www.w3.org/2000/svg" id="Layer_1" data-name="Layer 1" viewBox="0 0 24 24">
  <path d="M18.931,16.993l-3.465-2.419,4.055-5.844c.798-1.08,.515-2.732-.598-3.483-1.146-.816-2.495-1.247-3.901-1.247h-.975c-.818,0-1.587,.402-2.055,1.076l-2.403,3.468c-.157,.227-.101,.538,.126,.696,.226,.155,.538,.101,.696-.126l2.403-3.467c.28-.404,.741-.646,1.232-.646h.975c.324,0,.644,.032,.959,.085l-3.738,5.393c-.795,1.126-.526,2.689,.602,3.486l5.515,3.85c.401,.28,.642,.74,.642,1.229v4.457c0,.276,.224,.5,.5,.5s.5-.224,.5-.5v-4.457c0-.816-.399-1.583-1.069-2.05Zm-5.869-5.942l3.94-5.684c.471,.174,.925,.398,1.343,.696,.669,.454,.839,1.442,.356,2.094l-4.056,5.845-1.227-.856c-.675-.477-.836-1.415-.356-2.095ZM21.5,0c-1.379,0-2.5,1.122-2.5,2.5s1.121,2.5,2.5,2.5,2.5-1.122,2.5-2.5-1.121-2.5-2.5-2.5Zm0,4c-.827,0-1.5-.673-1.5-1.5s.673-1.5,1.5-1.5,1.5,.673,1.5,1.5-.673,1.5-1.5,1.5Zm-8.5,12.5v1.299c0,.566-.194,1.121-.549,1.562l-3.561,4.452c-.174,.217-.488,.249-.703,.078-.216-.173-.25-.487-.078-.703l3.562-4.452c.212-.265,.329-.597,.329-.937v-1.299c0-.276,.224-.5,.5-.5s.5,.224,.5,.5Zm-5.964-3.5H2.193c-.792-.004-1.271,1.016-.772,1.619l.641,.882-1.344,.388c-.322,.108-.573,.366-.672,.691-.099,.326-.033,.681,.175,.949l.728,.939c.305,.394,.828,.548,1.288,.388l3.506-1.157c.633-.227,.868-1.067,.434-1.592l-.595-.729,1.78-.518c1.001-.323,.733-1.892-.325-1.861Zm-2.461,1.63c-.161,.047-.288,.172-.338,.332s-.016,.335,.091,.465l1.078,1.331-3.49,1.151c-.062,.021-.135,0-.178-.053l-.724-1.013,2.01-.58c.156-.045,.281-.164,.334-.318s.027-.324-.068-.456l-1.066-1.489h0s4.831-.091,4.831-.091l-2.48,.721ZM.737,8.118l1.324,.382-.632,.87c-.51,.615-.036,1.63,.764,1.631H7.045c1.058,.023,1.321-1.559,.29-1.87l-1.754-.51,.603-.738c.426-.527,.189-1.364-.465-1.589l-3.475-1.147c-.472-.162-.991-.008-1.297,.386l-.727,.938c-.208,.269-.273,.624-.175,.949,.098,.325,.349,.583,.691,.699Zm1.001-1.973c.042-.053,.11-.075,.186-.051l3.479,1.166-1.074,1.314c-.106,.13-.141,.305-.091,.465s.177,.285,.338,.332l2.461,.63H2.228l1.062-1.489c.096-.132,.121-.302,.068-.456-.053-.154-.178-.273-.334-.318l-2.013-.654,.727-.938Z"/>
</svg>
