<svg id="Layer_1" viewBox="0 0 24 24" xmlns="http://www.w3.org/2000/svg" data-name="Layer 1"><path d="m2.7 8h.65c.826 2.327 3.043 4 5.65 4s4.824-1.673 5.65-4h.65c.938 0 1.7-.763 1.7-1.7v-.6c0-.938-.763-1.7-1.7-1.7h-.65c-.826-2.327-3.043-4-5.65-4s-4.824 1.673-5.65 4h-.65c-.938 0-1.7.763-1.7 1.7v.6c0 .938.763 1.7 1.7 1.7zm12.6-3c.386 0 .7.314.7.7v.6c0 .386-.314.7-.7.7h-.39c.055-.326.09-.659.09-1s-.035-.674-.09-1zm-1.3 1c0 2.757-2.243 5-5 5s-5-2.243-5-5h1.5c2.723 0 5.095-1.769 5.938-4.338 1.521.859 2.562 2.471 2.562 4.338zm-5-5c.534 0 1.04.106 1.523.262-.683 2.21-2.702 3.738-5.023 3.738h-1.399c.465-2.279 2.484-4 4.899-4zm-7 4.7c0-.386.314-.7.7-.7h.39c-.078.333-.087.657-.09 1 0 .341.035.674.09 1h-.39c-.386 0-.7-.314-.7-.7zm21.12 9.321-2.391-2.034c.168-.292.271-.626.271-.987 0-1.103-.897-2-2-2s-2 .897-2 2 .897 2 2 2c.378 0 .728-.112 1.03-.295l2.442 2.077c.336.285.528.702.528 1.143v2.575c0 1.93-1.57 3.5-3.5 3.5h-2.007c.454-.607.611-1.379.433-2.126-.987-4.111-4.575-6.874-8.926-6.874s-7.937 2.762-8.925 6.871c-.185.771-.013 1.565.473 2.183.474.602 1.186.946 1.952.946h17c2.481 0 4.5-2.019 4.5-4.5v-2.575c0-.734-.32-1.428-.88-1.904zm-5.12-3.021c0-.551.448-1 1-1s1 .449 1 1-.448 1-1 1-1-.449-1-1zm-1.333 10.434c-.283.36-.709.566-1.167.566h-13c-.458 0-.883-.206-1.167-.565-.295-.374-.399-.859-.286-1.329.878-3.652 4.074-6.105 7.953-6.105s7.076 2.455 7.953 6.107c.112.47.009.953-.286 1.326z"/></svg>