<?xml version="1.0" encoding="UTF-8"?>
<svg xmlns="http://www.w3.org/2000/svg" id="Layer_1" data-name="Layer 1" viewBox="0 0 24 24">
  <path d="M2.568,4.444c-.437-.439-1.065-.567-1.639-.33-.573,.236-.93,.769-.93,1.389v12.992c0,.62,.356,1.152,.93,1.389,.191,.079,.388,.117,.582,.117,.389,0,.766-.154,1.057-.449l6.002-6.054c.426-.382,.671-.929,.671-1.499,0-.584-.238-1.119-.649-1.49L2.568,4.444ZM7.882,12.773L1.859,18.848c-.221,.222-.475,.142-.548,.111-.073-.03-.311-.152-.311-.464V5.503c0-.312,.238-.435,.311-.464,.035-.015,.109-.04,.201-.04,.104,0,.23,.032,.348,.15l6.043,6.083c.219,.197,.339,.47,.339,.767,0,.287-.123,.562-.359,.774ZM23.07,4.114c-.573-.237-1.202-.11-1.638,.33l-6.004,6.046c-.432,.39-.669,.925-.669,1.509,0,.57,.245,1.117,.649,1.478l6.023,6.075c.292,.295,.668,.449,1.057,.449,.194,0,.391-.038,.582-.117,.574-.236,.93-.769,.93-1.389V5.503c0-.62-.356-1.152-.93-1.389Zm-.07,14.381c0,.312-.238,.434-.311,.464-.074,.03-.329,.11-.548-.11l-6.045-6.097c-.215-.191-.338-.466-.338-.753,0-.297,.121-.569,.359-.785l6.024-6.064c.117-.118,.243-.15,.347-.15,.092,0,.166,.025,.201,.04,.073,.029,.311,.152,.311,.464v12.992ZM12.5,.5V23.5c0,.276-.224,.5-.5,.5s-.5-.224-.5-.5V.5c0-.276,.224-.5,.5-.5s.5,.224,.5,.5Z"/>
</svg>
