<svg id="Layer_1" viewBox="0 0 24 24" xmlns="http://www.w3.org/2000/svg" data-name="Layer 1"><path d="m13.5 13c1.76 0 3.22-1.31 3.46-3h.54c.83 0 1.5-.67 1.5-1.5v-4c0-.83-.67-1.5-1.5-1.5h-.54c-.24-1.69-1.71-3-3.46-3h-10c-1.93 0-3.5 1.57-3.5 3.5v6c0 1.93 1.57 3.5 3.5 3.5zm-12.5-3.5v-6c0-1.38 1.12-2.5 2.5-2.5h10c1.38 0 2.5 1.12 2.5 2.5 0 .28.22.5.5.5h1c.28 0 .5.22.5.5v4c0 .28-.22.5-.5.5h-1c-.28 0-.5.22-.5.5 0 1.38-1.12 2.5-2.5 2.5h-10c-1.38 0-2.5-1.12-2.5-2.5zm8.5.5c.83 0 1.5-.67 1.5-1.5v-4c0-.83-.67-1.5-1.5-1.5h-5c-.83 0-1.5.67-1.5 1.5v4c0 .83.67 1.5 1.5 1.5zm-5.5-1.5v-4c0-.28.22-.5.5-.5h5c.28 0 .5.22.5.5v4c0 .28-.22.5-.5.5h-5c-.28 0-.5-.22-.5-.5zm20 12.5c0 1.65-1.35 3-3 3h-8c-1.65 0-3-1.35-3-3 0-.77.3-1.47.78-2h-4.78c-1.65 0-3-1.35-3-3 0-.2.02-.41.06-.6.05-.27.33-.45.59-.39.27.05.45.32.39.59-.03.13-.04.26-.04.4 0 1.1.9 2 2 2h9.5c.28 0 .5.22.5.5s-.22.5-.5.5h-2.5c-1.1 0-2 .9-2 2s.9 2 2 2h8c1.1 0 2-.9 2-2s-.9-2-2-2h-.5c-.28 0-.5-.22-.5-.5s.22-.5.5-.5h.5c1.1 0 2-.9 2-2s-.9-2-2-2h-2.5c-.28 0-.5-.22-.5-.5s.22-.5.5-.5h2.5c1.65 0 3 1.35 3 3 0 1.04-.54 1.96-1.35 2.5.81.54 1.35 1.46 1.35 2.5z"/></svg>