<?xml version="1.0" encoding="UTF-8"?>
<svg xmlns="http://www.w3.org/2000/svg" id="Layer_1" data-name="Layer 1" viewBox="0 0 24 24">
  <path d="M22.995,23.429c.04,.273-.15,.527-.423,.566-.024,.004-.048,.005-.072,.005-.245,0-.458-.179-.494-.429-.212-1.466-1.504-2.571-3.005-2.571s-2.793,1.105-3.005,2.571c-.035,.246-.246,.429-.495,.429s-.459-.183-.495-.429c-.212-1.466-1.504-2.571-3.005-2.571s-2.793,1.105-3.005,2.571c-.035,.246-.246,.429-.495,.429s-.459-.183-.495-.429c-.212-1.466-1.504-2.571-3.005-2.571s-2.793,1.105-3.005,2.571c-.039,.273-.29,.473-.566,.423-.273-.039-.463-.293-.423-.566,.282-1.955,2-3.429,3.995-3.429,1.474,0,2.796,.804,3.5,2.012,.704-1.208,2.026-2.012,3.5-2.012s2.796,.804,3.5,2.012c.704-1.208,2.026-2.012,3.5-2.012,1.995,0,3.712,1.474,3.995,3.429ZM2.5,16.5c0-1.378,1.122-2.5,2.5-2.5s2.5,1.122,2.5,2.5-1.122,2.5-2.5,2.5-2.5-1.122-2.5-2.5Zm1,0c0,.827,.673,1.5,1.5,1.5s1.5-.673,1.5-1.5-.673-1.5-1.5-1.5-1.5,.673-1.5,1.5Zm8.5-2.5c1.378,0,2.5,1.122,2.5,2.5s-1.122,2.5-2.5,2.5-2.5-1.122-2.5-2.5,1.122-2.5,2.5-2.5Zm-1.5,2.5c0,.827,.673,1.5,1.5,1.5s1.5-.673,1.5-1.5-.673-1.5-1.5-1.5-1.5,.673-1.5,1.5Zm8.5,2.5c-1.378,0-2.5-1.122-2.5-2.5s1.122-2.5,2.5-2.5,2.5,1.122,2.5,2.5-1.122,2.5-2.5,2.5Zm0-1c.827,0,1.5-.673,1.5-1.5s-.673-1.5-1.5-1.5-1.5,.673-1.5,1.5,.673,1.5,1.5,1.5Zm5-13.5c0,.827-.673,1.5-1.5,1.5h-1.258l-1.761,2.231c-.235,.447-.777,.769-1.368,.769h-.32c-.711,.02-1.248-.765-.972-1.421l.614-1.579h-1.588c-.59,0-1.148-.259-1.529-.711l-1.096-1.3c-.281-.474-.279-.952-.048-1.351,.403-.695,1.444-.831,2.012-.263l.911,.625h1.352l-.621-1.574c-.126-.322-.086-.684,.108-.97s.517-.456,.862-.456h.298c.59,0,1.132,.322,1.414,.84l1.73,2.16h1.26c.827,0,1.5,.673,1.5,1.5Zm-1,0c0-.276-.224-.5-.5-.5h-1.5c-.152,0-.296-.069-.391-.188l-1.929-2.421c-.155-.269-.36-.391-.584-.391h-.298l.851,2.316c.134,.315-.123,.693-.465,.684h-2.241c-.102,0-.202-.031-.285-.089l-1.11-.771c-.27-.297-.666-.062-.509,.279l1.044,1.227c.19,.226,.469,.355,.765,.355h2.319c.341-.01,.599,.367,.466,.681l-.879,2.26,.36,.059c.224,0,.429-.122,.536-.318l1.958-2.492c.095-.12,.24-.19,.393-.19h1.5c.276,0,.5-.224,.5-.5Zm-14,.701c.51-.098,1.022-.215,1.552-.201h.449c.276,0,.5-.224,.5-.5s-.224-.5-.5-.5c-.711-.015-1.444,.028-2.128,.217-.267,.071-.426,.344-.355,.611,.059,.224,.262,.372,.483,.372Zm-3.927,2.731c.235,.138,.544,.061,.684-.179,.302-.517,.685-.98,1.137-1.376,.208-.182,.229-.498,.046-.706-.182-.208-.499-.228-.706-.046-.533,.467-.984,1.014-1.341,1.624-.139,.239-.059,.545,.179,.684Zm-.572,4.068c.276,0,.5-.224,.5-.5,.004-.353-.015-1.111,.023-1.455,.025-.275-.178-.518-.453-.543-.282-.024-.518,.178-.543,.453-.042,.388-.023,1.148-.027,1.545,0,.276,.224,.5,.5,.5Z"/>
</svg>
