<?xml version="1.0" encoding="UTF-8"?>
<svg xmlns="http://www.w3.org/2000/svg" id="Layer_1" data-name="Layer 1" viewBox="0 0 24 24">
  <path d="M20.006,3.497c-1.939-.227-4.903-.497-8.006-.497s-6.067,.271-8.006,.497C1.717,3.764,0,5.686,0,7.969v8.062c0,2.283,1.717,4.205,3.994,4.472,1.939,.227,4.903,.497,8.006,.497s6.067-.271,8.006-.497c2.277-.267,3.994-2.188,3.994-4.472V7.969c0-2.283-1.717-4.205-3.994-4.472Zm2.994,12.534c0,1.775-1.337,3.271-3.11,3.478-1.913,.225-4.835,.491-7.89,.491s-5.977-.267-7.89-.491c-1.773-.207-3.11-1.702-3.11-3.478V7.969c0-1.775,1.337-3.271,3.11-3.478,1.913-.225,4.835-.491,7.89-.491s5.977,.267,7.89,.491c1.773,.207,3.11,1.702,3.11,3.478v8.062Zm-14.16-7.427l-1.185,5.821c-.126,.647-.687,1.575-1.628,1.575s-1.51-.97-1.618-1.531l-1.251-5.86c-.067-.313,.172-.609,.493-.609,.238,0,.443,.166,.493,.399l1.244,5.861c.044,.228,.317,.74,.64,.74,.331,0,.593-.491,.646-.765l1.171-5.83c.047-.235,.254-.405,.494-.405h.008c.319,0,.557,.292,.494,.604Zm3.66-.604h-1c-.827,0-1.5,.673-1.5,1.5v6c0,.276,.224,.5,.5,.5s.5-.224,.5-.5v-2.5h1.5c1.378,0,2.5-1.121,2.5-2.5s-1.122-2.5-2.5-2.5Zm0,4h-1.5v-2.5c0-.275,.224-.5,.5-.5h1c.827,0,1.5,.673,1.5,1.5s-.673,1.5-1.5,1.5Zm8.5-3.5v6.746c.027,.804-1.159,1.061-1.466,.312l-2.534-5.701v5.644c0,.276-.224,.5-.5,.5s-.5-.224-.5-.5v-6.716c-.028-.813,1.176-1.066,1.479-.313l2.521,5.674v-5.645c0-.276,.224-.5,.5-.5s.5,.224,.5,.5Z"/>
</svg>
