<?xml version="1.0" encoding="UTF-8"?>
<svg xmlns="http://www.w3.org/2000/svg" id="Layer_1" data-name="Layer 1" viewBox="0 0 24 24">
  <path d="m12.834,15.248l-2.326,3.043c-.38.456-.918.709-1.491.709s-1.111-.252-1.478-.691l-2.365-3.091c-.194-.234-.56-.292-.834-.118-.341.216-.675.475-.994.769-1.49,1.379-2.346,3.457-2.346,5.703v1.929c0,.276-.224.5-.5.5s-.5-.224-.5-.5v-1.929c0-2.523.973-4.87,2.667-6.438.363-.335.746-.631,1.138-.879.696-.443,1.622-.295,2.15.339l2.365,3.091c.162.194.421.315.696.315s.533-.121.71-.333l2.326-3.043c.544-.654,1.47-.797,2.168-.354.201.129.397.268.587.415.218.17.257.484.087.702-.17.217-.484.256-.702.087-.164-.128-.335-.249-.51-.361-.275-.175-.641-.117-.849.135Zm10.987,7.543c-.332.745-1.045,1.209-1.861,1.209h-6.92c-.796,0-1.501-.447-1.842-1.166-.34-.72-.237-1.55.268-2.165l3.534-3.673v-3.996h-.5c-.276,0-.5-.224-.5-.5s.224-.5.5-.5h4c.276,0,.5.224.5.5s-.224.5-.5.5h-.5v3.995l3.461,3.59c.559.618.692,1.459.36,2.206Zm-1.092-1.524l-3.59-3.723c-.09-.093-.14-.217-.14-.347v-4.197h-1v4.197c0,.129-.05.254-.14.347l-3.647,3.789c-.235.289-.286.701-.11,1.073s.526.594.938.594h6.92c.422,0,.776-.23.947-.615.172-.387.105-.805-.178-1.118ZM.837,13.393c.504-2.285,1.687-7.651,1.738-7.869C3.307,2.459,5.378.454,8.077.079c.302-.047.608-.079.923-.079,3.149,0,5.611,2.116,6.425,5.522.029.126.427,1.923.856,3.87.06.27-.111.536-.381.596-.272.062-.536-.111-.596-.381-.428-1.939-.823-3.73-.853-3.854-.425-1.78-1.368-3.142-2.635-3.945-.933,2.983-3.642,5.095-6.803,5.188h-.914c.464,2.281,2.484,4.003,4.899,4.003,1.39,0,2.682-.558,3.637-1.568.188-.201.507-.211.706-.021.201.189.21.506.021.706-1.146,1.214-2.695,1.883-4.363,1.883-2.818,0-5.181-1.955-5.823-4.577-.403,1.822-1.032,4.675-1.364,6.185-.052.233-.258.393-.488.393-.035,0-.071-.004-.107-.012-.27-.06-.44-.326-.381-.596ZM10.918,1.35c-.593-.227-1.236-.35-1.918-.35-2.756,0-4.999,2.242-5,4.999h.999c2.777-.083,5.163-1.983,5.919-4.648Z"/>
</svg>
