<svg id="Layer_1" viewBox="0 0 24 24" xmlns="http://www.w3.org/2000/svg" data-name="Layer 1"><path d="m18.5 0c-3.032 0-5.5 2.467-5.5 5.5v2c0 1.704.779 3.23 2 4.239v8.761c0 1.93 1.57 3.5 3.5 3.5s3.5-1.57 3.5-3.5v-8.761c1.221-1.01 2-2.535 2-4.239v-2c0-3.033-2.468-5.5-5.5-5.5zm0 1c2.481 0 4.5 2.019 4.5 4.5v.5h-9v-.5c0-2.481 2.019-4.5 4.5-4.5zm2.5 19.5c0 1.379-1.121 2.5-2.5 2.5s-2.5-1.121-2.5-2.5v-8.107c.751.385 1.599.607 2.5.607s1.749-.222 2.5-.607zm-2.5-8.5c-2.481 0-4.5-2.019-4.5-4.5v-.5h9v.5c0 2.481-2.019 4.5-4.5 4.5zm-4.5 11.5c0 .276-.224.5-.5.5h-9c-2.481 0-4.5-2.019-4.5-4.5v-9c0-2.31 1.756-4.197 4-4.449v-1.551c0-.276.224-.5.5-.5s.5.224.5.5v1.5h5.5c.276 0 .5.224.5.5s-.224.5-.5.5h-6c-1.93 0-3.5 1.57-3.5 3.5v.5h10.5c.276 0 .5.224.5.5s-.224.5-.5.5h-10.5v7.5c0 1.93 1.57 3.5 3.5 3.5h9c.276 0 .5.224.5.5z"/></svg>