<?xml version="1.0" encoding="UTF-8"?>
<svg xmlns="http://www.w3.org/2000/svg" id="Layer_1" data-name="Layer 1" viewBox="0 0 24 24">
  <path d="M17.5,9c1.207,0,2.217-.86,2.449-2h1.051c.551,0,1-.448,1-1V3c0-.503-.38-.903-.864-.972l.24-.345c.182-.363,.163-.786-.051-1.131-.213-.346-.583-.552-.988-.552H5.5c-1.93,0-3.5,1.57-3.5,3.5v2c0,1.93,1.57,3.5,3.5,3.5h4.778l-1.773,4.729c-.509,1.358-1.826,2.271-3.277,2.271H1v-4.5c0-.276-.224-.5-.5-.5s-.5,.224-.5,.5v10c0,.276,.224,.5,.5,.5s.5-.224,.5-.5v-4.5H5.228c1.865,0,3.559-1.174,4.213-2.92l1.905-5.08h6.153Zm3-6h.5v3h-1V3.657l.463-.665c.013,0,.024,.007,.037,.007ZM3,5.5V3.5c0-1.379,1.122-2.5,2.5-2.5h14.837c.079,0,.12,.048,.138,.077,.018,.028,.042,.088,.045,.095l-1.429,2.041c-.059,.084-.09,.185-.09,.287v3c0,.827-.673,1.5-1.5,1.5h-6.516s-.006,0-.009,0H5.5c-1.378,0-2.5-1.121-2.5-2.5ZM23.78,23.174c-.297,.518-.831,.826-1.427,.826h-1.853c-.276,0-.5-.224-.5-.5s.224-.5,.5-.5h1.853c.337,0,.504-.227,.56-.324,.056-.098,.167-.355-.002-.646l-4.356-7.715c-.23-.395-.874-.4-1.112,.006l-4.349,7.703c-.173,.297-.062,.555-.006,.652,.056,.098,.223,.324,.56,.324h1.853c.276,0,.5,.224,.5,.5s-.224,.5-.5,.5h-1.853c-.597,0-1.13-.309-1.427-.826-.297-.517-.295-1.133,.005-1.648l4.349-7.703c.302-.518,.833-.822,1.425-.822s1.123,.305,1.421,.816l4.356,7.715c.297,.51,.299,1.126,.002,1.643Zm-5.78-2.174c-.276,0-.5-.224-.5-.5v-3c0-.276,.224-.5,.5-.5s.5,.224,.5,.5v3c0,.276-.224,.5-.5,.5Zm1,2c0,.552-.448,1-1,1s-1-.448-1-1,.448-1,1-1,1,.448,1,1Z"/>
</svg>
