<svg id="Layer_1" viewBox="0 0 24 24" xmlns="http://www.w3.org/2000/svg" data-name="Layer 1"><path d="m23.854 23.146c.195.195.195.512 0 .707s-.512.195-.707 0l-6.432-6.432c-1.796 1.629-4.163 2.578-6.714 2.578-5.554.027-10.001-4.499-10.001-9.999s4.486-10 10-10c1.653 0 3.291.412 4.737 1.191.243.131.334.434.203.677-.132.243-.436.334-.678.203-1.301-.701-2.774-1.071-4.263-1.071-4.962 0-8.999 4.038-8.999 9 0 .678.082 1.337.225 1.973l3.53-3.53c.634-.634 1.666-.632 2.298 0l.409.408c.241.241.624.247.873.011l3.017-2.861h-2.852c-.276 0-.5-.224-.5-.5s.224-.5.5-.5h3c.827 0 1.5.673 1.5 1.5v3c0 .276-.224.5-.5.5s-.5-.224-.5-.5v-2.736l-2.977 2.823c-.644.612-1.641.6-2.269-.029l-.409-.408c-.235-.235-.646-.237-.884 0l-3.914 3.914c.343.943.833 1.815 1.452 2.581v-1.145c0-.276.224-.5.5-.5s.5.224.5.5v2.189c.6.539 1.271.997 2 1.361v-5.55c0-.276.224-.5.5-.5s.5.224.5.5v5.975c.638.227 1.305.389 2 .466v-6.441c0-.276.224-.5.5-.5s.5.224.5.5v6.5c.687 0 1.352-.1 2-.247v-6.253c0-.276.224-.5.5-.5s.5.224.5.5v5.973c2.408-.846 4.386-2.678 5.369-5.157.103-.257.392-.384.649-.28.257.102.382.393.28.649-.452 1.14-1.096 2.156-1.88 3.027l6.435 6.435zm-5.32-17.774 3.615 1.205c.509.17.851.644.851 1.18 0 .686-.558 1.244-1.243 1.244h-2.308c-.623 0-1.204-.335-1.517-.875-.14-.24-.447-.322-.683-.183-.239.138-.321.444-.183.683.49.848 1.402 1.375 2.382 1.375h.551v.5c0 .276.224.5.5.5s.5-.224.5-.5v-.5h.757c1.237 0 2.243-1.006 2.243-2.244 0-.967-.616-1.822-1.534-2.128l-3.615-1.205c-.509-.17-.851-.644-.851-1.18 0-.686.558-1.244 1.243-1.244h2.308c.623 0 1.204.335 1.517.875.139.24.446.32.683.183.157-.091.25-.262.25-.423 0-.088-.02-.178-.067-.26-.49-.848-1.402-1.375-2.382-1.375h-.551v-.5c0-.276-.224-.5-.5-.5s-.5.224-.5.5v.5h-.757c-1.237 0-2.243 1.006-2.243 2.244 0 .967.616 1.822 1.534 2.128z"/></svg>