<?xml version="1.0" encoding="UTF-8"?>
<svg xmlns="http://www.w3.org/2000/svg" id="Layer_1" data-name="Layer 1" viewBox="0 0 24 24">
  <path d="M20.5,6h-2c-1.93,0-3.5,1.57-3.5,3.5v4c0,1.391,.822,2.585,2,3.149v6.851c0,.276,.224,.5,.5,.5s.5-.224,.5-.5v-6.551c.165,.024,.329,.051,.5,.051h2c.171,0,.335-.027,.5-.051v6.551c0,.276,.224,.5,.5,.5s.5-.224,.5-.5v-6.851c1.178-.564,2-1.758,2-3.149v-4c0-1.93-1.57-3.5-3.5-3.5Zm2.5,7.5c0,1.378-1.122,2.5-2.5,2.5h-2c-1.378,0-2.5-1.122-2.5-2.5v-4c0-1.378,1.122-2.5,2.5-2.5h2c1.378,0,2.5,1.122,2.5,2.5v4Zm-3.5-8.5c1.378,0,2.5-1.122,2.5-2.5s-1.122-2.5-2.5-2.5-2.5,1.122-2.5,2.5,1.122,2.5,2.5,2.5Zm0-4c.827,0,1.5,.673,1.5,1.5s-.673,1.5-1.5,1.5-1.5-.673-1.5-1.5,.673-1.5,1.5-1.5Zm-5.06,4.263c.131,.243,.04,.546-.204,.677-.243,.131-.546,.04-.677-.204L11.158,1.276c-.092-.173-.264-.276-.459-.276h0c-.094,0-.326,.027-.458,.275l-1.774,3.333c-.13,.244-.434,.336-.675,.207L2.263,1.885c-.169-.09-.29,.008-.334,.053-.044,.046-.135,.17-.038,.334l3.473,5.155c.082,.122,.106,.273,.067,.414s-.139,.258-.272,.319l-4.017,1.854c-.13,.064-.143,.194-.142,.246s.02,.181,.163,.245l3.907,1.612c.129,.054,.229,.158,.278,.289,.048,.131,.04,.276-.024,.4l-2.006,3.935c-.047,.14,.057,.275,.105,.325,.048,.05,.183,.155,.378,.09l4.097-1.548c.234-.09,.499,.01,.618,.232l1.811,3.383c.094,.175,.307,.283,.466,.276,.198-.001,.371-.108,.461-.285l1.724-3.368c.127-.247,.428-.343,.673-.218,.246,.126,.343,.427,.218,.673l-1.724,3.368c-.259,.506-.773,.824-1.342,.83h-.014c-.563,0-1.077-.307-1.343-.805l-1.604-2.996-3.7,1.398c-.516,.176-1.06,.05-1.432-.331-.372-.38-.488-.925-.305-1.424l1.784-3.507-3.418-1.411C.302,11.219,.011,10.783,0,10.282c-.011-.5,.262-.949,.711-1.17l3.495-1.613L1.046,2.807c-.311-.523-.241-1.14,.16-1.559,.4-.42,1.014-.518,1.526-.246L7.818,3.697l1.54-2.892c.264-.496,.777-.805,1.339-.805h.001c.562,0,1.076,.308,1.34,.803l2.401,4.46Z"/>
</svg>
