<?xml version="1.0" encoding="UTF-8"?>
<svg xmlns="http://www.w3.org/2000/svg" id="Layer_1" data-name="Layer 1" viewBox="0 0 24 24">
  <path d="M15.854,8.146c.195,.195,.195,.512,0,.707l-7,7c-.098,.098-.226,.146-.354,.146s-.256-.049-.354-.146c-.195-.195-.195-.512,0-.707l7-7c.195-.195,.512-.195,.707,0Zm-.969,9.5l-3.591,3.591c-1.136,1.136-2.65,1.762-4.262,1.762-1.611,0-3.125-.625-4.261-1.76-1.139-1.138-1.766-2.652-1.767-4.262s.626-3.124,1.764-4.263l3.586-3.586c.195-.195,.195-.512,0-.707s-.512-.195-.707,0l-3.586,3.586C.733,13.335,.003,15.101,.003,16.978c0,1.877,.732,3.642,2.06,4.97,1.326,1.324,3.09,2.053,4.968,2.053,1.88,0,3.645-.73,4.969-2.055l3.591-3.591c.195-.195,.195-.512,0-.707s-.512-.195-.707,0ZM21.947,2.063C20.619,.735,18.854,.003,16.978,.003,15.1,.003,13.335,.733,12.008,2.06l-3.586,3.586c-.195,.195-.195,.512,0,.707s.512,.195,.707,0l3.586-3.586c1.139-1.138,2.652-1.764,4.263-1.764,1.609,0,3.123,.628,4.262,1.767,2.348,2.35,2.347,6.173-.002,8.523l-3.591,3.591c-.195,.195-.195,.512,0,.707,.098,.098,.226,.146,.354,.146s.256-.049,.354-.146l3.591-3.591c2.739-2.739,2.74-7.197,.002-9.937Z"/>
</svg>
