<?xml version="1.0" encoding="UTF-8"?>
<svg xmlns="http://www.w3.org/2000/svg" id="Layer_1" data-name="Layer 1" viewBox="0 0 24 24">
  <path d="m19.5,8h-2.5v-3c0-2.757-2.243-5-5-5s-5,2.243-5,5v3h-2.5c-2.481,0-4.5,2.019-4.5,4.5v5c0,1.956,1.254,3.624,3,4.243v1.757c0,.276.224.5.5.5s.5-.224.5-.5v-1.528c.164.018.331.028.5.028h15c.169,0,.336-.01.5-.028v1.528c0,.276.224.5.5.5s.5-.224.5-.5v-1.757c1.746-.619,3-2.287,3-4.243v-5c0-2.481-2.019-4.5-4.5-4.5Zm-11.5-3c0-2.206,1.794-4,4-4s4,1.794,4,4v3h-8v-3Zm15,12.5c0,1.93-1.57,3.5-3.5,3.5H4.5c-1.93,0-3.5-1.57-3.5-3.5v-5c0-1.93,1.57-3.5,3.5-3.5h15c1.93,0,3.5,1.57,3.5,3.5v5Zm-6-5c0,.276-.224.5-.5.5H7.5c-.276,0-.5-.224-.5-.5s.224-.5.5-.5h9c.276,0,.5.224.5.5Z"/>
</svg>
