<?xml version="1.0" encoding="UTF-8"?>
<svg xmlns="http://www.w3.org/2000/svg" id="Layer_1" data-name="Layer 1" viewBox="0 0 24 24">
  <path d="m23.389.255c-.549-.38-1.278-.333-1.735.085l-.433.323c-1.035.862-2.347,1.337-3.693,1.337H6.472c-1.347,0-2.658-.475-3.714-1.354l-.374-.275c-.495-.45-1.224-.498-1.772-.116C-.021.695-.19,1.547.209,2.166l.798,1.45c.87,1.45,1.896,2.288,2.993,2.769v2.615h-1.5c-.276,0-.5.224-.5.5s.224.5.5.5h1.5v13.5c0,.276.224.5.5.5s.5-.224.5-.5v-13.5h14v13.5c0,.276.224.5.5.5s.5-.224.5-.5v-13.5h1.5c.276,0,.5-.224.5-.5s-.224-.5-.5-.5h-1.5v-2.617c1.098-.482,2.127-1.324,3.002-2.783l.771-1.405c.417-.648.248-1.5-.385-1.94ZM5,6.727c.85.216,1.727.273,2.594.273h3.906v2h-6.5v-2.273Zm14,2.273h-6.5v-2h3.906c.867,0,1.743-.057,2.594-.273v2.273Zm3.915-7.316l-.78,1.418c-.755,1.258-2.135,2.898-5.729,2.898H7.594c-3.594,0-4.972-1.636-5.72-2.882l-.807-1.463c-.124-.193-.074-.447.115-.578.07-.049.15-.074.233-.074.111,0,.227.045.333.14l.391.29c1.214,1.011,2.753,1.568,4.333,1.568h11.056c1.58,0,3.119-.557,4.312-1.552l.449-.338c.148-.133.365-.147.528-.034.189.131.239.385.098.607Z"/>
</svg>
