<svg id="Layer_1" viewBox="0 0 24 24" xmlns="http://www.w3.org/2000/svg" data-name="Layer 1"><path d="m18.244 17.999s0 0 0-.001c.012 0 .005 0 0 .001zm5.593-.38c-.378.741-.854 1.46-1.413 2.139-2.319 2.814-5.826 4.242-10.423 4.242s-8.104-1.428-10.423-4.242c-.565-.686-1.044-1.413-1.425-2.162-.274-.541-.185-1.17.229-1.603.406-.427 1.02-.546 1.563-.3.845.382 1.88.74 2.941 1.022-1.423-2.805-2.456-6.008-2.873-9.153-.084-.633.258-1.22.852-1.459.595-.241 1.25-.056 1.63.46 1.391 1.888 2.705 3.636 4.014 5.128.145-.731.302-1.552.467-2.417.57-2.988 1.216-6.375 1.848-8.423.16-.518.613-.852 1.155-.852h.002c.542 0 .994.336 1.152.854.836 2.741 1.664 6.902 2.228 10.845 1.285-1.403 2.559-2.984 4.144-5.135.379-.516 1.034-.701 1.63-.46.593.239.936.826.852 1.459-.404 3.044-1.626 6.363-3.115 9.264 1.113-.291 2.251-.687 3.161-1.106.545-.249 1.164-.136 1.574.293.417.434.506 1.064.23 1.605zm-8.301-4.642c.331 2.548.535 4.924.541 6.664 2.217-3.331 4.365-8.039 4.919-12.211.036-.269-.17-.374-.234-.4-.065-.026-.288-.094-.451.126-1.835 2.493-3.265 4.235-4.774 5.821zm-6.192-.371c.651.684 1.305 1.299 1.97 1.83l.796.629c.814.641 1.657 1.304 2.564 2.098.11.092.214.192.312.297-.32-4.622-1.453-11.87-2.809-16.314-.039-.127-.14-.146-.197-.146-.058 0-.161.02-.2.147-.616 1.994-1.256 5.352-1.821 8.314-.222 1.164-.429 2.251-.615 3.144zm-.023 10.204c-1.396-1.278-2.69-2.972-3.797-4.91-1.412-.315-2.86-.785-3.99-1.295-.222-.102-.374.021-.429.078-.045.047-.182.22-.061.459.347.685.786 1.35 1.305 1.979 1.653 2.007 3.991 3.242 6.972 3.689zm4.969-.803c.506-.56.757-1.322.703-2.108-.054-.785-.407-1.506-.969-1.977-.896-.783-1.728-1.438-2.532-2.07l-.802-.634c-2.385-1.903-4.581-4.776-7-8.061-.128-.175-.31-.181-.451-.126-.064.026-.27.131-.234.4.754 5.688 3.725 11.793 7.223 14.849.549.501 1.309.754 2.093.698.783-.055 1.5-.408 1.969-.971zm8.596-5.301c-.055-.058-.208-.183-.435-.077-1.201.553-2.779 1.059-4.206 1.369-.011.003-.006.002 0 .001-1.002 1.79-2.276 3.589-3.289 4.767-.018.022-.007.01.001 0 2.849-.48 5.095-1.7 6.696-3.645.513-.622.948-1.28 1.294-1.957.122-.239-.016-.411-.061-.458zm-7.931 6.06s0 0 .001 0c.007-.008.012-.015-.001 0z"/></svg>