<svg id="Layer_1" viewBox="0 0 24 24" xmlns="http://www.w3.org/2000/svg" data-name="Layer 1"><path d="m23.5 0h-4.158c-1.306 0-2.573.467-3.568 1.313l-1.66 1.416c-.589-.451-1.316-.729-2.114-.729-.812 0-1.552.29-2.146.756l-1.615-1.404c-1.001-.872-2.283-1.352-3.61-1.352h-4.129c-.276 0-.5.224-.5.5s.224.5.5.5h4.129c1.085 0 2.134.393 2.954 1.105l1.574 1.369c-.41.573-.657 1.269-.657 2.026 0 .156.026.305.046.456-.022.005-.673.152-.883.224-1.85.639-2.964 2.585-2.588 4.539l1.578 7.28h-3.153c-.276 0-.5.224-.5.5s.224.5.5.5h3.37c.27 1.769 1.836 3.079 3.63 3v.5c0 .827.673 1.5 1.5 1.5s1.5-.673 1.5-1.5v-.5c1.798.079 3.365-1.236 3.63-3h3.37c.276 0 .5-.224.5-.5s-.224-.5-.5-.5h-3.154l1.581-7.291c.374-1.943-.74-3.89-2.59-4.528-.21-.072-.861-.219-.883-.224.02-.151.046-.3.046-.456 0-.771-.258-1.478-.682-2.057l1.604-1.368c.814-.693 1.851-1.075 2.919-1.075h4.158c.276 0 .5-.224.5-.5s-.224-.5-.5-.5zm-9 5.5c0 1.379-1.122 2.5-2.5 2.5s-2.5-1.121-2.5-2.5 1.122-2.5 2.5-2.5 2.5 1.121 2.5 2.5zm-2 17c0 .275-.224.5-.5.5s-.5-.225-.5-.5v-8c0-.275.224-.5.5-.5s.5.225.5.5zm3.511-15.374c1.383.478 2.214 1.937 1.937 3.383l-1.835 8.463c-.232 1.235-1.363 2.096-2.612 2.028v-6.5c0-.827-.673-1.5-1.5-1.5s-1.5.673-1.5 1.5v6.5c-1.25.067-2.38-.793-2.615-2.039l-1.83-8.441c-.28-1.457.551-2.916 1.934-3.394.206-.071.547-.141.819-.205.547 1.222 1.769 2.079 3.192 2.079s2.645-.857 3.192-2.079c.038.008.637.142.819.205z"/></svg>