<svg id="Layer_1" viewBox="0 0 24 24" xmlns="http://www.w3.org/2000/svg" data-name="Layer 1"><path d="m19.509 11.571c.27.112.491.529.491.928l-.004 2.993c0 .829.675 1.503 1.504 1.503.816 0 1.491-.66 1.504-1.472.058-3.487.426-5.75.694-7.402.169-1.037.302-1.856.302-2.619-.005-.431-.125-.854-.347-1.223-.478-.791-1.058-1.53-1.725-2.196-.665-.665-1.404-1.244-2.198-1.722-.97-.583-2.216-.422-3.029.391l-5.372 5.365c-.588.588-.898 1.399-.853 2.227.015.268.079.526.165.775l-9.908 9.899c-.91.909-.981 2.35-.167 3.352.147.182.313.368.5.554.186.185.371.351.553.498.997.813 2.442.748 3.356-.165l9.909-9.9c.25.086.508.15.777.165.825.042 1.642-.265 2.229-.853l.709-.708c.203-.203.591-.523.909-.391zm-18.069 8.153 9.7-9.69c.313.374.728.651 1.071.998l-10.798 10.786c-.561-.588-.546-1.527.027-2.094zm2.828 2.825c-.59.596-1.566.578-2.151-.023l10.804-10.791c.368.359.656.794 1.048 1.124zm13.624-11.294-.709.708c-.388.387-.93.588-1.468.561-.55-.03-1.042-.284-1.387-.714-.326-.404-.675-.803-1.05-1.163-.343-.341-.708-.67-1.09-.975-.431-.344-.685-.835-.715-1.385-.03-.545.175-1.079.562-1.466l5.373-5.363c.488-.489 1.23-.589 1.807-.241.724.436 1.399.965 2.007 1.572.61.609 1.14 1.283 1.574 2.004.131.217.201.466.204.715 0 .676-.128 1.46-.289 2.453-.273 1.683-.648 3.987-.707 7.546-.004.27-.23.49-.504.49-.278 0-.504-.226-.504-.503l.004-2.993c0-.671-.347-1.536-1.108-1.851-.695-.236-1.236-.108-1.999.607zm4.507 7.639c-.496-.486-1.304-.485-1.798 0l-.874.854c-.469.468-.728 1.094-.728 1.761 0 .905.478 1.721 1.278 2.182.373.215.796.322 1.22.322.464 0 .928-.128 1.327-.383.735-.47 1.175-1.262 1.175-2.12 0-.666-.26-1.293-.736-1.77l-.864-.844zm-.113 3.892c-.446.286-1.055.299-1.509.038-.486-.28-.777-.773-.777-1.316 0-.4.154-.775.431-1.05l.871-.851c.109-.108.288-.107.397 0l.861.841c.283.283.439.66.439 1.059 0 .523-.26.989-.714 1.278z"/></svg>