<svg id="Layer_1" viewBox="0 0 24 24" xmlns="http://www.w3.org/2000/svg" data-name="Layer 1"><path d="m23 6.398c0 .833-.305 1.635-.858 2.258l-7.142 8.034v6.81c.006.269-.232.505-.5.5-.093 0-.187-.026-.269-.078l-5-3.183c-.144-.092-.231-.251-.231-.422v-3.627l-7.142-8.034c-.554-.623-.858-1.424-.858-2.258 0-1.476.942-2.775 2.345-3.231.261-.084.544.059.63.321.085.263-.058.545-.321.63-.99.322-1.655 1.238-1.655 2.28 0 .588.215 1.154.605 1.594l7.268 8.176c.082.091.126.209.126.332v3.543l4 2.546v-6.089c0-.123.045-.241.126-.332l7.268-8.176c.39-.439.605-1.005.605-1.594 0-1.042-.665-1.958-1.655-2.28-.263-.085-.406-.368-.321-.63.086-.262.368-.405.63-.321 1.403.457 2.345 1.755 2.345 3.231zm-17 .102v-4c0-1.378 1.122-2.5 2.5-2.5h7c1.378 0 2.5 1.122 2.5 2.5v4c0 1.378-1.122 2.5-2.5 2.5h-7c-1.378 0-2.5-1.122-2.5-2.5zm11-4c0-.167-.034-.325-.084-.475l-3.309 3.309c-.443.443-1.025.664-1.607.664s-1.164-.221-1.607-.664l-3.309-3.309c-.051.15-.084.308-.084.475v4c0 .827.673 1.5 1.5 1.5h7c.827 0 1.5-.673 1.5-1.5zm-8.5-1.5c-.292 0-.563.087-.794.233l3.394 3.395c.496.496 1.304.496 1.8 0l3.394-3.395c-.231-.145-.502-.233-.794-.233z"/></svg>