<?xml version="1.0" encoding="UTF-8"?>
<svg xmlns="http://www.w3.org/2000/svg" id="Layer_1" data-name="Layer 1" viewBox="0 0 24 24">
  <path d="M3.5,7c1.379,0,2.5-1.121,2.5-2.5s-1.121-2.5-2.5-2.5S1,3.121,1,4.5s1.121,2.5,2.5,2.5Zm0-4c.827,0,1.5,.673,1.5,1.5s-.673,1.5-1.5,1.5-1.5-.673-1.5-1.5,.673-1.5,1.5-1.5Zm5,14c.275,0,.5,.225,.5,.5v2c0,.276,.224,.5,.5,.5s.5-.224,.5-.5v-2c0-.827-.673-1.5-1.5-1.5h-2.5v-7h1.672c.668,0,1.295-.26,1.768-.732l1.571-1.571c.109,3.485,2.971,6.29,6.483,6.29,3.58,0,6.493-2.913,6.493-6.493S21.073,0,17.493,0c-3.12,0-5.732,2.213-6.352,5.152l-2.409,2.409c-.279,.279-.666,.439-1.061,.439H3.5c-1.379,0-2.5,1.121-2.5,2.5v9.676c0,.162-.025,.321-.077,.474L.025,23.342c-.087,.262,.055,.545,.316,.633,.255,.086,.545-.052,.633-.316l.896-2.691c.086-.255,.129-.521,.129-.791v-3.176h6.5ZM17.493,1c3.029,0,5.493,2.464,5.493,5.493s-2.464,5.493-5.493,5.493-5.493-2.464-5.493-5.493S14.464,1,17.493,1ZM2,10.5c0-.827,.673-1.5,1.5-1.5h1.5v7H2v-5.5Zm21.787,2.909l-15,10.5c-.223,.158-.537,.106-.696-.122-.159-.227-.104-.538,.122-.696l15-10.5c.226-.158,.538-.104,.696,.122,.159,.227,.104,.538-.122,.696Z"/>
</svg>
