<svg id="Layer_1" viewBox="0 0 24 24" xmlns="http://www.w3.org/2000/svg" data-name="Layer 1"><path d="m17.5 11c-3.584 0-6.5 2.916-6.5 6.5s2.916 6.5 6.5 6.5 6.5-2.916 6.5-6.5-2.916-6.5-6.5-6.5zm0 12c-3.033 0-5.5-2.468-5.5-5.5s2.467-5.5 5.5-5.5 5.5 2.468 5.5 5.5-2.467 5.5-5.5 5.5zm3.35-6.857c.192.198.187.515-.012.707l-2.703 2.614c-.36.355-.835.533-1.311.533s-.949-.177-1.312-.531l-1.364-1.347c-.197-.193-.199-.51-.005-.707.194-.195.511-.198.707-.004l1.363 1.345c.337.329.886.327 1.223-.004l2.706-2.618c.199-.191.516-.187.707.012zm-10.85-5.537c0 1.32-1.074 2.395-2.395 2.395h-.605v.5c0 .276-.224.5-.5.5s-.5-.224-.5-.5v-.5h-.83c-.884 0-1.693-.484-2.111-1.264-.13-.243-.039-.547.205-.677.244-.133.546-.039.677.204.243.454.714.736 1.229.736h2.435c.769 0 1.395-.626 1.395-1.395 0-.685-.49-1.264-1.166-1.376l-2.833-.473c-1.159-.193-2.001-1.187-2.001-2.362 0-1.32 1.074-2.395 2.395-2.395h.605v-.5c0-.276.224-.5.5-.5s.5.224.5.5v.5h.605c.884 0 1.693.484 2.111 1.264.131.243.04.546-.204.677-.243.131-.546.039-.677-.204-.244-.454-.715-.736-1.23-.736h-2.21c-.769 0-1.395.626-1.395 1.395 0 .685.49 1.264 1.166 1.376l2.833.473c1.159.193 2.001 1.187 2.001 2.362zm-.589 10.52c.158.227.102.538-.125.695l-2.833 1.971c-.172.119-.4.119-.571 0l-2.539-1.767-2.546 1.873c-.152.112-.354.129-.522.044-.169-.086-.275-.258-.275-.447v-18.995c0-2.481 2.019-4.5 4.5-4.5h9c2.481 0 4.5 2.019 4.5 4.5v4c0 .276-.224.5-.5.5s-.5-.224-.5-.5v-4c0-1.93-1.57-3.5-3.5-3.5h-9c-1.93 0-3.5 1.57-3.5 3.5v18.006l2.038-1.499c.172-.128.406-.13.582-.008l2.547 1.772 2.548-1.771c.227-.157.539-.102.696.125z"/></svg>