<svg id="Layer_1" viewBox="0 0 24 24" xmlns="http://www.w3.org/2000/svg" data-name="Layer 1"><path d="m7.5 13.5v5c0 .276-.224.5-.5.5s-.5-.224-.5-.5v-5c0-.276.224-.5.5-.5s.5.224.5.5zm11 1.5v2c0 1.103-.897 2-2 2s-2-.897-2-2v-2c0-1.103.897-2 2-2s2 .897 2 2zm-1 0c0-.552-.449-1-1-1s-1 .448-1 1v2c0 .552.449 1 1 1s1-.448 1-1zm-5.678.553c-.559-.205-.945-.389-1.296-.518 0 0-.219-.118-.219-.46 0-.109.092-.369.459-.481.758-.234 1.431.33 1.438.335.212.181.532.154.71-.061l.019-.023c.175-.211.148-.522-.06-.7l-.016-.014c-.013-.01-1.101-.931-2.385-.531-.637.193-1.088.701-1.177 1.325-.084.602.184 1.153.736 1.51.003 0 .687.309 1.435.59.185.069.786.329.706.788-.056.315-.409.648-.953.648-.513 0-1.008-.211-1.323-.565-.189-.211-.513-.227-.722-.035l-.011.01c-.203.188-.219.504-.034.71l.011.012c.513.576 1.271.906 2.079.906.983 0 1.806-.632 1.959-1.502.115-.651-.181-1.504-1.356-1.945zm10.178-5.568v9.515c0 2.481-2.019 4.5-4.5 4.5h-11c-2.481 0-4.5-2.019-4.5-4.5v-15c0-2.481 2.019-4.5 4.5-4.5h5.515c1.736 0 3.369.676 4.596 1.904l3.485 3.485c1.228 1.228 1.904 2.86 1.904 4.596zm-6.096-7.374c-.55-.55-1.2-.959-1.904-1.231v5.12c0 .827.673 1.5 1.5 1.5h5.121c-.273-.704-.682-1.354-1.231-1.904l-3.485-3.485zm5.096 7.375c0-.335-.038-.663-.096-.985h-5.404c-1.378 0-2.5-1.122-2.5-2.5v-5.405c-.323-.058-.651-.096-.985-.096h-5.515c-1.93 0-3.5 1.57-3.5 3.5v15c0 1.93 1.57 3.5 3.5 3.5h11c1.93 0 3.5-1.57 3.5-3.5v-9.515z"/></svg>