<svg id="Layer_1" viewBox="0 0 24 24" xmlns="http://www.w3.org/2000/svg" data-name="Layer 1"><path d="m22.573 9c-.544 0-1.033.302-1.276.789l-.605 1.211h-3.872l.605-.865c.783-1.088.672-2.571-.291-3.55l-4.134-3.666c-.612-.623-1.455-.883-2.263-.771-.327-.318-.959-.888-1.27-1.104-1.991-1.376-4.682-1.408-6.695-.081-1.834 1.209-2.868 3.222-2.766 5.361 0 3.44.354 5.781 2.16 7.571.022.02 4.423 3.96 4.445 3.98.777.793 1.86 1.199 2.951 1.114 1.102-.084 2.108-.652 2.764-1.564l2.395-3.425h5.97l.605 1.211c.244.486.732.789 1.276.789.787 0 1.427-.64 1.427-1.427v-4.146c0-.787-.64-1.427-1.427-1.427zm-19.25-7.202c1.676-1.104 3.917-1.077 5.574.069.165.114.498.403.794.672-.082.052-.166.097-.243.159-.727.58-1.602 1.263-2.557 2.008-1.372 1.072-2.908 2.271-4.405 3.475-.572.46-.98 1.082-1.211 1.771-.185-.973-.27-2.151-.27-3.653-.085-1.806.781-3.489 2.317-4.502zm19.677 12.775c0 .235-.192.427-.427.427-.163 0-.309-.091-.382-.236l-.744-1.487c-.085-.169-.258-.276-.447-.276h-6.539c-.163 0-.316.08-.41.214l-2.541 3.633c-.479.666-1.218 1.084-2.025 1.146-.804.059-1.591-.237-2.185-.84l-4.427-3.964c-.563-.573-.858-1.366-.811-2.176.047-.805.43-1.553 1.05-2.052 1.492-1.201 3.024-2.397 4.394-3.466.958-.748 1.835-1.433 2.564-2.014.3-.24.66-.358 1.021-.358.438 0 .877.175 1.219.521l4.134 3.666c.585.597.658 1.561.164 2.247l-1.159 1.657c-.107.153-.12.353-.034.518.086.166.257.269.443.269h5.14c.189 0 .362-.107.447-.276l.744-1.487c.073-.146.219-.236.382-.236.235 0 .427.192.427.427v4.146zm-2.255 3.747c-.179.195-1.745 1.944-1.745 3.18-.028 1.343 1.157 2.528 2.5 2.5 1.344.028 2.527-1.157 2.5-2.5 0-1.263-1.569-2.99-1.764-3.2-.407-.397-1.066-.398-1.491.021zm1.815 4.24c-.565.566-1.554.566-2.121 0-.283-.283-.439-.66-.439-1.061 0-.642.91-1.877 1.519-2.503.573.618 1.481 1.845 1.481 2.503 0 .4-.156.777-.44 1.061z"/></svg>