<svg id="Layer_1" viewBox="0 0 24 24" xmlns="http://www.w3.org/2000/svg" data-name="Layer 1"><path d="m15.501 5c1.379 0 2.5-1.122 2.5-2.5s-1.121-2.5-2.5-2.5-2.5 1.122-2.5 2.5 1.121 2.5 2.5 2.5zm0-4c.827 0 1.5.673 1.5 1.5s-.673 1.5-1.5 1.5-1.5-.673-1.5-1.5.673-1.5 1.5-1.5zm-.119 16h-10.381v-8.5c0-.276-.225-.5-.501-.5s-.5.224-.5.5v14c0 .827.674 1.5 1.501 1.5h3.175c.649 0 1.222-.416 1.424-1.035.212-.649.67-.965 1.401-.965h.754c2.878 0 4.102-1.505 4.621-2.767.457-1.02-.378-2.266-1.494-2.233zm.57 1.852c-.588 1.426-1.831 2.148-3.697 2.148h-.754c-1.577 0-2.15 1.037-2.353 1.655-.067.206-.257.345-.473.345h-3.175c-.275 0-.5-.224-.5-.5v-4.5h10.382c.427-.014.745.463.57.852zm3.597-3.065c-.396-.5-.987-.786-1.625-.786h-4.07l1.753-5.646 3.473 5.416c.15.234.462.299.69.151.232-.149.301-.458.151-.691l-4.575-7.136s0 0 0 0 0-.001-.001-.002c-.373-.553-.94-.928-1.597-1.055-1.263-.294-2.704.662-2.91 1.907l-1.791 5.084c-.326 1.489.931 3.01 2.455 2.972h6.423c.671-.018 1.216.669 1.045 1.316l-1.455 6.067c-.064.269.102.539.37.603.262.064.54-.1.603-.37l1.455-6.069c.146-.62.003-1.262-.393-1.762zm-6.742-.786h-1.306c-.449 0-.871-.198-1.156-.544-.286-.346-.401-.798-.336-1.167l1.791-5.083c.136-.795.973-1.358 1.758-1.188.767.118 1.349.975 1.2 1.705z"/></svg>