<svg id="Layer_1" viewBox="0 0 24 24" xmlns="http://www.w3.org/2000/svg" data-name="Layer 1"><path d="m12 0c-6.617 0-12 5.383-12 12s5.383 12 12 12 12-5.383 12-12-5.383-12-12-12zm-11 12c0-2.853 1.101-5.447 2.889-7.404l15.515 15.515c-1.957 1.788-4.551 2.889-7.404 2.889-6.065 0-11-4.935-11-11zm10.955-.752c.945-.966 1.211-1.523 1.557-2.51.329-.938.613-1.748 1.01-2.145.768-.768 2.114-.768 2.881 0 .385.385.597.897.597 1.441s-.212 1.056-.597 1.44c-.395.396-1.202.679-2.145 1.01-.981.344-1.536.609-2.507 1.56l-.797-.797zm8.156 8.156-4.364-4.364c.89.295 1.816.46 2.753.46.276 0 .5-.224.5-.5s-.224-.5-.5-.5c-1.8 0-3.558-.668-5.039-1.75.871-.85 1.32-1.039 2.139-1.325 1.049-.369 1.955-.687 2.511-1.243.574-.574.89-1.336.89-2.147s-.316-1.574-.89-2.148c-1.143-1.143-3.15-1.143-4.295 0-.558.559-.877 1.468-1.246 2.521-.286.815-.475 1.267-1.319 2.132-1.082-1.481-1.75-3.239-1.75-5.039 0-.276-.224-.5-.5-.5s-.5.224-.5.5c0 .937.165 1.863.46 2.753l-4.365-4.365c1.957-1.788 4.551-2.889 7.404-2.889 6.065 0 11 4.935 11 11 0 2.853-1.101 5.447-2.889 7.404zm-6.793-2.551c-.794 1.283-2.202 2.147-3.818 2.147-2.481 0-4.5-2.019-4.5-4.5 0-1.616.864-3.024 2.147-3.818l.734.734c-1.112.587-1.881 1.742-1.881 3.084 0 1.93 1.57 3.5 3.5 3.5 1.342 0 2.497-.768 3.084-1.881z"/></svg>