<svg id="Layer_1" viewBox="0 0 24 24" xmlns="http://www.w3.org/2000/svg" data-name="Layer 1"><path d="m21 18v-1.5c0-2.481-2.019-4.5-4.5-4.5s-4.5 2.019-4.5 4.5v1.5c-.847 0-1.658.361-2.227.991-.568.629-.844 1.476-.757 2.321.153 1.507 1.529 2.688 3.132 2.688h.352c.827 0 1.5-.673 1.5-1.5v-3c0-.651-.419-1.201-1-1.408v-1.592c0-1.93 1.57-3.5 3.5-3.5s3.5 1.57 3.5 3.5v1.592c-.581.207-1 .757-1 1.408v3c0 .827.673 1.5 1.5 1.5h.352c1.603 0 2.979-1.181 3.132-2.688.087-.846-.188-1.692-.757-2.321-.568-.63-1.38-.991-2.227-.991zm-8 4.5c0 .275-.225.5-.5.5h-.352c-1.096 0-2.035-.786-2.138-1.789-.059-.574.121-1.124.505-1.55.379-.42.921-.661 1.484-.661h.5c.275 0 .5.225.5.5v3zm7.852.5h-.352c-.275 0-.5-.225-.5-.5v-3c0-.275.225-.5.5-.5h.5c.563 0 1.105.241 1.484.661.384.426.563.976.505 1.55-.103 1.003-1.042 1.789-2.138 1.789zm-14.352-3c.276 0 .5.224.5.5s-.224.5-.5.5h-1c-.276 0-.5-.224-.5-.5s.224-.5.5-.5zm2.5-2.5c0 .276-.224.5-.5.5h-7.5v1.5c0 1.93 1.57 3.5 3.5 3.5h3c.276 0 .5.224.5.5s-.224.5-.5.5h-3c-2.481 0-4.5-2.019-4.5-4.5v-15c0-2.481 2.019-4.5 4.5-4.5h7c.276 0 .5.224.5.5s-.224.5-.5.5h-7c-1.93 0-3.5 1.57-3.5 3.5v12.5h7.5c.276 0 .5.224.5.5zm5-13c0-.276.224-.5.5-.5 3.032 0 5.5 2.468 5.5 5.5 0 .276-.224.5-.5.5s-.5-.224-.5-.5c0-2.481-2.019-4.5-4.5-4.5-.276 0-.5-.224-.5-.5zm0 4c0-.276.224-.5.5-.5.827 0 1.5.673 1.5 1.5 0 .276-.224.5-.5.5s-.5-.224-.5-.5-.225-.5-.5-.5-.5-.224-.5-.5zm0-8c0-.276.224-.5.5-.5 5.238 0 9.5 4.262 9.5 9.5 0 .276-.224.5-.5.5s-.5-.224-.5-.5c0-4.687-3.813-8.5-8.5-8.5-.276 0-.5-.224-.5-.5z"/></svg>