<?xml version="1.0" encoding="UTF-8"?>
<svg xmlns="http://www.w3.org/2000/svg" id="Layer_1" data-name="Layer 1" viewBox="0 0 24 24">
  <path d="M24,18.32v3.233c0,.69-.289,1.356-.793,1.827-.463,.433-1.078,.673-1.709,.673-.055,0-3.37-.222-3.37-.222-2.875-.194-5.128-2.604-5.128-5.487V5.088c0-1.02,.718-1.906,1.67-2.061,.549-.088,1.081,.038,1.499,.357,.463,.354,.757,.908,.826,1.562l.502,5.043c.028,.274-.173,.52-.447,.547-.271,.024-.52-.173-.547-.448l-.502-5.04c-.04-.375-.196-.685-.438-.87-.201-.154-.458-.211-.732-.165-.474,.077-.83,.538-.83,1.073v7.387c.402-.294,.893-.474,1.428-.474,1.2,0,2.233,.894,2.403,2.08l.628,4.393c.039,.273-.151,.527-.424,.566-.281,.04-.527-.151-.566-.424l-.628-4.393c-.101-.708-.695-1.221-1.413-1.221-.787,0-1.428,.641-1.428,1.428v3.915c0,2.358,1.843,4.331,4.196,4.489l3.203,.217c.402,.029,.818-.113,1.125-.4,.307-.287,.476-.676,.476-1.096v-3.233c0-.601-.356-1.142-.909-1.379l-2.288-.98c-.254-.109-.371-.402-.263-.656,.11-.255,.404-.373,.657-.263l2.288,.98c.92,.394,1.515,1.296,1.515,2.298ZM9.33,.026c-.547-.088-1.08,.039-1.499,.357-.463,.354-.757,.908-.826,1.566l-.502,5.04c-.028,.274,.173,.52,.447,.547,.288,.025,.52-.173,.547-.448l.502-5.036c.04-.378,.196-.688,.438-.874,.201-.154,.456-.211,.732-.165,.474,.077,.83,.538,.83,1.073v7.387c-.402-.294-.893-.474-1.428-.474-1.2,0-2.233,.894-2.403,2.08l-.628,4.393c-.039,.273,.151,.527,.424,.566,.265,.033,.526-.15,.566-.424l.628-4.393c.101-.708,.695-1.221,1.413-1.221,.787,0,1.428,.641,1.428,1.428v3.915c0,2.358-1.843,4.331-4.196,4.489l-3.203,.217c-.404,.026-.817-.113-1.125-.4-.307-.287-.476-.676-.476-1.096v-3.233c0-.601,.356-1.142,.909-1.379l2.288-.98c.254-.109,.371-.402,.263-.656-.11-.255-.406-.371-.657-.263l-2.288,.98c-.92,.395-1.515,1.297-1.515,2.298v3.233c0,.69,.289,1.356,.793,1.827,.463,.433,1.078,.673,1.709,.673,.055,0,3.37-.222,3.37-.222,2.875-.194,5.128-2.604,5.128-5.487V2.087c0-1.02-.718-1.906-1.67-2.061Z"/>
</svg>
