<svg id="Layer_1" viewBox="0 0 24 24" xmlns="http://www.w3.org/2000/svg" data-name="Layer 1"><path d="m20 0h-16c-2.206 0-4 1.794-4 4v16c0 2.206 1.794 4 4 4h16c2.206 0 4-1.794 4-4v-16c0-2.206-1.794-4-4-4zm-3 6v5h-5v-5zm6 0v5h-5v-5zm-12 5h-5v-5h5zm-5 1h5v5h-5zm0 6h5v5h-5zm6 0h5v5h-5zm0-1v-5h5v5zm6-5h5v5h-5zm5-8v1h-17v-4h14c1.654 0 3 1.346 3 3zm-19-3h1v4h-4v-1c0-1.654 1.346-3 3-3zm-3 19v-14h4v17h-1c-1.654 0-3-1.346-3-3zm19 3h-2v-5h5v2c0 1.654-1.346 3-3 3zm-13.392-14.814c.189-.202.507-.21.707-.021l.853.804c.038.038.084.037.112.01l1.381-1.332c.199-.192.516-.186.707.013.192.199.186.516-.013.707l-1.375 1.325c-.205.205-.477.308-.749.308-.274 0-.55-.104-.76-.314l-.842-.794c-.201-.189-.21-.506-.021-.707zm15.759 11.475c.192.199.186.516-.013.707l-1.375 1.325c-.205.205-.477.308-.749.308-.274 0-.55-.104-.76-.314l-.842-.794c-.201-.189-.21-.506-.021-.707s.507-.21.707-.021l.853.804c.039.037.083.038.112.01l1.381-1.332c.2-.191.516-.185.707.013zm-6.013-5.293-1.375 1.325c-.205.205-.477.308-.749.308-.274 0-.55-.104-.76-.314l-.842-.794c-.201-.189-.21-.506-.021-.707.188-.201.506-.211.707-.021l.853.804c.039.038.083.037.112.01l1.381-1.332c.199-.191.516-.186.707.013.192.199.186.516-.013.707z"/></svg>