<?xml version="1.0" encoding="UTF-8"?>
<svg xmlns="http://www.w3.org/2000/svg" id="Layer_1" data-name="Layer 1" viewBox="0 0 24 24">
  <path d="m15,11c-1.103,0-2-.897-2-2v-3c0-1.103.897-2,2-2s2,.897,2,2c0,.276-.224.5-.5.5s-.5-.224-.5-.5c0-.552-.449-1-1-1s-1,.448-1,1v3c0,.552.449,1,1,1s1-.448,1-1v-.5h-.5c-.276,0-.5-.224-.5-.5s.224-.5.5-.5h1c.276,0,.5.224.5.5v1c0,1.103-.897,2-2,2ZM6.5,4c-.276,0-.5.224-.5.5v4.5c0,.552-.449,1-1,1s-1-.448-1-1c0-.276-.224-.5-.5-.5s-.5.224-.5.5c0,1.103.897,2,2,2s2-.897,2-2v-4.5c0-.276-.224-.5-.5-.5Zm5.5,2c0,1.103-.897,2-2,2h-1v2.5c0,.276-.224.5-.5.5s-.5-.224-.5-.5v-5.5c0-.552.449-1,1-1h1c1.103,0,2,.897,2,2Zm-1,0c0-.552-.449-1-1-1h-1v2h1c.551,0,1-.448,1-1Zm13-1.5v9.515c0,1.735-.676,3.368-1.904,4.597l-3.485,3.484c-1.227,1.228-2.859,1.904-4.596,1.904H4.5c-2.481,0-4.5-2.019-4.5-4.5V4.5C0,2.019,2.019,0,4.5,0h15c2.481,0,4.5,2.019,4.5,4.5Zm-9.985,18.5c.335,0,.663-.038.985-.096v-5.404c0-1.379,1.122-2.5,2.5-2.5h5.404c.058-.323.096-.651.096-.985V4.5c0-1.93-1.57-3.5-3.5-3.5H4.5c-1.93,0-3.5,1.57-3.5,3.5v15c0,1.93,1.57,3.5,3.5,3.5h9.515Zm8.606-7h-5.12c-.827,0-1.5.673-1.5,1.5v5.121c.704-.273,1.354-.682,1.904-1.232l3.485-3.484c.55-.551.959-1.2,1.231-1.904Z"/>
</svg>
