<svg id="Layer_1" viewBox="0 0 24 24" xmlns="http://www.w3.org/2000/svg" data-name="Layer 1"><path d="m22 19.051v-8.551c0-2.481-2.019-4.5-4.5-4.5h-1.514c-.497-.662-1.153-1.211-1.944-1.565-.951-.426-1.542-1.278-1.542-2.225v-1.71c0-.276-.224-.5-.5-.5s-.5.224-.5.5v1.709c0 1.346.817 2.549 2.133 3.138.374.168.711.391 1.007.652h-6.64v-.5c0-.276-.224-.5-.5-.5s-.5.224-.5.5v.5h-.5c-2.481 0-4.5 2.019-4.5 4.5v8.551c-1.14.232-2 1.242-2 2.449 0 1.378 1.122 2.5 2.5 2.5h19c1.378 0 2.5-1.122 2.5-2.5 0-1.207-.86-2.217-2-2.449zm-15.5-12.051h8.962c.408.707.601 1.539.52 2.395-.193 2.021-2.027 3.605-4.175 3.605h-.307c-.276 0-.5.224-.5.5s.224.5.5.5h.307c2.658 0 4.929-1.981 5.17-4.511.083-.874-.073-1.724-.408-2.489h.931c1.93 0 3.5 1.57 3.5 3.5v8.5h-5.5c-.133 0-.26.053-.354.146l-.854.854h-4.586l-.854-.854c-.094-.094-.221-.146-.354-.146h-5.498v-8.5c0-1.93 1.57-3.5 3.5-3.5zm15 16h-19c-.827 0-1.5-.673-1.5-1.5s.673-1.5 1.5-1.5h5.793l.854.854c.094.094.221.146.354.146h5c.133 0 .26-.053.354-.146l.854-.854h5.793c.827 0 1.5.673 1.5 1.5s-.673 1.5-1.5 1.5z"/></svg>