<?xml version="1.0" encoding="UTF-8"?>
<svg xmlns="http://www.w3.org/2000/svg" id="Layer_1" data-name="Layer 1" viewBox="0 0 24 24">
  <path d="M12.999,23.467c.013,.276-.201,.509-.477,.521-.174,.008-.347,.011-.522,.011C5.548,24,.276,18.958,0,12.521c-.012-.276,.203-.509,.479-.521,.295-.032,.509,.203,.521,.478,.253,5.9,5.085,10.521,11,10.521,.16,0,.319-.003,.478-.01,.308-.025,.509,.202,.521,.478Zm2.634-8.422c-.223-.091-.477-.042-.657,.139l-2.339,2.472c-.189,.201-.181,.517,.02,.707,.201,.19,.518,.181,.707-.02l1.637-1.73v6.887c0,.276,.224,.5,.5,.5s.5-.224,.5-.5v-7.905c0-.241-.144-.457-.367-.549ZM1.5,9H5.5c.276,0,.5-.224,.5-.5s-.224-.5-.5-.5H1.756C3.395,3.807,7.485,1,12,1c6.065,0,11,4.935,11,11,0,.322-.014,.642-.041,.957-.023,.275,.18,.518,.455,.541,.015,.001,.029,.002,.044,.002,.257,0,.475-.197,.497-.457,.029-.344,.045-.691,.045-1.043C24,5.383,18.617,0,12,0,7.227,0,2.892,2.876,1,7.216V3.5c0-.276-.224-.5-.5-.5s-.5,.224-.5,.5V7.5c0,.827,.673,1.5,1.5,1.5Zm22.5,9v3c0,1.654-1.346,3-3,3s-3-1.346-3-3v-3c0-1.654,1.346-3,3-3s3,1.346,3,3Zm-1,0c0-1.103-.897-2-2-2s-2,.897-2,2v3c0,1.103,.897,2,2,2s2-.897,2-2v-3ZM11,6v6H6c-.276,0-.5,.224-.5,.5s.224,.5,.5,.5h5.5c.276,0,.5-.224,.5-.5V6c0-.276-.224-.5-.5-.5s-.5,.224-.5,.5Z"/>
</svg>
