<svg id="Layer_1" viewBox="0 0 24 24" xmlns="http://www.w3.org/2000/svg" data-name="Layer 1"><path d="m6 7.983h-1c-.552 0-1 .449-1 1v6.5c0 .276.224.5.5.5s.5-.224.5-.5v-2.5h1c1.379 0 2.5-1.122 2.5-2.5s-1.121-2.5-2.5-2.5zm0 4h-1v-3h1c.827 0 1.5.673 1.5 1.5s-.673 1.5-1.5 1.5zm11.5-4h-1c-.552 0-1 .449-1 1v6.5c0 .276.224.5.5.5s.5-.224.5-.5v-2.5h1c1.379 0 2.5-1.122 2.5-2.5s-1.121-2.5-2.5-2.5zm0 4h-1v-3h1c.827 0 1.5.673 1.5 1.5s-.673 1.5-1.5 1.5zm-5.5-4c-1.379 0-2.5 1.122-2.5 2.5v3c0 1.378 1.121 2.5 2.5 2.5s2.5-1.122 2.5-2.5v-3c0-1.378-1.121-2.5-2.5-2.5zm1.5 5.5c0 .827-.673 1.5-1.5 1.5s-1.5-.673-1.5-1.5v-3c0-.827.673-1.5 1.5-1.5s1.5.673 1.5 1.5zm8.641-1.5 1.698-3.184c.215-.4.214-.858 0-1.259-.221-.41-.635-.688-1.116-.755l-3.004-1.111c-.153-.057-.246-.209-.228-.371l.246-2.065c.049-.417-.14-.809-.502-1.05-.312-.209-.827-.333-1.329-.049l-3.044 1.712c-.109.061-.247.029-.316-.076l-1.518-2.276c-.459-.689-1.598-.689-2.057 0l-1.518 2.276c-.069.104-.207.137-.316.075l-3.043-1.711c-.501-.283-1.017-.161-1.33.048-.362.242-.551.634-.501 1.052l.245 2.064c.019.162-.074.314-.228.371l-3.004 1.111c-.481.066-.895.345-1.116.755-.215.4-.215.858-.002 1.258l1.699 3.184-1.696 3.185c-.215.4-.214.858 0 1.259.221.41.635.688 1.116.755l3.004 1.111c.153.057.246.209.228.371l-.246 2.065c-.049.417.14.809.502 1.05.313.21.829.333 1.329.049l3.044-1.712c.107-.062.246-.029.316.075s1.518 2.276 1.518 2.276c.229.345.614.55 1.028.55s.799-.206 1.028-.55l1.518-2.276c.07-.104.209-.135.316-.075l3.043 1.711c.502.283 1.016.161 1.33-.048.362-.242.551-.634.501-1.052l-.245-2.065c-.019-.162.074-.314.229-.371l3.003-1.11c.481-.066.895-.345 1.116-.755.215-.4.215-.858.002-1.258l-1.699-3.184zm.816 3.968c-.072.135-.222.225-.399.242-.043.004-3.185 1.16-3.185 1.16-.59.218-.949.805-.874 1.428l.244 2.063c0 .105-.17.201-.347.111l-3.044-1.712c-.563-.314-1.281-.143-1.639.393l-1.518 2.276c-.121.183-.271.183-.393 0l-1.518-2.275c-.356-.536-1.072-.709-1.639-.394l-3.045 1.713c-.18.09-.342-.009-.347-.111l.245-2.064c.075-.623-.284-1.21-.873-1.428l-3.059-1.131c-.309-.028-.7-.235-.526-.584l1.824-3.42c.078-.147.078-.324 0-.471l-1.824-3.419c-.143-.27.113-.536.399-.555.043-.004 3.187-1.162 3.187-1.162.588-.218.947-.805.872-1.427l-.244-2.063c.002-.105.168-.204.347-.111l3.044 1.712c.563.315 1.282.143 1.639-.393l1.518-2.276c.121-.183.271-.183.393 0l1.518 2.275c.355.536 1.073.711 1.639.394l3.045-1.713c.179-.091.342.009.347.111l-.245 2.063c-.075.623.284 1.209.872 1.427l3.06 1.132c.309.028.7.235.526.584l-1.824 3.42c-.078.147-.078.324 0 .471l1.824 3.419c.056.103.055.211 0 .313z"/></svg>