<svg id="Layer_1" viewBox="0 0 24 24" xmlns="http://www.w3.org/2000/svg" data-name="Layer 1"><path d="m12 4.5v-4c0-.276.224-.5.5-.5s.5.224.5.5v4c0 .276-.224.5-.5.5s-.5-.224-.5-.5zm4.743 2.257c.128 0 .256-.049.354-.146l2.829-2.829c.195-.195.195-.512 0-.707s-.512-.195-.707 0l-2.829 2.829c-.195.195-.195.512 0 .707.098.098.226.146.354.146zm-10.961-3.682c-.195-.195-.512-.195-.707 0s-.195.512 0 .707l2.829 2.829c.195.195.512.195.707 0s.195-.512 0-.707zm.718 6.925h-4c-.276 0-.5.224-.5.5s.224.5.5.5h4c.276 0 .5-.224.5-.5s-.224-.5-.5-.5zm15.433 7.35c-.169.526-.615.892-1.165.953l-2.79.31 1.381 2.64c.501.888.111 2.114-.813 2.55-.889.45-1.998.118-2.482-.787l-1.489-2.836-2.217 2.418c-.437.411-1.01.509-1.524.285-.514-.223-.833-.71-.833-1.27v-11.657c0-.726.41-1.365 1.069-1.668.659-.304 1.412-.198 1.963.275l8.501 7.328s.005.005.008.007c.411.37.561.926.392 1.452zm-1.058-.706-8.495-7.323c-.253-.218-.588-.264-.893-.125-.305.14-.487.424-.487.76v11.658c0 .228.162.323.231.353.07.032.25.085.416-.072l2.671-2.915c.221-.254.664-.195.812.105l1.817 3.461c.222.412.729.574 1.152.362.43-.204.611-.773.377-1.188l-1.722-3.292c-.167-.298.048-.701.388-.729l3.516-.39c.223-.025.3-.193.323-.265.023-.071.058-.251-.105-.4z"/></svg>