<svg id="Layer_1" viewBox="0 0 24 24" xmlns="http://www.w3.org/2000/svg" data-name="Layer 1"><path d="m23.854.854c.195-.195.195-.512 0-.707s-.512-.195-.707 0l-1.276 1.276c-1.046-.886-2.396-1.423-3.871-1.423-3.309 0-6 2.691-6 6 0 .933.22 1.813.602 2.602-.788-.382-1.669-.602-2.602-.602-3.309 0-6 2.691-6 6 0 1.475.537 2.825 1.423 3.87l-5.277 5.276c-.195.195-.195.512 0 .707.098.098.226.146.354.146s.256-.049.354-.146l5.276-5.276c1.046.886 2.396 1.423 3.87 1.423 3.309 0 6-2.691 6-6 0-.933-.22-1.813-.602-2.602.788.382 1.669.602 2.602.602 3.309 0 6-2.691 6-6 0-1.475-.537-2.824-1.422-3.87zm-13.854 8.146c2.498 0 4.556 1.848 4.924 4.245-.733.495-1.579.767-2.473.767-2.454 0-4.445-1.909-4.445-4.591.612-.268 1.285-.421 1.995-.421zm0 10c-2.761 0-5-2.239-5-5 0-1.637.802-3.081 2.023-3.993.228 2.797 2.573 5.005 5.428 5.005.887 0 1.739-.213 2.51-.615-.206 2.569-2.339 4.603-4.96 4.603zm8-8c-2.757 0-5-2.243-5-5 0-1.637.802-3.081 2.023-3.993.228 2.797 2.573 5.005 5.428 5.005.887 0 1.739-.213 2.51-.614-.206 2.569-2.339 4.603-4.96 4.603zm4.924-5.755c-.733.495-1.579.767-2.473.767-2.454 0-4.445-1.986-4.445-4.591.612-.268 1.285-.421 1.995-.421 2.484 0 4.563 1.823 4.924 4.245z"/></svg>