<svg id="Layer_1" viewBox="0 0 24 24" xmlns="http://www.w3.org/2000/svg" data-name="Layer 1"><path d="m8.5 17.5c0 .276-.224.5-.5.5h-1.489c-.468 0-.91-.226-1.246-.636-.379-.463-1.152-.463-1.532 0-.335.41-.777.636-1.245.636h-.948c-.85 0-1.541-.69-1.541-1.54v-.449c0-.467.226-.909.636-1.245.231-.189.364-.469.364-.766s-.133-.576-.365-.767c-.409-.335-.635-.777-.635-1.245v-.978c0-.468.226-.91.636-1.246.231-.189.364-.469.364-.766s-.133-.576-.364-.766c-.41-.335-.636-.777-.636-1.245v-.978c0-.468.226-.91.636-1.246.231-.189.364-.469.364-.766s-.133-.576-.364-.766c-.41-.335-.636-.777-.636-1.245v-.448c.001-.847.692-1.538 1.542-1.538h.948c.468 0 .91.226 1.246.636.379.462 1.152.462 1.532 0 .335-.41.777-.636 1.245-.636h.978c.468 0 .91.226 1.246.636.379.462 1.152.462 1.532 0 .335-.41.777-.636 1.245-.636h.948c.849 0 1.541.691 1.541 1.541v.448c0 .468-.226.91-.636 1.246-.141.115-.247.265-.308.434-.093.261-.38.395-.639.302-.26-.093-.396-.379-.302-.639.122-.34.335-.642.616-.872.1-.082.269-.252.269-.471v-.448c0-.298-.243-.541-.541-.541h-.948c-.219 0-.389.168-.471.269-.763.93-2.318.929-3.08 0-.083-.101-.253-.27-.472-.27h-.978c-.219 0-.389.168-.471.269-.763.93-2.318.929-3.08 0-.083-.101-.253-.27-.472-.27h-.948c-.298 0-.541.243-.541.541v.448c0 .219.168.389.269.471.465.381.731.942.731 1.54s-.266 1.159-.73 1.54c-.101.083-.27.253-.27.472v.978c0 .219.168.389.269.471.465.381.731.942.731 1.54s-.266 1.159-.73 1.54c-.101.083-.27.253-.27.472v.978c0 .219.168.389.269.471.465.382.731.943.731 1.54s-.266 1.158-.73 1.539c-.101.082-.27.254-.27.472v.449c0 .298.243.54.541.54h.948c.219 0 .389-.168.471-.269.762-.93 2.319-.93 3.08 0 .083.101.253.269.472.269h1.489c.276 0 .5.224.5.5zm-4-13.5h6c.276 0 .5-.224.5-.5s-.224-.5-.5-.5h-6c-.827 0-1.5.673-1.5 1.5v9c0 .827.673 1.5 1.5 1.5h3c.276 0 .5-.224.5-.5s-.224-.5-.5-.5h-3c-.276 0-.5-.225-.5-.5v-9c0-.276.224-.5.5-.5zm18.864 5.234c-.231.189-.364.469-.364.766s.133.576.364.766c.41.335.636.777.636 1.245v.978c0 .467-.226.91-.635 1.246-.232.189-.365.469-.365.766s.133.576.364.766c.41.336.636.778.636 1.245v.979c0 .467-.226.909-.635 1.245-.232.189-.365.469-.365.766s.133.576.364.766c.41.336.636.778.636 1.245v.449c0 .85-.69 1.54-1.54 1.54h-.949c-.467 0-.909-.226-1.245-.635-.379-.465-1.152-.464-1.531 0-.336.41-.778.636-1.245.636h-.979c-.467 0-.909-.226-1.245-.635-.379-.465-1.152-.464-1.531 0-.336.41-.778.636-1.246.636h-.948c-.85 0-1.541-.69-1.541-1.54v-.449c0-.467.226-.909.636-1.245.231-.189.364-.469.364-.766s-.133-.576-.364-.766c-.41-.336-.636-.778-.636-1.245v-.979c0-.467.226-.909.636-1.245.231-.189.364-.469.364-.766s-.133-.576-.364-.766c-.41-.336-.636-.778-.636-1.246v-.978c0-.468.226-.91.636-1.246.231-.189.364-.469.364-.766s-.133-.576-.364-.766c-.41-.335-.636-.777-.636-1.245v-.448c0-.85.691-1.541 1.541-1.541h.948c.467 0 .91.226 1.246.636.379.463 1.152.463 1.531 0 .336-.41.778-.636 1.245-.636h.979c.467 0 .909.226 1.245.636.379.463 1.152.463 1.531 0 .336-.41.778-.636 1.245-.636h.949c.85 0 1.54.691 1.54 1.541v.448c0 .468-.226.91-.636 1.246zm-.364-1.694c0-.298-.242-.541-.54-.541h-.949c-.218 0-.39.169-.472.27-.762.929-2.316.929-3.078 0-.082-.101-.254-.27-.472-.27h-.979c-.218 0-.39.169-.472.27-.762.929-2.316.929-3.078 0-.083-.101-.253-.27-.472-.27h-.948c-.298 0-.541.243-.541.541v.448c0 .219.168.389.269.471.465.381.731.942.731 1.54s-.266 1.159-.73 1.54c-.101.083-.27.253-.27.472v.978c0 .218.169.39.27.472.464.381.73.941.73 1.539s-.266 1.158-.73 1.539c-.101.082-.27.254-.27.472v.979c0 .218.169.39.27.472.464.381.73.941.73 1.539s-.266 1.158-.73 1.539c-.101.082-.27.254-.27.472v.449c0 .298.243.54.541.54h.948c.219 0 .39-.169.472-.27.76-.928 2.318-.929 3.078 0 .082.1.253.269.472.269h.979c.219 0 .39-.169.472-.27.38-.464.941-.73 1.539-.73s1.159.267 1.539.731c.082.1.253.269.472.269h.949c.298 0 .54-.242.54-.54v-.449c0-.219-.169-.39-.27-.472-.464-.38-.73-.941-.73-1.539s.267-1.159.731-1.539c.1-.082.269-.253.269-.472v-.979c0-.219-.169-.39-.27-.472-.464-.38-.73-.941-.73-1.539s.267-1.159.731-1.539c.1-.082.269-.253.269-.472v-.978c0-.219-.168-.389-.269-.471-.465-.381-.731-.942-.731-1.54s.267-1.159.731-1.54c.101-.083.269-.253.269-.472v-.448zm-2 2.959v9c0 .827-.673 1.5-1.5 1.5h-5c-.827 0-1.5-.673-1.5-1.5v-8.999c0-.827.673-1.5 1.5-1.5h5c.827 0 1.5.673 1.5 1.5zm-1 0c0-.276-.225-.5-.5-.5h-5c-.275 0-.5.224-.5.5v9c0 .275.225.5.5.5h5c.275 0 .5-.225.5-.5v-8.999z"/></svg>