<svg id="Layer_1" viewBox="0 0 24 24" xmlns="http://www.w3.org/2000/svg" data-name="Layer 1"><path d="m20.269 3.22c-.401-.325-.792-.24-1.005-.068-.286.231-.345.65-.146 1.042.687 1.361 1.847 3.407 1.882 5.306 0 3.425-2.863 6.309-8.5 8.602v-.946c.203-.283.832-1.088 1.83-1.68.656-.389.941-1.15.722-1.82 1.819-1.079 2.948-3.035 2.948-5.156 0-2.138-1.127-4.072-2.95-5.152.223-.67-.062-1.434-.72-1.824-.412-.245-.802-.58-1.158-.998-.556-.652-1.685-.653-2.24-.002-.357.42-.75.758-1.166 1.004-.642.378-.93 1.114-.735 1.771-1.872 1.069-3.032 3.03-3.032 5.201s1.159 4.132 3.031 5.201c-.195.657.094 1.393.735 1.771 1 .591 1.564 1.398 1.734 1.668v.962c-5.636-2.293-8.499-5.178-8.499-8.602.035-1.901 1.195-3.943 1.881-5.305.199-.393.141-.812-.146-1.043-.213-.172-.604-.257-1.005.068-2.475 2.012-3.73 4.294-3.73 6.78 0 3.041 1.121 4.962 2.097 6.295.632.875.769 1.868.979 2.814.146.729 1.013 1.13 1.668.763l3.662-2.053c.728.385 1.457.717 2.16 1.012-1.185.524-3.291.657-3.566 2.169 0 .552.448 1 1 1s1-.448 1-1c0-.195-.07-.366-.167-.52.304-.128.6-.222.751-.269.496-.156 1.158-.366 1.916-.633v2.575c-.293.174-.5.481-.5.847 0 .552.448 1 1 1s1-.448 1-1c0-.366-.206-.673-.5-.847v-2.575c.758.267 1.42.477 1.916.633.15.047.447.142.75.269-.096.154-.167.325-.167.52 0 .552.448 1 1 1s1-.448 1-1c-.276-1.512-2.38-1.644-3.566-2.169.703-.295 1.432-.627 2.16-1.012l3.674 2.06c.641.359 1.516-.047 1.656-.769.21-.946.347-1.94.979-2.814.976-1.333 2.097-3.254 2.097-6.295 0-2.486-1.255-4.768-3.731-6.78zm-16.001 15.773c-.256.125-.247-.347-.297-.481-.177-.842-.396-1.891-1.067-2.808-.941-1.286-1.903-2.969-1.903-5.705 0-1.842.815-3.576 2.435-5.174-.632 1.267-1.435 3.088-1.435 4.674 0 3.537 2.528 6.03 5.386 7.745l-3.118 1.748zm12.732-10.493c0 1.747-.92 3.359-2.405 4.264-.524-.963-1.095-2.187-1.095-4.264s.57-3.299 1.094-4.262c1.488.906 2.406 2.5 2.406 4.262zm-10 0c0-1.789.947-3.407 2.478-4.305.517.99 1.022 2.191 1.022 4.305s-.505 3.315-1.022 4.305c-1.531-.897-2.478-2.515-2.478-4.305zm3.274 6.111c-.232-.137-.398-.434-.248-.713.699-1.31 1.455-2.563 1.474-5.397-.018-2.836-.775-4.086-1.474-5.398-.15-.279.016-.576.249-.713.512-.302.989-.712 1.419-1.216.172-.214.545-.211.717.002.428.502.902.909 1.41 1.21.239.142.399.452.253.724-.738 1.375-1.54 2.561-1.573 5.392.034 2.832.835 4.016 1.573 5.392.146.272-.014.583-.253.724-.821.487-1.425 1.093-1.799 1.532-.35-.445-.925-1.051-1.747-1.537zm10.822 1.094c-.671.917-.891 1.965-1.067 2.808-.048.131-.042.59-.285.488l-3.13-1.755c2.858-1.715 5.386-4.208 5.386-7.745 0-1.588-.805-3.412-1.437-4.679 1.618 1.594 2.437 3.332 2.437 5.179 0 2.735-.962 4.419-1.903 5.705z"/></svg>