<svg id="Layer_1" viewBox="0 0 24 24" xmlns="http://www.w3.org/2000/svg" data-name="Layer 1"><path d="m19.5 4h-1.551c-.252-2.244-2.139-4-4.449-4h-3c-2.31 0-4.197 1.756-4.449 4h-1.551c-2.481 0-4.5 2.019-4.5 4.5v11c0 2.481 2.019 4.5 4.5 4.5h8c.276 0 .5-.224.5-.5s-.224-.5-.5-.5h-8c-1.93 0-3.5-1.57-3.5-3.5v-5.5h8.5c.276 0 .5-.224.5-.5s-.224-.5-.5-.5h-8.5v-4.5c0-1.93 1.57-3.5 3.5-3.5h15c1.93 0 3.5 1.57 3.5 3.5v3c0 .276.224.5.5.5s.5-.224.5-.5v-3c0-2.481-2.019-4.5-4.5-4.5zm-9-3h3c1.758 0 3.204 1.308 3.449 3h-9.898c.245-1.692 1.691-3 3.449-3zm13.486 15.431c-.035-.47-.226-.929-.58-1.283l-1.415-1.415c-.473-.473-1.1-.732-1.768-.732h-5.447c-.668 0-1.295.26-1.768.732l-1.415 1.415c-.38.381-.576.892-.584 1.399-.006.484.154.973.495 1.371l5.633 5.927c.095.099.226.155.362.155s.268-.057.362-.155l5.65-5.946c.354-.418.522-.954.473-1.468zm-2.702-1.991 1.415 1.415c.043.043.065.097.099.146h-2.489l-1-2h.915c.395 0 .781.16 1.061.439zm-5.5 2.561h3.466l-1.746 4.191zm.054-1 .974-2h1.379l1 2zm-2.122-1.561c.279-.279.666-.439 1.061-.439h.924l-.975 2h-2.524c.034-.048.055-.103.098-.146l1.415-1.415zm-1.61 2.561h2.597l2.044 4.982-4.5-4.734c-.064-.075-.102-.162-.141-.248zm6.156 4.973 2.072-4.973h2.564c-.036.079-.069.161-.127.229z"/></svg>