<svg id="Layer_1" viewBox="0 0 24 24" xmlns="http://www.w3.org/2000/svg" data-name="Layer 1"><path d="m12 17c-1.379 0-2.5 1.122-2.5 2.5s1.121 2.5 2.5 2.5 2.5-1.122 2.5-2.5-1.121-2.5-2.5-2.5zm0 4c-.827 0-1.5-.673-1.5-1.5s.673-1.5 1.5-1.5 1.5.673 1.5 1.5-.673 1.5-1.5 1.5zm7.436 2.255-4.436-7.885v-5.869c0-.815-.397-1.532-1.002-1.989 0-.004.002-.007.002-.011v-7.001c0-.276-.224-.5-.5-.5s-.5.224-.5.5v6.551c-.162-.033-.329-.051-.5-.051h-1c-.171 0-.338.018-.5.051v-6.551c0-.276-.224-.5-.5-.5s-.5.224-.5.5v7s.002.007.002.011c-.605.457-1.002 1.175-1.002 1.989v5.869l-4.436 7.885c-.136.241-.05.545.19.681.236.134.544.053.681-.19l4.357-7.745h4.416l4.357 7.745c.136.243.445.325.681.19.24-.135.326-.44.19-.681zm-5.436-8.255h-4v-5.5c0-.827.673-1.5 1.5-1.5h1c.827 0 1.5.673 1.5 1.5z"/></svg>