<?xml version="1.0" encoding="UTF-8"?>
<svg xmlns="http://www.w3.org/2000/svg" id="Layer_1" data-name="Layer 1" viewBox="0 0 24 24">
  <path d="M23.854,1.146c-.195-.195-.512-.195-.707,0l-5.174,5.174-.837-.842c-1.728-1.688-4.032-1.957-5.734-.673-1.945,1.47-3.74,2.49-5.047,2.873l-3.501,.97c-1.027,.315-1.866,1.015-2.363,1.969C-.005,11.566-.103,12.655,.214,13.683c1.668,5.405,5.896,8.685,11.902,9.233,.15,.014,.3,.021,.45,.021,1.158,0,2.301-.407,3.191-1.148,3.115-2.593,5.03-5.685,5.539-8.94,.273-1.753-.33-3.55-1.613-4.807l-1.006-1.011L23.854,1.854c.195-.195,.195-.512,0-.707ZM15.118,21.02c-.803,.668-1.864,.991-2.91,.9-1.837-.168-3.49-.615-4.942-1.309,2.405-1.14,4.37-2.614,5.929-4.525,.175-.214,.143-.529-.071-.704-.214-.174-.53-.143-.703,.071-1.604,1.967-3.65,3.458-6.233,4.57-1.492-.914-2.721-2.135-3.654-3.634,2.085-.603,4.019-1.618,5.597-2.969,.21-.18,.235-.495,.055-.705-.179-.209-.495-.235-.705-.055-1.529,1.306-3.412,2.289-5.449,2.842-.338-.661-.63-1.363-.863-2.116-.239-.774-.166-1.595,.207-2.309,.373-.715,1.001-1.238,1.757-1.472l3.495-.968c1.152-.337,2.413-1.022,3.549-1.755l9.075,9.075c-.897,1.811-2.29,3.524-4.134,5.06Zm3.863-12.267c1.055,1.032,1.551,2.505,1.327,3.94-.121,.772-.331,1.536-.623,2.285L11.022,6.315c.349-.243,.682-.484,.982-.711,.542-.409,1.157-.61,1.789-.61,.898,0,1.831,.405,2.638,1.194l2.545,2.56s.003,.003,.005,.005Z"/>
</svg>
