<svg id="Layer_1" viewBox="0 0 24 24" xmlns="http://www.w3.org/2000/svg" data-name="Layer 1"><path d="m4.459 4.752c-.752-.752-1.831-.967-2.815-.56-.983.408-1.594 1.323-1.594 2.387v12.921c0 2.481 2.019 4.5 4.5 4.5h12.875c1.073 0 1.994-.615 2.404-1.606s.194-2.078-.564-2.836zm14.445 17.258c-.198.479-.691.989-1.48.989h-12.874c-1.93 0-3.5-1.57-3.5-3.5v-12.92c0-.78.505-1.267.978-1.462.578-.227 1.213-.16 1.725.343l14.805 14.805c.558.559.545 1.268.347 1.746zm4.589-12.309-1.136-1.582c-.504-.701-1.321-1.12-2.186-1.12h-1.187c-.721 0-1.422.296-1.926.812l-1.294 1.326c-.493.505-.765 1.173-.765 1.879v.403c0 .707.272 1.374.765 1.879l.868.89c.504.515 1.206.811 1.925.811h2.092c.926 0 1.775-.467 2.271-1.248l.659-1.037c.592-.933.558-2.116-.087-3.013zm-.757 2.477-.659 1.037c-.312.491-.846.784-1.428.784h-2.092c-.453 0-.894-.186-1.21-.509l-.867-.89c-.31-.318-.481-.737-.481-1.181v-.403c0-.444.171-.863.481-1.181l1.294-1.326c.316-.324.757-.51 1.21-.51h1.187c.543 0 1.057.263 1.373.704l1.137 1.582c.405.563.427 1.307.055 1.893zm-14.422-6.706c.328.336.786.528 1.255.528h1.626c.603 0 1.157-.304 1.48-.813l.646-1.017c.386-.608.364-1.379-.057-1.964l-1.06-1.475c-.329-.458-.861-.73-1.424-.73h-.846c-.469 0-.927.192-1.255.529l-1.181 1.21c-.322.33-.499.765-.499 1.225v.447c0 .46.177.895.499 1.225l.815.836zm-.314-2.508c0-.198.076-.385.214-.526l1.181-1.21c.142-.145.338-.228.54-.228h.846c.242 0 .471.117.612.314l1.06 1.475c.181.251.19.583.024.845l-.646 1.017c-.139.219-.377.35-.637.35h-1.626c-.202 0-.398-.083-.54-.227l-.815-.835c-.138-.142-.214-.329-.214-.526v-.447zm9.309.639c.247.252.59.397.943.397h.94c.454 0 .87-.229 1.112-.611l.333-.525c.29-.457.273-1.036-.042-1.475l-.604-.841c-.248-.343-.647-.548-1.07-.548h-.426c-.353 0-.696.145-.943.397l-.701.719c-.242.248-.375.575-.375.92v.177c0 .346.133.673.375.92l.458.469zm.167-1.566c0-.083.032-.163.09-.222l.701-.718c.06-.061.143-.096.228-.096h.426c.102 0 .199.05.258.132l.604.841c.076.105.08.246.01.355l-.333.525c-.058.092-.159.147-.268.147h-.94c-.085 0-.168-.035-.228-.096l-.458-.469c-.058-.06-.09-.138-.09-.222z"/></svg>