<?xml version="1.0" encoding="UTF-8"?>
<svg xmlns="http://www.w3.org/2000/svg" id="Layer_1" data-name="Layer 1" viewBox="0 0 24 24">
  <path d="M7,14.5c0-.276,.224-.5,.5-.5H15.856l-2.146-2.146c-.195-.195-.195-.512,0-.707s.512-.195,.707,0l2.318,2.318c.259,.259,.335,.644,.195,.98s-.466,.555-.831,.555H7.5c-.276,0-.5-.224-.5-.5Zm9.5,2.5H7.9c-.365,0-.691,.218-.831,.555s-.063,.722,.195,.98l2.318,2.318c.098,.098,.226,.146,.354,.146s.256-.049,.354-.146c.195-.195,.195-.512,0-.707l-2.146-2.146h8.357c.276,0,.5-.224,.5-.5s-.224-.5-.5-.5Zm7.5-10.5v13c0,2.481-2.019,4.5-4.5,4.5H4.5c-2.481,0-4.5-2.019-4.5-4.5V6.5C0,4.019,2.019,2,4.5,2h1.5V.5c0-.276,.224-.5,.5-.5s.5,.224,.5,.5v1.5h10V.5c0-.276,.224-.5,.5-.5s.5,.224,.5,.5v1.5h1.5c2.481,0,4.5,2.019,4.5,4.5ZM1,6.5v1.5H23v-1.5c0-1.93-1.57-3.5-3.5-3.5H4.5c-1.93,0-3.5,1.57-3.5,3.5Zm22,13V9H1v10.5c0,1.93,1.57,3.5,3.5,3.5h15c1.93,0,3.5-1.57,3.5-3.5Z"/>
</svg>
