<svg id="Layer_1" viewBox="0 0 24 24" xmlns="http://www.w3.org/2000/svg" data-name="Layer 1"><path d="m24 13.545c0 .584-.412 1.455-1.546 1.455h-.549l-.517 2.434c-.438 2.066-2.289 3.566-4.402 3.566h-.986v.5c0 1.378-1.121 2.5-2.5 2.5h-8c-1.472 0-2.5-1.028-2.5-2.5v-1.28c0-.925-.331-1.871-.957-2.733-1.029-1.418-1.69-3.121-1.914-4.925-.034-.274.16-.524.435-.558.265-.039.523.161.558.435.203 1.637.802 3.18 1.73 4.461.751 1.034 1.148 2.183 1.148 3.32v1.28c0 1.107.808 1.5 1.5 1.5h8c.827 0 1.5-.673 1.5-1.5v-1c0-.276.224-.5.5-.5h1.486c1.644 0 3.083-1.167 3.424-2.773l.601-2.831c.049-.231.251-.396.487-.396h.956c.438 0 .539-.251.546-.462 0-.858-2.607-6.783-4.015-8.522-1.613-2.154-3.938-3.539-6.557-3.914-.273-.04-.463-.292-.424-.566.04-.275.294-.464.566-.424 2.883.414 5.44 1.937 7.203 4.29 1.374 1.698 4.226 7.862 4.226 9.145zm-12-3.545c0 .552.448 1 1 1s1-.448 1-1-.448-1-1-1-1 .448-1 1zm-5.191 3.727c-.151-.232-.46-.296-.692-.146-.231.151-.296.461-.146.692 1.113 1.708 2.993 2.727 5.029 2.727 3.309 0 6-2.691 6-6 0-2.036-1.02-3.916-2.727-5.029-.232-.149-.541-.085-.692.146-.15.231-.086.541.146.692 1.424.928 2.273 2.495 2.273 4.191 0 2.757-2.243 5-5 5-1.696 0-3.264-.85-4.191-2.273zm1.191-7.727c.552 0 1-.448 1-1s-.448-1-1-1-1 .448-1 1 .448 1 1 1zm-4 0c.552 0 1-.448 1-1s-.448-1-1-1-1 .448-1 1 .448 1 1 1zm-4 0c0-3.309 2.691-6 6-6s6 2.691 6 6-2.691 6-6 6-6-2.691-6-6zm1 0c0 2.757 2.243 5 5 5s5-2.243 5-5-2.243-5-5-5-5 2.243-5 5zm2.646 1.318c-.195.195-.195.512 0 .707.629.629 1.465.975 2.354.975s1.725-.346 2.354-.975c.195-.195.195-.512 0-.707s-.512-.195-.707 0c-.879.88-2.414.88-3.293 0-.195-.195-.512-.195-.707 0zm5.708 6.364c.881-.88 2.412-.88 3.293 0 .195.195.512.195.707 0s.195-.512 0-.707c-1.258-1.258-3.449-1.258-4.707 0-.195.195-.195.512 0 .707s.512.195.707 0z"/></svg>