<svg id="Layer_1" viewBox="0 0 24 24" xmlns="http://www.w3.org/2000/svg" data-name="Layer 1"><path d="m4 15.5c0-.215.138-.406.342-.475l1.263-.421.421-1.263c.066-.199.25-.336.46-.342.206 0 .401.119.479.314l.515 1.29 1.188.425c.201.071.334.263.332.476-.002.214-.14.402-.342.47l-1.263.421-.421 1.263c-.068.204-.26.342-.475.342s-.406-.138-.475-.342l-.421-1.263-1.263-.421c-.204-.068-.342-.26-.342-.475zm2.5-11.5c.276 0 .5-.224.5-.5v-3c0-.276-.224-.5-.5-.5s-.5.224-.5.5v3c0 .276.224.5.5.5zm8 0c.276 0 .5-.224.5-.5v-3c0-.276-.224-.5-.5-.5s-.5.224-.5.5v3c0 .276.224.5.5.5zm-4 0c.276 0 .5-.224.5-.5v-3c0-.276-.224-.5-.5-.5s-.5.224-.5.5v3c0 .276.224.5.5.5zm13.5 9c0 1.654-1.346 3-3 3h-2.173c-.586 2.503-2.468 4.59-5.328 4.917-.239 0-.451-.173-.492-.417-.046-.272.139-.53.41-.576 2.655-.445 4.583-2.726 4.583-5.424v-6c0-.827-.673-1.5-1.5-1.5h-12c-.827 0-1.5.673-1.5 1.5 0 .276-.224.5-.5.5s-.5-.224-.5-.5c0-1.378 1.121-2.5 2.5-2.5h12c1.379 0 2.5 1.122 2.5 2.5v1.5h2c1.654 0 3 1.346 3 3zm-1 0c0-1.103-.897-2-2-2h-2v3.5c0 .168-.007.335-.019.5h2.019c1.103 0 2-.897 2-2zm-9.501 7.917c-.029.003.027 0 0 0zm7.001 2.083h-20c-.276 0-.5.224-.5.5s.224.5.5.5h20c.276 0 .5-.224.5-.5s-.224-.5-.5-.5zm-20.5-7.5c0-.46.233-.873.623-1.105.399-.238.955-.513 1.601-.667-.284-.468-.499-1.007-.633-1.596-.099-.431.032-.877.349-1.193.315-.316.764-.446 1.193-.348.588.134 1.127.349 1.595.633.154-.645.429-1.202.668-1.602.463-.777 1.745-.778 2.21 0 .239.399.513.956.667 1.601.468-.284 1.007-.499 1.595-.633.433-.099.878.032 1.193.348.316.316.447.762.349 1.193-.134.589-.349 1.128-.633 1.596.646.154 1.202.429 1.602.668.39.232.622.646.622 1.104s-.233.873-.623 1.105c-.525.314-1.067.539-1.601.667.284.467.499 1.007.633 1.595.099.432-.032.878-.348 1.194-.316.314-.762.446-1.193.348-.589-.134-1.129-.349-1.596-.633-.128.533-.353 1.075-.668 1.602-.231.389-.645.622-1.104.622s-.873-.233-1.105-.623c-.314-.525-.539-1.067-.667-1.601-.467.284-1.007.499-1.595.633-.435.099-.879-.033-1.194-.348-.315-.316-.446-.763-.348-1.193.134-.589.349-1.129.633-1.596-.533-.128-1.075-.353-1.602-.668-.389-.231-.622-.645-.622-1.104zm1 0c0 .05.014.174.135.246.475.284 1.208.626 2.014.647.197.006.373.126.448.309s.037.392-.099.535c-.556.586-.813 1.331-.933 1.853-.03.135.046.229.08.265.034.034.123.108.266.08.521-.119 1.266-.377 1.852-.933.143-.137.355-.173.535-.099.183.075.303.251.309.448.021.806.363 1.539.646 2.013.073.122.197.136.247.136s.174-.014.246-.135c.284-.475.626-1.208.647-2.014.006-.197.126-.373.309-.448.181-.076.392-.037.535.099.586.556 1.331.813 1.853.933.127.028.229-.046.265-.08.034-.035.11-.13.08-.266-.119-.521-.377-1.266-.933-1.852-.136-.144-.174-.353-.099-.535s.251-.303.448-.309c.806-.021 1.539-.363 2.013-.646.122-.073.136-.197.136-.247s-.014-.174-.135-.246c-.474-.284-1.207-.626-2.013-.648-.197-.006-.373-.127-.448-.309-.075-.183-.037-.393.1-.535.555-.585.812-1.33.932-1.852.03-.135-.046-.23-.081-.265-.033-.034-.128-.109-.264-.08-.521.119-1.267.377-1.853.932-.144.136-.354.173-.535.099-.183-.076-.303-.251-.309-.449-.021-.805-.363-1.539-.646-2.013-.073-.122-.197-.135-.247-.135s-.174.013-.246.134c-.284.475-.626 1.208-.647 2.014-.006.197-.126.373-.309.449-.182.074-.393.037-.535-.099-.586-.555-1.331-.813-1.853-.932-.132-.029-.229.046-.264.08-.035.035-.111.129-.081.265.119.521.377 1.267.932 1.852.137.143.175.353.1.535s-.251.303-.448.309c-.806.022-1.539.364-2.013.647-.122.073-.136.197-.136.247z"/></svg>