<?xml version="1.0" encoding="UTF-8"?>
<svg xmlns="http://www.w3.org/2000/svg" id="Layer_1" data-name="Layer 1" viewBox="0 0 24 24">
  <path d="m8,20.5c0,.5-.144.797-.439,1.093l-2.272,2.272c-.098.098-.226.146-.354.146s-.256-.049-.354-.146c-.195-.195-.195-.512,0-.707l2.158-2.158h-3.239c-1.93,0-3.5-1.57-3.5-3.5v-3c0-1.93,1.57-3.5,3.5-3.5h3c.276,0,.5.224.5.5s-.224.5-.5.5h-3c-1.378,0-2.5,1.121-2.5,2.5v3c0,1.379,1.122,2.5,2.5,2.5h3.175l-2.146-2.146c-.195-.195-.195-.512,0-.707s.512-.195.707,0l2.325,2.325c.269.269.439.528.439,1.028Zm7-1.5v2c0,1.103-.897,2-2,2h-2c-1.103,0-2-.897-2-2v-2c0-1.103.897-2,2-2h2c1.103,0,2,.897,2,2Zm-1,0c0-.552-.448-1-1-1h-2c-.551,0-1,.448-1,1v2c0,.552.449,1,1,1h2c.552,0,1-.448,1-1v-2Zm1-8v2c0,1.103-.897,2-2,2h-2c-1.103,0-2-.897-2-2v-2c0-1.103.897-2,2-2h2c1.103,0,2,.897,2,2Zm-1,0c0-.551-.448-1-1-1h-2c-.551,0-1,.449-1,1v2c0,.552.449,1,1,1h2c.552,0,1-.448,1-1v-2Zm8.506-1.522l-.646-.377c.094-.384.14-.747.14-1.1s-.046-.716-.14-1.101l.646-.376c.347-.202.593-.527.694-.915.103-.388.047-.792-.155-1.137-.202-.346-.526-.593-.914-.695-.386-.101-.79-.047-1.137.155l-.642.374c-.537-.488-1.166-.851-1.853-1.067v-.738c0-.827-.673-1.5-1.5-1.5-.263,0-.521.069-.75.201-.239.138-.321.443-.184.683.138.24.443.32.684.184.316-.183.75.068.75.433v1.12c0,.233.161.436.389.487.772.176,1.472.579,2.021,1.165.159.17.416.207.616.089l.972-.567c.114-.066.246-.086.379-.051.129.034.237.116.305.231.067.116.086.25.052.379-.034.129-.116.237-.231.304l-.979.571c-.201.118-.295.359-.225.582.138.439.202.817.202,1.188s-.064.749-.202,1.187c-.07.223.022.464.225.582l.979.572c.115.067.197.175.231.304.034.129.016.264-.052.379-.067.115-.176.198-.305.231-.128.035-.262.017-.379-.052l-.972-.567c-.2-.117-.457-.082-.616.09-.55.586-1.249.989-2.021,1.165-.228.052-.389.254-.389.487v1.12c0,.364-.434.617-.75.433-.24-.138-.546-.056-.684.184s-.056.545.184.684c.229.131.487.2.75.2.827,0,1.5-.673,1.5-1.5v-.738c.687-.216,1.316-.579,1.853-1.068l.641.374c.348.203.752.257,1.138.156.388-.102.712-.349.914-.695.202-.346.258-.75.155-1.137-.102-.388-.348-.712-.694-.914Zm-5.506-.478h-.5c-.276,0-.5.224-.5.5s.224.5.5.5h.5c1.103,0,2-.897,2-2s-.897-2-2-2h-.5c-.276,0-.5.224-.5.5s.224.5.5.5h.5c.552,0,1,.449,1,1s-.448,1-1,1Zm-2-6v2c0,1.103-.897,2-2,2h-2c-1.103,0-2-.897-2-2v-2c0-1.103.897-2,2-2h2c1.103,0,2,.897,2,2Zm-1,0c0-.551-.448-1-1-1h-2c-.551,0-1,.449-1,1v2c0,.551.449,1,1,1h2c.552,0,1-.449,1-1v-2Z"/>
</svg>
