<svg id="Layer_1" viewBox="0 0 24 24" xmlns="http://www.w3.org/2000/svg" data-name="Layer 1"><path d="m24 11c0 1.654-1.346 3-3 3h-.6c-.763 1.833-2.387 3.706-4.4 4.861v4.639c0 .276-.224.5-.5.5s-.5-.224-.5-.5v-4.147c-.952.405-1.964.648-3 .648-1.055 0-2.064-.239-3-.632v4.13c0 .276-.224.5-.5.5s-.5-.224-.5-.5v-4.625c-1.803-1.03-3.245-2.618-4.054-4.14-.13-.244-.037-.547.207-.676.244-.131.546-.037.676.207 1.25 2.353 4.115 4.735 7.171 4.735h.002c3.424 0 6.603-2.942 7.586-5.669.071-.198.259-.331.47-.331h.941c1.103 0 2-.897 2-2s-.867-2.033-2.013-2c-.255 0-.514-.186-.542-.439-.475-4.31-4.105-7.561-8.445-7.561-6.149 0-7.849 4.175-9.215 7.529-.388.953-.727 1.785-1.131 2.411 2.283-.137 7.616-1.088 11.434-6.721.156-.229.466-.287.694-.134.229.155.289.466.134.694-1.328 1.959-2.83 3.386-4.337 4.425.25.182.423.462.423.795 0 .552-.448 1-1 1-.505 0-.906-.381-.973-.868-3.944 2.087-7.518 1.816-7.573 1.812-.214-.02-.392-.175-.441-.384s.042-.427.225-.54c.602-.369 1.073-1.527 1.619-2.868 1.322-3.245 3.32-8.151 10.142-8.151 4.71 0 8.674 3.426 9.385 8.036 1.5.208 2.615 1.458 2.615 2.964zm-8-1c0-.552-.448-1-1-1s-1 .448-1 1 .448 1 1 1 1-.448 1-1zm-5.915 4c-.506 0-.795.612-.447.98.592.628 1.431 1.02 2.362 1.02s1.77-.392 2.362-1.02c.347-.368.059-.98-.447-.98h-3.831z"/></svg>