<svg id="Layer_1" viewBox="0 0 24 24" xmlns="http://www.w3.org/2000/svg" data-name="Layer 1"><path d="m23.95 18.754c-.416-1.861-2.294-3.063-4.181-2.684-.969.196-1.811.769-2.311 1.571-.472.758-.603 1.66-.371 2.54.475 1.794 1.818 2.365 3.003 2.869.583.248 1.135.482 1.603.844.271.223.717.068.791-.274.344-1.375-.494-2.234-1.049-2.803-.46-.472-.556-.621-.482-.77.015-.01.1-.031.242 0 .63.142 1.385.84 1.623 1.098.111.121.275.178.439.156.163-.024.305-.126.377-.274.339-.691.437-1.733.316-2.273zm-1.007 1.146c-.402-.329-.956-.699-1.529-.828-.606-.138-1.131.071-1.363.543-.396.809.194 1.414.669 1.9.332.34.651.668.782 1.08-.336-.176-.682-.322-1.02-.466-1.115-.474-2.079-.883-2.428-2.204-.441-1.513.9-2.954 2.421-2.926 1.173 0 2.237.806 2.499 1.973.042.188.034.558-.031.928zm-5.237-4.224c.263-.087.292-.447.046-.574l-1.166-.607.968-.566c.214-.125.204-.437-.016-.549l-1.331-.675c-.092-.282-.225-.572-.362-.863-.004-.009-.003-.019-.008-.027-.428-.828.137-1.32.399-1.494.868-.573 1.679-.507 2.476.206l1.472 2.23-.386 1.079c-.104.29.161.578.459.499l1.23-.353c.3-.07.398-.477.23-.719l-2-3.029c.751-1.001.807-2.407.088-3.497l-.264-.4c.264-.938.481-1.137.772-1.636.107-.186.33-.572.059-.982-.264-.399-.802-.508-1.199-.245-.324.214-.552.366-.745.506-.022-.9.04-1.926.096-2.426.043-.389-.155-.752-.507-.924-.354-.174-.768-.109-1.051.168-.538.522-1.138 1.714-1.53 2.58-.48-.897-1.173-2.128-1.476-2.835-.155-.359-.505-.571-.893-.54-.386.03-.697.292-.792.667-.114.446-.188.889-.237 1.33h-1.037c-.043 0-2.339.038-4.46 1.282l-2.891-.781c-.475-.034-.801.469-.576.889l1.233 1.937c-.251.365-.469.775-.658 1.224l-2.138-.052c-.492.079-.683.685-.325 1.031l1.873 1.566c-.069.523-.06 1.403-.057 1.948l-2 .405c-.499.089-.673.715-.292 1.05l2.303 1.221c.013.294.026.946-.03 1.809l-2.067.47c-.455.152-.561.747-.187 1.046l1.876 1.168c-.382 1.721-1.101 3.576-2.457 4.932-.195.195-.195.512 0 .707s.512.195.707 0c3.621-3.621 3.166-10.117 3.146-10.354v-3.5c0-6.901 6.715-6.999 7-7h.979c0 .827.108 1.652.337 2.484-1.239.035-2.266.382-2.696.55-.367.144-.61.49-.62.884-.01.391.214.747.571.908.517.23 1.24.469 1.845.715-1.089.548-1.416 1.743-1.416 2.459 0 1.83.782 3.097 1.611 4.438 1.12 1.813 2.389 3.869 2.389 8.062 0 .276.224.5.5.5s.5-.224.5-.5c0-4.477-1.408-6.755-2.539-8.587-.816-1.322-1.461-2.367-1.461-3.913-.041-.214.157-1.811 1.834-1.767 1.644 1.443 2.746 4.01 2.786 6.11.01.318.243.583.557.632.255.053.535.017.83-.069l.698-.23zm-2.759-5.41-.719-1.089c-.587-.89-2.107-1.452-3.328-1.904-.356-.132-.677-.25-.914-.308.348-.136 1.597-.569 2.976-.467.35.038.634-.337.511-.663-.538-1.551-.625-3.057-.301-4.611.495 1.043 1.295 2.417 1.865 3.542.178.384.767.348.91-.042.364-.914 1.045-2.383 1.559-3.032-.082.91-.131 2.438 0 3.378.042.394.565.574.842.291.309-.297.481-.444.789-.658-.198.34-.445.852-.62 1.614-.031.133-.005.273.07.387l.385.583c.444.672.441 1.55.043 2.205-1.047-.735-2.212-.742-3.327-.005-.328.216-.57.484-.739.78z"/></svg>