<?xml version="1.0" encoding="UTF-8"?>
<svg xmlns="http://www.w3.org/2000/svg" id="Layer_1" data-name="Layer 1" viewBox="0 0 24 24">
  <path d="m21.896,2.103c-1.355-1.356-3.159-2.103-5.077-2.103s-3.722.747-5.078,2.103L2.104,11.742c-1.356,1.356-2.104,3.159-2.104,5.078s.747,3.721,2.104,5.078c1.355,1.356,3.159,2.103,5.077,2.103s3.722-.747,5.078-2.103l9.638-9.639c1.356-1.356,2.104-3.159,2.104-5.078s-.747-3.721-2.104-5.078Zm-.707,9.448l-9.638,9.639c-1.168,1.167-2.72,1.81-4.371,1.81s-3.203-.643-4.37-1.81c-1.168-1.167-1.811-2.72-1.811-4.371s.643-3.203,1.811-4.371L12.448,2.81c1.168-1.167,2.72-1.81,4.371-1.81s3.203.643,4.37,1.81c1.168,1.167,1.811,2.72,1.811,4.371s-.643,3.203-1.811,4.371Zm-1.336-3.405c.195.195.195.512,0,.707l-3,3c-.098.098-.226.146-.354.146s-.256-.049-.354-.146c-.195-.195-.195-.512,0-.707l1.146-1.146-3.293-3.293-1.146,1.146c-.098.098-.226.146-.354.146s-.256-.049-.354-.146c-.195-.195-.195-.512,0-.707l3-3c.195-.195.512-.195.707,0s.195.512,0,.707l-1.146,1.146,3.293,3.293,1.146-1.146c.195-.195.512-.195.707,0Zm-8,8c.195.195.195.512,0,.707l-3,3c-.098.098-.226.146-.354.146s-.256-.049-.354-.146c-.195-.195-.195-.512,0-.707l1.146-1.146-3.293-3.293-1.146,1.146c-.098.098-.226.146-.354.146s-.256-.049-.354-.146c-.195-.195-.195-.512,0-.707l3-3c.195-.195.512-.195.707,0s.195.512,0,.707l-1.146,1.146,3.293,3.293,1.146-1.146c.195-.195.512-.195.707,0Z"/>
</svg>
