<svg id="Layer_1" viewBox="0 0 24 24" xmlns="http://www.w3.org/2000/svg" data-name="Layer 1"><path d="m20.5 8h-.569c-.474-3.777-3.587-6.735-7.431-6.975v-.525c0-.276-.224-.5-.5-.5s-.5.224-.5.5v.525c-3.835.239-6.941 3.185-7.426 6.975h-.574c-.276 0-.5.224-.5.5s.224.5.5.5c0 0 .501-.012.501 0l.743 10.81c.162 2.35 2.134 4.19 4.489 4.19h5.533c2.355 0 4.327-1.841 4.489-4.19l.743-10.81c0-.011.501 0 .501 0 .276 0 .5-.224.5-.5s-.224-.5-.5-.5zm-1.798 5.302c-.615.223-2.079.698-3.392.698-1.213 0-1.967-.241-2.811-.496v-4.504h6.499l-.297 4.302zm.218-5.302h-6.42v-5.975c3.292.234 5.956 2.75 6.42 5.975zm-7.42-5.975v5.975h-6.42c.465-3.224 3.128-5.74 6.42-5.975zm0 6.975v4.232c-.561-.132-1.185-.232-1.983-.232-1.853 0-3.388.62-4.171 1.006l-.346-5.006zm3.267 14h-5.533c-1.832 0-3.365-1.432-3.491-3.259l-.321-4.647c.415-.235 2.074-1.094 4.096-1.094 1.182 0 1.944.232 2.751.479.842.256 1.713.521 3.043.521 1.214 0 2.522-.356 3.317-.616l-.37 5.357c-.126 1.827-1.659 3.259-3.491 3.259zm-3.767-3c0 .552-.448 1-1 1s-1-.448-1-1 .448-1 1-1 1 .448 1 1zm3-3c0 .552-.448 1-1 1s-1-.448-1-1 .448-1 1-1 1 .448 1 1zm2 4c0 .552-.448 1-1 1s-1-.448-1-1 .448-1 1-1 1 .448 1 1z"/></svg>