<?xml version="1.0" encoding="UTF-8"?>
<svg xmlns="http://www.w3.org/2000/svg" id="Layer_1" data-name="Layer 1" viewBox="0 0 24 24">
  <path d="m12,5c1.379,0,2.5-1.122,2.5-2.5s-1.121-2.5-2.5-2.5-2.5,1.122-2.5,2.5,1.121,2.5,2.5,2.5Zm0-4c.827,0,1.5.673,1.5,1.5s-.673,1.5-1.5,1.5-1.5-.673-1.5-1.5.673-1.5,1.5-1.5Zm8.8,17.1c-.102-.076-1.61-1.188-3.8-2.058v-5.042c0-.572-.096-1.133-.284-1.667-.094-.26-.378-.396-.639-.304-.26.092-.396.377-.305.638.151.426.228.875.228,1.333v4.678c-1.214-.395-2.578-.678-4-.678-2.075,0-4.03.602-5.568,1.275L20.354,2.354c.195-.195.195-.512,0-.707s-.512-.195-.707,0l-5.077,5.077c-.776-.467-1.656-.724-2.569-.724-2.757,0-5,2.243-5,5v3.293l-3.854,3.854c-.186.186-.196.483-.024.681.099.113.238.172.378.172.104,0,.21-.033.3-.1.039-.029,3.916-2.9,8.2-2.9s8.161,2.871,8.2,2.9c.223.166.535.12.7-.101.165-.221.12-.534-.101-.7Zm-12.8-7.1c0-2.206,1.794-4,4-4,.647,0,1.272.161,1.838.455l-5.838,5.838v-2.293Zm2,7.5v5c0,.276-.224.5-.5.5s-.5-.224-.5-.5v-5c0-.276.224-.5.5-.5s.5.224.5.5Zm5,0v5c0,.276-.224.5-.5.5s-.5-.224-.5-.5v-5c0-.276.224-.5.5-.5s.5.224.5.5Z"/>
</svg>
