<svg id="Layer_1" viewBox="0 0 24 24" xmlns="http://www.w3.org/2000/svg" data-name="Layer 1"><path d="m19 8.276v-1.276c0-3.86-3.141-7-7-7s-7 3.14-7 7v1.276c-1.742.621-3 2.271-3 4.224v7c0 2.481 2.019 4.5 4.5 4.5h11c2.481 0 4.5-2.019 4.5-4.5v-7c0-1.953-1.258-3.602-3-4.224zm-13-1.276c0-3.309 2.691-6 6-6s6 2.691 6 6v1.051c-.166-.019-.329-.051-.5-.051h-11c-.171 0-.334.032-.5.051zm15 12.5c0 1.93-1.57 3.5-3.5 3.5h-11c-1.93 0-3.5-1.57-3.5-3.5v-7c0-1.93 1.57-3.5 3.5-3.5h11c1.93 0 3.5 1.57 3.5 3.5zm-7-4.992v3c0 .827.673 1.5 1.5 1.5s1.5-.673 1.5-1.5v-.5h-1.5c-.276 0-.5-.224-.5-.5s.224-.5.5-.5h1.5c.552 0 1 .448 1 1v.5c0 1.379-1.121 2.5-2.5 2.5s-2.5-1.121-2.5-2.5v-3c0-1.379 1.121-2.5 2.5-2.5s2.5 1.122 2.5 2.5c0 .276-.224.5-.5.5s-.5-.224-.5-.5c0-.827-.673-1.501-1.5-1.501s-1.5.674-1.5 1.501zm-3 2.992c0 1.379-1.121 2.5-2.5 2.5h-2c-.276 0-.5-.224-.5-.5s.224-.5.5-.5h2c.827 0 1.5-.673 1.5-1.5s-.673-1.5-1.5-1.5h-1.5c-.552 0-1-.448-1-1v-2c0-.551.448-1 1-1h3c.276 0 .5.224.5.5s-.224.5-.5.5h-3v2h1.5c1.379 0 2.5 1.121 2.5 2.5z"/></svg>