<?xml version="1.0" encoding="UTF-8"?>
<svg xmlns="http://www.w3.org/2000/svg" id="Layer_1" data-name="Layer 1" viewBox="0 0 24 24">
  <path d="M22.384,2.046c-1.027-.856-2.372-1.211-3.689-.973l-4.209,.766c-1.073,.195-1.964,.849-2.485,1.736-.521-.888-1.412-1.541-2.485-1.736l-4.209-.766C2.63,.522-.065,2.774,0,5.501v11.652c0,2.175,1.554,4.037,3.694,4.428l6.72,1.222c1.053,.191,2.119,.191,3.172,0l6.72-1.222c2.141-.391,3.694-2.253,3.694-4.428V5.501c0-1.338-.589-2.598-1.616-3.455Zm.616,15.107c0,1.691-1.209,3.14-2.874,3.443l-6.719,1.222c-.301,.055-.604,.085-.907,.105v-4.423c0-.276-.224-.5-.5-.5s-.5,.224-.5,.5v4.423c-.303-.019-.606-.05-.906-.105l-6.72-1.222c-1.665-.304-2.874-1.752-2.874-3.443V5.501c-.056-2.12,2.059-3.875,4.126-3.443l4.209,.766c1.255,.229,2.165,1.319,2.165,2.594v2.083c0,.276,.224,.5,.5,.5s.5-.224,.5-.5v-2.083c0-1.274,.91-2.365,2.165-2.594l4.209-.766c2.072-.431,4.18,1.323,4.126,3.443v11.652Zm-4.664-7.603l-3.289,4.388,2.953,.062c.276,0,.5,.224,.5,.5s-.224,.5-.5,.5h-2.923c-.396,0-.753-.22-.93-.574s-.139-.771,.1-1.088l3.289-4.387-3.036,.049c-.276,0-.5-.224-.5-.5s.224-.5,.5-.5h3.062c.369,0,.702,.205,.867,.536,.165,.33,.13,.72-.093,1.015Zm-5.336,1.949c0,.276-.224,.5-.5,.5h-1c-.276,0-.5-.224-.5-.5s.224-.5,.5-.5h1c.276,0,.5,.224,.5,.5Zm-5.443-3.5c-.938,0-1.527,.877-1.646,1.492l-1.016,4.906c-.142,.631,.853,.843,.979,.203l.228-1.102h2.851l.21,1.094c.052,.272,.316,.447,.585,.397,.271-.052,.449-.314,.397-.585l-.935-4.877c-.148-.76-.764-1.529-1.654-1.529Zm-1.247,4.5l.582-2.812c.039-.203,.285-.688,.665-.688,.398,0,.628,.495,.672,.719l.533,2.781h-2.452Z"/>
</svg>
