<svg id="Layer_1" viewBox="0 0 24 24" xmlns="http://www.w3.org/2000/svg" data-name="Layer 1"><path d="m23.5 21h-9.051c-.199-.978-.971-1.75-1.949-1.949v-3.051h4.5c3.309 0 6-2.691 6-6 0-3.009-2.25-5.564-5.234-5.946-.163-.021-.296-.117-.364-.266-1.058-2.301-3.374-3.788-5.901-3.788-2.811 0-5.291 1.796-6.17 4.469-.047.145-.156.251-.305.298-2.408.756-4.025 2.96-4.025 5.483 0 3.171 2.58 5.75 5.75 5.75h4.75v3.051c-.978.199-1.75.971-1.949 1.949h-9.052c-.276 0-.5.224-.5.5s.224.5.5.5h9.051c.232 1.14 1.242 2 2.449 2s2.217-.86 2.449-2h9.051c.276 0 .5-.224.5-.5s-.224-.5-.5-.5zm-21.5-10.75c0-2.085 1.336-3.905 3.326-4.53.458-.144.806-.486.955-.938.744-2.262 2.841-3.781 5.22-3.781 2.138 0 4.098 1.259 4.993 3.205.212.463.641.777 1.146.841 2.486.317 4.36 2.447 4.36 4.954 0 2.757-2.243 5-5 5h-10.25c-2.619 0-4.75-2.131-4.75-4.75zm10 12.75c-.827 0-1.5-.673-1.5-1.5s.673-1.5 1.5-1.5 1.5.673 1.5 1.5-.673 1.5-1.5 1.5zm-3.109-15.386-1.172 5.562c-.108.484-.544.829-1.027.824-.468.009-.924-.348-1.019-.798l-1.218-5.584c-.069-.317.173-.618.497-.618h.02c.24 0 .448.168.498.403l1.188 5.568c.011.042.054.04.065 0 0 0 .888-4.224 1.169-5.566.05-.236.257-.404.498-.404.323 0 .565.298.498.614zm5.109 1.636c0-1.24-1.009-2.25-2.25-2.25h-.75c-.551 0-1 .448-1 1v5.5c0 .276.224.5.5.5s.5-.224.5-.5v-2h.75c1.241 0 2.25-1.01 2.25-2.25zm-2.25 1.25h-.75v-2.5h.75c.689 0 1.25.561 1.25 1.25s-.561 1.25-1.25 1.25zm3.25 3v-5.812c0-.32.218-.595.528-.669.315-.073.63.075.772.36l1.699 4.292v-4.171c0-.276.224-.5.5-.5s.5.224.5.5v5.812c0 .32-.218.595-.528.669-.305.074-.63-.073-.772-.36l-1.699-4.292v4.171c0 .276-.224.5-.5.5s-.5-.224-.5-.5z"/></svg>