<?xml version="1.0" encoding="UTF-8"?>
<svg xmlns="http://www.w3.org/2000/svg" id="Layer_1" data-name="Layer 1" viewBox="0 0 24 24">
  <path d="m10.935,23.123c.104.255.01.535-.245.64l-.5.201c-.06.024-.124.036-.187.036-.077,0-.154-.018-.224-.053l-.425-.213C7.16,22.638,0,18.546,0,11.935v-5.236c0-2.039,1.3-3.84,3.236-4.482L9.843.025c.102-.033.213-.033.314,0l6.606,2.19c1.936.642,3.236,2.442,3.236,4.482v2.302c0,.276-.224.5-.5.5s-.5-.224-.5-.5v-2.302c0-1.607-1.025-3.027-2.551-3.533l-6.449-2.139L3.551,3.165c-1.525.506-2.551,1.926-2.551,3.533v5.236c0,6.037,6.736,9.873,8.801,10.905l.224.112.231-.094c.256-.104.574.01.679.265Zm13.065-5.623c0,3.584-2.916,6.5-6.5,6.5s-6.5-2.916-6.5-6.5,2.916-6.5,6.5-6.5,6.5,2.916,6.5,6.5Zm-1,0c0-3.032-2.467-5.5-5.5-5.5s-5.5,2.468-5.5,5.5,2.467,5.5,5.5,5.5,5.5-2.468,5.5-5.5Zm-5.5,1.5c.276,0,.5-.224.5-.5v-5c0-.276-.224-.5-.5-.5s-.5.224-.5.5v5c0,.276.224.5.5.5Zm0,1c-.552,0-1,.448-1,1s.448,1,1,1,1-.448,1-1-.448-1-1-1Z"/>
</svg>
