<?xml version="1.0" encoding="UTF-8"?>
<svg xmlns="http://www.w3.org/2000/svg" id="Layer_1" data-name="Layer 1" viewBox="0 0 24 24">
  <path d="M7.5,10.5c0-.276,.224-.5,.5-.5,.551,0,1-.449,1-1v-2h-.5c-.276,0-.5-.224-.5-.5s.224-.5,.5-.5h.5V3.25c0-1.792,1.458-3.25,3.25-3.25,1.448,0,2.734,.972,3.127,2.364,.075,.266-.079,.542-.345,.617-.263,.077-.542-.079-.617-.345-.273-.963-1.163-1.636-2.166-1.636-1.241,0-2.25,1.009-2.25,2.25v2.75h3.5c.276,0,.5,.224,.5,.5s-.224,.5-.5,.5h-3.5v2c0,.364-.098,.706-.269,1h5.769c.276,0,.5,.224,.5,.5s-.224,.5-.5,.5h-7.5c-.276,0-.5-.224-.5-.5ZM19.602,3h-1.602c-.276,0-.5,.224-.5,.5s.224,.5,.5,.5h1.602c1.322,0,2.398,1.076,2.398,2.398,0,.588-.215,1.154-.605,1.594l-7.268,8.176c-.082,.091-.126,.209-.126,.332v6.089l-4-2.546v-3.543c0-.123-.045-.241-.126-.332L2.605,7.992c-.39-.439-.605-1.005-.605-1.594,0-1.322,1.076-2.398,2.398-2.398h1.602c.276,0,.5-.224,.5-.5s-.224-.5-.5-.5h-1.602c-1.874,0-3.398,1.524-3.398,3.398,0,.833,.305,1.635,.858,2.258l7.142,8.034v3.627c0,.171,.087,.33,.231,.422l5,3.183c.082,.052,.175,.078,.269,.078,.385,0,.5-.317,.5-.5v-6.81l7.142-8.034c.554-.623,.858-1.424,.858-2.258,0-1.874-1.524-3.398-3.398-3.398Z"/>
</svg>
