<svg id="Layer_1" viewBox="0 0 24 24" xmlns="http://www.w3.org/2000/svg" data-name="Layer 1"><path d="m12 4c1.103 0 2-.897 2-2s-.897-2-2-2-2 .897-2 2 .897 2 2 2zm0-3c.552 0 1 .449 1 1s-.448 1-1 1-1-.449-1-1 .448-1 1-1zm-3.68 6.968 1.348-1.124c.104-.087.219-.154.332-.227v4.883c0 .276.224.5.5.5s.5-.224.5-.5v-1.5h2v1.5c0 .276.224.5.5.5s.5-.224.5-.5v-4.883c.113.073.228.141.332.227l1.348 1.123c.211.175.526.149.704-.064.177-.212.148-.528-.063-.705l-1.348-1.123c-1.664-1.389-4.281-1.388-5.945 0l-1.348 1.123c-.212.177-.24.492-.063.705.176.212.492.239.704.064zm4.68-1.795v2.828h-2v-2.828c.653-.177 1.347-.177 2 0zm11-.672v10.1c0 2.003-.78 3.887-2.196 5.303l-2.95 2.95c-.195.195-.512.195-.707 0s-.195-.512 0-.707l2.95-2.95c1.228-1.228 1.903-2.859 1.903-4.596v-10.101c0-.827-.673-1.5-1.5-1.5s-1.5.673-1.5 1.5v8c-.03.569-.187 1.139-.584 1.601l-2.639 2.746c-.191.199-.509.205-.707.014-.199-.191-.205-.508-.014-.707l2.616-2.721c.461-.553.43-1.396-.055-1.935-.525-.611-1.52-.662-2.112-.116l-2.729 2.512c-.521.479-.925 1.053-1.229 1.691.291.745.452 1.542.452 2.356v4.56c0 .276-.224.5-.5.5s-.5-.224-.5-.5v-4.56c0-1.533-.647-3.009-1.776-4.047l-2.734-2.516c-.581-.541-1.588-.489-2.107.12-.494.551-.508 1.394-.032 1.96l2.594 2.695c.191.199.186.516-.014.707-.197.192-.517.186-.707-.014l-2.616-2.721c-.412-.476-.564-1.051-.606-1.626v-7.999c0-.827-.673-1.5-1.5-1.5s-1.5.673-1.5 1.5v10.101c0 1.736.676 3.368 1.903 4.596l2.95 2.95c.195.195.195.512 0 .707s-.512.195-.707 0l-2.95-2.95c-1.416-1.416-2.196-3.3-2.196-5.303v-10.101c0-1.378 1.121-2.5 2.5-2.5s2.5 1.122 2.5 2.5v5.997c.391-.294.86-.466 1.359-.494.673-.045 1.306.188 1.803.633l2.739 2.521c.43.395.793.848 1.098 1.336.306-.489.669-.939 1.099-1.336l2.734-2.516c.502-.449 1.142-.678 1.808-.637.5.027.969.199 1.359.494v-5.998c0-1.378 1.121-2.5 2.5-2.5s2.5 1.122 2.5 2.5z"/></svg>