<svg id="Layer_1" viewBox="0 0 24 24" xmlns="http://www.w3.org/2000/svg" data-name="Layer 1"><path d="m3 0c-1.654 0-3 1.346-3 3s1.346 3 3 3 3-1.346 3-3-1.346-3-3-3zm0 5c-1.103 0-2-.897-2-2s.897-2 2-2 2 .897 2 2-.897 2-2 2zm0 3c-1.654 0-3 1.346-3 3s1.346 3 3 3 3-1.346 3-3-1.346-3-3-3zm0 5c-1.103 0-2-.897-2-2s.897-2 2-2 2 .897 2 2-.897 2-2 2zm8-7c1.654 0 3-1.346 3-3s-1.346-3-3-3-3 1.346-3 3 1.346 3 3 3zm0-5c1.103 0 2 .897 2 2s-.897 2-2 2-2-.897-2-2 .897-2 2-2zm-8 15c-1.654 0-3 1.346-3 3s1.346 3 3 3 3-1.346 3-3-1.346-3-3-3zm0 5c-1.103 0-2-.897-2-2s.897-2 2-2 2 .897 2 2-.897 2-2 2zm21 2.542c0 .276-.224.458-.5.458s-.5-.182-.5-.458c0-1.906-1.209-3.612-3.008-4.245l-3.658-1.287c-.2-.07-.334-.26-.334-.472v-5.931c0-.789-.535-1.471-1.244-1.586-.452-.073-.886.046-1.228.336-.336.286-.528.703-.528 1.143v8.875c0 .192-.11.367-.283.45-.176.084-.379.061-.529-.06 0 0-1.655-1.314-1.668-1.326-.606-.562-1.553-.53-2.115.073-.565.604-.534 1.557.064 2.118l1.623 1.517c.326.305.11.852-.336.852-.124 0-.243-.047-.334-.131l-1.642-1.515c-1-.937-1.048-2.518-.106-3.524.925-.991 2.471-1.053 3.479-.158.015.009.846.664.846.664v-7.836c0-.734.321-1.429.881-1.905.561-.477 1.307-.677 2.035-.562 1.188.193 2.084 1.299 2.084 2.573v5.577l3.324 1.17c2.198.773 3.676 2.858 3.676 5.188zm-16-12.542c0-1.654 1.346-3 3-3 .276 0 .5.224.5.5s-.224.5-.5.5c-1.103 0-2 .897-2 2 0 .634.292 1.218.802 1.6.221.166.266.479.101.7-.167.222-.481.265-.7.101-.753-.565-1.202-1.462-1.202-2.4z"/></svg>