<?xml version="1.0" encoding="UTF-8"?>
<svg xmlns="http://www.w3.org/2000/svg" id="Layer_1" data-name="Layer 1" viewBox="0 0 24 24">
  <path d="M23.854,23.146l-2.853-2.853c.616-.77,1-1.733,1-2.793,0-2.481-2.019-4.5-4.5-4.5s-4.5,2.019-4.5,4.5,2.019,4.5,4.5,4.5c1.06,0,2.023-.384,2.793-1l2.853,2.853c.195,.195,.512,.195,.707,0s.195-.512,0-.707Zm-6.354-2.146c-1.93,0-3.5-1.57-3.5-3.5s1.57-3.5,3.5-3.5,3.5,1.57,3.5,3.5-1.57,3.5-3.5,3.5ZM8,7v-3C8,1.794,6.206,0,4,0S0,1.794,0,4v3c0,2.206,1.794,4,4,4s4-1.794,4-4Zm-4,3c-1.654,0-3-1.346-3-3v-3c0-1.654,1.346-3,3-3s3,1.346,3,3v3c0,1.654-1.346,3-3,3ZM10.202,3.798c-.195-.195-.195-.512,0-.707L13.146,.146c.144-.144,.358-.186,.545-.108,.187,.077,.309,.26,.309,.462V9.5c0,.276-.224,.5-.5,.5s-.5-.224-.5-.5V1.707l-2.091,2.091c-.195,.195-.512,.195-.707,0ZM4,13.5v10c0,.276-.224,.5-.5,.5s-.5-.224-.5-.5V14.707l-2.091,2.091c-.195,.195-.512,.195-.707,0s-.195-.512,0-.707l2.944-2.944c.143-.144,.357-.186,.545-.108,.187,.077,.309,.26,.309,.462Zm8.85,8.592c.197,.193,.2,.51,.007,.707-.758,.774-1.773,1.201-2.857,1.201-2.206,0-4-1.794-4-4v-3c0-2.206,1.794-4,4-4,.728,0,1.441,.198,2.062,.572,.236,.143,.312,.45,.17,.687-.143,.236-.45,.312-.687,.17-.464-.28-.999-.428-1.545-.428-1.654,0-3,1.346-3,3v3c0,1.654,1.346,3,3,3,.813,0,1.574-.32,2.143-.901,.193-.196,.51-.201,.707-.007Z"/>
</svg>
