<svg id="Layer_1" viewBox="0 0 24 24" xmlns="http://www.w3.org/2000/svg" data-name="Layer 1"><path d="m21.5 0h-11c-1.378 0-2.5 1.122-2.5 2.5v5c0 1.378 1.122 2.5 2.5 2.5h11c1.378 0 2.5-1.122 2.5-2.5v-5c0-1.378-1.122-2.5-2.5-2.5zm1.5 7.5c0 .827-.673 1.5-1.5 1.5h-11c-.827 0-1.5-.673-1.5-1.5v-5c0-.827.673-1.5 1.5-1.5h11c.827 0 1.5.673 1.5 1.5zm-11-4.5c0 .552-.448 1-1 1s-1-.448-1-1 .448-1 1-1 1 .448 1 1zm0 4c0 .552-.448 1-1 1s-1-.448-1-1 .448-1 1-1 1 .448 1 1zm10-4c0 .552-.448 1-1 1s-1-.448-1-1 .448-1 1-1 1 .448 1 1zm0 4c0 .552-.448 1-1 1s-1-.448-1-1 .448-1 1-1 1 .448 1 1zm-6-5c-1.654 0-3 1.346-3 3s1.346 3 3 3 3-1.346 3-3-1.346-3-3-3zm0 5c-1.103 0-2-.897-2-2s.897-2 2-2 2 .897 2 2-.897 2-2 2zm6 12.051v-6.551c0-.276-.224-.5-.5-.5s-.5.224-.5.5v6.5h-5.5c-.133 0-.26.053-.354.146l-.854.854h-4.586l-.854-.854c-.094-.094-.221-.146-.354-.146h-5.498v-8.5c0-1.598 1.079-2.992 2.625-3.39.268-.069.429-.341.36-.609-.069-.267-.344-.427-.609-.36-1.987.512-3.375 2.304-3.375 4.358v8.551c-1.14.232-2 1.242-2 2.449 0 1.378 1.122 2.5 2.5 2.5h18.999c1.378 0 2.5-1.122 2.5-2.5 0-1.207-.86-2.217-2-2.449zm-.5 3.949h-19c-.827 0-1.5-.673-1.5-1.5s.673-1.5 1.5-1.5h5.793l.854.854c.094.094.221.146.354.146h5c.133 0 .26-.053.354-.146l.854-.854h5.793c.827 0 1.5.673 1.5 1.5s-.673 1.5-1.5 1.5z"/></svg>