<svg id="Layer_1" viewBox="0 0 24 24" xmlns="http://www.w3.org/2000/svg" data-name="Layer 1"><path d="m22.134 8.199c-.665-.763-1.626-1.199-2.637-1.199h-6.259l.268-3h2.906c.843 0 1.534-.262 1.967-.481.474-.241.715-.766.588-1.277-.33-1.319-1.511-2.241-2.871-2.241h-.547c-1.173 0-2.236.693-2.707 1.766-.1.226-.167.477-.213.813l-.395 4.421h-4.448l-.369-3.445c-.043-.312-.11-.563-.209-.788-.472-1.073-1.535-1.767-2.708-1.767h-.596c-1.36 0-2.541.922-2.871 2.241-.127.512.114 1.036.588 1.278.433.219 1.124.48 1.967.48h2.979l.214 2h-.781c-1.654 0-3 1.346-3 3v9.5c0 2.481 2.019 4.5 4.5 4.5h6c1.401 0 2.638-.656 3.464-1.663 2.381-1.949 5.411-7.046 6.003-11.345.139-1.01-.165-2.027-.833-2.793zm-8.512-5.506c.03-.219.073-.386.135-.524.312-.71 1.016-1.169 1.792-1.169h.547c.901 0 1.683.61 1.9 1.483.015.058-.014.115-.07.144-.335.171-.869.373-1.514.373h-2.817zm-10.034 1.307c-.645 0-1.179-.202-1.514-.372-.057-.029-.085-.087-.07-.145.218-.873.999-1.483 1.9-1.483h.596c.776 0 1.48.459 1.793 1.17.099.2.145.577.166.83zm.412 8h3.5c.827 0 1.5.673 1.5 1.5v4c0 .827-.673 1.5-1.5 1.5h-3.5zm9.5 11h-6c-1.758 0-3.204-1.308-3.449-3h3.449c1.379 0 2.5-1.121 2.5-2.5v-4c0-1.379-1.121-2.5-2.5-2.5h-3.5v-1c0-1.103.897-2 2-2h11v11.5c0 1.93-1.57 3.5-3.5 3.5zm8.477-12.145c-.417 3.026-2.197 6.622-4.009 8.963.008-.107.032-.209.032-.318v-11.5h1.497c.722 0 1.408.312 1.883.856.479.548.695 1.276.597 1.999z"/></svg>