<?xml version="1.0" encoding="UTF-8"?>
<svg xmlns="http://www.w3.org/2000/svg" id="Layer_1" data-name="Layer 1" viewBox="0 0 24 24">
  <path d="M23.5,23h-3.5c-.137-3.175,1.027-7.344,2.879-11.281,.525-.984-.75-2.1-1.655-1.448-.589,.392-1.155,.897-1.683,1.449,.693-1.368,1.469-2.674,2.282-3.965,.666-.965-.6-2.244-1.568-1.58-2.134,1.34-3.708,2.98-4.889,4.712,1.486-3.577,3.491-6.335,5.39-9.092,.7-.94-.487-2.253-1.494-1.653-3.494,1.901-6.781,5.993-8.424,9.303-1.743-2.864-3.933-5.546-6.026-7.204-.894-.758-2.251,.401-1.645,1.403,1.12,2.01,2.102,3.895,2.949,5.656-1.178-1.29-2.416-2.479-3.342-3.082-.974-.685-2.256,.585-1.556,1.559,1.029,1.554,2.664,4.03,3.935,6.868-.709-.889-1.465-1.653-2.181-2.305-.892-.879-2.42,.264-1.858,1.371,1.169,2.579,3.032,6.769,2.887,9.29H.5c-.276,0-.5,.224-.5,.5s.224,.5,.5,.5H23.5c.276,0,.5-.224,.5-.5s-.224-.5-.5-.5Zm-1.724-11.896c.095-.079,.269,.07,.202,.178-1.698,3.5-2.979,8.108-2.979,10.718v1h-2c-.078-2.614,.266-5.343,.98-7.496,.824-1.463,2.239-3.365,3.797-4.4Zm-.991-4.081c.06-.084,.294,.076,.191,.199-2.799,4.276-5.266,9.354-4.977,15.778h-3c.008-3.649,.521-11.268,7.785-15.977Zm-9.329,3.45c1.451-3.247,4.761-7.537,8.283-9.452,.14-.103,.279,.148,.191,.208l-.589,.852c-2.263,3.263-5.012,7.266-6.091,12.206-.471-1.235-1.087-2.526-1.804-3.801,.003-.005,.007-.008,.01-.014ZM4.064,3.029c.064-.053,.106-.02,.125-.004,3.573,2.832,7.441,8.764,8.673,13.28-.713,2.513-.863,4.79-.863,6.195v.5h-1c.156-5.305-1.992-10.715-6.96-19.843-.012-.022-.041-.072,.025-.128ZM2.051,7.224c-.104-.086,.107-.265,.176-.169,1.433,.934,3.858,3.568,5.375,5.577,1.83,4.469,2.502,7.146,2.398,10.368h-2c.003-.425,0-1.363-.035-1.741-.351-5.619-4.075-11.257-5.915-14.035Zm-.031,6.066c-.085-.185,.151-.338,.277-.211,1.917,1.747,4.161,4.269,4.672,8.277,.039,.456,.032,1.182,.031,1.645h-2v-.5c0-2.415-1.867-6.807-2.98-9.21Z"/>
</svg>
