<?xml version="1.0" encoding="UTF-8"?>
<svg xmlns="http://www.w3.org/2000/svg" id="Layer_1" data-name="Layer 1" viewBox="0 0 24 24">
  <path d="M3.5,5c1.378,0,2.5-1.121,2.5-2.5S4.878,0,3.5,0,1,1.121,1,2.5s1.122,2.5,2.5,2.5ZM3.5,1c.827,0,1.5,.673,1.5,1.5s-.673,1.5-1.5,1.5-1.5-.673-1.5-1.5,.673-1.5,1.5-1.5Zm13.5,4c1.379,0,2.5-1.121,2.5-2.5s-1.121-2.5-2.5-2.5-2.5,1.121-2.5,2.5,1.121,2.5,2.5,2.5Zm0-4c.827,0,1.5,.673,1.5,1.5s-.673,1.5-1.5,1.5-1.5-.673-1.5-1.5,.673-1.5,1.5-1.5Zm-5.5,11h-2.192c-.337,0-.649-.168-.835-.45l-2.761-4.19c-.416-.804-1.246-1.359-2.212-1.359-1.378,0-2.5,1.121-2.5,2.5v6c0,1.208,.86,2.217,2,2.449v6.551c0,.276,.224,.5,.5,.5s.5-.224,.5-.5v-6.551c1.14-.232,2-1.242,2-2.449v-4.885l1.638,2.486c.371,.563,.996,.899,1.67,.899h2.192c.276,0,.5-.224,.5-.5s-.224-.5-.5-.5Zm-6.5,2.5c0,.827-.673,1.5-1.5,1.5s-1.5-.673-1.5-1.5v-6c0-.827,.673-1.5,1.5-1.5,.816-.011,1.497,.708,1.5,1.5v6ZM22.5,0c-.276,0-.5,.224-.5,.5V3.187c0,.263-.106,.521-.293,.707l-2.106,2.106h-5.201l-2.106-2.106c-.186-.187-.293-.444-.293-.707V.5c0-.276-.224-.5-.5-.5s-.5,.224-.5,.5V3.187c0,.526,.213,1.042,.586,1.414l2.414,2.414V23.5c0,.276,.224,.5,.5,.5s.5-.224,.5-.5v-6.5h4v6.5c0,.276,.224,.5,.5,.5s.5-.224,.5-.5V7.015l2.414-2.414c.372-.372,.586-.888,.586-1.414V.5c0-.276-.224-.5-.5-.5Zm-3.5,16h-4V7h4v9Z"/>
</svg>
