<svg id="Layer_1" viewBox="0 0 24 24" xmlns="http://www.w3.org/2000/svg" data-name="Layer 1"><path d="m23 14.5-3.214-2.411-4.265-6.701 2.053-1.095c.36-.192.767-.293 1.176-.293h3.75c.276 0 .5-.224.5-.5s-.224-.5-.5-.5h-3.75c-.573 0-1.143.142-1.646.411l-5.661 3.018c-.849.452-1.567 1.124-2.078 1.941l-1.348 2.159c-.185.295-.502.471-.849.471h-2.668c-.276 0-.5.224-.5.5s.224.5.5.5h2.668c.694 0 1.328-.352 1.696-.941l1.348-2.159c.22-.352.49-.669.795-.946l6.613 10.581c.248.397.38.856.38 1.325v3.64c0 .276.224.5.5.5s.5-.224.5-.5v-3.64c0-.657-.184-1.298-.532-1.855l-1.964-3.142 2.875-1.829 3.021 2.266c.376.282.601.731.601 1.2v5c0 .276.224.5.5.5s.5-.224.5-.5v-5c0-.782-.374-1.53-1-2zm-11.18-7.131c.032-.018 2.816-1.509 2.816-1.509l4.079 6.41-2.742 1.745-4.153-6.645zm-1.32-2.369c1.379 0 2.5-1.122 2.5-2.5s-1.121-2.5-2.5-2.5-2.5 1.122-2.5 2.5 1.121 2.5 2.5 2.5zm0-4c.827 0 1.5.673 1.5 1.5s-.673 1.5-1.5 1.5-1.5-.673-1.5-1.5.673-1.5 1.5-1.5zm-8.5 6c-1.103 0-2 .897-2 2s.897 2 2 2 2-.897 2-2-.897-2-2-2zm0 3c-.552 0-1-.449-1-1s.448-1 1-1 1 .449 1 1-.448 1-1 1z"/></svg>