<svg id="Layer_1" viewBox="0 0 24 24" xmlns="http://www.w3.org/2000/svg" data-name="Layer 1"><path d="m11.998 23.455c.025.274-.178.518-.453.543-.015 0-.03.002-.045.002-.256 0-.474-.195-.498-.455-.234-2.591-2.385-4.545-5.002-4.545s-4.768 1.954-5.002 4.545c-.025.275-.268.471-.543.453-.275-.025-.478-.269-.453-.543.282-3.11 2.86-5.455 5.998-5.455s5.716 2.345 5.998 5.455zm-9.998-11.455c0-2.206 1.794-4 4-4s4 1.794 4 4-1.794 4-4 4-4-1.794-4-4zm1 0c0 1.654 1.346 3 3 3s3-1.346 3-3-1.346-3-3-3-3 1.346-3 3zm21-5.5c0 3.584-2.916 6.5-6.5 6.5s-6.5-2.916-6.5-6.5 2.916-6.5 6.5-6.5 6.5 2.916 6.5 6.5zm-1 0c0-3.033-2.467-5.5-5.5-5.5s-5.5 2.467-5.5 5.5 2.467 5.5 5.5 5.5 5.5-2.467 5.5-5.5zm-2.477.619c.176.382.115.817-.158 1.136l-1.854 1.831c-.266.267-.621.414-.999.415h-.002c-.378 0-.733-.146-1-.413l-1.836-1.8c-.304-.349-.366-.785-.19-1.167s.546-.621.967-.621h1.551v-3c0-.276.224-.5.5-.5s.5.224.5.5v3h1.558c.42 0 .79.237.966.619zm-.889.455-.077-.074h-4.109l-.075.076 1.838 1.801c.081.081.185.124.297.124.112 0 .216-.043.293-.121l.003-.003 1.828-1.802z"/></svg>