<?xml version="1.0" encoding="UTF-8"?>
<svg xmlns="http://www.w3.org/2000/svg" id="Layer_1" data-name="Layer 1" viewBox="0 0 24 24">
  <path d="M.5,4H3.551c.245,1.692,1.691,3,3.449,3s3.204-1.308,3.449-3h13.051c.276,0,.5-.224,.5-.5s-.224-.5-.5-.5H10.449c-.245-1.692-1.691-3-3.449-3S3.796,1.308,3.551,3H.5c-.276,0-.5,.224-.5,.5s.224,.5,.5,.5ZM7,1c1.378,0,2.5,1.121,2.5,2.5s-1.122,2.5-2.5,2.5-2.5-1.121-2.5-2.5,1.122-2.5,2.5-2.5ZM23.5,11.5h-3.051c-.245-1.692-1.691-3-3.449-3s-3.204,1.308-3.449,3H.5c-.276,0-.5,.224-.5,.5s.224,.5,.5,.5H13.551c.245,1.692,1.691,3,3.449,3s3.204-1.308,3.449-3h3.051c.276,0,.5-.224,.5-.5s-.224-.5-.5-.5Zm-6.5,3c-1.378,0-2.5-1.121-2.5-2.5s1.122-2.5,2.5-2.5,2.5,1.121,2.5,2.5-1.122,2.5-2.5,2.5Zm6.5,5.5H10.449c-.245-1.692-1.691-3-3.449-3s-3.204,1.308-3.449,3H.5c-.276,0-.5,.224-.5,.5s.224,.5,.5,.5H3.551c.245,1.692,1.691,3,3.449,3s3.204-1.308,3.449-3h13.051c.276,0,.5-.224,.5-.5s-.224-.5-.5-.5Zm-16.5,3c-1.378,0-2.5-1.121-2.5-2.5s1.122-2.5,2.5-2.5,2.5,1.121,2.5,2.5-1.122,2.5-2.5,2.5Z"/>
</svg>
