<?xml version="1.0" encoding="UTF-8"?>
<svg xmlns="http://www.w3.org/2000/svg" id="Layer_1" data-name="Layer 1" viewBox="0 0 24 24">
  <path d="M9.5,8.5c0-1.378-1.122-2.5-2.5-2.5s-2.5,1.122-2.5,2.5,1.122,2.5,2.5,2.5,2.5-1.122,2.5-2.5Zm-4,0c0-.827,.673-1.5,1.5-1.5s1.5,.673,1.5,1.5-.673,1.5-1.5,1.5-1.5-.673-1.5-1.5Zm18.5,3v4c0,2.481-2.019,4.5-4.5,4.5h-7v3h5c.276,0,.5,.224,.5,.5s-.224,.5-.5,.5H6.5c-.276,0-.5-.224-.5-.5s.224-.5,.5-.5h5v-3H4.5c-2.481,0-4.5-2.019-4.5-4.5V6.5C0,4.019,2.019,2,4.5,2h7c.276,0,.5,.224,.5,.5s-.224,.5-.5,.5H4.5c-1.93,0-3.5,1.57-3.5,3.5V15.5c0,1.93,1.57,3.5,3.5,3.5h15c1.93,0,3.5-1.57,3.5-3.5v-4c0-.276,.224-.5,.5-.5s.5,.224,.5,.5Zm-17,.5c1.995,0,3.712,1.474,3.995,3.429,.04,.273-.15,.526-.423,.566-.268,.039-.528-.149-.566-.424-.212-1.466-1.504-2.571-3.005-2.571s-2.793,1.105-3.005,2.571c-.039,.273-.291,.458-.566,.424-.273-.04-.463-.293-.423-.566,.282-1.955,2-3.429,3.995-3.429ZM23.268,.732c-.472-.472-1.1-.732-1.768-.732h-5.001c-1.378,.002-2.499,1.124-2.499,2.502l.002,7.359c0,.438,.244,.831,.637,1.024,.391,.193,.852,.149,1.201-.119l2.302-1.767h3.358c1.379,0,2.5-1.122,2.5-2.5V2.5c0-.668-.26-1.296-.732-1.768Zm-.268,5.768c0,.827-.673,1.5-1.5,1.5h-3.528c-.11,0-.217,.036-.305,.104l-2.437,1.87c-.108,.071-.218,.017-.229-.112l-.002-7.359c0-.827,.673-1.5,1.499-1.5h5s0-.001,0-.001c.4,0,.777,.156,1.061,.439s.439,.66,.439,1.061V6.5Z"/>
</svg>
