<?xml version="1.0" encoding="UTF-8"?>
<svg xmlns="http://www.w3.org/2000/svg" id="Layer_1" data-name="Layer 1" viewBox="0 0 24 24">
  <path d="M21.893,6.817c-.573-1.845-2.064-3.185-3.893-3.637v-.18c0-.551-.449-1-1-1s-1,.449-1,1H8c0-.551-.449-1-1-1s-1,.449-1,1v.18c-1.829,.452-3.32,1.792-3.893,3.637C.357,12.451,0,18.057,0,19.25c0,1.517,1.233,2.75,2.75,2.75,2.467,0,5.013-5.077,5.786-7.033,.232-.587,.782-.967,1.401-.967h4.126c.619,0,1.169,.38,1.401,.967,.773,1.956,3.319,7.033,5.786,7.033,1.517,0,2.75-1.233,2.75-2.75,0-1.193-.357-6.799-2.107-12.433Zm-.643,14.183c-1.392,0-3.635-3.31-4.856-6.4-.384-.972-1.298-1.6-2.331-1.6h-4.126c-1.032,0-1.947,.628-2.331,1.6-1.222,3.091-3.464,6.4-4.856,6.4-.965,0-1.75-.785-1.75-1.75,0-1.161,.35-6.623,2.062-12.136,.569-1.833,2.331-3.114,4.285-3.114h9.307c1.954,0,3.715,1.28,4.285,3.114,1.712,5.513,2.062,10.975,2.062,12.136,0,.965-.785,1.75-1.75,1.75ZM7,7c-1.103,0-2,.897-2,2s.897,2,2,2,2-.897,2-2-.897-2-2-2Zm0,3c-.551,0-1-.449-1-1s.449-1,1-1,1,.449,1,1-.449,1-1,1Zm10-3c-1.103,0-2,.897-2,2s.897,2,2,2,2-.897,2-2-.897-2-2-2Zm0,3c-.551,0-1-.449-1-1s.449-1,1-1,1,.449,1,1-.449,1-1,1Z"/>
</svg>
