<?xml version="1.0" encoding="UTF-8"?>
<svg xmlns="http://www.w3.org/2000/svg" id="Layer_1" data-name="Layer 1" viewBox="0 0 24 24">
  <path d="M21.5,8c-.797,0-1.535,.418-2,1.04-.465-.622-1.203-1.04-2-1.04-1.379,0-2.5,1.211-2.5,2.7,0,1.916,2.218,4.003,3.171,4.812,.385,.326,.857,.489,1.329,.489s.944-.163,1.329-.489c.953-.808,3.171-2.896,3.171-4.812,0-1.489-1.121-2.7-2.5-2.7Zm-1.317,6.749c-.395,.335-.971,.335-1.365,0-1.362-1.155-2.817-2.825-2.817-4.049,0-.938,.673-1.7,1.5-1.7,.845,0,1.5,.806,1.5,1.5,0,.276,.224,.5,.5,.5s.5-.224,.5-.5c0-.694,.655-1.5,1.5-1.5,.827,0,1.5,.763,1.5,1.7,0,1.224-1.455,2.894-2.817,4.048Zm-12.183-2.749c3.309,0,6-2.691,6-6S11.309,0,8,0,2,2.691,2,6s2.691,6,6,6Zm0-11c2.757,0,5,2.243,5,5s-2.243,5-5,5S3,8.757,3,6,5.243,1,8,1Zm8,21v1.5c0,.276-.224,.5-.5,.5s-.5-.224-.5-.5v-1.5c0-3.86-3.141-7-7-7s-7,3.14-7,7v1.5c0,.276-.224,.5-.5,.5s-.5-.224-.5-.5v-1.5c0-4.411,3.589-8,8-8s8,3.589,8,8Z"/>
</svg>
