<?xml version="1.0" encoding="UTF-8"?>
<svg xmlns="http://www.w3.org/2000/svg" id="Layer_1" data-name="Layer 1" viewBox="0 0 24 24">
  <path d="M19.5,23.5c0,.276-.224,.5-.5,.5H6.056c-2.28,0-4.201-1.708-4.468-3.973L.052,7.003c-.167-.738,.039-1.537,.573-2.143,.182-.207,.497-.228,.706-.044,.207,.183,.227,.499,.044,.706-.32,.363-.443,.842-.339,1.314l.137,1.164h2.826c.276,0,.5,.224,.5,.5s-.224,.5-.5,.5H1.292l1.288,10.91c.208,1.762,1.702,3.09,3.476,3.09h4.651c-1.032-.825-1.706-2.079-1.706-3.5v-2c0-1.097,.399-2.154,1.125-2.976,.183-.208,.498-.227,.706-.044,.207,.183,.227,.499,.044,.706-.564,.64-.875,1.462-.875,2.315v.5h4.5c.276,0,.5,.224,.5,.5s-.224,.5-.5,.5h-4.5v.5c0,1.93,1.57,3.5,3.5,3.5h5.5c.276,0,.5,.224,.5,.5Zm4.5-6v2c0,1.026-.362,2.001-.997,2.796l.851,.851c.195,.195,.195,.512,0,.707s-.512,.195-.707,0L.146,.854C-.049,.658-.049,.342,.146,.146S.658-.049,.854,.146l3.866,3.866h5.838l.228-1.823c.156-1.249,1.223-2.19,2.48-2.19h3.234c.276,0,.5,.224,.5,.5s-.224,.5-.5,.5h-3.234c-.755,0-1.395,.565-1.488,1.314l-.212,1.699h2.934c1.553-.041,2.818,1.538,2.44,3.045l-.765,5.942h3.325c2.481,0,4.5,2.019,4.5,4.5Zm-4.5-3.5h-4.793l4,4h4.293v-.5c0-1.93-1.57-3.5-3.5-3.5Zm-4.334-1l.516-4h-5.975l4,4h1.459Zm-3.726-7.987l-.374,2.987h4.745l.144-1.115c.238-.953-.499-1.883-1.456-1.872h-3.059Zm-5.72,0l2.987,2.987h1.352l.374-2.987H5.72ZM22.292,21.585c.45-.602,.708-1.325,.708-2.085v-.5h-3.293l2.585,2.585Z"/>
</svg>
