<?xml version="1.0" encoding="UTF-8"?>
<svg xmlns="http://www.w3.org/2000/svg" id="Layer_1" data-name="Layer 1" viewBox="0 0 24 24">
  <path d="M20.096,5.389l-3.484-3.485c-1.229-1.228-2.861-1.904-4.597-1.904H6.5C4.019,0,2,2.019,2,4.5v15c0,2.481,2.019,4.5,4.5,4.5h11c2.481,0,4.5-2.019,4.5-4.5V9.985c0-1.737-.677-3.369-1.904-4.596Zm-.707,.707c.55,.55,.959,1.199,1.232,1.904h-5.121c-.827,0-1.5-.673-1.5-1.5V1.38c.704,.273,1.354,.682,1.904,1.231l3.484,3.485Zm1.611,13.404c0,1.93-1.57,3.5-3.5,3.5H6.5c-1.93,0-3.5-1.57-3.5-3.5V4.5c0-1.93,1.57-3.5,3.5-3.5h5.515c.335,0,.663,.038,.985,.096V6.5c0,1.378,1.121,2.5,2.5,2.5h5.404c.058,.323,.096,.651,.096,.985v9.515Zm-12.127-1.827c-.276,.772-1.022,1.327-1.898,1.327-1.086,0-1.967-.881-1.967-1.967l-.008-2.066c0-1.086,.881-1.967,1.967-1.967,.879,0,1.628,.559,1.901,1.336,.112,.319-.13,.653-.468,.658h-.004c-.21,.003-.405-.123-.475-.322-.137-.395-.513-.672-.955-.672-.533,0-.967,.434-.967,.967l.008,2.063c0,.537,.434,.97,.967,.97,.443,0,.821-.279,.957-.666,.069-.195,.26-.319,.466-.319,.341,0,.59,.337,.475,.658Zm5.127-.366c0,1.111-.943,1.693-1.876,1.693-.965,0-1.862-.772-1.961-.86-.206-.183-.225-.498-.042-.705,.182-.206,.498-.228,.705-.044,.192,.169,.801,.608,1.298,.608,.036,0,.876-.008,.876-.693,0-.368-.411-.586-1.09-.9-.735-.342-1.651-.767-1.651-1.783,0-1.055,.901-1.624,1.75-1.624,.769,0,1.653,.671,1.752,.747,.218,.169,.257,.483,.088,.701-.167,.217-.48,.259-.701,.089-.288-.223-.833-.537-1.139-.537-.26,0-.75,.13-.75,.624,0,.352,.405,.565,1.073,.875,.743,.345,1.668,.775,1.668,1.808Zm5.005,0c0,1.111-.943,1.693-1.876,1.693-.965,0-1.862-.772-1.961-.86-.206-.183-.225-.498-.042-.705,.183-.206,.499-.228,.705-.044,.192,.169,.801,.608,1.298,.608,.036,0,.876-.008,.876-.693,0-.368-.412-.586-1.09-.9-.736-.342-1.652-.767-1.652-1.783,0-1.055,.901-1.624,1.75-1.624,.769,0,1.654,.67,1.753,.747,.218,.169,.258,.483,.089,.701-.169,.218-.482,.259-.701,.09-.289-.223-.834-.538-1.141-.538-.26,0-.75,.13-.75,.624,0,.352,.405,.565,1.073,.875,.743,.345,1.669,.774,1.669,1.808Z"/>
</svg>
