<?xml version="1.0" encoding="UTF-8"?>
<svg xmlns="http://www.w3.org/2000/svg" id="Layer_1" data-name="Layer 1" viewBox="0 0 24 24">
  <path d="M20,0H4C1.794,0,0,1.794,0,4v5.802c0,1.198,.627,2.313,1.679,2.981,1.454,.922,2.321,2.499,2.321,4.217v6c0,.552,.449,1,1,1h1c.551,0,1-.448,1-1v-5.764c0-2.683,1.98-4.972,4.507-5.213,1.433-.137,2.8,.316,3.855,1.275,1.041,.946,1.638,2.296,1.638,3.701v6c0,.552,.449,1,1,1h1c.551,0,1-.448,1-1v-6c0-1.718,.868-3.295,2.321-4.217,1.051-.668,1.679-1.783,1.679-2.981V4c0-2.206-1.794-4-4-4Zm3,4h-3V1c1.654,0,3,1.346,3,3Zm-8,0V1h4v3h-4Zm-5,0V1h4v3h-4Zm-5,0V1h4v3H5Zm-1-3v3H1c0-1.654,1.346-3,3-3ZM21.785,11.938c-1.744,1.107-2.785,2.999-2.785,5.062v6h-1v-6c0-1.687-.716-3.306-1.965-4.441-1.119-1.017-2.53-1.56-4.026-1.56-.197,0-.396,.01-.596,.029-3.035,.289-5.413,3.016-5.413,6.208v5.764h-1v-6c0-2.062-1.041-3.954-2.785-5.061-.761-.484-1.215-1.283-1.215-2.137V5H23v4.802c0,.854-.454,1.653-1.215,2.137Z"/>
</svg>
