<svg id="Layer_1" viewBox="0 0 24 24" xmlns="http://www.w3.org/2000/svg" data-name="Layer 1"><path d="m23.5 13c-.276 0-.5.224-.5.5v6c0 1.93-1.57 3.5-3.5 3.5h-15c-1.93 0-3.5-1.57-3.5-3.5v-7c0-.469.097-.932.277-1.359l7.541 7.541c.85.85 1.979 1.318 3.182 1.318s2.332-.468 3.182-1.318l3.172-3.172c.195-.195.195-.512 0-.707s-.512-.195-.707 0l-3.172 3.172c-1.322 1.322-3.627 1.322-4.949 0l-5.525-5.525v-8.95c0-1.378 1.121-2.5 2.5-2.5h5c.276 0 .5-.224.5-.5s-.224-.5-.5-.5h-5c-1.93 0-3.5 1.57-3.5 3.5v4.196l-1.623 1.564c-.875.843-1.377 2.024-1.377 3.24v7c0 2.481 2.019 4.5 4.5 4.5h15c2.481 0 4.5-2.019 4.5-4.5v-6c0-.276-.224-.5-.5-.5zm-20.5-3.916v2.366l-1.177-1.177c.144-.228.976-.986 1.177-1.189zm14.5 3.916c3.584 0 6.5-2.916 6.5-6.5s-2.916-6.5-6.5-6.5-6.5 2.916-6.5 6.5 2.916 6.5 6.5 6.5zm0-12c3.032 0 5.5 2.467 5.5 5.5s-2.468 5.5-5.5 5.5-5.5-2.467-5.5-5.5 2.468-5.5 5.5-5.5zm-2.854 7.646 2.146-2.146-2.146-2.146c-.195-.195-.195-.512 0-.707s.512-.195.707 0l2.146 2.146 2.146-2.146c.195-.195.512-.195.707 0s.195.512 0 .707l-2.146 2.146 2.146 2.146c.195.195.195.512 0 .707s-.512.195-.707 0l-2.146-2.146-2.146 2.146c-.195.195-.512.195-.707 0s-.195-.512 0-.707z"/></svg>