<?xml version="1.0" encoding="UTF-8"?>
<svg xmlns="http://www.w3.org/2000/svg" id="Layer_1" data-name="Layer 1" viewBox="0 0 24 24">
  <path d="M22.251,22.229c1.08-1.086,1.749-2.581,1.749-4.229,0-3.309-2.691-6-6-6-3.308,0-5.999,2.692-6,6,0,3.309,2.691,6,6,6,1.66,0,3.165-.679,4.251-1.771Zm.749-4.229c0,1.198-.441,2.285-1.147,3.147l-7-7c.862-.705,1.948-1.146,3.146-1.146,2.757,0,5,2.243,5,5Zm-10,0c0-1.198,.441-2.285,1.147-3.147l7,7c-.862,.705-1.948,1.146-3.146,1.146-2.757,0-5-2.243-5-5Zm-4-6c3.309,0,6-2.691,6-6S12.309,0,9,0,3,2.691,3,6s2.691,6,6,6Zm0-11c2.757,0,5,2.243,5,5s-2.243,5-5,5-5-2.243-5-5S6.243,1,9,1Zm1.992,13.719c-.049,.272-.311,.453-.579,.405-.465-.082-.94-.124-1.413-.124-4.411,0-8,3.589-8,8v.5c0,.276-.224,.5-.5,.5s-.5-.224-.5-.5v-.5c0-4.962,4.037-9,9-9,.531,0,1.065,.047,1.587,.14,.272,.048,.454,.308,.405,.58Z"/>
</svg>
