<?xml version="1.0" encoding="UTF-8"?>
<svg xmlns="http://www.w3.org/2000/svg" id="Layer_1" data-name="Layer 1" viewBox="0 0 24 24">
  <path d="M2.029,19.029h1.941c1.119,0,2.029-.91,2.029-2.029V8.668L11.195,1.801c.266-.351,.231-.851-.081-1.163-.338-.335-.876-.345-1.226-.024L1.823,8.011c-1.01,.083-1.84,1.005-1.823,2.019v6.971c0,1.119,.91,2.029,2.029,2.029ZM1,10.029c-.01-.552,.475-1.041,1.029-1.029,.125,0,.246-.047,.338-.132L9.643,2.196l-4.542,6.002c-.065,.087-.101,.192-.101,.302v8.5c0,.567-.462,1.029-1.029,1.029h-1.941c-.567,0-1.029-.462-1.029-1.029v-6.971Zm21.177-2.019L14.11,.613c-.349-.321-.887-.312-1.226,.025-.312,.312-.346,.812-.081,1.162l5.196,6.867v8.332c0,1.119,.91,2.029,2.029,2.029h1.941c1.119,0,2.029-.91,2.029-2.029v-6.971c0-1.05-.801-1.915-1.823-2.019Zm.823,8.989c0,.567-.462,1.029-1.029,1.029h-1.941c-.567,0-1.029-.462-1.029-1.029V8.5c0-.109-.035-.215-.102-.302L14.358,2.197l7.274,6.671c.092,.085,.213,.132,.338,.132,.567,0,1.029,.462,1.029,1.029v6.971Zm.879,5.407c.181,.21,.156,.525-.053,.705-.666,.572-1.524,.888-2.417,.888-1.239,0-2.434-.594-3.137-1.494-.703,.9-1.896,1.494-3.136,1.494s-2.434-.594-3.137-1.494c-.703,.9-1.897,1.494-3.136,1.494s-2.434-.594-3.136-1.494c-.703,.9-1.897,1.494-3.137,1.494-.893,0-1.75-.315-2.417-.888-.209-.18-.233-.495-.054-.705,.181-.21,.498-.232,.705-.053,.485,.416,1.112,.646,1.765,.646,1.168,0,2.315-.72,2.668-1.674,.072-.196,.259-.326,.469-.326s.396,.131,.469,.327c.352,.953,1.499,1.673,2.667,1.673s2.314-.72,2.667-1.674c.145-.393,.793-.393,.938,0,.353,.954,1.5,1.674,2.668,1.674s2.314-.72,2.667-1.674c.145-.393,.793-.393,.938,0,.353,.954,1.5,1.674,2.668,1.674,.653,0,1.28-.229,1.765-.646,.211-.18,.526-.156,.705,.053Z"/>
</svg>
