<?xml version="1.0" encoding="UTF-8"?>
<svg xmlns="http://www.w3.org/2000/svg" id="Layer_1" data-name="Layer 1" viewBox="0 0 24 24">
  <path d="M22,20c-.929,0-1.705,.64-1.929,1.5h-1.571c-.827,0-1.5-.673-1.5-1.5v-5.5c0-.276-.224-.5-.5-.5s-.5,.224-.5,.5v5.5c0,1.379,1.122,2.5,2.5,2.5h1.571c.224,.86,1,1.5,1.929,1.5,1.103,0,2-.897,2-2s-.897-2-2-2Zm0,3c-.551,0-1-.448-1-1s.449-1,1-1,1,.448,1,1-.449,1-1,1Zm-9.5-2.929v-5.571c0-.276-.224-.5-.5-.5s-.5,.224-.5,.5v5.571c-.86,.224-1.5,1-1.5,1.929,0,1.103,.897,2,2,2s2-.897,2-2c0-.929-.64-1.705-1.5-1.929Zm-.5,2.929c-.551,0-1-.448-1-1s.449-1,1-1,1,.448,1,1-.449,1-1,1ZM7.5,14c-.276,0-.5,.224-.5,.5v5.5c0,.827-.673,1.5-1.5,1.5h-1.571c-.224-.86-1-1.5-1.929-1.5-1.103,0-2,.897-2,2s.897,2,2,2c.929,0,1.705-.64,1.929-1.5h1.571c1.378,0,2.5-1.121,2.5-2.5v-5.5c0-.276-.224-.5-.5-.5ZM2,23c-.551,0-1-.448-1-1s.449-1,1-1,1,.448,1,1-.449,1-1,1ZM16.735,4.642c-1.299-2.499-3.961-3.906-6.758-3.599-2.164,.24-4.167,1.672-5.228,3.735-.601,1.168-.836,2.333-.721,3.562,.079,.848-.204,1.626-.776,2.135-.796,.709-1.252,1.72-1.252,2.774,0,1.658,1.064,3.099,2.647,3.586,.264,.081,.412,.36,.331,.624-.066,.216-.264,.354-.478,.354-.048,0-.098-.007-.147-.022-2.005-.616-3.353-2.441-3.353-4.541,0-1.339,.579-2.623,1.587-3.521,.332-.296,.494-.769,.445-1.296-.131-1.404,.146-2.788,.827-4.112C5.072,1.963,7.374,.325,9.867,.049c3.229-.349,6.265,1.265,7.755,4.131,.164,.314,.449,.56,.782,.672,2.706,.911,4.596,3.439,4.596,6.148,0,2.417-1.222,4.631-3.268,5.923-.234,.146-.542,.078-.69-.156-.147-.233-.078-.542,.156-.689,1.754-1.107,2.802-3.006,2.802-5.077,0-2.286-1.61-4.425-3.915-5.201-.583-.195-1.063-.606-1.351-1.157Z"/>
</svg>
