<?xml version="1.0" encoding="UTF-8"?>
<svg xmlns="http://www.w3.org/2000/svg" id="Layer_1" data-name="Layer 1" viewBox="0 0 24 24">
  <path d="m12.499,10.025l-.023-8.735,3.675,3.568c.098.095.223.142.349.142.131,0,.261-.051.358-.151.192-.198.188-.515-.01-.707L13.035.439c-.586-.585-1.538-.586-2.118-.003l-3.768,3.707c-.197.193-.199.511-.006.707.193.197.51.199.707.006l3.625-3.567.023,8.736c-3.625.259-6.499,3.284-6.499,6.975,0,3.859,3.141,7,7,7s7-3.141,7-7c0-3.691-2.875-6.717-6.501-6.975Zm-.499,12.975c-3.309,0-6-2.691-6-6s2.691-6,6-6,6,2.691,6,6-2.691,6-6,6Zm2.377-6.197c.386-.404.623-.951.623-1.553,0-1.24-1.01-2.25-2.25-2.25h-.25v-.5c0-.276-.224-.5-.5-.5s-.5.224-.5.5v.5h-.5c-.827,0-1.5.673-1.5,1.5v5c0,.827.673,1.5,1.5,1.5h.5v.5c0,.276.224.5.5.5s.5-.224.5-.5v-.5h.75c1.24,0,2.25-1.01,2.25-2.25,0-.83-.452-1.558-1.123-1.947Zm-3.877-2.303c0-.275.225-.5.5-.5h1.75c.689,0,1.25.561,1.25,1.25s-.561,1.25-1.25,1.25h-2.25v-2Zm2.75,5.5h-2.25c-.275,0-.5-.225-.5-.5v-2h2.75c.689,0,1.25.561,1.25,1.25s-.561,1.25-1.25,1.25Z"/>
</svg>
