<?xml version="1.0" encoding="UTF-8"?>
<svg xmlns="http://www.w3.org/2000/svg" id="Layer_1" data-name="Layer 1" viewBox="0 0 24 24">
  <path d="m23.89,13.541c.007-.026.009-.052.012-.079.059-.48.098-.966.098-1.463,0-3.286-1.33-6.266-3.477-8.435-.012-.012-.021-.027-.034-.038C18.315,1.349,15.312,0,12,0S5.681,1.351,3.508,3.531c-.006.005-.01.013-.016.018C1.335,5.719,0,8.706,0,12c0,.496.04.982.098,1.463.003.027.005.052.012.078.669,5.182,4.648,9.332,9.747,10.256.008,0,.014.007.022.007.004,0,.008-.002.012-.002.686.122,1.388.197,2.108.197s1.422-.075,2.108-.197c.004,0,.008.002.012.002.008,0,.014-.007.022-.007,5.099-.924,9.078-5.074,9.747-10.256Zm-.914-1.051l-3.102-2.187c-.565-.398-.808-1.109-.604-1.77l1.121-3.63c1.624,1.917,2.609,4.393,2.609,7.096,0,.166-.018.327-.025.49ZM15.731,1.665l-2.795,2.031c-.559.407-1.312.407-1.871,0l-2.795-2.031c1.167-.423,2.42-.665,3.731-.665s2.564.242,3.731.665ZM3.609,4.904l1.122,3.63c.204.66-.038,1.372-.604,1.77l-3.102,2.187c-.007-.164-.025-.325-.025-.49,0-2.704.985-5.179,2.609-7.096Zm-.816,13.096h3.707c.691.002,1.299.446,1.51,1.105l1.122,3.502c-2.635-.714-4.88-2.377-6.339-4.607Zm7.467,4.849l-1.298-4.049c-.345-1.074-1.333-1.797-2.461-1.8H2.214c-.532-1.037-.9-2.169-1.079-3.364l3.568-2.515c.92-.648,1.315-1.807.982-2.882l-1.289-4.169c.821-.788,1.765-1.445,2.798-1.949l3.282,2.385c.456.331.989.496,1.523.496s1.067-.166,1.523-.497l3.282-2.384c1.033.505,1.976,1.161,2.797,1.949l-1.288,4.169c-.333,1.076.062,2.234.982,2.883l3.568,2.515c-.179,1.195-.547,2.327-1.079,3.364h-4.287c-1.127.003-2.115.726-2.461,1.8l-1.297,4.048c-.569.091-1.147.151-1.741.151s-1.172-.06-1.741-.151Zm4.61-.241l1.121-3.502c.212-.659.819-1.104,1.51-1.105h3.708c-1.458,2.23-3.703,3.894-6.339,4.607Zm.528-7.823l1.067-3.287c.235-.725-.021-1.513-.637-1.96l-2.797-2.032c-.615-.448-1.443-.449-2.061,0l-2.797,2.032c-.616.448-.872,1.235-.637,1.96l1.067,3.288c.235.725.906,1.211,1.668,1.211h3.457c.762,0,1.433-.487,1.668-1.212Zm-5.842-.309l-1.067-3.288c-.102-.311.009-.65.273-.842l2.797-2.032c.133-.096.287-.145.442-.145s.31.048.442.145l2.797,2.032c.265.192.375.531.273.843l-1.067,3.287c-.102.312-.39.521-.717.521h-3.457c-.327,0-.615-.209-.717-.521Z"/>
</svg>
