<?xml version="1.0" encoding="UTF-8"?>
<svg xmlns="http://www.w3.org/2000/svg" id="Layer_1" data-name="Layer 1" viewBox="0 0 24 24">
  <path d="m16.5,2h-.55c-.232-1.14-1.242-2-2.45-2h-3c-1.208,0-2.217.86-2.45,2h-.55c-2.481,0-4.5,2.019-4.5,4.5v13c0,2.481,2.019,4.5,4.5,4.5h9c2.481,0,4.5-2.019,4.5-4.5V6.5c0-2.481-2.019-4.5-4.5-4.5Zm3.5,17.5c0,1.93-1.57,3.5-3.5,3.5H7.5c-1.93,0-3.5-1.57-3.5-3.5V6.5c0-1.93,1.57-3.5,3.5-3.5h1c.276,0,.5-.224.5-.5,0-.827.673-1.5,1.5-1.5h3c.827,0,1.5.673,1.5,1.5,0,.276.224.5.5.5h1c1.93,0,3.5,1.57,3.5,3.5v13Zm-12-11c0-.276.224-.5.5-.5h3v-3c0-.276.224-.5.5-.5s.5.224.5.5v3h3c.276,0,.5.224.5.5s-.224.5-.5.5h-3v3c0,.276-.224.5-.5.5s-.5-.224-.5-.5v-3h-3c-.276,0-.5-.224-.5-.5Zm9,7c0,.276-.224.5-.5.5H7.5c-.276,0-.5-.224-.5-.5s.224-.5.5-.5h9c.276,0,.5.224.5.5Zm-3,4c0,.276-.224.5-.5.5h-6c-.276,0-.5-.224-.5-.5s.224-.5.5-.5h6c.276,0,.5.224.5.5Z"/>
</svg>
