<?xml version="1.0" encoding="UTF-8"?>
<svg xmlns="http://www.w3.org/2000/svg" id="Layer_1" data-name="Layer 1" viewBox="0 0 24 24">
  <path d="m4.319,3.427c.193.198.189.514-.008.707-.448.438-.862.917-1.229,1.425-.098.135-.25.207-.406.207-.102,0-.204-.031-.292-.095-.224-.162-.274-.475-.112-.698.4-.553.851-1.076,1.34-1.554.199-.193.516-.188.707.008ZM.624,10.231c.033.007.066.01.098.01.233,0,.442-.165.49-.402.123-.614.299-1.222.525-1.806.1-.257-.028-.547-.286-.646-.256-.099-.547.029-.646.286-.247.637-.439,1.3-.573,1.971-.054.271.122.534.393.588Zm6.249,11.503c-.553-.292-1.085-.634-1.583-1.017-.22-.17-.532-.128-.701.091-.168.219-.128.533.091.701.542.418,1.123.792,1.726,1.11.075.039.154.058.233.058.18,0,.353-.097.443-.267.129-.244.035-.547-.209-.676ZM1.019,12.65c-.016-.276-.251-.485-.528-.47-.276.016-.486.252-.47.528.04.684.139,1.367.293,2.03.054.23.259.386.486.386.038,0,.076-.004.114-.013.269-.062.436-.332.373-.601-.142-.607-.232-1.233-.269-1.861Zm1.257,4.497c-.13-.244-.433-.337-.676-.208-.244.129-.337.432-.208.676.319.602.694,1.182,1.113,1.723.099.127.247.194.396.194.107,0,.214-.034.306-.104.218-.169.258-.483.089-.702-.384-.496-.728-1.028-1.02-1.58ZM7.928.708c-.641.231-1.268.52-1.863.859-.24.137-.324.442-.187.682.092.162.261.252.435.252.084,0,.169-.021.247-.065.546-.312,1.12-.576,1.707-.787.26-.094.395-.38.301-.64-.094-.26-.38-.395-.64-.301Zm15.069,14.701c-.26-.094-.545.043-.639.302-.211.588-.475,1.164-.784,1.708-.137.24-.053.545.188.682.078.044.163.065.247.065.174,0,.343-.091.435-.253.339-.595.627-1.223.856-1.866.093-.26-.042-.546-.303-.639Zm-11.624,7.573c-.628-.035-1.254-.125-1.861-.265-.268-.061-.537.106-.6.375-.062.269.105.538.375.6.663.153,1.346.25,2.031.289.009,0,.019,0,.028,0,.263,0,.484-.206.499-.472.016-.276-.195-.512-.471-.527Zm8.509-3.309c-.436.448-.914.862-1.421,1.231-.224.163-.272.475-.11.699.098.134.25.206.404.206.103,0,.205-.031.294-.096.553-.402,1.074-.854,1.55-1.343.192-.198.188-.515-.01-.707-.196-.191-.515-.188-.707.01Zm4.086-7.832C23.637,5.439,18.547.311,12.08.016c-.027-.005-.779,0-1.122.029-.275.023-.479.266-.455.541.022.26.241.457.498.457.014,0,.029,0,.043-.002.298-.025.925-.032.936-.031,6.101.25,10.888,5.175,11.009,11.256-.005.231-.01.463-.03.691-.023.275.18.518.455.541.015.001.029.002.044.002.257,0,.475-.197.497-.457.011-.134.045-.542.013-1.201Zm-5.968.159c0,.276-.224.5-.5.5h-3.571c-.224.86-1,1.5-1.929,1.5-1.103,0-2-.897-2-2,0-.929.64-1.705,1.5-1.929v-4.571c0-.276.224-.5.5-.5s.5.224.5.5v4.571c.699.182,1.247.73,1.429,1.429h3.571c.276,0,.5.224.5.5Zm-5,0c0-.551-.449-1-1-1s-1,.449-1,1,.449,1,1,1,1-.449,1-1Zm2.988,10.255c-.583.227-1.19.405-1.805.529-.271.055-.446.318-.392.589.048.238.257.401.489.401.033,0,.066-.003.1-.01.671-.135,1.334-.33,1.971-.578.257-.1.385-.39.284-.647-.101-.258-.391-.384-.647-.284Z"/>
</svg>
