<?xml version="1.0" encoding="UTF-8"?>
<svg xmlns="http://www.w3.org/2000/svg" id="Layer_1" data-name="Layer 1" viewBox="0 0 24 24">
  <path d="M6.024,5.458c.039-.426,.122-.839,.245-1.234,.087-.279,.397-.42,.667-.309h.002c.239,.099,.364,.363,.287,.609-.102,.326-.171,.667-.204,1.018-.024,.259-.238,.458-.498,.458-.293,0-.525-.25-.499-.542ZM10.747,.675c.06,.256,.308,.418,.568,.379,.224-.034,.452-.054,.685-.054s.462,.02,.685,.054c.26,.04,.508-.123,.568-.379v-.003c.068-.284-.121-.567-.409-.609-.276-.041-.557-.063-.844-.063s-.568,.022-.844,.063c-.288,.042-.476,.326-.41,.609v.003Zm-3.086,2.015c.207,.158,.497,.129,.674-.062,.242-.263,.512-.498,.806-.704,.213-.149,.28-.435,.151-.66l-.011-.019c-.146-.254-.478-.331-.718-.164-.36,.251-.689,.54-.986,.864-.197,.216-.164,.556,.068,.733l.016,.012Zm8.005-.062c.176,.191,.467,.22,.674,.062l.016-.012c.232-.177,.266-.517,.068-.733-.296-.324-.626-.613-.986-.864-.24-.167-.572-.09-.718,.164l-.011,.019c-.13,.226-.062,.511,.151,.66,.294,.206,.564,.441,.806,.704Zm1.313,2.913c.024,.259,.238,.458,.498,.458,.293,0,.525-.25,.499-.542-.039-.426-.122-.839-.245-1.234-.087-.279-.397-.42-.667-.309h-.002c-.239,.099-.364,.363-.287,.609,.102,.326,.171,.667,.204,1.018Zm-4.979,11.458c0,2.757-2.243,5-5,5s-5-2.243-5-5,2.243-5,5-5,5,2.243,5,5Zm-1,0c0-2.206-1.794-4-4-4s-4,1.794-4,4,1.794,4,4,4,4-1.794,4-4Zm9-6.325v-1.175c0-.827-.673-1.5-1.5-1.5h-3c-.827,0-1.5,.673-1.5,1.5v1.175c-.247,.12-.352,.416-.234,.664,.119,.25,.417,.354,.666,.238,.085-.04,.172-.079,.26-.115,.187-.077,.309-.26,.309-.462v-1.5c0-.276,.225-.5,.5-.5h3c.275,0,.5,.224,.5,.5v1.5c0,.202,.121,.384,.308,.461,2.243,.936,3.692,3.11,3.692,5.539,0,1.619-.635,3.137-1.788,4.273-1.153,1.136-2.635,1.725-4.302,1.726-.921-.013-1.846-.255-2.674-.698-.243-.133-.547-.04-.677,.204-.131,.243-.039,.547,.204,.677,.969,.52,2.06,.818,3.237,.818,1.851,0,3.592-.713,4.913-2.015,1.345-1.326,2.086-3.097,2.086-4.985,0-2.722-1.559-5.168-4-6.325Zm-3,10.325c-.553,0-1.086-.11-1.586-.327-.257-.108-.549,.006-.658,.26s.007,.548,.26,.658c.626,.271,1.294,.409,1.984,.409,2.757,0,5-2.243,5-5s-2.243-5-5-5c-.697,0-1.372,.141-2.005,.418-.253,.111-.367,.406-.257,.659,.111,.253,.408,.37,.659,.257,.505-.222,1.044-.334,1.603-.334,2.206,0,4,1.794,4,4s-1.794,4-4,4Zm-3-4c0,1.889-.741,3.659-2.086,4.985-1.32,1.302-3.062,2.015-4.913,2.015C3.219,24,.073,20.866,0,17.137c-.053-2.782,1.507-5.282,3.999-6.461v-1.175c0-.827,.673-1.5,1.5-1.5h3c.827,0,1.5,.673,1.5,1.5v1.175c2.441,1.157,4,3.603,4,6.325Zm-1,0c0-2.429-1.449-4.603-3.692-5.539-.187-.078-.308-.26-.308-.461v-1.5c0-.276-.224-.5-.5-.5h-3c-.276,0-.5,.224-.5,.5v1.5c0,.202-.121,.384-.308,.461-2.29,.955-3.738,3.175-3.691,5.656,.06,3.143,2.767,5.836,5.91,5.882,1.61,.046,3.148-.589,4.301-1.726,1.153-1.137,1.789-2.654,1.789-4.273Z"/>
</svg>
