<svg id="Layer_1" viewBox="0 0 24 24" xmlns="http://www.w3.org/2000/svg" data-name="Layer 1"><path d="m20 6.051v-3.051h1.5c1.379 0 2.5-1.122 2.5-2.5 0-.276-.224-.5-.5-.5s-.5.224-.5.5c0 .827-.673 1.5-1.5 1.5h-20.5v-1.5c0-.276-.224-.5-.5-.5s-.5.224-.5.5v23c0 .276.224.5.5.5s.5-.224.5-.5v-20.5h6v3.051c-2.244.252-4 2.139-4 4.449v9c0 2.481 2.019 4.5 4.5 4.5h12c2.481 0 4.5-2.019 4.5-4.5v-9c0-2.31-1.756-4.197-4-4.449zm-1-3.051v3h-11v-3zm4 16.5c0 1.93-1.57 3.5-3.5 3.5h-12c-1.93 0-3.5-1.57-3.5-3.5v-9c0-1.93 1.57-3.5 3.5-3.5h12c1.93 0 3.5 1.57 3.5 3.5zm-3.5-1.5h-.5v-.5c0-2.864-2.201-5.221-5-5.475v-.525c0-.276-.224-.5-.5-.5s-.5.224-.5.5v.525c-2.799.254-5 2.611-5 5.475v.5h-.5c-.276 0-.5.224-.5.5s.224.5.5.5h12c.276 0 .5-.224.5-.5s-.224-.5-.5-.5zm-10.5-.5c0-2.481 2.019-4.5 4.5-4.5s4.5 2.019 4.5 4.5v.5h-9z"/></svg>