<svg id="Layer_1" viewBox="0 0 24 24" xmlns="http://www.w3.org/2000/svg" data-name="Layer 1"><path d="m13.45 9c.34-.315.543-.732.566-1.187.024-.462-.139-.905-.458-1.248-.646-.694-1.746-.757-2.505-.143-.227.184-.395.417-.534.664-.139-.247-.307-.48-.534-.664-.76-.614-1.86-.55-2.506.144-.318.342-.481.785-.457 1.248.023.454.226.872.566 1.187-1.375-.072-2.617 1.125-2.586 2.503l.004 2.987c-.002.67.257 1.3.729 1.774.473.474 1.102.735 1.771.735h6c1.374 0 2.496-1.117 2.5-2.494l-.005-3.01c-.002-1.376-1.176-2.497-2.553-2.497zm-5.238-1.753c.3-.321.806-.323 1.145-.047.449.363.607 1.152.65 1.734-.558-.094-1.314-.291-1.726-.651-.311-.262-.352-.742-.069-1.037zm1.789 8.753h-2.494c-.402 0-.779-.157-1.062-.441-.284-.284-.439-.663-.438-1.067l-.004-2.989c0-.401.155-.778.439-1.062.283-.284.66-.44 1.061-.44h2.51l-.012 6zm1.681-8.8c.338-.276.845-.274 1.145.047.283.295.242.775-.069 1.037-.411.359-1.167.557-1.724.65.044-.578.203-1.374.649-1.734zm1.825 8.8h-2.506l.012-6.001s.004.001.007.001h2.483c.826 0 1.499.672 1.5 1.498l.004 3.008c-.003.824-.676 1.495-1.5 1.495zm9.993-6.5c.276 0 .5-.224.5-.5v-1.5c0-2.481-2.019-4.5-4.5-4.5h-15c-2.481 0-4.5 2.019-4.5 4.5v9c0 2.481 2.019 4.5 4.5 4.5h15c2.481 0 4.5-2.019 4.5-4.5v-1.5c0-.276-.224-.5-.5-.5-1.379 0-2.5-1.122-2.5-2.5s1.121-2.5 2.5-2.5zm-.5 5.964v1.036c0 1.93-1.57 3.5-3.5 3.5h-15c-1.93 0-3.5-1.57-3.5-3.5v-9c0-1.93 1.57-3.5 3.5-3.5h15c1.93 0 3.5 1.57 3.5 3.5v1.036c-1.694.243-3 1.704-3 3.464s1.306 3.221 3 3.464z"/></svg>