<?xml version="1.0" encoding="UTF-8"?>
<svg xmlns="http://www.w3.org/2000/svg" id="Layer_1" data-name="Layer 1" viewBox="0 0 24 24">
  <path d="M19.5,1.987H4.5C2.019,1.987,0,4.006,0,6.487v11c0,2.481,2.019,4.5,4.5,4.5h15c2.481,0,4.5-2.019,4.5-4.5V6.487c0-2.481-2.019-4.5-4.5-4.5Zm3.5,15.5c0,1.93-1.57,3.5-3.5,3.5H4.5c-1.93,0-3.5-1.57-3.5-3.5V6.487c0-1.93,1.57-3.5,3.5-3.5h15c1.93,0,3.5,1.57,3.5,3.5v11Zm-3-4.987c0,.276-.224,.5-.5,.5H9.5c-.276,0-.5-.224-.5-.5s.224-.5,.5-.5h10c.276,0,.5,.224,.5,.5Zm0,4c0,.276-.224,.5-.5,.5h-2c-.276,0-.5-.224-.5-.5s.224-.5,.5-.5h2c.276,0,.5,.224,.5,.5ZM4,12.5c0-.276,.224-.5,.5-.5h2c.276,0,.5,.224,.5,.5s-.224,.5-.5,.5h-2c-.276,0-.5-.224-.5-.5Zm11,4c0,.276-.224,.5-.5,.5H4.5c-.276,0-.5-.224-.5-.5s.224-.5,.5-.5H14.5c.276,0,.5,.224,.5,.5Z"/>
</svg>
