<svg id="Layer_1" viewBox="0 0 24 24" xmlns="http://www.w3.org/2000/svg" data-name="Layer 1"><path d="m17.5 7h-15c-1.378 0-2.5 1.121-2.5 2.5v1c0 1.208.86 2.217 2 2.449v10.551c0 .276.224.5.5.5s.5-.224.5-.5v-4.5h9v4.5c0 .276.224.5.5.5s.5-.224.5-.5v-4.5h4v4.5c0 .276.224.5.5.5s.5-.224.5-.5v-10.551c1.14-.232 2-1.242 2-2.449v-1c0-1.379-1.121-2.5-2.5-2.5zm-14.5 6h4v5h-4zm5 5v-5h9v5zm11-7.5c0 .827-.673 1.5-1.5 1.5h-15c-.827 0-1.5-.673-1.5-1.5v-1c0-.827.673-1.5 1.5-1.5h15c.827 0 1.5.673 1.5 1.5zm5-6.5c0 1.537-.897 2.955-2.285 3.615-.244.116-.547.015-.667-.237-.118-.25-.012-.548.237-.667 1.042-.494 1.715-1.559 1.715-2.711 0-1.654-1.346-3-3-3-.545 0-1.067.15-1.554.446-.165.103-.378.097-.541-.014-.92-.626-2.222-.549-3.07.217-.191.172-.479.172-.67 0-.794-.717-1.958-.858-2.914-.302-.155.092-.348.092-.503 0-.397-.23-.817-.348-1.249-.348-1.378 0-2.5 1.121-2.5 2.5v1c0 .276-.224.5-.5.5s-.5-.224-.5-.5v-1c0-1.93 1.57-3.5 3.5-3.5.519 0 1.022.117 1.5.35 1.137-.553 2.485-.426 3.5.29 1.08-.763 2.562-.833 3.699-.199.564-.289 1.182-.44 1.801-.44 2.206 0 4 1.794 4 4z"/></svg>