<?xml version="1.0" encoding="UTF-8"?>
<svg xmlns="http://www.w3.org/2000/svg" id="Layer_1" data-name="Layer 1" viewBox="0 0 24 24">
  <path d="M11.5,7.5V.5c0-.276,.224-.5,.5-.5s.5,.224,.5,.5V7.5c0,.276-.224,.5-.5,.5s-.5-.224-.5-.5ZM15.667,2.626c-.26-.091-.545,.045-.639,.305-.092,.261,.045,.547,.305,.639,3.988,1.409,6.667,5.199,6.667,9.431,0,5.514-4.486,10-10,10S2,18.514,2,13c0-4.231,2.679-8.021,6.667-9.431,.26-.092,.397-.378,.305-.639-.091-.26-.377-.396-.638-.305C3.947,4.177,1,8.346,1,13c0,6.065,4.935,11,11,11s11-4.935,11-11c0-4.654-2.947-8.823-7.333-10.374Z"/>
</svg>
