<svg id="Layer_1" viewBox="0 0 24 24" xmlns="http://www.w3.org/2000/svg" data-name="Layer 1"><path d="m21.123 8.594c-.56-.476-1.304-.68-2.035-.561-.642.104-1.192.48-1.568 1-.455-.624-1.186-1.034-2.016-1.034-.821 0-1.544.403-2 1.015-.456-.612-1.179-1.015-2-1.015-.565 0-1.081.195-1.5.512v-5.904c-.001-1.274-.896-2.38-2.085-2.573-.73-.12-1.475.085-2.035.561-.56.477-.881 1.171-.881 1.905v9.929l-1.649 1.572c-1.858 2.002-1.802 5.083.13 7.015l2.839 2.838c.195.195.512.195.707 0s.195-.512 0-.707l-2.839-2.838c-1.55-1.55-1.595-4.022-.126-5.606l2.379-2.266c.584-.582 1.535-.582 2.119.002.005.005.011.011.017.016.273.281.424.652.424 1.046 0 .4-.156.776-.47 1.092l-2.278 2.71c-.178.211-.15.526.062.704.21.177.526.151.704-.062l2.249-2.678c.262-.262.451-.573.575-.911.442.396 1.02.643 1.659.643.821 0 1.544-.403 2-1.015.456.612 1.179 1.015 2 1.015s1.544-.403 2-1.015c.456.612 1.179 1.015 2 1.015.565 0 1.081-.195 1.5-.512v9.013c0 .276.224.5.5.5s.5-.224.5-.5v-13c0-.734-.321-1.429-.881-1.905zm-12.12 2.921c-.888-.672-2.117-.672-3-.003v-9.012c0-.44.192-.857.529-1.144.341-.29.774-.407 1.227-.336.709.116 1.244.798 1.244 1.587zm4 .985c0 .827-.673 1.5-1.5 1.5s-1.5-.673-1.5-1.5v-2c0-.827.673-1.5 1.5-1.5s1.5.673 1.5 1.5zm4 0c0 .827-.673 1.5-1.5 1.5s-1.5-.673-1.5-1.5v-2c0-.827.673-1.5 1.5-1.5s1.5.673 1.5 1.5zm4.001 0c0 .827-.673 1.5-1.5 1.5s-1.5-.673-1.5-1.5v-1.893c0-.789.535-1.471 1.244-1.587.451-.07.886.046 1.227.336.337.286.529.703.529 1.144zm-1.001 5.368v5.632c0 .276-.224.5-.5.5s-.5-.224-.5-.5v-5.224l-1.096 1.518c-.163.225-.476.271-.698.11-.224-.162-.272-.475-.11-.698l1.373-1.892c.3-.309.667-.381.996-.248.325.135.535.449.535.802zm-4.5 1.632c.276 0 .5-.224.5-.5s-.224-.5-.5-.5h-1v-1c0-.276-.224-.5-.5-.5s-.5.224-.5.5v1h-2v-1c0-.276-.224-.5-.5-.5s-.5.224-.5.5v1h-1c-.276 0-.5.224-.5.5s.224.5.5.5h1v2h-1c-.276 0-.5.224-.5.5s.224.5.5.5h1v1c0 .276.224.5.5.5s.5-.224.5-.5v-1h2v1c0 .276.224.5.5.5s.5-.224.5-.5v-1h1c.276 0 .5-.224.5-.5s-.224-.5-.5-.5h-1v-2zm-2 2h-2v-2h2z"/></svg>