<?xml version="1.0" encoding="UTF-8"?>
<svg xmlns="http://www.w3.org/2000/svg" id="Layer_1" data-name="Layer 1" viewBox="0 0 24 24">
  <path d="M7,15.5c0,.276-.224,.5-.5,.5h-2c-.276,0-.5-.224-.5-.5s.224-.5,.5-.5h2c.276,0,.5,.224,.5,.5Zm-.5,3.5h-2c-.276,0-.5,.224-.5,.5s.224,.5,.5,.5h2c.276,0,.5-.224,.5-.5s-.224-.5-.5-.5Zm4.5-9c0,.552,.448,1,1,1s1-.448,1-1-.448-1-1-1-1,.448-1,1Zm1.99,4.649c-.056,.271-.318,.44-.59,.391-.129-.026-.264-.04-.4-.04-1.103,0-2,.897-2,2v6h1.5c.276,0,.5,.224,.5,.5s-.224,.5-.5,.5H3.5c-1.93,0-3.5-1.57-3.5-3.5V10.5c0-2.481,2.019-4.5,4.5-4.5h5.43l.3-.291c.23-.223,.493-.389,.77-.508V1.727c0-.952,.775-1.727,1.728-1.727,.254,0,.5,.055,.731,.163l2.4,1.124c.421,.259,.641,.655,.641,1.089s-.22,.83-.588,1.059l-3.369,1.619c.446,.098,.873,.313,1.227,.656l.3,.291h5.43c2.054,0,3.847,1.388,4.358,3.375,.068,.267-.092,.54-.359,.609-.042,.011-.084,.016-.125,.016-.223,0-.426-.15-.484-.375-.397-1.545-1.792-2.625-3.39-2.625h-4.397l1.178,1.141c.198,.192,.204,.509,.012,.707-.192,.199-.509,.204-.707,.012l-2.512-2.431c-.604-.584-1.545-.584-2.148,0l-3.415,3.305c-.844,.817-1.955,1.267-3.13,1.267H1v9.5c0,1.378,1.121,2.5,2.5,2.5h5.5v-6c0-1.654,1.346-3,3-3,.205,0,.406,.021,.6,.06,.271,.055,.445,.319,.391,.59Zm-.99-10.444l3.432-1.646c.053-.037,.068-.133,.068-.185,0-.042-.012-.146-.118-.212l-2.347-1.094c-.098-.046-.201-.069-.308-.069-.401,0-.728,.326-.728,.727v2.479ZM1.051,10h3.33c.913,0,1.778-.35,2.435-.985l2.082-2.015H4.5c-1.758,0-3.204,1.308-3.449,3Zm22.949,8.5v2c0,1.93-1.57,3.5-3.5,3.5h-4c-1.93,0-3.5-1.57-3.5-3.5v-2c0-1.391,.822-2.585,2-3.149v-1.851c0-1.93,1.57-3.5,3.5-3.5s3.5,1.57,3.5,3.5v1.851c1.178,.564,2,1.758,2,3.149Zm-8-3.449c.165-.024,.329-.051,.5-.051h4c.171,0,.335,.027,.5,.051v-1.551c0-1.378-1.121-2.5-2.5-2.5s-2.5,1.122-2.5,2.5v1.551Zm7,3.449c0-1.378-1.121-2.5-2.5-2.5h-4c-1.379,0-2.5,1.122-2.5,2.5v2c0,1.378,1.121,2.5,2.5,2.5h4c1.379,0,2.5-1.122,2.5-2.5v-2Zm-4.5,0c-.552,0-1,.448-1,1s.448,1,1,1,1-.448,1-1-.448-1-1-1Z"/>
</svg>
