<svg id="Layer_1" viewBox="0 0 24 24" xmlns="http://www.w3.org/2000/svg" data-name="Layer 1"><path d="m24 17c-.008-3.878-3.142-6.995-7-7-3.796-.004-7.004 3.115-7 7-.047 3.724 3.107 7.027 7 7 3.892.014 7.02-3.225 7-7zm-12.82 1.431 2.398-1.718.747 2.287h-2.974c-.066-.186-.123-.376-.17-.569zm3.25-2.33 2.507-1.797 2.661 1.884-.9 2.812h-3.321l-.946-2.899zm-.744-4.098 2.388 1.691-1.969 1.411-.898-2.75c.153-.125.313-.243.479-.353zm7.133.373-.901 2.813-2.12-1.501 2.427-1.739c.206.132.406.272.594.427zm-.364 4.419 2.357 1.669c-.046.182-.1.361-.162.536h-2.901zm2.545.205c0 .121-.011.239-.018.358l-2.207-1.563.84-2.625c.864 1.04 1.385 2.374 1.385 3.829zm-3.772-5.566-2.293 1.643-2.267-1.605c.717-.304 1.505-.472 2.332-.472.788 0 1.538.157 2.228.434zm-6.816 1.708.84 2.574-2.236 1.602c-.006-.106-.016-.211-.016-.318 0-1.469.532-2.814 1.412-3.858zm-.6 6.858h2.839l.921 2.821c-1.602-.394-2.952-1.429-3.76-2.821zm4.865 2.984-.974-2.984h2.675l-.954 2.978c-.141.01-.281.021-.424.021-.109 0-.215-.011-.323-.016zm1.857-.19.895-2.794h2.76c-.79 1.361-2.098 2.381-3.654 2.794zm5.466-18.29v1.5c0 .276-.224.5-.5.5-1.057 0-2.004.669-2.357 1.663-.092.261-.379.401-.638.304-.261-.092-.396-.378-.304-.638.437-1.234 1.528-2.109 2.799-2.293v-1.036c0-1.93-1.57-3.504-3.5-3.504h-15c-1.93 0-3.5 1.57-3.5 3.5v1.037c1.753.236 3.082 1.718 3.082 3.504 0 1.797-1.346 3.286-3.082 3.512v.947c0 1.93 1.57 3.5 3.5 3.5h3c.276 0 .5.225.5.501s-.224.499-.5.499h-3c-2.481 0-4.5-2.019-4.5-4.5v-1.423c0-.139.058-.271.159-.366.102-.094.24-.146.376-.133h.007c1.404 0 2.54-1.138 2.54-2.537s-1.14-2.541-2.541-2.541c-.276 0-.541-.22-.541-.496v-1.504c0-2.481 2.019-4.5 4.5-4.5l15 .004c2.481 0 4.5 2.019 4.5 4.5z"/></svg>