<?xml version="1.0" encoding="UTF-8"?>
<svg xmlns="http://www.w3.org/2000/svg" id="Layer_1" data-name="Layer 1" viewBox="0 0 24 24">
  <path d="M20,6.738c0-.735-.368-1.412-.984-1.812-.01-.006-.021-.009-.031-.015,.617-.392,1.015-1.06,1.015-1.805,0-.734-.368-1.412-.983-1.812-.616-.399-1.385-.46-2.05-.163l-3.182,1.373c.019-.114,.05-.225,.05-.344,0-.734-.368-1.412-.983-1.812-.617-.401-1.387-.458-2.048-.164L5.28,2.543c-.778,.346-1.28,1.12-1.28,1.972,0,.734,.368,1.412,.983,1.812,.01,.007,.022,.009,.033,.015-.617,.392-1.016,1.06-1.016,1.805,0,.734,.368,1.412,.983,1.812,.01,.007,.022,.008,.032,.015-.617,.392-1.016,1.06-1.016,1.805,0,.734,.368,1.412,.983,1.812,.006,.004,.012,.005,.018,.008-.609,.394-1.001,1.057-1.001,1.796,0,.734,.368,1.412,.983,1.812,.01,.007,.022,.008,.032,.015-.617,.392-1.016,1.06-1.016,1.805,0,.734,.368,1.412,.983,1.812,.356,.231,.765,.349,1.174,.349,.298,0,.597-.062,.879-.187l1.964-.847v1.349c0,1.378,1.121,2.5,2.5,2.5h1c1.379,0,2.5-1.122,2.5-2.5v-1.5c1.103,0,2-.897,2-2v-1.301l1.72-.742c.778-.346,1.28-1.12,1.28-1.972,0-.734-.368-1.412-.983-1.812-.01-.007-.022-.009-.032-.016,.617-.392,1.015-1.06,1.015-1.805,0-.734-.368-1.412-.983-1.812-.006-.004-.012-.005-.018-.008,.608-.393,1.001-1.056,1.001-1.795ZM5.68,3.46L11.204,1.103c.154-.069,.315-.103,.476-.103,.218,0,.434,.063,.627,.189,.336,.218,.528,.572,.528,.973,0,.44-.254,.837-.639,1.029l-5.557,2.38s-.005,.002-.007,.003c-.368,.164-.77,.131-1.104-.086-.336-.218-.528-.572-.528-.973,0-.457,.27-.873,.68-1.055Zm.002,3.63L17.369,2.047c.154-.069,.315-.103,.476-.103,.218,0,.434,.063,.627,.189,.336,.218,.528,.572,.528,.973,0,.457-.27,.873-.682,1.057L6.637,9.203s-.004,.001-.006,.002c-.365,.162-.768,.132-1.103-.086-.336-.218-.528-.573-.528-.973,0-.457,.27-.872,.682-1.056Zm8.318,14.41c0,.827-.673,1.5-1.5,1.5h-1c-.827,0-1.5-.673-1.5-1.5v-1.5h4v1.5Zm2-3.5c0,.551-.448,1-1,1h-3.333l4.333-1.87v.87Zm2.318-2.959l-11.682,5.041s-.004,.001-.006,.002c-.365,.162-.768,.131-1.103-.086-.336-.218-.528-.572-.528-.973,0-.457,.27-.873,.682-1.057l11.687-5.043c.155-.069,.316-.103,.476-.103,.219,0,.435,.064,.628,.189,.336,.218,.528,.572,.528,.973,0,.457-.27,.873-.682,1.056Zm0-3.631l-11.682,5.041s-.004,.001-.006,.002c-.365,.162-.768,.132-1.103-.086-.336-.218-.528-.572-.528-.973,0-.457,.27-.873,.682-1.057l11.688-5.043c.154-.069,.315-.103,.476-.103,.218,0,.434,.063,.627,.189,.336,.218,.528,.573,.528,.973,0,.457-.27,.872-.682,1.056Zm0-3.616L6.637,12.834s-.004,.001-.006,.002c-.365,.162-.768,.131-1.103-.086-.336-.218-.528-.572-.528-.973,0-.457,.27-.873,.682-1.057l11.688-5.043c.154-.069,.315-.103,.476-.103,.218,0,.434,.063,.627,.189,.336,.218,.528,.573,.528,.973,0,.457-.27,.872-.682,1.056Z"/>
</svg>
