<svg id="Layer_1" viewBox="0 0 24 24" xmlns="http://www.w3.org/2000/svg" data-name="Layer 1"><path d="m19.5 9h-3.811l-.436-1.903c-.015-.068-.003-.097.077-.097 1.776 0 3.331-1.237 3.615-2.877.18-1.035-.1-2.083-.767-2.875s-1.644-1.247-2.679-1.247h-7c-1.036 0-2.012.455-2.679 1.248-.667.792-.946 1.84-.767 2.875.284 1.64 1.838 2.877 3.616 2.877.073-.002.095.033.077.097l-.436 1.903h-3.811c-2.481 0-4.5 2.019-4.5 4.5v6c0 2.481 2.019 4.5 4.5 4.5h15c2.481 0 4.5-2.019 4.5-4.5v-6c0-2.481-2.019-4.5-4.5-4.5zm-9.986-2.593c-.206-.259-.514-.407-.844-.407-1.297 0-2.428-.88-2.63-2.048-.131-.754.063-1.486.546-2.06.477-.567 1.174-.892 1.914-.892h7c.739 0 1.437.325 1.913.891.483.574.678 1.306.548 2.061-.203 1.168-1.334 2.048-2.631 2.048-.33 0-.638.148-.844.406-.206.259-.282.592-.208.915l.385 1.679h-5.326l.385-1.679c.074-.322-.001-.655-.208-.914zm5.378 3.593 2.98 13h-11.744l2.98-13h5.785zm-13.892 9.5v-6c0-1.93 1.57-3.5 3.5-3.5h3.582l-2.98 13h-.602c-1.93 0-3.5-1.57-3.5-3.5zm22 0c0 1.93-1.57 3.5-3.5 3.5h-.602l-2.98-13h3.582c1.93 0 3.5 1.57 3.5 3.5z"/></svg>