<svg id="Layer_1" viewBox="0 0 24 24" xmlns="http://www.w3.org/2000/svg" data-name="Layer 1"><path d="m1.891 9.737c.021.056-.038-.045 0 0zm21.61 12.362c-.635 1.172-1.857 1.9-3.191 1.9-.668 0-1.285-.241-1.69-.423-.513-.229-1.405-.781-2.437-1.421-.53-.329-1.08-.669-1.589-.972-.369-.218-.828-.257-1.257-.106-4.026 1.414-7.934 1.927-9.578 1.927-.613 0-.991-.038-1.124-.055-1.642-.203-2.814-1.705-2.611-3.347.19-1.542 1.314-2.513 3.007-2.598.062 0 2.214.067 4.786-.313-1.751-1.505-4.173-3.992-5.926-6.955-.695-1.197-1.294-2.494-1.721-3.88-.394-1.38-.1-2.84.801-4.016.897-1.171 2.273-1.832 3.707-1.834 2.114 0 3.967 1.442 4.499 3.507.357.791.888 1.878 1.493 2.812.3-1.383.34-2.762.331-3.01-.195-1.63.942-3.089 2.593-3.292 1.642-.206 3.148.969 3.351 2.613.017.137.055.518.055 1.128 0 1.33-.352 4.748-1.668 8.374.526.508 1.072 1.01 1.654 1.52.46-1.148.827-2.384.858-2.505.211-1.366 1.533-2.341 2.948-2.118 1.416.216 2.393 1.544 2.178 2.96-.017.109-.072.429-.213.932-.147.524-.807 2.399-1.464 3.856l.746.4c.869.395 1.497 1.068 1.788 1.937.313.934.195 2.02-.326 2.979zm-.623-2.662c-.2-.598-.644-1.067-1.284-1.358l-1.191-.639c-.235-.127-.33-.416-.214-.657.701-1.455 1.466-3.637 1.604-4.127.124-.439.173-.719.187-.813.132-.869-.469-1.687-1.34-1.819-.873-.127-1.683.46-1.817 1.32-.022.14-.588 2.014-1.191 3.348-.065.144-.193.248-.347.282-.153.033-.313-.007-.434-.107-.887-.757-1.689-1.489-2.453-2.238-.142-.14-.187-.349-.118-.534 1.26-3.343 1.718-6.812 1.718-8.329 0-.552-.034-.893-.047-1.006-.136-1.097-1.142-1.869-2.236-1.743-1.096.135-1.851 1.106-1.72 2.211.018.146 0 2.465-.644 4.403-.058.173-.206.301-.385.334-.179.029-.363-.035-.478-.178-.914-1.13-1.73-2.77-2.254-3.945-.45-1.72-1.912-2.815-3.62-2.835-1.112 0-2.146.523-2.851 1.443-.707.922-.939 2.061-.636 3.124.382 1.239.912 2.407 1.528 3.492.686-.044 2.501-.319 4.627-1.513.24-.138.545-.05.681.19.135.241.049.546-.191.681-1.912 1.074-3.59 1.445-4.555 1.573.567.888 1.184 1.713 1.815 2.468.651-.06 2.71-.341 4.46-1.565.229-.157.539-.103.696.124.158.226.103.538-.123.696-1.522 1.064-3.21 1.486-4.241 1.653 1.186 1.3 2.362 2.347 3.28 3.093 1.43-.29 2.901-.732 4.158-1.407.243-.13.545-.039.677.204.131.243.04.546-.204.677-4.224 2.27-10.436 2.069-10.699 2.064-.653.034-1.846.305-2.021 1.722-.135 1.095.646 2.096 1.741 2.231.112.014.452.047 1.002.047 1.576 0 5.339-.498 9.246-1.87.28-.099.569-.147.855-.147.436 0 .865.113 1.243.337.515.306 1.07.649 1.605.981.96.596 1.868 1.157 2.319 1.358.519.232.915.336 1.283.336.966 0 1.852-.527 2.312-1.377.388-.717.482-1.513.256-2.186z"/></svg>