<svg id="Layer_1" viewBox="0 0 24 24" xmlns="http://www.w3.org/2000/svg" data-name="Layer 1"><path d="m20 0c-2.206 0-4 1.794-4 4s1.794 4 4 4 4-1.794 4-4-1.794-4-4-4zm0 7c-1.654 0-3-1.346-3-3s1.346-3 3-3 3 1.346 3 3-1.346 3-3 3zm1.5 3c-.276 0-.5.224-.5.5v1.5h-3v-2c0-.276-.224-.5-.5-.5s-.5.224-.5.5v2h-12v-10h9c.276 0 .5-.224.5-.5s-.224-.5-.5-.5h-9.5c-2.481 0-4.5 2.019-4.5 4.5v14c0 2.481 2.019 4.5 4.5 4.5h13c2.481 0 4.5-2.019 4.5-4.5v-9c0-.276-.224-.5-.5-.5zm-.5 3v3h-3v-3zm0 6.5c0 .171-.027.335-.051.5h-2.949v-3h3zm-4-6.5v10h-12v-10zm-13 3h-3v-3h3zm-3 3.5v-2.5h3v3h-2.949c-.024-.165-.051-.329-.051-.5zm0-7.5v-3h3v3zm0-6.5c0-.171.027-.335.051-.5h2.949v3h-3zm3-3.449v1.949h-2.649c.495-1.033 1.476-1.779 2.649-1.949zm-2.649 18.949h2.649v1.949c-1.173-.17-2.154-.916-2.649-1.949zm16.649 1.949v-1.949h2.649c-.495 1.033-1.476 1.779-2.649 1.949z"/></svg>