<?xml version="1.0" encoding="UTF-8"?>
<svg xmlns="http://www.w3.org/2000/svg" id="Layer_1" data-name="Layer 1" viewBox="0 0 24 24">
  <path d="m12,15c-.276,0-.5-.224-.5-.5v-5c0-.276.224-.5.5-.5s.5.224.5.5v5c0,.276-.224.5-.5.5Zm-3.5-5.854c-.276,0-.5.224-.5.5,0,.617-.37,1.164-.943,1.393l-2.485.994c-.955.382-1.572,1.293-1.572,2.321,0,.276.224.5.5.5s.5-.224.5-.5c0-.617.37-1.164.943-1.393l2.485-.994c.955-.382,1.572-1.293,1.572-2.321,0-.276-.224-.5-.5-.5Zm11.5,5.208c0,.276.224.5.5.5s.5-.224.5-.5c0-1.028-.616-1.939-1.571-2.321l-2.486-.994c-.572-.229-.942-.776-.942-1.393,0-.276-.224-.5-.5-.5s-.5.224-.5.5c0,1.028.616,1.939,1.571,2.321l2.486.994c.572.229.942.776.942,1.393ZM1.5,18c0-1.103.897-2,2-2s2,.897,2,2-.897,2-2,2-2-.897-2-2Zm1,0c0,.551.449,1,1,1s1-.449,1-1-.449-1-1-1-1,.449-1,1ZM10,2c0-1.103.897-2,2-2s2,.897,2,2-.897,2-2,2-2-.897-2-2Zm1,0c0,.551.449,1,1,1s1-.449,1-1-.449-1-1-1-1,.449-1,1Zm9.5,14c1.103,0,2,.897,2,2s-.897,2-2,2-2-.897-2-2,.897-2,2-2Zm0,1c-.552,0-1,.449-1,1s.448,1,1,1,1-.449,1-1-.448-1-1-1Zm3.468,6.323c-.526-1.389-1.92-2.323-3.468-2.323s-2.941.934-3.468,2.323c-.098.258.032.547.291.645.257.098.546-.033.645-.291.38-1.003,1.397-1.677,2.532-1.677s2.152.674,2.532,1.677c.076.2.266.323.468.323.059,0,.119-.01.177-.032.259-.098.389-.387.291-.645Zm-11.968-7.323c1.103,0,2,.897,2,2s-.897,2-2,2-2-.897-2-2,.897-2,2-2Zm-1,2c0,.551.449,1,1,1s1-.449,1-1-.449-1-1-1-1,.449-1,1Zm1,3c-1.548,0-2.941.934-3.468,2.323-.098.258.032.547.291.645.26.098.546-.032.645-.291.38-1.003,1.397-1.677,2.532-1.677s2.152.674,2.532,1.677c.076.2.266.323.468.323.059,0,.119-.01.177-.032.259-.098.389-.387.291-.645-.526-1.389-1.92-2.323-3.468-2.323Zm-8.5,0c-1.548,0-2.941.934-3.468,2.323-.098.258.032.547.291.645.259.098.547-.032.645-.291.38-1.003,1.397-1.677,2.532-1.677s2.152.674,2.532,1.677c.076.2.266.323.468.323.059,0,.119-.01.177-.032.258-.098.388-.387.291-.645-.526-1.389-1.92-2.323-3.468-2.323Zm5.323-13.032c.26.098.546-.032.645-.291.38-1.003,1.397-1.677,2.532-1.677s2.152.674,2.532,1.677c.076.2.266.323.468.323.059,0,.119-.01.177-.032.259-.098.389-.387.291-.645-.526-1.389-1.92-2.323-3.468-2.323s-2.941.934-3.468,2.323c-.098.258.032.547.291.645Z"/>
</svg>
