<?xml version="1.0" encoding="UTF-8"?>
<svg xmlns="http://www.w3.org/2000/svg" id="Layer_1" data-name="Layer 1" viewBox="0 0 24 24">
  <path d="m14,10c0-2.206-1.794-4-4-4s-4,1.794-4,4,1.794,4,4,4,4-1.794,4-4Zm-4,3c-1.654,0-3-1.346-3-3s1.346-3,3-3,3,1.346,3,3-1.346,3-3,3Zm-.003,8.559c-.03.254-.246.441-.496.441-1.042-.122-2.05-.578-2.802-1.311l-3.766-3.685C1.04,15.12,0,12.619,0,9.959S1.04,4.798,2.929,2.916C4.818,1.036,7.33,0,10,0s5.181,1.036,7.07,2.916c2.547,2.536,3.529,6.26,2.564,9.719-.074.266-.354.419-.616.347-.266-.074-.421-.35-.347-.616.868-3.11-.016-6.46-2.307-8.74-1.7-1.692-3.96-2.625-6.364-2.625s-4.665.933-6.365,2.625c-1.699,1.692-2.635,3.941-2.635,6.334s.936,4.642,2.636,6.334l3.762,3.681c.592.576,1.34.933,2.162,1.03.274.032.47.28.438.555Zm11.503-6.559h-7c-1.378,0-2.5,1.121-2.5,2.5v4c0,1.379,1.122,2.5,2.5,2.5h6.5c1.387,0,3-1.092,3-2.5v-4c0-1.379-1.122-2.5-2.5-2.5Zm-7,1h7c.317,0,.61.1.853.268l-3.293,3.292c-.565.566-1.554.566-2.121,0l-3.292-3.292c.242-.168.536-.268.853-.268Zm8.5,5.5c0,.772-1.127,1.5-2,1.5h-6.5c-.827,0-1.5-.673-1.5-1.5v-4c0-.141.026-.274.062-.403l3.17,3.17c.472.473,1.1.732,1.768.732s1.296-.26,1.768-.732l3.17-3.17c.036.129.062.262.062.403v4Z"/>
</svg>
