<svg id="Layer_1" viewBox="0 0 24 24" xmlns="http://www.w3.org/2000/svg" data-name="Layer 1"><path d="m15.499 11.015h2.758c3.044.064 5.912-2.613 5.74-5.692-.1-2.877-2.43-5.207-5.306-5.306-3.084-.177-5.753 2.698-5.692 5.74v2.758c0 1.378 1.122 2.5 2.5 2.5zm-1.5-5.258c-.054-2.495 2.129-4.88 4.658-4.741 2.353.081 4.259 1.988 4.341 4.341.138 2.529-2.245 4.711-4.741 4.658h-2.758c-.827 0-1.5-.673-1.5-1.5zm4.501.243v-2.5c0-.276.224-.5.5-.5s.5.224.5.5v2.5h1v-2.5c0-.276.224-.5.5-.5s.5.224.5.5v4c0 .276-.224.5-.5.5s-.5-.224-.5-.5v-.5h-1c-.551 0-1-.449-1-1zm2.193 9.424c-1.01-1.011-2.77-1.017-3.789-.016l-1.806 1.518c-3.722-1.499-6.427-4.206-8.045-8.053l1.498-1.785c1.049-1.049 1.049-2.756.043-3.756l-1.958-2.544c-1.018-1.018-2.814-.993-3.78-.023l-1.175 1.024c-1.099 1.098-1.705 2.585-1.705 4.187 0 7.749 10.275 18.024 18.024 18.024 1.603 0 3.09-.605 4.21-1.73l.978-1.125c.508-.508.788-1.184.788-1.902s-.28-1.394-.837-1.945zm1.764 5.04-.978 1.125c-.908.91-2.144 1.411-3.479 1.411-7.16 0-17.024-9.864-17.024-17.024 0-1.335.501-2.571 1.387-3.456l1.175-1.025c.336-.336.779-.5 1.215-.5.419 0 .831.152 1.133.452l1.959 2.543c.659.659.659 1.732-.029 2.423l-1.722 2.049c-.119.142-.15.337-.081.508 1.75 4.358 4.779 7.385 9.002 8.998.168.064.36.033.5-.084l2.049-1.722c.011-.009.021-.019.032-.029.639-.639 1.703-.682 2.439.043l2.446 1.874c.659.659.659 1.731-.023 2.416zm-5.458-15.964c0-.276-.224-.5-.5-.5s-.5.224-.5.5-.224.5-.5.5-.5-.224-.5-.5c0-.827.673-1.5 1.5-1.5s1.5.673 1.5 1.5c0 1-.666 1.499-1.2 1.9-.298.224-.521.398-.654.6h1.354c.276 0 .5.224.5.5s-.224.5-.5.5h-2c-.276 0-.5-.224-.5-.5 0-1 .666-1.499 1.2-1.9.511-.383.8-.624.8-1.1z"/></svg>