<svg id="Layer_1" viewBox="0 0 24 24" xmlns="http://www.w3.org/2000/svg" data-name="Layer 1"><path d="m22.5 0c-.827 0-1.5.673-1.5 1.5v6c0 .827.673 1.5 1.5 1.5s1.5-.673 1.5-1.5v-6c0-.827-.673-1.5-1.5-1.5zm.5 7.5c0 .275-.224.5-.5.5s-.5-.225-.5-.5v-6c0-.275.224-.5.5-.5s.5.225.5.5zm-4.5 1.5c.827 0 1.5-.673 1.5-1.5v-4c0-.827-.673-1.5-1.5-1.5s-1.5.673-1.5 1.5v4c0 .827.673 1.5 1.5 1.5zm-.5-5.5c0-.275.224-.5.5-.5s.5.225.5.5v4c0 .275-.224.5-.5.5s-.5-.225-.5-.5zm-3.5 5.5c.827 0 1.5-.673 1.5-1.5v-2c0-.827-.673-1.5-1.5-1.5s-1.5.673-1.5 1.5v2c0 .827.673 1.5 1.5 1.5zm-.5-3.5c0-.275.224-.5.5-.5s.5.225.5.5v2c0 .275-.224.5-.5.5s-.5-.225-.5-.5zm8 13.551v-7.551c0-.276-.224-.5-.5-.5s-.5.224-.5.5v7.5h-5.5c-.133 0-.26.053-.354.146l-.854.854h-4.586l-.854-.854c-.094-.094-.221-.146-.354-.146h-5.498v-8.5c0-1.93 1.57-3.5 3.5-3.5h4c.276 0 .5-.224.5-.5s-.224-.5-.5-.5h-4c-2.481 0-4.5 2.019-4.5 4.5v8.551c-1.14.232-2 1.242-2 2.449 0 1.379 1.122 2.5 2.5 2.5h19c1.378 0 2.5-1.121 2.5-2.5 0-1.208-.86-2.217-2-2.449zm-.5 3.949h-19c-.827 0-1.5-.673-1.5-1.5s.673-1.5 1.5-1.5h5.793l.854.854c.094.094.221.146.354.146h5c.133 0 .26-.053.354-.146l.854-.854h5.793c.827 0 1.5.673 1.5 1.5s-.673 1.5-1.5 1.5z"/></svg>