<svg id="Layer_1" viewBox="0 0 24 24" xmlns="http://www.w3.org/2000/svg" data-name="Layer 1"><path d="m18 12c-3.309 0-6 2.691-6 6s2.691 6 6 6 6-2.691 6-6-2.691-6-6-6zm-2 10.576v-.576c0-1.103.897-2 2-2s2 .897 2 2v.576c-.614.269-1.288.424-2 .424s-1.386-.154-2-.424zm4.998-.6c-.013-1.643-1.351-2.976-2.998-2.976s-2.985 1.333-2.998 2.976c-1.208-.914-2.002-2.348-2.002-3.976 0-2.757 2.243-5 5-5s5 2.243 5 5c0 1.628-.794 3.063-2.002 3.976zm-2.998-7.976c-1.103 0-2 .897-2 2s.897 2 2 2 2-.897 2-2-.897-2-2-2zm0 3c-.552 0-1-.449-1-1s.448-1 1-1 1 .449 1 1-.448 1-1 1zm-6.5 6h-7c-1.93 0-3.5-1.57-3.5-3.5v-7c0-1.93 1.57-3.5 3.5-3.5h10c.895 0 1.745.337 2.396.949.201.188.518.18.707-.021s.18-.518-.021-.707c-.459-.432-1-.745-1.581-.951v-1.769c0-3.584-2.916-6.5-6.5-6.5s-6.501 2.915-6.501 6.499v1.776c-1.742.621-3 2.271-3 4.224v7c0 2.481 2.019 4.5 4.5 4.5h7c.276 0 .5-.224.5-.5s-.224-.5-.5-.5zm-7.5-16.5c0-3.033 2.468-5.5 5.5-5.5s5.5 2.467 5.5 5.5v1.547c-.166-.019-.331-.047-.5-.047h-10c-.171 0-.334.032-.5.051zm5.5 8.5c.276 0 .5.224.5.5v2c0 .276-.224.5-.5.5s-.5-.224-.5-.5v-2c0-.276.224-.5.5-.5z"/></svg>