<?xml version="1.0" encoding="UTF-8"?>
<svg xmlns="http://www.w3.org/2000/svg" id="Layer_1" data-name="Layer 1" viewBox="0 0 24 24">
  <path d="m20,0H4C1.794,0,0,1.794,0,4v1.5c0,.815.397,1.532,1.002,1.989,0,.004-.002.007-.002.011v12c0,2.481,2.019,4.5,4.5,4.5h5c.276,0,.5-.224.5-.5s-.224-.5-.5-.5h-5c-1.93,0-3.5-1.57-3.5-3.5V7.949c.162.033.329.051.5.051h19c.171,0,.338-.018.5-.051v2.551c0,.276.224.5.5.5s.5-.224.5-.5v-3s-.002-.007-.002-.011c.605-.457,1.002-1.175,1.002-1.989v-1.5c0-2.206-1.794-4-4-4Zm3,5.5c0,.827-.673,1.5-1.5,1.5H2.5c-.827,0-1.5-.673-1.5-1.5v-1.5c0-1.654,1.346-3,3-3h16c1.654,0,3,1.346,3,3v1.5Zm-5.5,5.5c-3.584,0-6.5,2.916-6.5,6.5s2.916,6.5,6.5,6.5,6.5-2.916,6.5-6.5-2.916-6.5-6.5-6.5Zm0,12c-3.032,0-5.5-2.467-5.5-5.5s2.468-5.5,5.5-5.5,5.5,2.467,5.5,5.5-2.468,5.5-5.5,5.5Zm2.354-3.854c.195.195.195.512,0,.707-.098.098-.226.146-.354.146s-.256-.049-.354-.146l-2-2c-.094-.094-.146-.221-.146-.354v-3c0-.276.224-.5.5-.5s.5.224.5.5v2.793l1.854,1.854Z"/>
</svg>
