<?xml version="1.0" encoding="UTF-8"?>
<svg xmlns="http://www.w3.org/2000/svg" id="Layer_1" data-name="Layer 1" viewBox="0 0 24 24">
  <path d="M19.5,4h-.551c-.252-2.244-2.139-4-4.449-4H4.5C2.019,0,0,2.019,0,4.5v13.855c-.041,1.276,1.522,2.113,2.562,1.371l3.526-2.351c.409,2.063,2.23,3.625,4.412,3.625h6.849l4.089,2.726c1.04,.742,2.604-.095,2.563-1.371V8.5c0-2.481-2.019-4.5-4.5-4.5ZM2.008,18.894c-.407,.293-1.026-.036-1.008-.539V4.5c0-1.93,1.57-3.5,3.5-3.5H14.5c1.93,0,3.5,1.57,3.5,3.5V12.5c0,1.93-1.57,3.5-3.5,3.5H6.5c-.105-.004-.189,.05-.277,.084l-4.215,2.81Zm20.992,3.461c.019,.504-.602,.831-1.008,.539l-4.215-2.81c-.082-.055-.179-.084-.277-.084h-7c-1.758,0-3.204-1.308-3.449-3h7.449c2.481,0,4.5-2.019,4.5-4.5V5h.5c1.93,0,3.5,1.57,3.5,3.5v13.855ZM9.763,11.099c-.206-.183-.225-.499-.042-.705,.183-.208,.499-.225,.706-.043,.251,.222,1.051,.799,1.72,.799,.458,0,1.233-.211,1.233-1.002,0-.544-.534-.837-1.415-1.255-.875-.416-1.965-.933-1.965-2.126,0-1.258,1.007-1.916,2.001-1.916,.925,0,2.008,.821,2.128,.914,.218,.169,.258,.483,.088,.701-.167,.218-.481,.259-.701,.089-.352-.272-1.074-.704-1.515-.704-.462,0-1.001,.24-1.001,.916,0,.524,.526,.812,1.394,1.223,.885,.42,1.986,.942,1.986,2.158,0,1.314-1.124,2.002-2.233,2.002-1.168,0-2.263-.943-2.384-1.051Zm-1.763,.901h-2c-.552,0-1-.449-1-1V6c0-.551,.448-1,1-1h2c.276,0,.5,.224,.5,.5s-.224,.5-.5,.5h-2v2h2c.276,0,.5,.224,.5,.5s-.224,.5-.5,.5h-2v2h2c.276,0,.5,.224,.5,.5s-.224,.5-.5,.5Z"/>
</svg>
