<svg id="Layer_1" viewBox="0 0 24 24" xmlns="http://www.w3.org/2000/svg" data-name="Layer 1"><path d="m19.774 4.401c-2.427-3.241-6.429-4.877-10.456-4.274-4.818.726-8.879 5.163-9.244 10.102-.199 2.698.481 5.208 1.969 7.258.626.862.957 1.808.957 2.733v1.28c0 1.472 1.028 2.5 2.5 2.5h1c.827 0 1.5-.673 1.5-1.5v-9c0-1.897 1.495-3.466 3.332-3.499 1.309-.026 2.604.221 3.824.726l2.98 1.235c.061.025.126.038.191.038h4.172c.013 0 .024 0 .036-.001.287.748.464 1.315.464 1.539-.007.211-.107.462-.546.462h-8.953c-1.93 0-3.5 1.57-3.5 3.5v5c0 .827.673 1.5 1.5 1.5h2c1.379 0 2.5-1.122 2.5-2.5v-.5h.986c2.113 0 3.965-1.5 4.402-3.566l.517-2.434h.549c1.134 0 1.546-.87 1.546-1.455 0-1.283-2.852-7.446-4.226-9.145zm-1.347 6.599-2.889-1.197c-1.347-.558-2.764-.825-4.225-.802-2.379.042-4.314 2.06-4.314 4.499v9c0 .276-.225.5-.5.5h-1c-.692 0-1.5-.393-1.5-1.5v-1.28c0-1.138-.397-2.286-1.148-3.32-1.346-1.856-1.961-4.138-1.779-6.597.332-4.493 4.02-8.528 8.395-9.186.504-.076 1.007-.113 1.506-.113 3.128 0 6.1 1.458 8.013 4.012.891 1.101 2.262 3.877 3.148 5.985h-3.706zm1.982 6.227c-.341 1.607-1.78 2.773-3.424 2.773h-1.486c-.276 0-.5.224-.5.5v1c0 .827-.673 1.5-1.5 1.5h-2c-.275 0-.5-.224-.5-.5v-5c0-1.378 1.121-2.5 2.5-2.5h7.383z"/></svg>