<svg id="Layer_1" viewBox="0 0 24 24" xmlns="http://www.w3.org/2000/svg" data-name="Layer 1"><path d="m15.5 0h-7c-3.584 0-6.5 2.916-6.5 6.5v4c0 .276.224.5.5.5s.5-.224.5-.5v-4c0-3.033 2.468-5.5 5.5-5.5h7c3.032 0 5.5 2.467 5.5 5.5v4c0 3.033-2.468 5.5-5.5 5.5h-1.778c.172-.295.278-.634.278-1 0-1.103-.897-2-2-2s-2 .897-2 2 .897 2 2 2h3.5c3.584 0 6.5-2.916 6.5-6.5v-4c0-3.584-2.916-6.5-6.5-6.5zm-4.5 15c0-.551.448-1 1-1s1 .449 1 1-.448 1-1 1-1-.449-1-1zm3.5-8.5c-1.103 0-2 .897-2 2s.897 2 2 2 2-.897 2-2-.897-2-2-2zm0 3c-.552 0-1-.449-1-1s.448-1 1-1 1 .449 1 1-.448 1-1 1zm-7-1c0 1.103.897 2 2 2s2-.897 2-2-.897-2-2-2-2 .897-2 2zm3 0c0 .551-.448 1-1 1s-1-.449-1-1 .448-1 1-1 1 .449 1 1zm10.5 15c0 .276-.224.5-.5.5s-.5-.224-.5-.5c0-2.481-2.019-4.5-4.5-4.5h-7c-2.481 0-4.5 2.019-4.5 4.5 0 .276-.224.5-.5.5s-.5-.224-.5-.5c0-3.033 2.468-5.5 5.5-5.5h7c3.032 0 5.5 2.467 5.5 5.5zm-4.972-10.004c-.092-.26.045-.546.305-.638.997-.352 1.667-1.299 1.667-2.357v-4.001c0-1.378-1.121-2.5-2.5-2.5h-7c-1.379 0-2.5 1.122-2.5 2.5v4c0 1.058.67 2.005 1.667 2.357.26.092.396.378.305.638-.093.261-.376.396-.639.305-1.396-.493-2.333-1.82-2.333-3.301v-3.999c0-1.93 1.57-3.5 3.5-3.5h7c1.93 0 3.5 1.57 3.5 3.5v4c0 1.481-.938 2.808-2.333 3.301-.254.091-.546-.042-.639-.305z"/></svg>