<svg id="Layer_1" viewBox="0 0 24 24" xmlns="http://www.w3.org/2000/svg" data-name="Layer 1"><path d="m14.024 4.318c-.935-.55-2.151-.365-2.893.445-.199.217-.408.467-.63.732-.933 1.115-2.093 2.503-3.501 2.503-2.871 0-3.969-1.2-4.664-2.374-.295-.497-.866-.731-1.421-.579-.547.149-.915.634-.915 1.205v8.25c0 1.391.822 2.585 2 3.149v1.851c0 .276.224.5.5.5s.5-.224.5-.5v-1.551c.165.024.329.051.5.051h2.5v1.5c0 .276.224.5.5.5s.5-.224.5-.5v-1.5h6v1.5c0 .276.224.5.5.5s.5-.224.5-.5v-1.5h3v1.5c0 .276.224.5.5.5s.5-.224.5-.5v-1.5h2.5c.171 0 .335-.027.5-.051v1.551c0 .276.224.5.5.5s.5-.224.5-.5v-1.851c1.178-.564 2-1.758 2-3.149v-.5c0-3.694-9.876-9.623-9.976-9.682zm8.976 10.182c0 1.379-1.122 2.5-2.5 2.5h-17c-1.378 0-2.5-1.121-2.5-2.5v-8.249c.014-.206.129-.24.255-.251.067 0 .156.025.221.135.729 1.229 2.094 2.864 5.524 2.864 1.876 0 3.259-1.654 4.269-2.861.211-.253.411-.492.6-.698.431-.472 1.107-.577 1.647-.26.683.403 1.424.874 2.181 1.387l-1.839 2.648c-.158.227-.102.538.125.696.225.155.537.102.696-.126l1.84-2.649c.898.636 1.793 1.319 2.623 2.01l-1.784 2.569c-.158.227-.102.538.125.696.225.155.537.102.696-.126l1.725-2.484c1.783 1.583 3.095 3.141 3.095 4.199v.5z"/></svg>