<?xml version="1.0" encoding="UTF-8"?>
<svg xmlns="http://www.w3.org/2000/svg" id="Layer_1" data-name="Layer 1" viewBox="0 0 24 24">
  <path d="m6.855,18.147c.194.196.193.513-.003.707-.097.098-.225.146-.352.146-.128,0-.257-.049-.355-.147L.468,13.132c-.623-.624-.623-1.64.001-2.265l5.676-5.72c.195-.196.513-.197.707-.002.196.194.197.511.003.707L1.25,11.5h15.25c.276,0,.5.224.5.5s-.224.5-.5.5H1.25l5.605,5.647ZM12.521.025c-.275,0-.509.203-.521.479-.012.275.202.509.478.521,5.9.254,10.521,5.074,10.521,10.975s-4.622,10.721-10.521,10.975c-.276.013-.49.246-.478.521.012.269.233.479.499.479h.022c6.437-.278,11.479-5.537,11.479-11.975S18.958.304,12.521.025Z"/>
</svg>
