<svg id="Layer_1" viewBox="0 0 24 24" xmlns="http://www.w3.org/2000/svg" data-name="Layer 1"><path d="m14.414 10.652c.242.826.776 1.48 1.554 1.897.599.306 1.24.451 1.871.451 1.324 0 2.596-.642 3.306-1.793.728-1.179.855-2.309.855-4.247 0-1.315-.383-4.58-3.931-6.482-1.842-.989-4.206-.389-5.27 1.336-.438.71-.549 1.531-.322 2.374.29 1.081 1.122 2.076 2.208 2.647l-1.66 1.189c-.661.66-1.025 1.539-1.025 2.475v4.424l-.127.12c-.278-.028-.568-.044-.873-.044-.354 0-.676.035-1 .067v-4.567c0-.936-.364-1.814-1.089-2.528l-1.595-1.136c1.086-.571 1.918-1.565 2.208-2.646.227-.843.115-1.664-.323-2.374-1.064-1.726-3.429-2.326-5.27-1.337-3.548 1.902-3.931 5.167-3.931 6.483 0 1.938.128 3.068.855 4.247.709 1.149 1.979 1.791 3.305 1.791.633 0 1.279-.146 1.882-.454.769-.412 1.303-1.066 1.545-1.893.234-.799.156-1.694-.181-2.531l.863.61c.472.472.732 1.1.732 1.768v4.727c-2.597.57-4 2.202-4 3.773 0 1.943 1.468 2.64 2.54 3.148.933.441 1.46.723 1.46 1.352 0 .276.224.5.5.5s.5-.224.5-.5c0-1.293-1.079-1.805-2.032-2.256-1.056-.501-1.968-.933-1.968-2.244 0-1.454 1.752-3 5-3 .27 0 .526.014.775.039.314.027.625-.073.858-.285.233-.211.367-.514.367-.83v-4.424c0-.668.26-1.296.669-1.714l.924-.658c-.335.835-.413 1.728-.179 2.525zm-7.787-.281c-.165.563-.531 1.01-1.049 1.288-1.395.711-3.096.283-3.872-.977-.548-.888-.706-1.723-.706-3.722 0-1.41.442-4.013 3.404-5.602.457-.245.955-.361 1.446-.361.999 0 1.97.481 2.5 1.342.366.593.315 1.191.208 1.589-.214.796-.858 1.564-1.679 2.006-.275.147-.692.37-.833.851-.109.373-.023.804.262 1.318.41.735.526 1.562.319 2.268zm6.815-6.443c-.107-.397-.158-.996.208-1.589.792-1.283 2.564-1.723 3.946-.98 2.961 1.589 3.404 4.191 3.404 5.602 0 1.999-.158 2.834-.707 3.722-.776 1.259-2.474 1.688-3.862.981-.527-.283-.893-.729-1.058-1.293-.207-.706-.091-1.532.319-2.268.286-.515.372-.945.262-1.318-.142-.48-.558-.703-.833-.851-.821-.441-1.464-1.21-1.679-2.006zm-.068 18.16c.183.207.165.522-.042.706-.233.206-.332.417-.332.704 0 .276-.224.5-.5.5s-.5-.224-.5-.5c0-.57.225-1.059.668-1.452.205-.183.522-.165.706.042zm5.626-8.089c-2.757 0-5 2.243-5 5s2.243 5 5 5 5-2.243 5-5-2.243-5-5-5zm0 9c-2.206 0-4-1.794-4-4s1.794-4 4-4 4 1.794 4 4-1.794 4-4 4zm2.5-4c0 .276-.224.5-.5.5h-1.5v1.5c0 .276-.224.5-.5.5s-.5-.224-.5-.5v-1.5h-1.5c-.276 0-.5-.224-.5-.5s.224-.5.5-.5h1.5v-1.5c0-.276.224-.5.5-.5s.5.224.5.5v1.5h1.5c.276 0 .5.224.5.5z"/></svg>