<svg id="Layer_1" viewBox="0 0 24 24" xmlns="http://www.w3.org/2000/svg" data-name="Layer 1"><path d="m19.5 5h-3.5v-1.5c0-1.378-1.122-2.5-2.5-2.5h-3c-1.378 0-2.5 1.122-2.5 2.5v1.5h-3.5c-2.481 0-4.5 2.019-4.5 4.5v9c0 2.481 2.019 4.5 4.5 4.5h15c2.481 0 4.5-2.019 4.5-4.5v-9c0-2.481-2.019-4.5-4.5-4.5zm-10.5-1.5c0-.827.673-1.5 1.5-1.5h3c.827 0 1.5.673 1.5 1.5v1.5h-6zm14 15c0 1.93-1.57 3.5-3.5 3.5h-15c-1.93 0-3.5-1.57-3.5-3.5v-9c0-1.93 1.57-3.5 3.5-3.5h15c1.93 0 3.5 1.57 3.5 3.5zm-8-4.5c0 .276-.224.5-.5.5h-2v2c0 .276-.224.5-.5.5s-.5-.224-.5-.5v-2h-2c-.276 0-.5-.224-.5-.5s.224-.5.5-.5h2v-2c0-.276.224-.5.5-.5s.5.224.5.5v2h2c.276 0 .5.224.5.5zm-3-6c-3.309 0-6 2.691-6 6s2.691 6 6 6 6-2.691 6-6-2.691-6-6-6zm0 11c-2.757 0-5-2.243-5-5s2.243-5 5-5 5 2.243 5 5-2.243 5-5 5z"/></svg>