<svg id="Layer_1" viewBox="0 0 24 24" xmlns="http://www.w3.org/2000/svg" data-name="Layer 1"><path d="m21 12c0 1.867-.565 3.656-1.636 5.176-.161.227-.473.278-.697.121-.226-.159-.279-.472-.121-.697.951-1.35 1.454-2.94 1.454-4.6 0-4.411-3.589-8-8-8s-8 3.589-8 8c0 1.659.503 3.25 1.454 4.6.158.226.104.538-.121.697-.226.158-.537.104-.697-.121-1.07-1.52-1.636-3.309-1.636-5.176 0-4.963 4.037-9 9-9s9 4.037 9 9zm-9-6c-3.309 0-6 2.691-6 6 0 1.244.377 2.438 1.091 3.451.159.225.471.279.697.121.226-.159.279-.472.121-.697-.595-.844-.909-1.838-.909-2.875 0-2.757 2.243-5 5-5s5 2.243 5 5c0 1.037-.314 2.031-.909 2.875-.158.226-.104.538.121.697.224.157.536.106.697-.121.714-1.014 1.091-2.207 1.091-3.451 0-3.309-2.691-6-6-6zm0-6c-6.617 0-12 5.383-12 12 0 2.552.79 4.988 2.286 7.047.163.225.477.272.698.11.224-.162.272-.475.11-.698-1.37-1.887-2.095-4.12-2.095-6.459.001-6.065 4.936-11 11.001-11s11 4.935 11 11c0 2.264-.682 4.438-1.972 6.285-.158.227-.103.538.124.696.225.156.537.104.696-.124 1.407-2.017 2.151-4.388 2.151-6.857.001-6.617-5.382-12-11.999-12zm6 23.5c0 .276-.224.5-.5.5h-11c-.276 0-.5-.224-.5-.5s.224-.5.5-.5h5v-8.051c-1.416-.24-2.5-1.466-2.5-2.949 0-1.654 1.346-3 3-3s3 1.346 3 3c0 1.483-1.084 2.71-2.5 2.949v8.051h5c.276 0 .5.224.5.5zm-6-9.5c1.103 0 2-.897 2-2s-.897-2-2-2-2 .897-2 2 .897 2 2 2z"/></svg>