<?xml version="1.0" encoding="UTF-8"?>
<svg xmlns="http://www.w3.org/2000/svg" id="Layer_1" data-name="Layer 1" viewBox="0 0 24 24">
  <path d="M23.501,21.102l-2.303-2.291,1.939-.969c1.111-.515,1.077-2.237-.052-2.706l-8.813-3.999c-.914-.31-1.903-.079-2.573,.599-.691,.691-.907,1.672-.562,2.668l3.962,8.715c.462,1.116,2.201,1.173,2.708,.052l.983-1.968,2.311,2.301c.63,.657,1.772,.657,2.403,0,.656-.631,.656-1.773-.003-2.401Zm-.705,1.694c-.262,.262-.726,.263-.989,0l-2.802-2.79c-.228-.242-.66-.168-.8,.131l-1.293,2.587c-.172,.379-.748,.349-.902-.018l-3.945-8.672c-.204-.591-.079-1.17,.342-1.593,.4-.4,.978-.544,1.499-.375l8.767,3.98c.374,.156,.387,.73,.017,.901l-2.562,1.279c-.3,.14-.371,.574-.129,.802l2.796,2.782c.27,.257,.269,.728,0,.985Zm-11.797-4.282c0,.276-.224,.5-.5,.5-.733,0-1.454-.248-2.029-.699C5.113,15.684,.086,10.131,0,5.617-.034,3.794,.994,1.981,2.683,.886,4.243-.125,5.968-.274,7.542,.463c1.301,.612,2.359,1.763,2.958,3.145,.6-1.382,1.657-2.532,2.958-3.145,1.574-.737,3.298-.588,4.859,.423,1.688,1.096,2.716,2.908,2.682,4.731-.028,1.513-.61,3.241-1.729,5.137-.141,.237-.448,.316-.685,.177-.238-.141-.317-.447-.177-.685,1.03-1.745,1.565-3.31,1.59-4.648,.028-1.479-.825-2.964-2.226-3.872-1.615-1.049-3.006-.772-3.89-.357-1.517,.713-2.677,2.396-2.887,4.19-.029,.252-.243,.441-.497,.441s-.467-.189-.497-.441c-.21-1.794-1.371-3.478-2.887-4.19-.883-.414-2.274-.69-3.89,.357-1.401,.908-2.254,2.393-2.226,3.872,.078,4.137,5.001,9.513,8.087,11.93,.4,.313,.902,.486,1.412,.486,.276,0,.5,.224,.5,.5Z"/>
</svg>
