<svg id="Layer_1" viewBox="0 0 24 24" xmlns="http://www.w3.org/2000/svg" data-name="Layer 1"><path d="m5.283 3.49c-.195-.195-.195-.512 0-.707 1.794-1.795 4.179-2.783 6.717-2.783s4.924.988 6.718 2.783c.195.195.195.512 0 .707s-.512.195-.707 0c-1.605-1.605-3.74-2.49-6.011-2.49s-4.405.884-6.01 2.49c-.195.195-.512.195-.707 0zm10.606 2.828c.195-.195.195-.512 0-.707-1.038-1.039-2.42-1.611-3.889-1.611s-2.851.572-3.889 1.611c-.195.195-.195.512 0 .707s.512.195.707 0c.85-.85 1.98-1.318 3.182-1.318s2.332.468 3.182 1.318c.195.195.512.195.707 0zm8.111 9.182v4c0 2.481-2.019 4.5-4.5 4.5h-15c-2.481 0-4.5-2.019-4.5-4.5v-4c0-2.481 2.019-4.5 4.5-4.5h15c2.481 0 4.5 2.019 4.5 4.5zm-1 0c0-1.93-1.57-3.5-3.5-3.5h-15c-1.93 0-3.5 1.57-3.5 3.5v4c0 1.93 1.57 3.5 3.5 3.5h15c1.93 0 3.5-1.57 3.5-3.5zm-8.896-.104c-.195-.195-.512-.195-.707 0l-1.396 1.396-1.396-1.396c-.195-.195-.512-.195-.707 0s-.195.512 0 .707l1.396 1.396-1.396 1.396c-.195.195-.195.512 0 .707s.512.195.707 0l1.396-1.396 1.396 1.396c.195.195.512.195.707 0s.195-.512 0-.707l-1.396-1.396 1.396-1.396c.195-.195.195-.512 0-.707zm-6.102 0c-.195-.195-.512-.195-.707 0l-1.396 1.396-1.396-1.396c-.195-.195-.512-.195-.707 0s-.195.512 0 .707l1.396 1.396-1.396 1.396c-.195.195-.195.512 0 .707s.512.195.707 0l1.396-1.396 1.396 1.396c.195.195.512.195.707 0s.195-.512 0-.707l-1.396-1.396 1.396-1.396c.195-.195.195-.512 0-.707zm12.204 0c-.195-.195-.512-.195-.707 0l-1.396 1.396-1.396-1.396c-.195-.195-.512-.195-.707 0s-.195.512 0 .707l1.396 1.396-1.396 1.396c-.195.195-.195.512 0 .707s.512.195.707 0l1.396-1.396 1.396 1.396c.195.195.512.195.707 0s.195-.512 0-.707l-1.396-1.396 1.396-1.396c.195-.195.195-.512 0-.707zm-9.205-6.396c0 .552.448 1 1 1s1-.448 1-1-.448-1-1-1-1 .448-1 1z"/></svg>