<svg id="Layer_1" viewBox="0 0 24 24" xmlns="http://www.w3.org/2000/svg" data-name="Layer 1"><path d="m24 17.5c0 3.584-5.383 6.5-12 6.5s-12-2.916-12-6.5c0-2.387 2.437-4.581 6.36-5.727.264-.078.542.074.62.339.077.266-.075.543-.34.62-3.426 1.001-5.64 2.872-5.64 4.768 0 2.93 5.14 5.5 11 5.5s11-2.57 11-5.5c0-1.896-2.214-3.767-5.64-4.768-.265-.077-.417-.354-.34-.62.078-.265.354-.416.62-.339 3.923 1.146 6.36 3.34 6.36 5.727zm-14-15.5c0-1.103.897-2 2-2s2 .897 2 2-.897 2-2 2-2-.897-2-2zm1 0c0 .552.449 1 1 1s1-.448 1-1-.449-1-1-1-1 .448-1 1zm-1.751 10.346c-.557-.805-1.249-1.806-1.249-3.346 0-2.206 1.794-4 4-4s4 1.794 4 4c0 1.54-.692 2.541-1.249 3.346-.419.606-.751 1.085-.751 1.654 0 .946.783 1.391 1.517 1.492 1.599.282 3.483.864 3.483 2.051 0 1.596-3.606 2.457-7 2.457s-7-.861-7-2.457c0-1.201 1.928-1.784 3.545-2.062.701-.126 1.455-.581 1.455-1.48 0-.569-.332-1.048-.751-1.654zm-.249-3.346c0 1.228.545 2.016 1.071 2.776.457.66.929 1.342.929 2.224 0 1.249-.896 2.217-2.282 2.466-2.075.356-2.718.914-2.718 1.077 0 .374 2.063 1.457 6 1.457s6-1.083 6-1.457c0-.159-.625-.707-2.639-1.063-1.405-.193-2.361-1.19-2.361-2.479 0-.882.472-1.563.929-2.224.526-.761 1.071-1.549 1.071-2.776 0-1.654-1.346-3-3-3s-3 1.346-3 3z"/></svg>