<svg id="Layer_1" viewBox="0 0 24 24" xmlns="http://www.w3.org/2000/svg" data-name="Layer 1"><path d="m24.013 9.499c0 3.009-1.383 5.773-3.794 7.585-1.147.863-2.101 2.069-2.833 3.586-.45.932-1.116 1.713-1.979 2.32-.957.673-2.075 1.006-3.211 1.006-1.315 0-2.653-.446-3.794-1.328-1.433-1.108-2.23-2.497-2.368-4.127-.023-.275.181-.517.456-.54.278-.018.517.181.54.456.113 1.339.781 2.49 1.983 3.42 1.777 1.374 4.116 1.493 5.817.295.723-.508 1.279-1.16 1.654-1.938.802-1.661 1.856-2.989 3.132-3.949 2.158-1.621 3.396-4.095 3.396-6.786 0-2.417-1.034-4.728-2.838-6.339-1.829-1.635-4.188-2.386-6.65-2.105-2.805.315-5.345 2.104-6.629 4.669-.124.247-.424.346-.671.224-.247-.124-.347-.424-.224-.671 1.435-2.865 4.275-4.863 7.413-5.216 2.751-.31 5.386.528 7.429 2.354 2.015 1.801 3.171 4.384 3.171 7.085zm-9.5-4.499c2.481 0 4.5 2.019 4.5 4.5 0 .276.224.5.5.5s.5-.224.5-.5c0-3.033-2.468-5.5-5.5-5.5-2.87-.007-5.345 2.225-5.5 5.141 0 1.024.833 1.858 1.858 1.858 1.094 0 2.031.787 2.132 1.792.104 1.042-.595 2.016-1.59 2.218-.271.056-.445.319-.39.59.053.273.325.445.589.391 1.492-.304 2.539-1.752 2.385-3.298-.151-1.51-1.525-2.692-3.126-2.692-.473 0-.858-.385-.858-.858.129-2.336 2.157-4.145 4.5-4.141zm-8.353 10.354c.195.195.512.195.707 0s.195-.512 0-.707l-2.646-2.646 2.646-2.646c.195-.195.195-.512 0-.707s-.512-.195-.707 0l-2.646 2.646-2.647-2.648c-.195-.195-.512-.195-.707 0s-.195.512 0 .707l2.646 2.646-2.646 2.647c-.195.195-.195.512 0 .707s.512.195.707 0l2.646-2.646 2.646 2.646z"/></svg>