<svg id="Layer_1" viewBox="0 0 24 24" xmlns="http://www.w3.org/2000/svg" data-name="Layer 1"><path d="m16 3c-1.654 0-3 1.346-3 3s1.346 3 3 3 3-1.346 3-3-1.346-3-3-3zm0 5c-1.103 0-2-.897-2-2s.897-2 2-2 2 .897 2 2-.897 2-2 2zm0-8c-4.411 0-8 3.589-8 8 0 2.026.763 3.873 2.009 5.284l-4.259 4.259-2.396-2.396c-.195-.195-.512-.195-.707 0s-.195.512 0 .707l2.396 2.396-1.793 1.793-2.396-2.396c-.195-.195-.512-.195-.707 0s-.195.512 0 .707l2.396 2.396-2.397 2.396c-.195.195-.195.512 0 .707s.512.195.707 0l9.863-9.863c1.411 1.246 3.258 2.009 5.284 2.009 4.411 0 8-3.589 8-8s-3.589-7.999-8-7.999zm-3.82 13.858c.502-1.692 2.03-2.858 3.82-2.858s3.318 1.166 3.82 2.858c-1.1.72-2.411 1.142-3.82 1.142s-2.721-.422-3.82-1.142zm8.48-.649c-.73-1.917-2.551-3.209-4.66-3.209s-3.93 1.291-4.66 3.209c-1.432-1.283-2.34-3.139-2.34-5.209 0-3.86 3.14-7 7-7s7 3.14 7 7c0 2.069-.908 3.926-2.34 5.209z"/></svg>