<?xml version="1.0" encoding="UTF-8"?>
<svg xmlns="http://www.w3.org/2000/svg" id="Layer_1" data-name="Layer 1" viewBox="0 0 24 24">
  <path d="m12,13.5c-.827,0-1.5-.673-1.5-1.5s.673-1.5,1.5-1.5,1.5.673,1.5,1.5-.673,1.5-1.5,1.5Zm10.146-1.603l-9.646-7.016v-1.882h1.5c.276,0,.5-.224.5-.5s-.224-.5-.5-.5h-1.5V.5c0-.276-.224-.5-.5-.5s-.5.224-.5.5v1.5h-1.5c-.276,0-.5.224-.5.5s.224.5.5.5h1.5v1.882L1.854,11.897c-1.161.844-1.854,2.205-1.854,3.64v6.463c0,1.103.897,2,2,2h.5c.276,0,.5-.224.5-.5v-3c0-.276.224-.5.5-.5s.5.224.5.5v3c0,.276.224.5.5.5h15c.276,0,.5-.224.5-.5v-3c0-.276.224-.5.5-.5s.5.224.5.5v3c0,.276.224.5.5.5h.5c1.103,0,2-.897,2-2v-6.463c0-1.435-.693-2.795-1.854-3.64Zm-8.146,11.103h-4v-4c0-1.103.897-2,2-2s2,.897,2,2v4Zm-2-7c-1.654,0-3,1.346-3,3v4h-2v-13.609l5-3.636,5,3.636v13.609h-2v-4c0-1.654-1.346-3-3-3Zm-8.5,3c-.827,0-1.5.673-1.5,1.5v2.5c-.551,0-1-.449-1-1v-6.463c0-1.116.539-2.174,1.441-2.831l3.559-2.588v12.882h-1v-2.5c0-.827-.673-1.5-1.5-1.5Zm19.5,3c0,.551-.449,1-1,1v-2.5c0-.827-.673-1.5-1.5-1.5s-1.5.673-1.5,1.5v2.5h-1v-12.882l3.559,2.588c.902.657,1.441,1.715,1.441,2.831v6.463Zm-18.75-4.5h-1.5v-2.25c0-.414.336-.75.75-.75s.75.336.75.75v2.25Zm17,0h-1.5v-2.25c0-.414.336-.75.75-.75s.75.336.75.75v2.25Z"/>
</svg>
