<svg id="Layer_1" viewBox="0 0 24 24" xmlns="http://www.w3.org/2000/svg" data-name="Layer 1"><path d="m20.5 11h-9c-1.93 0-3.5 1.57-3.5 3.5v6c0 1.678 1.246 3.181 2.9 3.498l.279.002c.396 0 .78-.133 1.076-.43l1.305-1.424c.093-.093.222-.146.354-.146h.586c.261-.005.509.218.5.481-.005.404.148.785.433 1.073.284.287.663.445 1.067.445h1.086c.395 0 .781-.16 1.061-.439l1.561-1.561h.293c1.93 0 3.5-1.57 3.5-3.5v-4c0-1.93-1.57-3.5-3.5-3.5zm2.5 7.5c0 1.379-1.121 2.5-2.5 2.5h-.5c-.133 0-.26.053-.354.146l-1.707 1.707c-.093.093-.222.146-.354.146h-1.086c-.272.005-.509-.235-.5-.507.028-.806-.699-1.508-1.5-1.493h-.586c-.395 0-.781.16-1.075.455l-1.305 1.424c-.117.117-.286.167-.447.137-1.17-.225-2.087-1.329-2.087-2.516v-6c0-1.379 1.121-2.5 2.5-2.5h9c1.379 0 2.5 1.121 2.5 2.5v4zm-2-4c0 .276-.224.5-.5.5h-2c-.276 0-.5-.224-.5-.5s.224-.5.5-.5h2c.276 0 .5.224.5.5zm0 2c0 .276-.224.5-.5.5h-2c-.276 0-.5-.224-.5-.5s.224-.5.5-.5h2c.276 0 .5.224.5.5zm0 2c0 .276-.224.5-.5.5h-2c-.276 0-.5-.224-.5-.5s.224-.5.5-.5h2c.276 0 .5.224.5.5zm-7.5-17.5h-6.343c-.936 0-1.814.364-2.476 1.025l-2.656 2.656c-.661.661-1.025 1.54-1.025 2.476v12.343c0 1.93 1.57 3.5 3.5 3.5h2c.276 0 .5.224.5.5s-.224.5-.5.5h-2c-2.481 0-4.5-2.019-4.5-4.5v-12.343c0-1.202.468-2.333 1.318-3.182l2.657-2.657c.849-.85 1.98-1.318 3.182-1.318h6.343c2.481 0 4.5 2.019 4.5 4.5v4c0 .276-.224.5-.5.5s-.5-.224-.5-.5v-4c0-1.93-1.57-3.5-3.5-3.5zm1 2c.276 0 .5.224.5.5v3c0 .276-.224.5-.5.5s-.5-.224-.5-.5v-3c0-.276.224-.5.5-.5zm-2 0c.276 0 .5.224.5.5v3c0 .276-.224.5-.5.5s-.5-.224-.5-.5v-3c0-.276.224-.5.5-.5zm-2 0c.276 0 .5.224.5.5v3c0 .276-.224.5-.5.5s-.5-.224-.5-.5v-3c0-.276.224-.5.5-.5zm-2 0c.276 0 .5.224.5.5v3c0 .276-.224.5-.5.5s-.5-.224-.5-.5v-3c0-.276.224-.5.5-.5zm-1.5.5v3c0 .276-.224.5-.5.5s-.5-.224-.5-.5v-3c0-.276.224-.5.5-.5s.5.224.5.5z"/></svg>