<svg id="Layer_1" viewBox="0 0 24 24" xmlns="http://www.w3.org/2000/svg" data-name="Layer 1"><path d="m24 6.5v9c0 2.481-2.019 4.5-4.5 4.5h-7v3h5c.276 0 .5.224.5.5s-.224.5-.5.5h-11c-.276 0-.5-.224-.5-.5s.224-.5.5-.5h5v-3h-7c-2.481 0-4.5-2.019-4.5-4.5v-9c0-.276.224-.5.5-.5s.5.224.5.5v9c0 1.93 1.57 3.5 3.5 3.5h15c1.93 0 3.5-1.57 3.5-3.5v-9c0-.276.224-.5.5-.5s.5.224.5.5zm-8 3v-5.5c0-1.379 1.122-2.5 2.5-2.5h1.571c.224-.86 1-1.5 1.929-1.5 1.103 0 2 .897 2 2s-.897 2-2 2c-.929 0-1.705-.64-1.929-1.5h-1.571c-.827 0-1.5.673-1.5 1.5v5.5c0 .276-.224.5-.5.5s-.5-.224-.5-.5zm5-7.5c0 .552.449 1 1 1s1-.448 1-1-.449-1-1-1-1 .448-1 1zm-21 0c0-1.103.897-2 2-2 .929 0 1.705.64 1.929 1.5h1.571c1.378 0 2.5 1.121 2.5 2.5v5.5c0 .276-.224.5-.5.5s-.5-.224-.5-.5v-5.5c0-.827-.673-1.5-1.5-1.5h-1.571c-.224.86-1 1.5-1.929 1.5-1.103 0-2-.897-2-2zm1 0c0 .552.449 1 1 1s1-.448 1-1-.449-1-1-1-1 .448-1 1zm9 0c0-1.103.897-2 2-2s2 .897 2 2c0 .929-.64 1.705-1.5 1.929v5.571c0 .276-.224.5-.5.5s-.5-.224-.5-.5v-5.571c-.86-.224-1.5-1-1.5-1.929zm1 0c0 .552.449 1 1 1s1-.448 1-1-.449-1-1-1-1 .448-1 1z"/></svg>