<?xml version="1.0" encoding="UTF-8"?>
<svg xmlns="http://www.w3.org/2000/svg" id="Layer_1" data-name="Layer 1" viewBox="0 0 24 24">
  <path d="m23.462,9.883l-3.529-6.5c-.799-1.47-2.349-2.383-4.047-2.383h-7.752c-1.694,0-3.243.911-4.042,2.376L.544,9.881c-.726,1.33-.726,2.917,0,4.249l3.546,6.496c.8,1.465,2.349,2.375,4.042,2.375h7.753c1.698,0,3.248-.913,4.047-2.383l3.529-6.5c.72-1.326.72-2.908,0-4.233Zm-.879,3.756l-3.529,6.5c-.623,1.148-1.837,1.861-3.168,1.861h-7.753c-1.327,0-2.54-.71-3.165-1.854l-3.546-6.495c-.562-1.031-.562-2.261,0-3.291l3.549-6.504c.623-1.144,1.836-1.855,3.164-1.855h7.752c1.331,0,2.545.713,3.168,1.861l3.529,6.5c.558,1.026.558,2.252,0,3.278Zm-4.583-1.639c0,.276-.224.5-.5.5H6.5c-.276,0-.5-.224-.5-.5s.224-.5.5-.5h11c.276,0,.5.224.5.5Zm-6-6.5c.828,0,1.5.673,1.5,1.5s-.672,1.5-1.5,1.5-1.5-.673-1.5-1.5.672-1.5,1.5-1.5Zm0,13c-.828,0-1.5-.673-1.5-1.5s.672-1.5,1.5-1.5,1.5.673,1.5,1.5-.672,1.5-1.5,1.5Z"/>
</svg>
