<?xml version="1.0" encoding="UTF-8"?>
<svg xmlns="http://www.w3.org/2000/svg" id="Layer_1" data-name="Layer 1" viewBox="0 0 24 24">
  <path d="m23.191,14.398c.098.098.226.146.354.146s.256-.049.354-.146c.195-.195.195-.512,0-.707L10.354.146c-.195-.195-.512-.195-.707,0s-.195.512,0,.707l1.325,1.325-2.543,2.543-2.595-2.594c-.195-.195-.512-.195-.707,0s-.195.512,0,.707l2.595,2.594L1.318,11.833c-.851.85-1.318,1.98-1.318,3.182s.468,2.332,1.318,3.182l4.485,4.486c.85.85,1.979,1.318,3.182,1.318s2.332-.468,3.182-1.318l9.654-9.654,1.37,1.37Zm-11.731,7.577c-1.322,1.322-3.627,1.322-4.949,0l-4.485-4.486c-.661-.661-1.025-1.54-1.025-2.475s.364-1.814,1.025-2.475l6.403-6.404,4.718,4.718c.098.098.226.146.354.146s.256-.049.354-.146c.195-.195.195-.512,0-.707l-4.718-4.718,2.543-2.543,9.436,9.436-9.654,9.654Zm10.051-3.983h-.006c-.444.002-.86.223-1.112.591-1.393,2.041-1.393,2.7-1.393,2.917,0,1.378,1.121,2.5,2.5,2.5s2.5-1.122,2.5-2.5c0-.235,0-.95-1.381-2.929-.253-.363-.667-.58-1.108-.58Zm-.011,5.008c-.827,0-1.5-.673-1.5-1.5,0-.274.32-1.037,1.219-2.353.066-.099.146-.197.292-.155.056,0,.193.015.288.151,1.114,1.597,1.201,2.208,1.201,2.357,0,.827-.673,1.5-1.5,1.5Z"/>
</svg>
