<?xml version="1.0" encoding="UTF-8"?>
<svg xmlns="http://www.w3.org/2000/svg" id="Layer_1" data-name="Layer 1" viewBox="0 0 24 24">
  <path d="M12,12c3.309,0,6-2.691,6-6S15.309,0,12,0,6,2.691,6,6s2.691,6,6,6Zm0-11c2.757,0,5,2.243,5,5s-2.243,5-5,5-5-2.243-5-5S9.243,1,12,1Zm-.16,8.494c.438,.025,.875-.032,1.292-.171,.363-.122,.603-.448,.61-.831,.008-.388-.223-.728-.586-.866-.301-.114-.554-.304-.754-.564h0c-.474-.615-.474-1.508,0-2.124,.2-.261,.454-.451,.754-.564,.364-.138,.594-.478,.586-.865-.009-.386-.252-.713-.62-.835-1.25-.415-2.711-.042-3.623,.922-.667,.706-1.005,1.631-.95,2.604,.099,1.774,1.514,3.19,3.291,3.293Zm-1.614-5.211c.478-.505,1.123-.783,1.817-.783,.169,0,.337,.018,.501,.052-.363,.183-.683,.448-.936,.776-.757,.984-.757,2.359,0,3.343,.252,.328,.572,.593,.936,.777-.21,.045-.428,.06-.646,.048-1.249-.073-2.281-1.105-2.351-2.352-.039-.696,.202-1.357,.679-1.861Zm5.774,7.717c2.206,0,4,1.794,4,4s-1.794,4-4,4-4-1.794-4-4,1.794-4,4-4Zm8,4c0,4.411-3.589,8-8,8H8C3.589,24,0,20.411,0,16c0-2.799,1.425-5.347,3.811-6.817,.234-.145,.542-.071,.688,.164,.145,.235,.072,.543-.164,.688-2.088,1.286-3.335,3.516-3.335,5.965,0,3.86,3.14,7,7,7h8c3.859,0,7-3.14,7-7,0-2.458-1.253-4.691-3.353-5.976-.235-.145-.31-.452-.166-.688,.145-.237,.453-.31,.688-.166,2.399,1.468,3.831,4.021,3.831,6.829Z"/>
</svg>
