<svg id="Layer_1" viewBox="0 0 24 24" xmlns="http://www.w3.org/2000/svg" data-name="Layer 1"><path d="m21.592 8.678c.331-.302.476-.757.377-1.187-.306-1.321-1.174-2.721-2.54-3.523.045-.006.357-.044.404-.05 1.065-.105 1.565-1.528.775-2.261-.822-.814-2.811-1.657-4.715-1.657-2.142 0-3.323.828-3.894 1.42-.57-.592-1.752-1.42-3.894-1.42-1.904 0-3.893.843-4.716 1.658-.789.732-.288 2.155.775 2.26.05.006.358.044.405.05-1.366.803-2.234 2.202-2.54 3.523-.233.885.715 1.771 1.579 1.447.204-.068.4-.131.609-.182-.457.64-.951 1.593-1.2 2.919-.194.878.817 1.622 1.607 1.213.124-.06.25-.112.368-.159-.03 2.286-.232 4.26-.971 6.613-.66 1.263-1.025 2.681-1.025 4.157 0 .276.224.5.5.5s.5-.224.5-.5c0-2.709 1.358-5.213 3.633-6.697.304-.207.755-.068.933.246.719 1.204 2.034 1.951 3.435 1.951s2.716-.747 3.435-1.951c.179-.314.626-.453.933-.246 2.274 1.484 3.633 3.988 3.633 6.697 0 .276.224.5.5.5s.5-.224.5-.5c0-1.476-.365-2.894-1.025-4.157-.738-2.354-.94-4.327-.971-6.613.118.047.244.1.368.159.789.408 1.803-.335 1.607-1.213-.249-1.326-.743-2.279-1.2-2.919.21.051.405.113.61.182.419.14.867.043 1.201-.261zm-11.592 8.539.005-4.312c0-.167-.083-.323-.222-.416-.985-.66-1.624-1.709-1.751-2.839-.016-.557.237-.635.628-.756 1.657-.543 2.712-1.598 3.332-2.453.616.878 1.688 1.96 3.438 2.501.306.091.548.162.548.722 0 1.034-.654 2.09-1.751 2.825-.139.093-.222.248-.222.414l-.005 4.314c-.544.489-1.253.784-2 .784s-1.455-.294-2-.783zm8.213-8.693c.055.039 1.341.978 1.785 3.338.022.105-.077.183-.195.123-.571-.271-1.148-.428-1.173-.434-.148-.04-.31-.01-.434.086-.124.094-.196.241-.196.396 0 1.797.088 3.445.415 5.177-.452-.46-.947-.884-1.501-1.245-.37-.242-.815-.319-1.256-.218-.241.055-.463.166-.657.316l.003-2.9c1.24-.915 1.973-2.207 1.973-3.5 0-1.308-.92-1.579-1.324-1.698-1.853-.574-2.808-1.938-3.212-2.699-.086-.162-.253-.264-.437-.266-.198.003-.353.097-.442.257-.414.746-1.383 2.087-3.27 2.704-.354.109-1.297.401-1.258 1.757.152 1.375.865 2.615 1.97 3.443l-.003 2.904c-.194-.151-.417-.263-.66-.318-.44-.102-.885-.024-1.256.218-.554.362-1.049.786-1.501 1.245.327-1.732.415-3.38.415-5.177 0-.155-.072-.303-.196-.396-.124-.096-.283-.126-.434-.086-.024.006-.602.163-1.173.434-.119.061-.216-.006-.195-.123.444-2.36 1.73-3.299 1.782-3.336.181-.124.258-.352.193-.561-.065-.208-.259-.351-.478-.351-.999 0-1.614.178-2.205.375-.207.063-.342-.029-.289-.273.26-1.126 1.302-3.106 3.557-3.389.218-.027.394-.194.431-.412.037-.217-.072-.433-.27-.531-.436-.232-1.582-.356-2.422-.456-.333-.026-.431-.33-.207-.56.667-.661 2.438-1.368 4.012-1.368 2.618 0 3.42 1.406 3.45 1.462.085.163.255.264.439.266h.005c.183 0 .353-.103.44-.263.032-.06.834-1.466 3.452-1.466 1.573 0 3.345.707 4.011 1.367.21.226.143.522-.207.561-.841.1-1.984.224-2.421.456-.197.099-.307.314-.27.531.037.218.213.385.431.412 2.255.282 3.297 2.263 3.557 3.389.039.235-.091.344-.288.273-.592-.197-1.207-.375-2.206-.375-.218 0-.409.142-.475.349s.01.435.188.561z"/></svg>