<?xml version="1.0" encoding="UTF-8"?>
<svg xmlns="http://www.w3.org/2000/svg" id="Outline" viewBox="0 0 24 24">
  <path d="m20.818,20.111c1.969-2.138,3.182-4.982,3.182-8.111s-1.214-5.972-3.182-8.111l.536-.536c.195-.195.195-.512,0-.707s-.512-.195-.707,0l-.536.536c-2.138-1.969-4.982-3.182-8.111-3.182S6.028,1.214,3.889,3.182l-.536-.536c-.195-.195-.512-.195-.707,0s-.195.512,0,.707l.536.536C1.214,6.028,0,8.871,0,12s1.214,5.972,3.182,8.111l-.536.536c-.195.195-.195.512,0,.707.098.098.226.146.354.146s.256-.049.354-.146l.536-.536c2.138,1.969,4.982,3.182,8.111,3.182s5.972-1.214,8.111-3.182l.536.536c.098.098.226.146.354.146s.256-.049.354-.146c.195-.195.195-.512,0-.707l-.536-.536Zm2.182-8.111c0,2.853-1.101,5.447-2.889,7.404l-4.258-4.258c.705-.862,1.146-1.948,1.146-3.146s-.441-2.284-1.146-3.146l4.258-4.258c1.788,1.957,2.889,4.551,2.889,7.404Zm-15,0c0-2.206,1.794-4,4-4s4,1.794,4,4-1.794,4-4,4-4-1.794-4-4ZM12,1c2.853,0,5.447,1.101,7.404,2.889l-4.258,4.258c-.862-.705-1.948-1.146-3.146-1.146s-2.284.441-3.146,1.146L4.596,3.889c1.957-1.788,4.551-2.889,7.404-2.889ZM1,12c0-2.853,1.101-5.447,2.889-7.404l4.258,4.258c-.705.862-1.146,1.948-1.146,3.146s.441,2.284,1.146,3.146l-4.258,4.258c-1.788-1.957-2.889-4.551-2.889-7.404Zm11,11c-2.853,0-5.447-1.101-7.404-2.889l4.258-4.258c.862.705,1.948,1.146,3.146,1.146s2.284-.441,3.146-1.146l4.258,4.258c-1.957,1.788-4.551,2.889-7.404,2.889Z"/>
</svg>
