<svg id="Layer_1" viewBox="0 0 24 24" xmlns="http://www.w3.org/2000/svg" data-name="Layer 1"><path d="m3.995 15.001c.263.06.537-.11.596-.381.442-2.005 1.154-5.238 1.587-7.198.641 2.623 3.005 4.578 5.823 4.578 1.668 0 3.218-.668 4.363-1.882.189-.201.181-.517-.02-.707s-.519-.181-.707.02c-.955 1.011-2.247 1.568-3.637 1.568-2.415 0-4.435-1.722-4.899-4.002h.914c3.161-.094 5.87-2.206 6.803-5.189 1.267.802 2.209 2.165 2.635 3.946.052.215 1.303 5.893 1.957 8.865.059.271.332.441.596.381.27-.06.44-.326.381-.596-.077-.351-1.895-8.605-1.961-8.883-.813-3.406-3.275-5.522-6.425-5.522-.315 0-.621.032-.923.079-2.699.375-4.77 2.38-5.502 5.443-.066.278-1.884 8.532-1.961 8.883-.06.27.111.536.381.596zm4.004-9.004h-.999c0-2.755 2.244-4.997 5-4.997.682 0 1.325.123 1.918.35-.756 2.666-3.142 4.565-5.919 4.647zm4.001 8.003c-4.963 0-9 4.038-9 9v.5c0 .276.224.5.5.5s.5-.224.5-.5v-.5c0-2.953 1.613-5.532 4-6.918v2.989c-.86.224-1.5 1-1.5 1.929 0 1.103.897 2 2 2s2-.897 2-2c0-.929-.64-1.705-1.5-1.929v-3.482c.927-.377 1.939-.589 3-.589s2.073.212 3 .589v3.462c-1.14.232-2 1.242-2 2.449v2c0 .276.224.5.5.5s.5-.224.5-.5v-2c0-.827.673-1.5 1.5-1.5s1.5.673 1.5 1.5v2c0 .276.224.5.5.5s.5-.224.5-.5v-2c0-1.207-.86-2.217-2-2.449v-2.968c2.387 1.386 4 3.964 4 6.918v.5c0 .276.224.5.5.5s.5-.224.5-.5v-.5c0-4.962-4.037-9-9-9zm-2.5 7c0 .551-.448 1-1 1s-1-.449-1-1 .448-1 1-1 1 .449 1 1z"/></svg>