<svg id="Layer_1" viewBox="0 0 24 24" xmlns="http://www.w3.org/2000/svg" data-name="Layer 1"><path d="m24 13.5v2c0 2.481-2.019 4.5-4.5 4.5h-7v3h5c.276 0 .5.224.5.5s-.224.5-.5.5h-11c-.276 0-.5-.224-.5-.5s.224-.5.5-.5h5v-3h-7c-2.481 0-4.5-2.019-4.5-4.5v-9c0-2.481 2.019-4.5 4.5-4.5h8.5c.276 0 .5.224.5.5s-.224.5-.5.5h-8.5c-1.93 0-3.5 1.57-3.5 3.5v9c0 1.93 1.57 3.5 3.5 3.5h15c1.93 0 3.5-1.57 3.5-3.5v-2c0-.276.224-.5.5-.5s.5.224.5.5zm-8.536-2.964c-1.923-1.923-1.956-5.048-.077-7.269l2.537-2.813c.262-.257.543-.454 1.076-.454.573 0 .813.196 1.054.432l2.548 2.823s.007.008.01.012c.925 1.093 1.386 2.453 1.387 3.733.001 1.321-.488 2.559-1.464 3.536-.945.944-2.2 1.464-3.536 1.464s-2.591-.52-3.536-1.464zm.707-.707c1.512 1.511 4.146 1.511 5.657 0 1.55-1.55 1.561-4.09.026-5.91l-2.489-2.751c-.111-.111-.204-.168-.365-.168s-.222.038-.383.187l-2.476 2.737c-1.53 1.809-1.521 4.352.031 5.904z"/></svg>