<svg id="Layer_1" viewBox="0 0 24 24" xmlns="http://www.w3.org/2000/svg" data-name="Layer 1"><path d="m24 3.5v4c0 .827-.673 1.5-1.5 1.5h-4c-.276 0-.5-.224-.5-.5s.224-.5.5-.5h3.744c-1.639-4.193-5.729-7-10.244-7-6.065 0-11 4.935-11 11 0 4.809 3.075 9.021 7.652 10.481.263.084.408.365.325.628-.083.266-.372.408-.628.325-4.994-1.593-8.349-6.188-8.349-11.434 0-6.617 5.383-12 12-12 4.773 0 9.109 2.876 11 7.216v-3.716c0-.276.224-.5.5-.5s.5.224.5.5zm-12 9v-6c0-.276-.224-.5-.5-.5s-.5.224-.5.5v5.5h-4.5c-.276 0-.5.224-.5.5s.224.5.5.5h5c.276 0 .5-.224.5-.5zm3.701 6.821c.489-.457.799-1.101.799-1.821 0-1.378-1.122-2.5-2.5-2.5h-2.5c-.276 0-.5.224-.5.5s.224.5.5.5h2.5c.827 0 1.5.673 1.5 1.5s-.673 1.5-1.5 1.5h-1.5c-.276 0-.5.224-.5.5s.224.5.5.5h2c.827 0 1.5.673 1.5 1.5s-.673 1.5-1.5 1.5h-3c-.276 0-.5.224-.5.5s.224.5.5.5h3c1.378 0 2.5-1.122 2.5-2.5 0-.941-.529-1.752-1.299-2.179zm8.299-1.321v3c0 1.654-1.346 3-3 3s-3-1.346-3-3v-3c0-1.654 1.346-3 3-3s3 1.346 3 3zm-1 0c0-1.103-.897-2-2-2s-2 .897-2 2v3c0 1.103.897 2 2 2s2-.897 2-2z"/></svg>