<svg id="Layer_1" viewBox="0 0 24 24" xmlns="http://www.w3.org/2000/svg" data-name="Layer 1"><path d="m6.756 13.976c-.256.085-.545-.056-.63-.322-.106-.328-.117-.655-.125-.894-.021-.654.305-1.405.811-1.869.816-.749 1.615-.891 2.805-.891 1.37.004 2.869.254 3.963.429.272.043.458.3.415.572-.045.273-.297.459-.573.415-1.108-.177-2.523-.413-3.805-.416-1.12 0-1.598.141-2.129.628-.33.302-.497.792-.486 1.099.006.199.014.425.076.619.085.263-.059.544-.321.629zm10.244 5.024c0 2.757-2.243 5-5 5s-5-2.243-5-5c0-.726.163-1.412.443-2.035l-.352-.352c-.29-.29-.29-.759 0-1.048l1.365-1.365c.289-.29.759-.29 1.048 0l.32.32c.66-.322 1.392-.519 2.175-.519 2.757 0 5 2.243 5 5zm-1 0c0-2.206-1.794-4-4-4s-4 1.794-4 4 1.794 4 4 4 4-1.794 4-4zm8-14.5v13c0 2.481-2.019 4.5-4.5 4.5h-.5c-.276 0-.5-.224-.5-.5s.224-.5.5-.5h.5c1.93 0 3.5-1.57 3.5-3.5v-9.5h-22v9.5c0 1.93 1.57 3.5 3.5 3.5h.5c.276 0 .5.224.5.5s-.224.5-.5.5h-.5c-2.481 0-4.5-2.019-4.5-4.5v-13c0-2.481 2.019-4.5 4.5-4.5h15c2.481 0 4.5 2.019 4.5 4.5zm-1 2.5v-2.5c0-1.93-1.57-3.5-3.5-3.5h-15c-1.93 0-3.5 1.57-3.5 3.5v2.5zm-19-4c-.552 0-1 .448-1 1s.448 1 1 1 1-.448 1-1-.448-1-1-1zm3 0c-.552 0-1 .448-1 1s.448 1 1 1 1-.448 1-1-.448-1-1-1zm3 0c-.552 0-1 .448-1 1s.448 1 1 1 1-.448 1-1-.448-1-1-1zm9 8c0-.205-.125-.388-.314-.464l-.872-.349-.349-.872c-.076-.19-.26-.314-.464-.314s-.388.125-.464.314l-.347.867-.866.328c-.191.072-.319.254-.323.458-.004.205.117.391.306.47l.879.37.351.877c.076.19.26.314.464.314s.388-.125.464-.314l.349-.872.872-.349c.19-.076.314-.26.314-.464z"/></svg>