<?xml version="1.0" encoding="UTF-8"?>
<svg xmlns="http://www.w3.org/2000/svg" id="Layer_1" data-name="Layer 1" viewBox="0 0 24 24">
  <path d="M23.5,23h-1.5V13.5c0-.276-.224-.5-.5-.5s-.5,.224-.5,.5v9.5h-2.998l-.002-7.5c0-.276-.224-.5-.5-.5s-.5,.224-.5,.5l.002,7.5H7.505c-1.109,0-2.175-.279-3.121-.799,.404-2.776,2.044-9.088,8.582-10.965,.301,.145,.606,.287,.913,.426,.691,.313,1.406,.637,1.997,1.009,.347,.218,.735,.327,1.123,.328,0,0,0,0,.001,0,0,0,0,0,0,0,.002,0,.005,.001,.007,.001,.392,0,.783-.11,1.132-.33,.59-.371,1.305-.695,1.996-1.008,1.635-.74,3.309-1.508,3.748-3.023,.085-.144,.118-.773,.118-.798,0-.965-.382-1.999-1.002-2.963V1.677c0-.647-.362-1.225-.944-1.507-.582-.283-1.26-.21-1.767,.191l-1.356,1.059c-.646-.264-1.3-.419-1.926-.419s-1.285,.157-1.934,.423l-1.358-1.061c-.51-.402-1.187-.477-1.769-.192-.583,.282-.944,.86-.944,1.507v3.22c-.613,.959-.989,1.986-.989,2.944,0,1.269,.742,2.092,1.751,2.739-3.106,1.147-5.082,3.248-6.334,5.433,.276-2.426,.433-4.92,.513-7.274,.04-.072,.084-4.177,.069-5.748-.016-1.678-1.333-2.992-3-2.992C1.375,0,.04,1.33,.013,2.974c0,.007,0,.013,0,.02l-.007,13.502c0,2.004,.779,3.888,2.195,5.306,1.417,1.418,3.301,2.198,5.305,2.198h15.995c.276,0,.5-.224,.5-.5s-.224-.5-.5-.5Zm-3.777-12.249c-.609,.276-1.224,.569-1.794,.896-.143-.377-.502-.648-.929-.648-.425,0-.782,.267-.927,.64-.567-.324-1.177-.615-1.781-.889-.77-.349-1.512-.692-2.101-1.094,1.291,.312,2.828,.341,3.311,.341,.381,0,.746-.085,1.085-.252,.263-.129,.562-.129,.825,0,.339,.167,.705,.252,1.085,.252,.479,0,1.95-.026,3.255-.293-.577,.382-1.29,.712-2.03,1.047Zm3.257-2.755c-.007,.08-.016,.159-.033,.234-.412,.392-2.515,.768-4.448,.768-.226,0-.443-.05-.644-.149-.271-.133-.562-.2-.854-.2s-.583,.067-.854,.2c-.201,.099-.418,.149-.644,.149-1.944,0-4.139-.431-4.271-.834,0-.103,.094-.307,.359-.571,.771-.77,2.522-1.591,3.904-1.591h.007c.226,0,.442,.051,.645,.15,.543,.266,1.166,.266,1.708,0,.202-.1,.419-.15,.645-.15,1.856,0,4.136,1.332,4.482,1.994Zm-2.074-6.849c.205-.162,.478-.193,.713-.078,.235,.114,.381,.347,.381,.607v1.928c-.614-.661-1.325-1.244-2.077-1.69l.983-.768Zm-2.153,1.285c.008,.004,.016,.007,.023,.011,1.626,.747,3.219,2.339,3.892,3.923-1.203-.798-2.949-1.364-4.17-1.364-.38,0-.746,.085-1.086,.252-.262,.129-.563,.13-.826,0-.343-.168-.743-.272-1.092-.252-1.488,0-3.183,.729-4.208,1.531,.852-2.223,3.574-4.533,5.721-4.533,.557,0,1.153,.163,1.745,.432Zm-6.751-.755c0-.261,.146-.494,.381-.608,.234-.114,.507-.083,.715,.08l.986,.77c-.754,.449-1.467,1.036-2.082,1.7V1.677Zm-7.039,6.324H1.01l.002-3H5.016c-.005,.95-.023,1.962-.052,3Zm-.185,4H1.008s.002-3,.002-3h3.926c-.036,.981-.091,1.988-.157,3Zm-3.771,1.001h3.703c-.077,1.004-.172,2.006-.286,2.999H1.006l.002-2.999Zm.005-9.976C1.012,1.908,1.909,1,3.012,1c1.111,0,1.99,.879,2,2.001,.003,.317,.002,.665,.003,1H1.012v-.972s0-.004,0-.004Zm.017,13.975h3.267c-.131,.993-.275,1.973-.453,2.91-.165,.614-.289,1.186-.375,1.68-.194-.154-.382-.317-.56-.495-1.108-1.109-1.761-2.548-1.879-4.095ZM19,6.5c.552,0,1,.448,1,1s-.448,1-1,1-1-.448-1-1,.448-1,1-1Zm-3,1c0,.552-.448,1-1,1s-1-.448-1-1,.448-1,1-1,1,.448,1,1Z"/>
</svg>
