<svg id="Layer_1" viewBox="0 0 24 24" xmlns="http://www.w3.org/2000/svg" data-name="Layer 1"><path d="m8.5 6c1.378 0 2.5-1.121 2.5-2.5s-1.122-2.5-2.5-2.5-2.5 1.121-2.5 2.5 1.122 2.5 2.5 2.5zm0-4c.827 0 1.5.673 1.5 1.5s-.673 1.5-1.5 1.5-1.5-.673-1.5-1.5.673-1.5 1.5-1.5zm12.443 7.269-4.42-8.465c-.199-.356-.526-.609-.92-.715-.394-.109-.804-.05-1.131.146l-1.204.63c-.245.128-.339.431-.211.675.128.245.43.337.675.212l1.228-.644c.117-.07.253-.09.385-.053.131.035.24.119.299.225l4.031 7.721h-4.586c-.343 0-.682-.05-1.008-.148l-5.977-1.795c-.671-.127-1.312.051-1.711.48-.361.389-.483.924-.334 1.476l1.89 6.663-4.198 7.582c-.134.241-.046.546.195.68.237.132.545.049.68-.195l4.286-7.742h2.997c.057.348.092.699.092 1.053v6.447c0 .276.224.5.5.5s.5-.224.5-.5v-6.447c0-.748-.112-1.49-.332-2.206l-1.823-5.924 2.946.886c.419.127.855.191 1.297.191h5.412c.175 0 .337-.092.428-.241.09-.149.096-.335.016-.49zm-9.274 5.731h-2.873l-1.774-6.254c-.057-.212-.021-.395.104-.528.164-.177.458-.239.74-.191l1.826.549z"/></svg>