<?xml version="1.0" encoding="UTF-8"?>
<svg xmlns="http://www.w3.org/2000/svg" id="Layer_1" data-name="Layer 1" viewBox="0 0 24 24">
  <path d="m22.479,13.271l-1.246-1.246c-.661-.661-1.54-1.025-2.475-1.025h-6.257v-2h7c1.378,0,2.5-1.122,2.5-2.5v-2c0-1.378-1.122-2.5-2.5-2.5h-7.007l.007-1.498c.001-.276-.222-.501-.498-.502-.261.016-.5.222-.502.498l-.007,1.502h-6.25c-.935,0-1.814.364-2.475,1.025l-1.246,1.246c-.677.677-.677,1.78,0,2.457l1.246,1.246c.661.661,1.54,1.025,2.475,1.025h6.257v2h-7c-1.378,0-2.5,1.122-2.5,2.5v2c0,1.378,1.122,2.5,2.5,2.5h6.991l.009,5.501c0,.276.224.499.5.499h0c.276,0,.5-.225.499-.501l-.009-5.499h6.267c.935,0,1.814-.364,2.475-1.025l1.246-1.246c.677-.677.677-1.78,0-2.457ZM3.475,7.268l-1.246-1.246c-.139-.139-.216-.325-.216-.521s.077-.382.216-.521l1.246-1.246c.472-.472,1.1-.732,1.768-.732h14.257c.827,0,1.5.673,1.5,1.5v2c0,.827-.673,1.5-1.5,1.5H5.243c-.668,0-1.296-.26-1.768-.732Zm18.297,7.754l-1.246,1.246c-.472.472-1.1.732-1.768.732H4.5c-.827,0-1.5-.673-1.5-1.5v-2c0-.827.673-1.5,1.5-1.5h14.257c.668,0,1.296.26,1.768.732l1.246,1.246c.139.139.216.325.216.521s-.077.382-.216.521Z"/>
</svg>
