<svg id="Layer_1" viewBox="0 0 24 24" xmlns="http://www.w3.org/2000/svg" data-name="Layer 1"><path d="m17.5 11c-3.584 0-6.5 2.916-6.5 6.5s2.916 6.5 6.5 6.5 6.5-2.916 6.5-6.5-2.916-6.5-6.5-6.5zm0 12c-3.032 0-5.5-2.467-5.5-5.5s2.468-5.5 5.5-5.5 5.5 2.467 5.5 5.5-2.468 5.5-5.5 5.5zm3.5-5.5c0 .276-.224.5-.5.5h-2.5v2.5c0 .276-.224.5-.5.5s-.5-.224-.5-.5v-2.5h-2.5c-.276 0-.5-.224-.5-.5s.224-.5.5-.5h2.5v-2.5c0-.276.224-.5.5-.5s.5.224.5.5v2.5h2.5c.276 0 .5.224.5.5zm-3.198-11.525c.116.291.198.597.198.92v1.605c0 .276.224.5.5.5s.5-.224.5-.5v-1.605c0-1.26-.682-2.428-1.778-3.048l-6.008-3.394c-1.064-.601-2.386-.6-3.446.002l-5.993 3.392c-1.096.62-1.775 1.787-1.775 3.046v7.344c0 1.252.676 2.417 1.764 3.039l6.021 3.442c.176.1.357.184.544.252.253.093.547-.037.641-.3.095-.259-.04-.546-.299-.641-.134-.048-.265-.108-.39-.18l-6.021-3.442c-.777-.444-1.26-1.276-1.26-2.17v-7.344c0-.323.082-.63.199-.921l7.8 4.458v3.07c0 .276.225.5.501.5s.5-.224.5-.5v-3.065s7.802-4.46 7.802-4.46zm-15.534-1.258 5.992-3.392c.759-.43 1.703-.432 2.462 0l6.008 3.395c.2.113.379.252.538.411l-7.764 4.438-7.771-4.443c.157-.158.336-.296.534-.409z"/></svg>