<svg id="Layer_1" viewBox="0 0 24 24" xmlns="http://www.w3.org/2000/svg" data-name="Layer 1"><path d="m15.465 10.536c.943.944 2.199 1.464 3.535 1.464s2.592-.52 3.535-1.464c1.924-1.923 1.956-5.048.077-7.269-.004-.004-.007-.008-.011-.012l-2.547-2.824c-.228-.222-.503-.432-1.055-.432-.498 0-.828.21-1.076.455l-2.536 2.812c-1.879 2.221-1.847 5.346.077 7.269zm.676-6.612 2.463-2.715c.152-.167.297-.217.42-.217s.238.07.384.21l2.446 2.717c1.536 1.82 1.525 4.36-.025 5.91-1.51 1.511-4.146 1.511-5.656 0-1.553-1.552-1.562-4.095-.031-5.904zm-3.641 14.029v3.215c0 .883-.401 1.7-1.102 2.241-.502.388-1.102.591-1.716.591-.237 0-.475-.03-.711-.091-5.282-1.374-8.971-6.217-8.971-11.909 0-.451.025-.91.075-1.364.609-5.511 5.05-9.952 10.561-10.561.456-.05.915-.075 1.364-.075 1.1 0 1.838.114 2.608.284.27.06.439.327.38.596s-.314.439-.597.38c-.727-.161-1.38-.261-2.392-.261-.413 0-.835.023-1.255.069-5.048.559-9.117 4.628-9.675 9.677-.046.418-.069.84-.069 1.255 0 5.183 3.382 9.682 8.224 10.941.546.143 1.115.024 1.563-.323.454-.351.713-.879.713-1.45v-3.219c-2.52-.255-4.5-2.364-4.5-4.949v-2h-.5c-.276 0-.5-.224-.5-.5s.224-.5.5-.5h2.5v-3.5c0-.276.224-.5.5-.5s.5.224.5.5v3.5h2.5c.276 0 .5.224.5.5s-.224.5-.5.5h-4.5v2c0 2.206 1.794 4 4 4 2.042 0 3.751-1.528 3.976-3.555.03-.274.277-.474.552-.442.274.03.473.278.442.552-.262 2.364-2.146 4.165-4.47 4.398zm11.399-4.389c-.599 4.587-3.836 8.461-8.247 9.87-.257.083-.545-.059-.629-.325-.084-.263.062-.544.324-.628 4.044-1.291 7.012-4.841 7.56-9.045.036-.274.291-.468.561-.431.274.036.467.287.432.56z"/></svg>