<svg id="Layer_1" viewBox="0 0 24 24" xmlns="http://www.w3.org/2000/svg" data-name="Layer 1"><path d="m5.701 12c1.492-.01 2.554-.472 3.136-.911.919.573 2.001.91 3.162.91s2.244-.337 3.163-.911c.582.439 1.642.901 3.135.911 1.293 0 2.4-.848 2.646-2.037.232-1.124-.278-2.25-1.283-2.809-.346-.187-1.399-.788-1.728-2.004-.415-2.906-2.913-5.15-5.933-5.15s-5.536 2.262-5.937 5.184c-.216 1.101-1.271 1.741-1.734 1.978-.993.553-1.504 1.679-1.271 2.802.245 1.189 1.352 2.037 2.645 2.037zm13.484-3.966c.609.339.922 1.033.779 1.727-.15.724-.905 1.259-1.71 1.238-1.056-.023-1.769-.271-2.245-.549.969-.874 1.651-2.055 1.89-3.391.497.529 1.032.834 1.285.975zm-7.185-7.034c2.757 0 5 2.243 5 5s-2.243 5-5 5-5-2.243-5-5 2.243-5 5-5zm-7.139 7.01c.248-.136.768-.431 1.243-.915.245 1.322.925 2.49 1.885 3.356-.476.279-1.19.526-2.245.55-.868.038-1.56-.514-1.71-1.238-.143-.693.17-1.387.826-1.752zm7.139 5.99c-4.963 0-9 4.038-9 9v.5c0 .276.224.5.5.5s.5-.224.5-.5v-.5c0-2.52 1.174-4.768 3-6.235v2.972c-.025 1.023 1.236 1.651 2.046.987l2.454-2.129v4.905c0 .276.224.5.5.5s.5-.224.5-.5v-4.905l2.481 2.151c.787.634 2.053-.002 2.019-1.009v-2.972c1.826 1.468 3 3.715 3 6.235v.5c0 .276.224.5.5.5s.5-.224.5-.5v-.5c0-4.962-4.037-9-9-9zm4 5.737c-.034.241-.193.316-.392.231l-3.281-2.846c-.192-.157-.462-.157-.654 0l-3.254 2.824c-.229.116-.375.043-.419-.209v-3.654c1.178-.684 2.542-1.082 4-1.082s2.822.398 4 1.082z"/></svg>