<svg id="Layer_1" viewBox="0 0 24 24" xmlns="http://www.w3.org/2000/svg" data-name="Layer 1"><path d="m23 19.092v-2.592c0-.827-.673-1.5-1.5-1.5h-2c-.827 0-1.5.673-1.5 1.5v2.592c-.581.207-1 .757-1 1.408v1c0 1.379 1.121 2.5 2.5 2.5h2c1.379 0 2.5-1.121 2.5-2.5v-1c0-.651-.419-1.201-1-1.408zm-4-2.592c0-.275.225-.5.5-.5h2c.275 0 .5.225.5.5v2.5h-3zm4 5c0 .827-.673 1.5-1.5 1.5h-2c-.827 0-1.5-.673-1.5-1.5v-1c0-.275.225-.5.5-.5h4c.275 0 .5.225.5.5zm-17-18v-3c0-.276.224-.5.5-.5s.5.224.5.5v3c0 .276-.224.5-.5.5s-.5-.224-.5-.5zm-4.135.98-1.782-2.705c-.152-.231-.089-.541.142-.692.23-.15.541-.087.692.143l1.782 2.705c.152.23.088.541-.143.692-.228.151-.54.09-.692-.143zm7.635 2.52h-3c-3.033 0-5.5 2.467-5.5 5.5v4.5c0 3.859 3.14 7 7 7s7-3.141 7-7v-4.5c0-3.033-2.467-5.5-5.5-5.5zm-3 1h1v5h-5.5v-.5c0-2.481 2.019-4.5 4.5-4.5zm1.5 15c-3.309 0-6-2.691-6-6v-3h12v3c0 3.309-2.691 6-6 6zm6-10h-5.5v-5h1c2.481 0 4.5 2.019 4.5 4.5z"/></svg>