<?xml version="1.0" encoding="UTF-8"?>
<svg xmlns="http://www.w3.org/2000/svg" id="Layer_1" data-name="Layer 1" viewBox="0 0 24 24">
  <path d="m20.5,0H3.5C1.57,0,0,1.57,0,3.5v13c0,1.93,1.57,3.5,3.5,3.5h3.605l3.898,3.283c.285.254.645.38,1.001.38.352,0,.702-.123.978-.368l3.985-3.295h3.532c1.93,0,3.5-1.57,3.5-3.5V3.5c0-1.93-1.57-3.5-3.5-3.5Zm2.5,16.5c0,1.379-1.121,2.5-2.5,2.5h-3.712c-.116,0-.229.041-.318.114l-4.138,3.421c-.188.168-.474.17-.674-.009l-4.048-3.409c-.09-.075-.204-.117-.322-.117h-3.788c-1.379,0-2.5-1.121-2.5-2.5V3.5c0-1.379,1.121-2.5,2.5-2.5h17c1.379,0,2.5,1.121,2.5,2.5v13ZM14.75,5c-1.199,0-2.189.551-2.75,1.434-.561-.883-1.551-1.434-2.75-1.434-1.792,0-3.25,1.57-3.25,3.5,0,3.363,5.479,7.246,5.713,7.409.086.061.187.091.287.091s.201-.03.287-.091c.233-.163,5.713-4.046,5.713-7.409,0-1.93-1.458-3.5-3.25-3.5Zm-2.75,9.883c-1.626-1.203-5-4.163-5-6.383,0-1.379,1.01-2.5,2.25-2.5,1.325,0,2.25.916,2.25,2.228v.272c0,.276.224.5.5.5s.5-.224.5-.5v-.272c0-1.312.925-2.228,2.25-2.228,1.24,0,2.25,1.121,2.25,2.5,0,2.22-3.374,5.18-5,6.383Z"/>
</svg>
