<?xml version="1.0" encoding="UTF-8"?>
<svg xmlns="http://www.w3.org/2000/svg" id="Layer_1" data-name="Layer 1" viewBox="0 0 24 24">
  <path d="M12,0C5.383,0,0,5.383,0,12s5.383,12,12,12,12-5.383,12-12S18.617,0,12,0Zm11,12c0,2.853-1.101,5.447-2.889,7.404l-6.681-6.681c1.509-.584,2.57-2.05,2.57-3.723,0-2.206-1.794-4-4-4-1.673,0-3.139,1.061-3.723,2.57l-3.681-3.681c1.957-1.788,4.551-2.889,7.404-2.889,6.065,0,11,4.935,11,11Zm-13.922-3.629c.294-1.363,1.508-2.371,2.922-2.371,1.654,0,3,1.346,3,3,0,1.414-1.008,2.628-2.371,2.922l-3.55-3.55Zm-2.078,13.415v-.786c0-2.605,1.954-4.746,4.545-4.979,.275-.025,.478-.268,.453-.543-.025-.275-.277-.479-.543-.453-3.11,.28-5.455,2.849-5.455,5.976v.208c-3.006-1.966-5-5.356-5-9.208,0-2.853,1.101-5.447,2.889-7.404l15.515,15.515c-1.957,1.788-4.551,2.889-7.404,2.889-1.801,0-3.498-.444-5-1.214Z"/>
</svg>
