<svg id="Layer_1" viewBox="0 0 24 24" xmlns="http://www.w3.org/2000/svg" data-name="Layer 1"><path d="m8 13.5v-11c0-1.38 1.12-2.5 2.5-2.5h3c1.38 0 2.5 1.12 2.5 2.5v11c0 .28-.22.5-.5.5s-.5-.22-.5-.5v-2.5h-2.5c-.28 0-.5-.22-.5-.5s.22-.5.5-.5h2.5v-2h-2.5c-.28 0-.5-.22-.5-.5s.22-.5.5-.5h2.5v-2h-2.5c-.28 0-.5-.22-.5-.5s.22-.5.5-.5h2.5v-1.5c0-.83-.67-1.5-1.5-1.5h-3c-.83 0-1.5.67-1.5 1.5v11c0 .28-.22.5-.5.5s-.5-.22-.5-.5zm-7.15-8.03 2.15-2.15v7.18c0 .28.22.5.5.5s.5-.22.5-.5v-7.18l2.15 2.15c.2.2.51.2.71 0s.2-.51 0-.71l-2.35-2.35c-.56-.53-1.46-.53-2.02 0l-2.34 2.35c-.2.2-.2.51 0 .71s.51.2.71 0zm17 0 2.15-2.15v7.18c0 .28.22.5.5.5s.5-.22.5-.5v-7.18l2.15 2.15c.2.2.51.2.71 0s.2-.51 0-.71l-2.35-2.35c-.56-.53-1.46-.53-2.02 0l-2.35 2.35c-.2.2-.2.51 0 .71s.51.2.71 0zm5.32 16.88c-.48.42-1.11.65-1.76.65-1.17 0-2.32-.72-2.67-1.67-.14-.39-.79-.39-.94 0-.35.95-1.5 1.67-2.67 1.67s-2.32-.72-2.67-1.67c-.14-.39-.79-.39-.94 0-.35.95-1.5 1.67-2.67 1.67s-2.31-.72-2.67-1.67c-.14-.39-.79-.39-.94 0-.35.95-1.5 1.67-2.67 1.67-.65 0-1.28-.23-1.76-.65-.21-.18-.52-.16-.71.05s-.16.53.05.71c.67.57 1.52.89 2.42.89 1.24 0 2.43-.59 3.14-1.49.7.9 1.9 1.49 3.14 1.49s2.43-.59 3.14-1.49c.7.9 1.9 1.49 3.14 1.49s2.43-.59 3.14-1.49c.7.9 1.9 1.49 3.14 1.49.89 0 1.75-.32 2.42-.89.21-.18.23-.5.05-.71s-.5-.23-.71-.05zm0-6c-.48.42-1.11.65-1.76.65-1.17 0-2.32-.72-2.67-1.67-.14-.39-.79-.39-.94 0-.35.95-1.5 1.67-2.67 1.67s-2.32-.72-2.67-1.67c-.14-.39-.79-.39-.94 0-.35.95-1.5 1.67-2.67 1.67s-2.31-.72-2.67-1.67c-.14-.39-.79-.39-.94 0-.35.95-1.5 1.67-2.67 1.67-.65 0-1.28-.23-1.76-.65-.21-.18-.52-.16-.71.05-.18.21-.16.53.05.71.67.57 1.52.89 2.42.89 1.24 0 2.43-.59 3.14-1.49.7.9 1.9 1.49 3.14 1.49s2.43-.59 3.14-1.49c.7.9 1.9 1.49 3.14 1.49s2.43-.59 3.14-1.49c.7.9 1.9 1.49 3.14 1.49.89 0 1.75-.32 2.42-.89.21-.18.23-.5.05-.71s-.5-.23-.71-.05z"/></svg>