<svg id="Layer_1" viewBox="0 0 24 24" xmlns="http://www.w3.org/2000/svg" data-name="Layer 1"><path d="m.5 11c-.276 0-.5-.224-.5-.5v-3c0-2.481 2.019-4.5 4.5-4.5h3.176l-2.146-2.146c-.195-.195-.195-.512 0-.707s.512-.195.707 0l2.346 2.346c.556.556.556 1.46 0 2.016l-2.346 2.346c-.195.195-.512.195-.707 0s-.195-.512 0-.707l2.146-2.146h-3.176c-1.93 0-3.5 1.57-3.5 3.5v3c0 .276-.224.5-.5.5zm20.982 4.417c-.275-.27-.559-.415-.996-.415-.369 0-.738.134-1.019.415l-2.346 2.346c-.195.195-.195.512 0 .707s.512.195.707 0l2.172-2.172v3.202c0 1.93-1.57 3.5-3.5 3.5h-3c-.276 0-.5.224-.5.5s.224.5.5.5h3c2.481 0 4.5-2.019 4.5-4.5v-3.15l2.121 2.121c.195.195.512.195.707 0s.195-.512 0-.707l-2.346-2.346zm-13.482 2.583c0 1.103-.897 2-2 2s-2-.897-2-2 .897-2 2-2 2 .897 2 2zm-1 0c0-.551-.449-1-1-1s-1 .449-1 1 .449 1 1 1 1-.449 1-1zm3.64-.987-.234.137c.064.3.094.576.094.85s-.03.551-.094.85l.234.137c.345.203.591.528.692.917.101.388.044.792-.16 1.137-.418.713-1.338.952-2.053.533l-.223-.131c-.408.34-.881.606-1.396.786v.271c0 .827-.673 1.5-1.5 1.5s-1.5-.673-1.5-1.5v-.271c-.515-.18-.988-.446-1.396-.786l-.223.131c-.714.418-1.635.18-2.053-.533-.203-.345-.26-.749-.159-1.137s.347-.713.692-.917l.234-.137c-.064-.3-.094-.576-.094-.85s.03-.551.094-.85l-.234-.137c-.345-.203-.591-.528-.692-.917-.101-.388-.044-.792.16-1.137.203-.345.528-.591.916-.692.388-.1.792-.044 1.137.159l.223.131c.408-.34.881-.606 1.396-.786v-.271c0-.827.673-1.5 1.5-1.5s1.5.673 1.5 1.5v.271c.515.18.988.446 1.396.786l.223-.131c.345-.203.75-.259 1.137-.159.388.101.713.347.917.692.203.345.26.749.159 1.136-.101.388-.347.713-.692.917zm-1.063-.536.556-.327c.235-.131.318-.455.178-.684-.132-.235-.456-.321-.685-.178l-.541.318c-.197.116-.446.083-.607-.078-.43-.43-.984-.743-1.603-.903-.221-.057-.375-.256-.375-.484v-.642c0-.276-.224-.5-.5-.5s-.5.224-.5.5v.642c0 .228-.154.427-.375.484-.619.16-1.173.473-1.603.903-.162.161-.411.194-.607.078l-.541-.318c-.554-.339-1.071.544-.507.862l.556.327c.196.115.29.349.228.568-.103.361-.151.664-.151.955s.048.594.151.955c.062.219-.031.453-.228.568l-.556.327c-.235.131-.318.455-.178.684.131.235.456.32.685.178l.541-.318c.195-.115.446-.084.607.078.429.43.983.742 1.603.903.221.057.375.256.375.484v.642c0 .276.224.5.5.5s.5-.224.5-.5v-.642c0-.228.154-.427.375-.484.619-.161 1.173-.473 1.603-.903.161-.162.41-.193.607-.078l.541.318c.229.143.553.056.684-.178.141-.229.058-.553-.177-.684l-.556-.327c-.196-.115-.29-.349-.228-.568.103-.361.151-.664.151-.955s-.048-.594-.151-.955c-.062-.219.031-.453.228-.568zm7.423-2.477c-3.86 0-7-3.14-7-7s3.14-7 7-7 7 3.14 7 7-3.14 7-7 7zm0-1c3.309 0 6-2.691 6-6s-2.691-6-6-6-6 2.691-6 6 2.691 6 6 6zm.5-2v-.5h.756c.983 0 1.783-.821 1.783-1.83 0-.811-.53-1.533-1.309-1.764l-3.094-.777c-.337-.1-.572-.429-.572-.799 0-.458.351-.83.783-.83h2.411c.356 0 .667.255.757.62.066.268.339.435.605.366.268-.066.432-.337.366-.605-.2-.812-.911-1.38-1.728-1.38h-.757v-.5c0-.276-.224-.5-.5-.5s-.5.224-.5.5v.5h-.653c-.983 0-1.783.821-1.783 1.83 0 .811.53 1.533 1.309 1.764l3.094.777c.337.1.572.429.572.799 0 .458-.351.83-.783.83h-2.513c-.356 0-.667-.255-.757-.62-.066-.268-.338-.433-.605-.366-.268.066-.432.337-.366.605.2.812.911 1.38 1.728 1.38h.757v.5c0 .276.224.5.5.5s.5-.224.5-.5z"/></svg>