<svg id="Layer_1" viewBox="0 0 24 24" xmlns="http://www.w3.org/2000/svg" data-name="Layer 1"><path d="m20 0h-16c-2.206 0-4 1.794-4 4v3c0 2.206 1.794 4 4 4h16c2.206 0 4-1.794 4-4v-3c0-2.206-1.794-4-4-4zm-5.092 1c-.207.581-.757 1-1.408 1h-3c-.651 0-1.201-.419-1.408-1zm-13.908 3c0-1.654 1.346-3 3-3h4.051c.232 1.14 1.242 2 2.449 2h3c1.208 0 2.217-.86 2.449-2h4.051c1.654 0 3 1.346 3 3v1h-22zm13.908 2c-.207.581-.757 1-1.408 1h-3c-.651 0-1.201-.419-1.408-1zm5.092 4h-16c-1.654 0-3-1.346-3-3v-1h7.051c.232 1.14 1.242 2 2.449 2h3c1.208 0 2.217-.86 2.449-2h7.051v1c0 1.654-1.346 3-3 3zm4 13.5c0 .276-.224.5-.5.5s-.5-.224-.5-.5c0-5.238-4.262-9.5-9.5-9.5h-2.857c-.905 0-1.643.737-1.643 1.643 0 .812.605 1.511 1.409 1.625l5.655.736c.274.036.467.287.432.561-.036.273-.29.47-.561.432l-5.661-.737c-.425-.061-.809-.229-1.142-.464l-5.831-3.576c-.684-.437-1.668-.203-2.077.5-.431.703-.212 1.631.486 2.068l7.595 4.767c1.516.952 3.262 1.454 5.052 1.454.044 0 1.096-.008 1.143-.008.274 0 .498.222.5.496.002.276-.221.502-.496.504-.048 0-1.101.008-1.146.008-1.979 0-3.909-.555-5.584-1.606l-7.594-4.768c-1.161-.728-1.524-2.27-.809-3.438.68-1.167 2.318-1.557 3.454-.831l4.203 2.578c-.012-.1-.028-.199-.028-.302 0-1.457 1.186-2.643 2.643-2.643h2.857c5.79 0 10.5 4.71 10.5 10.5z"/></svg>