<?xml version="1.0" encoding="UTF-8"?>
<svg xmlns="http://www.w3.org/2000/svg" id="Layer_1" data-name="Layer 1" viewBox="0 0 24 24">
  <path d="M23.847,17.64c.199,.191,.205,.508,.014,.707-.098,.102-.229,.153-.36,.153-.125,0-.25-.046-.347-.14l-2.153-2.07v4.21c0,1.93-1.57,3.5-3.5,3.5h-3c-.276,0-.5-.224-.5-.5s.224-.5,.5-.5h3c1.378,0,2.5-1.122,2.5-2.5v-4.21l-2.153,2.07c-.199,.192-.516,.185-.707-.014-.191-.199-.185-.516,.014-.707l2.301-2.212c.574-.573,1.518-.573,2.099,.006l2.294,2.206ZM2.447,8.564c.291,.291,.674,.437,1.055,.437,.379,0,.757-.144,1.043-.43l2.301-2.21c.199-.191,.206-.508,.014-.707-.191-.199-.508-.206-.707-.014l-2.154,2.069V3.5c0-1.378,1.122-2.5,2.5-2.5h3c.276,0,.5-.224,.5-.5s-.224-.5-.5-.5h-3c-1.93,0-3.5,1.57-3.5,3.5V7.709L.846,5.64c-.199-.191-.515-.185-.707,.014-.191,.199-.185,.516,.014,.707l2.293,2.204Zm9.553,5.936v4c0,1.93-1.57,3.5-3.5,3.5h-3.381l-2.654,1.739c-1.001,.712-2.505-.097-2.465-1.323v-7.916c0-1.93,1.57-3.5,3.5-3.5h5c1.93,0,3.5,1.57,3.5,3.5Zm-1,0c0-1.378-1.122-2.5-2.5-2.5H3.5c-1.378,0-2.5,1.122-2.5,2.5v7.916c-.017,.455,.544,.755,.914,.489l2.782-1.823c.082-.053,.177-.082,.274-.082h3.53c1.378,0,2.5-1.122,2.5-2.5v-4ZM24,3.5v7.916c.039,1.229-1.466,2.036-2.468,1.321l-2.651-1.736h-3.381c-1.93,0-3.5-1.57-3.5-3.5V3.5c0-1.93,1.57-3.5,3.5-3.5h5c1.93,0,3.5,1.57,3.5,3.5Zm-1,0c0-1.378-1.122-2.5-2.5-2.5h-5c-1.378,0-2.5,1.122-2.5,2.5V7.5c0,1.378,1.122,2.5,2.5,2.5h3.53c.097,0,.192,.028,.274,.082l2.779,1.82c.371,.27,.933-.03,.917-.486V3.5Z"/>
</svg>
