<?xml version="1.0" encoding="UTF-8"?>
<svg xmlns="http://www.w3.org/2000/svg" id="Layer_1" data-name="Layer 1" viewBox="0 0 24 24">
  <path d="M23.854,23.146l-3-3c.705-.862,1.146-1.948,1.146-3.146,0-2.757-2.243-5-5-5s-5,2.243-5,5,2.243,5,5,5c1.198,0,2.284-.441,3.146-1.146l3,3c.452,.466,1.172-.255,.707-.707Zm-6.854-2.146c-2.206,0-4-1.794-4-4s1.794-4,4-4,4,1.794,4,4-1.794,4-4,4Zm-6.5-6.5c0,.276-.224,.5-.5,.5h-1c-.133,0-.26-.053-.354-.146l-.854-.854H2.5c-.827,0-1.5,.673-1.5,1.5s.673,1.5,1.5,1.5h7c.276,0,.5,.224,.5,.5s-.224,.5-.5,.5H2.5c-1.378,0-2.5-1.122-2.5-2.5,0-1.207,.86-2.217,2-2.449V4.5C2,2.019,4.019,0,6.5,0h11c2.481,0,4.5,2.019,4.5,4.5v7c0,.276-.224,.5-.5,.5s-.5-.224-.5-.5V4.5c0-1.93-1.57-3.5-3.5-3.5H6.5c-1.93,0-3.5,1.57-3.5,3.5V13h5c.133,0,.26,.053,.354,.146l.854,.854h.793c.276,0,.5,.224,.5,.5Z"/>
</svg>
