<?xml version="1.0" encoding="UTF-8"?>
<svg xmlns="http://www.w3.org/2000/svg" id="Layer_1" data-name="Layer 1" viewBox="0 0 24 24">
  <path d="M21.5,11h-1.5V5.5c0-1.327-.771-2.561-1.962-3.144L14.038,.4c-.978-.478-2.098-.478-3.075,0l-4,1.956c-1.192,.583-1.962,1.817-1.962,3.144v5.5h-.5c-1.146,0-2.22-.567-2.872-1.499,.29-.417,.67-.772,1.122-1.034,.239-.138,.321-.444,.182-.683-.138-.239-.444-.322-.683-.182C.863,8.403,0,9.899,0,11.5v8c0,2.481,2.019,4.5,4.5,4.5H21.5c1.378,0,2.5-1.122,2.5-2.5V13.5c0-1.378-1.122-2.5-2.5-2.5ZM6,5.5c0-.948,.55-1.829,1.402-2.246l4-1.956c.698-.342,1.498-.342,2.196,0l4,1.956c.852,.417,1.402,1.298,1.402,2.246v5.5H6V5.5ZM23,21.5c0,.827-.673,1.5-1.5,1.5H4.5c-1.93,0-3.5-1.57-3.5-3.5V11.5c0-.343,.051-.679,.147-1,.845,.941,2.064,1.5,3.353,1.5H21.5c.827,0,1.5,.673,1.5,1.5v8Zm-1.5-14c0-.276,.224-.5,.5-.5h1.5c.276,0,.5,.224,.5,.5s-.224,.5-.5,.5h-1.5c-.276,0-.5-.224-.5-.5Zm-.5,10c0,.552-.448,1-1,1s-1-.448-1-1,.448-1,1-1,1,.448,1,1Zm-3-12c0,.276-.224,.5-.5,.5h-.5v3.5c0,.276-.224,.5-.5,.5s-.5-.224-.5-.5v-3.5h-.5c-.276,0-.5-.224-.5-.5s.224-.5,.5-.5h2c.276,0,.5,.224,.5,.5Zm-5.5,.5v1h1c.276,0,.5,.224,.5,.5s-.224,.5-.5,.5h-1v1.5c0,.276-.224,.5-.5,.5s-.5-.224-.5-.5V5.5c0-.276,.224-.5,.5-.5h1.5c.276,0,.5,.224,.5,.5s-.224,.5-.5,.5h-1Zm-2-.5v3.763c.026,.783-1.137,1.021-1.418,.283l-1.082-2.529v2.484c0,.276-.224,.5-.5,.5s-.5-.224-.5-.5v-3.766c-.028-.786,1.141-1.017,1.417-.284l1.083,2.53v-2.48c0-.276,.224-.5,.5-.5s.5,.224,.5,.5Z"/>
</svg>
