<svg id="Layer_1" viewBox="0 0 24 24" xmlns="http://www.w3.org/2000/svg" data-name="Layer 1"><path d="m23.5 13.5c-.276 0-.5.224-.5.5 0 .552-.449 1-1 1h-1v-2.142c1.784-.443 3-1.983 3-4.003 0-2.215-.988-4.855-5.694-4.855h-.306v-3h4.5c.276 0 .5-.224.5-.5s-.224-.5-.5-.5h-10c-.276 0-.5.224-.5.5s.224.5.5.5h4.5v3h-9.637c-.228-.267-.363-.608-.363-.979v-.521c0-.276-.224-.5-.5-.5s-.5.224-.5.5v.521c0 1.103.707 2.063 1.759 2.393l2.825.882c.547.171.916.671.916 1.245v.761c0 .982.305 1.893.822 2.647l-9.411 5.63c-.043.028-1.078.696-1.862 1.481-.661.662-1.025 1.541-1.025 2.474s.364 1.812 1.025 2.473c.659.658 1.566.987 2.473.987s1.814-.329 2.472-.987c.791-.79 1.409-1.817 1.434-1.859l5.636-9.371c.546.493 1.204.855 1.935 1.049v2.174h-2.5c-.276 0-.5.224-.5.5s.224.5.5.5h9.5c1.103 0 2-.897 2-2 0-.276-.224-.5-.5-.5zm-18.212 8.8c-.94.938-2.59.94-3.532 0-.472-.472-.731-1.1-.731-1.766s.26-1.295.731-1.767c.133-.133.276-.261.42-.385l3.471 3.471c.008.008.02.011.029.019-.123.146-.252.292-.388.427zm1.283-1.667s-.113.186-.289.442l-3.316-3.316c.276-.201.473-.33.473-.33l7.904-4.729zm11.429-15.633h.306c2.788 0 4.307.986 4.626 3h-3.432c-.827 0-1.5-.673-1.5-1.5zm-5.5 3.302v-.761c0-1.014-.65-1.897-1.618-2.2l-1.093-.341h7.21v1.5c0 1.379 1.122 2.5 2.5 2.5h3.487c-.066 1.771-1.295 3-3.048 3h-3.741c-2.039 0-3.698-1.659-3.698-3.698zm7.5 6.698h-4v-2h4z"/></svg>