<?xml version="1.0" encoding="UTF-8"?>
<svg xmlns="http://www.w3.org/2000/svg" id="Layer_1" data-name="Layer 1" viewBox="0 0 24 24">
  <path d="M8.5,5c1.379,0,2.5-1.122,2.5-2.5s-1.121-2.5-2.5-2.5-2.5,1.122-2.5,2.5,1.121,2.5,2.5,2.5Zm0-4c.827,0,1.5,.673,1.5,1.5s-.673,1.5-1.5,1.5-1.5-.673-1.5-1.5,.673-1.5,1.5-1.5Zm7.224,12.553l-3.42-1.71c-.246-.123-.433-.344-.505-.584l-.73-2.936c-.416-1.389-1.67-2.323-3.121-2.323-1.691,0-3.354,.457-4.806,1.32l-1.228,.729c-.47,.279-.809,.744-.924,1.254L.018,12.868c-.072,.267,.084,.542,.351,.614,.27,.075,.542-.084,.614-.351l.978-3.586c.061-.265,.229-.497,.464-.637l1.229-.729c.542-.322,1.121-.565,1.717-.757l-1.29,4.647c-.363,1.509,.325,3.099,1.679,3.868l3.736,2.066c.312,.178,.506,.511,.506,.87v4.627c0,.276,.224,.5,.5,.5s.5-.224,.5-.5v-4.627c0-.718-.388-1.384-1.017-1.742l-1.783-.986,1.956-7.352,.679,2.73c.158,.526,.53,.968,1.021,1.214l3.42,1.71c.242,.122,.546,.026,.671-.224,.123-.247,.023-.547-.224-.671Zm-9.477,1.513c-.964-.547-1.455-1.683-1.2-2.745l1.436-5.176c.483-.086,.97-.145,1.464-.145,.582,0,1.114,.222,1.518,.586l-2.125,8.083-1.093-.604Zm17.749-3.547c.004,.351-.124,.703-.391,.971l-2.4,2.4c-.195,.195-.512,.195-.707,0s-.195-.512,0-.707l2.183-2.182h-6.181c-.276,0-.5-.224-.5-.5s.224-.5,.5-.5h6.109l-2.111-2.111c-.195-.195-.195-.512,0-.707s.512-.195,.707,0l2.4,2.4c.249,.259,.356,.6,.391,.937ZM4.985,17.621l-1.5,6c-.066,.27-.345,.431-.606,.364-.269-.067-.431-.338-.364-.606l1.5-6c.066-.269,.336-.431,.606-.364,.269,.067,.431,.338,.364,.606ZM16,7.5v-2c0-.276,.224-.5,.5-.5s.5,.224,.5,.5v2c0,.276-.224,.5-.5,.5s-.5-.224-.5-.5Zm0-5V.5c0-.276,.224-.5,.5-.5s.5,.224,.5,.5V2.5c0,.276-.224,.5-.5,.5s-.5-.224-.5-.5Zm1,14v2c0,.276-.224,.5-.5,.5s-.5-.224-.5-.5v-2c0-.276,.224-.5,.5-.5s.5,.224,.5,.5Zm0,5v2c0,.276-.224,.5-.5,.5s-.5-.224-.5-.5v-2c0-.276,.224-.5,.5-.5s.5,.224,.5,.5Z"/>
</svg>
