<svg id="Layer_1" viewBox="0 0 24 24" xmlns="http://www.w3.org/2000/svg" data-name="Layer 1"><path d="m22.838 12.736c-.094-.021-.197-.041-.298-.06.466-.35.873-.803 1.087-1.356.608-1.569.433-3.521.178-4.881-.079-.423-.359-.778-.75-.951-.362-.161-.771-.139-1.121.039.17-.635.155-1.299-.186-1.945-.783-1.486-2.308-2.655-3.448-3.374-.378-.238-.829-.273-1.238-.099-.428.184-.739.575-.833 1.049-.252 1.267-.55 4.382 1.668 7.292.779 6.187-1.72 10.057-4.287 11.472l.598-5.974c1.121-.822 1.784-1.755 1.793-3.449 0-2.008-1.981-4.125-3.161-5.207-.261-.239-.623-.342-.972-.271-.34.068-.616.286-.759.596-.283.613-.347 1.372-.403 2.041-.039.474-.098 1.162-.255 1.312-.053-.102-.126-.322-.204-.806-.056-.342-.285-.597-.6-.664-.329-.069-.679.081-.875.377-.433.655-.771 1.807-.771 2.622.01 1.673.698 2.638 1.793 3.449l.597 5.971c-2.551-1.418-5.028-5.286-4.249-11.469 2.22-2.912 1.922-6.027 1.668-7.293-.094-.473-.405-.865-.832-1.049-.409-.175-.858-.14-1.239.099-1.141.719-2.665 1.888-3.448 3.374-.34.646-.356 1.31-.185 1.946-.349-.177-.758-.2-1.12-.04-.392.173-.672.528-.752.952-.255 1.36-.431 3.312.178 4.881.214.552.622 1.006 1.088 1.356-.57.07-1.11.36-1.354.885-.191.394-.193.846-.006 1.24.475 1 1.324 2.294 2.748 3.186-.134.102-.26.203-.375.301-.358.305-.551.746-.528 1.212.022.459.253.873.632 1.135.789.545 1.979 1.182 3.381 1.331-.215.409-.218.898.014 1.302.416.805 1.542.736 2.271.769 2.001 0 3.112-.828 3.737-1.74.625.913 1.736 1.74 3.737 1.74.73-.032 1.854.036 2.271-.769.232-.403.229-.893.014-1.302 1.402-.149 2.592-.786 3.381-1.332.379-.262.609-.675.632-1.134.023-.466-.169-.908-.527-1.212-.116-.099-.242-.2-.376-.302 1.425-.892 2.274-2.187 2.748-3.187.188-.395.186-.847-.006-1.24-.203-.419-.588-.72-1.055-.825zm-.479-6.312c.127-.077.243-.042.29-.021.054.023.146.084.173.221.188 1.01.424 2.915-.127 4.336-.28.724-1.239 1.318-1.981 1.541-.584.007-1.199.082-1.811.259.086-.653.128-1.344.129-2.068.008-.017.021-.029.026-.046.741-2.266 2.204-3.546 3.301-4.221zm-5.15-5.07c.043-.198.181-.347.38-.354.054 0 .114.014.178.054.85.535 2.381 1.636 3.097 2.995.756 1.435-1.166 3.311-1.994 4.025-2.169-2.656-1.892-5.56-1.66-6.721zm-7.024 11.646c-.753-.659-1.185-1.308-1.185-2.5 0-.456.156-1.108.369-1.613.135.53.402 1.113 1.016 1.113 1.127 0 1.232-1.252 1.317-2.258.052-.616.084-1.201.34-1.688.024-.039.072-.072.12-.024.633.644 2.838 2.737 2.838 4.471 0 1.23-.382 1.815-1.182 2.5h-3.634zm-7.01-8.951c.716-1.359 2.247-2.46 3.097-2.995.063-.04.124-.054.179-.054.198.007.336.156.379.354.231 1.16.511 4.064-1.661 6.721-.828-.714-2.751-2.587-1.993-4.025zm-1.832 6.91c-.551-1.421-.315-3.326-.127-4.335.026-.138.12-.198.174-.222.044-.02.159-.058.289.021 1.097.675 2.56 1.955 3.302 4.221.004.013.014.021.019.033-.003.727.032 1.421.113 2.076-.605-.172-1.211-.247-1.788-.254-.743-.224-1.7-.817-1.981-1.541zm-.301 3.413c-.072-.153-.038-.288.003-.373.07-.145.208-.249.379-.288 1.015-.232 2.496-.379 3.865.159.203.999.505 1.892.873 2.696-.885.126-1.668.435-2.328.805-1.473-.756-2.331-2.032-2.791-2.998zm2.143 5.441c-.165-.114-.197-.275-.201-.361-.008-.153.057-.299.176-.4.262-.222.581-.459.944-.68.009-.005.016-.01.024-.015.689-.417 1.545-.768 2.526-.839.356.61.752 1.153 1.179 1.623-.584.634-1.021 1.271-1.348 1.853-1.356-.035-2.539-.654-3.3-1.18zm3.941 3.132c-.104-.016-.192-.077-.244-.169-.03-.055-.074-.164-.021-.295.279-.682.803-1.674 1.681-2.636.914.799 1.906 1.311 2.857 1.542-.706 1.373-2.101 1.887-4.273 1.557zm5.435-2.579c-.19.056-.377.097-.561.124-.184-.028-.371-.069-.561-.125l-.636-6.365h2.395l-.636 6.366zm4.595 2.41c-.03.054-.103.147-.243.169-2.172.327-3.573-.187-4.279-1.566.931-.239 1.913-.768 2.824-1.579.904.977 1.437 1.989 1.718 2.679.039.097.032.204-.021.296zm3.697-2.963c-.761.526-1.944 1.145-3.299 1.18-.335-.596-.783-1.252-1.39-1.902.415-.462.802-.99 1.153-1.581 1.011.059 1.889.419 2.595.847.008.005.015.01.022.014.363.222.682.459.944.682.12.101.184.247.177.4-.005.085-.036.246-.202.36zm2.142-5.44c-.458.965-1.314 2.241-2.789 2.997-.674-.379-1.478-.691-2.388-.811.374-.799.683-1.688.894-2.676 1.378-.554 2.876-.405 3.903-.172.17.039.307.144.377.287.041.086.075.221.002.375z"/></svg>