<?xml version="1.0" encoding="UTF-8"?>
<svg xmlns="http://www.w3.org/2000/svg" id="Layer_1" data-name="Layer 1" viewBox="0 0 24 24">
  <path d="M10.975,6h3.184l-1.527,1.662c-.187,.203-.173,.52,.03,.706,.203,.186,.519,.174,.707-.03l1.741-1.895c.252-.252,.391-.587,.391-.943s-.139-.691-.376-.927l-1.756-1.911c-.187-.203-.502-.216-.707-.03-.203,.187-.217,.503-.03,.706l1.527,1.662h-3.184c-.254-2.799-2.611-5-5.475-5C2.467,0,0,2.468,0,5.5s2.467,5.5,5.5,5.5c2.864,0,5.221-2.201,5.475-5ZM1,5.5C1,3.019,3.019,1,5.5,1s4.5,2.019,4.5,4.5-2.019,4.5-4.5,4.5S1,7.981,1,5.5Zm5.045,1.973c-.653,.643-1.717,.645-2.372,.002l-1.14-1.117c-.197-.193-.2-.511-.007-.707,.193-.199,.51-.2,.707-.008l1.14,1.118c.267,.265,.702,.262,.969,0l2.306-2.273c.197-.192,.513-.191,.707,.006,.194,.196,.192,.513-.005,.707l-2.306,2.273Zm17.955,.284c0,1.237-1.006,2.243-2.244,2.243h-.756v.5c0,.276-.224,.5-.5,.5s-.5-.224-.5-.5v-.5h-.5c-1.378,0-2.5-1.121-2.5-2.5,0-.276,.224-.5,.5-.5s.5,.224,.5,.5c0,.827,.673,1.5,1.5,1.5h2.256c.686,0,1.244-.558,1.244-1.243,0-.536-.342-1.011-.85-1.18l-3.616-1.205c-.917-.306-1.534-1.161-1.534-2.129,0-1.237,1.006-2.243,2.244-2.243h.756V.5c0-.276,.224-.5,.5-.5s.5,.224,.5,.5v.5h.5c1.378,0,2.5,1.121,2.5,2.5,0,.276-.224,.5-.5,.5s-.5-.224-.5-.5c0-.827-.673-1.5-1.5-1.5h-2.256c-.686,0-1.244,.558-1.244,1.243,0,.536,.342,1.011,.85,1.18l3.616,1.205c.917,.306,1.534,1.161,1.534,2.129Zm-1,15.743c0,.276-.224,.5-.5,.5s-.5-.224-.5-.5c0-1.637-.995-3.026-2.595-3.627l-5.081-1.905c-.195-.073-.324-.26-.324-.468v-4.893c0-.789-.535-1.471-1.245-1.587-.45-.071-.886,.046-1.226,.336-.336,.286-.529,.703-.529,1.144v7.424c0,.421-.235,.796-.615,.979-.38,.181-.819,.132-1.146-.13l-1.688-1.342c-.008-.006-.011-.015-.018-.021-.004-.003-.01-.004-.013-.008-.606-.562-1.553-.529-2.115,.073-.565,.604-.534,1.557,.064,2.118l1.633,1.551c.325,.309,.107,.856-.342,.856-.127,0-.249-.048-.341-.135l-1.64-1.548c-1-.937-1.048-2.518-.106-3.524,.928-.994,2.481-1.054,3.489-.15,.003,.003,.008,.003,.011,.006l1.688,1.343,.138-.066v-7.424c0-.734,.321-1.429,.881-1.905,.56-.476,1.3-.68,2.035-.561,1.188,.193,2.083,1.3,2.083,2.573v4.546l4.756,1.784c2.001,.75,3.244,2.498,3.244,4.562Z"/>
</svg>
