<svg id="Layer_1" viewBox="0 0 24 24" xmlns="http://www.w3.org/2000/svg" data-name="Layer 1"><path d="m20.5 12c-.276 0-.5.224-.5.5v1.5h-11v-5.036c0-1.483 1.105-2.76 2.571-2.969.272-.039.463-.292.424-.566-.04-.274-.29-.465-.566-.424-1.954.28-3.429 1.982-3.429 3.959v5.036h-1.5c-1.379 0-2.5 1.122-2.5 2.5v2c0 .827-.673 1.5-1.5 1.5s-1.5-.673-1.5-1.5v-10.5h1.5c.827 0 1.5-.673 1.5-1.5v-3.793l1.854-1.854c.195-.195.195-.512 0-.707s-.512-.195-.707 0l-1.999 1.999-.003.003-1.534 1.534c-1.05 1.036-1.611 2.318-1.611 3.889v10.929c0 1.378 1.121 2.5 2.5 2.5s2.5-1.122 2.5-2.5v-2c0-.827.673-1.5 1.5-1.5h1.5v5c0 2.206 1.794 4 4 4h5c2.206 0 4-1.794 4-4v-7.5c0-.276-.224-.5-.5-.5zm-18.182-7.611.682-.682v2.793c0 .276-.225.5-.5.5h-1.444c.125-.984.549-1.898 1.263-2.611zm14.682 18.611h-5c-1.654 0-3-1.346-3-3v-5h11v5c0 1.654-1.346 3-3 3zm6.731-15.999-3.339-5.879c-.396-.698-1.101-1.118-1.893-1.122-.788.003-1.494.422-1.889 1.12l-3.339 5.879c-.441.778-.34 1.706.26 2.364.568.625 1.427.806 2.192.462l2.777-1.248 2.777 1.25c.257.115.523.171.787.171.521 0 1.028-.219 1.406-.634.354-.39.528-.864.528-1.364 0-.339-.088-.682-.269-.999zm-.999 1.69c-.104.116-.492.472-1.043.224l-2.982-1.342c-.13-.059-.28-.059-.41 0l-2.982 1.34c-.553.248-.938-.108-1.043-.223-.229-.252-.401-.718-.13-1.197l3.34-5.88c.219-.388.592-.612 1.018-.613.431.002.804.226 1.023.615l3.34 5.88c.271.479.1.943-.13 1.196z"/></svg>