<svg id="Layer_1" viewBox="0 0 24 24" xmlns="http://www.w3.org/2000/svg" data-name="Layer 1"><path d="m9.5 20h-5c-1.93 0-3.5-1.57-3.5-3.5v-12c0-1.93 1.57-3.5 3.5-3.5h.5v3.5c0 1.379 1.122 2.5 2.5 2.5h6c1.379 0 2.5-1.121 2.5-2.5v-3.066c.294.16.575.348.818.591l2.156 2.156c.661.661 1.025 1.54 1.025 2.476v2.843c0 .276.224.5.5.5s.5-.224.5-.5v-2.843c0-1.202-.468-2.333-1.318-3.183l-2.156-2.156c-.451-.452-1.679-1.318-3.183-1.318h-9.842c-2.481 0-4.5 2.019-4.5 4.5v12c0 2.481 2.019 4.5 4.5 4.5h5c.276 0 .5-.224.5-.5s-.224-.5-.5-.5zm5.5-18.936v3.436c0 .827-.673 1.5-1.5 1.5h-6c-.827 0-1.5-.673-1.5-1.5v-3.5h8.343c.223 0 .443.024.657.064zm9 11.436v2.5c0 .552-.448 1-1 1h-2.5c-.276 0-.5-.224-.5-.5s.224-.5.5-.5h1.492c-.935-1.247-2.395-2-3.992-2-2.605 0-4.746 1.954-4.979 4.545-.023.26-.242.455-.498.455-.015 0-.03 0-.045-.002-.275-.024-.478-.268-.453-.543.28-3.11 2.849-5.455 5.976-5.455 2.039 0 3.896 1.022 5 2.697v-2.197c0-.276.224-.5.5-.5s.5.224.5.5zm-.024 6.045c-.28 3.11-2.85 5.455-5.976 5.455-2.039 0-3.896-1.022-5-2.697v2.197c0 .276-.224.5-.5.5s-.5-.224-.5-.5v-2.5c0-.552.449-1 1-1h2.5c.276 0 .5.224.5.5s-.224.5-.5.5h-1.492c.935 1.247 2.395 2 3.992 2 2.605 0 4.746-1.954 4.979-4.545.024-.275.266-.476.543-.453.275.024.478.268.453.543zm-11.612-6.712c-.474-.529-1.153-.833-1.863-.833-1.378 0-2.5 1.121-2.5 2.5 0 1.058.67 2.005 1.667 2.357.261.093.397.378.305.639-.091.263-.384.396-.638.305-1.396-.494-2.333-1.82-2.333-3.301 0-1.93 1.57-3.5 3.5-3.5.995 0 1.945.425 2.608 1.167.185.205.167.521-.039.706-.206.184-.523.166-.706-.04z"/></svg>