<svg id="Layer_1" viewBox="0 0 24 24" xmlns="http://www.w3.org/2000/svg" data-name="Layer 1"><path d="m9 10.001c0-1.102-.897-2-2-2s-2 .897-2 2 .897 2 2 2 2-.897 2-2zm-2 1c-.551 0-1-.448-1-1s.449-1 1-1 1 .448 1 1-.449 1-1 1zm10.5 0c-3.584 0-6.5 2.916-6.5 6.5s2.916 6.5 6.5 6.5 6.5-2.916 6.5-6.5-2.916-6.5-6.5-6.5zm0 11.999c-3.033 0-5.5-2.468-5.5-5.5s2.467-5.5 5.5-5.5 5.5 2.468 5.5 5.5-2.467 5.5-5.5 5.5zm2.051-5.5h-1.551v-3c0-.276-.224-.5-.5-.5s-.5.224-.5.5v3h-1.558c-.42 0-.79.237-.966.619s-.115.817.187 1.167l1.826 1.8c.265.267.619.413.997.415h.005c.377 0 .732-.146.997-.409l1.868-1.834c.275-.318.337-.754.162-1.137s-.545-.621-.967-.621zm-1.767 2.88c-.078.078-.182.121-.294.121-.111 0-.215-.044-.292-.122-.001 0-.002-.002-.004-.004l-1.75-1.733c-.053-.052-.016-.142.059-.142h4c.075 0 .111.091.058.143l-1.775 1.737zm-6.784 3.12c0 .276-.224.5-.5.5h-6c-2.481 0-4.5-2.018-4.5-4.5v-11.853c0-1.204.606-2.308 1.621-2.953l6.67-4.247c1.08-.596 2.354-.586 3.363-.033l6.726 4.279c1.015.646 1.62 1.75 1.62 2.952v.855c0 .276-.224.5-.5.5s-.5-.224-.5-.5v-.855c0-.859-.432-1.646-1.157-2.107l-6.698-4.264c-.657-.358-1.614-.37-2.345.033l-6.642 4.231c-.725.461-1.157 1.249-1.157 2.109v11.853c0 1.93 1.57 3.5 3.5 3.5h6c.276 0 .5.224.5.5zm-3.937-6.243 5-9c.134-.241.439-.326.68-.194.242.135.329.438.194.681l-5 9c-.135.243-.443.326-.68.194-.242-.135-.329-.438-.194-.681z"/></svg>