<?xml version="1.0" encoding="UTF-8"?>
<svg xmlns="http://www.w3.org/2000/svg" id="Layer_1" data-name="Layer 1" viewBox="0 0 24 24">
  <path d="m13,0C6.935,0,2,4.038,2,9c0,.994.206,1.965.593,2.897-.401.476-.627,1.08-.609,1.703.016.524.2,1.004.514,1.394-1.08,1.032-2.499,2.824-2.499,5.131,0,3.065,2.943,3.875,4.5,3.875.276,0,.5-.224.5-.5s-.224-.5-.5-.5c-.143,0-3.5-.033-3.5-2.875,0-1.999,1.305-3.581,2.263-4.475,1.766,1.142,4.574,1.341,4.705,1.349.005,0,.011,0,.016,0,1.545.648,3.268,1,5.016,1,6.065,0,11-4.038,11-9S19.065,0,13,0ZM3.415,14.522c-.267-.238-.42-.576-.431-.952-.013-.421.152-.835.452-1.135.287-.287.666-.43,1.047-.43.383,0,.768.145,1.062.434,1.058,1.037,1.589,2.611,1.816,3.489-.986-.134-2.915-.564-3.947-1.406Zm9.585,2.478c-1.593,0-3.16-.317-4.567-.898-.172-.81-.745-2.964-2.188-4.377-.771-.757-1.912-.906-2.833-.467-.269-.731-.412-1.488-.412-2.259C3,4.589,7.486,1,13,1s10,3.589,10,8-4.486,8-10,8Z"/>
</svg>
