<svg id="Layer_1" viewBox="0 0 24 24" xmlns="http://www.w3.org/2000/svg" data-name="Layer 1"><path d="m24 4.5v4c0 2.481-2.019 4.5-4.5 4.5h-2c-.276 0-.5-.224-.5-.5s.224-.5.5-.5h2c1.93 0 3.5-1.57 3.5-3.5v-4c0-1.93-1.57-3.5-3.5-3.5h-15c-1.93 0-3.5 1.57-3.5 3.5v4c0 1.93 1.57 3.5 3.5 3.5h3c.276 0 .5.224.5.5s-.224.5-.5.5h-3c-2.481 0-4.5-2.019-4.5-4.5v-4c0-2.481 2.019-4.5 4.5-4.5h15c2.481 0 4.5 2.019 4.5 4.5zm-17 2c0-.276-.224-.5-.5-.5h-2c-.276 0-.5.224-.5.5s.224.5.5.5h2c.276 0 .5-.224.5-.5zm2.5.5h2c.276 0 .5-.224.5-.5s-.224-.5-.5-.5h-2c-.276 0-.5.224-.5.5s.224.5.5.5zm5 0h5c.276 0 .5-.224.5-.5s-.224-.5-.5-.5h-5c-.276 0-.5.224-.5.5s.224.5.5.5zm-8-4h-2c-.276 0-.5.224-.5.5s.224.5.5.5h2c.276 0 .5-.224.5-.5s-.224-.5-.5-.5zm3 1h2c.276 0 .5-.224.5-.5s-.224-.5-.5-.5h-2c-.276 0-.5.224-.5.5s.224.5.5.5zm5 0h5c.276 0 .5-.224.5-.5s-.224-.5-.5-.5h-5c-.276 0-.5.224-.5.5s.224.5.5.5zm5 5h-1c-.276 0-.5.224-.5.5s.224.5.5.5h1c.276 0 .5-.224.5-.5s-.224-.5-.5-.5zm-15 0c-.276 0-.5.224-.5.5s.224.5.5.5h1c.276 0 .5-.224.5-.5s-.224-.5-.5-.5zm15.231 9.938-4.756-1.784v-4.546c0-1.273-.896-2.38-2.083-2.573-.733-.119-1.476.085-2.035.561-.56.477-.881 1.171-.881 1.905v7.424l-.138.066-1.688-1.343s-.007-.003-.011-.006c-1.008-.904-2.562-.844-3.489.15-.941 1.007-.894 2.588.106 3.524l1.64 1.548c.092.087.214.135.341.135.448 0 .667-.547.342-.856l-1.633-1.551c-.599-.562-.629-1.514-.064-2.118.561-.602 1.509-.635 2.115-.073.004.004.01.004.013.008.007.006.01.015.018.021l1.688 1.342c.327.262.767.311 1.146.13.379-.183.615-.558.615-.979v-7.424c0-.44.193-.857.529-1.144.34-.29.777-.407 1.226-.336.709.116 1.245.798 1.245 1.587v4.893c0 .208.129.395.324.468l5.08 1.905c1.602.601 2.596 1.99 2.596 3.627 0 .276.224.5.5.5s.5-.224.5-.5c0-2.064-1.243-3.812-3.244-4.562z"/></svg>