<?xml version="1.0" encoding="UTF-8"?>
<svg xmlns="http://www.w3.org/2000/svg" id="Layer_1" data-name="Layer 1" viewBox="0 0 24 24">
  <path d="M17.083,1.822C15.229,.295,12.79-.312,10.393,.157c-3.115,.608-5.62,3.109-6.232,6.224-.617,3.133,.587,6.231,3.142,8.086,1.063,.771,1.698,2.087,1.698,3.519v1.357c0,1.184,.48,2.344,1.318,3.182l1.328,1.329c.186,.194,.521,.194,.707,0l1.328-1.329c.838-.838,1.318-1.998,1.318-3.182v-1.36c0-1.404,.672-2.746,1.797-3.589,2.035-1.525,3.203-3.855,3.203-6.394,0-2.399-1.063-4.651-2.917-6.178Zm-3.083,17.521c0,.921-.374,1.823-1.025,2.475l-.975,.975-.975-.975c-.651-.652-1.025-1.554-1.025-2.475v-1.357c0-.336-.038-.664-.094-.986h4.193c-.06,.323-.099,.65-.099,.983v1.36Zm2.197-5.75c-.827,.62-1.449,1.462-1.817,2.406h-1.88v-6.051c1.416-.24,2.5-1.466,2.5-2.949,0-.276-.224-.5-.5-.5s-.5,.224-.5,.5c0,1.103-.897,2-2,2s-2-.897-2-2c0-.276-.224-.5-.5-.5s-.5,.224-.5,.5c0,1.483,1.084,2.71,2.5,2.949v6.051h-1.861c-.353-.943-.952-1.764-1.749-2.343-2.236-1.623-3.289-4.337-2.749-7.083,.605-3.201,3.589-5.623,6.843-5.571,3.765-.083,7.095,3.227,7.017,6.997,0,2.22-1.021,4.259-2.803,5.594Z"/>
</svg>
