<?xml version="1.0" encoding="UTF-8"?>
<svg xmlns="http://www.w3.org/2000/svg" id="Layer_1" data-name="Layer 1" viewBox="0 0 24 24">
  <path d="M24,8.5v4c0,.276-.224,.5-.5,.5s-.5-.224-.5-.5v-3.793l-4.389,4.389c-1.039,1.039-1.611,2.421-1.611,3.89v6.515c0,.276-.224,.5-.5,.5s-.5-.224-.5-.5v-6.515c0-1.736,.677-3.369,1.904-4.597l4.389-4.389h-3.793c-.276,0-.5-.224-.5-.5s.224-.5,.5-.5h4c.827,0,1.5,.673,1.5,1.5ZM1.707,8h3.793c.276,0,.5-.224,.5-.5s-.224-.5-.5-.5H1.5c-.827,0-1.5,.673-1.5,1.5v4c0,.276,.224,.5,.5,.5s.5-.224,.5-.5v-3.793l4.389,4.389c1.039,1.04,1.611,2.421,1.611,3.89v6.515c0,.276,.224,.5,.5,.5s.5-.224,.5-.5v-6.515c0-1.735-.676-3.368-1.904-4.597L1.707,8ZM15.856,3.247L13.185,.537c-.612-.684-1.803-.673-2.395-.011l-2.652,2.787c-.19,.2-.183,.517,.018,.707,.2,.19,.516,.183,.707-.018l2.638-2.773V23.5c0,.276,.224,.5,.5,.5s.5-.224,.5-.5V1.266l2.644,2.682c.196,.197,.513,.199,.707,.006,.197-.194,.199-.511,.006-.707Z"/>
</svg>
