<svg id="Layer_1" viewBox="0 0 24 24" xmlns="http://www.w3.org/2000/svg" data-name="Layer 1"><path d="m22 8v-2.771c0-1.998-1.331-3.775-3.236-4.321-.859-.246-1.763-.444-2.685-.591-.28-.043-.529.142-.573.415-.043.272.143.529.415.572.883.141 1.747.331 2.567.565 1.405.403 2.396 1.672 2.493 3.131h-3.981c-.276 0-.5.224-.5.5s.224.5.5.5h4v7h-8.5v-2.5c0-.276-.224-.5-.5-.5s-.5.224-.5.5v2.5h-8.5v-7h3.5c.276 0 .5-.224.5-.5s-.224-.5-.5-.5h-3.481c.097-1.458 1.088-2.728 2.493-3.131.665-.19 1.364-.353 2.078-.482.271-.05.452-.31.403-.582s-.312-.453-.582-.403c-.746.136-1.478.306-2.174.505-1.906.546-3.236 2.323-3.236 4.321v2.771c-1.103 0-2 .897-2 2v2c0 1.103.897 2 2 2v2.5c0 1.557.795 2.93 2 3.738v1.262c0 1.378 1.122 2.5 2.5 2.5s2.5-1.122 2.5-2.5v-.5h6v.5c0 1.378 1.121 2.5 2.5 2.5s2.5-1.122 2.5-2.5v-1.262c1.205-.808 2-2.182 2-3.738v-2.5c1.103 0 2-.897 2-2v-2c0-1.103-.897-2-2-2zm-21 4v-2c0-.551.449-1 1-1v4c-.551 0-1-.449-1-1zm7 9.5c0 .827-.673 1.5-1.5 1.5s-1.5-.673-1.5-1.5v-.776c.471.168.971.276 1.5.276h1.5zm11 0c0 .827-.673 1.5-1.5 1.5s-1.5-.673-1.5-1.5v-.5h1.5c.529 0 1.029-.108 1.5-.276zm2-5c0 1.93-1.57 3.5-3.5 3.5h-11c-1.93 0-3.5-1.57-3.5-3.5v-2.5h3v1.5c0 .276.224.5.5.5s.5-.224.5-.5v-1.5h10v1.5c0 .276.224.5.5.5s.5-.224.5-.5v-1.5h3zm2-4.5c0 .551-.448 1-1 1v-4c.552 0 1 .449 1 1zm-13.577-6h1.417s-.529 1.886-.529 1.886c-.197.523.235 1.129.794 1.114.247 0 .48-.108.641-.297l3.708-4.38c.563-.699-.05-1.769-.941-1.769h-1.26l.463-1.102c.124-.33.079-.7-.121-.99-.201-.29-.531-.463-.884-.463h-1.705c-.581 0-1.095.37-1.272.902l-1.385 3.651c-.104.344-.041.706.174.994.214.288.542.453.9.453zm1.252-4.762c.048-.142.181-.238.331-.238h1.55c.084 0 .258.019.167.235l-.684 1.625c-.065.154-.048.331.044.471.093.139.249.223.417.223h2.013c.154.011.186.148.072.248l-3.125 3.692.522-1.86c.042-.151.012-.313-.083-.438s-.242-.198-.398-.198l-2.043.002c-.102 0-.181-.071-.135-.194l1.354-3.569z"/></svg>