<?xml version="1.0" encoding="UTF-8"?>
<svg xmlns="http://www.w3.org/2000/svg" id="Layer_1" data-name="Layer 1" viewBox="0 0 24 24">
  <path d="m.053.776c.124-.246.424-.347.671-.224l4,2c.247.124.347.424.224.671-.088.175-.265.276-.447.276-.075,0-.151-.017-.224-.053L.276,1.447C.029,1.323-.07,1.023.053.776Zm19.447,5.224h4c.276,0,.5-.224.5-.5s-.224-.5-.5-.5h-4c-.276,0-.5.224-.5.5s.224.5.5.5Zm0-2.5c.075,0,.151-.017.224-.053l4-2c.247-.124.347-.424.224-.671-.124-.247-.423-.348-.671-.224l-4,2c-.247.124-.347.424-.224.671.088.175.265.276.447.276Zm4.224,6.053l-4-2c-.246-.123-.547-.022-.671.224-.123.247-.023.547.224.671l4,2c.072.036.148.053.224.053.183,0,.359-.102.447-.276.123-.247.023-.547-.224-.671Zm-4.84,10.059c.32,1.199-.018,2.478-.932,3.388-.682.679-1.645,1.001-2.607,1.001h-1.845c-.276,0-.5-.224-.5-.5v-2.5c0-.552-.448-1-1-1s-1,.448-1,1v2.5c0,.276-.224.5-.5.5h-1.85c-.963,0-1.925-.324-2.606-1.004-.911-.91-1.248-2.184-.925-3.398l2.748-11.598h-.368c-.276,0-.5-.224-.5-.5s.224-.5.5-.5h.5v-3.031c-.42-.072-.774-.342-.926-.75-.17-.457-.041-.958.327-1.276.201-.174.425-.321.663-.438l2.341-1.138c1.008-.49,2.184-.49,3.192,0l2.338,1.139c.235.113.459.26.663.436.369.32.497.821.327,1.277-.152.408-.506.678-.925.75v3.031h.5c.276,0,.5.224.5.5s-.224.5-.5.5h-.368l2.751,11.611ZM8.012,2.869c.011.031.059.131.194.131h7.587c.136,0,.184-.1.195-.131.037-.101-.024-.153-.044-.171-.137-.117-.287-.216-.446-.293l-2.339-1.14c-.363-.176-.761-.265-1.159-.265s-.796.089-1.159.265l-2.339,1.139c-.161.079-.312.178-.446.294-.021.018-.082.07-.044.171Zm4.488,1.131v3h2.5v-3h-2.5Zm-3.5,0v3h2.5v-3h-2.5Zm1.272,16.012h-4.208c-.141.716.013,1.436.455,2.012.478.62,1.2.977,1.983.977h1.498v-2c0-.361.104-.695.272-.988Zm7.642-.156l-2.809-11.855h-6.21l-.474,2h5.057c.276,0,.5.224.5.5s-.224.5-.5.5h-5.294l-.474,2h6.411c.276,0,.5.224.5.5s-.224.5-.5.5h-6.621c-.009,0-.017-.005-.026-.005l-.475,2.005h7.765c.276,0,.5.224.5.5s-.224.5-.5.5H6.762l-.477,2.012h9.122c.276,0,.5.224.5.5s-.224.5-.5.5h-1.679c.168.293.272.627.272.988v2h1.498c.783,0,1.506-.356,1.983-.977.477-.621.635-1.411.433-2.168ZM4.276,7.553L.276,9.553c-.247.124-.347.424-.224.671.088.175.265.276.447.276.075,0,.151-.017.224-.053l4-2c.247-.124.347-.424.224-.671-.124-.247-.424-.348-.671-.224Zm-3.776-1.553h4c.276,0,.5-.224.5-.5s-.224-.5-.5-.5H.5c-.276,0-.5.224-.5.5s.224.5.5.5Z"/>
</svg>
