<?xml version="1.0" encoding="UTF-8"?>
<svg xmlns="http://www.w3.org/2000/svg" id="Layer_1" data-name="Layer 1" viewBox="0 0 24 24">
  <path d="M9,18.432v5.068c0,.276-.224,.5-.5,.5s-.5-.224-.5-.5v-5.068c0-.249-.185-.459-.429-.489-3.746-.462-6.571-3.662-6.571-7.442v-3.5H.5c-.276,0-.5-.224-.5-.5s.224-.5,.5-.5h3.5V.5c0-.276,.224-.5,.5-.5s.5,.224,.5,.5V6h7V.5c0-.276,.224-.5,.5-.5s.5,.224,.5,.5V6h3.5c.276,0,.5,.224,.5,.5s-.224,.5-.5,.5h-.5v2c0,.276-.224,.5-.5,.5s-.5-.224-.5-.5v-2H2v3.5c0,3.276,2.448,6.049,5.693,6.45,.745,.092,1.307,.729,1.307,1.481Zm15-.932c0,3.584-2.916,6.5-6.5,6.5s-6.5-2.916-6.5-6.5,2.916-6.5,6.5-6.5,6.5,2.916,6.5,6.5Zm-1,0c0-3.032-2.467-5.5-5.5-5.5s-5.5,2.468-5.5,5.5,2.467,5.5,5.5,5.5,5.5-2.468,5.5-5.5Zm-5.5,1.5c.276,0,.5-.224,.5-.5v-5c0-.276-.224-.5-.5-.5s-.5,.224-.5,.5v5c0,.276,.224,.5,.5,.5Zm0,1c-.552,0-1,.448-1,1s.448,1,1,1,1-.448,1-1-.448-1-1-1Z"/>
</svg>
