<svg id="Layer_1" viewBox="0 0 24 24" xmlns="http://www.w3.org/2000/svg" data-name="Layer 1"><path d="m10.004 8.792c0 .437-.534 1.208-1.5 1.208s-1.5-.771-1.5-1.208.534-.792 1.5-.792 1.5.354 1.5.792zm13.996-3.292v2c0 4.43-2.191 8.578-5.862 11.097-.712.489-1.138 1.271-1.138 2.092v2.812c0 .276-.224.5-.5.5s-.5-.224-.5-.5v-2.812c0-1.15.588-2.24 1.573-2.916 3.398-2.333 5.427-6.172 5.427-10.272v-2c0-.276-.224-.5-.5-.5s-.5.224-.5.5v2c0 3.584-2.916 6.5-6.5 6.5h-5.278c.172.295.278.634.278 1 0 1.103-.897 2-2 2s-2-.897-2-2c0-.269.055-.525.152-.76-3.243.826-5.652 3.763-5.652 7.26v2c0 .276-.224.5-.5.5s-.5-.224-.5-.5v-2c0-3.506 2.134-6.523 5.172-7.82-2.504-.767-4.168-2.867-4.168-5.554.067-2.614.355-5.206.793-7.122.092-.403.361-.729.74-.896.148-.064.299-.109.463-.109.306 0 .599.054.815.265l1.325 1.418c2.055-.896 4.664-.896 6.719 0l1.325-1.418c.17-.191.474-.265.78-.265.173 0 .347.044.498.109.379.166.648.493.74.896.438 1.916.726 4.507.793 7.108 0 2.11-1.018 3.858-2.66 4.887h2.164c3.033 0 5.5-2.467 5.5-5.5v-2c0-.827.673-1.5 1.5-1.5s1.5.673 1.5 1.5zm-14.337 7.5c3.09 0 5.333-2.05 5.333-4.874-.065-2.525-.372-5.039-.768-6.899-.054-.253-.252-.34-.377-.212l-1.509 1.615c-.151.162-.391.205-.587.106-1.944-.964-4.565-.964-6.51 0-.197.098-.437.055-.587-.106l-1.509-1.615c-.142-.123-.309.007-.377.211-.423 1.854-.703 4.374-.768 6.912 0 2.812 2.243 4.861 5.333 4.861h2.326zm-.163 2c0-.551-.449-1-1-1s-1 .449-1 1 .449 1 1 1 1-.449 1-1zm-3.5-10c-.552 0-1 .448-1 1s.448 1 1 1 1-.448 1-1-.448-1-1-1zm5 2c.552 0 1-.448 1-1s-.448-1-1-1-1 .448-1 1 .448 1 1 1z"/></svg>