<svg id="Layer_1" viewBox="0 0 24 24" xmlns="http://www.w3.org/2000/svg" data-name="Layer 1"><path d="m23.838 16.975c-1.522-5.779-4.41-11.118-8.352-15.439-.891-.976-2.161-1.536-3.486-1.536-1.324 0-2.595.56-3.484 1.536-3.943 4.32-6.832 9.659-8.354 15.439-.679 2.58.838 5.232 3.381 5.913 2.762.738 5.607 1.112 8.457 1.112s5.696-.374 8.457-1.112c2.543-.681 4.059-3.333 3.381-5.913zm-3.638 4.946c-5.355 1.432-11.044 1.432-16.399 0-2.013-.538-3.211-2.643-2.672-4.692 1.481-5.624 4.29-10.817 8.124-15.02.701-.769 1.702-1.209 2.747-1.209s2.047.441 2.748 1.209c3.833 4.203 6.642 9.396 8.123 15.019.539 2.05-.659 4.154-2.672 4.692zm-8.2-13.421c-2.757 0-5 2.243-5 5s2.243 5 5 5 5-2.243 5-5-2.243-5-5-5zm0 9c-2.206 0-4-1.794-4-4s1.794-4 4-4 4 1.794 4 4-1.794 4-4 4z"/></svg>