<?xml version="1.0" encoding="UTF-8"?>
<svg xmlns="http://www.w3.org/2000/svg" id="Layer_1" data-name="Layer 1" viewBox="0 0 24 24">
  <path d="M11.013,16.647c.581,.473,1.394,.475,1.974,0,1.152-.936,3.332-3.194,3.332-5.048,0-1.434-1.081-2.6-2.409-2.6-.786,0-1.472,.371-1.909,.958-.437-.587-1.124-.958-1.909-.958-1.329,0-2.409,1.166-2.409,2.6,0,1.854,2.179,4.112,3.331,5.048Zm-.922-6.647c.803,0,1.409,.645,1.409,1.5,0,.276,.224,.5,.5,.5s.5-.224,.5-.5c0-.855,.606-1.5,1.409-1.5,.777,0,1.409,.718,1.409,1.6,0,1.288-1.732,3.273-2.962,4.272-.21,.169-.502,.17-.713,0-1.229-.999-2.961-2.984-2.961-4.272,0-.882,.632-1.6,1.409-1.6Zm13.909,2.5c0,.276-.224,.5-.5,.5h-.998c-1.533,0-3.009-.647-4.047-1.775l-2.813-3.058c-.795-.857-.853-2.251-.144-3.167h-6.997c-1.378,0-2.5-1.121-2.5-2.5S7.122,0,8.5,0h11.041c1.474,0,2.929,.386,4.208,1.114,.24,.137,.324,.442,.187,.683-.138,.239-.443,.32-.682,.187-1.128-.644-2.412-.983-3.712-.983H8.5c-.827,0-1.5,.673-1.5,1.5s.673,1.5,1.5,1.5c.101,.012,8.973-.022,9.057,.011,.551,.013,1.099,.198,1.544,.573l3.206,3.099c.198,.192,.204,.509,.012,.707-.191,.199-.507,.204-.707,.012l-3.179-3.075c-1.359-1.152-3.279,.868-2.05,2.168l2.809,3.053c.85,.924,2.057,1.453,3.312,1.453h.998c.276,0,.5,.224,.5,.5Zm-5.959,9c0,1.379-1.122,2.5-2.5,2.5H4.5c-1.474,0-2.929-.386-4.207-1.114-.24-.137-.324-.442-.187-.683,.137-.239,.442-.321,.682-.187,1.128,.644,2.412,.983,3.712,.983H15.541c.827,0,1.5-.673,1.5-1.5s-.673-1.5-1.5-1.5c-.038-.007-9.003,.014-9.036-.007-.558-.008-1.114-.198-1.565-.577l-3.206-3.099c-.198-.192-.204-.509-.012-.707s.508-.203,.707-.012l3.179,3.075c1.359,1.152,3.279-.868,2.05-2.168l-2.809-3.053c-.85-.924-2.057-1.453-3.312-1.453H.541c-.276,0-.5-.224-.5-.5s.224-.5,.5-.5h.998c1.533,0,3.009,.647,4.047,1.775l2.813,3.058c.795,.857,.853,2.251,.144,3.167h6.997c1.378,0,2.5,1.121,2.5,2.5Z"/>
</svg>
