<?xml version="1.0" encoding="UTF-8"?>
<svg xmlns="http://www.w3.org/2000/svg" id="Layer_1" data-name="Layer 1" viewBox="0 0 24 24">
  <path d="M21.7,11h-7.7c-.649,0-1,.515-1,1,0,.551-.449,1-1,1s-1-.449-1-1c0-.485-.351-1-1-1H2.3c-.662,0-1.293,.285-1.732,.781-.429,.486-.63,1.129-.549,1.783,.775,5.949,5.926,10.436,11.98,10.436s11.206-4.486,11.983-10.454c.079-.636-.122-1.279-.551-1.765-.439-.497-1.07-.781-1.732-.781Zm-9.7,3c1.103,0,2-.897,2-2h3c0,2.757-2.243,5-5,5s-5-2.243-5-5h3c0,1.103,.897,2,2,2Zm10.989-.564c-.711,5.453-5.435,9.564-10.989,9.564S1.722,18.888,1.009,13.423c-.044-.357,.065-.705,.308-.979,.25-.282,.607-.444,.983-.444h3.7c0,3.309,2.691,6,6,6s6-2.691,6-6h3.7c.375,0,.733,.162,.983,.444,.243,.275,.352,.623,.307,.992Zm-7.989-4.436c1.654,0,3-1.346,3-3V3c0-1.654-1.346-3-3-3s-3,1.346-3,3v3c0,1.654,1.346,3,3,3Zm-2-6c0-1.103,.897-2,2-2s2,.897,2,2v3c0,1.103-.897,2-2,2s-2-.897-2-2V3Zm-5,6c1.654,0,3-1.346,3-3V3c0-1.654-1.346-3-3-3s-3,1.346-3,3v3c0,1.654,1.346,3,3,3ZM6,3c0-1.103,.897-2,2-2s2,.897,2,2v3c0,1.103-.897,2-2,2s-2-.897-2-2V3Zm13.683,5.218c-.213-.175-.244-.49-.069-.704,.175-.212,.49-.245,.704-.069,.319,.262,1.034,.555,1.547,.555,.563,0,1.048-.295,1.126-.687,.068-.339-.229-.652-.794-.837-.051-.019-.901-.329-1.332-.546-.637-.364-.937-.935-.839-1.544,.101-.621,.587-1.119,1.269-1.3,.785-.211,1.594-.03,2.399,.538,.226,.159,.28,.471,.121,.696-.159,.227-.471,.281-.696,.121-.569-.4-1.067-.525-1.566-.39-.296,.079-.503,.268-.54,.494-.039,.241,.149,.406,.314,.5,.365,.182,1.188,.482,1.196,.485,1.272,.417,1.577,1.328,1.447,1.979-.173,.864-1.059,1.491-2.107,1.491-.689,0-1.648-.344-2.182-.782Z"/>
</svg>
