<svg id="Layer_1" viewBox="0 0 24 24" xmlns="http://www.w3.org/2000/svg" data-name="Layer 1"><path d="m21 21.5v2c0 .276-.224.5-.5.5s-.5-.224-.5-.5v-2c0-1.93-1.57-3.5-3.5-3.5h-9c-1.93 0-3.5 1.57-3.5 3.5v2c0 .276-.224.5-.5.5s-.5-.224-.5-.5v-2c0-2.481 2.019-4.5 4.5-4.5h9c2.481 0 4.5 2.019 4.5 4.5zm1-14v3c0 .827-.673 1.5-1.5 1.5h-.776c-.621 1.742-2.271 3-4.224 3h-7c-1.953 0-3.602-1.258-4.224-3h-.776c-.827 0-1.5-.673-1.5-1.5v-3c0-.827.673-1.5 1.5-1.5h.551c.252-2.244 2.139-4 4.449-4h3v-1.5c0-.276.224-.5.5-.5s.5.224.5.5v1.5h3c2.31 0 4.197 1.756 4.449 4h.551c.827 0 1.5.673 1.5 1.5zm-17.949 3.5c-.019-.166-.051-.329-.051-.5v-3.5h-.5c-.275 0-.5.225-.5.5v3c0 .275.225.5.5.5zm14.949-.5v-4c0-1.93-1.57-3.5-3.5-3.5h-7c-1.93 0-3.5 1.57-3.5 3.5v4c0 1.93 1.57 3.5 3.5 3.5h7c1.93 0 3.5-1.57 3.5-3.5zm2-3c0-.275-.225-.5-.5-.5h-.5v3.5c0 .171-.032.334-.051.5h.551c.275 0 .5-.225.5-.5zm-6-2.5c-.276 0-.5.224-.5.5v6c0 .276.224.5.5.5s.5-.224.5-.5v-6c0-.276-.224-.5-.5-.5zm-2.013 6.402c.062.269-.104.537-.374.601-.263.062-.538-.102-.601-.374l-.38-1.629h-2.265l-.38 1.629c-.063.27-.328.439-.601.374-.27-.063-.437-.332-.374-.601l1.269-5.434c.136-.58.626-.969 1.219-.969s1.083.389 1.219.968l1.269 5.435zm-1.588-2.402-.655-2.805c-.039-.17-.17-.195-.244-.195s-.205.025-.244.196l-.655 2.804z"/></svg>