<?xml version="1.0" encoding="UTF-8"?>
<svg xmlns="http://www.w3.org/2000/svg" id="Layer_1" data-name="Layer 1" viewBox="0 0 24 24">
  <path d="M21,8c.552,0,1,.448,1,1s-.448,1-1,1-1-.448-1-1,.448-1,1-1Zm3,1.542v1.458c0,1.103-.897,2-2,2h-3v6h1.5c.276,0,.5,.224,.5,.5s-.224,.5-.5,.5H2.5c-.827,0-1.5,.673-1.5,1.5s.673,1.5,1.5,1.5H12.5c.276,0,.5,.224,.5,.5s-.224,.5-.5,.5H2.5c-1.378,0-2.5-1.121-2.5-2.5s1.122-2.5,2.5-2.5h1.5v-1c0-.082,.113-7.539,7.337-8.801-1.408-.891-2.337-2.453-2.337-4.199,0-2.757,2.243-5,5-5,1.861,0,3.489,1.023,4.35,2.536,3.671,.059,5.65,3.637,5.65,7.006Zm-6,9.458v-6.017c-2.106-.086-3.953-1.213-4.868-2.961-8.02,.232-8.132,7.657-8.132,7.979v1h13Zm5-9.458c0-2.354-1.311-5.616-4.209-5.975,.136,.454,.209,.935,.209,1.433,0,.572-.096,1.133-.284,1.667-.093,.261-.375,.397-.639,.304-.26-.092-.396-.377-.305-.638,.151-.426,.228-.875,.228-1.333,0-2.206-1.794-4-4-4s-4,1.794-4,4c0,1.982,1.49,3.678,3.466,3.944,.09,.012,.172,.049,.241,.104,.172,.079,.293,.251,.293,.452,0,.004-.002,.007-.002,.01,.771,1.517,2.403,2.49,4.259,2.49h3.743c.552,0,1-.449,1-1v-1.458Z"/>
</svg>
