<?xml version="1.0" encoding="UTF-8"?>
<svg xmlns="http://www.w3.org/2000/svg" id="Layer_1" data-name="Layer 1" viewBox="0 0 24 24">
  <path d="m23.928,18.507l-2.575-14.636c-.395-2.243-2.333-3.871-4.61-3.871H7.244C4.964,0,3.025,1.629,2.632,3.875L.071,18.512c-.239,1.365.136,2.757,1.028,3.818s2.198,1.67,3.584,1.67h14.634c1.387,0,2.693-.609,3.585-1.672.893-1.062,1.266-2.455,1.025-3.821Zm-1.791,3.179c-.701.835-1.729,1.314-2.819,1.314H4.683c-1.09,0-2.118-.479-2.819-1.313-.701-.834-.996-1.929-.808-3.003L3.617,4.047c.309-1.766,1.834-3.047,3.626-3.047h9.499c1.791,0,3.315,1.28,3.626,3.043l2.575,14.637c.188,1.074-.105,2.169-.807,3.005ZM12.5,4.5v3c0,.276-.224.5-.5.5s-.5-.224-.5-.5v-3c0-.276.224-.5.5-.5s.5.224.5.5Zm0,6v3c0,.276-.224.5-.5.5s-.5-.224-.5-.5v-3c0-.276.224-.5.5-.5s.5.224.5.5Zm0,6v3c0,.276-.224.5-.5.5s-.5-.224-.5-.5v-3c0-.276.224-.5.5-.5s.5.224.5.5Z"/>
</svg>
