<svg id="Layer_1" viewBox="0 0 24 24" xmlns="http://www.w3.org/2000/svg" data-name="Layer 1"><path d="m20.717 15.424c-1.016-1.016-2.786-1.018-3.802-.002l-1.532 1.494c-3.681-1.499-6.678-4.499-8.295-8.303l1.488-1.526c.508-.508.788-1.184.788-1.902s-.28-1.394-.745-1.854l-1.96-2.543c-1.017-1.017-2.813-.993-3.779-.023l-1.175 1.024c-1.1 1.097-1.705 2.584-1.705 4.187 0 7.749 10.275 18.024 18.023 18.024 1.603 0 3.09-.605 4.211-1.73l.978-1.125c.508-.508.788-1.184.788-1.903s-.28-1.394-.837-1.945zm1.765 5.04-.978 1.125c-.909.91-2.146 1.412-3.48 1.412-7.16-.001-17.024-9.865-17.024-17.025 0-1.335.501-2.571 1.386-3.457l1.175-1.024c.336-.336.779-.5 1.215-.5.419 0 .831.152 1.133.452l1.959 2.543c.319.319.495.744.495 1.195s-.176.876-.5 1.2l-1.722 1.766c-.138.142-.18.352-.106.536 1.729 4.306 5.113 7.688 9.285 9.281.184.07.388.026.528-.109l1.765-1.722s.004-.003.005-.004c.639-.639 1.703-.682 2.439.043l2.446 1.873c.659.659.659 1.732-.023 2.417zm-3.453-8.967c2.697 0 4.984-2.224 4.972-4.997 0-2.282-1.991-4.011-3.592-5.4-.395-.343-.761-.661-1.055-.954-.176-.2-.557-.192-.731.026-.731.844-.943 1.866-1.113 2.686-.192.928-.288 1.142-.503 1.143-.143-.067-.342-.684-.369-1.308-.01-.199-.136-.375-.322-.445-.189-.072-.398-.024-.536.119-.812.836-1.778 2.231-1.778 4.132 0 2.756 2.231 4.997 5.028 4.997zm1.033-1.437c-.585.584-1.535.585-2.122 0-.584-.586-.584-1.538 0-2.123l1.062-1.061 1.061 1.061c.283.284.439.661.439 1.062s-.156.777-.439 1.061zm-4.233-6.178c.179.566.519 1.118 1.171 1.118 1.086 0 1.3-1.03 1.488-1.938.122-.588.257-1.238.585-1.804.21.19.439.39.68.598 1.446 1.256 3.247 2.819 3.247 4.645 0 1.305-.637 2.455-1.607 3.185.063-.221.107-.449.107-.685 0-.668-.26-1.296-.732-1.769l-1.414-1.415c-.186-.194-.521-.194-.707 0l-1.415 1.415c-.664.664-.864 1.61-.622 2.456-.971-.731-1.609-1.881-1.609-3.187 0-1.063.375-1.943.829-2.618z"/></svg>