<?xml version="1.0" encoding="UTF-8"?>
<svg xmlns="http://www.w3.org/2000/svg" id="Layer_1" data-name="Layer 1" viewBox="0 0 24 24">
  <path d="m22,9h-2c-1.103,0-2,.897-2,2v2c0,1.103.897,2,2,2h2c1.103,0,2-.897,2-2v-2c0-1.103-.897-2-2-2Zm1,4c0,.552-.449,1-1,1h-2c-.551,0-1-.448-1-1v-2c0-.551.449-1,1-1h2c.551,0,1,.449,1,1v2Zm-1-12h-2c-1.103,0-2,.897-2,2v2c0,1.103.897,2,2,2h2c1.103,0,2-.897,2-2v-2c0-1.103-.897-2-2-2Zm1,4c0,.551-.449,1-1,1h-2c-.551,0-1-.449-1-1v-2c0-.551.449-1,1-1h2c.551,0,1,.449,1,1v2Zm-1,12h-2c-1.103,0-2,.897-2,2v2c0,1.103.897,2,2,2h2c1.103,0,2-.897,2-2v-2c0-1.103-.897-2-2-2Zm1,4c0,.552-.449,1-1,1h-2c-.551,0-1-.448-1-1v-2c0-.552.449-1,1-1h2c.551,0,1,.448,1,1v2Zm-7-.5c0,.276-.224.5-.5.5h-6.5C4.038,21,0,16.963,0,12S4.038,3,9,3h5.675l-2.126-2.126c-.195-.195-.195-.512,0-.707s.512-.195.707,0l2.305,2.305c.585.585.585,1.537,0,2.122l-2.26,2.26c-.098.098-.226.146-.354.146s-.256-.049-.354-.146c-.195-.195-.195-.512,0-.707l2.146-2.146h-5.74C4.589,4,1,7.589,1,12s3.589,8,8,8h6.5c.276,0,.5.224.5.5Z"/>
</svg>
