<svg id="Layer_1" viewBox="0 0 24 24" xmlns="http://www.w3.org/2000/svg" data-name="Layer 1"><path d="m22.168 9.961c1.644-2.658 1.832-4.878 1.832-7.072 0-1.593-1.296-2.889-2.89-2.889-2.195 0-4.414.188-7.072 1.832l-.478-.478c-.584-.585-1.537-.585-2.121 0l-1.586 1.586c-.585.585-.585 1.536 0 2.121l.153.153c-1.438 1.464-2.782 2.987-4.06 4.564-.588-.488-1.457-.476-2.007.076l-1.586 1.586c-.585.585-.585 1.536 0 2.121l.43.43c-.785 1.152-1.542 2.336-2.269 3.561-.854 1.439-.63 3.266.548 4.442l.943.944c1.184 1.184 3.018 1.396 4.442.549 1.225-.727 2.409-1.484 3.561-2.27l.43.43c.584.585 1.537.585 2.121 0l1.586-1.586c.551-.551.564-1.419.075-2.007 1.576-1.277 3.1-2.621 4.565-4.059l.153.153c.584.585 1.537.585 2.121 0l1.586-1.586c.585-.585.585-1.536 0-2.121l-.478-.478zm-11.607-6.315 1.586-1.586c.195-.195.512-.195.707 0l.338.338c-.786.56-1.611 1.251-2.485 2.101l-.146-.146c-.195-.195-.195-.512 0-.707zm-7.5 9.208c-.195-.195-.195-.512 0-.707l1.586-1.586c.185-.185.475-.189.672-.023-.671.855-1.31 1.74-1.94 2.634zm2.878 9.772c-1.047.62-2.372.458-3.226-.396l-.943-.944c-.854-.853-1.017-2.179-.396-3.225 2.781-4.685 5.972-8.8 9.753-12.581 4.144-4.143 6.973-4.48 9.983-4.48 1.042 0 1.89.848 1.89 1.889 0 3.011-.337 5.84-4.48 9.984-3.785 3.784-7.9 6.974-12.581 9.752zm7.501-3.272-1.586 1.586c-.195.195-.512.195-.707 0l-.318-.318c.894-.63 1.779-1.27 2.634-1.94.165.196.162.488-.023.672zm8.5-7.5-1.586 1.586c-.195.195-.512.195-.707 0l-.145-.145c.849-.874 1.541-1.7 2.101-2.485l.337.337c.195.195.195.512 0 .707z"/></svg>