<svg id="Layer_1" viewBox="0 0 24 24" xmlns="http://www.w3.org/2000/svg" data-name="Layer 1"><path d="m20.5 15c1.103 0 2-.897 2-2s-.897-2-2-2-2 .897-2 2 .897 2 2 2zm0-3c.551 0 1 .448 1 1s-.449 1-1 1-1-.448-1-1 .449-1 1-1zm-17 3c1.103 0 2-.897 2-2s-.897-2-2-2-2 .897-2 2 .897 2 2 2zm0-3c.551 0 1 .448 1 1s-.449 1-1 1-1-.448-1-1 .449-1 1-1zm10.5 5c0-1.103-.897-2-2-2s-2 .897-2 2 .897 2 2 2 2-.897 2-2zm-3 0c0-.552.449-1 1-1s1 .448 1 1-.449 1-1 1-1-.448-1-1zm8.025-14.009c-.087-.263.055-.545.316-.633l2-.666c.265-.089.546.055.633.316.087.263-.055.545-.316.633l-2 .666c-.255.086-.546-.052-.633-.316zm0 4.018c.087-.262.368-.405.633-.316l2 .666c.262.088.403.37.316.633-.087.264-.378.403-.633.316l-2-.666c-.262-.088-.403-.37-.316-.633zm-17-5c.087-.262.369-.405.633-.316l2 .666c.262.088.403.37.316.633-.087.264-.378.403-.633.316l-2-.666c-.262-.088-.403-.37-.316-.633zm0 5.982c-.087-.263.055-.545.316-.633l2-.666c.263-.089.545.055.633.316.087.263-.055.545-.316.633l-2 .666c-.255.086-.546-.052-.633-.316zm21.975 11.509c0 .276-.224.5-.5.5s-.5-.224-.5-.5c0-1.379-1.122-2.5-2.5-2.5s-2.5 1.121-2.5 2.5c0 .276-.224.5-.5.5s-.5-.224-.5-.5c0-1.93 1.57-3.5 3.5-3.5s3.5 1.57 3.5 3.5zm-8.5 4c0 .276-.224.5-.5.5s-.5-.224-.5-.5c0-1.379-1.122-2.5-2.5-2.5s-2.5 1.121-2.5 2.5c0 .276-.224.5-.5.5s-.5-.224-.5-.5c0-1.93 1.57-3.5 3.5-3.5s3.5 1.57 3.5 3.5zm-8.5-4c0 .276-.224.5-.5.5s-.5-.224-.5-.5c0-1.379-1.122-2.5-2.5-2.5s-2.5 1.121-2.5 2.5c0 .276-.224.5-.5.5s-.5-.224-.5-.5c0-1.93 1.57-3.5 3.5-3.5s3.5 1.57 3.5 3.5zm8.147-18.385c-1.176-.954-2.718-1.316-4.229-1.001-1.998.421-3.548 2.07-3.858 4.104-.311 2.036.631 4.026 2.398 5.069.339.2.542.531.542.886v.327c0 .827.673 1.5 1.5 1.5h1c.827 0 1.5-.673 1.5-1.5v-.326c0-.354.204-.687.546-.889 1.537-.91 2.454-2.512 2.454-4.285 0-1.514-.675-2.931-1.853-3.885zm-2.147 9.385c0 .275-.224.5-.5.5h-1c-.276 0-.5-.225-.5-.5 0-.122.006-.384-.023-.5h2.047c-.03.115-.024.379-.024.5zm1.037-2.076c-.256.151-.457.354-.624.576h-.912v-3.075c.667-.159 1.23-.613 1.468-1.249.097-.259-.034-.547-.293-.644-.257-.1-.547.034-.644.292-.151.404-.566.676-1.032.676s-.88-.271-1.032-.676c-.097-.258-.384-.393-.644-.292-.259.097-.39.385-.293.644.239.637.801 1.09 1.468 1.249v3.075h-.911c-.166-.222-.367-.423-.622-.574-1.414-.834-2.167-2.427-1.918-4.058.244-1.598 1.509-2.945 3.076-3.275.289-.061.58-.091.867-.091.92 0 1.809.308 2.527.89.942.764 1.482 1.897 1.482 3.108 0 1.416-.734 2.696-1.963 3.424z"/></svg>