<?xml version="1.0" encoding="UTF-8"?>
<svg xmlns="http://www.w3.org/2000/svg" id="Layer_1" data-name="Layer 1" viewBox="0 0 24 24">
  <path d="M20,10c0,.276-.224,.5-.5,.5h-2v2c0,.276-.224,.5-.5,.5s-.5-.224-.5-.5v-2h-2c-.276,0-.5-.224-.5-.5s.224-.5,.5-.5h2v-2c0-.276,.224-.5,.5-.5s.5,.224,.5,.5v2h2c.276,0,.5,.224,.5,.5Zm-12,1c-1.978,0-3.68,1.474-3.96,3.429-.039,.273,.15,.526,.424,.566,.267,.034,.526-.15,.566-.424,.21-1.465,1.486-2.571,2.97-2.571s2.76,1.105,2.97,2.571c.036,.25,.25,.429,.494,.429,.024,0,.048-.001,.072-.005,.273-.04,.463-.292,.424-.566-.28-1.955-1.982-3.429-3.96-3.429Zm-2.5-3.5c0-1.378,1.121-2.5,2.5-2.5s2.5,1.122,2.5,2.5-1.121,2.5-2.5,2.5-2.5-1.122-2.5-2.5Zm1,0c0,.827,.673,1.5,1.5,1.5s1.5-.673,1.5-1.5-.673-1.5-1.5-1.5-1.5,.673-1.5,1.5ZM24,3.5v13c0,1.93-1.57,3.5-3.5,3.5h-3.532l-3.985,3.295c-.561,.498-1.417,.488-1.979-.011l-3.898-3.284H3.5c-1.93,0-3.5-1.57-3.5-3.5V3.5C0,1.57,1.57,0,3.5,0H20.5c1.93,0,3.5,1.57,3.5,3.5Zm-1,0c0-1.378-1.121-2.5-2.5-2.5H3.5c-1.379,0-2.5,1.122-2.5,2.5v13c0,1.378,1.121,2.5,2.5,2.5h3.788c.118,0,.232,.042,.322,.118l4.048,3.41c.199,.178,.485,.177,.674,.008l4.138-3.421c.09-.074,.202-.115,.318-.115h3.712c1.379,0,2.5-1.122,2.5-2.5V3.5Z"/>
</svg>
