<?xml version="1.0" encoding="UTF-8"?>
<svg xmlns="http://www.w3.org/2000/svg" id="Layer_1" data-name="Layer 1" viewBox="0 0 24 24">
  <path d="m19.987,15.093v-5.909c.483-.113.943-.349,1.319-.725l1.888-1.888c1.075-1.075,1.075-2.825,0-3.901l-1.888-1.888c-1.042-1.042-2.859-1.042-3.901,0l-1.889,1.888c-.379.379-.616.843-.728,1.33h-5.851C8.684,1.756,6.798,0,4.487,0,2.006,0-.013,2.019-.013,4.5-.013,6.81,1.743,8.697,3.987,8.949v7.051h-1c-1.379,0-2.5,1.121-2.5,2.5v3c0,1.379,1.121,2.5,2.5,2.5h3c1.379,0,2.5-1.121,2.5-2.5v-3c0-1.379-1.121-2.5-2.5-2.5h-1v-7.051c2.078-.234,3.716-1.872,3.949-3.949h5.809c.079.575.329,1.13.77,1.571l1.889,1.888c.443.444,1.004.694,1.583.771v5.779c-2.439.049-4.41,2.04-4.41,4.491,0,2.481,2.019,4.5,4.5,4.5s4.5-2.019,4.5-4.5c0-2.17-1.543-3.985-3.59-4.407Zm-12.5,3.407v3c0,.827-.673,1.5-1.5,1.5h-3c-.827,0-1.5-.673-1.5-1.5v-3c0-.827.673-1.5,1.5-1.5h3c.827,0,1.5.673,1.5,1.5Zm-3-10.5c-1.93,0-3.5-1.57-3.5-3.5s1.57-3.5,3.5-3.5,3.5,1.57,3.5,3.5-1.57,3.5-3.5,3.5Zm11.736-2.136c-.686-.686-.686-1.801,0-2.487l1.889-1.888c.332-.333.773-.515,1.243-.515s.912.183,1.244.515l1.888,1.888c.686.686.686,1.802,0,2.487l-1.888,1.888c-.685.686-1.801.686-2.487,0l-1.889-1.888Zm2.854,17.136c-1.93,0-3.5-1.57-3.5-3.5s1.57-3.5,3.5-3.5,3.5,1.57,3.5,3.5-1.57,3.5-3.5,3.5Z"/>
</svg>
