<svg id="Layer_1" viewBox="0 0 24 24" xmlns="http://www.w3.org/2000/svg" data-name="Layer 1"><path d="m10 10.605c0 1.32-1.074 2.395-2.395 2.395h-.605v.5c0 .276-.224.5-.5.5s-.5-.224-.5-.5v-.5h-.829c-.885 0-1.693-.484-2.111-1.264-.131-.243-.039-.547.204-.677.241-.132.546-.04.677.204.244.454.715.736 1.23.736h2.435c.769 0 1.395-.626 1.395-1.395 0-.685-.49-1.264-1.165-1.376l-2.834-.473c-1.159-.193-2.001-1.187-2.001-2.362 0-1.32 1.074-2.395 2.395-2.395h.605v-.5c0-.276.224-.5.5-.5s.5.224.5.5v.5h.605c.884 0 1.692.484 2.11 1.264.131.243.039.547-.204.677-.242.133-.547.039-.677-.204-.244-.454-.715-.736-1.229-.736h-2.211c-.769 0-1.395.626-1.395 1.395 0 .685.49 1.264 1.165 1.376l2.834.473c1.159.193 2.001 1.187 2.001 2.362zm14 6.895c0 3.584-2.916 6.5-6.5 6.5s-6.5-2.916-6.5-6.5 2.916-6.5 6.5-6.5 6.5 2.916 6.5 6.5zm-1 0c0-3.032-2.468-5.5-5.5-5.5s-5.5 2.468-5.5 5.5 2.468 5.5 5.5 5.5 5.5-2.468 5.5-5.5zm-5.5 1.5c.276 0 .5-.224.5-.5v-5c0-.276-.224-.5-.5-.5s-.5.224-.5.5v5c0 .276.224.5.5.5zm0 1c-.552 0-1 .448-1 1s.448 1 1 1 1-.448 1-1-.448-1-1-1zm-8.785 1-2.548 1.771-2.548-1.772c-.176-.122-.408-.119-.582.008l-2.037 1.499v-18.006c0-1.93 1.57-3.5 3.5-3.5h9c1.93 0 3.5 1.57 3.5 3.5v4c0 .276.224.5.5.5s.5-.224.5-.5v-4c0-2.481-2.019-4.5-4.5-4.5h-9c-2.481 0-4.5 2.019-4.5 4.5v18.995c0 .189.106.361.274.446s.37.068.522-.044l2.545-1.873 2.54 1.767c.17.119.4.119.57 0l2.833-1.971c.228-.157.283-.469.125-.695-.157-.227-.469-.282-.695-.125z"/></svg>