<svg id="Layer_1" viewBox="0 0 24 24" xmlns="http://www.w3.org/2000/svg" data-name="Layer 1"><path d="m20 15h-2v-.5c0-1.378-1.121-2.5-2.5-2.5h-7c-1.378 0-2.5 1.122-2.5 2.5v5c0 2.481 2.019 4.5 4.5 4.5h3c1.953 0 3.602-1.258 4.224-3h2.276c1.654 0 3-1.346 3-3s-1.346-3-3-3zm-6.5 8h-3c-1.93 0-3.5-1.57-3.5-3.5v-5c0-.827.673-1.5 1.5-1.5h7c.827 0 1.5.673 1.5 1.5v5c0 1.93-1.57 3.5-3.5 3.5zm6.5-3h-2.051c.019-.166.051-.329.051-.5v-3.5h2c1.103 0 2 .897 2 2s-.897 2-2 2zm3.5-17h-8.5v-.5c0-1.378-1.121-2.5-2.5-2.5h-1c-1.378 0-2.5 1.122-2.5 2.5v.5h-8.5c-.276 0-.5.224-.5.5s.224.5.5.5h8.503c.009.788.317 1.528.875 2.086l1.621 1.621v1.793c0 .276.224.5.5.5s.5-.224.5-.5v-1.793l1.621-1.621c.558-.559.866-1.299.875-2.086h8.503c.276 0 .5-.224.5-.5s-.224-.5-.5-.5zm-9.5.964c0 .534-.208 1.036-.586 1.415l-1.414 1.414-1.414-1.414c-.378-.378-.586-.88-.586-1.415v-1.464c0-.827.673-1.5 1.5-1.5h1c.827 0 1.5.673 1.5 1.5z"/></svg>