<svg id="Layer_1" viewBox="0 0 24 24" xmlns="http://www.w3.org/2000/svg" data-name="Layer 1"><path d="m9 12c3.309 0 6-2.691 6-6s-2.691-6-6-6-6 2.691-6 6 2.691 6 6 6zm0-11c2.757 0 5 2.243 5 5s-2.243 5-5 5-5-2.243-5-5 2.243-5 5-5zm3.294 14.708c-1.038-.469-2.146-.708-3.294-.708-4.411 0-8 3.589-8 8v.5c0 .276-.224.5-.5.5s-.5-.224-.5-.5v-.5c0-4.962 4.038-9 9-9 1.291 0 2.538.268 3.706.796.251.114.363.41.25.662-.114.251-.41.364-.662.25zm11.706 3.792c0 .276-.224.5-.5.5h-1.882c-.163 0-.334.165-.427.41l-1.048 2.783c-.189.501-.59.807-1.054.807-.015 0-.03 0-.045 0-.488-.021-.902-.386-1.056-.931l-1.939-6.865c-.044-.156-.13-.203-.137-.203-.017 0-.074.037-.121.16l-1.048 2.783c-.242.643-.777 1.058-1.362 1.058h-1.882c-.276 0-.5-.224-.5-.5s.224-.5.5-.5h1.882c.163 0 .334-.165.427-.41l1.048-2.783c.195-.518.617-.835 1.099-.806.488.021.902.386 1.056.931l1.939 6.865c.044.156.133.2.137.203.017 0 .074-.037.121-.16l1.048-2.783c.242-.643.777-1.058 1.362-1.058h1.882c.276 0 .5.224.5.5z"/></svg>