<svg id="Layer_1" viewBox="0 0 24 24" xmlns="http://www.w3.org/2000/svg" data-name="Layer 1"><path d="m9 18c-.552 0-1-.448-1-1s.448-1 1-1 1 .448 1 1-.448 1-1 1zm3.409 4.894c-.383.07-.772.106-1.159.106-2.896 0-5.459-2.047-6.097-4.867-.027-.121-.099-.228-.2-.299-2.476-1.732-3.953-4.567-3.953-7.584 0-5.101 4.149-9.25 9.25-9.25.721 0 1.439.083 2.135.248.278.063.539-.104.602-.372.063-.269-.103-.538-.371-.602-.771-.182-1.567-.274-2.365-.274-5.653 0-10.251 4.598-10.251 10.25 0 3.278 1.575 6.363 4.224 8.291.816 3.225 3.679 5.459 7.026 5.459.448 0 .899-.042 1.341-.124.271-.05.451-.311.4-.582-.05-.272-.313-.452-.582-.4zm-.409-4.894c-.552 0-1 .448-1 1s.448 1 1 1 1-.448 1-1-.448-1-1-1zm11.3-3.647c-.398.593-.398 1.488 0 2.082.458.68.7 1.493.7 2.352 0 .79-.499 1.727-.809 2.303-.144.277-.206.639-.188 1.074.02.479-.153.934-.486 1.281-.338.353-.812.555-1.301.556h-4.09c-.82 0-1.555-.458-1.919-1.192-.364-.736-.28-1.599.218-2.252.376-.486.574-1.094.574-1.76 0-.655-.188-1.296-.53-1.804-.623-.927-.623-2.271 0-3.198.347-.516.53-1.136.53-1.794s-.184-1.279-.53-1.794c-.624-.927-.624-2.271 0-3.198.348-.515.531-1.136.531-1.794 0-.672-.198-1.283-.572-1.768-.499-.656-.582-1.518-.218-2.253.364-.736 1.1-1.194 1.92-1.194h4.086c.491 0 .968.204 1.306.558.333.349.505.804.481 1.281-.02.437.1.891.247 1.157.352.631.75 1.347.75 2.217 0 .858-.242 1.671-.7 2.353-.393.583-.393 1.498 0 2.081.458.682.7 1.495.7 2.353s-.242 1.672-.7 2.353zm-3.83-7.344c.347-.516.53-1.136.53-1.794 0-.61-.303-1.155-.624-1.73-.427-.771-.399-1.844-.269-2.483h-1.977c-.443 0-.826.238-1.023.636s-.154.847.114 1.201c.509.658.779 1.48.779 2.376 0 .858-.242 1.672-.701 2.353-.393.583-.393 1.497 0 2.08.459.68.701 1.494.701 2.353s-.242 1.672-.7 2.353c-.399.593-.399 1.488 0 2.081.451.671.7 1.511.7 2.362 0 .89-.271 1.709-.781 2.369-.268.352-.312.801-.114 1.199.197.397.579.635 1.022.635h1.974c-.123-.628-.202-1.587.201-2.369.277-.519.697-1.305.697-1.844 0-.658-.184-1.278-.53-1.794-.622-.927-.622-2.271 0-3.197.347-.517.53-1.137.53-1.795s-.184-1.279-.53-1.794c-.623-.927-.623-2.271 0-3.198zm3 0c.347-.516.53-1.136.53-1.794 0-.61-.303-1.155-.624-1.73-.238-.43-.4-1.065-.371-1.69.009-.202-.064-.395-.207-.544-.15-.158-.362-.249-.582-.249h-1.085c-.128.516-.184 1.45.12 1.996.352.631.75 1.347.75 2.217 0 .858-.242 1.671-.7 2.353-.399.593-.399 1.488 0 2.082.458.681.7 1.494.7 2.352s-.242 1.672-.7 2.353c-.398.593-.398 1.488 0 2.082.458.68.7 1.493.7 2.352 0 .79-.499 1.727-.809 2.303-.293.568-.19 1.399-.068 1.911h1.092c.218 0 .43-.09.579-.247.144-.149.218-.344.209-.548-.025-.61.075-1.141.299-1.575.277-.519.697-1.305.697-1.844 0-.658-.184-1.278-.53-1.794-.622-.927-.622-2.271 0-3.197.347-.517.53-1.137.53-1.795s-.184-1.279-.53-1.795c-.623-.926-.623-2.271 0-3.197zm-9.47 2.492c0 2.481-2.019 4.5-4.5 4.5s-4.5-2.019-4.5-4.5 2.019-4.5 4.5-4.5 4.5 2.019 4.5 4.5zm-1 0c0-1.93-1.57-3.5-3.5-3.5s-3.5 1.57-3.5 3.5 1.57 3.5 3.5 3.5 3.5-1.57 3.5-3.5z"/></svg>