<svg id="Layer_1" viewBox="0 0 24 24" xmlns="http://www.w3.org/2000/svg" data-name="Layer 1"><path d="m19.774 4.401c-1.269-1.693-2.982-2.942-4.897-3.671-1.395-.548-2.911-.758-4.4-.716-.276.013-.489.247-.476.522.013.276.247.514.522.476 1.7-.053 3.407.297 4.928 1.061 2.534 1.343 3.939 3.167 5.296 5.927h-3.247c-.827 0-1.5.673-1.5 1.5s.673 1.5 1.5 1.5h4.632c.515 1.225.868 2.227.868 2.546 0 .137-.053.454-.546.454h-.956c-.236 0-.438.165-.487.396l-.601 2.83c-.341 1.607-1.78 2.773-3.424 2.773h-1.486c-.276 0-.5.224-.5.5v1c0 .827-.673 1.5-1.5 1.5h-1.5v-13.499c0-.827-.673-1.5-1.5-1.5h-1c-.275 0-.5-.225-.5-.5v-4c0-.827-.673-1.5-1.5-1.5h-2.551c-.232-1.14-1.242-2-2.449-2-1.379 0-2.5 1.121-2.5 2.5s1.121 2.5 2.5 2.5c1.208 0 2.217-.86 2.449-2h2.551c.275 0 .5.225.5.5v4c0 .827.673 1.5 1.5 1.5h1c.275 0 .5.225.5.5v13.5h-3.5c-.692 0-1.5-.393-1.5-1.5v-3.172c0-.668-.26-1.295-.732-1.768l-1.828-1.828c-.279-.279-.439-.666-.439-1.061v-1.722c1.14-.232 2-1.242 2-2.449 0-1.379-1.121-2.5-2.5-2.5s-2.5 1.121-2.5 2.5c0 1.208.86 2.217 2 2.449v1.722c0 .668.26 1.295.732 1.768l1.828 1.828c.279.279.439.666.439 1.061v3.172c0 1.472 1.028 2.5 2.5 2.5h6c1.379 0 2.5-1.121 2.5-2.5v-.5h.986c2.113 0 3.964-1.5 4.402-3.566l.517-2.434h.549c1.134 0 1.546-.869 1.546-1.454 0-1.284-2.852-7.447-4.226-9.145zm-2.274 5.599c-.275 0-.5-.225-.5-.5s.225-.5.5-.5h3.737c.159.336.312.67.46 1zm-15-6c-.827 0-1.5-.673-1.5-1.5s.673-1.5 1.5-1.5 1.5.673 1.5 1.5-.673 1.5-1.5 1.5zm0 7c-.827 0-1.5-.673-1.5-1.5s.673-1.5 1.5-1.5 1.5.673 1.5 1.5-.673 1.5-1.5 1.5z"/></svg>