<?xml version="1.0" encoding="UTF-8"?>
<svg xmlns="http://www.w3.org/2000/svg" id="Layer_1" data-name="Layer 1" viewBox="0 0 24 24">
  <path d="m12,9c1.103,0,2-.897,2-2s-.897-2-2-2-2,.897-2,2,.897,2,2,2Zm0-3c.551,0,1,.449,1,1s-.449,1-1,1-1-.449-1-1,.449-1,1-1Zm-6.201,3.392c-.102.388-.046.792.156,1.137.202.346.526.593.914.695.387.101.792.047,1.137-.156l.641-.374c.537.489,1.167.852,1.853,1.068v.738c0,.827.673,1.5,1.5,1.5s1.5-.673,1.5-1.5v-.738c.687-.217,1.316-.58,1.853-1.068l.64.374c.346.203.75.257,1.138.156.388-.102.712-.349.914-.694.202-.346.257-.75.156-1.137s-.349-.713-.695-.915l-.646-.377c.094-.385.14-.747.14-1.1s-.046-.715-.14-1.101l.646-.377c.346-.202.593-.527.695-.915s.046-.792-.156-1.137c-.202-.346-.526-.593-.914-.695-.389-.101-.792-.047-1.138.155l-.641.374c-.537-.488-1.167-.852-1.853-1.068v-.738c0-.827-.673-1.5-1.5-1.5s-1.5.673-1.5,1.5v.738c-.687.216-1.316.58-1.853,1.068l-.641-.374c-.346-.202-.75-.256-1.138-.155-.387.102-.712.349-.914.694-.202.346-.257.75-.156,1.137s.349.713.695.915l.646.377c-.094.385-.14.748-.14,1.101s.046.715.14,1.1l-.646.377c-.346.202-.593.527-.695.915Zm.967.254c.034-.129.116-.238.231-.305l.979-.572c.202-.118.295-.359.225-.582-.138-.439-.202-.817-.202-1.188s.064-.748.202-1.188c.07-.223-.023-.464-.225-.581l-.979-.571c-.115-.067-.198-.176-.231-.305-.034-.129-.016-.263.052-.379.067-.115.176-.198.305-.231.128-.035.263-.016.379.051l.971.567c.201.118.458.081.617-.089.549-.586,1.249-.989,2.021-1.165.228-.052.389-.254.389-.487v-1.12c0-.276.224-.5.5-.5s.5.224.5.5v1.12c0,.233.161.436.389.487.773.176,1.472.579,2.021,1.165.16.17.416.207.617.089l.971-.567c.116-.067.25-.086.379-.051.129.034.237.116.305.232.067.115.086.25.052.378-.034.129-.116.238-.231.305l-.979.571c-.202.117-.295.358-.225.581.138.44.202.818.202,1.188s-.064.748-.202,1.188c-.07.223.023.464.225.582l.979.572c.115.067.198.176.231.305.034.129.016.263-.052.379-.067.115-.176.198-.305.231-.129.034-.265.015-.379-.052l-.971-.567c-.201-.117-.457-.081-.617.09-.549.586-1.249.989-2.021,1.165-.228.052-.389.254-.389.487v1.12c0,.276-.224.5-.5.5s-.5-.224-.5-.5v-1.12c0-.233-.161-.436-.389-.487-.773-.176-1.472-.579-2.021-1.165-.097-.104-.23-.158-.365-.158-.086,0-.173.022-.252.068l-.971.567c-.115.067-.249.086-.379.052-.129-.034-.237-.116-.305-.232-.067-.115-.086-.25-.052-.378Zm14.233,6.354H3c-1.654,0-3,1.346-3,3v2c0,1.654,1.346,3,3,3h18c1.654,0,3-1.346,3-3v-2c0-1.654-1.346-3-3-3ZM1,21v-2c0-1.103.897-2,2-2h12v6H3c-1.103,0-2-.897-2-2Zm22,0c0,1.103-.897,2-2,2h-5v-6h5c1.103,0,2,.897,2,2v2Z"/>
</svg>
