<svg id="Layer_1" viewBox="0 0 24 24" xmlns="http://www.w3.org/2000/svg" data-name="Layer 1"><path d="m20 9.5v-1c0-1.758-1.308-3.204-3-3.449v-.551c0-.827-.673-1.5-1.5-1.5h-2v-2c0-.552-.449-1-1-1h-1c-.551 0-1 .448-1 1v2h-2c-.827 0-1.5.673-1.5 1.5v.551c-1.692.245-3 1.691-3 3.449v1c0 1.271.682 2.387 1.699 3-1.017.613-1.699 1.729-1.699 3v4c0 2.481 2.019 4.5 4.5 4.5h7c2.481 0 4.5-2.019 4.5-4.5v-4c0-1.271-.682-2.387-1.699-3 1.017-.613 1.699-1.729 1.699-3zm-8.5-8.5h1v2h-1zm-3 3h7c.276 0 .5.225.5.5v.5h-8v-.5c0-.275.224-.5.5-.5zm7 9h1c1.378 0 2.5 1.121 2.5 2.5v4c0 1.93-1.57 3.5-3.5 3.5h-7c-1.93 0-3.5-1.57-3.5-3.5v-4c0-1.379 1.122-2.5 2.5-2.5h5c.276 0 .5-.224.5-.5s-.224-.5-.5-.5h-5c-1.378 0-2.5-1.121-2.5-2.5v-1c0-1.379 1.122-2.5 2.5-2.5h9c1.378 0 2.5 1.121 2.5 2.5v1c0 1.379-1.122 2.5-2.5 2.5h-1c-.276 0-.5.224-.5.5s.224.5.5.5z"/></svg>