<svg id="Layer_1" viewBox="0 0 24 24" xmlns="http://www.w3.org/2000/svg" data-name="Layer 1"><path d="m16.51 8.49c-1.605-1.605-3.74-2.49-6.01-2.49s-4.405.884-6.01 2.49c-.195.195-.512.195-.707 0s-.195-.512 0-.707c1.794-1.794 4.18-2.783 6.717-2.783s4.923.988 6.717 2.783c.195.195.195.512 0 .707s-.512.195-.707 0zm-10.606 1.414c-.195.195-.195.512 0 .707s.512.195.707 0c2.145-2.145 5.634-2.145 7.778 0 .195.195.512.195.707 0s.195-.512 0-.707c-2.534-2.534-6.658-2.534-9.192 0zm7.071 2.122c-1.321-1.322-3.628-1.322-4.949 0-.195.195-.195.512 0 .707s.512.195.707 0c.944-.944 2.591-.944 3.535 0 .195.195.512.195.707 0s.195-.512 0-.707zm-2.475 1.975c-.552 0-1 .448-1 1s.448 1 1 1 1-.448 1-1-.448-1-1-1zm0 6c-5.238-.001-9.5-4.263-9.5-9.501s4.262-9.5 9.5-9.5 9.5 4.262 9.5 9.5c0 .276.224.5.5.5s.5-.224.5-.5c0-5.79-4.71-10.5-10.5-10.5s-10.5 4.71-10.5 10.5 4.71 10.5 10.5 10.5c.276 0 .5-.224.5-.5s-.224-.5-.5-.5zm9.5 2c-.552 0-1 .448-1 1s.448 1 1 1 1-.448 1-1-.448-1-1-1zm3-3c-.552 0-1 .448-1 1s.448 1 1 1 1-.448 1-1-.448-1-1-1zm-3 0c-.552 0-1 .448-1 1s.448 1 1 1 1-.448 1-1-.448-1-1-1zm-2-4.5v2c0 .827-.673 1.5-1.5 1.5h-2c-.827 0-1.5-.673-1.5-1.5v-2c0-.827.673-1.5 1.5-1.5h2c.827 0 1.5.673 1.5 1.5zm-1 0c0-.275-.224-.5-.5-.5h-2c-.276 0-.5.225-.5.5v2c0 .275.224.5.5.5h2c.276 0 .5-.225.5-.5zm1 6v2c0 .827-.673 1.5-1.5 1.5h-2c-.827 0-1.5-.673-1.5-1.5v-2c0-.827.673-1.5 1.5-1.5h2c.827 0 1.5.673 1.5 1.5zm-1 0c0-.275-.224-.5-.5-.5h-2c-.276 0-.5.225-.5.5v2c0 .275.224.5.5.5h2c.276 0 .5-.225.5-.5zm7-6v2c0 .827-.673 1.5-1.5 1.5h-2c-.827 0-1.5-.673-1.5-1.5v-2c0-.827.673-1.5 1.5-1.5h2c.827 0 1.5.673 1.5 1.5zm-1 0c0-.275-.224-.5-.5-.5h-2c-.276 0-.5.225-.5.5v2c0 .275.224.5.5.5h2c.276 0 .5-.225.5-.5zm-1.5.25c-.414 0-.75.336-.75.75s.336.75.75.75.75-.336.75-.75-.336-.75-.75-.75zm-6 0c-.414 0-.75.336-.75.75s.336.75.75.75.75-.336.75-.75-.336-.75-.75-.75zm0 6c-.414 0-.75.336-.75.75s.336.75.75.75.75-.336.75-.75-.336-.75-.75-.75z"/></svg>