<?xml version="1.0" encoding="UTF-8"?>
<svg xmlns="http://www.w3.org/2000/svg" id="Layer_1" data-name="Layer 1" viewBox="0 0 24 24">
  <path d="M11,12c0,.552-.448,1-1,1s-1-.448-1-1,.448-1,1-1,1,.448,1,1Zm3-1c-.552,0-1,.448-1,1s.448,1,1,1,1-.448,1-1-.448-1-1-1Zm4,1.244v1.256c0,1.378-1.121,2.5-2.5,2.5h-.5c0,1.103-.897,2-2,2h-2c-1.103,0-2-.897-2-2h-.5c-1.379,0-2.5-1.122-2.5-2.5v-1.5c0-1.687,.719-3.306,1.972-4.443,1.268-1.152,2.906-1.7,4.625-1.528,3.029,.294,5.403,3.024,5.403,6.215Zm-1,0c0-2.682-1.977-4.974-4.501-5.22-.169-.017-.338-.024-.505-.024-1.244,0-2.418,.451-3.351,1.297-1.045,.948-1.644,2.297-1.644,3.703v1.5c0,.827,.673,1.5,1.5,1.5h1c.276,0,.5,.224,.5,.5v.5c0,.551,.448,1,1,1h2c.552,0,1-.449,1-1v-.5c0-.276,.224-.5,.5-.5h1c.827,0,1.5-.673,1.5-1.5v-1.256Zm4.978,5.106c-.083-.263-.362-.409-.627-.327l-9.351,2.934-9.351-2.934c-.263-.083-.544,.064-.627,.327-.082,.264,.064,.544,.328,.627l7.98,2.504-7.98,2.504c-.264,.083-.41,.363-.328,.627,.067,.213,.265,.35,.478,.35,.05,0,.1-.007,.149-.023l9.351-2.934,9.351,2.934c.05,.016,.1,.023,.149,.023,.213,0,.41-.137,.478-.35,.082-.264-.064-.544-.328-.627l-7.98-2.504,7.98-2.504c.264-.083,.41-.363,.328-.627Zm-17.478-1.84c.109,0,.22-.036,.312-.109,.216-.172,.252-.486,.08-.702-1.744-2.193-3.835-5.419-3.891-8.335-.032-1.728,.962-3.459,2.595-4.518,1.678-1.089,3.249-.931,4.27-.606,1.624,.517,3.03,1.837,3.67,3.445,.152,.38,.777,.38,.93,0,.64-1.608,2.047-2.928,3.67-3.445,1.021-.325,2.591-.483,4.27,.606,1.634,1.059,2.628,2.79,2.595,4.518-.055,2.911-2.141,6.134-3.882,8.325-.172,.216-.136,.531,.081,.703,.215,.17,.529,.136,.702-.081,1.837-2.312,4.039-5.738,4.099-8.929,.039-2.07-1.13-4.13-3.05-5.375C19.383-.009,17.564-.265,15.832,.287c-1.574,.501-2.973,1.644-3.832,3.088-.859-1.444-2.258-2.587-3.831-3.088C6.437-.264,4.619-.009,3.051,1.007,1.132,2.252-.037,4.312,0,6.383c.062,3.196,2.268,6.625,4.107,8.938,.099,.125,.245,.189,.392,.189Z"/>
</svg>
