<?xml version="1.0" encoding="UTF-8"?>
<svg xmlns="http://www.w3.org/2000/svg" id="Layer_1" data-name="Layer 1" viewBox="0 0 24 24">
  <path d="M17.756,16.055c.413-.635,.363-1.466-.124-2.047l-.565-.675,2.033-3.403,1.615-.298c.519-.096,1.017-.284,1.469-.555l1.196-.717c.385-.231,.62-.646,.62-1.095,0-.705-.572-1.277-1.277-1.277h-1.723s-.096-.981-.745-1.376c-.593-.361-.725-.377-.743-.377-.002,0-.003,0-.003,0-.273-.138-.574-.209-.879-.209-.053,0-3.172,.253-3.172,.253l-.223-.432c-.189-.367-.528-.635-.929-.734l-3.107-.767c-.101-.025-.204-.037-.306-.037-.334,0-.66,.132-.903,.374l-.491,.491-2.5-.5-2-.5-.797-.531c-.144-.096-.307-.142-.468-.142-.273,0-.541,.132-.704,.376l-.531,.797-1.503,.407C.306,3.355-.1,4.074,.022,4.807l.159,.957c.083,.499,.399,.927,.852,1.153l.796,.398c.221,.11,.462,.167,.706,.167,.103,0,.207-.01,.31-.031,0,0,1.708-.218,1.747-.218,.285,0,.558,.131,.736,.36,.282,.362,.259,.874-.053,1.21l-.799,.859c-.306,.328-.476,.761-.476,1.209v1.302s-1.096,.315-.5,1.5c.578,1.149,1,2,1,2l-.858,2.282c-.228,.685-.05,1.441,.461,1.952l1.619,1.619c.308,.308,.714,.464,1.12,.464,.371,0,.743-.13,1.042-.391l1.616-1.611h3.335c.426,0,.835-.169,1.136-.471l1.029-1.029,.928-.309c.37-.123,.688-.369,.901-.696l.928-1.427Zm-1.766,.882c-.089,.137-.223,.241-.378,.292l-.928,.309c-.147,.049-.281,.132-.391,.242l-1.029,1.029c-.115,.115-.267,.178-.429,.178h-3.335c-.265,0-.518,.105-.706,.292l-1.588,1.582c-.131,.105-.269,.128-.365,.128-.156,0-.303-.061-.413-.171l-1.619-1.619c-.245-.245-.329-.6-.232-.893l.858-2.282c.098-.26,.083-.548-.04-.796,0,0-1.039-2.083-1.049-2.111,.423-.117,.653-.492,.653-.944v-1.302c0-.197,.074-.384,.208-.528l.799-.859c.65-.699,.696-1.753,.109-2.505-.369-.474-.925-.745-1.525-.745-.082,0-.165,.005-.248,.016,0,0-1.772,.233-1.809,.233-.089,0-.179-.021-.259-.061l-.796-.398c-.165-.083-.282-.241-.312-.423l-.159-.957c-.042-.253,.091-.505,.318-.616l1.435-.389c.234-.063,.436-.209,.571-.411l.445-.668,.668,.445c.095,.064,.201,.11,.312,.138l2.046,.51,2.5,.5c.065,.013,.131,.019,.196,.019,.263,0,.518-.104,.707-.293l.491-.491c.051-.051,.123-.081,.195-.081,.022,0,.044,.003,.066,.008l3.107,.767c.121,.03,.223,.11,.279,.221l.223,.432c.172,.335,.517,.542,.889,.542,.027,0,3.095-.25,3.095-.25,.026-.002,.374,.032,.506,.099,.069,.035,.141,.061,.215,.079,.056,.026,.194,.096,.461,.259,.119,.073,.243,.398,.27,.62,.05,.512,.481,.902,.995,.902h1.723c.153,0,.277,.124,.277,.277,0,.097-.052,.188-.134,.238l-1.196,.717c-.351,.211-.733,.355-1.136,.429l-1.615,.298c-.283,.052-.53,.224-.677,.471l-2.033,3.403c-.218,.365-.181,.829,.092,1.155l.565,.675c.206,.246,.227,.591,.052,.86l-.928,1.427Zm5.641-1.2c-.205-.168-.451-.25-.695-.25-.33,0-.657,.149-.875,.436l-.83,1.09c-.336,.442-.301,1.068,.083,1.467l.642,.668c.216,.224,.503,.339,.792,.339,.25,0,.501-.086,.707-.26l1.147-.97c.535-.452,.529-1.287-.012-1.732l-.96-.789Zm.326,1.757l-1.148,.97c-.019,.016-.039,.023-.062,.023-.027,0-.051-.011-.071-.031l-.642-.668c-.043-.045-.047-.119-.009-.169l.83-1.09c.026-.034,.058-.042,.08-.042,.029,0,.048,.013,.06,.023l.96,.789c.036,.03,.044,.069,.044,.097,0,.028-.007,.068-.043,.098Zm-3.444,3.387c.117,.268,.051,.585-.162,.779l-.724,.66c-.122,.112-.275,.167-.427,.167-.166,0-.331-.066-.457-.196l-.054-.056c-.278-.288-.245-.765,.069-1.01l.778-.604c.117-.091,.253-.134,.387-.134,.243,0,.48,.142,.59,.394Zm5.327-7.885c.175,.185,.21,.463,.087,.686-.107,.194-.307,.305-.515,.305-.088,0-.178-.02-.262-.062l-.812-.406c-.316-.158-.422-.557-.226-.851l.178-.267c.091-.177,.261-.325,.464-.325,.14,0,.295,.07,.452,.248l.635,.673Z"/>
</svg>
