<?xml version="1.0" encoding="UTF-8"?>
<svg xmlns="http://www.w3.org/2000/svg" id="Layer_1" data-name="Layer 1" viewBox="0 0 24 24">
  <path d="m12,6.5v5.223l3.765,2.354c.234.146.306.455.159.688-.095.152-.258.235-.424.235-.091,0-.183-.024-.265-.076l-4-2.5c-.146-.091-.235-.251-.235-.424v-5.5c0-.276.224-.5.5-.5s.5.224.5.5Zm5.5,2c0,.276.224.5.5.5h4.5c.827,0,1.5-.673,1.5-1.5V3c0-.276-.224-.5-.5-.5s-.5.224-.5.5v4.216C21.108,2.876,16.773,0,12,0,5.383,0,0,5.383,0,12s5.383,12,12,12c.014,0,.028,0,.038,0h.01c6.384-.025,11.623-5.023,11.937-11.399.014-.275-.198-.51-.475-.523-.278-.027-.511.199-.523.475-.289,5.858-5.114,10.448-10.986,10.448-6.065,0-11-4.935-11-11S5.935,1,12,1c4.515,0,8.604,2.807,10.244,7h-4.244c-.276,0-.5.224-.5.5Z"/>
</svg>
