<svg id="Layer_1" viewBox="0 0 24 24" xmlns="http://www.w3.org/2000/svg" data-name="Layer 1"><path d="m20.5 0c-.276 0-.5.224-.5.5v3.853l-7.515-3.928c-.037-.239-.235-.425-.485-.425s-.448.186-.485.425l-7.515 3.928v-3.853c0-.276-.224-.5-.5-.5s-.5.224-.5.5v16.638c0 1.682.926 3.21 2.416 3.988l4.519 2.362c.653.341 1.369.512 2.085.512s1.438-.172 2.094-.517l4.48-2.356c1.484-.78 2.406-2.306 2.406-3.982v-16.645c0-.276-.224-.5-.5-.5zm-16.5 6.682 6.651 3.476-6.651 3.476zm0 8.081 7.5-3.919v8.098c-.38-.054-.754-.148-1.099-.327l-6.401-3.763zm8.5-3.919 7.5 3.919v.089l-6.379 3.75c-.355.185-.736.282-1.121.338v-8.097zm.849-.685 6.651-3.476v6.952zm6.651-4.604-7.5 3.919v-7.912l7.5 3.919v.072zm-8.5-3.993v7.911l-7.5-3.919v-.072zm6.629 18.68-4.48 2.356c-1.017.534-2.233.535-3.251.003l-4.519-2.362c-1.159-.605-1.878-1.794-1.878-3.102v-1.127l5.916 3.477c.649.339 1.362.51 2.077.51.722 0 1.446-.174 2.112-.522l5.895-3.465v1.134c0 1.304-.717 2.491-1.871 3.098z"/></svg>