<svg id="Layer_1" viewBox="0 0 24 24" xmlns="http://www.w3.org/2000/svg" data-name="Layer 1"><path d="m17 11.6v-3.186c-.004-.897-.498-1.728-1.27-2.177l-2.504-1.414c-.76-.43-1.703-.43-2.462 0l-2.496 1.414c-.782.443-1.268 1.276-1.268 2.175v3.129c0 .895.482 1.727 1.259 2.17l2.515 1.438c.754.431 1.695.437 2.454.015l2.485-1.38c.793-.44 1.287-1.278 1.287-2.186zm-5.5 2.776c-.078-.028-2.744-1.531-2.744-1.531-.466-.266-.755-.765-.755-1.302v-3.129c0-.12.019-.237.047-.351l3.452 1.973v4.341zm-2.897-7.148c.053-.04 2.654-1.534 2.654-1.534.228-.129.483-.194.739-.194s.51.064.738.193c0 0 2.611 1.495 2.664 1.535l-3.396 1.941-3.399-1.943zm7.397 4.372c0 .544-.296 1.047-.772 1.312 0 0-2.646 1.448-2.729 1.476v-4.35l3.453-1.974c.028.114.047.231.047.351v3.186zm7.426 6.499-3.459-3.349c-.004-.219-.013-.437-.062-.651-.12-.527.122-1.088.601-1.397.89-.569 1.486-1.621 1.469-2.7.002-.542-.131-1.072-.386-1.532-.27-.488-.635-.882-1.084-1.172-.478-.309-.72-.87-.601-1.396.122-.532.104-1.081-.054-1.63-.296-1.03-1.119-1.852-2.147-2.146-.546-.156-1.095-.175-1.628-.055-.523.118-1.087-.121-1.396-.6-.29-.448-.684-.812-1.171-1.083-.936-.519-2.1-.519-3.036 0-.488.271-.882.636-1.171 1.084-.309.478-.872.719-1.396.6-.533-.121-1.08-.102-1.628.055-1.029.295-1.852 1.117-2.147 2.147-.157.548-.176 1.096-.055 1.629.12.526-.121 1.087-.6 1.396-.892.57-1.485 1.619-1.469 2.7-.016 1.086.575 2.132 1.47 2.704.478.309.72.87.6 1.396-.05.222-.062.449-.064.675l-3.434 3.325c-.53.511-.71 1.261-.47 1.957s.844 1.176 1.577 1.252l1.134.117.134.966c.112.914.897 1.615 1.858 1.615.479 0 .947-.186 1.303-.533l4.144-4.016c.487.383 1.13.539 1.735.545.61-.006 1.259-.166 1.748-.555l4.152 4.024c.357.349.825.535 1.305.535.203 0 .409-.034.608-.102.672-.229 1.151-.809 1.249-1.513l.134-.966 1.134-.117c.733-.076 1.337-.556 1.577-1.252s.06-1.446-.47-1.956zm-18.014 4.657c-.239.234-.572.31-.891.201-.318-.108-.536-.372-.582-.705l-.188-1.354c-.032-.228-.215-.405-.444-.429l-1.524-.157c-.346-.036-.621-.253-.734-.583-.113-.329-.032-.669.22-.912l2.957-2.863c.346.918 1.1 1.647 2.048 1.919.549.156 1.097.176 1.628.055.682-.177 1.234.318 1.609.854l-4.1 3.973zm8.426-4.77c-.2.309-.474.562-.816.751-.628.349-1.44.349-2.067 0-.343-.189-.617-.442-.816-.751-.442-.686-1.192-1.088-1.967-1.088-.547.029-1.063.211-1.623.014-.69-.197-1.263-.771-1.461-1.46-.11-.385-.124-.766-.041-1.132.212-.935-.203-1.922-1.033-2.458-.612-.395-1.024-1.109-1.012-1.864-.012-.75.402-1.468 1.012-1.86.831-.536 1.246-1.523 1.033-2.458-.083-.366-.069-.747.041-1.132.198-.69.771-1.263 1.461-1.461.385-.109.766-.123 1.131-.041.934.211 1.922-.202 2.458-1.033.199-.309.473-.562.815-.751.628-.349 1.439-.348 2.067 0 .342.19.617.443.816.751.536.831 1.522 1.244 2.458 1.033.367-.083.747-.07 1.131.041.69.197 1.264.771 1.462 1.46.11.385.124.766.04 1.132-.212.935.204 1.922 1.033 2.458.611.393 1.025 1.111 1.012 1.864.013.749-.403 1.469-1.012 1.86-.83.535-1.246 1.523-1.033 2.458.083.366.07.747-.041 1.131-.198.69-.772 1.264-1.462 1.461-.384.111-.764.124-1.131.041-.936-.208-1.922.203-2.458 1.033zm9.112 1.743c-.114.33-.388.547-.734.583l-1.524.157c-.229.024-.412.201-.444.429l-.188 1.354c-.046.333-.264.596-.582.705-.316.108-.65.034-.892-.203l-4.111-3.984c.37-.534.931-1.018 1.599-.841.531.12 1.079.103 1.628-.055.954-.273 1.712-1.009 2.055-1.935l2.973 2.878c.251.242.333.582.219.911z"/></svg>