<?xml version="1.0" encoding="UTF-8"?>
<svg xmlns="http://www.w3.org/2000/svg" id="Layer_1" data-name="Layer 1" viewBox="0 0 24 24">
  <path d="M20,16h-.092c.056-.157,.092-.324,.092-.5v-1c0-.827-.673-1.5-1.5-1.5h-1c-.827,0-1.5,.673-1.5,1.5v1c0,.176,.036,.343,.092,.5h-2.184c.056-.157,.092-.324,.092-.5v-1c0-.827-.673-1.5-1.5-1.5h-1c-.827,0-1.5,.673-1.5,1.5v1c0,.176,.036,.343,.092,.5h-2.184c.056-.157,.092-.324,.092-.5v-1c0-.827-.673-1.5-1.5-1.5h-1c-.827,0-1.5,.673-1.5,1.5v1c0,.176,.036,.343,.092,.5h-.092c-2.206,0-4,1.794-4,4s1.794,4,4,4H20c2.206,0,4-1.794,4-4s-1.794-4-4-4Zm-3-1.5c0-.276,.224-.5,.5-.5h1c.276,0,.5,.224,.5,.5v1c0,.276-.224,.5-.5,.5h-1c-.276,0-.5-.224-.5-.5v-1Zm-6,0c0-.276,.224-.5,.5-.5h1c.276,0,.5,.224,.5,.5v1c0,.276-.224,.5-.5,.5h-1c-.276,0-.5-.224-.5-.5v-1Zm-6,0c0-.276,.224-.5,.5-.5h1c.276,0,.5,.224,.5,.5v1c0,.276-.224,.5-.5,.5h-1c-.276,0-.5-.224-.5-.5v-1Zm15,8.5H4c-1.654,0-3-1.346-3-3s1.346-3,3-3H20c1.654,0,3,1.346,3,3s-1.346,3-3,3ZM.5,1h3.5v.306c0,1.531,.98,2.872,2.439,3.335l7.531,2.396c-.586,.458-.97,1.163-.97,1.962v1.5c0,.276,.224,.5,.5,.5s.5-.224,.5-.5v-1.5c0-.827,.673-1.5,1.5-1.5s1.5,.673,1.5,1.5v1.5c0,.276,.224,.5,.5,.5s.5-.224,.5-.5v-1.5c0-1.339-1.061-2.427-2.386-2.488l-7.614-2.423V1h15.5c.276,0,.5-.224,.5-.5s-.224-.5-.5-.5H.5C.224,0,0,.224,0,.5s.224,.5,.5,.5Zm4.5,0h2V3.771l-.258-.082c-1.042-.331-1.742-1.289-1.742-2.382v-.306Zm11,19c0,.552-.448,1-1,1s-1-.448-1-1,.448-1,1-1,1,.448,1,1Zm-6,0c0,.552-.448,1-1,1s-1-.448-1-1,.448-1,1-1,1,.448,1,1Zm-5,0c0,.552-.448,1-1,1s-1-.448-1-1,.448-1,1-1,1,.448,1,1Zm16,0c0,.552-.448,1-1,1s-1-.448-1-1,.448-1,1-1,1,.448,1,1Z"/>
</svg>
