<svg id="Layer_1" viewBox="0 0 24 24" xmlns="http://www.w3.org/2000/svg" data-name="Layer 1"><path d="m12.5 21.5v2c0 .276-.224.5-.5.5s-.5-.224-.5-.5v-2c0-.276.224-.5.5-.5s.5.224.5.5zm-.5-18.5c.276 0 .5-.224.5-.5v-2c0-.276-.224-.5-.5-.5s-.5.224-.5.5v2c0 .276.224.5.5.5zm11.5 8.5h-2c-.276 0-.5.224-.5.5s.224.5.5.5h2c.276 0 .5-.224.5-.5s-.224-.5-.5-.5zm-21 0h-2c-.276 0-.5.224-.5.5s.224.5.5.5h2c.276 0 .5-.224.5-.5s-.224-.5-.5-.5zm2.429 6.864-1.415 1.414c-.195.195-.195.512 0 .707s.512.195.707 0l1.415-1.414c.195-.195.195-.512 0-.707s-.512-.195-.707 0zm14.849-14.849-1.414 1.415c-.195.195-.195.512 0 .707s.512.195.707 0l1.414-1.415c.195-.195.195-.512 0-.707s-.512-.195-.707 0zm-.707 14.85c-.195-.195-.512-.195-.707 0s-.195.512 0 .707l1.414 1.414c.195.195.512.195.707 0s.195-.512 0-.707zm-14.142-12.729c.195.195.512.195.707 0s.195-.512 0-.707l-1.415-1.415c-.195-.195-.512-.195-.707 0s-.195.512 0 .707zm14.071 6.364c0 3.859-3.141 7-7 7s-7-3.141-7-7 3.14-7 7-7 7 3.14 7 7zm-1 0c0-3.309-2.691-6-6-6v12c3.309 0 6-2.691 6-6z"/></svg>