<?xml version="1.0" encoding="UTF-8"?>
<svg xmlns="http://www.w3.org/2000/svg" id="Layer_1" data-name="Layer 1" viewBox="0 0 24 24">
  <path d="m22.489,2.21c-1.164-1.008-3.062-2.21-5.489-2.21H7C4.572,0,2.675,1.202,1.511,2.21c-.96.831-1.511,2.058-1.511,3.365v11.924c0,1.93,1.57,3.5,3.5,3.5h.551c.245,1.692,1.691,3,3.449,3h9c1.758,0,3.204-1.308,3.449-3h.551c1.93,0,3.5-1.57,3.5-3.5V5.576c0-1.308-.551-2.534-1.511-3.365Zm-12.782-1.21h4.586l-2.293,6.498-2.293-6.498Zm1.635,7.637l-3.984-3.974c-.401-.438-.473-1.078-.214-1.54l1.535-2.031,2.663,7.544Zm3.98-7.545l1.499,1.977c.295.516.224,1.156-.163,1.577l-3.999,3.99,2.663-7.545Zm-10.322,14.908h2.5c.275,0,.5.225.5.5v2c0,.827-.673,1.5-1.5,1.5h-1.5v-4Zm.051,5h1.449c1.379,0,2.5-1.121,2.5-2.5v-2c0-.827-.673-1.5-1.5-1.5h-2.5v-7.5c0-.276-.224-.5-.5-.5s-.5.224-.5.5v12.5h-.5c-1.379,0-2.5-1.121-2.5-2.5V5.576c0-1.017.425-1.968,1.165-2.609,1.036-.897,2.716-1.966,4.835-1.966h.497l-1.186,1.573c-.511.895-.387,2.006.325,2.781l4.864,4.853v12.792h-4c-1.208,0-2.217-.86-2.449-2Zm13.949-1h-1.5c-.827,0-1.5-.673-1.5-1.5v-2c0-.275.225-.5.5-.5h2.5v4Zm4-2.5c0,1.379-1.121,2.5-2.5,2.5h-.5V7.5c0-.276-.224-.5-.5-.5s-.5.224-.5.5v7.5h-2.5c-.827,0-1.5.673-1.5,1.5v2c0,1.379,1.121,2.5,2.5,2.5h1.449c-.232,1.14-1.242,2-2.449,2h-4v-12.792l4.879-4.869c.697-.759.821-1.871.274-2.819l-1.149-1.52h.495c2.119,0,3.799,1.069,4.835,1.966.74.641,1.165,1.592,1.165,2.609v11.924Z"/>
</svg>
