<?xml version="1.0" encoding="UTF-8"?>
<svg xmlns="http://www.w3.org/2000/svg" id="Layer_1" data-name="Layer 1" viewBox="0 0 24 24">
  <path d="M22.91,9.336L15.572,2.786c-.775-.775-1.885-1-2.898-.581-1.013,.417-1.644,1.357-1.647,2.454v2.34l-3.526-.008c-1.916,0-3.474,1.574-3.474,3.509v2.992c0,1.935,1.559,3.508,3.474,3.508h3.526v2.345c.005,1.096,.638,2.035,1.65,2.451,.337,.139,.686,.206,1.029,.206,.682,0,1.342-.267,1.857-.776l7.369-6.579c1.457-1.458,1.456-3.832-.021-5.311Zm-.665,4.584s-7.373,6.581-7.379,6.588c-.577,.578-1.312,.566-1.809,.363-.496-.204-1.027-.713-1.031-1.528v-2.843c0-.276-.224-.5-.5-.5H7.5c-1.364,0-2.474-1.125-2.474-2.508v-2.992c0-1.384,1.11-2.509,2.473-2.509l4.026,.009h0c.132,0,.259-.053,.353-.146,.094-.094,.147-.221,.147-.354v-2.84c.003-.817,.533-1.327,1.028-1.531,.496-.203,1.231-.215,1.83,.383l7.338,6.55c1.068,1.069,1.068,2.809,.022,3.857Zm-13.245,9.58c0,.276-.224,.5-.5,.5H4.5c-2.481,0-4.5-2.019-4.5-4.5V4.5C0,2.019,2.019,0,4.5,0h4c.276,0,.5,.224,.5,.5s-.224,.5-.5,.5H4.5c-1.93,0-3.5,1.57-3.5,3.5v15c0,1.93,1.57,3.5,3.5,3.5h4c.276,0,.5,.224,.5,.5Z"/>
</svg>
