<svg id="Layer_1" viewBox="0 0 24 24" xmlns="http://www.w3.org/2000/svg" data-name="Layer 1"><path d="m10.5 5c1.379 0 2.5-1.122 2.5-2.5s-1.121-2.5-2.5-2.5-2.5 1.122-2.5 2.5 1.121 2.5 2.5 2.5zm0-4c.827 0 1.5.673 1.5 1.5s-.673 1.5-1.5 1.5-1.5-.673-1.5-1.5.673-1.5 1.5-1.5zm-9 10h3c.827 0 1.5-.673 1.5-1.5v-2c0-.386-.15-.734-.39-1 .24-.266.39-.614.39-1v-2c0-.827-.673-1.5-1.5-1.5h-3c-.827 0-1.5.673-1.5 1.5v2c0 .386.15.734.39 1-.24.266-.39.614-.39 1v2c0 .827.673 1.5 1.5 1.5zm3.5-1.5c0 .276-.225.5-.5.5h-3c-.275 0-.5-.224-.5-.5v-2c0-.276.225-.5.5-.5h3c.275 0 .5.224.5.5zm-4-6c0-.276.225-.5.5-.5h3c.275 0 .5.224.5.5v2c0 .276-.225.5-.5.5h-3c-.275 0-.5-.224-.5-.5zm20 13.551v-.356c0-.493-.049-.989-.146-1.473l-1.041-5.201c-.233-1.165-1.265-2.009-2.451-2.009h-1.273l-5.418-1.959c-1.325-.28-2.691.527-2.67 1.916v4.266c0 .939.519 1.79 1.376 2.232l3.243 1.468c.535.242.881.779.881 1.366v2.699h-2c-.276 0-.5.224-.5.5s.224.5.5.5h5.551c.245 1.692 1.691 3 3.449 3 1.93 0 3.5-1.57 3.5-3.5 0-1.758-1.308-3.204-3-3.449zm-12-4.817v-4.266c0-.285.097-.514.286-.68.255-.223.669-.325 1.097-.277l.617.223v6.87l-1.188-.538c-.501-.259-.812-.769-.812-1.333zm4.031 2.79-1.042-.471c.002-.018.01-6.956.01-6.956l3.83 1.385c.055.02.112.03.17.03h1.361c.712 0 1.33.507 1.471 1.206l1.041 5.201c.084.42.127.85.127 1.277v.356c-1.527.221-2.728 1.423-2.949 2.949h-2.551v-2.699c0-.979-.576-1.873-1.469-2.277zm7.469 7.977c-1.379 0-2.5-1.122-2.5-2.5s1.121-2.5 2.5-2.5 2.5 1.122 2.5 2.5-1.121 2.5-2.5 2.5zm-12.266-6.009-1.735-2.806c-.459-.742-1.254-1.185-2.126-1.185h-3.873c-.276 0-.5.224-.5.5s.224.5.5.5h3.873c.523 0 1 .266 1.275.711l.349.565c-.471-.168-.97-.276-1.498-.276-2.481 0-4.5 2.019-4.5 4.5s2.019 4.5 4.5 4.5 4.5-2.019 4.5-4.5c0-.926-.282-1.786-.763-2.502-.001-.002-.001-.005-.003-.007zm-3.734 6.009c-1.93 0-3.5-1.57-3.5-3.5s1.57-3.5 3.5-3.5 3.5 1.57 3.5 3.5-1.57 3.5-3.5 3.5z"/></svg>