<svg id="Layer_1" viewBox="0 0 24 24" xmlns="http://www.w3.org/2000/svg" data-name="Layer 1"><path d="m20 8v-.887c0-.997-.678-1.923-1.662-2.085-1.251-.207-2.338.759-2.338 1.972v1h-8v-.887c0-.997-.678-1.923-1.662-2.085-1.251-.207-2.338.759-2.338 1.972v1h-.5c-1.933 0-3.5 1.567-3.5 3.5v12c0 .276.224.5.5.5s.5-.224.5-.5v-5.5h22v5.5c0 .276.224.5.5.5s.5-.224.5-.5v-12c0-1.933-1.567-3.5-3.5-3.5zm2.79 2.503-6.497 6.497h-4.586l8-8h.793c1.024 0 1.904.62 2.29 1.503zm-17.083 6.497 8-8h4.586l-8 8zm11.293-10c0-.552.448-1 1-1s1 .448 1 1v1h-2zm-12 0c0-.552.448-1 1-1s1 .448 1 1v1h-2zm-1.5 2h2.793l-5.293 5.293v-2.793c0-1.379 1.121-2.5 2.5-2.5zm-2.5 6.707 6.707-6.707h4.586l-8 8h-3.293zm16.707 1.293 5.293-5.293v5.293zm-4.311-14.396c-.195-.195-.195-.512 0-.707s.512-.195.707 0l1.5 1.5c.195.195.195.512 0 .707s-.512.195-.707 0zm7 1.5c-.195-.195-.195-.512 0-.707l1.5-1.5c.195-.195.512-.195.707 0s.195.512 0 .707l-1.5 1.5c-.195.195-.512.195-.707 0zm-2.896-1.604v-2c0-.276.224-.5.5-.5s.5.224.5.5v2c0 .276-.224.5-.5.5s-.5-.224-.5-.5zm-16.104.104c-.195-.195-.195-.512 0-.707s.512-.195.707 0l1.5 1.5c.195.195.195.512 0 .707s-.512.195-.707 0zm7 1.5c-.195-.195-.195-.512 0-.707l1.5-1.5c.195-.195.512-.195.707 0s.195.512 0 .707l-1.5 1.5c-.195.195-.512.195-.707 0zm-2.896-1.604v-2c0-.276.224-.5.5-.5s.5.224.5.5v2c0 .276-.224.5-.5.5s-.5-.224-.5-.5z"/></svg>