<svg id="Layer_1" viewBox="0 0 24 24" xmlns="http://www.w3.org/2000/svg" data-name="Layer 1"><path d="m23.5 15h-23c-.276 0-.5.224-.5.5s.224.5.5.5h5.279c-2.08 1.111-3.661 3.07-4.25 5.494l-.478 1.888c-.079.31.168.622.486.618.226 0 .431-.153.486-.382l.478-1.888c.819-3.374 3.816-5.73 7.288-5.73h3.71c.905 0 1.643.737 1.643 1.642 0 .812-.606 1.511-1.41 1.625l-5.16.737c-.273.039-.464.292-.425.566s.297.463.565.424l5.16-.737c.49-.07.934-.275 1.297-.573.03-.017 3.815-3.308 3.815-3.308.305-.266.695-.4 1.098-.368.402.028.771.211 1.035.516.54.622.479 1.573-.146 2.128l-4.813 4.48c-.202.188-.213.505-.025.707.099.105.232.159.366.159.122 0 .244-.044.341-.134l4.805-4.473c.982-.873 1.115-2.362.333-3.393h1.522c.276 0 .5-.224.5-.5s-.224-.5-.5-.5zm-7.36 2.53c-.024-.577-.234-1.106-.572-1.53h2.328zm-2.089-9.53h6.45c.276 0 .5.224.5.5s-.224.5-.5.5h-6.45c.232 1.14 1.242 2 2.45 2h4c.276 0 .5.224.5.5s-.224.5-.5.5h-4c-1.76 0-3.221-1.306-3.464-3h-9.537c-.276 0-.5-.224-.5-.5s.224-.5.5-.5h9.536c.243-1.694 1.704-3 3.464-3h4c.276 0 .5.224.5.5s-.224.5-.5.5h-4c-1.208 0-2.217.86-2.45 2zm-10.827-6.613c1.011 1.149 3.366 2.613 6.291 2.613 2.32 0 4.451-1.009 6.338-3h4.648c.276 0 .5-.224.5-.5s-.224-.5-.5-.5h-16.764c-.686 0-.971.879-.514 1.387zm11.193-.387c-1.55 1.368-3.266 2.032-5.054 1.999-2.431-.099-4.237-1.197-5.114-1.999z"/></svg>