<?xml version="1.0" encoding="UTF-8"?>
<svg xmlns="http://www.w3.org/2000/svg" id="Layer_1" data-name="Layer 1" viewBox="0 0 24 24">
  <path d="M23.5,9h-4.5v-2c1.654,0,3-1.346,3-3v-1c0-1.654-1.346-3-3-3H4.5C2.019,0,0,2.019,0,4.5v15c0,2.481,2.019,4.5,4.5,4.5H20.5c.827,0,1.5-.673,1.5-1.5s-.673-1.5-1.5-1.5h-.558c.459-.449,.788-1.024,.947-1.667,.948-.666,2.194-1.517,2.111-2.833,0-.827-.673-1.5-1.5-1.5H13.5c-.827,0-1.5,.673-1.5,1.5v2c0,.98,.407,1.864,1.058,2.5h-3.058V7h4v2.5c0,.827,.673,1.5,1.5,1.5h2c.651,0,1.201-.419,1.408-1h4.592c.276,0,.5-.224,.5-.5s-.224-.5-.5-.5Zm-1.5,7.5c.027,.668-.478,1.165-1,1.5v-1.5c0-.176-.036-.343-.092-.5h.592c.276,0,.5,.224,.5,.5Zm-9,2v-2c0-.276,.224-.5,.5-.5h6c.276,0,.5,.224,.5,.5v2c0,1.378-1.122,2.5-2.5,2.5h-2c-1.378,0-2.5-1.122-2.5-2.5Zm-3.5-12.5c-.276,0-.5,.224-.5,.5v15c0,.276,.224,.5,.5,.5h11c.276,0,.5,.224,.5,.5s-.224,.5-.5,.5H4.5c-1.93,0-3.5-1.57-3.5-3.5V4.5c0-1.93,1.57-3.5,3.5-3.5h14.5c1.103,0,2,.897,2,2v1c0,1.103-.897,2-2,2H9.5Zm8,4h-2c-.276,0-.5-.224-.5-.5v-2.5h3v2.5c0,.276-.224,.5-.5,.5ZM5,4c-1.103,0-2,.897-2,2s.897,2,2,2,2-.897,2-2-.897-2-2-2Zm0,3c-.551,0-1-.449-1-1s.449-1,1-1,1,.449,1,1-.449,1-1,1Zm2,13.5c0,.276-.224,.5-.5,.5H3.5c-.276,0-.5-.224-.5-.5s.224-.5,.5-.5h3c.276,0,.5,.224,.5,.5Zm0-2c0,.276-.224,.5-.5,.5H3.5c-.276,0-.5-.224-.5-.5s.224-.5,.5-.5h3c.276,0,.5,.224,.5,.5Zm0-2c0,.276-.224,.5-.5,.5H3.5c-.276,0-.5-.224-.5-.5s.224-.5,.5-.5h3c.276,0,.5,.224,.5,.5Z"/>
</svg>
