<?xml version="1.0" encoding="UTF-8"?>
<svg xmlns="http://www.w3.org/2000/svg" id="Layer_1" data-name="Layer 1" viewBox="0 0 24 24">
  <path d="m15.854,11.854l-3.646,3.646,3.646,3.646c.195.195.195.512,0,.707-.098.098-.226.146-.354.146s-.256-.049-.354-.146l-3.854-3.854h-2.793c-.276,0-.5-.224-.5-.5s.224-.5.5-.5h2.793l3.854-3.854c.195-.195.512-.195.707,0s.195.512,0,.707ZM1,8.5c0-1.379,1.122-2.5,2.5-2.5s2.5,1.121,2.5,2.5-1.122,2.5-2.5,2.5-2.5-1.121-2.5-2.5Zm1,0c0,.827.673,1.5,1.5,1.5s1.5-.673,1.5-1.5-.673-1.5-1.5-1.5-1.5.673-1.5,1.5Zm1.5,3.5c-1.93,0-3.5,1.57-3.5,3.5,0,.276.224.5.5.5s.5-.224.5-.5c0-1.379,1.122-2.5,2.5-2.5s2.5,1.121,2.5,2.5c0,.276.224.5.5.5s.5-.224.5-.5c0-1.93-1.57-3.5-3.5-3.5ZM18,2.5c0-1.379,1.121-2.5,2.5-2.5s2.5,1.121,2.5,2.5-1.121,2.5-2.5,2.5-2.5-1.121-2.5-2.5Zm1,0c0,.827.673,1.5,1.5,1.5s1.5-.673,1.5-1.5-.673-1.5-1.5-1.5-1.5.673-1.5,1.5Zm-1.5,7.5c.276,0,.5-.224.5-.5,0-1.379,1.121-2.5,2.5-2.5s2.5,1.121,2.5,2.5c0,.276.224.5.5.5s.5-.224.5-.5c0-1.93-1.57-3.5-3.5-3.5s-3.5,1.57-3.5,3.5c0,.276.224.5.5.5Zm5.5,6.5c0,1.379-1.121,2.5-2.5,2.5s-2.5-1.121-2.5-2.5,1.121-2.5,2.5-2.5,2.5,1.121,2.5,2.5Zm-1,0c0-.827-.673-1.5-1.5-1.5s-1.5.673-1.5,1.5.673,1.5,1.5,1.5,1.5-.673,1.5-1.5Zm-1.5,3.5c-1.93,0-3.5,1.57-3.5,3.5,0,.276.224.5.5.5s.5-.224.5-.5c0-1.379,1.121-2.5,2.5-2.5s2.5,1.121,2.5,2.5c0,.276.224.5.5.5s.5-.224.5-.5c0-1.93-1.57-3.5-3.5-3.5Z"/>
</svg>
