<svg id="Layer_1" viewBox="0 0 24 24" xmlns="http://www.w3.org/2000/svg" data-name="Layer 1"><path d="m19 18c1.654 0 3-1.346 3-3s-1.346-3-3-3-3 1.346-3 3 1.346 3 3 3zm0-5c1.103 0 2 .897 2 2s-.897 2-2 2-2-.897-2-2 .897-2 2-2zm4.997 10.443c.031.274-.166.522-.44.554-.27.031-.523-.165-.554-.44-.229-2.027-1.951-3.557-4.003-3.557s-3.773 1.529-4.003 3.557c-.031.274-.287.47-.554.44-.274-.031-.472-.279-.44-.554.288-2.533 2.436-4.443 4.997-4.443s4.709 1.91 4.997 4.443zm-8.997-18.943c0-1.93-1.57-3.5-3.5-3.5h-7c-1.93 0-3.5 1.57-3.5 3.5v15c0 1.93 1.57 3.5 3.5 3.5h7c.276 0 .5.224.5.5s-.224.5-.5.5h-7c-2.481 0-4.5-2.019-4.5-4.5v-15c0-2.481 2.019-4.5 4.5-4.5h7c2.481 0 4.5 2.019 4.5 4.5v6c0 .276-.224.5-.5.5s-.5-.224-.5-.5zm-8 9c0 .276-.224.5-.5.5h-2c-.276 0-.5-.224-.5-.5s.224-.5.5-.5h2c.276 0 .5.224.5.5zm5 0c0 .276-.224.5-.5.5h-2c-.276 0-.5-.224-.5-.5s.224-.5.5-.5h2c.276 0 .5.224.5.5zm-5 4c0 .276-.224.5-.5.5h-2c-.276 0-.5-.224-.5-.5s.224-.5.5-.5h2c.276 0 .5.224.5.5zm5 0c0 .276-.224.5-.5.5h-2c-.276 0-.5-.224-.5-.5s.224-.5.5-.5h2c.276 0 .5.224.5.5zm-5-12c0 .276-.224.5-.5.5h-2c-.276 0-.5-.224-.5-.5s.224-.5.5-.5h2c.276 0 .5.224.5.5zm5 0c0 .276-.224.5-.5.5h-2c-.276 0-.5-.224-.5-.5s.224-.5.5-.5h2c.276 0 .5.224.5.5zm-5 4c0 .276-.224.5-.5.5h-2c-.276 0-.5-.224-.5-.5s.224-.5.5-.5h2c.276 0 .5.224.5.5zm5 0c0 .276-.224.5-.5.5h-2c-.276 0-.5-.224-.5-.5s.224-.5.5-.5h2c.276 0 .5.224.5.5z"/></svg>