<?xml version="1.0" encoding="UTF-8"?>
<svg xmlns="http://www.w3.org/2000/svg" id="Layer_1" data-name="Layer 1" viewBox="0 0 24 24">
  <path d="M23.521,22.625c-.555,.861-1.498,1.375-2.522,1.375h-5.498c-.668,0-1.296-.26-1.768-.732s-.732-1.1-.732-1.768l.003-20.077c0-.785,.638-1.423,1.423-1.423,.573,0,1.087,.341,1.311,.869l7.998,18.902c.418,.921,.34,1.993-.214,2.854ZM10.996,1.423l.003,20.077c0,.668-.26,1.296-.732,1.768s-1.1,.732-1.768,.732H3.001c-1.024,0-1.967-.514-2.522-1.375-.555-.861-.633-1.933-.209-2.866L8.263,.869c.223-.528,.737-.869,1.311-.869,.785,0,1.423,.638,1.423,1.423Zm-.997,20.077l-.003-20.077c0-.233-.189-.423-.423-.423-.17,0-.323,.102-.39,.258L1.186,20.161c-.288,.634-.236,1.349,.134,1.922,.37,.574,.999,.917,1.682,.917h5.498c.401,0,.778-.156,1.061-.439s.439-.66,.439-1.061Z"/>
</svg>
