<?xml version="1.0" encoding="UTF-8"?>
<svg xmlns="http://www.w3.org/2000/svg" id="Layer_1" data-name="Layer 1" viewBox="0 0 24 24">
  <path d="M24,16.5v4c0,1.93-1.57,3.5-3.5,3.5H3.5c-1.93,0-3.5-1.57-3.5-3.5v-4c0-.276,.224-.5,.5-.5s.5,.224,.5,.5v4c0,1.379,1.122,2.5,2.5,2.5H20.5c1.378,0,2.5-1.121,2.5-2.5v-4c0-.276,.224-.5,.5-.5s.5,.224,.5,.5ZM6.854,5.853S11.486,1.208,11.5,1.196V18.5c0,.276,.224,.5,.5,.5s.5-.224,.5-.5V1.197c.013,.011,4.646,4.655,4.646,4.655,.098,.099,.226,.147,.354,.147,.127,0,.255-.049,.353-.146,.196-.194,.197-.512,.002-.707L13.25,.519c-.295-.295-.705-.519-1.25-.519s-.957,.223-1.253,.52L6.146,5.147c-.195,.196-.194,.513,.002,.707,.196,.194,.513,.194,.707-.002Z"/>
</svg>
