<svg id="Layer_1" viewBox="0 0 24 24" xmlns="http://www.w3.org/2000/svg" data-name="Layer 1"><path d="m13.5 23h-9c-1.93 0-3.5-1.57-3.5-3.5v-15.5h4v2.5c0 .827.673 1.5 1.5 1.5h8.5v2c0 .276.224.5.5.5s.5-.224.5-.5v-9.5c0-.276-.224-.5-.5-.5s-.5.224-.5.5v2.5h-4v-2.5c0-.276-.224-.5-.5-.5s-.5.224-.5.5v2.5h-4v-2.5c0-.276-.224-.5-.5-.5s-.5.224-.5.5v2.5h-4v-2.5c0-.276-.224-.5-.5-.5s-.5.224-.5.5v19c0 2.481 2.019 4.5 4.5 4.5h9c.276 0 .5-.224.5-.5s-.224-.5-.5-.5zm1.5-19v3h-4v-3zm-5 0v3h-3.5c-.275 0-.5-.224-.5-.5v-2.5zm-3 11.5c0 .276-.224.5-.5.5h-2c-.276 0-.5-.224-.5-.5s.224-.5.5-.5h2c.276 0 .5.224.5.5zm5 0c0 .276-.224.5-.5.5h-2c-.276 0-.5-.224-.5-.5s.224-.5.5-.5h2c.276 0 .5.224.5.5zm-5 4c0 .276-.224.5-.5.5h-2c-.276 0-.5-.224-.5-.5s.224-.5.5-.5h2c.276 0 .5.224.5.5zm5 0c0 .276-.224.5-.5.5h-2c-.276 0-.5-.224-.5-.5s.224-.5.5-.5h2c.276 0 .5.224.5.5zm-5-8c0 .276-.224.5-.5.5h-2c-.276 0-.5-.224-.5-.5s.224-.5.5-.5h2c.276 0 .5.224.5.5zm5 0c0 .276-.224.5-.5.5h-2c-.276 0-.5-.224-.5-.5s.224-.5.5-.5h2c.276 0 .5.224.5.5zm6.5 4c-1.103 0-2 .897-2 2s.897 2 2 2 2-.897 2-2-.897-2-2-2zm0 3c-.552 0-1-.449-1-1s.448-1 1-1 1 .449 1 1-.448 1-1 1zm3.888-4.896c-1.038-1.034-2.418-1.604-3.888-1.604s-2.85.569-3.889 1.604-1.611 2.411-1.611 3.875.572 2.839 1.625 3.888l1.973 1.813c.511.498 1.187.772 1.902.772s1.392-.274 1.893-.762l1.995-1.837c1.04-1.035 1.612-2.411 1.612-3.875s-.572-2.84-1.612-3.875zm-.691 7.027-1.991 1.833c-.646.631-1.754.641-2.42-.01l-1.969-1.81c-.849-.846-1.316-1.97-1.316-3.166s.468-2.32 1.316-3.166c.851-.846 1.98-1.312 3.184-1.312s2.333.466 3.183 1.312c.85.846 1.317 1.971 1.317 3.167s-.468 2.32-1.304 3.152z"/></svg>