<?xml version="1.0" encoding="UTF-8"?>
<svg xmlns="http://www.w3.org/2000/svg" id="Layer_1" data-name="Layer 1" viewBox="0 0 24 24">
  <path d="m19.777,3.208c-2.078-2.068-4.84-3.208-7.777-3.208s-5.7,1.139-7.778,3.208c-2.078,2.069-3.222,4.821-3.222,7.747s1.144,5.678,3.237,7.761l4.151,3.818c.971.946,2.254,1.467,3.612,1.467s2.641-.521,3.602-1.457l4.176-3.842c2.078-2.069,3.223-4.821,3.223-7.747s-1.145-5.678-3.223-7.747Zm-.691,14.771l-4.172,3.838c-1.565,1.525-4.251,1.536-5.838-.01l-4.147-3.814c-1.889-1.88-2.928-4.379-2.928-7.038s1.04-5.158,2.928-7.038c1.889-1.881,4.4-2.917,7.072-2.917s5.183,1.036,7.071,2.917c1.889,1.88,2.929,4.379,2.929,7.038s-1.04,5.158-2.914,7.024Zm-3.482-10.875l-2.896,2.896,2.896,2.896c.195.195.195.512,0,.707-.098.098-.226.146-.354.146s-.256-.049-.354-.146l-2.896-2.896-2.896,2.896c-.098.098-.226.146-.354.146s-.256-.049-.354-.146c-.195-.195-.195-.512,0-.707l2.896-2.896-2.896-2.896c-.195-.195-.195-.512,0-.707s.512-.195.707,0l2.896,2.896,2.896-2.896c.195-.195.512-.195.707,0s.195.512,0,.707Z"/>
</svg>
