<svg id="Layer_1" viewBox="0 0 24 24" xmlns="http://www.w3.org/2000/svg" data-name="Layer 1"><path d="m7.854 5.854-1.646 1.646 1.646 1.646c.195.195.195.512 0 .707s-.512.195-.707 0l-1.646-1.646-1.646 1.646c-.195.195-.512.195-.707 0s-.195-.512 0-.707l1.646-1.646-1.646-1.646c-.195-.195-.195-.512 0-.707s.512-.195.707 0l1.646 1.646 1.646-1.646c.195-.195.512-.195.707 0s.195.512 0 .707zm2.292 4c.195.195.512.195.707 0l1.646-1.646 1.646 1.646c.195.195.512.195.707 0s.195-.512 0-.707l-1.646-1.646 1.646-1.646c.195-.195.195-.512 0-.707s-.512-.195-.707 0l-1.646 1.646-1.646-1.646c-.195-.195-.512-.195-.707 0s-.195.512 0 .707l1.646 1.646-1.646 1.646c-.195.195-.195.512 0 .707zm9.354-8.854h-15c-2.481 0-4.5 2.019-4.5 4.5v4c0 2.481 2.019 4.5 4.5 4.5h6c.276 0 .5-.224.5-.5s-.224-.5-.5-.5h-6c-1.93 0-3.5-1.57-3.5-3.5v-4c0-1.93 1.57-3.5 3.5-3.5h15c1.93 0 3.5 1.57 3.5 3.5v3.5c0 .276.224.5.5.5s.5-.224.5-.5v-3.5c0-2.481-2.019-4.5-4.5-4.5zm4.499 12.657v2.756c-.059 2.923-1.845 5.123-5.309 6.549-.135.056-.287.05-.418-.017-3.443-1.756-5.218-3.95-5.273-6.521v-2.767c0-1.175.749-2.214 1.865-2.584l3.478-1.153c.102-.033.213-.033.314 0l3.477 1.153c1.116.369 1.866 1.407 1.866 2.584zm-1 0c0-.744-.475-1.401-1.181-1.635l-3.319-1.102-3.32 1.102c-.705.234-1.18.892-1.18 1.635v2.756c.046 2.115 1.567 3.98 4.523 5.535 2.963-1.274 4.428-3.09 4.477-5.545z"/></svg>