<?xml version="1.0" encoding="UTF-8"?>
<svg xmlns="http://www.w3.org/2000/svg" id="Layer_1" data-name="Layer 1" viewBox="0 0 24 24">
  <path d="M23.5,3H12.5V.5c0-.276-.224-.5-.5-.5s-.5,.224-.5,.5V3H.5c-.276,0-.5,.224-.5,.5s.224,.5,.5,.5H4.918C2.816,8.623,1.47,14.836,1.065,18.039c-.23,1.819,.15,3.35,1.099,4.426,.885,1.004,2.184,1.535,3.756,1.535h12.159c1.572,0,2.871-.531,3.757-1.535,.948-1.076,1.329-2.607,1.099-4.427-.405-3.202-1.752-9.416-3.852-14.038h4.417c.276,0,.5-.224,.5-.5s-.224-.5-.5-.5Zm-12,1v3H4.784c.378-1.049,.791-2.062,1.237-3h5.479Zm8.059,3.988c.334,.999,.637,2.013,.907,3.012h-7.966v-3h7c.021,0,.039-.009,.059-.012Zm1.851,7.012H12.5v-3h8c.078,0,.149-.021,.214-.052,.271,1.067,.504,2.099,.695,3.052Zm.533,3.164c.037,.292,.04,.565,.041,.836H12.5v-3h9c.035,0,.066-.013,.099-.02,.15,.82,.265,1.56,.344,2.183ZM2.401,15.98c.033,.007,.064,.02,.099,.02H11.5v3H2.017c.001-.272,.004-.544,.041-.836,.079-.623,.194-1.363,.344-2.183Zm.884-4.033c.066,.032,.137,.053,.215,.053H11.5v3H2.59c.192-.953,.425-1.986,.695-3.053Zm8.215-.947H3.534c.27-.999,.573-2.013,.907-3.012,.02,.003,.038,.012,.059,.012h7v3ZM2.915,21.804c-.422-.479-.685-1.095-.814-1.804H11.5v3H5.92c-1.277,0-2.316-.414-3.006-1.196Zm18.171,0c-.69,.783-1.729,1.196-3.007,1.196h-5.579v-3h9.4c-.13,.708-.392,1.325-.814,1.804Zm-1.87-14.804h-6.716v-3h5.479c.446,.938,.859,1.951,1.237,3Z"/>
</svg>
