<svg id="Layer_1" viewBox="0 0 24 24" xmlns="http://www.w3.org/2000/svg" data-name="Layer 1"><path d="m23.5 23h-.697c-18.568 0-18.802-17.745-18.803-18.5v-1c0-1.93-1.57-3.5-3.5-3.5-.276 0-.5.224-.5.5v19c0 2.481 2.019 4.5 4.5 4.5h19c.276 0 .5-.224.5-.5s-.224-.5-.5-.5zm-19 0c-1.93 0-3.5-1.57-3.5-3.5v-18.45c1.14.232 2 1.242 2 2.45v1c0 .168.169 14.54 12.76 18.5zm8.111-13.276c-1.039-1.039-1.611-2.42-1.611-3.889v-1.335c0-.276.224-.5.5-.5s.5.224.5.5v1.335c0 1.202.468 2.332 1.318 3.182l5.665 5.665c.85.85 1.98 1.318 3.182 1.318h1.335c.276 0 .5.224.5.5s-.224.5-.5.5h-1.335c-1.469 0-2.851-.572-3.889-1.611zm-3.318.983c-.391-.391-.391-1.024 0-1.414.391-.391 1.024-.391 1.414 0 .391.391.391 1.024 0 1.414-.391.391-1.024.391-1.414 0zm9.414 6.586c.391.391.391 1.024 0 1.414-.391.391-1.024.391-1.414 0s-.391-1.024 0-1.414c.391-.391 1.024-.391 1.414 0z"/></svg>