<svg id="Layer_1" viewBox="0 0 24 24" xmlns="http://www.w3.org/2000/svg" data-name="Layer 1"><path d="m6.344 7.189 3.076-4.879c.502-.82 1.387-1.31 2.369-1.31h.04c.905 0 1.75.472 2.252 1.262l4.782 7.213c.101-.574.568-3.247.573-3.269.055-.272.325-.443.59-.389.271.056.445.32.389.59-.007.04-.669 3.817-.684 3.866-.156.584-.784.927-1.355.766l-3.694-1.006c-.266-.073-.423-.347-.351-.614.073-.266.347-.424.614-.351l2.986.813-4.69-7.075c-.327-.517-.868-.831-1.446-.807-.639 0-1.205.312-1.526.837l-3.08 4.884c-.146.235-.456.303-.689.156s-.304-.456-.156-.689zm17.205 9.535-2.609-3.998c-.15-.231-.462-.296-.692-.146-.231.151-.296.461-.146.692l2.61 4c.35.532.383 1.213.088 1.774-.309.584-.904.947-1.565.947l-6.796.005 2.377-2.156c.204-.186.22-.501.034-.706s-.501-.219-.706-.034l-2.811 2.55c-.449.408-.482 1.105-.081 1.547.032.037 2.827 2.597 2.86 2.628.197.194.513.193.707-.004.194-.196.192-.513-.004-.707-.018-.018-1.922-1.76-2.312-2.118l6.742-.005c1.022 0 1.957-.567 2.44-1.481.464-.884.412-1.953-.136-2.789zm-13.042 3.276h-7.749c-.639 0-1.231-.356-1.546-.932-.3-.544-.28-1.211.052-1.74l3.78-6.07.453 3.311c.036.275.294.465.563.428.274-.038.466-.29.428-.563l-.52-3.795c-.083-.604-.638-1.021-1.238-.945-.049.006-3.771.873-3.817.883-.271.052-.449.314-.397.585s.317.445.585.397c.025-.005 2.506-.584 3.015-.702l-3.701 5.941c-.523.835-.554 1.89-.08 2.751.489.896 1.418 1.452 2.431 1.452h7.741c.276 0 .5-.225.5-.501s-.224-.5-.5-.5zm-.894-2.891.729-2.11h-1.132s0 .001-.002.001c-.383 0-.734-.176-.963-.484s-.297-.695-.186-1.063l1.507-4.505c.19-.567.722-.948 1.321-.948h1.23c.396 0 .768.194.992.52.226.325.276.74.137 1.11l-.517 1.368h1.148c.456 0 .874.252 1.093.657.206.385.189.827-.047 1.183-.011.017-4.164 4.922-4.164 4.922-.128.151-.314.237-.512.237-.217 0-.421-.105-.547-.281s-.159-.403-.089-.608zm1.429-3.111c.161 0 .313.078.407.209.094.132.118.301.065.454l-.385 1.114 2.922-3.428c.145-.174.029-.349-.174-.349h-1.871c-.164 0-.318-.081-.411-.216-.094-.135-.114-.307-.057-.461l.772-2.044c.053-.149 0-.276-.193-.276h-1.23c-.17 0-.319.107-.373.266l-1.502 4.491c-.037.163.036.244.195.244l1.835-.002z"/></svg>