<?xml version="1.0" encoding="UTF-8"?>
<svg xmlns="http://www.w3.org/2000/svg" id="Layer_1" data-name="Layer 1" viewBox="0 0 24 24">
  <path d="m20.479,3.522C18.308,1.365,15.295,0,12,0S5.685,1.353,3.514,3.511C1.357,5.681,0,8.705,0,12s1.36,6.317,3.518,8.488c2.171,2.157,5.188,3.512,8.482,3.512s6.315-1.359,8.486-3.517c2.157-2.171,3.514-5.188,3.514-8.483s-1.364-6.307-3.521-8.478Zm2.495,7.962c-2.573-.121-4.99-1.132-6.887-2.865l4.024-4.024c1.679,1.837,2.739,4.24,2.863,6.889Zm-3.57-7.596l-4.024,4.024c-1.733-1.897-2.743-4.314-2.865-6.887,2.649.124,5.051,1.184,6.889,2.863Zm-7.891-2.864c.123,2.841,1.239,5.509,3.16,7.595l-2.673,2.673L4.596,3.889c1.844-1.685,4.257-2.747,6.917-2.864Zm-7.624,3.571l7.404,7.404-2.673,2.673c-2.086-1.921-4.755-3.037-7.595-3.16.117-2.66,1.179-5.073,2.864-6.917Zm-2.863,7.92c2.573.121,4.99,1.132,6.887,2.865l-4.024,4.024c-1.679-1.837-2.739-4.24-2.863-6.889Zm3.57,7.596l4.024-4.024c1.733,1.897,2.743,4.314,2.865,6.887-2.649-.124-5.051-1.184-6.889-2.863Zm7.891,2.864c-.123-2.841-1.239-5.509-3.16-7.595l2.673-2.673,7.404,7.404c-1.844,1.685-4.257,2.747-6.917,2.864Zm7.624-3.571l-7.404-7.404,2.673-2.673c2.086,1.921,4.755,3.037,7.595,3.16-.117,2.66-1.179,5.073-2.864,6.917Z"/>
</svg>
