<svg id="Layer_1" viewBox="0 0 24 24" xmlns="http://www.w3.org/2000/svg" data-name="Layer 1"><path d="m10.799 14.245c.386.168.8.253 1.214.253.408 0 .815-.082 1.194-.246 1.366-.589 2.439-1.25 3.704-2.285.692-.566 1.089-1.41 1.089-2.315v-3.529c0-2.184-2.36-4.256-4.34-5.611-1.009-.689-2.312-.689-3.319 0-1.98 1.354-4.34 3.427-4.34 5.611v3.525c0 .91.405 1.761 1.112 2.335 1.226.998 2.294 1.653 3.687 2.26zm-3.799-8.121c0-1.84 2.446-3.788 3.905-4.786.333-.227.714-.341 1.095-.341s.763.114 1.095.341c1.458.998 3.905 2.946 3.905 4.786v3.529c0 .604-.263 1.166-.722 1.541-1.188.971-2.192 1.591-3.466 2.141-.512.221-1.101.219-1.612-.006-1.321-.576-2.29-1.17-3.457-2.119-.465-.378-.743-.962-.743-1.56v-3.525zm1.874 2.872 2.418 1.209c.222.111.464.166.708.166s.486-.055.708-.166l2.418-1.209c.539-.27.874-.812.874-1.415 0-.872-.709-1.582-1.582-1.582h-4.837c-.872 0-1.582.709-1.582 1.582 0 .603.335 1.145.874 1.415zm.708-1.996h4.837c.321 0 .582.261.582.582 0 .222-.123.421-.321.52l-2.418 1.209c-.163.082-.357.082-.521 0l-2.418-1.209c-.198-.099-.321-.298-.321-.52 0-.321.261-.582.582-.582zm14.382 11.596c-.731-3.178-3.272-4.201-4.033-4.438-1.099-.34-2.304-.117-3.228.603-1.3 1.014-2.811 2.119-4.153 2.629-.354.135-.745.135-1.099 0-1.342-.51-2.853-1.615-4.153-2.629-.923-.72-2.129-.945-3.228-.603-.761.237-3.302 1.26-4.033 4.438-.138.6-.009 1.205.354 1.661.165.207.376.368.61.492v2.751c0 .276.224.5.5.5s.5-.224.5-.5v-2.5h3v2.5c0 .276.224.5.5.5s.5-.224.5-.5v-4.848c1.792 1.293 3.659 2.331 5.5 2.776v2.073c0 .276.224.5.5.5s.5-.224.5-.5v-2.073c1.841-.445 3.709-1.483 5.5-2.776v4.848c0 .276.224.5.5.5s.5-.224.5-.5v-2.5h3v2.5c0 .276.224.5.5.5s.5-.224.5-.5v-2.751c.234-.124.445-.284.61-.492.363-.456.492-1.061.354-1.661zm-18.964 1.404h-3c-.615 0-1.152-.528-.989-1.179.612-2.66 2.724-3.511 3.356-3.708.207-.065.42-.097.633-.106zm13-2.618c-1.792 1.432-3.771 2.52-5.601 3.06-.263.067-.536.067-.798 0-1.83-.539-3.808-1.628-5.601-3.06v-2.202c.24.091.473.206.682.369 1.36 1.06 2.947 2.218 4.413 2.774.584.222 1.226.222 1.809 0 1.466-.557 3.054-1.715 4.414-2.774.209-.163.442-.278.682-.37v2.202zm4.828 2.252c-.185.232-.487.366-.828.366h-3v-4.994c.213.009.426.041.633.106.633.198 2.745 1.049 3.356 3.708.07.306.013.595-.162.814z"/></svg>