<svg id="Layer_1" viewBox="0 0 24 24" xmlns="http://www.w3.org/2000/svg" data-name="Layer 1"><path d="m23.5 1c-.276 0-.5.224-.5.5 0 1.53-.536 2.841-1.593 3.894-1.689 1.683-4.64 2.606-8.318 2.606h-1.089v-.5c0-.276-.224-.5-.5-.5s-.5.224-.5.5v.5h-3v-.5c0-.276-.224-.5-.5-.5s-.5.224-.5.5v.5h-2.509c-2.417-.049-4.541 2.088-4.491 4.505 0 2.478 2.017 4.495 4.495 4.495h2.505v2h-4.323l-1.064-.855c-.674-.445-1.644.167-1.612.957v2.797c-.012.591.512 1.114 1.101 1.101.176-.004.368-.032.512-.144l1.064-.855h12.322c2.206 0 4-1.794 4-4s-1.794-4-4-4h-3v-3h1.091c3.676 0 6.627.925 8.316 2.606 1.057 1.053 1.593 2.363 1.593 3.894 0 .276.224.5.5.5s.5-.224.5-.5v-16.001c0-.276-.224-.5-.5-.5zm-15.5 16h3v2h-3zm7 0c.552 0 1 .448 1 1s-.448 1-1 1h-3v-2zm-13.879 4.969s-.12.094-.12-.071v-2.797c0-.151.109-.078.109-.078l.891.716v1.521l-.88.708zm9.879-7.969h-3v-3h3zm-6.502 0c-.826 0-1.498-.672-1.498-1.498-.016-.805.689-1.519 1.496-1.502h2.504v3zm17.614-1.102c-1.878-1.871-5.079-2.898-9.02-2.898h-8.598c-1.342-.027-2.522 1.16-2.494 2.502 0 1.377 1.121 2.498 2.498 2.498h10.502c1.654 0 3 1.346 3 3s-1.346 3-3 3h-12v-1h12c1.102 0 2-.897 2-2s-.897-2-2-2h-10.505c-1.927 0-3.495-1.568-3.495-3.495-.039-1.878 1.611-3.544 3.492-3.505h8.598c3.942 0 7.144-1.027 9.022-2.898.343-.341.636-.713.888-1.107v9.01c-.252-.393-.545-.765-.888-1.107z"/></svg>