<?xml version="1.0" encoding="UTF-8"?>
<svg xmlns="http://www.w3.org/2000/svg" id="Layer_1" data-name="Layer 1" viewBox="0 0 24 24">
  <path d="M20.096,5.389l-3.485-3.485c-1.228-1.228-2.86-1.904-4.596-1.904H6.5C4.019,0,2,2.019,2,4.5v15c0,2.481,2.019,4.5,4.5,4.5h11c2.481,0,4.5-2.019,4.5-4.5V9.985c0-1.736-.676-3.369-1.904-4.596Zm-.707,.707c.55,.55,.959,1.2,1.231,1.904h-5.121c-.827,0-1.5-.673-1.5-1.5V1.379c.704,.273,1.354,.682,1.904,1.231l3.485,3.485Zm1.611,13.404c0,1.93-1.57,3.5-3.5,3.5H6.5c-1.93,0-3.5-1.57-3.5-3.5V4.5c0-1.93,1.57-3.5,3.5-3.5h5.515c.335,0,.663,.038,.985,.096V6.5c0,1.378,1.122,2.5,2.5,2.5h5.404c.058,.323,.096,.651,.096,.985v9.515Z"/>
</svg>
