<?xml version="1.0" encoding="UTF-8"?>
<svg xmlns="http://www.w3.org/2000/svg" id="Layer_1" data-name="Layer 1" viewBox="0 0 24 24">
  <path d="m12,1C5.935,1,1,5.935,1,12c0,5.91,4.622,10.737,10.521,10.989.276.013.49.245.478.521-.011.269-.233.479-.499.479h-.022c-6.437-.275-11.479-5.542-11.479-11.989C0,5.383,5.383,0,12,0s12,5.383,12,12c0,.881-.096,1.759-.284,2.608-.06.27-.324.439-.597.38-.27-.06-.439-.327-.38-.597.173-.778.261-1.583.261-2.392,0-6.065-4.935-11-11-11Zm-.5,5.023c-.276,0-.5.224-.5.5v5.199l-3.765,2.354c-.234.146-.305.455-.159.688.095.152.258.235.424.235.09,0,.182-.024.265-.076l4-2.5c.146-.091.235-.251.235-.424v-5.477c0-.276-.224-.5-.5-.5Zm12.426,11.046c-.199-.193-.517-.186-.706.015l-5.234,5.454c-.28.292-.658.456-1.062.462h-.021c-.396,0-.771-.153-1.053-.432l-2.728-2.692c-.197-.194-.513-.192-.708.004-.194.197-.192.514.005.707l2.727,2.692c.472.466,1.094.721,1.756.721h.035c.674-.01,1.303-.282,1.77-.77l5.234-5.455c.191-.199.186-.516-.015-.706Z"/>
</svg>
