<?xml version="1.0" encoding="UTF-8"?>
<svg xmlns="http://www.w3.org/2000/svg" id="Layer_1" data-name="Layer 1" viewBox="0 0 24 24">
  <path d="M4,21h-1c-.551,0-1,.449-1,1v1c0,.551,.449,1,1,1h1c.551,0,1-.449,1-1v-1c0-.551-.449-1-1-1Zm0,2h-1v-1h1v1Zm0-7h-1c-.551,0-1,.449-1,1v1c0,.551,.449,1,1,1h1c.551,0,1-.449,1-1v-1c0-.551-.449-1-1-1Zm0,2h-1s0-1,0-1h1.001v1ZM20.5,0H3.5C1.57,0,0,1.57,0,3.5v2c0,1.93,1.57,3.5,3.5,3.5H20.5c1.93,0,3.5-1.57,3.5-3.5V3.5c0-1.93-1.57-3.5-3.5-3.5Zm2.5,5.5c0,1.378-1.121,2.5-2.5,2.5H3.5c-1.378,0-2.5-1.122-2.5-2.5V3.5c0-1.378,1.122-2.5,2.5-2.5H20.5c1.379,0,2.5,1.122,2.5,2.5v2ZM4,11h-1c-.551,0-1,.449-1,1v1c0,.551,.449,1,1,1h1c.551,0,1-.449,1-1v-1c0-.551-.449-1-1-1Zm0,2h-1s0-1,0-1h1.001v1Zm18-.5c0,.276-.224,.5-.5,.5H7.5c-.276,0-.5-.224-.5-.5s.224-.5,.5-.5h14c.276,0,.5,.224,.5,.5Zm-3.109-9.5h-3.781c-.963-.034-1.487,1.247-.774,1.896l1.796,1.75c.473,.47,1.274,.472,1.746,.001l1.79-1.754c.711-.65,.185-1.928-.776-1.894Zm.077,1.18l-1.793,1.757c-.078,.076-.25,.09-.339,0-.002-.001-.003-.003-.005-.004l-1.798-1.752c-.06-.028-.029-.195,.076-.18h3.781c.104-.015,.136,.152,.077,.18Zm3.032,13.32c0,.276-.224,.5-.5,.5H7.5c-.276,0-.5-.224-.5-.5s.224-.5,.5-.5h14c.276,0,.5,.224,.5,.5Zm0,5c0,.276-.224,.5-.5,.5H7.5c-.276,0-.5-.224-.5-.5s.224-.5,.5-.5h14c.276,0,.5,.224,.5,.5Z"/>
</svg>
