<svg id="Layer_1" viewBox="0 0 24 24" xmlns="http://www.w3.org/2000/svg" data-name="Layer 1"><path d="m24 20.5c0 1.93-1.57 3.5-3.5 3.5-.333 0-.5-.224-.5-.5s.224-.5.5-.5c1.379 0 2.5-1.121 2.5-2.5 0-.276.224-.5.5-.5s.5.224.5.5zm0-16v9c0 .276-.224.5-.5.5s-.5-.224-.5-.5v-9c0-1.93-1.57-3.5-3.5-3.5h-1.476c.122 3.304 1.393 4.804 2.818 6.135.201.188.212.505.023.707-.189.201-.505.212-.707.023-1.528-1.429-3.005-3.159-3.134-6.865h-2.007c.185 6.017 3.627 8.662 5.707 9.706.246.124.346.425.223.672-.125.249-.43.344-.672.223-2.285-1.147-6.069-4.045-6.258-10.601h-1.518v1.5c0 3.88 1.457 7.13 4.33 9.66.208.183.228.498.045.705s-.498.228-.705.045c-2.066-1.819-3.475-4.056-4.169-6.587-1.586 5.766-6.512 8.447-8.5 9.316 1.099.946 3.071 3.109 3.439 6.696.11.859-.44 1.665-1.491 1.665h-1.949c-1.929 0-3.499-1.57-3.499-3.5v-16c0-2.481 2.019-4.5 4.5-4.5h15c2.481 0 4.5 2.019 4.5 4.5zm-21.656 11.5h-1.344v4.5c0 1.379 1.121 2.5 2.5 2.5h1.949c.292.006.533-.274.497-.562-.407-3.961-3.045-6.04-3.602-6.438zm9.156-15h-1.518c-.188 6.555-3.972 9.453-6.258 10.601-.241.122-.547.027-.672-.223-.123-.247-.023-.548.223-.672 2.08-1.044 5.522-3.689 5.707-9.706h-2.007c-.128 3.706-1.606 5.437-3.134 6.865-.202.188-.518.178-.707-.023-.188-.202-.178-.519.023-.707 1.425-1.331 2.696-2.831 2.818-6.135h-1.476c-1.93 0-3.5 1.57-3.5 3.5v10.5h1.42c.915-.31 9.08-3.333 9.08-12.5v-1.5zm6.5 21c-.552 0-1 .448-1 1s.448 1 1 1 1-.448 1-1-.448-1-1-1zm2.121-1.121c.195.195.512.195.707 0s.195-.512 0-.707c-1.51-1.512-4.146-1.512-5.656 0-.195.195-.195.512 0 .707s.512.195.707 0c1.133-1.133 3.109-1.133 4.242 0zm2.829-2.829c.195.195.512.195.707 0s.195-.512 0-.707c-3.119-3.119-8.195-3.119-11.314 0-.195.195-.195.512 0 .707s.512.195.707 0c2.73-2.729 7.17-2.729 9.9 0z"/></svg>