<?xml version="1.0" encoding="UTF-8"?>
<svg xmlns="http://www.w3.org/2000/svg" id="Layer_1" data-name="Layer 1" viewBox="0 0 24 24">
  <path d="m23.991,21.34l-.107-1c-.082-.764-.723-1.34-1.491-1.34h-2.253l-.217-2h1.578c.425,0,.832-.181,1.116-.498s.421-.74.375-1.162l-.107-1c-.082-.764-.723-1.34-1.491-1.34h-1.905l-.217-2h1.73c.425,0,.832-.181,1.116-.498.284-.316.421-.74.375-1.162l-.107-1c-.082-.764-.724-1.34-1.492-1.34h-2.057l-.217-2h1.382c.425,0,.832-.181,1.116-.498s.421-.74.375-1.162l-.107-1c-.082-.764-.723-1.34-1.491-1.34h-1.775c-.21-.583-.744-1-1.389-1-.426,0-.833.182-1.117.499-.132.147-.229.319-.293.501h-6.637c-.065-.183-.161-.354-.293-.501-.284-.317-.691-.499-1.117-.499-.645,0-1.179.417-1.389,1h-1.775c-.769,0-1.41.576-1.491,1.34l-.107,1c-.045.422.091.846.375,1.162s.691.498,1.116.498h1.382l-.217,2h-2.057c-.768,0-1.41.576-1.492,1.34l-.107,1c-.045.422.091.846.375,1.162.284.316.69.498,1.116.498h1.73l-.217,2h-1.905c-.769,0-1.41.576-1.491,1.34l-.107,1c-.045.422.091.846.375,1.162s.691.498,1.116.498h1.578l-.217,2H1.607c-.769,0-1.41.576-1.491,1.34l-.107,1c-.045.422.091.846.375,1.162s.691.498,1.116.498h2.079c.065.183.161.354.293.501.284.317.691.499,1.117.499.645,0,1.179-.417,1.389-1h11.243c.21.583.744,1,1.389,1,.426,0,.833-.182,1.117-.499.132-.147.229-.319.293-.501h2.079c.425,0,.832-.181,1.116-.498s.421-.74.375-1.162Zm-2.599-7.34c.256,0,.47.192.497.447l.107,1c.015.143-.029.28-.125.387-.096.107-.229.166-.372.166h-1.687l-.217-2h1.797Zm-.5-6c.256,0,.47.192.498.447l.107,1c.015.143-.029.281-.125.387-.096.107-.229.166-.372.166h-1.838l-.217-2h1.948Zm-.502-5.553l.107,1c.015.143-.029.28-.125.387-.096.107-.229.166-.372.166h-1.491l-.217-2h1.601c.256,0,.47.192.497.447Zm-11.664-.447h6.548l.217,2h-6.983l.217-2Zm-1.304,12h9.156l.217,2H7.204l.217-2ZM15.6,5l.217,2h-7.635l.217-2h7.2Zm-7.526,3h7.852l.217,2H7.857l.217-2Zm-.326,3h8.504l.217,2H7.531l.217-2Zm-.652,6h9.808l.217,2H6.878l.217-2Zm-.326,3h10.46l.217,2H6.552l.217-2ZM4,4c-.144,0-.276-.059-.372-.166-.096-.107-.14-.244-.125-.387l.107-1c.027-.255.241-.447.497-.447h1.601l-.217,2h-1.491Zm-1,6c-.144,0-.276-.059-.372-.166-.096-.106-.14-.244-.125-.387l.107-1c.027-.255.241-.447.498-.447h1.948l-.217,2h-1.838Zm-.5,6c-.144,0-.276-.059-.372-.166-.096-.107-.14-.244-.125-.387l.107-1c.027-.255.241-.447.497-.447h1.797l-.217,2h-1.687Zm-1.372,5.834c-.096-.107-.14-.244-.125-.387l.107-1c.027-.255.241-.447.497-.447h2.145l-.217,2H1.5c-.144,0-.276-.059-.372-.166Zm3.489,1c-.081-.091-.117-.206-.118-.326,0-.003.002-.005.002-.008,0-.009-.004-.016-.005-.024,0-.01-.004-.019-.003-.029L6.774,1.446c.028-.254.241-.446.497-.446.144,0,.276.059.373.166.096.107.14.245.125.388l-2.282,21c-.044.397-.603.577-.87.28Zm13.897-.28L16.231,1.554c-.016-.143.029-.28.125-.388.096-.107.229-.166.373-.166.256,0,.469.192.497.446l2.282,21c.001.01-.003.019-.003.029,0,.009-.005.016-.005.024,0,.003.002.005.002.008-.002.12-.037.234-.118.326-.267.297-.827.117-.87-.28Zm4.358-.72c-.096.107-.229.166-.372.166h-2.035l-.217-2h2.145c.256,0,.47.192.497.447l.107,1c.015.143-.029.28-.125.387Z"/>
</svg>
