<svg id="Layer_1" viewBox="0 0 24 24" xmlns="http://www.w3.org/2000/svg" data-name="Layer 1"><path d="m11.5 23h-3.695c-1.676 0-3.121-1.194-3.438-2.839l-1.375-7.161h8.508c.276 0 .5-.224.5-.5s-.224-.5-.5-.5h-8.7l-.576-3h19.276c.276 0 .5-.224.5-.5s-.224-.5-.5-.5h-.717c-.579-2.833-2.386-5.319-4.928-6.736-.294-.739-1.013-1.264-1.856-1.264h-6c-.842 0-1.562.525-1.856 1.264-2.54 1.417-4.347 3.903-4.926 6.736h-.717c-.276 0-.5.224-.5.5s.224.5.5.5h.705l2.18 11.349c.407 2.116 2.266 3.651 4.42 3.651h3.695c.276 0 .5-.224.5-.5s-.224-.5-.5-.5zm-3.5-22h6c.552 0 1 .449 1 1s-.448 1-1 1h-6c-.552 0-1-.449-1-1s.448-1 1-1zm-1.934 1.485c.218.868.999 1.515 1.934 1.515h6c.934 0 1.715-.647 1.934-1.515 1.933 1.275 3.312 3.263 3.827 5.515h-17.522c.515-2.252 1.894-4.24 3.827-5.515zm13.7 9.282c-.529-.443-1.03-.863-1.413-1.246-.194-.209-.551-.189-.731.026-.852.983-1.134 2.09-1.361 2.98-.274 1.076-.396 1.347-.799 1.347-.247 0-.46-.825-.462-1.5 0-.204-.124-.387-.313-.463-.193-.077-.405-.03-.547.115-.977 1.008-2.141 2.689-2.141 4.973 0 3.309 2.691 6 6 6s6-2.691 6-6c0-2.688-2.348-4.653-4.233-6.233zm-3.182 10.648c-.779-.781-.779-2.051 0-2.831l1.415-1.415 1.414 1.415c.779.781.78 2.05 0 2.83-.762.772-2.066.772-2.829 0zm4.177-.253c.457-1.09.245-2.397-.641-3.284l-1.768-1.768c-.186-.194-.521-.194-.707 0l-1.769 1.768c-.886.886-1.097 2.193-.64 3.284-1.347-.897-2.238-2.426-2.238-4.162 0-1.415.532-2.568 1.148-3.428.197.724.605 1.303 1.313 1.303 1.232 0 1.505-1.067 1.769-2.1.176-.688.37-1.454.831-2.154.324.293.687.597 1.063.912 1.727 1.446 3.875 3.246 3.875 5.466 0 1.736-.891 3.265-2.238 4.162z"/></svg>