<svg id="Layer_1" viewBox="0 0 24 24" xmlns="http://www.w3.org/2000/svg" data-name="Layer 1"><path d="m15.75 6.5h-1.75v-2c0-.276-.224-.5-.5-.5s-.5.224-.5.5v5.5c0 .551.449 1 1 1h1.75c1.241 0 2.25-1.009 2.25-2.25s-1.009-2.25-2.25-2.25zm0 3.5h-1.75v-2.5h1.75c.689 0 1.25.561 1.25 1.25s-.561 1.25-1.25 1.25zm-9.75 6.5c0-.276.224-.5.5-.5h11c.276 0 .5.224.5.5s-.224.5-.5.5h-11c-.276 0-.5-.224-.5-.5zm0 3c0-.276.224-.5.5-.5h7c.276 0 .5.224.5.5s-.224.5-.5.5h-7c-.276 0-.5-.224-.5-.5zm10.5-19.5h-9c-2.481 0-4.5 2.019-4.5 4.5v15c0 2.481 2.019 4.5 4.5 4.5h9c2.481 0 4.5-2.019 4.5-4.5v-15c0-2.481-2.019-4.5-4.5-4.5zm3.5 19.5c0 1.93-1.57 3.5-3.5 3.5h-9c-1.93 0-3.5-1.57-3.5-3.5v-5.5h16zm0-6.5h-16v-8.5c0-1.93 1.57-3.5 3.5-3.5h9c1.93 0 3.5 1.57 3.5 3.5zm-9.124-6.197c.386-.404.624-.951.624-1.553 0-1.241-1.009-2.25-2.25-2.25h-2.25c-.551 0-1 .449-1 1v6c0 .551.449 1 1 1h2.75c1.241 0 2.25-1.009 2.25-2.25 0-.831-.452-1.557-1.124-1.947zm-3.876-2.803h2.25c.689 0 1.25.561 1.25 1.25s-.561 1.25-1.25 1.25h-2.25zm2.75 6h-2.75v-2.5h2.75c.689 0 1.25.561 1.25 1.25s-.561 1.25-1.25 1.25z"/></svg>