<svg id="Layer_1" viewBox="0 0 24 24" xmlns="http://www.w3.org/2000/svg" data-name="Layer 1"><path d="m23.854 23.146-4.703-4.708 3.203-3.203c.121-.121.172-.295.135-.462s-.157-.303-.317-.361l-9.131-3.321c-.562-.2-1.173-.063-1.591.354-.42.42-.555 1.029-.352 1.589l3.321 9.131c.059.161.194.28.361.317.165.037.341-.013.462-.135l3.202-3.202 4.703 4.708c.195.195.512.195.707 0s.195-.512 0-.707zm-8.765-2.061-3.052-8.393c-.072-.199-.03-.392.119-.541.15-.15.351-.192.544-.121l8.392 3.052-3.001 3.001s0 0 0 0l-3 3zm-8.089-14.085c0 1.654 1.346 3 3 3s3-1.346 3-3-1.346-3-3-3-3 1.346-3 3zm5 0c0 1.103-.897 2-2 2s-2-.897-2-2 .897-2 2-2 2 .897 2 2zm-.503 12.396c.029.274-.17.521-.445.549-.346.037-.697.055-1.052.055-5.514 0-10-4.486-10-10s4.486-10 10-10 10 4.486 10 10c0 .176-.004.352-.014.526-.015.276-.254.489-.525.473-.276-.015-.487-.25-.473-.526.008-.157.012-.315.012-.474 0-4.961-4.037-8.999-9-8.999s-9 4.038-9 9c0 2.721 1.219 5.159 3.133 6.81.443-2.171 2.068-3.972 4.23-4.584.264-.077.542.079.617.345s-.079.542-.345.617c-1.962.555-3.404 2.283-3.607 4.308 1.426.949 3.134 1.504 4.971 1.504.32 0 .636-.017.948-.049.27-.033.521.17.549.445z"/></svg>