<?xml version="1.0" encoding="UTF-8"?>
<svg xmlns="http://www.w3.org/2000/svg" id="Layer_1" data-name="Layer 1" viewBox="0 0 24 24">
  <path d="m23.001,16.083l-1.395-1.632c-.608-.596-1.601-.597-2.244.033l-1.345,1.578c-.656.656-1.018,1.532-1.018,2.466,0,1.202.613,2.311,1.641,2.968.558.356,1.209.535,1.86.535.663,0,1.327-.185,1.89-.555,1.007-.661,1.608-1.763,1.608-2.948,0-.934-.364-1.813-.999-2.445Zm-1.159,4.558c-.792.52-1.863.524-2.663.013-.75-.479-1.18-1.254-1.18-2.125,0-.667.257-1.292.751-1.788l1.341-1.574c.119-.116.272-.172.42-.172.137,0,.269.047.363.139l1.391,1.628c.472.472.732,1.1.732,1.767,0,.86-.422,1.63-1.157,2.112Zm2.124-10.725c.119-.734-.085-1.476-.562-2.035s-1.17-.881-1.906-.881l-8.479.022-4.068-4.095c-.592-.596-1.381-.925-2.222-.927h-.005c-.839,0-1.627.326-2.22.919l-2.308,2.308c-1.417,1.416-2.197,3.299-2.197,5.303v6.969c0,2.481,2.019,4.5,4.5,4.5h4.721c2.138,0,3.993-1.521,4.413-3.617l1.276-6.383h6.483c1.273,0,2.379-.896,2.573-2.084Zm-9.466,1.084c-.238,0-.443.168-.49.402l-1.357,6.785c-.326,1.63-1.77,2.813-3.432,2.813h-4.721c-1.93,0-3.5-1.57-3.5-3.5v-6.969c0-1.737.676-3.369,1.904-4.596l2.308-2.308c.404-.404.941-.626,1.513-.626h.003c.573,0,1.111.225,1.514.632l3.371,3.394-5.115.013c-.276,0-.499.225-.499.501,0,.275.225.499.5.499h.001l14.999-.039c.44,0,.857.193,1.143.529.29.341.409.776.336,1.227-.115.709-.797,1.245-1.586,1.245h-6.893Z"/>
</svg>
