<?xml version="1.0" encoding="UTF-8"?>
<svg xmlns="http://www.w3.org/2000/svg" id="Layer_1" data-name="Layer 1" viewBox="0 0 24 24">
  <path d="M19.767,11.768c-.53-.444-1.03-.863-1.413-1.246-.098-.099-.227-.146-.372-.146-.139,.005-.269,.067-.36,.173-.851,.983-1.134,2.091-1.361,2.98-.274,1.076-.397,1.347-.8,1.347-.247,0-.46-.825-.461-1.501,0-.203-.124-.387-.313-.462-.187-.078-.404-.032-.546,.115-.977,1.008-2.141,2.688-2.141,4.973,0,3.308,2.691,5.999,5.999,6,0,0,0,0,0,0h0c3.309,0,6-2.691,6-6,0-2.688-2.347-4.653-4.233-6.232Zm-.353,10.646c-.755,.755-2.073,.757-2.829,0-.378-.378-.586-.881-.586-1.415s.208-1.036,.586-1.414l1.415-1.415,1.414,1.415c.377,.378,.585,.88,.585,1.415s-.208,1.036-.585,1.414Zm1.353-.255c.152-.362,.232-.754,.232-1.159,0-.802-.312-1.556-.878-2.122l-1.768-1.769c-.094-.094-.221-.146-.354-.146s-.26,.053-.354,.146l-1.768,1.769c-.567,.566-.879,1.319-.879,2.121,0,.405,.081,.797,.232,1.16-1.344-.897-2.232-2.425-2.232-4.159,0-1.415,.533-2.567,1.149-3.429,.197,.725,.605,1.304,1.312,1.304,1.233,0,1.505-1.067,1.769-2.1,.176-.688,.371-1.453,.832-2.154,.324,.294,.687,.598,1.063,.913,1.727,1.445,3.875,3.245,3.875,5.466,0,1.734-.889,3.262-2.233,4.159Zm-1.267-20.159h-7.028c-.231,0-.464-.055-.671-.158L8.646,.264c-.345-.173-.732-.264-1.118-.264h-3.028C2.019,0,0,2.019,0,4.5v13c0,2.481,2.019,4.5,4.5,4.5h6c.276,0,.5-.224,.5-.5s-.224-.5-.5-.5H4.5c-1.93,0-3.5-1.57-3.5-3.5V7H23v4.5c0,.276,.224,.5,.5,.5s.5-.224,.5-.5V6.5c0-2.481-2.019-4.5-4.5-4.5ZM1,4.5c0-1.93,1.57-3.5,3.5-3.5h3.028c.231,0,.464,.055,.671,.158l3.156,1.578c.345,.173,.732,.264,1.118,.264h7.028c1.758,0,3.204,1.308,3.449,3H1v-1.5Z"/>
</svg>
