<?xml version="1.0" encoding="UTF-8"?>
<svg xmlns="http://www.w3.org/2000/svg" id="Layer_1" data-name="Layer 1" viewBox="0 0 24 24">
  <path d="m8.5,23.551c.055.02-.055,0,0,0h0ZM11,2.5c0-.827.673-1.5,1.5-1.5s1.5.673,1.5,1.5v8c0,.276.224.5.5.5s.5-.224.5-.5V3.5c0-.827.673-1.5,1.5-1.5s1.5.673,1.5,1.5v7c0,.276.224.5.5.5s.5-.224.5-.5v-4.893c0-.789.535-1.471,1.244-1.587.452-.071.886.046,1.227.336.337.286.529.703.529,1.144v11c0,.276.224.5.5.5s.5-.224.5-.5V5.5c0-.734-.321-1.429-.881-1.905-.56-.476-1.304-.679-2.035-.561-.405.066-.771.244-1.084.492v-.026c0-1.379-1.121-2.5-2.5-2.5-.64,0-1.218.248-1.66.645-.351-.957-1.263-1.645-2.34-1.645-1.379,0-2.5,1.121-2.5,2.5v.026c-.313-.248-.679-.426-1.084-.492-.729-.12-1.476.085-2.034.561-.561.477-.882,1.171-.882,1.905v10.85l-1.796-1.677c-.487-.455-1.101-.691-1.79-.671-.666.022-1.284.303-1.739.79-.941,1.007-.89,2.593.111,3.53l4.457,4.297c.889.856,2.094,1.525,3.257,1.932.207,0,.4-.129.472-.335.092-.261-.046-.546-.307-.637-1.026-.359-1.943-.924-2.729-1.681l-4.462-4.302c-.604-.565-.635-1.517-.069-2.121.564-.605,1.515-.634,2.116-.072l2.638,2.462c.145.137.357.172.54.094.183-.08.301-.26.301-.459V4.5c0-.44.192-.857.529-1.144.341-.29.774-.406,1.227-.336.709.116,1.244.798,1.244,1.587v5.893c0,.276.224.5.5.5s.5-.224.5-.5V2.5Zm6.5,18v-3c0-.276-.224-.5-.5-.5s-.5.224-.5.5v3c0,.276.224.5.5.5s.5-.224.5-.5Zm5.418,1.025l-4.497-7.709c-.298-.511-.829-.816-1.421-.816s-1.123.306-1.421.816l-4.497,7.709c-.301.516-.303,1.132-.006,1.648.297.518.83.826,1.427.826h1.997c.276,0,.5-.224.5-.5s-.224-.5-.5-.5h-1.997c-.337,0-.504-.227-.56-.324-.056-.097-.168-.355.002-.646l4.497-7.709c.169-.289.446-.32.558-.32s.389.031.558.32l4.497,7.709c.17.291.058.55.002.646-.056.098-.223.324-.56.324h-1.997c-.276,0-.5.224-.5.5s.224.5.5.5h1.997c.597,0,1.13-.309,1.427-.826.297-.517.295-1.133-.006-1.648Zm-5.918.475c-.552,0-1,.448-1,1s.448,1,1,1,1-.448,1-1-.448-1-1-1Z"/>
</svg>
