<?xml version="1.0" encoding="UTF-8"?>
<svg xmlns="http://www.w3.org/2000/svg" id="Layer_1" data-name="Layer 1" viewBox="0 0 24 24">
  <path d="M23.5,23h-6.072l1.98-14.716c.172-1.122-.527-2.286-1.592-2.665l.312-2.273c.174-1.361-.791-2.615-2.151-2.795L11.949,.017c-1.329-.207-2.666,.822-2.808,2.157l-.307,2.233c-1.16,.08-2.147,.964-2.308,2.16l-2.209,16.433H.5c-.276,0-.5,.224-.5,.5s.224,.5,.5,.5H23.5c.276,0,.5-.224,.5-.5s-.224-.5-.5-.5ZM10.133,2.305c.086-.805,.885-1.42,1.685-1.297l4.028,.534c.816,.108,1.395,.86,1.292,1.672l-.302,2.202-1.095-.145,.16-1.218c.073-.547-.312-1.05-.86-1.123-.547-.073-1.05,.312-1.123,.86l-.16,1.218-.991-.131,.16-1.218c.073-.547-.312-1.05-.86-1.123-.547-.073-1.05,.312-1.123,.86l-.16,1.218-.951-.126,.3-2.183Zm4.56,14.592c-.547-.073-1.05,.312-1.123,.86l-.765,5.243h-1.01l.784-5.374c.073-.547-.312-1.05-.86-1.123-.547-.073-1.05,.312-1.123,.86l-.823,5.637h-1.01l.842-5.768c.073-.547-.312-1.05-.86-1.123-.547-.073-1.05,.312-1.123,.86l-.88,6.031h-1.414L7.518,6.7c.11-.818,.868-1.395,1.683-1.287l7.926,1.05c.802,.089,1.414,.889,1.289,1.687l-1.998,14.85h-1.593l.727-4.98c.073-.547-.312-1.05-.86-1.123Zm-.964-8.018l-.179,1.353c-.046,.348-.365,.592-.713,.546l-.723-.096c-.348-.046-.592-.365-.546-.713l.179-1.353c.073-.547,.575-.932,1.123-.86,.548,.073,.933,.575,.86,1.123Zm-2.974-.394l-.179,1.353c-.046,.348-.365,.592-.713,.546l-.723-.096c-.348-.046-.592-.365-.546-.713l.179-1.353c.073-.547,.575-.932,1.123-.86,.548,.073,.933,.575,.86,1.123Zm2.397,4.847l-.179,1.353c-.046,.348-.365,.592-.713,.546l-.723-.096c-.348-.046-.592-.365-.546-.713l.179-1.353c.073-.547,.575-.932,1.123-.86,.547,.073,.932,.575,.86,1.123Zm-2.974-.394l-.179,1.353c-.046,.348-.365,.592-.713,.546l-.723-.096c-.348-.046-.592-.365-.546-.713l.179-1.353c.073-.547,.575-.932,1.123-.86,.547,.073,.932,.575,.86,1.123Zm4.363-2.574l.179-1.353c.073-.548,.575-.933,1.123-.86,.548,.073,.933,.575,.86,1.123l-.179,1.353c-.046,.348-.365,.592-.713,.546l-.723-.096c-.348-.046-.592-.365-.546-.713Zm.693,5.261l-.723-.096c-.348-.046-.592-.365-.546-.713l.179-1.353c.073-.548,.575-.933,1.123-.86,.547,.073,.932,.575,.86,1.123l-.179,1.353c-.046,.348-.365,.592-.713,.546Z"/>
</svg>
