<?xml version="1.0" encoding="UTF-8"?>
<svg xmlns="http://www.w3.org/2000/svg" id="Layer_1" data-name="Layer 1" viewBox="0 0 24 24">
  <path d="M19.5,0c-1.342-.085-2.505,.976-2.5,2.328v3.672H9v-1.5C9,2.019,6.981,0,4.5,0S0,2.019,0,4.5v15c0,2.481,2.019,4.5,4.5,4.5h15c2.421,.051,4.544-2.085,4.5-4.5V4.5c0-2.481-2.019-4.5-4.5-4.5ZM1,4.5c0-1.93,1.57-3.5,3.5-3.5s3.5,1.57,3.5,3.5v12.206c-.825-1.032-2.079-1.706-3.5-1.706s-2.675,.675-3.5,1.706V4.5Zm0,15c0-1.93,1.57-3.5,3.5-3.5s3.5,1.57,3.5,3.5-1.57,3.5-3.5,3.5-3.5-1.57-3.5-3.5Zm21.203,2.223c-.668,.812-1.653,1.277-2.703,1.277H7.294c1.032-.825,1.706-2.079,1.706-3.5V7h8v6.672c0,1.284,1.044,2.328,2.328,2.328,1.771,0,3.286,1.173,3.603,2.789,.205,1.054-.06,2.123-.728,2.934Zm.797-5.036c-.86-1.035-2.197-1.687-3.672-1.687-.732,0-1.328-.596-1.328-1.328V2.328c-.005-.806,.711-1.403,1.5-1.328,1.93,0,3.5,1.57,3.5,3.5v12.187Zm-16,2.813c0-1.379-1.121-2.5-2.5-2.5s-2.5,1.121-2.5,2.5,1.121,2.5,2.5,2.5,2.5-1.121,2.5-2.5Zm-4,0c0-.827,.673-1.5,1.5-1.5s1.5,.673,1.5,1.5-.673,1.5-1.5,1.5-1.5-.673-1.5-1.5Z"/>
</svg>
