<svg id="Layer_1" viewBox="0 0 24 24" xmlns="http://www.w3.org/2000/svg" data-name="Layer 1"><path d="m9 11h4.173c.067.037 2.608 1.736 2.632 1.75.446.322 1.022.306 1.454.076.371-.199.76-.625.741-1.206v-8.62c0-1.654-1.346-3-3-3h-6c-1.654 0-3 1.346-3 3v5c0 1.654 1.346 3 3 3zm-2-8c0-1.103.897-2 2-2h6c1.103 0 2 .897 2 2v8.635c.006.186-.191.297-.213.309-.065.035-.238.106-.427-.025-.042-.026-2.652-1.771-2.748-1.817-.098-.051-.211-.107-.323-.102h-4.289c-1.103 0-2-.897-2-2zm17 14.5v2c0 2.481-2.019 4.5-4.5 4.5h-15c-2.481 0-4.5-2.019-4.5-4.5v-2c0-2.481 2.019-4.5 4.5-4.5h9c.276 0 .5.224.5.5s-.224.5-.5.5h-9c-1.93 0-3.5 1.57-3.5 3.5v2c0 1.93 1.57 3.5 3.5 3.5h15c1.93 0 3.5-1.57 3.5-3.5v-2c0-1.93-1.57-3.5-3.5-3.5-.276 0-.5-.224-.5-.5s.224-.5.5-.5c2.481 0 4.5 2.019 4.5 4.5zm-15.949.5h-3.551c-.276 0-.5.224-.5.5s.224.5.5.5h3.551c.232 1.14 1.242 2 2.449 2 1.379 0 2.5-1.122 2.5-2.5s-1.121-2.5-2.5-2.5c-1.208 0-2.217.86-2.449 2zm3.949.5c0 .827-.673 1.5-1.5 1.5s-1.5-.673-1.5-1.5.673-1.5 1.5-1.5 1.5.673 1.5 1.5zm3.5-.5h4c.276 0 .5.224.5.5s-.224.5-.5.5h-4c-.276 0-.5-.224-.5-.5s.224-.5.5-.5zm-5.653-9.009c.263.052.534-.124.586-.395l.312-1.596h2.51l.312 1.596c.051.273.322.448.586.395.271-.053.448-.316.395-.587l-1.004-5.133c-.148-.76-.77-1.271-1.544-1.271s-1.396.511-1.544 1.271l-1.004 5.133c-.054.271.123.534.395.587zm1.59-5.527c.067-.342.335-.463.563-.463s.496.122.563.463l.496 2.537h-2.119l.496-2.537z"/></svg>