<svg id="Layer_1" viewBox="0 0 24 24" xmlns="http://www.w3.org/2000/svg" data-name="Layer 1"><path d="m23.6 18.258c-.874-1.217-2.833-3.258-6.13-3.258-3.053 0-4.963 1.694-6.028 3.116-.609.813-.587 1.921.055 2.692.993 1.191 3.09 3.191 5.973 3.191 3.292 0 5.253-2.042 6.13-3.259.533-.742.533-1.74 0-2.483zm-.812 1.899c-.933 1.297-2.613 2.843-5.317 2.843-2.476 0-4.324-1.774-5.205-2.831-.345-.414-.354-1.012-.022-1.453.928-1.239 2.589-2.716 5.227-2.716 2.708 0 4.387 1.545 5.317 2.842.283.394.283.923 0 1.315zm-5.288-2.657c-1.103 0-2 .897-2 2s.897 2 2 2 2-.897 2-2-.897-2-2-2zm0 3c-.552 0-1-.448-1-1s.448-1 1-1 1 .448 1 1-.448 1-1 1zm-15.5-6v9c0 .276-.224.5-.5.5s-.5-.224-.5-.5v-9c0-.276.224-.5.5-.5s.5.224.5.5zm4-4v13c0 .276-.224.5-.5.5s-.5-.224-.5-.5v-13c0-.276.224-.5.5-.5s.5.224.5.5zm4-4v17c0 .276-.224.5-.5.5s-.5-.224-.5-.5v-17c0-.276.224-.5.5-.5s.5.224.5.5zm3.5 3.5c.276 0 .5.224.5.5v2.5c0 .276-.224.5-.5.5s-.5-.224-.5-.5v-2.5c0-.276.224-.5.5-.5zm4 0c.276 0 .5.224.5.5v2c0 .276-.224.5-.5.5s-.5-.224-.5-.5v-2c0-.276.224-.5.5-.5zm4-1c.276 0 .5.224.5.5v4c0 .276-.224.5-.5.5s-.5-.224-.5-.5v-4c0-.276.224-.5.5-.5zm-7.988-1.781-2.73-2.73c-.707-.707-1.855-.707-2.562 0l-7.366 7.365c-.195.195-.512.195-.707 0s-.195-.512 0-.707l7.365-7.366c1.096-1.096 2.881-1.096 3.977 0l2.73 2.73c.686.686 1.877.686 2.562 0l5.512-5.511h-4.793c-.276 0-.5-.224-.5-.5s.224-.5.5-.5h5c.827 0 1.5.673 1.5 1.5v5c0 .276-.224.5-.5.5s-.5-.224-.5-.5v-4.793l-5.512 5.512c-1.096 1.096-2.881 1.096-3.977 0z"/></svg>