<svg id="Layer_1" viewBox="0 0 24 24" xmlns="http://www.w3.org/2000/svg" data-name="Layer 1"><path d="m8.128 8c-.417 0-.797.229-.994.597s-.175.812.057 1.157c.234.35.533.66.806.907-1.88.545-3.497 2.509-3.497 4.518 0 1.004.822 1.821 1.833 1.821h5.333c1.011 0 1.833-.817 1.833-1.821 0-2.009-1.617-3.973-3.497-4.518.273-.248.572-.557.806-.907.231-.346.253-.79.057-1.157-.196-.368-.577-.597-.994-.597h-1.744zm4.372 7.179c0 .453-.374.821-.833.821h-5.334c-.459 0-.833-.368-.833-.821 0-1.822 1.767-3.679 3.5-3.679s3.5 1.857 3.5 3.679zm-2.522-5.981c-.28.418-.702.787-.978 1.003-.276-.217-.698-.585-.978-1.003-.053-.098-.005-.188.106-.198h1.744c.111.01.159.1.106.198zm8.022-9.198c-3.309 0-6 2.691-6 6s2.691 6 6 6 6-2.691 6-6-2.691-6-6-6zm0 11c-2.757 0-5-2.243-5-5s2.243-5 5-5 5 2.243 5 5-2.243 5-5 5zm3.35-6.357c.192.199.187.515-.012.707l-2.703 2.614c-.36.355-.835.534-1.311.534s-.949-.177-1.312-.532l-1.364-1.345c-.197-.194-.199-.51-.005-.707s.511-.198.707-.005l1.363 1.344c.337.33.885.329 1.223-.004l2.706-2.617c.199-.191.516-.186.707.012zm-3.451 9.928c-.826 5.797-6.575 8.534-8.317 9.235-.13.043-.376.195-.581.195s-.46-.182-.604-.243c-1.97-.985-8.397-4.662-8.397-10.604l.002-4.829c0-1.761 1.123-3.317 2.795-3.871l6.046-2.005c.102-.034.213-.034.314 0l.999.331c.262.087.404.37.317.632-.086.262-.37.403-.632.317l-.842-.279-5.889 1.953c-1.262.418-2.109 1.593-2.109 2.922l-.002 4.829c0 5.369 6.004 8.789 7.844 9.709l.179.089.186-.075c1.617-.65 6.95-3.181 7.7-8.448.04-.273.295-.463.565-.425.273.039.464.292.425.565z"/></svg>