<svg id="Layer_1" viewBox="0 0 24 24" xmlns="http://www.w3.org/2000/svg" data-name="Layer 1"><path d="m22.859 11.939c.083-.505.128-.995.129-1.455.005-1.464-.779-2.763-1.981-3.458l2.836-2.657c.201-.189.212-.506.023-.707s-.505-.211-.707-.023l-3.185 2.985c-.315-.076-.662-.16-.797-.491-.389-.839-1.103-1.462-1.948-1.764l3.145-3.532c.184-.206.166-.521-.041-.705-.206-.185-.522-.167-.705.041l-3.553 3.991c-.263-.027-.485.028-.727.084-.216.051-.458-.01-.62-.163-.741-.696-1.706-1.08-2.717-1.08h-.009c-1.016.002-1.986.39-2.73 1.091-.162.153-.4.22-.622.166-.241-.057-.502-.091-.733-.082-1.325.002-2.543.782-3.102 1.986-.104.223-.303.376-.547.42-1.897.345-3.276 2.002-3.277 3.938 0 .465.04.953.122 1.453-.141.134-.284.267-.403.426-.673.895-.878 2.028-.562 3.107.683 2.34 1.921 4.451 3.58 6.103 1.524 1.517 3.679 2.387 5.913 2.387h4.723c2.234 0 4.39-.87 5.914-2.387 1.658-1.652 2.896-3.762 3.581-6.103.314-1.08.109-2.214-.563-3.111-.129-.172-.282-.318-.436-.46zm-18.412-4.371c.559-.103 1.036-.47 1.273-.982.397-.853 1.26-1.406 2.199-1.408h.01c.166 0 .333.019.498.057.55.128 1.124-.028 1.53-.412.559-.527 1.286-.817 2.047-.819h.007c.756 0 1.477.287 2.032.808.408.385.985.536 1.53.409.172-.04.339-.069.518-.059.932 0 1.788.546 2.18 1.391.239.516.718.884 1.28.986.181.024.339.099.518.143 1.142.429 1.923 1.532 1.919 2.798 0 .268-.023.551-.056.839-.443-.199-.926-.318-1.432-.318h-2.549c-.245-1.691-1.691-3-3.449-3-1.235 0-2.317.647-2.94 1.617-.657-1.133-1.562-1.91-2.279-2.369-.393-.252-.876-.315-1.32-.175-.44.139-.793.462-.968.887-.265.646-.533 1.691-.463 3.04h-3.027c-.519 0-1.014.121-1.466.33-.029-.276-.049-.549-.048-.81 0-1.43 1.056-2.701 2.457-2.955zm12.503 3.434h-4.898c.232-1.14 1.242-2 2.449-2s2.217.86 2.449 2zm-5.898 0h-3.524c-.07-1.191.162-2.102.392-2.659.084-.205.251-.285.343-.314.166-.051.338-.027.48.063.751.48 1.773 1.57 2.309 2.91zm11.846 4.228c-.628 2.148-1.809 4.163-3.326 5.674-1.339 1.332-3.237 2.096-5.209 2.096h-4.723c-1.971 0-3.87-.765-5.208-2.096-1.517-1.511-2.699-3.526-3.326-5.674-.226-.774-.079-1.588.402-2.23.476-.634 1.203-1 1.996-1h16.996c.793 0 1.52.365 1.996 1 .482.642.629 1.456.403 2.23z"/></svg>