<svg id="Layer_1" viewBox="0 0 24 24" xmlns="http://www.w3.org/2000/svg" data-name="Layer 1"><path d="m23.5 6h-1c-.827 0-1.5.673-1.5 1.5v4c0 .827-.673 1.5-1.5 1.5h-.5v-6.5c0-2.481-2.019-4.5-4.5-4.5h-10c-2.481 0-4.5 2.019-4.5 4.5v11c0 2.481 2.019 4.5 4.5 4.5h10c2.481 0 4.5-2.019 4.5-4.5v-3.5h.5c1.378 0 2.5-1.122 2.5-2.5v-4c0-.276.224-.5.5-.5h1c.276 0 .5-.224.5-.5s-.224-.5-.5-.5zm-5.5 11.5c0 1.93-1.57 3.5-3.5 3.5h-10c-1.93 0-3.5-1.57-3.5-3.5v-11c0-1.93 1.57-3.5 3.5-3.5h10c1.93 0 3.5 1.57 3.5 3.5zm-10-1c0 .276-.224.5-.5.5h-1.5v1.5c0 .276-.224.5-.5.5s-.5-.224-.5-.5v-1.5h-1.5c-.276 0-.5-.224-.5-.5s.224-.5.5-.5h1.5v-1.5c0-.276.224-.5.5-.5s.5.224.5.5v1.5h1.5c.276 0 .5.224.5.5zm8-.5c0 .552-.448 1-1 1s-1-.448-1-1 .448-1 1-1 1 .448 1 1zm-4 0c0 .552-.448 1-1 1s-1-.448-1-1 .448-1 1-1 1 .448 1 1zm2.5-11h-10c-.827 0-1.5.673-1.5 1.5v3c0 .827.673 1.5 1.5 1.5h10c.827 0 1.5-.673 1.5-1.5v-3c0-.827-.673-1.5-1.5-1.5zm.5 4.5c0 .276-.224.5-.5.5h-10c-.276 0-.5-.224-.5-.5v-3c0-.276.224-.5.5-.5h10c.276 0 .5.224.5.5z"/></svg>