<?xml version="1.0" encoding="UTF-8"?>
<svg xmlns="http://www.w3.org/2000/svg" id="Layer_1" data-name="Layer 1" viewBox="0 0 24 24">
  <path d="m15.652,5.859c-.198-.192-.204-.509-.012-.707s.51-.203.707-.012l2.652,2.567V.5c0-.276.224-.5.5-.5s.5.224.5.5v7.208l2.652-2.567c.198-.191.515-.187.707.012s.187.515-.012.707l-2.801,2.711c-.287.286-.665.43-1.045.43s-.764-.145-1.055-.436l-2.795-2.705Zm-12.205,2.705c.291.291.674.436,1.055.436s.758-.144,1.045-.43l2.801-2.711c.198-.192.204-.509.012-.707s-.509-.203-.707-.012l-2.652,2.567V.5c0-.276-.224-.5-.5-.5s-.5.224-.5.5v7.208l-2.652-2.567c-.197-.191-.514-.187-.707.012-.192.198-.187.515.012.707l2.795,2.705Zm1.053,5.436c1.379,0,2.5,1.121,2.5,2.5s-1.121,2.5-2.5,2.5-2.5-1.121-2.5-2.5,1.121-2.5,2.5-2.5Zm0,1c-.827,0-1.5.673-1.5,1.5s.673,1.5,1.5,1.5,1.5-.673,1.5-1.5-.673-1.5-1.5-1.5Zm15-1c1.379,0,2.5,1.121,2.5,2.5s-1.121,2.5-2.5,2.5-2.5-1.121-2.5-2.5,1.121-2.5,2.5-2.5Zm0,1c-.827,0-1.5.673-1.5,1.5s.673,1.5,1.5,1.5,1.5-.673,1.5-1.5-.673-1.5-1.5-1.5Zm-10-6.5c0-1.379,1.121-2.5,2.5-2.5s2.5,1.121,2.5,2.5-1.121,2.5-2.5,2.5-2.5-1.121-2.5-2.5Zm1,0c0,.827.673,1.5,1.5,1.5s1.5-.673,1.5-1.5-.673-1.5-1.5-1.5-1.5.673-1.5,1.5Zm13.483,14.87c-.532-1.984-2.376-3.37-4.483-3.37s-3.951,1.386-4.483,3.37c-.071.268.087.541.354.613.27.066.541-.087.613-.354.415-1.549,1.861-2.63,3.517-2.63s3.102,1.081,3.517,2.63c.061.223.263.37.483.37.043,0,.086-.006.13-.017.267-.072.425-.346.354-.613Zm-19.483-3.37c-2.107,0-3.951,1.386-4.483,3.37-.071.268.087.541.354.613.271.066.541-.087.613-.354.415-1.549,1.861-2.63,3.517-2.63s3.102,1.081,3.517,2.63c.061.223.263.37.483.37.043,0,.086-.006.13-.017.267-.072.425-.346.354-.613-.532-1.984-2.376-3.37-4.483-3.37Zm11.076-5c.088,0,.176-.022.257-.071.236-.142.314-.448.172-.686-.827-1.384-2.361-2.243-4.005-2.243s-3.178.859-4.005,2.243c-.143.237-.064.544.172.686.237.143.544.065.686-.172.648-1.084,1.854-1.757,3.147-1.757s2.499.673,3.147,1.757c.093.156.259.243.429.243Z"/>
</svg>
