<svg id="Layer_1" viewBox="0 0 24 24" xmlns="http://www.w3.org/2000/svg" data-name="Layer 1"><path d="m20 11h-.873l-5.991-3.226c1.092-.449 1.865-1.521 1.865-2.774 0-1.105-.605-2.118-1.58-2.644-.559-.301-.92-.96-.92-1.682v-.175c0-.276-.224-.5-.5-.5s-.5.224-.5.5v.175c0 1.102.555 2.083 1.446 2.562.65.35 1.054 1.025 1.054 1.763 0 1.103-.897 2-2 2s-2-.897-2-2c0-.276-.224-.5-.5-.5s-.5.224-.5.5c0 1.252.772 2.325 1.865 2.774l-5.991 3.226h-.873c-2.206 0-4 1.794-4 4v5c0 2.206 1.794 4 4 4h15.998c2.206 0 4-1.794 4-4v-5c0-2.206-1.794-4-4-4zm-8-2.701 5.016 2.701h-10.032zm-4 14.701h-3v-6.5c0-.275.225-.5.5-.5h2c.275 0 .5.225.5.5zm15-3c0 1.654-1.346 3-3 3h-11v-6.5c0-.827-.673-1.5-1.5-1.5h-2c-.827 0-1.5.673-1.5 1.5v6.5c-1.654 0-3-1.346-3-3v-5c0-1.654 1.346-3 3-3h16c1.654 0 3 1.346 3 3zm-4.5-5h-4c-.827 0-1.5.673-1.5 1.5v2c0 .827.673 1.5 1.5 1.5h4c.827 0 1.5-.673 1.5-1.5v-2c0-.827-.673-1.5-1.5-1.5zm.5 3.5c0 .275-.225.5-.5.5h-4c-.275 0-.5-.225-.5-.5v-2c0-.275.225-.5.5-.5h4c.275 0 .5.225.5.5z"/></svg>