<svg id="Layer_1" viewBox="0 0 24 24" xmlns="http://www.w3.org/2000/svg" data-name="Layer 1"><path d="m6.5 0h-3c-1.93 0-3.5 1.57-3.5 3.5v17c0 1.93 1.57 3.5 3.5 3.5h3c1.93 0 3.5-1.57 3.5-3.5v-17c0-1.93-1.57-3.5-3.5-3.5zm2.5 4h-2.5c-.276 0-.5.224-.5.5s.224.5.5.5h2.5v4h-2.5c-.276 0-.5.224-.5.5s.224.5.5.5h2.5v4h-2.5c-.276 0-.5.224-.5.5s.224.5.5.5h2.5v4h-2.5c-.276 0-.5.224-.5.5s.224.5.5.5h2.5v.5c0 1.378-1.121 2.5-2.5 2.5h-3c-1.379 0-2.5-1.122-2.5-2.5v-17c0-1.378 1.121-2.5 2.5-2.5h3c1.379 0 2.5 1.122 2.5 2.5zm13.729 3.436-3.505-1.979c-.76-.43-1.702-.43-2.462 0l-3.495 1.979c-.782.443-1.269 1.276-1.269 2.175v4.341c0 .895.482 1.727 1.26 2.17l3.515 2.009c.382.218.812.327 1.241.327.419 0 .838-.104 1.213-.312l3.484-1.935c.794-.44 1.287-1.278 1.287-2.186v-4.414c0-.9-.486-1.734-1.27-2.177zm-5.475-1.108c.228-.129.482-.194.738-.194s.511.064.738.193c0 0 3.603 2.055 3.653 2.092l-4.384 2.506-4.387-2.508c.049-.036 3.641-2.09 3.641-2.09zm-3.5 8.928c-.466-.267-.756-.766-.756-1.302v-4.341c0-.125.019-.248.049-.366l4.45 2.543v5.569c-.077-.028-.156-.052-.229-.093l-3.515-2.009zm9.244-1.228c0 .545-.296 1.047-.772 1.312l-3.484 1.935c-.078.043-.161.068-.244.096v-5.578l4.452-2.545c.03.118.049.241.049.366v4.414z"/></svg>