<?xml version="1.0" encoding="UTF-8"?>
<svg xmlns="http://www.w3.org/2000/svg" id="Layer_1" data-name="Layer 1" viewBox="0 0 24 24">
  <path d="m9.136,3.343c-.189-.201-.18-.517.021-.707L11.539.393c.498-.499,1.414-.509,1.934.01l2.371,2.233c.201.189.21.506.021.707-.098.104-.231.157-.364.157-.123,0-.246-.045-.343-.136l-2.157-2.032v8.169c0,.276-.224.5-.5.5s-.5-.224-.5-.5V1.331l-2.157,2.033c-.201.19-.518.181-.707-.021ZM1.843,6.364l2.157-2.033v5.169c0,.276.224.5.5.5s.5-.224.5-.5v-5.169l2.157,2.032c.097.091.22.136.343.136.133,0,.266-.053.364-.157.189-.201.18-.517-.021-.707l-2.371-2.233c-.52-.52-1.436-.509-1.934-.01l-2.381,2.244c-.201.189-.21.506-.021.707.189.202.505.211.707.021Zm21.521,6.817l-6.806,7.64c-1.802,2.021-4.387,3.18-7.093,3.18H3.5c-1.93,0-3.5-1.57-3.5-3.5v-5c0-1.93,1.57-3.5,3.5-3.5h9.858c1.208,0,2.228.814,2.542,1.923l3.732-4.102c.451-.496,1.069-.787,1.739-.818.666-.026,1.312.2,1.809.652,1.011.922,1.093,2.504.184,3.526Zm-.857-2.787c-.298-.272-.689-.414-1.088-.393-.403.019-.775.194-1.047.492l-4.495,4.94c-.301.946-1.124,1.679-2.146,1.824l-6.171.738c-.282.043-.523-.163-.556-.437-.033-.274.163-.523.437-.556l6.161-.737c.793-.113,1.399-.812,1.399-1.624,0-.905-.737-1.643-1.642-1.643H3.5c-1.378,0-2.5,1.121-2.5,2.5v5c0,1.379,1.122,2.5,2.5,2.5h5.965c2.421,0,4.734-1.037,6.347-2.846l6.806-7.639c.548-.615.498-1.567-.11-2.122Z"/>
</svg>
