<?xml version="1.0" encoding="UTF-8"?>
<svg xmlns="http://www.w3.org/2000/svg" id="Layer_1" data-name="Layer 1" viewBox="0 0 24 24">
  <path d="M7,23.5c0,.276-.224,.5-.5,.5s-.5-.224-.5-.5c0-3.033-2.468-5.5-5.5-5.5-.276,0-.5-.224-.5-.5s.224-.5,.5-.5c3.584,0,6.5,2.916,6.5,6.5ZM.5,12c-.276,0-.5,.224-.5,.5s.224,.5,.5,.5c5.79,0,10.5,4.71,10.5,10.5,0,.276,.224,.5,.5,.5s.5-.224,.5-.5c0-6.341-5.159-11.5-11.5-11.5Zm.5,10c-.552,0-1,.448-1,1s.448,1,1,1,1-.448,1-1-.448-1-1-1ZM21,12c0-.552-.448-1-1-1s-1,.448-1,1,.448,1,1,1,1-.448,1-1Zm.5-8H4.5c-1.145,0-2.214-.571-2.864-1.5,.633-.904,1.679-1.5,2.864-1.5H23.5c.276,0,.5-.224,.5-.5s-.224-.5-.5-.5H4.5C2.015,0,0,2.015,0,4.5v5c0,.276,.224,.5,.5,.5s.5-.224,.5-.5V4.5c0-.349,.067-.679,.162-.997,.845,.935,2.053,1.497,3.338,1.497H21.5c.828,0,1.5,.672,1.5,1.5v11c0,.828-.672,1.5-1.5,1.5h-7.5c-.276,0-.5,.224-.5,.5s.224,.5,.5,.5h7.5c1.381,0,2.5-1.119,2.5-2.5V6.5c0-1.381-1.119-2.5-2.5-2.5Z"/>
</svg>
