<?xml version="1.0" encoding="UTF-8"?>
<svg xmlns="http://www.w3.org/2000/svg" id="Layer_1" data-name="Layer 1" viewBox="0 0 24 24">
  <path d="m8.535,14.464c-.944-.944-2.2-1.464-3.535-1.464s-2.591.52-3.536,1.464c-1.95,1.95-1.95,5.122.017,7.087l2.013,1.834c.417.408.965.611,1.511.611.542,0,1.082-.2,1.489-.599l2.042-1.862c.945-.944,1.465-2.2,1.465-3.536s-.52-2.591-1.465-3.536Zm-.69,6.348l-2.038,1.858c-.444.436-1.169.434-1.626-.012l-2.009-1.83c-1.56-1.56-1.56-4.098,0-5.657.756-.755,1.76-1.171,2.829-1.171s2.073.416,2.828,1.171c.756.755,1.172,1.76,1.172,2.829s-.416,2.073-1.155,2.812Zm-2.845-4.812c-1.103,0-2,.897-2,2s.897,2,2,2,2-.897,2-2-.897-2-2-2Zm0,3c-.551,0-1-.449-1-1s.449-1,1-1,1,.449,1,1-.449,1-1,1ZM22.535,1.464c-.944-.944-2.2-1.464-3.535-1.464s-2.591.52-3.536,1.464c-1.95,1.95-1.95,5.122.017,7.087l2.013,1.834c.417.408.965.611,1.511.611.542,0,1.082-.2,1.489-.599l2.042-1.862c.945-.944,1.465-2.2,1.465-3.536s-.52-2.591-1.465-3.536Zm-.69,6.348l-2.038,1.858c-.445.436-1.168.435-1.626-.012l-2.009-1.83c-1.56-1.56-1.56-4.098,0-5.657.756-.755,1.76-1.171,2.829-1.171s2.073.416,2.828,1.171c.756.755,1.172,1.76,1.172,2.829s-.416,2.073-1.155,2.812Zm-2.845-4.812c-1.103,0-2,.897-2,2s.897,2,2,2,2-.897,2-2-.897-2-2-2Zm0,3c-.551,0-1-.449-1-1s.449-1,1-1,1,.449,1,1-.449,1-1,1Zm-6.309,9.225c.19.2.183.516-.017.707-.097.092-.221.138-.345.138-.132,0-.263-.052-.362-.155-.54-.566-.878-1.306-.951-2.083-.026-.275.176-.519.451-.544.282-.034.519.176.544.451.052.554.293,1.082.68,1.486Zm11.279,4.287c.02.16.03.323.03.488,0,.608-.133,1.192-.396,1.737-.086.179-.265.283-.451.283-.073,0-.147-.016-.217-.05-.249-.12-.353-.419-.233-.667.197-.408.296-.846.296-1.302,0-.124-.007-.247-.022-.367-.034-.274.162-.523.436-.557.277-.041.524.162.557.436Zm-12.542,3.988c0,.276-.224.5-.5.5h-1.428c-.276,0-.5-.224-.5-.5s.224-.5.5-.5h1.428c.276,0,.5.224.5.5Zm9.972-.252c.072.267-.085.542-.352.613-.339.092-.692.139-1.048.139h-1.072c-.276,0-.5-.224-.5-.5s.224-.5.5-.5h1.072c.268,0,.532-.035.786-.104.268-.073.541.085.613.352Zm.833-6.568c.229.154.29.465.135.694-.097.144-.254.221-.415.221-.096,0-.193-.028-.279-.085-.477-.321-1.034-.497-1.612-.509-.276-.006-.495-.234-.49-.51.006-.276.26-.472.51-.49.77.016,1.514.251,2.15.68Zm-4.66-.18c0,.276-.224.5-.5.5h-2c-.276,0-.5-.224-.5-.5s.224-.5.5-.5h2c.276,0,.5.224.5.5Zm-1.144,7c0,.276-.224.5-.5.5h-2c-.276,0-.5-.224-.5-.5s.224-.5.5-.5h2c.276,0,.5.224.5.5Zm-1.928-12.5c-.567,0-1.101.185-1.545.534-.092.072-.201.107-.309.107-.148,0-.294-.065-.393-.19-.171-.217-.134-.532.083-.702.622-.49,1.371-.749,2.164-.749.276,0,.5.224.5.5s-.224.5-.5.5Z"/>
</svg>
