<svg id="Layer_1" viewBox="0 0 24 24" xmlns="http://www.w3.org/2000/svg" data-name="Layer 1"><path d="m12.485 23.577c.043-.157-.038-.325-.143-.441-.038-.035-2.664-2.544-4.219-6.135h2.378c.276 0 .5-.224.5-.5s-.224-.5-.5-.5h-2.769c-.439-1.247-.731-2.593-.731-4s.292-2.753.731-4h14.51c.204.518.375 1.053.498 1.608.06.269.325.441.597.38.27-.06.439-.327.38-.597-1.207-5.437-6.125-9.383-11.7-9.392-6.621-.009-12.018 5.377-12.017 12 0 6.617 5.383 12 12 12 .244.001.459-.187.485-.423zm-4.363-16.577c1.229-2.839 3.117-4.992 3.878-5.789.768.802 2.665 2.955 3.888 5.789h-7.767zm13.672 0h-4.826c-1.07-2.667-2.71-4.775-3.725-5.92 3.666.424 6.887 2.688 8.551 5.92zm-11.034-5.925c-1.019 1.144-2.664 3.257-3.731 5.925h-4.815c1.645-3.206 4.812-5.504 8.546-5.925zm-8.996 6.925h4.905c-.404 1.248-.669 2.589-.669 4s.265 2.752.669 4h-4.905c-.487-1.242-.764-2.588-.764-4s.277-2.758.764-4zm.45 9h4.815c1.067 2.669 2.712 4.781 3.731 5.925-3.734-.421-6.901-2.719-8.546-5.925zm19.786-1.649v-1.851c0-1.93-1.57-3.5-3.5-3.5s-3.5 1.57-3.5 3.5v1.851c-1.178.564-2 1.758-2 3.149v2c0 1.93 1.57 3.5 3.5 3.5h4c1.93 0 3.5-1.57 3.5-3.5v-2c0-1.391-.822-2.585-2-3.149zm-6-1.851c0-1.378 1.121-2.5 2.5-2.5s2.5 1.122 2.5 2.5v1.551c-.165-.024-.329-.051-.5-.051h-4c-.171 0-.335.027-.5.051zm7 7c0 1.378-1.121 2.5-2.5 2.5h-4c-1.379 0-2.5-1.122-2.5-2.5v-2c0-1.378 1.121-2.5 2.5-2.5h4c1.379 0 2.5 1.122 2.5 2.5zm-3.5-1c0 .552-.448 1-1 1s-1-.448-1-1 .448-1 1-1 1 .448 1 1z"/></svg>