<svg id="Layer_1" viewBox="0 0 24 24" xmlns="http://www.w3.org/2000/svg" data-name="Layer 1"><path d="m23.268 12.732c-.943-.944-2.592-.944-3.535 0l-6.707 6.707c-.661.66-1.025 1.539-1.025 2.475v1.586c0 .276.224.5.5.5h1.586c.921 0 1.823-.374 2.475-1.025l6.707-6.707c.975-.975.975-2.561 0-3.535zm-.707 2.828-6.707 6.707c-.465.466-1.11.732-1.768.732h-1.086v-1.086c0-.668.26-1.296.732-1.768l6.707-6.707c.566-.566 1.555-.566 2.121 0 .585.585.585 1.536 0 2.121zm-10.561 1.439c-.276 0-.5-.224-.5-.5v-4.306c0-.603-.405-1.139-.985-1.305l-2.943-.841c-.758-.243-1.594.392-1.572 1.186v5.382c0 .741.497 1.4 1.208 1.604l2.929.837c.266.075.419.353.344.618-.075.268-.36.419-.618.343l-2.929-.837c-1.139-.325-1.934-1.38-1.934-2.564v-5.382c-.041-1.439 1.475-2.583 2.847-2.147l2.943.841c.491.141.91.434 1.21.819.3-.385.719-.679 1.209-.819l2.944-.841c1.263-.392 2.682.536 2.827 1.847.037.274-.156.525-.429.562-.273.034-.525-.156-.562-.429-.081-.721-.864-1.237-1.561-1.018l-2.943.841c-.58.166-.984.702-.984 1.305v4.306c0 .276-.224.5-.5.5zm-2 6.5c0 .276-.224.5-.5.5h-5c-2.481 0-4.5-2.019-4.5-4.5v-9.123c0-1.393.629-2.684 1.725-3.542l7.5-5.876c1.635-1.28 3.917-1.28 5.55 0l7.5 5.876c.968.759 1.589 1.896 1.705 3.12.026.275-.176.519-.451.544-.283.034-.519-.176-.544-.451-.09-.952-.573-1.836-1.327-2.426l-7.5-5.876c-1.271-.995-3.045-.994-4.317 0l-7.499 5.876c-.853.668-1.342 1.672-1.342 2.755v9.124c0 1.93 1.57 3.5 3.5 3.5h5c.276 0 .5.224.5.5z"/></svg>