<svg id="Layer_1" viewBox="0 0 24 24" xmlns="http://www.w3.org/2000/svg" data-name="Layer 1"><path d="m11.446 10 .055.161c.089.262.374.402.634.313.261-.089.401-.373.313-.634l-2.616-7.713c-.426-1.292-1.534-2.126-2.821-2.126s-2.396.835-2.821 2.123l-4.144 12.215c-.088.262.052.545.313.634.255.088.546-.049.634-.313l1.58-4.661h8.873zm-6.308-7.56c.351-1.062 1.197-1.44 1.873-1.44s1.521.378 1.873 1.444l2.224 6.556h-8.195zm15.74 9.009c.074-.252.124-.512.122-.782-.006-.727-.297-1.405-.819-1.911-1.047-1.014-2.737-.998-3.769.03l-5.226 5.219c-.619.035-1.222.316-1.649.829-.328.394-.496.865-.525 1.342l-1.693 1.691c-.851.851-1.32 1.981-1.32 3.184v.95c0 .551.449 1 1 1h.948c1.187 0 2.348-.482 3.186-1.322l1.352-1.355.263.22c.795.667 1.251 1.644 1.251 2.681v.276c0 .276.224.5.5.5s.5-.224.5-.5v-.276c0-1.334-.586-2.591-1.608-3.448l-2.917-2.447c-.558-.465-.634-1.297-.168-1.855.465-.558 1.297-.633 1.857-.167l2.519 2.079c.198.163.487.151.668-.029l4.862-4.768c.078-.078.14-.167.207-.252 1.593.864 2.58 2.5 2.58 4.322v6.841c0 .276.224.5.5.5s.5-.224.5-.5v-6.841c0-2.199-1.195-4.174-3.122-5.21zm-9.161 8.229-1.291 1.294c-.652.653-1.555 1.028-2.478 1.028h-.948v-.95c0-.936.365-1.815 1.027-2.477l1.221-1.219c.138.277.332.532.585.742l1.885 1.581zm7.792-7.799-4.538 4.45-2.17-1.792c-.139-.115-.287-.212-.441-.29l4.76-4.753c.647-.648 1.709-.656 2.366-.019.328.317.511.743.515 1.2.003.456-.172.885-.491 1.204z"/></svg>