<svg id="Layer_1" viewBox="0 0 24 24" xmlns="http://www.w3.org/2000/svg" data-name="Layer 1"><path d="m18 3.762v-3.262c0-.276-.224-.5-.5-.5s-.5.224-.5.5v2.776c-.471-.168-.971-.276-1.5-.276h-7c-.529 0-1.029.108-1.5.276v-2.776c0-.276-.224-.5-.5-.5s-.5.224-.5.5v3.262c-1.205.808-2 2.182-2 3.738v9c0 1.557.795 2.93 2 3.738v3.262c0 .276.224.5.5.5s.5-.224.5-.5v-2.776c.471.168.971.276 1.5.276h7c.529 0 1.029-.108 1.5-.276v2.776c0 .276.224.5.5.5s.5-.224.5-.5v-3.262c1.205-.808 2-2.182 2-3.738v-9c0-1.557-.795-2.93-2-3.738zm1 12.738c0 1.93-1.57 3.5-3.5 3.5h-7c-1.93 0-3.5-1.57-3.5-3.5v-9c0-1.93 1.57-3.5 3.5-3.5h7c1.93 0 3.5 1.57 3.5 3.5zm-2.441-10.047c-.604-.604-1.585-.602-2.232.049l-.874 1.145c-.603.604-.603 1.585-.037 2.146l.595.748c-.729 1.654-1.867 2.795-3.466 3.474l-.732-.583c-.605-.581-1.57-.576-2.118-.021l-1.243.96c-.603.604-.603 1.585-.023 2.163l.502.575c.574.575 1.351.892 2.188.892 3.818 0 8.881-5.062 8.881-8.881 0-.837-.317-1.614-.917-2.21l-.525-.456zm-7.439 10.547c-.569 0-1.095-.213-1.457-.573l-.502-.575c-.213-.214-.213-.561-.049-.731l1.242-.96c.104-.104.241-.16.387-.16s.284.057.387.16c.013.014 1.022.818 1.022.818.138.109.325.138.49.075 2.07-.79 3.554-2.271 4.411-4.405.067-.167.04-.357-.073-.498l-.817-1.022c-.213-.214-.213-.561.042-.823l.874-1.145c.213-.215.561-.215.8.023l.525.457c.386.384.598.909.598 1.479 0 3.479-4.886 7.881-7.881 7.881z"/></svg>