<?xml version="1.0" encoding="UTF-8"?>
<svg xmlns="http://www.w3.org/2000/svg" id="Layer_1" data-name="Layer 1" viewBox="0 0 24 24">
  <path d="M12,12c3.309,0,6-2.691,6-6S15.309,0,12,0,6,2.691,6,6s2.691,6,6,6Zm0-11c2.757,0,5,2.243,5,5s-2.243,5-5,5-5-2.243-5-5S9.243,1,12,1Z"/>
  <path d="M11,19.379v-1.879c0-.276-.224-.5-.5-.5s-.5,.224-.5,.5v1.879c0,.526,.214,1.042,.586,1.414l.471,.471-2.736,2.736h1.414l2.029-2.029,2.029,2.029h1.414l-3.914-3.914c-.187-.187-.293-.444-.293-.707Z"/>
  <path d="M22.752,20.489c-1.692-3.76-6.214-6.489-10.752-6.489S2.94,16.729,1.248,20.489c-.539,1.197-.164,2.634,.891,3.415l.129,.096h1.68l-1.213-.898c-.681-.504-.922-1.43-.574-2.202,1.538-3.418,5.677-5.899,9.84-5.899s8.302,2.481,9.84,5.899c.348,.772,.106,1.698-.574,2.202l-1.213,.898h1.68l.129-.096c1.055-.781,1.43-2.218,.891-3.415Z"/>
  <path d="M16.5,18c-1.379,0-2.5,1.121-2.5,2.5s1.121,2.5,2.5,2.5,2.5-1.121,2.5-2.5-1.121-2.5-2.5-2.5Zm0,4c-.827,0-1.5-.673-1.5-1.5s.673-1.5,1.5-1.5,1.5,.673,1.5,1.5-.673,1.5-1.5,1.5Z"/>
</svg>
