<svg id="Layer_1" viewBox="0 0 24 24" xmlns="http://www.w3.org/2000/svg" data-name="Layer 1"><path d="m8.988 10.563 2 1.173c.312.183.662.275 1.012.275s.7-.092 1.012-.275l2-1.173c.61-.357.988-1.019.988-1.725v-2.653c0-.707-.379-1.368-.988-1.725l-2-1.173c-.624-.367-1.4-.367-2.024 0l-2 1.173c-.61.357-.989 1.018-.989 1.725v2.653c0 .707.378 1.368.988 1.725zm5.518-.862-2 1.173c-.312.183-.699.183-1.012 0l-2-1.173c-.305-.179-.494-.509-.494-.863v-2.292l2.027 1.19c.3.176.637.264.973.264s.673-.088.973-.264l2.027-1.19v2.292c0 .354-.189.684-.494.863zm-5.012-4.378 2-1.173c.156-.092.331-.138.505-.138s.35.046.506.138l2 1.174c.095.055.173.129.244.21l-2.283 1.34c-.288.168-.645.169-.934 0l-2.283-1.34c.07-.081.149-.155.244-.211zm.506 15.177c0-.276.224-.5.5-.5h3c.276 0 .5.224.5.5s-.224.5-.5.5h-3c-.276 0-.5-.224-.5-.5zm12.951-14.341-2.951-1.485v-.174c0-2.481-2.019-4.5-4.5-4.5h-7c-2.481 0-4.5 2.019-4.5 4.5v.195l-2.909 1.464c-.63.317-1.031.953-1.048 1.661s.354 1.364.97 1.71l2.987 1.683v8.286c0 2.481 2.019 4.5 4.5 4.5h7c2.481 0 4.5-2.019 4.5-4.5v-8.261l3.03-1.708c.615-.347.986-1.001.97-1.709s-.418-1.345-1.049-1.662zm-14.451-5.159h7c1.93 0 3.5 1.57 3.5 3.5v6.154l-5.029 2.835c-1.202.677-2.695.677-3.897 0l-5.073-2.859c0-.349 0-5.909 0-6.129 0-1.93 1.57-3.5 3.5-3.5zm-6.996 7.659c-.297-.167-.47-.472-.461-.816.008-.342.194-.638.498-.791l2.459-1.238v4.251l-2.496-1.407zm17.496 10.841c0 1.93-1.57 3.5-3.5 3.5h-7c-1.93 0-3.5-1.57-3.5-3.5v-1.5h14zm0-2.5h-14v-5.223l4.582 2.582c.752.424 1.596.636 2.44.636s1.688-.212 2.44-.636l4.538-2.558v5.198zm3.539-8.341-2.539 1.431v-4.296l2.501 1.259c.304.153.49.449.499.792.008.343-.165.647-.461.815z"/></svg>