<svg id="Layer_1" viewBox="0 0 24 24" xmlns="http://www.w3.org/2000/svg" data-name="Layer 1"><path d="m10 5.5v-5c0-.276.224-.5.5-.5s.5.224.5.5v5c0 .276-.224.5-.5.5s-.5-.224-.5-.5zm-4.5.5c.276 0 .5-.224.5-.5v-5c0-.276-.224-.5-.5-.5s-.5.224-.5.5v5c0 .276.224.5.5.5zm9.999 0c.276 0 .5-.224.5-.5v-5c0-.276-.224-.5-.5-.5s-.5.224-.5.5v5c0 .276.224.5.5.5zm7.798 4.4c.666.886.87 2.003.561 3.064-.704 2.421-1.659 5.018-3.866 7.608-1.584 1.86-3.923 2.927-6.417 2.927h-3.125c-2.482 0-4.801-1.044-6.362-2.864-2.286-2.668-3.249-5.265-3.948-7.672-.308-1.061-.103-2.177.561-3.062.669-.89 1.689-1.4 2.801-1.4h14.038l5.572-6.816c.175-.215.49-.246.703-.07.214.175.245.489.07.703l-5.055 6.184h1.667c1.111 0 2.133.511 2.8 1.4zm-.799.601c-.478-.637-1.207-1.001-2.001-1.001h-16.995c-.794 0-1.523.365-2.001 1.001-.474.632-.62 1.427-.4 2.183.668 2.3 1.584 4.776 3.749 7.302 1.37 1.598 3.412 2.515 5.602 2.515h3.125c2.2 0 4.261-.938 5.655-2.575 1.969-2.312 2.89-4.565 3.667-7.239.221-.757.074-1.553-.399-2.185z"/></svg>