<?xml version="1.0" encoding="UTF-8"?>
<svg xmlns="http://www.w3.org/2000/svg" id="Layer_1" data-name="Layer 1" viewBox="0 0 24 24">
  <path d="m20.5,23h-1.5v-2.174c0-.916-.372-1.812-1.02-2.458-1.973-1.964-2.89-4.569-2.966-8.368h1.485c.276,0,.5-.224.5-.5s-.224-.5-.5-.5h-1.84c.816-.708,1.34-1.724,1.34-2.864,0-1.339-1.234-3.81-2.111-5.136-.414-.626-1.12-1-1.889-1s-1.476.374-1.889,1c-.877,1.326-2.111,3.797-2.111,5.136,0,1.141.524,2.156,1.34,2.864h-1.84c-.276,0-.5.224-.5.5s.224.5.5.5h1.485c-.075,3.799-.992,6.404-2.966,8.368-.647.646-1.019,1.542-1.019,2.458v2.174h-1.5c-.276,0-.5.224-.5.5s.224.5.5.5h17c.276,0,.5-.224.5-.5s-.224-.5-.5-.5ZM9,6.136c0-.967,1.025-3.192,1.946-4.585.228-.345.622-.551,1.054-.551s.827.206,1.055.551c.92,1.393,1.945,3.618,1.945,4.585,0,1.579-1.346,2.864-3,2.864s-3-1.285-3-2.864Zm5.015,3.864c.077,4.041,1.067,6.845,3.19,9H6.794c2.124-2.155,3.114-4.959,3.191-9h4.03Zm-8.015,13v-2.174c0-.284.058-.562.153-.826h11.694c.094.265.153.543.153.826v2.174H6Z"/>
</svg>
