<svg id="Layer_1" viewBox="0 0 24 24" xmlns="http://www.w3.org/2000/svg" data-name="Layer 1"><path d="m20.5 5h-5.5c-1.28 0-2.39.698-3 1.726-.61-1.028-1.72-1.726-3-1.726h-5.5c-1.93 0-3.5 1.57-3.5 3.5v3c0 1.93 1.57 3.5 3.5 3.5h2.5v3h-2.5c-.276 0-.5.224-.5.5s.224.5.5.5h6c.276 0 .5-.224.5-.5s-.224-.5-.5-.5h-2.5v-3h2c1.28 0 2.39-.698 3-1.726.61 1.028 1.72 1.726 3 1.726h2v3h-2.5c-.276 0-.5.224-.5.5s.224.5.5.5h6c.276 0 .5-.224.5-.5s-.224-.5-.5-.5h-2.5v-3h2.5c1.93 0 3.5-1.57 3.5-3.5v-3c0-1.93-1.57-3.5-3.5-3.5zm-11.5 9h-5.5c-1.378 0-2.5-1.122-2.5-2.5v-3c0-1.378 1.122-2.5 2.5-2.5h5.5c1.378 0 2.5 1.122 2.5 2.5v3c0 1.378-1.122 2.5-2.5 2.5zm14-2.5c0 1.378-1.122 2.5-2.5 2.5h-5.5c-1.378 0-2.5-1.122-2.5-2.5v-3c0-1.378 1.122-2.5 2.5-2.5h5.5c1.378 0 2.5 1.122 2.5 2.5z"/></svg>