<?xml version="1.0" encoding="UTF-8"?>
<svg xmlns="http://www.w3.org/2000/svg" id="Layer_1" data-name="Layer 1" viewBox="0 0 24 24">
  <path d="M15.006,6h-4.006V3.849c0-.758-.435-1.41-1.133-1.703-.701-.289-1.469-.143-1.998,.379L.876,9.009c-1.169,1.17-1.166,3.076,.029,4.27l6.968,6.202c.542,.521,1.309,.665,2.003,.37,.693-.295,1.124-.945,1.124-1.699v-2.151h3.021c3.514,0,6.49,2.44,6.924,5.677,.101,.754,.753,1.323,1.516,1.323,.848,0,1.539-.69,1.539-1.538v-6.469c0-4.959-4.035-8.993-8.994-8.993Zm7.994,15.462c0,.297-.242,.538-.539,.538-.265,0-.49-.196-.525-.456-.5-3.73-3.902-6.544-7.915-6.544h-3.521c-.276,0-.5,.224-.5,.5v2.651c0,.351-.192,.642-.515,.778-.322,.14-.665,.073-.932-.183L1.591,12.552c-.784-.784-.787-2.057-.021-2.823L8.56,3.247c.25-.248,.594-.315,.92-.179,.325,.136,.52,.428,.52,.78v2.651c0,.276,.224,.5,.5,.5h4.506c4.408,0,7.994,3.586,7.994,7.993v6.469Z"/>
</svg>
