<?xml version="1.0" encoding="UTF-8"?>
<svg xmlns="http://www.w3.org/2000/svg" id="Layer_1" data-name="Layer 1" viewBox="0 0 24 24">
  <path d="M17.649,8.567l-.649-.68v-1.387c0-1.378-1.122-2.5-2.5-2.5h-.766c.159-.822,.266-1.607,.266-2,0-1.103-.897-2-2-2s-2,.897-2,2c0,.393,.107,1.178,.266,2h-.766c-1.378,0-2.5,1.122-2.5,2.5v1.335l-.699,.746c-1.484,1.582-2.301,3.647-2.301,5.815v5.104c0,2.481,2.019,4.5,4.5,4.5h7c2.481,0,4.5-2.019,4.5-4.5v-5.064c0-2.196-.835-4.28-2.351-5.869ZM11,2c0-.551,.449-1,1-1s1,.449,1,1c0,.316-.105,1.113-.285,2h-1.431c-.18-.887-.285-1.684-.285-2Zm-1.5,3h5c.827,0,1.5,.673,1.5,1.5v.5H8v-.5c0-.827,.673-1.5,1.5-1.5Zm9.5,14.5c0,1.93-1.57,3.5-3.5,3.5h-7c-1.391,0-2.585-.822-3.149-2h3.149c.276,0,.5-.224,.5-.5s-.224-.5-.5-.5h-3.449c-.024-.165-.051-.329-.051-.5v-1.5h3.5c.276,0,.5-.224,.5-.5s-.224-.5-.5-.5h-3.5v-2h3.5c.276,0,.5-.224,.5-.5s-.224-.5-.5-.5h-3.481c.093-1.767,.793-3.436,2.012-4.735l1.187-1.265h7.509l1.2,1.257c1.337,1.402,2.074,3.241,2.074,5.178v5.064Z"/>
</svg>
