<svg id="Layer_1" viewBox="0 0 24 24" xmlns="http://www.w3.org/2000/svg" data-name="Layer 1"><path d="m22.5 5h-11.848c1.417-.996 2.348-2.64 2.348-4.5 0-.276-.224-.5-.5-.5s-.5.224-.5.5c0 2.481-2.019 4.5-4.5 4.5h-6c-.276 0-.5.224-.5.5s.224.5.5.5h1.071l1.656 14.027c.268 2.265 2.188 3.973 4.469 3.973h6.371c2.28 0 4.202-1.708 4.469-3.973l1.656-14.027h1.309c.276 0 .5-.224.5-.5s-.224-.5-.5-.5zm-18.332 6h6.832c1.103 0 2 .897 2 2v2c0 1.103-.897 2-2 2h-6.124zm14.374 8.91c-.208 1.762-1.702 3.09-3.476 3.09h-6.371c-1.773 0-3.268-1.328-3.476-3.09l-.225-1.91h6.006c1.654 0 3-1.346 3-3v-2c0-1.654-1.346-3-3-3h-6.95l-.472-4h16.606z"/></svg>