<?xml version="1.0" encoding="UTF-8"?>
<svg xmlns="http://www.w3.org/2000/svg" id="Layer_1" data-name="Layer 1" viewBox="0 0 24 24">
  <path d="M14,5.5c0,.276-.224,.5-.5,.5h-1.5v5.5c0,.276-.224,.5-.5,.5s-.5-.224-.5-.5V6h-1.5c-.276,0-.5-.224-.5-.5s.224-.5,.5-.5h4c.276,0,.5,.224,.5,.5Zm-7.5-.5c-.276,0-.5,.224-.5,.5v6c0,.276,.224,.5,.5,.5s.5-.224,.5-.5V5.5c0-.276-.224-.5-.5-.5Zm17.5,3.5v13.855c.041,1.276-1.523,2.113-2.562,1.371l-4.089-2.726h-6.849c-2.182,0-4.003-1.561-4.412-3.625l-3.526,2.351c-1.04,.742-2.603-.096-2.562-1.371V4.5C0,2.019,2.019,0,4.5,0H14.5c2.31,0,4.197,1.756,4.449,4h.551c2.481,0,4.5,2.019,4.5,4.5ZM6.5,16H14.5c1.93,0,3.5-1.57,3.5-3.5V4.5c0-1.93-1.57-3.5-3.5-3.5H4.5c-1.93,0-3.5,1.57-3.5,3.5v13.855c-.018,.502,.599,.834,1.007,.539l4.215-2.81c.088-.034,.172-.088,.277-.084Zm16.5-7.5c0-1.93-1.57-3.5-3.5-3.5h-.5v7.5c0,2.481-2.019,4.5-4.5,4.5H7.051c.245,1.692,1.691,3,3.449,3h7c.099,0,.195,.029,.277,.084l4.215,2.81c.407,.293,1.026-.037,1.007-.539V8.5Z"/>
</svg>
