<?xml version="1.0" encoding="UTF-8"?>
<svg xmlns="http://www.w3.org/2000/svg" id="Layer_1" data-name="Layer 1" viewBox="0 0 24 24">
  <path d="M19.5,0H4.5C2.019,0,0,2.019,0,4.5v1c0,.815,.397,1.532,1.002,1.989,0,.004-.002,.007-.002,.011v12c0,2.481,2.019,4.5,4.5,4.5h13c2.481,0,4.5-2.019,4.5-4.5V7.5s-.002-.007-.002-.011c.605-.457,1.002-1.175,1.002-1.989v-1c0-2.481-2.019-4.5-4.5-4.5Zm2.5,19.5c0,1.93-1.57,3.5-3.5,3.5H5.5c-1.93,0-3.5-1.57-3.5-3.5V7.949c.162,.033,.329,.051,.5,.051H21.5c.171,0,.338-.018,.5-.051v11.551Zm1-14c0,.827-.673,1.5-1.5,1.5H2.5c-.827,0-1.5-.673-1.5-1.5v-1c0-1.93,1.57-3.5,3.5-3.5h15c1.93,0,3.5,1.57,3.5,3.5v1Zm-7,7c0,.276-.224,.5-.5,.5h-7c-.276,0-.5-.224-.5-.5s.224-.5,.5-.5h7c.276,0,.5,.224,.5,.5Z"/>
</svg>
