<svg id="Layer_1" viewBox="0 0 24 24" xmlns="http://www.w3.org/2000/svg" data-name="Layer 1"><path d="m15.995 19.939c0 .008.005.016.005.024v3.537c0 .276-.224.5-.5.5s-.5-.224-.5-.5v-2.767c-.48.17-.986.267-1.5.267h-7c-.529 0-1.029-.108-1.5-.276v2.776c0 .276-.224.5-.5.5s-.5-.224-.5-.5v-3.262c-1.205-.808-2-2.182-2-3.738v-9c0-1.557.795-2.93 2-3.738v-3.262c0-.276.224-.5.5-.5s.5.224.5.5v2.776c.471-.168.971-.276 1.5-.276h7c.519 0 1.022.1 1.5.269v-2.769c0-.276.224-.5.5-.5s.5.224.5.5v3.269c.2.134.395.277.574.444.202.188.212.505.023.707-.19.201-.506.211-.707.023-.65-.608-1.499-.943-2.39-.943h-7c-1.93 0-3.5 1.57-3.5 3.5v9c0 1.93 1.57 3.5 3.5 3.5h7c.616 0 1.221-.162 1.751-.469.313-.175.73.043.744.407zm5.55-4.752c-.415.518-1.043.813-1.724.813h-.605c-.128 1.119-1.069 1.994-2.221 1.994s-2.094-.875-2.221-1.994h-.6c-.68 0-1.308-.296-1.723-.812-.39-.484-.538-1.107-.406-1.708.196-.891.428-1.656.629-2.551.554-2.46 2.171-3.929 4.326-3.929 2.168 0 3.786 1.47 4.326 3.931.198.903.427 1.658.624 2.547.133.601-.015 1.224-.404 1.709zm-3.354.813h-2.392c.121.562.598.994 1.196.994s1.075-.432 1.196-.994zm2.782-2.308c-.197-.887-.426-1.643-.624-2.547-.208-.946-.95-3.146-3.35-3.146-2.384 0-3.137 2.201-3.35 3.147-.2.895-.432 1.658-.628 2.547-.067.308.006.616.208.867.224.278.568.438.943.438h5.648c.375 0 .72-.16.944-.439.202-.251.276-.56.208-.868z"/></svg>