<?xml version="1.0" encoding="UTF-8"?>
<svg xmlns="http://www.w3.org/2000/svg" id="Layer_1" data-name="Layer 1" viewBox="0 0 24 24">
  <path d="M21,9.5c-1.378,0-2.5,1.122-2.5,2.5s1.122,2.5,2.5,2.5,2.5-1.121,2.5-2.5-1.122-2.5-2.5-2.5Zm0,4c-.827,0-1.5-.673-1.5-1.5s.673-1.5,1.5-1.5,1.5,.673,1.5,1.5-.673,1.5-1.5,1.5Zm-6-4c-1.378,0-2.5,1.122-2.5,2.5s1.122,2.5,2.5,2.5,2.5-1.121,2.5-2.5-1.122-2.5-2.5-2.5Zm0,4c-.827,0-1.5-.673-1.5-1.5s.673-1.5,1.5-1.5,1.5,.673,1.5,1.5-.673,1.5-1.5,1.5Zm-3.5-1.5c0,1.378-1.122,2.5-2.5,2.5s-2.5-1.122-2.5-2.5,1.122-2.5,2.5-2.5,2.5,1.122,2.5,2.5Zm-6,0c0,1.378-1.122,2.5-2.5,2.5s-2.5-1.122-2.5-2.5,1.122-2.5,2.5-2.5,2.5,1.122,2.5,2.5Z"/>
</svg>
