<?xml version="1.0" encoding="UTF-8"?>
<svg xmlns="http://www.w3.org/2000/svg" id="Layer_1" data-name="Layer 1" viewBox="0 0 24 24">
  <path d="M21.5,6h-3.5c0-3.309-2.691-6-6-6S6,2.691,6,6H2.5c-1.378,0-2.5,1.122-2.5,2.5v11c0,2.481,2.019,4.5,4.5,4.5H13.5c.276,0,.5-.224,.5-.5s-.224-.5-.5-.5H4.5c-1.93,0-3.5-1.57-3.5-3.5V8.5c0-.827,.673-1.5,1.5-1.5h3.5v2.5c0,.276,.224,.5,.5,.5s.5-.224,.5-.5v-2.5h10v2.5c0,.276,.224,.5,.5,.5s.5-.224,.5-.5v-2.5h3.5c.827,0,1.5,.673,1.5,1.5v7c0,.276,.224,.5,.5,.5s.5-.224,.5-.5v-7c0-1.378-1.122-2.5-2.5-2.5Zm-14.5,0c0-2.757,2.243-5,5-5s5,2.243,5,5H7Zm17,13.5c0,.276-.224,.5-.5,.5h-7c-.276,0-.5-.224-.5-.5s.224-.5,.5-.5h7c.276,0,.5,.224,.5,.5Z"/>
</svg>
