<svg id="Layer_1" viewBox="0 0 24 24" xmlns="http://www.w3.org/2000/svg" data-name="Layer 1"><path d="m10.5 5.534v3.966c0 .276-.224.5-.5.5h-3.5c-.5 0-.5-.5-.5-.5 0-2.286 1.705-4.174 3.913-4.462.308-.04.587.185.587.496zm9.5 4.966v5.5c0 4.418-3.582 8-8 8s-8-3.582-8-8v-6.5c0-3.59 2.91-6.5 6.5-6.5h1v-2.5c0-.276.224-.5.5-.5s.5.224.5.5v2.5h1c3.584 0 6.5 2.916 6.5 7.5zm-15 .5h6.5v-7h-1c-3.033 0-5.5 2.468-5.5 5.5zm14 1h-14v4c0 1.91.755 3.694 2.126 5.024 1.37 1.329 3.179 2.017 5.089 1.972 3.741-.112 6.785-3.392 6.785-7.311v-3.686zm0-2.5c0-3.032-2.467-5.5-5.5-5.5h-1v7h6.5z"/></svg>