<svg id="Layer_1" viewBox="0 0 24 24" xmlns="http://www.w3.org/2000/svg" data-name="Layer 1"><path d="m20 19.293c.616-.77 1-1.733 1-2.793 0-2.481-2.019-4.5-4.5-4.5s-4.5 2.019-4.5 4.5 2.019 4.5 4.5 4.5c1.06 0 2.023-.384 2.793-1l3.853 3.853c.195.195.512.195.707 0s.195-.512 0-.707zm-3.5.707c-1.93 0-3.5-1.57-3.5-3.5s1.57-3.5 3.5-3.5 3.5 1.57 3.5 3.5-1.57 3.5-3.5 3.5zm5.499-11.649v-1.813c0-1.943-1.238-3.66-3.083-4.271l-6.759-2.241c-.102-.034-.213-.034-.314 0l-6.759 2.241c-1.845.611-3.084 2.328-3.084 4.271v1.814c-1.179.564-2 1.758-2 3.148v3c0 1.93 1.57 3.5 3.5 3.5h.664c2.292 3.073 5.782 5.032 7.187 5.735.393.291.862.31 1.276.052.409-.165 1.055-.445 1.806-.845.244-.13.336-.433.206-.677-.13-.243-.432-.334-.677-.206-.859.454-1.362.662-1.941.894-1.471-.739-4.264-2.258-6.568-4.952h4.046c.276 0 .5-.224.5-.5s-.224-.5-.5-.5h-5.999c-1.378 0-2.5-1.122-2.5-2.5v-3c0-1.378 1.122-2.5 2.5-2.5h17c1.378 0 2.5 1.122 2.5 2.5v3c0 .287-.048.567-.142.833-.092.26.044.546.304.638.257.092.545-.044.638-.304.132-.374.2-.766.2-1.167v-3c0-1.391-.822-2.586-2.001-3.149zm-18.499-.351c-.171 0-.336.027-.501.051v-1.513c0-1.511.965-2.846 2.399-3.322l6.602-2.189 6.602 2.188c1.435.476 2.398 1.811 2.398 3.322v1.513c-.165-.024-.329-.05-.5-.05z"/></svg>