<svg id="Layer_1" viewBox="0 0 24 24" xmlns="http://www.w3.org/2000/svg" data-name="Layer 1"><path d="m23.916 16.952c-.207-.569-.731-.952-1.306-.952h-2.319l-.827-2.287c-.201-.541-.724-.905-1.302-.905s-1.102.364-1.304.909l-.826 2.283h-2.319c-.563 0-1.1.391-1.305.948-.199.544-.037 1.162.413 1.546l1.848 1.503-.731 2.197c-.175.562.023 1.175.494 1.528.242.182.53.277.833.277.277 0 .544-.081.772-.235l2.136-1.429 2.175 1.417c.492.318 1.137.294 1.605-.065.467-.36.656-.979.468-1.545l-.754-2.153 1.838-1.498c.446-.375.611-.994.411-1.539zm-1.048.769-2.104 1.715c-.164.133-.227.354-.156.553l.867 2.478c.052.156 0 .329-.131.429-.131.104-.314.109-.451.02l-2.45-1.597c-.167-.107-.386-.107-.552.004l-2.411 1.613c-.133.091-.319.083-.449-.012-.132-.1-.188-.272-.141-.422l.838-2.516c.065-.197.002-.415-.159-.546l-2.107-1.714c-.124-.105-.17-.279-.113-.433.061-.167.218-.293.365-.293h2.67c.211 0 .398-.132.47-.33l.944-2.609c.113-.303.617-.299.729-.004l.945 2.613c.071.198.259.33.47.33h2.67c.147 0 .305.126.366.296.057.152.011.325-.108.425zm-10.868-16.721c-3.164 0-5.842 2.112-6.705 5h4.205c.276 0 .5.224.5.5s-.224.5-.5.5h-4.42c-.047.328-.08.66-.08 1v1.5h4.5c.276 0 .5.224.5.5s-.224.5-.5.5h-4.5v1.5c0 .34.04.671.088 1h4.412c.276 0 .5.224.5.5s-.224.5-.5.5h-4.183c.728 2.418 2.716 4.339 5.282 4.859.271.055.445.319.391.59-.054.273-.326.445-.59.391-3.708-.752-6.4-4.05-6.4-7.84v-4c0-4.411 3.588-8 8-8s8 3.589 8 8v2.5c0 .276-.224.5-.5.5s-.5-.224-.5-.5h-4.5c-.276 0-.5-.224-.5-.5s.224-.5.5-.5h4.5v-1.5c0-.34-.033-.672-.08-1h-4.42c-.276 0-.5-.224-.5-.5s.224-.5.5-.5h4.205c-.863-2.888-3.541-5-6.705-5zm0 22.5c0 .276-.224.5-.5.5h-.595c-6.013 0-10.905-4.935-10.905-11 0-.276.224-.5.5-.5s.5.224.5.5c0 5.514 4.443 10 9.905 10h.595c.276 0 .5.224.5.5z"/></svg>