<?xml version="1.0" encoding="UTF-8"?>
<svg xmlns="http://www.w3.org/2000/svg" id="Layer_1" data-name="Layer 1" viewBox="0 0 24 24">
  <path d="M7.5,8c1.378,0,2.5-1.122,2.5-2.5s-1.122-2.5-2.5-2.5-2.5,1.122-2.5,2.5,1.122,2.5,2.5,2.5Zm0-4c.827,0,1.5,.673,1.5,1.5s-.673,1.5-1.5,1.5-1.5-.673-1.5-1.5,.673-1.5,1.5-1.5Zm6.5,9.5c0,.276-.224,.5-.5,.5h-1.946c-.52,0-.995-.264-1.272-.704l-1.555-2.489c-.316-.505-.86-.807-1.457-.807-.823,0-1.531,.582-1.684,1.382-.25,1.308-.541,3.314-.579,5.618h3.004c.013-.838,.052-1.689,.132-2.547,.026-.274,.273-.472,.544-.451,.275,.025,.477,.27,.452,.545-.077,.825-.115,1.646-.128,2.453h3.488c.276,0,.5,.224,.5,.5s-.224,.5-.5,.5H1.729c-.584-.023-.95,.719-.576,1.168l1.287,1.678c1.033,1.35,2.665,2.154,4.365,2.154h4.696c.276,0,.5,.224,.5,.5s-.224,.5-.5,.5H6.804c-2.009,0-3.937-.951-5.159-2.546l-1.287-1.677c-.883-1.072-.018-2.825,1.37-2.777h2.279c.039-2.382,.339-4.455,.597-5.805,.243-1.272,1.364-2.195,2.667-2.195,.943,0,1.805,.478,2.304,1.277l1.555,2.488c.092,.147,.251,.235,.424,.235h1.946c.276,0,.5,.224,.5,.5ZM19,2.1c0-1.276-.981-2.1-2.5-2.1s-2.5,.824-2.5,2.1c0,.836,.668,4.085,2,4.766v10.267c-1.332,.681-2,3.931-2,4.767,0,1.275,.981,2.1,2.5,2.1s2.5-.824,2.5-2.1c0-.836-.668-4.086-2-4.767V6.867c1.332-.681,2-3.93,2-4.766Zm-4,0c0-.957,.939-1.1,1.5-1.1s1.5,.143,1.5,1.1c0,1.349-.981,3.9-1.5,3.9s-1.5-2.551-1.5-3.9Zm3,19.8c0,.957-.939,1.1-1.5,1.1s-1.5-.143-1.5-1.1c0-1.349,.981-3.9,1.5-3.9s1.5,2.552,1.5,3.9Zm5.642-2.124l-1.287,1.679c-.254,.332-.543,.642-.858,.92-.207,.182-.523,.163-.706-.044-.183-.208-.163-.523,.044-.706,.268-.235,.512-.497,.727-.778l1.288-1.679c.373-.449,.007-1.191-.577-1.168h-1.771c-.276,0-.5-.224-.5-.5s.224-.5,.5-.5h1.771c1.387-.048,2.253,1.705,1.37,2.776Z"/>
</svg>
