<?xml version="1.0" encoding="UTF-8"?>
<svg xmlns="http://www.w3.org/2000/svg" id="Layer_1" data-name="Layer 1" viewBox="0 0 24 24">
  <path d="M19.317,16.542l-7.364-4.537,7.416-4.558c.833-.66,.844-1.968-.015-2.649L12.793,.404c-1.036-.945-2.844-.106-2.793,1.295V10.801l-5.238-3.227c-.547-.349-1.082,.52-.524,.852l5.762,3.548v.06l-5.762,3.54c-.558,.331-.024,1.199,.523,.852l5.238-3.22v9.095c-.059,1.37,1.723,2.235,2.748,1.33l6.651-4.436c.82-.683,.8-1.988-.082-2.653ZM11,1.699c-.006-.602,.724-.929,1.192-.498l6.562,4.394c.318,.233,.312,.811,.04,1.037l-7.792,4.787h-.002V1.699Zm7.799,16.698l-6.651,4.436c-.426,.39-1.171,.045-1.147-.532V12.591h0s7.74,4.766,7.74,4.766c.325,.229,.333,.805,.058,1.04Z"/>
</svg>
