<?xml version="1.0" encoding="UTF-8"?>
<svg xmlns="http://www.w3.org/2000/svg" id="Layer_1" data-name="Layer 1" viewBox="0 0 24 24">
  <path d="M19.5,2H4.5C2.019,2,0,4.019,0,6.5v11c0,2.481,2.019,4.5,4.5,4.5h15c2.481,0,4.5-2.019,4.5-4.5V6.5c0-2.481-2.019-4.5-4.5-4.5ZM6,3v3.355L2.597,3.57c.549-.358,1.201-.57,1.903-.57h1.5ZM1.845,4.246l3.366,2.754H1v-.5c0-.862,.326-1.643,.845-2.254Zm21.155,13.254c0,1.93-1.57,3.5-3.5,3.5H4.5c-1.93,0-3.5-1.57-3.5-3.5V8H5.074l-3.887,3.109c-.216,.173-.25,.487-.078,.703,.099,.123,.244,.188,.391,.188,.109,0,.22-.036,.312-.109l4.188-3.35v2.959c0,.276,.224,.5,.5,.5s.5-.224,.5-.5v-3.036l4.184,3.423c.093,.076,.205,.113,.316,.113,.145,0,.288-.062,.387-.184,.175-.214,.144-.528-.07-.703l-3.805-3.113h3.489c.276,0,.5-.224,.5-.5s-.224-.5-.5-.5h-3.574l3.887-3.109c.216-.173,.25-.487,.078-.703-.171-.214-.485-.249-.703-.078l-4.188,3.35V3h12.5c1.93,0,3.5,1.57,3.5,3.5v11Zm-8-6.5c-.552,0-1-.448-1-1s.448-1,1-1,1,.448,1,1-.448,1-1,1Zm3.5,2c0,.552-.448,1-1,1s-1-.448-1-1,.448-1,1-1,1,.448,1,1Zm-10.5,5c0,.552-.448,1-1,1s-1-.448-1-1,.448-1,1-1,1,.448,1,1Zm8.5-1c0,.552-.448,1-1,1s-1-.448-1-1,.448-1,1-1,1,.448,1,1Zm4.5-7c0,.552-.448,1-1,1s-1-.448-1-1,.448-1,1-1,1,.448,1,1Zm-2.5-3c0,.552-.448,1-1,1s-1-.448-1-1,.448-1,1-1,1,.448,1,1Z"/>
</svg>
