<svg id="Layer_1" viewBox="0 0 24 24" xmlns="http://www.w3.org/2000/svg" data-name="Layer 1"><path d="m7 8c.552 0 1 .448 1 1s-.448 1-1 1-1-.448-1-1 .448-1 1-1zm7 0c-.552 0-1 .448-1 1s.448 1 1 1 1-.448 1-1-.448-1-1-1zm-5.5 4.95c0 .389.393 1.052 1.121 1.369.339-.84.807-1.612 1.381-2.294-.157-.016-.323-.026-.502-.026-1.289 0-2 .425-2 .95zm15.5 4.55c0 3.584-2.916 6.5-6.5 6.5s-6.5-2.916-6.5-6.5 2.916-6.5 6.5-6.5 6.5 2.916 6.5 6.5zm-1 0c0-3.032-2.467-5.5-5.5-5.5s-5.5 2.468-5.5 5.5 2.467 5.5 5.5 5.5 5.5-2.468 5.5-5.5zm-2.482.621c.175.383.113.818-.162 1.137l-1.868 1.834c-.264.263-.619.409-.997.409h-.005c-.377-.002-.731-.148-.997-.415l-1.826-1.8c-.302-.35-.363-.785-.187-1.167s.546-.619.966-.619h1.558v-3c0-.276.224-.5.5-.5s.5.224.5.5v3h1.551c.421 0 .792.238.967.621zm-.958.379h-4.119c-.054 0-.081.066-.043.104l1.795 1.771s.002.003.004.004c.077.078.181.121.292.122.112 0 .216-.043.294-.121l1.818-1.776c.039-.038.012-.104-.042-.104zm-9.83 2.302c-4.411-2.282-6.696-4.521-7.836-5.997-.577-.747-.894-1.704-.894-2.694v-1.238c0-.811.219-1.606.634-2.302l.725-1.217c.118-.198.084-.451-.08-.612-.013-.013-1.279-1.277-1.279-2.741 0-1.683 1.245-3 2.833-3 1.16 0 2.026.787 2.451 1.523.127.219.397.311.63.21 2.275-.973 4.896-.973 7.171 0 .233.101.503.009.63-.21.425-.736 1.292-1.523 2.451-1.523 1.589 0 2.833 1.317 2.833 3 0 1.464-1.266 2.729-1.279 2.741-.164.161-.197.414-.08.612l.725 1.218c.118.197.22.403.306.615.103.257.396.379.651.277.256-.104.38-.395.277-.65-.105-.261-.23-.514-.375-.755l-.535-.898c.452-.535 1.31-1.738 1.31-3.16 0-2.243-1.684-4-3.833-4-1.191 0-2.337.625-3.08 1.655-2.294-.869-4.88-.869-7.174 0-.743-1.03-1.889-1.655-3.08-1.655-2.148-.001-3.832 1.756-3.832 3.999 0 1.422.858 2.625 1.31 3.16l-.535.898c-.506.851-.774 1.823-.774 2.813v1.238c0 1.21.392 2.385 1.103 3.306 1.202 1.556 3.595 3.907 8.167 6.274.241.125.546.033.674-.215.127-.245.031-.547-.214-.674z"/></svg>