<?xml version="1.0" encoding="UTF-8"?>
<svg xmlns="http://www.w3.org/2000/svg" id="Layer_1" data-name="Layer 1" viewBox="0 0 24 24">
  <path d="M15,6v-.5c0-.276-.224-.5-.5-.5s-.5,.224-.5,.5v.5H3c-.389,0-.886,.146-1.047,.875-.136,.528-.549,.941-1.111,1.085-.695,.154-.841,.65-.841,1.04v1.473c0,1.125,.382,2.093,1.076,2.725,.294,.269,.38,.815,.22,1.335L.155,17.638c-.625,1.566,.661,3.409,2.347,3.362h.716c1.331,0,2.484-.855,2.871-2.129l.872-2.871h1.22c1.558,0,2.905-1.002,3.353-2.495l.152-.505h2.375c1.077,0,2.03-.687,2.372-1.71l.491-1.478c.052-.154,.078-.313,.078-.475v-1.338c0-1.103-.897-2-2-2ZM5.131,18.581c-.258,.849-1.026,1.419-1.914,1.419h-.716c-1.012,.031-1.787-1.078-1.408-2.018l1.149-3.129c.207-.671,.168-1.333-.089-1.853H6.826l-1.694,5.581Zm5.443-5.363c-.319,1.066-1.282,1.782-2.395,1.782h-.916l.607-2h2.769l-.065,.218Zm3.484-1.218H1.5c-.039,0-.076,.004-.112,.013-.25-.417-.388-.952-.388-1.54l-.03-1.512,.155-.039c.881-.228,1.57-.916,1.796-1.797,.001-.005,.078-.119,.079-.125H15c.552,0,1,.449,1,1v1H3.5c-.276,0-.5,.224-.5,.5s.224,.5,.5,.5H15.806l-.324,.974c-.204,.614-.776,1.026-1.423,1.026Zm9.94-2.475c.022,.398-.222,.816-.622,1.016l-2.012,.671,1.294,1.238c.805,.729,.055,2.139-.983,1.914l-1.039-.118,.328,1.313c.124,.504-.097,1.009-.549,1.258-.444,.246-.991,.176-1.348-.195l-1.458-1.808c-.414-.499,.38-1.138,.779-.627l1.429,1.775c.086,.043,.225-.102,.176-.162l-.503-2.011c-.092-.325,.21-.668,.542-.618l1.791,.205c.176,.03,.21-.157,.138-.209l-1.887-1.805c-.271-.245-.162-.731,.188-.836l2.733-.907s.005-.062,.004-.094l-2.748-1.054c-.344-.11-.445-.59-.178-.832l1.893-1.812c.061-.028,.026-.235-.108-.208l-1.826,.209c-.331,.052-.634-.293-.542-.618l.503-2.012c.046-.068-.101-.232-.205-.127l-1.399,1.742c-.4,.511-1.193-.128-.779-.627l1.429-1.775c.767-.872,2.228-.063,1.926,1.028l-.328,1.314,1.074-.123c.998-.216,1.748,1.208,.954,1.913l-1.314,1.258,1.972,.706c.625,.307,.689,.768,.677,1.018Z"/>
</svg>
