<?xml version="1.0" encoding="UTF-8"?>
<svg xmlns="http://www.w3.org/2000/svg" id="Layer_1" data-name="Layer 1" viewBox="0 0 24 24">
  <path d="m19.964,4.836s-.001-.006-.001-.009c-.003.009-.007.032.001.009Z"/>
  <path d="m21,16.636V5.332c0-1.951-1.256-3.674-3.126-4.286-2.118-.694-4.095-1.046-5.874-1.046s-3.757.352-5.875,1.046c-1.869.613-3.125,2.335-3.125,4.286v11.304c0,1.591.807,3.028,2.127,3.83l-1.094,2.856c-.099.258.03.547.288.646.059.022.119.033.179.033.201,0,.391-.122.467-.321l1.059-2.766c1.676.721,3.682,1.087,5.974,1.087s4.297-.365,5.974-1.087l1.059,2.766c.076.199.266.321.467.321.06,0,.12-.011.179-.033.258-.099.387-.388.288-.646l-1.093-2.855c1.32-.802,2.126-2.239,2.126-3.83ZM6.437,1.997c1.989-.652,3.913-.997,5.563-.997s3.574.345,5.563.997c1.293.423,2.211,1.535,2.401,2.839-.438,4.497-3.332,9.164-7.964,9.164s-7.524-4.675-7.963-9.172c.19-1.304,1.106-2.408,2.399-2.831Zm11.688,17.742c-1.65.837-3.711,1.261-6.124,1.261s-4.474-.424-6.123-1.261c-1.158-.586-1.877-1.775-1.877-3.104v-7.772c1.38,3.413,4.145,6.136,8,6.136s6.62-2.723,8-6.136v7.772c0,1.328-.719,2.517-1.876,3.104Z"/>
  <path d="m9.5,5h5c.276,0,.5-.224.5-.5s-.224-.5-.5-.5h-5c-.276,0-.5.224-.5.5s.224.5.5.5Z"/>
  <circle cx="12" cy="18" r="1"/>
</svg>
