<svg id="Layer_1" viewBox="0 0 24 24" xmlns="http://www.w3.org/2000/svg" data-name="Layer 1"><path d="m19.5 4h-1.551c-.252-2.244-2.139-4-4.449-4h-3c-2.31 0-4.197 1.756-4.449 4h-1.551c-2.481 0-4.5 2.019-4.5 4.5v11c0 2.481 2.019 4.5 4.5 4.5h15c2.481 0 4.5-2.019 4.5-4.5v-11c0-2.481-2.019-4.5-4.5-4.5zm-9-3h3c1.76 0 3.221 1.306 3.464 3h-9.928c.243-1.694 1.704-3 3.464-3zm-6 4h15c1.93 0 3.5 1.57 3.5 3.5v8.5h-22v-8.5c0-1.93 1.57-3.5 3.5-3.5zm15 18h-15c-1.93 0-3.5-1.57-3.5-3.5v-1.5h5v1.5c0 .276.224.5.5.5s.5-.224.5-.5v-1.5h10v1.5c0 .276.224.5.5.5s.5-.224.5-.5v-1.5h5v1.5c0 1.93-1.57 3.5-3.5 3.5zm-10.5-12c0-.276.224-.5.5-.5h2v-2c0-.276.224-.5.5-.5s.5.224.5.5v2h2c.276 0 .5.224.5.5s-.224.5-.5.5h-2v2c0 .276-.224.5-.5.5s-.5-.224-.5-.5v-2h-2c-.276 0-.5-.224-.5-.5z"/></svg>