<svg id="Layer_1" viewBox="0 0 24 24" xmlns="http://www.w3.org/2000/svg" data-name="Layer 1"><path d="m21 0h-1c-1.654 0-3 1.346-3 3v8.764c0 2.682-1.98 4.972-4.507 5.213-1.436.143-2.801-.317-3.855-1.275-1.041-.946-1.638-2.296-1.638-3.701v-9.001c0-1.654-1.346-3-3-3h-1c-1.654 0-3 1.346-3 3v8.62c0 6.826 5.383 12.38 12 12.38 6.729 0 12-5.271 12-11.998v-9.002c0-1.654-1.346-3-3-3zm-1 1h1c1.103 0 2 .897 2 2v2h-5v-2c0-1.103.897-2 2-2zm-17 0h1c1.103 0 2 .897 2 2v2h-5v-2c0-1.103.897-2 2-2zm9 22c-6.065 0-11-5.105-11-11.38v-5.62h5v6c0 1.687.716 3.306 1.965 4.44 1.266 1.151 2.909 1.69 4.623 1.532 3.035-.29 5.413-3.018 5.413-6.209v-5.764h5v6.002c0 6.167-4.832 10.998-11 10.998zm-2.801-15.998h1.635s-.632 1.827-.632 1.827c-.208.55.248 1.188.834 1.17.261 0 .506-.114.672-.312l4.065-4.8c.013-.015.024-.031.036-.047.236-.356.253-.8.046-1.185-.218-.405-.637-.656-1.092-.656h-1.542l.547-1.45c.133-.352.085-.746-.129-1.056s-.566-.494-.943-.494h-1.774c-.625 0-1.18.398-1.379.992l-1.494 4.463c-.111.368-.043.756.186 1.063.229.308.579.483.961.483zm1.295-5.691c.062-.186.235-.311.431-.311h1.774c.153 0 .179.079.136.196l-.802 2.127c-.058.154-.037.326.057.461s.247.216.411.216h2.264c.173 0 .292.188.166.355l-3.575 4.205.655-1.896c.053-.152.028-.321-.065-.453-.094-.132-.246-.21-.407-.21l-2.335.002c-.171 0-.236-.091-.196-.243l1.489-4.448z"/></svg>