<?xml version="1.0" encoding="UTF-8"?>
<svg xmlns="http://www.w3.org/2000/svg" id="Layer_1" data-name="Layer 1" viewBox="0 0 24 24">
  <path d="M17.5,11c-3.584,0-6.5,2.916-6.5,6.5s2.916,6.5,6.5,6.5,6.5-2.916,6.5-6.5-2.916-6.5-6.5-6.5Zm0,12c-3.032,0-5.5-2.467-5.5-5.5s2.468-5.5,5.5-5.5,5.5,2.467,5.5,5.5-2.468,5.5-5.5,5.5Zm3.35-6.857c.192,.199,.187,.515-.012,.707l-2.703,2.614c-.36,.355-.835,.534-1.311,.534s-.95-.177-1.312-.532l-1.364-1.345c-.196-.194-.198-.511-.004-.707,.194-.197,.511-.199,.707-.005l1.362,1.344c.335,.33,.885,.329,1.222-.004l2.707-2.617c.198-.191,.517-.187,.707,.012Zm-6.35-8.143H4.5c-.276,0-.5-.224-.5-.5s.224-.5,.5-.5H14.5c.276,0,.5,.224,.5,.5s-.224,.5-.5,.5Zm-3.5,15.5c0,.276-.224,.5-.5,.5H4c-2.206,0-4-1.794-4-4V6c0-1.858,1.279-3.411,3-3.858V.5c0-.276,.224-.5,.5-.5s.5,.224,.5,.5v1.5h3V.5c0-.276,.224-.5,.5-.5s.5,.224,.5,.5v1.5h3V.5c0-.276,.224-.5,.5-.5s.5,.224,.5,.5v1.5h3V.5c0-.276,.224-.5,.5-.5s.5,.224,.5,.5v1.642c1.721,.447,3,2,3,3.858v2.5c0,.276-.224,.5-.5,.5s-.5-.224-.5-.5v-2.5c0-1.654-1.346-3-3-3H4c-1.654,0-3,1.346-3,3v14c0,1.654,1.346,3,3,3h6.5c.276,0,.5,.224,.5,.5Zm0-11.5H4.5c-.276,0-.5-.224-.5-.5s.224-.5,.5-.5h6.5c.276,0,.5,.224,.5,.5s-.224,.5-.5,.5Zm-2.5,3c.276,0,.5,.224,.5,.5s-.224,.5-.5,.5H4.5c-.276,0-.5-.224-.5-.5s.224-.5,.5-.5h4Z"/>
</svg>
