<?xml version="1.0" encoding="UTF-8"?>
<svg xmlns="http://www.w3.org/2000/svg" id="Layer_1" data-name="Layer 1" viewBox="0 0 24 24">
  <path d="m17.5,0H6.5C4.019,0,2,2.019,2,4.5v16c0,1.93,1.57,3.5,3.5,3.5h12c2.481,0,4.5-2.019,4.5-4.5V4.5c0-2.481-2.019-4.5-4.5-4.5ZM3,4.5c0-1.93,1.57-3.5,3.5-3.5h11c1.93,0,3.5,1.57,3.5,3.5v12.5H5.5c-.98,0-1.864.407-2.5,1.058V4.5Zm14.5,18.5H5.5c-1.378,0-2.5-1.122-2.5-2.5s1.122-2.5,2.5-2.5h15.5v1.5c0,1.93-1.57,3.5-3.5,3.5ZM9,7.5c0-.276.224-.5.5-.5h2.5v-2.5c0-.276.224-.5.5-.5s.5.224.5.5v2.5h2.5c.276,0,.5.224.5.5s-.224.5-.5.5h-2.5v5.5c0,.276-.224.5-.5.5s-.5-.224-.5-.5v-5.5h-2.5c-.276,0-.5-.224-.5-.5Z"/>
</svg>
