<?xml version="1.0" encoding="UTF-8"?>
<svg xmlns="http://www.w3.org/2000/svg" id="Layer_1" data-name="Layer 1" viewBox="0 0 24 24">
  <path d="m20.892,1.188s-.007-.002-.01-.004l-2.839-.944C17.543.074,16.864,0,16.504,0s-.789.06-1.17.163l-5.841,1.697c-.835.223-1.727.147-2.513-.219l-.5-.233c-1.449-.604-3.092-.443-4.396.427C.779,2.707,0,4.163,0,5.731v12.619c0,2.08,1.396,3.931,3.402,4.503l3.448.933c.454.142,1.256.213,1.649.213s.715-.092,1.007-.172l5.618-1.706c.65-.175,1.338-.169,1.977.014l2.401.737c1.092.267,2.226.021,3.107-.674.883-.694,1.39-1.736,1.39-2.859V5.598c0-1.974-1.249-3.747-3.108-4.41ZM3.671,21.891c-1.573-.449-2.671-1.904-2.671-3.54V5.731c0-1.233.612-2.378,1.639-3.063.625-.417,1.328-.627,2.037-.627.472,0,.946.094,1.401.283l.481.225c.458.213.945.349,1.441.406v20.036c-.291-.02-.582-.074-.869-.164l-3.46-.937Zm11.178-.729l-5.62,1.706c-.076.021-.152.039-.229.055V2.962c.256-.025.511-.071.763-.139l5.841-1.697c.131-.035.263-.064.396-.084v19.954c-.386.007-.772.062-1.151.165Zm8.151-1.821c0,.814-.367,1.57-1.008,2.073-.639.502-1.457.684-2.225.496l-2.381-.731c-.128-.037-.257-.067-.387-.093V1.026c.245.03.489.084.727.163l2.834.942c1.459.523,2.439,1.916,2.439,3.466v13.742Z"/>
</svg>
