<svg id="Layer_1" viewBox="0 0 24 24" xmlns="http://www.w3.org/2000/svg" data-name="Layer 1"><path d="m22.5 10h-.819l-.447-5.583c-.167-2.104-1.811-3.83-3.905-4.105-1.579-.207-3.372-.312-5.329-.312s-3.753.105-5.339.312c-2.122.279-3.728 1.962-3.904 4.091l-.467 5.597h-.79c-.827 0-1.5.673-1.5 1.5v.5c0 1.103.897 2 2 2v7.5c0 1.379 1.121 2.5 2.5 2.5s2.5-1.121 2.5-2.5v-.5h10v.5c0 1.379 1.121 2.5 2.5 2.5s2.5-1.121 2.5-2.5v-7.5c1.103 0 2-.897 2-2v-.5c0-.827-.673-1.5-1.5-1.5zm-15.709-8.695c1.543-.202 3.295-.305 5.209-.305s3.662.103 5.198.304c1.631.214 2.909 1.557 3.04 3.193l.68 8.503h-17.875l.71-8.514c.138-1.656 1.388-2.965 3.038-3.182zm-5.791 10.695v-.5c0-.275.225-.5.5-.5h.707l-.167 2h-.04c-.552 0-1-.448-1-1zm5 2v1.5c0 .276.224.5.5.5s.5-.224.5-.5v-1.5h10v1.5c0 .276.224.5.5.5s.5-.224.5-.5v-1.5h2.999v.016s.001 5.984.001 5.984h-18v-6zm0 7.5c0 .827-.673 1.5-1.5 1.5s-1.5-.673-1.5-1.5v-.5h3zm13.5 1.5c-.827 0-1.5-.673-1.5-1.5v-.5h3v.5c0 .827-.673 1.5-1.5 1.5zm3.5-11c0 .552-.448 1-1 1h-.079l-.16-2h.739c.275 0 .5.225.5.5z"/></svg>