<?xml version="1.0" encoding="UTF-8"?>
<svg xmlns="http://www.w3.org/2000/svg" id="Layer_1" data-name="Layer 1" viewBox="0 0 24 24">
  <path d="M4.659,12.974h2.34l-.008,3.526c0,1.915,1.574,3.474,3.509,3.474h2.992c1.935,0,3.508-1.559,3.508-3.474v-3.526h2.345c1.096-.005,2.035-.638,2.451-1.65,.414-1.008,.195-2.112-.57-2.886L14.646,1.069c-1.458-1.457-3.831-1.457-5.311,.021L2.786,8.428c-.775,.775-.998,1.885-.581,2.898s1.357,1.644,2.454,1.647Zm-1.146-3.858L10.062,1.777c1.07-1.067,2.81-1.068,3.857-.022,0,0,6.581,7.373,6.588,7.379,.578,.578,.566,1.313,.363,1.809-.204,.496-.713,1.027-1.528,1.031h-2.843c-.276,0-.5,.224-.5,.5v4.026c0,1.364-1.125,2.474-2.508,2.474h-2.992c-1.384,0-2.509-1.109-2.509-2.473l.009-4.026c0-.133-.052-.26-.146-.354-.094-.094-.221-.147-.354-.147h-2.84c-.817-.003-1.327-.533-1.531-1.028s-.216-1.231,.383-1.83Zm20.488,6.385v4c0,2.481-2.019,4.5-4.5,4.5H4.5c-2.481,0-4.5-2.019-4.5-4.5v-4c0-.276,.224-.5,.5-.5s.5,.224,.5,.5v4c0,1.93,1.57,3.5,3.5,3.5h15c1.93,0,3.5-1.57,3.5-3.5v-4c0-.276,.224-.5,.5-.5s.5,.224,.5,.5Z"/>
</svg>
