<?xml version="1.0" encoding="UTF-8"?>
<svg xmlns="http://www.w3.org/2000/svg" id="Layer_1" data-name="Layer 1" viewBox="0 0 24 24">
  <path d="M19.5,0H4.5C2.019,0,0,2.019,0,4.5v15c0,2.481,2.019,4.5,4.5,4.5H14.015c1.735,0,3.368-.676,4.597-1.904l3.484-3.485c1.228-1.227,1.904-2.859,1.904-4.596V4.5c0-2.481-2.019-4.5-4.5-4.5ZM4.5,23c-1.93,0-3.5-1.57-3.5-3.5V4.5c0-1.93,1.57-3.5,3.5-3.5h15c1.93,0,3.5,1.57,3.5,3.5V14.015c0,.335-.038,.663-.096,.985h-5.404c-1.379,0-2.5,1.122-2.5,2.5v5.404c-.323,.058-.651,.096-.985,.096H4.5Zm16.889-5.096l-3.484,3.485c-.551,.55-1.2,.959-1.904,1.231v-5.12c0-.827,.673-1.5,1.5-1.5h5.121c-.273,.704-.682,1.354-1.232,1.904ZM12,4.5v6c0,.276-.224,.5-.5,.5s-.5-.224-.5-.5V4.5c0-.276,.224-.5,.5-.5s.5,.224,.5,.5Zm-4.684,.117c-.105-.369-.433-.617-.816-.617s-.711,.248-.815,.614l-1.665,5.747c-.076,.265,.076,.542,.342,.62,.262,.076,.542-.077,.619-.341l.185-.639h2.669l.185,.639c.063,.219,.264,.361,.48,.361,.046,0,.093-.006,.139-.02,.266-.077,.418-.354,.342-.62l-1.664-5.744Zm-1.861,4.383l1.045-3.606,1.045,3.606h-2.089Z"/>
</svg>
