<svg id="Layer_1" viewBox="0 0 24 24" xmlns="http://www.w3.org/2000/svg" data-name="Layer 1"><path d="m17 7c0-2.757-2.243-5-5-5s-5 2.243-5 5 2.243 5 5 5 5-2.243 5-5zm-9 0c0-2.206 1.794-4 4-4s4 1.794 4 4c0 2.035-1.532 3.7-3.5 3.949v-3.449h1c.276 0 .5-.224.5-.5s-.224-.5-.5-.5h-3c-.276 0-.5.224-.5.5s.224.5.5.5h1v3.449c-1.968-.249-3.5-1.915-3.5-3.949zm4.5 10.106v-3.132c3.626-.258 6.5-3.284 6.5-6.975 0-3.859-3.14-7-7-7s-7 3.142-7 7.001c0 3.691 2.874 6.716 6.5 6.975v3.132l-4.405 6.1c-.162.224-.111.537.113.698.223.163.535.11.698-.112l3.595-4.978v4.685c0 .276.224.5.5.5s.5-.224.5-.5v-4.685l3.595 4.978c.162.224.477.274.698.112.224-.161.274-.475.113-.698l-4.405-6.1zm-6.5-10.106c0-3.309 2.691-6 6-6s6 2.691 6 6-2.691 6-6 6-6-2.691-6-6z"/></svg>