<?xml version="1.0" encoding="UTF-8"?>
<svg xmlns="http://www.w3.org/2000/svg" id="Layer_1" data-name="Layer 1" viewBox="0 0 24 24">
  <path d="M20.869,1.514c-2.193-.69-5.513-1.514-8.869-1.514S5.324,.823,3.13,1.514C1.258,2.104,0,3.827,0,5.802v11.471c0,.952,.775,1.728,1.728,1.728h2.545c.953,0,1.728-.775,1.728-1.728,0-3.361,2.608-6.174,5.815-6.27,3.4-.177,6.398,2.877,6.185,6.27,0,.952,.775,1.728,1.728,1.728h2.545c.953,0,1.728-.775,1.728-1.728V5.802c0-1.975-1.258-3.698-3.131-4.288Zm2.131,4.288v1.898c-.651-.303-1.695-.757-3-1.208V2.295c.193,.057,.39,.115,.569,.171,1.454,.459,2.431,1.799,2.431,3.335Zm-8-.563V1.213c1.446,.19,2.813,.484,4,.8V6.165c-1.204-.372-2.565-.711-4-.926Zm-1-4.138V5.111c-.659-.069-1.328-.111-2-.111s-1.341,.042-2,.111V1.102c.66-.061,1.329-.102,2-.102s1.34,.041,2,.102ZM5,6.165V2.014c1.187-.316,2.554-.61,4-.8V5.239c-1.435,.216-2.796,.554-4,.926Zm-1.569-3.699c.179-.056,.376-.114,.569-.172V6.492c-1.305,.451-2.349,.905-3,1.208v-1.898c0-1.536,.977-2.876,2.431-3.335Zm18.842,15.533h-2.545c-.401,0-.728-.326-.728-.728,.228-3.94-3.272-7.48-7.215-7.27-3.741,.112-6.785,3.373-6.785,7.27,0,.401-.326,.728-.728,.728H1.728c-.401,0-.728-.326-.728-.728V8.809c1.18-.574,6.092-2.809,11-2.809s9.82,2.235,11,2.809v8.463c0,.401-.326,.728-.728,.728Zm1.607,4.407c.18,.21,.156,.525-.054,.705-.666,.572-1.524,.888-2.417,.888-1.24,0-2.434-.594-3.137-1.494-.703,.9-1.896,1.494-3.136,1.494s-2.434-.594-3.136-1.494c-.703,.9-1.897,1.494-3.136,1.494s-2.434-.594-3.136-1.494c-.703,.9-1.897,1.494-3.137,1.494-.893,0-1.75-.315-2.417-.888-.209-.18-.233-.495-.054-.705,.181-.21,.497-.232,.705-.053,.485,.416,1.112,.646,1.765,.646,1.168,0,2.315-.72,2.668-1.674,.072-.196,.259-.326,.469-.326s.396,.131,.469,.327c.352,.953,1.499,1.673,2.667,1.673s2.314-.72,2.667-1.674c.145-.393,.793-.393,.938,0,.353,.954,1.5,1.674,2.667,1.674s2.315-.72,2.667-1.673c.146-.392,.794-.394,.938,0,.353,.954,1.5,1.674,2.668,1.674,.653,0,1.28-.229,1.765-.646,.209-.18,.525-.157,.705,.053Z"/>
</svg>
