<svg id="Layer_1" viewBox="0 0 24 24" xmlns="http://www.w3.org/2000/svg" data-name="Layer 1"><path d="m5 18.5c0 .276-.224.5-.5.5-1.93 0-3.5 1.57-3.5 3.5v1c0 .276-.224.5-.5.5s-.5-.224-.5-.5v-1c0-2.481 2.019-4.5 4.5-4.5.276 0 .5.224.5.5zm2-5c0 1.379-1.122 2.5-2.5 2.5s-2.5-1.121-2.5-2.5 1.122-2.5 2.5-2.5 2.5 1.121 2.5 2.5zm-1 0c0-.827-.673-1.5-1.5-1.5s-1.5.673-1.5 1.5.673 1.5 1.5 1.5 1.5-.673 1.5-1.5zm13.5 4.5c-.276 0-.5.224-.5.5s.224.5.5.5c1.93 0 3.5 1.57 3.5 3.5v1c0 .276.224.5.5.5s.5-.224.5-.5v-1c0-2.481-2.019-4.5-4.5-4.5zm0-2c-1.379 0-2.5-1.121-2.5-2.5s1.121-2.5 2.5-2.5 2.5 1.121 2.5 2.5-1.121 2.5-2.5 2.5zm0-1c.827 0 1.5-.673 1.5-1.5s-.673-1.5-1.5-1.5-1.5.673-1.5 1.5.673 1.5 1.5 1.5zm-10.5-5c0-1.654 1.346-3 3-3s3 1.346 3 3-1.346 3-3 3-3-1.346-3-3zm1 0c0 1.103.897 2 2 2s2-.897 2-2-.897-2-2-2-2 .897-2 2zm2 5c-2.757 0-5 2.243-5 5v3.5c0 .276.224.5.5.5s.5-.224.5-.5v-3.5c0-2.206 1.794-4 4-4s4 1.794 4 4v3.5c0 .276.224.5.5.5s.5-.224.5-.5v-3.5c0-2.757-2.243-5-5-5zm3.5-10h3.5v3.5c0 .276.224.5.5.5s.5-.224.5-.5v-3.5h3.5c.276 0 .5-.224.5-.5s-.224-.5-.5-.5h-3.5v-3.5c0-.276-.224-.5-.5-.5s-.5.224-.5.5v3.5h-3.5c-.276 0-.5.224-.5.5s.224.5.5.5z"/></svg>