<svg id="Layer_1" viewBox="0 0 24 24" xmlns="http://www.w3.org/2000/svg" data-name="Layer 1"><path d="m19.5 0h-15c-2.481 0-4.5 2.019-4.5 4.5v10c0 2.481 2.019 4.5 4.5 4.5h7v4h-5c-.276 0-.5.224-.5.5s.224.5.5.5h11c.276 0 .5-.224.5-.5s-.224-.5-.5-.5h-5v-4h7c2.481 0 4.5-2.019 4.5-4.5v-10c0-2.481-2.019-4.5-4.5-4.5zm3.5 14.5c0 1.93-1.57 3.5-3.5 3.5h-15c-1.93 0-3.5-1.57-3.5-3.5v-10c0-1.93 1.57-3.5 3.5-3.5h15c1.93 0 3.5 1.57 3.5 3.5zm-4-9c0 .276-.224.5-.5.5h-6.5c-.276 0-.5-.224-.5-.5s.224-.5.5-.5h6.5c.276 0 .5.224.5.5zm-14 0c0-.276.224-.5.5-.5h3.5v-1.5c0-.276.224-.5.5-.5s.5.224.5.5v4c0 .276-.224.5-.5.5s-.5-.224-.5-.5v-1.5h-3.5c-.276 0-.5-.224-.5-.5zm14 4c0 .276-.224.5-.5.5h-2.5v1.5c0 .276-.224.5-.5.5s-.5-.224-.5-.5v-4c0-.276.224-.5.5-.5s.5.224.5.5v1.5h2.5c.276 0 .5.224.5.5zm-14 0c0-.276.224-.5.5-.5h7.5c.276 0 .5.224.5.5s-.224.5-.5.5h-7.5c-.276 0-.5-.224-.5-.5zm14 4c0 .276-.224.5-.5.5h-6.5c-.276 0-.5-.224-.5-.5s.224-.5.5-.5h6.5c.276 0 .5.224.5.5zm-9-2v4c0 .276-.224.5-.5.5s-.5-.224-.5-.5v-1.5h-3.5c-.276 0-.5-.224-.5-.5s.224-.5.5-.5h3.5v-1.5c0-.276.224-.5.5-.5s.5.224.5.5z"/></svg>