<?xml version="1.0" encoding="UTF-8"?>
<svg xmlns="http://www.w3.org/2000/svg" id="Layer_1" data-name="Layer 1" viewBox="0 0 24 24">
  <path d="m21.31,2.69c-3.355-3.355-8.98-3.563-13.001-.561-.796-1.274-2.199-2.13-3.809-2.13C2.019,0,0,2.019,0,4.5c0,2.361,1.833,4.281,4.147,4.464-.325,2.011-.057,4.068.782,5.832.204.43.059.935-.339,1.175l-2.79,1.683c-.96.505-1.604,1.409-1.764,2.482-.16,1.072.189,2.124.959,2.888.638.632,1.482.977,2.365.977.137,0,.274-.008.412-.024,1.028-.125,1.928-.704,2.459-1.574l1.973-3.013c.226-.345.662-.469,1.037-.293,3.826,1.797,8.496.899,11.624-2.229,4.03-4.031,4.229-10.391.443-14.176ZM1,4.5c0-1.93,1.57-3.5,3.5-3.5s3.5,1.57,3.5,3.5-1.57,3.5-3.5,3.5-3.5-1.57-3.5-3.5Zm8.667,13.69c-.813-.382-1.804-.103-2.298.65l-1.981,3.025c-.38.622-1.012,1.028-1.734,1.116-.732.088-1.436-.156-1.953-.67-.541-.536-.786-1.275-.674-2.029s.564-1.39,1.265-1.76l2.815-1.696c.841-.507,1.152-1.564.726-2.461-.778-1.637-1.01-3.56-.668-5.433.269-.04.527-.106.779-.192l9.909,9.909c-2.062.563-4.271.439-6.186-.46Zm10.492-2.031c-.941.941-2.057,1.654-3.252,2.132L6.906,8.289c1.255-.799,2.094-2.195,2.094-3.789,0-.508-.103-.989-.259-1.446,3.638-2.84,8.81-2.708,11.862.343,3.338,3.338,3.135,9.183-.443,12.762Z"/>
</svg>
