<?xml version="1.0" encoding="UTF-8"?>
<svg xmlns="http://www.w3.org/2000/svg" id="Layer_1" data-name="Layer 1" viewBox="0 0 24 24">
  <path d="m21.887,10.114c-.52-.077-1.137-.114-1.887-.114-2.648,0-4.746,2.442-5.444,3.365-.586-.242-1.268-.409-2.068-.388-1.961.044-3.706,1.024-4.87,1.886.202-.826.329-1.771.387-2.863,3.306-.003,5.994-2.693,5.994-6S11.309,0,8,0,2,2.691,2,6c0,.768.15,1.5.415,2.176C.977,11.143.002,14.495,0,16.751c0,1.209.497,2.38,1.367,3.212,1.948,1.862,5.901,4.037,10.633,4.037,4.613,0,8.01-1.196,10.047-2.199,1.205-.593,1.953-1.797,1.953-3.142v-6.074c0-1.232-.909-2.294-2.113-2.472ZM8,1c2.757,0,5,2.243,5,5s-2.243,5-5,5-5-2.243-5-5S5.243,1,8,1Zm15,17.66c0,.961-.534,1.821-1.395,2.244-1.942.957-5.185,2.096-9.605,2.096s-8.128-2.025-9.942-3.76c-.683-.653-1.059-1.537-1.058-2.488.002-1.946.773-4.824,1.98-7.476.898,1.372,2.343,2.351,4.023,2.634-.098,1.88-.396,3.289-.947,4.361-.005.01-.05.19-.05.22,0,.279.171.506.485.506.003,0,.231.002.378-.158.026-.028,2.621-2.795,5.644-2.863,2.308-.053,3.522,1.726,3.573,1.802.153.229.465.288.693.137.229-.153.292-.462.14-.691-.036-.053-.538-.77-1.462-1.382.695-.88,2.474-2.842,4.545-2.842.69,0,1.276.035,1.74.103.719.105,1.26.743,1.26,1.482v6.074Zm-15-10.66c1.103,0,2-.897,2-2s-.897-2-2-2-2,.897-2,2,.897,2,2,2Zm0-3c.551,0,1,.449,1,1s-.449,1-1,1-1-.449-1-1,.449-1,1-1Z"/>
</svg>
