<?xml version="1.0" encoding="UTF-8"?>
<svg xmlns="http://www.w3.org/2000/svg" id="Layer_1" data-name="Layer 1" viewBox="0 0 24 24">
  <path d="m19.616,18.495c3.607-4.274,4.384-8.324,4.384-10.995,0-5.153-3.629-7.5-7-7.5C11.037,0,6,4.579,6,10c0,3.309,2.691,6,6,6s6-2.691,6-6c0-2.55-1.151-5.09-3.158-6.968-.202-.188-.518-.178-.707.023-.188.202-.178.519.023.707,1.806,1.689,2.842,3.963,2.842,6.237,0,2.757-2.243,5-5,5s-5-2.243-5-5C7,5.121,11.579,1,17,1c2.986,0,6,2.01,6,6.5,0,2.49-.728,6.265-4.094,10.285l-.346-.346c-.584-.584-1.537-.584-2.121,0s-.585,1.536,0,2.121l.396.396-3.189,3.189c-.195.195-.195.512,0,.707.098.098.226.146.354.146s.256-.049.354-.146l3.189-3.189.396.396c.292.292.677.438,1.061.438s.769-.146,1.061-.438c.585-.585.585-1.536,0-2.121l-.444-.444Zm-.263,1.858c-.195.195-.512.195-.707,0l-1.5-1.5c-.195-.195-.195-.512,0-.707.098-.098.226-.146.354-.146s.256.049.354.146l1.5,1.5c.195.195.195.512,0,.707Zm-12.189-.396l.396-.396c.585-.585.585-1.536,0-2.121s-1.537-.584-2.121,0l-.346.346C1.728,13.765,1,9.99,1,7.5,1,3.01,4.014,1,7,1c.482,0,.965.031,1.435.094.268.032.525-.156.562-.431.036-.273-.157-.525-.431-.562-.513-.067-1.039-.102-1.565-.102C3.629,0,0,2.347,0,7.5c0,2.671.777,6.721,4.384,10.995l-.444.444c-.585.585-.585,1.536,0,2.121.292.292.677.438,1.061.438s.769-.146,1.061-.438l.396-.396,3.189,3.189c.098.098.226.146.354.146s.256-.049.354-.146c.195-.195.195-.512,0-.707l-3.189-3.189Zm-2.518.396c-.195-.195-.195-.512,0-.707l1.5-1.5c.098-.098.226-.146.354-.146s.256.049.354.146c.195.195.195.512,0,.707l-1.5,1.5c-.195.195-.512.195-.707,0Z"/>
</svg>
