<svg id="Layer_1" viewBox="0 0 24 24" xmlns="http://www.w3.org/2000/svg" data-name="Layer 1"><path d="m23.627 12.285-1.171-1.808c-.563-.87-1.417-1.522-2.401-1.838l-2.401-.772c-.264-.083-.545.06-.629.323-.085.263.06.545.322.629.043.018 2.408.767 2.443.79l-7.793 2.606-7.785-2.603c.04-.026 2.394-.772 2.441-.791.263-.085.407-.367.322-.629s-.367-.406-.629-.323l-2.393.771c-.985.316-1.839.968-2.402 1.838l-1.18 1.822c-.236.393-.367.886-.367 1.384-.012 1.187.868 2.24 2.008 2.524l-.004 2.286c-.004 1.512.958 2.849 2.393 3.327l5.544 1.848c.663.221 1.359.332 2.056.332s1.393-.11 2.056-.332l5.551-1.85c1.43-.476 2.392-1.808 2.394-3.314l.004-2.298c1.136-.286 1.996-1.337 1.996-2.522 0-.684-.127-.991-.373-1.399zm-22.527 1.927c-.171-.435-.099-1.017.121-1.383l1.171-1.808c.183-.282.412-.526.664-.742l8.186 2.737-1.95 3.251c-.372.62-1.176.923-1.87.691l-5.314-1.771c-.469-.156-.836-.511-1.007-.974zm3.617 6.66c-1.024-.342-1.723-1.296-1.72-2.376l.003-1.955 4.104 1.364c.262.088.536.133.814.133.911 0 1.767-.482 2.23-1.258l1.355-2.258-.003 8.438c-.42-.038-.838-.107-1.239-.241l-5.544-1.848zm16.283-2.37c-.002 1.076-.688 2.027-1.71 2.368l-5.551 1.85c-.401.134-.819.203-1.239.241l.003-8.441 1.356 2.26c.464.776 1.319 1.258 2.23 1.258.277 0 .551-.045.813-.133l4.1-1.366-.003 1.963zm1.909-4.292c-.172.464-.539.819-1.009.976l-5.314 1.771c-.693.23-1.498-.071-1.869-.691l-1.952-3.255 8.184-2.737c.254.217.484.463.668.746l1.162 1.794c.23.384.301.951.131 1.396zm-11.274-3.369c.095.101.227.158.365.158s.271-.057.365-.158l5.655-6.047c.672-.786.626-1.976-.103-2.709l-1.341-1.348c-.466-.469-1.111-.737-1.772-.737h-5.6c-.668 0-1.296.26-1.768.732l-1.352 1.352c-.735.734-.781 1.928-.104 2.716l5.653 6.042zm-4.98-6.841h2.979l1.569 4.917s-4.52-4.87-4.548-4.917zm5.984-3 .667 2h-2.612l.667-2h1.279zm.676 3-1.314 4.125-1.316-4.125h2.631zm-.517 4.914 1.567-4.914h2.981c-.025.042-4.548 4.914-4.548 4.914zm3.07-7.472s1.44 1.485 1.482 1.558h-2.989l-.667-2h1.111c.396 0 .784.161 1.063.442zm-7.724-.003c.283-.283.66-.439 1.061-.439h1.101l-.667 2h-2.988c.042-.073 1.494-1.561 1.494-1.561z"/></svg>