<?xml version="1.0" encoding="UTF-8"?>
<svg xmlns="http://www.w3.org/2000/svg" id="Layer_1" data-name="Layer 1" viewBox="0 0 24 24">
  <path d="M9,18.5c0,.276-.224,.5-.5,.5h-1.849l-4.09,2.721c-.507,.338-1.155,.368-1.691,.082-.537-.288-.87-.845-.87-1.454V4.5C0,2.019,2.019,0,4.5,0h13c2.481,0,4.5,2.019,4.5,4.5v5c0,.276-.224,.5-.5,.5s-.5-.224-.5-.5V4.5c0-1.93-1.57-3.5-3.5-3.5H4.5c-1.93,0-3.5,1.57-3.5,3.5v15.849c-.019,.501,.601,.835,1.007,.54l4.216-2.805c.082-.055,.178-.084,.277-.084h2c.276,0,.5,.224,.5,.5Zm15-1c0,3.584-2.916,6.5-6.5,6.5s-6.5-2.916-6.5-6.5,2.916-6.5,6.5-6.5,6.5,2.916,6.5,6.5Zm-1,0c0-3.033-2.467-5.5-5.5-5.5s-5.5,2.467-5.5,5.5,2.467,5.5,5.5,5.5,5.5-2.467,5.5-5.5Zm-2,0c0,.276-.224,.5-.5,.5h-3v1.558c.031,.88-1.103,1.406-1.755,.808l-1.831-1.854c-.549-.525-.549-1.476-.002-2.002l1.8-1.836c.674-.639,1.809-.124,1.788,.776v1.551h3c.276,0,.5,.224,.5,.5Zm-4.5-2.051l-.076-.075-1.801,1.838c-.165,.158-.163,.44,0,.594l1.802,1.828,.074-.077v-4.109Z"/>
</svg>
