<svg id="Layer_1" viewBox="0 0 24 24" xmlns="http://www.w3.org/2000/svg" data-name="Layer 1"><path d="m15.5 2.999h-6c-1.619 0-3.13-1.127-3.516-2.624-.069-.267-.344-.427-.609-.36-.268.069-.429.342-.36.609.463 1.799 2.096 3.144 3.984 3.349v10.528c-.036 2.666-3.04 3.444-3.219 3.572-2.139.347-3.781 2.192-3.781 4.427v1c0 .276.224.5.5.5s.5-.224.5-.5v-1c0-1.74 1.28-3.176 2.946-3.444.285.173.565.348.834.518 1.947 1.234 3.785 2.426 8.217 2.426 3.58 0 7.075-2.991 7.003-6.5v-6.001c0-3.584-2.916-6.5-6.5-6.5zm0 1c3.033 0 5.5 2.467 5.5 5.5v2.48c-.69-.457-1.743-.979-3-.979-1.092 0-1.8.271-2.485.533-.627.24-1.22.467-2.127.467-1.469 0-2.899-.912-3.387-1.255v-6.745h5.5zm3.881 15.153c-1.172 1.166-2.839 1.861-4.378 1.847-4.305-.038-5.821-1.095-7.899-2.405 1.146-.562 2.896-1.799 2.896-4.094v-2.564c.786.467 2.05 1.063 3.387 1.063 1.092 0 1.8-.271 2.485-.533.627-.24 1.22-.467 2.127-.467 1.443 0 2.613.892 3 1.224v2.276c0 1.318-.575 2.615-1.619 3.653zm-16.401-6.793c.315.088.644.024.912-.185l.729-.596.518 1.78c.129.381.504.645.905.642.512.014.977-.456.957-.966v-4.843c0-.012 0-.024-.001-.037-.027-.373-.256-.699-.598-.851-.34-.152-.737-.104-1.02.115l-.881.641-.388-1.345c-.206-.67-1.1-.942-1.641-.496l-.938.727c-.394.305-.549.826-.388 1.29l1.157 3.504c.117.306.364.532.679.62zm-.836-4.623 1.013-.724.58 2.009c.085.326.507.47.774.266l1.49-1.066s.09 4.833.09 4.833l-.721-2.48c-.047-.161-.171-.288-.332-.338-.159-.05-.335-.016-.465.09l-1.331 1.078-1.152-3.489c-.022-.065 0-.136.053-.178z"/></svg>