<svg id="Layer_1" viewBox="0 0 24 24" xmlns="http://www.w3.org/2000/svg" data-name="Layer 1"><path d="m17 9c0-.552.448-1 1-1s1 .448 1 1-.448 1-1 1-1-.448-1-1zm1-2c.276 0 .5-.224.5-.5v-4c0-.276-.224-.5-.5-.5s-.5.224-.5.5v4c0 .276.224.5.5.5zm6 11.5v5c0 .276-.224.5-.5.5h-6.117c-1.94 0-3.655-1.236-4.269-3.077l-1.151-3.451-3.909 2.354c-.465.279-.984.423-1.512.423-.563.006-1.144-.175-1.607-.49l-1.67 1.006c-.375.226-.817.291-1.238.187-.425-.105-.783-.37-1.008-.745l-.784-1.302c-.465-.772-.215-1.779.557-2.245l1.372-.827c-.051-.083-1.36-1.08-1.471-1.17-.131-.101-.203-.261-.192-.426.01-.166.102-.315.245-.399l9-5.318c.239-.139.544-.062.685.177.14.237.062.544-.176.685l-8.367 4.942.731.568c.383.301.673.685.927 1.088l1.302 2.286c.261.459.686.784 1.197.918.51.134 1.041.058 1.494-.216l8.962-5.397c.236-.141.543-.066.686.171.143.236.066.544-.17.687l-4.175 2.515 1.221 3.663c.477 1.432 1.812 2.394 3.32 2.394h5.617v-4.5c0-.276.224-.5.5-.5s.5.224.5.5zm-19.819.546c-.069-.094-.143-.182-.202-.285l-1.21-2.124-1.461.88c-.3.181-.398.572-.217.873l.784 1.302c.088.146.228.249.393.29s.336.015.481-.072l1.432-.863zm7.819-13.046c0-3.309 2.691-6 6-6s6 2.691 6 6-2.691 6-6 6-6-2.691-6-6zm1 0c0 2.757 2.243 5 5 5s5-2.243 5-5-2.243-5-5-5-5 2.243-5 5z"/></svg>