<svg id="Layer_1" viewBox="0 0 24 24" xmlns="http://www.w3.org/2000/svg" data-name="Layer 1"><path d="m11 23.5c0 .276-.224.5-.5.5h-5.817c-1.386 0-2.693-.608-3.584-1.67-.892-1.061-1.267-2.453-1.028-3.818l2.561-14.637c.393-2.246 2.332-3.875 4.612-3.875h9.499c2.277 0 4.216 1.628 4.61 3.871l.976 5.542c.048.272-.134.531-.405.579-.268.048-.532-.133-.579-.405l-.976-5.543c-.311-1.763-1.835-3.043-3.626-3.043h-9.499c-1.792 0-3.318 1.281-3.626 3.047l-2.562 14.636c-.188 1.074.107 2.168.808 3.003.701.834 1.729 1.313 2.819 1.313h5.817c.276 0 .5.224.5.5zm1.5-19c0-.276-.224-.5-.5-.5s-.5.224-.5.5v3c0 .276.224.5.5.5s.5-.224.5-.5zm-.5 5.5c-.276 0-.5.224-.5.5v1c0 .276.224.5.5.5s.5-.224.5-.5v-1c0-.276-.224-.5-.5-.5zm12 7.5c0 3.584-2.916 6.5-6.5 6.5s-6.5-2.916-6.5-6.5 2.916-6.5 6.5-6.5 6.5 2.916 6.5 6.5zm-1 0c0-3.033-2.468-5.5-5.5-5.5s-5.5 2.467-5.5 5.5 2.468 5.5 5.5 5.5 5.5-2.467 5.5-5.5zm-2.857-1.369-2.707 2.617c-.337.333-.887.333-1.222.004l-1.362-1.344c-.196-.194-.513-.192-.707.005-.194.196-.192.513.004.707l1.364 1.345c.361.355.837.532 1.312.532s.95-.178 1.311-.534l2.703-2.614c.198-.192.204-.508.012-.707-.19-.199-.508-.203-.707-.012z"/></svg>