<svg id="Layer_1" viewBox="0 0 24 24" xmlns="http://www.w3.org/2000/svg" data-name="Layer 1"><path d="m15.626 7.481 1.912 1.195c-.023.105-.038.213-.038.325 0 .827.673 1.5 1.5 1.5s1.5-.673 1.5-1.5-.673-1.5-1.5-1.5c-.352 0-.672.127-.928.331l-2.076-1.297c0-.011.003-.022.003-.033 0-.012-.003-.022-.003-.034l2.062-1.308c.258.211.583.342.942.342.827 0 1.5-.673 1.5-1.5s-.673-1.5-1.5-1.5-1.5.673-1.5 1.5c0 .105.011.208.032.307l-1.908 1.211c-.275-.315-.675-.518-1.124-.518-.827 0-1.5.673-1.5 1.5s.673 1.5 1.5 1.5c.451 0 .851-.204 1.126-.519zm3.374 1.019c.276 0 .5.224.5.5s-.224.5-.5.5-.5-.224-.5-.5.224-.5.5-.5zm0-5c.276 0 .5.224.5.5s-.224.5-.5.5-.5-.224-.5-.5.224-.5.5-.5zm-5 3c0-.276.224-.5.5-.5s.5.224.5.5-.224.5-.5.5-.5-.224-.5-.5z"/><path d="m21.61 11.53c1.457-1.193 2.39-3.004 2.39-5.03 0-3.584-2.916-6.5-6.5-6.5s-6.5 2.916-6.5 6.5c0 1.746.696 3.331 1.821 4.5h-8.321c-2.481 0-4.5 2.019-4.5 4.5v4c0 2.481 2.019 4.5 4.5 4.5h15c2.481 0 4.5-2.019 4.5-4.5v-4c0-1.697-.935-3.201-2.39-3.97zm-4.11-10.53c3.033 0 5.5 2.467 5.5 5.5s-2.467 5.5-5.5 5.5-5.5-2.467-5.5-5.5 2.467-5.5 5.5-5.5zm5.5 18.5c0 1.93-1.57 3.5-3.5 3.5h-15c-1.93 0-3.5-1.57-3.5-3.5v-4c0-1.93 1.57-3.5 3.5-3.5h9.552c1.001.63 2.181 1 3.448 1 1.135 0 2.201-.294 3.131-.807 1.419.484 2.369 1.798 2.369 3.307z"/><path d="m21 16c.276 0 .5-.224.5-.5s-.224-.5-.5-.5h-1c-.551 0-1 .449-1 1v3c0 .551.449 1 1 1h1c.276 0 .5-.224.5-.5s-.224-.5-.5-.5h-1v-1h1c.276 0 .5-.224.5-.5s-.224-.5-.5-.5h-1v-1z"/><path d="m18 16.5c0-.827-.673-1.5-1.5-1.5h-.42c-.596 0-1.08.484-1.08 1.08v3.42c0 .276.224.5.5.5s.5-.224.5-.5v-1.5h.5c.037 0 .071-.008.107-.011l.408 1.632c.057.228.26.379.484.379.04 0 .081-.005.122-.015.268-.067.431-.338.364-.606l-.45-1.798c.285-.273.465-.656.465-1.081zm-2 .5v-.92c0-.044.036-.08.08-.08h.42c.276 0 .5.224.5.5s-.224.5-.5.5z"/><path d="m9.5 15c-.276 0-.5.224-.5.5v1.5h-1v-1.5c0-.276-.224-.5-.5-.5s-.5.224-.5.5v4c0 .276.224.5.5.5s.5-.224.5-.5v-1.5h1v1.5c0 .276.224.5.5.5s.5-.224.5-.5v-4c0-.276-.224-.5-.5-.5z"/><path d="m12.5 15c-.827 0-1.5.673-1.5 1.5v3c0 .276.224.5.5.5s.5-.224.5-.5v-1h1v1c0 .276.224.5.5.5s.5-.224.5-.5v-3c0-.827-.673-1.5-1.5-1.5zm-.5 2.5v-1c0-.276.224-.5.5-.5s.5.224.5.5v1z"/><path d="m4.812 17.041c-.547-.202-1.043-.42-1.056-.42-.118-.08-.114-.201-.108-.25.009-.065.057-.226.3-.299.287-.085.562-.017.762.07s.432.032.573-.134c.204-.24.137-.611-.143-.757-.361-.189-.891-.353-1.492-.172-.557.168-.95.607-1.028 1.145-.072.506.147.994.645 1.31 0 0 .562.251 1.186.481.132.049.557.229.506.516-.038.212-.3.432-.672.432-.259 0-.511-.07-.721-.194-.193-.114-.439-.078-.605.072-.256.233-.216.649.083.825.366.216.796.334 1.243.334.848 0 1.559-.542 1.693-1.287.1-.564-.154-1.297-1.168-1.672z"/></svg>