<?xml version="1.0" encoding="UTF-8"?>
<svg xmlns="http://www.w3.org/2000/svg" id="Layer_1" data-name="Layer 1" viewBox="0 0 24 24">
  <path d="M6,15c-1.654,0-3,1.346-3,3v3c0,1.654,1.346,3,3,3s3-1.346,3-3v-3c0-1.654-1.346-3-3-3Zm2,6c0,1.103-.897,2-2,2s-2-.897-2-2v-3c0-1.103,.897-2,2-2s2,.897,2,2v3Zm10-6c-1.654,0-3,1.346-3,3v3c0,1.654,1.346,3,3,3s3-1.346,3-3v-3c0-1.654-1.346-3-3-3Zm2,6c0,1.103-.897,2-2,2s-2-.897-2-2v-3c0-1.103,.897-2,2-2s2,.897,2,2v3Zm-7-5.5v8c0,.276-.224,.5-.5,.5s-.5-.224-.5-.5v-6.793l-1.146,1.146c-.195,.195-.512,.195-.707,0s-.195-.512,0-.707l2-2c.144-.143,.357-.187,.545-.108,.187,.077,.309,.26,.309,.462Zm11-2.716c-.038,1.026-.292,2.016-.758,2.94-.124,.247-.423,.346-.671,.222-.247-.124-.346-.425-.222-.671,.4-.796,.62-1.646,.652-2.528,.116-3.131-2.015-5.9-5.066-6.584-.735-.165-1.346-.636-1.676-1.295-1.414-2.819-4.471-4.325-7.598-3.743C5.922,1.633,3.708,3.816,3.152,6.559c-.167,.819-.191,1.644-.074,2.452,.13,.892-.119,1.714-.685,2.254-1.127,1.078-1.609,2.646-1.288,4.196,.092,.449,.258,.883,.493,1.289,.139,.239,.057,.545-.182,.683-.235,.137-.545,.059-.683-.182-.289-.499-.493-1.033-.607-1.587-.391-1.89,.198-3.804,1.577-5.122,.329-.314,.469-.819,.387-1.387-.135-.923-.107-1.863,.083-2.796C2.809,3.222,5.343,.724,8.478,.142c3.571-.664,7.061,1.057,8.675,4.279,.195,.389,.559,.668,1,.767,3.521,.79,5.98,3.984,5.847,7.597Z"/>
</svg>
