<?xml version="1.0" encoding="UTF-8"?>
<svg xmlns="http://www.w3.org/2000/svg" id="Layer_1" data-name="Layer 1" viewBox="0 0 24 24">
  <path d="m19.5,7h-7c-1.963,0-3.636,1.263-4.249,3.019-.55-.624-1.355-1.019-2.251-1.019-1.654,0-3,1.346-3,3,0,.768.29,1.469.766,2H1V2.5c0-.276-.224-.5-.5-.5s-.5.224-.5.5v19c0,.276.224.5.5.5s.5-.224.5-.5v-2.5h22v2.5c0,.276.224.5.5.5s.5-.224.5-.5v-10c0-2.481-2.019-4.5-4.5-4.5Zm-10.5,4.5c0-1.93,1.57-3.5,3.5-3.5h7c1.93,0,3.5,1.57,3.5,3.5v2.5h-14v-2.5Zm-5,.5c0-1.103.897-2,2-2s2,.897,2,2-.897,2-2,2-2-.897-2-2Zm-3,6v-3h22v3H1Z"/>
</svg>
