<svg id="Layer_1" viewBox="0 0 24 24" xmlns="http://www.w3.org/2000/svg" data-name="Layer 1"><path d="m21.712 0h-7.424c-1.262 0-2.288 1.026-2.288 2.288 0 .587.223 1.146.626 1.573l3.374 3.562v1.923c0 .516.225 1.003.616 1.339l1.135.974c.254.218.565.33.883.33.733.01 1.384-.623 1.366-1.364v-3.201l3.374-3.562c.403-.428.626-.986.626-1.573 0-1.262-1.026-2.288-2.288-2.288zm.936 3.174-3.511 3.707c-.088.093-.137.216-.137.344v3.4c0 .209-.147.3-.211.329-.063.028-.229.08-.388-.055l-1.135-.974c-.169-.146-.267-.356-.267-.579v-2.122c0-.128-.049-.251-.137-.344l-3.511-3.707c-.228-.24-.353-.556-.353-.886 0-.71.578-1.288 1.288-1.288h7.424c.71 0 1.288.578 1.288 1.288 0 .33-.125.646-.353.886zm-4.147 10.826c-.276 0-.5.224-.5.5v.5h-17.001v-2.5c0-1.93 1.57-3.5 3.5-3.5h9c.276 0 .5-.224.5-.5s-.224-.5-.5-.5h-7.5v-1.5c0-.827.673-1.5 1.5-1.5h3c.276 0 .5-.224.5-.5s-.224-.5-.5-.5h-3c-1.379 0-2.5 1.121-2.5 2.5v1.5h-.5c-2.481 0-4.5 2.019-4.5 4.5v7c0 2.481 2.019 4.5 4.5 4.5h10c2.481 0 4.5-2.019 4.5-4.5v-5c0-.276-.224-.5-.5-.5zm-4 9h-10.001c-1.93 0-3.5-1.57-3.5-3.5v-3.5h8v1.5c0 .276.224.5.5.5s.5-.224.5-.5v-1.5h8v3.5c0 1.93-1.57 3.5-3.5 3.5z"/></svg>