<?xml version="1.0" encoding="UTF-8"?>
<svg xmlns="http://www.w3.org/2000/svg" id="Layer_1" data-name="Layer 1" viewBox="0 0 24 24">
  <path d="M23.518,.521c-.48-.479-1.175-.639-1.812-.426-2.086,.707-3.766,1.5-4.992,2.354-1.329,.928-5.118,4.498-6.692,6.072l-4.888,4.886c-1.266-1.359-2.025-3.098-2.134-4.937-.016-.275-.246-.492-.529-.47-.275,.017-.486,.253-.469,.528,.129,2.18,1.06,4.239,2.621,5.799l1.422,1.422-3.793,3.793-1.397-1.397c-.195-.195-.512-.195-.707,0s-.195,.512,0,.707l5,5c.195,.195,.512,.195,.707,0s.195-.512,0-.707l-1.396-1.396,3.793-3.793,1.421,1.422c1.562,1.561,3.621,2.491,5.799,2.62,.01,0,.021,0,.03,0,.263,0,.483-.205,.499-.471,.017-.275-.194-.512-.469-.528-1.843-.11-3.586-.872-4.948-2.143l4.889-4.887c1.546-1.545,5.245-5.38,6.165-6.706,.835-1.204,1.613-2.864,2.31-4.935,.215-.638,.051-1.331-.428-1.81ZM3.75,21.043l-.793-.793,3.793-3.793,.793,.793-3.793,3.793ZM22.999,2.012c-.667,1.98-1.402,3.556-2.184,4.683-.833,1.201-4.352,4.871-6.05,6.569l-4.895,4.893-1.647-1.671L16.854,7.854c.195-.195,.195-.512,0-.707s-.512-.195-.707,0L7.52,15.773l-1.656-1.681,4.865-4.863c1.613-1.613,5.328-5.101,6.557-5.959,1.149-.801,2.744-1.551,4.74-2.228,.57-.22,1.189,.401,.972,.97Z"/>
</svg>
