<?xml version="1.0" encoding="UTF-8"?>
<svg xmlns="http://www.w3.org/2000/svg" id="Layer_1" data-name="Layer 1" viewBox="0 0 24 24">
  <path d="m23.5,3h-.5V.5c0-.276-.224-.5-.5-.5s-.5.224-.5.5v2.5H2V.5c0-.276-.224-.5-.5-.5s-.5.224-.5.5v2.5h-.5c-.276,0-.5.224-.5.5s.224.5.5.5h.5v2.5c0,.276.224.5.5.5s.5-.224.5-.5v-2.5h2.223l4.777,7.643v4.857c0,.815.397,1.533,1.002,1.989,0,.004-.002.007-.002.011v5c0,.276.224.5.5.5s.5-.224.5-.5v-4.551c.162.033.329.051.5.051h1c.171,0,.338-.018.5-.051v4.551c0,.276.224.5.5.5s.5-.224.5-.5v-5s-.002-.007-.002-.011c.605-.457,1.002-1.174,1.002-1.989v-4.857l4.777-7.643h2.223v2.5c0,.276.224.5.5.5s.5-.224.5-.5v-2.5h.5c.276,0,.5-.224.5-.5s-.224-.5-.5-.5Zm-9.5,13.5c0,.827-.673,1.5-1.5,1.5h-1c-.827,0-1.5-.673-1.5-1.5v-4.5h4v4.5Zm.223-5.5h-4.445l-4.375-7h13.195l-4.375,7Zm-2.223-1c1.379,0,2.5-1.121,2.5-2.5s-1.121-2.5-2.5-2.5-2.5,1.121-2.5,2.5,1.121,2.5,2.5,2.5Zm0-4c.827,0,1.5.673,1.5,1.5s-.673,1.5-1.5,1.5-1.5-.673-1.5-1.5.673-1.5,1.5-1.5Z"/>
</svg>
