<svg id="Layer_1" viewBox="0 0 24 24" xmlns="http://www.w3.org/2000/svg" data-name="Layer 1"><path d="m21 16c0 .552-.448 1-1 1s-1-.448-1-1 .448-1 1-1 1 .448 1 1zm-12-13c-.552 0-1 .448-1 1s.448 1 1 1 1-.448 1-1-.448-1-1-1zm11 2c.552 0 1-.448 1-1s-.448-1-1-1-1 .448-1 1 .448 1 1 1zm4-.5v17c0 1.378-1.121 2.5-2.5 2.5h-17c-2.481 0-4.5-2.019-4.5-4.5v-11c0-1.601.863-3.097 2.25-3.897.239-.139.545-.057.683.182.139.239.057.545-.182.683-.452.262-.833.617-1.122 1.034.651.931 1.726 1.499 2.872 1.499h.5v-3.5c-.001-2.482 2.018-4.501 4.499-4.501h10c2.481 0 4.5 2.019 4.5 4.5zm-18 3.5h5.046c-.026-.168-.046-.334-.046-.5 0-1.93 1.57-3.5 3.5-3.5s3.5 1.57 3.5 3.5c0 .166-.019.332-.046.5h3.546c.565 0 1.081.195 1.5.513v-4.013c0-1.93-1.57-3.5-3.5-3.5h-10c-1.93 0-3.5 1.57-3.5 3.5zm10.936 0c.038-.171.064-.338.064-.5 0-1.378-1.121-2.5-2.5-2.5s-2.5 1.122-2.5 2.5c0 .162.026.329.064.5zm6.064 2.5c0-.827-.673-1.5-1.5-1.5h-17c-1.289 0-2.508-.559-3.353-1.5-.096.321-.147.657-.147 1v11c0 1.93 1.57 3.5 3.5 3.5h17c.827 0 1.5-.673 1.5-1.5z"/></svg>