<?xml version="1.0" encoding="UTF-8"?>
<svg xmlns="http://www.w3.org/2000/svg" id="Layer_1" data-name="Layer 1" viewBox="0 0 24 24">
  <path d="M23.854,23.146l-3.433-3.433,3.139-3.139c.364-.363,.516-.881,.405-1.387-.112-.504-.469-.909-.952-1.084l-8.968-3.262c-.923-.34-1.927-.115-2.621,.58-.694,.694-.918,1.699-.582,2.621l3.263,8.968c.175,.484,.58,.841,1.087,.953,.106,.023,.215,.035,.322,.035,.4,0,.777-.156,1.061-.439l3.14-3.14,3.433,3.433c.098,.098,.226,.146,.354,.146s.256-.049,.354-.146c.195-.195,.195-.512,0-.707Zm-7.986-.293c-.121,.121-.299,.172-.462,.135-.168-.037-.303-.155-.361-.317l-3.263-8.969c-.201-.553-.067-1.155,.35-1.572,.288-.288,.664-.44,1.051-.44,.174,0,.35,.03,.521,.093l8.97,3.262c.161,.059,.279,.193,.316,.36,.037,.169-.013,.342-.134,.462,0,0,0,0,0,0l-6.986,6.986Zm-4.868-3.393c.015,.275-.197,.511-.473,.525-.175,.01-.35,.014-.526,.014C4.486,20,0,15.514,0,10S4.486,0,10,0s10,4.486,10,10c0,.177-.004,.352-.014,.526-.014,.275-.244,.5-.525,.473-.275-.015-.487-.25-.473-.525,.008-.157,.012-.314,.012-.474C19,5.037,14.963,1,10,1S1,5.037,1,10s4.037,9,9,9c.159,0,.316-.004,.474-.012,.277-.03,.512,.197,.525,.473ZM5,10c0,2.414,1.72,4.482,4.09,4.917,.272,.05,.452,.311,.402,.582-.045,.241-.255,.41-.491,.41-.03,0-.061-.003-.091-.008-2.846-.522-4.91-3.004-4.91-5.901,0-3.309,2.691-6,6-6,2.897,0,5.379,2.064,5.901,4.91,.05,.271-.13,.532-.402,.582-.268,.044-.531-.13-.582-.402-.435-2.37-2.503-4.09-4.917-4.09-2.757,0-5,2.243-5,5Z"/>
</svg>
