<?xml version="1.0" encoding="UTF-8"?>
<svg xmlns="http://www.w3.org/2000/svg" id="Layer_1" data-name="Layer 1" viewBox="0 0 24 24">
  <path d="m23.369.631c-.816-.813-2.121-.846-2.973-.071L6.447,13.228l-5.034,1.983c-.858.338-1.412,1.152-1.412,2.074,0,3.702,3.013,6.715,6.727,6.715.924,0,1.739-.556,2.076-1.416l1.97-5.032L23.44,3.604c.774-.852.743-2.157-.071-2.973Zm-13.046,15.93l-2.883-2.884,2.245-2.039,2.677,2.678-2.039,2.245Zm-2.451,5.658c-.186.475-.635.781-1.156.781-3.151,0-5.715-2.563-5.715-5.715,0-.509.306-.958.779-1.145l4.815-1.896,3.162,3.163-1.884,4.812ZM22.7,2.932l-9.665,10.643-2.609-2.61L21.068,1.3c.459-.416,1.156-.398,1.594.038.437.437.453,1.137.038,1.594Z"/>
</svg>
