<?xml version="1.0" encoding="UTF-8"?>
<svg xmlns="http://www.w3.org/2000/svg" id="Layer_1" data-name="Layer 1" viewBox="0 0 24 24">
  <path d="M6,13.208v7.292c0,1.379,1.122,2.5,2.5,2.5h5c.276,0,.5,.224,.5,.5s-.224,.5-.5,.5h-5c-1.93,0-3.5-1.57-3.5-3.5v-6.507c-.702,.643-1.296,1.411-1.716,2.296L.952,21.214c-.118,.252-.422,.355-.666,.238-.25-.118-.356-.417-.238-.666l2.333-4.925c1.399-2.953,4.414-4.861,7.682-4.861h3.438c.276,0,.5,.224,.5,.5s-.224,.5-.5,.5h-3.438c-1.465,0-2.87,.438-4.062,1.208ZM14,5c0,2.206-1.794,4-4,4s-4-1.794-4-4S7.794,1,10,1s4,1.794,4,4Zm-1,0c0-1.654-1.346-3-3-3s-3,1.346-3,3,1.346,3,3,3,3-1.346,3-3Zm11,11.48c.025,.921-.906,1.679-1.8,1.472l-2.392-.486,1.13,4.237c.041,.153,.062,.312,.062,.471,0,1.007-.819,1.826-1.826,1.826h-1.174c-1.103,0-2-.897-2-2V3h-.5c-.276,0-.5-.224-.5-.5s.224-.5,.5-.5h.5V1c0-.551,.449-1,1-1h1c.551,0,1,.449,1,1V11.672c.855-.347,1.717-1.034,1.942-2.415,.119-.728,.731-1.256,1.457-1.256,.902-.023,1.653,.874,1.458,1.756-.239,1.217-1.039,3.673-3.6,4.733l2.543,.52c.696,.144,1.2,.762,1.2,1.471Zm-5-2.642c2.719-.609,3.596-2.853,3.875-4.274,.037-.188-.045-.323-.098-.386-.239-.291-.784-.154-.848,.239-.345,2.118-1.848,2.974-2.929,3.32v1.101Zm-2,.162h1V1h-1V14Zm1.097,1h-1.097v7c0,.552,.449,1,1,1h1.174c.534,.007,.942-.526,.798-1.039l-1.875-6.961Zm4.903,1.48c0-.236-.168-.443-.401-.49l-3.368-.689,.293,1.101c.025,.001,.049-.005,.075,0l2.799,.569c.302,.066,.609-.182,.601-.491Z"/>
</svg>
