<?xml version="1.0" encoding="UTF-8"?>
<svg xmlns="http://www.w3.org/2000/svg" id="Layer_1" data-name="Layer 1" viewBox="0 0 24 24">
  <path d="m15.5,11h-1c-1.379,0-2.5,1.121-2.5,2.5v2.012c-.419-.317-.935-.512-1.5-.512-1.379,0-2.5,1.121-2.5,2.5s1.121,2.5,2.5,2.5,2.5-1.121,2.5-2.5v-4c0-.827.673-1.5,1.5-1.5h1c.276,0,.5-.224.5-.5s-.224-.5-.5-.5Zm-5,8c-.827,0-1.5-.673-1.5-1.5s.673-1.5,1.5-1.5,1.5.673,1.5,1.5-.673,1.5-1.5,1.5Zm9.596-13.611l-3.484-3.484c-1.228-1.228-2.86-1.904-4.597-1.904h-5.515C4.019,0,2,2.019,2,4.5v15c0,2.481,2.019,4.5,4.5,4.5h11c2.481,0,4.5-2.019,4.5-4.5v-9.515c0-1.736-.677-3.369-1.904-4.597Zm-.707.707c.55.55.959,1.2,1.232,1.904h-5.121c-.827,0-1.5-.673-1.5-1.5V1.379c.704.273,1.354.682,1.904,1.232l3.484,3.484Zm1.611,13.404c0,1.93-1.57,3.5-3.5,3.5H6.5c-1.93,0-3.5-1.57-3.5-3.5V4.5c0-1.93,1.57-3.5,3.5-3.5h5.515c.335,0,.663.038.985.096v5.404c0,1.379,1.121,2.5,2.5,2.5h5.404c.058.323.096.651.096.985v9.515Z"/>
</svg>
