<?xml version="1.0" encoding="UTF-8"?>
<svg xmlns="http://www.w3.org/2000/svg" id="Layer_1" data-name="Layer 1" viewBox="0 0 24 24">
  <path d="m23.925,7.016l-.878,4.393c-.419,2.096-2.275,3.617-4.413,3.617H5.995c.247,1.711,1.732,3,3.462,3h10.017c.276,0,.5.224.5.5s-.224.5-.5.5h-10.017c-2.234,0-4.15-1.669-4.457-3.882L3.219,2.319c-.103-.738-.742-1.294-1.486-1.294H.475C.198,1.025-.025.802-.025.525S.198.025.475.025h1.259C2.974.025,4.039.952,4.209,2.182l.256,1.844h2.509c.276,0,.5.224.5.5s-.224.5-.5.5h-2.37l1.25,9h12.78c1.663,0,3.106-1.183,3.432-2.813l.878-4.393c.088-.442-.025-.896-.311-1.245-.286-.349-.708-.549-1.16-.549h-1.5c-.276,0-.5-.224-.5-.5s.224-.5.5-.5h1.5c.752,0,1.457.333,1.933.915s.666,1.338.518,2.075Zm-14.951,15.01c0,1.103-.897,2-2,2s-2-.897-2-2,.897-2,2-2,2,.897,2,2Zm-1,0c0-.552-.449-1-1-1s-1,.448-1,1,.449,1,1,1,1-.448,1-1Zm11,0c0,1.103-.897,2-2,2s-2-.897-2-2,.897-2,2-2,2,.897,2,2Zm-1,0c0-.552-.449-1-1-1s-1,.448-1,1,.449,1,1,1,1-.448,1-1ZM8.977,2.735c-.059-1.424,1.048-2.638,2.474-2.709.836.04,1.565.448,2.022,1.046.452-.598,1.169-1.006,1.976-1.046,1.479.071,2.588,1.292,2.523,2.721,0,1.947-2.381,4.574-3.596,5.479-.27.201-.585.301-.901.301s-.631-.1-.901-.301c-1.212-.903-3.587-3.522-3.597-5.491Zm1-.011c0,1.501,2.11,3.893,3.194,4.701.181.135.426.135.606,0,1.084-.808,3.194-3.199,3.194-4.701.041-.903-.643-1.655-1.523-1.699-.892.047-1.474.815-1.474,1.5,0,.276-.224.5-.5.5s-.5-.224-.5-.5c0-.685-.583-1.454-1.524-1.5-.831.044-1.515.796-1.474,1.676,0,.008,0,.015,0,.023Z"/>
</svg>
