<svg id="Layer_1" viewBox="0 0 24 24" xmlns="http://www.w3.org/2000/svg" data-name="Layer 1"><path d="m16 20c0 .553-.447 1-1 1s-1-.447-1-1 .447-1 1-1 1 .447 1 1zm3-1c-.553 0-1 .447-1 1s.447 1 1 1 1-.447 1-1-.447-1-1-1zm4-1.753v2.253c0 2.481-2.019 4.5-4.5 4.5h-13c-2.481 0-4.5-2.019-4.5-4.5v-2.253c0-.518.033-1.04.097-1.551l1.469-11.754c.281-2.247 2.2-3.942 4.465-3.942h9.938c2.265 0 4.185 1.695 4.465 3.942l1.469 11.755c.064.51.097 1.032.097 1.55zm-20.922-1.247h19.845c-.006-.059-1.48-11.934-1.48-11.934-.218-1.748-1.711-3.066-3.473-3.066h-9.939c-1.762 0-3.255 1.318-3.473 3.066 0 0-1.474 11.875-1.48 11.934zm19.922 1.247c0-.083-.014-.164-.015-.247h-19.97c-.002.083-.015.164-.015.247v2.253c0 1.93 1.57 3.5 3.5 3.5h13c1.93 0 3.5-1.57 3.5-3.5z"/></svg>