<svg id="Layer_1" viewBox="0 0 24 24" xmlns="http://www.w3.org/2000/svg" data-name="Layer 1"><path d="m15.923 9.743c.582.341 1.275.341 1.864.009l5.263-3.128c.595-.334.95-.942.95-1.624s-.355-1.289-.939-1.618l-5.285-3.139c-.586-.33-1.278-.322-1.854.015-.578.338-.923.939-.923 1.608v6.269c0 .669.345 1.27.923 1.608zm.077-7.877c-.012-.467.405-.873.866-.865.143 0 .283.036.409.107l5.284 3.141c.275.155.44.436.44.752s-.165.597-.451.758l-5.263 3.129c-.271.152-.593.149-.858-.007-.268-.157-.428-.435-.428-.745v-6.27zm-4.222 12.616c-.391-.871-1.263-1.482-2.278-1.482h-4c-1.378 0-2.5 1.122-2.5 2.5v3c0 1.378 1.122 2.5 2.5 2.5h4c1.015 0 1.888-.611 2.279-1.482l.949.702c.251.186.548.28.846.28.765.013 1.444-.656 1.427-1.427v-4.146c0-.541-.3-1.028-.783-1.272-.482-.244-1.054-.196-1.49.126l-.949.701zm-2.278 5.518h-4c-.827 0-1.5-.673-1.5-1.5v-3c0-.827.673-1.5 1.5-1.5h4c.827 0 1.5.673 1.5 1.5v3c0 .827-.673 1.5-1.5 1.5zm4.267-5.453c.07.035.233.143.233.379v4.146c0 .236-.163.344-.233.38-.071.035-.257.101-.445-.038l-1.321-.977v-2.876l1.321-.977c.191-.142.375-.073.445-.038zm10.233-6.047v11c0 2.481-2.019 4.5-4.5 4.5h-15c-2.481 0-4.5-2.019-4.5-4.5v-13c0-2.481 2.019-4.5 4.5-4.5h3.028c.386 0 .772.091 1.118.264l3.156 1.578c.207.104.439.158.671.158.276 0 .5.224.5.5s-.224.5-.5.5c-.386 0-.772-.091-1.118-.264l-3.156-1.578c-.207-.104-.439-.158-.671-.158h-3.028c-1.93 0-3.5 1.57-3.5 3.5v1.5h11.5c.276 0 .5.224.5.5s-.224.5-.5.5h-11.5v10.5c0 1.93 1.57 3.5 3.5 3.5h15c1.93 0 3.5-1.57 3.5-3.5v-11c0-.276.224-.5.5-.5s.5.224.5.5z"/></svg>