<svg id="Layer_1" viewBox="0 0 24 24" xmlns="http://www.w3.org/2000/svg" data-name="Layer 1"><path d="m22.913 1.407c-.68-.439-1.527-.503-2.264-.169l-3.301 1.49c-3.26-1.299-7.292-2.728-10.348-2.728-3.86 0-7 3.14-7 7 0 3.068 1.988 5.676 4.741 6.618l3.49 8.534c.443 1.103 1.513 1.848 2.769 1.848.391 0 .782-.078 1.154-.232 1.526-.636 2.251-2.396 1.615-3.924l-2.73-6.527c1.962-.561 4.095-1.4 6.306-2.288l3.234 1.724c.334.165.692.246 1.05.246 1.266.023 2.403-1.097 2.372-2.375v-7.223c0-.81-.406-1.555-1.086-1.994zm-21.913 5.593c0-3.309 2.691-6 6-6 2.893 0 6.82 1.396 10 2.663v6.426c-3.769 1.514-7.316 2.909-10 2.909-3.309 0-6-2.691-6-6zm11.845 13.229c.424 1.018-.06 2.191-1.077 2.616-1.019.425-2.192-.06-2.614-1.074l-3.214-7.86c.346.053.698.089 1.059.089.942 0 1.973-.166 3.061-.427l2.785 6.657zm10.154-9.605c0 .478-.242.914-.648 1.165-.405.253-.902.279-1.318.073l-3.034-1.618v-6.713l3.061-1.382c.434-.195.911-.161 1.31.098.399.258.628.679.628 1.154v7.223z"/></svg>