<?xml version="1.0" encoding="UTF-8"?>
<svg xmlns="http://www.w3.org/2000/svg" id="Layer_1" data-name="Layer 1" viewBox="0 0 24 24">
  <path d="m4,20c0,.552-.448,1-1,1s-1-.448-1-1,.448-1,1-1,1,.448,1,1Zm5-1c-.552,0-1,.448-1,1s.448,1,1,1,1-.448,1-1-.448-1-1-1Zm3,3c-.552,0-1,.448-1,1s.448,1,1,1,1-.448,1-1-.448-1-1-1ZM7.357,6.935c.089.385.353.722.722.911.369.19.805.205,1.191.041.404-.168.709-.537.814-.985l1.57-6.281c.079-.315-.16-.621-.485-.621h0c-.229,0-.429.156-.485.379l-1.572,6.289c-.033.143-.118.251-.228.297-.116.049-.244.046-.351-.009-.105-.054-.181-.149-.206-.261L6.657.372c-.058-.219-.256-.372-.483-.372-.328,0-.567.31-.483.627l1.666,6.308Zm-4.857,1.065c1.378,0,2.5-1.122,2.5-2.5V.5c0-.276-.224-.5-.5-.5s-.5.224-.5.5v5c0,.827-.673,1.5-1.5,1.5s-1.5-.673-1.5-1.5V.5c0-.276-.224-.5-.5-.5s-.5.224-.5.5v5c0,1.378,1.122,2.5,2.5,2.5Zm3.5,14c-.552,0-1,.448-1,1s.448,1,1,1,1-.448,1-1-.448-1-1-1Zm16.923-6.52c-.876-.638-2.151-.639-3.027,0-.936.68-2.312.68-3.245,0-.877-.638-2.152-.639-3.027,0-.936.68-2.312.68-3.245,0-.878-.639-2.151-.639-3.028,0-.935.68-2.312.68-3.245,0-.878-.639-2.151-.639-3.028,0-.258.188-.858.617-.858.617-.129.09-.219.233-.219.403,0,.276.224.5.5.5.106,0,.2-.041.281-.097,0,0,.621-.422.885-.614.527-.384,1.322-.385,1.851,0,1.279.93,3.143.93,4.422,0,.527-.384,1.322-.385,1.851,0,1.277.93,3.143.93,4.423,0,.526-.384,1.321-.386,1.85,0,.639.465,1.403.711,2.211.711s1.572-.246,2.212-.711c.526-.386,1.322-.384,1.851,0,.263.191.884.613.884.613.081.057.174.097.281.097.276,0,.5-.224.5-.5,0-.17-.09-.312-.219-.403,0,0-.6-.429-.858-.617Zm.577-3.48H.5c-.276,0-.5.224-.5.5s.224.5.5.5h23c.276,0,.5-.224.5-.5s-.224-.5-.5-.5Zm-1.5-12h-4.5c-.276,0-.5.224-.5.5s.224.5.5.5h4.5c.086,0,.164.029.244.049l-8.581,8.58c-.499.5-1.369.501-1.87,0l-.711-.711c-.195-.195-.512-.195-.707,0s-.195.512,0,.707l.711.711c.438.439,1.022.681,1.643.681.621,0,1.204-.242,1.641-.681L22.951,1.756c.021.08.049.157.049.244v4.5c0,.276.224.5.5.5s.5-.224.5-.5V2c0-1.103-.897-2-2-2Zm-7,19c-.552,0-1,.448-1,1s.448,1,1,1,1-.448,1-1-.448-1-1-1Zm3,3c-.552,0-1,.448-1,1s.448,1,1,1,1-.448,1-1-.448-1-1-1Zm3-3c-.552,0-1,.448-1,1s.448,1,1,1,1-.448,1-1-.448-1-1-1Z"/>
</svg>
