<svg id="Layer_1" viewBox="0 0 24 24" xmlns="http://www.w3.org/2000/svg" data-name="Layer 1"><path d="m3.868 5.868c-.195-.195-.195-.512 0-.707s.512-.195.707 0l2.122 2.121c.195.195.195.512 0 .707s-.512.195-.707 0zm8.132.132c.276 0 .5-.224.5-.5v-3c0-.276-.224-.5-.5-.5s-.5.224-.5.5v3c0 .276.224.5.5.5zm6.364 2.843c.128 0 .256-.049.354-.146l2.122-2.121c.195-.195.195-.512 0-.707s-.512-.195-.707 0l-2.122 2.121c-.195.195-.195.512 0 .707.098.098.226.146.354.146zm1.636 5.657c0 .276.224.5.5.5h3c.276 0 .5-.224.5-.5s-.224-.5-.5-.5h-3c-.276 0-.5.224-.5.5zm-19.5.5h3c.276 0 .5-.224.5-.5s-.224-.5-.5-.5h-3c-.276 0-.5.224-.5.5s.224.5.5.5zm17.5-1c0-3.309-2.691-6-6-6s-6 2.691-6 6v.5c0 .276.224.5.5.5s.5-.224.5-.5v-.5c0-2.757 2.243-5 5-5s5 2.243 5 5v.5c0 .276.224.5.5.5s.5-.224.5-.5zm-2 4.5v2c0 .827-.673 1.5-1.5 1.5s-1.5-.673-1.5-1.5v-.5h-12.5c-.276 0-.5-.224-.5-.5s.224-.5.5-.5h12.5v-.5c0-.827.673-1.5 1.5-1.5s1.5.673 1.5 1.5zm-1 0c0-.275-.224-.5-.5-.5s-.5.225-.5.5v2c0 .275.224.5.5.5s.5-.225.5-.5zm8.5.5h-5c-.276 0-.5.224-.5.5s.224.5.5.5h5c.276 0 .5-.224.5-.5s-.224-.5-.5-.5z"/></svg>