<?xml version="1.0" encoding="UTF-8"?>
<svg xmlns="http://www.w3.org/2000/svg" id="Layer_1" data-name="Layer 1" viewBox="0 0 24 24">
  <path d="M24,22c0,1.103-.897,2-2,2h-6.455c-1.366,0-2.661-.599-3.554-1.642-3.502-4.092-6.676-6.806-8.492-7.26-2.224-.556-3.499-1.987-3.499-3.928,0-1.6,.884-2.332,1.74-3.04,.53-.438,1.079-.893,1.436-1.587L6.125,.288c.117-.251,.415-.356,.666-.239,.25,.117,.356,.416,.239,.665l-2.957,6.271c-.458,.893-1.116,1.437-1.695,1.916-.8,.662-1.377,1.141-1.377,2.27,0,1.977,1.718,2.701,2.742,2.957,2.792,.699,6.843,5.049,9.009,7.58,.703,.821,1.721,1.292,2.794,1.292h6.455c.551,0,1-.448,1-1s-.449-1-1-1h-1.493c-.8,0-1.554-.378-2.017-1.012-1.21-1.658-2.235-3.335-3.226-4.958-.876-1.434-1.704-2.788-2.565-3.968-.764-1.047-.909-2.412-.377-3.563L15.649,.303c.116-.251,.413-.359,.664-.244,.25,.116,.36,.413,.244,.664l-3.327,7.196c-.379,.821-.273,1.8,.277,2.554,.886,1.213,1.724,2.584,2.611,4.037,.98,1.604,1.995,3.265,3.18,4.889,.275,.377,.728,.602,1.209,.602h1.493c1.103,0,2,.897,2,2Z"/>
</svg>
