<?xml version="1.0" encoding="UTF-8"?>
<svg xmlns="http://www.w3.org/2000/svg" id="Layer_1" data-name="Layer 1" viewBox="0 0 24 24">
  <path d="M17.5,11c-3.584,0-6.5,2.916-6.5,6.5s2.916,6.5,6.5,6.5,6.5-2.916,6.5-6.5-2.916-6.5-6.5-6.5Zm0,12c-3.033,0-5.5-2.468-5.5-5.5s2.467-5.5,5.5-5.5,5.5,2.468,5.5,5.5-2.467,5.5-5.5,5.5Zm3.35-6.857c.192,.198,.187,.515-.012,.707l-2.703,2.614c-.36,.355-.835,.533-1.311,.533s-.949-.177-1.312-.531l-1.364-1.347c-.197-.193-.199-.51-.005-.707,.193-.195,.511-.198,.707-.004l1.363,1.345c.337,.33,.885,.326,1.223-.004l2.706-2.618c.199-.191,.516-.187,.707,.012Zm-11.85-5.143l.005,.639c.037,2.95,.097,7.889-5.237,11.283-.083,.053-.176,.078-.268,.078-.166,0-.327-.082-.422-.231-.148-.233-.08-.542,.153-.69,4.864-3.096,4.81-7.508,4.774-10.427l-.005-.651c0-1.654,1.346-3,3-3,1.193,0,2.272,.707,2.75,1.8,.111,.253-.005,.548-.258,.658-.253,.114-.548-.005-.658-.258-.319-.729-1.039-1.2-1.834-1.2-1.103,0-2,.897-2,2Zm8.686-2.149c.083,.263-.064,.544-.328,.626-.05,.016-.1,.023-.149,.023-.213,0-.41-.137-.477-.351-.778-2.482-3.047-4.149-5.646-4.149-1.676,0-3.282,.719-4.405,1.972-.185,.207-.5,.223-.706,.039-.206-.185-.223-.5-.039-.706,1.312-1.465,3.189-2.305,5.15-2.305,3.039,0,5.691,1.949,6.6,4.851Zm-12.686,2.149c0,6.695-3.029,8.504-4.332,8.971-.056,.02-.112,.029-.168,.029-.205,0-.397-.127-.471-.331-.093-.26,.042-.547,.302-.64,.86-.309,3.668-1.799,3.668-8.029,0-.182,.007-.363,.022-.542,.023-.274,.262-.488,.54-.457,.275,.022,.479,.264,.457,.54-.013,.151-.019,.304-.019,.458ZM0,13.5v-2.5C0,4.935,4.935,0,11,0c2.4,0,4.683,.763,6.601,2.206,.221,.166,.265,.479,.099,.7-.165,.22-.479,.265-.7,.099-1.744-1.312-3.818-2.005-6-2.005C5.486,1,1,5.486,1,11v2.5c0,.276-.224,.5-.5,.5s-.5-.224-.5-.5ZM20,6.645c-.121-.249-.017-.548,.231-.668,.25-.12,.548-.017,.668,.231,.573,1.179,.926,2.439,1.05,3.746,.026,.275-.175,.519-.45,.545-.016,.002-.032,.002-.048,.002-.255,0-.473-.194-.497-.453-.113-1.188-.434-2.333-.955-3.403Z"/>
</svg>
