<svg id="Layer_1" viewBox="0 0 24 24" xmlns="http://www.w3.org/2000/svg" data-name="Layer 1"><path d="m8.989 13.654c-.055.273-.329.444-.592.387l-5-1.052c-.27-.057-.443-.322-.386-.592.056-.27.324-.444.592-.386l5 1.052c.27.057.443.322.386.592zm-.386-4.592-5-1.052c-.268-.058-.536.116-.592.386-.057.271.116.536.386.592l5 1.052c.263.057.537-.114.592-.386.057-.271-.116-.536-.386-.592zm-1.994 7.623-3-.674c-.269-.058-.537.109-.597.379s.109.537.378.598l3 .674c.263.06.538-.107.597-.379.061-.27-.109-.537-.378-.598zm1.994-11.623-5-1.052c-.268-.057-.536.116-.592.386-.057.271.116.536.386.592l5 1.052c.263.057.537-.114.592-.386.057-.271-.116-.536-.386-.592zm14.579 8.531c.537.782.818 1.679.818 2.613 0 1.642-.871 3.155-2.289 4.003-.622 2.258-2.65 3.79-5.007 3.79-1.732 0-3.258-.833-4.205-2.138v.262c0 .555-.236 1.057-.664 1.414-.351.293-.799.462-1.197.462-.077 0-6.795-1.214-6.795-1.214-2.228-.405-3.844-2.342-3.844-4.606v-13.496c.001-1.392.614-2.703 1.683-3.595.934-.779 1.818-1.088 3.318-1.088.173 0 .346.046.519.077l3.995.726c.962.175 1.767.725 2.302 1.476.579-1.324 1.899-2.254 3.434-2.254 1.792 0 3.324 1.299 3.664 3.029 1.72.229 2.995 1.792 2.995 3.744 0 .1-.005.198-.015.294 1.307.865 2.105 2.325 2.105 3.887 0 .935-.282 1.831-.818 2.614zm-11.682-9.212c0-1.275-.91-2.366-2.165-2.594l-3.995-.726c-.221-.04-.442-.06-.662-.06-.854 0-1.687.297-2.355.855-.841.702-1.323 1.732-1.323 2.827v13.497c0 1.78 1.271 3.304 3.023 3.622l6.57 1.195c.097.018.368-.03.602-.227.202-.169.305-.387.305-.646zm10.669 8.898c.543-.672.831-1.468.831-2.299 0-1.316-.725-2.541-1.892-3.196-.186-.104-.285-.315-.247-.524.027-.15.048-.303.048-.461 0-1.363-.901-2.773-2.409-2.773-.261 0-.504-.201-.524-.461-.11-1.423-1.307-2.539-2.726-2.539-1.517 0-2.75 1.233-2.75 2.75v15.046c0 2.318 1.886 4.204 4.205 4.204 1.963 0 3.645-1.34 4.087-3.258.033-.141.124-.261.251-.328 1.207-.647 1.957-1.886 1.957-3.232 0-.831-.287-1.626-.831-2.299-.148-.184-.148-.445 0-.629z"/></svg>