<?xml version="1.0" encoding="UTF-8"?>
<svg xmlns="http://www.w3.org/2000/svg" id="Layer_1" data-name="Layer 1" viewBox="0 0 24 24">
  <path d="M18.5,5c1.379,0,2.5-1.121,2.5-2.5s-1.121-2.5-2.5-2.5-2.5,1.121-2.5,2.5,1.121,2.5,2.5,2.5Zm0-4c.827,0,1.5,.673,1.5,1.5s-.673,1.5-1.5,1.5-1.5-.673-1.5-1.5,.673-1.5,1.5-1.5Zm5.474,16.151l-1.66-8.044c-.371-1.801-1.975-3.107-3.813-3.107s-3.442,1.307-3.813,3.107l-1.667,8.082c-.089,.712,.132,1.428,.606,1.965,.474,.537,1.157,.846,1.874,.846h.5v3.5c0,.276,.224,.5,.5,.5s.5-.224,.5-.5v-3.5h3v3.5c0,.276,.224,.5,.5,.5s.5-.224,.5-.5v-3.5h.5c.717,0,1.4-.309,1.874-.846,.475-.537,.695-1.253,.6-2.003Zm-1.349,1.341c-.285,.323-.695,.508-1.125,.508h-6c-.43,0-.84-.185-1.125-.508-.284-.322-.417-.752-.37-1.14l1.66-8.044c.276-1.338,1.469-2.309,2.835-2.309s2.559,.971,2.835,2.309l1.653,8.006c.054,.426-.079,.855-.363,1.178ZM13.56,5.737L11.158,1.276c-.277-.426-.712-.331-.917-.002l-1.774,3.333c-.129,.243-.433,.336-.675,.206L2.263,1.885c-.297-.106-.494,.096-.372,.389l3.473,5.155c.173,.243,.069,.615-.205,.733l-4.017,1.854c-.208,.156-.204,.344,.022,.491l3.907,1.612c.264,.102,.389,.439,.254,.689l-2.006,3.935c-.023,.292,.145,.477,.483,.414l4.097-1.548c.234-.089,.499,.011,.618,.231l1.811,3.382c.087,.163,.217,.229,.31,.256,.266,.076,.419,.353,.343,.618-.063,.22-.263,.362-.48,.362-.046,0-.092-.006-.138-.02-.395-.113-.72-.377-.917-.744l-1.604-2.995-3.7,1.397c-1.055,.406-2.157-.714-1.737-1.755l1.784-3.506-3.418-1.411c-.988-.392-1.021-1.878-.059-2.312l3.495-1.613L1.046,2.808C.342,1.726,1.63,.374,2.732,1.002L7.818,3.696l1.54-2.892c.52-1.058,2.16-1.058,2.681,0l2.401,4.459c.131,.243,.04,.547-.203,.678-.242,.128-.546,.039-.678-.203Z"/>
</svg>
