<svg id="Layer_1" viewBox="0 0 24 24" xmlns="http://www.w3.org/2000/svg" data-name="Layer 1"><path d="m24 4.5v2c0 2.481-2.019 4.5-4.5 4.5h-4c-.276 0-.5-.224-.5-.5s.224-.5.5-.5h4c1.93 0 3.5-1.57 3.5-3.5v-2c0-1.93-1.57-3.5-3.5-3.5h-15c-1.93 0-3.5 1.57-3.5 3.5v2c0 1.93 1.57 3.5 3.5 3.5h1c.276 0 .5.224.5.5s-.224.5-.5.5h-1c-2.481 0-4.5-2.019-4.5-4.5v-2c0-2.481 2.019-4.5 4.5-4.5h15c2.481 0 4.5 2.019 4.5 4.5zm-9.5 3v-4c0-.276-.224-.5-.5-.5s-.5.224-.5.5v4c0 .276.224.5.5.5s.5-.224.5-.5zm-8.5.5c-.276 0-.5-.224-.5-.5v-3.5c0-.649.516-1 1-1h.5c.827 0 1.5.673 1.5 1.5s-.673 1.5-1.5 1.5h-.5v1.5c0 .276-.224.5-.5.5zm.5-3h.5c.275 0 .5-.225.5-.5s-.225-.5-.5-.5h-.5zm11.376.712.593 1.615c.095.26-.038.547-.297.643-.253.093-.547-.035-.643-.297l-.615-1.673h-.416v1.5c0 .276-.224.5-.5.5s-.5-.224-.5-.5v-3.5c0-.649.516-1 1-1h.5c.827 0 1.5.673 1.5 1.5 0 .499-.248.939-.624 1.212zm-1.376-.712h.5c.275 0 .5-.225.5-.5s-.225-.5-.5-.5h-.5zm-5 2.5v-1h-1v1c0 .276-.224.5-.5.5s-.5-.224-.5-.5v-3c0-.827.673-1.5 1.5-1.5s1.5.673 1.5 1.5v3c0 .276-.224.5-.5.5s-.5-.224-.5-.5zm0-2v-1c0-.275-.225-.5-.5-.5s-.5.225-.5.5v1zm7.275 13.526-5.777-1.925v-5.494c0-1.273-.896-2.38-2.084-2.573-.729-.119-1.476.085-2.035.561-.56.477-.881 1.171-.881 1.905v8.435l-.11.054-1.72-1.344s-.004-.001-.006-.003c-1.008-.904-2.562-.845-3.49.149-.941 1.007-.894 2.588.106 3.524l1.64 1.549c.092.087.214.135.341.135.448 0 .667-.547.342-.856l-1.634-1.552c-.599-.562-.629-1.514-.064-2.118.561-.602 1.509-.635 2.115-.073.005.004.027.025.035.031l1.719 1.344c.325.255.757.3 1.126.119.371-.18.601-.548.601-.96v-8.434c0-.44.192-.857.529-1.144.342-.29.774-.407 1.227-.336.709.116 1.244.798 1.244 1.587v5.854c0 .215.138.406.342.475l6.119 2.039c1.52.506 2.541 1.922 2.541 3.524 0 .276.224.5.5.5s.5-.224.5-.5c0-2.033-1.296-3.831-3.225-4.474z"/></svg>