<svg id="Layer_1" viewBox="0 0 24 24" xmlns="http://www.w3.org/2000/svg" data-name="Layer 1"><path d="m17.103 10.187c.204.494.682.813 1.216.813h4.363c.534 0 1.012-.319 1.216-.813.205-.494.093-1.058-.285-1.436l-2.181-2.181c-.514-.513-1.35-.515-1.863 0l-2.181 2.181c-.378.378-.49.941-.285 1.436zm.992-.729 2.181-2.181c.123-.124.326-.124.449 0l2.181 2.181c.216.219.095.542-.224.542h-4.363c-.318 0-.424-.315-.224-.542zm4.587 3.542h-4.363c-.534 0-1.012.319-1.216.813-.205.494-.093 1.058.285 1.436l2.181 2.181c.257.257.594.385.932.385s.675-.128.932-.385l2.181-2.181c.378-.378.49-.941.285-1.436-.204-.494-.682-.813-1.216-.813zm.224 1.542-2.181 2.181c-.123.124-.326.124-.449 0l-2.181-2.181c-.201-.237-.121-.542.224-.542h4.363c.317 0 .461.304.224.542zm-4.405 4.458c-.276 0-.5.224-.5.5 0 1.93-1.57 3.5-3.5 3.5h-4.5v-22h4.5c1.93 0 3.5 1.57 3.5 3.5 0 .276.224.5.5.5s.5-.224.5-.5c0-2.481-2.019-4.5-4.5-4.5h-10c-2.482 0-4.501 2.019-4.501 4.5v15c0 2.481 2.019 4.5 4.501 4.5h10c2.481 0 4.5-2.019 4.5-4.5 0-.276-.224-.5-.5-.5zm-17.5.5v-15c0-1.93 1.57-3.5 3.5-3.5h4.5v22h-4.5c-1.93 0-3.5-1.57-3.5-3.5z"/></svg>