<svg id="Layer_1" viewBox="0 0 24 24" xmlns="http://www.w3.org/2000/svg" data-name="Layer 1"><path d="m13.436 22.907c-.409.053-.823.072-1.235.08-.56-.588-2.672-2.926-4.03-5.987h3.33c.276 0 .5-.224.5-.5s-.224-.5-.5-.5h-3.732c-.461-1.262-.768-2.615-.768-4s.308-2.737.769-4h8.459c.409 1.119.701 2.305.76 3.524.013.268.233.476.499.476h.024c.275-.014.488-.248.475-.524-.059-1.206-.319-2.373-.689-3.476h4.944c.204.518.375 1.053.498 1.608.06.269.325.441.597.38.27-.06.439-.327.38-.597-1.208-5.44-6.133-9.389-11.713-9.391 0 0 0 0-.001 0h-.002s-.001 0-.002 0c0 0 0 0-.001 0-6.617.002-11.998 5.384-11.998 12s5.383 12 12 12c.52 0 1.047-.034 1.564-.101.273-.035.467-.286.432-.561-.036-.273-.283-.471-.561-.432zm-5.264-15.907c1.228-2.765 3.07-4.941 3.828-5.771.758.829 2.597 3.008 3.825 5.771zm13.622 0h-4.87c-1.081-2.628-2.72-4.768-3.718-5.924 3.682.413 6.917 2.682 8.587 5.924zm-10.994-5.931c-.997 1.153-2.638 3.297-3.722 5.931h-4.864c1.651-3.218 4.835-5.522 8.586-5.931zm-9.036 6.931h4.941c-.424 1.262-.705 2.609-.705 4s.281 2.738.705 4h-4.941c-.487-1.242-.764-2.588-.764-4s.277-2.758.764-4zm.45 9h4.864c1.084 2.635 2.724 4.778 3.722 5.931-3.751-.409-6.934-2.714-8.585-5.931zm20.786-1s0 0 0 0v-3.5c.008-.335-.322-.547-.633-.5-.223 0-.419.147-.48.362-.299 1.042-1.169 1.638-2.386 1.638h-2.5c-1.654 0-3 1.346-3 3 0 .64.205 1.232.549 1.719l1.69 4.307c.232.592.793.974 1.429.974 1.053.031 1.844-1.141 1.423-2.106l-.76-1.894h1.171c1.218 0 2.087.597 2.386 1.638.073.273.35.392.613.362.276 0 .5-.224.5-.5v-3.5s0 0 0 0c.551 0 1-.449 1-1s-.449-1-1-1zm-4.838 6.267c.067.168.048.35-.053.498-.223.334-.794.271-.939-.104l-1.109-2.826c.297.099.609.165.939.165h.252zm1.338-3.267h-2.5c-1.103 0-2-.897-2-2s.897-2 2-2h2.5c1.021 0 1.885-.33 2.5-.924v5.847c-.615-.594-1.479-.923-2.5-.923z"/></svg>