<?xml version="1.0" encoding="UTF-8"?>
<svg xmlns="http://www.w3.org/2000/svg" id="Layer_1" data-name="Layer 1" viewBox="0 0 24 24">
  <path d="M19.5,4H4.5C2.019,4,0,6.019,0,8.5v7c0,2.481,2.019,4.5,4.5,4.5h15c2.481,0,4.5-2.019,4.5-4.5v-7c0-2.481-2.019-4.5-4.5-4.5Zm3.5,11.5c0,1.93-1.57,3.5-3.5,3.5H4.5c-1.93,0-3.5-1.57-3.5-3.5v-7c0-1.93,1.57-3.5,3.5-3.5h15c1.93,0,3.5,1.57,3.5,3.5v7Zm-3.938-5.526h-5.124c-.545,0-1.031,.326-1.237,.83-.207,.505-.089,1.078,.3,1.46l2.214,2.178c.354,.354,.82,.531,1.286,.531s.93-.176,1.284-.529l2.216-2.18c.389-.382,.506-.955,.3-1.46-.207-.504-.692-.83-1.237-.83Zm.236,1.577l-2.217,2.181-.003,.003c-.319,.319-.838,.319-1.16-.003l-2.217-2.181c-.146-.144-.102-.305-.076-.368,.026-.062,.108-.209,.312-.209h5.124c.204,0,.286,.146,.312,.209,.026,.063,.07,.225-.076,.368Z"/>
</svg>
