<svg id="Layer_1" viewBox="0 0 24 24" xmlns="http://www.w3.org/2000/svg" data-name="Layer 1"><path d="m21 12v2.143c0 .473-.385.857-.857.857h-2.143c-.276 0-.5-.224-.5-.5s.224-.5.5-.5h1.479c-.466-.615-1.186-1-1.979-1-1.058 0-2.005.67-2.357 1.667-.093.263-.385.395-.639.305-.26-.093-.396-.378-.305-.639.494-1.396 1.82-2.333 3.301-2.333.961 0 1.853.4 2.5 1.063v-1.063c0-.276.224-.5.5-.5s.5.224.5.5zm3 .682v3.901c-.215 4.397-3.167 6.204-5.368 7.184-.351.155-.722.233-1.092.233-.437 0-.871-.108-1.27-.322-2.164-1.163-5.063-3.16-5.27-7.068v-3.928c0-1.512.963-2.847 2.398-3.322l3.157-1.046c.617-.205 1.271-.205 1.888 0l3.158 1.047c1.435.475 2.398 1.811 2.398 3.322zm-.999 3.876v-3.876c0-1.08-.689-2.034-1.714-2.373l-3.158-1.047c-.412-.137-.847-.137-1.259 0l-3.157 1.046c-1.024.34-1.713 1.293-1.713 2.373v3.901c.177 3.341 2.628 5.078 4.743 6.215.462.248 1.002.27 1.482.056 2.126-.945 4.59-2.516 4.775-6.295zm-10.515 6.421c.065.268-.099.538-.367.604-1.134.276-2.351.417-3.619.417-4.767 0-8.5-1.977-8.5-4.5v-15c0-2.523 3.733-4.5 8.5-4.5s8.5 1.977 8.5 4.5-3.733 4.5-8.5 4.5c-3.287 0-6.081-.94-7.5-2.351v2.851c0 1.897 3.435 3.5 7.5 3.5.276 0 .5.224.5.5s-.224.5-.5.5c-3.287 0-6.081-.94-7.5-2.351v2.851c0 1.897 3.435 3.5 7.5 3.5.276 0 .5.224.5.5s-.224.5-.5.5c-3.287 0-6.081-.94-7.5-2.351v2.851c0 1.897 3.435 3.5 7.5 3.5 1.188 0 2.326-.131 3.381-.388.269-.066.539.099.604.367zm-11.486-18.479c0 1.897 3.435 3.5 7.5 3.5s7.5-1.603 7.5-3.5-3.435-3.5-7.5-3.5-7.5 1.603-7.5 3.5zm19.496 11.528c-.261-.091-.546.045-.639.305-.353.997-1.3 1.667-2.357 1.667-.784 0-1.506-.389-1.974-1h1.474c.276 0 .5-.224.5-.5s-.224-.5-.5-.5h-2.143c-.473 0-.857.385-.857.857v2.143c0 .276.224.5.5.5s.5-.224.5-.5v-1.063c.65.663 1.548 1.063 2.5 1.063 1.48 0 2.807-.938 3.301-2.333.092-.261-.045-.546-.305-.639z"/></svg>