<svg id="Layer_1" viewBox="0 0 24 24" xmlns="http://www.w3.org/2000/svg" data-name="Layer 1"><path d="m10.5 6.5c0-1.379-1.122-2.5-2.5-2.5s-2.5 1.121-2.5 2.5 1.122 2.5 2.5 2.5 2.5-1.121 2.5-2.5zm-4 0c0-.827.673-1.5 1.5-1.5s1.5.673 1.5 1.5-.673 1.5-1.5 1.5-1.5-.673-1.5-1.5zm1.5 3.5c1.995 0 3.712 1.474 3.995 3.429.04.273-.15.526-.423.566-.268.039-.528-.149-.566-.424-.212-1.466-1.504-2.571-3.005-2.571s-2.793 1.105-3.005 2.571c-.039.273-.29.459-.566.424-.273-.04-.463-.293-.423-.566.282-1.955 2-3.429 3.995-3.429zm7.5 3c-.276 0-.5.224-.5.5v3.5h-14v-12.5c0-1.93 1.57-3.5 3.5-3.5h7c.276 0 .5-.224.5-.5s-.224-.5-.5-.5h-7c-2.481 0-4.5 2.019-4.5 4.5v15c0 2.481 2.019 4.5 4.5 4.5h7c2.481 0 4.5-2.019 4.5-4.5v-6c0-.276-.224-.5-.5-.5zm-4 10h-7c-1.93 0-3.5-1.57-3.5-3.5v-1.5h14v1.5c0 1.93-1.57 3.5-3.5 3.5zm-1.5-2.5c0 .276-.224.5-.5.5h-3c-.276 0-.5-.224-.5-.5s.224-.5.5-.5h3c.276 0 .5.224.5.5zm11.5-20.5-5 .002c-1.379 0-2.5 1.121-2.5 2.5v7.359c.001.438.246.83.638 1.023.391.193.852.15 1.201-.118l2.303-1.767h3.358c1.378 0 2.5-1.121 2.5-2.5v-3.999c0-1.379-1.122-2.5-2.5-2.5zm1.5 6.5c0 .827-.673 1.5-1.5 1.5h-3.528c-.11 0-.217.036-.304.104l-2.438 1.87c-.107.07-.219.016-.23-.112v-7.36c0-.827.673-1.502 1.5-1.502h5c.827 0 1.5.673 1.5 1.5z"/></svg>