<?xml version="1.0" encoding="UTF-8"?>
<svg xmlns="http://www.w3.org/2000/svg" id="Layer_1" data-name="Layer 1" viewBox="0 0 24 24">
  <path d="m20.918,15.935c-.206-.771-.766-1.382-1.536-1.677-1.618-.618-3.689-.945-4.956-1.1,2.144-1.527,3.574-4.814,3.574-7.158,0-3.309-2.691-6-6-6s-6,2.691-6,6c0,2.344,1.43,5.63,3.573,7.157-1.241.152-3.327.479-4.955,1.101-.77.294-1.33.905-1.536,1.676-.205.767-.028,1.567.483,2.196,1.043,1.281,2.316,2.966,3.344,4.869h-1.409c-.276,0-.5.224-.5.5s.224.5.5.5h13c.276,0,.5-.224.5-.5s-.224-.5-.5-.5h-1.409c1.028-1.902,2.3-3.587,3.343-4.869.513-.629.689-1.429.484-2.196ZM7,6c0-2.757,2.243-5,5-5s5,2.243,5,5-2.24,7-5,7-5-4.236-5-7Zm12.658,11.5c-1.158,1.422-2.602,3.325-3.705,5.5h-7.907c-1.104-2.178-2.548-4.079-3.706-5.5-.117-.144-.195-.304-.252-.47,1.553,1.04,4.848,2.97,7.911,2.97,1.533,0,3.289-.477,5.219-1.416.248-.121.352-.42.23-.668-.12-.249-.423-.35-.668-.231-1.792.873-3.401,1.315-4.781,1.315-3.154,0-6.671-2.303-7.823-3.124.168-.307.446-.549.799-.684,1.692-.647,4.03-.965,4.929-1.069l2.066-.124,2.097.122c.927.107,3.264.424,4.957,1.071.467.179.806.543.928,1.001.12.453.014.93-.294,1.307Z"/>
</svg>
