<svg id="Layer_1" viewBox="0 0 24 24" xmlns="http://www.w3.org/2000/svg" data-name="Layer 1"><path d="m23.955 1.771c-.119-.449-.458-.791-.905-.916l-2.773-.774c-.759-.214-1.577.003-2.134.56l-1.175 1.175c-.926-.47-2.085-.332-2.86.438-2.677 2.663-12.477 12.33-12.496 12.35-1.177 1.176-1.753 2.8-1.582 4.456s1.084 3.139 2.505 4.068c.89.582 1.924.872 2.958.872 1.103 0 2.208-.33 3.141-.986 1.185-.834 1.986-2.061 2.258-3.458.455-2.346 1.394-4.243 2.79-5.639 1.02-1.021 5.401-5.32 6.085-6.004.477-.476.715-1.101.719-1.727.339-.342 2.228-2.247 3.139-3.171.327-.331.45-.796.331-1.245zm-4.896 5.437c-.682.681-5.062 4.981-6.085 6.004-1.539 1.539-2.57 3.609-3.065 6.155-.221 1.141-.879 2.146-1.851 2.83-1.476 1.037-3.475 1.077-4.977.095-1.167-.763-1.917-1.978-2.057-3.334-.141-1.355.331-2.684 1.295-3.648.029-.029 9.816-9.683 12.494-12.347.286-.285.661-.427 1.037-.427s.754.144 1.04.43l2.167 2.166c.278.278.432.647.432 1.039s-.152.761-.43 1.038zm3.854-4.894c-.705.715-1.999 2.021-2.707 2.735-.114-.224-.254-.438-.441-.625l-1.996-1.995 1.082-1.082c.303-.303.748-.418 1.157-.304l2.773.774c.148.041.195.161.208.211.014.049.032.176-.076.286zm-16.181 11.333-2.086 2.085c-.585.585-.585 1.536 0 2.12.292.292.677.438 1.061.438s.769-.146 1.061-.438l2.086-2.085c.585-.585.585-1.536 0-2.12-.584-.585-1.537-.585-2.121 0zm1.414 1.413-2.086 2.085c-.195.195-.512.195-.707 0s-.195-.512 0-.707l2.086-2.085c.195-.195.512-.195.707 0s.195.512 0 .707z"/></svg>