<svg id="Layer_1" viewBox="0 0 24 24" xmlns="http://www.w3.org/2000/svg" data-name="Layer 1"><path d="m23 13.003c.002.301-.03.6-.094.89-.06.27.111.536.381.596.263.06.537-.11.596-.381.08-.362.117-.735.117-1.107 0-2.923-2.243-5-5-5v-1c0-3.859-3.141-7-7-7s-7 3.14-7 6.999v1c-2.757 0-5 2.231-5 4.997 0 2.405 1.759 4.715 4.172 5.004.975.018 1.853-.858 1.828-1.84v-9.161c0-3.309 2.691-6 6-6s6 2.691 6 6v6.5c0 .276.224.5.5.5s.5-.224.5-.5v-4.5c2.206 0 4 1.794 4 4.003zm-18 3.158c0 .266-.122.511-.336.671-.209.158-.47.208-.722.136-1.715-.492-2.952-2.16-2.942-3.968 0-2.206 1.794-4 4-4zm5-.161h-1c-.552 0-1 .448-1 1v6.5c0 .276.224.5.5.5s.5-.224.5-.5v-2.5h1c1.379 0 2.5-1.121 2.5-2.5s-1.121-2.5-2.5-2.5zm0 4h-1v-3h1c.827 0 1.5.673 1.5 1.5s-.673 1.5-1.5 1.5zm11.5-4h-1c-.552 0-1 .448-1 1v6.5c0 .276.224.5.5.5s.5-.224.5-.5v-2.5h1c1.379 0 2.5-1 2.5-2.5 0-1.379-1.121-2.5-2.5-2.5zm0 4h-1v-3h1c.827 0 1.5.673 1.5 1.5s-.673 1.5-1.5 1.5zm-5.5-4c-1.379 0-2.5 1.121-2.5 2.5v3c0 1.379 1.121 2.5 2.5 2.5s2.5-1.121 2.5-2.5v-3c0-1.379-1.121-2.5-2.5-2.5zm1.5 5.5c0 .827-.673 1.5-1.5 1.5s-1.5-.673-1.5-1.5v-3c0-.827.673-1.5 1.5-1.5s1.5.673 1.5 1.5zm-8.5-15v2.5h1.494l1.04-2.681c.099-.259.391-.387.646-.285.258.1.386.39.285.646l-1.184 3.053 1.192 3.609c.087.263-.056.545-.317.632-.256.086-.546-.053-.632-.317l-1.208-3.657h-1.317v3.5c0 .276-.224.5-.5.5s-.5-.224-.5-.5v-7c0-.276.224-.5.5-.5s.5.224.5.5zm4.5 3.5c-.276 0-.5-.224-.5-.5s.224-.5.5-.5h1c.276 0 .5.224.5.5s-.224.5-.5.5z"/></svg>