<svg id="Layer_1" viewBox="0 0 24 24" xmlns="http://www.w3.org/2000/svg" data-name="Layer 1"><path d="m13.124 11.504c-.621-.607-1.629-.606-2.248 0l-1.705 1.667c-.755.755-1.171 1.76-1.171 2.828s.416 2.073 1.171 2.828c.756.756 1.76 1.172 2.829 1.172s2.072-.416 2.828-1.172c.756-.755 1.172-1.76 1.172-2.828s-.416-2.073-1.176-2.832l-1.7-1.664zm.997 6.617c-1.133 1.132-3.11 1.132-4.243 0-.566-.566-.878-1.319-.878-2.121s.312-1.555.875-2.117l1.701-1.664c.117-.115.271-.172.425-.172s.308.057.425.172l1.696 1.66c.566.566.879 1.319.879 2.121s-.313 1.555-.879 2.121zm5.379-10.121h-1.972c-.272 0-.497-.222-.5-.495l-.025-2.552c1.156-.219 2.034-1.234 2.034-2.453 0-1.378-1.121-2.5-2.5-2.5h-9.037c-1.378 0-2.5 1.122-2.5 2.5 0 1.207.86 2.217 2 2.449v2.551c0 .276-.224.5-.5.5h-2c-2.481 0-4.5 2.019-4.5 4.5v7c0 2.481 2.019 4.5 4.5 4.5h15c2.481 0 4.5-2.019 4.5-4.5v-7c0-2.481-2.019-4.5-4.5-4.5zm-13.5-5.5c0-.827.673-1.5 1.5-1.5h9.038c.827 0 1.5.673 1.5 1.5s-.673 1.5-1.5 1.5h-9.038c-.827 0-1.5-.673-1.5-1.5zm17 17c0 1.93-1.57 3.5-3.5 3.5h-15c-1.93 0-3.5-1.57-3.5-3.5v-7c0-1.93 1.57-3.5 3.5-3.5h2c.827 0 1.5-.673 1.5-1.5v-2.5h8.004l.024 2.515c.009.819.682 1.485 1.5 1.485h1.972c1.93 0 3.5 1.57 3.5 3.5z"/></svg>