<svg id="Layer_1" viewBox="0 0 24 24" xmlns="http://www.w3.org/2000/svg" data-name="Layer 1"><path d="m6.583 19.492c.556.556.556 1.46 0 2.016l-2.346 2.346c-.195.195-.512.195-.707 0s-.195-.512 0-.707l2.146-2.146h-2.176c-1.93 0-3.5-1.57-3.5-3.5v-3c0-.276.224-.5.5-.5s.5.224.5.5v3c0 1.378 1.122 2.5 2.5 2.5h2.176l-2.146-2.146c-.195-.195-.195-.512 0-.707s.512-.195.707 0l2.346 2.346zm16.917-5.492c-.276 0-.5.224-.5.5v3c0 1.378-1.122 2.5-2.5 2.5h-2.176l2.146-2.146c.195-.195.195-.512 0-.707s-.512-.195-.707 0l-2.346 2.346c-.556.556-.556 1.46 0 2.016l2.346 2.346c.195.195.512.195.707 0s.195-.512 0-.707l-2.146-2.146h2.176c1.93 0 3.5-1.57 3.5-3.5v-3c0-.276-.224-.5-.5-.5zm-9.5 0c0 1.103-.897 2-2 2s-2-.897-2-2 .897-2 2-2 2 .897 2 2zm-1 0c0-.551-.449-1-1-1s-1 .449-1 1 .449 1 1 1 1-.449 1-1zm4.172 3.041c-.418.713-1.339.952-2.053.533l-.223-.131c-.408.34-.881.606-1.396.786v.271c0 .827-.673 1.5-1.5 1.5s-1.5-.673-1.5-1.5v-.271c-.515-.18-.988-.446-1.396-.786l-.223.131c-.714.419-1.634.179-2.053-.533-.203-.345-.26-.749-.159-1.137s.347-.713.692-.917l.234-.137c-.064-.3-.094-.576-.094-.85s.03-.551.094-.85l-.234-.137c-.345-.203-.591-.528-.692-.917-.101-.388-.044-.792.16-1.137.203-.345.528-.591.916-.692.388-.1.792-.044 1.137.159l.223.131c.408-.34.881-.606 1.396-.786v-.271c0-.827.673-1.5 1.5-1.5s1.5.673 1.5 1.5v.271c.515.18.988.446 1.396.786l.223-.131c.345-.203.75-.258 1.137-.159.388.101.713.347.917.692.203.345.26.749.159 1.136-.101.388-.347.713-.692.917l-.234.137c.064.3.094.576.094.85s-.03.551-.094.85l.234.137c.345.203.591.528.692.917.101.388.044.792-.16 1.137zm-1.595-4.564.556-.327c.235-.131.318-.455.178-.684-.132-.235-.456-.32-.685-.178l-.541.318c-.196.116-.446.083-.607-.078-.43-.43-.984-.743-1.603-.903-.221-.057-.375-.256-.375-.484v-.642c0-.276-.224-.5-.5-.5s-.5.224-.5.5v.642c0 .228-.154.427-.375.484-.619.16-1.173.473-1.603.903-.162.161-.411.194-.607.078l-.541-.318c-.23-.142-.552-.057-.684.177-.141.23-.058.553.177.685l.556.327c.196.115.29.349.228.568-.103.361-.151.664-.151.955s.048.594.151.955c.062.219-.031.453-.228.568l-.556.327c-.235.131-.318.455-.178.684.131.235.456.32.685.178l.541-.318c.195-.115.446-.084.607.078.429.43.983.742 1.603.903.221.057.375.256.375.484v.642c0 .276.224.5.5.5s.5-.224.5-.5v-.642c0-.228.154-.427.375-.484.619-.161 1.173-.473 1.603-.903.161-.162.411-.194.607-.078l.541.318c.228.143.553.056.684-.178.141-.229.058-.553-.177-.684l-.556-.327c-.196-.115-.29-.349-.228-.568.103-.361.151-.664.151-.955s-.048-.594-.151-.955c-.062-.219.031-.453.228-.568zm-13.577-9.477c0-1.654 1.346-3 3-3s3 1.346 3 3-1.346 3-3 3-3-1.346-3-3zm1 0c0 1.103.897 2 2 2s2-.897 2-2-.897-2-2-2-2 .897-2 2zm13 0c0-1.654 1.346-3 3-3s3 1.346 3 3-1.346 3-3 3-3-1.346-3-3zm1 0c0 1.103.897 2 2 2s2-.897 2-2-.897-2-2-2-2 .897-2 2zm.261 5.414c-.253.11-.37.405-.259.658s.403.371.658.259c.505-.219 1.042-.331 1.596-.331 1.693 0 3.209 1.072 3.773 2.667.091.263.384.396.638.305.26-.092.397-.377.305-.638-.705-1.994-2.6-3.333-4.716-3.333-.692 0-1.363.139-1.994.414zm-16.927 3.557c.254.092.546-.042.638-.305.564-1.595 2.08-2.667 3.773-2.667.555 0 1.091.111 1.595.331.254.11.547-.007.658-.259.11-.253-.006-.548-.259-.658-.631-.275-1.302-.414-1.995-.414-2.116.001-4.011 1.34-4.715 3.334-.092.26.044.546.305.638z"/></svg>