<?xml version="1.0" encoding="UTF-8"?>
<svg xmlns="http://www.w3.org/2000/svg" id="Layer_1" data-name="Layer 1" viewBox="0 0 24 24">
  <path d="M9,12c-3.309,0-6-2.691-6-6S5.691,0,9,0s6,2.691,6,6-2.691,6-6,6Zm0-11c-2.757,0-5,2.243-5,5s2.243,5,5,5,5-2.243,5-5S11.757,1,9,1ZM1,23.5v-.5c0-4.233,3.307-7.741,7.529-7.986,.276-.016,.486-.252,.47-.528-.016-.275-.251-.502-.528-.47C3.721,14.291,0,18.237,0,23v.5c0,.276,.224,.5,.5,.5s.5-.224,.5-.5Zm16.5,.5c-3.584,0-6.5-2.916-6.5-6.5s2.916-6.5,6.5-6.5,6.5,2.916,6.5,6.5-2.916,6.5-6.5,6.5Zm0-12c-3.033,0-5.5,2.468-5.5,5.5s2.467,5.5,5.5,5.5,5.5-2.468,5.5-5.5-2.467-5.5-5.5-5.5Zm.635,7.464l2.703-2.614c.198-.192,.204-.509,.012-.707-.191-.198-.507-.203-.707-.012l-2.706,2.618c-.336,.331-.885,.333-1.223,.004l-1.363-1.345c-.196-.194-.513-.192-.707,.004-.194,.197-.192,.514,.005,.707l1.364,1.347c.362,.354,.837,.531,1.312,.531s.951-.178,1.311-.533Z"/>
</svg>
