<?xml version="1.0" encoding="UTF-8"?>
<svg xmlns="http://www.w3.org/2000/svg" id="Layer_1" data-name="Layer 1" viewBox="0 0 24 24">
  <path d="M23.561,6.561l-4.204,4.289c-.098,.101-.228,.15-.357,.15-.126,0-.252-.048-.35-.143-.197-.193-.2-.51-.007-.707l4.067-4.15h-4.71c-3.033,0-5.5,2.468-5.5,5.5v12c0,.276-.224,.5-.5,.5s-.5-.224-.5-.5V11.5c0-3.032-2.467-5.5-5.5-5.5H1.29l4.067,4.15c.193,.197,.19,.514-.007,.707-.098,.095-.224,.143-.35,.143-.129,0-.259-.05-.357-.15L.436,6.557c-.279-.279-.436-.642-.436-1.057s.155-.776,.439-1.061L4.643,.15c.193-.2,.509-.2,.707-.008,.197,.193,.2,.51,.007,.707L1.29,5H6c2.699,0,5.019,1.653,6,4,.981-2.347,3.301-4,6-4h4.71L18.643,.85c-.193-.197-.19-.514,.007-.707,.198-.192,.513-.192,.707,.008l4.207,4.293c.279,.279,.436,.632,.436,1.057s-.155,.776-.439,1.061Z"/>
</svg>
