<?xml version="1.0" encoding="UTF-8"?>
<svg xmlns="http://www.w3.org/2000/svg" id="Layer_1" data-name="Layer 1" viewBox="0 0 24 24">
  <path d="M12,14c.276,0,.5,.224,.5,.5v3c0,.276-.224,.5-.5,.5s-.5-.224-.5-.5v-3c0-.276,.224-.5,.5-.5Zm-3.521-5.45c-.955-.954-1.479-2.213-1.479-3.55C6.945,2.312,9.312-.055,12,0c2.689-.055,5.055,2.312,5,5,0,1.336-.521,2.592-1.465,3.536l-1.795,1.756c-.959,.939-2.521,.939-3.48,0l-1.78-1.742Zm-.479-3.55c0,1.069,.42,2.077,1.183,2.839l1.776,1.738c.574,.562,1.508,.562,2.082,0l1.791-1.752c.752-.751,1.168-1.756,1.168-2.825,.044-2.15-1.85-4.044-4-4-2.15-.044-4.044,1.85-4,4Zm2,0c0-1.103,.897-2,2-2s2,.897,2,2-.897,2-2,2-2-.897-2-2Zm1,0c0,.551,.448,1,1,1s1-.449,1-1-.448-1-1-1-1,.449-1,1Zm12.928,13.507l-1.546-8.786c-.3-1.71-1.576-3.109-3.251-3.563-.269-.074-.541,.086-.613,.352-.072,.266,.085,.541,.352,.613,1.302,.354,2.294,1.442,2.528,2.771l1.546,8.787c.437,2.178-1.404,4.374-3.626,4.319h-6.817v-2.5c0-.276-.224-.5-.5-.5s-.5,.224-.5,.5v2.5H4.683c-2.22,.054-4.062-2.139-3.627-4.316l1.537-8.787c.234-1.334,1.23-2.424,2.537-2.777,.267-.072,.425-.347,.353-.613-.071-.266-.347-.424-.612-.353-1.681,.453-2.962,1.854-3.262,3.57L.071,18.512c-.555,2.768,1.789,5.558,4.611,5.488h14.635c2.824,.069,5.168-2.724,4.61-5.493Z"/>
</svg>
