<svg id="Layer_1" viewBox="0 0 24 24" xmlns="http://www.w3.org/2000/svg" data-name="Layer 1"><path d="m9.72 18.97c-1.897.694-3.577 1.04-4.943 1.04-1.65 0-2.845-.503-3.419-1.5-.638-1.107-.384-2.635.735-4.415.147-.233.455-.304.689-.158.234.147.304.456.157.689-.896 1.427-1.15 2.629-.715 3.385.75 1.304 3.624 1.312 7.152.02.259-.094.546.038.642.298.095.259-.039.547-.298.642zm12.895-.361c-.596.903-1.747 1.369-3.355 1.369-.292 0-.6-.016-.921-.046-.275-.026-.476-.271-.45-.546s.271-.469.545-.45c1.678.164 2.866-.15 3.347-.878.257-.39.318-.903.182-1.528-.393-1.795-2.301-4.137-5.002-6.265.033.573.056 1.151.056 1.736 0 .984-.052 1.931-.141 2.841-.002.018-.002.036-.006.054-.527 5.283-2.468 9.105-4.853 9.105-1.1 0-2.127-.778-2.971-2.252-.137-.239-.054-.545.186-.682.24-.138.546-.056.683.186.645 1.127 1.392 1.748 2.103 1.748 1.49 0 3.108-2.807 3.732-7.162-.161.108-.312.22-.477.327-.229.149-.541.084-.691-.149-.149-.231-.083-.541.149-.69.406-.262.793-.532 1.173-.804.072-.801.114-1.641.114-2.521 0-.858-.038-1.709-.112-2.53-.49-.35-1-.691-1.527-1.019-.676-.42-1.682-.982-2.339-1.326-.712.357-1.426.739-2.136 1.174-.613.376-1.206.772-1.772 1.178-.072.802-.114 1.642-.114 2.523 0 .853.041 1.702.114 2.528.37.264.749.525 1.14.776.232.149.299.459.15.691-.15.234-.462.298-.691.15-4.114-2.646-7.114-5.981-7.644-8.497-.187-.884-.075-1.644.332-2.259.72-1.092 2.243-1.545 4.406-1.31.274.029.473.276.443.551s-.285.472-.551.443c-1.742-.188-2.971.119-3.464.866-.254.384-.317.89-.188 1.502.375 1.781 2.297 4.151 5.007 6.291-.034-.574-.057-1.153-.057-1.735-.246-4.595 1.484-12 5-12 1.1 0 2.127.778 2.97 2.25.365.637.687 1.399.967 2.259 1.887-.516 3.572-.658 4.818-.338.891.227 1.532.671 1.905 1.318.651 1.132.373 2.696-.805 4.524-.151.234-.462.299-.691.149-.232-.149-.299-.459-.149-.69.948-1.473 1.225-2.71.779-3.485-.233-.404-.666-.689-1.285-.848-1.689-.43-4.434.142-7.37 1.449.59.324 1.256.705 1.751 1.012 4.309 2.681 7.462 6.102 8.034 8.714.197.898.087 1.67-.324 2.293zm-7.625-13.801c-.256-.784-.544-1.489-.871-2.059-.645-1.127-1.392-1.748-2.103-1.748-1.488 0-3.105 2.802-3.73 7.149.357-.24.722-.476 1.094-.704 1.903-1.165 3.824-2.048 5.61-2.637zm-2.99 11.192c-.552 0-1 .448-1 1s.448 1 1 1 1-.448 1-1-.448-1-1-1zm2.434-5.083c-.209-.915-.936-1.642-1.851-1.851-.762-.175-1.541 0-2.14.479-.599.478-.942 1.19-.942 1.955 0 .276.224.5.5.5s.5-.224.5-.5c0-.459.206-.887.566-1.174.365-.29.823-.391 1.294-.285.535.122.977.563 1.099 1.099.154.674-.143 1.348-.736 1.676-.766.422-1.223 1.154-1.223 1.96v.225c0 .276.224.5.5.5s.5-.224.5-.5v-.225c0-.436.264-.841.706-1.085.988-.545 1.482-1.66 1.228-2.773z"/></svg>