<?xml version="1.0" encoding="UTF-8"?>
<svg xmlns="http://www.w3.org/2000/svg" id="Layer_1" data-name="Layer 1" viewBox="0 0 24 24">
  <path d="m20.892,5.022c-.517,0-1.01.23-1.429.52.36-.534.783-1.055,1.271-1.558.123.01.277.018.454.018.649,0,1.577-.112,2.139-.675.591-.591.69-1.583.67-2.311-.016-.554-.461-.999-1.014-1.014-.72-.02-1.72.078-2.311.67-.731.731-.701,2.064-.653,2.617-.392.404-.729.806-1.03,1.204-.036-.61-.185-1.344-.662-1.821-.591-.591-1.585-.688-2.31-.67-.554.015-1,.461-1.015,1.014-.021.728.079,1.72.67,2.311.562.562,1.49.675,2.139.675.073,0,.14-.002.206-.005-.664,1.277-.923,2.454-.992,3.425l-2.09-.817c-.125-1.068-.611-1.904-1.418-2.309-1.381-.69-3.073-.131-3.781,1.284l-.787,1.898c-1.366-.243-2.577-1.13-3.467-1.787-.262-.193-.498-.367-.707-.503-.356-.234-.81-.251-1.181-.045-.375.208-.604.604-.595,1.036l.005.316c.003.232.008.518.016.814-.157-.145-.308-.286-.449-.418-.245-.229-.467-.437-.662-.608-.353-.309-.833-.372-1.257-.164C.229,8.329-.027,8.767.002,9.236c.281,4.466,1.68,7.677,3.59,9.764H1.5c-.419,0-.818.181-1.095.498-.267.306-.39.708-.336,1.104.192,1.432.972,2.563,1.581,3.097.259.227.585.342.917.342.372,0,.75-.144,1.05-.433l2.338-2.717c1.317.743,2.734,1.109,4.126,1.109,1.314,0,2.549-.512,3.478-1.442.929-.929,1.439-2.165,1.438-3.479l-.005-5.764,2.027-.76c.088,1.901.601,3.117.862,3.725.063.147.115.257.133.334.054.23.26.385.486.385.038,0,.077-.004.115-.013.269-.063.435-.333.372-.602-.027-.114-.094-.28-.188-.499-.279-.651-.799-1.864-.799-3.887,0-.824.147-1.644.43-2.448.401.471,1.375,1.47,2.462,1.47.917,0,1.764-.708,2.313-1.303.361-.391.361-1.003,0-1.394-.549-.595-1.396-1.303-2.313-1.303Zm.487-3.643c.261-.261.831-.403,1.577-.377.025,0,.041.016.042.042h0c.021.741-.116,1.315-.377,1.577-.34.341-1.1.392-1.618.376-.017-.514.036-1.277.376-1.618Zm-5,3.241c-.261-.261-.398-.835-.334-1.618.05-.001.099-.002.148-.002.668,0,1.185.136,1.428.379.34.34.394,1.104.376,1.618-.521.011-1.277-.036-1.618-.376Zm-12.3,3.398c.035-.019.088-.034.148.006.195.127.416.291.661.472.926.684,2.173,1.593,3.671,1.922l-.503,1.212c-.137.265-.432.412-.718.358-1.173-.22-2.321-.986-3.305-1.796-.018-.568-.024-1.384-.028-1.712l-.005-.323c-.002-.083.049-.123.079-.14Zm-1.188,14.902c-.164.157-.42.169-.583.026-.386-.338-1.083-1.24-1.249-2.478-.021-.151.053-.261.098-.313.087-.099.211-.156.342-.156h3.162c.146.12.291.24.441.348l-2.211,2.573Zm9.959-3.069c-.74.741-1.724,1.148-2.771,1.148-4.149,0-8.565-3.657-9.08-11.827-.006-.096.063-.141.093-.156.024-.012.047-.018.07-.018.031,0,.06.011.086.035.188.166.402.366.638.587,1.257,1.177,3.156,2.955,5.266,3.351.714.131,1.451-.228,1.808-.919l1.683-4.056c.447-.891,1.534-1.252,2.424-.806.8.402.92,1.379.92,1.926l.007,7.963c0,1.046-.406,2.031-1.146,2.771Zm9.62-12.811c-.576.624-1.152.981-1.579.981-.552,0-1.211-.583-1.596-1,.384-.417,1.041-1,1.596-1,.427,0,1.002.358,1.579.982.01.011.01.026,0,.037Z"/>
</svg>
