<?xml version="1.0" encoding="UTF-8"?>
<svg xmlns="http://www.w3.org/2000/svg" id="Layer_1" data-name="Layer 1" viewBox="0 0 24 24">
  <path d="M4.121,2.312c-.141-.237-.062-.544,.175-.685,.237-.142,.543-.063,.685,.175l1.186,2c.141,.237,.062,.544-.175,.685-.234,.139-.543,.064-.685-.175l-1.186-2ZM21.271,14.1c-1.417,1.82-4.965,4.9-9.271,4.9-3.917,0-7.619-2.505-9.4-4.833-.964-1.26-.962-3.009,.005-4.254,1.321-1.699,4.984-4.913,9.395-4.913,4.375,0,7.889,3.044,9.275,4.843,.97,1.258,.968,3.008-.004,4.257Zm-.788-3.646c-1.275-1.654-4.496-4.454-8.483-4.454-4.023,0-7.388,2.96-8.605,4.526-.688,.886-.689,2.133,0,3.033,1.176,1.536,4.487,4.441,8.606,4.441,3.92,0,7.176-2.837,8.482-4.514,.692-.889,.692-2.135,0-3.032Zm-4.483,1.546c0,2.206-1.794,4-4,4s-4-1.794-4-4,1.794-4,4-4,4,1.794,4,4Zm-1,0c0-1.654-1.346-3-3-3s-3,1.346-3,3,1.346,3,3,3,3-1.346,3-3ZM12,3c.276,0,.5-.224,.5-.5V.5c0-.276-.224-.5-.5-.5s-.5,.224-.5,.5V2.5c0,.276,.224,.5,.5,.5Zm6.008,1.487c.234,.139,.543,.064,.685-.175l1.186-2c.141-.237,.062-.544-.175-.685-.238-.141-.544-.063-.685,.175l-1.186,2c-.141,.237-.062,.544,.175,.685Zm.685,15.202c-.142-.238-.448-.316-.685-.175-.238,.141-.316,.448-.175,.685l1.186,2c.142,.24,.451,.315,.685,.175,.238-.141,.316-.448,.175-.685l-1.186-2Zm-6.693,1.312c-.276,0-.5,.224-.5,.5v2c0,.276,.224,.5,.5,.5s.5-.224,.5-.5v-2c0-.276-.224-.5-.5-.5Zm-6.008-1.487c-.237-.14-.544-.062-.685,.175l-1.186,2c-.141,.237-.062,.544,.175,.685,.234,.139,.543,.064,.685-.175l1.186-2c.141-.237,.062-.544-.175-.685Z"/>
</svg>
