<svg id="Layer_1" viewBox="0 0 24 24" xmlns="http://www.w3.org/2000/svg" data-name="Layer 1"><path d="m21.5 8c-1.379 0-2.5 1.122-2.5 2.5 0 1.207.86 2.217 2 2.449v4.051c0 2.757-2.243 5-5 5s-5-2.243-5-5v-3.025c3.351-.257 6-3.059 6-6.475v-3c0-2.481-2.019-4.5-4.5-4.5-.276 0-.5.224-.5.5s.224.5.5.5c1.93 0 3.5 1.57 3.5 3.5v3c0 3.033-2.468 5.5-5.5 5.5s-5.5-2.467-5.5-5.5v-3c0-1.93 1.57-3.5 3.5-3.5.276 0 .5-.224.5-.5s-.224-.5-.5-.5c-2.481 0-4.5 2.019-4.5 4.5v3c0 3.415 2.649 6.218 6 6.475v3.025c0 3.309 2.691 6 6 6s6-2.691 6-6v-4.051c1.14-.232 2-1.242 2-2.449 0-1.378-1.121-2.5-2.5-2.5zm0 4c-.827 0-1.5-.673-1.5-1.5s.673-1.5 1.5-1.5 1.5.673 1.5 1.5-.673 1.5-1.5 1.5zm-14.5 8.757c0 1.237-1.006 2.243-2.244 2.243h-.756v.5c0 .276-.224.5-.5.5s-.5-.224-.5-.5v-.5h-.551c-.979 0-1.891-.526-2.381-1.375-.139-.238-.057-.545.182-.683.24-.141.545-.057.683.183.312.54.894.875 1.516.875h2.308c.686 0 1.244-.558 1.244-1.243 0-.536-.342-1.011-.85-1.18l-3.616-1.205c-.917-.306-1.534-1.161-1.534-2.129 0-1.237 1.006-2.243 2.244-2.243h.756v-.5c0-.276.224-.5.5-.5s.5.224.5.5v.5h.551c.979 0 1.891.526 2.381 1.375.139.238.057.545-.182.683-.241.139-.546.056-.683-.183-.312-.54-.894-.875-1.516-.875h-2.308c-.686 0-1.244.558-1.244 1.243 0 .536.342 1.011.85 1.18l3.616 1.205c.917.306 1.534 1.161 1.534 2.129z"/></svg>