<svg id="Layer_1" viewBox="0 0 24 24" xmlns="http://www.w3.org/2000/svg" data-name="Layer 1"><path d="m22.082 11.875c1.166-.528 1.925-1.718 1.918-2.996.032-1.353-.79-2.578-2.036-3.121.99-1.073 1.657-2.098 1.944-3.047.436-1.298-.645-2.751-2.013-2.711h-1.896c-3.472 0-4.934 1.72-5.37 2.384-.844-.426-1.832-.464-2.723-.046-1.051.493-1.753 1.467-1.878 2.594-.057.411-.009.812.089 1.198-.725-.19-1.498-.153-2.21.169-.88.398-1.494 1.145-1.751 2.03-.186-.26-.42-.509-.759-.739-.761-.517-1.683-.705-2.59-.529-.359.07-.691.207-1.003.377-.181-.259-.466-.439-.805-.439-.552 0-1 .448-1 1 0 .34.181.626.44.807-.849 1.552-.407 3.524 1.088 4.53.626.421 1.709.663 2.972.663 2.435 0 3.211-.3 4.371-.842.361.275.759.561 1.186.851-.016.007.607.515.62.526 1.477 1.466 2.323 3.5 2.323 5.581v3.384c0 .276.224.5.5.5s.5-.224.5-.5v-3.384c0-1.58-.442-3.131-1.244-4.493.725.375 1.504.728 2.325 1.047 1.219 1.212 1.919 2.888 1.919 4.608v2.222c0 .276.224.5.5.5s.5-.224.5-.5v-2.222c0-1.422-.42-2.815-1.172-4.008.948.279 1.948.491 2.987.63.758.966 1.186 2.158 1.186 3.39v2.209c0 .276.224.5.5.5s.5-.224.5-.5v-2.209c0-1.171-.322-2.313-.912-3.311 1.512-.091 2.931-1.499 2.91-3.013.041-1.329-.73-2.537-1.916-3.092zm-2.082-10.875h1.896c.716-.021 1.285.741 1.056 1.421-.271.893-.95 1.894-2.01 2.974-1.963-.635-3.726-1.451-5.439-2.519.357-.521 1.568-1.876 4.498-1.876zm-8.979 4.055c.088-.791.578-1.468 1.311-1.812.678-.32 1.435-.284 2.063.129 2.159 1.421 4.347 2.435 6.887 3.19 1.038.308 1.745 1.252 1.718 2.297.05 1.582-1.665 2.763-3.142 2.224-2.98-.944-5.576-2.372-8.051-4.066-.595-.454-.891-1.197-.786-1.963zm-3.064 7.419c-.843.359-1.584.526-3.457.526-1.037 0-1.962-.188-2.413-.492-1.127-.759-1.427-2.293-.668-3.42.451-.68 1.238-1.093 2.054-1.089 1.046-.01 1.9.649 2.267 1.631.429 1.025 1.271 2.11 2.218 2.845zm14.316 3.968c-.611.555-1.417.648-2.182.487-5.828-.737-10.286-4.159-12.159-5.84-.635-.619-1.043-1.256-.909-2.144.111-1.099 1.166-1.965 2.265-1.945.733-.034 1.366.432 1.943.836 2.219 1.812 6.509 3.774 10.113 4.818 1.604.437 2.281 2.668.93 3.788zm-18.273-6.442c0 .552-.448 1-1 1s-1-.448-1-1 .448-1 1-1 1 .448 1 1zm.821 6.06c-.842.842-2.226 2.916-2.742 4.109-.354.743.473 1.596 1.226 1.261.72-.323 1.724-.991 2.544-1.279-.29.819-.962 1.825-1.286 2.544-.336.754.522 1.579 1.261 1.226 1.202-.52 3.279-1.904 4.116-2.742 1.404-1.347 1.405-3.771 0-5.119-1.367-1.367-3.751-1.369-5.118 0zm4.411 4.412c-.756.756-2.713 2.058-3.743 2.599.068-.167.215-.425.386-.729.5-.892 1.123-2.001 1.112-2.834-.004-.271-.223-.49-.493-.494h-.021c-.832 0-1.932.614-2.816 1.108-.304.169-.56.314-.659.445.47-1.085 1.771-3.038 2.531-3.799.991-.99 2.715-.989 3.704 0 1.017.976 1.017 2.729 0 3.705z"/></svg>