<svg id="Layer_1" viewBox="0 0 24 24" xmlns="http://www.w3.org/2000/svg" data-name="Layer 1"><path d="m17.5 19h-.5v-.5c0-1.103-.897-2-2-2h-2.5v-1.5h.5c.827 0 1.5-.673 1.5-1.5v-2c0-.827-.673-1.5-1.5-1.5h-2c-.827 0-1.5.673-1.5 1.5v2c0 .827.673 1.5 1.5 1.5h.5v1.5h-2.5c-1.103 0-2 .897-2 2v.5h-.5c-.827 0-1.5.673-1.5 1.5v2c0 .827.673 1.5 1.5 1.5h2c.827 0 1.5-.673 1.5-1.5v-2c0-.827-.673-1.5-1.5-1.5h-.5v-.5c0-.551.448-1 1-1h6c.552 0 1 .449 1 1v.5h-.5c-.827 0-1.5.673-1.5 1.5v2c0 .827.673 1.5 1.5 1.5h2c.827 0 1.5-.673 1.5-1.5v-2c0-.827-.673-1.5-1.5-1.5zm-7-5.5v-2c0-.276.225-.5.5-.5h2c.275 0 .5.224.5.5v2c0 .276-.225.5-.5.5h-2c-.275 0-.5-.224-.5-.5zm-1.5 7v2c0 .276-.225.5-.5.5h-2c-.275 0-.5-.224-.5-.5v-2c0-.276.225-.5.5-.5h2c.275 0 .5.224.5.5zm9 2c0 .276-.225.5-.5.5h-2c-.275 0-.5-.224-.5-.5v-2c0-.276.225-.5.5-.5h2c.275 0 .5.224.5.5zm1.5-22.5h-15c-2.481 0-4.5 2.019-4.5 4.5v13c0 1.593.854 3.082 2.231 3.887.236.138.544.06.684-.179.14-.238.06-.544-.18-.684-1.07-.626-1.735-1.785-1.735-3.023v-9.5h22v9.5c0 1.239-.665 2.397-1.735 3.023-.239.14-.319.446-.18.684.14.241.45.317.684.179 1.377-.805 2.231-2.294 2.231-3.887v-13c0-2.481-2.019-4.5-4.5-4.5zm-18.5 7v-2.5c0-1.93 1.57-3.5 3.5-3.5h15c1.93 0 3.5 1.57 3.5 3.5v2.5zm4-3c0 .552-.448 1-1 1s-1-.448-1-1 .448-1 1-1 1 .448 1 1zm3 0c0 .552-.448 1-1 1s-1-.448-1-1 .448-1 1-1 1 .448 1 1zm3 0c0 .552-.448 1-1 1s-1-.448-1-1 .448-1 1-1 1 .448 1 1z"/></svg>