<svg id="Layer_1" viewBox="0 0 24 24" xmlns="http://www.w3.org/2000/svg" data-name="Layer 1"><path d="m3.048 13.001c-.039-.006.041-.003 0 0zm13.422-5.088c.342.341.53.795.53 1.279s-.188.937-.53 1.278c-.341.342-.795.53-1.278.53s-.938-.188-1.279-.53c-.117-.117-.472-.472-.884-2.205-.084-.35.018-.71.272-.965.254-.253.617-.356.965-.272 1.731.412 2.087.767 2.204.884zm-.47 1.279c0-.216-.084-.419-.237-.572-.028-.028-.312-.281-1.729-.619.305 1.449.558 1.734.586 1.762.305.305.836.306 1.143 0 .153-.153.237-.355.237-.571zm8 1.808c0 .986-.566 2.806-2.657 2.985l-.539 3.251c-.362 2.181-2.229 3.763-4.439 3.763h-8.729c-2.21 0-4.077-1.583-4.439-3.763l-.54-3.252c-2.068-.176-2.647-1.958-2.657-2.923 0-3.73 5.242-8.061 12-8.061 6.463 0 12 4.399 12 8zm-3.702 3.177c-.616.47-1.517.823-2.298.823s-1.52-.248-2.136-.718c-.492-.374-1.235-.375-1.728 0-1.232.939-3.039.94-4.272 0-.492-.374-1.235-.375-1.728 0-.616.47-1.376.705-2.136.705s-1.681-.34-2.298-.81l.481 2.896c.282 1.696 1.733 2.927 3.453 2.927h8.729c1.719 0 3.171-1.231 3.453-2.927zm2.702-3.177c0-2.753-4.724-7-11-7-6.093 0-11 3.86-11 7.056.004.192.142 1.945 2.048 1.945.476.032 1.053.205 1.422.485.882.672 2.179.671 3.06 0 .853-.648 2.088-.648 2.94 0 .882.672 2.179.671 3.06 0 .426-.324.948-.486 1.47-.486s1.044.162 1.47.486c.882.672 2.179.671 3.06 0 .368-.28.996-.454 1.47-.487 1.977 0 2-1.918 2-2zm-12.301-3.7c.254.254.356.615.272.965-.412 1.732-.768 2.087-.884 2.204-.341.342-.795.53-1.279.53s-.937-.188-1.278-.53c-.342-.341-.53-.795-.53-1.278s.188-.938.53-1.279c.117-.117.473-.472 2.205-.884.35-.083.71.018.965.272zm-.701.733c-1.449.305-1.734.558-1.762.586-.153.153-.237.355-.237.572s.084.418.237.571c.305.306.837.305 1.143 0 .028-.028.281-.312.619-1.729z"/></svg>