<svg id="Layer_1" viewBox="0 0 24 24" xmlns="http://www.w3.org/2000/svg" data-name="Layer 1"><path d="m19.5 0h-15c-2.481 0-4.5 2.019-4.5 4.5v15c0 2.481 2.019 4.5 4.5 4.5h15c2.481 0 4.5-2.019 4.5-4.5v-15c0-2.481-2.019-4.5-4.5-4.5zm3.5 4.5v.773c-.54.463-2.575 2.094-6 3.697v-7.97h2.5c1.93 0 3.5 1.57 3.5 3.5zm-15 7.328v-10.828h8v8.419c-2.19.942-4.857 1.831-8 2.409zm-3.5-10.828h2.5v10.981c-1.852.293-3.849.478-6 .503v-7.984c0-1.93 1.57-3.5 3.5-3.5zm15 22h-15c-1.93 0-3.5-1.57-3.5-3.5v-6.015c12.178-.136 19.62-5.053 22-6.917v12.932c0 1.93-1.57 3.5-3.5 3.5zm-14.5-3c0 .552-.448 1-1 1s-1-.448-1-1 .448-1 1-1 1 .448 1 1zm5.5 0c0 .552-.448 1-1 1s-1-.448-1-1 .448-1 1-1 1 .448 1 1zm10.5 0c0 .552-.448 1-1 1s-1-.448-1-1 .448-1 1-1 1 .448 1 1zm-5.5 0c0 .552-.448 1-1 1s-1-.448-1-1 .448-1 1-1 1 .448 1 1z"/></svg>