<?xml version="1.0" encoding="UTF-8"?>
<svg xmlns="http://www.w3.org/2000/svg" id="Layer_1" data-name="Layer 1" viewBox="0 0 24 24">
  <path d="M13,20.5v.013c0,.552-.448,1-1,1s-1-.448-1-1v-.013c0-.552,.448-1,1-1s1,.448,1,1Zm-.208-10.397c-.93-.242-1.886-.05-2.627,.524-.74,.573-1.165,1.438-1.165,2.374,0,.276,.224,.5,.5,.5s.5-.224,.5-.5c0-.624,.283-1.2,.777-1.583,.495-.383,1.138-.508,1.765-.347,.67,.173,1.215,.718,1.389,1.389,.251,.974-.197,1.943-1.091,2.356-.813,.376-1.339,1.245-1.339,2.212v.472c0,.276,.224,.5,.5,.5s.5-.224,.5-.5v-.472c0-.579,.298-1.091,.759-1.305,1.318-.61,2.007-2.087,1.639-3.514-.262-1.018-1.089-1.845-2.106-2.107Zm9.208-.117v9.515c0,2.481-2.019,4.5-4.5,4.5H6.5c-2.481,0-4.5-2.019-4.5-4.5V4.5C2,2.019,4.019,0,6.5,0h5.515c1.736,0,3.369,.676,4.596,1.904l3.485,3.485c1.228,1.228,1.904,2.86,1.904,4.596ZM15.904,2.611c-.55-.55-1.2-.959-1.904-1.231V6.5c0,.827,.673,1.5,1.5,1.5h5.121c-.273-.704-.682-1.354-1.231-1.904l-3.485-3.485Zm5.096,7.375c0-.335-.038-.663-.096-.985h-5.404c-1.378,0-2.5-1.122-2.5-2.5V1.096c-.323-.058-.651-.096-.985-.096H6.5c-1.93,0-3.5,1.57-3.5,3.5v15c0,1.93,1.57,3.5,3.5,3.5h11c1.93,0,3.5-1.57,3.5-3.5V9.985Z"/>
</svg>
