<svg id="Layer_1" viewBox="0 0 24 24" xmlns="http://www.w3.org/2000/svg" data-name="Layer 1"><path d="m9.5 12h-2.5v-2h2.5c1.93 0 3.5-1.57 3.5-3.5v-3c0-1.93-1.57-3.5-3.5-3.5h-6c-1.93 0-3.5 1.57-3.5 3.5v3c0 1.93 1.57 3.5 3.5 3.5h2.5v2h-2.5c-.276 0-.5.224-.5.5s.224.5.5.5h6c.276 0 .5-.224.5-.5s-.224-.5-.5-.5zm-6-3c-1.379 0-2.5-1.121-2.5-2.5v-3c0-1.379 1.121-2.5 2.5-2.5h6c1.379 0 2.5 1.121 2.5 2.5v3c0 1.379-1.121 2.5-2.5 2.5zm4.084 10.492c.556.556.556 1.46 0 2.016l-2.346 2.346c-.195.195-.512.195-.707 0s-.195-.512 0-.707l2.146-2.146h-2.678c-2.206 0-4-1.794-4-4v-1.5c0-.276.224-.5.5-.5s.5.224.5.5v1.5c0 1.654 1.346 3 3 3h2.678l-2.146-2.146c-.195-.195-.195-.512 0-.707s.512-.195.707 0l2.346 2.346zm12.916-8.492h-6c-1.93 0-3.5 1.57-3.5 3.5v3c0 1.93 1.57 3.5 3.5 3.5h2.5v2h-2.5c-.276 0-.5.224-.5.5s.224.5.5.5h6c.276 0 .5-.224.5-.5s-.224-.5-.5-.5h-2.5v-2h2.5c1.93 0 3.5-1.57 3.5-3.5v-3c0-1.93-1.57-3.5-3.5-3.5zm2.5 6.5c0 1.379-1.121 2.5-2.5 2.5h-6c-1.379 0-2.5-1.121-2.5-2.5v-3c0-1.379 1.121-2.5 2.5-2.5h6c1.379 0 2.5 1.121 2.5 2.5zm1-10.5v1.5c0 .276-.224.5-.5.5s-.5-.224-.5-.5v-1.5c0-1.654-1.346-3-3-3h-2.678l2.146 2.146c.195.195.195.512 0 .707s-.512.195-.707 0l-2.346-2.346c-.556-.556-.556-1.46 0-2.016l2.347-2.345c.195-.195.512-.195.707 0s.195.512 0 .707l-2.146 2.146h2.678c2.206 0 4 1.794 4 4z"/></svg>