<svg id="Layer_1" viewBox="0 0 24 24" xmlns="http://www.w3.org/2000/svg" data-name="Layer 1"><path d="m20.476 4.803-2.504-1.415c-.911-.515-2.043-.513-2.954.001l-2.497 1.413c-.938.532-1.521 1.532-1.521 2.611v3.147c0 1.074.579 2.071 1.511 2.604l2.519 1.44c.458.262.973.393 1.488.393.503 0 1.006-.125 1.457-.375l2.481-1.378c.952-.529 1.544-1.534 1.544-2.623v-3.207c0-1.08-.584-2.081-1.524-2.612zm-4.966-.543c.304-.172.645-.258.985-.258s.68.085.983.257l2.504 1.415c.138.078.258.176.371.281l-3.854 2.203-3.857-2.204c.113-.105.233-.203.369-.28l2.496-1.413zm-2.503 8.037c-.621-.355-1.007-1.021-1.007-1.736v-3.147c0-.213.044-.418.108-.616l3.892 2.224v4.908c-.164-.044-.324-.108-.474-.193zm7.993-1.675c0 .726-.395 1.396-1.029 1.749l-2.481 1.377c-.155.087-.32.149-.489.191v-4.915l3.892-2.224c.064.197.108.402.108.615v3.207zm-3.5 6.378h-14.5v-12.5c0-1.93 1.57-3.5 3.5-3.5h7c.455 0 .896.085 1.312.254.254.102.547-.02.651-.275.104-.256-.02-.547-.275-.651-.536-.217-1.104-.328-1.688-.328h-7c-2.481 0-4.5 2.019-4.5 4.5v15c0 2.481 2.019 4.5 4.5 4.5h7c2.481 0 4.5-2.019 4.5-4.5v-2c0-.276-.224-.5-.5-.5zm-.5 2.5c0 1.93-1.57 3.5-3.5 3.5h-7c-1.93 0-3.5-1.57-3.5-3.5v-1.5h14zm-9 1c0-.276.224-.5.5-.5h3c.276 0 .5.224.5.5s-.224.5-.5.5h-3c-.276 0-.5-.224-.5-.5z"/></svg>