<?xml version="1.0" encoding="UTF-8"?>
<svg xmlns="http://www.w3.org/2000/svg" id="Layer_1" data-name="Layer 1" viewBox="0 0 24 24">
  <path d="M17,15.5c0,.276-.224,.5-.5,.5-1.378,0-2.5-1.121-2.5-2.5,0-.276,.224-.5,.5-.5s.5,.224,.5,.5c0,.827,.673,1.5,1.5,1.5,.276,0,.5,.224,.5,.5Zm6,.75c0,2.619-2.131,4.75-4.75,4.75h-6.25v2.5c0,.276-.224,.5-.5,.5s-.5-.224-.5-.5v-2.5h-1v2.5c0,.276-.224,.5-.5,.5s-.5-.224-.5-.5v-1.523c-3.088,2.531-8.126,.041-8-3.977,0-1.591,.759-3.073,2.042-4.015,.245-2.632,2.312-4.698,4.943-4.942,.941-1.284,2.424-2.043,4.014-2.043,1.83,0,3.528,1.03,4.395,2.645,1.13,.282,2.125,.983,2.785,1.964,2.228,.439,3.82,2.356,3.82,4.642Zm-1,0c0-1.863-1.344-3.416-3.197-3.692-.147-.021-.277-.108-.354-.235-.552-.914-1.459-1.552-2.488-1.75-.156-.03-.289-.133-.357-.277-.672-1.415-2.053-2.295-3.604-2.295-1.337,0-2.58,.673-3.323,1.8-.088,.133-.234,.217-.394,.224-2.316,.112-4.147,1.943-4.259,4.26-.008,.159-.091,.305-.224,.393-1.127,.745-1.8,1.987-1.8,3.324,0,2.206,1.794,4,4,4,3.082,.075,5.137-3.703,3.326-6.223-.154-.229-.092-.54,.138-.693,.23-.154,.54-.092,.693,.139,.742,1.11,1.007,2.443,.747,3.753-.071,.358-.186,.698-.328,1.024h7.674c2.068,0,3.75-1.683,3.75-3.75ZM2.655,2.484c-.222-.448-.134-.985,.218-1.337l.839-.839c.479-.511,1.404-.355,1.69,.285l.545,1.264,.703-.703c.536-.571,1.578-.257,1.709,.515l.629,4.234c.096,.558-.382,1.111-.946,1.097-.361,0-.698-.206-.858-.531l-.663-1.346-.674,.711c-.469,.497-1.329,.369-1.633-.23l-1.56-3.119Zm.896-.445l1.552,3.104,1.188-1.229c.113-.119,.278-.175,.438-.15,.162,.024,.301,.127,.374,.273l.979,1.988-.702-4.16s0-.003,0-.003l-1.244,1.223c-.233,.248-.687,.163-.812-.155l-.828-1.92-.914,.845c-.048,.049-.061,.123-.03,.185ZM15.217,6.655c-.173-.208-.25-.481-.212-.75l.625-4.21c.109-.787,1.174-1.12,1.713-.541l.703,.703,.537-1.244c.297-.662,1.204-.82,1.699-.305l.839,.839c.353,.353,.44,.889,.219,1.336l-1.554,3.107c-.304,.61-1.161,.738-1.63,.254l-.684-.722-.662,1.344c-.161,.327-.498,.534-.859,.533-.283,0-.551-.125-.735-.345Zm.778-.605l.898-2.013c.14-.307,.59-.374,.812-.123l1.168,1.232,1.573-3.109c.03-.061,.018-.134-.031-.183l-.839-.839-.902,1.914c-.126,.319-.579,.404-.812,.155l-1.243-1.227-.623,4.191Z"/>
</svg>
