<?xml version="1.0" encoding="UTF-8"?>
<svg xmlns="http://www.w3.org/2000/svg" id="Layer_1" data-name="Layer 1" viewBox="0 0 24 24">
  <path d="m15.5,13c-1.93,0-3.5,1.57-3.5,3.5,0,.95.383,1.81,1,2.442v4.11c0,.384.229.728.584.875.358.149.761.067,1.051-.223l.865-.958.883.977c.182.181.423.277.669.277.122,0,.246-.024.364-.073.354-.147.584-.491.584-.875v-4.11c.617-.631,1-1.492,1-2.442,0-1.93-1.57-3.5-3.5-3.5Zm1.5,9.914l-1.129-1.25c-.189-.209-.553-.209-.742,0l-1.129,1.25v-3.265c.456.219.961.351,1.5.351s1.044-.133,1.5-.351v3.265Zm-1.5-3.914c-1.379,0-2.5-1.122-2.5-2.5s1.121-2.5,2.5-2.5,2.5,1.122,2.5,2.5-1.121,2.5-2.5,2.5Zm3.5-8.5c0,.276-.224.5-.5.5H5.5c-.276,0-.5-.224-.5-.5s.224-.5.5-.5h13c.276,0,.5.224.5.5Zm-9.5,3.5c.276,0,.5.224.5.5s-.224.5-.5.5h-4c-.276,0-.5-.224-.5-.5s.224-.5.5-.5h4Zm14.5-7.5v11c0,2.055-1.388,3.847-3.375,4.358-.27.068-.54-.093-.609-.36-.068-.268.093-.54.359-.609,1.546-.397,2.625-1.792,2.625-3.39V6.5c0-1.93-1.57-3.5-3.5-3.5H4.5c-1.93,0-3.5,1.57-3.5,3.5v11c0,1.93,1.57,3.5,3.5,3.5h6c.276,0,.5.224.5.5s-.224.5-.5.5h-6c-2.481,0-4.5-2.019-4.5-4.5V6.5C0,4.019,2.019,2,4.5,2h15c2.481,0,4.5,2.019,4.5,4.5Zm-5,0c0,.276-.224.5-.5.5H5.5c-.276,0-.5-.224-.5-.5s.224-.5.5-.5h13c.276,0,.5.224.5.5Z"/>
</svg>
