<svg id="Layer_1" viewBox="0 0 24 24" xmlns="http://www.w3.org/2000/svg" data-name="Layer 1"><path d="m9 12c-.552 0-1-.448-1-1s.448-1 1-1 1 .448 1 1-.448 1-1 1zm4.915 2h-3.831c-.506 0-.795.612-.447.98.592.628 1.431 1.02 2.362 1.02s1.77-.392 2.362-1.02c.347-.368.059-.98-.447-.98zm1.085-4c-.552 0-1 .448-1 1s.448 1 1 1 1-.448 1-1-.448-1-1-1zm9 1c0 1.654-1.346 3-3 3h-.6c-.477 1.148-1.295 2.309-2.332 3.302 1.62 1.683 2.634 3.797 2.928 6.136.034.274-.16.524-.434.559-.269.035-.526-.159-.559-.434-.268-2.139-1.2-4.071-2.689-5.603-1.516 1.21-3.378 2.042-5.315 2.042s-3.799-.832-5.315-2.042c-1.489 1.532-2.42 3.464-2.689 5.603-.033.275-.29.469-.559.434-.273-.034-.468-.284-.434-.559.294-2.338 1.308-4.453 2.928-6.136-1.037-.993-1.855-2.154-2.332-3.302h-.6c-1.654 0-3-1.346-3-3 0-1.524 1.143-2.787 2.617-2.976.718-4.604 4.678-8.024 9.385-8.024s8.674 3.426 9.385 8.036c1.5.208 2.615 1.458 2.615 2.964zm-1 0c0-1.103-.897-2-2-2-.245.01-.525-.182-.555-.439-.474-4.31-4.104-7.561-8.445-7.561-1.654 0-3 1.346-3 3s1.346 3 3 3c1.458 0 2.7-1.041 2.954-2.474.048-.272.313-.453.579-.405.272.048.453.307.405.579-.338 1.913-1.994 3.3-3.938 3.3-2.206 0-4-1.794-4-4 0-.891.303-1.707.798-2.373-2.814 1.142-4.893 3.746-5.243 6.933-.028.258-.201.436-.51.445h-.011c-1.143 0-2.034.895-2.034 1.994s.897 2 2 2h.941c.211 0 .399.132.471.331.982 2.727 4.162 5.671 7.588 5.671s6.605-2.944 7.588-5.671c.071-.198.26-.331.471-.331h.941c1.103 0 2-.897 2-2z"/></svg>