<?xml version="1.0" encoding="UTF-8"?>
<svg xmlns="http://www.w3.org/2000/svg" id="Layer_1" data-name="Layer 1" viewBox="0 0 24 24">
  <path d="M24,23.5c0,.276-.224,.5-.5,.5h-7c-2.481,0-4.5-2.019-4.5-4.5v-6.5H1.25l4.106,4.148c.194,.196,.192,.513-.004,.707-.097,.096-.225,.145-.352,.145-.129,0-.258-.049-.355-.148L.467,13.631c-.623-.623-.623-1.639,.002-2.264L4.645,7.148c.194-.197,.512-.197,.707-.004,.196,.194,.198,.511,.004,.707L1.25,12H12V1.25L7.852,5.355c-.196,.194-.513,.192-.707-.004s-.192-.513,.004-.707L11.369,.467c.622-.623,1.639-.623,2.264,.002l4.219,4.175c.196,.194,.198,.511,.004,.707-.098,.099-.227,.148-.355,.148-.127,0-.254-.048-.352-.145L13,1.25V19.5c0,1.93,1.57,3.5,3.5,3.5h7c.276,0,.5,.224,.5,.5Z"/>
</svg>
