<?xml version="1.0" encoding="UTF-8"?>
<svg xmlns="http://www.w3.org/2000/svg" id="Layer_1" data-name="Layer 1" viewBox="0 0 24 24">
  <path d="M17.5,9c1.379,0,2.5-1.122,2.5-2.5s-1.121-2.5-2.5-2.5-2.5,1.122-2.5,2.5,1.121,2.5,2.5,2.5Zm0-4c.827,0,1.5,.673,1.5,1.5s-.673,1.5-1.5,1.5-1.5-.673-1.5-1.5,.673-1.5,1.5-1.5Zm6,18h-3c-.275,0-.5-.224-.5-.5V12.5c0-1.378-1.121-2.5-2.5-2.5h-6.346l-4.065-2.762c-.898-.599-1.952-1.238-3.088-1.238-1.419,0-2.607,1.071-2.761,2.467L.013,15.959c-.146,1.053,.755,2.065,1.817,2.041h1.17v5.5c0,.276,.224,.5,.5,.5s.5-.224,.5-.5v-5.5h2.17c1.076,.018,1.968-.989,1.814-2.067l-1.274-7.744,4.01,2.724c.083,.056,.181,.086,.281,.086h4v7h-2.5c-.827,0-1.5,.673-1.5,1.5v4c0,.276,.224,.5,.5,.5s.5-.224,.5-.5v-4c0-.276,.224-.5,.5-.5h6.5v3.5c0,.827,.673,1.5,1.5,1.5h3c.276,0,.5-.224,.5-.5s-.224-.5-.5-.5ZM6.994,16.073c.069,.478-.341,.939-.824,.927H1.83c-.47,.018-.89-.45-.827-.903l1.227-7.495c.101-.914,.862-1.603,1.771-1.603,.532,0,1.067,.204,1.589,.487,0,.031,1.405,8.586,1.405,8.586Zm9.006,1.927v-7h1.5c.827,0,1.5,.673,1.5,1.5v5.5h-3ZM4.5,5c1.378,0,2.5-1.122,2.5-2.5S5.878,0,4.5,0,2,1.122,2,2.5s1.122,2.5,2.5,2.5Zm0-4c.827,0,1.5,.673,1.5,1.5s-.673,1.5-1.5,1.5-1.5-.673-1.5-1.5,.673-1.5,1.5-1.5Z"/>
</svg>
