<svg id="Layer_1" viewBox="0 0 24 24" xmlns="http://www.w3.org/2000/svg" data-name="Layer 1"><path d="m23.448 10.665-3.519-3.519c-.195-.195-.512-.195-.707 0s-.195.512 0 .707c0 0 3.574 3.604 3.603 3.646h-8.825v-4.499h.5c1.378 0 2.5-1.121 2.5-2.5v-2c0-1.379-1.122-2.5-2.5-2.5h-2c-1.378 0-2.5 1.121-2.5 2.5v2c0 1.379 1.122 2.5 2.5 2.5h.5v4.5h-9v-4.5h.5c1.378 0 2.5-1.121 2.5-2.5v-2c0-1.379-1.122-2.5-2.5-2.5h-2c-1.378 0-2.5 1.121-2.5 2.5v2c0 1.379 1.122 2.5 2.5 2.5h.5v4.5h-2.5c-.276 0-.5.224-.5.5s.224.5.5.5h7.5v4.5h-.5c-1.378 0-2.5 1.121-2.5 2.5v2c0 1.379 1.122 2.5 2.5 2.5h2c1.378 0 2.5-1.121 2.5-2.5v-2c0-1.379-1.122-2.5-2.5-2.5h-.5v-4.5h13.826c-.029.042-3.603 3.646-3.603 3.646-.195.195-.195.512 0 .707s.512.195.707 0l3.519-3.519c.736-.736.736-1.934 0-2.67zm-12.448-6.165v-2c0-.827.673-1.5 1.5-1.5h2c.827 0 1.5.673 1.5 1.5v2c0 .827-.673 1.5-1.5 1.5h-2c-.827 0-1.5-.673-1.5-1.5zm-10 0v-2c0-.827.673-1.5 1.5-1.5h2c.827 0 1.5.673 1.5 1.5v2c0 .827-.673 1.5-1.5 1.5h-2c-.827 0-1.5-.673-1.5-1.5zm10 15v2c0 .827-.673 1.5-1.5 1.5h-2c-.827 0-1.5-.673-1.5-1.5v-2c0-.827.673-1.5 1.5-1.5h2c.827 0 1.5.673 1.5 1.5z"/></svg>