<?xml version="1.0" encoding="UTF-8"?>
<svg xmlns="http://www.w3.org/2000/svg" id="Layer_1" data-name="Layer 1" viewBox="0 0 24 24">
  <path d="m23.256,6.027L18.053.823c-.942-.941-2.423-1.097-3.443-.363-.631.455-1.028,1.154-1.09,1.92-.062.766.214,1.517.757,2.059l.08.08c.343.344.344.903,0,1.246l-1.687,1.687c-.401.4-.991.561-1.541.422l-.866-.221c-1.002-.262-2.031-.34-3.059-.232-1.368.143-2.507,1.05-2.974,2.367-.485,1.368-.154,2.85.857,3.861l2.238,2.317L.146,23.146c-.195.195-.195.512,0,.707.098.098.226.146.354.146s.256-.049.354-.146l7.168-7.168,1.705,1.765c1.001,1.002,2.233,1.543,3.416,1.543.42,0,.834-.068,1.229-.208,1.242-.44,2.067-1.5,2.206-2.832.106-1.026.028-2.054-.227-3.03l-.223-1.081c-.132-.543.031-1.126.427-1.522l1.678-1.678c.17-.169.403-.267.642-.267h.007c.22.002.422.086.569.238.942.97,2.436,1.139,3.473.392.631-.455,1.028-1.154,1.09-1.92.062-.766-.215-1.517-.758-2.059Zm-.239,1.979c-.039.479-.279.902-.677,1.188-.638.459-1.571.339-2.172-.277-.335-.345-.789-.537-1.279-.541-.004,0-.009,0-.014,0-.502,0-.993.204-1.349.56l-1.678,1.678c-.641.64-.905,1.584-.695,2.448l.226,1.089c.229.885.299,1.793.205,2.699-.098.939-.676,1.685-1.547,1.993-1.157.411-2.504,0-3.598-1.093l-4.639-4.802c-.742-.742-.982-1.825-.627-2.826.342-.964,1.14-1.602,2.135-1.707.263-.027.526-.041.789-.041.645,0,1.286.083,1.917.247l.869.222c.888.227,1.845-.035,2.495-.684l1.687-1.687c.733-.733.733-1.926,0-2.66l-.08-.08c-.335-.335-.506-.799-.468-1.271.039-.48.279-.902.678-1.189.628-.452,1.553-.34,2.152.258l5.203,5.204c.335.335.506.799.468,1.272Z"/>
</svg>
