<svg id="Layer_1" viewBox="0 0 24 24" xmlns="http://www.w3.org/2000/svg" data-name="Layer 1"><path d="m8 6c0-.552.448-1 1-1s1 .448 1 1-.448 1-1 1-1-.448-1-1zm6 3c.552 0 1-.448 1-1s-.448-1-1-1-1 .448-1 1 .448 1 1 1zm4 5c.552 0 1-.448 1-1s-.448-1-1-1-1 .448-1 1 .448 1 1 1zm-3 4c-.552 0-1 .448-1 1s.448 1 1 1 1-.448 1-1-.448-1-1-1zm-6 1c-.552 0-1 .448-1 1s.448 1 1 1 1-.448 1-1-.448-1-1-1zm-5-3c-.552 0-1 .448-1 1s.448 1 1 1 1-.448 1-1-.448-1-1-1zm0-4c.552 0 1-.448 1-1s-.448-1-1-1-1 .448-1 1 .448 1 1 1zm11 1.5c0 2.481-2.019 4.5-4.5 4.5s-4.5-2.019-4.5-4.5 2.019-4.5 4.5-4.5 4.5 2.019 4.5 4.5zm-1 0c0-1.93-1.57-3.5-3.5-3.5s-3.5 1.57-3.5 3.5 1.57 3.5 3.5 3.5 3.5-1.57 3.5-3.5zm7.735 4.273c.17.379.265.795.265 1.227 0 1.654-1.346 3-3 3-.61 0-1.187-.187-1.685-.527-1.836 1.572-4.214 2.527-6.815 2.527-5.79 0-10.5-4.71-10.5-10.5 0-2.945 1.222-5.606 3.181-7.515-.111-.317-.181-.644-.181-.985 0-1.654 1.346-3 3-3 .392 0 .763.091 1.112.231.343-1.28 1.501-2.231 2.888-2.231.976 0 1.836.475 2.384 1.199.785-.554 1.58-.912 2.125-1.112.396-.145.835-.107 1.204.107.375.22.63.593.7 1.024.104.639.113 1.304.031 1.985 1.212-.364 2.609-.1 3.53.822.661.66 1.025 1.539 1.025 2.475 0 .212-.024.42-.061.625.85.17 1.638.452 2.332.862.385.229.645.609.712 1.048.066.428-.061.857-.349 1.181-.315.353-.782.824-1.379 1.275 1.038.608 1.745 1.723 1.745 3.01 0 1.486-.921 2.77-2.265 3.273zm-1.122-9.704c-.166.328-.371.638-.638.905-.003.003-.007.006-.01.009.309.646.554 1.326.727 2.036.144.008.286.018.425.043.791-.498 1.399-1.096 1.771-1.514.212-.276.111-.539-.126-.702-.633-.373-1.355-.635-2.148-.777zm-4.653-3.521c1.424.872 2.622 2.07 3.493 3.494.348-.439.547-.973.547-1.542 0-.668-.26-1.296-.732-1.768-.873-.875-2.344-.929-3.307-.184zm-3.115-2.455c.123.378.197.806.125 1.212.714.173 1.398.419 2.047.73.003-.003.006-.007.009-.01.105-.106.226-.188.343-.277.104-.811.203-1.619.058-2.37-.06-.264-.259-.442-.573-.353-.514.188-1.276.528-2.009 1.067zm-4.825.706c.134.124.267.25.379.4.003.003.003.007.005.011.677-.138 1.378-.211 2.095-.211.506 0 1.001.048 1.488.118.096-1.138-.854-2.123-1.988-2.118-1.034 0-1.878.792-1.98 1.8zm-3.995 2.451c.974-.766 2.082-1.368 3.288-1.753-.361-.317-.82-.497-1.314-.497-1.103 0-2 .897-2 2 0 .085.015.167.025.25zm6.475 17.75c5.238 0 9.5-4.262 9.5-9.5s-4.262-9.5-9.5-9.5-9.5 4.262-9.5 9.5 4.262 9.5 9.5 9.5zm10.5-4c0-.624-.295-1.193-.771-1.567-.503 1.241-1.238 2.361-2.149 3.314.285.151.591.253.921.253 1.103 0 2-.897 2-2zm2-4.5c0-1.247-.919-2.274-2.114-2.461.067.479.114.964.114 1.461 0 1.023-.154 2.01-.428 2.946.211.13.399.288.569.462 1.088-.287 1.859-1.26 1.859-2.408z"/></svg>