<svg id="Layer_1" viewBox="0 0 24 24" xmlns="http://www.w3.org/2000/svg" data-name="Layer 1"><path d="m11.02 0h-6.039c-2.109 0-3.962 1.501-4.405 3.569-.382 1.783-.576 3.611-.576 5.431 0 3.649.724 8.187 1.33 11.35.405 2.115 2.264 3.65 4.419 3.65h4.501c2.155 0 4.014-1.535 4.419-3.65.606-3.164 1.33-7.701 1.33-11.35 0-1.82-.193-3.647-.575-5.431-.451-2.101-2.263-3.569-4.405-3.569zm-6.04 1h6.039c1.667 0 3.076 1.143 3.427 2.778.087.405.162.813.228 1.222h-13.349c.066-.409.141-.816.228-1.221.351-1.636 1.76-2.779 3.427-2.779zm8.707 19.162c-.315 1.645-1.761 2.838-3.437 2.838h-4.501c-1.676 0-3.122-1.194-3.437-2.838-.599-3.121-1.312-7.591-1.312-11.162 0-1.001.068-2.004.189-3h13.622c.121.996.189 1.999.189 3 0 3.571-.714 8.041-1.313 11.162zm7.313-8.162c1.103 0 2-.897 2-2s-.897-2-2-2-2 .897-2 2 .897 2 2 2zm0-3c.552 0 1 .449 1 1s-.448 1-1 1-1-.449-1-1 .448-1 1-1zm-13 1c-2.206 0-4 1.794-4 4s1.794 4 4 4 4-1.794 4-4-1.794-4-4-4zm0 7c-1.654 0-3-1.346-3-3s1.346-3 3-3 3 1.346 3 3-1.346 3-3 3zm13.329.11c.111-.269.171-.56.171-.86 0-1.241-1.01-2.25-2.25-2.25s-2.25 1.009-2.25 2.25c0 .754.386 1.43.973 1.84-.6.628-.973 1.475-.973 2.41 0 1.93 1.57 3.5 3.5 3.5s3.5-1.57 3.5-3.5c0-1.643-1.142-3.015-2.671-3.39zm-2.079-2.11c.689 0 1.25.561 1.25 1.25 0 .29-.113.558-.295.78-.479.041-.927.175-1.332.391-.505-.165-.873-.625-.873-1.17 0-.689.561-1.25 1.25-1.25zm1.25 8c-1.379 0-2.5-1.122-2.5-2.5 0-.835.415-1.572 1.047-2.026.466-.209.875-.519 1.453-.474 1.379 0 2.5 1.122 2.5 2.5s-1.121 2.5-2.5 2.5z"/></svg>