<svg id="Layer_1" viewBox="0 0 24 24" xmlns="http://www.w3.org/2000/svg" data-name="Layer 1"><path d="m23.18 4.311c-.724-.725-1.767-.963-2.75-.733.232-.984-.008-2.025-.733-2.75-.566-.566-1.336-.859-2.17-.816-.815.039-1.595.391-2.194.991-1.646 1.646-1.424 5.359-1.144 7.426.098.72.67 1.292 1.391 1.391.749.101 1.715.195 2.721.195 1.767 0 3.655-.29 4.705-1.339.6-.599.951-1.379.991-2.194.04-.833-.25-1.604-.816-2.17zm-.881 3.656c-.965.966-3.426 1.287-6.583.86-.281-.038-.496-.253-.534-.533-.427-3.158-.105-5.619.86-6.584.449-.449 1.031-.7 1.636-.701.508 0 .971.185 1.313.527.765.765.687 2.089-.174 2.95-.195.195-.195.512 0 .707s.512.195.707 0c.862-.862 2.184-.938 2.95-.174.364.364.55.866.524 1.415-.027.566-.275 1.111-.698 1.534zm-6.564 6.17c-.756-.757-2.072-.756-2.827-.002l-4.184 4.117c-.857.86-2.239.943-3.078.187-.447-.402-.702-.954-.717-1.552-.016-.599.209-1.161.632-1.584l4.222-4.201c.776-.744.776-2.084 0-2.829l-.676-.676c-.755-.756-2.073-.756-2.828 0l-4.07 4.048c-2.802 2.802-2.958 7.336-.348 10.107 1.333 1.416 3.135 2.241 5.079 2.241s3.769-.711 5.138-2.081l4.335-4.268c.776-.744.776-2.084 0-2.829l-.676-.676zm-8.751-5.833c.372-.388 1.042-.388 1.414 0l.676.676c.388.372.388 1.042 0 1.414l-.434.432-2.091-2.091.433-.431zm4.389 12.897c-1.181 1.18-2.75 1.804-4.419 1.791-1.668-.025-3.219-.709-4.366-1.927-2.242-2.382-2.095-6.29.327-8.713l2.928-2.912 2.091 2.091-3.079 3.064c-.619.619-.948 1.442-.925 2.318s.395 1.682 1.048 2.27c1.228 1.105 3.227 1.005 4.452-.22l3.037-2.988 2.092 2.091-3.184 3.135zm4.334-4.269-.438.432-2.091-2.091.433-.426.003-.003c.378-.378 1.036-.378 1.414 0l.676.676c.387.37.388 1.042.003 1.412z"/></svg>