<svg id="Layer_1" viewBox="0 0 24 24" xmlns="http://www.w3.org/2000/svg" data-name="Layer 1"><path d="m15.821 6.832c-.557-1.747-2.021-2.832-3.821-2.832-2.443 0-7 3.263-7 9.5 0 3.706 3.01 6.5 7 6.5 3.859 0 7-2.727 7-6.078 0-1.553-.349-2.511-1.38-3.793-.822-1.021-1.428-2.129-1.799-3.297zm-3.821 12.168c-3.421 0-6-2.364-6-5.5 0-5.972 4.292-8.5 6-8.5 1.37 0 2.442.798 2.868 2.135.409 1.286 1.073 2.505 1.973 3.621.889 1.104 1.159 1.844 1.159 3.166 0 2.8-2.691 5.078-6 5.078zm0-9c-1.215 0-2.5 1.863-2.5 3.625 0 1.354 1.075 2.375 2.5 2.375s2.5-1.021 2.5-2.375c0-1.762-1.285-3.625-2.5-3.625zm0 5c-.883 0-1.5-.565-1.5-1.375 0-1.41 1.006-2.625 1.5-2.625s1.5 1.215 1.5 2.625c0 .81-.617 1.375-1.5 1.375zm11.931-11.135c-.378-2.204-2.425-3.865-4.761-3.865h-14.34c-2.336 0-4.383 1.661-4.761 3.865-.308 1.8.446 3.585 1.931 4.626v11.009c0 2.48 2.019 4.499 4.5 4.499h11c2.481 0 4.5-2.019 4.5-4.499v-11.009c1.484-1.041 2.238-2.826 1.931-4.626zm-2.693 3.931c-.147.091-.237.252-.237.426v11.278c0 1.93-1.57 3.5-3.5 3.5h-11.001c-1.93 0-3.5-1.57-3.5-3.5v-11.278c0-.174-.09-.335-.237-.426-1.312-.809-1.966-2.25-1.707-3.763.296-1.729 1.919-3.034 3.774-3.034h14.34c1.855 0 3.479 1.305 3.774 3.034.259 1.513-.395 2.954-1.707 3.763z"/></svg>