<svg id="Layer_1" viewBox="0 0 24 24" xmlns="http://www.w3.org/2000/svg" data-name="Layer 1"><path d="m23.397 8.249c-.14-.24-.447-.319-.684-.182-.238.139-.32.444-.182.684.306.527.468 1.133.468 1.749v5.5c0 2.206-1.794 4-4 4v-3.5c0-1.379-1.121-2.5-2.5-2.5h-8.999c-1.379 0-2.5 1.121-2.5 2.5v3.5c-2.206 0-4-1.794-4-4v-5.5c0-1.93 1.57-3.5 3.5-3.5h8c.276 0 .5-.224.5-.5s-.224-.5-.5-.5h-6.5v-2.5c0-1.379 1.121-2.5 2.5-2.5h2c.276 0 .5-.224.5-.5s-.224-.5-.5-.5h-2c-1.93 0-3.5 1.57-3.5 3.5v2.5h-.5c-2.481 0-4.5 2.019-4.5 4.5v5.5c0 2.757 2.243 5 5 5v.5c0 1.379 1.121 2.5 2.5 2.5h9c1.379 0 2.5-1.121 2.5-2.5v-.5c2.757 0 5-2.243 5-5v-5.5c0-.792-.208-1.57-.603-2.251zm-5.397 13.251c0 .827-.673 1.5-1.5 1.5h-9c-.827 0-1.5-.673-1.5-1.5v-5c0-.827.673-1.5 1.5-1.5h9c.827 0 1.5.673 1.5 1.5zm0-14.5c.552 0 1 .448 1 1s-.448 1-1 1-1-.448-1-1 .448-1 1-1zm2.121-1.121c-1.133-1.133-3.109-1.133-4.242 0-.195.195-.512.195-.707 0s-.195-.512 0-.707c1.51-1.512 4.146-1.512 5.656 0 .195.195.195.512 0 .707s-.512.195-.707 0zm-7.778-2.829c-.195-.195-.195-.512 0-.707 3.119-3.119 8.195-3.119 11.314 0 .195.195.195.512 0 .707s-.512.195-.707 0c-2.73-2.729-7.17-2.729-9.9 0-.195.195-.512.195-.707 0z"/></svg>