<?xml version="1.0" encoding="UTF-8"?>
<svg xmlns="http://www.w3.org/2000/svg" id="Layer_1" data-name="Layer 1" viewBox="0 0 24 24">
  <path d="M10,9.75V5.5c0-.276,.224-.5,.5-.5s.5,.224,.5,.5v4.25c0,.689,.561,1.25,1.25,1.25s1.25-.561,1.25-1.25V5.5c0-.276,.224-.5,.5-.5s.5,.224,.5,.5v4.25c0,1.241-1.009,2.25-2.25,2.25s-2.25-1.009-2.25-2.25Zm14-1.255v13.854c.041,1.276-1.521,2.113-2.562,1.372l-4.089-2.727h-6.849c-2.182,0-4.003-1.561-4.412-3.625l-3.526,2.351c-1.041,.741-2.603-.096-2.562-1.372V4.495C0,2.014,2.019-.005,4.5-.005H14.5C16.81-.005,18.697,1.751,18.949,3.995h.551c2.481,0,4.5,2.019,4.5,4.5ZM6.223,16.079c.088-.034,.172-.088,.277-.084H14.5c1.93,0,3.5-1.57,3.5-3.5V4.495c0-1.93-1.57-3.5-3.5-3.5H4.5c-1.93,0-3.5,1.57-3.5,3.5v13.854c-.019,.502,.601,.834,1.007,.54l4.215-2.811Zm16.777-7.584c0-1.93-1.57-3.5-3.5-3.5h-.5v7.5c0,2.481-2.019,4.5-4.5,4.5H7.051c.245,1.692,1.691,3,3.449,3h7c.099,0,.195,.029,.277,.084l4.215,2.811c.407,.294,1.026-.039,1.007-.54V8.495Zm-16.25,1.005h-1.25v2c0,.276-.224,.5-.5,.5s-.5-.224-.5-.5V6c0-.551,.449-1,1-1h1.25c1.241,0,2.25,1.009,2.25,2.25,0,.8-.423,1.499-1.054,1.898l.793,2.181c.23,.605-.723,.956-.939,.342l-.798-2.196c-.083,.009-.165,.025-.251,.025Zm-1.25-1h1.25c.689,0,1.25-.561,1.25-1.25s-.561-1.25-1.25-1.25h-1.25v2.5Z"/>
</svg>
