<svg id="Layer_1" viewBox="0 0 24 24" xmlns="http://www.w3.org/2000/svg" data-name="Layer 1"><path d="m21.5 23h-2.5v-21.5c0-.827-.673-1.5-1.5-1.5h-1c-.827 0-1.5.673-1.5 1.5v1.5h-1v-1.5c0-.827-.673-1.5-1.5-1.5h-1c-.827 0-1.5.673-1.5 1.5v1.5h-1v-1.5c0-.827-.673-1.5-1.5-1.5h-1c-.827 0-1.5.673-1.5 1.5v21.5h-2.5c-.276 0-.5.224-.5.5s.224.5.5.5h19c.276 0 .5-.224.5-.5s-.224-.5-.5-.5zm-15.5-21.5c0-.275.224-.5.5-.5h1c.276 0 .5.225.5.5v2c0 .276.224.5.5.5h2c.276 0 .5-.224.5-.5v-2c0-.275.224-.5.5-.5h1c.276 0 .5.225.5.5v2c0 .276.224.5.5.5h2c.276 0 .5-.224.5-.5v-2c0-.275.224-.5.5-.5h1c.276 0 .5.225.5.5v21.5h-12zm6 15.5c-.827 0-1.5.673-1.5 1.5v1.5c0 .552.449 1 1 1h1c.551 0 1-.448 1-1v-1.5c0-.827-.673-1.5-1.5-1.5zm-.5 3v-1.5c0-.275.224-.5.5-.5s.5.225.5.5v1.5zm.5-14c-.827 0-1.5.673-1.5 1.5v1.5c0 .552.449 1 1 1h1c.551 0 1-.448 1-1v-1.5c0-.827-.673-1.5-1.5-1.5zm-.5 3v-1.5c0-.275.224-.5.5-.5s.5.225.5.5v1.5zm.5 2.5c-.827 0-1.5.673-1.5 1.5v1.5c0 .552.449 1 1 1h1c.551 0 1-.448 1-1v-1.5c0-.827-.673-1.5-1.5-1.5zm-.5 3v-1.5c0-.275.224-.5.5-.5s.5.225.5.5v1.5z"/></svg>