<svg id="Layer_1" viewBox="0 0 24 24" xmlns="http://www.w3.org/2000/svg" data-name="Layer 1"><path d="m12.087 15.087 1.913 1.913h-.603c-.97.025-1.654-1.024-1.311-1.913zm-2.087-.587c0 .275-.225.5-.5.5h-2c-.275 0-.5-.225-.5-.5v-3.46c.108-.024.217-.04.328-.04h.672l-.971-.971c-.554.066-1.068.303-1.469.703l-1.914 1.914c-.195.195-.195.512 0 .707s.512.195.707 0l1.646-1.646v2.793c0 .651.419 1.201 1 1.408v2.592c0 .276.224.5.5.5s.5-.224.5-.5v-2.5h1v2.5c0 .276.224.5.5.5s.5-.224.5-.5v-2.592c.581-.207 1-.757 1-1.408v-.5l-1-1v1.5zm4 4c0 .276.224.5.5.5s.5-.224.5-.5v-.5l-1-1zm10-6.5c0 6.617-5.383 12-12 12s-12-5.383-12-12 5.383-12 12-12 12 5.383 12 12zm-12 11c2.853 0 5.447-1.101 7.404-2.889l-15.515-15.515c-1.788 1.957-2.889 4.551-2.889 7.404 0 6.065 4.935 11 11 11zm-2.5-16c0-.551-.448-1-1-1-.491 0-.881.362-.965.828l1.137 1.137c.467-.085.828-.475.828-.965zm8.103 9c.251.007.453-.253.385-.493l-.938-3.75c-.111-.446-.51-.757-.97-.757h-1.16c-.46 0-.858.312-.97.757l-.297 1.189 3.054 3.054zm5.397-4c0-6.065-4.935-11-11-11-2.853 0-5.447 1.101-7.404 2.889l2.157 2.157c.34-.62.991-1.046 1.747-1.046 1.103 0 2 .897 2 2 0 .756-.426 1.407-1.046 1.747l3.374 3.374.151-.606c.224-.892 1.021-1.515 1.94-1.515h1.16c.919 0 1.717.623 1.94 1.515l.938 3.75c.104.42.013.856-.254 1.198-.247.316-.611.5-1.008.526l2.415 2.415c1.788-1.957 2.889-4.551 2.889-7.404zm-5.5-5c0 1.103-.897 2-2 2s-2-.897-2-2 .897-2 2-2 2 .897 2 2zm-1 0c0-.551-.448-1-1-1s-1 .449-1 1 .448 1 1 1 1-.449 1-1z"/></svg>