<svg id="Layer_1" viewBox="0 0 24 24" xmlns="http://www.w3.org/2000/svg" data-name="Layer 1"><path d="m10 10.5h-3.5c-.276 0-.5-.224-.5-.5s.224-.5.5-.5h3v-5c0-.276.224-.5.5-.5s.5.224.5.5v5.5c0 .276-.224.5-.5.5zm14 9.714c0 1.51-1.328 2.786-2.9 2.786h-1.965c-.702.637-1.636 1-2.635 1h-3.876c-1.335 0-2.553-.647-3.259-1.732-.625-.96-1.165-3.522-1.356-5.446-.046-.469.107-.937.421-1.283.309-.342.751-.538 1.211-.538l9.841.002c.46 0 .902.196 1.211.537.314.348.468.815.421 1.284-.037.373-.091.772-.152 1.177 1.81-.056 3.064.781 3.038 2.214zm-5.08 1.509c.457-.702.995-2.944 1.199-4.999.019-.188-.042-.375-.167-.513-.122-.135-.289-.209-.47-.209l-9.841-.002c-.181 0-.348.074-.47.209-.125.138-.186.325-.167.513.205 2.055.743 4.298 1.2 5.001.52.8 1.425 1.277 2.42 1.277h3.876c.996 0 1.9-.478 2.42-1.277zm4.08-1.509c-.002-1.133-1.294-1.239-2.209-1.214-.23 1.192-.543 2.32-.889 3h1.198c1.012 0 1.9-.835 1.9-1.786zm-17.263-2.286c-2.922-1.573-4.737-4.611-4.737-7.928 0-4.963 4.038-9 9-9s9 4.037 9 9c0 .804-.106 1.601-.315 2.369-.073.266.084.541.351.613s.542-.084.614-.352c.232-.854.35-1.738.35-2.631 0-5.513-4.486-9.999-10-9.999s-10 4.486-10 10c0 3.685 2.017 7.06 5.263 8.809.239.129.546.043.678-.203.131-.243.04-.547-.203-.678z"/></svg>