<svg id="Layer_1" viewBox="0 0 24 24" xmlns="http://www.w3.org/2000/svg" data-name="Layer 1"><path d="m14 23.5c0 .276-.224.5-.5.5h-9c-2.481 0-4.5-2.019-4.5-4.5v-15c0-2.481 2.019-4.5 4.5-4.5h7c2.481 0 4.5 2.019 4.5 4.5v4c0 .276-.224.5-.5.5s-.5-.224-.5-.5v-4c0-1.93-1.57-3.5-3.5-3.5h-7c-1.93 0-3.5 1.57-3.5 3.5v15c0 1.93 1.57 3.5 3.5 3.5h9c.276 0 .5.224.5.5zm-7.5-10.5h-2c-.276 0-.5.224-.5.5s.224.5.5.5h2c.276 0 .5-.224.5-.5s-.224-.5-.5-.5zm5 0h-2c-.276 0-.5.224-.5.5s.224.5.5.5h2c.276 0 .5-.224.5-.5s-.224-.5-.5-.5zm-5 4h-2c-.276 0-.5.224-.5.5s.224.5.5.5h2c.276 0 .5-.224.5-.5s-.224-.5-.5-.5zm5 0h-2c-.276 0-.5.224-.5.5s.224.5.5.5h2c.276 0 .5-.224.5-.5s-.224-.5-.5-.5zm-5-12h-2c-.276 0-.5.224-.5.5s.224.5.5.5h2c.276 0 .5-.224.5-.5s-.224-.5-.5-.5zm5 0h-2c-.276 0-.5.224-.5.5s.224.5.5.5h2c.276 0 .5-.224.5-.5s-.224-.5-.5-.5zm-5 4h-2c-.276 0-.5.224-.5.5s.224.5.5.5h2c.276 0 .5-.224.5-.5s-.224-.5-.5-.5zm5 0h-2c-.276 0-.5.224-.5.5s.224.5.5.5h2c.276 0 .5-.224.5-.5s-.224-.5-.5-.5zm12.499 5v3.413c0 4.098-3.889 5.979-5.08 6.457-.113.042-.265.13-.418.13s-.324-.106-.448-.165c-1.185-.592-5.053-2.804-5.053-6.422v-3.413c0-1.079.688-2.033 1.713-2.373l3-.995c.508-.169 1.066-.167 1.573 0l3 .995c1.025.34 1.713 1.294 1.713 2.373zm-1 0c0-.647-.413-1.22-1.028-1.424l-3-.995c-.305-.1-.64-.1-.945 0l-3 .995c-.615.204-1.028.776-1.028 1.424v3.413c0 3.044 3.445 5 4.501 5.527l.023.012.022-.01c1.046-.42 4.454-2.059 4.454-5.529v-3.413z"/></svg>