<?xml version="1.0" encoding="UTF-8"?>
<svg xmlns="http://www.w3.org/2000/svg" id="Layer_1" data-name="Layer 1" viewBox="0 0 24 24">
  <path d="M24,10.008v.5c0,1.379-1.121,2.5-2.5,2.5s-2.5-1.121-2.5-2.5v-3c0-1.379,1.121-2.5,2.5-2.5s2.5,1.121,2.5,2.5c0,.276-.224,.5-.5,.5s-.5-.224-.5-.5c0-.827-.673-1.5-1.5-1.5s-1.5,.673-1.5,1.5v3c0,.827,.673,1.5,1.5,1.5s1.5-.673,1.5-1.5v-.5h-1.5c-.276,0-.5-.224-.5-.5s.224-.5,.5-.5h1.5c.552,0,1,.448,1,1Zm-8.5,1.992h-2c-.276,0-.5,.224-.5,.5s.224,.5,.5,.5h2c1.379,0,2.5-1.121,2.5-2.5s-1.121-2.5-2.5-2.5h-1.5v-2h3c.276,0,.5-.224,.5-.5s-.224-.5-.5-.5h-3c-.552,0-1,.448-1,1v2c0,.552,.448,1,1,1h1.5c.827,0,1.5,.673,1.5,1.5s-.673,1.5-1.5,1.5Zm4.5,3.5v4c0,2.481-2.019,4.5-4.5,4.5h-7c-2.481,0-4.5-2.019-4.5-4.5V4.5C4,2.019,6.019,0,8.5,0h7c1.636,0,3.145,.889,3.938,2.32,.134,.241,.046,.546-.195,.68-.242,.131-.545,.047-.68-.195-.616-1.113-1.79-1.805-3.062-1.805h-7c-1.93,0-3.5,1.57-3.5,3.5v12.5h14v-1.5c0-.276,.224-.5,.5-.5s.5,.224,.5,.5Zm-1,4v-1.5H5v1.5c0,1.93,1.57,3.5,3.5,3.5h7c1.93,0,3.5-1.57,3.5-3.5Zm-5.5,.5h-3c-.276,0-.5,.224-.5,.5s.224,.5,.5,.5h3c.276,0,.5-.224,.5-.5s-.224-.5-.5-.5Z"/>
</svg>
