<svg id="Layer_1" viewBox="0 0 24 24" xmlns="http://www.w3.org/2000/svg" data-name="Layer 1"><path d="m23.964 10.313c-.103-.256-.394-.379-.65-.277-1.672.671-2.988 1.034-4.104 1.228.337-.143.633-.288.887-.433 1.757-1.003 2.325-2.458 2.492-3.503.148-.916-.372-1.827-1.235-2.165-.984-.386-2.527-.638-4.284.366-.429.245-.918.595-1.465 1.047.872-1.406 2.105-2.985 4.21-4.687.215-.174.248-.488.074-.703-.174-.214-.487-.247-.703-.074-2.115 1.711-3.389 3.297-4.295 4.718.088-.57.133-1.067.133-1.488 0-2.021-.981-3.237-1.806-3.901-.722-.583-1.771-.583-2.493 0-.824.664-1.806 1.879-1.806 3.901 0 .615.1 1.33.257 2.095-.892-1.373-1.762-3.104-2.213-6.013-.042-.273-.297-.458-.571-.417-.273.042-.46.298-.417.571.394 2.539 1.11 4.263 1.869 5.594-.346-.255-.672-.471-.97-.641-1.755-1.002-3.298-.752-4.284-.366-.864.338-1.383 1.249-1.236 2.165.167 1.045.736 2.5 2.493 3.503.666.38 1.62.756 2.848 1.124-1.229.368-2.184.745-2.848 1.124-1.756 1.003-2.325 2.458-2.493 3.502-.147.916.372 1.826 1.236 2.166.985.386 2.527.636 4.284-.366.688-.393 1.532-1.056 2.519-1.979-.252 1.081-.473 2.303-.473 3.256 0 2.022.982 3.238 1.806 3.901.361.292.804.437 1.247.437s.886-.146 1.247-.437c.824-.664 1.806-1.88 1.806-3.901 0-.954-.222-2.176-.473-3.256.986.923 1.831 1.586 2.519 1.979 1.755 1.003 3.299.753 4.284.366.863-.339 1.384-1.25 1.236-2.165-.168-1.044-.736-2.5-2.493-3.503-.412-.236-.937-.47-1.57-.702 1.348-.155 2.962-.531 5.16-1.413.256-.103.38-.394.277-.65zm-12.612-9.094c.364-.294.874-.294 1.238 0 .654.527 1.433 1.497 1.433 3.123 0 1.013-.315 2.583-.895 4.607-.609-.564-1.617-.574-2.234-.013-.454-1.577-.976-3.408-.976-4.593 0-1.626.779-2.596 1.434-3.123zm1.303 8.929c0 .175-.28.65-.647 1.129-.368-.479-.647-.955-.647-1.133-.001-.167.065-.326.187-.449s.287-.194.453-.194c.173 0 .339.07.465.197.124.124.191.283.19.451zm-8.313-.184c-1.413-.807-1.868-1.964-2.001-2.794-.075-.462.178-.904.614-1.075.782-.307 2.011-.504 3.423.303.97.554 2.291 1.66 3.627 3.034l.378.444c-.015.089-.022.18-.021.272 0 .39.253.878.541 1.308h-2.224c-2.004-.492-3.463-.994-4.335-1.492zm2.035 7.549c-1.412.806-2.641.61-3.423.304-.436-.171-.688-.614-.614-1.076.133-.829.588-1.986 2.001-2.793.87-.497 2.575-.999 4.581-1.492-.226.504-.195 1.11.137 1.6.177.262.422.462.703.585-1.398 1.421-2.537 2.387-3.386 2.872zm3.685-4.917s0 0 0 0c.007-.004.171-.111.826-.111.163 0 .325.007.471.016-.19.572-.427 1.069-.572 1.168-.287.195-.706.111-.898-.173-.2-.296-.123-.699.173-.899zm2.529 10.186c-.364.293-.874.293-1.239 0-.654-.527-1.433-1.497-1.433-3.123 0-1.035.469-3.013 1.03-4.965.14-.047.275-.113.399-.198.26-.176.482-.524.66-.904.177.378.396.724.652.898.117.083.244.148.377.196.566 1.964.987 3.931.987 4.972 0 1.626-.779 2.596-1.433 3.123zm.989-9.003c-.089 0-.22-.018-.351-.111-.146-.099-.384-.601-.575-1.177.146-.011.31-.019.473-.019.473 0 .753.074.826.124.216.146.315.44.24.733-.065.295-.358.45-.615.45zm6.021.169c1.413.807 1.868 1.964 2.002 2.793.074.462-.179.904-.614 1.076-.783.306-2.01.502-3.423-.304-.846-.483-1.977-1.442-3.367-2.852.484-.191.858-.599.969-1.098.096-.374.063-.757-.078-1.091 1.972.488 3.651.984 4.511 1.476zm-4.393-2.478s-.005.002-.008.002c0 0-1.988 0-2.073 0-.008 0-.015 0-.023 0 .292-.433.551-.929.551-1.322 0-.069-.005-.137-.013-.205 0 0 2.178-2.662 3.923-3.547 1.45-.735 2.64-.61 3.423-.303.436.171.688.613.613 1.076-.133.829-.588 1.987-2.001 2.793-.881.502-2.358 1.009-4.393 1.506z"/></svg>