<?xml version="1.0" encoding="UTF-8"?>
<svg xmlns="http://www.w3.org/2000/svg" id="Layer_1" data-name="Layer 1" viewBox="0 0 24 24">
  <path d="M14.904,9.772c1.195,.617,2.72,.15,3.354-1.074l.454-.874c.651-1.179,.125-2.806-1.081-3.379L11.482,1.036c-3.717-1.933-6.493-.718-7.815,.179-.94,.59-.86,2.106,.146,2.583l4.458,2.402L.262,20.388c-.603,1.212-.116,2.706,1.085,3.33,1.18,.653,2.811,.122,3.378-1.082l7.942-14.068,2.236,1.205ZM4.273,2.91c-.372-.284-.385-.538-.045-.867,.812-.55,1.936-1.046,3.344-1.046,1.005,0,2.154,.253,3.438,.92l6.155,3.413c.736,.349,1.052,1.318,.66,2.033l-.454,.874c-.378,.728-1.281,1.018-2.001,.649L4.283,2.915s-.007-.003-.01-.005Zm-.431,19.257c-.347,.74-1.318,1.053-2.034,.664-.72-.375-1.012-1.271-.663-1.975L9.153,6.674l2.634,1.419L3.842,22.167Zm14.658-1.667c0,.276-.224,.5-.5,.5h-1.804c-.41,0-.807-.171-1.089-.469l-1.081-1.141c-.19-.2-.182-.517,.019-.707,.201-.188,.518-.181,.707,.02l1.081,1.141c.094,.1,.227,.156,.363,.156h1.804c.276,0,.5,.224,.5,.5Zm5.293-2.424l-1.116-2.975c-.472-1.256-1.689-2.1-3.03-2.1l-3.322-.003c-.866,0-1.71,.354-2.316,.973l-2.085,2.129c-.596,.608-.925,1.413-.925,2.266v.89c0,.854,.329,1.658,.925,2.267l1.473,1.504c.605,.618,1.448,.973,2.314,.973h4.206c1.186,0,2.275-.646,2.843-1.688l.843-1.545c.452-.826,.521-1.807,.19-2.69Zm-1.067,2.211l-.844,1.546c-.393,.719-1.146,1.166-1.965,1.166h-4.206c-.598,0-1.181-.245-1.599-.672l-1.474-1.504c-.412-.421-.639-.978-.639-1.567v-.89c0-.589,.227-1.146,.639-1.566h0l2.084-2.129c.418-.427,1.002-.672,1.601-.672l3.322,.003c.926,0,1.768,.583,2.094,1.451l1.116,2.975c.229,.61,.182,1.288-.131,1.859Z"/>
</svg>
