<svg id="Layer_1" viewBox="0 0 24 24" xmlns="http://www.w3.org/2000/svg" data-name="Layer 1"><path d="m19.5 0h-15c-2.481 0-4.5 2.019-4.5 4.5v10c0 2.481 2.019 4.5 4.5 4.5h7v4h-5c-.276 0-.5.224-.5.5s.224.5.5.5h11c.276 0 .5-.224.5-.5s-.224-.5-.5-.5h-5v-4h7c2.481 0 4.5-2.019 4.5-4.5v-10c0-2.481-2.019-4.5-4.5-4.5zm3.5 14.5c0 1.93-1.57 3.5-3.5 3.5h-15c-1.93 0-3.5-1.57-3.5-3.5v-10c0-1.93 1.57-3.5 3.5-3.5h15c1.93 0 3.5 1.57 3.5 3.5zm-5.533-5c0 3.017-2.441 5.474-5.452 5.5-2.606.009-4.887-1.846-5.405-4.4-.055-.271.12-.534.391-.59.266-.057.534.12.59.391.423 2.08 2.269 3.592 4.394 3.6 2.474-.009 4.483-2.024 4.483-4.5s-2.019-4.5-4.5-4.5c-1.476 0-2.854.739-3.691 1.941.068.035.142.059.224.059h3c.276 0 .5.224.5.5s-.224.5-.5.5h-3c-.827 0-1.5-.673-1.5-1.5v-3.001c0-.276.224-.5.5-.5s.5.224.5.5v2.202c1.026-1.068 2.455-1.702 3.967-1.702 3.032 0 5.5 2.468 5.5 5.5z"/></svg>