<svg id="Layer_1" viewBox="0 0 24 24" xmlns="http://www.w3.org/2000/svg" data-name="Layer 1"><path d="m22 20h-1v-10.999h.955c1.127 0 2.045-.917 2.045-2.045 0-.779-.433-1.48-1.131-1.829l-9.629-4.81c-.776-.422-1.703-.422-2.465-.008l-9.644 4.819c-.698.349-1.131 1.05-1.131 1.829 0 1.128.917 2.045 2.045 2.045h.955v10.999h-1c-1.103 0-2 .897-2 2s.897 2 2 2h20c1.103 0 2-.897 2-2s-.897-2-2-2zm-2 0h-1v-10.999h1zm-4 0v-10.999h2v10.999zm-2 0v-10.999h1v10.999zm-3 0v-10.999h2v10.999zm-2 0v-10.999h1v10.999zm-3 0v-10.999h2v10.999zm-5-13.044c0-.398.222-.756.578-.934l9.659-4.826c.237-.129.497-.194.759-.194.266 0 .534.067.782.202l9.644 4.818c.356.179.578.536.578.934 0 .576-.469 1.045-1.045 1.045h-19.91c-.576 0-1.045-.469-1.045-1.045zm3 2.045h1v10.999h-1zm18 13.999h-20c-.551 0-1-.448-1-1s.449-1 1-1h20c.551 0 1 .448 1 1s-.449 1-1 1zm-11-17.998c0-.552.448-1 1-1s1 .448 1 1-.448 1-1 1-1-.448-1-1z"/></svg>