<svg id="Layer_1" viewBox="0 0 24 24" xmlns="http://www.w3.org/2000/svg" data-name="Layer 1"><path d="m18.916 2.305-6.759-2.279c-.102-.034-.213-.034-.314 0l-6.759 2.279c-1.845.612-3.084 2.329-3.084 4.271l-.003 5.397c0 6.61 7.203 10.748 9.397 11.845.149.063.348.182.606.182s.482-.083.615-.143c2.198-.884 9.382-4.383 9.382-11.884l.003-5.397c0-1.943-1.239-3.66-3.084-4.271zm2.081 9.668c-.082 7.051-6.71 10.093-8.976 11.018-2.25-1.138-8.947-4.813-9.024-11.018l.003-5.397c0-1.511.964-2.846 2.398-3.322l6.602-2.189 6.602 2.188c1.435.476 2.398 1.811 2.398 3.322l-.003 5.397zm-5.022-5.17-2.505-1.415c-.912-.516-2.043-.514-2.953.001l-2.496 1.413c-.939.531-1.522 1.532-1.522 2.611v3.147c0 1.074.579 2.072 1.512 2.604l2.519 1.439c.458.262.973.393 1.488.393.503 0 1.007-.125 1.456-.375l2.482-1.377c.951-.529 1.543-1.534 1.543-2.623v-3.207c0-1.08-.584-2.081-1.523-2.612zm-4.966-.543c.305-.172.646-.258.985-.258s.681.086.983.257l2.505 1.415c.138.078.258.176.371.281l-3.854 2.203-3.857-2.204c.113-.105.233-.203.369-.28l2.496-1.413zm-2.503 8.037c-.622-.355-1.008-1.021-1.008-1.736v-3.147c0-.214.044-.418.108-.616l3.892 2.224v4.908c-.164-.044-.323-.108-.474-.194l-2.519-1.439zm7.992-1.675c0 .727-.395 1.396-1.028 1.749l-2.482 1.377c-.155.086-.32.148-.489.19v-4.914l3.892-2.224c.064.197.108.402.108.615v3.207z"/></svg>