<svg id="Layer_1" viewBox="0 0 24 24" xmlns="http://www.w3.org/2000/svg" data-name="Layer 1"><path d="m23.626 12.249-1.17-1.808c-.563-.869-1.416-1.523-2.402-1.839l-4.901-1.576c-.263-.083-.544.06-.629.323-.084.263.06.544.323.629l4.901 1.576c.015.005.028.013.042.018l-7.794 2.606-7.785-2.603c.016-.006.031-.015.048-.02l4.894-1.576c.263-.085.407-.367.323-.629-.085-.263-.367-.406-.629-.323l-4.894 1.576c-.986.317-1.839.97-2.401 1.839l-1.179 1.82c-.238.393-.369.885-.369 1.385-.012 1.187.867 2.24 2.007 2.525l-.003 2.322c-.003 1.512.959 2.849 2.393 3.327l5.544 1.848c.663.221 1.359.331 2.055.331s1.393-.11 2.055-.331l5.551-1.851c1.429-.476 2.391-1.808 2.394-3.314l.004-2.334c1.136-.286 2.012-1.337 2-2.522 0-.499-.131-.991-.377-1.398zm-22.527 1.927c-.17-.435-.098-1.018.121-1.384l1.171-1.808c.182-.282.411-.526.663-.742l8.186 2.737-1.95 3.251c-.371.617-1.166.924-1.87.69l-5.314-1.771c-.469-.156-.836-.511-1.007-.974zm3.618 6.696c-1.024-.342-1.711-1.296-1.709-2.376l.003-1.991 4.095 1.365c.264.088.538.132.812.132.911 0 1.766-.481 2.231-1.258l1.355-2.259-.003 8.475c-.42-.038-.837-.107-1.239-.24l-5.544-1.848zm16.283-2.37c-.002 1.076-.689 2.027-1.709 2.367l-5.552 1.851c-.401.134-.818.202-1.239.24l.003-8.476 1.356 2.26c.465.776 1.32 1.258 2.231 1.258.275 0 .548-.044.813-.132l4.1-1.367zm1.909-4.327c-.172.464-.539.819-1.008.975l-5.313 1.771c-.703.233-1.499-.073-1.871-.69l-1.952-3.255 8.185-2.736c.253.217.484.462.667.745l1.162 1.795c.229.382.301.951.13 1.396zm-13.909-11.175c0-.935.424-1.8 1.164-2.373.741-.573 1.698-.766 2.627-.525 1.017.263 1.844 1.09 2.107 2.107.334 1.294-.19 2.633-1.305 3.333-.645.408-1.136 1.273-1.094 1.926.019.287-.212.533-.5.532-.261 0-.481-.203-.499-.468-.075-1.166.728-2.31 1.559-2.836.757-.476 1.098-1.354.87-2.237-.174-.67-.719-1.215-1.389-1.389-.628-.161-1.27-.035-1.765.348-.493.382-.776.959-.776 1.582 0 .276-.224.5-.5.5s-.5-.224-.5-.5zm3 6c.552 0 1 .448 1 1s-.448 1-1 1-1-.448-1-1 .448-1 1-1z"/></svg>