<svg id="Layer_1" viewBox="0 0 24 24" xmlns="http://www.w3.org/2000/svg" data-name="Layer 1"><path d="m23 5.154v-1.199c0-.527-.429-.955-.955-.955-.33 0-.657.146-.853.38-.163.196-.229.438-.179.71l.219.909h-2.429c-2.52.076-5.048-.709-7.329-2.264-2.177-1.483-4.516-2.519-6.107-2.704-.599-.073-1.236.168-1.689.641-.457.476-.668 1.145-.565 1.79.263 1.649 1.239 3.365 2.954 5.216-2.125-.281-3.777-.104-4.794.265-.512.186-.926.595-1.134 1.123-.28.711-.125 1.523.396 2.069 1.307 1.367 4.337 3.637 6.762 4.688-2.851.631-5.402 1.695-6.713 2.871-.371.333-.584.813-.584 1.316 0 .499.21.977.577 1.311 2.169 1.978 7.214 2.68 10.875 2.68 5.788 0 12.548-3.995 12.548-15.253 0-2.091-.733-3.254-1-3.593zm-18.9-2.85c-.054-.337.059-.688.3-.94.237-.247.557-.375.852-.34 1.439.167 3.608 1.14 5.659 2.538 2.456 1.673 5.162 2.511 7.907 2.438h.459c-.221.166-.442.348-.662.57-3.939 3.538-8.173 2.187-8.347 2.13-.878-.305-1.702-.528-2.489-.705-2.199-2.099-3.403-3.961-3.679-5.691zm-2.842 8.138c-.252-.264-.327-.661-.188-1.011.103-.261.301-.461.544-.549 1.385-.502 4.397-.604 8.33.764.195.066 4.713 1.513 9.017-2.071-.3.439-.59.924-.836 1.496-2.59 5.179-7.811 6.261-7.817 6.265-.358.036-.716.088-1.073.14-.185-.057-.873-.301-.873-.301-2.364-.802-5.73-3.296-7.103-4.732zm10.194 12.558c-4.516 0-8.615-.972-10.202-2.419-.159-.145-.25-.354-.25-.572 0-.22.092-.428.252-.572 1.619-1.452 5.384-2.729 9.2-3.113.233-.045 5.75-1.174 8.578-6.832.948-2.201 2.551-3.253 2.957-3.493h.379c.209.326.634 1.18.634 2.747 0 13.566-9.619 14.253-11.548 14.253z"/></svg>