<?xml version="1.0" encoding="UTF-8"?>
<svg xmlns="http://www.w3.org/2000/svg" id="Layer_1" data-name="Layer 1" viewBox="0 0 24 24">
  <path d="M10.854,17.244c.195-.195,.195-.512,0-.707s-.512-.195-.707,0c-.267,.282-.547,.513-.989,.501-.682,.003-1.209-.591-1.158-1.265,.192-.14,.468-.345,.805-.604,.219-.168,.26-.482,.092-.701-.167-.218-.481-.259-.701-.092-.287,.221-.527,.399-.709,.533L3.128,10.552c.519-.705,1.777-2.361,3.024-3.608C9.382,3.714,11.337,2.412,14.846,1.146c.351-.108,1.453-.319,1.889,.118,.436,.436,.226,1.538,.125,1.867-.632,1.754-1.35,3.205-2.398,4.85-.148,.233-.08,.542,.153,.69,.232,.148,.542,.081,.69-.153,1.09-1.71,1.836-3.22,2.502-5.069,.061-.197,.572-1.953-.366-2.892-.939-.939-2.695-.427-2.913-.359-3.159,1.138-5.176,2.353-7.808,4.805-2.747,.051-4.845,.882-6.236,2.472-.313,.358-.485,.843-.485,1.366,0,1.19,.968,2.158,2.158,2.158h.005l2.065,2.065-1.581,1.581c-.195,.195-.195,.512,0,.707s.512,.195,.707,0l1.581-1.581,2.065,2.066v.043c0,1.189,.968,2.157,2.158,2.157,.7,.011,1.257-.316,1.696-.794ZM1,8.842c0-.281,.084-.532,.238-.708,1.02-1.167,2.46-1.838,4.367-2.053-1.348,1.298-2.803,3.219-3.312,3.919-.683,.061-1.297-.463-1.293-1.158Zm11-3.842c.552,0,1,.448,1,1s-.448,1-1,1-1-.448-1-1,.448-1,1-1Zm11.949,7.152c-.122,.249-.419,.352-.669,.229-.99-.485-2.034-.475-3.019,.032l-3.302,1.954c-.198,.116-.45,.083-.611-.081l-3.715-3.79c-.554-.555-1.414-.658-1.998-.238-.755,.511-.847,1.661-.195,2.288l6.332,6.61c.306,.298,.066,.86-.361,.846h-3.91c-.827,0-1.5,.673-1.5,1.5s.673,1.5,1.5,1.5h8c.276,0,.5,.224,.5,.5s-.224,.5-.5,.5H12.5c-1.378,0-2.5-1.121-2.5-2.5s1.122-2.5,2.5-2.5h2.739l-5.514-5.756c-1.079-1.032-.916-2.953,.325-3.799,.976-.704,2.393-.555,3.293,.346l3.445,3.514,2.99-1.768c1.302-.672,2.656-.686,3.942-.055,.248,.122,.35,.421,.229,.669Z"/>
</svg>
