<svg id="Layer_1" viewBox="0 0 24 24" xmlns="http://www.w3.org/2000/svg" data-name="Layer 1"><path d="m7.017 11.713s.008.005.011.008c.01.158.009.315.039.472.316 1.626 1.81 2.807 3.551 2.807h3.761c.516 0 1.006-.249 1.311-.666.305-.416.39-.936.235-1.424-.346-1.088-1.73-4.581-5.172-4.884-2.646-3.247-5.805-7.124-5.865-7.191-1.119-1.113-2.936-1.113-4.052.002-1.115 1.118-1.109 2.941-.004 4.047l6.185 6.828zm2.542-3.569c-.68.191-1.298.572-1.76 1.132-.281.34-.473.731-.607 1.141l-1.492-1.646c.388-1.139 1.365-1.928 2.628-2.138.5.614.933 1.145 1.231 1.511zm5.413 5.069c.058.182.025.375-.089.531-.119.162-.302.256-.503.256h-3.761c-1.264 0-2.344-.84-2.569-1.997-.146-.75.044-1.512.521-2.09.478-.58 1.181-.913 1.91-.913 2.962.119 4.187 3.255 4.492 4.213zm-13.429-11.669c.726-.725 1.911-.727 2.609-.032.068.081 1.883 2.308 3.469 4.254-1.192.341-2.138 1.117-2.662 2.187l-3.403-3.757c-.733-.735-.739-1.925-.013-2.652zm-.471 8.758c-.091 1.233.021 2.433.332 3.565.073.267-.083.542-.35.615-.259.072-.542-.081-.614-.35-.342-1.242-.465-2.556-.365-3.903.055-.753.198-1.512.425-2.254.08-.264.359-.414.624-.332.264.08.413.36.333.624-.205.671-.334 1.356-.384 2.036zm22.928 3.244c0 .585-.412 1.454-1.545 1.454h-.549l-.516 2.434c-.438 2.066-2.29 3.566-4.402 3.566h-.987v.5c0 1.379-1.122 2.5-2.5 2.5h-3c-.276 0-.5-.224-.5-.5s.224-.5.5-.5h3c.827 0 1.5-.673 1.5-1.5v-1c0-.276.224-.5.5-.5h1.487c1.643 0 3.083-1.167 3.424-2.773l.6-2.83c.049-.231.251-.396.487-.396h.957c.492 0 .545-.317.545-.454 0-.866-2.607-6.79-4.014-8.531-2.219-2.962-5.858-4.454-9.52-3.899-.48.072-.962.187-1.432.341-.264.088-.545-.057-.631-.319-.086-.263.057-.545.319-.631.523-.171 1.06-.299 1.595-.38 4.02-.603 8.028 1.033 10.457 4.273 1.374 1.7 4.225 7.863 4.225 9.145zm-21.25 2.47c-.775 0-1.396.511-1.544 1.271l-1.197 6.117c-.053.271.124.533.395.586.274.054.534-.123.587-.395l.312-1.596h2.894l.312 1.596c.052.273.322.449.587.395.271-.053.448-.315.395-.586l-1.197-6.116c-.148-.761-.769-1.271-1.544-1.271zm-1.251 4.983.689-3.521c.066-.341.334-.463.562-.463s.496.122.562.463l.689 3.521zm6.501-4.5v7c0 .276-.224.5-.5.5s-.5-.224-.5-.5v-7c0-.276.224-.5.5-.5s.5.224.5.5z"/></svg>