<?xml version="1.0" encoding="UTF-8"?>
<svg xmlns="http://www.w3.org/2000/svg" id="Layer_1" data-name="Layer 1" viewBox="0 0 24 24">
  <path d="m23.952,15.378c-.08-.264-.361-.412-.625-.331l-12.312,3.792c-.091-.085-.187-.164-.287-.237L6.27,2.906c-.31-1.063-1.023-1.928-2.007-2.435C3.278-.037,2.159-.116,1.115.249l-.804.28C.049.62-.088.904.002,1.165c.09.261.377.398.636.308l.805-.28c.784-.273,1.623-.213,2.361.167.738.381,1.273,1.029,1.504,1.823l4.232,14.899c-.184-.035-.372-.057-.566-.057-1.654,0-3,1.346-3,3s1.346,3,3,3,3-1.346,3-3c0-.482-.125-.931-.327-1.335l11.975-3.687c.264-.082.412-.361.33-.625Zm-14.978,7.647c-1.103,0-2-.897-2-2s.897-2,2-2,2,.897,2,2-.897,2-2,2Zm1.191-13.536l1.415,4.655c.347,1.143,1.402,1.881,2.539,1.881.254,0,.513-.037.768-.114l4.582-1.388c.678-.206,1.235-.664,1.569-1.289s.404-1.343.198-2.021l-1.414-4.651-1.459-4.8c-.401-1.317-1.8-2.064-3.116-1.666l-4.872,1.476c-.64.193-1.165.625-1.48,1.214-.315.589-.382,1.266-.188,1.905l1.458,4.797Zm9.991,3.274c-.209.39-.556.675-.978.803l-4.582,1.388c-.873.264-1.794-.23-2.059-1.101l-1.27-4.176,7.743-2.346,1.269,4.173c.129.422.085.869-.123,1.259ZM9.777,3.258c.189-.354.504-.612.888-.729l4.871-1.476h0c.144-.044.29-.064.434-.064.643,0,1.239.417,1.436,1.064l1.313,4.321-7.743,2.346-1.312-4.319c-.117-.383-.077-.79.112-1.143Zm2.369.847c-.08-.264.069-.543.333-.624l2.152-.652c.262-.08.543.07.623.333.08.264-.069.543-.334.624,0,0-2.249.673-2.296.673-.215,0-.413-.139-.479-.355Zm5.117,5.817c.08.264-.069.543-.333.624,0,0-2.249.674-2.297.674-.215,0-.413-.139-.479-.355-.08-.264.069-.543.333-.624l2.151-.652c.269-.081.544.07.624.333Z"/>
</svg>
