<?xml version="1.0" encoding="UTF-8"?>
<svg xmlns="http://www.w3.org/2000/svg" id="Layer_1" data-name="Layer 1" viewBox="0 0 24 24">
  <path d="m18,14c-.552,0-1-.448-1-1s.448-1,1-1,1,.448,1,1-.448,1-1,1Zm4.86-.945c-.508-2.595-2.366-4.746-4.86-5.628v-2.037c0-.445-.217-.867-.58-1.129-.361-.262-.807-.331-1.224-.191-1.246.415-2.24,1.563-2.575,2.931h-2.121c-.276,0-.5.224-.5.5s.224.5.5.5h2.534c.25,0,.461-.185.495-.432.163-1.185.96-2.209,1.983-2.55.148-.052.266.012.322.053.105.075.165.191.165.318v2.4c0,.222.146.416.357.479,2.423.721,4.219,2.802,4.576,5.302.035.246.317.429.566.429.275,0,.5.225.5.5v2c0,.275-.225.5-.5.5h-.674c-.193,0-.369.111-.451.285-.939,1.977-2.788,3.341-4.945,3.648-.247.035-.43.246-.43.495v.571c0,.552-.448,1-1,1s-1-.448-1-1v-.5c0-.276-.224-.5-.5-.5h-5c-.276,0-.5.224-.5.5v.5c0,.552-.449,1-1,1s-1-.448-1-1v-.79c0-.221-.146-.416-.357-.479-2.972-.885-4.911-3.778-4.611-6.879.246-2.539,2.059-4.708,4.621-5.523.263-.084.408-.365.325-.628-.084-.264-.365-.408-.628-.325-1.494.476-2.763,1.358-3.692,2.494-.37-.636-.593-1.433-.644-2.395-.016-.276-.256-.507-.526-.473-.276.015-.487.25-.473.525.071,1.314.419,2.393,1.021,3.226-.543.906-.895,1.925-.999,3.004-.333,3.449,1.738,6.677,4.964,7.817v.427c0,1.103.897,2,2,2s2-.897,2-2h4c0,1.103.897,2,2,2s2-.897,2-2v-.15c2.201-.445,4.081-1.853,5.135-3.85h.365c.827,0,1.5-.673,1.5-1.5v-2c0-.688-.466-1.27-1.14-1.445ZM5.5,4h2.5v2.5c0,.276.224.5.5.5s.5-.224.5-.5v-2.5h2.5c.276,0,.5-.224.5-.5s-.224-.5-.5-.5h-2.5V.5c0-.276-.224-.5-.5-.5s-.5.224-.5.5v2.5h-2.5c-.276,0-.5.224-.5.5s.224.5.5.5Z"/>
</svg>
