<svg id="Layer_1" viewBox="0 0 24 24" xmlns="http://www.w3.org/2000/svg" data-name="Layer 1"><path d="m12 7c.276 0 .5.224.5.5v4c0 .276-.224.5-.5.5s-.5-.224-.5-.5v-4c0-.276.224-.5.5-.5zm3 .5v3c0 .276.224.5.5.5s.5-.224.5-.5v-3c0-.276-.224-.5-.5-.5s-.5.224-.5.5zm-7 0v3c0 .276.224.5.5.5s.5-.224.5-.5v-3c0-.276-.224-.5-.5-.5s-.5.224-.5.5zm-1.5-2.5h11c1.93 0 3.5-1.57 3.5-3.5v-1c0-.276-.224-.5-.5-.5s-.5.224-.5.5v1c0 1.378-1.122 2.5-2.5 2.5h-11c-1.378 0-2.5-1.122-2.5-2.5v-1c0-.276-.224-.5-.5-.5s-.5.224-.5.5v1c0 1.93 1.57 3.5 3.5 3.5zm14 9h-9.858c-1.21 0-2.221.822-2.533 1.933l-3.742-4.112c-.451-.496-1.069-.787-1.739-.818-.668-.029-1.313.2-1.809.652-1.011.922-1.093 2.504-.184 3.526l6.806 7.639c.343.385.721.745 1.123 1.07.213.173.529.141.703-.075.173-.215.14-.529-.075-.703-.359-.29-.697-.612-1.003-.957l-6.806-7.639c-.548-.615-.498-1.567.11-2.122.298-.272.688-.409 1.088-.393.403.019.775.194 1.047.492l4.502 4.948s.004.002.006.004c.305.938 1.119 1.667 2.144 1.813l6.161.737c.288.034.523-.163.556-.437s-.163-.523-.437-.556l-6.149-.736c-.804-.115-1.41-.813-1.41-1.625 0-.905.737-1.642 1.642-1.642h9.858c1.378 0 2.5 1.122 2.5 2.5v6c0 .276.224.5.5.5s.5-.224.5-.5v-6c0-1.93-1.57-3.5-3.5-3.5z"/></svg>