<svg id="Layer_1" viewBox="0 0 24 24" xmlns="http://www.w3.org/2000/svg" data-name="Layer 1"><path d="m12 13c-1.654 0-3 1.346-3 3s1.346 3 3 3 3-1.346 3-3-1.346-3-3-3zm0 5c-1.103 0-2-.897-2-2s.897-2 2-2 2 .897 2 2-.897 2-2 2zm12-7c0-1.585-1.239-2.873-2.797-2.979.49-.534.797-1.24.797-2.021 0-1.654-1.346-3-3-3h-6.5v-2.5c0-.276-.224-.5-.5-.5s-.5.224-.5.5v2.5h-6.5c-1.654 0-3 1.346-3 3 0 .781.307 1.486.797 2.021-1.558.106-2.797 1.394-2.797 2.979 0 1.65 1.339 2.991 2.987 2.999-.48.532-.781 1.23-.781 2.001 0 1.52 1.14 2.766 2.608 2.96-.5.536-.813 1.25-.813 2.04 0 1.654 1.346 3 3 3h10c1.654 0 3-1.346 3-3 0-.772-.301-1.469-.781-2.001 1.648-.008 2.987-1.349 2.987-2.999 0-.79-.313-1.503-.813-2.04 1.468-.194 2.608-1.44 2.608-2.96zm-19-7h14c1.103 0 2 .897 2 2s-.897 2-2 2h-14c-1.103 0-2-.897-2-2s.897-2 2-2zm16 9h-4.5c-.276 0-.5.224-.5.5s.224.5.5.5h2.705c1.103 0 2 .897 2 2s-.897 2-2 2h-2.705c-.276 0-.5.224-.5.5s.224.5.5.5h.5c1.103 0 2 .897 2 2s-.897 2-2 2h-10c-1.103 0-2-.897-2-2s.897-2 2-2h.5c.276 0 .5-.224.5-.5s-.224-.5-.5-.5h-2.295c-1.103 0-2-.897-2-2s.897-2 2-2h2.295c.276 0 .5-.224.5-.5s-.224-.5-.5-.5h-4.5c-1.103 0-2-.897-2-2s.897-2 2-2h18c1.103 0 2 .897 2 2s-.897 2-2 2z"/></svg>