<svg id="Layer_1" viewBox="0 0 24 24" xmlns="http://www.w3.org/2000/svg" data-name="Layer 1"><path d="m11.5 0h-7.5c-2.206 0-4 1.794-4 4v5.802c0 1.198.628 2.312 1.679 2.981 1.454.923 2.321 2.5 2.321 4.217v6c0 .551.448 1 1 1h1c.552 0 1-.449 1-1v-5.764c0-2.347 1.497-4.423 3.64-5.047.266-.077.418-.354.341-.62-.078-.266-.352-.42-.62-.34-2.567.748-4.36 3.218-4.36 6.007v5.764h-1v-6c0-2.062-1.041-3.954-2.784-5.061-.762-.484-1.216-1.283-1.216-2.137v-4.802h9.499c.276 0 .5-.224.5-.5s-.224-.5-.5-.5h-.5v-3h1.5c.276 0 .5-.224.5-.5s-.224-.5-.5-.5zm-7.5 1v3h-3c0-1.654 1.346-3 3-3zm5 3h-4v-3h4zm11.5-4h-4c-1.93 0-3.5 1.57-3.5 3.5v17c0 1.93 1.57 3.5 3.5 3.5h4c1.93 0 3.5-1.57 3.5-3.5v-17c0-1.93-1.57-3.5-3.5-3.5zm2.5 20.5c0 1.378-1.121 2.5-2.5 2.5h-4c-1.379 0-2.5-1.122-2.5-2.5v-17c0-1.378 1.121-2.5 2.5-2.5h4c1.379 0 2.5 1.122 2.5 2.5zm-4-16v3c0 .276-.224.5-.5.5s-.5-.224-.5-.5v-3c0-.276.224-.5.5-.5s.5.224.5.5zm0 6v3c0 .276-.224.5-.5.5s-.5-.224-.5-.5v-3c0-.276.224-.5.5-.5s.5.224.5.5zm0 5.5v3.5c0 .276-.224.5-.5.5s-.5-.224-.5-.5v-3.5c0-.276.224-.5.5-.5s.5.224.5.5z"/></svg>