<svg id="Layer_1" viewBox="0 0 24 24" xmlns="http://www.w3.org/2000/svg" data-name="Layer 1"><path d="m23.003 5.826.035-2.331c.004-.276-.217-.503-.492-.508h-.008c-.272 0-.496.219-.5.492l-.026 1.714c-.224-.085-.455-.153-.7-.178-.442-.043-.885.017-1.3.162l.026-1.683c.004-.276-.217-.503-.492-.508h-.008c-.272 0-.496.219-.5.492l-.035 2.286s-.008.005-.012.009c-.63.569-.991 1.38-.991 2.226v1c0 3.883-2.106 7.791-6.155 9.32 1.319-1.19 2.155-2.908 2.155-4.82 0-2.481-2.019-4.5-4.5-4.5-1.93 0-3.5 1.57-3.5 3.5 0 1.378 1.122 2.5 2.5 2.5.276 0 .5-.224.5-.5s-.224-.5-.5-.5c-.827 0-1.5-.673-1.5-1.5 0-1.378 1.122-2.5 2.5-2.5 1.93 0 3.5 1.57 3.5 3.5 0 3.033-2.467 5.5-5.5 5.5-3.584 0-6.5-2.916-6.5-6.5 0-5.237 4.262-9.499 9.5-9.499 2.3 0 4.521.833 6.25 2.345.207.181.523.162.705-.047.183-.208.161-.524-.047-.706-1.912-1.672-4.365-2.592-6.908-2.592-5.79 0-10.5 4.71-10.5 10.5 0 2.779 1.523 5.204 3.774 6.5h-2.274c-.827 0-1.5.673-1.5 1.5s.673 1.5 1.5 1.5h10c6.893 0 12.5-5.607 12.5-12.5v-1.352c0-.911-.39-1.74-.997-2.322zm-.003 3.674c0 6.341-5.159 11.5-11.5 11.5h-10c-.276 0-.5-.224-.5-.5s.224-.5.5-.5h6.5c6.374 0 11-4.626 11-11v-1c0-.563.241-1.104.661-1.484.426-.385.978-.564 1.55-.505 1.003.103 1.789 1.042 1.789 2.137z"/></svg>