<svg id="Layer_1" viewBox="0 0 24 24" xmlns="http://www.w3.org/2000/svg" data-name="Layer 1"><path d="m20.854 4.146c.195.195.195.512 0 .707s-.512.195-.707 0l-1-1c-.195-.195-.195-.512 0-.707s.512-.195.707 0zm-3 1c-.195-.195-.512-.195-.707 0s-.195.512 0 .707l1 1c.195.195.512.195.707 0s.195-.512 0-.707zm5.083 1.757-3.59 3.59c.819 1.171.868 2.747.067 3.95-.211.317-.437.633-.679.946-.296.382-.74.604-1.221.61h-.019c-.271 0-.527-.078-.753-.208l-7.768 7.737c-.42.422-1.045.572-1.608.404-.569-.169-.984-.612-1.108-1.188-.051-.576-.468-1.082-1.057-1.167-.714-.119-1.29-.419-1.812-.942-.524-.524-.85-1.143-.966-1.837-.087-.591-.589-1.001-1.168-1.057-.574-.123-1.018-.538-1.187-1.107-.169-.572-.014-1.189.404-1.608l7.758-7.788c-.153-.249-.239-.537-.228-.84.016-.475.242-.909.622-1.192.316-.234.636-.451.957-.652 1.25-.781 2.792-.728 3.943.083l3.574-3.574c1.314-1.315 3.447-1.417 4.853-.229.414.348.868.802 1.216 1.216 1.188 1.405 1.087 3.536-.229 4.853zm-6.893 8.172c-.268-.374-.588-.892-.664-1.339-.047-.272-.172-.516-.361-.704-.19-.189-.436-.314-.709-.36-1.31-.118-2.808-1.623-2.931-2.979-.041-.24-.166-.488-.354-.68-.188-.191-.428-.316-.696-.361-.449-.078-.982-.423-1.379-.72l-5.862 5.885 7.095 7.095 5.86-5.836zm-6.568 6.542-7.094-7.092-1.202 1.206c-.337.353-.212.972.39 1.054.473.082.892.299 1.219.63.326.328.54.75.619 1.219.082.491.307.915.687 1.295.373.374.766.578 1.271.663.47.079.892.293 1.221.62.33.326.547.745.628 1.21.002.301.309.544.436.552.227.062.455.008.619-.154l1.207-1.202zm8.77-10.889-4.957-4.986c-.488-.491-1.133-.744-1.789-.744-.475 0-.955.132-1.388.403-.3.188-.598.389-.891.607-.253.213-.329.548-.045.831.606.516 1.109.79 1.321.826.476.081.905.305 1.24.646.333.339.553.772.633 1.254.084.909 1.202 2.035 2.067 2.114.517.086.948.307 1.286.643.338.335.56.766.643 1.244.036.219.277.688.73 1.245.292.3.62.221.847-.034.227-.294.438-.59.638-.889.652-.98.511-2.309-.336-3.161zm3.984-4.532c.95-.951 1.026-2.488.172-3.499-.313-.374-.725-.786-1.099-1.099-1.013-.857-2.548-.777-3.499.172l-3.537 3.537 4.413 4.439z"/></svg>