<svg id="Layer_1" viewBox="0 0 24 24" xmlns="http://www.w3.org/2000/svg" data-name="Layer 1"><path d="m20 8c2.206 0 4-1.794 4-4s-1.794-4-4-4-4 1.794-4 4 1.794 4 4 4zm0-7c1.654 0 3 1.346 3 3s-1.346 3-3 3-3-1.346-3-3 1.346-3 3-3zm3.25 8.016c-.268.069-.429.341-.36.609.073.285.11.579.11.875v5.5c0 2.206-1.794 4-4 4v-3.5c0-1.378-1.122-2.5-2.5-2.5h-9c-1.378 0-2.5 1.122-2.5 2.5v3.5c-2.206 0-4-1.794-4-4v-5.5c0-1.93 1.57-3.5 3.5-3.5h9.5c.276 0 .5-.224.5-.5s-.224-.5-.5-.5h-8v-2.5c0-1.378 1.122-2.5 2.5-2.5h6c.276 0 .5-.224.5-.5s-.224-.5-.5-.5h-6c-1.93 0-3.5 1.57-3.5 3.5v2.5h-.5c-2.481 0-4.5 2.019-4.5 4.5v5.5c0 2.757 2.243 5 5 5v.5c0 1.378 1.122 2.5 2.5 2.5h9c1.378 0 2.5-1.122 2.5-2.5v-.5c2.757 0 5-2.243 5-5v-5.5c0-.38-.048-.758-.142-1.125-.068-.268-.339-.425-.609-.36zm-5.25 12.484c0 .827-.673 1.5-1.5 1.5h-9c-.827 0-1.5-.673-1.5-1.5v-5c0-.827.673-1.5 1.5-1.5h9c.827 0 1.5.673 1.5 1.5z"/></svg>