<?xml version="1.0" encoding="UTF-8"?>
<svg xmlns="http://www.w3.org/2000/svg" id="Layer_1" data-name="Layer 1" viewBox="0 0 24 24">
  <path d="M17.5,11c-3.59,0-6.5,2.91-6.5,6.5s2.91,6.5,6.5,6.5,6.5-2.91,6.5-6.5-2.91-6.5-6.5-6.5Zm0,12c-3.032,0-5.5-2.467-5.5-5.5,0-1.337,.48-2.563,1.276-3.517l7.74,7.741c-.954,.796-2.18,1.276-3.517,1.276Zm4.224-1.983l-7.74-7.741c.954-.796,2.18-1.276,3.517-1.276,3.032,0,5.5,2.467,5.5,5.5,0,1.337-.48,2.563-1.276,3.517ZM4,12v-4C4,3.589,7.589,0,12,0s8,3.589,8,8v.5c0,.276-.224,.5-.5,.5s-.5-.224-.5-.5v-.5c0-.34-.033-.672-.08-1h-4.42c-.276,0-.5-.224-.5-.5s.224-.5,.5-.5h4.205c-.863-2.888-3.541-5-6.705-5S6.158,3.112,5.295,6h4.205c.276,0,.5,.224,.5,.5s-.224,.5-.5,.5H5.08c-.047,.328-.08,.66-.08,1v1.5h4.5c.276,0,.5,.224,.5,.5s-.224,.5-.5,.5H5v1.5c0,.338,.027,.672,.074,1h4.426c.276,0,.5,.224,.5,.5s-.224,.5-.5,.5H5.297c.528,1.776,1.744,3.298,3.436,4.193,.244,.129,.337,.432,.208,.676-.089,.169-.263,.266-.442,.266-.079,0-.159-.019-.233-.058-2.631-1.391-4.266-4.103-4.266-7.077Zm7,11.512c-.013,.268-.234,.477-.499,.477-.008,0-.016,0-.024,0C4.771,23.721,.268,19.222,0,13.523c-.013-.276,.2-.51,.476-.523,.282-.009,.51,.201,.523,.476,.243,5.18,4.337,9.27,9.524,9.512,.276,.013,.489,.247,.476,.523Z"/>
</svg>
