<svg id="Layer_1" viewBox="0 0 24 24" xmlns="http://www.w3.org/2000/svg" data-name="Layer 1"><path d="m21.475 3.025c.195.195.195.512 0 .707s-.512.195-.707 0c-.943-.944-2.592-.944-3.535 0-.195.195-.512.195-.707 0s-.195-.512 0-.707c1.32-1.322 3.629-1.322 4.949 0zm-5.656-.708c.85-.85 1.979-1.318 3.182-1.318s2.332.468 3.182 1.318c.195.195.512.195.707 0s.195-.512 0-.707c-1.038-1.039-2.42-1.611-3.889-1.611s-2.851.572-3.889 1.611c-.195.195-.195.512 0 .707s.512.195.707 0zm.182 19.682c0 1.103-.897 2-2 2h-12.001c-1.103 0-2-.897-2-2 0-.737.405-1.375 1-1.722v-5.778c0-1.93 1.57-3.5 3.5-3.5h7c1.93 0 3.5 1.57 3.5 3.5v5.778c.595.347 1 .985 1 1.722zm-14-2h3.5c.133 0 .26.053.354.146l.854.854h2.586l.854-.854c.094-.094.221-.146.354-.146h3.5v-5.5c0-1.379-1.121-2.5-2.5-2.5h-7.003c-1.379 0-2.5 1.121-2.5 2.5v5.5zm13 2c0-.552-.448-1-1-1h-3.293l-.854.854c-.094.094-.221.146-.354.146h-3c-.133 0-.26-.053-.354-.146l-.854-.854h-3.292c-.552 0-1 .448-1 1s.448 1 1 1h12c.552 0 1-.448 1-1zm7-13c0-.552-.448-1-1-1s-1 .448-1 1 .448 1 1 1 1-.448 1-1zm-.5-3h-2v-1.5c0-.276-.224-.5-.5-.5s-.5.224-.5.5v1.5h-9.001c-1.379 0-2.5 1.122-2.5 2.5 0 .276.224.5.5.5s.5-.224.5-.5c0-.827.673-1.5 1.5-1.5h12c.827 0 1.5.673 1.5 1.5v1c0 .827-.673 1.5-1.5 1.5h-5c-.276 0-.5.224-.5.5s.224.5.5.5h5c1.379 0 2.5-1.122 2.5-2.5v-1c0-1.378-1.121-2.5-2.5-2.5z"/></svg>