<?xml version="1.0" encoding="UTF-8"?>
<svg xmlns="http://www.w3.org/2000/svg" id="Layer_1" data-name="Layer 1" viewBox="0 0 24 24">
  <path d="m23.548,11.17l-2.621-7.208c-.644-1.771-2.343-2.962-4.229-2.962H7.302c-1.886,0-3.585,1.19-4.229,2.962L.452,11.17c-.3.823-.452,1.686-.452,2.563v.767c0,1.557.795,2.931,2,3.739v2.261c0,1.379,1.121,2.5,2.5,2.5s2.5-1.121,2.5-2.5v-1.5h10v1.5c0,1.379,1.121,2.5,2.5,2.5s2.5-1.121,2.5-2.5v-2.261c1.205-.808,2-2.182,2-3.739v-.767c0-.878-.152-1.74-.452-2.563ZM4.013,4.304c.501-1.378,1.822-2.304,3.289-2.304h9.396c1.467,0,2.788.926,3.289,2.304l2.435,6.696H1.578l2.435-6.696Zm1.987,16.196c0,.827-.673,1.5-1.5,1.5s-1.5-.673-1.5-1.5v-1.757c.469.166.974.257,1.5.257h1.5v1.5Zm15,0c0,.827-.673,1.5-1.5,1.5s-1.5-.673-1.5-1.5v-1.5h1.5c.526,0,1.031-.091,1.5-.257v1.757Zm2-6c0,1.93-1.57,3.5-3.5,3.5H4.5c-1.93,0-3.5-1.57-3.5-3.5v-.767c0-.589.08-1.17.236-1.733h2.764v2.5c0,.276.224.5.5.5s.5-.224.5-.5v-2.5h14v2.5c0,.276.224.5.5.5s.5-.224.5-.5v-2.5h2.764c.156.564.236,1.144.236,1.733v.767Z"/>
</svg>
