<svg id="Layer_1" viewBox="0 0 24 24" xmlns="http://www.w3.org/2000/svg" data-name="Layer 1"><path d="m19.777 3.208c-2.077-2.069-4.839-3.208-7.777-3.208s-5.7 1.139-7.778 3.208-3.222 4.821-3.222 7.747 1.144 5.678 3.237 7.761l4.151 3.818c.971.946 2.254 1.467 3.612 1.467s2.641-.521 3.602-1.457l4.176-3.842c2.078-2.069 3.223-4.821 3.223-7.747s-1.145-5.678-3.223-7.747zm-.691 14.771-4.172 3.838c-1.565 1.525-4.251 1.536-5.838-.01l-4.147-3.814c-1.889-1.88-2.928-4.379-2.928-7.038s1.04-5.158 2.928-7.038c1.889-1.881 4.4-2.917 7.072-2.917s5.183 1.036 7.071 2.917c1.889 1.88 2.929 4.379 2.929 7.038s-1.04 5.158-2.914 7.024zm-3.586-7.979c-.148 0-.292.019-.433.044l-1.458-2.591c-.093-.267-.013-.403.265-.453h1.626c.276 0 .5-.224.5-.5s-.224-.5-.5-.5h-1.626c-.468 0-.889.241-1.125.646s-.24.889-.011 1.297l.185.328-2.092 1.308-.819-1.365c-.449-.749-1.271-1.214-2.144-1.214h-.368c-.276 0-.5.224-.5.5s.224.5.5.5h.368c.524 0 1.017.279 1.286.729l.829 1.381-.312.195c-.351-.188-.745-.304-1.17-.304-1.378 0-2.5 1.122-2.5 2.5s1.122 2.5 2.5 2.5 2.5-1.122 2.5-2.5c0-.573-.202-1.096-.528-1.518l2.941-1.838.715 1.27c-.678.448-1.128 1.214-1.128 2.086 0 1.378 1.122 2.5 2.5 2.5s2.5-1.122 2.5-2.5-1.122-2.5-2.5-2.5zm-7 4c-.827 0-1.5-.673-1.5-1.5s.673-1.5 1.5-1.5 1.5.673 1.5 1.5-.673 1.5-1.5 1.5zm7 0c-.827 0-1.5-.673-1.5-1.5s.673-1.5 1.5-1.5 1.5.673 1.5 1.5-.673 1.5-1.5 1.5z"/></svg>