<svg id="Layer_1" viewBox="0 0 24 24" xmlns="http://www.w3.org/2000/svg" data-name="Layer 1"><path d="m15.5 10c-.052 0-.101.012-.152.015l-.288-1.069c.084.029.17.053.264.053 0 0 .676.026.676-.577v-.795c0-.628-.676-.628-.676-.628-.312 0-.574.18-.714.436-.407-.862-1.282-1.436-2.26-1.436h-.35c-.276 0-.5.224-.5.5s.224.5.5.5h.35c.637 0 1.189.412 1.4 1.004-.298.249-.585.595-.877.996h-1.971c-.018-.048-.025-.098-.049-.145-.271-.544-.809-.855-1.474-.855h-.881c-.276 0-.5.224-.5.5s.224.5.5.5h.881c.28 0 .48.104.58.303.101.202.08.465-.05.639l-.271.361c-.353-.184-.736-.303-1.139-.303-1.378 0-2.5 1.121-2.5 2.5s1.122 2.5 2.5 2.5c1.248 0 2.276-.921 2.461-2.118.236-.098.449-.251.605-.459l1.969-2.635c.11-.155.313-.441.53-.692l.318 1.18c-.816.412-1.383 1.249-1.383 2.225 0 1.379 1.121 2.5 2.5 2.5s2.5-1.121 2.5-2.5-1.121-2.5-2.5-2.5zm-7 4c-.827 0-1.5-.673-1.5-1.5s.673-1.5 1.5-1.5c.186 0 .363.045.533.111l-.253.337c-.222.296-.257.686-.092 1.017.166.33.498.536.868.536h.351c-.207.581-.757 1-1.408 1zm2.266-2.177c-.083.11-.214.177-.353.177l-.833.047 1.129-1.506c.122-.162.195-.349.247-.541h1.172zm4.734 2.177c-.827 0-1.5-.673-1.5-1.5 0-.511.258-.963.65-1.234l.368 1.363c.083.252.263.434.642.338.271-.069.38-.354.323-.598l-.366-1.358c.772.06 1.384.701 1.384 1.488 0 .827-.673 1.5-1.5 1.5zm4.276-10.792c-2.076-2.068-4.838-3.208-7.776-3.208s-5.7 1.14-7.777 3.208c-2.079 2.069-3.223 4.82-3.223 7.747s1.145 5.677 3.237 7.76l4.151 3.819c.971.945 2.253 1.466 3.611 1.466s2.64-.521 3.602-1.456l4.175-3.843c2.078-2.069 3.223-4.82 3.223-7.746s-1.145-5.678-3.223-7.747zm-.691 14.771-4.171 3.839c-1.567 1.525-4.251 1.536-5.839-.01l-4.147-3.815c-1.888-1.88-2.928-4.379-2.928-7.037s1.04-5.158 2.929-7.038c1.888-1.881 4.4-2.917 7.072-2.917s5.183 1.036 7.071 2.917c1.888 1.88 2.928 4.379 2.928 7.038s-1.04 5.157-2.914 7.023z"/></svg>