<svg id="Layer_1" viewBox="0 0 24 24" xmlns="http://www.w3.org/2000/svg" data-name="Layer 1"><path d="m23.771 11.775c-.36-1.05-1.107-1.897-2.105-2.385-.157-.077-.318-.129-.478-.184.204-.499.4-.997.573-1.489.376-1.068.301-2.223-.213-3.251-.536-1.071-1.509-1.894-2.669-2.258-.891-.279-1.841-.257-2.724.021-.897-1.343-2.425-2.23-4.157-2.23s-3.26.887-4.157 2.23c-.883-.279-1.833-.301-2.724-.021-1.16.364-2.133 1.187-2.669 2.258-.514 1.028-.59 2.183-.213 3.251.175.495.371.995.576 1.496-.162.056-.327.102-.481.178-.997.488-1.744 1.335-2.104 2.385s-.29 2.177.198 3.174c1.129 2.309 4.644 4.845 7.587 6.666.062 1.324 1.149 2.384 2.488 2.384h3c1.339 0 2.426-1.061 2.488-2.384 2.944-1.821 6.458-4.357 7.587-6.666.488-.997.558-2.125.198-3.174zm-5.19-8.612c.903.283 1.658.921 2.073 1.751.392.783.45 1.661.165 2.47-1.86 5.272-5.68 11.091-7.571 13.616h-.049c1.433-4.216 3.799-12.158 3.799-16 0-.664-.136-1.295-.372-1.875.639-.168 1.316-.162 1.955.038zm-6.583-2.163c2.205 0 3.999 1.794 3.999 4 0 3.814-2.458 11.939-3.856 16h-.286c-1.398-4.061-3.856-12.186-3.856-16 0-2.206 1.794-4 3.999-4zm-8.655 3.914c.415-.83 1.171-1.468 2.073-1.751.638-.199 1.315-.204 1.955-.037-.236.58-.372 1.211-.372 1.875 0 3.842 2.366 11.784 3.799 16h-.049c-1.891-2.525-5.711-8.344-7.571-13.616-.286-.81-.228-1.687.165-2.47zm-2.021 9.596c-.765-1.563-.115-3.457 1.447-4.221.138-.067.285-.112.431-.159 1.877 4.264 4.603 8.503 6.309 10.87h-.587c-4.059-2.468-6.76-4.77-7.601-6.49zm12.177 8.49h-3c-.652 0-1.208-.418-1.414-1h5.828c-.207.582-.763 1-1.414 1zm9.177-8.49c-.841 1.719-3.541 4.022-7.601 6.49h-.587c1.708-2.368 4.435-6.61 6.312-10.876.144.046.288.097.428.165 1.563.765 2.212 2.658 1.448 4.221z"/></svg>