<?xml version="1.0" encoding="UTF-8"?>
<svg xmlns="http://www.w3.org/2000/svg" id="Layer_1" data-name="Layer 1" viewBox="0 0 24 24">
  <path d="M22,10.5v9c0,2.481-2.019,4.5-4.5,4.5H4.5c-2.481,0-4.5-2.019-4.5-4.5V6.5C0,4.019,2.019,2,4.5,2H13.5c.276,0,.5,.224,.5,.5s-.224,.5-.5,.5H4.5c-1.93,0-3.5,1.57-3.5,3.5v13c0,1.93,1.57,3.5,3.5,3.5h13c1.93,0,3.5-1.57,3.5-3.5V10.5c0-.276,.224-.5,.5-.5s.5,.224,.5,.5Zm2-6.5c0,2.206-1.794,4-4,4s-4-1.794-4-4S17.794,0,20,0s4,1.794,4,4Zm-1,0c0-1.654-1.346-3-3-3s-3,1.346-3,3,1.346,3,3,3,3-1.346,3-3ZM11.25,13c1.24,0,2.25,1.009,2.25,2.25s-1.01,2.25-2.25,2.25h-1.25v2c0,.276-.224,.5-.5,.5s-.5-.224-.5-.5v-5.5c0-.551,.448-1,1-1h1.25Zm0,1h-1.25v2.5h1.25c.689,0,1.25-.561,1.25-1.25s-.561-1.25-1.25-1.25Zm3.25,5.5v-5.5c0-.551,.448-1,1-1h1.25c1.24,0,2.25,1.009,2.25,2.25s-1.01,2.25-2.25,2.25h-1.25v2c0,.276-.224,.5-.5,.5s-.5-.224-.5-.5Zm1-3h1.25c.689,0,1.25-.561,1.25-1.25s-.561-1.25-1.25-1.25h-1.25v2.5Zm-8.346-1.971l.935,4.876c.052,.271-.126,.533-.397,.585-.266,.047-.533-.126-.585-.397l-.21-1.094h-2.851l-.228,1.102c-.125,.64-1.12,.428-.979-.203l1.016-4.907c.12-.616,.711-1.492,1.646-1.492,.891,0,1.506,.77,1.654,1.529Zm-.449,2.971l-.533-2.781c-.044-.225-.273-.719-.672-.719-.378,0-.626,.486-.665,.689l-.582,2.811h2.452Z"/>
</svg>
