<svg id="Layer_1" viewBox="0 0 24 24" xmlns="http://www.w3.org/2000/svg" data-name="Layer 1"><path d="m19 6c-.552 0-1-.448-1-1s.448-1 1-1 1 .448 1 1-.448 1-1 1zm-14 4c-.552 0-1 .448-1 1s.448 1 1 1 1-.448 1-1-.448-1-1-1zm0-6c-.552 0-1 .448-1 1s.448 1 1 1 1-.448 1-1-.448-1-1-1zm14.5-4h-15c-2.481 0-4.5 2.019-4.5 4.5v7c0 2.481 2.019 4.5 4.5 4.5h6c.276 0 .5-.224.5-.5s-.224-.5-.5-.5h-6c-1.93 0-3.5-1.57-3.5-3.5v-7c0-1.93 1.57-3.5 3.5-3.5h15c1.93 0 3.5 1.57 3.5 3.5v6c0 .276.224.5.5.5s.5-.224.5-.5v-6c0-2.481-2.019-4.5-4.5-4.5zm-7.5 12c-2.206 0-4-1.794-4-4s1.794-4 4-4 4 1.794 4 4-1.794 4-4 4zm3-4c0-1.654-1.346-3-3-3s-3 1.346-3 3 1.346 3 3 3 3-1.346 3-3zm5 14c-.552 0-1 .448-1 1s.448 1 1 1 1-.448 1-1-.448-1-1-1zm3-3c-.552 0-1 .448-1 1s.448 1 1 1 1-.448 1-1-.448-1-1-1zm-3 0c-.552 0-1 .448-1 1s.448 1 1 1 1-.448 1-1-.448-1-1-1zm-2-4.5v2c0 .827-.673 1.5-1.5 1.5h-2c-.827 0-1.5-.673-1.5-1.5v-2c0-.827.673-1.5 1.5-1.5h2c.827 0 1.5.673 1.5 1.5zm-1 0c0-.275-.224-.5-.5-.5h-2c-.276 0-.5.225-.5.5v2c0 .275.224.5.5.5h2c.276 0 .5-.225.5-.5zm1 6v2c0 .827-.673 1.5-1.5 1.5h-2c-.827 0-1.5-.673-1.5-1.5v-2c0-.827.673-1.5 1.5-1.5h2c.827 0 1.5.673 1.5 1.5zm-1 0c0-.275-.224-.5-.5-.5h-2c-.276 0-.5.225-.5.5v2c0 .275.224.5.5.5h2c.276 0 .5-.225.5-.5zm7-6v2c0 .827-.673 1.5-1.5 1.5h-2c-.827 0-1.5-.673-1.5-1.5v-2c0-.827.673-1.5 1.5-1.5h2c.827 0 1.5.673 1.5 1.5zm-1 0c0-.275-.224-.5-.5-.5h-2c-.276 0-.5.225-.5.5v2c0 .275.224.5.5.5h2c.276 0 .5-.225.5-.5zm-1.5.25c-.414 0-.75.336-.75.75s.336.75.75.75.75-.336.75-.75-.336-.75-.75-.75zm-6 0c-.414 0-.75.336-.75.75s.336.75.75.75.75-.336.75-.75-.336-.75-.75-.75zm0 6c-.414 0-.75.336-.75.75s.336.75.75.75.75-.336.75-.75-.336-.75-.75-.75z"/></svg>