<svg id="Layer_1" viewBox="0 0 24 24" xmlns="http://www.w3.org/2000/svg" data-name="Layer 1"><path d="m23.623 12.247-1.171-1.808c-.563-.869-1.416-1.521-2.401-1.838l-1.437-.461c-.261-.083-.544.061-.629.323-.084.263.06.544.323.629l1.437.461c.014.005-7.752 2.623-7.752 2.623l-7.785-2.603c.063-.035 1.421-.456 1.484-.481.263-.084.408-.366.323-.629-.084-.263-.366-.406-.629-.323l-1.437.461c-.985.316-1.838.969-2.401 1.838l-1.179 1.822c-.238.394-.369.885-.369 1.385 0 .296.053.59.157.875.3.832 1.006 1.422 1.85 1.65l-.004 2.322c-.003 1.512.959 2.849 2.393 3.327l5.544 1.848c.663.221 1.359.331 2.055.331s1.393-.11 2.056-.331l5.551-1.851c1.43-.476 2.391-1.808 2.394-3.314l.004-2.334c.843-.228 1.543-.818 1.844-1.649.104-.283.156-.577.156-.873 0-.5-.131-.992-.377-1.399zm-22.527 1.928c-.171-.436-.099-1.018.121-1.384l1.17-1.808c.183-.282.412-.526.664-.742l8.186 2.737-1.95 3.251c-.371.617-1.168.924-1.87.69l-5.314-1.771c-.468-.155-.836-.511-1.007-.973zm3.618 6.695c-1.024-.342-1.719-1.296-1.717-2.376l.003-1.991 4.102 1.365c.264.088.538.132.812.132.911 0 1.766-.481 2.23-1.258l1.355-2.259-.003 8.475c-.42-.038-.838-.107-1.24-.241l-5.544-1.848zm16.283-2.37c-.001 1.076-.689 2.027-1.71 2.367l-5.551 1.851c-.401.135-.818.204-1.238.242l.003-8.478 1.355 2.261c.464.776 1.319 1.258 2.23 1.258.275 0 .548-.044.813-.132l4.101-1.367-.003 1.999zm1.908-4.327c-.172.464-.54.819-1.008.975l-5.313 1.771c-.706.233-1.5-.072-1.871-.69l-1.952-3.255 8.184-2.737c.254.217.484.463.667.746l1.163 1.794c.229.382.301.952.13 1.396zm-10.905-4.173c2.757 0 5-2.243 5-5s-2.243-5-5-5-5 2.243-5 5 2.243 5 5 5zm0-9c2.206 0 4 1.794 4 4s-1.794 4-4 4-4-1.794-4-4 1.794-4 4-4zm-1.71 5.532-1.133-1.118c-.197-.194-.199-.51-.005-.707s.511-.199.707-.005l1.132 1.116c.248.242.65.241.896-.003l2.248-2.175c.199-.192.516-.187.707.012.192.198.187.515-.012.707l-2.245 2.171c-.315.311-.731.466-1.147.466s-.832-.155-1.149-.465z"/></svg>