<?xml version="1.0" encoding="UTF-8"?>
<svg xmlns="http://www.w3.org/2000/svg" id="Layer_1" data-name="Layer 1" viewBox="0 0 24 24">
  <path d="m22.017,5.831L14.517.77c-1.528-1.031-3.504-1.031-5.034,0L1.983,5.831c-1.242.838-1.983,2.232-1.983,3.73v9.939c0,2.481,2.019,4.5,4.5,4.5h15c2.481,0,4.5-2.019,4.5-4.5v-9.939c0-1.498-.741-2.893-1.983-3.73Zm.983,13.669c0,1.93-1.57,3.5-3.5,3.5H4.5c-1.93,0-3.5-1.57-3.5-3.5v-9.939c0-1.165.577-2.25,1.542-2.901L10.042,1.599c.595-.401,1.276-.602,1.958-.602s1.363.2,1.958.602l7.5,5.061c.966.652,1.542,1.736,1.542,2.901v9.939Zm-11-7.5c-1.103,0-2,.897-2,2s.897,2,2,2,2-.897,2-2-.897-2-2-2Zm0,3c-.551,0-1-.449-1-1s.449-1,1-1,1,.449,1,1-.449,1-1,1Zm0-7c-1.603,0-3.109.622-4.242,1.75-1.133,1.129-1.758,2.63-1.758,4.227s.625,3.098,1.772,4.241l2.169,1.995c.554.54,1.285.836,2.059.836s1.504-.297,2.047-.826l2.194-2.019c1.133-1.129,1.758-2.63,1.758-4.227s-.625-3.098-1.758-4.227c-1.133-1.128-2.64-1.75-4.242-1.75Zm3.55,9.48l-2.19,2.015c-.731.712-1.979.722-2.731-.01l-2.165-1.991c-.944-.939-1.464-2.189-1.464-3.518s.52-2.578,1.464-3.518c.944-.94,2.2-1.458,3.536-1.458s2.592.518,3.536,1.458c.944.939,1.464,2.189,1.464,3.518s-.52,2.579-1.449,3.504Z"/>
</svg>
