<svg id="Layer_1" viewBox="0 0 24 24" xmlns="http://www.w3.org/2000/svg" data-name="Layer 1"><path d="m23.865 18.158c-.007-.01-.865-.945-.865-2.158s.856-2.149.865-2.158c.298-.3.058-.855-.365-.842h-7c-.276 0-.5.224-.5.5s.224.5.5.5h6.045c-.276.501-.545 1.196-.545 2s.269 1.499.545 2h-19.545c-1.103 0-2-.897-2-2s.897-2 2-2h4.5c.276 0 .5-.224.5-.5s-.224-.5-.5-.5h-4.5c-1.654 0-3 1.346-3 3 0 1.044.537 1.962 1.348 2.5-.811.538-1.348 1.456-1.348 2.5 0 1.654 1.346 3 3 3h20.5c.424.014.663-.541.365-.842-.009-.009-.865-.945-.865-2.158s.856-2.149.865-2.158c.099-.138.194-.411 0-.684zm-1.32 4.842h-19.545c-1.103 0-2-.897-2-2s.897-2 2-2h19.545c-.276.501-.545 1.196-.545 2s.269 1.499.545 2zm-13.265-12.745c.444.252.72.767.72 1.342v.601c0 1.027.731 1.802 1.7 1.802h.6c.938 0 1.7-.763 1.7-1.7v-.722c0-.564.271-1.068.708-1.315 1.722-.974 2.792-2.799 2.792-4.762 0-1.666-.743-3.224-2.038-4.274-1.295-1.052-2.991-1.454-4.655-1.101-2.112.446-3.802 2.176-4.205 4.305-.447 2.359.604 4.645 2.678 5.825zm3.72 2.044c0 .386-.314.7-.7.7h-.6c-.406 0-.7-.337-.7-.802v-.601c0-.206-.031-.404-.075-.598h2.148c-.041.187-.073.379-.073.578v.722zm-5.416-7.682c.378-2.076 2.305-3.652 4.405-3.615 2.421-.054 4.562 2.074 4.511 4.498 0 1.604-.875 3.095-2.284 3.892-.27.152-.487.372-.674.616-.014-.001-.027-.008-.041-.008h-1v-3.571c.86-.224 1.5-1 1.5-1.929 0-.276-.224-.5-.5-.5s-.5.224-.5.5c0 .551-.449 1-1 1s-1-.449-1-1c0-.276-.224-.5-.5-.5s-.5.224-.5.5c0 .929.64 1.705 1.5 1.929v3.571h-1c-.016 0-.03.008-.047.009-.189-.247-.408-.469-.68-.623-1.697-.965-2.556-2.837-2.19-4.769z"/></svg>