<?xml version="1.0" encoding="UTF-8"?>
<svg xmlns="http://www.w3.org/2000/svg" id="Layer_1" data-name="Layer 1" viewBox="0 0 24 24">
  <path d="m19.5,0H4.5C2.019,0,0,2.019,0,4.5v15c0,2.481,2.019,4.5,4.5,4.5h15c2.481,0,4.5-2.019,4.5-4.5V4.5c0-2.481-2.019-4.5-4.5-4.5Zm3.5,19.5c0,.171-.027.335-.051.5h-2.949v-3h3v2.5ZM4,5v3H1v-3h3Zm16,4h3v3h-3v-3Zm0-1v-3h3v3h-3Zm-1,4H5V1h14v11Zm-15,4H1v-3h3v3Zm-3-4v-3h3v3H1Zm0,7.5v-2.5h3v3H1.051c-.024-.165-.051-.329-.051-.5Zm4-6.5h14v10H5v-10Zm15,3v-3h3v3h-3Zm2.949-12h-2.949V1.051c1.527.221,2.728,1.423,2.949,2.949ZM4,1.051v2.949H1.051c.221-1.527,1.423-2.728,2.949-2.949ZM1.351,21h2.649v1.949c-1.173-.17-2.154-.916-2.649-1.949Zm18.649,1.949v-1.949h2.649c-.495,1.033-1.476,1.779-2.649,1.949Z"/>
</svg>
