<?xml version="1.0" encoding="UTF-8"?>
<svg xmlns="http://www.w3.org/2000/svg" id="Layer_1" data-name="Layer 1" viewBox="0 0 24 24">
  <path d="M17.5,9c1.207,0,2.217-.86,2.449-2h1.051c.551,0,1-.448,1-1V3c0-.503-.38-.903-.864-.972l.24-.345c.182-.363,.163-.786-.051-1.131-.213-.346-.583-.552-.988-.552H5.5c-1.93,0-3.5,1.57-3.5,3.5v2c0,1.93,1.57,3.5,3.5,3.5h4.778l-1.773,4.729c-.509,1.358-1.826,2.271-3.277,2.271H1v-4.5c0-.276-.224-.5-.5-.5s-.5,.224-.5,.5v10c0,.276,.224,.5,.5,.5s.5-.224,.5-.5v-4.5H5.228c1.865,0,3.559-1.174,4.213-2.92l1.905-5.08h6.153Zm3-6h.5v3h-1V3.657l.463-.665c.013,0,.024,.007,.037,.007ZM3,5.5V3.5c0-1.379,1.122-2.5,2.5-2.5h14.837c.079,0,.12,.048,.138,.077,.018,.028,.042,.088,.045,.095l-1.429,2.041c-.059,.084-.09,.185-.09,.287v3c0,.827-.673,1.5-1.5,1.5h-6.515s-.006,0-.009,0H5.5c-1.378,0-2.5-1.121-2.5-2.5Zm20.575,12.78h0c-.931-1.225-3.022-3.28-6.574-3.28-3.595,0-5.694,2.099-6.625,3.35-.512,.688-.512,1.613,0,2.302,.932,1.251,3.032,3.349,6.625,3.349,3.552,0,5.644-2.056,6.574-3.281,.553-.729,.553-1.709,0-2.438Zm-.797,1.833c-1,1.317-2.813,2.887-5.777,2.887-2.999,0-4.822-1.603-5.823-2.946-.247-.331-.247-.775,0-1.106,1.001-1.345,2.824-2.947,5.823-2.947,2.963,0,4.778,1.569,5.777,2.886,.284,.373,.284,.854,0,1.228Zm-5.778-2.613c-1.103,0-2,.897-2,2s.897,2,2,2,2-.897,2-2-.897-2-2-2Zm0,3c-.551,0-1-.448-1-1s.449-1,1-1,1,.448,1,1-.449,1-1,1Z"/>
</svg>
