<svg id="Layer_1" viewBox="0 0 24 24" xmlns="http://www.w3.org/2000/svg" data-name="Layer 1"><path d="m23 6.722c0 .952-.359 1.858-1.012 2.551l-6.988 7.425v6.802c.006.269-.232.505-.5.5-.08 0-.16-.02-.233-.058l-5-2.645c-.164-.087-.267-.257-.267-.442v-4.157l-6.988-7.425c-.652-.693-1.012-1.6-1.012-2.551 0-1.954 1.522-3.588 3.466-3.721.268-.016.514.189.533.465s-.189.514-.465.533c-1.421.097-2.534 1.293-2.534 2.723 0 .696.263 1.359.74 1.866l7.124 7.569c.087.093.136.216.136.343v4.055l4 2.115v-6.17c0-.127.049-.25.136-.343l7.124-7.569c.478-.507.74-1.169.74-1.866 0-1.43-1.113-2.626-2.534-2.723-.275-.019-.483-.257-.465-.533.02-.275.26-.478.533-.465 1.943.133 3.466 1.767 3.466 3.721zm-15.997.34v-3.128c0-.899.486-1.732 1.269-2.175l2.496-1.414c.758-.428 1.7-.43 2.462-.001l2.504 1.415c.772.45 1.265 1.279 1.267 2.177v3.185c0 .908-.49 1.746-1.284 2.186l-2.483 1.379c-.376.208-.795.312-1.215.312-.43 0-.858-.109-1.24-.327l-2.515-1.438c-.777-.444-1.26-1.275-1.26-2.17zm4.5 2.834v-4.34l-3.453-1.973c-.028.114-.05.231-.05.351v3.129c0 .537.293 1.036.759 1.302 0 0 2.667 1.503 2.744 1.531zm4.5-5.961c0-.12-.02-.236-.047-.35l-3.456 1.973v4.349c.083-.028 2.73-1.476 2.73-1.476.477-.264.772-.767.772-1.312v-3.184zm-7.398-1.187 3.4 1.943 3.397-1.941c-.054-.041-2.664-1.536-2.664-1.536-.456-.257-1.021-.257-1.478 0 0 0-2.602 1.494-2.654 1.534z"/></svg>