<?xml version="1.0" encoding="UTF-8"?>
<svg xmlns="http://www.w3.org/2000/svg" id="Layer_1" data-name="Layer 1" viewBox="0 0 24 24">
  <path d="m23.261,4.307c.983-.984.983-2.584,0-3.568-.984-.984-2.584-.984-3.568,0l-3.861,3.861c-1.529,1.529-3.961,1.564-5.533.081-.199-.187-.512-.18-.701.016-.19.196-.188.508.005.702l2.379,2.379L1.925,17.832c-.566.567-.879,1.32-.879,2.122,0,.631.201,1.229.56,1.733l-1.459,1.46c-.195.195-.195.512,0,.707.098.098.226.146.354.146s.256-.049.354-.146l1.459-1.46c.504.36,1.102.56,1.733.56.802,0,1.555-.312,2.121-.879l10.056-10.055,2.379,2.379c.098.098.226.146.354.146.126,0,.251-.047.349-.141.195-.19.202-.503.015-.702-1.483-1.573-1.448-4.004.081-5.533l3.861-3.861ZM5.46,21.368c-.756.756-2.072.756-2.828,0-.378-.378-.586-.88-.586-1.414s.208-1.037.586-1.415l10.056-10.055,2.828,2.828-10.056,10.055Zm11.814-9.711l-4.931-4.931c1.483.204,3.044-.269,4.194-1.418l3.861-3.861c.594-.594,1.561-.594,2.154,0s.594,1.561,0,2.154l-3.861,3.861c-1.15,1.15-1.625,2.708-1.418,4.195Z"/>
</svg>
