<?xml version="1.0" encoding="UTF-8"?>
<svg xmlns="http://www.w3.org/2000/svg" id="Layer_1" data-name="Layer 1" viewBox="0 0 24 24">
  <path d="m21,18c-.062,0-.12.015-.181.018l-3.586-14.592c-.495-2.018-2.292-3.426-4.369-3.426h-1.364c-.276,0-.5.224-.5.5s.224.5.5.5h1.364c1.615,0,3.013,1.096,3.398,2.665l2.247,9.145-3.196,3.906c-.668.816-1.655,1.284-2.709,1.284H.5c-.276,0-.5.224-.5.5s.224.5.5.5h1.28c-.48.532-.78,1.229-.78,2,0,1.654,1.346,3,3,3s3-1.346,3-3c0-.771-.301-1.468-.78-2h6.385c1.355,0,2.624-.602,3.482-1.651l2.721-3.326,1.034,4.21c-1.081.454-1.843,1.523-1.843,2.767,0,1.654,1.346,3,3,3s3-1.346,3-3-1.346-3-3-3Zm-15,3c0,1.103-.897,2-2,2s-2-.897-2-2,.897-2,2-2,2,.897,2,2Zm15,2c-1.103,0-2-.897-2-2s.897-2,2-2,2,.897,2,2-.897,2-2,2Z"/>
</svg>
