<?xml version="1.0" encoding="UTF-8"?>
<svg xmlns="http://www.w3.org/2000/svg" id="Layer_1" data-name="Layer 1" viewBox="0 0 24 24">
  <path d="M12,0C5.383,0,0,5.383,0,12s5.383,12,12,12,12-5.383,12-12S18.617,0,12,0Zm0,23c-6.065,0-11-4.935-11-11S5.935,1,12,1s11,4.935,11,11-4.935,11-11,11ZM14.055,6.694c-.393-.773-1.174-1.252-2.039-1.252h-.008c-.869,.003-1.65,.488-2.033,1.255,0,0-3.729,7.02-3.762,7.08-.004,.009-.009,.019-.014,.028-.387,.848-.207,1.837,.463,2.523,.632,.636,1.58,.849,2.393,.51,.155-.079,2.243-1.147,2.944-1.506,.854,.439,2.513,1.296,2.775,1.449,.305,.146,.635,.22,.967,.22,.31,0,.621-.064,.913-.193,.553-.244,.977-.689,1.194-1.254,.217-.564,.201-1.182-.043-1.734-.685-1.584-3.634-6.914-3.751-7.125Zm2.86,8.5c-.121,.314-.357,.562-.665,.698-.335,.149-.717,.144-1.006,.007-.321-.19-2.741-1.433-3.016-1.574-.072-.037-.15-.055-.229-.055s-.156,.018-.228,.055c0,0-2.984,1.527-3.136,1.605-.393,.162-.926,.034-1.263-.304-.372-.382-.478-.928-.27-1.395,.078-.146,.566-1.066,3.759-7.077,.223-.445,.651-.711,1.147-.713,.473,0,.927,.262,1.161,.721,.03,.055,3.051,5.513,3.718,7.056,.138,.312,.147,.659,.025,.975Z"/>
</svg>
