<?xml version="1.0" encoding="UTF-8"?>
<svg xmlns="http://www.w3.org/2000/svg" id="Layer_1" data-name="Layer 1" viewBox="0 0 24 24">
  <path d="M21.5,10H5.709L21.741,5.972c1.055-.241,1.746-1.407,1.446-2.448l-.198-.752c-.2-.938-.759-1.734-1.572-2.241s-1.776-.655-2.706-.424L2.685,4.142C.854,4.603-.292,6.474,.131,8.328l.86,3.292c.001,.005,.007,.008,.009,.013v7.867c0,2.481,2.019,4.5,4.5,4.5h14c2.481,0,4.5-2.019,4.5-4.5v-7c0-1.379-1.121-2.5-2.5-2.5ZM8.013,3.832l4.512-1.136-3.512,5.443-4.509,1.133,3.5-5.418c.004-.007,.005-.015,.009-.022ZM18.567,1.175l-3.424,5.424-4.709,1.183,3.512-5.444,4.621-1.163Zm3.45,1.828l.204,.775c.149,.521-.196,1.103-.724,1.224l-4.95,1.244,3.289-5.208c.368,.04,.728,.14,1.052,.342,.581,.362,.98,.931,1.129,1.624ZM2.929,5.111l3.669-.923-3.505,5.425s-.003,.01-.006,.014l-1.483,.373h-.004l-.499-1.909c-.299-1.313,.521-2.65,1.827-2.979Zm20.071,14.389c0,1.93-1.57,3.5-3.5,3.5H5.5c-1.93,0-3.5-1.57-3.5-3.5V11H21.5c.827,0,1.5,.673,1.5,1.5v7Z"/>
</svg>
