<svg id="Layer_1" viewBox="0 0 24 24" xmlns="http://www.w3.org/2000/svg" data-name="Layer 1"><path d="m12.5.5v3c0 .276-.224.5-.5.5s-.5-.224-.5-.5v-3c0-.276.224-.5.5-.5s.5.224.5.5zm-.5 19.5c-.276 0-.5.224-.5.5v3c0 .276.224.5.5.5s.5-.224.5-.5v-3c0-.276-.224-.5-.5-.5zm11.5-8.5h-3c-.276 0-.5.224-.5.5s.224.5.5.5h3c.276 0 .5-.224.5-.5s-.224-.5-.5-.5zm-4.18-3.319c.087 0 .175-.022.254-.069l2.584-1.525c.238-.141.317-.447.177-.685-.142-.24-.45-.316-.685-.177l-2.584 1.525c-.238.141-.317.447-.177.685.094.158.26.246.431.246zm2.838 9.233-2.584-1.525c-.235-.139-.543-.062-.685.177-.141.238-.062.544.177.685l2.584 1.525c.233.139.543.063.685-.177.141-.238.062-.544-.177-.685zm-5.408 1.653c-.142-.239-.45-.317-.685-.177-.238.14-.317.447-.177.685l1.524 2.583c.141.24.451.316.685.177.238-.14.317-.447.177-.685zm1.348-17.402c-.234-.139-.543-.062-.685.177l-1.524 2.583c-.141.238-.062.544.177.685.233.139.543.063.685-.177l1.524-2.583c.141-.238.062-.544-.177-.685z"/></svg>