<svg id="Layer_1" viewBox="0 0 24 24" xmlns="http://www.w3.org/2000/svg" data-name="Layer 1"><path d="m5.5 4c.276 0 .5.224.5.5v9c0 .276-.224.5-.5.5s-.5-.224-.5-.5v-9c0-.276.224-.5.5-.5zm14-4h-15c-2.481 0-4.5 2.019-4.5 4.5v9c0 2.481 2.019 4.5 4.5 4.5h6c.276 0 .5-.224.5-.5s-.224-.5-.5-.5h-6c-1.93 0-3.5-1.57-3.5-3.5v-9c0-1.93 1.57-3.5 3.5-3.5h15c1.93 0 3.5 1.57 3.5 3.5v8c0 .276.224.5.5.5s.5-.224.5-.5v-8c0-2.481-2.019-4.5-4.5-4.5zm2.967 15.064c.47.405.647 1.025.462 1.618-.185.592-.684 1.001-1.301 1.066l-1.929.205 1.913 3.872c.377.706.063 1.664-.662 2.011-.713.38-1.666.067-2.016-.659l-1.935-3.913-1.456 1.331c-.453.413-1.078.519-1.634.274-.561-.247-.909-.786-.909-1.405v-8.67c0-.713.399-1.339 1.041-1.633.638-.292 1.364-.187 1.899.275l6.527 5.626zm-.654.758-6.527-5.626c-.239-.207-.55-.253-.83-.124-.286.131-.457.401-.457.724v8.67c0 .221.117.404.312.49.189.083.397.048.556-.097l1.947-1.779c.234-.224.65-.145.786.147l2.228 4.504c.114.237.435.341.669.215.242-.116.347-.435.22-.671l-2.233-4.52c-.158-.298.059-.693.396-.719l2.643-.281c.323-.034.428-.292.452-.371.025-.079.085-.351-.161-.562z"/></svg>