<svg id="Layer_1" viewBox="0 0 24 24" xmlns="http://www.w3.org/2000/svg" data-name="Layer 1"><path d="m20 14.045v-.545c0-.276-.224-.5-.5-.5s-.5.224-.5.5v.5h-5v-.5c0-.276-.224-.5-.5-.5s-.5.224-.5.5v.545c-1.271.205-2.346 1.099-2.766 2.353-.933 2.774-1.234 5.148-1.234 5.863 0 .958.78 1.738 1.738 1.738 1.279 0 3.185-1.979 4.13-3.383.26-.386.714-.617 1.213-.617h.867c.501 0 .956.233 1.216.623.937 1.402 2.827 3.377 4.098 3.377.958 0 1.738-.78 1.738-1.738 0-.715-.302-3.089-1.234-5.863-.421-1.254-1.495-2.148-2.766-2.353zm2.262 8.955c-.659 0-2.277-1.453-3.266-2.932-.446-.669-1.212-1.068-2.048-1.068h-.867c-.832 0-1.596.396-2.043 1.059-.998 1.484-2.633 2.941-3.3 2.941-.407 0-.738-.331-.738-.738 0-.635.298-2.914 1.182-5.545.345-1.027 1.301-1.717 2.378-1.717h5.881c1.077 0 2.033.69 2.378 1.717.884 2.631 1.182 4.91 1.182 5.545 0 .407-.331.738-.738.738zm-14.23-10.5h3.468c.276 0 .5-.224.5-.5s-.224-.5-.5-.5h-3.478c.186-4.799 2.957-8.863 3.979-10.199 1.058 1.381 4 5.674 4 10.699 0 .276.224.5.5.5s.5-.224.5-.5c0-4.992-2.639-9.189-3.93-10.946 5.565.54 9.93 5.242 9.93 10.946 0 .478-.031.961-.093 1.436-.035.274.158.524.432.56.277.032.524-.158.561-.432.066-.517.101-1.043.101-1.564-.002-6.604-5.365-11.998-11.966-11.998-6.651 0-12.038 5.368-12.036 11.998 0 4.395 2.398 8.434 6.261 10.541.237.131.546.045.678-.2.133-.242.043-.546-.199-.678-3.392-1.851-5.53-5.332-5.705-9.163h5.997c.036 1.022.161 2.065.418 3.118.063.27.342.433.604.368.269-.065.433-.336.367-.604-.237-.975-.352-1.939-.388-2.882zm2.898-11.446c-1.248 1.697-3.741 5.675-3.909 10.446h-5.996c.248-5.475 4.505-9.922 9.905-10.446z"/></svg>