<svg id="Layer_1" viewBox="0 0 24 24" xmlns="http://www.w3.org/2000/svg" data-name="Layer 1"><path d="m24 3c0-1.654-1.346-3-3-3h-18c-1.654 0-3 1.346-3 3 0 .883.391 1.67 1 2.22v7.78c0 6.065 4.935 11 11 11s11-4.935 11-11v-7.78c.609-.549 1-1.337 1-2.22zm-2 10c0 5.514-4.486 10-10 10s-10-4.486-10-10v-7.184c.314.112.648.184 1 .184h18c.352 0 .686-.072 1-.184zm-1-8h-18c-1.103 0-2-.897-2-2s.897-2 2-2h18c1.103 0 2 .897 2 2s-.897 2-2 2zm-9 2c-3.86 0-7 3.141-7 7s3.14 7 7 7 7-3.141 7-7-3.14-7-7-7zm0 13c-3.309 0-6-2.691-6-6s2.691-6 6-6 6 2.691 6 6-2.691 6-6 6zm0-9c-1.654 0-3 1.346-3 3s1.346 3 3 3 3-1.346 3-3-1.346-3-3-3zm0 5c-1.103 0-2-.897-2-2s.897-2 2-2 2 .897 2 2-.897 2-2 2z"/></svg>