<?xml version="1.0" encoding="UTF-8"?>
<svg xmlns="http://www.w3.org/2000/svg" id="Layer_1" data-name="Layer 1" viewBox="0 0 24 24">
  <path d="m15,6c0-3.309-2.691-6-6-6S3,2.691,3,6s2.691,6,6,6,6-2.691,6-6Zm-6,5c-2.757,0-5-2.243-5-5S6.243,1,9,1s5,2.243,5,5-2.243,5-5,5Zm-.002,3.458c.023.274-.181.517-.456.54-4.229.359-7.542,3.984-7.542,8.252v.25c0,.276-.224.5-.5.5s-.5-.224-.5-.5v-.25c0-4.783,3.715-8.845,8.458-9.248.277-.021.517.181.541.456Zm8.502-3.458c-3.584,0-6.5,2.916-6.5,6.5s2.916,6.5,6.5,6.5,6.5-2.916,6.5-6.5-2.916-6.5-6.5-6.5Zm.5,11.975v-1.475c0-.276-.224-.5-.5-.5s-.5.224-.5.5v1.475c-2.634-.239-4.736-2.341-4.975-4.975h1.475c.276,0,.5-.224.5-.5s-.224-.5-.5-.5h-1.475c.239-2.634,2.341-4.736,4.975-4.975v1.475c0,.276.224.5.5.5s.5-.224.5-.5v-1.475c2.634.239,4.736,2.341,4.975,4.975h-1.475c-.276,0-.5.224-.5.5s.224.5.5.5h1.475c-.239,2.634-2.341,4.736-4.975,4.975Z"/>
</svg>
