<?xml version="1.0" encoding="UTF-8"?>
<svg xmlns="http://www.w3.org/2000/svg" id="Layer_1" data-name="Layer 1" viewBox="0 0 24 24">
  <path d="M8,23.5c0,.276-.224,.5-.5,.5H3.5c-1.93,0-3.5-1.57-3.5-3.5V3.5C0,1.57,1.57,0,3.5,0H7.5c.276,0,.5,.224,.5,.5s-.224,.5-.5,.5H3.5c-1.378,0-2.5,1.121-2.5,2.5V20.5c0,1.379,1.122,2.5,2.5,2.5H7.5c.276,0,.5,.224,.5,.5Zm15.5-12H6.195c.012-.014,4.658-4.646,4.658-4.646,.196-.194,.197-.511,.002-.707-.195-.196-.512-.196-.707-.002l-4.629,4.602c-.334,.334-.519,.779-.519,1.252,0,0,0,0,0,0,0,0,0,0,0,0,0,0,0,0,0,0,0,.472,.184,.916,.519,1.25l4.628,4.604c.098,.097,.225,.146,.353,.146,.128,0,.257-.049,.354-.147,.195-.195,.194-.513-.002-.707,0,0-4.645-4.632-4.656-4.646H23.5c.276,0,.5-.224,.5-.5s-.224-.5-.5-.5Z"/>
</svg>
