<svg id="Layer_1" viewBox="0 0 24 24" xmlns="http://www.w3.org/2000/svg" data-name="Layer 1"><path d="m15.735 14.136c-.756-.757-2.072-.756-2.828-.002l-4.184 4.117c-.858.86-2.238.943-3.078.187-.447-.402-.702-.954-.718-1.552-.016-.599.209-1.161.632-1.584l4.222-4.201c.776-.744.776-2.084 0-2.829l-.676-.676c-.755-.756-2.073-.756-2.828 0l-4.07 4.048c-2.802 2.802-2.958 7.336-.348 10.107 1.333 1.416 3.135 2.241 5.079 2.241s3.77-.711 5.138-2.081l4.335-4.268c.776-.744.776-2.084 0-2.829l-.676-.676zm-8.751-5.833c.372-.388 1.042-.388 1.414 0l.676.676c.388.372.388 1.042 0 1.414l-.434.432-2.091-2.091.433-.431zm4.389 12.897c-1.181 1.18-2.758 1.804-4.419 1.791-1.668-.025-3.219-.709-4.366-1.927-2.242-2.382-2.095-6.29.327-8.713l2.928-2.912 2.091 2.091-3.079 3.064c-.619.619-.948 1.442-.925 2.318s.395 1.682 1.048 2.27c1.227 1.105 3.227 1.005 4.452-.22l3.037-2.988 2.092 2.091-3.184 3.135zm4.334-4.269-.438.432-2.091-2.091.433-.426.003-.003c.378-.378 1.036-.378 1.414 0l.676.676c.387.37.388 1.042.003 1.412zm6.44-15.808c-1.177-.954-2.719-1.321-4.231-1.001-1.998.421-3.549 2.07-3.859 4.105-.311 2.036.631 4.027 2.4 5.07.339.2.541.531.541.886v.327c0 .827.673 1.5 1.5 1.5h1c.827 0 1.5-.673 1.5-1.5v-.326c0-.355.204-.687.546-.889 1.537-.91 2.455-2.512 2.455-4.286 0-1.515-.675-2.931-1.853-3.886zm-2.148 9.388c0 .276-.224.5-.5.5h-1c-.276 0-.5-.224-.5-.5 0-.122.006-.384-.023-.5h2.048c-.03.115-.024.379-.024.5zm1.037-2.077c-.256.151-.458.354-.625.576h-.912v-3.076c.667-.159 1.23-.613 1.469-1.25.097-.258-.034-.547-.293-.644-.258-.096-.547.035-.644.293-.151.404-.566.675-1.032.675s-.881-.272-1.032-.675c-.097-.26-.387-.389-.644-.293-.259.097-.39.385-.293.644.239.637.802 1.091 1.469 1.25v3.076h-.911c-.166-.222-.367-.424-.622-.574-1.414-.835-2.168-2.427-1.919-4.058.244-1.599 1.509-2.947 3.077-3.277.289-.061.579-.091.866-.091.921 0 1.811.308 2.529.89.942.764 1.482 1.897 1.482 3.109 0 1.417-.734 2.697-1.964 3.425z"/></svg>