<?xml version="1.0" encoding="UTF-8"?>
<svg xmlns="http://www.w3.org/2000/svg" id="Layer_1" data-name="Layer 1" viewBox="0 0 24 24">
  <path d="M8,6c.768,0,1.469-.29,2-.766v.766c0,1.103-.897,2-2,2h-1.5c-.276,0-.5,.224-.5,.5s.224,.5,.5,.5h1.5c1.654,0,3-1.346,3-3V3c0-1.654-1.346-3-3-3s-3,1.346-3,3,1.346,3,3,3Zm0-5c1.103,0,2,.897,2,2s-.897,2-2,2-2-.897-2-2,.897-2,2-2Zm7,8c1.654,0,3-1.346,3-3V3c0-1.654-1.346-3-3-3s-3,1.346-3,3v3c0,1.654,1.346,3,3,3Zm-2-6c0-1.103,.897-2,2-2s2,.897,2,2v3c0,1.103-.897,2-2,2s-2-.897-2-2V3Zm6.683,5.218c-.214-.175-.244-.49-.068-.704,.175-.214,.49-.245,.703-.069,.319,.262,1.033,.555,1.548,.555,.563,0,1.047-.295,1.126-.688,.067-.338-.229-.652-.795-.837-.051-.019-.901-.329-1.331-.546-.637-.364-.936-.935-.839-1.544,.101-.62,.587-1.118,1.269-1.3,.785-.209,1.593-.03,2.4,.538,.226,.159,.279,.471,.121,.696-.159,.227-.471,.281-.697,.121-.568-.4-1.065-.523-1.566-.39-.296,.079-.502,.268-.539,.493-.038,.242,.149,.406,.314,.501,.301,.15,.966,.401,1.195,.485,1.272,.417,1.578,1.327,1.448,1.978-.174,.864-1.06,1.491-2.106,1.491-.69,0-1.649-.344-2.183-.782Zm2.018,2.782h-7.7c-.649,0-1,.515-1,1,0,.551-.448,1-1,1s-1-.449-1-1c0-.485-.351-1-1-1H2.3c-.662,0-1.293,.285-1.732,.782-.429,.485-.629,1.128-.548,1.782,.774,5.949,5.925,10.436,11.98,10.436s11.206-4.486,11.982-10.453c.079-.636-.121-1.279-.55-1.765-.439-.497-1.07-.782-1.732-.782Zm-9.7,3c1.103,0,2-.897,2-2h3c0,2.757-2.243,5-5,5s-5-2.243-5-5h3c0,1.103,.897,2,2,2Zm10.988-.564c-.709,5.453-5.434,9.564-10.988,9.564S1.721,18.888,1.01,13.423c-.044-.356,.064-.704,.308-.979,.249-.282,.607-.444,.982-.444h3.7c0,3.309,2.691,6,6,6s6-2.691,6-6h3.7c.375,0,.733,.162,.982,.444,.243,.275,.352,.623,.306,.992Z"/>
</svg>
