<?xml version="1.0" encoding="UTF-8"?>
<svg xmlns="http://www.w3.org/2000/svg" id="Layer_1" data-name="Layer 1" viewBox="0 0 24 24">
  <path d="M10.854,7.854l-1.646,1.646,1.646,1.646c.195,.195,.195,.512,0,.707-.098,.098-.226,.146-.354,.146s-.256-.049-.354-.146l-1.646-1.646-1.646,1.646c-.098,.098-.226,.146-.354,.146s-.256-.049-.354-.146c-.195-.195-.195-.512,0-.707l1.646-1.646-1.646-1.646c-.195-.195-.195-.512,0-.707s.512-.195,.707,0l1.646,1.646,1.646-1.646c.195-.195,.512-.195,.707,0s.195,.512,0,.707Zm6.646,1.146h-4c-.276,0-.5,.224-.5,.5s.224,.5,.5,.5h4c.276,0,.5-.224,.5-.5s-.224-.5-.5-.5Zm-6.646,5.146c-.195-.195-.512-.195-.707,0l-1.646,1.646-1.646-1.646c-.195-.195-.512-.195-.707,0s-.195,.512,0,.707l1.646,1.646-1.646,1.646c-.195,.195-.195,.512,0,.707,.098,.098,.226,.146,.354,.146s.256-.049,.354-.146l1.646-1.646,1.646,1.646c.098,.098,.226,.146,.354,.146s.256-.049,.354-.146c.195-.195,.195-.512,0-.707l-1.646-1.646,1.646-1.646c.195-.195,.195-.512,0-.707Zm6.646,1.854h-4c-.276,0-.5,.224-.5,.5s.224,.5,.5,.5h4c.276,0,.5-.224,.5-.5s-.224-.5-.5-.5Zm3.5-9.5v13c0,2.481-2.019,4.5-4.5,4.5H7.5c-2.481,0-4.5-2.019-4.5-4.5V6.5c0-2.481,2.019-4.5,4.5-4.5h.55c.232-1.14,1.243-2,2.45-2h3c1.207,0,2.218,.86,2.45,2h.55c2.481,0,4.5,2.019,4.5,4.5Zm-1,0c0-1.93-1.57-3.5-3.5-3.5h-1c-.276,0-.5-.224-.5-.5,0-.827-.673-1.5-1.5-1.5h-3c-.827,0-1.5,.673-1.5,1.5,0,.276-.224,.5-.5,.5h-1c-1.93,0-3.5,1.57-3.5,3.5v13c0,1.93,1.57,3.5,3.5,3.5h9c1.93,0,3.5-1.57,3.5-3.5V6.5Z"/>
</svg>
