<?xml version="1.0" encoding="UTF-8"?>
<svg xmlns="http://www.w3.org/2000/svg" id="Layer_1" data-name="Layer 1" viewBox="0 0 24 24">
  <path d="M22.791,10.3l-4.601-1.071,1.658-3.386c.061-.142,.091-.295,.091-.457,0-.345-.142-.685-.39-.934-.38-.379-.944-.486-1.46-.266l-3.32,1.625-1.092-4.676c-.275-.69-.934-1.136-1.677-1.136s-1.402,.446-1.7,1.208l-1.071,4.602-3.388-1.659c-.447-.187-1.025-.062-1.388,.301-.379,.379-.488,.943-.267,1.46l1.625,3.319-4.676,1.091c-.69,.276-1.136,.934-1.136,1.678s.446,1.401,1.208,1.7l4.602,1.071-1.66,3.388c-.059,.142-.088,.295-.088,.454,0,.345,.142,.685,.39,.934,.248,.248,.575,.38,.916,.38,.181,0,.365-.037,.544-.113l3.319-1.625,1.091,4.675c.275,.69,.934,1.137,1.678,1.137s1.401-.446,1.7-1.209l1.071-4.602,3.386,1.659c.141,.059,.294,.089,.456,.089,.344,0,.683-.141,.934-.389,.379-.379,.487-.942,.267-1.46l-1.625-3.32,4.675-1.091c.69-.276,1.137-.934,1.137-1.678s-.446-1.402-1.209-1.7Zm-4.286-5.204c.116-.05,.247-.025,.336,.064,.062,.061,.098,.146,.098,.268l-1.749,3.569-1.774-.413-.414-1.773,3.503-1.715Zm-13.409,.4c-.05-.118-.025-.247,.064-.336,.061-.061,.146-.097,.268-.098l3.568,1.749-.413,1.774-1.773,.414-1.715-3.502Zm.4,13.409c-.117,.051-.247,.025-.336-.063-.061-.062-.098-.146-.098-.27l1.749-3.568,1.774,.413,.414,1.773-3.502,1.715Zm13.409-.399c.05,.117,.025,.247-.062,.335-.062,.062-.147,.098-.271,.099l-3.568-1.749,.413-1.774,1.773-.414,1.715,3.503Zm3.66-5.779l-7.678,1.787c-.186,.044-.33,.188-.374,.374l-1.764,7.605c-.123,.309-.417,.508-.749,.508s-.626-.199-.727-.436l-1.787-7.678c-.043-.186-.188-.33-.374-.374l-7.606-1.764c-.308-.123-.507-.417-.507-.749s.199-.626,.435-.727l7.679-1.787c.186-.043,.331-.188,.374-.374l1.764-7.606c.123-.308,.417-.507,.749-.507s.625,.199,.726,.435l1.787,7.679c.044,.186,.188,.331,.374,.374l7.605,1.764c.309,.123,.508,.417,.508,.749s-.199,.625-.436,.726Zm-9.564-.726c0,.552-.448,1-1,1s-1-.448-1-1,.448-1,1-1,1,.448,1,1Z"/>
</svg>
