<svg id="Layer_1" viewBox="0 0 24 24" xmlns="http://www.w3.org/2000/svg" data-name="Layer 1"><path d="m16 13c.552 0 1 .448 1 1s-.448 1-1 1-1-.448-1-1 .448-1 1-1zm2-2c0 .552.448 1 1 1s1-.448 1-1-.448-1-1-1-1 .448-1 1zm-14 7c-.552 0-1 .448-1 1s.448 1 1 1 1-.448 1-1-.448-1-1-1zm3 3c-.552 0-1 .448-1 1s.448 1 1 1 1-.448 1-1-.448-1-1-1zm-2-16c0 .552.448 1 1 1s1-.448 1-1-.448-1-1-1-1 .448-1 1zm4 4c.552 0 1-.448 1-1s-.448-1-1-1-1 .448-1 1 .448 1 1 1zm14.5 14h-5c-2.592 0-5.139-2.264-7.602-4.453-2.516-2.235-5.115-4.547-7.898-4.547-.874 0-1.762.22-2.715.673-.249.119-.355.417-.236.666.117.25.417.354.666.237.815-.388 1.563-.576 2.285-.576 2.402 0 4.749 2.086 7.233 4.294 2.603 2.313 5.294 4.706 8.267 4.706h5c.276 0 .5-.224.5-.5s-.224-.5-.5-.5zm-22.684-19.48c1.522-1.246 3.328-2.52 5.184-2.52 2.401 0 4.747 2.085 7.232 4.292l.438.389c.205.182.522.164.705-.043.184-.207.164-.523-.043-.706l-.436-.387c-2.515-2.234-5.115-4.545-7.896-4.545-2.17 0-4.158 1.388-5.817 2.746-.214.175-.245.49-.07.704s.49.245.703.07zm7.431 9.455c-.238.139-.318.446-.179.684.142.24.45.317.685.178 1.55-.908 3.057-2.247 4.514-3.542 2.484-2.208 4.831-4.294 7.233-4.294.856 0 1.759.268 2.759.819.238.132.545.046.679-.197.134-.242.046-.546-.196-.679-1.151-.634-2.212-.943-3.241-.943-2.782 0-5.383 2.312-7.898 4.547-1.42 1.263-2.89 2.568-4.354 3.427z"/></svg>