<?xml version="1.0" encoding="UTF-8"?>
<svg xmlns="http://www.w3.org/2000/svg" id="Layer_1" data-name="Layer 1" viewBox="0 0 24 24">
  <path d="m23.5,19h-5.375c-.084,0-.16.04-.233.08l-4.098-3.68c-.597-.537-1.507-.509-2.07.063l-1.26,1.279c-.187.189-.517.189-.707,0-.094-.095-.146-.22-.146-.354s.052-.259.146-.354l3.535-3.496c.37-.348.854-.54,1.362-.54.368,0,1.156.21,2.161.576.772.281,1.595.424,2.445.424h4.24c.276,0,.5-.224.5-.5s-.224-.5-.5-.5h-4.24c-.733,0-1.441-.122-2.104-.363-.302-.11-.58-.204-.838-.286,1.377-1.226,2.181-2.979,2.181-4.851,0-3.584-2.916-6.5-6.5-6.5s-6.5,2.916-6.5,6.5c0,1.841.78,3.564,2.115,4.786-.212.071-.437.153-.679.25-.766.308-1.552.464-2.337.464H.5c-.276,0-.5.224-.5.5s.224.5.5.5h4.098c.913,0,1.825-.18,2.71-.536,1.004-.404,1.476-.464,1.691-.464.496,0,.971.184,1.338.518l.809.737-2.097,2.073c-.283.283-.439.66-.439,1.061s.156.777.439,1.061c.567.567,1.554.568,2.124-.002l1.263-1.282c.187-.19.49-.2.69-.021l3.946,3.543-3.592,2.803c-.842.656-2.119.656-2.961,0l-4.337-3.385c-.088-.069-.196-.106-.308-.106H.5c-.276,0-.5.224-.5.5s.224.5.5.5h5.203l4.201,3.279c.596.465,1.34.721,2.096.721s1.5-.256,2.096-.721l4.201-3.279h5.203c.276,0,.5-.224.5-.5s-.224-.5-.5-.5Zm-11.648-6.456l-.84-.765c-.551-.502-1.266-.779-2.035-.779-.034,0-.078.008-.114.01-1.479-1.031-2.362-2.704-2.362-4.51,0-3.033,2.467-5.5,5.5-5.5s5.5,2.467,5.5,5.5c0,1.822-.898,3.513-2.403,4.541-.169-.027-.317-.041-.444-.041-.764,0-1.491.289-2.037.803l-.759.75s-.004-.006-.007-.009Zm1.404-2.544h-.756v.5c0,.276-.224.5-.5.5s-.5-.224-.5-.5v-.5h-.757c-.817,0-1.528-.568-1.728-1.38-.066-.268.098-.539.366-.605.268-.068.539.098.605.366.09.365.401.62.757.62h2.513c.432,0,.783-.373.783-.83,0-.371-.235-.7-.572-.799l-3.094-.777c-.779-.23-1.309-.953-1.309-1.764,0-1.009.8-1.83,1.783-1.83h.653v-.5c0-.276.224-.5.5-.5s.5.224.5.5v.5h.757c.817,0,1.528.568,1.728,1.38.066.268-.098.539-.366.605-.266.069-.539-.098-.605-.366-.09-.365-.401-.62-.757-.62h-2.411c-.432,0-.783.373-.783.83,0,.371.235.7.572.799l3.094.777c.779.23,1.309.953,1.309,1.764,0,1.009-.8,1.83-1.783,1.83Z"/>
</svg>
