<svg id="Layer_1" viewBox="0 0 24 24" xmlns="http://www.w3.org/2000/svg" data-name="Layer 1"><path d="m24 12.5v7c0 2.481-2.019 4.5-4.5 4.5h-15c-2.481 0-4.5-2.019-4.5-4.5v-15c0-2.481 2.019-4.5 4.5-4.5h7c.276 0 .5.224.5.5s-.224.5-.5.5h-7c-1.93 0-3.5 1.57-3.5 3.5v15c0 1.93 1.57 3.5 3.5 3.5h15c1.93 0 3.5-1.57 3.5-3.5v-7c0-.276.224-.5.5-.5s.5.224.5.5zm-6 2.5c-.276 0-.5.224-.5.5v3c0 .276.224.5.5.5s.5-.224.5-.5v-3c0-.276-.224-.5-.5-.5zm0-7c-1.103 0-2-.897-2-2s.897-2 2-2 2 .897 2 2-.897 2-2 2zm1-2c0-.551-.449-1-1-1s-1 .449-1 1 .449 1 1 1 1-.449 1-1zm-.5 3.5c0-.276-.224-.5-.5-.5s-.5.224-.5.5v3c0 .276.224.5.5.5s.5-.224.5-.5zm-3.773 1.529c.23.149.54.084.692-.146.151-.231.085-.541-.146-.692-1.423-.928-2.273-2.495-2.273-4.191 0-2.757 2.243-5 5-5s5 2.243 5 5c0 1.697-.85 3.264-2.273 4.191-.231.151-.297.461-.146.692.096.147.256.227.419.227.094 0 .188-.026.272-.081 1.708-1.113 2.727-2.994 2.727-5.029 0-3.309-2.691-6-6-6s-6 2.691-6 6c0 2.036 1.02 3.916 2.727 5.029zm-4.656-5.014 3.906 12.334c.083.263-.062.544-.326.627-.256.083-.545-.06-.627-.326l-1.156-3.651h-6.235l-1.156 3.651c-.083.263-.362.412-.627.326-.263-.083-.409-.364-.326-.627l3.906-12.334c.19-.601.709-.99 1.321-.99s1.13.389 1.321.99zm1.48 7.985-2.433-7.684c-.086-.271-.303-.292-.368-.292s-.282.021-.368.292l-2.433 7.684h5.601z"/></svg>