<?xml version="1.0" encoding="UTF-8"?>
<svg xmlns="http://www.w3.org/2000/svg" id="Layer_1" data-name="Layer 1" viewBox="0 0 24 24">
  <path d="M18.914,11.57c-.855-.998-2.101-1.57-3.415-1.57h-.499V3c0-1.654-1.346-3-3-3s-3,1.346-3,3v7h-.499c-2.678-.064-4.918,2.548-4.447,5.185l.899,5.847c.264,1.72,1.719,2.968,3.459,2.968h7.176c1.74,0,3.195-1.248,3.459-2.968l.899-5.848c.2-1.299-.176-2.617-1.032-3.615ZM10,3c0-1.103,.897-2,2-2s2,.897,2,2v7h-4V3Zm8.958,12.032l-.899,5.848c-.188,1.228-1.228,2.12-2.471,2.12h-7.176c-1.243,0-2.282-.892-2.471-2.12l-.899-5.848c-.366-2.051,1.377-4.081,3.459-4.032h6.998c2.082-.049,3.825,1.982,3.459,4.032Zm-4.458-1.032h-5c-.827,0-1.5,.673-1.5,1.5v2c0,.827,.673,1.5,1.5,1.5h5c.827,0,1.5-.673,1.5-1.5v-2c0-.827-.673-1.5-1.5-1.5Zm.5,3.5c0,.276-.225,.5-.5,.5h-5c-.275,0-.5-.224-.5-.5v-2c0-.276,.225-.5,.5-.5h5c.275,0,.5,.224,.5,.5v2Z"/>
</svg>
