<?xml version="1.0" encoding="UTF-8"?>
<svg xmlns="http://www.w3.org/2000/svg" id="Layer_1" data-name="Layer 1" viewBox="0 0 24 24">
  <path d="M19.5,0H4.5C2.019,0,0,2.019,0,4.5v15c0,2.481,2.019,4.5,4.5,4.5h15c2.481,0,4.5-2.019,4.5-4.5V4.5c0-2.481-2.019-4.5-4.5-4.5Zm3.5,19.5c0,1.93-1.57,3.5-3.5,3.5H4.5c-1.93,0-3.5-1.57-3.5-3.5V4.5c0-1.93,1.57-3.5,3.5-3.5h15c1.93,0,3.5,1.57,3.5,3.5v15Zm-7.009-10.5h-7.982c-.655,0-1.218,.376-1.469,.981-.251,.605-.118,1.269,.345,1.731l3.701,3.701c.39,.39,.902,.585,1.414,.585s1.024-.195,1.414-.585l3.701-3.701c.463-.463,.596-1.126,.345-1.731-.251-.605-.813-.981-1.469-.981Zm.417,2.006l-3.701,3.701c-.391,.39-1.023,.39-1.414,0l-3.701-3.701c-.259-.258-.163-.557-.128-.642,.035-.085,.179-.364,.545-.364h7.982c.366,0,.51,.279,.545,.364,.035,.085,.131,.383-.128,.642Z"/>
</svg>
