<svg id="Layer_1" viewBox="0 0 24 24" xmlns="http://www.w3.org/2000/svg" data-name="Layer 1"><path d="m23.5 23h-9.5v-6.5c0-.276-.224-.5-.5-.5s-.5.224-.5.5v6.5h-2v-7s0-.001 0-.002c1.32-1.049 2-2.78 2-4.498v-1c.002-.268-.222-.502-.5-.5-.264.02-.508.222-.5.5 0 .827-.673 1.5-1.5 1.5h-6.5c-1.654 0-3 1.346-3 3v8h-.5c-.276 0-.5.224-.5.5s.224.5.5.5h23c.276 0 .5-.224.5-.5s-.224-.5-.5-.5zm-13.5 0h-2v-6c.75 0 1.415-.15 2-.406zm-3-6v6h-2v-6zm-5-2c0-1.103.897-2 2-2h6.5c.516 0 .995-.157 1.394-.425-.369 1.833-1.691 3.425-3.894 3.425h-6zm0 2h2v6h-2zm12.49-6.939c.292.292.676.439 1.062.439.33 0 .662-.109.938-.33l1.98-1.587c.285.037 2.558.452 2.794.416.924 0 1.808-.363 2.47-1.025l.121-.121c.195-.195.195-.512 0-.707s-.512-.195-.707 0l-.121.121c-.54.541-1.284.798-2.019.721l-2.767-.456-1.773-1.772-.451-2.742c-.084-.759.177-1.504.717-2.044l.121-.121c.195-.195.195-.512 0-.707s-.512-.195-.707 0l-.121.121c-.756.756-1.122 1.799-1 2.887l.359 2.184c-.019.019-1.607 2.242-1.607 2.242-.425.598-.356 1.409.162 1.928l.551.553zm.103-1.902 1.186-1.674 1.651 1.651-1.565 1.254c-.2.16-.486.143-.667-.036l-.551-.552c-.173-.173-.195-.443-.054-.643z"/></svg>