<svg id="Layer_1" viewBox="0 0 24 24" xmlns="http://www.w3.org/2000/svg" data-name="Layer 1"><path d="m6.301 5.74c.117.306.364.532.679.62.316.091.645.024.913-.185l.729-.596.518 1.78c.107.307.359.536.675.613.077.02.154.028.23.028.239 0 .472-.09.65-.256.2-.185.312-.446.307-.71v-4.841c0-.012 0-.024-.001-.036-.027-.373-.256-.699-.597-.852-.342-.151-.738-.104-1.021.115l-.881.641-.389-1.345c-.108-.322-.367-.573-.692-.671-.326-.1-.68-.033-.949.175l-.939.727c-.393.306-.548.826-.387 1.289l1.157 3.504zm-.157-4.002 1.013-.724.58 2.01c.045.156.164.281.318.334.152.054.324.028.456-.068l1.49-1.066s.09 4.832.09 4.832l-.721-2.48c-.047-.161-.171-.288-.332-.338-.049-.015-.099-.022-.148-.022-.114 0-.226.039-.316.113l-1.331 1.078-1.152-3.49c-.022-.064 0-.136.053-.178zm7.812 6.264c.077 0 .154-.009.23-.028.315-.077.567-.307.684-.639l.51-1.754.737.604c.258.2.586.262.902.177.314-.088.562-.314.688-.643l1.147-3.475c.162-.47.008-.99-.387-1.297l-.938-.727c-.268-.208-.621-.274-.95-.175-.325.099-.583.35-.697.691l-.382 1.324-.87-.632c-.296-.229-.691-.276-1.031-.124-.342.152-.57.479-.599.851v.037 4.836c-.004.272.107.533.305.717.18.167.413.257.651.257zm.044-5.774 1.489 1.062c.132.097.302.122.456.068.154-.053.273-.178.318-.334l.654-2.013.938.726c.055.043.076.114.052.187l-1.167 3.479-1.313-1.074c-.131-.106-.305-.141-.465-.091s-.285.177-.332.338l-.63 2.461zm4.898 20.97c.167.22.124.534-.096.701-.22.166-.533.124-.701-.096-1.333-1.755-3.613-2.803-6.102-2.803s-4.769 1.048-6.102 2.803c-.098.129-.248.197-.398.197-.105 0-.211-.033-.302-.102-.22-.167-.262-.481-.095-.701 1.521-2.002 4.1-3.197 6.898-3.197s5.377 1.195 6.898 3.197zm-11.398-8.698c0 2.481 2.019 4.5 4.5 4.5s4.5-2.019 4.5-4.5-2.019-4.5-4.5-4.5-4.5 2.019-4.5 4.5zm4.5-3.5c1.93 0 3.5 1.57 3.5 3.5s-1.57 3.5-3.5 3.5-3.5-1.57-3.5-3.5 1.57-3.5 3.5-3.5zm12 .5c0 1.31-.053 2.696-.156 4.12-.161 2.229-1.968 4.013-4.204 4.149-.632.039-1.341.077-2.118.111h-.021c-.267 0-.488-.21-.5-.479-.012-.276.203-.509.479-.521.77-.032 1.473-.07 2.1-.109 1.738-.106 3.144-1.492 3.268-3.224.103-1.4.154-2.763.154-4.048s-.052-2.647-.154-4.048c-.104-1.438-1.104-2.679-2.487-3.087-.265-.078-.416-.356-.338-.621.079-.265.36-.414.621-.338 1.781.525 3.067 2.122 3.202 3.974.104 1.424.156 2.811.156 4.12zm-17.521 8.381c-.777-.034-1.487-.072-2.119-.111-2.235-.137-4.042-1.921-4.204-4.149-.104-1.428-.156-2.814-.156-4.12s.053-2.692.156-4.12c.134-1.852 1.421-3.448 3.202-3.974.267-.075.543.073.621.338s-.073.543-.338.621c-1.384.408-2.384 1.649-2.488 3.087-.102 1.404-.153 2.766-.153 4.048s.052 2.644.153 4.048c.125 1.731 1.53 3.117 3.268 3.224.627.039 1.33.077 2.1.109.276.013.49.245.478.521-.012.269-.233.479-.499.479h-.022z"/></svg>