<svg id="Layer_1" viewBox="0 0 24 24" xmlns="http://www.w3.org/2000/svg" data-name="Layer 1"><path d="m19.693 11.385c-.896-2.721-1.744-5.291-3.593-7.002-1.749-1.617-3.994-2.405-6.229-2.379-2.366.028-4.749.974-6.466 2.82-1.02-1.379-1.893-2.88-2.431-4.483-.088-.262-.371-.401-.633-.315-.262.088-.403.371-.315.633.604 1.797 1.579 3.46 2.714 4.968-1.193 1.613-1.82 3.594-1.731 5.595.103 2.31 1.114 4.41 2.848 5.913 3.953 3.426 8.56 3.866 12.131 3.866.96 0 2.159-.121 3.564-.358.944-.16 1.727-.736 2.146-1.58.418-.841.405-1.806-.034-2.646-.84-1.603-1.414-3.346-1.97-5.031zm1.108 7.233c-.275.554-.791.933-1.416 1.038-1.351.229-2.494.344-3.398.344-3.608 0-7.794-.43-11.477-3.622-1.523-1.321-2.412-3.168-2.503-5.201-.076-1.681.423-3.345 1.377-4.733 3.676 4.469 8.583 7.327 8.867 7.489.235.136.545.055.682-.186.138-.24.055-.545-.186-.683-.068-.039-5.098-2.965-8.722-7.433 1.534-1.743 3.771-2.633 5.952-2.632 1.956 0 3.914.701 5.443 2.116 1.66 1.535 2.468 3.986 3.322 6.581.568 1.724 1.156 3.506 2.033 5.182.29.553.299 1.187.025 1.738zm-15.084 5.097c-.119.252-.423.355-.666.237-1.602-.759-3.096-1.75-4.439-2.944-.157-.14-.311-.283-.461-.429-.198-.192-.202-.509-.01-.707.193-.197.512-.202.707-.01.139.135.28.268.427.397 1.274 1.132 2.688 2.07 4.204 2.789.25.118.356.417.238.666zm17.92-13.739c-.255.085-.546-.056-.63-.321-.135-.416-.272-.837-.418-1.263-.082-.239-.167-.479-.255-.721-.095-.259.039-.546.299-.641.261-.094.546.039.641.299.09.247.177.494.261.739.147.431.287.858.424 1.277.085.263-.059.545-.321.63zm-1.581-5.465c.128.245.033.547-.212.675-.24.126-.545.036-.675-.212-.712-1.363-1.536-2.478-2.521-3.409-.25-.236-.509-.461-.773-.675-.215-.173-.249-.488-.076-.703.173-.216.488-.249.703-.076.286.23.564.473.834.728 1.065 1.008 1.955 2.209 2.72 3.672z"/></svg>