<?xml version="1.0" encoding="UTF-8"?>
<svg xmlns="http://www.w3.org/2000/svg" id="Layer_1" data-name="Layer 1" viewBox="0 0 24 24">
  <path d="m11.235,24c.058,0-.058.005,0,0h0Zm-2.235-14c0,.552.448,1,1,1s1-.448,1-1-.448-1-1-1-1,.448-1,1Zm2.235,14c-.425,0-.84-.158-1.159-.447-.366-.331-.576-.802-.576-1.293v-2.286C4.219,19.712,0,15.345,0,10,0,4.486,4.486,0,10,0c4.128,0,7.778,2.479,9.299,6.316.102.256-.024.547-.281.649-.254.102-.547-.024-.649-.281-1.369-3.453-4.654-5.684-8.37-5.684C5.038,1,1,5.038,1,10s4.038,9,9,9c3.431,0,6.517-1.907,8.053-4.977.124-.247.424-.346.671-.224.247.124.347.424.224.671-1.632,3.26-4.84,5.317-8.448,5.495v2.295c0,.209.089.41.246.551.156.14.356.212.561.185,5.809-.595,10.495-4.973,11.49-10.369-.379.232-.821.373-1.297.373-1.378,0-2.5-1.122-2.5-2.5s1.122-2.5,2.5-2.5,2.5,1.122,2.5,2.5c0,6.842-5.385,12.833-12.765,13.5Zm11.765-13.5c0-.827-.673-1.5-1.5-1.5s-1.5.673-1.5,1.5.673,1.5,1.5,1.5,1.5-.673,1.5-1.5Z"/>
</svg>
