<?xml version="1.0" encoding="UTF-8"?>
<svg xmlns="http://www.w3.org/2000/svg" id="Layer_1" data-name="Layer 1" viewBox="0 0 24 24">
  <path d="m13.5,13c.276,0,.5-.224.5-.5s-.224-.5-.5-.5H1.731c-.403,0-.731-.328-.731-.731,0-.281.157-.533.41-.657l8.066-3.949c.161-.086.342-.131.524-.131s.363.045.54.14l7.24,3.544c.07.034.146.051.22.051.185,0,.362-.103.449-.28.121-.248.019-.548-.229-.669l-7.224-3.535c-.156-.084-.324-.146-.496-.188v-.384l3.435-1.72c.354-.243.565-.656.565-1.104s-.211-.86-.565-1.104c-.025-.018-2.328-1.051-2.328-1.051-.157-.07-.317-.13-.478-.178-.38-.116-.782-.044-1.105.196-.328.243-.523.631-.523,1.037v4.305c-.169.041-.332.101-.479.18L.97,9.713c-.598.294-.97.89-.97,1.556,0,.955.777,1.731,1.731,1.731h.269v8.051c-1.14.232-2,1.242-2,2.449,0,.276.224.5.5.5s.5-.224.5-.5c0-.827.673-1.5,1.5-1.5h8c.276,0,.5-.224.5-.5s-.224-.5-.5-.5h-1.5v-8h2v4.5c0,.276.224.5.5.5s.5-.224.5-.5v-4.5h1.5ZM10.5,1.287c0-.132.083-.207.119-.234.029-.021.083-.052.151-.052.022,0,.046.003.071.011.12.035,2.553,1.115,2.553,1.115.066.06.105.154.105.259,0,.118-.049.223-.072.244l-2.928,1.462V1.287Zm-5.5,11.713v8h-2v-8h2Zm3,8h-2v-8h2v8Zm11.686-5.829c.399-.36.843-.825,1.152-1.352.217-.371.218-.817,0-1.195-.221-.385-.632-.624-1.072-.624h-2.533c-.44,0-.852.239-1.072.624-.217.378-.216.824,0,1.195.309.526.753.992,1.152,1.352-2.316.682-4.314,3.232-4.314,5.829,0,1.647,1.346,2.988,3,2.988h5c1.654,0,3-1.341,3-2.988,0-2.597-1.998-5.147-4.314-5.829Zm-2.661-1.857c-.045-.076-.022-.146.004-.192.016-.028.079-.121.204-.121h2.533c.125,0,.188.093.204.121.026.046.049.116.004.192-.39.665-1.088,1.252-1.475,1.545-.387-.293-1.085-.88-1.475-1.545Zm3.975,9.675h-5c-1.103,0-2-.892-2-1.988,0-2.482,2.271-5.012,4.5-5.012s4.5,2.529,4.5,5.012c0,1.097-.897,1.988-2,1.988Z"/>
</svg>
