<?xml version="1.0" encoding="UTF-8"?>
<svg xmlns="http://www.w3.org/2000/svg" id="Layer_1" data-name="Layer 1" viewBox="0 0 24 24">
  <path d="m17.5,0c-1.103,0-2,.897-2,2s.897,2,2,2,2-.897,2-2-.897-2-2-2Zm0,3c-.551,0-1-.448-1-1s.449-1,1-1,1,.448,1,1-.449,1-1,1Z"/>
  <path d="m24,19.605c0,1.32-1.074,2.395-2.395,2.395h-.605v1.5c0,.276-.224.5-.5.5s-.5-.224-.5-.5v-1.5h-.5c-1.378,0-2.5-1.121-2.5-2.5,0-.276.224-.5.5-.5s.5.224.5.5c0,.827.673,1.5,1.5,1.5h2.105c.769,0,1.395-.626,1.395-1.395,0-.685-.49-1.264-1.166-1.376l-2.833-.473c-1.159-.193-2.001-1.187-2.001-2.362,0-1.32,1.074-2.395,2.395-2.395h.605v-1.5c0-.276.224-.5.5-.5s.5.224.5.5v1.5h.5c1.378,0,2.5,1.121,2.5,2.5,0,.276-.224.5-.5.5s-.5-.224-.5-.5c0-.827-.673-1.5-1.5-1.5h-2.105c-.769,0-1.395.626-1.395,1.395,0,.685.49,1.264,1.166,1.376l2.833.473c1.159.193,2.001,1.187,2.001,2.362Z"/>
  <path d="m18.4,5.114c-2.123-.541-4.114.911-4.4,2.886-.245-1.692-1.742-3-3.5-3s-3.255,1.308-3.5,3c-.286-1.975-2.277-3.427-4.4-2.886C1.036,5.513,0,7.011,0,8.625v1.019c0,.619.525,1.68,1.405,2.383l6.095,4.876v3.657c0,.81.458,1.55,1.182,1.913l2.754,1.377c.203.102.42.151.638.151.26,0,.519-.071.75-.215.423-.262.676-.715.676-1.213v-5.67l2.312-1.85c.215-.173.25-.487.078-.703-.173-.215-.487-.249-.703-.078l-2.5,2c-.119.095-.188.239-.188.391v5.91c0,.215-.142.325-.202.363-.062.036-.225.114-.415.019l-2.753-1.377c-.386-.193-.629-.587-.629-1.018v-3.897c0-.152-.069-.295-.188-.39l-6.283-5.026c-.676-.54-1.029-1.33-1.029-1.602v-.644h19.625c.207,0,.375-.168.375-.375h0c0-1.614-1.036-3.112-2.6-3.511ZM1.051,8c.232-1.14,1.242-2,2.449-2s2.217.86,2.449,2H1.051Zm7,0c.232-1.14,1.242-2,2.449-2s2.217.86,2.449,2h-4.899Zm7,0c.232-1.14,1.242-2,2.449-2s2.217.86,2.449,2h-4.899Z"/>
  <path d="m3.5,0C2.397,0,1.5.897,1.5,2s.897,2,2,2,2-.897,2-2S4.603,0,3.5,0Zm0,3c-.551,0-1-.448-1-1s.449-1,1-1,1,.448,1,1-.449,1-1,1Z"/>
  <path d="m10.5,0c-1.103,0-2,.897-2,2s.897,2,2,2,2-.897,2-2-.897-2-2-2Zm0,3c-.551,0-1-.448-1-1s.449-1,1-1,1,.448,1,1-.449,1-1,1Z"/>
</svg>
