<?xml version="1.0" encoding="UTF-8"?>
<svg xmlns="http://www.w3.org/2000/svg" id="Layer_1" data-name="Layer 1" viewBox="0 0 24 24">
  <path d="m23.57,17.592l-7.489-14.987c-.746-1.607-2.31-2.605-4.082-2.605s-3.335.998-4.075,2.592L.43,17.592s-.004.009-.006.013c-.65,1.401-.542,3.015.289,4.316.831,1.302,2.249,2.079,3.793,2.079h14.99c1.544,0,2.962-.777,3.793-2.079.831-1.302.939-2.915.282-4.329Zm-16.281,5.408l3.378-7.148c.247-.533.746-.852,1.333-.852s1.087.318,1.335.854l3.374,7.146H7.289Zm15.156-1.617c-.646,1.013-1.749,1.617-2.95,1.617h-1.678l-3.575-7.57c-.41-.882-1.268-1.43-2.241-1.43s-1.831.548-2.239,1.427l-3.579,7.573h-1.678c-1.201,0-2.304-.604-2.95-1.617-.645-1.011-.73-2.263-.227-3.351L8.826,3.026c.58-1.25,1.796-2.026,3.174-2.026s2.594.776,3.181,2.039l7.489,14.987c.506,1.089.422,2.345-.224,3.356Z"/>
</svg>
