<?xml version="1.0" encoding="UTF-8"?>
<svg xmlns="http://www.w3.org/2000/svg" id="Layer_1" data-name="Layer 1" viewBox="0 0 24 24">
  <path d="M24,7.5v9c0,2.481-2.019,4.5-4.5,4.5H10.5c-.276,0-.5-.224-.5-.5s.224-.5,.5-.5h9c1.93,0,3.5-1.57,3.5-3.5V7.5c0-1.93-1.57-3.5-3.5-3.5H10.5c-.276,0-.5-.224-.5-.5s.224-.5,.5-.5h9c2.481,0,4.5,2.019,4.5,4.5ZM5,20.5c0-.276-.224-.5-.5-.5-1.93,0-3.5-1.57-3.5-3.5V7.5c0-1.93,1.57-3.5,3.5-3.5,.276,0,.5-.224,.5-.5s-.224-.5-.5-.5C2.019,3,0,5.019,0,7.5v9c0,2.481,2.019,4.5,4.5,4.5,.276,0,.5-.224,.5-.5Zm11.5-3.5c.276,0,.5-.224,.5-.5V8h3.5c.276,0,.5-.224,.5-.5s-.224-.5-.5-.5H12.5c-.276,0-.5,.224-.5,.5s.224,.5,.5,.5h3.5v8.5c0,.276,.224,.5,.5,.5Zm-6,6h-1c-.827,0-1.5-.673-1.5-1.5V2.5c0-.827,.673-1.5,1.5-1.5h1c.276,0,.5-.224,.5-.5s-.224-.5-.5-.5h-1c-.821,0-1.544,.403-2,1.015-.456-.613-1.179-1.015-2-1.015h-1c-.276,0-.5,.224-.5,.5s.224,.5,.5,.5h1c.827,0,1.5,.673,1.5,1.5V21.5c0,.827-.673,1.5-1.5,1.5h-1c-.276,0-.5,.224-.5,.5s.224,.5,.5,.5h1c.821,0,1.544-.403,2-1.015,.456,.613,1.179,1.015,2,1.015h1c.276,0,.5-.224,.5-.5s-.224-.5-.5-.5Z"/>
</svg>
