<?xml version="1.0" encoding="UTF-8"?>
<svg xmlns="http://www.w3.org/2000/svg" id="Layer_1" data-name="Layer 1" viewBox="0 0 24 24">
  <path d="M19.07,6.28c.159,.237,.088,.558-.158,.702l-.016,.009c-.222,.129-.509,.067-.652-.147-.562-.842-1.29-1.564-2.136-2.119-.215-.141-.28-.427-.152-.65l.009-.016c.142-.248,.462-.321,.701-.164,.952,.626,1.771,1.438,2.404,2.385Zm.94,6.72c.271,0,.491-.219,.491-.49,0-.433,0-1.064,0-1.51,0-.575-.058-1.147-.171-1.706-.057-.28-.335-.456-.61-.381l-.018,.005c-.248,.067-.406,.315-.354,.566,.102,.496,.153,1.005,.153,1.516,0,.401,0,1.058,0,1.509,0,.271,.22,.491,.491,.491h.018ZM13.593,2.649c-.523-.099-1.057-.149-1.593-.149s-1.07,.05-1.593,.149c-.28,.053-.458,.329-.388,.605l.004,.017c.065,.254,.317,.408,.574,.359,.46-.087,.93-.131,1.402-.131s.942,.044,1.402,.131c.257,.049,.509-.106,.574-.359l.004-.017c.07-.276-.108-.552-.388-.605Zm8.407,19.851c0,.827-.673,1.5-1.5,1.5h-3c-.759,0-1.468-.338-1.944-.928s-.659-1.354-.5-2.096c.158-.739,.371-1.602,.598-2.523,.63-2.556,1.345-5.452,1.345-7.453,0-2.757-2.243-5-5-5s-5,2.243-5,5c0,2.001,.715,4.897,1.345,7.453,.228,.922,.44,1.784,.598,2.523,.159,.742-.023,1.506-.5,2.096s-1.185,.928-1.944,.928H3.5c-.827,0-1.5-.673-1.5-1.5,0-.685,.461-1.265,1.09-1.443-1.003-2.764-2.09-6.566-2.09-10.057C1,4.935,5.935,0,12,0s11,4.935,11,11c0,3.49-1.087,7.293-2.09,10.057,.629,.179,1.09,.759,1.09,1.443Zm-1,0c0-.275-.224-.5-.5-.5h-.288c-.164,0-.318-.081-.412-.216-.093-.135-.114-.308-.056-.461,.842-2.226,2.255-6.525,2.255-10.323,0-5.514-4.486-10-10-10S2,5.486,2,11c0,3.798,1.413,8.098,2.255,10.323,.058,.153,.037,.326-.056,.461-.094,.135-.248,.216-.412,.216h-.288c-.276,0-.5,.225-.5,.5s.224,.5,.5,.5h3c.456,0,.881-.203,1.167-.557,.286-.354,.395-.812,.3-1.258-.156-.729-.367-1.582-.591-2.492-.645-2.611-1.375-5.57-1.375-7.693,0-3.309,2.691-6,6-6s6,2.691,6,6c0,2.123-.73,5.082-1.375,7.693-.225,.91-.435,1.763-.591,2.492-.095,.446,.014,.904,.3,1.258,.286,.354,.711,.557,1.167,.557h3c.276,0,.5-.225,.5-.5ZM8.035,4.058c-.142-.248-.462-.321-.701-.164-.952,.626-1.771,1.438-2.404,2.385-.159,.237-.088,.558,.158,.702l.016,.009c.222,.129,.509,.067,.652-.147,.562-.842,1.29-1.564,2.136-2.119,.215-.141,.28-.427,.152-.65l-.009-.016Zm-3.736,4.859l-.018-.005c-.276-.074-.553,.102-.61,.381-.114,.559-.171,1.13-.171,1.706,0,.446,0,1.077,0,1.51,0,.271,.22,.49,.491,.49h.018c.271,0,.491-.22,.491-.491,0-.451,0-1.108,0-1.509,0-.511,.052-1.02,.153-1.516,.052-.252-.106-.499-.354-.566Z"/>
</svg>
