<?xml version="1.0" encoding="UTF-8"?>
<svg xmlns="http://www.w3.org/2000/svg" id="Layer_1" data-name="Layer 1" viewBox="0 0 24 24">
  <path d="M21,23.5c0,.276-.224,.5-.5,.5H.5c-.276,0-.5-.224-.5-.5s.224-.5,.5-.5H20.5c.276,0,.5,.224,.5,.5Zm3,0c0,.276-.224,.5-.5,.5s-.5-.224-.5-.5v-4.666l-4.289-1.787c-.323-.148-.724,.117-.711,.474v2.979c0,.276-.224,.5-.5,.5s-.5-.224-.5-.5v-2.979c-.031-1.047,1.14-1.828,2.096-1.397l3.573,1.489c-.13-.233-.286-.452-.487-.634l-2.291-1.702c-1.971-1.468-4.409-2.275-6.867-2.275h-4.359c-.857,0-1.693-.243-2.416-.703l-4.233-2.694c-.03,.199,.011,.414,.148,.584l4.232,4.924c.389,.454,.604,1.033,.604,1.63v3.759c0,.276-.224,.5-.5,.5s-.5-.224-.5-.5v-3.759c0-.358-.129-.706-.362-.979L1.395,10.826c-.527-.658-.519-1.587,.009-2.221l3.597-3.805v-.301c0-.827,.673-1.5,1.5-1.5h.924c.774-1.763,2.531-3,4.576-3s3.802,1.237,4.576,3h.924c.827,0,1.5,.673,1.5,1.5v1c0,.827-.673,1.5-1.5,1.5h-.924c-.774,1.763-2.531,3-4.576,3s-3.802-1.237-4.576-3h-.924c-.608,0-1.13-.365-1.365-.886l-2.532,2.677,4.183,2.662c.562,.357,1.212,.547,1.879,.547h4.359c2.671,0,5.322,.878,7.464,2.473l2.328,1.733c.622,.562,1.058,1.292,1.184,2.072v5.222ZM17,6h.5c.276,0,.5-.225,.5-.5v-1c0-.275-.224-.5-.5-.5h-.5v2Zm-9-1c0,2.206,1.794,4,4,4s4-1.794,4-4S14.206,1,12,1s-4,1.794-4,4Zm-2,.5c0,.275,.224,.5,.5,.5h.5v-2h-.5c-.276,0-.5,.225-.5,.5v1Z"/>
</svg>
