<svg id="Layer_1" viewBox="0 0 24 24" xmlns="http://www.w3.org/2000/svg" data-name="Layer 1"><path d="m19.777 3.208c-2.076-2.068-4.838-3.208-7.776-3.208s-5.701 1.14-7.777 3.208c-2.078 2.069-3.223 4.82-3.223 7.747s1.145 5.677 3.236 7.76l4.151 3.819c.972.945 2.254 1.466 3.612 1.466s2.64-.521 3.602-1.456l4.175-3.843c2.078-2.069 3.223-4.82 3.223-7.746s-1.145-5.678-3.223-7.747zm-.692 14.771-4.171 3.839c-1.568 1.525-4.251 1.535-5.839-.01l-4.147-3.815c-1.888-1.88-2.928-4.379-2.928-7.037s1.04-5.158 2.928-7.038c1.889-1.881 4.4-2.917 7.072-2.917s5.183 1.036 7.071 2.917c1.888 1.88 2.928 4.379 2.928 7.038s-1.04 5.157-2.914 7.023zm-1.666-11.237-.94.94c-.309.309-.479.719-.479 1.155v3.662c0 .275-.225.5-.5.5h-.5v-5c0-1.103-.897-2-2-2h-3c-1.103 0-2 .897-2 2v6c0 1.103.897 2 2 2h3c1.103 0 2-.897 2-2h.5c.827 0 1.5-.673 1.5-1.5v-3.662c0-.169.065-.328.186-.448l.94-.94c.195-.195.195-.512 0-.707s-.512-.195-.707 0zm-7.419.258h3c.552 0 1 .448 1 1v1h-5v-1c0-.552.448-1 1-1zm4 7c0 .552-.448 1-1 1h-3c-.552 0-1-.448-1-1v-4h5z"/></svg>