<svg id="Layer_1" viewBox="0 0 24 24" xmlns="http://www.w3.org/2000/svg" data-name="Layer 1"><path d="m10 10c0 .552-.448 1-1 1s-1-.448-1-1 .448-1 1-1 1 .448 1 1zm8-8c.552 0 1-.448 1-1s-.448-1-1-1-1 .448-1 1 .448 1 1 1zm3 5c.552 0 1-.448 1-1s-.448-1-1-1-1 .448-1 1 .448 1 1 1zm-12 6c-.552 0-1 .448-1 1s.448 1 1 1 1-.448 1-1-.448-1-1-1zm15 5.5v2c0 1.93-1.57 3.5-3.5 3.5h-4c-1.93 0-3.5-1.57-3.5-3.5v-2c0-1.391.822-2.585 2-3.149v-1.851c0-1.93 1.57-3.5 3.5-3.5s3.5 1.57 3.5 3.5v1.851c1.178.564 2 1.758 2 3.149zm-8-3.449c.165-.024.329-.051.5-.051h4c.171 0 .335.027.5.051v-1.551c0-1.378-1.122-2.5-2.5-2.5s-2.5 1.122-2.5 2.5zm7 3.449c0-1.379-1.122-2.5-2.5-2.5h-4c-1.378 0-2.5 1.121-2.5 2.5v2c0 1.379 1.122 2.5 2.5 2.5h4c1.378 0 2.5-1.121 2.5-2.5zm-4.5 0c-.552 0-1 .448-1 1s.448 1 1 1 1-.448 1-1-.448-1-1-1zm-5.288-16.12c.641 2.353 1.97 4.433 3.844 6.015.212.179.527.15.705-.059.178-.211.152-.527-.059-.705-1.719-1.451-2.938-3.358-3.525-5.514-.361-1.324-1.545-2.187-2.881-2.112-3.29.197-6.285 1.689-8.434 4.203-3.68 4.305-3.782 10.871-.238 15.272 2.177 2.703 5.4 4.346 8.843 4.506h.024c.265 0 .486-.209.499-.477.013-.276-.2-.51-.476-.522-3.157-.147-6.113-1.654-8.111-4.135-3.248-4.032-3.153-10.048.219-13.994 1.971-2.305 4.717-3.674 7.734-3.854.85-.046 1.621.515 1.856 1.377z"/></svg>