<?xml version="1.0" encoding="UTF-8"?>
<svg xmlns="http://www.w3.org/2000/svg" id="Layer_1" data-name="Layer 1" viewBox="0 0 24 24">
  <path d="M5,.496c.002-.275,.226-.496,.5-.496h.004l4,.032c.535,0,1.012,.281,1.273,.752,.261,.471,.247,1.025-.039,1.481l-4.321,6.511c-.096,.145-.255,.224-.417,.224-.095,0-.191-.027-.276-.083-.23-.153-.293-.463-.14-.693L9.897,1.724c.122-.196,.044-.384,.005-.455-.04-.071-.158-.237-.402-.237l-4.004-.032c-.276-.002-.498-.228-.496-.504Zm7,5.504V3c0-1.654,1.346-3,3-3s3,1.346,3,3v3c0,1.654-1.346,3-3,3s-3-1.346-3-3Zm1,0c0,1.103,.897,2,2,2s2-.897,2-2V3c0-1.103-.897-2-2-2s-2,.897-2,2v3Zm8.865,3c1.048,0,1.934-.627,2.107-1.491,.13-.651-.175-1.561-1.447-1.979-.008-.003-.831-.304-1.196-.485-.165-.095-.353-.259-.314-.5,.037-.226,.243-.415,.54-.494,.499-.134,.997-.01,1.566,.39,.226,.16,.538,.105,.696-.121,.159-.226,.105-.538-.121-.696-.806-.568-1.615-.751-2.399-.538-.681,.181-1.167,.679-1.269,1.3-.098,.61,.202,1.181,.839,1.544,.43,.217,1.28,.527,1.332,.546,.565,.186,.862,.499,.794,.837-.079,.392-.563,.687-1.126,.687-.514,0-1.228-.292-1.547-.555-.214-.176-.529-.144-.704,.069-.175,.213-.145,.528,.069,.704,.534,.438,1.493,.782,2.182,.782Zm1.567,2.781c.429,.486,.63,1.129,.551,1.766-.777,5.967-5.928,10.453-11.983,10.453S.794,19.514,.02,13.564c-.081-.654,.12-1.297,.549-1.783,.439-.497,1.07-.781,1.732-.781h7.7c.649,0,1,.515,1,1,0,.551,.449,1,1,1s1-.449,1-1c0-.485,.351-1,1-1h7.7c.662,0,1.293,.285,1.732,.781Zm-13.432,.219h-3c0,2.757,2.243,5,5,5s5-2.243,5-5h-3c0,1.103-.897,2-2,2s-2-.897-2-2Zm12.682,.444c-.249-.282-.607-.444-.982-.444h-3.7c0,3.309-2.691,6-6,6s-6-2.691-6-6H2.3c-.375,0-.733,.162-.982,.444-.243,.275-.353,.623-.309,.98,.712,5.464,5.437,9.576,10.991,9.576s10.278-4.112,10.989-9.564c.045-.369-.064-.717-.307-.992Z"/>
</svg>
