<svg id="Layer_1" viewBox="0 0 24 24" xmlns="http://www.w3.org/2000/svg" data-name="Layer 1"><path d="m13.5 5c1.379 0 2.5-1.122 2.5-2.5s-1.121-2.5-2.5-2.5-2.5 1.122-2.5 2.5 1.122 2.5 2.5 2.5zm0-4c.827 0 1.5.673 1.5 1.5s-.673 1.5-1.5 1.5-1.5-.673-1.5-1.5.673-1.5 1.5-1.5zm9.823 9.715c-.432-.381-1.004-.559-1.58-.485-1.822.232-4.944.585-7.769.716l1.574-3.946h2.836c.89 0 1.659-.573 1.915-1.425l1.18-3.931c.08-.264-.07-.543-.335-.623-.262-.078-.543.071-.622.335l-1.18 3.931c-.126.419-.521.712-.958.712h-7.893s-.004 0-.005 0h-3.369c-.445 0-.83-.287-.958-.712l-1.179-3.931c-.079-.265-.359-.414-.623-.335-.265.08-.415.358-.335.623l1.179 3.931c.256.853 1.026 1.425 1.916 1.425h2.651l-1.504 3.843c-2.289-.166-4.559-.428-6.007-.612-.574-.072-1.147.104-1.58.485-.43.379-.677.925-.677 1.499v1.026c0 1.009.751 1.862 1.749 1.985 1.607.198 5.296.616 8.553.74l4.213 2.528c.299.18.485.508.485.857v4.151c0 .276.224.5.5.5s.5-.224.5-.5v-4.151c0-.699-.372-1.356-.972-1.715l-2.728-1.637c3.527-.028 8.108-.546 9.952-.773.996-.123 1.748-.976 1.748-1.985v-1.026c0-.573-.247-1.12-.677-1.499zm-12.482-3.715h3.629l-1.589 3.985c-.298.007-.599.015-.882.015-.842 0-1.757-.034-2.69-.088l1.531-3.912zm12.159 6.24c0 .504-.374.931-.87.993-1.878.23-6.622.768-10.13.768s-8.252-.537-10.129-.768c-.496-.062-.871-.488-.871-.993v-1.026c-.016-.588.553-1.079 1.13-.991 2.285.29 6.606.777 9.87.777s7.584-.487 9.869-.777c.578-.087 1.147.403 1.131.991zm-13.036 4.946-.623 1.557c-.305.764-1.034 1.257-1.857 1.257h-3.984c-.276 0-.5-.224-.5-.5s.224-.5.5-.5h3.984c.411 0 .776-.247.928-.628l.623-1.557c.102-.257.396-.381.65-.279.256.103.381.394.279.65z"/></svg>