<svg id="Layer_1" viewBox="0 0 24 24" xmlns="http://www.w3.org/2000/svg" data-name="Layer 1"><path d="m24 4.5v2c0 2.481-2.019 4.5-4.5 4.5h-4c-.276 0-.5-.224-.5-.5s.224-.5.5-.5h4c1.93 0 3.5-1.57 3.5-3.5v-2c0-1.93-1.57-3.5-3.5-3.5h-15c-1.93 0-3.5 1.57-3.5 3.5v2c0 1.93 1.57 3.5 3.5 3.5h1c.276 0 .5.224.5.5s-.224.5-.5.5h-1c-2.481 0-4.5-2.019-4.5-4.5v-2c0-2.481 2.019-4.5 4.5-4.5h15c2.481 0 4.5 2.019 4.5 4.5zm-5.223 14.526-5.777-1.925v-5.494c0-1.273-.896-2.38-2.083-2.573-.735-.119-1.476.085-2.035.561-.56.477-.881 1.171-.881 1.905v8.435l-.11.054s-1.725-1.346-1.728-1.348c-1.008-.903-2.561-.843-3.488.151-.941 1.007-.894 2.588.106 3.524l1.64 1.549c.092.087.214.135.341.135.448 0 .667-.547.342-.856l-1.634-1.552c-.599-.562-.629-1.514-.064-2.118.561-.602 1.509-.635 2.115-.073.005.004.027.025.035.031l1.719 1.344c.325.255.757.3 1.126.119.37-.18.6-.548.6-.96v-8.435c0-.44.193-.857.529-1.144.34-.29.776-.406 1.226-.336.709.116 1.245.798 1.245 1.587v5.854c0 .215.138.406.342.475l6.119 2.039c1.52.506 2.541 1.922 2.541 3.524 0 .276.224.5.5.5s.5-.224.5-.5c0-2.033-1.296-3.831-3.225-4.474zm-.777-11.526v-1h-1v1c0 .276-.224.5-.5.5s-.5-.224-.5-.5v-3c0-.827.673-1.5 1.5-1.5s1.5.673 1.5 1.5v3c0 .276-.224.5-.5.5s-.5-.224-.5-.5zm0-2v-1c0-.275-.224-.5-.5-.5s-.5.225-.5.5v1zm-7.192-1.5c.276 0 .5-.224.5-.5s-.224-.5-.5-.5h-.808c-.551 0-1 .448-1 1v3c0 .552.449 1 1 1h.808c.276 0 .5-.224.5-.5s-.224-.5-.5-.5h-.808v-1h.808c.276 0 .5-.224.5-.5s-.224-.5-.5-.5h-.808v-1zm2.692 4c.276 0 .5-.224.5-.5v-3.5h.5c.276 0 .5-.224.5-.5s-.224-.5-.5-.5h-2c-.276 0-.5.224-.5.5s.224.5.5.5h.5v3.5c0 .276.224.5.5.5zm-5.5-3.5c0 .384-.145.734-.383 1 .238.266.383.616.383 1 0 .827-.673 1.5-1.5 1.5h-.5c-.551 0-1-.448-1-1v-3c0-.552.449-1 1-1h.5c.827 0 1.5.673 1.5 1.5zm-1 2c0-.275-.224-.5-.5-.5h-.5v1h.5c.276 0 .5-.225.5-.5zm0-2c0-.275-.224-.5-.5-.5h-.5v1h.5c.276 0 .5-.225.5-.5z"/></svg>