<svg id="Layer_1" viewBox="0 0 24 24" xmlns="http://www.w3.org/2000/svg" data-name="Layer 1"><path d="m17.5 0h-11c-2.481 0-4.5 2.019-4.5 4.5v15c0 2.481 2.019 4.5 4.5 4.5h11c2.481 0 4.5-2.019 4.5-4.5v-15c0-2.481-2.019-4.5-4.5-4.5zm3.5 19.5c0 1.93-1.57 3.5-3.5 3.5h-11c-1.93 0-3.5-1.57-3.5-3.5v-15c0-1.93 1.57-3.5 3.5-3.5h11c1.93 0 3.5 1.57 3.5 3.5zm-12-7.5c0 1.103.897 2 2 2h2c1.103 0 2-.897 2-2 1.103 0 2-.897 2-2v-1.8c0-2.656-1.979-4.93-4.503-5.175-1.428-.137-2.796.312-3.854 1.272-1.044.947-1.643 2.297-1.643 3.703v2c0 1.103.897 2 2 2zm-1-4c0-1.125.479-2.204 1.315-2.962.745-.677 1.685-1.038 2.68-1.038.134 0 .269.006.404.02 2.02.196 3.601 2.033 3.601 4.18v1.8c0 .551-.448 1-1 1h-.5c-.276 0-.5.224-.5.5v.5c0 .551-.448 1-1 1h-2c-.552 0-1-.449-1-1v-.5c0-.276-.224-.5-.5-.5h-.5c-.552 0-1-.449-1-1zm9.707 7.955-4.499 2.045 4.499 2.045c.251.114.362.41.248.662-.115.255-.416.361-.662.248l-5.293-2.406-5.293 2.406c-.246.113-.547.007-.662-.248-.114-.252-.003-.548.248-.662l4.499-2.045-4.499-2.045c-.251-.114-.362-.41-.248-.662s.411-.36.662-.248l5.293 2.406 5.293-2.406c.253-.112.548-.004.662.248s.003.548-.248.662zm-4.707-6.955c0-.552.448-1 1-1s1 .448 1 1-.448 1-1 1-1-.448-1-1zm-4 0c0-.552.448-1 1-1s1 .448 1 1-.448 1-1 1-1-.448-1-1z"/></svg>