<svg id="Layer_1" viewBox="0 0 24 24" xmlns="http://www.w3.org/2000/svg" data-name="Layer 1"><path d="m23.5 2c-.276 0-.5.224-.5.5v1.77l-6.685 5.73h-6.315c-1.378 0-2.5 1.121-2.5 2.5v.293l-3.783-3.784c.176-.297.283-.64.283-1.009 0-1.103-.897-2-2-2s-2 .897-2 2 .897 2 2 2c.37 0 .712-.108 1.01-.284l3.283 3.284h-2.793c-1.93 0-3.5 1.57-3.5 3.5v5c0 .276.224.5.5.5s.5-.224.5-.5v-3.5h22v3.5c0 .276.224.5.5.5s.5-.224.5-.5v-19c0-.276-.224-.5-.5-.5zm-.5 11h-6v-2.27l6-5.143zm-13-2h6v2h-7.5v-.5c0-.827.673-1.5 1.5-1.5zm-8-2c-.551 0-1-.448-1-1s.449-1 1-1 1 .448 1 1-.449 1-1 1zm-1 8v-.5c0-1.379 1.122-2.5 2.5-2.5h19.5v3z"/></svg>