<?xml version="1.0" encoding="UTF-8"?>
<svg xmlns="http://www.w3.org/2000/svg" id="Layer_1" data-name="Layer 1" viewBox="0 0 24 24">
  <path d="M17,5h-3V2.5c0-1.379-1.122-2.5-2.5-2.5h-1c-1.378,0-2.5,1.121-2.5,2.5v2.682c-2.862,.68-5,3.251-5,6.318v8c0,2.481,2.019,4.5,4.5,4.5h9c2.481,0,4.5-2.019,4.5-4.5V9c0-2.206-1.794-4-4-4Zm-8,0V2.5c0-.827,.673-1.5,1.5-1.5h1c.827,0,1.5,.673,1.5,1.5v2.5h-4Zm-5,7h5.5c.827,0,1.5,.673,1.5,1.5v3c0,.827-.673,1.5-1.5,1.5H4v-6Zm16,7.5c0,1.93-1.57,3.5-3.5,3.5H7.5c-1.93,0-3.5-1.57-3.5-3.5v-.5h5.5c1.378,0,2.5-1.121,2.5-2.5v-3c0-1.379-1.122-2.5-2.5-2.5H4.025c.254-2.799,2.611-5,5.475-5h7.5c1.654,0,3,1.346,3,3v10.5Zm-3-12.5h-1.5c-.276,0-.5,.224-.5,.5v7.5c0,1.103,.897,2,2,2h1.5c.276,0,.5-.224,.5-.5v-7.5c0-1.103-.897-2-2-2Zm1,9h-1c-.551,0-1-.448-1-1v-7h1c.551,0,1,.448,1,1v7Z"/>
</svg>
