<svg id="Layer_1" viewBox="0 0 24 24" xmlns="http://www.w3.org/2000/svg" data-name="Layer 1"><path d="m22.656 3.88c.217.32.344.705.344 1.12 0 .872-.564 1.607-1.344 1.88.217.32.344.705.344 1.12 0 1.103-.897 2-2 2h-3.5c-.276 0-.5-.224-.5-.5s.224-.5.5-.5h3.5c.551 0 1-.449 1-1s-.449-1-1-1h-2.5c-.276 0-.5-.224-.5-.5s.224-.5.5-.5h3.5c.551 0 1-.449 1-1s-.449-1-1-1h-2.5c-.276 0-.5-.224-.5-.5s.224-.5.5-.5h3.5c.551 0 1-.449 1-1s-.449-1-1-1h-3.5c-2.144 0-2.95 2.01-3.215 2.671-.586 1.463-1.219 3.247-2.284 4.806-.228.328-.602.523-1.001.523s-.773-.196-1.001-.523c-1.061-1.553-1.695-3.334-2.277-4.79-.271-.676-1.078-2.687-3.221-2.687h-3.501c-.551 0-1 .449-1 1s.449 1 1 1h3.5c.276 0 .5.224.5.5s-.224.5-.5.5h-2.5c-.551 0-1 .449-1 1s.449 1 1 1h3.5c.276 0 .5.224.5.5s-.224.5-.5.5h-2.5c-.551 0-1 .449-1 1s.449 1 1 1h3.5c.276 0 .5.224.5.5s-.224.5-.5.5h-3.5c-1.103 0-2-.897-2-2 0-.415.127-.8.344-1.12-.78-.273-1.344-1.008-1.344-1.88 0-.415.127-.8.344-1.12-.78-.273-1.344-1.008-1.344-1.88 0-1.103.897-2 2-2h3.5c1.871 0 3.265 1.11 4.143 3.299.564 1.409 1.182 3.15 2.176 4.606.115.165.247.165.361 0 .992-1.452 1.609-3.189 2.171-4.592.884-2.204 2.278-3.313 4.149-3.313h3.5c1.103 0 2 .897 2 2 0 .872-.564 1.607-1.344 1.88zm-3.656 11.62v5c0 1.93-1.57 3.5-3.5 3.5h-7c-1.93 0-3.5-1.57-3.5-3.5v-5c0-1.93 1.57-3.5 3.5-3.5h7c1.93 0 3.5 1.57 3.5 3.5zm-1 0c0-1.379-1.122-2.5-2.5-2.5h-7c-1.378 0-2.5 1.121-2.5 2.5v5c0 1.379 1.122 2.5 2.5 2.5h7c1.378 0 2.5-1.121 2.5-2.5zm-4.5.5h-3c-.276 0-.5.224-.5.5s.224.5.5.5h3c.276 0 .5-.224.5-.5s-.224-.5-.5-.5z"/></svg>