<?xml version="1.0" encoding="UTF-8"?>
<svg xmlns="http://www.w3.org/2000/svg" id="Layer_1" data-name="Layer 1" viewBox="0 0 24 24">
  <path d="M21.5,17h-.5v-4.5c0-3.385-1.925-6.469-4.919-8h3.99c.224,.86,1,1.5,1.929,1.5,1.103,0,2-.897,2-2s-.897-2-2-2c-.929,0-1.705,.64-1.929,1.5h-4.122c-.249-1.968-1.915-3.5-3.949-3.5s-3.7,1.532-3.949,3.5H3.929c-.224-.86-1-1.5-1.929-1.5C.897,2,0,2.897,0,4s.897,2,2,2c.929,0,1.705-.64,1.929-1.5h3.99c-2.995,1.531-4.919,4.615-4.919,8v4.5h-.5c-1.378,0-2.5,1.122-2.5,2.5v2c0,1.378,1.122,2.5,2.5,2.5h2c1.378,0,2.5-1.122,2.5-2.5v-2c0-1.378-1.122-2.5-2.5-2.5h-.5v-4.5c0-2.973,1.671-5.682,4.279-7.06,.58,1.494,2.024,2.56,3.721,2.56s3.141-1.066,3.721-2.56c2.607,1.378,4.279,4.087,4.279,7.06v4.5h-.5c-1.378,0-2.5,1.122-2.5,2.5v2c0,1.378,1.122,2.5,2.5,2.5h2c1.378,0,2.5-1.122,2.5-2.5v-2c0-1.378-1.122-2.5-2.5-2.5Zm-15.5,2.5v2c0,.827-.673,1.5-1.5,1.5H2.5c-.827,0-1.5-.673-1.5-1.5v-2c0-.827,.673-1.5,1.5-1.5h2c.827,0,1.5,.673,1.5,1.5ZM22,3c.551,0,1,.449,1,1s-.449,1-1,1-1-.449-1-1,.449-1,1-1ZM2,5c-.551,0-1-.449-1-1s.449-1,1-1,1,.449,1,1-.449,1-1,1Zm10,2c-1.654,0-3-1.346-3-3s1.346-3,3-3,3,1.346,3,3-1.346,3-3,3Zm11,14.5c0,.827-.673,1.5-1.5,1.5h-2c-.827,0-1.5-.673-1.5-1.5v-2c0-.827,.673-1.5,1.5-1.5h2c.827,0,1.5,.673,1.5,1.5v2Z"/>
</svg>
