<svg id="Layer_1" viewBox="0 0 24 24" xmlns="http://www.w3.org/2000/svg" data-name="Layer 1"><path d="m22 19.051v-8.551c0-.38-.048-.759-.142-1.124-.068-.269-.339-.428-.609-.36-.268.068-.429.342-.36.608.073.285.11.58.11.876v8.5h-5.5c-.133 0-.26.053-.354.146l-.854.854h-4.586l-.854-.854c-.094-.094-.221-.146-.354-.146h-5.497v-8.5c0-1.93 1.57-3.5 3.5-3.5h7.5c.276 0 .5-.224.5-.5s-.224-.5-.5-.5h-7.5c-2.481 0-4.5 2.019-4.5 4.5v8.551c-1.14.232-2 1.242-2 2.449 0 1.379 1.122 2.5 2.5 2.5h19c1.378 0 2.5-1.121 2.5-2.5 0-1.208-.86-2.217-2-2.449zm-.5 3.949h-19c-.827 0-1.5-.673-1.5-1.5s.673-1.5 1.5-1.5h5.793l.854.854c.094.094.221.146.354.146h5c.133 0 .26-.053.354-.146l.854-.854h5.793c.827 0 1.5.673 1.5 1.5s-.673 1.5-1.5 1.5zm2.354-15.854c.195.195.195.512 0 .707s-.512.195-.707 0l-3.146-3.146-3.146 3.146c-.195.195-.512.195-.707 0s-.195-.512 0-.707l3.146-3.146-3.146-3.146c-.195-.195-.195-.512 0-.707s.512-.195.707 0l3.146 3.146 3.145-3.147c.195-.195.512-.195.707 0s.195.512 0 .707l-3.146 3.146 3.146 3.146zm-12.455 1.489c-.372-.199-.819-.178-1.176.062l-1.879 1.303h-.844c-1.378 0-2.5 1.121-2.5 2.5v1c0 1.379 1.122 2.5 2.5 2.5h.844l1.886 1.308c.19.127.411.191.631.191.184 0 .368-.045.537-.135.371-.198.602-.583.602-1.004v-1.952c.581-.207 1-.756 1-1.408s-.419-1.202-1-1.408v-1.952c0-.421-.23-.806-.602-1.004zm-.398 7.725c-.01.118-.106.172-.208.12l-2.007-1.392c-.083-.058-.183-.089-.285-.089h-1c-.827 0-1.5-.673-1.5-1.5v-1c0-.827.673-1.5 1.5-1.5h1c.102 0 .201-.031.285-.089l2-1.387c.108-.058.204-.007.215.115v6.721z"/></svg>