<?xml version="1.0" encoding="UTF-8"?>
<svg xmlns="http://www.w3.org/2000/svg" id="Layer_1" data-name="Layer 1" viewBox="0 0 24 24">
  <path d="M19.366,3.519c-.44-2.039-2.287-3.519-4.392-3.519h-5.949c-2.104,0-3.951,1.48-4.392,3.519-.421,1.94-.634,3.784-.634,5.481,0,3.363,.735,8.014,1.353,11.322,.396,2.131,2.258,3.678,4.424,3.678h4.447c2.166,0,4.027-1.547,4.424-3.678,.617-3.309,1.353-7.959,1.353-11.322,0-1.698-.213-3.542-.634-5.481Zm-13.756,.211c.342-1.582,1.778-2.73,3.415-2.73h5.949c1.637,0,3.073,1.148,3.415,2.73,.286,1.321,.467,2.59,.552,3.797-1.7,.138-9.075,.972-13.725,5.105-.13-1.289-.216-2.535-.216-3.632,0-1.626,.205-3.399,.61-5.27Zm12.606,4.882l-4.31,5.481c-.657,.808-1.725,1.129-2.715,.817l-5.204-1.626c3.846-3.333,9.765-4.376,12.229-4.672Zm-.551,11.526c-.31,1.658-1.757,2.861-3.441,2.861h-4.447c-1.685,0-3.132-1.203-3.441-2.861-.327-1.753-.684-3.885-.948-5.993l5.505,1.72c.351,.109,.708,.163,1.061,.163,1.042,0,2.046-.465,2.733-1.312l4.307-5.477c-.032,3.268-.735,7.709-1.329,10.899Zm-5.665-12.139c1.654,0,3-1.346,3-3s-1.346-3-3-3-3,1.346-3,3,1.346,3,3,3Zm0-5c1.103,0,2,.897,2,2s-.897,2-2,2-2-.897-2-2,.897-2,2-2Z"/>
</svg>
