<svg id="Layer_1" viewBox="0 0 24 24" xmlns="http://www.w3.org/2000/svg" data-name="Layer 1"><path d="m19.5 17h-.5v-.5c0-1.93-1.57-3.5-3.5-3.5h-3v-1.5c0-.276-.224-.5-.5-.5s-.5.224-.5.5v1.5h-3c-1.93 0-3.5 1.57-3.5 3.5v.5h-.5c-.827 0-1.5.673-1.5 1.5v1c0 .827.673 1.5 1.5 1.5h.551c.245 1.692 1.691 3 3.449 3h7c1.758 0 3.204-1.308 3.449-3h.551c.827 0 1.5-.673 1.5-1.5v-1c0-.827-.673-1.5-1.5-1.5zm-15.5 2.5v-1c0-.275.224-.5.5-.5h.5v2h-.5c-.276 0-.5-.225-.5-.5zm11.5 3.5h-7c-1.378 0-2.5-1.121-2.5-2.5v-4c0-1.379 1.122-2.5 2.5-2.5h7c1.379 0 2.5 1.121 2.5 2.5v4c0 1.379-1.121 2.5-2.5 2.5zm4.5-3.5c0 .275-.225.5-.5.5h-.5v-2h.5c.275 0 .5.225.5.5zm-10.5-3c-1.103 0-2 .897-2 2s.897 2 2 2 2-.897 2-2-.897-2-2-2zm0 3c-.551 0-1-.448-1-1s.449-1 1-1 1 .448 1 1-.449 1-1 1zm5-3c-1.103 0-2 .897-2 2s.897 2 2 2 2-.897 2-2-.897-2-2-2zm0 3c-.552 0-1-.448-1-1s.448-1 1-1 1 .448 1 1-.448 1-1 1zm9-16.5h-8.5v-.5c0-1.378-1.121-2.5-2.5-2.5h-1c-1.378 0-2.5 1.122-2.5 2.5v.5h-8.5c-.276 0-.5.224-.5.5s.224.5.5.5h8.503c.009.788.317 1.528.875 2.086l1.621 1.621v1.793c0 .276.224.5.5.5s.5-.224.5-.5v-1.793l1.621-1.621c.558-.559.866-1.299.875-2.086h8.503c.276 0 .5-.224.5-.5s-.224-.5-.5-.5zm-9.5.964c0 .534-.208 1.036-.586 1.415l-1.414 1.414-1.414-1.414c-.378-.378-.586-.88-.586-1.415v-1.464c0-.827.673-1.5 1.5-1.5h1c.827 0 1.5.673 1.5 1.5z"/></svg>