<svg id="Layer_1" viewBox="0 0 24 24" xmlns="http://www.w3.org/2000/svg" data-name="Layer 1"><path d="m23.5 11h-4.5v-1.392c0-.922-.374-1.824-1.025-2.476l-2.107-2.107c-.651-.651-1.554-1.025-2.476-1.025h-4.892c-1.93 0-3.5 1.57-3.5 3.5v3.5h-4.5c-.276 0-.5.224-.5.5s.224.5.5.5h23c.276 0 .5-.224.5-.5s-.224-.5-.5-.5zm-6.101-3h-1.899c-.275 0-.5-.225-.5-.5v-1.899c.053.045 2.354 2.346 2.399 2.399zm-11.399-.5c0-1.379 1.121-2.5 2.5-2.5h4.892c.207 0 .409.035.608.085v2.415c0 .827.673 1.5 1.5 1.5h2.415c.051.199.085.402.085.608v1.392h-12zm9.5 12.5h-7c-1.93 0-3.5-1.57-3.5-3.5v-2c0-.276.224-.5.5-.5s.5.224.5.5v2c0 1.379 1.121 2.5 2.5 2.5h7c1.379 0 2.5-1.121 2.5-2.5v-2c0-.276.224-.5.5-.5s.5.224.5.5v2c0 1.93-1.57 3.5-3.5 3.5zm-15.5-13.5v-2c0-2.481 2.019-4.5 4.5-4.5h2c.276 0 .5.224.5.5s-.224.5-.5.5h-2c-1.93 0-3.5 1.57-3.5 3.5v2c0 .276-.224.5-.5.5s-.5-.224-.5-.5zm24-2v2c0 .276-.224.5-.5.5s-.5-.224-.5-.5v-2c0-1.93-1.57-3.5-3.5-3.5h-2c-.276 0-.5-.224-.5-.5s.224-.5.5-.5h2c2.481 0 4.5 2.019 4.5 4.5zm0 13v2c0 2.481-2.019 4.5-4.5 4.5h-2c-.276 0-.5-.224-.5-.5s.224-.5.5-.5h2c1.93 0 3.5-1.57 3.5-3.5v-2c0-.276.224-.5.5-.5s.5.224.5.5zm-17 6c0 .276-.224.5-.5.5h-2c-2.481 0-4.5-2.019-4.5-4.5v-2c0-.276.224-.5.5-.5s.5.224.5.5v2c0 1.93 1.57 3.5 3.5 3.5h2c.276 0 .5.224.5.5z"/></svg>