<svg id="Layer_1" viewBox="0 0 24 24" xmlns="http://www.w3.org/2000/svg" data-name="Layer 1"><path d="m19.5 2h-1.5v-1.5c0-.276-.224-.5-.5-.5s-.5.224-.5.5v1.5h-10v-1.5c0-.276-.224-.5-.5-.5s-.5.224-.5.5v1.5h-1.5c-2.481 0-4.5 2.019-4.5 4.5v13c0 1.635.889 3.144 2.32 3.938.237.132.545.049.68-.195.134-.241.047-.545-.195-.68-1.113-.617-1.805-1.791-1.805-3.062v-10.501h22v4.5c0 .276.224.5.5.5s.5-.224.5-.5v-7c0-2.481-2.019-4.5-4.5-4.5zm-18.5 6v-1.5c0-1.93 1.57-3.5 3.5-3.5h15c1.93 0 3.5 1.57 3.5 3.5v1.5zm15.794 9.116c-.132-.645-.603-1.113-1.221-1.116-.603-.002-1.097.489-1.213 1.085l-1.286 6.317c-.061.301.171.582.483.583h.019c.236.001.441-.163.487-.391l.326-1.594h2.388l.335 1.611c.047.226.248.388.482.389.314.002.549-.281.487-.584zm-2.202 3.884.76-3.719c.035-.147.135-.334.283-.267.038.018.128.115.166.299l.767 3.687zm9.407-2.5c0-1.378-1.121-2.5-2.5-2.5h-1.5c-.552 0-1 .449-1 1v6.5c0 .276.224.5.5.5s.5-.224.5-.5v-2.5h1.5c.212 0 .414-.035.611-.084l.914 2.743c.088.264.378.403.633.316.262-.087.403-.37.316-.632l-.956-2.869c.593-.458.982-1.167.982-1.972zm-4 1.5v-3h1.5c.827 0 1.5.673 1.5 1.5s-.673 1.5-1.5 1.5zm-8.498-3 .469 6.464c.021.29-.208.536-.499.536-.262 0-.48-.202-.499-.464l-.459-6.33-1.41 3.102c-.232.51-.957.51-1.189 0l-1.41-3.103-.459 6.33c-.019.261-.237.464-.499.464-.29 0-.52-.247-.499-.536l.469-6.464c.043-.705.472-1 .988-1 .342 0 .66.242.841.64l1.164 2.56 1.164-2.56c.181-.398.499-.64.841-.64.516 0 .945.295.988 1z"/></svg>