<?xml version="1.0" encoding="UTF-8"?>
<svg xmlns="http://www.w3.org/2000/svg" id="Layer_1" data-name="Layer 1" viewBox="0 0 24 24">
  <path d="M21.326,8.036C20.615,3.426,16.652,0,11.941,0,4.681,0,2.897,5.417,1.717,9.002c-.479,1.455-.893,2.712-1.479,3.071-.186,.114-.276,.335-.224,.547,.053,.211,.237,.364,.455,.378,.049,.002,3.621,.163,7.496-2.12-.005,.041-.024,.078-.024,.121,0,.552,.448,1,1,1s1-.448,1-1c0-.455-.31-.823-.725-.945,1.662-1.209,3.317-2.897,4.716-5.304,.139-.239,.058-.545-.181-.684-.239-.138-.544-.059-.684,.181C9.358,10.629,3.929,11.78,1.622,11.972c.393-.678,.696-1.599,1.044-2.657C3.822,5.806,5.404,1,11.941,1c4.34,0,7.971,3.25,8.445,7.561,.028,.258,.288,.423,.555,.439,1.103,0,2,.897,2,2s-.897,2-2,2h-.941c-.189,.012-.352,.113-.447,.276-.456,.913-1.398,1.798-2.52,2.369-.132,.07-.283-.028-.326-.165-.562-1.713-2.04-2.48-3.254-2.48h-2.906c-1.197,0-2.662,.751-3.236,2.428-.048,.144-.207,.245-.343,.16-.713-.432-1.556-1.058-2.209-1.459-.676-.441-1.59,.303-1.314,1.056,.787,2.445,2.379,4.555,4.556,6.122v2.193c0,.276,.224,.5,.5,.5s.5-.224,.5-.5v-1.53c.33,.197,.666,.387,1.018,.56,1.235,.607,2.658,.627,3.904,.048,.384-.178,.733-.363,1.078-.549v1.471c0,.276,.224,.5,.5,.5s.5-.224,.5-.5v-2.066c2.413-1.552,3.72-3.46,4.398-6.344l.198-1.089h.346c1.654,0,3-1.346,3-3,0-1.506-1.115-2.756-2.616-2.964Zm-7.824,13.634c-.968,.451-2.077,.437-3.042-.039-2.89-1.42-5.003-3.72-5.977-6.495,.193,.126,.415,.278,.652,.439,.413,.282,.87,.594,1.31,.864,.658,.424,1.579,.052,1.812-.688,.415-1.21,1.449-1.752,2.291-1.752h2.906c.854,0,1.898,.554,2.304,1.792,.213,.709,1.071,1.097,1.729,.745,.699-.356,1.33-.809,1.851-1.322-.806,3.099-2.419,4.869-5.836,6.456Zm1.44-9.67c-.552,0-1-.448-1-1s.448-1,1-1,1,.448,1,1-.448,1-1,1Zm-1.941,3h-2c-.555,0-1.86,.213-1.998,2.183-.018,.248,.15,.471,.393,.523,.886,.192,1.788,.293,2.605,.293s1.719-.102,2.605-.293c.243-.053,.41-.276,.393-.523-.138-1.97-1.443-2.183-1.998-2.183Zm-2.938,1.819c.169-.724,.604-.819,.938-.819h2c.334,0,.769,.095,.938,.819-1.333,.238-2.544,.238-3.877,0Z"/>
</svg>
