<svg id="Layer_1" viewBox="0 0 24 24" xmlns="http://www.w3.org/2000/svg" data-name="Layer 1"><path d="m22.666 1.334c-1.155-1.157-2.85-1.603-4.421-1.172-3.953 1.089-8.188 3.614-11.328 6.755-3.141 3.14-5.667 7.375-6.755 11.328-.433 1.571.017 3.265 1.172 4.421.865.865 2.031 1.334 3.221 1.334.4 0 .804-.054 1.2-.162 3.953-1.089 8.188-3.614 11.328-6.755 3.141-3.141 5.666-7.376 6.755-11.328.433-1.571-.017-3.265-1.172-4.421zm-21.54 17.177c1.045-3.792 3.474-7.863 6.498-10.887 3.023-3.024 7.093-5.453 10.887-6.497.309-.086.623-.127.935-.127.377 0 .747.076 1.104.193-3.683 2.903-7.14 5.952-10.269 9.082-3.133 3.133-6.186 6.595-9.093 10.283-.216-.654-.249-1.364-.061-2.047zm.559 3.025c2.968-3.794 6.095-7.346 9.302-10.554 3.205-3.205 6.752-6.329 10.541-9.293.149.108.297.219.43.352.132.132.249.276.357.425-2.966 3.791-6.092 7.34-9.297 10.547-3.21 3.21-6.762 6.337-10.554 9.303-.148-.108-.292-.225-.424-.357s-.249-.276-.357-.424zm21.189-16.047c-1.045 3.792-3.474 7.863-6.498 10.887-3.023 3.024-7.093 5.453-10.887 6.497-.685.191-1.395.158-2.048-.059 3.687-2.906 7.149-5.959 10.285-9.094 3.131-3.131 6.183-6.591 9.088-10.276.216.653.248 1.363.06 2.046z"/></svg>