<svg id="Layer_1" viewBox="0 0 24 24" xmlns="http://www.w3.org/2000/svg" data-name="Layer 1"><path d="m5.501 15c-.256-.02-.513-.092-.708-.293l-1.893-1.85c-.197-.193-.201-.509-.008-.707.193-.197.51-.201.707-.008l1.4 1.369v-4.011c0-.276.224-.5.5-.5s.5.224.5.5v4.006l1.4-1.363c.198-.193.515-.189.707.008.193.198.189.514-.008.707l-1.896 1.854c-.192.192-.447.289-.702.289zm13.499-4.511 1.4 1.369c.097.095.224.143.35.143.13 0 .26-.05.357-.15.193-.198.189-.514-.008-.707l-1.893-1.85c-.189-.189-.435-.282-.683-.288-.261-.004-.529.086-.727.284l-1.896 1.854c-.197.193-.201.509-.008.707.192.198.51.202.707.008l1.4-1.363v4.006c0 .276.224.5.5.5s.5-.224.5-.5v-4.011zm-14.5 5.511c-.276 0-.5.224-.5.5v3h-2v-3c0-.276-.224-.5-.5-.5s-.5.224-.5.5v7c0 .276.224.5.5.5s.5-.224.5-.5v-3h2v3c0 .276.224.5.5.5s.5-.224.5-.5v-7c0-.276-.224-.5-.5-.5zm-2-8c.276 0 .5-.224.5-.5v-3h2v3c0 .276.224.5.5.5s.5-.224.5-.5v-7c0-.276-.224-.5-.5-.5s-.5.224-.5.5v3h-2v-3c0-.276-.224-.5-.5-.5s-.5.224-.5.5v7c0 .276.224.5.5.5zm6.5 0c-1.103 0-2-.897-2-2v-4c0-1.103.897-2 2-2s2 .897 2 2v4c0 1.103-.897 2-2 2zm1-6c0-.551-.449-1-1-1s-1 .449-1 1v4c0 .551.449 1 1 1s1-.449 1-1zm13 16v4c0 1.103-.897 2-2 2s-2-.897-2-2v-4c0-1.103.897-2 2-2s2 .897 2 2zm-1 0c0-.552-.449-1-1-1s-1 .448-1 1v4c0 .552.449 1 1 1s1-.448 1-1zm-6-10.5c0-.276-.224-.5-.5-.5h-2v-6.5c0-.276-.224-.5-.5-.5s-.5.224-.5.5v6.5c0 .551.449 1 1 1h2c.276 0 .5-.224.5-.5zm1.5 15.5h-2v-6.5c0-.276-.224-.5-.5-.5s-.5.224-.5.5v6.5c0 .552.449 1 1 1h2c.276 0 .5-.224.5-.5s-.224-.5-.5-.5zm-4.5 0h-2v-6.5c0-.276-.224-.5-.5-.5s-.5.224-.5.5v6.5c0 .552.449 1 1 1h2c.276 0 .5-.224.5-.5s-.224-.5-.5-.5zm-4.5-6c.276 0 .5-.224.5-.5s-.224-.5-.5-.5h-1.5c-.551 0-1 .448-1 1v6c0 .552.449 1 1 1h1.5c.276 0 .5-.224.5-.5s-.224-.5-.5-.5h-1.5v-2.5h1.5c.276 0 .5-.224.5-.5s-.224-.5-.5-.5h-1.5v-2.5zm8.51-9.598 1.286-6.317c.117-.595.611-1.087 1.213-1.085.617.003 1.089.471 1.221 1.116l1.287 6.3c.062.303-.174.585-.487.584-.234-.001-.435-.164-.482-.389l-.335-1.611h-2.388l-.326 1.594c-.047.228-.251.392-.487.391h-.019c-.311-.002-.544-.283-.483-.583zm1.519-2.402h1.976l-.767-3.687c-.081-.43-.375-.376-.448-.032l-.76 3.719z"/></svg>