<?xml version="1.0" encoding="UTF-8"?>
<svg xmlns="http://www.w3.org/2000/svg" id="Layer_1" data-name="Layer 1" viewBox="0 0 24 24">
  <path d="M5.5,5c1.379,0,2.5-1.121,2.5-2.5S6.879,0,5.5,0,3,1.121,3,2.5s1.121,2.5,2.5,2.5Zm0-4c.827,0,1.5,.673,1.5,1.5s-.673,1.5-1.5,1.5-1.5-.673-1.5-1.5,.673-1.5,1.5-1.5Zm4.301,13.667c-.317,.895-.978,1.598-1.801,1.989v6.844c0,.276-.224,.5-.5,.5s-.5-.224-.5-.5v-6.539c-.164,.024-.331,.039-.5,.039h-2c-.171,0-.335-.027-.5-.051v6.551c0,.276-.224,.5-.5,.5s-.5-.224-.5-.5v-6.851c-1.178-.564-2-1.758-2-3.149v-4c0-1.93,1.57-3.5,3.5-3.5h1c.276,0,.5,.224,.5,.5s-.224,.5-.5,.5h-1c-1.379,0-2.5,1.121-2.5,2.5v4c0,1.379,1.121,2.5,2.5,2.5h2c1.058,0,2.005-.67,2.357-1.667,.093-.26,.379-.395,.639-.305,.26,.093,.396,.378,.305,.639ZM18.5,5c1.379,0,2.5-1.121,2.5-2.5s-1.121-2.5-2.5-2.5-2.5,1.121-2.5,2.5,1.121,2.5,2.5,2.5Zm0-4c.827,0,1.5,.673,1.5,1.5s-.673,1.5-1.5,1.5-1.5-.673-1.5-1.5,.673-1.5,1.5-1.5Zm4.5,8.5v4c0,1.391-.822,2.585-2,3.149v6.851c0,.276-.224,.5-.5,.5s-.5-.224-.5-.5v-6.551c-.165,.024-.329,.051-.5,.051h-2c-.169,0-.336-.016-.5-.039v6.539c0,.276-.224,.5-.5,.5s-.5-.224-.5-.5v-6.844c-.823-.392-1.484-1.094-1.801-1.989-.092-.261,.045-.546,.305-.639,.261-.093,.545,.044,.639,.305,.353,.997,1.3,1.667,2.357,1.667h2c1.379,0,2.5-1.121,2.5-2.5v-4c0-1.379-1.121-2.5-2.5-2.5h-1c-.276,0-.5-.224-.5-.5s.224-.5,.5-.5h1c1.93,0,3.5,1.57,3.5,3.5Zm-9.25-3.5c-.689,0-1.33,.317-1.75,.796-.42-.479-1.061-.796-1.75-.796-1.24,0-2.25,1.088-2.25,2.425,0,1.57,1.718,3.519,2.801,4.378,.353,.28,.776,.42,1.199,.42s.847-.14,1.199-.42c1.083-.859,2.801-2.808,2.801-4.378,0-1.337-1.01-2.425-2.25-2.425Zm-1.172,6.02c-.34,.27-.816,.27-1.156,0-.977-.775-2.422-2.454-2.422-3.595,0-.785,.561-1.425,1.25-1.425,.704,0,1.25,.567,1.25,1.056,0,.276,.224,.5,.5,.5s.5-.224,.5-.5c0-.488,.546-1.056,1.25-1.056,.689,0,1.25,.64,1.25,1.425,0,1.141-1.445,2.819-2.422,3.595Z"/>
</svg>
