<?xml version="1.0" encoding="UTF-8"?>
<svg xmlns="http://www.w3.org/2000/svg" id="Layer_1" data-name="Layer 1" viewBox="0 0 24 24">
  <path d="m23.989,12.521c-.275,6.437-5.542,11.479-11.989,11.479-4.765,0-9.064-2.832-10.972-7.136-.007.046-.028.088-.028.136v3.5c0,.276-.224.5-.5.5s-.5-.224-.5-.5v-3.5c0-1.103.897-2,2-2h3.5c.276,0,.5.224.5.5s-.224.5-.5.5h-3.5c-.079,0-.149.028-.223.045,1.653,4.175,5.706,6.955,10.223,6.955,5.91,0,10.737-4.621,10.99-10.521.012-.275.249-.477.521-.479.276.013.49.245.478.521Zm-.489-9.521c-.276,0-.5.224-.5.5v3.5c0,.048-.021.09-.028.136C21.064,2.832,16.765,0,12,0,5.553,0,.287,5.042.011,11.479c-.012.276.202.509.478.521h.022c.266,0,.488-.21.499-.479C1.263,5.621,6.09,1,12,1c4.518,0,8.571,2.78,10.223,6.955-.074.017-.144.045-.223.045h-3.5c-.276,0-.5.224-.5.5s.224.5.5.5h3.5c1.103,0,2-.897,2-2v-3.5c0-.276-.224-.5-.5-.5Zm-8.5,4.5v1.5h.5c1.378,0,2.5,1.121,2.5,2.5v6.341c0,.64-.521,1.159-1.16,1.159-.217,0-.432-.062-.62-.182l-2.25-1.818h-2.47c-1.378,0-2.5-1.121-2.5-2.5v-1.165l-1.172.949c-.236.153-.451.216-.668.216-.64,0-1.16-.52-1.16-1.159v-5.841c0-1.379,1.122-2.5,2.5-2.5h4c1.378,0,2.5,1.121,2.5,2.5Zm-6,4.544v-.544c0-1.379,1.122-2.5,2.5-2.5h2.5v-1.5c0-.827-.673-1.5-1.5-1.5h-4c-.827,0-1.5.673-1.5,1.5v5.841c0,.108.096.159.16.159l1.84-1.456Zm6.5-2.044h-4c-.827,0-1.5.673-1.5,1.5v3c0,.827.673,1.5,1.5,1.5h2.647c.115,0,.226.039.315.111l2.34,1.896c.103-.007.198-.058.198-.166v-6.341c0-.827-.673-1.5-1.5-1.5Z"/>
</svg>
