<?xml version="1.0" encoding="UTF-8"?>
<svg xmlns="http://www.w3.org/2000/svg" id="Layer_1" data-name="Layer 1" viewBox="0 0 24 24">
  <path d="M22.552,14.638c-.149-.161-.149-.413,0-.573l1.016-1.098c.503-.542,.503-1.392,0-1.933l-1.017-1.098c-.149-.161-.149-.413,0-.573l1.018-1.099c.501-.542,.501-1.391,0-1.933l-1.067-1.151c-.141-.152-.15-.381-.018-.552l.815-1.096c.234-.301,.267-.697,.084-1.032-.184-.334-.537-.535-.928-.497-2.762,.241-4.737,1.405-6.479,2.433-1.424,.839-2.653,1.563-3.977,1.563s-2.553-.725-3.977-1.563c-1.742-1.027-3.718-2.191-6.48-2.433-.376-.036-.743,.163-.927,.497-.183,.335-.15,.73,.077,1.024l.828,1.111c.127,.164,.117,.393-.024,.545L.431,6.332c-.501,.542-.501,1.391,0,1.933l1.018,1.099c.149,.161,.149,.413,0,.573l-1.016,1.097c-.503,.542-.503,1.392,0,1.933l1.018,1.098c.148,.16,.148,.412,0,.573l-1.019,1.098c-.501,.542-.501,1.392,0,1.934l1.065,1.15c.142,.152,.151,.382,.019,.553l-.816,1.099c-.233,.301-.265,.696-.082,1.031,.182,.334,.534,.537,.927,.496,2.762-.241,4.737-1.406,6.48-2.434,1.423-.84,2.652-1.564,3.976-1.564s2.553,.725,3.976,1.564c1.743,1.027,3.719,2.192,6.481,2.434,.027,.003,.056,.004,.083,.004,.35,0,.674-.19,.843-.5,.183-.335,.151-.73-.076-1.024l-.828-1.113c-.127-.163-.117-.393,.023-.545l1.067-1.15c.501-.542,.501-1.392,0-1.934l-1.017-1.098Zm.284,2.352l-1.067,1.15c-.475,.513-.509,1.285-.087,1.83l.862,1.032c-2.537-.222-4.408-1.325-6.06-2.299-1.485-.876-2.889-1.703-4.484-1.703s-2.999,.827-4.484,1.703c-1.651,.974-3.522,2.077-6.02,2.372l.816-1.098c.428-.553,.394-1.325-.082-1.838l-1.065-1.15c-.149-.161-.149-.413,0-.574l1.019-1.098c.502-.543,.502-1.392,0-1.933l-1.018-1.099c-.148-.16-.148-.412,0-.573l1.017-1.098c.501-.542,.501-1.391,0-1.933l-1.018-1.099c-.149-.161-.149-.413,0-.573l1.065-1.151c.476-.512,.51-1.285,.088-1.83l-.862-1.031c2.537,.222,4.408,1.325,6.06,2.298,1.485,.875,2.889,1.702,4.484,1.702s2.999-.827,4.484-1.702c1.651-.973,3.522-2.076,6.02-2.371l-.816,1.096c-.428,.552-.394,1.325,.081,1.837l1.066,1.151c.149,.161,.149,.413,0,.573l-1.018,1.099c-.501,.542-.501,1.391,0,1.933l1.018,1.098c.148,.16,.148,.412,0,.573l-1.016,1.098c-.503,.541-.503,1.39,0,1.933l1.017,1.098c.149,.161,.149,.413,0,.574Zm-6.836-4.989c0,.276-.224,.5-.5,.5h-7c-.276,0-.5-.224-.5-.5s.224-.5,.5-.5h7c.276,0,.5,.224,.5,.5Z"/>
</svg>
