<?xml version="1.0" encoding="UTF-8"?>
<svg xmlns="http://www.w3.org/2000/svg" id="Layer_1" data-name="Layer 1" viewBox="0 0 24 24">
  <path d="M22,8.012c-.231-2.769-2.85-4.857-3-5-.297-1.401-.497-2.075-1-2-.664,.175-1,1.5-1,3-.011,1.06-.451,1-1,1-.927,0-2-1.5-2-1.5l.073-.578c.193-.578-.135-1.2-.721-1.367l-1.566-.488c-.603-.174-1.265-.006-1.714,.444l-1.072,1.489c-1.083,0-2.136,.382-2.965,1.08-.567,.46-1.065,.953-1.407,1.598l-.598,1.092c-.935,.316-1.865,.706-2.694,1.226-.839,.527-1.336,1.46-1.336,2.451,0,.184,.017,.364,.052,.545,.083,.436,.255,1.269,.41,1.649,.523,1.102,1.538,2.357,1.538,3.857,0,1,.7,1.502,1.419,1.502,.433,0,.873-.182,1.17-.548,2.845,.071,2.933-1.954,5.911-1.952,.786,0,1.389,.122,1.841,.28,.465,.163,.944,.221,1.43,.221,.268,0,.537-.017,.807-.044,.31-.04,.406,.227,.448,.523,.096,.703,.453,1.34,1.057,1.712,.16,.098,.558,.303,.728,.403,.584,.345,1.269,.484,1.937,.39,.346-.049,.733-.107,1.097-.163,.837-.129,1.544-.656,1.958-1.395,1.045-1.862,2.196-3.428,2.196-5.939,0-1.028-1.181-2.867-2-3.487Zm-.618,8.153c-.387,.697-.821,1.591-1.689,1.68-.46,.061-.911,.161-1.359,.18-.628,.024-1.194-.388-1.727-.673-.431-.266-.555-.738-.591-.996-.062-.455-.228-.809-.493-1.053-.439-.47-1.204-.296-1.754-.29-.424,0-.784-.054-1.099-.164-.637-.223-1.367-.337-2.172-.337-1.805,0-2.772,.646-3.548,1.165-.685,.472-1.28,.82-2.364,.787-.301,0-.586,.135-.776,.369-.131,.161-.319,.179-.394,.179-.278,0-.419-.169-.419-.502,0-1.376-.659-2.532-1.189-3.462-.161-.283-.314-.551-.432-.796-.04-.103-.353-1.174-.378-1.794,0-.653,.333-1.267,.868-1.604,.664-.417,1.476-.786,2.483-1.126,.237-.08,.436-.247,.557-.467l.598-1.092c.287-.542,.704-.929,1.174-1.314,.646-.545,1.47-.845,2.32-.845,.322,0,.624-.155,.812-.416l1.015-1.409c.172-.152,.446-.212,.662-.153l1.589,.494c.11,.125-.09,.673-.069,.858-.032,.25,.032,.502,.179,.707,.324,.486,1.639,2.056,3.002,1.919,1.168,0,1.811-.711,1.811-2.001,0-.277,.012-.526,.032-.747,.062,.232,.183,.4,.373,.557,1.535,1.331,2.482,2.888,2.598,4.274,.024,.283,.166,.543,.393,.714,.659,.499,1.604,2.083,1.604,2.69,0,1.888-.75,3.176-1.618,4.666Zm-.385,4.69s0,.006,0,.009c-.075,.712-.296,2.135-1.209,2.135-1.021,0-1.494-.909-1.737-1.747-.134-.46,.167-.934,.64-1.013l1.376-.229c.51-.085,.971,.329,.932,.845Z"/>
</svg>
