<?xml version="1.0" encoding="UTF-8"?>
<svg xmlns="http://www.w3.org/2000/svg" id="Layer_1" data-name="Layer 1" viewBox="0 0 24 24">
  <path d="M16.5,1c-.276,0-.5,.224-.5,.5,0,1.629-.568,3.5-5,3.5H3.5c-1.93,0-3.5,1.57-3.5,3.5v3c0,1.403,.835,2.607,2.03,3.165,.004,.012,.003,.025,.008,.038l2.998,6.756c.415,.936,1.345,1.541,2.369,1.541,.872,0,1.68-.434,2.162-1.161,.481-.727,.565-1.64,.226-2.442l-1.862-4.397h3.07c4.227,0,5,1.179,5,3.5,0,.276,.224,.5,.5,.5s.5-.224,.5-.5V1.5c0-.276-.224-.5-.5-.5ZM1,11.5v-3c0-1.378,1.122-2.5,2.5-2.5h2.5V14H3.5c-1.378,0-2.5-1.122-2.5-2.5Zm7.872,8.287c.212,.5,.162,1.047-.139,1.5-.3,.453-.784,.713-1.328,.713-.629,0-1.2-.372-1.455-.946l-2.697-6.079c.083,.006,.162,.025,.247,.025h3.345l2.027,4.787Zm2.128-5.787H7V6h4c2.374,0,4.034-.551,5-1.618V15.386c-1.027-1.093-2.784-1.386-5-1.386Zm10.511,2.01c-.195,.195-.512,.195-.707,0s-.195-.512,0-.707c2.924-2.924,2.924-7.682,0-10.606-.195-.195-.195-.512,0-.707s.512-.195,.707,0c3.314,3.314,3.314,8.707,0,12.021Zm-.511-6.01c0,1.469-.572,2.851-1.611,3.889-.195,.195-.512,.195-.707,0s-.195-.512,0-.707c.851-.85,1.318-1.98,1.318-3.182s-.468-2.332-1.318-3.182c-.195-.195-.195-.512,0-.707s.512-.195,.707,0c1.039,1.039,1.611,2.42,1.611,3.889Z"/>
</svg>
