<?xml version="1.0" encoding="UTF-8"?>
<svg xmlns="http://www.w3.org/2000/svg" id="Layer_1" data-name="Layer 1" viewBox="0 0 24 24">
  <path d="M22.233,13.156c-.493-1.287-1.75-2.152-3.128-2.153l-4.104-.003h-.004c-.897,0-1.771,.368-2.398,1.011l-2.607,2.672c-.615,.629-.954,1.461-.954,2.342v1.545c0,.843,.314,1.648,.884,2.269l1.91,2.079c.634,.688,1.534,1.083,2.468,1.083h5.089c1.215,0,2.337-.659,2.929-1.721l1.259-2.259c.484-.87,.558-1.902,.202-2.832l-1.545-4.032Zm.47,6.378l-1.259,2.259c-.416,.744-1.203,1.207-2.056,1.207h-5.089c-.656,0-1.288-.277-1.732-.76l-1.909-2.079c-.4-.435-.621-1-.621-1.592v-1.545c0-.618,.238-1.201,.669-1.643h0l2.607-2.672c.44-.451,1.053-.71,1.683-.71h.003l4.104,.003c.967,0,1.85,.608,2.196,1.511l1.545,4.032c.25,.652,.198,1.377-.142,1.988ZM11,7.652v-2.557c0-1.05-.513-2.038-1.372-2.642L6.975,.588c-1.064-.747-2.466-.788-3.569-.097L1.518,1.671c-.95,.595-1.518,1.618-1.518,2.738v3.198c0,1.354,.854,2.573,2.125,3.034l3.2,1.164c1.069,.39,2.29,.181,3.17-.555l1.343-1.118c.738-.615,1.162-1.52,1.162-2.48Zm-3.145,2.831c-.606,.506-1.445,.655-2.188,.383l-3.2-1.164c-.877-.318-1.467-1.16-1.467-2.095v-3.198c0-.773,.392-1.48,1.048-1.891l1.888-1.18c.363-.227,.772-.34,1.182-.34,.449,0,.897,.137,1.282,.407l2.654,1.866c.593,.417,.947,1.099,.947,1.823v2.557c0,.663-.292,1.288-.802,1.713l-1.343,1.118Zm8.342-2.545c.503,.665,1.302,1.062,2.135,1.062h1.694c.711,0,1.38-.275,1.885-.775l1.292-1.278c.726-.718,.979-1.767,.663-2.737l-.77-2.36c-.361-1.105-1.385-1.849-2.548-1.849h-2.702c-.819,0-1.582,.367-2.092,1.006l-1.168,1.459c-.767,.96-.785,2.314-.042,3.294l1.653,2.18Zm-.83-4.849l1.168-1.459c.32-.401,.798-.631,1.312-.631h2.702c.729,0,1.372,.466,1.598,1.159l.771,2.36c.198,.608,.039,1.266-.416,1.716l-1.292,1.278h0c-.316,.313-.736,.486-1.182,.486h-1.694c-.522,0-1.022-.249-1.338-.665l-1.653-2.18c-.465-.614-.454-1.464,.026-2.065ZM4.667,16.419c-.413-.6-1.196-.82-1.861-.525l-1.904,.842c-.548,.243-.902,.787-.902,1.387v1.588c0,.574,.333,1.109,.85,1.362l1.582,.773c.621,.306,1.38,.152,1.832-.391l1.386-1.663c.434-.521,.468-1.274,.083-1.832l-1.064-1.541Zm.213,2.732l-1.385,1.663c-.153,.185-.411,.238-.624,.133l-1.582-.773c-.176-.086-.29-.269-.29-.464v-1.588c0-.204,.121-.39,.307-.473l1.904-.842c.227-.099,.493-.024,.633,.18l1.064,1.541c.131,.189,.12,.446-.028,.623Zm3.12-13.196v1.712c0,.276-.224,.5-.5,.5s-.5-.224-.5-.5v-1.712c0-.163-.08-.315-.213-.409l-1.575-1.107c-.226-.159-.28-.471-.122-.696,.159-.227,.471-.281,.697-.122l1.575,1.107c.399,.281,.637,.74,.637,1.228Zm9,14.545c0,.276-.224,.5-.5,.5h-1.748c-.422,0-.828-.18-1.112-.493l-1.511-1.672c-.185-.205-.169-.521,.036-.706,.205-.184,.521-.17,.707,.036l1.51,1.671c.094,.104,.23,.164,.371,.164h1.748c.276,0,.5,.224,.5,.5Z"/>
</svg>
