<?xml version="1.0" encoding="UTF-8"?>
<svg xmlns="http://www.w3.org/2000/svg" id="Layer_1" data-name="Layer 1" viewBox="0 0 24 24">
  <path d="M12,23.5c0,.276-.224,.5-.5,.5h-.5C5.107,24,.275,19.398,0,13.523c-.014-.276,.2-.51,.476-.523,.278-.01,.511,.2,.522,.476,.251,5.34,4.644,9.523,10.001,9.523h.5c.276,0,.5,.224,.5,.5Zm0-4.5c-3.164,0-5.842-2.112-6.705-5h4.205c.276,0,.5-.224,.5-.5s-.224-.5-.5-.5H5.08c-.047-.328-.08-.66-.08-1v-1.5h4.5c.276,0,.5-.224,.5-.5s-.224-.5-.5-.5H5v-1.5c0-.34,.033-.672,.08-1h4.42c.276,0,.5-.224,.5-.5s-.224-.5-.5-.5H5.295c.863-2.888,3.541-5,6.705-5s5.842,2.112,6.705,5h-4.205c-.276,0-.5,.224-.5,.5s.224,.5,.5,.5h4.42c.047,.328,.08,.66,.08,1v1.5h-4.5c-.276,0-.5,.224-.5,.5s.224,.5,.5,.5h4.5v1.5c0,.157-.006,.313-.016,.467-.018,.276,.191,.514,.467,.532,.25,.014,.513-.19,.531-.466,.012-.176,.018-.354,.018-.533v-4C20,3.589,16.411,0,12,0S4,3.589,4,8v4c0,4.411,3.589,8,8,8,.276,0,.5-.224,.5-.5s-.224-.5-.5-.5Zm11.408-.5c0,.645-.324,1.237-.867,1.584l-5.645,3.616c-.312,.201-.662,.302-1.014,.302-.309,0-.617-.078-.904-.235-.612-.335-.979-.952-.979-1.651v-7.232c0-.699,.366-1.316,.979-1.651,.614-.335,1.33-.311,1.917,.066l5.646,3.617c.543,.347,.867,.939,.867,1.583Zm-1,0c0-.306-.148-.576-.406-.741l-5.646-3.617c-.146-.094-.311-.141-.475-.141-.145,0-.289,.037-.423,.11-.287,.157-.459,.446-.459,.773v7.232c0,.327,.171,.617,.458,.773,.289,.157,.623,.145,.899-.031l5.645-3.616c.258-.166,.406-.436,.406-.743Zm1.115-5.499c-.275-.007-.511,.201-.522,.477-.016,.322-.046,.639-.091,.952-.039,.273,.151,.527,.425,.566,.023,.003,.048,.005,.071,.005,.244,0,.458-.18,.494-.429,.049-.344,.083-.694,.099-1.048,.014-.276-.2-.51-.476-.522Z"/>
</svg>
