<?xml version="1.0" encoding="UTF-8"?>
<svg xmlns="http://www.w3.org/2000/svg" id="Layer_1" data-name="Layer 1" viewBox="0 0 24 24">
  <path d="m14.5,19c-.565,0-1.081.195-1.5.513v-1.013c0-.827.673-1.5,1.5-1.5.431,0,.841.186,1.125.509.183.207.499.227.706.044.207-.183.227-.498.044-.706-.475-.538-1.158-.847-1.875-.847-1.378,0-2.5,1.121-2.5,2.5v3c0,1.379,1.122,2.5,2.5,2.5s2.5-1.121,2.5-2.5-1.122-2.5-2.5-2.5Zm0,4c-.827,0-1.5-.673-1.5-1.5s.673-1.5,1.5-1.5,1.5.673,1.5,1.5-.673,1.5-1.5,1.5Zm7-7c-1.378,0-2.5,1.121-2.5,2.5v3c0,1.379,1.122,2.5,2.5,2.5s2.5-1.121,2.5-2.5v-3c0-1.379-1.122-2.5-2.5-2.5Zm1.5,5.5c0,.827-.673,1.5-1.5,1.5s-1.5-.673-1.5-1.5v-3c0-.827.673-1.5,1.5-1.5s1.5.673,1.5,1.5v3Zm1-18.5v4.5c0,.827-.673,1.5-1.5,1.5h-4.5c-.276,0-.5-.224-.5-.5s.224-.5.5-.5h4.244c-1.639-4.193-5.729-7-10.244-7C5.935,1,1,5.935,1,12c0,5.117,3.62,9.634,8.608,10.739.27.06.439.327.38.597-.052.233-.258.392-.488.392-.036,0-.072-.004-.109-.012C3.95,22.509,0,17.582,0,12,0,5.383,5.383,0,12,0c4.773,0,9.109,2.876,11,7.216V3c0-.276.224-.5.5-.5s.5.224.5.5Zm-11.5,10h-6c-.276,0-.5-.224-.5-.5s.224-.5.5-.5h5.5v-6.5c0-.276.224-.5.5-.5s.5.224.5.5v7c0,.276-.224.5-.5.5Z"/>
</svg>
