<svg id="Layer_1" viewBox="0 0 24 24" xmlns="http://www.w3.org/2000/svg" data-name="Layer 1"><path d="m22.405 19.195c.271 1.009.595 2.575.595 4.305 0 .276-.224.5-.5.5s-.5-.224-.5-.5c0-1.621-.305-3.095-.561-4.045-.292-1.082-.439-2.23-.439-3.414v-4.683c0-1.239.169-2.469.504-3.653.559-1.98 1.496-5.55 1.496-7.205 0-.276.224-.5.5-.5s.5.224.5.5c0 1.686-.834 4.996-1.533 7.476-.31 1.097-.467 2.234-.467 3.382v4.683c0 1.095.136 2.156.405 3.154zm-21.405-18.695c0-.276-.224-.5-.5-.5s-.5.224-.5.5c0 1.686.834 4.996 1.534 7.476.31 1.097.466 2.234.466 3.382v4.683c0 1.095-.136 2.156-.405 3.154-.271 1.009-.595 2.575-.595 4.305 0 .276.224.5.5.5s.5-.224.5-.5c0-1.621.305-3.095.561-4.045.292-1.082.439-2.23.439-3.414v-4.683c0-1.239-.169-2.469-.504-3.653-.559-1.981-1.496-5.551-1.496-7.205zm11 11.5c-.552 0-1 .448-1 1s.448 1 1 1 1-.448 1-1-.448-1-1-1zm0 5c-.552 0-1 .448-1 1s.448 1 1 1 1-.448 1-1-.448-1-1-1zm0 5c-.552 0-1 .448-1 1s.448 1 1 1 1-.448 1-1-.448-1-1-1zm0-18c-.552 0-1 .448-1 1s.448 1 1 1 1-.448 1-1-.448-1-1-1zm0 4c-.552 0-1 .448-1 1s.448 1 1 1 1-.448 1-1-.448-1-1-1zm0-8c-.552 0-1 .448-1 1s.448 1 1 1 1-.448 1-1-.448-1-1-1zm5.382 16.979-1.382-.772v-1.639c0-.395-.218-.752-.569-.933s-.768-.149-1.107.091l-1.131.879c-.218.169-.257.483-.087.702.17.217.484.259.702.087l1.193-.827v1.932c0 .181.098.348.256.437l1.659.926c.074.037.085.102.085.137s-.011.1-.105.148l-1.639.916c-.158.088-.256.255-.256.437l-.024 2.012-1.169-.907c-.217-.169-.531-.129-.701.089-.169.218-.129.532.089.701l1.185.919c.314.224.724.253 1.065.077.343-.177.556-.526.556-.912v-1.686l1.362-.762c.394-.197.638-.592.638-1.032s-.244-.835-.618-1.021zm-10.277.873 1.639-.916c.158-.088.256-.255.256-.437l.062-1.985 1.131.879c.219.171.534.13.702-.087.17-.218.13-.532-.087-.702l-1.147-.892c-.322-.23-.739-.261-1.09-.079-.351.181-.569.538-.569.933v1.639l-1.362.762c-.394.197-.638.592-.638 1.032s.244.835.618 1.021l1.382.772v1.686c0 .386.213.735.556.912.35.179.755.144 1.081-.089l1.169-.907c.218-.169.258-.483.089-.701-.169-.219-.483-.258-.701-.089l-1.194.874v-1.979c0-.181-.098-.348-.256-.437l-1.659-.926c-.074-.037-.085-.102-.085-.137s.011-.1.105-.148z"/></svg>