<svg id="Layer_1" viewBox="0 0 24 24" xmlns="http://www.w3.org/2000/svg" data-name="Layer 1"><path d="m16.935 11.599 1.953-7.002c.466-1.727-.544-3.487-2.298-4.008-2.563-.76-6.617-.76-9.18 0-1.754.521-2.764 2.281-2.298 4.008 0 0 1.911 7.078 1.917 7.096-1.01 2.673-2.03 5.839-2.03 7.735 0 4.019 3.364 4.572 7 4.572s7-.554 7-4.572c0-1.918-1.044-5.137-2.065-7.829zm-10.858-7.262c-.322-1.199.388-2.424 1.618-2.789 2.381-.707 6.229-.707 8.609 0 1.23.365 1.94 1.59 1.619 2.785l-1.595 5.717c-.167-.414-.327-.802-.474-1.154-.416-.995-1.311-1.683-2.354-1.852v-1.543c0-.827-.673-1.5-1.5-1.5s-1.5.673-1.5 1.5v1.543c-1.043.169-1.938.857-2.354 1.852-.158.376-.33.796-.51 1.244l-1.558-5.801zm5.423 1.163c0-.276.225-.5.5-.5s.5.224.5.5v4c0 .276-.225.5-.5.5s-.5-.224-.5-.5zm.5 17.5c-3.704 0-6-.598-6-3.572 0-2.552 2.146-7.946 3.067-10.147.26-.619.798-1.051 1.433-1.207v1.426c0 .827.673 1.5 1.5 1.5s1.5-.673 1.5-1.5v-1.426c.635.156 1.173.588 1.433 1.207.922 2.201 3.067 7.595 3.067 10.146 0 2.975-2.296 3.572-6 3.572zm1.5-5h-3c-.827 0-1.5.673-1.5 1.5s.673 1.5 1.5 1.5h3c.827 0 1.5-.673 1.5-1.5s-.673-1.5-1.5-1.5zm0 2h-3c-.275 0-.5-.225-.5-.5s.225-.5.5-.5h3c.275 0 .5.225.5.5s-.225.5-.5.5z"/></svg>