<svg id="Layer_1" viewBox="0 0 24 24" xmlns="http://www.w3.org/2000/svg" data-name="Layer 1"><path d="m12.045 6c1.657 0 2.955-1.317 2.955-3s-1.298-3-2.955-3c-1.679 0-3.045 1.346-3.045 3s1.366 3 3.045 3zm0-5c1.097 0 1.955.879 1.955 2s-.858 2-1.955 2c-1.127 0-2.045-.897-2.045-2s.917-2 2.045-2zm-5.045 13.5v-1.5c0-2.757 2.279-5 5.081-5 2.758 0 4.919 2.196 4.919 5v1.5c0 .276-.224.5-.5.5s-.5-.224-.5-.5v-1.5c0-2.243-1.722-4-3.919-4-2.25 0-4.081 1.794-4.081 4v1.5c0 .276-.224.5-.5.5s-.5-.224-.5-.5zm14.958 8.585c-.146.547-.624.915-1.19.915h-7.268c-.276 0-.5-.224-.5-.5s.224-.5.5-.5h7.268c.257-.026.325-.282.115-.433l-5.146-4.137-2.64 1.316c-.697.34-1.494.341-2.189.002l-2.644-1.318-5.08 4.093c-.289.193-.233.426.049.477h7.268c.276 0 .5.224.5.5s-.224.5-.5.5h-7.269c-1.229.046-1.7-1.731-.611-2.3l4.657-3.76-5.002-2.492c-.247-.123-.348-.423-.225-.67.124-.247.424-.349.671-.225l8.626 4.299c.411.199.888.201 1.306-.002l8.622-4.297c.246-.124.547-.023.67.225.123.247.022.547-.225.67l-5.001 2.492 4.722 3.805c.427.236.659.794.514 1.341z"/></svg>