<svg id="Layer_1" viewBox="0 0 24 24" xmlns="http://www.w3.org/2000/svg" data-name="Layer 1"><path d="m0 7.5c0-.276.224-.5.5-.5h1.525c.104-1.141.555-2.183 1.251-3.017l-1.13-1.13c-.195-.195-.195-.512 0-.707s.512-.195.707 0l1.13 1.13c.834-.695 1.875-1.147 3.017-1.251v-1.525c0-.276.224-.5.5-.5s.5.224.5.5v1.544c1.128.104 2.175.537 3.014 1.235l1.132-1.132c.195-.195.512-.195.707 0s.195.512 0 .707l-1.135 1.135c.569.681.986 1.499 1.172 2.412.055.271-.12.535-.391.589-.266.053-.534-.119-.59-.39-.431-2.062-2.283-3.59-4.41-3.6-2.468.009-4.491 2.032-4.5 4.5 0 1.79 1.06 3.409 2.7 4.126.253.11.368.405.258.658-.111.256-.412.368-.658.258-.484-.211-.924-.49-1.317-.817l-1.129 1.129c-.195.195-.512.195-.707 0s-.195-.512 0-.707l1.133-1.133c-.702-.844-1.14-1.89-1.243-3.014h-1.536c-.276 0-.5-.224-.5-.5zm15 6.5c0 .552.448 1 1 1s1-.448 1-1-.448-1-1-1-1 .448-1 1zm3-3c0 .552.448 1 1 1s1-.448 1-1-.448-1-1-1-1 .448-1 1zm-14 7c-.552 0-1 .448-1 1s.448 1 1 1 1-.448 1-1-.448-1-1-1zm3 3c-.552 0-1 .448-1 1s.448 1 1 1 1-.448 1-1-.448-1-1-1zm16.5 2h-5c-2.592 0-5.139-2.264-7.602-4.453-2.516-2.235-5.115-4.547-7.898-4.547-.874 0-1.762.22-2.715.673-.249.119-.355.417-.236.666.117.25.416.354.666.237.815-.388 1.563-.576 2.285-.576 2.402 0 4.749 2.086 7.233 4.294 2.603 2.313 5.294 4.706 8.267 4.706h5c.276 0 .5-.224.5-.5s-.224-.5-.5-.5zm-15.253-10.026c-.238.139-.318.446-.179.684.142.24.45.317.685.178 1.55-.908 3.057-2.247 4.514-3.542 2.484-2.208 4.831-4.294 7.233-4.294.856 0 1.759.268 2.759.819.239.132.545.046.679-.197.134-.242.046-.546-.196-.679-1.151-.634-2.212-.943-3.241-.943-2.782 0-5.383 2.312-7.898 4.547-1.42 1.263-2.89 2.568-4.354 3.427z"/></svg>