<?xml version="1.0" encoding="UTF-8"?>
<svg xmlns="http://www.w3.org/2000/svg" id="Layer_1" data-name="Layer 1" viewBox="0 0 24 24">
  <path d="M24,9.5c0,3.009-1.383,5.774-3.794,7.585-1.147,.863-2.101,2.069-2.833,3.585-.45,.933-1.116,1.713-1.979,2.32-.957,.673-2.076,1.006-3.212,1.006-1.314,0-2.653-.446-3.793-1.328-.271-.209-.521-.431-.747-.661-.193-.197-.19-.514,.007-.708,.198-.193,.514-.19,.708,.007,.194,.198,.409,.389,.644,.57,1.775,1.373,4.112,1.493,5.818,.295,.722-.508,1.278-1.16,1.653-1.937,.802-1.662,1.855-2.991,3.132-3.95,2.158-1.621,3.396-4.095,3.396-6.786,0-2.417-1.034-4.728-2.838-6.339-1.829-1.635-4.189-2.384-6.65-2.105-1.939,.218-3.768,1.133-5.151,2.576-.191,.2-.508,.207-.707,.015-.2-.191-.207-.507-.015-.707C9.183,1.329,11.229,.306,13.4,.062c2.749-.308,5.385,.528,7.429,2.354,2.015,1.801,3.171,4.384,3.171,7.085Zm-11.6,5.51c-.271,.055-.445,.319-.391,.59,.048,.237,.257,.4,.49,.4,.033,0,.066-.003,.1-.01,1.491-.303,2.539-1.751,2.385-3.298-.15-1.509-1.523-2.692-3.126-2.692h-.358c-.276,0-.5,.224-.5,.5s.224,.5,.5,.5h.358c1.095,0,2.032,.788,2.132,1.792,.104,1.042-.595,2.016-1.59,2.218Zm6.6-5.509c0,.276,.224,.5,.5,.5s.5-.224,.5-.5c0-3.033-2.468-5.5-5.5-5.5-2.103,0-3.999,1.165-4.946,3.04-.125,.247-.026,.547,.221,.672,.247,.125,.548,.026,.672-.221,.765-1.513,2.356-2.491,4.054-2.491,2.481,0,4.5,2.019,4.5,4.5ZM1.438,8.602c-.195-.195-.512-.195-.707,0s-.195,.512,0,.707c1.721,1.721,1.721,4.52,0,6.241-.466,.452,.255,1.172,.707,.707,2.11-2.11,2.11-5.544,0-7.655Zm2.109-2.109c-.195-.195-.512-.195-.707,0s-.195,.512,0,.707c2.883,2.883,2.883,7.575,0,10.458-.466,.452,.255,1.172,.707,.707,3.273-3.273,3.273-8.599,0-11.873Zm2.115-2.115c-.195-.195-.512-.195-.707,0s-.195,.512,0,.707c4.049,4.049,4.049,10.638,0,14.688-.466,.452,.255,1.172,.707,.707,4.439-4.439,4.439-11.663,0-16.102Z"/>
</svg>
