<svg id="Layer_1" viewBox="0 0 24 24" xmlns="http://www.w3.org/2000/svg" data-name="Layer 1"><path d="m21.248 12.123 2.241-4.383c.334-.714.511-1.509.511-2.299 0-2.993-2.436-5.429-5.429-5.429h-13.142c-2.993 0-5.429 2.436-5.429 5.429 0 .789.176 1.584.518 2.314l2.233 4.368c-1.591.573-2.752 2.943-2.752 5.865 0 3.364 1.538 6 3.5 6h2c.991 0 1.873-.674 2.504-1.773.884.787 2.322 1.773 3.996 1.773s3.123-.995 3.996-1.772c.631 1.098 1.513 1.772 2.504 1.772h2c1.963 0 3.5-2.636 3.5-6 0-2.922-1.16-5.292-2.752-5.865zm-17.748 10.865c-1.355 0-2.5-2.29-2.5-5s1.145-5 2.5-5 2.5 2.29 2.5 5-1.145 5-2.5 5zm1.959 0c.936-1.066 1.541-2.889 1.541-5s-.606-3.934-1.541-5c1.4-.029 2.533 2.27 2.541 5 0 2.71-1.186 5-2.541 5zm10.095-1.726c-.714.684-2.045 1.726-3.554 1.726s-2.826-1.028-3.554-1.727c.35-.936.554-2.056.554-3.273s-.204-2.337-.554-3.273c.728-.698 2.051-1.727 3.554-1.727s2.84 1.042 3.554 1.726c-.35.936-.554 2.056-.554 3.274s.204 2.337.554 3.274zm-3.554-9.274c-1.674 0-3.112.986-3.996 1.773-.631-1.099-1.513-1.773-2.504-1.773h-1.694l-2.389-4.672c-.272-.583-.417-1.232-.417-1.875 0-2.442 1.987-4.429 4.429-4.429h13.143c2.442 0 4.429 1.987 4.429 4.429 0 .644-.145 1.292-.409 1.859l-2.397 4.688h-1.694c-.991 0-1.873.673-2.504 1.772-.873-.776-2.319-1.772-3.996-1.772zm4 6c.008-2.73 1.141-5.028 2.541-5-.936 1.066-1.541 2.889-1.541 5s.605 3.934 1.541 5c-1.4.028-2.533-2.271-2.541-5zm4.5 5c-1.355 0-2.5-2.29-2.5-5s1.145-5 2.5-5 2.5 2.29 2.5 5-1.145 5-2.5 5z"/></svg>