<svg id="Layer_1" viewBox="0 0 24 24" xmlns="http://www.w3.org/2000/svg" data-name="Layer 1"><path d="m22.5 8h-.528c-.25-2.247-2.16-4-4.472-4h-13c-2.481 0-4.5 2.019-4.5 4.5v7c0 2.481 2.019 4.5 4.5 4.5h13c2.312 0 4.223-1.753 4.472-4h.528c.827 0 1.5-.673 1.5-1.5v-5c0-.827-.673-1.5-1.5-1.5zm.5 6.5c0 .276-.224.5-.5.5h-1c-.276 0-.5.224-.5.5 0 1.93-1.57 3.5-3.5 3.5h-13c-1.93 0-3.5-1.57-3.5-3.5v-7c0-1.93 1.57-3.5 3.5-3.5h13c1.93 0 3.5 1.57 3.5 3.5 0 .276.224.5.5.5h1c.276 0 .5.224.5.5zm-9.75-6.5c-.983 0-1.773.359-2.25.967-.477-.608-1.267-.967-2.25-.967-1.517 0-2.75 1.314-2.75 2.93 0 1.895 2.085 4.368 3.399 5.481.464.394 1.032.59 1.601.59.568 0 1.137-.196 1.601-.59 1.314-1.114 3.399-3.587 3.399-5.481 0-1.616-1.233-2.93-2.75-2.93zm-1.295 7.649c-.554.469-1.355.469-1.909 0-1.228-1.041-3.045-3.261-3.045-4.719 0-1.064.785-1.93 1.75-1.93.411 0 1.75.108 1.75 1.5 0 .276.224.5.5.5s.5-.224.5-.5c0-1.392 1.339-1.5 1.75-1.5.965 0 1.75.866 1.75 1.93 0 1.458-1.817 3.678-3.045 4.719z"/></svg>