<svg id="Layer_1" viewBox="0 0 24 24" xmlns="http://www.w3.org/2000/svg" data-name="Layer 1"><path d="m16.145 3.76c-.195-.195-.195-.512 0-.707l2.487-2.487c.365-.366.811-.566 1.369-.566.515 0 1 .202 1.364.566l2.487 2.487c.195.195.195.512 0 .707s-.512.195-.707 0l-2.487-2.487c-.176-.176-.365-.289-.659-.273-.25 0-.483.097-.66.273l-2.487 2.487c-.195.195-.512.195-.707 0zm7 3.479-2.487 2.487c-.176.176-.409.272-.658.273-.25 0-.484-.096-.661-.273l-2.487-2.487c-.195-.195-.512-.195-.707 0s-.195.512 0 .707l2.487 2.487c.365.365.85.566 1.367.566h.002c.515 0 1-.202 1.364-.566l2.487-2.487c.195-.195.195-.512 0-.707s-.512-.195-.707 0zm-8.145 3.26v6c0 4.136-3.364 7.5-7.5 7.5s-7.5-3.363-7.5-7.499v-6c0-3.033 2.467-5.5 5.5-5.5h1.5v-4.5c0-.276.224-.5.5-.5s.5.224.5.5v4.5h1.5c3.033 0 5.5 2.467 5.5 5.5zm-14 0v1.5h6v-5.999h-1.5c-2.481 0-4.5 2.019-4.5 4.5zm13 6v-3.5h-13v3.5c0 3.584 2.916 6.5 6.5 6.5s6.5-2.916 6.5-6.5zm0-6c0-2.481-2.019-4.5-4.5-4.5h-1.5v6h6z"/></svg>