<?xml version="1.0" encoding="UTF-8"?>
<svg xmlns="http://www.w3.org/2000/svg" id="Layer_1" data-name="Layer 1" viewBox="0 0 24 24">
  <path d="M16.29,7.568c.439-.73,.173-1.685-.573-2.091,.044-.325,.044-.628,0-.953,.746-.407,1.013-1.361,.573-2.092-.439-.736-1.414-.95-2.124-.476-.208-.148-.431-.274-.666-.376,.041-.854-.643-1.581-1.5-1.579-.827,0-1.5,.673-1.5,1.5v.079c-.235,.103-.458,.229-.666,.376-.711-.473-1.686-.259-2.124,.477-.439,.73-.173,1.685,.573,2.091-.044,.325-.044,.628,0,.953-.746,.407-1.013,1.361-.573,2.092,.438,.735,1.414,.949,2.124,.476,.208,.148,.431,.273,.666,.376-.041,.854,.643,1.581,1.5,1.579,.857,.002,1.541-.725,1.5-1.579,.235-.103,.458-.229,.666-.376,.711,.473,1.685,.26,2.124-.477Zm-1.54-2.568c0,.194-.024,.395-.076,.613-.049,.212,.044,.432,.23,.543l.355,.212c.236,.142,.313,.45,.173,.686-.142,.237-.449,.315-.687,.172l-.362-.217c-.186-.11-.423-.09-.586,.053-.276,.242-.597,.423-.952,.538-.206,.067-.346,.259-.346,.476v.423c0,.276-.225,.5-.5,.5s-.5-.224-.5-.5v-.423c0-.217-.14-.409-.346-.476-.355-.115-.676-.296-.952-.538-.093-.082-.211-.124-.329-.124-.089,0-.177,.023-.257,.071l-.362,.217c-.237,.141-.544,.064-.687-.173-.141-.236-.063-.544,.173-.686l.355-.212c.187-.111,.279-.331,.23-.543-.102-.439-.102-.787,0-1.227,.049-.212-.044-.432-.23-.543l-.355-.212c-.236-.142-.313-.45-.173-.686,.143-.237,.449-.315,.687-.172l.362,.217c.188,.111,.424,.091,.586-.053,.276-.241,.597-.423,.953-.539,.205-.067,.345-.259,.345-.476v-.423c0-.276,.225-.5,.5-.5s.5,.224,.5,.5v.423c0,.216,.14,.408,.345,.476,.356,.116,.677,.297,.953,.539,.162,.144,.399,.164,.586,.053l.362-.217c.237-.142,.545-.064,.687,.173,.141,.236,.063,.544-.173,.686l-.355,.212c-.187,.111-.279,.331-.23,.543,.052,.218,.076,.419,.076,.613ZM3.5,20c1.103,0,2-.897,2-2s-.897-2-2-2-2,.897-2,2,.897,2,2,2Zm0-3c.552,0,1,.449,1,1s-.448,1-1,1-1-.449-1-1,.448-1,1-1Zm3.781-5.23c.087,.262-.055,.545-.317,.632-.255,.086-.545-.053-.632-.317l-.673-2.024c-.425,.916-.659,1.921-.659,2.939,0,.157,.006,.313,.016,.467,.018,.276-.191,.514-.467,.532-.011,0-.021,0-.033,0-.261,0-.48-.203-.498-.467-.012-.176-.018-.354-.018-.533,0-1.122,.251-2.229,.703-3.247l-1.78,.821c-.247,.114-.547,.006-.663-.245-.115-.251-.006-.548,.245-.664l2.308-1.064c.31-.138,.661-.142,.971-.011,.319,.134,.567,.396,.68,.719l.818,2.46Zm9.388-.008c.151-.232,.461-.295,.692-.144l1.616,1.061c-.055-1.213-.407-2.387-1.055-3.412-.147-.233-.078-.542,.156-.69,.229-.146,.54-.079,.689,.156,.726,1.149,1.125,2.463,1.2,3.821l.979-1.929c.126-.247,.425-.346,.673-.22,.246,.125,.345,.426,.22,.672l-1.168,2.302c-.309,.621-1.154,.851-1.732,.471l-2.127-1.396c-.23-.151-.295-.461-.144-.692Zm4.831,4.238h-3c-1.379,0-2.5,1.122-2.5,2.5v3c0,1.378,1.121,2.5,2.5,2.5h3c1.379,0,2.5-1.122,2.5-2.5v-3c0-1.378-1.121-2.5-2.5-2.5Zm1.5,5.5c0,.827-.673,1.5-1.5,1.5h-3c-.827,0-1.5-.673-1.5-1.5v-3c0-.827,.673-1.5,1.5-1.5h3c.827,0,1.5,.673,1.5,1.5v3Zm-1.5-3c0,.276-.224,.5-.5,.5h-2c-.276,0-.5-.224-.5-.5s.224-.5,.5-.5h2c.276,0,.5,.224,.5,.5Zm-14.532,4.825c.098,.258-.034,.546-.292,.644-.252,.096-.547-.031-.644-.293-.376-1.002-1.394-1.675-2.532-1.675s-2.156,.673-2.532,1.675c-.097,.259-.383,.388-.644,.293-.258-.097-.39-.385-.292-.644,.521-1.391,1.914-2.325,3.468-2.325s2.947,.934,3.468,2.325Zm7.022-3.074c.055,.271-.12,.534-.391,.589-.523,.106-1.062,.16-1.6,.16-.892,0-1.759-.151-2.59-.436l1.204,1.764c.155,.228,.097,.539-.131,.695-.226,.154-.538,.099-.695-.131l-1.487-2.178c-.187-.282-.248-.627-.173-.954,.08-.338,.297-.626,.596-.792l2.312-1.227c.244-.129,.546-.037,.676,.208s.037,.547-.207,.676l-1.815,.963c1.187,.415,2.476,.524,3.711,.272,.271-.055,.535,.12,.59,.391Zm-.99-15.251c0,.552-.448,1-1,1s-1-.448-1-1,.448-1,1-1,1,.448,1,1Z"/>
</svg>
