<svg id="Layer_1" viewBox="0 0 24 24" xmlns="http://www.w3.org/2000/svg" data-name="Layer 1"><path d="m8.5 20c.276 0 .5.224.5.5s-.224.5-.5.5h-3c-.276 0-.5-.224-.5-.5s.224-.5.5-.5zm2-3h-9.5v-12.5c0-1.93 1.57-3.5 3.5-3.5h4c.276 0 .5-.224.5-.5s-.224-.5-.5-.5h-4c-2.481 0-4.5 2.019-4.5 4.5v15c0 2.481 2.019 4.5 4.5 4.5h4c.276 0 .5-.224.5-.5s-.224-.5-.5-.5h-4c-1.93 0-3.5-1.57-3.5-3.5v-1.5h9.5c.276 0 .5-.224.5-.5s-.224-.5-.5-.5zm13.5-.5v4c0 1.93-1.57 3.5-3.5 3.5h-8.214c-.972.067-1.665-1.237-1.061-2.012l1.775-2.167v-3.321c0-1.93 1.57-3.5 3.5-3.5h4c1.93 0 3.5 1.57 3.5 3.5zm-1 0c0-1.379-1.121-2.5-2.5-2.5h-4c-1.379 0-2.5 1.121-2.5 2.5v3.5c0 .115-.04.228-.113.317l-1.868 2.278c-.053.194.004.368.251.404h8.23c1.379 0 2.5-1.121 2.5-2.5v-4zm1-13v4c0 1.93-1.57 3.5-3.5 3.5h-4c-1.93 0-3.5-1.57-3.5-3.5v-3.321l-1.755-2.141c-.621-.802.035-2.112 1.057-2.038h8.198c1.93 0 3.5 1.569 3.5 3.499zm-1 0c0-1.378-1.121-2.5-2.5-2.5h-8.214c-.255.043-.34.2-.247.432l1.848 2.252c.073.089.113.201.113.317v3.5c0 1.378 1.121 2.5 2.5 2.5h4c1.379 0 2.5-1.122 2.5-2.5zm-1.5 13.5c.276 0 .5-.224.5-.5s-.224-.5-.5-.5h-2.5v-.5c0-.276-.224-.5-.5-.5s-.5.224-.5.5v.5h-2.5c-.276 0-.5.224-.5.5s.224.5.5.5h4.464c-.089.725-.397 2.073-1.461 3.003-.483-.426-.863-.984-1.13-1.682-.099-.259-.389-.387-.646-.288-.258.099-.387.388-.288.646.24.629.626 1.302 1.204 1.881-.568.27-1.268.44-2.142.44-.276 0-.5.224-.5.5s.224.5.5.5c1.277 0 2.248-.307 3.001-.767.753.458 1.722.767 2.999.767.276 0 .5-.224.5-.5s-.224-.5-.5-.5c-.826 0-1.538-.152-2.146-.44 1.169-1.176 1.512-2.763 1.607-3.56h.539zm-1.346-13.471.935 4.877c.052.271-.126.533-.397.585-.267.049-.533-.126-.585-.397l-.21-1.094h-2.851l-.228 1.102c-.055.272-.328.444-.591.388-.271-.056-.444-.321-.388-.591l1.016-4.907c.12-.616.711-1.492 1.646-1.492.891 0 1.506.769 1.654 1.529zm-.449 2.971-.533-2.781c-.044-.224-.273-.719-.672-.719-.378 0-.626.486-.665.689l-.582 2.811z"/></svg>