<svg id="Layer_1" viewBox="0 0 24 24" xmlns="http://www.w3.org/2000/svg" data-name="Layer 1"><path d="m23.854 23.146-6.449-6.449c1.607-1.775 2.596-4.12 2.596-6.697-.001-5.514-4.487-10-10.001-10s-10 4.486-10 10 4.486 10 10 10c2.577 0 4.922-.989 6.697-2.596l6.449 6.449c.195.195.512.195.707 0s.195-.512 0-.707zm-22.854-13.146c0-4.963 4.038-9 9-9s9 4.037 9 9-4.037 9-9 9-9-4.037-9-9zm11.5-4v-.5c0-.827-.673-1.5-1.5-1.5h-2c-.827 0-1.5.673-1.5 1.5v.5c-1.378 0-2.5 1.121-2.5 2.5v3c0 1.379 1.122 2.5 2.5 2.5h5c1.379 0 2.5-1.121 2.5-2.5v-3c0-1.379-1.121-2.5-2.5-2.5zm-4-.5c0-.275.224-.5.5-.5h2c.276 0 .5.225.5.5v.5h-3zm-1 1.5h5c.827 0 1.5.673 1.5 1.5v.5h-8v-.5c0-.827.673-1.5 1.5-1.5zm5 6h-5c-.827 0-1.5-.673-1.5-1.5v-1.5h3.5v.5c0 .276.224.5.5.5s.5-.224.5-.5v-.5h3.5v1.5c0 .827-.673 1.5-1.5 1.5z"/></svg>