<svg id="Layer_1" viewBox="0 0 24 24" xmlns="http://www.w3.org/2000/svg" data-name="Layer 1"><path d="m11 9.827v.315c-1.72.447-3 2-3 3.858 0 2.206 1.794 4 4 4s4-1.794 4-4c0-1.858-1.28-3.411-3-3.858v-.315c0-.457-.37-.827-.827-.827h-.346c-.457 0-.827.37-.827.827zm4 4.173c0 1.654-1.346 3-3 3s-3-1.346-3-3 1.346-3 3-3 3 1.346 3 3zm-3.062-6.016c-.268-.069-.429-.341-.36-.609.227-.881.915-1.569 1.796-1.797.268-.067.54.092.609.359.069.268-.092.54-.359.609-.529.136-.942.549-1.078 1.077-.068.27-.348.428-.609.36zm3.379-2.478.866-.328.347-.867c.076-.19.26-.314.464-.314s.388.125.464.314l.349.872.872.349c.19.076.314.26.314.464s-.125.388-.314.464l-.872.349-.349.872c-.076.19-.26.314-.464.314s-.388-.125-.464-.314l-.351-.877-.879-.37c-.188-.079-.31-.265-.306-.47.004-.204.132-.386.323-.458zm8.621 6.493c0 1.202-.468 2.332-1.318 3.182l-7.438 7.439c-.877.877-2.03 1.315-3.182 1.315s-2.305-.438-3.182-1.315l-7.439-7.438c-.85-.85-1.317-1.98-1.317-3.182s.468-2.332 1.318-3.182l7.438-7.439c1.755-1.754 4.609-1.754 6.364 0l.575.575c.195.195.195.512 0 .707s-.512.195-.707 0l-.575-.575c-1.364-1.364-3.585-1.364-4.95 0l-7.439 7.439c-.661.661-1.025 1.541-1.025 2.475s.364 1.813 1.025 2.475l7.438 7.439c1.364 1.363 3.585 1.363 4.95 0l7.438-7.439c.661-.661 1.025-1.54 1.025-2.475s-.364-1.814-1.025-2.475l-1.267-1.267c-.195-.195-.195-.512 0-.707s.512-.195.707 0l1.267 1.267c.85.85 1.318 1.98 1.318 3.182z"/></svg>