<?xml version="1.0" encoding="UTF-8"?>
<svg xmlns="http://www.w3.org/2000/svg" id="Layer_1" data-name="Layer 1" viewBox="0 0 24 24">
  <path d="m12,0C5.383,0,0,5.383,0,12s5.383,12,12,12,12-5.383,12-12S18.617,0,12,0Zm0,23c-6.065,0-11-4.935-11-11S5.935,1,12,1s11,4.935,11,11-4.935,11-11,11Z"/>
  <path d="m17.317,6.67c-.628-.625-1.59-.825-2.637-.547-.012.003-8.097,2.776-8.097,2.776-.987.383-1.608,1.316-1.583,2.377.025,1.06.689,1.962,1.729,2.309l2.989.748.959,3.132c.392.95,1.265,1.535,2.285,1.535h.042c1.039-.017,1.912-.633,2.286-1.631l2.586-8.051c.273-1.056.07-2.021-.561-2.648Zm-.399,2.369l-2.569,8.001c-.262.696-.873.952-1.358.959-.503-.005-1.104-.229-1.371-.872l-1.025-3.358c-.052-.168-.187-.296-.357-.339l-3.226-.806c-.727-.243-.998-.869-1.01-1.373-.013-.505.229-1.144.926-1.414l8.026-2.753c.688-.179,1.293-.072,1.659.293.371.37.479.985.306,1.661Z"/>
</svg>
