<?xml version="1.0" encoding="UTF-8"?>
<svg xmlns="http://www.w3.org/2000/svg" id="Layer_1" data-name="Layer 1" viewBox="0 0 24 24">
  <path d="M14.296,4.783c-.642-1.331-2.109-2.047-3.571-1.742C5.397,4.155,2.094,7.936,.599,10.089c-.794,1.143-.794,2.679,0,3.821,1.434,2.16,5.472,6.533,10.8,7.119,1.221,0,2.355-.686,2.898-1.812,1.13-2.348,1.703-4.776,1.703-7.217s-.573-4.869-1.704-7.217Zm.704,7.217c0,.586-.034,1.165-.102,1.739-.982,.078-1.898-.725-1.898-1.739s.917-1.812,1.898-1.739c.067,.574,.102,1.153,.102,1.739Zm-.279-2.747c-1.503,.016-2.721,1.24-2.721,2.747s1.218,2.731,2.721,2.747c-.132,.701-.305,1.398-.541,2.093-2.368-.361-4.18-2.408-4.18-4.84s1.812-4.479,4.18-4.84c.236,.694,.409,1.392,.541,2.093Zm-1.325,9.53c-.442,.917-1.455,1.41-2.465,1.198-4.99-1.044-8.101-4.609-9.511-6.641-.557-.802-.557-1.879,0-2.681,1.367-2.029,4.987-6.024,9.978-6.689,.843,0,1.625,.472,1.998,1.246,.16,.333,.283,.665,.419,.997-2.742,.525-4.815,2.935-4.815,5.787s2.072,5.262,4.815,5.787c-.136,.332-.259,.664-.419,.996Zm10.307-7.573c.436,.436,.436,1.145,0,1.581l-2.063,2.063c-.195,.195-.512,.195-.707,0s-.195-.512,0-.707l1.646-1.646h-4.079c-.276,0-.5-.224-.5-.5s.224-.5,.5-.5h4.079l-1.646-1.646c-.195-.195-.195-.512,0-.707s.512-.195,.707,0l2.063,2.063Zm0,7.5c.436,.436,.436,1.145,0,1.581l-2.063,2.063c-.195,.195-.512,.195-.707,0s-.195-.512,0-.707l1.646-1.646h-6.079c-.276,0-.5-.224-.5-.5s.224-.5,.5-.5h6.079l-1.646-1.646c-.195-.195-.195-.512,0-.707s.512-.195,.707,0l2.063,2.063Zm-7.703-14.209c0-.276,.224-.5,.5-.5h6.079l-1.646-1.646c-.195-.195-.195-.512,0-.707s.512-.195,.707,0l2.063,2.063c.436,.436,.436,1.145,0,1.581l-2.063,2.063c-.195,.195-.512,.195-.707,0s-.195-.512,0-.707l1.646-1.646h-6.079c-.276,0-.5-.224-.5-.5Z"/>
</svg>
