<?xml version="1.0" encoding="UTF-8"?>
<svg xmlns="http://www.w3.org/2000/svg" id="Layer_1" data-name="Layer 1" viewBox="0 0 24 24">
  <path d="M23.902,15.997c-.311-1.591-1.428-2.867-2.902-3.519v-1.478c0-4.963-4.038-9-9-9S3,6.037,3,11v1.424c-1.763,.774-3,2.531-3,4.576,0,2.757,2.244,5,5.193,5,.996,0,1.807-.811,1.807-1.807v-6.387c0-.996-.811-1.807-1.807-1.807-.342,0-.87,.035-1.193,.101v-1.101C4,6.589,7.589,3,12,3s8,3.589,8,8v1.147c-.386-.086-.782-.147-1.193-.147-.996,0-1.807,.811-1.807,1.807v7.193h-3c0-.552-.448-1-1-1s-1,.448-1,1c0,.483,.35,.867,.805,.961,.06,.025,.126,.039,.195,.039h6c1.5,0,2.907-.664,3.861-1.823,.954-1.158,1.333-2.682,1.041-4.18ZM5.193,13c.445,0,.807,.362,.807,.807v6.387c0,.444-.362,.807-.807,.807-2.347,0-4.193-1.794-4.193-4s1.897-4,4.193-4Zm16.896,6.541c-.764,.927-1.89,1.459-3.089,1.459h-1v-7.193c0-.444,.362-.807,.807-.807,2.023,0,3.753,1.341,4.114,3.188,.235,1.204-.068,2.426-.831,3.353Z"/>
</svg>
