<?xml version="1.0" encoding="UTF-8"?>
<svg xmlns="http://www.w3.org/2000/svg" id="Layer_1" data-name="Layer 1" viewBox="0 0 24 24">
  <path d="M24,18.5c0,1.93-1.57,3.5-3.5,3.5H9.5c-.276,0-.5-.224-.5-.5s.224-.5,.5-.5h11c1.379,0,2.5-1.121,2.5-2.5s-1.121-2.5-2.5-2.5H12.5c-1.93,0-3.5-1.57-3.5-3.5s1.57-3.5,3.5-3.5h3c.276,0,.5,.224,.5,.5s-.224,.5-.5,.5h-3c-1.379,0-2.5,1.122-2.5,2.5s1.121,2.5,2.5,2.5h8c1.93,0,3.5,1.57,3.5,3.5Zm-6-9V1.484c0-.469,.226-.916,.604-1.197,.552-.441,1.266-.298,1.852-.009l2.813,1.258c.955,.589,.959,2.001,.079,2.597l-4.348,2.175v3.191c0,.276-.224,.5-.5,.5s-.5-.224-.5-.5Zm1-4.309l3.841-1.917c.212-.157,.215-.72-.06-.869l-2.734-1.214c-.251-.103-.617-.299-.848-.101-.125,.093-.199,.24-.199,.394v3.707ZM1,16.5c0-1.379,1.121-2.5,2.5-2.5s2.5,1.121,2.5,2.5-1.121,2.5-2.5,2.5-2.5-1.121-2.5-2.5Zm1,0c0,.827,.673,1.5,1.5,1.5s1.5-.673,1.5-1.5-.673-1.5-1.5-1.5-1.5,.673-1.5,1.5Zm1.5,3.5c-1.93,0-3.5,1.57-3.5,3.5,0,.276,.224,.5,.5,.5s.5-.224,.5-.5c0-1.379,1.121-2.5,2.5-2.5s2.5,1.121,2.5,2.5c0,.276,.224,.5,.5,.5s.5-.224,.5-.5c0-1.93-1.57-3.5-3.5-3.5Z"/>
</svg>
