<?xml version="1.0" encoding="UTF-8"?>
<svg xmlns="http://www.w3.org/2000/svg" id="Layer_1" data-name="Layer 1" viewBox="0 0 24 24">
  <path d="M24,12v.5c0,.276-.224,.5-.5,.5s-.5-.224-.5-.5v-.5c0-6.065-4.935-11-11-11C7.485,1,3.395,3.807,1.756,8h3.744c.276,0,.5,.224,.5,.5s-.224,.5-.5,.5H1.5c-.827,0-1.5-.673-1.5-1.5V3.5c0-.276,.224-.5,.5-.5s.5,.224,.5,.5v3.716C2.892,2.876,7.227,0,12,0c6.617,0,12,5.383,12,12Zm-12.5,1c.276,0,.5-.224,.5-.5V6c0-.276-.224-.5-.5-.5s-.5,.224-.5,.5v6H6c-.276,0-.5,.224-.5,.5s.224,.5,.5,.5h5.5Zm-2.848,9.481c-4.375-1.396-7.446-5.416-7.642-10.002-.012-.275-.222-.51-.521-.478-.275,.012-.49,.245-.479,.521,.215,5.004,3.564,9.39,8.337,10.913,.051,.016,.103,.023,.152,.023,.212,0,.408-.135,.477-.348,.084-.263-.062-.544-.324-.628Zm7.049-3.16c.489-.457,.799-1.101,.799-1.821,0-1.378-1.121-2.5-2.5-2.5h-2.5c-.276,0-.5,.224-.5,.5s.224,.5,.5,.5h2.5c.827,0,1.5,.673,1.5,1.5s-.673,1.5-1.5,1.5h-1.5c-.276,0-.5,.224-.5,.5s.224,.5,.5,.5h2c.827,0,1.5,.673,1.5,1.5s-.673,1.5-1.5,1.5h-3c-.276,0-.5,.224-.5,.5s.224,.5,.5,.5h3c1.379,0,2.5-1.122,2.5-2.5,0-.941-.529-1.752-1.299-2.179Zm8.299-1.321v3c0,1.654-1.346,3-3,3s-3-1.346-3-3v-3c0-1.654,1.346-3,3-3s3,1.346,3,3Zm-1,0c0-1.103-.897-2-2-2s-2,.897-2,2v3c0,1.103,.897,2,2,2s2-.897,2-2v-3Z"/>
</svg>
