<?xml version="1.0" encoding="UTF-8"?>
<svg xmlns="http://www.w3.org/2000/svg" id="Layer_1" data-name="Layer 1" viewBox="0 0 24 24">
  <path d="M8,10h3.853c1.602,0,2.978-1.181,3.131-2.688,.087-.846-.188-1.692-.757-2.321-.568-.63-1.38-.991-2.227-.991h-4c-.552,0-1,.449-1,1v4c0,.551,.448,1,1,1Zm0-5h4c.564,0,1.105,.241,1.484,.662,.384,.425,.563,.976,.505,1.549-.103,1.003-1.041,1.789-2.137,1.789h-3.853V5Zm7,9h-7c-.552,0-1,.449-1,1v4c0,.551,.448,1,1,1h6.853c1.602,0,2.978-1.181,3.131-2.688,.087-.846-.188-1.692-.757-2.321-.568-.63-1.38-.991-2.227-.991Zm-.147,5h-6.853v-4h7c.564,0,1.105,.241,1.484,.662,.384,.425,.563,.976,.505,1.549-.103,1.003-1.041,1.789-2.137,1.789Zm3.102-8.337h0c1.296-2.098,1.396-4.661,.266-6.857-1.188-2.312-3.739-3.806-6.497-3.806H7.5C5.019,0,3,2.019,3,4.5v15c0,2.481,2.019,4.5,4.5,4.5h7.211c3.177,0,5.958-1.914,6.919-4.764,1.139-3.374-.442-7.06-3.676-8.573Zm2.729,8.254c-.824,2.442-3.224,4.083-5.972,4.083H7.5c-1.93,0-3.5-1.57-3.5-3.5V4.5c0-1.93,1.57-3.5,3.5-3.5h4.223c2.388,0,4.589,1.281,5.608,3.263,.968,1.882,.883,4.078-.247,5.909-.173,.336-.206,.641-.097,.905,.069,.168,.229,.394,.543,.492,2.772,1.298,4.128,4.457,3.152,7.349Z"/>
</svg>
