<svg id="Layer_1" viewBox="0 0 24 24" xmlns="http://www.w3.org/2000/svg" data-name="Layer 1"><path d="m19.5 6h-.681c-.636 0-1.178.415-1.39 1h-10.858c-.212-.585-.754-1-1.39-1h-.68c-2.482 0-4.501 2.019-4.501 4.5v3c0 2.481 2.019 4.5 4.5 4.5h15c2.481 0 4.5-2.019 4.5-4.5v-3c0-2.481-2.019-4.5-4.5-4.5zm-12.49 3-.2-1h2.28l.2 1zm9.741 1c-.212.585-.753 1-1.391 1h-6.721c-.637 0-1.179-.415-1.391-1h9.502zm.239-1h-2.28l.2-1h2.28zm-3.1-1-.2 1h-3.379l-.2-1h3.78zm9.11 5.5c0 1.93-1.57 3.5-3.5 3.5h-15c-1.93 0-3.5-1.57-3.5-3.5v-3c0-1.93 1.57-3.5 3.5-3.5h.68c.238 0 .444.169.49.402l.518 2.588c.233 1.165 1.264 2.01 2.452 2.01h6.721c1.188 0 2.219-.845 2.451-2.01l.518-2.588c.047-.233.253-.402.49-.402h.681c1.93 0 3.5 1.57 3.5 3.5v3z"/></svg>