<svg id="Layer_1" viewBox="0 0 24 24" xmlns="http://www.w3.org/2000/svg" data-name="Layer 1"><path d="m19.5 0h-15c-2.481 0-4.5 2.019-4.5 4.5v11c0 2.481 2.019 4.5 4.5 4.5h.5v.5c0 1.93 1.57 3.5 3.5 3.5h7c1.93 0 3.5-1.57 3.5-3.5v-.5h.5c2.481 0 4.5-2.019 4.5-4.5v-11c0-2.481-2.019-4.5-4.5-4.5zm-1.5 20.5c0 1.379-1.122 2.5-2.5 2.5h-7c-1.378 0-2.5-1.121-2.5-2.5v-5.5h3.18c-.116.32-.18.656-.18 1 0 1.654 1.346 3 3 3s3-1.346 3-3c0-.344-.064-.68-.18-1h3.18zm-4-4.5c0 1.103-.897 2-2 2s-2-.897-2-2c0-.352.095-.692.277-1h3.446c.182.308.277.648.277 1zm9-.5c0 1.93-1.57 3.5-3.5 3.5h-.5v-4.5c0-.276-.224-.5-.5-.5h-13c-.276 0-.5.224-.5.5v4.5h-.5c-1.93 0-3.5-1.57-3.5-3.5v-11c0-1.93 1.57-3.5 3.5-3.5h15c1.93 0 3.5 1.57 3.5 3.5zm-12.5-11.5h-5c-.827 0-1.5.673-1.5 1.5v4c0 .827.673 1.5 1.5 1.5h5c.827 0 1.5-.673 1.5-1.5v-4c0-.827-.673-1.5-1.5-1.5zm.5 5.5c0 .275-.224.5-.5.5h-5c-.276 0-.5-.225-.5-.5v-4c0-.275.224-.5.5-.5h5c.276 0 .5.225.5.5zm5-5c0 .276-.224.5-.5.5h-1c-.276 0-.5-.224-.5-.5s.224-.5.5-.5h1c.276 0 .5.224.5.5zm4 0c0 .276-.224.5-.5.5h-1c-.276 0-.5-.224-.5-.5s.224-.5.5-.5h1c.276 0 .5.224.5.5zm-4 3c0 .276-.224.5-.5.5h-1c-.276 0-.5-.224-.5-.5s.224-.5.5-.5h1c.276 0 .5.224.5.5zm4 0c0 .276-.224.5-.5.5h-1c-.276 0-.5-.224-.5-.5s.224-.5.5-.5h1c.276 0 .5.224.5.5zm-4 3c0 .276-.224.5-.5.5h-1c-.276 0-.5-.224-.5-.5s.224-.5.5-.5h1c.276 0 .5.224.5.5zm4 0c0 .276-.224.5-.5.5h-1c-.276 0-.5-.224-.5-.5s.224-.5.5-.5h1c.276 0 .5.224.5.5zm-11 10.5c0 .552-.448 1-1 1s-1-.448-1-1 .448-1 1-1 1 .448 1 1zm8 0c0 .552-.448 1-1 1s-1-.448-1-1 .448-1 1-1 1 .448 1 1z"/></svg>