<svg id="Layer_1" viewBox="0 0 24 24" xmlns="http://www.w3.org/2000/svg" data-name="Layer 1"><path d="m24 6.5v10.101c0 2.004-.78 3.887-2.197 5.303l-1.95 1.95c-.195.195-.512.195-.707 0s-.195-.512 0-.707l1.95-1.95c1.228-1.228 1.904-2.859 1.904-4.596v-10.101c0-.827-.673-1.5-1.5-1.5s-1.5.673-1.5 1.5v8c-.03.569-.188 1.139-.584 1.601l-2.638 2.746c-.192.199-.508.205-.707.014s-.205-.508-.014-.707l2.616-2.721c.461-.553.43-1.396-.054-1.935-.524-.611-1.523-.663-2.112-.116l-2.73 2.512c-.521.479-.925 1.053-1.228 1.692.29.745.452 1.542.452 2.355v3.56c0 .276-.224.5-.5.5s-.5-.224-.5-.5v-3.56c0-1.534-.647-3.009-1.776-4.047l-2.734-2.516c-.583-.542-1.588-.489-2.108.12-.494.551-.507 1.394-.032 1.96l2.593 2.695c.191.199.185.516-.014.707-.2.193-.516.185-.707-.014l-2.616-2.721c-.412-.476-.564-1.051-.607-1.626v-7.999c0-.827-.673-1.5-1.5-1.5s-1.5.673-1.5 1.5v10.101c0 1.736.676 3.368 1.904 4.596l1.95 1.95c.195.195.195.512 0 .707s-.512.195-.707 0l-1.95-1.95c-1.417-1.416-2.197-3.299-2.197-5.303v-10.101c0-1.378 1.122-2.5 2.5-2.5s2.5 1.122 2.5 2.5v5.997c.391-.294.86-.466 1.359-.493.669-.044 1.306.188 1.803.634l2.739 2.52c.43.395.793.848 1.098 1.336.306-.489.669-.94 1.1-1.336l2.734-2.516c.501-.45 1.134-.681 1.807-.638.499.027.968.199 1.359.493v-5.997c0-1.378 1.122-2.5 2.5-2.5s2.5 1.122 2.5 2.5zm-16.64.487.234-.137c-.064-.3-.094-.576-.094-.85s.03-.551.094-.85l-.234-.137c-.703-.394-.957-1.367-.532-2.053.419-.712 1.339-.95 2.053-.533l.223.131c.408-.34.881-.606 1.396-.786v-.271c0-.827.673-1.5 1.5-1.5s1.5.673 1.5 1.5v.271c.515.18.988.446 1.396.786l.223-.131c.714-.419 1.634-.18 2.053.533.424.687.17 1.659-.533 2.053l-.234.137c.064.3.094.576.094.85s-.03.551-.094.85l.234.137c.703.394.957 1.367.532 2.053-.418.713-1.339.952-2.053.533l-.223-.131c-.408.34-.881.606-1.396.786v.271c0 .827-.673 1.5-1.5 1.5s-1.5-.673-1.5-1.5v-.271c-.515-.18-.988-.446-1.396-.786l-.223.131c-.714.419-1.634.179-2.053-.533-.424-.687-.17-1.659.533-2.053zm1.063.536-.556.327c-.235.131-.318.455-.178.684.131.235.456.32.685.178l.541-.318c.079-.046.167-.069.253-.069.129 0 .258.05.354.147.429.43.983.742 1.603.903.221.057.375.256.375.484v.642c0 .276.224.5.5.5s.5-.224.5-.5v-.642c0-.228.154-.427.375-.484.619-.161 1.173-.473 1.603-.903.161-.162.411-.194.607-.078l.541.318c.228.142.553.057.684-.178.141-.229.058-.553-.177-.684l-.556-.327c-.196-.115-.29-.349-.228-.568.103-.361.151-.664.151-.955s-.048-.594-.151-.955c-.062-.219.031-.453.228-.568l.556-.327c.235-.131.318-.455.178-.684-.131-.235-.457-.32-.685-.178l-.541.318c-.196.115-.446.083-.607-.078-.43-.43-.984-.743-1.603-.903-.221-.057-.375-.256-.375-.484v-.642c0-.276-.224-.5-.5-.5s-.5.224-.5.5v.642c0 .228-.154.427-.375.484-.619.16-1.173.473-1.603.903-.162.162-.411.193-.607.078l-.541-.318c-.227-.141-.554-.057-.684.178-.141.229-.058.553.177.684l.556.327c.196.115.29.349.228.568-.103.361-.151.664-.151.955s.048.594.151.955c.062.219-.031.453-.228.568zm4.223-.169c.098.098.226.146.354.146s.256-.049.354-.146c.195-.195.195-.512 0-.707l-.854-.854v-1.293c0-.276-.224-.5-.5-.5s-.5.224-.5.5v1.5c0 .133.053.26.146.354z"/></svg>