<svg id="Layer_1" viewBox="0 0 24 24" xmlns="http://www.w3.org/2000/svg" data-name="Layer 1"><path d="m24 6.5v8c0 2.481-2.019 4.5-4.5 4.5h-7v4h5c.276 0 .5.224.5.5s-.224.5-.5.5h-11c-.276 0-.5-.224-.5-.5s.224-.5.5-.5h5v-4h-7c-2.481 0-4.5-2.019-4.5-4.5v-8c0-1.636.889-3.145 2.32-3.938.241-.131.545-.047.68.195.134.241.046.546-.195.68-1.113.617-1.805 1.79-1.805 3.062v8.001c0 1.93 1.57 3.5 3.5 3.5h15c1.93 0 3.5-1.57 3.5-3.5v-8c0-1.246-.671-2.408-1.75-3.032-.239-.138-.321-.443-.182-.683.138-.239.443-.322.683-.183 1.388.802 2.25 2.296 2.25 3.897zm-19.516 8.499c.277.02.513-.19.532-.466.104-1.572.73-2.996 1.699-4.112l1.043 1.043c.195.195.512.195.707 0s.195-.512 0-.707l-1.039-1.04c1.113-.965 2.528-1.583 4.075-1.693v1.476c0 .276.224.5.5.5s.5-.224.5-.5v-1.476c3.449.247 6.254 3.013 6.484 6.509.017.275.259.484.532.466.276-.019.484-.256.466-.532-.276-4.187-3.782-7.467-7.982-7.467-4.2.004-7.701 3.291-7.982 7.467-.018.276.19.514.466.532zm11.37-3.853c-.195-.195-.512-.195-.707 0l-2.13 2.13c-.307-.166-.649-.276-1.017-.276-.881 0-1.671.532-1.968 1.324-.097.259.034.547.293.644.26.101.547-.034.644-.292.151-.404.566-.676 1.032-.676s.88.271 1.032.676c.096.26.392.389.644.292.259-.097.39-.385.293-.644-.051-.136-.134-.253-.213-.373l2.098-2.098c.195-.195.195-.512 0-.707zm.146-6.646v-3c0-.827.673-1.5 1.5-1.5s1.5.673 1.5 1.5v3c0 .276-.224.5-.5.5s-.5-.224-.5-.5v-1h-1v1c0 .276-.224.5-.5.5s-.5-.224-.5-.5zm1-3v1h1v-1c0-.276-.224-.5-.5-.5s-.5.224-.5.5zm-7 3.5h.808c.276 0 .5-.224.5-.5s-.224-.5-.5-.5h-.808v-1h.808c.276 0 .5-.224.5-.5s-.224-.5-.5-.5h-.808v-1h.808c.276 0 .5-.224.5-.5s-.224-.5-.5-.5h-.808c-.551 0-1 .449-1 1v3c0 .552.449 1 1 1zm2.5-4h.5v3.5c0 .276.224.5.5.5s.5-.224.5-.5v-3.5h.5c.276 0 .5-.224.5-.5s-.224-.5-.5-.5h-2c-.276 0-.5.224-.5.5s.224.5.5.5zm-7.5 3v-3c0-.551.449-1 1-1h.5c.827 0 1.5.673 1.5 1.5 0 .384-.145.734-.383 1 .238.266.383.616.383 1 0 .827-.673 1.5-1.5 1.5h-.5c-.551 0-1-.448-1-1zm1-2h.5c.276 0 .5-.224.5-.5s-.224-.5-.5-.5h-.5zm0 2h.5c.276 0 .5-.225.5-.5s-.224-.5-.5-.5h-.5z"/></svg>