<svg id="Layer_1" viewBox="0 0 24 24" xmlns="http://www.w3.org/2000/svg" data-name="Layer 1"><path d="m11 2c0-.341.381-.896.673-1.271.166-.213.489-.213.655 0 .292.375.672.93.672 1.271 0 .552-.448 1-1 1s-1-.448-1-1zm3.539 1c.552 0 1-.448 1-1 0-.341-.381-.896-.673-1.271-.166-.213-.489-.213-.655 0-.292.375-.672.93-.672 1.271 0 .552.448 1 1 1zm2.462 0c.552 0 1-.448 1-1 0-.341-.381-.896-.673-1.271-.166-.213-.489-.213-.655 0-.292.375-.672.93-.672 1.271 0 .552.448 1 1 1zm2.5 0c.552 0 1-.448 1-1 0-.341-.381-.896-.673-1.271-.166-.213-.489-.213-.655 0-.292.375-.672.93-.672 1.271 0 .552.448 1 1 1zm-16.501-1c0-.341-.381-.896-.673-1.271-.166-.213-.489-.213-.655 0-.292.375-.672.93-.672 1.271 0 .552.448 1 1 1s1-.448 1-1zm4 1c.552 0 1-.448 1-1 0-.341-.381-.896-.673-1.271-.166-.213-.489-.213-.655 0-.292.375-.672.93-.672 1.271 0 .552.448 1 1 1zm-2.5 0c.552 0 1-.448 1-1 0-.341-.381-.896-.673-1.271-.166-.213-.489-.213-.655 0-.292.375-.672.93-.672 1.271 0 .552.448 1 1 1zm5 0c.552 0 1-.448 1-1 0-.341-.381-.896-.673-1.271-.166-.213-.489-.213-.655 0-.292.375-.672.93-.672 1.271 0 .552.448 1 1 1zm12.828-2.271c-.166-.213-.489-.213-.655 0-.292.375-.672.93-.672 1.271 0 .552.448 1 1 1s1-.448 1-1c0-.341-.381-.896-.673-1.271zm-.328 4.271c-.276 0-.5.224-.5.5v.5c0 5.07-3.995 9.212-9 9.475v-1.509c4.176-.26 7.497-3.731 7.497-7.972v-.493c0-.276-.224-.5-.5-.5s-.5.224-.5.5v.493c0 3.69-2.872 6.714-6.497 6.972v-1.5c2.797-.254 4.997-2.61 4.997-5.472v-.493c0-.276-.224-.5-.5-.5s-.5.224-.5.5v.493c0 2.309-1.755 4.194-3.997 4.447v-1.5c1.416-.24 2.5-1.466 2.5-2.949v-.491c0-.276-.224-.5-.5-.5s-.5.224-.5.5v.491c0 .929-.64 1.705-1.5 1.929v-2.42c0-.276-.224-.5-.5-.5s-.5.224-.5.5v2.42c-.86-.224-1.5-1-1.5-1.929v-.491c0-.276-.224-.5-.5-.5s-.5.224-.5.5v.491c0 1.483 1.084 2.71 2.5 2.949v1.5c-2.242-.253-3.997-2.138-3.997-4.447v-.493c0-.276-.225-.5-.5-.5-.276 0-.5.224-.5.5v.493c0 2.862 2.2 5.218 4.998 5.472v1.5c-3.625-.258-6.497-3.283-6.497-6.973v-.493c0-.276-.225-.5-.5-.5-.276 0-.5.224-.5.5v.493c0 4.241 3.321 7.712 7.498 7.972v1.509c-5.005-.263-9-4.405-9-9.475v-.5c0-.276-.224-.5-.5-.5s-.5.224-.5.5v.5c0 5.621 4.443 10.211 10 10.475v6.525h-5.002c-.276 0-.5.224-.5.5s.224.5.5.5h11c.276 0 .5-.224.5-.5s-.224-.5-.5-.5h-5v-6.525c5.557-.264 10-4.854 10-10.475v-.5c0-.276-.224-.5-.5-.5z"/></svg>