<svg id="Layer_1" viewBox="0 0 24 24" xmlns="http://www.w3.org/2000/svg" data-name="Layer 1"><path d="m11.5 1h-7c-1.93 0-3.5 1.57-3.5 3.5v15c0 1.93 1.57 3.5 3.5 3.5h8c.276 0 .5.224.5.5s-.224.5-.5.5h-8c-2.481 0-4.5-2.019-4.5-4.5v-15c0-2.481 2.019-4.5 4.5-4.5h7c2.481 0 4.5 2.019 4.5 4.5v2c0 .276-.224.5-.5.5s-.5-.224-.5-.5v-2c0-1.93-1.57-3.5-3.5-3.5zm-5 12h-2c-.276 0-.5.224-.5.5s.224.5.5.5h2c.276 0 .5-.224.5-.5s-.224-.5-.5-.5zm5 0h-2c-.276 0-.5.224-.5.5s.224.5.5.5h2c.276 0 .5-.224.5-.5s-.224-.5-.5-.5zm-5 4h-2c-.276 0-.5.224-.5.5s.224.5.5.5h2c.276 0 .5-.224.5-.5s-.224-.5-.5-.5zm5 0h-2c-.276 0-.5.224-.5.5s.224.5.5.5h2c.276 0 .5-.224.5-.5s-.224-.5-.5-.5zm-5-12h-2c-.276 0-.5.224-.5.5s.224.5.5.5h2c.276 0 .5-.224.5-.5s-.224-.5-.5-.5zm5 0h-2c-.276 0-.5.224-.5.5s.224.5.5.5h2c.276 0 .5-.224.5-.5s-.224-.5-.5-.5zm-5 4h-2c-.276 0-.5.224-.5.5s.224.5.5.5h2c.276 0 .5-.224.5-.5s-.224-.5-.5-.5zm5 0h-2c-.276 0-.5.224-.5.5s.224.5.5.5h2c.276 0 .5-.224.5-.5s-.224-.5-.5-.5zm12.5 4.305c-.007.734-.431 1.369-1.106 1.656l-6.894 2.663v5.876c0 .276-.224.5-.5.5s-.5-.224-.5-.5v-12.496c0-.638.293-1.223.805-1.604.514-.383 1.163-.497 1.776-.315.313.093.622.208.925.343l4.437 2.213c.651.29 1.064.932 1.058 1.665zm-1-.009c.003-.335-.178-.616-.484-.752l-4.437-2.213c-.329-.13-.703-.315-1.075-.331-.534-.01-1.018.465-1.004 1.004v5.548l6.519-2.518c.293-.125.479-.403.481-.738z"/></svg>