<?xml version="1.0" encoding="UTF-8"?>
<svg xmlns="http://www.w3.org/2000/svg" id="Layer_1" data-name="Layer 1" viewBox="0 0 24 24">
  <path d="M14.325,9h-4.631c-1.187,0-2.273,.825-2.641,2.005-.215,.637,.223,1.366,.869,1.529,.512,.14,1.934,.466,4.065,.466s3.573-.332,4.092-.474c.643-.164,1.082-.889,.869-1.526-.365-1.178-1.444-2-2.623-2Zm1.488,2.562c-.479,.131-1.812,.438-3.826,.438s-3.328-.301-3.802-.431c-.113-.035-.21-.134-.178-.266,.239-.768,.932-1.303,1.686-1.303h4.631c.745,0,1.432,.533,1.668,1.295,.018,.057-.111,.248-.18,.267ZM23.159,2.012c-.44-.084-.846,.129-1.007,.532-.835,2.072-2.295,4.092-3.291,5.192-.289,.319-.783,.354-1.104,.076-.947-.826-2.456-1.811-4.257-1.811h-3c-1.801,0-3.309,.985-4.257,1.811-.32,.277-.815,.244-1.104-.076-.996-1.098-2.456-3.117-3.292-5.191-.162-.404-.566-.615-1.007-.532-.487,.094-.841,.51-.841,.988v7c0,4.309,3.782,9.363,9.198,12.29,.877,.474,1.839,.711,2.802,.711s1.924-.237,2.801-.711c5.417-2.928,9.199-7.981,9.199-12.29V3c0-.479-.354-.894-.841-.988Zm-.159,7.988c0,3.237-2.715,8.189-8.674,11.41-1.457,.787-3.195,.787-4.652,0C3.714,18.189,1,13.237,1,10l.031-6.816c.898,2.102,2.359,4.111,3.367,5.224,.652,.719,1.774,.791,2.501,.158,.819-.714,2.109-1.565,3.6-1.565h3c1.491,0,2.781,.851,3.601,1.565,.726,.632,1.85,.561,2.501-.158,1.021-1.127,2.503-3.17,3.398-5.296v6.889Z"/>
</svg>
