<?xml version="1.0" encoding="UTF-8"?>
<svg xmlns="http://www.w3.org/2000/svg" id="Layer_1" data-name="Layer 1" viewBox="0 0 24 24">
  <path d="M22,5.25c0-3.386-3.551-5.25-10-5.25S2,1.864,2,5.25c0,1.286,.781,3.561,2.385,6.951-.907,1.436-1.385,3.089-1.385,4.799,0,1.895,.583,3.708,1.687,5.242,.792,1.101,2.126,1.758,3.571,1.758h7.484c1.445,0,2.779-.657,3.57-1.758,1.104-1.534,1.688-3.348,1.688-5.242,0-1.71-.478-3.363-1.385-4.799,1.604-3.391,2.385-5.666,2.385-6.951Zm-2,11.75c0,1.684-.519,3.295-1.5,4.658-.604,.84-1.635,1.342-2.758,1.342h-7.484c-1.124,0-2.155-.502-2.759-1.342-.98-1.363-1.499-2.975-1.499-4.658,0-1.606,.474-3.155,1.372-4.48,.1-.147,.114-.335,.037-.496-1.991-4.168-2.409-5.984-2.409-6.774C3,1.552,8.639,1,12,1s9,.552,9,4.25c0,.79-.418,2.606-2.409,6.774-.077,.16-.062,.349,.037,.496,.897,1.325,1.372,2.874,1.372,4.48Zm-2.734-12.301c-.84-.319-2.435-.699-5.265-.699s-4.433,.382-5.272,.702c-.497,.189-.756,.716-.603,1.225,.185,.615,.548,1.671,1.225,3.208,.22,.499,.791,.728,1.299,.522,2.149-.87,4.552-.871,6.703,0,.492,.203,1.079-.018,1.298-.522,.679-1.543,1.038-2.598,1.22-3.21,.152-.51-.107-1.037-.604-1.225Zm-1.54,4.03c-2.389-.968-5.055-.97-7.461,.002-.656-1.49-1.005-2.504-1.18-3.095,.761-.291,2.231-.636,4.916-.636s4.148,.345,4.91,.639c-.173,.585-.519,1.597-1.185,3.09Zm-2.793,4.377c-1.22-.278-2.469,.002-3.426,.766s-1.507,1.904-1.507,3.128c0,.752,.211,1.485,.611,2.121,.341,.542,.978,.879,1.661,.879h3.46c.687,0,1.301-.321,1.643-.859,.554-.868,.748-1.914,.545-2.945-.297-1.509-1.498-2.751-2.988-3.089Zm1.599,5.497c-.155,.245-.462,.396-.8,.396h-3.46c-.343,0-.655-.158-.815-.412-.299-.476-.458-1.024-.458-1.588,0-.918,.412-1.773,1.13-2.347,.536-.427,1.194-.651,1.876-.651,.233,0,.47,.026,.705,.079,1.111,.253,2.006,1.18,2.228,2.308,.153,.777,.008,1.563-.407,2.215Z"/>
</svg>
