<?xml version="1.0" encoding="UTF-8"?>
<svg xmlns="http://www.w3.org/2000/svg" id="Layer_1" data-name="Layer 1" viewBox="0 0 24 24">
  <path d="M12,10c-1.103,0-2,.897-2,2s.897,2,2,2,2-.897,2-2-.897-2-2-2Zm0,3c-.551,0-1-.449-1-1s.449-1,1-1,1,.449,1,1-.449,1-1,1ZM.146,.854C-.049,.658-.049,.342,.146,.146S.658-.049,.854,.146L8.989,8.282l.011-4.783c0-.276,.225-.499,.5-.499h0c.276,0,.5,.225,.499,.501l-.012,5.012c0,.82-.667,1.487-1.488,1.487H3.5c-.276,0-.5-.224-.5-.5s.224-.5,.5-.5h4.793L.146,.854Zm13.865,7.658l-.012-5.011c0-.276,.223-.5,.499-.501h0c.275,0,.5,.223,.5,.499l.011,4.783L23.146,.146c.195-.195,.512-.195,.707,0s.195,.512,0,.707L15.707,9h4.793c.276,0,.5,.224,.5,.5s-.224,.5-.5,.5h-5c-.821,0-1.488-.667-1.488-1.488Zm-4.012,6.988v5c0,.276-.224,.5-.5,.5s-.5-.224-.5-.5v-4.793L.854,23.854c-.098,.098-.226,.146-.354,.146s-.256-.049-.354-.146c-.195-.195-.195-.512,0-.707L8.282,15.011l-4.783-.011c-.276,0-.5-.225-.499-.501s.225-.499,.5-.499h0l5.012,.012c.82,0,1.487,.668,1.487,1.488Zm13.854,7.646c.195,.195,.195,.512,0,.707-.098,.098-.226,.146-.354,.146s-.256-.049-.354-.146L15.011,15.718l-.011,4.783c0,.276-.225,.499-.5,.499h0c-.276,0-.5-.225-.499-.501l.012-5.012c0-.819,.667-1.487,1.488-1.487h5c.276,0,.5,.224,.5,.5s-.224,.5-.5,.5h-4.793l8.146,8.146Z"/>
</svg>
