<svg id="Layer_1" viewBox="0 0 24 24" xmlns="http://www.w3.org/2000/svg" data-name="Layer 1"><path d="m15.5 16h-1.5c-.552 0-1 .449-1 1v6.5c0 .276.224.5.5.5s.5-.224.5-.5v-2.5h1.5c1.379 0 2.5-1.122 2.5-2.5s-1.121-2.5-2.5-2.5zm0 4h-1.5v-3h1.5c.827 0 1.5.673 1.5 1.5s-.673 1.5-1.5 1.5zm8.5-1.5c0-1.378-1.121-2.5-2.5-2.5h-1.5c-.552 0-1 .449-1 1v6.5c0 .276.224.5.5.5s.5-.224.5-.5v-2.5h1.5c.212 0 .414-.035.611-.084l.914 2.743c.088.264.378.403.633.316.262-.087.403-.37.316-.632l-.956-2.869c.593-.458.982-1.167.982-1.972zm-4 1.5v-3h1.5c.827 0 1.5.673 1.5 1.5s-.673 1.5-1.5 1.5zm-.5-18h-1.5v-1.5c0-.276-.224-.5-.5-.5s-.5.224-.5.5v1.5h-10v-1.5c0-.276-.224-.5-.5-.5s-.5.224-.5.5v1.5h-1.5c-2.481 0-4.5 2.019-4.5 4.5v13c0 2.481 2.019 4.5 4.5 4.5.276 0 .5-.224.5-.5s-.224-.5-.5-.5c-1.93 0-3.5-1.57-3.5-3.5v-10.5h22v4.5c0 .276.224.5.5.5s.5-.224.5-.5v-7c0-2.481-2.019-4.5-4.5-4.5zm-18.5 6v-1.5c0-1.93 1.57-3.5 3.5-3.5h15c1.93 0 3.5 1.57 3.5 3.5v1.5zm9.73 9.116c-.132-.645-.603-1.113-1.221-1.116-.603-.002-1.097.489-1.213 1.085l-1.286 6.317c-.061.301.171.582.483.583h.018c.237.001.441-.163.487-.391l.326-1.594h2.388l.335 1.611c.047.226.248.388.482.389.314.002.549-.281.487-.584l-1.287-6.3zm-2.202 3.884.76-3.719c.035-.147.135-.334.283-.267.038.018.128.115.166.299l.767 3.687z"/></svg>