<svg id="Layer_1" viewBox="0 0 24 24" xmlns="http://www.w3.org/2000/svg" data-name="Layer 1"><path d="m21.023 5.188c-.008-.008-3.932-3.546-3.932-3.546-.964-.886-2.443-.854-3.368.071l-.508.509c-.964.924-.945 2.593.04 3.498l2.005 1.899-3.292 3.292-3.261-3.261 2.039-1.932c.983-.903 1.002-2.573.038-3.496l-.508-.509c-.924-.926-2.404-.957-3.364-.074 0 0-3.928 3.541-3.936 3.549-2.781 2.858-3.127 5.684-2.928 7.551.057.537.406.986.911 1.173.499.185 1.061.074 1.453-.299l3.155-2.989 3.346 3.346-5.28 5.341c-.842.842-.842 2.213 0 3.057.422.421.975.632 1.528.632s1.108-.212 1.53-.634l5.278-5.339 5.341 5.341c.421.421.975.632 1.527.632s1.107-.211 1.529-.632c.842-.844.842-2.215 0-3.057l-5.343-5.343 3.375-3.375 3.188 3.02c.392.373.954.484 1.453.299.505-.187.854-.636.911-1.173.199-1.867-.147-4.693-2.929-7.551zm-19.298 7.699c-.167.157-.35.114-.419.087-.071-.026-.239-.111-.264-.34-.256-2.402.633-4.669 2.64-6.736l3.904-3.519c.567-.522 1.438-.503 1.983.042l.508.509c.568.543.557 1.535-.021 2.064zm4.258 8.773c-.451.453-1.188.454-1.643 0-.452-.453-.452-1.19.002-1.645l5.278-5.339 1.642 1.642-5.28 5.341zm13.678 0c-.454.454-1.19.452-1.643 0l-11.724-11.724 1.687-1.598 11.679 11.679c.452.452.452 1.189 0 1.643zm-5.343-8.399-1.642-1.642 3.311-3.311 1.687 1.598zm8.641-.627c-.024.229-.192.313-.264.34-.069.027-.254.07-.419-.087l-8.331-7.891c-.58-.532-.591-1.522-.022-2.066l.508-.509c.28-.28.646-.421 1.013-.421.348 0 .696.127.975.382l3.9 3.516c2.007 2.067 2.896 4.334 2.64 6.736z"/></svg>