<?xml version="1.0" encoding="UTF-8"?>
<svg xmlns="http://www.w3.org/2000/svg" id="Layer_1" data-name="Layer 1" viewBox="0 0 24 24">
  <path d="m19.5,15c-.916,0-1.767.278-2.479.75l-4.367-5.176L20.882.822c.179-.211.151-.526-.06-.705-.209-.177-.525-.151-.704.06l-8.118,9.621L3.882.178c-.178-.21-.494-.238-.705-.06-.211.178-.238.494-.06.705l8.228,9.752-4.367,5.176c-.712-.472-1.562-.75-2.478-.75-2.481,0-4.5,2.019-4.5,4.5s2.019,4.5,4.5,4.5,4.5-2.019,4.5-4.5c0-1.206-.483-2.297-1.257-3.105l4.257-5.046,4.257,5.046c-.775.809-1.257,1.899-1.257,3.105,0,2.481,2.019,4.5,4.5,4.5s4.5-2.019,4.5-4.5-2.019-4.5-4.5-4.5Zm-15,8c-1.93,0-3.5-1.57-3.5-3.5s1.57-3.5,3.5-3.5,3.5,1.57,3.5,3.5-1.57,3.5-3.5,3.5Zm15,0c-1.93,0-3.5-1.57-3.5-3.5s1.57-3.5,3.5-3.5,3.5,1.57,3.5,3.5-1.57,3.5-3.5,3.5Z"/>
</svg>
