<?xml version="1.0" encoding="UTF-8"?>
<svg xmlns="http://www.w3.org/2000/svg" id="Layer_1" data-name="Layer 1" viewBox="0 0 24 24">
  <path d="M5,.5c0,.276-.224,.5-.5,.5h-1c-1.379,0-2.5,1.122-2.5,2.5v1c0,.276-.224,.5-.5,.5s-.5-.224-.5-.5v-1C0,1.57,1.57,0,3.5,0h1c.276,0,.5,.224,.5,.5ZM.5,13c.276,0,.5-.224,.5-.5V7.5c0-.276-.224-.5-.5-.5s-.5,.224-.5,.5v5c0,.276,.224,.5,.5,.5Zm4,6h-1c-1.379,0-2.5-1.121-2.5-2.5v-1c0-.276-.224-.5-.5-.5s-.5,.224-.5,.5v1c0,1.93,1.57,3.5,3.5,3.5h1c.276,0,.5-.224,.5-.5s-.224-.5-.5-.5ZM15.5,1h1c1.379,0,2.5,1.122,2.5,2.5v1c0,.276,.224,.5,.5,.5s.5-.224,.5-.5v-1c0-1.93-1.57-3.5-3.5-3.5h-1c-.276,0-.5,.224-.5,.5s.224,.5,.5,.5ZM7.5,1h5c.276,0,.5-.224,.5-.5s-.224-.5-.5-.5H7.5c-.276,0-.5,.224-.5,.5s.224,.5,.5,.5ZM24,17.5c0,3.584-2.916,6.5-6.5,6.5s-6.5-2.916-6.5-6.5,2.916-6.5,6.5-6.5,6.5,2.916,6.5,6.5Zm-1,0c0-3.032-2.468-5.5-5.5-5.5s-5.5,2.468-5.5,5.5,2.468,5.5,5.5,5.5,5.5-2.468,5.5-5.5Zm-2.5-.5h-2.5v-2.5c0-.276-.224-.5-.5-.5s-.5,.224-.5,.5v2.5h-2.5c-.276,0-.5,.224-.5,.5s.224,.5,.5,.5h2.5v2.5c0,.276,.224,.5,.5,.5s.5-.224,.5-.5v-2.5h2.5c.276,0,.5-.224,.5-.5s-.224-.5-.5-.5Zm-1-10c-.276,0-.5,.224-.5,.5v1.5c0,.276,.224,.5,.5,.5s.5-.224,.5-.5v-1.5c0-.276-.224-.5-.5-.5Zm-10.5,12h-1.5c-.276,0-.5,.224-.5,.5s.224,.5,.5,.5h1.5c.276,0,.5-.224,.5-.5s-.224-.5-.5-.5Z"/>
</svg>
