<svg id="Layer_1" viewBox="0 0 24 24" xmlns="http://www.w3.org/2000/svg" data-name="Layer 1"><path d="m23.423 18.099-3.459-3.349c-.004-.219-.013-.437-.062-.651-.12-.527.122-1.088.601-1.397.89-.569 1.486-1.621 1.469-2.7.002-.542-.131-1.072-.386-1.532-.27-.488-.635-.882-1.084-1.172-.479-.309-.72-.87-.601-1.396.122-.532.104-1.081-.054-1.63-.296-1.03-1.119-1.852-2.147-2.146-.546-.157-1.095-.175-1.628-.055-.524.121-1.087-.121-1.396-.6-.29-.448-.684-.812-1.171-1.083-.937-.519-2.1-.519-3.037 0-.488.271-.882.636-1.171 1.084-.309.479-.87.721-1.396.6-.533-.12-1.08-.102-1.628.055-1.029.295-1.852 1.117-2.147 2.147-.157.548-.176 1.096-.055 1.629.12.526-.121 1.087-.6 1.396-.892.57-1.485 1.619-1.469 2.7-.016 1.086.575 2.132 1.47 2.704.479.309.72.87.6 1.396-.05.222-.062.449-.064.675l-3.434 3.325c-.53.511-.71 1.261-.47 1.957s.844 1.176 1.577 1.252l1.134.117.134.966c.112.914.942 1.625 1.858 1.615.479 0 .947-.186 1.303-.533l4.144-4.016c.487.383 1.13.539 1.735.545.61-.006 1.259-.166 1.748-.555l4.152 4.024c.357.349.825.535 1.305.535.915.009 1.745-.701 1.857-1.615l.134-.966 1.134-.117c.733-.076 1.337-.556 1.577-1.252s.06-1.446-.47-1.957zm-18.014 4.657c-.24.235-.572.311-.891.201-.318-.108-.536-.372-.582-.705l-.188-1.354c-.032-.228-.215-.405-.444-.429l-1.524-.157c-.346-.036-.621-.253-.734-.583-.113-.329-.032-.669.22-.912l2.957-2.863c.346.918 1.1 1.647 2.049 1.919.548.157 1.097.177 1.628.055.526-.119 1.087.122 1.396.6.06.094.144.168.213.254zm7.61-4.019c-.628.349-1.44.349-2.067 0-.343-.189-.617-.442-.816-.751-.442-.686-1.192-1.088-1.967-1.088-.547.029-1.065.211-1.623.014-.69-.197-1.263-.771-1.461-1.46-.11-.385-.124-.766-.041-1.132.212-.935-.203-1.922-1.033-2.458-.612-.395-1.024-1.109-1.012-1.864-.012-.75.402-1.468 1.012-1.86.831-.536 1.246-1.523 1.033-2.458-.083-.366-.069-.747.041-1.132.198-.69.771-1.263 1.461-1.461.385-.109.765-.123 1.131-.041.936.213 1.923-.202 2.458-1.033.199-.309.473-.562.815-.751.628-.349 1.439-.348 2.067 0 .342.19.617.443.816.751.535.831 1.523 1.243 2.458 1.033.366-.083.747-.069 1.131.041.69.197 1.264.771 1.462 1.46.11.385.124.766.04 1.132-.212.935.204 1.922 1.033 2.458.611.393 1.025 1.111 1.012 1.864.013.749-.403 1.469-1.012 1.86-.83.535-1.246 1.523-1.033 2.458.083.366.07.747-.041 1.131-.198.69-.772 1.264-1.462 1.461-.384.11-.765.123-1.131.041-.935-.21-1.923.203-2.458 1.033-.2.309-.474.562-.816.751zm9.928.992c-.114.33-.388.547-.734.583l-1.524.157c-.229.024-.412.201-.444.429l-.188 1.354c-.046.333-.264.596-.582.705-.315.109-.65.033-.892-.203l-4.111-3.984c.066-.082.146-.153.203-.242.31-.478.873-.719 1.396-.6.532.12 1.079.103 1.628-.055.954-.273 1.712-1.009 2.056-1.935l2.973 2.879c.251.242.333.583.219.911zm-6.524-8.079.551-2.493c.028-.083.256-.824-.195-1.45-.339-.47-.938-.708-1.779-.708h-2.009l.484-1.49c.036-.208.034-.389-.006-.536-.208-.761-.983-1.16-1.726-.853-.232.097-.434.285-.643.555l-1.887 2.324h-.212c-1.103 0-2 .897-2 2v3c0 1.103.897 2 2 2h4.495c1.417 0 2.621-.966 2.929-2.349zm-8.423.349v-3c0-.551.449-1 1-1v5c-.551 0-1-.449-1-1zm5.495 1h-3.495v-5.383s2.02-2.537 2.027-2.544c.203-.237.563-.043.454.261l-.653 2.012c-.05.152-.024.319.07.449s.245.207.405.207h2.698c.484 0 .827.103.965.29.159.215.06.554.047.602l-.565 2.542c-.205.922-1.008 1.566-1.952 1.566z"/></svg>