<?xml version="1.0" encoding="UTF-8"?>
<svg xmlns="http://www.w3.org/2000/svg" id="Layer_1" data-name="Layer 1" viewBox="0 0 24 24">
  <path d="M17.5,0H6.5C4.019,0,2,2.019,2,4.5v15c0,2.481,2.019,4.5,4.5,4.5h11c2.481,0,4.5-2.019,4.5-4.5V4.5c0-2.481-2.019-4.5-4.5-4.5Zm-4.5,19v-.5c0-.276-.224-.5-.5-.5s-.5,.224-.5,.5v.5h-2v-.5c0-.276-.224-.5-.5-.5s-.5,.224-.5,.5v.5h-2v-.5c0-.276-.224-.5-.5-.5s-.5,.224-.5,.5v.5H3v-4h3v.5c0,.276,.224,.5,.5,.5s.5-.224,.5-.5v-.5h2v.5c0,.276,.224,.5,.5,.5s.5-.224,.5-.5v-.5h2v.5c0,.276,.224,.5,.5,.5s.5-.224,.5-.5v-.5h4v.5c0,.276,.224,.5,.5,.5s.5-.224,.5-.5v-.5h3v4H13ZM6,5v.5c0,.276,.224,.5,.5,.5s.5-.224,.5-.5v-.5h2v.5c0,.276,.224,.5,.5,.5s.5-.224,.5-.5v-.5h2v.5c0,.276,.224,.5,.5,.5s.5-.224,.5-.5v-.5h4v.5c0,.276,.224,.5,.5,.5s.5-.224,.5-.5v-.5h3v4h-3v-.5c0-.276-.224-.5-.5-.5s-.5,.224-.5,.5v.5h-4v-.5c0-.276-.224-.5-.5-.5s-.5,.224-.5,.5v.5h-2v-.5c0-.276-.224-.5-.5-.5s-.5,.224-.5,.5v.5h-2v-.5c0-.276-.224-.5-.5-.5s-.5,.224-.5,.5v.5H3V5h3Zm11.5,8c-.276,0-.5,.224-.5,.5v.5h-4v-.5c0-.276-.224-.5-.5-.5s-.5,.224-.5,.5v.5h-2v-.5c0-.276-.224-.5-.5-.5s-.5,.224-.5,.5v.5h-2v-.5c0-.276-.224-.5-.5-.5s-.5,.224-.5,.5v.5H3v-4h3v.5c0,.276,.224,.5,.5,.5s.5-.224,.5-.5v-.5h2v.5c0,.276,.224,.5,.5,.5s.5-.224,.5-.5v-.5h2v.5c0,.276,.224,.5,.5,.5s.5-.224,.5-.5v-.5h4v.5c0,.276,.224,.5,.5,.5s.5-.224,.5-.5v-.5h3v4h-3v-.5c0-.276-.224-.5-.5-.5ZM6.5,1h11c1.758,0,3.204,1.308,3.449,3h-2.949v-.5c0-.276-.224-.5-.5-.5s-.5,.224-.5,.5v.5h-4v-.5c0-.276-.224-.5-.5-.5s-.5,.224-.5,.5v.5h-2v-.5c0-.276-.224-.5-.5-.5s-.5,.224-.5,.5v.5h-2v-.5c0-.276-.224-.5-.5-.5s-.5,.224-.5,.5v.5H3.051c.245-1.692,1.691-3,3.449-3Zm11,22H6.5c-1.758,0-3.204-1.308-3.449-3h2.949v.5c0,.276,.224,.5,.5,.5s.5-.224,.5-.5v-.5h2v.5c0,.276,.224,.5,.5,.5s.5-.224,.5-.5v-.5h2v.5c0,.276,.224,.5,.5,.5s.5-.224,.5-.5v-.5h7.949c-.245,1.692-1.691,3-3.449,3Z"/>
</svg>
