<svg id="Layer_1" viewBox="0 0 24 24" xmlns="http://www.w3.org/2000/svg" data-name="Layer 1"><path d="m24 20.5c0 .276-.224.5-.5.5h-2c-.552 0-1-.448-1-1v-6.5c0-.276.224-.5.5-.5s.5.224.5.5v6.5h2c.276 0 .5.224.5.5zm-14 .5c.276 0 .5-.224.5-.5v-6.5h1c.276 0 .5-.224.5-.5s-.224-.5-.5-.5h-3c-.276 0-.5.224-.5.5s.224.5.5.5h1v6.5c0 .276.224.5.5.5zm-3.5 0c.276 0 .5-.224.5-.5v-7c0-.276-.224-.5-.5-.5s-.5.224-.5.5v3h-3v-3c0-.276-.224-.5-.5-.5s-.5.224-.5.5v7c0 .276.224.5.5.5s.5-.224.5-.5v-3h3v3c0 .276.224.5.5.5zm11.608-8c-.318 0-.613.242-.781.64l-1.081 2.56-1.08-2.56c-.168-.398-.463-.64-.781-.64-.479 0-.878.295-.917 1l-.436 6.478c-.019.282.205.522.488.522.257 0 .47-.198.488-.455l.43-6.06 1.23 2.913c.216.513.943.513 1.159 0l1.23-2.913.407 6.048c.018.263.236.466.499.466.289 0 .518-.245.499-.534l-.435-6.466c-.04-.705-.439-1-.917-1zm-.012-7.611c1.228 1.227 1.904 2.859 1.904 4.596v.515c0 .276-.224.5-.5.5s-.5-.224-.5-.5v-.515c0-.335-.038-.663-.096-.985h-5.404c-1.379 0-2.5-1.122-2.5-2.5v-5.404c-.323-.058-.651-.096-.985-.096h-5.515c-1.93 0-3.5 1.57-3.5 3.5v15c0 1.93 1.57 3.5 3.5 3.5h11c.616 0 1.222-.162 1.749-.468.236-.139.544-.06.684.182.139.239.057.545-.182.684-.681.395-1.459.603-2.251.603h-11c-2.481 0-4.5-2.019-4.5-4.5v-15.001c0-2.481 2.019-4.5 4.5-4.5h5.515c1.735 0 3.368.676 4.597 1.904zm.525 2.611c-.273-.704-.682-1.354-1.232-1.904l-3.484-3.485c-.551-.55-1.2-.959-1.904-1.231v5.12c0 .827.673 1.5 1.5 1.5h5.121z"/></svg>