<?xml version="1.0" encoding="UTF-8"?>
<svg xmlns="http://www.w3.org/2000/svg" id="Layer_1" data-name="Layer 1" viewBox="0 0 24 24">
  <path d="m2.998,9h9c.827,0,1.5-.673,1.5-1.5V3.5c0-.827-.673-1.5-1.5-1.5s-1.5.673-1.5,1.5v4.5h-1.5V1.5c0-.827-.673-1.5-1.5-1.5s-1.5.673-1.5,1.5v6.5h-1.5v-3.5c0-.827-.673-1.5-1.5-1.5s-1.5.673-1.5,1.5v3c0,.827.673,1.5,1.5,1.5ZM11.498,3.5c0-.276.224-.5.5-.5s.5.224.5.5v4c0,.276-.224.5-.5.5h-.5V3.5ZM6.998,1.5c0-.276.224-.5.5-.5s.5.224.5.5v6.5h-1V1.5Zm-4.5,3c0-.276.224-.5.5-.5s.5.224.5.5v3.5h-.5c-.276,0-.5-.224-.5-.5v-3Zm20.683,5.155c-.497-.452-1.143-.674-1.809-.652-.67.032-1.288.322-1.739.818l-3.732,4.102c-.314-1.108-1.335-1.922-2.542-1.922H3.5c-1.93,0-3.5,1.57-3.5,3.5v5c0,1.93,1.57,3.5,3.5,3.5h5.965c2.707,0,5.292-1.159,7.093-3.181l6.806-7.639c.91-1.022.828-2.604-.184-3.526Zm-.563,2.861l-6.806,7.639c-1.611,1.809-3.924,2.846-6.346,2.846H3.5c-1.378,0-2.5-1.122-2.5-2.5v-5c0-1.378,1.122-2.5,2.5-2.5h9.858c.905,0,1.642.737,1.642,1.642,0,.812-.606,1.511-1.399,1.624l-6.161.737c-.274.033-.47.282-.437.556.033.273.271.472.556.437l6.172-.739c1.021-.146,1.845-.878,2.146-1.824l4.495-4.94c.272-.298.644-.473,1.047-.492.398-.013.79.12,1.088.393.608.555.658,1.506.11,2.122Z"/>
</svg>
