<svg id="Layer_1" viewBox="0 0 24 24" xmlns="http://www.w3.org/2000/svg" data-name="Layer 1"><path d="m7.5 12c.822-.014 1.599-.113 2.26-.438.693.28 1.448.438 2.24.438s1.547-.158 2.24-.438c.661.325 1.439.424 2.26.438 1.254 0 2.61-.664 3.196-1.306.526-.545.335-1.539-.375-1.821-.588-.254-1.321-.571-1.321-2.873 0-3.309-2.691-6-6-6s-6 2.691-6 6c0 2.302-.733 2.619-1.321 2.873-.71.282-.901 1.277-.375 1.822.586.642 1.942 1.305 3.196 1.305zm11.425-2.209c.083.045.107.132.033.229-.423.463-1.537.98-2.458.98-.368 0-.713-.04-1.043-.104.865-.612 1.559-1.447 2.003-2.421.376.752.928 1.083 1.466 1.316zm-1.925-3.791c0 2.757-2.243 5-5 5s-5-2.243-5-5h1.5c2.723 0 5.095-1.769 5.938-4.338 1.521.859 2.562 2.471 2.562 4.338zm-5-5c.534 0 1.04.106 1.523.262-.683 2.21-2.702 3.738-5.023 3.738h-1.399c.465-2.279 2.484-4 4.899-4zm-6.997 8.88c.009-.042.033-.073.072-.089.537-.232 1.09-.564 1.466-1.316.443.974 1.138 1.808 2.003 2.421-.33.064-.676.104-1.043.104-.921 0-2.035-.517-2.458-.979-.05-.055-.043-.116-.039-.14zm15.997 13.12v.5c0 .276-.224.5-.5.5s-.5-.224-.5-.5v-.5c0-4.411-3.589-8-8-8s-8 3.589-8 8v.5c0 .276-.224.5-.5.5s-.5-.224-.5-.5v-.5c0-4.962 4.038-9 9-9s9 4.038 9 9z"/></svg>