<svg id="Layer_1" viewBox="0 0 24 24" xmlns="http://www.w3.org/2000/svg" data-name="Layer 1"><path d="m19.5 0h-15c-2.481 0-4.5 2.019-4.5 4.5v1c0 .815.397 1.532 1.002 1.989 0 .004-.002.007-.002.011v12c0 2.481 2.019 4.5 4.5 4.5h5c.276 0 .5-.224.5-.5s-.224-.5-.5-.5h-5c-1.93 0-3.5-1.57-3.5-3.5v-11.551c.162.033.329.051.5.051h19c.171 0 .338-.018.5-.051v2.551c0 .276.224.5.5.5s.5-.224.5-.5v-3s-.002-.007-.002-.011c.605-.457 1.002-1.175 1.002-1.989v-1c0-2.481-2.019-4.5-4.5-4.5zm3.5 5.5c0 .827-.673 1.5-1.5 1.5h-19c-.827 0-1.5-.673-1.5-1.5v-1c0-1.93 1.57-3.5 3.5-3.5h15c1.93 0 3.5 1.57 3.5 3.5zm-2 17.5c0 .552-.448 1-1 1s-1-.448-1-1 .448-1 1-1 1 .448 1 1zm3-3c0 .552-.448 1-1 1s-1-.448-1-1 .448-1 1-1 1 .448 1 1zm-3 0c0 .552-.448 1-1 1s-1-.448-1-1 .448-1 1-1 1 .448 1 1zm-4.5-7h-2c-.827 0-1.5.673-1.5 1.5v2c0 .827.673 1.5 1.5 1.5h2c.827 0 1.5-.673 1.5-1.5v-2c0-.827-.673-1.5-1.5-1.5zm.5 3.5c0 .276-.224.5-.5.5h-2c-.276 0-.5-.224-.5-.5v-2c0-.276.224-.5.5-.5h2c.276 0 .5.224.5.5zm-.5 2.5h-2c-.827 0-1.5.673-1.5 1.5v2c0 .827.673 1.5 1.5 1.5h2c.827 0 1.5-.673 1.5-1.5v-2c0-.827-.673-1.5-1.5-1.5zm.5 3.5c0 .276-.224.5-.5.5h-2c-.276 0-.5-.224-.5-.5v-2c0-.276.224-.5.5-.5h2c.276 0 .5.224.5.5zm5.5-9.5h-2c-.827 0-1.5.673-1.5 1.5v2c0 .827.673 1.5 1.5 1.5h2c.827 0 1.5-.673 1.5-1.5v-2c0-.827-.673-1.5-1.5-1.5zm.5 3.5c0 .276-.224.5-.5.5h-2c-.276 0-.5-.224-.5-.5v-2c0-.276.224-.5.5-.5h2c.276 0 .5.224.5.5zm-.75-1c0 .414-.336.75-.75.75s-.75-.336-.75-.75.336-.75.75-.75.75.336.75.75zm-6 0c0 .414-.336.75-.75.75s-.75-.336-.75-.75.336-.75.75-.75.75.336.75.75zm0 6c0 .414-.336.75-.75.75s-.75-.336-.75-.75.336-.75.75-.75.75.336.75.75z"/></svg>