<?xml version="1.0" encoding="UTF-8"?>
<svg xmlns="http://www.w3.org/2000/svg" id="Layer_1" data-name="Layer 1" viewBox="0 0 24 24">
  <path d="M19.489,15.614l-.994,4.763c-.076,.363-.396,.623-.766,.623-.359,0-.672-.244-.759-.592l-1.202-4.775c-.079-.313,.158-.617,.481-.617,.227,0,.425,.154,.481,.374l.98,3.87,.803-3.85c.048-.23,.251-.395,.486-.395h.005c.315,0,.55,.289,.486,.597Zm-6.489,.386c.423,0,.802,.268,.943,.667,.092,.26,.376,.398,.638,.305,.26-.092,.397-.378,.305-.639-.282-.797-1.04-1.333-1.886-1.333-1.103,0-2,.897-2,2v2c0,1.103,.897,2,2,2,.846,0,1.604-.536,1.886-1.333,.092-.261-.044-.547-.305-.639-.262-.093-.546,.045-.638,.305-.141,.399-.52,.667-.943,.667-.551,0-1-.448-1-1v-2c0-.552,.449-1,1-1ZM24,7.5v5c0,.276-.224,.5-.5,.5s-.5-.224-.5-.5v-1.5H1v5.5c0,1.93,1.57,3.5,3.5,3.5h4c.276,0,.5,.224,.5,.5s-.224,.5-.5,.5H4.5c-2.481,0-4.5-2.019-4.5-4.5V7.5C0,5.019,2.019,3,4.5,3h15c2.481,0,4.5,2.019,4.5,4.5ZM1.051,7H22.949c-.245-1.692-1.691-3-3.449-3H4.5c-1.758,0-3.204,1.308-3.449,3Zm21.949,1H1v2H23v-2Zm.371,7.017h-.005c-.235,0-.438,.165-.486,.395l-.803,3.85-.98-3.87c-.056-.22-.254-.374-.481-.374-.323,0-.56,.304-.481,.617l1.202,4.775c.088,.348,.4,.592,.759,.592,.371,0,.691-.26,.766-.623l.994-4.763c.064-.308-.171-.597-.486-.597Zm-18.371-1.017c1.103,0,2,.897,2,2s-.897,2-2,2-2-.897-2-2,.897-2,2-2Zm0,1c-.551,0-1,.448-1,1s.449,1,1,1,1-.448,1-1-.449-1-1-1Z"/>
</svg>
