<svg id="Layer_1" viewBox="0 0 24 24" xmlns="http://www.w3.org/2000/svg" data-name="Layer 1"><path d="m11.045 11.522c0-1.379-1.122-2.5-2.5-2.5s-2.5 1.121-2.5 2.5 1.122 2.5 2.5 2.5 2.5-1.121 2.5-2.5zm-2.5 1.5c-.827 0-1.5-.673-1.5-1.5s.673-1.5 1.5-1.5 1.5.673 1.5 1.5-.673 1.5-1.5 1.5zm-.5-6.5c0-1.379-1.122-2.5-2.5-2.5s-2.5 1.121-2.5 2.5 1.122 2.5 2.5 2.5 2.5-1.121 2.5-2.5zm-2.5 1.5c-.827 0-1.5-.673-1.5-1.5s.673-1.5 1.5-1.5 1.5.673 1.5 1.5-.673 1.5-1.5 1.5zm7 5c-1.378 0-2.5 1.121-2.5 2.5s1.122 2.5 2.5 2.5 2.5-1.121 2.5-2.5-1.122-2.5-2.5-2.5zm0 4c-.827 0-1.5-.673-1.5-1.5s.673-1.5 1.5-1.5 1.5.673 1.5 1.5-.673 1.5-1.5 1.5zm5-1c-1.378 0-2.5 1.121-2.5 2.5s1.122 2.5 2.5 2.5 2.5-1.121 2.5-2.5-1.122-2.5-2.5-2.5zm0 4c-.827 0-1.5-.673-1.5-1.5s.673-1.5 1.5-1.5 1.5.673 1.5 1.5-.673 1.5-1.5 1.5zm6.391 1.121c-.089-.318-.239-.612-.383-.896-.25-.493-.509-1.002-.509-1.727 0-1.469-.572-2.85-1.611-3.889-.937-.938-2.192-1.497-3.534-1.578-.271-.017-.521-.17-.669-.41-.675-1.096-1.721-1.924-2.946-2.332-.249-.083-.447-.28-.53-.53-.408-1.224-1.236-2.27-2.332-2.945-.24-.148-.394-.398-.41-.669-.081-1.341-.642-2.596-1.579-3.533-1.039-1.039-2.419-1.611-3.888-1.611-.546 0-.929-.252-1.334-.519-.226-.148-.459-.303-.715-.397-.847-.307-1.769.062-2.143.867-.518 1.117-1.285 3.507-1.285 5.094 0 1.827.535 3.288 1.59 4.343.325.325.705.611 1.195.899.13.077.189.327.195.398.075 2.252 1.495 4.205 3.619 4.975.334.122.595.383.716.717.785 2.162 2.748 3.615 4.886 3.615.366 0 .471.177.573.348.229.384.504.735.815 1.047 1.055 1.055 2.516 1.59 4.343 1.59 1.5 0 3.691-.444 4.767-.759.896-.262 1.421-1.202 1.17-2.098zm-1.45 1.138c-.99.29-3.101.719-4.486.719-1.552 0-2.775-.437-3.636-1.297-.253-.253-.477-.54-.664-.853-.136-.229-.498-.835-1.431-.835-1.719 0-3.304-1.188-3.946-2.957-.223-.612-.702-1.092-1.315-1.314-1.737-.63-2.899-2.227-2.961-4.069 0-.008-.036-.843-.687-1.226-.416-.245-.732-.481-.996-.745-.86-.86-1.297-2.084-1.297-3.636 0-1.374.693-3.596 1.193-4.672.116-.25.364-.396.631-.396.299.004.479.157.77.34.462.305 1.038.684 1.884.684 1.202 0 2.332.468 3.181 1.318.765.765 1.222 1.789 1.288 2.887.036.595.366 1.141.883 1.46.896.553 1.574 1.408 1.907 2.41.182.547.618.981 1.164 1.163 1.002.334 1.857 1.011 2.41 1.908.319.518.865.848 1.46.883 1.097.066 2.122.523 2.886 1.287.85.85 1.318 1.979 1.318 3.182 0 .964.343 1.638.618 2.18.134.262.249.489.312.712.104.37-.114.759-.487.868z"/></svg>