<?xml version="1.0" encoding="UTF-8"?>
<svg xmlns="http://www.w3.org/2000/svg" id="Layer_1" data-name="Layer 1" viewBox="0 0 24 24">
  <path d="M13.823,.203c-2.997,.552-5.751,2.299-7.554,4.795h-1.269C2.243,4.998,0,7.242,0,10v4.002C0,16.76,2.243,19.003,5.001,19.003h1.27c1.801,2.496,4.555,4.243,7.612,4.802,.033,.002,.065,.003,.097,.003,.266,0,.483-.073,.663-.223,.23-.191,.362-.473,.362-.771V1.188c0-.299-.132-.58-.359-.769-.231-.194-.544-.273-.822-.216Zm.182,22.61c-2.748-.505-5.271-2.107-6.924-4.396l-.149-.207c-.094-.13-.245-.207-.405-.207h-1.525c-2.207,0-4.002-1.795-4.002-4.001v-4.002c0-2.207,1.795-4.002,4.002-4.002h1.524c.16,0,.312-.077,.405-.207l.149-.207c1.653-2.289,4.178-3.892,6.925-4.396V22.813Zm6.92-3.389c-.098,.098-.226,.146-.354,.146s-.256-.049-.354-.146c-.195-.195-.195-.512,0-.707,3.704-3.704,3.704-9.731,0-13.436-.195-.195-.195-.512,0-.707s.512-.195,.707,0c4.094,4.094,4.094,10.756,0,14.85Zm-2.829-12.021c1.228,1.228,1.904,2.859,1.904,4.596s-.677,3.368-1.904,4.596c-.098,.098-.226,.146-.354,.146s-.256-.049-.354-.146c-.195-.195-.195-.512,0-.707,1.039-1.039,1.611-2.42,1.611-3.889s-.572-2.85-1.611-3.889c-.195-.195-.195-.512,0-.707s.512-.195,.707,0Z"/>
</svg>
