<?xml version="1.0" encoding="UTF-8"?>
<svg xmlns="http://www.w3.org/2000/svg" id="Layer_1" data-name="Layer 1" viewBox="0 0 24 24">
  <path d="m21.152.712c-2.381-.928-4.424-.928-6.805,0-1.045.407-1.861,1.172-2.348,2.124-.487-.952-1.303-1.717-2.348-2.124C7.271-.216,5.229-.216,2.848.712,1.118,1.386,0,3.03,0,4.901v18.599c0,.276.224.5.5.5s.5-.224.5-.5v-1.5h10.5v1.5c0,.276.224.5.5.5s.5-.224.5-.5v-1.5h10.5v1.5c0,.276.224.5.5.5s.5-.224.5-.5V4.901c0-1.871-1.118-3.515-2.848-4.189Zm-6.441.932c2.148-.837,3.93-.837,6.078,0,1.322.515,2.211,1.824,2.211,3.257v.099h-10.5v-.099c0-1.433.889-2.742,2.211-3.257ZM3.211,1.644c2.148-.837,3.93-.837,6.078,0,1.322.515,2.211,1.824,2.211,3.257v.099H1v-.099c0-1.433.889-2.742,2.211-3.257ZM1,21V6h10.5v6h-2c-.276,0-.5.224-.5.5s.224.5.5.5h2v8H1Zm11.5,0V6h10.5v6h-2.5c-.276,0-.5.224-.5.5s.224.5.5.5h2.5v8h-10.5Z"/>
</svg>
