<?xml version="1.0" encoding="UTF-8"?>
<svg xmlns="http://www.w3.org/2000/svg" id="Layer_1" data-name="Layer 1" viewBox="0 0 24 24">
  <path d="M12,21c-6.193,0-9.72-4.081-11.271-6.515-.978-1.532-.978-3.437,0-4.97C2.28,7.082,5.809,3,12,3s9.72,4.081,11.271,6.513c.978,1.535,.978,3.44,0,4.972-1.552,2.434-5.078,6.515-11.271,6.515Zm0-17C6.285,4,3.013,7.792,1.571,10.053c-.766,1.201-.766,2.694,0,3.896,1.44,2.26,4.712,6.052,10.428,6.052s8.987-3.792,10.428-6.052c.767-1.201,.767-2.694,0-3.897-1.44-2.26-4.712-6.051-10.428-6.051Zm0,14c-3.309,0-6-2.691-6-6s2.691-6,6-6,6,2.691,6,6-2.691,6-6,6Zm0-11c-2.757,0-5,2.243-5,5s2.243,5,5,5,5-2.243,5-5-2.243-5-5-5Zm.5,5.5v-4c0-.276-.224-.5-.5-.5s-.5,.224-.5,.5v4c0,.276,.224,.5,.5,.5s.5-.224,.5-.5Zm.5,2.5h0c0-.552-.448-1-1-1h0c-.552,0-1,.448-1,1h0c0,.552,.448,1,1,1h0c.552,0,1-.448,1-1Z"/>
</svg>
