<svg id="Layer_1" viewBox="0 0 24 24" xmlns="http://www.w3.org/2000/svg" data-name="Layer 1"><path d="m6.968 23.325c.097.258-.034.546-.293.644-.252.096-.547-.031-.644-.293-.375-1.002-1.393-1.675-2.532-1.675s-2.156.673-2.532 1.675c-.097.259-.387.388-.644.293-.259-.097-.39-.385-.293-.644.521-1.391 1.914-2.325 3.468-2.325s2.947.934 3.468 2.325zm-3.468-3.325c-1.378 0-2.5-1.122-2.5-2.5s1.122-2.5 2.5-2.5 2.5 1.122 2.5 2.5-1.122 2.5-2.5 2.5zm0-1c.827 0 1.5-.673 1.5-1.5s-.673-1.5-1.5-1.5-1.5.673-1.5 1.5.673 1.5 1.5 1.5zm13.821-10.033c.257.099.547-.03.645-.288.385-1.004 1.399-1.679 2.525-1.679 1.152 0 2.172.672 2.538 1.672.095.262.389.391.642.298.259-.095.393-.382.298-.642-.51-1.393-1.908-2.328-3.477-2.328-1.537 0-2.927.933-3.459 2.321-.099.258.03.547.288.646zm.679-6.467c0-1.378 1.122-2.5 2.5-2.5s2.5 1.122 2.5 2.5-1.122 2.5-2.5 2.5-2.5-1.122-2.5-2.5zm1 0c0 .827.673 1.5 1.5 1.5s1.5-.673 1.5-1.5-.673-1.5-1.5-1.5-1.5.673-1.5 1.5zm5 18.5c0 1.654-1.346 3-3 3h-11.5c-.215 0-.406-.138-.474-.342s.002-.429.174-.558c.509-.382.8-.965.8-1.6v-.5c0-1.654 1.346-3 3-3h6v-4.613l-1.572-1.293c-.144-.116-.322-.117-.47.002l-1.27 1.026c-.517.418-1.212.417-1.729 0l-1.22-.984c-.148-.119-.324-.12-.473 0l-1.22.984c-.518.418-1.213.417-1.73 0l-1.279-1.033c-.146-.119-.321-.12-.467-.005l-1.767 1.35c-.151.117-.354.137-.525.051-.17-.084-.278-.258-.278-.448v-7.037h-2c-1.654 0-3-1.346-3-3s1.346-3 3-3h11.5c.369 0 .738.037 1.099.11.271.055.446.319.391.589-.054.273-.325.446-.589.391-.295-.06-.599-.09-.901-.09h-9.28c.48.532.78 1.229.78 2v9.026l.959-.733c.511-.399 1.198-.393 1.707.019l1.279 1.033c.148.12.325.12.474 0l1.22-.984c.518-.417 1.212-.416 1.729 0l1.22.984c.149.12.326.119.473 0l1.27-1.026c.517-.418 1.212-.418 1.73 0l.94.773v-1.593c0-.276.224-.5.5-.5s.5.224.5.5v7.5h1c1.654 0 3 1.346 3 3zm-19-18c0-1.103-.897-2-2-2s-2 .897-2 2 .897 2 2 2h2zm18 18c0-1.103-.897-2-2-2h-8c-1.103 0-2 .897-2 2v.5c0 .539-.14 1.052-.399 1.5h10.399c1.103 0 2-.897 2-2z"/></svg>