<?xml version="1.0" encoding="UTF-8"?>
<svg xmlns="http://www.w3.org/2000/svg" id="Layer_1" data-name="Layer 1" viewBox="0 0 24 24">
  <path d="M22.874,19.168l-3.09-3.493c-.379-.43-.925-.676-1.498-.676h-3.233L11.023,6.155l2.881-1.536c.274-.147,.518-.342,.722-.58l2.755-3.214c.18-.209,.155-.525-.055-.705-.208-.18-.523-.156-.705,.054l-2.755,3.213c-.122,.143-.268,.26-.433,.348l-5.565,2.969c-1.123,.599-2.082,1.481-2.776,2.558L1.075,15.736c-.146,.235-.073,.543,.161,.688,.231,.144,.542,.076,.688-.161l4.011-6.467c.166-.258,.354-.499,.555-.73l6.553,14.638c.113,.255,.414,.363,.66,.252,.252-.113,.365-.409,.252-.661l-3.266-7.296h7.596c.286,0,.56,.123,.749,.338l3.091,3.494c.183,.207,.5,.225,.705,.043,.207-.183,.227-.499,.043-.706ZM7.255,8.329c.337-.28,.695-.535,1.083-.742l1.8-.96,3.816,8.373h-3.712l-2.987-6.671Zm-.755-3.329c1.379,0,2.5-1.122,2.5-2.5S7.879,0,6.5,0s-2.5,1.122-2.5,2.5,1.121,2.5,2.5,2.5Zm0-4c.827,0,1.5,.673,1.5,1.5s-.673,1.5-1.5,1.5-1.5-.673-1.5-1.5,.673-1.5,1.5-1.5Z"/>
</svg>
