<svg id="Layer_1" viewBox="0 0 24 24" xmlns="http://www.w3.org/2000/svg" data-name="Layer 1"><path d="m24 16.5v-9c0-2.481-2.019-4.5-4.5-4.5h-15c-.244 0-.487.027-.727.066l-2.919-2.92c-.196-.195-.512-.195-.708 0s-.195.512 0 .708l23 23c.195.195.512.195.707 0s.195-.512 0-.707l-2.531-2.531c1.607-.71 2.678-2.309 2.678-4.115zm-10-3.207v-4.793c0-.276.225-.5.5-.5h2c1.379 0 2.5 1.122 2.5 2.5v3c0 1.314-1.022 2.383-2.312 2.481zm6.539 6.539-3.006-3.006c1.423-.444 2.467-1.759 2.467-3.326v-3c0-1.93-1.57-3.5-3.5-3.5h-2c-.827 0-1.5.673-1.5 1.5v3.793l-3.562-3.562-.295-.881c-.108-.327-.339-.583-.647-.72-.228-.102-.477-.104-.718-.059l-3.071-3.071h14.793c1.93 0 3.5 1.57 3.5 3.5v9c0 1.541-1.005 2.879-2.461 3.332zm-3.539.668c0 .276-.224.5-.5.5h-12c-2.481 0-4.5-2.019-4.5-4.5v-9c0-1.058.374-2.086 1.054-2.894.178-.212.492-.238.704-.061.212.178.239.493.062.705-.528.628-.819 1.428-.819 2.25v9c0 1.93 1.57 3.5 3.5 3.5h12c.276 0 .5.224.5.5zm-10.025-9.842-1.114 3.342h4.279c-.143-.289-.056-.662.272-.767.262-.087.545.054.633.316l.931 2.792c.087.262-.055.545-.316.632-.255.087-.545-.052-.633-.316l-.553-1.658h-4.947l-.553 1.658c-.088.264-.378.403-.633.316-.262-.087-.403-.37-.316-.632l2-6c.089-.262.373-.401.633-.316.262.087.403.37.316.632z"/></svg>