<svg id="Layer_1" viewBox="0 0 24 24" xmlns="http://www.w3.org/2000/svg" data-name="Layer 1"><path d="m12.976 5c.008.081.024.16.024.243v2.757c0 .276.224.5.5.5s.5-.224.5-.5v-2.757c0-.935-.364-1.813-1.025-2.475l-1.742-1.742c-.651-.651-1.553-1.025-2.475-1.025h-3.258c-1.93 0-3.5 1.57-3.5 3.5v7c0 1.93 1.57 3.5 3.5 3.5h2.5c.276 0 .5-.224.5-.5s-.224-.5-.5-.5h-2.5c-1.379 0-2.5-1.122-2.5-2.5v-7.001c0-1.378 1.121-2.5 2.5-2.5h3.258c.082 0 .161.016.242.024v2.476c0 .827.673 1.5 1.5 1.5zm-2.976-1.5v-2.156c.189.109.37.233.525.388l1.742 1.742c.158.158.282.337.391.525h-2.158c-.275 0-.5-.224-.5-.5zm9.232 7.525c-.651-.651-1.553-1.025-2.475-1.025h-3.258c-1.93 0-3.5 1.57-3.5 3.5v7c0 1.93 1.57 3.5 3.5 3.5h5c1.93 0 3.5-1.57 3.5-3.5v-5.258c0-.921-.374-1.823-1.025-2.475zm1.035 2.449c.156.156.28.336.388.525h-2.156c-.275 0-.5-.225-.5-.5v-2.156c.189.109.37.233.525.388l1.742 1.742zm.732 7.025c0 1.379-1.121 2.5-2.5 2.5h-5c-1.379 0-2.5-1.121-2.5-2.5v-7c0-1.378 1.121-2.5 2.5-2.5h3.258c.082 0 .161.016.242.024v2.476c0 .827.673 1.5 1.5 1.5h2.476c.008.081.024.161.024.242zm3-14v2c0 .276-.224.5-.5.5s-.5-.224-.5-.5v-2c0-1.378-1.121-2.5-2.5-2.5h-3.199l2.061 2.154c.19.2.184.516-.016.707-.199.191-.516.184-.707-.016l-2.219-2.32c-.562-.562-.562-1.49.008-2.06l2.212-2.31c.192-.198.509-.207.707-.016.199.191.206.507.016.707l-2.06 2.154h3.199c1.93 0 3.5 1.57 3.5 3.5zm-16.419 12.976c.562.562.562 1.489-.008 2.059l-2.211 2.312c-.191.2-.508.206-.707.016s-.206-.507-.016-.707l2.06-2.154h-3.198c-1.93 0-3.5-1.57-3.5-3.5v-2c0-.276.224-.5.5-.5s.5.224.5.5v2c0 1.379 1.121 2.5 2.5 2.5h3.199l-2.06-2.154c-.19-.2-.184-.517.016-.707.199-.191.516-.184.707.016l2.219 2.32z"/></svg>