<?xml version="1.0" encoding="UTF-8"?>
<svg xmlns="http://www.w3.org/2000/svg" id="Layer_1" data-name="Layer 1" viewBox="0 0 24 24">
  <path d="M5.854,18.146c.195,.195,.195,.512,0,.707L.854,23.854c-.195,.195-.512,.195-.707,0s-.195-.512,0-.707l5-5c.195-.195,.512-.195,.707,0ZM18.5,6c.128,0,.256-.049,.354-.146L23.854,.854c.195-.195,.195-.512,0-.707s-.512-.195-.707,0l-5,5c-.195,.195-.195,.512,0,.707,.098,.098,.226,.146,.354,.146Zm.354,12.146c-.195-.195-.512-.195-.707,0s-.195,.512,0,.707l5,5c.195,.195,.512,.195,.707,0s.195-.512,0-.707l-5-5ZM.854,.146C.658-.049,.342-.049,.146,.146S-.049,.658,.146,.854L5.146,5.854c.195,.195,.512,.195,.707,0s.195-.512,0-.707L.854,.146ZM9.5,2.5c0-1.378,1.122-2.5,2.5-2.5s2.5,1.122,2.5,2.5-1.121,2.5-2.5,2.5-2.5-1.122-2.5-2.5Zm1,0c0,.827,.673,1.5,1.5,1.5s1.5-.673,1.5-1.5-.673-1.5-1.5-1.5-1.5,.673-1.5,1.5Zm6,7v4c0,1.391-.822,2.585-2,3.149v6.851c0,.276-.224,.5-.5,.5s-.5-.224-.5-.5v-6.551c-.165,.024-.329,.051-.5,.051h-2c-.171,0-.335-.027-.5-.051v6.551c0,.276-.224,.5-.5,.5s-.5-.224-.5-.5v-6.851c-1.178-.564-2-1.758-2-3.149v-4c0-1.93,1.57-3.5,3.5-3.5h2c1.93,0,3.5,1.57,3.5,3.5Zm-1,0c0-1.378-1.121-2.5-2.5-2.5h-2c-1.378,0-2.5,1.122-2.5,2.5v4c0,1.379,1.122,2.5,2.5,2.5h2c1.379,0,2.5-1.121,2.5-2.5v-4Z"/>
</svg>
