<?xml version="1.0" encoding="UTF-8"?>
<svg xmlns="http://www.w3.org/2000/svg" id="Layer_1" data-name="Layer 1" viewBox="0 0 24 24">
  <path d="m22.555.923c-.918-.762-2.12-1.075-3.291-.854l-8.593,1.611c-2.127.398-3.671,2.259-3.671,4.423v11.279c-.734-.84-1.799-1.382-3-1.382-2.206,0-4,1.794-4,4s1.794,4,4,4,4-1.794,4-4v-9.42c0-1.202.857-2.235,2.039-2.458l11.185-2.097c.44-.077.89.034,1.234.32s.542.707.542,1.154v6.882c-.734-.84-1.799-1.382-3-1.382-2.206,0-4,1.794-4,4s1.794,4,4,4,4-1.794,4-4V4.001c0-1.193-.526-2.315-1.445-3.078ZM4,23c-1.654,0-3-1.346-3-3s1.346-3,3-3,3,1.346,3,3-1.346,3-3,3Zm16-3c-1.654,0-3-1.346-3-3s1.346-3,3-3,3,1.346,3,3-1.346,3-3,3Zm1.04-14.957l-11.186,2.097c-.732.137-1.365.505-1.854,1.009v-2.046c0-1.684,1.2-3.13,2.854-3.44l8.593-1.611c.884-.161,1.78.069,2.469.641.688.572,1.084,1.413,1.084,2.309v1.512c-.562-.424-1.271-.601-1.96-.47Z"/>
</svg>
