<svg id="Layer_1" viewBox="0 0 24 24" xmlns="http://www.w3.org/2000/svg" data-name="Layer 1"><path d="m23.854 7.146c-.195-.195-.512-.195-.707 0l-5.146 5.146-6.293-6.293 5.146-5.145c.195-.195.195-.512 0-.707s-.512-.195-.707 0l-5.146 5.146-3.146-3.146c-.195-.195-.512-.195-.707 0s-.195.512 0 .707l1.203 1.203-5.949 5.946c-1.549 1.548-2.402 3.607-2.402 5.797 0 2.022.734 3.926 2.064 5.426l-1.918 1.919c-.195.195-.195.512 0 .707s.512.195.707 0l1.918-1.919c1.5 1.331 3.405 2.066 5.427 2.066 2.19 0 4.249-.853 5.797-2.401l5.948-5.948 1.203 1.203c.195.195.512.195.707 0s.195-.512 0-.707l-3.146-3.146 5.146-5.146c.195-.195.195-.512 0-.707zm-10.564 13.745c-1.36 1.359-3.167 2.108-5.09 2.108s-3.73-.749-5.09-2.108-2.108-3.168-2.108-5.091.749-3.73 2.109-5.09l5.947-5.947 10.181 10.181-5.948 5.948zm-.109-8.915c.054.271-.122.534-.392.588l-4.723.943c-.115.03-.108.141 0 .253l2.167 2.168c.304.304.416.748.292 1.16s-.463.721-.884.807l-4.298.523c-.269.035-.525-.16-.557-.436-.033-.274.162-.523.436-.557l4.259-.518c.147-.019.159-.157.045-.273l-2.167-2.168c-.266-.266-.388-.632-.333-1.005.062-.409.341-.797.747-.916l4.819-.962c.275-.058.534.122.588.392z"/></svg>