<svg id="Layer_1" viewBox="0 0 24 24" xmlns="http://www.w3.org/2000/svg" data-name="Layer 1"><path d="m8 15h-.5c-.551 0-1 .448-1 1v3c0 .552.449 1 1 1h.5c.827 0 1.5-.673 1.5-1.5 0-.384-.145-.734-.383-1 .238-.266.383-.616.383-1 0-.827-.673-1.5-1.5-1.5zm0 4h-.5v-1h.5c.276 0 .5.225.5.5s-.224.5-.5.5zm0-2h-.5v-1h.5c.276 0 .5.225.5.5s-.224.5-.5.5zm5.5-1.5v3c0 .827-.673 1.5-1.5 1.5s-1.5-.673-1.5-1.5v-3c0-.276.224-.5.5-.5s.5.224.5.5v3c0 .275.224.5.5.5s.5-.225.5-.5v-3c0-.276.224-.5.5-.5s.5.224.5.5zm8.112-3.971c1.456-1.193 2.388-3.004 2.388-5.029 0-3.584-2.916-6.5-6.5-6.5s-6.5 2.916-6.5 6.5c0 1.746.696 3.331 1.821 4.5h-8.321c-2.481 0-4.5 2.019-4.5 4.5v4c0 2.481 2.019 4.5 4.5 4.5h15c2.481 0 4.5-2.019 4.5-4.5v-4c0-1.689-.935-3.201-2.388-3.971zm-4.112-10.529c3.032 0 5.5 2.467 5.5 5.5s-2.468 5.5-5.5 5.5-5.5-2.467-5.5-5.5 2.468-5.5 5.5-5.5zm5.5 18.5c0 1.93-1.57 3.5-3.5 3.5h-15c-1.93 0-3.5-1.57-3.5-3.5v-4c0-1.93 1.57-3.5 3.5-3.5h9.552c1.001.63 2.181 1 3.448 1 1.136 0 2.204-.295 3.134-.809 1.416.485 2.366 1.807 2.366 3.309zm-9.097-11.532c.134 1.159 1.142 2.032 2.343 2.032h2.456c1.175 0 2.154-.817 2.331-1.943l.198-1.268c.127-.809-.422-1.572-1.231-1.756v-.533c0-1.378-1.121-2.5-2.5-2.5s-2.5 1.122-2.5 2.5v.532c-.792.179-1.332.902-1.24 1.696l.144 1.239zm3.597-4.968c.827 0 1.5.673 1.5 1.5v.502l-3 .004v-.505c0-.827.673-1.5 1.5-1.5zm-2.321 3h4.597c.311.067.514.339.468.635l-.198 1.268c-.098.625-.675 1.098-1.343 1.098h-2.456c-.693 0-1.273-.493-1.349-1.147l-.144-1.24c-.034-.296.188-.568.425-.613zm2.296 9.658-.975 2.924v.918c0 .276-.224.5-.5.5s-.5-.224-.5-.5v-.918l-.975-2.924c-.087-.262.055-.545.316-.633.263-.086.545.055.633.316l.525 1.577.525-1.577c.089-.262.372-.402.633-.316.262.088.403.371.316.633z"/></svg>