<svg id="Layer_1" viewBox="0 0 24 24" xmlns="http://www.w3.org/2000/svg" data-name="Layer 1"><path d="m21.351 14.67c-.55 1.522-1.416 2.879-2.574 4.031l-4.175 3.843c-.961.936-2.102 1.456-3.602 1.456-1.358 0-2.641-.521-3.612-1.466l-4.151-3.819c-2.092-2.083-3.237-4.834-3.237-7.76s1.145-5.678 3.223-7.747c2.077-2.068 4.858-3.208 7.777-3.208.174 0 .349.004.523.013.276.013.489.247.476.522-.014.275-.25.508-.523.476-2.835-.126-5.548.914-7.548 2.906-1.889 1.88-2.929 4.379-2.929 7.038s1.04 5.157 2.928 7.037l4.147 3.815c1.588 1.545 4.272 1.535 5.839.01l4.171-3.839c1.038-1.033 1.825-2.266 2.324-3.648.094-.259.381-.391.64-.301.26.095.394.381.3.641zm2.649-8.17c0 3.584-2.916 6.5-6.5 6.5s-6.5-2.916-6.5-6.5 2.916-6.5 6.5-6.5c3.5 0 6.5 2.916 6.5 6.5zm-1 0c0-3.032-2.467-5.5-5.5-5.5s-5.5 2.468-5.5 5.5 2.467 5.5 5.5 5.5 5.5-2.468 5.5-5.5zm-5.5 1.5c.276 0 .5-.224.5-.5v-5c0-.276-.224-.5-.5-.5s-.5.224-.5.5v5c0 .276.224.5.5.5zm0 1c-.552 0-1 .448-1 1s.448 1 1 1 1-.448 1-1-.448-1-1-1zm-8.214-.463c.227-.158.282-.47.124-.696-.157-.227-.47-.28-.696-.124-1.073.749-1.714 1.977-1.714 3.283 0 2.206 1.794 4 4 4 .822 0 1.612-.248 2.286-.717.227-.157.283-.469.125-.695-.158-.227-.469-.283-.696-.125-.505.352-1.098.537-1.714.537-1.654 0-3-1.346-3-3 0-.98.481-1.901 1.286-2.463z"/></svg>