<svg id="Layer_1" viewBox="0 0 24 24" xmlns="http://www.w3.org/2000/svg" data-name="Layer 1"><path d="m19.25 21.5c0 .276-.224.5-.5.5h-1.594c-.36 0-.675-.204-.824-.531-.148-.328-.094-.7.143-.97l1.687-2.499h-1.412c-.276 0-.5-.224-.5-.5s.224-.5.5-.5h1.594c.36 0 .675.204.824.531.148.328.094.7-.143.97l-1.687 2.499h1.412c.276 0 .5.224.5.5zm2.25-3.5c.276 0 .5-.224.5-.5s-.224-.5-.5-.5h-.75c-.551 0-1 .449-1 1v3c0 .551.449 1 1 1h.75c.276 0 .5-.224.5-.5s-.224-.5-.5-.5h-.75v-1h.75c.276 0 .5-.224.5-.5s-.224-.5-.5-.5h-.75v-1zm-6.5-1c-.276 0-.5.224-.5.5v4c0 .276.224.5.5.5s.5-.224.5-.5v-4c0-.276-.224-.5-.5-.5zm-10.75 0h-2c-.276 0-.5.224-.5.5s.224.5.5.5h.5v3.5c0 .276.224.5.5.5s.5-.224.5-.5v-3.5h.5c.276 0 .5-.224.5-.5s-.224-.5-.5-.5zm4.75-5.5c0-.276-.224-.5-.5-.5s-.5.224-.5.5v3c0 .276-.224.5-.5.5s-.5-.224-.5-.5v-3c0-.276-.224-.5-.5-.5s-.5.224-.5.5v3c0 .827.673 1.5 1.5 1.5s1.5-.673 1.5-1.5zm-1 7v2c0 .827-.673 1.5-1.5 1.5s-1.5-.673-1.5-1.5v-2c0-.827.673-1.5 1.5-1.5s1.5.673 1.5 1.5zm-1 0c0-.276-.224-.5-.5-.5s-.5.224-.5.5v2c0 .276.224.5.5.5s.5-.224.5-.5zm5.25-1.5c-.386 0-.734.15-1 .39-.266-.24-.614-.39-1-.39-.231 0-.448.057-.643.151-.091-.093-.216-.151-.357-.151-.276 0-.5.224-.5.5v4c0 .276.224.5.5.5s.5-.224.5-.5v-3c0-.276.224-.5.5-.5s.5.224.5.5v3c0 .276.224.5.5.5s.5-.224.5-.5v-3c0-.276.224-.5.5-.5s.5.224.5.5v3c0 .276.224.5.5.5s.5-.224.5-.5v-3c0-.827-.673-1.5-1.5-1.5zm-7.383-2.433c-.241-.14-.545-.057-.683.182-.089.155-.255.25-.434.25-.276 0-.5-.224-.5-.5v-2c0-.276.224-.5.5-.5.178 0 .344.096.434.25.138.238.442.32.683.182.239-.138.321-.444.182-.683-.267-.462-.765-.75-1.299-.75-.827 0-1.5.673-1.5 1.5v2c0 .827.673 1.5 1.5 1.5.534 0 1.032-.287 1.299-.75.139-.239.057-.545-.182-.683zm17.839-4.192c.815.837 1.294 1.948 1.294 3.125v6c0 2.481-2.019 4.5-4.5 4.5h-15c-2.481 0-4.5-2.019-4.5-4.5v-6c0-2.481 2.019-4.5 4.5-4.5h7.002c-.322-.77-.502-1.614-.502-2.5 0-3.584 2.916-6.5 6.5-6.5s6.5 2.916 6.5 6.5c0 1.453-.485 2.792-1.294 3.875zm-10.706-3.875c-.008 2.978 2.447 5.503 5.5 5.5 3.033 0 5.5-2.467 5.5-5.5s-2.467-5.5-5.5-5.5-5.5 2.467-5.5 5.5zm11 7c0-.886-.352-1.723-.949-2.367-1.174 1.153-2.78 1.867-4.551 1.867-2.295 0-4.312-1.199-5.468-3h-7.532c-1.93 0-3.5 1.57-3.5 3.5v6c0 1.93 1.57 3.5 3.5 3.5h15c1.93 0 3.5-1.57 3.5-3.5zm-8.5-5v-.635c0-.667.26-1.295.732-1.768l2.544-2.544c.713-.714 1.958-.713 2.67 0 .357.356.553.831.553 1.335s-.196.979-.553 1.335l-2.544 2.544c-.472.472-1.1.732-1.768.732h-.635c-.551 0-1-.449-1-1zm1 0h.635c.395 0 .781-.16 1.061-.439l2.544-2.544c.168-.168.26-.391.26-.628s-.092-.46-.26-.628-.391-.26-.628-.26-.46.092-.628.26l-2.544 2.544c-.279.279-.439.666-.439 1.061v.635zm-4.985 5.034s.562.251 1.186.481c.132.049.557.229.506.516-.038.212-.3.432-.672.432-.259 0-.511-.07-.721-.194-.193-.114-.439-.078-.605.072-.256.233-.216.649.083.825.366.216.796.334 1.243.334.848 0 1.559-.542 1.693-1.287.1-.564-.154-1.297-1.168-1.672-.547-.202-1.043-.42-1.056-.42-.118-.08-.114-.201-.108-.25.009-.065.057-.226.3-.299.287-.085.562-.017.762.07s.432.032.573-.134c.204-.24.137-.611-.143-.757-.361-.189-.891-.353-1.492-.172-.557.168-.95.607-1.028 1.145-.072.506.147.994.645 1.31z"/></svg>