<?xml version="1.0" encoding="UTF-8"?>
<svg xmlns="http://www.w3.org/2000/svg" id="Layer_1" data-name="Layer 1" viewBox="0 0 24 24">
  <path d="M2,8c-1.103,0-2,.897-2,2v4c0,1.103,.897,2,2,2s2-.897,2-2v-4c0-1.103-.897-2-2-2Zm1,6c0,.552-.448,1-1,1s-1-.448-1-1v-4c0-.551,.448-1,1-1s1,.449,1,1v4Zm4-6c-1.103,0-2,.897-2,2v4c0,1.103,.897,2,2,2s2-.897,2-2v-4c0-1.103-.897-2-2-2Zm1,6c0,.552-.448,1-1,1s-1-.448-1-1v-4c0-.551,.448-1,1-1s1,.449,1,1v4Zm4-6c-1.103,0-2,.897-2,2v4c0,1.103,.897,2,2,2s2-.897,2-2v-4c0-1.103-.897-2-2-2Zm1,6c0,.552-.448,1-1,1s-1-.448-1-1v-4c0-.551,.448-1,1-1s1,.449,1,1v4Zm4-6c-1.103,0-2,.897-2,2v4c0,1.103,.897,2,2,2s2-.897,2-2v-4c0-1.103-.897-2-2-2Zm1,6c0,.552-.448,1-1,1s-1-.448-1-1v-4c0-.551,.448-1,1-1s1,.449,1,1v4Zm4-6c-1.103,0-2,.897-2,2v4c0,1.103,.897,2,2,2s2-.897,2-2v-4c0-1.103-.897-2-2-2Zm1,6c0,.552-.448,1-1,1s-1-.448-1-1v-4c0-.551,.448-1,1-1s1,.449,1,1v4Z"/>
</svg>
