<svg id="Layer_1" viewBox="0 0 24 24" xmlns="http://www.w3.org/2000/svg" data-name="Layer 1"><path d="m13.162 13.94c-.641-.627-1.684-.627-2.324 0l-.959.938c-.567.566-.879 1.32-.879 2.121s.312 1.555.879 2.121c.566.567 1.319.879 2.121.879s1.555-.312 2.121-.879c.567-.566.879-1.32.879-2.121s-.312-1.555-.883-2.125l-.955-.935zm.252 4.474c-.755.756-2.073.756-2.828 0-.378-.378-.586-.88-.586-1.414s.208-1.036.582-1.41l.955-.935c.127-.125.295-.188.463-.188s.335.062.462.188l.952.931c.378.378.586.88.586 1.414s-.208 1.036-.586 1.414zm3.586-9.378v-1.036c0-1.103-.897-2-2-2h-.571l-.88-4.714c-.14-.745-.791-1.286-1.548-1.286s-1.409.541-1.548 1.286l-.88 4.714h-.571c-1.103 0-2 .897-2 2v1.036c-1.694.243-3 1.704-3 3.464v7c0 2.481 2.019 4.5 4.5 4.5h7c2.481 0 4.5-2.019 4.5-4.5v-7c0-1.76-1.306-3.221-3-3.464zm-5.565-7.567c.051-.272.289-.469.565-.469s.514.197.565.469l.846 4.531h-2.822zm-2.435 5.531h6c.551 0 1 .449 1 1v1h-8v-1c0-.551.449-1 1-1zm10 12.5c0 1.93-1.57 3.5-3.5 3.5h-7c-1.93 0-3.5-1.57-3.5-3.5v-7c0-1.378 1.122-2.5 2.5-2.5h9c1.378 0 2.5 1.122 2.5 2.5z"/></svg>