<svg id="Layer_1" viewBox="0 0 24 24" xmlns="http://www.w3.org/2000/svg" data-name="Layer 1"><path d="m14.742 12.5h3.308c.24 1.416 1.466 2.5 2.949 2.5 1.654 0 3-1.346 3-3s-1.346-3-3-3c-1.483 0-2.71 1.084-2.949 2.5h-3.308c-1.185 0-2.344-.48-3.182-1.318l-2.432-2.432 1.932-1.932c.838-.837 1.997-1.318 3.182-1.318h3.808c.24 1.416 1.466 2.5 2.949 2.5 1.654 0 3-1.346 3-3s-1.346-3-3-3c-1.483 0-2.71 1.084-2.949 2.5h-3.808c-1.447 0-2.865.587-3.889 1.611l-1.932 1.932-2.734-2.735c.194-.397.313-.837.313-1.308 0-1.654-1.346-3-3-3s-3 1.346-3 3 1.346 3 3 3c.818 0 1.559-.331 2.101-.864l2.613 2.614-2.384 2.384c-.55-.686-1.385-1.134-2.33-1.134-1.654 0-3 1.346-3 3s1.346 3 3 3c.946 0 1.78-.448 2.33-1.134l2.384 2.384-2.613 2.614c-.542-.533-1.283-.864-2.101-.864-1.654 0-3 1.346-3 3s1.346 3 3 3 3-1.346 3-3c0-.471-.119-.911-.313-1.308l2.734-2.735 1.932 1.932c1.023 1.024 2.441 1.611 3.889 1.611h3.808c.24 1.416 1.466 2.5 2.949 2.5 1.654 0 3-1.346 3-3s-1.346-3-3-3c-1.483 0-2.71 1.084-2.949 2.5h-3.808c-1.185 0-2.344-.48-3.182-1.318l-1.932-1.932 2.432-2.432c.838-.837 1.997-1.318 3.182-1.318zm6.258-2.5c1.103 0 2 .897 2 2s-.897 2-2 2-2-.897-2-2 .897-2 2-2zm0-8c1.103 0 2 .897 2 2s-.897 2-2 2-2-.897-2-2 .897-2 2-2zm-18 3c-1.103 0-2-.897-2-2s.897-2 2-2 2 .897 2 2-.897 2-2 2zm0 18c-1.103 0-2-.897-2-2s.897-2 2-2 2 .897 2 2-.897 2-2 2zm18-5c1.103 0 2 .897 2 2s-.897 2-2 2-2-.897-2-2 .897-2 2-2zm-18-4c-1.103 0-2-.897-2-2s.897-2 2-2 2 .897 2 2-.897 2-2 2zm5.422 1.543-2.591-2.591c.102-.301.169-.617.169-.952s-.068-.651-.169-.952l2.591-2.591 2.432 2.432c.472.472 1.034.839 1.638 1.111-.604.272-1.166.639-1.638 1.111z"/></svg>