<svg id="Layer_1" viewBox="0 0 24 24" xmlns="http://www.w3.org/2000/svg" data-name="Layer 1"><path d="m20 0c-1.917.027-4 .5-4 1.75v3.25h-8v-3.25c0-1.25-2.084-1.723-4-1.75-1.917.027-4 .5-4 1.75v7.583c0 1.055 1.687 1.57 3.5 1.651v2.034c-1.76.111-3.5.482-3.5 1.732v7.583c0 1.151 2.009 1.667 4 1.667s4-.516 4-1.667v-7.583c0-1.25-1.74-1.621-3.5-1.732v-2.034c1.813-.08 3.5-.596 3.5-1.651v-.766l8 6.667v7.099c0 1.151 2.009 1.667 4 1.667s4-.516 4-1.667v-7.583c0-1.25-2.084-1.723-4-1.75-1.553 0-3.181.363-3.763 1.13l-8.237-6.864v-1.266h8v3.333c0 1.151 2.009 1.667 4 1.667s4-.516 4-1.667v-7.583c0-1.263-2.19-1.75-4-1.75zm-16 1c1.922 0 2.939.55 3.001.741-.062.209-1.079.759-3.001.759-1.896 0-2.911-.535-2.998-.75.087-.215 1.103-.75 2.998-.75zm-3 1.946c.782.371 1.908.554 3 .554s2.219-.183 3.001-.555v1.361c-.099.2-1.124.694-3.001.694-1.857 0-2.882-.484-3-.688zm0 2.538c.77.347 1.881.516 3 .516s2.232-.17 3.002-.517v.005s-.002.008-.002.012.002.008.002.012v1.292c-.095.199-1.121.695-3.002.695-1.857 0-2.882-.484-3-.688v-1.328zm6.005 16.819c-.091.198-1.119.697-3.005.697s-2.914-.499-3-.667v-1.349c.77.347 1.881.516 3 .516s2.234-.17 3.004-.518v1.321zm0-2.498c-.095.199-1.122.695-3.003.695-1.857 0-2.882-.484-3-.688v-1.328c.77.347 1.881.516 3 .516s2.232-.17 3.002-.517v1.322zm-3.002-1.805c-1.857 0-2.882-.484-3-.688v-1.366c.782.371 1.908.554 3 .554s2.219-.183 3.001-.555v1.361c-.099.2-1.124.694-3.001.694zm3.001-3.259c-.062.209-1.079.759-3.001.759-1.896 0-2.911-.535-2.998-.75.087-.215 1.103-.75 2.998-.75 1.922 0 2.939.55 3.001.741zm-3.001-4.741c-1.886 0-2.914-.499-3-.667v-1.349c.77.347 1.881.516 3 .516s2.234-.17 3.004-.518v1.321c-.09.198-1.118.697-3.004.697zm16 4c1.922 0 2.939.55 3.001.741-.062.209-1.079.759-3.001.759-1.896 0-2.911-.535-2.998-.75.087-.215 1.103-.75 2.998-.75zm-3 1.946c.782.371 1.908.554 3 .554s2.219-.183 3.001-.555v1.361c-.099.2-1.124.694-3.001.694-1.857 0-2.882-.484-3-.688zm0 2.538c.77.347 1.881.516 3 .516s2.232-.17 3.002-.517v1.322c-.095.199-1.121.695-3.002.695-1.857 0-2.882-.484-3-.688zm0 2.5c.77.347 1.881.516 3 .516s2.234-.17 3.004-.518v1.321c-.09.198-1.118.697-3.004.697s-2.914-.499-3-.667zm2.997-19.984c1.922 0 2.939.55 3.001.741-.062.209-1.079.759-3.001.759-1.896 0-2.911-.535-2.998-.75.087-.215 1.103-.75 2.998-.75zm-3 1.946c.782.371 1.908.554 3 .554s2.219-.183 3.001-.555v1.361c-.099.2-1.124.694-3.001.694-1.857 0-2.882-.484-3-.688zm0 2.538c.77.347 1.881.516 3 .516s2.232-.17 3.002-.517v1.322c-.095.199-1.121.695-3.002.695-1.857 0-2.882-.484-3-.688zm3 4.516c-1.886 0-2.914-.499-3-.667v-1.349c.77.347 1.881.516 3 .516s2.234-.17 3.004-.518v1.321c-.09.198-1.118.697-3.004.697z"/></svg>