<?xml version="1.0" encoding="UTF-8"?>
<svg xmlns="http://www.w3.org/2000/svg" id="Layer_1" data-name="Layer 1" viewBox="0 0 24 24">
  <path d="m19,8.276v-1.276c0-3.859-3.141-7-7-7s-7,3.141-7,7v1.276c-1.742.621-3,2.271-3,4.224v7c0,2.481,2.019,4.5,4.5,4.5h11c2.481,0,4.5-2.019,4.5-4.5v-7c0-1.953-1.258-3.602-3-4.224Zm-13-.276v-1c0-3.309,2.691-6,6-6s6,2.691,6,6v1H6Zm15,11.5c0,1.93-1.57,3.5-3.5,3.5H6.5c-1.93,0-3.5-1.57-3.5-3.5v-7c0-1.93,1.57-3.5,3.5-3.5h11c1.93,0,3.5,1.57,3.5,3.5v7Zm-6.623-3.697c.386-.404.623-.951.623-1.553,0-1.24-1.01-2.25-2.25-2.25h-.25v-.5c0-.276-.224-.5-.5-.5s-.5.224-.5.5v.5h-.5c-.827,0-1.5.673-1.5,1.5v5c0,.827.673,1.5,1.5,1.5h.5v.5c0,.276.224.5.5.5s.5-.224.5-.5v-.5h.75c1.24,0,2.25-1.01,2.25-2.25,0-.83-.452-1.558-1.123-1.947Zm-3.877-2.303c0-.275.225-.5.5-.5h1.75c.689,0,1.25.561,1.25,1.25s-.561,1.25-1.25,1.25h-2.25v-2Zm2.75,5.5h-2.25c-.275,0-.5-.225-.5-.5v-2h2.75c.689,0,1.25.561,1.25,1.25s-.561,1.25-1.25,1.25Z"/>
</svg>
