<?xml version="1.0" encoding="UTF-8"?>
<svg xmlns="http://www.w3.org/2000/svg" id="Layer_1" data-name="Layer 1" viewBox="0 0 24 24">
  <path d="M21.977,2.961c-.931-1.747-2.462-2.991-3.977-2.961-3.364,0-6,5.271-6,12s2.636,12,6,12,6-5.271,6-12c0-3.646-.778-6.856-2.023-9.039Zm-.43,16.7c-.997-.463-1.729-1.353-1.958-2.434l-.6-2.83c-.049-.231-.251-.396-.487-.396h-.957c-.438,0-.539-.251-.545-.454,0-.845,2.614-7.399,4.026-9.145,.108-.144,.236-.274,.352-.413,.989,2.025,1.621,4.887,1.621,8.012,0,2.946-.56,5.663-1.452,7.661Zm-3.548,3.339c-2.71,0-5-5.037-5-11S15.29,1,18,1c1.052,0,2.039,.766,2.855,2.044-.219,.244-.43,.492-.618,.743-1.379,1.704-4.237,8.531-4.237,9.759,0,.585,.412,1.454,1.545,1.454h.549l.516,2.434c.293,1.381,1.216,2.529,2.482,3.128-.858,1.516-1.936,2.439-3.093,2.439ZM5.774,3.802c1.367,1.689,4.226,8.517,4.226,9.744,0,.585-.412,1.454-1.545,1.454h-.549l-.516,2.434c-.438,2.062-2.282,3.561-4.389,3.566v.5c0,1.379-1.122,2.5-2.5,2.5-.276,0-.5-.224-.5-.5s.224-.5,.5-.5c.827,0,1.5-.673,1.5-1.5v-1c0-.276,.224-.5,.5-.5h.487c1.643,0,3.083-1.167,3.424-2.773l.6-2.83c.049-.231,.251-.396,.487-.396h.957c.492,0,.545-.317,.545-.454,0-.845-2.614-7.399-4.015-9.13C3.786,2.814,2.181,1.629,.333,.971,.072,.879-.063,.593,.029,.332,.121,.072,.407-.067,.667,.029c2.034,.724,3.8,2.028,5.107,3.772Z"/>
</svg>
