<?xml version="1.0" encoding="UTF-8"?>
<svg xmlns="http://www.w3.org/2000/svg" id="Layer_1" data-name="Layer 1" viewBox="0 0 24 24">
  <path d="M8.144,3.851c-.193-.197-.191-.514,.005-.708L10.819,.514c.609-.655,1.776-.646,2.384,.023l2.648,2.606c.196,.194,.199,.511,.005,.708-.194,.196-.51,.199-.708,.005l-2.633-2.593-.016,7.238c0,.276-.225,.499-.5,.499h0c-.276,0-.5-.225-.499-.501l.016-7.269-2.665,2.626c-.199,.193-.514,.19-.708-.005Zm13.856,10.149c0,5.514-4.486,10-10,10S2,19.514,2,14c0-3.23,1.574-6.279,4.21-8.154,.226-.16,.538-.107,.697,.117,.16,.225,.107,.538-.117,.697-1.408,1.002-2.468,2.379-3.107,3.937l6.636,1.241c1.077,.215,2.171,.214,3.238,.001l6.72-1.33c-.643-1.522-1.687-2.867-3.068-3.85-.225-.16-.277-.472-.117-.697,.159-.225,.471-.279,.697-.117,2.636,1.875,4.21,4.924,4.21,8.154Zm-12,8.768v-3.848c0-.459-.116-.916-.334-1.32l-.51-.943c-.394-.727-1.084-1.237-1.895-1.399l-4.24-.857c.181,4.095,3.104,7.484,6.98,8.368Zm2,.232c.338,0,.671-.022,1-.059v-4.021c0-.625,.157-1.246,.455-1.796l.511-.944c.536-.989,1.476-1.683,2.578-1.903l4.422-.852c-.043-.671-.16-1.327-.348-1.962l-6.864,1.359c-1.188,.238-2.432,.238-3.623,0l-6.776-1.267c-.169,.594-.274,1.205-.317,1.829l4.42,.894c1.102,.221,2.041,.915,2.577,1.903l.511,.943c.297,.55,.455,1.171,.455,1.796v4.021c.329,.037,.662,.059,1,.059Zm8.978-8.559l-4.241,.817c-.807,.161-1.498,.671-1.892,1.398l-.511,.943c-.218,.404-.334,.86-.334,1.32v3.848c3.862-.881,6.778-4.25,6.978-8.327Z"/>
</svg>
