<?xml version="1.0" encoding="UTF-8"?>
<svg xmlns="http://www.w3.org/2000/svg" id="Layer_1" data-name="Layer 1" viewBox="0 0 24 24">
  <path d="M.532,10.996c.021,.003,.044,.004,.065,.004,.247,0,.462-.184,.495-.436,.186-1.424,.65-2.767,1.36-4.008,.453,.275,.979,.443,1.547,.443,1.654,0,3-1.346,3-3,0-.568-.168-1.094-.443-1.547,1.242-.71,2.585-1.175,4.007-1.36,.273-.036,.467-.286,.432-.56-.036-.274-.296-.47-.561-.431-1.621,.211-3.15,.747-4.553,1.582-.516-.421-1.166-.683-1.883-.683-1.654,0-3,1.346-3,3,0,.716,.263,1.366,.683,1.883C.849,7.285,.312,8.814,.101,10.436c-.035,.273,.157,.524,.432,.56ZM4,2c1.103,0,2,.897,2,2s-.897,2-2,2-2-.897-2-2,.897-2,2-2Zm6.564,20.907c-1.422-.185-2.766-.65-4.007-1.36,.275-.453,.443-.979,.443-1.547,0-1.654-1.346-3-3-3-.568,0-1.094,.168-1.547,.443-.709-1.241-1.174-2.584-1.36-4.007-.036-.274-.293-.47-.561-.431-.274,.036-.467,.287-.432,.56,.212,1.622,.748,3.151,1.583,4.553-.421,.516-.683,1.166-.683,1.883,0,1.654,1.346,3,3,3,.716,0,1.366-.263,1.883-.683,1.403,.835,2.932,1.371,4.553,1.582,.021,.003,.044,.004,.065,.004,.247,0,.462-.184,.495-.436,.035-.274-.158-.524-.432-.56Zm-6.564-.907c-1.103,0-2-.897-2-2s.897-2,2-2,2,.897,2,2-.897,2-2,2ZM23.468,13.004c-.267-.039-.524,.157-.561,.431-.186,1.423-.65,2.766-1.36,4.007-.453-.275-.979-.443-1.547-.443-1.654,0-3,1.346-3,3,0,.568,.168,1.094,.443,1.547-1.242,.71-2.585,1.175-4.007,1.36-.273,.036-.467,.286-.432,.56,.033,.252,.248,.436,.495,.436,.021,0,.044-.001,.065-.004,1.621-.211,3.15-.747,4.553-1.582,.516,.421,1.166,.683,1.883,.683,1.654,0,3-1.346,3-3,0-.716-.263-1.365-.683-1.882,.834-1.403,1.37-2.932,1.582-4.554,.035-.273-.157-.524-.432-.56Zm-3.468,8.996c-1.103,0-2-.897-2-2s.897-2,2-2,2,.897,2,2-.897,2-2,2ZM13.436,1.093c1.422,.185,2.766,.65,4.007,1.36-.275,.453-.443,.979-.443,1.547,0,1.654,1.346,3,3,3,.568,0,1.094-.168,1.547-.443,.709,1.241,1.174,2.584,1.36,4.007,.033,.252,.248,.436,.495,.436,.021,0,.044-.001,.065-.004,.274-.036,.467-.287,.432-.56-.212-1.622-.748-3.151-1.583-4.553,.421-.516,.683-1.166,.683-1.883,0-1.654-1.346-3-3-3-.716,0-1.366,.263-1.883,.683-1.403-.835-2.932-1.371-4.553-1.582-.27-.039-.524,.157-.561,.431-.035,.274,.158,.524,.432,.56Zm6.564,.907c1.103,0,2,.897,2,2s-.897,2-2,2-2-.897-2-2,.897-2,2-2Zm-8.176,2.353c-.195-.196-.193-.513,.002-.708,.196-.195,.513-.192,.707,.002l2.206,2.222c.15,.15,.261,.399,.261,.631s-.11,.48-.261,.631l-2.206,2.221c-.098,.098-.226,.147-.354,.147-.127,0-.255-.048-.353-.145-.195-.195-.197-.511-.002-.708l1.635-1.647h-1.46c-2.757,0-5,2.243-5,5,0,.801,.184,1.566,.545,2.272,.126,.246,.028,.547-.218,.673-.072,.037-.15,.055-.228,.055-.182,0-.356-.099-.445-.272-.435-.849-.654-1.766-.654-2.728,0-3.309,2.691-6,6-6h1.46l-1.635-1.647Zm.352,15.295c.195,.196,.193,.513-.002,.708-.098,.097-.226,.145-.353,.145-.129,0-.257-.049-.354-.147l-2.206-2.222c-.15-.15-.261-.401-.261-.631s.11-.48,.261-.631l2.206-2.221c.194-.195,.511-.198,.707-.002,.195,.195,.197,.511,.002,.708l-1.635,1.647h1.46c2.757,0,5-2.243,5-5,0-.801-.184-1.566-.545-2.272-.126-.246-.028-.547,.218-.673,.244-.124,.547-.028,.673,.218,.435,.849,.654,1.766,.654,2.728,0,3.309-2.691,6-6,6h-1.46l1.635,1.647Z"/>
</svg>
