<svg id="Layer_1" viewBox="0 0 24 24" xmlns="http://www.w3.org/2000/svg" data-name="Layer 1"><path d="m23.854 10.146c-.195-.195-.512-.195-.707 0l-.709.709-1.456-1.457c-2.831-2.83-7.232-3.145-10.42-.958l-8.001-8.001c-.584-.585-1.538-.585-2.122 0-.585.585-.585 1.537 0 2.122l8.002 8.001c-2.187 3.188-1.871 7.588.96 10.418l1.457 1.456-.711.711c-.195.195-.195.512 0 .707s.512.195.707 0l13-13c.195-.195.195-.512 0-.707zm-22.708-8.292c-.195-.195-.195-.512 0-.707s.512-.195.707 0l7.917 7.917c-.124.11-.251.216-.37.335-.12.12-.226.247-.337.372zm9.163 18.62 8.546-8.622c.194-.196.192-.513-.004-.707-.195-.195-.513-.193-.707.003l-8.518 8.593c-2.311-2.821-2.151-7.003.48-9.635 2.802-2.801 7.363-2.803 10.167 0l1.456 1.457-10.166 10.166-1.255-1.255z"/></svg>