<svg id="Layer_1" viewBox="0 0 24 24" xmlns="http://www.w3.org/2000/svg" data-name="Layer 1"><path d="m22 7c-.929 0-1.705.64-1.929 1.5h-2.071c-.552 0-1-.448-1-1v-3c0-.552.448-1 1-1h2.071c.224.86 1 1.5 1.929 1.5 1.103 0 2-.897 2-2s-.897-2-2-2c-.929 0-1.705.64-1.929 1.5h-2.071c-1.103 0-2 .897-2 2v1h-2.5c-.276 0-.5.224-.5.5s.224.5.5.5h2.5v1c0 1.103.897 2 2 2h2.071c.224.86 1 1.5 1.929 1.5 1.103 0 2-.897 2-2s-.897-2-2-2zm0-5c.552 0 1 .448 1 1s-.448 1-1 1-1-.448-1-1 .448-1 1-1zm0 8c-.552 0-1-.448-1-1s.448-1 1-1 1 .448 1 1-.448 1-1 1zm-16-2c1.103 0 2-.897 2-2s-.897-2-2-2-2 .897-2 2 .897 2 2 2zm0-3c.551 0 1 .448 1 1s-.449 1-1 1-1-.448-1-1 .449-1 1-1zm-5.332 2.903c-.101.389-.044.792.159 1.137.203.346.528.592.917.692.389.104.792.045 1.137-.159l.223-.131c.408.34.881.606 1.396.786v.271c0 .827.673 1.5 1.5 1.5s1.5-.673 1.5-1.5v-.271c.515-.18.988-.446 1.396-.786l.223.131c.346.204.751.264 1.137.159.388-.101.713-.347.916-.691.204-.346.26-.749.16-1.138-.101-.388-.346-.713-.692-.917l-.233-.137c.064-.299.094-.575.094-.85s-.03-.551-.094-.851l.233-.137c.346-.203.591-.528.692-.917.101-.388.044-.791-.159-1.136-.203-.346-.528-.592-.917-.692-.386-.102-.791-.044-1.137.159l-.223.131c-.408-.34-.881-.606-1.396-.786v-.271c0-.827-.673-1.5-1.5-1.5s-1.5.673-1.5 1.5v.271c-.515.18-.988.446-1.396.786l-.223-.131c-.345-.203-.749-.261-1.137-.159-.388.101-.713.347-.916.691-.204.346-.26.749-.16 1.137.101.389.347.714.692.916l.234.138c-.064.3-.094.576-.094.851s.03.551.094.85l-.234.138c-.345.203-.591.528-.691.916zm1.982-.948c-.103-.361-.151-.665-.151-.955s.048-.594.151-.955c.062-.219-.031-.452-.228-.567l-.557-.328c-.234-.131-.318-.455-.177-.684.131-.235.456-.318.684-.178l.541.318c.195.117.447.085.607-.077.43-.432.984-.743 1.603-.903.221-.058.375-.257.375-.484v-.642c0-.275.224-.5.5-.5s.5.225.5.5v.642c0 .228.154.427.375.484.619.16 1.173.472 1.603.903.16.162.412.194.607.077l.541-.318c.229-.142.552-.057.685.179.141.228.056.552-.178.684l-.556.327c-.196.115-.29.349-.228.567.103.361.151.665.151.955s-.048.594-.151.955c-.062.219.031.453.228.568l.556.325c.234.132.319.456.177.686-.132.234-.454.32-.684.178l-.541-.318c-.196-.117-.447-.084-.607.077-.43.432-.984.743-1.603.903-.221.058-.375.257-.375.484v.642c0 .275-.224.5-.5.5s-.5-.225-.5-.5v-.642c0-.228-.154-.427-.375-.484-.619-.16-1.173-.472-1.603-.903-.161-.162-.413-.193-.607-.077l-.541.318c-.229.142-.552.057-.685-.179-.141-.228-.056-.553.177-.684l.556-.326c.197-.115.291-.35.228-.568zm20.53 5.699c1.012.923 1.094 2.505.183 3.526l-6.806 7.64c-.184.206-.5.223-.706.04-.206-.184-.224-.499-.04-.706l6.806-7.64c.548-.614.499-1.565-.11-2.121-.298-.271-.685-.404-1.088-.392-.403.019-.774.193-1.046.492l-4.503 4.948s-.004.003-.006.005c-.305.938-1.117 1.666-2.133 1.811l-6.172.738c-.282.04-.523-.162-.556-.437-.033-.274.163-.523.437-.556l6.161-.737c.793-.113 1.398-.812 1.398-1.624 0-.905-.737-1.643-1.643-1.643h-9.856c-1.378 0-2.5 1.121-2.5 2.5v5c0 .276-.224.5-.5.5s-.5-.224-.5-.5v-5c0-1.93 1.57-3.5 3.5-3.5h9.857c1.209 0 2.221.822 2.533 1.932l3.742-4.112c.451-.496 1.069-.786 1.739-.817.663-.037 1.312.2 1.809.651z"/></svg>