<svg id="Layer_1" viewBox="0 0 24 24" xmlns="http://www.w3.org/2000/svg" data-name="Layer 1"><path d="m24 13.5v1c0 2.481-2.019 4.5-4.5 4.5h-7v4h5c.276 0 .5.224.5.5s-.224.5-.5.5h-11c-.276 0-.5-.224-.5-.5s.224-.5.5-.5h5v-4h-7c-2.481 0-4.5-2.019-4.5-4.5v-10c0-2.481 2.019-4.5 4.5-4.5h7.5c.276 0 .5.224.5.5s-.224.5-.5.5h-7.5c-1.93 0-3.5 1.57-3.5 3.5v10c0 1.93 1.57 3.5 3.5 3.5h15c1.93 0 3.5-1.57 3.5-3.5v-1c0-.276.224-.5.5-.5s.5.224.5.5zm0-9.621v3.121c-.175 3.704-2.659 5.235-4.513 6.066-.307.138-.631.206-.954.206-.378 0-.756-.094-1.102-.281-1.821-.985-4.262-2.676-4.431-5.966v-3.146c0-1.296.825-2.44 2.055-2.848l2.796-.926c.418-.139.881-.139 1.299 0l2.795.926c1.229.408 2.056 1.552 2.056 2.848zm-.999 3.098v-3.098c0-.864-.552-1.627-1.371-1.898l-2.795-.926c-.217-.072-.453-.072-.67 0l-2.795.926c-.819.271-1.37 1.035-1.37 1.898v3.121c.141 2.731 2.162 4.168 3.908 5.112.363.196.788.213 1.169.042 1.75-.785 3.777-2.083 3.924-5.178zm-15.001 3.023c-1.103 0-2-.897-2-2s.897-2 2-2 2 .897 2 2-.897 2-2 2zm0-1c.552 0 1-.449 1-1s-.448-1-1-1-1 .449-1 1 .448 1 1 1zm-3.96 5.429c-.039.273.15.527.424.566.266.027.526-.15.566-.424.21-1.466 1.486-2.571 2.97-2.571s2.76 1.105 2.97 2.571c.039.275.299.463.566.424.273-.039.463-.293.424-.566-.28-1.955-1.982-3.429-3.96-3.429s-3.68 1.474-3.96 3.429zm16.96-9.929c0 1.103-.897 2-2 2v3h.5c.276 0 .5.224.5.5s-.224.5-.5.5h-.5c-.552 0-1-.449-1-1v-3c-1.103 0-2-.897-2-2s.897-2 2-2h1c1.103 0 2 .897 2 2zm-1 0c0-.551-.448-1-1-1h-1c-.552 0-1 .449-1 1s.448 1 1 1h1c.552 0 1-.449 1-1z"/></svg>