<?xml version="1.0" encoding="UTF-8"?>
<svg xmlns="http://www.w3.org/2000/svg" id="Layer_1" data-name="Layer 1" viewBox="0 0 24 24">
  <path d="M24,13c0,6.065-4.935,11-11,11h-2C5.114,24,.287,19.398,.013,13.523c-.014-.275,.2-.51,.476-.522,.267-.039,.511,.2,.522,.476,.251,5.34,4.639,9.523,9.989,9.523h2c5.514,0,10-4.486,10-10,0-.276,.224-.5,.5-.5s.5,.224,.5,.5Zm-20-1v-4C4,3.589,7.589,0,12,0s8,3.589,8,8v4c0,4.411-3.589,8-8,8s-8-3.589-8-8Zm1.295-6h4.705c.276,0,.5,.224,.5,.5s-.224,.5-.5,.5H5.08c-.047,.328-.08,.66-.08,1v1.5h5c.276,0,.5,.224,.5,.5s-.224,.5-.5,.5H5v1.5c0,.34,.033,.672,.08,1h4.92c.276,0,.5,.224,.5,.5s-.224,.5-.5,.5H5.295c.863,2.887,3.541,5,6.705,5s5.842-2.113,6.705-5h-4.705c-.276,0-.5-.224-.5-.5s.224-.5,.5-.5h4.92c.047-.328,.08-.66,.08-1v-1.5h-5c-.276,0-.5-.224-.5-.5s.224-.5,.5-.5h5v-1.5c0-.34-.033-.672-.08-1h-4.92c-.276,0-.5-.224-.5-.5s.224-.5,.5-.5h4.705c-.863-2.888-3.541-5-6.705-5S6.158,3.112,5.295,6Z"/>
</svg>
