<svg id="Layer_1" viewBox="0 0 24 24" xmlns="http://www.w3.org/2000/svg" data-name="Layer 1"><path d="m22.938 9.257-5-9c-.136-.242-.441-.324-.681-.194-.241.135-.328.438-.194.681l4.588 8.257h-4.058l-4.677-1.799c-.588-.227-1.227-.208-1.8.053-.573.26-1.009.729-1.225 1.317l-5.494 14.754c-.096.259.036.547.294.644.252.095.547-.033.643-.294l3.136-8.422 4.91 3.554c.389.281.62.735.62 1.215v3.479c0 .276.224.5.5.5s.5-.224.5-.5v-3.479c0-.8-.387-1.557-1.034-2.025l-1.632-1.181 2.856-7.668 2.13.819c.058.021.118.033.18.033h5c.177 0 .341-.094.431-.246.09-.153.093-.342.007-.497zm-11.444 6.95-2.661-1.926 1.996-5.359s0 0 0-.001c.124-.339.373-.606.7-.755.328-.149.693-.159 1.028-.03l1.7.654-2.763 7.418zm1.507-10.206c1.379 0 2.5-1.121 2.5-2.5s-1.121-2.5-2.5-2.5-2.5 1.121-2.5 2.5 1.122 2.5 2.5 2.5zm0-4c.827 0 1.5.673 1.5 1.5s-.673 1.5-1.5 1.5-1.5-.673-1.5-1.5.673-1.5 1.5-1.5zm-8.001 4.999c0-1.103-.897-2-2-2s-2 .897-2 2 .897 2 2 2 2-.897 2-2zm-2 1c-.551 0-1-.448-1-1s.449-1 1-1 1 .448 1 1-.449 1-1 1z"/></svg>