<?xml version="1.0" encoding="UTF-8"?>
<svg xmlns="http://www.w3.org/2000/svg" id="Layer_1" data-name="Layer 1" viewBox="0 0 24 24">
  <path d="m15,6c0-1.103-.897-2-2-2h-.95c-.579,0-1.05.471-1.05,1.05v5.45c0,.276.224.5.5.5s.5-.224.5-.5l.022-2.5h.978c1.103,0,2-.897,2-2Zm-2,1h-.969l.019-2h.95c.552,0,1,.449,1,1s-.448,1-1,1Zm6,2c0-.551-.448-1-1-1h-1c-.276,0-.5-.224-.5-.5s.224-.5.5-.5h1c.552,0,1-.449,1-1s-.448-1-1-1h-1.5c-.276,0-.5-.224-.5-.5s.224-.5.5-.5h1.5c1.103,0,2,.897,2,2,0,.6-.271,1.133-.691,1.5.42.367.691.9.691,1.5,0,1.103-.897,2-2,2h-1.5c-.276,0-.5-.224-.5-.5s.224-.5.5-.5h1.5c.552,0,1-.449,1-1Zm.5-9H4.5C2.019,0,0,2.019,0,4.5v15c0,2.481,2.019,4.5,4.5,4.5h9.515c1.735,0,3.368-.676,4.597-1.904l3.484-3.485c1.228-1.227,1.904-2.859,1.904-4.596V4.5c0-2.481-2.019-4.5-4.5-4.5ZM4.5,23c-1.93,0-3.5-1.57-3.5-3.5V4.5c0-1.93,1.57-3.5,3.5-3.5h15c1.93,0,3.5,1.57,3.5,3.5v9.515c0,.335-.038.663-.096.985h-5.404c-1.379,0-2.5,1.122-2.5,2.5v5.404c-.323.058-.651.096-.985.096H4.5Zm16.889-5.096l-3.484,3.485c-.551.55-1.2.959-1.904,1.231v-5.12c0-.827.673-1.5,1.5-1.5h5.121c-.273.704-.682,1.354-1.232,1.904ZM9.144,4.875l.406,5.602c.021.282-.203.523-.486.523h-.034c-.256,0-.469-.198-.486-.454l-.345-5.024-1.228,2.696c-.173.381-.714.38-.887,0l-1.229-2.703-.38,5.034c-.019.254-.231.451-.486.451-.283,0-.507-.24-.486-.523l.406-5.602c.037-.617.413-.875.864-.875.299,0,.578.212.736.56l1.018,2.24,1.018-2.24c.158-.348.437-.56.736-.56.451,0,.827.258.864.875Z"/>
</svg>
