<svg id="Layer_1" viewBox="0 0 24 24" xmlns="http://www.w3.org/2000/svg" data-name="Layer 1"><path d="m23.208 14.278-2.505-4.638 2.279-4.256c.537-1.008.295-2.262-.565-2.917-1.056-.848-2.744-.483-3.351.719l-.924 1.712-.923-1.709c-.61-1.205-2.293-1.569-3.354-.721-.858.656-1.102 1.91-.564 2.917l1.623 3.037c-.552-.045-1.111.114-1.563.459-.551.42-.845 1.087-.846 1.776-1.475-.472-3.03.931-2.783 2.445-.627-.12-1.278.028-1.794.421-.859.655-1.102 1.909-.566 2.915l2.064 3.911c1.161 2.231 3.582 3.65 6.088 3.65 1.143 0 2.232-.275 3.257-.822l2.096-1.226c2.759-1.471 3.806-4.913 2.332-7.674zm-3.261-10.619c.339-.67 1.277-.873 1.864-.397.474.361.598 1.071.289 1.651l-1.967 3.673-1.424-2.637 1.237-2.29zm.441 17.42-2.096 1.226c-1.39.74-2.984.896-4.49.438s-2.744-1.476-3.484-2.863l-2.063-3.911c-.31-.58-.186-1.29.289-1.651.586-.474 1.523-.273 1.862.394l1.545 2.953c.128.245.429.34.675.211.245-.128.339-.43.211-.675l-1.952-3.715c-.31-.58-.185-1.29.289-1.651.561-.453 1.444-.293 1.811.319l2.045 3.87c.128.247.436.337.675.21.244-.128.339-.431.21-.675l-2.237-4.232c-.31-.58-.186-1.29.289-1.651.521-.418 1.392-.445 1.905.376l2.239 4.333c.132.245.438.334.676.206.244-.129.337-.432.208-.675l-4.811-9.002c-.31-.58-.186-1.29.288-1.651.302-.229.672-.312 1.03-.233s.662.308.836.633l5.989 11.09c1.212 2.272.35 5.106-1.938 6.328zm-9.388-17.806c0-1.927-1.205-3.273-3-3.273-1.041 0-1.979.563-2.519 1.395-.529-.793-1.423-1.395-2.481-1.395-1.923 0-3 1.346-3 3.273 0 2.108 2.206 4.774 3.689 6.053.525.452 1.168.678 1.811.678s1.286-.226 1.811-.678c1.483-1.278 3.689-3.945 3.689-6.053zm-4.342 5.295c-.671.579-1.645.579-2.315 0-1.388-1.196-3.342-3.629-3.342-5.295-.001-1.359.803-2.273 1.999-2.273 1.126 0 2 1.075 2 2 0 .276.224.5.5.5s.5-.224.5-.5c0-1.084.916-2 2-2 1.196 0 2 .914 2 2.273 0 1.666-1.954 4.099-3.342 5.295z"/></svg>