<svg id="Layer_1" viewBox="0 0 24 24" xmlns="http://www.w3.org/2000/svg" data-name="Layer 1"><path d="m11.976 23.455c.024.275-.178.519-.453.543-.271.026-.519-.177-.543-.453-.233-2.591-2.374-4.545-4.979-4.545s-4.746 1.954-4.979 4.545c-.025.275-.271.464-.543.453-.275-.024-.478-.268-.453-.543.28-3.11 2.85-5.455 5.976-5.455s5.695 2.345 5.976 5.455zm-9.976-11.455c0-2.206 1.794-4 4-4s4 1.794 4 4-1.794 4-4 4-4-1.794-4-4zm1 0c0 1.654 1.346 3 3 3s3-1.346 3-3-1.346-3-3-3-3 1.346-3 3zm21-5.5c0 3.584-2.916 6.5-6.5 6.5s-6.5-2.916-6.5-6.5 2.916-6.5 6.5-6.5 6.5 2.916 6.5 6.5zm-1 0c0-3.033-2.468-5.5-5.5-5.5s-5.5 2.467-5.5 5.5 2.468 5.5 5.5 5.5 5.5-2.467 5.5-5.5zm-1.499-.014c0 .38-.146.736-.412 1.004l-1.801 1.837c-.344.297-.771.37-1.167.19-.383-.175-.621-.545-.621-.967v-1.551h-3c-.276 0-.5-.224-.5-.5s.224-.5.5-.5h3v-1.558c0-.42.237-.79.619-.966.383-.175.817-.114 1.136.158l1.831 1.854c.267.266.413.62.415.997zm-1 .003c0-.111-.044-.215-.122-.292 0-.001-.002-.002-.004-.004l-1.802-1.828-.073.077v4.109l.075.075 1.802-1.838c.081-.081.124-.186.124-.298z"/></svg>