<svg id="Layer_1" viewBox="0 0 24 24" xmlns="http://www.w3.org/2000/svg" data-name="Layer 1"><path d="m17.5 6c0-3.309-2.691-6-6-6s-6 2.691-6 6c0 3.14 2.425 5.719 5.5 5.975v2.025h-.258c-.395 0-.781-.16-1.061-.439l-1.075-1.075c-.647-.647-1.699-.646-2.383.042l-1.515 1.905c-.286.36-.715.567-1.174.567h-1.035c-1.379 0-2.5 1.121-2.5 2.5v3c0 1.379 1.121 2.5 2.5 2.5h1.188c.484 0 .963.078 1.423.231l1.461.486c.562.188 1.147.282 1.739.282h3.014c1.736 0 3.19-1.245 3.459-2.96.716-4.592.716-5.048.716-5.198 0-1.05-.837-1.842-1.947-1.842h-1.553v-2.025c3.075-.255 5.5-2.835 5.5-5.975zm-3.947 9c.456 0 .947.264.947.842 0 .159-.068.969-.704 5.044-.191 1.225-1.23 2.114-2.471 2.114h-3.014c-.484 0-.963-.078-1.423-.231l-1.461-.486c-.562-.188-1.147-.282-1.739-.282h-1.188c-.827 0-1.5-.673-1.5-1.5v-3c0-.827.673-1.5 1.5-1.5h1.035c.766 0 1.479-.345 1.957-.944l1.477-1.863c.257-.257.676-.255.931 0l1.075 1.075c.473.473 1.1.732 1.768.732h2.811zm-2.053-4c-2.757 0-5-2.243-5-5s2.243-5 5-5 5 2.243 5 5-2.243 5-5 5zm-1.5-6.392c0 .272.172.514.417.586l2.437.648c.681.201 1.146.837 1.146 1.549 0 .887-.703 1.608-1.568 1.608h-.432v.5c0 .276-.224.5-.5.5s-.5-.224-.5-.5v-.5h-.432c-.909 0-1.568-.623-1.568-1.48 0-.276.224-.5.5-.5s.5.224.5.5c0 .457.474.48.568.48h1.863c.313 0 .568-.272.568-.608 0-.272-.172-.514-.417-.586l-2.437-.648c-.681-.201-1.146-.837-1.146-1.549 0-.887.703-1.608 1.568-1.608h.432v-.5c0-.276.224-.5.5-.5s.5.224.5.5v.5h.432c.895 0 1.568.645 1.568 1.5 0 .276-.224.5-.5.5s-.5-.224-.5-.5c0-.369-.307-.5-.568-.5h-1.863c-.313 0-.568.272-.568.608zm13.856 6.743c-.194.197-.511.199-.707.006l-2.149-2.119v7.262c0 .276-.224.5-.5.5s-.5-.224-.5-.5v-7.262l-2.149 2.119c-.194.193-.511.191-.707-.006-.193-.196-.191-.513.006-.707l2.2-2.169c.634-.634 1.668-.633 2.304.003l2.197 2.166c.197.194.199.511.006.707z"/></svg>