<svg id="Layer_1" viewBox="0 0 24 24" xmlns="http://www.w3.org/2000/svg" data-name="Layer 1"><path d="m23.854 5.244c-.195.195-.512.195-.707 0l-3.185-3.185c-1.339-1.339-3.467-1.392-4.889-.192l5.713 5.713c.195.195.195.512 0 .707s-.512.195-.707 0l-5.735-5.735-2.354 2.354 5.735 5.735c.195.195.195.512 0 .707s-.512.195-.707 0l-5.735-5.735-2.433 2.433 5.735 5.735c.195.195.195.512 0 .707s-.512.195-.707 0l-5.735-5.735-2.419 2.419 5.735 5.735c.195.195.195.512 0 .707s-.512.195-.707 0l-5.735-5.735-2.354 2.355 5.735 5.735c.195.195.195.512 0 .707s-.512.195-.707 0l-5.726-5.724c-1.307 1.42-1.283 3.633.094 5.01l3.185 3.185c.195.195.195.512 0 .707s-.512.195-.707 0l-3.185-3.185c-1.802-1.803-1.802-4.736 0-6.539l12.778-12.779c1.803-1.802 4.736-1.802 6.539 0l3.185 3.185c.195.195.195.512 0 .707z"/></svg>