<svg id="Layer_1" viewBox="0 0 24 24" xmlns="http://www.w3.org/2000/svg" data-name="Layer 1"><path d="m22.393 15.73c-.373-1.006-1.328-1.686-2.393-1.723v-.507c0-.276-.224-.5-.5-.5s-.5.224-.5.5v.5h-5v-.5c0-.276-.224-.5-.5-.5s-.5.224-.5.5v.507c-1.064.037-2.019.717-2.392 1.723-1.272 3.431-1.608 5.715-1.608 6.443 0 1.007.819 1.826 1.827 1.826 1.385 0 3.305-2.11 4.127-3.226.357-.485.94-.774 1.561-.774s1.208.292 1.566.781c.812 1.113 2.715 3.219 4.093 3.219 1.007 0 1.826-.819 1.826-1.826 0-.728-.336-3.011-1.607-6.443zm-.219 7.27c-.657 0-2.193-1.312-3.286-2.809-.546-.746-1.433-1.191-2.373-1.191s-1.821.441-2.365 1.181c-1.106 1.502-2.659 2.819-3.323 2.819-.456 0-.827-.371-.827-.826 0-.774.412-3.037 1.545-6.096.239-.645.86-1.078 1.545-1.078h6.818c.686 0 1.307.434 1.546 1.078 1.134 3.061 1.545 5.322 1.545 6.096 0 .455-.371.826-.826.826zm-19.474-15h.65c.826 2.327 3.043 4 5.65 4s4.824-1.673 5.65-4h.65c.938 0 1.7-.763 1.7-1.7v-.6c0-.938-.763-1.7-1.7-1.7h-.65c-.826-2.327-3.043-4-5.65-4s-4.824 1.673-5.65 4h-.65c-.938 0-1.7.763-1.7 1.7v.6c0 .938.763 1.7 1.7 1.7zm12.6-3c.386 0 .7.314.7.7v.6c0 .386-.314.7-.7.7h-.39c.055-.326.09-.659.09-1s-.035-.674-.09-1zm-1.3 1c0 2.757-2.243 5-5 5s-5-2.243-5-5h1.5c2.723 0 5.095-1.769 5.939-4.338 1.521.859 2.561 2.471 2.561 4.338zm-5-5c.534 0 1.04.106 1.523.262-.683 2.21-2.702 3.738-5.023 3.738h-1.399c.465-2.279 2.484-4 4.899-4zm-7 4.7c0-.386.314-.7.7-.7h.39c-.078.333-.087.657-.09 1 0 .341.035.674.09 1h-.39c-.386 0-.7-.314-.7-.7zm6.999 8.785c.016.276-.194.513-.47.528-4.222.245-7.529 3.753-7.529 7.986v.5c0 .276-.224.5-.5.5s-.5-.224-.5-.5v-.5c0-4.763 3.721-8.709 8.471-8.984.279-.032.512.194.528.47z"/></svg>