<?xml version="1.0" encoding="UTF-8"?>
<svg xmlns="http://www.w3.org/2000/svg" id="Layer_1" data-name="Layer 1" viewBox="0 0 24 24">
  <path d="m12,0C5.373,0,0,5.373,0,12s5.373,12,12,12,12-5.373,12-12S18.627,0,12,0ZM1,12c0-2.812,1.07-5.373,2.812-7.32,1.378,1.028,2.423,2.406,3.041,3.969l-1.941.399c-.271.056-.445.32-.389.591.049.236.257.399.489.399.033,0,2.156-.432,2.156-.432.211.773.331,1.575.331,2.394,0,.831-.122,1.642-.336,2.423l-2.066-.413c-.273-.057-.535.121-.588.393-.054.271.122.534.392.588l1.946.389c-.618,1.552-1.666,2.913-3.039,3.937-1.74-1.946-2.809-4.506-2.809-7.316Zm11,11c-2.894,0-5.522-1.132-7.488-2.965,1.521-1.164,2.672-2.705,3.332-4.456,0,0,2.124.421,2.156.421.233,0,.442-.164.49-.402.054-.271-.122-.534-.392-.588l-1.949-.39c.226-.845.351-1.723.351-2.62,0-.887-.126-1.757-.349-2.596l2.014-.414c.271-.056.445-.32.389-.591-.056-.27-.319-.446-.59-.39l-2.111.434c-.661-1.759-1.816-3.312-3.339-4.48,1.966-1.832,4.594-2.964,7.487-2.964,2.861,0,5.462,1.107,7.421,2.904-1.494,1.192-2.627,2.754-3.277,4.515l-2.046-.409c-.259-.056-.533.12-.588.393-.055.271.121.534.393.588l1.946.389c-.223.848-.348,1.727-.348,2.621s.124,1.773.346,2.621l-1.944.389c-.271.054-.447.317-.393.588.048.238.256.402.489.402.033,0,2.145-.419,2.145-.419.65,1.761,1.782,3.321,3.277,4.515-1.959,1.797-4.56,2.905-7.422,2.905Zm8.13-3.617c-1.353-1.053-2.384-2.436-2.991-4.001l1.959-.392c.271-.054.447-.317.393-.588-.055-.272-.331-.446-.588-.393l-2.072.414c-.211-.783-.33-1.596-.33-2.424s.121-1.64.332-2.424c0,0,2.136.424,2.169.424.233,0,.441-.164.489-.402.055-.271-.121-.534-.393-.588l-1.956-.391c.608-1.565,1.636-2.952,2.987-4.003,1.777,1.955,2.871,4.541,2.871,7.385s-1.093,5.429-2.87,7.383Z"/>
</svg>
