<svg id="Layer_1" viewBox="0 0 24 24" xmlns="http://www.w3.org/2000/svg" data-name="Layer 1"><path d="m23.826 17.113c-.666.572-1.524.887-2.417.887-.179 0-.352-.038-.528-.062l-1.907 5.72c-.088.264-.378.403-.633.316-.262-.087-.403-.37-.316-.632l1.885-5.655c-.65-.26-1.231-.659-1.638-1.18-.703.9-1.896 1.494-3.136 1.494s-2.434-.594-3.137-1.494c-.703.9-1.897 1.494-3.137 1.494s-2.434-.594-3.136-1.494c-.407.521-.988.92-1.638 1.18l1.885 5.655c.087.262-.054.545-.316.632-.255.087-.546-.052-.632-.316l-1.907-5.72c-.176.024-.349.062-.528.062-.893 0-1.75-.315-2.417-.887-.209-.18-.233-.496-.054-.705.182-.21.497-.232.705-.054.485.416 1.112.646 1.765.646 1.168 0 2.315-.719 2.668-1.673.072-.196.259-.327.469-.327s.396.13.469.327c.352.954 1.499 1.673 2.667 1.673s2.315-.719 2.668-1.673c.145-.393.793-.393.938 0 .353.954 1.5 1.673 2.668 1.673s2.314-.719 2.667-1.673c.145-.393.793-.393.938 0 .353.954 1.5 1.673 2.668 1.673.653 0 1.28-.229 1.765-.646.21-.179.525-.156.705.054.181.209.156.525-.053.705zm-20.519-3.152c.249.105.547-.011.655-.268l3.854-9.206c.297-.607 1.24-.595 1.525-.013l1.473 3.234c.165.426.846.364.94-.086l1.468-5.921c.16-.49.568-.682.896-.698.336-.01.748.134.949.59l4.969 12.097c.106.256.397.378.653.272.255-.105.377-.397.272-.652l-4.972-12.108c-.338-.768-1.077-1.253-1.919-1.198-.83.041-1.536.584-1.809 1.42l-1.132 4.564-.884-1.941c-.316-.645-.954-1.046-1.664-1.046s-1.348.4-1.676 1.072l-3.866 9.234c-.106.255.014.548.268.655z"/></svg>