<?xml version="1.0" encoding="UTF-8"?>
<svg xmlns="http://www.w3.org/2000/svg" id="Layer_1" data-name="Layer 1" viewBox="0 0 24 24">
  <path d="M18.916,2.266L12.157,.025c-.102-.034-.213-.034-.314,0L5.084,2.267c-1.845,.611-3.084,2.328-3.084,4.271l-.003,5.346c0,6.609,7.16,10.703,9.354,11.8l.425,.212c.07,.035,.146,.053,.224,.053,.063,0,.126-.012,.187-.036l.441-.177c2.198-.885,9.369-4.354,9.369-11.852l.003-5.346c0-1.943-1.239-3.66-3.084-4.271Zm2.081,9.617c0,6.871-6.691,10.099-8.742,10.924l-.232,.093-.224-.112c-2.064-1.032-8.802-4.87-8.802-10.905l.003-5.346c0-1.511,.964-2.846,2.398-3.322L12,1.027l6.602,2.188c1.435,.476,2.398,1.811,2.398,3.322l-.003,5.346Z"/>
  <path d="M16,11h-3.5v-3.5c0-.276-.224-.5-.5-.5s-.5,.224-.5,.5v3.5h-3.5c-.276,0-.5,.224-.5,.5s.224,.5,.5,.5h3.5v3.5c0,.276,.224,.5,.5,.5s.5-.224,.5-.5v-3.5h3.5c.276,0,.5-.224,.5-.5s-.224-.5-.5-.5Z"/>
</svg>
