<?xml version="1.0" encoding="UTF-8"?>
<svg xmlns="http://www.w3.org/2000/svg" id="Layer_1" data-name="Layer 1" viewBox="0 0 24 24">
  <path d="m23.847,17.641c.199.191.205.508.014.707-.098.102-.229.153-.36.153-.125,0-.25-.046-.347-.14l-2.153-2.07v3.708c0,2.206-1.794,4-4,4h-4.5c-.276,0-.5-.224-.5-.5s.224-.5.5-.5h4.5c1.654,0,3-1.346,3-3v-3.709l-2.153,2.07c-.2.191-.516.186-.707-.014s-.185-.516.014-.707l2.301-2.212c.574-.574,1.518-.574,2.099.007l2.294,2.205ZM11.5,0h-4.5C4.794,0,3,1.794,3,4v2.71L.847,4.64c-.2-.192-.516-.185-.707.014-.191.199-.185.516.014.707l2.294,2.206c.291.291.674.436,1.055.436.379,0,.757-.144,1.043-.429l2.301-2.212c.199-.191.205-.508.014-.707-.192-.198-.507-.206-.707-.014l-2.153,2.07v-2.71c0-1.654,1.346-3,3-3h4.5c.276,0,.5-.224.5-.5s-.224-.5-.5-.5Zm5.5,8.5v-2.5h-1.487c-.834,0-1.513-.679-1.513-1.513,0-.596.359-1.139.914-1.384.948-.418,1.72-1.236,2.233-2.365.242-.532.847-.841,1.409-.717,2.949.646,4.444,2.489,4.444,5.479v5.268c-.005.466-.009.995.139,1.144.072.073.236.088.361.088.276,0,.5.224.5.5s-.224.5-.5.5h-9c-.276,0-.5-.224-.5-.5s.224-.5.5-.5c1.543,0,2.5-.585,2.5-3.5Zm.5-3.5c.276,0,.5.224.5.5v3c0,1.616-.291,2.767-.91,3.5h5c-.099-.368-.096-.796-.092-1.24v-5.26c.001-2.49-1.195-3.963-3.656-4.502-.097-.021-.238.053-.285.154-.778,1.714-1.92,2.504-2.74,2.866-.196.086-.317.266-.317.469,0,.283.23.513.513.513h1.987Zm-7.5,18.5c0,.276-.224.5-.5.5H.5c-.276,0-.5-.224-.5-.5s.224-.5.5-.5h.702c.436-.829,1.798-3.61,1.798-6v-1.965l-.463.004h-.004c-.274,0-.498-.221-.5-.496-.002-.276.22-.502.496-.504l.767-.006c-.184-.302-.296-.653-.296-1.033,0-.639.546-1.562,1.154-2.532.367-.586,1.325-.586,1.692,0,.608.97,1.154,1.894,1.154,2.532,0,.368-.107.709-.281,1.006l.777-.006h.004c.274,0,.498.221.5.496.002.276-.22.502-.496.504l-.504.004v1.996c0,2.394,1.362,5.172,1.798,6h.702c.276,0,.5.224.5.5Zm-6-10.5c0,.551.449,1,1,1s1-.449,1-1c0-.404-.702-1.523-1.001-2.001-.297.478-.999,1.597-.999,2.001Zm-1.675,10h5.35c-.6-1.218-1.675-3.717-1.675-6v-1.988l-2,.016v1.973c0,2.283-1.075,4.782-1.675,6Z"/>
</svg>
