<svg id="Layer_1" viewBox="0 0 24 24" xmlns="http://www.w3.org/2000/svg" data-name="Layer 1"><path d="m12 0c-6.617 0-12 5.383-12 12s5.383 12 12 12 12-5.383 12-12-5.383-12-12-12zm.5 22.975v-1.475c0-.276-.224-.5-.5-.5s-.5.224-.5.5v1.475c-5.666-.257-10.218-4.809-10.475-10.475h1.475c.276 0 .5-.224.5-.5s-.224-.5-.5-.5h-1.475c.257-5.666 4.809-10.218 10.475-10.475v1.475c0 .276.224.5.5.5s.5-.224.5-.5v-1.475c5.666.257 10.218 4.809 10.475 10.475h-1.475c-.276 0-.5.224-.5.5s.224.5.5.5h1.475c-.257 5.666-4.809 10.218-10.475 10.475zm2-8.975c-1.103 0-2 .897-2 2s.897 2 2 2 2-.897 2-2-.897-2-2-2zm0 3c-.552 0-1-.449-1-1s.448-1 1-1 1 .449 1 1-.448 1-1 1zm3-5h-.5c-.5-2.019-2.271-6-3.5-6-.269 0-.5.102-.711.254-.24.172-.515.259-.789.259s-.548-.086-.789-.259c-.211-.152-.442-.254-.711-.254-1.229 0-3 3.981-3.5 6h-.5c-.276 0-.5.224-.5.5s.224.5.5.5h11c.276 0 .5-.224.5-.5s-.224-.5-.5-.5zm-9.467 0c.563-2.059 1.898-4.578 2.517-4.983.429.307.926.502 1.45.495.524.007 1.021-.188 1.45-.495.619.405 1.954 2.923 2.517 4.983h-7.933zm1.467 2c-1.103 0-2 .897-2 2s.897 2 2 2 2-.897 2-2-.897-2-2-2zm0 3c-.552 0-1-.449-1-1s.448-1 1-1 1 .449 1 1-.448 1-1 1z"/></svg>