<?xml version="1.0" encoding="UTF-8"?>
<svg xmlns="http://www.w3.org/2000/svg" id="Layer_1" data-name="Layer 1" viewBox="0 0 24 24">
  <path d="M15.748,23H5.726C2.757,23,.25,20.787,.019,17.962c-.145-1.773,.578-3.517,1.935-4.662,.51-.43,.708-1.072,.507-1.636-.511-1.432-.597-2.994-.248-4.518,.715-3.118,3.325-5.546,6.495-6.044,3.898-.607,7.625,1.638,8.871,5.348,.156,.462,.513,.817,.979,.974,3.543,1.195,5.766,4.638,5.404,8.373-.392,4.04-3.999,7.204-8.214,7.204ZM9.979,2.002c-.369,0-.742,.029-1.117,.088-2.77,.435-5.051,2.557-5.675,5.28-.306,1.337-.232,2.706,.215,3.958,.343,.961,.028,2.036-.804,2.736-1.126,.951-1.703,2.343-1.583,3.816,.189,2.311,2.258,4.12,4.71,4.12H15.748c3.705,0,6.876-2.768,7.218-6.3,.316-3.27-1.627-6.284-4.728-7.329-.766-.257-1.352-.842-1.607-1.603-.972-2.89-3.667-4.766-6.652-4.766Z"/>
</svg>
