<svg id="Layer_1" viewBox="0 0 24 24" xmlns="http://www.w3.org/2000/svg" data-name="Layer 1"><path d="m13 6.5c0-3.584-2.916-6.5-6.5-6.5s-6.5 2.885-6.5 6.5c0 3.584 2.916 6.5 6.5 6.5s6.5-2.916 6.5-6.5zm-6.5 5.5c-3.033 0-5.5-2.467-5.5-5.5s2.467-5.5 5.5-5.5 5.5 2.467 5.5 5.5-2.467 5.5-5.5 5.5zm2.981-3.01c0 .547-.443.99-.99.99s-.99-.443-.99-.99.443-.99.99-.99.99.443.99.99zm-4.981-3.971c-.552 0-1-.452-1-1.01s.448-1.01 1-1.01 1 .452 1 1.01-.448 1.01-1 1.01zm4.416-1.242-4 6c-.154.232-.466.29-.693.139-.23-.153-.292-.463-.139-.693l4-6c.153-.23.462-.292.693-.139.23.153.292.463.139.693zm14.649 9.126-6.41 10.312c-.339.509-.656.785-1.422.785-.245 0-.494-.054-.735-.165-.786-.363-1.168-1.198-.93-2.03l1.755-5.805h-5.325c-.717 0-1.4-.308-1.873-.844-.183-.207-.163-.523.044-.706.207-.182.523-.163.706.044.288.326.687.505 1.123.505h5.999c.158 0 .307.075.401.202s.123.291.077.442l-1.947 6.442c-.122.428.121.716.391.84.268.124.646.124.896-.253l6.412-10.315c.328-.484.36-1.061.095-1.561s-.76-.798-1.326-.798h-4.5c-.162 0-.314-.079-.408-.211s-.118-.301-.064-.455l2.397-6.84c.132-.353.086-.721-.123-1.021-.208-.301-.538-.473-.903-.473h-4.373c-.276 0-.5-.224-.5-.5s.225-.498.501-.498h4.373c.688 0 1.333.338 1.725.903s.482 1.288.241 1.932l-2.16 6.165h3.795c.942 0 1.768.497 2.209 1.33.211.398.294.67.294 1.17 0 .463-.158.996-.435 1.403z"/></svg>