<svg id="Layer_1" viewBox="0 0 24 24" xmlns="http://www.w3.org/2000/svg" data-name="Layer 1"><path d="m24 21c0 1.654-1.346 3-3 3h-7.5c-.276 0-.5-.224-.5-.5s.224-.5.5-.5h7.5c1.103 0 2-.897 2-2s-.897-2-2-2h-6.5c-.276 0-.5-.224-.5-.5s.224-.5.5-.5h4.5c1.653 0 2-1.088 2-2 0-1.286-.97-2.682-1.932-3.494-.068 1.422-1.166 2.494-2.568 2.494h-1.5c-.276 0-.5-.224-.5-.5s.224-.5.5-.5h1.5c.841 0 1.5-.633 1.5-1.441 0-.416.236-.784.616-.96.369-.171.791-.116 1.098.144 1.055.891 2.287 2.541 2.287 4.258 0 .839-.247 1.524-.677 2.033 1.501.164 2.677 1.424 2.677 2.967zm-12-2.456v2.456c0 1.654-1.346 3-3 3h-4c-1.654 0-3-1.346-3-3v-2.456c-.089-.495-1.503-8.389-1.986-14.221-.092-1.108.288-2.212 1.041-3.031.756-.821 1.83-1.292 2.947-1.292h5.996c1.117 0 2.191.471 2.947 1.292.753.818 1.133 1.923 1.041 3.031-.483 5.832-1.896 13.726-1.986 14.221zm-10.989-14.304c.429 5.179 1.603 12.029 1.908 13.76h8.162c.305-1.731 1.479-8.582 1.908-13.76.07-.842-.207-1.648-.78-2.271-.575-.625-1.361-.969-2.211-.969h-5.996c-.851 0-1.636.344-2.211.969-.573.622-.85 1.429-.78 2.271zm9.989 14.76h-8v2c0 1.103.897 2 2 2h4c1.103 0 2-.897 2-2z"/></svg>