<?xml version="1.0" encoding="UTF-8"?>
<svg xmlns="http://www.w3.org/2000/svg" id="Layer_1" data-name="Layer 1" viewBox="0 0 24 24">
  <path d="m19.475,1.025H4.475C1.993,1.025-.025,3.044-.025,5.525v9c0,2.481,2.019,4.5,4.5,4.5h4c.276,0,.5-.224.5-.5s-.224-.5-.5-.5h-4c-1.93,0-3.5-1.57-3.5-3.5v-5.5h22v1.5c0,.276.224.5.5.5s.5-.224.5-.5v-5c0-2.481-2.019-4.5-4.5-4.5Zm-15,1h15c1.758,0,3.204,1.308,3.449,3H1.025c.245-1.692,1.691-3,3.449-3ZM.975,8.025v-2h22v2H.975Zm1.942,6c0,1.103.897,2,2,2s2-.897,2-2-.897-2-2-2-2,.897-2,2Zm3,0c0,.552-.449,1-1,1s-1-.448-1-1,.449-1,1-1,1,.448,1,1Zm11.558-3c-3.584,0-6.5,2.916-6.5,6.5s2.916,6.5,6.5,6.5,6.5-2.916,6.5-6.5-2.916-6.5-6.5-6.5Zm0,12c-3.032,0-5.5-2.468-5.5-5.5s2.468-5.5,5.5-5.5,5.5,2.468,5.5,5.5-2.468,5.5-5.5,5.5Zm3.35-6.857c.192.198.187.515-.012.707l-2.703,2.614c-.359.355-.835.533-1.311.533s-.949-.177-1.312-.531l-1.364-1.347c-.196-.193-.198-.51-.004-.707.194-.195.511-.198.707-.004l1.362,1.345c.336.329.886.327,1.222-.004l2.707-2.618c.199-.191.517-.187.707.012Z"/>
</svg>
