<?xml version="1.0" encoding="UTF-8"?>
<svg xmlns="http://www.w3.org/2000/svg" id="Layer_1" data-name="Layer 1" viewBox="0 0 24 24">
  <path d="m6.641,13.497c.558.356,1.209.535,1.86.535.663,0,1.327-.185,1.89-.555,1.007-.661,1.608-1.763,1.608-2.948,0-.934-.364-1.813-.997-2.443l-1.377-1.626c-.622-.608-1.63-.608-2.283.035l-1.325,1.568c-.656.656-1.018,1.532-1.018,2.466,0,1.202.613,2.311,1.641,2.968Zm.112-4.758l1.321-1.564c.123-.12.285-.177.44-.177.144,0,.283.049.38.143l1.374,1.622c.472.472.732,1.1.732,1.767,0,.86-.422,1.63-1.157,2.112-.792.52-1.862.525-2.663.013-.75-.479-1.18-1.254-1.18-2.125,0-.667.257-1.292.753-1.79Zm12.747-2.738h-2.5v-.5c0-2.481-2.019-4.5-4.5-4.5H4.5C2.019,1,0,3.019,0,5.5v10c0,1.499.953,2.771,2.28,3.268-.179.387-.28.803-.28,1.232,0,1.654,1.346,3,3,3s3-1.346,3-3c0-.344-.064-.68-.18-1h8.36c-.116.32-.18.656-.18,1,0,1.654,1.346,3,3,3s3-1.346,3-3c0-.429-.101-.844-.28-1.232,1.328-.497,2.28-1.769,2.28-3.268v-5c0-2.481-2.019-4.5-4.5-4.5Zm0,1c1.93,0,3.5,1.57,3.5,3.5v1.5h-6v-5h2.5ZM1,15.5V5.5c0-1.93,1.57-3.5,3.5-3.5h8c1.93,0,3.5,1.57,3.5,3.5v12.5H3.5c-1.378,0-2.5-1.122-2.5-2.5Zm6,4.5c0,1.103-.897,2-2,2s-2-.897-2-2c0-.361.122-.705.314-1.019.063.003.122.019.186.019h3.196c.185.31.304.646.304,1Zm14,0c0,1.103-.897,2-2,2s-2-.897-2-2c0-.354.119-.69.304-1h3.196c.064,0,.123-.015.186-.019.192.314.314.658.314,1.019Zm-.5-2h-3.5v-5h6v2.5c0,1.378-1.122,2.5-2.5,2.5Z"/>
</svg>
