<?xml version="1.0" encoding="UTF-8"?>
<svg xmlns="http://www.w3.org/2000/svg" id="Layer_1" data-name="Layer 1" viewBox="0 0 24 24">
  <path d="m15,23.5c0,.276-.224.5-.5.5H4.5c-2.481,0-4.5-2.019-4.5-4.5V4.5C0,2.019,2.019,0,4.5,0h13c1.378,0,2.5,1.121,2.5,2.5v8c0,.276-.224.5-.5.5s-.5-.224-.5-.5V2.5c0-.827-.673-1.5-1.5-1.5H4.5c-1.93,0-3.5,1.57-3.5,3.5v15c0,1.93,1.57,3.5,3.5,3.5h10c.276,0,.5.224.5.5ZM6.5,7c-.276,0-.5.224-.5.5s.224.5.5.5h7c.276,0,.5-.224.5-.5s-.224-.5-.5-.5h-7Zm17.354,16.854c-.098.098-.226.146-.354.146s-.256-.049-.354-.146l-2.853-2.853c-.77.616-1.733,1-2.793,1-2.481,0-4.5-2.019-4.5-4.5s2.019-4.5,4.5-4.5,4.5,2.019,4.5,4.5c0,1.06-.384,2.023-1,2.793l2.853,2.853c.195.195.195.512,0,.707Zm-6.354-2.854c1.93,0,3.5-1.57,3.5-3.5s-1.57-3.5-3.5-3.5-3.5,1.57-3.5,3.5,1.57,3.5,3.5,3.5Z"/>
</svg>
