<svg id="Layer_1" viewBox="0 0 24 24" xmlns="http://www.w3.org/2000/svg" data-name="Layer 1"><path d="m9 12h-.5c-.276 0-.5.224-.5.5s.224.5.5.5h9c.276 0 .5-.224.5-.5s-.224-.5-.5-.5h-.5v-11h.5c.276 0 .5-.224.5-.5s-.224-.5-.5-.5h-9c-.276 0-.5.224-.5.5s.224.5.5.5h.5v5h-8.5c-.276 0-.5.224-.5.5s.224.5.5.5h8.5zm7-3h-6v-5h6zm-6 3v-2h6v2zm6-11v2h-6v-2zm3.5 22h-.5v-.5c0-1.378-1.121-2.5-2.5-2.5h-7c-1.379 0-2.5 1.122-2.5 2.5v.5h-.5c-.276 0-.5.224-.5.5s.224.5.5.5h13c.276 0 .5-.224.5-.5s-.224-.5-.5-.5zm-11.5-.5c0-.827.673-1.5 1.5-1.5h7c.827 0 1.5.673 1.5 1.5v.5h-10zm11.02-7.268c-.078-.265.073-.543.338-.621l4-1.182c.262-.081.543.073.621.338s-.073.543-.338.621l-4 1.182c-.257.078-.544-.071-.621-.338zm4.959 4.5c-.078.267-.364.416-.621.338l-4-1.182c-.265-.078-.416-.356-.338-.621s.358-.417.621-.338l4 1.182c.265.078.416.356.338.621zm-17.337-5.121c.265.078.416.356.338.621-.078.267-.364.416-.621.338l-4-1.182c-.265-.078-.416-.356-.338-.621s.36-.418.621-.338zm0 4.278-4 1.182c-.257.078-.544-.071-.621-.338-.078-.265.073-.543.338-.621l4-1.182c.263-.079.543.072.621.338.078.265-.073.543-.338.621z"/></svg>