<svg id="Layer_1" viewBox="0 0 24 24" xmlns="http://www.w3.org/2000/svg" data-name="Layer 1"><path d="m19.103 3.904c-.478-1.138-1.56-1.913-2.806-1.904h-.297v-1c0-.552-.449-1-1-1h-1c-.551 0-1 .448-1 1v1h-5.297c-1.245-.009-2.327.766-2.806 1.903-.587 1.173-.897 2.487-.897 3.801v10.592c0 1.313.311 2.628.897 3.8.478 1.138 1.56 1.913 2.806 1.904h8.594c1.245.009 2.327-.766 2.806-1.903.587-1.173.897-2.487.897-3.801v-10.592c0-1.313-.311-2.628-.897-3.8zm-5.103-2.904h1v1h-1zm5 17.296c0 1.158-.274 2.318-.792 3.354-.317.79-1.042 1.36-1.911 1.35h-8.594c-.87.011-1.595-.56-1.911-1.351-.518-1.035-.792-2.195-.792-3.354v-10.591c0-1.158.274-2.318.792-3.354.317-.79 1.042-1.36 1.911-1.35h8.594c.87-.011 1.595.56 1.911 1.351.518 1.035.792 2.195.792 3.354v10.592zm-4.313-7.296h-.833l.546-.975c.176-.459.116-.974-.161-1.377-.279-.406-.743-.648-1.239-.648h-1.702c-.642 0-1.212.401-1.403.96l-1.833 4.193c-.133.438-.051.901.223 1.271.271.366.687.576 1.139.576h.784l-.651 1.362c-.188.66.114 1.325.734 1.618.579.281 1.318.12 1.677-.415l3.89-4.396c.286-.43.312-.979.07-1.432-.245-.455-.72-.738-1.24-.738zm.38 1.562-3.885 4.389c-.166.239-.397.157-.464.125-.067-.031-.279-.156-.229-.358l.962-2c.074-.155.064-.337-.027-.482-.091-.146-.251-.234-.423-.234h-1.577c-.132 0-.255-.062-.336-.172-.083-.112-.109-.253-.089-.329l1.828-4.175c.068-.197.253-.324.473-.324h1.702c.17 0 .321.078.415.215.092.134.111.299.083.386l-.934 1.653c-.087.155-.086.345.004.498.089.153.254.248.432.248h1.687c.222 0 .325.147.359.211.033.062.098.227.021.351z"/></svg>