<svg id="Layer_1" viewBox="0 0 24 24" xmlns="http://www.w3.org/2000/svg" data-name="Layer 1"><path d="m20 0h-4.5c-1.516 0-2.822.858-3.5 2.104-.678-1.246-1.984-2.104-3.5-2.104h-4.5c-2.206 0-4 1.795-4 4v12c0 1.859 1.28 3.411 3 3.858v3.196c0 .38.216.711.563.864.349.154.738.089 1.019-.167l.918-.839.918.839c.179.164.404.249.633.249.509.007.961-.431.948-.946v-3.054h.5c1.516 0 2.822-.857 3.5-2.104.678 1.246 1.984 2.104 3.5 2.104h4.5c2.206 0 4-1.794 4-4v-12c.001-2.205-1.793-4-3.999-4zm-13 22.928-1.127-1.029c-.095-.085-.233-.127-.373-.127-.141 0-.282.044-.378.131l-1.123 1.025v-2.928h3v2.928zm1.5-3.928h-4.5c-1.654 0-3-1.346-3-3v-12c0-1.654 1.346-3 3-3h4.5c1.654 0 3 1.346 3 3v12c0 1.654-1.346 3-3 3zm4-3v-12c0-1.654 1.346-3 3-3h3.5v18h-3.5c-1.654 0-3-1.346-3-3zm10.5 0c0 1.654-1.346 3-3 3v-17.999c1.654 0 3 1.346 3 3v12zm-14-11.5c0 .276-.224.5-.5.5h-5c-.276 0-.5-.224-.5-.5s.224-.5.5-.5h5c.276 0 .5.224.5.5zm0 3c0 .276-.224.5-.5.5h-5c-.276 0-.5-.224-.5-.5s.224-.5.5-.5h5c.276 0 .5.224.5.5zm0 3c0 .276-.224.5-.5.5h-5c-.276 0-.5-.224-.5-.5s.224-.5.5-.5h5c.276 0 .5.224.5.5zm0 3c0 .276-.224.5-.5.5h-5c-.276 0-.5-.224-.5-.5s.224-.5.5-.5h5c.276 0 .5.224.5.5z"/></svg>