<?xml version="1.0" encoding="UTF-8"?>
<svg xmlns="http://www.w3.org/2000/svg" id="Layer_1" data-name="Layer 1" viewBox="0 0 24 24">
  <path d="M15.5,19h-6.5v-4h1.5c.276,0,.5-.224,.5-.5s-.224-.5-.5-.5H2c-1.103,0-2,.897-2,2v2c0,1.103,.897,2,2,2H15.5c.276,0,.5-.224,.5-.5s-.224-.5-.5-.5Zm-14.5-1v-2c0-.551,.448-1,1-1h6v4H2c-.552,0-1-.449-1-1Zm23-3.5v5c0,.276-.224,.5-.5,.5s-.5-.224-.5-.5v-5c0-.276,.224-.5,.5-.5s.5,.224,.5,.5ZM14,3.856v-1.356c0-.276,.224-.5,.5-.5s.5,.224,.5,.5v1.356c0,1.222,.651,2.373,1.699,3.001l1.602,.961c1.048,.629,1.699,1.779,1.699,3.001v.68c0,.276-.224,.5-.5,.5s-.5-.224-.5-.5v-.68c0-.873-.465-1.694-1.213-2.144l-1.602-.961c-1.349-.809-2.186-2.288-2.186-3.859Zm10,5.408v.235c0,.276-.224,.5-.5,.5s-.5-.224-.5-.5v-.235c0-1.222-.651-2.372-1.699-3.001l-2.087-1.252c-.749-.449-1.214-1.27-1.214-2.144V.5c0-.276,.224-.5,.5-.5s.5,.224,.5,.5V2.868c0,.524,.279,1.017,.728,1.286l2.087,1.252c1.349,.808,2.186,2.287,2.186,3.858Zm-3.328,10.701c.19-.071,.328-.25,.328-.465v-5c0-.276-.224-.5-.5-.5h-5.793L.854,.146C.658-.049,.342-.049,.146,.146S-.049,.658,.146,.854L23.146,23.854c.098,.098,.226,.146,.354,.146s.256-.049,.354-.146c.195-.195,.195-.512,0-.707l-3.181-3.181Zm-.672-4.965v4h-.293l-4-4h4.293Z"/>
</svg>
