<svg id="Layer_1" viewBox="0 0 24 24" xmlns="http://www.w3.org/2000/svg" data-name="Layer 1"><path d="m16.5 12h-1.5v-.5c0-1.378-1.121-2.5-2.5-2.5h-1c-1.379 0-2.5 1.122-2.5 2.5v.5h-1.5c-1.93 0-3.5 1.57-3.5 3.5v5c0 1.93 1.57 3.5 3.5 3.5h9c1.93 0 3.5-1.57 3.5-3.5v-5c0-1.93-1.57-3.5-3.5-3.5zm-6.5-.5c0-.827.673-1.5 1.5-1.5h1c.827 0 1.5.673 1.5 1.5v.5h-4zm6.5 11.5h-9c-1.379 0-2.5-1.122-2.5-2.5v-3.5h6.5v1.5c0 .276.224.5.5.5s.5-.224.5-.5v-1.5h6.5v3.5c0 1.378-1.121 2.5-2.5 2.5zm2.5-7h-14v-.5c0-1.378 1.121-2.5 2.5-2.5h9c1.379 0 2.5 1.122 2.5 2.5zm-15-5.5c0 .276-.224.5-.5.5s-.5-.224-.5-.5v-5.207l-2.15 2.101c-.197.194-.515.189-.707-.008-.193-.198-.189-.514.008-.707l2.329-2.276c.257-.261.521-.403 1.021-.403s.763.142 1.024.406l2.325 2.272c.197.193.201.509.008.707s-.509.201-.707.008l-2.15-2.101v5.208zm4.643-7.114c-.193-.198-.189-.514.008-.707l2.328-2.276c.257-.261.521-.403 1.021-.403s.763.142 1.024.406l2.325 2.272c.197.193.201.509.008.707s-.509.201-.707.008l-2.15-2.101v5.208c0 .276-.224.5-.5.5s-.5-.224-.5-.5v-5.207l-2.15 2.101c-.198.194-.514.189-.707-.008zm15.215 4c-.193.198-.509.201-.707.008l-2.15-2.101v5.208c0 .276-.224.5-.5.5s-.5-.224-.5-.5v-5.208l-2.15 2.101c-.198.194-.515.189-.707-.008-.193-.198-.189-.514.008-.707l2.329-2.276c.257-.261.521-.403 1.021-.403s.763.142 1.024.406l2.325 2.272c.197.193.201.509.008.707z"/></svg>