<svg id="Layer_1" viewBox="0 0 24 24" xmlns="http://www.w3.org/2000/svg" data-name="Layer 1"><path d="m23.5 12h-6c-1.378 0-2.5 1.122-2.5 2.5v1.5h-3v-4.5c0-1.378 1.122-2.5 2.5-2.5h6c.276 0 .5-.224.5-.5s-.224-.5-.5-.5h-6c-1.93 0-3.5 1.57-3.5 3.5v4.5h-3v-8.5c0-1.378 1.122-2.5 2.5-2.5h7c.276 0 .5-.224.5-.5s-.224-.5-.5-.5h-7c-1.93 0-3.5 1.57-3.5 3.5v8.5h-3v-12.5c0-1.378 1.122-2.5 2.5-2.5h8c.276 0 .5-.224.5-.5s-.224-.5-.5-.5h-8c-1.93 0-3.5 1.57-3.5 3.5v12.5h-1c-1.103 0-2 .897-2 2v1c0 1.103.897 2 2 2h1v2.5c0 .276.224.5.5.5s.5-.224.5-.5v-2.5h3v2.5c0 .276.224.5.5.5s.5-.224.5-.5v-2.5h3v2.5c0 .276.224.5.5.5s.5-.224.5-.5v-2.5h3v2.5c0 .276.224.5.5.5s.5-.224.5-.5v-2.5h1c1.103 0 2-.897 2-2v-1c0-1.103-.897-2-2-2h-1v-1.5c0-.827.673-1.5 1.5-1.5h6c.276 0 .5-.224.5-.5s-.224-.5-.5-.5zm-5.5 6v1c0 .551-.449 1-1 1h-15c-.551 0-1-.449-1-1v-1c0-.551.449-1 1-1h15c.551 0 1 .449 1 1z"/></svg>