<svg id="Layer_1" viewBox="0 0 24 24" xmlns="http://www.w3.org/2000/svg" data-name="Layer 1"><path d="m13.457.998c0 .552.448 1 1 1h1.565l1.081 1.322c.317.424.823.678 1.353.678h1.22l1.113 1.57c.187.269.494.43.821.43h1.346c.024 0 .043.019.043.043l-.004.535-1.065 1.918c-.142.255-.165.56-.063.834l.405 1.089c.013.029-.006.059-.041.059h-.884c-.315 0-.612.149-.801.401l-.39.522c-.208.278-.257.643-.13.966s.413.556.754.617l.139.025c.102.021.306.136.399.219l.482 1.87c.002.006-.005.054-.004.06l-.671.746c-.165.184-.256.422-.256.669v.219c0 .261.102.511.284.698l.483.495c.464.474.504 1.226.093 1.748l-.261.332c-.254.323-.634.508-1.041.508-.119 0-.239-.016-.399-.059l-2.155-.49c-.073-.017-.147-.025-.222-.025h-1.194c-.411 0-.78.251-.93.633 0 0-.922 2.35-.928 2.367l-.572-.004-2.134-.712c-.753-.251-1.401-.285-1.935-.285h-.138c-.539 0-1.221-.107-1.888-.298l-2.943-.791c-.018-.005-.031-.022-.031-.042l.013-.618.926-.959c.092-.095.165-.208.213-.332l1.256-3.227c.012-.03.044-.088.053-.12.257-.134.444-.373.512-.655s.009-.58-.16-.815l-2.519-3.514c-.081-.113-.184-.207-.304-.278l-2.494-1.475c-.066-.039-.137-.07-.21-.093l-.563-.177c-.433-.135-.723-.531-.723-.985 0-.507.363-.935.864-1.019l2.333-.378c.151.089.319.132.489.132.203 0 .406-.061.58-.178.32-.213.493-.608.439-.988l.796-.983s1.347.686 1.347.686c.133.065.279.099.427.1l.724.007c.379 0 .754-.125 1.05-.347l.977-.717c.257-.188.408-.488.408-.806l.013-.552 1.596-1.578h.457m.064-.998h-.522c-.277 0-.542.11-.738.306l-1.565 1.565c-.196.196-.306.461-.306.738v.522l-.977.717c-.132.099-.294.153-.458.153h-.007l-.708-.007-1.138-.553c-.19-.147-.415-.218-.637-.218-.304 0-.605.133-.811.387l-.77.95c-.184.227-.263.519-.223.803-.159-.094-.342-.146-.531-.146-.057 0-.115.005-.173.015l-2.303.384c-.984.164-1.698 1.007-1.698 2.005 0 .894.573 1.674 1.426 1.94l.562.176 2.494 1.475 2.519 3.514c-.25.13-.444.359-.524.645l-1.256 3.227-.926.959c-.189.194-.293.454-.293.725v.588c0 .466.309.875.757 1.003l2.958.795c.669.192 1.451.332 2.147.332h.138c.582 0 1.068.05 1.619.234l2.138.713c.118.047.303.055.482.055.105 0 .347-.003.37-.002.449 0 .848-.287.989-.713l.902-2.287h1.194l2.155.49c.206.057.415.084.621.084.703 0 1.378-.319 1.827-.889l.262-.333c.719-.915.649-2.233-.164-3.065l-.482-.494v-.219l.671-.746c.238-.265.324-.634.228-.978l-.509-1.979c-.108-.386-.767-.776-1.163-.846l-.14-.025.39-.522h.884c.341 0 .661-.167.857-.448.195-.28.24-.638.121-.959l-.405-1.089 1.099-1.979c.063-.137.096-.286.096-.438v-.522c0-.576-.467-1.043-1.043-1.043h-1.346l-1.066-1.535c-.194-.29-.52-.465-.868-.465h-1.22c-.216 0-.423-.103-.552-.276l-1.048-1.307c-.197-.263-.506-.417-.835-.417h-1.565c-.001-.576-.359-1-.936-1z"/></svg>