<?xml version="1.0" encoding="UTF-8"?>
<svg xmlns="http://www.w3.org/2000/svg" id="Layer_1" data-name="Layer 1" viewBox="0 0 24 24">
  <path d="M8.5,23h-3.28c.48-.532,.78-1.229,.78-2V3c0-1.103,.897-2,2-2s2,.897,2,2c0,1.654,1.346,3,3,3h6v3.5c0,.276,.224,.5,.5,.5s.5-.224,.5-.5v-3.5h1c1.654,0,3-1.346,3-3s-1.346-3-3-3H8c-1.654,0-3,1.346-3,3v15H3c-1.654,0-3,1.346-3,3s1.346,3,3,3h5.5c.276,0,.5-.224,.5-.5s-.224-.5-.5-.5ZM21,1c1.103,0,2,.897,2,2s-.897,2-2,2H13c-1.103,0-2-.897-2-2,0-.768-.29-1.469-.766-2h10.766ZM1,21c0-1.103,.897-2,2-2h2v2c0,1.103-.897,2-2,2s-2-.897-2-2Zm15.5-11H8.5c-.276,0-.5-.224-.5-.5s.224-.5,.5-.5h8c.276,0,.5,.224,.5,.5s-.224,.5-.5,.5Zm7.184,1.52c-.301-.363-.761-.555-1.229-.514-1.489,.135-4.333,.639-6.643,2.504-2.789,2.252-4.812,6.454-4.812,9.99,0,.276,.224,.5,.5,.5s.5-.224,.5-.5c0-.486,.044-.989,.127-1.5,3.037-.022,5.4-.838,7.647-2.635,2.206-1.765,3.607-4.533,4.183-6.535,.131-.455,.029-.944-.273-1.311Zm-.688,1.033c-.534,1.855-1.824,4.413-3.847,6.031-1.841,1.473-3.703,2.205-6.06,2.373,3.27-3.832,7.113-5.997,7.154-6.02,.241-.134,.328-.438,.194-.68-.134-.24-.438-.327-.68-.194-.169,.094-3.796,2.14-7.09,5.86,.769-2.198,2.14-4.316,3.773-5.636,2.183-1.762,4.997-2.185,6.104-2.285,.29-.037,.542,.274,.451,.551Zm-9.996-.553c.276,0,.5,.224,.5,.5s-.224,.5-.5,.5h-4.5c-.276,0-.5-.224-.5-.5s.224-.5,.5-.5h4.5Zm-2,3.5c0,.276-.224,.5-.5,.5h-2c-.276,0-.5-.224-.5-.5s.224-.5,.5-.5h2c.276,0,.5,.224,.5,.5Z"/>
</svg>
