<?xml version="1.0" encoding="UTF-8"?>
<svg xmlns="http://www.w3.org/2000/svg" id="Layer_1" data-name="Layer 1" viewBox="0 0 24 24">
  <path d="M23.769,11.726l-1.111-3.333c-.477-1.431-1.811-2.393-3.32-2.393h-1.338v-1c0-.552-.448-1-1-1s-1,.448-1,1v1h-3V2h10.5c.276,0,.5-.224,.5-.5s-.224-.5-.5-.5H.5c-.276,0-.5,.224-.5,.5s.224,.5,.5,.5H3V6.276c-1.742,.621-3,2.271-3,4.224v9.5c0,1.654,1.346,3,3,3,1.044,0,1.962-.537,2.5-1.348,.538,.811,1.456,1.348,2.5,1.348,1.654,0,3-1.346,3-3v-1h5v1c0,1.654,1.346,3,3,3s3-1.346,3-3v-1.351c1.178-.564,2-1.758,2-3.149v-2.351c0-.649-.18-1.271-.231-1.423Zm-2.06-3.017l1.097,3.291h-5.806V7h2.338c1.078,0,2.031,.687,2.372,1.709Zm-9.709-2.709h-2V2h2V6Zm-5,0V2h2V6h-2ZM4,2h2V6h-1.5c-.171,0-.334,.032-.5,.051V2Zm.5,5h11.5v5H1v-1.5c0-1.93,1.57-3.5,3.5-3.5Zm11.5,11H1v-5h15v5ZM3,22c-1.103,0-2-.897-2-2v-1H5v1c0,1.103-.897,2-2,2Zm7-2c0,1.103-.897,2-2,2s-2-.897-2-2v-1h4v1Zm11,0c0,1.103-.897,2-2,2s-2-.897-2-2v-1h3.5c.171,0,.335-.027,.5-.051v1.051Zm2-4.5c0,1.379-1.122,2.5-2.5,2.5h-3.5v-5h5.988c.002,.05,.012,.099,.012,.149v2.351Z"/>
</svg>
