<?xml version="1.0" encoding="UTF-8"?>
<svg xmlns="http://www.w3.org/2000/svg" id="Layer_1" data-name="Layer 1" viewBox="0 0 24 24">
  <path d="m24,9.561v1.939c0,.276-.224.5-.5.5s-.5-.224-.5-.5v-1.939c0-1.165-.576-2.249-1.542-2.901L13.958,1.599c-1.189-.803-2.726-.803-3.916,0L2.542,6.659c-.966.652-1.542,1.737-1.542,2.901v9.939c0,1.93,1.57,3.5,3.5,3.5h7c.276,0,.5.224.5.5s-.224.5-.5.5h-7c-2.481,0-4.5-2.019-4.5-4.5v-9.939c0-1.497.741-2.892,1.983-3.729L9.483.771c1.53-1.032,3.506-1.032,5.035,0l7.499,5.061c1.242.838,1.983,2.232,1.983,3.729Zm0,7.939c0,3.584-2.916,6.5-6.5,6.5s-6.5-2.916-6.5-6.5,2.916-6.5,6.5-6.5,6.5,2.916,6.5,6.5Zm-1,0c0-3.032-2.468-5.5-5.5-5.5s-5.5,2.468-5.5,5.5,2.468,5.5,5.5,5.5,5.5-2.468,5.5-5.5Zm-5.5,1.5c.276,0,.5-.224.5-.5v-5c0-.276-.224-.5-.5-.5s-.5.224-.5.5v5c0,.276.224.5.5.5Zm0,1c-.552,0-1,.448-1,1s.448,1,1,1,1-.448,1-1-.448-1-1-1Z"/>
</svg>
