<svg id="Layer_1" viewBox="0 0 24 24" xmlns="http://www.w3.org/2000/svg" data-name="Layer 1"><path d="m17.5 0h-11c-2.481 0-4.5 2.019-4.5 4.5v19c0 .276.224.5.5.5s.5-.224.5-.5v-18.5h18v18.5c0 .276.224.5.5.5s.5-.224.5-.5v-19c0-2.481-2.019-4.5-4.5-4.5zm-11 1h11c1.758 0 3.204 1.308 3.449 3h-17.898c.245-1.692 1.691-3 3.449-3zm8 7.5c0-1.378-1.122-2.5-2.5-2.5s-2.5 1.122-2.5 2.5 1.122 2.5 2.5 2.5 2.5-1.122 2.5-2.5zm-4 0c0-.827.673-1.5 1.5-1.5s1.5.673 1.5 1.5-.673 1.5-1.5 1.5-1.5-.673-1.5-1.5zm2 3.5h-1c-1.654 0-3 1.346-3 3v2c0 1.105.608 2.062 1.5 2.583v3.917c0 .276.224.5.5.5s.5-.224.5-.5v-3.551c.163.028.329.051.5.051h1c.171 0 .337-.023.5-.051v3.551c0 .276.224.5.5.5s.5-.224.5-.5v-3.917c.892-.52 1.5-1.477 1.5-2.583v-2c0-1.654-1.346-3-3-3zm2 5c0 1.103-.897 2-2 2h-1c-1.103 0-2-.897-2-2v-2c0-1.103.897-2 2-2h1c1.103 0 2 .897 2 2z"/></svg>