<svg id="Layer_1" viewBox="0 0 24 24" xmlns="http://www.w3.org/2000/svg" data-name="Layer 1"><path d="m21.5 15h-.882l-3.618-1.809v-1.191h2.5c1.93 0 3.5-1.57 3.5-3.5v-3c0-1.93-1.57-3.5-3.5-3.5h-6c-1.93 0-3.5 1.57-3.5 3.5v3c0 1.93 1.57 3.5 3.5 3.5h2.5v3h-3c-1.641 0-2 1.264-1.991 1.843l.842 4.49c.29 1.546 1.641 2.667 3.212 2.667h6.437c1.378 0 2.5-1.121 2.5-2.5v-4c0-1.379-1.122-2.5-2.5-2.5zm-2-12c1.378 0 2.5 1.121 2.5 2.5v3c0 1.379-1.122 2.5-2.5 2.5h-2.5v-1h.431c.865 0 1.569-.722 1.569-1.608 0-.712-.466-1.348-1.146-1.549l-2.437-.648c-.246-.072-.417-.313-.417-.586 0-.336.255-.608.569-.608h1.862c.262 0 .569.131.569.5 0 .276.224.5.5.5s.5-.224.5-.5c0-.855-.674-1.5-1.569-1.5h-.431v-1h2.5zm-8.5 5.5v-3c0-1.379 1.122-2.5 2.5-2.5h2.5v1h-.431c-.865 0-1.569.722-1.569 1.608 0 .712.466 1.348 1.146 1.549l2.437.648c.246.072.417.313.417.586 0 .336-.255.608-.569.608h-1.862c-.274 0-.569-.294-.569-.5 0-.276-.224-.5-.5-.5s-.5.224-.5.5c0 .771.762 1.5 1.569 1.5h.431v1h-2.5c-1.378 0-2.5-1.121-2.5-2.5zm1.833 12.649-.833-4.392c.005-.178.092-.758 1-.758h3.5c.276 0 .5-.224.5-.5v-1.191l3 1.5v7.191h-4.937c-1.091 0-2.029-.778-2.23-1.851zm10.167.351c0 .827-.673 1.5-1.5 1.5h-.5v-7h.5c.827 0 1.5.673 1.5 1.5zm-15.5-7.5h2c.276 0 .5-.224.5-.5s-.224-.5-.5-.5h-1.5v-3.5c0-.276-.224-.5-.5-.5h-3c-1.378 0-2.5-1.121-2.5-2.5v-3c0-1.379 1.122-2.5 2.5-2.5h6c.276 0 .5-.224.5-.5s-.224-.5-.5-.5h-6c-1.93 0-3.5 1.57-3.5 3.5v3c0 1.93 1.57 3.5 3.5 3.5h2.5v1.191l-3.618 1.809h-.882c-1.378 0-2.5 1.121-2.5 2.5v4c0 1.379 1.122 2.5 2.5 2.5h7c.276 0 .5-.224.5-.5s-.224-.5-.5-.5h-5.5v-7.191l3-1.5v1.191c0 .276.224.5.5.5zm-5 7c-.827 0-1.5-.673-1.5-1.5v-4c0-.827.673-1.5 1.5-1.5h.5v7z"/></svg>