<?xml version="1.0" encoding="UTF-8"?>
<svg xmlns="http://www.w3.org/2000/svg" id="Layer_1" data-name="Layer 1" viewBox="0 0 24 24">
  <path d="m5,19.013c0,.552-.448,1-1,1s-1-.448-1-1,.448-1,1-1,1,.448,1,1Zm7-1c-.552,0-1,.448-1,1s.448,1,1,1,1-.448,1-1-.448-1-1-1Zm-4,0c-.552,0-1,.448-1,1s.448,1,1,1,1-.448,1-1-.448-1-1-1ZM24,3.848v10.654c0,1.376-1.12,2.498-2.497,2.5l-3.24.003c-.514-.001-.971-.309-1.166-.782-.195-.474-.087-1.014.276-1.375l5.627-5.618V3.848c0-.178-.126-.252-.181-.276-.056-.024-.196-.065-.325.056l-6.494,6.088v2.796c0,1.352-.779,2.513-1.903,3.096,1.138.706,1.903,1.956,1.903,3.391,0,2.206-1.794,4-4,4H3.937C1.731,23-.063,21.206-.063,19c0-1.447.78-2.706,1.935-3.408-1.107-.589-1.872-1.74-1.872-3.079,0-1.945,1.566-3.516,3.491-3.521h1.459s.03-4.524.03-4.524c.013-1.912,1.579-3.472,3.49-3.477l1.591-.004c.986,0,1.882.581,2.284,1.479l2.971,6.521,6.494-6.088c.384-.36.924-.454,1.406-.244.483.209.784.667.784,1.193ZM5.95,8.991l8.267-.003-2.783-6.109c-.242-.543-.78-.891-1.371-.891l-1.59.004c-1.366.003-2.484,1.118-2.493,2.483l-.03,4.516Zm6.176,7.021H3.811c-1.595.067-2.874,1.376-2.874,2.987,0,1.654,1.346,3,3,3h8.063c1.654,0,3-1.346,3-3,0-1.611-1.279-2.92-2.874-2.987Zm2.874-3.5v-2.513c-.015,0-.028-.011-.043-.013l-11.464.005c-1.374.003-2.492,1.125-2.492,2.5,0,1.399,1.122,2.521,2.5,2.521h9c1.378,0,2.5-1.122,2.5-2.5Zm8-1.87l-4.921,4.913c-.112.112-.078.237-.057.286.02.049.084.163.242.163l3.238-.003c.826,0,1.498-.674,1.498-1.5v-3.859Z"/>
</svg>
