<svg id="Layer_1" viewBox="0 0 24 24" xmlns="http://www.w3.org/2000/svg" data-name="Layer 1"><path d="m18.491 13.911c-.267-.266-.622-.412-1-.412h-.005c-.377.002-.731.148-.997.415l-1.854 1.831c-.598.647-.073 1.787.808 1.755h1.558v3c0 .276.224.5.5.5s.5-.224.5-.5v-3h1.551c.901.02 1.415-1.114.776-1.788zm-2.95 2.589c-.078 0-.117-.094-.062-.149l1.715-1.726s.002-.003.004-.004c.077-.078.181-.121.292-.122.112 0 .216.043.297.124l1.762 1.727c.056.055.017.15-.061.15zm-6.041 4.5h-2c-.827 0-1.5-.673-1.5-1.5s.673-1.5 1.5-1.5h1c.276 0 .5-.224.5-.5v-6c0-2.481-2.019-4.5-4.5-4.5h-1.413c.009-.068.008-.139.02-.206.167-.945.62-2.112 2.599-2.794h9.624c1.979.682 2.431 1.849 2.598 2.794.012.067.01.138.019.206h-1.446c-2.055 0-3.847 1.388-4.358 3.375-.069.268.092.54.36.609.26.069.541-.09.609-.359.397-1.546 1.792-2.625 3.39-2.625h1.471c-.01.143-.009.283-.03.428-.04.273.149.527.423.567.268.04.528-.149.566-.423.095-.658.082-1.304-.019-1.952-.196-1.112-.677-1.971-1.474-2.62 1.951.034 3.564-1.548 3.562-3.5 0-.276-.224-.5-.5-.5s-.5.224-.5.5c0 1.379-1.122 2.5-2.5 2.5h-14.001c-1.378 0-2.5-1.121-2.5-2.5 0-.276-.224-.5-.5-.5s-.5.224-.5.5c-.003 1.965 1.634 3.553 3.597 3.5-.797.649-1.278 1.509-1.474 2.62-.005.357-.179.746-.074 1.089.01.795.159 1.621.468 2.442l2.964 7.888c-.299.412-.48.914-.48 1.461 0 1.379 1.122 2.5 2.5 2.5h2c.276 0 .5-.224.5-.5s-.224-.5-.5-.5zm-6.047-11.2c-.229-.608-.352-1.213-.393-1.8h1.439c.955 0 1.821.387 2.453 1.009-.529.026-.953.455-.953.991 0 .552.448 1 1 1 .362 0 .664-.202.84-.49.094.316.16.644.16.99v5.5h-.5c-.444 0-.856.126-1.217.33zm14.047 1.2c-3.584 0-6.5 2.916-6.5 6.5s2.916 6.5 6.5 6.5 6.5-2.916 6.5-6.5-2.916-6.5-6.5-6.5zm0 12c-3.033 0-5.5-2.468-5.5-5.5s2.467-5.5 5.5-5.5 5.5 2.468 5.5 5.5-2.467 5.5-5.5 5.5z"/></svg>