<svg id="Layer_1" viewBox="0 0 24 24" xmlns="http://www.w3.org/2000/svg" data-name="Layer 1"><path d="m15.5 16c-1.378 0-2.5 1.121-2.5 2.5v3c0 1.379 1.122 2.5 2.5 2.5s2.5-1.121 2.5-2.5v-3c0-1.379-1.122-2.5-2.5-2.5zm1.5 5.5c0 .827-.673 1.5-1.5 1.5s-1.5-.673-1.5-1.5v-3c0-.827.673-1.5 1.5-1.5s1.5.673 1.5 1.5zm2.5-19.5h-1.5v-1.5c0-.276-.224-.5-.5-.5s-.5.224-.5.5v1.5h-10v-1.5c0-.276-.224-.5-.5-.5s-.5.224-.5.5v1.5h-1.5c-2.481 0-4.5 2.019-4.5 4.5v13c0 2.481 2.019 4.5 4.5 4.5.276 0 .5-.224.5-.5s-.224-.5-.5-.5c-1.93 0-3.5-1.57-3.5-3.5v-10.5h22v4.5c0 .276.224.5.5.5s.5-.224.5-.5v-7c0-2.481-2.019-4.5-4.5-4.5zm-18.5 6v-1.5c0-1.93 1.57-3.5 3.5-3.5h15c1.93 0 3.5 1.57 3.5 3.5v1.5zm22.991 8.596-1.197 6.116c-.148.761-.769 1.271-1.544 1.271s-1.396-.511-1.544-1.271l-1.197-6.116c-.053-.271.124-.533.395-.586.271-.059.534.122.587.395l1.197 6.116c.066.341.334.463.562.463s.496-.122.562-.463l1.197-6.116c.053-.272.309-.453.587-.395.271.053.448.315.395.586zm-11.991-.096v6.728c0 .368-.251.679-.611.755-.351.077-.718-.102-.867-.441l-2.522-5.683v5.642c0 .276-.224.5-.5.5s-.5-.224-.5-.5v-6.716c0-.368.252-.68.612-.756.363-.076.716.106.866.442l2.521 5.683v-5.653c0-.276.224-.5.5-.5s.5.224.5.5z"/></svg>