<svg id="Layer_1" viewBox="0 0 24 24" xmlns="http://www.w3.org/2000/svg" data-name="Layer 1"><path d="m24 13.5v6c0 2.481-2.019 4.5-4.5 4.5h-15c-2.481 0-4.5-2.019-4.5-4.5v-6c0-2.481 2.019-4.5 4.5-4.5h7v-8.5c0-.276.224-.5.5-.5s.5.224.5.5v8.5h3c.276 0 .5.224.5.5s-.224.5-.5.5h-11c-1.93 0-3.5 1.57-3.5 3.5v6c0 1.93 1.57 3.5 3.5 3.5h15c1.93 0 3.5-1.57 3.5-3.5v-6c0-.296-.037-.591-.11-.876-.069-.267.092-.54.36-.608.27-.066.541.092.609.36.094.365.142.744.142 1.124zm-17.5-.5h-2c-.276 0-.5.224-.5.5s.224.5.5.5h2c.276 0 .5-.224.5-.5s-.224-.5-.5-.5zm3 1h2c.276 0 .5-.224.5-.5s-.224-.5-.5-.5h-2c-.276 0-.5.224-.5.5s.224.5.5.5zm10-1h-5c-.276 0-.5.224-.5.5s.224.5.5.5h5c.276 0 .5-.224.5-.5s-.224-.5-.5-.5zm0 3h-5c-.276 0-.5.224-.5.5s.224.5.5.5h5c.276 0 .5-.224.5-.5s-.224-.5-.5-.5zm-10 1h2c.276 0 .5-.224.5-.5s-.224-.5-.5-.5h-2c-.276 0-.5.224-.5.5s.224.5.5.5zm-2.5-.5c0-.276-.224-.5-.5-.5h-2c-.276 0-.5.224-.5.5s.224.5.5.5h2c.276 0 .5-.224.5-.5zm-2.5 2.5c-.276 0-.5.224-.5.5s.224.5.5.5h1c.276 0 .5-.224.5-.5s-.224-.5-.5-.5zm3.5.5c0 .276.224.5.5.5h7.5c.276 0 .5-.224.5-.5s-.224-.5-.5-.5h-7.5c-.276 0-.5.224-.5.5zm11.5-.5h-1c-.276 0-.5.224-.5.5s.224.5.5.5h1c.276 0 .5-.224.5-.5s-.224-.5-.5-.5zm-.5-13.5-1.807-1.605c-.218-.169-.257-.483-.087-.701.169-.217.484-.258.701-.088l1.193 1.129v-3.431c0-.313.186-.592.485-.727.307-.139.662-.089.903.127l2.667 1.922c.14.12.446.392.445.804 0 .275-.133.526-.406.766l-2.24 1.779 2.174 1.69c.212.187.462.449.463.812 0 .389-.281.64-.374.723l-2.758 2.119c-.224.203-.593.233-.875.104-.299-.135-.485-.413-.485-.727v-3.42l-1.189 1.115c-.218.172-.532.136-.703-.081-.172-.216-.136-.53.081-.702l1.811-1.608zm1-.689s2.454-1.883 2.455-1.883c-.007-.007-2.455-1.774-2.455-1.774zm0 5.026 2.429-1.867c-.011-.011-2.429-1.816-2.429-1.816v3.684z"/></svg>