<?xml version="1.0" encoding="UTF-8"?>
<svg xmlns="http://www.w3.org/2000/svg" id="Layer_1" data-name="Layer 1" viewBox="0 0 24 24">
  <path d="M23.5,10c-.276,0-.5,.224-.5,.5v1.206c-.825-1.032-2.079-1.706-3.5-1.706-2.481,0-4.5,2.019-4.5,4.5s2.019,4.5,4.5,4.5c1.421,0,2.675-.675,3.5-1.706v1.206c0,.276,.224,.5,.5,.5s.5-.224,.5-.5V10.5c0-.276-.224-.5-.5-.5Zm-4,8c-1.93,0-3.5-1.57-3.5-3.5s1.57-3.5,3.5-3.5,3.5,1.57,3.5,3.5-1.57,3.5-3.5,3.5ZM9.091,4.983c-.303-.606-.912-.983-1.591-.983s-1.288,.377-1.602,1.005L.042,18.298c-.111,.253,.004,.548,.257,.659,.251,.111,.547-.003,.659-.256l2.071-4.702H11.971l2.071,4.702c.083,.187,.266,.298,.458,.298,.067,0,.136-.014,.201-.042,.253-.111,.368-.406,.257-.659L9.091,4.983ZM3.469,13l3.334-7.57c.27-.539,1.134-.517,1.382-.022l3.345,7.592H3.469Z"/>
</svg>
