<svg id="Layer_1" viewBox="0 0 24 24" xmlns="http://www.w3.org/2000/svg" data-name="Layer 1"><path d="m24 9.5v10c0 2.481-2.019 4.5-4.5 4.5h-15c-2.481 0-4.5-2.019-4.5-4.5v-12c0-2.481 2.019-4.5 4.5-4.5h5c.276 0 .5.224.5.5s-.224.5-.5.5h-5c-1.611 0-2.958 1.101-3.363 2.586l8.388 8.389c1.365 1.366 3.585 1.364 4.95 0l2.382-2.353c.197-.195.513-.191.708.004.194.196.192.514-.004.707l-2.381 2.351c-.875.876-2.027 1.314-3.179 1.314s-2.306-.438-3.183-1.316l-7.818-7.819v11.637c0 1.93 1.57 3.5 3.5 3.5h15c1.93 0 3.5-1.57 3.5-3.5v-10c0-.276.224-.5.5-.5s.5.224.5.5zm-12-6.03c0-1.913 1.458-3.47 3.25-3.47 1.145 0 2.161.516 2.761 1.334.589-.826 1.586-1.334 2.739-1.334 1.792 0 3.25 1.557 3.25 3.47 0 2.56-3.148 5.378-5.025 6.829-.287.222-.631.333-.975.333s-.688-.111-.975-.333c-1.877-1.451-5.025-4.27-5.025-6.829zm1 0c0 2.274 3.549 5.196 4.637 6.038.213.164.512.165.726 0 1.087-.842 4.637-3.764 4.637-6.038 0-1.361-1.009-2.47-2.25-2.47-1.116 0-2.019.656-2.246 1.632-.105.453-.868.453-.974 0-.224-.961-1.162-1.632-2.28-1.632-1.241 0-2.25 1.108-2.25 2.47z"/></svg>