<svg id="Layer_1" viewBox="0 0 24 24" xmlns="http://www.w3.org/2000/svg" data-name="Layer 1"><path d="m23.5 19h-5.697l-4.008-3.6c-.601-.537-1.51-.506-2.071.064l-1.259 1.278c-.194.194-.512.196-.708 0-.194-.195-.194-.513 0-.708l3.535-3.496c.369-.348.854-.54 1.362-.54.433 0 1.431.287 2.67.768.395.159.83.21 1.254.232h4.922c.276 0 .5-.224.5-.5s-.224-.5-.5-.5h-4.5v-6.498c0-1.93-1.57-3.5-3.5-3.5h-.551c-.232-1.14-1.242-2-2.449-2h-1c-1.208 0-2.217.86-2.449 2h-.551c-1.93 0-3.5 1.57-3.5 3.5v6.5h-4.5c-.276 0-.5.224-.5.5s.224.5.5.5h4.836c.481-.027.971-.107 1.426-.304.993-.442 1.8-.696 2.238-.696.496 0 .972.184 1.338.518l.809.737-2.097 2.073c-.584.584-.584 1.536 0 2.121.567.567 1.554.568 2.125-.002l1.262-1.282c.188-.19.49-.2.69-.021l3.945 3.543-3.592 2.803c-.842.656-2.119.656-2.961 0l-4.065-3.173c-.263-.205-.59-.318-.923-.318h-5.031c-.276 0-.5.224-.5.5s.224.5.5.5h5.031c.11 0 .22.038.308.106l4.065 3.173c.596.465 1.34.721 2.096.721s1.5-.256 2.096-.721l4.201-3.279h5.203c.276 0 .5-.224.5-.5s-.224-.5-.5-.5zm-12-18h1c.651 0 1.201.419 1.408 1h-3.816c.207-.581.757-1 1.408-1zm-5.5 4.5c0-1.378 1.121-2.5 2.5-2.5h7c1.379 0 2.5 1.122 2.5 2.5v.5h-12zm5.012 6.279c-.552-.502-1.267-.779-2.035-.779-.716 0-1.82.426-2.621.782-.116.051-.236.083-.355.116v-4.898h5.5v1.5c0 .276.224.5.5.5s.5-.224.5-.5v-1.5h5.5v4.925c-.106-.025-.213-.05-.314-.089-.981-.381-2.305-.835-3.031-.835-.765 0-1.492.289-2.038.803l-.758.75s-.846-.774-.846-.774z"/></svg>