<svg id="Layer_1" viewBox="0 0 24 24" xmlns="http://www.w3.org/2000/svg" data-name="Layer 1"><path d="m10.5 9.5c0-1.378-1.122-2.5-2.5-2.5s-2.5 1.122-2.5 2.5 1.122 2.5 2.5 2.5 2.5-1.122 2.5-2.5zm-4 0c0-.827.673-1.5 1.5-1.5s1.5.673 1.5 1.5-.673 1.5-1.5 1.5-1.5-.673-1.5-1.5zm7.5-7c0 .276-.224.5-.5.5h-9c-1.93 0-3.5 1.57-3.5 3.5v11c0 1.93 1.57 3.5 3.5 3.5h7c.276 0 .5.224.5.5s-.224.5-.5.5h-7c-2.481 0-4.5-2.019-4.5-4.5v-11c0-2.481 2.019-4.5 4.5-4.5h9c.276 0 .5.224.5.5zm-6 10.5c1.995 0 3.712 1.474 3.995 3.429.04.273-.15.527-.423.566-.267.041-.528-.149-.566-.423-.212-1.466-1.504-2.571-3.005-2.571s-2.793 1.105-3.005 2.571c-.039.273-.291.469-.566.423-.273-.039-.463-.293-.423-.566.282-1.955 2-3.429 3.995-3.429zm9.2-7h.6c.662 0 1.2-.539 1.2-1.2v-.6c0-.662-.539-1.2-1.2-1.2h-.6c-.662 0-1.2.539-1.2 1.2v.6c0 .662.539 1.2 1.2 1.2zm-.2-1.8c0-.11.09-.2.2-.2h.6c.11 0 .2.09.2.2v.6c0 .11-.09.2-.2.2h-.6c-.11 0-.2-.09-.2-.2zm5.8-1.2h-.6c-.662 0-1.2.539-1.2 1.2v.6c0 .662.539 1.2 1.2 1.2h.6c.662 0 1.2-.539 1.2-1.2v-.6c0-.662-.539-1.2-1.2-1.2zm.2 1.8c0 .11-.09.2-.2.2h-.6c-.11 0-.2-.09-.2-.2v-.6c0-.11.09-.2.2-.2h.6c.11 0 .2.09.2.2zm-9 5c0 .662.539 1.2 1.2 1.2h.6c.662 0 1.2-.539 1.2-1.2v-.6c0-.662-.539-1.2-1.2-1.2h-.6c-.662 0-1.2.539-1.2 1.2zm1-.6c0-.11.09-.2.2-.2h.6c.11 0 .2.09.2.2v.6c0 .11-.09.2-.2.2h-.6c-.11 0-.2-.09-.2-.2zm4 .6c0 .662.539 1.2 1.2 1.2h.6c.662 0 1.2-.539 1.2-1.2v-.6c0-.662-.539-1.2-1.2-1.2h-.6c-.662 0-1.2.539-1.2 1.2zm1-.6c0-.11.09-.2.2-.2h.6c.11 0 .2.09.2.2v.6c0 .11-.09.2-.2.2h-.6c-.11 0-.2-.09-.2-.2zm-1 5c0-.662-.539-1.2-1.2-1.2h-.6c-.662 0-1.2.539-1.2 1.2v.6c0 .662.539 1.2 1.2 1.2h.6c.662 0 1.2-.539 1.2-1.2zm-1 .6c0 .11-.09.2-.2.2h-.6c-.11 0-.2-.09-.2-.2v-.6c0-.11.09-.2.2-.2h.6c.11 0 .2.09.2.2zm4.8-1.8h-.6c-.662 0-1.2.539-1.2 1.2v.6c0 .662.539 1.2 1.2 1.2h.6c.662 0 1.2-.539 1.2-1.2v-.6c0-.662-.539-1.2-1.2-1.2zm.2 1.8c0 .11-.09.2-.2.2h-.6c-.11 0-.2-.09-.2-.2v-.6c0-.11.09-.2.2-.2h.6c.11 0 .2.09.2.2zm-7.2 3.2h-.6c-.662 0-1.2.539-1.2 1.2v.6c0 .662.539 1.2 1.2 1.2h.6c.662 0 1.2-.539 1.2-1.2v-.6c0-.662-.539-1.2-1.2-1.2zm.2 1.8c0 .11-.09.2-.2.2h-.6c-.11 0-.2-.09-.2-.2v-.6c0-.11.09-.2.2-.2h.6c.11 0 .2.09.2.2zm4.8-1.8h-.6c-.662 0-1.2.539-1.2 1.2v.6c0 .662.539 1.2 1.2 1.2h.6c.662 0 1.2-.539 1.2-1.2v-.6c0-.662-.539-1.2-1.2-1.2zm.2 1.8c0 .11-.09.2-.2.2h-.6c-.11 0-.2-.09-.2-.2v-.6c0-.11.09-.2.2-.2h.6c.11 0 .2.09.2.2z"/></svg>