<?xml version="1.0" encoding="UTF-8"?>
<svg xmlns="http://www.w3.org/2000/svg" id="Layer_1" data-name="Layer 1" viewBox="0 0 24 24">
  <path d="M12,0C5.383,0,0,5.383,0,12s5.383,12,12,12,12-5.383,12-12S18.617,0,12,0Zm0,23c-6.065,0-11-4.935-11-11S5.935,1,12,1s11,4.935,11,11-4.935,11-11,11ZM7.757,7.757c-2.339,2.339-2.339,6.146,0,8.485,2.34,2.339,6.146,2.339,8.485,0,.195-.195,.512-.195,.707,0s.195,.512,0,.707c-1.365,1.365-3.157,2.047-4.95,2.047s-3.585-.682-4.95-2.047c-1.322-1.322-2.05-3.08-2.05-4.95s.728-3.627,2.05-4.95c2.729-2.729,7.17-2.729,9.899,0,.195,.195,.195,.512,0,.707s-.512,.195-.707,0c-2.34-2.339-6.146-2.339-8.485,0Z"/>
</svg>
