<svg id="Layer_1" viewBox="0 0 24 24" xmlns="http://www.w3.org/2000/svg" data-name="Layer 1"><path d="m20.253 5h3.247c.276 0 .5-.224.5-.5s-.224-.5-.5-.5h-7.5v-2.5c0-.827-.673-1.5-1.5-1.5-.384 0-.734.145-1 .383-.531-.476-1.469-.476-2 0-.266-.238-.616-.383-1-.383-.827 0-1.5.673-1.5 1.5v1.129c-.527-.187-1.141-.068-1.561.354-.281.281-.42.649-.431 1.018h-6.508c-.276 0-.5.224-.5.5s.224.5.5.5h3.247l-3.708 8.805c-.025.061-.039.127-.039.194v.5c0 2.481 2.019 4.5 4.5 4.5s4.5-2.019 4.5-4.5v-.5c0-.066-.014-.133-.039-.194l-3.708-8.806h2.116c.025.112 1.693 1.74 1.759 1.834.035.04.324.351.872.643v16.023c0 .276.224.5.5.5s.5-.224.5-.5v-16.336c0-.199-.118-.378-.3-.458-.545-.238-.828-.54-.842-.555l-1.712-1.754c-.195-.195-.195-.512 0-.707s.512-.195.707 0l.293.293c.144.144.357.188.545.109.187-.077.309-.26.309-.462v-2.13c0-.276.225-.5.5-.5s.5.224.5.5v.5c0 .276.224.5.5.5s.5-.224.5-.5v-.5c0-.276.225-.5.5-.5s.5.224.5.5v.5c0 .276.224.5.5.5s.5-.224.5-.5v-.5c0-.276.225-.5.5-.5s.5.224.5.5v2.667c0 1.124-.668 2.142-1.7 2.594-.183.08-.3.259-.3.458v16.281c0 .276.224.5.5.5s.5-.224.5-.5v-15.97c.977-.533 1.66-1.462 1.9-2.53h2.847l-3.708 8.806c-.025.061-.039.127-.039.194v.5c0 2.481 2.019 4.5 4.5 4.5s4.5-2.019 4.5-4.5v-.5c0-.066-.014-.133-.039-.194zm-15.753.789 3.457 8.211h-6.914zm0 12.211c-1.76 0-3.221-1.306-3.465-3h6.93c-.244 1.694-1.705 3-3.465 3zm15-12.211 3.457 8.211h-6.914zm0 12.211c-1.76 0-3.221-1.306-3.465-3h6.93c-.244 1.694-1.705 3-3.465 3z"/></svg>