<svg id="Layer_1" viewBox="0 0 24 24" xmlns="http://www.w3.org/2000/svg" data-name="Layer 1"><path d="m5.5 12c-1.654 0-3 1.346-3 3s1.346 3 3 3 3-1.346 3-3-1.346-3-3-3zm0 5c-1.103 0-2-.897-2-2s.897-2 2-2 2 .897 2 2-.897 2-2 2zm16-2c0-1.654-1.346-3-3-3s-3 1.346-3 3 1.346 3 3 3 3-1.346 3-3zm-5 0c0-1.103.897-2 2-2s2 .897 2 2-.897 2-2 2-2-.897-2-2zm7.489 8.398c.057.271-.117.535-.388.591-.263.058-.536-.115-.591-.388-.433-2.087-2.329-3.602-4.511-3.602s-4.078 1.515-4.511 3.602c-.057.271-.325.448-.591.388-.271-.056-.444-.32-.388-.591.527-2.549 2.836-4.398 5.489-4.398s4.962 1.85 5.489 4.398zm-13 0c.057.271-.117.535-.388.591-.263.058-.536-.115-.591-.388-.433-2.087-2.329-3.602-4.511-3.602s-4.078 1.515-4.511 3.602c-.056.271-.325.448-.591.388-.271-.056-.444-.32-.388-.591.527-2.549 2.836-4.398 5.489-4.398s4.962 1.85 5.489 4.398zm10.51-23.398-5 .002c-1.378 0-2.499 1.121-2.499 2.5l.002 7.359c-.031.918 1.126 1.49 1.838.905l2.302-1.767h3.358c1.379 0 2.5-1.121 2.5-2.5v-3.999c0-1.379-1.122-2.5-2.501-2.5zm1.501 6.5c0 .827-.673 1.5-1.5 1.5h-3.528c-.11 0-.217.036-.305.104l-2.437 1.87c-.108.068-.218.017-.229-.112l-.002-7.359c0-.827.673-1.5 1.499-1.5l5-.002c.827 0 1.501.673 1.501 1.5v3.999zm-20.5 2.5h3.358l2.302 1.767c.712.585 1.869.013 1.838-.905l.002-7.359c0-1.38-1.121-2.501-2.499-2.501l-5-.002c-1.379 0-2.501 1.121-2.501 2.5v4c0 1.379 1.121 2.5 2.5 2.5zm-1.5-6.5c0-.827.674-1.5 1.501-1.5l5 .002c.826 0 1.499.673 1.499 1.5l-.002 7.359c-.011.129-.121.181-.229.112l-2.437-1.87c-.088-.067-.194-.104-.305-.104h-3.527c-.827 0-1.5-.673-1.5-1.5z"/></svg>