<svg id="Layer_1" viewBox="0 0 24 24" xmlns="http://www.w3.org/2000/svg" data-name="Layer 1"><path d="m0 6.5v-2c0-2.481 2.019-4.5 4.5-4.5h2c.276 0 .5.224.5.5s-.224.5-.5.5h-2c-1.93 0-3.5 1.57-3.5 3.5v2c0 .276-.224.5-.5.5s-.5-.224-.5-.5zm19.5-6.5h-2c-.276 0-.5.224-.5.5s.224.5.5.5h2c1.93 0 3.5 1.57 3.5 3.5v2c0 .276.224.5.5.5s.5-.224.5-.5v-2c0-2.481-2.019-4.5-4.5-4.5zm-13 23h-2c-1.93 0-3.5-1.57-3.5-3.5v-2c0-.276-.224-.5-.5-.5s-.5.224-.5.5v2c0 2.481 2.019 4.5 4.5 4.5h2c.276 0 .5-.224.5-.5s-.224-.5-.5-.5zm17-6c-.276 0-.5.224-.5.5v2c0 1.93-1.57 3.5-3.5 3.5h-2c-.276 0-.5.224-.5.5s.224.5.5.5h2c2.481 0 4.5-2.019 4.5-4.5v-2c0-.276-.224-.5-.5-.5zm.5-5.5c0 .276-.224.5-.5.5h-23c-.276 0-.5-.224-.5-.5s.224-.5.5-.5h.833c1.004-1.963 4.213-7 10.667-7s9.662 5.037 10.667 7h.833c.276 0 .5.224.5.5zm-21.532-.5h5.675c.452-1.734 2.029-3 3.857-3s3.405 1.266 3.857 3h5.675c-1.146-2.032-4.084-6-9.532-6s-8.386 3.968-9.532 6zm9.532-2c-1.283 0-2.408.828-2.825 2h5.65c-.417-1.172-1.542-2-2.825-2zm9.586 5.788c.159-.226.105-.537-.121-.696-.226-.161-.537-.106-.697.12-1.541 2.185-4.314 4.788-8.769 4.788s-7.227-2.604-8.769-4.788c-.159-.227-.471-.281-.697-.12-.226.159-.279.471-.12.696 1.678 2.378 4.704 5.212 9.586 5.212s7.909-2.834 9.586-5.212zm-6.729.011c.193-.197.19-.514-.007-.707-.198-.191-.514-.189-.707.008-1.121 1.144-3.096 1.166-4.243.043-.197-.192-.512-.19-.707.008-.193.197-.189.514.008.707.752.736 1.747 1.143 2.799 1.143 1.084 0 2.099-.427 2.857-1.201z"/></svg>