<svg id="Layer_1" viewBox="0 0 24 24" xmlns="http://www.w3.org/2000/svg" data-name="Layer 1"><path d="m23.5 15h-.5v-1c0-5.504-4.063-10.076-9.347-10.876.219-.321.347-.708.347-1.124 0-1.103-.897-2-2-2s-2 .897-2 2c0 .417.128.804.347 1.124-5.284.8-9.347 5.372-9.347 10.876v1h-.5c-.276 0-.5.224-.5.5s.224.5.5.5h5.279c-2.08 1.111-3.66 3.07-4.249 5.494l-.477 1.888c-.08.31.168.622.486.618.225 0 .43-.153.485-.382l.477-1.888c.819-3.374 3.816-5.73 7.288-5.73h3.71c.905 0 1.642.737 1.642 1.642 0 .812-.606 1.511-1.41 1.625l-5.161.737c-.273.039-.463.292-.424.566.039.273.291.461.566.424l5.161-.737c.49-.07.934-.275 1.297-.574.03-.017 3.815-3.307 3.815-3.307.305-.265.692-.394 1.097-.368.403.028.771.211 1.035.516.541.622.479 1.573-.146 2.128l-4.813 4.481c-.202.188-.213.504-.025.707.099.105.232.159.366.159.122 0 .244-.044.341-.134l4.804-4.473c.982-.872 1.116-2.361.333-3.394h1.522c.276 0 .5-.224.5-.5s-.224-.5-.5-.5zm-12.5-13c0-.551.449-1 1-1s1 .449 1 1-.449 1-1 1-1-.449-1-1zm-9 13v-1c0-5.514 4.486-10 10-10s10 4.486 10 10v1zm14.139 2.53c-.024-.577-.234-1.106-.572-1.53h2.329z"/></svg>