<?xml version="1.0" encoding="UTF-8"?>
<svg xmlns="http://www.w3.org/2000/svg" id="Layer_1" data-name="Layer 1" viewBox="0 0 24 24">
  <path d="M18,12c-3.309,0-6,2.691-6,6s2.691,6,6,6,6-2.691,6-6-2.691-6-6-6Zm0,11c-2.757,0-5-2.243-5-5s2.243-5,5-5,5,2.243,5,5-2.243,5-5,5Zm3.104-8.104c-.195-.195-.512-.195-.707,0l-.663,.663c-.49-.349-1.086-.56-1.733-.56s-1.243,.21-1.733,.56l-.663-.663c-.195-.195-.512-.195-.707,0s-.195,.512,0,.707l.663,.663c-.349,.49-.56,1.086-.56,1.733s.21,1.243,.56,1.733l-.663,.663c-.195,.195-.195,.512,0,.707,.098,.098,.226,.146,.354,.146s.256-.049,.354-.146l.663-.663c.49,.349,1.086,.56,1.733,.56s1.243-.21,1.733-.56l.663,.663c.098,.098,.226,.146,.354,.146s.256-.049,.354-.146c.195-.195,.195-.512,0-.707l-.663-.663c.349-.49,.56-1.086,.56-1.733s-.21-1.243-.56-1.733l.663-.663c.195-.195,.195-.512,0-.707Zm-3.104,5.104c-1.103,0-2-.897-2-2s.897-2,2-2,2,.897,2,2-.897,2-2,2ZM24,1.5V6.5c0,.276-.224,.5-.5,.5s-.5-.224-.5-.5V1.707l-5.512,5.512c-1.097,1.097-2.88,1.097-3.977,0l-2.73-2.73c-.706-.706-1.856-.706-2.562,0L.854,11.854c-.098,.098-.226,.146-.354,.146s-.256-.049-.354-.146c-.195-.195-.195-.512,0-.707L7.512,3.781c1.097-1.097,2.88-1.097,3.977,0l2.73,2.73c.685,.685,1.878,.685,2.562,0L22.293,1h-4.793c-.276,0-.5-.224-.5-.5s.224-.5,.5-.5h5c.827,0,1.5,.673,1.5,1.5ZM10,6.5V23.5c0,.276-.224,.5-.5,.5s-.5-.224-.5-.5V6.5c0-.276,.224-.5,.5-.5s.5,.224,.5,.5Zm-4,4v13c0,.276-.224,.5-.5,.5s-.5-.224-.5-.5V10.5c0-.276,.224-.5,.5-.5s.5,.224,.5,.5ZM2,14.5v9c0,.276-.224,.5-.5,.5s-.5-.224-.5-.5V14.5c0-.276,.224-.5,.5-.5s.5,.224,.5,.5Z"/>
</svg>
