<svg id="Layer_1" viewBox="0 0 24 24" xmlns="http://www.w3.org/2000/svg" data-name="Layer 1"><path d="m10 22.5c0 .276-.224.5-.5.5h-5c-.276 0-.5-.224-.5-.5s.224-.5.5-.5h5c.276 0 .5.224.5.5zm-.5-2.5h-5c-.276 0-.5.224-.5.5s.224.5.5.5h5c.276 0 .5-.224.5-.5s-.224-.5-.5-.5zm-3.086-11.998c.398-.014.783.113 1.075.375l3.38 3.11c.719.661 1.131 1.6 1.131 2.575v.437c0 .276.224.5.5.5s.5-.224.5-.5v-.437c0-1.161-.469-2.267-1.268-3.101l3.039-2.58c.613-.549 1.562-.499 2.112.115.069.078.131.163.184.253.113.196.346.292.562.232.218-.059.37-.257.37-.483v-5.998c0-.827.673-1.5 1.5-1.5s1.5.673 1.5 1.5v6.5c0 .276.224.5.5.5s.5-.224.5-.5v-6.5c0-1.378-1.121-2.5-2.5-2.5s-2.5 1.122-2.5 2.5v4.824c-.906-.511-2.075-.421-2.886.304l-3.101 2.633-2.851-2.624c-.844-.795-2.25-.846-3.162-.139v-4.998c0-1.378-1.121-2.5-2.5-2.5s-2.499 1.122-2.499 2.5v9c0 2.003.78 3.887 2.196 5.303l2.051 2.05c.094.094.221.146.354.146h4.899c.276 0 .5-.224.5-.5s-.224-.5-.5-.5h-4.692l-1.904-1.904c-1.228-1.228-1.903-2.86-1.903-4.596v-8.999c0-.827.673-1.5 1.5-1.5s1.5.673 1.5 1.5v7c.043.576.195 1.151.607 1.627l3.075 3.179c.191.199.51.204.707.012.198-.192.204-.508.012-.707l-3.052-3.153c-.476-.566-.462-1.409.032-1.96.267-.297.634-.474 1.032-.496zm17.586 12.761c0 1.785-1.458 3.237-3.25 3.237h-5.5c-1.792 0-3.25-1.452-3.25-3.237 0-2.808 2.187-5.738 4.626-6.587-.37-.297-.761-.667-1.066-1.095-.287-.404-.324-.929-.097-1.369.227-.439.674-.711 1.168-.711h2.736c.494 0 .941.272 1.168.711.228.44.19.965-.097 1.369-.305.429-.696.799-1.066 1.095 2.439.849 4.626 3.778 4.626 6.587zm-6-6.841c.384-.235 1.154-.758 1.625-1.42.132-.277.044-.448-.257-.501h-2.736c-.301.053-.389.224-.257.501.474.666 1.241 1.186 1.625 1.42zm-.5 8.078h-.432c-.909 0-1.568-.623-1.568-1.481 0-.276.224-.5.5-.5s.5.224.5.5c0 .458.474.481.568.481h1.863c.313 0 .568-.273.568-.608 0-.272-.172-.514-.418-.586l-2.436-.647c-.681-.202-1.146-.837-1.146-1.549 0-.887.703-1.608 1.568-1.608h.432v-.957c-2.269.364-4.5 3.11-4.5 5.719 0 1.234 1.01 2.237 2.25 2.237h2.25v-1zm5.5-1.237c0-2.609-2.231-5.355-4.5-5.719v.957h.432c.895 0 1.568.645 1.568 1.5 0 .276-.224.5-.5.5s-.5-.224-.5-.5c0-.369-.307-.5-.568-.5h-1.863c-.313 0-.568.273-.568.608 0 .272.172.514.418.586l2.436.647c.681.202 1.146.837 1.146 1.549 0 .887-.703 1.608-1.568 1.608h-.432v1h2.25c1.24 0 2.25-1.003 2.25-2.237z"/></svg>