<svg id="Layer_1" viewBox="0 0 24 24" xmlns="http://www.w3.org/2000/svg" data-name="Layer 1"><path d="m22.866 13.832c-.51-.622-1.152-1.096-1.866-1.409v-1.423c0-4.962-4.037-9-9-9s-9 4.038-9 9v1.423c-.64.28-1.223.692-1.702 1.22-.828.913-1.288 2.103-1.298 3.328-.046 2.746 2.355 5.035 5.2 5.029.992 0 1.8-.808 1.8-1.8v-6.4c0-.992-.808-1.8-1.8-1.8-.402-.008-.81.023-1.2.106v-1.106c0-4.411 3.589-8 8-8s8 3.589 8 8v1.105c-.388-.082-.798-.113-1.2-.105-.992 0-1.8.808-1.8 1.8v6.4c0 .992.808 1.8 1.8 1.8 2.495 0 4.641-1.676 5.1-3.984.067-.339.1-.679.1-1.016-.002-1.152-.396-2.269-1.134-3.168zm-17.666-.832c.441 0 .8.359.8.8v6.4c0 .441-.358.8-.8.8-2.147 0-3.983-1.581-4.18-3.599-.297-2.371 1.813-4.555 4.18-4.401zm17.718 4.821c-.366 1.842-2.099 3.179-4.118 3.179-.441 0-.8-.359-.8-.8v-6.4c0-.441.358-.8.8-.8 2.539-.172 4.687 2.323 4.118 4.821zm-6.918-.334c0 .276-.224.5-.5.5-.118 0-.236.097-.3.246l-.891 2.087c-.175.409-.548.666-.96.667-.456-.001-.852-.309-1.002-.773l-1.648-5.149-.979 2.068c-.221.519-.699.854-1.22.854-.276 0-.5-.224-.5-.5s.224-.5.5-.5c.118 0 .236-.097.3-.247l.891-2.087c.182-.425.6-.704 1.006-.665.437.02.812.323.956.771l1.648 5.149.979-2.068c.221-.519.699-.854 1.22-.854.276 0 .5.224.5.5z"/></svg>