<?xml version="1.0" encoding="UTF-8"?>
<svg xmlns="http://www.w3.org/2000/svg" id="Layer_1" data-name="Layer 1" viewBox="0 0 24 24">
  <path d="m6,4h-1c-.551,0-1,.448-1,1v5.5c0,.276.224.5.5.5s.5-.224.5-.5v-2.5h1c1.103,0,2-.897,2-2s-.897-2-2-2Zm0,3h-1v-2h1c.551,0,1,.448,1,1s-.449,1-1,1Zm5-3h-1c-.551,0-1,.448-1,1v5.5c0,.276.224.5.5.5s.5-.224.5-.5v-2.5h1c1.103,0,2-.897,2-2s-.897-2-2-2Zm0,3h-1v-2h1c.551,0,1,.448,1,1s-.449,1-1,1Zm4-2h-1c-.276,0-.5-.224-.5-.5s.224-.5.5-.5h3c.276,0,.5.224.5.5s-.224.5-.5.5h-1v5.5c0,.276-.224.5-.5.5s-.5-.224-.5-.5v-5.5ZM19.5,0H4.5C2.019,0,0,2.019,0,4.5v15c0,2.481,2.019,4.5,4.5,4.5h9.515c1.736,0,3.369-.677,4.597-1.904l3.484-3.484c1.228-1.228,1.904-2.86,1.904-4.597V4.5c0-2.481-2.019-4.5-4.5-4.5ZM4.5,23c-1.93,0-3.5-1.57-3.5-3.5V4.5c0-1.93,1.57-3.5,3.5-3.5h15c1.93,0,3.5,1.57,3.5,3.5v9.515c0,.335-.038.663-.096.985h-5.404c-1.379,0-2.5,1.121-2.5,2.5v5.404c-.323.058-.651.096-.985.096H4.5Zm16.889-5.096l-3.484,3.484c-.55.55-1.2.959-1.904,1.232v-5.121c0-.827.673-1.5,1.5-1.5h5.12c-.273.704-.682,1.354-1.232,1.904Z"/>
</svg>
