<svg id="Layer_1" viewBox="0 0 24 24" xmlns="http://www.w3.org/2000/svg" data-name="Layer 1"><path d="m17.987 2.28c-1.912-1.705-4.477-2.515-7.05-2.218-3.994.458-7.293 3.674-7.846 7.646-.421 3.014.678 6.01 2.939 8.013 1.348 1.182 2.05 2.965 1.97 4.778 0 1.93 1.57 3.5 3.5 3.5h1c1.93 0 3.5-1.57 3.5-3.5-.079-1.829.648-3.57 2.118-4.924 1.831-1.694 2.882-4.091 2.882-6.576 0-2.563-1.098-5.012-3.013-6.72zm-2.987 18.22c0 1.378-1.121 2.5-2.5 2.5h-1c-1.379 0-2.5-1.122-2.5-2.5.01-.498-.017-1.015-.104-1.5h6.213c-.091.487-.119 1.002-.109 1.5zm2.439-5.658c-.987.912-1.695 1.993-2.086 3.158h-6.691c-.374-1.161-1.047-2.21-1.969-3.027-2.01-1.78-2.986-4.444-2.612-7.126.491-3.528 3.422-6.384 6.969-6.792.323-.037.644-.055.962-.055 1.968 0 3.825.703 5.311 2.027 1.701 1.518 2.678 3.695 2.678 5.973 0 2.24-.909 4.315-2.561 5.842zm-1.711-9.351-2.504-1.414c-.758-.43-1.702-.429-2.462 0l-2.496 1.414c-.782.443-1.269 1.276-1.269 2.175v3.129c0 .894.482 1.726 1.26 2.17l2.515 1.437c.755.431 1.694.437 2.455.016l2.483-1.379c.794-.44 1.287-1.278 1.287-2.186v-3.186c-.003-.898-.498-1.728-1.27-2.177zm-4.23 8.138c-.078-.028-2.744-1.531-2.744-1.531-.466-.267-.756-.766-.756-1.302v-3.129c0-.12.02-.237.047-.351l3.453 1.973zm-2.898-7.147c.053-.04 2.654-1.534 2.654-1.534.457-.258 1.022-.258 1.478 0 0 0 2.611 1.495 2.664 1.536l-3.396 1.941zm7.398 4.372c0 .545-.296 1.047-.772 1.312 0 0-2.645 1.448-2.728 1.476v-4.35l3.453-1.973c.027.114.047.23.047.35v3.186z"/></svg>