<?xml version="1.0" encoding="UTF-8"?>
<svg xmlns="http://www.w3.org/2000/svg" id="Layer_1" data-name="Layer 1" viewBox="0 0 24 24">
  <path d="m20.5,13h-1.07l-5.763-4.434c-.351-.27-.752-.442-1.167-.519V.5c0-.276-.224-.5-.5-.5s-.5.224-.5.5v7.547c-.415.077-.816.249-1.167.519l-5.769,4.438c-.021-.003-.042-.005-.064-.005h-1c-1.93,0-3.5,1.57-3.5,3.5v7c0,.276.224.5.5.5s.5-.224.5-.5v-7c0-1.379,1.122-2.5,2.5-2.5h1c.022,0,.043-.002.064-.005l5.769,4.438c.491.377,1.079.565,1.667.565s1.176-.188,1.667-.565l5.763-4.434h1.07c1.378,0,2.5,1.121,2.5,2.5v7c0,.276.224.5.5.5s.5-.224.5-.5v-7c0-1.93-1.57-3.5-3.5-3.5Zm-7.443,4.641c-.623.479-1.492.479-2.114,0l-5.383-4.141,5.383-4.141c.623-.479,1.492-.479,2.114,0l5.383,4.141-5.383,4.141Zm10.796-8.494c.195.195.195.512,0,.707-.098.098-.226.146-.354.146s-.256-.049-.354-.146l-2.646-2.646-2.646,2.646c-.098.098-.226.146-.354.146s-.256-.049-.354-.146c-.195-.195-.195-.512,0-.707l2.646-2.646-2.646-2.646c-.195-.195-.195-.512,0-.707s.512-.195.707,0l2.646,2.646,2.646-2.646c.195-.195.512-.195.707,0s.195.512,0,.707l-2.646,2.646,2.646,2.646ZM.146,6.584c-.195-.195-.195-.512,0-.707s.512-.195.707,0l1.831,1.83c.389.391,1.024.391,1.415,0l3.547-3.56c.195-.196.512-.195.707-.002.195.195.196.512,0,.707l-3.548,3.561c-.39.391-.903.586-1.415.586s-1.024-.195-1.414-.585L.146,6.584Z"/>
</svg>
