<svg id="Layer_1" viewBox="0 0 24 24" xmlns="http://www.w3.org/2000/svg" data-name="Layer 1"><path d="m21.5 8h-13c-.276 0-.5.224-.5.5s.224.5.5.5h2.5v3h-2.5c-.276 0-.5.224-.5.5s.224.5.5.5h14.5v1.423c0 1.291-.498 1.526-1.186 1.853-.196.093-.391.186-.574.298-.776.475-1.24 1.382-1.24 2.427v3.5c0 .275-.224.5-.5.5s-.5-.225-.5-.5v-3.5c0-1.654-1.346-3-3-3s-3 1.346-3 3v3.5c0 .275-.224.5-.5.5s-.5-.225-.5-.5v-3.5c0-1.654-1.346-3-3-3h-.5c-.276 0-.5.224-.5.5s.224.5.5.5h.5c1.103 0 2 .897 2 2v3.5c0 .827.673 1.5 1.5 1.5s1.5-.673 1.5-1.5v-3.5c0-1.103.897-2 2-2s2 .897 2 2v3.5c0 .827.673 1.5 1.5 1.5s1.5-.673 1.5-1.5v-3.5c0-.693.285-1.282.762-1.573.153-.094.316-.171.48-.248.783-.37 1.758-.832 1.758-2.756v-3.923c0-1.379-1.122-2.5-2.5-2.5zm-2.5 1v3h-3v-3zm-7 0h3v3h-3zm8 3v-3h1.5c.827 0 1.5.673 1.5 1.5v1.5zm-12.5 11h-1.5v-16.092c.581-.207 1-.757 1-1.408v-.268c0-.079-.016-.155-.023-.232h16.523c.276 0 .5-.224.5-.5s-.224-.5-.5-.5h-16.837c-.11-.192-.236-.375-.396-.535l-.732-.732c-.417-.417-.957-.656-1.536-.71v-1.523c0-.276-.224-.5-.5-.5s-.5.224-.5.5v1.592c-.581.207-1 .757-1 1.408v.5h-1.499c-.276 0-.5.224-.5.5s.224.5.5.5h1.5v.5c0 .651.419 1.201 1 1.408v16.092h-1.5c-.276 0-.5.224-.5.5s.224.5.5.5h6c.276 0 .5-.224.5-.5s-.224-.5-.5-.5zm-4.5-19.5c0-.275.224-.5.5-.5h.268c.4 0 .777.156 1.061.439l.732.732c.279.279.439.666.439 1.061v.268c0 .275-.224.5-.5.5h-2c-.276 0-.5-.225-.5-.5zm1 3.5h1v16h-1z"/></svg>