<?xml version="1.0" encoding="UTF-8"?>
<svg xmlns="http://www.w3.org/2000/svg" id="Layer_1" data-name="Layer 1" viewBox="0 0 24 24">
  <path d="m23,21c0-1.213.856-2.149.865-2.158.135-.146.172-.358.092-.541-.079-.183-.259-.301-.458-.301h-5.569c1.835-1.224,3.069-3.451,3.069-5.998,0-3.395-2.186-6.233-5.075-6.867.254-.158.502-.335.724-.558.962-.962,1.263-2.292,1.346-3.237.032-.365-.097-.723-.354-.98-.258-.258-.615-.381-.981-.354-.947.082-2.277.382-3.241,1.345-.602.6-.944,1.35-1.143,2.05-.276-1.81-1.337-3.139-1.337-3.139-.133-.243-.437-.333-.678-.199-.243.132-.332.436-.2.678l.125.225c.442.79,1.244,2.238,1.303,4.036h-2.194c-3.471,0-6.294,3.143-6.294,7.002,0,2.547,1.235,4.774,3.069,5.998h-3.069c-1.654,0-3,1.346-3,3s1.346,3,3,3h20.5c.199,0,.378-.118.458-.301.08-.183.043-.396-.092-.541-.009-.009-.865-.945-.865-2.158ZM14.125,2.057c.75-.75,1.839-.988,2.621-1.056.008,0,.016,0,.023,0,.083,0,.138.041.164.066.028.028.074.09.065.186-.068.781-.307,1.869-1.056,2.618-.864.862-2.211,1.062-2.925,1.105.043-.713.244-2.057,1.107-2.919ZM4,12.002c0-3.309,2.375-6.001,5.294-6.002h5.411c2.919,0,5.294,2.693,5.294,6.002s-2.375,5.998-5.295,5.998c-.589,0-1.168-.108-1.721-.321-.317-.122-.65-.183-.984-.183s-.667.061-.984.183c-.553.213-1.131.321-1.721.321-2.92,0-5.295-2.69-5.295-5.998Zm18.545,10.998H3c-1.103,0-2-.897-2-2s.897-2,2-2h19.545c-.276.502-.545,1.196-.545,2s.269,1.498.545,2Z"/>
</svg>
