<svg id="Layer_1" viewBox="0 0 24 24" xmlns="http://www.w3.org/2000/svg" data-name="Layer 1"><path d="m.135 3.607c-.188-.201-.178-.518.023-.707 1.995-1.87 4.603-2.9 7.342-2.9s5.347 1.03 7.342 2.9c.201.189.212.505.023.707s-.506.212-.707.023c-1.81-1.696-4.174-2.63-6.658-2.63s-4.849.934-6.658 2.63c-.201.188-.517.179-.707-.023zm3.523 2.911c-.201.189-.212.505-.023.707.19.202.507.211.707.023 1.771-1.66 4.545-1.66 6.316 0 .201.189.517.179.707-.023.188-.201.178-.518-.023-.707-2.154-2.02-5.529-2.02-7.684 0zm14.842 11.982c-.552 0-1 .448-1 1s.448 1 1 1 1-.448 1-1-.448-1-1-1zm-7 4.5h-8c-1.379 0-2.5-1.122-2.5-2.5v-1c0-1.378 1.121-2.5 2.5-2.5h7.5c.276 0 .5-.224.5-.5s-.224-.5-.5-.5h-3v-5.5c0-.276-.224-.5-.5-.5s-.5.224-.5.5v5.5h-3.5c-1.93 0-3.5 1.57-3.5 3.5v1c0 1.93 1.57 3.5 3.5 3.5h8c.276 0 .5-.224.5-.5s-.224-.5-.5-.5zm12.5-4.5v2c0 1.93-1.57 3.5-3.5 3.5h-4c-1.93 0-3.5-1.57-3.5-3.5v-2c0-1.391.822-2.585 2-3.149v-1.851c0-1.93 1.57-3.5 3.5-3.5s3.5 1.57 3.5 3.5v1.851c1.178.564 2 1.758 2 3.149zm-8-3.449c.165-.024.329-.051.5-.051h4c.171 0 .335.027.5.051v-1.551c0-1.378-1.121-2.5-2.5-2.5s-2.5 1.122-2.5 2.5zm7 3.449c0-1.378-1.121-2.5-2.5-2.5h-4c-1.379 0-2.5 1.122-2.5 2.5v2c0 1.378 1.121 2.5 2.5 2.5h4c1.379 0 2.5-1.122 2.5-2.5z"/></svg>