<svg id="Layer_1" viewBox="0 0 24 24" xmlns="http://www.w3.org/2000/svg" data-name="Layer 1"><path d="m22.5 13c-.827 0-1.5.673-1.5 1.5v3c0 .276.224.5.5.5s.5-.224.5-.5v-1h1v1c0 .276.224.5.5.5s.5-.224.5-.5v-3c0-.827-.673-1.5-1.5-1.5zm-.5 2.5v-1c0-.276.225-.5.5-.5s.5.224.5.5v1zm-7-1.5v1h.808c.276 0 .5.224.5.5s-.224.5-.5.5h-.808v1h.808c.276 0 .5.224.5.5s-.224.5-.5.5h-.808c-.552 0-1-.449-1-1v-3c0-.551.448-1 1-1h.808c.276 0 .5.224.5.5s-.224.5-.5.5zm3 3.5v-3.5h-.5c-.276 0-.5-.224-.5-.5s.224-.5.5-.5h2c.276 0 .5.224.5.5s-.224.5-.5.5h-.5v3.5c0 .276-.224.5-.5.5s-.5-.224-.5-.5zm-8-3.5v3c0 .551.448 1 1 1h.5c.827 0 1.5-.673 1.5-1.5 0-.384-.145-.734-.383-1 .238-.266.383-.616.383-1 0-.827-.673-1.5-1.5-1.5h-.5c-.552 0-1 .449-1 1zm1 0h.5c.275 0 .5.224.5.5s-.225.5-.5.5h-.5zm0 2h.5c.275 0 .5.224.5.5s-.225.5-.5.5h-.5zm-5.5-8c1.103 0 2-.897 2-2s-.897-2-2-2-2 .897-2 2 .897 2 2 2zm0-3c.552 0 1 .449 1 1s-.448 1-1 1-1-.449-1-1 .448-1 1-1zm-5.331 2.904c-.101.388-.044.792.158 1.136.394.704 1.367.956 2.055.533l.222-.13c.408.339.882.606 1.396.786v.271c0 .827.673 1.5 1.5 1.5s1.5-.673 1.5-1.5v-.271c.515-.18.988-.446 1.396-.786l.223.131c.686.422 1.66.17 2.053-.533.423-.687.171-1.659-.533-2.053l-.232-.137c.063-.299.094-.576.094-.85s-.03-.551-.094-.85l.232-.137c.704-.394.956-1.366.534-2.053-.395-.705-1.365-.955-2.055-.533l-.222.131c-.408-.34-.882-.606-1.396-.786v-.271c0-.829-.673-1.502-1.5-1.502s-1.5.673-1.5 1.5v.271c-.515.18-.988.446-1.396.786l-.223-.131c-.687-.422-1.66-.171-2.053.533-.423.687-.171 1.659.533 2.053l.232.137c-.063.299-.094.576-.094.85s.03.551.094.85l-.232.137c-.346.203-.592.528-.692.917zm1.981-.949c-.103-.361-.15-.664-.15-.955s.048-.594.15-.955c.062-.219-.03-.453-.228-.568l-.556-.327c-.235-.132-.318-.455-.177-.685.131-.235.456-.319.684-.178l.54.318c.196.117.447.085.607-.077.431-.431.985-.743 1.604-.903.221-.057.375-.256.375-.484v-.642c0-.276.225-.5.5-.5s.5.224.5.5v.642c0 .228.154.427.375.484.618.16 1.173.473 1.604.903.159.161.411.193.607.077l.539-.317c.23-.14.553-.058.686.178.14.228.057.552-.178.684l-.556.327c-.197.116-.29.349-.228.568.103.361.15.664.15.955s-.048.594-.15.955c-.062.219.03.453.228.568l.556.327c.235.132.318.455.177.685-.131.234-.457.319-.684.178l-.54-.318c-.195-.115-.447-.083-.607.078-.43.43-.984.742-1.604.903-.221.057-.375.256-.375.484v.642c0 .276-.225.5-.5.5s-.5-.224-.5-.5v-.642c0-.228-.154-.427-.375-.484-.619-.161-1.174-.473-1.604-.903-.161-.162-.412-.193-.607-.078l-.539.317c-.23.144-.553.056-.686-.178-.14-.228-.057-.552.178-.684l.556-.327c.197-.116.29-.349.228-.568zm9.85-.455c0-.276.224-.5.5-.5h5c2.481 0 4.5 2.019 4.5 4.5 0 .276-.224.5-.5.5s-.5-.224-.5-.5c0-1.93-1.57-3.5-3.5-3.5h-5c-.276 0-.5-.224-.5-.5zm9.5 12.5h-6c-.133 0-.26.053-.354.146l-.854.854h-4.586l-.854-.854c-.094-.094-.221-.146-.354-.146h-5.498v-6.5c0-.276-.224-.5-.5-.5s-.5.224-.5.5v6.551c-1.14.232-2 1.242-2 2.449 0 1.378 1.121 2.5 2.5 2.5h19c1.379 0 2.5-1.122 2.5-2.5s-1.121-2.5-2.5-2.5zm0 4h-19c-.827 0-1.5-.673-1.5-1.5s.673-1.5 1.5-1.5h5.793l.854.854c.094.094.221.146.354.146h5c.133 0 .26-.053.354-.146l.854-.854h5.793c.827 0 1.5.673 1.5 1.5s-.673 1.5-1.5 1.5z"/></svg>