<svg id="Layer_1" viewBox="0 0 24 24" xmlns="http://www.w3.org/2000/svg" data-name="Layer 1"><path d="m6.5 11c-3.584 0-6.5 2.916-6.5 6.5s2.916 6.5 6.5 6.5 6.5-2.916 6.5-6.5-2.916-6.5-6.5-6.5zm0 12c-3.033 0-5.5-2.467-5.5-5.5s2.467-5.5 5.5-5.5 5.5 2.467 5.5 5.5-2.467 5.5-5.5 5.5zm.991-9.088c-.267-.266-.622-.413-1-.413h-.002c-.378 0-.733.148-.999.415l-1.854 1.831c-.273.319-.334.754-.158 1.136s.546.619.966.619h1.558v3c0 .276.224.5.5.5s.5-.224.5-.5v-3h1.551c.421 0 .792-.238.967-.621s.113-.819-.19-1.167l-1.836-1.8zm-3.196 2.588 1.898-1.876.003-.003c.078-.078.182-.121.293-.121.112 0 .216.042.297.124l1.909 1.877h-4.4zm6.705-12.5c0 .552-.448 1-1 1s-1-.448-1-1 .448-1 1-1 1 .448 1 1zm8.5-4h-15c-2.481 0-4.5 2.019-4.5 4.5v6c0 .276.224.5.5.5s.5-.224.5-.5v-2.5h22v9.5c0 1.93-1.57 3.5-3.5 3.5h-5c-.276 0-.5.224-.5.5s.224.5.5.5h5c2.481 0 4.5-2.019 4.5-4.5v-13c0-2.481-2.019-4.5-4.5-4.5zm3.5 7h-22v-2.5c0-1.93 1.57-3.5 3.5-3.5h15c1.93 0 3.5 1.57 3.5 3.5zm-15-3c0 .552-.448 1-1 1s-1-.448-1-1 .448-1 1-1 1 .448 1 1zm8 10.996c-.002-.493-.382-.92-.871-.987-.143-.02-.279-.006-.404.033-.23.072-.477-.042-.583-.258l-.005-.009c-.135-.274.007-.607.3-.694.177-.052.364-.081.558-.081 1.059-.003 1.954.849 2.003 1.907.044.961-.594 1.783-1.47 2.023-.28.077-.561-.122-.593-.411-.049-.249.101-.488.348-.557.407-.116.725-.524.717-.966zm-11-10.996c0 .552-.448 1-1 1s-1-.448-1-1 .448-1 1-1 1 .448 1 1zm14.397 11.891.233.14c.71.426.94 1.348.514 2.058-.426.71-1.348.941-2.059.514l-.224-.135c-.817.606-1.446.906-2.458.999-.319.03-.579-.255-.525-.571l.002-.01c.038-.221.218-.39.441-.414.853-.091 1.429-.372 2-.866.256-.221.626-.253.916-.078l.362.218c.237.142.544.066.686-.171.142-.237.065-.544-.171-.686l-.37-.222c-.297-.178-.439-.53-.356-.866.07-.283.12-.569.112-.801.008-.234-.042-.522-.113-.807-.083-.336.068-.686.365-.864l.363-.218c.237-.142.313-.449.171-.686-.142-.237-.449-.313-.686-.171l-.355.213c-.287.172-.652.145-.907-.071-.382-.323-.825-.569-1.305-.729-.319-.106-.533-.406-.533-.742v-.425c0-.276-.224-.5-.5-.5-.276 0-.5.224-.5.5v.432c0 .337-.216.635-.535.743-.194.066-.384.145-.563.239-.197.104-.436.064-.586-.1-.005-.006-.01-.011-.015-.017-.221-.241-.156-.621.132-.775.182-.097.371-.182.568-.252v-.271c0-.828.672-1.5 1.5-1.5.828 0 1.5.672 1.5 1.5v.271c.499.175.96.433 1.361.76l.224-.135c.71-.427 1.632-.197 2.059.514.426.71.196 1.631-.514 2.058l-.233.14c.07.313.103.603.103.891s-.033.578-.103.891z"/></svg>