<?xml version="1.0" encoding="UTF-8"?>
<svg xmlns="http://www.w3.org/2000/svg" id="Layer_1" data-name="Layer 1" viewBox="0 0 24 24">
  <path d="m23.5,18c-2.095,0-3.229-3.969-3.5-5.546v-3.454h1.5c.276,0,.5-.224.5-.5s-.224-.5-.5-.5c-2.095,0-3.229-3.969-3.5-5.546V.5c0-.276-.224-.5-.5-.5s-.5.224-.5.5v1.5H7V.5c0-.276-.224-.5-.5-.5s-.5.224-.5.5v1.954c-.271,1.577-1.405,5.546-3.5,5.546-.276,0-.5.224-.5.5s.224.5.5.5h1.5v3.454c-.271,1.577-1.405,5.546-3.5,5.546-.276,0-.5.224-.5.5s.224.5.5.5h1.5v4.5c0,.276.224.5.5.5s.5-.224.5-.5v-4.5h5v4.5c0,.276.224.5.5.5s.5-.224.5-.5v-4.5h6v4.5c0,.276.224.5.5.5s.5-.224.5-.5v-4.5h5v4.5c0,.276.224.5.5.5s.5-.224.5-.5v-4.5h1.5c.276,0,.5-.224.5-.5s-.224-.5-.5-.5Zm-4.5-6h-4v-3h4v3Zm-9,0v-3h4v3h-4ZM6.913,3h10.175c.214,1.012.874,3.573,2.264,5H4.648c1.39-1.427,2.05-3.988,2.264-5Zm2.087,6v3h-4v-3h4Zm-4.087,4h14.175c.214,1.012.874,3.573,2.264,5H2.648c1.39-1.427,2.05-3.988,2.264-5Z"/>
</svg>
