<svg id="Layer_1" viewBox="0 0 24 24" xmlns="http://www.w3.org/2000/svg" data-name="Layer 1"><path d="m9 6c0-.552.448-1 1-1s1 .448 1 1-.448 1-1 1-1-.448-1-1zm5.996 3.986c.55 0 .996-.446.996-.996s-.446-.996-.996-.996-.996.446-.996.996.446.996.996.996zm8.86 5.524c-.684 2.342-1.923 4.451-3.581 6.102-1.524 1.517-3.679 2.388-5.914 2.388h-4.722c-2.235 0-4.39-.871-5.914-2.388-1.659-1.652-2.897-3.762-3.58-6.102-.315-1.08-.11-2.214.562-3.111.409-.545.96-.926 1.574-1.156-.185-.435-.28-.891-.28-1.383 0-1.292.641-2.508 1.714-3.253.181-.121.286-.191.286-.607 0-2.206 1.794-4 4-4 .614 0 .767-.213.903-.401.733-1.018 1.861-1.599 3.096-1.599s2.363.581 3.092 1.594c.14.193.293.406.907.406 2.206 0 4 1.794 4 4 0 .416.105.487.239.576 1.119.776 1.76 1.992 1.76 3.284 0 .493-.095.949-.28 1.383.614.23 1.165.611 1.574 1.156.673.897.878 2.031.563 3.111zm-20.554-4.486c.068-.004.132-.023.201-.023h16.994c.069 0 .133.019.201.023.188-.364.301-.744.301-1.165 0-.964-.48-1.873-1.284-2.43-.254-.171-.715-.48-.715-1.43 0-1.654-1.347-3-3.001-3-1.127 0-1.524-.552-1.715-.817-.543-.753-1.375-1.183-2.285-1.183s-1.742.43-2.282 1.178c-.193.27-.591.822-1.718.822-1.654 0-3 1.346-3 3 0 .949-.461 1.259-.683 1.407-.837.58-1.317 1.489-1.317 2.453 0 .421.114.801.301 1.165zm19.19 1.975c-.476-.635-1.203-.999-1.996-.999h-16.993c-.793 0-1.52.364-1.996.999-.482.643-.629 1.456-.402 2.231.626 2.146 1.807 4.161 3.325 5.672 1.339 1.333 3.237 2.097 5.209 2.097h4.722c1.972 0 3.871-.765 5.209-2.097 1.516-1.51 2.697-3.525 3.326-5.673.226-.774.079-1.588-.403-2.23zm-4.938 1.353c.308.279.468.675.441 1.085-.101 1.556-.659 2.789-1.662 3.667-1.451 1.269-3.392 1.394-4.104 1.394h-.476c-.709 0-2.642-.125-4.089-1.391-1.003-.878-1.562-2.113-1.662-3.672-.026-.41.136-.806.443-1.086.304-.276.707-.395 1.105-.335 2.632.424 3.865 2.245 4.44 3.764.578-1.519 1.814-3.341 4.455-3.765.403-.063.804.06 1.107.338zm-6.121 5.135c-.187-1.187-.951-3.987-4.04-4.485-.205-.035-.412.165-.393.369.082 1.281.525 2.283 1.317 2.978 1.013.89 2.379 1.095 3.115 1.138zm5.565-4.116c.019-.205-.188-.407-.394-.369-3.099.496-3.867 3.297-4.054 4.485.74-.043 2.114-.248 3.13-1.142.792-.695 1.235-1.696 1.317-2.974z"/></svg>