<svg id="Layer_1" viewBox="0 0 24 24" xmlns="http://www.w3.org/2000/svg" data-name="Layer 1"><path d="m19.5 3h-15c-2.481 0-4.5 2.019-4.5 4.5v9c0 2.481 2.019 4.5 4.5 4.5h15c2.481 0 4.5-2.019 4.5-4.5v-9c0-2.481-2.019-4.5-4.5-4.5zm3.5 13.5c0 1.93-1.57 3.5-3.5 3.5h-15c-1.93 0-3.5-1.57-3.5-3.5v-9c0-1.93 1.57-3.5 3.5-3.5h15c1.93 0 3.5 1.57 3.5 3.5zm-15-7.5v2.5h2.5c.276 0 .5.224.5.5s-.224.5-.5.5h-2.5v2.5h2.5c.276 0 .5.224.5.5s-.224.5-.5.5h-2.5c-.551 0-1-.448-1-1v-6c0-.552.449-1 1-1h2.5c.276 0 .5.224.5.5s-.224.5-.5.5zm8.993 5.057c-.183 1.127-1.162 1.945-2.329 1.945-.878 0-1.947-.552-2.473-1.086-.194-.196-.192-.513.005-.707.197-.192.513-.191.707.006.414.419 1.237.787 1.761.787.674 0 1.238-.465 1.343-1.105.036-.228.075-1.006-.976-1.431-.112-.042-1.208-.459-1.699-.764-.663-.466-.977-1.173-.88-1.916.104-.785.627-1.423 1.365-1.665.898-.298 1.822-.047 2.736.746.209.181.231.497.051.705-.181.209-.496.231-.705.051-.648-.562-1.211-.737-1.769-.553-.371.122-.634.446-.688.847-.049.379.103.715.428.946.334.204 1.214.554 1.523.671 1.393.563 1.73 1.71 1.599 2.522z"/></svg>