<svg id="Layer_1" viewBox="0 0 24 24" xmlns="http://www.w3.org/2000/svg" data-name="Layer 1"><path d="m12 20c4.411 0 8-2.916 8-6.5s-3.589-6.5-8-6.5-8 2.916-8 6.5 3.589 6.5 8 6.5zm-5.553-3.165 5.053-2.526v4.671c-2.057-.115-3.868-.93-5.053-2.145zm6.053 2.145v-4.671l5.053 2.526c-1.185 1.215-2.996 2.029-5.053 2.145zm5.702-2.938-5.083-2.542 5.083-2.542c.507.761.798 1.625.798 2.542s-.291 1.781-.798 2.542zm-.649-5.877-5.053 2.526v-4.671c2.057.115 3.868.93 5.053 2.145zm-6.053-2.145v4.671l-5.053-2.526c1.185-1.215 2.996-2.03 5.053-2.145zm-5.702 2.938 5.083 2.542-5.083 2.542c-.507-.761-.798-1.625-.798-2.542s.291-1.781.798-2.542zm16.23-5.291 1.405-1.513c.62-.773.739-1.808.312-2.702-.43-.896-1.315-1.452-2.311-1.452h-18.869c-.995 0-1.88.557-2.31 1.452-.428.894-.309 1.929.335 2.729l1.382 1.485-1.896 13.627c-.185 1.176.154 2.371.93 3.277.777.909 1.909 1.43 3.106 1.43h15.775c1.197 0 2.329-.521 3.106-1.43.775-.906 1.114-2.101.931-3.269l-1.896-13.635zm-20.682-2.139c-.383-.477-.453-1.091-.188-1.643.266-.554.792-.885 1.408-.885h18.869c.616 0 1.143.331 1.408.885.265.552.194 1.166-.165 1.615l-1.396 1.5h-18.564zm-.28 15.912 1.869-13.44h18.13l1.871 13.448c.084.531.01 1.061-.176 1.552h-21.52c-.185-.492-.259-1.024-.175-1.561zm3.047 3.561c-.865 0-1.679-.368-2.262-1h20.299c-.583.632-1.397 1-2.262 1h-15.776z"/></svg>