<svg id="Layer_1" viewBox="0 0 24 24" xmlns="http://www.w3.org/2000/svg" data-name="Layer 1"><path d="m23.5 23h-.5v-7.75c0-3.722-3.028-6.75-6.75-6.75h-7.5c-.413 0-.75-.337-.75-.75v-6.75h.5c.276 0 .5-.224.5-.5s-.224-.5-.5-.5h-8c-.276 0-.5.224-.5.5s.224.5.5.5h.5v7.75c0 3.722 3.028 6.75 6.75 6.75h7.5c.413 0 .75.337.75.75v6.75h-.5c-.276 0-.5.224-.5.5s.224.5.5.5h8c.276 0 .5-.224.5-.5s-.224-.5-.5-.5zm-21.5-14.25v-7.75h5v6.75c0 .965.785 1.75 1.75 1.75h2.75v5h-3.75c-3.171 0-5.75-2.579-5.75-5.75zm20 14.25h-5v-6.75c0-.965-.785-1.75-1.75-1.75h-2.75v-5h3.75c3.171 0 5.75 2.579 5.75 5.75z"/></svg>