<svg id="Layer_1" viewBox="0 0 24 24" xmlns="http://www.w3.org/2000/svg" data-name="Layer 1"><path d="m12 9c-2.757 0-5 2.243-5 5s2.243 5 5 5 5-2.243 5-5-2.243-5-5-5zm0 9c-2.206 0-4-1.794-4-4s1.794-4 4-4 4 1.794 4 4-1.794 4-4 4zm11.318-6.336c-.626-1-1.58-2.27-2.891-3.434l2.205-2.743c.173-.215.139-.53-.076-.703-.216-.172-.529-.14-.703.076l-2.197 2.733c-.86-.659-1.852-1.251-2.984-1.705l1.142-3.339c.09-.261-.05-.545-.311-.635-.262-.088-.546.05-.635.312l-1.139 3.33c-.98-.302-2.055-.492-3.229-.536v-3.52c0-.276-.224-.5-.5-.5s-.5.224-.5.5v3.521c-1.173.044-2.248.234-3.228.536l-1.139-3.33c-.09-.262-.376-.4-.635-.312-.262.089-.401.374-.312.635l1.143 3.339c-1.141.458-2.14 1.055-3.004 1.721l-2.21-2.749c-.173-.214-.489-.25-.703-.076-.215.173-.249.488-.076.703l2.219 2.76c-1.301 1.159-2.248 2.421-2.871 3.416-.91 1.441-.911 3.231-.003 4.67 1.561 2.49 5.107 6.667 11.32 6.667s9.759-4.175 11.317-6.663c.909-1.441.91-3.231 0-4.673zm-.848 4.141c-1.45 2.314-4.738 6.195-10.471 6.195s-9.02-3.883-10.473-6.2c-.701-1.11-.701-2.491.003-3.604 1.45-2.314 4.739-6.196 10.471-6.196s9.021 3.881 10.474 6.199c.701 1.111.7 2.492-.003 3.605z"/></svg>