<?xml version="1.0" encoding="UTF-8"?>
<svg xmlns="http://www.w3.org/2000/svg" id="Layer_1" data-name="Layer 1" viewBox="0 0 24 24">
  <path d="M2,5.949c-1.14-.232-2-1.242-2-2.449V.5C0,.224,.224,0,.5,0s.5,.224,.5,.5V3.5c0,.651,.419,1.201,1,1.408V.5c0-.276,.224-.5,.5-.5s.5,.224,.5,.5V4.908c.581-.207,1-.757,1-1.408V.5c0-.276,.224-.5,.5-.5s.5,.224,.5,.5V3.5c0,1.207-.86,2.217-2,2.449v5.551c0,.276-.224,.5-.5,.5s-.5-.224-.5-.5V5.949ZM24,.597V11.5c0,.276-.224,.5-.5,.5s-.5-.224-.5-.5v-1.193c-1.7-1.535-2.545-3.274-2.498-5.177,.094-2.356,1.337-4.163,2.277-4.942,.229-.198,.56-.244,.844-.114,.235,.106,.377,.302,.377,.523Zm-1,8.306V1.364c-.592,.686-1.457,2.138-1.498,3.79-.033,1.337,.47,2.593,1.498,3.748Zm.5,5.098c-.276,0-.5,.224-.5,.5v5.419l-.149,.055-2.042-2.383c-1.957-2.282-4.803-3.591-7.809-3.591s-5.852,1.309-7.809,3.591l-2.042,2.383-.149-.055v-5.419c0-.276-.224-.5-.5-.5s-.5,.224-.5,.5v5.419c-.034,.977,1.294,1.474,1.909,.706l2.042-2.382c.322-.375,.678-.71,1.049-1.026v6.283c0,.276,.224,.5,.5,.5s.5-.224,.5-.5c0,0-.004-7.015-.005-7.023,1.479-.949,3.208-1.477,5.005-1.477s3.525,.528,5.005,1.477c0,.008-.005,7.023-.005,7.023,0,.276,.224,.5,.5,.5s.5-.224,.5-.5v-6.284c.371,.315,.727,.65,1.049,1.025l2.042,2.383c.611,.768,1.945,.272,1.909-.706v-5.419c0-.276-.224-.5-.5-.5ZM8.5,7.5c0-2.481,2.019-4.5,4.5-4.5s4.5,2.019,4.5,4.5-2.019,4.5-4.5,4.5-4.5-2.019-4.5-4.5Zm1,0c0,1.93,1.57,3.5,3.5,3.5s3.5-1.57,3.5-3.5-1.57-3.5-3.5-3.5-3.5,1.57-3.5,3.5Z"/>
</svg>
