<svg id="Layer_1" viewBox="0 0 24 24" xmlns="http://www.w3.org/2000/svg" data-name="Layer 1"><path d="m0 7.5c0-.276.224-.5.5-.5h1.525c.104-1.141.555-2.183 1.251-3.017l-1.13-1.13c-.195-.195-.195-.512 0-.707s.512-.195.707 0l1.13 1.13c.834-.695 1.875-1.147 3.017-1.251v-1.525c0-.276.224-.5.5-.5s.5.224.5.5v1.525c.587.053 1.158.195 1.7.433.253.11.369.405.258.658-.11.253-.404.371-.658.258-.568-.248-1.174-.374-1.8-.374-2.468.009-4.491 2.032-4.5 4.5 0 1.602.862 3.095 2.25 3.898.239.138.321.444.182.683-.139.241-.448.319-.683.182-.273-.158-.523-.345-.762-.544l-1.134 1.134c-.195.195-.512.195-.707 0s-.195-.512 0-.707l1.136-1.136c-.704-.849-1.146-1.895-1.249-3.011h-1.533c-.276.001-.5-.223-.5-.499zm23.174 8.854c-.485.416-1.112.646-1.765.646-1.168 0-2.315-.719-2.668-1.673-.145-.392-.792-.392-.938 0-.352.954-1.499 1.673-2.667 1.673s-2.314-.719-2.667-1.673c-.145-.393-.793-.393-.937 0-.353.954-1.5 1.673-2.667 1.673s-2.315-.719-2.667-1.673c-.073-.196-.26-.327-.469-.327s-.396.13-.469.327c-.353.954-1.5 1.673-2.668 1.673-.653 0-1.28-.229-1.765-.646-.208-.179-.523-.156-.705.054-.18.209-.156.525.054.705.666.572 1.524.887 2.416.887 1.24 0 2.434-.594 3.137-1.494.082.105.191.19.286.286.003.028 2.007 6.849 2.007 6.849.078.267.363.416.621.338.265-.078.416-.356.338-.621l-1.684-5.696c.491.206 1.021.338 1.568.338 1.239 0 2.434-.594 3.136-1.494.703.9 1.897 1.494 3.136 1.494s2.434-.594 3.136-1.494c.949 1.215 2.852 1.824 4.396 1.277l-1.648 5.575c-.078.265.073.543.338.621.258.078.543-.071.621-.338l2-6.766c.063-.212-.022-.441-.208-.562-.186-.12-.429-.104-.597.041zm-16.151-2.903c.25.121.548.014.667-.234l3.731-7.781c.281-.545 1.19-.542 1.468-.002l1.165 2.293c.093.182.28.291.491.271.204-.019.376-.159.434-.355l1.494-5.017c.15-.436.539-.608.854-.624.331-.021.727.118.916.528l4.798 11.168c.109.257.409.37.657.262.254-.109.371-.403.262-.657l-4.804-11.181c-.333-.721-1.073-1.163-1.88-1.119-.817.042-1.487.539-1.754 1.317l-1.143 3.836-.599-1.179c-.311-.603-.933-.978-1.624-.978s-1.312.375-1.63.99l-3.737 7.793c-.12.249-.015.548.234.667z"/></svg>