<?xml version="1.0" encoding="UTF-8"?>
<svg xmlns="http://www.w3.org/2000/svg" id="Layer_1" data-name="Layer 1" viewBox="0 0 24 24">
  <path d="M23.935,15.252l-1.946-3.406c-.031-1.413-.465-2.754-1.268-3.883l1.682-1.522c.913-1.051,.69-2.467-.597-3.789C19.56,.344,16.069-.177,13.767,.075,7.629,.75,3,6.074,3,12.457v4.25c0,1.521-.333,2.027-.692,2.647S.264,21.396,.238,21.438c-.314,.531-.319,1.169-.014,1.705,.306,.537,.857,.857,1.475,.857H3.86c1.751,0,3.378-.944,4.248-2.465,.583-1.021,.892-2.184,.892-3.36v-5.902c0-3.361,2.608-6.173,5.814-6.27,1.648-.053,3.189,.551,4.363,1.691,1.175,1.14,1.822,2.669,1.822,4.306h-3.591c-.777,0-1.409,.632-1.409,1.409,0,.556,.328,1.061,.837,1.288l3.746,1.665,1.388,4.863c.087,.438-.024,.887-.308,1.231s-.701,.543-1.147,.543h-3.751c-1.223,0-2.372-.651-3.001-1.699l-1.835-3.058c-.142-.237-.451-.314-.686-.172-.237,.142-.314,.449-.172,.686l1.835,3.058c.809,1.349,2.287,2.186,3.858,2.186h3.751c.747,0,1.447-.331,1.921-.908,.474-.578,.661-1.329,.505-2.101l-1.461-5.128c-.04-.143-.142-.26-.277-.32l-3.959-1.76c-.148-.065-.244-.213-.244-.374,0-.226,.184-.409,.409-.409h4.086l1.57,2.748c.093,.161,.262,.252,.435,.252,.085,0,.17-.021,.248-.065,.24-.138,.323-.443,.187-.683Zm-4.06-8.276c-1.37-1.33-3.175-2.02-5.09-1.973-3.741,.113-6.785,3.374-6.785,7.27v5.902c0,1.003-.263,1.993-.76,2.864-.692,1.21-1.987,1.961-3.38,1.961H1.699c-.254,0-.48-.132-.605-.353-.115-.201-.123-.438-.024-.645,0,0,1.565-1.274,2.09-2.126s.841-1.366,.841-3.171v-4.25C4,6.584,8.246,1.688,13.876,1.069c2.249-.244,5.347,.362,7.213,2.28,.528,.542,1.303,1.58,.602,2.392l-1.604,1.449c-.069-.072-.14-.144-.211-.213Z"/>
</svg>
