<?xml version="1.0" encoding="UTF-8"?>
<svg xmlns="http://www.w3.org/2000/svg" id="Layer_1" data-name="Layer 1" viewBox="0 0 24 24">
  <path d="M21.5,4h-3.551c-.252-2.244-2.139-4-4.449-4h-3c-2.31,0-4.197,1.756-4.449,4H2.5c-.276,0-.5,.224-.5,.5s.224,.5,.5,.5h1.5v14.5c0,2.481,2.019,4.5,4.5,4.5h7c2.481,0,4.5-2.019,4.5-4.5V5h1.5c.276,0,.5-.224,.5-.5s-.224-.5-.5-.5ZM10.5,1h3c1.758,0,3.204,1.308,3.449,3H7.051c.245-1.692,1.691-3,3.449-3Zm8.5,18.5c0,1.93-1.57,3.5-3.5,3.5h-7c-1.93,0-3.5-1.57-3.5-3.5V5h14v14.5ZM10,10.5v7c0,.276-.224,.5-.5,.5s-.5-.224-.5-.5v-7c0-.276,.224-.5,.5-.5s.5,.224,.5,.5Zm5,0v7c0,.276-.224,.5-.5,.5s-.5-.224-.5-.5v-7c0-.276,.224-.5,.5-.5s.5,.224,.5,.5Z"/>
</svg>
