<?xml version="1.0" encoding="UTF-8"?>
<svg xmlns="http://www.w3.org/2000/svg" id="Layer_1" data-name="Layer 1" viewBox="0 0 24 24">
  <path d="m23.939,9.435C23.077,4.867,18.609.013,12.025.001c-.002,0-.004,0-.006,0-.006,0-.012,0-.019,0-.006,0-.013,0-.019,0-.002,0-.004,0-.006,0C5.391.014.923,4.867.061,9.435c-.218,1.15.155,2.329,1.02,3.173l6.025,5.212c-.062.218-.106.443-.106.68v3c0,1.378,1.122,2.5,2.5,2.5h5c1.379,0,2.5-1.122,2.5-2.5v-3c0-.237-.044-.462-.106-.68l6.048-5.233c.842-.824,1.215-2.002.997-3.153Zm-1.099-.303c-.718-.589-1.734-1.131-2.841-1.131-1.43,0-2.739.809-3.545,1.436-.319-3.834-2.278-6.934-3.366-8.386,5.234.473,8.811,4.309,9.752,8.081Zm-11.871,6.869l-2.411-5.342c.497-.46,1.934-1.658,3.441-1.658s2.943,1.197,3.441,1.657l-2.411,5.343h-2.06Zm-2.407-6.646c.382-3.846,2.557-6.956,3.438-8.072.88,1.115,3.056,4.226,3.438,8.072-.812-.614-2.07-1.354-3.438-1.354s-2.626.74-3.438,1.354ZM10.911,1.05c-1.088,1.452-3.047,4.553-3.366,8.386-.805-.628-2.114-1.436-3.545-1.436-1.107,0-2.123.542-2.841,1.132C2.099,5.359,5.677,1.523,10.911,1.05ZM1.757,11.873c-.343-.336-.563-.756-.672-1.205,0,0,0,0,0,0,.26-.475,1.508-1.667,2.915-1.667,1.544,0,3.016,1.259,3.477,1.691l2.396,5.309h-.373c-.773,0-1.456.36-1.915.913L1.757,11.873Zm14.243,9.627c0,.827-.673,1.5-1.5,1.5h-5c-.827,0-1.5-.673-1.5-1.5v-3c0-.827.673-1.5,1.5-1.5h5c.827,0,1.5.673,1.5,1.5v3Zm.415-4.588c-.459-.553-1.142-.912-1.915-.912h-.373l2.397-5.31c.463-.434,1.934-1.69,3.476-1.69,1.407,0,2.655,1.192,2.915,1.667,0,0,.001.001.002.002-.107.445-.322.86-.651,1.183l-5.85,5.06Zm-2.415,3.088c0,.276-.224.5-.5.5h-1v1c0,.276-.224.5-.5.5s-.5-.224-.5-.5v-1h-1c-.276,0-.5-.224-.5-.5s.224-.5.5-.5h1v-1c0-.276.224-.5.5-.5s.5.224.5.5v1h1c.276,0,.5.224.5.5Z"/>
</svg>
