<?xml version="1.0" encoding="UTF-8"?>
<svg xmlns="http://www.w3.org/2000/svg" id="Outline" viewBox="0 0 24 24">
  <path d="m16.5,0h-1.5c-.276,0-.5.224-.5.5,0,1.378-1.122,2.5-2.5,2.5s-2.5-1.122-2.5-2.5c0-.276-.224-.5-.5-.5h-1.5C5.019,0,3,2.019,3,4.5v15c0,2.481,2.019,4.5,4.5,4.5h1.5c.276,0,.5-.224.5-.5,0-1.378,1.122-2.5,2.5-2.5s2.5,1.122,2.5,2.5c0,.276.224.5.5.5h1.5c2.481,0,4.5-2.019,4.5-4.5V4.5c0-2.481-2.019-4.5-4.5-4.5Zm3.5,19.5c0,1.93-1.57,3.5-3.5,3.5h-1.036c-.243-1.694-1.704-3-3.464-3s-3.221,1.306-3.464,3h-1.036c-1.93,0-3.5-1.57-3.5-3.5V4.5c0-1.93,1.57-3.5,3.5-3.5h1.036c.243,1.694,1.704,3,3.464,3s3.221-1.306,3.464-3h1.036c1.93,0,3.5,1.57,3.5,3.5v15Zm-13-3c0,.276-.224.5-.5.5h-1c-.276,0-.5-.224-.5-.5s.224-.5.5-.5h1c.276,0,.5.224.5.5Zm4,0c0,.276-.224.5-.5.5h-1c-.276,0-.5-.224-.5-.5s.224-.5.5-.5h1c.276,0,.5.224.5.5Zm4,0c0,.276-.224.5-.5.5h-1c-.276,0-.5-.224-.5-.5s.224-.5.5-.5h1c.276,0,.5.224.5.5Zm4,0c0,.276-.224.5-.5.5h-1c-.276,0-.5-.224-.5-.5s.224-.5.5-.5h1c.276,0,.5.224.5.5Z"/>
</svg>
