<svg id="Layer_1" viewBox="0 0 24 24" xmlns="http://www.w3.org/2000/svg" data-name="Layer 1"><path d="m6.5 11c-3.584 0-6.5 2.916-6.5 6.5s2.916 6.5 6.5 6.5 6.5-2.916 6.5-6.5-2.916-6.5-6.5-6.5zm0 12c-3.032 0-5.5-2.468-5.5-5.5s2.468-5.5 5.5-5.5 5.5 2.468 5.5 5.5-2.468 5.5-5.5 5.5zm2.5-3.921c.003 1.089-.923 1.921-2 1.921v.5c0 .276-.224.5-.5.5s-.5-.224-.5-.5v-.5c-.96 0-1.778-.534-1.958-1.395-.059-.27.112-.536.383-.594.272-.062.535.113.594.383.08.368.434.605.902.605h1.158c.508 0 .921-.413.921-.921 0-.452-.323-.835-.77-.909l-1.649-.358c-.906-.15-1.581-.947-1.581-1.891-.003-1.089.872-1.921 2-1.921v-.5c0-.276.224-.5.5-.5s.5.224.5.5v.5c.974 0 1.776.534 1.958 1.394.059.27-.112.536-.382.595-.271.06-.536-.111-.595-.382-.08-.368-.435-.606-.902-.606h-1.158c-.508 0-.921.413-.921.921 0 .452.323.835.77.909l1.649.358c.906.15 1.581.947 1.581 1.891zm11.384-.399c.177.212.148.527-.063.704-.211.176-.526.149-.704-.063l-1.619-1.94c.029 2.276-.621 4.494-1.858 6.393-.152.233-.463.294-.692.146-.23-.151-.296-.461-.146-.692 1.13-1.735 1.724-3.761 1.696-5.84l-1.614 1.934c-.177.212-.492.24-.704.063s-.24-.492-.063-.704l1.825-2.188c.545-.631 1.578-.624 2.111-.007zm.116-9.68c-.276 0-.5-.224-.5-.5v-5c0-.276.224-.5.5-.5s.5.224.5.5v5c0 .276-.224.5-.5.5zm-3.5 0c1.103 0 2-.897 2-2v-2c0-1.103-.897-2-2-2s-2 .897-2 2v2c0 1.103.897 2 2 2zm-1-4c0-.552.448-1 1-1s1 .448 1 1v2c0 .552-.448 1-1 1s-1-.448-1-1zm-2 0c0-1.103-.897-2-2-2h-1c-.552 0-1 .448-1 1v4.5c0 .276.224.5.5.5s.5-.224.5-.5v-1.5h1c.103 0 .202-.015.301-.03l.486 1.67c.076.268.362.417.62.341.266-.077.418-.355.341-.62l-.521-1.793c.467-.366.773-.93.773-1.568zm-3 1v-2h1c.552 0 1 .448 1 1s-.448 1-1 1zm-10.919 2.553c-.15-.231-.086-.541.146-.692 1.279-.834 2.687-1.396 4.184-1.671.265-.044.531.13.582.402.05.271-.13.532-.402.582-1.365.25-2.649.763-3.816 1.524-.229.149-.54.087-.692-.146zm23.919-5.053v5c0 1.93-1.57 3.5-3.5 3.5h-1.977s-1.93 1.595-1.93 1.595c-.289.257-.683.405-1.094.405-.418 0-.819-.152-1.131-.429l-1.929-1.695c-.207-.183-.228-.499-.046-.706.184-.207.499-.227.706-.046l1.931 1.697c.254.228.667.23.912.014l2.082-1.722c.09-.073.202-.114.318-.114h2.156c1.379 0 2.5-1.12 2.5-2.499v-5c0-1.379-1.121-2.5-2.5-2.5h-10c-1.379 0-2.5 1.121-2.5 2.5v5c0 .276-.224.5-.5.5s-.5-.224-.5-.5v-5c0-1.93 1.57-3.5 3.5-3.5h10c1.93 0 3.5 1.57 3.5 3.5z"/></svg>