<svg id="Layer_1" viewBox="0 0 24 24" xmlns="http://www.w3.org/2000/svg" data-name="Layer 1"><path d="m16 16c0 .552-.448 1-1 1s-1-.448-1-1 .448-1 1-1 1 .448 1 1zm-5-1c-.552 0-1 .448-1 1s.448 1 1 1 1-.448 1-1-.448-1-1-1zm8 0c-.552 0-1 .448-1 1s.448 1 1 1 1-.448 1-1-.448-1-1-1zm-4 4c-.552 0-1 .448-1 1s.448 1 1 1 1-.448 1-1-.448-1-1-1zm-4 0c-.552 0-1 .448-1 1s.448 1 1 1 1-.448 1-1-.448-1-1-1zm8 0c-.552 0-1 .448-1 1s.448 1 1 1 1-.448 1-1-.448-1-1-1zm1-11.5v3c0 1.379-1.122 2.5-2.5 2.5h-5c-1.378 0-2.5-1.121-2.5-2.5v-3c0-1.379 1.122-2.5 2.5-2.5h5c1.378 0 2.5 1.121 2.5 2.5zm-3.592 4.5c-.207-.581-.757-1-1.408-1s-1.201.419-1.408 1zm2.592-4.5c0-.827-.673-1.5-1.5-1.5h-5c-.827 0-1.5.673-1.5 1.5v3c-.002.846.706 1.527 1.551 1.5.232-1.14 1.242-2 2.449-2s2.217.86 2.449 2c.844.027 1.552-.654 1.551-1.5zm-2.5.5c0 .827-.673 1.5-1.5 1.5s-1.5-.673-1.5-1.5.673-1.5 1.5-1.5 1.5.673 1.5 1.5zm-1 0c0-.275-.224-.5-.5-.5s-.5.225-.5.5.224.5.5.5.5-.225.5-.5zm8.5-1.5v13c0 2.481-2.019 4.5-4.5 4.5h-15c-2.481 0-4.5-2.019-4.5-4.5v-16c0-1.93 1.57-3.5 3.5-3.5 1.391 0 2.585.822 3.149 2h12.851c2.481 0 4.5 2.019 4.5 4.5zm-23 10c0 1.379 1.122 2.5 2.5 2.5s2.5-1.121 2.5-2.5v-13c0-1.379-1.122-2.5-2.5-2.5s-2.5 1.121-2.5 2.5zm22-10c0-1.93-1.57-3.5-3.5-3.5h-12.551c.024.165.051.329.051.5v13c0 1.93-1.57 3.5-3.5 3.5-.98 0-1.864-.407-2.5-1.058v.558c0 1.93 1.57 3.5 3.5 3.5h15c1.93 0 3.5-1.57 3.5-3.5z"/></svg>