<svg id="Layer_1" viewBox="0 0 24 24" xmlns="http://www.w3.org/2000/svg" data-name="Layer 1"><path d="m22.4 6.05c-2.04-3.62-6.08-6.07-10.4-6.05-6.64-.03-12.03 5.49-12 12 0 3 1.11 5.87 3.13 8.08.19.21.5.22.71.03.2-.19.22-.5.03-.71-1.83-2.01-2.85-4.61-2.87-7.33 1.73 1.74 3.47 3.23 4.99 3.73-.04 1.63.06 3.36.3 5.15.23 1.73 1.72 3.04 3.47 3.04h4.43c1.75 0 3.21-1.26 3.46-3 .27-1.8.38-3.55.35-5.21 1.57-.55 3.34-2.16 5-3.84.02 2.76-1.01 5.41-2.87 7.45-.19.2-.17.52.03.71s.52.17.71-.03c2.02-2.21 3.13-5.08 3.13-8.08 0-2.17-.59-4.2-1.6-5.95zm-10.4-5.05c.09 0 .18.01.28.01-.64.86-1.63 2.19-1.82 2.48-.39.61-.41 1.37-.03 2l.73 1.22-.7-.35c-.7-.35-1.53-.21-2.08.34l-.53.53c-.34.34-.53.79-.53 1.27 0 .17.02.34.07.5h-1.8c-.11 0-.22-.04-.29-.13l-2.62-2.7c1.96-3.1 5.4-5.17 9.32-5.17zm4.67 19.86c-.18 1.24-1.23 2.14-2.48 2.14h-4.43c-1.25 0-2.31-.93-2.48-2.17-.22-1.68-.32-3.29-.29-4.83h10c.02 1.55-.09 3.18-.33 4.86zm.27-5.86h-9.94c-1.73 0-4.55-2.86-5.92-4.27.15-1.3.53-2.53 1.1-3.65l2.41 2.49c.26.28.63.44 1.02.44h1.95c.29 0 .56.11.77.32l.37.37c.2.2.31.47.31.75v1.06c0 .28.22.5.5.5s.5-.22.5-.5v-1.06c0-.15-.02-.29-.05-.44h1.46c.19 0 .38.05.55.16.07.06 2.58 1.58 2.63 1.66.18.22.49.24.7.07s.25-.49.07-.7c-.09-.11-.2-.2-.31-.27l-2.56-1.6c-.32-.2-.7-.31-1.08-.31h-1.43c-.31 0-.61-.12-.83-.34l-.59-.59c-.15-.15-.23-.35-.23-.56s.08-.41.23-.56l.53-.53c.24-.24.61-.3.92-.15l.88.44c.36.19.8.11 1.08-.17.31-.31.37-.78.14-1.15l-.84-1.39c-.18-.29-.17-.65.01-.94.19-.29 1.49-2.04 2.16-2.93 3.27.44 6.09 2.31 7.8 4.97l-2.61 1.63c-.49.28-.73.86-.6 1.4l.63 2.51c.07.27.35.43.61.36.27-.07.43-.34.36-.61l-.63-2.51c-.03-.12.02-.24.14-.3l2.6-1.62c.59 1.13.98 2.37 1.15 3.68-1.54 1.6-4.25 4.38-5.96 4.38zm-7.94 5.5c0-.28.22-.5.5-.5h5c.28 0 .5.22.5.5s-.22.5-.5.5h-5c-.28 0-.5-.22-.5-.5zm0-2c0-.28.22-.5.5-.5h5c.28 0 .5.22.5.5s-.22.5-.5.5h-5c-.28 0-.5-.22-.5-.5z"/></svg>