<?xml version="1.0" encoding="UTF-8"?>
<svg xmlns="http://www.w3.org/2000/svg" id="Layer_1" data-name="Layer 1" viewBox="0 0 24 24">
  <path d="m23.995,12.789c-.085,2.283-1.254,4.382-3.207,5.758-.226.158-.537.104-.697-.121-.158-.226-.104-.538.121-.697,1.696-1.194,2.711-3.008,2.783-4.977.116-3.131-2.015-5.899-5.065-6.584-.736-.165-1.347-.637-1.677-1.294-1.413-2.821-4.466-4.326-7.598-3.744-2.737.508-4.951,2.691-5.509,5.433-.167.82-.191,1.646-.073,2.452.13.894-.119,1.715-.686,2.255-.894.854-1.387,2.001-1.388,3.23,0,2.607,1.893,4.5,4.5,4.5h1c.276,0,.5.224.5.5s-.224.5-.5.5h-1c-3.136,0-5.5-2.364-5.5-5.5,0-1.504.604-2.908,1.697-3.953.329-.313.469-.819.386-1.387-.134-.921-.106-1.862.083-2.796C2.805,3.227,5.339.728,8.474.146c3.572-.665,7.06,1.057,8.674,4.279.194.388.56.668,1.001.767,3.521.79,5.98,3.984,5.847,7.597Zm-5.343,7.352l-2.652,2.571v-11.212c0-.276-.224-.5-.5-.5s-.5.224-.5.5v11.211l-2.652-2.571c-.197-.191-.514-.187-.707.012-.191.198-.187.515.012.707l2.787,2.701c.279.279.643.415,1.008.429.018.002.034.011.053.011,0,0,0,0,0,0s0,0,0,0c.383,0,.764-.145,1.053-.434l2.793-2.707c.198-.192.203-.509.012-.707-.192-.198-.509-.203-.707-.012Zm-6-5.281c.097.094.223.141.348.141.131,0,.261-.051.359-.152.191-.198.187-.515-.012-.707l-2.787-2.701c-.281-.281-.648-.419-1.016-.431-.015-.001-.029-.009-.044-.009-.021,0-.04.01-.06.012-.362.014-.721.148-.994.422l-2.793,2.707c-.198.192-.203.509-.012.707.193.199.51.204.707.012l2.652-2.571v11.212c0,.276.224.5.5.5s.5-.224.5-.5v-11.212l2.652,2.571Z"/>
</svg>
