<?xml version="1.0" encoding="UTF-8"?>
<svg xmlns="http://www.w3.org/2000/svg" id="Layer_1" data-name="Layer 1" viewBox="0 0 24 24">
  <path d="M19.5,3H4.5C2.019,3,0,5.019,0,7.5v9c0,2.481,2.019,4.5,4.5,4.5h15c2.481,0,4.5-2.019,4.5-4.5V7.5c0-2.481-2.019-4.5-4.5-4.5Zm3.5,13.5c0,1.93-1.57,3.5-3.5,3.5H4.5c-1.93,0-3.5-1.57-3.5-3.5V7.5c0-1.93,1.57-3.5,3.5-3.5h15c1.93,0,3.5,1.57,3.5,3.5v9Zm-5-8v5c0,1.379-1.121,2.5-2.5,2.5s-2.5-1.121-2.5-2.5v-5c0-.276,.224-.5,.5-.5s.5,.224,.5,.5v5c0,.827,.673,1.5,1.5,1.5s1.5-.673,1.5-1.5v-5c0-.276,.224-.5,.5-.5s.5,.224,.5,.5Zm-9.5-.5c-.692-.022-1.32,.51-1.455,1.196l-1.407,6.193c-.071,.313,.167,.611,.488,.611,.234,0,.436-.162,.488-.389l.366-1.611h3.039l.365,1.61c.052,.228,.254,.39,.488,.39h.001c.321,0,.559-.298,.488-.611l-1.418-6.242c-.156-.672-.754-1.147-1.443-1.147Zm-1.293,5l.812-3.578c.065-.28,.237-.424,.481-.422,.225,0,.418,.153,.47,.376l.822,3.624h-2.585Z"/>
</svg>
