<svg id="Layer_1" viewBox="0 0 24 24" xmlns="http://www.w3.org/2000/svg" data-name="Layer 1"><path d="m19.5 0h-15c-2.481 0-4.5 2.019-4.5 4.5v17.85c0 .932.692 1.647 1.643 1.647.324 0 .649-.096.937-.289l5.083-3.709h11.837c2.481 0 4.5-2.019 4.5-4.5v-10.999c0-2.481-2.019-4.5-4.5-4.5zm3.5 15.5c0 1.93-1.57 3.5-3.5 3.5h-12c-.106 0-.209.034-.295.096l-5.198 3.793c-.203.135-.451.147-.665.032s-.342-.328-.342-.571v-17.85c0-1.93 1.57-3.5 3.5-3.5h15c1.93 0 3.5 1.57 3.5 3.5zm-5-11v3.5c0 .551-.449 1-1 1h-3.5c-.276 0-.5-.224-.5-.5s.224-.5.5-.5h3.069c-.789-1.809-2.559-3-4.569-3-2.757 0-5 2.243-5 5s2.243 5 5 5c2.228 0 4.207-1.495 4.812-3.636.074-.267.349-.421.617-.345.266.075.42.351.345.617-.727 2.569-3.101 4.364-5.774 4.364-3.309 0-6-2.691-6-6s2.691-6 6-6c2.062 0 3.911 1.047 5 2.704v-2.204c0-.276.224-.5.5-.5s.5.224.5.5z"/></svg>