<svg id="Layer_1" viewBox="0 0 24 24" xmlns="http://www.w3.org/2000/svg" data-name="Layer 1"><path d="m19.5 2h-7.028c-.231 0-.464-.055-.671-.158l-3.156-1.578c-.345-.173-.732-.264-1.118-.264h-3.028c-2.48 0-4.499 2.019-4.499 4.5v13c0 2.481 2.019 4.5 4.5 4.5h4.987c.276 0 .5-.224.5-.5s-.224-.5-.5-.5h-4.987c-1.93 0-3.5-1.57-3.5-3.5v-10.5h22v2.487c0 .276.224.5.5.5s.5-.224.5-.5v-2.987c0-2.481-2.019-4.5-4.5-4.5zm-18.5 2.5c0-1.93 1.57-3.5 3.5-3.5h3.028c.231 0 .464.055.671.158l3.156 1.578c.345.173.732.264 1.118.264h7.028c1.758 0 3.204 1.308 3.449 3h-21.95zm18.732 8.232-6.707 6.707c-.661.66-1.025 1.539-1.025 2.475v1.586c0 .276.224.5.5.5h1.586c.935 0 1.813-.364 2.475-1.025l6.707-6.707c.975-.975.975-2.561 0-3.535s-2.561-.975-3.535 0zm2.829 2.829-6.707 6.707c-.473.473-1.101.732-1.768.732h-1.086v-1.086c0-.668.26-1.296.732-1.768l6.707-6.707c.584-.584 1.537-.584 2.121 0s.585 1.536 0 2.121z"/></svg>