<svg id="Layer_1" viewBox="0 0 24 24" xmlns="http://www.w3.org/2000/svg" data-name="Layer 1"><path d="m16.5 11c3.033 0 5.5-2.467 5.5-5.5s-2.467-5.5-5.5-5.5-5.5 2.467-5.5 5.5 2.467 5.5 5.5 5.5zm0-10c2.481 0 4.5 2.019 4.5 4.5s-2.019 4.5-4.5 4.5-4.5-2.019-4.5-4.5 2.019-4.5 4.5-4.5zm0 12h-8.343c-.935 0-1.813-.364-2.475-1.025l-3.975-3.975h.293c.551 0 1-.449 1-1v-3c0-.551-.449-1-1-1h-1c-.551 0-1 .449-1 1v3.501c0 .138.057.263.148.354l4.827 4.827c.85.85 1.979 1.318 3.182 1.318h8.343c3.584 0 6.5 2.916 6.5 6.5v3c0 .276.224.5.5.5s.5-.224.5-.5v-3c0-4.136-3.364-7.5-7.5-7.5zm-15.5-9h1v3h-1zm10 12.5v7c0 .276-.224.5-.5.5s-.5-.224-.5-.5v-7c0-.276.224-.5.5-.5s.5.224.5.5zm-9.867-15.679c-.126-.218-.087-.493.094-.667.181-.175.458-.204.671-.07l1.624 1.014 1.648-.991c.431-.259 1.011.321.752.752l-.994 1.655.994 1.655c.129.216.095.492-.083.67s-.454.212-.67.082l-1.17-.702v-.22c0-1.103-.897-2-2-2h-.189z"/></svg>