<svg id="Layer_1" viewBox="0 0 24 24" xmlns="http://www.w3.org/2000/svg" data-name="Layer 1"><path d="m20.19 10.484c.355.355.844.554 1.343.554.665.003 1.291-.357 1.608-.934 1.448-2.627.998-5.967-1.13-8.113-2.145-2.127-5.486-2.578-8.112-1.129-.502.28-.836.771-.917 1.349-.081.587.119 1.185.536 1.602l6.671 6.671zm-2.189-9.401c1.06.148 2.067.588 2.914 1.298l-2.914 2.914zm4.267 8.534c-.126.226-.35.376-.613.412-.285.037-.56-.054-.758-.252l-2.775-2.775h4.866c-.03.898-.263 1.796-.72 2.615zm.673-3.615h-4.233l2.92-2.92c.711.848 1.166 1.859 1.313 2.92zm-8.554-4.267c.818-.457 1.716-.687 2.614-.717v4.863l-2.775-2.775c-.199-.199-.291-.476-.252-.758.036-.264.187-.487.413-.613zm8.771 11.296c-.26.093-.395.379-.303.639.179.502.193 1.041.042 1.561-.627 2.147-1.808 4.162-3.326 5.673-1.339 1.332-3.237 2.096-5.208 2.096h-4.723c-1.972 0-3.871-.765-5.209-2.096-1.516-1.511-2.698-3.526-3.325-5.673-.227-.775-.08-1.589.402-2.231.476-.635 1.203-.999 1.996-.999h13.998c.276 0 .5-.222.5-.499s-.224-.5-.5-.5h-2.5v-.5c0-2.481-2.018-4.5-4.5-4.5-.65 0-1.264.145-1.822.394-1.432-.669-3.173-1.091-4.351-1.35-.599-.127-1.207.029-1.668.431-.458.398-.696.974-.653 1.578.071.997.233 2.5.583 4.078-.744.2-1.406.631-1.883 1.267-.673.896-.879 2.03-.563 3.111.684 2.34 1.922 4.45 3.58 6.102 1.524 1.517 3.68 2.387 5.914 2.387h4.723c2.234 0 4.389-.87 5.913-2.387 1.659-1.652 2.897-3.762 3.581-6.103.21-.723.189-1.475-.061-2.177-.092-.26-.378-.397-.639-.303zm-9.156-2.529v.5h-7v-.5c0-1.93 1.57-3.5 3.5-3.5s3.5 1.57 3.5 3.5zm-10.686-4.272c.222-.194.516-.27.803-.207.97.207 2.304.552 3.529 1.028-.997.826-1.646 2.057-1.646 3.45v.5h-2.418c-.35-1.55-.509-3.037-.579-4.019-.021-.288.093-.561.311-.752z"/></svg>