<?xml version="1.0" encoding="UTF-8"?>
<svg xmlns="http://www.w3.org/2000/svg" id="Layer_1" data-name="Layer 1" viewBox="0 0 24 24">
  <path d="m17,23.5c0,.276-.224.5-.5.5h-3.273c-.475,0-.898-.268-1.106-.699-.201-.417-.147-.899.138-1.257.444-.555,1.134-1.029,1.802-1.487.941-.646,1.914-1.314,1.914-2.031,0-.827-.673-1.5-1.5-1.5s-1.5.673-1.5,1.5c0,.276-.224.5-.5.5s-.5-.224-.5-.5c0-1.378,1.122-2.5,2.5-2.5s2.5,1.122,2.5,2.5c0,1.243-1.193,2.062-2.347,2.855-.607.417-1.235.848-1.587,1.288-.059.073-.042.148-.018.199.015.031.074.132.205.132h3.273c.276,0,.5.224.5.5Zm6.5-7.5c-.276,0-.5.224-.5.5v3.523l-2.006-.023c-.548-.003-.994-.442-.994-.99v-2.51c0-.276-.224-.5-.5-.5s-.5.224-.5.5v2.51c0,1.096.891,1.983,1.987,1.99l2.013.023v2.477c0,.276.224.5.5.5s.5-.224.5-.5v-7c0-.276-.224-.5-.5-.5Zm.474-8.474V3.026c0-.276-.224-.5-.5-.5s-.5.224-.5.5v4.215C21.082,2.901,16.747.026,11.974.026,5.369.026-.005,5.391-.024,11.991c0,.003-.002.006-.002.009,0,.005,0,.009,0,.014,0,.004,0,.008,0,.012,0,.003.001.005.001.007.016,5.581,3.97,10.494,9.417,11.688.036.008.072.012.107.012.23,0,.437-.159.488-.393.059-.27-.111-.536-.381-.595C4.609,21.649.981,17.137.975,12.014c.007-6.06,4.938-10.988,10.999-10.988,4.516,0,8.605,2.807,10.245,7h-4.245c-.276,0-.5.224-.5.5s.224.5.5.5h4.5c.827,0,1.5-.673,1.5-1.5Zm-11,5v-7c0-.276-.224-.5-.5-.5s-.5.224-.5.5v6.5h-5.5c-.276,0-.5.224-.5.5s.224.5.5.5h6c.276,0,.5-.224.5-.5Z"/>
</svg>
