<svg id="Layer_1" viewBox="0 0 24 24" xmlns="http://www.w3.org/2000/svg" data-name="Layer 1"><path d="m23.204 9.196c-.498-.276-1.085-.262-1.605.066l-5.599 4.233v-2.948c0-.569-.297-1.075-.796-1.352s-1.085-.261-1.593.058l-5.611 3.989v-7.241h.5c.276 0 .5-.224.5-.5s-.224-.5-.5-.5h-8c-.276 0-.5.224-.5.5s.224.5.5.5h.5v13.5c0 2.481 2.019 4.5 4.5 4.5h14c2.481 0 4.5-2.019 4.5-4.5v-8.953c0-.569-.297-1.075-.796-1.352zm-.204 10.305c0 1.93-1.57 3.5-3.5 3.5h-14c-1.93 0-3.5-1.57-3.5-3.5v-13.5h5v13.5c0 .276.224.5.5.5s.5-.224.5-.5v-5.032l6.165-4.384c.246-.153.47-.061.554-.014s.281.187.281.477v3.953c-.013.4.489.65.802.398l6.363-4.814c.246-.153.469-.061.554-.014.084.047.281.187.281.477zm-11.3-3.5h-.4c-.717 0-1.3.583-1.3 1.3v1.4c0 .717.583 1.3 1.3 1.3h.4c.717 0 1.3-.583 1.3-1.3v-1.4c0-.717-.583-1.3-1.3-1.3zm.3 2.7c0 .165-.134.3-.3.3h-.4c-.166 0-.3-.135-.3-.3v-1.4c0-.165.134-.3.3-.3h.4c.166 0 .3.135.3.3zm7.7-2.7h-.4c-.717 0-1.3.583-1.3 1.3v1.4c0 .717.583 1.3 1.3 1.3h.4c.717 0 1.3-.583 1.3-1.3v-1.4c0-.717-.583-1.3-1.3-1.3zm.3 2.7c0 .165-.134.3-.3.3h-.4c-.166 0-.3-.135-.3-.3v-1.4c0-.165.134-.3.3-.3h.4c.166 0 .3.135.3.3zm-13.208-15.609c.141.023.365.052.628.084.573.071 1.531.19 1.84.319.506.212.9.543 1.109.931.604 1.121 1.796 1.787 3.146 1.523.89.907 2.211 1.279 3.468.904.108-.035.216-.016.275.041.748.714 1.721 1.106 2.74 1.106 1.217 0 2.353-.544 3.117-1.493s1.05-2.189.785-3.402c-.314-1.44-1.447-2.607-2.886-2.975-1.033-.265-2.061-.128-2.973.393-.068.041-.168.037-.243-.011-1.029-.63-2.343-.67-3.406-.116-.475-.259-1-.396-1.535-.396h-1.204c-1.14 0-3.953.483-5.264 1.404-.306.214-.449.591-.366.958.086.38.389.666.769.729zm4.862-2.091h1.204c.439 0 .872.136 1.252.392.166.111.38.113.549.006.792-.508 1.821-.522 2.62-.033.388.237.872.249 1.262.027.682-.39 1.452-.49 2.229-.293 1.059.271 1.925 1.162 2.156 2.219.2.916-.014 1.851-.587 2.562s-1.426 1.12-2.338 1.12c-.761 0-1.489-.295-2.049-.829-.229-.219-.538-.335-.859-.335-.131 0-.265.02-.396.06-.972.293-1.987-.049-2.62-.821-.127-.154-.333-.217-.525-.163-.21.061-.385.089-.55.089-.73 0-1.4-.402-1.75-1.05-.317-.589-.886-1.078-1.604-1.378-.403-.169-1.191-.276-2.103-.39-.166-.021-.315-.039-.436-.056 1.148-.701 3.549-1.127 4.545-1.127z"/></svg>