<svg id="Layer_1" viewBox="0 0 24 24" xmlns="http://www.w3.org/2000/svg" data-name="Layer 1"><path d="m9.536 14.561-2.689 2.775c-.193.198-.509.203-.707.011s-.203-.509-.012-.707l2.559-2.64h-8.187c-.276 0-.5-.224-.5-.5s.224-.5.5-.5h8.187l-2.559-2.64c-.191-.198-.187-.515.012-.707s.515-.186.707.011l2.695 2.781c.277.277.434.654.434 1.055s-.156.778-.439 1.061zm6.464-3.561c-.552 0-1 .448-1 1s.448 1 1 1 1-.448 1-1-.448-1-1-1zm8-5.68v15.179c0 1.93-1.57 3.5-3.5 3.5h-9c-1.93 0-3.5-1.57-3.5-3.5v-2c0-.276.224-.5.5-.5s.5.224.5.5v2c0 1.378 1.121 2.5 2.5 2.5h.5v-19.498c0-.171.032-.335.056-.501h-.556c-1.379 0-2.5 1.122-2.5 2.5v2c0 .276-.224.5-.5.5s-.5-.224-.5-.5v-2c0-1.93 1.57-3.5 3.5-3.5h.837c.219-.46.538-.873.944-1.206.814-.668 1.875-.931 2.904-.726l4.196.839c2.097.419 3.618 2.275 3.618 4.413zm-1 0c0-1.663-1.184-3.106-2.813-3.432l-4.196-.839c-.74-.149-1.494.042-2.075.518-.581.477-.915 1.182-.915 1.934v19.499h7.5c1.379 0 2.5-1.122 2.5-2.5v-15.18z"/></svg>