<svg id="Layer_1" viewBox="0 0 24 24" xmlns="http://www.w3.org/2000/svg" data-name="Layer 1"><path d="m22 19.051v-4.551c0-.276-.224-.5-.5-.5s-.5.224-.5.5v4.5h-5.5c-.133 0-.26.053-.354.146l-.854.854h-4.586l-.854-.854c-.094-.094-.221-.146-.354-.146h-5.498v-8.5c0-1.93 1.57-3.5 3.5-3.5h4c.276 0 .5-.224.5-.5s-.224-.5-.5-.5h-4c-2.481 0-4.5 2.019-4.5 4.5v8.551c-1.14.232-2 1.242-2 2.449 0 1.378 1.121 2.5 2.5 2.5h19c1.379 0 2.5-1.122 2.5-2.5 0-1.207-.86-2.217-2-2.449zm-.5 3.949h-19c-.827 0-1.5-.673-1.5-1.5s.673-1.5 1.5-1.5h5.793l.854.854c.094.094.221.146.354.146h5c.133 0 .26-.053.354-.146l.854-.854h5.793c.827 0 1.5.673 1.5 1.5s-.673 1.5-1.5 1.5zm.787-21.873-3-.995c-.516-.171-1.059-.171-1.574 0l-3 .995c-1.024.34-1.713 1.294-1.713 2.373v3.413c0 3.612 3.868 5.829 5.054 6.422.125.059.304.175.447.165.122.008.307-.088.419-.129 1.192-.48 5.08-2.363 5.08-6.458v-3.413c0-1.079-.688-2.033-1.713-2.373zm.713 5.786c0 3.467-3.408 5.109-4.453 5.53l-.023.009c-1.075-.539-4.515-2.483-4.523-5.539v-3.413c0-.647.413-1.22 1.027-1.424l3-.995c.309-.103.637-.103.945 0l3 .995c.614.204 1.027.776 1.027 1.424z"/></svg>