<svg id="Layer_1" viewBox="0 0 24 24" xmlns="http://www.w3.org/2000/svg" data-name="Layer 1"><path d="m7.509 8.981c1.101 0 1.996-.895 1.996-1.996 0-.122 0-.324-1.29-3.992h3.286v7.983h-2.495c-.276 0-.499.223-.499.499s.223.499.499.499h5.987c.276 0 .499-.223.499-.499s-.223-.499-.499-.499h-2.495v-7.982s3.298 0 3.305 0c0 0-1.309 3.938-1.309 3.991 0 1.101.896 1.996 1.996 1.996s1.996-.895 1.996-1.996c0-.134 0-.317-1.289-3.989-.21-.599-.778-1.001-1.412-1.001h-3.286v-1.496c0-.276-.223-.499-.499-.499s-.499.223-.499.499v1.497h-3.272c-.645 0-1.216.411-1.42 1.023 0 0-1.295 3.913-1.295 3.966 0 1.101.895 1.996 1.996 1.996zm9.979-1.996h-1.968l.985-2.945c.886 2.544.977 2.934.983 2.945zm-9.966-2.95c.683 1.959.962 2.838.985 2.951h-1.969zm16.453 4.447v10.079c0 1.999-.779 3.878-2.192 5.292-.195.195-.511.195-.706 0s-.195-.511 0-.706c1.225-1.225 1.899-2.854 1.899-4.587v-10.079c0-.825-.671-1.497-1.497-1.497s-1.497.671-1.497 1.497v7.983c-.03.568-.187 1.137-.583 1.597l-2.633 2.74c-.191.199-.508.204-.706.014-.199-.191-.205-.507-.014-.706l2.611-2.715c.46-.552.429-1.393-.055-1.931-.525-.61-1.515-.66-2.108-.115l-2.724 2.506c-.52.479-.924 1.052-1.226 1.688.29.744.451 1.539.451 2.351v1.556c0 .276-.223.499-.499.499s-.499-.223-.499-.499v-1.556c0-1.53-.646-3.002-1.772-4.039l-2.729-2.511c-.608-.544-1.555-.493-2.104.12-.493.55-.506 1.391-.032 1.956l2.588 2.69c.191.199.185.515-.014.706s-.515.184-.706-.014l-2.61-2.715c-.411-.474-.562-1.048-.606-1.623v-7.983c0-.825-.671-1.497-1.497-1.497s-1.497.671-1.497 1.497v10.079c0 1.733.675 3.362 1.9 4.587.195.195.195.511 0 .706s-.511.195-.706 0c-1.408-1.412-2.187-3.291-2.187-5.29v-10.079c0-1.376 1.119-2.496 2.495-2.496s2.495 1.119 2.495 2.495v5.987c.931-.698 2.257-.667 3.155.137l2.734 2.515c.429.395.791.847 1.096 1.333.306-.488.668-.938 1.097-1.333l2.729-2.511c.501-.448 1.141-.678 1.804-.636.499.027.967.199 1.357.492v-5.985c0-1.376 1.119-2.495 2.495-2.495s2.495 1.119 2.495 2.495z"/></svg>