<?xml version="1.0" encoding="UTF-8"?>
<svg xmlns="http://www.w3.org/2000/svg" id="Layer_1" data-name="Layer 1" viewBox="0 0 24 24">
  <path d="m19.522,12.008c-.259-.048-.531.13-.581.403-.4,2.207-2.669,4.458-6.821,4.578.211-.913.7-1.74,1.421-2.352.436-.37.884-.813,1.332-1.315.184-.206.166-.522-.04-.706-.206-.183-.521-.167-.706.04-.418.468-.833.878-1.234,1.219-1.062.904-1.723,2.183-1.863,3.571,0,.002-.03.366-.03.548v3.027c0,.884.274,1.523.672,1.978h-3.343c.397-.455.672-1.094.672-1.978v-3.021c0-1.599-.69-3.103-1.893-4.125-1.835-1.56-3.799-4.426-4.378-6.389-.172-.581-.06-1.196.308-1.688.38-.508.961-.799,1.594-.799h5.869c.276,0,.5-.224.5-.5s-.224-.5-.5-.5h-5.869c-.952,0-1.824.438-2.395,1.201-.558.747-.728,1.683-.466,2.569.115.389.289.811.488,1.244-1.287.262-2.259,1.403-2.259,2.766,0,2.351,2.17,6.118,7.991,6.22h.009s0,0,0,0v3.021c0,1.905-1.778,1.976-1.979,1.978h-.565c-.276,0-.5.224-.5.5s.224.5.5.5h9.088c.276,0,.5-.224.5-.5s-.224-.5-.5-.5h-.563c-.202-.002-1.98-.073-1.98-1.978v-3.022h.009c4.806-.084,7.438-2.778,7.917-5.411.049-.272-.131-.532-.403-.582Zm-18.522-.228c0-.978.776-1.772,1.742-1.815.949,1.71,2.343,3.504,3.717,4.672.721.613,1.211,1.441,1.422,2.356-5.007-.141-6.881-3.259-6.881-5.213Zm22.741-5.429l-2.699-3.92c-.492-.715-1.262-1.229-2.111-1.411L14.302.034c-.578-.124-1.131.091-1.445.56-.314.468-.304,1.062.028,1.549l.797,1.169c-.06.042-.113.094-.151.162l-1.155,2.068c-.487.729-.508,1.682-.052,2.427.464.759,1.112,1.42,1.926,1.965.814.545,1.673.892,2.551,1.031.116.019.233.028.35.028.743,0,1.453-.371,1.875-1.001l1.304-1.949,2,.424c.106.022.213.034.316.034.122,0,.24-.017.354-.047v3.047c0,.276.224.5.5.5s.5-.224.5-.5c0,0-.014-4.26-.012-4.321.008-.283-.069-.57-.247-.828Zm-5.548,3.085c-.271.405-.761.617-1.236.542-.733-.117-1.457-.411-2.15-.875s-1.241-1.021-1.629-1.656c-.254-.414-.241-.943.051-1.383l1.05-1.877,1.274,1.869c.493.724,1.268,1.243,2.124,1.424l1.599.339-1.082,1.617Zm4.75-2.089c-.04.06-.161.193-.406.141l-4.653-.986c-.606-.128-1.155-.497-1.505-1.009l-2.668-3.913c-.142-.208-.064-.369-.024-.429.033-.05.123-.151.298-.151.033,0,4.737.998,4.737.998.603.128,1.147.493,1.496,1l2.699,3.92c.144.208.066.37.026.429Z"/>
</svg>
