<svg id="Layer_1" viewBox="0 0 24 24" xmlns="http://www.w3.org/2000/svg" data-name="Layer 1"><path d="m12 4c1.103 0 2-.897 2-2s-.897-2-2-2-2 .897-2 2 .897 2 2 2zm0-3c.551 0 1 .449 1 1s-.449 1-1 1-1-.449-1-1 .449-1 1-1zm8.254 10.026-4.925-5.848c-.177-.211-.493-.239-.705-.06-.211.178-.238.493-.06.705l4.36 5.178h-13.849l4.36-5.178c.178-.211.151-.527-.06-.705s-.527-.15-.705.06l-4.924 5.848c-2.085.134-3.746 1.856-3.746 3.974v5c0 2.206 1.794 4 4 4h16c2.206 0 4-1.794 4-4v-5c0-2.118-1.66-3.84-3.746-3.974zm2.746 8.974c0 1.654-1.346 3-3 3h-16c-1.654 0-3-1.346-3-3v-5c0-1.654 1.346-3 3-3h16c1.654 0 3 1.346 3 3zm-9-5v2h1.5c.276 0 .5.224.5.5s-.224.5-.5.5h-1.5v2h1.5c.276 0 .5.224.5.5s-.224.5-.5.5h-1.5c-.551 0-1-.449-1-1v-5c0-.551.449-1 1-1h1.5c.276 0 .5.224.5.5s-.224.5-.5.5zm-4.25-1h-.75c-.551 0-1 .449-1 1v5.5c0 .276.224.5.5.5s.5-.224.5-.5v-2h.75c1.241 0 2.25-1.009 2.25-2.25s-1.009-2.25-2.25-2.25zm0 3.5h-.75v-2.5h.75c.689 0 1.25.561 1.25 1.25s-.561 1.25-1.25 1.25zm11.25-3v6c0 .232-.16.434-.385.487-.221.053-.459-.054-.562-.263l-2.053-4.105v3.882c0 .276-.224.5-.5.5s-.5-.224-.5-.5v-6c0-.232.16-.434.385-.487.222-.053.458.055.562.263l2.053 4.105v-3.882c0-.276.224-.5.5-.5s.5.224.5.5zm-16-.5c-1.103 0-2 .897-2 2v3c0 1.103.897 2 2 2s2-.897 2-2v-3c0-1.103-.897-2-2-2zm1 5c0 .551-.449 1-1 1s-1-.449-1-1v-3c0-.551.449-1 1-1s1 .449 1 1z"/></svg>