<svg id="Layer_1" viewBox="0 0 24 24" xmlns="http://www.w3.org/2000/svg" data-name="Layer 1"><path d="m15 5c0 .552-.448 1-1 1s-1-.448-1-1 .448-1 1-1 1 .448 1 1zm-4 3c0 .552.448 1 1 1s1-.448 1-1-.448-1-1-1-1 .448-1 1zm5 1c.552 0 1-.448 1-1s-.448-1-1-1-1 .448-1 1 .448 1 1 1zm8 14.5c0 .276-.224.5-.5.5h-23c-.276 0-.5-.224-.5-.5s.224-.5.5-.5h2.973c-.14-3.695-1.755-6.307-3.29-8.464-.281-.396-.236-.909.109-1.251.345-.341.86-.381 1.25-.097 1.628 1.183 4.198 4.498 4.685 7.209.127.705.227 1.752.258 2.603h1.454c-.113-3.523-1.353-5.387-2.37-6.883-.134-.198-.265-.391-.389-.58-.271-.415-.231-.935.098-1.263.331-.33.832-.369 1.248-.094 1.118.738 2.196 2.078 3.01 3.585.893-1.521 2.066-2.857 3.178-3.591.416-.275.917-.236 1.248.092.33.329.37.849.098 1.264-.176.27-.373.545-.58.835-1.052 1.474-2.333 3.309-2.456 6.635h1.995c.015-.372.012-.746.047-1.123.241-2.593 1.862-6.18 4.159-7.695.416-.274.917-.237 1.248.093.329.329.369.848.098 1.263l-.214.324c-1.056 1.597-2.235 3.42-2.337 7.139h1.495c.031-.851.131-1.898.258-2.603.487-2.711 3.057-6.026 4.685-7.209.392-.286.905-.244 1.25.097.345.342.39.855.109 1.251-1.535 2.156-3.151 4.769-3.29 8.464h2.973c.276 0 .5.224.5.5zm-5.485-.5h1.011c.134-3.798 1.735-6.596 3.476-9.044-1.414 1.101-3.809 4.189-4.245 6.619-.116.643-.211 1.629-.242 2.425zm-4.496 0h1.002c.106-4.025 1.424-6.06 2.502-7.69l.211-.319c-1.76 1.215-3.426 4.334-3.671 6.979-.033.347-.029.69-.043 1.031zm-3.95-4.131c.158.369.295.738.413 1.109.544-1.873 1.45-3.164 2.185-4.194.198-.278.387-.542.557-.801-1.091.772-2.308 2.248-3.154 3.886zm-1.129 4.131h1.003c-.015-.342-.01-.684-.043-1.031-.23-2.476-2.063-5.726-3.923-6.953.163.159.29.346.421.539 1.094 1.61 2.43 3.617 2.543 7.445zm-4.466 0h1.011c-.032-.795-.126-1.781-.242-2.425-.437-2.43-2.832-5.519-4.289-6.578 1.783 2.409 3.385 5.205 3.52 9.003zm-.253-10.532c.258-.098.389-.386.291-.645-.34-.9-.512-1.851-.512-2.823 0-4.411 3.589-8 8-8s8 3.589 8 8c0 .973-.172 1.923-.512 2.823-.098.259.033.547.291.645.252.096.547-.03.645-.291.383-1.014.577-2.083.577-3.177-.001-4.963-4.039-9-9.001-9s-9 4.037-9 9c0 1.094.194 2.163.577 3.177.098.258.385.388.645.291z"/></svg>