<?xml version="1.0" encoding="UTF-8"?>
<svg xmlns="http://www.w3.org/2000/svg" id="Layer_1" data-name="Layer 1" viewBox="0 0 24 24">
  <path d="M11,2.5c0-.276,.224-.5,.5-.5h2c.276,0,.5,.224,.5,.5s-.224,.5-.5,.5h-2c-.276,0-.5-.224-.5-.5Zm-.756,3.43l1.808,1.077c.234,.14,.543,.065,.686-.174,.141-.237,.063-.544-.174-.686l-1.808-1.077c-.237-.142-.544-.063-.686,.174s-.063,.544,.174,.686Zm-1.244-3.43c0,1.379-1.122,2.5-2.5,2.5s-2.5-1.121-2.5-2.5S5.122,0,6.5,0s2.5,1.121,2.5,2.5Zm-1,0c0-.827-.673-1.5-1.5-1.5s-1.5,.673-1.5,1.5,.673,1.5,1.5,1.5,1.5-.673,1.5-1.5Zm1,7v4c0,1.391-.822,2.585-2,3.149v6.851c0,.276-.224,.5-.5,.5s-.5-.224-.5-.5v-6.551c-.165,.024-.329,.051-.5,.051H3.5c-.171,0-.335-.027-.5-.051v6.551c0,.276-.224,.5-.5,.5s-.5-.224-.5-.5v-6.851c-1.178-.564-2-1.758-2-3.149v-4c0-1.93,1.57-3.5,3.5-3.5h2c1.93,0,3.5,1.57,3.5,3.5Zm-1,0c0-1.379-1.122-2.5-2.5-2.5H3.5c-1.378,0-2.5,1.121-2.5,2.5v4c0,1.379,1.122,2.5,2.5,2.5h2c1.378,0,2.5-1.121,2.5-2.5v-4Zm15.903,6.691l-2.438,6.101c-.36,1.293-1.803,2.045-3.078,1.664-.52-.139-.931-.462-1.282-.842l-3.89-5.021c-.09-.088-.173-.081-.248,.021l-3.027,5.623c-.132,.245-.439,.332-.677,.203-.243-.131-.334-.435-.204-.678l3.028-5.623c.36-.721,1.445-.805,1.918-.159l2.661,3.434c.005-.018,.005-.036,.01-.053l2.438-6.1c.365-1.277,1.752-2.046,3.078-1.664,1.325,.382,2.092,1.77,1.711,3.094Zm-1.988-2.133c-.797-.232-1.628,.232-1.856,1.027l-2.438,6.1c-.216,.719,.286,1.622,1.042,1.81,.793,.224,1.627-.232,1.856-1.027l2.438-6.1c.212-.748-.249-1.581-1.043-1.81Zm-5.915-3.559c0-1.379,1.122-2.5,2.5-2.5s2.5,1.121,2.5,2.5-1.122,2.5-2.5,2.5-2.5-1.121-2.5-2.5Zm1,0c0,.827,.673,1.5,1.5,1.5s1.5-.673,1.5-1.5-.673-1.5-1.5-1.5-1.5,.673-1.5,1.5Z"/>
</svg>
