<svg id="Layer_1" viewBox="0 0 24 24" xmlns="http://www.w3.org/2000/svg" data-name="Layer 1"><path d="m19.5 8h-.5v-2.758c0-.922-.374-1.823-1.025-2.475l-1.742-1.742c-.662-.661-1.541-1.025-2.475-1.025h-5.257c-1.93 0-3.5 1.57-3.5 3.5v2.5h-.5c-2.482 0-4.501 2.019-4.501 4.5v9c0 2.481 2.019 4.5 4.5 4.5h15c2.481 0 4.5-2.019 4.5-4.5v-7c0-2.481-2.019-4.5-4.5-4.5zm-2.232-4.525c.156.155.28.336.388.525h-2.156c-.276 0-.5-.225-.5-.5v-2.158c.188.109.368.233.525.391l1.742 1.742zm-11.268.025c0-1.379 1.122-2.5 2.5-2.5h5.257c.082 0 .162.016.243.024v2.476c0 .827.673 1.5 1.5 1.5h2.476c.008.081.024.161.024.242v2.758h-6.292c-.386 0-.772-.091-1.118-.264l-2.733-1.367c-.484-.241-1.025-.369-1.565-.369h-.292zm17 16c0 1.93-1.57 3.5-3.5 3.5h-15c-1.93 0-3.5-1.57-3.5-3.5v-9c0-1.93 1.57-3.5 3.5-3.5h1.792c.386 0 .772.091 1.118.264l2.733 1.367c.484.241 1.025.369 1.565.369h7.792c1.93 0 3.5 1.57 3.5 3.5zm-7-3.5c0 .276-.224.5-.5.5h-3v3c0 .276-.224.5-.5.5s-.5-.224-.5-.5v-3h-3c-.276 0-.5-.224-.5-.5s.224-.5.5-.5h3v-3c0-.276.224-.5.5-.5s.5.224.5.5v3h3c.276 0 .5.224.5.5z"/></svg>