<?xml version="1.0" encoding="UTF-8"?>
<svg xmlns="http://www.w3.org/2000/svg" id="Layer_1" data-name="Layer 1" viewBox="0 0 24 24">
  <path d="M17.5,0H6.5C4.019,0,2,2.019,2,4.5v15c0,2.481,2.019,4.5,4.5,4.5h11c2.481,0,4.5-2.019,4.5-4.5V4.5c0-2.481-2.019-4.5-4.5-4.5Zm3.5,19.5c0,1.93-1.57,3.5-3.5,3.5H6.5c-1.93,0-3.5-1.57-3.5-3.5V4.5c0-1.93,1.57-3.5,3.5-3.5h11c1.93,0,3.5,1.57,3.5,3.5v15Zm-3.696-15.303c.195,.196,.195,.512,0,.708l-.708,.707c-.098,.097-.226,.146-.354,.146s-.256-.049-.354-.146c-.195-.196-.195-.512,0-.708l.708-.707c.195-.194,.512-.195,.707,0Zm-2.122,2.121c.195,.195,.195,.512,0,.707l-.707,.708c-.098,.098-.226,.146-.354,.146s-.256-.049-.354-.146c-.195-.195-.195-.512,0-.707l.707-.708c.195-.195,.512-.195,.707,0Zm4.243-4.243c.195,.195,.195,.512,0,.707l-.707,.708c-.098,.098-.226,.146-.354,.146s-.256-.049-.354-.146c-.195-.195-.195-.512,0-.707l.707-.708c.195-.195,.512-.195,.707,0Zm-11.313,2.828c.195,.195,.195,.512,0,.708-.098,.098-.226,.146-.354,.146s-.256-.049-.354-.146l-.708-.707c-.195-.195-.195-.512,0-.708,.195-.195,.512-.195,.707,0l.708,.707Zm2.121,2.829c-.098,.098-.226,.146-.354,.146s-.256-.049-.354-.146l-.707-.708c-.195-.195-.195-.512,0-.707,.195-.195,.512-.195,.707,0l.707,.708c.195,.195,.195,.512,0,.707Zm.707,1.414c-.195-.195-.195-.512,0-.707s.512-.195,.707,0l.354,.354,.354-.354c.195-.195,.512-.195,.707,0s.195,.512,0,.707l-.707,.707c-.098,.098-.226,.146-.354,.146s-.256-.049-.354-.146l-.707-.707ZM5.989,2.783c.195,.195,.195,.512,0,.707-.098,.098-.226,.146-.354,.146s-.256-.049-.354-.146l-.707-.708c-.195-.195-.195-.512,0-.707,.195-.195,.512-.195,.707,0l.707,.708Zm7.446,9.33c-.188-.627-.738-1.063-1.472-1.111-.661,.048-1.211,.484-1.411,1.156l-.596,2.98c-.133,.441-.052,.908,.224,1.278,.276,.371,.699,.584,1.162,.584h1.314c.463,0,.886-.213,1.162-.584,.27-.363,.354-.819,.231-1.254l-.615-3.05Zm-.419,3.707c-.085,.115-.217,.181-.359,.181h-1.314c-.143,0-.274-.065-.359-.181-.085-.114-.11-.258-.058-.439l.596-2.979c.068-.226,.271-.384,.442-.402,.244,.018,.446,.176,.503,.356l.607,3.025,.012,.045c.041,.137,.016,.28-.069,.395Z"/>
</svg>
