<svg id="Layer_1" viewBox="0 0 24 24" xmlns="http://www.w3.org/2000/svg" data-name="Layer 1"><path d="m10 6c-2.206 0-4 1.794-4 4s1.794 4 4 4 4-1.794 4-4-1.794-4-4-4zm0 7c-1.654 0-3-1.346-3-3s1.346-3 3-3 3 1.346 3 3-1.346 3-3 3zm12 2.343v-1.843c0-1.93-1.57-3.5-3.5-3.5s-3.5 1.57-3.5 3.5v1.843c-1.18.563-2 1.765-2 3.157v2c0 1.93 1.57 3.5 3.5 3.5h4c1.93 0 3.5-1.57 3.5-3.5v-2c0-1.392-.82-2.594-2-3.157zm-6-1.843c0-1.379 1.121-2.5 2.5-2.5s2.5 1.121 2.5 2.5v1.54c-.164-.024-.33-.04-.5-.04h-4c-.17 0-.336.016-.5.04zm7 7c0 1.379-1.121 2.5-2.5 2.5h-4c-1.379 0-2.5-1.121-2.5-2.5v-2c0-1.379 1.121-2.5 2.5-2.5h4c1.379 0 2.5 1.121 2.5 2.5zm-3.5-1c0 .552-.448 1-1 1s-1-.448-1-1 .448-1 1-1 1 .448 1 1zm-8.506 3.882c.043.272-.144.529-.416.572-.193.03-.388.046-.578.046-1.215 0-2.512-.643-3.383-1.678-4.267-5.077-6.617-9.453-6.617-12.322 0-5.514 4.486-10 10-10 4.497 0 8.465 3.03 9.648 7.368.072.267-.084.541-.351.614-.269.072-.542-.085-.614-.351-1.065-3.905-4.637-6.632-8.684-6.632-4.962.001-8.999 4.038-8.999 9.001 0 2.634 2.267 6.781 6.383 11.679.789.938 1.966 1.461 3.039 1.287.265-.041.528.143.572.416z"/></svg>