<svg id="Layer_1" viewBox="0 0 24 24" xmlns="http://www.w3.org/2000/svg" data-name="Layer 1"><path d="m3.892 4.685c-.665-.664-1.616-.854-2.484-.494-.868.359-1.407 1.167-1.407 2.106v13.203c0 2.481 2.019 4.5 4.5 4.5h13.244c.933 0 1.733-.535 2.091-1.396.356-.862.169-1.807-.491-2.467zm15.02 17.536c-.156.377-.545.779-1.167.779h-13.245c-1.93 0-3.5-1.57-3.5-3.5v-13.203c0-.631.408-1.024.79-1.183.467-.182.981-.129 1.395.277l15.452 15.452c.44.44.431 1 .274 1.377zm5.089-8.721c0 .935-.364 1.813-1.025 2.475-1.301 1.358-3.649 1.358-4.949 0l-10.002-10c-1.358-1.302-1.358-3.647 0-4.949 1.111-1.111 2.819-1.336 4.171-.584.565-.29 1.183-.442 1.804-.442 1.868 0 3.477 1.315 3.885 3.115 1.8.408 3.115 2.017 3.115 3.885 0 2.206-1.794 4-4 4-.276 0-.5-.224-.5-.5s.224-.5.5-.5c1.654 0 3-1.346 3-3 0-1.492-1.118-2.793-2.61-2.958-.954-.106-1.879.192-2.532.859-.193.197-.51.201-.707.008s-.201-.51-.008-.707c.714-.729 1.659-1.136 2.671-1.183-.41-1.183-1.528-2.018-2.814-2.018-.546 0-1.069.151-1.555.448-.167.104-.379.098-.542-.013-.991-.674-2.324-.549-3.17.297-.97.931-.97 2.604 0 3.535l10 10c.943.945 2.592.945 3.535 0 .97-.931.97-2.605 0-3.535-.195-.195-.195-.512 0-.707s.512-.195.707 0c.661.661 1.025 1.54 1.025 2.475z"/></svg>