<?xml version="1.0" encoding="UTF-8"?>
<svg xmlns="http://www.w3.org/2000/svg" id="Layer_1" data-name="Layer 1" viewBox="0 0 24 24">
  <path d="M9,14c.552,0,1,.448,1,1s-.448,1-1,1-1-.448-1-1,.448-1,1-1Zm5,1c0,.552,.448,1,1,1s1-.448,1-1-.448-1-1-1-1,.448-1,1Zm8-2.828v-1.672c0-1.379-1.121-2.5-2.5-2.5h-.5c-.276,0-.5,.224-.5,.5s.224,.5,.5,.5h.5c.827,0,1.5,.673,1.5,1.5v2.051c0,.238,.168,.442,.4,.49,.927,.188,1.6,1.012,1.6,1.959,0,1.101-.893,1.996-2.024,1.996-.247-.054-.514,.056-.608,.304-1.367,3.463-4.652,5.7-8.367,5.7s-7-2.237-8.367-5.7c-.099-.263-.379-.363-.633-.3-1.103,0-2-.897-2-2,0-.947,.673-1.771,1.6-1.959,.233-.048,.4-.252,.4-.49v-2.051c0-.827,.673-1.5,1.5-1.5h1c.276,0,.5-.224,.5-.5s-.224-.5-.5-.5h-1c-1.378,0-2.5,1.121-2.5,2.5v1.672c-1.18,.417-2,1.548-2,2.828,0,1.601,1.259,2.912,2.839,2.996,1.593,3.659,5.15,6.004,9.161,6.004s7.567-2.345,9.161-6.004c1.579-.084,2.839-1.396,2.839-2.996,0-1.28-.82-2.411-2-2.828Zm-14.166-3.574c-.48-1.111-.379-2.323,.245-3.294L10.777,.681c.554-.865,1.904-.848,2.435-.018l2.747,4.657c.614,.954,.715,2.166,.261,3.227l-1.288,2.206c-.09,.153-.254,.247-.432,.247h-5c-.179,0-.345-.096-.434-.252l-1.231-2.15Zm.894-.445l1.062,1.848h4.424l1.114-1.903c.296-.698,.224-1.562-.221-2.252L12.5,1.423V6.846c0,.276-.224,.5-.5,.5s-.5-.224-.5-.5V1.424l-2.568,4.402c-.455,.709-.527,1.572-.204,2.326Z"/>
</svg>
