<?xml version="1.0" encoding="UTF-8"?>
<svg xmlns="http://www.w3.org/2000/svg" id="Layer_1" data-name="Layer 1" viewBox="0 0 24 24">
  <path d="m22.623,9.26l-1.623-1.564V3.5c0-1.93-1.57-3.5-3.5-3.5H6.5c-1.93,0-3.5,1.57-3.5,3.5v4.196l-1.623,1.564c-.875.844-1.377,2.024-1.377,3.24v7c0,2.481,2.019,4.5,4.5,4.5h15c2.481,0,4.5-2.019,4.5-4.5v-7c0-1.216-.502-2.396-1.377-3.24Zm-.693.721c.092.089.165.194.247.292l-1.177,1.177v-2.365l.93.896ZM4,3.5c0-1.379,1.121-2.5,2.5-2.5h11c1.379,0,2.5,1.121,2.5,2.5v8.949l-5.525,5.525c-1.322,1.322-3.627,1.322-4.949,0l-5.525-5.525V3.5Zm-1,5.585v2.365l-1.177-1.177c.081-.098.154-.203.247-.292l.93-.896Zm20,10.415c0,1.93-1.57,3.5-3.5,3.5H4.5c-1.93,0-3.5-1.57-3.5-3.5v-7c0-.469.097-.932.277-1.359l7.541,7.541c.85.851,1.979,1.318,3.182,1.318s2.332-.468,3.182-1.318l7.541-7.541c.18.427.277.89.277,1.359v7ZM6.659,8.163c-.202-.188-.214-.504-.025-.707.189-.201.505-.213.707-.025l2.278,2.117c.597.597,1.549.598,2.134.013l4.746-4.575c.198-.189.515-.186.707.014.191.198.186.515-.014.707l-4.739,4.568c-.482.483-1.12.725-1.759.725s-1.281-.243-1.77-.731l-2.266-2.104Z"/>
</svg>
