<svg id="Layer_1" viewBox="0 0 24 24" xmlns="http://www.w3.org/2000/svg" data-name="Layer 1"><path d="m12.5 7h3.375c.087.325.135.662.125 1 0 .276.224.5.5.5s.5-.224.5-.5c0-1-.452-2.454-1.331-3.323l-3.398-3.371c-.848-.842-1.974-1.306-3.169-1.306h-4.603c-2.48 0-4.499 2.019-4.499 4.5v12c0 2.481 2.019 4.5 4.5 4.5h6c.276 0 .5-.224.5-.5s-.224-.5-.5-.5h-6c-1.93 0-3.5-1.57-3.5-3.5v-12c0-1.93 1.57-3.5 3.5-3.5h4.603c.309 0 .607.054.897.131v3.369c0 1.379 1.122 2.5 2.5 2.5zm2.465-1.614c.186.185.343.394.482.614h-2.948c-.827 0-1.5-.673-1.5-1.5v-2.938c.202.131.393.28.567.453l3.398 3.371zm7.035 9.965v-1.851c0-1.93-1.57-3.5-3.5-3.5s-3.5 1.57-3.5 3.5v1.851c-1.178.564-2 1.758-2 3.149v2c0 1.93 1.57 3.5 3.5 3.5h4c1.93 0 3.5-1.57 3.5-3.5v-2c0-1.391-.822-2.585-2-3.149zm-6-1.851c0-1.379 1.122-2.5 2.5-2.5s2.5 1.121 2.5 2.5v1.551c-.165-.024-.329-.051-.5-.051h-4c-.171 0-.335.027-.5.051zm7 7c0 1.379-1.122 2.5-2.5 2.5h-4c-1.378 0-2.5-1.121-2.5-2.5v-2c0-1.379 1.122-2.5 2.5-2.5h4c1.378 0 2.5 1.121 2.5 2.5zm-3.5-1c0 .552-.448 1-1 1s-1-.448-1-1 .448-1 1-1 1 .448 1 1z"/></svg>