<svg id="Layer_1" viewBox="0 0 24 24" xmlns="http://www.w3.org/2000/svg" data-name="Layer 1"><path d="m23.5 17h-.5v-4c0-4.838-3.273-9.263-7.946-10.552-.734-.877-1.823-1.448-3.054-1.448s-2.32.571-3.054 1.448c-4.673 1.29-7.945 5.713-7.946 10.552v4h-.5c-.276 0-.5.224-.5.5s.224.5.5.5h1.24l.962 1.375c1.589 2.27 4.192 3.625 6.963 3.625h4.67c2.771 0 5.374-1.355 6.963-3.625l.962-1.375h1.24c.276 0 .5-.224.5-.5s-.224-.5-.5-.5zm-21.5-4c0-4.063 2.516-7.736 6.221-9.255-.133.397-.221.814-.221 1.255v7.5c0 .276.224.5.5.5s.5-.224.5-.5v-7.5c0-1.654 1.346-3 3-3s3 1.346 3 3v7.5c0 .276.224.5.5.5s.5-.224.5-.5v-7.5c0-.441-.089-.858-.221-1.255 3.706 1.519 6.221 5.192 6.221 9.255v4h-20zm18.479 5.801c-1.402 2.003-3.699 3.199-6.144 3.199h-4.67c-2.445 0-4.742-1.196-6.144-3.199l-.561-.801h18.08z"/></svg>