<svg id="Layer_1" viewBox="0 0 24 24" xmlns="http://www.w3.org/2000/svg" data-name="Layer 1"><path d="m7.445 19.127c-.145.237-.456.308-.688.164-.354-.218-.772-.61-1.042-.88l-.798.44c-1.188.66-2.701.236-3.373-.95-.682-1.15-.238-2.755.94-3.39l.758-.429c-.17-.748-.254-1.448-.249-2.087-.005-.634.079-1.333.249-2.079l-.746-.422c-1.183-.638-1.631-2.251-.944-3.407.679-1.2 2.208-1.622 3.407-.945l.746.423c1.071-1.031 2.368-1.788 3.789-2.21v-.855c0-1.379 1.122-2.5 2.5-2.5s2.5 1.121 2.5 2.5v.856c1.423.422 2.72 1.179 3.788 2.209l.729-.413c1.165-.692 2.793-.24 3.435.953.677 1.194.262 2.729-.925 3.42l-.752.438c.044.166.086.352.097.502.02.275-.188.515-.463.534-.279.023-.514-.188-.534-.464-.01-.14-.104-.459-.167-.641-.078-.227.015-.477.221-.597l1.095-.637c.716-.416.966-1.342.558-2.063-.388-.719-1.369-.994-2.073-.574l-1.061.601c-.199.111-.45.075-.608-.091-1.077-1.131-2.446-1.93-3.961-2.311-.222-.057-.378-.256-.378-.485v-1.237c0-.827-.673-1.5-1.5-1.5s-1.5.673-1.5 1.5v1.237c0 .229-.156.429-.378.485-1.512.379-2.883 1.179-3.963 2.311-.159.166-.409.202-.608.091l-1.078-.61c-.718-.407-1.636-.153-2.044.565-.411.694-.144 1.662.566 2.045l1.075.608c.197.112.295.343.238.562-.209.803-.313 1.544-.308 2.202-.005.664.099 1.405.308 2.21.057.22-.041.449-.238.562l-1.087.615c-.704.379-.97 1.339-.562 2.026.401.709 1.306.963 2.017.568l1.137-.628c.202-.109.453-.068.607.099.185.2.745.769 1.106.991.235.145.309.452.164.688zm16.555 3.135c0 .958-.78 1.738-1.738 1.738-1.271 0-3.161-1.975-4.097-3.377-.261-.39-.715-.623-1.217-.623h-.867c-.499 0-.953.23-1.212.617-.946 1.404-2.852 3.383-4.13 3.383-.958 0-1.738-.78-1.738-1.738 0-.715.302-3.089 1.234-5.863.421-1.254 1.496-2.148 2.766-2.353v-.545c0-.276.224-.5.5-.5s.5.224.5.5v.5h5v-.5c0-.276.224-.5.5-.5s.5.224.5.5v.545c1.271.205 2.345 1.099 2.766 2.353.932 2.774 1.234 5.148 1.234 5.863zm-1 0c0-.636-.298-2.914-1.182-5.545-.345-1.027-1.3-1.717-2.377-1.717h-5.881c-1.077 0-2.033.689-2.377 1.717-.884 2.631-1.182 4.909-1.182 5.545 0 .407.331.738.738.738.667 0 2.302-1.457 3.3-2.941.446-.663 1.21-1.059 2.042-1.059h.867c.836 0 1.602.399 2.048 1.068.989 1.479 2.606 2.932 3.266 2.932.407 0 .738-.331.738-.738zm-13.586-7.852c.227-.158.282-.47.124-.696-.352-.504-.538-1.097-.538-1.714 0-1.654 1.346-3 3-3 1.483 0 2.76 1.105 2.969 2.571.039.272.289.453.566.424.273-.039.463-.293.424-.566-.28-1.954-1.982-3.429-3.959-3.429-2.206 0-4 1.794-4 4 0 .823.248 1.614.717 2.286.16.228.472.28.696.124z"/></svg>