<?xml version="1.0" encoding="UTF-8"?>
<svg xmlns="http://www.w3.org/2000/svg" id="Layer_1" data-name="Layer 1" viewBox="0 0 24 24">
  <path d="M12,6c-3.309,0-6,2.691-6,6s2.691,6,6,6,6-2.691,6-6-2.691-6-6-6Zm0,11c-1.838,0-3.431-1.009-4.299-2.491l1.824-1.777,.744,.744c.391,.391,1.072,.391,1.463,0l2.269-2.269v1.793c0,.276,.224,.5,.5,.5s.5-.224,.5-.5v-2.5c0-.551-.448-1-1-1h-2.5c-.276,0-.5,.224-.5,.5s.224,.5,.5,.5h1.786l-2.311,2.269-.744-.744c-.402-.403-1.061-.403-1.463,0l-1.504,1.504c-.157-.485-.264-.992-.264-1.529,0-2.757,2.243-5,5-5s5,2.243,5,5-2.243,5-5,5Zm11.271-7.487c-1.552-2.432-5.079-6.513-11.271-6.513S2.279,7.082,.729,9.515c-.978,1.533-.978,3.438,0,4.97,1.552,2.434,5.078,6.515,11.271,6.515s9.719-4.081,11.271-6.515c.978-1.532,.978-3.438,0-4.973Zm-.844,4.436c-1.441,2.26-4.714,6.052-10.428,6.052S3.013,16.208,1.572,13.948c-.767-1.202-.767-2.694,0-3.896,1.44-2.26,4.712-6.053,10.428-6.053s8.986,3.791,10.428,6.05c.767,1.203,.767,2.697,0,3.898Z"/>
</svg>
