<svg id="Layer_1" viewBox="0 0 24 24" xmlns="http://www.w3.org/2000/svg" data-name="Layer 1"><path d="m17.5 0c-3.584 0-6.5 2.916-6.5 6.5s2.916 6.5 6.5 6.5 6.5-2.916 6.5-6.5-2.916-6.5-6.5-6.5zm0 12c-3.032 0-5.5-2.467-5.5-5.5s2.468-5.5 5.5-5.5 5.5 2.467 5.5 5.5-2.468 5.5-5.5 5.5zm-5.503.267c.023-.335-.087-.66-.354-.958l-2.196-1.921c-.309-.35-.79-.473-1.228-.305-.437.165-.719.573-.719 1.04v3.666l-2.195-1.684c-.219-.167-.532-.127-.701.093-.168.219-.127.533.092.701l2.753 2.11-2.751 2.095c-.22.167-.263.481-.095.701.166.22.479.263.7.095l2.197-1.673v3.604c-.013.623.5 1.138 1.148 1.138.31 0 .602-.124.788-.337l2.247-1.946c.224-.252.335-.576.312-.913s-.175-.643-.452-.882l-2.449-1.878 2.471-1.882c.256-.22.408-.526.432-.862zm-1.085 5.396c.106.102.122.255.009.364l-2.185 1.892c-.09.084-.233.048-.235-.09v-4.015l2.412 1.849zm.024-5.311-2.437 1.855v-4.085c-.006-.105.131-.129.241-.028l2.196 1.921c.092.132.083.223 0 .337zm7.563-2.352c0 .552-.448 1-1 1s-1-.448-1-1 .448-1 1-1 1 .448 1 1zm-1.5-2.5v-5c0-.276.224-.5.5-.5s.5.224.5.5v5c0 .276-.224.5-.5.5s-.5-.224-.5-.5zm.984 8.029c-.275 4.75-4.222 8.471-8.984 8.471-4.962 0-8.999-4.038-8.999-9 0-4.763 3.721-8.709 8.471-8.984.276-.021.513.194.528.47.017.275-.194.512-.47.528-4.223.245-7.529 3.753-7.529 7.986 0 4.411 3.589 8 8 8 4.233 0 7.741-3.307 7.986-7.529.016-.276.251-.48.528-.47.275.016.486.252.47.528z"/></svg>