<?xml version="1.0" encoding="UTF-8"?>
<svg xmlns="http://www.w3.org/2000/svg" id="Layer_1" data-name="Layer 1" viewBox="0 0 24 24">
  <path d="M10.5,12c.276,0,.5-.224,.5-.5v-2h1.25c.086,0,.167-.016,.251-.025l.799,2.196c.074,.203,.266,.329,.47,.329,.057,0,.114-.01,.171-.03,.26-.094,.394-.381,.299-.641l-.794-2.181c.631-.399,1.054-1.098,1.054-1.898,0-1.241-1.01-2.25-2.25-2.25h-1.25c-.552,0-1,.449-1,1v5.5c0,.276,.224,.5,.5,.5Zm.5-6h1.25c.689,0,1.25,.561,1.25,1.25s-.561,1.25-1.25,1.25h-1.25v-2.5Zm-5,3v2.5c0,.276-.224,.5-.5,.5s-.5-.224-.5-.5V6c0-.551,.448-1,1-1h2c.276,0,.5,.224,.5,.5s-.224,.5-.5,.5h-2v2h2c.276,0,.5,.224,.5,.5s-.224,.5-.5,.5h-2Zm13.5-5h-.551c-.252-2.244-2.139-4-4.449-4H4.5C2.019,0,0,2.019,0,4.5v13.855c-.041,1.276,1.522,2.113,2.562,1.371l3.526-2.351c.409,2.063,2.23,3.625,4.412,3.625h6.849l4.089,2.726c1.04,.742,2.604-.095,2.562-1.371V8.5c0-2.481-2.019-4.5-4.5-4.5ZM2.008,18.894c-.407,.293-1.026-.036-1.008-.539V4.5c0-1.93,1.57-3.5,3.5-3.5H14.5c1.93,0,3.5,1.57,3.5,3.5V12.5c0,1.93-1.57,3.5-3.5,3.5H6.5c-.105-.004-.189,.05-.277,.084l-4.215,2.81Zm20.992,3.461c.019,.504-.601,.831-1.008,.539l-4.215-2.81c-.082-.055-.179-.084-.277-.084h-7c-1.758,0-3.204-1.308-3.449-3h7.449c2.481,0,4.5-2.019,4.5-4.5V5h.5c1.93,0,3.5,1.57,3.5,3.5v13.855Z"/>
</svg>
