<?xml version="1.0" encoding="UTF-8"?>
<svg xmlns="http://www.w3.org/2000/svg" id="Layer_1" data-name="Layer 1" viewBox="0 0 24 24">
  <path d="m13,3.5V1.5c0-.827-.673-1.5-1.5-1.5-.652,0-1.208.418-1.414,1h-1.172c-.206-.582-.762-1-1.414-1h-3.25C1.906,0,0,1.906,0,4.25c0,.413.337.75.75.75h4.228l-.477,11.411c-.023.685.225,1.332.7,1.825.476.492,1.114.764,1.799.764s1.323-.271,1.799-.764c.476-.493.724-1.141.7-1.828l-.499-11.929v-.479h1.086c.206.582.762,1,1.414,1,.827,0,1.5-.673,1.5-1.5Zm-4.921,14.042c-.57.59-1.588.59-2.158,0-.285-.296-.435-.685-.42-1.093l.479-11.449h2.041l.479,11.446c.015.411-.135.8-.42,1.096Zm2.921-14.042c0-.276-.224-.5-.5-.5h-2c-.276,0-.5.224-.5.5v.5H1.01c.128-1.676,1.532-3,3.24-3h3.25c.275,0,.5.225.5.5s.224.5.5.5h2c.276,0,.5-.224.5-.5s.225-.5.5-.5.5.225.5.5v2c0,.275-.225.5-.5.5s-.5-.225-.5-.5Zm10.96,10.543l-1.943-.892c-.612-.281-.963-.943-.854-1.61.407-2.49.837-5.596.837-6.041,0-1.379-1.121-2.5-2.5-2.5s-2.5,1.121-2.5,2.5c0,.445.43,3.551.837,6.041.109.667-.241,1.329-.853,1.61l-1.945.892c-1.238.568-2.039,1.817-2.039,3.181v4.276c0,1.379,1.121,2.5,2.5,2.5h.525c.229,0,.428-.154.484-.375l.804-3.118.828,3.121c.059.22.257.372.483.372h4.875c1.379,0,2.5-1.121,2.5-2.5v-4.276c0-1.363-.801-2.612-2.04-3.181Zm-8.504.908l1.945-.892c1.02-.469,1.604-1.571,1.422-2.681-.467-2.863-.823-5.601-.823-5.879,0-.827.673-1.5,1.5-1.5s1.5.673,1.5,1.5c0,.278-.356,3.016-.823,5.879-.183,1.109.402,2.212,1.422,2.681h0l1.943.892c.486.223.863.6,1.118,1.049h-10.322c.254-.449.632-.826,1.117-1.049Zm9.544,6.549c0,.827-.673,1.5-1.5,1.5h-4.49l-.907-3.416c-.101-.359-.419-.601-.792-.601s-.691.241-.795.61l-.878,3.406h-.138c-.827,0-1.5-.673-1.5-1.5v-4.276c0-.077.026-.148.033-.224h10.935c.007.076.033.147.033.224v4.276Z"/>
</svg>
