<?xml version="1.0" encoding="UTF-8"?>
<svg xmlns="http://www.w3.org/2000/svg" id="Layer_1" data-name="Layer 1" viewBox="0 0 24 24">
  <path d="m22.623,9.26l-1.623-1.564V3.5c0-1.93-1.57-3.5-3.5-3.5H6.5c-1.93,0-3.5,1.57-3.5,3.5v4.196l-1.623,1.564c-.875.843-1.377,2.024-1.377,3.24v7c0,2.481,2.019,4.5,4.5,4.5h15c2.481,0,4.5-2.019,4.5-4.5v-7c0-1.216-.502-2.396-1.377-3.24Zm-.693.72c.093.089.166.194.247.293l-1.177,1.177v-2.366l.93.896ZM4,3.5c0-1.378,1.121-2.5,2.5-2.5h11c1.379,0,2.5,1.122,2.5,2.5v8.95l-5.525,5.525c-1.322,1.322-3.627,1.322-4.949,0l-5.525-5.525V3.5Zm-1,5.584v2.366l-1.177-1.177c.082-.098.155-.203.247-.293l.93-.896Zm20,10.416c0,1.93-1.57,3.5-3.5,3.5H4.5c-1.93,0-3.5-1.57-3.5-3.5v-7c0-.469.097-.932.277-1.359l7.541,7.541c.85.85,1.979,1.318,3.182,1.318s2.332-.468,3.182-1.318l7.541-7.541c.18.427.277.89.277,1.359v7ZM6,7.5c0-1.93,1.57-3.5,3.5-3.5h6.5c1.103,0,2,.897,2,2s-.897,2-2,2h-6.5c-.276,0-.5-.224-.5-.5s.224-.5.5-.5h6.5c.552,0,1-.449,1-1s-.448-1-1-1h-6.5c-1.379,0-2.5,1.122-2.5,2.5s1.121,2.5,2.5,2.5h6c.276,0,.5.224.5.5s-.224.5-.5.5h-6c-1.93,0-3.5-1.57-3.5-3.5Z"/>
</svg>
