<svg id="Layer_1" viewBox="0 0 24 24" xmlns="http://www.w3.org/2000/svg" data-name="Layer 1"><path d="m23.707 1-.707-.707c-.389-.389-1.023-.389-1.418.004l-.988 1.009c-.941-.488-2.174-.359-2.95.416l-4.93 4.997c-.194.196-.192.513.004.707.196.193.513.192.707-.005l4.928-4.994c.567-.567 1.556-.565 2.121 0l1.099 1.098c.585.585.585 1.537-.002 2.123l-7.014 7.081c-.586.584-1.536.585-2.122 0l-.582-.583c-.195-.195-.512-.195-.707 0s-.195.512 0 .707l.582.583c.487.487 1.127.73 1.768.73s1.282-.244 1.771-.732l5.64-5.694c.704 1.307 1.094 2.762 1.094 4.259 0 4.962-4.037 9-9 9-3.023 0-5.802-1.519-7.464-4h4.964c.276 0 .5-.224.5-.5s-.224-.5-.5-.5h-10.001c-.276 0-.5.224-.5.5s.224.5.5.5h3.857c1.025 1.77 2.54 3.144 4.324 4h-2.181c-.827 0-1.5.673-1.5 1.5s.673 1.5 1.5 1.5h13c.827 0 1.5-.673 1.5-1.5s-.673-1.5-1.5-1.5h-2.17c3.349-1.618 5.67-5.038 5.67-9 0-1.765-.479-3.484-1.358-5.002l.638-.645c.771-.746.956-1.993.436-2.927l.991-1.013c.39-.39.39-1.024 0-1.414zm-4.207 21c.275 0 .5.224.5.5s-.225.5-.5.5h-13c-.275 0-.5-.224-.5-.5s.225-.5.5-.5zm2.594-19.368-.707-.707.906-.925.703.711zm-19.951 5.518c-.196-.094-.412-.15-.643-.15-.827 0-1.5.673-1.5 1.5s.673 1.5 1.5 1.5 1.5-.673 1.5-1.5c0-.231-.057-.447-.15-.642l.564-.564c.457.342.996.571 1.586.656v1.551c0 .276.224.5.5.5s.5-.224.5-.5v-1.551c.59-.086 1.129-.314 1.586-.656l.564.564c-.094.196-.15.412-.15.643 0 .827.673 1.5 1.5 1.5s1.5-.673 1.5-1.5-.673-1.5-1.5-1.5c-.231 0-.447.057-.643.15l-.564-.564c.342-.457.571-.996.656-1.586h1.551c.276 0 .5-.224.5-.5s-.224-.5-.5-.5h-1.551c-.086-.59-.314-1.129-.656-1.586l.564-.564c.196.094.412.15.643.15.827 0 1.5-.673 1.5-1.5s-.673-1.5-1.5-1.5-1.5.673-1.5 1.5c0 .231.057.447.15.643l-.564.564c-.457-.342-.996-.571-1.586-.656v-1.552c0-.276-.224-.5-.5-.5s-.5.224-.5.5v1.551c-.59.086-1.129.314-1.586.656l-.564-.564c.094-.195.15-.412.15-.642 0-.827-.673-1.5-1.5-1.5s-1.5.672-1.5 1.499.673 1.5 1.5 1.5c.231 0 .447-.057.643-.15l.564.564c-.342.457-.571.996-.656 1.586h-1.551c-.276 0-.5.224-.5.5s.224.5.5.5h1.551c.086.59.314 1.13.656 1.586zm-.643 1.85c-.275 0-.5-.224-.5-.5s.225-.5.5-.5.5.224.5.5-.225.5-.5.5zm4-7c1.379 0 2.5 1.122 2.5 2.5s-1.121 2.5-2.5 2.5-2.5-1.122-2.5-2.5 1.121-2.5 2.5-2.5zm4.5 6.5c0 .276-.225.5-.5.5s-.5-.224-.5-.5.225-.5.5-.5.5.224.5.5zm-.5-8.5c.275 0 .5.224.5.5s-.225.5-.5.5-.5-.224-.5-.5.225-.5.5-.5zm-8.5.5c0-.276.225-.5.5-.5s.5.224.5.5-.225.5-.5.5-.5-.224-.5-.5z"/></svg>