<?xml version="1.0" encoding="UTF-8"?>
<svg xmlns="http://www.w3.org/2000/svg" id="Layer_1" data-name="Layer 1" viewBox="0 0 24 24">
  <path d="M15.75,9c-1.156,0-2.111,.876-2.236,2h-3.027c-.125-1.124-1.08-2-2.236-2-1.241,0-2.25,1.009-2.25,2.25,0,.429,.122,.847,.353,1.292-.231,.362-.353,.779-.353,1.208,0,1.24,1.009,2.25,2.25,2.25,1.156,0,2.111-.877,2.236-2h3.027c.125,1.123,1.08,2,2.236,2,1.241,0,2.25-1.01,2.25-2.25,0-.429-.122-.846-.353-1.292,.231-.361,.353-.779,.353-1.208,0-1.241-1.009-2.25-2.25-2.25Zm1.054,4.081c.128,.2,.196,.432,.196,.669,0,.689-.561,1.25-1.25,1.25s-1.25-.561-1.25-1.25c.095-.334-.075-.758-.474-.75h-4.052c-.386,.004-.565,.412-.474,.75,0,.689-.561,1.25-1.25,1.25s-1.25-.561-1.25-1.25c0-.237,.068-.469,.195-.669,.229-.358,.229-.804,0-1.162-.128-.2-.196-.431-.196-.669,0-.689,.561-1.25,1.25-1.25s1.25,.561,1.25,1.25c-.095,.333,.075,.759,.474,.75h4.052c.386-.004,.565-.413,.474-.75,0-.689,.561-1.25,1.25-1.25s1.25,.561,1.25,1.25c0,.238-.068,.469-.195,.669-.229,.358-.229,.804,0,1.162Zm7.093,2.066l-1.657-7.182c-.539-2.335-2.588-3.965-4.984-3.965H6.745c-2.396,0-4.445,1.63-4.984,3.965L.103,15.147c-.273,1.183,.004,2.406,.76,3.357,.756,.95,1.886,1.495,3.1,1.495H20.037c1.214,0,2.344-.545,3.1-1.495,.756-.951,1.033-2.175,.76-3.357Zm-1.542,2.734c-.565,.711-1.41,1.118-2.318,1.118H3.963c-.908,0-1.752-.407-2.318-1.118-.565-.71-.772-1.625-.567-2.51l1.657-7.182c.434-1.878,2.083-3.19,4.01-3.19h10.511c1.927,0,3.576,1.312,4.01,3.19l1.657,7.182c.205,.885-.002,1.8-.567,2.51Z"/>
</svg>
