<svg id="Layer_1" viewBox="0 0 24 24" xmlns="http://www.w3.org/2000/svg" data-name="Layer 1"><path d="m22 19.051v-2.551c0-.276-.224-.5-.5-.5s-.5.224-.5.5v2.5h-5.5c-.133 0-.26.053-.354.146l-.854.854h-4.586l-.854-.854c-.094-.094-.221-.146-.354-.146h-5.498v-8.5c0-1.93 1.57-3.5 3.5-3.5h3c.276 0 .5-.224.5-.5s-.224-.5-.5-.5h-3c-2.481 0-4.5 2.019-4.5 4.5v8.551c-1.14.232-2 1.242-2 2.449 0 1.378 1.122 2.5 2.5 2.5h19c1.379 0 2.5-1.122 2.5-2.5 0-1.207-.86-2.217-2-2.449zm-.5 3.949h-19c-.827 0-1.5-.673-1.5-1.5s.673-1.5 1.5-1.5h5.793l.854.854c.094.094.221.146.354.146h5c.133 0 .26-.053.354-.146l.854-.854h5.793c.827 0 1.5.673 1.5 1.5s-.673 1.5-1.5 1.5zm-8.903-11.296c-.909-2.03-.776-4.203.364-5.963 1.112-1.716 2.996-2.741 5.039-2.741h1.696l-2.189-2.146c-.195-.195-.195-.512 0-.707s.512-.195.707 0l2.387 2.343c.264.265.398.63.398 1.003 0 .404-.147.683-.397.93l-2.388 2.387c-.195.195-.512.195-.707 0s-.195-.512 0-.707l2.104-2.104h-1.611c-1.702 0-3.272.854-4.199 2.285-.953 1.47-1.059 3.296-.291 5.011.432.963 1.231 1.763 2.194 2.194 1.716.769 3.542.662 5.011-.291 1.431-.927 2.285-2.497 2.285-4.199 0-1.036-.314-2.03-.908-2.875-.158-.226-.104-.538.122-.697.224-.159.537-.105.696.122.713 1.014 1.09 2.207 1.09 3.45 0 2.043-1.024 3.926-2.741 5.039-.986.639-2.104.962-3.251.962-.9 0-1.82-.198-2.712-.598-1.202-.538-2.16-1.497-2.699-2.699z"/></svg>