<svg id="Layer_1" viewBox="0 0 24 24" xmlns="http://www.w3.org/2000/svg" data-name="Layer 1"><path d="m21.5 18h-.5v-.5c0-1.93-1.57-3.5-3.5-3.5h-5v-2h3c1.378 0 2.5-1.122 2.5-2.5v-7c0-1.378-1.122-2.5-2.5-2.5h-7c-1.378 0-2.5 1.122-2.5 2.5v7c0 1.378 1.122 2.5 2.5 2.5h3v2h-5c-1.93 0-3.5 1.57-3.5 3.5v.5h-.5c-1.378 0-2.5 1.122-2.5 2.5v1c0 1.378 1.122 2.5 2.5 2.5h2c1.378 0 2.5-1.122 2.5-2.5v-1c0-1.378-1.122-2.5-2.5-2.5h-.5v-.5c0-1.378 1.122-2.5 2.5-2.5h5v3h-.5c-1.378 0-2.5 1.122-2.5 2.5v1c0 1.378 1.122 2.5 2.5 2.5h2c1.378 0 2.5-1.122 2.5-2.5v-1c0-1.378-1.122-2.5-2.5-2.5h-.5v-3h5c1.378 0 2.5 1.122 2.5 2.5v.5h-.5c-1.378 0-2.5 1.122-2.5 2.5v1c0 1.378 1.122 2.5 2.5 2.5h2c1.378 0 2.5-1.122 2.5-2.5v-1c0-1.378-1.122-2.5-2.5-2.5zm-14.5-8.5v-7c0-.827.673-1.5 1.5-1.5h7c.827 0 1.5.673 1.5 1.5v7c0 .827-.673 1.5-1.5 1.5h-7c-.827 0-1.5-.673-1.5-1.5zm-1 11v1c0 .827-.673 1.5-1.5 1.5h-2c-.827 0-1.5-.673-1.5-1.5v-1c0-.827.673-1.5 1.5-1.5h2c.827 0 1.5.673 1.5 1.5zm8.5 0v1c0 .827-.673 1.5-1.5 1.5h-2c-.827 0-1.5-.673-1.5-1.5v-1c0-.827.673-1.5 1.5-1.5h2c.827 0 1.5.673 1.5 1.5zm8.5 1c0 .827-.673 1.5-1.5 1.5h-2c-.827 0-1.5-.673-1.5-1.5v-1c0-.827.673-1.5 1.5-1.5h2c.827 0 1.5.673 1.5 1.5zm-9-13v-5c0-.276.224-.5.5-.5s.5.224.5.5v5c0 .276-.224.5-.5.5s-.5-.224-.5-.5zm-1.677.5c.336 0 .577-.325.478-.647l-1.518-4.932c-.077-.25-.308-.421-.57-.421-.26 0-.491.169-.569.417l-1.552 4.932c-.101.322.139.65.477.65.218 0 .411-.142.477-.35l.205-.65h1.896l.199.647c.065.21.258.353.478.353zm-2.258-2 .644-2.045.63 2.045z"/></svg>