<svg id="Layer_1" viewBox="0 0 24 24" xmlns="http://www.w3.org/2000/svg" data-name="Layer 1"><path d="m16.5 0h-9c-2.481 0-4.5 2.019-4.5 4.5v11c0 2.31 1.756 4.197 4 4.449v3.051h-1.5c-.276 0-.5.224-.5.5s.224.5.5.5h13c.276 0 .5-.224.5-.5s-.224-.5-.5-.5h-1.5v-3.051c2.244-.252 4-2.139 4-4.449v-11c0-2.481-2.019-4.5-4.5-4.5zm-8.5 23v-3h8v3zm12-7.5c0 1.93-1.57 3.5-3.5 3.5h-9c-1.93 0-3.5-1.57-3.5-3.5v-11c0-1.93 1.57-3.5 3.5-3.5h9c1.93 0 3.5 1.57 3.5 3.5zm-8-11.5c-1.336 0-2.592.52-3.535 1.464-.944.944-1.465 2.2-1.465 3.536s.524 2.596 1.487 3.557l1.955 1.832c.437.405.996.607 1.557.607s1.123-.203 1.561-.61l1.976-1.851c.944-.944 1.465-2.2 1.465-3.536s-.521-2.591-1.465-3.536c-.943-.944-2.199-1.464-3.535-1.464zm2.84 7.817-1.962 1.838c-.493.458-1.263.458-1.754.002l-1.941-1.819c-.763-.762-1.183-1.77-1.183-2.839s.416-2.073 1.172-2.829c.755-.755 1.76-1.171 2.828-1.171s2.073.416 2.828 1.171c.756.755 1.172 1.76 1.172 2.829s-.416 2.073-1.16 2.817zm-2.84-4.817c-1.103 0-2 .897-2 2s.897 2 2 2 2-.897 2-2-.897-2-2-2zm0 3c-.552 0-1-.449-1-1s.448-1 1-1 1 .449 1 1-.448 1-1 1z"/></svg>