<?xml version="1.0" encoding="UTF-8"?>
<svg xmlns="http://www.w3.org/2000/svg" id="Layer_1" data-name="Layer 1" viewBox="0 0 24 24">
  <path d="M19.5,1H4.5C2.019,1,0,3.019,0,5.5V14.5c0,2.481,2.019,4.5,4.5,4.5h7v3H6.5c-.276,0-.5,.224-.5,.5s.224,.5,.5,.5h11c.276,0,.5-.224,.5-.5s-.224-.5-.5-.5h-5v-3h7c2.481,0,4.5-2.019,4.5-4.5V5.5c0-2.481-2.019-4.5-4.5-4.5Zm3.5,13.5c0,1.93-1.57,3.5-3.5,3.5H4.5c-1.93,0-3.5-1.57-3.5-3.5V5.5c0-1.93,1.57-3.5,3.5-3.5h15c1.93,0,3.5,1.57,3.5,3.5V14.5Zm-3-8v4c0,.276-.224,.5-.5,.5s-.5-.224-.5-.5v-3.793l-5.358,5.358c-.715,.715-1.877,.715-2.592,0l-1.784-1.784c-.368-.368-.967-.368-1.335,0l-3.075,3.075c-.098,.098-.226,.146-.354,.146s-.256-.049-.354-.146c-.195-.195-.195-.512,0-.707l3.075-3.075c.758-.758,1.991-.758,2.749,0l1.784,1.784c.314,.314,.863,.314,1.178,0l5.358-5.358h-3.793c-.276,0-.5-.224-.5-.5s.224-.5,.5-.5h4c.827,0,1.5,.673,1.5,1.5Z"/>
</svg>
