<svg id="Layer_1" viewBox="0 0 24 24" xmlns="http://www.w3.org/2000/svg" data-name="Layer 1"><path d="m.743 9.818c-.479-.581-.743-1.315-.743-2.068 0-1.315.804-2.49 2-2.989v-.011c0-2.619 2.131-4.75 4.75-4.75 2.227 0 4.117 1.525 4.612 3.67 1.547.482 2.638 1.937 2.638 3.58 0 1.285-.647 2.466-1.73 3.16-.229.148-.541.083-.69-.151-.149-.232-.082-.542.151-.69.795-.509 1.27-1.376 1.27-2.318 0-1.288-.914-2.417-2.173-2.687-.202-.043-.356-.206-.389-.41-.293-1.827-1.845-3.153-3.688-3.153-2.068 0-3.75 1.682-3.75 3.75.002.092.026.223.034.314.02.241-.135.461-.368.524-.981.265-1.666 1.154-1.666 2.162 0 .521.183 1.03.514 1.432.176.213.146.528-.067.704s-.528.146-.704-.067zm4.365 4.133.426-1.951h-1.421c-.351-.001-.672-.167-.885-.457-.217-.295-.284-.677-.178-1.021l1.146-3.577c.181-.566.702-.946 1.297-.946h1.121c.353 0 .675.163.884.446s.27.64.167.977l-.487 1.577h1.714c.408.001.778.227.97.586.192.362.171.798-.055 1.138-.008.012-.017.024-.026.036l-3.154 3.918c-.166.205-.411.322-.673.322-.535.014-.972-.529-.844-1.049zm1.047-2.951c.309-.008.563.306.488.606l-.435 1.995 2.773-3.445c.035-.076-.018-.157-.092-.157h-2.389c-.326.009-.582-.338-.478-.647l.686-2.224-.095-.128h-1.121c-.158 0-.296.101-.345.251l-1.145 3.571c-.014.044-.016.177.124.177h2.028zm13.62-6.599c-1.763-2.353-4.321-3.877-7.204-4.29-.271-.037-.526.151-.566.424-.039.273.151.526.424.566 2.618.375 4.942 1.76 6.557 3.914 1.407 1.741 4.014 7.665 4.014 8.531 0 .137-.053.454-.545.454h-.957c-.236 0-.438.165-.487.396l-.6 2.83c-.341 1.606-1.781 2.773-3.424 2.773h-1.487c-.276 0-.5.224-.5.5v1c0 .827-.673 1.5-1.5 1.5h-8c-.692 0-1.5-.393-1.5-1.5v-1.28c0-1.137-.397-2.285-1.148-3.32-.93-1.281-1.528-2.824-1.731-4.461-.034-.274-.283-.473-.558-.435-.274.034-.469.284-.435.558.223 1.804.885 3.507 1.914 4.926.626.862.958 1.808.958 2.732v1.28c0 1.472 1.028 2.5 2.5 2.5h8c1.378 0 2.5-1.121 2.5-2.5v-.5h.987c2.112 0 3.964-1.5 4.402-3.566l.516-2.434h.549c1.134 0 1.545-.869 1.545-1.454 0-1.282-2.851-7.445-4.225-9.145z"/></svg>