<svg id="Layer_1" viewBox="0 0 24 24" xmlns="http://www.w3.org/2000/svg" data-name="Layer 1"><path d="m3.915 16.632c.204.187.217.503.03.706-.187.204-.504.217-.706.03-2.058-1.889-3.239-4.575-3.239-7.368 0-5.514 4.486-10 10-10s10 4.486 10 10c0 .176-.004.352-.014.526-.014.275-.242.503-.525.473-.275-.015-.487-.25-.473-.525.008-.157.012-.315.012-.474 0-4.963-4.037-9-9-9s-9 4.037-9 9c0 2.514 1.062 4.931 2.915 6.632zm6.085-11.132v4.5h-3.5c-.276 0-.5.224-.5.5s.224.5.5.5h4c.276 0 .5-.224.5-.5v-5c0-.276-.224-.5-.5-.5s-.5.224-.5.5zm14 13c0 .276-.224.5-.5.5h-.5v1.5c0 .827-.673 1.5-1.5 1.5-.176 0-.343-.036-.5-.092v.592c0 .827-.673 1.5-1.5 1.5s-1.5-.673-1.5-1.5v-3.5h-6v3.5c0 .827-.673 1.5-1.5 1.5s-1.5-.673-1.5-1.5v-.592c-.157.056-.324.092-.5.092-.827 0-1.5-.673-1.5-1.5v-1.5h-.5c-.276 0-.5-.224-.5-.5s.224-.5.5-.5h.5v-1.5c0-.827.673-1.5 1.5-1.5.176 0 .343.036.5.092v-.592c0-.827.673-1.5 1.5-1.5s1.5.673 1.5 1.5v3.5h6v-3.5c0-.827.673-1.5 1.5-1.5s1.5.673 1.5 1.5v.592c.157-.056.324-.092.5-.092.827 0 1.5.673 1.5 1.5v1.5h.5c.276 0 .5.224.5.5zm-15 2v-4c0-.275-.225-.5-.5-.5s-.5.225-.5.5v4c0 .275.225.5.5.5s.5-.225.5-.5zm2-6c0-.275-.225-.5-.5-.5s-.5.225-.5.5v8c0 .275.225.5.5.5s.5-.225.5-.5zm9 0c0-.275-.225-.5-.5-.5s-.5.225-.5.5v8c0 .275.225.5.5.5s.5-.225.5-.5zm2 2c0-.275-.225-.5-.5-.5s-.5.225-.5.5v4c0 .275.225.5.5.5s.5-.225.5-.5z"/></svg>