<svg id="Layer_1" viewBox="0 0 24 24" xmlns="http://www.w3.org/2000/svg" data-name="Layer 1"><path d="m8.531 2.466-1.791-1.751c-.976-.953-2.504-.953-3.48 0l-1.795 1.755c-.944.944-1.465 2.199-1.465 3.533s.521 2.59 1.465 3.533c.943.943 2.199 1.463 3.535 1.463s2.591-.519 3.535-1.463 1.465-2.199 1.465-3.533-.521-2.59-1.469-3.537zm-.703 6.364c-1.513 1.51-4.147 1.508-5.656 0-.756-.755-1.172-1.759-1.172-2.827s.416-2.071 1.168-2.823l1.791-1.751c.292-.285.666-.427 1.041-.427s.749.142 1.041.427l1.787 1.747c.756.755 1.172 1.759 1.172 2.827s-.416 2.071-1.172 2.827zm15.853-2.894c-.251.1-.547-.024-.647-.285l-1.554-3.993c-3.539 8.369-10.549 13.867-20.864 16.328-.262.065-.54-.1-.603-.371-.064-.269.102-.54.37-.604 10.054-2.399 16.86-7.752 20.246-15.902l-4.194 1.64c-.256.103-.547-.026-.647-.285-.101-.258.026-.548.284-.649l4.399-1.721c.706-.276 1.503.076 1.777.782l1.717 4.411c.101.258-.026.548-.284.649zm-2.181 2.064c-.276 0-.5.224-.5.5v15c0 .276.224.5.5.5s.5-.224.5-.5v-15c0-.276-.224-.5-.5-.5zm-5 5c-.276 0-.5.224-.5.5v10c0 .276.224.5.5.5s.5-.224.5-.5v-10c0-.276-.224-.5-.5-.5zm-10 5c-.276 0-.5.224-.5.5v5c0 .276.224.5.5.5s.5-.224.5-.5v-5c0-.276-.224-.5-.5-.5zm-5 2c-.276 0-.5.224-.5.5v3c0 .276.224.5.5.5s.5-.224.5-.5v-3c0-.276-.224-.5-.5-.5zm10-4c-.276 0-.5.224-.5.5v7c0 .276.224.5.5.5s.5-.224.5-.5v-7c0-.276-.224-.5-.5-.5z"/></svg>