<svg id="Layer_1" viewBox="0 0 24 24" xmlns="http://www.w3.org/2000/svg" data-name="Layer 1"><path d="m14 4c0 .276-.224.5-.5.5h-1v1c0 .276-.224.5-.5.5s-.5-.224-.5-.5v-1h-1c-.276 0-.5-.224-.5-.5s.224-.5.5-.5h1v-1c0-.276.224-.5.5-.5s.5.224.5.5v1h1c.276 0 .5.224.5.5zm4.521 13.584c-.841-.837-2.353-.736-3.127.173l-3.393 3.973-3.391-3.984c-.77-.899-2.266-1.01-3.12-.171-1.512 1.412-2.49 3.738-2.49 5.926 0 .276.224.5.5.5s.5-.224.5-.5c0-1.895.873-3.982 2.172-5.195.461-.434 1.276-.386 1.683.097l3.764 4.423c.189.232.572.232.761 0l3.767-4.411c.415-.483 1.23-.555 1.689-.101 1.314 1.231 2.164 3.268 2.164 5.187 0 .276.224.5.5.5s.5-.224.5-.5c0-2.183-.974-4.505-2.479-5.916zm-12.521-7.584v-7.5c0-1.379 1.122-2.5 2.5-2.5h7c1.378 0 2.5 1.121 2.5 2.5v7.5c0 3.309-2.691 6-6 6s-6-2.691-6-6zm11 0v-2h-3.173c-1.14 1.853-3.147 3-5.327 3h-1.399c.465 2.279 2.484 4 4.899 4 2.757 0 5-2.243 5-5zm-10 0h1.5c1.616 0 3.121-.752 4.113-2h-5.613zm0-3h10v-4.5c0-.827-.673-1.5-1.5-1.5h-7c-.827 0-1.5.673-1.5 1.5z"/></svg>