<svg id="Layer_1" viewBox="0 0 24 24" xmlns="http://www.w3.org/2000/svg" data-name="Layer 1"><path d="m17.5 11c-3.584 0-6.5 2.916-6.5 6.5s2.916 6.5 6.5 6.5 6.5-2.916 6.5-6.5-2.916-6.5-6.5-6.5zm0 12c-3.033 0-5.5-2.467-5.5-5.5s2.467-5.5 5.5-5.5 5.5 2.467 5.5 5.5-2.467 5.5-5.5 5.5zm1.854-4.354c.195.195.195.512 0 .707s-.512.195-.707 0l-1.5-1.5c-.094-.094-.146-.221-.146-.354v-3c0-.276.224-.5.5-.5s.5.224.5.5v2.793l1.354 1.354zm-8.354 4.854c0 .276-.224.5-.5.5h-5.817c-1.386 0-2.693-.608-3.584-1.67-.892-1.061-1.267-2.453-1.028-3.818l2.561-14.637c.393-2.246 2.332-3.875 4.612-3.875h9.499c2.277 0 4.216 1.628 4.611 3.87l1.189 6.06c.053.271-.124.534-.395.587-.271.051-.534-.124-.587-.395l-1.19-6.069c-.312-1.773-1.837-3.053-3.628-3.053h-9.499c-1.792 0-3.318 1.281-3.626 3.047l-2.562 14.637c-.188 1.074.107 2.168.808 3.003.701.834 1.729 1.313 2.819 1.313h5.817c.276 0 .5.224.5.5zm1.5-16c0 .276-.224.5-.5.5s-.5-.224-.5-.5v-3c0-.276.224-.5.5-.5s.5.224.5.5zm0 3v1c0 .276-.224.5-.5.5s-.5-.224-.5-.5v-1c0-.276.224-.5.5-.5s.5.224.5.5z"/></svg>