<?xml version="1.0" encoding="UTF-8"?>
<svg xmlns="http://www.w3.org/2000/svg" id="Layer_1" data-name="Layer 1" viewBox="0 0 24 24">
  <path d="M9.5,10.449v7.54l.986-.003h.001c.275,0,.5,.223,.5,.499,0,.276-.223,.501-.499,.501l-4.593,.012c.063,.379,.104,.763,.104,1.153v.348c0,1.378,1.122,2.5,2.5,2.5h1c.616,0,1.208-.226,1.667-.637,.205-.185,.522-.167,.706,.039s.167,.522-.039,.706c-.643,.575-1.471,.892-2.333,.892h-1c-1.93,0-3.5-1.57-3.5-3.5v-.348c0-1.707-.718-3.321-1.969-4.431C.77,13.719-.33,10.724,.09,7.709,.645,3.736,3.944,.52,7.936,.062c2.566-.295,5.138,.513,7.051,2.219,1.915,1.708,3.013,4.157,3.013,6.72,0,.178-.005,.354-.016,.529-.016,.275-.251,.484-.528,.47-.276-.016-.486-.253-.47-.528,.009-.156,.014-.312,.014-.471,0-2.278-.976-4.456-2.678-5.973-1.725-1.538-3.951-2.237-6.271-1.972C4.504,1.462,1.573,4.319,1.081,7.847c-.374,2.682,.603,5.346,2.613,7.126,.921,.816,1.594,1.865,1.968,3.026l2.838-.007v-7.543c-1.416-.24-2.5-1.466-2.5-2.949,0-.276,.224-.5,.5-.5s.5,.224,.5,.5c0,1.103,.897,2,2,2s2-.897,2-2c0-.276,.224-.5,.5-.5s.5,.224,.5,.5c0,1.483-1.084,2.71-2.5,2.949Zm14.5,4.051v8.359c.03,.918-1.128,1.491-1.839,.906l-2.302-1.767h-4.358c-1.378,0-2.5-1.122-2.5-2.5v-5c-.028-1.344,1.157-2.528,2.501-2.5h6c1.378,.002,2.5,1.124,2.5,2.502Zm-1,0c0-.827-.673-1.5-1.5-1.5h-6c-.806-.019-1.518,.692-1.501,1.499v5c0,.827,.673,1.5,1.5,1.5h4.528c.11,0,.217,.036,.304,.104l2.437,1.87c.059,.044,.114,.033,.15,.015,.036-.018,.079-.054,.079-.127V14.5Z"/>
</svg>
