<svg id="Layer_1" viewBox="0 0 24 24" xmlns="http://www.w3.org/2000/svg" data-name="Layer 1"><path d="m23.711 5.77c-.353-2.185-2.221-3.77-4.443-3.77h-3.268c0-1.103-.897-2-2-2h-4c-1.103 0-2 .897-2 2h-3.268c-2.222 0-4.09 1.585-4.443 3.77-.385 2.359-.385 5.101 0 7.46.353 2.185 2.221 3.77 4.443 3.77h14.535c2.223 0 4.091-1.585 4.443-3.77.385-2.354.385-5.106 0-7.46zm-13.711-4.77h4c.552 0 1 .449 1 1h-6c0-.551.449-1 1-1zm12.725 12.071c-.274 1.697-1.729 2.929-3.457 2.929h-14.536c-1.729 0-3.182-1.232-3.456-2.929-.368-2.254-.368-4.887 0-7.142.274-1.697 1.728-2.929 3.456-2.929h14.535c1.729 0 3.183 1.232 3.457 2.929.367 2.249.367 4.893 0 7.142zm-9.798-6.709c-.511-.5-1.343-.501-1.896.048l-1.152 1.469c-1.169 1.169-1.169 3.073 0 4.242 1.117 1.164 3.126 1.164 4.243 0 1.149-1.08 1.16-3.13.039-4.198l-1.233-1.561zm.487 5.052c-.756.756-2.073.756-2.829 0-.78-.78-.78-2.048.04-2.873l1.148-1.465c.108-.106.301-.136.41-.048l1.23 1.558c.776.745.776 2.083 0 2.828zm5.586 6.586c-1.483 0-2.71 1.084-2.949 2.5h-8.102c-.24-1.416-1.466-2.5-2.949-2.5-1.654 0-3 1.346-3 3s1.346 3 3 3c1.483 0 2.71-1.084 2.949-2.5h8.101c.24 1.416 1.466 2.5 2.949 2.5 1.654 0 3-1.346 3-3s-1.346-3-3-3zm-14 5c-1.103 0-2-.897-2-2s.897-2 2-2 2 .897 2 2-.897 2-2 2zm14 0c-1.103 0-2-.897-2-2s.897-2 2-2 2 .897 2 2-.897 2-2 2z"/></svg>