<?xml version="1.0" encoding="UTF-8"?>
<svg xmlns="http://www.w3.org/2000/svg" id="Layer_1" data-name="Layer 1" viewBox="0 0 24 24">
  <path d="M20.698,13.302c.391,.391,.391,1.024,0,1.414-.391,.391-1.024,.391-1.414,0s-.391-1.024,0-1.414c.391-.391,1.024-.391,1.414,0Zm3.302,1.698c0,2.757-2.243,5-5,5-.415,0-.836-.061-1.28-.185l-3.452,3.452c-.471,.471-1.099,.731-1.767,.732h-1.001c-.827,0-1.5-.673-1.5-1.5v-1c0-.552,.449-1,1-1h1v-1c0-.552,.449-1,1-1h.494l-.016-1.247c-.001-.133,.049-.261,.142-.355l.573-.588c-.129-.453-.192-.884-.192-1.31,0-2.757,2.243-5,5-5s5,2.243,5,5Zm-1,0c0-2.206-1.794-4-4-4s-4,1.794-4,4c0,.406,.076,.826,.231,1.283,.061,.178,.017,.375-.115,.51l-.637,.653,.02,1.547c.001,.134-.05,.263-.144,.358-.094,.095-.222,.148-.356,.148h-1v1.5c0,.276-.224,.5-.5,.5h-1.5v1c0,.275,.225,.5,.5,.5h1c.401,0,.778-.157,1.061-.439l3.665-3.665c.134-.135,.333-.179,.512-.121,.453,.152,.865,.226,1.262,.226,2.206,0,4-1.794,4-4Zm-13.001,3.438c.017,.275-.192,.513-.468,.53-.338,.021-.682,.032-1.031,.032-3.287,0-6.081-.94-7.5-2.351v2.851c0,1.717,2.869,3.241,6.531,3.47,.275,.018,.485,.255,.468,.53-.017,.265-.237,.469-.499,.469-.01,0-.021,0-.032,0-4.328-.27-7.469-2.148-7.469-4.468V4.5C0,1.977,3.733,0,8.5,0s8.5,1.977,8.5,4.5v3.5c0,.276-.224,.5-.5,.5s-.5-.224-.5-.5v-1.351c-1.419,1.411-4.213,2.351-7.5,2.351s-6.081-.94-7.5-2.351v2.851c0,1.897,3.435,3.5,7.5,3.5,1.003,0,1.979-.095,2.901-.281,.273-.054,.534,.121,.589,.391,.055,.271-.121,.535-.391,.59-.986,.199-2.029,.301-3.099,.301-3.286,0-6.081-.939-7.5-2.35v2.85c0,1.897,3.435,3.5,7.5,3.5,.328,0,.651-.011,.969-.03,.274-.024,.513,.192,.53,.468ZM1,4.5c0,1.897,3.435,3.5,7.5,3.5s7.5-1.603,7.5-3.5-3.435-3.5-7.5-3.5S1,2.603,1,4.5Z"/>
</svg>
