<svg id="Layer_1" viewBox="0 0 24 24" xmlns="http://www.w3.org/2000/svg" data-name="Layer 1"><path d="m3.859 16.315c-2.304-2.828-3.59-5.59-3.821-8.209-.05-.563-.029-1.13.061-1.686.043-.273.307-.459.573-.414.272.044.458.301.413.573-.076.474-.094.958-.051 1.438.213 2.416 1.424 4.996 3.601 7.667.175.214.143.528-.072.703-.213.173-.528.144-.703-.072zm4.641 4.185h-2v-2c0-.276-.224-.5-.5-.5s-.5.224-.5.5v2h-2c-.276 0-.5.224-.5.5s.224.5.5.5h2v2c0 .276.224.5.5.5s.5-.224.5-.5v-2h2c.276 0 .5-.224.5-.5s-.224-.5-.5-.5zm-8-17h2v2c0 .276.224.5.5.5s.5-.224.5-.5v-2h2c.276 0 .5-.224.5-.5s-.224-.5-.5-.5h-2v-2c0-.276-.224-.5-.5-.5s-.5.224-.5.5v2h-2c-.276 0-.5.224-.5.5s.224.5.5.5zm11 4.5c0 .276.224.5.5.5s.5-.224.5-.5v-.75c0-2.895 2.355-5.25 5.25-5.25s5.25 2.355 5.25 5.25c0 .387-.027.785-.08 1.184-.037.273.155.525.429.562.268.038.526-.154.562-.429.06-.442.09-.885.09-1.316 0-3.446-2.804-6.25-6.25-6.25-2.59 0-4.817 1.584-5.764 3.835-.774-1.819-2.373-3.242-4.378-3.687-.279-.056-.536.111-.597.38-.06.27.11.537.38.597 2.381.528 4.108 2.683 4.108 5.125v.75zm12 3.5h-2v-2c0-.276-.224-.5-.5-.5s-.5.224-.5.5v2h-2c-.276 0-.5.224-.5.5s.224.5.5.5h2v2c0 .276.224.5.5.5s.5-.224.5-.5v-2h2c.276 0 .5-.224.5-.5s-.224-.5-.5-.5zm-4.544 4.675c-1.321 1.545-2.938 3.087-4.804 4.586-.72.579-1.662.845-2.589.726-.271-.04-.524.159-.56.433-.035.274.159.524.433.56.187.023.373.035.56.035 1.007 0 1.997-.342 2.783-.974 1.913-1.537 3.574-3.123 4.937-4.715.18-.21.155-.525-.055-.705s-.525-.154-.705.055z"/></svg>