<svg id="Layer_1" viewBox="0 0 24 24" xmlns="http://www.w3.org/2000/svg" data-name="Layer 1"><path d="m22 15.351v-1.851c0-1.93-1.57-3.5-3.5-3.5s-3.5 1.57-3.5 3.5v1.851c-1.178.564-2 1.758-2 3.149v2c0 1.93 1.57 3.5 3.5 3.5h4c1.93 0 3.5-1.57 3.5-3.5v-2c0-1.391-.822-2.585-2-3.149zm-6-1.851c0-1.378 1.122-2.5 2.5-2.5s2.5 1.122 2.5 2.5v1.551c-.165-.024-.329-.051-.5-.051h-4c-.171 0-.335.027-.5.051zm7 7c0 1.378-1.122 2.5-2.5 2.5h-4c-1.378 0-2.5-1.122-2.5-2.5v-2c0-1.378 1.122-2.5 2.5-2.5h4c1.378 0 2.5 1.122 2.5 2.5zm-3.5-1c0 .552-.448 1-1 1s-1-.448-1-1 .448-1 1-1 1 .448 1 1zm0-19.5h-15c-2.481 0-4.5 2.019-4.5 4.5v15c0 2.481 2.019 4.5 4.5 4.5h6.5c.276 0 .5-.224.5-.5s-.224-.5-.5-.5h-4v-5h3.5c.276 0 .5-.224.5-.5s-.224-.5-.5-.5h-3.5v-4.5h5c.276 0 .5-.224.5-.5v-5h4.5v.5c0 .276.224.5.5.5s.5-.224.5-.5v-.5h5v3.5c0 .276.224.5.5.5s.5-.224.5-.5v-6c0-2.481-2.019-4.5-4.5-4.5zm-13.5 23h-1.5c-1.93 0-3.5-1.57-3.5-3.5v-1.5h5zm0-6h-5v-4.5h5zm0-5.5h-5v-4.5h5zm0-5.5h-5v-1.5c0-1.93 1.57-3.5 3.5-3.5h1.5zm5.5 5.5h-4.5v-4.5h4.5zm0-5.5h-4.5v-5h4.5zm5.5 0h-4.5v-5h4.5zm6 0h-5v-5h1.5c1.93 0 3.5 1.57 3.5 3.5z"/></svg>