<svg id="Layer_1" viewBox="0 0 24 24" xmlns="http://www.w3.org/2000/svg" data-name="Layer 1"><path d="m23.922 5.428c-.89-3.417-3.831-4.808-4.711-5.152-1.022-.401-2.184-.206-3.033.508l-.44.373c-1.027.871-2.089 1.772-3.13 2.218-.382.165-.817.168-1.192.009-1.08-.455-2.179-1.393-3.241-2.3l-.433-.368c-.808-.684-1.89-.895-2.889-.565-.932.307-4.032 1.609-4.812 5.472-.117.579.033 1.176.411 1.638.384.47.952.739 1.557.739h1.994c.025 4.507.374 7.939.474 8.83-.585.662-2.477 3.077-2.477 6.67 0 .276.224.5.5.5s.5-.224.5-.5c0-2.884 1.383-4.952 2.026-5.761 1.846 1.869 3.907 3.327 5.723 4.028.807.311 1.695.311 2.502 0 1.817-.701 3.878-2.159 5.723-4.028.643.809 2.026 2.878 2.026 5.761 0 .276.224.5.5.5s.5-.224.5-.5c0-3.594-1.892-6.009-2.477-6.67.1-.896.449-4.358.474-8.83h1.971c.628 0 1.208-.285 1.593-.781.394-.509.525-1.162.361-1.791zm-19.794 1.572h-2.12c-.304 0-.589-.136-.783-.373-.188-.229-.262-.523-.205-.807.675-3.333 3.344-4.454 4.146-4.718.25-.082.503-.115.758-.098l-1.795 5.997zm7.372 13.944c-.132-.028-.263-.062-.391-.111-1.773-.684-3.818-2.158-5.632-4.057-.042-.37-.148-1.368-.25-2.808 2.338-.284 4.481-1.45 6.273-3.401zm0-11.926c-1.253 1.632-3.339 3.56-6.338 3.948-.088-1.497-.16-3.339-.162-5.393l.992-3.314c2.07 1.592 3.714 2.642 5.507 3.088v1.671zm.08-2.658c-1.592-.51-3.275-1.51-5.278-3.132l.573-1.912c1.327 1.048 2.687 2.389 4.152 2.989.623.264 1.343.26 1.975-.011 1.463-.596 2.786-1.966 4.131-2.96l.567 1.894c-2.003 1.622-3.686 2.622-5.279 3.133-.271.087-.57.087-.841 0zm6.942 10.416c-1.812 1.898-3.858 3.373-5.631 4.057-.128.05-.259.084-.391.112v-10.377c1.791 1.951 3.934 3.116 6.271 3.401-.101 1.435-.207 2.436-.249 2.808zm.315-3.81c-2.998-.388-5.084-2.316-6.337-3.948v-1.671c1.794-.447 3.439-1.497 5.508-3.089l.992 3.312c-.002 2.045-.074 3.892-.163 5.395zm3.932-6.359c-.192.25-.484.393-.801.393h-2.096l-1.775-5.929c.25 0 .508.041.749.136.77.301 3.338 1.513 4.108 4.473.086.327.018.665-.186.927z"/></svg>