<?xml version="1.0" encoding="UTF-8"?>
<svg xmlns="http://www.w3.org/2000/svg" id="Layer_1" data-name="Layer 1" viewBox="0 0 24 24">
  <path d="M18,9c-.552,0-1,.448-1,1,0,.033,.016,.061,.019,.093-.745,.179-2.335,.668-3.447,1.792-.438-1.538-1.065-3.444-1.098-3.542-.031-.095-.074-.253-.127-.413,.38-.142,.653-.501,.653-.93,0-.552-.448-1-1-1s-1,.448-1,1c0,.425,.268,.783,.642,.928-.038,.118-.077,.25-.117,.415-.024,.101-.66,2.004-1.098,3.542-1.112-1.124-2.71-1.616-3.446-1.794,.003-.032,.019-.059,.019-.092,0-.552-.448-1-1-1s-1,.448-1,1,.448,1,1,1c.085,0,.16-.028,.239-.048,.373,.404,1.761,2.012,1.761,3.548v1c0,.827,.673,1.5,1.5,1.5h5c.827,0,1.5-.673,1.5-1.5v-1c0-1.537,1.388-3.144,1.761-3.548,.079,.02,.154,.048,.239,.048,.552,0,1-.448,1-1s-.448-1-1-1Zm-3,5.5v1c0,.275-.225,.5-.5,.5h-5c-.276,0-.5-.225-.5-.5v-1c0-1.142-.562-2.248-1.112-3.064,.833,.338,1.809,.902,2.329,1.801,.102,.178,.298,.269,.503,.245,.202-.029,.366-.178,.415-.376,.198-.805,.565-2.014,.865-2.969,.3,.955,.667,2.165,.865,2.969,.048,.198,.213,.347,.415,.376,.177,0,.413-.089,.503-.245,.522-.901,1.497-1.465,2.33-1.802-.55,.816-1.114,1.924-1.114,3.066ZM16.5,0H7.5C5.019,0,3,2.019,3,4.5v15c0,2.481,2.019,4.5,4.5,4.5h9c2.481,0,4.5-2.019,4.5-4.5V4.5c0-2.481-2.019-4.5-4.5-4.5Zm3.5,19.5c0,1.93-1.57,3.5-3.5,3.5H7.5c-1.93,0-3.5-1.57-3.5-3.5V4.5c0-1.93,1.57-3.5,3.5-3.5h9c1.93,0,3.5,1.57,3.5,3.5v15Z"/>
</svg>
