<svg id="Layer_1" viewBox="0 0 24 24" xmlns="http://www.w3.org/2000/svg" data-name="Layer 1"><path d="m9 12c3.309 0 6-2.691 6-6 .018-3.235-2.679-6.019-6-6-3.321-.019-6.018 2.765-6 6 0 3.309 2.691 6 6 6zm0-1c-2.757 0-5-2.243-5-5h10c0 2.757-2.243 5-5 5zm-4.576-7h9.152c.14.318.252.651.323 1h-9.798c.071-.349.183-.682.323-1zm4.576-3c1.627 0 3.061.793 3.974 2h-7.948c.914-1.207 2.348-2 3.974-2zm9 11c1.103 0 2-.897 2-2s-.897-2-2-2-2 .897-2 2 .897 2 2 2zm0-3c.552 0 1 .449 1 1s-.448 1-1 1-1-.449-1-1 .448-1 1-1zm4.448 1.6c-.195-.195-.512-.195-.707 0s-.195.512 0 .707c1.868 1.869 1.62 4.627-.616 6.865-1.18 1.179-2.581 1.829-3.948 1.829-1.13 0-2.111-.408-2.917-1.213-.833-.832-1.229-1.792-1.265-2.814-.03-1.183.463-2.437 1.511-3.645.181-.208.158-.524-.05-.705-.209-.182-.523-.159-.706.05-1.243 1.433-1.813 2.965-1.75 4.417v4.204l-2.854 2.854c-.195.195-.195.512 0 .707s.512.195.707 0l2.854-2.854h4.47c1.634 0 3.287-.753 4.655-2.122 2.659-2.66 2.907-5.987.616-8.279zm-12.448 3.9c0-.238-.168-.443-.401-.49-.2-.015-.397-.001-.599-.01-4.962 0-9 4.038-9 9v.5c0 .276.224.5.5.5s.5-.224.5-.5v-.5c0-2.827 1.473-5.315 3.692-6.739l1.461 2.191c.495.743 1.677.827 2.262-.083l1.528-3.632c.037-.073.057-.155.057-.237zm-2.462 3.398c-.204.211-.348.211-.553 0l-1.417-2.125c.969-.461 2.044-.734 3.179-.77l-1.209 2.894z"/></svg>