<?xml version="1.0" encoding="UTF-8"?>
<svg xmlns="http://www.w3.org/2000/svg" id="Layer_1" data-name="Layer 1" viewBox="0 0 24 24">
  <path d="M11.5,19c.276,0,.5-.224,.5-.5v-6.864l7.964-4c.599-.288,.984-.856,1.031-1.519s-.255-1.279-.796-1.641L14.194,.223c-.554-.277-1.443-.353-2.18,.103-.654,.405-1.015,1.138-1.015,2.065V18.5c0,.276,.224,.5,.5,.5Zm.5-16.609c0-.584,.182-.993,.541-1.214,.214-.132,.465-.183,.688-.183,.183,0,.346,.034,.453,.084l5.95,4.221c.251,.167,.388,.447,.366,.747-.021,.301-.196,.558-.476,.692l-7.522,3.778V2.391Zm12,16.109c0,3.084-5.271,5.5-12,5.5S0,21.584,0,18.5c0-2.486,3.31-4.551,8.432-5.26,.264-.041,.526,.152,.563,.427,.038,.273-.153,.526-.427,.563-4.456,.617-7.568,2.373-7.568,4.27,0,2.439,5.037,4.5,11,4.5s11-2.061,11-4.5c0-2.031-3.675-3.916-8.548-4.384-.274-.026-.477-.271-.45-.545,.027-.275,.277-.469,.546-.45,5.565,.535,9.452,2.747,9.452,5.379Z"/>
</svg>
