<svg id="Layer_1" viewBox="0 0 24 24" xmlns="http://www.w3.org/2000/svg" data-name="Layer 1"><path d="m14.012 18.022-.097-.192c-.255-.512-.77-.83-1.342-.83h-1.146c-.572 0-1.087.318-1.342.829l-.097.193c-1.121.156-1.987 1.121-1.987 2.285v1.384c0 1.273 1.034 2.309 2.308 2.309h3.383c1.273 0 2.309-1.035 2.309-2.309v-1.384c0-1.164-.867-2.129-1.988-2.285zm-.32 4.978h-3.383c-.722 0-1.309-.587-1.309-1.309v-1.384c0-.721.588-1.308 1.309-1.308.189 0 .362-.107.447-.276l.224-.448c.085-.17.256-.275.447-.275h1.146c.191 0 .362.105.447.276l.224.447c.085.169.258.276.447.276.721 0 1.308.587 1.308 1.308v1.384c0 .722-.586 1.309-1.308 1.309zm7.309 0v.5c0 .276-.224.5-.5.5s-.5-.224-.5-.5v-.5c0-4.411-3.589-8-8-8s-8 3.589-8 8v.5c0 .276-.224.5-.5.5s-.5-.224-.5-.5v-.5c0-4.963 4.037-9 9-9s9 4.037 9 9zm-8-2c0 .552-.448 1-1 1s-1-.448-1-1 .448-1 1-1 1 .448 1 1zm-8.501-16h1.597c-.058.333-.097.667-.097 1 0 3.309 2.691 6 6 6s6-2.691 6-6c0-.333-.039-.667-.097-1h1.597c.276 0 .5-.224.5-.5s-.224-.5-.5-.5h-1.609l-.148-.591c-.502-2.008-2.298-3.409-4.366-3.409h-2.754c-2.068 0-3.864 1.401-4.366 3.409l-.148.591h-1.609c-.276 0-.5.224-.5.5s.224.5.5.5zm7.5 6c-2.757 0-5-2.243-5-5 0-.332.047-.666.116-1h9.767c.069.334.116.668.116 1 0 2.757-2.243 5-5 5zm-4.772-7.349c.39-1.561 1.786-2.651 3.396-2.651h2.754c1.609 0 3.006 1.091 3.396 2.651l.087.349h-9.721l.087-.349z"/></svg>