<svg id="Layer_1" enable-background="new 0 0 24 24" viewBox="0 0 24 24" xmlns="http://www.w3.org/2000/svg"><path d="m10.5 17h-9.5v-12.5c0-1.9 1.6-3.5 3.5-3.5h7c1.9 0 3.5 1.6 3.5 3.5v7.5c0 .3.2.5.5.5s.5-.2.5-.5v-7.5c0-2.5-2-4.5-4.5-4.5h-7c-2.5 0-4.5 2-4.5 4.5v15c0 2.5 2 4.5 4.5 4.5h4c.3 0 .5-.2.5-.5s-.2-.5-.5-.5h-4c-1.9 0-3.5-1.6-3.5-3.5v-1.5h9.5c.3 0 .5-.2.5-.5s-.2-.5-.5-.5zm-7-3c.5 0 1-.3 1.4-.7-1.2-1.4-1.9-3.5-1.9-4.8 0-.9.5-2.5 2.5-2.5s2.5 1.6 2.5 2.5c0 1.6-.7 3.5-1.7 4.8.6.4 1.3.7 2 .7.6 0 1.4-.3 2-.9-.4-.5-1.3-1.8-1.3-3.1 0-.8.5-2 2-2s2 1.2 2 2c0 2.7-2.6 5-4.7 5-1 0-1.9-.4-2.7-1-.7.6-1.4 1-2.2 1-.2 0-.4-.2-.4-.5s.2-.5.5-.5zm6.5-4c0 .9.6 1.9 1.1 2.4.5-.7.9-1.5.9-2.4 0-.2-.1-1-1-1s-1 .8-1 1zm-4.4 2.6c.8-1.1 1.4-2.7 1.4-4.1 0-.2-.1-1.5-1.5-1.5s-1.5 1.3-1.5 1.5c0 1.1.6 2.9 1.6 4.1zm17.7 2.7-7.7 7.7c-.7.7-1.6 1-2.5 1h-1.6c-.3 0-.5-.2-.5-.5v-1.6c0-.9.4-1.8 1-2.5l7.7-7.7c.9-.9 2.6-.9 3.5 0 1 1 1 2.6.1 3.6zm-.7-2.9c-.6-.6-1.6-.6-2.1 0l-7.7 7.7c-.5.5-.7 1.1-.7 1.8v1.1h1.1c.7 0 1.3-.3 1.8-.7l7.7-7.7c.4-.6.4-1.6-.1-2.2z"/></svg>