<?xml version="1.0" encoding="UTF-8"?>
<svg xmlns="http://www.w3.org/2000/svg" id="Layer_1" data-name="Layer 1" viewBox="0 0 24 24">
  <path d="M17.484,7.045c-.266-.097-.566-.043-.829,.145-1.176,1.041-2.526,3.236-2.653,6.142-.054,2.389,.96,4.577,2.998,6.511v3.657c0,.276,.224,.5,.5,.5s.5-.224,.5-.5c-.014-.121,.028-15.775-.015-15.884-.067-.267-.254-.481-.501-.571Zm-2.482,6.318c.099-2.43,1.196-4.237,1.998-5.113v10.167c-1.368-1.548-2.039-3.246-1.998-5.053Zm-6.002,1.586v8.551c0,.276-.224,.5-.5,.5s-.5-.224-.5-.5V14.949c-1.692-.245-3-1.691-3-3.449V7.5c0-.276,.224-.5,.5-.5s.5,.224,.5,.5v4c0,1.207,.86,2.217,2,2.449V7.5c0-.276,.224-.5,.5-.5s.5,.224,.5,.5v6.449c1.14-.232,2-1.242,2-2.449V7.5c0-.276,.224-.5,.5-.5s.5,.224,.5,.5v4c0,1.758-1.308,3.204-3,3.449Zm5.988,8.17c.06,.27-.11,.536-.38,.596-.852,.188-1.729,.284-2.608,.284-.175,0-.349-.003-.522-.011-.276-.012-.49-.246-.478-.521,.012-.275,.256-.497,.521-.478,.956,.039,1.934-.043,2.87-.25,.282-.057,.537,.111,.597,.38Zm9.012-11.12c0,2.998-1.111,5.869-3.131,8.083-.186,.204-.502,.219-.706,.033-.204-.186-.219-.502-.032-.707,1.85-2.029,2.869-4.661,2.869-7.409,0-6.065-4.935-11-11-11S1,5.935,1,12c0,3.627,1.788,7.02,4.783,9.076,.228,.156,.285,.467,.129,.695-.097,.141-.253,.217-.413,.217-.098,0-.196-.028-.283-.088C1.95,19.658,0,15.957,0,12,0,5.383,5.383,0,12,0s12,5.383,12,12Z"/>
</svg>
