<svg id="Layer_1" viewBox="0 0 24 24" xmlns="http://www.w3.org/2000/svg" data-name="Layer 1"><path d="m23.951 12.51c-1.081-6.372-6.089-11.38-12.461-12.461-1.622-.277-3.247.637-3.861 2.169l-7.485 18.656c-.312.859-.105 1.794.541 2.441.446.445 1.029.682 1.634.682.273 0 .55-.048.822-.147l18.641-7.479c1.532-.614 2.444-2.238 2.169-3.861zm-13.042-11.51c.138 0 .276.012.415.035 5.953 1.009 10.632 5.688 11.641 11.641.119.702-.073 1.404-.485 1.948-1.45-.556-3.746-1.277-6.46-1.908l.919-3.384c.167-.646-.015-1.313-.486-1.785-.472-.472-1.139-.653-1.789-.486l-3.052.812c-.844-3.465-1.824-5.669-2.175-6.398.425-.303.939-.475 1.472-.475zm.929 7.848 3.08-.819c.299-.076.609.007.828.226.218.219.303.528.227.822l-.93 3.422c-.845-.182-1.724-.353-2.624-.507-.171-1.13-.369-2.179-.581-3.143zm-9.054 14.069c-.496.181-1.018.066-1.392-.309-.375-.374-.49-.894-.315-1.376l7.48-18.642c.043-.108.094-.212.151-.311.837 1.855 3.173 7.827 3.289 16.94l-9.213 3.697zm10.206-4.095c-.041-2.099-.198-4.033-.426-5.79 3.701.65 6.992 1.598 9.026 2.33-.059.029-8.6 3.46-8.6 3.46zm-.491-14.321c0-.552.448-1 1-1s1 .448 1 1-.448 1-1 1-1-.448-1-1zm6 6c0-.552.448-1 1-1s1 .448 1 1-.448 1-1 1-1-.448-1-1z"/></svg>