<svg id="Layer_1" viewBox="0 0 24 24" xmlns="http://www.w3.org/2000/svg" data-name="Layer 1"><path d="m2.5 7h.5v1.5c0 3.032 2.468 5.5 5.5 5.5 2.981 0 5.5-2.519 5.5-5.5v-1.5h.5c.276 0 .5-.224.5-.5s-.224-.5-.5-.5h-.5v-.5c0-2.981-2.519-5.5-5.5-5.5-3.032 0-5.5 2.468-5.5 5.5v.5h-.5c-.276 0-.5.224-.5.5s.224.5.5.5zm6 6c-2.481 0-4.5-2.019-4.5-4.5v-1.5h9v1.5c0 2.439-2.061 4.5-4.5 4.5zm-4.5-7.5c0-2.481 2.019-4.5 4.5-4.5 2.439 0 4.5 2.061 4.5 4.5v.5h-9zm19.854 9.646-2.439-2.439 2.146-2.146c.585-.585.585-1.536 0-2.121s-1.537-.584-2.121 0l-2.146 2.146-2.439-2.439c-.195-.195-.512-.195-.707 0s-.195.512 0 .707l1.646 1.646-6.112 6.112c-.988-.393-2.061-.612-3.181-.612-4.315 0-7.968 3.197-8.497 7.438-.034.273.16.523.435.558.265.035.523-.161.558-.435.467-3.74 3.692-6.562 7.504-6.562s7.037 2.821 7.504 6.562c.033.275.289.47.558.435.274-.034.469-.284.435-.558-.159-1.271-.603-2.446-1.256-3.471l5.76-5.76 1.646 1.646c.195.195.512.195.707 0s.195-.512 0-.707zm-1.708-6c.195-.195.512-.195.707 0s.195.512 0 .707l-2.146 2.146-.707-.707zm-6.999 10c-.693-.845-1.546-1.548-2.509-2.077l5.862-5.862.793.793-3.146 3.146c-.195.195-.195.512 0 .707s.512.195.707 0l3.146-3.146.793.793z"/></svg>