<?xml version="1.0" encoding="UTF-8"?>
<svg xmlns="http://www.w3.org/2000/svg" id="Layer_1" data-name="Layer 1" viewBox="0 0 24 24">
  <path d="m23.925,7.016l-.878,4.393c-.419,2.096-2.275,3.617-4.413,3.617H5.995c.247,1.711,1.732,3,3.462,3h10.017c.276,0,.5.224.5.5s-.224.5-.5.5h-10.017c-2.234,0-4.15-1.668-4.457-3.881L3.219,2.319c-.103-.738-.742-1.294-1.486-1.294H.475C.198,1.025-.025.802-.025.525S.198.025.475.025h1.259C2.974.025,4.039.952,4.209,2.182l.256,1.844h3.009c.276,0,.5.224.5.5s-.224.5-.5.5h-2.87l1.25,9h12.78c1.663,0,3.106-1.183,3.432-2.813l.878-4.393c.088-.442-.025-.896-.311-1.245-.286-.349-.708-.549-1.16-.549h-1c-.276,0-.5-.224-.5-.5s.224-.5.5-.5h1c.752,0,1.457.333,1.933.915s.666,1.338.518,2.075Zm-14.951,15.01c0,1.103-.897,2-2,2s-2-.897-2-2,.897-2,2-2,2,.897,2,2Zm-1,0c0-.551-.449-1-1-1s-1,.449-1,1,.449,1,1,1,1-.449,1-1Zm11,0c0,1.103-.897,2-2,2s-2-.897-2-2,.897-2,2-2,2,.897,2,2Zm-1,0c0-.551-.449-1-1-1s-1,.449-1,1,.449,1,1,1,1-.449,1-1ZM10.475,5.025h6.408c-.075.21-.193.406-.362.576l-1.914,2.086c-.187.203-.173.52.03.707.096.088.217.131.338.131.135,0,.27-.055.368-.162l1.899-2.07c.472-.472.732-1.1.732-1.768s-.26-1.296-.718-1.752l-1.914-2.086c-.186-.204-.504-.218-.706-.031-.204.187-.217.503-.03.707l1.929,2.102c.16.16.275.353.349.561h-6.409c-.276,0-.5.224-.5.5s.224.5.5.5Z"/>
</svg>
