<svg id="Layer_1" viewBox="0 0 24 24" xmlns="http://www.w3.org/2000/svg" data-name="Layer 1"><path d="m22 15.5v4.013c0 2.481-2.019 4.487-4.5 4.487h-11c-2.481 0-4.5-2.006-4.5-4.487v-1.513c0-.276.224-.5.5-.5s.5.224.5.5v1.513c0 1.93 1.57 3.5 3.5 3.5h11c1.93 0 3.5-1.57 3.5-3.5v-4.013c0-.276.224-.5.5-.5s.5.224.5.5zm1.854-1.854c.195.195.195.512 0 .707-.098.098-.226.146-.354.146s-.256-.049-.354-.146l-11.353-11.353h-8.793v11c0 .552.449 1 1 1s1-.448 1-1v-7c0-1.103.897-2 2-2s2 .897 2 2v4c0 .552.449 1 1 1s1-.448 1-1v-5.5c0-.276.224-.5.5-.5s.5.224.5.5v5.5c0 1.103-.897 2-2 2s-2-.897-2-2v-4c0-.552-.449-1-1-1s-1 .448-1 1v7c0 1.103-.897 2-2 2s-2-.897-2-2v-11h-.5c-.827 0-1.5-.673-1.5-1.5s.673-1.5 1.5-1.5h21c.827 0 1.5.673 1.5 1.5s-.673 1.5-1.5 1.5h-.5v5.5c0 .276-.224.5-.5.5s-.5-.224-.5-.5v-5.5h-7.793l10.646 10.646zm-22.354-11.646h21c.276 0 .5-.225.5-.5s-.224-.5-.5-.5h-21c-.276 0-.5.225-.5.5s.224.5.5.5z"/></svg>