<svg id="Layer_1" viewBox="0 0 24 24" xmlns="http://www.w3.org/2000/svg" data-name="Layer 1"><path d="m15.5 17h-14.5v-12.5c0-1.93 1.57-3.5 3.5-3.5h7c.615 0 1.22.162 1.75.468.239.138.545.056.683-.182.139-.239.057-.545-.182-.683-.682-.394-1.459-.603-2.25-.603h-7.001c-2.481 0-4.5 2.019-4.5 4.5v15c0 2.481 2.019 4.5 4.5 4.5h7c2.481 0 4.5-2.019 4.5-4.5v-2c0-.276-.224-.5-.5-.5zm-.5 2.5c0 1.93-1.57 3.5-3.5 3.5h-7c-1.93 0-3.5-1.57-3.5-3.5v-1.5h14zm-9 1c0-.276.224-.5.5-.5h3c.276 0 .5.224.5.5s-.224.5-.5.5h-3c-.276 0-.5-.224-.5-.5zm15-17.5h-6c-.798 0-1.551.313-2.119.881s-.881 1.321-.881 2.12l.002 7.411c0 .589.309 1.109.825 1.392s1.12.262 1.618-.057l2.702-1.747h3.853c1.654 0 3-1.345 3-3v-4c0-1.654-1.346-3-3-3zm2 7c0 1.103-.897 2-2 2h-4c-.096 0-.19.027-.271.08l-2.824 1.826c-.183.117-.408.125-.597.02-.191-.104-.305-.297-.305-.514l-.002-7.411c0-.532.209-1.034.588-1.413s.88-.588 1.412-.588h6c1.103 0 2 .897 2 2v4zm-3.5-5h-3c-1.378 0-2.5 1.122-2.5 2.5v1c0 1.378 1.122 2.5 2.5 2.5h3c1.378 0 2.5-1.122 2.5-2.5v-1c0-1.378-1.122-2.5-2.5-2.5zm-3 1h3c.827 0 1.5.673 1.5 1.5h-6c0-.827.673-1.5 1.5-1.5zm3 4h-3c-.827 0-1.5-.673-1.5-1.5h1.237l1.242.843c.315.21.726.21 1.041 0l1.242-.843h1.237c0 .827-.673 1.5-1.5 1.5z"/></svg>