<?xml version="1.0" encoding="UTF-8"?>
<svg xmlns="http://www.w3.org/2000/svg" id="Layer_1" data-name="Layer 1" viewBox="0 0 24 24">
  <path d="M22.252,22.229c1.08-1.086,1.748-2.58,1.748-4.229,0-3.309-2.691-6-6-6-1.649,0-3.144,.669-4.229,1.749-.004,.004-.009,.005-.013,.009-.004,.004-.005,.009-.009,.013-1.08,1.086-1.748,2.58-1.748,4.229,0,3.309,2.691,6,6,6,1.649,0,3.144-.669,4.229-1.749,.004-.004,.009-.005,.013-.009,.004-.004,.005-.009,.009-.013Zm.748-4.229c0,1.198-.441,2.284-1.146,3.146l-7-7c.862-.706,1.948-1.147,3.147-1.147,2.757,0,5,2.243,5,5Zm-10,0c0-1.198,.441-2.284,1.146-3.146l7,7c-.862,.706-1.948,1.147-3.147,1.147-2.757,0-5-2.243-5-5ZM1.694,7c.658,0,1.246-.448,1.429-1.089,.395-1.384,1.511-2.431,2.881-2.783,.032,.489,.238,.943,.59,1.29,.383,.379,.885,.57,1.431,.576,2.424-.029,4.408-.194,6.067-.502,1.192-.223,2.477-.38,3.714-.457,.287-.017,.443,.243,.486,.322,.535,.998,1.599,1.643,2.708,1.643,.915,0,1.769-.411,2.342-1.127,.573-.715,.785-1.647,.582-2.556C23.618,.947,22.314-.046,20.786,.002c-1.812,.035-4.261,.491-6.854,.973,0,0-1.864,.347-2.654,.484-1.221-.943-2.73-1.459-4.278-1.459C3.847,0,1.069,2.123,.244,5.162c-.117,.43-.026,.883,.25,1.244,.285,.373,.733,.595,1.201,.595ZM14.115,1.958c2.551-.475,4.96-.924,6.69-.957,1.067-.013,1.94,.626,2.144,1.534,.136,.611-.004,1.235-.387,1.712-.383,.478-.952,.752-1.562,.752-.747,0-1.464-.438-1.828-1.116-.285-.53-.793-.85-1.341-.85-.029,0-2.691,.245-3.923,.474-1.602,.298-3.53,.457-5.896,.486-.289-.022-.524-.099-.716-.288-.19-.188-.295-.438-.297-.707h.02c1.19-.046,2.616-.247,4.111-.5,.072,.007,2.984-.541,2.984-.541Zm-7.115-.958c.984,0,1.951,.244,2.811,.7-1.027,.155-1.987,.268-2.811,.3-.127,0-.254,.005-.38,.015-.112-.028-.241-.013-.343,.038-1.933,.282-3.571,1.677-4.115,3.584-.107,.375-.643,.463-.874,.162-.05-.065-.126-.2-.079-.374C1.916,2.819,4.297,1,7,1Zm6.5,5.5c.276,0,.5,.224,.5,.5v3.5c0,.276-.224,.5-.5,.5s-.5-.224-.5-.5v-3.5c0-.276,.224-.5,.5-.5Zm-1.5,17c0,.276-.224,.5-.5,.5H4.5c-2.481,0-4.5-2.019-4.5-4.5v-6c0-2.481,2.019-4.5,4.5-4.5h4.5c.068,0,1.731-.033,1.969-1.576,.042-.273,.296-.46,.57-.418,.273,.042,.46,.297,.418,.57-.296,1.917-2.064,2.424-2.958,2.424H4.5c-1.93,0-3.5,1.57-3.5,3.5v6c0,1.93,1.57,3.5,3.5,3.5h7c.276,0,.5,.224,.5,.5Z"/>
</svg>
