<?xml version="1.0" encoding="UTF-8"?>
<svg xmlns="http://www.w3.org/2000/svg" id="Layer_1" data-name="Layer 1" viewBox="0 0 24 24">
  <path d="m22.171,1.829C20.585.244,17.517-.362,13.959.212c-3.608.582-6.981,2.219-9.255,4.492S.794,10.351.212,13.959c-.573,3.557.031,6.627,1.617,8.212,1.191,1.191,3.221,1.829,5.666,1.829.809,0,1.662-.069,2.546-.212,3.608-.582,6.981-2.219,9.255-4.492s3.91-5.646,4.492-9.255c.573-3.557-.031-6.627-1.617-8.212Zm-8.054-.63c3.196-.512,6.008-.002,7.347,1.337s1.852,4.153,1.337,7.347c-.01.059-.025.117-.035.176L13.941,1.234c.059-.01.117-.026.176-.035Zm-4.234,21.602c-3.195.515-6.007.003-7.347-1.337s-1.852-4.153-1.337-7.347c.01-.059.025-.117.035-.176l8.824,8.824c-.059.01-.117.026-.176.035Zm8.706-4.212c-1.814,1.814-4.496,3.234-7.358,3.935L1.476,12.769c.701-2.862,2.121-5.544,3.935-7.358s4.496-3.234,7.358-3.935l9.754,9.754c-.701,2.862-2.121,5.544-3.935,7.358Zm-1.235-7.942c.195.195.195.512,0,.707-.098.098-.226.146-.354.146s-.256-.049-.354-.146l-1.646-1.646-2.293,2.293,1.646,1.646c.195.195.195.512,0,.707-.098.098-.226.146-.354.146s-.256-.049-.354-.146l-1.646-1.646-2.293,2.293,1.646,1.646c.195.195.195.512,0,.707-.098.098-.226.146-.354.146s-.256-.049-.354-.146l-4-4c-.195-.195-.195-.512,0-.707s.512-.195.707,0l1.646,1.646,2.293-2.293-1.646-1.646c-.195-.195-.195-.512,0-.707s.512-.195.707,0l1.646,1.646,2.293-2.293-1.646-1.646c-.195-.195-.195-.512,0-.707s.512-.195.707,0l4,4Z"/>
</svg>
