<?xml version="1.0" encoding="UTF-8"?>
<svg xmlns="http://www.w3.org/2000/svg" id="Layer_1" data-name="Layer 1" viewBox="0 0 24 24">
  <path d="M23.5,2c-.276,0-.5,.224-.5,.5v1.5H1v-1.5c0-.276-.224-.5-.5-.5s-.5,.224-.5,.5V21.5c0,.276,.224,.5,.5,.5s.5-.224,.5-.5v-7.5H23v7.5c0,.276,.224,.5,.5,.5s.5-.224,.5-.5V2.5c0-.276-.224-.5-.5-.5Zm-.5,4.293l-6.707,6.707h-4.586L19.707,5h3.293v1.293ZM5.707,13L13.707,5h4.586L10.293,13H5.707Zm.586-8L1,10.293V5H6.293ZM1,11.707L7.707,5h4.586L4.293,13H1v-1.293Zm16.707,1.293l5.293-5.293v5.293h-5.293Z"/>
</svg>
