<?xml version="1.0" encoding="UTF-8"?>
<svg xmlns="http://www.w3.org/2000/svg" id="Layer_1" data-name="Layer 1" viewBox="0 0 24 24">
  <path d="M23.83,20.94l-3.613-6.016,2.859-1.528c.555-.297,.898-.873,.898-1.501s-.345-1.204-.9-1.5l-3.011-1.608,2.805-5.061c.229-.453,.154-.985-.192-1.357-.347-.371-.872-.484-1.354-.28l-5.353,2.443-1.938-3.631c-.297-.556-.872-.901-1.502-.901h0c-.63,0-1.205,.346-1.501,.902l-1.858,3.49L3.09,1.171c-.568-.303-1.248-.193-1.692,.272s-.523,1.15-.179,1.728l3.786,5.622L.788,10.739c-.498,.245-.8,.742-.788,1.297s.334,1.039,.854,1.268l4.121,1.701-2.145,4.213c-.204,.556-.073,1.164,.341,1.586,.414,.422,1.019,.565,1.593,.368l4.438-1.677,1.929,3.603c.298,.558,.874,.902,1.505,.902h.015c.637-.006,1.214-.362,1.505-.93l1.798-3.515,6.024,3.296c.551,.271,1.181,.166,1.611-.268,.43-.432,.531-1.064,.24-1.644Zm-.949,.938c-.047,.047-.221,.194-.44,.086l-6.457-3.533c-.118-.066-.257-.079-.388-.04-.129,.04-.236,.13-.298,.25l-2.032,3.972c-.122,.239-.355,.383-.624,.385-.276,.033-.503-.137-.63-.374l-2.136-3.99c-.089-.167-.261-.264-.441-.264-.059,0-.119,.01-.177,.032l-4.834,1.827c-.192,.067-.396,.019-.539-.128s-.187-.349-.141-.487l2.366-4.641c.063-.125,.072-.27,.024-.4-.049-.131-.149-.236-.278-.289l-4.61-1.902c-.218-.096-.245-.29-.247-.369s.018-.274,.219-.374l4.738-2.186c.133-.062,.232-.178,.272-.319s.015-.292-.067-.414L2.063,2.637c-.15-.253,.006-.449,.058-.503,.052-.053,.241-.218,.5-.08l6.521,3.455c.242,.129,.546,.037,.675-.207l2.092-3.93c.124-.233,.355-.372,.619-.372h0c.264,0,.495,.139,.619,.372l2.159,4.045c.125,.233,.41,.326,.649,.22l5.768-2.632c.107-.048,.186,.009,.22,.047,.035,.038,.086,.116,.04,.207l-3.042,5.488c-.064,.117-.08,.255-.042,.384s.126,.236,.244,.299l3.459,1.847c.232,.124,.371,.355,.371,.619s-.139,.495-.37,.619l-3.322,1.776c-.121,.064-.21,.176-.247,.308-.036,.132-.017,.273,.054,.391l3.865,6.432c.118,.237-.026,.41-.073,.458Z"/>
</svg>
