<?xml version="1.0" encoding="UTF-8"?>
<svg xmlns="http://www.w3.org/2000/svg" id="Layer_1" data-name="Layer 1" viewBox="0 0 24 24">
  <path d="m23.916,16.86l-.862-3.256c-.406-1.533-1.798-2.604-3.384-2.604H4.33c-1.586,0-2.978,1.071-3.383,2.604l-.862,3.256c-.2.756-.042,1.545.436,2.164.477.62,1.199.976,1.981.976h8.999v3h-5c-.276,0-.5.224-.5.5s.224.5.5.5h11c.276,0,.5-.224.5-.5s-.224-.5-.5-.5h-5v-3h8.999c.782,0,1.504-.355,1.981-.976.477-.619.636-1.408.436-2.164Zm-1.829-3l.302,1.14h-5.947l-.375-3h3.604c1.133,0,2.127.765,2.417,1.86Zm-14.021,5.14l.375-3h7.117l.375,3h-7.867Zm.5-4l.375-3h6.117l.375,3h-6.867Zm-6.653-1.14c.29-1.096,1.283-1.86,2.417-1.86h3.604l-.375,3H1.611l.302-1.14Zm-.601,4.555c-.286-.372-.381-.846-.261-1.299l.295-1.116h6.087l-.375,3H2.501c-.469,0-.902-.213-1.188-.585Zm21.375,0c-.286.372-.719.585-1.188.585h-4.558l-.375-3h6.087l.296,1.116c.12.453.024.927-.262,1.299ZM4,8.5c0-.276.224-.5.5-.5h2.5c0-1.198.441-2.284,1.146-3.146l-2-2c-.195-.195-.195-.512,0-.707s.512-.195.707,0l2,2c.739-.605,1.646-.995,2.647-1.096V.5c0-.276.224-.5.5-.5s.5.224.5.5v2.551c1.001.101,1.908.491,2.646,1.096l2-2c.195-.195.512-.195.707,0s.195.512,0,.707l-2,2c.705.862,1.146,1.948,1.146,3.146h2.5c.276,0,.5.224.5.5s-.224.5-.5.5h-2.5c-.649,0-1-.516-1-1,0-2.206-1.794-4-4-4s-4,1.794-4,4c0,.484-.351,1-1,1h-2.5c-.276,0-.5-.224-.5-.5Z"/>
</svg>
