<svg id="Layer_1" viewBox="0 0 24 24" xmlns="http://www.w3.org/2000/svg" data-name="Layer 1"><path d="m17.5 0h-11c-2.481 0-4.5 2.019-4.5 4.5v16c0 1.93 1.57 3.5 3.5 3.5h12c2.481 0 4.5-2.019 4.5-4.5v-15c0-2.481-2.019-4.5-4.5-4.5zm-14.5 4.5c0-1.93 1.57-3.5 3.5-3.5h11c1.93 0 3.5 1.57 3.5 3.5v12.5h-15.5c-.98 0-1.864.407-2.5 1.058zm14.5 18.5h-12c-1.378 0-2.5-1.121-2.5-2.5s1.122-2.5 2.5-2.5h15.5v1.5c0 1.93-1.57 3.5-3.5 3.5zm-7.163-9.133c.458.448 1.061.673 1.663.673s1.205-.225 1.664-.673l1.872-1.832c.944-.944 1.465-2.199 1.465-3.535s-.521-2.591-1.465-3.535c-.943-.944-2.199-1.465-3.535-1.465s-2.591.521-3.536 1.465-1.464 2.199-1.464 3.535.52 2.591 1.468 3.539l1.869 1.828zm-1.166-8.195c.756-.756 1.76-1.172 2.829-1.172s2.073.416 2.828 1.172c.756.756 1.172 1.76 1.172 2.828s-.416 2.072-1.168 2.824l-1.868 1.828c-.531.52-1.396.52-1.928 0l-1.865-1.824c-.755-.755-1.171-1.76-1.171-2.828s.416-2.073 1.171-2.828zm2.829 4.828c1.103 0 2-.897 2-2s-.897-2-2-2-2 .897-2 2 .897 2 2 2zm0-3c.551 0 1 .448 1 1s-.449 1-1 1-1-.448-1-1 .449-1 1-1z"/></svg>