<svg id="Layer_1" viewBox="0 0 24 24" xmlns="http://www.w3.org/2000/svg" data-name="Layer 1"><path d="m19.5 6h-1c-.276 0-.5.224-.5.5s.224.5.5.5h1c1.084 0 2.043.506 2.686 1.283l-7.691 7.691c-.662.662-1.54 1.025-2.479 1.025h-.017c-.98-.008-1.826-.36-2.492-1.025l-7.693-7.691c.643-.777 1.601-1.283 2.686-1.283h10.962c.408.707.601 1.539.52 2.395-.193 2.021-2.027 3.605-4.175 3.605h-.307c-.276 0-.5.224-.5.5s.224.5.5.5h.307c2.658 0 4.929-1.981 5.17-4.51.205-2.146-.975-4.178-2.935-5.056-.951-.426-1.542-1.279-1.542-2.226v-1.708c0-.276-.224-.5-.5-.5s-.5.224-.5.5v1.709c0 1.347.817 2.549 2.133 3.138.375.168.711.391 1.008.653h-6.641v-.5c0-.276-.224-.5-.5-.5s-.5.224-.5.5v.5h-2.5c-2.481 0-4.5 2.019-4.5 4.5v9c0 2.481 2.019 4.5 4.5 4.5h15c2.481 0 4.5-2.019 4.5-4.5v-9c0-2.481-2.019-4.5-4.5-4.5zm3.5 13.5c0 1.93-1.57 3.5-3.5 3.5h-15c-1.93 0-3.5-1.57-3.5-3.5v-9c0-.477.097-.931.271-1.346l7.528 7.528c1.688 1.753 4.717 1.75 6.402 0l7.528-7.528c.174.415.271.869.271 1.346z"/></svg>