<?xml version="1.0" encoding="UTF-8"?>
<svg xmlns="http://www.w3.org/2000/svg" id="Layer_1" data-name="Layer 1" viewBox="0 0 24 24">
  <path d="M20.5,5c1.378,0,2.5-1.122,2.5-2.5s-1.122-2.5-2.5-2.5-2.5,1.122-2.5,2.5,1.122,2.5,2.5,2.5Zm0-4c.827,0,1.5,.673,1.5,1.5s-.673,1.5-1.5,1.5-1.5-.673-1.5-1.5,.673-1.5,1.5-1.5Zm3.217,12.4l-3.283-1.953,1.411-2.646c.258-.79,.19-1.514-.192-2.041-.356-.491-.945-.762-1.659-.762h-.354c-1.173,0-2.314,.335-3.31,.975l-6.109,4.11c-.229,.154-.29,.465-.136,.694,.154,.228,.463,.29,.694,.136l6.101-4.104c.17-.109,.348-.201,.528-.288l-3.195,6.174c-.47,1.066-.149,2.302,.833,3.038l4.709,2.711c.226,.138,.304,.429,.178,.665l-1.682,3.168c-.129,.244-.037,.546,.208,.676,.075,.04,.155,.059,.234,.059,.179,0,.353-.096,.442-.266l1.681-3.167c.375-.699,.14-1.572-.549-1.995l-2.785-1.6,2.482-4.654,3.242,1.929c.081,.048,.168,.07,.255,.07,.17,0,.337-.087,.43-.244,.141-.238,.063-.544-.174-.686Zm-8.121,2.502c-.558-.421-.75-1.163-.482-1.774l3.646-7.043c.29-.051,.583-.085,.88-.085h.354c.385,0,.687,.124,.85,.349,.189,.26,.207,.666,.085,1.062l-4.316,8.076-1.017-.585Zm-7.103-2.524c.495-.736,.64-2.01,.378-3.329-.069-.346-.271-.643-.567-.836-.298-.194-.652-.26-.997-.183l-1.768,.386s0,0-.002,0c-.404,.09-.745,.37-.913,.749-.168,.381-.146,.805,.06,1.165,.427,.745,.904,1.512,1.45,2.033-2.735,1.274-6.134,5.676-6.134,7.917,0,.852,.219,1.483,.669,1.93,.815,.809,2.169,.8,3.74,.786,.534-.006,1.205,.001,1.735,.003,1.333,0,2.47-.077,3.187-.789,.45-.447,.669-1.078,.669-1.93,0-4.479-.474-7.009-1.507-7.902Zm-2.942-2.544c-.063-.111-.035-.213-.013-.264,.019-.043,.078-.146,.214-.177l1.769-.386c.08-.018,.164-.003,.236,.043,.04,.026,.111,.087,.133,.193,.237,1.198,.056,2.159-.228,2.58-.045,.066-.132,.176-.212,.176-.659,0-1.528-1.518-1.899-2.166Zm3.075,11.667c-.519,.515-1.684,.508-3.027,.496-.298-.003-.9-.003-1.198,0-1.346,.01-2.508,.019-3.027-.496-.251-.25-.374-.649-.374-1.221,0-2.116,4.265-7.281,6.5-7.281,.352,0,1.5,.525,1.5,7.281,0,.572-.122,.971-.374,1.221Zm6.176-3.802l-2.615,5.019c-.089,.171-.263,.269-.444,.269-.078,0-.157-.018-.23-.057-.245-.127-.34-.43-.212-.674l2.615-5.019c.126-.245,.427-.341,.674-.212,.245,.127,.34,.43,.212,.674Z"/>
</svg>
