<?xml version="1.0" encoding="UTF-8"?>
<svg xmlns="http://www.w3.org/2000/svg" id="Layer_1" data-name="Layer 1" viewBox="0 0 24 24">
  <path d="M21,14c1.654,0,3-1.346,3-3,0-1.506-1.115-2.756-2.615-2.964C20.674,3.426,16.711,0,12,0,5.076,0,3.124,5.39,1.832,8.956c-.534,1.476-.996,2.751-1.594,3.118-.413,.236-.243,.913,.232,.925,.216,.016,3.689,.156,7.581-2.254-.023,.083-.051,.165-.051,.255,0,.552,.448,1,1,1s1-.448,1-1c0-.512-.389-.917-.885-.977,1.642-1.206,3.312-2.881,4.808-5.257,.147-.234,.077-.542-.156-.69-.233-.145-.542-.077-.689,.157C9.178,10.425,3.93,11.691,1.655,11.942c.405-.679,.736-1.595,1.117-2.646C4.041,5.795,5.778,1,12,1c4.341,0,7.972,3.25,8.445,7.561,.029,.258,.31,.456,.555,.439,1.103,0,2,.897,2,2s-.897,2-2,2h-.941c-.211,0-.399,.132-.471,.331-.293,.814-.782,1.635-1.407,2.395-.766-.324-1.453-.706-2.059-1.165-.957-.724-1.848-1.061-2.803-1.061-.601,0-1.039,.179-1.319,.346-.28-.167-.719-.346-1.319-.346-.955,0-1.846,.337-2.803,1.062-.604,.457-1.289,.839-2.053,1.162-.385-.468-.729-.954-.996-1.458-.13-.244-.434-.336-.676-.208-.244,.129-.337,.432-.207,.676,.249,.468,.56,.919,.898,1.359-.36,.117-.732,.224-1.127,.318-.992,.209-.916,1.728-.043,2.049,1.045,.479,1.811,1.006,4.325,1.04v4c0,.276,.224,.5,.5,.5s.5-.224,.5-.5v-4.12c.029-.007,.059-.011,.088-.018,1.856,.866,3.967,.866,5.823,0,.029,.007,.059,.011,.088,.018v4.12c0,.276,.224,.5,.5,.5s.5-.224,.5-.5v-4c2.516-.034,3.279-.562,4.325-1.04,.873-.322,.949-1.84-.043-2.049-.39-.093-.758-.2-1.113-.314,.516-.671,.937-1.381,1.233-2.097h.599Zm-10.561,4.792c.54-.322,1.037-.741,1.453-1.251,.074-.091,.143-.091,.217,0,.416,.511,.913,.929,1.453,1.251-1.045,.267-2.078,.267-3.123,0Zm9.496-1.252c-1.043,.47-1.624,.927-3.935,.96-1.141,0-2.306-.595-3.116-1.591-.434-.559-1.334-.559-1.768,0-.811,.996-1.976,1.591-3.116,1.591-1.979,0-2.93-.471-3.56-.783-.189-.104-.428-.156-.49-.333,1.632-.405,3.243-1.054,4.531-2.025,.785-.594,1.463-.859,2.199-.859,.633,0,.947,.305,.954,.311,.184,.204,.539,.2,.724,.006,.014-.013,.328-.317,.961-.317,.736,0,1.414,.265,2.199,.858,1.216,.921,2.687,1.581,4.496,2.017,.002,.052-.026,.142-.08,.165Zm-4.935-5.54c-.552,0-1-.448-1-1s.448-1,1-1,1,.448,1,1-.448,1-1,1Z"/>
</svg>
