<svg id="Layer_1" viewBox="0 0 24 24" xmlns="http://www.w3.org/2000/svg" data-name="Layer 1"><path d="m19.5 5.999h-1c-1.378 0-2.5 1.121-2.5 2.5v6.5h-13v-4.763l2.05 1.6c.961.75 2.163 1.163 3.383 1.163h2.455c1.143 0 2.17-.635 2.682-1.656l.908-1.812c.513-1.022.405-2.227-.28-3.142l-1.473-1.968c-.729-.974-1.777-1.687-2.951-2.009l-4.782-1.309c-1.357-.369-2.802.271-3.432 1.531l-1.246 2.487c-.63 1.258-.282 2.799.827 3.664l.859.671v5.543c-1.103 0-2 .897-2 2s.897 2 2 2h.18c-.116.32-.18.656-.18 1 0 1.654 1.346 3 3 3s3-1.346 3-3c0-.344-.064-.68-.18-1h8.359c-.116.32-.18.656-.18 1 0 1.654 1.346 3 3 3s3-1.346 3-3c0-.356-.07-.702-.193-1.031 1.233-.153 2.193-1.195 2.193-2.469v-6c0-2.481-2.019-4.5-4.5-4.5zm-8.836-2.107c.484.297.919.673 1.261 1.13l1.473 1.968c.457.61.528 1.412.187 2.095l-.908 1.812c-.341.681-1.026 1.104-1.788 1.104h-2.455c-.573 0-1.137-.123-1.665-.334l3.895-7.773zm-8.908 4.104c-.735-.573-.965-1.594-.548-2.428l1.246-2.485c.417-.839 1.391-1.26 2.274-1.014 0 0 4.946 1.371 5.03 1.399l-3.87 7.723c-.073-.05-4.132-3.196-4.132-3.196zm3.244 14.003c-1.103 0-2-.897-2-2 0-.354.119-.691.304-1h3.392c.185.309.304.646.304 1 0 1.103-.897 2-2 2zm11-4h-14c-.551 0-1-.448-1-1s.449-1 1-1h14zm3 4c-1.103 0-2-.897-2-2 0-.354.119-.691.304-1h3.392c.185.309.304.646.304 1 0 1.103-.897 2-2 2zm4-5.5c0 .827-.673 1.5-1.5 1.5h-4.5v-5h6zm0-4.5h-6v-3.5c0-.827.673-1.5 1.5-1.5h1c1.93 0 3.5 1.57 3.5 3.5z"/></svg>