<svg id="Layer_1" viewBox="0 0 24 24" xmlns="http://www.w3.org/2000/svg" data-name="Layer 1"><path d="m19.777 3.208c-2.077-2.068-4.839-3.208-7.777-3.208s-5.7 1.14-7.777 3.208c-2.079 2.069-3.223 4.82-3.223 7.747s1.144 5.677 3.237 7.76l4.151 3.819c.971.945 2.253 1.466 3.611 1.466s2.641-.521 3.602-1.456l4.176-3.843c2.079-2.069 3.223-4.82 3.223-7.746s-1.145-5.678-3.223-7.747zm-.691 14.771-4.172 3.839c-1.566 1.525-4.251 1.536-5.839-.01l-4.147-3.815c-1.888-1.88-2.928-4.379-2.928-7.037s1.04-5.158 2.928-7.038c1.888-1.881 4.4-2.917 7.072-2.917s5.183 1.036 7.071 2.917c1.888 1.88 2.928 4.379 2.928 7.038s-1.04 5.157-2.914 7.023zm-3.301-12.352-3-.995c-.506-.168-1.064-.168-1.573 0l-3 .995c-1.025.34-1.713 1.294-1.713 2.373v3.413c0 3.618 3.869 5.83 5.053 6.422 0 0 .298.165.448.165s.418-.13.418-.13c1.191-.479 5.08-2.359 5.08-6.457v-3.413c0-1.079-.688-2.033-1.713-2.373zm.714 5.786c-.008 3.489-3.41 5.107-4.476 5.539-1.075-.539-4.516-2.477-4.524-5.539v-3.413c0-.647.413-1.22 1.028-1.424l3-.995c.305-.1.64-.1.945 0l3 .995c.615.204 1.028.776 1.028 1.424v3.413zm-1.14-2.27c.192.198.187.515-.012.707l-2.703 2.614c-.36.355-.835.533-1.311.533s-.949-.177-1.312-.531l-1.364-1.347c-.197-.193-.199-.51-.005-.707.194-.195.512-.199.707-.004l1.363 1.345c.337.329.886.327 1.223-.004l2.706-2.618c.2-.191.515-.187.707.012z"/></svg>