<svg id="Layer_1" viewBox="0 0 24 24" xmlns="http://www.w3.org/2000/svg" data-name="Layer 1"><path d="m23.122 13.878c-.752-.754-2.178-1.045-3.815-.782-1.626.262-3.149 1.003-4.179 2.032-2.16 2.16-2.825 6.419-1.25 7.994.571.571 1.528.877 2.671.877.365 0 .749-.031 1.145-.095 1.626-.262 3.149-1.003 4.179-2.032 2.159-2.16 2.825-6.419 1.25-7.994zm-1.957 7.287c-.871.871-2.229 1.526-3.631 1.752-1.299.208-2.43.017-2.949-.502-1.101-1.101-.64-4.689 1.25-6.58.871-.871 2.229-1.526 3.631-1.752.348-.056.683-.083.998-.083.863 0 1.571.205 1.951.585 1.1 1.101.64 4.689-1.25 6.58zm.188-5.519c.195.195.195.512 0 .707l-1.146 1.146.646.646c.195.195.195.512 0 .707s-.512.195-.707 0l-.646-.646-1.293 1.293.646.646c.195.195.195.512 0 .707s-.512.195-.707 0l-.646-.646-1.146 1.146c-.195.195-.512.195-.707 0s-.195-.512 0-.707l1.146-1.146-.646-.646c-.195-.195-.195-.512 0-.707s.512-.195.707 0l.646.646 1.293-1.293-.646-.646c-.195-.195-.195-.512 0-.707s.512-.195.707 0l.646.646 1.146-1.146c.195-.195.512-.195.707 0zm-9.354-.646c-.034.007-10.505-.013-10.534.007-.075-.552-.178-1.037-.207-1.514-.154-1.58.126-2.74.858-3.547 1.237-1.364 3.894-1.946 8.882-1.946 6.05 0 9.146.837 10.037 2.715.103.215.342.326.573.271.231-.059.389-.271.378-.509-.274-5.875-5.1-10.477-10.986-10.477-6.065 0-11 4.935-11 11 0 1.45.677 5.549 1.246 8.732.312 1.749 1.619 3.149 3.33 3.567 1.321.323 3.927.7 6.925.7.276 0 .5-.224.5-.5s-.224-.5-.5-.5c-.907 0-1.767-.038-2.571-.096l-.488-3.904h2.059c.276 0 .5-.224.5-.5s-.224-.5-.5-.5h-2.184l-.25-2h3.934c.276 0 .5-.224.5-.5s-.224-.5-.5-.5zm-2.995-7.964.006-.53c-.009-.271.229-.512.5-.506h3c.272 0 .497.222.5.482l-.006.553c-.667-.022-1.338-.036-2.005-.036-.71 0-1.372.012-1.995.036zm1.995-6.036c4.786 0 8.801 3.347 9.775 7.874-1.538-1.187-4.061-1.637-6.77-1.795l.007-.597c-.009-.817-.683-1.482-1.5-1.482h-3c-.806-.02-1.526.706-1.5 1.506l-.007.582c-3.462.226-5.464.904-6.628 2.186-.101.11-.195.226-.282.346.675-4.863 4.86-8.62 9.906-8.62zm-3.089 21.817c-1.314-.133-2.4-.317-3.098-.488-1.326-.325-2.34-1.413-2.583-2.772-.035-.194-.064-.368-.097-.557h5.302l.477 3.817zm-.602-4.817c-.072.008-5.286-.016-5.35.008-.124-.717-.235-1.385-.336-2.008h5.437l.25 2z"/></svg>