<?xml version="1.0" encoding="UTF-8"?>
<svg xmlns="http://www.w3.org/2000/svg" id="Layer_1" data-name="Layer 1" viewBox="0 0 24 24">
  <path d="m9.728,14.518c.38.32.845.482,1.309.482.334,0,.668-.084.971-.255l10.957-5.447c.648-.376,1.036-1.049,1.036-1.799s-.388-1.423-1.064-1.814L12.03.267c-.745-.42-1.649-.334-2.302.216-.653.549-.892,1.424-.591,2.269l2.148,4.749-2.164,4.788c-.285.806-.046,1.681.607,2.229Zm.32-1.856l1.9-4.2,6.749-.591c.404-.081.404-.659,0-.74l-6.75-.591-1.884-4.161c-.175-.495.044-.909.308-1.131.163-.136.393-.243.659-.243.167,0,.347.042.532.146l10.9,5.415c.337.195.538.544.538.934s-.201.738-.51.919l-10.951,5.444c-.458.255-.904.111-1.168-.109-.264-.222-.483-.636-.324-1.092Zm-.047,10.839c0,.276-.224.5-.5.5h-3c-.276,0-.5-.224-.5-.5s.224-.5.5-.5h3c.276,0,.5.224.5.5Zm14-3c0,1.93-1.57,3.5-3.5,3.5h-8c-.276,0-.5-.224-.5-.5s.224-.5.5-.5h8c1.379,0,2.5-1.121,2.5-2.5s-1.121-2.5-2.5-2.5H5.5c-3.033,0-5.5-2.468-5.5-5.5s2.467-5.5,5.5-5.5h3c.276,0,.5.224.5.5s-.224.5-.5.5h-3c-2.481,0-4.5,2.019-4.5,4.5s2.019,4.5,4.5,4.5h15c1.93,0,3.5,1.57,3.5,3.5Zm-20,3c0,.276-.224.5-.5.5H.5c-.276,0-.5-.224-.5-.5s.224-.5.5-.5h3c.276,0,.5.224.5.5Z"/>
</svg>
