<?xml version="1.0" encoding="UTF-8"?>
<svg xmlns="http://www.w3.org/2000/svg" id="Layer_1" data-name="Layer 1" viewBox="0 0 24 24">
  <path d="m17.657,7.05c-.098.098-.226.146-.354.146s-.256-.049-.354-.146c-1.322-1.322-3.08-2.05-4.95-2.05s-3.627.728-4.95,2.05c-.195.195-.512.195-.707,0s-.195-.512,0-.707c1.511-1.511,3.52-2.343,5.657-2.343s4.146.832,5.657,2.343c.195.195.195.512,0,.707Zm-11.313,9.9c-.195.195-.195.512,0,.707,1.56,1.56,3.608,2.34,5.657,2.34s4.097-.78,5.657-2.34c.195-.195.195-.512,0-.707s-.512-.195-.707,0c-2.729,2.729-7.17,2.729-9.899,0-.195-.195-.512-.195-.707,0Zm5.657-.95c-2.206,0-4-1.794-4-4s1.794-4,4-4,4,1.794,4,4-1.794,4-4,4Zm0-1c1.654,0,3-1.346,3-3s-1.346-3-3-3-3,1.346-3,3,1.346,3,3,3ZM4.222,4.222C8.511-.066,15.489-.066,19.778,4.222c.098.098.226.146.354.146s.256-.049.354-.146c.195-.195.195-.512,0-.707C15.807-1.164,8.193-1.164,3.515,3.515c-.195.195-.195.512,0,.707s.512.195.707,0Zm15.557,15.557c-4.289,4.289-11.268,4.289-15.557,0-.195-.195-.512-.195-.707,0s-.195.512,0,.707c2.339,2.34,5.413,3.509,8.485,3.509s6.146-1.169,8.485-3.509c.195-.195.195-.512,0-.707s-.512-.195-.707,0Zm-15.778-4.278v-7c0-.276-.224-.5-.5-.5s-.5.224-.5.5v7c0,.276.224.5.5.5s.5-.224.5-.5Zm18.5-7.5h-4c-.276,0-.5.224-.5.5s.224.5.5.5h1.5v6.5c0,.276.224.5.5.5s.5-.224.5-.5v-6.5h1.5c.276,0,.5-.224.5-.5s-.224-.5-.5-.5Z"/>
</svg>
