<?xml version="1.0" encoding="UTF-8"?>
<svg xmlns="http://www.w3.org/2000/svg" id="Layer_1" data-name="Layer 1" viewBox="0 0 24 24">
  <path d="m23.96,20.363c-.613-3.909-1.411-8.831-1.728-10.08-.643-2.536-2.299-4.049-4.662-4.259-.28-.013-.518.179-.542.454-.024.274.179.518.454.542,1.935.172,3.243,1.386,3.781,3.509.087.342.222,1.028.399,2.018l-1.94,1.293c-.23.153-.292.464-.139.693.096.145.255.223.417.223.095,0,.191-.027.277-.084l1.574-1.049c.294,1.712.673,4.037,1.121,6.894.096.613-.082,1.238-.488,1.713-.418.489-1.032.77-1.683.77h-2.684c.04-.042.089-.075.127-.119.597-.697.858-1.615.717-2.518-.613-3.909-1.411-8.831-1.728-10.08-.69-2.722-2.598-4.283-5.234-4.283s-4.544,1.562-5.234,4.283c-.317,1.249-1.115,6.171-1.728,10.08-.141.902.12,1.82.717,2.518.038.045.086.077.127.119h-2.683c-.651,0-1.265-.28-1.683-.77-.406-.475-.584-1.1-.488-1.713.448-2.857.826-5.182,1.121-6.894l1.574,1.049c.085.057.182.084.277.084.162,0,.32-.078.417-.223.153-.229.091-.54-.139-.693l-1.94-1.293c.177-.991.313-1.678.399-2.018.538-2.123,1.846-3.337,3.781-3.509.275-.024.478-.268.454-.542-.024-.275-.254-.466-.542-.454-2.363.21-4.019,1.723-4.661,4.259-.316,1.245-1.114,6.169-1.728,10.08-.142.902.12,1.819.716,2.518.609.711,1.499,1.119,2.443,1.119h17.604c.944,0,1.834-.408,2.442-1.119.597-.697.858-1.615.717-2.518ZM11.999,7c2.205,0,3.68,1.221,4.265,3.529.087.342.222,1.028.399,2.018l-1.663,1.109v-2.645c0-.416-.228-.797-.595-.993-.366-.195-.809-.175-1.155.057l-1.25.833-1.25-.833c-.345-.23-.788-.252-1.155-.057-.367.196-.595.577-.595.993v2.647l-1.666-1.111c.177-.99.313-1.677.4-2.018.585-2.309,2.06-3.529,4.265-3.529Zm2.001,7.323l-1.1.734c-.548.365-1.255.365-1.803,0l-1.097-.731v-3.314c0-.062.036-.095.066-.111.031-.015.078-.028.129.007l1.527,1.018c.168.111.387.111.555,0l1.527-1.018c.051-.036.098-.022.129-.007.03.017.066.049.066.111v3.311Zm-5.805,8.677c-.651,0-1.264-.28-1.683-.77-.407-.475-.584-1.1-.488-1.713.448-2.857.826-5.182,1.121-6.894l3.397,2.265c.442.295.949.442,1.456.442s1.014-.147,1.457-.442l3.397-2.265c.294,1.712.673,4.037,1.121,6.894.096.613-.082,1.238-.488,1.713-.418.489-1.032.77-1.683.77h-7.606Zm3.805-18c1.378,0,2.5-1.121,2.5-2.5s-1.122-2.5-2.5-2.5-2.5,1.121-2.5,2.5,1.122,2.5,2.5,2.5Zm0-4c.827,0,1.5.673,1.5,1.5,0,.47-.222.885-.561,1.16-.129-.402-.494-.698-.939-.698s-.81.296-.939.698c-.339-.275-.561-.69-.561-1.16,0-.827.673-1.5,1.5-1.5Zm6,4c1.378,0,2.5-1.121,2.5-2.5s-1.122-2.5-2.5-2.5-2.5,1.121-2.5,2.5,1.122,2.5,2.5,2.5Zm0-4c.827,0,1.5.673,1.5,1.5,0,.47-.222.885-.561,1.16-.129-.402-.494-.698-.939-.698s-.81.296-.939.698c-.339-.275-.561-.69-.561-1.16,0-.827.673-1.5,1.5-1.5ZM6,5c1.378,0,2.5-1.121,2.5-2.5S7.378,0,6,0s-2.5,1.121-2.5,2.5,1.122,2.5,2.5,2.5Zm0-4c.827,0,1.5.673,1.5,1.5,0,.47-.222.885-.561,1.16-.129-.402-.494-.698-.939-.698s-.81.296-.939.698c-.339-.275-.561-.69-.561-1.16,0-.827.673-1.5,1.5-1.5Z"/>
</svg>
