<svg id="Layer_1" viewBox="0 0 24 24" xmlns="http://www.w3.org/2000/svg" data-name="Layer 1"><path d="m22.953 15.791c-.278.598-.613 1.168-.996 1.696-.626.863-.958 1.808-.958 2.733v1.28c0 1.472-1.028 2.5-2.5 2.5h-7.999c-1.378 0-2.5-1.122-2.5-2.5v-.5h-.987c-2.112 0-3.964-1.5-4.402-3.566l-.516-2.434h-.549c-1.134 0-1.545-.87-1.545-1.455 0-1.282 2.851-7.445 4.237-9.159 2.176-2.907 5.657-4.544 9.286-4.373.276.013.489.248.476.523-.013.276-.243.501-.523.476-3.306-.162-6.461 1.333-8.45 3.989-1.42 1.755-4.027 7.679-4.027 8.544.007.203.107.455.545.455h.957c.236 0 .438.165.487.396l.6 2.83c.341 1.607 1.781 2.773 3.424 2.773h1.487c.276 0 .5.224.5.5v1c0 .827.673 1.5 1.5 1.5h8c.692 0 1.5-.393 1.5-1.5v-1.28c0-1.137.397-2.285 1.148-3.32.345-.476.647-.99.899-1.53.116-.25.413-.358.664-.242.25.116.359.414.242.664zm-1.246-5.791 2.146-2.146c.195-.195.195-.512 0-.707s-.512-.195-.707 0l-2.146 2.146-2.146-2.146c-.195-.195-.512-.195-.707 0s-.195.512 0 .707l2.146 2.146-2.146 2.146c-.195.195-.195.512 0 .707s.512.195.707 0l2.146-2.146 2.146 2.146c.195.195.512.195.707 0s.195-.512 0-.707zm-8.207 1c-.552 0-1 .448-1 1s.448 1 1 1 1-.448 1-1-.448-1-1-1zm-2.5-4.5c0 .276.224.5.5.5s.5-.224.5-.5c0-.827.673-1.5 1.5-1.5s1.5.673 1.5 1.5c0 .541-.292 1.042-.764 1.307-.578.327-1.002.901-1.164 1.577-.078.309.169.62.487.616.226 0 .431-.154.486-.384.097-.406.346-.748.682-.938.785-.442 1.272-1.277 1.272-2.178 0-1.378-1.122-2.5-2.5-2.5s-2.5 1.122-2.5 2.5zm6.03-2.217c.462.462 1.077.717 1.731.717s1.269-.255 1.731-.717l2.895-2.895c.195-.195.195-.512 0-.707s-.512-.195-.707 0l-2.895 2.895c-.548.549-1.502.548-2.049 0l-1.406-1.406c-.195-.195-.512-.195-.707 0s-.195.512 0 .707l1.406 1.406z"/></svg>