<svg id="Layer_1" viewBox="0 0 24 24" xmlns="http://www.w3.org/2000/svg" data-name="Layer 1"><path d="m23.5 16h-1.063l-.416-3.1c-.3-2.223-2.217-3.9-4.46-3.9h-11.122c-2.243 0-4.16 1.677-4.46 3.9l-.416 3.1h-1.063c-.276 0-.5.224-.5.5s.224.5.5.5h1.063l.416 3.1c.3 2.223 2.217 3.9 4.46 3.9h11.121c2.243 0 4.16-1.677 4.46-3.9l.416-3.1h1.063c.276 0 .5-.224.5-.5s-.224-.5-.5-.5zm-20.53-2.966c.233-1.729 1.725-3.034 3.47-3.034h11.121c1.745 0 3.236 1.304 3.47 3.033l.398 2.967h-18.858l.398-2.966zm10.89 3.966-.155.621c-.056.223-.255.379-.485.379h-2.438c-.23 0-.43-.156-.485-.378l-.155-.622h3.719zm3.701 6h-11.122c-1.745 0-3.236-1.304-3.47-3.033l-.398-2.967h6.538l.216.864c.168.668.767 1.136 1.456 1.136h2.438c.689 0 1.288-.467 1.456-1.136l.216-.864h6.538l-.398 2.966c-.233 1.729-1.725 3.034-3.47 3.034zm-10.061-16c1.758 0 3.204-1.308 3.449-3h10.551c.276 0 .5-.224.5-.5s-.224-.5-.5-.5h-10.551c-.245-1.692-1.691-3-3.449-3-1.883 0-5.5 1.478-5.5 3.5s3.617 3.5 5.5 3.5zm0-6c1.379 0 2.5 1.122 2.5 2.5s-1.121 2.5-2.5 2.5c-1.573 0-4.5-1.285-4.5-2.5s2.927-2.5 4.5-2.5z"/></svg>