<svg id="Layer_1" viewBox="0 0 24 24" xmlns="http://www.w3.org/2000/svg" data-name="Layer 1"><path d="m16 11c0 .276-.224.5-.5.5h-2v2c0 .276-.224.5-.5.5s-.5-.224-.5-.5v-2h-2c-.276 0-.5-.224-.5-.5s.224-.5.5-.5h2v-2c0-.276.224-.5.5-.5s.5.224.5.5v2h2c.276 0 .5.224.5.5zm4-1.94c0 2.529-2.667 5.307-4.904 7.192-.607.511-1.352.767-2.096.767s-1.488-.256-2.096-.767c-2.237-1.885-4.904-4.663-4.904-7.192 0-2.211 1.682-4.01 3.75-4.01 1.463 0 2.703.646 3.25.984.548-.338 1.787-.984 3.25-.984 2.067 0 3.75 1.799 3.75 4.01zm-1 0c0-1.66-1.233-3.01-2.75-3.01-1.61 0-2.938.975-2.951.984-.178.131-.419.132-.597 0-.013-.01-1.353-.985-2.952-.985-1.517 0-2.75 1.351-2.75 3.01 0 2.258 2.85 4.996 4.549 6.427.841.708 2.062.708 2.902 0 1.699-1.431 4.549-4.169 4.549-6.427zm2.957 8.426c-.626.863-.957 1.808-.957 2.733v1.28c0 1.472-1.028 2.5-2.5 2.5h-8c-1.378 0-2.5-1.122-2.5-2.5v-.5h-.987c-2.112 0-3.964-1.5-4.402-3.566l-.516-2.434h-.549c-1.134 0-1.545-.87-1.545-1.455 0-1.28 2.843-7.428 4.23-9.152 2.429-3.236 6.436-4.867 10.451-4.265 4.818.726 8.879 5.163 9.244 10.101.199 2.698-.481 5.208-1.969 7.258zm.971-7.184c-.332-4.492-4.02-8.527-8.395-9.186-.504-.076-1.008-.113-1.507-.113-3.127 0-6.098 1.457-8 3.997l-.012.015c-1.407 1.741-4.014 7.665-4.014 8.53.007.203.107.455.545.455h.957c.236 0 .438.165.487.396l.6 2.83c.341 1.607 1.781 2.773 3.424 2.773h1.487c.276 0 .5.224.5.5v1c0 .827.673 1.5 1.5 1.5h8c.692 0 1.5-.393 1.5-1.5v-1.28c0-1.138.397-2.286 1.148-3.321 1.346-1.856 1.961-4.137 1.779-6.597z"/></svg>