<svg id="Layer_1" viewBox="0 0 24 24" xmlns="http://www.w3.org/2000/svg" data-name="Layer 1"><path d="m18 12c3.309 0 6-2.691 6-6s-2.691-6-6-6-6 2.691-6 6 2.691 6 6 6zm5-6c0 1.198-.441 2.284-1.146 3.146l-7-7c.862-.705 1.948-1.146 3.146-1.146 2.757 0 5 2.243 5 5zm-8.854-3.146 7 7c-.862.705-1.948 1.146-3.146 1.146-2.757 0-5-2.243-5-5 0-1.198.441-2.284 1.146-3.146zm9.365 9.146c-.318-.011-.51.203-.521.479-.159 3.712-2.129 6.915-5.04 8.782-.366-2.96-2.892-5.261-5.95-5.261s-5.571 2.29-5.946 5.24c-3.035-1.96-5.054-5.366-5.054-9.24 0-5.91 4.621-10.737 10.521-10.989.275-.013.49-.245.479-.521-.013-.275-.215-.493-.521-.479-6.437.275-11.479 5.542-11.479 11.989 0 6.617 5.383 12 12 12 6.447 0 11.714-5.042 11.989-11.479.012-.276-.203-.509-.479-.521zm-16.49 9.796c.11-2.66 2.292-4.796 4.979-4.796s4.879 2.144 4.981 4.811c-1.497.758-3.187 1.189-4.981 1.189s-3.482-.44-4.979-1.204zm1.979-11.796c0 1.654 1.346 3 3 3 .617 0 1.21-.186 1.714-.537.228-.157.539-.103.696.124.158.227.103.539-.124.696-.674.469-1.464.717-2.286.717-2.206 0-4-1.794-4-4 0-1.308.641-2.534 1.714-3.283.224-.156.536-.104.696.124.158.227.103.538-.124.696-.806.562-1.286 1.482-1.286 2.463z"/></svg>