<svg id="Layer_1" viewBox="0 0 24 24" xmlns="http://www.w3.org/2000/svg" data-name="Layer 1"><path d="m5 20.5c0 .552-.448 1-1 1s-1-.448-1-1 .448-1 1-1 1 .448 1 1zm2-1c-.552 0-1 .448-1 1s.448 1 1 1 1-.448 1-1-.448-1-1-1zm13 0c-.552 0-1 .448-1 1s.448 1 1 1 1-.448 1-1-.448-1-1-1zm4-15v15c0 2.481-2.019 4.5-4.5 4.5h-15c-2.481 0-4.5-2.019-4.5-4.5v-15c0-2.481 2.019-4.5 4.5-4.5h15c2.481 0 4.5 2.019 4.5 4.5zm-10.586-1.121c.378-.378.586-.88.586-1.415v-.964h-4v.964c0 .534.208 1.037.586 1.415l1.414 1.414zm-12.414 1.121v12.5h7.513c-.317-.419-.513-.935-.513-1.5v-3c0-1.378 1.122-2.5 2.5-2.5h3c1.378 0 2.5 1.122 2.5 2.5v3c0 .565-.195 1.081-.513 1.5h7.513v-12.5c0-1.93-1.57-3.5-3.5-3.5h-4.5v.964c0 .801-.312 1.555-.879 2.122l-1.621 1.621v1.793c0 .276-.224.5-.5.5s-.5-.224-.5-.5v-1.793l-1.621-1.621c-.567-.567-.879-1.32-.879-2.122v-.964h-4.5c-1.93 0-3.5 1.57-3.5 3.5zm9.5 12.5h3c.827 0 1.5-.673 1.5-1.5v-3c0-.827-.673-1.5-1.5-1.5h-3c-.827 0-1.5.673-1.5 1.5v3c0 .827.673 1.5 1.5 1.5zm12.5 2.5v-1.5h-22v1.5c0 1.93 1.57 3.5 3.5 3.5h15c1.93 0 3.5-1.57 3.5-3.5z"/></svg>