<svg id="Layer_1" viewBox="0 0 24 24" xmlns="http://www.w3.org/2000/svg" data-name="Layer 1"><path d="m12 0c-6.617 0-12 5.383-12 12s5.383 12 12 12 12-5.383 12-12-5.383-12-12-12zm-11 12c0-2.853 1.101-5.447 2.889-7.404l15.515 15.515c-1.957 1.788-4.551 2.889-7.404 2.889-6.065 0-11-4.935-11-11zm11-3c.567 0 1.11-.243 1.49-.666.185-.206.167-.522-.038-.706s-.521-.167-.706.038c-.193.215-.458.334-.746.334-.552 0-1-.449-1-1s.448-1 1-1c2.976 0 5.466 2.135 5.921 5.076.038.244.247.424.494.424h.585c.552 0 1 .449 1 1s-.448 1-1 1h-.816c-.217 0-.409.14-.476.346-.239.738-.633 1.425-1.135 2.021l-2.041-2.041c.275-.178.468-.473.468-.825 0-.552-.448-1-1-1-.352 0-.647.193-.825.468l-5.03-5.03c.59-.501 1.258-.875 1.981-1.114-.077.212-.126.437-.126.676 0 1.103.897 2 2 2zm8.111 10.404-2.829-2.829c.532-.615.964-1.318 1.255-2.075h.463c1.103 0 2-.897 2-2 .005-1.171-1.01-2.082-2.169-2-.695-3.212-3.503-5.5-6.831-5.5-1.696 0-3.305.612-4.575 1.718l-2.829-2.829c1.957-1.788 4.551-2.889 7.404-2.889 6.065 0 11 4.935 11 11 0 2.853-1.101 5.447-2.889 7.404zm-11.111-6.404c0-.552.448-1 1-1s1 .448 1 1-.448 1-1 1-1-.448-1-1zm5.855 5.39c-.886.397-1.852.61-2.855.61-2.922 0-5.505-1.794-6.537-4.5h-.463c-1.103 0-2-.897-2-2-.005-1.172 1.011-2.082 2.17-2 .102-.462.266-.905.459-1.336l.764.764c-.134.341-.23.706-.299 1.072-.032.167-.093.5-.593.5h-.5c-.552 0-1 .449-1 1s.448 1 1 1h.5c.5 0 .778.337.837.5.858 2.373 3.095 4.01 5.663 4 .726 0 1.428-.134 2.086-.378l.769.769z"/></svg>