<svg id="Layer_1" viewBox="0 0 24 24" xmlns="http://www.w3.org/2000/svg" data-name="Layer 1"><path d="m20.5 3h-17c-1.93 0-3.5 1.57-3.5 3.5v2.929c0 1.469.572 2.851 1.611 3.889l6.305 6.305c.677.678 1.512 1.111 2.414 1.253.522.082 1.084.124 1.67.124s1.148-.042 1.671-.124c.901-.142 1.736-.575 2.413-1.253l6.305-6.305c1.039-1.039 1.611-2.42 1.611-3.889v-2.929c0-1.93-1.57-3.5-3.5-3.5zm-19.357 7.5c-.085-.348-.143-.704-.143-1.071v-2.929c0-1.378 1.122-2.5 2.5-2.5h2.5v7.802c-1.307-.82-2.846-1.302-4.5-1.302zm7.857 8.741c-.13-.099-.258-.206-.377-.325l-6.305-6.305c-.329-.329-.581-.709-.79-1.109 4.123.015 7.473 3.372 7.473 7.499v.241zm5 .529c-.158.051-.32.092-.485.118-.942.148-2.088.148-3.03 0-.165-.026-.327-.067-.485-.118v-.77c0-2.592-1.17-4.914-3.005-6.474 0-.009.005-.017.005-.026v-8.5h10v8.5c0 .009.005.017.005.026-1.836 1.56-3.005 3.882-3.005 6.474zm7.682-7.159-6.305 6.305c-.119.119-.246.226-.377.325v-.241c0-4.127 3.349-7.484 7.473-7.499-.209.401-.462.781-.79 1.109zm1.318-3.182c0 .367-.058.723-.143 1.071h-.357c-1.654 0-3.193.482-4.5 1.302v-7.802h2.5c1.378 0 2.5 1.122 2.5 2.5z"/></svg>