<?xml version="1.0" encoding="UTF-8"?>
<svg xmlns="http://www.w3.org/2000/svg" id="Layer_1" data-name="Layer 1" viewBox="0 0 24 24">
  <path d="M20.5,10h-3.528c-.231,0-.464-.055-.671-.158l-3.156-1.578c-.345-.172-.732-.264-1.118-.264h-1.528c-1.93,0-3.5,1.57-3.5,3.5v8c0,1.93,1.57,3.5,3.5,3.5h10c1.93,0,3.5-1.57,3.5-3.5v-6c0-1.93-1.57-3.5-3.5-3.5Zm2.5,9.5c0,1.378-1.122,2.5-2.5,2.5H10.5c-1.378,0-2.5-1.122-2.5-2.5V11.5c0-1.378,1.122-2.5,2.5-2.5h1.528c.231,0,.464,.055,.671,.158l3.156,1.578c.345,.172,.732,.264,1.118,.264h3.528c1.378,0,2.5,1.122,2.5,2.5v6Zm1-12v1c0,.276-.224,.5-.5,.5s-.5-.224-.5-.5v-1c0-1.93-1.57-3.5-3.5-3.5h-7.028c-.386,0-.772-.091-1.118-.264l-3.156-1.578c-.207-.104-.439-.158-.671-.158h-3.028c-1.93,0-3.5,1.57-3.5,3.5v13c0,1.93,1.57,3.5,3.5,3.5,.276,0,.5,.224,.5,.5s-.224,.5-.5,.5c-2.481,0-4.5-2.019-4.5-4.5V5.5C0,3.019,2.019,1,4.5,1h3.028c.386,0,.772,.091,1.118,.264l3.156,1.578c.207,.104,.439,.158,.671,.158h7.028c2.481,0,4.5,2.019,4.5,4.5Z"/>
</svg>
