<?xml version="1.0" encoding="UTF-8"?>
<svg xmlns="http://www.w3.org/2000/svg" id="Layer_1" data-name="Layer 1" viewBox="0 0 24 24">
  <path d="M19.5,4h-.551c-.252-2.244-2.139-4-4.449-4H4.5C2.019,0,0,2.019,0,4.5v13.855c-.041,1.276,1.522,2.113,2.562,1.371l3.526-2.351c.409,2.063,2.23,3.625,4.412,3.625h6.849l4.089,2.726c1.04,.742,2.604-.095,2.562-1.371V8.5c0-2.481-2.019-4.5-4.5-4.5ZM2.007,18.894c-.408,.294-1.026-.037-1.007-.539V4.5c0-1.93,1.57-3.5,3.5-3.5H14.5c1.93,0,3.5,1.57,3.5,3.5V12.5c0,1.93-1.57,3.5-3.5,3.5H6.5c-.105-.004-.189,.05-.277,.084l-4.215,2.81Zm20.993,3.461c.019,.504-.602,.831-1.008,.539l-4.215-2.81c-.082-.055-.179-.084-.277-.084h-7c-1.758,0-3.204-1.308-3.449-3h7.449c2.481,0,4.5-2.019,4.5-4.5V5h.5c1.93,0,3.5,1.57,3.5,3.5v13.855ZM8,12h-2c-.551,0-1-.449-1-1V6c0-.551,.449-1,1-1h2c.276,0,.5,.224,.5,.5s-.224,.5-.5,.5h-2v2h2c.276,0,.5,.224,.5,.5s-.224,.5-.5,.5h-2v2h2c.276,0,.5,.224,.5,.5s-.224,.5-.5,.5Zm2-.5V5.778c0-.367,.251-.676,.61-.751,.358-.074,.713,.106,.86,.443l2.03,4.64V5.5c0-.276,.224-.5,.5-.5s.5,.224,.5,.5v5.731c0,.366-.25,.674-.609,.75-.359,.075-.712-.107-.857-.443l-2.033-4.647v4.61c0,.276-.224,.5-.5,.5s-.5-.224-.5-.5Z"/>
</svg>
