<svg id="Layer_1" viewBox="0 0 24 24" xmlns="http://www.w3.org/2000/svg" data-name="Layer 1"><path d="m7 4.5v1c0 .276-.224.5-.5.5s-.5-.224-.5-.5v-1c0-.276.224-.5.5-.5s.5.224.5.5zm4.5-.5c-.276 0-.5.224-.5.5v1c0 .276.224.5.5.5s.5-.224.5-.5v-1c0-.276-.224-.5-.5-.5zm11.991 16.979c0 .389-.281.639-.374.722l-2.757 2.119c-.223.203-.593.233-.875.104-.3-.135-.485-.413-.485-.727v-3.42l-1.189 1.115c-.216.172-.531.137-.702-.081-.172-.216-.136-.53.081-.702l1.811-1.608-1.807-1.605c-.218-.169-.258-.483-.088-.701.17-.219.484-.258.701-.088l1.193 1.129v-3.431c0-.313.186-.592.485-.727.305-.137.661-.09.902.127l2.668 1.922c.14.12.445.392.444.803 0 .276-.133.526-.404.767l-2.241 1.779 2.174 1.69c.213.187.463.45.463.813zm-3.491-3.168s2.439-1.897 2.431-1.905l-2.431-1.752zm2.391 3.123-2.391-1.78v3.684s2.405-1.89 2.391-1.903zm-5.391-9.434c0-1.379-1.121-2.5-2.5-2.5h-11c-1.379 0-2.5 1.121-2.5 2.5v3.5c0 4.411 3.589 8 8 8 1.896 0 3.734-.675 5.176-1.9.213-.179.527-.152.705.057.179.211.153.526-.057.705-1.623 1.379-3.691 2.139-5.824 2.139-4.963-.001-9-4.038-9-9.001v-3.5c0-1.391.822-2.585 2-3.149v-5.851c0-1.379 1.121-2.5 2.5-2.5h9c1.379 0 2.5 1.121 2.5 2.5v5.851c1.178.564 2 1.758 2 3.149 0 .276-.224.5-.5.5s-.5-.224-.5-.5zm-2-9c0-.827-.673-1.5-1.5-1.5h-9c-.827 0-1.5.673-1.5 1.5v5.551c.165-.024.329-.051.5-.051h11c.171 0 .335.027.5.051z"/></svg>