<svg id="Layer_1" viewBox="0 0 24 24" xmlns="http://www.w3.org/2000/svg" data-name="Layer 1"><path d="m19.5 0h-2.41c-2.003 0-3.886.78-5.303 2.196l-9.59 9.591c-1.417 1.416-2.197 3.299-2.197 5.303v2.41c0 2.481 2.019 4.5 4.5 4.5h2.41c2.003 0 3.886-.78 5.303-2.196l9.59-9.591c1.417-1.416 2.197-3.299 2.197-5.303v-2.41c0-2.481-2.019-4.5-4.5-4.5zm0 1c1.93 0 3.5 1.57 3.5 3.5v2.41c0 .754-.135 1.485-.379 2.175-.572-.283-1.512-.67-2.691-.9.045-.225.071-.453.071-.685 0-1.93-1.57-3.5-3.5-3.5-.231 0-.459.027-.683.071-.228-1.187-.622-2.129-.902-2.693.69-.244 1.421-.379 2.174-.379h2.41zm-3.545 4.067c.178-.04.359-.067.545-.067 1.378 0 2.5 1.121 2.5 2.5 0 .185-.026.366-.066.544-.995-.093-2.102-.037-3.265.283.319-1.163.375-2.269.286-3.259zm-13.051 7.427 9.59-9.591c.452-.452.959-.827 1.505-1.123.544 1.078 1.641 3.869.484 6.967-1.085.47-2.194 1.184-3.281 2.271-.847.847-1.573 1.936-2.123 3.143-1.5.614-3.014.894-4.454.821-1.087-.05-2.096-.302-2.958-.753.312-.634.722-1.221 1.236-1.735zm5.093 6.451c-.163.033-.328.055-.497.055-1.378 0-2.5-1.121-2.5-2.5 0-.169.021-.335.055-.499 1.148-.002 2.35-.202 3.538-.593-.378 1.144-.591 2.349-.596 3.537zm-3.497 4.055c-1.93 0-3.5-1.57-3.5-3.5v-2.41c0-.665.101-1.314.292-1.932.826.416 1.756.684 2.756.786-.029.183-.048.369-.048.556 0 1.93 1.57 3.5 3.5 3.5.183 0 .364-.016.543-.044.099.967.358 1.899.792 2.755-.615.19-1.262.29-1.924.29h-2.41zm16.596-11.494-9.59 9.591c-.516.515-1.105.927-1.741 1.238-1.723-3.287-.307-8.16 2.144-10.611 1.088-1.087 2.136-1.717 3.255-2.172 3.118-1.207 5.945-.107 7.054.449-.296.546-.671 1.053-1.123 1.504z"/></svg>