<svg id="Layer_1" viewBox="0 0 24 24" xmlns="http://www.w3.org/2000/svg" data-name="Layer 1"><path d="m17.477 6c-3.72 0-6.524 1.29-6.524 3v6.294c-1.053-.792-2.851-1.294-4.976-1.294-3.407 0-5.977 1.29-5.977 3v4c0 1.71 2.569 3 5.977 3 2.534 0 4.603-.715 5.497-1.785.976 1.07 3.235 1.785 6.003 1.785 3.719 0 6.523-1.29 6.523-3v-12c0-1.71-2.805-3-6.523-3zm5.523 11c0 .944-2.362 2-5.523 2s-5.524-1.056-5.524-2v-2.364c1.134.832 3.139 1.364 5.524 1.364s4.389-.532 5.523-1.364zm0-4c0 .944-2.362 2-5.523 2s-5.524-1.056-5.524-2v-2.364c1.134.832 3.139 1.364 5.524 1.364s4.389-.532 5.523-1.364zm-5.523-6c3.161 0 5.523 1.056 5.523 2s-2.362 2-5.523 2-5.524-1.056-5.524-2 2.362-2 5.524-2zm-11.5 8c2.933 0 4.976 1.054 4.976 2s-2.043 2-4.976 2c-2.849 0-4.977-1.056-4.977-2s2.128-2 4.977-2zm0 8c-2.849 0-4.977-1.056-4.977-2v-2.294c1.053.792 2.852 1.294 4.977 1.294s3.922-.502 4.976-1.294v2.294c0 .946-2.043 2-4.976 2zm11.5 0c-3.162 0-5.524-1.056-5.524-2v-2.364c1.134.832 3.139 1.364 5.524 1.364s4.389-.532 5.523-1.364v2.364c0 .944-2.362 2-5.523 2zm-12.351-16.499c.125 0 .24-.002.344-.006l.03 4.009c.002.275.226.496.5.496h.004c.276-.002.498-.228.496-.504l-.03-4.004c.12.005.252.009.404.009 1.085 0 2.894-.17 3.925-1.202.974-.973 1.19-2.621 1.201-3.832.004-.393-.147-.763-.425-1.041-.278-.278-.659-.425-1.041-.426-1.211.011-2.858.228-3.833 1.201-.303.303-.529.675-.701 1.074-.172-.399-.398-.771-.701-1.074-.975-.973-2.622-1.19-3.833-1.201-.398-.008-.764.148-1.041.426-.277.278-.429.648-.425 1.041.011 1.211.228 2.859 1.201 3.832 1.031 1.031 2.84 1.202 3.925 1.202zm2.282-4.593c.773-.773 2.296-.901 3.134-.908h.004c.122 0 .236.047.321.133.087.086.134.202.133.325-.007.839-.135 2.361-.908 3.134-.832.832-2.603.946-3.587.903-.006-.139-.005-.299-.006-.448.01-1.004.188-2.418.909-3.139zm-6.275-.775c.085-.086.199-.133.321-.133h.004c.838.007 2.36.135 3.134.908.725.725.902 2.164.909 3.171-.001.139 0 .29-.006.415-.982.043-2.754-.07-3.586-.903-.773-.773-.901-2.295-.908-3.134 0-.123.046-.239.133-.325z"/></svg>