<?xml version="1.0" encoding="UTF-8"?>
<svg xmlns="http://www.w3.org/2000/svg" id="Layer_1" data-name="Layer 1" viewBox="0 0 24 24">
  <path d="M6,10c0,.552-.448,1-1,1s-1-.448-1-1,.448-1,1-1,1,.448,1,1Zm4,1c0,1.79-.95,3.415-2.5,4.31v5.154c0,.935-.364,1.814-1.025,2.475l-.768,.769c-.195,.195-.451,.292-.707,.292s-.512-.098-.707-.292l-1.061-1.06c-.39-.39-.39-1.024,0-1.415l.708-.708-.707-.707c-.39-.39-.39-1.024,0-1.414l.344-.344-.451-.428c-.397-.375-.625-.905-.625-1.452v-.871c-1.55-.896-2.5-2.52-2.5-4.31,0-2.757,2.243-5,5-5s5,2.243,5,5Zm-1,0c0-2.206-1.794-4-4-4S1,8.794,1,11c0,1.513,.852,2.879,2.224,3.564,.169,.085,.276,.258,.276,.447v1.169c0,.273,.114,.538,.312,.726l.824,.781c.203,.184,.208,.527,.01,.716l-.707,.707,1.061,1.061c.195,.195,.195,.512,0,.707l-1.061,1.061,1.061,1.061,.768-.769c.472-.472,.732-1.1,.732-1.768v-5.452c0-.189,.107-.362,.276-.447,1.372-.686,2.224-2.052,2.224-3.564ZM20.5,0h-6.42c-2.097,0-4.164,.708-5.82,1.992l-2.082,1.613c-.218,.169-.258,.483-.089,.701,.168,.218,.483,.258,.701,.089l2.082-1.613c1.482-1.149,3.332-1.782,5.208-1.782h6.42c1.379,0,2.5,1.122,2.5,2.5v5c0,1.378-1.121,2.5-2.5,2.5h-6.857c-.906,0-1.643-.737-1.643-1.642,0-.812,.606-1.511,1.403-1.625l5.661-.737c.274-.036,.467-.286,.432-.56-.036-.274-.297-.467-.561-.431l-5.667,.738c-1.293,.185-2.269,1.31-2.269,2.616,0,1.457,1.186,2.642,2.643,2.642h6.857c1.93,0,3.5-1.57,3.5-3.5V3.5c0-1.93-1.57-3.5-3.5-3.5Z"/>
</svg>
