<svg id="Layer_1" viewBox="0 0 24 24" xmlns="http://www.w3.org/2000/svg" data-name="Layer 1"><path d="m15.5 14.045v-.545c0-.276-.224-.5-.5-.5s-.5.224-.5.5v.5h-5v-.5c0-.276-.224-.5-.5-.5s-.5.224-.5.5v.545c-1.271.205-2.345 1.099-2.766 2.353-.932 2.774-1.234 5.148-1.234 5.863 0 .958.78 1.738 1.738 1.738 1.278 0 3.185-1.979 4.13-3.383.26-.387.713-.617 1.212-.617h.867c.501 0 .956.233 1.217.623.937 1.402 2.827 3.377 4.097 3.377.958 0 1.738-.78 1.738-1.738 0-.715-.302-3.089-1.234-5.863-.421-1.254-1.496-2.148-2.766-2.353zm2.262 8.955c-.66 0-2.277-1.452-3.266-2.932-.447-.669-1.212-1.068-2.048-1.068h-.867c-.833 0-1.596.396-2.042 1.059-.999 1.484-2.634 2.941-3.3 2.941-.407 0-.738-.331-.738-.738 0-.636.298-2.914 1.182-5.545.345-1.027 1.3-1.717 2.377-1.717h5.881c1.077 0 2.033.689 2.377 1.717.884 2.631 1.182 4.909 1.182 5.545 0 .407-.331.738-.738.738zm6.233-10.216c-.071 1.921-.914 3.726-2.373 5.082-.201.188-.519.177-.707-.025s-.176-.519.026-.707c1.264-1.175 1.993-2.732 2.055-4.387.116-3.131-2.015-5.899-5.066-6.583-.736-.166-1.347-.638-1.676-1.296-1.413-2.819-4.467-4.325-7.598-3.743-2.738.508-4.952 2.691-5.508 5.434-.167.819-.191 1.645-.074 2.452.13.893-.119 1.714-.685 2.255-1.128 1.078-1.609 2.646-1.289 4.196.216 1.046.82 1.985 1.7 2.645.221.166.266.479.1.7-.166.222-.481.265-.7.101-1.075-.807-1.813-1.958-2.08-3.242-.391-1.89.199-3.805 1.577-5.122.329-.314.469-.82.387-1.388-.135-.923-.107-1.863.083-2.796.637-3.138 3.171-5.636 6.306-6.217 3.576-.673 7.061 1.056 8.675 4.278.194.389.559.668 1 .767 3.521.789 5.98 3.984 5.847 7.597z"/></svg>