<svg id="Layer_1" viewBox="0 0 24 24" xmlns="http://www.w3.org/2000/svg" data-name="Layer 1"><path d="m12 12c-3.309 0-6 2.691-6 6s2.691 6 6 6 6-2.691 6-6-2.691-6-6-6zm0 11c-2.757 0-5-2.243-5-5s2.243-5 5-5 5 2.243 5 5-2.243 5-5 5zm1.854-3.854c.195.195.195.512 0 .707s-.512.195-.707 0l-1.5-1.5c-.094-.094-.146-.221-.146-.354v-2.5c0-.276.224-.5.5-.5s.5.224.5.5v2.293l1.354 1.354zm9.975-7.989c-1.692-5.394-6.215-11.157-13.84-11.157h-9.489c-.276 0-.5.224-.5.5s.224.5.5.5h3.5v6h-3.5c-.276 0-.5.224-.5.5s.224.5.5.5h20.861c.642 1.125 1.15 2.298 1.512 3.456.262.833.113 1.717-.405 2.424-.523.712-1.328 1.12-2.209 1.12-.276 0-.5.224-.5.5s.224.5.5.5c1.202 0 2.302-.557 3.015-1.527.71-.967.912-2.175.555-3.315zm-18.829-10.157h4.989c.346 0 .679.023 1.011.048v5.952h-6zm7 6v-5.833c3.931.611 6.83 2.968 8.744 5.833zm-7.5 8.5c0 .276-.224.5-.5.5h-3.5c-.276 0-.5-.224-.5-.5s.224-.5.5-.5h3.5c.276 0 .5.224.5.5z"/></svg>