<?xml version="1.0" encoding="UTF-8"?>
<svg xmlns="http://www.w3.org/2000/svg" id="Layer_1" data-name="Layer 1" viewBox="0 0 24 24">
  <path d="m24,5.23c0,1.527-1.242,2.77-2.77,2.77h-2.73c-.275,0-.5.225-.5.5v2.579c.633.152,1.776.622,2.9,2.121.165.221.12.534-.101.7-.09.067-.195.1-.3.1-.151,0-.302-.069-.4-.2-.816-1.088-1.607-1.518-2.1-1.688v3.389c0,1.143-.301,2.267-.87,3.25-.093.16-.261.25-.433.25-.086,0-.172-.021-.25-.067-.239-.138-.321-.444-.183-.683.481-.832.735-1.783.735-2.75v-7c0-.827.673-1.5,1.5-1.5h2.73c.976,0,1.77-.794,1.77-1.77,0-2.077-1.54-3.864-3.583-4.157-2.335-.339-4.693.513-6.301,2.271-2.98,3.261-5.741,7.547-7.385,11.466-.387.923-1.397,1.369-2.573,1.129-.619-.124-1.251-.455-1.79-.964.96,3.136,3.717,5.564,7.06,5.911.4.042,1.437.08,3.083.114.884.021,1.726-.181,2.488-.561-.015-.578-.291-5.439-5.499-5.439-.276,0-.5-.224-.5-.5s.224-.5.5-.5c6.426,0,6.5,6.435,6.5,6.5v2c0,.275.225.5.5.5h2c.276,0,.5.224.5.5s-.224.5-.5.5h-2c-.827,0-1.5-.673-1.5-1.5v-.956c-.749.3-1.556.457-2.377.457-.044,0-.464-.008-.623-.012v.511c0,.275.224.5.5.5h1c.276,0,.5.224.5.5s-.224.5-.5.5h-1c-.827,0-1.5-.673-1.5-1.5v-.537c-.832-.025-1.389-.053-1.676-.083C3.657,21.396,0,17.299,0,12.553v-4.053c0-.276.224-.5.5-.5s.5.224.5.5v3.087c0,2.002,1.183,3.136,2.355,3.371.522.106,1.217.028,1.454-.535,1.686-4.02,4.516-8.413,7.569-11.753C14.21.667,16.894-.303,19.56.083c2.531.363,4.44,2.576,4.44,5.147Z"/>
</svg>
