<svg id="Layer_1" viewBox="0 0 24 24" xmlns="http://www.w3.org/2000/svg" data-name="Layer 1"><path d="m7 16.497.038 7c.002.276-.221.501-.497.503h-.003c-.275 0-.498-.222-.5-.497l-.038-7c-.002-.276.221-.501.497-.503h.003c.275 0 .498.222.5.497zm-5.5 2.503c-.276 0-.5.224-.5.5v4c0 .276.224.5.5.5s.5-.224.5-.5v-4c0-.276-.224-.5-.5-.5zm10-6h-.002c-.276 0-.499.226-.498.502l.038 10c0 .275.225.498.5.498.302-.021.501-.225.5-.502l-.038-10c0-.275-.225-.498-.5-.498zm5 2c-.276 0-.5.224-.5.5v8c0 .276.224.5.5.5s.5-.224.5-.5v-8c0-.276-.224-.5-.5-.5zm3.5-9c0 1.103-.897 2-2 2s-2-.897-2-2 .897-2 2-2 2 .897 2 2zm-1 0c0-.551-.448-1-1-1s-1 .449-1 1 .448 1 1 1 1-.449 1-1zm-1 3c-.276 0-.5.224-.5.5v3c0 .276.224.5.5.5s.5-.224.5-.5v-3c0-.276-.224-.5-.5-.5zm0-9c-3.309 0-6 2.691-6 6 0 2.036 1.02 3.916 2.727 5.029.233.151.542.086.692-.146.15-.231.086-.541-.146-.692-1.424-.928-2.273-2.495-2.273-4.191 0-2.757 2.243-5 5-5s5 2.243 5 5c0 1.696-.85 3.263-2.273 4.191-.231.151-.296.461-.146.692.152.234.463.295.692.146 1.707-1.114 2.727-2.994 2.727-5.029 0-3.309-2.691-6-6-6zm-15.505 3h3.01c.824 0 1.495.671 1.495 1.495 0 .276.224.5.5.5s.5-.224.5-.5c0-1.376-1.119-2.495-2.495-2.495h-1.005v-1.5c0-.276-.224-.5-.5-.5s-.5.224-.5.5v1.5h-1.005c-1.376 0-2.495 1.119-2.495 2.495 0 1.108.744 2.095 1.81 2.399l4.105 1.173c.639.182 1.085.773 1.085 1.438 0 .824-.671 1.495-1.495 1.495h-3.01c-.824 0-1.495-.671-1.495-1.495 0-.276-.224-.5-.5-.5s-.5.224-.5.5c0 1.376 1.119 2.495 2.495 2.495h1.005v1.5c0 .276.224.5.5.5s.5-.224.5-.5v-1.5h1.005c1.376 0 2.495-1.119 2.495-2.495 0-1.108-.744-2.095-1.81-2.399l-4.105-1.173c-.639-.182-1.085-.773-1.085-1.438 0-.824.671-1.495 1.495-1.495zm19.005 10c-.276 0-.5.224-.5.5v10c0 .276.224.5.5.5s.5-.224.5-.5v-10c0-.276-.224-.5-.5-.5z"/></svg>