<?xml version="1.0" encoding="UTF-8"?>
<svg xmlns="http://www.w3.org/2000/svg" id="Layer_1" data-name="Layer 1" viewBox="0 0 24 24">
  <path d="M18.5,11c1.469,0,2.851-.572,3.889-1.611,1.039-1.039,1.611-2.42,1.611-3.889s-.572-2.851-1.611-3.889c-1.038-1.039-2.42-1.611-3.889-1.611s-2.851,.572-3.889,1.611c-1.039,1.039-1.611,2.42-1.611,3.889s.572,2.851,1.611,3.889c1.038,1.039,2.42,1.611,3.889,1.611ZM15.318,2.318c.85-.85,1.979-1.318,3.182-1.318s2.332,.468,3.182,1.318c.851,.85,1.318,1.98,1.318,3.182s-.468,2.332-1.318,3.182c-.85,.85-1.979,1.318-3.182,1.318s-2.332-.468-3.182-1.318c-.851-.85-1.318-1.98-1.318-3.182s.468-2.332,1.318-3.182Zm.182,3.182c0-.276,.224-.5,.5-.5h2V3c0-.276,.224-.5,.5-.5s.5,.224,.5,.5v2h2c.276,0,.5,.224,.5,.5s-.224,.5-.5,.5h-2v2c0,.276-.224,.5-.5,.5s-.5-.224-.5-.5v-2h-2c-.276,0-.5-.224-.5-.5Zm8.5,6v8c0,2.481-2.019,4.5-4.5,4.5H4.5c-2.481,0-4.5-2.019-4.5-4.5V7.5C0,5.019,2.019,3,4.5,3h6c.276,0,.5,.224,.5,.5s-.224,.5-.5,.5H4.5c-1.611,0-2.958,1.101-3.363,2.586L9.525,14.975c1.322,1.322,3.627,1.322,4.949,0l2.247-2.322c.191-.197,.51-.204,.707-.012,.198,.192,.204,.509,.012,.707l-2.253,2.328c-.855,.856-1.985,1.324-3.188,1.324s-2.332-.468-3.182-1.318L1,7.863v11.637c0,1.93,1.57,3.5,3.5,3.5h15c1.93,0,3.5-1.57,3.5-3.5V11.5c0-.276,.224-.5,.5-.5s.5,.224,.5,.5Z"/>
</svg>
