<svg id="Layer_1" viewBox="0 0 24 24" xmlns="http://www.w3.org/2000/svg" data-name="Layer 1"><path d="m12 0c-6.617 0-12 5.383-12 12s5.383 12 12 12 12-5.383 12-12-5.383-12-12-12zm11 12c0 2.853-1.101 5.447-2.889 7.404l-3.111-3.111v-9.793c0-.651-.419-1.201-1-1.408v-.592c0-.276-.224-.5-.5-.5h-1c-.276 0-.5.224-.5.5v.592c-.581.207-1 .757-1 1.408v1.5h-3.5c-.235 0-.463.043-.686.107l-4.218-4.218c1.957-1.788 4.551-2.889 7.404-2.889 6.065 0 11 4.935 11 11zm-13.293-3h6.293v6.293zm4.793-3h1c.276 0 .5.224.5.5v1.5h-2v-1.5c0-.276.224-.5.5-.5zm-13.5 6c0-2.853 1.101-5.447 2.889-7.404l15.515 15.515c-1.957 1.788-4.551 2.889-7.404 2.889-6.065 0-11-4.935-11-11zm14 6.5c0 .276-.224.5-.5.5h-4c-1.93 0-3.5-1.57-3.5-3.5v-4c0-.276.224-.5.5-.5s.5.224.5.5v4c0 1.378 1.122 2.5 2.5 2.5h4c.276 0 .5.224.5.5z"/></svg>