<?xml version="1.0" encoding="UTF-8"?>
<svg xmlns="http://www.w3.org/2000/svg" id="Outline" viewBox="0 0 24 24">
  <path d="m24,4.5c0,.276-.224.5-.5.5h-3.5v3.5c0,.276-.224.5-.5.5s-.5-.224-.5-.5v-3.5h-3.5c-.276,0-.5-.224-.5-.5s.224-.5.5-.5h3.5V.5c0-.276.224-.5.5-.5s.5.224.5.5v3.5h3.5c.276,0,.5.224.5.5Zm-.563,2.51c-.266-.056-.533.121-.588.392l-.757,3.785c-.326,1.63-1.77,2.813-3.432,2.813H5.879l-1.25-9h7.871c.276,0,.5-.224.5-.5s-.224-.5-.5-.5H4.49l-.256-1.843c-.17-1.229-1.234-2.157-2.476-2.157H.5C.224,0,0,.224,0,.5s.224.5.5.5h1.259c.745,0,1.383.556,1.485,1.294l1.781,12.825c.308,2.212,2.225,3.881,4.457,3.881h10.018c.276,0,.5-.224.5-.5s-.224-.5-.5-.5h-10.018c-1.73,0-3.214-1.289-3.462-3h12.64c2.138,0,3.993-1.521,4.412-3.617l.757-3.785c.055-.271-.121-.534-.393-.588Zm-14.437,14.99c0,1.103-.897,2-2,2s-2-.897-2-2,.897-2,2-2,2,.897,2,2Zm-1,0c0-.551-.448-1-1-1s-1,.449-1,1,.448,1,1,1,1-.449,1-1Zm11,0c0,1.103-.897,2-2,2s-2-.897-2-2,.897-2,2-2,2,.897,2,2Zm-1,0c0-.551-.448-1-1-1s-1,.449-1,1,.448,1,1,1,1-.449,1-1Z"/>
</svg>
