<?xml version="1.0" encoding="UTF-8"?>
<svg xmlns="http://www.w3.org/2000/svg" id="Layer_1" data-name="Layer 1" viewBox="0 0 24 24">
  <path d="M12,6c1.235,0,2.422,.458,3.343,1.29,.379,.343,.902,.514,1.462,.498l1.774-.072c.537-.022,1.014-.337,1.247-.819l.553-1.145c.363-.753,.227-1.636-.346-2.25C17.927,1.244,15.074,0,12,0,5.935,0,1,4.935,1,11c0,3.49,1.087,7.293,2.09,10.057-.629,.179-1.09,.759-1.09,1.443,0,.827,.673,1.5,1.5,1.5h3c.759,0,1.468-.338,1.944-.928s.659-1.354,.5-2.096c-.158-.739-.371-1.602-.598-2.523-.63-2.556-1.345-5.452-1.345-7.453,0-2.757,2.243-5,5-5Zm-6,5c0,2.123,.73,5.082,1.375,7.693,.225,.91,.435,1.763,.591,2.492,.095,.446-.014,.904-.3,1.258-.286,.354-.711,.557-1.167,.557H3.5c-.276,0-.5-.225-.5-.5s.224-.5,.5-.5h.288c.164,0,.318-.081,.412-.216,.093-.135,.114-.308,.056-.461-.842-2.226-2.255-6.525-2.255-10.323C2,5.486,6.486,1,12,1c2.794,0,5.387,1.131,7.302,3.184,.285,.306,.356,.762,.176,1.134l-.441,.914c-.638-.94-1.459-1.745-2.412-2.364-.239-.155-.56-.081-.7,.168l-.009,.016c-.126,.224-.06,.51,.156,.65,.823,.533,1.532,1.226,2.091,2.031l-1.397,.057c-.294,.019-.57-.075-.752-.24-1.105-.998-2.53-1.548-4.013-1.548-3.309,0-6,2.691-6,6Zm14.91,10.057c.863-2.384,1.835-5.683,2.042-8.882,.023-.36-.144-.695-.446-.897-.304-.201-.694-.229-1.018-.066l-1.32,.649c-.097,.047-.212,.045-.307-.007l-1.39-.762c-.309-.168-.677-.169-.984,.002-.304,.169-.498,.477-.517,.825-.103,1.867-.725,4.291-1.273,6.429-.247,.961-.478,1.862-.642,2.63-.158,.743,.025,1.507,.502,2.097,.477,.588,1.185,.926,1.943,.926h3c.827,0,1.5-.673,1.5-1.5,0-.685-.461-1.265-1.09-1.443Zm-.41,1.943h-3c-.455,0-.88-.202-1.166-.556-.286-.354-.396-.812-.301-1.258,.161-.757,.389-1.645,.631-2.591,.56-2.183,1.195-4.656,1.325-6.627l1.391,.763c.381,.207,.84,.217,1.229,.025l1.344-.646c-.228,3.54-1.481,7.292-2.208,9.213-.058,.153-.037,.326,.056,.461,.094,.135,.248,.216,.412,.216h.287c.276,0,.5,.225,.5,.5s-.224,.5-.5,.5ZM8.044,4.074c.128,.223,.063,.509-.152,.65-.846,.555-1.574,1.277-2.136,2.119-.143,.214-.429,.276-.652,.147l-.016-.009c-.247-.143-.317-.465-.158-.702,.634-.947,1.452-1.76,2.404-2.385,.238-.157,.559-.084,.701,.164l.009,.016Zm-3.391,5.41c-.102,.496-.153,1.005-.153,1.516,0,.401,0,1.058,0,1.509,0,.271-.22,.491-.491,.491h-.018c-.271,0-.491-.219-.491-.49,0-.433,0-1.064,0-1.51,0-.575,.058-1.147,.171-1.706,.057-.28,.335-.456,.61-.381l.018,.005c.248,.067,.406,.315,.354,.566ZM12,3.5c-.472,0-.942,.044-1.402,.131-.257,.049-.509-.106-.574-.359l-.004-.017c-.07-.276,.108-.552,.388-.605,.523-.099,1.057-.149,1.593-.149s1.07,.05,1.593,.149c.28,.053,.458,.329,.388,.605l-.004,.017c-.065,.254-.317,.408-.574,.359-.46-.087-.93-.131-1.402-.131Z"/>
</svg>
