<?xml version="1.0" encoding="UTF-8"?>
<svg xmlns="http://www.w3.org/2000/svg" id="Layer_1" data-name="Layer 1" viewBox="0 0 24 24">
  <path d="M9.693,11.076c-2.574,.496-4.113,3.278-4.616,4.843-.157,.488-.073,1.006,.229,1.421,.306,.419,.779,.66,1.299,.66h3.896c.979,0,1.921-.415,2.582-1.138,.662-.724,.98-1.66,.903-2.641L23.127,5.024c1.146-1.148,1.146-3.016,0-4.164C22.548,.283,21.696-.04,20.963,0c-.807,.022-1.577,.38-2.128,.998L10.644,11.034c-.316-.023-.634-.019-.95,.042Zm2.651,5.111c-.473,.517-1.146,.813-1.845,.813h-3.896c-.196,0-.375-.091-.49-.249-.112-.154-.144-.346-.086-.527,.406-1.263,1.734-3.759,3.854-4.167,.166-.032,.333-.048,.5-.048,.581,0,1.157,.19,1.633,.55,.568,.428,.914,1.036,.974,1.71,.063,.712-.166,1.394-.645,1.917ZM19.596,1.646c.354-.396,.862-.632,1.411-.647,.491-.023,1.044,.2,1.413,.57,.757,.758,.757,1.992,0,2.75L13.685,13.105c-.234-.516-.585-.981-1.066-1.344-.273-.206-.575-.356-.887-.478L19.596,1.646Zm3.904,6.354c-.276,0-.5,.224-.5,.5v5.515c0,.335-.038,.663-.096,.985h-5.404c-1.379,0-2.5,1.122-2.5,2.5v5.404c-.323,.058-.651,.096-.985,.096H4.5c-1.93,0-3.5-1.57-3.5-3.5V4.5c0-1.93,1.57-3.5,3.5-3.5H15.5c.276,0,.5-.224,.5-.5s-.224-.5-.5-.5H4.5C2.019,0,0,2.019,0,4.5v15c0,2.481,2.019,4.5,4.5,4.5H14.015c1.735,0,3.368-.676,4.597-1.904l3.484-3.485c1.228-1.227,1.904-2.859,1.904-4.596v-5.515c0-.276-.224-.5-.5-.5Zm-2.111,9.904l-3.484,3.485c-.551,.55-1.2,.959-1.904,1.231v-5.12c0-.827,.673-1.5,1.5-1.5h5.121c-.273,.704-.682,1.354-1.232,1.904Z"/>
</svg>
