<?xml version="1.0" encoding="UTF-8"?>
<svg xmlns="http://www.w3.org/2000/svg" id="Layer_1" data-name="Layer 1" viewBox="0 0 24 24">
  <path d="M24,12c0,.276-.224,.5-.5,.5s-.5-.224-.5-.5c0-6.065-4.935-11-11-11-3.712,0-7.169,1.91-9.193,5h3.693c.276,0,.5,.224,.5,.5s-.224,.5-.5,.5H2.5c-.827,0-1.5-.673-1.5-1.5V1.5c0-.276,.224-.5,.5-.5s.5,.224,.5,.5v3.912C4.211,2.067,7.967,0,12,0c6.617,0,12,5.383,12,12Zm-2.5,5h-4c-.276,0-.5,.224-.5,.5s.224,.5,.5,.5h3.694c-2.024,3.089-5.482,5-9.194,5-6.065,0-11-4.935-11-11,0-.276-.224-.5-.5-.5s-.5,.224-.5,.5c0,6.617,5.383,12,12,12,4.033,0,7.789-2.067,10-5.412v3.912c0,.276,.224,.5,.5,.5s.5-.224,.5-.5v-4c0-.827-.673-1.5-1.5-1.5ZM12.26,5.073c-.234-.142-.544-.069-.687,.167,0,0-3.514,5.782-3.525,5.822-.104,.341-.04,.701,.172,.987,.213,.286,.539,.45,.896,.45h5.78c.041,0,.071,.018,.091,.054,.02,.037,.018,.072-.015,.122l-3.398,5.563c-.144,.235-.069,.544,.166,.688,.081,.05,.172,.073,.261,.073,.168,0,.332-.085,.427-.239l3.389-5.548c.225-.339,.245-.773,.052-1.131-.192-.359-.564-.582-.972-.582h-5.78c-.048,0-.076-.025-.092-.047-.012-.015-.022-.036-.023-.062l3.427-5.631c.144-.236,.069-.543-.167-.687Z"/>
</svg>
