<?xml version="1.0" encoding="UTF-8"?>
<svg xmlns="http://www.w3.org/2000/svg" id="Layer_1" data-name="Layer 1" viewBox="0 0 24 24">
  <path d="m18.3,5.163c-1.885-2.01-4.544-3.163-7.298-3.163h-1.052c-.232-1.14-1.242-2-2.45-2h-2c-1.378,0-2.5,1.122-2.5,2.5v19c0,1.378,1.122,2.5,2.5,2.5h2c1.208,0,2.217-.86,2.45-2h.727c5.439,0,9.965-4.101,10.304-9.335.182-2.8-.771-5.464-2.681-7.502Zm1.683,7.438c-.305,4.71-4.393,8.4-9.306,8.4h-1.176c-.276,0-.5.224-.5.5,0,.827-.673,1.5-1.5,1.5h-2c-.827,0-1.5-.673-1.5-1.5v-1.5h1.5c.276,0,.5-.224.5-.5s-.224-.5-.5-.5h-1.5v-2h1.5c.276,0,.5-.224.5-.5s-.224-.5-.5-.5h-1.5v-2h1.5c.276,0,.5-.224.5-.5s-.224-.5-.5-.5h-1.5v-2h1.5c.276,0,.5-.224.5-.5s-.224-.5-.5-.5h-1.5v-2h1.5c.276,0,.5-.224.5-.5s-.224-.5-.5-.5h-1.5v-2h1.5c.276,0,.5-.224.5-.5s-.224-.5-.5-.5h-1.5v-1.5c0-.827.673-1.5,1.5-1.5h2c.827,0,1.5.673,1.5,1.5,0,.276.224.5.5.5h1.501c2.515,0,4.848,1.011,6.569,2.847,1.719,1.834,2.575,4.232,2.412,6.753Zm-8.751-5.6h-.731c-.827,0-1.5.673-1.5,1.5v2c0,.276.224.5.5.5h.5c.551,0,1,.449,1,1s-.449,1-1,1h-.5c-.276,0-.5.224-.5.5v2c0,.827.673,1.5,1.5,1.5h.538c2.658,0,4.928-1.981,5.17-4.511.136-1.429-.317-2.797-1.276-3.852-.946-1.041-2.295-1.637-3.701-1.637Zm-.193,9h-.538c-.276,0-.5-.224-.5-.5v-1.5c1.103,0,2-.897,2-2s-.897-2-2-2v-1.5c0-.276.224-.5.5-.5h.731c1.125,0,2.204.478,2.96,1.31.768.844,1.13,1.939,1.021,3.084-.193,2.021-2.026,3.605-4.174,3.605Z"/>
</svg>
