<svg id="Layer_1" viewBox="0 0 24 24" xmlns="http://www.w3.org/2000/svg" data-name="Layer 1"><path d="m15.437 21.68c-.793 1.432-2.302 2.32-3.937 2.32h-7c-2.481 0-4.5-2.019-4.5-4.5v-15c0-2.481 2.019-4.5 4.5-4.5h7c2.481 0 4.5 2.019 4.5 4.5v3c0 .276-.224.5-.5.5s-.5-.224-.5-.5v-3c0-1.93-1.57-3.5-3.5-3.5h-7c-1.93 0-3.5 1.57-3.5 3.5v12.5h8.5c.276 0 .5.224.5.5s-.224.5-.5.5h-8.5v1.5c0 1.93 1.57 3.5 3.5 3.5h7c1.272 0 2.446-.691 3.062-1.805.135-.242.437-.326.68-.195.241.134.329.438.195.68zm-5.937-1.68h-3c-.276 0-.5.224-.5.5s.224.5.5.5h3c.276 0 .5-.224.5-.5s-.224-.5-.5-.5zm.5-11c0 1.103-.897 2-2 2s-2-.897-2-2 .897-2 2-2 2 .897 2 2zm-1 0c0-.552-.448-1-1-1s-1 .448-1 1 .448 1 1 1 1-.448 1-1zm3.64-.987-.233.138c.063.299.094.575.094.85s-.03.551-.095.851l.234.138c.704.393.955 1.367.532 2.053-.394.704-1.365.956-2.054.532l-.223-.131c-.407.34-.881.606-1.396.786v.271c0 .827-.673 1.5-1.5 1.5-1.101 0-1.5-.897-1.5-1.5v-.271c-.515-.18-.988-.446-1.396-.786l-.223.131c-.688.424-1.66.172-2.055-.533-.422-.685-.17-1.659.533-2.053l.233-.138c-.063-.299-.094-.575-.094-.85s.03-.551.095-.851l-.234-.138c-.704-.393-.955-1.367-.532-2.053.394-.703 1.367-.957 2.054-.532l.223.131c.407-.34.881-.606 1.396-.786v-.271c0-.827.673-1.5 1.5-1.5 1.101 0 1.5.897 1.5 1.5v.271c.515.18.988.446 1.396.786l.223-.131c.689-.425 1.659-.171 2.055.533.422.685.17 1.659-.533 2.053zm-1.063-.536.556-.326c.234-.13.318-.456.178-.684-.13-.236-.458-.319-.685-.179l-.54.318c-.197.116-.448.084-.607-.077-.431-.432-.984-.743-1.604-.903-.221-.058-.375-.257-.375-.484v-.642c-.006-.225-.098-.5-.5-.5-.275 0-.5.225-.5.5v.642c0 .228-.154.427-.375.484-.619.16-1.173.472-1.604.903-.159.162-.41.194-.607.077l-.54-.318c-.228-.142-.553-.057-.684.178-.142.229-.058.552.177.684l.557.328c.196.115.289.349.227.567-.103.361-.15.665-.15.955s.048.594.15.955c.062.219-.031.452-.228.568l-.556.326c-.234.13-.318.456-.178.684.13.236.458.32.685.179l.54-.318c.195-.115.446-.085.607.077.431.432.984.743 1.604.903.221.058.375.257.375.484v.642c.006.225.098.5.5.5.275 0 .5-.225.5-.5v-.642c0-.228.154-.427.375-.484.619-.16 1.173-.472 1.604-.903.16-.161.411-.192.607-.077l.54.318c.226.139.554.058.684-.178.142-.229.058-.552-.177-.684l-.557-.328c-.196-.115-.289-.349-.227-.567.103-.361.15-.665.15-.955s-.048-.594-.15-.955c-.062-.219.031-.452.228-.568zm12.37-3.253-3.648 7.296 1.501.808c.885.475 1.359 1.491 1.152 2.473-.336 1.59-1.054 3.192-2.133 4.764-.378.551-1 .86-1.646.86-.347.015-.74-.132-1.064-.26-.316-.12-.561-.357-.691-.669-.131-.313-.128-.673.009-.985.177-.402.319-.778.419-1.178-.827.685-1.62 1.104-2 1.287-.378.181-.813.164-1.163-.039-.701-.408-1.419-.876-2.077-1.352-.437-.316-.717-.806-.768-1.344-.052-.546.136-1.089.513-1.489 1.005-1.066 1.92-2.222 2.647-3.34.657-1.011 1.942-1.346 2.985-.784l1.436.773 3.635-7.269c.124-.246.424-.347.671-.224.247.124.347.424.224.671zm-2.621 8.985-3.818-2.056c-.586-.316-1.303-.121-1.673.448-.77 1.185-1.697 2.355-2.757 3.48-.181.191-.271.45-.246.71.024.255.151.478.358.627.632.457 1.321.906 1.994 1.298.089.052.182.022.229 0 .482-.231 1.714-.894 2.709-2.045.137-.159.359-.214.553-.142.195.073.325.26.325.469 0 1.172-.264 2.012-.658 2.912-.047.122-.018.257.121.318l.365.135c.428.154.91.005 1.167-.367 1.004-1.462 1.67-2.943 1.979-4.404.115-.549-.15-1.118-.646-1.385z"/></svg>