<?xml version="1.0" encoding="UTF-8"?>
<svg xmlns="http://www.w3.org/2000/svg" id="Layer_1" data-name="Layer 1" viewBox="0 0 24 24">
  <path d="M6.286,10.316c.945,.924,2.483,.924,3.429,0l1.821-1.78c1.94-1.861,1.94-5.211,0-7.072C9.673-.475,6.325-.475,4.465,1.464c-1.945,1.87-1.94,5.213,.013,7.084l1.808,1.769ZM5.172,2.171c1.488-1.551,4.167-1.551,5.656,0,1.551,1.487,1.552,4.169,.004,5.654l-1.817,1.776c-.56,.547-1.471,.547-2.03,0l-1.804-1.765c-1.56-1.495-1.565-4.171-.009-5.666Zm2.828,4.829c1.103,0,2-.897,2-2s-.897-2-2-2-2,.897-2,2,.897,2,2,2Zm0-3c.551,0,1,.448,1,1s-.449,1-1,1-1-.448-1-1,.449-1,1-1Zm16,2.997s-2.007,4.037-2,4.5c.009,.575,0,1.5,0,2.5,0,.5-.34,.805-.55,1.171-.378,.657-1.004,1.39-1.355,2.059-.155,.301-.17,.741-.056,1.037,.257,.656,.58,1.265,.915,1.89,.14,.261,.251,.528,.309,.813,.209,.894-1.041,1.412-1.552,.677-.345-.469-.711-1.141-.711-1.647,0-1-1.383-1-2-1-.419,0-.662,.175-.804,.379-.274,.394-.73,.621-1.21,.621h-.987c-.331,.24-.907,1.978-1.356,3-.328,.745-1.319,.872-1.828,.255-.324-.391-.635-1.355-.816-1.716-.169-.339-.731-.469-1.217-.517-.601-.048-1.047-.492-1.283-1.021-.508-.896-2.423-1.821-4-2-.699-.038-1.545,.549-1.989-.31-.813-1.482-1.511-3.467-1.511-5.171v-1.256c0-.823,.246-2.261,.588-3.655,.177-.65,1.087-.307,.943,.295-.339,1.414-.53,2.61-.53,3.36v1.256c0,1.578,.704,3.433,1.37,4.656,.422-.156,.82-.215,1.243-.169,1.716,.195,4.023,1.206,4.757,2.5,.117,.215,.235,.504,.512,.519,1.033,.102,1.71,.46,2.013,1.065,.066,.131,.569,1.378,.692,1.526,.031,.06,.144,.018,.142-.019,.134-.306,1.262-3.106,1.692-3.413,.172-.123,.381-.185,.592-.185h.974c.16,0,.305-.072,.388-.191,.362-.521,.939-.809,1.625-.809,.924,0,1.576,.151,2.031,.388-.128-.51-.072-1.146,.179-1.623,.221-.422,1.79-2.712,1.79-2.765,0,0,.006-2.118,0-2.485-.004-.243-.01-.691,2-4.75v-.45c-.007-.017-.015-.036-.023-.055-.11,.763-.548,1.337-1.225,1.593-.126,.048-.239,.135-.327,.253-.746,1.001-1.276,1.668-1.574,1.984-.818,.952-2.845,.952-2.852-.59v-1.138c0-.353-.239-.663-.581-.752-.463-.121-.884-.228-1.266-.321-.266-.065-.428-.332-.363-.598,0-.003,.002-.006,.002-.01,.065-.266,.332-.428,.597-.364,.443,.108,.889,.222,1.286,.326,.781,.205,1.324,.912,1.324,1.719v1.138c.068,.559,.911,.128,1.125-.096,.35-.371,1.061-1.307,1.499-1.895,.198-.266,.465-.473,.775-.59,.365-.138,.568-.442,.601-.918,.015-.217-.006-.842-.013-1.35-.028-.659,.927-.892,1.217-.31,.344,.649,.795,1.78,.795,1.78v.88Z"/>
</svg>
