<?xml version="1.0" encoding="UTF-8"?>
<svg xmlns="http://www.w3.org/2000/svg" id="Layer_1" data-name="Layer 1" viewBox="0 0 24 24">
  <path d="M18.5,16c-1.103,0-2,.897-2,2s.897,2,2,2,2-.897,2-2-.897-2-2-2Zm0,3c-.551,0-1-.448-1-1s.449-1,1-1,1,.448,1,1-.449,1-1,1Zm5.332-2.904c.218-.776-.292-1.642-1.076-1.828-.387-.102-.791-.044-1.137,.159l-.223,.131c-.408-.34-.881-.606-1.396-.786v-.271c0-.827-.673-1.5-1.5-1.5s-1.5,.673-1.5,1.5v.271c-.515,.18-.988,.446-1.396,.786l-.223-.131c-.345-.203-.748-.261-1.137-.159-.785,.187-1.294,1.053-1.076,1.828,.101,.389,.347,.714,.692,.916l.234,.138c-.064,.3-.094,.576-.094,.851s.03,.551,.094,.85l-.234,.138c-.345,.203-.591,.528-.691,.916-.218,.777,.291,1.642,1.076,1.829,.389,.103,.792,.044,1.137-.159l.223-.131c.408,.34,.881,.606,1.396,.786v.271c0,.827,.673,1.5,1.5,1.5s1.5-.673,1.5-1.5v-.271c.515-.18,.988-.446,1.396-.786l.223,.131c.347,.203,.75,.262,1.137,.159,.785-.187,1.294-1.052,1.076-1.829-.101-.388-.346-.713-.692-.917l-.233-.137c.064-.299,.094-.575,.094-.85s-.03-.551-.094-.851l.233-.137c.346-.203,.591-.528,.692-.917Zm-1.982,.949c.103,.361,.151,.665,.151,.955s-.048,.594-.151,.955c-.062,.219,.031,.453,.228,.568l.556,.325c.563,.32,.048,1.201-.507,.863l-.541-.318c-.196-.116-.446-.084-.607,.077-.43,.432-.984,.743-1.603,.903-.221,.058-.375,.257-.375,.484v.642c0,.275-.224,.5-.5,.5s-.5-.225-.5-.5v-.642c0-.228-.154-.427-.375-.484-.619-.16-1.173-.472-1.603-.903-.096-.097-.225-.146-.354-.146-.087,0-.175,.022-.253,.069l-.541,.318c-.554,.337-1.07-.543-.507-.862l.556-.326c.197-.115,.291-.35,.228-.568-.103-.361-.151-.665-.151-.955s.048-.594,.151-.955c.062-.219-.031-.452-.228-.567l-.557-.328c-.564-.32-.045-1.198,.507-.861l.541,.318c.196,.116,.446,.084,.607-.077,.43-.432,.984-.743,1.603-.903,.221-.058,.375-.257,.375-.484v-.642c0-.275,.224-.5,.5-.5s.5,.225,.5,.5v.642c0,.228,.154,.427,.375,.484,.619,.16,1.173,.472,1.603,.903,.161,.161,.412,.193,.607,.077l.541-.318c.553-.337,1.071,.542,.507,.862l-.556,.327c-.196,.115-.29,.349-.228,.567Zm-9.349,5.955H4.5c-1.93,0-3.5-1.57-3.5-3.5v-7.5H14.5c.276,0,.5-.224,.5-.5s-.224-.5-.5-.5H1v-1.5c0-1.93,1.57-3.5,3.5-3.5h3.028c.231,0,.464,.055,.671,.158l3.156,1.578c.345,.173,.732,.264,1.118,.264h7.028c1.93,0,3.5,1.57,3.5,3.5,0,.276,.224,.5,.5,.5s.5-.224,.5-.5c0-2.481-2.019-4.5-4.5-4.5h-.5v-1.758c0-.922-.374-1.823-1.025-2.475l-1.742-1.742c-.662-.661-1.541-1.025-2.475-1.025h-5.257c-1.93,0-3.5,1.57-3.5,3.5v1.5h-.5C2.019,5,0,7.019,0,9.5v10c0,2.481,2.019,4.5,4.5,4.5H12.5c.276,0,.5-.224,.5-.5s-.224-.5-.5-.5ZM17.268,3.475c.156,.155,.28,.336,.388,.525h-2.156c-.276,0-.5-.225-.5-.5V1.342c.188,.109,.368,.233,.525,.391l1.742,1.742Zm-11.268,.025c0-1.379,1.122-2.5,2.5-2.5h5.257c.082,0,.162,.016,.243,.024V3.5c0,.827,.673,1.5,1.5,1.5h2.476c.008,.081,.024,.161,.024,.242v1.758h-5.528c-.231,0-.464-.055-.671-.158l-3.156-1.578c-.345-.173-.732-.264-1.118-.264h-1.528v-1.5Z"/>
</svg>
