<svg id="Layer_1" viewBox="0 0 24 24" xmlns="http://www.w3.org/2000/svg" data-name="Layer 1"><path d="m22.105 15.247-9.316-10.247.209-3.675c.024-.462-.204-.898-.598-1.14-.391-.239-.882-.245-1.281-.016-.235.136-.475.322-.738.529-.735.58-1.649 1.301-3.382 1.301-1.422 0-2.585-.799-3.435-1.383-.254-.174-.482-.33-.686-.447-.398-.232-.889-.225-1.281.016-.394.241-.622.678-.597 1.142l1.017 17.923c.127 2.664 2.315 4.75 4.981 4.75s4.854-2.086 4.981-4.745l.213-3.743 5.054 4.594c.659.599 1.487.896 2.314.896.881 0 1.761-.339 2.432-1.01 1.3-1.3 1.35-3.385.113-4.745zm-19.984-14.209c.029-.018.075-.039.131-.039.038 0 .081.01.126.036.184.106.39.249.62.406.958.658 2.269 1.559 4.001 1.559 2.079 0 3.19-.876 4.001-1.516.222-.174.421-.334.619-.449.115-.064.211-.026.258.003.039.023.129.095.122.232l-.12 2.12c-.632.538-2.217 1.609-4.86 1.609-2.756 0-4.396-1.205-4.901-1.642l-.118-2.085c-.008-.14.083-.211.121-.234zm4.878 21.962c-2.131 0-3.88-1.668-3.982-3.802l-.825-14.544c.954.62 2.551 1.345 4.827 1.345 2.248 0 3.83-.708 4.787-1.321l-.825 14.524c-.102 2.129-1.851 3.797-3.982 3.797zm14.286-3.715c-.923.924-2.401.957-3.366.08l-5.654-5.139.444-7.828 8.655 9.52c.877.966.843 2.444-.08 3.366zm-13.286-9.285c0 .552-.448 1-1 1s-1-.448-1-1 .448-1 1-1 1 .448 1 1z"/></svg>