<?xml version="1.0" encoding="UTF-8"?>
<svg xmlns="http://www.w3.org/2000/svg" id="Layer_1" data-name="Layer 1" viewBox="0 0 24 24">
  <path d="m23.5,24h-6.543c-1.079,0-1.957-.878-1.957-1.957,0-.806.498-1.535,1.239-1.816,4.106-1.561,6.761-5.183,6.761-9.227,0-5.514-4.935-10-11-10S1,5.486,1,11c0,4.044,2.654,7.665,6.762,9.227.74.281,1.238,1.012,1.238,1.816,0,1.079-.878,1.957-1.958,1.957H.5c-.276,0-.5-.224-.5-.5s.224-.5.5-.5h6.542c.528,0,.958-.43.958-.957,0-.393-.238-.746-.593-.881C2.907,19.451,0,15.463,0,11,0,4.935,5.383,0,12,0s12,4.935,12,11c0,4.463-2.907,8.451-7.406,10.162-.355.134-.594.488-.594.881,0,.527.43.957.957.957h6.543c.276,0,.5.224.5.5s-.224.5-.5.5Z"/>
</svg>
