<?xml version="1.0" encoding="UTF-8"?>
<svg xmlns="http://www.w3.org/2000/svg" id="Layer_1" data-name="Layer 1" viewBox="0 0 24 24">
  <path d="M10,6c0-.552,.448-1,1-1s1,.448,1,1-.448,1-1,1-1-.448-1-1Zm-6,.813c0-.273,.097-.542,.271-.757,1.033-1.258,2.499-1.999,4.046-2.053,1.67-1.351,3.799-2.605,6.503-3.831,1.213-.606,2.613,.792,2.006,2.006-1.203,2.658-2.457,4.787-3.829,6.502-.054,1.549-.795,3.015-2.052,4.046-.216,.176-.485,.273-.759,.273-.654,0-1.187-.532-1.187-1.187v-1.521l-.793-.793-1.354,1.354c-.195,.195-.512,.195-.707,0s-.195-.512,0-.707l1.354-1.354-.793-.793h-1.521c-.654,0-1.187-.532-1.187-1.187Zm1,0c0,.103,.084,.187,.187,.187h1.728c.133,0,.26,.053,.354,.146l2.586,2.586c.094,.094,.146,.221,.146,.354v1.728c0,.148,.189,.242,.312,.14,1.073-.88,1.688-2.139,1.688-3.453,0-.115,.04-.227,.112-.316,1.359-1.669,2.604-3.769,3.804-6.418h0c.169-.549-.237-.83-.684-.683-2.696,1.223-4.794,2.466-6.414,3.802-.09,.074-.202,.114-.318,.114-1.313,0-2.573,.616-3.454,1.689-.029,.036-.046,.08-.046,.124Zm18.181,5.841c-.982-.926-2.66-.853-3.548,.166l-3.742,4.112c-.313-1.111-1.324-1.932-2.533-1.932H3.5c-1.93,0-3.5,1.57-3.5,3.5v5c0,.276,.224,.5,.5,.5s.5-.224,.5-.5v-5c0-1.379,1.121-2.5,2.5-2.5H13.357c.905,0,1.643,.737,1.643,1.643,0,.812-.605,1.511-1.398,1.624l-6.161,.737c-.274,.032-.47,.281-.437,.556,.032,.274,.282,.474,.556,.437l6.172-.738c1.016-.145,1.828-.873,2.133-1.811,.002-.002,.004-.003,.006-.005l4.503-4.949c.536-.608,1.543-.669,2.134-.1,.609,.556,.658,1.507,.11,2.121l-6.806,7.64c-.184,.207-.166,.522,.04,.706,.206,.183,.522,.166,.706-.04l6.806-7.64c.911-1.021,.829-2.604-.183-3.526Z"/>
</svg>
