<svg id="Layer_1" viewBox="0 0 24 24" xmlns="http://www.w3.org/2000/svg" data-name="Layer 1"><path d="m7.221 22.429c-.074.084.074-.074 0 0zm16.779-12.859c0 1.312-1.025 2.408-2.334 2.497-2.54.171-5.05.623-5.677.741-.186.189-1.864 2.045-2.598 2.892-1.525 1.76-3.634 4.177-6.171 6.729-1.325 1.325-2.24 1.569-3.563 1.571-.789 0-1.529-.3-2.074-.845l-.641-.64c-.631-.633-.956-1.401-.939-2.223.025-1.266.289-2.249 1.561-3.521 1.521-1.521 3.669-3.291 5.746-5.001 1.711-1.41 3.331-2.744 4.354-3.746.062-.575.255-2.576.316-5.579.029-1.349 1.154-2.446 2.508-2.446.678 0 1.312.266 1.788.749.475.484.73 1.125.719 1.805-.005.292-.012.607-.022.94l2.76-2.761c.946-.945 2.594-.943 3.535 0 .473.472.732 1.1.732 1.768s-.26 1.295-.732 1.767l-2.9 2.9c.293-.038.608-.07.946-.096.686-.056 1.375.187 1.883.658.511.474.804 1.145.804 1.841zm-7.53.081 6.091-6.091c.283-.283.439-.66.439-1.06s-.156-.777-.439-1.061c-.566-.566-1.555-.567-2.121 0l-3.525 3.526c-.075 1.493-.208 3.163-.445 4.685zm-5.204.1c-.951.839-2.113 1.796-3.32 2.791-2.059 1.696-4.188 3.449-5.675 4.937-1.147 1.147-1.249 1.898-1.268 2.834-.012.551.206 1.054.646 1.495l.641.64c.356.356.84.552 1.362.552.962-.002 1.664-.109 2.804-1.221 2.211-2.394 4.045-9.005 4.81-12.027zm4.728-7.214c.007-.41-.146-.795-.433-1.086-.285-.291-.667-.45-1.074-.45-.814 0-1.49.658-1.508 1.467-.073 3.565-.329 5.729-.349 5.887 0 .004-1.358 6.042-3.156 10.26 1.222-1.331 2.257-2.525 3.162-3.569.723-.835 1.378-1.591 1.983-2.247 1.082-2.289 1.326-7.401 1.375-10.262zm7.006 7.034c0-.425-.172-.819-.483-1.108-.309-.285-.701-.425-1.127-.394-.979.074-1.767.204-2.301.378l-2.959 2.959c-.031.129-.063.255-.096.378.897-.163 3.219-.556 5.567-.714.785-.053 1.4-.711 1.4-1.499z"/></svg>