<?xml version="1.0" encoding="UTF-8"?>
<svg xmlns="http://www.w3.org/2000/svg" id="Layer_1" data-name="Layer 1" viewBox="0 0 24 24">
  <path d="M15.648,16.992c.195,.195,.195,.512,0,.707s-.512,.195-.707,0L6.313,9.071c-.195-.195-.195-.512,0-.707s.512-.195,.707,0l8.628,8.628ZM9.071,6.313c-.195-.195-.512-.195-.707,0s-.195,.512,0,.707l8.628,8.628c.195,.195,.512,.195,.707,0s.195-.512,0-.707L9.071,6.313Zm-2.744,11.349c.45,.45,1.182,.45,1.632,0,.331-.33,.604-1.369,.707-1.801,.103-.487-.043-.651-.54-.539-.431,.102-1.469,.377-1.8,.707-.435,.434-.437,1.196,0,1.633ZM21.95,2.05c-2.73-2.729-7.172-2.729-9.9,0-.495,.496-.987,1.283-1.504,2.407-.115,.251-.006,.548,.245,.663,.249,.116,.548,.006,.663-.245,.46-1.001,.898-1.713,1.303-2.118,2.339-2.34,6.146-2.34,8.486,0,2.339,2.339,2.339,6.146,0,8.485-.405,.405-1.118,.843-2.118,1.303-.251,.115-.36,.412-.245,.663,.115,.254,.418,.359,.663,.245,1.123-.517,1.911-1.008,2.407-1.504,2.729-2.729,2.729-7.17,0-9.899Zm-4.95,9.307c1.305-.419,2.436-1.15,2.828-1.528,1.552-1.49,1.552-4.168,0-5.657-1.51-1.511-4.146-1.511-5.656,0-.423,.423-.909,1.284-1.487,2.631-.109,.254,.008,.548,.262,.657,.251,.107,.547-.008,.656-.262,.648-1.509,1.052-2.094,1.276-2.319,1.133-1.133,3.109-1.133,4.242,0,1.164,1.117,1.164,3.126,0,4.243-.225,.224-.809,.627-2.318,1.276-.254,.109-.371,.403-.262,.657,.081,.189,.266,.303,.459,.303Zm-3.791,7.523c-.248-.114-.548-.007-.663,.245-.461,1.001-.899,1.714-1.303,2.118-2.34,2.339-6.146,2.338-8.486,0C.418,18.903,.418,15.097,2.757,12.757c.405-.405,1.118-.843,2.118-1.303,.251-.115,.36-.412,.245-.663-.115-.251-.415-.361-.663-.245-1.123,.517-1.911,1.008-2.407,1.504-2.729,2.729-2.729,7.17,0,9.9,1.365,1.364,3.157,2.047,4.95,2.047s3.586-.683,4.95-2.047c.495-.496,.986-1.283,1.504-2.407,.115-.251,.006-.548-.245-.663Zm-6.406-6.196c-1.349,.579-2.209,1.066-2.631,1.488-1.552,1.488-1.552,4.168,0,5.656,1.488,1.552,4.168,1.552,5.656,0,.422-.422,.909-1.282,1.487-2.631,.109-.254-.008-.548-.262-.656-.254-.111-.548,.007-.656,.262-.648,1.51-1.053,2.094-1.276,2.318-1.133,1.133-3.109,1.133-4.242,0-1.164-1.116-1.164-3.126,0-4.242,.225-.224,.809-.628,2.318-1.276,.254-.108,.371-.402,.262-.656-.108-.254-.403-.369-.656-.262Zm10.86-6.356c-.437-.438-1.199-.436-1.633,0-.33,.33-.604,1.368-.707,1.8-.112,.497,.053,.642,.539,.54,.432-.102,1.47-.376,1.801-.707,.45-.45,.45-1.183,0-1.632Z"/>
</svg>
