<svg id="Layer_1" viewBox="0 0 24 24" xmlns="http://www.w3.org/2000/svg" data-name="Layer 1"><path d="m12 0c-6.617 0-12 5.383-12 12s5.383 12 12 12 12-5.383 12-12-5.383-12-12-12zm8.029 19.495c-1.14.335-2.328.505-3.529.505-6.893 0-12.5-5.607-12.5-12.5 0-1.169.162-2.329.48-3.445.006-.022.002-.044.005-.066 1.154-1.083 2.538-1.922 4.074-2.43-.365 1.107-.56 2.259-.56 3.441 0 6.065 4.935 11 11 11 1.182 0 2.335-.194 3.441-.559-.505 1.528-1.338 2.904-2.412 4.054zm2.49-10.706c-.495.129-1.002.211-1.519.211-3.309 0-6-2.691-6-6 0-.517.082-1.024.211-1.519 3.487 1.067 6.241 3.821 7.308 7.308zm-8.273-7.557c-.151.577-.246 1.167-.246 1.768 0 3.86 3.141 7 7 7 .602 0 1.192-.095 1.768-.246.151.725.232 1.476.232 2.246 0 .777-.083 1.534-.237 2.266-1.194.486-2.46.734-3.763.734-5.514 0-10-4.486-10-10 0-1.303.249-2.568.734-3.763.732-.154 1.489-.237 2.266-.237.77 0 1.521.081 2.246.232zm-13.246 10.768c0-2.437.806-4.684 2.153-6.509-.099.663-.153 1.334-.153 2.009 0 7.444 6.056 13.5 13.5 13.5.674 0 1.344-.052 2.006-.151-1.825 1.345-4.07 2.151-6.506 2.151-6.065 0-11-4.935-11-11z"/></svg>