<svg id="Layer_1" viewBox="0 0 24 24" xmlns="http://www.w3.org/2000/svg" data-name="Layer 1"><path d="m12.5 5h-2c-1.978 0-2.5 1.635-2.5 2.5 0 .276.224.5.5.5h2c1.978 0 2.5-1.635 2.5-2.5 0-.276-.224-.5-.5-.5zm-2 2h-1.423c.131-.445.483-1 1.423-1h1.423c-.131.445-.483 1-1.423 1zm12.079 2.137c-.323-1.291-.579-2.31-.579-3.137 0-1.454.655-2.485.965-3.806.104-.455-.03-.928-.36-1.265-.342-.349-.828-.497-1.311-.4-.397.067-.935.418-1.294.47-2.302-.05-5.071-1.035-7.5-1-4.195.001-8.155 3.883-8.325 8.066-2.216.305-3.617 1.8-4.045 3.293-.209.73-.186 1.496.065 2.153.174.499.856.677 1.236.298.566-.536 1.431-.809 2.568-.809h1.191c.411.86.809 2.227.809 3.5-.022 1.733-1.119 3.489-1.826 4.96-.71 1.352.769 2.997 2.181 2.44 2.914-1.01 4.798-3.692 5.619-4.861.043-.081.088-.076.126-.028l2.524 3.376c.838 1.033 2.644.684 3.037-.591.33-.943.349-2.839.339-4.699.003-.079.054-.124.14-.084 1.169.689 2.232 2.144 3.311 2.776 1.127.664 2.654-.306 2.548-1.606-.186-4.128-.898-6.97-1.419-9.045zm-16.842 2.863h-1.737c-1.231 0-2.227.281-2.963.835-.08-.38-.062-.796.054-1.203.37-1.288 1.684-2.586 3.796-2.632l1.882.921c.365.211.344.653.126.913zm16.917 6.889c-.227.141-.489.149-.725.022-1.031-.668-2.078-2.053-3.266-2.75-.727-.427-1.694.115-1.663.941.006 1.225.018 3.504-.283 4.364-.159.55-.959.711-1.316.292l-2.518-3.368c-.464-.553-1.34-.51-1.744.098-.749 1.066-2.503 3.562-5.111 4.467-.617.246-1.262-.481-.949-1.067.77-1.592 1.898-3.399 1.922-5.388 0-1.274-.343-2.602-.75-3.577.039-.023 1.407-1.444 1.407-1.444.628-.694.519-1.848-.301-2.37-.031-.02-2.166-1.063-2.18-1.069.183-3.66 3.65-7.041 7.323-7.041 2.403-.023 5.181.974 7.5 1 .483.011 1.047-.374 1.497-.491.276-.042.541.129.493.461-.34 1.368-.991 2.409-.99 4.029 0 .951.269 2.023.609 3.381.51 2.034 1.209 4.819 1.391 8.847.012.271-.118.518-.347.661z"/></svg>