<svg id="Layer_1" viewBox="0 0 24 24" xmlns="http://www.w3.org/2000/svg" data-name="Layer 1"><path d="m11 23h-6.5c-1.93 0-3.5-1.57-3.5-3.5v-7c0-1.93 1.57-3.5 3.5-3.5h10c.594 0 1.18.151 1.694.437.238.133.545.048.681-.194.134-.241.047-.546-.194-.68-.217-.121-.447-.215-.681-.298v-1.765c0-3.584-2.916-6.5-6.5-6.5s-6.5 2.916-6.5 6.5v1.776c-1.742.621-3 2.271-3 4.224v7c0 2.481 2.019 4.5 4.5 4.5h6.5c.276 0 .5-.224.5-.5s-.224-.5-.5-.5zm-7-16.5c0-3.033 2.467-5.5 5.5-5.5s5.5 2.467 5.5 5.5v1.532c-.166-.019-.332-.032-.5-.032h-10c-.171 0-.334.032-.5.051zm5.5 8.5c.276 0 .5.224.5.5v2c0 .276-.224.5-.5.5s-.5-.224-.5-.5v-2c0-.276.224-.5.5-.5zm8-4c-3.584 0-6.5 2.916-6.5 6.5s2.916 6.5 6.5 6.5 6.5-2.916 6.5-6.5-2.916-6.5-6.5-6.5zm0 12c-3.032 0-5.5-2.468-5.5-5.5s2.468-5.5 5.5-5.5 5.5 2.468 5.5 5.5-2.468 5.5-5.5 5.5zm2.854-7.646-2.146 2.146 2.146 2.146c.195.195.195.512 0 .707s-.512.195-.707 0l-2.146-2.146-2.146 2.146c-.195.195-.512.195-.707 0s-.195-.512 0-.707l2.146-2.146-2.146-2.146c-.195-.195-.195-.512 0-.707s.512-.195.707 0l2.146 2.146 2.146-2.146c.195-.195.512-.195.707 0s.195.512 0 .707z"/></svg>