<svg id="Layer_1" viewBox="0 0 24 24" xmlns="http://www.w3.org/2000/svg" data-name="Layer 1"><path d="m5.604 7.396-1.263-.421c-.204-.068-.342-.26-.342-.475s.138-.406.342-.475l1.263-.421.421-1.263c.066-.199.25-.336.46-.342.206 0 .401.119.479.314l.515 1.29 1.188.425c.201.071.334.263.332.476-.002.214-.14.402-.342.47l-1.263.421-.421 1.263c-.068.204-.26.342-.475.342s-.406-.138-.475-.342l-.421-1.263zm-2.472 4.014c-.43.102-.878-.032-1.193-.348-.316-.316-.447-.762-.349-1.193.134-.589.349-1.128.633-1.596-.533-.127-1.075-.353-1.602-.667-.39-.233-.622-.646-.622-1.105s.232-.873.622-1.105c.526-.314 1.068-.54 1.602-.667-.284-.467-.499-1.007-.633-1.596-.099-.431.032-.877.349-1.193.315-.316.764-.446 1.193-.348.588.134 1.127.349 1.595.633.154-.645.429-1.202.668-1.602.463-.777 1.745-.778 2.21 0 .239.399.513.956.667 1.601.468-.284 1.007-.499 1.595-.633.433-.099.878.032 1.193.348.316.316.447.762.349 1.193-.134.589-.349 1.128-.633 1.596.533.127 1.075.353 1.602.667.39.233.622.646.622 1.105s-.232.873-.622 1.105c-.526.314-1.068.54-1.602.667.284.467.499 1.007.633 1.596.099.431-.032.877-.349 1.193-.315.316-.761.449-1.193.348-.446-.102-1.029-.289-1.595-.633-.128.533-.353 1.075-.668 1.602-.231.389-.645.622-1.104.622s-.873-.233-1.105-.623c-.314-.526-.539-1.068-.667-1.601-.565.344-1.148.531-1.595.633zm-.223-.975c.521-.119 1.266-.377 1.853-.933.144-.136.355-.174.535-.099.183.076.303.251.309.449.021.805.363 1.539.646 2.013.073.122.197.135.247.135s.174-.013.246-.134c.284-.475.626-1.209.647-2.014.006-.197.126-.373.309-.449.182-.074.393-.037.535.099.587.555 1.331.813 1.853.933.136.033.23-.045.264-.08.035-.035.111-.129.081-.265-.119-.521-.377-1.266-.933-1.852-.136-.144-.174-.353-.099-.536.075-.182.251-.303.448-.309.806-.021 1.539-.364 2.013-.647.122-.073.136-.197.136-.247s-.014-.174-.136-.247c-.474-.283-1.207-.625-2.013-.647-.197-.005-.373-.126-.448-.309s-.037-.392.099-.536c.556-.585.813-1.33.933-1.852.03-.135-.046-.23-.081-.265-.033-.034-.128-.11-.264-.08-.521.119-1.267.377-1.853.932-.144.135-.354.173-.535.099-.183-.076-.303-.251-.309-.449-.021-.805-.363-1.539-.646-2.013-.073-.122-.197-.135-.247-.135s-.174.013-.246.134c-.284.475-.626 1.208-.647 2.014-.006.197-.126.373-.309.449-.182.074-.393.036-.535-.099-.586-.555-1.331-.813-1.853-.932-.132-.03-.229.046-.264.08-.035.035-.111.129-.081.265.119.521.377 1.266.933 1.852.136.144.174.353.099.536-.075.182-.251.303-.448.309-.806.021-1.539.364-2.013.647-.122.073-.136.197-.136.247s.014.174.136.247c.474.283 1.207.625 2.013.647.197.005.373.126.448.309s.037.392-.099.536c-.556.585-.813 1.33-.933 1.852-.03.135.046.23.081.265.034.035.132.113.264.08zm16.99 2.565h-.44c.032.079.061.164.098.235.402.773.533 1.644.378 2.517-.329 1.852-2.07 3.248-4.051 3.248h-3.886v4h5.5c.276 0 .5.224.5.5s-.224.5-.5.5h-11.998c-.276 0-.5-.224-.5-.5s.224-.5.5-.5h5.5v-4h-3.886c-1.98 0-3.722-1.396-4.051-3.248-.079-.447-.084-.894-.016-1.33.043-.273.303-.459.572-.416.272.043.459.299.416.572-.052.326-.048.662.012 1 .246 1.381 1.564 2.422 3.066 2.422h8.773c1.502 0 2.82-1.042 3.066-2.423.116-.654.02-1.305-.28-1.88-.592-1.135-.672-3.145-.672-4.697h-3.5c-.276 0-.5-.224-.5-.5s.224-.5.5-.5h3.593c.1-.453.268-.938.45-1.445.163-.453.332-.922.427-1.33.07-.299 0-.608-.189-.849-.189-.239-.474-.376-.78-.376h-4.5c-.276 0-.5-.224-.5-.5s.224-.5.5-.5h4.5c.613 0 1.184.275 1.564.755.381.481.52 1.1.38 1.698-.042.178-.1.363-.158.547 2.567 0 4.214 1.148 4.214 3.071 0 2.129-1.877 3.929-4.1 3.929zm0-1c1.651 0 3.1-1.369 3.1-2.929 0-1.802-1.942-2.071-3.1-2.071h-.454c-.226.628-.447 1.264-.447 1.692v.577c0 .593.004 1.728.184 2.731h.716z"/></svg>