<svg id="Layer_1" viewBox="0 0 24 24" xmlns="http://www.w3.org/2000/svg" data-name="Layer 1"><path d="m5 4c0 .552-.448 1-1 1s-1-.448-1-1 .448-1 1-1 1 .448 1 1zm2-1c-.552 0-1 .448-1 1s.448 1 1 1 1-.448 1-1-.448-1-1-1zm17 13c0 1.255-.593 2.363-1.5 3.097v4.009c0 .362-.216.687-.551.825-.332.138-.716.064-.974-.194l-.975-.975-.975.975c-.256.257-.639.332-.974.194-.335-.139-.551-.463-.551-.825v-4.009c-.907-.734-1.5-1.842-1.5-3.097 0-2.206 1.794-4 4-4s4 1.794 4 4zm-2.5 3.702c-.464.189-.969.298-1.5.298s-1.036-.109-1.5-.298v3.146l1.146-1.146c.195-.195.512-.195.707 0l1.146 1.146v-3.146zm1.5-3.702c0-1.657-1.343-3-3-3s-3 1.343-3 3 1.343 3 3 3 3-1.343 3-3zm-16-1c-1.378 0-2.5-1.122-2.5-2.5s1.122-2.5 2.5-2.5 2.5 1.122 2.5 2.5-1.122 2.5-2.5 2.5zm0-1c.827 0 1.5-.673 1.5-1.5s-.673-1.5-1.5-1.5-1.5.673-1.5 1.5.673 1.5 1.5 1.5zm-3.942 4.268c-.129.244-.035.546.21.675.246.13.547.035.675-.21.553-1.052 1.753-1.732 3.058-1.732s2.504.68 3.058 1.732c.129.247.435.337.675.21.245-.128.339-.431.21-.675-.724-1.377-2.271-2.268-3.942-2.268s-3.219.89-3.942 2.268zm20.942-13.768v6c0 .276-.224.5-.5.5s-.5-.224-.5-.5v-2.5h-22v9.5c0 1.93 1.57 3.5 3.5 3.5h10.5c.276 0 .5.224.5.5s-.224.5-.5.5h-10.5c-2.481 0-4.5-2.019-4.5-4.5v-13c0-2.481 2.019-4.5 4.5-4.5h15c2.481 0 4.5 2.019 4.5 4.5zm-1 0c0-1.93-1.57-3.5-3.5-3.5h-15c-1.93 0-3.5 1.57-3.5 3.5v2.5h22zm-12.5-1.5c-.552 0-1 .448-1 1s.448 1 1 1 1-.448 1-1-.448-1-1-1z"/></svg>