<svg id="Layer_1" viewBox="0 0 24 24" xmlns="http://www.w3.org/2000/svg" data-name="Layer 1"><path d="m19 14v2.5h2.5c.276 0 .5.224.5.5s-.224.5-.5.5h-2.5v3c0 .276-.224.5-.5.5s-.5-.224-.5-.5v-7c0-.276.224-.5.5-.5h3c.276 0 .5.224.5.5s-.224.5-.5.5zm-2.5 0c.276 0 .5-.224.5-.5s-.224-.5-.5-.5h-3c-.276 0-.5.224-.5.5v7c0 .276.224.5.5.5s.5-.224.5-.5v-3h2.5c.276 0 .5-.224.5-.5s-.224-.5-.5-.5h-2.5v-2.5zm-5.5-.5v7c0 .276.224.5.5.5s.5-.224.5-.5v-7c0-.276-.224-.5-.5-.5s-.5.224-.5.5zm-1 0c0-.276-.224-.5-.5-.5h-4c-.276 0-.5.224-.5.5s.224.5.5.5h1.501l.016 6.501c0 .276.225.499.5.499h.001c.276 0 .499-.226.499-.501l-.016-6.499h1.499c.276 0 .5-.224.5-.5zm12-3.515v.515c0 .276-.224.5-.5.5s-.5-.224-.5-.5v-.515c0-.335-.038-.663-.096-.985h-5.404c-1.378 0-2.5-1.121-2.5-2.5v-5.404c-.323-.058-.651-.096-.985-.096h-5.515c-1.93 0-3.5 1.57-3.5 3.5v15c0 1.93 1.57 3.5 3.5 3.5h11c.616 0 1.221-.162 1.75-.468.238-.138.545-.057.683.182.139.239.057.545-.182.684-.68.395-1.458.603-2.25.603h-11.001c-2.481 0-4.5-2.019-4.5-4.5v-15.001c0-2.481 2.019-4.5 4.5-4.5h5.515c1.737 0 3.369.677 4.596 1.904l3.485 3.484c1.228 1.229 1.904 2.861 1.904 4.597zm-1.38-1.985c-.273-.704-.682-1.354-1.231-1.904l-3.485-3.484c-.55-.55-1.199-.959-1.904-1.232v5.12c0 .827.673 1.5 1.5 1.5z"/></svg>