<svg id="Layer_1" viewBox="0 0 24 24" xmlns="http://www.w3.org/2000/svg" data-name="Layer 1"><path d="m23.93 14.755c-.337.568-.891 1.312-1.688 1.947l1.502 2.235c.154.229.093.54-.136.694-.226.153-.539.094-.694-.136l-1.5-2.232c-.365.202-.779.362-1.223.489l.592 2.639c.061.27-.109.537-.378.597-.263.061-.538-.107-.597-.378l-.599-2.668c-.232.026-.458.059-.709.059-.262 0-.5-.033-.741-.062l-.58 2.668c-.058.272-.332.441-.595.383-.27-.059-.441-.325-.383-.595l.576-2.65c-.432-.126-.836-.282-1.192-.48l-1.499 2.231c-.155.231-.467.289-.694.136-.229-.154-.29-.465-.136-.694l1.502-2.235c-.797-.635-1.351-1.38-1.688-1.948-.141-.237-.062-.544.175-.685.236-.141.544-.063.685.175.61 1.029 2.015 2.755 4.57 2.755s3.959-1.726 4.57-2.755c.141-.238.45-.315.685-.175.238.141.316.448.175.685zm-13.175-.685c-.236-.14-.543-.063-.685.175-.61 1.029-2.016 2.755-4.57 2.755s-3.96-1.726-4.57-2.755c-.142-.239-.448-.316-.685-.175-.238.141-.316.448-.175.685.337.568.891 1.313 1.688 1.948l-1.502 2.235c-.154.229-.093.54.136.694.226.153.539.094.694-.136l1.499-2.231c.356.198.76.354 1.192.48l-.576 2.65c-.059.27.113.536.383.595.263.059.537-.111.595-.383l.58-2.668c.242.028.479.062.741.062.25 0 .477-.033.709-.059l.599 2.668c.059.272.335.439.597.378.27-.061.439-.328.378-.597l-.592-2.638c.444-.127.859-.286 1.224-.489l1.5 2.232c.155.231.467.289.694.136.229-.154.29-.465.136-.694l-1.502-2.235c.797-.635 1.351-1.379 1.688-1.947.141-.237.062-.544-.175-.685zm-10.755-7.57c0-1.93 1.57-3.5 3.5-3.5h4c1.378 0 2.5 1.122 2.5 2.5v.5h6v-1.5c0-.276.224-.5.5-.5s.5.224.5.5v1.5h1v-1.5c0-.276.224-.5.5-.5s.5.224.5.5v1.5h1v-1.5c0-.276.224-.5.5-.5s.5.224.5.5v1.5h1v-1.5c0-.276.224-.5.5-.5s.5.224.5.5v1.5h.5c.276 0 .5.224.5.5s-.224.5-.5.5h-.5v1.5c0 .276-.224.5-.5.5s-.5-.224-.5-.5v-1.5h-1v1.5c0 .276-.224.5-.5.5s-.5-.224-.5-.5v-1.5h-1v1.5c0 .276-.224.5-.5.5s-.5-.224-.5-.5v-1.5h-1v1.5c0 .276-.224.5-.5.5s-.5-.224-.5-.5v-1.5h-6v.5c0 1.378-1.122 2.5-2.5 2.5h-4c-1.93 0-3.5-1.57-3.5-3.5zm1 0c0 1.378 1.122 2.5 2.5 2.5h4c.827 0 1.5-.673 1.5-1.5v-2c0-.827-.673-1.5-1.5-1.5h-4c-1.378 0-2.5 1.122-2.5 2.5z"/></svg>