<svg id="Layer_1" viewBox="0 0 24 24" xmlns="http://www.w3.org/2000/svg" data-name="Layer 1"><path d="m21.114 15.978c-.337.011-.66.162-.884.415l-.439.493-.664-.285c-.464-.201-.994-.099-1.35.257l-1.124 1.121c-.215.215-.531.288-.825.191-.583-.193-1.362-.498-2.242-.841-1.755-.686-3.793-1.48-5.585-1.942v-3.387c0-1.654-1.346-3-3-3h-1c-1.654 0-3 1.346-3 3v1.525c0 3.044.698 5.267 1.283 6.595.327.742.922 1.353 1.676 1.717 2.033.986 5.17 2.162 8.565 2.163h.012c1.648 0 4.216-.187 7.105-1.068.089-.025 2.188-.634 3.015-2.557.76-1.77.122-3.29-.657-4.055-.237-.232-.56-.364-.886-.343zm-18.114 2.522c0-1.379 1.122-2.5 2.5-2.5s2.5 1.121 2.5 2.5-1.122 2.5-2.5 2.5-2.5-1.121-2.5-2.5zm-1-6.5c0-1.103.897-2 2-2h1c1.103 0 2 .897 2 2v3.161c-.542-.103-1.048-.161-1.5-.161-1.392 0-2.587.823-3.151 2.003-.206-.988-.349-2.144-.349-3.478zm19.737 7.98c-.634 1.477-2.35 1.983-2.377 1.991-2.782.85-5.245 1.028-6.824 1.028h-.011c-2.2 0-4.287-.532-6.012-1.167 1.434-.438 2.487-1.758 2.487-3.333 0-.723-.221-1.395-.598-1.953 1.604.468 3.367 1.147 4.819 1.713.899.352 1.694.661 2.292.859.651.215 1.36.05 1.845-.432l1.124-1.121c.066-.066.163-.084.25-.048l.995.428c.197.085.427.033.571-.126l.679-.764c.087-.089.213-.117.322-.023.58.569.999 1.643.438 2.947zm-15.237-1.48c0 .552-.448 1-1 1s-1-.448-1-1 .448-1 1-1 1 .448 1 1zm17-15.5h-8.5v-.5c0-1.378-1.122-2.5-2.5-2.5h-1c-1.378 0-2.5 1.122-2.5 2.5v.5h-8.5c-.276 0-.5.224-.5.5s.224.5.5.5h8.503c.009.788.317 1.528.875 2.086l1.621 1.621v1.793c0 .276.224.5.5.5s.5-.224.5-.5v-1.793l1.621-1.621c.558-.558.866-1.298.875-2.086h8.503c.276 0 .5-.224.5-.5s-.224-.5-.5-.5zm-9.5.964c0 .534-.208 1.037-.586 1.415l-1.414 1.414-1.414-1.414c-.378-.378-.586-.88-.586-1.415v-1.464c0-.827.673-1.5 1.5-1.5h1c.827 0 1.5.673 1.5 1.5z"/></svg>