<svg id="Layer_1" viewBox="0 0 24 24" xmlns="http://www.w3.org/2000/svg" data-name="Layer 1"><path d="m9 11c0 3.416-.437 8.263-4.213 10.91-.087.061-.187.09-.287.09-.158 0-.312-.074-.41-.213-.158-.226-.104-.538.123-.697 3.395-2.379 3.787-6.898 3.787-10.09 0-1.192.707-2.272 1.8-2.75.253-.111.548.005.658.258.111.253-.004.547-.258.658-.729.319-1.2 1.039-1.2 1.834zm4.504 3.002c-.275-.021-.52.172-.549.446-.395 3.84-1.603 6.601-3.8 8.689-.2.19-.208.506-.018.707.098.104.23.156.362.156.124 0 .248-.045.344-.138 3.127-2.971 3.841-6.737 4.106-9.311.028-.275-.172-.521-.446-.549zm2.776 6.064c-.262-.095-.546.041-.64.301-.368 1.021-.818 1.99-1.337 2.881-.139.238-.058.544.18.684.08.046.166.068.251.068.172 0 .34-.089.433-.249.549-.943 1.025-1.967 1.413-3.045.094-.26-.041-.546-.301-.64zm1.052-5.063c-.271-.031-.523.163-.556.437-.073.61-.168 1.213-.281 1.793-.053.271.124.534.395.586.264.053.535-.122.586-.395.118-.603.216-1.23.292-1.865.033-.274-.163-.523-.437-.556zm-7.956-10.789c-1.328.338-2.518 1.062-3.441 2.091-.184.206-.167.521.039.706.095.085.214.127.333.127.137 0 .273-.056.372-.167.79-.881 1.808-1.5 2.943-1.789.268-.068.429-.34.361-.608s-.34-.432-.608-.361zm-4.357 6.328c.022-.275-.182-.517-.457-.54-.284-.017-.517.183-.54.457-.015.179-.022.359-.022.542 0 5.322-1.995 7.154-3.668 7.753-.26.093-.396.379-.302.639.093.263.386.395.639.302 1.618-.58 4.332-2.48 4.332-8.695 0-.155.006-.307.019-.458zm-4.519 3.458c.276 0 .5-.224.5-.5v-2.5c0-5.514 4.486-10 10-10 .16 0 .319.004.477.011.273.016.509-.2.523-.476.013-.276-.2-.51-.476-.523-.173-.008-.348-.012-.523-.012-6.066 0-11.001 4.935-11.001 11v2.5c0 .276.224.5.5.5zm20.975-1c-.271-.011-.51.2-.523.476-.176 3.678-.91 6.981-2.182 9.819-.113.252 0 .548.251.661.246.112.548.003.661-.251 1.324-2.953 2.087-6.378 2.269-10.181.013-.276-.2-.51-.476-.523zm-5.475-7c0-1.103.897-2 2-2s2 .897 2 2-.897 2-2 2-2-.897-2-2zm1 0c0 .551.449 1 1 1s1-.449 1-1-.449-1-1-1-1 .449-1 1zm1 3c-.276 0-.5.224-.5.5v3c0 .276.224.5.5.5s.5-.224.5-.5v-3c0-.276-.224-.5-.5-.5zm0-9c-3.309 0-6 2.691-6 6 0 2.036 1.02 3.916 2.727 5.029.23.149.54.084.692-.146.151-.231.085-.541-.146-.692-1.423-.928-2.273-2.495-2.273-4.191 0-2.757 2.243-5 5-5s5 2.243 5 5c0 1.697-.85 3.264-2.273 4.191-.231.151-.297.461-.146.692.096.147.256.227.419.227.094 0 .188-.026.272-.081 1.708-1.113 2.727-2.994 2.727-5.029 0-3.309-2.691-6-6-6z"/></svg>