<svg id="Layer_1" viewBox="0 0 24 24" xmlns="http://www.w3.org/2000/svg" data-name="Layer 1"><path d="m11.646 10.646c-.195.195-.195.512 0 .707s.512.195.707 0l3.354-3.354h2.964c.668 0 1.296-.26 1.768-.732l2.414-2.414c.143-.143.186-.358.108-.545-.077-.187-.26-.309-.462-.309h-3.5v-3.499c0-.202-.122-.385-.309-.462-.187-.078-.401-.035-.545.108l-2.414 2.414c-.472.472-.732 1.1-.732 1.768v2.964l-3.354 3.354zm4.354-6.318c0-.401.156-.777.439-1.061l1.561-1.561v2.793c0 .276.224.5.5.5h2.793l-1.561 1.561c-.284.283-.66.439-1.061.439h-2.671zm-4 .671c-3.309 0-6 2.691-6 6s2.691 6 6 6 6-2.691 6-6c0-.156-.006-.309-.018-.461-.021-.275.185-.516.46-.537.283-.019.516.185.537.46.014.178.021.357.021.539 0 3.86-3.14 7-7 7s-7-3.14-7-7 3.14-7 7-7c.181 0 .361.007.539.021.275.021.481.262.46.537s-.258.474-.537.46c-.152-.012-.306-.018-.461-.018zm-1.414 4.586c-.378.378-.586.88-.586 1.414s.208 1.036.586 1.414c.756.756 2.072.756 2.828 0 .279-.279.468-.629.545-1.013.055-.271.32-.448.589-.391.271.055.446.319.391.589-.117.578-.4 1.104-.819 1.522-1.116 1.163-3.126 1.164-4.242 0-1.164-1.116-1.164-3.126 0-4.242.418-.418.944-.702 1.522-.819.273-.053.534.121.589.391.055.271-.12.534-.391.589-.384.078-.734.266-1.013.545zm10.355 13.68c.13.244.037.546-.207.676-.239.129-.546.039-.676-.207l-1.919-3.612c-1.755 1.185-3.868 1.877-6.14 1.877s-4.385-.693-6.14-1.877l-1.919 3.612c-.13.246-.437.336-.676.207-.244-.129-.337-.432-.207-.676l1.991-3.748c-2.467-2.019-4.048-5.086-4.048-8.517 0-6.065 4.935-11 11-11 .886 0 1.767.105 2.619.313.268.066.433.336.367.604-.066.269-.338.431-.604.367-.774-.189-1.575-.285-2.381-.285-5.515.001-10.001 4.487-10.001 10.001s4.486 10 10 10 10-4.486 10-10c0-.804-.096-1.605-.285-2.381-.065-.269.099-.539.367-.604.271-.066.539.099.604.367.208.854.313 1.735.313 2.619 0 3.431-1.581 6.498-4.05 8.517l1.991 3.748z"/></svg>