<svg id="Layer_1" viewBox="0 0 24 24" xmlns="http://www.w3.org/2000/svg" data-name="Layer 1"><path d="m20 4.051v-1.051c.827 0 1.5-.673 1.5-1.5s-.673-1.5-1.5-1.5h-1c-.827 0-1.5.673-1.5 1.5s.673 1.5 1.5 1.5v1h-6.5v-1c.827 0 1.5-.673 1.5-1.5s-.673-1.5-1.5-1.5h-1c-.827 0-1.5.673-1.5 1.5s.673 1.5 1.5 1.5v1h-6.5v-1c.827 0 1.5-.673 1.5-1.5s-.673-1.5-1.5-1.5h-1c-.827 0-1.5.673-1.5 1.5s.673 1.5 1.5 1.5v1.051c-2.244.252-4 2.139-4 4.449v7c0 2.481 2.019 4.5 4.5 4.5h6v3.5c0 .276.224.5.5.5s.5-.224.5-.5v-3.5h1v3.5c0 .276.224.5.5.5s.5-.224.5-.5v-3.5h6c2.481 0 4.5-2.019 4.5-4.5v-7c0-2.31-1.756-4.197-4-4.449zm-1.5-2.551c0-.275.225-.5.5-.5h1c.275 0 .5.225.5.5s-.225.5-.5.5h-1c-.275 0-.5-.225-.5-.5zm-7.5 0c0-.275.225-.5.5-.5h1c.275 0 .5.225.5.5s-.225.5-.5.5h-1c-.275 0-.5-.225-.5-.5zm-7.5 0c0-.275.225-.5.5-.5h1c.275 0 .5.225.5.5s-.225.5-.5.5h-1c-.275 0-.5-.225-.5-.5zm19.5 14c0 1.93-1.57 3.5-3.5 3.5h-15c-1.93 0-3.5-1.57-3.5-3.5v-7c0-1.93 1.57-3.5 3.5-3.5h15c1.93 0 3.5 1.57 3.5 3.5z"/></svg>