<svg id="Layer_1" viewBox="0 0 24 24" xmlns="http://www.w3.org/2000/svg" data-name="Layer 1"><path d="m24 14v6c0 2.206-1.794 4-4 4h-16c-2.206 0-4-1.794-4-4v-6c0-1.978 1.475-3.68 3.429-3.96.265-.035.526.15.566.424.039.273-.15.527-.424.566-1.466.21-2.571 1.486-2.571 2.97v6c0 1.654 1.346 3 3 3h16c1.654 0 3-1.346 3-3v-6c0-1.483-1.105-2.76-2.571-2.97-.273-.039-.463-.293-.424-.566s.296-.459.566-.424c1.954.28 3.429 1.982 3.429 3.96zm-14.5-1c-.276 0-.5.224-.5.5v7c0 .276.224.5.5.5s.5-.224.5-.5v-7c0-.276-.224-.5-.5-.5zm1.648 7.126c.546.539 1.43.874 2.307.874 1.522 0 2.545-.804 2.545-2 0-1.291-1.065-1.901-2.005-2.439-.931-.533-1.495-.904-1.495-1.561 0-.739.792-.989 1.217-1 .629 0 1.178.404 1.45.647.206.184.522.165.706-.04.184-.207.166-.522-.04-.706-.381-.339-1.156-.901-2.109-.901-1.081.005-2.224.735-2.224 2 0 1.283 1.062 1.892 1.998 2.428.935.535 1.502.908 1.502 1.572 0 .738-.832 1-1.545 1-.614 0-1.244-.229-1.604-.585-.197-.195-.514-.191-.707.004-.194.196-.192.514.004.707zm-7.148-7.126h1.25c1.24 0 2.25 1.01 2.25 2.25 0 .911-.547 1.694-1.328 2.047l1.288 3.005c.108.254-.009.548-.263.657-.248.107-.547-.006-.657-.263l-1.37-3.197h-1.17v3c0 .276-.224.5-.5.5s-.5-.224-.5-.5v-6.5c0-.552.448-1 1-1zm0 3.5h1.25c.689 0 1.25-.561 1.25-1.25s-.561-1.25-1.25-1.25h-1.25zm17.197-3.46c-.253-.107-.548.008-.657.263l-1.37 3.197h-1.17v-3c0-.276-.224-.5-.5-.5s-.5.224-.5.5v7c0 .276.224.5.5.5s.5-.224.5-.5v-3h1.17l1.37 3.197c.11.257.409.369.657.263.254-.109.371-.403.263-.657l-1.416-3.303 1.416-3.303c.108-.254-.009-.548-.263-.657zm-13.579-2.04h1.882c.276 0 .5-.224.5-.5s-.224-.5-.5-.5h-1.882c-.322 0-.481-.217-.534-.31-.054-.093-.161-.339.005-.624l4.345-7.741c.238-.408.898-.401 1.129-.007l4.353 7.755c.162.278.055.524 0 .617-.053.093-.212.31-.534.31h-1.882c-.276 0-.5.224-.5.5s.224.5.5.5h1.882c.586 0 1.109-.304 1.401-.812s.29-1.113 0-1.612l-4.353-7.755c-.3-.515-.834-.821-1.43-.821s-1.13.307-1.434.828l-4.345 7.741c-.295.506-.297 1.111-.005 1.619s.815.812 1.401.812zm4.882-3.5v-3c0-.276-.224-.5-.5-.5s-.5.224-.5.5v3c0 .276.224.5.5.5s.5-.224.5-.5zm-1.5 2.5c0 .552.448 1 1 1s1-.448 1-1-.448-1-1-1-1 .448-1 1z"/></svg>