<?xml version="1.0" encoding="UTF-8"?>
<svg xmlns="http://www.w3.org/2000/svg" id="Layer_1" data-name="Layer 1" viewBox="0 0 24 24">
  <path d="M23.608,17.684l-1.471-1.878c.36-.166,.662-.448,.854-.812,.317-.605,.274-1.331-.153-1.944l-1.885-2.093c.482-.11,.896-.423,1.127-.87,.284-.549,.238-1.204-.139-1.736l-3.062-3.775c-.609-.688-1.771-.72-2.444-.11L13.396,.677c-.773-.901-2.268-.898-3.043,.026l-2.859,3.712c-.68-.56-1.785-.522-2.401,.177l-3.067,3.786c-.357,.506-.403,1.161-.119,1.709,.231,.447,.646,.76,1.128,.87l-1.926,2.144c-.388,.562-.431,1.288-.113,1.893,.192,.365,.494,.646,.854,.812l-1.489,1.902c-.974,1.32,.091,3.345,1.73,3.292h3.91v2.5c0,.276,.224,.5,.5,.5s.5-.224,.5-.5v-2.5h4.5v2.5c0,.276,.224,.5,.5,.5s.5-.224,.5-.5v-2.5h4.5v2.5c0,.276,.224,.5,.5,.5s.5-.224,.5-.5v-2.5h3.897c1.654,.045,2.71-1.972,1.711-3.316ZM1.115,19.411c-.193-.368-.168-.793,.05-1.111l1.972-2.518c.26-.309,.01-.822-.394-.808h-.126c-.624,.042-1.059-.78-.726-1.255l2.596-2.884c.291-.303,.047-.848-.372-.834h-.694c-.5-.02-.904-.468-.6-1.02l3.034-3.743c.253-.288,.748-.294,1.026-.029l-.547,.71c-.427,.603-.479,1.354-.141,2.007,.322,.622,.944,1.023,1.646,1.07l-2.479,2.608c-.458,.665-.509,1.522-.134,2.237,.246,.467,.645,.818,1.116,1.006l-1.923,2.234c-.528,.768-.588,1.756-.154,2.582,.066,.125,.157,.227,.241,.337H2.09c-.416,0-.781-.22-.975-.589Zm10.885-7.411c-.276,0-.5,.224-.5,.5v7.5H6.479c-1.149,.059-1.924-1.408-1.268-2.308l2.47-2.865c.281-.305,.036-.84-.379-.827h-.157c-.879,.055-1.485-1.093-1.01-1.768l3.228-3.388c.304-.299,.064-.859-.362-.845h-1.022c-.755,.037-1.288-.884-.838-1.488L11.124,1.339c.363-.443,1.145-.444,1.507-.018l4.155,5.175c.466,.62-.063,1.536-.827,1.504h-.868c-.421-.014-.663,.534-.37,.836l3.032,3.336c.545,.731-.049,1.862-.961,1.828h-.157c-.415-.014-.66,.522-.379,.827l2.451,2.843c.679,.942-.088,2.374-1.249,2.33h-4.958v-7.5c0-.276-.224-.5-.5-.5Zm10.871,7.412c-.193,.369-.558,.588-.974,.588h-2.467c.084-.11,.176-.213,.241-.338,.433-.825,.373-1.814-.156-2.581-.01-.015-.021-.029-.032-.043l-1.89-2.191c.473-.188,.871-.54,1.117-1.007,.375-.715,.323-1.572-.177-2.289l-2.328-2.566c.656-.079,1.23-.47,1.536-1.059,.339-.654,.286-1.405-.158-2.032l-.524-.653,.004-.004c.267-.302,.816-.285,1.054-.016l3.028,3.733c.333,.578-.067,1.018-.58,1.046h-.694c-.42-.014-.663,.532-.372,.834l2.556,2.833c.39,.522-.035,1.33-.686,1.306h-.126c-.404-.014-.653,.499-.394,.808l1.953,2.494c.236,.343,.262,.768,.068,1.136Z"/>
</svg>
