<svg id="Layer_1" viewBox="0 0 24 24" xmlns="http://www.w3.org/2000/svg" data-name="Layer 1"><path d="m23.999 11.4c-.036-1.836-.407-4.332-2.989-7.385-.039-.041-.955-1.017-2.18-1.017-1.78 0-2.465.688-2.726 1.264-.121.267-.121.543 0 .779.286.483.692.52.905.576.083.434.392.911 1.101 1.144.44.146.745.234.95.289.011.25-.012.607-.034.956-.051.81-.114 1.789.064 2.79-.341-.147-.708-.224-1.086-.269v-.868c0-1.079-.689-2.033-1.713-2.373l-3.5-1.16c-.508-.168-1.067-.168-1.574 0l-3.5 1.16c-1.025.34-1.713 1.294-1.713 2.373v.868c-.379.045-.747.123-1.089.27.178-1.001.116-1.981.064-2.79-.022-.349-.045-.706-.034-.956.205-.055.509-.144.95-.289.71-.232 1.019-.71 1.101-1.144.21-.055.623-.096.905-.576.121-.236.12-.513 0-.779-.261-.576-.946-1.264-2.726-1.264-1.226 0-2.142.976-2.195 1.033-2.572 3.035-2.943 5.532-2.98 7.368-.021 1.055.438 2.047 1.258 2.722 1.027.847 2.76 1.853 5.191 1.868 1.052 2.64 3.668 4.25 4.597 4.751.322.174.672.262 1.024.262.304 0 .61-.065.898-.197 2.548-1.152 4.126-2.772 4.736-4.823 2.347-.057 4.031-1.031 5.035-1.86.82-.676 1.279-1.668 1.258-2.722zm-22.104 1.95c-.583-.481-.909-1.184-.894-1.931.033-1.671.375-3.948 2.724-6.725.006-.008.665-.696 1.446-.696.536 0 1.452.079 1.774.602-.014.012-.522.114-.551.122-.266.057-.434.332-.384.599.023.123-.002.35-.431.491-.867.284-1.141.331-1.147.332-.188.026-.345.157-.405.337-.127.381-.093.914-.05 1.589.056.868.125 1.949-.14 2.961-.082.31.03.633.285.822.246.184.576.2.838.04.316-.19.67-.291 1.04-.351v2.288c.009.399.064.777.143 1.143-1.971-.093-3.393-.917-4.249-1.624zm10.662 6.545c-.336.151-.713.141-1.035-.034-1.042-.562-4.446-2.658-4.52-6.04v-4.161c0-.648.413-1.22 1.028-1.424l3.501-1.16c.303-.102.639-.102.944 0l3.5 1.16c.615.204 1.028.776 1.028 1.424v4.443c-.051 2.532-1.546 4.482-4.446 5.793zm5.367-4.925c.038-.281.073-.564.079-.859v-2.568c.368.06.721.16 1.035.349.264.159.593.145.839-.038.254-.189.366-.513.286-.823-.265-1.012-.196-2.093-.141-2.961.043-.675.077-1.208-.05-1.589-.059-.176-.215-.306-.398-.336-.011-.002-.286-.049-1.153-.333-.428-.142-.453-.368-.433-.479.033-.132.011-.271-.061-.387-.072-.115-.188-.196-.32-.225-.031-.007-.542-.111-.553-.123.313-.521 1.237-.601 1.776-.601.777 0 1.43.68 1.431.68 2.365 2.795 2.706 5.072 2.738 6.742.015.747-.311 1.45-.894 1.931-.846.698-2.246 1.512-4.182 1.62zm-2.922-1.971c0 .276-.224.5-.5.5h-2v2c0 .276-.224.5-.5.5s-.5-.224-.5-.5v-2h-2c-.276 0-.5-.224-.5-.5s.224-.5.5-.5h2v-2c0-.276.224-.5.5-.5s.5.224.5.5v2h2c.276 0 .5.224.5.5z"/></svg>