<svg id="Layer_1" viewBox="0 0 24 24" xmlns="http://www.w3.org/2000/svg" data-name="Layer 1"><path d="m11.5 5c1.378 0 2.5-1.122 2.5-2.5s-1.122-2.5-2.5-2.5-2.5 1.122-2.5 2.5 1.122 2.5 2.5 2.5zm0-4c.827 0 1.5.673 1.5 1.5s-.673 1.5-1.5 1.5-1.5-.673-1.5-1.5.673-1.5 1.5-1.5zm10.945 4.003-8.945.997h-3.979l-4.208-1.71c-.189-.077-.312-.259-.312-.463v-3.327c0-.276-.224-.5-.5-.5s-.5.224-.5.5v3.327c0 .613.367 1.159.936 1.39l4.064 1.651v7.499l-2.085 3.625c-.168.292-.434.522-.749.647l-4.863 1.923c-.256.102-.382.392-.281.649.101.259.399.382.649.281l4.863-1.923c.524-.208.967-.59 1.248-1.078l2.007-3.49h3.211v3.385c0 .378-.141.739-.397 1.017l-3.47 3.759c-.188.203-.175.52.028.707.202.187.519.175.707-.028l3.47-3.759c.427-.463.663-1.065.663-1.695v-11.439l8.555-.951c.274-.031.472-.278.442-.552s-.275-.466-.552-.442zm-12.445 8.997v-7l3-.002v7.003h-3zm11-10c1.103 0 2-.897 2-2s-.897-2-2-2-2 .897-2 2 .897 2 2 2zm0-3c.551 0 1 .449 1 1s-.449 1-1 1-1-.449-1-1 .449-1 1-1z"/></svg>