<svg id="Layer_1" viewBox="0 0 24 24" xmlns="http://www.w3.org/2000/svg" data-name="Layer 1"><path d="m24 4.5v15c0 2.481-2.019 4.5-4.5 4.5h-15c-2.481 0-4.5-2.019-4.5-4.5v-15c0-2.481 2.019-4.5 4.5-4.5l2.022.039c.276.005.495.233.49.51-.005.272-.229.49-.5.49h-.01l-2.013-.039c-1.92 0-3.49 1.57-3.49 3.5v15c0 1.93 1.57 3.5 3.5 3.5h7.5v-10h-5.499c-.276 0-.5-.224-.5-.5s.224-.5.5-.5h11c.276 0 .5.224.5.5s-.224.5-.5.5h-4.5v10h6.5c1.93 0 3.5-1.57 3.5-3.5v-15c0-1.93-1.57-3.5-3.5-3.5h-5c-.827 0-1.5.673-1.5 1.5v4.5c0 .276-.224.5-.5.5s-.5-.224-.5-.5v-4.5c0-1.378 1.121-2.5 2.5-2.5h5c2.481 0 4.5 2.019 4.5 4.5z"/></svg>