<?xml version="1.0" encoding="UTF-8"?>
<svg xmlns="http://www.w3.org/2000/svg" id="Layer_1" data-name="Layer 1" viewBox="0 0 24 24">
  <path d="M22.5,0H1.5c-.276,0-.5,.224-.5,.5s.224,.5,.5,.5h.664l1.859,18.939c.228,2.315,2.153,4.061,4.479,4.061h7.049c2.326,0,4.251-1.746,4.479-4.061L21.889,1h.611c.276,0,.5-.224,.5-.5s-.224-.5-.5-.5Zm-3.465,19.842c-.002,.021-.01,.041-.012,.062l-2.727-2.727,2.842-2.842,.399,.399-.501,5.108ZM8.437,9.318l-2.842-2.842,2.842-2.842,2.842,2.842-2.842,2.842Zm3.549-2.135l2.875,2.875-2.842,2.842-2.875-2.875,2.842-2.842Zm-4.256,2.842l-2.863,2.863-.588-.588-.403-4.104,1.012-1.012,2.842,2.842Zm-3.981-3.117l-.094-.957,.526,.526-.432,.432Zm1.27,12.934l-.509-5.183,.357-.357,2.875,2.875-2.714,2.714c-.002-.017-.008-.032-.009-.048Zm.555-6.247l2.863-2.863,2.875,2.875-2.863,2.863-2.875-2.875Zm6.445,.719l2.863,2.863-2.863,2.863-2.863-2.863,2.863-2.863Zm.707-.707l2.842-2.842,2.863,2.863-2.842,2.842-2.863-2.863Zm7.574-6.652l-.461-.461,.562-.562-.1,1.023Zm-.126,1.288l-.396,4.038-.64,.64-2.863-2.863,2.857-2.857,1.042,1.042Zm-4.606,1.108l-2.875-2.875,2.857-2.857,2.875,2.875-2.857,2.857Zm-3.582-3.582l-2.842-2.842,1.927-1.927h1.861l1.912,1.912-2.857,2.857Zm-3.549-3.549l-1.22-1.22h2.44l-1.22,1.22Zm5.909-1.22h2.409l-1.205,1.205-1.205-1.205ZM5.803,1l1.927,1.927-2.842,2.842-1.387-1.387-.332-3.382h2.634Zm-.462,19.987s.009-.005,.013-.008l3.095-3.095,2.863,2.863-2.254,2.254h-.556c-1.397,0-2.601-.814-3.162-2.013Zm6.678,.466l1.547,1.547h-3.093l1.547-1.547Zm3.533,1.547h-.572l-2.254-2.254,2.863-2.863,3.119,3.119c-.564,1.19-1.764,1.998-3.156,1.998ZM20.554,4.364l-1.423,1.423-2.875-2.875,1.912-1.912h2.716l-.33,3.364Z"/>
</svg>
