<svg id="Layer_1" viewBox="0 0 24 24" xmlns="http://www.w3.org/2000/svg" data-name="Layer 1"><path d="m6 12c3.309 0 6-2.691 6-6s-2.691-6-6-6-6 2.691-6 6 2.691 6 6 6zm0-11c2.757 0 5 2.243 5 5s-2.243 5-5 5-5-2.243-5-5 2.243-5 5-5zm13.388 13.039c-.32-1.125-1.388-5.067-1.388-7.539 0-.827.673-1.5 1.5-1.5s1.5.673 1.5 1.5c0 .276.224.5.5.5s.5-.224.5-.5c0-1.379-1.122-2.5-2.5-2.5s-2.5 1.121-2.5 2.5c0 .644.068 1.373.172 2.122l-6.04 4.698-.805-.697c-.209-.181-.524-.158-.706.051-.181.208-.158.524.05.705l.655.568-1.872 1.456c-.899-.863-2.113-1.401-3.455-1.401-2.757 0-5 2.243-5 5s2.243 5 5 5 5-2.243 5-5c0-1.055-.333-2.031-.893-2.839l8.243-6.412c.315 1.754.763 3.454 1.004 4.316-2.45.32-4.355 2.399-4.355 4.935 0 2.757 2.243 5 5 5s5-2.243 5-5c0-2.624-2.039-4.759-4.612-4.961zm-14.388 8.961c-2.206 0-4-1.794-4-4s1.794-4 4-4 4 1.794 4 4-1.794 4-4 4zm14 0c-2.206 0-4-1.794-4-4s1.794-4 4-4 4 1.794 4 4-1.794 4-4 4zm-14.84-15.498h.854s-.345.997-.345.997c-.08.23-.042.486.099.685.141.198.371.316.614.316.221 0 .431-.097.576-.267l2.746-3.247c.191-.29.206-.648.039-.96-.175-.324-.51-.526-.876-.526h-.786l.28-.741c.108-.285.069-.605-.104-.857-.174-.251-.46-.401-.766-.401h-1.183c-.49 0-.923.312-1.077.775l-.998 2.98c-.089.296-.035.607.149.855.185.248.467.391.777.391zm1.02-3.909c.018-.056.07-.093.128-.093h1.082l-.5 1.323c-.058.153-.037.326.057.461s.247.216.411.216h1.452l-1.768 2.087.146-.424c.053-.152.028-.321-.065-.453-.094-.132-.246-.21-.407-.21h-1.53z"/></svg>