<svg id="Layer_1" viewBox="0 0 24 24" xmlns="http://www.w3.org/2000/svg" data-name="Layer 1"><path d="m9 14c.552 0 1 .448 1 1s-.448 1-1 1-1-.448-1-1 .448-1 1-1zm6 2c.552 0 1-.448 1-1s-.448-1-1-1-1 .448-1 1 .448 1 1 1zm-3-7c.552 0 1-.448 1-1 0-.553-.448-1-1-1-.552 0-1 .448-1 1 0 .553.448 1 1 1zm0-4c.276 0 .5-.224.5-.5v-4c0-.276-.224-.5-.5-.5s-.5.224-.5.5v4c0 .276.224.5.5.5zm-5.534 3.873.003.011c.159.529.717.828 1.246.669s.828-.717.669-1.245l-.003-.011c-.159-.529-.717-.828-1.246-.669s-.828.717-.669 1.245zm-.445-3.229c.079.267.365.414.623.334.264-.08.414-.358.334-.623l-1.205-4c-.08-.264-.356-.416-.623-.334-.264.08-.414.358-.334.623zm10.263 3.913c.529.159 1.086-.14 1.246-.669l.004-.015c.159-.528-.14-1.086-.669-1.245s-1.086.14-1.246.669l-.004.015c-.159.529.14 1.086.669 1.245zm1.071-3.578c.257.08.545-.068.623-.334l1.205-4c.08-.264-.07-.543-.334-.623-.268-.081-.544.07-.623.334l-1.205 4c-.08.264.07.543.334.623zm4.645 6.192v-1.671c0-1.378-1.121-2.5-2.5-2.5-.276 0-.5.224-.5.5s.224.5.5.5c.827 0 1.5.673 1.5 1.5v2.05c0 .238.167.442.4.49.927.188 1.6 1.013 1.6 1.96 0 1.1-.893 1.996-2.021 1.996-.245-.051-.517.058-.611.304-1.367 3.463-4.651 5.701-8.367 5.701s-7-2.238-8.367-5.701c-.095-.254-.379-.359-.633-.299-1.103 0-2-.897-2-2 0-.947.673-1.771 1.6-1.96.233-.047.4-.252.4-.49v-2.05c0-.827.673-1.5 1.5-1.5.276 0 .5-.224.5-.5s-.224-.5-.5-.5c-1.379 0-2.5 1.122-2.5 2.5v1.671c-1.18.418-2 1.548-2 2.829 0 1.601 1.26 2.912 2.84 2.996 1.593 3.66 5.15 6.004 9.16 6.004s7.567-2.345 9.16-6.004c1.58-.083 2.84-1.395 2.84-2.996 0-1.28-.82-2.411-2-2.829z"/></svg>