<?xml version="1.0" encoding="UTF-8"?>
<svg xmlns="http://www.w3.org/2000/svg" id="Layer_1" data-name="Layer 1" viewBox="0 0 24 24">
  <path d="M15.686,8.318l-3.037,3.682h1.352c.276,0,.5,.224,.5,.5s-.224,.5-.5,.5h-1.5v1h1.5c.276,0,.5,.224,.5,.5s-.224,.5-.5,.5h-1.5v1.5c0,.276-.224,.5-.5,.5s-.5-.224-.5-.5v-1.5h-1.5c-.276,0-.5-.224-.5-.5s.224-.5,.5-.5h1.5v-1h-1.5c-.276,0-.5-.224-.5-.5s.224-.5,.5-.5h1.352l-3.037-3.682c-.176-.213-.146-.528,.067-.704,.214-.176,.528-.145,.704,.067l2.914,3.533,2.914-3.533c.176-.212,.49-.243,.704-.067,.213,.176,.243,.491,.067,.704Zm7.949-5.763L21.226,.146c-.195-.195-.512-.195-.707,0s-.195,.512,0,.707l2.146,2.146H12C7.038,3,3,7.038,3,12c0,2.133,.759,4.201,2.139,5.824,.179,.211,.496,.235,.705,.057,.21-.179,.236-.494,.057-.705-1.226-1.441-1.9-3.28-1.9-5.176,0-4.411,3.589-8,8-8h10.666l-2.146,2.146c-.195,.195-.195,.512,0,.707s.512,.195,.707,0l2.409-2.409c.519-.497,.519-1.392,0-1.89Zm-5.457,3.585c-.211,.178-.238,.494-.06,.705,1.213,1.439,1.882,3.27,1.882,5.155,0,4.411-3.589,8-8,8H1.334l2.147-2.146c.195-.195,.195-.512,0-.707s-.512-.195-.707,0L.366,19.554c-.522,.521-.522,1.371,0,1.893l2.408,2.407c.195,.195,.512,.195,.707,0s.195-.512,0-.707l-2.147-2.146H12c4.962,0,9-4.037,9-9,0-2.121-.752-4.18-2.117-5.799-.178-.211-.494-.239-.705-.06Z"/>
</svg>
