<svg id="Layer_1" viewBox="0 0 24 24" xmlns="http://www.w3.org/2000/svg" data-name="Layer 1"><path d="m4.973 7.766 2.75-2.137 2.182 1.69c.819.453 1.692.682 2.595.682.276 0 .5-.224.5-.5s-.224-.5-.5-.5c-.731 0-1.442-.188-2.047-.515l-1.918-1.488 1.853-1.44c.67-.37 1.381-.557 2.112-.557.276 0 .5-.224.5-.5s-.224-.5-.5-.5c-.902 0-1.775.229-2.66.725l-2.117 1.643-2.749-2.133c-.135-1.252-1.185-2.234-2.473-2.234-1.38-.002-2.501 1.12-2.501 2.498s1.121 2.5 2.5 2.5c1.065 0 1.97-.672 2.33-1.612l2.08 1.61-2.08 1.614c-.36-.94-1.264-1.612-2.329-1.612-1.379 0-2.5 1.122-2.5 2.5s1.121 2.5 2.5 2.5c1.288 0 2.339-.982 2.473-2.234zm-2.473-3.766c-.827 0-1.5-.673-1.5-1.5s.673-1.5 1.5-1.5 1.5.673 1.5 1.5-.673 1.5-1.5 1.5zm-1.5 3.5c0-.827.673-1.5 1.5-1.5s1.5.673 1.5 1.5-.673 1.5-1.5 1.5-1.5-.673-1.5-1.5zm23 6.545c0 .584-.412 1.455-1.546 1.455h-.648l-.37 1.873c-.416 2.102-2.272 3.627-4.415 3.627h-.021v.5c0 1.378-1.121 2.5-2.5 2.5h-7c-1.379 0-2.5-1.122-2.5-2.5v-.997c0-.776-.27-1.534-.779-2.192-1.329-1.928-1.896-2.98-2.218-5.754-.031-.274.165-.522.439-.554.268-.038.521.164.555.439.297 2.573.767 3.445 2.031 5.279.63.812.972 1.781.972 2.782v.997c0 .827.673 1.5 1.5 1.5h7c.827 0 1.5-.673 1.5-1.5v-1c0-.276.224-.5.5-.5h.521c1.666 0 3.11-1.187 3.435-2.821l.449-2.275c.046-.234.251-.403.49-.403h1.06c.438 0 .539-.251.546-.462 0-.768-2.782-6.574-4.357-8.188-.04-.044-1.363-1.607-3.294-2.219-.263-.083-.409-.364-.325-.627.084-.264.36-.411.628-.326 2.217.703 3.672 2.43 3.733 2.503 1.569 1.605 4.615 7.662 4.615 8.865z"/></svg>