<svg id="Layer_1" viewBox="0 0 24 24" xmlns="http://www.w3.org/2000/svg" data-name="Layer 1"><path d="m18.695 23.59c-.12.249-.419.353-.667.237-.47-.224-1.749-.683-2.714-.784-1.487-.157-2.654.149-3.508.433-.711.235-1.683.524-2.898.524-1.485 0-3.343-.503-3.507-.591-.264-.08-.413-.359-.333-.624.08-.264.357-.413.624-.333.11.067 2.406.646 3.202.548 1.079-.015 1.955-.261 2.598-.474.946-.314 2.244-.654 3.926-.478 1.049.109 2.434.587 3.04.874.249.119.355.417.237.667zm-.181-4.866c-.078-.023-1.936-.565-3.007-.676-1.698-.176-3.016.162-3.976.477-.653.214-1.543.461-2.637.476-.805.111-3.122-.51-3.226-.59-.262-.085-.545.054-.633.316-.087.262.054.545.316.633.171.104 2.146.641 3.555.641 1.23 0 2.214-.289 2.935-.524.92-.301 2.061-.589 3.562-.434.98.102 2.811.636 2.829.641.269.077.543-.075.62-.339.078-.265-.074-.543-.339-.62zm.106-4.055c-.083-.021-2.053-.512-3.113-.621-1.698-.176-3.016.162-3.976.477-.653.214-1.543.461-2.637.476-.816.138-3.099-.575-3.208-.681-.255-.103-.548.02-.651.276-.104.256.021.548.276.651.17.133 2.149.753 3.596.753 1.23 0 2.214-.289 2.935-.524.92-.301 2.061-.589 3.562-.434.991.103 2.955.593 2.975.598.264.064.538-.096.606-.364.066-.268-.096-.539-.364-.606zm-.473-9.481c-.441-.099-.807-.378-1.001-.767-1.612-3.222-5.099-4.943-8.672-4.279-3.135.581-5.669 3.08-6.308 6.217-.189.934-.217 1.875-.083 2.796.083.568-.058 1.074-.386 1.387-1.378 1.318-1.968 3.233-1.576 5.123.266 1.284 1.004 2.436 2.079 3.242.219.164.533.122.7-.101.165-.221.12-.534-.101-.7-.88-.659-1.483-1.599-1.7-2.645-.32-1.55.161-3.119 1.289-4.196.565-.54.814-1.362.685-2.255-.118-.807-.094-1.632.073-2.452.558-2.742 2.772-4.925 5.509-5.433 3.132-.581 6.185.923 7.598 3.744.33.658.941 1.13 1.677 1.294 3.051.685 5.182 3.453 5.065 6.584-.06 1.632-.775 3.275-1.913 4.396-.197.194-.199.511-.006.707.195.198.512.198.707.006 1.315-1.296 2.142-3.192 2.212-5.072.134-3.612-2.325-6.807-5.847-7.597z"/></svg>