<svg id="Layer_1" viewBox="0 0 24 24" xmlns="http://www.w3.org/2000/svg" data-name="Layer 1"><path d="m18.783 2.1c-.229-.156-.539-.098-.695.129-.156.228-.099.539.129.695 2.995 2.056 4.783 5.449 4.783 9.076 0 3.874-2.018 7.28-5.054 9.24-.375-2.95-2.896-5.24-5.946-5.24s-5.571 2.29-5.946 5.24c-3.035-1.96-5.054-5.366-5.054-9.24 0-3.627 1.788-7.02 4.783-9.076.228-.156.285-.467.129-.695-.155-.227-.467-.285-.695-.129-3.267 2.242-5.217 5.943-5.217 9.9 0 6.617 5.383 12 12 12s12-5.383 12-12c0-3.957-1.95-7.658-5.217-9.9zm-11.762 19.696c.11-2.66 2.292-4.796 4.979-4.796s4.87 2.135 4.979 4.796c-1.497.764-3.186 1.204-4.979 1.204s-3.482-.44-4.979-1.204zm4.979-7.796c2.206 0 4-1.794 4-4s-1.794-4-4-4-4 1.794-4 4 1.794 4 4 4zm0-7c1.654 0 3 1.346 3 3s-1.346 3-3 3-3-1.346-3-3 1.346-3 3-3zm-2.625-2h5.25c.758 0 1.375-.617 1.375-1.375v-2.688c0-.37-.219-.707-.562-.859-.335-.146-.731-.083-1.027.186l-.832.857-.621-.693c-.244-.271-.593-.427-.958-.427s-.714.156-.957.427l-.622.694-.855-.879c-.274-.249-.669-.311-1.009-.161-.338.15-.557.487-.557.857v2.688c0 .758.617 1.375 1.375 1.375zm-.375-3.907 1.077 1.109c.096.099.225.144.368.152.139-.003.27-.063.362-.166l.979-1.093c.148-.165.278-.165.427 0l.979 1.092c.092.104.224.164.362.167.146-.007.272-.053.368-.152l1.077-1.109v2.533c0 .207-.168.375-.375.375h-5.25c-.207 0-.375-.168-.375-.375v-2.533z"/></svg>