<svg id="Layer_1" viewBox="0 0 24 24" xmlns="http://www.w3.org/2000/svg" data-name="Layer 1"><path d="m11.993 18.93c.05.619-.173 1.226-.612 1.665l-3.203 3.268c-.194.198-.51.2-.707.008-.197-.193-.201-.51-.008-.707l3.207-3.271c.235-.235.353-.556.326-.882-.026-.331-.192-.622-.468-.821-.423-.303-1.091-.215-1.488.186-.009.008-.316.301-.51.476-.272.251-.677.621-1.122.427-.187-.082-.408-.28-.408-.764v-6.513c0-.552-.448-1-1-1s-1 .448-1 1v4c0 .189-.107.362-.276.447l-1.789.895c-1.193.597-1.935 1.796-1.935 3.13v3.028c0 .276-.224.5-.5.5s-.5-.224-.5-.5v-3.028c0-1.715.953-3.257 2.487-4.024l1.513-.756v-3.691c0-1.103.897-2 2-2s2 .897 2 2v5.979c.176-.164.34-.32.34-.32.721-.723 1.968-.863 2.773-.281.509.367.83.933.88 1.552zm9.52-2.482-1.513-.756v-3.691c0-1.103-.897-2-2-2s-2 .897-2 2l-.003 5.977c-.16-.149-.328-.31-.329-.31-.733-.736-1.978-.871-2.78-.289-.51.367-.831.933-.881 1.552s.173 1.226.608 1.661l3.207 3.271c.194.198.51.2.707.008.197-.193.201-.51.008-.707l-3.211-3.275c-.231-.231-.349-.552-.322-.878.026-.331.192-.622.469-.821.421-.303 1.084-.221 1.496.193 0 0 .308.293.536.5.241.221.646.593 1.088.394.186-.081.407-.28.407-.763v-6.513c0-.552.448-1 1-1s1 .448 1 1v4c0 .189.107.362.276.447l1.789.895c1.193.597 1.935 1.796 1.935 3.13v3.028c0 .276.224.5.5.5s.5-.224.5-.5v-3.028c0-1.715-.953-3.257-2.487-4.024zm-11.013-4.447c-.276 0-.5.224-.5.5s.224.5.5.5h3c.276 0 .5-.224.5-.5s-.224-.5-.5-.5zm9-12.001h-15c-2.481 0-4.5 2.019-4.5 4.5v4c0 1.097.398 2.153 1.123 2.975.183.207.5.226.706.044.207-.183.227-.499.044-.706-.563-.638-.873-1.459-.873-2.312v-4.001c0-1.93 1.57-3.5 3.5-3.5h15c1.93 0 3.5 1.57 3.5 3.5v4c0 .829-.296 1.634-.832 2.267-.179.21-.153.525.058.704.211.18.526.154.704-.058.69-.812 1.07-1.847 1.07-2.913v-4c0-2.481-2.019-4.5-4.5-4.5zm-15 7h2c.276 0 .5-.224.5-.5s-.224-.5-.5-.5h-2c-.276 0-.5.224-.5.5s.224.5.5.5zm5 0h2c.276 0 .5-.224.5-.5s-.224-.5-.5-.5h-2c-.276 0-.5.224-.5.5s.224.5.5.5zm5 0h5c.276 0 .5-.224.5-.5s-.224-.5-.5-.5h-5c-.276 0-.5.224-.5.5s.224.5.5.5zm-10-3h2c.276 0 .5-.224.5-.5s-.224-.5-.5-.5h-2c-.276 0-.5.224-.5.5s.224.5.5.5zm5 0h2c.276 0 .5-.224.5-.5s-.224-.5-.5-.5h-2c-.276 0-.5.224-.5.5s.224.5.5.5zm5 0h5c.276 0 .5-.224.5-.5s-.224-.5-.5-.5h-5c-.276 0-.5.224-.5.5s.224.5.5.5zm-5 6h5c.276 0 .5-.224.5-.5s-.224-.5-.5-.5h-5c-.276 0-.5.224-.5.5s.224.5.5.5z"/></svg>