<svg id="Layer_1" viewBox="0 0 24 24" xmlns="http://www.w3.org/2000/svg" data-name="Layer 1"><path d="m7 15c-.827 0-1.5.673-1.5 1.5v2c0 .827.673 1.5 1.5 1.5s1.5-.673 1.5-1.5v-2c0-.827-.673-1.5-1.5-1.5zm.5 3.5c0 .275-.225.5-.5.5s-.5-.225-.5-.5v-2c0-.275.225-.5.5-.5s.5.225.5.5zm7-3.5c-.827 0-1.5.673-1.5 1.5v3c0 .276.224.5.5.5s.5-.224.5-.5v-1h1v1c0 .276.224.5.5.5s.5-.224.5-.5v-3c0-.827-.673-1.5-1.5-1.5zm-.5 2.5v-1c0-.275.225-.5.5-.5s.5.225.5.5v1zm7.612-5.971c1.456-1.193 2.388-3.004 2.388-5.029 0-3.584-2.916-6.5-6.5-6.5s-6.5 2.916-6.5 6.5c0 1.746.696 3.331 1.821 4.5h-8.321c-2.481 0-4.5 2.019-4.5 4.5v4c0 2.481 2.019 4.5 4.5 4.5h15c2.481 0 4.5-2.019 4.5-4.5v-4c0-1.689-.935-3.201-2.388-3.971zm-4.112-10.529c3.032 0 5.5 2.467 5.5 5.5s-2.468 5.5-5.5 5.5-5.5-2.467-5.5-5.5 2.468-5.5 5.5-5.5zm5.5 18.5c0 1.93-1.57 3.5-3.5 3.5h-15c-1.93 0-3.5-1.57-3.5-3.5v-4c0-1.93 1.57-3.5 3.5-3.5h9.552c1.001.63 2.181 1 3.448 1 1.136 0 2.204-.295 3.134-.809 1.416.485 2.366 1.807 2.366 3.309zm-4.5-14c0-.552.448-1 1-1s1 .448 1 1-.448 1-1 1-1-.448-1-1zm-4 0c0-.552.448-1 1-1s1 .448 1 1-.448 1-1 1-1-.448-1-1zm.939 2.146c1.102 1.101 3.02 1.101 4.121 0 .195-.195.512-.195.707 0s.195.512 0 .707c-.739.739-1.722 1.146-2.768 1.146s-2.028-.407-2.768-1.146c-.195-.195-.195-.512 0-.707s.512-.195.707 0zm-12.189 7.354h-1c-.276 0-.5.224-.5.5v4c0 .276.224.5.5.5h1c.827 0 1.5-.673 1.5-1.5v-2c0-.827-.673-1.5-1.5-1.5zm.5 3.5c0 .275-.225.5-.5.5h-.5v-3h.5c.275 0 .5.225.5.5zm8.5-2v3c0 .276-.224.5-.5.5s-.5-.224-.5-.5v-3c0-.275-.225-.5-.5-.5s-.5.225-.5.5v3c0 .276-.224.5-.5.5s-.5-.224-.5-.5v-4c0-.276.224-.5.5-.5.14 0 .266.058.357.151.196-.094.412-.151.643-.151.827 0 1.5.673 1.5 1.5zm7.25-1c0 .276-.224.5-.5.5h-.5v3.5c0 .276-.224.5-.5.5s-.5-.224-.5-.5v-3.5h-.5c-.276 0-.5-.224-.5-.5s.224-.5.5-.5h2c.276 0 .5.224.5.5zm2.25-.5c.276 0 .5.224.5.5s-.224.5-.5.5h-.75v1h.75c.276 0 .5.224.5.5s-.224.5-.5.5h-.75v1h.75c.276 0 .5.224.5.5s-.224.5-.5.5h-.75c-.552 0-1-.448-1-1v-3c0-.552.448-1 1-1z"/></svg>