<?xml version="1.0" encoding="UTF-8"?>
<svg xmlns="http://www.w3.org/2000/svg" id="Layer_1" data-name="Layer 1" viewBox="0 0 24 24">
  <path d="m19.5,0h-9c-2.481,0-4.5,2.019-4.5,4.5v7.5h-2.5c-1.93,0-3.5,1.57-3.5,3.5v5c0,1.93,1.57,3.5,3.5,3.5h5c1.93,0,3.5-1.57,3.5-3.5v-2.5h7.5c2.481,0,4.5-2.019,4.5-4.5V4.5c0-2.481-2.019-4.5-4.5-4.5Zm-8.5,20.5c0,1.379-1.122,2.5-2.5,2.5H3.5c-1.378,0-2.5-1.121-2.5-2.5v-5c0-1.379,1.122-2.5,2.5-2.5h2.5v.5c0,2.481,2.019,4.5,4.5,4.5h.5v2.5Zm-.738-6.771s.002.004.004.006.004.002.005.004c.45.452.729,1.075.729,1.762v1.5h-.5c-1.93,0-3.5-1.57-3.5-3.5v-.5h1.5c.687,0,1.31.279,1.762.729Zm12.738-.229c0,1.93-1.57,3.5-3.5,3.5h-7.5v-1.5c0-.785-.269-1.502-.707-2.086l6.707-6.707v4.293c0,.276.224.5.5.5s.5-.224.5-.5v-4.5c0-.827-.673-1.5-1.5-1.5h-4.5c-.276,0-.5.224-.5.5s.224.5.5.5h4.292l-6.706,6.707c-.584-.438-1.302-.707-2.086-.707h-1.5v-7.5c0-1.93,1.57-3.5,3.5-3.5h9c1.93,0,3.5,1.57,3.5,3.5v9Z"/>
</svg>
