<?xml version="1.0" encoding="UTF-8"?>
<svg xmlns="http://www.w3.org/2000/svg" id="Layer_1" data-name="Layer 1" viewBox="0 0 24 24">
  <path d="m7.5,9h9.086c1.454,0,2.172-.829,2.359-1.604.223-.922-.242-1.884-1.129-2.34L8.704.296c-.782-.428-1.708-.414-2.477.039-.769.455-1.227,1.26-1.227,2.152v4.013c0,1.379,1.122,2.5,2.5,2.5Zm-1.5-6.513c0-.536.275-1.019.736-1.291.236-.14.498-.211.761-.211.25,0,.501.064.735.192l9.123,4.766s.002,0,.003.002c.559.285.711.816.615,1.216-.126.525-.645.839-1.387.839H7.5c-.827,0-1.5-.673-1.5-1.5V2.487Zm10.586,12.497H7.5c-1.378,0-2.5,1.121-2.5,2.5v4.013c0,.893.458,1.697,1.227,2.152.397.234.836.352,1.275.352.41,0,.819-.103,1.193-.308l9.121-4.765c.887-.456,1.352-1.418,1.129-2.34-.187-.775-.905-1.604-2.359-1.604Zm.772,3.055s-.002.002-.003.002l-9.132,4.771c-.469.259-1.025.25-1.486-.023-.461-.272-.736-.755-.736-1.291v-4.013c0-.827.673-1.5,1.5-1.5h9.086c.742,0,1.26.313,1.387.839.096.399-.056.931-.615,1.216Zm6.642-6.039c0,.276-.224.5-.5.5H.5c-.276,0-.5-.224-.5-.5s.224-.5.5-.5h23c.276,0,.5.224.5.5Z"/>
</svg>
