<?xml version="1.0" encoding="UTF-8"?>
<svg xmlns="http://www.w3.org/2000/svg" id="Layer_1" data-name="Layer 1" viewBox="0 0 24 24">
  <path d="m4,17.051v-8.051c0-1.148.238-2.256.708-3.294.114-.252.002-.548-.25-.661s-.548-.002-.662.249c-.528,1.168-.796,2.415-.796,3.706v8.051c-1.692.245-3,1.691-3,3.449v1.5c0,1.103.897,2,2,2h3c1.103,0,2-.897,2-2v-1.5c0-1.758-1.308-3.204-3-3.449Zm2,4.949c0,.552-.449,1-1,1h-3c-.551,0-1-.448-1-1v-1.5c0-1.379,1.122-2.5,2.5-2.5s2.5,1.121,2.5,2.5v1.5Zm15-4.949v-8.051C21,4.037,16.962,0,12,0c-3.281,0-5.95,2.691-5.95,6,0,3.275,2.675,5.959,5.95,6,3.081-.048,5.699-2.381,5.976-5.455.025-.275-.178-.519-.453-.543-.271-.013-.518.178-.543.453-.232,2.582-2.366,4.535-4.959,4.543-2.741-.016-4.971-2.258-4.971-4.998,0-2.757,2.221-5,4.95-5,4.411,0,8,3.589,8,8v8.051c-1.692.245-3,1.691-3,3.449v1.5c0,1.103.897,2,2,2h3c1.103,0,2-.897,2-2v-1.5c0-1.758-1.308-3.204-3-3.449Zm2,4.949c0,.552-.449,1-1,1h-3c-.551,0-1-.448-1-1v-1.5c0-1.379,1.122-2.5,2.5-2.5s2.5,1.121,2.5,2.5v1.5Z"/>
</svg>
