<svg id="Layer_1" viewBox="0 0 24 24" xmlns="http://www.w3.org/2000/svg" data-name="Layer 1"><path d="m20.5 8h-.569c-.474-3.777-3.587-6.735-7.431-6.975v-.525c0-.276-.224-.5-.5-.5s-.5.224-.5.5v.525c-3.835.239-6.941 3.185-7.426 6.975h-.574c-.276 0-.5.224-.5.5s.224.5.5.5h.503c0 .012-.002.023-.002.034l.743 10.775c.162 2.35 2.134 4.19 4.489 4.19h5.533c2.355 0 4.327-1.841 4.489-4.19l.743-10.775c0-.011 0-.022 0-.034h.5c.276 0 .5-.224.5-.5s-.224-.5-.5-.5zm-8-5.975c3.292.234 5.956 2.75 6.42 5.975h-6.42zm-1 0v5.975h-6.42c.464-3.224 3.128-5.74 6.42-5.975zm-6.5 6.975h6.5v6.232c-.561-.132-1.185-.232-1.983-.232-1.752 0-3.219.554-4.037.941zm13.258 10.741c-.126 1.827-1.659 3.259-3.491 3.259h-5.533c-1.832 0-3.365-1.432-3.491-3.259l-.188-2.719c.557-.298 2.099-1.022 3.962-1.022 1.181 0 1.944.232 2.751.479.842.256 1.712.521 3.043.521 1.149 0 2.374-.317 3.176-.572zm.303-4.39c-.678.237-2.028.649-3.25.649-1.213 0-1.966-.245-2.811-.5v-6.5h6.499z"/></svg>