<svg id="Layer_1" viewBox="0 0 24 24" xmlns="http://www.w3.org/2000/svg" data-name="Layer 1"><path d="m23.5 6c-.276 0-.5.224-.5.5v3.5h-22v-5c0-2.206 1.794-4 4-4 1.887 0 3.474 1.311 3.883 3.107-.8.262-1.383 1.007-1.383 1.893 0 1.103.897 2 2 2s2-.897 2-2c0-.97-.695-1.78-1.614-1.961-.455-2.325-2.474-4.039-4.886-4.039-2.757 0-5 2.243-5 5v18.5c0 .276.224.5.5.5s.5-.224.5-.5v-1.5h22v1.5c0 .276.224.5.5.5s.5-.224.5-.5v-17c0-.276-.224-.5-.5-.5zm-13 0c0 .552-.449 1-1 1s-1-.448-1-1 .449-1 1-1 1 .448 1 1zm-2.5 5h2v10h-2zm-1 10h-2v-10h2zm4-10h2v10h-2zm3 0h2v10h-2zm3 0h2v10h-2zm-16 0h3v10h-3zm19 10v-10h3v10z"/></svg>