<?xml version="1.0" encoding="UTF-8"?>
<svg xmlns="http://www.w3.org/2000/svg" id="Layer_1" data-name="Layer 1" viewBox="0 0 24 24">
  <path d="M6.5,5c1.378,0,2.5-1.121,2.5-2.5S7.878,0,6.5,0s-2.5,1.121-2.5,2.5,1.122,2.5,2.5,2.5Zm0-4c.827,0,1.5,.673,1.5,1.5s-.673,1.5-1.5,1.5-1.5-.673-1.5-1.5,.673-1.5,1.5-1.5Zm7.641,6.348c-.192-.198-.188-.515,.011-.707l3.318-3.218c.568-.556,1.498-.552,2.065,.005l3.313,3.213c.198,.192,.203,.509,.011,.707-.192,.199-.509,.203-.707,.012l-3.152-3.057v15.197c0,.276-.224,.5-.5,.5s-.5-.224-.5-.5V4.302l-3.152,3.057c-.198,.19-.514,.188-.707-.012Zm9.359,15.652H9v-6.351c1.178-.564,2-1.758,2-3.149v-4c0-1.93-1.57-3.5-3.5-3.5h-2c-1.93,0-3.5,1.57-3.5,3.5v4c0,1.391,.822,2.585,2,3.149v6.351H.5c-.276,0-.5,.224-.5,.5s.224,.5,.5,.5H23.5c.276,0,.5-.224,.5-.5s-.224-.5-.5-.5ZM3,13.5v-4c0-1.379,1.122-2.5,2.5-2.5h2c1.378,0,2.5,1.121,2.5,2.5v4c0,1.379-1.122,2.5-2.5,2.5h-2c-1.378,0-2.5-1.121-2.5-2.5Zm2,3.449c.165,.024,.329,.051,.5,.051h2c.171,0,.335-.027,.5-.051v6.051h-3v-6.051Z"/>
</svg>
