<svg id="Layer_1" viewBox="0 0 24 24" xmlns="http://www.w3.org/2000/svg" data-name="Layer 1"><path d="m14.001 23.499c0 .276-.224.5-.5.5h-9c-2.481 0-4.5-2.018-4.5-4.5v-12.999c0-2.482 2.019-4.5 4.5-4.5h.55c.232-1.14 1.242-2 2.45-2h3c1.207 0 2.217.86 2.45 2h.55c2.481 0 4.5 2.018 4.5 4.5v1c0 .276-.224.5-.5.5s-.5-.224-.5-.5v-1c0-1.93-1.57-3.5-3.5-3.5h-1c-.276 0-.5-.224-.5-.5 0-.827-.673-1.5-1.5-1.5h-3c-.827 0-1.5.673-1.5 1.5 0 .276-.224.5-.5.5h-1c-1.93 0-3.5 1.57-3.5 3.5v13c0 1.93 1.57 3.5 3.5 3.5h9c.276 0 .5.224.5.5zm-3.5-11.499h-6c-.276 0-.5.224-.5.5s.224.5.5.5h6c.276 0 .5-.224.5-.5s-.224-.5-.5-.5zm0 4h-6c-.276 0-.5.224-.5.5s.224.5.5.5h6c.276 0 .5-.224.5-.5s-.224-.5-.5-.5zm3.5-7.5c0-.276-.224-.5-.5-.5h-9c-.276 0-.5.224-.5.5s.224.5.5.5h9c.276 0 .5-.224.5-.5zm9.998 5.5v3.413c0 4.098-3.889 5.978-5.08 6.457-.113.042-.296.138-.418.13-.142.011-.324-.106-.448-.165-1.185-.592-5.053-2.804-5.053-6.422v-3.413c0-1.079.688-2.033 1.713-2.373l3-.995c.508-.168 1.066-.168 1.573 0l3 .995c1.025.34 1.713 1.294 1.713 2.373zm-1 0c0-.647-.413-1.22-1.028-1.424l-3-.995c-.305-.1-.64-.1-.945 0l-2.999.995c-.615.204-1.028.776-1.028 1.424v3.413c.008 3.062 3.449 5 4.524 5.539 1.066-.432 4.468-2.05 4.476-5.539z"/></svg>