<svg id="Layer_1" viewBox="0 0 24 24" xmlns="http://www.w3.org/2000/svg" data-name="Layer 1"><path d="m10.5 23h-6c-1.93 0-3.5-1.57-3.5-3.5v-11.5h10.5c1.068 0 2.064.479 2.732 1.312.173.216.488.25.703.078.216-.173.25-.487.078-.703-.859-1.072-2.14-1.688-3.513-1.688h-3.5v-2.5c0-1.378-1.122-2.5-2.5-2.5v-.999c0-.551-.449-1-1-1h-1c-.551 0-1 .449-1 1v1c-1.378 0-2.5 1.122-2.5 2.5v15c0 2.481 2.019 4.5 4.5 4.5h6c.276 0 .5-.224.5-.5s-.224-.5-.5-.5zm-7-22h1v1h-1zm-2.5 3.5c0-.827.673-1.5 1.5-1.5h3c.827 0 1.5.673 1.5 1.5v2.5h-6zm16.5 6.5c-3.584 0-6.5 2.916-6.5 6.5s2.916 6.5 6.5 6.5 6.5-2.916 6.5-6.5-2.916-6.5-6.5-6.5zm-5.5 6.5c0-1.337.48-2.563 1.276-3.517l7.741 7.741c-.954.796-2.18 1.276-3.517 1.276-3.033 0-5.5-2.467-5.5-5.5zm9.724 3.517-7.741-7.741c.954-.796 2.18-1.276 3.517-1.276 3.033 0 5.5 2.467 5.5 5.5 0 1.337-.48 2.563-1.276 3.517z"/></svg>