<svg id="Layer_1" viewBox="0 0 24 24" xmlns="http://www.w3.org/2000/svg" data-name="Layer 1"><path d="m21.498 14.505-.748-.423c.039-.163.074-.327.104-.493.049-.271-.131-.531-.403-.581-.268-.046-.531.13-.581.403-.048.264-.109.524-.182.779-.063.222.033.458.234.572l1.083.613c.71.383.978 1.351.565 2.044-.383.71-1.35.979-2.044.565l-1.086-.614c-.202-.113-.453-.075-.611.094-.92.981-2.067 1.688-3.33 2.105v-3.259c1.55-.896 2.5-2.521 2.5-4.311 0-1.711-.869-3.282-2.324-4.205-.342-.217-.771-.23-1.119-.036-.349.191-.557.545-.557.943v2.298c0 .552-.449 1-1 1s-1-.448-1-1v-2.298c0-.398-.208-.752-.556-.943-.351-.193-.779-.179-1.12.036-1.455.922-2.324 2.494-2.324 4.205 0 1.79.95 3.414 2.5 4.311v3.259c-1.264-.417-2.411-1.124-3.331-2.105-.158-.169-.411-.206-.611-.094l-1.086.615c-.694.41-1.661.144-2.044-.566-.411-.694-.144-1.661.566-2.044l1.083-.613c.201-.114.297-.351.234-.572-.207-.728-.312-1.464-.312-2.19s.105-1.463.312-2.19c.063-.222-.034-.458-.234-.571l-1.083-.613c-.72-.408-.974-1.325-.566-2.045.383-.71 1.351-.978 2.044-.565l1.085.614c.201.111.453.075.611-.094 1.069-1.141 2.435-1.937 3.949-2.303.224-.055.382-.256.382-.486v-1.246c0-.827.673-1.5 1.5-1.5s1.5.673 1.5 1.5v1.246c0 .276.224.5.5.5s.5-.224.5-.5v-1.246c0-1.379-1.121-2.5-2.5-2.5s-2.5 1.121-2.5 2.5v.861c-1.425.412-2.72 1.167-3.784 2.208l-.75-.425c-1.155-.687-2.771-.241-3.407.943-.679 1.198-.256 2.727.943 3.406l.748.424c-.166.692-.25 1.391-.25 2.082s.084 1.39.25 2.082l-.748.423c-1.183.638-1.63 2.252-.943 3.407.637 1.185 2.25 1.629 3.407.944l.751-.426c1.062 1.039 2.362 1.777 3.784 2.189v.88c0 1.379 1.122 2.5 2.5 2.5s2.5-1.121 2.5-2.5v-.88c1.423-.413 2.722-1.15 3.783-2.189l.751.425c1.156.687 2.77.241 3.407-.942.688-1.156.24-2.77-.943-3.408zm-7.722 1.06c-.169.085-.276.258-.276.447v5.488c0 .827-.673 1.5-1.5 1.5s-1.5-.673-1.5-1.5v-5.488c0-.189-.107-.362-.276-.447-1.372-.686-2.224-2.052-2.224-3.564 0-1.366.695-2.623 1.859-3.359.057-.034.141-.042.141.062v2.298c0 1.103.897 2 2 2s2-.897 2-2v-2.298c0-.063.093-.093.141-.061 1.164.737 1.859 1.993 1.859 3.359 0 1.513-.852 2.879-2.224 3.564zm9.252-8.4-2.174-1.69 2.241-1.779c.271-.24.403-.49.404-.767 0-.411-.305-.683-.444-.803l-2.667-1.922c-.242-.217-.598-.264-.902-.127-.3.135-.485.413-.485.727v3.431l-1.193-1.129c-.217-.171-.532-.132-.701.088-.17.218-.13.532.088.701l1.807 1.605-1.811 1.608c-.217.172-.253.486-.081.702.172.218.487.253.702.081l1.189-1.115v3.42c0 .313.186.592.485.727.282.129.652.099.875-.104l2.757-2.119c.093-.083.375-.333.374-.722 0-.363-.25-.627-.463-.813zm-3.028-6.012 2.431 1.752c.009.008-2.431 1.905-2.431 1.905zm0 8.684v-3.684l2.391 1.78c.015.014-2.391 1.903-2.391 1.903z"/></svg>