<?xml version="1.0" encoding="UTF-8"?>
<svg xmlns="http://www.w3.org/2000/svg" id="Layer_1" data-name="Layer 1" viewBox="0 0 24 24">
  <path d="M11.982,13.035c-1.645,0-2.982,1.338-2.982,2.982s1.338,2.982,2.982,2.982,2.982-1.338,2.982-2.982-1.338-2.982-2.982-2.982Zm0,4.965c-1.093,0-1.982-.89-1.982-1.982s.889-1.982,1.982-1.982,1.982,.89,1.982,1.982-.89,1.982-1.982,1.982Zm9.018-9.5c0-4.695-4.83-7.5-9.5-7.5C6.516,1,3.035,4.907,3.035,10.5l.017,12c0,.275,.224,.499,.5,.499h0c.276,0,.5-.225,.5-.501l-.017-11.999c0-1.411,.252-2.697,.701-3.824l2.056,1.029c-.499,.865-.792,1.852-.792,2.797l.052,12c0,.275,.225,.498,.5,.498h.002c.276,0,.499-.226,.498-.502l-.052-11.998c0-.854,.294-1.758,.794-2.524,2.063-.125,3.419-1.489,3.876-1.956,.005-.006,.011-.011,.016-.016,2.401,.095,4.324,2.037,4.324,4.409l-.002,3.039c-.002,.023-.001,.045,0,.069l-.007,8.979c0,.275,.224,.5,.5,.5s.5-.224,.5-.5l.007-8.674c1.011-.462,3.993-2.098,3.993-5.326Zm-3.992,4.203l.002-2.289c0-2.985-2.472-5.414-5.51-5.414-.231,0-.356,.127-.545,.321-.439,.45-1.591,1.628-3.34,1.678l-2.457-1.229c1.271-2.337,3.534-3.769,6.342-3.769,4.178,0,8.5,2.431,8.5,6.5,0,2.263-1.93,3.624-2.992,4.203Z"/>
</svg>
