<?xml version="1.0" encoding="UTF-8"?>
<svg xmlns="http://www.w3.org/2000/svg" id="Layer_1" data-name="Layer 1" viewBox="0 0 24 24">
  <path d="M5.5,9v2.5c0,.276-.224,.5-.5,.5s-.5-.224-.5-.5V5.5c0-.276,.224-.5,.5-.5s.5,.224,.5,.5v2.5h.593l1.645-2.768c.142-.237,.448-.315,.686-.174s.315,.448,.174,.685l-1.607,2.705c.002,.018,.011,.034,.011,.052s-.009,.034-.011,.052l1.607,2.705c.142,.237,.063,.544-.174,.685-.08,.048-.169,.07-.256,.07-.17,0-.336-.087-.43-.245l-1.645-2.768h-.593Zm18.5-.5v13.855c.041,1.276-1.522,2.113-2.562,1.371l-4.089-2.726h-6.849c-2.182,0-4.003-1.561-4.412-3.625l-3.526,2.351c-1.04,.742-2.604-.095-2.562-1.371V4.5C0,2.019,2.019,0,4.5,0H14.5c2.31,0,4.197,1.756,4.449,4h.551c2.481,0,4.5,2.019,4.5,4.5ZM6.223,16.084c.088-.034,.172-.088,.277-.084H14.5c1.93,0,3.5-1.57,3.5-3.5V4.5c0-1.93-1.57-3.5-3.5-3.5H4.5c-1.93,0-3.5,1.57-3.5,3.5v13.855c-.018,.504,.6,.831,1.008,.539l4.215-2.81Zm16.777-7.584c0-1.93-1.57-3.5-3.5-3.5h-.5v7.5c0,2.481-2.019,4.5-4.5,4.5H7.051c.245,1.692,1.691,3,3.449,3h7c.099,0,.195,.029,.277,.084l4.215,2.81c.407,.292,1.026-.036,1.008-.539V8.5Zm-13,3V6c0-.551,.448-1,1-1h1.25c1.24,0,2.25,1.009,2.25,2.25,0,.8-.423,1.5-1.054,1.898l.794,2.181c.095,.259-.039,.546-.299,.641-.057,.021-.114,.03-.171,.03-.204,0-.396-.126-.47-.329l-.799-2.196c-.083,.009-.165,.025-.251,.025h-1.25v2c0,.276-.224,.5-.5,.5s-.5-.224-.5-.5Zm1-3h1.25c.689,0,1.25-.561,1.25-1.25s-.561-1.25-1.25-1.25h-1.25v2.5Z"/>
</svg>
