<?xml version="1.0" encoding="UTF-8"?>
<svg xmlns="http://www.w3.org/2000/svg" id="Layer_1" data-name="Layer 1" viewBox="0 0 24 24">
  <path d="M19,.5c0-.276,.224-.5,.5-.5h3.419c.457,0,.854,.278,1.009,.708,.155,.43,.028,.896-.323,1.188l-3.569,2.976,.046,.128h3.419c.276,0,.5,.224,.5,.5s-.224,.5-.5,.5h-3.419c-.457,0-.854-.278-1.009-.708-.155-.43-.028-.896,.323-1.188l3.569-2.976-.046-.128h-3.419c-.276,0-.5-.224-.5-.5Zm5,15c0,4.687-3.813,8.5-8.5,8.5h-2.423c-4.559,0-10.138-.602-12.832-5.292-.307-.676-.329-1.381-.084-2.029s.729-1.163,1.36-1.448c.63-.286,1.336-.308,1.985-.062s1.163,.729,1.449,1.36c.564,1.099,1.384,1.926,2.296,2.551,.309-1.166,.886-2.236,1.651-3.143-.217,.024-.435,.062-.65,.062-1.973,0-3.815-.999-4.889-2.72L.414,9.027c-.269-.434-.279-.931-.044-1.353,.235-.422,.665-.674,1.148-.674h1.946c.788-1.191,2.153-2.102,3.604-2.401l.733-1.816c.21-.464,.638-.758,1.124-.789,.495-.042,.947,.209,1.202,.624l2.862,4.383s.007-.002,.011-.002h2.5c4.687,0,8.5,3.813,8.5,8.5Zm-14.824-.59c1.752-.333,3.227-1.724,3.67-3.46,.42-1.649-.086-2.94-.585-3.734l-2.979-4.562c-.098-.159-.243-.168-.294-.161-.057,.003-.196,.028-.268,.184l-.828,2.053c-.066,.165-.215,.281-.39,.308-1.119,.167-2.582,.916-3.326,2.211-.089,.155-.255,.251-.434,.251H1.519c-.167,0-.248,.113-.275,.161-.026,.049-.08,.176,.008,.318l2.948,4.25c1.065,1.707,3.016,2.556,4.977,2.182Zm13.824,.59c0-4.136-3.364-7.5-7.5-7.5h-1.972c.498,1.161,.606,2.443,.287,3.697-.141,.552-.365,1.07-.653,1.544,.597-.152,1.212-.24,1.838-.24h.5c.276,0,.5,.224,.5,.5s-.224,.5-.5,.5h-.5c-3.21,0-6.148,2.443-6.842,5.617,2.516,1.321,5.301,1.383,5.342,1.383,.276,0,.5,.224,.5,.5s-.224,.5-.5,.5c-.068,0-6.89-.058-9.445-5.037-.186-.411-.502-.709-.901-.859-.396-.15-.831-.136-1.221,.039-.389,.175-.686,.491-.836,.89-.15,.399-.138,.833,.038,1.222,1.881,3.269,5.57,4.746,11.942,4.746h2.423c4.136,0,7.5-3.364,7.5-7.5Zm-13.256-5.267c-.202-.311-.744-.316-1.431,.13-.687,.446-.902,.944-.7,1.255,.202,.311,.937,.612,1.623,.166,.687-.446,.71-1.24,.508-1.551Z"/>
</svg>
