<?xml version="1.0" encoding="UTF-8"?>
<svg xmlns="http://www.w3.org/2000/svg" id="Layer_1" data-name="Layer 1" viewBox="0 0 24 24">
  <path d="M15.535,14.471c-.944-.944-2.2-1.465-3.535-1.465s-2.592,.521-3.535,1.465c-.944,.944-1.465,2.199-1.465,3.535s.521,2.592,1.469,3.54l1.778,1.739c.483,.473,1.118,.709,1.753,.709s1.27-.236,1.753-.709l1.782-1.743c.944-.944,1.465-2.2,1.465-3.536s-.521-2.591-1.465-3.535Zm-.703,6.36l-1.778,1.739c-.58,.568-1.527,.568-2.107,0l-1.774-1.735c-.756-.756-1.172-1.761-1.172-2.829s.416-2.072,1.172-2.828c.755-.756,1.76-1.172,2.828-1.172s2.072,.416,2.828,1.172,1.172,1.76,1.172,2.828-.416,2.073-1.168,2.825Zm-1.832-2.825c0,.552-.448,1-1,1s-1-.448-1-1,.448-1,1-1,1,.448,1,1ZM21.5,6h-3.5c0-3.309-2.691-6-6-6S6,2.691,6,6H2.5c-1.379,0-2.5,1.122-2.5,2.5v11c0,2.481,2.019,4.5,4.5,4.5h3c.276,0,.5-.224,.5-.5s-.224-.5-.5-.5h-3c-1.93,0-3.5-1.57-3.5-3.5V8.5c0-.827,.673-1.5,1.5-1.5h3.5v3.5c0,.276,.224,.5,.5,.5s.5-.224,.5-.5v-3.5h10v3.5c0,.276,.224,.5,.5,.5s.5-.224,.5-.5v-3.5h3.5c.827,0,1.5,.673,1.5,1.5v11c0,1.93-1.57,3.5-3.5,3.5h-3c-.276,0-.5,.224-.5,.5s.224,.5,.5,.5h3c2.481,0,4.5-2.019,4.5-4.5V8.5c0-1.378-1.121-2.5-2.5-2.5Zm-14.5,0c0-2.757,2.243-5,5-5s5,2.243,5,5H7Z"/>
</svg>
