<?xml version="1.0" encoding="UTF-8"?>
<svg xmlns="http://www.w3.org/2000/svg" id="Layer_1" data-name="Layer 1" viewBox="0 0 24 24">
  <path d="M.981,10.198l8.952,5.243c.638,.374,1.352,.561,2.066,.561s1.429-.187,2.066-.56l8.952-5.243c.614-.36,.981-.995,.981-1.698s-.367-1.338-.981-1.698L14.066,1.56c-1.275-.748-2.857-.747-4.133,0L.981,6.802c-.614,.36-.981,.995-.981,1.698s.367,1.338,.981,1.698Zm.506-2.532L10.439,2.422c.481-.282,1.021-.423,1.561-.423s1.079,.141,1.561,.423l8.952,5.243c.306,.178,.487,.49,.487,.834s-.182,.656-.487,.834l-8.952,5.244c-.963,.563-2.158,.564-3.121,0L1.487,9.334c-.306-.178-.487-.49-.487-.834s.182-.656,.487-.834Zm22.444,5.352c.14,.239,.059,.545-.18,.684l-9.956,5.803c-.552,.331-1.173,.497-1.794,.497s-1.247-.167-1.803-.5L.248,13.701c-.238-.139-.319-.445-.18-.684,.139-.239,.445-.318,.684-.18l9.956,5.803c.799,.479,1.784,.48,2.579,.003l9.961-5.807c.237-.138,.544-.059,.684,.18Zm0,4.001c.14,.239,.059,.545-.18,.684l-9.956,5.803c-.552,.331-1.173,.497-1.794,.497s-1.247-.167-1.803-.5L.248,17.703c-.238-.139-.319-.445-.18-.684,.139-.239,.445-.319,.684-.18l9.956,5.803c.799,.479,1.784,.48,2.579,.003l9.961-5.807c.237-.139,.544-.059,.684,.18Z"/>
</svg>
