<svg id="Layer_1" viewBox="0 0 24 24" xmlns="http://www.w3.org/2000/svg" data-name="Layer 1"><path d="m10 23.5c0 .276-.224.5-.5.5h-5c-2.481 0-4.5-2.019-4.5-4.5v-15c0-2.481 2.019-4.5 4.5-4.5h9c2.481 0 4.5 2.019 4.5 4.5 0 .276-.224.5-.5.5s-.5-.224-.5-.5c0-1.93-1.57-3.5-3.5-3.5h-9c-1.93 0-3.5 1.57-3.5 3.5v15c0 1.93 1.57 3.5 3.5 3.5h5c.276 0 .5.224.5.5zm10.5-16.5h-5c-.995 0-1.945.425-2.608 1.167-.184.205-.167.521.039.706.207.184.522.165.706-.04.474-.529 1.153-.833 1.863-.833h5c1.378 0 2.5 1.121 2.5 2.5v10c0 1.379-1.122 2.5-2.5 2.5h-5c-1.378 0-2.5-1.121-2.5-2.5 0-.276-.224-.5-.5-.5s-.5.224-.5.5c0 1.93 1.57 3.5 3.5 3.5h5c1.93 0 3.5-1.57 3.5-3.5v-10c0-1.93-1.57-3.5-3.5-3.5zm-11-2c.276 0 .5-.224.5-.5s-.224-.5-.5-.5h-3.5c-1.103 0-2 .897-2 2v3.5c0 .276.224.5.5.5s.5-.224.5-.5v-3.5c0-.086.029-.164.049-.244l11.194 11.194c-.08.021-.157.049-.244.049h-3.5c-.276 0-.5.224-.5.5s.224.5.5.5h3.5c1.103 0 2-.897 2-2v-3.5c0-.276-.224-.5-.5-.5s-.5.224-.5.5v3.5c0 .086-.029.164-.049.244l-11.194-11.194c.08-.021.157-.049.244-.049zm0 14h-2c-.276 0-.5.224-.5.5s.224.5.5.5h2c.276 0 .5-.224.5-.5s-.224-.5-.5-.5z"/></svg>