<svg id="Layer_1" viewBox="0 0 24 24" xmlns="http://www.w3.org/2000/svg" data-name="Layer 1"><path d="m16.684 15.916c2.924-1.623 6.549-4.358 7.21-8.176.074-.426-.046-.863-.328-1.198-.29-.344-.713-.542-1.163-.542-.721 0-1.339.519-1.469 1.234-.21 1.16-.924 2.331-2.123 3.484-.626-.514-1.188-1.093-1.677-1.73.913-1.006 2.486-3.162 2.808-6.326.043-.424-.097-.849-.383-1.166-.285-.315-.691-.496-1.114-.496-.771 0-1.41.574-1.485 1.335-.161 1.633-.76 2.89-1.37 3.778-.303-.874-.491-1.794-.559-2.746-.055-.767-.709-1.368-1.491-1.368-.414 0-.814.175-1.097.479-.286.308-.432.725-.401 1.145.321 4.369 2.441 7.242 4.352 8.973-.374.24-.764.473-1.166.696-.417.231-.795.526-1.13.879-.569-.916-.921-1.878-1.046-2.866-.095-.744-.731-1.305-1.481-1.305-.432 0-.844.187-1.131.512-.285.322-.417.75-.364 1.173.155 1.238.557 2.448 1.194 3.6-.083.412-.233.78-.451 1.103-.398-1.289-1.32-2.335-2.59-2.895-.647-.285-1.26-.609-1.829-.964 1.698-2.133 4.215-6.059 4.561-10.898.031-.425-.117-.846-.405-1.155-.287-.307-.675-.476-1.094-.476-.784 0-1.44.601-1.492 1.368-.1 1.451-.456 2.936-1.059 4.424-.5-.752-.812-1.585-.93-2.486-.097-.745-.733-1.306-1.481-1.306-.433 0-.845.188-1.132.514-.285.324-.417.752-.363 1.177.302 2.329 1.42 3.98 2.408 5.019-.395.63-.83 1.249-1.298 1.847-.578-.729-.925-1.486-1.055-2.301-.116-.728-.735-1.255-1.473-1.255-.442 0-.861.193-1.15.531-.285.333-.409.769-.343 1.196.487 3.132 2.881 5.729 6.923 7.511.877.387 1.268 1.401.891 2.307-.354.834-.7 1.732-.846 2.649-.11.691.09 1.396.55 1.935.473.554 1.161.872 1.888.872h5c.752 0 1.458-.334 1.936-.917.357-.435.544-.968.536-1.52.709-.279 1.89-.815 3.462-1.781.348-.214.598-.565.686-.965.088-.402.012-.812-.215-1.152-.449-.673-1.342-.869-2.035-.443-1.13.694-2.064 1.142-2.739 1.422-.069-.173-.143-.349-.223-.526-.364-.808-.03-1.755.775-2.202zm-1.688 2.612c.144.32.265.631.378.939.088.253.393.396.643.296.721-.267 1.891-.777 3.376-1.688.228-.14.533-.075.679.145.075.112.1.249.07.383-.03.138-.112.254-.232.327-1.809 1.111-3.058 1.623-3.642 1.828-.234.083-.368.347-.319.591.077.389-.024.78-.287 1.1-.284.345-.718.551-1.163.551h-5c-.434 0-.845-.19-1.127-.521-.273-.32-.388-.721-.323-1.129.104-.655.33-1.355.78-2.418.59-1.416-.029-3.001-1.409-3.61-3.714-1.637-5.906-3.971-6.338-6.75-.03-.19.059-.327.114-.392.098-.115.241-.181.39-.181.243 0 .447.173.485.413.187 1.167.755 2.265 1.691 3.265.191.215.57.208.75-.023.729-.88 1.388-1.809 1.959-2.761.12-.2.086-.456-.082-.617-.93-.898-2.101-2.445-2.394-4.713-.019-.141.025-.279.121-.389.263-.3.82-.133.872.261.178 1.369.738 2.602 1.665 3.665.111.127.283.19.448.167.168-.024.312-.131.383-.286.857-1.856 1.356-3.721 1.482-5.543.025-.375.583-.573.855-.28.101.108.15.251.14.402-.351 4.909-3.085 8.85-4.685 10.762-.189.215-.139.576.101.733.742.51 1.565.965 2.446 1.354 1.249.551 2.069 1.699 2.195 3.073.024.384.513.595.808.347.554-.438 1.256-1.236 1.458-2.556.017-.112-.004-.227-.061-.325-.624-1.083-1.014-2.223-1.159-3.385-.018-.141.025-.278.122-.387.265-.298.821-.132.871.257.172 1.354.708 2.655 1.595 3.868.187.272.625.27.81-.003.344-.48.765-.86 1.249-1.129.628-.349 1.23-.721 1.789-1.106.269-.176.288-.599.034-.798-1.873-1.542-4.173-4.304-4.498-8.711-.011-.146.038-.284.137-.391.273-.296.831-.1.858.279.098 1.363.42 2.668.958 3.88.134.33.616.4.836.123.841-.98 1.894-2.646 2.127-5.009.037-.382.593-.565.862-.268.099.109.145.25.13.394-.328 3.225-2.08 5.294-2.817 6.034-.172.172-.195.443-.054.642.681.964 1.509 1.818 2.461 2.539.19.144.458.134.636-.027 1.553-1.396 2.477-2.855 2.745-4.334.071-.392.626-.532.883-.227.054.064.14.199.108.383-.593 3.428-3.976 5.956-6.71 7.473-1.264.701-1.781 2.2-1.202 3.486z"/></svg>