<?xml version="1.0" encoding="UTF-8"?>
<svg xmlns="http://www.w3.org/2000/svg" id="Outline" viewBox="0 0 24 24">
  <path d="m19.5,4h-1.551c-.252-2.244-2.139-4-4.449-4h-3c-2.31,0-4.197,1.756-4.449,4h-1.551C2.019,4,0,6.019,0,8.5v11c0,2.481,2.019,4.5,4.5,4.5h15c2.481,0,4.5-2.019,4.5-4.5v-11c0-2.481-2.019-4.5-4.5-4.5ZM10.5,1h3c1.758,0,3.204,1.308,3.449,3H7.051c.245-1.692,1.691-3,3.449-3Zm-6,4h15c1.93,0,3.5,1.57,3.5,3.5v3.5H1v-3.5c0-1.93,1.57-3.5,3.5-3.5Zm15,18H4.5c-1.93,0-3.5-1.57-3.5-3.5v-6.5h10.5v1.5c0,.276.224.5.5.5s.5-.224.5-.5v-1.5h10.5v6.5c0,1.93-1.57,3.5-3.5,3.5Z"/>
</svg>
