<?xml version="1.0" encoding="UTF-8"?>
<svg xmlns="http://www.w3.org/2000/svg" id="Layer_1" data-name="Layer 1" viewBox="0 0 24 24">
  <path d="m7.01,21c.502,0,.93-.361.994-.84.167-1.231,1.232-2.16,2.477-2.16s2.31.929,2.477,2.16c.065.479.493.84.995.84h.547c2.481,0,4.5-2.019,4.5-4.5V4.5c0-2.481-2.019-4.5-4.5-4.5h-.547c-.502,0-.929.361-.995.84-.167,1.231-1.232,2.16-2.477,2.16s-2.31-.929-2.477-2.159c-.064-.479-.492-.841-.994-.841h-.51C4.019,0,2,2.019,2,4.5v12c0,2.481,2.019,4.5,4.5,4.5h.51Zm-4.01-4.5V4.5c0-1.93,1.57-3.5,3.5-3.5l.513-.025c.234,1.725,1.725,3.025,3.468,3.025s3.234-1.301,3.472-3h.547c1.93,0,3.5,1.57,3.5,3.5v12c0,1.93-1.57,3.5-3.5,3.5l-.55.025c-.234-1.725-1.725-3.025-3.468-3.025s-3.234,1.301-3.471,3h-.51c-1.93,0-3.5-1.57-3.5-3.5ZM22,5.5v12c0,3.584-2.916,6.5-6.5,6.5H6.5c-.276,0-.5-.224-.5-.5s.224-.5.5-.5h9c3.033,0,5.5-2.468,5.5-5.5V5.5c0-.276.224-.5.5-.5s.5.224.5.5Z"/>
</svg>
