<svg id="Layer_1" viewBox="0 0 24 24" xmlns="http://www.w3.org/2000/svg" data-name="Layer 1"><path d="m11 23.5c0 .276-.224.5-.5.5h-5.817c-1.386 0-2.693-.608-3.584-1.67-.892-1.061-1.267-2.453-1.028-3.818l2.561-14.637c.393-2.246 2.332-3.875 4.612-3.875h9.499c2.277 0 4.216 1.628 4.611 3.87l.64 3.634c.047.272-.134.531-.406.579-.273.046-.531-.134-.579-.406l-.639-3.634c-.311-1.763-1.835-3.043-3.626-3.043h-9.5c-1.792 0-3.318 1.281-3.626 3.047l-2.562 14.637c-.188 1.074.107 2.168.808 3.003.701.834 1.729 1.313 2.819 1.313h5.817c.276 0 .5.224.5.5zm1-19.5c-.276 0-.5.224-.5.5v3c0 .276.224.5.5.5s.5-.224.5-.5v-3c0-.276-.224-.5-.5-.5zm0 6c-.276 0-.5.224-.5.5v3c0 .276.224.5.5.5s.5-.224.5-.5v-3c0-.276-.224-.5-.5-.5zm12 8.5v2c0 1.93-1.57 3.5-3.5 3.5h-4c-1.93 0-3.5-1.57-3.5-3.5v-2c0-1.392.82-2.594 2-3.157v-1.843c0-1.93 1.57-3.5 3.5-3.5s3.5 1.57 3.5 3.5v1.843c1.18.563 2 1.765 2 3.157zm-8-3.46c.164-.024.33-.04.5-.04h4c.17 0 .336.016.5.04v-1.54c0-1.378-1.122-2.5-2.5-2.5s-2.5 1.122-2.5 2.5zm7 3.46c0-1.378-1.122-2.5-2.5-2.5h-4c-1.378 0-2.5 1.122-2.5 2.5v2c0 1.378 1.122 2.5 2.5 2.5h4c1.378 0 2.5-1.122 2.5-2.5zm-4.5 0c-.552 0-1 .448-1 1s.448 1 1 1 1-.448 1-1-.448-1-1-1z"/></svg>