<?xml version="1.0" encoding="UTF-8"?>
<svg xmlns="http://www.w3.org/2000/svg" id="Layer_1" data-name="Layer 1" viewBox="0 0 24 24">
  <path d="M21.48,3.02c-1.379,0-2.5,1.121-2.5,2.5s1.121,2.5,2.5,2.5,2.5-1.121,2.5-2.5-1.121-2.5-2.5-2.5Zm0,4c-.827,0-1.5-.673-1.5-1.5s.673-1.5,1.5-1.5,1.5,.673,1.5,1.5-.673,1.5-1.5,1.5Zm-.163,5.188c-.24-.964-.804-1.833-1.586-2.448l-5.35-4.203c-.242-.19-.382-.477-.382-.786V.5c0-.276-.224-.5-.5-.5h-.5c-.133,0-.26,.053-.354,.146L1.318,11.475c-.851,.85-1.318,1.98-1.318,3.183v8.843c0,.276,.224,.5,.5,.5s.5-.224,.5-.5V14.657c0-.936,.364-1.814,1.025-2.476L13,1.207v3.563c0,.618,.278,1.192,.765,1.573l2.294,1.803-4.758,5.84-1.716-1.494c-.364-.317-.83-.492-1.313-.492H3.5c-.276,0-.5,.224-.5,.5s.224,.5,.5,.5h4.771c.241,0,.475,.087,.657,.246l4.273,3.722c-.073,.01-.143,.035-.217,.032H7.74c-.617,0-1.211,.293-1.587,.782l-2.617,3.413c-.168,.22-.127,.533,.092,.701,.217,.168,.532,.128,.701-.092l2.617-3.413c.191-.249,.48-.392,.794-.392h5.235c.814-.003,1.721-.458,2.412-1.274l4.427-5.425c.243,.348,.429,.735,.532,1.15l.624,2.495c.02,.076,.029,.156,.029,.239v4.315c0,.276,.224,.5,.5,.5s.5-.224,.5-.5v-4.315c0-.167-.021-.33-.06-.484l-.623-2.492Zm-6.699,3.878c-.12,.142-.27,.283-.43,.415l-2.133-1.858,4.79-5.879,2.269,1.783s.009,.009,.013,.013l-4.51,5.527Z"/>
</svg>
