<svg id="Layer_1" viewBox="0 0 24 24" xmlns="http://www.w3.org/2000/svg" data-name="Layer 1"><path d="m20 0h-10.5c-.276 0-.5.224-.5.5s.224.5.5.5h10.5c1.654 0 3 1.346 3 3v7c0 1.654-1.346 3-3 3h-10.5c-.276 0-.5.224-.5.5s.224.5.5.5h4.5v2.071c-.86.224-1.5 1-1.5 1.929 0 1.103.897 2 2 2s2-.897 2-2c0-.929-.64-1.705-1.5-1.929v-2.071h5c2.206 0 4-1.794 4-4v-7c0-2.206-1.794-4-4-4zm-4.5 19c0 .551-.448 1-1 1s-1-.449-1-1 .448-1 1-1 1 .449 1 1zm-11-14c1.378 0 2.5-1.122 2.5-2.5s-1.122-2.5-2.5-2.5-2.5 1.122-2.5 2.5 1.122 2.5 2.5 2.5zm0-4c.827 0 1.5.673 1.5 1.5s-.673 1.5-1.5 1.5-1.5-.673-1.5-1.5.673-1.5 1.5-1.5zm2.5 8.5v14c0 .276-.224.5-.5.5s-.5-.224-.5-.5v-6.5h-2.5c-.171 0-.335-.027-.5-.051v6.551c0 .276-.224.5-.5.5s-.5-.224-.5-.5v-6.851c-1.178-.564-2-1.758-2-3.149v-4c0-1.93 1.57-3.5 3.5-3.5h11c.276 0 .5.224.5.5s-.224.5-.5.5h-11c-1.378 0-2.5 1.122-2.5 2.5v4c0 1.378 1.122 2.5 2.5 2.5h2.5v-6.5c0-.276.224-.5.5-.5s.5.224.5.5z"/></svg>