<svg id="Layer_1" viewBox="0 0 24 24" xmlns="http://www.w3.org/2000/svg" data-name="Layer 1"><path d="m5 8.5v7c0 .276-.224.5-.5.5s-.5-.224-.5-.5v-3h-3v3c0 .276-.224.5-.5.5s-.5-.224-.5-.5v-7c0-.276.224-.5.5-.5s.5.224.5.5v3h3v-3c0-.276.224-.5.5-.5s.5.224.5.5zm1.5-.5c-.276 0-.5.224-.5.5v7c0 .276.224.5.5.5s.5-.224.5-.5v-7c0-.276-.224-.5-.5-.5zm12 0c-.276 0-.5.224-.5.5v7c0 .276.224.5.5.5s.5-.224.5-.5v-7c0-.276-.224-.5-.5-.5zm-6.5 2.5c0 1.379-1.122 2.5-2.5 2.5h-.5v2.5c0 .276-.224.5-.5.5s-.5-.224-.5-.5v-6.5c0-.552.449-1 1-1h.5c1.378 0 2.5 1.121 2.5 2.5zm-1 0c0-.827-.673-1.5-1.5-1.5h-.5v3h.5c.827 0 1.5-.673 1.5-1.5zm6 0c0 1.379-1.122 2.5-2.5 2.5h-.5v2.5c0 .276-.224.5-.5.5s-.5-.224-.5-.5v-6.5c0-.552.449-1 1-1h.5c1.378 0 2.5 1.121 2.5 2.5zm-1 0c0-.827-.673-1.5-1.5-1.5h-.5v3h.5c.827 0 1.5-.673 1.5-1.5zm7.5 2c.276 0 .5-.224.5-.5s-.224-.5-.5-.5h-2.5v-2.5h2.5c.276 0 .5-.224.5-.5s-.224-.5-.5-.5h-2.5c-.551 0-1 .448-1 1v6c0 .552.449 1 1 1h2.5c.276 0 .5-.224.5-.5s-.224-.5-.5-.5h-2.5v-2.5z"/></svg>