<svg id="Layer_1" viewBox="0 0 24 24" xmlns="http://www.w3.org/2000/svg" data-name="Layer 1"><path d="m19.5 4h-1.5v-1.5c0-1.379-1.121-2.5-2.5-2.5h-3.5s-.003.001-.005.001-.003-.001-.005-.001c-.598 0-1.186.203-1.655.572l-7.834 6.141c-1.582 1.24-2.489 3.104-2.489 5.115v7.672c0 2.481 2.019 4.5 4.5 4.5h14.988c2.481 0 4.5-2.019 4.5-4.5v-11c0-2.481-2.019-4.5-4.5-4.5zm3.5 4.5v3.5h-10.5l-.011-7h7.011c1.93 0 3.5 1.57 3.5 3.5zm-11.511 7.5h-2.489c-.552 0-1-.448-1-1v-2c0-.552.448-1 1-1h2.489zm5.511-13.5v1.5h-4.511v-3h3.011c.827 0 1.5.673 1.5 1.5zm-12.488 20.5c-1.93 0-3.5-1.57-3.5-3.5v-7.672c0-1.701.768-3.278 2.106-4.328l7.833-6.141c.161-.127.344-.222.538-.283v9.924h-2.489c-1.103 0-2 .897-2 2v2c0 1.103.897 2 2 2h2.489v6zm14.988 0h-7.011l.011-10h5.5v1.5c0 .276.224.5.5.5s.5-.224.5-.5v-1.5h4v6.5c0 1.93-1.57 3.5-3.5 3.5z"/></svg>