<svg id="Layer_1" viewBox="0 0 24 24" xmlns="http://www.w3.org/2000/svg" data-name="Layer 1"><path d="m15.982 23.467c.018.275-.19.514-.466.532-.011 0-.022 0-.033 0-.261 0-.481-.203-.499-.467-.241-3.663-3.309-6.533-6.984-6.533s-6.743 2.87-6.984 6.533c-.018.276-.264.473-.532.466-.276-.018-.484-.256-.466-.532.276-4.188 3.782-7.467 7.982-7.467s7.707 3.28 7.982 7.467zm-12.982-14.467c0-2.757 2.243-5 5-5s5 2.243 5 5-2.243 5-5 5-5-2.243-5-5zm1 0c0 2.206 1.794 4 4 4s4-1.794 4-4-1.794-4-4-4-4 1.794-4 4zm19.889-5.333-3.115-3.115c-.661-.662-1.816-.662-2.478 0l-3.115 3.115c-.195.195-.195.512 0 .707s.512.195.707 0l3.111-3.111v8.237c0 .276.224.5.5.5s.5-.224.5-.5v-8.285c.021.017 3.182 3.159 3.182 3.159.195.195.512.195.707 0s.195-.512 0-.707z"/></svg>