<?xml version="1.0" encoding="UTF-8"?>
<svg xmlns="http://www.w3.org/2000/svg" id="Layer_1" data-name="Layer 1" viewBox="0 0 24 24">
  <path d="m22.928,1.074c-.917-.916-2.213-1.274-3.462-.965-4.027,1.001-9.885,3.632-14.252,8.012-1.503,1.507-2.307,3.594-2.205,5.725.083,1.727.734,3.316,1.844,4.594L.146,23.146c-.195.195-.195.512,0,.707.098.098.226.146.354.146s.256-.049.354-.146l4.774-4.639c1.342,1.109,2.577,1.781,4.808,1.781,2.097,0,4.225-.852,5.812-2.509,4.177-4.361,6.729-10.261,7.645-13.988.305-1.238-.056-2.519-.965-3.425ZM5.561,17.732c-.936-1.101-1.483-2.459-1.554-3.934-.088-1.851.609-3.662,1.914-4.972.656-.658,1.359-1.261,2.079-1.84v8.306l-2.439,2.439Zm9.965.064c-1.379,1.439-3.263,2.225-5.116,2.204-1.498-.017-2.975-.587-4.147-1.556l6.444-6.444h7.038c-1.138,2.018-2.533,4.036-4.219,5.796Zm7.396-13.535c-.456,1.853-1.336,4.263-2.626,6.739h-6.589l4.146-4.146c.195-.195.195-.512,0-.707s-.512-.195-.707,0l-8.146,8.146V6.216c3.688-2.7,7.83-4.421,10.707-5.136.908-.229,1.848.036,2.515.702.659.657.92,1.583.701,2.479Z"/>
</svg>
