<svg id="Layer_1" viewBox="0 0 24 24" xmlns="http://www.w3.org/2000/svg" data-name="Layer 1"><path d="m19.5 1h-15c-2.481 0-4.5 2.019-4.5 4.5v9c0 2.481 2.019 4.5 4.5 4.5h7v3h-5c-.276 0-.5.224-.5.5s.224.5.5.5h11c.276 0 .5-.224.5-.5s-.224-.5-.5-.5h-5v-3h7c2.481 0 4.5-2.019 4.5-4.5v-9c0-2.481-2.019-4.5-4.5-4.5zm-15 1h15c1.93 0 3.5 1.57 3.5 3.5v8.5h-22v-8.5c0-1.93 1.57-3.5 3.5-3.5zm15 16h-15c-1.758 0-3.204-1.308-3.449-3h21.898c-.245 1.692-1.691 3-3.449 3zm-5.5-6.012h1.5c1.379 0 2.5-1.122 2.5-2.5v-2.988c0-1.385-1.127-2.512-2.513-2.512h-1.487c-.552 0-1 .449-1 1v6c0 .551.448 1 1 1zm0-7h1.487c.834 0 1.513.678 1.513 1.512v2.988c0 .827-.673 1.5-1.5 1.5h-1.5zm-6.979 6.992c.238.001.443-.166.49-.399l.32-1.581h2.36l.331 1.61c.047.226.245.389.476.39.31.002.543-.282.481-.585l-1.271-6.296c-.131-.644-.591-1.115-1.206-1.119-.6 0-1.083.493-1.198 1.088l-1.268 6.297c-.062.307.172.594.485.596zm1.763-6.696c.029-.133.106-.268.216-.285.11.018.167.093.227.317l.758 3.683h-1.952z"/></svg>