<?xml version="1.0" encoding="UTF-8"?>
<svg xmlns="http://www.w3.org/2000/svg" id="Layer_1" data-name="Layer 1" viewBox="0 0 24 24">
  <path d="M.533,10.996c.268,.037,.526-.156,.56-.431,.185-1.422,.65-2.765,1.36-4.007,.453,.275,.979,.443,1.547,.443,1.654,0,3-1.346,3-3,0-.568-.168-1.094-.443-1.547,1.242-.71,2.585-1.175,4.007-1.36,.274-.036,.467-.286,.431-.56-.036-.274-.285-.472-.56-.431-1.62,.211-3.149,.747-4.553,1.581-.516-.42-1.166-.683-1.882-.683-1.654,0-3,1.346-3,3,0,.716,.263,1.366,.683,1.882C.849,7.286,.312,8.815,.102,10.436c-.036,.274,.157,.524,.431,.56ZM4,2c1.103,0,2,.897,2,2s-.897,2-2,2-2-.897-2-2,.897-2,2-2Zm6.564,20.907c-1.422-.185-2.765-.65-4.007-1.36,.275-.453,.443-.979,.443-1.547,0-1.654-1.346-3-3-3-.568,0-1.094,.168-1.547,.443-.71-1.242-1.175-2.585-1.36-4.007-.036-.274-.288-.473-.56-.431-.274,.036-.467,.286-.431,.56,.211,1.62,.747,3.149,1.582,4.553-.42,.516-.683,1.166-.683,1.882,0,1.654,1.346,3,3,3,.716,0,1.366-.263,1.882-.683,1.404,.834,2.933,1.371,4.553,1.582,.268,.037,.526-.156,.56-.431,.036-.274-.157-.524-.431-.56Zm-6.564-.907c-1.103,0-2-.897-2-2s.897-2,2-2,2,.897,2,2-.897,2-2,2ZM23.468,13.004c-.27-.04-.524,.157-.561,.431-.186,1.423-.65,2.766-1.36,4.007-.453-.275-.979-.443-1.547-.443-1.654,0-3,1.346-3,3,0,.568,.168,1.094,.443,1.547-1.242,.71-2.585,1.175-4.007,1.36-.273,.036-.467,.286-.432,.56,.035,.275,.292,.468,.561,.431,1.621-.211,3.15-.747,4.553-1.582,.516,.421,1.166,.683,1.883,.683,1.654,0,3-1.346,3-3,0-.716-.263-1.365-.683-1.882,.834-1.403,1.37-2.932,1.582-4.554,.035-.273-.157-.524-.432-.56Zm-3.468,8.996c-1.103,0-2-.897-2-2s.897-2,2-2,2,.897,2,2-.897,2-2,2ZM13.436,1.093c1.422,.185,2.766,.65,4.007,1.36-.275,.453-.443,.979-.443,1.547,0,1.654,1.346,3,3,3,.568,0,1.094-.168,1.547-.443,.709,1.241,1.174,2.584,1.36,4.007,.035,.275,.292,.468,.561,.431,.274-.036,.467-.287,.432-.56-.212-1.622-.748-3.151-1.583-4.553,.421-.516,.683-1.166,.683-1.883,0-1.654-1.346-3-3-3-.716,0-1.366,.263-1.883,.683-1.403-.835-2.932-1.371-4.553-1.582-.272-.04-.524,.157-.561,.431-.035,.274,.158,.524,.432,.56Zm6.564,.907c1.103,0,2,.897,2,2s-.897,2-2,2-2-.897-2-2,.897-2,2-2Zm-2,8.388c0-1.899-1.428-3.388-3.25-3.388-1.082,0-2.037,.537-2.75,1.53-.713-.993-1.668-1.53-2.75-1.53-1.822,0-3.25,1.488-3.25,3.388,0,2.915,3.965,6.189,4.417,6.553,.932,.749,2.234,.749,3.166,0,.452-.364,4.417-3.638,4.417-6.553Zm-6.956,5.774c-1.502-1.208-4.044-3.784-4.044-5.774,0-1.361,.967-2.388,2.25-2.388,1.191,0,1.91,.938,2.303,1.724,.17,.339,.725,.339,.895,0,.393-.786,1.111-1.724,2.303-1.724,1.282,0,2.25,1.026,2.25,2.388,0,1.99-2.542,4.565-4.044,5.774-.562,.452-1.35,.452-1.912,0Z"/>
</svg>
