<?xml version="1.0" encoding="UTF-8"?>
<svg xmlns="http://www.w3.org/2000/svg" id="Layer_1" data-name="Layer 1" viewBox="0 0 24 24">
  <path d="M18,7.259c1.892,1.511,3,3.78,3,6.241v1c0,.276,.224,.5,.5,.5s.5-.224,.5-.5v-1c0-3.026-1.495-5.79-4-7.468v-.032c0-3.309-2.691-6-6-6S6,2.691,6,6v.032c-2.505,1.677-4,4.441-4,7.468v10c0,.276,.224,.5,.5,.5s.5-.224,.5-.5V13.5c0-2.46,1.108-4.729,3-6.241v5.241c0,1.717,.792,3.251,2.028,4.261,.011,.01,.017,.023,.03,.032,.01,.007,.022,.008,.032,.015,.938,.745,2.122,1.193,3.41,1.193h1c1.292,0,2.48-.451,3.42-1.2,.007-.005,.016-.002,.023-.007,.012-.009,.018-.022,.03-.032,1.236-1.009,2.028-2.544,2.028-4.261V7.259Zm-5.5,9.741h-1c-.892,0-1.719-.268-2.419-.718,.753-.81,1.811-1.282,2.919-1.282s2.166,.472,2.919,1.282c-.7,.449-1.527,.718-2.419,.718Zm4.5-4.5c0,1.229-.497,2.343-1.299,3.156-.944-1.044-2.29-1.656-3.701-1.656s-2.758,.611-3.701,1.656c-.801-.813-1.299-1.926-1.299-3.156V6c0-2.757,2.243-5,5-5s5,2.243,5,5v6.5ZM2.026,4.623l-.423-1.269-1.27-.449c-.445-.141-.432-.824,.018-.948l1.256-.393,.419-1.257c.136-.408,.812-.408,.948,0l.421,1.263,1.263,.421c.447,.132,.447,.816,0,.948l-1.263,.421-.421,1.263c-.132,.447-.816,.447-.948,0Zm21.66,15.413l-1.943-.777-.778-1.944c-.15-.38-.777-.38-.928,0l-.776,1.939-1.937,.733c-.191,.073-.319,.254-.323,.458s.117,.391,.306,.47l1.95,.822,.78,1.949c.148,.412,.78,.412,.928,0l.778-1.944,1.943-.777c.412-.149,.412-.78,0-.929Zm-2.514,.857c-.127,.051-.228,.151-.278,.279l-.394,.982-.394-.982c-.049-.125-.146-.223-.27-.275l-.99-.417,.973-.368c.131-.05,.235-.152,.287-.282l.394-.982,.394,.982c.051,.127,.151,.228,.278,.279l.981,.393-.981,.393Z"/>
</svg>
