<svg id="Layer_1" viewBox="0 0 24 24" xmlns="http://www.w3.org/2000/svg" data-name="Layer 1"><path d="m21.373 18.669c.284-.557.367-1.221.193-1.862-.176-.638-.587-1.16-1.118-1.477.09-.629-.047-1.29-.421-1.835-.372-.533-.927-.886-1.538-.995-.127-.616-.477-1.178-1.011-1.55-.39-.277-.854-.426-1.334-.426-.127 0-.253.01-.377.031-.404-.705-1.211-1.199-2.041-1.189-.37 0-.729.09-1.052.254-.426-.386-.98-.618-1.674-.618-.726 0-1.248.232-1.674.618-.323-.164-.682-.254-1.052-.254-.833-.01-1.636.486-2.041 1.189-.124-.021-.25-.031-.377-.031-.48 0-.944.149-1.341.43-.53.369-.878.93-1.005 1.546-.61.109-1.164.461-1.531.987-.376.55-.515 1.213-.426 1.843-.531.316-.942.837-1.118 1.474-.175.643-.092 1.308.192 1.865-.366.437-.592 1.007-.609 1.623-.086.683.14 1.38.642 1.97.674.793 2.125 1.738 5.209 1.738h10.262c3.085 0 4.536-.946 5.21-1.739.502-.591.727-1.287.641-1.97-.018-.615-.243-1.185-.609-1.622zm-5.242 4.331h-10.262c-3.732 0-5.033-1.521-4.852-2.63 0-.499.212-.952.55-1.237.208-.176.247-.482.085-.701-.276-.37-.385-.871-.252-1.363.133-.478.474-.834.887-.987.256-.095.398-.372.316-.633-.144-.455-.087-.977.196-1.39.274-.391.698-.596 1.123-.596.286.001.525-.213.536-.499.017-.469.24-.919.636-1.195.236-.167.5-.246.762-.246.159 0 .317.029.467.085.263.099.553-.026.649-.29.154-.424.488-.766.93-.9.124-.037.249-.054.373-.054.301 0 .591.105.828.29.225.176.54.132.717-.092.27-.341.695-.56 1.18-.56.491.001.915.229 1.184.57.173.22.484.266.703.091.239-.191.533-.299.839-.299.123 0 .248.018.373.054.442.133.776.476.93.9.096.264.386.389.649.29.15-.056.308-.085.467-.085.262 0 .527.079.762.246.396.276.619.726.636 1.195.01.286.25.5.536.499.425 0 .849.204 1.123.596.283.413.34.935.196 1.39-.082.26.06.537.316.633.413.154.755.509.887.987.134.492.024.993-.252 1.363-.163.218-.123.525.085.701.338.285.549.738.549 1.237.182 1.108-1.12 2.63-4.852 2.63zm2.869-3.594v1.094c0 .276-.224.5-.5.5s-.5-.224-.5-.5v-1.094c0-3.188-2.164-6.406-7-6.406s-7 3.218-7 6.406v1.094c0 .276-.224.5-.5.5s-.5-.224-.5-.5v-1.094c0-3.567 2.503-7.406 8-7.406s8 3.839 8 7.406zm5-7.854c0 .648-.276 1.313-.769 1.831-.23.245-.632.195-.795-.099l-.005-.009c-.106-.191-.07-.426.079-.586.4-.43.541-.904.473-1.32 0-.509-.22-.97-.57-1.254-.199-.162-.238-.459-.08-.662.288-.372.404-.883.268-1.384-.135-.487-.487-.847-.91-.996-.244-.086-.382-.355-.3-.601.153-.46.099-.993-.188-1.413-.274-.391-.727-.595-1.152-.595-.27.007-.501-.2-.506-.471-.009-.479-.232-.942-.637-1.224-.236-.167-.5-.246-.762-.246-.159 0-.317.029-.467.085-.263.099-.553-.026-.649-.29-.154-.424-.488-.766-.93-.9-.124-.037-.25-.054-.373-.054-.306 0-.6.108-.84.299-.218.174-.529.129-.702-.091-.268-.341-.693-.569-1.184-.571-.49 0-.918.223-1.188.569-.171.22-.482.264-.701.09-.239-.19-.532-.298-.837-.298-.123 0-.248.018-.373.054-.442.133-.776.476-.93.9-.096.264-.386.389-.649.29-.15-.056-.308-.085-.467-.086-.262 0-.527.079-.762.246-.405.282-.628.744-.637 1.224-.005.27-.236.478-.506.471-.425 0-.878.204-1.152.595-.288.42-.342.953-.188 1.413.082.246-.056.515-.3.601-.424.149-.775.509-.911.996-.067.245-.073.493-.028.726.037.192-.055.388-.217.496-.291.205-.695.04-.763-.31-.074-.381-.063-.784.044-1.178.176-.636.587-1.158 1.118-1.474-.089-.63.049-1.293.426-1.843.368-.526.922-.878 1.531-.987.127-.615.475-1.176 1.005-1.545.397-.282.861-.43 1.341-.43.127 0 .253.011.377.031.405-.703 1.208-1.199 2.041-1.189.37 0 .729.09 1.052.254.425-.383.947-.614 1.673-.614.693 0 1.248.232 1.674.618.323-.164.682-.255 1.052-.254.83-.01 1.637.484 2.041 1.189.124-.021.25-.031.377-.031.48 0 .944.149 1.334.426.534.372.883.934 1.011 1.55.61.109 1.165.462 1.538.995.373.546.51 1.206.421 1.835.531.316.942.839 1.118 1.477.174.64.091 1.305-.193 1.862.434.496.628 1.21.628 1.883zm-18.092-3.595c-.252-.112-.366-.408-.254-.66.713-1.604 2.616-4.297 7.345-4.297 5.496 0 8 3.888 8 7.5 0 .276-.224.5-.5.5s-.5-.224-.5-.5c0-2.414-1.475-6.5-7-6.5-4.164 0-5.817 2.32-6.431 3.703-.112.252-.406.368-.66.254z"/></svg>