<svg id="Layer_1" viewBox="0 0 24 24" xmlns="http://www.w3.org/2000/svg" data-name="Layer 1"><path d="m4 5c0-.552.448-1 1-1s1 .448 1 1-.448 1-1 1-1-.448-1-1zm-2.531 3.539c-.948-.948-1.469-2.203-1.469-3.539s.521-2.591 1.465-3.535c.943-.944 2.199-1.465 3.535-1.465s2.591.521 3.535 1.465 1.465 2.199 1.465 3.535-.521 2.591-1.465 3.535l-1.834 1.794c-.469.459-1.085.688-1.701.688s-1.232-.229-1.701-.688zm-.469-3.539c0 1.068.416 2.073 1.172 2.828l1.826 1.786c.554.541 1.452.541 2.004 0l1.83-1.79c.752-.751 1.168-1.756 1.168-2.824s-.416-2.073-1.172-2.828c-.756-.756-1.76-1.172-2.828-1.172s-2.073.416-2.828 1.172c-.756.755-1.172 1.76-1.172 2.828zm23 6.5v5c0 1.499-.952 2.771-2.28 3.268.179.387.28.802.28 1.232 0 1.654-1.346 3-3 3s-3-1.346-3-3c0-.345.064-.68.18-1h-8.36c.116.32.18.655.18 1 0 1.654-1.346 3-3 3s-3-1.346-3-3c0-.43.101-.845.28-1.232-1.328-.498-2.28-1.769-2.28-3.268v-6c0-.276.224-.5.5-.5s.5.224.5.5v6c0 1.379 1.121 2.5 2.5 2.5h12.5v-12.5c0-1.93-1.57-3.5-3.5-3.5-.276 0-.5-.224-.5-.5s.224-.5.5-.5c2.481 0 4.5 2.019 4.5 4.5v.5h2.5c2.481 0 4.5 2.019 4.5 4.5zm-7-3.5v5h6v-1.5c0-1.93-1.57-3.5-3.5-3.5zm-10.304 12h-3.196c-.064 0-.123-.015-.186-.019-.192.314-.314.657-.314 1.019 0 1.103.897 2 2 2s2-.897 2-2c0-.355-.119-.691-.304-1zm13.99-.019c-.063.003-.122.019-.186.019h-3.196c-.185.309-.304.645-.304 1 0 1.103.897 2 2 2s2-.897 2-2c0-.362-.122-.705-.314-1.019zm2.314-3.481v-2.5h-6v5h3.5c1.379 0 2.5-1.121 2.5-2.5z"/></svg>