<?xml version="1.0" encoding="UTF-8"?>
<svg xmlns="http://www.w3.org/2000/svg" id="Layer_1" data-name="Layer 1" viewBox="0 0 24 24">
  <path d="m22.48,12.864s-.002-.01-.004-.014l-.584-1.85h1.607c.276,0,.5-.224.5-.5s-.224-.5-.5-.5h-1.923l-1.217-3.855c-.564-1.787-2.148-3.016-3.996-3.135-.633-1.803-2.33-3.01-4.246-3.01h-.234c-1.916,0-3.612,1.207-4.246,3.01-1.848.119-3.433,1.348-3.997,3.135l-1.217,3.855H.5c-.276,0-.5.224-.5.5s.224.5.5.5h1.607l-.584,1.85s-.002.01-.004.014c-.925.733-1.52,1.867-1.52,3.136,0,1.478.806,2.772,2.002,3.464,0,.012-.002.024-.002.036v2c0,1.378,1.121,2.5,2.5,2.5s2.5-1.122,2.5-2.5v-1.5h10v1.5c0,1.378,1.121,2.5,2.5,2.5s2.5-1.122,2.5-2.5v-2c0-.012,0-.024-.002-.036,1.196-.692,2.002-1.986,2.002-3.464,0-1.27-.594-2.403-1.52-3.136ZM11.883,1h.234c1.366,0,2.589.789,3.163,2h-6.559c.573-1.211,1.796-2,3.162-2Zm-7.289,5.446c.462-1.463,1.804-2.446,3.338-2.446h8.137c1.534,0,2.876.983,3.338,2.446l1.814,5.745c-.385-.124-.795-.191-1.22-.191H4c-.425,0-.835.067-1.22.191l1.814-5.745Zm1.406,15.054c0,.827-.673,1.5-1.5,1.5s-1.5-.673-1.5-1.5v-1.627c.32.083.655.127,1,.127h2v1.5Zm15,0c0,.827-.673,1.5-1.5,1.5s-1.5-.673-1.5-1.5v-1.5h2c.345,0,.68-.044,1-.127v1.627Zm-1-2.5H4c-1.654,0-3-1.346-3-3s1.346-3,3-3v2.5c0,.276.224.5.5.5s.5-.224.5-.5v-2.5h14v2.5c0,.276.224.5.5.5s.5-.224.5-.5v-2.5c1.654,0,3,1.346,3,3s-1.346,3-3,3Z"/>
</svg>
