<svg id="Layer_1" viewBox="0 0 24 24" xmlns="http://www.w3.org/2000/svg" data-name="Layer 1"><path d="m22 16.051v-8.551c0-2.481-2.019-4.5-4.5-4.5h-11c-2.481 0-4.5 2.019-4.5 4.5v8.551c-1.14.232-2 1.242-2 2.449 0 1.379 1.121 2.5 2.5 2.5h19c1.379 0 2.5-1.121 2.5-2.5 0-1.208-.86-2.217-2-2.449zm-15.5-12.051h11c1.93 0 3.5 1.57 3.5 3.5v8.5h-5.5c-.133 0-.26.053-.354.146l-.854.854h-4.586l-.854-.854c-.094-.094-.221-.146-.354-.146h-5.498v-8.5c0-1.93 1.57-3.5 3.5-3.5zm15 16h-19c-.827 0-1.5-.673-1.5-1.5s.673-1.5 1.5-1.5h5.793l.854.854c.094.094.221.146.354.146h5c.133 0 .26-.053.354-.146l.854-.854h5.793c.827 0 1.5.673 1.5 1.5s-.673 1.5-1.5 1.5zm-6.5-13.5c0-.276.224-.5.5-.5h3c.276 0 .5.224.5.5s-.224.5-.5.5h-3c-.276 0-.5-.224-.5-.5zm0 3c0-.276.224-.5.5-.5h3c.276 0 .5.224.5.5s-.224.5-.5.5h-3c-.276 0-.5-.224-.5-.5zm0 3c0-.276.224-.5.5-.5h3c.276 0 .5.224.5.5s-.224.5-.5.5h-3c-.276 0-.5-.224-.5-.5zm-6-1c.827 0 1.5-.673 1.5-1.5s-.673-1.5-1.5-1.5-1.5.673-1.5 1.5.673 1.5 1.5 1.5zm0-2c.275 0 .5.225.5.5s-.225.5-.5.5-.5-.225-.5-.5.225-.5.5-.5zm-3.801 2.908c.389.642 1.273.885 1.937.54.12.076.244.145.372.205.077.755.717 1.347 1.492 1.347s1.415-.592 1.492-1.347c.128-.061.252-.129.372-.205.665.347 1.547.101 1.937-.54.412-.622.259-1.523-.331-1.975.041-.298.041-.569 0-.867.59-.451.744-1.352.331-1.975-.388-.641-1.276-.887-1.937-.54-.12-.076-.244-.145-.372-.205-.077-.755-.717-1.347-1.492-1.347s-1.415.592-1.492 1.347c-.128.061-.252.129-.372.205-.664-.345-1.548-.102-1.937.54-.412.622-.259 1.523.331 1.975-.041.298-.041.569 0 .867-.59.451-.744 1.352-.331 1.975zm1.301-2.408c0-.173.022-.354.067-.556.047-.206-.041-.419-.22-.532l-.149-.095c-.23-.141-.304-.465-.155-.69.142-.231.463-.302.691-.154l.156.099c.176.112.408.1.575-.029.214-.168.45-.298.701-.387.199-.071.333-.26.333-.472v-.184c0-.275.225-.5.5-.5s.5.225.5.5v.184c0 .212.134.4.333.472.251.089.487.219.701.387.166.13.399.143.575.029l.157-.1c.228-.147.549-.075.69.155.148.226.075.55-.155.69l-.149.095c-.179.113-.267.326-.22.532.045.201.067.383.067.556s-.022.354-.067.556c-.047.206.041.419.22.532l.149.095c.23.141.304.465.155.69-.143.231-.461.303-.691.154l-.156-.099c-.177-.114-.41-.102-.575.029-.214.168-.45.298-.701.387-.199.071-.333.26-.333.472v.184c0 .275-.225.5-.5.5s-.5-.225-.5-.5v-.184c0-.212-.134-.4-.333-.472-.251-.089-.487-.219-.701-.387-.166-.13-.398-.142-.575-.029l-.157.1c-.227.146-.549.076-.69-.155-.148-.226-.075-.55.155-.69l.149-.095c.179-.113.267-.326.22-.532-.045-.201-.067-.383-.067-.556z"/></svg>