<?xml version="1.0" encoding="UTF-8"?>
<svg xmlns="http://www.w3.org/2000/svg" id="Layer_1" data-name="Layer 1" viewBox="0 0 24 24">
  <path d="m6.343,13.343c-.155.155-.303.315-.443.48-.099.116-.24.176-.381.176-.115,0-.229-.039-.324-.119-.21-.179-.236-.495-.058-.705.157-.185.324-.365.499-.54,2.631-2.632,6.677-3.373,10.07-1.84.251.113.363.41.25.661-.114.252-.409.363-.662.25-3.014-1.362-6.611-.704-8.951,1.636Zm14.366-6.559c.227.16.537.109.698-.116.16-.225.108-.537-.116-.697C14.908,1.409,6.242,2.128.687,7.686c-.192.192-.378.387-.558.586-.185.205-.169.521.036.707.096.086.216.129.335.129.136,0,.272-.056.371-.165.168-.187.342-.37.522-.549,5.208-5.21,13.332-5.887,19.315-1.609Zm3.145,1.069l-10.137,10.137c.176.297.283.64.283,1.01,0,1.103-.897,2-2,2s-2-.897-2-2,.897-2,2-2c.37,0,.712.108,1.01.283l10.137-10.137c.195-.195.512-.195.707,0s.195.512,0,.707Zm-10.854,11.146c0-.551-.449-1-1-1s-1,.449-1,1,.449,1,1,1,1-.449,1-1Z"/>
</svg>
