<svg id="Layer_1" viewBox="0 0 24 24" xmlns="http://www.w3.org/2000/svg" data-name="Layer 1"><path d="m23.5 11.5h-4.5v-4.551c1.692-.245 3-1.691 3-3.449 0-1.93-1.57-3.5-3.5-3.5s-3.5 1.57-3.5 3.5c0 1.758 1.308 3.204 3 3.449v4.551h-12v-4.551c1.692-.245 3-1.691 3-3.449 0-1.93-1.57-3.5-3.5-3.5s-3.5 1.57-3.5 3.5c0 1.758 1.308 3.204 3 3.449v4.551h-4.5c-.276 0-.5.224-.5.5s.224.5.5.5h11v4.551c-1.692.245-3 1.691-3 3.449 0 1.93 1.57 3.5 3.5 3.5s3.5-1.57 3.5-3.5c0-1.758-1.308-3.204-3-3.449v-4.551h11c.276 0 .5-.224.5-.5s-.224-.5-.5-.5zm-7.5-8c0-1.379 1.122-2.5 2.5-2.5s2.5 1.121 2.5 2.5-1.122 2.5-2.5 2.5-2.5-1.121-2.5-2.5zm-13 0c0-1.379 1.122-2.5 2.5-2.5s2.5 1.121 2.5 2.5-1.122 2.5-2.5 2.5-2.5-1.121-2.5-2.5zm11.5 17c0 1.379-1.122 2.5-2.5 2.5s-2.5-1.121-2.5-2.5 1.122-2.5 2.5-2.5 2.5 1.121 2.5 2.5z"/></svg>