<?xml version="1.0" encoding="UTF-8"?>
<svg xmlns="http://www.w3.org/2000/svg" id="Layer_1" data-name="Layer 1" viewBox="0 0 24 24">
  <path d="M24,23.5c0,.276-.224,.5-.5,.5h-2.5c-.551,0-1-.449-1-1v-6.5c0-.276,.224-.5,.5-.5s.5,.224,.5,.5v6.5h2.5c.276,0,.5,.224,.5,.5Zm-12.626-3.971c-.31-.117-1.189-.466-1.523-.67-.325-.231-.477-.568-.428-.948,.053-.399,.316-.723,.687-.845,.561-.184,1.121-.009,1.768,.553,.208,.181,.523,.158,.706-.05,.181-.208,.158-.524-.05-.706-.915-.792-1.835-1.045-2.736-.747-.739,.244-1.262,.881-1.366,1.666-.096,.743,.218,1.45,.88,1.917,.492,.305,1.587,.721,1.699,.763,1.052,.425,1.013,1.204,.976,1.431-.104,.641-.669,1.105-1.342,1.105-.525,0-1.348-.368-1.761-.787-.194-.197-.51-.199-.707-.005-.197,.194-.199,.51-.005,.707,.526,.533,1.595,1.085,2.473,1.085,1.166,0,2.146-.818,2.33-1.945,.131-.812-.206-1.959-1.599-2.523Zm7.626-1.037v3c0,.51-.155,.984-.419,1.38l.273,.274c.464,.453-.258,1.172-.709,.705l-.273-.274c-.395,.26-.865,.414-1.373,.414-1.378,0-2.5-1.122-2.5-2.5v-3c0-1.378,1.122-2.5,2.5-2.5s2.5,1.122,2.5,2.5Zm-1.151,3.644c.094-.196,.151-.413,.151-.644v-3c0-.827-.673-1.5-1.5-1.5s-1.5,.673-1.5,1.5v3c0,.827,.673,1.5,1.5,1.5,.23,0,.446-.056,.641-.149l-.496-.498c-.195-.196-.194-.512,.002-.707,.194-.196,.512-.193,.707,.002l.494,.497Zm-11.859,1.172c-.054,.273-.325,.446-.589,.391-3.281-.665-5.401-2.313-5.401-4.2V4.5C0,1.977,3.733,0,8.5,0s8.5,1.977,8.5,4.5V14c0,.276-.224,.5-.5,.5s-.5-.224-.5-.5v-2.351c-1.419,1.411-4.213,2.351-7.5,2.351s-6.081-.94-7.5-2.351v2.851c0,1.369,1.848,2.662,4.599,3.219,.64,.12,.431,1.119-.198,.98-1.948-.394-3.472-1.141-4.401-2.073v2.874c0,1.369,1.848,2.662,4.599,3.219,.271,.055,.446,.319,.391,.589ZM1,4.5c0,1.897,3.435,3.5,7.5,3.5s7.5-1.603,7.5-3.5-3.435-3.5-7.5-3.5S1,2.603,1,4.5Zm0,2.149v2.851c0,1.897,3.435,3.5,7.5,3.5s7.5-1.603,7.5-3.5v-2.851c-1.419,1.411-4.213,2.351-7.5,2.351s-6.081-.94-7.5-2.351Z"/>
</svg>
