<svg id="Layer_1" viewBox="0 0 24 24" xmlns="http://www.w3.org/2000/svg" data-name="Layer 1"><path d="m8 15.5v4c0 .276-.224.5-.5.5s-.5-.224-.5-.5v-4c0-.276.224-.5.5-.5s.5.224.5.5zm8.5.5c-.276 0-.5.224-.5.5v3c0 .276.224.5.5.5s.5-.224.5-.5v-3c0-.276-.224-.5-.5-.5zm-6-5c-.276 0-.5.224-.5.5v8c0 .276.224.5.5.5s.5-.224.5-.5v-8c0-.276-.224-.5-.5-.5zm3 2c-.276 0-.5.224-.5.5v6c0 .276.224.5.5.5s.5-.224.5-.5v-6c0-.276-.224-.5-.5-.5zm10.5-7.5v13c0 2.481-2.019 4.5-4.5 4.5h-15c-2.481 0-4.5-2.019-4.5-4.5v-13c0-2.481 2.019-4.5 4.5-4.5h15c2.481 0 4.5 2.019 4.5 4.5zm-23 0v2.5h22v-2.5c0-1.93-1.57-3.5-3.5-3.5h-15c-1.93 0-3.5 1.57-3.5 3.5zm22 13v-9.5h-22v9.5c0 1.93 1.57 3.5 3.5 3.5h15c1.93 0 3.5-1.57 3.5-3.5zm-19-12.5c.552 0 1-.448 1-1s-.448-1-1-1-1 .448-1 1 .448 1 1 1zm3 0c.552 0 1-.448 1-1s-.448-1-1-1-1 .448-1 1 .448 1 1 1zm3 0c.552 0 1-.448 1-1s-.448-1-1-1-1 .448-1 1 .448 1 1 1z"/></svg>