<svg id="Layer_1" viewBox="0 0 24 24" xmlns="http://www.w3.org/2000/svg" data-name="Layer 1"><path d="m19.078 1.136c-1.403-.753-2.88-1.136-4.388-1.136h-5.381c-1.508 0-2.984.382-4.388 1.136-1.803.968-2.922 2.884-2.922 5v6.364c0 1.93 1.57 3.5 3.5 3.5h.5v4.5c0 1.93 1.57 3.5 3.5 3.5h5c1.93 0 3.5-1.57 3.5-3.5v-4.5h.5c1.93 0 3.5-1.57 3.5-3.5v-6.364c0-2.116-1.119-4.032-2.922-5zm-9.768-.136h5.381c.334 0 .667.021.998.064-.199.607-.438 1.255-.636 1.769-.112.199-.237.234-.436.118l-2.304-1.842c-.008-.007-.02-.004-.028-.01-.082-.058-.176-.099-.284-.099s-.202.041-.284.099c-.009.006-.02.003-.029.01l-2.304 1.842c-.199.115-.344.109-.436-.117-.207-.512-.437-1.164-.636-1.77.331-.042.663-.064.998-.064zm7.69 19.5c0 1.378-1.121 2.5-2.5 2.5h-2v-6.5c0-.276-.224-.5-.5-.5s-.5.224-.5.5v6.5h-2c-1.379 0-2.5-1.122-2.5-2.5v-7.5h10zm4-8c0 1.378-1.121 2.5-2.5 2.5h-.5v-7.5c0-.276-.224-.5-.5-.5s-.5.224-.5.5v4.5h-10v-4.5c0-.276-.224-.5-.5-.5s-.5.224-.5.5v7.5h-.5c-1.379 0-2.5-1.122-2.5-2.5v-6.364c0-1.748.918-3.326 2.395-4.119.629-.337 1.273-.592 1.928-.762.211.656.476 1.374.692 1.938.184.493.676.824 1.199.82.285 0 .563-.096.795-.281l1.491-1.192v5.96c0 .276.224.5.5.5s.5-.224.5-.5v-5.96l1.491 1.192c.323.258.735.343 1.133.236s.712-.39.861-.776c.216-.563.481-1.282.692-1.937.655.17 1.299.424 1.928.762 1.477.793 2.395 2.372 2.395 4.119z"/></svg>