<svg id="Layer_1" viewBox="0 0 24 24" xmlns="http://www.w3.org/2000/svg" data-name="Layer 1"><path d="m13.5 15h.793l1.175 1.175c-.275.178-.468.473-.468.825 0 .552.448 1 1 1s1-.448 1-1c.552 0 1-.448 1-1s-.448-1-1-1c-.352 0-.647.193-.825.468l-1.175-1.175c-.056-1.267.078-4.851-1.745-7.048-1.657-1.657-4.354-1.657-6.011 0s-1.657 4.354 0 6.011c1.56 1.56 5.766 1.73 6.255 1.745zm-5.548-7.048c1.268-1.267 3.329-1.267 4.597 0 1.202 1.343 1.447 4.598 1.452 6.048-1.45-.005-4.719-.254-6.048-1.452-1.267-1.267-1.267-3.33 0-4.597zm15.548-5.952h-23c-.276 0-.5.224-.5.5s.224.5.5.5h.562l1.985 15.087c.293 2.23 2.211 3.913 4.461 3.913h8.983c2.25 0 4.168-1.682 4.461-3.913l1.985-15.087h.562c.276 0 .5-.224.5-.5s-.224-.5-.5-.5zm-3.538 15.957c-.229 1.735-1.72 3.043-3.47 3.043h-8.984c-1.75 0-3.242-1.308-3.47-3.043l-1.968-14.957h19.86z"/></svg>