<?xml version="1.0" encoding="UTF-8"?>
<svg xmlns="http://www.w3.org/2000/svg" id="Layer_1" data-name="Layer 1" viewBox="0 0 24 24">
  <path d="M21.053,5.724c-.124-.247-.023-.547,.224-.671l2-1c.247-.123,.547-.023,.671,.224,.124,.247,.023,.547-.224,.671l-2,1c-.072,.036-.148,.053-.223,.053-.184,0-.36-.101-.448-.276Zm2.671,10.329l-2-1c-.247-.123-.546-.023-.671,.224-.124,.247-.023,.547,.224,.671l2,1c.072,.036,.148,.053,.223,.053,.184,0,.36-.101,.448-.276,.124-.247,.023-.547-.224-.671Zm-2.224-5.053h2c.276,0,.5-.224,.5-.5s-.224-.5-.5-.5h-2c-.276,0-.5,.224-.5,.5s.224,.5,.5,.5ZM.276,4.947l2,1c.072,.036,.148,.053,.223,.053,.184,0,.36-.101,.448-.276,.124-.247,.023-.547-.224-.671L.724,4.053c-.248-.123-.547-.023-.671,.224-.124,.247-.023,.547,.224,.671ZM2.276,15.053l-2,1c-.247,.124-.347,.424-.224,.671,.088,.175,.264,.276,.448,.276,.075,0,.151-.017,.223-.053l2-1c.247-.124,.347-.424,.224-.671s-.424-.347-.671-.224Zm.224-5.053H.5c-.276,0-.5,.224-.5,.5s.224,.5,.5,.5H2.5c.276,0,.5-.224,.5-.5s-.224-.5-.5-.5Zm15.485-4.589c.01,.006,.021,.009,.031,.015,.616,.4,.984,1.077,.984,1.812,0,.739-.393,1.402-1.002,1.796,.006,.004,.012,.005,.018,.009,.616,.399,.984,1.077,.984,1.811,0,.745-.399,1.413-1.016,1.805,.01,.006,.022,.009,.032,.016,.616,.4,.984,1.077,.984,1.811,0,.851-.502,1.625-1.28,1.972l-.72,.301v1.243c0,1.103-.897,2-2,2v1.5c0,1.378-1.122,2.5-2.5,2.5h-1c-1.378,0-2.5-1.122-2.5-2.5v-1.404l-.967,.404c-.281,.125-.579,.186-.875,.186-.41,0-.818-.118-1.174-.349-.616-.399-.984-1.077-.984-1.811,0-.745,.399-1.413,1.016-1.805-.01-.006-.022-.008-.033-.015-.616-.399-.984-1.077-.984-1.811,0-.739,.393-1.403,1.002-1.796-.006-.004-.013-.005-.018-.008-.616-.399-.984-1.077-.984-1.811,0-.745,.399-1.413,1.016-1.805-.01-.006-.022-.008-.033-.015-.616-.399-.984-1.077-.984-1.811,0-.745,.399-1.413,1.017-1.806-.01-.007-.023-.008-.033-.015-.616-.4-.984-1.077-.984-1.811,0-.851,.502-1.625,1.28-1.972L10.81,.184c.658-.294,1.425-.233,2.042,.167,.616,.399,.984,1.077,.984,1.811,0,.132-.033,.257-.056,.383l2.193-.915c.659-.295,1.428-.235,2.044,.166,.616,.399,.984,1.077,.984,1.811,0,.745-.399,1.412-1.015,1.805Zm-11.985-1.395c0,.4,.192,.754,.528,.973,.336,.218,.739,.25,1.104,.086,.004-.002,.009-.004,.014-.006l4.517-1.854c.404-.18,.673-.596,.673-1.053,0-.4-.192-.754-.528-.972-.194-.126-.41-.189-.627-.189-.16,0-.321,.034-.476,.103l-4.53,1.86c-.404,.18-.673,.596-.673,1.053Zm8,15.985h-4v1.5c0,.827,.673,1.5,1.5,1.5h1c.827,0,1.5-.673,1.5-1.5v-1.5Zm2-2.826l-4.374,1.826h3.374c.551,0,1-.449,1-1v-.826Zm2-2.69c0-.4-.192-.754-.528-.972-.194-.126-.41-.19-.628-.19-.16,0-.321,.034-.476,.103l-9.692,4.045c-.406,.182-.676,.597-.676,1.054,0,.4,.192,.754,.528,.972,.336,.219,.738,.248,1.104,.086,.003-.002,.007-.003,.011-.005l9.681-4.041c.406-.181,.676-.597,.676-1.054Zm0-3.631c0-.4-.192-.755-.528-.973-.194-.125-.41-.189-.628-.189-.16,0-.321,.034-.476,.103L6.676,13.84c-.406,.182-.676,.597-.676,1.054,0,.4,.192,.754,.528,.972,.336,.218,.738,.248,1.104,.086,.003-.002,.007-.003,.011-.005l9.681-4.041c.406-.182,.676-.597,.676-1.054Zm0-3.616c0-.4-.192-.755-.528-.973-.194-.125-.41-.189-.628-.189-.16,0-.321,.034-.476,.103L6.676,10.224c-.406,.182-.676,.597-.676,1.054,0,.4,.192,.754,.528,.972,.336,.218,.738,.248,1.104,.086,.003-.002,.007-.003,.011-.005l9.681-4.041c.406-.182,.676-.597,.676-1.054Zm0-3.632c0-.4-.192-.754-.528-.972-.194-.126-.41-.189-.627-.189-.16,0-.321,.034-.476,.103L6.676,6.593c-.406,.182-.676,.597-.676,1.054,0,.4,.192,.755,.528,.973,.336,.217,.737,.249,1.104,.086,.003-.002,.007-.003,.011-.005l9.681-4.041c.406-.182,.676-.597,.676-1.054Z"/>
</svg>
