<?xml version="1.0" encoding="UTF-8"?>
<svg xmlns="http://www.w3.org/2000/svg" id="Layer_1" data-name="Layer 1" viewBox="0 0 24 24">
  <path d="m23.852,20.355l-3.17,3.129c-.285.32-.724.516-1.182.516s-.896-.195-1.202-.537l-3.149-3.107c-.196-.193-.198-.51-.004-.707.194-.196.511-.199.707-.004l3.148,3.108V7.257c0-1.792-1.458-3.25-3.25-3.25s-3.25,1.458-3.25,3.25v9.492c0,2.344-1.906,4.25-4.25,4.25s-4.25-1.906-4.25-4.25V1.247L.852,4.355c-.197.195-.514.191-.707-.004-.194-.197-.192-.514.004-.707L3.318.516c.242-.271.557-.516,1.182-.516s.946.25,1.202.537l3.149,3.107c.196.193.198.51.004.707-.098.099-.227.148-.355.148-.127,0-.254-.048-.352-.145l-3.148-3.108v15.501c0,1.792,1.458,3.25,3.25,3.25s3.25-1.458,3.25-3.25V7.257c0-2.344,1.906-4.25,4.25-4.25s4.25,1.906,4.25,4.25v15.497l3.148-3.109c.197-.195.514-.192.707.004.194.197.192.514-.004.707Z"/>
</svg>
