<?xml version="1.0" encoding="UTF-8"?>
<svg xmlns="http://www.w3.org/2000/svg" id="Layer_1" data-name="Layer 1" viewBox="0 0 24 24">
  <path d="m22.275,6.834L14.775.958c-1.635-1.281-3.917-1.281-5.551,0L1.725,6.834c-1.096.858-1.725,2.149-1.725,3.542v9.124c0,2.481,2.019,4.5,4.5,4.5h15c2.481,0,4.5-2.019,4.5-4.5v-9.124c0-1.393-.629-2.684-1.725-3.542Zm.725,12.666c0,1.93-1.57,3.5-3.5,3.5H4.5c-1.93,0-3.5-1.57-3.5-3.5v-9.124c0-1.083.489-2.087,1.342-2.755L9.842,1.745c.635-.498,1.396-.747,2.158-.747s1.523.249,2.158.747l7.5,5.876c.853.668,1.341,1.672,1.341,2.755v9.124Zm-10-.5c0,.552-.448,1-1,1s-1-.448-1-1,.448-1,1-1,1,.448,1,1Zm1.829-2.828c.195.195.195.512,0,.707-.098.098-.226.146-.354.146s-.256-.049-.354-.146c-1.17-1.17-3.073-1.17-4.243,0-.195.195-.512.195-.707,0s-.195-.512,0-.707c1.56-1.561,4.098-1.561,5.657,0Zm4.242-4.243c.195.195.195.512,0,.707-.098.098-.226.146-.354.146s-.256-.049-.354-.146c-3.509-3.51-9.219-3.51-12.728,0-.195.195-.512.195-.707,0s-.195-.512,0-.707c3.898-3.898,10.243-3.898,14.142,0Zm-2.121,2.121c.195.195.195.512,0,.707-.098.098-.226.146-.354.146s-.256-.049-.354-.146c-2.34-2.338-6.146-2.338-8.485,0-.195.195-.512.195-.707,0s-.195-.512,0-.707c2.729-2.729,7.17-2.729,9.899,0Z"/>
</svg>
