<?xml version="1.0" encoding="UTF-8"?>
<svg xmlns="http://www.w3.org/2000/svg" id="Layer_1" data-name="Layer 1" viewBox="0 0 24 24">
  <path d="M.42,3.104c.818,1.553,1.837,3.486,3.694,4.442,.604,.311,1.437,.462,2.186,.462,.401,0,1.219-.084,2.013-.603,.394,.759,.619,1.5,.69,2.15,.027,.25,.236,.441,.488,.446h.009c.248,0,.459-.182,.495-.428,.06-.415,.362-1.789,1.616-2.734,.309,.393,.708,.716,1.19,.917,.396,.165,.814,.247,1.23,.247,.504,0,1.005-.12,1.463-.357,1.17-.608,2.272-1.667,3.276-3.149,.236-.349,.293-.777,.156-1.173-.145-.418-.493-.751-.933-.893-1.314-.422-3.271-.749-5.136,.085-1.429,.639-2.15,2.101-1.735,3.438-.748,.53-1.242,1.179-1.559,1.784-.129-.33-.297-.667-.485-1.006,.12-.141,.238-.291,.347-.465,.562-.895,.72-2.003,.435-3.042-.277-1.011-.932-1.826-1.844-2.295C5.021-.612,2.22,.184,.815,.794,.463,.949,.19,1.237,.069,1.586c-.116,.336-.087,.696,.083,1.013l.268,.504Zm12.847,.324c1.573-.705,3.274-.414,4.423-.046,.143,.046,.25,.143,.292,.267,.024,.068,.036,.174-.039,.286-.909,1.342-1.889,2.292-2.909,2.822-.565,.292-1.256,.321-1.848,.075-.552-.229-.949-.658-1.12-1.206-.263-.845,.242-1.77,1.201-2.198ZM1.215,1.711c1.241-.541,3.717-1.246,6.346,.107,.659,.339,1.135,.933,1.337,1.67,.211,.769,.141,1.601-.391,2.339-.844-1.164-2.071-2.293-3.776-3.181-.241-.127-.546-.032-.674,.212-.128,.245-.032,.547,.213,.674,1.626,.846,2.768,1.922,3.529,3.015-.781,.527-1.607,.458-1.697,.45-.551-.006-1.073-.109-1.53-.344-1.576-.811-2.475-2.515-3.267-4.019l-.271-.511c-.037-.069-.043-.141-.019-.212,.029-.086,.103-.16,.2-.203Zm21.966,7.943c-.497-.452-1.142-.675-1.809-.652-.67,.032-1.288,.322-1.739,.818l-3.732,4.102c-.314-1.108-1.335-1.923-2.543-1.923H3.5c-1.93,0-3.5,1.57-3.5,3.5v5c0,1.93,1.57,3.5,3.5,3.5h5.965c2.706,0,5.291-1.159,7.093-3.18l6.806-7.64c.911-1.022,.829-2.604-.183-3.526Zm-.563,2.861l-6.806,7.639c-1.612,1.809-3.926,2.846-6.347,2.846H3.5c-1.379,0-2.5-1.121-2.5-2.5v-5c0-1.379,1.121-2.5,2.5-2.5H13.357c.905,0,1.643,.737,1.643,1.643,0,.812-.605,1.511-1.398,1.624l-6.161,.737c-.274,.032-.47,.281-.437,.556,.032,.274,.282,.477,.556,.437l6.172-.738c1.022-.146,1.846-.879,2.146-1.824l4.496-4.94c.271-.298,.643-.473,1.046-.492,.402-.02,.79,.12,1.088,.393,.609,.555,.658,1.506,.11,2.122Z"/>
</svg>
