<svg id="Layer_1" viewBox="0 0 24 24" xmlns="http://www.w3.org/2000/svg" data-name="Layer 1"><path d="m7 18.5c0-1.379-1.122-2.5-2.5-2.5h-1.5c-.551 0-1 .448-1 1v6.5c0 .276.224.5.5.5s.5-.224.5-.5v-2.5h1.5c.234 0 .456-.043.671-.103l.851 2.75c.081.266.369.412.625.33.264-.082.411-.361.33-.625l-.905-2.925c.561-.459.928-1.148.928-1.928zm-4 1.5v-3h1.5c.827 0 1.5.673 1.5 1.5s-.673 1.5-1.5 1.5zm14.5 3.5c0 .276-.224.5-.5.5h-2c-.551 0-1-.448-1-1v-6.5c0-.276.224-.5.5-.5s.5.224.5.5v6.5h2c.276 0 .5.224.5.5zm4.5 0c0 .276-.224.5-.5.5h-2c-.551 0-1-.448-1-1v-6.5c0-.276.224-.5.5-.5s.5.224.5.5v6.5h2c.276 0 .5.224.5.5zm-11.5-7.5c-1.378 0-2.5 1.121-2.5 2.5v3c0 1.379 1.122 2.5 2.5 2.5s2.5-1.121 2.5-2.5v-3c0-1.379-1.122-2.5-2.5-2.5zm1.5 5.5c0 .827-.673 1.5-1.5 1.5s-1.5-.673-1.5-1.5v-3c0-.827.673-1.5 1.5-1.5s1.5.673 1.5 1.5zm0-16v-3c0-1.379-1.122-2.5-2.5-2.5s-2.5 1.121-2.5 2.5v3c0 1.379 1.122 2.5 2.5 2.5s2.5-1.121 2.5-2.5zm-4 0v-3c0-.827.673-1.5 1.5-1.5s1.5.673 1.5 1.5v3c0 .827-.673 1.5-1.5 1.5s-1.5-.673-1.5-1.5zm6-3v3c0 .827.673 1.5 1.5 1.5s1.5-.673 1.5-1.5c0-.276.224-.5.5-.5s.5.224.5.5c0 1.379-1.122 2.5-2.5 2.5s-2.5-1.121-2.5-2.5v-3c0-1.379 1.122-2.5 2.5-2.5s2.5 1.121 2.5 2.5c0 .276-.224.5-.5.5s-.5-.224-.5-.5c0-.827-.673-1.5-1.5-1.5s-1.5.673-1.5 1.5zm9.475 4.843c.087.263-.056.545-.318.632-.255.087-.546-.053-.631-.317l-1.208-3.657h-1.318v3.5c0 .276-.224.5-.5.5s-.5-.224-.5-.5v-7.001c0-.276.224-.5.5-.5s.5.224.5.5v2.5h1.494l1.039-2.681c.1-.258.392-.386.647-.285.258.1.385.389.286.646l-1.184 3.053 1.192 3.609zm-9.975 2.157c0-.827-.673-1.5-1.5-1.5s-1.5.673-1.5 1.5c0 .439.142.803.33 1.091-1.054.294-1.83 1.263-1.83 2.409 0 1.379 1.122 2.5 2.5 2.5h3c.276 0 .5-.224.5-.5s-.224-.5-.5-.5h-3c-.827 0-1.5-.673-1.5-1.5s.673-1.5 1.5-1.5h.293l1.354 1.354c.195.195.512.195.707 0s.195-.512 0-.707l-1.09-1.09c.349-.318.736-.828.736-1.557zm-1.5-.5c.276 0 .5.225.5.5 0 .424-.288.731-.5.901-.213-.17-.5-.478-.5-.901 0-.275.224-.5.5-.5zm-10-4h1.5c.234 0 .456-.043.671-.103l.851 2.751c.081.266.369.412.625.33.264-.082.411-.361.33-.625l-.905-2.925c.561-.459.928-1.148.928-1.928 0-1.379-1.122-2.5-2.5-2.5h-1.5c-.551 0-1 .448-1 1v6.5c0 .276.224.5.5.5s.5-.224.5-.5zm0-4h1.5c.827 0 1.5.673 1.5 1.5s-.673 1.5-1.5 1.5h-1.5z"/></svg>