<?xml version="1.0" encoding="UTF-8"?>
<svg xmlns="http://www.w3.org/2000/svg" id="Layer_1" data-name="Layer 1" viewBox="0 0 24 24">
  <path d="M8.5,9c-1.379,0-2.5,1.121-2.5,2.5v3c0,1.379,1.121,2.5,2.5,2.5s2.5-1.121,2.5-2.5v-3c0-1.379-1.121-2.5-2.5-2.5Zm1.5,5.5c0,.827-.673,1.5-1.5,1.5s-1.5-.673-1.5-1.5v-3c0-.827,.673-1.5,1.5-1.5s1.5,.673,1.5,1.5v3ZM1,11.5v3c0,.827,.673,1.5,1.5,1.5,.684,0,1.281-.463,1.452-1.125,.069-.267,.339-.428,.609-.359,.268,.069,.428,.342,.359,.609-.286,1.104-1.281,1.875-2.421,1.875-1.379,0-2.5-1.121-2.5-2.5v-3c0-1.379,1.121-2.5,2.5-2.5,1.14,0,2.135,.771,2.421,1.875,.068,.268-.092,.54-.359,.609-.271,.069-.54-.093-.609-.359-.171-.662-.769-1.125-1.452-1.125-.827,0-1.5,.673-1.5,1.5Zm14.5,8.5h-2.5c-.649,0-1-.516-1-1,0-.788,.761-1.17,1.497-1.539,.908-.455,1.503-.803,1.503-1.461-.004-.231-.087-1-1-1-.499,0-.796,.207-.937,.65-.083,.263-.363,.41-.627,.326-.264-.083-.409-.363-.326-.627,.271-.857,.959-1.35,1.89-1.35,1.468,0,2,1.196,2,2,0,1.325-1.188,1.92-2.055,2.355-.354,.177-.945,.474-.945,.645h2.5c.276,0,.5,.224,.5,.5s-.224,.5-.5,.5ZM13.479,2.546c.009-1.479-.71-2.502-1.788-2.546-1.047-.006-1.703,.935-1.679,2.297,.03,1.305,.702,2.652,1.964,2.703,.978-.028,1.496-1.256,1.503-2.454Zm-1.497,1.454c-.575-.023-.951-.913-.97-1.725-.01-.601,.172-1.267,.651-1.275,.65,.039,.818,.984,.815,1.54-.006,.896-.348,1.455-.497,1.46Zm5.518-1.681c-.004-1.023,.489-1.661,1.099-1.678,.611-.017,1.108,.594,1.112,1.617,.004,1.023-.488,1.866-1.099,1.883-.611,.017-1.109-.798-1.113-1.821Zm-3-.641c-.004-1.023,.489-1.661,1.099-1.678,.611-.017,1.108,.594,1.112,1.617s-.488,1.866-1.099,1.883c-.611,.017-1.109-.798-1.113-1.821Zm6,2.26c-.003-.877,.421-1.424,.946-1.438s.954,.509,.958,1.386c.004,.877-.42,1.599-.946,1.614-.526,.015-.955-.684-.958-1.561Zm3.5,1.985c.002,.584-.279,1.066-.628,1.076s-.634-.456-.636-1.041,.279-.949,.628-.959,.633,.339,.636,.924Zm-1,3.475c0,1.499-.465,2.827-.956,4.232-.514,1.467-1.044,2.983-1.044,4.782v2.228c0,1.853-1.57,3.359-3.5,3.359-1.163,0-2.254-.598-2.917-1.6-.152-.23-.089-.541,.141-.693,.23-.154,.54-.089,.693,.141,.478,.722,1.256,1.152,2.083,1.152,1.379,0,2.5-1.059,2.5-2.359v-2.228c0-1.969,.559-3.566,1.1-5.112,.463-1.323,.9-2.573,.9-3.902,0-2.017-1.23-2.398-3.5-2.398-.748,0-1.428-.284-2.085-.559-.545-.227-1.059-.441-1.513-.441-.878,0-1.902,.452-1.902,1.728,0,.854,.681,1.584,1.469,2.428,.455,.488,.927,.993,1.304,1.571,.15,.231,.086,.541-.146,.692-.232,.149-.541,.086-.692-.146-.329-.506-.771-.979-1.197-1.436-.854-.915-1.737-1.862-1.737-3.11,0-1.874,1.505-2.728,2.902-2.728,.654,0,1.286,.264,1.897,.519,.593,.248,1.152,.481,1.7,.481,1.461,0,4.5,0,4.5,3.398Z"/>
</svg>
