<?xml version="1.0" encoding="UTF-8"?>
<svg xmlns="http://www.w3.org/2000/svg" id="Layer_1" data-name="Layer 1" viewBox="0 0 24 24">
  <path d="M4,14.5c0,.276-.224,.5-.5,.5-1.93,0-3.5-1.57-3.5-3.5V3.5C0,1.57,1.57,0,3.5,0H7.5c1.93,0,3.5,1.57,3.5,3.5v5c0,.276-.224,.5-.5,.5s-.5-.224-.5-.5V3.5c0-1.378-1.122-2.5-2.5-2.5H3.5c-1.378,0-2.5,1.122-2.5,2.5V11.5c0,1.378,1.122,2.5,2.5,2.5,.276,0,.5,.224,.5,.5ZM7.5,4H3.5c-.276,0-.5,.224-.5,.5s.224,.5,.5,.5H7.5c.276,0,.5-.224,.5-.5s-.224-.5-.5-.5Zm0,3H3.5c-.276,0-.5,.224-.5,.5s.224,.5,.5,.5H7.5c.276,0,.5-.224,.5-.5s-.224-.5-.5-.5Zm0,3H3.5c-.276,0-.5,.224-.5,.5s.224,.5,.5,.5H7.5c.276,0,.5-.224,.5-.5s-.224-.5-.5-.5ZM20.5,0h-4c-1.93,0-3.5,1.57-3.5,3.5v5c0,.276,.224,.5,.5,.5s.5-.224,.5-.5V3.5c0-1.378,1.122-2.5,2.5-2.5h4c1.378,0,2.5,1.122,2.5,2.5V11.5c0,1.378-1.122,2.5-2.5,2.5-.276,0-.5,.224-.5,.5s.224,.5,.5,.5c1.93,0,3.5-1.57,3.5-3.5V3.5c0-1.93-1.57-3.5-3.5-3.5Zm-4,5h4c.276,0,.5-.224,.5-.5s-.224-.5-.5-.5h-4c-.276,0-.5,.224-.5,.5s.224,.5,.5,.5Zm0,3h4c.276,0,.5-.224,.5-.5s-.224-.5-.5-.5h-4c-.276,0-.5,.224-.5,.5s.224,.5,.5,.5Zm0,3h4c.276,0,.5-.224,.5-.5s-.224-.5-.5-.5h-4c-.276,0-.5,.224-.5,.5s.224,.5,.5,.5Zm2,6.5c0,3.584-2.916,6.5-6.5,6.5s-6.5-2.916-6.5-6.5,2.916-6.5,6.5-6.5,6.5,2.916,6.5,6.5Zm-1,0c0-3.033-2.467-5.5-5.5-5.5s-5.5,2.467-5.5,5.5,2.467,5.5,5.5,5.5,5.5-2.467,5.5-5.5Zm-2.646-2.854c-.195-.195-.512-.195-.707,0l-2.146,2.146-2.146-2.146c-.195-.195-.512-.195-.707,0s-.195,.512,0,.707l2.146,2.146-2.146,2.146c-.195,.195-.195,.512,0,.707,.098,.098,.226,.146,.354,.146s.256-.049,.354-.146l2.146-2.146,2.146,2.146c.098,.098,.226,.146,.354,.146s.256-.049,.354-.146c.195-.195,.195-.512,0-.707l-2.146-2.146,2.146-2.146c.195-.195,.195-.512,0-.707Z"/>
</svg>
