<?xml version="1.0" encoding="UTF-8"?>
<svg xmlns="http://www.w3.org/2000/svg" id="Layer_1" data-name="Layer 1" viewBox="0 0 24 24">
  <path d="M21,12.494v-1.494c0-4.963-4.038-9-9-9S3,6.037,3,11v1.424c-1.763,.774-3,2.531-3,4.576,0,2.757,2.288,5,5.193,5,.996,0,1.807-.811,1.807-1.807v-6.387c0-.996-.811-1.807-1.807-1.807-.342,0-.87,.035-1.193,.101v-1.101C4,6.589,7.589,3,12,3s8,3.589,8,8v1.151c-.386-.089-.782-.151-1.193-.151-.996,0-1.807,.811-1.807,1.807v6.387c0,.996,.811,1.807,1.807,1.807,1.559,0,2.948-.597,3.894-1.638,.959-1.055,1.412-2.423,1.276-3.853-.17-1.785-1.361-3.28-2.977-4.016Zm-15.807,.506c.445,0,.807,.362,.807,.807v6.387c0,.444-.362,.807-.807,.807-2.206,0-4.193-1.794-4.193-4s1.904-4,4.193-4Zm16.767,6.69c-.757,.832-2.029,1.31-3.154,1.31-.445,0-.807-.362-.807-.807v-6.387c0-.444,.362-.807,.807-.807,2.148,0,3.982,1.584,4.175,3.605,.109,1.145-.253,2.24-1.021,3.085Z"/>
</svg>
