<svg id="Layer_1" viewBox="0 0 24 24" xmlns="http://www.w3.org/2000/svg" data-name="Layer 1"><path d="m7 14c-1.103 0-2 .897-2 2 0 .521.203 1.016.558 1.385l-.515 1.249c-.095.325-.033.668.171.938.204.272.515.428.854.428h1.863c.339 0 .651-.155.854-.428.204-.271.266-.613.153-.99l-.496-1.197c.354-.369.557-.863.557-1.385 0-1.103-.897-2-2-2zm.38 3.433.551 1.567-1.947-.035.635-1.532c.091-.219.015-.472-.18-.604-.275-.188-.439-.497-.439-.828 0-.552.449-1 1-1s1 .448 1 1c0 .331-.164.641-.439.828-.195.133-.271.386-.18.604zm5.835 3.635c-.241-.14-.546-.057-.683.183-.625 1.079-1.787 1.75-3.032 1.75h-5c-1.93 0-3.5-1.57-3.5-3.5v-15.001c0-1.93 1.57-3.5 3.5-3.5h5c1.809 0 3.285 1.386 3.464 3.149-2.134.383-4.465.746-6.542.832-.805.033-1.435.695-1.435 1.507-.019.817.703 1.53 1.515 1.511 1.923-.01 4.466-.083 6.498-.342v5.844c0 .276.224.5.5.5s.5-.224.5-.5v-5.995c.029-.005.062-.009.091-.015 1.189-.222 2.535-.365 4.104-.436.435 1.148 1.554 1.944 2.804 1.944.915 0 1.769-.411 2.342-1.127.573-.715.785-1.647.582-2.556-.306-1.37-1.622-2.333-3.138-2.315-1.809.035-4.252.489-6.839.97-.265-2.231-2.146-3.972-4.447-3.972h-4.999c-2.481.001-4.5 2.02-4.5 4.501v15c0 2.481 2.019 4.5 4.5 4.5h5c1.602 0 3.095-.862 3.897-2.25.139-.238.057-.545-.182-.683zm7.59-17.066c1.067-.042 1.94.626 2.144 1.534.136.611-.004 1.235-.387 1.712-.383.478-.952.752-1.562.752-.928 0-1.748-.66-1.949-1.568-.051-.229-.254-.392-.488-.392-.006 0-.012 0-.019 0-1.786.066-3.302.22-4.635.468-2.169.404-5.575.48-7.412.49-.295.024-.505-.242-.51-.511 0-.269.213-.497.477-.508 2.455-.103 5.245-.574 7.651-1.021 2.551-.475 4.96-.924 6.69-.957zm-1.805 18.998c0 .552-.448 1-1 1s-1-.448-1-1 .448-1 1-1 1 .448 1 1zm1.829-2.828c.195.195.195.512 0 .707s-.512.195-.707 0c-1.17-1.17-3.073-1.17-4.243 0-.195.195-.512.195-.707 0s-.195-.512 0-.707c1.56-1.561 4.098-1.561 5.657 0zm2.828-2.829c.195.195.195.512 0 .707s-.512.195-.707 0c-2.729-2.729-7.17-2.729-9.899 0-.195.195-.512.195-.707 0s-.195-.512 0-.707c3.119-3.119 8.194-3.119 11.313 0z"/></svg>