<?xml version="1.0" encoding="UTF-8"?>
<svg xmlns="http://www.w3.org/2000/svg" id="Layer_1" data-name="Layer 1" viewBox="0 0 24 24">
  <path d="m15.5,0h-6.989c-2.481,0-4.5,2.019-4.5,4.5v15c0,2.481,2.019,4.5,4.5,4.5h6.989c2.481,0,4.5-2.019,4.5-4.5V4.5c0-2.481-2.019-4.5-4.5-4.5Zm3.5,19.5c0,1.93-1.57,3.5-3.5,3.5h-6.989c-1.93,0-3.5-1.57-3.5-3.5V4.5c0-1.93,1.57-3.5,3.5-3.5h6.989c1.93,0,3.5,1.57,3.5,3.5v15Zm-3-4c0,.276-.224.5-.5.5h-7c-.276,0-.5-.224-.5-.5s.224-.5.5-.5h7c.276,0,.5.224.5.5Zm-2,5c0,.276-.224.5-.5.5h-3c-.276,0-.5-.224-.5-.5s.224-.5.5-.5h3c.276,0,.5.224.5.5Zm-4.467-7.5c.227,0,.426-.153.483-.373l.429-1.627h3.178l.402,1.62c.055.223.255.38.485.38.325,0,.563-.305.485-.62l-1.557-6.281c-.105-.448-.41-.817-.814-.985-.387-.164-.822-.149-1.191.041-.369.188-.633.526-.722.911l-1.662,6.308c-.083.317.156.627.483.627Zm2.149-6.695c.025-.112.101-.207.206-.261.106-.055.234-.058.351-.009.109.046.194.154.228.297l.909,3.668h-2.667l.974-3.695Z"/>
</svg>
