<svg id="Layer_1" viewBox="0 0 24 24" xmlns="http://www.w3.org/2000/svg" data-name="Layer 1"><path d="m23.758 12.451c-.107-.135-.233-.287-.375-.45.142-.163.267-.314.374-.449.211-.265.3-.608.245-.942-.056-.341-.255-.644-.546-.831-.551-.354-1.427-.777-2.47-.777-.575 0-1.372.103-2.183.245.553-.395 1.074-.808 1.45-1.187.737-.743 1.061-1.662 1.203-2.302.076-.341.003-.697-.197-.977-.197-.274-.503-.452-.84-.488-.191-.021-.413-.039-.658-.053-.014-.249-.033-.475-.054-.668-.035-.338-.214-.645-.489-.844-.281-.202-.638-.273-.978-.195-.634.145-1.544.473-2.278 1.212-.351.353-.73.855-1.106 1.415.134-.788.23-1.555.23-2.107 0-1.048-.413-1.926-.76-2.477-.186-.298-.489-.5-.832-.557-.334-.057-.679.037-.943.252-.148.121-.317.265-.498.428-.18-.163-.349-.307-.497-.428-.264-.215-.606-.309-.943-.252-.343.057-.645.259-.832.556-.347.553-.76 1.431-.76 2.478 0 .582.106 1.401.251 2.234-.42-.6-.854-1.157-1.234-1.541-.735-.741-1.645-1.068-2.279-1.212-.34-.076-.697-.006-.978.195-.275.197-.454.505-.489.844-.02.192-.039.418-.053.667-.245.014-.467.033-.657.054-.336.035-.643.213-.84.487-.202.28-.274.637-.198.977.142.641.467 1.559 1.204 2.303.387.39.967.843 1.582 1.279-.846-.151-1.687-.264-2.279-.264-1.042 0-1.917.419-2.469.771-.293.187-.492.489-.548.829-.055.333.035.675.247.938.106.133.231.281.371.441-.14.16-.265.31-.371.442-.212.262-.301.603-.247.936.056.341.255.644.548.831.551.352 1.427.77 2.468.77.558 0 1.336-.1 2.136-.24-.573.394-1.084.789-1.44 1.147-.737.743-1.061 1.662-1.203 2.303-.076.341-.003.697.198.977.197.274.503.452.837.487.192.021.414.04.66.054.014.249.033.475.053.668.036.338.214.645.489.843.281.202.64.272.978.195.634-.144 1.544-.471 2.279-1.212.38-.384.814-.94 1.234-1.54-.144.83-.251 1.651-.251 2.233 0 1.048.413 1.926.76 2.477.186.298.489.5.832.557.337.057.679-.037.943-.252.148-.121.317-.265.497-.428.181.163.35.307.498.428.214.174.479.268.751.268.503 0 .805-.219 1.024-.571.347-.553.76-1.431.76-2.478 0-.552-.096-1.318-.231-2.109.376.561.756 1.063 1.107 1.417.734.739 1.643 1.067 2.278 1.212.342.078.697.006.978-.195.275-.198.454-.506.489-.844.02-.193.039-.419.054-.668.245-.014.467-.032.659-.053.336-.036.642-.214.839-.488.201-.28.273-.637.197-.977-.142-.64-.467-1.559-1.203-2.302-.372-.375-.916-.81-1.508-1.237.826.166 1.656.295 2.242.295 1.043 0 1.919-.423 2.47-.777.292-.187.49-.49.547-.831.055-.334-.035-.678-.245-.941zm-9.599-4.192c.402-.721 1.623-2.916 2.511-3.81.565-.569 1.287-.827 1.792-.942.154-.013.219.028.253.168.03.287.058.649.065 1.056.005.269.221.484.489.49.402.009.761.035 1.044.065.14.036.183.098.168.255-.113.511-.368 1.24-.937 1.813-.881.89-2.736 2.042-3.582 2.523-.025.007-1.362.637-1.362.637-.234-.409-.562-.758-.954-1.018l.512-1.234s0-.002 0-.003zm-2.159 5.742c-1.103 0-2-.897-2-2s.897-2 2-2 2 .897 2 2-.897 2-2 2zm-1.373-12.896c.099-.121.176-.135.298-.061.221.181.492.415.781.695.194.187.502.187.695 0 .289-.279.56-.515.782-.695.124-.074.2-.061.298.062.277.44.607 1.136.607 1.945 0 1.209-.541 3.747-.824 4.771 0 .003-.002.005-.003.007l-.527 1.263c-.235-.059-.48-.091-.733-.091-.238 0-.469.028-.691.081l-.456-1.239-.003-.012c-.3-1.076-.831-3.581-.831-4.78 0-.81.33-1.505.607-1.946zm-7.108 4.435c-.015-.155.027-.22.169-.254.284-.031.641-.058 1.042-.065.268-.005.485-.222.49-.49.008-.406.035-.769.065-1.055.035-.142.097-.182.254-.169.505.115 1.225.371 1.791.942.838.845 2.022 2.724 2.587 3.735l.472 1.288c-.411.264-.754.625-.995 1.051l-1.133-.494c-1.07-.607-3.003-1.866-3.805-2.675-.569-.573-.823-1.303-.937-1.814zm-2.4 7.881c-.118-.1-.135-.176-.06-.298.166-.208.379-.459.631-.727.181-.192.181-.492 0-.685-.252-.27-.466-.52-.632-.727-.073-.122-.058-.2.06-.298.439-.28 1.131-.614 1.932-.614 1.178 0 3.636.527 4.716.831l1.286.56c-.031.174-.048.353-.048.536 0 .207.021.408.061.603l-1.229.58c-1.07.305-3.584.851-4.786.851-.801 0-1.493-.334-1.932-.613zm8.802 2.387c-.564 1.011-1.751 2.896-2.592 3.744-.566.571-1.286.827-1.791.942-.155.013-.219-.027-.254-.168-.03-.287-.057-.649-.065-1.056-.005-.269-.222-.485-.49-.49-.401-.008-.759-.034-1.045-.065-.139-.035-.182-.1-.166-.254.114-.512.368-1.241.937-1.814.821-.827 2.704-1.947 3.757-2.542l1.216-.568c.239.401.57.741.962.992l-.468 1.28zm3.559 7.089c-.098.121-.176.136-.298.061-.221-.181-.493-.416-.782-.695-.193-.187-.501-.187-.695 0-.288.28-.559.515-.781.695-.122.076-.2.06-.298-.062-.277-.44-.607-1.136-.607-1.945 0-1.202.534-3.718.821-4.752 0-.003.469-1.279.469-1.279.222.053.452.081.69.081.253 0 .499-.032.734-.091l.508 1.211s.002.008.003.011c.303 1.088.841 3.615.841 4.82 0 .81-.33 1.505-.607 1.946zm7.001-4.435c.015.156-.028.219-.167.255-.285.03-.644.057-1.045.065-.268.006-.484.222-.489.49-.008.406-.036.769-.065 1.056-.034.139-.1.183-.253.168-.506-.115-1.227-.373-1.792-.942-.878-.885-2.082-3.041-2.497-3.786l-.527-1.262c.395-.261.724-.614.959-1.027l1.215.527c1.01.57 2.893 1.805 3.724 2.643.569.573.824 1.303.937 1.813zm1.864-6.12c.252.27.465.522.632.733.075.124.06.207-.061.307-.438.282-1.129.619-1.93.619-1.091 0-3.558-.586-4.887-.963l-1.152-.502c.031-.174.049-.353.049-.535 0-.186-.018-.369-.051-.546l1.368-.639c1.121-.306 3.522-.816 4.673-.816.801 0 1.492.337 1.931.619.12.1.135.182.06.308-.167.21-.38.462-.631.732-.178.192-.178.489 0 .682z"/></svg>