<svg id="Layer_1" viewBox="0 0 24 24" xmlns="http://www.w3.org/2000/svg" data-name="Layer 1"><path d="m12 0c-6.617 0-12 5.383-12 12s5.383 12 12 12 12-5.383 12-12-5.383-12-12-12zm11 12c0 2.853-1.101 5.447-2.889 7.404l-1.532-1.532c.268-.407.421-.882.421-1.372v-2c0-1.378-1.122-2.5-2.5-2.5h-1.907l.256-2.819c.051-.558-.137-1.116-.515-1.53s-.917-.651-1.477-.651h-1.666l.195-1.562c.031-.25.245-.438.496-.438h1.617c.276 0 .5-.224.5-.5s-.224-.5-.5-.5h-1.617c-.755 0-1.395.565-1.488 1.314l-.211 1.686h-2.477l-3.111-3.111c1.957-1.788 4.551-2.889 7.404-2.889 6.065 0 11 4.935 11 11zm-10.143-4c.284 0 .547.116.738.326.192.21.283.481.257.765l-.264 2.91h-.882l-4-4h4.15zm3.643 5c.827 0 1.5.673 1.5 1.5v.5h-2.293l-2-2zm1.5 3v.5c0 .226-.065.436-.159.634l-1.134-1.134zm-17-4c0-2.853 1.101-5.447 2.889-7.404l15.515 15.515c-1.957 1.788-4.551 2.889-7.404 2.889-6.065 0-11-4.935-11-11zm14.465 7h-6.682c-1.562 0-2.847-1.173-2.988-2.729l-.645-7.09c-.015-.16-.004-.319.019-.476l1.036 1.036.585 6.44c.094 1.037.95 1.819 1.992 1.819h1.73c-.317-.419-.513-.935-.513-1.5v-2.965l1 1v1.965c0 .827.673 1.5 1.5 1.5h1.965l1 1z"/></svg>