<?xml version="1.0" encoding="UTF-8"?>
<svg xmlns="http://www.w3.org/2000/svg" id="Layer_1" data-name="Layer 1" viewBox="0 0 24 24">
  <path d="m19.475,3.025H4.475C1.993,3.025-.025,5.044-.025,7.525v9c0,2.481,2.019,4.5,4.5,4.5h15c2.481,0,4.5-2.019,4.5-4.5V7.525c0-2.481-2.019-4.5-4.5-4.5Zm3.5,13.5c0,1.93-1.57,3.5-3.5,3.5H4.475c-1.93,0-3.5-1.57-3.5-3.5V7.525c0-1.93,1.57-3.5,3.5-3.5h15c1.93,0,3.5,1.57,3.5,3.5v9Zm-12.5-7.5v2.5h2c.276,0,.5.224.5.5s-.224.5-.5.5h-2v2.5h2c.276,0,.5.224.5.5s-.224.5-.5.5h-2c-.552,0-1-.448-1-1v-6c0-.551.448-1,1-1h2c.276,0,.5.224.5.5s-.224.5-.5.5h-2Zm-2.5-.5v6.71c0,.377-.258.694-.626.772-.367.076-.732-.107-.886-.452l-2.488-5.729v5.699c0,.276-.224.5-.5.5s-.5-.224-.5-.5v-6.709c0-.377.258-.695.626-.773.371-.079.732.107.886.452l2.488,5.729v-5.698c0-.276.224-.5.5-.5s.5.224.5.5Zm12.924.036l-.469,6.464c-.043.705-.472,1-.988,1-.342,0-.66-.242-.841-.64l-1.164-2.56-1.164,2.56c-.181.398-.499.64-.841.64-.516,0-.945-.295-.988-1l-.469-6.464c-.021-.29.208-.536.499-.536.262,0,.48.202.499.464l.459,6.33,1.41-3.103c.232-.51.957-.51,1.189,0l1.41,3.102.459-6.33c.019-.261.237-.464.499-.464.29,0,.52.247.499.536Z"/>
</svg>
