<svg id="Layer_1" viewBox="0 0 24 24" xmlns="http://www.w3.org/2000/svg" data-name="Layer 1"><path d="m15.5 21h-7c-2.481 0-4.5-2.019-4.5-4.5v-2c0-.276.224-.5.5-.5s.5.224.5.5v2c0 1.93 1.57 3.5 3.5 3.5h7c1.93 0 3.5-1.57 3.5-3.5v-2c0-.276.224-.5.5-.5s.5.224.5.5v2c0 2.481-2.019 4.5-4.5 4.5zm-15-14c.276 0 .5-.224.5-.5v-2c0-1.93 1.57-3.5 3.5-3.5h2c.276 0 .5-.224.5-.5s-.224-.5-.5-.5h-2c-2.481 0-4.5 2.019-4.5 4.5v2c0 .276.224.5.5.5zm19-7h-2c-.276 0-.5.224-.5.5s.224.5.5.5h2c1.93 0 3.5 1.57 3.5 3.5v2c0 .276.224.5.5.5s.5-.224.5-.5v-2c0-2.481-2.019-4.5-4.5-4.5zm4 17c-.276 0-.5.224-.5.5v2c0 1.93-1.57 3.5-3.5 3.5h-2c-.276 0-.5.224-.5.5s.224.5.5.5h2c2.481 0 4.5-2.019 4.5-4.5v-2c0-.276-.224-.5-.5-.5zm-17 6h-2c-1.93 0-3.5-1.57-3.5-3.5v-2c0-.276-.224-.5-.5-.5s-.5.224-.5.5v2c0 2.481 2.019 4.5 4.5 4.5h2c.276 0 .5-.224.5-.5s-.224-.5-.5-.5zm17.5-11.5c0 .276-.224.5-.5.5h-23c-.276 0-.5-.224-.5-.5s.224-.5.5-.5h3.5v-3.5c0-2.481 2.019-4.5 4.5-4.5h7c2.481 0 4.5 2.019 4.5 4.5v3.5h3.5c.276 0 .5.224.5.5zm-19-.5h2.122c.47-2.305 2.48-4 4.878-4s4.408 1.695 4.878 4h2.122v-3.5c0-1.93-1.57-3.5-3.5-3.5h-7c-1.93 0-3.5 1.57-3.5 3.5zm10.861 0c-.448-1.742-2.012-3-3.861-3s-3.414 1.258-3.861 3h2.156c.354-.602.989-1 1.706-1s1.351.398 1.706 1h2.156zm-3.861 6c1.672 0 3.227-.831 4.158-2.222.154-.229.092-.54-.137-.694-.229-.152-.54-.091-.694.138-.745 1.113-1.989 1.778-3.327 1.778s-2.582-.665-3.327-1.778c-.154-.229-.465-.29-.694-.138-.229.154-.291.465-.137.694.931 1.391 2.485 2.222 4.158 2.222z"/></svg>