<svg id="Layer_1" viewBox="0 0 24 24" xmlns="http://www.w3.org/2000/svg" data-name="Layer 1"><path d="m24 3c0-.801-.313-1.555-.879-2.121-1.17-1.17-3.072-1.17-4.242 0l-9.879 9.878v-10.257c0-.276-.224-.5-.5-.5s-.5.224-.5.5v10.267c-.02.005-.04.004-.06.012-1.785-.644-3.792-.224-5.161 1.146l-.825.825c-.195.195-.195.512 0 .707s.512.195.707 0l.825-.825c.961-.961 2.315-1.332 3.597-1.06l-5.977 5.977c-.714.714-1.107 1.663-1.107 2.673s.393 1.958 1.107 2.672 1.663 1.107 2.673 1.107 1.958-.394 2.672-1.107l6.305-6.304.827.827c.195.195.512.195.707 0s.195-.512 0-.707l-1.379-1.379 10.209-10.209c.566-.566.879-1.32.879-2.121zm-18.255 19.186c-1.051 1.051-2.882 1.051-3.931 0-.525-.524-.814-1.223-.814-1.965s.289-1.441.814-1.966l6.304-6.304 3.932 3.931zm16.669-17.772-10.209 10.209-2.829-2.828 10.21-10.209c.779-.779 2.049-.779 2.828 0 .378.378.586.88.586 1.414s-.208 1.036-.586 1.414z"/></svg>