<?xml version="1.0" encoding="UTF-8"?>
<svg xmlns="http://www.w3.org/2000/svg" id="Layer_1" data-name="Layer 1" viewBox="0 0 24 24">
  <path d="m12,8c-2.206,0-4,1.794-4,4s1.794,4,4,4,4-1.794,4-4-1.794-4-4-4Zm0,7c-1.654,0-3-1.346-3-3s1.346-3,3-3,3,1.346,3,3-1.346,3-3,3ZM7,.5c0,.276-.224.5-.5.5h-2c-1.93,0-3.5,1.57-3.5,3.5v2c0,.276-.224.5-.5.5s-.5-.224-.5-.5v-2C0,2.019,2.019,0,4.5,0h2c.276,0,.5.224.5.5Zm0,23c0,.276-.224.5-.5.5h-2c-2.481,0-4.5-2.019-4.5-4.5v-2c0-.276.224-.5.5-.5s.5.224.5.5v2c0,1.93,1.57,3.5,3.5,3.5h2c.276,0,.5.224.5.5Zm17-6v2c0,2.481-2.019,4.5-4.5,4.5h-2c-.276,0-.5-.224-.5-.5s.224-.5.5-.5h2c1.93,0,3.5-1.57,3.5-3.5v-2c0-.276.224-.5.5-.5s.5.224.5.5Zm0-13v2c0,.276-.224.5-.5.5s-.5-.224-.5-.5v-2c0-1.93-1.57-3.5-3.5-3.5h-2c-.276,0-.5-.224-.5-.5s.224-.5.5-.5h2c2.481,0,4.5,2.019,4.5,4.5Z"/>
</svg>
