<svg id="Layer_1" viewBox="0 0 24 24" xmlns="http://www.w3.org/2000/svg" data-name="Layer 1"><path d="m22.466 1.536c-.566-.566-1.392-.696-2.096-.33-2.978 1.546-5.829 3.683-8.472 6.347l-8.337 8.301-1.707-1.707c-.195-.195-.512-.195-.707 0s-.195.512 0 .707l2.939 2.939-2.646 2.646c-.585.585-.585 1.536 0 2.121s1.536.585 2.121 0l2.646-2.646 2.939 2.939c.195.195.512.195.707 0s.195-.512 0-.707l-1.734-1.734 8.331-8.293c2.634-2.613 4.769-5.47 6.344-8.49.367-.704.238-1.525-.328-2.093zm-19.612 20.318c-.195.195-.512.195-.707 0s-.195-.512 0-.707l2.646-2.646.707.707zm19.053-18.688c-1.506 2.889-3.637 5.738-6.162 8.243l-8.333 8.296-1.205-1.205 7.646-7.646c.195-.195.195-.512 0-.707s-.512-.195-.707 0l-7.646 7.646-1.232-1.232 8.338-8.301c2.572-2.594 5.339-4.668 8.225-6.167.377-.196.727-.051.928.15.199.2.344.548.148.923zm-19.907 8.334.002-4.962c0-1.944 1.239-3.66 3.084-4.271l6.759-2.242c.102-.033.213-.033.314 0l3.498 1.159c.262.087.404.37.317.632s-.37.407-.632.317l-3.34-1.107-6.602 2.189c-1.435.476-2.398 1.811-2.398 3.322l-.002 4.962c0 .276-.224.5-.5.5s-.5-.224-.5-.5zm20.001-2v2.435c0 7.501-7.173 10.968-9.371 11.852l-.44.178c-.25.102-.547-.018-.651-.277-.103-.256.021-.547.277-.65l.441-.178c2.051-.825 8.744-4.05 8.744-10.924v-2.435c0-.276.225-.5.501-.5s.5.224.5.5z"/></svg>