<?xml version="1.0" encoding="UTF-8"?>
<svg xmlns="http://www.w3.org/2000/svg" id="Layer_1" data-name="Layer 1" viewBox="0 0 24 24">
  <path d="M23.999,11.277C23.605,4.954,18.343,0,12.018,0,5.391,0,0,5.383,0,12s5.391,12,12.018,12h7.482c2.481,0,4.5-2.019,4.5-4.5V11.277Zm-1,8.223c0,1.93-1.57,3.5-3.5,3.5h-7.482c-6.075,0-11.018-4.935-11.018-11S5.942,1,12.018,1c5.798,0,10.623,4.542,10.982,10.309v8.191ZM6,8.5c0-.276,.224-.5,.5-.5h7c.276,0,.5,.224,.5,.5s-.224,.5-.5,.5H6.5c-.276,0-.5-.224-.5-.5Zm12,4c0,.276-.224,.5-.5,.5H6.5c-.276,0-.5-.224-.5-.5s.224-.5,.5-.5h11c.276,0,.5,.224,.5,.5Zm0,4c0,.276-.224,.5-.5,.5H6.5c-.276,0-.5-.224-.5-.5s.224-.5,.5-.5h11c.276,0,.5,.224,.5,.5Z"/>
</svg>
