<svg id="Layer_1" viewBox="0 0 24 24" xmlns="http://www.w3.org/2000/svg" data-name="Layer 1"><path d="m21.916 1.034c-1.483-.279-2.95.962-2.916 2.465v3.691l-3.617-2.694c-1.054-.834-2.716-.596-3.494.499-.496.667-.601 1.503-.366 2.241-.749.002-1.45.394-1.894.989-.486.654-.594 1.469-.377 2.197-.782-.022-1.53.368-1.993.994-.33.443-.481.961-.482 1.476l-2.812-2.096c-.997-.743-2.386-.686-3.229.133-1.081 1-.966 2.874.232 3.725l7.743 5.765c1.437 1.07 3.103 1.588 4.752 1.588 2.346 0 4.659-1.048 6.232-3.051l2.477-3.151c1.169-1.489 1.814-3.35 1.816-5.242l.009-6.954c.002-1.274-.893-2.381-2.081-2.575zm-9.224 4.558c.464-.651 1.445-.796 2.079-.305l1.591 1.186c.657.49.794 1.425.306 2.083-.417.582-1.261.772-1.885.422-.03-.024-1.805-1.341-1.871-1.381-.578-.506-.686-1.378-.22-2.005zm-2.26 3.23c.428-.597 1.299-.783 1.924-.386.016.013 1.776 1.316 1.847 1.359.564.508.666 1.37.204 1.99-.463.651-1.447.796-2.078.305l-1.591-1.186s0 0-.001 0c-.657-.49-.794-1.424-.305-2.082zm-2.37 3.19c.464-.651 1.444-.796 2.078-.305l1.592 1.187c.657.49.794 1.424.305 2.083-.463.651-1.449.795-2.078.305l-1.694-1.28c-.563-.508-.664-1.369-.203-1.989zm14.927-1.45c-.002 1.669-.571 3.312-1.603 4.625l-2.477 3.151c-2.342 2.981-6.561 3.542-9.602 1.279l-7.743-5.765c-.708-.505-.779-1.614-.133-2.206.495-.481 1.328-.501 1.936-.049l5.994 4.484c1.06.823 2.704.579 3.479-.511.484-.651.592-1.462.38-2.187.781 0 1.528-.374 1.99-1.003.495-.665.6-1.497.368-2.234.749-.017 1.448-.396 1.893-.996.334-.449.484-.975.481-1.496l1.25.931c.313.248.812-.002.799-.401v-4.685c-.018-.904.86-1.65 1.755-1.478.709.116 1.243.798 1.242 1.586z"/></svg>