<svg id="Layer_1" viewBox="0 0 24 24" xmlns="http://www.w3.org/2000/svg" data-name="Layer 1"><path d="m21.997 1.831-2.25-1.297c-1.232-.71-2.762-.71-3.994 0l-3.753 2.163-3.753-2.163c-1.232-.71-2.762-.71-3.994 0l-2.249 1.297c-1.236.711-2.004 2.039-2.004 3.465v3.211c0 1.426.768 2.754 2.003 3.466l3.747 2.16v4.57c0 1.427.768 2.755 2.003 3.467l2.25 1.295c.616.356 1.307.534 1.997.534s1.381-.178 1.997-.533l2.25-1.296c1.235-.712 2.003-2.04 2.003-3.467v-4.57l3.747-2.16c1.235-.712 2.003-2.04 2.003-3.466v-3.211c0-1.426-.768-2.754-2.003-3.465zm-20.997 6.677v-3.211c0-1.07.575-2.065 1.503-2.599l2.25-1.297c.462-.266.979-.399 1.497-.399s1.035.133 1.497.399l3.753 2.163v6.679l-5.25 3.025-3.747-2.159c-.927-.534-1.503-1.53-1.503-2.6zm14.747 12.795-2.25 1.297c-.924.531-2.07.532-2.994 0l-2.25-1.296c-.927-.533-1.503-1.529-1.503-2.6v-4.57l5.25-3.025 5.25 3.025v4.57c0 1.07-.576 2.066-1.503 2.6zm7.253-12.795c0 1.069-.576 2.065-1.503 2.6l-3.747 2.159-5.25-3.025v-6.679l3.753-2.163c.924-.532 2.07-.532 2.994 0l2.251 1.297c.927.534 1.502 1.529 1.502 2.599v3.211z"/></svg>