<?xml version="1.0" encoding="UTF-8"?>
<svg xmlns="http://www.w3.org/2000/svg" id="Layer_1" data-name="Layer 1" viewBox="0 0 24 24">
  <path d="M21.811,22.05l-3.811-6.199v-.851c0-.551-.448-1-1-1h-.138l-.433-.704c-.989-1.676-1.661-3.026-2.12-4.296h.19c.276,0,.5-.224,.5-.5s-.224-.5-.5-.5h-.509c-.344-1.247-.491-2.471-.491-3.91v-1.09c.276,0,.5-.224,.5-.5s-.224-.5-.5-.5h-.292l-.708-1.062v-.438c0-.276-.224-.5-.5-.5s-.5,.224-.5,.5v.43l-.759,1.07h-.241c-.276,0-.5,.224-.5,.5s.224,.5,.5,.5v1.09c0,1.422-.152,2.654-.501,3.91h-.499c-.276,0-.5,.224-.5,.5s.224,.5,.5,.5h.18c-.455,1.264-1.117,2.605-2.076,4.239l-.468,.761h-.136c-.552,0-1,.449-1,1v.849l-3.812,6.202c-.528,.818,.115,1.973,1.091,1.949h3.435c.666,0,1.256-.446,1.435-1.085,.482-1.716,2.066-2.915,3.852-2.915s3.369,1.199,3.852,2.914c.179,.64,.769,1.086,1.435,1.086h3.435c.977,.024,1.619-1.131,1.09-1.95ZM11.5,4.09v-1.09h1v1.09c0,1.439,.136,2.673,.45,3.91h-1.911c.319-1.247,.461-2.487,.461-3.91Zm-.754,4.91h2.497c.48,1.442,1.317,3.131,2.446,5h-1.807c-.148-.556-.334-1.305-.49-1.918-.161-.637-.734-1.082-1.393-1.082s-1.231,.445-1.393,1.083c-.156,.613-.342,1.361-.49,1.917h-1.809c1.082-1.842,1.96-3.58,2.437-5Zm2.103,5h-1.697c.135-.52,.289-1.132,.425-1.672,.098-.387,.75-.386,.848,0,.136,.541,.289,1.152,.425,1.672Zm-5.848,1h10v1H7v-1Zm.186,7.646c-.059,.208-.252,.354-.472,.354H3.279c-.214,.005-.353-.247-.238-.426l3.429-5.58c.01,0,.019,.006,.03,.006h2.664c-.674,2.171-1.944,5.521-1.979,5.646Zm4.814-3.646c-.984,0-1.91,.304-2.699,.814,.289-.839,.594-1.781,.911-2.814h3.575c.317,1.033,.622,1.975,.911,2.814-.789-.509-1.715-.814-2.699-.814Zm8.721,4h-3.435c-.22,0-.413-.146-.472-.355-.035-.125-1.305-3.473-1.979-5.645h2.664c.01,0,.019-.005,.029-.006l3.429,5.579c.116,.179-.023,.432-.237,.427Z"/>
</svg>
