<svg id="Layer_1" viewBox="0 0 24 24" xmlns="http://www.w3.org/2000/svg" data-name="Layer 1"><path d="m5.8 14h-2.3c-1.93 0-3.5 1.57-3.5 3.5v4c0 1.379 1.122 2.5 2.5 2.5s2.5-1.121 2.5-2.5v-4.5h.8c.662 0 1.2-.538 1.2-1.2v-.6c0-.662-.539-1.2-1.2-1.2zm.2 1.8c0 .11-.09.2-.2.2h-1.3c-.276 0-.5.224-.5.5v5c0 .827-.673 1.5-1.5 1.5s-1.5-.673-1.5-1.5v-4c0-1.379 1.122-2.5 2.5-2.5h2.3c.11 0 .2.09.2.2zm9.677-15.8h-3.353c-4.59 0-8.324 3.733-8.324 8.323v1.624c0 .599.259 1.168.711 1.562.365.318.828.491 1.299.491 1.454-.124 2.833-.606 4.025-1.175-.011.059-.035.113-.035.175 0 .552.448 1 1 1s1-.448 1-1c0-.418-.257-.774-.621-.924 1.001-.637 1.893-1.373 2.668-2.153.849.84 1.731 1.551 2.642 2.139-.398.132-.689.495-.689.937 0 .552.448 1 1 1s1-.448 1-1c0-.076-.027-.144-.043-.215 1.213.611 2.472 1.017 3.773 1.197.561.081 1.13-.095 1.562-.472.45-.393.708-.959.708-1.556v-1.631c0-4.589-3.733-8.322-8.323-8.322zm-1.899 6.714c-1.882 2.021-4.338 3.815-7.64 4.277-.274.037-.551-.046-.77-.236-.234-.203-.368-.498-.368-.808v-1.624c0-4.038 3.286-7.323 7.324-7.323h3.353c.584 0 1.153.068 1.698.198-.399.908-1.567 3.307-3.597 5.516zm9.222 3.24c0 .307-.133.6-.365.802-.219.19-.493.272-.769.235-2.553-.354-4.95-1.63-7.134-3.796 2.081-2.337 3.232-4.812 3.604-5.695 2.727 1.067 4.663 3.724 4.663 6.823v1.631zm.124 4.71c-.086.195-1.673 3.69-5.124 5.403v3.433c0 .276-.224.5-.5.5s-.5-.224-.5-.5v-3.015c-.895.317-1.89.515-3 .515-1.043 0-2.045-.174-3-.514v3.014c0 .276-.224.5-.5.5s-.5-.224-.5-.5v-3.448c-.625-.313-1.228-.696-1.805-1.164-.214-.174-.248-.489-.074-.703s.488-.249.704-.074c1.546 1.253 3.287 1.889 5.175 1.889 5.609 0 8.185-5.683 8.21-5.74.111-.253.408-.368.659-.255.253.111.367.406.255.659z"/></svg>