<?xml version="1.0" encoding="UTF-8"?>
<svg xmlns="http://www.w3.org/2000/svg" id="Layer_1" data-name="Layer 1" viewBox="0 0 24 24">
  <path d="m11,9c0-1.103-1.122-2-2.5-2s-2.5.897-2.5,2,1.122,2,2.5,2,2.5-.897,2.5-2Zm-4,0c0-.542.687-1,1.5-1s1.5.458,1.5,1-.687,1-1.5,1-1.5-.458-1.5-1Zm8.5-2c-1.378,0-2.5.897-2.5,2s1.122,2,2.5,2,2.5-.897,2.5-2-1.122-2-2.5-2Zm0,3c-.813,0-1.5-.458-1.5-1s.687-1,1.5-1,1.5.458,1.5,1-.687,1-1.5,1Zm6.848,2.548l-1.176-.551,1.718-.816c.79-.395,1.226-1.245,1.085-2.115-.418-2.608-1.901-4.965-4.176-6.637-.846-.622-2.05-.557-2.865.153l-.934.816v-1.213c0-.994-.708-1.827-1.685-1.981-1.512-.241-3.13-.241-4.633.002-.975.156-1.682.989-1.682,1.981v1.21l-.918-.803c-.82-.715-2.033-.775-2.886-.141C1.958,4.113.481,6.433.039,8.988c-.156.904.349,1.82,1.201,2.179l1.965.829-1.428.593c-.988.411-1.49,1.542-1.12,2.522.939,2.488,2.661,4.423,3.939,5.608.403.374.928.56,1.472.523.548-.037,1.065-.304,1.419-.732l.511-.619v1.793c0,.88.561,1.648,1.396,1.914.891.282,1.768.425,2.604.425s1.719-.145,2.609-.43c.832-.266,1.391-1.034,1.391-1.912v-1.79l.502.609c.352.427.87.692,1.421.729.545.036,1.063-.146,1.46-.515,1.825-1.695,3.233-3.717,3.966-5.691.353-.949-.074-2.012-1.003-2.476Zm.065,2.128c-.68,1.831-1.997,3.716-3.709,5.307-.192.179-.44.273-.713.249-.278-.019-.539-.152-.716-.368l-1.388-1.683c-.134-.162-.357-.223-.555-.152-.199.071-.331.26-.331.471v3.182c0,.435-.286.829-.695.959-1.581.507-3.017.508-4.607.005-.411-.131-.698-.525-.698-.961v-3.185c0-.211-.132-.399-.331-.471-.055-.02-.112-.029-.169-.029-.146,0-.289.064-.386.182l-1.396,1.692c-.183.221-.437.353-.715.371-.27.01-.527-.074-.726-.26-1.696-1.571-3.004-3.428-3.684-5.228-.182-.48.073-1.04.568-1.245l2.531-1.051c.186-.078.308-.259.308-.46s-.12-.384-.306-.462l-3.065-1.294c-.428-.18-.682-.638-.604-1.087.511-2.949,2.33-4.835,3.767-5.899.479-.356,1.166-.318,1.632.09l1.748,1.527c.148.129.358.161.536.079.179-.081.293-.259.293-.455v-2.312c0-.498.353-.916.84-.994,1.401-.226,2.91-.225,4.318-.002.479.076.841.503.841.994v2.314c0,.196.115.374.293.455.178.081.388.05.536-.079l1.763-1.541c.464-.405,1.143-.447,1.615-.101,1.458,1.072,3.298,2.981,3.78,5.99.069.43-.155.867-.536,1.058l-2.666,1.266c-.175.083-.286.259-.286.453,0,.193.113.369.288.451l2.124.996c.46.23.676.759.501,1.229Zm-7.186-1.676h-6.465c-.488,0-.924.26-1.139.68-.201.393-.167.842.092,1.2.739,1.024,2.252,2.119,4.285,2.119s3.536-1.095,4.273-2.118c.259-.359.293-.808.093-1.2-.215-.42-.651-.681-1.139-.681Zm.235,1.296c-.566.785-1.812,1.703-3.462,1.703-1.658,0-2.907-.918-3.474-1.704-.024-.033-.051-.085-.013-.16.034-.065.116-.136.249-.136h6.465c.132,0,.215.071.249.137.038.074.011.127-.013.16Z"/>
</svg>
