<?xml version="1.0" encoding="UTF-8"?>
<svg xmlns="http://www.w3.org/2000/svg" id="Layer_1" data-name="Layer 1" viewBox="0 0 24 24">
  <path d="M13.104,3.665c.539-.359,.896-.97,.896-1.665,0-1.103-.897-2-2-2s-2,.897-2,2c0,.695,.357,1.307,.896,1.665L3.036,23.314c-.103,.256,.021,.547,.278,.65,.25,.101,.547-.019,.649-.279l1.074-2.686h13.924l1.074,2.686c.102,.259,.4,.38,.649,.279,.257-.103,.381-.394,.278-.65L13.104,3.665Zm5.1,15.44l-5.458-4.939,2.557-2.314,2.901,7.253Zm-6.204-5.613l-2.754-2.492h5.509l-2.754,2.492Zm-3.303-1.639l2.557,2.314-5.458,4.939,2.901-7.253Zm3.303,2.988l5.702,5.159H6.298l5.702-5.159Zm0-13.841c.552,0,1,.449,1,1s-.448,1-1,1-1-.449-1-1,.448-1,1-1Zm0,3c.053,0,.103-.012,.156-.016l2.406,6.016h-5.124l2.406-6.016c.052,.004,.102,.016,.156,.016Zm3.584-.222c.478-.962,.547-2.096,.188-3.112-.092-.26,.045-.546,.306-.638,.262-.09,.547,.045,.638,.306,.447,1.269,.361,2.686-.235,3.888-.124,.25-.429,.347-.671,.226-.247-.123-.348-.423-.226-.67Zm-8.064,.444c-.597-1.202-.683-2.619-.235-3.888,.092-.26,.377-.396,.638-.306,.261,.092,.397,.377,.306,.638-.358,1.016-.289,2.15,.188,3.112,.122,.247,.021,.547-.226,.67-.242,.122-.547,.025-.671-.226Zm9.641,3.243c-.203-.188-.215-.504-.026-.707,1.203-1.298,1.866-2.988,1.866-4.759,0-.471-.047-.942-.141-1.4-.055-.271,.12-.535,.391-.589,.266-.053,.534,.119,.59,.39,.106,.523,.16,1.062,.16,1.6,0,2.024-.758,3.956-2.134,5.438-.188,.203-.505,.214-.706,.027Zm-11.026-.027c-1.376-1.483-2.134-3.414-2.134-5.438,0-.538,.054-1.076,.16-1.6,.056-.271,.324-.443,.59-.39,.271,.055,.445,.319,.391,.589-.094,.458-.141,.929-.141,1.4,0,1.771,.663,3.461,1.866,4.759,.188,.202,.177,.519-.026,.707-.201,.187-.518,.176-.706-.027ZM22,2c0-.479-.034-.96-.102-1.429-.039-.273,.15-.527,.424-.566,.268-.042,.526,.149,.566,.424,.074,.516,.111,1.044,.111,1.571,0,3.389-1.527,6.538-4.19,8.639-.215,.17-.53,.135-.702-.083-.171-.217-.134-.531,.083-.702,2.421-1.911,3.81-4.773,3.81-7.854ZM1,2c0-.527,.037-1.056,.111-1.571C1.151,.154,1.406-.037,1.678,.005c.273,.04,.463,.293,.424,.566-.067,.468-.102,.949-.102,1.429,0,3.081,1.389,5.943,3.81,7.854,.217,.171,.254,.485,.083,.702-.172,.218-.487,.253-.702,.083C2.527,8.538,1,5.389,1,2Z"/>
</svg>
