<?xml version="1.0" encoding="UTF-8"?>
<svg xmlns="http://www.w3.org/2000/svg" id="Layer_1" data-name="Layer 1" viewBox="0 0 24 24">
  <path d="m23.962,11.313c-.001-.013.003-.025.001-.038,0-.003-.003-.006-.003-.009-.172-2.824-1.321-5.598-3.474-7.751C18.332,1.362,15.557.212,12.733.041c-.003,0-.005-.002-.008-.003-.012-.002-.024.002-.036,0-3.298-.188-6.66.962-9.175,3.476C1.001,6.029-.149,9.389.038,12.687c.001.013-.003.025-.001.038,0,.003.003.006.003.009.172,2.824,1.321,5.598,3.474,7.751,2.153,2.153,4.927,3.302,7.751,3.474.003,0,.005.003.008.003.028.005.057.007.084.007.009,0,.016-.004.025-.004.206.01.411.029.617.029,3.073,0,6.146-1.169,8.485-3.509,2.514-2.514,3.664-5.875,3.476-9.173Zm-1.022-.401c-2.696.312-5.41-.602-7.331-2.521-1.919-1.919-2.835-4.631-2.521-7.33,2.444.241,4.822,1.294,6.69,3.161,1.868,1.868,2.921,4.246,3.162,6.69ZM1.06,13.088c2.694-.313,5.41.602,7.33,2.521,1.919,1.919,2.835,4.63,2.521,7.33-2.444-.241-4.822-1.294-6.69-3.161-1.867-1.868-2.92-4.246-3.161-6.69Zm18.718,6.69c-2.167,2.167-5.021,3.235-7.868,3.212.326-2.98-.692-5.968-2.813-8.088-2.12-2.12-5.105-3.138-8.088-2.813-.023-2.847,1.045-5.701,3.212-7.868,2.167-2.167,5.021-3.235,7.868-3.212-.326,2.981.692,5.968,2.813,8.088,1.863,1.863,4.397,2.89,7.007,2.89.36,0,.721-.027,1.082-.067.02,2.843-1.048,5.693-3.213,7.858Z"/>
</svg>
