<svg id="Layer_1" viewBox="0 0 24 24" xmlns="http://www.w3.org/2000/svg" data-name="Layer 1"><path d="m14 13c0-.929-.64-1.705-1.5-1.929v-4.571c0-.276-.224-.5-.5-.5s-.5.224-.5.5v4.571c-.86.224-1.5 1-1.5 1.929 0 1.103.897 2 2 2s2-.897 2-2zm-3 0c0-.551.449-1 1-1s1 .449 1 1-.449 1-1 1-1-.448-1-1zm12.5-9.5c0 .276-.224.5-.5.5-.72 0-1.319-.149-1.789-.434l-1.489 1.612c2.021 1.996 3.278 4.764 3.278 7.822 0 .887-.105 1.768-.313 2.619-.066.268-.339.432-.604.366-.269-.065-.433-.336-.367-.604.189-.773.285-1.574.285-2.381-.007-5.518-4.511-9.994-10-10-5.489.006-9.993 4.482-10 10 0 4.067 2.43 7.698 6.19 9.249.255.104.377.397.272.652-.105.258-.404.377-.653.271-4.137-1.705-6.81-5.699-6.81-10.173 0-3.058 1.257-5.827 3.278-7.822l-1.489-1.612c-.469.285-1.068.434-1.789.434-.276 0-.5-.224-.5-.5s.224-.5.5-.5c1.383 0 2-.617 2-2 0-.276.224-.5.5-.5s.5.224.5.5c0 .765-.173 1.388-.494 1.869l1.513 1.637c1.779-1.465 4.028-2.37 6.481-2.481v-1.524c0-.276.224-.5.5-.5s.5.224.5.5v1.525c2.453.111 4.702 1.016 6.481 2.481l1.513-1.637c-.321-.481-.494-1.104-.494-1.869 0-.276.224-.5.5-.5s.5.224.5.5c0 1.383.617 2 2 2 .276 0 .5.224.5.5zm-.582 18.025c.3.516.302 1.132.005 1.648-.297.518-.831.826-1.427.826h-1.997c-.276 0-.5-.224-.5-.5s.224-.5.5-.5h1.997c.337 0 .504-.227.56-.324.056-.098.167-.355-.002-.646l-4.497-7.709c-.237-.406-.877-.406-1.116 0l-4.496 7.709c-.17.291-.058.549-.002.646.056.098.223.324.56.324h1.997c.276 0 .5.224.5.5s-.224.5-.5.5h-1.997c-.597 0-1.13-.309-1.427-.826s-.295-1.133.005-1.648l4.497-7.709c.299-.512.83-.816 1.422-.816s1.123.305 1.421.816zm-5.918-.525c-.276 0-.5-.224-.5-.5v-3c0-.276.224-.5.5-.5s.5.224.5.5v3c0 .276-.224.5-.5.5zm1 2c0 .552-.448 1-1 1s-1-.448-1-1 .448-1 1-1 1 .448 1 1z"/></svg>