<?xml version="1.0" encoding="UTF-8"?>
<svg xmlns="http://www.w3.org/2000/svg" id="Layer_1" data-name="Layer 1" viewBox="0 0 24 24">
  <path d="M18,17c-3.401,0-5.526-1.884-6.245-2.997h-.007c-1.032,1.192-2.22,2.932-5.748,2.997-2.547,0-4.804-1.715-5.821-3.309-.461-.673,.024-1.67,.831-1.745,1.892-.236,2.997-1.275,4.788-3.092,.898-.91,1.613-1.852,3.202-1.854,1.14,.014,2.088,.575,2.791,.948,.129,.069,.29,.07,.417,0,.704-.373,1.652-.934,2.792-.948,1.588,.002,2.309,.924,3.202,1.829,1.857,1.884,2.914,2.878,4.789,3.117,.807,.076,1.29,1.073,.83,1.746-1.019,1.594-3.275,3.309-5.821,3.309Zm-6.251-4c.342,0,.661,.171,.846,.461,.567,.878,2.428,2.539,5.405,2.539,2.073,0,4.074-1.432,4.979-2.847,.047-.107,.012-.181-.115-.215-2.193-.279-3.471-1.477-5.375-3.407-.776-.793-1.38-1.56-2.489-1.531-.874,.011-1.688,.494-2.32,.831-.426,.228-.933,.227-1.36,0-.632-.337-1.446-.82-2.319-.83-1.103-.033-1.718,.765-2.489,1.556-1.891,1.917-3.161,3.106-5.377,3.382-.125,.028-.161,.125-.113,.214,.904,1.415,2.905,2.847,4.979,2.847,3.052-.054,3.981-1.48,4.992-2.653,.193-.223,.466-.347,.757-.347Z"/>
</svg>
