<?xml version="1.0" encoding="UTF-8"?>
<svg xmlns="http://www.w3.org/2000/svg" id="Layer_1" data-name="Layer 1" viewBox="0 0 24 24">
  <path d="M14.25,11c-.906,0-1.743,.447-2.25,1.103-.507-.656-1.344-1.103-2.25-1.103-1.517,0-2.75,1.314-2.75,2.93,0,1.916,2.065,3.984,3.797,5.383,.354,.286,.778,.429,1.203,.429s.849-.143,1.203-.429c1.731-1.398,3.797-3.467,3.797-5.383,0-1.616-1.233-2.93-2.75-2.93Zm-1.676,7.535c-.338,.273-.811,.273-1.148,0-2.178-1.757-3.426-3.435-3.426-4.604,0-1.064,.785-1.93,1.75-1.93,.985,0,1.75,.806,1.75,1.5,0,.276,.224,.5,.5,.5s.5-.224,.5-.5c0-.694,.765-1.5,1.75-1.5,.965,0,1.75,.866,1.75,1.93,0,1.169-1.248,2.848-3.426,4.604ZM19.5,3h-7.028c-.231,0-.463-.055-.67-.158l-3.156-1.578c-.345-.172-.731-.264-1.117-.264h-3.028C2.019,1,0,3.019,0,5.5v13c0,2.481,2.019,4.5,4.5,4.5h15c2.481,0,4.5-2.019,4.5-4.5V7.5c0-2.481-2.019-4.5-4.5-4.5ZM4.5,2h3.028c.231,0,.463,.055,.67,.158l3.156,1.578c.345,.172,.731,.264,1.117,.264h7.028c1.758,0,3.204,1.308,3.449,3H1v-1.5c0-1.93,1.57-3.5,3.5-3.5Zm15,20H4.5c-1.93,0-3.5-1.57-3.5-3.5V8H23v10.5c0,1.93-1.57,3.5-3.5,3.5Z"/>
</svg>
