<svg id="Layer_1" viewBox="0 0 24 24" xmlns="http://www.w3.org/2000/svg" data-name="Layer 1"><path d="m21.5 9c1.378 0 2.5-1.122 2.5-2.5s-1.122-2.5-2.5-2.5-2.5 1.122-2.5 2.5 1.122 2.5 2.5 2.5zm0-4c.827 0 1.5.673 1.5 1.5s-.673 1.5-1.5 1.5-1.5-.673-1.5-1.5.673-1.5 1.5-1.5zm0 5c-1.378 0-2.5 1.122-2.5 2.5v5.5h-1c-1.103 0-2 .897-2 2v3.5c0 .276.224.5.5.5s.5-.224.5-.5v-3.5c0-.552.449-1 1-1h3.5c1.378 0 2.5-1.121 2.5-2.5v-4c0-1.378-1.122-2.5-2.5-2.5zm1.5 6.5c0 .827-.673 1.5-1.5 1.5h-1.5v-5.5c0-.827.673-1.5 1.5-1.5s1.5.673 1.5 1.5zm1 5c0 .276-.224.5-.5.5h-3c-.276 0-.5.225-.5.5v1c0 .276-.224.5-.5.5s-.5-.224-.5-.5v-1c0-.827.673-1.5 1.5-1.5h3c.276 0 .5.224.5.5zm-21.5-12.5c1.378 0 2.5-1.122 2.5-2.5s-1.122-2.5-2.5-2.5-2.5 1.122-2.5 2.5 1.122 2.5 2.5 2.5zm0-4c.827 0 1.5.673 1.5 1.5s-.673 1.5-1.5 1.5-1.5-.673-1.5-1.5.673-1.5 1.5-1.5zm3.5 13h-1v-5.5c0-1.378-1.122-2.5-2.5-2.5s-2.5 1.122-2.5 2.5v4c0 1.379 1.122 2.5 2.5 2.5h3.5c.551 0 1 .448 1 1v3.5c0 .276.224.5.5.5s.5-.224.5-.5v-3.5c0-1.103-.897-2-2-2zm-3.5 0c-.827 0-1.5-.673-1.5-1.5v-4c0-.827.673-1.5 1.5-1.5s1.5.673 1.5 1.5v5.5zm2.5 4.5v1c0 .276-.224.5-.5.5s-.5-.224-.5-.5v-1c0-.275-.224-.5-.5-.5h-3c-.276 0-.5-.224-.5-.5s.224-.5.5-.5h3c.827 0 1.5.673 1.5 1.5zm2-9c0-.276.224-.5.5-.5h9c.276 0 .5.224.5.5s-.224.5-.5.5h-9c-.276 0-.5-.224-.5-.5zm1-3v-.5c0-2.206 1.794-4 4-4s4 1.794 4 4v.5c0 .276-.224.5-.5.5s-.5-.224-.5-.5v-.5c0-1.654-1.346-3-3-3s-3 1.346-3 3v.5c0 .276-.224.5-.5.5s-.5-.224-.5-.5zm4-5.5c1.378 0 2.5-1.122 2.5-2.5s-1.122-2.5-2.5-2.5-2.5 1.122-2.5 2.5 1.122 2.5 2.5 2.5zm0-4c.827 0 1.5.673 1.5 1.5s-.673 1.5-1.5 1.5-1.5-.673-1.5-1.5.673-1.5 1.5-1.5z"/></svg>