<?xml version="1.0" encoding="UTF-8"?>
<svg xmlns="http://www.w3.org/2000/svg" id="Layer_1" data-name="Layer 1" viewBox="0 0 24 24">
  <path d="M20.5,10h-1.5c-1.103,0-2,.897-2,2v.5c0,1.378-1.121,2.5-2.5,2.5h-5c-1.379,0-2.5-1.122-2.5-2.5v-.5c0-1.103-.897-2-2-2h-1.5c-1.93,0-3.5,1.57-3.5,3.5v4c0,2.481,2.019,4.5,4.5,4.5h15c2.481,0,4.5-2.019,4.5-4.5v-4c0-1.93-1.57-3.5-3.5-3.5Zm2.5,7.5c0,1.93-1.57,3.5-3.5,3.5H4.5c-1.93,0-3.5-1.57-3.5-3.5v-4c0-1.378,1.121-2.5,2.5-2.5h1.5c.552,0,1,.449,1,1v.5c0,1.93,1.57,3.5,3.5,3.5h5c1.93,0,3.5-1.57,3.5-3.5v-.5c0-.551,.448-1,1-1h1.5c1.379,0,2.5,1.122,2.5,2.5v4ZM2,2.5c0-.276,.224-.5,.5-.5H21.5c.276,0,.5,.224,.5,.5s-.224,.5-.5,.5H2.5c-.276,0-.5-.224-.5-.5Zm0,4c0-.276,.224-.5,.5-.5H21.5c.276,0,.5,.224,.5,.5s-.224,.5-.5,.5H2.5c-.276,0-.5-.224-.5-.5Z"/>
</svg>
