<svg id="Layer_1" viewBox="0 0 24 24" xmlns="http://www.w3.org/2000/svg" data-name="Layer 1"><path d="m6.5 13c.276 0 .5.224.5.5v5c0 1.378-1.122 2.5-2.5 2.5s-2.5-1.122-2.5-2.5c0-.276.224-.5.5-.5s.5.224.5.5c0 .827.673 1.5 1.5 1.5s1.5-.673 1.5-1.5v-5c0-.276.224-.5.5-.5zm12 2.5v3c0 1.378-1.122 2.5-2.5 2.5s-2.5-1.122-2.5-2.5v-3c0-1.378 1.122-2.5 2.5-2.5s2.5 1.122 2.5 2.5zm-1 0c0-.827-.673-1.5-1.5-1.5s-1.5.673-1.5 1.5v3c0 .827.673 1.5 1.5 1.5s1.5-.673 1.5-1.5zm-7.357 4.524c-.525 0-1.348-.368-1.761-.787-.194-.196-.511-.198-.707-.005-.197.194-.199.51-.005.707.525.533 1.594 1.084 2.473 1.084 1.166 0 2.146-.817 2.33-1.944.131-.812-.206-1.959-1.587-2.519-.268-.109-1.002-.421-1.449-.673-.325-.232-.477-.57-.428-.949.053-.399.316-.723.688-.845.627-.207 1.125.071 1.681.553.208.181.523.158.706-.05.181-.208.158-.524-.05-.706-.631-.546-1.5-1.124-2.65-.746-.739.243-1.262.881-1.366 1.665-.097.753.208 1.443.88 1.916.495.308 1.567.745 1.613.763 1.051.426 1.013 1.204.976 1.432-.104.64-.669 1.105-1.342 1.105zm13.357-7.024c-.276 0-.5.224-.5.5v5.125l-2.277-5.221c-.122-.28-.412-.43-.715-.37-.299.062-.508.319-.508.625v6.841c0 .276.224.5.5.5s.5-.224.5-.5v-5.104l2.277 5.221c.121.282.423.434.714.37.299-.062.508-.319.508-.625v-6.862c0-.276-.224-.5-.5-.5zm-4-2c-.276 0-.5-.224-.5-.5v-.515c0-.335-.038-.663-.096-.985h-5.404c-1.378 0-2.5-1.122-2.5-2.5v-5.404c-.323-.058-.651-.096-.985-.096h-5.515c-1.93 0-3.5 1.57-3.5 3.5v15c0 1.93 1.57 3.5 3.5 3.5h11c.615 0 1.22-.162 1.75-.468.239-.14.545-.058.683.182.139.239.057.545-.182.683-.682.394-1.459.603-2.25.603h-11.001c-2.481 0-4.5-2.019-4.5-4.5v-15c0-2.481 2.019-4.5 4.5-4.5h5.515c1.736 0 3.369.676 4.596 1.904l3.485 3.485c1.228 1.228 1.904 2.86 1.904 4.596v.515c0 .276-.224.5-.5.5zm-.879-3c-.273-.704-.682-1.354-1.231-1.904l-3.485-3.485c-.55-.55-1.2-.959-1.904-1.231v5.12c0 .827.673 1.5 1.5 1.5h5.121z"/></svg>