<?xml version="1.0" encoding="UTF-8"?>
<svg xmlns="http://www.w3.org/2000/svg" id="Layer_1" data-name="Layer 1" viewBox="0 0 24 24">
  <path d="m22.145,13.229c1.171-1.145,1.855-2.501,1.855-3.768,0-3.365-2.984-4.872-5.163-5.972-.802-.405-1.566-.794-1.991-1.178-.115-.163-.259-.431-.319-.852-.038-.263-.263-.459-.53-.459-.264,0-.49.193-.529.455-.063.429-.202.695-.314.857-.425.384-1.189.773-1.991,1.178-2.179,1.1-5.163,2.607-5.163,5.972,0,1.181.596,2.444,1.628,3.539h-2.628v-7.979c0-1.723-1.221-3.389-2.245-4.483-.648-.692-1.861-.692-2.51,0C1.221,1.632,0,3.298,0,5.021v16.479c0,1.378,1.121,2.5,2.5,2.5h7c.276,0,.5-.224.5-.5v-4c0-.827.673-1.5,1.5-1.5.855,0,1.5.694,1.5,1.615v3.885c0,.276.224.5.5.5h3c.276,0,.5-.224.5-.5v-4c0-.827.673-1.5,1.5-1.5s1.5.673,1.5,1.5v4c0,.276.224.5.5.5h1c1.379,0,2.5-1.122,2.5-2.5v-5.5c0-1.249-.768-2.32-1.855-2.771Zm-13.145-3.768c0-2.75,2.451-3.988,4.614-5.08.971-.49,1.858-.938,2.386-1.497.527.558,1.415,1.006,2.386,1.497,2.163,1.092,4.614,2.33,4.614,5.08,0,1.158-.804,2.497-2.101,3.539h-9.799c-1.315-1.053-2.1-2.365-2.1-3.539ZM2.976,1.222c.138-.147.324-.229.524-.229s.387.081.524.229c.738.788,1.976,2.329,1.976,3.799v1.979H1v-1.979c0-1.47,1.237-3.012,1.976-3.799Zm-.476,21.778c-.827,0-1.5-.673-1.5-1.5v-13.5h5v15h-3.5Zm20.5-1.5c0,.827-.673,1.5-1.5,1.5h-.5v-3.5c0-1.378-1.121-2.5-2.5-2.5s-2.5,1.122-2.5,2.5v3.5h-2v-3.385c0-1.466-1.098-2.615-2.5-2.615-1.379,0-2.5,1.122-2.5,2.5v3.5h-2v-9s14.081.013,14.103.01c1.054.055,1.897.922,1.897,1.99v5.5ZM4.25,13.5h-1.5v-2.25c0-.414.337-.75.75-.75s.75.336.75.75v2.25Zm0,6h-1.5v-2.25c0-.414.337-.75.75-.75s.75.336.75.75v2.25Z"/>
</svg>
