<?xml version="1.0" encoding="UTF-8"?>
<svg xmlns="http://www.w3.org/2000/svg" id="Layer_1" data-name="Layer 1" viewBox="0 0 24 24">
  <path d="m4,5c1.378,0,2.5-1.121,2.5-2.5S5.378,0,4,0,1.5,1.121,1.5,2.5s1.122,2.5,2.5,2.5Zm0-4c.827,0,1.5.673,1.5,1.5s-.673,1.5-1.5,1.5-1.5-.673-1.5-1.5.673-1.5,1.5-1.5Zm.5,5h-1c-1.93,0-3.5,1.57-3.5,3.5v4c0,1.391.822,2.585,2,3.149v6.851c0,.276.224.5.5.5s.5-.224.5-.5v-6.551c.165.024.329.051.5.051h1c.171,0,.335-.027.5-.051v6.551c0,.276.224.5.5.5s.5-.224.5-.5v-6.851c1.178-.564,2-1.758,2-3.149v-4c0-1.93-1.57-3.5-3.5-3.5Zm2.5,7.5c0,1.379-1.122,2.5-2.5,2.5h-1c-1.378,0-2.5-1.121-2.5-2.5v-4c0-1.379,1.122-2.5,2.5-2.5h1c1.378,0,2.5,1.121,2.5,2.5v4Zm6-9v7h1.5c.276,0,.5.224.5.5s-.224.5-.5.5h-1.5v7c0,.552.449,1,1,1h.5c.276,0,.5.224.5.5s-.224.5-.5.5h-.5c-1.103,0-2-.897-2-2v-7h-1.5c-.276,0-.5-.224-.5-.5s.224-.5.5-.5h1.5v-7c0-1.103.897-2,2-2h.5c.276,0,.5.224.5.5s-.224.5-.5.5h-.5c-.551,0-1,.448-1,1Zm8.039-1.106l2.096-2.235c.189-.202.505-.213.707-.022.202.188.212.505.023.706l-2.107,2.247c-.273.273-.627.408-.98.408-.349,0-.695-.132-.96-.396l-.689-.768c-.185-.206-.167-.521.038-.706.205-.185.521-.168.706.038l.67.747c.125.122.355.122.497-.02Zm-4.039,1.106v-2c0-1.379,1.122-2.5,2.5-2.5h2c.276,0,.5.224.5.5s-.224.5-.5.5h-2c-.827,0-1.5.673-1.5,1.5v2c0,.827.673,1.5,1.5,1.5h2c.827,0,1.5-.673,1.5-1.5,0-.276.224-.5.5-.5s.5.224.5.5c0,1.379-1.122,2.5-2.5,2.5h-2c-1.378,0-2.5-1.121-2.5-2.5Zm4.039,15.894l2.096-2.235c.189-.203.505-.213.707-.022.202.188.212.505.023.706l-2.107,2.247c-.273.273-.627.408-.98.408-.349,0-.695-.132-.96-.396l-.689-.768c-.185-.206-.167-.521.038-.706.205-.185.521-.168.706.038l.67.747c.125.122.355.122.497-.02Zm2.961,1.106c0,1.379-1.122,2.5-2.5,2.5h-2c-1.378,0-2.5-1.121-2.5-2.5v-2c0-1.379,1.122-2.5,2.5-2.5h2c.276,0,.5.224.5.5s-.224.5-.5.5h-2c-.827,0-1.5.673-1.5,1.5v2c0,.827.673,1.5,1.5,1.5h2c.827,0,1.5-.673,1.5-1.5,0-.276.224-.5.5-.5s.5.224.5.5Zm-.158-11.864c.202.188.212.505.023.706l-2.107,2.247c-.273.273-.627.408-.98.408-.349,0-.695-.132-.96-.396l-.689-.768c-.185-.206-.167-.521.038-.706.205-.185.521-.168.706.038l.67.747c.125.122.355.122.497-.02l2.096-2.235c.189-.203.505-.212.707-.022Zm.158,3.364c0,1.379-1.122,2.5-2.5,2.5h-2c-1.378,0-2.5-1.121-2.5-2.5v-2c0-1.379,1.122-2.5,2.5-2.5h2c.276,0,.5.224.5.5s-.224.5-.5.5h-2c-.827,0-1.5.673-1.5,1.5v2c0,.827.673,1.5,1.5,1.5h2c.827,0,1.5-.673,1.5-1.5,0-.276.224-.5.5-.5s.5.224.5.5Z"/>
</svg>
