<svg id="Layer_1" viewBox="0 0 24 24" xmlns="http://www.w3.org/2000/svg" data-name="Layer 1"><path d="m21.5 19h-3.5c-.565 0-1.081.195-1.5.513v-1.013c0-1.378-1.121-2.5-2.5-2.5h-4c-1.379 0-2.5 1.122-2.5 2.5v.013c-.419-.317-.935-.513-1.5-.513h-3.5c-1.379 0-2.5 1.122-2.5 2.5v1c0 1.378 1.121 2.5 2.5 2.5h19c1.379 0 2.5-1.122 2.5-2.5s-1.121-2.5-2.5-2.5zm-14 4h-5c-.827 0-1.5-.673-1.5-1.5v-1c0-.827.673-1.5 1.5-1.5h3.5c.827 0 1.5.673 1.5 1.5zm8 0h-7v-4.5c0-.827.673-1.5 1.5-1.5h4c.827 0 1.5.673 1.5 1.5zm6 0h-5v-1.5c0-.827.673-1.5 1.5-1.5h3.5c.827 0 1.5.673 1.5 1.5s-.673 1.5-1.5 1.5zm-11-14.059v2.559c0 1.5-.753 1.5-1 1.5-.276 0-.5.224-.5.5s.224.5.5.5h5c.276 0 .5-.224.5-.5s-.224-.5-.5-.5c-.247 0-1 0-1-1.5v-2.559c4.149-.539 5.433-3.417 5.825-5.13.101-.436-.004-.888-.285-1.242-.288-.362-.719-.57-1.182-.57h-.443c.017-.076.033-.147.051-.23.095-.433-.01-.879-.288-1.225s-.693-.545-1.138-.545h-8.08c-.444 0-.859.199-1.138.545-.278.345-.383.792-.288 1.225.018.084.034.154.051.23h-.443c-.463 0-.894.208-1.182.57-.281.354-.386.806-.285 1.242.392 1.712 1.676 4.59 5.825 5.13zm7.358-5.941c.305.019.547.222.492.588-.291 1.271-1.166 3.295-3.753 4.099 1.435-1.469 2.198-3.599 2.564-4.687h.696zm-9.898-2h8.08c.283-.007.517.28.449.556-.116.53-.199.899-.262 1.089-.345 1.026-1.393 4.149-3.455 5.204-.167.085-.272.258-.272.445v3.206c0 .599.111 1.103.316 1.5h-1.632c.205-.397.316-.901.316-1.5v-3.206c0-.188-.105-.36-.272-.445-2.062-1.055-3.11-4.178-3.455-5.204-.062-.19-.146-.559-.262-1.089-.068-.276.166-.564.449-.556zm-1.818 2h.696c.366 1.088 1.129 3.218 2.564 4.687-2.587-.803-3.462-2.828-3.753-4.099-.055-.366.187-.57.492-.588z"/></svg>