<?xml version="1.0" encoding="UTF-8"?>
<svg xmlns="http://www.w3.org/2000/svg" id="Layer_1" data-name="Layer 1" viewBox="0 0 24 24">
  <path d="M10,3.5V.5c0-.276,.224-.5,.5-.5s.5,.224,.5,.5V3.5c0,.276-.224,.5-.5,.5s-.5-.224-.5-.5Zm4.5,.5c.276,0,.5-.224,.5-.5V.5c0-.276-.224-.5-.5-.5s-.5,.224-.5,.5V3.5c0,.276,.224,.5,.5,.5Zm-8,0c.276,0,.5-.224,.5-.5V.5c0-.276-.224-.5-.5-.5s-.5,.224-.5,.5V3.5c0,.276,.224,.5,.5,.5Zm14,19H.5c-.276,0-.5,.224-.5,.5s.224,.5,.5,.5H20.5c.276,0,.5-.224,.5-.5s-.224-.5-.5-.5ZM.016,15.531c-.076-.849,.752-1.628,1.597-1.473,2.993,.458,4.321,2.571,4.914,4.249,.561-1.372,1.712-2.949,4.086-3.295,.727-.121,1.444,.525,1.386,1.262-.077,1.43-.579,2.569-1.493,3.389-1.375,1.231-3.252,1.335-3.848,1.335-.203-.003-.163-.001-.378,0-.495,0-1.646-.058-2.833-.531C1.986,19.886,.204,18.557,.016,15.531Zm7.047,4.453c1.155-.084,3.769-.622,3.937-3.763-.01-.154-.096-.224-.242-.219-2.78,.404-3.507,2.873-3.695,3.981ZM1.014,15.469c.125,2.01,1.068,3.379,2.803,4.07,.816,.325,1.622,.424,2.126,.451-.192-1.271-1.015-4.412-4.483-4.943-.291-.023-.446,.184-.447,.422Zm22.986-2.469c0,1.654-1.346,3-3,3h-2.182c-.68,2.862-3.251,5-6.318,5-.276,0-.5-.224-.5-.5s.224-.5,.5-.5c3.033,0,5.5-2.468,5.5-5.5v-6c0-.827-.673-1.5-1.5-1.5H4.5c-.827,0-1.5,.673-1.5,1.5v3c0,.276-.224,.5-.5,.5s-.5-.224-.5-.5v-3c0-1.379,1.122-2.5,2.5-2.5h12c1.378,0,2.5,1.121,2.5,2.5v1.5h2c1.654,0,3,1.346,3,3Zm-1,0c0-1.103-.897-2-2-2h-2v3.5c0,.169-.013,.334-.025,.5h2.025c1.103,0,2-.897,2-2Z"/>
</svg>
