<?xml version="1.0" encoding="UTF-8"?>
<svg xmlns="http://www.w3.org/2000/svg" id="Layer_1" data-name="Layer 1" viewBox="0 0 24 24">
  <path d="M13,17.987v.013c0,.552-.448,1-1,1s-1-.448-1-1v-.013c0-.552,.448-1,1-1s1,.448,1,1Zm-.075-11.867c-1.085-.283-2.202-.059-3.066,.612-.864,.668-1.359,1.678-1.359,2.769,0,.276,.224,.5,.5,.5s.5-.224,.5-.5c0-.779,.354-1.5,.971-1.978s1.421-.638,2.204-.435c.839,.217,1.521,.899,1.738,1.739,.314,1.216-.247,2.427-1.364,2.944-.941,.435-1.549,1.442-1.549,2.564v.166c0,.276,.224,.5,.5,.5s.5-.224,.5-.5v-.166c0-.734,.38-1.384,.969-1.657,1.562-.723,2.349-2.409,1.913-4.101-.306-1.186-1.271-2.15-2.457-2.457Zm8.075,.38v13c0,2.481-2.019,4.5-4.5,4.5H7.5c-2.481,0-4.5-2.019-4.5-4.5V6.5c0-2.481,2.019-4.5,4.5-4.5h.55c.232-1.14,1.242-2,2.45-2h3c1.208,0,2.217,.86,2.45,2h.55c2.481,0,4.5,2.019,4.5,4.5Zm-1,0c0-1.93-1.57-3.5-3.5-3.5h-1c-.276,0-.5-.224-.5-.5,0-.827-.673-1.5-1.5-1.5h-3c-.827,0-1.5,.673-1.5,1.5,0,.276-.224,.5-.5,.5h-1c-1.93,0-3.5,1.57-3.5,3.5v13c0,1.93,1.57,3.5,3.5,3.5h9c1.93,0,3.5-1.57,3.5-3.5V6.5Z"/>
</svg>
