<?xml version="1.0" encoding="UTF-8"?>
<svg xmlns="http://www.w3.org/2000/svg" id="Layer_1" data-name="Layer 1" viewBox="0 0 24 24">
  <path d="M.899,7.434c.399-.969,.925-1.882,1.561-2.715,.169-.221,.482-.261,.701-.094,.22,.168,.261,.481,.094,.701-.584,.763-1.065,1.601-1.432,2.488-.079,.193-.266,.31-.462,.31-.063,0-.128-.012-.19-.038-.256-.104-.377-.397-.271-.652Zm.196,6.025c-.064-.481-.097-.972-.096-1.459,0-.47,.03-.944,.09-1.411,.035-.274-.159-.524-.433-.56-.271-.04-.524,.159-.56,.433-.064,.509-.098,1.026-.098,1.537,0,.53,.034,1.066,.104,1.593,.034,.251,.249,.434,.495,.434,.022,0,.045,0,.067-.004,.273-.037,.466-.288,.43-.562ZM10.501,1.097c.021,0,1.021-.097,1.499-.097s1.478,.097,1.499,.097c.247,0,.462-.184,.495-.436,.035-.274-.158-.524-.432-.561-.517-.066-1.043-.101-1.562-.101s-1.046,.034-1.563,.101c-.273,.036-.467,.286-.432,.561,.033,.252,.248,.436,.495,.436Zm5.708,.737c.887,.368,1.724,.852,2.485,1.437,.091,.069,.198,.104,.305,.104,.149,0,.298-.067,.396-.195,.168-.219,.127-.533-.092-.701-.831-.639-1.744-1.166-2.712-1.567-.253-.106-.547,.015-.653,.271-.105,.255,.016,.548,.271,.653ZM1.844,16.231c-.106-.256-.401-.371-.654-.27-.255,.106-.375,.399-.27,.654,.402,.965,.932,1.875,1.573,2.707,.098,.127,.246,.194,.396,.194,.107,0,.215-.034,.306-.104,.219-.168,.259-.482,.09-.701-.588-.762-1.072-1.597-1.44-2.48ZM4.975,3.394c.107,0,.215-.034,.306-.104,.761-.589,1.596-1.074,2.479-1.444,.255-.106,.375-.398,.269-.653-.106-.256-.4-.373-.653-.269-.966,.403-1.876,.933-2.706,1.575-.219,.169-.259,.483-.09,.701,.099,.128,.246,.194,.396,.194Zm2.831,18.779c-.886-.366-1.723-.848-2.485-1.433-.218-.17-.534-.128-.701,.092-.168,.22-.127,.533,.092,.701,.833,.639,1.746,1.165,2.714,1.563,.062,.026,.127,.038,.19,.038,.196,0,.383-.116,.462-.31,.105-.255-.016-.548-.271-.652Zm15.017-6.241c-.256-.107-.547,.016-.653,.271-.366,.886-.85,1.722-1.435,2.485-.168,.22-.127,.533,.092,.701,.091,.07,.198,.104,.305,.104,.149,0,.299-.067,.396-.195,.64-.834,1.166-1.746,1.565-2.712,.105-.256-.016-.548-.271-.653Zm.515-5.936c-.274,.036-.467,.287-.432,.561,.062,.473,.094,.958,.095,1.443,0,.479-.031,.961-.092,1.429-.035,.274,.158,.524,.432,.561,.021,.003,.044,.004,.065,.004,.247,0,.462-.184,.495-.436,.066-.511,.1-1.035,.1-1.559,0-.528-.035-1.058-.103-1.571-.036-.274-.292-.471-.561-.432Zm-9.886,12.908c-.95,.126-1.926,.127-2.872,.005-.272-.036-.524,.157-.56,.433-.035,.273,.158,.524,.433,.56,.51,.065,1.03,.099,1.548,.099,.527,0,1.06-.035,1.582-.104,.273-.036,.467-.288,.431-.562-.037-.274-.296-.466-.562-.431Zm5.254-2.184c-.763,.588-1.598,1.071-2.481,1.438-.256,.106-.376,.398-.271,.653,.08,.192,.266,.309,.462,.309,.064,0,.129-.012,.191-.038,.965-.4,1.876-.929,2.708-1.569,.219-.169,.26-.482,.092-.701-.169-.22-.483-.259-.701-.092Zm-5.233-5.718L23.85,4.857c.197-.193,.201-.51,.008-.707-.191-.197-.509-.199-.707-.008L12.772,14.288c-.979,.955-2.513,.958-3.5-.005l-4.431-4.148c-.202-.188-.519-.18-.707,.023-.188,.201-.178,.518,.023,.707l4.424,4.142c.685,.668,1.563,1.002,2.442,1.002s1.762-.336,2.447-1.006Z"/>
</svg>
