<svg id="Layer_1" viewBox="0 0 24 24" xmlns="http://www.w3.org/2000/svg" data-name="Layer 1"><path d="m21.049 13.211c-.138-.239-.445-.322-.683-.183-.239.138-.321.443-.183.683l.744 1.289c.267.463.267 1.037 0 1.5l-1.011 1.75c-.267.463-.764.75-1.299.75h-2.021c-.535 0-1.032-.287-1.299-.75l-1.01-1.75c-.234-.406-.25-.894-.074-1.321.022-.034 1.132-1.929 1.132-1.929.138-.239.056-.545-.183-.683-.248-.128-.584-.078-.731.183 0 0-1.056 1.87-1.084 1.929-.278.402-.732.654-1.225.654h-2.117c-.493 0-.947-.252-1.225-.654-.028-.059-1.156-2.016-1.188-2.063-.177-.393-.177-.838 0-1.23.032-.047 1.16-2.005 1.188-2.064.278-.401.732-.654 1.225-.654.276 0 .5-.224.5-.5s-.224-.5-.5-.5c-.534 0-1.032-.288-1.299-.75l-1.059-1.833c-.267-.463-.267-1.038 0-1.5l1.059-1.833c.267-.462.765-.75 1.299-.75h2.495c.276 0 .5-.224.5-.5s-.224-.502-.5-.502h-2.495c-.89 0-1.719.479-2.165 1.25l-1.059 1.833c-.2.347-.297.733-.317 1.121-.295-.12-.606-.205-.934-.205h-2.02c-.89 0-1.719.479-2.165 1.25l-1.01 1.751c-.445.771-.445 1.729 0 2.5l1.01 1.75c.176.305.424.548.701.75-.276.202-.525.445-.701.75l-1.01 1.75c-.445.771-.445 1.729 0 2.5l1.01 1.75c.445.771 1.275 1.25 2.165 1.25h2.021c.328 0 .639-.084.934-.204.02.388.117.774.317 1.121l1.059 1.833c.445.771 1.275 1.25 2.165 1.25h2.117c.89 0 1.72-.479 2.165-1.25l1.059-1.833c.2-.347.297-.733.317-1.121.295.12.606.204.934.204h2.021c.891 0 1.721-.479 2.165-1.25l1.011-1.75c.444-.771.444-1.729 0-2.5l-.744-1.289zm-18.838-2.461-1.01-1.75c-.268-.463-.268-1.037 0-1.5l1.01-1.75c.267-.462.765-.75 1.299-.75h2.021c.534 0 1.032.288 1.299.75l1.01 1.75c.235.406.251.893.074 1.32-.022.034-1.166 2.021-1.188 2.065-.281.378-.719.615-1.195.615h-2.021c-.534 0-1.032-.287-1.299-.75zm1.299 8.25c-.534 0-1.032-.287-1.299-.75l-1.01-1.75c-.267-.463-.267-1.037 0-1.5l1.01-1.75c.267-.463.765-.75 1.299-.75h2.021c.477 0 .914.237 1.195.615.022.044 1.166 2.029 1.188 2.064.177.427.161.915-.074 1.321l-1.01 1.75c-.267.463-.765.75-1.299.75zm10.97 1.417-1.059 1.833c-.267.463-.765.75-1.299.75h-2.117c-.534 0-1.032-.287-1.299-.75l-1.059-1.833c-.267-.463-.267-1.038 0-1.5l1.058-1.834c.268-.463.766-.75 1.299-.75h2.117c.534 0 1.032.287 1.299.75l1.059 1.834c.267.462.267 1.037 0 1.5zm8.888-15.18c-.653-.667-2.147-1.017-3.689-1.159.201-.312.32-.68.32-1.078 0-.596-.267-1.126-.683-1.493.345-.281.762-.452 1.243-.51.274-.034.47-.283.437-.557s-.276-.47-.557-.437c-.831.101-1.519.456-2.065 1.034-.122-.023-.246-.038-.375-.038s-.253.015-.375.038c-.545-.577-1.233-.932-2.064-1.033-.278-.035-.523.162-.557.437-.033.274.162.523.437.557.481.058.897.23 1.243.51-.415.367-.683.897-.683 1.493 0 .398.12.766.32 1.078-1.542.142-3.036.492-3.689 1.159-.84.858-.84 2.255 0 3.113.411.419.957.65 1.539.65.668.005 1.28-.313 1.705-.831.175 1.057.513 2.158.982 3.115.216.441.653.716 1.142.716.488 0 .926-.274 1.142-.716.469-.959.808-2.06.983-3.115.424.518 1.037.836 1.705.831.582 0 1.128-.231 1.539-.65.84-.858.84-2.255 0-3.113zm-5.146.425c.317.442.652.907.973 1.338h-2.39c.321-.431.656-.896.973-1.338.077-.107.149-.208.223-.31.073.102.146.203.223.31zm.7 3.338h-1.847c-.087-.323-.165-.658-.222-1h2.292c-.057.342-.135.677-.223 1zm-1.923-6c0-.551.449-1 1-1s1 .449 1 1-.449 1-1 1-1-.449-1-1zm-2.005 4.65c-.441.451-1.207.45-1.648 0-.462-.473-.462-1.242 0-1.714.381-.389 1.66-.805 3.656-.91-.585.805-1.38 1.953-2.008 2.624zm3.004 3.349c-.05 0-.175-.015-.243-.155-.12-.245-.242-.532-.359-.845h1.206c-.117.313-.24.599-.359.845-.069.141-.193.155-.244.155zm4.654-3.349c-.441.449-1.207.45-1.648 0-.63-.672-1.423-1.818-2.008-2.624 1.996.105 3.275.521 3.656.91.462.473.462 1.242 0 1.714z"/></svg>