<?xml version="1.0" encoding="UTF-8"?>
<svg xmlns="http://www.w3.org/2000/svg" id="Layer_1" data-name="Layer 1" viewBox="0 0 24 24">
  <path d="M17,12c0-.552,.448-1,1-1s1,.448,1,1-.448,1-1,1-1-.448-1-1Zm5.5-1h-.003c-.503-1.321-1.376-2.501-2.497-3.373v-3.125c0-.498-.245-.962-.656-1.241-.413-.281-.938-.338-1.403-.153-1.65,.655-2.681,1.84-2.901,3.334-.041,.273,.147,.527,.421,.568,.271,.041,.527-.148,.567-.421,.214-1.445,1.359-2.185,2.282-2.551,.159-.062,.331-.045,.472,.051,.139,.094,.219,.245,.219,.414v3.375c0,.16,.077,.311,.206,.405,1.15,.833,2.024,2.032,2.462,3.374,.067,.206,.259,.345,.476,.345h.351c.23,.006,.506,.097,.506,.5v3c0,.275-.225,.5-.5,.5h-.54c-.203,0-.386,.122-.463,.311-.754,1.837-2.268,3.243-4.152,3.857-.205,.067-.345,.259-.345,.476v.856c0,.827-.673,1.5-1.5,1.5s-1.5-.673-1.5-1.5c0-.276-.224-.5-.5-.5h-4c-.276,0-.5,.224-.5,.5,0,.827-.673,1.5-1.5,1.5s-1.5-.673-1.5-1.5v-.856c0-.217-.139-.408-.345-.476-3.062-.999-4.959-3.945-4.615-7.165,.236-2.206,1.615-4.155,3.687-5.212,.246-.125,.344-.427,.218-.672-.126-.246-.427-.345-.672-.218-.898,.458-1.681,1.064-2.324,1.777-.577-.363-.949-.983-.949-1.677,0-1.103,.897-2,2-2,.276,0,.5-.224,.5-.5s-.224-.5-.5-.5c-1.654,0-3,1.346-3,3,0,1.007,.507,1.928,1.321,2.48C.626,10.492,.178,11.657,.046,12.897c-.382,3.572,1.642,6.851,4.954,8.101v.502c0,1.379,1.122,2.5,2.5,2.5,1.208,0,2.217-.86,2.45-2h3.1c.232,1.14,1.243,2,2.45,2,1.379,0,2.5-1.121,2.5-2.5v-.503c1.898-.719,3.435-2.151,4.287-3.997h.213c.827,0,1.5-.673,1.5-1.5v-3c0-1.101-.897-1.5-1.5-1.5ZM6.076,3.213C6.366,1.701,7.563,.454,9.053,.109c1.221-.282,2.473-.006,3.435,.758,.961,.764,1.512,1.906,1.512,3.132,0,1.527-.858,2.897-2.24,3.575-.158,.078-.26,.247-.26,.433v.693c0,.717-.583,1.3-1.3,1.3h-.4c-.741,0-1.3-.597-1.3-1.388v-.606c0-.187-.104-.354-.271-.437-1.634-.807-2.499-2.557-2.154-4.356Zm4.424,4.794s.001-.005,.001-.007h-1.002s0,.004,0,.006v.606c0,.232,.121,.388,.3,.388h.4c.166,0,.3-.134,.3-.3v-.693Zm-1.828-1.334c.166,.082,.301,.198,.422,.327h1.812c.119-.129,.253-.245,.414-.323,1.036-.508,1.68-1.534,1.68-2.677,0-.92-.414-1.776-1.135-2.35-.535-.425-1.191-.649-1.872-.649-.237,0-.477,.027-.715,.083-1.111,.256-2.003,1.188-2.22,2.318-.26,1.352,.389,2.666,1.614,3.271Z"/>
</svg>
