<?xml version="1.0" encoding="UTF-8"?>
<svg xmlns="http://www.w3.org/2000/svg" id="Layer_1" data-name="Layer 1" viewBox="0 0 24 24">
  <path d="M16.5,2H8.5c-.276,0-.5,.224-.5,.5s.224,.5,.5,.5h8c3.584,0,6.5,2.916,6.5,6.5v.5H10C5.051,10,.897,13.542,.116,18.471c-.066,.394-.267,1.589,.505,2.501,.577,.683,1.546,1.028,2.879,1.028H19.5c2.481,0,4.5-2.019,4.5-4.5V9.5c0-4.136-3.364-7.5-7.5-7.5Zm6.5,15.5c0,1.93-1.57,3.5-3.5,3.5H3.5c-1.025,0-1.737-.227-2.115-.674-.473-.559-.334-1.38-.272-1.748,.695-4.391,4.434-7.578,8.888-7.578h13v6.5Zm-12-1.5c0-.552,.448-1,1-1s1,.448,1,1-.448,1-1,1-1-.448-1-1Zm4,0c0-.552,.448-1,1-1s1,.448,1,1-.448,1-1,1-1-.448-1-1Zm-6,0c0,.552-.448,1-1,1s-1-.448-1-1,.448-1,1-1,1,.448,1,1Z"/>
</svg>
