<svg id="Layer_1" viewBox="0 0 24 24" xmlns="http://www.w3.org/2000/svg" data-name="Layer 1"><path d="m19.5 2h-1.5v-1.5c0-.276-.224-.5-.5-.5s-.5.224-.5.5v1.5h-10v-1.5c0-.276-.224-.5-.5-.5s-.5.224-.5.5v1.5h-1.5c-2.481 0-4.5 2.019-4.5 4.5v13c0 2.481 2.019 4.5 4.5 4.5h1c.276 0 .5-.224.5-.5s-.224-.5-.5-.5h-1c-1.93 0-3.5-1.57-3.5-3.5v-10.5h22v4.5c0 .276.224.5.5.5s.5-.224.5-.5v-7c0-2.481-2.019-4.5-4.5-4.5zm-18.5 6v-1.5c0-1.93 1.57-3.5 3.5-3.5h15c1.93 0 3.5 1.57 3.5 3.5v1.5zm20.5 8h-1.5c-.552 0-1 .448-1 1v6.5c0 .276.224.5.5.5s.5-.224.5-.5v-2.5h1.5c1.379 0 2.5-1.121 2.5-2.5s-1.121-2.5-2.5-2.5zm0 4h-1.5v-3h1.5c.827 0 1.5.673 1.5 1.5s-.673 1.5-1.5 1.5zm-6.5-3v2.5h2.5c.276 0 .5.224.5.5s-.224.5-.5.5h-2.5v2.5h2.5c.276 0 .5.224.5.5s-.224.5-.5.5h-2.5c-.552 0-1-.448-1-1v-6c0-.552.448-1 1-1h2.5c.276 0 .5.224.5.5s-.224.5-.5.5zm-2.054 5.056c-.183 1.127-1.162 1.944-2.329 1.944-.878 0-1.946-.551-2.473-1.084-.194-.196-.192-.513.004-.707.196-.195.513-.191.707.004.414.419 1.237.787 1.762.787.674 0 1.238-.465 1.343-1.104.037-.229.076-1.007-.976-1.432-.111-.042-1.208-.457-1.699-.763-.672-.474-.978-1.163-.88-1.917.104-.783.627-1.421 1.365-1.665.903-.299 1.822-.046 2.736.746.209.181.231.497.051.705-.181.209-.497.231-.705.051-.647-.562-1.211-.738-1.769-.553-.371.123-.634.447-.687.846-.05.38.103.717.427.948.335.204 1.214.554 1.523.67 1.395.563 1.731 1.711 1.599 2.523z"/></svg>