<svg id="Layer_1" viewBox="0 0 24 24" xmlns="http://www.w3.org/2000/svg" data-name="Layer 1"><path d="m16.5 10h-4v-9.5c0-.276-.224-.5-.5-.5s-.5.224-.5.5v9.5h-4c-2.481 0-4.5 2.019-4.5 4.5v7c0 1.22-.28 1.5-1.5 1.5-.276 0-.5.224-.5.5s.224.5.5.5h16c1.93 0 3.5-1.57 3.5-3.5v-6c0-2.481-2.019-4.5-4.5-4.5zm-9 1h9c1.758 0 3.204 1.308 3.449 3h-15.898c.245-1.692 1.691-3 3.449-3zm10 12h-13.784c.194-.379.284-.874.284-1.5v-6.5h3v4.5c0 .276.224.5.5.5s.5-.224.5-.5v-4.5h2v4.5c0 .276.224.5.5.5s.5-.224.5-.5v-4.5h2v4.5c0 .276.224.5.5.5s.5-.224.5-.5v-4.5h2v4.5c0 .276.224.5.5.5s.5-.224.5-.5v-4.5h3v5.5c0 1.378-1.121 2.5-2.5 2.5zm-16.194-19.085 1.951.822.779 1.949c.076.19.26.314.464.314s.388-.125.464-.314l.777-1.944 1.944-.777c.19-.076.314-.26.314-.464s-.125-.388-.314-.464l-1.944-.777-.777-1.944c-.152-.38-.776-.38-.929 0l-.775 1.939-1.937.733c-.191.073-.319.254-.323.458s.117.391.306.47zm2.514-.804c.131-.05.235-.152.288-.282l.393-.982.393.982c.051.127.152.228.279.279l.982.393-.982.393c-.127.051-.228.152-.279.279l-.393.982-.393-.982c-.05-.124-.147-.223-.27-.275l-.991-.417.973-.368zm19.866 1.925-1.943-.777-.778-1.944c-.15-.38-.777-.38-.928 0l-.776 1.939-1.937.733c-.191.073-.319.254-.323.458s.117.391.306.47l1.95.822.78 1.949c.075.19.26.314.464.314s.389-.125.464-.314l.778-1.944 1.943-.777c.19-.076.314-.26.314-.464s-.124-.388-.314-.464zm-2.514.857c-.127.051-.228.151-.278.279l-.394.982-.394-.982c-.049-.125-.146-.223-.27-.275l-.99-.417.973-.368c.131-.05.235-.152.287-.282l.394-.982.394.982c.051.127.151.228.278.279l.981.393-.981.393z"/></svg>