<?xml version="1.0" encoding="UTF-8"?>
<svg xmlns="http://www.w3.org/2000/svg" id="Layer_1" data-name="Layer 1" viewBox="0 0 24 24">
  <path d="M0,13.5c0-.276,.224-.5,.5-.5H23.5c.276,0,.5,.224,.5,.5s-.224,.5-.5,.5H.5c-.276,0-.5-.224-.5-.5Zm8,3.5c.276,0,.5-.224,.5-.5s-.224-.5-.5-.5h-1.5c-.552,0-1,.448-1,1v6c0,.552,.448,1,1,1h1.5c.276,0,.5-.224,.5-.5s-.224-.5-.5-.5h-1.5v-2.5h1.5c.276,0,.5-.224,.5-.5s-.224-.5-.5-.5h-1.5v-2.5h1.5Zm3.75-1c-1.24,0-2.25,1.01-2.25,2.25v3.5c0,1.24,1.01,2.25,2.25,2.25s2.25-1.01,2.25-2.25v-.75c0-.552-.448-1-1-1h-1c-.276,0-.5,.224-.5,.5s.224,.5,.5,.5h1v.75c0,.689-.561,1.25-1.25,1.25s-1.25-.561-1.25-1.25v-3.5c0-.689,.561-1.25,1.25-1.25s1.25,.561,1.25,1.25v.25c0,.276,.224,.5,.5,.5s.5-.224,.5-.5v-.25c0-1.24-1.01-2.25-2.25-2.25ZM3.152,2.599c-.372-.661-.031-1.517,.663-1.805,1.404-.611,4.205-1.407,7.202,.134,.912,.469,1.566,1.284,1.844,2.295,.285,1.039,.127,2.147-.435,3.042-.147,.233-.307,.427-.473,.603,.215,.406,.402,.809,.547,1.2,.347-.825,.885-1.584,1.623-2.114-.004-.011-.01-.02-.014-.031-.415-1.336,.319-2.77,1.748-3.409,1.864-.833,3.822-.507,5.136-.085,.863,.252,1.305,1.321,.776,2.065-1.004,1.482-2.106,2.541-3.276,3.149-.839,.436-1.821,.474-2.693,.11-.481-.2-.879-.523-1.188-.914-1.102,.861-1.613,2.468-1.613,3.66,0,.276-.224,.5-.5,.5s-.5-.224-.5-.5c0-.8-.287-1.88-.849-2.986-1.592,.758-2.627,.622-4.037,.031-2.065-1.086-3.012-3.184-3.962-4.946Zm11.913,3.027c.171,.548,.568,.977,1.12,1.206,.592,.246,1.282,.217,1.848-.075,1.021-.53,2-1.48,2.909-2.822,.15-.253-.013-.467-.253-.553-1.148-.368-2.85-.659-4.423,.046-.959,.429-1.464,1.354-1.201,2.198ZM4.015,1.914c-.084,.16,.24,.581,.29,.723,.792,1.503,1.69,3.208,3.267,4.019,.457,.235,.984,.337,1.53,.344,.083,.007,.81,.06,1.542-.361-.773-1.184-1.876-2.325-3.374-3.104-.245-.127-.341-.429-.213-.674,.128-.245,.433-.339,.674-.212,1.644,.855,2.843,2.056,3.68,3.305,.562-.667,.717-1.611,.487-2.464-.202-.738-.678-1.331-1.337-1.67-2.629-1.353-5.105-.647-6.346-.107-.098,.042-.171,.116-.2,.203Zm19.485,14.086c-.276,0-.5,.224-.5,.5v4.412c-2.035-5.04-2.135-5.017-2.587-4.927-.235,.045-.413,.275-.413,.515v7c0,.276,.224,.5,.5,.5s.5-.224,.5-.5v-4.784c.573,1.354,1.337,3.224,2.036,4.97,.186,.505,.98,.349,.964-.186v-7c0-.276-.224-.5-.5-.5Zm-19.437,.004c-.269-.041-.524,.159-.56,.433l-.756,5.922c-.031,.239-.137,.642-.494,.642-.398,0-.479-.54-.487-.602l-.771-5.962c-.036-.273-.281-.472-.561-.432-.273,.035-.467,.286-.432,.561l.771,5.962c.112,.867,.721,1.473,1.479,1.473,.783,0,1.366-.594,1.486-1.514l.756-5.923c.035-.274-.159-.524-.433-.56Zm14.378,1.469l.771,5.962c.093,.645-.921,.77-.992,.129l-.202-1.563h-2.106l-.2,1.563c-.075,.646-1.084,.514-.992-.127l.756-5.923c.12-.92,.703-1.514,1.486-1.514,.759,0,1.367,.605,1.479,1.473Zm-.553,3.527l-.439-3.398c-.008-.062-.089-.602-.487-.602-.357,0-.463,.402-.494,.642l-.429,3.358h1.849Z"/>
</svg>
