<?xml version="1.0" encoding="UTF-8"?>
<svg xmlns="http://www.w3.org/2000/svg" id="Layer_1" data-name="Layer 1" viewBox="0 0 24 24">
  <path d="M19.5,0H4.5C2.019,0,0,2.019,0,4.5v15c0,2.481,2.019,4.5,4.5,4.5h15c2.481,0,4.5-2.019,4.5-4.5V4.5c0-2.481-2.019-4.5-4.5-4.5Zm3.5,19.5c0,1.93-1.57,3.5-3.5,3.5H4.5c-1.93,0-3.5-1.57-3.5-3.5V4.5c0-1.93,1.57-3.5,3.5-3.5h15c1.93,0,3.5,1.57,3.5,3.5v15Zm-2.142-12.348c.192,.197,.188,.515-.011,.706l-9.792,9.5c-.412,.412-.966,.642-1.556,.642s-1.144-.229-1.561-.646L3.158,12.864c-.202-.188-.212-.505-.022-.706,.188-.203,.507-.212,.706-.022l4.793,4.5c.479,.477,1.264,.466,1.719,.011L20.152,7.142c.199-.193,.517-.188,.706,.011Z"/>
</svg>
