<svg id="Layer_1" viewBox="0 0 24 24" xmlns="http://www.w3.org/2000/svg" data-name="Layer 1"><path d="m16 11.5v5c0 1.557-.795 2.93-2 3.738v3.262c0 .276-.224.5-.5.5s-.5-.224-.5-.5v-2.776c-.471.168-.971.276-1.5.276h-7c-.529 0-1.029-.108-1.5-.276v2.776c0 .276-.224.5-.5.5s-.5-.224-.5-.5v-3.262c-1.205-.808-2-2.182-2-3.738v-9c0-1.557.795-2.93 2-3.738v-3.262c0-.276.224-.5.5-.5s.5.224.5.5v2.776c.471-.168.971-.276 1.5-.276h7c.276 0 .5.224.5.5s-.224.5-.5.5h-7c-1.93 0-3.5 1.57-3.5 3.5v9c0 1.93 1.57 3.5 3.5 3.5h7c1.93 0 3.5-1.57 3.5-3.5v-5c0-.276.224-.5.5-.5s.5.224.5.5zm7.547-3.312c-.415.517-1.043.812-1.723.812h-.375c-.232 1.14-1.242 2-2.449 2s-2.217-.86-2.449-2h-.375c-.68 0-1.308-.296-1.723-.812-.39-.484-.538-1.107-.405-1.708.193-.88.424-1.926.629-2.833.521-2.317 2.098-3.646 4.326-3.646 2.24 0 3.817 1.33 4.326 3.649l.623 2.828c.133.601-.015 1.225-.404 1.71zm-3.139.812h-2.816c.207.581.757 1 1.408 1s1.201-.419 1.408-1zm2.567-2.308-.623-2.828c-.287-1.307-1.101-2.864-3.35-2.864-2.235 0-3.056 1.559-3.35 2.866-.205.906-.435 1.95-.628 2.828-.068.308.006.615.208.866.224.279.568.439.943.439h5.648c.375 0 .719-.16.943-.439.202-.251.276-.56.208-.868zm-11.975 1.358c1.14.232 2 1.242 2 2.449v4c0 1.379-1.122 2.5-2.5 2.5h-5c-1.378 0-2.5-1.121-2.5-2.5v-4c0-1.208.86-2.217 2-2.449v-.551c0-.276.224-.5.5-.5s.5.224.5.5v.5h4v-.5c0-.276.224-.5.5-.5s.5.224.5.5zm1 6.449v-2.5h-8v2.5c0 .827.673 1.5 1.5 1.5h5c.827 0 1.5-.673 1.5-1.5zm-1.5-5.5h-5c-.827 0-1.5.673-1.5 1.5v.5h8v-.5c0-.827-.673-1.5-1.5-1.5z"/></svg>