<?xml version="1.0" encoding="UTF-8"?>
<svg xmlns="http://www.w3.org/2000/svg" id="Layer_1" data-name="Layer 1" viewBox="0 0 24 24">
  <path d="m24,12c0,.276-.224.5-.5.5h-15.25l5.605,5.647c.194.196.193.513-.003.707-.097.098-.225.146-.352.146-.128,0-.257-.049-.355-.147l-5.677-5.721c-.623-.624-.623-1.64.001-2.265l5.676-5.72c.195-.196.512-.197.707-.002.196.194.197.511.003.707l-5.605,5.647h15.25c.276,0,.5.224.5.5Zm-12.479,10.975c-5.9-.254-10.521-5.074-10.521-10.975S5.622,1.279,11.521,1.025c.276-.013.49-.246.478-.521-.012-.275-.25-.48-.521-.479C5.042.304,0,5.562,0,12s5.042,11.696,11.479,11.975h.022c.266,0,.487-.21.499-.479.012-.275-.202-.509-.478-.521Z"/>
</svg>
