<?xml version="1.0" encoding="UTF-8"?>
<svg xmlns="http://www.w3.org/2000/svg" id="Layer_1" data-name="Layer 1" viewBox="0 0 24 24">
  <path d="m22.017,5.831L14.517.77c-1.528-1.031-3.503-1.031-5.034,0L1.983,5.831c-1.242.838-1.983,2.232-1.983,3.73v9.939c0,2.481,2.019,4.5,4.5,4.5h15c2.481,0,4.5-2.019,4.5-4.5v-9.939c0-1.499-.741-2.893-1.983-3.73Zm.983,13.669c0,1.93-1.57,3.5-3.5,3.5h-3.797l-5.515-5.354c-.25-.25-.25-.658.023-.934l3.307-3.802c.311-.31.481-.722.481-1.161s-.171-.851-.497-1.176l-2.665-2.442c-.204-.186-.52-.172-.707.031-.187.204-.173.52.031.707l2.649,2.427c.122.122.188.283.188.454s-.067.333-.212.479l-3.307,3.802c-.64.64-.64,1.682.005,2.328l4.78,4.641H4.5c-1.93,0-3.5-1.57-3.5-3.5v-9.939c0-1.165.577-2.25,1.542-2.901L10.042,1.599c.595-.401,1.276-.602,1.958-.602s1.363.2,1.958.602l7.5,5.061c.966.651,1.542,1.736,1.542,2.901v9.939Z"/>
</svg>
