<svg id="Layer_1" viewBox="0 0 24 24" xmlns="http://www.w3.org/2000/svg" data-name="Layer 1"><path d="m22.214 12.634c-.312-.167-.681-.196-1.013-.08-.33.116-.598.368-.734.69-.31.729-.467 1.319-.467 1.755 0 1.103.897 2 2 2v1.25c0 2.619-2.131 4.75-4.75 4.75s-4.741-2.123-4.749-4.736c.438-.313 1.359-1.077 1.954-2.273.015.001.029.009.044.009h1.585c.847 0 1.604-.536 1.887-1.333.092-.26-.045-.546-.305-.638-.26-.091-.545.044-.639.305-.141.398-.52.667-.943.667h-1.257c.105-.399.172-.828.172-1.295v-.705h3.085c.847 0 1.604-.536 1.887-1.333.092-.26-.045-.546-.305-.638s-.545.044-.639.305c-.141.398-.52.667-.943.667h-3.085v-2h3.5c1.291 0 2.421-.838 2.831-2.033 1.497-.167 2.669-1.426 2.669-2.967 0-.867-.437-3.396-.799-4.353-.144-.379-.498-.633-.902-.647-.399-.012-.784.218-.955.591-.122.265-.231.59-.347.942-.042.126-.084.253-.128.381-.072-.105-.145-.215-.213-.322-.171-.373-.536-.6-.955-.592-.404.014-.759.268-.902.647-.385 1.015-.799 2.497-.799 3.353 0 1.404.973 2.576 2.277 2.902-.335.656-1.013 1.098-1.777 1.098h-3.5v-2c0-1.065-.487-1.985-1-2.665v-2.836c0-.276-.224-.5-.5-.5s-.5.224-.5.5v1.8c-.601-.378-1.399-.378-2 0v-1.8c0-.276-.224-.5-.5-.5s-.5.224-.5.5v2.835c-.513.68-1 1.599-1 2.665v2h-3.5c-.765 0-1.443-.442-1.777-1.098 1.305-.326 2.277-1.498 2.277-2.902 0-.856-.414-2.338-.799-3.353-.144-.379-.498-.633-.902-.647-.402-.011-.784.219-.926.537-.079.127-.162.254-.243.374-.044-.126-.085-.252-.127-.377-.115-.352-.225-.677-.347-.941-.17-.374-.538-.602-.954-.593-.404.014-.759.268-.902.647-.362.956-.799 3.486-.799 4.353 0 1.541 1.172 2.799 2.668 2.966.409 1.196 1.54 2.034 2.832 2.034h3.5v2h-3.085c-.424 0-.803-.268-.943-.667-.093-.262-.377-.399-.639-.305-.26.092-.396.377-.305.638.282.798 1.04 1.333 1.887 1.333h3.085v.705c0 .467.067.896.172 1.295h-1.257c-.424 0-.803-.268-.943-.667-.093-.261-.378-.398-.639-.305-.26.092-.396.377-.305.638.282.798 1.04 1.333 1.887 1.333h1.585c.016 0 .029-.008.044-.009.596 1.198 1.52 1.962 1.957 2.275.009 3.163 2.584 5.734 5.749 5.734s5.75-2.58 5.75-5.75v-1.528c.595-.347 1-.985 1-1.722 0-.919-.617-1.737-1.786-2.366zm-3.214-7.634c0-.69.378-2.06.777-2.936.372.6.811 1.162.829 1.186.106.137.278.21.449.189.173-.02.322-.127.396-.284.207-.44.359-.901.494-1.308.103-.312.197-.602.316-.851 0 0 .002.001.003.006.317.835.734 3.233.734 3.998 0 1.103-.897 2-2 2s-2-.897-2-2zm-18 0c0-.765.417-3.163.734-3.998l.014.008c.108.235.203.525.306.837.135.407.287.868.494 1.308.074.157.224.265.396.284.173.02.343-.053.449-.189.019-.023.457-.585.872-1.248.356.938.734 2.308.734 2.998 0 1.103-.897 2-2 2s-2-.897-2-2zm9 8.705v-.705h2.5c.276 0 .5-.224.5-.5s-.224-.5-.5-.5h-2.5v-2h2.5c.276 0 .5-.224.5-.5s-.224-.5-.5-.5h-2.5v-2c0-1.215.884-2.25 1.411-2.758.161-.156.37-.242.589-.242s.428.086.589.242c.527.508 1.411 1.543 1.411 2.758v6.705c0 1.959-1.409 3.236-2.001 3.686-.593-.447-1.999-1.716-1.999-3.686zm12 2.295c-.552 0-1-.449-1-1 0-.292.138-.777.387-1.365.086-.159.208-.184.354-.12.471.253 1.26.782 1.26 1.485 0 .551-.448 1-1 1z"/></svg>