<?xml version="1.0" encoding="UTF-8"?>
<svg xmlns="http://www.w3.org/2000/svg" id="Layer_1" data-name="Layer 1" viewBox="0 0 24 24">
  <path d="m20.5,0h-1.757c-.935,0-1.813.364-2.475,1.025l-3.242,3.242c-.651.651-1.025,1.553-1.025,2.475v3.758c0,.037.013.069.021.104-3.387,2.539-8.725,6.565-9.289,7.128-.854.854-.959,2.176-.318,3.146L.146,23.146c-.195.195-.195.512,0,.707.098.098.226.146.354.146s.256-.049.354-.146l2.268-2.268c.405.269.881.414,1.379.414.668,0,1.296-.26,1.768-.732.564-.564,4.589-5.902,7.128-9.289.035.008.067.021.104.021h3.757c.935,0,1.813-.364,2.475-1.025l3.242-3.242c.651-.651,1.025-1.553,1.025-2.475v-1.758c0-1.93-1.57-3.5-3.5-3.5ZM5.561,20.561c-.566.566-1.555.566-2.121,0-.585-.585-.585-1.536,0-2.121.477-.478,5.421-4.214,9.08-6.958-2.745,3.658-6.481,8.602-6.958,9.079ZM23,5.258c0,.658-.267,1.303-.732,1.768l-3.242,3.242c-.473.473-1.101.732-1.768.732h-3.128c.609-.813,1.063-1.422,1.25-1.672l4.474-4.474c.195-.195.195-.512,0-.707s-.512-.195-.707,0l-4.476,4.476c-.251.187-.859.641-1.67,1.248v-3.129c0-.658.267-1.303.732-1.768l3.242-3.242c.473-.473,1.101-.732,1.768-.732h1.757c1.378,0,2.5,1.121,2.5,2.5v1.758Z"/>
</svg>
