<svg id="Layer_1" viewBox="0 0 24 24" xmlns="http://www.w3.org/2000/svg" data-name="Layer 1"><path d="m12 6.276v-1.776c0-2.481-2.019-4.5-4.5-4.5s-4.5 2.019-4.5 4.5v1.776c-1.742.621-3 2.271-3 4.224v4c0 2.481 2.019 4.5 4.5 4.5h6c2.481 0 4.5-2.019 4.5-4.5v-4c0-1.953-1.258-3.602-3-4.224zm-8-1.776c0-1.93 1.57-3.5 3.5-3.5s3.5 1.57 3.5 3.5v1.551c-.166-.019-.329-.051-.5-.051h-6c-.171 0-.334.032-.5.051zm10 10c0 1.93-1.57 3.5-3.5 3.5h-6c-1.93 0-3.5-1.57-3.5-3.5v-4c0-1.93 1.57-3.5 3.5-3.5h6c1.93 0 3.5 1.57 3.5 3.5zm-6-3v2c0 .276-.224.5-.5.5s-.5-.224-.5-.5v-2c0-.276.224-.5.5-.5s.5.224.5.5zm9.5-3.5h2.5c1.378 0 2.5-1.122 2.5-2.5v-1.571c.86-.224 1.5-1 1.5-1.929 0-1.103-.897-2-2-2s-2 .897-2 2c0 .929.64 1.705 1.5 1.929v1.571c0 .827-.673 1.5-1.5 1.5h-2.5c-.276 0-.5.224-.5.5s.224.5.5.5zm3.5-6c0-.551.449-1 1-1s1 .449 1 1-.449 1-1 1-1-.449-1-1zm1.5 18.071v-1.571c0-1.378-1.122-2.5-2.5-2.5h-2.5c-.276 0-.5.224-.5.5s.224.5.5.5h2.5c.827 0 1.5.673 1.5 1.5v1.571c-.86.224-1.5 1-1.5 1.929 0 1.103.897 2 2 2s2-.897 2-2c0-.929-.64-1.705-1.5-1.929zm-.5 2.929c-.551 0-1-.449-1-1s.449-1 1-1 1 .449 1 1-.449 1-1 1zm0-13c-.929 0-1.705.64-1.929 1.5h-2.571c-.276 0-.5.224-.5.5s.224.5.5.5h2.571c.224.86 1 1.5 1.929 1.5 1.103 0 2-.897 2-2s-.897-2-2-2zm0 3c-.551 0-1-.449-1-1s.449-1 1-1 1 .449 1 1-.449 1-1 1z"/></svg>