<svg id="Layer_1" viewBox="0 0 24 24" xmlns="http://www.w3.org/2000/svg" data-name="Layer 1"><path d="m12 10c-1.103 0-2 .897-2 2s.897 2 2 2 2-.897 2-2-.897-2-2-2zm0 3c-.551 0-1-.449-1-1s.449-1 1-1 1 .449 1 1-.449 1-1 1zm7-7c.827 0 1.5-.673 1.5-1.5s-.673-1.5-1.5-1.5-1.5.673-1.5 1.5.673 1.5 1.5 1.5zm0-2c.276 0 .5.224.5.5s-.224.5-.5.5-.5-.224-.5-.5.224-.5.5-.5zm-7 2c.827 0 1.5-.673 1.5-1.5s-.673-1.5-1.5-1.5-1.5.673-1.5 1.5.673 1.5 1.5 1.5zm0-2c.276 0 .5.224.5.5s-.224.5-.5.5-.5-.224-.5-.5.224-.5.5-.5zm-7 2c.827 0 1.5-.673 1.5-1.5s-.673-1.5-1.5-1.5-1.5.673-1.5 1.5.673 1.5 1.5 1.5zm0-2c.276 0 .5.224.5.5s-.224.5-.5.5-.5-.224-.5-.5.224-.5.5-.5zm9.94 5.4c.055.271-.12.535-.39.589-.264.056-.536-.118-.589-.39-.188-.927-1.013-1.6-1.96-1.6s-1.772.673-1.96 1.6c-.054.271-.318.446-.589.39-.271-.055-.445-.319-.39-.589.282-1.391 1.519-2.4 2.94-2.4s2.658 1.009 2.94 2.4zm-7 0c.055.271-.12.535-.39.589-.264.056-.536-.118-.589-.39-.188-.927-1.013-1.6-1.96-1.6s-1.772.673-1.96 1.6c-.055.271-.319.446-.589.39-.271-.055-.445-.319-.39-.589.282-1.391 1.519-2.4 2.94-2.4s2.658 1.009 2.94 2.4zm14 0c.055.271-.12.535-.39.589-.264.056-.536-.118-.589-.39-.188-.927-1.013-1.6-1.96-1.6s-1.772.673-1.96 1.6c-.055.271-.317.446-.589.39-.271-.055-.445-.319-.39-.589.282-1.391 1.519-2.4 2.94-2.4s2.658 1.009 2.94 2.4zm-2.44-8.4h-15c-2.481 0-4.5 2.019-4.5 4.5v9c0 2.481 2.019 4.5 4.5 4.5h7v3h-5c-.276 0-.5.224-.5.5s.224.5.5.5h11c.276 0 .5-.224.5-.5s-.224-.5-.5-.5h-5v-3h7c2.481 0 4.5-2.019 4.5-4.5v-9c0-2.481-2.019-4.5-4.5-4.5zm-10.325 17c.417-1.172 1.542-2 2.825-2s2.408.828 2.825 2zm13.825-3.5c0 1.93-1.57 3.5-3.5 3.5h-3.643c-.452-1.734-2.029-3-3.857-3s-3.406 1.266-3.857 3h-3.643c-1.93 0-3.5-1.57-3.5-3.5v-9c0-1.93 1.57-3.5 3.5-3.5h15c1.93 0 3.5 1.57 3.5 3.5z"/></svg>