<svg id="Layer_1" viewBox="0 0 24 24" xmlns="http://www.w3.org/2000/svg" data-name="Layer 1"><path d="m19.5 3h-15c-2.481 0-4.5 2.019-4.5 4.5v9c0 2.481 2.019 4.5 4.5 4.5h15c2.481 0 4.5-2.019 4.5-4.5v-9c0-2.481-2.019-4.5-4.5-4.5zm3.5 13.5c0 1.93-1.57 3.5-3.5 3.5h-15c-1.93 0-3.5-1.57-3.5-3.5v-9c0-1.93 1.57-3.5 3.5-3.5h15c1.93 0 3.5 1.57 3.5 3.5zm-6-6c0-1.379-1.122-2.5-2.5-2.5h-1.5c-.551 0-1 .448-1 1v6.5c0 .276.224.5.5.5s.5-.224.5-.5v-2.5h1.5c.212 0 .415-.035.612-.085l.914 2.743c.087.264.377.403.632.316.262-.088.403-.371.316-.633l-.956-2.869c.593-.457.982-1.167.982-1.973zm-4 1.5v-3h1.5c.827 0 1.5.673 1.5 1.5s-.673 1.5-1.5 1.5zm-5-3v2.5h2.5c.276 0 .5.224.5.5s-.224.5-.5.5h-2.5v3c0 .276-.224.5-.5.5s-.5-.224-.5-.5v-6.5c0-.552.449-1 1-1h2.5c.276 0 .5.224.5.5s-.224.5-.5.5z"/></svg>