<svg id="Layer_1" viewBox="0 0 24 24" xmlns="http://www.w3.org/2000/svg" data-name="Layer 1"><path d="m23.124 7.569c-.579-.455-1.323-.615-2.044-.442-.819.198-1.794.493-2.684.749.371-.568.606-1.281.605-2.235.045-2.021-1.823-3.733-3.822-3.641-1.392.049-2.535.841-3.172 2.097-.633-1.248-1.783-2.048-3.183-2.097-2.011-.091-3.862 1.619-3.822 3.641 0 .954.234 1.667.605 2.235-.89-.255-1.864-.55-2.684-.749-1.409-.383-2.957.762-2.92 2.231v6.363c-.03 1.244 1.114 2.328 2.347 2.299 1.957-.295 4.172-.965 6.653-1.246v5.253c0 .389.231.739.589.893.358.153.771.078 1.077-.215l1.334-1.464 1.358 1.488c.283.271.698.343 1.052.19.358-.153.589-.504.589-.893v-5.253c2.177.288 4.477.79 6.079 1.177 1.409.386 2.956-.761 2.921-2.23v-6.363c0-.698-.319-1.351-.876-1.789zm-7.911-4.569c1.436-.085 2.825 1.182 2.787 2.641.001 1.579-.634 2.405-2.374 2.945-1.006.212-2.052.36-3.126.398l-.003-3.141c.199-1.676 1.265-2.791 2.716-2.842zm-9.213 2.641c-.034-1.462 1.34-2.721 2.787-2.641 1.451.051 2.518 1.166 2.713 2.784v3.199c-1.073-.038-2.12-.186-3.125-.398-1.741-.54-2.376-1.365-2.375-2.945zm-3.314 11.339c-.803.223-1.703-.417-1.686-1.258v-6.363c-.019-.841.884-1.481 1.686-1.259 2.035.541 4.166 1.196 6.314 1.685v5.981c-2.26.291-4.656.813-6.314 1.213zm9.684 3.184c-.189-.207-.55-.207-.739 0l-1.63 1.865v-12.08c1.468.089 2.534.092 4.003 0l.071 12.083-1.704-1.869zm10.63-4.441c.018.84-.883 1.483-1.686 1.258-1.658-.401-4.055-.922-6.314-1.213v-5.981c2.148-.489 4.28-1.145 6.314-1.685.804-.222 1.704.418 1.686 1.259v6.363z"/></svg>