<?xml version="1.0" encoding="UTF-8"?>
<svg xmlns="http://www.w3.org/2000/svg" id="Layer_1" data-name="Layer 1" viewBox="0 0 24 24">
  <path d="M17.5,11c-3.584,0-6.5,2.916-6.5,6.5s2.916,6.5,6.5,6.5,6.5-2.916,6.5-6.5-2.916-6.5-6.5-6.5Zm0,12c-3.032,0-5.5-2.468-5.5-5.5s2.468-5.5,5.5-5.5,5.5,2.468,5.5,5.5-2.468,5.5-5.5,5.5Zm3.5-5.5c0,.276-.224,.5-.5,.5h-2.5v2.5c0,.276-.224,.5-.5,.5s-.5-.224-.5-.5v-2.5h-2.5c-.276,0-.5-.224-.5-.5s.224-.5,.5-.5h2.5v-2.5c0-.276,.224-.5,.5-.5s.5,.224,.5,.5v2.5h2.5c.276,0,.5,.224,.5,.5Zm-12,.932v5.068c0,.276-.224,.5-.5,.5s-.5-.224-.5-.5v-5.068c0-.249-.185-.459-.43-.489-3.745-.463-6.57-3.662-6.57-7.442v-3.5H.5c-.276,0-.5-.224-.5-.5s.224-.5,.5-.5h3.5V.5c0-.276,.224-.5,.5-.5s.5,.224,.5,.5V6h7V.5c0-.276,.224-.5,.5-.5s.5,.224,.5,.5V6h3.5c.276,0,.5,.224,.5,.5s-.224,.5-.5,.5h-.5v2c0,.276-.224,.5-.5,.5s-.5-.224-.5-.5v-2H2v3.5c0,3.276,2.447,6.049,5.693,6.45,.745,.092,1.307,.729,1.307,1.481Z"/>
</svg>
