<?xml version="1.0" encoding="UTF-8"?>
<svg xmlns="http://www.w3.org/2000/svg" id="Layer_1" data-name="Layer 1" viewBox="0 0 24 24">
  <path d="M17.5,4h-4c-.276,0-.5,.224-.5,.5s.224,.5,.5,.5h4c3.033,0,5.5,2.468,5.5,5.5v1.5H10C5.051,12,.898,15.542,.116,20.473c-.547,1.644,.992,3.817,3.384,3.527H19.5c2.481,0,4.5-2.019,4.5-4.5V10.5c0-3.584-2.916-6.5-6.5-6.5Zm-7.5,9h13v6.5c0,.171-.027,.335-.051,.5H1.23c.921-4.088,4.516-7,8.77-7Zm9.5,10H3.5c-1.025,0-1.737-.227-2.115-.674-.335-.395-.362-.921-.328-1.326H22.649c-.564,1.178-1.758,2-3.149,2ZM3.143,8h.347l1.186,1.589c.388,.544,1.264,.544,1.652-.005l1.166-1.584h.364c1.603,0,2.976-1.183,3.127-2.692,.084-.848-.192-1.693-.76-2.32-.492-.544-1.167-.887-1.89-.969-.412-1.19-1.547-2.019-2.835-2.019S3.077,.828,2.665,2.019c-.722,.082-1.397,.425-1.89,.969C.208,3.614-.069,4.46,.015,5.308c.151,1.51,1.525,2.692,3.127,2.692ZM1.517,3.658c.405-.44,.98-.696,1.533-.653,.238,0,.443-.168,.49-.401,.187-.929,1.011-1.604,1.96-1.604s1.773,.675,1.96,1.604c.047,.233,.252,.401,.49,.401,.578-.027,1.145,.227,1.533,.653,.384,.425,.564,.975,.506,1.55-.101,1.005-1.037,1.792-2.132,1.792h-.617c-.159,0-.309,.075-.403,.204l-1.361,1.785-1.335-1.788c-.095-.127-.243-.201-.401-.201h-.598c-1.095,0-2.032-.787-2.132-1.792-.058-.575,.123-1.125,.506-1.55Z"/>
</svg>
