<svg id="Layer_1" viewBox="0 0 24 24" xmlns="http://www.w3.org/2000/svg" data-name="Layer 1"><path d="m.5 18c.128 0 .256-.049.354-.146l11.434-11.437c1.846 2.029 3.287 4.6 3.794 6.827.099.44.495.757.945.757.53.012.996-.464.973-.994-.084-3.846-1.16-6.906-3.174-9.128l.527-.523c.195-.194.196-.511.002-.707-.194-.195-.511-.197-.707-.002l-.528.525c-2.218-2.014-5.277-3.088-9.126-3.172-.548-.012-1.006.437-.994.997 0 .457.312.847.757.947 2.239.507 4.812 1.94 6.823 3.766l-11.434 11.436c-.195.195-.195.512 0 .707.098.098.226.146.354.146zm13.281-13.793c2.013 2.017 3.094 4.91 3.22 8.583-.628-2.509-2.234-5.273-4.343-7.452-2.226-2.152-5.097-3.785-7.685-4.338 3.795.083 6.759 1.162 8.809 3.207zm10.219-3.707v12.171c0 .668-.26 1.296-.732 1.768l-1.828 1.828c-.283.284-.439.66-.439 1.061v1.171c0 1.378-1.121 2.5-2.5 2.5h-1.172c-.395 0-.781.16-1.061.439l-1.828 1.828c-.473.472-1.1.732-1.768.732h-12.172c-.276 0-.5-.224-.5-.5s.224-.5.5-.5h12.172c.395 0 .781-.16 1.061-.439l1.828-1.828c.473-.472 1.1-.732 1.768-.732h1.172c.827 0 1.5-.673 1.5-1.5v-1.171c0-.668.26-1.296.732-1.768l1.828-1.828c.283-.284.439-.66.439-1.061v-12.171c0-.276.224-.5.5-.5s.5.224.5.5zm-12.444 11.647-1.713.758c-.512.226-.843.734-.843 1.293v1.429c0 .537.312 1.035.793 1.271l1.424.696c.58.285 1.288.141 1.708-.365l1.247-1.497c.405-.486.437-1.188.077-1.709l-.957-1.387c-.385-.559-1.116-.765-1.736-.49zm1.849 2.945-1.247 1.497c-.123.146-.329.191-.501.106l-1.424-.696c-.142-.069-.232-.215-.232-.373v-1.429c0-.164.097-.312.247-.379l1.713-.758c.179-.079.396-.021.509.144l.958 1.387c.105.152.096.358-.022.5zm-5.707 3.589c.184.081.303.264.303.465v.794c0 .194-.111.371-.285.456l-.791.387c-.21.103-.464.049-.614-.131l-.693-.831c-.146-.175-.157-.426-.028-.614l.532-.771c.139-.201.4-.275.624-.176z"/></svg>