<?xml version="1.0" encoding="UTF-8"?>
<svg xmlns="http://www.w3.org/2000/svg" id="Layer_1" data-name="Layer 1" viewBox="0 0 24 24">
  <path d="M23.606,18.218c-.869-1.202-2.817-3.218-6.106-3.218s-5.237,2.016-6.106,3.218c-.554,.767-.554,1.797,0,2.563,.87,1.202,2.82,3.218,6.106,3.218s5.237-2.016,6.106-3.218c.555-.767,.555-1.797,0-2.563Zm-.811,1.978c-.925,1.279-2.595,2.804-5.296,2.804s-4.37-1.525-5.296-2.804c-.301-.416-.301-.975,0-1.392,.926-1.279,2.596-2.804,5.296-2.804s4.371,1.525,5.296,2.804c.302,.416,.302,.976,0,1.392Zm-5.296-2.696c-1.103,0-2,.897-2,2s.897,2,2,2,2-.897,2-2-.897-2-2-2Zm0,3c-.552,0-1-.449-1-1s.448-1,1-1,1,.449,1,1-.448,1-1,1Zm-9-1.5H4.5c-1.93,0-3.5-1.57-3.5-3.5v-5.5H23v4.5c0,.276,.224,.5,.5,.5s.5-.224,.5-.5V6.5c0-2.481-2.019-4.5-4.5-4.5H4.5C2.019,2,0,4.019,0,6.5V15.5c0,2.481,2.019,4.5,4.5,4.5h4c.276,0,.5-.224,.5-.5s-.224-.5-.5-.5ZM1,9v-2H23v2H1ZM4.5,3h15c1.758,0,3.204,1.308,3.449,3H1.051c.245-1.692,1.691-3,3.449-3Zm-1.5,12c0,1.103,.897,2,2,2s2-.897,2-2-.897-2-2-2-2,.897-2,2Zm3,0c0,.551-.449,1-1,1s-1-.449-1-1,.449-1,1-1,1,.449,1,1Z"/>
</svg>
