<?xml version="1.0" encoding="UTF-8"?>
<svg xmlns="http://www.w3.org/2000/svg" id="Layer_1" data-name="Layer 1" viewBox="0 0 24 24">
  <path d="M24,23.5c0,.276-.224,.5-.5,.5H.5c-.276,0-.5-.224-.5-.5s.224-.5,.5-.5H23.5c.276,0,.5,.224,.5,.5Zm-.877-8.328c-.042,.048-4.295,4.827-11.121,4.828-6.825,0-11.083-4.78-11.125-4.829-.183-.207-.499-.229-.706-.048-.208,.182-.229,.497-.048,.705,.184,.211,4.584,5.17,11.876,5.172h0s.002,0,.004,0h0c7.292-.002,11.688-4.961,11.872-5.172,.181-.208,.159-.523-.049-.705-.206-.18-.522-.159-.705,.049Zm-14.767-2.614c-.195-.195-.512-.195-.707,0s-.195,.512,0,.707l3.301,3.301c.58,.58,1.525,.58,2.105,0l3.301-3.301c.195-.195,.195-.512,0-.707s-.512-.195-.707,0l-3.147,3.147-.002-8.204c0-.276-.224-.5-.5-.5s-.5,.224-.5,.5l.002,8.204-3.146-3.146ZM15.854,4.442l3.146-3.146V9.5c0,.276,.224,.5,.5,.5s.5-.224,.5-.5V1.296l3.146,3.146c.195,.195,.512,.195,.707,0s.195-.512,0-.707L20.553,.435c-.58-.581-1.525-.58-2.105,0l-3.301,3.3c-.195,.195-.195,.512,0,.707s.512,.195,.707,0ZM.854,4.442L4,1.296V9.5c0,.276,.224,.5,.5,.5s.5-.224,.5-.5V1.296l3.146,3.146c.195,.195,.512,.195,.707,0s.195-.512,0-.707L5.553,.435C4.973-.146,4.027-.145,3.447,.435L.146,3.735c-.195,.195-.195,.512,0,.707s.512,.195,.707,0Z"/>
</svg>
