<svg id="Layer_1" viewBox="0 0 24 24" xmlns="http://www.w3.org/2000/svg" data-name="Layer 1"><path d="m24 4.504v1.5c0 .276-.224.5-.5.5-1.057 0-2.003.668-2.356 1.663-.093.26-.381.396-.638.305-.26-.093-.396-.379-.304-.639.438-1.234 1.528-2.109 2.799-2.293v-1.036c0-1.93-1.57-3.504-3.5-3.504h-15.001c-1.93 0-3.5 1.57-3.5 3.5v1.037c1.752.236 3.082 1.718 3.082 3.504 0 1.797-1.345 3.286-3.082 3.512v.947c0 1.93 1.57 3.5 3.5 3.5h3c.276 0 .5.225.5.501s-.224.499-.5.499h-3c-2.481 0-4.5-2.019-4.5-4.5v-1.423c0-.139.058-.271.159-.366.101-.094.237-.146.376-.133h.007c1.403 0 2.539-1.138 2.539-2.537s-1.14-2.541-2.541-2.541c-.276 0-.541-.22-.541-.496v-1.504c.001-2.481 2.02-4.5 4.501-4.5l15 .004c2.481 0 4.5 2.019 4.5 4.5zm-2.124 7.484c1.308 1.273 2.124 3.048 2.124 5.012-.002 3.86-3.149 6.995-7 7-3.851-.005-6.998-3.14-7-7 .002-3.86 3.149-6.995 7-7 1.897-.002 3.611.765 4.876 1.988zm-8.655.357c1.037 1.159 1.646 2.602 1.754 4.155h4.05c.108-1.552.718-2.996 1.754-4.155-1.033-.84-2.347-1.345-3.779-1.345s-2.747.505-3.779 1.345zm-2.196 4.155h2.95c-.105-1.29-.615-2.489-1.472-3.459-.829.94-1.368 2.138-1.478 3.459zm1.479 4.459c.856-.97 1.366-2.169 1.472-3.459h-2.95c.11 1.321.649 2.519 1.478 3.459zm8.275.696c-1.037-1.159-1.646-2.602-1.754-4.155h-4.05c-.108 1.552-.718 2.996-1.754 4.155 1.033.84 2.347 1.345 3.779 1.345s2.747-.505 3.779-1.345zm2.196-4.155h-2.95c.105 1.29.615 2.489 1.472 3.459.829-.94 1.368-2.138 1.478-3.459zm0-1c-.11-1.321-.649-2.519-1.478-3.459-.856.97-1.366 2.169-1.472 3.459z"/></svg>