<svg id="Layer_1" viewBox="0 0 24 24" xmlns="http://www.w3.org/2000/svg" data-name="Layer 1"><path d="m23.5 0c-.276 0-.5.224-.5.5v1.5h-3v-1.5c0-.276-.224-.5-.5-.5s-.5.224-.5.5v3c0 1.207.86 2.217 2 2.449v9.551c0 1.93-1.57 3.5-3.5 3.5h-.851c.219-.456.351-.961.351-1.5 0-1.385-.236-2.748-.702-4.051l-.879-2.462c-.638-1.786-2.341-2.986-4.238-2.986h-5.362c-1.896 0-3.6 1.2-4.238 2.987l-.879 2.461c-.466 1.304-.702 2.667-.702 4.052s.822 2.585 2 3.149v1.351c0 1.103.897 2 2 2s2-.897 2-2v-1h5v1c0 1.103.897 2 2 2s2-.897 2-2v-1.351c.348-.167.669-.382.942-.649h1.558c2.481 0 4.5-2.019 4.5-4.5v-9.552c1.14-.232 2-1.242 2-2.449v-3c0-.276-.224-.5-.5-.5zm-21.856 13.785.879-2.461c.497-1.39 1.821-2.323 3.296-2.323h5.362c1.475 0 2.8.934 3.296 2.323l.879 2.462c.142.399.253.805.348 1.215h-14.408c.095-.41.206-.816.348-1.215zm3.356 8.215c0 .551-.449 1-1 1s-1-.449-1-1v-1.051c.165.024.329.051.5.051h1.5zm9 0c0 .551-.449 1-1 1s-1-.449-1-1v-1h1.5c.171 0 .335-.027.5-.051zm-.5-2h-10c-1.378 0-2.5-1.122-2.5-2.5 0-.504.044-1.004.112-1.5h2.888v1.5c0 .276.224.5.5.5s.5-.224.5-.5v-1.5h7v1.5c0 .276.224.5.5.5s.5-.224.5-.5v-1.5h2.888c.068.496.112.996.112 1.5 0 1.378-1.122 2.5-2.5 2.5zm8-15c-.827 0-1.5-.673-1.5-1.5v-.5h3v.5c0 .827-.673 1.5-1.5 1.5z"/></svg>