<svg id="Layer_1" viewBox="0 0 24 24" xmlns="http://www.w3.org/2000/svg" data-name="Layer 1"><path d="m23.854 23.146-6.448-6.448c.535-.591 1.014-1.24 1.403-1.961.131-.243.041-.546-.203-.677-.244-.132-.546-.041-.677.203-1.575 2.922-4.613 4.737-7.929 4.737-2.298 0-4.392-.874-5.984-2.297l6.344-6.344c.094-.094.146-.221.146-.354v-8.974c1.314.074 2.604.419 3.757 1.04.244.132.546.04.677-.203s.041-.546-.203-.677c-1.443-.778-3.078-1.189-4.729-1.191 0 0-.002 0-.003 0 0 0 0 0-.001 0-.002 0-.003 0-.004 0-5.514 0-10 4.486-10 10s4.486 10 10 10c2.522 0 4.884-.962 6.694-2.599l6.452 6.452c.195.195.512.195.707 0s.195-.512 0-.707zm-14.348-22.121v8.774l-6.198 6.198c-1.43-1.594-2.308-3.692-2.308-5.997 0-4.796 3.774-8.716 8.506-8.975zm11.494 2.975c1.103 0 2-.897 2-2s-.897-2-2-2-2 .897-2 2 .897 2 2 2zm0-3c.551 0 1 .449 1 1s-.449 1-1 1-1-.449-1-1 .449-1 1-1zm-7 5c0 1.103.897 2 2 2s2-.897 2-2-.897-2-2-2-2 .897-2 2zm2-1c.551 0 1 .449 1 1s-.449 1-1 1-1-.449-1-1 .449-1 1-1zm0 4c1.444 0 2.702 1.009 2.99 2.398.056.271-.118.535-.388.591-.264.056-.536-.116-.591-.388-.192-.928-1.038-1.602-2.01-1.602s-1.818.673-2.01 1.602c-.056.27-.322.442-.591.388-.27-.056-.444-.321-.388-.591.288-1.39 1.545-2.398 2.99-2.398zm5-4c1.444 0 2.702 1.009 2.99 2.398.056.271-.118.535-.388.591-.264.056-.536-.116-.591-.388-.192-.928-1.037-1.602-2.01-1.602-.139 0-.274.014-.405.039-.271.053-.534-.125-.585-.396-.053-.271.125-.533.396-.585.192-.038.391-.057.595-.057z"/></svg>