<svg id="Layer_1" viewBox="0 0 24 24" xmlns="http://www.w3.org/2000/svg" data-name="Layer 1"><path d="m20 6c-1.507 0-4 4.207-4 9 0 4.763 2.237 9 4 9s4-4.237 4-9c0-4.793-2.493-9-4-9zm-3 9c0-3.506 1.368-6.236 2.295-7.395-.345 1.437-.962 4.433-.962 7.455 0 3.15.671 6.214 1.004 7.544-.996-1.02-2.337-3.916-2.337-7.604zm2.333.061c0-2.206.353-4.441.667-5.996.314 1.554.667 3.79.667 5.996s-.353 4.41-.667 5.936c-.314-1.526-.667-3.73-.667-5.936zm1.33 7.544c.333-1.33 1.004-4.394 1.004-7.544 0-3.022-.617-6.018-.962-7.455.927 1.159 2.295 3.889 2.295 7.395 0 3.688-1.341 6.585-2.337 7.604zm-17.127-11.813c1.967 0 4.494-.547 6.859-1.755 4.454-2.273 7.191-6.565 6.483-7.953-.549-1.078-3.045-1.099-3.792-1.08-1.255.032-3.761.29-6.452 1.664-4.425 2.258-7.312 6.328-6.484 7.953.386.756 1.673 1.171 3.386 1.171zm6.404-2.646c-3.377 1.723-6.657 1.884-8.128 1.474 1.491-.338 4.426-1.135 7.518-2.713 2.898-1.479 5.159-3.249 6.377-4.296-.688 1.433-2.564 3.9-5.767 5.535zm-7.428.269c1.254-1.029 3.248-2.506 5.676-3.745 2.426-1.239 4.792-1.987 6.361-2.398-1.254 1.029-3.248 2.506-5.674 3.744-2.427 1.239-4.793 1.987-6.362 2.398zm4.577-5.857c2.329-1.188 4.603-1.551 6.271-1.551.627 0 1.167.051 1.594.129-1.562.371-4.323 1.164-7.221 2.644-3.092 1.577-5.459 3.486-6.607 4.496.531-1.432 2.585-3.994 5.963-5.718zm5.88 8.455c-1.954-.15-5.516.977-8.297 3.372-3.66 3.151-5.461 7.672-4.313 9.025.282.333.749.527 1.39.577.106.008.219.012.335.012 1.929 0 5.105-1.147 7.807-3.473 3.684-3.171 5.294-7.867 4.313-9.024-.236-.278-.652-.443-1.235-.489zm-7.645 4.13c2.586-2.226 5.444-3.014 6.995-3.125-1.397.717-3.78 2.087-6.138 4.118-2.52 2.169-4.304 4.483-5.172 5.715.204-1.489 1.561-4.337 4.315-6.707zm6.889-1.933c-.951 1.259-2.479 3.083-4.456 4.785-1.973 1.698-3.997 2.933-5.379 3.683.951-1.258 2.479-3.083 4.455-4.784 1.973-1.698 3.998-2.933 5.38-3.684zm-2.975 6.559c-2.531 2.179-5.542 3.27-7.222 3.231 1.347-.674 3.883-2.086 6.393-4.247 2.348-2.021 4.058-4.168 4.982-5.448-.354 1.531-1.572 4.243-4.153 6.464z"/></svg>