<?xml version="1.0" encoding="UTF-8"?>
<svg xmlns="http://www.w3.org/2000/svg" id="Layer_1" data-name="Layer 1" viewBox="0 0 24 24">
  <path d="M18.482,9.239h0c.216-.509,.802-.746,1.311-.531h0c.509,.216,.746,.803,.531,1.311h0c-.216,.509-.802,.746-1.311,.531h0c-.509-.216-.746-.803-.531-1.311Zm-14.206-.557h0c-.508,.216-.746,.802-.53,1.311h0c.216,.509,.802,.746,1.311,.531h0c.509-.216,.746-.803,.531-1.311h0c-.216-.509-.803-.746-1.311-.531Zm6.719-.673c0,.552,.448,1,1,1s1-.448,1-1-.448-1-1-1-1,.448-1,1Zm-1-4.982c.276,0,.5-.224,.5-.5,0-.471,.224-.925,.6-1.214,.376-.29,.843-.382,1.314-.26,.519,.136,.941,.585,1.052,1.118,.141,.674-.168,1.34-.768,1.656-.558,.294-1.198,.75-1.198,1.673,0,.276,.224,.5,.5,.5s.5-.224,.5-.5c0-.285,.106-.495,.664-.789,.999-.526,1.513-1.628,1.281-2.745-.189-.909-.887-1.647-1.777-1.881-.767-.198-1.56-.042-2.179,.435-.619,.478-.989,1.228-.989,2.006,0,.276,.224,.5,.5,.5Zm-6.278,.612c.389,.568,.361,1.301-.071,1.824-.401,.486-.816,1.153-.46,2.005,.106,.257,.406,.375,.654,.269,.255-.106,.375-.399,.269-.654-.11-.263-.093-.498,.309-.984,.718-.871,.768-2.086,.124-3.025-.524-.767-1.453-1.181-2.365-1.052-.784,.11-1.456,.562-1.843,1.241C-.053,3.943-.105,4.777,.195,5.496c.107,.256,.401,.375,.654,.269,.254-.106,.375-.399,.269-.654-.181-.434-.149-.939,.085-1.352,.235-.413,.631-.678,1.113-.746,.531-.076,1.093,.178,1.401,.626Zm19.313-1.124c-.631-.477-1.427-.631-2.18-.426-.754,.207-1.382,.76-1.677,1.48-.105,.255,.017,.547,.272,.652,.255,.106,.547-.017,.652-.272,.179-.436,.559-.771,1.017-.896,.458-.125,.925-.034,1.313,.26,.428,.322,.648,.898,.548,1.433-.126,.677-.665,1.176-1.339,1.24-.627,.06-1.393,.237-1.744,1.092-.105,.255,.017,.547,.272,.652,.249,.104,.548-.014,.652-.272,.108-.263,.286-.417,.914-.477,1.123-.107,2.018-.932,2.228-2.052,.17-.913-.194-1.861-.929-2.415Zm-2.064,15.242c-.244,1.849-1.901,3.242-3.855,3.242h-6.122l.011,2.498c0,.276-.222,.501-.498,.502h-.002c-.275,0-.499-.223-.5-.498l-.008-1.86c-.055,.062-.105,.127-.164,.186-.756,.756-1.76,1.172-2.829,1.172-1.681,0-3.18-1.013-3.731-2.519-.653-1.786-.073-3.697,1.445-4.756,.194-.147,.286-.038,.286-.468,.004-1.136,.574-2.185,1.486-2.739,.578-.351,1.203-.511,1.799-.519h.007c.155,0,.285-.059,.348-.157,.74-1.154,1.996-1.843,3.36-1.843,1.084,0,2.099,.428,2.858,1.206,.131,.134,.349,.294,.642,.294,1.274,0,2.41,.811,2.828,2.018,.034,.098,.109,.179,.195,.21,1.672,.603,2.677,2.26,2.443,4.03Zm-2.783-3.09c-.369-.134-.667-.441-.8-.823-.278-.805-1.035-1.345-1.883-1.345-.674,0-1.14-.373-1.357-.595-.57-.583-1.331-.905-2.143-.905-1.022,0-1.963,.517-2.519,1.383-.251,.392-.705,.621-1.208,.617h-.023c-.418,0-.837,.125-1.245,.373-.617,.375-1.002,1.099-1.005,1.889-.003,.808-.34,1.091-.67,1.261-1.202,.831-1.625,2.24-1.122,3.615,.407,1.114,1.529,1.862,2.792,1.862,.801,0,1.555-.312,2.122-.879,.566-.566,.878-1.319,.878-2.121s-.312-1.555-.878-2.121c-.195-.195-.195-.512,0-.707s.512-.195,.707,0c.755,.755,1.171,1.76,1.171,2.828,0,.342-.042,.678-.125,1h6.236c1.454,0,2.685-1.021,2.864-2.373,.171-1.3-.565-2.517-1.792-2.959Zm-2.683,2.332c-.827,0-1.5-.673-1.5-1.5,0-.276-.224-.5-.5-.5s-.5,.224-.5,.5c0,1.379,1.122,2.5,2.5,2.5,.276,0,.5-.224,.5-.5s-.224-.5-.5-.5Z"/>
</svg>
