<svg id="Layer_1" viewBox="0 0 24 24" xmlns="http://www.w3.org/2000/svg" data-name="Layer 1"><path d="m24 11.5v6c0 2.481-2.019 4.5-4.5 4.5h-15c-2.481 0-4.5-2.019-4.5-4.5v-9c0-2.481 2.019-4.5 4.5-4.5h9c.276 0 .5.224.5.5s-.224.5-.5.5h-9c-1.758 0-3.204 1.308-3.449 3h12.949c.276 0 .5.224.5.5s-.224.5-.5.5h-13v2h16.5c.276 0 .5.224.5.5s-.224.5-.5.5h-16.5v5.5c0 1.93 1.57 3.5 3.5 3.5h15c1.93 0 3.5-1.57 3.5-3.5v-6c0-.276.224-.5.5-.5s.5.224.5.5zm-19 3.5c1.103 0 2 .897 2 2s-.897 2-2 2-2-.897-2-2 .897-2 2-2zm0 1c-.551 0-1 .449-1 1s.449 1 1 1 1-.449 1-1-.449-1-1-1zm11-10c0-2.206 1.794-4 4-4s4 1.794 4 4-1.794 4-4 4-4-1.794-4-4zm1 0c0 1.654 1.346 3 3 3s3-1.346 3-3-1.346-3-3-3-3 1.346-3 3z"/></svg>