<?xml version="1.0" encoding="UTF-8"?>
<svg xmlns="http://www.w3.org/2000/svg" id="Layer_1" data-name="Layer 1" viewBox="0 0 24 24">
  <path d="M21.5,0h-2c-1.378,0-2.5,1.122-2.5,2.5v.5h-3.5c-.276,0-.5,.224-.5,.5s.224,.5,.5,.5h3.5v.5c0,1.378,1.122,2.5,2.5,2.5h.5v3.5c0,.276,.224,.5,.5,.5s.5-.224,.5-.5v-3.5h.5c1.378,0,2.5-1.122,2.5-2.5V2.5c0-1.378-1.122-2.5-2.5-2.5Zm1.5,4.5c0,.827-.673,1.5-1.5,1.5h-2c-.827,0-1.5-.673-1.5-1.5V2.5c0-.827,.673-1.5,1.5-1.5h2c.827,0,1.5,.673,1.5,1.5v2Zm-12.5-1.5h-3.5v-.5c0-1.378-1.122-2.5-2.5-2.5H2.5C1.122,0,0,1.122,0,2.5v2c0,1.378,1.122,2.5,2.5,2.5h.5v3.5c0,.276,.224,.5,.5,.5s.5-.224,.5-.5v-3.5h.5c1.378,0,2.5-1.122,2.5-2.5v-.5h3.5c.276,0,.5-.224,.5-.5s-.224-.5-.5-.5Zm-4.5,1.5c0,.827-.673,1.5-1.5,1.5H2.5c-.827,0-1.5-.673-1.5-1.5V2.5c0-.827,.673-1.5,1.5-1.5h2c.827,0,1.5,.673,1.5,1.5v2Zm15.5,12.5h-.5v-3.5c0-.276-.224-.5-.5-.5s-.5,.224-.5,.5v3.5h-.5c-1.378,0-2.5,1.122-2.5,2.5v.5h-3.5c-.276,0-.5,.224-.5,.5s.224,.5,.5,.5h3.5v.5c0,1.378,1.122,2.5,2.5,2.5h2c1.378,0,2.5-1.122,2.5-2.5v-2c0-1.378-1.122-2.5-2.5-2.5Zm1.5,4.5c0,.827-.673,1.5-1.5,1.5h-2c-.827,0-1.5-.673-1.5-1.5v-2c0-.827,.673-1.5,1.5-1.5h2c.827,0,1.5,.673,1.5,1.5v2Zm-12.5-1.5h-3.5v-.5c0-1.378-1.122-2.5-2.5-2.5h-.5v-3.5c0-.276-.224-.5-.5-.5s-.5,.224-.5,.5v3.5h-.5c-1.378,0-2.5,1.122-2.5,2.5v2c0,1.378,1.122,2.5,2.5,2.5h2c1.378,0,2.5-1.122,2.5-2.5v-.5h3.5c.276,0,.5-.224,.5-.5s-.224-.5-.5-.5Zm-4.5,1.5c0,.827-.673,1.5-1.5,1.5H2.5c-.827,0-1.5-.673-1.5-1.5v-2c0-.827,.673-1.5,1.5-1.5h2c.827,0,1.5,.673,1.5,1.5v2Z"/>
</svg>
