<?xml version="1.0" encoding="UTF-8"?>
<svg xmlns="http://www.w3.org/2000/svg" id="Layer_1" data-name="Layer 1" viewBox="0 0 24 24">
  <path d="m24,2.608c0-.685-.267-1.329-.751-1.813-.969-.969-2.658-.968-3.626,0l-11.471,11.47c-.515-.158-1.047-.265-1.601-.265-1.455,0-2.823.567-3.853,1.596C1.207,15.087.292,19.551.017,21.703c-.081.632.13,1.252.58,1.701.386.386.898.596,1.437.596.088,0,.176-.005.265-.017,2.152-.275,6.615-1.19,8.106-2.682,1.029-1.029,1.596-2.397,1.596-3.853,0-.53-.1-1.04-.245-1.534l11.494-11.494c.484-.484.751-1.128.751-1.813Zm-14.303,17.987c-1.068,1.068-4.675,2.032-7.526,2.396-.323.041-.639-.066-.867-.294-.229-.229-.336-.544-.294-.867.364-2.852,1.328-6.458,2.396-7.526.84-.84,1.958-1.303,3.146-1.303s2.306.463,3.146,1.303,1.303,1.958,1.303,3.146-.463,2.305-1.303,3.146ZM22.542,3.714l-11.196,11.196c-.252-.474-.552-.924-.942-1.314-.374-.374-.805-.664-1.257-.911L20.33,1.502c.59-.591,1.62-.592,2.212,0,.295.295.458.688.458,1.106s-.163.811-.458,1.106Z"/>
</svg>
