<svg id="Layer_1" viewBox="0 0 24 24" xmlns="http://www.w3.org/2000/svg" data-name="Layer 1"><path d="m22.867 3.33c-1.213-1.865-3.152-3.065-5.319-3.291-2.165-.225-4.292.527-5.831 2.068-.174.175-.337.358-.492.547l-2.336-.539c-1.521-.354-3.089.099-4.194 1.203l-1.376 1.376c-1.104 1.104-1.554 2.673-1.203 4.194 0 0 .543 2.326.547 2.34-.602.492-1.13 1.085-1.566 1.768-1.467 2.3-1.452 5.384.036 7.673 1.347 2.083 3.636 3.338 6.076 3.332 1.899 0 3.715-.748 5.075-2.108.182-.183.351-.375.511-.573.778.181 2.593.715 3.341.682 1.177 0 2.313-.463 3.17-1.32l1.376-1.376c1.104-1.104 1.554-2.672 1.203-4.194l-.538-2.332s-.004-.007-.005-.012c.6-.492 1.127-1.083 1.562-1.765 1.467-2.299 1.453-5.383-.037-7.673zm-19.777 5.334c-.273-1.184.077-2.403.936-3.263l1.376-1.376c.86-.859 2.079-1.208 3.262-.936l1.952.451c-.168.285-.323.577-.451.885-.842 2.027-3.341 4.861-5.424 5.618-.422.153-.819.353-1.199.578l-.452-1.958zm17.82 6.672c.273 1.185-.077 2.403-.936 3.263l-1.376 1.376c-.859.859-2.08 1.21-3.262.936l-1.953-.45c.168-.285.323-.577.451-.886.842-2.027 3.341-4.861 5.424-5.618.422-.153.819-.353 1.199-.579l.452 1.958zm1.151-4.87c-.765 1.2-1.852 2.082-3.143 2.551-2.425.881-5.063 3.903-6.007 6.175-.31.746-.759 1.417-1.335 1.994-1.325 1.327-3.157 1.975-5.02 1.781-1.866-.195-3.537-1.231-4.585-2.843-1.279-1.967-1.292-4.615-.032-6.591.765-1.199 1.852-2.081 3.143-2.55 2.425-.881 5.064-3.903 6.007-6.175.31-.746.759-1.417 1.335-1.994 1.322-1.329 3.174-1.978 5.019-1.781 1.866.195 3.538 1.23 4.585 2.842 1.279 1.967 1.292 4.616.032 6.591z"/></svg>