<?xml version="1.0" encoding="UTF-8"?>
<svg xmlns="http://www.w3.org/2000/svg" id="Layer_1" data-name="Layer 1" viewBox="0 0 24 24">
  <path d="M22.19,17.105l-4.106-1.173c-.638-.182-1.084-.773-1.084-1.438,0-.824,.671-1.495,1.495-1.495h3.01c.824,0,1.495,.671,1.495,1.495,0,.276,.224,.5,.5,.5s.5-.224,.5-.5c0-1.376-1.119-2.495-2.495-2.495h-1.005v-2h1.468c.612,0,1.186-.272,1.574-.748,.387-.474,.539-1.088,.417-1.686C23.187,3.768,20.232,.813,16.433,.041c-.6-.125-1.213,.03-1.686,.417-.475,.388-.748,.962-.748,1.574v6.451c0,.836,.681,1.517,1.517,1.517h3.983v2h-1.005c-1.376,0-2.495,1.119-2.495,2.495,0,1.108,.744,2.095,1.81,2.399l4.106,1.173c.638,.182,1.084,.773,1.084,1.438,0,.824-.671,1.495-1.495,1.495h-3.01c-.824,0-1.495-.671-1.495-1.495,0-.276-.224-.5-.5-.5s-.5,.224-.5,.5c0,1.376,1.119,2.495,2.495,2.495h1.005v1.5c0,.276,.224,.5,.5,.5s.5-.224,.5-.5v-1.5h1.005c1.376,0,2.495-1.119,2.495-2.495,0-1.108-.744-2.095-1.81-2.399Zm-6.673-8.105c-.285,0-.517-.232-.517-.517V2.032c0-.311,.139-.602,.38-.799,.186-.152,.415-.233,.649-.233,.068,0,.136,.007,.204,.021,3.405,.693,6.053,3.341,6.746,6.746,.061,.302-.016,.613-.212,.854-.198,.242-.489,.38-.799,.38h-6.451Zm-.546,13.736c.092,.26-.044,.546-.305,.638-1.176,.416-2.407,.626-3.662,.626-.1,0-.199-.001-.299-.004C5.177,23.852,.492,19.431,.038,13.932-.425,8.307,3.387,3.263,8.905,2.2c.242-.048,1.498-.245,2.366,.472,.504,.416,.759,1.031,.759,1.829,0,1.491-.017,5.205-.026,7,0,.133,.051,.259,.145,.354s.22,.147,.355,.147h.995c.276,0,.5,.224,.5,.5s-.224,.5-.5,.5h-.995c-.402,0-.78-.157-1.064-.441-.283-.285-.438-.662-.436-1.064,.009-1.794,.026-5.504,.026-6.995,0-.492-.129-.837-.396-1.058-.434-.357-1.171-.331-1.54-.261C4.078,4.148,.613,8.735,1.035,13.85c.412,4.998,4.671,9.016,9.697,9.146,1.233,.034,2.447-.158,3.602-.565,.261-.092,.546,.044,.638,.305Z"/>
</svg>
