<?xml version="1.0" encoding="UTF-8"?>
<svg xmlns="http://www.w3.org/2000/svg" id="Layer_1" data-name="Layer 1" viewBox="0 0 24 24">
  <path d="M11,4h-1.5c-.276,0-.5,.224-.5,.5v6c0,.276,.224,.5,.5,.5s.5-.224,.5-.5v-2.5h1c1.103,0,2-.897,2-2s-.897-2-2-2Zm0,3h-1v-2h1c.551,0,1,.449,1,1s-.449,1-1,1Zm4.981,4c-.772,0-1.71-.484-2.171-.951-.193-.197-.191-.514,.006-.708,.195-.193,.514-.192,.707,.006,.336,.341,1.031,.653,1.458,.653,.542,0,.996-.373,1.08-.887,.029-.183,.06-.805-.793-1.149-.095-.035-1.04-.394-1.467-.659-.594-.419-.874-1.05-.787-1.713,.092-.699,.559-1.268,1.219-1.485,.798-.262,1.609-.043,2.414,.654,.209,.181,.231,.497,.051,.705-.181,.209-.497,.232-.705,.051-.535-.463-.996-.608-1.447-.46-.291,.096-.498,.352-.539,.666-.039,.298,.08,.563,.336,.745,.277,.169,1.025,.466,1.289,.565,1.236,.5,1.533,1.519,1.416,2.241-.162,1-1.031,1.727-2.066,1.727ZM5,5v2h2c.276,0,.5,.224,.5,.5s-.224,.5-.5,.5h-2v2h2c.276,0,.5,.224,.5,.5s-.224,.5-.5,.5h-2c-.551,0-1-.449-1-1V5c0-.551,.449-1,1-1h2c.276,0,.5,.224,.5,.5s-.224,.5-.5,.5h-2ZM19.5,0H4.5C2.019,0,0,2.019,0,4.5v15c0,2.481,2.019,4.5,4.5,4.5H14.015c1.735,0,3.368-.676,4.597-1.904l3.484-3.485c1.228-1.227,1.904-2.859,1.904-4.596V4.5c0-2.481-2.019-4.5-4.5-4.5ZM4.5,23c-1.93,0-3.5-1.57-3.5-3.5V4.5c0-1.93,1.57-3.5,3.5-3.5h15c1.93,0,3.5,1.57,3.5,3.5V14.015c0,.335-.038,.663-.096,.985h-5.404c-1.379,0-2.5,1.122-2.5,2.5v5.404c-.323,.058-.651,.096-.985,.096H4.5Zm16.889-5.096l-3.484,3.485c-.551,.55-1.2,.959-1.904,1.231v-5.12c0-.827,.673-1.5,1.5-1.5h5.121c-.273,.704-.682,1.354-1.232,1.904Z"/>
</svg>
