<?xml version="1.0" encoding="UTF-8"?>
<svg xmlns="http://www.w3.org/2000/svg" id="Layer_1" data-name="Layer 1" viewBox="0 0 24 24">
  <path d="m24,16.5c0,.276-.224.5-.5.5h-13.337l-3.212,6.716c-.086.18-.265.284-.451.284-.072,0-.146-.016-.216-.049-.249-.119-.354-.418-.235-.667l3.005-6.284H.5c-.276,0-.5-.224-.5-.5s.224-.5.5-.5h9.033l3.826-8H.5c-.276,0-.5-.224-.5-.5s.224-.5.5-.5h13.337L17.049.284c.119-.249.418-.354.667-.235.249.119.354.418.235.667l-3.005,6.284h8.554c.276,0,.5.224.5.5s-.224.5-.5.5h-9.033l-3.826,8h12.859c.276,0,.5.224.5.5Z"/>
</svg>
