<?xml version="1.0" encoding="UTF-8"?>
<svg xmlns="http://www.w3.org/2000/svg" id="Layer_1" data-name="Layer 1" viewBox="0 0 24 24">
  <path d="M7.5,4h-3.5C1.794,4,0,5.794,0,8v3.5c0,1.378,1.122,2.5,2.5,2.5h6.453c-.359,3.728-2.763,6-6.453,6-.276,0-.5,.224-.5,.5s.224,.5,.5,.5c4.356,0,7.239-2.871,7.483-7.371,.011-.042,.017-7.129,.017-7.129,0-1.378-1.122-2.5-2.5-2.5Zm1.5,9H2.5c-.827,0-1.5-.673-1.5-1.5v-3.5c0-1.654,1.346-3,3-3h3.5c.827,0,1.5,.673,1.5,1.5v6.5Zm15-6.5c0-1.378-1.121-2.5-2.5-2.5h-3.5c-2.206,0-4,1.794-4,4v3.5c0,1.378,1.121,2.5,2.5,2.5h6.453c-.359,3.728-2.763,6-6.453,6-.276,0-.5,.224-.5,.5s.224,.5,.5,.5c4.356,0,7.239-2.871,7.483-7.371,.011-.042,.017-7.129,.017-7.129Zm-1,6.5h-6.5c-.827,0-1.5-.673-1.5-1.5v-3.5c0-1.654,1.346-3,3-3h3.5c.827,0,1.5,.673,1.5,1.5v6.5Z"/>
</svg>
