<?xml version="1.0" encoding="UTF-8"?>
<svg xmlns="http://www.w3.org/2000/svg" id="Layer_1" data-name="Layer 1" viewBox="0 0 24 24">
  <path d="M23,4c0-1.103-.897-2-2-2v-.5c0-.276-.224-.5-.5-.5s-.5,.224-.5,.5v.5H3c-.389,0-.886,.146-1.047,.875-.136,.528-.549,.941-1.111,1.085-.695,.154-.841,.65-.841,1.04v1.7c0,1.131,.658,2.121,1.639,2.462,.323,.113,1.307,.455,.776,2.316L.165,18.025c-.707,1.87,.839,4.035,2.837,3.975h1.055c1.503,0,2.808-.965,3.248-2.403l1.711-5.597h1.964c2.447,0,4.564-1.575,5.268-3.92l.324-1.08h3.192c.953,0,1.809-.529,2.236-1.382l.309-.618h.691c.551,0,1-.449,1-1v-1c0-.551-.449-1-1-1ZM6.349,19.305c-.311,1.014-1.231,1.695-2.292,1.695h-1.055c-1.332,.041-2.362-1.404-1.892-2.65l2.258-6.572c.39-1.367,.158-2.232-.265-2.778h6.396l-3.15,10.305ZM15.29,9.793c-.576,1.918-2.308,3.207-4.31,3.207h-1.658l.612-2h1.078c1.113,0,2.075-.716,2.395-1.782l.065-.218h2.056l-.238,.793Zm-5.051,.207l.306-1h1.87c-.213,.598-.762,1-1.404,1h-.773Zm11.761-5H4.5c-.276,0-.5,.224-.5,.5s.224,.5,.5,.5H21.691l-.585,1.171c-.256,.511-.77,.829-1.341,.829H1.583c-.356-.292-.583-.775-.583-1.3l-.03-1.739,.155-.039c.881-.228,1.57-.916,1.796-1.797,.001-.005,.078-.119,.079-.125H21c.551,0,1,.449,1,1v1Z"/>
</svg>
