<?xml version="1.0" encoding="UTF-8"?>
<svg xmlns="http://www.w3.org/2000/svg" id="Layer_1" data-name="Layer 1" viewBox="0 0 24 24">
  <path d="m24,14.5c0,4.694-2.542,7.5-5,7.5-2.43,0-4-2.159-4-5.5,0-.276.224-.5.5-.5s.5.224.5.5c0,2.176.788,4.5,3,4.5,1.966,0,4-2.432,4-6.5,0-3.645-1.757-6.5-4-6.5-1.488,0-2.071.994-2.747,2.146-.516.878-1.048,1.785-2.02,2.297-1.066.562-2.054.573-3.847.558h-.077c1.62,1.076,2.69,2.914,2.69,5,0,3.309-2.691,6-6,6h-1c-3.897,0-6-3.349-6-6.5,0-.276.224-.5.5-.5s.5.224.5.5c0,2.733,1.717,5.5,5,5.5h1c2.757,0,5-2.243,5-5s-2.243-5-5-5h-.5c-.276,0-.5-.224-.5-.5s.224-.5.5-.5h1c1.93,0,3.5-1.57,3.5-3.5s-1.57-3.5-3.5-3.5c-1.992,0-4.15,1.858-4.171,1.877-.208.181-.523.159-.706-.049-.181-.208-.16-.523.048-.705.099-.086,2.459-2.123,4.829-2.123,2.481,0,4.5,2.019,4.5,4.5,0,1.421-.675,2.675-1.706,3.5h.094c1.683.008,2.531.003,3.379-.442.721-.379,1.159-1.127,1.623-1.918.727-1.237,1.55-2.64,3.61-2.64,2.851,0,5,3.225,5,7.5ZM14,2c.552,0,1-.448,1-1s-.448-1-1-1-1,.448-1,1,.448,1,1,1Zm0,3c2.127,0,3.711-1.04,3.777-1.084.229-.153.291-.462.139-.692-.152-.229-.463-.292-.692-.141-.014.01-1.409.917-3.224.917-1.76,0-3.134-1.341-3.147-1.354-.195-.194-.512-.192-.707.002-.194.195-.194.511,0,.706.067.067,1.671,1.646,3.854,1.646Z"/>
</svg>
