<?xml version="1.0" encoding="UTF-8"?>
<svg xmlns="http://www.w3.org/2000/svg" id="Layer_1" data-name="Layer 1" viewBox="0 0 24 24">
  <path d="m19.5,3H4.5C2.019,3,0,5.019,0,7.5v9c0,2.481,2.019,4.5,4.5,4.5h14.5c2.36,0,5-1.925,5-4.5V7.5c0-2.481-2.019-4.5-4.5-4.5Zm3.5,12h-2.5c-.276,0-.5-.225-.5-.5v-5c0-.275.224-.5.5-.5h2.5v6Zm-11,0c-1.654,0-3-1.346-3-3s1.346-3,3-3,3,1.346,3,3-1.346,3-3,3ZM1,9h2.5c.276,0,.5.225.5.5v5c0,.275-.224.5-.5.5H1v-6Zm0,7.5v-.5h2.5c.827,0,1.5-.673,1.5-1.5v-5c0-.827-.673-1.5-1.5-1.5H1v-.5c0-1.93,1.57-3.5,3.5-3.5h7v4.051c-1.968.249-3.5,1.915-3.5,3.949s1.532,3.7,3.5,3.949v4.051h-7c-1.93,0-3.5-1.57-3.5-3.5Zm18,3.5h-6.5v-4.051c1.968-.249,3.5-1.915,3.5-3.949s-1.532-3.7-3.5-3.949v-4.051h7c1.93,0,3.5,1.57,3.5,3.5v.5h-2.5c-.827,0-1.5.673-1.5,1.5v5c0,.827.673,1.5,1.5,1.5h2.5v.5c0,1.971-2.15,3.5-4,3.5Z"/>
</svg>
