<?xml version="1.0" encoding="UTF-8"?>
<svg xmlns="http://www.w3.org/2000/svg" id="Layer_1" data-name="Layer 1" viewBox="0 0 24 24">
  <path d="m23.854,23.146l-6.449-6.449c1.607-1.775,2.596-4.12,2.596-6.698C20,4.486,15.514,0,10,0S0,4.486,0,10s4.486,10,10,10c2.577,0,4.922-.988,6.697-2.595l6.449,6.449c.098.098.226.146.354.146s.256-.049.354-.146c.195-.195.195-.512,0-.707ZM1,10C1,5.037,5.038,1,10,1s9,4.037,9,9-4.038,9-9,9S1,14.963,1,10Zm9-6c-.826,0-1.5.67-1.5,1.494l-.005,9.007c0,.4.156.777.439,1.061.283.283.66.438,1.061.438.826,0,1.5-.672,1.5-1.498l.005-9.007c0-.401-.156-.777-.44-1.06-.283-.281-.659-.436-1.06-.436Zm.495,10.502c0,.407-.567.64-.854.352-.094-.094-.146-.219-.146-.353l.005-9.007c0-.277.22-.494.5-.494.135,0,.261.052.355.146.094.093.145.217.145.35l-.005,9.007Zm4.004-8.502c-.826,0-1.5.672-1.5,1.499l-.004,4.994c0,.4.156.777.439,1.062.284.283.66.439,1.061.439.826,0,1.5-.672,1.5-1.499l.004-4.994c0-.4-.155-.777-.439-1.062-.283-.283-.66-.439-1.061-.439Zm.496,6.495c0,.409-.564.645-.854.353-.095-.095-.146-.221-.146-.354l.004-4.994c0-.275.225-.499.5-.499.134,0,.259.052.354.146.095.095.146.221.146.354l-.004,4.994ZM5.5,7c-.827,0-1.5.673-1.5,1.5v3c0,.827.673,1.5,1.5,1.5s1.5-.673,1.5-1.5v-3c0-.827-.673-1.5-1.5-1.5Zm.5,4.5c0,.275-.224.5-.5.5s-.5-.225-.5-.5v-3c0-.275.224-.5.5-.5s.5.225.5.5v3Z"/>
</svg>
