<svg id="Layer_1" viewBox="0 0 24 24" xmlns="http://www.w3.org/2000/svg" data-name="Layer 1"><path d="m6.5 11c-3.584 0-6.5 2.916-6.5 6.5s2.916 6.5 6.5 6.5 6.5-2.916 6.5-6.5-2.916-6.5-6.5-6.5zm0 12c-3.032 0-5.5-2.468-5.5-5.5s2.468-5.5 5.5-5.5 5.5 2.468 5.5 5.5-2.468 5.5-5.5 5.5zm2.161-5.888c.214-.318.339-.701.339-1.112 0-1.103-.897-2-1.997-2h-.003v-.5c0-.276-.224-.5-.5-.5s-.5.224-.5.5v.495l-.481-.003c-.4-.018-.78.152-1.064.436-.285.283-.442.66-.443 1.062l-.009 4.012c0 .826.669 1.5 1.494 1.503l.504.002v.494c0 .276.224.5.5.5s.5-.224.5-.5v-.491l.995.003c1.105-.017 2.005-.92 2.005-2.013 0-.871-.56-1.614-1.339-1.888zm-3.65-1.621c0-.134.053-.26.147-.354.095-.093.22-.145.353-.145h.002l1.487.008c.552 0 1 .448 1 1s-.448 1-1 1h-1.992zm2.979 4.521-2.489-.009c-.275 0-.498-.226-.498-.501l.003-1.503h2.995c.552 0 1 .448 1 1 0 .56-.448 1.004-1.011 1.013zm8.51-20.012c-4.275 0-7.5 1.505-7.5 3.5v4c0 1.995 3.225 3.5 7.5 3.5 2.851 0 5.228-.671 6.5-1.709v2.209c0 1.183-2.67 2.5-6.5 2.5-.495 0-.983-.022-1.453-.067-.258-.013-.519.176-.545.451-.025.274.176.519.451.545.5.047 1.021.071 1.547.071 2.851 0 5.228-.671 6.5-1.709v2.209c0 1.183-2.67 2.5-6.5 2.5-.33 0-.653-.011-.97-.029-.307-.027-.514.194-.529.469-.017.276.193.513.469.529.336.021.681.031 1.03.031 2.851 0 5.228-.671 6.5-1.709v2.209c0 1.183-2.67 2.5-6.5 2.5-.837 0-1.651-.064-2.419-.19-.267-.047-.53.139-.574.412-.045.272.14.529.412.574.821.136 1.689.204 2.581.204 4.275 0 7.5-1.505 7.5-3.5v-16c0-1.995-3.225-3.5-7.5-3.5zm0 1c3.83 0 6.5 1.317 6.5 2.5s-2.67 2.5-6.5 2.5-6.5-1.317-6.5-2.5 2.67-2.5 6.5-2.5zm0 9c-3.83 0-6.5-1.317-6.5-2.5v-2.209c1.272 1.037 3.649 1.709 6.5 1.709s5.228-.671 6.5-1.709v2.209c0 1.183-2.67 2.5-6.5 2.5z"/></svg>