<?xml version="1.0" encoding="UTF-8"?>
<svg xmlns="http://www.w3.org/2000/svg" id="Layer_1" data-name="Layer 1" viewBox="0 0 24 24">
  <path d="m24,8.5c0-1.378-1.121-2.5-2.5-2.5s-2.5,1.122-2.5,2.5c0,1.207.86,2.217,2,2.449v5.051c0,3.86-3.141,7-7,7s-7-3.14-7-7v-1.025c3.351-.257,6-3.059,6-6.475V3.5c0-1.93-1.57-3.5-3.5-3.5h-1c-.276,0-.5.224-.5.5s.224.5.5.5h1c1.379,0,2.5,1.122,2.5,2.5v5c0,3.033-2.468,5.5-5.5,5.5S1,11.533,1,8.5V3.5c0-1.378,1.121-2.5,2.5-2.5h1c.276,0,.5-.224.5-.5s-.224-.5-.5-.5h-1C1.57,0,0,1.57,0,3.5v5c0,3.415,2.649,6.218,6,6.475v1.025c0,4.411,3.589,8,8,8s8-3.589,8-8v-5.051c1.14-.232,2-1.242,2-2.449Zm-2.5,1.5c-.827,0-1.5-.673-1.5-1.5s.673-1.5,1.5-1.5,1.5.673,1.5,1.5-.673,1.5-1.5,1.5Z"/>
</svg>
