<svg id="Layer_1" viewBox="0 0 24 24" xmlns="http://www.w3.org/2000/svg" data-name="Layer 1"><path d="m21 14c-.929 0-1.705.64-1.929 1.5h-6.571v-2c0-.276-.224-.5-.5-.5s-.5.224-.5.5v2h-6.571c-.224-.86-1-1.5-1.929-1.5-1.103 0-2 .897-2 2s.897 2 2 2c.929 0 1.705-.64 1.929-1.5h6.008l-3.068 3.707c-.264-.129-.556-.207-.869-.207-1.103 0-2 .897-2 2s.897 2 2 2 2-.897 2-2c0-.428-.138-.822-.367-1.148l3.367-4.068 3.367 4.068c-.23.326-.367.72-.367 1.148 0 1.103.897 2 2 2s2-.897 2-2-.897-2-2-2c-.313 0-.605.079-.869.207l-3.068-3.707h6.008c.224.86 1 1.5 1.929 1.5 1.103 0 2-.897 2-2s-.897-2-2-2zm-18 3c-.551 0-1-.448-1-1s.449-1 1-1 1 .448 1 1-.449 1-1 1zm4 6c-.551 0-1-.448-1-1s.449-1 1-1 1 .448 1 1-.449 1-1 1zm11-1c0 .552-.449 1-1 1s-1-.448-1-1 .449-1 1-1 1 .448 1 1zm3-5c-.551 0-1-.448-1-1s.449-1 1-1 1 .448 1 1-.449 1-1 1zm-12.741-7.786 2.514 1.436c.382.219.812.328 1.242.328.419 0 .838-.104 1.212-.312l2.485-1.38c.793-.44 1.287-1.278 1.287-2.186v-3.185c-.004-.897-.498-1.728-1.27-2.177l-2.503-1.415c-.759-.429-1.703-.429-2.461 0l-2.497 1.414c-.782.443-1.268 1.276-1.268 2.175v3.129c0 .895.482 1.727 1.259 2.172zm.496-.868c-.466-.267-.755-.767-.755-1.304v-3.129c0-.12.019-.237.047-.351l3.453 1.974v4.34c-.078-.029-2.745-1.53-2.745-1.53zm7.245-1.245c0 .544-.296 1.047-.772 1.311 0 0-2.646 1.449-2.729 1.477v-4.351l3.453-1.974c.028.114.047.231.047.351v3.186zm-4.743-5.906c.457-.26 1.023-.259 1.477 0 0 0 2.611 1.495 2.664 1.536l-3.396 1.941-3.399-1.942c.053-.04 2.654-1.533 2.654-1.533z"/></svg>