<svg id="Layer_1" viewBox="0 0 24 24" xmlns="http://www.w3.org/2000/svg" data-name="Layer 1"><path d="m15 8h-1v-1c0-1.103-.897-2-2-2s-2 .897-2 2v1h-1c-1.103 0-2 .897-2 2s.897 2 2 2h1v1c0 1.103.897 2 2 2s2-.897 2-2v-1h1c1.103 0 2-.897 2-2s-.897-2-2-2zm0 3h-1.5c-.276 0-.5.224-.5.5v1.5c0 .552-.449 1-1 1s-1-.448-1-1v-1.5c0-.276-.224-.5-.5-.5h-1.5c-.551 0-1-.449-1-1s.449-1 1-1h1.5c.276 0 .5-.224.5-.5v-1.5c0-.551.449-1 1-1s1 .449 1 1v1.5c0 .276.224.5.5.5h1.5c.552 0 1 .449 1 1s-.448 1-1 1zm-3-11c-5.514 0-10 4.486-10 10 0 2.869 2.35 7.245 6.617 12.321.87 1.035 2.167 1.679 3.383 1.679s2.513-.644 3.383-1.679c4.268-5.076 6.617-9.452 6.617-12.321 0-5.514-4.486-10-10-10zm2.617 21.679c-.686.814-1.688 1.321-2.617 1.321s-1.932-.507-2.617-1.321c-4.116-4.898-6.383-9.045-6.383-11.679 0-4.962 4.038-9 9-9s9 4.038 9 9c0 2.634-2.267 6.781-6.383 11.679z"/></svg>