<svg id="Layer_1" viewBox="0 0 24 24" xmlns="http://www.w3.org/2000/svg" data-name="Layer 1"><path d="m18.837 5.445-.971-.875c-.743-.743-1.95-.742-2.732.048l-1.221 1.585c-.741.742-.741 1.949-.027 2.662l1.073 1.264c-.99 2.293-2.582 3.871-4.852 4.811l-1.236-1.136c-.719-.72-2.001-.692-2.661-.027l-1.64 1.399c-.741.742-.741 1.949-.018 2.673l.909 1.006c.737.739 1.734 1.146 2.81 1.146.016 0 .03 0 .045-.002 5.036-.039 11.684-6.7 11.684-11.727 0-1.073-.406-2.071-1.145-2.809-.006-.006-.013-.012-.019-.018zm-10.563 13.553c-.014 0-.027 0-.041.002-.792-.01-1.522-.311-2.045-.833l-.91-1.007c-.352-.352-.352-.925-.029-1.25l1.64-1.399c.349-.355.938-.353 1.291.015l1.482 1.363c.141.128.337.167.518.099 2.751-1.05 4.71-2.989 5.823-5.763.069-.172.037-.368-.083-.51l-1.299-1.527c-.352-.352-.352-.925.042-1.325l1.221-1.585c.353-.352.924-.351 1.295.018l.979.884c.544.548.843 1.291.843 2.093 0 4.511-6.216 10.727-10.727 10.727zm11.226-18.998h-15c-2.481 0-4.5 2.019-4.5 4.5v15c0 2.481 2.019 4.5 4.5 4.5h15c2.481 0 4.5-2.019 4.5-4.5v-15c0-2.481-2.019-4.5-4.5-4.5zm3.5 19.5c0 1.93-1.57 3.5-3.5 3.5h-15c-1.93 0-3.5-1.57-3.5-3.5v-15c0-1.93 1.57-3.5 3.5-3.5h15c1.93 0 3.5 1.57 3.5 3.5z"/></svg>