<svg id="Layer_1" viewBox="0 0 24 24" xmlns="http://www.w3.org/2000/svg" data-name="Layer 1"><path d="m13.472 12.689c.172.216.136.531-.081.703-.214.17-.53.136-.702-.082-.282-.356-.5-.752-.684-1.163-.617 1.371-1.772 2.468-3.265 2.966l-2.581.86c-.255.087-.545-.052-.633-.316-.087-.262.055-.545.316-.632l2.581-.86c1.841-.614 3.077-2.33 3.077-4.27v-9.395c0-.276.224-.5.5-.5s.5.224.5.5v9.396c0 1.01.345 2.002.972 2.793zm-2.972 3.311c-.276 0-.5.224-.5.5v2.556c0 1.408-.95 2.645-2.312 3.007-.675.14-3.206.953-3.856.937-1.513.026-2.868-1.31-2.832-2.836 0-1.437.164-2.874.479-4.239l2.096-7.007c.532-2.307 2.558-3.918 4.926-3.918.276 0 .5-.224.5-.5s-.224-.5-.5-.5c-2.837 0-5.264 1.93-5.893 4.663l-2.096 7.006c-.34 1.47-.512 2.982-.512 4.495-.049 2.065 1.785 3.873 3.834 3.836.853.022 3.26-.791 4.112-.97 1.798-.479 3.054-2.113 3.054-3.974v-2.556c0-.276-.224-.5-.5-.5zm5-11c1.896 0 3.617 1.046 4.489 2.73.128.248.434.339.675.214.245-.127.341-.429.214-.674-1.045-2.017-3.105-3.27-5.378-3.27-.276 0-.5.224-.5.5s.224.5.5.5zm7.974 16.362c.613.519.704 1.423.208 2.06-.498.661-1.527.778-2.149.223-.234-.2-1.109-.961-2.143-2.007-.529.531-1.458 1.587-1.897 1.983-.616.574-1.66.477-2.169-.188-.493-.624-.412-1.524.185-2.051.458-.411 1.34-1.44 1.87-1.984-1.29-1.607-2.378-3.402-2.378-4.898 0-2.481 2.019-4.5 4.5-4.5s4.5 2.019 4.5 4.5c0 1.348-.854 3.02-2.538 4.97.659.679 1.35 1.33 2.012 1.892zm-4.777-.446c-.224-.24-.45-.488-.674-.746-.543.567-1.39 1.552-1.852 1.961-.198.176-.227.475-.062.681.169.223.516.252.721.062.441-.408 1.351-1.441 1.869-1.957zm4.13 1.209c-1.825-1.547-5.827-5.615-5.827-7.625 0-1.378 1.121-2.5 2.5-2.5s2.5 1.122 2.5 2.5c0 .822-.64 1.989-1.901 3.47.216.254.441.511.675.767 1.458-1.706 2.227-3.167 2.227-4.237 0-1.93-1.57-3.5-3.5-3.5s-3.5 1.57-3.5 3.5c0 2.464 4.043 6.561 6.181 8.383.208.181.548.144.713-.078.164-.211.136-.51-.066-.681zm-1.827-7.625c0-.827-.673-1.5-1.5-1.5s-1.5.673-1.5 1.5c0 .558.585 1.556 1.457 2.681 1.385-1.657 1.543-2.419 1.543-2.681z"/></svg>