<svg id="Layer_1" viewBox="0 0 24 24" xmlns="http://www.w3.org/2000/svg" data-name="Layer 1"><path d="m20 10.5v6c0 1.557-.795 2.93-2 3.738v3.262c0 .276-.224.5-.5.5s-.5-.224-.5-.5v-2.776c-.471.168-.971.276-1.5.276h-7c-.529 0-1.029-.108-1.5-.276v2.776c0 .276-.224.5-.5.5s-.5-.224-.5-.5v-3.262c-1.205-.808-2-2.182-2-3.738v-9c0-1.557.795-2.93 2-3.738v-3.262c0-.276.224-.5.5-.5s.5.224.5.5v2.776c.471-.168.971-.276 1.5-.276h5c.276 0 .5.224.5.5s-.224.5-.5.5h-5c-1.93 0-3.5 1.57-3.5 3.5v9c0 1.93 1.57 3.5 3.5 3.5h7c1.93 0 3.5-1.57 3.5-3.5v-6c0-.276.224-.5.5-.5s.5.224.5.5zm4-6.5c0 2.206-1.794 4-4 4s-4-1.794-4-4 1.794-4 4-4 4 1.794 4 4zm-1 0c0-1.654-1.346-3-3-3s-3 1.346-3 3 1.346 3 3 3 3-1.346 3-3zm-14 4h6c1.103 0 2 .897 2 2v4c0 1.103-.897 2-2 2h-6c-1.103 0-2-.897-2-2v-4c0-1.103.897-2 2-2zm6.983 1.916-2.569 2.569c-.39.39-.902.584-1.414.584s-1.024-.195-1.414-.584l-2.569-2.569c-.003.029-.017 4.084-.017 4.084 0 .551.448 1 1 1h6c.552 0 1-.449 1-1 0 0-.014-4.055-.017-4.084zm-.983-.916h-6c-.143 0-.277.032-.4.086l2.693 2.693c.391.39 1.023.39 1.414 0l2.693-2.693c-.123-.054-.257-.086-.4-.086z"/></svg>