<svg id="Layer_1" viewBox="0 0 24 24" xmlns="http://www.w3.org/2000/svg" data-name="Layer 1"><path d="m18.5 23c0 .552-.448 1-1 1s-1-.448-1-1 .448-1 1-1 1 .448 1 1zm5.269-1.45-4.827-8.101c-.304-.509-.843-.813-1.441-.813s-1.138.304-1.441.813l-4.827 8.101c-.301.506-.309 1.108-.022 1.613.298.524.846.837 1.465.837h1.826c.276 0 .5-.224.5-.5s-.224-.5-.5-.5h-1.826c-.255 0-.478-.124-.595-.331-.109-.19-.104-.412.012-.607l4.827-8.101c.242-.406.922-.406 1.164 0l4.827 8.101c.116.195.121.417.012.607-.117.207-.34.331-.595.331h-1.826c-.276 0-.5.224-.5.5s.224.5.5.5h1.826c.619 0 1.167-.312 1.465-.837.286-.505.278-1.107-.022-1.613zm-5.769-1.05v-3c0-.276-.224-.5-.5-.5s-.5.224-.5.5v3c0 .276.224.5.5.5s.5-.224.5-.5zm-11-16v10.551c1.14.232 2 1.242 2 2.449 0 1.379-1.121 2.5-2.5 2.5s-2.5-1.121-2.5-2.5c0-1.208.86-2.217 2-2.449v-10.551c0-.276.224-.5.5-.5s.5.224.5.5zm-.5 11.5c-.827 0-1.5.673-1.5 1.5s.673 1.5 1.5 1.5 1.5-.673 1.5-1.5-.673-1.5-1.5-1.5zm5.935.484c.268-.069.429-.343.359-.609-.303-1.166-.921-2.218-1.794-3.056v-8.319c0-2.481-2.019-4.5-4.5-4.5s-4.5 2.019-4.5 4.5v8.319c-1.273 1.225-2 2.918-2 4.681 0 3.584 2.916 6.5 6.5 6.5.745 0 1.474-.125 2.167-.37.261-.093.396-.379.305-.639-.094-.261-.382-.398-.639-.305-.586.208-1.202.313-1.833.313-3.032 0-5.5-2.468-5.5-5.5 0-1.554.668-3.045 1.834-4.091.105-.095.166-.23.166-.372v-8.536c0-1.93 1.57-3.5 3.5-3.5s3.5 1.57 3.5 3.5v8.537c0 .143.061.277.166.372.814.73 1.389 1.669 1.659 2.716.069.268.339.429.609.359z"/></svg>