<?xml version="1.0" encoding="UTF-8"?>
<svg xmlns="http://www.w3.org/2000/svg" id="Layer_1" data-name="Layer 1" viewBox="0 0 24 24">
  <path d="M17.032,7.084c-1.344-1.344-3.131-2.084-5.032-2.084s-3.688,.74-5.032,2.084c-.195,.195-.512,.195-.707,0s-.195-.512,0-.707c1.533-1.533,3.571-2.377,5.739-2.377s4.206,.844,5.739,2.377c.195,.195,.195,.512,0,.707s-.512,.195-.707,0Zm-7.8,2.062c-.195,.195-.195,.512,0,.707s.512,.195,.707,0c1.1-1.102,3.021-1.102,4.121,0,.195,.195,.512,.195,.707,0s.195-.512,0-.707c-1.477-1.479-4.059-1.479-5.535,0ZM4.321,4.181c2.05-2.051,4.777-3.181,7.679-3.181s5.629,1.13,7.679,3.181c.195,.195,.512,.195,.707,0s.195-.512,0-.707C18.146,1.233,15.169,0,12,0S5.854,1.233,3.614,3.474c-.195,.195-.195,.512,0,.707s.512,.195,.707,0Zm19.679,14.819v1c0,2.206-1.794,4-4,4H4c-2.206,0-4-1.794-4-4v-1c0-2.206,1.794-4,4-4h1.617L.071,5.757c-.143-.236-.065-.544,.172-.686,.234-.143,.543-.065,.686,.172L6.783,15h10.434l5.854-9.757c.143-.237,.452-.314,.686-.172,.237,.142,.314,.449,.172,.686l-5.546,9.243h1.617c2.206,0,4,1.794,4,4Zm-1,0c0-1.654-1.346-3-3-3H4c-1.654,0-3,1.346-3,3v1c0,1.654,1.346,3,3,3H20c1.654,0,3-1.346,3-3v-1Zm-19-.5c-.552,0-1,.448-1,1s.448,1,1,1,1-.448,1-1-.448-1-1-1Zm3,0c-.552,0-1,.448-1,1s.448,1,1,1,1-.448,1-1-.448-1-1-1Zm14,.5H13c-.276,0-.5,.224-.5,.5s.224,.5,.5,.5h8c.276,0,.5-.224,.5-.5s-.224-.5-.5-.5Z"/>
</svg>
