<?xml version="1.0" encoding="UTF-8"?>
<svg xmlns="http://www.w3.org/2000/svg" id="Layer_1" data-name="Layer 1" viewBox="0 0 24 24">
  <path d="m20,14.122v-2.122c0-2.953-1.613-5.531-4-6.917v-1.083c0-2.206-1.794-4-4-4s-4,1.794-4,4v1.083c-2.387,1.386-4,3.964-4,6.917v2.122c-2.305.47-4,2.48-4,4.878,0,2.5,1.851,4.559,4.251,4.924.074.044.635.076.749.076h14c.114,0,.674-.032.749-.076,2.4-.365,4.251-2.424,4.251-4.924,0-2.398-1.695-4.408-4-4.878ZM4,22.858c-1.721-.447-3-1.999-3-3.858,0-1.849,1.258-3.413,3-3.861v7.719ZM9,4c0-1.654,1.346-3,3-3s3,1.346,3,3v.589c-.927-.377-1.939-.589-3-.589s-2.073.212-3,.589v-.589Zm10,19H5v-1c0-3.859,3.141-7,7-7s7,3.141,7,7v1Zm0-4.864c-1.365-2.463-3.99-4.136-7-4.136s-5.635,1.673-7,4.136v-6.136c0-3.859,3.141-7,7-7s7,3.141,7,7v6.136Zm1,4.722v-7.719c1.742.448,3,2.012,3,3.861,0,1.859-1.279,3.411-3,3.858Zm-5-12.358c0,.276-.224.5-.5.5h-5c-.276,0-.5-.224-.5-.5s.224-.5.5-.5h5c.276,0,.5.224.5.5Z"/>
</svg>
