<svg id="Layer_1" viewBox="0 0 24 24" xmlns="http://www.w3.org/2000/svg" data-name="Layer 1"><path d="m23 18.501v4.999c0 .276-.224.5-.5.5s-.5-.224-.5-.5v-4.999c.038-1.53-1.497-2.794-2.992-2.451l-4.5.904c-1.163.234-2.008 1.266-2.008 2.451v4.095c0 .276-.224.5-.5.5s-.5-.224-.5-.5v-4.095c0-1.186-.844-2.217-2.008-2.451l-4.5-.904c-1.496-.34-3.03.919-2.992 2.451v4.999c0 .276-.224.5-.5.5s-.5-.224-.5-.5v-4.999c-.055-2.146 2.098-3.906 4.189-3.432l4.5.904c.993.2 1.816.818 2.311 1.645.494-.826 1.317-1.444 2.311-1.645l4.5-.904c2.093-.474 4.243 1.286 4.189 3.432zm-18.5-12.001c0-.276.224-.5.5-.5h1.009v-.49c-.003-1.471.568-2.854 1.607-3.896s2.421-1.614 3.893-1.614h1c3.028 0 5.496 2.463 5.5 5.49v.51h.991c.276 0 .5.224.5.5s-.224.5-.5.5h-.99l.002 1.999c0 3.31-2.691 6.001-6 6.001s-6-2.691-6-6l-.002-2h-1.01c-.276 0-.5-.224-.5-.5zm12.51.5h-10l.002 1.999c0 2.758 2.243 5.001 5 5.001s5-2.243 5-5zm-10.001-1h10v-.508c-.004-1.951-1.266-3.6-3.009-4.218v2.726c0 .276-.224.5-.5.5s-.5-.224-.5-.5v-2.95c-.164-.018-.323-.05-.492-.05h-1c-.173 0-.34.031-.509.05v2.95c0 .276-.224.5-.5.5s-.5-.224-.5-.5v-2.725c-.621.221-1.196.564-1.676 1.045-.851.853-1.317 1.984-1.315 3.188v.492z"/></svg>