<?xml version="1.0" encoding="UTF-8"?>
<svg xmlns="http://www.w3.org/2000/svg" id="Layer_1" data-name="Layer 1" viewBox="0 0 24 24">
  <path d="M18.916,2.266L12.157,.025c-.102-.034-.213-.034-.314,0L5.084,2.267c-1.845,.611-3.084,2.328-3.084,4.271l-.002,5.397c0,6.609,7.159,10.703,9.354,11.8,.393,.291,.862,.31,1.276,.052,2.198-.885,9.37-4.354,9.37-11.852l.003-5.397c0-1.943-1.239-3.66-3.084-4.271Zm2.081,9.668c0,6.872-6.691,10.099-8.743,10.924l-.232,.093-.224-.112c-2.064-1.032-8.801-4.871-8.801-10.906l.002-5.397c0-1.511,.964-2.846,2.398-3.322L12,1.027l6.602,2.188c1.435,.476,2.398,1.811,2.398,3.322l-.003,5.397Zm-12.093-3.331l-.858,4.215c-.094,.485-.471,1.181-1.221,1.181s-1.132-.727-1.214-1.148l-.906-4.244c-.067-.313,.172-.608,.492-.608,.238,0,.443,.166,.492,.399l.9,4.244c.025,.131,.146,.357,.236,.357,.101,0,.211-.224,.239-.372l.836-4.223c.047-.236,.253-.405,.494-.405h.016c.318,0,.557,.292,.493,.604Zm3.096-.604h-1c-.551,0-1,.449-1,1v4.5c0,.276,.224,.5,.5,.5s.5-.224,.5-.5v-1.5h1c1.103,0,2-.897,2-2s-.897-2-2-2Zm0,3h-1v-2h1c.551,0,1,.449,1,1s-.449,1-1,1Zm7-2.5v4.73c0,.365-.25,.672-.608,.745-.357,.071-.708-.11-.852-.446l-1.54-3.593v3.564c0,.276-.224,.5-.5,.5s-.5-.224-.5-.5v-4.755c0-.363,.248-.667,.604-.74,.355-.072,.703,.109,.847,.443l1.55,3.617v-3.564c0-.276,.224-.5,.5-.5s.5,.224,.5,.5Z"/>
</svg>
