<?xml version="1.0" encoding="UTF-8"?>
<svg xmlns="http://www.w3.org/2000/svg" id="Layer_1" data-name="Layer 1" viewBox="0 0 24 24">
  <path d="M12,0C5.383,0,0,5.383,0,12s5.383,12,12,12,12-5.383,12-12S18.617,0,12,0Zm10.389,15.583l-3.561-2.057c.11-.492,.173-1.001,.173-1.526,0-.601-.084-1.181-.227-1.737l3.541-2.052c.436,1.183,.687,2.456,.687,3.789,0,1.256-.222,2.458-.611,3.583Zm-1.358,2.68l-3.483-2.012c.406-.528,.737-1.114,.98-1.744l3.488,2.015c-.277,.612-.605,1.195-.985,1.741Zm-9.031-.264c-3.309,0-6-2.691-6-6s2.691-6,6-6,6,2.691,6,6-2.691,6-6,6Zm-10.016-1.477l3.497-1.992c.245,.63,.579,1.214,.986,1.74l-3.498,1.992c-.38-.546-.708-1.129-.985-1.741ZM3.098,5.565l3.454,2.05c-.418,.518-.764,1.096-1.022,1.719l-3.453-2.049c.289-.606,.63-1.181,1.021-1.72Zm18.824,1.717l-3.468,2.009c-.262-.622-.612-1.197-1.033-1.713l3.48-2.016c.391,.539,.732,1.114,1.021,1.719Zm-1.651-2.51l-3.562,2.064c-.768-.701-1.688-1.236-2.709-1.541V1.191c2.483,.459,4.671,1.753,6.271,3.58ZM13,1.051V5.08c-.328-.047-.66-.08-1-.08s-.672,.033-1,.08V1.051c.33-.03,.662-.051,1-.051s.67,.021,1,.051Zm-3,.14V5.295c-1.037,.31-1.97,.857-2.745,1.574l-3.529-2.094c1.6-1.829,3.789-3.125,6.274-3.584ZM1.685,8.215l3.53,2.095c-.135,.543-.215,1.107-.215,1.691,0,.534,.066,1.053,.18,1.553l-3.568,2.032c-.39-1.126-.612-2.328-.612-3.585,0-1.332,.25-2.603,.685-3.785Zm1.896,10.851l3.567-2.032c.795,.766,1.767,1.347,2.852,1.671v4.104c-2.558-.472-4.808-1.827-6.419-3.743Zm7.419,3.883v-4.029c.328,.047,.66,.08,1,.08s.672-.033,1-.08v4.029c-.33,.03-.662,.051-1,.051s-.67-.021-1-.051Zm3-.14v-4.104c1.093-.327,2.074-.914,2.872-1.69l3.547,2.049c-1.611,1.916-3.861,3.272-6.42,3.744Z"/>
</svg>
