<svg id="Layer_1" viewBox="0 0 24 24" xmlns="http://www.w3.org/2000/svg" data-name="Layer 1"><path d="m15.535 17.464c.195.195.195.512 0 .707s-.512.195-.707 0c-1.51-1.511-4.146-1.511-5.656 0-.195.195-.512.195-.707 0s-.195-.512 0-.707c.944-.944 2.199-1.464 3.535-1.464s2.591.52 3.535 1.464zm-3.535 2.536c-.552 0-1 .448-1 1s.448 1 1 1 1-.448 1-1-.448-1-1-1zm-2.121-1.121c-.195.195-.195.512 0 .707s.512.195.707 0c.779-.779 2.049-.779 2.828 0 .195.195.512.195.707 0s.195-.512 0-.707c-1.17-1.17-3.072-1.17-4.242 0zm8.121-1.999v4.62c0 1.378-1.121 2.5-2.5 2.5h-7c-1.379 0-2.5-1.122-2.5-2.5v-4.62c0-.832.411-1.607 1.101-2.073l3.501-2.362c.85-.572 1.947-.572 2.797 0l3.5 2.362c.69.466 1.102 1.241 1.102 2.073zm-1 0c0-.5-.247-.964-.661-1.244l-3.499-2.362c-.255-.172-.548-.258-.84-.258s-.585.086-.84.258l-3.5 2.362c-.413.279-.66.744-.66 1.244v4.62c0 .827.673 1.5 1.5 1.5h7c.827 0 1.5-.673 1.5-1.5zm1.148-11.692c-.441-.099-.807-.378-1.001-.767-1.614-3.222-5.098-4.942-8.673-4.279-3.135.581-5.669 3.08-6.308 6.217-.189.934-.217 1.875-.083 2.796.083.568-.058 1.074-.386 1.387-1.378 1.318-1.968 3.233-1.576 5.123.355 1.719 1.544 3.171 3.179 3.884.247.109.547-.003.658-.259.11-.253-.005-.548-.258-.658-1.318-.574-2.314-1.789-2.601-3.17-.32-1.549.161-3.118 1.289-4.196.565-.54.814-1.362.685-2.255-.118-.807-.094-1.632.073-2.452.558-2.743 2.772-4.926 5.509-5.434 3.13-.58 6.184.923 7.598 3.744.33.658.941 1.13 1.677 1.294 3.051.685 5.182 3.453 5.065 6.584-.072 1.969-1.087 3.784-2.783 4.978-.226.159-.279.471-.121.697.16.226.471.28.697.121 1.953-1.375 3.122-3.475 3.207-5.758.134-3.612-2.325-6.807-5.847-7.597z"/></svg>