<svg id="Layer_1" viewBox="0 0 24 24" xmlns="http://www.w3.org/2000/svg" data-name="Layer 1"><path d="m12.5 2.025v-1.525c0-.276-.224-.5-.5-.5s-.5.224-.5.5v1.525c-5.833.264-10.5 5.078-10.5 10.975 0 2.901 1.137 5.535 2.978 7.502-1.057.446-1.978 1.39-1.978 2.998 0 .276.224.5.5.5s.5-.224.5-.5c0-1.55 1.121-2.057 1.779-2.223 1.935 1.69 4.457 2.723 7.221 2.723s5.287-1.033 7.221-2.723c.658.165 1.779.672 1.779 2.223 0 .276.224.5.5.5s.5-.224.5-.5c0-1.608-.92-2.552-1.978-2.998 1.841-1.967 2.978-4.601 2.978-7.502 0-5.897-4.667-10.711-10.5-10.975zm-10.5 10.975c0-5.514 4.486-10 10-10s10 4.486 10 10-4.486 10-10 10-10-4.486-10-10zm22-8.5c0 .276-.224.5-.5.5s-.5-.224-.5-.5c0-1.679-1.227-3.462-3.5-3.462-.276 0-.5-.224-.5-.5s.224-.5.5-.5c2.523 0 4.5 1.96 4.5 4.462zm-23 0c0 .276-.224.5-.5.5s-.5-.224-.5-.5c0-2.502 1.977-4.462 4.5-4.462.276 0 .5.224.5.5s-.224.5-.5.5c-2.273 0-3.5 1.784-3.5 3.462zm14.838 1.732c-.357-.261-.812-.306-1.186-.117-.415.209-.653.662-.653 1.242v12.143c0 .276.224.5.5.5s.5-.224.5-.5v-3.244c2.037-1.404 3-3.079 3-5.256 0-2.069-1.277-4.131-2.162-4.768zm-.838 8.792v-7.667c.012-.277.061-.438.253-.314.61.438 1.747 2.183 1.747 3.957 0 1.662-.607 2.905-2 4.024zm-6-9.024c-1.448 0-3 2.935-3 5 0 1.565 1.027 2.735 2.5 2.954v5.546c0 .276.224.5.5.5s.5-.224.5-.5v-5.546c1.473-.219 2.5-1.389 2.5-2.954 0-2.065-1.552-5-3-5zm0 7c-1.196 0-2-.804-2-2 0-1.759 1.356-4 2-4s2 2.241 2 4c0 1.196-.804 2-2 2z"/></svg>