<?xml version="1.0" encoding="UTF-8"?>
<svg xmlns="http://www.w3.org/2000/svg" id="Layer_1" data-name="Layer 1" viewBox="0 0 24 24">
  <path d="m19.5,2h-1.5V.5c0-.276-.224-.5-.5-.5s-.5.224-.5.5v1.5H7V.5c0-.276-.224-.5-.5-.5s-.5.224-.5.5v1.5h-1.5C2.019,2,0,4.019,0,6.5v13c0,2.481,2.019,4.5,4.5,4.5h6c.276,0,.5-.224.5-.5s-.224-.5-.5-.5h-6c-1.93,0-3.5-1.57-3.5-3.5v-10.5h22v5.5c0,.276.224.5.5.5s.5-.224.5-.5V6.5c0-2.481-2.019-4.5-4.5-4.5Zm3.5,6H1v-1.5c0-1.93,1.57-3.5,3.5-3.5h15c1.93,0,3.5,1.57,3.5,3.5v1.5Zm-3.314,7.171c.399-.359.843-.825,1.152-1.351.217-.371.218-.818,0-1.196-.221-.384-.632-.623-1.072-.623h-2.533c-.44,0-.852.239-1.072.623-.217.378-.216.825,0,1.197.309.526.753.992,1.152,1.351-2.316.682-4.314,3.232-4.314,5.829,0,1.648,1.346,2.988,3,2.988h5c1.654,0,3-1.34,3-2.988,0-2.598-1.998-5.147-4.314-5.829Zm-2.66-1.856c-.045-.077-.022-.148.004-.194.016-.028.079-.121.204-.121h2.533c.125,0,.188.092.204.121.026.046.049.117.004.193-.39.665-1.089,1.251-1.475,1.544-.386-.292-1.084-.877-1.475-1.544Zm3.975,9.674h-5c-1.103,0-2-.892-2-1.988,0-2.439,2.309-4.915,4.5-5,2.191.085,4.5,2.561,4.5,5,0,1.096-.897,1.988-2,1.988Z"/>
</svg>
