<?xml version="1.0" encoding="UTF-8"?>
<svg xmlns="http://www.w3.org/2000/svg" id="Layer_1" data-name="Layer 1" viewBox="0 0 24 24">
  <path d="M24,4v7c0,2.206-1.794,4-4,4H9.5c-.276,0-.5-.224-.5-.5s.224-.5,.5-.5h10.5c1.654,0,3-1.346,3-3V4c0-1.654-1.346-3-3-3H9.5c-.276,0-.5-.224-.5-.5s.224-.5,.5-.5h10.5c2.206,0,4,1.794,4,4ZM2,2.5C2,1.121,3.121,0,4.5,0s2.5,1.121,2.5,2.5-1.121,2.5-2.5,2.5-2.5-1.121-2.5-2.5Zm1,0c0,.827,.673,1.5,1.5,1.5s1.5-.673,1.5-1.5-.673-1.5-1.5-1.5-1.5,.673-1.5,1.5Zm3.5,6.5c-.276,0-.5,.224-.5,.5v6.5H3.5c-1.379,0-2.5-1.121-2.5-2.5v-4c0-1.379,1.121-2.5,2.5-2.5H14.5c.276,0,.5-.224,.5-.5s-.224-.5-.5-.5H3.5c-1.93,0-3.5,1.57-3.5,3.5v4c0,1.391,.822,2.585,2,3.149v6.851c0,.276,.224,.5,.5,.5s.5-.224,.5-.5v-6.551c.165,.024,.329,.051,.5,.051h2.5v6.5c0,.276,.224,.5,.5,.5s.5-.224,.5-.5V9.5c0-.276-.224-.5-.5-.5Z"/>
</svg>
