<?xml version="1.0" encoding="UTF-8"?>
<svg xmlns="http://www.w3.org/2000/svg" id="Layer_1" data-name="Layer 1" viewBox="0 0 24 24">
  <path d="m21.381,16.503c-.159-.039-.395-.089-.693-.15-.472-.099-1.112-.233-1.852-.415-.371-1.202-1.366-2.154-2.649-2.41l-2.187-.438v-4.59c0-1.391-.822-2.585-2-3.149V.5c0-.276-.224-.5-.5-.5s-.5.224-.5.5v4.551c-.165-.024-.329-.051-.5-.051H3.535c-.183,0-.359.027-.535.054V.5c0-.276-.224-.5-.5-.5s-.5.224-.5.5v4.87C.841,5.941.035,7.123.035,8.5v9c0,3.584,2.916,6.5,6.5,6.5h8.965c1.391,0,2.585-.822,3.149-2h2.569c1.523,0,2.771-1.234,2.782-2.752.009-1.325-.945-2.326-2.619-2.745Zm-5.391-1.995c1.165.232,2.01,1.264,2.01,2.451v2.136l-4.926-4.503.582-.552,2.334.467Zm-3.21-7.022L1.082,18.187c-.028-.226-.048-.454-.048-.687v-4.113l8.061-7.376s.005-.008.009-.012h1.396c1.017,0,1.89.612,2.28,1.486Zm-9.246-1.486h4.092L1.035,12.032v-3.532c0-1.379,1.122-2.5,2.5-2.5Zm-2.19,13.303l11.655-10.663v4.644L3.656,22.137c-.009.008-.012.02-.02.029-1.058-.66-1.875-1.666-2.292-2.862Zm3.239,3.333l4.336-4.108,4.816,4.472h-7.201c-.688,0-1.344-.133-1.951-.364Zm10.916.364h-.295l-5.558-5.161,2.699-2.557,5.654,5.168v.05c0,1.379-1.122,2.5-2.5,2.5Zm5.718-2h-2.268c.024-.165.051-.329.051-.5v-3.493c.584.138,1.09.243,1.485.324.281.059.504.104.654.143.699.175,1.869.637,1.861,1.767-.007.954-.823,1.76-1.782,1.76Z"/>
</svg>
