<?xml version="1.0" encoding="UTF-8"?>
<svg xmlns="http://www.w3.org/2000/svg" id="Layer_1" data-name="Layer 1" viewBox="0 0 24 24">
  <path d="m24,11.5c0,.534-.208,1.037-.586,1.414l-3.396,3.396c-.098.098-.226.146-.354.146s-.256-.049-.354-.146c-.195-.195-.195-.512,0-.707l3.396-3.396c.063-.063.116-.132.159-.207h-6.866c-1.93,0-3.5,1.57-3.5,3.5v7.957c0,.276-.224.5-.5.5s-.5-.224-.5-.5v-3.957c0-1.93-1.57-3.5-3.5-3.5H1.134c.043.075.096.144.159.207l3.396,3.396c.195.195.195.512,0,.707-.098.098-.226.146-.354.146s-.256-.049-.354-.146l-3.396-3.396c-.378-.377-.586-.88-.586-1.414s.208-1.037.586-1.414l3.396-3.396c.195-.195.512-.195.707,0s.195.512,0,.707l-3.396,3.396c-.063.063-.116.132-.159.207h6.866c1.412,0,2.674.654,3.5,1.675V1.137c-.075.042-.145.094-.207.156l-3.396,3.396c-.195.195-.512.195-.707,0s-.195-.512,0-.707l3.396-3.396c.339-.34,1.038-.586,1.414-.586s1.075.246,1.414.586l3.396,3.396c.195.195.195.512,0,.707-.098.098-.226.146-.354.146s-.256-.049-.354-.146l-3.396-3.396c-.062-.062-.132-.114-.207-.156v11.538c.826-1.021,2.088-1.675,3.5-1.675h6.866c-.043-.075-.096-.144-.159-.207l-3.396-3.396c-.195-.195-.195-.512,0-.707s.512-.195.707,0l3.396,3.396c.378.377.586.88.586,1.414Z"/>
</svg>
