<svg id="Layer_1" viewBox="0 0 24 24" xmlns="http://www.w3.org/2000/svg" data-name="Layer 1"><path d="m14 19.5v1.5c0 1.654-1.346 3-3 3s-3-1.346-3-3v-.514c-.953-.337-1.838-.834-2.638-1.481l-.445.274c-1.355.876-3.31.413-4.128-.977-.875-1.355-.413-3.31.977-4.128l.445-.275c-.14-.64-.211-1.277-.211-1.899s.071-1.26.211-1.899l-.445-.275c-1.391-.818-1.853-2.774-.977-4.129.818-1.39 2.772-1.852 4.128-.977l.445.274c.8-.647 1.685-1.144 2.638-1.481v-.514c0-1.654 1.346-3 3-3s3 1.346 3 3v1.5c0 .276-.224.5-.5.5s-.5-.224-.5-.5v-1.5c0-1.103-.897-2-2-2s-2 .897-2 2v.875c0 .22-.143.414-.353.478-1.069.329-2.048.878-2.911 1.633-.166.145-.406.165-.592.049l-.752-.465c-.455-.281-.993-.366-1.511-.244-.52.123-.961.441-1.242.896-.579.938-.287 2.173.652 2.752l.753.465c.187.115.276.338.221.551-.176.678-.265 1.354-.265 2.009s.089 1.331.265 2.009c.055.212-.035.436-.221.551l-.753.465c-.938.579-1.231 1.814-.652 2.752.281.455.722.773 1.242.896.519.122 1.056.036 1.511-.244l.752-.465c.187-.116.427-.096.592.049.862.755 1.841 1.305 2.911 1.633.21.064.353.258.353.478v.875c0 1.103.897 2 2 2s2-.897 2-2v-1.5c0-.276.224-.5.5-.5s.5.224.5.5zm0-12c0-.276.224-.5.5-.5h5.5c.827 0 1.5-.673 1.5-1.5v-1.571c-.86-.224-1.5-1-1.5-1.929 0-1.103.897-2 2-2s2 .897 2 2c0 .929-.64 1.705-1.5 1.929v1.571c0 1.378-1.121 2.5-2.5 2.5h-5.5c-.276 0-.5-.224-.5-.5zm8-4.5c.552 0 1-.449 1-1s-.448-1-1-1-1 .449-1 1 .448 1 1 1zm2 19c0 1.103-.897 2-2 2s-2-.897-2-2c0-.929.64-1.705 1.5-1.929v-1.571c0-.827-.673-1.5-1.5-1.5h-5.5c-.276 0-.5-.224-.5-.5s.224-.5.5-.5h5.5c1.379 0 2.5 1.122 2.5 2.5v1.571c.86.224 1.5 1 1.5 1.929zm-1 0c0-.551-.448-1-1-1s-1 .449-1 1 .448 1 1 1 1-.449 1-1zm1-10c0 1.103-.897 2-2 2-.929 0-1.705-.64-1.929-1.5h-5.571c-.276 0-.5-.224-.5-.5s.224-.5.5-.5h5.571c.224-.86 1-1.5 1.929-1.5 1.103 0 2 .897 2 2zm-1 0c0-.551-.448-1-1-1s-1 .449-1 1 .448 1 1 1 1-.449 1-1zm-12-3h.5c.276 0 .5-.224.5-.5s-.224-.5-.5-.5h-.5c-2.206 0-4 1.794-4 4s1.794 4 4 4h.5c.276 0 .5-.224.5-.5s-.224-.5-.5-.5h-.5c-1.654 0-3-1.346-3-3s1.346-3 3-3z"/></svg>