<?xml version="1.0" encoding="UTF-8"?>
<svg xmlns="http://www.w3.org/2000/svg" id="Layer_1" data-name="Layer 1" viewBox="0 0 24 24">
  <path d="M17.407,11.05c.255,.107,.375,.399,.269,.654l-2.928,7c-.081,.191-.266,.307-.461,.307-.064,0-.13-.013-.193-.039-.255-.106-.375-.399-.269-.654l2.928-6.999c.107-.255,.4-.375,.654-.269Zm-4.616,.269l-2.928,6.999c-.106,.255,.014,.548,.269,.654,.063,.026,.128,.039,.193,.039,.195,0,.381-.115,.461-.307l2.928-7c.106-.255-.014-.547-.269-.654-.254-.107-.547,.013-.654,.269Zm-3.384-.269c-.253-.107-.547,.013-.654,.269l-2.928,6.999c-.106,.255,.014,.548,.269,.654,.063,.026,.128,.039,.193,.039,.195,0,.381-.115,.461-.307l2.928-7c.106-.255-.014-.547-.269-.654Zm14.473,11.357c-.18-.21-.496-.232-.705-.053-.485,.416-1.112,.646-1.765,.646-1.168,0-2.315-.72-2.668-1.674-.144-.393-.792-.39-.938,0-.352,.953-1.499,1.673-2.667,1.673s-2.314-.72-2.667-1.674c-.145-.393-.793-.393-.938,0-.353,.954-1.5,1.674-2.667,1.674s-2.315-.72-2.667-1.673c-.073-.196-.26-.327-.469-.327s-.396,.13-.469,.326c-.353,.954-1.5,1.674-2.668,1.674-.653,0-1.28-.229-1.765-.646-.208-.18-.524-.157-.705,.053-.18,.21-.156,.525,.054,.705,.666,.572,1.524,.888,2.417,.888,1.24,0,2.434-.594,3.137-1.494,.703,.9,1.896,1.494,3.136,1.494s2.434-.594,3.136-1.494c.703,.9,1.897,1.494,3.136,1.494s2.434-.594,3.136-1.494c.703,.9,1.897,1.494,3.137,1.494,.893,0,1.75-.315,2.417-.888,.209-.18,.233-.495,.054-.705ZM4.249,16.147c.239,.138,.545,.057,.683-.183,.139-.238,.057-.545-.182-.683-1.08-.625-1.75-1.786-1.75-3.032,0-1.098,.487-2.136,1.336-2.849,.583-.49,.868-1.256,.741-1.998-.141-.829-.087-1.669,.162-2.497,.599-1.996,2.3-3.5,4.334-3.831,2.367-.384,4.692,.771,5.795,2.874,.319,.61,.884,1.061,1.548,1.237,2.405,.638,4.084,2.823,4.084,5.313,0,2.075-1.149,3.951-2.999,4.897-.246,.126-.343,.427-.218,.673,.089,.173,.264,.272,.446,.272,.077,0,.154-.018,.227-.055,2.186-1.118,3.543-3.336,3.543-5.788,0-2.943-1.985-5.525-4.828-6.28-.4-.106-.727-.367-.919-.735C14.95,1,12.208-.367,9.412,.088c-2.408,.393-4.422,2.171-5.131,4.53-.293,.977-.357,1.97-.189,2.953,.066,.388-.09,.806-.399,1.064-1.076,.903-1.692,2.221-1.692,3.614,0,1.602,.862,3.095,2.249,3.897Z"/>
</svg>
