<?xml version="1.0" encoding="UTF-8"?>
<svg xmlns="http://www.w3.org/2000/svg" id="Layer_1" data-name="Layer 1" viewBox="0 0 24 24">
  <path d="m22.682,5.711l-4.394-4.394c-.85-.85-1.979-1.318-3.182-1.318h-6.213c-1.202,0-2.332.468-3.182,1.318L1.318,5.711c-.851.85-1.318,1.98-1.318,3.182v6.213c0,1.202.468,2.332,1.318,3.182l4.394,4.394c.85.85,1.979,1.318,3.182,1.318h6.213c1.202,0,2.332-.468,3.182-1.318l4.394-4.394c.851-.85,1.318-1.98,1.318-3.182v-6.213c0-1.202-.468-2.332-1.318-3.182Zm.318,9.395c0,.935-.364,1.814-1.025,2.475l-4.394,4.394c-.661.661-1.54,1.025-2.475,1.025h-6.213c-.935,0-1.813-.364-2.475-1.025l-4.394-4.394c-.661-.661-1.025-1.541-1.025-2.475v-6.213c0-.935.364-1.814,1.025-2.475L6.419,2.025c.661-.661,1.54-1.025,2.475-1.025h6.213c.935,0,1.813.364,2.475,1.025l4.394,4.394c.661.661,1.025,1.541,1.025,2.475v6.213Zm-11.5-.606V5.5c0-.276.224-.5.5-.5s.5.224.5.5v9c0,.276-.224.5-.5.5s-.5-.224-.5-.5Zm2,3.5c0,.828-.672,1.5-1.5,1.5s-1.5-.672-1.5-1.5.672-1.5,1.5-1.5,1.5.672,1.5,1.5Z"/>
</svg>
