<svg id="Layer_1" viewBox="0 0 24 24" xmlns="http://www.w3.org/2000/svg" data-name="Layer 1"><path d="m14.896 8h-2.791c-.104 0-.15-.078-.066-.171l2.824-2.985c.189-.201.181-.517-.02-.707-.2-.189-.516-.182-.707.02l-2.952 3.13c-.225.339-.246.772-.053 1.131s.565.582.973.582h2.791c.109.004.133.086.063.174l-2.822 2.982c-.189.201-.181.517.02.707.2.189.516.181.707-.02l2.952-3.13c.225-.339.246-.772.053-1.131s-.565-.582-.973-.582z"/><path d="m22 4h-2.051c-.245-1.692-1.691-3-3.449-3h-3.849c-2.271 0-4.338 1.153-5.53 3.084l-6.515 10.549c-1.13 1.783-.621 4.32 1.104 5.526l-1.614 2.575c-.146.234-.076.543.158.689.231.145.542.077.689-.158l1.628-2.598c1.871.807 4.112.132 5.197-1.664l2.061-3.004h6.67c1.758 0 3.204-1.308 3.449-3h2.051c1.103 0 2-.897 2-2v-4.999c0-1.103-.897-2-2-2zm-3 8.5c0 1.379-1.122 2.5-2.5 2.5h-6.934c-.165 0-.319.081-.412.217l-2.225 3.244c-.9 1.483-2.788 1.977-4.3 1.128-.761-.428-1.302-1.128-1.524-1.972s-.096-1.72.353-2.463l6.513-10.544c1.009-1.634 2.758-2.61 4.68-2.61h3.849c1.378 0 2.5 1.122 2.5 2.5zm4-1.5c0 .551-.449 1-1 1h-2v-7h2c.551 0 1 .449 1 1z"/></svg>