<svg id="Layer_1" viewBox="0 0 24 24" xmlns="http://www.w3.org/2000/svg" data-name="Layer 1"><path d="m17.5 9c2.481 0 4.5-2.019 4.5-4.5s-2.019-4.5-4.5-4.5-4.5 2.019-4.5 4.5 2.019 4.5 4.5 4.5zm0-8c1.93 0 3.5 1.57 3.5 3.5s-1.57 3.5-3.5 3.5-3.5-1.57-3.5-3.5 1.57-3.5 3.5-3.5zm-10 12c2.481 0 4.5-2.019 4.5-4.5v-1l-.002-4.7c.088-.614-.818-1.092-1.23-.6-.166.212-.813 1.011-1.232 1.528l-1.227-1.374c-.455-.469-1.178-.466-1.637.021l-1.207 1.353c-.419-.517-1.066-1.316-1.232-1.528-.391-.489-1.302-.015-1.232.556v5.744c0 2.481 2.019 4.5 4.5 4.5zm-2.44-8.185c.182.238.568.242.761.018l1.578-1.771c.07-.065.118-.077.184-.021l1.598 1.791c.185.222.582.221.761-.018 0 0 .585-.72 1.06-1.307v3.492h-7.002l-.002-3.494c.475.587 1.062 1.309 1.062 1.309zm-1.06 3.185h7v.5c0 1.93-1.57 3.5-3.5 3.5s-3.5-1.57-3.5-3.5zm11 14.5v1c0 .276-.224.5-.5.5s-.5-.224-.5-.5v-1c0-3.584-2.916-6.5-6.5-6.5s-6.5 2.916-6.5 6.5v1c0 .276-.224.5-.5.5s-.5-.224-.5-.5v-1c0-4.136 3.364-7.5 7.5-7.5s7.5 3.364 7.5 7.5zm9-4.5v.5c0 .276-.224.5-.5.5s-.5-.224-.5-.5v-.5c0-3.309-2.691-6-6-6-1.556 0-3.031.593-4.154 1.67-.198.19-.516.185-.706-.015-.191-.199-.186-.516.015-.707 1.31-1.257 3.03-1.949 4.846-1.949 3.859 0 7 3.14 7 7z"/></svg>