<svg id="Layer_1" viewBox="0 0 24 24" xmlns="http://www.w3.org/2000/svg" data-name="Layer 1"><path d="m19.253 7.005c-.307-.286-.723-.385-1.121-.264-.396.12-.69.435-.787.844-.231.985-.735 1.887-1.456 2.606t0 0c-.163.165-.339.313-.519.454-.16.125-.229.334-.174.53.056.196.224.338.426.361 1.201.135 2.344.68 3.216 1.534.293.287.704.4 1.093.302.392-.098.698-.389.821-.778.165-.521.249-1.058.249-1.595 0-1.528-.62-2.947-1.747-3.995zm.545 5.288c-.058.128-.145.154-.262.063-.781-.765-1.747-1.32-2.789-1.614.771-.824 1.313-1.833 1.57-2.928.038-.146.14-.175.254-.078.922.857 1.429 2.016 1.429 3.263 0 .435-.068.87-.202 1.293zm-.883 3.873c.345 1.693-.379 3.358-1.843 4.243-.661.399-1.072 1.185-1.072 2.05v1.041c0 .276-.224.5-.5.5s-.5-.224-.5-.5v-1.041c0-1.214.596-2.328 1.556-2.907 1.097-.663 1.639-1.914 1.379-3.187-.23-1.137-1.189-2.085-2.331-2.307-.794-.153-1.592.001-2.25.436-.518.344-1.188.344-1.708 0-.657-.435-1.456-.589-2.249-.436-1.142.222-2.101 1.17-2.331 2.307-.26 1.273.282 2.524 1.38 3.187.959.579 1.555 1.692 1.555 2.907v1.041c0 .276-.224.5-.5.5s-.5-.224-.5-.5v-1.041c0-.866-.411-1.651-1.071-2.05-1.465-.884-2.188-2.549-1.844-4.243.186-.916.707-1.718 1.419-2.288-.429-.105-.844-.274-1.221-.523-1.44-.955-2.106-2.644-1.696-4.304.186-.749-.08-1.595-.692-2.207l-3.75-3.748c-.195-.195-.195-.512 0-.707s.512-.195.707 0l3.747 3.748c.858.858 1.225 2.067.956 3.154-.308 1.244.194 2.512 1.278 3.23.968.642 2.317.632 3.279-.019.669-.452 1.125-1.125 1.282-1.898.126-.619.589-1.082 1.207-1.208.773-.158 1.448-.613 1.899-1.282.651-.964.659-2.313.019-3.28-.718-1.083-1.987-1.583-3.23-1.277-1.09.269-2.297-.097-3.154-.956l-1.748-1.748c-.195-.195-.195-.512 0-.707s.512-.195.707 0l1.748 1.748c.612.613 1.465.876 2.207.692 1.662-.411 3.35.255 4.305 1.696.871 1.316.861 3.081-.024 4.392-.599.887-1.496 1.492-2.527 1.702-.222.045-.382.206-.427.428-.189.924-.708 1.728-1.449 2.318.447.107.879.28 1.27.538.189.125.417.125.604 0 .878-.58 1.938-.789 2.991-.583 1.553.301 2.808 1.542 3.122 3.089z"/></svg>