<?xml version="1.0" encoding="UTF-8"?>
<svg xmlns="http://www.w3.org/2000/svg" id="Layer_1" data-name="Layer 1" viewBox="0 0 24 24">
  <path d="M5,14.058c.591,0,1.182-.22,1.631-.66,1.483-1.406,3.53-3.132,3.369-5.398,0-1.336-.521-2.592-1.465-3.536h0c-.945-.944-2.2-1.464-3.535-1.464C2.31,2.945-.054,5.311,0,8c-.163,2.253,1.888,3.998,3.369,5.398,.449,.44,1.04,.66,1.631,.66ZM1,8c0-1.069,.416-2.074,1.172-2.829,1.487-1.551,4.167-1.551,5.656,0,1.551,1.485,1.552,4.17,.004,5.654l-1.9,1.858c-.514,.502-1.35,.502-1.863,0l-1.888-1.846c-.762-.761-1.181-1.768-1.181-2.837Zm6,0c0-1.103-.897-2-2-2s-2,.897-2,2,.897,2,2,2,2-.897,2-2Zm-3,0c0-.551,.448-1,1-1s1,.449,1,1-.448,1-1,1-1-.449-1-1Zm18.535-3.536h0c-.945-.944-2.2-1.464-3.535-1.464-2.69-.055-5.054,2.311-5,5-.163,2.253,1.888,3.998,3.369,5.398,.898,.88,2.363,.88,3.262,0,1.483-1.406,3.53-3.132,3.369-5.398,0-1.336-.521-2.592-1.465-3.536Zm-.703,6.361l-1.9,1.858c-.514,.502-1.35,.502-1.863,0l-1.888-1.846c-1.56-1.494-1.565-4.172-.009-5.667,1.487-1.551,4.167-1.551,5.656,0,1.551,1.485,1.552,4.17,.004,5.654Zm-2.832-4.825c-1.103,0-2,.897-2,2s.897,2,2,2,2-.897,2-2-.897-2-2-2Zm0,3c-.552,0-1-.449-1-1s.448-1,1-1,1,.449,1,1-.448,1-1,1Zm0,8c-.929,0-1.705,.64-1.929,1.5H6.929c-.224-.86-1-1.5-1.929-1.5-1.103,0-2,.897-2,2s.897,2,2,2c.929,0,1.705-.64,1.929-1.5h10.142c.224,.86,1,1.5,1.929,1.5,1.103,0,2-.897,2-2s-.897-2-2-2Zm-14,3c-.552,0-1-.449-1-1s.448-1,1-1,1,.449,1,1-.448,1-1,1Zm14,0c-.552,0-1-.449-1-1s.448-1,1-1,1,.449,1,1-.448,1-1,1Z"/>
</svg>
