<svg id="Layer_1" viewBox="0 0 24 24" xmlns="http://www.w3.org/2000/svg" data-name="Layer 1"><path d="m23 17.278v-12.778c0-2.481-2.019-4.5-4.5-4.5h-13c-2.481 0-4.5 2.019-4.5 4.5v12.778c-.595.347-1 .985-1 1.722v.5c0 2.481 2.019 4.5 4.5 4.5h15c2.481 0 4.5-2.019 4.5-4.5v-.5c0-.737-.405-1.375-1-1.722zm-21-12.778c0-1.93 1.57-3.5 3.5-3.5h13c1.93 0 3.5 1.57 3.5 3.5v12.5h-5c0-2.148-1.369-3.968-3.274-4.674l1.027-1.497c.388-.582.311-1.362-.184-1.856l-.542-.543c-.278-.277-.647-.43-1.04-.43h-1.975c-.393 0-.762.153-1.04.431l-.542.542c-.494.494-.571 1.274-.18 1.861l1.023 1.492c-1.905.706-3.274 2.526-3.274 4.674h-4.999zm6 12.5c0-2.206 1.794-4 4-4s4 1.794 4 4zm4-5c-.236 0-.462.038-.689.07l-1.232-1.796c-.124-.186-.1-.435.059-.593l.542-.542c.088-.088.209-.138.333-.138h1.975c.124 0 .245.05.333.138l.542.542c.158.158.183.408.062.588l-1.236 1.801c-.227-.032-.453-.07-.689-.07zm11 7.5c0 1.93-1.57 3.5-3.5 3.5h-15c-1.93 0-3.5-1.57-3.5-3.5v-.5c0-.551.449-1 1-1h20c.552 0 1 .449 1 1zm-7.854-12.646c-.195-.195-.195-.512 0-.707l1.5-1.5c.195-.195.512-.195.707 0s.195.512 0 .707l-1.5 1.5c-.195.195-.512.195-.707 0zm-7 0-1.5-1.5c-.195-.195-.195-.512 0-.707s.512-.195.707 0l1.5 1.5c.195.195.195.512 0 .707s-.512.195-.707 0zm3.354-1.354v-2c0-.276.224-.5.5-.5s.5.224.5.5v2c0 .276-.224.5-.5.5s-.5-.224-.5-.5z"/></svg>