<?xml version="1.0" encoding="UTF-8"?>
<svg xmlns="http://www.w3.org/2000/svg" id="Layer_1" data-name="Layer 1" viewBox="0 0 24 24">
  <path d="m16,15c0,.276-.224.5-.5.5h-3v3c0,.276-.224.5-.5.5s-.5-.224-.5-.5v-3h-3c-.276,0-.5-.224-.5-.5s.224-.5.5-.5h3v-3c0-.276.224-.5.5-.5s.5.224.5.5v3h3c.276,0,.5.224.5.5Zm8-7.5v11c0,2.481-2.019,4.5-4.5,4.5H4.5c-2.481,0-4.5-2.019-4.5-4.5V4.5C0,2.57,1.57,1,3.5,1h3.556c.387,0,.773.091,1.118.264l3.155,1.578c.207.104.438.158.671.158h7.5c2.481,0,4.5,2.019,4.5,4.5ZM1,4.5v2.5h21.949c-.245-1.692-1.691-3-3.449-3h-7.5c-.387,0-.773-.091-1.118-.264l-3.155-1.578c-.207-.104-.438-.158-.671-.158h-3.556c-1.379,0-2.5,1.122-2.5,2.5Zm22,14v-10.5H1v10.5c0,1.93,1.57,3.5,3.5,3.5h15c1.93,0,3.5-1.57,3.5-3.5Z"/>
</svg>
