<?xml version="1.0" encoding="UTF-8"?>
<svg xmlns="http://www.w3.org/2000/svg" id="Layer_1" data-name="Layer 1" viewBox="0 0 24 24">
  <path d="m3.5,11.598v.601c0,1.027.73,1.802,1.7,1.802h.6c.938,0,1.7-.763,1.7-1.7v-.722c0-.564.271-1.068.708-1.315,1.723-.974,2.792-2.799,2.792-4.762,0-1.666-.743-3.224-2.038-4.274C7.666.175,5.969-.226,4.307.126,2.195.572.505,2.302.102,4.431c-.447,2.359.604,4.646,2.679,5.825.444.252.72.767.72,1.342Zm3,.702c0,.386-.314.7-.7.7h-.6c-.405,0-.7-.337-.7-.802v-.601c0-.206-.031-.404-.075-.598h2.148c-.041.187-.073.379-.073.578v.722ZM1.084,4.617c.329-1.737,1.708-3.149,3.43-3.513.325-.069.652-.103.976-.103,1.035,0,2.035.346,2.843,1,1.06.86,1.668,2.134,1.668,3.498,0,1.604-.875,3.095-2.284,3.892-.27.153-.487.372-.675.617-.014-.001-.027-.008-.041-.008h-1v-3.571c.86-.224,1.5-1,1.5-1.929,0-.276-.224-.5-.5-.5s-.5.224-.5.5c0,.551-.448,1-1,1s-1-.449-1-1c0-.276-.224-.5-.5-.5s-.5.224-.5.5c0,.929.64,1.705,1.5,1.929v3.571h-1c-.017,0-.03.008-.047.009-.189-.247-.407-.469-.679-.623-1.697-.965-2.557-2.837-2.19-4.769Zm20.878,6.609c-1.296-1.051-2.993-1.452-4.655-1.1-2.111.446-3.802,2.176-4.205,4.305-.447,2.359.604,4.646,2.679,5.825.444.252.72.767.72,1.342v.601c0,1.027.73,1.802,1.7,1.802h.6c.938,0,1.7-.763,1.7-1.7v-.722c0-.564.271-1.068.708-1.315,1.723-.974,2.792-2.799,2.792-4.762,0-1.666-.743-3.224-2.038-4.274Zm-2.462,11.074c0,.386-.314.7-.7.7h-.6c-.405,0-.7-.337-.7-.802v-.601c0-.206-.031-.404-.075-.598h2.148c-.041.187-.073.379-.073.578v.722Zm1.216-2.908c-.27.153-.487.372-.675.617-.014-.001-.027-.008-.041-.008h-1v-3.571c.86-.224,1.5-1,1.5-1.929,0-.276-.224-.5-.5-.5s-.5.224-.5.5c0,.551-.448,1-1,1s-1-.449-1-1c0-.276-.224-.5-.5-.5s-.5.224-.5.5c0,.929.64,1.705,1.5,1.929v3.571h-1c-.017,0-.03.008-.047.009-.189-.247-.407-.469-.679-.623-1.697-.965-2.557-2.837-2.19-4.769.329-1.737,1.708-3.149,3.43-3.513.325-.069.652-.103.976-.103,1.035,0,2.035.346,2.843,1,1.06.86,1.668,2.134,1.668,3.498,0,1.604-.875,3.095-2.284,3.892Zm-8.716,4.108c0,.276-.224.5-.5.5h-3c-1.93,0-3.5-1.57-3.5-3.5v-3.199l-2.154,2.06c-.2.192-.516.184-.707-.016-.19-.2-.184-.516.016-.707l2.32-2.218c.535-.536,1.508-.544,2.059.008l2.312,2.21c.199.191.206.507.016.707-.098.103-.229.154-.361.154-.124,0-.249-.046-.346-.139l-2.154-2.06v3.198c0,1.378,1.121,2.5,2.5,2.5h3c.276,0,.5.224.5.5ZM15.5,1h-3c-.276,0-.5-.224-.5-.5s.224-.5.5-.5h3c1.93,0,3.5,1.57,3.5,3.5v3.199l2.154-2.06c.199-.191.516-.184.707.016.19.2.184.516-.016.707l-2.32,2.218c-.268.268-.635.42-1.025.42s-.758-.152-1.033-.428l-2.312-2.21c-.199-.191-.206-.507-.016-.707.189-.199.508-.207.707-.016l2.154,2.06v-3.198c0-1.378-1.121-2.5-2.5-2.5Z"/>
</svg>
