<svg id="Layer_1" viewBox="0 0 24 24" xmlns="http://www.w3.org/2000/svg" data-name="Layer 1"><path d="m14 4c0 .276-.224.5-.5.5h-1v1c0 .276-.224.5-.5.5s-.5-.224-.5-.5v-1h-1c-.276 0-.5-.224-.5-.5s.224-.5.5-.5h1v-1c0-.276.224-.5.5-.5s.5.224.5.5v1h1c.276 0 .5.224.5.5zm4.521 13.583c-.857-.836-2.35-.735-3.126.174l-3.394 3.972-3.391-3.984c-.768-.9-2.271-1.008-3.12-.171-1.513 1.413-2.49 3.739-2.49 5.926 0 .276.224.5.5.5s.5-.224.5-.5c0-1.894.873-3.982 2.172-5.196.456-.444 1.277-.382 1.683.097l3.764 4.423c.188.232.572.232.761 0l3.768-4.41c.416-.485 1.224-.553 1.688-.102 1.314 1.232 2.163 3.268 2.163 5.187 0 .276.224.5.5.5s.5-.224.5-.5c0-2.182-.974-4.505-2.479-5.917zm.713-1.583c-.23 0-.437-.159-.488-.393-.551-2.503-1.253-5.686-1.293-5.852-.152-.636-.384-1.218-.668-1.755h-2.957c-1.141 1.853-3.147 3-5.327 3h-1.399c.465 2.279 2.484 4 4.899 4 1.39 0 2.682-.557 3.637-1.568.188-.2.506-.21.707-.02.2.189.209.506.02.707-1.146 1.213-2.695 1.882-4.363 1.882-2.818 0-5.181-1.955-5.823-4.577-.255 1.153-.624 2.804-.927 4.181-.051.223-.242.392-.48.392-.318.007-.557-.308-.493-.609.55-2.497 1.258-5.7 1.298-5.865.14-.588.352-1.132.596-1.652-.103-.092-.171-.221-.171-.37v-5.001c0-1.378 1.122-2.5 2.5-2.5h7c1.379 0 2.5 1.122 2.5 2.5v5c0 .149-.068.279-.171.37.243.519.455 1.063.596 1.652.04.166.744 3.359 1.297 5.87.072.307-.174.611-.488.607zm-6.621-8h-5.188c-.277.631-.425 1.3-.425 2h1.5c1.617 0 3.122-.753 4.113-2zm4.387-5.5c0-.827-.673-1.5-1.5-1.5h-7c-.827 0-1.5.673-1.5 1.5v4.5h10z"/></svg>