<svg id="Layer_1" viewBox="0 0 24 24" xmlns="http://www.w3.org/2000/svg" data-name="Layer 1"><path d="m20.5 3h-1.68l-.68-.657c-.474-.457-1.217-.46-1.692-.003l-.923.886c-.009 0-.905-.861-.905-.861-.47-.469-1.237-.472-1.712-.008l-.889.867c-.007 0-.928-.868-.928-.868-.474-.462-1.243-.46-1.711.009 0 0-.875.855-.88.855-.009 0-.943-.876-.943-.876-.479-.461-1.227-.458-1.701.01l-.657.646h-1.699c-1.93 0-3.5 1.57-3.5 3.5v11c0 1.93 1.57 3.5 3.5 3.5h1.699l.657.646c.473.466 1.22.471 1.7.01l.918-.881c.009 0 .905.861.905.861.469.468 1.237.472 1.712.008 0 0 .921-.867.927-.867l.89.868c.473.462 1.241.459 1.711-.009 0 0 .875-.855.88-.855.009 0 .948.882.948.882.237.227.541.34.844.34.306 0 .611-.114.849-.344l.679-.657h1.68c1.93 0 3.5-1.57 3.5-3.5v-11.002c0-1.93-1.57-3.5-3.5-3.5zm-19.5 14.5v-.5h1.5c.276 0 .5-.224.5-.5s-.224-.5-.5-.5h-1.5v-2h1.5c.276 0 .5-.224.5-.5s-.224-.5-.5-.5h-1.5v-2h1.5c.276 0 .5-.224.5-.5s-.224-.5-.5-.5h-1.5v-2h1.5c.276 0 .5-.224.5-.5s-.224-.5-.5-.5h-1.5v-.5c0-1.379 1.122-2.5 2.5-2.5h1.5v16h-1.5c-1.378 0-2.5-1.121-2.5-2.5zm5.864 3.435c-.086.082-.221.08-.306-.002l-.558-.548v-16.77l.558-.548c.086-.084.221-.084.307-.002l1.136 1.09v15.69l-1.136 1.09zm3.53-.008c-.087.085-.225.082-.31 0l-1.084-1.076v-15.701l1.085-1.076c.084-.082.223-.085.309-.002l1.106 1.08v15.695l-1.106 1.079zm3.521 0c-.084.084-.222.086-.309.002l-1.106-1.08v-15.696l1.106-1.079c.087-.086.224-.082.31 0l1.084 1.076v15.7l-1.085 1.076zm3.225.014-1.14-1.095v-15.691l1.14-1.094c.086-.083.221-.082.306 0l.555.536v16.805l-.554.536c-.086.082-.221.081-.306 0zm5.86-3.439c0 1.379-1.122 2.5-2.5 2.5h-1.5v-16.002h1.5c1.378 0 2.5 1.121 2.5 2.5v11zm-1-9.5c0 .552-.448 1-1 1s-1-.448-1-1 .448-1 1-1 1 .448 1 1zm0 4c0 .552-.448 1-1 1s-1-.448-1-1 .448-1 1-1 1 .448 1 1zm0 4c0 .552-.448 1-1 1s-1-.448-1-1 .448-1 1-1 1 .448 1 1z"/></svg>