<?xml version="1.0" encoding="UTF-8"?>
<svg xmlns="http://www.w3.org/2000/svg" id="Layer_1" data-name="Layer 1" viewBox="0 0 24 24">
  <path d="M19.5,0H4.5C2.019,0,0,2.019,0,4.5v15c0,2.481,2.019,4.5,4.5,4.5h15c2.481,0,4.5-2.019,4.5-4.5V4.5c0-2.481-2.019-4.5-4.5-4.5Zm3.5,19.5c0,1.93-1.57,3.5-3.5,3.5H4.5c-1.93,0-3.5-1.57-3.5-3.5V4.5c0-1.93,1.57-3.5,3.5-3.5h15c1.93,0,3.5,1.57,3.5,3.5v15Zm-6.822-12.338c-.508-.255-1.107-.204-1.533,.114l-5.542,3.524c-.039,.029-.068,.065-.104,.097v-2.397c0-.827-.673-1.5-1.5-1.5s-1.5,.673-1.5,1.5v7c0,.827,.673,1.5,1.5,1.5s1.5-.673,1.5-1.5v-2.403c.045,.041,.083,.086,.134,.124l5.481,3.483c.264,.196,.575,.296,.889,.296,.229,0,.459-.054,.673-.161,.507-.256,.822-.767,.822-1.335v-7.008c0-.568-.315-1.079-.822-1.334ZM8,15.5c0,.275-.224,.5-.5,.5s-.5-.225-.5-.5v-7c0-.276,.224-.5,.5-.5s.5,.224,.5,.5v7Zm8,.004c0,.19-.102,.355-.272,.441-.17,.087-.363,.068-.547-.064l-5.481-3.484c-.127-.094-.2-.239-.2-.397s.073-.303,.17-.377l5.541-3.524c.088-.065,.19-.099,.293-.099,.076,0,.152,.018,.224,.054,.17,.086,.272,.251,.272,.441v7.008Z"/>
</svg>
