<?xml version="1.0" encoding="UTF-8"?>
<svg xmlns="http://www.w3.org/2000/svg" id="Layer_1" data-name="Layer 1" viewBox="0 0 24 24">
  <path d="m19.655,14.945c-.648-.888-1.808-1.945-3.655-1.945s-3.006,1.058-3.655,1.945c-.461.631-.461,1.479,0,2.109.648.888,1.809,1.945,3.655,1.945s3.007-1.058,3.654-1.945c.462-.631.462-1.479,0-2.109Zm-.808,1.52c-.512.7-1.421,1.535-2.848,1.535s-2.336-.835-2.848-1.535c-.203-.278-.203-.651,0-.93.512-.7,1.421-1.535,2.848-1.535s2.336.835,2.848,1.535c.203.278.203.651,0,.93Zm-1.848-.465c0,.552-.448,1-1,1s-1-.447-1-1,.448-1,1-1,1,.448,1,1Zm6.854,7.146l-3.276-3.276c.886-1.046,1.423-2.396,1.423-3.87,0-3.309-2.691-6-6-6s-6,2.691-6,6,2.691,6,6,6c1.475,0,2.825-.537,3.87-1.423l3.276,3.276c.098.098.226.146.354.146s.256-.049.354-.146c.195-.195.195-.512,0-.707Zm-12.854-7.146c0-2.757,2.243-5,5-5s5,2.243,5,5-2.243,5-5,5-5-2.243-5-5Zm2.5,7H4.5c-1.93,0-3.5-1.57-3.5-3.5V4.5c0-1.93,1.57-3.5,3.5-3.5h5.515c.334,0,.664.029.985.088v5.412c0,1.379,1.122,2.5,2.5,2.5h5.813c.154,0,.3-.071.395-.193s.128-.281.09-.431c-.289-1.13-.877-2.163-1.702-2.987l-3.484-3.484c-1.228-1.228-2.86-1.904-4.597-1.904h-5.515C2.019,0,0,2.019,0,4.5v15c0,2.481,2.019,4.5,4.5,4.5h9c.276,0,.5-.224.5-.5s-.224-.5-.5-.5ZM12,1.368c.706.272,1.354.692,1.904,1.243l3.484,3.484c.543.543.965,1.192,1.24,1.904h-5.129c-.827,0-1.5-.673-1.5-1.5V1.368Z"/>
</svg>
