<?xml version="1.0" encoding="UTF-8"?>
<svg xmlns="http://www.w3.org/2000/svg" id="Layer_1" data-name="Layer 1" viewBox="0 0 24 24">
  <path d="M18.961,13.023c-.3-3.718-1.007-7.234-1.563-9.563-.485-2.037-2.286-3.46-4.379-3.46h-1.519c-.276,0-.5,.224-.5,.5s.224,.5,.5,.5h1.519c1.628,0,3.029,1.107,3.407,2.691,.335,1.403,.725,3.248,1.046,5.3-1.509-.001-5.77,.177-9.283,2.06l-1.468-4.052h2.78c.276,0,.5-.224,.5-.5s-.224-.5-.5-.5H3.5c-.276,0-.5,.224-.5,.5s.224,.5,.5,.5h2.156l1.655,4.567c-1.58,1.028-2.922,2.467-3.67,4.469-2.036,.185-3.642,1.881-3.642,3.964,0,2.206,1.794,4,4,4s4-1.794,4-4c0-1.966-1.429-3.597-3.301-3.929,2.462-5.78,11.064-6.081,12.92-6.077,.137,.981,.253,1.997,.339,3.033-2.779,.273-4.958,2.623-4.958,5.473,0,3.033,2.467,5.5,5.5,5.5s5.5-2.467,5.5-5.5c0-2.877-2.222-5.241-5.039-5.477Zm-11.961,6.977c0,1.654-1.346,3-3,3s-3-1.346-3-3,1.346-3,3-3,3,1.346,3,3Zm11.5,3c-2.481,0-4.5-2.019-4.5-4.5s2.019-4.5,4.5-4.5,4.5,2.019,4.5,4.5-2.019,4.5-4.5,4.5Zm1-4.5c0,.552-.448,1-1,1s-1-.448-1-1,.448-1,1-1,1,.448,1,1Z"/>
</svg>
