<?xml version="1.0" encoding="UTF-8"?>
<svg xmlns="http://www.w3.org/2000/svg" id="Layer_1" data-name="Layer 1" viewBox="0 0 24 24">
  <path d="m10.592,5c1.378,0,2.5-1.121,2.5-2.5s-1.121-2.5-2.5-2.5-2.5,1.121-2.5,2.5,1.122,2.5,2.5,2.5Zm0-4c.827,0,1.5.673,1.5,1.5s-.673,1.5-1.5,1.5-1.5-.673-1.5-1.5.673-1.5,1.5-1.5Zm13.083,7.031c-.259-.098-.547.035-.644.294l-1,2.681c-.011,0-.02-.006-.031-.006h-3.5c-.276,0-.5.224-.5.5s.224.5.5.5h3.161l-2.877,7.714c-.506,1.367-1.825,2.286-3.283,2.286h-4.5v-3.939c0-.525-.268-1.004-.717-1.28l-2.381-1.457,2.772-6.772,1.424,2.657c.261.488.768.791,1.322.791h2.08c.276,0,.5-.224.5-.5s-.224-.5-.5-.5h-2.08c-.185,0-.354-.101-.44-.264,0,0-1.853-3.451-1.875-3.478-.667-.8-1.647-1.259-2.689-1.259H3.855c-.604,0-1.146.359-1.381.915l-1.011,2.39c-.107.255.011.548.266.656.251.104.547-.012.655-.266l1.011-2.39c.079-.186.259-.306.46-.306h2.4l-1.975,4.815c-.461,1.124-.05,2.412.983,3.065l4.497,2.752c.15.093.24.252.24.428v3.939H.5c-.276,0-.5.224-.5.5s.224.5.5.5h1.5v.5c0,.276.224.5.5.5s.5-.224.5-.5v-.5h12v.5c0,.276.224.5.5.5s.5-.224.5-.5v-.539c1.67-.189,3.13-1.301,3.721-2.899l4.248-11.387c.097-.259-.035-.547-.294-.644ZM5.791,14.031c-.616-.39-.863-1.162-.586-1.837l2.094-5.194h1.118c.589,0,1.143.213,1.588.582-.01.018-2.965,7.213-2.965,7.213l-1.247-.763ZM0,18.5c0-.276.224-.5.5-.5h2.341c.2,0,.38-.119.459-.304l.383-.894c.109-.254.403-.37.657-.263.253.109.371.403.262.657l-.383.894c-.236.552-.778.909-1.378.909H.5c-.276,0-.5-.224-.5-.5Z"/>
</svg>
