<svg id="Layer_1" viewBox="0 0 24 24" xmlns="http://www.w3.org/2000/svg" data-name="Layer 1"><path d="m11 21.5v2c0 .276-.224.5-.5.5s-.5-.224-.5-.5v-2c0-.276.224-.5.5-.5s.5.224.5.5zm4.677-21.5h-3.354c-1.881 0-3.655.612-5.132 1.77-.217.171-.255.484-.085.702.171.218.484.255.702.085 1.299-1.019 2.86-1.557 4.515-1.557h3.354c.584 0 1.15.076 1.695.206-.339.777-1.238 2.651-2.763 4.557-.172.216-.138.53.078.703.215.171.529.138.703-.078 1.685-2.107 2.62-4.123 2.942-4.882 2.728 1.066 4.668 3.717 4.668 6.817v1.631c0 .307-.133.6-.365.802-.219.19-.493.272-.769.235-2.134-.296-4.168-1.239-6.046-2.804-.211-.176-.526-.148-.704.063-.177.212-.148.527.063.704.491.41.994.778 1.506 1.108-.396.133-.685.496-.685.937 0 .552.448 1 1 1s1-.448 1-1c0-.076-.027-.143-.043-.215 1.296.639 2.637 1.095 4.036 1.215.472 0 .934-.173 1.299-.49.45-.393.708-.959.708-1.556v-1.631c0-4.589-3.733-8.322-8.323-8.322zm7.192 14.005c-.252-.113-.549.002-.659.255-.025.058-2.601 5.74-8.21 5.74-.81 0-1.601-.118-2.352-.352-.27-.084-.545.066-.626.329-.082.264.065.544.329.626.848.263 1.738.396 2.648.396 1.11 0 2.105-.198 3-.515v3.015c0 .276.224.5.5.5s.5-.224.5-.5v-3.433c3.451-1.713 5.038-5.208 5.124-5.403.112-.253-.002-.548-.255-.659zm-18.369-2.005c-.827 0-1.5-.673-1.5-1.5s.673-1.5 1.5-1.5 1.5.673 1.5 1.5-.673 1.5-1.5 1.5zm0-1c.275 0 .5-.225.5-.5s-.225-.5-.5-.5-.5.225-.5.5.225.5.5.5zm6.5-.5c0 .827-.673 1.5-1.5 1.5s-1.5-.673-1.5-1.5.673-1.5 1.5-1.5 1.5.673 1.5 1.5zm-1 0c0-.275-.225-.5-.5-.5s-.5.225-.5.5.225.5.5.5.5-.225.5-.5zm-.115 3.014c.164.298.153.646-.027.931-.455.718-1.477 1.555-2.854 1.555s-2.4-.836-2.857-1.552c-.183-.286-.193-.634-.03-.933.175-.318.513-.516.884-.516h4.003c.37 0 .709.198.883.515zm-.871.394-2.013.092h-2.002c.311.411 1.031.999 2.004.999s1.691-.587 2.011-1.091zm-2.014 6.092c-3.271 0-7-4.794-7-9 0-4.121 2.879-7 7-7s7 2.879 7 7c0 4.206-3.729 9-7 9zm6-9c0-3.589-2.411-6-6-6s-6 2.411-6 6c0 3.663 3.252 8 6 8s6-4.337 6-8z"/></svg>