<?xml version="1.0" encoding="UTF-8"?>
<svg xmlns="http://www.w3.org/2000/svg" id="Layer_1" data-name="Layer 1" viewBox="0 0 24 24">
  <path d="m13.102,6.543l1.942-1.941c.294-.294.457-.686.457-1.102s-.162-.808-.457-1.102l-1.941-1.942c-.589-.589-1.615-.589-2.204,0h0l-1.942,1.941c-.294.294-.457.686-.457,1.102s.162.808.457,1.102l1.941,1.942c.172.172.378.299.602.375v1.62c-1.555.241-2.75,1.589-2.75,3.211s1.195,2.97,2.75,3.211v2.039h-.5c-1.103,0-2,.897-2,2v2c0,1.103.897,2,2,2h2c1.103,0,2-.897,2-2v-2c0-1.103-.897-2-2-2h-.5v-2.039c1.555-.241,2.75-1.589,2.75-3.211s-1.195-2.97-2.75-3.211v-1.62c.224-.076.43-.202.602-.375Zm.898,12.457v2c0,.552-.449,1-1,1h-2c-.551,0-1-.448-1-1v-2c0-.552.449-1,1-1h2c.551,0,1,.448,1,1ZM9.664,3.894c-.105-.105-.164-.245-.164-.394s.058-.289.164-.395l1.942-1.942h0c.105-.105.245-.164.394-.164s.289.058.395.164l1.942,1.942c.105.105.164.245.164.394s-.058.289-.164.395l-1.942,1.942c-.21.211-.578.211-.789,0l-1.942-1.942Zm4.586,7.856c0,1.241-1.009,2.25-2.25,2.25s-2.25-1.009-2.25-2.25,1.009-2.25,2.25-2.25,2.25,1.009,2.25,2.25Zm-6.25,8.75c0,.5-.144.797-.439,1.093l-2.272,2.272c-.098.098-.226.146-.354.146s-.256-.049-.354-.146c-.195-.195-.195-.512,0-.707l2.158-2.158h-3.239c-1.93,0-3.5-1.57-3.5-3.5v-3c0-1.93,1.57-3.5,3.5-3.5h3c.276,0,.5.224.5.5s-.224.5-.5.5h-3c-1.378,0-2.5,1.121-2.5,2.5v3c0,1.379,1.122,2.5,2.5,2.5h3.175l-2.146-2.146c-.195-.195-.195-.512,0-.707s.512-.195.707,0l2.325,2.325c.269.269.439.528.439,1.028ZM24,6.5v3c0,1.93-1.57,3.5-3.5,3.5h-3.239l2.157,2.158c.195.195.195.512,0,.707-.098.098-.226.146-.354.146s-.256-.049-.354-.146l-2.272-2.272c-.283-.283-.439-.593-.439-1.093s.171-.76.439-1.028l2.325-2.325c.195-.195.512-.195.707,0s.195.512,0,.707l-2.146,2.146h3.175c1.378,0,2.5-1.122,2.5-2.5v-3c0-1.378-1.122-2.5-2.5-2.5h-3c-.276,0-.5-.224-.5-.5s.224-.5.5-.5h3c1.93,0,3.5,1.57,3.5,3.5Z"/>
</svg>
