<svg id="Layer_1" viewBox="0 0 24 24" xmlns="http://www.w3.org/2000/svg" data-name="Layer 1"><path d="m23.078 6.589c-.985-1.488-2.613-2.661-4.954-3.576-.684-.312-1.359-.692-2.014-1.06-.613-.345-1.249-.703-1.904-1.013-1.958-.924-3.968-1.15-5.976-.667-1.831.441-3.376 1.449-4.357 2.853-.435.666-.717 1.387-.991 2.084-.378.962-.734 1.869-1.498 2.636-.905 1.216-1.384 2.463-1.384 3.606 0 1.071.443 2.103.872 3.101.199.463.387.901.52 1.318.187.587.235 1.209.287 1.869.051.648.104 1.318.296 1.98.442 1.52 1.475 2.652 2.907 3.186 1.097.409 2.466.285 3.674.177.521-.047 1.014-.091 1.444-.091 1.156 0 2.184.273 3.178.538.927.246 1.871.498 2.873.498.854 0 1.751-.183 2.716-.706 1.627-.761 2.599-2.445 2.66-4.577.106-.898.279-2.07.669-3.174.201-.571.455-1.115.724-1.691.164-.353.328-.705.479-1.063 1.001-2.362.925-4.516-.22-6.227zm-.701 5.838c-.146.347-.306.688-.465 1.03-.267.572-.542 1.164-.76 1.78-.423 1.197-.605 2.44-.722 3.433-.025.844-.279 2.9-2.114 3.758-1.776.962-3.215.578-4.882.134-1.056-.281-2.147-.571-3.435-.571-.476 0-.99.046-1.534.095-1.156.104-2.35.212-3.234-.118-1.129-.421-1.944-1.319-2.296-2.529-.164-.563-.211-1.154-.26-1.779-.054-.686-.11-1.395-.331-2.092-.147-.464-.354-.945-.554-1.41-.389-.905-.791-1.841-.791-2.707 0-.926.41-1.967 1.138-2.954.864-.858 1.276-1.908 1.675-2.923.268-.681.521-1.323.89-1.89.832-1.19 2.168-2.057 3.763-2.44 1.78-.429 3.566-.226 5.313.599.624.295 1.243.643 1.842.98.672.378 1.366.769 2.114 1.109 2.168.847 3.643 1.896 4.51 3.207v.002c.964 1.439 1.008 3.216.132 5.284zm-9.377-6.427c0 .552-.448 1-1 1s-1-.448-1-1 .448-1 1-1 1 .448 1 1zm3 6c-.552 0-1-.448-1-1s.448-1 1-1 1 .448 1 1-.448 1-1 1zm-5 4c0 .552-.448 1-1 1s-1-.448-1-1 .448-1 1-1 1 .448 1 1zm-4-5c0 .552-.448 1-1 1s-1-.448-1-1 .448-1 1-1 1 .448 1 1zm11 7c0 .552-.448 1-1 1s-1-.448-1-1 .448-1 1-1 1 .448 1 1z"/></svg>