<?xml version="1.0" encoding="UTF-8"?>
<svg xmlns="http://www.w3.org/2000/svg" id="Layer_1" data-name="Layer 1" viewBox="0 0 24 24">
  <path d="m6.5,11c2.481,0,4.5-2.019,4.5-4.5s-2.019-4.5-4.5-4.5S2,4.019,2,6.5s2.019,4.5,4.5,4.5Zm0-8c1.93,0,3.5,1.57,3.5,3.5s-1.57,3.5-3.5,3.5-3.5-1.57-3.5-3.5,1.57-3.5,3.5-3.5Zm4.042,13.3c.304.695.458,1.436.458,2.2v5c0,.276-.224.5-.5.5s-.5-.224-.5-.5v-5c0-.626-.126-1.231-.374-1.8-.111-.253.005-.548.258-.658.254-.109.548.006.658.258Zm12.458-12.3s0,0,0,0V.5c0-.132-.052-.26-.146-.354s-.221-.146-.354-.146c-.223,0-.553.147-.614.362-.299,1.041-1.168,1.638-2.386,1.638h-2.5c-1.654,0-3,1.346-3,3,0,.641.206,1.233.55,1.721l1.947,4.924c.005.013.019.02.026.032l-1.562.956c-.393.24-.844.367-1.305.367H5.5c-3.033,0-5.5,2.468-5.5,5.5v5c0,.276.224.5.5.5s.5-.224.5-.5v-5c0-2.481,2.019-4.5,4.5-4.5h8.155c.645,0,1.276-.178,1.826-.514l3.053-1.867c.754-.446.678-1.417.465-1.896l-.676-1.724h1.177c1.217,0,2.087.597,2.386,1.638.062.214.39.362.613.362.276,0,.5-.224.5-.5v-3.5s0,0,0,0c.551,0,1-.449,1-1s-.449-1-1-1Zm-4.969,6.686c-.056.086-.131.155-.218.202h0c-.087.048-.186.073-.289.073h-.222l-1.236-3.125c.296.098.606.164.934.164h.249l.828,2.109c.083.188.066.404-.046.577Zm3.968-2.763c-.615-.593-1.479-.923-2.499-.923h-2.5c-1.103,0-2-.897-2-2s.897-2,2-2h2.5c1.021,0,1.885-.33,2.5-.923v5.846Z"/>
</svg>
