<?xml version="1.0" encoding="UTF-8"?>
<svg xmlns="http://www.w3.org/2000/svg" id="Layer_1" data-name="Layer 1" viewBox="0 0 24 24">
  <path d="M14.299,22.018c-.282,0-.569-.064-.841-.2-.455-.228-.791-.62-.945-1.104-.154-.485-.107-1,.133-1.448l2.547-4.871-3.891-.432c-.616-.068-1.116-.478-1.305-1.066-.19-.59-.022-1.214,.438-1.628L20.551,2.548h0c.626-.539,1.483-.66,2.232-.313,.751,.345,1.217,1.071,1.217,1.897v13.861c0,.628-.357,1.173-.934,1.424-.578,.248-1.219,.139-1.678-.29l-2.788-3.162-2.658,5.062c-.34,.633-.979,.991-1.644,.991ZM21.203,3.306L11.097,12.018c-.238,.214-.173,.491-.148,.571,.026,.08,.135,.343,.464,.379l4.618,.513c.165,.019,.31,.116,.387,.262,.077,.146,.078,.321,.002,.467l-2.889,5.522c-.114,.213-.136,.452-.064,.678,.072,.226,.228,.408,.439,.514,.42,.212,.93,.052,1.154-.365l2.993-5.7c.076-.146,.22-.244,.383-.264,.159-.025,.325,.043,.435,.166l3.235,3.672c.212,.193,.484,.102,.562,.067,.078-.033,.332-.17,.332-.506V4.132c0-.437-.237-.807-.634-.989-.397-.182-.832-.121-1.163,.163h0ZM0,21c0,.552,.448,1,1,1s1-.448,1-1-.448-1-1-1-1,.448-1,1Zm4,0c0,.552,.448,1,1,1s1-.448,1-1-.448-1-1-1-1,.448-1,1Zm4,0c0,.552,.448,1,1,1s1-.448,1-1-.448-1-1-1-1,.448-1,1Z"/>
</svg>
