<svg id="Layer_1" viewBox="0 0 24 24" xmlns="http://www.w3.org/2000/svg" data-name="Layer 1"><path d="m22.5 13h-10c-.827 0-1.5.673-1.5 1.5v8c0 .827.673 1.5 1.5 1.5h7c2.481 0 4.5-2.019 4.5-4.5v-5c0-.827-.673-1.5-1.5-1.5zm.5 6.5c0 1.93-1.57 3.5-3.5 3.5h-7c-.275 0-.5-.224-.5-.5v-8c0-.276.225-.5.5-.5h10c.275 0 .5.224.5.5zm-15.5-6.5h-6c-.827 0-1.5.673-1.5 1.5v5c0 2.481 2.019 4.5 4.5 4.5h3c.827 0 1.5-.673 1.5-1.5v-8c0-.827-.673-1.5-1.5-1.5zm.5 9.5c0 .276-.225.5-.5.5h-3c-1.93 0-3.5-1.57-3.5-3.5v-5c0-.276.225-.5.5-.5h6c.275 0 .5.224.5.5zm11.5-22.5h-15c-2.481 0-4.5 2.019-4.5 4.5v5c0 .827.673 1.5 1.5 1.5h21c.827 0 1.5-.673 1.5-1.5v-5c0-2.481-2.019-4.5-4.5-4.5zm3.5 9.5c0 .276-.225.5-.5.5h-21c-.275 0-.5-.224-.5-.5v-5c0-1.93 1.57-3.5 3.5-3.5h15c1.93 0 3.5 1.57 3.5 3.5z"/></svg>