<?xml version="1.0" encoding="UTF-8"?>
<svg xmlns="http://www.w3.org/2000/svg" id="Layer_1" data-name="Layer 1" viewBox="0 0 24 24">
  <path d="M20.5,13H3.5c-1.93,0-3.5,1.57-3.5,3.5v2c0,1.391,.822,2.585,2,3.149v1.851c0,.276,.224,.5,.5,.5s.5-.224,.5-.5v-1.551c.165,.024,.329,.051,.5,.051H20.5c.171,0,.335-.027,.5-.051v1.551c0,.276,.224,.5,.5,.5s.5-.224,.5-.5v-1.851c1.178-.564,2-1.758,2-3.149v-2c0-1.93-1.57-3.5-3.5-3.5Zm2.5,5.5c0,1.379-1.121,2.5-2.5,2.5H3.5c-1.379,0-2.5-1.121-2.5-2.5v-2c0-1.379,1.121-2.5,2.5-2.5H20.5c1.379,0,2.5,1.121,2.5,2.5v2Zm-5.968-11.416c-1.344-1.344-3.131-2.084-5.032-2.084s-3.688,.74-5.032,2.084c-.195,.195-.512,.195-.707,0s-.195-.512,0-.707c1.533-1.533,3.571-2.377,5.739-2.377s4.206,.844,5.739,2.377c.195,.195,.195,.512,0,.707s-.512,.195-.707,0Zm-2.265,2.062c.195,.195,.195,.512,0,.707s-.512,.195-.707,0c-1.1-1.102-3.021-1.102-4.121,0-.195,.195-.512,.195-.707,0s-.195-.512,0-.707c1.477-1.479,4.059-1.479,5.535,0ZM3.614,4.181c-.195-.195-.195-.512,0-.707C5.854,1.233,8.831,0,12,0s6.146,1.233,8.386,3.474c.195,.195,.195,.512,0,.707s-.512,.195-.707,0c-2.05-2.051-4.777-3.181-7.679-3.181s-5.629,1.13-7.679,3.181c-.195,.195-.512,.195-.707,0Zm1.386,13.319c0,.552-.448,1-1,1s-1-.448-1-1,.448-1,1-1,1,.448,1,1Zm3,0c0,.552-.448,1-1,1s-1-.448-1-1,.448-1,1-1,1,.448,1,1Zm13,0c0,.276-.224,.5-.5,.5h-7c-.276,0-.5-.224-.5-.5s.224-.5,.5-.5h7c.276,0,.5,.224,.5,.5Z"/>
</svg>
