<?xml version="1.0" encoding="UTF-8"?>
<svg xmlns="http://www.w3.org/2000/svg" id="Layer_1" data-name="Layer 1" viewBox="0 0 24 24">
  <path d="M23.683,13.454c-2.101-4.575-6.571-7.844-11.63-8.372-.271-.032-.521,.17-.55,.444-.029,.274,.169,.521,.444,.55,.355,.038,.705,.094,1.053,.16v4.763h-1.5c-.276,0-.5,.224-.5,.5s.224,.5,.5,.5h10.217c.397,.592,.756,1.214,1.058,1.872,.917,1.849-.635,4.195-2.688,4.128h-7.587c-.276,0-.5,.224-.5,.5s.224,.5,.5,.5h7.587c2.759,.088,4.829-3.064,3.596-5.546Zm-9.683-2.454V6.468c2.743,.74,5.193,2.336,6.981,4.532h-6.981Zm-5.726,10.603c.219,.167,.261,.481,.094,.701-.848,1.11-1.839,1.696-2.868,1.696-3.084,0-5.5-5.271-5.5-12S2.416,0,5.5,0c1.029,0,2.021,.586,2.868,1.696,.167,.22,.125,.534-.094,.701-.221,.168-.534,.124-.701-.094-.454-.595-1.182-1.304-2.073-1.304C3.061,1,1,6.038,1,12s2.061,11,4.5,11c.891,0,1.619-.709,2.073-1.304,.167-.218,.48-.262,.701-.094Zm8.312-.524c-.231-.146-.541-.079-.69,.153-.513,.807-1.346,1.769-2.396,1.769-2.439,0-4.5-5.038-4.5-11S11.061,1,13.5,1c1.092,0,2.2,1.09,3.043,2.991,.112,.255,.413,.365,.659,.254,.253-.112,.367-.407,.255-.66-1.024-2.312-2.43-3.585-3.957-3.585-1.876,0-3.502,1.958-4.49,5.002-.004,0-.007-.002-.01-.002H4c-.276,0-.5,.224-.5,.5s.224,.5,.5,.5h1v5h-1.5c-.276,0-.5,.224-.5,.5s.224,.5,.5,.5h4.5c0,2.203,.263,4.243,.719,6H4.5c-.276,0-.5,.224-.5,.5s.224,.5,.5,.5h4.5s.007-.002,.01-.002c.988,3.044,2.613,5.002,4.49,5.002,1.191,0,2.312-.771,3.24-2.231,.148-.233,.079-.542-.153-.69ZM6,11V6h2.719c-.386,1.487-.631,3.179-.697,5h-2.022Z"/>
</svg>
