<svg id="Layer_1" viewBox="0 0 24 24" xmlns="http://www.w3.org/2000/svg" data-name="Layer 1"><path d="m5.5 1h-3.793l4.147 4.146c.195.195.195.512 0 .707s-.512.195-.707 0l-4.147-4.146v3.793c0 .276-.224.5-.5.5s-.5-.224-.5-.5v-4c0-.827.673-1.5 1.5-1.5h4c.276 0 .5.224.5.5s-.224.5-.5.5zm17-1h-4c-.276 0-.5.224-.5.5s.224.5.5.5h3.793l-4.146 4.146c-.195.195-.195.512 0 .707s.512.195.707 0l4.146-4.146v3.793c0 .276.224.5.5.5s.5-.224.5-.5v-4c0-.827-.673-1.5-1.5-1.5zm-16.646 18.146c-.195-.195-.512-.195-.707 0l-4.147 4.147v-3.793c0-.276-.224-.5-.5-.5s-.5.224-.5.5v4c0 .827.673 1.5 1.5 1.5h4c.276 0 .5-.224.5-.5s-.224-.5-.5-.5h-3.793l4.146-4.146c.195-.195.195-.512 0-.707zm17.646-.146c-.276 0-.5.224-.5.5v3.793l-4.146-4.146c-.195-.195-.512-.195-.707 0s-.195.512 0 .707l4.146 4.146h-3.793c-.276 0-.5.224-.5.5s.224.5.5.5h4c.827 0 1.5-.673 1.5-1.5v-4c0-.276-.224-.5-.5-.5zm-5.5-3.824c0 .908-.49 1.745-1.284 2.186l-3.483 1.936c-.376.208-.796.312-1.215.312-.43 0-.859-.109-1.24-.328l-3.515-2.008c-.777-.445-1.26-1.276-1.26-2.171v-4.341c0-.898.486-1.732 1.268-2.176l3.496-1.979c.759-.429 1.701-.43 2.462-.001l3.505 1.98c.783.443 1.267 1.277 1.267 2.177v4.415zm-10.382-5.611 4.387 2.508 4.385-2.506c-.05-.037-3.653-2.092-3.653-2.092-.455-.258-1.021-.256-1.478 0 0 0-3.592 2.053-3.641 2.09zm3.885 8.941-.003-5.569-4.451-2.544c-.027.119-.049.241-.049.366v4.341c0 .536.293 1.035.759 1.303 0 0 3.667 2.074 3.744 2.102zm5.5-7.745c0-.125-.019-.247-.049-.365l-4.454 2.544v5.578c.083-.028 3.73-2.032 3.73-2.032.477-.264.772-.766.772-1.311v-4.415z"/></svg>