<svg id="Layer_1" viewBox="0 0 24 24" xmlns="http://www.w3.org/2000/svg" data-name="Layer 1"><path d="m10.5 23h-6c-1.93 0-3.5-1.57-3.5-3.5v-7c0-1.93 1.57-3.5 3.5-3.5h11c1.598 0 2.992 1.079 3.39 2.625.069.268.345.43.609.36.268-.069.429-.342.36-.609-.382-1.481-1.476-2.628-2.858-3.117v-1.259c0-3.86-3.14-7-7-7s-7.001 3.14-7.001 7v1.276c-1.742.621-3 2.271-3 4.224v7c0 2.481 2.019 4.5 4.5 4.5h6c.276 0 .5-.224.5-.5s-.224-.5-.5-.5zm-6.5-16c0-3.309 2.691-6 6-6s6 2.691 6 6v1.042c-.166-.019-.33-.042-.5-.042h-11c-.171 0-.334.032-.5.051zm16.5 7h-5c-1.93 0-3.5 1.57-3.5 3.5v.5h-3.5c-.827 0-1.5-.673-1.5-1.5v-.571c.86-.224 1.5-1 1.5-1.929 0-1.103-.897-2-2-2s-2 .897-2 2c0 .929.64 1.705 1.5 1.929v.571c0 1.378 1.122 2.5 2.5 2.5h3.5v1.5c0 1.93 1.57 3.5 3.5 3.5h5c1.93 0 3.5-1.57 3.5-3.5v-3c0-1.93-1.57-3.5-3.5-3.5zm-15 0c0-.551.449-1 1-1s1 .449 1 1-.449 1-1 1-1-.449-1-1zm17.5 6.5c0 1.378-1.122 2.5-2.5 2.5h-5c-1.378 0-2.5-1.122-2.5-2.5v-3c0-1.378 1.122-2.5 2.5-2.5h5c1.378 0 2.5 1.122 2.5 2.5zm-2-4v5c0 .276-.224.5-.5.5s-.5-.224-.5-.5v-5c0-.276.224-.5.5-.5s.5.224.5.5zm-3.516.044c-.119-.331-.422-.544-.773-.544h-.008c-.354.003-.657.222-.777.577l-1.406 4.782c-.078.265.074.543.338.621.269.082.543-.074.621-.338l.188-.641h2.153l.201.648c.081.266.369.41.626.329.264-.082.411-.362.329-.626l-1.494-4.808zm-1.522 3.456.753-2.562.796 2.562z"/></svg>