<svg id="Layer_1" viewBox="0 0 24 24" xmlns="http://www.w3.org/2000/svg" data-name="Layer 1"><path d="m8.546 14.064c-.47.717-.63 1.451-.473 2.18.212.987.998 1.92 2.339 2.774 1.121.712 2.039.988 2.79.988 1.18 0 1.946-.679 2.428-1.416 1.1-1.676 1.712-7.825 1.823-9.033l5.962-8.755c.155-.228.097-.539-.132-.694-.225-.153-.538-.099-.694.132l-5.94 8.723c-1.043.499-6.984 3.393-8.103 5.1zm.503 1.97c-.1-.464.009-.929.332-1.422.659-1.004 3.841-2.79 6.119-3.961l-4.935 7.248c-.849-.613-1.384-1.252-1.515-1.865zm5.746 2.008c-.477.726-1.355 1.499-3.385.39l4.848-7.12c-.294 2.428-.818 5.745-1.463 6.73zm9.108-3.16c-.298 1.341-.701 2.852-1.199 4.493-.841 2.767-3.341 4.626-6.22 4.626h-8.969c-2.879 0-5.379-1.859-6.22-4.626-.499-1.641-.902-3.152-1.199-4.493-.264-1.193.022-2.423.785-3.374.763-.95 1.899-1.495 3.118-1.495h5.514c.276 0 .5.223.5.5s-.223.488-.5.488h-5.514c-.914 0-1.767.421-2.339 1.133-.573.714-.788 1.637-.589 2.532.292 1.316.688 2.802 1.18 4.419.711 2.344 2.828 3.917 5.264 3.917h8.969c2.436 0 4.553-1.574 5.264-3.917.492-1.617.888-3.103 1.18-4.419.199-.895-.017-1.818-.589-2.532-.572-.712-1.424-1.121-2.339-1.121h-.496c-.276 0-.5-.223-.5-.5s.223-.5.5-.5h.496c1.22 0 2.355.544 3.118 1.495s1.05 2.181.785 3.374z"/></svg>