<svg id="Layer_1" viewBox="0 0 24 24" xmlns="http://www.w3.org/2000/svg" data-name="Layer 1"><path d="m12 8c-.276 0-.5-.224-.5-.5v-4c0-.276.224-.5.5-.5s.5.224.5.5v4c0 .276-.224.5-.5.5zm-1 2c0 .552.448 1 1 1s1-.448 1-1-.448-1-1-1-1 .448-1 1zm12.967 6.896c-.212 1.401-.484 2.958-.71 4.222-.3 1.67-1.749 2.882-3.445 2.882h-2.57c-1.253 0-2.417-.676-3.039-1.764l-.835-1.461c-.284-.497-.795-.793-1.367-.793h-.001c-.572 0-1.083.296-1.366.793l-.835 1.461c-.622 1.088-1.786 1.764-3.039 1.764h-2.584c-1.718 0-3.169-1.23-3.452-2.924l-.684-4.101c-.023-.139-.04-2.475-.04-2.475 0-.865.074-1.5.193-2.244l1.423-9.286c.264-1.721 1.719-2.97 3.459-2.97h1.425c.276 0 .5.224.5.5s-.224.5-.5.5h-1.425c-1.243 0-2.283.892-2.471 2.121l-1.423 9.29c-.103.645-.167 1.205-.177 1.915.421-.363.936-.6 1.503-.675 2.072-.271 6.388-.651 9.494-.651 2.915 0 7.086.341 9.532.662.551.072 1.052.302 1.464.652-.01-.704-.074-1.261-.176-1.9l-1.424-9.293c-.188-1.229-1.228-2.121-2.471-2.121h-1.425c-.276 0-.5-.224-.5-.5s.224-.5.5-.5h1.425c1.741 0 3.196 1.249 3.459 2.97l1.423 9.29c.119.74.192 1.375.192 2.24 0 0-.017 2.29-.033 2.396zm-1.335-1.525c-.299-.397-.736-.652-1.23-.717-2.414-.316-6.53-.653-9.402-.653-3.061 0-7.318.376-9.364.643-.511.067-.961.332-1.267.745-.305.412-.427.917-.343 1.424l.684 4.101c.202 1.21 1.239 2.088 2.466 2.088h2.584c.895 0 1.727-.483 2.17-1.26l.835-1.461c.464-.812 1.299-1.297 2.234-1.297h.002c.936 0 1.771.485 2.235 1.297l.835 1.461c.444.777 1.275 1.26 2.17 1.26h2.57c1.212 0 2.247-.866 2.461-2.059.225-1.255.495-2.803.706-4.195.074-.491-.049-.979-.347-1.375zm-16.475-5.333c.346.603.967.962 1.662.962h1.181c.276 0 .5-.224.5-.5s-.224-.5-.5-.5h-1.181c-.332 0-.629-.172-.795-.46s-.164-.631.003-.918l4.181-7.167c.333-.569 1.251-.569 1.583 0l4.181 7.167c.167.287.169.63.003.918s-.463.46-.795.46h-1.181c-.276 0-.5.224-.5.5s.224.5.5.5h1.181c.695 0 1.316-.359 1.662-.962s.343-1.32-.006-1.92l-4.181-7.167c-.347-.595-.966-.951-1.655-.951s-1.308.355-1.656.951l-4.181 7.167c-.35.6-.352 1.318-.006 1.92z"/></svg>