<svg id="Layer_1" viewBox="0 0 24 24" xmlns="http://www.w3.org/2000/svg" data-name="Layer 1"><path d="m23.557.406c-.185-.185-.518-.406-1.057-.406l-5.013-.004c-.86.013-2.487.553-2.487 2.504 0 2.646-1.494 3.309-2.5 3.458v-2.029c.86-.224 1.5-1 1.5-1.929 0-1.103-.897-2-2-2s-2 .897-2 2c0 .929.64 1.705 1.5 1.929v2.027c-.995-.146-2.5-.805-2.5-3.46 0-2.054-1.801-2.504-2.496-2.504l-5.004.008c-.981-.116-1.572 1.053-1.496 1.496 0 1.607 1.015 2.341 1.996 2.5l-.002.5c0 1.638 1.124 2.278 2.001 2.449v.551c0 1.976 1.636 2.499 2.501 2.5h5v2.004h-3.893c-1.273 0-2.38.896-2.573 2.084-.28 1.481.963 2.95 2.466 2.916h4v3h-2.5c-1.103 0-2 .897-2 2s.897 2 2 2h1.5c1.103 0 2-.897 2-2v-1h3c1.379 0 2.5-1.121 2.5-2.5s-1.121-2.5-2.5-2.5h-3v-3h5c.276 0 .5-.224.5-.5s-.224-.5-.5-.5h-5v-2h5.001c.864 0 2.499-.524 2.499-2.499v-.552c.878-.17 2.002-.807 2.001-2.423l.028-.532c.976-.085 1.954-.85 1.967-2.492 0-.067-.01-.665-.439-1.096zm-12.057 21.594c0 .552-.448 1-1 1h-1.5c-.552 0-1-.448-1-1s.448-1 1-1h2.5zm0-6h-4c-.904.019-1.652-.861-1.479-1.756.116-.709.798-1.244 1.587-1.244h3.893v3zm-.5-14c0-.551.448-1 1-1s1 .449 1 1-.448 1-1 1-1-.449-1-1zm-6 5.495v-.498s1.499.003 1.499.003c.275 0 .499-.223.5-.499s-.223-.5-.499-.501l-2-.004c-.251-.003-1.503-.09-1.504-1.526l.003-.473 2.499.004c.275 0 .5-.224.5-.5s-.223-.5-.499-.5c-.246 0-3.345-.009-3.473.002-.383-.064-1.024-.346-1.024-1.503.005-.228.095-.5.496-.5l5.002-.008c.25.003 1.498.091 1.498 1.503 0 3.009 1.728 4.251 3.5 4.456v2.044h-4.995c-.251-.003-1.503-.09-1.503-1.501zm10.5 9.505c.827 0 1.5.673 1.5 1.5s-.673 1.5-1.5 1.5h-3v-3zm6.555-14h-3.555c-.276 0-.5.224-.5.5s.224.5.5.5h2.528l-.026.5c0 1.41-1.252 1.497-1.501 1.5h-2.001c-.276 0-.5.224-.5.5s.224.5.5.5h1.501v.5c0 1.41-1.253 1.497-1.501 1.5h-5v-2.043c1.766-.201 3.5-1.442 3.5-4.457 0-1.41 1.251-1.5 1.495-1.504l5.005.004c.401 0 .491.274.496.5 0 1.161-.642 1.442-.941 1.5z"/></svg>