<?xml version="1.0" encoding="UTF-8"?>
<svg xmlns="http://www.w3.org/2000/svg" id="Layer_1" data-name="Layer 1" viewBox="0 0 24 24">
  <path d="M13,12c0,.552-.448,1-1,1s-1-.448-1-1,.448-1,1-1,1,.448,1,1Zm-3.5-6.466c.276,0,.5-.224,.5-.5,0-.627,.298-1.231,.798-1.617,.502-.388,1.125-.51,1.75-.346,.692,.182,1.257,.781,1.406,1.491,.188,.899-.224,1.787-1.024,2.209-.883,.466-1.431,1.001-1.431,2.229v.564c0,.276,.224,.5,.5,.5s.5-.224,.5-.5v-.564c0-.746,.224-.99,.897-1.345,1.198-.633,1.815-1.958,1.536-3.298-.227-1.089-1.063-1.974-2.13-2.254-.921-.243-1.874-.051-2.615,.521-.744,.574-1.188,1.475-1.188,2.409,0,.276,.224,.5,.5,.5Zm13.5,5.966v5c0,1.378-1.122,2.5-2.5,2.5H12.5v4h5c.276,0,.5,.224,.5,.5s-.224,.5-.5,.5H6.5c-.276,0-.5-.224-.5-.5s.224-.5,.5-.5h5v-4H3.5c-1.378,0-2.5-1.122-2.5-2.5v-5c0-1.93,1.57-3.5,3.5-3.5h.5v-3.5C5,2.019,7.019,0,9.5,0h5c2.481,0,4.5,2.019,4.5,4.5v3.5h.5c1.93,0,3.5,1.57,3.5,3.5Zm-4-2.5v5h1.5c.565,0,1.081,.195,1.5,.513v-3.013c0-1.378-1.122-2.5-2.5-2.5h-.5ZM6,14h12V4.5c0-1.93-1.57-3.5-3.5-3.5h-5c-1.93,0-3.5,1.57-3.5,3.5V14Zm-4-2.5v3.013c.419-.317,.935-.513,1.5-.513h1.5v-5h-.5c-1.378,0-2.5,1.122-2.5,2.5Zm20,5c0-.827-.673-1.5-1.5-1.5H3.5c-.827,0-1.5,.673-1.5,1.5s.673,1.5,1.5,1.5H20.5c.827,0,1.5-.673,1.5-1.5Z"/>
</svg>
