<?xml version="1.0" encoding="UTF-8"?>
<svg xmlns="http://www.w3.org/2000/svg" id="Layer_1" data-name="Layer 1" viewBox="0 0 24 24">
  <path d="M7,0h-3C1.794,0,0,1.794,0,4v3c0,2.206,1.794,4,4,4h3c2.206,0,4-1.794,4-4v-3C11,1.794,9.206,0,7,0Zm3,7c0,1.654-1.346,3-3,3h-3c-1.654,0-3-1.346-3-3v-3c0-1.654,1.346-3,3-3h3c1.654,0,3,1.346,3,3v3Zm-3,6h-3c-2.206,0-4,1.794-4,4v3c0,2.206,1.794,4,4,4h3c2.206,0,4-1.794,4-4v-3c0-2.206-1.794-4-4-4Zm3,7c0,1.654-1.346,3-3,3h-3c-1.654,0-3-1.346-3-3v-3c0-1.654,1.346-3,3-3h3c1.654,0,3,1.346,3,3v3Zm13.856-.851c.193,.197,.191,.513-.006,.707l-3.746,3.688c-.303,.303-.703,.455-1.102,.455-.001,0-.002,0-.003,0-.002,0-.004-.001-.006-.001-.399-.002-.797-.154-1.1-.457l-3.744-3.685c-.197-.194-.199-.51-.006-.707,.193-.197,.511-.198,.707-.006l3.649,3.592V1.265l-3.649,3.592c-.098,.096-.224,.144-.351,.144-.129,0-.259-.05-.356-.149-.193-.197-.191-.513,.006-.707L17.896,.456C18.199,.153,18.597,.002,18.995,.001c.002,0,.003-.001,.005-.001,0,0,.001,0,.002,0,.4,0,.801,.153,1.106,.458l3.743,3.685c.197,.194,.199,.51,.006,.707-.194,.198-.51,.198-.707,.006l-3.649-3.593V22.736l3.649-3.593c.197-.192,.513-.191,.707,.006Z"/>
</svg>
