<svg id="Layer_1" viewBox="0 0 24 24" xmlns="http://www.w3.org/2000/svg" data-name="Layer 1"><path d="m23.982 13.522c-.272 5.875-5.057 10.478-10.893 10.478h-2.19c-5.835 0-10.62-4.602-10.893-10.477-.013-.276.201-.51.477-.522.274-.027.509.2.522.476.248 5.341 4.594 9.523 9.894 9.523h2.19c5.3 0 9.646-4.184 9.894-9.524.013-.275.25-.516.522-.476.276.013.489.246.477.522zm-8.78-3.316c.39-.39.39-1.024 0-1.414s-1.024-.39-1.414 0-.39 1.024 0 1.414 1.024.39 1.414 0zm.293-9.207c4.136 0 7.5 3.364 7.5 7.5 0 .276.224.5.5.5s.5-.224.5-.5c-.001-4.686-3.814-8.499-8.501-8.499-.276 0-.5.224-.5.5s.224.5.5.5zm0 3c2.481 0 4.5 2.019 4.5 4.5 0 .276.224.5.5.5s.5-.224.5-.5c0-3.032-2.467-5.5-5.5-5.5-.276 0-.5.224-.5.5s.224.5.5.5zm0 3c.827 0 1.5.673 1.5 1.5 0 .276.224.5.5.5s.5-.224.5-.5c0-1.379-1.122-2.5-2.5-2.5-.276 0-.5.224-.5.5s.224.5.5.5zm-3.5 13c4.411 0 8-3.589 8-8v-.5c0-.276-.224-.5-.5-.5s-.5.224-.5.5v.5c0 3.859-3.14 7-7 7-3.165 0-5.842-2.113-6.705-5h4.205c.276 0 .5-.224.5-.5s-.224-.5-.5-.5h-4.421c-.047-.328-.08-.66-.08-1v-1.5h4.5c.276 0 .5-.224.5-.5s-.224-.5-.5-.5h-4.5v-1.5c0-.34.033-.672.08-1h4.42c.276 0 .5-.224.5-.5s-.224-.5-.5-.5h-4.205c.863-2.888 3.541-5 6.705-5 .157 0 .313.006.467.016.272.019.515-.19.532-.467.018-.275-.191-.514-.466-.531-.176-.012-.354-.018-.533-.018-4.411.001-8 3.59-8 8.001v4c0 4.411 3.589 8 8 8z"/></svg>