<?xml version="1.0" encoding="UTF-8"?>
<svg xmlns="http://www.w3.org/2000/svg" id="Layer_1" data-name="Layer 1" viewBox="0 0 24 24">
  <path d="M23.951,11.302l-.705-5c-.346-2.453-2.475-4.302-4.951-4.302H4.5C2.019,2,0,4.019,0,6.5v6c0,2.481,2.019,4.5,4.5,4.5h2.485l2.775,4.389c1.262,2.909,5.78,1.479,5.165-1.613l-.796-2.776h4.87c2.95,.068,5.43-2.786,4.951-5.698ZM4.5,16c-1.93,0-3.5-1.57-3.5-3.5V6.5c0-1.93,1.57-3.5,3.5-3.5h2.5l.011,13h-2.512Zm17.52-1.377h-.002c-.759,.875-1.859,1.377-3.018,1.377h-5.533c-.322-.008-.578,.33-.48,.638l.966,3.356c.343,1.955-2.537,2.843-3.32,.906l-2.619-4.147-.012-13.754h10.294c1.981,0,3.684,1.479,3.961,3.441l.705,5c.161,1.148-.182,2.308-.941,3.182Z"/>
</svg>
