<?xml version="1.0" encoding="UTF-8"?>
<svg xmlns="http://www.w3.org/2000/svg" id="Layer_1" data-name="Layer 1" viewBox="0 0 24 24">
  <path d="m24,6.5v3c0,.276-.224.5-.5.5s-.5-.224-.5-.5v-3c0-1.93-1.57-3.5-3.5-3.5H4.5c-1.93,0-3.5,1.57-3.5,3.5v7c0,1.93,1.57,3.5,3.5,3.5h6c.276,0,.5.224.5.5s-.224.5-.5.5h-6c-.171,0-.334-.032-.5-.051v5.551c0,.276-.224.5-.5.5s-.5-.224-.5-.5v-5.776c-1.742-.621-3-2.271-3-4.224v-7c0-1.953,1.258-3.602,3-4.224V.5c0-.276.224-.5.5-.5s.5.224.5.5v1.551c.166-.019.329-.051.5-.051h15c.171,0,.334.032.5.051V.5c0-.276.224-.5.5-.5s.5.224.5.5v1.776c1.742.621,3,2.271,3,4.224Zm-2.449,4.658c-.301-.2-.688-.218-1.01-.044-.334.179-.541.522-.541.898v2.375c0,.79-.534,1.475-1.243,1.592-.451.072-.885-.046-1.227-.336-.337-.287-.53-.703-.53-1.144v-2.487c0-.376-.207-.72-.541-.898-.322-.174-.709-.156-1.01.044-1.465.976-2.449,2.921-2.449,4.842,0,1.95,1.048,3.772,2.735,4.755.166.097.265.248.265.404v2.341c0,.276.224.5.5.5s.5-.224.5-.5v-2.341c0-.516-.284-.99-.761-1.268-1.382-.805-2.239-2.296-2.239-3.892,0-1.575.824-3.224,2-3.987v2.487c0,.734.322,1.429.883,1.905.562.477,1.306.681,2.036.561,1.187-.195,2.081-1.304,2.081-2.578l-.004-2.397c1.18.786,2.004,2.435,2.004,4.01,0,1.596-.857,3.087-2.239,3.892-.477.277-.761.752-.761,1.268v2.341c0,.276.224.5.5.5s.5-.224.5-.5v-2.341c0-.156.099-.308.265-.404,1.688-.982,2.735-2.805,2.735-4.755,0-1.921-.984-3.866-2.449-4.842Z"/>
</svg>
