<svg id="Layer_1" viewBox="0 0 24 24" xmlns="http://www.w3.org/2000/svg" data-name="Layer 1"><path d="m23.429 9.598-.357 1.785c-.419 2.096-2.275 3.617-4.413 3.617h-12.639c.247 1.711 1.732 3 3.462 3h10.017c.276 0 .5.224.5.5s-.224.5-.5.5h-10.016c-2.234 0-4.15-1.668-4.457-3.881l-1.781-12.825c-.103-.738-.742-1.294-1.486-1.294h-1.259c-.276 0-.5-.224-.5-.5s.224-.5.5-.5h1.259c1.24 0 2.305.927 2.476 2.156l.256 1.844h9.009c.276 0 .5.224.5.5s-.224.5-.5.5h-8.87l1.25 9h12.78c1.663 0 3.106-1.183 3.432-2.813l.357-1.785c.054-.271.314-.448.588-.392.271.054.446.317.392.588zm-14.429 12.402c0 1.103-.897 2-2 2s-2-.897-2-2 .897-2 2-2 2 .897 2 2zm-1 0c0-.551-.449-1-1-1s-1 .449-1 1 .449 1 1 1 1-.449 1-1zm11 0c0 1.103-.897 2-2 2s-2-.897-2-2 .897-2 2-2 2 .897 2 2zm-1 0c0-.551-.449-1-1-1s-1 .449-1 1 .449 1 1 1 1-.449 1-1zm-2-18c0-2.206 1.794-4 4-4s4 1.794 4 4-1.794 4-4 4-4-1.794-4-4zm1 0c0 1.654 1.346 3 3 3s3-1.346 3-3-1.346-3-3-3-3 1.346-3 3z"/></svg>