<svg id="Layer_1" viewBox="0 0 24 24" xmlns="http://www.w3.org/2000/svg" data-name="Layer 1"><path d="m18 11.051v-2.551c0-1.93-1.57-3.5-3.5-3.5h-2v-4.5c0-.276-.224-.5-.5-.5s-.5.224-.5.5v4.5h-2c-1.93 0-3.5 1.57-3.5 3.5v2.551c-1.692.245-3 1.691-3 3.449v9c0 .276.224.5.5.5s.5-.224.5-.5v-9c0-1.378 1.122-2.5 2.5-2.5h11c1.378 0 2.5 1.122 2.5 2.5v9c0 .276.224.5.5.5s.5-.224.5-.5v-9c0-1.758-1.308-3.204-3-3.449zm-11-.051v-2.5c0-1.378 1.122-2.5 2.5-2.5h5c1.378 0 2.5 1.122 2.5 2.5v2.5zm4 5.5v2c0 .276-.224.5-.5.5s-.5-.224-.5-.5v-2c0-.276.224-.5.5-.5s.5.224.5.5zm0 4.5v2.5c0 .276-.224.5-.5.5s-.5-.224-.5-.5v-2.5c0-.276.224-.5.5-.5s.5.224.5.5zm3-4.5v2c0 .276-.224.5-.5.5s-.5-.224-.5-.5v-2c0-.276.224-.5.5-.5s.5.224.5.5zm0 4.5v2.5c0 .276-.224.5-.5.5s-.5-.224-.5-.5v-2.5c0-.276.224-.5.5-.5s.5.224.5.5zm3-4.5v2c0 .276-.224.5-.5.5s-.5-.224-.5-.5v-2c0-.276.224-.5.5-.5s.5.224.5.5zm0 4.5v2.5c0 .276-.224.5-.5.5s-.5-.224-.5-.5v-2.5c0-.276.224-.5.5-.5s.5.224.5.5zm-9-4.5v2c0 .276-.224.5-.5.5s-.5-.224-.5-.5v-2c0-.276.224-.5.5-.5s.5.224.5.5zm0 4.5v2.5c0 .276-.224.5-.5.5s-.5-.224-.5-.5v-2.5c0-.276.224-.5.5-.5s.5.224.5.5z"/></svg>