<?xml version="1.0" encoding="UTF-8"?>
<svg xmlns="http://www.w3.org/2000/svg" id="Layer_1" data-name="Layer 1" viewBox="0 0 24 24">
  <path d="m19.777,3.208c-2.077-2.068-4.839-3.208-7.777-3.208s-5.7,1.14-7.777,3.208c-2.079,2.069-3.223,4.82-3.223,7.747s1.144,5.677,3.237,7.76l4.151,3.819c.971.945,2.253,1.466,3.611,1.466s2.641-.521,3.602-1.456l4.176-3.843c2.079-2.069,3.223-4.82,3.223-7.746s-1.145-5.678-3.223-7.747Zm-.691,14.771l-4.172,3.839c-1.565,1.525-4.251,1.536-5.839-.01l-4.147-3.815c-1.888-1.88-2.928-4.379-2.928-7.037s1.04-5.158,2.928-7.038c1.888-1.881,4.4-2.917,7.072-2.917s5.183,1.036,7.071,2.917h0c1.888,1.88,2.928,4.379,2.928,7.038s-1.04,5.157-2.914,7.023Zm-2.661-10.451l-3-2.082c-.853-.59-1.998-.59-2.851,0l-3,2.082c-.673.467-1.075,1.234-1.075,2.054v3.419c0,1.103.897,2,2,2h7c1.103,0,2-.897,2-2v-3.419c0-.819-.402-1.587-1.075-2.054Zm-3.425,6.473h-2v-2.5c0-.275.224-.5.5-.5h1c.276,0,.5.225.5.5v2.5Zm3.5-1c0,.552-.449,1-1,1h-1.5v-2.5c0-.827-.673-1.5-1.5-1.5h-1c-.827,0-1.5.673-1.5,1.5v2.5h-1.5c-.551,0-1-.448-1-1v-3.419c0-.491.241-.952.645-1.231l3-2.082c.256-.178.555-.267.855-.267s.6.089.855.267l3,2.082c.404.279.645.74.645,1.231v3.419Z"/>
</svg>
