<svg id="Layer_1" viewBox="0 0 24 24" xmlns="http://www.w3.org/2000/svg" data-name="Layer 1"><path d="m20 0c-2.206 0-4 1.794-4 4 0 .522.107 1.017.29 1.475-1.286 1.155-2.812 1.864-4.29 1.996v-1.971c0-1.378-1.121-2.5-2.5-2.5h-1c-1.379 0-2.5 1.122-2.5 2.5v3.025c-3.49 1.24-6 4.566-6 8.475 0 1.646.429 3.283 1.239 4.735.781 1.397 2.281 2.265 3.914 2.265h7.693c1.633 0 3.133-.868 3.914-2.266.811-1.451 1.239-3.088 1.239-4.734 0-3.909-2.51-7.235-6-8.475v-.053c1.655-.127 3.353-.874 4.79-2.108.729.987 1.891 1.636 3.21 1.636 2.206 0 4-1.794 4-4s-1.794-4-4-4zm-13 5.5c0-.827.673-1.5 1.5-1.5h1c.827 0 1.5.673 1.5 1.5v2.732c-.644-.147-1.312-.232-2-.232s-1.356.085-2 .232zm10 11.5c0 1.455-.395 2.963-1.112 4.247-.604 1.082-1.771 1.753-3.041 1.753h-7.693c-1.271 0-2.437-.672-3.041-1.753-.718-1.284-1.112-2.792-1.112-4.247 0-4.411 3.589-8 8-8s8 3.589 8 8zm3-10c-1.654 0-3-1.346-3-3s1.346-3 3-3 3 1.346 3 3-1.346 3-3 3z"/></svg>