<?xml version="1.0" encoding="UTF-8"?>
<svg xmlns="http://www.w3.org/2000/svg" id="Layer_1" data-name="Layer 1" viewBox="0 0 24 24">
  <path d="M22.8,15.01l-2.543-.52c2.561-1.06,3.361-3.516,3.6-4.733,.196-.883-.556-1.78-1.458-1.756-.726,0-1.338,.528-1.457,1.256-.225,1.382-1.086,2.069-1.942,2.415V1c0-.551-.449-1-1-1h-1c-.551,0-1,.449-1,1v1h-.5c-.276,0-.5,.224-.5,.5s.224,.5,.5,.5h.5V22c0,1.103,.897,2,2,2h1.174c1.007,0,1.826-.819,1.826-1.826,0-.159-.021-.317-.062-.471l-1.13-4.237,2.392,.486c.895,.207,1.826-.551,1.8-1.472,0-.709-.504-1.327-1.2-1.471Zm-3.8-2.272c1.082-.346,2.584-1.202,2.929-3.32,.064-.394,.609-.53,.848-.239,.053,.063,.135,.199,.098,.386-.279,1.422-1.156,3.665-3.875,4.274v-1.101ZM17,1h1V14h-1V1Zm2.972,20.961c.144,.513-.264,1.046-.798,1.039h-1.174c-.551,0-1-.448-1-1v-7h1.105l1.868,6.961Zm2.844-5.092c-.117,.094-.269,.131-.417,.103l-2.799-.569c-.026-.005-.05,.001-.075,0l-.293-1.101,3.368,.689c.405,.069,.542,.63,.217,.879Z"/>
  <path d="M13.313,.513L7.297,.001c-1.078-.076-1.971,1.005-1.663,2.086l.366,1.001v1.912c0,2.206,1.794,4,4,4s4-1.794,4-4v-1.5l.466-1.412c.219-.706-.385-1.567-1.152-1.575Zm-.313,4.487c0,1.654-1.346,3-3,3s-3-1.346-3-3v-1h6v1Zm.066-2H7.077l-.487-1.202c-.116-.39,.249-.828,.637-.8l6.032,.513c.135-.026,.262,.21,.26,.259l-.452,1.23Z"/>
  <path d="M12.266,12h1.234c.276,0,.5-.224,.5-.5s-.224-.5-.5-.5h-3.438c-3.268,0-6.283,1.908-7.682,4.861L.048,20.786c-.119,.249-.012,.548,.238,.666,.244,.116,.547,.014,.666-.238l2.333-4.925c.42-.886,1.014-1.654,1.716-2.296v7.507c0,1.379,1.122,2.5,2.5,2.5h6c.276,0,.5-.224,.5-.5s-.224-.5-.5-.5H7.5c-.651,0-1.201-.419-1.408-1h7.408c.276,0,.5-.224,.5-.5s-.224-.5-.5-.5h-5.478l5.873-7.551c.17-.218,.13-.532-.087-.701-.218-.17-.532-.129-.702,.087l-6.35,8.165h-.756v-.944l6.266-8.056Zm-6.266,1.208c1.192-.77,2.597-1.208,4.062-1.208h.937l-4.999,6.428v-5.22Z"/>
</svg>
