<svg id="Layer_1" viewBox="0 0 24 24" xmlns="http://www.w3.org/2000/svg" data-name="Layer 1"><path d="m11.5 1h-7c-1.93 0-3.5 1.57-3.5 3.5v15c0 1.93 1.57 3.5 3.5 3.5h6c.276 0 .5.224.5.5s-.224.5-.5.5h-6c-2.481 0-4.5-2.019-4.5-4.5v-15c0-2.481 2.019-4.5 4.5-4.5h7c2.481 0 4.5 2.019 4.5 4.5v6c0 .276-.224.5-.5.5s-.5-.224-.5-.5v-6c0-1.93-1.57-3.5-3.5-3.5zm8.5 21c-.552 0-1 .448-1 1s.448 1 1 1 1-.448 1-1-.448-1-1-1zm3-3c-.552 0-1 .448-1 1s.448 1 1 1 1-.448 1-1-.448-1-1-1zm-3 0c-.552 0-1 .448-1 1s.448 1 1 1 1-.448 1-1-.448-1-1-1zm-2-4.5v2c0 .827-.673 1.5-1.5 1.5h-2c-.827 0-1.5-.673-1.5-1.5v-2c0-.827.673-1.5 1.5-1.5h2c.827 0 1.5.673 1.5 1.5zm-1 0c0-.275-.225-.5-.5-.5h-2c-.275 0-.5.225-.5.5v2c0 .275.225.5.5.5h2c.275 0 .5-.225.5-.5zm1 6v2c0 .827-.673 1.5-1.5 1.5h-2c-.827 0-1.5-.673-1.5-1.5v-2c0-.827.673-1.5 1.5-1.5h2c.827 0 1.5.673 1.5 1.5zm-1 0c0-.275-.225-.5-.5-.5h-2c-.275 0-.5.225-.5.5v2c0 .275.225.5.5.5h2c.275 0 .5-.225.5-.5zm7-6v2c0 .827-.673 1.5-1.5 1.5h-2c-.827 0-1.5-.673-1.5-1.5v-2c0-.827.673-1.5 1.5-1.5h2c.827 0 1.5.673 1.5 1.5zm-1 0c0-.275-.225-.5-.5-.5h-2c-.275 0-.5.225-.5.5v2c0 .275.225.5.5.5h2c.275 0 .5-.225.5-.5zm-1.5.25c-.414 0-.75.336-.75.75s.336.75.75.75.75-.336.75-.75-.336-.75-.75-.75zm-6 0c-.414 0-.75.336-.75.75s.336.75.75.75.75-.336.75-.75-.336-.75-.75-.75zm0 6c-.414 0-.75.336-.75.75s.336.75.75.75.75-.336.75-.75-.336-.75-.75-.75zm-9-.75c-.276 0-.5.224-.5.5s.224.5.5.5h3c.276 0 .5-.224.5-.5s-.224-.5-.5-.5zm.658-12h1.684c.576 0 1.158.309 1.158 1 0 .276.224.5.5.5s.5-.224.5-.5c0-1.159-.907-2-2.158-2h-.342v-.5c0-.276-.224-.5-.5-.5s-.5.224-.5.5v.5h-.342c-1.19 0-2.158.968-2.158 2.158 0 1.059.759 1.954 1.795 2.127l2.237.415c.561.094.968.574.968 1.142 0 .639-.52 1.158-1.158 1.158h-1.684c-.576 0-1.158-.31-1.158-1 0-.276-.224-.5-.5-.5s-.5.224-.5.5c0 1.159.907 2 2.158 2h.342v.5c0 .276.224.5.5.5s.5-.224.5-.5v-.5h.342c1.19 0 2.158-.968 2.158-2.158 0-1.059-.759-1.954-1.795-2.127l-2.237-.415c-.561-.094-.968-.574-.968-1.142 0-.639.52-1.158 1.158-1.158z"/></svg>