<?xml version="1.0" encoding="UTF-8"?>
<svg xmlns="http://www.w3.org/2000/svg" id="Layer_1" data-name="Layer 1" viewBox="0 0 24 24">
  <path d="M24,13.546c0,.585-.412,1.454-1.545,1.454h-.549l-.516,2.434c-.438,2.066-2.29,3.566-4.402,3.566h-.987v.5c0,1.379-1.122,2.5-2.5,2.5H5.5c-1.472,0-2.5-1.028-2.5-2.5v-1.28c0-.925-.331-1.87-.958-2.732C.809,15.786,.12,13.722,.048,11.516c-.009-.276,.207-.507,.483-.516,.253-.021,.507,.207,.516,.483,.065,2.004,.689,3.877,1.805,5.416,.751,1.035,1.148,2.184,1.148,3.32v1.28c0,1.107,.808,1.5,1.5,1.5H13.5c.827,0,1.5-.673,1.5-1.5v-1c0-.276,.224-.5,.5-.5h1.487c1.643,0,3.083-1.167,3.424-2.773l.6-2.83c.049-.231,.251-.396,.487-.396h.957c.492,0,.545-.317,.545-.454,0-.866-2.607-6.79-4.014-8.531C16.759,2.043,13.244,.588,9.569,1.102c-.277,.04-.526-.152-.564-.426-.039-.273,.152-.526,.426-.564,4.038-.566,7.907,1.037,10.344,4.29,1.374,1.7,4.225,7.863,4.225,9.145ZM1,2c.552,0,1-.448,1-1S1.552,0,1,0,0,.448,0,1s.448,1,1,1Zm5,3c0,.552,.448,1,1,1s1-.448,1-1-.448-1-1-1-1,.448-1,1ZM1,8c0,.552,.448,1,1,1s1-.448,1-1-.448-1-1-1-1,.448-1,1Zm2-3c.552,0,1-.448,1-1s-.448-1-1-1-1,.448-1,1,.448,1,1,1Zm3-3c.552,0,1-.448,1-1s-.448-1-1-1-1,.448-1,1,.448,1,1,1Zm1,12c.751,0,1.454-.294,2-.788v6.288c0,.276,.224,.5,.5,.5s.5-.224,.5-.5v-6.511c.82-.048,1.537-.408,2.095-.989h1.905c1.654,0,3-1.346,3-3,0-1.304-.844-2.447-2.076-2.846-.613-.821-1.563-1.283-2.667-1.127-.567-.648-1.389-1.027-2.257-1.027-.276,0-.5,.224-.5,.5s.224,.5,.5,.5c.653,0,1.267,.322,1.642,.862,.118,.17,.33,.251,.53,.2,.173-.042,.317-.062,.453-.062,.635,0,1.222,.321,1.571,.858,.068,.105,.174,.181,.296,.212,.888,.226,1.508,1.02,1.508,1.93,0,1.103-.897,2-2,2h-2.129c-.149,0-.291,.066-.386,.182-.429,.52-1.062,.818-1.735,.818-.169,0-.346-.025-.558-.08-.207-.052-.42,.028-.539,.203-.374,.549-.992,.877-1.654,.877-1.103,0-2-.897-2-2s.897-2,2-2c.276,0,.5-.224,.5-.5s-.224-.5-.5-.5c-1.654,0-3,1.346-3,3s1.346,3,3,3Z"/>
</svg>
