<?xml version="1.0" encoding="UTF-8"?>
<svg xmlns="http://www.w3.org/2000/svg" id="Layer_1" data-name="Layer 1" viewBox="0 0 24 24">
  <path d="M24,3.5c0-1.93-1.57-3.5-3.5-3.5H3.5C1.57,0,0,1.57,0,3.5c0,1.758,1.308,3.204,3,3.449v12.551c0,2.481,2.019,4.5,4.5,4.5h9c2.481,0,4.5-2.019,4.5-4.5V6.949c1.692-.245,3-1.691,3-3.449ZM8,1h2V23h-2V1ZM1,3.5c0-1.207,.86-2.217,2-2.449V5.949c-1.14-.232-2-1.242-2-2.449Zm3,16V1h3V22.949c-1.692-.245-3-1.691-3-3.449Zm16,0c0,1.93-1.57,3.5-3.5,3.5h-5.5V1h9V19.5Zm1-13.551V1.051c1.14,.232,2,1.242,2,2.449s-.86,2.217-2,2.449Zm-5,11.051c-1.103,0-2,.897-2,2s.897,2,2,2,2-.897,2-2-.897-2-2-2Zm0,3c-.552,0-1-.449-1-1s.448-1,1-1,1,.449,1,1-.448,1-1,1Z"/>
</svg>
