<?xml version="1.0" encoding="UTF-8"?>
<svg xmlns="http://www.w3.org/2000/svg" id="Layer_1" data-name="Layer 1" viewBox="0 0 24 24">
  <path d="m22.695,8.848L15.148,1.301c-1.737-1.737-4.563-1.737-6.301,0L1.302,8.848c-1.737,1.737-1.737,4.563,0,6.3l7.546,7.548c.841.842,1.96,1.305,3.15,1.305s2.309-.463,3.15-1.305l7.546-7.548c1.736-1.737,1.736-4.563,0-6.3Zm-.707,5.593l-7.546,7.548c-1.307,1.305-3.582,1.305-4.887,0l-7.546-7.548c-1.347-1.347-1.347-3.539,0-4.886l7.546-7.547c1.347-1.347,3.54-1.348,4.887,0l7.547,7.547c1.347,1.347,1.347,3.539,0,4.886Zm-4.488,1.559h-1.108l-2.691-10.907c-.308-.674-.959-1.093-1.701-1.093s-1.393.418-1.731,1.181l-2.661,10.819h-1.108c-.276,0-.5.224-.5.5s.224.5.5.5h11c.276,0,.5-.224.5-.5s-.224-.5-.5-.5Zm-7.637-5h4.27l.492,2h-5.252l.49-2Zm.735-3h2.796l.492,2h-3.779l.49-2Zm1.401-3c.35,0,.646.19.76.42l.389,1.58h-2.305l.366-1.492c.145-.318.44-.508.791-.508Zm-3.363,11l.49-2h5.743l.492,2h-6.725Z"/>
</svg>
