<svg id="Layer_1" viewBox="0 0 24 24" xmlns="http://www.w3.org/2000/svg" data-name="Layer 1"><path d="m16.87 14.056c-1.409.247-2.566 1.404-2.814 2.813-.181 1.018.093 2.086.763 2.881.667.794 1.645 1.25 2.682 1.25 1.088 0 2.017-.371 2.84-1.133.203-.188.215-.504.027-.707s-.505-.215-.707-.027c-.638.592-1.325.867-2.16.867-.741 0-1.439-.325-1.916-.894-.274-.326-.455-.703-.536-1.106h4.764c.782.023 1.384-.815 1.132-1.551-.52-1.652-2.308-2.705-4.075-2.394zm3.092 2.868c-.021.028-.068.076-.149.076h-4.764c.191-.983 1.006-1.786 1.994-1.96 1.282-.22 2.577.525 2.948 1.71.026.082-.007.144-.029.174zm-2.462-5.924c-3.584 0-6.5 2.916-6.5 6.5s2.916 6.5 6.5 6.5 6.5-2.916 6.5-6.5-2.916-6.5-6.5-6.5zm0 12c-3.033 0-5.5-2.468-5.5-5.5s2.467-5.5 5.5-5.5 5.5 2.468 5.5 5.5-2.467 5.5-5.5 5.5zm-7 0h-7c-1.378 0-2.5-1.121-2.5-2.5s1.122-2.5 2.5-2.5h5c.276 0 .5-.224.5-.5s-.224-.5-.5-.5h-3.5v-16h10.5c1.93 0 3.5 1.57 3.5 3.5v4c0 .276.224.5.5.5s.5-.224.5-.5v-4c0-2.481-2.019-4.5-4.5-4.5h-11c-2.481 0-4.5 2.019-4.5 4.5v16c0 1.93 1.57 3.5 3.5 3.5h7c.276 0 .5-.224.5-.5s-.224-.5-.5-.5zm-9.5-18.5c0-1.758 1.308-3.204 3-3.449v15.949h-.5c-.98 0-1.864.407-2.5 1.058z"/></svg>