<?xml version="1.0" encoding="UTF-8"?>
<svg xmlns="http://www.w3.org/2000/svg" id="Layer_1" data-name="Layer 1" viewBox="0 0 24 24">
  <path d="M23.826,23.113c-.666,.572-1.524,.887-2.417,.887-1.239,0-2.434-.594-3.137-1.494-.703,.9-1.896,1.494-3.136,1.494s-2.434-.594-3.137-1.494c-.703,.9-1.897,1.494-3.137,1.494s-2.433-.594-3.136-1.494c-.703,.9-1.897,1.494-3.137,1.494-.893,0-1.751-.315-2.417-.887-.209-.18-.233-.496-.053-.705,.18-.209,.495-.234,.705-.054,.484,.417,1.111,.646,1.765,.646,1.168,0,2.315-.719,2.668-1.673,.145-.393,.793-.393,.938,0,.353,.954,1.499,1.673,2.667,1.673s2.315-.719,2.668-1.673c.145-.393,.793-.393,.938,0,.353,.954,1.5,1.673,2.668,1.673s2.314-.719,2.667-1.673c.145-.393,.793-.393,.938,0,.353,.954,1.5,1.673,2.668,1.673,.653,0,1.28-.229,1.765-.646,.211-.18,.526-.155,.705,.054,.181,.209,.156,.525-.053,.705ZM2.097,17.269c-.496-1.598,.849-3.35,2.521-3.269L7.016,5.211c.354-1.302,1.544-2.211,2.894-2.211h.091v-1c0-1.103,.897-2,2-2s2,.897,2,2v1h.091c1.35,0,2.539,.909,2.894,2.211l2.397,8.789c1.673-.081,3.018,1.67,2.521,3.269-.243,.873-.603,1.71-1.065,2.487-.143,.238-.451,.313-.686,.174-.237-.142-.315-.448-.174-.686,.418-.702,.742-1.457,.962-2.244,.298-.962-.493-2.027-1.503-2H4.562c-1.01-.027-1.801,1.038-1.503,2,.221,.788,.544,1.543,.962,2.244,.142,.237,.063,.544-.174,.686-.233,.14-.543,.066-.686-.173-.463-.777-.821-1.614-1.065-2.488Zm15.196-3.269l-5.293-5.293-5.293,5.293h10.586Zm-1.273-8.526c-.053-.196-.139-.377-.244-.542l-3.069,3.069,5.503,5.503-2.19-8.029Zm-5.02-2.474h2v-1c0-.551-.448-1-1-1s-1,.449-1,1v1Zm-1.091,1c-.343,0-.669,.089-.956,.246l3.047,3.047,3.047-3.047c-.287-.157-.614-.246-.956-.246h-4.182ZM5.79,13.503l5.503-5.503-3.069-3.069c-.105,.165-.19,.346-.244,.542l-2.19,8.029Z"/>
</svg>
