<svg id="Layer_1" viewBox="0 0 24 24" xmlns="http://www.w3.org/2000/svg" data-name="Layer 1"><path d="m23.5 5h-1.5v-2c0-1.654-1.346-3-3-3h-14.5c-1.378 0-2.5 1.122-2.5 2.5v2.5h-1.5c-.276 0-.5.224-.5.5s.224.5.5.5h1.5v4c0 2.206 1.794 4 4 4h1v6c0 2.206 1.794 4 4 4h7c2.206 0 4-1.794 4-4v-11.5c0-.276-.224-.5-.5-.5s-.5.224-.5.5v10.5h-13v-5h5c2.206 0 4-1.794 4-4v-4h6.5c.276 0 .5-.224.5-.5s-.224-.5-.5-.5zm-2.5 15c0 1.654-1.346 3-3 3h-7c-1.654 0-3-1.346-3-3zm-5-10c0 1.654-1.346 3-3 3h-7c-1.654 0-3-1.346-3-3v-7.5c0-.827.673-1.5 1.5-1.5h12.266c-.476.531-.766 1.232-.766 2zm1-7c0-1.103.897-2 2-2s2 .897 2 2v2h-4z"/></svg>