<svg id="Layer_1" viewBox="0 0 24 24" xmlns="http://www.w3.org/2000/svg" data-name="Layer 1"><path d="m19.5 10h-.5c-.276 0-.5.224-.5.5s.224.5.5.5h.5c1.93 0 3.5 1.57 3.5 3.5v1.5h-22v-1.5c0-1.93 1.57-3.5 3.5-3.5h.5c.276 0 .5-.224.5-.5s-.224-.5-.5-.5h-.5c-1.421 0-2.675.675-3.5 1.706v-9.206c0-.276-.224-.5-.5-.5s-.5.224-.5.5v19.5c0 1.103.897 2 2 2s2-.897 2-2-.897-2-2-2c-.366 0-.705.106-1 .278v-3.278h22v3.278c-.295-.172-.634-.278-1-.278-1.103 0-2 .897-2 2s.897 2 2 2 2-.897 2-2v-7.5c0-2.481-2.019-4.5-4.5-4.5zm-17.5 11c.552 0 1 .448 1 1s-.448 1-1 1-1-.448-1-1 .448-1 1-1zm20 2c-.552 0-1-.448-1-1s.448-1 1-1 1 .448 1 1-.448 1-1 1zm-10-11c3.309 0 6-2.691 6-6s-2.691-6-6-6-6 2.691-6 6 2.691 6 6 6zm0-11c2.757 0 5 2.243 5 5s-2.243 5-5 5-5-2.243-5-5 2.243-5 5-5zm-3 5c0-.276.224-.5.5-.5h2v-2c0-.276.224-.5.5-.5s.5.224.5.5v2h2c.276 0 .5.224.5.5s-.224.5-.5.5h-2v2c0 .276-.224.5-.5.5s-.5-.224-.5-.5v-2h-2c-.276 0-.5-.224-.5-.5z"/></svg>