<svg id="Layer_1" viewBox="0 0 24 24" xmlns="http://www.w3.org/2000/svg" data-name="Layer 1"><path d="m12.97 15.68-3 8c-.1.26-.39.39-.64.29-.26-.1-.39-.38-.29-.64l3-8c.1-.26.39-.39.64-.29.26.1.39.38.29.64zm-4.29-.65c-.26-.1-.55.03-.64.29l-3 8c-.1.26.03.55.29.64.25.1.55-.03.64-.29l3-8c.1-.26-.03-.55-.29-.64zm8 0c-.26-.1-.55.03-.64.29l-3 8c-.1.26.03.55.29.64.25.1.55-.03.64-.29l3-8c.1-.26-.03-.55-.29-.64zm-12.98 3.71c-1.3-.57-2.3-1.82-2.6-3.28-.32-1.55.16-3.12 1.29-4.2.57-.54.81-1.36.68-2.25-.12-.81-.09-1.63.07-2.45.56-2.74 2.77-4.93 5.51-5.43.6-.11 1.21-.15 1.81-.11.25.02.51-.19.53-.47s-.19-.51-.47-.53c-.68-.04-1.37 0-2.06.12-3.12.58-5.66 3.08-6.29 6.22-.19.93-.22 1.88-.08 2.8.08.57-.06 1.07-.39 1.39-1.38 1.31-1.97 3.23-1.58 5.12.36 1.76 1.58 3.29 3.18 3.99.25.11.55 0 .66-.26.11-.25 0-.55-.26-.66zm19.82-6.24c-.27-.03-.51.19-.54.46-.19 2.62-2.05 4.95-4.64 5.81-.26.09-.4.37-.32.63.09.26.38.4.63.32 2.97-.99 5.11-3.67 5.32-6.69.02-.28-.19-.51-.46-.54zm-6.02.5c-3.58 0-6.5-2.92-6.5-6.5s2.92-6.5 6.5-6.5 6.5 2.92 6.5 6.5-2.92 6.5-6.5 6.5zm5.5-6.5c0-3.03-2.47-5.5-5.5-5.5s-5.5 2.47-5.5 5.5 2.47 5.5 5.5 5.5 5.5-2.47 5.5-5.5zm-5.5 1.5c.28 0 .5-.22.5-.5v-5c0-.28-.22-.5-.5-.5s-.5.22-.5.5v5c0 .28.22.5.5.5zm0 1c-.55 0-1 .45-1 1s.45 1 1 1 1-.45 1-1-.45-1-1-1z"/></svg>