<?xml version="1.0" encoding="UTF-8"?>
<svg xmlns="http://www.w3.org/2000/svg" id="Layer_1" data-name="Layer 1" viewBox="0 0 24 24">
  <path d="M23.667,10.418l-1.009-3.025c-.478-1.431-1.812-2.393-3.32-2.393h-2.371c-.159-1.407-.975-2.68-2.217-3.397-.235-.137-.544-.057-.683,.182-.139,.239-.057,.545,.183,.683,1.079,.625,1.75,1.787,1.75,3.032v12.5H1V9.5c0-.276-.224-.5-.5-.5s-.5,.224-.5,.5v10.5c0,1.654,1.346,3,3,3,1.044,0,1.962-.537,2.5-1.348,.538,.811,1.456,1.348,2.5,1.348,1.654,0,3-1.346,3-3v-1h5v1c0,1.654,1.346,3,3,3s3-1.346,3-3v-1.351c1.178-.564,2-1.758,2-3.149v-3.026c0-.701-.112-1.393-.333-2.056Zm-1.958-2.708l1.009,3.025c.029,.087,.041,.178,.065,.266h-5.783V6h2.338c1.078,0,2.03,.687,2.371,1.709ZM3,22c-1.103,0-2-.897-2-2v-1H5v1c0,1.103-.897,2-2,2Zm7-2c0,1.103-.897,2-2,2s-2-.897-2-2v-1h4v1Zm11,0c0,1.103-.897,2-2,2s-2-.897-2-2v-1h3.5c.171,0,.335-.027,.5-.051v1.051Zm2-4.5c0,1.379-1.121,2.5-2.5,2.5h-3.5v-6h5.962c.014,.158,.038,.314,.038,.474v3.026ZM0,5V.5C0,.224,.224,0,.5,0s.5,.224,.5,.5V5c0,.551,.448,1,1,1h1V.5c0-.276,.224-.5,.5-.5s.5,.224,.5,.5V6h1c.552,0,1-.449,1-1V.5c0-.276,.224-.5,.5-.5s.5,.224,.5,.5V5c0,1.103-.897,2-2,2h-1v5.5c0,.276-.224,.5-.5,.5s-.5-.224-.5-.5V7h-1c-1.103,0-2-.897-2-2ZM9.5,13c.276,0,.5-.224,.5-.5v-2.258c.704-.578,3-2.658,3-5.242,0-1.397-.663-2.898-2.027-4.587-.296-.368-.8-.508-1.256-.346-.436,.154-.717,.542-.717,.988V12.5c0,.276,.224,.5,.5,.5Zm.55-11.991c.007-.002,.029-.009,.056-.009,.029,0,.063,.008,.09,.041,1.214,1.504,1.805,2.8,1.805,3.959,0,1.61-1.167,3.058-1.994,3.883l.044-7.874Z"/>
</svg>
