<svg id="Layer_1" viewBox="0 0 24 24" xmlns="http://www.w3.org/2000/svg" data-name="Layer 1"><path d="m23.407 14.884c.477.561.68 1.305.558 2.039-.15.911-.823 1.68-1.713 1.96-.241.075-.485.114-.725.117-.255.003-.527.165-.527.461v4.039c0 .276-.224.5-.5.5s-.5-.224-.5-.5v-4.039c0-.811.666-1.452 1.516-1.461.143 0 .289-.025.436-.072.526-.164.938-.634 1.026-1.168.074-.451-.044-.888-.334-1.229-.393-.463-1.002-.673-1.654-.434-.258.094-.546-.037-.641-.298-.175-.478-.632-.799-1.135-.799-.669 0-1.214.545-1.214 1.214 0 .364.163.706.448.938.351.285.552.7.552 1.138v6.211c0 .276-.224.5-.5.5s-.5-.224-.5-.5v-1.484c-.564.408-1.528.984-2.5.984-1.017 0-1.773-.68-2.44-1.278-.549-.486-.724-.651-1.06-.733-.336.082-.511.247-1.06.733-.667.599-1.423 1.278-2.44 1.278-.972 0-1.936-.576-2.5-.984v1.484c0 .276-.224.5-.5.5s-.5-.224-.5-.5v-6.211c0-.438.201-.853.552-1.138.285-.231.448-.573.448-.938 0-.669-.545-1.214-1.214-1.214-.503 0-.96.321-1.135.799-.095.261-.38.393-.641.298-.651-.241-1.261-.03-1.654.434-.29.342-.408.778-.334 1.23.088.533.5 1.003 1.026 1.167.147.047.293.071.436.072.85.009 1.516.65 1.516 1.461v4.039c0 .276-.224.5-.5.5s-.5-.224-.5-.5v-4.039c0-.296-.271-.458-.527-.461-.24-.003-.484-.042-.725-.117-.89-.28-1.562-1.049-1.713-1.959-.122-.735.082-1.479.558-2.04.565-.666 1.438-1.007 2.323-.846.4-.635 1.104-1.038 1.869-1.038 1.221 0 2.214.993 2.214 2.214 0 .666-.298 1.291-.817 1.713-.116.095-.183.227-.183.362v3.468c.596.501 1.622 1.243 2.5 1.243.633 0 1.21-.519 1.769-1.021.562-.505 1.089-.979 1.731-.979s1.169.475 1.731.979c.559.502 1.136 1.021 1.769 1.021.878 0 1.904-.742 2.5-1.243v-3.468c0-.136-.067-.268-.183-.362-.519-.422-.817-1.047-.817-1.713 0-1.221.993-2.214 2.214-2.214.765 0 1.469.403 1.869 1.038.885-.161 1.758.18 2.323.846zm-5.84-4.365-2.126 2.787c-.897 1.337-2.151 2.146-3.421 2.194-1.309-.05-2.562-.858-3.477-2.219l-2.108-2.763c-.363-.54-.503-1.188-.4-1.8.122-.747.638-1.345 1.378-1.597.796-.271 1.666-.087 2.27.478l2.153 1.85c.096.082.235.082.332 0l2.168-1.862c.588-.552 1.458-.734 2.254-.464.74.252 1.256.85 1.378 1.598.102.611-.038 1.259-.383 1.773-.005.009-.011.017-.018.025zm-.586-1.635c-.063-.386-.323-.683-.714-.815-.447-.152-.931-.052-1.265.262l-2.185 1.877c-.474.406-1.161.405-1.633 0l-2.169-1.864c-.351-.327-.837-.427-1.281-.275-.391.133-.651.43-.713.813-.062.365.021.749.226 1.055l2.108 2.762c.365.542 1.319 1.75 2.665 1.802 1.307-.051 2.261-1.26 2.608-1.777l2.133-2.798c.2-.304.279-.683.219-1.041zm-8.98 9.116c0 .552.448 1 1 1s1-.448 1-1-.448-1-1-1-1 .448-1 1zm6 0c0 .552.448 1 1 1s1-.448 1-1-.448-1-1-1-1 .448-1 1zm-13.373-6.324c-.411-1.096-.628-2.193-.628-3.176 0-3.584 2.916-6.5 6.5-6.5 1.247 0 2.458.382 3.5 1.054v-2.554c0-.276.224-.5.5-.5s.5.224.5.5v.5h2v-.5c0-.276.224-.5.5-.5s.5.224.5.5v2.553c1.042-.672 2.253-1.053 3.5-1.053 3.584 0 6.5 2.916 6.5 6.5 0 .982-.217 2.08-.628 3.176-.097.26-.392.389-.644.292-.258-.097-.389-.385-.292-.644.37-.984.565-1.961.565-2.824 0-3.032-2.467-5.5-5.5-5.5-1.271 0-2.511.447-3.492 1.259-1.158.957-2.858.956-4.015 0-.981-.812-2.222-1.26-3.493-1.26-3.034.001-5.501 2.469-5.501 5.501 0 .863.195 1.84.565 2.824.097.259-.034.547-.292.644-.259.101-.547-.034-.644-.292zm10.372-9.676v1.731c.626.331 1.373.331 2 0v-1.731z"/></svg>