<svg id="Layer_1" viewBox="0 0 24 24" xmlns="http://www.w3.org/2000/svg" data-name="Layer 1"><path d="m19.5 0h-15c-2.481 0-4.5 2.019-4.5 4.5v7c0 2.481 2.019 4.5 4.5 4.5h2.5c.276 0 .5-.224.5-.5s-.224-.5-.5-.5h-2v-4.5c0-.276-.224-.5-.5-.5h-3.5v-4h5.5c.276 0 .5-.224.5-.5s-.224-.5-.5-.5h-1.5v-4h14v4h-1.5c-.276 0-.5.224-.5.5s.224.5.5.5h5.5v4h-3.5c-.276 0-.5.224-.5.5v4.5h-2c-.276 0-.5.224-.5.5s.224.5.5.5h2.5c2.481 0 4.5-2.019 4.5-4.5v-7c0-2.481-2.019-4.5-4.5-4.5zm-15.5 11v3.949c-1.692-.245-3-1.691-3-3.449v-.5zm-3-6v-.5c0-1.758 1.308-3.204 3-3.449v3.949zm19 0v-3.949c1.692.245 3 1.691 3 3.449v.5zm0 9.949v-3.949h3v.5c0 1.758-1.308 3.204-3 3.449zm3.5 6.051h-9.051c-.199-.978-.971-1.75-1.949-1.949v-4.101c2.52-.255 4.5-2.364 4.5-4.949 0-2.282-1.991-4.011-3.591-5.399l-.331-.288c-.331-.29-.767-.402-1.194-.308-.423.093-.767.373-.943.767-.297.665-.464 1.367-.611 1.986-.094.396-.23.969-.328 1.176-.07-.096-.18-.278-.322-.607-.124-.288-.384-.486-.695-.531-.309-.041-.618.073-.819.314-.785.947-1.166 1.893-1.166 2.891 0 2.586 1.98 4.694 4.5 4.949v4.101c-.978.199-1.75.971-1.949 1.949h-9.051c-.276 0-.5.224-.5.5s.224.5.5.5h9.051c.232 1.14 1.242 2 2.449 2s2.217-.86 2.449-2h9.051c.276 0 .5-.224.5-.5s-.224-.5-.5-.5zm-10.793-7.292c-.396.396-1.105.368-1.472-.063-.328-.386-.267-1.026.136-1.429l.5-.5c.072-.072.188-.072.26 0l.577.577c.39.391.39 1.025 0 1.415zm-4.707-3.708c0-.723.265-1.401.832-2.123.356.775.708 1.123 1.13 1.123.863 0 1.096-.977 1.341-2.012.137-.577.292-1.23.551-1.81.062-.139.179-.183.244-.197.116-.025.232.004.321.083l.334.291c1.446 1.256 3.247 2.819 3.247 4.645 0 1.501-.841 2.795-2.066 3.48.161-.657-.007-1.38-.519-1.893l-.578-.577c-.462-.462-1.213-.462-1.674 0l-.5.5c-.542.542-.738 1.301-.583 1.979-1.234-.682-2.081-1.981-2.081-3.488zm4 13c-.827 0-1.5-.673-1.5-1.5s.673-1.5 1.5-1.5 1.5.673 1.5 1.5-.673 1.5-1.5 1.5z"/></svg>