<?xml version="1.0" encoding="UTF-8"?>
<svg xmlns="http://www.w3.org/2000/svg" id="Layer_1" data-name="Layer 1" viewBox="0 0 24 24">
  <path d="M24,12c0-2.153-.588-4.255-1.69-6.109,.425-.518,.69-1.171,.69-1.891,0-1.654-1.346-3-3-3-.721,0-1.374,.266-1.891,.691-3.714-2.197-8.503-2.196-12.217,0-.518-.425-1.171-.691-1.891-.691-1.654,0-3,1.346-3,3,0,.72,.266,1.373,.69,1.891-1.103,1.855-1.69,3.957-1.69,6.109s.588,4.254,1.69,6.109c-.425,.518-.69,1.171-.69,1.891,0,1.654,1.346,3,3,3,.72,0,1.373-.265,1.891-.69,1.855,1.102,3.956,1.69,6.109,1.69s4.255-.588,6.109-1.69c.518,.425,1.171,.69,1.891,.69,1.654,0,3-1.346,3-3,0-.72-.266-1.373-.69-1.891,1.102-1.854,1.69-3.956,1.69-6.109Zm-2-8c0,1.103-.897,2-2,2s-2-.897-2-2,.897-2,2-2,2,.897,2,2ZM4,2c1.103,0,2,.897,2,2s-.897,2-2,2-2-.897-2-2,.897-2,2-2ZM2,20c0-1.103,.897-2,2-2s2,.897,2,2-.897,2-2,2-2-.897-2-2Zm4.569,1.525c.267-.449,.431-.966,.431-1.525,0-1.654-1.346-3-3-3-.56,0-1.078,.164-1.527,.432-.95-1.662-1.473-3.522-1.473-5.432s.523-3.771,1.473-5.432c.449,.268,.967,.432,1.527,.432,1.654,0,3-1.346,3-3,0-.559-.164-1.076-.431-1.525,3.328-1.892,7.533-1.892,10.862,0-.267,.449-.431,.966-.431,1.525,0,1.654,1.346,3,3,3,.56,0,1.078-.164,1.527-.432,.95,1.661,1.473,3.521,1.473,5.432s-.523,3.771-1.473,5.432c-.449-.268-.967-.432-1.527-.432-1.654,0-3,1.346-3,3,0,.559,.164,1.077,.431,1.525-3.328,1.892-7.534,1.892-10.862,0Zm13.431,.475c-1.103,0-2-.897-2-2s.897-2,2-2,2,.897,2,2-.897,2-2,2ZM12,5c-3.86,0-7,3.141-7,7s3.14,7,7,7,7-3.141,7-7-3.141-7-7-7Zm5.975,6.5h-3.134c-.055-2.034-.443-4.022-1.149-5.253,2.332,.687,4.075,2.754,4.282,5.253Zm-5.975,6.5c-.718,0-1.735-2.135-1.832-5.5h3.663c-.096,3.365-1.113,5.5-1.831,5.5Zm-1.832-6.5c.096-3.365,1.113-5.5,1.832-5.5s1.735,2.135,1.831,5.5h-3.663Zm.139-5.253c-.706,1.231-1.094,3.219-1.149,5.253h-3.133c.208-2.499,1.95-4.566,4.282-5.253Zm-4.282,6.253h3.133c.055,2.034,.443,4.022,1.149,5.253-2.332-.687-4.075-2.754-4.282-5.253Zm7.667,5.253c.706-1.231,1.094-3.219,1.149-5.253h3.134c-.208,2.499-1.95,4.566-4.282,5.253Z"/>
</svg>
