<svg id="Layer_1" viewBox="0 0 24 24" xmlns="http://www.w3.org/2000/svg" data-name="Layer 1"><path d="m23.638 8.553-.566 2.83c-.419 2.096-2.275 3.617-4.413 3.617h-12.639c.247 1.711 1.732 3 3.462 3h10.017c.276 0 .5.224.5.5s-.224.5-.5.5h-10.016c-2.234 0-4.15-1.668-4.457-3.881l-1.781-12.825c-.103-.738-.742-1.294-1.486-1.294h-1.259c-.276 0-.5-.224-.5-.5s.224-.5.5-.5h1.259c1.24 0 2.305.927 2.476 2.156l.256 1.844h7.009c.276 0 .5.224.5.5s-.224.5-.5.5h-6.87l1.25 9h12.78c1.663 0 3.106-1.183 3.432-2.813l.566-2.83c.054-.271.312-.448.588-.392.271.054.446.317.392.588zm-14.638 13.447c0 1.103-.897 2-2 2s-2-.897-2-2 .897-2 2-2 2 .897 2 2zm-1 0c0-.551-.449-1-1-1s-1 .449-1 1 .449 1 1 1 1-.449 1-1zm11 0c0 1.103-.897 2-2 2s-2-.897-2-2 .897-2 2-2 2 .897 2 2zm-1 0c0-.551-.449-1-1-1s-1 .449-1 1 .449 1 1 1 1-.449 1-1zm-4-19c0-1.616 1.233-2.93 2.75-2.93.95 0 1.762.419 2.257 1.101.5-.676 1.315-1.101 2.243-1.101 1.517 0 2.75 1.314 2.75 2.93 0 2.384-3.214 5.081-3.858 5.597-.336.27-.739.404-1.142.404s-.806-.134-1.142-.404c-.645-.516-3.858-3.212-3.858-5.597zm1 0c0 1.599 2.19 3.78 3.483 4.816.305.243.729.243 1.033 0 1.293-1.037 3.483-3.218 3.483-4.816 0-1.064-.785-1.93-1.75-1.93-.925 0-1.646.613-1.754 1.491-.031.25-.244.439-.496.439-.253 0-.466-.189-.496-.44-.105-.877-.827-1.49-1.753-1.49-.965 0-1.75.866-1.75 1.93z"/></svg>