<svg id="Layer_1" viewBox="0 0 24 24" xmlns="http://www.w3.org/2000/svg" data-name="Layer 1"><path d="m23.576 3.664-2.23-2.243c-.549-.553-1.507-.554-2.058 0l-.398.402c-.573.573-.889 1.337-.889 2.152 0 .757.284 1.462.777 2.017h-.444c-1.012 0-1.918.604-2.308 1.538l-1.649 3.958-4.146-5.577c-.812-1.166-2.341-1.919-3.895-1.919h-.836c-1.379 0-2.5 1.121-2.5 2.5v5.551c-1.691.246-3 1.692-3 3.451v2c0 .651.419 1.201 1 1.408v1.092c0 1.654 1.346 3 3 3s3-1.346 3-3v-1h4v1c0 1.654 1.346 3 3 3s3-1.346 3-3v-1.092c.581-.207 1-.757 1-1.408v-2c0-1.683-1.195-3.091-2.781-3.424l1.73-4.153c.233-.561.776-.923 1.384-.923h2.583c.021 0 .041.005.061.005.822 0 1.658-.33 2.298-.973l.3-.302c.564-.567.564-1.492 0-2.06zm-18.075 1.33h.836c1.217 0 2.452.6 3.083 1.503l4.087 5.497h-9.506v-5.5c0-.827.673-1.5 1.5-1.5zm.5 15c0 1.103-.897 2-2 2s-2-.897-2-2v-1h4zm8 2c-1.103 0-2-.897-2-2v-1h4v1c0 1.103-.897 2-2 2zm3-6.5v2c0 .275-.225.5-.5.5h-15c-.275 0-.5-.225-.5-.5v-2c0-1.379 1.121-2.5 2.5-2.5h11c1.379 0 2.5 1.121 2.5 2.5zm5.866-10.475-.3.302c-.771.773-1.991.893-2.778.274-.501-.395-.788-.983-.788-1.618 0-.548.212-1.062.598-1.447l.399-.403c.168-.176.47-.176.639 0l2.23 2.243c.178.179.178.471 0 .649z"/></svg>