<?xml version="1.0" encoding="UTF-8"?>
<svg xmlns="http://www.w3.org/2000/svg" id="Layer_1" data-name="Layer 1" viewBox="0 0 24 24">
  <path d="m23.5,3c-1.211,0-3.5.731-3.5,3.5,0,2.032,1.763,9.901,1.835,10.224.109.548.165,1.218.165,1.776,0,.827-.673,1.5-1.5,1.5h-3.528c.018-.164.028-.331.028-.5V4.5c0-2.481-2.019-4.5-4.5-4.5H4.5C2.019,0,0,2.019,0,4.5v15c0,2.481,2.019,4.5,4.5,4.5h8c1.956,0,3.624-1.254,4.243-3h3.757c1.379,0,2.5-1.121,2.5-2.5,0-.624-.063-1.36-.187-1.983-.019-.081-1.813-8.095-1.813-10.017,0-2.412,2.246-2.498,2.502-2.5.275-.002.498-.227.497-.502s-.224-.498-.499-.498Zm-7.5,16.5c0,1.93-1.57,3.5-3.5,3.5H4.5c-1.93,0-3.5-1.57-3.5-3.5v-8.5h15v8.5ZM6,10v-.5c0-1.379,1.121-2.5,2.5-2.5s2.5,1.121,2.5,2.5v.5h-5Zm10,0h-4v-.5c0-1.039-.456-1.974-1.177-2.616l2.531-2.531c.195-.195.195-.512,0-.707s-.512-.195-.707,0l-2.677,2.677c-.447-.208-.945-.324-1.469-.324-1.93,0-3.5,1.57-3.5,3.5v.5H1v-5.5c0-1.93,1.57-3.5,3.5-3.5h8c1.93,0,3.5,1.57,3.5,3.5v5.5Z"/>
</svg>
