<?xml version="1.0" encoding="UTF-8"?>
<svg xmlns="http://www.w3.org/2000/svg" id="Layer_1" data-name="Layer 1" viewBox="0 0 24 24">
  <path d="m17.5,0H6.5C4.019,0,2,2.019,2,4.5v16c0,1.93,1.57,3.5,3.5,3.5h12c2.481,0,4.5-2.019,4.5-4.5V4.5c0-2.481-2.019-4.5-4.5-4.5ZM3,4.5c0-1.93,1.57-3.5,3.5-3.5h11c1.93,0,3.5,1.57,3.5,3.5v12.5H5.5c-.98,0-1.864.407-2.5,1.058V4.5Zm14.5,18.5H5.5c-1.378,0-2.5-1.121-2.5-2.5s1.122-2.5,2.5-2.5h15.5v1.5c0,1.93-1.57,3.5-3.5,3.5Zm-6.604-9.391c.325.262.715.392,1.104.392s.779-.13,1.104-.392c1.171-.942,3.896-3.374,3.896-5.614,0-1.652-1.233-2.996-2.75-2.996-.938,0-1.768.493-2.274,1.248-.486-.76-1.294-1.248-2.226-1.248-1.517,0-2.75,1.344-2.75,2.996,0,2.24,2.724,4.672,3.896,5.614Zm-1.146-7.609c.959,0,1.711.86,1.711,1.958,0,.276.224.5.5.5s.5-.224.5-.5c0-1.08.802-1.958,1.789-1.958.965,0,1.75.895,1.75,1.996,0,1.476-1.819,3.465-3.522,4.834-.281.226-.674.226-.955,0-1.703-1.369-3.522-3.358-3.522-4.834,0-1.101.785-1.996,1.75-1.996Z"/>
</svg>
