<?xml version="1.0" encoding="UTF-8"?>
<svg xmlns="http://www.w3.org/2000/svg" id="Layer_1" data-name="Layer 1" viewBox="0 0 24 24">
  <path d="M22.252,22.229c1.08-1.086,1.748-2.58,1.748-4.229,0-3.309-2.691-6-6-6-1.649,0-3.144,.669-4.229,1.749-.004,.004-.009,.005-.013,.009-.004,.004-.005,.009-.009,.013-1.08,1.086-1.748,2.58-1.748,4.229,0,3.309,2.691,6,6,6,1.649,0,3.144-.669,4.229-1.749,.004-.004,.009-.005,.013-.009,.004-.004,.005-.009,.009-.013Zm.748-4.229c0,1.198-.441,2.284-1.146,3.146l-7-7c.862-.706,1.948-1.147,3.147-1.147,2.757,0,5,2.243,5,5Zm-10,0c0-1.198,.441-2.284,1.146-3.146l7,7c-.862,.706-1.948,1.147-3.147,1.147-2.757,0-5-2.243-5-5Zm-1,5.5c0,.276-.224,.5-.5,.5H4.5c-2.481,0-4.5-2.019-4.5-4.5v-6c0-2.481,2.019-4.5,4.5-4.5h4.5c.69,0,1.262-.254,1.61-.715,.415-.548,.502-1.346,.247-2.248-.463-1.633-1.834-2.844-3.413-3.013-1.969-.212-3.784,1.003-4.321,2.888-.183,.641-.77,1.088-1.427,1.088-.466,0-.915-.222-1.199-.595-.277-.363-.368-.82-.25-1.253C1.111,1.983,4.123-.176,7.416,.012c3.692,.214,6.584,3.394,6.584,7.239v3.749c0,.276-.224,.5-.5,.5s-.5-.224-.5-.5v-3.749c0-3.316-2.478-6.058-5.642-6.241C4.543,.857,1.953,2.7,1.211,5.416c-.049,.178,.029,.316,.08,.382,.229,.301,.763,.213,.87-.161,.671-2.354,2.939-3.873,5.39-3.608,1.98,.212,3.695,1.713,4.268,3.735,.343,1.21,.197,2.319-.411,3.123-.542,.717-1.397,1.112-2.408,1.112H4.5c-1.93,0-3.5,1.57-3.5,3.5v6c0,1.93,1.57,3.5,3.5,3.5h7c.276,0,.5,.224,.5,.5Z"/>
</svg>
