<?xml version="1.0" encoding="UTF-8"?>
<svg xmlns="http://www.w3.org/2000/svg" id="Layer_1" data-name="Layer 1" viewBox="0 0 24 24">
  <path d="m23.854,16.854l-3.146,3.146,3.146,3.146c.195.195.195.512,0,.707-.098.098-.226.146-.354.146s-.256-.049-.354-.146l-3.146-3.146-3.146,3.146c-.098.098-.226.146-.354.146s-.256-.049-.354-.146c-.195-.195-.195-.512,0-.707l3.146-3.146-3.146-3.146c-.195-.195-.195-.512,0-.707s.512-.195.707,0l3.146,3.146,3.146-3.146c.195-.195.512-.195.707,0s.195.512,0,.707ZM11,6.5v5.223l-3.765,2.354c-.234.146-.305.455-.159.688.095.152.258.235.424.235.09,0,.182-.024.265-.076l4-2.5c.146-.091.235-.251.235-.424v-5.5c0-.276-.224-.5-.5-.5s-.5.224-.5.5Zm2.436,16.407c-.475.062-.958.093-1.436.093-6.065,0-11-4.935-11-11S5.935,1,12,1s11,4.935,11,11c0,.479-.031.962-.093,1.436-.036.273.157.524.431.561.271.037.524-.158.56-.432.067-.517.102-1.043.102-1.564C24,5.383,18.617,0,12,0S0,5.383,0,12s5.383,12,12,12c.521,0,1.047-.034,1.564-.101.274-.036.467-.286.432-.561-.036-.273-.286-.473-.56-.432Z"/>
</svg>
