<?xml version="1.0" encoding="UTF-8"?>
<svg xmlns="http://www.w3.org/2000/svg" id="Layer_1" data-name="Layer 1" viewBox="0 0 24 24">
  <path d="M23.758,16.5c.173-.405,.261-.825,.261-1.25,0-1.314-.804-2.489-2-2.988v-.012c0-1.792-1.458-3.25-3.25-3.25-.73,0-1.42,.259-1.983,.697l-.286,.187-.275-.194c-.562-.434-1.249-.69-1.975-.69-1.792,0-3.25,1.458-3.25,3.25v.012c-1.196,.499-2,1.674-2,2.988,0,.425,.088,.845,.261,1.25-.173,.405-.261,.825-.261,1.25,0,.885,.364,1.722,1.008,2.337-.005,.054,.009,.555,.038,.618,.227,1.851,1.792,3.295,3.704,3.295,1.042,0,2.007-.432,2.707-1.176,.015,.001,.028,.009,.043,.009,.021,0,.039-.009,.059-.012,.701,.745,1.667,1.179,2.71,1.179,2.068,0,3.75-1.683,3.75-3.75,0-.052-.003-.103-.008-.163,.644-.614,1.008-1.451,1.008-2.337,0-.425-.088-.845-.261-1.25Zm-10.008,6.5c-1.473,0-2.67-1.168-2.737-2.625,.067-1.32,1.152-2.375,2.487-2.375,.276,0,.5-.224,.5-.5s-.224-.5-.5-.5c-1.373,0-2.551,.802-3.124,1.955-.235-.359-.376-.771-.376-1.205,0-.345,.087-.688,.258-1.021,.074-.144,.074-.313,0-.457-.171-.333-.258-.677-.258-1.021,0-1.008,.685-1.896,1.666-2.162,.243-.065,.39-.374,.355-.623-.01-.07-.021-.142-.021-.215,0-1.24,1.009-2.25,2.25-2.25,.686,0,1.324,.325,1.75,.862v10.928c-.516,.754-1.341,1.21-2.25,1.21Zm9.011-6.271c.171,.333,.258,.677,.258,1.021,0,.675-.31,1.312-.85,1.746-.133,.107-.203,.275-.184,.445,0,0,.034,.242,.034,.309,0,1.517-1.234,2.75-2.75,2.75-.919,0-1.755-.464-2.269-1.234V10.883c.426-.55,1.073-.883,1.769-.883,1.219,0,2.209,.977,2.244,2.187-.003,.022,.083,1.678-1.648,2.228-.264,.084-.42,.352-.345,.617,.062,.221,.263,.364,.48,.364,.045,0,.091-.006,.136-.019,1.047-.296,1.856-1.098,2.193-2.093,.717,.385,1.19,1.132,1.19,1.965,0,.345-.087,.688-.258,1.021-.074,.144-.074,.313,0,.457Zm-1.761,.771c0,.276-.224,.5-.5,.5-.827,0-1.5,.673-1.5,1.5,0,.276-.224,.5-.5,.5s-.5-.224-.5-.5c0-1.379,1.122-2.5,2.5-2.5,.276,0,.5,.224,.5,.5Zm-6-5c0,1.379-1.122,2.5-2.5,2.5-.276,0-.5-.224-.5-.5s.224-.5,.5-.5c.827,0,1.5-.673,1.5-1.5,0-.276,.224-.5,.5-.5s.5,.224,.5,.5Zm-6-7.479c0,.276-.224,.5-.5,.5s-.5-.224-.5-.5c0-1.479-.864-2.982-2.102-3.654-.709-.387-1.833-.665-3.163,.197-1.092,.708-1.757,1.862-1.735,3.012,.055,2.904,3.181,6.789,6.062,9.169,.067,.057,.137,.107,.208,.153,.232,.149,.299,.459,.149,.69-.096,.148-.257,.229-.421,.229-.093,0-.187-.025-.271-.08-.104-.067-.205-.142-.303-.223C4.072,12.572,.071,8.295,0,4.596-.027,3.103,.812,1.62,2.192,.725,3.552-.154,5.038-.239,6.376,.488c.87,.473,1.573,1.249,2.035,2.159,.614-1.349,2.031-2.648,4.089-2.648,2.5,0,4.155,1.933,4.435,3.853,.031,.179,.049,.359,.055,.541,0,.036,.011,1.279-.596,2.798-.077,.194-.266,.308-.461,.308-.064,0-.129-.013-.192-.038-.255-.106-.375-.399-.269-.654,.339-.812,.53-1.5,.521-2.398-.001-.132-.491-3.408-3.478-3.408-.005,0-.011,0-.016,0-1.996,0-3.496,1.5-3.496,4.021Z"/>
</svg>
