<?xml version="1.0" encoding="UTF-8"?>
<svg xmlns="http://www.w3.org/2000/svg" id="Layer_1" data-name="Layer 1" viewBox="0 0 24 24">
  <path d="M4,12.5c0-.276,.224-.5,.5-.5h2c.276,0,.5,.224,.5,.5s-.224,.5-.5,.5h-2c-.276,0-.5-.224-.5-.5Zm17.962,8.755l1.891,1.891c.195,.195,.195,.512,0,.707-.098,.098-.226,.146-.354,.146s-.256-.049-.354-.146L.146,.854C-.049,.658-.049,.342,.146,.146S.658-.049,.854,.146L2.984,2.277c.486-.175,.993-.277,1.516-.277h15c2.481,0,4.5,2.019,4.5,4.5v11c0,1.522-.777,2.927-2.038,3.755Zm-.722-.722c1.085-.624,1.76-1.78,1.76-3.033V6.5c0-1.93-1.57-3.5-3.5-3.5H4.5c-.243,0-.482,.029-.716,.077L12.707,12h6.793c.276,0,.5,.224,.5,.5s-.224,.5-.5,.5h-5.793l3,3h2.793c.276,0,.5,.224,.5,.5s-.224,.5-.5,.5h-1.793l3.533,3.533Zm-3.74,.467H4.5c-1.93,0-3.5-1.57-3.5-3.5V6.5c0-.455,.085-.896,.254-1.312,.104-.256-.02-.547-.275-.651-.255-.104-.547,.019-.651,.275-.217,.536-.328,1.104-.328,1.688v11c0,2.481,2.019,4.5,4.5,4.5h13c.276,0,.5-.224,.5-.5s-.224-.5-.5-.5Zm-13-4H12.5c.276,0,.5-.224,.5-.5s-.224-.5-.5-.5H4.5c-.276,0-.5,.224-.5,.5s.224,.5,.5,.5Z"/>
</svg>
