<svg id="Layer_1" viewBox="0 0 24 24" xmlns="http://www.w3.org/2000/svg" data-name="Layer 1"><path d="m0 13.5c0-.276.224-.5.5-.5h7c.276 0 .5.224.5.5s-.224.5-.5.5h-7c-.276 0-.5-.224-.5-.5zm5.5 3.5h-5c-.276 0-.5.224-.5.5s.224.5.5.5h5c.276 0 .5-.224.5-.5s-.224-.5-.5-.5zm-2 4h-3c-.276 0-.5.224-.5.5s.224.5.5.5h3c.276 0 .5-.224.5-.5s-.224-.5-.5-.5zm20.459-14.434-1.652 11.57c-.315 2.203-2.23 3.864-4.455 3.864h-11.352c-.276 0-.5-.224-.5-.5s.224-.5.5-.5h11.352c1.73 0 3.22-1.292 3.465-3.006l1.427-9.994h-7.355l-.132.875c-.173 1.21-1.229 2.125-2.454 2.125-1.465.034-2.696-1.384-2.455-2.83l.026-.17h-6.911l-.367 2.571c-.04.273-.3.46-.565.424-.273-.039-.464-.292-.425-.566l.652-4.566c.314-2.202 2.229-3.863 4.455-3.863h12.786c2.364-.055 4.349 2.234 3.96 4.566zm-13.434.434.606-4h-3.918c-1.73 0-3.221 1.292-3.465 3.005l-.142.995zm4.606-4h-2.99l-.805 5.315c-.142.858.593 1.706 1.466 1.685.731 0 1.361-.546 1.465-1.271l.864-5.729zm7.755 4 .082-.576c.292-1.749-1.197-3.466-2.97-3.424h-3.857l-.603 4h7.347zm-5.387 11c.276 0 .5-.224.5-.5s-.224-.5-.5-.5h-3c-.276 0-.5.224-.5.5s.224.5.5.5z"/></svg>