<svg id="Layer_1" viewBox="0 0 24 24" xmlns="http://www.w3.org/2000/svg" data-name="Layer 1"><path d="m21 9h-4c-1.654 0-3 1.346-3 3v9c0 1.654 1.346 3 3 3h4c1.654 0 3-1.346 3-3v-9c0-1.654-1.346-3-3-3zm2 12c0 1.103-.897 2-2 2h-4c-1.103 0-2-.897-2-2v-9c0-1.103.897-2 2-2h4c1.103 0 2 .897 2 2zm-5.5-17c.276 0 .5.224.5.5s-.224.5-.5.5h-11c-.276 0-.5-.224-.5-.5s.224-.5.5-.5zm4 8.5c0 .276-.224.5-.5.5h-4c-.276 0-.5-.224-.5-.5s.224-.5.5-.5h4c.276 0 .5.224.5.5zm0 3c0 .276-.224.5-.5.5h-4c-.276 0-.5-.224-.5-.5s.224-.5.5-.5h4c.276 0 .5.224.5.5zm0 3c0 .276-.224.5-.5.5h-4c-.276 0-.5-.224-.5-.5s.224-.5.5-.5h4c.276 0 .5.224.5.5zm-7.5-11c0 .276-.224.5-.5.5h-7c-.276 0-.5-.224-.5-.5s.224-.5.5-.5h7c.276 0 .5.224.5.5zm-2 3c0 .276-.224.5-.5.5h-5c-.276 0-.5-.224-.5-.5s.224-.5.5-.5h5c.276 0 .5.224.5.5zm-11 5c0 .827.673 1.5 1.5 1.5h9c.276 0 .5.224.5.5s-.224.5-.5.5h-9c-1.378 0-2.5-1.121-2.5-2.5 0-1.208.86-2.217 2-2.449v-8.551c0-2.481 2.019-4.5 4.5-4.5h11c2.481 0 4.5 2.019 4.5 4.5v2c0 .276-.224.5-.5.5s-.5-.224-.5-.5v-2c0-1.93-1.57-3.5-3.5-3.5h-11c-1.93 0-3.5 1.57-3.5 3.5v8.5h5.5c.133 0 .26.053.354.146l.854.854h1.793c.276 0 .5.224.5.5s-.224.5-.5.5h-2c-.133 0-.26-.053-.354-.146l-.854-.854h-5.793c-.827 0-1.5.673-1.5 1.5z"/></svg>