<svg id="Layer_1" viewBox="0 0 24 24" xmlns="http://www.w3.org/2000/svg" data-name="Layer 1"><path d="m11.5 23h-7c-1.93 0-3.5-1.57-3.5-3.5v-9c0-1.93 1.57-3.5 3.5-3.5h1.556c.541 0 1.082.128 1.565.37l2.311 1.155c.622.311 1.318.475 2.013.475h3.556c.276 0 .5-.224.5-.5s-.224-.5-.5-.5h-3.556c-.541 0-1.082-.128-1.565-.37l-2.311-1.155c-.622-.311-1.318-.475-2.013-.475h-1.056v-2.5c0-1.378 1.122-2.5 2.5-2.5h5.353c.05 0 .098.012.147.015v2.485c0 .827.673 1.5 1.5 1.5h2.48c.006.07.02.139.02.21v2.29c0 .276.224.5.5.5s.5-.224.5-.5v-2.29c0-.911-.348-1.773-.979-2.428l-1.647-1.71c-.656-.681-1.575-1.072-2.521-1.072h-5.353c-1.93 0-3.5 1.57-3.5 3.5v2.551c-2.244.252-4 2.139-4 4.449v9c0 2.481 2.019 4.5 4.5 4.5h7c.276 0 .5-.224.5-.5s-.224-.5-.5-.5zm4.801-19.525c.152.158.272.338.376.525h-2.177c-.276 0-.5-.224-.5-.5v-2.207c.239.124.464.276.653.472l1.647 1.71zm5.699 11.876v-1.851c0-1.93-1.57-3.5-3.5-3.5s-3.5 1.57-3.5 3.5v1.851c-1.178.564-2 1.758-2 3.149v2c0 1.93 1.57 3.5 3.5 3.5h4c1.93 0 3.5-1.57 3.5-3.5v-2c0-1.391-.822-2.585-2-3.149zm-6-1.851c0-1.378 1.122-2.5 2.5-2.5s2.5 1.122 2.5 2.5v1.551c-.165-.024-.329-.051-.5-.051h-4c-.171 0-.335.027-.5.051zm7 7c0 1.378-1.122 2.5-2.5 2.5h-4c-1.378 0-2.5-1.122-2.5-2.5v-2c0-1.378 1.122-2.5 2.5-2.5h4c1.378 0 2.5 1.122 2.5 2.5zm-3.5-1c0 .552-.448 1-1 1s-1-.448-1-1 .448-1 1-1 1 .448 1 1z"/></svg>