<svg id="Layer_1" viewBox="0 0 24 24" xmlns="http://www.w3.org/2000/svg" data-name="Layer 1"><path d="m21.179 17.066 2.723-8.598c.066-.242.098-.225.098-.468 0-.737-.195-1.435-.566-1.921-.523-.686-1.319-1.079-2.183-1.079h-15.648l-.142-1.098c-.298-2.225-2.216-3.902-4.46-3.902h-.501c-.276 0-.5.224-.5.5s.224.5.5.5h.501c1.745 0 3.237 1.305 3.469 3.032l2.135 16.497c.095.7.579 1.242 1.263 1.417.145.037.29.055.433.055.531 0 1.031-.252 1.38-.728l2.93-4.764 5.973 1.081c-.939.628-1.56 1.697-1.56 2.91 0 1.93 1.57 3.5 3.5 3.5s3.478-1.5 3.478-3.5c0-1.705-1.204-3.125-2.821-3.434zm.072-11.066c.549 0 1.055.25 1.389.687.333.436.441.99.304 1.5l-2.749 8.68-11.24-2.035c-1.224-.204-2.243-1.329-2.424-2.675 0-.002-.002-.003-.002-.005l-.796-6.151h15.518zm-12.399 14.714c-.26.352-.631.29-.736.263-.107-.027-.461-.15-.52-.58l-.719-5.558c.539.501 1.194.858 1.907.977l2.771.502-2.702 4.396zm11.671 2.286c-1.379 0-2.5-1.122-2.5-2.5s1.121-2.5 2.5-2.5 2.5 1.122 2.5 2.5-1.121 2.5-2.5 2.5z"/></svg>