<?xml version="1.0" encoding="UTF-8"?>
<svg xmlns="http://www.w3.org/2000/svg" id="Layer_1" data-name="Layer 1" viewBox="0 0 24 24">
  <path d="m22.119,3.595c-.56-.476-1.305-.679-2.035-.561-.405.066-.771.244-1.084.492v-.026c0-.973-.549-1.897-1.445-2.277-1.046-.444-2.039-.184-2.715.422-.463-1.262-1.9-2.056-3.407-1.422-.895.376-1.433,1.306-1.433,2.277v.026c-.313-.248-.679-.426-1.084-.492-.729-.12-1.476.085-2.035.561-.56.477-.881,1.171-.881,1.905v10.85l-1.689-1.577c-.954-.891-2.465-1.021-3.449-.162-1.132.988-1.14,2.715-.076,3.711l4.457,4.297c1.584,1.527,3.699,2.38,5.899,2.38h7.357c2.485,0,4.5-2.015,4.5-4.5V5.5c0-.734-.321-1.429-.881-1.905Zm-13.037,19.116c-.738-.21-1.439-.534-2.082-.961v-2.049l8.323-7.7h5.089l-11.33,10.71Zm4.768-10.71l-6.85,6.337v-6.337h6.85Zm8.018,0h.132v5.893l-3.218-2.976,3.085-2.917Zm-1.624-7.979c.451-.071.886.046,1.227.336.337.286.529.703.529,1.144v5.5h-3v-5.393c0-.789.535-1.471,1.244-1.587Zm-3.744-2.021c.827,0,1.5.673,1.5,1.5v7.5h-3V3.5c0-.827.673-1.5,1.5-1.5Zm-5.5.5c0-.827.673-1.5,1.5-1.5s1.5.673,1.5,1.5v8.5h-3V2.5Zm-3.471.856c.341-.29.776-.406,1.227-.336.709.116,1.244.798,1.244,1.587v6.393h-3v-6.5c0-.44.192-.857.529-1.144ZM1.475,16.597c-.604-.565-.635-1.517-.069-2.121.273-.293.644-.461,1.043-.475.421-.003.78.13,1.073.402l2.479,2.313v4.237c-.021-.019-.043-.036-.063-.056l-4.462-4.302Zm9.668,6.403c-.288,0-.572-.021-.855-.053l4.265-4.032,4.286,4.051c-.113.011-.223.034-.339.034h-7.357Zm8.832-.337l-4.693-4.437,2.772-2.621,3.946,3.651v.244c0,1.401-.833,2.604-2.025,3.163Z"/>
</svg>
