<?xml version="1.0" encoding="UTF-8"?>
<svg xmlns="http://www.w3.org/2000/svg" id="Layer_1" data-name="Layer 1" viewBox="0 0 24 24">
  <path d="M19.5,15c-1.656,0-3.09,.909-3.872,2.245l-7.164-3.161c.331-.626,.536-1.328,.536-2.085s-.205-1.458-.536-2.085l7.164-3.161c.781,1.336,2.215,2.245,3.872,2.245,2.481,0,4.5-2.019,4.5-4.5S21.981,0,19.5,0s-4.5,2.019-4.5,4.5c0,.469,.092,.913,.226,1.339l-7.335,3.236c-.826-.956-2.032-1.575-3.391-1.575C2.019,7.5,0,9.519,0,12s2.019,4.5,4.5,4.5c1.36,0,2.566-.619,3.391-1.575l7.335,3.236c-.134,.426-.226,.87-.226,1.339,0,2.481,2.019,4.5,4.5,4.5s4.5-2.019,4.5-4.5-2.019-4.5-4.5-4.5Zm0-14c1.93,0,3.5,1.57,3.5,3.5s-1.57,3.5-3.5,3.5-3.5-1.57-3.5-3.5,1.57-3.5,3.5-3.5ZM4.5,15.5c-1.93,0-3.5-1.57-3.5-3.5s1.57-3.5,3.5-3.5,3.5,1.57,3.5,3.5-1.57,3.5-3.5,3.5Zm15,7.5c-1.93,0-3.5-1.57-3.5-3.5s1.57-3.5,3.5-3.5,3.5,1.57,3.5,3.5-1.57,3.5-3.5,3.5Z"/>
</svg>
