<?xml version="1.0" encoding="UTF-8"?>
<svg xmlns="http://www.w3.org/2000/svg" id="Layer_1" data-name="Layer 1" viewBox="0 0 24 24">
  <path d="M24,7.5v9c0,1.93-1.57,3.5-3.5,3.5h-3.532l-3.985,3.295c-.275,.245-.626,.368-.978,.368-.356,0-.716-.126-1.001-.38l-3.898-3.283H3.5c-1.93,0-3.5-1.57-3.5-3.5V3.5C0,1.57,1.57,0,3.5,0h13c.276,0,.5,.224,.5,.5s-.224,.5-.5,.5H3.5c-1.379,0-2.5,1.122-2.5,2.5v13c0,1.379,1.121,2.5,2.5,2.5h3.788c.118,0,.232,.042,.322,.117l4.048,3.409c.2,.179,.484,.177,.674,.009l4.138-3.421c.09-.073,.202-.114,.318-.114h3.712c1.379,0,2.5-1.121,2.5-2.5V7.5c0-.276,.224-.5,.5-.5s.5,.224,.5,.5Zm-11.975,.939L19.732,.732c.975-.975,2.561-.975,3.535,0,.473,.472,.732,1.1,.732,1.768s-.26,1.296-.732,1.768l-7.707,7.707c-.66,.661-1.539,1.025-2.475,1.025h-1.586c-.276,0-.5-.224-.5-.5v-1.586c0-.921,.374-1.823,1.025-2.475Zm.707,.707c-.466,.465-.732,1.11-.732,1.768v1.086h1.086c.668,0,1.296-.26,1.768-.732l7.707-7.707c.283-.283,.439-.66,.439-1.061s-.156-.777-.439-1.061c-.584-.585-1.537-.585-2.121,0l-7.707,7.707Z"/>
</svg>
