<?xml version="1.0" encoding="UTF-8"?>
<svg xmlns="http://www.w3.org/2000/svg" id="Layer_1" data-name="Layer 1" viewBox="0 0 24 24">
  <path d="m12,9.5c.828,0,1.5.673,1.5,1.5s-.672,1.5-1.5,1.5-1.5-.673-1.5-1.5.672-1.5,1.5-1.5Zm10.147,3.036l-6.147-4.472V3.625c0-.782-.374-1.53-1-2l-1.5-1.125c-.883-.663-2.117-.663-3,0l-1.501,1.125c-.625.47-.999,1.218-.999,2v4.505L1.797,12.793c-1.125.845-1.797,2.189-1.797,3.597v5.609c0,1.103.897,2,2,2h.5c.276,0,.5-.224.5-.5v-3c0-.276.225-.5.5-.5s.5.224.5.5v3c0,.276.224.5.5.5h15c.276,0,.5-.224.5-.5v-3c0-.276.225-.5.5-.5s.5.224.5.5v3c0,.276.224.5.5.5h.5c1.103,0,2-.897,2-2v-5.825c0-1.434-.692-2.795-1.853-3.639Zm-13.347-3.757c.125-.095.199-.243.199-.4V3.625c0-.469.225-.918.6-1.2l1.5-1.125c.531-.397,1.27-.397,1.801,0l1.499,1.125c.376.282.601.731.601,1.2v4.694c0,.16.076.31.206.404l1.794,1.305v12.972h-2v-5c0-1.654-1.346-3-3-3s-3,1.346-3,3v5h-2v-12.867l1.801-1.354Zm5.199,14.221h-4v-5c0-1.103.897-2,2-2s2,.897,2,2v5Zm-10.5-4c-.827,0-1.5.673-1.5,1.5v2.5c-.552,0-1-.449-1-1v-5.609c0-1.095.522-2.141,1.397-2.798l3.603-2.708v12.115h-1v-2.5c0-.827-.673-1.5-1.5-1.5Zm19.5,3c0,.551-.448,1-1,1v-2.5c0-.827-.673-1.5-1.5-1.5s-1.5.673-1.5,1.5v2.5h-1v-12.245l3.56,2.589c.901.657,1.44,1.715,1.44,2.831v5.825Z"/>
</svg>
