<?xml version="1.0" encoding="UTF-8"?>
<svg xmlns="http://www.w3.org/2000/svg" id="Layer_1" data-name="Layer 1" viewBox="0 0 24 24">
  <path d="m20,0c-1.978,0-3.68,1.475-3.959,3.429-.039.273.151.527.424.566.274.036.527-.15.566-.424.209-1.466,1.486-2.571,2.969-2.571,1.654,0,3,1.346,3,3v12.031c-.912-1.225-2.359-2.031-4-2.031-2.414,0-4.434,1.721-4.899,4h-4.202c-.465-2.279-2.484-4-4.899-4-1.641,0-3.088.806-4,2.031V4c0-1.654,1.346-3,3-3,1.483,0,2.76,1.105,2.969,2.571.039.272.288.455.566.424.273-.039.463-.293.424-.566-.28-1.954-1.982-3.429-3.959-3.429C1.794,0,0,1.794,0,4v15c0,2.757,2.243,5,5,5s5-2.243,5-5h4c0,2.757,2.243,5,5,5s5-2.243,5-5V4c0-2.206-1.794-4-4-4ZM5,23c-2.206,0-4-1.794-4-4s1.794-4,4-4,4,1.794,4,4-1.794,4-4,4Zm14,0c-2.206,0-4-1.794-4-4s1.794-4,4-4,4,1.794,4,4-1.794,4-4,4Z"/>
</svg>
