<?xml version="1.0" encoding="UTF-8"?>
<svg xmlns="http://www.w3.org/2000/svg" id="Layer_1" data-name="Layer 1" viewBox="0 0 24 24">
  <path d="M22.5,1h-5c-.276,0-.5,.224-.5,.5s.224,.5,.5,.5h4.793l-5.146,5.146c-.862-.705-1.948-1.146-3.146-1.146-2.757,0-5,2.243-5,5,0,2.586,1.98,4.694,4.5,4.949v3.551h-3c-.276,0-.5,.224-.5,.5s.224,.5,.5,.5h3v3c0,.276,.224,.5,.5,.5s.5-.224,.5-.5v-3h3c.276,0,.5-.224,.5-.5s-.224-.5-.5-.5h-3v-3.551c2.52-.255,4.5-2.364,4.5-4.949,0-1.198-.441-2.284-1.146-3.146l5.146-5.146V7.5c0,.276,.224,.5,.5,.5s.5-.224,.5-.5V2.5c0-.827-.673-1.5-1.5-1.5ZM14,15c-2.206,0-4-1.794-4-4s1.794-4,4-4,4,1.794,4,4-1.794,4-4,4Zm-4.722,2.264c.131,.244,.039,.547-.204,.677-.242,.132-.547,.04-.677-.204l-.555-1.036-3.701,1.397c-1.04,.411-2.162-.714-1.738-1.754l1.784-3.507-3.417-1.411c-.989-.392-1.02-1.878-.06-2.312l3.495-1.613L1.046,2.808C.343,1.726,1.629,.374,2.732,1.002L7.818,3.696l1.539-2.892c.521-1.057,2.16-1.059,2.682,0l1.594,2.959c.131,.243,.04,.547-.203,.678-.241,.128-.546,.041-.678-.203l-1.595-2.961c-.277-.426-.713-.331-.917,0l-1.773,3.332c-.13,.242-.43,.337-.676,.206L2.263,1.885c-.296-.105-.493,.096-.371,.389l3.473,5.155c.173,.243,.069,.615-.206,.733l-4.018,1.854c-.206,.156-.203,.345,.022,.491l3.906,1.612c.265,.101,.389,.439,.255,.689l-2.006,3.935c-.022,.292,.145,.476,.484,.414l4.097-1.548c.235-.088,.5,.012,.617,.231l.762,1.423Z"/>
</svg>
