<?xml version="1.0" encoding="UTF-8"?>
<svg xmlns="http://www.w3.org/2000/svg" id="Layer_1" data-name="Layer 1" viewBox="0 0 24 24">
  <path d="M20.5,13h-4c-1.93,0-3.5,1.57-3.5,3.5v3.321l-1.775,2.167c-.274,.386-.3,.896-.066,1.331,.227,.423,.647,.682,1.09,.682,.012,0,.025,0,.037,0h8.214c1.93,0,3.5-1.57,3.5-3.5v-4c0-1.93-1.57-3.5-3.5-3.5Zm2.5,7.5c0,1.379-1.121,2.5-2.5,2.5H12.27c-.154,.006-.21-.116-.23-.153s-.079-.167-.021-.251l1.868-2.278c.073-.09,.113-.202,.113-.317v-3.5c0-1.379,1.121-2.5,2.5-2.5h4c1.379,0,2.5,1.121,2.5,2.5v4ZM20.5,0H12.301c-.477-.013-.911,.247-1.144,.682-.232,.436-.207,.944,.088,1.357l1.755,2.14v3.321c0,1.93,1.57,3.5,3.5,3.5h4c1.93,0,3.5-1.57,3.5-3.5V3.5c0-1.93-1.57-3.5-3.5-3.5Zm2.5,7.5c0,1.379-1.121,2.5-2.5,2.5h-4c-1.379,0-2.5-1.121-2.5-2.5v-3.5c0-.115-.04-.228-.113-.317l-1.848-2.251c-.079-.11-.02-.24,0-.277,.02-.037,.093-.154,.239-.154h8.222c1.379,0,2.5,1.121,2.5,2.5V7.5Zm-2.039,9.5c-.095,.797-.438,2.384-1.607,3.56,.608,.288,1.32,.44,2.146,.44,.276,0,.5,.224,.5,.5s-.224,.5-.5,.5c-1.278,0-2.246-.308-2.999-.767-.753,.46-1.724,.767-3.001,.767-.276,0-.5-.224-.5-.5s.224-.5,.5-.5c.875,0,1.575-.171,2.142-.44-.578-.579-.964-1.252-1.204-1.881-.099-.258,.03-.547,.288-.646,.257-.098,.547,.029,.646,.288,.267,.698,.647,1.256,1.13,1.682,1.065-.93,1.373-2.278,1.461-3.003h-4.464c-.276,0-.5-.224-.5-.5s.224-.5,.5-.5h2.5v-.5c0-.276,.224-.5,.5-.5s.5,.224,.5,.5v.5h2.5c.276,0,.5,.224,.5,.5s-.224,.5-.5,.5h-.539ZM6.775,4.401c1.374,1.698,4.225,7.861,4.225,9.145,0,.585-.412,1.454-1.545,1.454h-.549l-.516,2.434c-.438,2.066-2.29,3.566-4.402,3.566h-.987v.5c0,1.379-1.122,2.5-2.5,2.5-.276,0-.5-.224-.5-.5s.224-.5,.5-.5c.827,0,1.5-.673,1.5-1.5v-1c0-.276,.224-.5,.5-.5h1.487c1.643,0,3.083-1.167,3.424-2.773l.6-2.83c.049-.231,.251-.396,.487-.396h.957c.492,0,.545-.317,.545-.454,0-.866-2.607-6.791-4.014-8.53C5.069,3.792,3.138,1.663,.381,.985,.112,.92-.051,.648,.015,.381,.08,.112,.354-.05,.619,.015,3.679,.767,5.789,3.086,6.775,4.401Zm11.725-2.401c-.935,0-1.526,.876-1.646,1.492l-1.016,4.906c-.057,.271,.117,.535,.388,.591,.034,.008,.068,.011,.103,.011,.231,0,.439-.162,.488-.398l.228-1.102h2.851l.21,1.094c.052,.272,.318,.446,.585,.397,.271-.052,.449-.314,.397-.585l-.935-4.877c-.148-.76-.764-1.529-1.654-1.529Zm-1.247,4.5l.582-2.811c.039-.203,.286-.689,.665-.689,.398,0,.628,.495,.672,.719l.533,2.781h-2.452Z"/>
</svg>
