<?xml version="1.0" encoding="UTF-8"?>
<svg xmlns="http://www.w3.org/2000/svg" id="Layer_1" data-name="Layer 1" viewBox="0 0 24 24">
  <path d="m22.26,11.652l-3-.995c-.506-.168-1.064-.168-1.573,0l-3,.995c-1.025.34-1.713,1.294-1.713,2.373v3.413c0,3.618,3.869,5.83,5.053,6.422l.224.112c.071.035.147.053.225.053.063,0,.127-.012.188-.036l.231-.094c1.191-.479,5.08-2.359,5.08-6.457v-3.413c0-1.079-.688-2.033-1.713-2.373Zm.713,5.786c0,3.471-3.408,5.109-4.454,5.529l-.022.01-.023-.012c-1.056-.527-4.501-2.483-4.501-5.527v-3.413c0-.647.413-1.22,1.028-1.424l3-.995c.305-.1.64-.1.945,0l3,.995c.615.204,1.028.776,1.028,1.424v3.413ZM19.475,1.025H4.475C1.993,1.025-.025,3.044-.025,5.525v9c0,2.481,2.019,4.5,4.5,4.5h6c.276,0,.5-.224.5-.5s-.224-.5-.5-.5h-6c-1.93,0-3.5-1.57-3.5-3.5v-5.5h22v.5c0,.276.224.5.5.5s.5-.224.5-.5v-4c0-2.481-2.019-4.5-4.5-4.5Zm-15,1h15c1.758,0,3.204,1.308,3.449,3H1.025c.245-1.692,1.691-3,3.449-3Zm18.5,6H.975v-2h22v2ZM2.917,14.025c0,1.103.897,2,2,2s2-.897,2-2-.897-2-2-2-2,.897-2,2Zm3,0c0,.552-.449,1-1,1s-1-.448-1-1,.449-1,1-1,1,.448,1,1Z"/>
</svg>
