<?xml version="1.0" encoding="UTF-8"?>
<svg xmlns="http://www.w3.org/2000/svg" id="Layer_1" data-name="Layer 1" viewBox="0 0 24 24">
  <path d="m22.922,16.315c-.571-2.612-3.725-6.033-8.034-8.714-.495-.307-1.161-.688-1.751-1.012,2.936-1.307,5.68-1.88,7.37-1.449.62.158,1.052.443,1.285.848.446.775.169,2.014-.779,3.485-.149.231-.083.541.149.69.084.055.178.08.271.08.164,0,.325-.081.421-.229,1.178-1.828,1.457-3.393.805-4.524-.373-.647-1.014-1.092-1.905-1.318-1.246-.321-2.93-.179-4.818.338-.279-.858-.601-1.62-.966-2.258-.843-1.474-1.871-2.252-2.971-2.252-2.386,0-4.332,3.872-4.859,9.156-.089.911-.141,1.859-.141,2.844,0,.582.023,1.161.056,1.736-2.701-2.128-4.609-4.47-5.002-6.266-.137-.624-.075-1.139.182-1.528.494-.747,1.723-1.055,3.463-.866.268.029.521-.169.551-.443.03-.274-.169-.521-.443-.551-2.163-.234-3.685.218-4.405,1.31-.412.623-.521,1.395-.325,2.293.571,2.612,3.725,6.033,8.034,8.714.469.291,1.153.675,1.764,1.007-2.941,1.311-5.69,1.885-7.382,1.454-.62-.158-1.052-.443-1.285-.848-.435-.756-.181-1.958.715-3.386.147-.233.077-.542-.157-.689-.235-.146-.542-.075-.689.158-1.119,1.78-1.373,3.308-.735,4.415.373.647,1.014,1.092,1.905,1.318.452.116.961.172,1.516.172,2.041,0,4.744-.783,7.505-2.143.787-.389,1.58-.819,2.369-1.302.372-.228.736-.464,1.094-.704-.625,4.347-2.242,7.149-3.73,7.149-.71,0-1.458-.621-2.103-1.748-.137-.24-.441-.323-.683-.186-.239.137-.323.442-.186.682.843,1.474,1.871,2.252,2.971,2.252,2.386,0,4.327-3.823,4.854-9.108.089-.911.146-1.907.146-2.892,0-.583-.023-1.162-.056-1.736,2.701,2.128,4.609,4.47,5.002,6.266.137.624.075,1.139-.182,1.528-.48.729-1.668,1.043-3.346.878-.274-.021-.519.175-.545.45-.026.274.175.52.45.546.322.03.629.046.922.046,1.608,0,2.759-.466,3.354-1.369.412-.623.521-1.395.325-2.293ZM12,1c.71,0,1.458.621,2.103,1.748.328.573.615,1.277.871,2.06-1.786.589-3.707,1.472-5.61,2.637-.372.228-.736.464-1.094.704.625-4.347,2.242-7.149,3.73-7.149Zm3.886,13.523c-.567.406-1.159.803-1.772,1.178-.706.432-1.416.813-2.124,1.168-.673-.354-1.733-.936-2.351-1.32-.527-.328-1.036-.668-1.525-1.018-.074-.829-.114-1.679-.114-2.531,0-.881.042-1.721.114-2.523.567-.406,1.159-.803,1.772-1.178.71-.435,1.424-.817,2.136-1.174.657.344,1.663.906,2.339,1.326.527.328,1.037.669,1.527,1.019.074.826.112,1.677.112,2.53,0,.881-.042,1.721-.114,2.523Zm-2.886-2.523c0,.552-.448,1-1,1s-1-.448-1-1,.448-1,1-1,1,.448,1,1Z"/>
</svg>
