<?xml version="1.0" encoding="UTF-8"?>
<svg xmlns="http://www.w3.org/2000/svg" id="Layer_1" data-name="Layer 1" viewBox="0 0 24 24">
  <path d="m22.275,6.833l-1.275-.999v-3.334c0-.276-.224-.5-.5-.5s-.5.224-.5.5v2.551L14.775.958c-1.634-1.28-3.916-1.28-5.55,0L1.725,6.833c-1.096.859-1.725,2.15-1.725,3.542v9.124c0,2.481,2.019,4.5,4.5,4.5h15c2.481,0,4.5-2.019,4.5-4.5v-9.124c0-1.393-.629-2.684-1.725-3.542Zm.725,12.667c0,1.93-1.57,3.5-3.5,3.5H4.5c-1.93,0-3.5-1.57-3.5-3.5v-9.124c0-1.083.489-2.087,1.342-2.755L9.841,1.745c.636-.498,1.397-.747,2.159-.747s1.523.249,2.158.747l7.5,5.876c.853.668,1.342,1.672,1.342,2.755v9.124Zm-8.063-9.757l-5,9c-.091.165-.262.257-.438.257-.082,0-.166-.02-.242-.063-.242-.134-.329-.438-.194-.68l5-9c.134-.241.439-.33.68-.194.242.134.329.438.194.68Zm.063,5.257c-1.103,0-2,.897-2,2s.897,2,2,2,2-.897,2-2-.897-2-2-2Zm0,3c-.551,0-1-.449-1-1s.449-1,1-1,1,.449,1,1-.449,1-1,1Zm-4-7c0-1.103-.897-2-2-2s-2,.897-2,2,.897,2,2,2,2-.897,2-2Zm-2,1c-.551,0-1-.449-1-1s.449-1,1-1,1,.449,1,1-.449,1-1,1Z"/>
</svg>
