<?xml version="1.0" encoding="UTF-8"?>
<svg xmlns="http://www.w3.org/2000/svg" id="Layer_1" data-name="Layer 1" viewBox="0 0 24 24">
  <path d="m5,6c1.654,0,3-1.346,3-3S6.654,0,5,0s-3,1.346-3,3,1.346,3,3,3Zm0-5c1.103,0,2,.897,2,2s-.897,2-2,2-2-.897-2-2,.897-2,2-2Zm12.5,15c2.481,0,4.5-2.019,4.5-4.5s-2.019-4.5-4.5-4.5-4.5,2.019-4.5,4.5,2.019,4.5,4.5,4.5Zm0-8c1.93,0,3.5,1.57,3.5,3.5s-1.57,3.5-3.5,3.5-3.5-1.57-3.5-3.5,1.57-3.5,3.5-3.5Zm-9.086,11.086c.378.378.586.88.586,1.414s-.208,1.036-.586,1.414l-1.939,1.939c-.098.098-.226.146-.354.146s-.256-.049-.354-.146c-.195-.195-.195-.512,0-.707l1.939-1.939c.063-.063.116-.133.159-.207h-3.866c-2.206,0-4-1.794-4-4v-2.5c0-.276.224-.5.5-.5s.5.224.5.5v2.5c0,1.654,1.346,3,3,3h3.866c-.043-.074-.096-.144-.159-.207l-1.939-1.939c-.195-.195-.195-.512,0-.707s.512-.195.707,0l1.939,1.939Zm15.17,4.907c-.028.005-.057.007-.085.007-.239,0-.45-.172-.492-.416-.452-2.656-2.769-4.584-5.507-4.584s-5.055,1.928-5.507,4.584c-.046.272-.304.457-.577.409-.272-.047-.455-.305-.409-.577.534-3.139,3.264-5.416,6.493-5.416s5.958,2.277,6.493,5.416c.046.272-.137.53-.409.577Zm-13.615-12.548c.03.274-.167.521-.442.552-.019.002-.037.003-.055.003-.251,0-.468-.189-.497-.445-.224-2.026-1.933-3.555-3.975-3.555s-3.751,1.528-3.975,3.555c-.03.274-.274.478-.552.442-.275-.03-.473-.277-.442-.552.28-2.534,2.417-4.445,4.969-4.445s4.689,1.911,4.969,4.445Z"/>
</svg>
