<?xml version="1.0" encoding="UTF-8"?>
<svg xmlns="http://www.w3.org/2000/svg" id="Layer_1" data-name="Layer 1" viewBox="0 0 24 24">
  <path d="M18,3.774V.5c0-.276-.224-.5-.5-.5s-.5,.224-.5,.5V3.276c-.471-.168-.971-.276-1.5-.276h-7c-.53,0-1.031,.109-1.503,.277l-.036-2.784c-.004-.274-.227-.494-.5-.494h-.007c-.275,.003-.497,.23-.493,.506l.032,3.273c-1.198,.809-1.993,2.17-1.993,3.721v9c0,1.554,.798,2.918,2,3.726v3.274c0,.276,.224,.5,.5,.5s.5-.224,.5-.5v-2.776c.471,.168,.971,.276,1.5,.276h7c.529,0,1.029-.108,1.5-.276v2.776c0,.276,.224,.5,.5,.5s.5-.224,.5-.5v-3.274c1.202-.809,2-2.172,2-3.726V7.5c0-1.554-.798-2.918-2-3.726Zm1,12.726c0,1.93-1.57,3.5-3.5,3.5h-7c-1.93,0-3.5-1.57-3.5-3.5V7.5c0-1.93,1.57-3.5,3.5-3.5h7c1.93,0,3.5,1.57,3.5,3.5v9Zm-5.25-7.5c-.784,0-1.382,.333-1.771,.769-.361-.435-.933-.769-1.729-.769-1.24,0-2.25,1.088-2.25,2.425,0,1.514,1.548,3.083,2.846,4.133,.335,.271,.744,.406,1.154,.406s.82-.136,1.154-.406c1.298-1.05,2.846-2.619,2.846-4.133,0-1.337-1.01-2.425-2.25-2.425Zm-1.225,5.78c-.305,.246-.746,.246-1.051,0-1.572-1.271-2.475-2.495-2.475-3.355,0-.786,.561-1.425,1.25-1.425,.992,0,1.207,.802,1.207,1,0,.276,.224,.5,.5,.5s.5-.224,.5-.5c0-.221,.31-1,1.293-1,.689,0,1.25,.639,1.25,1.425,0,.861-.902,2.084-2.475,3.355Z"/>
</svg>
