<?xml version="1.0" encoding="UTF-8"?>
<svg xmlns="http://www.w3.org/2000/svg" id="Layer_1" data-name="Layer 1" viewBox="0 0 24 24">
  <path d="M22.682,4.321l-3.003-3.003c-.85-.85-1.979-1.318-3.182-1.318H4.5C2.019,0,0,2.019,0,4.5v15c0,2.481,2.019,4.5,4.5,4.5h15c2.481,0,4.5-2.019,4.5-4.5V7.503c0-1.184-.48-2.344-1.318-3.182ZM6,1h10.497c.531,0,1.038,.133,1.503,.356v3.144c0,1.378-1.121,2.5-2.5,2.5h-7c-1.379,0-2.5-1.122-2.5-2.5V1ZM23,19.5c0,1.93-1.57,3.5-3.5,3.5H4.5c-1.93,0-3.5-1.57-3.5-3.5V4.5c0-1.93,1.57-3.5,3.5-3.5h.5v3.5c0,1.93,1.57,3.5,3.5,3.5h7c1.93,0,3.5-1.57,3.5-3.5V2.053l2.975,2.975c.651,.652,1.025,1.554,1.025,2.475v11.997ZM12,11c-2.206,0-4,1.794-4,4s1.794,4,4,4,4-1.794,4-4-1.794-4-4-4Zm0,7c-1.654,0-3-1.346-3-3s1.346-3,3-3,3,1.346,3,3-1.346,3-3,3Z"/>
</svg>
