<svg id="Layer_1" viewBox="0 0 24 24" xmlns="http://www.w3.org/2000/svg" data-name="Layer 1"><path d="m23.069 6.207c-.688-.767-1.675-1.207-2.706-1.207h-16.726c-1.031 0-2.018.44-2.706 1.208-.689.767-1.02 1.794-.91 2.815l.678 6.731c.2 1.851 1.754 3.246 3.615 3.246h2.135c1.352 0 2.583-.742 3.215-1.938l1.298-2.457c.207-.391.594-.625 1.037-.625s.83.233 1.037.625l1.297 2.456c.631 1.195 1.863 1.938 3.215 1.938h2.136c1.861 0 3.415-1.395 3.616-3.249l.678-6.724c.111-1.025-.22-2.053-.909-2.82zm-21.394.668c.499-.557 1.214-.875 1.962-.875h3.363v1.5c0 .827-.673 1.5-1.5 1.5h-4.476c-.102-.768.131-1.548.651-2.125zm21.309 2.048-.678 6.724c-.145 1.341-1.272 2.353-2.621 2.353h-2.136c-.98 0-1.873-.538-2.331-1.405l-1.298-2.456c-.377-.714-1.113-1.158-1.92-1.158s-1.544.443-1.921 1.158l-1.298 2.456c-.458.867-1.352 1.405-2.332 1.405h-2.135c-1.349 0-2.476-1.012-2.621-2.35l-.569-5.65h4.376c1.378 0 2.5-1.122 2.5-2.5v-1.5h12.363c.748 0 1.463.319 1.962.875.5.556.74 1.301.659 2.048z"/></svg>