<svg id="Layer_1" viewBox="0 0 24 24" xmlns="http://www.w3.org/2000/svg" data-name="Layer 1"><path d="m19.5 2h-1.5v-1.5c0-.276-.224-.5-.5-.5s-.5.224-.5.5v1.5h-10v-1.5c0-.276-.224-.5-.5-.5s-.5.224-.5.5v1.5h-1.5c-2.481 0-4.5 2.019-4.5 4.5v13c0 2.055 1.388 3.847 3.375 4.358.26.069.541-.09.609-.36.069-.268-.092-.54-.36-.609-1.545-.397-2.625-1.792-2.625-3.39v-10.499h22.001v4.5c0 .276.224.5.5.5s.5-.224.5-.5v-7c0-2.481-2.019-4.5-4.5-4.5zm-18.5 6v-1.5c0-1.93 1.57-3.5 3.5-3.5h15c1.93 0 3.5 1.57 3.5 3.5v1.5zm10 8.5v5c0 1.378-1.122 2.5-2.5 2.5s-2.5-1.122-2.5-2.5c0-.276.224-.5.5-.5s.5.224.5.5c0 .827.673 1.5 1.5 1.5s1.5-.673 1.5-1.5v-5c0-.276.224-.5.5-.5s.5.224.5.5zm13 0v6.727c0 .369-.252.679-.612.756-.351.077-.718-.103-.866-.442l-2.521-5.683v5.642c0 .276-.224.5-.5.5s-.5-.224-.5-.5v-6.716c0-.369.252-.679.612-.756.358-.075.717.105.866.442l2.521 5.683v-5.653c0-.276.224-.5.5-.5s.5.224.5.5zm-9-.5c-.775 0-1.396.511-1.544 1.271l-1.197 6.116c-.053.271.124.534.395.587.274.053.533-.125.587-.395l.312-1.596h2.894l.312 1.596c.052.273.322.448.587.395.271-.053.448-.316.395-.587l-1.197-6.116c-.148-.761-.769-1.271-1.544-1.271zm-1.251 4.983.689-3.521c.066-.341.334-.463.562-.463s.496.122.562.463l.689 3.52h-2.503z"/></svg>