<svg id="Layer_1" viewBox="0 0 24 24" xmlns="http://www.w3.org/2000/svg" data-name="Layer 1"><path d="m4.5 13c-1.378 0-2.5 1.121-2.5 2.5s1.122 2.5 2.5 2.5 2.5-1.121 2.5-2.5-1.122-2.5-2.5-2.5zm0 4c-.827 0-1.5-.673-1.5-1.5s.673-1.5 1.5-1.5 1.5.673 1.5 1.5-.673 1.5-1.5 1.5zm12.5-1.5c0 1.379 1.121 2.5 2.5 2.5s2.5-1.121 2.5-2.5-1.121-2.5-2.5-2.5-2.5 1.121-2.5 2.5zm4 0c0 .827-.673 1.5-1.5 1.5s-1.5-.673-1.5-1.5.673-1.5 1.5-1.5 1.5.673 1.5 1.5zm-12 8c0 .276-.224.5-.5.5s-.5-.224-.5-.5c0-1.93-1.57-3.5-3.5-3.5s-3.5 1.57-3.5 3.5c0 .276-.224.5-.5.5s-.5-.224-.5-.5c0-2.481 2.019-4.5 4.5-4.5s4.5 2.019 4.5 4.5zm15 0c0 .276-.224.5-.5.5s-.5-.224-.5-.5c0-1.93-1.57-3.5-3.5-3.5s-3.5 1.57-3.5 3.5c0 .276-.224.5-.5.5s-.5-.224-.5-.5c0-2.481 2.019-4.5 4.5-4.5s4.5 2.019 4.5 4.5zm-8.5-15.5c0 1.379-1.121 2.5-2.5 2.5h-.5v1c0 .276-.224.5-.5.5s-.5-.224-.5-.5v-1h-.5c-1.378 0-2.5-1.121-2.5-2.5 0-.276.224-.5.5-.5s.5.224.5.5c0 .827.673 1.5 1.5 1.5h2c.827 0 1.5-.673 1.5-1.5 0-.624-.446-1.151-1.062-1.254l-3.041-.506c-1.1-.184-1.897-1.126-1.897-2.24 0-1.379 1.122-2.5 2.5-2.5h.5v-1c0-.276.224-.5.5-.5s.5.224.5.5v1h.5c1.379 0 2.5 1.121 2.5 2.5 0 .276-.224.5-.5.5s-.5-.224-.5-.5c0-.827-.673-1.5-1.5-1.5h-2c-.827 0-1.5.673-1.5 1.5 0 .624.447 1.151 1.062 1.254l3.041.506c1.1.184 1.897 1.126 1.897 2.24zm-14.854-2.529c-.195-.195-.195-.512 0-.707l2.346-2.347c.279-.285.64-.417 1.008-.417.5 0 .729.131 1.007.416l2.346 2.348c.195.195.195.512 0 .707s-.512.195-.707 0l-2.146-2.147v7.177c0 .276-.224.5-.5.5s-.5-.224-.5-.5v-7.177l-2.146 2.147c-.195.195-.512.195-.707 0zm16 2.766c-.195-.195-.195-.512 0-.707s.512-.195.707 0l2.146 2.147v-7.177c0-.276.224-.5.5-.5s.5.224.5.5v7.176l2.146-2.146c.195-.195.512-.195.707 0s.195.512 0 .707l-2.346 2.347c-.279.287-.7.417-1.008.417-.367 0-.729-.13-1.008-.416l-2.346-2.348z"/></svg>