<svg id="Layer_1" viewBox="0 0 24 24" xmlns="http://www.w3.org/2000/svg" data-name="Layer 1"><path d="m21 23v.5c0 .276-.224.5-.5.5s-.5-.224-.5-.5v-.5c0-3.538-2.311-6.543-5.502-7.595l-1.459 2.188 1.446 5.786c.066.268-.096.539-.364.606-.261.068-.541-.094-.606-.364l-1.5-6c-.034-.137-.009-.281.069-.398l1.388-2.081c-.478-.089-.968-.142-1.472-.142s-.994.052-1.471.142l1.387 2.081c.078.117.103.262.069.398l-1.5 6c-.066.27-.345.431-.606.364-.268-.067-.431-.338-.364-.606l1.446-5.786-1.459-2.188c-3.191 1.052-5.502 4.057-5.502 7.595v.5c0 .276-.224.5-.5.5s-.5-.224-.5-.5v-.5c0-4.962 4.038-9 9-9s9 4.038 9 9zm-17.386-8.595c.077-.351 1.895-8.605 1.961-8.883.809-3.418 3.297-5.485 6.425-5.522 3.149 0 5.611 2.116 6.425 5.522.066.277 1.884 8.532 1.961 8.883.06.27-.111.536-.381.596-.263.06-.537-.11-.596-.381-.654-2.972-1.905-8.65-1.957-8.865-.425-1.781-1.368-3.144-2.635-3.946-.933 2.984-3.642 5.095-6.803 5.188h-.914c.464 2.281 2.484 4.003 4.899 4.003 1.39 0 2.682-.557 3.637-1.568.188-.201.506-.21.707-.02.2.189.209.506.02.707-1.146 1.213-2.695 1.882-4.363 1.882-2.818 0-5.181-1.955-5.823-4.578-.433 1.96-1.145 5.192-1.587 7.198-.058.272-.333.441-.596.381-.27-.06-.44-.326-.381-.596zm10.304-13.055c-.593-.227-1.236-.35-1.918-.35-2.756 0-4.999 2.242-5 4.999h.999c2.776-.083 5.163-1.982 5.919-4.648z"/></svg>