<?xml version="1.0" encoding="UTF-8"?>
<svg xmlns="http://www.w3.org/2000/svg" id="Layer_1" data-name="Layer 1" viewBox="0 0 24 24">
  <path d="M17.146,8.854c-.195-.195-.195-.512,0-.707l4.5-4.5c.195-.195,.512-.195,.707,0s.195,.512,0,.707l-4.5,4.5c-.098,.098-.226,.146-.354,.146s-.256-.049-.354-.146Zm-5.146-1.854c.276,0,.5-.224,.5-.5V.5c0-.276-.224-.5-.5-.5s-.5,.224-.5,.5V6.5c0,.276,.224,.5,.5,.5Zm12,16.5c0,.276-.224,.5-.5,.5H.5c-.276,0-.5-.224-.5-.5s.224-.5,.5-.5H1.566l.448-3.136c.314-2.203,2.229-3.864,4.454-3.864h.531v-1.5c0-1.379,1.121-2.5,2.5-2.5h5c1.379,0,2.5,1.121,2.5,2.5v1.5h.531c2.225,0,4.14,1.661,4.454,3.864l.448,3.136h1.066c.276,0,.5,.224,.5,.5Zm-16-7.5h8v-1.5c0-.827-.673-1.5-1.5-1.5h-5c-.827,0-1.5,.673-1.5,1.5v1.5Zm13.423,7l-.428-2.995s0-.003-.001-.005h-2.494c-.276,0-.5-.224-.5-.5s.224-.5,.5-.5h2.177c-.57-1.186-1.777-2-3.146-2H6.469c-1.369,0-2.576,.814-3.146,2H15.5c.276,0,.5,.224,.5,.5s-.224,.5-.5,.5H3.006s0,.003-.001,.005l-.428,2.995H21.423ZM6.146,8.854c.098,.098,.226,.146,.354,.146s.256-.049,.354-.146c.195-.195,.195-.512,0-.707L2.354,3.646c-.195-.195-.512-.195-.707,0s-.195,.512,0,.707l4.5,4.5Z"/>
</svg>
