<svg id="Layer_1" viewBox="0 0 24 24" xmlns="http://www.w3.org/2000/svg" data-name="Layer 1"><path d="m16.5 9.382c-.427-.853-1.283-1.382-2.236-1.382h-4.764c-1.379 0-2.5 1.122-2.5 2.5v2c0 1.211.865 2.222 2.01 2.451 0 .017-.01.032-.01.049 0 .552.448 1 1 1s1-.448 1-1h3c0 .552.448 1 1 1s1-.448 1-1c0-.004-.002-.008-.002-.012 1.113-.062 2.002-.978 2.002-2.106 0-.327-.077-.655-.224-.947zm-.895.447.585 1.171h-2.191v-2h.264c.572 0 1.086.318 1.342.829zm-4.605 1.171v-2h2v2zm-1.5-2h.5v2h-2v-.5c0-.827.673-1.5 1.5-1.5zm6.382 5h-6.382c-.827 0-1.5-.673-1.5-1.5v-.5h8.691l.191.382c.077.154.118.328.118.5 0 .616-.502 1.118-1.118 1.118zm7.618-4.5c.276 0 .5-.224.5-.5v-1.5c0-2.481-2.019-4.5-4.5-4.5h-15c-2.481 0-4.5 2.019-4.5 4.5v9c0 2.481 2.019 4.5 4.5 4.5h15c2.481 0 4.5-2.019 4.5-4.5v-1.5c0-.276-.224-.5-.5-.5-1.379 0-2.5-1.121-2.5-2.5s1.121-2.5 2.5-2.5zm-.5 5.965v1.035c0 1.93-1.57 3.5-3.5 3.5h-15c-1.93 0-3.5-1.57-3.5-3.5v-9c0-1.93 1.57-3.5 3.5-3.5h15c1.93 0 3.5 1.57 3.5 3.5v1.036c-1.694.243-3 1.704-3 3.464s1.306 3.221 3 3.465zm-18-9.965v1c0 .276-.224.5-.5.5s-.5-.224-.5-.5v-1c0-.276.224-.5.5-.5s.5.224.5.5zm0 4v1c0 .276-.224.5-.5.5s-.5-.224-.5-.5v-1c0-.276.224-.5.5-.5s.5.224.5.5zm0 4v1c0 .276-.224.5-.5.5s-.5-.224-.5-.5v-1c0-.276.224-.5.5-.5s.5.224.5.5zm0 4v1c0 .276-.224.5-.5.5s-.5-.224-.5-.5v-1c0-.276.224-.5.5-.5s.5.224.5.5z"/></svg>