<svg id="Layer_1" viewBox="0 0 24 24" xmlns="http://www.w3.org/2000/svg" data-name="Layer 1"><path d="m18.89 9c.033.18.078.357.092.54.023.275.271.479.539.458.275-.022.48-.264.458-.538-.125-1.535-.793-2.981-1.883-4.071l-3.485-3.484c-1.227-1.228-2.859-1.904-4.596-1.904h-5.515c-2.481-.001-4.5 2.018-4.5 4.499v15c0 2.481 2.019 4.5 4.5 4.5h5c.276 0 .5-.224.5-.5s-.224-.5-.5-.5h-5c-1.93 0-3.5-1.57-3.5-3.5v-15c0-1.93 1.57-3.5 3.5-3.5h5.515c.335 0 .663.038.985.096v5.404c0 1.379 1.122 2.5 2.5 2.5zm-6.89-2.5v-5.121c.704.273 1.354.682 1.904 1.232l3.485 3.484c.543.543.944 1.198 1.219 1.904h-5.108c-.827 0-1.5-.673-1.5-1.5zm12 6v2.5c0 .552-.449 1-1 1h-2.5c-.276 0-.5-.224-.5-.5s.224-.5.5-.5h1.491c-.935-1.247-2.396-2-3.991-2-2.605 0-4.746 1.954-4.979 4.545-.023.26-.242.455-.498.455-.015 0-.03 0-.045-.002-.275-.024-.478-.268-.453-.543.28-3.11 2.849-5.455 5.976-5.455 2.039 0 3.895 1.022 5 2.698v-2.198c0-.276.224-.5.5-.5s.5.224.5.5zm-.024 6.045c-.28 3.11-2.849 5.455-5.976 5.455-2.039 0-3.895-1.022-5-2.698v2.198c0 .276-.224.5-.5.5s-.5-.224-.5-.5v-2.5c0-.552.449-1 1-1h2.5c.276 0 .5.224.5.5s-.224.5-.5.5h-1.491c.935 1.247 2.396 2 3.991 2 2.605 0 4.746-1.954 4.979-4.545.025-.275.27-.466.543-.453.275.024.478.268.453.543z"/></svg>