<svg id="Layer_1" viewBox="0 0 24 24" xmlns="http://www.w3.org/2000/svg" data-name="Layer 1"><path d="m10 21.5c0 .276-.224.5-.5.5h-5.5c-2.206 0-4-1.794-4-4 0-1.516.857-2.822 2.103-3.5-1.246-.678-2.103-1.984-2.103-3.5s.857-2.822 2.103-3.5c-1.246-.678-2.103-1.984-2.103-3.5 0-2.206 1.794-4 4-4h15c2.206 0 4 1.794 4 4v.5c0 .276-.224.5-.5.5s-.5-.224-.5-.5v-.5c0-1.654-1.346-3-3-3h-10v1.5c0 .276-.224.5-.5.5s-.5-.224-.5-.5v-1.5h-3v1.5c0 .276-.224.5-.5.5s-.5-.224-.5-.5v-1.5c-1.654 0-3 1.346-3 3s1.346 3 3 3h16.5c.276 0 .5.224.5.5s-.224.5-.5.5h-11.5v1.5c0 .276-.224.5-.5.5s-.5-.224-.5-.5v-1.5h-3v1.5c0 .276-.224.5-.5.5s-.5-.224-.5-.5v-1.5c-1.654 0-3 1.346-3 3s1.346 3 3 3h8c.276 0 .5.224.5.5s-.224.5-.5.5h-3v1.5c0 .276-.224.5-.5.5s-.5-.224-.5-.5v-1.5h-3v1.5c0 .276-.224.5-.5.5s-.5-.224-.5-.5v-1.5c-1.654 0-3 1.346-3 3s1.346 3 3 3h5.5c.276 0 .5.224.5.5zm13.934-12.752-3.623 6.354 1.489.802c.885.475 1.359 1.491 1.152 2.473-.336 1.59-1.054 3.192-2.133 4.764-.378.551-1 .86-1.646.86-.229 0-.461-.038-.686-.119l-.379-.141c-.316-.12-.561-.357-.691-.669-.131-.313-.128-.673.009-.985.177-.402.319-.778.419-1.178-.827.685-1.62 1.104-2 1.287-.377.181-.813.164-1.163-.039-.701-.408-1.419-.876-2.077-1.352-.437-.316-.717-.806-.768-1.344-.052-.546.136-1.089.513-1.489 1.003-1.063 1.918-2.219 2.647-3.34.657-1.01 1.942-1.346 2.985-.784l1.447.779 3.636-6.375c.138-.239.444-.321.683-.187.239.137.323.442.187.683zm-2.608 8.036-3.818-2.056c-.585-.316-1.303-.121-1.673.448-.761 1.171-1.715 2.374-2.757 3.48-.181.191-.271.45-.246.71.024.255.151.478.358.627.632.457 1.321.906 1.994 1.298.09.052.182.023.229 0 .482-.231 1.714-.894 2.709-2.045.137-.159.359-.214.553-.142.195.073.325.26.325.469 0 1.172-.264 2.012-.658 2.912-.047.122-.018.257.121.318l.365.135c.428.154.91.005 1.167-.367 1.004-1.462 1.67-2.944 1.979-4.404.115-.549-.15-1.118-.646-1.385z"/></svg>