<?xml version="1.0" encoding="UTF-8"?>
<svg xmlns="http://www.w3.org/2000/svg" id="Layer_1" data-name="Layer 1" viewBox="0 0 24 24">
  <path d="m6,3.5c0-.276.672-.5,1.5-.5s1.5.224,1.5.5-.672.5-1.5.5-1.5-.224-1.5-.5Zm17.505,9.749c-.33.41-.505.9-.505,1.418s.175,1.008.505,1.418c.289.363.341.835.145,1.242-.2.415-.61.673-1.069.673h-7.58v2.5c0,1.832-3.575,3.5-7.5,3.5s-7.5-1.668-7.5-3.5V3.5C0,1.505,3.225,0,7.5,0h15.08c.459,0,.869.258,1.069.673.196.407.145.879-.135,1.23-.34.422-.515.912-.515,1.43s.175,1.008.505,1.418c.661.82.661,2.011,0,2.831-.33.41-.505.9-.505,1.418s.175,1.008.505,1.418c.661.82.661,2.011,0,2.831ZM1,3.5c0,1.183,2.67,2.5,6.5,2.5s6.5-1.317,6.5-2.5-2.67-2.5-6.5-2.5S1,2.317,1,3.5Zm13,1.791c-1.272,1.037-3.649,1.709-6.5,1.709s-5.228-.671-6.5-1.709v15.209c0,.858,2.531,2.5,6.5,2.5s6.5-1.642,6.5-2.5V5.291Zm8,3.709c0-.749.251-1.456.726-2.045.363-.45.363-1.127,0-1.577-.475-.589-.726-1.296-.726-2.045s.251-1.455.726-2.045c.058-.072.044-.138.022-.181-.015-.032-.062-.107-.168-.107h-9.731c1.343.626,2.151,1.501,2.151,2.5v13.5h7.58c.105,0,.153-.075.168-.107.021-.043.035-.108-.017-.175-.48-.596-.731-1.303-.731-2.051s.251-1.456.726-2.045c.363-.45.363-1.127,0-1.577-.475-.589-.726-1.296-.726-2.045Zm-11.5,4h-2.5v-2.5c0-.276-.224-.5-.5-.5s-.5.224-.5.5v2.5h-2.5c-.276,0-.5.224-.5.5s.224.5.5.5h2.5v2.5c0,.276.224.5.5.5s.5-.224.5-.5v-2.5h2.5c.276,0,.5-.224.5-.5s-.224-.5-.5-.5Z"/>
</svg>
