<svg id="Layer_1" viewBox="0 0 24 24" xmlns="http://www.w3.org/2000/svg" data-name="Layer 1"><path d="m15.966 23.467c.018.275-.19.514-.466.532-.271.016-.514-.19-.532-.466-.24-3.663-3.309-6.533-6.984-6.533s-6.744 2.87-6.985 6.533c-.017.276-.259.485-.532.466-.276-.018-.484-.256-.466-.532.276-4.188 3.782-7.467 7.982-7.467s7.707 3.28 7.982 7.467zm-12.983-14.467c0-2.757 2.243-5 5-5s5 2.243 5 5-2.243 5-5 5-5-2.243-5-5zm1 0c0 2.206 1.794 4 4 4s4-1.794 4-4-1.794-4-4-4-4 1.794-4 4zm19.891-3.341c-.195-.194-.513-.195-.708 0 0 0-3.156 3.147-3.177 3.164l-.012-8.285c0-.276-.225-.5-.5-.5-.276 0-.499.225-.499.5l.012 8.238-3.115-3.107c-.195-.194-.513-.195-.708 0-.194.195-.194.512 0 .707l3.119 3.11c.331.33.77.511 1.237.511h.003c.468 0 .907-.184 1.238-.515l3.11-3.119c.194-.195.194-.512 0-.707z"/></svg>