<?xml version="1.0" encoding="UTF-8"?>
<svg xmlns="http://www.w3.org/2000/svg" id="Layer_1" data-name="Layer 1" viewBox="0 0 24 24">
  <path d="M5,3.5v-1c0-.276,.224-.5,.5-.5s.5,.224,.5,.5v1c0,.276-.224,.5-.5,.5s-.5-.224-.5-.5Zm0,3c0,.276,.224,.5,.5,.5s.5-.224,.5-.5v-1c0-.276-.224-.5-.5-.5s-.5,.224-.5,.5v1Zm0,3c0,.276,.224,.5,.5,.5s.5-.224,.5-.5v-1c0-.276-.224-.5-.5-.5s-.5,.224-.5,.5v1Zm7,14c0,.276-.224,.5-.5,.5H4.5c-2.481,0-4.5-2.019-4.5-4.5V4.5C0,2.019,2.019,0,4.5,0h5.515c1.737,0,3.369,.677,4.596,1.904l3.485,3.484c1.228,1.229,1.904,2.861,1.904,4.597v.515c0,.276-.224,.5-.5,.5s-.5-.224-.5-.5v-.515c0-.335-.038-.663-.096-.985h-5.404c-1.378,0-2.5-1.121-2.5-2.5V1.096c-.323-.058-.651-.096-.985-.096H4.5c-1.93,0-3.5,1.57-3.5,3.5v15c0,1.93,1.57,3.5,3.5,3.5h7c.276,0,.5,.224,.5,.5ZM13.904,2.611c-.55-.55-1.199-.959-1.904-1.232V6.5c0,.827,.673,1.5,1.5,1.5h5.12c-.273-.704-.682-1.354-1.231-1.904l-3.485-3.484ZM5.464,11.001c.734,.049,1.284,.484,1.472,1.111l.614,3.05c.123,.436,.039,.892-.232,1.255-.276,.37-.699,.583-1.161,.583h-1.315c-.462,0-.885-.213-1.161-.583s-.358-.837-.225-1.279l.596-2.98c.2-.672,.749-1.107,1.411-1.156Zm-.442,1.398l-.596,2.98c-.052,.182-.027,.326,.058,.44s.216,.18,.358,.18h1.315c.143,0,.273-.065,.358-.18s.11-.259,.069-.396l-.011-.045-.607-3.025c-.057-.181-.258-.338-.503-.355-.172,.018-.374,.175-.442,.4Zm18.978,4.304v4.297c0,1.654-1.346,3-3,3h-5c-1.654,0-3-1.346-3-3v-5c0-1.654,1.346-3,3-3h4.5c.068,0,.132,.014,.191,.039,.517,.082,.996,.316,1.373,.694l1.203,1.203c.472,.473,.732,1.1,.732,1.768Zm-7-2.703v2h3v0s0,0,0,0v-2h-3Zm6,2.703c0-.395-.16-.781-.439-1.061l-1.203-1.203c-.106-.106-.229-.188-.357-.257v1.817c0,.552-.449,1-1,1h-3c-.551,0-1-.448-1-1v-2c-1.103,0-2,.897-2,2v5c0,1.103,.897,2,2,2h5c1.103,0,2-.897,2-2v-4.297Zm-2.5,3.297c0,1.103-.897,2-2,2s-2-.897-2-2,.897-2,2-2,2,.897,2,2Zm-1,0c0-.552-.449-1-1-1s-1,.448-1,1,.449,1,1,1,1-.448,1-1Z"/>
</svg>
