<?xml version="1.0" encoding="UTF-8"?>
<svg xmlns="http://www.w3.org/2000/svg" id="Layer_1" data-name="Layer 1" viewBox="0 0 24 24">
  <path d="M24,14.5c0-.276-.224-.5-.5-.5-.488,0-2.11,.238-3.887,1.163l-3.172-3.167,3.437-3.434c1.849-1.848,3.257-4.138,4.085-6.67,.261-1.1-.784-2.129-1.909-1.84-2.479,.813-4.766,2.219-6.613,4.064l-3.441,3.439-3.441-3.439C6.712,2.271,4.425,.865,1.892,.037,.795-.222-.24,.82,.05,1.94c.815,2.483,2.223,4.773,4.072,6.621l3.435,3.433-3.17,3.168c-1.777-.926-3.399-1.163-3.887-1.163-.276,0-.5,.224-.5,.5s.224,.5,.5,.5c.026,0,2.313,.152,4.554,1.739L.457,21.336c-.608,.608-.608,1.599,0,2.207,.609,.609,1.599,.608,2.207,0l4.596-4.596c1.587,2.244,1.74,4.528,1.74,4.553,0,.276,.224,.5,.5,.5s.5-.224,.5-.5c0-.488-.238-2.115-1.17-3.898l3.169-3.167,3.172,3.167c-.932,1.783-1.17,3.41-1.17,3.898,0,.276,.224,.5,.5,.5s.5-.224,.5-.5c0-.026,.153-2.309,1.74-4.553l4.596,4.596c.609,.608,1.599,.608,2.207,0,.608-.608,.608-1.599,0-2.207l-4.597-4.597c2.241-1.587,4.529-1.739,4.554-1.739,.276,0,.5-.224,.5-.5ZM4.829,7.854C3.09,6.117,1.767,3.964,1.014,1.677c-.105-.359,.284-.754,.621-.674,2.331,.764,4.481,2.085,6.218,3.82l3.441,3.438-3.028,3.026-3.436-3.433ZM1.957,22.836c-.219,.219-.574,.219-.793,0s-.219-.574,0-.793l4.68-4.68c.277,.24,.552,.516,.793,.793L1.957,22.836Zm6.35-4.125c-.37-.57-.812-1.139-1.35-1.676-.538-.538-1.108-.98-1.678-1.35L16.148,4.823c1.736-1.735,3.887-3.057,6.175-3.81,.357-.104,.75,.282,.676,.614-.766,2.336-2.09,4.489-3.829,6.227l-10.864,10.856Zm7.386,0l-2.987-2.982,3.028-3.026,2.987,2.982c-1.139,.71-2.317,1.888-3.028,3.026Zm7.143,3.332c.219,.219,.219,.574,0,.793s-.574,.219-.793,0l-4.68-4.68c.24-.277,.516-.553,.793-.793l4.68,4.68Z"/>
</svg>
