<?xml version="1.0" encoding="UTF-8"?>
<svg xmlns="http://www.w3.org/2000/svg" id="Layer_1" data-name="Layer 1" viewBox="0 0 24 24">
  <path d="M17.358,12.15c.193,.198,.189,.515-.008,.707l-4.522,4.417c-1.038,1.038-2.731,1.034-3.769-.004l-2.413-2.417c-.195-.195-.195-.513,0-.707,.195-.195,.512-.195,.707,0l2.412,2.417c.65,.65,1.708,.65,2.358,0l4.526-4.421c.198-.193,.514-.188,.708,.008Zm6.642-4.65v11c0,2.481-2.019,4.5-4.5,4.5H4.5c-2.481,0-4.5-2.019-4.5-4.5V5.5C0,3.019,2.019,1,4.5,1h3.028c.386,0,.772,.091,1.118,.264l3.156,1.578c.207,.104,.439,.158,.671,.158h7.028c2.481,0,4.5,2.019,4.5,4.5ZM1,5.5v1.5H22.949c-.245-1.692-1.691-3-3.449-3h-7.028c-.386,0-.772-.091-1.118-.264l-3.156-1.578c-.207-.104-.439-.158-.671-.158h-3.028c-1.93,0-3.5,1.57-3.5,3.5Zm22,13V8H1v10.5c0,1.93,1.57,3.5,3.5,3.5h15c1.93,0,3.5-1.57,3.5-3.5Z"/>
</svg>
