<svg id="Layer_1" viewBox="0 0 24 24" xmlns="http://www.w3.org/2000/svg" data-name="Layer 1"><path d="m13 14.088v-.159c0-.514-.2-.999-.564-1.363-.364-.365-.849-.566-1.363-.566h-2.146c-1.061 0-1.926.866-1.927 1.928v2.142c0 .514.2.998.565 1.364.364.365.848.565 1.36.565h1.148c.085.323.246.63.499.883l1.544 1.544c.368.369.859.573 1.384.573s1.016-.204 1.383-.572l1.545-1.544c.763-.763.763-2.004 0-2.767l-1.545-1.543c-.491-.493-1.227-.649-1.883-.485zm-4.072 2.912c-.246 0-.479-.097-.654-.272-.176-.176-.272-.409-.271-.656v-2.143c0-.512.416-.929.927-.929h2.145c.247 0 .48.097.656.273s.271.408.271.656v.761l-1.429 1.428c-.252.252-.413.559-.498.882h-1.146zm6.793 1.176-1.546 1.545c-.357.359-.991.36-1.351 0l-1.545-1.544c-.186-.186-.279-.431-.279-.675 0-.244.093-.489.278-.675l1.684-1.638c.159-.111.339-.187.538-.187.256 0 .495.099.676.28l1.545 1.544c.372.373.372.979 0 1.353zm1.319-10.344c-.661-.652-1.04-1.56-1.04-2.489v-4.343h.5c.276 0 .5-.224.5-.5s-.224-.5-.5-.5h-9c-.276 0-.5.224-.5.5s.224.5.5.5h.5v4.343c0 .929-.379 1.836-1.042 2.491-1.907 1.909-2.958 4.445-2.958 7.142v4.523c0 2.481 2.019 4.5 4.5 4.5h7c2.481 0 4.5-2.019 4.5-4.5v-4.523c0-2.697-1.051-5.233-2.96-7.144zm1.96 11.667c0 1.93-1.57 3.5-3.5 3.5h-7c-1.93 0-3.5-1.57-3.5-3.5v-4.523c0-2.43.946-4.715 2.663-6.433.85-.839 1.337-2.005 1.337-3.201v-4.342h6v4.343c0 1.195.487 2.361 1.335 3.199 1.719 1.719 2.665 4.004 2.665 6.435v4.523z"/></svg>