<svg id="Layer_1" viewBox="0 0 24 24" xmlns="http://www.w3.org/2000/svg" data-name="Layer 1"><path d="m11 5c0-.552.448-1 1-1 .086 0 .164.029.244.049l.903-.903c.195-.195.512-.195.707 0s.195.512 0 .707l-.903.903c.021.08.049.157.049.244 0 .552-.448 1-1 1s-1-.448-1-1zm13.004 8.646c.011 1.185-.863 2.236-2 2.522l-.004 2.334c-.003 1.506-.964 2.838-2.393 3.314l-5.552 1.851c-.663.221-1.359.331-2.055.331s-1.393-.11-2.055-.331l-5.544-1.849c-1.434-.478-2.396-1.814-2.393-3.326l.003-2.323c-1.14-.285-2.019-1.334-2.007-2.523 0-.5.131-.992.369-1.385l1.179-1.822c.562-.868 1.416-1.521 2.401-1.838l1.437-.461c.263-.083.544.06.629.323.084.263-.06.544-.323.629 0 0-1.467.476-1.484.481l7.785 2.603s7.766-2.619 7.752-2.623l-1.436-.461c-.263-.084-.408-.366-.323-.629s.368-.406.629-.323l1.436.461c.985.316 1.838.969 2.401 1.838l1.171 1.808c.246.408.377.9.377 1.399zm-21.897 1.501 5.314 1.771c.697.232 1.498-.072 1.87-.691l1.95-3.251-8.186-2.736c-.252.217-.481.461-.663.742l-1.171 1.808c-.219.364-.292.95-.122 1.382.171.463.539.819 1.008.975zm9.397-.664-1.355 2.259c-.465.776-1.32 1.258-2.231 1.258-.277 0-.551-.045-.814-.133l-4.093-1.364-.003 1.991c-.002 1.08.685 2.035 1.709 2.376l5.544 1.849c.402.134.819.202 1.239.24l.003-8.475zm9.5 2.017-4.1 1.366c-.261.088-.535.133-.813.133-.911 0-1.766-.482-2.231-1.258l-1.356-2.26-.003 8.477c.42-.038.837-.107 1.239-.241l5.552-1.85c1.02-.34 1.708-1.292 1.709-2.368zm2.001-2.855c0-.315-.082-.631-.225-.869l-1.163-1.794c-.183-.283-.414-.529-.667-.746l-8.184 2.737 1.952 3.254c.372.62 1.18.922 1.869.691l5.315-1.771c.47-.156.837-.511 1.008-.975.063-.171.096-.349.096-.527zm-14.415-4.947c-1.241-1.158-1.807-2.869-1.513-4.577.341-1.99 1.89-3.601 3.855-4.01 1.511-.313 3.049.053 4.223 1.008 1.173.955 1.847 2.369 1.847 3.881 0 1.409-.6 2.76-1.645 3.707-.223.203-.523.309-.823.285-.301-.021-.574-.16-.767-.392-.167-.166-.415-.631-.7-.6h-2.207c-.288-.034-.495.407-.646.583-.228.276-.528.415-.859.417-.281 0-.556-.108-.764-.301zm.683-.731c.045.048.089.067.137.021l.334-.452c.291-.35.691-.537 1.115-.537h2.207c.425 0 .825.188 1.098.514l.371.445c.046.046.095.051.15.006.836-.757 1.316-1.838 1.316-2.965 0-1.209-.539-2.341-1.478-3.105s-2.175-1.056-3.387-.805c-1.566.327-2.801 1.613-3.074 3.201-.236 1.375.217 2.75 1.21 3.677z"/></svg>