<?xml version="1.0" encoding="UTF-8"?>
<svg xmlns="http://www.w3.org/2000/svg" id="Layer_1" data-name="Layer 1" viewBox="0 0 24 24">
  <path d="m13,10c0-.552.448-1,1-1s1,.448,1,1-.448,1-1,1-1-.448-1-1Zm1,5c.552,0,1-.448,1-1s-.448-1-1-1-1,.448-1,1,.448,1,1,1Zm10-6v6c0,2.206-1.794,4-4,4H4c-2.206,0-4-1.794-4-4v-6c0-2.206,1.794-4,4-4h16c2.206,0,4,1.794,4,4ZM5,6h-1c-1.654,0-3,1.346-3,3v6c0,1.654,1.346,3,3,3h1V6Zm13,0H6v12h12V6Zm5,3c0-1.654-1.346-3-3-3h-1v12h1c1.654,0,3-1.346,3-3v-6Zm-13,6c.552,0,1-.448,1-1s-.448-1-1-1-1,.448-1,1,.448,1,1,1Zm0-4c.552,0,1-.448,1-1s-.448-1-1-1-1,.448-1,1,.448,1,1,1Z"/>
</svg>
