<?xml version="1.0" encoding="UTF-8"?>
<svg xmlns="http://www.w3.org/2000/svg" id="Layer_1" data-name="Layer 1" viewBox="0 0 24 24">
  <path d="m23.854.146c-.195-.195-.512-.195-.707,0l-3.742,3.742c-1.957-1.788-4.551-2.889-7.404-2.889C5.935,1,1,5.935,1,12c0,2.853,1.101,5.447,2.889,7.404L.146,23.146c-.195.195-.195.512,0,.707.098.098.226.146.354.146s.256-.049.354-.146l3.742-3.742c1.957,1.788,4.551,2.889,7.404,2.889,6.065,0,11-4.935,11-11,0-2.853-1.101-5.447-2.889-7.404l3.742-3.742c.195-.195.195-.512,0-.707ZM2,12C2,6.486,6.486,2,12,2c2.577,0,4.922.988,6.697,2.596l-14.102,14.102c-1.607-1.775-2.596-4.12-2.596-6.697Zm20,0c0,5.514-4.486,10-10,10-2.577,0-4.922-.989-6.697-2.596l14.102-14.102c1.607,1.775,2.596,4.12,2.596,6.697Z"/>
</svg>
