<?xml version="1.0" encoding="UTF-8"?>
<svg xmlns="http://www.w3.org/2000/svg" id="Layer_1" data-name="Layer 1" viewBox="0 0 24 24">
  <path d="M23.5,13c.276,0,.5-.224,.5-.5V6.5c0-.276-.224-.5-.5-.5h-2c-.01,0-.018,.005-.028,.006-.496-1.088-1.384-1.998-2.477-2.479,0-.009,.005-.017,.005-.027V1.5c0-.276-.224-.5-.5-.5s-.5,.224-.5,.5v1.678c-.505-.121-1.027-.194-1.574-.165l-9.692,1.446c-.412-1.392-1.767-2.453-3.212-2.459C1.487,1.864-.288,3.825-.07,5.849l.869,7.817c.084,.76,.725,1.334,1.491,1.334h.71v1.5c0,.276,.224,.5,.5,.5s.5-.224,.5-.5v-1.5h.504c.762,0,1.402-.57,1.49-1.327l.305-2.625,5.39,.788c.748,.095,1.311,.735,1.311,1.488v7.675H.5c-.276,0-.5,.224-.5,.5s.224,.5,.5,.5H23.5c.276,0,.5-.224,.5-.5s-.224-.5-.5-.5h-1.5V13h1.5Zm-1.5-6h1v5h-1V7ZM5.001,13.558c-.029,.252-.243,.442-.497,.442H2.29c-.255,0-.469-.191-.497-.445L.926,5.753c-.15-1.434,1.102-2.858,2.564-2.753,1.38-.002,2.521,1.323,2.425,2.686l-.914,7.872Zm8.999,7.442v-7.675c0-1.256-.939-2.322-2.176-2.479l-5.41-.79,.496-4.27c.001-.01,.002-.02,.002-.03,.006-.104-.011-.206-.014-.31l9.63-1.439c1.166-.061,2.275,.334,3.113,1.126,.876,.828,1.358,1.972,1.358,3.222v12.645h-7Zm3.5-5c-1.103,0-2,.897-2,2s.897,2,2,2,2-.897,2-2-.897-2-2-2Zm0,3c-.551,0-1-.448-1-1s.449-1,1-1,1,.448,1,1-.449,1-1,1Zm0-8c-1.103,0-2,.897-2,2s.897,2,2,2,2-.897,2-2-.897-2-2-2Zm0,3c-.551,0-1-.449-1-1s.449-1,1-1,1,.449,1,1-.449,1-1,1Z"/>
</svg>
