<?xml version="1.0" encoding="UTF-8"?>
<svg xmlns="http://www.w3.org/2000/svg" id="Layer_1" data-name="Layer 1" viewBox="0 0 24 24">
  <path d="M23.505,19.701c-.687-.41-1.515-.701-1.515-.701v-1l.52-.138c.878-.232,1.489-1.026,1.489-1.934V4c0-1.105-.895-2-2-2-.944,0-1.833,.445-2.4,1.2-.218,.335-.56,.735-.906,1.103-.419,.445-1.002,.697-1.613,.697h-1.08v-1s2-1,2-2.487c0,0,0-.513-.5-.513-.4,0-3.105,0-3.105,0-.992,0-1.959,.34-2.706,.992-1.644,1.436-3.387,3.609-4.399,5.449-.193,.351-.29,.746-.29,1.147-.027,.657,.679,1.084,1.234,.795l1.766-.883v1s0,1,1,1,1-1,1-1v-1s-.56-1.102-.5-1.5c.5-2,2-3,2-3-.025,.15-.531,2.566-.5,2.635,0,.754,.611,1.365,1.365,1.365,.351,0,.635,.284,.635,.635v1.365s-1,0-1,1c-.018,.964-.591,.991-1,.985-4.005-.124-4.072-.985-5-.985-.894-.042-1.779,.272-2.412,.912l-.676,.676c-.584,.584-.912,1.376-.912,2.202,.069,.468-.23,.942-.715,.933-.397-.02-1.081-.407-1.483-.39-.521,0-1.005,.338-1.165,.865l-.638,2.109v1l2.009,1.519c.505,.34,1.212,.163,1.491-.396l1.133-2.592c.223-.51,.726-.839,1.283-.839h.676c.547,0,1.044,.317,1.272,.815,.345,.755,.852,1.816,1.136,2.185-.062,.244-.501,.696-.952,1.108-.4,.376-.037,.976,.477,.895,.61,0,1.209-.189,1.685-.579,.502-.406,.79-.712,.79-1.424l-.894-2.045c-.13-.915,.968-.434,1.394,.045q1,1,1,2c.002,.359,.541,.824,.952,.806,.349,0,.686-.216,.809-.581l.076-.225s1.664-.768,1.664-2.768c0-1,.716-1.032,1.394-1.264,1.312-.218,2.446-1.126,2.605,.264-.007,.318-.15,1.563-.5,2.268-.208,.419-1.321,.497-1.99,.506-.327,.004-.628,.171-.81,.443l-.364,.547c-.219,.329-.336,.715-.336,1.109v.894c0,.552,.448,1,1,1h1c.882,0,1.574-.262,2.303-1.05,.168-.027,1.75-.217,2.79-.342,.518-.062,.908-.501,.908-1.023,0-.361-.185-.699-.495-.885Zm-3.359,1.262c-.222,.035-.426,.144-.578,.309-.563,.609-1.002,.729-1.568,.729h-1v-.894c-.03-.374,.343-.8,.523-1.099,1.633-.021,2.519-.349,2.872-1.062,.437-.88,.595-2.281,.604-2.692,.014-.676-.242-1.081-.459-1.303-.284-.29-.679-.45-1.112-.45-.664,.048-1.634,.291-2.628,.605-.585,.173-1.801,.532-1.801,2.127,0,1.288-.982,1.81-1.083,1.86-.179,.083-.328,.216-.431,.381-.056-.894-.317-1.218-1.279-2.18-.408-.408-.88-.685-1.4-.822-.566-.155-1.19,.083-1.509,.579-.209,.32-.274,.706-.187,1.07-.099-.207-.211-.445-.337-.722-.388-.85-1.245-1.399-2.181-1.399h-.676c-.954,0-1.817,.565-2.199,1.439l-1.152,2.555-1.565-1.183v-.355l.595-1.968c.335-.429,1.216,.365,1.69,.236,.946,0,1.715-.77,1.715-1.717-.037-.634,.159-1.262,.619-1.711l.676-.676c.399-.399,.93-.619,1.495-.619,1.487,.28,1.719,.917,5.18,.985,1.143-.149,1.991-1.112,2.03-1.985,0,0,0,0,0,0,.552,0,1-.448,1-1v-1.365c0-.902-.734-1.635-1.635-1.635-.195,0-.354-.154-.364-.346,.043-.3,.286-1.494,.38-1.957,.165-.695,.219-1.131-.338-1.537-.335-.216-.766-.213-1.097,.008-.074,.05-1.828,1.241-2.415,3.59-.064,.285-.033,.557,.068,.941-.301-.225-.71-.261-1.045-.093l-1.537,.769c.024-.161,.075-.314,.15-.451,.967-1.757,2.647-3.838,4.181-5.178,.55-.481,1.277-.745,2.048-.745h2.446c-.297,.483-.935,.926-1.288,1.106-.339,.169-.553,.516-.553,.894v1c0,.552,.448,1,1,1h1.08c.884,0,1.738-.369,2.342-1.012,.434-.462,.768-.869,.995-1.21,.377-.488,.966-.778,1.583-.778,.537-.011,1.011,.462,1,1V15.929c0,.453-.307,.851-.745,.967l-.52,.137c-.439,.116-.745,.513-.745,.967v1c0,.424,.268,.803,.669,.943,.007,.003,.746,.265,1.333,.615,0,0-2.792,.395-2.845,.404Z"/>
</svg>
