<svg id="Layer_1" viewBox="0 0 24 24" xmlns="http://www.w3.org/2000/svg" data-name="Layer 1"><path d="m22.435 13.92c-.299-.797-.822-1.466-1.471-1.968.889-.481 2.286-1.48 3.001-3.266.103-.256-.022-.547-.279-.649-.254-.103-.547.021-.65.278-.825 2.063-2.793 2.901-3.127 3.031-.516-.211-1.07-.337-1.646-.342l.234-4.396 1.341-3.41c.396-.892.055-1.936-.775-2.38-1.004-.535-2.088-.799-3.054-.818-.952 0-1.968.255-2.961.757-.903.457-1.293 1.529-.896 2.423l1.353 3.43.239 4.39h-2.744v-3.5c0-.651-.419-1.201-1-1.408v-5.043c0-.364-.186-.698-.5-.894-.313-.191-.694-.208-1.015-.044l-1.641.821c-.521.259-.844.78-.844 1.362v3.797c-.581.207-1 .757-1 1.408v3.573c-1.55.273-2.884 1.349-3.446 2.855l-1.297 3.482c-.171.511-.257 1.043-.257 1.583 0 2.761 2.246 5.007 5.007 5.007h13.986c2.761 0 5.007-2.246 5.007-5.007 0-.54-.086-1.072-.263-1.601l-1.302-3.473zm-8.936-12.27c.851-.431 1.677-.653 2.51-.649.811-.016 1.724.24 2.581.699.37.197.516.677.324 1.111l-1.254 3.189h-3.319l-1.266-3.207c-.189-.426-.003-.928.424-1.144zm1.029 5.35h2.945l-.212 4h-2.515zm-7.528-4.705c0-.199.111-.379.29-.468l1.71-.778v4.951h-2zm-1 5.205c0-.275.224-.5.5-.5h3c.276 0 .5.225.5.5v3.5h-4zm12.993 15.5h-13.986c-2.209 0-4.007-1.798-4.007-4.007 0-.432.069-.857.2-1.25l1.291-3.466c.508-1.362 1.826-2.277 3.28-2.277h12.45c1.451 0 2.768.913 3.277 2.271l1.296 3.455c.136.409.206.835.206 1.267 0 2.209-1.797 4.007-4.007 4.007z"/></svg>