<svg id="Layer_1" viewBox="0 0 24 24" xmlns="http://www.w3.org/2000/svg" data-name="Layer 1"><path d="m19.5 0h-15c-2.481 0-4.5 2.019-4.5 4.5v1c0 .815.397 1.532 1.002 1.989 0 .004-.002.007-.002.011v12c0 2.481 2.019 4.5 4.5 4.5h13c2.481 0 4.5-2.019 4.5-4.5v-12s-.002-.007-.002-.011c.605-.457 1.002-1.175 1.002-1.989v-1c0-2.481-2.019-4.5-4.5-4.5zm2.5 19.5c0 1.93-1.57 3.5-3.5 3.5h-13c-1.93 0-3.5-1.57-3.5-3.5v-11.551c.162.033.329.051.5.051h19c.171 0 .338-.018.5-.051zm1-14c0 .827-.673 1.5-1.5 1.5h-19c-.827 0-1.5-.673-1.5-1.5v-1c0-1.93 1.57-3.5 3.5-3.5h15c1.93 0 3.5 1.57 3.5 3.5zm-6.422 5.237c-.473-.476-1.103-.737-1.773-.737h-5.6c-.667 0-1.295.26-1.768.732l-1.352 1.352c-.734.734-.78 1.927-.104 2.716.004.006.009.011.014.017l5.639 6.026c.095.101.227.158.365.158s.271-.058.365-.158l5.655-6.046c.672-.786.627-1.977-.102-2.71l-1.34-1.348zm-.709.705s1.439 1.485 1.481 1.558h-2.99l-.667-2h1.111c.402 0 .78.157 1.064.442zm-5.184 2.558h2.631l-1.315 4.125-1.317-4.125zm.009-1 .667-2h1.28l.667 2h-2.613zm-2.549-1.561c.283-.284.66-.439 1.061-.439h1.101l-.667 2h-2.989c.042-.073 1.493-1.561 1.493-1.561zm-1.489 2.561h2.979l1.569 4.917s-4.521-4.87-4.548-4.917zm6.143 4.914 1.567-4.914h2.981c-.026.042-4.548 4.914-4.548 4.914z"/></svg>