<svg id="Layer_1" viewBox="0 0 24 24" xmlns="http://www.w3.org/2000/svg" data-name="Layer 1"><path d="m24 2.508c.005-.672-.253-1.303-.728-1.778-.474-.475-1.126-.754-1.778-.728-.963.007-2.032.097-3.198.27-1.638.315-3.417 1.388-4.285 1.964-.166-.54-.536-1.011-1.091-1.179-.467-.152-.971-.084-1.384.186-.721.469-1.685 1.225-2.514 2.314-.208-.278-.511-.473-.864-.543-.505-.1-1.012.067-1.359.448-1.313 1.436-2.036 3.072-2.245 5.1-.358-.127-.752-.113-1.105.046-.419.188-.723.552-.834.997-1.124 4.518-.401 10-.205 11.279l-2.263 2.263c-.195.195-.195.512 0 .707.098.098.226.146.354.146s.256-.049.354-.146l2.264-2.263c.752.116 2.933.413 5.522.413 1.835 0 3.876-.149 5.758-.617.445-.111.81-.415.998-.835.159-.353.174-.746.046-1.103 2.046-.206 3.643-.914 5.101-2.246.381-.349.548-.857.447-1.36-.07-.353-.266-.656-.544-.863 1.105-.849 1.864-1.849 2.332-2.598.253-.407.307-.902.147-1.358-.177-.527-.62-.897-1.147-1.047.579-.875 1.642-2.647 1.957-4.29.17-1.142.26-2.21.267-3.176zm-1.252 3.008c-.385 2.001-2.139 4.39-2.157 4.414-.094.127-.122.292-.076.443.047.151.162.272.312.325l.78.277c.176.062.312.2.373.376.035.099.074.296-.053.499-.511.82-1.405 1.97-2.768 2.796-.164.101-.257.286-.237.478.019.192.146.355.328.421l.481.173c.206.074.262.248.276.319.015.075.031.268-.142.426-1.447 1.322-3.06 1.951-5.227 2.037-.172.007-.327.102-.413.249-.086.148-.09.33-.011.482l.254.486c.069.133.074.287.013.424-.062.138-.182.237-.328.273-3.714.925-8.22.529-10.15.287l12.851-12.846c.195-.195.195-.512 0-.707s-.512-.195-.707 0l-12.851 12.849c-.246-1.931-.644-6.402.289-10.152.036-.146.136-.265.273-.327.136-.062.291-.058.424.013l.486.254c.152.079.334.076.482-.011.148-.086.242-.242.249-.413.085-2.166.714-3.778 2.037-5.226.158-.173.35-.156.425-.142.072.015.246.07.32.277l.173.482c.065.181.229.309.421.328.191.018.377-.073.477-.238.819-1.35 1.935-2.247 2.727-2.762.159-.104.353-.132.532-.073.175.057.308.183.375.355l.319.826c.057.145.178.257.327.3.148.043.312.015.437-.079.023-.018 2.408-1.771 4.393-2.153 1.099-.163 2.121-.249 3.038-.255.375.006.779.151 1.063.436.283.284.437.661.435 1.063-.007.919-.093 1.941-.252 3.016z"/></svg>