<?xml version="1.0" encoding="UTF-8"?>
<svg xmlns="http://www.w3.org/2000/svg" id="Layer_1" data-name="Layer 1" viewBox="0 0 24 24">
  <path d="M19.5,4h-.551c-.252-2.244-2.139-4-4.449-4H4.5C2.019,0,0,2.019,0,4.5v13.855c-.041,1.276,1.522,2.113,2.562,1.371l3.526-2.351c.409,2.063,2.23,3.625,4.412,3.625h6.849l4.089,2.726c1.04,.742,2.604-.095,2.562-1.371V8.5c0-2.481-2.019-4.5-4.5-4.5ZM2.007,18.894c-.408,.295-1.026-.037-1.007-.539V4.5c0-1.93,1.57-3.5,3.5-3.5H14.5c1.93,0,3.5,1.57,3.5,3.5V12.5c0,1.93-1.57,3.5-3.5,3.5H6.5c-.105-.004-.189,.05-.277,.084l-4.215,2.81Zm20.993,3.461c.019,.503-.602,.831-1.008,.539l-4.215-2.81c-.082-.055-.179-.084-.277-.084h-7c-1.758,0-3.204-1.308-3.449-3h7.449c2.481,0,4.5-2.019,4.5-4.5V5h.5c1.93,0,3.5,1.57,3.5,3.5v13.855ZM9.783,11.99c.034,.007,.068,.01,.102,.01,.232,0,.44-.163,.489-.398l.228-1.102h2.851l.21,1.094c.052,.271,.32,.446,.585,.397,.271-.052,.449-.314,.397-.585l-.935-4.876c-.148-.76-.764-1.529-1.654-1.529-.937,0-1.527,.876-1.646,1.492l-1.016,4.907c-.056,.271,.118,.535,.388,.591Zm1.609-5.302c.039-.203,.285-.688,.665-.688,.398,0,.628,.495,.672,.719l.533,2.781h-2.452l.582-2.812Zm-5.142,5.312c-1.241,0-2.25-1.009-2.25-2.25v-.25c0-.276,.224-.5,.5-.5s.5,.224,.5,.5v.25c0,.689,.561,1.25,1.25,1.25s1.25-.561,1.25-1.25V5.5c0-.276,.224-.5,.5-.5s.5,.224,.5,.5v4.25c0,1.241-1.009,2.25-2.25,2.25Z"/>
</svg>
