<svg id="Layer_1" viewBox="0 0 24 24" xmlns="http://www.w3.org/2000/svg" data-name="Layer 1"><path d="m24 11.5v8c0 2.481-2.019 4.5-4.5 4.5h-15c-2.481 0-4.5-2.019-4.5-4.5v-12c0-2.481 2.019-4.5 4.5-4.5h6c.276 0 .5.224.5.5s-.224.5-.5.5h-6c-1.611 0-2.958 1.101-3.363 2.586l8.388 8.389c1.365 1.366 3.585 1.364 4.95 0l2.867-2.83c.196-.194.513-.192.707.004s.192.514-.005.707l-2.864 2.828c-.875.876-2.027 1.314-3.179 1.314s-2.306-.438-3.183-1.316l-7.818-7.819v11.637c0 1.93 1.57 3.5 3.5 3.5h15c1.93 0 3.5-1.57 3.5-3.5v-8c0-.276.224-.5.5-.5s.5.224.5.5zm0-8v3c0 1.93-1.57 3.5-3.5 3.5h-3.372l-2.439 1.681c-.34.218-.778.231-1.13.039-.348-.189-.556-.543-.556-.945v-7.274c-.001-1.931 1.569-3.501 3.499-3.501h4c1.93 0 3.5 1.571 3.5 3.5zm-1 0c0-1.378-1.122-2.499-2.5-2.5h-3.999c-1.379 0-2.5 1.122-2.5 2.501v7.273c.001.076.047.125.121.082l2.568-1.769c.083-.057.183-.088.284-.088h3.527c1.378 0 2.5-1.121 2.5-2.5v-3zm-2.088.252h-1.448l-.512-1.438c-.07-.189-.251-.314-.452-.314s-.382.125-.452.314l-.512 1.438h-1.448c-.202 0-.383.126-.453.316s-.014.403.141.534l1.147.933-.454 1.364c-.061.195.007.408.171.531s.388.129.558.015l1.306-.874 1.329.865c.172.111.395.103.558-.022s.228-.339.164-.534l-.472-1.347 1.141-.93c.155-.13.212-.344.143-.534-.07-.19-.251-.317-.453-.317z"/></svg>