<svg id="Layer_1" viewBox="0 0 24 24" xmlns="http://www.w3.org/2000/svg" data-name="Layer 1"><path d="m24 13c0-3.095-1.801-5.118-5.027-5.77-.102-.569-.528-1.23-1.473-1.23h-.5v-5.5c0-.276-.224-.5-.5-.5s-.5.224-.5.5v7c0 .276.224.5.5.5 2.29 0 3.5 1.729 3.5 5 0 3.018-1.042 4.704-3 4.95v-4.45c0-.276-.224-.5-.5-.5s-.5.224-.5.5v4.477c-1.51-.055-2.782-.343-3.757-.885-.242-.136-.546-.048-.68.193s-.047.546.194.68c.655.365 1.418.627 2.269.799.097.55.502 1.183 1.383 1.227l-.388 2.428c-.163.903.575 1.598 1.479 1.582.912.013 1.645-.678 1.477-1.596l-.471-2.405c.941-.003 1.366-.662 1.468-1.229 3.226-.653 5.027-2.676 5.027-5.771zm-7.062 9.845c-.164.195-.713.195-.877 0-.021-.024-.082-.097-.054-.266l.479-2.579.506 2.582c.027.166-.034.238-.055.263zm2.8-5.322c.724-.888 1.262-2.291 1.262-4.523s-.536-3.633-1.258-4.522c1.736.591 3.258 1.864 3.258 4.522s-1.524 3.933-3.262 4.523z"/><path d="m9.973 15.771c3.226-.653 5.027-2.676 5.027-5.771s-1.801-5.118-5.027-5.77c-.102-.569-.528-1.23-1.473-1.23h-.5v-2.5c0-.276-.224-.5-.5-.5s-.5.224-.5.5v2.5h-.5c-.945 0-1.371.661-1.473 1.23-3.226.652-5.027 2.675-5.027 5.77s1.801 5.118 5.027 5.771c.099.549.504 1.176 1.381 1.22l-.388 2.428c-.162.903.574 1.598 1.479 1.582.913.013 1.643-.678 1.477-1.596l-.471-2.405c.94-.003 1.365-.662 1.467-1.229zm-1.973-.82v-9.901c1.958.246 3 1.932 3 4.95s-1.042 4.704-3 4.95zm-1-9.9v9.899c-1.958-.246-3-1.932-3-4.95s1.042-4.704 3-4.95zm7 4.95c0 2.66-1.523 3.933-3.261 4.523.723-.888 1.261-2.291 1.261-4.523s-.538-3.635-1.261-4.523c1.738.59 3.261 1.863 3.261 4.523zm-13 0c0-2.66 1.523-3.932 3.261-4.523-.723.888-1.261 2.291-1.261 4.523s.538 3.635 1.261 4.523c-1.738-.59-3.261-1.863-3.261-4.523zm6.939 9.845c-.165.193-.713.193-.878 0-.02-.024-.082-.097-.054-.266l.493-2.579.493 2.582c.027.166-.034.238-.054.263z"/></svg>