<?xml version="1.0" encoding="UTF-8"?>
<svg xmlns="http://www.w3.org/2000/svg" id="Layer_1" data-name="Layer 1" viewBox="0 0 24 24">
  <path d="M21.384,8.815L10.281,.774C9.075-.112,7.494-.238,6.162,.437c-1.354,.687-2.162,2.003-2.162,3.521V20.043c0,1.519,.809,2.835,2.163,3.521,.578,.293,1.19,.438,1.797,.438,.814,0,1.619-.261,2.318-.774l11.105-8.042,.003-.002c1.025-.752,1.613-1.912,1.613-3.184s-.588-2.432-1.616-3.185Zm-.588,5.561l-11.106,8.043c-.914,.672-2.063,.765-3.074,.253-1.012-.513-1.615-1.495-1.615-2.629V3.957c0-1.133,.604-2.115,1.615-2.629,.429-.218,.881-.328,1.344-.328,.615,0,1.214,.201,1.733,.583l11.104,8.041c.765,.561,1.204,1.427,1.204,2.376s-.438,1.814-1.204,2.376Z"/>
</svg>
