<?xml version="1.0" encoding="UTF-8"?>
<svg xmlns="http://www.w3.org/2000/svg" id="Layer_1" data-name="Layer 1" viewBox="0 0 24 24">
  <path d="m9.964,17.111c.574.557,1.31.835,2.046.835s1.477-.28,2.052-.84l3.594-3.503c1.511-1.505,2.344-3.506,2.344-5.635s-.833-4.129-2.344-5.635c-1.511-1.504-3.52-2.333-5.656-2.333s-4.145.829-5.656,2.333c-1.511,1.505-2.344,3.506-2.344,5.635s.833,4.13,2.349,5.64l3.616,3.504ZM7.049,3.042c1.322-1.316,3.081-2.042,4.951-2.042s3.628.725,4.951,2.042c1.321,1.316,2.049,3.065,2.049,4.926s-.728,3.61-2.046,4.923l-3.59,3.5c-.757.738-1.945.739-2.703.003l-3.611-3.5c-1.321-1.316-2.049-3.065-2.049-4.926s.728-3.61,2.049-4.926Zm4.951,7.958c1.654,0,3-1.346,3-3s-1.346-3-3-3-3,1.346-3,3,1.346,3,3,3Zm0-5c1.103,0,2,.897,2,2s-.897,2-2,2-2-.897-2-2,.897-2,2-2Zm12,8.598v4.742c0,1.123-.506,2.166-1.39,2.859-.883.693-2.018.94-3.107.674l-2.402-.737c-.639-.185-1.326-.189-1.976-.014l-5.619,1.706c-.416.115-.84.172-1.262.172-.471,0-.939-.071-1.393-.213l-3.448-.933c-2.006-.573-3.403-2.424-3.403-4.503v-4.299c0-1.616.804-2.936,2.207-3.62.247-.122.547-.019.668.23.121.248.019.547-.23.668-1.061.518-1.645,1.485-1.645,2.722v4.299c0,1.635,1.098,3.091,2.67,3.54l3.46.937c.695.216,1.414.229,2.097.04l5.622-1.706c.84-.229,1.713-.222,2.538.017l2.381.731c.761.187,1.583.007,2.225-.496.64-.503,1.007-1.259,1.007-2.073v-4.742c0-1.271-.672-2.473-1.754-3.138-.235-.145-.309-.452-.164-.688.144-.236.453-.31.688-.164,1.376.845,2.231,2.374,2.231,3.989Z"/>
</svg>
