<?xml version="1.0" encoding="UTF-8"?>
<svg xmlns="http://www.w3.org/2000/svg" id="Layer_1" data-name="Layer 1" viewBox="0 0 24 24">
  <path d="M11.992,6c1.657,0,2.955-1.318,2.955-3s-1.298-3-2.955-3c-1.679,0-3.045,1.346-3.045,3s1.366,3,3.045,3Zm0-5c1.096,0,1.955,.878,1.955,2s-.859,2-1.955,2c-1.127,0-2.045-.897-2.045-2s.917-2,2.045-2Zm10.936,15.759c-.094,.155-.259,.241-.428,.241-.088,0-.177-.023-.258-.072l-3.5-2.115c-.08-.048-.145-.118-.187-.201l-1.609-3.156c-.243-.477-.569-.89-.946-1.242v8.968l5.342,2.499c.528,.3,.761,.856,.615,1.403-.145,.548-.624,.916-1.19,.916H9.5c-.276,0-.5-.224-.5-.5s.224-.5,.5-.5h11.268c.155,0,.207-.107,.224-.172,.017-.064,.025-.183-.109-.26l-5.594-2.616c-.176-.082-.288-.259-.288-.453V9.509c-.626-.323-1.327-.509-2.063-.509h-1.873c-.737,0-1.437,.186-2.063,.509v9.991c0,.194-.112,.371-.288,.453l-5.63,2.635c-.098,.058-.09,.177-.073,.241,.017,.064,.069,.172,.224,.172h3.268c.276,0,.5,.224,.5,.5s-.224,.5-.5,.5H3.232c-.566,0-1.045-.368-1.19-.916-.146-.547,.087-1.104,.579-1.384l5.378-2.518V10.214c-.376,.352-.702,.764-.946,1.242l-1.609,3.156c-.042,.083-.107,.153-.187,.201l-3.5,2.115c-.239,.142-.545,.067-.687-.169-.143-.236-.067-.544,.169-.687l3.378-2.042,1.544-3.029c.943-1.852,2.821-3.002,4.9-3.002h1.873c2.079,0,3.957,1.15,4.9,3.002l1.544,3.029,3.378,2.042c.236,.143,.312,.45,.169,.687Z"/>
</svg>
