<svg id="Layer_1" viewBox="0 0 24 24" xmlns="http://www.w3.org/2000/svg" data-name="Layer 1"><path d="m17.108 7.811c.172.218.487.253.702.081l1.189-1.115v3.42c0 .313.186.592.485.727.282.129.652.099.875-.104l2.757-2.119c.093-.083.375-.333.374-.722 0-.363-.25-.627-.463-.813l-2.174-1.69 2.241-1.779c.271-.24.403-.49.404-.767 0-.411-.305-.683-.444-.803l-2.666-1.923c-.241-.217-.597-.264-.902-.127-.3.135-.485.413-.485.727v3.431l-1.193-1.129c-.217-.17-.531-.131-.701.088-.17.218-.13.532.088.701l1.807 1.605-1.811 1.608c-.217.172-.253.486-.081.702zm2.892-6.657s2.448 1.768 2.455 1.774l-2.455 1.883v-3.658zm0 5s2.418 1.806 2.429 1.816l-2.429 1.867v-3.684zm-4.294-1.356c-1.167-.529-2.414-.797-3.706-.797-4.963-.001-9 4.036-9 8.999v1.494c-1.615.735-2.806 2.231-2.977 4.016-.137 1.429.316 2.797 1.275 3.853.946 1.041 2.295 1.638 3.701 1.638 1.06.089 2.006-.73 2-1.807v-6.387c0-.996-.811-1.807-1.807-1.807-.411 0-.807.062-1.193.151v-1.151c0-4.411 3.589-8 8-8 1.149 0 2.257.238 3.294.707.249.113.548.003.661-.249.114-.251.003-.548-.249-.661zm-10.513 10.202c.444 0 .807.362.807.807v6.387c.005.536-.495.873-1 .807-1.125 0-2.204-.478-2.961-1.311-.768-.844-1.129-1.939-1.02-3.085.192-2.021 2.025-3.604 4.174-3.604zm15.807-.506v-.994c0-.276-.224-.5-.5-.5s-.5.224-.5.5v.651c-.386-.089-.782-.151-1.193-.151-.996 0-1.807.811-1.807 1.807v6.387c-.006 1.076.94 1.896 2 1.807 1.406 0 2.755-.597 3.701-1.638.959-1.056 1.412-2.424 1.275-3.853-.17-1.785-1.361-3.281-2.977-4.016zm.961 7.195c-.757.833-1.836 1.311-2.961 1.311-.505.067-1.005-.271-1-.807v-6.387c0-.444.362-.807.807-.807 2.148 0 3.981 1.584 4.174 3.605.109 1.145-.252 2.24-1.02 3.084z"/></svg>