<svg id="Layer_1" viewBox="0 0 24 24" xmlns="http://www.w3.org/2000/svg" data-name="Layer 1"><path d="m9.485 14.727 1.375 1.426c.191.199.186.516-.014.707-.198.192-.515.186-.707-.013l-1.375-1.426c-.191-.199-.186-.516.014-.707.198-.192.514-.185.707.013zm4.501-1.547c.126 0 .253-.047.35-.143.197-.193.201-.51.008-.707l-2.567-2.619c-.194-.196-.511-.2-.707-.007-.197.193-.201.51-.008.707l2.567 2.619c.099.1.228.15.357.15zm2.195-1.99c.197-.193.201-.51.008-.707l-2.567-2.619c-.193-.196-.511-.201-.707-.007-.197.193-.201.51-.008.707l2.567 2.619c.194.197.51.201.707.007zm1.823-8.426c.192.198.51.202.707.01.198-.192.202-.509.01-.707l-1.864-1.916c-.191-.197-.51-.202-.707-.01-.198.192-.202.509-.01.707zm-.326 6.723c.126 0 .253-.047.35-.143.197-.193.201-.51.008-.707l-2.567-2.619c-.194-.195-.511-.201-.707-.007-.197.193-.201.51-.008.707l2.567 2.619c.099.1.228.15.357.15zm-5.743 5.385c.126 0 .252-.047.349-.142.198-.193.202-.509.01-.707l-1.888-1.939c-.194-.198-.51-.2-.707-.01-.198.193-.202.509-.01.707l1.888 1.939c.099.101.228.151.358.151zm9.177-8.999c.192.198.509.205.707.013.199-.191.205-.508.014-.707l-1.375-1.427c-.192-.198-.509-.204-.707-.013-.199.191-.205.508-.014.707zm-4.004-1.209c-.198.193-.202.509-.01.707l1.888 1.939c.193.198.51.202.707.01.198-.193.202-.509.01-.707l-1.888-1.939c-.193-.198-.51-.201-.707-.01zm-10.051 9.049c.192.198.51.202.707.01.198-.192.202-.509.01-.707l-1.864-1.916c-.192-.198-.51-.202-.707-.01-.198.192-.202.509-.01.707zm8.308-10.025c.193.197.51.201.707.008s.201-.51.008-.707l-2.431-2.483c-.192-.196-.51-.201-.707-.008s-.201.51-.008.707zm-7.384 7.385c.193.197.51.201.707.008s.201-.51.008-.707l-2.431-2.484c-.191-.197-.511-.201-.707-.008-.197.193-.201.51-.008.707zm15.887-2.971c-.135.809-.379 1.616-.704 2.411-1.855 4.521-6.608 8.431-11.606 8.489-1.322 0-2.52-.313-3.533-.907l-5.465 5.466c-.292.292-.677.439-1.06.439s-.768-.146-1.06-.439c-.283-.283-.439-.66-.439-1.061s.156-.777.439-1.061l5.462-5.464c-.24-.411-.436-.854-.582-1.329-.081-.264.066-.544.331-.625.263-.08.543.067.624.331.254.825.676 1.538 1.255 2.117 1.279 1.279 3.198 1.78 5.408 1.414.485-.081.971-.209 1.453-.368l-.947-.98c-.192-.199-.187-.515.012-.707.201-.191.518-.187.707.012l1.246 1.29c.515-.227 1.022-.5 1.517-.808l-1.469-1.517c-.191-.199-.187-.515.012-.707.198-.192.515-.187.707.011l1.587 1.638s.003.005.004.007c.43-.316.845-.665 1.246-1.04l-1.709-1.754c-.192-.198-.188-.515.01-.707.196-.192.513-.188.707.009l1.7 1.744c.373-.4.72-.813 1.035-1.242-.006-.006-.015-.008-.021-.014l-1.586-1.638c-.192-.198-.187-.515.012-.707.198-.191.515-.186.707.012l1.457 1.504c.302-.486.571-.982.795-1.487l-1.265-1.309c-.192-.199-.187-.515.012-.707.2-.191.517-.187.707.012l.939.971c.16-.486.289-.975.371-1.464.368-2.208-.135-4.128-1.414-5.409-.58-.579-1.292-1.002-2.117-1.255-.264-.082-.412-.361-.33-.625.08-.264.355-.415.625-.331.981.302 1.832.808 2.529 1.504 1.515 1.515 2.116 3.745 1.693 6.28zm-16.673 9.41c-.127-.107-.254-.216-.372-.334-.119-.119-.224-.248-.331-.376l-5.345 5.346c-.194.186-.194.521 0 .707.195.195.512.195.707 0zm5.778-12.524c.194.197.51.201.707.007.197-.193.201-.51.008-.708l-2.424-2.475c-.193-.195-.511-.2-.707-.007-.197.193-.201.51-.008.708zm-1.847 1.846c.194.197.51.201.707.007.197-.193.201-.51.008-.708l-2.424-2.475c-.193-.196-.51-.2-.707-.007s-.201.51-.008.708zm-1.846 1.846c.194.197.51.201.707.007.197-.193.201-.51.008-.708l-2.424-2.475c-.194-.196-.51-.2-.707-.007s-.201.51-.008.708z"/></svg>