<svg id="Layer_1" viewBox="0 0 24 24" xmlns="http://www.w3.org/2000/svg" data-name="Layer 1"><path d="m6 13.5c0 .276-.224.5-.5.5h-1c-.276 0-.5-.224-.5-.5s.224-.5.5-.5h1c.276 0 .5.224.5.5zm-.5-3.5h-1c-.276 0-.5.224-.5.5s.224.5.5.5h1c.276 0 .5-.224.5-.5s-.224-.5-.5-.5zm3.5-2.5c0-.276-.224-.5-.5-.5h-3.2c-.165 0-.3-.135-.3-.3v-1.4c0-.165.135-.3.3-.3h3.2c.276 0 .5-.224.5-.5s-.224-.5-.5-.5h-3.2c-.717 0-1.3.583-1.3 1.3v1.4c0 .717.583 1.3 1.3 1.3h3.2c.276 0 .5-.224.5-.5zm10.5 4.5c-.276 0-.5.224-.5.5v7c0 .275-.225.5-.5.5h-.551c.019-.166.051-.329.051-.5v-7c0-.276-.224-.5-.5-.5s-.5.224-.5.5v7c0 1.93-1.57 3.5-3.5 3.5h-9c-1.93 0-3.5-1.57-3.5-3.5v-15c0-1.93 1.57-3.5 3.5-3.5h5c.276 0 .5-.224.5-.5s-.224-.5-.5-.5h-5c-2.481 0-4.5 2.019-4.5 4.5v15c0 2.481 2.019 4.5 4.5 4.5h9c1.953 0 3.602-1.258 4.224-3h.776c.827 0 1.5-.673 1.5-1.5v-7c0-.276-.224-.5-.5-.5zm-10 4h-1c-.276 0-.5.224-.5.5s.224.5.5.5h1c.276 0 .5-.224.5-.5s-.224-.5-.5-.5zm-4 0h-1c-.276 0-.5.224-.5.5s.224.5.5.5h1c.276 0 .5-.224.5-.5s-.224-.5-.5-.5zm0 3h-1c-.276 0-.5.224-.5.5s.224.5.5.5h1c.276 0 .5-.224.5-.5s-.224-.5-.5-.5zm7-5h1c.276 0 .5-.224.5-.5s-.224-.5-.5-.5h-1c-.276 0-.5.224-.5.5s.224.5.5.5zm0 6h1c.276 0 .5-.224.5-.5s-.224-.5-.5-.5h-1c-.276 0-.5.224-.5.5s.224.5.5.5zm0-3h1c.276 0 .5-.224.5-.5s-.224-.5-.5-.5h-1c-.276 0-.5.224-.5.5s.224.5.5.5zm11.5-14v4c0 1.654-1.346 3-3 3h-7c-1.654 0-3-1.346-3-3v-4c0-1.654 1.346-3 3-3h7c1.654 0 3 1.346 3 3zm-1 3h-11v1c0 1.103.897 2 2 2h7c1.103 0 2-.897 2-2zm0-2h-11v1h11zm0-1c0-1.103-.897-2-2-2h-7c-1.103 0-2 .897-2 2zm-13.5 16h-1c-.276 0-.5.224-.5.5s.224.5.5.5h1c.276 0 .5-.224.5-.5s-.224-.5-.5-.5zm0-9h-1c-.276 0-.5.224-.5.5s.224.5.5.5h1c.276 0 .5-.224.5-.5s-.224-.5-.5-.5zm0 3h-1c-.276 0-.5.224-.5.5s.224.5.5.5h1c.276 0 .5-.224.5-.5s-.224-.5-.5-.5z"/></svg>