<?xml version="1.0" encoding="UTF-8"?>
<svg xmlns="http://www.w3.org/2000/svg" id="Layer_1" data-name="Layer 1" viewBox="0 0 24 24">
  <path d="M23.995,12.784c-.045,1.227-.415,2.436-1.068,3.497-.146,.234-.454,.306-.688,.163-.235-.146-.308-.453-.164-.688,.571-.927,.881-1.939,.921-3.009,.116-3.131-2.015-5.899-5.066-6.583-.736-.166-1.347-.638-1.676-1.296-1.413-2.82-4.467-4.325-7.598-3.743C5.917,1.633,3.703,3.816,3.147,6.559c-.167,.819-.191,1.645-.074,2.452,.13,.893-.119,1.714-.685,2.255-1.128,1.078-1.609,2.646-1.289,4.196,.286,1.381,1.282,2.596,2.6,3.17,.253,.11,.369,.404,.259,.658-.11,.255-.411,.368-.658,.258-1.635-.712-2.824-2.164-3.18-3.883-.391-1.89,.199-3.805,1.577-5.122,.329-.314,.469-.82,.387-1.388-.135-.923-.107-1.863,.083-2.796C2.804,3.222,5.338,.724,8.473,.143c3.576-.673,7.061,1.056,8.675,4.278,.194,.389,.559,.668,1,.767,3.521,.789,5.98,3.984,5.847,7.597Zm-6.995,2.716v3c0,1.379-1.122,2.5-2.5,2.5s-2.5-1.121-2.5-2.5v-3c0-1.379,1.122-2.5,2.5-2.5s2.5,1.121,2.5,2.5Zm-1,0c0-.827-.673-1.5-1.5-1.5s-1.5,.673-1.5,1.5v3c0,.827,.673,1.5,1.5,1.5s1.5-.673,1.5-1.5v-3Zm-7.5-1.5c.684,0,1.282,.463,1.452,1.125,.069,.269,.344,.431,.609,.359,.267-.069,.428-.342,.359-.609-.285-1.104-1.28-1.875-2.421-1.875-1.378,0-2.5,1.121-2.5,2.5v3c0,1.379,1.122,2.5,2.5,2.5,1.141,0,2.136-.771,2.421-1.875,.069-.268-.092-.54-.359-.609-.267-.067-.54,.092-.609,.359-.17,.662-.768,1.125-1.452,1.125-.827,0-1.5-.673-1.5-1.5v-3c0-.827,.673-1.5,1.5-1.5Zm11.445,8.355c.867-.436,2.055-1.03,2.055-2.355,0-.804-.533-2-2-2-.931,0-1.619,.492-1.89,1.35-.083,.264,.063,.544,.327,.627,.264,.083,.544-.063,.627-.326,.14-.443,.437-.65,.936-.65,.913,0,.996,.769,1,1,0,.658-.595,1.006-1.503,1.461-.736,.369-1.497,.751-1.497,1.539,0,.484,.351,1,1,1h2.5c.276,0,.5-.224,.5-.5s-.224-.5-.5-.5h-2.5c0-.171,.592-.468,.945-.645Z"/>
</svg>
