<svg id="Layer_1" viewBox="0 0 24 24" xmlns="http://www.w3.org/2000/svg" data-name="Layer 1"><path d="m23.838 13.592c-.199-.636-.635-1.153-1.228-1.457-.513-.262-1.085-.324-1.639-.205.027-.092.036-.19.004-.288-.084-.262-.367-.408-.628-.323l-7 2.243c-.263.085-.408.366-.324.629.041.129.136.215.247.274l-5.559 1.849 1.848-5.564c.06.103.153.187.275.226.256.084.545-.058.629-.323l2.244-7c.084-.263-.061-.545-.323-.629-.098-.031-.196-.022-.289.005.119-.558.054-1.134-.213-1.647-.305-.586-.82-1.017-1.474-1.221-.894-.28-1.841-.195-2.668.239-.828.434-1.438 1.164-1.715 2.049l-5.609 17.053c-.257.442-.416.95-.416 1.497 0 1.654 1.346 3 3 3 1.345 0 2.472-.895 2.852-2.117.004-.01.014-.014.018-.024l1.448-4.36 13.707-4.56c.377-.125.778-.094 1.13.086.353.181.612.488.73.866.199.638.139 1.314-.171 1.906-.31.591-.831 1.026-1.481 1.23l-13.394 4.577c-.261.089-.401.373-.312.635.089.263.381.4.635.311l13.381-4.572c.893-.279 1.623-.889 2.057-1.717s.519-1.776.239-2.669zm-16.861-10.837c.412-1.316 1.813-2.051 3.156-1.633.374.117.68.374.861.721.182.349.216.747.098 1.115l-5.499 16.56c-.518-.903-1.48-1.519-2.593-1.519-.392 0-.765.081-1.109.218zm-3.977 20.244c-1.103 0-2-.897-2-2s.897-2 2-2 2 .897 2 2-.897 2-2 2z"/></svg>