<svg id="Layer_1" viewBox="0 0 24 24" xmlns="http://www.w3.org/2000/svg" data-name="Layer 1"><path d="m17.464 0c-3.584 0-6.5 2.916-6.5 6.5s2.916 6.5 6.5 6.5 6.5-2.916 6.5-6.5-2.916-6.5-6.5-6.5zm0 12c-3.032 0-5.5-2.467-5.5-5.5s2.468-5.5 5.5-5.5 5.5 2.467 5.5 5.5-2.468 5.5-5.5 5.5zm-2.285 2.67c-.78-.781-2.051-.78-2.829 0l-3.592 3.592c-.858.858-2.24.941-3.077.187-.447-.402-.701-.953-.717-1.551-.016-.599.209-1.162.632-1.585l3.698-3.699c.776-.744.776-2.084 0-2.828l-.676-.676c-.78-.782-2.051-.78-2.829 0l-3.545 3.546c-2.802 2.801-2.958 7.334-.35 10.105 1.334 1.416 3.068 2.241 5.078 2.241 1.936 0 3.768-.711 5.14-2.084l3.742-3.742c.776-.744.776-2.084 0-2.828l-.676-.676zm-8.683-5.854c.39-.39 1.024-.39 1.415 0l.676.676c.387.372.389 1.042 0 1.414l-.432.432-2.091-2.091.432-.432zm4.91 12.393c-1.18 1.179-2.714 1.819-4.418 1.791-1.668-.025-3.218-.709-4.364-1.926-2.242-2.381-2.095-6.29.328-8.712l2.406-2.407 2.091 2.091-2.559 2.56c-.619.619-.947 1.442-.925 2.318.023.876.395 1.681 1.048 2.269 1.247 1.123 3.205 1.026 4.453-.223l2.453-2.453 2.091 2.091-2.603 2.603zm3.742-3.742-.432.432-2.091-2.091.432-.432c.378-.377 1.036-.378 1.415 0l.676.676c.388.372.388 1.042 0 1.414zm4.816-9.388c.003 1.089-1 1.921-2 1.921v.5c0 .276-.224.5-.5.5s-.5-.224-.5-.5v-.5c-1 0-1.778-.534-1.958-1.395-.059-.27.112-.536.383-.594.267-.057.536.113.594.383.08.368.434.605.902.605h1.158c.508 0 .921-.413.921-.921 0-.452-.323-.835-.77-.909l-1.649-.359c-.906-.15-1.581-.947-1.581-1.89-.003-1.089 1-1.921 2-1.921v-.5c0-.276.224-.5.5-.5s.5.224.5.5v.5c1 0 1.776.533 1.958 1.394.059.27-.112.536-.382.595-.265.058-.536-.112-.595-.382-.08-.368-.435-.606-.902-.606h-1.158c-.508 0-.921.413-.921.921 0 .452.323.835.77.909l1.649.359c.906.15 1.581.947 1.581 1.89z"/></svg>