<svg id="Layer_1" viewBox="0 0 24 24" xmlns="http://www.w3.org/2000/svg" data-name="Layer 1"><path d="m7 20c0 .552-.448 1-1 1s-1-.448-1-1 .448-1 1-1 1 .448 1 1zm-3-3.5c-.552 0-1 .448-1 1s.448 1 1 1 1-.448 1-1-.448-1-1-1zm3-.5c-.552 0-1 .448-1 1s.448 1 1 1 1-.448 1-1-.448-1-1-1zm4 2.5c0 3.033-2.467 5.5-5.5 5.5s-5.5-2.467-5.5-5.5c0-2.849 2.177-5.198 4.955-5.472-.101-.836-.432-1.459-.695-1.923-.08-.141-.152-.268-.208-.383-.123-.248-.021-.547.227-.669.248-.123.547-.021.669.227.049.1.112.21.182.332.237.417.545.993.724 1.739.198-.473.489-1.015.908-1.434.662-.662 1.65-.857 1.937-.902.354-.052.722.064.977.321s.368.607.311.961c-.053.328-.243 1.154-.849 1.751-.301.296-.631.504-.961.652 1.682.942 2.823 2.739 2.823 4.801zm-4.343-5.465c.496-.019 1.223-.153 1.778-.7.324-.319.503-.828.563-1.199.006-.036-.005-.068-.033-.096-.015-.016-.046-.04-.092-.04-.427.059-1.041.262-1.405.623-.398.398-.66.982-.812 1.413zm3.343 5.465c0-2.481-2.019-4.5-4.5-4.5s-4.5 2.019-4.5 4.5 2.019 4.5 4.5 4.5 4.5-2.019 4.5-4.5zm14-10.5v13c0 1.654-1.346 3-3 3h-9.5c-.276 0-.5-.224-.5-.5s.224-.5.5-.5h7.28c-.48-.532-.78-1.229-.78-2v-13c0-.771.301-1.468.78-2h-9.28c-1.378 0-2.5 1.122-2.5 2.5 0 .276-.224.5-.5.5s-.5-.224-.5-.5c0-1.93 1.57-3.5 3.5-3.5h5.932l.352-2.811c.157-1.249 1.224-2.189 2.48-2.189h3.235c.276 0 .5.224.5.5s-.224.5-.5.5h-3.235c-.754 0-1.394.565-1.488 1.314l-.337 2.686h4.56c1.654 0 3 1.346 3 3zm-1 0c0-1.103-.897-2-2-2s-2 .897-2 2v13c0 1.103.897 2 2 2s2-.897 2-2z"/></svg>