<svg id="Layer_1" viewBox="0 0 24 24" xmlns="http://www.w3.org/2000/svg" data-name="Layer 1"><path d="m23.363 15.181-6.806 7.639c-.341.384-.719.745-1.123 1.07-.213.173-.528.141-.702-.075-.174-.215-.141-.53.075-.703.36-.291.698-.613 1.003-.956l6.807-7.639c.548-.615.499-1.567-.11-2.122-.299-.272-.689-.411-1.088-.393-.403.019-.774.194-1.046.492l-4.503 4.948s-.004.003-.006.004c-.305.938-1.116 1.666-2.132 1.811l-6.173.739c-.273.03-.523-.162-.556-.437-.033-.274.162-.523.437-.556l6.161-.737c.792-.113 1.398-.812 1.398-1.624 0-.905-.737-1.642-1.643-1.642h-9.856c-1.379 0-2.5 1.122-2.5 2.5v6c0 .276-.224.5-.5.5s-.5-.224-.5-.5v-6c0-1.93 1.57-3.5 3.5-3.5h9.857c1.21 0 2.221.822 2.534 1.933l3.742-4.112c.451-.496 1.069-.787 1.739-.818.668-.023 1.312.201 1.809.652 1.012.922 1.094 2.504.183 3.526zm-6.363-12.681c0-1.378 1.121-2.5 2.5-2.5s2.5 1.122 2.5 2.5-1.121 2.5-2.5 2.5-2.5-1.122-2.5-2.5zm1 0c0 .827.673 1.5 1.5 1.5s1.5-.673 1.5-1.5-.673-1.5-1.5-1.5-1.5.673-1.5 1.5zm-2.5 9.5c.276 0 .5-.224.5-.5v-1c0-1.93 1.57-3.5 3.5-3.5 1.246 0 2.408.671 3.032 1.75.138.239.445.32.683.182.239-.138.321-.444.183-.683-.802-1.388-2.296-2.25-3.897-2.25-2.481 0-4.5 2.019-4.5 4.5v1c0 .276.224.5.5.5zm-15.5-6c0-3.309 2.691-6 6-6s6 2.691 6 6-2.691 6-6 6-6-2.691-6-6zm1 0c0 2.757 2.243 5 5 5s5-2.243 5-5-2.243-5-5-5-5 2.243-5 5zm6.05 2h-2.062c-.293 0-.536-.235-.565-.547-.025-.275-.274-.48-.545-.451-.274.026-.477.27-.451.545.078.828.749 1.453 1.562 1.453h.512v.5c0 .276.224.5.5.5s.5-.224.5-.5v-.5h.55c.865 0 1.568-.722 1.568-1.608 0-.712-.466-1.347-1.152-1.551l-2.575-.646c-.245-.073-.417-.314-.417-.587 0-.335.255-.608.568-.608h1.976c.294 0 .537.235.565.546.026.275.276.475.544.452.275-.025.478-.269.452-.544-.076-.829-.748-1.454-1.562-1.454h-.518v-.5c0-.276-.224-.5-.5-.5s-.5.224-.5.5v.5h-.458c-.865 0-1.568.722-1.568 1.608 0 .711.466 1.347 1.152 1.551l2.575.646c.246.073.417.314.417.586 0 .335-.255.608-.568.608z"/></svg>