<svg id="Layer_1" viewBox="0 0 24 24" xmlns="http://www.w3.org/2000/svg" data-name="Layer 1"><path d="m19.5 2h-1.5v-1.5c0-.276-.224-.5-.5-.5s-.5.224-.5.5v1.5h-10v-1.5c0-.276-.224-.5-.5-.5s-.5.224-.5.5v1.5h-1.5c-2.481 0-4.5 2.019-4.5 4.5v13c0 2.481 2.019 4.5 4.5 4.5h1c.276 0 .5-.224.5-.5s-.224-.5-.5-.5h-1c-1.93 0-3.5-1.57-3.5-3.5v-10.5h22v4.5c0 .276.224.5.5.5s.5-.224.5-.5v-7c0-2.481-2.019-4.5-4.5-4.5zm3.5 6h-22v-1.5c0-1.93 1.57-3.5 3.5-3.5h15c1.93 0 3.5 1.57 3.5 3.5zm-11 8.5v5c0 1.379-1.122 2.5-2.5 2.5s-2.5-1.121-2.5-2.5c0-.276.224-.5.5-.5s.5.224.5.5c0 .827.673 1.5 1.5 1.5s1.5-.673 1.5-1.5v-5c0-.276.224-.5.5-.5s.5.224.5.5zm6 0v5c0 1.379-1.122 2.5-2.5 2.5s-2.5-1.121-2.5-2.5v-5c0-.276.224-.5.5-.5s.5.224.5.5v5c0 .827.673 1.5 1.5 1.5s1.5-.673 1.5-1.5v-5c0-.276.224-.5.5-.5s.5.224.5.5zm6 0v6.728c0 .368-.251.679-.611.755-.351.077-.718-.102-.867-.441l-2.522-5.683v5.642c0 .276-.224.5-.5.5s-.5-.224-.5-.5v-6.716c0-.368.252-.68.612-.756.362-.076.717.106.866.442l2.521 5.683v-5.653c0-.276.224-.5.5-.5s.5.224.5.5z"/></svg>