<?xml version="1.0" encoding="UTF-8"?>
<svg xmlns="http://www.w3.org/2000/svg" id="Layer_1" data-name="Layer 1" viewBox="0 0 24 24">
  <path d="M13.5,23H4.5c-1.93,0-3.5-1.57-3.5-3.5V4.5c0-1.93,1.57-3.5,3.5-3.5h5.515c.335,0,.663,.038,.985,.096V6.5c0,1.378,1.122,2.5,2.5,2.5h5.389c.033,.18,.078,.357,.092,.541,.023,.275,.271,.479,.539,.458,.275-.022,.48-.264,.458-.539-.125-1.536-.793-2.981-1.883-4.07l-3.485-3.485c-1.228-1.228-2.86-1.904-4.596-1.904H4.5C2.019,0,0,2.019,0,4.5v15c0,2.481,2.019,4.5,4.5,4.5H13.5c.276,0,.5-.224,.5-.5s-.224-.5-.5-.5Zm3.889-16.904c.543,.543,.944,1.198,1.219,1.904h-5.108c-.827,0-1.5-.673-1.5-1.5V1.379c.704,.273,1.354,.682,1.904,1.231l3.485,3.485Zm6.464,17.05l-5.255-5.255,2.293-2.293,.435,.435c.452,.466,1.172-.255,.707-.707l-4.68-4.68c-.195-.195-.512-.195-.707,0s-.195,.512,0,.707l.409,.409-5.293,5.293-.409-.409c-.195-.195-.512-.195-.707,0s-.195,.512,0,.707l4.68,4.68c.452,.466,1.172-.255,.707-.707l-.435-.435,2.293-2.293,5.255,5.255c.452,.466,1.172-.255,.707-.707Zm-11.384-5.384l5.293-5.293,2.422,2.422-5.293,5.293-2.422-2.422ZM4,8.5c0-.276,.224-.5,.5-.5h4c.276,0,.5,.224,.5,.5s-.224,.5-.5,.5H4.5c-.276,0-.5-.224-.5-.5Zm9.5,3.5H4.5c-.276,0-.5-.224-.5-.5s.224-.5,.5-.5H13.5c.276,0,.5,.224,.5,.5s-.224,.5-.5,.5Zm-3,3H4.5c-.276,0-.5-.224-.5-.5s.224-.5,.5-.5h6c.276,0,.5,.224,.5,.5s-.224,.5-.5,.5Zm-3,2c.276,0,.5,.224,.5,.5s-.224,.5-.5,.5h-3c-.276,0-.5-.224-.5-.5s.224-.5,.5-.5h3Z"/>
</svg>
