<?xml version="1.0" encoding="UTF-8"?>
<svg xmlns="http://www.w3.org/2000/svg" id="Layer_1" data-name="Layer 1" viewBox="0 0 24 24">
  <path d="m24,18.5c0-.691-.473-1.269-1.11-1.442.07-.173.11-.36.11-.558,0-.827-.673-1.5-1.5-1.5h-3.5v-.482l.459-.468c.665-.644.722-1.705.127-2.415s-1.649-.842-2.415-.287l-3.387,2.652h-1.784v-5.5c0-.955-.387-1.821-1.009-2.453.002-.016.009-.03.009-.047V.5c0-.276-.224-.5-.5-.5s-.5.224-.5.5v4.851c-.456-.219-.961-.351-1.5-.351H3.5c-.539,0-1.044.133-1.5.351V.5c0-.276-.224-.5-.5-.5s-.5.224-.5.5v5.5c0,.017.008.031.009.047-.623.632-1.009,1.498-1.009,2.453v9c0,3.584,2.916,6.5,6.5,6.5h14c.827,0,1.5-.673,1.5-1.5,0-.176-.036-.343-.092-.5h.092c.827,0,1.5-.673,1.5-1.5,0-.269-.077-.517-.201-.735.42-.266.701-.732.701-1.265Zm-1.5.5h-4.5v-1h4.5c.275,0,.5.225.5.5s-.225.5-.5.5Zm-8.837,4l-5.39-5.041,2.45-2.314,6.277,5.878v1.477h-3.337Zm3.337-8v5.153l-5.503-5.153h5.503Zm4.5,1c.275,0,.5.225.5.5s-.225.5-.5.5h-3.5v-1h3.5Zm-4.728-3.853c.327-.239.788-.179,1.047.13.26.31.235.773-.065,1.064l-.646.659h-2.701l2.366-1.853Zm-6.772-2.766L1.006,17.61c0-.037-.006-.073-.006-.11v-4.06l7.75-7.092c.744.434,1.25,1.231,1.25,2.152v.881Zm-6.5-3.381h4c.046,0,.089.011.134.014L1,12.083v-3.583c0-1.378,1.121-2.5,2.5-2.5Zm-2.333,12.819l8.833-8.081v4.214l-7.094,6.702c-.845-.732-1.462-1.716-1.739-2.834Zm2.568,3.427l3.809-3.599,4.654,4.352h-5.698c-1.009,0-1.952-.278-2.765-.754Zm17.265.254c0,.275-.225.5-.5.5h-2.5v-1h2.5c.275,0,.5.225.5.5Zm1-1.5h-4v-1h4c.275,0,.5.225.5.5s-.225.5-.5.5Z"/>
</svg>
