<?xml version="1.0" encoding="UTF-8"?>
<svg xmlns="http://www.w3.org/2000/svg" id="Layer_1" data-name="Layer 1" viewBox="0 0 24 24">
  <path d="M16,15.595v7.905c0,.276-.224,.5-.5,.5s-.5-.224-.5-.5v-6.887l-1.637,1.73c-.19,.201-.507,.208-.707,.02-.201-.19-.209-.506-.02-.707l2.339-2.472c.179-.18,.433-.232,.658-.139,.223,.092,.367,.308,.367,.549Zm5,2.405l-2-.03,.03-1.97h3.97c.276,0,.5-.224,.5-.5s-.224-.5-.5-.5h-3.97c-.568,0-1.03,.462-1.03,1.03v1.94c0,.568,.462,1.03,1.03,1.03h1.97c1.103,0,2,.897,2,2s-.897,2-2,2h-2.5c-.276,0-.5,.224-.5,.5s.224,.5,.5,.5h2.5c1.654,0,3-1.346,3-3s-1.346-3-3-3Zm-8.522,4.99c-.159,.007-.318,.01-.478,.01C6.084,23,1.252,18.378,1,12.479c-.012-.276-.242-.492-.521-.478-.276,.012-.49,.245-.478,.521,.276,6.437,5.547,11.479,12,11.479,.175,0,.349-.003,.522-.011,.276-.012,.49-.246,.478-.521s-.247-.488-.521-.478ZM1.5,9H5.5c.276,0,.5-.224,.5-.5s-.224-.5-.5-.5H1.756C3.395,3.807,7.485,1,12,1c6.065,0,11,4.935,11,11,0,.16-.003,.319-.01,.478-.012,.276,.202,.509,.478,.521,.007,0,.015,0,.022,0,.266,0,.487-.209,.499-.478,.008-.173,.011-.347,.011-.522C24,5.383,18.617,0,12,0,7.227,0,2.891,2.876,1,7.216V3.5c0-.276-.224-.5-.5-.5s-.5,.224-.5,.5V7.5c0,.827,.673,1.5,1.5,1.5Zm9.5-3v6H6c-.276,0-.5,.224-.5,.5s.224,.5,.5,.5h5.5c.276,0,.5-.224,.5-.5V6c0-.276-.224-.5-.5-.5s-.5,.224-.5,.5Z"/>
</svg>
