<?xml version="1.0" encoding="UTF-8"?>
<svg xmlns="http://www.w3.org/2000/svg" id="Layer_1" data-name="Layer 1" viewBox="0 0 24 24">
  <path d="M10.761,10.545c.775,.605,1.858,.606,2.632,0,1.216-.951,4.685-4.281,4.685-7.02,0-1.944-1.458-3.525-3.25-3.525-1.156,0-2.174,.659-2.75,1.648-.576-.989-1.594-1.648-2.75-1.648-1.792,0-3.25,1.581-3.25,3.525,0,2.738,3.469,6.069,4.684,7.02ZM9.327,1c1.241,0,2.25,1.133,2.25,2.525,0,.276,.224,.5,.5,.5s.5-.224,.5-.5c0-1.392,1.01-2.525,2.25-2.525s2.25,1.133,2.25,2.525c0,1.957-2.566,4.875-4.3,6.232-.411,.322-.986,.323-1.4,0-1.734-1.357-4.3-4.276-4.3-6.232,0-1.392,1.009-2.525,2.25-2.525Zm14.173,16h-.5v-2c0-1.103-.897-2-2-2-.366,0-.705,.106-1,.278v-.278c0-1.103-.897-2-2-2s-2,.897-2,2v4H8v-4c0-1.103-.897-2-2-2s-2,.897-2,2v.278c-.295-.172-.634-.278-1-.278-1.103,0-2,.897-2,2v2H.5c-.276,0-.5,.224-.5,.5s.224,.5,.5,.5h.5v2c0,1.103,.897,2,2,2,.366,0,.705-.106,1-.278v.278c0,1.103,.897,2,2,2s2-.897,2-2v-4h8v4c0,1.103,.897,2,2,2s2-.897,2-2v-.278c.295,.172,.634,.278,1,.278,1.103,0,2-.897,2-2v-2h.5c.276,0,.5-.224,.5-.5s-.224-.5-.5-.5ZM3,21c-.551,0-1-.448-1-1v-5c0-.552,.449-1,1-1s1,.448,1,1v5c0,.552-.449,1-1,1Zm4,1c0,.552-.449,1-1,1s-1-.448-1-1V13c0-.551,.449-1,1-1s1,.449,1,1v9Zm12,0c0,.552-.448,1-1,1s-1-.448-1-1V13c0-.551,.448-1,1-1s1,.449,1,1v9Zm3-2c0,.552-.448,1-1,1s-1-.448-1-1v-5c0-.552,.448-1,1-1s1,.448,1,1v5Z"/>
</svg>
