<svg id="Layer_1" viewBox="0 0 24 24" xmlns="http://www.w3.org/2000/svg" data-name="Layer 1"><path d="m8 10c-.276 0-.5.224-.5.5v.551c-1.968.249-3.5 1.915-3.5 3.949h-.5c-.276 0-.5.224-.5.5s.224.5.5.5h9c.276 0 .5-.224.5-.5s-.224-.5-.5-.5h-.5c0-2.034-1.532-3.7-3.5-3.949v-.551c0-.276-.224-.5-.5-.5zm3 5h-6c0-1.654 1.346-3 3-3s3 1.346 3 3zm13 5.472v3.028c0 .276-.224.5-.5.5s-.5-.224-.5-.5v-3.028c0-1.334-.741-2.534-1.935-3.13l-1.789-.895c-.169-.085-.276-.258-.276-.447v-4c0-.551-.448-1-1-1s-1 .449-1 1v6.513c0 .483-.222.682-.408.763-.444.196-.849-.176-1.091-.397-.225-.204-.532-.497-.532-.497-.413-.414-1.074-.499-1.497-.193-.561.38-.63 1.233-.146 1.698l3.211 3.275c.193.197.189.514-.008.707-.197.194-.513.19-.707-.007l-3.207-3.272c-.915-.874-.778-2.497.272-3.213.809-.584 2.047-.447 2.78.29 0 0 .169.16.329.309l.003-5.977c0-1.103.897-2 2-2s2 .897 2 2v3.691l1.513.756c1.534.767 2.487 2.31 2.487 4.025zm-4.5-20.472h-15c-2.481 0-4.5 2.019-4.5 4.5v13c0 2.481 2.019 4.5 4.5 4.5h5c.276 0 .5-.224.5-.5s-.224-.5-.5-.5h-5c-1.93 0-3.5-1.57-3.5-3.5v-9.5h22v6.5c0 .276.224.5.5.5s.5-.224.5-.5v-10c0-2.481-2.019-4.5-4.5-4.5zm-18.5 7v-2.5c0-1.93 1.57-3.5 3.5-3.5h15c1.93 0 3.5 1.57 3.5 3.5v2.5zm4-3c0 .552-.448 1-1 1s-1-.448-1-1 .448-1 1-1 1 .448 1 1zm3 0c0 .552-.448 1-1 1s-1-.448-1-1 .448-1 1-1 1 .448 1 1zm3 0c0 .552-.448 1-1 1s-1-.448-1-1 .448-1 1-1 1 .448 1 1z"/></svg>