<svg id="Layer_1" viewBox="0 0 24 24" xmlns="http://www.w3.org/2000/svg" data-name="Layer 1"><path d="m20 23.5c0 .276-.224.5-.5.5h-15c-.276 0-.5-.224-.5-.5s.224-.5.5-.5h15c.276 0 .5.224.5.5zm4-21v10.101c0 2.004-.78 3.887-2.197 5.303l-2.131 2.131c.191.07.328.25.328.465 0 .276-.224.5-.5.5h-15c-.276 0-.5-.224-.5-.5 0-.215.137-.395.328-.465l-2.131-2.131c-1.417-1.416-2.197-3.299-2.197-5.303v-10.101c0-1.379 1.122-2.5 2.5-2.5s2.5 1.121 2.5 2.5v5.997c.391-.294.86-.466 1.359-.493.672-.038 1.306.188 1.803.634l2.739 2.52c.43.395.793.848 1.098 1.336.306-.489.669-.94 1.1-1.336l2.734-2.516c.501-.449 1.134-.679 1.807-.638.499.027.968.199 1.359.493v-5.997c0-1.379 1.122-2.5 2.5-2.5s2.5 1.121 2.5 2.5zm-21.096 14.696 2.803 2.804h6.293v-4.06c0-1.534-.647-3.009-1.776-4.047l-2.734-2.516c-.581-.54-1.589-.49-2.108.12-.494.551-.507 1.394-.032 1.96l2.593 2.695c.191.199.185.516-.014.707-.2.192-.516.184-.707-.014l-2.616-2.721c-.411-.476-.564-1.051-.607-1.626v-7.998c0-.827-.673-1.5-1.5-1.5s-1.5.673-1.5 1.5v10.101c0 1.736.676 3.368 1.904 4.596zm20.096-14.696c0-.827-.673-1.5-1.5-1.5s-1.5.673-1.5 1.5v8c-.03.569-.188 1.139-.584 1.601l-2.638 2.746c-.192.199-.508.205-.707.014s-.205-.508-.014-.707l2.616-2.721c.461-.553.43-1.396-.054-1.935-.522-.612-1.53-.661-2.112-.116l-2.73 2.512c-.521.479-.925 1.053-1.228 1.692.29.745.452 1.542.452 2.355v4.06h5.293l2.803-2.804c1.228-1.228 1.904-2.859 1.904-4.596v-10.101z"/></svg>