<?xml version="1.0" encoding="UTF-8"?>
<svg xmlns="http://www.w3.org/2000/svg" id="Layer_1" data-name="Layer 1" viewBox="0 0 24 24">
  <path d="m20,10.5c0,.276-.224.5-.5.5h-3.425c-.177,0-.343.095-.432.249l-1.158,2.245c-.219.331-.622.507-.985.507-.391-.024-.729-.248-.904-.598l-2.062-5.398-.104-.004-1.206,2.217c-.263.483-.768.784-1.318.784h-3.405c-.276,0-.5-.224-.5-.5s.224-.5.5-.5h3.405c.184,0,.352-.1.439-.261l1.206-2.217c.241-.364.607-.54.993-.52.391.024.729.248.904.598l2.062,5.398.112-.008,1.158-2.244c.267-.46.764-.746,1.296-.746h3.425c.276,0,.5.224.5.5Zm4-4v8c0,2.481-2.019,4.5-4.5,4.5h-7v3h5c.276,0,.5.224.5.5s-.224.5-.5.5H6.5c-.276,0-.5-.224-.5-.5s.224-.5.5-.5h5v-3h-7c-2.481,0-4.5-2.019-4.5-4.5V6.5C0,4.019,2.019,2,4.5,2h15c2.481,0,4.5,2.019,4.5,4.5Zm-1,0c0-1.93-1.57-3.5-3.5-3.5H4.5c-1.93,0-3.5,1.57-3.5,3.5v8c0,1.93,1.57,3.5,3.5,3.5h15c1.93,0,3.5-1.57,3.5-3.5V6.5Z"/>
</svg>
