<svg id="Layer_1" viewBox="0 0 24 24" xmlns="http://www.w3.org/2000/svg" data-name="Layer 1"><path d="m3 11.5v3c0 .827.673 1.5 1.5 1.5s1.5-.673 1.5-1.5v-3c0-.827-.673-1.5-1.5-1.5s-1.5.673-1.5 1.5zm2 0v3c0 .275-.224.5-.5.5s-.5-.225-.5-.5v-3c0-.275.224-.5.5-.5s.5.225.5.5zm2-4v7c0 .827.673 1.5 1.5 1.5s1.5-.673 1.5-1.5v-7c0-.827-.673-1.5-1.5-1.5s-1.5.673-1.5 1.5zm2 0v7c0 .275-.224.5-.5.5s-.5-.225-.5-.5v-7c0-.275.224-.5.5-.5s.5.225.5.5zm2 3v4c0 .827.673 1.5 1.5 1.5s1.5-.673 1.5-1.5v-4c0-.827-.673-1.5-1.5-1.5s-1.5.673-1.5 1.5zm2 0v4c0 .275-.224.5-.5.5s-.5-.225-.5-.5v-4c0-.275.224-.5.5-.5s.5.225.5.5zm11 3v2c0 2.481-2.019 4.5-4.5 4.5h-7v3h5c.276 0 .5.224.5.5s-.224.5-.5.5h-11c-.276 0-.5-.224-.5-.5s.224-.5.5-.5h5v-3h-7c-2.481 0-4.5-2.019-4.5-4.5v-9c0-2.481 2.019-4.5 4.5-4.5h10c.276 0 .5.224.5.5s-.224.5-.5.5h-10c-1.93 0-3.5 1.57-3.5 3.5v9c0 1.93 1.57 3.5 3.5 3.5h15c1.93 0 3.5-1.57 3.5-3.5v-2c0-.276.224-.5.5-.5s.5.224.5.5zm-1-9v-.227c0-.702-.543-1.273-1.21-1.273h-2.58c-.667 0-1.21.571-1.21 1.273 0 .567.363 1.071.883 1.226l3.519 1.043c.941.279 1.599 1.178 1.599 2.185 0 1.254-.991 2.273-2.21 2.273h-.79v1.5c0 .276-.224.5-.5.5s-.5-.224-.5-.5v-1.5h-.79c-1.219 0-2.21-1.02-2.21-2.273v-.227c0-.276.224-.5.5-.5s.5.224.5.5v.227c0 .702.543 1.273 1.21 1.273h2.58c.667 0 1.21-.571 1.21-1.273 0-.567-.363-1.071-.883-1.226l-3.519-1.043c-.941-.279-1.599-1.178-1.599-2.185 0-1.254.991-2.273 2.21-2.273h.79v-1.5c0-.276.224-.5.5-.5s.5.224.5.5v1.5h.79c1.219 0 2.21 1.02 2.21 2.273v.227c0 .276-.224.5-.5.5s-.5-.224-.5-.5z"/></svg>