<?xml version="1.0" encoding="UTF-8"?>
<svg xmlns="http://www.w3.org/2000/svg" id="Layer_1" data-name="Layer 1" viewBox="0 0 24 24">
  <path d="m23.181,9.655c-.496-.452-1.141-.675-1.809-.652-.67.032-1.288.322-1.739.818l-3.732,4.102c-.314-1.108-1.335-1.923-2.543-1.923H3.5c-1.93,0-3.5,1.57-3.5,3.5v5c0,1.93,1.57,3.5,3.5,3.5h5.965c2.706,0,5.291-1.159,7.093-3.18l6.806-7.64c.911-1.022.829-2.604-.183-3.526Zm-.563,2.861l-6.806,7.639c-1.612,1.809-3.926,2.846-6.347,2.846H3.5c-1.379,0-2.5-1.121-2.5-2.5v-5c0-1.379,1.121-2.5,2.5-2.5h9.857c.905,0,1.643.737,1.643,1.643,0,.812-.605,1.511-1.398,1.624l-6.161.737c-.274.032-.47.281-.437.556.032.274.282.477.556.437l6.172-.738c1.022-.146,1.846-.879,2.146-1.824l4.496-4.94c.271-.298.643-.473,1.046-.492.398-.02.789.12,1.088.393.609.555.658,1.506.11,2.122Zm-13.479-1.671c.095.1.226.156.362.156s.268-.056.362-.156l5.65-5.946c.335-.392.499-.913.487-1.398-.035-.47-.24-.999-.594-1.353l-1.415-1.415c-.473-.472-1.1-.732-1.768-.732h-5.447c-.668,0-1.295.26-1.768.732l-1.415,1.415c-.346.346-.555.892-.594,1.353-.006.483.164,1.019.505,1.417l5.633,5.927Zm5.633-6.616l-4.509,4.744,2.072-4.973h2.564c-.036.079-.069.161-.127.229Zm-2.547-3.229c.395,0,.781.16,1.061.439l1.415,1.416c.043.043.065.097.098.145h-2.489l-1-2h.915Zm-3.411,0h1.378l1,2h-3.353l.974-2Zm2.437,3l-1.746,4.191-1.72-4.191h3.466Zm-6.949-1.145h0s1.415-1.416,1.415-1.416c.279-.279.666-.439,1.061-.439h.924l-.975,2h-2.523c.034-.048.055-.102.098-.145Zm2.402,1.145l2.044,4.982-4.499-4.734c-.064-.075-.102-.162-.141-.248h2.596Z"/>
</svg>
