<?xml version="1.0" encoding="UTF-8"?>
<svg xmlns="http://www.w3.org/2000/svg" id="Layer_1" data-name="Layer 1" viewBox="0 0 24 24">
  <path d="m23.879,22.407c.181.21.156.525-.053.705-.666.572-1.524.888-2.417.888-1.239,0-2.434-.594-3.137-1.494-.703.9-1.896,1.494-3.136,1.494s-2.434-.594-3.137-1.494c-.703.9-1.897,1.494-3.136,1.494s-2.434-.594-3.136-1.494c-.703.9-1.897,1.494-3.137,1.494-.893,0-1.75-.315-2.417-.888-.209-.18-.233-.495-.054-.705.181-.21.498-.232.705-.053.485.416,1.112.646,1.765.646,1.168,0,2.315-.72,2.668-1.674.072-.196.259-.326.469-.326s.396.131.469.327c.352.953,1.499,1.673,2.667,1.673s2.314-.72,2.667-1.674c.145-.393.793-.393.938,0,.353.954,1.5,1.674,2.668,1.674s2.314-.72,2.667-1.674c.145-.393.793-.393.938,0,.353.954,1.5,1.674,2.668,1.674.653,0,1.28-.229,1.765-.646.211-.18.526-.157.705.053ZM.358,17.835c2.485.734,5.642-1.025,5.642-4.335v-3C6,5.262,10.262,1,15.5,1c.547,0,1.093.048,1.63.142-3.719.784-6.13,4.687-6.13,8.358,0,5.005,2.561,8.5,6.228,8.5,1.24,0,2.434-.594,3.136-1.494.703.9,1.897,1.494,3.137,1.494.276,0,.5-.224.5-.5s-.224-.5-.5-.5c-1.168,0-2.315-.72-2.668-1.674-.146-.395-.794-.392-.938,0-.353.953-1.498,1.673-2.667,1.673-3.078,0-5.228-3.084-5.228-7.5,0-3.547,2.67-7.5,6.5-7.5.562,0,1.139.079,1.711.236.244.065.499-.059.595-.294.096-.234,0-.503-.22-.625-1.552-.861-3.311-1.316-5.086-1.316C9.71,0,5,4.71,5,10.5v3c0,2.663-2.462,3.935-4.358,3.376-.261-.077-.542.073-.621.338-.078.265.073.543.338.621Z"/>
</svg>
