<svg id="Layer_1" viewBox="0 0 24 24" xmlns="http://www.w3.org/2000/svg" data-name="Layer 1"><path d="m14.878 18.266c.181.208.158.524-.05.705-2.264 1.965-4.405 3.478-6.546 4.625-.502.27-1.055.4-1.607.4-.915 0-1.83-.358-2.512-1.04l-3.119-3.12c-1.093-1.091-1.356-2.785-.64-4.12 1.151-2.144 2.665-4.285 4.625-6.544.183-.208.498-.231.706-.05s.23.497.05.705c-1.912 2.203-3.384 4.284-4.5 6.362-.509.948-.317 2.158.466 2.94l3.119 3.12c.783.783 1.993.974 2.939.466 2.075-1.113 4.156-2.584 6.362-4.5.209-.182.523-.159.706.05zm-6.724-5.681c.171-.218.132-.532-.086-.702-.216-.169-.53-.133-.701.086-.933 1.193-1.804 2.432-2.588 3.684-.548.877-.411 1.994.333 2.716l.601.583c.73.708 1.834.819 2.684.278 1.227-.779 2.452-1.65 3.645-2.589.217-.171.254-.485.083-.702-.172-.217-.486-.254-.702-.083-1.165.918-2.364 1.77-3.562 2.531-.459.292-1.055.23-1.45-.152l-.601-.583c-.403-.391-.478-.995-.182-1.468.766-1.222 1.616-2.433 2.527-3.598zm15.229 6.738c.496.497.689 1.035.593 1.646-.099.606-.493 1.279-1.111 1.897-.852.849-1.577 1.119-2.157 1.119-.668 0-1.141-.359-1.384-.602-1.229-1.229-2.951-4.688-2.791-6.144l-9.791-9.79c-1.683.128-4.849-1.544-6.125-2.772-.496-.496-.689-1.034-.593-1.645.099-.605.493-1.279 1.111-1.896 1.3-1.3 2.592-1.468 3.542-.519 1.165 1.165 2.774 4.336 2.803 5.903.271-.278.541-.556.817-.833 5.275-5.275 10.507-5.687 11.991-5.687h.004c2.078 0 3.707 1.63 3.708 3.708 0 1.479-.408 6.716-5.688 11.995-.278.277-.556.548-.835.819 1.433.009 4.626 1.521 5.906 2.801zm-15.321-11.968 1.899 1.899c.362-.392.727-.784 1.123-1.181 1.517-1.595 3.638-1.232 4.846-.002 1.23 1.208 1.589 3.331-.007 4.847-.395.395-.786.759-1.177 1.122l1.897 1.897c.321-.311.642-.623.96-.942 3.979-3.979 5.396-8.439 5.396-11.287 0-1.518-1.19-2.707-2.708-2.708h-.004c-2.848 0-7.306 1.417-11.284 5.395-.319.319-.631.639-.941.96zm5.977 5.977c.391-.362.783-.728 1.18-1.125 1.187-1.109.885-2.573.003-3.43-.858-.883-2.317-1.183-3.431.001-.397.398-.762.79-1.124 1.182zm-12.715-9.362c1.316 1.316 4.31 2.513 5.189 2.517-.022-.861-1.244-3.863-2.544-5.163-.213-.212-.432-.315-.671-.315-.402 0-.919.296-1.456.833-.465.464-.767.955-.831 1.348-.033.208-.019.448.312.779zm21.352 16.06c-1.155-1.155-4.103-2.489-5.189-2.509.029.872 1.248 3.859 2.544 5.155.199.199.805.803 2.127-.518.465-.463.767-.954.831-1.348.033-.208.019-.449-.312-.78z"/></svg>