<svg id="Layer_1" viewBox="0 0 24 24" xmlns="http://www.w3.org/2000/svg" data-name="Layer 1"><path d="m23.854 23.146-6.449-6.449c1.607-1.775 2.596-4.12 2.596-6.697-.001-5.514-4.487-10-10.001-10s-10 4.486-10 10 4.486 10 10 10c2.577 0 4.922-.989 6.697-2.596l6.449 6.449c.195.195.512.195.707 0s.195-.512 0-.707zm-22.854-13.146c0-4.963 4.038-9 9-9s9 4.037 9 9-4.038 9-9 9-9-4.037-9-9zm12.732-1.306-4.503-2.467c-.95-.578-2.266.193-2.229 1.303v4.939c-.038 1.106 1.278 1.879 2.224 1.307l4.508-2.47c1.011-.521 1.013-2.088 0-2.612zm-.48 1.735s-4.513 2.473-4.513 2.473c-.436.149-.657.021-.739-.433v-4.939c.05-.46.391-.587.744-.429l4.503 2.467c.359.296.36.563.005.861z"/></svg>