<?xml version="1.0" encoding="UTF-8"?>
<svg xmlns="http://www.w3.org/2000/svg" id="Layer_1" data-name="Layer 1" viewBox="0 0 24 24">
  <path d="m12,10c-1.797,0-3.484.225-5,.621v-3.35l5.262-2.179c.471-.238.777-.694.818-1.221.042-.525-.188-1.024-.666-1.365L8.171.16c-.469-.234-1.013-.208-1.46.065-.445.275-.711.752-.711,1.276v9.414c-3.609,1.194-6,3.444-6,6.085,0,3.925,5.271,7,12,7s12-3.075,12-7-5.271-7-12-7ZM7,1.501c0-.252.212-.504.506-.504.062,0,.13.013.199.047l4.174,2.305c.205.148.211.359.205.443-.007.084-.047.293-.239.392l-4.845,2.005V1.501Zm5,21.499c-6.065,0-11-2.691-11-6,0-2.101,1.994-3.95,5-5.022v4.522c0,.276.224.5.5.5s.5-.224.5-.5v-4.838c1.502-.42,3.199-.662,5-.662,6.065,0,11,2.691,11,6s-4.935,6-11,6Zm3-8c-1.103,0-2,.897-2,2s.897,2,2,2,2-.897,2-2-.897-2-2-2Zm0,3c-.552,0-1-.449-1-1s.448-1,1-1,1,.449,1,1-.448,1-1,1Z"/>
</svg>
