<svg id="Layer_1" viewBox="0 0 24 24" xmlns="http://www.w3.org/2000/svg" data-name="Layer 1"><path d="m23.942 13.799c-.081-.924-.81-1.653-1.733-1.734-.678-.06-1.381-.073-2.095-.044-.196.009-.37.131-.443.313-.413 1.025-.737 1.743-.898 2.101l-.605-1.785c-.081-.238-.324-.382-.571-.33-.312.062-.626.132-.938.212-1.101.281-1.803 1.358-1.632 2.507.115.779.251 1.894.241 2.783-.012 1.064-.179 1.993-.482 2.687 0 0-2.261 2.257-2.285 2.276v-9.161c.432-1.044 1.239-1.998 1.848-2.62.605-.618 1.524-1.388 2.656-2.224 1.007-.744 1.302-2.104.686-3.162-.284-.49-.604-.985-.948-1.473-.139-.194-.393-.266-.61-.168l-2.05.908c.132-.424.407-1.145.972-2.363.087-.186.051-.406-.091-.555-.501-.526-1.02-1.016-1.54-1.452-.414-.346-.919-.515-1.424-.515s-1.01.169-1.422.516c-.526.44-1.044.93-1.541 1.452-.142.149-.178.369-.091.555.566 1.221.841 1.94.973 2.363l-2.05-.908c-.217-.098-.473-.026-.611.168-.328.464-.63.932-.9 1.391-.648 1.103-.374 2.497.638 3.244 1.131.836 2.049 1.604 2.655 2.224.61.624 1.418 1.578 1.849 2.624v9.157c-.024-.019-2.286-2.277-2.286-2.277-.303-.694-.469-1.622-.481-2.685-.01-.89.126-2.004.242-2.783.17-1.148-.531-2.226-1.632-2.507-.313-.08-.626-.149-.939-.212-.24-.048-.49.093-.571.329l-.587 1.731c-.225-.406-.533-1.093-.917-2.046-.073-.183-.247-.305-.443-.313-.715-.029-1.418-.015-2.095.044-.924.081-1.652.811-1.733 1.735-.061.703-.074 1.438-.038 2.184.01.195.132.366.313.439 0 0 1.746.699 2.129.867l-1.797.578c-.243.077-.388.325-.337.575.059.291.126.582.202.872.283 1.093 1.359 1.787 2.498 1.621 1.133-.167 2.115-.239 2.82-.243.999.011 1.879.156 2.56.42l2.317 2.317c.342.356.809.569 1.276.569s.934-.214 1.276-.569l2.317-2.317c.681-.264 1.561-.409 2.56-.42.882 0 2.029.127 2.819.242 1.137.174 2.215-.527 2.499-1.619.075-.291.142-.582.201-.873.051-.249-.095-.498-.337-.575l-1.74-.56c.434-.229 2.071-.886 2.071-.886.182-.073.304-.245.312-.44.036-.752.023-1.487-.037-2.184zm-15.957 1.093c-.121.814-.263 1.985-.252 2.941.006.581.06 1.345.244 2.104-.764-.184-1.533-.236-2.119-.243-.787 0-1.777.077-2.977.254-.638.085-1.229-.286-1.384-.883-.033-.128-.064-.256-.094-.384l1.538-.494c.329-.125.554-.421.587-.771.033-.348-.131-.679-.429-.862-.462-.284-1.325-.631-2.092-.938-.017-.591 0-1.171.047-1.729.039-.44.385-.788.824-.826.533-.045 1.085-.064 1.647-.051.409.998.726 1.673.967 2.061.184.295.506.459.859.426.348-.033.643-.256.777-.603l.51-1.503c.152.034.305.07.458.109.592.151.983.763.89 1.392zm4.014-2.495c-.492-.841-1.126-1.573-1.634-2.092-.652-.666-1.586-1.45-2.776-2.329-.599-.442-.758-1.272-.37-1.933.191-.324.399-.654.622-.983l1.956.866c.297.132.639.086.89-.12.249-.205.359-.526.289-.841-.12-.532-.441-1.368-.979-2.551.398-.404.809-.784 1.225-1.133.451-.38 1.105-.379 1.557 0 .412.346.823.726 1.225 1.133-.538 1.18-.858 2.017-.979 2.552-.07.313.041.636.289.84.254.206.595.253.89.12l1.955-.866c.239.353.463.708.667 1.062.359.617.182 1.414-.414 1.854-1.191.88-2.126 1.663-2.777 2.329-.508.519-1.141 1.251-1.633 2.092zm10.994 3.219c-.767.308-1.63.654-2.092.938-.297.184-.462.514-.429.861.033.351.258.646.611.779l1.514.486c-.029.128-.062.256-.095.385-.154.596-.744.977-1.385.881-1.146-.168-2.111-.254-2.871-.254-.035 0-.07 0-.105 0-.586.007-1.355.06-2.118.243.184-.759.236-1.522.243-2.104.011-.956-.132-2.127-.253-2.941-.093-.629.299-1.24.893-1.392.151-.039.304-.075.456-.109l.518 1.522c.127.327.422.551.771.583.356.035.676-.132.858-.426.241-.39.559-1.064.967-2.061.564-.013 1.113.006 1.646.051.439.038.786.386.824.826.048.553.064 1.133.047 1.729z"/></svg>