<svg id="Layer_1" viewBox="0 0 24 24" xmlns="http://www.w3.org/2000/svg" data-name="Layer 1"><path d="m23.5 0c-.276 0-.5.224-.5.5v1.5h-3v-1.5c0-.276-.224-.5-.5-.5s-.5.224-.5.5v3.5c0 1.103.897 2 2 2v4.998c-.012 2.642-1.052 5.126-2.915 6.981l-4.171 3.838c-1.566 1.526-4.253 1.536-5.839-.01l-4.147-3.814c-1.888-1.88-2.928-4.379-2.928-7.038s1.04-5.159 2.928-7.038c1.889-1.881 4.4-2.917 7.072-2.917 1.825 0 3.612.494 5.166 1.429.237.142.544.066.687-.171.142-.237.065-.544-.171-.687-1.71-1.028-3.675-1.571-5.682-1.571-2.938 0-5.701 1.139-7.777 3.208-2.078 2.069-3.223 4.82-3.223 7.747s1.145 5.678 3.236 7.761l4.151 3.818c.971.945 2.254 1.466 3.612 1.466s2.641-.521 3.602-1.457l4.175-3.842c2.066-2.057 3.211-4.792 3.224-7.702v-4.999c1.103 0 2-.897 2-2v-3.5c0-.276-.224-.5-.5-.5zm-.5 4c0 .551-.448 1-1 1h-1c-.552 0-1-.449-1-1v-1h3zm-6.917 3.584c-.438-1.618-1.591-2.584-3.083-2.584h-4c-1.492 0-2.645.966-3.088 2.604l-.665 2.938c-.152.666-.247 1.226-.247 1.958v.5c0 .804.532 2 2 2 0 .551.448 1 1 1s1-.449 1-1h4c0 .551.448 1 1 1s1-.449 1-1c1.468 0 2-1.196 2-2v-.5c0-.732-.095-1.292-.247-1.957zm-7.083-1.584h4c1.407 0 1.931 1.156 2.113 1.825l.492 2.175h-9.21l.487-2.154c.188-.689.711-1.846 2.118-1.846zm7 6.996c-.004.236-.087 1.004-1 1.004h-8c-.913 0-.996-.768-1-1v-.5c0-.555.064-.994.171-1.5h1.829v.5c0 .276.224.5.5.5s.5-.224.5-.5v-.5h4v.5c0 .276.224.5.5.5s.5-.224.5-.5v-.5h1.828c.108.505.172.945.172 1.5z"/></svg>