<svg id="Layer_1" viewBox="0 0 24 24" xmlns="http://www.w3.org/2000/svg" data-name="Layer 1"><path d="m20.5 18h-1.528c.083-2.837-1.49-8.296-3.905-8-1.212.023-1.975.689-2.503 1.267-.15.163-.351.253-.564.253s-.415-.09-.563-.252c-.529-.577-1.291-1.244-2.514-1.268-2.402-.296-3.98 5.167-3.895 8h-1.528c-.276 0-.5.224-.5.5s.224.5.5.5h17c.276 0 .5-.224.5-.5s-.224-.5-.5-.5zm-11.587-7c.667.013 1.185.286 1.786.943.336.366.811.576 1.301.576s.965-.21 1.301-.577c.603-.656 1.119-.93 1.776-.942 1.358.005 2.178 2.523 2.526 4h-11.207c.581-2.491 1.539-4.029 2.517-4zm-2.704 5h11.582c.104.643.182 1.305.202 2h-11.986c.021-.695.098-1.356.202-2zm13.291-15h-15c-2.481 0-4.5 2.019-4.5 4.5v13c0 2.481 2.019 4.5 4.5 4.5h15c2.481 0 4.5-2.019 4.5-4.5v-13c0-2.481-2.019-4.5-4.5-4.5zm-15 1h15c1.93 0 3.5 1.57 3.5 3.5v.5h-22v-.5c0-1.93 1.57-3.5 3.5-3.5zm15 20h-15c-1.93 0-3.5-1.57-3.5-3.5v-11.5h22v11.5c0 1.93-1.57 3.5-3.5 3.5zm-16.5-18c0-.552.448-1 1-1s1 .448 1 1-.448 1-1 1-1-.448-1-1zm3 0c0-.552.448-1 1-1s1 .448 1 1-.448 1-1 1-1-.448-1-1zm3 0c0-.552.448-1 1-1s1 .448 1 1-.448 1-1 1-1-.448-1-1z"/></svg>