<svg id="Layer_1" viewBox="0 0 24 24" xmlns="http://www.w3.org/2000/svg" data-name="Layer 1"><path d="m23.2 14.608c.103-.387.047-.791-.155-1.137-.392-.704-1.363-.961-2.051-.54l-.642.374c-.537-.488-1.166-.851-1.853-1.067v-.738c0-.827-.673-1.5-1.5-1.5s-1.5.673-1.5 1.5v.738c-.687.216-1.315.579-1.853 1.067l-.642-.374c-.688-.421-1.659-.165-2.051.54-.421.688-.166 1.659.539 2.052l.646.376c-.094.385-.14.748-.14 1.101s.046.716.14 1.1l-.646.377c-.705.392-.96 1.364-.539 2.052.392.705 1.363.961 2.051.539l.642-.374c.536.489 1.166.852 1.853 1.068v.738c0 .827.673 1.5 1.5 1.5s1.5-.673 1.5-1.5v-.738c.687-.216 1.316-.579 1.853-1.068l.641.374c.69.421 1.659.166 2.052-.539.421-.688.166-1.659-.539-2.052l-.646-.377c.094-.384.14-.747.14-1.1s-.046-.716-.14-1.101l.646-.376c.347-.202.593-.527.694-.915zm-.967-.254c-.034.129-.116.237-.231.304l-.979.571c-.201.118-.295.359-.225.582.138.439.202.817.202 1.188s-.064.749-.202 1.187c-.07.223.022.464.225.582l.979.572c.115.067.197.176.231.305s.016.264-.052.379c-.132.235-.451.32-.684.18l-.972-.567c-.199-.117-.457-.082-.616.09-.55.586-1.249.989-2.021 1.165-.228.052-.389.254-.389.487v1.12c0 .276-.225.5-.5.5s-.5-.224-.5-.5v-1.12c0-.233-.161-.436-.389-.487-.772-.176-1.472-.579-2.021-1.165-.097-.104-.229-.158-.364-.158-.087 0-.174.022-.252.068l-.973.567c-.23.141-.552.055-.683-.18-.141-.23-.055-.553.18-.684l.979-.572c.202-.118.295-.359.225-.582-.138-.438-.202-.816-.202-1.187s.064-.749.202-1.188c.07-.223-.023-.464-.225-.582l-.979-.571c-.235-.13-.32-.454-.18-.684.129-.235.458-.319.684-.18l.972.567c.199.117.457.081.616-.089.55-.586 1.249-.989 2.021-1.165.228-.052.389-.254.389-.487v-1.12c0-.276.225-.5.5-.5s.5.224.5.5v1.12c0 .233.161.436.389.487.772.176 1.472.579 2.021 1.165.159.17.417.207.616.089l.972-.567c.362-.23.862.146.735.56zm1.767-4.793v.939c0 .276-.224.5-.5.5s-.5-.224-.5-.5v-.939c0-1.166-.576-2.25-1.542-2.901l-7.5-5.061c-1.189-.803-2.727-.803-3.916 0l-7.5 5.061c-.966.651-1.542 1.736-1.542 2.901v9.939c0 1.93 1.57 3.5 3.5 3.5h7c.276 0 .5.224.5.5s-.224.5-.5.5h-7c-2.481 0-4.5-2.019-4.5-4.5v-9.939c0-1.499.741-2.893 1.983-3.73l7.5-5.061c1.527-1.031 3.504-1.032 5.033 0l7.5 5.061c1.242.837 1.983 2.232 1.983 3.73zm-7 5.439c-1.103 0-2 .897-2 2s.897 2 2 2 2-.897 2-2-.897-2-2-2zm0 3c-.552 0-1-.449-1-1s.448-1 1-1 1 .449 1 1-.448 1-1 1z"/></svg>