<svg id="Layer_1" viewBox="0 0 24 24" xmlns="http://www.w3.org/2000/svg" data-name="Layer 1"><path d="m13 15c0 .552-.448 1-1 1s-1-.448-1-1 .448-1 1-1 1 .448 1 1zm-4.536-3.536c-.195.195-.195.512 0 .707s.512.195.707 0c1.56-1.56 4.098-1.56 5.657 0 .195.195.512.195.707 0s.195-.512 0-.707c-1.949-1.949-5.122-1.949-7.071 0zm1.415 1.415c-.195.195-.195.512 0 .707s.512.195.707 0c.756-.756 2.072-.756 2.828 0 .195.195.512.195.707 0s.195-.512 0-.707c-1.133-1.134-3.109-1.134-4.242 0zm-2.122-2.122c2.34-2.339 6.146-2.339 8.485 0 .195.195.512.195.707 0s.195-.512 0-.707c-1.322-1.322-3.08-2.05-4.95-2.05s-3.627.728-4.95 2.05c-.195.195-.195.512 0 .707s.512.195.707 0zm3.743-5.757c-.276 0-.5.224-.5.5v1c0 .276.224.5.5.5h1c.276 0 .5-.224.5-.5v-1c0-.276-.224-.5-.5-.5zm8.5-.5v15c0 2.481-2.019 4.5-4.5 4.5h-7c-2.481 0-4.5-2.019-4.5-4.5v-15c0-2.481 2.019-4.5 4.5-4.5h7c2.481 0 4.5 2.019 4.5 4.5zm-15 0v12.5h14v-12.5c0-1.93-1.57-3.5-3.5-3.5h-7c-1.93 0-3.5 1.57-3.5 3.5zm14 15v-1.5h-14v1.5c0 1.93 1.57 3.5 3.5 3.5h7c1.93 0 3.5-1.57 3.5-3.5zm-5.5.5h-3c-.276 0-.5.224-.5.5s.224.5.5.5h3c.276 0 .5-.224.5-.5s-.224-.5-.5-.5zm-5-12.5c.276 0 .5-.224.5-.5v-1.724c0-.258.127-.497.341-.641l2.227-1.503c.263-.178.602-.178.864 0l2.228 1.503c.213.144.34.383.34.641v1.724c0 .276.224.5.5.5s.5-.224.5-.5v-1.724c0-.591-.292-1.141-.781-1.47l-2.227-1.503c-.603-.406-1.381-.406-1.983 0l-2.227 1.503c-.489.329-.782.879-.782 1.47v1.724c0 .276.224.5.5.5z"/></svg>