<?xml version="1.0" encoding="UTF-8"?>
<svg xmlns="http://www.w3.org/2000/svg" id="Layer_1" data-name="Layer 1" viewBox="0 0 24 24">
  <path d="M17.5,0H6.5C4.019,0,2,2.019,2,4.5V20.5c0,1.93,1.57,3.5,3.5,3.5h12c2.481,0,4.5-2.019,4.5-4.5V4.5c0-2.481-2.019-4.5-4.5-4.5ZM3,4.5c0-1.93,1.57-3.5,3.5-3.5h11c1.93,0,3.5,1.57,3.5,3.5v12.5H5.5c-.98,0-1.864,.407-2.5,1.058V4.5Zm14.5,18.5H5.5c-1.379,0-2.5-1.121-2.5-2.5s1.121-2.5,2.5-2.5h15.5v1.5c0,1.93-1.57,3.5-3.5,3.5ZM14.5,6.5c0-.276,.224-.5,.5-.5h3.062c.774-.027,1.262,.948,.774,1.551l-3.289,4.449h2.953c.276,0,.5,.224,.5,.5s-.224,.5-.5,.5h-2.923c-.831,.029-1.352-1.016-.83-1.662l3.289-4.387-3.036,.049c-.276,0-.5-.224-.5-.5Zm-3,3c0-.276,.224-.5,.5-.5h1c.276,0,.5,.224,.5,.5s-.224,.5-.5,.5h-1c-.276,0-.5-.224-.5-.5Zm-6.102,3.489c.034,.008,.068,.011,.103,.011,.231,0,.439-.162,.488-.398l.228-1.102h2.851l.21,1.094c.052,.272,.317,.447,.585,.397,.271-.052,.449-.314,.397-.585l-.935-4.877c-.148-.76-.764-1.529-1.654-1.529-.935,0-1.526,.876-1.646,1.492l-1.016,4.906c-.057,.271,.117,.535,.388,.591Zm1.608-5.3c.039-.203,.286-.689,.665-.689,.398,0,.628,.495,.672,.719l.533,2.781h-2.452l.582-2.811Z"/>
</svg>
