<svg id="Layer_1" viewBox="0 0 24 24" xmlns="http://www.w3.org/2000/svg" data-name="Layer 1"><path d="m11.994 23.303c.043.272-.143.529-.415.573-.518.082-1.049.124-1.579.124-5.514 0-10-4.486-10-10 0-2.869 2.35-7.245 6.617-12.322.87-1.035 2.166-1.678 3.383-1.678s2.513.643 3.383 1.678c2.025 2.411 3.622 4.657 4.745 6.678.134.241.047.546-.194.68-.239.133-.545.048-.681-.194-1.091-1.965-2.651-4.159-4.636-6.52-.686-.815-1.688-1.322-2.617-1.322s-1.932.506-2.617 1.322c-4.116 4.896-6.383 9.044-6.383 11.678 0 4.963 4.037 9 9 9 .478 0 .956-.038 1.421-.112.274-.043.529.143.573.415zm12.006-7.303v3c0 1.223-.651 2.372-1.699 3.001l-2.5 1.5c-1.109.667-2.492.667-3.602 0l-2.5-1.5c-1.048-.629-1.699-1.778-1.699-3.001v-3c0-1.223.651-2.372 1.699-3.001l2.5-1.5c1.109-.667 2.492-.667 3.602 0l2.5 1.5c1.048.629 1.699 1.778 1.699 3.001zm-6.5 1.56c-.452-.065-.894-.212-1.301-.456l-3.074-1.845c-.075.238-.125.485-.125.74v3c0 .873.465 1.694 1.213 2.144l2.5 1.5c.247.148.515.234.787.29zm1.787-1.313 3.1-1.862c-.173-.203-.367-.389-.6-.529l-2.5-1.5c-.794-.477-1.78-.477-2.574 0l-2.5 1.5c-.234.14-.428.326-.601.53l3.102 1.861c.793.475 1.778.475 2.573 0zm3.713-.247c0-.255-.05-.502-.125-.74l-3.073 1.845c-.406.244-.85.391-1.302.456v5.373c.272-.056.54-.142.787-.29l2.5-1.5c.748-.449 1.213-1.271 1.213-2.144z"/></svg>