<svg id="Layer_1" viewBox="0 0 24 24" xmlns="http://www.w3.org/2000/svg" data-name="Layer 1"><path d="m24 9.556v8.652c0 2.177-1.554 4.038-3.695 4.428l-6.719 1.222c-.526.096-1.056.143-1.585.143s-1.06-.047-1.585-.143l-6.719-1.222c-2.141-.39-3.695-2.251-3.695-4.428v-8.652c0-1.61.83-3.061 2.22-3.88.236-.142.544-.062.685.177.14.238.061.545-.177.685-1.082.638-1.728 1.767-1.728 3.019v8.652c0 1.692 1.208 3.141 2.874 3.443l6.719 1.222c.301.055.604.085.907.105v-5.478c0-.276.224-.5.5-.5s.5.224.5.5v5.478c.303-.019.606-.05.907-.105l6.719-1.222c1.666-.303 2.874-1.751 2.874-3.443v-8.653c0-1.241-.637-2.364-1.705-3.005-.237-.142-.313-.449-.171-.686.143-.236.449-.315.686-.172 1.372.823 2.19 2.267 2.19 3.862zm-19-1.828v-5.728c0-1.103.897-2 2-2h1c1.103 0 2 .897 2 2v6c0 .564.24 1.104.658 1.483.425.384.975.562 1.55.507 1.005-.102 1.792-1.038 1.792-2.133v-5.857c0-1.103.897-2 2-2h1c1.103 0 2 .897 2 2v6c.081 3.761-3.24 7.079-6.998 7-3.828.014-7.006-3.299-7.002-7.272zm10-5.728v1h3v-1c0-.552-.449-1-1-1h-1c-.551 0-1 .448-1 1zm-9 0v1h3v-1c0-.552-.449-1-1-1h-1c-.551 0-1 .448-1 1zm0 5.728c0 3.361 2.609 6.174 5.815 6.27 1.633.051 3.188-.552 4.363-1.69 1.175-1.141 1.822-2.67 1.822-4.307v-4.001h-3v3.857c0 1.602-1.183 2.976-2.692 3.127-.85.089-1.694-.191-2.32-.76-.627-.567-.987-1.379-.987-2.225v-3.999h-3v3.728z"/></svg>