<?xml version="1.0" encoding="UTF-8"?>
<svg xmlns="http://www.w3.org/2000/svg" id="Layer_1" data-name="Layer 1" viewBox="0 0 24 24">
  <path d="M12,0C5.383,0,0,5.383,0,12s5.383,12,12,12,12-5.383,12-12S18.617,0,12,0Zm0,1c2.853,0,5.447,1.101,7.404,2.889l-2.41,2.41c-1.513-1.355-3.432-2.166-5.465-2.283-.274-.008-.512,.194-.528,.47-.016,.275,.194,.512,.47,.528,1.788,.104,3.477,.811,4.816,1.992l-1.426,1.426c-.937-.791-2.095-1.297-3.316-1.408-.267-.029-.518,.178-.543,.453s.178,.518,.453,.543c.989,.089,1.928,.493,2.697,1.121l-1.419,1.419c-.343-.244-.722-.417-1.133-.5-.27-.053-.534,.12-.589,.39s.12,.535,.39,.589c.217,.044,.417,.134,.607,.246l-2.885,2.885c-.392-.479-.742-1.013-1.014-1.63l.557-.705c.604-.604,.604-1.585,.043-2.14l-.959-1.243c-.604-.603-1.585-.603-2.164-.023l-.574,.502c-.575,.574-.892,1.351-.892,2.188,0,1.69,.953,3.657,2.61,5.444l-2.841,2.841c-1.788-1.957-2.889-4.551-2.889-7.404C1,5.935,5.935,1,12,1ZM7.436,15.857c-1.452-1.579-2.317-3.327-2.317-4.738,0-.569,.212-1.095,.574-1.457l.575-.502c.213-.214,.561-.216,.732-.049l.959,1.242c.213,.213,.213,.561-.038,.817l-.779,.98c-.112,.141-.14,.331-.073,.497,.342,.853,.806,1.588,1.346,2.231l-.979,.979Zm4.564,7.143c-2.853,0-5.447-1.101-7.404-2.889L20.111,4.596c1.788,1.957,2.889,4.551,2.889,7.404,0,6.065-4.935,11-11,11Zm3.617-6.673c.652,.646,.652,1.628,.049,2.231l-.456,.525c-.597,.6-1.374,.916-2.21,.916-1.129,0-2.434-.455-3.771-1.314-.232-.149-.299-.459-.15-.691,.15-.232,.458-.3,.691-.15,1.872,1.205,3.696,1.57,4.709,.558l.456-.525c.237-.238,.237-.585,.023-.799l-1.145-.874c-.263-.256-.611-.257-.823-.043l-1.022,.818c-.218,.172-.531,.135-.703-.08-.172-.216-.136-.53,.08-.703l.98-.78c.561-.565,1.543-.566,2.146,.038l1.145,.874Zm4.382-3.856c.016,.276-.194,.512-.47,.528-.011,0-.021,0-.029,0-.264,0-.483-.205-.499-.471-.057-.981-.29-1.931-.693-2.823-.114-.251-.003-.548,.249-.662,.25-.113,.548-.002,.661,.25,.455,1.004,.718,2.073,.781,3.177Zm-3.21-1.107c.1,.355,.168,.722,.201,1.09,.025,.275-.178,.518-.453,.543-.015,.001-.03,.002-.046,.002-.255,0-.474-.195-.497-.455-.028-.308-.084-.614-.168-.91-.075-.266,.08-.542,.346-.617,.271-.072,.543,.081,.617,.346Z"/>
</svg>
