<svg id="Layer_1" viewBox="0 0 24 24" xmlns="http://www.w3.org/2000/svg" data-name="Layer 1"><path d="m23.418 15.085-1.341-1.348c-.466-.469-1.111-.737-1.772-.737h-5.6c-.668 0-1.296.26-1.768.732l-1.352 1.352c-.735.734-.781 1.928-.104 2.716l.015.016 5.639 6.026c.095.101.227.158.365.158s.271-.057.365-.158l5.655-6.047c.672-.786.626-1.976-.103-2.709zm-2.05-.643s1.44 1.485 1.482 1.558h-2.989l-.667-2h1.111c.396 0 .784.161 1.063.442zm-5.183 2.558h2.631l-1.314 4.125-1.316-4.125zm.009-1 .667-2h1.279l.667 2h-2.612zm-2.55-1.561c.283-.283.66-.439 1.061-.439h1.101l-.667 2h-2.988c.042-.073 1.494-1.561 1.494-1.561zm-1.489 2.561h2.979l1.569 4.917s-4.521-4.87-4.548-4.917zm6.143 4.914 1.567-4.914h2.981c-.025.042-4.548 4.914-4.548 4.914zm-6.927-.851c-.281.12-.575.192-.872.235v-1.798c0-.276-.224-.5-.5-.5s-.5.224-.5.5v1.785c-.45-.065-.892-.197-1.292-.436l-5.499-3.278c-1.054-.628-1.708-1.78-1.708-3.006v-7.414c0-.326.083-.634.202-.927l8.296 4.742v2.535c0 .276.225.5.501.5s.5-.224.5-.5v-2.529s8.299-4.744 8.299-4.744c.118.293.201.6.201.926v3.348c0 .276.224.5.5.5s.5-.224.5-.5v-3.348c0-1.26-.682-2.428-1.778-3.047l-6.507-3.657c-.529-.299-1.122-.449-1.714-.45-.6-.001-1.199.149-1.732.452l-6.492 3.653c-1.095.62-1.776 1.787-1.776 3.046v7.414c0 1.577.842 3.058 2.196 3.866l5.499 3.278c.704.42 1.504.634 2.306.634.599 0 1.199-.119 1.763-.359.254-.108.372-.402.264-.656s-.4-.372-.656-.264zm-9.102-16.088 6.491-3.653c.758-.43 1.702-.432 2.462 0l6.508 3.655c.198.112.376.249.533.405l-8.259 4.721-8.265-4.725c.156-.156.333-.292.53-.403z"/></svg>