<svg id="Layer_1" viewBox="0 0 24 24" xmlns="http://www.w3.org/2000/svg" data-name="Layer 1"><path d="m19.999 16.538h-.005c-.472 0-.912.21-1.207.575-.815 1.01-1.787 2.504-1.787 3.887 0 1.654 1.346 3 3 3s3-1.346 3-3c0-1.353-.975-2.856-1.793-3.88-.294-.369-.734-.581-1.208-.582zm.001 6.462c-1.103 0-2-.897-2-2 0-.852.556-2.009 1.564-3.258.105-.13.262-.204.43-.204h.002c.169 0 .325.075.43.206 1.016 1.271 1.574 2.427 1.574 3.256 0 1.103-.897 2-2 2zm3.5-10h-.5v-6c0-3.859-3.141-7-7-7s-7 3.141-7 7v10c0 .552-.448 1-1 1s-1-.448-1-1v-4h.5c.276 0 .5-.224.5-.5s-.224-.5-.5-.5h-7c-.276 0-.5.224-.5.5s.224.5.5.5h.5v4c0 3.859 3.141 7 7 7s7-3.141 7-7v-10c0-.552.448-1 1-1s1 .448 1 1v6h-.5c-.276 0-.5.224-.5.5s.224.5.5.5h7c.276 0 .5-.224.5-.5s-.224-.5-.5-.5zm-15.5 10c-3.309 0-6-2.691-6-6v-4h4v4c0 1.103.897 2 2 2s2-.897 2-2v-5h4v5c0 3.309-2.691 6-6 6zm8-18c-1.103 0-2 .897-2 2v4h-4v-4c0-3.309 2.691-6 6-6s6 2.691 6 6v6h-4v-6c0-1.103-.897-2-2-2zm-16-1c0-1.22.541-2.561 1.316-3.261.301-.272.715-.338 1.087-.174.368.164.597.517.597.92v1.515c-.011.563.49 1.025 1.049.999.524-.025.951-.492.951-1.041v-1.473c0-.403.229-.756.597-.92.371-.163.787-.098 1.087.174.775.7 1.316 2.041 1.316 3.261 0 1.441-.759 2.737-2 3.452v2.048c0 .276-.224.5-.5.5s-.5-.224-.5-.5v-2.35c0-.192.11-.368.284-.451 1.059-.506 1.716-1.54 1.716-2.699 0-.943-.415-2.002-.986-2.519l-.014 1.477c0 1.093-.836 1.989-1.904 2.039-1.103.091-2.123-.892-2.096-1.997v-1.515c-.585.513-1 1.571-1 2.515 0 1.159.657 2.193 1.716 2.699.174.083.284.259.284.451v2.35c0 .276-.224.5-.5.5s-.5-.224-.5-.5v-2.048c-1.241-.715-2-2.011-2-3.452z"/></svg>