<?xml version="1.0" encoding="UTF-8"?>
<svg xmlns="http://www.w3.org/2000/svg" id="Layer_1" data-name="Layer 1" viewBox="0 0 24 24">
  <path d="m22.693,8.838L15.161,1.305C14.32.464,13.197,0,12.001,0s-2.319.463-3.16,1.304L1.31,8.838C.466,9.682,0,10.804,0,11.998s.465,2.315,1.309,3.159l7.531,7.534c.871.871,2.016,1.307,3.16,1.307s2.29-.436,3.161-1.307l7.531-7.534c1.742-1.742,1.742-4.577,0-6.319Zm-.707,5.612l-7.531,7.534c-1.353,1.352-3.553,1.353-4.907,0l-7.531-7.534c-1.353-1.352-1.353-3.553,0-4.905l7.531-7.533c1.354-1.353,3.553-1.353,4.906,0l7.532,7.533c1.353,1.353,1.353,3.553,0,4.905Zm-5.986-.951v4c0,.276-.224.5-.5.5s-.5-.224-.5-.5v-4c0-1.378-1.121-2.5-2.5-2.5h-5.293l3.146,3.146c.195.195.195.512,0,.707-.098.098-.226.146-.354.146s-.256-.049-.354-.146l-3.301-3.301c-.58-.581-.58-1.525,0-2.105l3.301-3.301c.195-.195.512-.195.707,0s.195.512,0,.707l-3.146,3.146h5.293c1.93,0,3.5,1.57,3.5,3.5Z"/>
</svg>
