<?xml version="1.0" encoding="UTF-8"?>
<svg xmlns="http://www.w3.org/2000/svg" id="Layer_1" data-name="Layer 1" viewBox="0 0 24 24">
  <path d="m20.5,12c1.378,0,2.5,1.121,2.5,2.5,0,.276.224.5.5.5s.5-.224.5-.5c0-1.93-1.57-3.5-3.5-3.5h-2.1l-4.804-3.475c-.342-.247-.724-.407-1.119-.48l.016-1.086c1.42-.236,2.507-1.473,2.507-2.959,0-1.654-1.346-3-3-3s-3,1.346-3,3c0,1.481,1.079,2.715,2.493,2.956l-.016,1.088c-.402.073-.791.237-1.138.49l-4.739,3.466h-2.099c-1.93,0-3.5,1.57-3.5,3.5v1c0,.276.224.5.5.5s.5-.224.5-.5v-1c0-1.379,1.122-2.5,2.5-2.5h2.099l4.739,3.466c.488.357,1.062.536,1.634.536.568,0,1.137-.176,1.623-.527l4.805-3.475h2.1ZM10,3c0-1.103.897-2,2-2s2,.897,2,2-.896,1.999-1.998,2c-.003,0-.005,0-.008,0-1.1-.003-1.995-.899-1.995-2Zm3.009,11.664c-.622.451-1.458.448-2.08-.005l-4.319-3.159,4.319-3.159h0c.307-.224.666-.338,1.026-.341.002,0,.005,0,.007,0h.007s.007,0,.011,0c.361.001.721.113,1.029.336l4.375,3.164-4.376,3.164Zm10.845,3.189l-2.646,2.646,2.646,2.646c.195.195.195.512,0,.707-.098.098-.226.146-.354.146s-.256-.049-.354-.146l-2.646-2.646-2.646,2.646c-.098.098-.226.146-.354.146s-.256-.049-.354-.146c-.195-.195-.195-.512,0-.707l2.646-2.646-2.646-2.646c-.195-.195-.195-.512,0-.707s.512-.195.707,0l2.646,2.646,2.646-2.646c.195-.195.512-.195.707,0s.195.512,0,.707Zm-15.5.292c.195.195.196.512,0,.707l-3.548,3.561c-.39.391-.903.586-1.415.586s-1.024-.195-1.414-.585l-1.831-1.83c-.195-.195-.195-.512,0-.707s.512-.195.707,0l1.831,1.83c.389.39,1.024.391,1.415,0l3.547-3.56c.195-.195.511-.195.707-.002Z"/>
</svg>
