<?xml version="1.0" encoding="UTF-8"?>
<svg xmlns="http://www.w3.org/2000/svg" id="Layer_1" data-name="Layer 1" viewBox="0 0 24 24">
  <path d="m20.228,15.63c.493-1.112.772-2.339.772-3.631,0-1.659-.459-3.209-1.245-4.545.164.022.328.045.495.045,2.068,0,3.75-1.682,3.75-3.75S22.318-.001,20.25-.001s-3.75,1.682-3.75,3.75c0,.168.025.332.047.497-1.336-.787-2.888-1.247-4.547-1.247-1.505,0-2.922.376-4.169,1.031-.41-1.195-1.54-2.031-2.831-2.031-1.654,0-3,1.346-3,3,0,1.291.836,2.421,2.031,2.831-.656,1.248-1.031,2.665-1.031,4.169,0,.799.115,1.57.311,2.308-1.973.704-3.311,2.548-3.311,4.692,0,2.757,2.243,5,5,5,2.145,0,3.988-1.339,4.692-3.311.738.196,1.509.311,2.308.311,1.292,0,2.519-.279,3.631-.772.435,1.6,1.908,2.772,3.619,2.772,2.068,0,3.75-1.683,3.75-3.75,0-1.711-1.172-3.184-2.772-3.619Zm-2.267-10.363c-.302-.454-.461-.977-.461-1.518,0-1.517,1.233-2.75,2.75-2.75s2.75,1.233,2.75,2.75-1.233,2.75-2.75,2.75c-.541,0-1.064-.159-1.518-.461-.027-.03-.059-.056-.086-.086-.191-.21-.392-.411-.602-.602-.029-.026-.053-.057-.082-.082Zm-14.961-.268c0-1.103.897-2,2-2,.932,0,1.743.653,1.948,1.557-.939.639-1.751,1.452-2.391,2.391-.904-.205-1.557-1.016-1.557-1.948Zm2,18c-2.206,0-4-1.794-4-4,0-1.705,1.057-3.174,2.619-3.745.914,2.345,2.781,4.212,5.126,5.126-.571,1.561-2.039,2.619-3.745,2.619Zm-1-11c0-4.411,3.589-8,8-8s8,3.589,8,8-3.589,8-8,8-8-3.589-8-8Zm15.25,10c-1.331,0-2.455-.971-2.692-2.253,1.315-.776,2.413-1.875,3.189-3.189,1.282.237,2.253,1.36,2.253,2.692,0,1.517-1.234,2.75-2.75,2.75Zm-6.25-7c0,.552-.448,1-1,1s-1-.448-1-1,.448-1,1-1,1,.448,1,1Zm2.143-3.889c.214.174.248.489.074.704-.174.213-.488.248-.704.074-1.458-1.181-3.572-1.179-5.027,0-.093.075-.204.112-.314.112-.146,0-.29-.063-.389-.185-.174-.214-.141-.529.073-.703,1.821-1.477,4.464-1.477,6.287,0Zm-1.343,1.489c.221.166.265.479.099.7-.098.131-.248.199-.4.199-.104,0-.21-.032-.3-.101-.707-.531-1.693-.531-2.4,0-.219.168-.534.123-.7-.099-.166-.221-.122-.534.099-.7,1.06-.798,2.542-.798,3.602,0Zm2.507-3.118c.217.17.256.484.085.702-.099.126-.246.192-.394.192-.107,0-.216-.035-.308-.106-2.174-1.701-5.21-1.701-7.384,0-.218.17-.533.131-.702-.085-.17-.217-.132-.532.085-.702,2.536-1.985,6.08-1.985,8.616,0Z"/>
</svg>
