<?xml version="1.0" encoding="UTF-8"?>
<svg xmlns="http://www.w3.org/2000/svg" id="Layer_1" data-name="Layer 1" viewBox="0 0 24 24">
  <path d="M12,0C5.383,0,0,5.383,0,12s5.383,12,12,12,12-5.383,12-12S18.617,0,12,0Zm0,23c-6.065,0-11-4.935-11-11S5.935,1,12,1s11,4.935,11,11-4.935,11-11,11Zm4.654-15.807c-.604-.267-1.289-.256-1.918,.047-.229,.135-1.884,.99-2.737,1.429-.702-.359-2.795-1.43-2.979-1.522-.777-.321-1.725-.11-2.36,.53-.667,.683-.847,1.671-.46,2.52,.005,.009,.01,.019,.014,.028,.032,.06,3.756,7.07,3.756,7.069,.389,.778,1.17,1.263,2.039,1.266h.008c.865,0,1.646-.479,2.031-1.237,.125-.226,3.074-5.556,3.757-7.136,.246-.556,.262-1.174,.045-1.738-.218-.565-.642-1.01-1.194-1.254Zm.233,2.592c-.665,1.54-3.686,6.997-3.724,7.068-.226,.442-.654,.706-1.148,.706h-.005c-.496-.001-.925-.268-1.153-.724-3.188-6-3.675-6.919-3.753-7.066-.208-.467-.103-1.013,.267-1.391,.34-.341,.871-.471,1.23-.324,.187,.095,3.171,1.622,3.171,1.622,.143,.073,.312,.073,.456,0,.274-.141,2.694-1.384,2.978-1.554,.328-.157,.708-.161,1.044-.013,.308,.136,.544,.384,.665,.698,.122,.316,.112,.663-.027,.979Z"/>
</svg>
