<svg id="Layer_1" viewBox="0 0 24 24" xmlns="http://www.w3.org/2000/svg" data-name="Layer 1"><path d="m19.75 0c-1.673 0-3.108.98-3.801 2.387-.76-1.413-2.235-2.387-3.949-2.387s-3.189.974-3.949 2.387c-.693-1.407-2.128-2.387-3.801-2.387-2.344 0-4.25 1.907-4.25 4.251l.038 19.25c0 .261.202.478.463.498.272.017.492-.166.531-.423.225-1.468 1.608-2.576 3.218-2.576 1.631 0 3.031 1.107 3.256 2.576.05.264.305.459.57.418.208-.045.37-.201.417-.41.244-1.425 1.817-2.584 3.507-2.584s3.263 1.159 3.507 2.584c.05.232.257.416.496.415.24-.003.446-.19.491-.424.225-1.468 1.625-2.576 3.256-2.576s3.031 1.107 3.256 2.576c.039.258.28.445.532.423.261-.02.462-.237.462-.499v-19.249c0-2.343-1.906-4.25-4.25-4.25zm-11.25 10.5c0-1.93 1.57-3.5 3.5-3.5s3.5 1.57 3.5 3.5v4.206c-.825-1.032-2.079-1.706-3.5-1.706s-2.675.675-3.5 1.706zm3.5-9.5c1.93 0 3.5 1.57 3.5 3.5v3.206c-.825-1.032-2.079-1.706-3.5-1.706s-2.675.675-3.5 1.706v-3.206c0-1.93 1.57-3.5 3.5-3.5zm-11 3.25c0-1.792 1.458-3.25 3.25-3.25s3.25 1.458 3.25 3.25v3.294c-.78-.935-1.939-1.544-3.25-1.544s-2.463.606-3.243 1.536zm.012 5.884c.063-1.737 1.486-3.134 3.238-3.134 1.792 0 3.25 1.458 3.25 3.25v4.294c-.78-.935-1.939-1.544-3.25-1.544-1.299 0-2.449.598-3.23 1.52l-.009-4.386zm3.238 9.866c-1.268 0-2.429.537-3.216 1.392l-.009-4.393c.131-1.673 1.519-2.999 3.225-2.999 1.792 0 3.25 1.458 3.25 3.25v4.157c-.794-.861-1.964-1.407-3.25-1.407zm7.75 0c-1.367 0-2.649.584-3.5 1.489v-3.989c0-1.93 1.57-3.5 3.5-3.5s3.5 1.57 3.5 3.5v3.989c-.851-.904-2.133-1.489-3.5-1.489zm11 1.395c-.794-.857-1.968-1.395-3.25-1.395s-2.456.546-3.25 1.407v-4.157c0-1.792 1.458-3.25 3.25-3.25s3.25 1.458 3.25 3.25zm-3.25-8.395c-1.311 0-2.47.609-3.25 1.544v-4.294c0-1.792 1.458-3.25 3.25-3.25s3.25 1.458 3.25 3.25v4.294c-.78-.935-1.939-1.544-3.25-1.544zm0-7c-1.311 0-2.47.609-3.25 1.544v-3.294c0-1.792 1.458-3.25 3.25-3.25s3.25 1.458 3.25 3.25v3.294c-.78-.935-1.939-1.544-3.25-1.544z"/></svg>