<svg id="Layer_1" viewBox="0 0 24 24" xmlns="http://www.w3.org/2000/svg" data-name="Layer 1"><path d="m9.5 21h-5c-1.93 0-3.5-1.57-3.5-3.5v-9.5h22v5.5c0 .276.224.5.5.5s.5-.224.5-.5v-9c0-2.481-2.019-4.5-4.5-4.5h-15c-2.481 0-4.5 2.019-4.5 4.5v13c0 2.481 2.019 4.5 4.5 4.5h5c.276 0 .5-.224.5-.5s-.224-.5-.5-.5zm-5-20h15c1.93 0 3.5 1.57 3.5 3.5v2.5h-22v-2.5c0-1.93 1.57-3.5 3.5-3.5zm-1.5 3c0-.552.448-1 1-1s1 .448 1 1-.448 1-1 1-1-.448-1-1zm3 0c0-.552.448-1 1-1s1 .448 1 1-.448 1-1 1-1-.448-1-1zm3 0c0-.552.448-1 1-1s1 .448 1 1-.448 1-1 1-1-.448-1-1zm13.874 19.519c-.47.607-1.453.641-1.986.091l-1.269-1.249c-.196-.194-.199-.51-.006-.706.192-.198.507-.199.705-.007l1.269 1.25c.151.134.349.164.514-.009.872-1.075 1.112-2.292.776-3.945-.386-1.899-1.914-3.441-3.802-3.834-1.511-.316-3.048.052-4.218 1.006s-1.841 2.367-1.841 3.878c0 1.327.235 2.11.867 2.891.164.173.361.139.514.007l1.258-1.254c.195-.194.51-.194.705.002.194.195.194.512-.002.706l-1.257 1.254c-.528.557-1.521.524-1.993-.086-.773-.956-1.089-1.977-1.089-3.521 0-1.813.805-3.509 2.209-4.653s3.242-1.586 5.049-1.21c2.274.474 4.113 2.328 4.577 4.614.127.627.145 1.274.145 1.755 0 1.148-.405 2.131-1.126 3.019zm-3.923-3.763c.021.08.049.157.049.244 0 .552-.448 1-1 1s-1-.448-1-1 .448-1 1-1c.086 0 .164.029.244.049l1.903-1.903c.195-.195.512-.195.707 0s.195.512 0 .707z"/></svg>