<?xml version="1.0" encoding="UTF-8"?>
<svg xmlns="http://www.w3.org/2000/svg" id="Layer_1" data-name="Layer 1" viewBox="0 0 24 24">
  <path d="M19.5,0h-6c-2.481,0-4.5,2.019-4.5,4.5v5c0,.276,.224,.5,.5,.5s.5-.224,.5-.5V4.5c0-1.93,1.57-3.5,3.5-3.5h6c1.93,0,3.5,1.57,3.5,3.5V15H14.614c.655-1.089,.453-2.523-.545-3.371-.996-.846-2.484-.832-3.467,.038l-4.438,4c-.205,.185-.222,.501-.036,.707,.184,.205,.5,.221,.706,.037l4.434-3.997c.607-.538,1.532-.547,2.153-.022,.689,.586,.773,1.625,.157,2.353l-3.776,5.443c-.525,.757-.803,1.644-.803,2.565v.748c0,.276,.224,.5,.5,.5s.5-.224,.5-.5v-.748c0-.672,.197-1.317,.557-1.88,.814,.71,1.849,1.128,2.943,1.128h6c2.481,0,4.5-2.019,4.5-4.5V4.5c0-2.481-2.019-4.5-4.5-4.5Zm3.5,17.5c0,1.93-1.57,3.5-3.5,3.5h-6c-.891,0-1.733-.356-2.379-.959l2.81-4.054c.023,.003,9.068,.014,9.068,.014v1.5Zm-8.5,1c0-.276,.224-.5,.5-.5h3c.276,0,.5,.224,.5,.5s-.224,.5-.5,.5h-3c-.276,0-.5-.224-.5-.5ZM6.838,7.869l-2.757,2.527c-1.958,1.794-3.081,4.347-3.081,7.003v6.101c0,.276-.224,.5-.5,.5s-.5-.224-.5-.5v-6.101c0-2.936,1.241-5.756,3.405-7.74l2.757-2.527c.203-.185,.519-.172,.706,.031,.187,.204,.173,.52-.03,.707Z"/>
</svg>
