<svg id="Layer_1" viewBox="0 0 24 24" xmlns="http://www.w3.org/2000/svg" data-name="Layer 1"><path d="m19.538 8.17c0-.371-.235-.7-.571-.8l-3.095-.775c-.778-.23-1.308-.954-1.308-1.765 0-1.009.8-1.83 1.782-1.83h.653v-.5c0-.276.224-.5.5-.5s.5.224.5.5v.5h.757c.817 0 1.528.567 1.729 1.381.066.268-.098.539-.366.604-.27.067-.539-.098-.604-.366-.09-.364-.401-.619-.758-.619h-2.41c-.432 0-.782.372-.782.83 0 .371.235.7.571.8l3.095.775c.778.23 1.308.954 1.308 1.765 0 1.009-.8 1.83-1.782 1.83h-.756v.5c0 .276-.224.5-.5.5s-.5-.224-.5-.5v-.5h-.757c-.817 0-1.528-.567-1.729-1.381-.066-.268.098-.539.366-.604.271-.064.539.099.604.366.09.364.401.619.758.619h2.513c.432 0 .782-.372.782-.83zm-10.194-.308c-.201-.19-.52-.18-.707.02-1.056 1.118-1.637 2.58-1.637 4.118 0 3.309 2.691 6 6 6 1.796 0 3.482-.795 4.628-2.182.176-.213.146-.528-.067-.704-.212-.176-.529-.147-.704.067-.954 1.155-2.359 1.818-3.856 1.818-2.757 0-5-2.243-5-5 0-1.281.484-2.5 1.363-3.431.189-.201.181-.518-.02-.707zm14.156 5.138c-.276 0-.5.224-.5.5v4c0 1.93-1.57 3.5-3.5 3.5h-15c-1.758 0-3.204-1.308-3.449-3h2.449c.276 0 .5-.224.5-.5s-.224-.5-.5-.5h-2.5v-10h2.5c.276 0 .5-.224.5-.5s-.224-.5-.5-.5h-2.449c.245-1.692 1.691-3 3.449-3h5c.276 0 .5-.224.5-.5s-.224-.5-.5-.5h-5c-2.481 0-4.5 2.019-4.5 4.5v11c0 1.557.795 2.93 2 3.738v2.262c0 .276.224.5.5.5s.5-.224.5-.5v-1.776c.471.168.971.276 1.5.276h15c.529 0 1.029-.108 1.5-.276v1.776c0 .276.224.5.5.5s.5-.224.5-.5v-2.262c1.205-.808 2-2.182 2-3.738v-4c0-.276-.224-.5-.5-.5zm-12.5-6.5c0-3.584 2.916-6.5 6.5-6.5s6.5 2.916 6.5 6.5-2.916 6.5-6.5 6.5-6.5-2.916-6.5-6.5zm1 0c0 3.032 2.468 5.5 5.5 5.5s5.5-2.468 5.5-5.5-2.468-5.5-5.5-5.5-5.5 2.468-5.5 5.5z"/></svg>