<svg id="Layer_1" viewBox="0 0 24 24" xmlns="http://www.w3.org/2000/svg" data-name="Layer 1"><path d="m10 23.5c0 .276-.224.5-.5.5h-5c-2.481 0-4.5-2.019-4.5-4.5v-13c0-2.481 2.019-4.5 4.5-4.5h.55c.232-1.14 1.242-2 2.45-2h3c1.208 0 2.217.86 2.45 2h.55c2.481 0 4.5 2.019 4.5 4.5v4c0 .276-.224.5-.5.5s-.5-.224-.5-.5v-4c0-1.93-1.57-3.5-3.5-3.5h-1c-.276 0-.5-.224-.5-.5 0-.827-.673-1.5-1.5-1.5h-3c-.827 0-1.5.673-1.5 1.5 0 .276-.224.5-.5.5h-1c-1.93 0-3.5 1.57-3.5 3.5v13c0 1.93 1.57 3.5 3.5 3.5h5c.276 0 .5.224.5.5zm-5-16c-.552 0-1 .448-1 1s.448 1 1 1 1-.448 1-1-.448-1-1-1zm0 4c-.552 0-1 .448-1 1s.448 1 1 1 1-.448 1-1-.448-1-1-1zm0 4c-.552 0-1 .448-1 1s.448 1 1 1 1-.448 1-1-.448-1-1-1zm3.5-7.5c-.276 0-.5.224-.5.5s.224.5.5.5h5c.276 0 .5-.224.5-.5s-.224-.5-.5-.5zm3 4h-3c-.276 0-.5.224-.5.5s.224.5.5.5h3c.276 0 .5-.224.5-.5s-.224-.5-.5-.5zm12.5 4.5v5c0 1.378-1.122 2.5-2.5 2.5h-7c-1.378 0-2.5-1.122-2.5-2.5v-5c0-1.207.86-2.217 2-2.449v-1.551c0-.276.224-.5.5-.5s.5.224.5.5v1.5h6v-1.5c0-.276.224-.5.5-.5s.5.224.5.5v1.551c1.14.232 2 1.242 2 2.449zm-11 0v.5h10v-.5c0-.827-.673-1.5-1.5-1.5h-7c-.827 0-1.5.673-1.5 1.5zm10 5v-3.5h-10v3.5c0 .827.673 1.5 1.5 1.5h7c.827 0 1.5-.673 1.5-1.5zm-13.5-5.5h-1c-.276 0-.5.224-.5.5s.224.5.5.5h1c.276 0 .5-.224.5-.5s-.224-.5-.5-.5z"/></svg>