<?xml version="1.0" encoding="UTF-8"?>
<svg xmlns="http://www.w3.org/2000/svg" id="Layer_1" data-name="Layer 1" viewBox="0 0 24 24">
  <path d="m12,12c-1.654,0-3,1.346-3,3s1.346,3,3,3,3-1.346,3-3-1.346-3-3-3Zm0,5c-1.103,0-2-.897-2-2s.897-2,2-2,2,.897,2,2-.897,2-2,2Zm12-7.439v9.939c0,2.481-2.019,4.5-4.5,4.5h-3c-.276,0-.5-.224-.5-.5s.224-.5.5-.5h3c1.93,0,3.5-1.57,3.5-3.5v-9.939c0-1.164-.577-2.249-1.542-2.901L13.958,1.599c-1.189-.803-2.726-.803-3.915,0L2.542,6.659c-.966.652-1.542,1.737-1.542,2.901v9.939c0,1.93,1.57,3.5,3.5,3.5h3c.276,0,.5.224.5.5s-.224.5-.5.5h-3c-2.481,0-4.5-2.019-4.5-4.5v-9.939c0-1.497.741-2.892,1.983-3.729L9.483.771c1.53-1.033,3.506-1.032,5.034,0l7.5,5.061c1.242.838,1.983,2.232,1.983,3.729Zm-5,5.411c0-1.862-.729-3.613-2.051-4.931h0c-1.322-1.316-3.08-2.041-4.949-2.041s-3.627.725-4.949,2.041c-1.323,1.317-2.051,3.068-2.051,4.931s.729,3.613,2.065,4.944l2.565,2.36c.637.62,1.478.962,2.369.962s1.732-.342,2.358-.952l2.591-2.384c1.322-1.317,2.051-3.068,2.051-4.931Zm-5.329,6.588c-.899.876-2.434.884-3.353-.01l-2.562-2.356c-1.133-1.128-1.756-2.627-1.756-4.222s.624-3.094,1.757-4.222c1.133-1.129,2.64-1.75,4.243-1.75s3.11.621,4.244,1.75c1.132,1.128,1.756,2.627,1.756,4.222s-.624,3.094-1.742,4.208l-2.586,2.38Z"/>
</svg>
