<svg id="Layer_1" viewBox="0 0 24 24" xmlns="http://www.w3.org/2000/svg" data-name="Layer 1"><path d="m.5 3h2.551c.199.978.971 1.75 1.949 1.949v5.551c0 .276.224.5.5.5s.5-.224.5-.5v-5.551c.978-.199 1.75-.971 1.949-1.949h8.101c.199.978.971 1.75 1.949 1.949v5.551c0 .276.224.5.5.5s.5-.224.5-.5v-5.551c.978-.199 1.75-.971 1.949-1.949h2.551c.276 0 .5-.224.5-.5s-.224-.5-.5-.5h-2.551c-.232-1.14-1.242-2-2.449-2s-2.217.86-2.449 2h-8.101c-.232-1.14-1.242-2-2.449-2s-2.217.86-2.449 2h-2.551c-.276 0-.5.224-.5.5s.224.5.5.5zm18-2c.827 0 1.5.673 1.5 1.5s-.673 1.5-1.5 1.5-1.5-.673-1.5-1.5.673-1.5 1.5-1.5zm-13 0c.827 0 1.5.673 1.5 1.5s-.673 1.5-1.5 1.5-1.5-.673-1.5-1.5.673-1.5 1.5-1.5zm5.088 13.867c-.005-.009-.013-.013-.019-.022-.236-.374-.554-.697-.952-.922l-2.783-1.572c-.826-.467-1.853-.465-2.68 0l-2.773 1.57c-.852.482-1.381 1.391-1.381 2.369v3.388c0 .974.525 1.879 1.372 2.364l2.794 1.597c.416.237.883.356 1.351.356.456 0 .913-.113 1.321-.34l2.762-1.533c.864-.479 1.401-1.392 1.401-2.38v-3.451c0-.512-.151-1-.41-1.422 0-.002 0-.003-.002-.005zm-5.94-1.645c.522-.295 1.172-.296 1.695 0l2.782 1.572c.093.052.17.122.25.189l-3.874 2.214-3.877-2.215c.08-.067.157-.137.249-.189l2.773-1.571zm-2.779 7.954c-.536-.307-.868-.88-.868-1.496v-3.388c0-.164.026-.323.071-.476l3.929 2.246v4.848c-.116-.036-.231-.077-.338-.139l-2.793-1.596zm8.132-1.432c0 .625-.339 1.202-.886 1.505l-2.762 1.533c-.112.062-.232.104-.353.14v-4.857l3.931-2.247c.044.153.07.311.07.474v3.451zm13.588-4.878c-.005-.008-.013-.013-.019-.021-.236-.374-.555-.697-.952-.922l-2.783-1.572c-.826-.467-1.853-.465-2.68 0l-2.773 1.57c-.852.482-1.381 1.391-1.381 2.369v3.388c0 .974.525 1.879 1.372 2.364l2.794 1.597c.416.237.883.356 1.351.356.456 0 .913-.113 1.321-.34l2.762-1.533c.864-.479 1.401-1.392 1.401-2.38v-3.451c0-.512-.151-1-.41-1.422 0-.002 0-.003-.002-.005zm-5.94-1.645c.522-.295 1.172-.296 1.695 0l2.782 1.572c.093.052.17.122.25.189l-3.874 2.214-3.877-2.215c.08-.067.157-.137.249-.189l2.773-1.571zm-2.779 7.954c-.536-.307-.868-.88-.868-1.496v-3.388c0-.164.026-.323.071-.476l3.929 2.246v4.848c-.116-.036-.231-.077-.338-.139l-2.793-1.596zm8.132-1.432c0 .625-.339 1.202-.886 1.505l-2.762 1.533c-.112.062-.232.104-.353.14v-4.857l3.931-2.247c.044.153.07.311.07.474v3.451z"/></svg>