<?xml version="1.0" encoding="UTF-8"?>
<svg xmlns="http://www.w3.org/2000/svg" id="Layer_1" data-name="Layer 1" viewBox="0 0 24 24">
  <path d="M19.5,0H4.5C2.019,0,0,2.019,0,4.5v15c0,2.481,2.019,4.5,4.5,4.5h15c2.481,0,4.5-2.019,4.5-4.5V4.5c0-2.481-2.019-4.5-4.5-4.5Zm3.5,19.5c0,1.93-1.57,3.5-3.5,3.5H4.5c-1.93,0-3.5-1.57-3.5-3.5V4.5c0-1.93,1.57-3.5,3.5-3.5h15c1.93,0,3.5,1.57,3.5,3.5v15ZM8.667,3.731c-1.287,0-2.334,1.047-2.334,2.333v2.871c0,1.287,1.047,2.333,2.334,2.333s2.333-1.047,2.333-2.333v-2.871c0-1.287-1.047-2.333-2.333-2.333Zm1.333,5.205c0,.735-.598,1.333-1.333,1.333s-1.334-.598-1.334-1.333v-2.871c0-.735,.599-1.333,1.334-1.333s1.333,.598,1.333,1.333v2.871Zm3,4.564v6c0,.276-.224,.5-.5,.5s-.5-.224-.5-.5v-6c0-.276,.224-.5,.5-.5s.5,.224,.5,.5Zm2.526-2.978l-2.026-4.632v4.61c0,.276-.224,.5-.5,.5s-.5-.224-.5-.5V4.803c0-.369,.252-.68,.613-.756,.363-.073,.718,.107,.867,.445l2.02,4.618V4.5c0-.276,.224-.5,.5-.5s.5,.224,.5,.5v5.714c0,.368-.251,.677-.611,.752-.36,.076-.714-.107-.862-.444Zm-7.624,2.478c-.937,0-1.526,.876-1.645,1.492l-1.017,4.907c-.057,.271,.117,.535,.388,.591,.263,.056,.536-.116,.591-.388l.228-1.102h2.851l.21,1.094c.052,.271,.319,.444,.585,.397,.271-.052,.449-.314,.397-.585l-.935-4.876c-.148-.76-.764-1.529-1.654-1.529Zm-1.247,4.5l.583-2.812c.039-.203,.285-.688,.664-.688,.398,0,.628,.495,.672,.719l.533,2.781h-2.452Zm12.345-2.25c0-1.241-1.01-2.25-2.25-2.25h-1.25c-.552,0-1,.449-1,1v5.5c0,.276,.224,.5,.5,.5s.5-.224,.5-.5v-2h1.25c.086,0,.167-.016,.251-.025l.799,2.196c.095,.262,.388,.393,.641,.299,.26-.094,.394-.381,.299-.641l-.794-2.181c.631-.399,1.054-1.098,1.054-1.898Zm-2.25,1.25h-1.25v-2.5h1.25c.689,0,1.25,.561,1.25,1.25s-.561,1.25-1.25,1.25Z"/>
</svg>
