<?xml version="1.0" encoding="UTF-8"?>
<svg xmlns="http://www.w3.org/2000/svg" id="Layer_1" data-name="Layer 1" viewBox="0 0 24 24">
  <path d="m19.5,0H4.5C2.019,0,0,2.019,0,4.5v15c0,2.481,2.019,4.5,4.5,4.5h15c2.481,0,4.5-2.019,4.5-4.5V4.5c0-2.481-2.019-4.5-4.5-4.5Zm3.5,19.5c0,1.93-1.57,3.5-3.5,3.5H4.5c-1.93,0-3.5-1.57-3.5-3.5V4.5c0-1.93,1.57-3.5,3.5-3.5h15c1.93,0,3.5,1.57,3.5,3.5v15Zm-11.146-9.268c-.098.098-.226.146-.354.146s-.256-.049-.354-.146l-2.939-2.939c-.063-.063-.133-.116-.207-.159v10.366c0,.276-.224.5-.5.5s-.5-.224-.5-.5V7.134c-.074.043-.144.095-.207.159l-2.939,2.939c-.195.195-.512.195-.707,0s-.195-.512,0-.707l2.939-2.939c.34-.34.914-.586,1.414-.586s1.074.246,1.414.586l2.939,2.939c.195.195.195.512,0,.707Zm9,3.535c.195.195.195.512,0,.707l-2.939,2.939c-.378.378-.88.586-1.414.586s-1.036-.208-1.414-.586l-2.939-2.939c-.195-.195-.195-.512,0-.707s.512-.195.707,0l2.939,2.939c.063.063.133.116.207.159V6.5c0-.276.224-.5.5-.5s.5.224.5.5v10.366c.074-.043.144-.095.207-.159l2.939-2.939c.195-.195.512-.195.707,0Z"/>
</svg>
