<svg id="Layer_1" viewBox="0 0 24 24" xmlns="http://www.w3.org/2000/svg" data-name="Layer 1"><path d="m19.5 9h-.5v-1c0-3.859-3.141-7-7-7s-7 3.141-7 7v1h-.5c-2.481 0-4.5 2.019-4.5 4.5v5c0 2.481 2.019 4.5 4.5 4.5h15c2.481 0 4.5-2.019 4.5-4.5v-5c0-2.481-2.019-4.5-4.5-4.5zm-13.5-1c0-3.309 2.691-6 6-6s6 2.691 6 6v1h-12zm12 2v12h-12v-12zm-17 8.5v-5c0-1.93 1.57-3.5 3.5-3.5h.5v12h-.5c-1.93 0-3.5-1.57-3.5-3.5zm22 0c0 1.93-1.57 3.5-3.5 3.5h-.5v-12h.5c1.93 0 3.5 1.57 3.5 3.5zm-13-4c0-.276.224-.5.5-.5h3c.276 0 .5.224.5.5s-.224.5-.5.5h-3c-.276 0-.5-.224-.5-.5z"/></svg>