<?xml version="1.0" encoding="UTF-8"?>
<svg xmlns="http://www.w3.org/2000/svg" id="Layer_1" data-name="Layer 1" viewBox="0 0 24 24">
  <path d="M24,4.118s-.451-1.13-.795-1.78c-.108-.205-.32-.333-.552-.337-.005,0-.009,0-.014,0-.004,0-.008,0-.013,0-.356,0-.644,.29-.639,.647,.006,.508,.028,1.133,.013,1.35-.033,.476-.235,.78-.601,.918-.31,.117-.577,.325-.775,.59-.439,.588-1.149,1.524-1.499,1.895-.213,.224-1.057,.655-1.125,.096v-1.138c0-.808-.545-1.514-1.327-1.72-.837-.22-1.901-.488-2.673-.642-2.5-.5-7.5-1-9-1H3c-.552,0-1,.448-1,1h-.241c-.453,0-.849,.305-.966,.743-.293,1.096-.792,3.164-.792,4.52v1.256c0,1.703,.698,3.689,1.511,5.171,.229,.419,.739,.609,1.174,.436,.253-.101,.536-.158,.815-.126,1.577,.179,3.492,1.104,4,2,.237,.53,.682,.974,1.283,1.021,.485,.048,1.047,.178,1.217,.517,.181,.361,.492,1.325,.816,1.716,.509,.617,1.5,.49,1.828-.255,.449-1.022,1.025-2.76,1.356-3h.987c.48,0,.936-.227,1.21-.621,.141-.204,.385-.379,.803-.379,.617,0,2,0,2,1,0,.507,.366,1.178,.711,1.647,.163,.222,.421,.353,.7,.354h.014s.003,0,.003,0c.542,0,.944-.499,.836-1.031-.058-.285-.169-.552-.309-.813-.335-.625-.658-1.234-.915-1.89-.114-.296-.098-.737,.056-1.037,.351-.669,.977-1.402,1.355-2.059,.21-.365,.55-.67,.55-1.171,0-1,.009-1.925,0-2.5-.007-.463,2-4.5,2-4.5v-.88Zm-1,.645c-2.01,4.059-2.004,4.507-2,4.75,.006,.367,0,2.485,0,2.485,0,.053-1.569,2.343-1.79,2.765-.082,.156-.145,.331-.186,.519-.082,.37-.078,.759,.007,1.104-.454-.237-1.107-.388-2.031-.388-.686,0-1.263,.287-1.625,.809-.083,.12-.228,.191-.388,.191h-.987c-.211,0-.416,.067-.587,.19-.426,.308-.683,.891-1.257,2.354-.147,.375-.293,.747-.427,1.053,.002,.038-.111,.079-.142,.019-.123-.148-.626-1.394-.692-1.526-.302-.605-.979-.963-2.013-1.065-.277-.015-.394-.304-.512-.519-.734-1.294-3.041-2.306-4.757-2.5-.423-.046-.821,.013-1.243,.169-.666-1.224-1.37-3.078-1.37-4.656v-1.256c0-.905,.276-2.458,.759-4.263h.241c.552,0,1-.448,1-1h2c1.398,0,6.372,.494,8.804,.981,.606,.121,1.51,.339,2.615,.629,.342,.09,.581,.399,.581,.752v1.138c.007,1.543,2.034,1.541,2.852,.59,.298-.316,.828-.983,1.574-1.984,.088-.117,.201-.205,.327-.253,.676-.255,1.115-.83,1.225-1.593,.008,.019,.016,.038,.023,.055v.45Z"/>
</svg>
