<svg id="Layer_1" viewBox="0 0 24 24" xmlns="http://www.w3.org/2000/svg" data-name="Layer 1"><path d="m3 13c0 1.103.897 2 2 2s2-.897 2-2-.897-2-2-2-2 .897-2 2zm3 0c0 .552-.449 1-1 1s-1-.448-1-1 .449-1 1-1 1 .448 1 1zm13.5-13h-15c-2.481 0-4.5 2.019-4.5 4.5v9c0 2.481 2.019 4.5 4.5 4.5h4c.276 0 .5-.224.5-.5s-.224-.5-.5-.5h-4c-1.93 0-3.5-1.57-3.5-3.5v-5.5h22v2.5c0 .276.224.5.5.5s.5-.224.5-.5v-6c0-2.481-2.019-4.5-4.5-4.5zm-15 1h15c1.758 0 3.204 1.308 3.449 3h-21.898c.245-1.692 1.691-3 3.449-3zm-3.5 6v-2h22v2zm16.5 4c-3.584 0-6.5 2.916-6.5 6.5s2.916 6.5 6.5 6.5 6.5-2.916 6.5-6.5-2.916-6.5-6.5-6.5zm0 12c-3.033 0-5.5-2.468-5.5-5.5s2.467-5.5 5.5-5.5 5.5 2.468 5.5 5.5-2.467 5.5-5.5 5.5zm2.854-7.646-2.146 2.146 2.146 2.146c.195.195.195.512 0 .707s-.512.195-.707 0l-2.146-2.146-2.146 2.146c-.195.195-.512.195-.707 0s-.195-.512 0-.707l2.146-2.146-2.146-2.146c-.195-.195-.195-.512 0-.707s.512-.195.707 0l2.146 2.146 2.146-2.146c.195-.195.512-.195.707 0s.195.512 0 .707z"/></svg>