<svg id="Layer_1" viewBox="0 0 24 24" xmlns="http://www.w3.org/2000/svg" data-name="Layer 1"><path d="m10 23.5c0 .276-.224.5-.5.5h-5c-2.481 0-4.5-2.019-4.5-4.5v-15c0-2.481 2.019-4.5 4.5-4.5h11c2.481 0 4.5 2.019 4.5 4.5v6c0 .276-.224.5-.5.5s-.5-.224-.5-.5v-6c0-1.93-1.57-3.5-3.5-3.5h-11c-1.93 0-3.5 1.57-3.5 3.5v15c0 1.93 1.57 3.5 3.5 3.5h5c.276 0 .5.224.5.5zm-1.075-19.354c-.195-.195-.512-.195-.707 0l-1.646 1.646-1.646-1.646c-.195-.195-.512-.195-.707 0s-.195.512 0 .707l1.646 1.646-1.646 1.646c-.195.195-.195.512 0 .707s.512.195.707 0l1.646-1.646 1.646 1.646c.195.195.512.195.707 0s.195-.512 0-.707l-1.646-1.646 1.646-1.646c.195-.195.195-.512 0-.707zm7.075 2.354c0-.276-.224-.5-.5-.5h-4c-.276 0-.5.224-.5.5s.224.5.5.5h4c.276 0 .5-.224.5-.5zm-6.854 4.427-2.447 2.447c-.134.135-.354.135-.49 0l-1.356-1.356c-.195-.195-.512-.195-.707 0s-.195.512 0 .707l1.356 1.356c.263.263.607.394.952.394s.689-.132.952-.394l2.447-2.447c.195-.195.195-.512 0-.707s-.512-.195-.707 0zm0 5.524-2.448 2.447c-.131.132-.357.131-.489 0l-1.356-1.355c-.195-.195-.512-.195-.707 0s-.195.512 0 .707l1.355 1.355c.254.255.593.395.953.395s.698-.14.952-.395l2.447-2.447c.195-.195.195-.512 0-.707s-.512-.195-.707 0zm12.091-.451.505 2h1.759c.276 0 .5.224.5.5s-.224.5-.5.5h-1.506c.086.293.135.605.131.914 0 .38-.067.739-.161 1.086h.036c1.103 0 2 .897 2 2v.5c0 .276-.224.5-.5.5s-.5-.224-.5-.5v-.5c0-.552-.449-1-1-1h-.456c-.711 1.2-2.01 1.999-3.543 2-1.535-.001-2.835-.801-3.546-2h-.455c-.551 0-1 .448-1 1v.5c0 .276-.224.5-.5.5s-.5-.224-.5-.5v-.5c0-1.103.897-2 2-2h.035c-.093-.345-.159-.701-.16-1.078-.004-.316.046-.626.132-.922h-1.507c-.276 0-.5-.224-.5-.5s.224-.5.5-.5h1.758l.503-2h-.761c-1.103 0-2-.897-2-2v-.5c0-.276.224-.5.5-.5s.5.224.5.5v.5c0 .552.449 1 1 1h1.047c.52-1.216 1.675-1.999 2.953-2 1.295 0 2.464.802 2.96 2h1.04c.551 0 1-.448 1-1v-.5c0-.276.224-.5.5-.5s.5.224.5.5v.5c0 1.103-.897 2-2 2h-.763zm-.112 3.92c-.002-.133-.006-.267-.031-.4l-1.033-4.105c-.305-.825-1.14-1.413-2.061-1.414-.92 0-1.755.589-2.076 1.464l-1.021 4.068c-.022.113-.026.252-.028.396.002 1.718 1.375 3.07 3.126 3.072 1.75-.002 3.122-1.354 3.124-3.08z"/></svg>