<?xml version="1.0" encoding="UTF-8"?>
<svg xmlns="http://www.w3.org/2000/svg" id="Layer_1" data-name="Layer 1" viewBox="0 0 24 24">
  <path d="M21.702,11.282c-.155-.229-.097-.54,.132-.695,.227-.153,.538-.097,.694,.131,.659,.967,1.104,2.04,1.322,3.188,.052,.271-.127,.533-.398,.584-.031,.006-.062,.009-.094,.009-.235,0-.444-.167-.49-.407-.192-1.013-.585-1.958-1.166-2.812Zm-7.609,11.586c-1.012-.192-1.958-.584-2.811-1.166-.229-.154-.538-.097-.695,.131-.155,.228-.097,.539,.131,.695,.968,.66,2.051,1.215,3.283,1.331,.235,0,.445-.167,.49-.407,.052-.271-.127-.533-.398-.584Zm9.359-6.359c-.269-.052-.532,.126-.584,.398-.192,1.013-.585,1.959-1.166,2.812-.155,.228-.097,.54,.132,.695,.086,.059,.184,.087,.281,.087,.159,0,.316-.076,.413-.218,.659-.967,1.104-2.04,1.322-3.189,.052-.271-.127-.533-.398-.584Zm-6.452-8.009c0,4.687-3.813,8.5-8.5,8.5-.113,0-.223-.013-.335-.017,.196,.974,.566,1.904,1.133,2.735,.155,.228,.097,.539-.132,.695-.086,.059-.184,.087-.281,.087-.159,0-.316-.076-.413-.218-.702-1.029-1.155-2.188-1.353-3.404C3.088,16.214,0,12.716,0,8.5,0,3.813,3.813,0,8.5,0c4.215,0,7.714,3.088,8.377,7.118,1.216,.198,2.375,.652,3.404,1.353,.229,.155,.287,.466,.132,.695-.155,.23-.468,.286-.694,.131-.831-.566-1.762-.937-2.736-1.133,.004,.112,.017,.222,.017,.335ZM7,15.5c0-4.687,3.813-8.5,8.5-8.5,.119,0,.235,.021,.353,.026-.687-3.432-3.722-6.026-7.353-6.026C4.364,1,1,4.364,1,8.5c0,3.631,2.594,6.666,6.026,7.353-.005-.118-.026-.234-.026-.353Zm9-7c0-.157-.014-.31-.024-.465-.159-.01-.316-.035-.476-.035-4.136,0-7.5,3.364-7.5,7.5,0,.161,.025,.317,.035,.476,.154,.01,.308,.024,.465,.024,4.136,0,7.5-3.364,7.5-7.5Zm4.413,13.333c-.155-.229-.467-.285-.695-.131-.853,.582-1.799,.974-2.811,1.166-.271,.051-.45,.313-.398,.584,.045,.24,.255,.407,.49,.407,1.36-.141,2.315-.671,3.283-1.331,.228-.156,.286-.467,.131-.695Z"/>
</svg>
