<svg id="Layer_1" viewBox="0 0 24 24" xmlns="http://www.w3.org/2000/svg" data-name="Layer 1"><path d="m23.461 17.484-8.426-14.772c-.691-1.12-1.741-1.712-3.035-1.712s-2.38.608-3.068 1.728l-8.385 14.742c-.696 1.131-.729 2.501-.089 3.666.652 1.185 1.798 1.864 3.144 1.864h16.796c1.325 0 2.5-.697 3.144-1.866.64-1.163.606-2.532-.081-3.649zm-.795 3.167c-.465.845-1.313 1.349-2.268 1.349h-16.796c-.97 0-1.797-.491-2.268-1.347-.465-.845-.441-1.839.073-2.674l8.385-14.743c.491-.797 1.275-1.236 2.208-1.236.943 0 1.677.416 2.175 1.223l8.426 14.771c.504.82.529 1.814.065 2.657zm-11.166-9.151v5c0 1.379-1.122 2.5-2.5 2.5s-2.5-1.121-2.5-2.5v-5c0-.276.224-.5.5-.5s.5.224.5.5v5c0 .827.673 1.5 1.5 1.5s1.5-.673 1.5-1.5v-5c0-.276.224-.5.5-.5s.5.224.5.5zm6.241.112-1.197 6.116c-.148.761-.769 1.271-1.544 1.271s-1.396-.511-1.544-1.271l-1.197-6.116c-.053-.271.124-.533.395-.586.274-.06.533.123.587.395l1.197 6.116c.066.341.334.463.562.463s.496-.122.562-.463l1.197-6.116c.053-.271.312-.454.587-.395.271.053.448.315.395.586z"/></svg>