<svg id="Layer_1" viewBox="0 0 24 24" xmlns="http://www.w3.org/2000/svg" data-name="Layer 1"><path d="m9.468 17.123s0 0 0 0v.002c-.209.401-.389.818-.514 1.253-.077.265.077.542.342.619.258.076.543-.075.619-.342.055-.192.142-.373.217-.559 1.109.586 2.509.905 3.803.905 1.038-.01 2.065-.135 3.056-.434.019.141.091.273.22.355.233.147.542.081.69-.152.867-1.353 1.253-3.007 1.046-4.607-.405-3.481-3.411-6.148-6.945-6.163-3.86 0-7 3.14-7 7-.007 1.344.423 2.643 1.101 3.77.15.235.461.299.69.151.232-.149.3-.458.151-.69-.03-.046-.05-.097-.079-.144.503-2.288 1.763-4.243 3.745-5.82.467.757.765 1.616.86 2.522-.826.607-1.518 1.41-2.001 2.335zm4.715.877c-1.189.054-2.563-.246-3.6-.797.396-.64.903-1.199 1.501-1.633.78.319 1.784.677 2.821.598 1.183-.074 2.164-.366 3.077-.915-.03.715-.183 1.413-.457 2.066-1.071.427-2.193.632-3.342.68zm-4.771-8.405c.813-.388 1.742-.621 2.699-.59 1.783 1.708 2.862 3.865 3.065 6.122-.968.178-1.913-.158-2.719-.486-.227-2.051-1.345-3.903-3.045-5.047zm8.51 4.488c-.556.408-1.129.688-1.762.861-.205-2.054-1.061-4.023-2.461-5.695 2.197.65 3.867 2.527 4.223 4.834zm-11.688 2.572c-.153-.534-.234-1.09-.234-1.655 0-1.974.963-3.723 2.438-4.818.601.338 1.139.765 1.584 1.273-1.828 1.445-3.096 3.188-3.788 5.199zm17.645 5.753c.181.209.156.525-.053.705-.666.572-1.524.887-2.417.887-1.239 0-2.434-.594-3.137-1.494-.703.9-1.896 1.494-3.136 1.494s-2.434-.594-3.137-1.494c-.703.9-1.897 1.494-3.136 1.494s-2.434-.594-3.136-1.494c-.703.9-1.897 1.494-3.137 1.494-.893 0-1.75-.315-2.416-.887-.209-.18-.233-.496-.054-.705.181-.209.498-.233.705-.054.485.417 1.112.646 1.765.646 1.168 0 2.315-.719 2.668-1.673.072-.196.259-.327.469-.327s.396.13.469.327c.352.954 1.499 1.673 2.667 1.673s2.314-.719 2.667-1.673c.145-.393.793-.393.937 0 .353.954 1.5 1.673 2.668 1.673s2.314-.719 2.667-1.673c.145-.393.793-.393.937 0 .353.954 1.5 1.673 2.668 1.673.653 0 1.28-.229 1.765-.646.211-.18.526-.155.705.054zm-4.379-22.408h-15c-2.481 0-4.5 2.019-4.5 4.5v13c0 .201.121.383.306.461.183.078.399.038.543-.103l2.187-2.136c-.019-.239-.036-.478-.036-.722 0-.227.017-.45.034-.673l-2.034 1.986v-4.908l2.13 2.13c.065-.393.147-.78.26-1.154l-2.045-2.045 3.098-3.098 1.3 1.301c.24-.233.495-.449.76-.654l-1.353-1.354 3.161-3.161 2.741 2.68c.312-.033.628-.051.948-.051.318 0 .633.018.942.05l2.784-2.719 3.155 3.155-1.385 1.398c.265.205.52.421.76.654l1.333-1.345 3.143 3.143-2.106 2.106c.111.376.193.764.255 1.159l2.119-2.12v4.865l-2.032-1.989c.015.213.032.425.032.642 0 .25-.017.497-.037.742l2.144 2.096c.176.144.419.223.629.103.163-.087.265-.256.265-.441v-12.998c0-2.481-2.019-4.5-4.5-4.5zm-18.5 9.267v-4.767c0-.22.026-.434.065-.643l2.671 2.674zm3.443-3.443-2.996-3c.596-1.081 1.734-1.824 3.053-1.824h1.387l1.709 1.671-3.152 3.152zm3.859-3.859-.986-.965h1.951zm3.692 3.613-2.977-2.913 1.664-1.664h2.714l1.624 1.624-3.025 2.954zm2.815-4.578h1.873l-.948.926-.926-.926zm4.776 4.776-3.143-3.143 1.672-1.633h1.387c1.308 0 2.437.73 3.038 1.796l-2.953 2.98zm3.415 3.414-2.708-2.707 2.639-2.663c.044.22.069.447.069.68z"/></svg>