<svg id="Layer_1" viewBox="0 0 24 24" xmlns="http://www.w3.org/2000/svg" data-name="Layer 1"><path d="m18 15.5v3c0 .827-.673 1.5-1.5 1.5s-1.5-.673-1.5-1.5v-3c0-.276.224-.5.5-.5s.5.224.5.5v3c0 .276.225.5.5.5s.5-.224.5-.5v-3c0-.276.224-.5.5-.5s.5.224.5.5zm6 0v4c0 2.481-2.019 4.5-4.5 4.5h-15c-2.481 0-4.5-2.019-4.5-4.5v-4c0-2.481 2.019-4.5 4.5-4.5h8.321c-1.125-1.169-1.821-2.754-1.821-4.5 0-3.584 2.916-6.5 6.5-6.5s6.5 2.916 6.5 6.5c0 2.025-.931 3.836-2.388 5.029 1.453.771 2.388 2.283 2.388 3.971zm-12-9c0 3.033 2.468 5.5 5.5 5.5s5.5-2.467 5.5-5.5-2.468-5.5-5.5-5.5-5.5 2.467-5.5 5.5zm11 9c0-1.501-.95-2.824-2.366-3.309-.93.514-1.998.809-3.134.809-1.267 0-2.447-.37-3.448-1h-9.552c-1.93 0-3.5 1.57-3.5 3.5v4c0 1.93 1.57 3.5 3.5 3.5h15c1.93 0 3.5-1.57 3.5-3.5zm-5.5-6.5c-.552 0-1 .448-1 1s.448 1 1 1 1-.448 1-1-.448-1-1-1zm-2-4c.276 0 .5-.224.5-.5 0-.444.195-.863.536-1.149.346-.29.784-.406 1.24-.326.601.105 1.094.598 1.199 1.2.114.651-.181 1.275-.753 1.591-.442.244-1.051.674-1.215 1.598-.049.272.133.531.404.58.266.049.533-.131.58-.405.071-.402.271-.654.713-.896.938-.517 1.442-1.578 1.255-2.64-.176-1.008-1.003-1.835-2.012-2.012-.733-.128-1.488.07-2.055.546-.568.477-.894 1.175-.894 1.915 0 .276.224.5.5.5zm-10.5 11.5v3c0 .276-.224.5-.5.5s-.5-.224-.5-.5v-1h-1v1c0 .276-.224.5-.5.5s-.5-.224-.5-.5v-3c0-.827.673-1.5 1.5-1.5s1.5.673 1.5 1.5zm-1 1v-1c0-.276-.225-.5-.5-.5s-.5.224-.5.5v1zm4.062-.459c-.547-.202-1.043-.42-1.056-.42-.118-.08-.114-.201-.108-.25.009-.065.057-.226.3-.299.287-.085.562-.017.762.07s.432.032.573-.134c.204-.24.137-.611-.143-.757-.361-.189-.891-.353-1.492-.172-.557.168-.95.607-1.028 1.145-.072.506.147.994.645 1.31 0 0 .562.251 1.186.481.132.049.557.229.506.516-.038.212-.3.432-.672.432-.259 0-.511-.07-.721-.194-.193-.114-.439-.078-.605.072-.256.233-.216.649.083.825.366.216.796.334 1.243.334.848 0 1.559-.542 1.693-1.287.1-.564-.154-1.297-1.168-1.672zm13 0c-.547-.202-1.043-.42-1.056-.42-.118-.08-.114-.201-.108-.25.009-.065.057-.226.3-.299.287-.085.562-.017.762.07s.432.032.573-.134c.204-.24.137-.611-.143-.757-.361-.189-.891-.353-1.492-.172-.557.168-.95.607-1.028 1.145-.072.506.147.994.645 1.31 0 0 .562.251 1.186.481.132.049.557.229.506.516-.038.212-.3.432-.672.432-.259 0-.511-.07-.721-.194-.193-.114-.439-.078-.605.072-.256.233-.216.649.083.825.366.216.796.334 1.243.334.848 0 1.559-.542 1.693-1.287.1-.564-.154-1.297-1.168-1.672zm-8.386-2.01c-.258-.097-.547.034-.644.292l-.629 1.676h-.403v-1.5c0-.276-.224-.5-.5-.5s-.5.224-.5.5v4c0 .276.224.5.5.5s.5-.224.5-.5v-1.5h.404l.628 1.676c.097.261.392.388.644.292.259-.097.39-.385.292-.644l-.684-1.824.684-1.824c.098-.259-.033-.547-.292-.644z"/></svg>