<?xml version="1.0" encoding="UTF-8"?>
<svg xmlns="http://www.w3.org/2000/svg" id="Layer_1" data-name="Layer 1" viewBox="0 0 24 24">
  <path d="M23.462,5.531c-.38-.378-.906-.569-1.435-.525-1.312,.103-5.729,.579-7.556,2.405-1.794,1.808-2.03,4.809-.233,6.724-.788,.974-1.238,2.164-1.238,3.436v1.929c0,1.93-1.57,3.5-3.5,3.5s-3.5-1.57-3.5-3.5v-7.551c2.244-.252,4-2.139,4-4.449v-2.5h.5c.276,0,.5-.224,.5-.5s-.224-.5-.5-.5h-2.5V.5c0-.276-.224-.5-.5-.5s-.5,.224-.5,.5v3.5h-3V.5c0-.276-.224-.5-.5-.5s-.5,.224-.5,.5v3.5H.5c-.276,0-.5,.224-.5,.5s.224,.5,.5,.5h.5v2.5c0,2.31,1.756,4.197,4,4.449v7.551c0,2.481,2.019,4.5,4.5,4.5s4.5-2.019,4.5-4.5v-1.929c0-1.009,.346-1.956,.955-2.74,1.894,1.734,4.849,1.463,6.636-.303,1.85-1.849,2.308-6.256,2.405-7.578,.037-.527-.157-1.044-.534-1.418ZM2,7.5v-2.5h7v2.5c0,1.93-1.57,3.5-3.5,3.5s-3.5-1.57-3.5-3.5Zm18.885,6.319c-1.235,1.225-3.103,1.521-4.659,.744-.119-.106-.31-.255-.602-.48l4.229-4.23c.195-.195,.195-.512,0-.707s-.512-.195-.707,0l-4.23,4.23c-.22-.287-.369-.475-.475-.594-.783-1.56-.489-3.429,.737-4.666,1.26-1.259,4.519-1.926,6.927-2.114,.292-.032,1.024,.372,.891,.888-.063,.868-.466,5.283-2.112,6.928Z"/>
</svg>
