<?xml version="1.0" encoding="UTF-8"?>
<svg xmlns="http://www.w3.org/2000/svg" id="Layer_1" data-name="Layer 1" viewBox="0 0 24 24">
  <path d="M16.359,9h4.299c.552,0,1.026-.317,1.237-.827,.212-.511,.101-1.07-.29-1.461l-1.805-1.805L23.854,.854c.195-.195,.195-.512,0-.707s-.512-.195-.707,0l-4.053,4.053-1.805-1.805c-.391-.391-.951-.504-1.461-.29-.51,.211-.827,.686-.827,1.237V7.641c0,.75,.609,1.359,1.359,1.359Zm-.359-5.658c0-.205,.146-.288,.21-.313,.029-.013,.078-.028,.138-.028,.07,0,.154,.022,.233,.102l4.317,4.317c.146,.146,.1,.308,.073,.371-.025,.063-.108,.21-.313,.21h-4.299c-.198,0-.359-.161-.359-.359V3.342Zm-7.827-1.237c-.51-.212-1.07-.101-1.461,.29l-1.805,1.805L.854,.146C.658-.049,.342-.049,.146,.146S-.049,.658,.146,.854L4.2,4.906l-1.806,1.806c-.391,.391-.502,.95-.291,1.461,.211,.51,.686,.827,1.238,.827H7.641c.75,0,1.359-.609,1.359-1.359V3.342c0-.552-.317-1.026-.827-1.237Zm-.173,5.536c0,.198-.161,.359-.359,.359H3.342c-.205,0-.288-.146-.314-.21-.026-.063-.071-.226,.074-.371L7.419,3.102c.079-.079,.163-.102,.233-.102,.059,0,.109,.016,.138,.028,.063,.025,.21,.108,.21,.313V7.641Zm11.8,11.453l1.805-1.805c.391-.391,.502-.95,.29-1.461-.211-.51-.686-.827-1.237-.827h-4.299c-.75,0-1.359,.609-1.359,1.359v4.299c0,.552,.317,1.026,.827,1.237,.171,.071,.348,.105,.521,.105,.346,0,.68-.136,.939-.396l1.805-1.805,4.053,4.053c.098,.098,.226,.146,.354,.146s.256-.049,.354-.146c.195-.195,.195-.512,0-.707l-4.053-4.053Zm-3.219,1.805c-.146,.146-.308,.101-.371,.073-.063-.025-.21-.108-.21-.313v-4.299c0-.198,.161-.359,.359-.359h4.299c.205,0,.288,.146,.313,.21,.026,.063,.072,.226-.073,.371l-4.317,4.317ZM7.641,15H3.342c-.552,0-1.027,.317-1.238,.827-.211,.511-.1,1.07,.291,1.461l1.806,1.806L.146,23.146c-.195,.195-.195,.512,0,.707,.098,.098,.226,.146,.354,.146s.256-.049,.354-.146l4.053-4.053,1.805,1.805c.26,.26,.594,.396,.939,.396,.174,0,.351-.034,.522-.105,.51-.211,.827-.686,.827-1.237v-4.299c0-.75-.61-1.359-1.359-1.359Zm.359,5.658c0,.205-.147,.288-.21,.313-.063,.028-.226,.072-.371-.073l-4.318-4.317c-.145-.146-.1-.308-.074-.371,.026-.063,.109-.21,.314-.21H7.641c.198,0,.359,.161,.359,.359v4.299Z"/>
</svg>
