<?xml version="1.0" encoding="UTF-8"?>
<svg xmlns="http://www.w3.org/2000/svg" id="Layer_1" data-name="Layer 1" viewBox="0 0 24 24">
  <path d="M12,0C5.383,0,0,5.383,0,12s5.383,12,12,12,12-5.383,12-12S18.617,0,12,0Zm0,23c-6.065,0-11-4.935-11-11S5.935,1,12,1s11,4.935,11,11-4.935,11-11,11Zm5.264-15.839c-.507-.255-1.102-.203-1.556,.131l-3.208,2.247v-1.043c0-.552-.303-1.04-.81-1.307-.541-.285-1.188-.248-1.703,.109l-4.643,3.491c-.414,.284-.65,.726-.65,1.211s.237,.926,.633,1.198l4.677,3.517c.276,.19,.597,.286,.92,.286,.262,0,.524-.063,.766-.19,.507-.266,.81-.755,.81-1.306v-1.043l3.202,2.243c.458,.339,1.058,.391,1.562,.135,.507-.255,.822-.767,.822-1.334v-7.008c0-.568-.315-1.08-.823-1.335Zm-.177,8.343c0,.19-.102,.355-.272,.441-.17,.085-.364,.069-.527-.053l-4-2.802c-.154-.107-.353-.12-.518-.034s-.269,.257-.269,.443v2.004c0,.25-.192,.378-.275,.421-.166,.088-.425,.123-.638-.022l-4.677-3.517c-.188-.129-.217-.298-.217-.386,0-.089,.028-.257,.234-.399l4.644-3.491c.115-.079,.236-.11,.351-.11s.221,.031,.303,.074c.083,.044,.275,.172,.275,.422v2.004c0,.187,.104,.357,.269,.443s.364,.074,.518-.034l4-2.802s.007-.005,.011-.008c.154-.113,.346-.131,.517-.045s.272,.251,.272,.442v7.008Z"/>
</svg>
