<?xml version="1.0" encoding="UTF-8"?>
<svg xmlns="http://www.w3.org/2000/svg" id="Layer_1" data-name="Layer 1" viewBox="0 0 24 24">
  <path d="M24,16.5v4c0,1.93-1.57,3.5-3.5,3.5H3.5c-1.93,0-3.5-1.57-3.5-3.5v-4c0-.276,.224-.5,.5-.5s.5,.224,.5,.5v4c0,1.379,1.121,2.5,2.5,2.5H20.5c1.379,0,2.5-1.121,2.5-2.5v-4c0-.276,.224-.5,.5-.5s.5,.224,.5,.5Zm-13.253,1.981c.334,.334,.779,.519,1.252,.519,0,0,0,0,0,0,0,0,0,0,0,0,0,0,0,0,0,0,.472,0,.916-.185,1.25-.519l4.604-4.628c.194-.195,.194-.513-.002-.707-.195-.193-.512-.195-.707,.002,0,0-4.632,4.644-4.646,4.655V.5c0-.276-.224-.5-.5-.5s-.5,.224-.5,.5V17.805c-.014-.012-4.646-4.657-4.646-4.657-.194-.197-.511-.195-.707-.002-.196,.194-.196,.511-.002,.707l4.602,4.629Z"/>
</svg>
