<?xml version="1.0" encoding="UTF-8"?>
<svg xmlns="http://www.w3.org/2000/svg" id="Layer_1" data-name="Layer 1" viewBox="0 0 24 24">
  <path d="M8.5,14c-.86-.016-1.716-.375-2.333-.986-.196-.194-.198-.511-.004-.707,.194-.197,.511-.198,.707-.004,.43,.426,1.042,.686,1.639,.697,.61-.009,1.181-.236,1.654-.713,.195-.197,.512-.198,.707-.004,.196,.194,.198,.511,.004,.707-.655,.662-1.506,1.01-2.374,1.01Zm7.298,2.475c-.017,.015-1.742,1.525-3.798,1.525s-3.781-1.511-3.798-1.525c-.207-.185-.522-.167-.706,.041-.184,.206-.166,.521,.04,.705,.081,.072,2.02,1.779,4.463,1.779s4.382-1.707,4.463-1.779c.206-.184,.224-.499,.04-.705-.184-.208-.5-.226-.706-.041Zm.865-4.188c-.473,.477-1.063,.705-1.654,.713-.596-.011-1.208-.271-1.639-.697-.196-.194-.512-.193-.707,.004-.194,.196-.192,.513,.004,.707,.617,.611,1.473,.971,2.333,.986,.868,0,1.719-.349,2.374-1.01,.194-.196,.192-.513-.004-.707-.196-.194-.513-.193-.707,.004Zm7.337-4.887V15.5c0,1.379-1.122,2.5-2.5,2.5-.111,0-.218-.019-.325-.033-1.586,3.672-5.151,6.033-9.175,6.033s-7.588-2.36-9.175-6.033c-.108,.014-.214,.033-.325,.033-1.378,0-2.5-1.121-2.5-2.5V7.399C0,5.396,.78,3.513,2.197,2.096L4.146,.146c.195-.195,.512-.195,.707,0s.195,.512,0,.707l-1.95,1.95c-1.228,1.228-1.904,2.86-1.904,4.596V15.5c0,.827,.673,1.5,1.5,1.5s1.5-.673,1.5-1.5c0,0,.009-8.037,.011-8.057,.013-.551,.199-1.099,.573-1.544l2.638-2.746c.191-.198,.507-.205,.707-.014,.199,.191,.205,.508,.014,.707l-2.616,2.721c-.226,.27-.336,.615-.328,.962v.004c.009,.347,.135,.694,.382,.97,.55,.614,1.499,.667,2.113,.116l2.729-2.512c1.128-1.039,1.776-2.514,1.776-4.047V.5c0-.276,.224-.5,.5-.5s.5,.224,.5,.5v1.559c0,.814-.162,1.61-.452,2.356,.303,.638,.707,1.212,1.228,1.692l2.734,2.516c.61,.547,1.558,.495,2.108-.12,.494-.551,.507-1.394,.032-1.96l-2.593-2.695c-.191-.199-.185-.516,.014-.707,.2-.191,.516-.185,.707,.014l2.616,2.721c.38,.451,.586,.997,.607,1.544,.005,.028,0,8.082,0,8.082,0,.827,.673,1.5,1.5,1.5s1.5-.673,1.5-1.5V7.399c0-1.736-.676-3.369-1.904-4.596l-1.95-1.95c-.195-.195-.195-.512,0-.707s.512-.195,.707,0l1.95,1.95c1.417,1.417,2.197,3.3,2.197,5.303Zm-3.785,10.234c-.725-.438-1.215-1.226-1.215-2.133v-6.004c-.44,.331-.967,.503-1.498,.503-.593,0-1.188-.21-1.664-.636l-2.739-2.521c-.43-.396-.794-.847-1.1-1.336-.305,.488-.669,.941-1.098,1.336l-2.734,2.516c-.479,.429-1.076,.64-1.671,.64-.53,0-1.056-.172-1.496-.502v6.004c0,.907-.49,1.695-1.215,2.133,1.443,3.265,4.619,5.367,8.215,5.367s6.772-2.102,8.215-5.367Z"/>
</svg>
