<svg id="Layer_1" viewBox="0 0 24 24" xmlns="http://www.w3.org/2000/svg" data-name="Layer 1"><path d="m20.492 19.66-.671-.489.701-1.022c.258-.376.264-.87.016-1.253l-.248-.383c-.208-.321-.565-.515-.948-.515h-.886l-1.37-3.692c-.092-.249-.269-.457-.499-.59l-.14-.081c-.219-.126-.389-.321-.485-.555l-.123-.3c-.085-.208-.231-.387-.417-.513-.215-.145-.375-.359-.451-.607l-.267-.863c-.147-.476-.588-.801-1.086-.801h-.756c-.428 0-.6-.553-.247-.796.204-.14.251-.422.102-.621l-.01-.014c-.149-.2-.101-.483.105-.623l1.713-1.156c.27-.182.432-.486.432-.812 0-.541-.439-.979-.979-.979h-3.687c-.184 0-.333-.149-.333-.333 0-.105.049-.204.133-.267l1.6-1.2c.168-.126.267-.323.267-.533-.001-.365-.3-.664-.668-.664-.473 0-.94.105-1.367.307l-.861.407c-.392.185-.711.497-.905.885l-.201.401-.587.308c-.366.192-.672.479-.888.831-.308.505-.231 1.156.188 1.574l.287.287-.293.293c-.453.453-.707 1.067-.707 1.707 0 .552.448 1 1 1v1l.928 1.237c.36.48.926.763 1.526.763h.461c.599 0 1.085.486 1.085 1.085v.415l.871 1.307c.084.126.129.274.129.426 0 .424-.344.768-.768.768h-1.5c-.405 0-.733.328-.733.733-.006.144.009.293.077.422l.423.845-1.174.782c-.204.136-.326.365-.326.61 0 .352.251.655.597.72l.188.035c.597.112 1.132.441 1.502.923l.165.216c.222.29.015.708-.349.708h-.18s-.007-.001-.01-.001c-.551 0-1.057.309-1.308.8l-.106.207h-.882c-.341 0-.618.277-.618.618 0 .234.132.448.342.553l1.136.568c.344.172.723.261 1.107.261h.492c.592 0 1.159-.235 1.577-.653l.347-.347h.882c.685 0 1.312-.387 1.618-1h4l1.592-.318c.528-.106.908-.569.908-1.107 0-.361-.172-.7-.464-.913zm-.64 1.039-1.495.299h-3.901c-.379 0-.725.214-.894.553-.138.276-.415.447-.724.447h-.882c-.265 0-.52.105-.707.293l-.347.347c-.232.232-.541.36-.87.36h-.492c-.205 0-.41-.044-.598-.126.17-.095.311-.238.403-.418l.106-.207c.081-.158.241-.256.421-.256h.186c.552.001 1.047-.307 1.291-.802s.187-1.075-.149-1.513l-.165-.216c-.431-.562-1.02-.975-1.687-1.19l.661-.441c.42-.28.565-.828.34-1.279l-.276-.553h1.114c.975 0 1.768-.793 1.768-1.768 0-.35-.103-.689-.297-.98l-.703-1.055c.058-1.187-.892-2.201-2.085-2.197h-.461c-.284 0-.556-.136-.726-.363l-.728-.97v-.667c0-.552-.448-1-1-1 0-.378.147-.733.414-1l.293-.293c.391-.391.391-1.024 0-1.414l-.287-.287c-.092-.092-.109-.235-.041-.346.121-.198.293-.359.498-.467l.587-.308c.186-.097.336-.251.43-.439l.201-.401c.083-.166.215-.304.375-.396-.296.252-.47.626-.47 1.016 0 .735.598 1.333 1.333 1.333l3.676-.038-1.713 1.156c-.324.219-.547.565-.613.951-.038.223-.021.451.047.667-.252.356-.332.816-.197 1.253.188.604.739 1.01 1.372 1.01h.756c.06 0 .113.039.131.096l.267.863c.144.464.445.869.848 1.141.023.015.04.037.05.062l.123.3c.179.437.502.807.911 1.042.051.035.183.083.2.151l1.37 3.692c.145.392.519.652.938.652h.886c.044 0 .085.022.108.059l.248.383c.029.044.028.1-.002.143l-.701 1.022c-.306.446-.202 1.055.236 1.374l.671.489c.033.024.053.063.053.104 0 .061-.044.115-.104.127zm-13.242-9.394c.198.396.07.877-.298 1.123l-.432.288c-.262.175-.598.196-.879.055l-.219-.11c-.208-.104-.449-.121-.67-.048-.568.189-1.155-.234-1.155-.833v-.05c0-.303.156-.585.414-.745l1.373-.855c.139-.087.3-.133.464-.133h.207c.332 0 .636.188.785.485l.411.822zm-3.357-7.363c-.172-.258-.138-.602.081-.822l.432-.432c.122-.122.191-.288.191-.461v-.96c0-.173.069-.338.191-.461l.618-.618c.122-.122.288-.191.461-.191h1.079c.36 0 .651.292.651.651v.079c0 .173-.069.338-.191.461l-1.618 1.618c-.122.122-.191.288-.191.461v1.079c0 .36-.292.651-.651.651-.218 0-.421-.109-.542-.29l-.51-.766z"/></svg>