<svg id="Layer_1" viewBox="0 0 24 24" xmlns="http://www.w3.org/2000/svg" data-name="Layer 1"><path d="m12 3.5c0-1.93-1.57-3.5-3.5-3.5-1.909 0-3.467 1.537-3.5 3.439-1.477.318-3 1.392-3 3.561v.476c-1.328.884-2 2.055-2 3.483 0 .987.314 1.929.949 2.779-.581.753-.896 1.668-.896 2.622 0 1.703.98 3.21 2.52 3.912.477 2.144 2.438 3.728 4.677 3.728 2.36 0 4.75-1.546 4.75-4.5 0 0 .006-4.037 0-16zm-1 15.977v.023c0 2.298-1.887 3.5-3.75 3.5-1.848 0-3.457-1.359-3.743-3.163-.028-.177-.148-.325-.315-.389-1.299-.496-2.139-1.708-2.139-3.088 0-.853.329-1.665.927-2.289.093-.097.143-.228.139-.362s-.062-.262-.162-.353c-.654-.624-.944-1.536-.957-2.397 0-1.155.575-2.064 1.759-2.781.15-.091.241-.253.241-.428v-.751c0-1.743 1.338-2.509 2.59-2.645.133-.014.254-.082.337-.186s.121-.238.105-.37c-.228-1.467.997-2.811 2.467-2.799 1.378 0 2.5 1.122 2.5 2.5.003 5.379.007 15.598 0 15.977zm13-9.477c0 2.324-1.01 4.529-2.772 6.051-.78.675-1.228 1.642-1.228 2.653 0 1.817-1.479 3.296-3.296 3.296h-2.204c-.276 0-.5-.224-.5-.5s.224-.5.5-.5h2.204c1.266 0 2.296-1.03 2.296-2.296 0-.239.04-.471.077-.704h-4.577c-.276 0-.5-.224-.5-.5s.224-.5.5-.5h1v-6.051c-1.14-.232-2-1.242-2-2.449 0-.276.224-.5.5-.5s.5.224.5.5c0 .827.673 1.5 1.5 1.5s1.5-.673 1.5-1.5c0-.276.224-.5.5-.5s.5.224.5.5c0 1.208-.86 2.217-2 2.45v6.05h2.856c.268-.645.673-1.235 1.219-1.706 1.541-1.331 2.425-3.261 2.425-5.294 0-3.86-3.14-7-7-7-.471 0-.942.047-1.401.14-.269.058-.534-.12-.589-.391s.121-.534.391-.589c.524-.106 1.062-.16 1.599-.16 4.411 0 8 3.589 8 8z"/></svg>