<svg id="Layer_1" viewBox="0 0 24 24" xmlns="http://www.w3.org/2000/svg" data-name="Layer 1"><path d="m8 17.5v-1c0-.827-.673-1.5-1.5-1.5h-1.5c-.552 0-1-.449-1-1v-2c0-.551.448-1 1-1h3.5c.276 0 .5.224.5.5s-.224.5-.5.5h-3.5v2h1.5c1.379 0 2.5 1.122 2.5 2.5v1c0 1.378-1.121 2.5-2.5 2.5s-2.5-1.122-2.5-2.5c0-.276.224-.5.5-.5s.5.224.5.5c0 .827.673 1.5 1.5 1.5s1.5-.673 1.5-1.5zm16-11v13c0 2.481-2.019 4.5-4.5 4.5h-15c-2.481 0-4.5-2.019-4.5-4.5v-13c0-2.481 2.019-4.5 4.5-4.5h1.5v-1.5c0-.276.224-.5.5-.5s.5.224.5.5v1.5h10v-1.5c0-.276.224-.5.5-.5s.5.224.5.5v1.5h1.5c2.481 0 4.5 2.019 4.5 4.5zm-12.5 1.5h-10.5v11.5c0 1.93 1.57 3.5 3.5 3.5h7zm11.5 0h-10.5v15h7c1.93 0 3.5-1.57 3.5-3.5zm0-1.5c0-1.93-1.57-3.5-3.5-3.5h-15c-1.93 0-3.5 1.57-3.5 3.5v.5h22zm-8 11v-4c0-1.378 1.121-2.5 2.5-2.5s2.5 1.122 2.5 2.5v4c0 1.378-1.121 2.5-2.5 2.5s-2.5-1.122-2.5-2.5zm1 0c0 .827.673 1.5 1.5 1.5s1.5-.673 1.5-1.5v-4c0-.827-.673-1.5-1.5-1.5s-1.5.673-1.5 1.5z"/></svg>