<svg id="Layer_1" viewBox="0 0 24 24" xmlns="http://www.w3.org/2000/svg" data-name="Layer 1"><path d="m19 21c0 .552-.448 1-1 1s-1-.448-1-1 .448-1 1-1 1 .448 1 1zm1.999-10h-6c-1.653.002-2.999 1.349-2.999 3.002l.002 8.772c0 .399.205.752.548.942.36.199.788.184 1.139-.037l2.094-1.443c.228-.157.285-.469.128-.696-.156-.227-.467-.283-.695-.128l-2.077 1.433c-.025.016-.074.016-.14-.07v-8.773c0-1.103.897-2 1.999-2.002h6c1.104 0 2.001.897 2.001 2v4.999c0 1.103-.897 2-2 2h-.5c-.276 0-.5.224-.5.5s.224.5.5.5h.5c1.654 0 3-1.346 3-3v-4.999c0-1.654-1.346-3-3.001-3zm-.565 3.917c-.209-.915-.936-1.642-1.851-1.851-.763-.174-1.541 0-2.14.479-.599.478-.942 1.19-.942 1.955 0 .276.224.5.5.5s.5-.224.5-.5c0-.459.206-.887.566-1.174.365-.29.823-.391 1.294-.285.535.122.977.563 1.099 1.099.154.674-.143 1.348-.736 1.676-.766.422-1.223 1.154-1.223 1.96v.225c0 .276.224.5.5.5s.5-.224.5-.5v-.225c0-.436.264-.841.706-1.085.988-.545 1.482-1.66 1.228-2.773zm-9.434-9.417v2c0 1.704-.779 3.229-2 4.239v8.761c0 1.93-1.57 3.5-3.5 3.5s-3.5-1.57-3.5-3.5v-8.761c-1.221-1.01-2-2.535-2-4.239v-2c0-3.032 2.467-5.5 5.5-5.5s5.5 2.468 5.5 5.5zm-3 6.893c-.751.385-1.599.607-2.5.607s-1.749-.222-2.5-.607v8.107c0 1.379 1.122 2.5 2.5 2.5s2.5-1.121 2.5-2.5zm2-5.393h-9v.5c0 2.481 2.019 4.5 4.5 4.5s4.5-2.019 4.5-4.5zm0-1.5c0-2.481-2.019-4.5-4.5-4.5s-4.5 2.019-4.5 4.5v.5h9z"/></svg>