<svg id="Layer_1" viewBox="0 0 24 24" xmlns="http://www.w3.org/2000/svg" data-name="Layer 1"><path d="m20.917 18.616-3.917-1.299v-3.817c0-.827-.673-1.5-1.5-1.5s-1.5.673-1.5 1.5v5.791l-1.024-.874c-.36-.301-.824-.452-1.324-.41-.483.045-.92.274-1.23.646-.312.372-.459.844-.415 1.329.044.483.274.92.637 1.224l3.045 2.67c.206.181.523.162.706-.046.182-.208.161-.524-.046-.706l-3.054-2.678c-.168-.141-.271-.338-.292-.555-.02-.218.046-.43.187-.598s.337-.271.544-.29c.231-.018.442.047.597.177l1.341 1.146c.242.208.572.252.86.118.289-.134.468-.414.468-.731v-6.213c0-.275.224-.5.5-.5s.5.225.5.5v4.179c0 .216.138.407.343.475l4.259 1.412c1.435.476 2.398 1.812 2.398 3.322v.612c0 .276.224.5.5.5s.5-.224.5-.5v-.612c0-1.943-1.239-3.659-3.083-4.271z"/><path d="m9 13c2.206 0 4-1.794 4-4 0-2.035-1.532-3.7-3.5-3.949v-4.025c3.857.252 6.868 3.076 7.436 6.941.071.663.085 1.325.01 1.976-.032.273.164.522.438.555.288.032.523-.165.555-.439.085-.729.082-1.475-.011-2.214-.036-.286-.089-.566-.152-.844h1.724c1.103 0 2 .897 2 2v1.071c-.86.224-1.5 1-1.5 1.929 0 1.103.897 2 2 2s2-.897 2-2c0-.929-.64-1.705-1.5-1.929v-1.071c0-1.654-1.346-3-3-3h-2.019c-1.128-3.168-4.016-5.557-7.44-5.942-.345-.039-.688-.056-1.029-.056-5.012-.001-9.012 3.997-9.012 8.997 0 4.228 2.919 7.854 7 8.777v1.723c0 1.103-.897 2-2 2h-1.071c-.224-.86-1-1.5-1.929-1.5-1.103 0-2 .897-2 2s.897 2 2 2c.929 0 1.705-.64 1.929-1.5h1.071c1.654 0 3-1.346 3-3v-2.132c0-.242-.174-.45-.412-.492-3.652-.651-6.339-3.712-6.566-7.376h4.029c.249 1.968 1.915 3.5 3.949 3.5zm13-2c.551 0 1 .448 1 1s-.449 1-1 1-1-.448-1-1 .449-1 1-1zm-20 12c-.551 0-1-.448-1-1s.449-1 1-1 1 .448 1 1-.449 1-1 1zm7-17c1.654 0 3 1.346 3 3s-1.346 3-3 3-3-1.346-3-3 1.346-3 3-3zm-5.33-2.966c1.362-1.219 3.041-1.906 4.83-2.012v4.029c-1.802.228-3.221 1.647-3.449 3.449h-4.024c.132-2.09 1.072-4.061 2.644-5.466z"/></svg>