<svg id="Layer_1" viewBox="0 0 24 24" xmlns="http://www.w3.org/2000/svg" data-name="Layer 1"><path d="m21.488 13h-1.488c-.551 0-1 .448-1 1v6c0 .552.449 1 1 1h1.5c1.378 0 2.5-1.121 2.5-2.5v-2.987c0-1.386-1.127-2.513-2.512-2.513zm1.512 5.5c0 .827-.673 1.5-1.5 1.5h-1.5v-6h1.488c.834 0 1.512.679 1.512 1.513zm-16-5.5c-.551 0-1 .448-1 1v6.5c0 .276.224.5.5.5s.5-.224.5-.5v-2.5h1c1.378 0 2.5-1.121 2.5-2.5s-1.122-2.5-2.5-2.5zm2.5 2.5c0 .827-.673 1.5-1.5 1.5h-1v-3h1c.827 0 1.5.673 1.5 1.5zm8.5-2v7c0 .276-.224.5-.5.5s-.5-.224-.5-.5v-7c0-.276.224-.5.5-.5s.5.224.5.5zm-6.51 7.48h.018c.235.001.438-.163.485-.392l.323-1.589h2.376l.333 1.61c.047.226.247.389.48.39.312.002.546-.282.485-.585l-1.28-6.296c-.094-.459-.477-1.119-1.214-1.119s-1.126.689-1.207 1.088l-1.279 6.308c-.061.302.17.583.48.585zm1.787-6.696c.024-.118.085-.284.219-.284s.189.132.227.316l.763 3.683h-1.965l.757-3.715zm3.724 9.215c0 .276-.224.5-.5.5h-12.001c-2.481.001-4.5-2.018-4.5-4.499v-15c0-2.481 2.019-4.5 4.5-4.5h11c2.481 0 4.5 2.019 4.5 4.5v6c0 .276-.224.5-.5.5s-.5-.224-.5-.5v-6c0-1.93-1.57-3.5-3.5-3.5h-11c-1.93 0-3.5 1.57-3.5 3.5v15c0 1.93 1.57 3.5 3.5 3.5h12c.276 0 .5.224.5.5zm-1-19c0 .276-.224.5-.5.5h-11.001c-.276 0-.5-.224-.5-.5s.224-.5.5-.5h11c.276 0 .5.224.5.5zm0 3c0 .276-.224.5-.5.5h-11.001c-.276 0-.5-.224-.5-.5s.224-.5.5-.5h11c.276 0 .5.224.5.5zm-4.5 3.5h-7.001c-.276 0-.5-.224-.5-.5s.224-.5.5-.5h7c.276 0 .5.224.5.5s-.224.5-.5.5z"/></svg>