<?xml version="1.0" encoding="UTF-8"?>
<svg xmlns="http://www.w3.org/2000/svg" id="Layer_1" data-name="Layer 1" viewBox="0 0 24 24">
  <path d="M18,8c2.206,0,4-1.794,4-4S20.206,0,18,0s-4,1.794-4,4,1.794,4,4,4Zm0-7c1.654,0,3,1.346,3,3s-1.346,3-3,3-3-1.346-3-3,1.346-3,3-3ZM8,11c0,2.206,1.794,4,4,4s4-1.794,4-4-1.794-4-4-4-4,1.794-4,4Zm4-3c1.654,0,3,1.346,3,3s-1.346,3-3,3-3-1.346-3-3,1.346-3,3-3Zm-6,0c2.206,0,4-1.794,4-4S8.206,0,6,0,2,1.794,2,4s1.794,4,4,4Zm0-7c1.654,0,3,1.346,3,3s-1.346,3-3,3-3-1.346-3-3,1.346-3,3-3ZM23.5,23h-5.5c0-3.309-2.691-6-6-6s-6,2.691-6,6H.5c-.276,0-.5,.224-.5,.5s.224,.5,.5,.5H23.5c.276,0,.5-.224,.5-.5s-.224-.5-.5-.5Zm-11.5-5c2.757,0,5,2.243,5,5H7c0-2.757,2.243-5,5-5Zm12-2v.5c0,.276-.224,.5-.5,.5s-.5-.224-.5-.5v-.5c0-2.605-1.954-4.746-4.545-4.979-.275-.024-.478-.268-.453-.543s.267-.478,.543-.453c3.11,.28,5.455,2.85,5.455,5.976ZM0,16.5v-.5c0-3.126,2.345-5.695,5.455-5.976,.268-.022,.519,.178,.543,.453s-.178,.519-.453,.543c-2.591,.233-4.545,2.374-4.545,4.979v.5c0,.276-.224,.5-.5,.5s-.5-.224-.5-.5Z"/>
</svg>
