<?xml version="1.0" encoding="UTF-8"?>
<svg xmlns="http://www.w3.org/2000/svg" id="Layer_1" data-name="Layer 1" viewBox="0 0 24 24">
  <path d="M14.5,17H1V4.5c0-1.93,1.57-3.5,3.5-3.5H12.5c.276,0,.5-.224,.5-.5s-.224-.5-.5-.5H4.5C2.019,0,0,2.019,0,4.5v15c0,2.481,2.019,4.5,4.5,4.5h7c2.481,0,4.5-2.019,4.5-4.5v-1c0-.827-.673-1.5-1.5-1.5Zm.5,2.5c0,1.93-1.57,3.5-3.5,3.5H4.5c-1.93,0-3.5-1.57-3.5-3.5v-1.5H14.5c.275,0,.5,.225,.5,.5v1Zm-5,1c0,.276-.224,.5-.5,.5h-3c-.276,0-.5-.224-.5-.5s.224-.5,.5-.5h3c.276,0,.5,.224,.5,.5ZM20.5,3.001h-4.999c-.933,0-1.811,.364-2.474,1.027-.662,.663-1.027,1.541-1.027,2.473v6.911c.001,.589,.31,1.108,.827,1.392,.242,.132,.502,.198,.762,.198,.296,0,.591-.085,.855-.255l2.702-1.747h3.353c1.93,0,3.5-1.57,3.5-3.5v-2.999c0-1.93-1.57-3.5-3.5-3.5Zm2.5,6.499c0,1.379-1.121,2.5-2.5,2.5h-3.5c-.097,0-.19,.027-.271,.08l-2.824,1.826c-.185,.118-.408,.125-.597,.021-.191-.105-.306-.297-.306-.515V6.501c-.002-.665,.259-1.292,.733-1.766,.474-.475,1.101-.735,1.766-.735h4.999c1.379,0,2.5,1.122,2.5,2.501v2.999Zm-3.75-4c-.489,0-.932,.216-1.25,.564-.318-.349-.761-.564-1.25-.564-.965,0-1.75,.841-1.75,1.875,0,1.276,1.411,2.736,2.156,3.329,.249,.198,.546,.298,.844,.298s.595-.1,.844-.298c.746-.594,2.156-2.053,2.156-3.329,0-1.034-.785-1.875-1.75-1.875Zm-1.03,4.422s0,0,0,0c-.129,.104-.31,.104-.438,0-.746-.593-1.78-1.809-1.78-2.547,0-.482,.337-.875,.75-.875s.75,.393,.75,.875c0,.276,.224,.5,.5,.5s.5-.224,.5-.5c0-.482,.337-.875,.75-.875s.75,.393,.75,.875c0,.738-1.034,1.954-1.78,2.547Z"/>
</svg>
