<svg id="Layer_1" viewBox="0 0 24 24" xmlns="http://www.w3.org/2000/svg" data-name="Layer 1"><path d="m13.5 5c1.379 0 2.5-1.122 2.5-2.5s-1.121-2.5-2.5-2.5-2.5 1.122-2.5 2.5 1.121 2.5 2.5 2.5zm0-4c.827 0 1.5.673 1.5 1.5s-.673 1.5-1.5 1.5-1.5-.673-1.5-1.5.673-1.5 1.5-1.5zm10.5 1v20c0 1.103-.897 2-2 2h-1c-1.103 0-2-.897-2-2v-7.5c0-.276.224-.5.5-.5s.5.224.5.5v7.5c0 .551.448 1 1 1h1c.552 0 1-.449 1-1v-20c0-.551-.448-1-1-1h-1c-.552 0-1 .449-1 1v9.524c0 .276-.224.5-.5.5h-1.367c-.873 0-1.694-.465-2.144-1.214-.078-.101-1.806-3.067-1.904-3.146l-2.337 6.021c-.099.26-.396.384-.646.286-.258-.1-.386-.39-.285-.647l2.426-6.25c-.121-.031-.246-.049-.373-.049h-2.572l-2.195 5.656c-.28.684-.033 1.457.583 1.846l4.102 2.462c.748.449 1.213 1.27 1.213 2.144v4.368c0 .276-.224.5-.5.5s-.5-.224-.5-.5v-4.368c0-.524-.279-1.017-.728-1.286l-4.112-2.468c-1.036-.655-1.447-1.943-.986-3.067l2.052-5.286h-1.479c-.572 0-1.086.318-1.342.829l-1.447 2.895c-.124.248-.422.346-.671.224-.247-.124-.347-.424-.224-.671l1.447-2.895c.426-.853 1.283-1.382 2.236-1.382h5.123c.874 0 1.695.465 2.145 1.215l1.833 3.056c.27.45.763.729 1.286.729h.867v-9.026c0-1.103.897-2 2-2h1c1.103 0 2 .897 2 2zm-24 1.5c0-.276.224-.5.5-.5h4.101l-2.147-2.146c-.195-.195-.195-.512 0-.707s.512-.195.707 0l2.476 2.476c.251.243.363.634.363.878s-.112.635-.363.877l-2.476 2.476c-.195.195-.512.195-.707 0s-.195-.512 0-.707l2.146-2.146h-4.1c-.276 0-.5-.224-.5-.5zm4.811 11.269c-.239-.225-.575-.318-.9-.245-.32.071-.582.294-.702.596-.196.495-.266.996-.328 1.439-.124.895-.194.94-.333.951-.086-.054-.222-.357-.275-.611-.037-.181-.172-.328-.35-.379-.18-.052-.37 0-.499.131-.687.709-1.423 2.223-1.423 3.348-.01 2.232 1.821 4 4 4 2.166 0 4.01-1.768 4-4 0-1.482-1.073-3.242-3.189-5.231zm-.104 7.938c-.391.39-1.023.39-1.414 0-.39-.39-.39-1.025.016-1.432l.691-.759.707.776c.388.372.388 1.043 0 1.415zm1.27-.468c.096-.599-.134-1.227-.546-1.637l-.729-.802c-.006-.006-.012-.012-.017-.018-.376-.375-.991-.375-1.384.017l-.715.785c-.451.451-.633 1.065-.562 1.654-.623-.55-1.024-1.345-1.024-2.239 0-.581.3-1.379.66-1.993.187.27.456.493.84.493 1.119 0 1.265-1.042 1.371-1.803.057-.406.115-.825.255-1.199 1.88 1.767 2.874 3.323 2.874 4.502 0 .894-.401 1.689-1.023 2.239z"/></svg>