<svg id="Layer_1" viewBox="0 0 24 24" xmlns="http://www.w3.org/2000/svg" data-name="Layer 1"><path d="m19.767 11.767c-.53-.443-1.03-.863-1.413-1.246-.19-.209-.552-.189-.731.026-.851.983-1.134 2.09-1.361 2.98-.274 1.076-.397 1.347-.8 1.347-.247 0-.46-.825-.461-1.5.013-.435-.565-.67-.859-.348-.977 1.008-2.141 2.689-2.141 4.973 0 3.309 2.691 6 6 6s6-2.691 6-6c0-2.688-2.347-4.653-4.233-6.233zm-.353 10.647c-.379.38-.914.581-1.371.581-.543 0-1.057-.181-1.457-.581-.78-.781-.78-2.05 0-2.83l1.415-1.415 1.414 1.415c.78.781.78 2.05 0 2.83zm1.347-.252c.457-1.091.245-2.398-.64-3.285l-1.768-1.768c-.186-.194-.521-.194-.707 0l-1.768 1.768c-.886.886-1.098 2.193-.64 3.285-1.347-.897-2.238-2.426-2.238-4.162 0-1.415.533-2.567 1.149-3.428.197.724.605 1.303 1.312 1.303 1.233 0 1.505-1.067 1.769-2.1.176-.688.371-1.453.832-2.153.324.293.687.597 1.063.912 1.727 1.446 3.875 3.246 3.875 5.466 0 1.736-.891 3.266-2.238 4.162zm-.762-12.662v-3.5c0-.902-.699-1-1-1h-2c-.551 0-1 .449-1 1v3.5c0 .276-.224.5-.5.5s-.5-.224-.5-.5v-3.5c0-1.103.897-2 2-2h2c1.196 0 2 .804 2 2v3.5c0 .276-.224.5-.5.5s-.5-.224-.5-.5zm4-5v7.5c0 .276-.224.5-.5.5s-.5-.224-.5-.5v-7.5c0-1.93-1.57-3.5-3.5-3.5h-7v11.5c0 .276-.224.5-.5.5s-.5-.224-.5-.5v-11.5h-6.999c-1.93 0-3.5 1.57-3.5 3.5v15c0 1.93 1.57 3.5 3.5 3.5h7c.276 0 .5.224.5.5s-.224.5-.5.5h-7c-2.481 0-4.5-2.019-4.5-4.5v-15c0-2.481 2.019-4.5 4.5-4.5h15c2.481 0 4.5 2.019 4.5 4.5zm-15 5.5v-4c0-1.103-.897-2-2-2h-2c-1.103 0-2 .897-2 2v4c0 1.103.897 2 2 2h2c1.103 0 2-.897 2-2zm-1 0c0 .551-.449 1-1 1h-2c-.551 0-1-.449-1-1v-4c0-.551.449-1 1-1h2c.551 0 1 .449 1 1zm0 4.5c0-.276.224-.5.5-.5h2c.276 0 .5.224.5.5s-.224.5-.5.5h-2c-.276 0-.5-.224-.5-.5z"/></svg>