<svg id="Layer_1" viewBox="0 0 24 24" xmlns="http://www.w3.org/2000/svg" data-name="Layer 1"><path d="m19.786 13.811c.448.425 1.05.689 1.714.689 1.379 0 2.5-1.121 2.5-2.5s-1.121-2.5-2.5-2.5c-.665 0-1.266.265-1.714.689-.305-1.311-.932-2.497-1.795-3.473l1.276-1.276c.49.349 1.086.56 1.733.56 1.654 0 3-1.346 3-3s-1.346-3-3-3-3 1.346-3 3c0 .647.21 1.243.56 1.733l-1.276 1.276c-.977-.863-2.162-1.49-3.473-1.795.425-.448.689-1.05.689-1.714 0-1.379-1.121-2.5-2.5-2.5s-2.5 1.121-2.5 2.5c0 .665.265 1.266.689 1.714-1.311.305-2.497.932-3.473 1.795l-1.276-1.276c.349-.49.56-1.086.56-1.733 0-1.654-1.346-3-3-3s-3 1.346-3 3 1.346 3 3 3c.647 0 1.243-.21 1.733-.56l1.276 1.276c-.863.977-1.49 2.162-1.795 3.473-.448-.425-1.05-.689-1.714-.689-1.379 0-2.5 1.121-2.5 2.5s1.121 2.5 2.5 2.5c.665 0 1.266-.265 1.714-.689.305 1.311.932 2.497 1.795 3.473l-1.276 1.276c-.49-.349-1.086-.56-1.733-.56-1.654 0-3 1.346-3 3s1.346 3 3 3 3-1.346 3-3c0-.647-.21-1.243-.56-1.733l1.276-1.276c.977.863 2.162 1.49 3.473 1.795-.425.448-.689 1.05-.689 1.714 0 1.379 1.121 2.5 2.5 2.5s2.5-1.121 2.5-2.5c0-.665-.265-1.266-.689-1.714 1.311-.305 2.497-.932 3.473-1.795l1.276 1.276c-.349.49-.56 1.086-.56 1.733 0 1.654 1.346 3 3 3s3-1.346 3-3-1.346-3-3-3c-.647 0-1.243.21-1.733.56l-1.276-1.276c.863-.977 1.49-2.162 1.795-3.473zm1.714-3.311c.827 0 1.5.673 1.5 1.5s-.673 1.5-1.5 1.5-1.5-.673-1.5-1.5.673-1.5 1.5-1.5zm-.5-9.5c1.103 0 2 .897 2 2s-.897 2-2 2c-.551 0-1.05-.224-1.412-.585v-.001s-.001 0-.001 0c-.361-.362-.585-.861-.585-1.412 0-1.103.897-2 2-2zm-10.5 1.5c0-.827.673-1.5 1.5-1.5s1.5.673 1.5 1.5-.673 1.5-1.5 1.5-1.5-.673-1.5-1.5zm-9.5.5c0-1.103.897-2 2-2s2 .897 2 2-.897 2-2 2-2-.897-2-2zm1.5 10.5c-.827 0-1.5-.673-1.5-1.5s.673-1.5 1.5-1.5 1.5.673 1.5 1.5-.673 1.5-1.5 1.5zm.5 9.5c-1.103 0-2-.897-2-2s.897-2 2-2 2 .897 2 2-.897 2-2 2zm10.5-1.5c0 .827-.673 1.5-1.5 1.5s-1.5-.673-1.5-1.5.673-1.5 1.5-1.5 1.5.673 1.5 1.5zm-1.5-2.5c-3.859 0-7-3.141-7-7s3.141-7 7-7 7 3.141 7 7-3.141 7-7 7zm11 2c0 1.103-.897 2-2 2s-2-.897-2-2 .897-2 2-2 2 .897 2 2zm-5-11.5v4.871c0 .302-.206.554-.501.613-.291.058-.584-.091-.702-.37l-1.297-3.114v3c0 .276-.224.5-.5.5s-.5-.224-.5-.5v-4.871c0-.302.206-.554.501-.613.288-.062.583.09.702.37l1.297 3.114v-3c0-.276.224-.5.5-.5s.5.224.5.5zm-6.25-.5h-.5c-.552 0-1 .448-1 1v4c0 .552.448 1 1 1h.5c1.103 0 2-.897 2-2v-2c0-1.103-.897-2-2-2zm1 4c0 .552-.448 1-1 1h-.5v-4h.5c.552 0 1 .448 1 1zm-5.75-2.25v2.5c0 .413.337.75.75.75.355 0 .664-.252.734-.599.055-.271.324-.448.589-.392.271.055.446.318.392.589-.164.812-.886 1.401-1.715 1.401-.965 0-1.75-.785-1.75-1.75v-2.5c0-.965.785-1.75 1.75-1.75.829 0 1.551.589 1.715 1.401.055.271-.12.534-.392.589-.265.057-.534-.12-.589-.392-.07-.347-.379-.599-.734-.599-.413 0-.75.337-.75.75z"/></svg>