<?xml version="1.0" encoding="UTF-8"?>
<svg xmlns="http://www.w3.org/2000/svg" id="Layer_1" data-name="Layer 1" viewBox="0 0 24 24">
  <path d="m22.383,2.046c-1.027-.857-2.372-1.211-3.688-.972l-4.209.765c-1.073.195-1.964.849-2.486,1.736-.521-.888-1.413-1.541-2.486-1.736l-4.209-.766c-1.314-.238-2.66.115-3.688.972-1.027.858-1.617,2.117-1.617,3.455v11.652c0,2.176,1.554,4.039,3.695,4.427l6.719,1.222c.526.096,1.056.144,1.585.144s1.06-.048,1.585-.144l6.719-1.222c2.141-.389,3.695-2.251,3.695-4.427V5.501c0-1.338-.589-2.597-1.617-3.455Zm-10.883,19.884c-.303-.02-.605-.057-.907-.111l-6.719-1.222c-1.666-.303-2.874-1.751-2.874-3.444V5.501c0-1.041.458-2.02,1.257-2.687.636-.53,1.427-.813,2.239-.813.209,0,.42.019.629.057l4.209.766c1.254.228,2.165,1.319,2.165,2.594v16.513Zm11.5-4.777c0,1.693-1.208,3.141-2.874,3.444l-6.719,1.222c-.301.055-.604.092-.907.111V5.417c0-1.275.91-2.366,2.165-2.594l4.209-.766c1.022-.187,2.069.09,2.869.757.799.667,1.257,1.646,1.257,2.687v11.652Zm-17-3.653v-7c0-.276.224-.5.5-.5s.5.224.5.5v7c0,.276-.224.5-.5.5s-.5-.224-.5-.5Zm1.5,3.5c0,.552-.448,1-1,1s-1-.448-1-1,.448-1,1-1,1,.448,1,1Z"/>
</svg>
