<?xml version="1.0" encoding="UTF-8"?>
<svg xmlns="http://www.w3.org/2000/svg" id="Layer_1" data-name="Layer 1" viewBox="0 0 24 24">
  <path d="M23.854,23.146l-5.275-5.275c2.116-2.359,5.346-6.586,5.42-10.489,.039-2.071-1.129-4.131-3.05-5.376-1.882-1.221-3.939-1.339-5.791-.331-1.437,.781-2.554,2.149-3.158,3.729-.605-1.58-1.721-2.948-3.158-3.73-1.851-1.005-3.908-.888-5.79,.332-.068,.044-.132,.092-.199,.139L.854,.146C.658-.049,.342-.049,.146,.146S-.049,.658,.146,.854L23.146,23.854c.098,.098,.226,.146,.354,.146s.256-.049,.354-.146c.195-.195,.195-.512,0-.707ZM3.595,2.847c1.56-1.013,3.252-1.116,4.77-.293,1.846,1.003,3.135,3.243,3.135,5.446,0,.276,.224,.5,.5,.5s.5-.224,.5-.5c0-2.203,1.29-4.443,3.136-5.446,1.514-.822,3.209-.719,4.77,.293,1.633,1.059,2.626,2.789,2.594,4.517-.05,2.653-1.924,6.205-5.133,9.795L3.571,2.864c.008-.005,.016-.012,.024-.017Zm12.551,16.814c.187,.204,.173,.52-.03,.707-.432,.396-.858,.769-1.273,1.111-.824,.68-1.833,1.021-2.843,1.021s-2.02-.34-2.843-1.021C4.807,17.886,.087,11.941,0,7.383c-.017-.89,.177-1.764,.575-2.599,.119-.25,.417-.354,.667-.235s.355,.417,.236,.667c-.331,.692-.491,1.415-.478,2.147,.08,4.244,4.614,9.893,8.792,13.345,1.279,1.057,3.135,1.057,4.413,0,.402-.331,.815-.691,1.233-1.076,.203-.185,.52-.173,.707,.029Z"/>
</svg>
