<?xml version="1.0" encoding="UTF-8"?>
<svg xmlns="http://www.w3.org/2000/svg" id="Layer_1" data-name="Layer 1" viewBox="0 0 24 24">
  <path d="m24,6.5v6c0,.276-.224.5-.5.5s-.5-.224-.5-.5v-6c0-.828-.672-1.5-1.5-1.5H4.5c-1.285,0-2.493-.561-3.338-1.497-.095.318-.162.648-.162.997v11c0,1.933,1.567,3.5,3.5,3.5h9c.276,0,.5.224.5.5s-.224.5-.5.5H4.5c-2.485,0-4.5-2.015-4.5-4.5V4.5C0,2.015,2.015,0,4.5,0h19c.276,0,.5.224.5.5s-.224.5-.5.5H4.5c-1.185,0-2.231.596-2.864,1.5.651.929,1.719,1.5,2.864,1.5h17c1.381,0,2.5,1.119,2.5,2.5Zm-5,11.5c-1.654,0-3-1.346-3-3s1.346-3,3-3,3,1.346,3,3-1.346,3-3,3Zm0-1c1.103,0,2-.897,2-2s-.897-2-2-2-2,.897-2,2,.897,2,2,2Zm0,2c-2.562,0-4.71,1.91-4.997,4.444-.031.274.166.522.44.553.273.03.522-.167.553-.44.23-2.027,1.951-3.556,4.003-3.556s3.773,1.529,4.003,3.556c.029.255.245.444.496.444.019,0,.038,0,.057-.003.274-.031.472-.278.44-.553-.287-2.534-2.435-4.444-4.997-4.444Z"/>
</svg>
