<?xml version="1.0" encoding="UTF-8"?>
<svg xmlns="http://www.w3.org/2000/svg" id="Layer_1" data-name="Layer 1" viewBox="0 0 24 24">
  <path d="m24,12c0,.276-.224.5-.5.5h-1.525c-.255,5.115-4.36,9.22-9.475,9.475v1.525c0,.276-.224.5-.5.5s-.5-.224-.5-.5v-1.525c-5.115-.255-9.22-4.36-9.475-9.475H.5c-.276,0-.5-.224-.5-.5s.224-.5.5-.5h1.528c.14-2.828,1.445-5.45,3.656-7.253.216-.174.529-.141.704.072.174.214.142.529-.072.704-1.977,1.612-3.149,3.952-3.288,6.478h1.472c.276,0,.5.224.5.5s-.224.5-.5.5h-1.475c.253,4.563,3.912,8.222,8.475,8.475v-1.475c0-.276.224-.5.5-.5s.5.224.5.5v1.475c4.563-.253,8.222-3.912,8.475-8.475h-1.475c-.276,0-.5-.224-.5-.5s.224-.5.5-.5h1.472c-.139-2.526-1.311-4.866-3.288-6.478-.214-.175-.246-.49-.072-.704.174-.214.489-.248.704-.072,2.211,1.803,3.516,4.426,3.656,7.253h1.528c.276,0,.5.224.5.5Zm-16.5-2.582c-.555-.604-.655-1.493-.251-2.211l2.991-6.138c.378-.677,1.031-1.067,1.758-1.069.73.002,1.383.392,1.748,1.043l3.012,6.178c.395.716.292,1.597-.259,2.197-.526.574-1.32.737-2.022.419l-2.478-1.125-2.478,1.125c-.237.108-.485.161-.73.161-.478,0-.943-.2-1.291-.58Zm.737-.676c.088.096.412.394.871.185l2.685-1.219c.131-.06.282-.06.413,0l2.685,1.219c.461.208.784-.088.872-.185.202-.22.353-.625.116-1.045-.004-.009-.009-.017-.013-.026l-3.004-6.164c-.176-.312-.495-.506-.863-.507-.365,0-.684.195-.873.533l-2.991,6.139c-.25.446-.099.851.103,1.071Z"/>
</svg>
