<svg id="Layer_1" viewBox="0 0 24 24" xmlns="http://www.w3.org/2000/svg" data-name="Layer 1"><path d="m20 0c-2.206 0-4 1.794-4 4s1.794 4 4 4 4-1.794 4-4-1.794-4-4-4zm0 7c-1.654 0-3-1.346-3-3s1.346-3 3-3 3 1.346 3 3-1.346 3-3 3zm-14 8c0 2.757 2.243 5 5 5s5-2.243 5-5-2.243-5-5-5-5 2.243-5 5zm9 0c0 2.206-1.794 4-4 4s-4-1.794-4-4 1.794-4 4-4 4 1.794 4 4zm7-4.5v9c0 2.481-2.019 4.5-4.5 4.5h-13c-2.481 0-4.5-2.019-4.5-4.5v-9c0-2.389 1.876-4.33 4.229-4.473l1.97-2.627c.659-.877 1.706-1.4 2.801-1.4h4.5c.276 0 .5.224.5.5s-.224.5-.5.5h-4.5c-.782 0-1.53.374-2.001 1l-1.499 2h8.5c.276 0 .5.224.5.5s-.224.5-.5.5h-9.5c-1.93 0-3.5 1.57-3.5 3.5v9c0 1.93 1.57 3.5 3.5 3.5h13c1.93 0 3.5-1.57 3.5-3.5v-9c0-.276.224-.5.5-.5s.5.224.5.5z"/></svg>