<svg id="Layer_1" viewBox="0 0 24 24" xmlns="http://www.w3.org/2000/svg" data-name="Layer 1"><path d="m19.5 0h-15c-2.481 0-4.5 2.019-4.5 4.5v9c0 2.481 2.019 4.5 4.5 4.5h7v3h-3c-1.378 0-2.5 1.122-2.5 2.5 0 .276.224.5.5.5s.5-.224.5-.5c0-.827.673-1.5 1.5-1.5h7c.827 0 1.5.673 1.5 1.5 0 .276.224.5.5.5s.5-.224.5-.5c0-1.378-1.121-2.5-2.5-2.5h-3v-3h7c2.481 0 4.5-2.019 4.5-4.5v-9c0-2.481-2.019-4.5-4.5-4.5zm3.5 13.5c0 1.93-1.57 3.5-3.5 3.5h-15c-1.93 0-3.5-1.57-3.5-3.5v-9c0-1.93 1.57-3.5 3.5-3.5h15c1.93 0 3.5 1.57 3.5 3.5zm-9.123-4.697c.386-.404.623-.951.623-1.553 0-1.241-1.01-2.25-2.25-2.25h-1.25c-.551 0-1 .449-1 1v6c0 .551.449 1 1 1h1.75c1.24 0 2.25-1.009 2.25-2.25 0-.831-.452-1.557-1.123-1.947zm-2.877-2.803h1.25c.689 0 1.25.561 1.25 1.25s-.561 1.25-1.25 1.25h-1.25zm1.75 6h-1.75v-2.5h1.75c.689 0 1.25.561 1.25 1.25s-.561 1.25-1.25 1.25zm-6.75-7c-.775 0-1.396.511-1.544 1.271l-1.197 6.116c-.053.271.124.534.395.587.272.053.533-.125.587-.395l.309-1.58h2.9l.309 1.58c.052.273.322.448.587.395.271-.053.448-.316.395-.587l-1.197-6.116c-.148-.761-.769-1.271-1.544-1.271zm-1.255 5 .692-3.537c.066-.341.334-.463.562-.463s.496.122.562.463l.692 3.537h-2.509zm12.255-2.5v3c0 .827.673 1.5 1.5 1.5.685 0 1.282-.462 1.452-1.125.068-.267.346-.429.608-.36.268.069.429.341.36.609-.284 1.104-1.279 1.875-2.421 1.875-1.379 0-2.5-1.122-2.5-2.5v-3c0-1.378 1.121-2.5 2.5-2.5 1.142 0 2.137.771 2.421 1.875.068.268-.093.54-.36.609-.263.068-.54-.093-.608-.36-.17-.662-.768-1.125-1.452-1.125-.827 0-1.5.673-1.5 1.5z"/></svg>