<svg id="Layer_1" viewBox="0 0 24 24" xmlns="http://www.w3.org/2000/svg" data-name="Layer 1"><path d="m21.499 14.506-.748-.424c.166-.692.25-1.391.25-2.082s-.084-1.39-.25-2.082l.748-.423c1.183-.638 1.63-2.252.944-3.407-.637-1.183-2.252-1.633-3.407-.944l-.751.425c-1.063-1.04-2.358-1.795-3.784-2.207v-.861c-.001-1.38-1.123-2.501-2.501-2.501s-2.5 1.121-2.5 2.5v.861c-1.425.412-2.72 1.167-3.784 2.207l-.751-.426c-1.154-.684-2.77-.239-3.407.945-.686 1.155-.239 2.77.943 3.406l.748.424c-.166.692-.25 1.391-.25 2.082s.084 1.39.25 2.082l-.748.423c-1.183.638-1.63 2.252-.944 3.407.636 1.184 2.254 1.631 3.407.944l.751-.426c1.064 1.041 2.359 1.796 3.784 2.208v.861c0 1.379 1.122 2.5 2.5 2.5s2.5-1.121 2.5-2.5v-.861c1.425-.412 2.72-1.167 3.784-2.208l.75.425c1.156.688 2.77.241 3.407-.943.686-1.155.239-2.77-.943-3.406zm.073 2.914c-.383.71-1.349.978-2.044.565l-1.085-.614c-.2-.111-.452-.074-.611.094-1.07 1.141-2.435 1.937-3.949 2.303-.224.055-.382.256-.382.486v1.246c0 .827-.673 1.5-1.5 1.5s-1.5-.673-1.5-1.5v-1.246c0-.23-.158-.432-.382-.486-1.514-.366-2.879-1.162-3.949-2.303-.158-.169-.412-.206-.611-.094l-1.086.615c-.694.411-1.661.144-2.044-.566-.412-.694-.144-1.661.566-2.045l1.083-.613c.201-.113.297-.35.234-.571-.207-.728-.312-1.464-.312-2.19s.105-1.463.312-2.19c.063-.222-.034-.458-.234-.571l-1.083-.614c-.71-.383-.978-1.35-.566-2.044.382-.709 1.351-.979 2.044-.567l1.085.615c.201.114.454.076.611-.093 1.069-1.141 2.435-1.937 3.949-2.303.224-.055.382-.256.382-.486v-1.246c0-.827.673-1.5 1.5-1.5s1.5.673 1.5 1.5v1.246c0 .23.158.432.382.486 1.514.366 2.879 1.162 3.949 2.303.158.168.411.206.611.093l1.085-.614c.692-.413 1.662-.143 2.044.566.412.694.144 1.661-.566 2.045l-1.083.613c-.201.113-.297.35-.234.571.207.728.312 1.464.312 2.19s-.105 1.463-.312 2.19c-.063.222.034.458.234.571l1.083.613c.709.384.979 1.35.566 2.045zm-4.572-9.92v2.5c0 .552-.449 1-1 1h-2.5c-.276 0-.5-.224-.5-.5s.224-.5.5-.5h1.974c-.715-1.236-2.011-2-3.454-2-2.206 0-4 1.794-4 4s1.789 3.994 3.99 4c1.334-.003 2.573-.668 3.316-1.778.154-.229.464-.289.694-.138.229.154.291.465.137.694-.925 1.383-2.467 2.212-4.127 2.222h-.04c-2.743-.017-4.97-2.253-4.97-5s2.243-5 5-5c1.594 0 3.045.748 3.979 1.987v-1.487c0-.276.224-.5.5-.5s.5.224.5.5z"/></svg>