<?xml version="1.0" encoding="UTF-8"?>
<svg xmlns="http://www.w3.org/2000/svg" id="Layer_1" data-name="Layer 1" viewBox="0 0 24 24">
  <path d="M19.974,13.5v-2.992c0-1.935-1.559-3.508-3.474-3.508h-3.526v-2.346c-.005-1.095-.638-2.034-1.65-2.45-1.005-.415-2.112-.197-2.885,.57L1.069,9.354c-1.457,1.458-1.457,3.832,.021,5.311l7.338,6.55c.516,.517,1.182,.788,1.867,.788,.344,0,.692-.068,1.03-.207,1.012-.417,1.644-1.356,1.647-2.454v-2.34l3.526,.008c1.915,0,3.474-1.574,3.474-3.509Zm-7.5,2.5c-.133,0-.26,.053-.354,.146-.094,.094-.146,.221-.146,.354v2.839c-.003,.818-.533,1.328-1.028,1.531-.495,.206-1.232,.216-1.83-.383L1.777,13.938c-1.068-1.069-1.068-2.809-.021-3.857,0,0,7.372-6.582,7.379-6.588,.357-.358,.776-.49,1.16-.49,.236,0,.46,.049,.648,.127,.496,.204,1.026,.713,1.03,1.528v2.843c0,.276,.224,.5,.5,.5h4.026c1.364,0,2.474,1.125,2.474,2.508v2.992c0,1.384-1.109,2.509-2.473,2.509l-4.027-.009ZM24,4.5v15c0,2.481-2.019,4.5-4.5,4.5h-4c-.276,0-.5-.224-.5-.5s.224-.5,.5-.5h4c1.93,0,3.5-1.57,3.5-3.5V4.5c0-1.93-1.57-3.5-3.5-3.5h-4c-.276,0-.5-.224-.5-.5s.224-.5,.5-.5h4c2.481,0,4.5,2.019,4.5,4.5Z"/>
</svg>
