<svg id="Layer_1" viewBox="0 0 24 24" xmlns="http://www.w3.org/2000/svg" data-name="Layer 1"><path d="m20.354 4.354-1.646 1.646 1.646 1.646c.195.195.195.512 0 .707s-.512.195-.707 0l-1.646-1.646-1.646 1.646c-.195.195-.512.195-.707 0s-.195-.512 0-.707l1.646-1.646-1.646-1.646c-.195-.195-.195-.512 0-.707s.512-.195.707 0l1.646 1.646 1.646-1.646c.195-.195.512-.195.707 0s.195.512 0 .707zm-4.354 9.646v5.5c0 2.481-2.019 4.5-4.5 4.5h-7c-2.481 0-4.5-2.019-4.5-4.5v-15c0-2.481 2.019-4.5 4.5-4.5h7c.276 0 .5.224.5.5s-.224.5-.5.5h-7c-1.93 0-3.5 1.57-3.5 3.5v12.5h14v-3c0-.276.224-.5.5-.5s.5.224.5.5zm-1 5.5v-1.5h-14v1.5c0 1.93 1.57 3.5 3.5 3.5h7c1.93 0 3.5-1.57 3.5-3.5zm-5.5.5h-3c-.276 0-.5.224-.5.5s.224.5.5.5h3c.276 0 .5-.224.5-.5s-.224-.5-.5-.5zm14.5-14c0 3.309-2.691 6-6 6s-6-2.691-6-6 2.691-6 6-6 6 2.691 6 6zm-1 0c0-2.757-2.243-5-5-5s-5 2.243-5 5 2.243 5 5 5 5-2.243 5-5zm-18.178 6.579.614-1.579h-.59c-.59 0-1.147-.259-1.528-.711l-1.097-1.3c-.281-.476-.279-.953-.048-1.352.401-.692 1.451-.828 2.013-.262l.911.624h.352l-.621-1.574c-.127-.321-.087-.684.107-.97.194-.285.517-.456.862-.456h.298c.591 0 1.133.322 1.415.84l1.729 2.16h1.26c.827 0 1.5.673 1.5 1.5s-.673 1.5-1.5 1.5h-1.258l-1.761 2.23c-.236.448-.778.77-1.368.77h-.319c-.345 0-.667-.17-.861-.454-.194-.285-.235-.646-.11-.967zm1.345-2.579c.165 0 .319.081.413.218.093.136.112.31.053.464l-.879 2.261.359.058c.224 0 .43-.122.537-.319l1.957-2.49c.095-.12.239-.19.393-.19h1.5c.275 0 .5-.225.5-.5s-.225-.5-.5-.5h-1.5c-.152 0-.296-.069-.391-.188l-1.929-2.421c-.155-.269-.36-.391-.585-.391h-.298l.851 2.316c.061.154.042.328-.052.465-.093.137-.248.219-.413.219h-1.241c-.102 0-.201-.031-.285-.09l-1.11-.771c-.183-.208-.431-.149-.508 0-.024.042-.073.153 0 .279l1.044 1.226c.191.226.47.355.765.355h1.32z"/></svg>