<?xml version="1.0" encoding="UTF-8"?>
<svg xmlns="http://www.w3.org/2000/svg" id="Layer_1" data-name="Layer 1" viewBox="0 0 24 24">
  <path d="m21,20.293v-3.719c0-1.471-.573-2.854-1.613-3.893l-7.656-7.658c-1.364-1.362-3.584-1.362-4.948.002l-.529.529-2.41-2.191L6.354.854c.195-.195.195-.512,0-.707s-.512-.195-.707,0L.146,5.646c-.195.195-.195.512,0,.707.098.098.226.146.354.146s.256-.049.354-.146l2.282-2.282,2.41,2.191-.52.52c-.662.661-1.026,1.541-1.025,2.476,0,.936.365,1.814,1.026,2.475l7.656,7.659c1.039,1.037,2.419,1.608,3.886,1.608h3.725l2.854,2.854c.098.098.226.146.354.146s.256-.049.354-.146c.195-.195.195-.512,0-.707l-2.854-2.854Zm-1-.293h-3.432c-1.2,0-2.329-.467-3.179-1.315l-7.656-7.659c-.473-.472-.733-1.1-.733-1.768s.26-1.296.732-1.769l1.757-1.757c.487-.487,1.127-.731,1.768-.731s1.279.243,1.767.729l1.269,1.269-2.646,2.646c-.195.195-.195.512,0,.707.098.098.226.146.354.146s.256-.049.354-.146l2.646-2.646,2.293,2.293-2.646,2.646c-.195.195-.195.512,0,.707.098.098.226.146.354.146s.256-.049.354-.146l2.646-2.646,2.293,2.293-2.646,2.646c-.195.195-.195.512,0,.707.098.098.226.146.354.146s.256-.049.354-.146l2.614-2.614c.657.801,1.032,1.784,1.032,2.835v3.426Zm-1.359-11.503c.559.356,1.209.535,1.86.535.664,0,1.327-.185,1.891-.555,1.007-.661,1.608-1.763,1.608-2.948,0-.934-.364-1.812-1.003-2.451l-1.455-1.653c-.574-.561-1.508-.564-2.109.027l-1.415,1.61c-.656.655-1.018,1.531-1.018,2.466,0,1.202.613,2.311,1.641,2.968Zm.105-4.751l1.411-1.606c.099-.096.229-.142.354-.142.116,0,.228.039.306.115l1.451,1.649c.473.473.732,1.1.732,1.767,0,.86-.422,1.629-1.157,2.112-.791.519-1.861.526-2.663.013-.75-.479-1.18-1.254-1.18-2.125,0-.667.257-1.292.746-1.783Z"/>
</svg>
