<?xml version="1.0" encoding="UTF-8"?>
<svg xmlns="http://www.w3.org/2000/svg" id="Layer_1" data-name="Layer 1" viewBox="0 0 24 24">
  <path d="M13.945,19.001h-3.891c-2.334,0-4.585-.941-6.174-2.582C2.151,14.635,.86,12.355,.148,9.828c-.719-2.276,1.081-4.885,3.491-4.828H20.361c2.41-.057,4.21,2.553,3.491,4.828-.712,2.527-2.003,4.807-3.732,6.591-1.589,1.641-3.84,2.582-6.174,2.582ZM3.639,6c-1.767-.038-3.055,1.896-2.528,3.557,.658,2.334,1.896,4.524,3.487,6.167,1.403,1.447,3.392,2.277,5.457,2.277h3.891c2.065,0,4.054-.83,5.457-2.277,1.591-1.643,2.83-3.833,3.487-6.167,.527-1.661-.761-3.595-2.528-3.557H3.639Z"/>
</svg>
