<svg id="Layer_1" viewBox="0 0 24 24" xmlns="http://www.w3.org/2000/svg" data-name="Layer 1"><path d="m17.5 0h-11c-2.481 0-4.5 2.019-4.5 4.5v16c0 1.93 1.57 3.5 3.5 3.5h12c2.481 0 4.5-2.019 4.5-4.5v-15c0-2.481-2.019-4.5-4.5-4.5zm-14.5 4.5c0-1.93 1.57-3.5 3.5-3.5h11c1.93 0 3.5 1.57 3.5 3.5v12.5h-15.5c-.98 0-1.864.407-2.5 1.058zm14.5 18.5h-12c-1.378 0-2.5-1.122-2.5-2.5s1.122-2.5 2.5-2.5h15.5v1.5c0 1.93-1.57 3.5-3.5 3.5zm-9.5-15.5v-.5c0-1.224.549-2.365 1.508-3.128.958-.764 2.208-1.043 3.428-.765 1.462.333 2.624 1.494 2.958 2.957.406 1.785-.384 3.569-1.966 4.441-.821.453-1.352 1.213-1.419 2.036-.022.261-.241.459-.498.459-.014 0-.028 0-.042-.001-.275-.023-.48-.265-.458-.54.096-1.157.819-2.215 1.934-2.83 1.188-.654 1.78-1.998 1.474-3.343-.245-1.073-1.132-1.959-2.206-2.205-.922-.21-1.863-.002-2.582.572-.719.573-1.131 1.429-1.131 2.347v.5c0 .276-.224.5-.5.5s-.5-.224-.5-.5zm5 7.5c0 .552-.448 1-1 1s-1-.448-1-1 .448-1 1-1 1 .448 1 1z"/></svg>