<svg id="Layer_1" viewBox="0 0 24 24" xmlns="http://www.w3.org/2000/svg" data-name="Layer 1"><path d="m24 22.25v1.25c0 .276-.224.5-.5.5s-.5-.224-.5-.5v-1.25c0-1.792-1.458-3.25-3.25-3.25s-3.25 1.458-3.25 3.25v1.25c-.013.263-.184.5-.499.5-.279 0-.432-.18-.491-.4-.306-1.507-1.782-2.6-3.51-2.6s-3.204 1.093-3.51 2.6c-.06.227-.256.387-.49.4-.267-.007-.487-.231-.5-.5v-1.25c0-1.792-1.458-3.25-3.25-3.25s-3.25 1.458-3.25 3.25v1.25c0 .276-.224.5-.5.5s-.5-.224-.5-.5v-1.25c0-2.344 1.907-4.25 4.25-4.25 2.113 0 3.857 1.555 4.182 3.578.844-.966 2.135-1.578 3.568-1.578s2.724.612 3.568 1.578c.325-2.023 2.068-3.578 4.182-3.578 2.344 0 4.25 1.906 4.25 4.25zm-22-7.75c0-1.379 1.122-2.5 2.5-2.5s2.5 1.121 2.5 2.5-1.122 2.5-2.5 2.5-2.5-1.121-2.5-2.5zm1 0c0 .827.673 1.5 1.5 1.5s1.5-.673 1.5-1.5-.673-1.5-1.5-1.5-1.5.673-1.5 1.5zm9-.5c1.379 0 2.5 1.121 2.5 2.5s-1.121 2.5-2.5 2.5-2.5-1.121-2.5-2.5 1.122-2.5 2.5-2.5zm0 1c-.827 0-1.5.673-1.5 1.5s.673 1.5 1.5 1.5 1.5-.673 1.5-1.5-.673-1.5-1.5-1.5zm5-.5c0-1.379 1.121-2.5 2.5-2.5s2.5 1.121 2.5 2.5-1.121 2.5-2.5 2.5-2.5-1.121-2.5-2.5zm1 0c0 .827.673 1.5 1.5 1.5s1.5-.673 1.5-1.5-.673-1.5-1.5-1.5-1.5.673-1.5 1.5zm-6-6.5c-1.103 0-2-.897-2-2s.897-2 2-2 2 .897 2 2-.897 2-2 2zm0-3c-.551 0-1 .448-1 1s.449 1 1 1 1-.448 1-1-.449-1-1-1zm0 7c-.827 0-1.5-.673-1.5-1.5v-.271c-.515-.18-.989-.446-1.396-.786l-.224.132c-.344.203-.747.262-1.137.158-.388-.101-.713-.347-.917-.691-.203-.346-.259-.749-.159-1.138.101-.388.347-.713.692-.916l.233-.137c-.064-.3-.094-.576-.094-.851s.03-.551.094-.85l-.233-.137c-.713-.42-.953-1.341-.534-2.054.42-.713 1.34-.952 2.054-.533l.223.131c.408-.34.881-.606 1.396-.786v-.271c0-.827.673-1.5 1.5-1.5s1.5.673 1.5 1.5v.271c.515.18.988.446 1.396.786l.223-.131c.712-.419 1.634-.179 2.053.533.419.713.18 1.634-.533 2.053l-.233.138c.064.299.094.575.094.85s-.03.551-.094.851l.234.138c.345.202.59.527.691.915s.044.792-.159 1.138c-.203.345-.528.591-.917.691-.387.104-.791.045-1.137-.159l-.223-.131c-.407.34-.881.606-1.396.786v.271c0 .827-.673 1.5-1.5 1.5zm-2.832-3.675c.129 0 .258.05.354.146.429.431.983.742 1.603.902.221.058.375.257.375.484v.642c0 .275.224.5.5.5s.5-.225.5-.5v-.642c0-.228.154-.427.375-.484.62-.16 1.174-.472 1.603-.902.162-.16.411-.191.607-.078l.541.317c.227.142.553.058.685-.177.141-.228.058-.553-.177-.684l-.557-.328c-.196-.115-.29-.349-.227-.567.103-.361.151-.665.151-.955s-.048-.594-.151-.955c-.062-.219.031-.452.228-.568l.556-.326c.237-.14.317-.447.177-.685-.131-.234-.456-.319-.684-.178l-.541.318c-.195.116-.446.083-.607-.078-.43-.431-.984-.743-1.603-.903-.221-.057-.375-.256-.375-.484v-.642c0-.276-.224-.5-.5-.5s-.5.224-.5.5v.642c0 .228-.154.427-.375.484-.619.16-1.173.473-1.603.903-.161.161-.412.194-.607.078l-.541-.318c-.237-.14-.544-.06-.685.178-.139.237-.06.544.179.685l.555.325c.197.115.291.35.228.568-.103.361-.151.665-.151.955s.048.594.151.955c.062.219-.031.452-.228.567l-.556.327c-.234.132-.319.455-.178.684.132.236.454.319.685.179l.542-.318c.079-.046.166-.068.253-.068z"/></svg>