<?xml version="1.0" encoding="UTF-8"?>
<svg xmlns="http://www.w3.org/2000/svg" id="Layer_1" data-name="Layer 1" viewBox="0 0 24 24">
  <path d="M21.037,10.177l-7.071-5.492c-1.153-.896-2.773-.903-3.935-.019L2.919,10.08c-1.256,.901-1.255,2.934,0,3.836l7.133,5.432c1.149,.875,2.754,.876,3.905,.004l7.059-5.349c1.251-.895,1.263-2.915,.022-3.825Zm-.626,3.028l-7.059,5.349c-.794,.604-1.902,.601-2.696-.003L3.524,13.12c-.734-.527-.733-1.718,0-2.244l7.112-5.413c.803-.611,1.919-.606,2.716,.013l7.071,5.492c.725,.531,.718,1.715-.013,2.238Zm-8.411-5.205c-2.206,0-4,1.794-4,4s1.794,4,4,4,4-1.794,4-4-1.794-4-4-4Zm0,7c-1.654,0-3-1.346-3-3,0-.219,.026-.431,.071-.636,.863,.077,3.377,.463,5.4,2.331-.541,.787-1.446,1.305-2.471,1.305Zm2.899-2.268c-1.985-1.697-4.308-2.188-5.429-2.329,.532-.84,1.464-1.403,2.53-1.403,1.654,0,3,1.346,3,3,0,.254-.041,.497-.101,.732ZM12,0C5.383,0,0,5.383,0,12s5.383,12,12,12,12-5.383,12-12S18.617,0,12,0Zm0,23c-6.065,0-11-4.935-11-11S5.935,1,12,1s11,4.935,11,11-4.935,11-11,11Z"/>
</svg>
