<svg id="Layer_1" viewBox="0 0 24 24" xmlns="http://www.w3.org/2000/svg" data-name="Layer 1"><path d="m18 12c0-3.309-2.691-6-6-6s-6 2.691-6 6 2.691 6 6 6 6-2.691 6-6zm-11 0c0-2.757 2.243-5 5-5s5 2.243 5 5-2.243 5-5 5-5-2.243-5-5zm17-8.5v4c0 .827-.673 1.5-1.5 1.5h-4c-.276 0-.5-.224-.5-.5s.224-.5.5-.5h3.742c-1.641-4.203-5.694-7-10.242-7-5.91 0-10.737 4.622-10.989 10.521-.012.269-.233.479-.5.479-.007 0-.014 0-.021 0-.275-.012-.49-.245-.479-.521.275-6.437 5.542-11.479 11.989-11.479 4.802 0 9.107 2.855 11 7.198v-3.698c0-.276.224-.5.5-.5s.5.224.5.5zm-.011 9.021c-.275 6.437-5.542 11.479-11.989 11.479-4.784 0-9.107-2.868-11-7.209v3.709c0 .276-.224.5-.5.5s-.5-.224-.5-.5v-3.988c0-.827.673-1.5 1.5-1.5l3.999-.012c.275 0 .499.223.5.499 0 .276-.223.5-.499.501l-3.739.011c1.643 4.191 5.713 6.989 10.238 6.989 5.91 0 10.737-4.622 10.989-10.521.012-.275.207-.509.521-.478.275.012.49.245.479.521zm-11.397 1.007c-.316.312-.733.469-1.151.469s-.835-.156-1.152-.468l-1.14-1.123c-.196-.194-.198-.51-.005-.707.196-.197.512-.199.708-.005l1.138 1.122c.246.242.654.243.903-.003l2.26-2.186c.199-.191.517-.186.707.012.192.199.187.515-.012.707z"/></svg>