<?xml version="1.0" encoding="UTF-8"?>
<svg xmlns="http://www.w3.org/2000/svg" id="Layer_1" data-name="Layer 1" viewBox="0 0 24 24">
  <path d="m17.332,16.096c.101-.388.044-.791-.159-1.136-.203-.346-.528-.592-.917-.692-.387-.102-.792-.044-1.137.159l-.223.131c-.408-.34-.881-.606-1.396-.786v-.271c0-.827-.673-1.5-1.5-1.5s-1.5.673-1.5,1.5v.271c-.515.18-.988.446-1.396.786l-.223-.131c-.346-.203-.75-.261-1.137-.159-.388.101-.713.347-.916.691-.204.346-.26.749-.16,1.137.101.389.347.714.692.916l.234.138c-.064.3-.094.576-.094.851s.03.551.094.85l-.234.138c-.345.203-.591.528-.691.916-.101.389-.044.792.159,1.137.203.346.528.592.917.692.388.104.792.045,1.137-.159l.223-.131c.408.34.881.606,1.396.786v.271c0,.827.673,1.5,1.5,1.5s1.5-.673,1.5-1.5v-.271c.515-.18.988-.446,1.396-.786l.223.131c.347.204.75.263,1.137.159.388-.101.713-.347.916-.691.204-.346.26-.749.16-1.138-.101-.388-.346-.713-.692-.917l-.233-.137c.064-.299.094-.575.094-.85s-.03-.551-.094-.851l.233-.137c.346-.203.591-.528.692-.917Zm-1.982.949c.103.361.151.665.151.955s-.048.594-.151.955c-.062.219.031.453.228.568l.556.325c.115.068.197.177.23.307.034.129.015.264-.053.379s-.176.197-.305.23c-.13.034-.263.016-.379-.053l-.541-.318c-.196-.117-.447-.085-.607.077-.43.432-.984.743-1.603.903-.221.058-.375.257-.375.484v.642c0,.275-.224.5-.5.5s-.5-.225-.5-.5v-.642c0-.228-.154-.427-.375-.484-.619-.16-1.173-.472-1.603-.903-.096-.097-.225-.146-.354-.146-.087,0-.175.022-.253.069l-.541.318c-.116.067-.249.087-.379.053-.129-.033-.237-.115-.306-.231-.067-.114-.086-.249-.053-.378.034-.13.115-.238.23-.306l.556-.326c.197-.115.291-.35.228-.568-.103-.361-.151-.665-.151-.955s.048-.594.151-.955c.062-.219-.031-.452-.228-.567l-.557-.328c-.115-.067-.197-.176-.23-.305-.034-.129-.015-.264.053-.379s.176-.197.305-.23c.131-.033.264-.015.379.053l.541.318c.195.116.447.085.607-.077.43-.432.984-.743,1.603-.903.221-.058.375-.257.375-.484v-.642c0-.275.224-.5.5-.5s.5.225.5.5v.642c0,.228.154.427.375.484.619.16,1.173.472,1.603.903.161.162.411.193.607.077l.541-.318c.115-.067.249-.087.379-.053.129.033.237.115.306.231.067.114.086.249.053.378-.033.129-.115.237-.23.306l-.556.327c-.196.115-.29.349-.228.567Zm-3.349-1.045c-1.103,0-2,.897-2,2s.897,2,2,2,2-.897,2-2-.897-2-2-2Zm0,3c-.551,0-1-.448-1-1s.449-1,1-1,1,.448,1,1-.449,1-1,1Zm12-6.5c0,2.964-1.568,5.318-4.303,6.461-.254.107-.548-.013-.654-.269-.106-.255.014-.547.269-.653,2.379-.994,3.689-2.961,3.689-5.539,0-2.916-2.228-5.699-5.071-6.336-.736-.166-1.347-.638-1.676-1.296-1.413-2.82-4.468-4.325-7.598-3.743-2.738.508-4.952,2.691-5.508,5.434-.167.819-.191,1.645-.074,2.452.13.893-.119,1.714-.685,2.255-.895.854-1.387,2.001-1.389,3.23,0,2.136,1.514,3.99,3.6,4.414.271.056.445.319.39.59-.048.237-.256.4-.489.4-2.55-.519-4.5-2.795-4.5-5.4.001-1.51.604-2.913,1.698-3.957.328-.314.469-.82.386-1.388-.135-.923-.107-1.863.083-2.796C2.804,3.222,5.338.724,8.473.143c3.576-.673,7.061,1.056,8.675,4.278.194.389.559.668,1,.767,3.282.735,5.852,3.947,5.852,7.312Z"/>
</svg>
