<?xml version="1.0" encoding="UTF-8"?>
<svg xmlns="http://www.w3.org/2000/svg" id="Layer_1" data-name="Layer 1" viewBox="0 0 24 24">
  <path d="M18.5,5c1.378,0,2.5-1.121,2.5-2.5s-1.122-2.5-2.5-2.5-2.5,1.121-2.5,2.5,1.122,2.5,2.5,2.5Zm0-4c.827,0,1.5,.673,1.5,1.5s-.673,1.5-1.5,1.5-1.5-.673-1.5-1.5,.673-1.5,1.5-1.5Zm4.874,18.154c-.474,.537-1.157,.846-1.874,.846h-.5v3.5c0,.276-.224,.5-.5,.5s-.5-.224-.5-.5v-3.5h-3v3.5c0,.276-.224,.5-.5,.5s-.5-.224-.5-.5v-3.5h-.5c-.44,0-.873-.116-1.251-.335-.239-.139-.321-.444-.182-.684,.138-.238,.444-.322,.683-.182,.229,.133,.482,.2,.75,.2h6c.43,0,.84-.185,1.125-.508,.285-.322,.417-.752,.364-1.178l-1.654-8.006c-.276-1.338-1.468-2.309-2.834-2.309s-2.559,.971-2.835,2.31l-.886,4.291c-.056,.271-.321,.448-.591,.389-.271-.056-.444-.32-.389-.59l.886-4.292c.372-1.801,1.976-3.107,3.814-3.107s3.442,1.307,3.814,3.107l1.66,8.044c.095,.749-.125,1.466-.6,2.003ZM4.5,5c1.378,0,2.5-1.121,2.5-2.5S5.878,0,4.5,0,2,1.121,2,2.5s1.122,2.5,2.5,2.5Zm0-4c.827,0,1.5,.673,1.5,1.5s-.673,1.5-1.5,1.5-1.5-.673-1.5-1.5,.673-1.5,1.5-1.5Zm1,5H3.5c-1.93,0-3.5,1.57-3.5,3.5v4c0,1.391,.822,2.585,2,3.149v6.851c0,.276,.224,.5,.5,.5s.5-.224,.5-.5v-6.551c.165,.024,.329,.051,.5,.051h2c.171,0,.335-.027,.5-.051v6.551c0,.276,.224,.5,.5,.5s.5-.224,.5-.5v-6.851c1.178-.564,2-1.758,2-3.149v-4c0-1.93-1.57-3.5-3.5-3.5Zm2.5,7.5c0,1.379-1.122,2.5-2.5,2.5H3.5c-1.378,0-2.5-1.121-2.5-2.5v-4c0-1.379,1.122-2.5,2.5-2.5h2c1.378,0,2.5,1.121,2.5,2.5v4Zm3.075-5.71c-.038,.04-.038,.104,0,.145l1.736,1.873c.391,.422,.391,1.083,0,1.504l-1.735,1.874c-.038,.04-.038,.104,0,.145l1.736,1.874c.391,.422,.391,1.082,0,1.504l-1.736,1.874c-.038,.04-.038,.104,0,.145l1.724,1.861c.399,.429,.393,1.097-.015,1.519l-1.674,1.74c-.098,.102-.229,.153-.36,.153-.125,0-.25-.046-.347-.14-.199-.191-.205-.508-.014-.707l1.674-1.74c.039-.041,.04-.104,.002-.145l-1.725-1.862c-.391-.422-.391-1.082,0-1.504l1.736-1.874c.038-.04,.038-.104,0-.145l-1.736-1.874c-.391-.422-.391-1.082,0-1.504l1.736-1.874c.038-.041,.038-.104,0-.145l-1.736-1.873c-.391-.422-.391-1.082,0-1.504l1.736-1.875c.038-.041,.038-.104,0-.145l-1.739-1.876c-.391-.423-.391-1.084,0-1.505L11.778,.16c.187-.204,.503-.215,.707-.026,.202,.188,.214,.504,.026,.706l-1.439,1.55c-.038,.042-.038,.104,0,.146l1.739,1.876c.391,.422,.391,1.083,0,1.504l-1.736,1.875Z"/>
</svg>
