<svg id="Layer_1" viewBox="0 0 24 24" xmlns="http://www.w3.org/2000/svg" data-name="Layer 1"><path d="m19.565 8.462c-.137-.24-.053-.545.187-.683l2.5-1.428c.236-.135.544-.055.683.187.137.24.053.545-.187.683l-2.5 1.428c-.236.135-.544.055-.683-.187zm-1.565-5.462v18c0 1.948-4.637 3-9 3s-9-1.052-9-3v-18c0-1.948 4.637-3 9-3s9 1.052 9 3zm-1 1.424c-1.595 1.029-4.863 1.576-8 1.576s-6.405-.546-8-1.576v16.576c0 .705 3.037 2 8 2s8-1.295 8-2zm0-1.424c0-.705-3.037-2-8-2s-8 1.295-8 2 3.037 2 8 2 8-1.295 8-2zm-7.612 6.204 2.667 1.922c.14.12.446.392.445.804 0 .275-.133.526-.406.766l-2.24 1.779 2.174 1.69c.212.187.462.449.463.812 0 .389-.281.64-.374.723l-2.758 2.119c-.224.203-.593.233-.875.104-.299-.135-.485-.413-.485-.727v-3.42l-1.189 1.115c-.218.172-.532.136-.703-.081-.172-.216-.136-.53.081-.702l1.811-1.608-1.807-1.605c-.218-.169-.257-.483-.087-.701.169-.218.484-.258.701-.088l1.193 1.129v-3.431c0-.313.186-.592.485-.727.307-.138.663-.09.903.127zm-.388 4.606 2.453-1.882s0 0 .001 0c-.007-.007-2.455-1.774-2.455-1.774v3.657zm0 5.026s2.405-1.89 2.391-1.902l-2.342-1.82-.049 3.723zm14.5-6.837h-3c-.276 0-.5.224-.5.5s.224.5.5.5h3c.276 0 .5-.224.5-.5s-.224-.5-.5-.5zm-.752 5.779-2.5-1.428c-.237-.135-.544-.055-.683.187-.137.24-.053.545.187.683l2.5 1.428c.236.135.544.055.683-.187.137-.24.053-.545-.187-.683z"/></svg>