<svg id="Layer_1" viewBox="0 0 24 24" xmlns="http://www.w3.org/2000/svg" data-name="Layer 1"><path d="m9 23.5c0 .276-.224.5-.5.5h-4c-2.481 0-4.5-2.019-4.5-4.5v-15c0-2.481 2.019-4.5 4.5-4.5h7c2.481 0 4.5 2.019 4.5 4.5v3c0 .276-.224.5-.5.5s-.5-.224-.5-.5v-3c0-1.93-1.57-3.5-3.5-3.5h-7c-1.93 0-3.5 1.57-3.5 3.5v15c0 1.93 1.57 3.5 3.5 3.5h4c.276 0 .5.224.5.5zm-2.5-10.5h-2c-.276 0-.5.224-.5.5s.224.5.5.5h2c.276 0 .5-.224.5-.5s-.224-.5-.5-.5zm0 4h-2c-.276 0-.5.224-.5.5s.224.5.5.5h2c.276 0 .5-.224.5-.5s-.224-.5-.5-.5zm0-12h-2c-.276 0-.5.224-.5.5s.224.5.5.5h2c.276 0 .5-.224.5-.5s-.224-.5-.5-.5zm5 0h-2c-.276 0-.5.224-.5.5s.224.5.5.5h2c.276 0 .5-.224.5-.5s-.224-.5-.5-.5zm-5 4h-2c-.276 0-.5.224-.5.5s.224.5.5.5h2c.276 0 .5-.224.5-.5s-.224-.5-.5-.5zm5 0h-2c-.276 0-.5.224-.5.5s.224.5.5.5h2c.276 0 .5-.224.5-.5s-.224-.5-.5-.5zm10.5 12.949v.551c0 .827-.673 1.5-1.5 1.5s-1.5-.673-1.5-1.5v-.5h-5v.5c0 .827-.673 1.5-1.5 1.5s-1.5-.673-1.5-1.5v-.551c-1.14-.232-2-1.242-2-2.449 0-1.417.226-2.718.67-3.962l.911-2.552c.638-1.786 2.341-2.986 4.238-2.986h3.361c1.897 0 3.601 1.2 4.238 2.986l.911 2.552c.444 1.244.67 2.545.67 3.867 0 1.291-.86 2.31-2 2.544zm-11.428-5.949h11.855c-.025-.116-.912-2.556-.95-2.678-.496-1.389-1.821-2.322-3.297-2.322h-3.361c-1.476 0-2.801.934-3.297 2.322-.038.121-.925 2.562-.95 2.678zm2.428 6h-1v.5c0 .275.225.5.5.5s.5-.225.5-.5zm8 .5v-.5h-1v.5c0 .275.225.5.5.5s.5-.225.5-.5zm2-3c0-.88-.102-1.705-.288-2.5h-2.712v1.5c0 .276-.224.5-.5.5s-.5-.224-.5-.5v-1.5h-5v1.5c0 .276-.224.5-.5.5s-.5-.224-.5-.5v-1.5h-2.713c-.185.787-.287 1.591-.287 2.405 0 .922.673 1.595 1.5 1.595h10c.827 0 1.5-.673 1.5-1.5z"/></svg>