<?xml version="1.0" encoding="UTF-8"?>
<svg xmlns="http://www.w3.org/2000/svg" id="Layer_1" data-name="Layer 1" viewBox="0 0 24 24">
  <path d="m24,16.745c0,.519-.364,1.29-1.365,1.29h-.385l-.413,1.945c-.372,1.75-1.939,3.02-3.728,3.02h-1.11v.5c0,.276-.224.5-.5.5s-.5-.224-.5-.5v-1c0-.276.224-.5.5-.5h1.61c1.319,0,2.475-.937,2.749-2.228l.497-2.341c.049-.231.251-.396.488-.396h.792c.105,0,.353,0,.365-.3,0-.673-2.152-6.021-3.303-7.444-1.891-2.524-4.992-3.725-8.099-3.145-3.595.669-6.298,3.742-6.573,7.473-.149,2.024.559,4.204,1.941,5.982.676.869,1.034,1.861,1.034,2.869v1.03c0,.276-.224.5-.5.5s-.5-.224-.5-.5v-1.03c0-.783-.285-1.562-.823-2.254-1.533-1.971-2.317-4.402-2.149-6.669.308-4.184,3.346-7.631,7.387-8.383,3.487-.648,6.961.697,9.071,3.514,1.164,1.439,3.514,7.017,3.514,8.068ZM10.78,3c.023,0,.046-.001.07-.005.273-.039.464-.292.425-.565l-.281-2c-.038-.273-.29-.465-.564-.426-.273.038-.464.291-.426.564l.281,2c.035.25.249.43.495.43Zm-5.184,1.986c.097.138.252.212.409.212.1,0,.2-.03.288-.091.226-.159.28-.471.121-.697l-1.164-1.65c-.16-.226-.472-.279-.697-.121-.226.159-.28.471-.121.697l1.164,1.65Zm-2.542,3.295l-1.78-.956c-.244-.13-.546-.04-.677.204-.131.243-.04.546.204.677l1.78.956c.076.041.157.06.236.06.178,0,.351-.095.441-.263.131-.244.04-.547-.204-.677Zm12.971-5.015c.057.021.114.03.171.03.204,0,.396-.126.47-.329l.692-1.898c.095-.259-.039-.546-.299-.641-.258-.093-.546.04-.641.299l-.692,1.897c-.095.26.039.546.298.641Zm4.756,2.78c.121,0,.241-.043.337-.13l1.493-1.36c.204-.187.219-.502.033-.707-.187-.205-.503-.218-.707-.033l-1.493,1.36c-.204.186-.219.502-.033.707.099.108.234.163.37.163Zm-5.368,8.953h-1.195c-.139,0-.27.058-.358.158-.474.534-1.164.831-1.861.83v5.512c0,.276-.224.5-.5.5s-.5-.224-.5-.5v-4.807c-.381.196-.803.308-1.245.308-.241,0-.486-.031-.731-.095-.937-.243-1.696-1.007-1.935-1.947-.272-1.074.104-2.173.941-2.845-.02-.125-.03-.247-.03-.366,0-1.358,1.053-2.474,2.386-2.575.454-.722,1.251-1.173,2.114-1.173.784,0,1.52.376,1.989,1h.011c.916,0,1.758.507,2.193,1.307.965.524,1.478,1.612,1.255,2.71-.234,1.149-1.299,1.983-2.534,1.983Zm.7-3.865c-.111-.05-.2-.139-.25-.25-.263-.582-.899-.957-1.506-.871-.205.027-.457-.064-.558-.244-.267-.476-.766-.771-1.301-.771-.584,0-1.119.346-1.363.882-.084.187-.285.305-.477.292-.013,0-.09-.009-.103-.01-.848,0-1.558.711-1.558,1.583,0,.133.023.272.072.44.064.218-.026.452-.221.569-.679.41-.99,1.178-.792,1.956.147.582.636,1.075,1.216,1.225.66.171,1.304-.041,1.741-.516.035-.214.199-.376.413-.408.093-.044.196-.063.301-.042.495.092,1.032-.081,1.382-.477.278-.315.682-.496,1.107-.496h1.195c.761,0,1.415-.497,1.554-1.182.142-.7-.209-1.392-.854-1.683Z"/>
</svg>
