<svg id="Layer_1" viewBox="0 0 24 24" xmlns="http://www.w3.org/2000/svg" data-name="Layer 1"><path d="m24 16.621c0 1.774-.863 3.449-2.311 4.481-.438.312-.689.77-.689 1.256v1.142c0 .276-.224.5-.5.5s-.5-.224-.5-.5v-1.142c0-.814.404-1.568 1.109-2.071 1.184-.844 1.891-2.215 1.891-3.667 0-1.405-.641-2.704-1.759-3.563-.128-.097-.251.008-.241.093v2.358c0 1.274-.895 2.383-2.081 2.578-.729.124-1.474-.083-2.035-.559s-.884-1.171-.884-1.906v-2.475c-.008-.128-.132-.171-.187-.129-1.152.858-1.813 2.172-1.813 3.604 0 1.452.707 2.822 1.891 3.667.705.502 1.109 1.257 1.109 2.071v1.142c0 .276-.224.5-.5.5s-.5-.224-.5-.5v-1.142c0-.486-.251-.944-.689-1.256-1.447-1.032-2.311-2.707-2.311-4.481 0-1.751.808-3.357 2.216-4.406.332-.248.772-.283 1.146-.095.394.197.638.591.638 1.026v2.475c0 .44.193.857.531 1.144.341.29.775.409 1.226.335.709-.117 1.243-.801 1.243-1.591v-2.358c0-.434.24-.821.627-1.012.396-.197.867-.147 1.224.126 1.366 1.05 2.149 2.638 2.149 4.356zm-.5-16.621c-.276 0-.5.224-.5.5v3c0 1.378-1.121 2.5-2.5 2.5h-2.539l-.225-.906c-.883-2.446-3.188-4.091-5.738-4.094-2.548.003-4.853 1.648-5.75 4.144l-.212.856h-2.536c-1.379 0-2.5-1.122-2.5-2.5v-3c0-.276-.224-.5-.5-.5s-.5.224-.5.5v3c0 1.93 1.57 3.5 3.5 3.5h2.288l-.991 4h-4.297c-.276 0-.5.224-.5.5s.224.5.5.5h4.049l-.449 1.813c-.082.411-.095.815-.101 1.171 0 .7.096 1.372.258 2.016h-.757c-1.93 0-3.5 1.57-3.5 3.5v3c0 .276.224.5.5.5s.5-.224.5-.5v-3c0-1.378 1.121-2.5 2.5-2.5h1.075c1.17 2.954 4.016 4.996 7.425 5 .538 0 1.076-.054 1.599-.159.271-.054.446-.318.392-.588-.055-.272-.322-.448-.589-.392-.458.092-.93.139-1.4.139-3.921-.005-6.996-3.087-7.002-7.008.006-.387.021-.686.076-.96l2.129-8.598c.74-2.052 2.667-3.431 4.794-3.434 2.129.002 4.057 1.382 4.782 3.384l1.298 5.236c.066.268.333.43.605.365.269-.066.432-.337.365-.605l-.839-3.38h2.29c1.93 0 3.5-1.57 3.5-3.5v-3c0-.276-.224-.5-.5-.5z"/></svg>