<?xml version="1.0" encoding="UTF-8"?>
<svg xmlns="http://www.w3.org/2000/svg" id="Layer_1" data-name="Layer 1" viewBox="0 0 24 24">
  <path d="M19.5,0H4.5C2.019,0,0,2.019,0,4.5v15c0,2.481,2.019,4.5,4.5,4.5h15c2.481,0,4.5-2.019,4.5-4.5V4.5c0-2.481-2.019-4.5-4.5-4.5Zm3.5,19.5c0,1.93-1.57,3.5-3.5,3.5H4.5c-1.93,0-3.5-1.57-3.5-3.5V4.5c0-1.93,1.57-3.5,3.5-3.5h15c1.93,0,3.5,1.57,3.5,3.5v15Zm-6.5-12.5c-.827,0-1.5,.673-1.5,1.5v2.403c-.045-.041-.083-.086-.134-.123l-5.498-3.495c-.454-.327-1.044-.375-1.546-.123-.507,.255-.822,.767-.822,1.334v7.008c0,.568,.315,1.079,.822,1.335,.217,.109,.451,.162,.681,.162,.308,0,.608-.095,.852-.276l5.541-3.524c.039-.029,.068-.066,.104-.098v2.397c0,.827,.673,1.5,1.5,1.5s1.5-.673,1.5-1.5v-7c0-.827-.673-1.5-1.5-1.5Zm-2.17,5.376l-5.541,3.525c-.153,.113-.347,.13-.517,.044s-.272-.251-.272-.441v-7.008c0-.19,.102-.355,.272-.441,.072-.036,.148-.054,.224-.054,.103,0,.205,.033,.293,.099l5.511,3.503c.127,.094,.2,.239,.2,.397s-.073,.303-.17,.376Zm2.67,3.124c0,.275-.224,.5-.5,.5s-.5-.225-.5-.5v-7c0-.276,.224-.5,.5-.5s.5,.224,.5,.5v7Z"/>
</svg>
