<svg id="Layer_1" viewBox="0 0 24 24" xmlns="http://www.w3.org/2000/svg" data-name="Layer 1"><path d="m22.5 21h-.7l-2.333-17.108c-.302-2.219-2.219-3.892-4.459-3.892h-6.017c-2.24 0-4.157 1.673-4.459 3.892l-2.332 17.108h-.7c-.827 0-1.5.673-1.5 1.5s.673 1.5 1.5 1.5h21c.827 0 1.5-.673 1.5-1.5s-.673-1.5-1.5-1.5zm-16.976-16.973c.235-1.726 1.726-3.027 3.468-3.027h6.017c1.742 0 3.233 1.301 3.468 3.027l2.315 16.973h-17.583zm16.976 18.973h-21c-.276 0-.5-.225-.5-.5s.224-.5.5-.5h21c.276 0 .5.225.5.5s-.224.5-.5.5zm-12-10c0 .552-.448 1-1 1s-1-.448-1-1 .448-1 1-1 1 .448 1 1zm5 0c0 .552-.448 1-1 1s-1-.448-1-1 .448-1 1-1 1 .448 1 1zm-2.5 4c0 .552-.448 1-1 1s-1-.448-1-1 .448-1 1-1 1 .448 1 1zm0-8c0 .552-.448 1-1 1s-1-.448-1-1 .448-1 1-1 1 .448 1 1zm-5 8c0 .552-.448 1-1 1s-1-.448-1-1 .448-1 1-1 1 .448 1 1zm7.5-12c0 .552-.448 1-1 1s-1-.448-1-1 .448-1 1-1 1 .448 1 1zm2.5 12c0 .552-.448 1-1 1s-1-.448-1-1 .448-1 1-1 1 .448 1 1zm-10-8c0 .552-.448 1-1 1s-1-.448-1-1 .448-1 1-1 1 .448 1 1zm10 0c0 .552-.448 1-1 1s-1-.448-1-1 .448-1 1-1 1 .448 1 1zm-7.5-4c0 .552-.448 1-1 1s-1-.448-1-1 .448-1 1-1 1 .448 1 1z"/></svg>