<?xml version="1.0" encoding="UTF-8"?>
<svg xmlns="http://www.w3.org/2000/svg" id="Layer_1" data-name="Layer 1" viewBox="0 0 24 24">
  <path d="M21.823,15.51l-3.354,5.812c-.307,.531-.469,1.136-.469,1.75v.428c0,.276-.224,.5-.5,.5s-.5-.224-.5-.5v-.428c0-.79,.209-1.568,.604-2.25l2.896-5.018-2.734,3.038c-.662,.736-1.61,1.159-2.602,1.159h-6.328c-.991,0-1.939-.422-2.602-1.159l-2.733-3.037,2.895,5.017c.395,.682,.604,1.46,.604,2.25v.428c0,.276-.224,.5-.5,.5s-.5-.224-.5-.5v-.428c0-.614-.162-1.219-.469-1.75l-3.346-5.797c-.361-.677-.168-1.505,.442-1.941l4.599-3.002c.23-.15,.542-.086,.692,.145s.086,.541-.146,.692l-4.33,2.826,3.535,3.928c.473,.526,1.149,.828,1.857,.828h6.328c.708,0,1.385-.302,1.857-.828l3.535-3.928-4.33-2.826c-.231-.151-.296-.46-.146-.692,.151-.231,.461-.295,.692-.145l4.581,2.99c.628,.448,.821,1.276,.469,1.938ZM2.66,2.984c-.223-.448-.135-.984,.218-1.336l.84-.839c.486-.51,1.403-.354,1.69,.286l.545,1.264,.704-.704c.545-.58,1.602-.246,1.712,.541l.625,4.208c.095,.558-.381,1.111-.945,1.097-.361,.002-.699-.206-.858-.53l-.663-1.347-.675,.711c-.464,.497-1.329,.368-1.633-.23l-1.56-3.12Zm.895-.446l1.553,3.105,1.188-1.229c.095-.1,.227-.156,.362-.156,.024,0,.05,.002,.075,.006,.161,.024,.301,.126,.373,.273l.979,1.988-.701-4.16s-.002-.004-.002-.004l-1.243,1.224c-.117,.117-.285,.168-.447,.138-.163-.031-.3-.141-.365-.293l-.828-1.92-.914,.846c-.049,.048-.061,.122-.03,.183ZM15.217,6.679c-.173-.209-.25-.482-.212-.75l.626-4.21c.108-.788,1.171-1.121,1.712-.541l.704,.703,.536-1.244c.295-.662,1.202-.819,1.699-.306l.84,.839c.353,.353,.44,.889,.218,1.335l-1.553,3.107c-.304,.61-1.165,.737-1.631,.252l-.684-.72-.662,1.345c-.282,.61-1.177,.716-1.594,.188Zm.777-.605l.899-2.013c.072-.146,.212-.249,.373-.273,.164-.026,.325,.031,.438,.15l1.168,1.231,1.573-3.109c.03-.06,.018-.134-.03-.182l-.84-.839-.902,1.915c-.065,.152-.202,.262-.365,.293-.163,.031-.33-.02-.447-.138l-1.243-1.228-.623,4.192Zm-3.994,9.927c-1.692,0-3.209-1.072-3.772-2.667-.093-.262-.377-.397-.639-.305-.26,.092-.396,.377-.305,.638,.705,1.994,2.601,3.333,4.716,3.333s4.011-1.339,4.716-3.333c.092-.26-.045-.546-.305-.638-.262-.09-.546,.044-.639,.305-.563,1.595-2.08,2.667-3.772,2.667Zm-3.727-7.333c-.184,.206-.166,.521,.04,.706,.204,.185,.521,.168,.706-.04,.757-.847,1.844-1.333,2.98-1.333s2.224,.486,2.98,1.333c.184,.207,.502,.224,.706,.04,.206-.184,.224-.5,.04-.706-.947-1.06-2.306-1.667-3.727-1.667s-2.779,.607-3.727,1.667Z"/>
</svg>
