<?xml version="1.0" encoding="UTF-8"?>
<svg xmlns="http://www.w3.org/2000/svg" id="Layer_1" data-name="Layer 1" viewBox="0 0 24 24">
  <path d="M15,11.5v4c0,.276-.224,.5-.5,.5s-.5-.224-.5-.5v-3.863c-1.91,1.493-4,3.697-4,5.363,.002,.076,.087,2,3.5,2h1c.276,0,.5,.224,.5,.5s-.224,.5-.5,.5h-1c-4.449,0-4.5-2.97-4.5-3,0-1.961,2.077-4.31,4.186-6h-3.686c-.276,0-.5-.224-.5-.5s.224-.5,.5-.5h4c.827,0,1.5,.673,1.5,1.5Zm9-4v11c0,2.481-2.019,4.5-4.5,4.5H4.5c-2.481,0-4.5-2.019-4.5-4.5V5.5C0,3.019,2.019,1,4.5,1h3.028c.386,0,.772,.091,1.118,.264l3.156,1.578c.207,.104,.439,.158,.671,.158h7.028c2.481,0,4.5,2.019,4.5,4.5ZM1,5.5v1.5H22.949c-.245-1.692-1.691-3-3.449-3h-7.028c-.386,0-.772-.091-1.118-.264l-3.156-1.578c-.207-.104-.439-.158-.671-.158h-3.028c-1.93,0-3.5,1.57-3.5,3.5Zm22,13V8H1v10.5c0,1.93,1.57,3.5,3.5,3.5h15c1.93,0,3.5-1.57,3.5-3.5Z"/>
</svg>
