<svg id="Layer_1" viewBox="0 0 24 24" xmlns="http://www.w3.org/2000/svg" data-name="Layer 1"><path d="m8 6.5v-2.308c0-.657.535-1.192 1.192-1.192h2.308c.276 0 .5.224.5.5s-.224.5-.5.5h-1.793l5.293 5.293v-1.793c0-.276.224-.5.5-.5s.5.224.5.5v2.308c0 .657-.535 1.192-1.192 1.192h-2.308c-.276 0-.5-.224-.5-.5s.224-.5.5-.5h1.793l-5.293-5.293v1.793c0 .276-.224.5-.5.5s-.5-.224-.5-.5zm-3 5v-9c0-1.379 1.122-2.5 2.5-2.5h9c1.378 0 2.5 1.121 2.5 2.5v9c0 1.379-1.122 2.5-2.5 2.5h-9c-1.378 0-2.5-1.121-2.5-2.5zm1 0c0 .827.673 1.5 1.5 1.5h9c.827 0 1.5-.673 1.5-1.5v-9c0-.827-.673-1.5-1.5-1.5h-9c-.827 0-1.5.673-1.5 1.5zm15.75-8.897c-.241-.14-.546-.057-.683.183-.139.239-.057.545.182.683 1.08.624 1.75 1.786 1.75 3.032v8.999c0 1.93-1.57 3.5-3.5 3.5h-14.999c-1.93 0-3.5-1.57-3.5-3.5v-9c0-1.246.671-2.408 1.75-3.032.239-.138.321-.443.182-.683-.138-.239-.443-.322-.683-.183-1.387.802-2.249 2.296-2.249 3.898v9c0 2.481 2.019 4.5 4.5 4.5h7v3h-5c-.276 0-.5.224-.5.5s.224.5.5.5h11c.276 0 .5-.224.5-.5s-.224-.5-.5-.5h-5v-3h7c2.481 0 4.5-2.019 4.5-4.5v-9c0-1.602-.862-3.096-2.25-3.897z"/></svg>