<svg id="Layer_1" viewBox="0 0 24 24" xmlns="http://www.w3.org/2000/svg" data-name="Layer 1"><path d="m19.5 0h-15c-2.481 0-4.5 2.019-4.5 4.5v9c0 2.481 2.019 4.5 4.5 4.5h4c.276 0 .5-.224.5-.5s-.224-.5-.5-.5h-4c-1.93 0-3.5-1.57-3.5-3.5v-5.5h22v2.5c0 .276.224.5.5.5s.5-.224.5-.5v-6c0-2.481-2.019-4.5-4.5-4.5zm-15 1h15c1.758 0 3.204 1.308 3.449 3h-21.898c.245-1.692 1.691-3 3.449-3zm-3.5 6v-2h22v2zm1.942 6c0 1.103.897 2 2 2s2-.897 2-2-.897-2-2-2-2 .897-2 2zm3 0c0 .551-.448 1-1 1s-1-.449-1-1 .448-1 1-1 1 .449 1 1zm11.558-2c-3.584 0-6.5 2.916-6.5 6.5s2.916 6.5 6.5 6.5 6.5-2.916 6.5-6.5-2.916-6.5-6.5-6.5zm0 12c-3.032 0-5.5-2.467-5.5-5.5s2.468-5.5 5.5-5.5 5.5 2.467 5.5 5.5-2.468 5.5-5.5 5.5zm3.35-6.857c.192.199.187.515-.012.707l-2.703 2.614c-.36.355-.835.534-1.311.534s-.95-.177-1.312-.532l-1.364-1.345c-.196-.194-.198-.511-.004-.707.193-.197.51-.199.707-.005l1.362 1.344c.335.33.885.33 1.222-.004l2.707-2.617c.198-.191.517-.187.707.012z"/></svg>