<?xml version="1.0" encoding="UTF-8"?>
<svg xmlns="http://www.w3.org/2000/svg" id="Outline" viewBox="0 0 24 24">
  <path d="m23.991,6.594l-.918,4.785c-.42,2.1-2.276,3.621-4.414,3.621H6.02c.247,1.711,1.732,3,3.462,3h10.017c.276,0,.5.224.5.5s-.224.5-.5.5h-10.017c-2.234,0-4.15-1.668-4.457-3.881L3.245,2.294c-.103-.738-.742-1.294-1.486-1.294H.5c-.276,0-.5-.224-.5-.5s.224-.5.5-.5h1.259c1.24,0,2.305.927,2.476,2.156l.256,1.844h6.009c.276,0,.5.224.5.5s-.224.5-.5.5h-5.87l1.25,9h12.78c1.663,0,3.106-1.183,3.432-2.813l.917-4.781c.052-.271.317-.446.585-.397.271.052.449.314.397.585Zm-14.991,15.406c0,1.103-.897,2-2,2s-2-.897-2-2,.897-2,2-2,2,.897,2,2Zm-1,0c0-.551-.449-1-1-1s-1,.449-1,1,.449,1,1,1,1-.449,1-1Zm11,0c0,1.103-.897,2-2,2s-2-.897-2-2,.897-2,2-2,2,.897,2,2Zm-1,0c0-.551-.449-1-1-1s-1,.449-1,1,.449,1,1,1,1-.449,1-1Zm-2.155-15.689c.477.456,1.097.683,1.717.683.639,0,1.278-.241,1.759-.722l4.554-4.554c.195-.195.195-.512,0-.707s-.512-.195-.707,0l-4.554,4.554c-.566.566-1.499.577-2.078.023l-2.69-2.572c-.2-.192-.517-.185-.707.016-.191.2-.184.516.016.707l2.691,2.572Z"/>
</svg>
