<?xml version="1.0" encoding="UTF-8"?>
<svg xmlns="http://www.w3.org/2000/svg" id="Layer_1" data-name="Layer 1" viewBox="0 0 24 24">
  <path d="M20,0H4C1.794,0,0,1.794,0,4v5.802c0,1.198,.627,2.313,1.679,2.981,1.454,.922,2.321,2.499,2.321,4.217v6c0,.552,.449,1,1,1h1c.551,0,1-.448,1-1v-5.764c0-2.504,1.759-4.72,4.091-5.154,.271-.051,.451-.312,.4-.583s-.312-.447-.583-.4c-2.798,.521-4.909,3.16-4.909,6.138v5.764h-1v-6c0-2.062-1.041-3.954-2.785-5.061-.761-.484-1.215-1.283-1.215-2.137V5H23v4.802c0,.195-.023,.39-.07,.578-.066,.268,.097,.539,.365,.605,.267,.064,.539-.097,.605-.365,.066-.267,.1-.542,.1-.818V4c0-2.206-1.794-4-4-4ZM10,1h4v3h-4V1Zm-1,3H5V1h4v3ZM15,1h4v3h-4V1ZM4,1v3H1c0-1.654,1.346-3,3-3Zm16,3V1c1.654,0,3,1.346,3,3h-3Zm-2.5,7c-3.584,0-6.5,2.916-6.5,6.5s2.916,6.5,6.5,6.5,6.5-2.916,6.5-6.5-2.916-6.5-6.5-6.5Zm0,12c-3.033,0-5.5-2.468-5.5-5.5s2.467-5.5,5.5-5.5,5.5,2.468,5.5,5.5-2.467,5.5-5.5,5.5Zm3.35-6.857c.192,.198,.187,.515-.012,.707l-2.703,2.614c-.36,.355-.835,.533-1.311,.533s-.949-.177-1.312-.531l-1.364-1.347c-.197-.193-.199-.51-.005-.707,.194-.195,.511-.198,.707-.004l1.363,1.345c.337,.33,.886,.326,1.223-.004l2.706-2.618c.2-.191,.516-.187,.707,.012Z"/>
</svg>
