<?xml version="1.0" encoding="UTF-8"?>
<svg xmlns="http://www.w3.org/2000/svg" id="Layer_1" data-name="Layer 1" viewBox="0 0 24 24">
  <path d="m23.995,12.789c-.085,2.283-1.254,4.382-3.207,5.758-.226.158-.537.104-.697-.121-.158-.226-.104-.538.121-.697,1.696-1.194,2.711-3.008,2.783-4.977.116-3.131-2.015-5.899-5.065-6.584-.736-.165-1.347-.637-1.677-1.294-1.414-2.821-4.468-4.326-7.598-3.744-2.737.508-4.951,2.691-5.509,5.433-.167.82-.191,1.646-.073,2.452.13.894-.119,1.715-.686,2.255-.894.854-1.387,2.001-1.388,3.23,0,1.909,1.006,3.461,2.689,4.15.256.104.378.396.273.652-.079.193-.267.311-.463.311-.063,0-.128-.012-.189-.037-2.042-.837-3.311-2.782-3.311-5.076,0-1.504.604-2.908,1.697-3.953.329-.313.469-.819.386-1.387-.134-.921-.106-1.862.083-2.796C2.805,3.227,5.339.728,8.474.146c3.572-.665,7.06,1.057,8.674,4.279.194.388.56.668,1.001.767,3.521.79,5.98,3.984,5.847,7.597Zm-11.995-.789h-1.751l2.646-2.646c.195-.195.195-.512,0-.707s-.512-.195-.707,0l-2.75,2.75c-.297.296-.456.707-.438,1.126.017.377.172.73.438.995l2.75,2.75c.098.098.226.146.354.146s.256-.049.354-.146c.195-.195.195-.512,0-.707l-2.56-2.561h1.665c1.703,0,3.272.854,4.2,2.285.952,1.47,1.058,3.296.29,5.011-.432.963-1.231,1.763-2.194,2.194-1.716.769-3.542.661-5.011-.29-1.431-.928-2.285-2.497-2.285-4.2,0-1.037.314-2.031.909-2.875.158-.226.104-.538-.121-.697-.226-.158-.537-.104-.697.121-.714,1.014-1.091,2.207-1.091,3.451,0,2.043,1.025,3.927,2.742,5.039.986.639,2.102.962,3.25.962.9,0,1.82-.199,2.712-.599,1.202-.538,2.16-1.496,2.698-2.698.909-2.029.777-4.202-.363-5.962-1.112-1.717-2.996-2.742-5.039-2.742Z"/>
</svg>
