<svg id="Layer_1" viewBox="0 0 24 24" xmlns="http://www.w3.org/2000/svg" data-name="Layer 1"><path d="m10.5 0c-4.632 0-7.5 2.076-7.5 4 0 1.103.897 2 2 2 .398 0 .788-.118 1.119-.319.279.769 1.017 1.319 1.881 1.319.398 0 .788-.118 1.119-.319.279.769 1.017 1.319 1.881 1.319.876 0 1.614-.569 1.884-1.354.703 1.152 1.116 2.477 1.116 3.854 0 .439-.056.878-.137 1.313-1.807-1.729-4.233-2.813-6.863-2.813-4.125 0-7 2.108-7 4 0 1.103.897 2 2 2 .398 0 .788-.117 1.119-.319.279.769 1.017 1.319 1.881 1.319.398 0 .788-.117 1.119-.319.279.769 1.017 1.319 1.881 1.319.708 0 1.327-.372 1.682-.927.202.609.318 1.256.318 1.927 0 2.804-2.196 5-5 5-1.665 0-3.156-.761-4.091-2.087-.16-.225-.471-.281-.697-.12-.226.159-.28.471-.121.696 1.125 1.596 2.915 2.511 4.909 2.511 3.364 0 6-2.636 6-6-.012-2.835-1.679-5.407-4.312-6.482-.255-.104-.547.019-.651.275s.02.547.275.651c1.123.455 2.046 1.231 2.688 2.201v.355c0 .552-.449 1-1 1s-1-.448-1-1v-.5c0-.243-.175-.451-.416-.493-.235-.038-.474.097-.556.326-.132.374-.584.667-1.029.667-.551 0-1-.448-1-1v-.5c0-.243-.175-.451-.416-.493-.236-.039-.475.097-.556.326-.132.374-.584.667-1.029.667-.551 0-1-.448-1-1 0-1.047 2.061-3 6-3 4.878 0 9 4.121 9 9 0 2.344-.938 4.258-.947 4.277-.123.247-.022.547.225.67.241.123.546.025.67-.224.043-.086 1.053-2.136 1.053-4.724 0-2.352-.863-4.543-2.282-6.273.187-.699.281-1.513.281-2.227 0-3.396-2.134-6.558-5.309-7.869-.254-.104-.547.015-.653.271-.105.255.016.548.271.653 1.045.431 1.96 1.09 2.7 1.9-.013.003-.009.523-.009.545 0 .551-.449 1-1 1s-1-.449-1-1v-.5c0-.244-.175-.452-.416-.493-.238-.042-.475.096-.556.326-.132.374-.584.667-1.029.667-.551 0-1-.449-1-1v-.5c0-.244-.175-.452-.416-.493-.235-.038-.474.096-.556.326-.132.374-.584.667-1.029.667-.551 0-1-.449-1-1 0-1.077 2.172-3 6.5-3 7.01 0 12.5 5.271 12.5 12 0 4.915-.397 7.115-.9 9.901l-.092.511c-.049.271.132.531.404.58.265.049.532-.13.58-.404l.092-.509c.512-2.835.916-5.074.916-10.079.004-7.289-5.926-12.999-13.496-12.999z"/></svg>