<svg id="Layer_1" viewBox="0 0 24 24" xmlns="http://www.w3.org/2000/svg" data-name="Layer 1"><path d="m13.375 22.825c-.289.074-.581.119-.875.146v-1.009c0-.276-.224-.5-.5-.5s-.5.224-.5.5v1.002c-.419-.038-.835-.111-1.239-.246l-5.544-1.848c-1.024-.342-1.712-1.296-1.709-2.377l.004-8.192 4.092 1.364c.262.088.536.133.814.133.911 0 1.767-.482 2.23-1.258l1.355-2.259v3.22c0 .276.223.5.499.5s.5-.224.5-.5v-3.221s1.356 2.26 1.356 2.26c.077.129.165.25.263.363.181.21.497.231.705.051.209-.181.231-.497.051-.706-.059-.068-.113-.143-.161-.223l-1.952-3.255 8.184-2.737c.254.217.484.463.667.746l1.162 1.794c.144.238.226.554.226.869 0 .178-.032.356-.095.527-.172.464-.539.819-1.009.976l-2.559.853c-.262.087-.403.37-.316.632.088.262.372.403.633.316l1.345-.448v1.202c0 .276.223.5.499.5s.5-.224.5-.5v-1.536c1.137-.285 2.013-1.337 2.001-2.522 0-.499-.131-.991-.377-1.399l-1.171-1.808c-.563-.869-1.417-1.522-2.397-1.837l-6.477-2.143c-1.018-.337-2.137-.338-3.16 0l-6.467 2.142c-.984.316-1.838.969-2.401 1.838l-1.18 1.823c-.237.394-.368.886-.368 1.384-.012 1.187.868 2.241 2.008 2.524l-.004 8.525c-.004 1.512.958 2.849 2.393 3.327l5.544 1.848c.668.222 1.361.334 2.056.334.545 0 1.09-.069 1.625-.207.268-.069.428-.342.359-.609-.069-.268-.34-.429-.609-.359zm-2.641-21.621c.819-.271 1.716-.27 2.531 0 0 0 6.51 2.158 6.524 2.163l-7.793 2.606-7.784-2.604c.018-.006 6.523-2.165 6.523-2.165zm-9.634 6.767c-.063-.172-.096-.35-.096-.528 0-.315.082-.631.217-.855l1.171-1.808c.182-.282.411-.526.664-.742l8.186 2.737-1.95 3.251c-.371.621-1.176.922-1.87.691l-5.314-1.771c-.469-.156-.836-.511-1.007-.974zm19.754 12.176c.705-.862 1.146-1.948 1.146-3.146 0-2.757-2.243-5-5-5s-5 2.243-5 5 2.243 5 5 5c1.198 0 2.284-.441 3.146-1.146l3 3c.195.195.512.195.707 0s.195-.512 0-.707l-3-3zm-3.854.854c-2.206 0-4-1.794-4-4s1.794-4 4-4 4 1.794 4 4-1.794 4-4 4z"/></svg>