<svg id="Layer_1" viewBox="0 0 24 24" xmlns="http://www.w3.org/2000/svg" data-name="Layer 1"><path d="m23.997 5.618c-.005-1.351-.919-2.539-2.222-2.889l-9.855-2.644c-.621-.16-1.27-.066-1.826.266-.537.322-.883.84-1.084 1.43-.277.815-.07 1.655.992 1.858v.871c0 .827.673 1.5 1.5 1.5h6.498v2h-4.999l1 1h7.498c1.341.029 2.532-1.165 2.499-2.506l-.002-.885zm-12.995-1.108v-.604l4.124 1.104h-3.625c-.275 0-.5-.224-.5-.5zm11.558 3.058c-.284.285-.661.442-1.06.442h-2.499v-2.719c-.039-.18-.187-.33-.371-.379l-8.498-2.274c-.211-.062-.278-.221-.165-.561.239-.715.982-1.226 1.7-1.024l9.849 2.643c.87.233 1.479 1.025 1.482 1.926l.002.885c0 .399-.155.776-.439 1.062zm-11.332 1.467c-.661-.661-1.54-1.025-2.474-1.025h-2.135c-.922 0-1.824.374-2.475 1.025l-3.12 3.121c-1.365 1.365-1.365 3.585 0 4.95l5.859 5.86c.66.661 1.539 1.025 2.474 1.025s1.813-.364 2.474-1.025l4.188-4.189c.661-.661 1.025-1.54 1.025-2.475s-.364-1.814-1.025-2.475zm-2.474-.025c.353 0 .693.077 1.006.215l-1.659 1.66c-.195.195-.513.196-.708 0l-1.694-1.695c.291-.115.603-.18.92-.18zm6.558 9.06-4.188 4.189c-.946.945-2.592.943-3.534 0l-5.859-5.86c-.974-.975-.974-2.561 0-3.536l3.113-3.114 1.842 1.844c.293.292.677.438 1.06.438s.768-.146 1.061-.438l1.781-1.783 4.723 4.724c.473.472.732 1.1.732 1.768s-.26 1.296-.732 1.768zm6.688-12.06c0 .552-.449 1-1 1s-1-.448-1-1 .449-1 1-1 1 .448 1 1z"/></svg>