<?xml version="1.0" encoding="UTF-8"?>
<svg xmlns="http://www.w3.org/2000/svg" id="Layer_1" data-name="Layer 1" viewBox="0 0 24 24">
  <path d="M23.379,8.477c-.394-.356-.917-.524-1.43-.464-6.617,.797-9.053,6.063-9.944,9.488-.002,0-.004-.001-.006-.001s-.004,.001-.006,.001c-.89-3.426-3.326-8.691-9.944-9.488-.512-.057-1.036,.107-1.43,.464-.408,.371-.635,.9-.621,1.45H0c.089,3.481,1.195,6.218,3.289,8.133,2.902,2.654,6.804,2.933,8.211,2.941v2.499c0,.276,.224,.5,.5,.5s.5-.224,.5-.5v-2.499c1.407-.008,5.31-.287,8.211-2.941,2.094-1.915,3.2-4.651,3.289-8.132h0c.014-.551-.213-1.08-.621-1.451ZM3.958,17.316c-1.882-1.725-2.877-4.219-2.958-7.414-.007-.26,.101-.51,.294-.685,.18-.165,.399-.242,.638-.211,7.97,.96,9.312,8.86,9.528,10.992-1.316-.022-4.916-.312-7.502-2.682Zm16.084,0c-2.587,2.37-6.186,2.659-7.502,2.682,.217-2.132,1.559-10.032,9.528-10.992,.032-.004,.063-.006,.095-.006,.197,0,.388,.075,.543,.217,.193,.176,.301,.425,.294,.686-.081,3.195-1.076,5.689-2.958,7.414ZM7.642,4.349c-.192-.198-.188-.514,.01-.707L10.944,.435c.267-.266,.634-.435,1.056-.435s.787,.166,1.061,.439l3.288,3.202c.198,.193,.202,.509,.01,.707-.099,.101-.229,.151-.358,.151-.126,0-.252-.047-.349-.142l-3.151-3.069V9.5c0,.276-.224,.5-.5,.5s-.5-.224-.5-.5V1.289l-3.151,3.069c-.196,.192-.512,.189-.707-.01Z"/>
</svg>
