<?xml version="1.0" encoding="UTF-8"?>
<svg xmlns="http://www.w3.org/2000/svg" id="Layer_1" data-name="Layer 1" viewBox="0 0 24 24">
  <path d="M24,23.5c0,.276-.224,.5-.5,.5H.5c-.276,0-.5-.224-.5-.5s.224-.5,.5-.5H23.5c.276,0,.5,.224,.5,.5ZM.282,17.95c.173,.084,4.32,2.049,11.717,2.05h.005c7.398,0,11.541-1.967,11.713-2.05,.249-.12,.352-.419,.232-.668-.12-.247-.419-.353-.667-.232-.041,.02-4.131,1.95-11.281,1.95S.758,17.069,.717,17.05c-.248-.121-.547-.015-.667,.233-.12,.248-.016,.547,.232,.667Zm11.712-1.95h0s0,0,.004,0h0c7.292-.002,11.692-4.96,11.876-5.172,.181-.208,.16-.523-.048-.705-.208-.181-.522-.16-.706,.048-.042,.048-4.3,4.828-11.125,4.829-6.825,0-11.079-4.78-11.121-4.829-.182-.208-.499-.229-.706-.048-.208,.182-.23,.497-.049,.705,.184,.211,4.58,5.17,11.872,5.172Zm-1.047-5.435c.58,.581,1.525,.58,2.105,0l3.301-3.3c.195-.195,.195-.512,0-.707s-.512-.195-.707,0l-3.146,3.146V.5c0-.276-.224-.5-.5-.5s-.5,.224-.5,.5V9.704l-3.146-3.146c-.195-.195-.512-.195-.707,0s-.195,.512,0,.707l3.301,3.3Z"/>
</svg>
