<svg id="Layer_1" viewBox="0 0 24 24" xmlns="http://www.w3.org/2000/svg" data-name="Layer 1"><path d="m18.208 21.762c.195.195.195.512 0 .707l-.355.355c-.783.783-1.811 1.174-2.839 1.174s-2.056-.391-2.839-1.174c-1.565-1.565-1.565-4.112 0-5.678l1.42-1.42c.758-.758 1.766-1.176 2.839-1.176s2.08.418 2.838 1.176c.275.274.509.587.693.928.132.243.042.546-.201.678s-.546.042-.678-.201c-.139-.256-.314-.491-.521-.697-1.139-1.141-3.125-1.139-4.264 0l-1.42 1.42c-1.175 1.175-1.175 3.088 0 4.264s3.088 1.176 4.264 0l.355-.355c.195-.195.512-.195.707 0zm4.616-9.586c-1.565-1.565-4.112-1.565-5.678 0l-.355.355c-.195.195-.195.512 0 .707s.512.195.707 0l.355-.355c1.176-1.176 3.088-1.176 4.264 0s1.175 3.088 0 4.264l-1.42 1.42c-1.139 1.14-3.124 1.14-4.264 0-.207-.207-.382-.442-.521-.698-.132-.243-.436-.332-.678-.201-.243.131-.333.435-.201.678.185.341.418.654.693.928.758.758 1.766 1.176 2.838 1.176s2.081-.418 2.839-1.176l1.42-1.42c1.565-1.565 1.565-4.112 0-5.678zm-18.324-1.176c-.276 0-.5.224-.5.5s.224.5.5.5h10c.276 0 .5-.224.5-.5s-.224-.5-.5-.5zm6 4h-6c-.276 0-.5.224-.5.5s.224.5.5.5h6c.276 0 .5-.224.5-.5s-.224-.5-.5-.5zm-.5 8.5c0 .276-.224.5-.5.5h-5c-2.481 0-4.5-2.019-4.5-4.5v-15c0-2.481 2.019-4.5 4.5-4.5h5.515c1.736 0 3.369.676 4.596 1.904l3.485 3.485c.824.824 1.413 1.857 1.702 2.987.038.15.005.309-.089.431s-.241.193-.395.193h-5.813c-1.378 0-2.5-1.122-2.5-2.5v-5.413c-.322-.058-.651-.087-.985-.087h-5.516c-1.93 0-3.5 1.57-3.5 3.5v15c0 1.93 1.57 3.5 3.5 3.5h5c.276 0 .5.224.5.5zm2-17c0 .827.673 1.5 1.5 1.5h5.129c-.276-.712-.698-1.361-1.24-1.904l-3.485-3.485c-.551-.551-1.198-.971-1.904-1.243z"/></svg>