<?xml version="1.0" encoding="UTF-8"?>
<svg xmlns="http://www.w3.org/2000/svg" id="Layer_1" data-name="Layer 1" viewBox="0 0 24 24">
  <path d="m19.273,12.008c-.631-2.653-1.273-5.912-1.273-7.508,0-.827.673-1.5,1.5-1.5s1.5.673,1.5,1.5c0,.276.224.5.5.5s.5-.224.5-.5c0-1.379-1.122-2.5-2.5-2.5s-2.5,1.121-2.5,2.5c0,.577.072,1.314.185,2.111l-6.052,4.707-5.91-4.471c-.255-.186-.194-.448-.169-.524.025-.075.13-.323.446-.323h4c.276,0,.5-.224.5-.5s-.224-.5-.5-.5h-4c-.647,0-1.196.397-1.396,1.014s.007,1.261.523,1.637l5.69,4.303-1.855,1.443c-.899-.864-2.12-1.396-3.462-1.396-2.757,0-5,2.243-5,5s2.243,5,5,5,5-2.243,5-5c0-1.055-.329-2.034-.889-2.842l8.252-6.418c.279,1.622.656,3.303.894,4.315-2.406.36-4.257,2.44-4.257,4.945,0,2.757,2.243,5,5,5s5-2.243,5-5c0-2.665-2.097-4.85-4.727-4.992Zm-14.273,8.992c-2.206,0-4-1.794-4-4s1.794-4,4-4,4,1.794,4,4-1.794,4-4,4Zm14,0c-2.206,0-4-1.794-4-4s1.794-4,4-4,4,1.794,4,4-1.794,4-4,4Z"/>
</svg>
