<?xml version="1.0" encoding="UTF-8"?>
<svg xmlns="http://www.w3.org/2000/svg" id="Layer_1" data-name="Layer 1" viewBox="0 0 24 24">
  <path d="M9.279,10.255c.445,.253,.721,.768,.721,1.343v.601c0,1.027,.731,1.802,1.7,1.802h.6c.938,0,1.7-.763,1.7-1.7v-.723c0-.564,.271-1.068,.708-1.314,1.722-.975,2.792-2.799,2.792-4.763,0-1.666-.743-3.224-2.038-4.274C14.167,.176,12.471-.224,10.807,.126c-2.112,.446-3.802,2.176-4.205,4.306-.447,2.358,.604,4.645,2.678,5.823Zm3.721,1.322v.723c0,.386-.314,.7-.7,.7h-.6c-.406,0-.7-.337-.7-.802v-.601c0-.205-.031-.404-.075-.598h2.148c-.041,.187-.073,.379-.073,.577ZM7.584,4.617c.377-2.076,2.305-3.652,4.405-3.615,2.421-.054,4.562,2.074,4.511,4.498,0,1.604-.875,3.095-2.284,3.892-.267,.151-.481,.367-.668,.608h-1.049v-3.571c.86-.224,1.5-1,1.5-1.929,0-.276-.224-.5-.5-.5s-.5,.224-.5,.5c0,.552-.449,1-1,1s-1-.448-1-1c0-.276-.224-.5-.5-.5s-.5,.224-.5,.5c0,.929,.64,1.705,1.5,1.929v3.571h-1.055c-.187-.243-.403-.462-.671-.614-1.697-.964-2.556-2.836-2.19-4.769Zm15.416,1.883v10c0,2.481-2.019,4.5-4.5,4.5H7.651l-4.09,2.722c-.276,.184-.594,.276-.913,.276-.267,0-.534-.064-.779-.195-.537-.288-.87-.845-.87-1.453V6.5c0-2.054,1.388-3.847,3.375-4.358,.267-.067,.54,.092,.609,.359s-.092,.54-.36,.609c-1.545,.397-2.625,1.792-2.625,3.39v15.85c0,.243,.128,.456,.342,.571,.215,.116,.464,.104,.666-.031l4.215-2.806c.082-.055,.178-.084,.277-.084h11c1.93,0,3.5-1.57,3.5-3.5V6.5c0-1.598-1.079-2.992-2.625-3.39-.268-.069-.429-.342-.36-.609,.069-.268,.345-.428,.609-.359,1.987,.512,3.375,2.305,3.375,4.358Z"/>
</svg>
