<svg id="Layer_1" viewBox="0 0 24 24" xmlns="http://www.w3.org/2000/svg" data-name="Layer 1"><path d="m14.87 22.622c-.87.234-1.77.35-2.677.365-.563-.566-2.716-2.86-4.07-5.987h1.378c.276 0 .5-.224.5-.5s-.224-.5-.5-.5h-1.769c-.439-1.247-.731-2.593-.731-4s.292-2.753.731-4h8.544c.182.519.343 1.054.462 1.605.056.272.331.442.594.383.27-.058.441-.324.383-.594-.103-.479-.238-.941-.385-1.395h4.907c.487 1.242.764 2.588.764 4 0 1.142-.175 2.269-.519 3.348-.084.263.062.544.325.628.262.084.544-.062.628-.325.375-1.178.565-2.407.565-3.652 0-6.609-5.373-11.987-11.983-11.998-.012-.001-.024 0-.035 0-6.609.011-11.982 5.389-11.982 12s5.383 12 12 12c1.061 0 2.113-.139 3.13-.412.267-.072.425-.346.353-.613-.071-.266-.347-.424-.612-.353zm6.916-15.622h-4.818c-1.069-2.672-2.713-4.783-3.73-5.925 3.734.421 6.902 2.719 8.547 5.925zm-9.785-5.789c.766.802 2.661 2.955 3.887 5.789h-7.765c1.229-2.839 3.116-4.991 3.878-5.789zm-1.24-.136c-1.019 1.144-2.664 3.257-3.731 5.925h-4.816c1.645-3.206 4.812-5.504 8.546-5.925zm-9.761 10.925c0-1.412.277-2.758.764-4h4.905c-.404 1.248-.669 2.589-.669 4s.265 2.752.669 4h-4.905c-.487-1.242-.764-2.588-.764-4zm1.214 5h4.815c1.067 2.669 2.712 4.781 3.731 5.925-3.734-.421-6.901-2.719-8.546-5.925zm17.786 2.293c.616-.77 1-1.733 1-2.793 0-2.481-2.019-4.5-4.5-4.5s-4.5 2.019-4.5 4.5 2.019 4.5 4.5 4.5c1.06 0 2.023-.384 2.793-1l3.853 3.853c.098.098.226.146.354.146s.256-.049.354-.146c.195-.195.195-.512 0-.707l-3.853-3.853zm-3.5.707c-1.93 0-3.5-1.57-3.5-3.5s1.57-3.5 3.5-3.5 3.5 1.57 3.5 3.5-1.57 3.5-3.5 3.5z"/></svg>