<svg id="Layer_1" viewBox="0 0 24 24" xmlns="http://www.w3.org/2000/svg" data-name="Layer 1"><path d="m14.25 14c-.988 0-1.782.362-2.258.977-.481-.609-1.275-.977-2.242-.977-1.517 0-2.75 1.314-2.75 2.93 0 1.903 2.079 4.341 3.477 5.514.441.371.982.556 1.523.556s1.082-.185 1.523-.556c1.398-1.173 3.477-3.61 3.477-5.514 0-1.615-1.233-2.93-2.75-2.93zm-1.37 7.678c-.51.428-1.25.428-1.76 0-1.295-1.088-3.12-3.28-3.12-4.748 0-1.064.785-1.93 1.75-1.93.807 0 1.75.393 1.75 1.5v.5c0 .276.224.5.5.5s.5-.224.5-.5v-.5c0-1.392 1.339-1.5 1.75-1.5.965 0 1.75.865 1.75 1.93 0 1.468-1.824 3.66-3.12 4.748zm-.88-21.678c-3.309 0-6 2.691-6 6s2.691 6 6 6 6-2.691 6-6-2.691-6-6-6zm0 11c-2.757 0-5-2.243-5-5s2.243-5 5-5 5 2.243 5 5-2.243 5-5 5zm-6.789 6.765c-.792 1.268-1.211 2.732-1.211 4.235v1.5c0 .276-.224.5-.5.5s-.5-.224-.5-.5v-1.5c0-1.69.472-3.339 1.364-4.765.146-.235.454-.307.689-.159.234.146.305.455.159.688zm15.789 4.235v1.5c0 .276-.224.5-.5.5s-.5-.224-.5-.5v-1.5c0-1.632-.488-3.201-1.411-4.538-.157-.228-.1-.539.127-.695.227-.16.538-.1.696.127 1.039 1.505 1.588 3.271 1.588 5.106z"/></svg>