<svg id="Layer_1" viewBox="0 0 24 24" xmlns="http://www.w3.org/2000/svg" data-name="Layer 1"><path d="m3.96 19.29c-.11.26-.41.37-.66.26-1.63-.71-2.82-2.16-3.18-3.88-.39-1.89.2-3.8 1.58-5.12.33-.31.47-.82.39-1.39-.13-.92-.11-1.86.08-2.8.63-3.14 3.17-5.64 6.3-6.22.48-.09 1.06-.14 1.53-.14 3 0 5.75 1.63 7.15 4.42.19.39.56.67 1 .77 2.83.63 5.06 2.87 5.68 5.71.06.27-.11.54-.38.59-.27.06-.54-.11-.59-.38-.54-2.45-2.47-4.39-4.92-4.94-.74-.17-1.35-.64-1.68-1.3-1.41-2.82-4.47-4.32-7.6-3.74-2.74.51-4.95 2.69-5.51 5.43-.17.82-.19 1.65-.07 2.45.13.89-.12 1.71-.68 2.25-1.13 1.08-1.61 2.65-1.29 4.2.29 1.38 1.28 2.6 2.6 3.17.25.11.37.4.26.66zm17.7-1.74c-.23.29-.57.45-.94.45h-1.29c-.09.33-.25.62-.47.86l.67 1.11c.19.31.23.69.11 1.03s-.39.61-.73.73c-.49.17-.99.26-1.5.26s-1.02-.09-1.5-.26c-.34-.12-.61-.39-.73-.73s-.08-.72.11-1.03l.67-1.1c-.23-.24-.4-.54-.48-.87h-1.29c-.37 0-.71-.16-.94-.45s-.32-.66-.24-1.02c.12-.54.33-1.04.64-1.5.15-.24.33-.46.53-.67.26-.26.62-.4.98-.36.37.03.69.23.89.54l.71 1.08c.2-.07.41-.11.64-.11.24 0 .46.05.67.12l.68-1.06c.2-.31.53-.51.9-.55s.73.09.99.36c.19.2.37.42.53.66.3.46.52.97.63 1.5.08.36 0 .73-.24 1.02zm-5.63-1.39-.71-1.07c-.11-.12-.19-.13-.32-.03-.16.16-.3.33-.42.52-.24.36-.4.75-.49 1.17-.01.16.04.23.2.26h1.29c.08-.32.24-.6.45-.84zm.47 1.34c0 .55.45 1 1 1s1-.45 1-1-.45-1-1-1-1 .45-1 1zm2.27 2.99-.67-1.1c-.19.06-.39.1-.61.1s-.41-.04-.6-.1l-.67 1.09c-.06.15-.04.23.1.3.75.27 1.58.27 2.33 0 .14-.08.17-.16.11-.3zm2.15-3.75c-.09-.41-.26-.81-.49-1.17-.12-.18-.26-.35-.41-.51-.13-.1-.22-.09-.33.03l-.7 1.09c.2.23.35.51.43.81h1.29c.16-.02.22-.09.2-.26zm3.08.76c0 3.58-2.92 6.5-6.5 6.5s-6.5-2.92-6.5-6.5 2.92-6.5 6.5-6.5 6.5 2.92 6.5 6.5zm-1 0c0-3.03-2.47-5.5-5.5-5.5s-5.5 2.47-5.5 5.5 2.47 5.5 5.5 5.5 5.5-2.47 5.5-5.5zm-14.76.8c.2.21 1.76 1.94 1.76 3.2 0 .67-.26 1.29-.73 1.77s-1.1.73-1.77.73-1.29-.26-1.77-.73-.73-1.1-.73-1.77c0-1.24 1.57-2.98 1.75-3.18.42-.42 1.08-.42 1.49-.02zm.76 3.2c0-.66-.91-1.88-1.48-2.5-.61.63-1.52 1.86-1.52 2.5 0 .4.16.78.44 1.06.57.57 1.55.57 2.12 0 .28-.28.44-.66.44-1.06z"/></svg>