<svg id="Layer_1" viewBox="0 0 24 24" xmlns="http://www.w3.org/2000/svg" data-name="Layer 1"><path d="m18.5 16c-1.103 0-2 .897-2 2s.897 2 2 2 2-.897 2-2-.897-2-2-2zm0 3c-.551 0-1-.449-1-1s.449-1 1-1 1 .449 1 1-.449 1-1 1zm4.772.109-.388-.247c.065-.304.096-.584.096-.862s-.031-.558-.096-.862l.381-.242c.71-.419.948-1.34.53-2.054-.418-.712-1.335-.954-2.057-.523l-.364.231c-.404-.336-.871-.6-1.379-.778v-.271c0-.827-.67-1.5-1.493-1.5s-1.493.673-1.493 1.5v.271c-.508.178-.976.442-1.38.778l-.377-.24c-.711-.418-1.627-.181-2.044.533-.417.713-.179 1.634.517 2.045l.394.25c-.065.304-.096.584-.096.862s.031.558.096.862l-.381.242c-.71.419-.948 1.34-.53 2.054.417.712 1.334.952 2.057.523l.364-.231c.404.336.871.6 1.379.778v.271c0 .827.67 1.5 1.493 1.5s1.493-.673 1.493-1.5v-.271c.508-.178.976-.442 1.38-.778l.377.24c.711.419 1.627.179 2.044-.533.416-.71.181-1.627-.523-2.048zm-.335 1.542c-.139.238-.444.319-.668.187l-.684-.435c-.196-.125-.453-.096-.618.069-.428.43-.979.743-1.595.903-.22.057-.373.256-.373.484v.642c0 .276-.223.5-.498.5s-.498-.224-.498-.5v-.642c0-.228-.154-.427-.373-.484-.616-.16-1.167-.473-1.595-.903-.096-.097-.224-.147-.352-.147-.092 0-.184.025-.266.078l-.67.426c-.237.141-.543.059-.681-.178-.139-.237-.06-.544.191-.692l.699-.443c.187-.119.273-.347.213-.56-.103-.361-.15-.664-.15-.955s.048-.594.15-.955c.06-.213-.026-.441-.213-.56l-.713-.452c-.237-.14-.316-.447-.177-.684s.446-.316.668-.187l.684.435c.197.126.454.097.618-.069.428-.43.979-.743 1.595-.903.22-.057.373-.256.373-.484v-.642c0-.276.223-.5.498-.5s.498.224.498.5v.642c0 .228.154.427.373.484.616.16 1.167.473 1.595.903.165.166.422.196.618.069l.67-.426c.235-.14.542-.061.681.177s.06.545-.191.693l-.699.443c-.187.119-.273.347-.213.56.103.361.15.664.15.955s-.048.594-.15.955c-.06.213.026.441.213.56l.699.443s.009.005.014.008c.237.14.316.447.177.684zm-9.937 2.85c0 .276-.224.5-.5.5h-7.817c-1.386 0-2.693-.608-3.584-1.67-.892-1.061-1.267-2.453-1.028-3.818l2.561-14.638c.393-2.246 2.332-3.875 4.612-3.875h9.499c2.277 0 4.216 1.628 4.611 3.87l1.42 7.55c.051.271-.127.533-.399.583-.269.051-.533-.127-.583-.399l-1.421-7.556c-.312-1.769-1.837-3.049-3.627-3.049h-9.5c-1.792 0-3.318 1.281-3.626 3.047l-2.562 14.638c-.188 1.074.107 2.168.808 3.003.701.834 1.729 1.313 2.819 1.313h7.817c.276 0 .5.224.5.5zm-.5-16c0 .276-.224.5-.5.5s-.5-.224-.5-.5v-3c0-.276.224-.5.5-.5s.5.224.5.5zm0 3v3c0 .276-.224.5-.5.5s-.5-.224-.5-.5v-3c0-.276.224-.5.5-.5s.5.224.5.5z"/></svg>