<svg id="Layer_1" viewBox="0 0 24 24" xmlns="http://www.w3.org/2000/svg" data-name="Layer 1"><path d="m23.5 9c.276 0 .5-.224.5-.5s-.224-.5-.5-.5h-1.5v-1.5c0-.171-.032-.334-.051-.5h1.551c.276 0 .5-.224.5-.5s-.224-.5-.5-.5h-1.776c-.453-1.271-1.453-2.27-2.724-2.724v-1.776c0-.276-.224-.5-.5-.5s-.5.224-.5.5v1.551c-.166-.019-.329-.051-.5-.051h-1.5v-1.5c0-.276-.224-.5-.5-.5s-.5.224-.5.5v1.5h-2.5v-1.5c0-.276-.224-.5-.5-.5s-.5.224-.5.5v1.5h-2.5v-1.5c0-.276-.224-.5-.5-.5s-.5.224-.5.5v1.5h-1.5c-.171 0-.334.032-.5.051v-1.551c0-.276-.224-.5-.5-.5s-.5.224-.5.5v1.776c-1.271.453-2.27 1.453-2.724 2.724h-1.776c-.276 0-.5.224-.5.5s.224.5.5.5h1.551c-.019.166-.051.329-.051.5v1.5h-1.5c-.276 0-.5.224-.5.5s.224.5.5.5h1.5v2.5h-1.5c-.276 0-.5.224-.5.5s.224.5.5.5h1.5v2.5h-1.5c-.276 0-.5.224-.5.5s.224.5.5.5h1.5v1.5c0 .171.032.334.051.5h-1.551c-.276 0-.5.224-.5.5s.224.5.5.5h1.776c.453 1.271 1.453 2.27 2.724 2.724v1.776c0 .276.224.5.5.5s.5-.224.5-.5v-1.551c.166.019.329.051.5.051h1.5v1.5c0 .276.224.5.5.5s.5-.224.5-.5v-1.5h2.5v1.5c0 .276.224.5.5.5s.5-.224.5-.5v-1.5h2.5v1.5c0 .276.224.5.5.5s.5-.224.5-.5v-1.5h1.5c.171 0 .334-.032.5-.051v1.551c0 .276.224.5.5.5s.5-.224.5-.5v-1.776c1.271-.453 2.27-1.453 2.724-2.724h1.776c.276 0 .5-.224.5-.5s-.224-.5-.5-.5h-1.551c.019-.166.051-.329.051-.5v-1.5h1.5c.276 0 .5-.224.5-.5s-.224-.5-.5-.5h-1.5v-2.5h1.5c.276 0 .5-.224.5-.5s-.224-.5-.5-.5h-1.5v-2.5zm-6 12h-11c-1.93 0-3.5-1.57-3.5-3.5v-11c0-1.93 1.57-3.5 3.5-3.5h11c1.93 0 3.5 1.57 3.5 3.5v11c0 1.93-1.57 3.5-3.5 3.5zm-5-10h-1c-.827 0-1.5.673-1.5 1.5v1c0 .827.673 1.5 1.5 1.5h1c.827 0 1.5-.673 1.5-1.5v-1c0-.827-.673-1.5-1.5-1.5zm.5 2.5c0 .276-.224.5-.5.5h-1c-.276 0-.5-.224-.5-.5v-1c0-.276.224-.5.5-.5h1c.276 0 .5.224.5.5zm3.898-4.71-3.5-2.362c-.85-.573-1.947-.573-2.797 0l-3.5 2.362c-.69.465-1.102 1.24-1.102 2.072v4.638c0 1.378 1.122 2.5 2.5 2.5h7c1.378 0 2.5-1.122 2.5-2.5v-4.638c0-.833-.412-1.607-1.102-2.072zm.102 6.71c0 .827-.673 1.5-1.5 1.5h-7c-.827 0-1.5-.673-1.5-1.5v-4.638c0-.5.247-.964.661-1.243l3.5-2.362c.255-.172.547-.258.839-.258s.584.086.839.258l3.5 2.362c.414.279.661.744.661 1.243z"/></svg>