<?xml version="1.0" encoding="UTF-8"?>
<svg xmlns="http://www.w3.org/2000/svg" id="Layer_1" data-name="Layer 1" viewBox="0 0 24 24">
  <path d="M15.938,2.022c-.56-.468-1.112-.93-1.638-1.394C13.687,.087,12.921-.117,12.201,.066c-.762,.194-1.373,.783-1.676,1.615-.43,1.181-.597,2.365-.744,3.408-.296,2.099-.507,2.894-1.561,2.911h-.008c-.639,0-.965-1.333-1.142-2.055-.177-.718-.736-1.245-1.458-1.377-.685-.126-1.357,.153-1.751,.727-1.227,1.781-2.707,4.676-2.842,6.972-.335,5.706,3.429,10.563,8.951,11.551,.666,.119,1.548,.175,2.097,.175,2.552,0,5.019-.907,6.987-2.555,2.507-2.098,3.944-5.174,3.944-8.439,0-5.067-3.752-8.207-7.062-10.977Zm-3.8,20.964c-.109,.002-.218-.003-.327-.005-2.117-.101-3.812-1.839-3.812-3.977,.013-1.648,1.013-2.973,3.35-5.71,.159-.187,.395-.294,.649-.294,.253,0,.472,.101,.63,.29,2.153,2.555,3.371,4.08,3.371,5.71,0,2.159-1.721,3.911-3.861,3.986Zm6.276-2.314c-.802,.671-1.698,1.196-2.649,1.581,.759-.877,1.234-2.005,1.234-3.253,0-1.979-1.303-3.621-3.605-6.354-.349-.416-.843-.645-1.399-.646-.543,0-1.056,.235-1.406,.646-2.271,2.66-3.572,4.279-3.589,6.354,0,1.274,.494,2.426,1.281,3.31-3.972-1.536-6.528-5.466-6.262-9.984,.123-2.09,1.514-4.788,2.667-6.463,.185-.268,.432-.324,.604-.324,.058,0,.022-.007,.058,0,.258,.047,.654,.251,.752,.646,.23,.942,.688,2.815,2.108,2.815h.027c2.008-.032,2.264-1.848,2.535-3.771,.14-.995,.299-2.123,.693-3.206,.188-.517,.546-.876,.983-.988,.403-.1,.825,.02,1.191,.343,.532,.469,1.091,.937,1.658,1.411,3.295,2.758,6.704,5.61,6.704,10.21,0,2.968-1.307,5.765-3.586,7.672Z"/>
</svg>
