<svg id="Layer_1" viewBox="0 0 24 24" xmlns="http://www.w3.org/2000/svg" data-name="Layer 1"><path d="m24 3.5v8.5c0 6.617-5.383 12-12 12s-12-5.383-12-12v-8.5c0-1.93 1.57-3.5 3.5-3.5h2.5c.276 0 .5.224.5.5s-.224.5-.5.5h-2.5c-1.378 0-2.5 1.121-2.5 2.5v1.5h3.5c.276 0 .5.224.5.5s-.224.5-.5.5h-3.5v6c0 6.065 4.935 11 11 11s11-4.935 11-11v-6h-3.5c-.276 0-.5-.224-.5-.5s.224-.5.5-.5h3.5v-1.5c0-1.379-1.122-2.5-2.5-2.5h-2.5c-.276 0-.5-.224-.5-.5s.224-.5.5-.5h2.5c1.93 0 3.5 1.57 3.5 3.5zm-17 3.542v-3.129c0-.898.486-1.731 1.268-2.175l2.497-1.414c.759-.43 1.703-.43 2.461 0l2.504 1.415c.365.206.657.503.874.846.005.008.014.013.018.021 0 .002 0 .003.002.005.238.387.376.835.376 1.305v3.186c0 .907-.493 1.745-1.287 2.186l-2.485 1.38c-.375.208-.793.312-1.212.312-.43 0-.86-.109-1.242-.328l-2.514-1.436c-.777-.445-1.259-1.277-1.259-2.172zm4.5 2.834v-4.34l-3.453-1.974c-.028.114-.047.231-.047.351v3.129c0 .537.29 1.037.755 1.304 0 0 2.667 1.502 2.745 1.53zm4.5-5.961c0-.12-.019-.237-.047-.351l-3.453 1.974v4.35c.082-.028 2.729-1.477 2.729-1.477.476-.264.772-.767.772-1.311v-3.185zm-7.398-1.187 3.399 1.942 3.396-1.941c-.053-.04-2.664-1.536-2.664-1.536-.454-.258-1.02-.259-1.477 0 0 0-2.602 1.493-2.654 1.533zm-2.602 8.272v1c0 3.309 2.691 6 6 6s6-2.691 6-6v-1c0-.276-.224-.5-.5-.5s-.5.224-.5.5v1c0 2.757-2.243 5-5 5s-5-2.243-5-5v-1c0-.276-.224-.5-.5-.5s-.5.224-.5.5z"/></svg>