<svg id="Layer_1" viewBox="0 0 24 24" xmlns="http://www.w3.org/2000/svg" data-name="Layer 1"><path d="m15.5 10.092v-2.592c0-.276-.224-.5-.5-.5s-.5.224-.5.5c0 1.472-1.919 1.5-2 1.5h-2.475c-.68 0-1.319.268-1.8.755-.476.48-.733 1.114-.725 1.782.005.431.1.785.252 1.219l1.429 3.305c.248.57.81.939 1.432.939.533 0 1.024-.268 1.312-.717.289-.448.329-1.006.107-1.491l-.362-.792h.83c.082 0 2 .017 2 1.5 0 .276.224.5.5.5s.5-.224.5-.5v-2.592c.581-.207 1-.757 1-1.408s-.419-1.201-1-1.408zm-4.416 5.651c-.226.35-.819.302-.985-.08l-.72-1.663h1.192l.551 1.208c.081.177.067.371-.038.535zm3.416-2.163c-.64-.434-1.45-.58-2-.58h-3.554c-.193-.431-.461-1.022-.446-1.475-.005-.399.15-.778.436-1.067.292-.296.679-.458 1.089-.458h2.475c.55 0 1.36-.146 2-.58zm6.5 4.42c-.647 0-1.243.21-1.733.56l-1.276-1.276c1.246-1.411 2.009-3.258 2.009-5.284s-.763-3.873-2.009-5.284l1.276-1.276c.49.349 1.086.56 1.733.56 1.654 0 3-1.346 3-3s-1.346-3-3-3-3 1.346-3 3c0 .647.21 1.243.56 1.733l-1.276 1.276c-1.411-1.246-3.258-2.009-5.284-2.009s-3.873.763-5.284 2.009l-1.276-1.276c.349-.49.56-1.086.56-1.733 0-1.654-1.346-3-3-3s-3 1.346-3 3 1.346 3 3 3c.647 0 1.243-.21 1.733-.56l1.276 1.276c-1.246 1.411-2.009 3.258-2.009 5.284s.763 3.873 2.009 5.284l-1.276 1.276c-.49-.349-1.086-.56-1.733-.56-1.654 0-3 1.346-3 3s1.346 3 3 3 3-1.346 3-3c0-.647-.21-1.242-.56-1.733l1.276-1.276c1.411 1.246 3.258 2.009 5.284 2.009s3.873-.763 5.284-2.009l1.276 1.276c-.349.49-.56 1.086-.56 1.733 0 1.654 1.346 3 3 3s3-1.346 3-3-1.346-3-3-3zm0-17c1.103 0 2 .897 2 2s-.897 2-2 2-2-.897-2-2 .897-2 2-2zm-18 4c-1.105 0-2-.895-2-2s.895-2 2-2 2 .895 2 2-.895 2-2 2zm0 18c-1.105 0-2-.895-2-2s.895-2 2-2 2 .895 2 2-.895 2-2 2zm9-4c-3.86 0-7-3.141-7-7s3.14-7 7-7 7 3.141 7 7-3.14 7-7 7zm9 4c-1.105 0-2-.895-2-2s.895-2 2-2 2 .895 2 2-.895 2-2 2z"/></svg>