<svg id="Layer_1" viewBox="0 0 24 24" xmlns="http://www.w3.org/2000/svg" data-name="Layer 1"><path d="m12 5c.552 0 1-.449 1-1v-3c0-.551-.448-1-1-1s-1 .449-1 1v3c0 .551.448 1 1 1zm8.049 5.604-.049-5.807c0-1.76-1.035-3.368-2.638-4.097l-1.241-.564c-.466-.213-1.002-.172-1.434.104-.431.277-.688.749-.688 1.261v2.356c0 1.095-.787 2.032-1.792 2.132-.574.059-1.125-.122-1.55-.506-.418-.379-.658-.919-.658-1.483v-2.499c0-.512-.257-.983-.688-1.261-.431-.277-.967-.316-1.434-.104l-1.241.564c-1.603.729-2.638 2.337-2.638 4.097v5.755l-.049.052c-.613.652-.951 1.503-.951 2.398v1.998c0 4.963 4.037 9 9 9s9-4.037 9-9v-1.998c0-.895-.338-1.747-.951-2.398zm-5.049-6.747v-2.356c0-.173.084-.326.229-.42.146-.094.319-.107.478-.035l1.241.564c1.246.567 2.052 1.818 2.052 3.187v5.299l-5.661 3.048c-.266.144-.55.226-.839.28v-6.478c1.415-.245 2.5-1.556 2.5-3.088zm-7.948-2.247 1.241-.564c.156-.072.332-.059.478.035s.229.247.229.42v2.499c0 .846.36 1.657.987 2.225.425.385.954.621 1.513.717v6.488c-.293-.05-.583-.129-.854-.271l-5.646-2.962v-5.4c0-1.369.806-2.62 2.052-3.187zm12.948 13.39c0 4.411-3.589 8-8 8s-8-3.589-8-8v-1.998c-.003-.68.278-1.323.761-1.8l5.42 2.842c.564.296 1.181.444 1.797.444.631 0 1.262-.155 1.835-.464l5.364-2.888c.511.49.829 1.152.823 1.865v1.998z"/></svg>