<svg id="Layer_1" viewBox="0 0 24 24" xmlns="http://www.w3.org/2000/svg" data-name="Layer 1"><path d="m23.854 23.146-6.449-6.449c1.607-1.775 2.596-4.12 2.596-6.697-.001-5.514-4.487-10-10.001-10s-10 4.486-10 10 4.486 10 10 10c2.577 0 4.922-.989 6.697-2.596l6.449 6.449c.195.195.512.195.707 0s.195-.512 0-.707zm-13.854-4.146c-4.962 0-9-4.037-9-9s4.038-9 9-9 9 4.038 9 9-4.038 9-9 9zm4-11s0 0 0 0v-3.5c.008-.335-.322-.547-.633-.5-.223 0-.419.147-.48.362-.299 1.041-1.168 1.638-2.386 1.638h-2.5c-1.654 0-3 1.346-3 3 0 .641.206 1.232.549 1.72l1.689 4.306c.232.592.792.974 1.428.974 1.053.031 1.845-1.141 1.424-2.106l-.761-1.894h1.17c1.217 0 2.087.597 2.386 1.638.073.273.35.392.613.362.276 0 .5-.224.5-.5v-3.5s0 0 0 0c.551 0 1-.449 1-1s-.449-1-1-1zm-4.837 6.267c.067.167.048.349-.053.498-.225.332-.793.271-.94-.104l-1.109-2.827c.297.099.609.165.939.165h.252l.911 2.267zm1.337-3.267h-2.5c-1.103 0-2-.897-2-2s.897-2 2-2h2.5c1.021 0 1.885-.33 2.5-.923v5.846c-.616-.593-1.479-.923-2.5-.923z"/></svg>