<svg id="Layer_1" viewBox="0 0 24 24" xmlns="http://www.w3.org/2000/svg" data-name="Layer 1"><path d="m1 5.902-.003 4.829c0 4.52 4.231 7.653 6.754 9.119.239.139.32.444.182.683-.14.241-.449.319-.684.181-2.709-1.572-7.249-4.962-7.249-9.983v-4.829c0-1.761 1.123-3.317 2.795-3.871l6.048-2.005c.102-.034.213-.034.314 0l3.5 1.161c.263.087.404.37.317.632-.086.262-.371.402-.632.317l-3.343-1.108-5.89 1.952c-1.262.418-2.109 1.593-2.109 2.922zm23-1.402v8c0 .814-.396 1.531-1 1.987v3.134c0 1.333-.483 2.62-1.361 3.622l-2.263 2.586c-.182.209-.498.228-.705.047-.208-.182-.229-.498-.047-.706l2.263-2.586c.718-.821 1.113-1.873 1.113-2.964v-2.672c-.162.033-.329.051-.5.051h-2.561c-.08.395-.25.776-.523 1.101l-2.55 2.74c-.188.202-.504.214-.707.025-.202-.188-.213-.504-.025-.707l2.533-2.721c.459-.547.445-1.39-.049-1.941-.55-.613-1.496-.666-2.112-.116l-3.375 3.105c-.719.661-1.131 1.6-1.131 2.576v4.437c0 .276-.224.5-.5.5s-.5-.224-.5-.5v-4.437c0-1.255.529-2.461 1.453-3.311l2.547-2.343v-8.907c0-1.378 1.121-2.5 2.5-2.5h5c1.379 0 2.5 1.122 2.5 2.5zm-4 9.5v-11h-3.5c-.827 0-1.5.673-1.5 1.5v8.019c.475-.361 1.047-.552 1.641-.515.666.036 1.277.33 1.722.827.304.339.498.745.583 1.169h1.055zm3-9.5c0-.827-.673-1.5-1.5-1.5h-.5v11h.5c.827 0 1.5-.673 1.5-1.5z"/></svg>