<?xml version="1.0" encoding="UTF-8"?>
<svg xmlns="http://www.w3.org/2000/svg" id="Layer_1" data-name="Layer 1" viewBox="0 0 24 24">
  <path d="M24,8.5v11c0,2.481-2.019,4.5-4.5,4.5H4.5c-2.481,0-4.5-2.019-4.5-4.5V7.5C0,5.019,2.019,3,4.5,3h7c.276,0,.5,.224,.5,.5s-.224,.5-.5,.5H4.5c-1.611,0-2.958,1.101-3.363,2.586L9.525,14.975c1.323,1.322,3.628,1.322,4.95,0l3.698-3.822c.191-.198,.51-.203,.707-.012,.198,.192,.204,.509,.012,.707l-3.704,3.828c-.855,.856-1.985,1.324-3.188,1.324s-2.332-.468-3.182-1.318L1,7.863v11.637c0,1.93,1.57,3.5,3.5,3.5h15c1.93,0,3.5-1.57,3.5-3.5V8.5c0-.276,.224-.5,.5-.5s.5,.224,.5,.5ZM14,2.975c0-1.641,1.233-2.975,2.75-2.975,.906,0,1.743,.446,2.25,1.103,.507-.656,1.344-1.103,2.25-1.103,1.517,0,2.75,1.334,2.75,2.975,0,1.97-2.175,4.429-3.546,5.517-.428,.34-.941,.509-1.454,.509-.513,0-1.026-.169-1.454-.509-1.371-1.088-3.546-3.547-3.546-5.517Zm1,0c0,1.515,1.89,3.72,3.167,4.733,.49,.389,1.176,.389,1.666,0,1.277-1.014,3.167-3.219,3.167-4.733,0-1.089-.785-1.975-1.75-1.975-.985,0-1.75,.807-1.75,1.5,0,.276-.224,.5-.5,.5s-.5-.224-.5-.5c0-.693-.765-1.5-1.75-1.5-.965,0-1.75,.886-1.75,1.975Z"/>
</svg>
