<svg id="Layer_1" viewBox="0 0 24 24" xmlns="http://www.w3.org/2000/svg" data-name="Layer 1"><path d="m23.5 0h-23c-.276 0-.5.224-.5.5s.224.5.5.5h.5v12.5c0 2.481 2.019 4.5 4.5 4.5h6v2.071c-.86.224-1.5 1-1.5 1.929 0 1.103.897 2 2 2s2-.897 2-2c0-.929-.64-1.705-1.5-1.929v-2.071h6c2.481 0 4.5-2.019 4.5-4.5v-12.5h.5c.276 0 .5-.224.5-.5s-.224-.5-.5-.5zm-10.5 22c0 .551-.449 1-1 1s-1-.449-1-1 .449-1 1-1 1 .449 1 1zm9-8.5c0 1.93-1.57 3.5-3.5 3.5h-13c-1.93 0-3.5-1.57-3.5-3.5v-12.5h20zm-13.5.5h7c1.378 0 2.5-1.122 2.5-2.5v-4c0-1.378-1.122-2.5-2.5-2.5h-2.681c-.104 0-.204-.032-.289-.092l-.89-.631c-.255-.181-.556-.277-.868-.277h-2.272c-1.378 0-2.5 1.122-2.5 2.5v5c0 1.378 1.122 2.5 2.5 2.5zm7-1h-7c-.827 0-1.5-.673-1.5-1.5v-3.5h10v3.5c0 .827-.673 1.5-1.5 1.5zm-7-8h2.272c.104 0 .205.032.29.092l.889.631c.255.181.555.277.868.277h2.681c.651 0 1.201.419 1.408 1h-9.908v-.5c0-.827.673-1.5 1.5-1.5z"/></svg>