<?xml version="1.0" encoding="UTF-8"?>
<svg xmlns="http://www.w3.org/2000/svg" id="Layer_1" data-name="Layer 1" viewBox="0 0 24 24">
  <path d="M23.854,23.146l-5.255-5.255,2.293-2.293,.435,.435c.098,.098,.226,.146,.354,.146s.256-.049,.354-.146c.195-.195,.195-.512,0-.707l-4.68-4.68c-.195-.195-.512-.195-.707,0s-.195,.512,0,.707l.409,.409-5.293,5.293-.409-.409c-.195-.195-.512-.195-.707,0s-.195,.512,0,.707l4.68,4.68c.098,.098,.226,.146,.354,.146s.256-.049,.354-.146c.195-.195,.195-.512,0-.707l-.435-.435,2.293-2.293,5.255,5.255c.098,.098,.226,.146,.354,.146s.256-.049,.354-.146c.195-.195,.195-.512,0-.707Zm-8.962-2.962l-2.422-2.422,5.293-5.293,2.421,2.421-5.293,5.293Zm-1.391,2.816H4.5c-1.93,0-3.5-1.57-3.5-3.5V4.5c0-1.93,1.57-3.5,3.5-3.5h5.515c.335,0,.663,.038,.985,.096V6.5c0,1.378,1.122,2.5,2.5,2.5h5.39c.033,.18,.078,.357,.093,.541,.022,.275,.25,.478,.539,.458,.274-.022,.479-.264,.457-.539-.125-1.536-.794-2.982-1.883-4.07l-3.484-3.485c-1.229-1.228-2.861-1.904-4.597-1.904H4.5C2.019,0,0,2.019,0,4.5v15c0,2.481,2.019,4.5,4.5,4.5H13.5c.276,0,.5-.224,.5-.5s-.224-.5-.5-.5ZM12,1.379c.704,.273,1.354,.682,1.904,1.231l3.484,3.485c.543,.543,.945,1.198,1.219,1.904h-5.108c-.827,0-1.5-.673-1.5-1.5V1.379Z"/>
</svg>
