<svg id="Layer_1" viewBox="0 0 24 24" xmlns="http://www.w3.org/2000/svg" data-name="Layer 1"><path d="m24 13.5v5c0 .827-.673 1.5-1.5 1.5h-.528c-.25 2.247-2.16 4-4.472 4h-13c-2.481 0-4.5-2.019-4.5-4.5v-7c0-2.481 2.019-4.5 4.5-4.5h4c.276 0 .5.224.5.5s-.224.5-.5.5h-4c-1.93 0-3.5 1.57-3.5 3.5v7c0 1.93 1.57 3.5 3.5 3.5h13c1.93 0 3.5-1.57 3.5-3.5 0-.276.224-.5.5-.5h1c.276 0 .5-.224.5-.5v-5c0-.276.224-.5.5-.5s.5.224.5.5zm-21-1v7c0 .827.673 1.5 1.5 1.5h13c.827 0 1.5-.673 1.5-1.5v-4c0-.276-.224-.5-.5-.5s-.5.224-.5.5v4c0 .276-.224.5-.5.5h-13c-.276 0-.5-.224-.5-.5v-7c0-.276.224-.5.5-.5h5.5c.276 0 .5-.224.5-.5s-.224-.5-.5-.5h-5.5c-.827 0-1.5.673-1.5 1.5zm8-6c0-3.584 2.916-6.5 6.5-6.5s6.5 2.916 6.5 6.5-2.916 6.5-6.5 6.5-6.5-2.916-6.5-6.5zm1 0c0 3.033 2.467 5.5 5.5 5.5s5.5-2.467 5.5-5.5-2.467-5.5-5.5-5.5-5.5 2.467-5.5 5.5zm5.5 1.5c.276 0 .5-.224.5-.5v-5c0-.276-.224-.5-.5-.5s-.5.224-.5.5v5c0 .276.224.5.5.5zm0 3c.552 0 1-.448 1-1s-.448-1-1-1-1 .448-1 1 .448 1 1 1z"/></svg>