<svg id="Layer_1" viewBox="0 0 24 24" xmlns="http://www.w3.org/2000/svg" data-name="Layer 1"><path d="m22.5 4c.827 0 1.5-.673 1.5-1.5s-.673-1.5-1.5-1.5-1.5.673-1.5 1.5.673 1.5 1.5 1.5zm0-2c.275 0 .5.224.5.5s-.225.5-.5.5-.5-.224-.5-.5.225-.5.5-.5zm1.5 13v8.5c0 .276-.224.5-.5.5s-.5-.224-.5-.5v-8.5c0-.551-.448-1-1-1s-1 .449-1 1v4.5c0 .276-.224.5-.5.5s-.5-.224-.5-.5v-6.5c0-.551-.448-1-1-1s-1 .449-1 1v6.5c0 .276-.224.5-.5.5s-.5-.224-.5-.5v-7.5c0-.551-.448-1-1-1s-1 .449-1 1v7.5c0 .276-.224.5-.5.5s-.5-.224-.5-.5v-5.5c0-.551-.448-1-1-1s-1 .449-1 1v5.771c0 .212-.134.401-.335.472-.198.071-.423.006-.556-.16l-.5-.625c-.521-.517-1.382-.62-1.965-.2-.37.267-.594.659-.63 1.104-.035.44.123.872.435 1.183l1.435 1.71c.177.211.148.527-.062.704-.211.177-.526.15-.705-.062l-1.404-1.678c-.489-.487-.753-1.205-.693-1.938.059-.732.438-1.401 1.042-1.835.854-.617 2.05-.579 2.939.048v-4.494c0-1.103.897-2 2-2 .366 0 .705.106 1 .278v-.278c0-1.103.897-2 2-2 .872 0 1.607.564 1.88 1.344.32-.217.705-.344 1.12-.344 1.103 0 2 .897 2 2v.278c.295-.172.634-.278 1-.278 1.103 0 2 .897 2 2zm-19-2c0 1.398.491 2.76 1.385 3.833.176.212.147.528-.065.704-.21.176-.526.148-.704-.064-1.041-1.253-1.615-2.842-1.615-4.473 0-3.638 2.839-6.704 6.462-6.979.27-.026.516.185.537.46s-.186.516-.461.537c-3.105.236-5.538 2.864-5.538 5.982zm-4 0c0-5.514 4.486-10 10-10 4.231 0 8.021 2.679 9.431 6.667.093.261.377.396.639.305.26-.092.396-.377.305-.638-.544-1.538-1.415-2.894-2.511-4.013.701-.564 1.137-1.403 1.137-2.32 0-1.654-1.346-3-3-3-.903 0-1.705.409-2.255 1.043-.341-.618-.991-1.043-1.745-1.043-1.103 0-2 .897-2 2-1.618 0-3.15.36-4.535.99-.469-.608-1.186-.99-1.965-.99-1.379 0-2.5 1.122-2.5 2.5 0 .171.02.341.054.506-.018 0-.036-.006-.054-.006-1.103 0-2 .897-2 2 0 .678.353 1.286.9 1.651-.577 1.335-.9 2.804-.9 4.349 0 3.509 1.697 6.838 4.54 8.904.221.161.535.115.698-.11.162-.223.113-.536-.11-.698-2.585-1.879-4.128-4.905-4.128-8.096zm16-12c1.103 0 2 .897 2 2 0 .659-.337 1.26-.872 1.631-.923-.785-1.972-1.415-3.105-1.862.116-.993.953-1.769 1.977-1.769zm-5 1c0-.551.448-1 1-1s1 .449 1 1c0 .14-.039.273-.095.4-.616-.169-1.249-.289-1.897-.349 0-.017-.009-.034-.009-.051zm-7.5 1c.405 0 .788.166 1.067.448-.865.494-1.661 1.096-2.359 1.797-.13-.225-.208-.479-.208-.745 0-.827.673-1.5 1.5-1.5zm-3.5 4c0-.551.448-1 1-1 .157 0 .304.042.439.109-.411.51-.781 1.054-1.097 1.633-.209-.186-.342-.45-.342-.741z"/></svg>