<?xml version="1.0" encoding="UTF-8"?>
<svg xmlns="http://www.w3.org/2000/svg" id="Layer_1" data-name="Layer 1" viewBox="0 0 24 24">
  <path d="m12.5,2.025V.5c0-.276-.224-.5-.5-.5s-.5.224-.5.5v1.525C5.667,2.289,1,7.103,1,13c0,2.901,1.137,5.535,2.978,7.502-1.057.446-1.978,1.39-1.978,2.998,0,.276.224.5.5.5s.5-.224.5-.5c0-1.55,1.121-2.057,1.779-2.223,1.935,1.69,4.457,2.723,7.221,2.723s5.287-1.033,7.221-2.723c.658.165,1.779.672,1.779,2.223,0,.276.224.5.5.5s.5-.224.5-.5c0-1.608-.92-2.552-1.978-2.998,1.841-1.967,2.978-4.601,2.978-7.502,0-5.897-4.667-10.711-10.5-10.975Zm-.5,20.975c-5.514,0-10-4.486-10-10S6.486,3,12,3s10,4.486,10,10-4.486,10-10,10Zm4.3-7.9c.221.166.266.479.1.7-.098.131-.248.2-.4.2-.104,0-.209-.033-.299-.1l-4-3c-.126-.094-.2-.243-.2-.4v-6c0-.276.224-.5.5-.5s.5.224.5.5v5.75l3.8,2.85ZM1,4.5c0,.276-.224.5-.5.5s-.5-.224-.5-.5C0,1.998,1.977.038,4.5.038c.276,0,.5.224.5.5s-.224.5-.5.5c-2.273,0-3.5,1.784-3.5,3.462Zm23,0c0,.276-.224.5-.5.5s-.5-.224-.5-.5c0-1.679-1.227-3.462-3.5-3.462-.276,0-.5-.224-.5-.5s.224-.5.5-.5c2.523,0,4.5,1.96,4.5,4.462Z"/>
</svg>
