<svg id="Layer_1" viewBox="0 0 24 24" xmlns="http://www.w3.org/2000/svg" data-name="Layer 1"><path d="m21.5 16v-.5c0-.827-.673-1.5-1.5-1.5h-2c-.827 0-1.5.673-1.5 1.5v.5c-1.378 0-2.5 1.121-2.5 2.5v3c0 1.379 1.122 2.5 2.5 2.5h5c1.378 0 2.5-1.121 2.5-2.5v-3c0-1.379-1.122-2.5-2.5-2.5zm-4-.5c0-.275.224-.5.5-.5h2c.276 0 .5.225.5.5v.5h-3zm-1 1.5h5c.827 0 1.5.673 1.5 1.5v.5h-8v-.5c0-.827.673-1.5 1.5-1.5zm5 6h-5c-.827 0-1.5-.673-1.5-1.5v-1.5h3.5v.5c0 .276.224.5.5.5s.5-.224.5-.5v-.5h3.5v1.5c0 .827-.673 1.5-1.5 1.5zm-17.5-16.5h1c.551 0 1-.448 1-1v-1c0-.552-.449-1-1-1h-1c-.551 0-1 .448-1 1v1c0 .552.449 1 1 1zm0-2h1s0 1 0 1h-1.001v-1zm-1.5 4.5h4c1.378 0 2.5-1.121 2.5-2.5v-2.434c0-.774-.35-1.492-.959-1.969l-2-1.566c-.479-.376-.946-.531-1.541-.531-.512 0-1.113.197-1.541.531l-2 1.566c-.61.477-.959 1.194-.959 1.969v2.434c0 1.379 1.122 2.5 2.5 2.5zm-1.5-4.934c0-.465.21-.896.576-1.182l2-1.566c.272-.213.598-.319.924-.319s.652.106.924.319l2 1.565c.366.286.576.717.576 1.182v2.434c0 .827-.673 1.5-1.5 1.5h-4c-.827 0-1.5-.673-1.5-1.5v-2.434zm11-3.066v11c0 .133-.053.26-.146.354l-7.527 7.528c1.869 1.821 4.383 2.988 7.195 3.108.276.013.492.245.478.521-.023.459-.5.489-.5.489-6.437-.275-11.5-5.553-11.5-12 0-.176.003-.349.011-.522.012-.275.256-.505.521-.477.276.012.49.245.478.521-.007.158-.01.317-.01.478 0 2.733.997 5.227 2.643 7.151l7.357-7.358v-10.728c-.145.013-.292.01-.436.028-.276.033-.525-.158-.56-.432s.158-.524.432-.561c.526-.047 1.041-.101 1.564-.101 6.5 0 12 5.383 12 12 0 .521-.034 1.048-.102 1.564-.034.275-.291.467-.56.432-.274-.036-.467-.287-.431-.561.062-.474.093-.957.093-1.436 0-6.065-4.935-11-11-11z"/></svg>