<svg id="Layer_1" viewBox="0 0 24 24" xmlns="http://www.w3.org/2000/svg" data-name="Layer 1"><path d="m11.5 3.5v-3c0-.276.224-.5.5-.5s.5.224.5.5v3c0 .276-.224.5-.5.5s-.5-.224-.5-.5zm5 .5c.276 0 .5-.224.5-.5v-3c0-.276-.224-.5-.5-.5s-.5.224-.5.5v3c0 .276.224.5.5.5zm-9 0c.276 0 .5-.224.5-.5v-3c0-.276-.224-.5-.5-.5s-.5.224-.5.5v3c0 .276.224.5.5.5zm16.5 14c0 3.309-2.691 6-6 6s-6-2.691-6-6c0-2.284 1.164-3.965 2.141-4.973.29-.322.873-.089.859.348.002.675.215 1.5.462 1.5.402 0 .524-.271.799-1.347.228-.89.51-1.998 1.361-2.98.183-.215.53-.236.731-.026.383.383.884.802 1.413 1.246 1.886 1.58 4.233 3.545 4.233 6.233zm-4.586 1.584-1.414-1.415-1.415 1.415c-.779.78-.779 2.05 0 2.831.29.29.649.472 1.025.546.654.103 1.32-.054 1.804-.546.78-.78.779-2.049 0-2.83zm3.586-1.584c0-2.221-2.148-4.02-3.875-5.466-.377-.315-.739-.619-1.063-.912-.461.7-.655 1.465-.831 2.154-.264 1.032-.536 2.1-1.769 2.1-.708 0-1.116-.579-1.313-1.303-.616.86-1.148 2.014-1.148 3.428 0 1.736.891 3.265 2.238 4.162-.457-1.091-.246-2.398.64-3.284l1.769-1.768c.186-.194.521-.194.707 0l1.768 1.768c.886.887 1.098 2.194.641 3.284 1.347-.897 2.238-2.426 2.238-4.162zm-13-.5c0 .276-.224.5-.5.5h-2.441l-.596 1.194c.902.378 1.538 1.269 1.538 2.306 0 1.378-1.121 2.5-2.5 2.5s-2.5-1.122-2.5-2.5c0-1.357 1.088-2.46 2.438-2.494l.594-1.187c-.979-.541-4.478-2.753-5.885-7.383-.718-2.141 1.143-4.496 3.373-4.436h16.959c2.231-.061 4.091 2.295 3.373 4.436-.131.429-.282.849-.453 1.25-.107.255-.403.372-.655.266-.254-.108-.373-.401-.265-.655.156-.369.296-.757.416-1.152.509-1.522-.835-3.189-2.416-3.145h-16.96c-1.581-.044-2.925 1.623-2.416 3.145 1.359 4.476 4.928 6.54 5.519 6.855h2.877c.276 0 .5.224.5.5zm-4.5 2.5c-.827 0-1.5.673-1.5 1.5s.673 1.5 1.5 1.5 1.5-.673 1.5-1.5-.673-1.5-1.5-1.5z"/></svg>