<svg id="Layer_1" viewBox="0 0 24 24" xmlns="http://www.w3.org/2000/svg" data-name="Layer 1"><path d="m2 13.5c0 1.93 1.57 3.5 3.5 3.5s3.5-1.57 3.5-3.5-1.57-3.5-3.5-3.5-3.5 1.57-3.5 3.5zm6 0c0 1.378-1.122 2.5-2.5 2.5s-2.5-1.122-2.5-2.5 1.122-2.5 2.5-2.5 2.5 1.122 2.5 2.5zm2.99 9.899c.056.271-.118.535-.388.591-.264.056-.536-.116-.591-.388-.432-2.087-2.329-3.602-4.51-3.602s-4.078 1.515-4.51 3.602c-.056.27-.322.441-.591.388-.27-.056-.444-.321-.388-.591.528-2.548 2.837-4.398 5.49-4.398s4.962 1.85 5.49 4.398zm13 0c.056.271-.118.535-.388.591-.264.056-.536-.116-.591-.388-.432-2.087-2.329-3.602-4.51-3.602s-4.078 1.515-4.51 3.602c-.056.27-.322.441-.591.388-.27-.056-.444-.321-.388-.591.528-2.548 2.837-4.398 5.49-4.398s4.962 1.85 5.49 4.398zm-23.528-17.747c-.298-.298-.462-.695-.462-1.117s.164-.818.462-1.116l2.684-2.684c.195-.195.512-.195.707 0s.195.512 0 .707l-2.558 2.558h21.41l-2.558-2.558c-.195-.195-.195-.512 0-.707s.512-.195.707 0l2.684 2.684c.298.298.462.695.462 1.116s-.164.818-.462 1.117l-2.684 2.684c-.195.195-.512.195-.707 0s-.195-.512 0-.707l2.629-2.629h-21.551l2.629 2.629c.195.195.195.512 0 .707s-.512.195-.707 0zm15.538 7.848c0 1.378 1.122 2.5 2.5 2.5h.002c.494 0 .971-.144 1.38-.416.229-.154.539-.091.693.14.153.23.09.541-.14.693-.574.382-1.244.583-1.936.583-1.327 0-2.47-.752-3.064-1.843-.234.843-.486 1.751-.685 2.476-.072.269-.356.423-.615.349-.266-.073-.422-.349-.349-.615.155-.521 1.284-4.749 1.445-5.088.498-1.328 1.769-2.28 3.268-2.28h.004c1.479.002 2.804.938 3.297 2.333.113.32 1.28 4.552 1.412 5.034.073.266-.083.542-.349.615-.259.073-.542-.081-.615-.349-.497-1.803-1.313-4.746-1.391-4.966-.353-.997-1.3-1.667-2.358-1.667 0 0-.001 0-.002 0-1.378 0-2.498 1.122-2.498 2.5z"/></svg>