<?xml version="1.0" encoding="UTF-8"?>
<svg xmlns="http://www.w3.org/2000/svg" id="Layer_1" data-name="Layer 1" viewBox="0 0 24 24">
  <path d="M2.5,10c.276,0,.5-.224,.5-.5V3.5c0-1.378,1.121-2.5,2.5-2.5h4.258c.082,0,.161,.016,.242,.024V3.5c0,.827,.673,1.5,1.5,1.5h2.476c.008,.081,.024,.16,.024,.243v4.257c0,.276,.224,.5,.5,.5s.5-.224,.5-.5V5.243c0-.935-.364-1.813-1.025-2.475l-1.742-1.742c-.651-.651-1.553-1.025-2.475-1.025H5.5c-1.93,0-3.5,1.57-3.5,3.5v6c0,.276,.224,.5,.5,.5ZM13.268,3.475c.158,.158,.282,.337,.391,.525h-2.158c-.275,0-.5-.224-.5-.5V1.344c.189,.109,.37,.233,.525,.388l1.742,1.742Zm9.913,6.18c-.984-.923-2.66-.854-3.548,.166l-3.732,4.102c-.314-1.108-1.335-1.922-2.543-1.922H3.5c-1.93,0-3.5,1.57-3.5,3.5v5c0,1.93,1.57,3.5,3.5,3.5h5.965c2.707,0,5.292-1.159,7.093-3.181l6.806-7.639c.911-1.022,.829-2.604-.183-3.526Zm-.563,2.861l-6.806,7.639c-1.611,1.809-3.925,2.846-6.347,2.846H3.5c-1.379,0-2.5-1.122-2.5-2.5v-5c0-1.378,1.121-2.5,2.5-2.5H13.357c.905,0,1.643,.737,1.643,1.642,0,.812-.606,1.511-1.398,1.624l-6.161,.737c-.274,.033-.47,.282-.437,.556,.032,.274,.282,.471,.556,.437l6.173-.739c1.021-.146,1.844-.878,2.145-1.824l4.496-4.94c.533-.612,1.545-.657,2.134-.1,.609,.555,.658,1.506,.11,2.122Z"/>
</svg>
