<?xml version="1.0" encoding="UTF-8"?>
<svg xmlns="http://www.w3.org/2000/svg" id="Layer_1" data-name="Layer 1" viewBox="0 0 24 24">
  <path d="M12,0C5.383,0,0,5.383,0,12s5.383,12,12,12,12-5.383,12-12S18.617,0,12,0Zm9.208,6h-4.67c-1.044-2.195-2.41-3.927-3.298-4.925,3.334,.376,6.217,2.247,7.969,4.925Zm-5.806,0h-6.803c1.196-2.333,2.733-4.088,3.401-4.788,.669,.7,2.205,2.455,3.401,4.788ZM10.761,1.075c-.888,.998-2.254,2.73-3.298,4.925H2.792C4.544,3.321,7.427,1.451,10.761,1.075ZM2.214,7H21.786c.771,1.502,1.214,3.199,1.214,5s-.444,3.498-1.214,5H2.214c-.771-1.502-1.214-3.199-1.214-5s.444-3.498,1.214-5Zm6.384,11h6.803c-1.196,2.333-2.733,4.088-3.401,4.788-.669-.7-2.205-2.455-3.401-4.788Zm-5.806,0H7.463c1.044,2.195,2.41,3.927,3.298,4.925-3.334-.376-6.217-2.247-7.969-4.925Zm10.447,4.925c.888-.998,2.254-2.73,3.298-4.925h4.67c-1.752,2.679-4.635,4.549-7.969,4.925ZM4.706,9.608c-.067-.313,.172-.608,.492-.608,.238,0,.443,.166,.492,.399l.9,4.244c.025,.131,.146,.357,.236,.357,.101,0,.211-.224,.239-.372l.836-4.223c.047-.236,.253-.405,.494-.405h.016c.318,0,.557,.292,.493,.604l-.858,4.215c-.094,.485-.471,1.181-1.221,1.181s-1.132-.727-1.214-1.148l-.906-4.244Zm5.794,5.392c.276,0,.5-.224,.5-.5v-1.5h1c1.103,0,2-.897,2-2s-.897-2-2-2h-1c-.552,0-1,.449-1,1v4.5c0,.276,.224,.5,.5,.5Zm.5-5h1c.552,0,1,.449,1,1s-.448,1-1,1h-1v-2Zm4,4.5v-4.755c0-.363,.248-.667,.604-.74,.357-.072,.704,.109,.847,.443l1.55,3.617v-3.564c0-.276,.224-.5,.5-.5s.5,.224,.5,.5v4.73c0,.365-.25,.672-.608,.745s-.708-.11-.852-.446l-1.54-3.593v3.564c0,.276-.224,.5-.5,.5s-.5-.224-.5-.5Z"/>
</svg>
