<svg id="Layer_1" viewBox="0 0 24 24" xmlns="http://www.w3.org/2000/svg" data-name="Layer 1"><path d="m23.724 6.553c-.246-.121-.547-.023-.671.224l-3.635 7.269-1.436-.773c-1.044-.562-2.328-.226-2.985.784-.728 1.118-1.643 2.273-2.647 3.34-.378.401-.564.944-.513 1.49.051.537.331 1.026.767 1.343.658.476 1.376.943 2.077 1.352.349.203.785.22 1.163.039.38-.183 1.173-.603 2-1.287-.1.399-.242.775-.419 1.178-.286.622.032 1.424.683 1.654l.379.141c.841.306 1.819.011 2.332-.741 1.079-1.571 1.797-3.174 2.133-4.764.207-.981-.268-1.998-1.152-2.473l-1.501-.808 3.648-7.296c.123-.247.023-.547-.224-.671zm-2.397 9.656c.496.267.762.836.646 1.385-.309 1.461-.975 2.942-1.979 4.404-.257.372-.74.521-1.167.367l-.365-.135c-.139-.062-.168-.196-.121-.318.395-.9.658-1.74.658-2.912 0-.209-.13-.396-.325-.469-.194-.072-.416-.018-.553.142-.995 1.151-2.227 1.813-2.709 2.045-.047.022-.139.052-.229 0-.673-.392-1.362-.841-1.994-1.298-.207-.149-.333-.372-.358-.627-.024-.26.065-.519.246-.71 1.06-1.125 1.987-2.296 2.757-3.48.37-.569 1.088-.765 1.673-.448l3.818 2.056zm-7.827 6.791h-9c-1.93 0-3.5-1.57-3.5-3.5v-9c0-1.93 1.57-3.5 3.5-3.5h1.556c.541 0 1.082.128 1.565.37l2.311 1.155c.622.311 1.318.475 2.013.475h7.556c.276 0 .5-.224.5-.5s-.224-.5-.5-.5h-1.5v-2.79c0-.911-.348-1.773-.979-2.428l-1.647-1.71c-.656-.681-1.575-1.072-2.521-1.072h-5.353c-1.93 0-3.5 1.57-3.5 3.5v2.551c-2.244.252-4 2.139-4 4.449v9c0 2.481 2.019 4.5 4.5 4.5h9c.276 0 .5-.224.5-.5s-.224-.5-.5-.5zm2.8-19.524c.153.158.273.337.377.524h-2.177c-.275 0-.5-.224-.5-.5v-2.207c.239.124.463.276.652.472l1.647 1.71zm-8.8-2.476h5.353c.05 0 .098.012.147.015v2.485c0 .827.673 1.5 1.5 1.5h2.48c.006.07.02.139.02.21v2.79h-5.056c-.541 0-1.082-.128-1.565-.37l-2.311-1.155c-.622-.311-1.318-.475-2.013-.475h-1.056v-2.5c0-1.378 1.122-2.5 2.5-2.5z"/></svg>