<svg id="Layer_1" viewBox="0 0 24 24" xmlns="http://www.w3.org/2000/svg" data-name="Layer 1"><path d="m5.5 14c-1.378 0-2.5 1.122-2.5 2.5s1.122 2.5 2.5 2.5 2.5-1.122 2.5-2.5-1.122-2.5-2.5-2.5zm0 4c-.827 0-1.5-.673-1.5-1.5s.673-1.5 1.5-1.5 1.5.673 1.5 1.5-.673 1.5-1.5 1.5zm13.5-7c0-.079.032.066 0 0zm4.854 12.146-3.5-3.5c-1.354-1.354-1.354-6.652-1.354-8.646-.144-2.405-1.398-5.135-3.635-7.364-4.235-4.25-9.494-4.802-13.099-1.355-2.883 3.016-3.025 7.133-.38 11.013.156.229.467.287.695.131.228-.155.287-.467.131-.695-.165-.243-.316-.486-.457-.73h8.745v5.985c-.149-.006-.298-.007-.449-.023-.275-.023-.52.172-.549.446-.028.274.171.521.446.549.186.022.37.005.551.043 2.182 0 7.293 0 8.646 1.354l3.5 3.5c.195.195.512.195.707 0s.195-.512 0-.707zm-11.854-20.882c.905.53 1.799 1.218 2.658 2.079.542.54 1.012 1.095 1.423 1.657h-4.081zm0 4.736h4.735c.78 1.332 1.199 2.688 1.247 4h-5.983v-4zm-6 4h-4.252c-.601-1.359-.834-2.716-.694-4h4.946zm0-5h-4.753c.294-1.09.866-2.111 1.727-3.012.913-.874 1.94-1.446 3.027-1.742v4.754zm5 5h-4v-4h4zm0-5h-4v-4.952c1.293-.144 2.65.093 4 .696zm1 6h5.951c-.162 1.46-.801 2.837-1.936 4.023-1.171 1.119-2.54 1.774-4.016 1.935v-5.959zm2.844 6.107c.663-.355 1.292-.814 1.879-1.376.577-.603 1.031-1.256 1.385-1.94.101 1.499.29 2.888.646 3.958-1.049-.353-2.409-.541-3.91-.641z"/></svg>