<?xml version="1.0" encoding="UTF-8"?>
<svg xmlns="http://www.w3.org/2000/svg" id="Layer_1" data-name="Layer 1" viewBox="0 0 24 24">
  <path d="m20.266,19.559c2.404-2.513,3.734-5.71,3.734-9.059,0-1.378-1.121-2.5-2.5-2.5s-2.5,1.122-2.5,2.5,1.121,2.5,2.5,2.5c.444,0,.856-.126,1.218-.33-.49,2.333-1.605,4.46-3.167,6.173l-2.147-2.147c.542-.599,1.024-1.249,1.406-1.959.131-.243.04-.546-.203-.677-.245-.13-.546-.04-.678.204-.336.624-.759,1.196-1.233,1.725l-5.439-5.439c.341-.516.309-1.206-.145-1.66-.454-.454-1.144-.487-1.66-.145L4.005,3.298c1.652-1.48,3.77-2.298,5.995-2.298,3.715,0,7,2.231,8.369,5.684.078.196.266.316.465.316.062,0,.124-.011.185-.035.257-.102.382-.393.28-.649C17.777,2.479,14.128,0,10,0c-2.492,0-4.862.922-6.704,2.589L.854.146C.658-.049.342-.049.146.146S-.049.658.146.854l18.699,18.699c-1.956,1.845-4.468,3.1-7.253,3.44-.274.032-.537-.052-.748-.238-.219-.194-.345-.472-.345-.763v-2.021c1.39-.068,2.726-.401,3.971-1.024.247-.124.347-.424.224-.671-.124-.247-.427-.346-.671-.223-1.255.628-2.608.947-4.023.947-4.963,0-9-4.038-9-9,0-1.488.37-2.962,1.071-4.263.131-.243.04-.546-.203-.677-.242-.132-.546-.041-.678.203-.778,1.446-1.19,3.084-1.19,4.737,0,5.345,4.219,9.712,9.5,9.975v2.018c0,.577.248,1.128.682,1.512.362.321.826.496,1.3.496.077,0,.155-.004.232-.014,3.012-.368,5.727-1.729,7.837-3.728l3.596,3.596c.098.098.226.146.354.146s.256-.049.354-.146c.195-.195.195-.512,0-.707l-3.588-3.588Zm1.234-7.559c-.827,0-1.5-.673-1.5-1.5s.673-1.5,1.5-1.5c.813,0,1.474.652,1.496,1.46,0,.008-.004.014-.005.022-.004.115-.021.227-.028.341-.148.672-.747,1.178-1.463,1.178Z"/>
</svg>
