<?xml version="1.0" encoding="UTF-8"?>
<svg xmlns="http://www.w3.org/2000/svg" id="Layer_1" data-name="Layer 1" viewBox="0 0 24 24">
  <path d="M12,0C5.383,0,0,5.383,0,12s5.383,12,12,12,12-5.383,12-12S18.617,0,12,0Zm0,23c-6.065,0-11-4.935-11-11S5.935,1,12,1s11,4.935,11,11-4.935,11-11,11ZM15.5,7h-7c-.827,0-1.5,.673-1.5,1.5s.673,1.5,1.5,1.5h7c.827,0,1.5-.673,1.5-1.5s-.673-1.5-1.5-1.5Zm0,2h-7c-.276,0-.5-.224-.5-.5s.224-.5,.5-.5h7c.276,0,.5,.224,.5,.5s-.224,.5-.5,.5Zm.004,2h-7.008c-.568,0-1.079,.315-1.334,.822-.255,.508-.204,1.106,.148,1.58l3.49,4.301c.285,.383,.722,.604,1.2,.604h0c.478,0,.915-.22,1.186-.587l3.517-4.335c.339-.456,.39-1.055,.135-1.562-.255-.507-.767-.822-1.334-.822Zm.41,1.772l-3.517,4.335c-.188,.254-.593,.271-.808-.017l-3.49-4.301c-.113-.153-.13-.347-.044-.517s.251-.272,.441-.272h7.008c.19,0,.355,.102,.441,.272s.069,.364-.031,.5Z"/>
</svg>
