<svg id="Layer_1" viewBox="0 0 24 24" xmlns="http://www.w3.org/2000/svg" data-name="Layer 1"><path d="m23.854 23.146-3-3c.705-.862 1.146-1.948 1.146-3.146 0-2.757-2.243-5-5-5s-5 2.243-5 5 2.243 5 5 5c1.198 0 2.284-.441 3.146-1.146l3 3c.195.195.512.195.707 0s.195-.512 0-.707zm-6.854-2.146c-2.206 0-4-1.794-4-4s1.794-4 4-4 4 1.794 4 4-1.794 4-4 4zm-5-12c-1.103 0-2 .897-2 2 0 3.416-.437 8.263-4.213 10.909-.224.158-.537.105-.697-.122-.158-.227-.104-.538.123-.696 3.395-2.379 3.787-6.898 3.787-10.091 0-1.654 1.346-3 3-3 1.421 0 2.657 1.01 2.94 2.4.055.271-.12.534-.39.59-.27.053-.535-.12-.589-.391-.188-.927-1.013-1.6-1.96-1.6zm6.859.522c.056.271-.119.535-.389.591-.264.055-.536-.117-.59-.39-.562-2.737-2.999-4.724-5.794-4.724-1.677 0-3.282.719-4.405 1.972-.185.206-.501.223-.706.038-.206-.184-.223-.5-.039-.706 1.312-1.464 3.189-2.304 5.15-2.304 3.269 0 6.117 2.322 6.774 5.522zm-12.859 1.478c0 7.458-3.802 8.752-5.436 8.962-.269.036-.526-.157-.56-.433-.035-.273.159-.524.432-.56 1.373-.176 4.564-1.306 4.564-7.97 0-.182.007-.362.022-.541.023-.275.263-.475.54-.457.275.022.479.264.457.539-.013.151-.019.305-.019.459zm-5 2.5v-2.5c0-6.065 4.935-11 11-11 2.4 0 4.683.763 6.601 2.206.221.166.265.479.099.7-.166.222-.479.267-.7.099-1.744-1.312-3.818-2.005-6-2.005-5.514 0-10 4.486-10 10v2.5c0 .276-.224.5-.5.5s-.5-.224-.5-.5zm20-6.855c-.121-.249-.017-.548.231-.669.251-.12.549-.016.668.231.73 1.503 1.1 3.115 1.1 4.793 0 .302 0 .652-.005 1.044-.003.274-.227.494-.5.494h-.006c-.276-.004-.497-.23-.494-.506.005-.388.005-.734.005-1.032 0-1.525-.336-2.99-1-4.355z"/></svg>