<svg id="Layer_1" viewBox="0 0 24 24" xmlns="http://www.w3.org/2000/svg" data-name="Layer 1"><path d="m17.5 6h-2c-3.584 0-6.5 2.916-6.5 6.5v4c0 4.136 3.364 7.5 7.5 7.5s7.5-3.364 7.5-7.5v-4c0-3.584-2.916-6.5-6.5-6.5zm5.5 6.5v.5h-6v-6h.5c3.032 0 5.5 2.467 5.5 5.5zm-7.5-5.5h.5v6h-6v-.5c0-3.033 2.467-5.5 5.5-5.5zm1 16c-3.584 0-6.5-2.916-6.5-6.5v-2.5h13v2.5c0 3.584-2.916 6.5-6.5 6.5zm3.356-19.25 1.443-2.5c.138-.239.443-.319.683-.183.239.138.321.444.183.683l-1.443 2.5c-.138.241-.448.319-.683.183-.239-.138-.321-.444-.183-.683zm-3.856-.25v-3c0-.276.224-.5.5-.5s.5.224.5.5v3c0 .276-.224.5-.5.5s-.5-.224-.5-.5zm-8.567 16.539c.138.239.056.545-.183.683l-2.5 1.443c-.235.137-.544.058-.683-.183-.138-.239-.056-.545.183-.683l2.5-1.443c.238-.139.544-.057.683.183zm-.933-3.039h-3c-.276 0-.5-.224-.5-.5s.224-.5.5-.5h3c.276 0 .5.224.5.5s-.224.5-.5.5zm-.5-5c-3.309 0-6-2.691-6-6s2.691-6 6-6c2.673 0 5.047 1.794 5.774 4.364.075.266-.079.542-.345.617-.263.076-.542-.079-.617-.345-.605-2.141-2.584-3.636-4.812-3.636-2.757 0-5 2.243-5 5s2.243 5 5 5c.153 0 .306-.007.456-.021.289-.026.519.179.542.454.024.275-.179.518-.454.542-.179.016-.361.024-.544.024zm-1.5-7.378c0 .279.188.526.458.6l2.284.499c.75.2 1.258.862 1.258 1.614 0 .918-.748 1.666-1.666 1.666h-.334v.5c0 .276-.224.5-.5.5s-.5-.224-.5-.5v-.5h-.334c-.981 0-1.666-.617-1.666-1.5 0-.276.224-.5.5-.5s.5.224.5.5c0 .464.51.5.666.5h1.668c.367 0 .666-.299.666-.666 0-.301-.203-.565-.494-.643l-2.287-.499c-.729-.198-1.22-.841-1.22-1.57 0-.894.728-1.622 1.622-1.622h.378v-.5c0-.276.224-.5.5-.5s.5.224.5.5v.5h.391c.932 0 1.609.631 1.609 1.5 0 .276-.224.5-.5.5s-.5-.224-.5-.5c0-.476-.507-.5-.609-.5h-1.77c-.343 0-.622.279-.622.622z"/></svg>