<?xml version="1.0" encoding="UTF-8"?>
<svg xmlns="http://www.w3.org/2000/svg" id="Layer_1" data-name="Layer 1" viewBox="0 0 24 24">
  <path d="M12,0C5.383,0,0,5.383,0,12s5.383,12,12,12,12-5.383,12-12S18.617,0,12,0Zm0,23c-6.065,0-11-4.935-11-11S5.935,1,12,1s11,4.935,11,11-4.935,11-11,11Zm.718-11.002l3.753-2.597c.705-.609,.703-1.738-.031-2.355l-3.851-2.804c-.577-.553-1.619-.087-1.588,.713v5.855l-3.216-2.222c-.529-.379-1.107,.462-.568,.822l3.747,2.587-3.747,2.59c-.539,.361,.04,1.199,.568,.822l3.216-2.225v5.858c-.037,.773,.984,1.262,1.55,.743l3.929-2.867c.701-.618,.696-1.738-.05-2.358l-3.712-2.565Zm-.756-6.978l3.851,2.804c.235,.177,.234,.616,.044,.791l-3.878,2.681-.017-6.275Zm3.891,11.124l-3.853,2.901-.018-6.342,3.832,2.646c.235,.181,.237,.616,.038,.795Z"/>
</svg>
