<?xml version="1.0" encoding="UTF-8"?>
<svg xmlns="http://www.w3.org/2000/svg" id="Layer_1" data-name="Layer 1" viewBox="0 0 24 24">
  <path d="m22.5,21h-.5v-10c0-1.083-.582-2.025-1.444-2.553L15.661,1.266c-.431-.752-1.233-1.266-2.161-1.266-1.378,0-2.5,1.122-2.5,2.5,0,.075.016.146.022.22-.002.002-.004.002-.006.004l-3.277,3.276h-2.813c-1.202,0-2.332.468-3.182,1.318l-1.315,1.315c-.571.571-.571,1.499,0,2.07.57.57,1.5.57,2.07,0l1.557-1.557c.093-.093.222-.146.354-.146l2.591-.064v2.655c0,.131-.053.26-.146.354l-1.557,1.557c-.571.571-.571,1.499,0,2.07.285.285.66.428,1.035.428s.75-.143,1.035-.428l1.315-1.315c.85-.85,1.318-1.979,1.318-3.182v-2.813l2.631-2.632,3.406,4.998c-.016.124-.038.245-.038.373v10h-.5c-.827,0-1.5.673-1.5,1.5s.673,1.5,1.5,1.5h7c.827,0,1.5-.673,1.5-1.5s-.673-1.5-1.5-1.5Zm-1.5-10c0,1.103-.897,2-2,2s-2-.897-2-2,.897-2,2-2,2,.897,2,2Zm0,2.22v7.78h-4v-7.78c.532.48,1.229.78,2,.78s1.468-.301,2-.78Zm-12-2.146c0,.935-.364,1.813-1.025,2.475l-1.315,1.315c-.181.18-.475.181-.656,0-.087-.088-.136-.204-.136-.328s.048-.24.136-.328l1.557-1.557c.283-.283.439-.66.439-1.061v-2.655c0-.516-.42-.936-.936-.936h-2.655c-.4,0-.777.156-1.061.439l-1.557,1.557c-.177.174-.481.174-.656,0-.181-.181-.181-.475,0-.656l1.315-1.315c.661-.661,1.54-1.025,2.475-1.025h2.813l1.261,1.261v2.813Zm.5-3.728l-.847-.847,2.714-2.714c.058.095.691,1.002.691,1.002l-2.558,2.559Zm2.5-4.847c0-.828.672-1.5,1.5-1.5s1.5.672,1.5,1.5-.672,1.5-1.5,1.5-1.5-.672-1.5-1.5Zm1.406,2.491c.032.001.062.009.094.009,1.09,0,2.009-.705,2.351-1.68l3.193,4.684c-.015,0-.029-.004-.043-.004-1.085,0-2.028.584-2.555,1.449l-3.039-4.458Zm9.094,18.009h-7c-.276,0-.5-.224-.5-.5s.224-.5.5-.5h7c.276,0,.5.224.5.5s-.224.5-.5.5Z"/>
</svg>
