<svg id="Layer_1" viewBox="0 0 24 24" xmlns="http://www.w3.org/2000/svg" data-name="Layer 1"><path d="m9.28 10.255c.444.252.72.767.72 1.342v.601c0 1.027.731 1.802 1.7 1.802h.6c.938 0 1.7-.763 1.7-1.7v-.722c0-.564.271-1.068.708-1.315 1.722-.974 2.792-2.799 2.792-4.762 0-1.666-.743-3.224-2.038-4.274-1.295-1.052-2.99-1.454-4.655-1.101-2.112.446-3.802 2.176-4.205 4.305-.447 2.359.604 4.645 2.678 5.825zm3.72 2.044c0 .386-.314.7-.7.7h-.6c-.406 0-.7-.337-.7-.802v-.601c0-.206-.031-.404-.075-.598h2.148c-.041.187-.073.379-.073.578v.722zm-5.416-7.682c.378-2.076 2.305-3.652 4.405-3.615 2.421-.054 4.562 2.074 4.511 4.498 0 1.604-.875 3.095-2.284 3.892-.27.152-.487.372-.674.616-.014-.001-.027-.008-.041-.008h-1v-3.571c.86-.224 1.5-1 1.5-1.929 0-.276-.224-.5-.5-.5s-.5.224-.5.5c0 .551-.449 1-1 1s-1-.449-1-1c0-.276-.224-.5-.5-.5s-.5.224-.5.5c0 .929.64 1.705 1.5 1.929v3.571h-1c-.016 0-.03.008-.047.009-.189-.247-.408-.469-.68-.623-1.697-.965-2.556-2.837-2.19-4.769zm16.416 1.95v11.652c0 2.176-1.554 4.039-3.695 4.428l-6.719 1.221c-1.052.192-2.119.192-3.171 0l-6.719-1.222c-2.141-.389-3.695-2.251-3.695-4.427v-11.652c-.053-2.416 2.082-4.55 4.491-4.501.283.027.509.223.508.501 0 .276-.224.499-.5.499-1.874-.042-3.541 1.62-3.5 3.501v11.652c0 1.693 1.208 3.141 2.874 3.444l6.719 1.222c.301.055.604.085.907.105v-6.489c0-.276.224-.5.5-.5s.5.224.5.5v6.489c.303-.019.606-.05.907-.104l6.719-1.222c1.666-.303 2.874-1.751 2.874-3.444v-11.653c.055-1.88-1.657-3.545-3.5-3.501-.276 0-.5-.223-.5-.499 0-.279.206-.52.508-.501 2.409-.049 4.544 2.085 4.492 4.501z"/></svg>