<svg id="Layer_1" viewBox="0 0 24 24" xmlns="http://www.w3.org/2000/svg" data-name="Layer 1"><path d="m4 5h2.09c-.055.326-.09.659-.09 1 0 3.309 2.691 6 6 6s6-2.691 6-6-2.691-6-6-6c-2.607 0-4.824 1.673-5.65 4h-2.35c-.276 0-.5.224-.5.5s.224.5.5.5zm8 6c-2.757 0-5-2.243-5-5 0-.342.035-.677.101-1h9.798c.066.323.101.658.101 1 0 2.757-2.243 5-5 5zm0-10c2.045 0 3.802 1.237 4.576 3h-9.152c.774-1.763 2.531-3 4.576-3zm3.5 16h-7c-1.378 0-2.5 1.121-2.5 2.5v2c0 1.379 1.122 2.5 2.5 2.5h7c1.378 0 2.5-1.121 2.5-2.5v-2c0-1.379-1.122-2.5-2.5-2.5zm-8.5 2.5c0-.827.673-1.5 1.5-1.5h1.172c.34.633.969 1 1.743 1h1.168c.776 0 1.406-.366 1.745-1h1.171c.827 0 1.5.673 1.5 1.5v.5h-9.999zm10 2c0 .827-.673 1.5-1.5 1.5h-7c-.827 0-1.5-.673-1.5-1.5v-.5h2.673c.34.632.969.998 1.742.998l1.168.002c.775 0 1.404-.367 1.744-1h2.672v.5zm4 0v2c0 .276-.224.5-.5.5s-.5-.224-.5-.5v-2c0-3.584-2.916-6.5-6.5-6.5h-3c-3.584 0-6.5 2.916-6.5 6.5v2c0 .276-.224.5-.5.5s-.5-.224-.5-.5v-2c0-4.136 3.364-7.5 7.5-7.5h3c4.136 0 7.5 3.364 7.5 7.5z"/></svg>