<svg id="Layer_1" viewBox="0 0 24 24" xmlns="http://www.w3.org/2000/svg" data-name="Layer 1"><path d="m19.776 3.208c-2.076-2.069-4.838-3.208-7.776-3.208s-5.7 1.139-7.778 3.208-3.222 4.82-3.222 7.747 1.145 5.678 3.237 7.761l4.151 3.818c.971.946 2.254 1.467 3.612 1.467s2.641-.521 3.602-1.457l4.175-3.842c2.078-2.069 3.223-4.821 3.223-7.747s-1.145-5.678-3.223-7.747zm-.691 14.771-4.171 3.838c-1.566 1.526-4.252 1.536-5.839-.01l-4.147-3.814c-1.889-1.88-2.929-4.379-2.929-7.038s1.04-5.158 2.929-7.038c1.889-1.881 4.4-2.917 7.072-2.917s5.183 1.036 7.071 2.917c1.888 1.88 2.928 4.379 2.928 7.038s-1.04 5.158-2.914 7.024zm-2.002-10.395c-.438-1.618-1.591-2.584-3.083-2.584h-4c-1.492 0-2.645.966-3.088 2.604l-.665 2.938c-.152.666-.247 1.226-.247 1.958v.5c0 .804.533 2 2 2 0 .551.449 1 1 1s1-.449 1-1h4c0 .551.448 1 1 1s1-.449 1-1c1.468 0 2-1.196 2-2v-.5c0-.732-.095-1.292-.247-1.957zm-7.083-1.584h4c1.407 0 1.931 1.156 2.113 1.825l.492 2.175h-9.21l.487-2.154c.187-.689.711-1.846 2.118-1.846zm7 6.996c-.004.236-.087 1.004-1 1.004h-8c-.913 0-.996-.768-1-1v-.5c0-.555.064-.994.172-1.5h1.828v.5c0 .276.224.5.5.5s.5-.224.5-.5v-.5h4v.5c0 .276.224.5.5.5s.5-.224.5-.5v-.5h1.828c.108.505.172.945.172 1.5z"/></svg>