<svg id="Layer_1" viewBox="0 0 24 24" xmlns="http://www.w3.org/2000/svg" data-name="Layer 1"><path d="m15.5 12c-.276 0-.5.224-.5.5v4.5h-14v-12.5c0-1.93 1.57-3.5 3.5-3.5h7c.276 0 .5-.224.5-.5s-.224-.5-.5-.5h-7c-2.481 0-4.5 2.019-4.5 4.5v15c0 2.481 2.019 4.5 4.5 4.5h7c2.481 0 4.5-2.019 4.5-4.5v-7c0-.276-.224-.5-.5-.5zm-4 11h-7c-1.93 0-3.5-1.57-3.5-3.5v-1.5h14v1.5c0 1.93-1.57 3.5-3.5 3.5zm-1.5-2.5c0 .276-.224.5-.5.5h-3c-.276 0-.5-.224-.5-.5s.224-.5.5-.5h3c.276 0 .5.224.5.5zm-1-11.5v1c0 .276-.224.5-.5.5h-1c-.276 0-.5-.224-.5-.5v-1c0-.276.224-.5.5-.5h1c.276 0 .5.224.5.5zm11 .5c0 .276-.224.5-.5.5s-.5-.224-.5-.5c0-2.481-2.019-4.5-4.5-4.5-.276 0-.5-.224-.5-.5s.224-.5.5-.5c3.032 0 5.5 2.467 5.5 5.5zm-4 0c0 .276-.224.5-.5.5s-.5-.224-.5-.5-.225-.5-.5-.5-.5-.224-.5-.5.224-.5.5-.5c.827 0 1.5.673 1.5 1.5zm8 0c0 .276-.224.5-.5.5s-.5-.224-.5-.5c0-4.687-3.813-8.5-8.5-8.5-.276 0-.5-.224-.5-.5s.224-.5.5-.5c5.238 0 9.5 4.262 9.5 9.5zm-12.881-2.75-2-1.35c-.68-.459-1.558-.459-2.237 0l-2 1.35c-.552.372-.882.992-.882 1.658v2.592c0 1.103.897 2 2 2h4c1.103 0 2-.897 2-2v-2.592c0-.666-.33-1.286-.881-1.658zm-.119 4.25c0 .551-.449 1-1 1h-4c-.551 0-1-.449-1-1v-2.592c0-.333.165-.643.441-.829l2-1.35c.17-.115.364-.172.559-.172s.389.058.559.172l2 1.35c.276.186.44.496.44.829v2.592z"/></svg>