<?xml version="1.0" encoding="UTF-8"?>
<svg xmlns="http://www.w3.org/2000/svg" id="Layer_1" data-name="Layer 1" viewBox="0 0 24 24">
  <path d="M23.639,14.557c-.329-.394-.818-.601-1.334-.555-5.583,.521-8.47,4.368-9.805,6.969v-6.018c1.118-.073,2.283-.473,3.168-1.185,.201-.027,2.332-1.769,2.332-4.872,0-1.935,.564-3.575,.958-5.137,.285-1.011-.746-2.016-1.75-1.708-.11,.03-.233,.07-.366,.117,.059-.232,.111-.452,.133-.585,.174-.89-.673-1.754-1.566-1.559-.884,.164-2.246,.612-3.409,1.26C10.836,.635,9.472,.188,8.586,.023c-.899-.195-1.738,.668-1.566,1.558,.022,.134,.075,.354,.134,.587-.132-.047-.254-.087-.364-.117-1.005-.31-2.036,.706-1.747,1.719,.399,1.587,.943,3.259,.957,5.23,0,1.958,.974,3.803,2.605,4.934,.876,.607,1.869,.943,2.895,1.029v6.009c-1.335-2.601-4.222-6.448-9.806-6.97-1.013-.124-1.948,.94-1.64,1.933,2.169,7.839,10.951,8.065,11.945,8.065s9.776-.227,11.946-8.066c.131-.476,.017-.991-.308-1.377ZM17.47,3.016c.391-.03,.541,.116,.518,.504-.412,1.623-.961,3.305-.987,5.371-.007,1.203-.406,2.333-1.084,3.217-.542-2.666-1.772-4.928-3.225-6.558,1.338-1.32,3.221-1.943,4.778-2.534Zm-1.878-2.008c.29-.034,.422,.175,.397,.41-.038,.226-.201,.836-.307,1.222-1.364,.557-2.525,1.055-3.687,2.192-.485-.458-.984-.837-1.483-1.15,1.885-1.84,3.21-2.185,5.08-2.675Zm-7.586,.409c-.025-.235,.108-.444,.397-.41,.682,.126,1.675,.445,2.61,.898-.411,.298-.93,.727-1.394,1.271-.006,.007-.007,.015-.012,.022-.414-.19-.861-.367-1.29-.557-.108-.386-.274-.998-.311-1.224Zm-1.006,7.583c0-1.758-.464-3.496-.803-4.764-.069-.259-.132-.496-.184-.705-.048-.394,.175-.564,.515-.516,1.749,.655,3.727,1.326,5.159,2.904,1.571,1.638,2.92,4.101,3.368,7.059-.362,.283-.767,.513-1.203,.677-1.604,.602-3.31,.404-4.678-.544-1.362-.944-2.175-2.481-2.175-4.111ZM1.019,15.668c-.106-.342,.234-.716,.583-.67,6.538,.609,9.031,6.063,9.709,7.977-2.223-.145-8.576-1.104-10.292-7.307Zm21.964,0c-1.715,6.195-8.056,7.16-10.285,7.307,.696-1.905,3.245-7.375,9.7-7.977,.349-.045,.689,.329,.585,.67Z"/>
</svg>
