<?xml version="1.0" encoding="UTF-8"?>
<svg xmlns="http://www.w3.org/2000/svg" id="Layer_1" data-name="Layer 1" viewBox="0 0 24 24">
  <path d="M16.387,12.446c1.643-1.325,2.613-3.336,2.613-5.446,.079-3.762-3.239-7.079-6.999-7-3.823-.091-7.279,3.563-6.991,7.374,.105,1.992,1.05,3.822,2.604,5.072l-2.045,7.92c-.441,1.804,1.076,3.682,2.932,3.634h7c1.867,.043,3.374-1.829,2.928-3.654l-2.041-7.9Zm.67,9.81c-.382,.473-.949,.744-1.557,.744h-7c-1.227,.038-2.246-1.222-1.959-2.404l2.123-8.221c.051-.199-.024-.408-.189-.529-1.472-1.072-2.37-2.722-2.467-4.525-.245-3.256,2.725-6.4,5.992-6.321,3.224-.067,6.068,2.775,6,6,0,1.905-.925,3.717-2.475,4.846-.165,.121-.24,.331-.189,.529l2.119,8.201c.128,.594-.017,1.207-.398,1.679Z"/>
</svg>
