<svg id="Layer_1" viewBox="0 0 24 24" xmlns="http://www.w3.org/2000/svg" data-name="Layer 1"><path d="m18.209 21.762c.195.196.195.512 0 .708l-.355.355c-.782.782-1.811 1.173-2.839 1.173s-2.056-.391-2.839-1.174c-1.565-1.565-1.565-4.112 0-5.678l1.42-1.42c.759-.758 1.767-1.176 2.839-1.176s2.081.418 2.839 1.176c.275.274.509.587.693.928.132.243.042.546-.201.678-.242.131-.545.042-.678-.201-.139-.256-.314-.491-.521-.697-1.139-1.14-3.124-1.141-4.264 0l-1.42 1.42c-1.175 1.175-1.175 3.088 0 4.264 1.176 1.175 3.088 1.175 4.264 0l.355-.355c.195-.194.512-.195.707 0zm-1.062-9.587-.355.355c-.195.195-.195.512 0 .708.195.195.512.195.707 0l.355-.355c1.176-1.175 3.088-1.175 4.264 0 1.175 1.175 1.175 3.088 0 4.264l-1.42 1.42c-1.14 1.14-3.126 1.14-4.264 0-.207-.207-.383-.441-.521-.697-.133-.244-.435-.332-.678-.201s-.333.435-.201.678c.185.341.418.654.693.928.758.758 1.766 1.176 2.839 1.176s2.08-.418 2.839-1.176l1.42-1.42c1.564-1.565 1.564-4.112 0-5.678-1.566-1.565-4.113-1.565-5.678 0zm6.854-5.675v3c0 .276-.224.5-.5.5s-.5-.224-.5-.5v-2.5h-22.001v10.5c0 1.93 1.57 3.5 3.5 3.5h4c.276 0 .5.224.5.5s-.224.5-.5.5h-4c-2.481 0-4.5-2.019-4.5-4.5v-13c0-2.481 2.019-4.5 4.5-4.5h3.028c.386 0 .772.091 1.118.264l3.156 1.578c.207.104.439.158.671.158h7.028c2.481 0 4.5 2.019 4.5 4.5zm-23.001-.5h21.949c-.245-1.692-1.691-3-3.449-3h-7.028c-.386 0-.772-.091-1.118-.264l-3.156-1.578c-.207-.104-.439-.158-.671-.158h-3.028c-1.93 0-3.5 1.57-3.5 3.5v1.5z"/></svg>