<svg id="Layer_1" viewBox="0 0 24 24" xmlns="http://www.w3.org/2000/svg" data-name="Layer 1"><path d="m14 10v1h-.5c-.276 0-.5.224-.5.5s.224.5.5.5h10c.276 0 .5-.224.5-.5s-.224-.5-.5-.5h-.5v-1c0-1.654-1.346-3-3-3h-.379c.912-2.402 1.379-3.935 1.379-4.541 0-1.379-1.098-2.459-2.5-2.459s-2.5 1.081-2.5 2.459c0 .605.468 2.139 1.379 4.541h-.379c-1.654 0-3 1.346-3 3zm8 0v1h-7v-1c0-1.103.897-2 2-2h3c1.103 0 2 .897 2 2zm-5-7.541c0-.818.659-1.459 1.5-1.459s1.5.641 1.5 1.459c0 .486-.539 2.172-1.448 4.541h-.104c-.91-2.369-1.448-4.055-1.448-4.541zm4 15.541h-1v-3.5c0-.276-.224-.5-.5-.5s-.5.224-.5.5v3.5h-6c-1.654 0-3 1.346-3 3 0 1.103-.897 2-2 2s-2-.897-2-2v-18c0-.771-.301-1.468-.78-2h8.28c.276 0 .5-.224.5-.5s-.224-.5-.5-.5h-10.5c-1.654 0-3 1.346-3 3s1.346 3 3 3h2v15c0 1.654 1.346 3 3 3h13c1.654 0 3-1.346 3-3s-1.346-3-3-3zm-16-13h-2c-1.103 0-2-.897-2-2s.897-2 2-2 2 .897 2 2zm16 18h-10.766c.476-.531.766-1.232.766-2 0-1.103.897-2 2-2h8c1.103 0 2 .897 2 2s-.897 2-2 2z"/></svg>