<?xml version="1.0" encoding="UTF-8"?>
<svg xmlns="http://www.w3.org/2000/svg" id="Layer_1" data-name="Layer 1" viewBox="0 0 24 24">
  <path d="M19,23.5c0,.276-.224,.5-.5,.5h-2.5c-1.752,0-3.257-1.016-4-2.482-.743,1.465-2.248,2.482-4,2.482h-2.5c-.276,0-.5-.224-.5-.5s.224-.5,.5-.5h2.5c1.93,0,3.5-1.57,3.5-3.5v-4.5H7.5c-.276,0-.5-.224-.5-.5s.224-.5,.5-.5h4V4.5c0-1.93-1.57-3.5-3.5-3.5h-2.5c-.276,0-.5-.224-.5-.5s.224-.5,.5-.5h2.5c1.752,0,3.257,1.016,4,2.482,.743-1.465,2.248-2.482,4-2.482h2.5c.276,0,.5,.224,.5,.5s-.224,.5-.5,.5h-2.5c-1.93,0-3.5,1.57-3.5,3.5V14h4c.276,0,.5,.224,.5,.5s-.224,.5-.5,.5h-4v4.5c0,1.93,1.57,3.5,3.5,3.5h2.5c.276,0,.5,.224,.5,.5Z"/>
</svg>
