<?xml version="1.0" encoding="UTF-8"?>
<svg xmlns="http://www.w3.org/2000/svg" id="Layer_1" data-name="Layer 1" viewBox="0 0 24 24">
  <path d="M19.769,4.394C17.341,1.157,13.34-.475,9.318,.127,4.5,.853,.439,5.29,.074,10.229c-.199,2.698,.481,5.208,1.969,7.258,.626,.862,.957,1.808,.957,2.733v1.28c0,1.472,1.028,2.5,2.5,2.5H13.5c1.379,0,2.5-1.122,2.5-2.5v-.5h.986c2.113,0,3.965-1.5,4.402-3.566l.517-2.434h.549c1.134,0,1.546-.87,1.546-1.455,0-1.281-2.843-7.428-4.231-9.152Zm2.686,9.606h-.956c-.236,0-.438,.165-.487,.396l-.601,2.831c-.341,1.607-1.78,2.773-3.424,2.773h-1.486c-.276,0-.5,.224-.5,.5v1c0,.827-.673,1.5-1.5,1.5H5.5c-.692,0-1.5-.393-1.5-1.5v-1.28c0-1.138-.397-2.286-1.148-3.32-1.346-1.856-1.961-4.138-1.779-6.597C1.404,5.81,5.092,1.775,9.467,1.117c.504-.076,1.007-.113,1.507-.113,3.127,0,6.098,1.457,8,3.997l.012,.015c1.407,1.74,4.015,7.664,4.015,8.522-.007,.211-.107,.462-.546,.462Zm-5.954-5h-.5v-.5c0-.827-.673-1.5-1.5-1.5H7.5c-.827,0-1.5,.673-1.5,1.5v3c0,.827,.673,1.5,1.5,1.5h7c.827,0,1.5-.673,1.5-1.5v-.5h.5c.276,0,.5-.224,.5-.5v-1c0-.276-.224-.5-.5-.5Zm-9.5,2.5v-3c0-.276,.225-.5,.5-.5h1.5v4h-1.5c-.275,0-.5-.224-.5-.5Zm8,0c0,.276-.225,.5-.5,.5h-4.5v-4h4.5c.275,0,.5,.224,.5,.5v3Z"/>
</svg>
