<?xml version="1.0" encoding="UTF-8"?>
<svg xmlns="http://www.w3.org/2000/svg" id="Layer_1" data-name="Layer 1" viewBox="0 0 24 24">
  <path d="M8.5,12c3.032,0,5.5-2.467,5.5-5.5S11.532,1,8.5,1,3,3.467,3,6.5s2.468,5.5,5.5,5.5Zm0-10c2.481,0,4.5,2.019,4.5,4.5s-2.019,4.5-4.5,4.5-4.5-2.019-4.5-4.5S6.019,2,8.5,2Zm15.231,19.768c.244,.517,.208,1.071-.076,1.518-.285,.447-.771,.714-1.302,.714H13.5c-.276,0-.5-.224-.5-.5s.224-.5,.5-.5h8.854c.189,0,.356-.092,.458-.251,.102-.159,.113-.349,.033-.521l-2.278-3.979c-1.623-3.09-4.976-4.711-8.546-4.148-2.001,.316-3.343,1.102-4.63,2.712l-3.409,4.385,3.623-2.38c.806-.559,2.016-.176,2.357,.741l1.502,3.755c.103,.256-.021,.547-.278,.65-.25,.101-.547-.019-.649-.279l-1.502-3.755c-.129-.343-.578-.485-.881-.277L1.908,23.756c-.845,.661-2.12-.163-1.886-1.198l1.988-9.658c.055-.272,.322-.442,.59-.389,.271,.056,.444,.32,.389,.59l-1.986,9.651c-.023,.278,.252,.286,.396,.143l5.207-6.701c1.444-1.807,3.016-2.726,5.259-3.08,3.938-.625,7.79,1.248,9.578,4.654l2.289,4Zm.269-12.268c0,.215-.138,.406-.342,.474l-1.263,.421-.421,1.263c-.132,.447-.816,.447-.948,0l-.423-1.269-1.27-.449c-.445-.141-.432-.824,.018-.948l1.256-.393,.419-1.257c.136-.408,.812-.408,.948,0l.421,1.263,1.263,.421c.204,.068,.342,.259,.342,.474ZM14.806,3.915l1.95,.822,.78,1.949c.075,.19,.26,.314,.464,.314s.389-.125,.464-.314l.778-1.944,1.943-.777c.19-.076,.314-.26,.314-.464s-.124-.388-.314-.464l-1.943-.777-.778-1.944c-.15-.38-.777-.38-.928,0l-.776,1.939-1.937,.733c-.191,.073-.319,.254-.323,.458s.117,.391,.306,.47Zm2.514-.804c.131-.05,.235-.152,.287-.282l.394-.982,.394,.982c.051,.127,.151,.228,.278,.279l.981,.393-.981,.393c-.127,.051-.228,.151-.278,.279l-.394,.982-.394-.982c-.049-.125-.146-.223-.27-.275l-.99-.417,.973-.368Z"/>
</svg>
