<?xml version="1.0" encoding="UTF-8"?>
<svg xmlns="http://www.w3.org/2000/svg" id="Layer_1" data-name="Layer 1" viewBox="0 0 24 24">
  <path d="m19.5,2h-3c-.012,0-.022.006-.034.007-1.099-1.228-2.691-2.007-4.466-2.007s-3.366.779-4.466,2.007c-.012,0-.022-.007-.034-.007h-3C2.019,2,0,4.019,0,6.5v13c0,2.481,2.019,4.5,4.5,4.5h15c2.481,0,4.5-2.019,4.5-4.5V6.5c0-2.481-2.019-4.5-4.5-4.5Zm-7.5-1c2.757,0,5,2.243,5,5,0,.552-.448,1-1,1h-3.762l1.325-3.314c.103-.256-.021-.547-.278-.649-.256-.103-.547.022-.649.278l-1.474,3.686h-3.162c-.552,0-1-.448-1-1,0-2.757,2.243-5,5-5Zm11,18.5c0,1.93-1.57,3.5-3.5,3.5H4.5c-1.93,0-3.5-1.57-3.5-3.5V6.5c0-1.93,1.57-3.5,3.5-3.5h2.312c-.513.884-.812,1.907-.812,3,0,1.103.897,2,2,2h8c1.103,0,2-.897,2-2,0-1.093-.299-2.116-.812-3h2.312c1.93,0,3.5,1.57,3.5,3.5v13Z"/>
</svg>
