<?xml version="1.0" encoding="UTF-8"?>
<svg xmlns="http://www.w3.org/2000/svg" id="Layer_1" data-name="Layer 1" viewBox="0 0 24 24">
  <path d="M24,.5V23.5c0,.276-.224,.5-.5,.5s-.5-.224-.5-.5V11.994s0,.002,0,.003,0,.002,0,.003c0,.069-.014,.134-.039,.193-.045,.309-.16,.609-.398,.847l-3.204,3.308c-.099,.102-.229,.152-.359,.152-.125,0-.251-.047-.348-.141-.198-.192-.203-.509-.012-.707l3.054-3.152H2.305l3.054,3.152c.191,.198,.187,.515-.012,.707-.097,.094-.223,.141-.348,.141-.131,0-.261-.051-.359-.152l-3.21-3.313c-.254-.254-.376-.582-.407-.917-.01-.039-.024-.076-.024-.117,0-.001,0-.002,0-.003,0-.001,0-.002,0-.003v11.506c0,.276-.224,.5-.5,.5s-.5-.224-.5-.5V.5C0,.224,.224,0,.5,0s.5,.224,.5,.5V11.964c.005-.378,.148-.756,.437-1.045l3.206-3.27c.195-.195,.51-.199,.708-.007,.196,.193,.2,.511,.007,.708l-3.089,3.149H21.733l-3.09-3.149c-.193-.197-.189-.515,.007-.708,.198-.192,.515-.188,.708,.007l3.21,3.272c.287,.287,.43,.665,.433,1.044V.5c0-.276,.224-.5,.5-.5s.5,.224,.5,.5Z"/>
</svg>
