<svg id="Layer_1" viewBox="0 0 24 24" xmlns="http://www.w3.org/2000/svg" data-name="Layer 1"><path d="m19.5 0c-.276 0-.5.224-.5.5v8.5h-14v-8.5c0-.276-.224-.5-.5-.5s-.5.224-.5.5v23c0 .276.224.5.5.5s.5-.224.5-.5v-1.5h14v1.5c0 .276.224.5.5.5s.5-.224.5-.5v-23c0-.276-.224-.5-.5-.5zm-14.5 14h14v3h-14zm14-4v3h-14v-3zm-14 11v-3h14v3zm4.595-16.246-.418 1.255c-.136.428.015.896.374 1.165.35.267.861.281 1.223.032l1.234-.827 1.259.819c.376.245.865.225 1.223-.048.354-.274.499-.744.355-1.178l-.43-1.225 1.052-.857c.339-.285.465-.755.313-1.171-.156-.43-.556-.719-.993-.719h-1.322l-.474-1.312c-.153-.412-.552-.688-.991-.688s-.838.277-.993.693l-.472 1.307h-1.322c-.437 0-.836.289-.991.716-.153.415-.03.886.315 1.178zm-.382-1.754h1.673c.211 0 .398-.132.471-.33l.592-1.637c.027-.066.072-.067.104 0l.592 1.637c.072.198.26.33.471.33h1.671c.086 0 .113.053.045.12l-1.318 1.074c-.164.133-.227.354-.156.553l.546 1.556c.024.08-.022.095-.09.058l-1.535-1c-.168-.109-.384-.107-.551.003l-1.51 1.011c-.066.044-.119.023-.088-.058l.524-1.576c.065-.197.002-.415-.159-.545l-1.325-1.078c-.065-.058-.041-.118.045-.118z"/></svg>