<?xml version="1.0" encoding="UTF-8"?>
<svg xmlns="http://www.w3.org/2000/svg" id="Layer_1" data-name="Layer 1" viewBox="0 0 24 24">
  <path d="M6,4h-1c-.551,0-1,.449-1,1v5.5c0,.276,.224,.5,.5,.5s.5-.224,.5-.5v-2.5h1c1.103,0,2-.897,2-2s-.897-2-2-2Zm0,3h-1v-2h1c.551,0,1,.449,1,1s-.449,1-1,1Zm7.048,2.273c-.164,1.001-1.033,1.727-2.067,1.727-.771,0-1.709-.483-2.171-.951-.194-.196-.192-.513,.005-.707,.195-.194,.512-.192,.707,.005,.337,.342,1.033,.653,1.459,.653,.542,0,.996-.373,1.08-.887,.029-.182,.06-.804-.792-1.149-.095-.035-1.04-.394-1.467-.659-.593-.418-.873-1.049-.788-1.712,.093-.7,.56-1.269,1.219-1.486,.799-.261,1.61-.043,2.415,.654,.208,.181,.231,.497,.05,.706-.182,.208-.497,.231-.706,.05-.534-.463-.994-.608-1.446-.46-.292,.096-.499,.352-.541,.666-.038,.297,.082,.562,.337,.745,.277,.169,1.025,.466,1.289,.565,1.234,.499,1.533,1.518,1.416,2.24Zm1.952,1.727h.5c1.378,0,2.5-1.122,2.5-2.5v-2c0-1.378-1.122-2.5-2.5-2.5h-.5c-.551,0-1,.449-1,1v5c0,.551,.449,1,1,1Zm0-6h.5c.827,0,1.5,.673,1.5,1.5v2c0,.827-.673,1.5-1.5,1.5h-.5V5ZM19.5,0H4.5C2.019,0,0,2.019,0,4.5v15c0,2.481,2.019,4.5,4.5,4.5H14.015c1.736,0,3.369-.676,4.596-1.904l3.485-3.485c1.228-1.228,1.904-2.86,1.904-4.596V4.5c0-2.481-2.019-4.5-4.5-4.5ZM4.5,23c-1.93,0-3.5-1.57-3.5-3.5V4.5c0-1.93,1.57-3.5,3.5-3.5h15c1.93,0,3.5,1.57,3.5,3.5V14.015c0,.335-.038,.663-.096,.985h-5.404c-1.378,0-2.5,1.122-2.5,2.5v5.404c-.323,.058-.651,.096-.985,.096H4.5Zm16.889-5.096l-3.485,3.485c-.55,.55-1.2,.959-1.904,1.231v-5.121c0-.827,.673-1.5,1.5-1.5h5.121c-.273,.704-.682,1.354-1.231,1.904Z"/>
</svg>
