<?xml version="1.0" encoding="UTF-8"?>
<svg xmlns="http://www.w3.org/2000/svg" id="Layer_1" data-name="Layer 1" viewBox="0 0 24 24">
  <path d="m12,0C5.373,0,0,5.373,0,12s5.373,12,12,12,12-5.373,12-12S18.627,0,12,0Zm10.962,11.254c-1.267.847-2.53,1.359-3.97,1.591-.038-4.106-1.586-8.139-4.387-11.52,4.576,1.117,8.031,5.096,8.357,9.93ZM12,1c.352,0,.699.02,1.043.053,3.185,3.406,4.945,7.625,4.955,11.91-.323.023-.653.038-.998.038-1.697,0-3.21-.711-4.522-1.329-.107-3.848-2.075-7.41-5.241-9.571,1.444-.698,3.055-1.1,4.763-1.1ZM1,12c0-3.957,2.107-7.422,5.251-9.36,1.265.78,2.337,1.796,3.179,2.975-3.839,2.573-6.471,5.891-7.853,9.875-.369-1.098-.577-2.269-.577-3.49Zm1.175,4.918c1.185-4.268,3.809-7.789,7.809-10.472.928,1.586,1.451,3.401,1.498,5.286-3.331,2.032-5.462,5.718-5.504,9.461-1.616-1.062-2.929-2.538-3.803-4.276Zm9.825,6.082c-1.804,0-3.503-.445-5.007-1.218-.09-1.722.343-3.484,1.176-5.065,2.014,1.342,4.815,2.228,7.321,2.279,1.73,0,3.843-.239,5.515-.697-1.991,2.838-5.282,4.701-9.004,4.701Zm3.51-5.004c-2.35-.048-4.973-.883-6.837-2.144.858-1.32,2.007-2.464,3.36-3.284,1.346.633,3.047,1.432,4.967,1.432,2.292,0,4.173-.489,5.978-1.566-.065,1.651-.489,3.208-1.206,4.595-2.029.683-4.134,1.017-6.262.967Zm-.021,1c.133.003-.133,0,0,0h0Z"/>
</svg>
