<svg id="Layer_1" viewBox="0 0 24 24" xmlns="http://www.w3.org/2000/svg" data-name="Layer 1"><path d="m20 22v1.5c0 .276-.224.5-.5.5s-.5-.224-.5-.5v-1.5c0-3.859-3.14-7-7-7s-7 3.141-7 7v1.5c0 .276-.224.5-.5.5s-.5-.224-.5-.5v-1.5c0-4.411 3.589-8 8-8s8 3.589 8 8zm-14-16c0-3.309 2.691-6 6-6s6 2.691 6 6c0 2.49-1.499 4.685-3.818 5.591-.007.003-.013.001-.02.003-.336.252-.75.405-1.202.405h-1.92c-.452 0-.866-.152-1.202-.404-.007-.002-.013-.001-.02-.004-2.32-.905-3.818-3.1-3.818-5.591zm3.037 4.019c-.109-.682.04-1.678.217-2.117-.703-.168-1.433-.572-2.204-1.219.183 1.352.903 2.543 1.986 3.336zm3.923.98c.502 0 .92-.361.994-.858.142-.628-.057-1.865-.247-2.142h-3.416c-.188.273-.389 1.515-.246 2.141.074.499.492.859.994.859h1.92zm3.989-4.324c-.773.651-1.503 1.058-2.204 1.227.177.439.327 1.436.218 2.118 1.085-.795 1.806-1.99 1.987-3.344zm-9.882-1.339c1.103 1.094 2.091 1.663 2.933 1.663h4c.838 0 1.826-.572 2.932-1.672-.332-2.437-2.405-4.328-4.932-4.328s-4.604 1.895-4.933 4.336z"/></svg>