<svg id="Layer_1" viewBox="0 0 24 24" xmlns="http://www.w3.org/2000/svg" data-name="Layer 1"><path d="m7 10.5c0-1.379-1.122-2.5-2.5-2.5s-2.5 1.121-2.5 2.5 1.122 2.5 2.5 2.5 2.5-1.121 2.5-2.5zm-4 0c0-.827.673-1.5 1.5-1.5s1.5.673 1.5 1.5-.673 1.5-1.5 1.5-1.5-.673-1.5-1.5zm20.358-7.816c-.396-.201-.864-.161-1.221.101l-.403.297-.312-2.047c-.091-.6-.597-1.034-1.204-1.034-.671 0-1.218.546-1.218 1.218v3.87l-1 .734v-3.323c0-1.379-1.122-2.5-2.5-2.5h-3c-1.378 0-2.5 1.121-2.5 2.5v1.562l-8.24-3.941c-.383-.183-.826-.159-1.186.069-.765.448-.751 1.652.017 2.089l8.209 4.998c.74.45 1.2 1.269 1.2 2.136v4.587h-6.5c-1.93 0-3.5 1.57-3.5 3.5v4c0 1.379 1.122 2.5 2.5 2.5h2c1.378 0 2.5-1.121 2.5-2.5v-6.5h6.5c.276 0 .5-.224.5-.5s-.224-.5-.5-.5h-2.5v-4.587c0-1.214-.644-2.359-1.68-2.989l-8.211-4.999c-.234-.151-.05-.529.219-.401l8.956 4.283c.316.161.727-.094.716-.451v-2.356c0-.827.673-1.5 1.5-1.5h3c.827 0 1.5.673 1.5 1.5v4.31c-.013.398.485.648.796.403l2-1.469c.128-.095.204-.244.204-.403v-4.123c0-.227.398-.257.433-.033l.437 2.863c.044.362.503.551.79.328l1.069-.785c.178-.126.357.105.223.256l-4.962 5.107c-.638.656-.99 1.522-.99 2.438v10.107c0 .827-.673 1.5-1.5 1.5h-3c-.827 0-1.5-.673-1.5-1.5v-4c0-.276-.224-.5-.5-.5s-.5.224-.5.5v4c0 1.379 1.122 2.5 2.5 2.5h3c1.378 0 2.5-1.121 2.5-2.5v-10.106c0-.654.251-1.272.707-1.741l4.962-5.107c.547-.535.384-1.533-.311-1.86zm-17.358 18.816c0 .827-.673 1.5-1.5 1.5h-2c-.827 0-1.5-.673-1.5-1.5v-4c0-1.379 1.122-2.5 2.5-2.5h2.5z"/></svg>