<svg id="Layer_1" viewBox="0 0 24 24" xmlns="http://www.w3.org/2000/svg" data-name="Layer 1"><path d="m17.5 7c-3.584 0-6.5 2.916-6.5 6.5 0 2.295 1.199 4.311 3 5.467v3.671c-.018.739.632 1.371 1.363 1.362.316 0 .628-.113.881-.33l1.256-1.076 1.256 1.076c.407.349.964.428 1.452.203s.792-.698.792-1.235v-3.671c1.801-1.157 3-3.173 3-5.467 0-3.584-2.916-6.5-6.5-6.5zm2.5 15.638c0 .208-.146.298-.209.327-.062.027-.227.082-.385-.055l-1.581-1.354c-.187-.16-.463-.16-.65 0l-1.581 1.354c-.16.137-.32.082-.385.055-.062-.029-.209-.119-.209-.327v-3.14c.77.322 1.614.502 2.5.502s1.73-.179 2.5-.502zm-2.5-3.639c-3.032 0-5.5-2.468-5.5-5.5s2.468-5.5 5.5-5.5 5.5 2.468 5.5 5.5-2.468 5.5-5.5 5.5zm3.038-3.83c0 1.009-.8 1.83-1.782 1.83h-.756v.5c0 .276-.224.5-.5.5s-.5-.224-.5-.5v-.5h-.757c-.817 0-1.528-.567-1.728-1.381-.066-.268.098-.539.366-.604.27-.065.539.099.604.366.09.364.401.619.758.619h2.513c.432 0 .782-.372.782-.83 0-.371-.235-.7-.571-.8l-3.095-.775c-.778-.23-1.308-.954-1.308-1.765 0-1.009.8-1.83 1.782-1.83h.653v-.5c0-.276.224-.5.5-.5s.5.224.5.5v.5h.757c.817 0 1.528.567 1.728 1.381.066.268-.098.539-.366.604-.27.066-.539-.098-.604-.366-.09-.364-.401-.619-.758-.619h-2.41c-.432 0-.782.372-.782.83 0 .371.235.7.571.8l3.095.775c.778.23 1.308.954 1.308 1.765zm-10.538-6.169h-3.5c-.276 0-.5-.224-.5-.5s.224-.5.5-.5h3.5c.276 0 .5.224.5.5s-.224.5-.5.5zm13.999-4.5v2c0 .276-.224.5-.5.5s-.5-.224-.5-.5v-2c0-1.93-1.57-3.5-3.5-3.5h-14.999c-1.93 0-3.5 1.57-3.5 3.5v11c0 1.93 1.57 3.5 3.5 3.5h7c.276 0 .5.224.5.5s-.224.5-.5.5h-7c-2.481-.001-4.5-2.019-4.5-4.501v-10.999c0-2.482 2.019-4.5 4.5-4.5h14.999c2.481 0 4.5 2.018 4.5 4.5zm-5.875-1.5h-12.248c-.185 0-.352.094-.425.239-.478.949-1.263 1.734-2.213 2.212-.145.073-.238.24-.238.425v8.248c0 .185.094.352.239.425.949.478 1.734 1.263 2.212 2.213.073.145.24.238.425.238h3.624c.276 0 .5.224.5.5s-.224.5-.5.5h-3.624c-.559 0-1.076-.31-1.317-.788-.382-.76-1.011-1.389-1.769-1.77-.479-.241-.789-.759-.789-1.317v-8.249c0-.559.31-1.076.788-1.317.76-.382 1.389-1.011 1.77-1.769.241-.479.759-.789 1.317-.789h12.247c.56 0 1.076.311 1.317.79.384.763 1.014 1.393 1.772 1.777.305.155.545.42.676.746.103.257-.021.548-.277.65s-.548-.021-.65-.277c-.041-.102-.111-.183-.2-.227-.947-.479-1.733-1.268-2.213-2.221-.073-.146-.24-.239-.425-.239zm-9.624 8c.276 0 .5.224.5.5s-.224.5-.5.5h-2c-.276 0-.5-.224-.5-.5s.224-.5.5-.5z"/></svg>