<svg id="Layer_1" viewBox="0 0 24 24" xmlns="http://www.w3.org/2000/svg" data-name="Layer 1"><path d="m16.505 13.11-3.061-1.729c-.44-.248-.939-.38-1.443-.38h-.007c-.507 0-1.008.132-1.449.383l-3.052 1.727c-.92.522-1.492 1.504-1.492 2.562v3.626c0 1.055.568 2.034 1.483 2.556l3.073 1.757c.445.255.953.39 1.465.389.497 0 .989-.127 1.426-.369l3.036-1.687c.936-.519 1.517-1.505 1.517-2.575v-3.695c0-1.52-1.052-2.319-1.496-2.563zm-5.005 9.818c-.155-.043-.306-.104-.446-.184l-3.073-1.758c-.604-.345-.979-.991-.979-1.688v-3.626c0-.206.042-.404.103-.594l4.396 2.512v5.337zm.516-6.19-4.368-2.501c.104-.095.213-.186.338-.257 0 0 3.053-1.728 3.053-1.728.291-.166.624-.253.96-.252.333 0 .663.087.953.251l3.061 1.729c.126.071.236.162.341.257l-4.337 2.499zm4.985 2.631c0 .707-.384 1.358-1.002 1.7l-3.036 1.687c-.147.082-.302.144-.463.186v-5.348l4.398-2.514c.062.19.103.388.103.593v3.695z"/><path d="m21 9.424v-.424c0-4.962-4.037-9-9-9s-9 4.038-9 9v.424c-1.763.774-3 2.531-3 4.576 0 2.116 1.34 4.012 3.334 4.716.253.091.547-.042.638-.306.092-.26-.045-.546-.306-.638-1.595-.562-2.666-2.079-2.666-3.772 0-2.206 1.794-4 4-4 .552 0 1 .449 1 1 0 .276.224.5.5.5s.5-.224.5-.5c0-1.103-.897-2-2-2-.342 0-.677.035-1 .101-.057-4.445 3.553-8.104 8-8.101 4.447-.003 8.057 3.655 8 8.101-.323-.066-.658-.101-1-.101-1.103 0-2 .897-2 2 0 .276.224.5.5.5s.5-.224.5-.5c0-.551.448-1 1-1 2.206 0 4 1.794 4 4 0 1.693-1.071 3.21-2.666 3.772-.261.092-.397.378-.306.638.091.263.385.397.638.306 1.994-.704 3.334-2.6 3.334-4.716 0-2.045-1.237-3.802-3-4.576z"/></svg>