<?xml version="1.0" encoding="UTF-8"?>
<svg xmlns="http://www.w3.org/2000/svg" id="Layer_1" data-name="Layer 1" viewBox="0 0 24 24">
  <path d="M11.5,5c1.379,0,2.5-1.122,2.5-2.5s-1.121-2.5-2.5-2.5-2.5,1.122-2.5,2.5,1.121,2.5,2.5,2.5Zm0-4c.827,0,1.5,.673,1.5,1.5s-.673,1.5-1.5,1.5-1.5-.673-1.5-1.5,.673-1.5,1.5-1.5ZM20.5,0h-1c-1.93,0-3.5,1.57-3.5,3.5v7.5h-1.512c-.349,0-.677-.186-.856-.484l-1.698-2.821c-.63-1.045-1.779-1.695-2.999-1.695H4.907c-.771,0-1.463,.43-1.806,1.124l-1.551,3.156c-.121,.248-.02,.548,.229,.669,.249,.121,.548,.02,.67-.228l1.55-3.155c.172-.349,.521-.565,.908-.565h2.501l-2.244,5.463c-.461,1.125-.05,2.412,.967,3.055l4.425,2.953c.278,.186,.444,.497,.444,.832v4.198c0,.276,.224,.5,.5,.5s.5-.224,.5-.5v-4.198c0-.67-.332-1.292-.89-1.664l-2.13-1.421,2.841-6.768,.953,1.582c.36,.598,1.017,.969,1.714,.969h2.012c.276,0,.5-.224,.5-.5V3.5c0-1.378,1.121-2.5,2.5-2.5h1c1.379,0,2.5,1.122,2.5,2.5V20.5c0,1.378-1.121,2.5-2.5,2.5h-1c-1.379,0-2.5-1.122-2.5-2.5v-5.5c0-.276-.224-.5-.5-.5s-.5,.224-.5,.5v5.5c0,1.93,1.57,3.5,3.5,3.5h1c1.93,0,3.5-1.57,3.5-3.5V3.5c0-1.93-1.57-3.5-3.5-3.5ZM8.132,15.651l-1.456-.972c-.616-.389-.863-1.162-.586-1.836l2.4-5.843h.445c.871,0,1.692,.464,2.142,1.21l.103,.171-3.047,7.269Zm-3.185,2.072l-.585,1.171c-.342,.682-1.027,1.105-1.789,1.105H.5c-.276,0-.5-.224-.5-.5s.224-.5,.5-.5H2.573c.381,0,.724-.212,.895-.553l.585-1.17c.124-.247,.425-.346,.671-.224,.247,.124,.347,.424,.224,.671Z"/>
</svg>
