<svg id="Layer_1" viewBox="0 0 24 24" xmlns="http://www.w3.org/2000/svg" data-name="Layer 1"><path d="m20.796 7.767-.868-1.302v-1.771c0-.315-.143-.614-.389-.812l-2.907-2.389c-.188-.152-.419-.232-.654-.232-.104 0-.209.016-.311.048l-2.083.65c-.027-.554-.566-.96-1.128-.96h-.714l-1.075-.811c-.175-.123-.46-.189-.674-.189-.522 0-.964.385-1.034.902l-.201 1.469-.802.629h-.288c-1.293 0-2.411.965-2.599 2.245l-.377 2.972-.675.158c-.434.101-.756.468-.801.912l-.308 3.058c-.021.207.021.416.119.599l.301.558c-.446.759-.463 1.688-.034 2.467.214.388.471.85.687 1.227.341.595.92 1.027 1.59 1.186l.449.107-.419 1.206c-.169.486-.181 1.003-.037 1.494.303 1.041 1.273 1.812 2.359 1.812h1.331l2.195.913c.19.091.42.091.631.087.273 0 .534-.107.729-.297.087-.085.186-.21.297-.375l.626.1c.143.023.291.016.431-.021l2.014-.406.766-.027c.572 0 1.008-.504 1.014-1.076v-1.397l.327-.412c.885-1.116.926-2.681-.092-3.676l-.775-.758-1.331-1.154c1.049-.139 1.783-.622 2.424-1.477l.376-.501h.802c.342 0 .662-.167.857-.448.195-.28.24-.638.122-.959l-.374-1.007.591-1.338c.144-.327.112-.704-.086-1.001zm-1.109 3.753h-.802c-.315 0-.611.148-.8.4l-.376.501c-.504.673-1.013.987-1.755 1.086-.39.052-.714.327-.826.704-.113.377.006.785.303 1.043l1.309 1.134.754.737c.689.673.525 1.687.007 2.34l-.327.412c-.14.177-.216.396-.216.621v1.386c0 .052-.036.094-.101.094l-.714.02c-.107-.006-2.118.42-2.252.44-.124-.015-.666-.118-.783-.112-.329 0-.641.162-.829.44-.151.2-.122.217-.218.232-.101.015-.215-.006-.226-.01l-2.195-.913c-.122-.051-.252-.077-.384-.077h-1.331c-.626 0-1.214-.459-1.399-1.094-.085-.291-.078-.596.022-.884l.419-1.206c.093-.267.068-.561-.068-.809s-.371-.427-.646-.492l-.449-.106c-.402-.095-.749-.354-.953-.71-.213-.373-.468-.829-.679-1.212-.257-.467-.25-1.019.02-1.477.177-.301.184-.673.019-.981l-.305-.583.308-3.057c.002-.019.015-.034.034-.038l.675-.158c.407-.095.712-.433.764-.848l.375-2.952c.117-.793.809-1.391 1.61-1.391h.288c.224 0 .441-.075.617-.213l.802-.629c.205-.16.339-.394.374-.652l.201-1.47c.003-.021.047-.11.159-.016l1.03.777c.174.131.385.202.602.202l.846.002c.025.295.18.608.423.778.17.119.37.18.573.18.1 0 .2-.015.298-.045l2.116-.648 2.931 2.428v1.771c0 .197.058.39.168.555l.872 1.344-.591 1.338c-.105.238-.113.508-.023.752l.333 1.066z"/></svg>