<?xml version="1.0" encoding="UTF-8"?>
<svg xmlns="http://www.w3.org/2000/svg" id="Layer_1" data-name="Layer 1" viewBox="0 0 24 24">
  <path d="m3,17h-1c-1.103,0-2,.897-2,2v1c0,1.103.897,2,2,2h1c1.103,0,2-.897,2-2v-1c0-1.103-.897-2-2-2Zm1,3c0,.551-.449,1-1,1h-1c-.551,0-1-.449-1-1v-1c0-.551.449-1,1-1h1c.551,0,1,.449,1,1v1Zm18-3h-1c-1.103,0-2,.897-2,2v1c0,1.103.897,2,2,2h1c1.103,0,2-.897,2-2v-1c0-1.103-.897-2-2-2Zm1,3c0,.551-.449,1-1,1h-1c-.551,0-1-.449-1-1v-1c0-.551.449-1,1-1h1c.551,0,1,.449,1,1v1Zm-4.964-8H4c-2.206,0-4-1.794-4-4s1.794-4,4-4h18.678l-2.501-2.119c-.21-.178-.237-.494-.058-.705.177-.21.493-.237.705-.058l2.671,2.263c.325.292.506.696.506,1.119s-.181.827-.495,1.109l-2.682,2.272c-.094.08-.209.119-.323.119-.142,0-.283-.06-.382-.177-.179-.211-.152-.526.058-.705l2.501-2.119H4c-1.654,0-3,1.346-3,3s1.346,3,3,3h14.036c1.978,0,3.68,1.474,3.959,3.429.039.273-.151.527-.424.566-.024.003-.048.005-.071.005-.245,0-.459-.18-.495-.429-.209-1.466-1.486-2.571-2.969-2.571Zm-1.542,6.381c.325.292.506.696.506,1.119s-.181.827-.495,1.109l-2.682,2.272c-.094.08-.209.119-.323.119-.142,0-.283-.06-.382-.177-.179-.211-.152-.526.058-.705l2.501-2.119H7.5c-.276,0-.5-.224-.5-.5s.224-.5.5-.5h8.178l-2.501-2.119c-.21-.178-.237-.494-.058-.705.178-.21.492-.237.705-.058l2.671,2.263Z"/>
</svg>
