<svg id="Layer_1" viewBox="0 0 24 24" xmlns="http://www.w3.org/2000/svg" data-name="Layer 1"><path d="m23.5 23h-2.751l-3.837-5.077c.378-.107.722-.326.971-.652l1.09-1.407.642.735c.31.388.771.611 1.268.615.506.009.961-.215 1.267-.588l1.729-1.997c.159-.183.163-.454.01-.642l-3.18-3.92c-.551-.702-1.353-1.098-2.27-1.093-.893.008-1.713.42-2.252 1.132l-2.592 3.427-3.335-4.413c-.439-.574-1.064-.938-1.759-1.062v-2.74l3.223-1.509c.015-.006.028-.014.042-.022.46-.271.735-.753.735-1.287s-.275-1.016-.782-1.312l-2.384-1.085c-.412-.173-.875-.126-1.246.121-.369.246-.59.659-.59 1.103v6.73c-.704.122-1.338.488-1.774 1.064l-5.616 7.068c-.172.216-.136.531.081.703.216.171.531.135.703-.081l2.122-2.671 1.197 1.987c.319.53.879.862 1.497.888.604.029 1.204-.256 1.567-.756l.221-.303.845 1.182c.388.543.993.856 1.661.858h.006c.665 0 1.27-.309 1.659-.848l1.667-2.302 6.162 8.153h-18.997c-.276.001-.5.225-.5.501s.224.5.5.5h23c.276 0 .5-.224.5-.5s-.224-.5-.5-.5zm-6.516-12.29c.35-.463.883-.731 1.463-.736.575.022 1.117.254 1.48.717l2.921 3.601-1.463 1.689c-.122.15-.307.243-.496.233-.193-.001-.373-.088-.507-.255l-1.056-1.21c-.098-.113-.242-.171-.391-.171-.149.004-.289.076-.381.194l-1.464 1.891c-.21.274-.562.395-.896.311l-1.972-2.609 2.763-3.653zm-8.484-9.384c0-.326.22-.392.436-.307l2.321 1.055c.219.129.243.341.243.426 0 .083-.022.285-.226.416l-2.774 1.298zm2.356 15.237c-.199.275-.509.434-.849.434h-.003c-.342 0-.651-.161-.85-.439l-1.248-1.747c-.093-.131-.244-.209-.405-.209h-.002c-.16 0-.311.077-.404.206l-.628.865c-.168.232-.433.356-.716.345-.287-.012-.536-.16-.684-.405 0 0-1.376-2.258-1.405-2.287l2.854-3.592c.353-.465.89-.732 1.473-.733h.003c.582 0 1.119.265 1.47.725l3.241 4.288-1.847 2.55z"/></svg>