<svg id="Layer_1" viewBox="0 0 24 24" xmlns="http://www.w3.org/2000/svg" data-name="Layer 1"><path d="m21.5 9c1.378 0 2.5-1.122 2.5-2.5s-1.122-2.5-2.5-2.5-2.5 1.122-2.5 2.5 1.122 2.5 2.5 2.5zm0-4c.827 0 1.5.673 1.5 1.5s-.673 1.5-1.5 1.5-1.5-.673-1.5-1.5.673-1.5 1.5-1.5zm0 5c-1.378 0-2.5 1.122-2.5 2.5v5.5h-1c-1.103 0-2 .897-2 2v3.5c0 .276.224.5.5.5s.5-.224.5-.5v-3.5c0-.552.449-1 1-1h3.5c1.378 0 2.5-1.121 2.5-2.5v-4c0-1.378-1.122-2.5-2.5-2.5zm1.5 6.5c0 .827-.673 1.5-1.5 1.5h-1.5v-5.5c0-.827.673-1.5 1.5-1.5s1.5.673 1.5 1.5zm-16-3c0-.276.224-.5.5-.5h9c.276 0 .5.224.5.5s-.224.5-.5.5h-9c-.276 0-.5-.224-.5-.5zm17 8c0 .276-.224.5-.5.5h-3c-.276 0-.5.225-.5.5v1c0 .276-.224.5-.5.5s-.5-.224-.5-.5v-1c0-.827.673-1.5 1.5-1.5h3c.276 0 .5.224.5.5zm-21.5-12.5c1.378 0 2.5-1.122 2.5-2.5s-1.122-2.5-2.5-2.5-2.5 1.122-2.5 2.5 1.122 2.5 2.5 2.5zm0-4c.827 0 1.5.673 1.5 1.5s-.673 1.5-1.5 1.5-1.5-.673-1.5-1.5.673-1.5 1.5-1.5zm3.5 13h-1v-5.5c0-1.378-1.122-2.5-2.5-2.5s-2.5 1.122-2.5 2.5v4c0 1.379 1.122 2.5 2.5 2.5h3.5c.551 0 1 .448 1 1v3.5c0 .276.224.5.5.5s.5-.224.5-.5v-3.5c0-1.103-.897-2-2-2zm-3.5 0c-.827 0-1.5-.673-1.5-1.5v-4c0-.827.673-1.5 1.5-1.5s1.5.673 1.5 1.5v5.5zm2.5 4.5v1c0 .276-.224.5-.5.5s-.5-.224-.5-.5v-1c0-.275-.224-.5-.5-.5h-3c-.276 0-.5-.224-.5-.5s.224-.5.5-.5h3c.827 0 1.5.673 1.5 1.5zm4.5-12.5h5c1.378 0 2.5-1.122 2.5-2.5v-3c0-1.223-.884-2.239-2.046-2.454-.215-1.162-1.231-2.046-2.454-2.046h-1c-1.223 0-2.239.884-2.454 2.046-1.162.215-2.046 1.231-2.046 2.454v3c0 1.378 1.122 2.5 2.5 2.5zm5-1h-5c-.827 0-1.5-.673-1.5-1.5v-1.5h3.5v.5c0 .276.224.5.5.5s.5-.224.5-.5v-.5h3.5v1.5c0 .827-.673 1.5-1.5 1.5zm-3-8h1c.651 0 1.201.419 1.408 1h-3.816c.207-.581.757-1 1.408-1zm-2 2h5c.827 0 1.5.673 1.5 1.5v.5h-8v-.5c0-.827.673-1.5 1.5-1.5z"/></svg>