<?xml version="1.0" encoding="UTF-8"?>
<svg xmlns="http://www.w3.org/2000/svg" id="Layer_1" data-name="Layer 1" viewBox="0 0 24 24">
  <path d="M15.5,15h-3.365l-1.598-.932c-.077-.044-.164-.068-.252-.068h-1.786c-1.378,0-2.5,1.122-2.5,2.5v5c0,1.378,1.122,2.5,2.5,2.5h7c1.379,0,2.5-1.122,2.5-2.5v-4c0-1.378-1.121-2.5-2.5-2.5Zm-7,0h1.65l1.598,.932c.077,.044,.164,.068,.252,.068h3.5c.827,0,1.5,.673,1.5,1.5v.5H7v-1.5c0-.827,.673-1.5,1.5-1.5Zm7,8h-7c-.827,0-1.5-.673-1.5-1.5v-2.5h10v2.5c0,.827-.673,1.5-1.5,1.5ZM7,6.5v2.849c1.019-1.447,2.702-2.349,4.5-2.349,3.032,0,5.5,2.467,5.5,5.5,0,.276-.224,.5-.5,.5s-.5-.224-.5-.5c0-2.481-2.019-4.5-4.5-4.5-1.53,0-2.914,.754-3.742,2h2.742c.276,0,.5,.224,.5,.5s-.224,.5-.5,.5h-3.5c-.551,0-1-.449-1-1v-3.5c0-.276,.224-.5,.5-.5s.5,.224,.5,.5Zm17,6.284c-.085,2.285-1.255,4.385-3.212,5.762-.227,.159-.538,.104-.697-.122-.158-.226-.104-.538,.121-.697,1.699-1.195,2.716-3.01,2.788-4.981,.116-3.131-2.015-5.899-5.065-6.584-.735-.165-1.347-.636-1.677-1.294-1.413-2.819-4.466-4.323-7.598-3.744C5.922,1.633,3.708,3.816,3.152,6.559c-.167,.819-.191,1.644-.074,2.452,.13,.892-.119,1.714-.685,2.254-1.127,1.078-1.609,2.646-1.288,4.196,.286,1.381,1.282,2.596,2.6,3.17,.253,.11,.369,.405,.259,.658-.11,.255-.411,.368-.658,.259-1.635-.712-2.824-2.165-3.18-3.884-.391-1.89,.198-3.805,1.577-5.122,.329-.314,.469-.819,.387-1.387-.135-.923-.107-1.863,.083-2.796C2.809,3.222,5.343,.724,8.478,.142c3.578-.664,7.061,1.057,8.675,4.279,.194,.389,.56,.668,1.001,.767,3.521,.79,5.98,3.984,5.847,7.597Z"/>
</svg>
