<?xml version="1.0" encoding="UTF-8"?>
<svg xmlns="http://www.w3.org/2000/svg" id="Layer_1" data-name="Layer 1" viewBox="0 0 24 24">
  <path d="m17.5,16c-1.379,0-2.5,1.122-2.5,2.5s1.121,2.5,2.5,2.5,2.5-1.122,2.5-2.5-1.121-2.5-2.5-2.5Zm0,4c-.827,0-1.5-.673-1.5-1.5s.673-1.5,1.5-1.5,1.5.673,1.5,1.5-.673,1.5-1.5,1.5Zm5.621-2.75l-1.732-3c-.445-.771-1.274-1.25-2.165-1.25h-3.464c-.891,0-1.72.479-2.165,1.25l-1.732,3c-.445.771-.445,1.729,0,2.5l1.732,3c.445.771,1.274,1.25,2.165,1.25h3.464c.891,0,1.72-.479,2.165-1.25l1.733-3c.443-.771.443-1.729,0-2.5Zm-.865,2l-1.732,3c-.268.462-.766.75-1.3.75h-3.464c-.534,0-1.032-.288-1.3-.75l-1.731-3c-.268-.463-.268-1.037,0-1.5l1.731-3c.268-.462.766-.75,1.3-.75h3.464c.534,0,1.032.288,1.3.75l1.731,3c.267.463.267,1.038,0,1.5ZM11.439,3.268c.361-.361.561-.842.561-1.354,0-1.056-.858-1.914-1.914-1.914H1.914C.858,0,0,.858,0,1.914c0,.511.199.992.561,1.354l2.439,2.439v13.636c0,1.657.697,2.56,1.318,3.182l1.329,1.329c.098.098.226.146.354.146s.256-.049.354-.146l1.329-1.329c.85-.85,1.318-1.979,1.318-3.182V5.707l2.439-2.439Zm-7.439,2.732h3.611l-3.611,3.611v-3.611Zm0,8.184l4-4.146v1.56l-4,4.146v-1.56Zm0,3l4-4.146v1.578l-4,4.146v-1.578Zm4-8.586l-4,4.146v-1.719l4-4v1.573ZM1,1.914c0-.504.41-.914.914-.914h8.172c.504,0,.914.41.914.914,0,.241-.098.477-.268.646l-2.439,2.439H3.707L1.268,2.561c-.17-.17-.268-.406-.268-.646Zm5.975,19.904l-.975.975-.975-.975c-.476-.476-.792-1.068-.934-1.71l3.909-4.052v1.534l-1.508,1.563c-.192.199-.186.515.013.707.097.094.222.14.347.14.131,0,.262-.051.36-.153l.788-.817v.313c0,.935-.364,1.813-1.025,2.475Z"/>
</svg>
