<svg id="Layer_1" viewBox="0 0 24 24" xmlns="http://www.w3.org/2000/svg" data-name="Layer 1"><path d="m17 13.292v-2.962c-.003-.897-.499-1.727-1.271-2.177l-2.504-1.414c-.758-.43-1.701-.43-2.461 0l-2.496 1.414c-.782.443-1.269 1.276-1.269 2.175v2.905c0 .895.482 1.727 1.259 2.17l2.515 1.438c.382.218.812.328 1.241.328.419 0 .839-.104 1.213-.312l2.486-1.379c.793-.441 1.286-1.279 1.286-2.186zm-5.743-5.682c.229-.129.483-.194.739-.194s.51.064.737.193c0 0 2.611 1.495 2.665 1.536l-3.397 1.941-3.399-1.943c.053-.04 2.654-1.534 2.654-1.534zm-2.502 6.926c-.466-.266-.755-.765-.755-1.302v-2.905c0-.12.02-.237.047-.351l3.452 1.973v4.116c-.078-.028-2.744-1.531-2.744-1.531zm7.245-1.244c0 .544-.296 1.046-.771 1.312 0 0-2.647 1.448-2.729 1.476v-4.126l3.454-1.974c.028.114.047.23.047.35v2.962zm8-9.792v4c0 .827-.673 1.5-1.5 1.5h-4c-.276 0-.5-.224-.5-.5s.224-.5.5-.5h3.741c-1.641-4.202-5.697-7-10.241-7-.642 0-1.285.056-1.914.166-.267.041-.531-.134-.578-.406-.048-.272.134-.531.406-.579.685-.12 1.387-.181 2.086-.181 4.798 0 9.105 2.856 11 7.197v-3.697c0-.276.224-.5.5-.5s.5.224.5.5zm-18.912-.706c-.156-.228-.099-.539.129-.695.592-.406 1.225-.761 1.881-1.056.25-.114.548 0 .661.251s0 .547-.251.661c-.603.271-1.183.596-1.725.968-.225.155-.538.101-.695-.129zm-3.629 3.467c.331-.606.718-1.188 1.15-1.731.173-.216.487-.25.702-.08.216.172.252.487.079.703-.396.498-.751 1.032-1.053 1.587-.133.245-.441.33-.679.2-.242-.132-.332-.436-.2-.678zm-1.448 5.218c.03-.703.122-1.405.273-2.086.06-.269.318-.438.597-.38.27.06.439.327.38.596-.139.625-.223 1.269-.25 1.914-.012.269-.233.479-.5.479-.007 0-.014 0-.021 0-.275-.012-.49-.245-.479-.521zm14.481 11.762c.048.272-.134.531-.406.579-.685.12-1.387.181-2.086.181-4.783 0-9.108-2.871-11-7.213v3.713c0 .276-.224.5-.5.5s-.5-.224-.5-.5v-4c0-.827.673-1.5 1.5-1.5h4c.276 0 .5.224.5.5s-.224.5-.5.5h-3.743c1.64 4.196 5.718 7 10.243 7 .642 0 1.285-.056 1.914-.166.267-.047.53.133.578.406zm4.42-2.035c.156.228.099.539-.129.695-.592.406-1.225.761-1.881 1.056-.246.112-.548.004-.661-.251-.113-.251 0-.547.251-.661.603-.271 1.183-.596 1.725-.968.229-.156.539-.099.695.129zm3.629-3.466c-.331.606-.718 1.188-1.15 1.731-.173.217-.488.25-.702.08-.216-.172-.252-.487-.079-.703.396-.498.751-1.032 1.053-1.587.133-.243.437-.332.679-.2s.332.436.2.678zm1.448-5.218c-.03.703-.122 1.405-.273 2.086-.059.272-.333.44-.597.38-.27-.06-.439-.327-.38-.596.139-.625.223-1.269.25-1.914.012-.276.203-.505.521-.478.275.012.49.245.479.521z"/></svg>