<?xml version="1.0" encoding="UTF-8"?>
<svg xmlns="http://www.w3.org/2000/svg" id="Layer_1" data-name="Layer 1" viewBox="0 0 24 24">
  <path d="M13.5,7c-1.379,0-2.5,1.121-2.5,2.5s1.121,2.5,2.5,2.5,2.5-1.121,2.5-2.5-1.121-2.5-2.5-2.5Zm0,4c-.827,0-1.5-.673-1.5-1.5s.673-1.5,1.5-1.5,1.5,.673,1.5,1.5-.673,1.5-1.5,1.5Zm2.5,8.5v4c0,.276-.224,.5-.5,.5s-.5-.224-.5-.5v-3.5h-2v3.5c0,.276-.224,.5-.5,.5s-.5-.224-.5-.5v-3.5c0-.018,.008-.032,.01-.049-1.145-.228-2.01-1.239-2.01-2.451v-1c0-1.93,1.57-3.5,3.5-3.5h1c.276,0,.5,.224,.5,.5s-.224,.5-.5,.5h-1c-1.379,0-2.5,1.121-2.5,2.5v1c0,.827,.673,1.5,1.5,1.5h3c.276,0,.5,.224,.5,.5Zm4.5-9.5c1.379,0,2.5-1.121,2.5-2.5s-1.121-2.5-2.5-2.5-2.5,1.121-2.5,2.5,1.121,2.5,2.5,2.5Zm0-4c.827,0,1.5,.673,1.5,1.5s-.673,1.5-1.5,1.5-1.5-.673-1.5-1.5,.673-1.5,1.5-1.5Zm0,5c-1.93,0-3.5,1.57-3.5,3.5v2c0,1.023,.618,1.902,1.5,2.288v4.712c0,.276,.224,.5,.5,.5s.5-.224,.5-.5v-4.5h2v4.5c0,.276,.224,.5,.5,.5s.5-.224,.5-.5v-4.712c.882-.387,1.5-1.265,1.5-2.288v-2c0-1.93-1.57-3.5-3.5-3.5Zm2.5,5.5c0,.827-.673,1.5-1.5,1.5h-2c-.827,0-1.5-.673-1.5-1.5v-2c0-1.379,1.121-2.5,2.5-2.5s2.5,1.121,2.5,2.5v2ZM6.5,9c-1.379,0-2.5,1.121-2.5,2.5s1.121,2.5,2.5,2.5,2.5-1.121,2.5-2.5-1.121-2.5-2.5-2.5Zm0,4c-.827,0-1.5-.673-1.5-1.5s.673-1.5,1.5-1.5,1.5,.673,1.5,1.5-.673,1.5-1.5,1.5Zm2.5,7.5v3c0,.276-.224,.5-.5,.5s-.5-.224-.5-.5v-2.5h-2v2.5c0,.276-.224,.5-.5,.5s-.5-.224-.5-.5v-2.551c-1.14-.232-2-1.242-2-2.449v-.5c0-1.654,1.346-3,3-3h1.5c.276,0,.5,.224,.5,.5s-.224,.5-.5,.5h-1.5c-1.103,0-2,.897-2,2v.5c0,.827,.673,1.5,1.5,1.5h3c.276,0,.5,.224,.5,.5ZM16,1v3.5c0,.276-.224,.5-.5,.5s-.5-.224-.5-.5V1.694l-4.781,4.598c-.687,.657-1.793,.648-2.466-.024l-.619-.619c-.297-.296-.778-.298-1.075,0L.854,10.854c-.195,.195-.512,.195-.707,0s-.195-.512,0-.707L5.352,4.941c.684-.686,1.802-.687,2.489,0l.619,.619c.291,.291,.77,.296,1.065,.011L14.279,1h-2.779c-.276,0-.5-.224-.5-.5s.224-.5,.5-.5h3.5c.552,0,1,.448,1,1Z"/>
</svg>
