<svg id="Layer_1" viewBox="0 0 24 24" xmlns="http://www.w3.org/2000/svg" data-name="Layer 1"><path d="m17 18c0 .552-.448 1-1 1s-1-.448-1-1 .448-1 1-1 1 .448 1 1zm1-5c-.552 0-1 .448-1 1s.448 1 1 1 1-.448 1-1-.448-1-1-1zm5 .5c0 5.79-3.695 10.5-8.237 10.5-.825 0-1.64-.155-2.421-.46-.218-.085-.466-.085-.684 0-.781.305-1.596.46-2.421.46-4.542 0-8.237-4.71-8.237-10.5s3.695-10.5 8.237-10.5c.777 0 1.54.144 2.278.414.073-2.157.517-3.096.538-3.138.125-.247.424-.346.671-.224.247.124.347.424.224.671-.002.005-.363.802-.433 2.664.724-.249 1.478-.388 2.249-.388 4.542 0 8.237 4.71 8.237 10.5zm-1 0c0-5.238-3.247-9.5-7.237-9.5-4.136 0-7.763 4.439-7.763 9.5 0 2.096.512 4.083 1.479 5.749.139.239.058.544-.181.683-.239.138-.545.058-.683-.181-1.057-1.817-1.615-3.979-1.615-6.251 0-3.908 1.999-7.48 4.795-9.278-.509-.147-1.03-.222-1.558-.222-3.99 0-7.237 4.262-7.237 9.5s3.247 9.5 7.237 9.5c.7 0 1.393-.132 2.058-.392.224-.087.464-.131.705-.131s.481.044.705.131c.666.26 1.358.392 2.058.392 3.99 0 7.237-4.262 7.237-9.5z"/></svg>