<?xml version="1.0" encoding="UTF-8"?>
<svg xmlns="http://www.w3.org/2000/svg" id="Layer_1" data-name="Layer 1" viewBox="0 0 24 24">
  <path d="m9,14c0-1.103-.897-2-2-2h-2c-1.103,0-2,.897-2,2-1.654,0-3,1.346-3,3v4c0,1.654,1.346,3,3,3h6c1.654,0,3-1.346,3-3v-4c0-1.654-1.346-3-3-3Zm-4-1h2c.551,0,1,.448,1,1h-4c0-.552.449-1,1-1Zm-2,2h6c1.103,0,2,.897,2,2v1H1v-1c0-1.103.897-2,2-2Zm6,8H3c-1.103,0-2-.897-2-2v-2h4.5v1.5c0,.276.224.5.5.5s.5-.224.5-.5v-1.5h4.5v2c0,1.103-.897,2-2,2Zm9.5-13c.276,0,.5-.224.5-.5v-3.191l4.348-2.175c.409-.281.652-.758.652-1.276s-.244-.995-.652-1.276c-.025-.017-2.893-1.303-2.893-1.303-.19-.086-.385-.158-.581-.217-.438-.132-.9-.049-1.271.227-.378.28-.604.728-.604,1.196v8.016c0,.276.224.5.5.5Zm.5-8.516c0-.153.075-.301.2-.394.051-.038.143-.091.263-.091.039,0,.081.006.125.02.156.046,3.224,1.408,3.224,1.408.119.097.189.255.189.43,0,.189-.082.358-.159.417l-3.841,1.917V1.484Zm5,17.016c0,1.93-1.57,3.5-3.5,3.5h-6c-.276,0-.5-.224-.5-.5s.224-.5.5-.5h6c1.378,0,2.5-1.121,2.5-2.5s-1.122-2.5-2.5-2.5h-5c-1.93,0-3.5-1.57-3.5-3.5s1.57-3.5,3.5-3.5c.276,0,.5.224.5.5s-.224.5-.5.5c-1.378,0-2.5,1.121-2.5,2.5s1.122,2.5,2.5,2.5h5c1.93,0,3.5,1.57,3.5,3.5Z"/>
</svg>
