<svg id="Layer_1" viewBox="0 0 24 24" xmlns="http://www.w3.org/2000/svg" data-name="Layer 1"><path d="m19 9c0 .552-.448 1-1 1s-1-.448-1-1 .448-1 1-1 1 .448 1 1zm5 2.001c0 .805-.22 1.579-.637 2.239-.732 1.158-2.356 3.402-5.004 5.411l-.316.226c-.381.273-.775.556-1.194.797-.346.199-.594.501-.697.851-.06.201-.124.401-.191.598-.601 1.748-2.21 2.877-3.96 2.877-.315 0-.686.018-.966-.32-.196-.25-.223-.593-.081-1.019.101-.258.228-.586.371-.96-1.086.199-2.202.3-3.326.3h-3.231c-.891 0-1.704-.412-2.23-1.131s-.674-1.618-.406-2.467l.766-1.789c.172-.548.38-1.317.569-2.135l-1.256.437c-.177.056-.355.083-.532.083-.413 0-.809-.15-1.125-.435-.442-.398-.636-.982-.518-1.563.144-.706.217-1.379.217-2.001s-.073-1.295-.217-2.001c-.119-.581.075-1.165.518-1.563.452-.405 1.066-.538 1.644-.356l1.321.502c-.227-.934-.481-1.746-.637-2.242l-.732-1.696c-.286-.896-.138-1.794.389-2.513s1.336-1.131 2.228-1.131h3.234c3.874 0 7.43 1.159 10.242 3.262 2.7 2.02 4.354 4.292 5.1 5.467.43.677.657 1.462.657 2.272zm-20.292 2.335c.17-.881.292-1.729.292-2.336 0-.732-.098-1.507-.235-2.254l-1.898-.722c-.21-.066-.461-.011-.646.155-.179.161-.254.387-.207.62.158.771.237 1.512.237 2.201s-.08 1.43-.237 2.201c-.047.232.028.458.207.62.185.166.437.221.673.146zm1.059 7.664h1.89l1.491-4.275c.556-1.76.852-3.745.852-5.724 0-1.925-.294-3.832-.874-5.668l-1.368-4.333h-1.992c-.569 0-1.088.263-1.424.722-.336.458-.43 1.032-.259 1.574l.732 1.696c.561 1.768 1.185 4.001 1.185 6.008 0 .702-.135 1.629-.318 2.562-.047.235-.052.27-.086.428-.251 1.191-.562 2.336-.762 2.971l-.767 1.79c-.154.495-.06 1.069.276 1.527.336.459.855.722 1.424.722zm8.429-4.653c.412-1.779.798-2.915.805-5.347 0-1.925-.294-3.832-.874-5.668l-1.229-3.891c-1.315-.306-2.701-.454-4.091-.441l1.273 4.032c.611 1.933.92 3.941.92 5.969 0 2.081-.312 4.169-.903 6.039l-1.381 3.96c1.359.016 2.723-.114 4.025-.404.54-1.443 1.151-3.151 1.454-4.249zm9.805-5.346c0-.619-.173-1.22-.501-1.736-.709-1.117-2.283-3.278-4.854-5.202-1.355-1.014-2.917-1.794-4.601-2.313l1.036 3.282c.611 1.933.92 3.941.92 5.969 0 2.159-.314 3.444-.647 4.804-.451 2.077-1.843 5.572-2.461 7.201 1.454.014 2.651-.821 3.124-2.208.063-.184.122-.37.178-.557.177-.597.588-1.106 1.157-1.434.376-.216.75-.484 1.11-.743l.308-.22c2.509-1.904 4.053-4.038 4.749-5.139.315-.5.482-1.089.482-1.705z"/></svg>