<svg id="Layer_1" viewBox="0 0 24 24" xmlns="http://www.w3.org/2000/svg" data-name="Layer 1"><path d="m24 12c0-1.103-.897-2-2-2s-2 .897-2 2c0 .929.64 1.705 1.5 1.929v.571c0 1.378-1.121 2.5-2.5 2.5h-1.232c.147-.644.232-1.312.232-2 0-4.274-2.998-7.855-7-8.768v-1.232c0-1.378 1.122-2.5 2.5-2.5h.571c.224.86 1 1.5 1.929 1.5 1.103 0 2-.897 2-2s-.897-2-2-2c-.929 0-1.705.64-1.929 1.5h-.571c-1.93 0-3.5 1.57-3.5 3.5v1.059c-.329-.037-.662-.059-1-.059s-.671.022-1 .059v-1.059c0-1.93-1.57-3.5-3.5-3.5h-.571c-.224-.86-1-1.5-1.929-1.5-1.103 0-2 .897-2 2s.897 2 2 2c.929 0 1.705-.64 1.929-1.5h.571c1.378 0 2.5 1.122 2.5 2.5v1.232c-4.002.913-7 4.494-7 8.768 0 4.962 4.038 9 9 9 3.91 0 7.236-2.51 8.475-6h1.525c1.93 0 3.5-1.57 3.5-3.5v-.571c.86-.224 1.5-1 1.5-1.929zm-8-11c.552 0 1 .449 1 1s-.448 1-1 1-1-.449-1-1 .448-1 1-1zm-14 2c-.551 0-1-.449-1-1s.449-1 1-1 1 .449 1 1-.449 1-1 1zm14.975 11.5h-3.025c-.238-2.353-2.097-4.211-4.449-4.449v-3.025c4.012.25 7.225 3.463 7.475 7.475zm-11.975.5c0-2.206 1.794-4 4-4s4 1.794 4 4-1.794 4-4 4-4-1.794-4-4zm-4 0c0-4.242 3.322-7.714 7.5-7.975v3.025c-2.52.255-4.5 2.364-4.5 4.949 0 1.198.441 2.284 1.146 3.146l-2.137 2.137c-1.246-1.411-2.009-3.258-2.009-5.284zm8 8c-2.026 0-3.873-.763-5.284-2.009l2.137-2.137c.862.705 1.948 1.146 3.146 1.146 2.586 0 4.694-1.98 4.949-4.5h3.025c-.26 4.178-3.732 7.5-7.975 7.5zm13-10c-.552 0-1-.449-1-1s.448-1 1-1 1 .449 1 1-.448 1-1 1z"/></svg>