<svg id="Layer_1" viewBox="0 0 24 24" xmlns="http://www.w3.org/2000/svg" data-name="Layer 1"><path d="m11.639 12.367c-.353-.355-.88-.463-1.344-.273l-7.762 3.17c-.683.279-1.2.844-1.42 1.55-.22.707-.114 1.468.292 2.087.474.726 1.025 1.405 1.638 2.021s1.291 1.171 2.013 1.647c.41.271.882.41 1.361.41.243 0 .487-.036.726-.108.707-.217 1.273-.731 1.555-1.412l3.208-7.747c.191-.462.087-.989-.265-1.344zm-.659.961-3.208 7.747c-.167.404-.504.71-.924.839-.423.127-.875.063-1.243-.18-.666-.439-1.29-.95-1.855-1.519-.564-.567-1.073-1.194-1.51-1.862-.241-.369-.304-.822-.173-1.243.13-.419.438-.755.843-.921l7.762-3.17c.131-.055.223.019.257.053.034.033.105.125.051.256zm-5.98-3.328c-.552 0-1-.448-1-1s.448-1 1-1 1 .448 1 1-.448 1-1 1zm9-1c0 .552-.448 1-1 1s-1-.448-1-1 .448-1 1-1 1 .448 1 1zm-4-3c-.552 0-1-.448-1-1s.448-1 1-1 1 .448 1 1-.448 1-1 1zm9 4c-.552 0-1-.448-1-1s.448-1 1-1 1 .448 1 1-.448 1-1 1zm-2 5c-.552 0-1-.448-1-1s.448-1 1-1 1 .448 1 1-.448 1-1 1zm-3 3c.552 0 1 .448 1 1s-.448 1-1 1-1-.448-1-1 .448-1 1-1zm10-6c0 6.617-5.383 12-12 12-.698 0-1.4-.061-2.086-.181-.272-.047-.454-.306-.407-.578.048-.271.302-.463.579-.406.629.109 1.273.165 1.914.165 6.065 0 11-4.935 11-11s-4.935-11-11-11-11 4.935-11 11c0 .642.056 1.285.166 1.914.047.271-.134.531-.406.578-.277.055-.532-.135-.579-.406-.12-.685-.181-1.387-.181-2.086 0-6.617 5.383-12 12-12s12 5.383 12 12zm-17 6c0 .552-.448 1-1 1s-1-.448-1-1 .448-1 1-1 1 .448 1 1z"/></svg>