<?xml version="1.0" encoding="UTF-8"?>
<svg xmlns="http://www.w3.org/2000/svg" id="Layer_1" data-name="Layer 1" viewBox="0 0 24 24">
  <path d="M24,11.5v8c0,2.481-2.019,4.5-4.5,4.5H4.5c-2.481,0-4.5-2.019-4.5-4.5V7.5C0,5.019,2.019,3,4.5,3h6c.276,0,.5,.224,.5,.5s-.224,.5-.5,.5H4.5c-1.611,0-2.958,1.101-3.363,2.586L9.525,14.975c1.322,1.322,3.627,1.322,4.949,0l2.247-2.323c.191-.198,.51-.203,.707-.012,.198,.192,.204,.509,.012,.707l-2.253,2.329c-.855,.856-1.985,1.324-3.187,1.324s-2.332-.468-3.182-1.318L1,7.863v11.637c0,1.93,1.57,3.5,3.5,3.5h15c1.93,0,3.5-1.57,3.5-3.5V11.5c0-.276,.224-.5,.5-.5s.5,.224,.5,.5Zm-.5-11.5c-.276,0-.5,.224-.5,.5v1.844c-1.02-1.462-2.674-2.344-4.5-2.344-3.032,0-5.5,2.467-5.5,5.5s2.468,5.5,5.5,5.5c2.605,0,4.872-1.851,5.391-4.4,.055-.271-.12-.535-.391-.589-.266-.053-.534,.119-.59,.39-.424,2.086-2.278,3.6-4.41,3.6-2.481,0-4.5-2.019-4.5-4.5s2.019-4.5,4.5-4.5c1.529,0,2.913,.754,3.741,2h-1.741c-.276,0-.5,.224-.5,.5s.224,.5,.5,.5h2.5c.552,0,1-.449,1-1V.5c0-.276-.224-.5-.5-.5Z"/>
</svg>
