<svg id="Layer_1" viewBox="0 0 24 24" xmlns="http://www.w3.org/2000/svg" data-name="Layer 1"><path d="m9.5 16.017c-.774 0-1.396.511-1.544 1.271l-1.196 6.116c-.054.271.123.533.395.586.267.057.534-.122.586-.395l.312-1.596h2.895l.312 1.596c.051.273.323.449.586.395.271-.053.448-.315.395-.586l-1.196-6.116c-.148-.761-.77-1.271-1.544-1.271zm-1.252 4.983.689-3.521c.067-.341.335-.463.563-.463s.496.122.563.463l.689 3.521z"/><path d="m17.5 16c-.276 0-.5.224-.5.5v5c0 .827-.673 1.5-1.5 1.5s-1.5-.673-1.5-1.5v-5c0-.276-.224-.5-.5-.5s-.5.224-.5.5v5c0 1.379 1.121 2.5 2.5 2.5s2.5-1.121 2.5-2.5v-5c0-.276-.224-.5-.5-.5z"/><path d="m21.5 17c.827 0 1.5.673 1.5 1.5 0 .276.224.5.5.5s.5-.224.5-.5c0-1.379-1.121-2.5-2.5-2.5s-2.5 1.121-2.5 2.5v3c0 1.379 1.121 2.5 2.5 2.5s2.5-1.121 2.5-2.5c0-.827-.673-1.5-1.5-1.5h-1c-.276 0-.5.224-.5.5s.224.5.5.5h1c.275 0 .5.225.5.5 0 .827-.673 1.5-1.5 1.5s-1.5-.673-1.5-1.5v-3c0-.827.673-1.5 1.5-1.5z"/><path d="m19.5 2h-1.5v-1.5c0-.276-.224-.5-.5-.5s-.5.224-.5.5v1.5h-10v-1.5c0-.276-.224-.5-.5-.5s-.5.224-.5.5v1.5h-1.5c-2.481 0-4.5 2.019-4.5 4.5v13c0 2.481 2.019 4.5 4.5 4.5.276 0 .5-.224.5-.5s-.224-.5-.5-.5c-1.93 0-3.5-1.57-3.5-3.5v-10.5h22v4.5c0 .276.224.5.5.5s.5-.224.5-.5v-7c0-2.481-2.019-4.5-4.5-4.5zm3.5 6h-22v-1.5c0-1.93 1.57-3.5 3.5-3.5h15c1.93 0 3.5 1.57 3.5 3.5z"/></svg>