<?xml version="1.0" encoding="UTF-8"?>
<svg xmlns="http://www.w3.org/2000/svg" id="Layer_1" data-name="Layer 1" viewBox="0 0 24 24">
  <path d="m12.075,12.644c.197.193.2.51.007.707-.195.196-.51.198-.707.006-.234-.229-.545-.356-.875-.356-.689,0-1.25.561-1.25,1.25,0,.122.044.563.338,2.159.027.146-.012.297-.107.411-.095.113-.236.18-.384.18h-1.596c-1.93,0-3.5-1.57-3.5-3.5v-.998c-1.238.22-1.593.248-1.75.248-1.241,0-2.25-1.01-2.25-2.25s1.009-2.25,2.25-2.25c.157,0,.512.028,1.75.248v-.998c0-1.93,1.57-3.5,3.5-3.5h.998c-.219-1.239-.248-1.594-.248-1.75,0-1.24,1.009-2.25,2.25-2.25s2.25,1.01,2.25,2.25c0,.156-.028.511-.248,1.75h.998c1.93,0,3.5,1.57,3.5,3.5v3c0,.276-.224.5-.5.5s-.5-.224-.5-.5v-3c0-1.379-1.122-2.5-2.5-2.5h-1.596c-.148,0-.289-.066-.384-.18-.095-.114-.134-.265-.107-.411.294-1.596.338-2.037.338-2.159,0-.689-.561-1.25-1.25-1.25s-1.25.561-1.25,1.25c0,.122.044.563.338,2.159.027.146-.012.297-.107.411-.095.113-.236.18-.384.18h-1.596c-1.378,0-2.5,1.121-2.5,2.5v1.597c0,.148-.066.289-.18.385-.114.095-.264.134-.411.106-1.653-.305-2.061-.338-2.159-.338-.689,0-1.25.561-1.25,1.25s.561,1.25,1.25,1.25c.099,0,.506-.033,2.159-.338.148-.027.297.012.411.106.114.096.18.236.18.385v1.597c0,1.379,1.122,2.5,2.5,2.5h.998c-.219-1.239-.248-1.594-.248-1.75,0-1.24,1.009-2.25,2.25-2.25.593,0,1.152.229,1.575.644Zm7.925,5.356c0,1.103-.897,2-2,2s-2-.897-2-2,.897-2,2-2,2,.897,2,2Zm-1,0c0-.552-.449-1-1-1s-1,.448-1,1,.449,1,1,1,1-.448,1-1Zm4.332,1.903c.101.389.044.792-.16,1.138-.203.345-.528.591-.916.691-.387.104-.792.045-1.137-.159l-.223-.131c-.408.34-.881.606-1.396.786v.271c0,.827-.673,1.5-1.5,1.5s-1.5-.673-1.5-1.5v-.271c-.515-.18-.988-.446-1.396-.786l-.223.131c-.345.204-.749.263-1.137.159-.388-.101-.713-.347-.917-.692-.203-.345-.26-.748-.159-1.137.101-.388.346-.713.691-.916l.234-.138c-.064-.299-.094-.575-.094-.85s.03-.551.094-.851l-.234-.138c-.345-.202-.591-.527-.692-.916-.101-.388-.044-.791.16-1.137.203-.345.528-.591.916-.691.388-.102.792-.044,1.137.159l.223.131c.408-.34.881-.606,1.396-.786v-.271c0-.827.673-1.5,1.5-1.5s1.5.673,1.5,1.5v.271c.515.18.988.446,1.396.786l.223-.131c.345-.203.75-.261,1.137-.159.388.101.713.347.917.692.203.345.26.748.159,1.136-.101.389-.347.714-.692.917l-.233.137c.064.3.094.576.094.851s-.03.551-.094.85l.233.137c.346.204.592.529.692.917Zm-1.755-3.426l.556-.327c.115-.068.197-.177.23-.306.034-.129.015-.264-.053-.378-.068-.116-.177-.198-.306-.231-.129-.034-.264-.015-.379.053l-.541.318c-.196.116-.446.085-.607-.077-.43-.432-.984-.743-1.603-.903-.221-.058-.375-.257-.375-.484v-.642c0-.275-.224-.5-.5-.5s-.5.225-.5.5v.642c0,.228-.154.427-.375.484-.619.16-1.173.472-1.603.903-.161.162-.412.193-.607.077l-.541-.318c-.116-.067-.248-.086-.379-.053-.129.033-.237.115-.305.23s-.087.25-.053.379c.033.129.115.237.23.305l.557.328c.196.115.29.349.228.567-.103.361-.151.665-.151.955s.048.594.151.955c.062.219-.031.453-.228.568l-.556.326c-.115.067-.196.176-.23.306-.034.129-.015.264.053.378.068.116.177.198.306.231.13.034.263.015.379-.053l.541-.318c.079-.047.167-.069.253-.069.129,0,.258.05.354.146.43.432.984.743,1.603.903.221.058.375.257.375.484v.642c0,.275.224.5.5.5s.5-.225.5-.5v-.642c0-.228.154-.427.375-.484.619-.16,1.173-.472,1.603-.903.161-.162.412-.194.607-.077l.541.318c.116.068.25.087.379.053.129-.033.237-.115.305-.23s.087-.25.053-.379c-.034-.13-.115-.238-.23-.307l-.556-.325c-.197-.115-.291-.35-.228-.568.103-.361.151-.665.151-.955s-.048-.594-.151-.955c-.062-.219.031-.452.228-.567Z"/>
</svg>
