<?xml version="1.0" encoding="UTF-8"?>
<svg xmlns="http://www.w3.org/2000/svg" id="Layer_1" data-name="Layer 1" viewBox="0 0 24 24">
  <path d="m23.854,10.245c-.098.098-.226.146-.354.146s-.256-.049-.354-.146l-2.952-2.952c-.06-.06-.135-.094-.207-.135v16.342c0,.276-.224.5-.5.5s-.5-.224-.5-.5V7.159c-.071.041-.147.074-.207.134l-2.933,2.933c-.195.195-.512.195-.707,0s-.195-.512,0-.707l2.933-2.933c.756-.757,2.075-.756,2.828,0l2.952,2.951c.195.195.195.512,0,.707ZM7.487,4h16c.276,0,.5-.224.5-.5s-.224-.5-.5-.5H7.487c-.276,0-.5.224-.5.5s.224.5.5.5Zm-2.41-1v1c0,1.103-.897,2-2,2h-1C.975,6,.077,5.103.077,4v-1C.077,1.897.975,1,2.077,1h1c1.103,0,2,.897,2,2Zm-1,0c0-.551-.448-1-1-1h-1c-.552,0-1,.449-1,1v1c0,.551.448,1,1,1h1c.552,0,1-.449,1-1v-1Zm3.41,9h5c.276,0,.5-.224.5-.5s-.224-.5-.5-.5h-5c-.276,0-.5.224-.5.5s.224.5.5.5Zm-2.41-1v1c0,1.103-.897,2-2,2h-1C.975,14,.077,13.103.077,12v-1c0-1.103.897-2,2-2h1c1.103,0,2,.897,2,2Zm-1,0c0-.551-.448-1-1-1h-1c-.552,0-1,.449-1,1v1c0,.551.448,1,1,1h1c.552,0,1-.449,1-1v-1Zm12.41,8H7.487c-.276,0-.5.224-.5.5s.224.5.5.5h9c.276,0,.5-.224.5-.5s-.224-.5-.5-.5Zm-11.41,0v1c0,1.103-.897,2-2,2h-1c-1.103,0-2-.897-2-2v-1c0-1.103.897-2,2-2h1c1.103,0,2,.897,2,2Zm-1,0c0-.551-.448-1-1-1h-1c-.552,0-1,.449-1,1v1c0,.551.448,1,1,1h1c.552,0,1-.449,1-1v-1Z"/>
</svg>
