<svg id="Layer_1" viewBox="0 0 24 24" xmlns="http://www.w3.org/2000/svg" data-name="Layer 1"><path d="m22 20c-.929 0-1.705.64-1.929 1.5h-3.71c-1.035 0-2.01-.454-2.677-1.246l-.647-.769c-.177-.212-.493-.24-.704-.061-.211.178-.239.493-.061.704l.647.77c.857 1.018 2.112 1.601 3.442 1.601h3.71c.224.86 1 1.5 1.929 1.5 1.103 0 2-.897 2-2s-.897-2-2-2zm0 3c-.551 0-1-.449-1-1s.449-1 1-1 1 .449 1 1-.449 1-1 1zm0-13c-.929 0-1.705.64-1.929 1.5h-3.571c-.276 0-.5.224-.5.5s.224.5.5.5h3.571c.224.86 1 1.5 1.929 1.5 1.103 0 2-.897 2-2s-.897-2-2-2zm0 3c-.551 0-1-.449-1-1s.449-1 1-1 1 .449 1 1-.449 1-1 1zm-15-8c-3.86 0-7 3.14-7 7s3.14 7 7 7 7-3.14 7-7-3.14-7-7-7zm0 13c-3.309 0-6-2.691-6-6s2.691-6 6-6 6 2.691 6 6-2.691 6-6 6zm3.039-4.33c0 1.009-.8 1.83-1.783 1.83h-.756v.5c0 .276-.224.5-.5.5s-.5-.224-.5-.5v-.5h-.757c-.817 0-1.528-.568-1.728-1.38-.066-.268.098-.539.366-.605.269-.066.539.098.605.366.09.365.401.62.757.62h2.513c.432 0 .783-.373.783-.83 0-.371-.235-.7-.572-.799l-3.094-.777c-.779-.23-1.309-.953-1.309-1.764 0-1.009.8-1.83 1.783-1.83h.653v-.5c0-.276.224-.5.5-.5s.5.224.5.5v.5h.757c.817 0 1.528.568 1.728 1.38.066.268-.098.539-.366.605-.268.07-.539-.097-.605-.366-.09-.365-.401-.62-.757-.62h-2.411c-.432 0-.783.373-.783.83 0 .371.235.7.572.799l3.094.777c.779.23 1.309.953 1.309 1.764zm2.615-8.978c.143 0 .284-.061.383-.178l.647-.769c.667-.792 1.643-1.246 2.677-1.246h3.71c.224.86 1 1.5 1.929 1.5 1.103 0 2-.897 2-2s-.897-2-2-2c-.929 0-1.705.64-1.929 1.5h-3.71c-1.33 0-2.584.583-3.442 1.602l-.647.769c-.178.211-.151.526.061.704.094.079.208.118.321.118zm9.346-3.692c.551 0 1 .449 1 1s-.449 1-1 1-1-.449-1-1 .449-1 1-1z"/></svg>