<svg id="Layer_1" viewBox="0 0 24 24" xmlns="http://www.w3.org/2000/svg" data-name="Layer 1"><path d="m14 14.5v9c.006.269-.192.5-.5.5-.089 0-.178-.024-.257-.071l-5-3c-.151-.09-.243-.253-.243-.429v-6.321l-7.053-7.933c-.61-.687-.947-1.572-.947-2.493 0-2.07 1.684-3.753 3.753-3.753h7.747c.276 0 .5.224.5.5s-.224.5-.5.5h-7.747c-1.518 0-2.753 1.235-2.753 2.752 0 .675.247 1.325.695 1.829l7.179 8.076c.081.091.126.209.126.332v6.228l4 2.4v-8.117c0-.276.224-.5.5-.5s.5.224.5.5zm10-8c0 3.584-2.916 6.5-6.5 6.5s-6.5-2.916-6.5-6.5 2.916-6.5 6.5-6.5 6.5 2.916 6.5 6.5zm-1 0c0-3.033-2.468-5.5-5.5-5.5s-5.5 2.467-5.5 5.5 2.468 5.5 5.5 5.5 5.5-2.467 5.5-5.5zm-2.857-1.369-2.707 2.617c-.337.333-.887.333-1.222.004l-1.362-1.344c-.197-.194-.514-.192-.707.005-.194.196-.192.513.004.707l1.364 1.345c.361.355.837.532 1.312.532s.95-.178 1.311-.534l2.703-2.614c.198-.192.204-.508.012-.707-.19-.199-.509-.203-.707-.012z"/></svg>