<svg id="Layer_1" viewBox="0 0 24 24" xmlns="http://www.w3.org/2000/svg" data-name="Layer 1"><path d="m19.339 15.862c-1.557 1.432-4.093 3.138-7.339 3.138s-5.782-1.707-7.339-3.138c-.203-.187-.216-.503-.029-.707.188-.203.504-.216.707-.03 1.425 1.312 3.737 2.875 6.661 2.875s5.236-1.563 6.661-2.875c.205-.186.52-.173.707.03s.174.52-.029.707zm4.661-3.362c0 .276-.224.5-.5.5h-23c-.276 0-.5-.224-.5-.5s.224-.5.5-.5h1.507c0-.28.059-.56.189-.816.614-1.226 4.293-6.184 9.805-6.184s9.19 4.958 9.806 6.185c.129.256.188.535.188.815h1.507c.276 0 .5.224.5.5zm-10-.5c0-1.103-.897-2-2-2s-2 .897-2 2zm1 0h5.994c0-.125-.023-.249-.082-.366-.562-1.119-3.908-5.634-8.912-5.634s-8.351 4.515-8.911 5.633c-.059.117-.083.242-.083.367h5.994c0-1.654 1.346-3 3-3s3 1.346 3 3zm-14.5-5c.276 0 .5-.224.5-.5v-2c0-1.93 1.57-3.5 3.5-3.5h2c.276 0 .5-.224.5-.5s-.224-.5-.5-.5h-2c-2.481 0-4.5 2.019-4.5 4.5v2c0 .276.224.5.5.5zm6 16h-2c-1.93 0-3.5-1.57-3.5-3.5v-2c0-.276-.224-.5-.5-.5s-.5.224-.5.5v2c0 2.481 2.019 4.5 4.5 4.5h2c.276 0 .5-.224.5-.5s-.224-.5-.5-.5zm17-6c-.276 0-.5.224-.5.5v2c0 1.93-1.57 3.5-3.5 3.5h-2c-.276 0-.5.224-.5.5s.224.5.5.5h2c2.481 0 4.5-2.019 4.5-4.5v-2c0-.276-.224-.5-.5-.5zm-4-17h-2c-.276 0-.5.224-.5.5s.224.5.5.5h2c1.93 0 3.5 1.57 3.5 3.5v2c0 .276.224.5.5.5s.5-.224.5-.5v-2c0-2.481-2.019-4.5-4.5-4.5z"/></svg>