<svg id="Layer_1" viewBox="0 0 24 24" xmlns="http://www.w3.org/2000/svg" data-name="Layer 1"><path d="m23.879 7.422-1.962 5.203c-.308.819-1.105 1.359-1.977 1.359-1.813-.031-2.887-.456-4.233-1.511-.224-.162-.274-.474-.112-.698.161-.225.475-.274.698-.113.594.429 1.221.865 1.779 1.069.377.138 1.366.217 1.738.246.546.05.996-.241 1.171-.705l1.962-5.203c.202-.494-.144-1.105-.678-1.166-.47-.055-1.34-.131-1.571-.227-.717-.244-1.407-.797-2.075-1.332-.582-.466-1.184-.947-1.716-1.142-.393-.144-.906-.216-1.474-.204-.516.007-.984.348-1.164.848l-.508 1.33c-.098.258-.389.387-.645.289-.259-.099-.388-.387-.289-.646l.504-1.321c.317-.88 1.157-1.486 2.088-1.5.698-.007 1.323.079 1.83.264.687.25 1.354.784 1.998 1.3 1.03.918 1.853 1.325 3.16 1.349.558.078 1.044.402 1.332.889.293.493.345 1.083.143 1.62zm-13.701 5.742c-.256-.097-.547.031-.645.289l-3 7.869c-.099.258.03.547.289.646.251.098.547-.029.645-.289l3-7.869c.099-.258-.03-.547-.289-.646zm7.289 8.158c.099.258-.03.547-.289.646-.251.098-.547-.029-.645-.289l-3.999-10.487c-.288-.097-1.373-.397-2.432.099-.498.233-1.041.626-1.616 1.042-1.378 1.066-2.397 1.6-4.218 1.642-.961.078-1.858-.478-2.186-1.35l-1.961-5.203c-.202-.536-.15-1.127.143-1.62.288-.487.774-.811 1.332-.889 1.306-.023 2.13-.431 3.16-1.349.645-.516 1.312-1.05 1.997-1.3.509-.185 1.151-.267 1.831-.264.931.014 1.771.62 2.092 1.509l6.791 17.812zm-5.362-11.257-2.366-6.208c-.184-.508-.652-.849-1.168-.856-.551-.01-1.089.06-1.475.204-.531.194-1.133.676-1.715 1.142-.668.535-1.358 1.088-2.075 1.332-.23.095-1.103.171-1.571.227-.534.061-.88.672-.678 1.166l1.962 5.203c.175.463.616.751 1.129.708.414-.033 1.403-.112 1.78-.25.612-.223 1.304-.724 1.973-1.208.587-.425 1.194-.865 1.777-1.138.901-.424 1.798-.417 2.427-.32z"/></svg>