<svg id="Layer_1" viewBox="0 0 24 24" xmlns="http://www.w3.org/2000/svg" data-name="Layer 1"><path d="m24 20.5c0 .276-.224.5-.5.5h-15c-.276 0-.5-.224-.5-.5s.224-.5.5-.5h15c.276 0 .5.224.5.5zm-9-9v2h1.75c1.24 0 2.25 1.009 2.25 2.25s-1.01 2.25-2.25 2.25h-1.75c-.552 0-1-.449-1-1v-5.5c0-.276.224-.5.5-.5s.5.224.5.5zm0 3v2.5h1.75c.689 0 1.25-.561 1.25-1.25s-.561-1.25-1.25-1.25zm9-10v13c0 .276-.224.5-.5.5s-.5-.224-.5-.5v-9.5h-22v6.5c0 .276-.224.5-.5.5s-.5-.224-.5-.5v-10c0-2.481 2.019-4.5 4.5-4.5h15c2.481 0 4.5 2.019 4.5 4.5zm-1 2.5v-2.5c0-1.93-1.57-3.5-3.5-3.5h-15c-1.93 0-3.5 1.57-3.5 3.5v2.5zm-19-4c-.552 0-1 .448-1 1s.448 1 1 1 1-.448 1-1-.448-1-1-1zm3 0c-.552 0-1 .448-1 1s.448 1 1 1 1-.448 1-1-.448-1-1-1zm3 0c-.552 0-1 .448-1 1s.448 1 1 1 1-.448 1-1-.448-1-1-1zm-2 15c-.552 0-1-.449-1-1v-6c0-.551.448-1 1-1h2.25c1.24 0 2.25 1.009 2.25 2.25 0 .602-.237 1.149-.623 1.553.671.39 1.123 1.117 1.123 1.947 0 1.241-1.01 2.25-2.25 2.25zm0-4.5h2.25c.689 0 1.25-.561 1.25-1.25s-.561-1.25-1.25-1.25h-2.25zm0 3.5h2.75c.689 0 1.25-.561 1.25-1.25s-.561-1.25-1.25-1.25h-2.75zm-1.5 3.5c0 .47-.245.887-.656 1.114l-3.948 2.222c-.401.221-.873.217-1.268-.014-.393-.231-.628-.642-.628-1.099v-4.447c0-.457.235-.867.629-1.099.383-.226.876-.231 1.264-.016l3.954 2.226c.408.226.653.643.653 1.113zm-1 0c0-.104-.05-.189-.141-.24l-3.954-2.225c-.083-.046-.187-.045-.27.005-.087.05-.136.137-.136.236v4.447c0 .1.049.186.135.236.085.05.186.051.275.002l3.946-2.221c.094-.052.144-.137.144-.242z"/></svg>