<svg id="Layer_1" viewBox="0 0 24 24" xmlns="http://www.w3.org/2000/svg" data-name="Layer 1"><path d="m5.002 14.99h-4.502c-.276 0-.5-.223-.5-.5s.224-.5.5-.5h4.502c.184 0 .352-.1.439-.261l1.223-2.248c.167-.306.491-.476.833-.452.347.027.635.247.752.574l1.81 5.164.844-1.89c.241-.539.779-.888 1.37-.888h2.227c.276 0 .5.223.5.5s-.224.5-.5.5h-2.227c-.197 0-.376.116-.457.296l-.979 2.192c-.147.316-.499.51-.837.51-.354-.017-.656-.244-.775-.578l-1.82-5.195-1.083 1.992c-.263.483-.768.783-1.318.783zm-4.452-2.955c.298.002.536-.266.497-.561-.16-1.288.101-2.451.777-3.458.575-.855 1.438-1.492 2.429-1.793 1.521-.464 3.095-.207 4.323.703 1.223.906 1.925 2.297 1.925 3.816 0 .276.224.5.5.5s.5-.223.5-.5c0-1.812-.871-3.539-2.33-4.619-1.484-1.099-3.384-1.41-5.209-.856-1.211.368-2.266 1.147-2.968 2.192-.815 1.212-1.131 2.604-.94 4.138.031.253.247.438.496.438zm19.17 2.034c-.244-.12-.547-.019-.669.229-1.512 3.084-4.462 6.049-6.671 7.993-1.071.942-2.68.948-3.745.012-1.315-1.156-3.21-2.96-4.772-4.994-.167-.218-.481-.26-.701-.092s-.261.482-.092.7c1.611 2.098 3.556 3.951 4.905 5.136.718.631 1.619.946 2.521.946.909 0 1.818-.32 2.545-.958 2.277-2.004 5.325-5.072 6.909-8.304.121-.248.019-.547-.229-.668zm.28-8.073c0 1.102-.897 1.999-2 1.999s-2-.896-2-1.999.897-1.999 2-1.999 2 .896 2 1.999zm-1 0c0-.551-.448-.999-1-.999s-1 .448-1 .999.448.999 1 .999 1-.448 1-.999zm-1-5.996c-3.309 0-6 2.69-6 5.996 0 2.034 1.02 3.913 2.727 5.026.233.15.542.085.692-.146s.086-.541-.146-.691c-1.424-.928-2.273-2.493-2.273-4.189 0-2.755 2.243-4.997 5-4.997s5 2.242 5 4.997c0 1.695-.85 3.261-2.273 4.189-.231.151-.296.461-.146.691.096.147.256.227.419.227.094 0 .188-.026.273-.081 1.707-1.113 2.727-2.992 2.727-5.026 0-3.306-2.691-5.996-6-5.996zm.5 12.491v-2.998c0-.276-.224-.5-.5-.5s-.5.223-.5.5v2.998c0 .276.224.5.5.5s.5-.223.5-.5z"/></svg>