<?xml version="1.0" encoding="UTF-8"?>
<svg xmlns="http://www.w3.org/2000/svg" id="Layer_1" data-name="Layer 1" viewBox="0 0 24 24">
  <path d="M8.5,5c-.276,0-.5,.224-.5,.5v.5h-3v-.5c0-.276-.224-.5-.5-.5s-.5,.224-.5,.5v.5H1v-.5c0-.276-.224-.5-.5-.5s-.5,.224-.5,.5v2c0,1.196,.845,2.195,1.968,2.44l-.437,6.122c-.876,.213-1.53,.998-1.53,1.938,0,1.103,.897,2,2,2H7c1.103,0,2-.897,2-2,0-.94-.654-1.726-1.53-1.938l-.437-6.122c1.123-.245,1.968-1.244,1.968-2.44v-2c0-.276-.224-.5-.5-.5Zm-2.037,11H2.537l.428-6h3.069l.428,6Zm1.537,2c0,.552-.449,1-1,1H2c-.551,0-1-.448-1-1s.449-1,1-1H7c.551,0,1,.448,1,1Zm-1.5-9H2.5c-.827,0-1.5-.673-1.5-1.5v-.5h7v.5c0,.827-.673,1.5-1.5,1.5Zm15-4c1.378,0,2.5-1.121,2.5-2.5s-1.122-2.5-2.5-2.5-2.5,1.121-2.5,2.5,1.122,2.5,2.5,2.5Zm0-4c.827,0,1.5,.673,1.5,1.5s-.673,1.5-1.5,1.5-1.5-.673-1.5-1.5,.673-1.5,1.5-1.5Zm0,8.5c-1.378,0-2.5,1.121-2.5,2.5s1.122,2.5,2.5,2.5,2.5-1.121,2.5-2.5-1.122-2.5-2.5-2.5Zm0,4c-.827,0-1.5-.673-1.5-1.5s.673-1.5,1.5-1.5,1.5,.673,1.5,1.5-.673,1.5-1.5,1.5Zm0,5.5c-1.378,0-2.5,1.121-2.5,2.5s1.122,2.5,2.5,2.5,2.5-1.121,2.5-2.5-1.122-2.5-2.5-2.5Zm0,4c-.827,0-1.5-.673-1.5-1.5s.673-1.5,1.5-1.5,1.5,.673,1.5,1.5-.673,1.5-1.5,1.5ZM14,5.5v6h2.5c.276,0,.5,.224,.5,.5s-.224,.5-.5,.5h-2.5v6c0,1.379,1.122,2.5,2.5,2.5,.276,0,.5,.224,.5,.5s-.224,.5-.5,.5c-1.93,0-3.5-1.57-3.5-3.5v-6h-2.5c-.276,0-.5-.224-.5-.5s.224-.5,.5-.5h2.5V5.5c0-1.93,1.57-3.5,3.5-3.5,.276,0,.5,.224,.5,.5s-.224,.5-.5,.5c-1.378,0-2.5,1.121-2.5,2.5Z"/>
</svg>
