<?xml version="1.0" encoding="UTF-8"?>
<svg xmlns="http://www.w3.org/2000/svg" id="Layer_1" data-name="Layer 1" viewBox="0 0 24 24">
  <path d="m10.475,23.025h-3.906c-2.246,0-4.164-1.679-4.461-3.905L.988,10.723c-.057-.428.073-.86.358-1.186.285-.326.696-.512,1.129-.512h18.999c.401,0,.778.156,1.061.439.284.285.44.661.439,1.06,0,.276.223.5.499.501h0c.276,0,.5-.223.5-.499,0-.666-.259-1.294-.732-1.768-.472-.473-1.1-.733-1.769-.733h-.566C20.407,3.504,16.578.025,11.975.025S3.542,3.504,3.041,8.025h-.566c-.721,0-1.407.311-1.881.854C.119,9.421-.098,10.142-.003,10.855l1.119,8.397c.363,2.721,2.707,4.772,5.452,4.772h3.906c.276,0,.5-.224.5-.5s-.224-.5-.5-.5ZM11.975,1.025c4.054,0,7.435,3.035,7.93,7H4.045c.495-3.965,3.876-7,7.93-7Zm5.5,10c-3.584,0-6.5,2.916-6.5,6.5s2.916,6.5,6.5,6.5,6.5-2.916,6.5-6.5-2.916-6.5-6.5-6.5Zm0,12c-3.033,0-5.5-2.468-5.5-5.5s2.467-5.5,5.5-5.5,5.5,2.468,5.5,5.5-2.467,5.5-5.5,5.5Zm3.5-5.5c0,.276-.224.5-.5.5h-2.5v2.5c0,.276-.224.5-.5.5s-.5-.224-.5-.5v-2.5h-2.5c-.276,0-.5-.224-.5-.5s.224-.5.5-.5h2.5v-2.5c0-.276.224-.5.5-.5s.5.224.5.5v2.5h2.5c.276,0,.5.224.5.5Z"/>
</svg>
