<svg id="Layer_1" viewBox="0 0 24 24" xmlns="http://www.w3.org/2000/svg" data-name="Layer 1"><path d="m17.5 8c-.276 0-.5.224-.5.5v.5c0 .552-.449 1-1 1h-1.04c-.496-1.198-1.665-1.999-2.96-2-1.278 0-2.433.784-2.953 2h-1.047c-.551 0-1-.448-1-1v-.5c0-.276-.224-.5-.5-.5s-.5.224-.5.5v.5c0 1.103.897 2 2 2h.761l-.503 2h-1.758c-.276 0-.5.224-.5.5s.224.5.5.5h1.507c-.086.296-.136.605-.132.922 0 .377.066.734.16 1.078h-.035c-1.103 0-2 .897-2 2v.5c0 .276.224.5.5.5s.5-.224.5-.5v-.5c0-.552.449-1 1-1h.455c.711 1.199 2.011 1.999 3.546 2 1.532-.001 2.831-.8 3.543-2h.456c.551 0 1 .448 1 1v.5c0 .276.224.5.5.5s.5-.224.5-.5v-.5c0-1.103-.897-2-2-2h-.036c.094-.347.161-.706.161-1.086.004-.308-.046-.622-.131-.914h1.506c.276 0 .5-.224.5-.5s-.224-.5-.5-.5h-1.759l-.505-2h.763c1.103 0 2-.897 2-2v-.5c0-.276-.224-.5-.5-.5zm-5.499 10c-1.751-.002-3.124-1.354-3.126-3.072.002-.144.006-.282.028-.396l1.021-4.068c.321-.875 1.155-1.463 2.076-1.464.921 0 1.756.589 2.061 1.414l1.033 4.105c.025.134.029.268.031.4-.002 1.726-1.375 3.078-3.124 3.08zm7.499-15h-7.028c-.231 0-.464-.055-.671-.158l-3.156-1.578c-.345-.173-.732-.264-1.118-.264h-3.028c-2.48 0-4.499 2.019-4.499 4.5v13c0 2.481 2.019 4.5 4.5 4.5h15c2.481 0 4.5-2.019 4.5-4.5v-11c0-2.481-2.019-4.5-4.5-4.5zm3.5 15.5c0 1.93-1.57 3.5-3.5 3.5h-15c-1.93 0-3.5-1.57-3.5-3.5v-13c0-1.93 1.57-3.5 3.5-3.5h3.028c.231 0 .464.055.671.158l3.156 1.578c.345.173.732.264 1.118.264h7.028c1.93 0 3.5 1.57 3.5 3.5v11z"/></svg>