<svg id="Layer_1" viewBox="0 0 24 24" xmlns="http://www.w3.org/2000/svg" data-name="Layer 1"><path d="m11 23.5c0 .276-.224.5-.5.5h-6c-2.481 0-4.5-2.019-4.5-4.5v-15c0-2.481 2.019-4.5 4.5-4.5h6.343c1.202 0 2.333.468 3.182 1.318l2.656 2.656c.851.85 1.318 1.98 1.318 3.183v1.343c0 .276-.224.5-.5.5s-.5-.224-.5-.5v-1.343c0-.936-.364-1.814-1.025-2.476l-2.656-2.656c-.661-.661-1.54-1.025-2.476-1.025h-6.342c-1.93 0-3.5 1.57-3.5 3.5v15c0 1.93 1.57 3.5 3.5 3.5h6c.276 0 .5.224.5.5zm-3-10.5v3h.5c.276 0 .5.224.5.5s-.224.5-.5.5h-4.5v.5c0 1.379 1.121 2.5 2.5 2.5h2.5c.276 0 .5.224.5.5s-.224.5-.5.5h-2.5c-1.93 0-3.5-1.57-3.5-3.5v-2c0-1.93 1.57-3.5 3.5-3.5h3.5c.276 0 .5.224.5.5s-.224.5-.5.5zm-1 0h-.5c-1.379 0-2.5 1.121-2.5 2.5v.5h3zm13.944 3.449c.253.736-.351 1.574-1.132 1.551h-4.764c.081.403.262.78.535 1.106.478.568 1.176.894 1.916.894.836 0 1.522-.275 2.16-.867.2-.186.518-.176.707.027.188.202.175.519-.027.707-.822.762-1.752 1.133-2.84 1.133-1.037 0-2.014-.456-2.682-1.25-.524-.625-.809-1.407-.817-2.217-.001-.021-.001-.043 0-.064 0-.199.02-.399.055-.6.247-1.409 1.404-2.566 2.813-2.813 1.771-.315 3.557.741 4.075 2.394zm-.953.301c-.372-1.185-1.67-1.93-2.948-1.71-.989.174-1.803.977-1.995 1.96h4.765c.152-.023.202-.097.179-.25zm4.009.75c0 3.584-2.916 6.5-6.5 6.5s-6.5-2.916-6.5-6.5 2.916-6.5 6.5-6.5 6.5 2.916 6.5 6.5zm-1 0c0-3.032-2.468-5.5-5.5-5.5s-5.5 2.468-5.5 5.5 2.468 5.5 5.5 5.5 5.5-2.468 5.5-5.5z"/></svg>