<svg id="Layer_1" viewBox="0 0 24 24" xmlns="http://www.w3.org/2000/svg" data-name="Layer 1"><path d="m9.688 8.089c.45-.36.997.462 1.188.776.121.173.204.472-.014.6-.147.078-.324-.025-.452-.131-.274-.227-1.171-.885-.722-1.244zm-7.488-2.911c-.139.115-.283.333-.145.497.138.113.348.144.523.151.416-.021 1.719-.571 1.302-1.104-.452-.577-1.309.114-1.681.455zm1.91 11.01c-1.395 1.742-1.949 4.635-2.17 6.754l-.133.011c-.25-.879-.832-3.168-.832-5.452 0-2.4.504-4.354.509-4.373.07-.268-.09-.54-.356-.61-.27-.074-.541.09-.61.356-.022.084-.542 2.092-.542 4.627 0 2.41.609 4.808.871 5.726.13.456.552.774 1.026.774.548 0 1.005-.41 1.062-.955.292-2.808.987-5.021 1.957-6.232.172-.216.138-.53-.078-.703-.216-.17-.529-.138-.703.078zm4.896-1.704c-.386.326-.933.517-1.471.517-.535.014-1.06-.166-1.473-.516-.244-.206-.565-.534-.822-.782-.405-.39-.591-.952-.497-1.502.061-.345.133-.677.225-1.02l-.108.123c-.271.313-.665.496-1.079.501h-.019c-.402 0-.787-.168-1.058-.465-.136-.148-.27-.302-.399-.457-.613-.734-.598-1.824.034-2.535.406-.458.762-.776 1.168-1.139-.487.131-.932.323-1.34.579-.343.214-.756.251-1.132.095-.394-.161-.687-.507-.784-.925-.077-.327-.135-.663-.172-1.005-.108-1.02.469-1.987 1.404-2.354.492-.195.962-.361 1.403-.497-.308-.083-.588-.086-.848-.072-.412.022-.81-.197-1-.569-.187-.36-.145-.779.109-1.092.738-.909 1.776-1.369 3.085-1.369 1.235 0 2.31.427 3.27 1.301.736-.656 1.839-1.301 3.333-1.301 1.308 0 2.344.459 3.079 1.363.249.305.295.717.122 1.074-.177.365-.535.59-.938.59-.297-.007-.596.025-.864.091.426.133.877.293 1.351.48.935.367 1.512 1.335 1.403 2.353-.039.356-.102.715-.186 1.067-.095.39-.377.714-.754.866-.378.154-.808.119-1.147-.095-.408-.257-.853-.449-1.341-.581.407.362.762.681 1.168 1.139.632.711.647 1.801.035 2.534-.131.156-.265.31-.4.458-.516.627-1.632.611-2.156-.037-.035-.04-.071-.081-.107-.122.092.343.164.674.224 1.018.095.552-.091 1.114-.496 1.504 0 0-.646.633-.821.781zm-.646-.763c.225-.193.535-.509.773-.739.166-.16.243-.389.204-.613-.144-.83-.372-1.586-.812-2.696-.083-.21-.016-.45.166-.585.181-.136.429-.131.607.007.708.556 1.174.991 1.663 1.554.151.182.498.218.663.019.126-.139.25-.28.372-.426.297-.355.29-.884-.017-1.229-.779-.863-1.396-1.274-2.267-2.158-.325-.308-.063-.861.368-.854 1.306.038 2.402.347 3.351.942.203.082.308.037.397-.159.073-.304.129-.619.164-.938.061-.571-.258-1.112-.775-1.316-.937-.369-1.771-.627-2.484-.765-.189-.037-.342-.181-.389-.369-.048-.188.018-.386.167-.509.703-.576 1.564-.866 2.585-.858-.496-.692-1.271-1.027-2.263-1.027-1.308 0-2.245.628-2.835 1.208v4.29c0 .276-.224.5-.5.5s-.5-.224-.5-.5v-4.295c-.552-.554-1.413-1.205-2.768-1.205-.994 0-1.77.336-2.307.998.66-.002 1.607.045 2.63.889.149.123.214.321.166.509s-.199.331-.389.368c-.713.138-1.548.396-2.483.765-.519.204-.837.745-.776 1.317.033.299.083.596.15.884.048.178.221.316.411.212.949-.596 2.045-.903 3.351-.941.44-.014.689.548.368.854-.871.885-1.487 1.294-2.267 2.158-.307.345-.313.873-.016 1.229.121.145.245.286.371.425.179.199.496.177.662-.018.49-.563.956-.999 1.664-1.555.179-.138.426-.143.607-.007.182.135.249.375.166.585-.44 1.11-.669 1.866-.813 2.698-.038.223.039.451.205.611.239.23.546.546.774.739.22.186.511.285.782.279.312.009.657-.099.87-.279zm12.981 6.761c-.248-.198-.618-.301-.836-.022-.207.259-.13.548-.007.82.247.461.944 1.431 1.321.649.15-.31.179-.717-.038-1-.127-.167-.276-.318-.441-.448zm-7.613-2.344c-.692-.241-1.039.804-1.167 1.293-.055.172-.057.433.148.497.177.02.37-.067.521-.156.338-.243 1.136-1.411.498-1.633zm10.271 2.603c-.007.359-.001.83-.029 1.15-.042.509-.304 1.043-.699 1.428-.365.376-.855.607-1.381.651-.318.028-.781.023-1.139.029-.555 0-1.081-.252-1.407-.705-.266-.368-.552-.779-.836-1.247.006.135.015.268.025.401.031.384-.091.757-.344 1.05-.257.296-.613.474-1.006.499-.221.014-.452.018-.663 0-.876-.08-1.459-.771-1.521-1.803v-1.792c-.34.499-.576.99-.714 1.481-.114.407-.412.741-.797.893-.36.143-.759.109-1.089-.091-.32-.193-.627-.408-.913-.64-.796-.642-1.072-1.734-.672-2.656.212-.486.426-.936.643-1.344-.277.16-.48.357-.65.549-.278.312-.716.432-1.112.304-.386-.124-.651-.449-.693-.851-.121-1.161.287-2.22 1.214-3.146.872-.873 1.934-1.331 3.231-1.393.057-.984.381-2.22 1.437-3.275.923-.925 1.977-1.337 3.142-1.214.392.04.716.298.847.673.135.389.036.808-.259 1.093-.173.168-.365.389-.53.661.393-.206.823-.411 1.288-.613.924-.401 2.016-.125 2.658.671.231.288.447.595.641.915.2.332.232.729.09 1.091-.151.383-.484.68-.89.794-.497.14-1.002.382-1.51.723.943-.011 1.729-.027 1.73-.027 1.415 0 1.786.837 1.85 1.54.053.571.067 1.005.055 1.599 0 .287-.274.525-.558.486-.499-.058-.904-.102-1.319-.118.444.282.842.571 1.215.854.429.327.677.843.666 1.38zm-1-.021c.005-.219-.098-.429-.272-.562-.674-.513-1.489-1.101-2.637-1.597-.207-.09-.329-.307-.297-.53s.211-.398.436-.425c1.201-.146 1.904-.124 2.77-.035-.005-.31-.022-.599-.054-.939-.032-.357-.115-.631-.843-.631-.002 0-1.751.037-3.165.037-.439.015-.673-.574-.343-.863.988-.933 1.999-1.549 3.005-1.832.174-.045.317-.241.215-.405-.17-.28-.359-.552-.562-.804-.359-.447-.967-.606-1.48-.382-.926.403-1.698.812-2.297 1.215-.334.24-.831-.058-.776-.465.091-.905.513-1.747 1.221-2.434-.844-.137-1.626.172-2.327.874-.923.923-1.142 2.028-1.15 2.855l3.408 3.347c.196.193.199.51.006.707s-.51.199-.707.006l-3.414-3.352c-.781-.002-1.854.145-2.812 1.105-.703.703-1.015 1.489-.927 2.336.473-.475 1.169-1.104 2.489-1.23.189-.013.378.076.478.242.099.167.093.375-.016.535-.405.602-.813 1.374-1.214 2.297-.223.511-.065 1.119.382 1.479.251.203.521.393.803.562.167.102.359-.043.405-.217.279-.994.872-1.962 1.812-2.957.14-.151.36-.197.548-.122.19.076.315.26.315.465v3.165c.031.512.238.803.612.837.15.014.329.008.51-.002.236-.01.44-.233.416-.471-.065-.807-.048-1.46.066-2.41.026-.225.2-.402.424-.436.229-.028.441.089.531.297.492 1.139 1.083 2.019 1.596 2.73.134.185.302.274.577.289.333-.006.775 0 1.073-.025.288-.024.555-.15.752-.355.004-.005.009-.009.013-.013.223-.215.382-.529.404-.8.018-.204.025-1.087.025-1.087z"/></svg>