<?xml version="1.0" encoding="UTF-8"?>
<svg xmlns="http://www.w3.org/2000/svg" id="Layer_1" data-name="Layer 1" viewBox="0 0 24 24">
  <path d="m22,4.497c0-.734-.429-1.369-1.094-1.617L14.173.373c-1.367-.509-2.875-.512-4.246-.006h0L3.111,2.884c-.668.246-1.099.881-1.099,1.616,0,.736.432,1.371,1.1,1.616l2.888,1.063v1.821c0,3.309,2.691,6,6,6s6-2.691,6-6v-1.821l2.9-1.068c.037-.013.064-.04.1-.055v5.444c0,.276.224.5.5.5s.5-.224.5-.5v-7s0,0,0-.001c0,0,0-.001,0-.002Zm-5,4.503c0,2.757-2.243,5-5,5s-5-2.243-5-5v-1.453l2.889,1.063c.68.251,1.395.376,2.109.376s1.429-.125,2.109-.375l2.892-1.064v1.453Zm3.555-3.827l-6.792,2.5c-1.138.418-2.391.418-3.527,0l-6.777-2.495c-.329-.12-.446-.429-.446-.678s.117-.558.445-.679l6.816-2.517h0c1.147-.421,2.408-.42,3.551.006l6.733,2.507c.327.121.443.43.443.678,0,.249-.118.558-.445.678Zm.422,18.177c.083.264-.063.545-.327.627-.262.083-.543-.063-.627-.326-.593-1.885-1.841-3.581-3.34-4.536-.273-.176-.639-.117-.848.133l-2.327,3.044c-.379.456-.918.709-1.49.709h0c-.572,0-1.111-.252-1.477-.691l-2.365-3.091c-.196-.234-.559-.291-.834-.118-1.51.956-2.767,2.657-3.362,4.551-.067.213-.265.35-.477.35-.05,0-.1-.008-.15-.023-.264-.082-.41-.363-.327-.627.665-2.111,2.078-4.016,3.781-5.095.696-.439,1.621-.296,2.151.339l2.365,3.091c.163.194.421.315.696.315h0c.275,0,.534-.121.709-.333l2.327-3.043c.544-.653,1.47-.796,2.167-.354,1.69,1.078,3.095,2.978,3.756,5.079Z"/>
</svg>
