<?xml version="1.0" encoding="UTF-8"?>
<svg xmlns="http://www.w3.org/2000/svg" id="Layer_1" data-name="Layer 1" viewBox="0 0 24 24">
  <path d="M19.5,5H4.5C2.019,5,0,7.019,0,9.5v4c0,2.481,2.019,4.5,4.5,4.5h15c2.481,0,4.5-2.019,4.5-4.5v-4c0-2.481-2.019-4.5-4.5-4.5Zm3.5,8.5c0,1.93-1.57,3.5-3.5,3.5H4.5c-1.93,0-3.5-1.57-3.5-3.5v-4c0-1.93,1.57-3.5,3.5-3.5h15c1.93,0,3.5,1.57,3.5,3.5v4Zm-2.12-.356c0,1.314-1.124,2.003-2.234,2.003-1.208,0-1.971-.764-2.003-.797-.193-.196-.189-.514,.008-.707,.196-.192,.513-.19,.707,.008,.002,.002,.512,.496,1.288,.496,.458,0,1.234-.211,1.234-1.003,0-.541-.547-.835-1.448-1.253-.895-.415-2.007-.931-2.007-2.128,0-1.245,1.069-1.917,2.075-1.917,.946,0,1.748,.704,1.836,.784,.204,.186,.219,.5,.034,.705-.184,.204-.499,.221-.705,.036-.163-.146-.689-.525-1.165-.525-.372,0-1.075,.191-1.075,.917,0,.521,.539,.809,1.428,1.221,.903,.42,2.027,.941,2.027,2.16Zm-7.63-5.144h-1.25c-.552,0-1,.448-1,1v5.5c0,.276,.224,.5,.5,.5s.5-.224,.5-.5v-2h1.25c1.24,0,2.25-1.01,2.25-2.25s-1.01-2.25-2.25-2.25Zm0,3.5h-1.25v-2.5h1.25c.689,0,1.25,.561,1.25,1.25s-.561,1.25-1.25,1.25Zm-3.25-3v6c0,.276-.224,.5-.5,.5s-.5-.224-.5-.5v-6c0-.276,.224-.5,.5-.5s.5,.224,.5,.5Zm-2,0c0,.276-.224,.5-.5,.5h-1.5v5.5c0,.276-.224,.5-.5,.5s-.5-.224-.5-.5v-5.5h-1.5c-.276,0-.5-.224-.5-.5s.224-.5,.5-.5H7.5c.276,0,.5,.224,.5,.5Z"/>
</svg>
