<?xml version="1.0" encoding="UTF-8"?>
<svg xmlns="http://www.w3.org/2000/svg" id="Layer_1" data-name="Layer 1" viewBox="0 0 24 24">
  <path d="M23.992,10.783c-.06-.732-.439-1.401-1.043-1.836-.388-.28-.847-.419-1.315-.436,.155-.329,.245-.687,.245-1.062,0-.668-.26-1.296-.732-1.768-.563-.562-1.372-.781-2.135-.675,.118-.762-.108-1.568-.693-2.154-.762-.762-1.893-.92-2.817-.492-.047-.857-.506-1.637-1.326-2.077-.982-.527-2.208-.272-2.996,.516l-1.947,1.947c-.606,.607-.86,1.462-.723,2.28-.877-.06-1.757,.1-2.56,.51-1.169,.597-2.035,1.613-2.439,2.863l-1.594,5.008c-.251,.789-.677,1.511-1.246,2.113l-.566,.599c-.189,.201-.181,.517,.02,.707,.097,.091,.221,.137,.344,.137,.133,0,.265-.052,.363-.156l.568-.6c.672-.71,1.175-1.563,1.471-2.494l1.594-5.007c.373-1.154,1.244-2.059,2.411-2.481,.854-.309,1.798-.267,2.661,.014l2.832,.919c.735,.238,1.253,.972,1.109,1.731-.089,.467-.378,.851-.793,1.063-.355,.183-.762,.216-1.145,.091l-3.238-1.05c-.267-.085-.545,.06-.63,.321-.085,.263,.059,.545,.321,.63l3.238,1.05c.636,.206,1.312,.151,1.908-.152,.595-.304,1.036-.821,1.241-1.457,.016-.048,.019-.097,.031-.145,.008,0,.016,.003,.023,.003,.122,0,.242-.018,.361-.035-.11,.755,.116,1.551,.695,2.131,.487,.487,1.128,.731,1.768,.731,.122,0,.244-.017,.365-.035-.018,.12-.036,.241-.036,.364,0,.668,.26,1.296,.732,1.768,.388,.388,.88,.633,1.413,.708l-3.877,3.878c-.875,.875-1.965,1.502-3.159,1.83-1.351,.37-2.59,1.091-3.581,2.082l-.468,.468c-.195,.195-.195,.512,0,.707,.098,.098,.226,.146,.354,.146s.256-.049,.354-.146l.468-.468c.874-.875,1.964-1.502,3.157-1.829,1.352-.37,2.591-1.091,3.583-2.082l6.706-6.707c.52-.519,.783-1.237,.725-1.97ZM12.348,5.288c-.377,.377-.933,.511-1.441,.346l-1.211-.393c-.031-.01-.063-.011-.094-.021-.255-.6-.129-1.301,.336-1.766l1.947-1.947c.545-.545,1.433-.671,2.042-.198,.376,.292,.587,.725,.587,1.19,0,.401-.156,.777-.439,1.061l-1.727,1.727Zm2.111,2.952c-.128-.822-.659-1.546-1.453-1.897,.069-.245,.18-.478,.362-.66l2.121-2.122c.586-.584,1.536-.586,2.122,0,.584,.585,.584,1.537,0,2.122l-2.122,2.121c-.278,.279-.645,.429-1.03,.436Zm1.737,2.392c-.584-.585-.584-1.537,0-2.122l2.122-2.121c.566-.565,1.555-.566,2.121,0,.283,.283,.439,.66,.439,1.061s-.156,.777-.439,1.061l-.782,.782s0,0-.001,0l-1.338,1.338c-.585,.584-1.539,.583-2.122,0Zm6.364,1.414l-1.414,1.414c-.567,.567-1.556,.567-2.121,0-.283-.283-.439-.66-.439-1.061s.156-.777,.439-1.061l1.339-1.339c.328-.327,.76-.498,1.179-.498,.294,0,.582,.084,.822,.257,.37,.267,.594,.659,.63,1.105,.035,.439-.123,.871-.435,1.182ZM.021,5.359C.793,2.723,2.688,.828,5.355,.021c.263-.082,.543,.069,.623,.334,.08,.264-.069,.543-.334,.623C3.277,1.694,1.664,3.306,.979,5.641c-.063,.218-.263,.359-.479,.359-.046,0-.094-.006-.141-.02-.265-.078-.417-.355-.339-.621ZM5.979,2.855c.08,.264-.069,.543-.334,.623-1.099,.332-1.848,1.08-2.165,2.162-.063,.218-.263,.359-.479,.359-.046,0-.094-.006-.141-.02-.265-.078-.417-.355-.339-.621,.41-1.402,1.417-2.41,2.835-2.838,.263-.081,.543,.069,.623,.334Zm15.162,15.165c.265,.078,.417,.355,.339,.621-.422,1.442-1.376,2.397-2.835,2.838-.048,.015-.097,.021-.145,.021-.215,0-.413-.139-.479-.355-.08-.264,.069-.543,.334-.623,1.131-.342,1.839-1.049,2.165-2.162,.076-.264,.351-.418,.62-.339Zm2.839,.621c-.794,2.712-2.589,4.509-5.335,5.338-.048,.015-.097,.021-.145,.021-.215,0-.413-.139-.479-.355-.08-.264,.069-.543,.334-.623,2.436-.736,3.962-2.261,4.665-4.662,.077-.264,.352-.418,.62-.339,.265,.078,.417,.355,.339,.621Z"/>
</svg>
