<svg id="Layer_1" viewBox="0 0 24 24" xmlns="http://www.w3.org/2000/svg" data-name="Layer 1"><path d="m13.957 1c.892 0 1.755.261 2.499.758l1.77 1.16c.23.151.54.087.692-.144.151-.231.087-.541-.144-.692l-1.767-1.158c-.906-.604-1.961-.924-3.051-.924h-5.957c-1.654 0-3 1.346-3 3v2.103c-2.998 1.218-4.999 4.138-4.999 7.397v7c0 2.481 2.019 4.5 4.5 4.5h6c2.481 0 4.5-2.019 4.5-4.5v-7c0-3.259-2.001-6.179-5-7.397v-4.103zm-7.957 2c0-1.103.897-2 2-2h1v4h-3zm8 9.5v7c0 1.93-1.57 3.5-3.5 3.5h-6c-1.93 0-3.5-1.57-3.5-3.5v-7c0-2.881 1.785-5.464 4.455-6.509.016.001 4.075.001 4.09 0 2.669 1.045 4.455 3.628 4.455 6.509zm-5.325-.548c-.658-.643-1.691-.643-2.35 0l-.946.926c-1.17 1.17-1.17 3.072 0 4.242.566.566 1.32.879 2.121.879s1.555-.312 2.121-.879c1.17-1.17 1.17-3.072-.004-4.246l-.942-.923zm.239 4.462c-.756.756-2.072.756-2.828 0-.779-.779-.779-2.049-.004-2.824l.942-.922c.133-.13.305-.196.476-.196s.343.065.476.195l.938.918c.779.779.779 2.049 0 2.828zm12.086-4.414c1.103 0 2-.897 2-2s-.897-2-2-2-2 .897-2 2 .897 2 2 2zm0-3c.552 0 1 .449 1 1s-.448 1-1 1-1-.449-1-1 .448-1 1-1zm.562 8.182c.119-.295.188-.611.188-.932 0-1.379-1.121-2.5-2.5-2.5s-2.5 1.121-2.5 2.5c0 .828.406 1.576 1.061 2.037-.499.605-.811 1.369-.811 2.213 0 1.93 1.57 3.5 3.5 3.5s3.5-1.57 3.5-3.5c0-1.557-1.029-2.865-2.438-3.318zm-2.312-2.432c.827 0 1.5.673 1.5 1.5 0 .269-.091.523-.226.752-.008 0-.016-.002-.024-.002-.708 0-1.366.215-1.918.578-.504-.254-.832-.756-.832-1.328 0-.827.673-1.5 1.5-1.5zm1.25 8.25c-1.379 0-2.5-1.121-2.5-2.5s1.121-2.5 2.5-2.5 2.5 1.121 2.5 2.5-1.121 2.5-2.5 2.5z"/></svg>