<svg id="Layer_1" viewBox="0 0 24 24" xmlns="http://www.w3.org/2000/svg" data-name="Layer 1"><path d="m21.906 14.15-3.527-3.527c2.155-2.466 3.983-5.13 5.358-7.826.376-.738.236-1.598-.355-2.191-.595-.595-1.458-.736-2.196-.361-4.397 2.229-7.888 5.285-10.038 7.453l-1.375 1.366-4.858-4.858 1.65-1.65c.582-.584.58-1.535-.003-2.118-.558-.583-1.567-.582-2.123.002l-4 3.999c-.585.585-.585 1.536 0 2.121.558.582 1.563.582 2.121 0l1.646-1.647 4.856 4.856-5.812 5.774-1.397-1.397c-.195-.195-.512-.195-.707 0s-.195.512 0 .707l2.927 2.927-3.634 3.659c-.582.558-.582 1.563 0 2.121.559.582 1.563.582 2.122 0l3.633-3.658 2.952 2.952c.195.195.512.195.707 0s.195-.512 0-.707l-1.454-1.454 2.276-2.26 3.475 3.475c1.349 1.35 3.143 2.093 5.053 2.093h2.297c1.379 0 2.5-1.121 2.5-2.5v-2.297c0-1.911-.744-3.706-2.094-5.053zm-20.052-8.296c-.189.188-.518.188-.707 0-.195-.195-.195-.512 0-.707l3.999-4c.187-.195.521-.195.708 0 .194.194.194.511.002.705zm0 17c-.189.189-.518.189-.707 0-.195-.195-.195-.512 0-.708l3.633-3.658.707.707-3.634 3.659zm4.341-4.366 7.658-7.634c.196-.195.196-.511.002-.707-.195-.196-.514-.195-.707 0l-7.66 7.635-1.53-1.53 7.898-7.845c2.101-2.119 5.504-5.099 9.782-7.268.419-.213.811-.05 1.036.176.224.224.386.612.173 1.031-1.752 3.438-4.264 6.827-7.263 9.802l-7.892 7.84-1.497-1.497zm16.805 3.012c0 .827-.673 1.5-1.5 1.5h-2.297c-1.643 0-3.186-.639-4.346-1.8l-3.473-3.473 2.84-2.821 3.921 3.946c.194.196.511.196.707.002.195-.194.196-.511.002-.707l-3.921-3.946 1.356-1.347c.488-.484.959-.983 1.421-1.487l3.489 3.489c1.161 1.159 1.801 2.702 1.801 4.346v2.297z"/></svg>