<?xml version="1.0" encoding="UTF-8"?>
<svg xmlns="http://www.w3.org/2000/svg" id="Layer_1" data-name="Layer 1" viewBox="0 0 24 24">
  <path d="M23.11,8.996l-6.968-6.462c-.539-.531-1.308-.68-2.009-.389-.699,.293-1.133,.945-1.133,1.703v2.151h-4.006C4.035,6,0,10.034,0,14.993v6.469c0,.848,.69,1.538,1.539,1.538,.763,0,1.415-.569,1.516-1.323,.434-3.236,3.41-5.677,6.924-5.677h3.021v2.151c0,.754,.431,1.404,1.124,1.699,.693,.293,1.46,.153,1.988-.357l7.004-6.234c1.173-1.174,1.177-3.08-.006-4.263Zm-.68,3.536l-6.998,6.228c-.253,.245-.597,.307-.917,.17-.323-.137-.515-.428-.515-.778v-2.651c0-.276-.224-.5-.5-.5h-3.521c-4.013,0-7.416,2.813-7.915,6.544-.035,.26-.26,.456-.525,.456-.297,0-.539-.241-.539-.538v-6.469c0-4.407,3.586-7.993,7.994-7.993h4.506c.276,0,.5-.224,.5-.5V3.849c0-.353,.194-.645,.52-.78,.327-.136,.67-.067,.932,.188l6.966,6.459c.779,.779,.776,2.052,.013,2.816Z"/>
</svg>
