<?xml version="1.0" encoding="UTF-8"?>
<svg xmlns="http://www.w3.org/2000/svg" id="Layer_1" data-name="Layer 1" viewBox="0 0 24 24">
  <path d="m7,23.5c0,.276-.224.5-.5.5h-2c-2.481,0-4.5-2.019-4.5-4.5v-2c0-.276.224-.5.5-.5s.5.224.5.5v2c0,1.93,1.57,3.5,3.5,3.5h2c.276,0,.5.224.5.5Zm10-10.5v-2c0-1.103.897-2,2-2h2c1.103,0,2,.897,2,2v2c0,1.103-.897,2-2,2h-2c-1.103,0-2-.897-2-2Zm1,0c0,.551.449,1,1,1h2c.551,0,1-.449,1-1v-2c0-.551-.449-1-1-1h-2c-.551,0-1,.449-1,1v2Zm1.5-13h-2c-.276,0-.5.224-.5.5s.224.5.5.5h2c1.93,0,3.5,1.57,3.5,3.5v2c0,.276.224.5.5.5s.5-.224.5-.5v-2c0-2.481-2.019-4.5-4.5-4.5ZM6.5,0h-2C2.019,0,0,2.019,0,4.5v2c0,.276.224.5.5.5s.5-.224.5-.5v-2c0-1.93,1.57-3.5,3.5-3.5h2c.276,0,.5-.224.5-.5s-.224-.5-.5-.5Zm17,17c-.276,0-.5.224-.5.5v2c0,1.93-1.57,3.5-3.5,3.5h-2c-.276,0-.5.224-.5.5s.224.5.5.5h2c2.481,0,4.5-2.019,4.5-4.5v-2c0-.276-.224-.5-.5-.5Zm-8.5-6v2c0,1.103-.897,2-2,2h-2c-1.103,0-2-.897-2-2v-2c0-1.103.897-2,2-2h2c1.103,0,2,.897,2,2Zm-1,0c0-.551-.449-1-1-1h-2c-.551,0-1,.449-1,1v2c0,.551.449,1,1,1h2c.551,0,1-.449,1-1v-2Zm-7,0v2c0,1.103-.897,2-2,2h-2c-1.103,0-2-.897-2-2v-2c0-1.103.897-2,2-2h2c1.103,0,2,.897,2,2Zm-1,0c0-.551-.449-1-1-1h-2c-.551,0-1,.449-1,1v2c0,.551.449,1,1,1h2c.551,0,1-.449,1-1v-2Z"/>
</svg>
