<?xml version="1.0" encoding="UTF-8"?>
<svg xmlns="http://www.w3.org/2000/svg" id="Layer_1" data-name="Layer 1" viewBox="0 0 24 24">
  <path d="M23.381,8.854c-.475-.542-1.161-.854-1.881-.854h-.566C20.433,3.479,16.603,0,12,0S3.567,3.479,3.066,8h-.566c-.721,0-1.406,.311-1.881,.854-.475,.542-.692,1.263-.597,1.977l1.119,8.396c.363,2.721,2.707,4.773,5.452,4.773h10.812c2.745,0,5.089-2.052,5.452-4.773l1.119-8.396c.095-.714-.122-1.435-.597-1.977ZM12,1c4.054,0,7.435,3.035,7.93,7H4.07c.495-3.965,3.876-7,7.93-7Zm10.986,9.698l-1.119,8.396c-.297,2.226-2.215,3.905-4.461,3.905H6.594c-2.246,0-4.164-1.679-4.461-3.905L1.014,10.698c-.057-.428,.073-.86,.358-1.186,.285-.326,.696-.512,1.129-.512H21.5c.433,0,.844,.187,1.129,.512,.285,.325,.415,.757,.358,1.186Zm-6.986,5.302c0,.276-.224,.5-.5,.5h-3v3c0,.276-.224,.5-.5,.5s-.5-.224-.5-.5v-3h-3c-.276,0-.5-.224-.5-.5s.224-.5,.5-.5h3v-3c0-.276,.224-.5,.5-.5s.5,.224,.5,.5v3h3c.276,0,.5,.224,.5,.5Z"/>
</svg>
