<svg id="Layer_1" viewBox="0 0 24 24" xmlns="http://www.w3.org/2000/svg" data-name="Layer 1"><path d="m11 4c0 .552-.448 1-1 1s-1-.448-1-1 .448-1 1-1 1 .448 1 1zm11 .5v15c0 2.481-2.019 4.5-4.5 4.5h-11c-2.481 0-4.5-2.019-4.5-4.5v-15c0-2.481 2.019-4.5 4.5-4.5h11c2.481 0 4.5 2.019 4.5 4.5zm-1 3.5h-18v11.5c0 1.93 1.57 3.5 3.5 3.5h11c1.93 0 3.5-1.57 3.5-3.5zm0-3.5c0-1.93-1.57-3.5-3.5-3.5h-11c-1.93 0-3.5 1.57-3.5 3.5v2.5h18zm-7-1.5c-.552 0-1 .448-1 1s.448 1 1 1 1-.448 1-1-.448-1-1-1zm-9 12.5c0-2.667.876-5.5 2.5-5.5.607 0 1.109.396 1.5 1.03.416-.667.93-1.03 1.5-1.03.607 0 1.109.396 1.5 1.03.416-.667.93-1.03 1.5-1.03.605 0 1.107.394 1.497 1.027.417-.667.935-1.027 1.503-1.027 1.624 0 2.5 2.833 2.5 5.5s-.876 5.5-2.5 5.5c-.568 0-1.085-.359-1.503-1.027-.391.632-.892 1.027-1.497 1.027-.568 0-1.085-.359-1.503-1.027-.391.632-.892 1.027-1.497 1.027-.568 0-1.085-.359-1.503-1.027-.391.632-.892 1.027-1.497 1.027-1.624 0-2.5-2.834-2.5-5.5zm11 0c0 1.147-.149 2.347-.463 3.317.282.719.66 1.183.963 1.183.612 0 1.5-1.753 1.5-4.5s-.888-4.5-1.5-4.5c-.303 0-.681.464-.963 1.183.314.97.463 2.17.463 3.317zm-3 0c0 1.147-.163 2.324-.477 3.295.282.719.674 1.205.977 1.205.612 0 1.5-1.753 1.5-4.5s-.888-4.5-1.5-4.5c-.24 0-.632.328-.973 1.219.311.968.473 2.139.473 3.281zm-3 0c0 1.147-.163 2.324-.477 3.295.282.719.674 1.205.977 1.205.612 0 1.5-1.753 1.5-4.5s-.888-4.5-1.5-4.5c-.24 0-.632.328-.973 1.219.311.968.473 2.139.473 3.281zm-4 0c0 2.747.888 4.5 1.5 4.5s1.5-1.753 1.5-4.5-.888-4.5-1.5-4.5-1.5 1.753-1.5 4.5z"/></svg>