<?xml version="1.0" encoding="UTF-8"?>
<svg xmlns="http://www.w3.org/2000/svg" id="Layer_1" data-name="Layer 1" viewBox="0 0 24 24">
  <path d="M23.552,9.862c-.475-.548-1.164-.862-1.889-.862h-.663C21,4.038,16.962,0,12,0S3,4.038,3,9h-.5c-.726,0-1.414,.314-1.889,.862S-.077,11.136,.025,11.854l1.183,8.283c.315,2.203,2.23,3.863,4.455,3.863h12.836c2.225,0,4.14-1.661,4.455-3.863l1.183-8.283c.103-.718-.111-1.444-.586-1.992ZM12,1c4.411,0,8,3.589,8,8H4C4,4.589,7.589,1,12,1Zm11.148,10.712l-1.183,8.283c-.245,1.713-1.734,3.005-3.465,3.005H5.664c-1.73,0-3.22-1.292-3.465-3.005L1.016,11.712c-.062-.431,.066-.866,.352-1.194,.285-.329,.698-.518,1.133-.518H21.663c.435,0,.848,.188,1.133,.517,.285,.329,.414,.764,.352,1.195Zm-7.148,4.288c0,.276-.224,.5-.5,.5h-7c-.276,0-.5-.224-.5-.5s.224-.5,.5-.5h7c.276,0,.5,.224,.5,.5Z"/>
</svg>
