<svg id="Layer_1" viewBox="0 0 24 24" xmlns="http://www.w3.org/2000/svg" data-name="Layer 1"><path d="m5.5 5c1.379 0 2.5-1.122 2.5-2.5s-1.121-2.5-2.5-2.5-2.5 1.122-2.5 2.5 1.121 2.5 2.5 2.5zm0-4c.827 0 1.5.673 1.5 1.5s-.673 1.5-1.5 1.5-1.5-.673-1.5-1.5.673-1.5 1.5-1.5zm-1.919 12.874 4.121 1.82c.181.08.298.259.298.457v3.349c0 .276.224.5.5.5s.5-.224.5-.5v-3.349c0-.593-.351-1.132-.894-1.372l-2.106-.93v-5.945l1.276.751c.384.226.822.346 1.269.346h2.955c.276 0 .5-.224.5-.5s-.224-.5-.5-.5h-2.955c-.268 0-.53-.072-.761-.208 0 0-2.051-1.236-2.134-1.262-.498-.305-.949-.53-1.567-.53h-.005c-1.146.002-2.079.966-2.079 2.148v2.852c0 1.035.413 2.333 1.581 2.874zm-.581-5.726c0-.622.495-1.147 1.081-1.148h.003c.318 0 .558.095.916.304v6.103l-1.007-.445c-.733-.34-.993-1.27-.993-1.963v-2.852zm12.207 3.852c.321 0 .625-.125.854-.354l2.646-2.646h4.793c.276 0 .5-.224.5-.5s-.224-.5-.5-.5h-4.793l-2.647-2.647c-.228-.228-.531-.353-.853-.353-.666 0-1.207.542-1.207 1.207v4.586c0 .666.541 1.207 1.207 1.207zm-.207-5.793c-.006-.18.231-.276.354-.146l2.439 2.439-2.438 2.439c-.122.12-.354.025-.354-.146v-4.586zm8.879 16.201c.181.209.156.525-.053.705-.666.572-1.524.887-2.417.887-1.239 0-2.434-.594-3.137-1.494-.703.9-1.896 1.494-3.136 1.494s-2.434-.594-3.137-1.494c-.703.9-1.897 1.494-3.137 1.494s-2.433-.594-3.136-1.494c-.703.9-1.897 1.494-3.137 1.494-.893 0-1.751-.315-2.417-.887-.209-.18-.233-.496-.053-.705s.495-.234.705-.054c.484.417 1.111.646 1.765.646 1.168 0 2.315-.719 2.668-1.673.145-.393.793-.393.938 0 .353.954 1.499 1.673 2.667 1.673s2.315-.719 2.668-1.673c.145-.393.793-.393.938 0 .353.954 1.5 1.673 2.668 1.673s2.314-.719 2.667-1.673c.145-.393.793-.393.938 0 .353.954 1.5 1.673 2.668 1.673.653 0 1.28-.229 1.765-.646.211-.18.526-.155.705.054z"/></svg>