<svg id="Layer_1" viewBox="0 0 24 24" xmlns="http://www.w3.org/2000/svg" data-name="Layer 1"><path d="m17.5 0c-3.584 0-6.5 2.916-6.5 6.5s2.916 6.5 6.5 6.5 6.5-2.916 6.5-6.5-2.916-6.5-6.5-6.5zm0 12c-3.032 0-5.5-2.467-5.5-5.5s2.468-5.5 5.5-5.5 5.5 2.467 5.5 5.5-2.468 5.5-5.5 5.5zm-.5-4.5v-5c0-.276.224-.5.5-.5s.5.224.5.5v5c0 .276-.224.5-.5.5s-.5-.224-.5-.5zm1.5 2.5c0 .552-.448 1-1 1s-1-.448-1-1 .448-1 1-1 1 .448 1 1zm-12-6c.276 0 .5.224.5.5v1c0 .276-.224.5-.5.5s-.5-.224-.5-.5v-1c0-.276.224-.5.5-.5zm11.484 11.529c-.275 4.75-4.222 8.471-8.984 8.471-4.962 0-9-4.038-9-9v-3.5c0-1.391.822-2.585 2-3.149v-5.851c0-1.378 1.122-2.5 2.5-2.5h7c.276 0 .5.224.5.5s-.224.5-.5.5h-7c-.827 0-1.5.673-1.5 1.5v5.551c.165-.024.329-.051.5-.051h5c.276 0 .5.224.5.5s-.224.5-.5.5h-5c-1.378 0-2.5 1.122-2.5 2.5v3.5c0 4.411 3.589 8 8 8 4.233 0 7.741-3.307 7.986-7.529.016-.276.249-.48.528-.47.275.016.486.252.47.528z"/></svg>