<svg id="Layer_1" viewBox="0 0 24 24" xmlns="http://www.w3.org/2000/svg" data-name="Layer 1"><path d="m15 3c-1.103 0-2 .897-2 2s.897 2 2 2 2-.897 2-2-.897-2-2-2zm0 3c-.551 0-1-.448-1-1s.449-1 1-1 1 .448 1 1-.449 1-1 1zm6.157.611c-.919-.47-1.423-1.374-1.94-2.183-1.656-2.571-2.853-4.429-7.217-4.429s-5.561 1.858-7.217 4.43c-.522.813-1.011 1.704-1.945 2.186-.517.311-.838.878-.838 1.48-.031 1.093 1.108 1.977 2.158 1.67.656-.171 1.225-.299 1.764-.402.101 1.67.883 3.157 2.078 4.184v2.453h-3c-1.103 0-2 .897-2 2v2.5c0 1.93 1.57 3.5 3.5 3.5h11c1.93 0 3.5-1.57 3.5-3.5v-2.5c0-1.103-.897-2-2-2h-3v-2.632c1.054-.989 1.753-2.347 1.879-3.871.722.109 1.572.387 2.399.47.899.028 1.745-.806 1.721-1.69.051-.694-.271-1.332-.841-1.665zm-14.657 16.389c-1.378 0-2.5-1.121-2.5-2.5v-1.5h2.5c.276 0 .5-.224.5-.5s-.224-.5-.5-.5h-2.5c0-.552.449-1 1-1h3.123l1.714 6zm4.377 0-1.607-5.625c.755.292 1.81.625 2.73.625s1.974-.333 2.73-.625l-1.607 5.625zm-1.877-6.818v-1.935c.75.417 1.598.672 2.5.733v1.981c-.952-.128-2.01-.56-2.5-.779zm3.5.779v-1.991c.909-.09 1.755-.389 2.5-.84v2.052c-.49.22-1.547.652-2.5.779zm6.5.039c.551 0 1 .448 1 1h-2.5c-.276 0-.5.224-.5.5s.224.5.5.5h2.5v1.5c0 1.379-1.122 2.5-2.5 2.5h-3.337l1.714-6zm-7.096-3c-2.69 0-4.874-2.139-4.98-4.803 1.444-.195 2.811-.197 5.076-.197 2.061 0 3.464.103 4.871.323-.17 2.604-2.321 4.677-4.967 4.677zm8.823-5.192c-.173.138-.396.189-.61.142-2.86-.646-4.593-.949-8.117-.949-3.666 0-5.037 0-8.093.797-.218.06-.446.01-.624-.128-.18-.14-.283-.349-.283-.574 0-.254.135-.492.34-.615 1.064-.551 1.692-1.557 2.284-2.509 1.595-2.477 2.557-3.971 6.376-3.971s4.781 1.494 6.376 3.971c.592.952 1.22 1.956 2.28 2.506.236.14.368.418.344.763 0 .222-.1.429-.273.568z"/></svg>