<?xml version="1.0" encoding="UTF-8"?>
<svg xmlns="http://www.w3.org/2000/svg" id="Layer_1" data-name="Layer 1" viewBox="0 0 24 24">
  <path d="M22.262,3.399c-1.071-.55-2.344-.456-3.322,.241l-3.942,2.816v-.225c0-1.221-.646-2.289-1.727-2.856-1.08-.568-2.327-.494-3.333,.199L1.271,9.549c-.795,.568-1.271,1.485-1.271,2.451s.47,1.879,1.265,2.446l8.71,5.993c.997,.685,2.233,.759,3.308,.195,1.073-.563,1.714-1.625,1.714-2.837v-.312l4.14,2.958c.534,.381,1.158,.574,1.785,.574,.48,0,.963-.113,1.408-.343,1.028-.529,1.667-1.576,1.667-2.732V6.244c0-1.204-.664-2.294-1.734-2.845Zm.734,14.544c0,.792-.42,1.481-1.124,1.844-.704,.36-1.51,.305-2.154-.157l-4.931-3.522c-.087-.062-.188-.093-.291-.093-.078,0-.156,.019-.229,.056-.167,.085-.271,.257-.271,.444v1.283c0,.834-.44,1.563-1.179,1.952-.739,.387-1.589,.337-2.276-.135L1.839,13.627c-.525-.375-.839-.983-.839-1.627s.318-1.256,.846-1.632L10.506,4.399c.694-.48,1.555-.53,2.3-.139,.746,.393,1.191,1.129,1.191,1.972v1.196c0,.188,.104,.358,.271,.444,.167,.085,.366,.07,.52-.037l4.733-3.381c.684-.489,1.536-.55,2.283-.166,.746,.384,1.192,1.115,1.192,1.955v11.699Z"/>
</svg>
