<svg id="Layer_1" viewBox="0 0 24 24" xmlns="http://www.w3.org/2000/svg" data-name="Layer 1"><path d="m7.001 8.5c0 .276-.224.5-.5.5h-1c-.276 0-.5-.224-.5-.5s.224-.5.5-.5h1c.276 0 .5.224.5.5zm-.5 2.5h-1c-.276 0-.5.224-.5.5s.224.5.5.5h1c.276 0 .5-.224.5-.5s-.224-.5-.5-.5zm0 3h-1c-.276 0-.5.224-.5.5s.224.5.5.5h1c.276 0 .5-.224.5-.5s-.224-.5-.5-.5zm4 0c-.276 0-.5.224-.5.5s.224.5.5.5h1c.276 0 .5-.224.5-.5s-.224-.5-.5-.5zm-1.5 9.5c0 .276-.224.5-.5.5h-4c-2.482 0-4.501-2.019-4.501-4.5v-15c0-2.481 2.019-4.5 4.501-4.5h5.515c1.736 0 3.369.677 4.597 1.904l3.484 3.484c1.089 1.089 1.758 2.535 1.883 4.07.022.275-.183.517-.457.539-.286.021-.517-.183-.539-.457-.015-.184-.06-.361-.093-.541h-5.39c-1.379 0-2.5-1.121-2.5-2.5v-5.403c-.323-.058-.651-.096-.985-.096h-5.515c-1.93 0-3.5 1.57-3.5 3.5v15c0 1.93 1.57 3.5 3.5 3.5h4c.276 0 .5.224.5.5zm4.904-20.889c-.55-.55-1.2-.959-1.904-1.232v5.121c0 .827.673 1.5 1.5 1.5h5.108c-.275-.706-.676-1.361-1.219-1.904l-3.484-3.484zm9.363 12.656-7.707 7.707c-.661.661-1.54 1.025-2.475 1.025h-1.586c-.276 0-.5-.224-.5-.5v-1.586c0-.935.364-1.813 1.025-2.475l7.707-7.707c.975-.975 2.561-.975 3.535 0s.975 2.561 0 3.535zm-.707-2.828c-.584-.584-1.537-.584-2.121 0l-7.707 7.707c-.473.473-.732 1.101-.732 1.768v1.086h1.086c.667 0 1.295-.26 1.768-.732l7.707-7.707c.585-.585.585-1.536 0-2.121zm-9.561 2.061v-1.5c0-.552-.448-1-1-1h-3v5h2c.276 0 .5.224.5.5s-.224.5-.5.5h-5.999c-1.103 0-2-.897-2-2v-9c0-1.103.897-2 2-2h2c1.103 0 2 .897 2 2v4h3c1.103 0 2 .897 2 2v1.5c0 .276-.224.5-.5.5s-.5-.224-.5-.5zm-5-7.5c0-.552-.448-1-1-1h-2c-.552 0-1 .448-1 1v9c0 .552.448 1 1 1h3z"/></svg>