<?xml version="1.0" encoding="UTF-8"?>
<svg xmlns="http://www.w3.org/2000/svg" id="Layer_1" data-name="Layer 1" viewBox="0 0 24 24">
  <path d="M12,15c3.278,0,5.947-2.643,5.995-5.91,.406-.945,1.005-2.523,1.005-4.798,0-2.817-3.521-4.292-7-4.292S5,1.475,5,4.292c0,2.275,.599,3.852,1.004,4.797,.048,3.267,2.717,5.911,5.996,5.911Zm0-1c-2.589,0-4.699-1.985-4.95-4.509,1.87-.941,3.459-1.791,4.953-2.764,1.458,.949,3.034,1.8,4.948,2.764-.251,2.524-2.362,4.51-4.95,4.51Zm0-13c2.908,0,6,1.153,6,3.292,0,1.908-.467,3.298-.833,4.189-3.935-1.992-6.291-3.444-9.484-6.521,1.159-.632,2.764-.961,4.317-.961Zm-5.154,1.544c1.513,1.467,2.856,2.59,4.255,3.573-1.293,.817-2.673,1.558-4.268,2.364-.367-.891-.833-2.279-.833-4.189,0-.686,.318-1.271,.846-1.748Zm14.154,20.956c0,.276-.224,.5-.5,.5s-.5-.224-.5-.5c0-2.487-1.129-4.791-3.097-6.319-.273-.21-.627-.238-.903-.098v6.417c0,.276-.224,.5-.5,.5s-.5-.224-.5-.5v-5.515c-.858,.653-1.908,1.015-3,1.015s-2.142-.362-3-1.015v5.515c0,.276-.224,.5-.5,.5s-.5-.224-.5-.5v-6.417c-.276-.141-.63-.114-.904,.099-1.968,1.528-3.096,3.831-3.096,6.318,0,.276-.224,.5-.5,.5s-.5-.224-.5-.5c0-2.798,1.27-5.389,3.483-7.108,.78-.605,1.882-.51,2.507,.219,.759,.883,1.856,1.39,3.01,1.39s2.252-.507,3.011-1.391c.624-.727,1.724-.824,2.506-.219,2.214,1.72,3.483,4.311,3.483,7.109Z"/>
</svg>
