<?xml version="1.0" encoding="UTF-8"?>
<svg xmlns="http://www.w3.org/2000/svg" id="Layer_1" data-name="Layer 1" viewBox="0 0 24 24">
  <path d="m23.204,10.623l-.157.785c-.419,2.096-2.274,3.617-4.412,3.617H5.995c.249,1.711,1.733,3,3.462,3h10.018c.276,0,.5.224.5.5s-.224.5-.5.5h-10.018c-2.232,0-4.149-1.668-4.457-3.881L3.219,2.319c-.103-.738-.74-1.294-1.485-1.294H.475C.198,1.025-.025.802-.025.525S.198.025.475.025h1.259C2.975.025,4.039.953,4.209,2.182l.256,1.843h10.01c.276,0,.5.224.5.5s-.224.5-.5.5H4.604l1.25,9h12.781c1.662,0,3.105-1.183,3.432-2.813l.157-.785c.055-.271.32-.448.589-.392.271.054.446.318.392.588Zm-14.229,11.402c0,1.103-.897,2-2,2s-2-.897-2-2,.897-2,2-2,2,.897,2,2Zm-1,0c0-.551-.448-1-1-1s-1,.449-1,1,.448,1,1,1,1-.449,1-1Zm11,0c0,1.103-.897,2-2,2s-2-.897-2-2,.897-2,2-2,2,.897,2,2Zm-1,0c0-.551-.448-1-1-1s-1,.449-1,1,.448,1,1,1,1-.449,1-1Zm2.678-17.971l3.146-3.146c.195-.195.195-.512,0-.707s-.512-.195-.707,0l-3.146,3.146L16.799.201c-.195-.195-.512-.195-.707,0s-.195.512,0,.707l3.146,3.146-3.146,3.146c-.195.195-.195.512,0,.707.098.098.226.146.354.146s.256-.049.354-.146l3.146-3.146,3.146,3.146c.098.098.226.146.354.146s.256-.049.354-.146c.195-.195.195-.512,0-.707l-3.146-3.146Z"/>
</svg>
