<svg id="Layer_1" viewBox="0 0 24 24" xmlns="http://www.w3.org/2000/svg" data-name="Layer 1"><path d="m12.263 22.634c.12.25.015.549-.234.668-.431.207-.676.304-.96.429-.156.069-.531.268-.761.268s-.512-.196-.65-.266c-2.191-1.116-9.375-5.2-9.375-11.825l.002-5.357c0-1.948 1.242-3.667 3.091-4.281l6.774-2.245c.102-.033.213-.033.315 0l6.774 2.245c1.849.614 3.091 2.333 3.091 4.281v2.917c0 .277-.225.501-.502.501s-.501-.224-.501-.501v-2.917c0-1.514-.965-2.853-2.403-3.33l-6.616-2.193-6.616 2.193c-1.438.477-2.404 1.815-2.404 3.33l-.002 5.357c0 6.05 6.751 9.895 8.82 10.929l.224.113.232-.094c.272-.11.624-.26 1.032-.456.251-.12.549-.015.669.234zm8.067-4.647c0 1.105-.899 2.004-2.004 2.004s-2.004-.899-2.004-2.004.899-2.004 2.004-2.004 2.004.899 2.004 2.004zm-1.003 0c0-.553-.449-1.002-1.002-1.002s-1.002.449-1.002 1.002.449 1.002 1.002 1.002 1.002-.449 1.002-1.002zm4.341 1.907c.101.39.044.794-.16 1.14-.203.345-.528.592-.917.693-.39.103-.794.045-1.141-.16l-.223-.131c-.408.341-.883.608-1.399.788v.272c0 .829-.674 1.503-1.503 1.503s-1.503-.674-1.503-1.503v-.272c-.516-.18-.99-.447-1.399-.788l-.223.131c-.69.426-1.663.172-2.059-.534-.424-.687-.17-1.662.534-2.057l.234-.138c-.064-.299-.094-.576-.094-.851s.03-.552.095-.852l-.235-.138c-.705-.394-.958-1.37-.533-2.057.395-.706 1.368-.958 2.058-.533l.223.131c.408-.341.883-.608 1.399-.788v-.272c0-.829.674-1.503 1.503-1.503s1.503.674 1.503 1.503v.272c.516.18.99.447 1.399.788l.223-.131c.689-.425 1.663-.172 2.059.534.423.687.171 1.663-.535 2.057l-.234.137c.065.3.095.577.095.852s-.03.552-.094.851l.233.137c.346.205.593.53.694.919zm-1.759-3.433.557-.328c.236-.132.32-.456.179-.685-.131-.237-.457-.32-.686-.179l-.541.319c-.198.116-.449.085-.609-.077-.432-.433-.987-.745-1.607-.905-.221-.058-.376-.257-.376-.485v-.643c0-.276-.225-.501-.501-.501s-.501.225-.501.501v.643c0 .228-.155.428-.376.485-.62.161-1.175.473-1.607.905-.161.163-.411.195-.609.077l-.541-.319c-.228-.143-.555-.057-.685.178-.142.229-.058.554.177.685l.558.329c.197.115.29.349.227.569-.103.362-.151.666-.151.957s.048.595.151.957c.063.219-.031.453-.228.57l-.557.327c-.235.13-.319.457-.178.685.13.236.46.322.686.179l.541-.319c.195-.116.447-.085.609.077.432.433.987.745 1.607.905.221.058.376.257.376.485v.643c0 .276.225.501.501.501s.501-.225.501-.501v-.643c0-.228.155-.428.376-.485.62-.161 1.175-.473 1.607-.905.161-.161.413-.193.609-.077l.541.319c.227.14.555.058.685-.178.142-.23.058-.555-.178-.687l-.556-.326c-.197-.116-.291-.35-.228-.57.103-.362.151-.666.151-.957s-.048-.595-.151-.957c-.063-.219.03-.453.227-.569zm-12.603-3.485c0 .553.449 1.002 1.002 1.002s1.002-.449 1.002-1.002-.449-1.002-1.002-1.002-1.002.449-1.002 1.002zm3.006-3.007h-4.009c-1.105 0-2.004.899-2.004 2.004v2.004c0 1.105.899 2.004 2.004 2.004h2.505c.277 0 .501.224.501.501s-.224.501-.501.501h-2.505c-1.658 0-3.007-1.349-3.007-3.007v-2.004c0-1.305.84-2.407 2.004-2.822v-1.187c0-1.658 1.349-3.007 3.007-3.007s3.007 1.349 3.007 3.007v1.187c1.164.415 2.004 1.517 2.004 2.822 0 .277-.224.501-.501.501s-.501-.224-.501-.501c0-1.105-.899-2.004-2.004-2.004zm0-1.002v-1.002c0-1.105-.899-2.004-2.004-2.004s-2.004.899-2.004 2.004v1.002h4.009z"/></svg>