<svg id="Layer_1" viewBox="0 0 24 24" xmlns="http://www.w3.org/2000/svg" data-name="Layer 1"><path d="m24 11.5c0 .276-.224.5-.5.5h-5c-.276 0-.5-.224-.5-.5s.224-.5.5-.5h5c.276 0 .5.224.5.5zm-.5 7.5h-5c-.276 0-.5.224-.5.5s.224.5.5.5h5c.276 0 .5-.224.5-.5s-.224-.5-.5-.5zm-13-15h13c.276 0 .5-.224.5-.5s-.224-.5-.5-.5h-13c-.276 0-.5.224-.5.5s.224.5.5.5zm4.5 6.5v2c0 1.378-1.122 2.5-2.5 2.5h-2c-1.378 0-2.5-1.122-2.5-2.5v-.5h-4v5.5c0 1.378 1.122 2.5 2.5 2.5h1.5v-.5c0-1.378 1.122-2.5 2.5-2.5h2c1.378 0 2.5 1.122 2.5 2.5v2c0 1.378-1.122 2.5-2.5 2.5h-2c-1.378 0-2.5-1.122-2.5-2.5v-.5h-1.5c-1.93 0-3.5-1.57-3.5-3.5v-10.5h-.5c-1.378 0-2.5-1.122-2.5-2.5v-2c0-1.378 1.122-2.5 2.5-2.5h2c1.378 0 2.5 1.122 2.5 2.5v2c0 1.378-1.122 2.5-2.5 2.5h-.5v4h4v-.5c0-1.378 1.122-2.5 2.5-2.5h2c1.378 0 2.5 1.122 2.5 2.5zm-12.5-4.5h2c.827 0 1.5-.673 1.5-1.5v-2c0-.827-.673-1.5-1.5-1.5h-2c-.827 0-1.5.673-1.5 1.5v2c0 .827.673 1.5 1.5 1.5zm6.5 15.5c0 .827.673 1.5 1.5 1.5h2c.827 0 1.5-.673 1.5-1.5v-2c0-.827-.673-1.5-1.5-1.5h-2c-.827 0-1.5.673-1.5 1.5zm5-11c0-.827-.673-1.5-1.5-1.5h-2c-.827 0-1.5.673-1.5 1.5v2c0 .827.673 1.5 1.5 1.5h2c.827 0 1.5-.673 1.5-1.5z"/></svg>