<?xml version="1.0" encoding="UTF-8"?>
<svg xmlns="http://www.w3.org/2000/svg" id="Layer_1" data-name="Layer 1" viewBox="0 0 24 24">
  <path d="M5.421,8.668c.585,.583,1.536,.582,2.12-.002l.709-.709,3.103,3.096,1.652,3.008c.271,.494,.94,.589,1.339,.191l.909-.909c.398-.398,.303-1.068-.191-1.339l-2.978-1.635-3.127-3.12,.704-.704c.583-.559,.582-1.566-.002-2.124L6.118,.875c-1.171-1.167-3.072-1.164-4.239,.003-1.165,1.116-1.164,3.13,.002,4.245l3.54,3.544ZM2.586,1.586c.39-.39,.902-.585,1.415-.585s1.022,.194,1.411,.582l3.542,3.546c.196,.185,.196,.523,.002,.709l-2.121,2.121c-.194,.196-.511,.195-.706,.001l-3.54-3.544c-.379-.377-.588-.879-.588-1.414,0-.535,.208-1.038,.586-1.416ZM24,18c0,2.206-1.794,4-4,4-2.934,0-6.579-1.218-9.796-2.292-2.63-.878-5.115-1.708-6.704-1.708-1.378,0-2.5,1.122-2.5,2.5s1.122,2.5,2.5,2.5h1c.276,0,.5,.224,.5,.5s-.224,.5-.5,.5h-1c-1.93,0-3.5-1.57-3.5-3.5s1.57-3.5,3.5-3.5c1.751,0,4.311,.854,7.021,1.76,3.145,1.05,6.709,2.24,9.479,2.24,1.654,0,3-1.346,3-3s-1.346-3-3-3h-2.5c-.276,0-.5-.224-.5-.5s.224-.5,.5-.5h2.5c2.206,0,4,1.794,4,4Z"/>
</svg>
