<svg id="Layer_1" viewBox="0 0 24 24" xmlns="http://www.w3.org/2000/svg" data-name="Layer 1"><path d="m22.68 3.97-3.83-3.82c-.2-.2-.51-.2-.71 0s-.2.51 0 .71l1.85 1.85v3.79c0 .83.67 1.5 1.5 1.5h1.5v10.5c0 .83-.67 1.5-1.5 1.5s-1.5-.67-1.5-1.5v-1c0-1.38-1.12-2.5-2.5-2.5h-1.5v-10.5c0-2.48-2.02-4.5-4.5-4.5h-7c-2.47 0-4.49 2.02-4.49 4.5v15c0 2.48 2.02 4.5 4.5 4.5h7c2.48 0 4.5-2.02 4.5-4.5v-3.5h1.5c.83 0 1.5.67 1.5 1.5v1c0 1.38 1.12 2.5 2.5 2.5s2.5-1.12 2.5-2.5v-11.34c0-1.2-.47-2.33-1.32-3.18zm-18.18-2.97h7c1.93 0 3.5 1.57 3.5 3.5v4.5h-5.14c-.15-.15-.3-.3-.45-.44-.79-.75-2.04-.75-2.83 0-.15.14-.3.29-.45.44h-5.13v-4.5c0-1.93 1.57-3.5 3.5-3.5zm3.5 11.5c-.28 0-.5.22-.5.5v4.45c-1.69-.25-3-1.69-3-3.45s1.74-3.74 2.77-4.71c.21-.19.47-.29.73-.29s.52.1.73.29c1.03.98 2.77 2.89 2.77 4.71s-1.31 3.2-3 3.45v-4.45c0-.28-.22-.5-.5-.5zm7 7c0 1.93-1.57 3.5-3.5 3.5h-7c-1.93 0-3.5-1.57-3.5-3.5v-9.5h4.24c-.95 1.17-1.74 2.56-1.74 4 0 2.31 1.76 4.2 4 4.45v2.05c0 .28.22.5.5.5s.5-.22.5-.5v-2.05c2.24-.25 4-2.14 4-4.45 0-1.44-.79-2.83-1.74-4h4.24zm6-13v-2.79l.97.97c.62.62.97 1.44 1.01 2.32h-1.48c-.28 0-.5-.22-.5-.5z"/></svg>