<svg id="Layer_1" viewBox="0 0 24 24" xmlns="http://www.w3.org/2000/svg" data-name="Layer 1"><path d="m5 14c-2.757 0-5 2.243-5 5s2.243 5 5 5 5-2.243 5-5-2.243-5-5-5zm0 9c-2.206 0-4-1.794-4-4s1.794-4 4-4 4 1.794 4 4-1.794 4-4 4zm14-9c-.094 0-.182.023-.274.028l-2.223-3.975c-.169-.437.241-1.053.824-1.053h2.174c.276 0 .5-.224.5-.5s-.224-.5-.5-.5h-2.174c-.171 0-.335.029-.494.072l-3.391-1.758c-1.18-.654-2.694-.239-3.376.931l-1.7 2.995c-.372.611-.464 1.354-.253 2.037s.706 1.244 1.292 1.504l1.638 1.058c.287.186.458.499.458.84v3.821c0 .276.224.5.5.5s.5-.224.5-.5v-3.821c0-.682-.342-1.31-.916-1.68l-1.703-1.093c-.391-.178-.687-.514-.813-.924-.127-.41-.071-.855.16-1.235l1.705-3.003c.409-.699 1.317-.947 2.037-.548l2.912 1.51c-.408.489-.524 1.192-.28 1.783l2.076 3.711c-2.112.585-3.676 2.504-3.676 4.8 0 2.757 2.243 5 5 5s5-2.243 5-5-2.243-5-5-5zm0 9c-2.206 0-4-1.794-4-4s1.794-4 4-4 4 1.794 4 4-1.794 4-4 4zm-5.5-18c1.378 0 2.5-1.121 2.5-2.5s-1.122-2.5-2.5-2.5-2.5 1.121-2.5 2.5 1.122 2.5 2.5 2.5zm0-4c.827 0 1.5.673 1.5 1.5s-.673 1.5-1.5 1.5-1.5-.673-1.5-1.5.673-1.5 1.5-1.5z"/></svg>