<?xml version="1.0" encoding="UTF-8"?>
<svg xmlns="http://www.w3.org/2000/svg" id="Layer_1" data-name="Layer 1" viewBox="0 0 24 24">
  <path d="M24,18.5v2c0,1.93-1.57,3.5-3.5,3.5H3.5c-1.93,0-3.5-1.57-3.5-3.5v-2c0-1.93,1.57-3.5,3.5-3.5h2c.276,0,.5,.224,.5,.5s-.224,.5-.5,.5H3.5c-1.379,0-2.5,1.121-2.5,2.5v2c0,1.379,1.121,2.5,2.5,2.5H20.5c1.379,0,2.5-1.121,2.5-2.5v-2c0-1.379-1.121-2.5-2.5-2.5h-2c-.276,0-.5-.224-.5-.5s.224-.5,.5-.5h2c1.93,0,3.5,1.57,3.5,3.5Zm0-15v1c0,1.93-1.57,3.5-3.5,3.5h-1.5v1.5c0,1.378-1.121,2.5-2.5,2.5h-4l.002,5.154,2.647-2.648c.195-.195,.512-.195,.707,0s.195,.512,0,.707l-2.888,2.889c-.508,.53-1.423,.53-1.931,0l-2.889-2.889c-.195-.195-.195-.512,0-.707s.512-.195,.707,0l2.646,2.646-.002-5.152H7.5c-1.379,0-2.5-1.122-2.5-2.5v-1.5h-1.5c-1.93,0-3.5-1.57-3.5-3.5v-1C0,1.57,1.57,0,3.5,0H7.5c1.93,0,3.5,1.57,3.5,3.5v1c0,1.93-1.57,3.5-3.5,3.5h-1.5v1.5c0,.827,.673,1.5,1.5,1.5h9c.827,0,1.5-.673,1.5-1.5v-1.5h-1.5c-1.93,0-3.5-1.57-3.5-3.5v-1c0-1.93,1.57-3.5,3.5-3.5h4c1.93,0,3.5,1.57,3.5,3.5ZM3.5,7H7.5c1.379,0,2.5-1.122,2.5-2.5v-1c0-1.378-1.121-2.5-2.5-2.5H3.5c-1.379,0-2.5,1.122-2.5,2.5v1c0,1.378,1.121,2.5,2.5,2.5ZM23,3.5c0-1.378-1.121-2.5-2.5-2.5h-4c-1.379,0-2.5,1.122-2.5,2.5v1c0,1.378,1.121,2.5,2.5,2.5h4c1.379,0,2.5-1.122,2.5-2.5v-1Z"/>
</svg>
