<?xml version="1.0" encoding="UTF-8"?>
<svg xmlns="http://www.w3.org/2000/svg" id="Layer_1" data-name="Layer 1" viewBox="0 0 24 24">
  <path d="M24,4.5v4c0,2.481-2.019,4.5-4.5,4.5h-5c-.276,0-.5-.224-.5-.5s.224-.5,.5-.5h5c1.93,0,3.5-1.57,3.5-3.5V4.5c0-1.93-1.57-3.5-3.5-3.5H4.5c-1.93,0-3.5,1.57-3.5,3.5v4c0,1.93,1.57,3.5,3.5,3.5,.276,0,.5,.224,.5,.5s-.224,.5-.5,.5c-2.481,0-4.5-2.019-4.5-4.5V4.5C0,2.019,2.019,0,4.5,0h15c2.481,0,4.5,2.019,4.5,4.5Zm-5.5-.654c.476,0,1.002,.379,1.165,.525,.206,.185,.521,.167,.705-.036,.185-.205,.17-.52-.034-.705-.088-.08-.89-.784-1.836-.784-1.006,0-2.075,.672-2.075,1.917,0,1.197,1.112,1.713,2.007,2.128,.901,.418,1.448,.712,1.448,1.253,0,.792-.776,1.003-1.234,1.003-.776,0-1.286-.494-1.288-.496-.193-.198-.51-.2-.707-.008-.197,.193-.201,.511-.008,.707,.032,.033,.795,.797,2.003,.797,1.11,0,2.234-.688,2.234-2.003,0-1.219-1.124-1.74-2.027-2.16-.889-.412-1.428-.7-1.428-1.221,0-.726,.703-.917,1.075-.917Zm-7.5,4.654V4c0-.552,.448-1,1-1h1.25c1.24,0,2.25,1.01,2.25,2.25s-1.01,2.25-2.25,2.25h-1.25v1c0,.276-.224,.5-.5,.5s-.5-.224-.5-.5Zm1-2h1.25c.689,0,1.25-.561,1.25-1.25s-.561-1.25-1.25-1.25h-1.25v2.5Zm-2,1V3.5c0-.276-.224-.5-.5-.5s-.5,.224-.5,.5V7.5c0,.276,.224,.5,.5,.5s.5-.224,.5-.5Zm-4.5,2.5c.276,0,.5-.224,.5-.5V4h1.5c.276,0,.5-.224,.5-.5s-.224-.5-.5-.5H3.5c-.276,0-.5,.224-.5,.5s.224,.5,.5,.5h1.5v5.5c0,.276,.224,.5,.5,.5Zm11.256,8.938l-4.756-1.784v-4.546c0-1.273-.896-2.38-2.084-2.573-.73-.117-1.476,.085-2.035,.561-.56,.477-.881,1.171-.881,1.905v7.424l-.138,.066-1.688-1.343s-.006-.003-.009-.005c-1.008-.905-2.562-.845-3.49,.149-.941,1.007-.894,2.588,.106,3.524l1.64,1.548c.092,.087,.214,.135,.341,.135,.448,0,.667-.547,.342-.856l-1.633-1.551c-.599-.562-.629-1.514-.064-2.118,.561-.602,1.509-.635,2.115-.073,.004,.003,.009,.004,.012,.007,.007,.007,.011,.016,.018,.022l1.688,1.342c.668,.573,1.793,.033,1.761-.849v-7.424c0-.44,.192-.857,.529-1.144,.341-.29,.774-.407,1.227-.336,.709,.116,1.244,.798,1.244,1.587v4.893c0,.208,.129,.395,.324,.468l5.08,1.905c1.602,.601,2.596,1.99,2.596,3.627,0,.276,.224,.5,.5,.5s.5-.224,.5-.5c0-2.064-1.243-3.812-3.244-4.562Z"/>
</svg>
