<?xml version="1.0" encoding="UTF-8"?>
<svg xmlns="http://www.w3.org/2000/svg" id="Layer_1" data-name="Layer 1" viewBox="0 0 24 24">
  <path d="m17,9.543v-2.043c0-1.208-.86-2.217-2-2.449V1h4.5c.276,0,.5-.224.5-.5s-.224-.5-.5-.5h-7c-1.93,0-3.5,1.57-3.5,3.5v1.551c-1.14.232-2,1.242-2,2.449v2.043c-2.46,1.428-4,4.048-4,6.957v3c0,2.481,2.019,4.5,4.5,4.5h9c2.481,0,4.5-2.019,4.5-4.5v-3c0-2.91-1.54-5.529-4-6.957Zm-7-6.043c0-1.379,1.121-2.5,2.5-2.5h1.5v4h-4v-1.5Zm-2,4c0-.827.673-1.5,1.5-1.5h5c.827,0,1.5.673,1.5,1.5v1.5h-8v-1.5Zm12,12c0,1.93-1.57,3.5-3.5,3.5H7.5c-1.93,0-3.5-1.57-3.5-3.5v-3c0-2.859,1.696-5.397,4.324-6.5h7.352c2.628,1.103,4.324,3.641,4.324,6.5v3Zm-4.5-4.5h-7c-.827,0-1.5.673-1.5,1.5v2c0,.827.673,1.5,1.5,1.5h7c.827,0,1.5-.673,1.5-1.5v-2c0-.827-.673-1.5-1.5-1.5Zm.5,3.5c0,.275-.225.5-.5.5h-7c-.275,0-.5-.225-.5-.5v-2c0-.275.225-.5.5-.5h7c.275,0,.5.225.5.5v2Z"/>
</svg>
