<svg id="Layer_1" viewBox="0 0 24 24" xmlns="http://www.w3.org/2000/svg" data-name="Layer 1"><path d="m21.5 15h-5c-1.378 0-2.5 1.121-2.5 2.5v3c0 1.93 1.57 3.5 3.5 3.5h3c1.93 0 3.5-1.57 3.5-3.5v-3c0-1.379-1.122-2.5-2.5-2.5zm1.5 5.5c0 1.379-1.122 2.5-2.5 2.5h-3c-1.378 0-2.5-1.121-2.5-2.5v-3c0-.827.673-1.5 1.5-1.5h5c.827 0 1.5.673 1.5 1.5zm-8.991-7.5c0-3.992-2.562-6.809-3.407-7.631l1.317-2.934c.174-.579.068-1.188-.292-1.673s-.913-.762-1.517-.762h-6.217c-.603 0-1.155.27-1.516.753s-.469 1.092-.275 1.731l1.288 2.894c-.854.832-3.389 3.644-3.389 7.622v6.5c.002 2.48 2.015 4.497 4.493 4.497h.004l5.01-.004c1.091 0 2.144-.397 2.963-1.117.208-.183.228-.498.045-.706-.181-.207-.498-.228-.706-.046-.637.56-1.455.875-2.304.876h-5.013c-1.927 0-3.495-1.571-3.497-3.5l-.006-6.5c0-3.723 2.579-6.412 3.195-7h5.628c.616.588 3.195 3.276 3.195 6.991l-.009.5c-.005.276.215.505.491.51.28-.004.504-.215.509-.49l.009-.51zm-10.831-11.649c.17-.228.431-.358.715-.358l6.215.005c.285 0 .545.132.715.36.169.229.22.516.16.728l-1.312 2.914h-5.356l-1.278-2.862c-.081-.272-.03-.56.14-.787z"/></svg>