<svg id="Layer_1" viewBox="0 0 24 24" xmlns="http://www.w3.org/2000/svg" data-name="Layer 1"><path d="m5.5 13h-3.5c-1.103 0-2-.897-2-2v-3.5c0-.276.224-.5.5-.5s.5.224.5.5v3.5c0 .086.029.164.049.244l10.195-10.195c-.08-.021-.157-.049-.244-.049h-3.5c-.276 0-.5-.224-.5-.5s.224-.5.5-.5h3.5c1.103 0 2 .897 2 2v3.5c0 .276-.224.5-.5.5s-.5-.224-.5-.5v-3.5c0-.086-.029-.164-.049-.244l-10.195 10.195c.08.021.157.049.244.049h3.5c.276 0 .5.224.5.5s-.224.5-.5.5zm15.264 4.94-5.762-2.28v-5.053c0-1.273-.896-2.379-2.084-2.573-.73-.115-1.476.085-2.035.562-.56.476-.881 1.17-.881 1.905v9.424l-.138.067-1.688-1.344s-.007-.003-.01-.005c-1.008-.904-2.562-.845-3.49.149-.941 1.007-.894 2.588.106 3.524l1.64 1.548c.092.087.214.135.341.135.448 0 .667-.547.342-.856l-1.633-1.551c-.599-.562-.629-1.514-.064-2.118.561-.602 1.509-.635 2.115-.073.004.004.01.004.014.008.007.006.01.014.017.02l1.688 1.344c.329.261.768.311 1.147.128s.614-.557.614-.978v-9.423c0-.441.193-.857.529-1.143.341-.29.777-.409 1.227-.336.709.115 1.245.797 1.245 1.586v5.393c0 .205.125.39.316.465l6.086 2.408c1.602.601 2.596 1.99 2.596 3.627v1c0 .276.224.5.5.5s.5-.224.5-.5v-1c0-2.064-1.243-3.812-3.236-4.56z"/></svg>