<svg id="Layer_1" viewBox="0 0 24 24" xmlns="http://www.w3.org/2000/svg" data-name="Layer 1"><path d="m9.5 14.5v-2c0-.827-.673-1.5-1.5-1.5s-1.5.673-1.5 1.5v2c0 .827.673 1.5 1.5 1.5s1.5-.673 1.5-1.5zm-2 0v-2c0-.276.224-.5.5-.5s.5.224.5.5v2c0 .275-.224.5-.5.5s-.5-.225-.5-.5zm4.5 2.5c-.827 0-1.5.673-1.5 1.5v2c0 .827.673 1.5 1.5 1.5s1.5-.673 1.5-1.5v-2c0-.827-.673-1.5-1.5-1.5zm.5 3.5c0 .275-.224.5-.5.5s-.5-.225-.5-.5v-2c0-.275.224-.5.5-.5s.5.225.5.5zm-8.5-9.5h-1c-.276 0-.5.224-.5.5v4c0 .276.224.5.5.5h1c.827 0 1.5-.673 1.5-1.5v-2c0-.827-.673-1.5-1.5-1.5zm.5 3.5c0 .275-.224.5-.5.5h-.5v-3h.5c.276 0 .5.224.5.5zm5.25 7c0 .276-.224.5-.5.5h-1.25c-.276 0-.5-.224-.5-.5v-4c0-.276.224-.5.5-.5s.5.224.5.5v3.5h.75c.276 0 .5.224.5.5zm10.25-4.5h-1c-.276 0-.5.224-.5.5v4c0 .276.224.5.5.5h1c.827 0 1.5-.673 1.5-1.5v-2c0-.827-.673-1.5-1.5-1.5zm.5 3.5c0 .275-.224.5-.5.5h-.5v-3h.5c.276 0 .5.225.5.5zm-4.5-3.5c-.827 0-1.5.673-1.5 1.5v3c0 .276.224.5.5.5s.5-.224.5-.5v-1h1v1c0 .276.224.5.5.5s.5-.224.5-.5v-3c0-.827-.673-1.5-1.5-1.5zm-.5 2.5v-1c0-.275.224-.5.5-.5s.5.225.5.5v1zm8.5-13c0-3.584-2.916-6.5-6.5-6.5s-6.5 2.916-6.5 6.5c0 .886.179 1.73.502 2.5h-7.002c-2.481 0-4.5 2.019-4.5 4.5v6c0 2.481 2.019 4.5 4.5 4.5h15c2.481 0 4.5-2.019 4.5-4.5v-6c0-1.188-.464-2.287-1.289-3.132.806-1.082 1.289-2.418 1.289-3.868zm-6.5-5.5c3.033 0 5.5 2.467 5.5 5.5s-2.467 5.5-5.5 5.5c-3.053.003-5.508-2.522-5.5-5.5 0-3.033 2.467-5.5 5.5-5.5zm-4 10.613c.312.245.646.463 1 .648v2.24c0 .275-.224.5-.5.5s-.5-.225-.5-.5v-2.887zm9.5 7.887c0 1.93-1.57 3.5-3.5 3.5h-15c-1.93 0-3.5-1.57-3.5-3.5v-6c0-1.93 1.57-3.5 3.5-3.5h7.532c.238.371.511.716.817 1.031-.201.065-.348.247-.348.469v3c0 .275-.224.5-.5.5s-.5-.225-.5-.5v-3c0-.276-.224-.5-.5-.5s-.5.224-.5.5v3c0 .827.673 1.5 1.5 1.5.386 0 .734-.15 1-.39.266.24.614.39 1 .39.827 0 1.5-.673 1.5-1.5v-1.818c.323.105.658.18 1 .233v2.585c0 .276.224.5.5.5s.5-.224.5-.5v-2.5c.341 0 .673-.034 1-.085v2.585c0 .276.224.5.5.5s.5-.224.5-.5v-2.818c.971-.315 1.843-.852 2.554-1.552.603.648.946 1.476.946 2.37v6zm-8-16c0-.276.224-.5.5-.5h4c.276 0 .5.224.5.5s-.224.5-.5.5h-4c-.276 0-.5-.224-.5-.5zm.144 5.101c-.194-.197-.191-.514.006-.707.197-.194.513-.191.707.006l1.144 1.163v-3.563c0-.276.224-.5.5-.5s.5.224.5.5v3.563l1.144-1.163c.193-.197.509-.2.707-.006.197.193.2.51.006.707l-1.529 1.555c-.223.223-.516.344-.828.344s-.604-.121-.825-.341z"/></svg>