<svg id="Layer_1" viewBox="0 0 24 24" xmlns="http://www.w3.org/2000/svg" data-name="Layer 1"><path d="m5.964 19.105c-.104.259-.402.378-.651.276-3.228-1.307-5.312-4.4-5.312-7.882v-7c-.001-2.48 2.018-4.499 4.499-4.499h8c2.481 0 4.5 2.019 4.5 4.5v6c0 .276-.224.5-.5.5s-.5-.224-.5-.5v-6c0-1.93-1.57-3.5-3.5-3.5h-8c-1.93 0-3.5 1.57-3.5 3.5v7c0 3.072 1.84 5.802 4.687 6.954.256.104.38.396.276.651zm5.536-15.105c.827 0 1.5.673 1.5 1.5v3c0 .827-.673 1.5-1.5 1.5h-6c-.827 0-1.5-.673-1.5-1.5v-3c0-.827.673-1.5 1.5-1.5zm0 1h-6c-.275 0-.5.225-.5.5v3c0 .275.225.5.5.5h6c.275 0 .5-.225.5-.5v-3c0-.275-.225-.5-.5-.5zm12.5 7.5c0 .276-.224.5-.5.5h-3.758c-.658 0-1.302.267-1.768.732l-2.411 2.411c.284.421.437.917.437 1.435 0 .688-.269 1.337-.756 1.823l-3.841 3.842c-.487.487-1.135.756-1.824.756-.754 0-1.469-.329-1.962-.904-.869-1.015-.769-2.591.229-3.588l3.752-3.752c.854-.854 2.265-.959 3.255-.316l2.415-2.415c.651-.651 1.554-1.025 2.475-1.025h3.758c.276 0 .5.224.5.5zm-9 5.079c0-.422-.164-.818-.463-1.116-.587-.613-1.646-.613-2.232 0l-3.752 3.752c-.63.63-.707 1.609-.176 2.23.578.676 1.694.719 2.319.092l3.841-3.842c.299-.298.463-.694.463-1.116z"/></svg>