<?xml version="1.0" encoding="UTF-8"?>
<svg xmlns="http://www.w3.org/2000/svg" id="Layer_1" data-name="Layer 1" viewBox="0 0 24 24">
  <path d="M19.5,0H4.5C2.019,0,0,2.019,0,4.5v15c0,2.481,2.019,4.5,4.5,4.5H14.015c1.735,0,3.368-.676,4.597-1.904l3.484-3.485c1.228-1.227,1.904-2.859,1.904-4.596V4.5c0-2.481-2.019-4.5-4.5-4.5ZM4.5,23c-1.93,0-3.5-1.57-3.5-3.5V4.5c0-1.93,1.57-3.5,3.5-3.5h15c1.93,0,3.5,1.57,3.5,3.5V14.015c0,.335-.038,.663-.096,.985h-5.404c-1.379,0-2.5,1.122-2.5,2.5v5.404c-.323,.058-.651,.096-.985,.096H4.5Zm16.889-5.096l-3.484,3.485c-.551,.55-1.2,.959-1.904,1.231v-5.12c0-.827,.673-1.5,1.5-1.5h5.121c-.273,.704-.682,1.354-1.232,1.904ZM14.5,4.5c0-.276,.224-.5,.5-.5h3c.276,0,.5,.224,.5,.5s-.224,.5-.5,.5h-1v5.5c0,.276-.224,.5-.5,.5s-.5-.224-.5-.5V5h-1c-.276,0-.5-.224-.5-.5Zm-3.5,.5v2h2c.276,0,.5,.224,.5,.5s-.224,.5-.5,.5h-2v2.5c0,.276-.224,.5-.5,.5s-.5-.224-.5-.5V5c0-.551,.449-1,1-1h2c.276,0,.5,.224,.5,.5s-.224,.5-.5,.5h-2Zm-2.5-.5v5.729c0,.367-.25,.675-.609,.75-.357,.076-.712-.107-.858-.443l-2.033-4.646v4.61c0,.276-.224,.5-.5,.5s-.5-.224-.5-.5V4.8c0-.369,.252-.68,.614-.755,.363-.077,.718,.108,.865,.446l2.021,4.62V4.5c0-.276,.224-.5,.5-.5s.5,.224,.5,.5Z"/>
</svg>
