<?xml version="1.0" encoding="UTF-8"?>
<svg xmlns="http://www.w3.org/2000/svg" id="Layer_1" data-name="Layer 1" viewBox="0 0 24 24">
  <path d="m14,6c1.654,0,3-1.346,3-3s-1.346-3-3-3-3,1.346-3,3,1.346,3,3,3Zm0-5c1.103,0,2,.897,2,2s-.897,2-2,2-2-.897-2-2,.897-2,2-2Zm9.5,15h-5.5V7.673L23.393.809c.171-.217.133-.532-.084-.702-.218-.171-.531-.133-.702.084l-5.35,6.809h-6.514L5.393.191c-.17-.217-.484-.255-.702-.084-.217.17-.255.485-.084.702l5.393,6.864v8.327h-6v-2.672c0-.395.16-.781.439-1.061l.551-.551c.297.176.64.283,1.01.283,1.103,0,2-.897,2-2s-.897-2-2-2-2,.897-2,2c0,.37.108.712.283,1.01l-.551.551c-.472.472-.732,1.1-.732,1.768v2.672H.5c-.276,0-.5.224-.5.5s.224.5.5.5h2.5v6.5c0,.276.224.5.5.5s.5-.224.5-.5v-6.5h16v6.667c0,.276.224.5.5.5s.5-.224.5-.5v-6.667h2.5c.276,0,.5-.224.5-.5s-.224-.5-.5-.5ZM6,9c.552,0,1,.448,1,1s-.448,1-1,1-1-.448-1-1,.448-1,1-1Zm11,7h-6v-8h6v8Z"/>
</svg>
