<?xml version="1.0" encoding="UTF-8"?>
<svg xmlns="http://www.w3.org/2000/svg" id="Layer_1" data-name="Layer 1" viewBox="0 0 24 24">
  <path d="M3.5,12c1.379,0,2.5-1.122,2.5-2.5s-1.121-2.5-2.5-2.5-2.5,1.122-2.5,2.5,1.121,2.5,2.5,2.5Zm0-4c.827,0,1.5,.673,1.5,1.5s-.673,1.5-1.5,1.5-1.5-.673-1.5-1.5,.673-1.5,1.5-1.5Zm12.5,13.5v2c0,.276-.224,.5-.5,.5s-.5-.224-.5-.5v-2c0-.276-.225-.5-.5-.5h-5c-.275,0-.5,.224-.5,.5v2c0,.276-.224,.5-.5,.5s-.5-.224-.5-.5v-2c0-.827,.673-1.5,1.5-1.5h5c.827,0,1.5,.673,1.5,1.5Zm-7.586-3.5h2.086c.276,0,.5-.224,.5-.5s-.224-.5-.5-.5h-2.086c-.132,0-.261-.053-.354-.146,0,0-2.929-2.97-3.048-3.078-.627-.568-1.478-.844-2.32-.76-1.459,.146-2.692,1.579-2.692,3.127v6.357c0,.827,.673,1.5,1.5,1.5h3c.827,0,1.5-.673,1.5-1.5v-6.293l1.354,1.354c.279,.279,.666,.439,1.061,.439Zm-3.414,4.5c0,.276-.225,.5-.5,.5H1.5c-.275,0-.5-.224-.5-.5v-6.357c.005-1.117,.945-2.165,2.001-2.143,1.072-.024,2.02,.928,1.999,2v6.5Zm15.5-10.5c1.379,0,2.5-1.122,2.5-2.5s-1.121-2.5-2.5-2.5-2.5,1.122-2.5,2.5,1.121,2.5,2.5,2.5Zm0-4c.827,0,1.5,.673,1.5,1.5s-.673,1.5-1.5,1.5-1.5-.673-1.5-1.5,.673-1.5,1.5-1.5Zm.808,5.015c-.844-.081-1.692,.192-2.32,.76-.119,.108-3.048,3.078-3.048,3.078-.093,.093-.222,.146-.354,.146h-2.086c-.276,0-.5,.224-.5,.5s.224,.5,.5,.5h2.086c.395,0,.781-.16,1.061-.439l1.354-1.354v6.293c0,.827,.673,1.5,1.5,1.5h3c.827,0,1.5-.673,1.5-1.5v-6.357c0-1.549-1.233-2.981-2.692-3.127Zm1.692,9.485c0,.276-.225,.5-.5,.5h-3c-.275,0-.5-.224-.5-.5v-6.5c-.021-1.072,.927-2.025,1.999-2,1.056-.022,1.996,1.026,2.001,2.143v6.357ZM11.5,2V.5c0-.276,.224-.5,.5-.5s.5,.224,.5,.5v1.5c0,.276-.224,.5-.5,.5s-.5-.224-.5-.5Zm3.889,1.611c-.195-.195-.195-.512,0-.707l1-1c.195-.195,.512-.195,.707,0s.195,.512,0,.707l-1,1c-.195,.195-.512,.195-.707,0ZM6.904,2.611c-.195-.195-.195-.512,0-.707s.512-.195,.707,0l1,1c.195,.195,.195,.512,0,.707s-.512,.195-.707,0l-1-1Zm2.675,8.561c.268,.204,.421,.498,.421,.808v.521c0,.827,.673,1.5,1.5,1.5h1c.827,0,1.5-.673,1.5-1.5v-.521c0-.31,.154-.606,.424-.811,1.002-.763,1.576-1.917,1.576-3.168,0-1.225-.55-2.366-1.51-3.13-.961-.765-2.209-1.042-3.432-.762-1.464,.336-2.623,1.502-2.954,2.971-.354,1.564,.212,3.133,1.475,4.093Zm2.921,1.829h-1c-.275,0-.5-.224-.5-.5v-.5h2v.5c0,.276-.225,.5-.5,.5Zm-3.421-5.702c.291-1.325,1.562-2.325,2.914-2.297,1.614-.036,3.042,1.382,3.007,2.999,0,.936-.431,1.801-1.182,2.373-.23,.175-.408,.391-.544,.627h-2.547c-.136-.235-.313-.451-.542-.625-.947-.72-1.37-1.899-1.105-3.077Z"/>
</svg>
