<?xml version="1.0" encoding="UTF-8"?>
<svg xmlns="http://www.w3.org/2000/svg" id="Layer_1" data-name="Layer 1" viewBox="0 0 24 24">
  <path d="M17.5,11c-3.584,0-6.5,2.916-6.5,6.5s2.916,6.5,6.5,6.5,6.5-2.916,6.5-6.5-2.916-6.5-6.5-6.5Zm0,12c-3.032,0-5.5-2.468-5.5-5.5s2.468-5.5,5.5-5.5,5.5,2.468,5.5,5.5-2.468,5.5-5.5,5.5Zm3.5-5.5c0,.276-.224,.5-.5,.5h-2.5v2.5c0,.276-.224,.5-.5,.5s-.5-.224-.5-.5v-2.5h-2.5c-.276,0-.5-.224-.5-.5s.224-.5,.5-.5h2.5v-2.5c0-.276,.224-.5,.5-.5s.5,.224,.5,.5v2.5h2.5c.276,0,.5,.224,.5,.5Zm-1.5-15.5h-7.028c-.231,0-.464-.055-.671-.158L8.646,.264c-.345-.172-.732-.264-1.118-.264h-3.028C2.019,0,0,2.019,0,4.5v13c0,2.481,2.019,4.5,4.5,4.5h5c.276,0,.5-.224,.5-.5s-.224-.5-.5-.5H4.5c-1.93,0-3.5-1.57-3.5-3.5V7H23v3.5c0,.276,.224,.5,.5,.5s.5-.224,.5-.5V6.5c0-2.481-2.019-4.5-4.5-4.5ZM1,4.5c0-1.93,1.57-3.5,3.5-3.5h3.028c.231,0,.464,.055,.671,.158l3.156,1.578c.345,.172,.732,.264,1.118,.264h7.028c1.758,0,3.204,1.308,3.449,3H1v-1.5Z"/>
</svg>
