<svg id="Layer_1" viewBox="0 0 24 24" xmlns="http://www.w3.org/2000/svg" data-name="Layer 1"><path d="m10.5 3h-2c-.827 0-1.5.673-1.5 1.5v6c0 .827.673 1.5 1.5 1.5h2c.276 0 .5-.224.5-.5v-8c0-.276-.224-.5-.5-.5zm-.5 8h-1.5c-.275 0-.5-.225-.5-.5v-6c0-.275.225-.5.5-.5h1.5zm5.5-8h-2c-.276 0-.5.224-.5.5v8c0 .276.224.5.5.5h2c.827 0 1.5-.673 1.5-1.5v-6c0-.827-.673-1.5-1.5-1.5zm.5 7.5c0 .275-.225.5-.5.5h-1.5v-7h1.5c.275 0 .5.225.5.5zm7.5 12.5h-3.5v-18.5c0-2.481-2.019-4.5-4.5-4.5h-7c-2.481 0-4.5 2.019-4.5 4.5v18.5h-3.5c-.276 0-.5.224-.5.5s.224.5.5.5h23c.276 0 .5-.224.5-.5s-.224-.5-.5-.5zm-18.5-18.5c0-1.93 1.57-3.5 3.5-3.5h7c1.93 0 3.5 1.57 3.5 3.5v18.5h-14zm12 10.5c0 .552-.448 1-1 1s-1-.448-1-1 .448-1 1-1 1 .448 1 1z"/></svg>