<svg id="Layer_1" viewBox="0 0 24 24" xmlns="http://www.w3.org/2000/svg" data-name="Layer 1"><path d="m23.5 20c-3.916 0-7.74-1.46-10.957-3.821 1.582-1.501 3.493-2.329 5.345-3.125 1.649-.707 3.206-1.375 4.295-2.464 2.418-2.419 2.418-6.354 0-8.773-2.419-2.419-6.354-2.418-8.773 0-1.089 1.089-1.757 2.646-2.465 4.295-.795 1.853-1.623 3.763-3.124 5.345-2.361-3.217-3.821-7.041-3.821-10.957 0-.276-.224-.5-.5-.5s-.5.224-.5.5c0 3.366 1.02 6.672 2.747 9.615-3.275.596-5.747 3.491-5.747 6.885 0 3.859 3.14 7 7 7 3.395 0 6.289-2.473 6.885-5.747 2.943 1.727 6.248 2.747 9.615 2.747.276 0 .5-.224.5-.5s-.224-.5-.5-.5zm-11.636-13.494c.668-1.558 1.3-3.029 2.253-3.982 2.029-2.028 5.33-2.028 7.359 0 2.028 2.029 2.028 5.331 0 7.359-.953.953-2.424 1.584-3.982 2.253-1.887.809-4.018 1.73-5.755 3.425-1.212-.98-2.321-2.088-3.301-3.301 1.696-1.737 2.616-3.869 3.425-5.755zm-4.864 16.494c-3.309 0-6-2.691-6-6 0-3.046 2.323-5.618 5.326-5.956 1.719 2.623 4.007 4.911 6.63 6.63-.338 3.002-2.91 5.326-5.956 5.326z"/></svg>