<svg id="Layer_1" viewBox="0 0 24 24" xmlns="http://www.w3.org/2000/svg" data-name="Layer 1"><path d="m4.5 16c.276 0 .5.224.5.5v3c0 .276-.224.5-.5.5s-.5-.224-.5-.5v-3c0-.276.224-.5.5-.5zm2.5-4.5v8c0 .276.224.5.5.5s.5-.224.5-.5v-8c0-.276-.224-.5-.5-.5s-.5.224-.5.5zm3 2v6c0 .276.224.5.5.5s.5-.224.5-.5v-6c0-.276-.224-.5-.5-.5s-.5.224-.5.5zm14 1.25v7.583c0 1.151-2.009 1.667-4 1.667s-4-.515-4-1.667v-7.583c0-1.25 2.084-1.723 4-1.75 1.917.027 4 .5 4 1.75zm-.998 3.733c-.771.347-1.883.517-3.002.517s-2.23-.169-3-.516v1.328c.117.205 1.143.688 3 .688 1.881 0 2.908-.496 3.003-.695v-1.322zm-.003-2.538c-.782.372-1.909.555-3.001.555s-2.218-.183-3-.554v1.366c.117.205 1.143.688 3 .688 1.876 0 2.902-.493 3.002-.694v-1.361zm-6-1.195c.088.215 1.103.75 2.998.75 1.922 0 2.938-.55 3.001-.759-.062-.191-1.079-.741-3.001-.741-1.896 0-2.91.535-2.998.75zm6.003 7.553v-1.321c-.771.348-1.884.518-3.005.518s-2.23-.169-3-.516v1.349c.086.167 1.114.667 3 .667s2.914-.499 3.005-.697zm-9.005 1.197c0 .276-.224.5-.5.5h-8.997c-2.481 0-4.5-2.019-4.5-4.5v-15c0-2.481 2.019-4.5 4.5-4.5h5.515c1.735 0 3.368.676 4.597 1.904l3.484 3.485c1.228 1.227 1.904 2.859 1.904 4.596v.515c0 .276-.224.5-.5.5s-.5-.224-.5-.5v-.515c0-.335-.038-.663-.096-.985h-5.404c-1.379 0-2.5-1.122-2.5-2.5v-5.404c-.323-.058-.651-.096-.985-.096h-5.515c-1.93 0-3.5 1.57-3.5 3.5v15c0 1.93 1.57 3.5 3.5 3.5h9c.276 0 .5.224.5.5zm-.096-20.889c-.551-.55-1.2-.959-1.904-1.231v5.12c0 .827.673 1.5 1.5 1.5h5.121c-.273-.704-.682-1.354-1.232-1.904l-3.484-3.485z"/></svg>