<svg id="Layer_1" viewBox="0 0 24 24" xmlns="http://www.w3.org/2000/svg" data-name="Layer 1"><path d="m19.5 1h-2.41c-.629 0-1.227.234-1.682.658-.929.865-2.139 1.342-3.408 1.342s-2.479-.477-3.408-1.342c-.455-.424-1.053-.658-1.682-.658h-2.41c-2.481 0-4.5 2.019-4.5 4.5v13c0 2.481 2.019 4.5 4.5 4.5h2.41c.629 0 1.227-.234 1.682-.658.929-.865 2.139-1.342 3.408-1.342s2.479.477 3.408 1.342c.455.424 1.053.658 1.682.658h2.41c2.481 0 4.5-2.019 4.5-4.5v-13c0-2.481-2.019-4.5-4.5-4.5zm-12.944 13c-.344-.591-.556-1.268-.556-2 0-2.206 1.794-4 4-4h13v6zm16.444 1v1h-13c-1.005 0-1.914-.385-2.618-1zm-3.5 7h-2.41c-.375 0-.73-.138-1-.39-1.114-1.039-2.566-1.61-4.09-1.61s-2.976.572-4.09 1.61c-.27.251-.625.39-1 .39h-2.41c-1.93 0-3.5-1.57-3.5-3.5v-13c0-1.93 1.57-3.5 3.5-3.5h2.41c.375 0 .73.138 1 .39 1.114 1.039 2.566 1.61 4.09 1.61s2.976-.572 4.09-1.61c.27-.251.625-.39 1-.39h2.41c1.93 0 3.5 1.57 3.5 3.5v1.5h-13c-2.757 0-5 2.243-5 5s2.243 5 5 5h13v1.5c0 1.93-1.57 3.5-3.5 3.5zm-3.5-11c0 .552-.448 1-1 1s-1-.448-1-1 .448-1 1-1 1 .448 1 1z"/></svg>