<svg id="Layer_1" viewBox="0 0 24 24" xmlns="http://www.w3.org/2000/svg" data-name="Layer 1"><path d="m23.5 23h-5.5v-8.974c.591.228 1.167.492 1.725.791l3.526 2.026c.236.136.544.057.683-.185.138-.239.055-.545-.185-.683l-3.539-2.033c-2.362-1.271-5.028-1.943-7.71-1.943h-1.051c-2.682 0-5.349.672-7.726 1.952l-3.475 2.028c-.238.139-.319.445-.18.684.14.238.446.322.684.18l3.46-2.018c.578-.311 1.176-.582 1.788-.815v8.991h-5.5c-.276 0-.5.224-.5.5s.224.5.5.5h23c.276 0 .5-.224.5-.5s-.224-.5-.5-.5zm-16.5-9.331c1.439-.438 2.941-.669 4.449-.669h1.051c1.527 0 3.047.236 4.5.683v9.317h-10zm5-3.669c2.757 0 5-2.243 5-5s-2.243-5-5-5-5 2.243-5 5 2.243 5 5 5zm0-9c2.206 0 4 1.794 4 4s-1.794 4-4 4-4-1.794-4-4 1.794-4 4-4zm-10 6c0-.552.448-1 1-1s1 .448 1 1-.448 1-1 1-1-.448-1-1zm12 10c0 .552-.448 1-1 1s-1-.448-1-1 .448-1 1-1 1 .448 1 1zm6-8c0-.552.448-1 1-1s1 .448 1 1-.448 1-1 1-1-.448-1-1z"/></svg>