<svg id="Layer_1" viewBox="0 0 24 24" xmlns="http://www.w3.org/2000/svg" data-name="Layer 1"><path d="m14.728 14.482s-.002 0-.003.001.002 0 .003-.001zm9.271-5.454c-.002.416-.046.833-.131 1.24-.233 1.136-.799 2.159-1.591 2.96l-.94 6.108c-.415 2.702-2.702 4.664-5.436 4.664h-7.766c-2.734 0-5.02-1.961-5.436-4.664l-.932-6.062c-.815-.807-1.398-1.847-1.636-3.002-.083-.406-.127-.814-.131-1.215-.029-3.159 2.291-5.685 5.516-6.008.299-.03.577-.173.764-.394 1.431-1.687 3.515-2.655 5.72-2.655s4.286.966 5.717 2.651c.189.224.469.368.769.396 3.261.311 5.529 2.77 5.515 5.98zm-17.383 13.712-1.055-7.757c-.37-.027-.741-.087-1.11-.182-.546-.14-1.061-.357-1.535-.638l.772 5.021c.259 1.685 1.407 3.017 2.928 3.556zm3.164.26-.447-8.493c.01.004.021.008 0 0-.008-.003-.016-.006-.009-.003-.243-.097-.649-.131-.907-.016-.593.263-1.214.425-1.849.485l1.089 8.002c.157.016.317.025.478.025zm3.927-8.2c-1.103.258-2.254.263-3.356.014l.431 8.186h2.494l.432-8.2zm3.735.174c-.639-.06-1.264-.222-1.86-.486-.26-.116-.613-.101-.854-.005.004-.002.006-.002-.003.001-.002 0-.004.001-.005.002.001 0 .003-.001.005-.002l-.449 8.517h1.626c.214 0 .425-.015.631-.043l.909-7.983zm3.684-.836c-.485.294-1.015.521-1.578.665-.366.094-.734.153-1.1.18l-.877 7.702c1.447-.571 2.529-1.871 2.779-3.501l.776-5.047zm1.873-5.115c.012-2.715-1.841-4.716-4.61-4.98-.557-.053-1.079-.325-1.436-.745-1.239-1.46-3.046-2.298-4.954-2.298s-3.717.839-4.957 2.301c-.353.417-.874.688-1.428.743-2.741.275-4.615 2.332-4.615 5.003 0 2.235 1.554 4.253 3.699 4.786 1.132.291 2.278.199 3.313-.26.271-.121.561-.181.847-.181.25 0 .496.046.724.139 1.542.621 3.288.623 4.835 0 .488-.198 1.062-.183 1.57.043.638.284 1.317.426 2.009.426h.012c.428 0 .861-.056 1.291-.166 1.806-.462 3.214-1.941 3.589-3.768.071-.343.108-.694.11-1.042z"/></svg>