<?xml version="1.0" encoding="UTF-8"?>
<svg xmlns="http://www.w3.org/2000/svg" id="Layer_1" data-name="Layer 1" viewBox="0 0 24 24">
  <path d="M20.66,4.104L14.166,.552c-1.357-.743-2.977-.741-4.33,.006L3.329,4.141c-1.437,.791-2.329,2.301-2.329,3.942v7.889c0,1.651,.901,3.167,2.353,3.955l6.493,3.528c1.349,.733,2.96,.731,4.308-.006l6.507-3.559c1.443-.79,2.34-2.302,2.34-3.948v-7.89c0-1.646-.896-3.158-2.34-3.948Zm1.34,11.837c0,1.28-.697,2.457-1.82,3.071l-6.507,3.559c-1.05,.573-2.303,.575-3.351,.004l-6.493-3.528c-1.128-.613-1.829-1.792-1.829-3.076v-7.889c0-1.276,.694-2.451,1.812-3.066L10.318,1.434c1.054-.581,2.313-.582,3.367-.005l6.494,3.552c1.123,.614,1.82,1.791,1.82,3.071v7.89Zm-3-6.441c0,.276-.224,.5-.5,.5h-1v4.5c0,.276-.224,.5-.5,.5s-.5-.224-.5-.5v-4.5h-1c-.276,0-.5-.224-.5-.5s.224-.5,.5-.5h3c.276,0,.5,.224,.5,.5Zm-7,.5v1.5h1.5c.276,0,.5,.224,.5,.5s-.224,.5-.5,.5h-1.5v2c0,.276-.224,.5-.5,.5s-.5-.224-.5-.5v-4.5c0-.551,.448-1,1-1h1.5c.276,0,.5,.224,.5,.5s-.224,.5-.5,.5h-1.5Zm-2.5-.5v4.722c0,.366-.251,.673-.609,.747-.36,.072-.71-.11-.854-.447l-1.536-3.586v3.564c0,.276-.224,.5-.5,.5s-.5-.224-.5-.5v-4.722c0-.366,.251-.673,.609-.747,.358-.074,.71,.11,.854,.447l1.536,3.586v-3.564c0-.276,.224-.5,.5-.5s.5,.224,.5,.5Z"/>
</svg>
