<?xml version="1.0" encoding="UTF-8"?>
<svg xmlns="http://www.w3.org/2000/svg" id="Layer_1" data-name="Layer 1" viewBox="0 0 24 24">
  <path d="m12,21c-.276,0-.5-.224-.5-.5v-3c0-.276.224-.5.5-.5s.5.224.5.5v3c0,.276-.224.5-.5.5Zm0,1c-.552,0-1,.448-1,1s.448,1,1,1,1-.448,1-1-.448-1-1-1Zm6.148-16.808c-.441-.099-.806-.379-1-.767C15.533,1.203,12.045-.513,8.473.146,5.338.729,2.804,3.227,2.167,6.364c-.19.933-.218,1.873-.083,2.796.083.568-.058,1.073-.387,1.387C.604,11.592.001,12.996,0,14.5c0,2.734,1.667,4.962,4.5,5.408.236,0,.446-.168.491-.407.051-.271-.127-.533-.399-.584-2.148-.404-3.592-2.179-3.592-4.416.001-1.229.495-2.376,1.388-3.231.566-.54.815-1.362.685-2.255-.118-.808-.093-1.633.074-2.452.557-2.742,2.77-4.925,5.508-5.433,3.132-.584,6.186.922,7.598,3.743.329.658.94,1.13,1.676,1.295,3.033.68,5.071,3.225,5.071,6.332,0,2.497-1.458,4.803-3.714,5.874-.25.119-.356.417-.237.667.118.249.416.353.666.237,2.604-1.236,4.286-3.897,4.286-6.778,0-3.586-2.352-6.523-5.852-7.308Zm-4.727,8.624c-.298-.512-.83-.816-1.421-.816s-1.123.305-1.422.816l-4.497,7.709c-.3.516-.302,1.132-.005,1.648.297.518.831.826,1.427.826h1.997c.276,0,.5-.224.5-.5s-.224-.5-.5-.5h-1.997c-.337,0-.504-.227-.56-.324-.056-.098-.167-.355.002-.646l4.496-7.709c.238-.406.878-.406,1.116,0l4.497,7.709c.17.291.058.549.002.646-.056.098-.223.324-.56.324h-1.997c-.276,0-.5.224-.5.5s.224.5.5.5h1.997c.597,0,1.13-.309,1.427-.826.297-.517.295-1.133-.005-1.648l-4.497-7.709Z"/>
</svg>
