<?xml version="1.0" encoding="UTF-8"?>
<svg xmlns="http://www.w3.org/2000/svg" id="Layer_1" data-name="Layer 1" viewBox="0 0 24 24">
  <path d="M23.857,9.35c-.099,.1-.228,.15-.357,.15-.126,0-.253-.047-.35-.143l-4.15-4.067v13.21c0,3.032-2.468,5.5-5.5,5.5H6.5c-.276,0-.5-.224-.5-.5s.224-.5,.5-.5h7c2.481,0,4.5-2.019,4.5-4.5V5.29l-4.15,4.067c-.196,.195-.513,.189-.707-.007-.193-.197-.189-.514,.008-.707l4.293-4.207c.288-.288,.667-.432,1.048-.434,.003,0,.006-.002,.009-.002,.009,0,.016,.005,.025,.005,.375,.007,.749,.148,1.036,.435l4.289,4.204c.197,.193,.201,.51,.008,.707ZM6.557,19.564l4.293-4.207c.197-.193,.201-.51,.008-.707-.194-.197-.51-.199-.707-.008l-4.15,4.067V5.5c0-2.481,2.019-4.5,4.5-4.5h7c.276,0,.5-.224,.5-.5s-.224-.5-.5-.5h-7c-3.032,0-5.5,2.467-5.5,5.5v13.21L.85,14.643c-.196-.191-.513-.189-.707,.008-.193,.197-.189,.514,.008,.707l4.289,4.203c.286,.286,.659,.427,1.034,.434,.009,0,.017,.005,.027,.005,0,0,0,0,0,0s0,0,0,0c.384,0,.766-.146,1.056-.436Z"/>
</svg>
