<svg id="Layer_1" viewBox="0 0 24 24" xmlns="http://www.w3.org/2000/svg" data-name="Layer 1"><path d="m4.758 22.519c-2.283-.633-3.758-1.817-3.758-3.019v-7.851c1.419 1.411 4.213 2.351 7.5 2.351.276 0 .5-.224.5-.5s-.224-.5-.5-.5c-4.065 0-7.5-1.603-7.5-3.5v-2.851c1.419 1.411 4.213 2.351 7.5 2.351s6.081-.94 7.5-2.351v.851c0 .276.224.5.5.5s.5-.224.5-.5v-3c0-2.523-3.733-4.5-8.5-4.5s-8.5 1.977-8.5 4.5v15c0 1.714 1.679 3.202 4.492 3.981.044.013.089.019.134.019.219 0 .42-.146.481-.366.074-.267-.083-.542-.349-.615zm3.742-21.519c4.065 0 7.5 1.603 7.5 3.5s-3.435 3.5-7.5 3.5-7.5-1.603-7.5-3.5 3.435-3.5 7.5-3.5zm8.5 14c-1.103 0-2 .897-2 2s.897 2 2 2 2-.897 2-2-.897-2-2-2zm0 3c-.552 0-1-.448-1-1s.448-1 1-1 1 .448 1 1-.448 1-1 1zm5.506.478-.646-.377c.094-.385.14-.748.14-1.101s-.046-.716-.14-1.101l.646-.377c.714-.416.956-1.337.539-2.052-.416-.714-1.334-.957-2.051-.539l-.642.374c-.537-.488-1.167-.852-1.853-1.067v-.738c0-.827-.673-1.5-1.5-1.5s-1.5.673-1.5 1.5v.738c-.686.216-1.315.579-1.853 1.067l-.641-.374c-.716-.417-1.635-.176-2.052.539-.202.346-.257.75-.156 1.138.102.388.349.712.695.914l.646.377c-.094.386-.14.748-.14 1.101s.046.715.14 1.101l-.646.377c-.346.202-.593.526-.695.914s-.046.792.156 1.138c.417.715 1.337.958 2.052.539l.641-.374c.537.488 1.167.852 1.853 1.067v.738c0 .827.673 1.5 1.5 1.5s1.5-.673 1.5-1.5v-.738c.686-.216 1.315-.579 1.853-1.067l.642.374c.717.419 1.635.174 2.051-.539.417-.715.175-1.636-.539-2.052zm-.324 1.548c-.139.237-.445.317-.684.18l-.972-.567c-.2-.117-.457-.081-.616.09-.551.586-1.249.989-2.021 1.165-.228.052-.389.254-.389.487v1.12c0 .275-.225.5-.5.5s-.5-.225-.5-.5v-1.12c0-.233-.161-.436-.389-.487-.772-.176-1.471-.579-2.021-1.165-.097-.104-.229-.158-.364-.158-.087 0-.174.022-.252.068l-.971.567c-.238.137-.545.059-.684-.18-.14-.23-.055-.554.18-.685l.979-.571c.202-.117.294-.358.225-.581-.138-.44-.202-.818-.202-1.188s.064-.748.202-1.188c.069-.223-.023-.464-.225-.581l-.979-.571c-.235-.131-.32-.455-.18-.685.139-.239.447-.318.684-.18l.972.567c.199.117.457.08.616-.09.551-.586 1.249-.989 2.021-1.165.228-.052.389-.254.389-.487v-1.12c0-.275.225-.5.5-.5s.5.225.5.5v1.12c0 .233.161.436.389.487.772.176 1.471.579 2.021 1.165.159.17.416.207.616.09l.972-.567c.239-.138.545-.058.684.18.14.23.055.553-.18.685l-.979.571c-.201.117-.295.358-.225.581.138.44.202.817.202 1.188s-.064.748-.202 1.188c-.07.223.023.464.225.581l.979.571c.235.131.32.455.18.685zm-12.344-1.518c.195.195.195.512 0 .707s-.512.195-.707 0l-1.922-1.922c-.059-.059-.133-.092-.203-.132.027 2.443.659 4.473 1.887 6.03.171.217.134.531-.083.702-.215.17-.531.135-.702-.083-1.371-1.737-2.075-3.977-2.102-6.653-.073.041-.15.076-.211.137l-1.914 1.914c-.195.195-.512.195-.707 0s-.195-.512 0-.707l1.914-1.914c.379-.393.899-.523 1.413-.586.515.062 1.036.193 1.416.586l1.922 1.922z"/></svg>