<svg id="Layer_1" viewBox="0 0 24 24" xmlns="http://www.w3.org/2000/svg" data-name="Layer 1"><path d="m22 5.5v.5c0 5.345-4.219 9.712-9.5 9.975v7.025h5c.276 0 .5.224.5.5s-.224.5-.5.5h-11c-.276 0-.5-.224-.5-.5s.224-.5.5-.5h5v-7.025c-5.281-.263-9.5-4.629-9.5-9.975v-.5c0-.276.224-.5.5-.5s.5.224.5.5v.5c0 4.794 3.771 8.713 8.5 8.975v-2c-3.626-.258-6.5-3.284-6.5-6.975v-.5c0-.276.224-.5.5-.5s.5.224.5.5v.5c0 3.14 2.425 5.719 5.5 5.975v-2.025c-1.968-.249-3.5-1.915-3.5-3.949v-.5c0-.276.224-.5.5-.5s.5.224.5.5v.5c0 1.483 1.084 2.71 2.5 2.949v-3.449c0-.276.224-.5.5-.5s.5.224.5.5v3.449c1.416-.24 2.5-1.466 2.5-2.949v-.5c0-.276.224-.5.5-.5s.5.224.5.5v.5c0 2.034-1.532 3.7-3.5 3.949v2.025c3.075-.255 5.5-2.835 5.5-5.975v-.5c0-.276.224-.5.5-.5s.5.224.5.5v.5c0 3.691-2.874 6.716-6.5 6.975v2c4.73-.262 8.5-4.181 8.5-8.975v-.5c0-.276.224-.5.5-.5s.5.224.5.5zm-10-2.5c.552 0 1-.448 1-1 0-.341-.381-.896-.673-1.271-.166-.213-.489-.213-.655 0-.292.375-.673.93-.673 1.271 0 .552.448 1 1 1zm3.5 0c.552 0 1-.448 1-1 0-.341-.381-.896-.673-1.271-.166-.213-.489-.213-.655 0-.292.375-.673.93-.673 1.271 0 .552.448 1 1 1zm3 0c.552 0 1-.448 1-1 0-.341-.381-.896-.673-1.271-.166-.213-.489-.213-.655 0-.292.375-.673.93-.673 1.271 0 .552.448 1 1 1zm3.327-2.271c-.166-.213-.489-.213-.655 0-.292.375-.673.93-.673 1.271 0 .552.448 1 1 1s1-.448 1-1c0-.341-.381-.896-.673-1.271zm-13.327 2.271c.552 0 1-.448 1-1 0-.341-.381-.896-.673-1.271-.166-.213-.489-.213-.655 0-.292.375-.673.93-.673 1.271 0 .552.448 1 1 1zm-3 0c.552 0 1-.448 1-1 0-.341-.381-.896-.673-1.271-.166-.213-.489-.213-.655 0-.292.375-.673.93-.673 1.271 0 .552.448 1 1 1zm-2-1c0-.341-.381-.896-.673-1.271-.166-.213-.489-.213-.655 0-.292.375-.673.93-.673 1.271 0 .552.448 1 1 1s1-.448 1-1z"/></svg>