<?xml version="1.0" encoding="UTF-8"?>
<svg xmlns="http://www.w3.org/2000/svg" id="Layer_1" data-name="Layer 1" viewBox="0 0 24 24">
  <path d="m12,5c-.276,0-.5.224-.5.5v4.571c-.86.224-1.5,1-1.5,1.929s.64,1.705,1.5,1.929v3.571c0,.276.224.5.5.5s.5-.224.5-.5v-3.571c.86-.224,1.5-1,1.5-1.929s-.64-1.705-1.5-1.929v-4.571c0-.276-.224-.5-.5-.5Zm1,7c0,.551-.448,1-1,1s-1-.449-1-1,.448-1,1-1,1,.449,1,1Zm11,0c0,6.617-5.383,12-12,12-.352,0-.698-.015-1.042-.045-.275-.023-.479-.266-.455-.541s.275-.484.541-.455c.314.027.634.041.956.041,6.065,0,11-4.935,11-11S18.065,1,12,1c-.322,0-.642.014-.956.041-.015.001-.029.002-.044.002-.257,0-.475-.197-.497-.457-.023-.275.18-.518.455-.541.344-.03.69-.045,1.042-.045,6.617,0,12,5.383,12,12ZM1.985,5.386c.395-.598.848-1.164,1.345-1.683.191-.199.508-.207.707-.016s.206.508.016.707c-.456.477-.871.996-1.233,1.543-.096.146-.255.224-.417.224-.095,0-.19-.027-.275-.083-.23-.152-.294-.462-.142-.693Zm-.447,10.024c.085.263-.059.544-.32.63-.052.017-.104.024-.155.024-.211,0-.406-.134-.476-.345-.223-.684-.384-1.391-.479-2.101-.037-.274.155-.525.429-.562.267-.038.524.155.562.429.088.651.235,1.298.439,1.924ZM.107,10.394c.095-.711.256-1.418.477-2.101.085-.262.363-.405.63-.321.263.085.406.367.321.63-.202.625-.35,1.273-.438,1.925-.033.251-.248.434-.494.434-.022,0-.045-.001-.067-.004-.273-.037-.466-.288-.429-.562Zm8.342,12.559c-.075.201-.266.325-.469.325-.059,0-.117-.01-.175-.032-.673-.251-1.326-.564-1.942-.932-.237-.141-.315-.448-.174-.685.142-.239.45-.316.686-.173.564.336,1.163.624,1.78.854.259.096.391.384.294.643ZM5.681,2.378c-.143-.237-.064-.544.172-.686.616-.368,1.269-.683,1.94-.934.26-.095.547.034.644.293.098.259-.034.547-.292.644-.616.23-1.214.519-1.778.856-.081.048-.169.071-.257.071-.17,0-.336-.087-.429-.243Zm-1.62,17.234c.191.199.186.516-.014.707-.098.093-.222.139-.347.139-.132,0-.263-.051-.36-.154-.499-.519-.951-1.085-1.347-1.682-.152-.23-.089-.541.141-.693.229-.151.54-.09.693.141.362.546.777,1.065,1.233,1.541Z"/>
</svg>
