<?xml version="1.0" encoding="UTF-8"?>
<svg xmlns="http://www.w3.org/2000/svg" id="Layer_1" data-name="Layer 1" viewBox="0 0 24 24">
  <path d="m23.181,9.654c-.497-.451-1.143-.687-1.809-.651-.67.031-1.288.321-1.739.817l-3.732,4.103c-.314-1.108-1.335-1.923-2.542-1.923H3.5c-1.93,0-3.5,1.57-3.5,3.5v5c0,1.93,1.57,3.5,3.5,3.5h5.965c2.706,0,5.292-1.159,7.093-3.18l6.806-7.64c.91-1.022.828-2.604-.184-3.526Zm-.563,2.86l-6.806,7.64c-1.612,1.809-3.925,2.846-6.347,2.846H3.5c-1.378,0-2.5-1.121-2.5-2.5v-5c0-1.379,1.122-2.5,2.5-2.5h9.858c.905,0,1.642.737,1.642,1.643,0,.812-.606,1.511-1.399,1.624l-6.161.737c-.274.032-.47.281-.437.556.034.273.274.48.556.437l6.171-.738c1.022-.146,1.846-.878,2.146-1.824l4.495-4.939c.272-.299.644-.474,1.047-.492.398-.021.79.121,1.088.392.608.556.658,1.507.11,2.121ZM5.197,6.78l-.683,2.189c-.168.539.021,1.128.474,1.468.232.174.509.266.799.266.264,0,.521-.078.742-.226l1.982-1.326,2.019,1.314c.475.308,1.093.281,1.541-.062.449-.345.63-.938.453-1.475l-.708-2.156,1.71-1.395c.427-.357.586-.951.395-1.478-.191-.523-.695-.876-1.253-.876h-2.148l-.769-2.158c-.193-.519-.695-.867-1.25-.867s-1.056.349-1.252.874l-.767,2.151h-2.148c-.556,0-1.059.351-1.251.873-.192.522-.036,1.116.397,1.483l1.718,1.398Zm-1.177-2.536c.048-.131.174-.219.313-.219h2.5c.211,0,.4-.133.471-.332l.883-2.477c.096-.26.531-.253.622-.007l.885,2.483c.071.199.26.332.471.332h2.5c.14,0,.266.088.313.219.048.132.008.279-.093.364l-1.971,1.606c-.161.131-.224.347-.159.544l.816,2.484c.044.135,0,.282-.112.368-.113.086-.269.093-.387.017l-2.295-1.495c-.168-.109-.384-.108-.551.004l-2.255,1.51c-.117.078-.277.07-.386-.009-.113-.085-.161-.233-.118-.369l.784-2.513c.061-.195-.003-.408-.162-.537l-1.973-1.605c-.106-.091-.146-.239-.098-.369Z"/>
</svg>
