<?xml version="1.0" encoding="UTF-8"?>
<svg xmlns="http://www.w3.org/2000/svg" id="Layer_1" data-name="Layer 1" viewBox="0 0 24 24">
  <path d="m18.853,13.146c.196.194.196.512.002.707-.098.099-.227.147-.354.147s-.255-.049-.353-.146l-5.634-5.605-.013,15.25c0,.276-.224.5-.5.5h0c-.276,0-.5-.225-.5-.5l.013-15.249-5.662,5.605c-.196.195-.513.192-.707-.004s-.192-.513.004-.707l5.734-5.677c.601-.602,1.658-.604,2.265.002l5.705,5.676ZM12,0C5.553,0,.287,5.042.011,11.479c-.012.276.202.509.478.521.286.002.51-.202.521-.479C1.263,5.621,6.09,1,12,1s10.737,4.621,10.989,10.521c.012.269.233.479.5.479h.021c.275-.013.49-.245.479-.521-.275-6.437-5.542-11.479-11.989-11.479Z"/>
</svg>
