<?xml version="1.0" encoding="UTF-8"?>
<svg xmlns="http://www.w3.org/2000/svg" id="Layer_1" data-name="Layer 1" viewBox="0 0 24 24">
  <path d="m24,23.5c0,.276-.224.5-.5.5H2.5c-1.379,0-2.5-1.121-2.5-2.5V.5C0,.224.224,0,.5,0s.5.224.5.5v21c0,.827.673,1.5,1.5,1.5h21c.276,0,.5.224.5.5Zm-1.5-21.5h-5c-.276,0-.5.224-.5.5s.224.5.5.5h4.77l-6.981,6.561c-.584.586-1.535.586-2.153-.029l-.954-.799c-.942-.944-2.592-.942-3.532-.003l-5.5,5.414c-.197.193-.199.511-.006.707.098.1.228.149.356.149.127,0,.253-.048.351-.144l5.503-5.417c.567-.567,1.523-.595,2.153.029l.954.799c.974.974,2.561.975,3.524.011l7.015-6.592v4.814c0,.276.224.5.5.5s.5-.224.5-.5V3.5c0-.827-.673-1.5-1.5-1.5Zm1,11c-.276,0-.5.224-.5.5v4.793l-6.146-6.146c-.195-.195-.512-.195-.707,0s-.195.512,0,.707l6.146,6.146h-4.793c-.276,0-.5.224-.5.5s.224.5.5.5h5c.827,0,1.5-.673,1.5-1.5v-5c0-.276-.224-.5-.5-.5Z"/>
</svg>
