<svg id="Layer_1" viewBox="0 0 24 24" xmlns="http://www.w3.org/2000/svg" data-name="Layer 1"><path d="m8.259 9.233 2.515 1.438c.382.218.812.327 1.241.327.419 0 .838-.104 1.213-.312l2.485-1.381c.793-.44 1.287-1.278 1.287-2.186v-3.184c0-.469-.138-.917-.376-1.305-.005-.01-.013-.015-.019-.024-.217-.344-.51-.641-.875-.848l-2.504-1.414c-.76-.429-1.703-.429-2.461 0l-2.496 1.414c-.782.443-1.268 1.276-1.268 2.175v3.129c0 .895.482 1.727 1.259 2.171zm.496-.869c-.466-.266-.755-.765-.755-1.302v-3.128c0-.12.019-.237.047-.351l3.452 1.973v4.34c-.078-.028-2.744-1.531-2.744-1.531zm7.245-1.245c0 .544-.296 1.047-.772 1.312 0 0-2.646 1.448-2.729 1.476v-4.349l3.453-1.974c.028.114.047.231.047.351v3.185zm-4.743-5.904c.456-.257 1.022-.258 1.477 0 0 0 2.611 1.495 2.664 1.536l-3.397 1.942-3.399-1.943c.053-.04 2.654-1.534 2.654-1.534zm12.743 4.285v10.101c0 2.004-.78 3.887-2.197 5.303l-2.95 2.95c-.195.195-.512.195-.707 0s-.195-.512 0-.707l2.95-2.95c1.228-1.228 1.904-2.859 1.904-4.596v-10.101c0-.827-.673-1.5-1.5-1.5s-1.5.673-1.5 1.5c0 0 .002 8.036 0 8.054-.013.551-.21 1.1-.584 1.546l-2.638 2.746c-.192.199-.508.205-.707.014s-.205-.508-.014-.707l2.616-2.721c.461-.553.43-1.396-.054-1.935-.522-.613-1.529-.658-2.112-.116l-2.73 2.512c-.521.479-.925 1.053-1.228 1.692.29.745.452 1.542.452 2.355v4.56c0 .276-.224.5-.5.5s-.5-.224-.5-.5v-4.56c0-1.534-.647-3.009-1.776-4.047l-2.734-2.516c-.582-.536-1.589-.491-2.108.12-.494.551-.507 1.394-.032 1.96l2.593 2.695c.191.199.185.516-.014.707-.2.193-.516.185-.707-.014l-2.616-2.721c-.38-.452-.587-.999-.607-1.547-.004-.027 0-8.079 0-8.079 0-.827-.673-1.5-1.5-1.5s-1.5.673-1.5 1.5v10.103c0 1.736.676 3.368 1.904 4.596l2.95 2.95c.195.195.195.512 0 .707s-.512.195-.707 0l-2.95-2.95c-1.417-1.417-2.197-3.3-2.197-5.303v-10.101c0-1.378 1.122-2.5 2.5-2.5s2.5 1.122 2.5 2.5v5.997c.391-.294.86-.466 1.359-.493.671-.038 1.306.188 1.803.634l2.739 2.52c.43.395.793.848 1.098 1.336.306-.489.669-.94 1.1-1.336l2.734-2.516c.501-.45 1.139-.68 1.807-.638.499.027.968.199 1.359.493v-5.997c0-1.378 1.122-2.5 2.5-2.5s2.5 1.122 2.5 2.5z"/></svg>