<?xml version="1.0" encoding="UTF-8"?>
<svg xmlns="http://www.w3.org/2000/svg" id="Layer_1" data-name="Layer 1" viewBox="0 0 24 24">
  <path d="M14.5,19c-1.208,0-2.217,.86-2.449,2H.5c-.276,0-.5,.224-.5,.5s.224,.5,.5,.5H12.051c.232,1.14,1.242,2,2.449,2,1.379,0,2.5-1.122,2.5-2.5s-1.121-2.5-2.5-2.5Zm0,4c-.827,0-1.5-.673-1.5-1.5s.673-1.5,1.5-1.5,1.5,.673,1.5,1.5-.673,1.5-1.5,1.5ZM18.5,3c-1.379,0-2.5,1.122-2.5,2.5s1.121,2.5,2.5,2.5,2.5-1.122,2.5-2.5-1.121-2.5-2.5-2.5Zm0,4c-.827,0-1.5-.673-1.5-1.5s.673-1.5,1.5-1.5,1.5,.673,1.5,1.5-.673,1.5-1.5,1.5Zm1-7H4.5C2.019,0,0,2.019,0,4.5V12.5c0,2.481,2.019,4.5,4.5,4.5h15c2.481,0,4.5-2.019,4.5-4.5V4.5c0-2.481-2.019-4.5-4.5-4.5Zm3.5,12.5c0,1.93-1.57,3.5-3.5,3.5H4.5c-1.93,0-3.5-1.57-3.5-3.5V4.5c0-1.93,1.57-3.5,3.5-3.5h15c1.93,0,3.5,1.57,3.5,3.5V12.5ZM13.975,5.842c.087,.262-.055,.545-.316,.632-5.25,1.75-5.658,5.82-5.658,7.026,0,.276-.224,.5-.5,.5s-.5-.224-.5-.5c0-2.164-2.516-3.367-3.564-3.504-.274-.036-.467-.287-.432-.561,.036-.273,.293-.469,.561-.431,1.05,.137,2.805,.946,3.762,2.358,.557-1.909,2.049-4.514,6.016-5.836,.262-.085,.545,.054,.633,.316Zm10.025,15.658c0,.276-.224,.5-.5,.5h-4c-.276,0-.5-.224-.5-.5s.224-.5,.5-.5h4c.276,0,.5,.224,.5,.5Z"/>
</svg>
