<?xml version="1.0" encoding="UTF-8"?>
<svg xmlns="http://www.w3.org/2000/svg" id="Layer_1" data-name="Layer 1" viewBox="0 0 24 24">
  <path d="m19.475,1.025H4.475C1.993,1.025-.025,3.044-.025,5.525v9c0,2.481,2.019,4.5,4.5,4.5h7c.276,0,.5-.224.5-.5s-.224-.5-.5-.5h-7c-1.93,0-3.5-1.57-3.5-3.5v-5.5h22v2.5c0,.276.224.5.5.5s.5-.224.5-.5v-6c0-2.481-2.019-4.5-4.5-4.5Zm-15,1h15c1.758,0,3.204,1.308,3.449,3H1.025c.245-1.692,1.691-3,3.449-3ZM.975,8.025v-2h22v2H.975Zm1.942,6c0,1.103.897,2,2,2s2-.897,2-2-.897-2-2-2-2,.897-2,2Zm3,0c0,.552-.449,1-1,1s-1-.448-1-1,.449-1,1-1,1,.448,1,1Zm16.058,6c-1.103,0-2,.897-2,2s.897,2,2,2,2-.897,2-2-.897-2-2-2Zm0,3c-.551,0-1-.448-1-1s.449-1,1-1,1,.448,1,1-.449,1-1,1Zm-4-7c0-1.103-.897-2-2-2s-2,.897-2,2,.897,2,2,2,2-.897,2-2Zm-2,1c-.551,0-1-.448-1-1s.449-1,1-1,1,.448,1,1-.449,1-1,1Zm5.937-2.257l-5,9c-.091.164-.262.257-.438.257-.082,0-.166-.021-.242-.062-.242-.135-.329-.438-.194-.681l5-9c.134-.241.438-.326.68-.194.242.135.329.438.194.681Z"/>
</svg>
