<?xml version="1.0" encoding="UTF-8"?>
<svg xmlns="http://www.w3.org/2000/svg" id="Layer_1" data-name="Layer 1" viewBox="0 0 24 24">
  <path d="M18.476,9.198c-1.208-.549-2.778,.081-3.264,1.298l-3.013,6.028c-.043,.101-.068,.205-.097,.309l-2.596-3.351c-.471-.651-1.559-.562-1.918,.159l-3.028,5.623c-.131,.243-.04,.546,.204,.677,.238,.129,.546,.042,.677-.204l3.028-5.623c.075-.101,.157-.108,.247-.02l3.681,4.75c.269,.423,.657,.757,1.129,.957,1.206,.55,2.78-.081,3.264-1.298l3.013-6.028c.55-1.227-.079-2.778-1.326-3.277Zm.418,2.858l-3.013,6.028c-.298,.748-1.232,1.125-1.966,.795-.736-.284-1.122-1.232-.809-1.938l3.013-6.028c.299-.749,1.23-1.127,1.966-.796,.736,.284,1.122,1.232,.809,1.938Zm-5.394-3.057c1.378,0,2.5-1.122,2.5-2.5s-1.122-2.5-2.5-2.5-2.5,1.122-2.5,2.5,1.122,2.5,2.5,2.5Zm0-4c.827,0,1.5,.673,1.5,1.5s-.673,1.5-1.5,1.5-1.5-.673-1.5-1.5,.673-1.5,1.5-1.5ZM19.5,0H4.5C2.019,0,0,2.019,0,4.5v15c0,2.481,2.019,4.5,4.5,4.5h15c2.481,0,4.5-2.019,4.5-4.5V4.5c0-2.481-2.019-4.5-4.5-4.5Zm3.5,19.5c0,1.93-1.57,3.5-3.5,3.5H4.5c-1.93,0-3.5-1.57-3.5-3.5V4.5c0-1.93,1.57-3.5,3.5-3.5h15c1.93,0,3.5,1.57,3.5,3.5v15Z"/>
</svg>
