<?xml version="1.0" encoding="UTF-8"?>
<svg xmlns="http://www.w3.org/2000/svg" id="Layer_1" data-name="Layer 1" viewBox="0 0 24 24">
  <path d="m17.487,11c-3.585,0-6.493,2.902-6.5,6.487v.013c-.007,3.6,2.913,6.52,6.513,6.513,3.58-.007,6.48-2.907,6.487-6.487v-.013c.007-3.595-2.905-6.513-6.5-6.513Zm-.013,12.025c-3.032,0-5.5-2.467-5.5-5.5,0-1.337.48-2.563,1.276-3.517l7.74,7.741c-.954.796-2.18,1.276-3.517,1.276Zm4.224-1.983l-7.74-7.741c.954-.796,2.18-1.276,3.517-1.276,3.032,0,5.5,2.467,5.5,5.5,0,1.337-.48,2.563-1.276,3.517Zm-11.224,1.983h-5c-1.93,0-3.5-1.57-3.5-3.5V7.975c.162.033.329.051.5.051h19c.171,0,.338-.018.5-.051v1.551c0,.276.224.5.5.5s.5-.224.5-.5v-2s-.002-.007-.002-.011c.605-.457,1.002-1.175,1.002-1.989v-1C23.975,2.044,21.956.025,19.475.025H4.475C1.993.025-.025,2.044-.025,4.525v1c0,.815.397,1.532,1.002,1.989,0,.004-.002.007-.002.011v12c0,2.481,2.019,4.5,4.5,4.5h5c.276,0,.5-.224.5-.5s-.224-.5-.5-.5ZM.975,5.525v-1c0-1.93,1.57-3.5,3.5-3.5h15c1.93,0,3.5,1.57,3.5,3.5v1c0,.827-.673,1.5-1.5,1.5H2.475c-.827,0-1.5-.673-1.5-1.5Z"/>
</svg>
