<?xml version="1.0" encoding="UTF-8"?>
<svg xmlns="http://www.w3.org/2000/svg" id="Layer_1" data-name="Layer 1" viewBox="0 0 24 24">
  <path d="M23.855,12.852l-9.185,9.28c-.568,.569-1.321,.881-2.123,.881s-1.555-.312-2.122-.879l-4.28-4.28c-.195-.195-.195-.512,0-.707s.512-.195,.707,0l4.28,4.28c.755,.755,2.072,.756,2.828,0l9.183-9.278c.193-.197,.51-.198,.707-.004,.196,.194,.198,.511,.004,.707ZM3.029,10L.958,14.702c-.111,.252-.405,.368-.659,.256-.252-.111-.367-.406-.256-.659l2.199-4.992s0-.002,.001-.002L5.899,1.005c.313-.628,.923-1.005,1.601-1.005s1.288,.376,1.591,.983l3.667,8.322s0,.001,0,.002l2.2,4.992c.111,.253-.004,.548-.257,.659-.065,.029-.134,.042-.201,.042-.192,0-.375-.111-.458-.298l-2.071-4.702H3.029Zm.44-1H11.53L8.186,1.408c-.249-.494-1.113-.516-1.382,.022l-3.335,7.57Z"/>
</svg>
