<?xml version="1.0" encoding="UTF-8"?>
<svg xmlns="http://www.w3.org/2000/svg" id="Layer_1" data-name="Layer 1" viewBox="0 0 24 24">
  <path d="M20,18.5c0,.276-.224,.5-.5,.5H9.483c-2.234,0-4.15-1.669-4.457-3.882L3.245,2.294c-.103-.738-.742-1.294-1.486-1.294H.5c-.276,0-.5-.224-.5-.5S.224,0,.5,0H1.759c1.24,0,2.305,.927,2.476,2.156l.256,1.844h3.009c.276,0,.5,.224,.5,.5s-.224,.5-.5,.5h-2.87l1.25,9h4.62c.276,0,.5,.224,.5,.5s-.224,.5-.5,.5H6.02c.247,1.711,1.732,3,3.462,3h10.017c.276,0,.5,.224,.5,.5Zm-11,3.5c0,1.103-.897,2-2,2s-2-.897-2-2,.897-2,2-2,2,.897,2,2Zm-1,0c0-.552-.449-1-1-1s-1,.448-1,1,.449,1,1,1,1-.448,1-1Zm11,0c0,1.103-.897,2-2,2s-2-.897-2-2,.897-2,2-2,2,.897,2,2Zm-1,0c0-.552-.449-1-1-1s-1,.448-1,1,.449,1,1,1,1-.448,1-1ZM14.5,5.5c-.276,0-.5,.224-.5,.5v2l-.891-2.145c-.089-.215-.299-.355-.532-.355-.318,0-.576,.258-.576,.576v3.924c0,.276,.224,.5,.5,.5s.5-.224,.5-.5v-1.962l.945,2.134c.088,.199,.286,.328,.504,.328,.304,0,.551-.247,.551-.551v-3.949c0-.276-.224-.5-.5-.5Zm7,.011h-2c-.276,0-.5,.224-.5,.5s.224,.5,.5,.5h.5v3.489c0,.276,.224,.5,.5,.5s.5-.224,.5-.5v-3.489h.5c.276,0,.5-.224,.5-.5s-.224-.5-.5-.5Zm-3.74,.989c.276,0,.5-.224,.5-.5s-.224-.5-.5-.5h-1.471c-.276,0-.5,.224-.5,.5v4c0,.276,.224,.5,.5,.5s.5-.224,.5-.5v-1.493l.97,.003c.276,0,.501-.222,.502-.499,0-.276-.222-.501-.499-.501l-.973-.003v-1.007h.971Zm6.24-.985v4.933c0,.871-.463,1.69-1.208,2.14l-4.5,2.716c-.797,.482-1.787,.482-2.584,0l-4.5-2.716c-.745-.45-1.208-1.27-1.208-2.14V5.629c0-.87,.463-1.69,1.208-2.14L15.726,.761c.783-.473,1.76-.48,2.551-.02l4.482,2.613c.765,.446,1.241,1.274,1.241,2.16Zm-1,0c0-.532-.285-1.028-.745-1.296l-4.482-2.613c-.474-.276-1.061-.272-1.53,.012l-4.518,2.727c-.447,.27-.725,.762-.725,1.284v4.819c0,.522,.278,1.014,.725,1.284l4.5,2.717c.479,.287,1.072,.287,1.551,0l4.5-2.717c.447-.27,.725-.762,.725-1.284V5.515Z"/>
</svg>
