<svg id="Layer_1" viewBox="0 0 24 24" xmlns="http://www.w3.org/2000/svg" data-name="Layer 1"><path d="m23.182 13.568c.537.782.818 1.678.818 2.613 0 1.642-.871 3.155-2.288 4.003-.622 2.258-2.65 3.815-5.008 3.815-.452 0-.899-.058-1.332-.172-.267-.07-.426-.344-.355-.611.07-.266.341-.43.611-.355.349.092.711.139 1.076.139 1.964 0 3.646-1.34 4.088-3.258.032-.141.124-.261.251-.328 1.207-.647 1.957-1.886 1.957-3.232 0-.832-.287-1.627-.83-2.299-.148-.184-.148-.445 0-.629.543-.672.83-1.467.83-2.3 0-1.315-.725-2.54-1.892-3.196-.186-.104-.285-.314-.247-.524.027-.149.048-.303.048-.461 0-1.363-.901-2.772-2.409-2.772-.261 0-.504-.201-.523-.461-.11-1.424-1.309-2.539-2.727-2.539-1.517 0-2.75 1.233-2.75 2.75v3.75c0 .276-.224.5-.5.5s-.5-.224-.5-.5v-3.751c0-1.517-1.233-2.75-2.75-2.75-1.419 0-2.616 1.115-2.726 2.538-.02.261-.237.462-.499.462-1.533 0-2.435 1.409-2.435 2.772 0 .158.021.312.048.461.038.21-.062.42-.247.524-1.167.656-1.892 1.881-1.892 3.196 0 .832.287 1.627.831 2.3.148.184.148.445 0 .629-.543.673-.831 1.468-.831 2.299 0 1.347.75 2.585 1.957 3.232.127.067.218.188.251.328.443 1.918 2.124 3.258 4.087 3.258.366 0 .729-.047 1.077-.139.267-.073.541.089.611.355.071.268-.089.541-.355.611-.432.114-.88.172-1.333.172-2.357 0-4.385-1.558-5.007-3.815-1.417-.848-2.289-2.361-2.289-4.003 0-.935.282-1.831.818-2.613-.537-.782-.818-1.679-.818-2.614 0-1.562.799-3.021 2.105-3.887-.009-.098-.015-.195-.015-.295 0-1.96 1.286-3.526 2.996-3.746.341-1.729 1.873-3.026 3.664-3.026 1.398 0 2.605.778 3.25 1.915.645-1.137 1.852-1.915 3.25-1.915 1.791 0 3.324 1.299 3.664 3.029 1.72.229 2.995 1.791 2.995 3.743 0 .1-.006.197-.015.295 1.307.865 2.105 2.325 2.105 3.887 0 .936-.281 1.832-.818 2.614zm-7.288-.504c-.334-1.463-1.495-2.624-2.958-2.958-1.219-.279-2.47 0-3.429.765-.958.765-1.507 1.904-1.507 3.129v.5c0 .276.224.5.5.5s.5-.224.5-.5v-.5c0-.918.412-1.773 1.131-2.347s1.661-.783 2.583-.572c1.074.245 1.96 1.132 2.206 2.206.307 1.345-.286 2.688-1.474 3.343-1.218.671-1.945 1.83-1.945 3.102v.769c0 .276.224.5.5.5s.5-.224.5-.5v-.769c0-.901.534-1.733 1.428-2.227 1.582-.871 2.372-2.656 1.966-4.44zm-3.894 8.936c-.552 0-1 .448-1 1s.448 1 1 1 1-.448 1-1-.448-1-1-1z"/></svg>