<?xml version="1.0" encoding="UTF-8"?>
<svg xmlns="http://www.w3.org/2000/svg" id="Layer_1" data-name="Layer 1" viewBox="0 0 24 24">
  <path d="m10,17c0,.552-.448,1-1,1s-1-.448-1-1,.448-1,1-1,1,.448,1,1Zm-4,2c-.552,0-1,.448-1,1s.448,1,1,1,1-.448,1-1-.448-1-1-1Zm3,3c-.552,0-1,.448-1,1s.448,1,1,1,1-.448,1-1-.448-1-1-1Zm-6-6c-.552,0-1,.448-1,1s.448,1,1,1,1-.448,1-1-.448-1-1-1ZM12,3c2.206,0,4,1.794,4,4s-1.794,4-4,4-4-1.794-4-4,1.794-4,4-4Zm0,1c-1.654,0-3,1.346-3,3s1.346,3,3,3,3-1.346,3-3-1.346-3-3-3ZM3,22c-.552,0-1,.448-1,1s.448,1,1,1,1-.448,1-1-.448-1-1-1Zm12,0c-.552,0-1,.448-1,1s.448,1,1,1,1-.448,1-1-.448-1-1-1Zm6,0c-.552,0-1,.448-1,1s.448,1,1,1,1-.448,1-1-.448-1-1-1Zm-3-3c-.552,0-1,.448-1,1s.448,1,1,1,1-.448,1-1-.448-1-1-1Zm3-3c-.552,0-1,.448-1,1s.448,1,1,1,1-.448,1-1-.448-1-1-1ZM.543,9.998c2.055-.177,3.838-1.393,4.894-3.334l.521-.961c1.293-2.928,3.554-4.685,6.04-4.7,2.492.016,4.752,1.772,6.063,4.737l.502.925c1.056,1.941,2.839,3.157,4.894,3.334.015.001.029.002.043.002.257,0,.475-.196.498-.457.024-.275-.18-.517-.455-.541-1.714-.148-3.209-1.175-4.101-2.816l-.484-.888C17.5,2,14.9.02,11.997.002c-2.897.018-5.497,1.998-6.937,5.259l-.502.925c-.892,1.642-2.387,2.668-4.101,2.816-.275.023-.479.266-.455.541.023.275.262.482.541.455Zm14.457,6.002c-.552,0-1,.448-1,1s.448,1,1,1,1-.448,1-1-.448-1-1-1Zm-3,3c-.552,0-1,.448-1,1s.448,1,1,1,1-.448,1-1-.448-1-1-1Zm11.781-5.903s-.599-.429-.858-.617c-.878-.639-2.15-.639-3.028,0-.934.681-2.312.681-3.245,0-.878-.639-2.151-.639-3.028,0-.933.68-2.312.68-3.244,0-.878-.639-2.15-.639-3.028,0-.933.681-2.311.681-3.245,0-.878-.639-2.15-.639-3.028,0-.258.188-.857.617-.857.617-.129.09-.219.233-.219.403,0,.276.224.5.5.5.106,0,.2-.041.281-.097,0,0,.622-.422.885-.615.527-.383,1.323-.383,1.851,0,1.278.932,3.144.932,4.422,0,.527-.383,1.323-.383,1.851,0,1.277.932,3.145.932,4.422,0,.527-.383,1.323-.383,1.851,0,.639.466,1.404.712,2.211.712s1.572-.246,2.211-.712c.527-.383,1.323-.383,1.851,0,.263.192.885.614.885.614.081.057.174.097.281.097.276,0,.5-.224.5-.5,0-.17-.09-.312-.219-.403Z"/>
</svg>
