<svg id="Layer_1" viewBox="0 0 24 24" xmlns="http://www.w3.org/2000/svg" data-name="Layer 1"><path d="m20 18h-1c-.551 0-1 .449-1 1v1c0 .551.449 1 1 1h1c.551 0 1-.449 1-1v-1c0-.551-.449-1-1-1zm0 2h-1v-1h1zm-5-2h-1c-.551 0-1 .449-1 1v1c0 .551.449 1 1 1h1c.551 0 1-.449 1-1v-1c0-.551-.449-1-1-1zm0 2h-1v-1h1zm7.5-10h-.763l-4.091-5h5.854c.276 0 .5-.224.5-.5s-.224-.5-.5-.5h-16.837c-.11-.192-.236-.375-.396-.536l-.732-.732c-.417-.416-.957-.656-1.536-.709v-1.523c0-.276-.224-.5-.5-.5s-.5.224-.5.5v1.592c-.581.207-1 .757-1 1.408v.5h-1.499c-.276 0-.5.224-.5.5s.224.5.5.5h1.5v.5c0 .651.419 1.201 1 1.408v16.092h-1.5c-.276 0-.5.224-.5.5s.224.5.5.5h6c.276 0 .5-.224.5-.5s-.224-.5-.5-.5h-1.5v-16.092c.581-.207 1-.757 1-1.408v-.268c0-.079-.016-.155-.023-.232h9.377l-4.091 5h-.763c-.827 0-1.5.673-1.5 1.5s.673 1.5 1.5 1.5h11c.827 0 1.5-.673 1.5-1.5s-.673-1.5-1.5-1.5zm-18.5 13v-16h1v16zm2-17.5c0 .276-.224.5-.5.5h-2c-.276 0-.5-.224-.5-.5v-2c0-.276.224-.5.5-.5h.268c.4 0 .777.156 1.061.439l.731.732c.284.284.44.661.44 1.061zm11 .29 3.445 4.21h-6.89zm5.5 6.21h-11c-.276 0-.5-.224-.5-.5s.224-.5.5-.5h11c.276 0 .5.224.5.5s-.224.5-.5.5zm-1 3h-9c-1.378 0-2.5 1.122-2.5 2.5v4c0 1.378 1.122 2.5 2.5 2.5h9c1.378 0 2.5-1.122 2.5-2.5v-4c0-1.378-1.122-2.5-2.5-2.5zm1.5 6.5c0 .827-.673 1.5-1.5 1.5h-9c-.827 0-1.5-.673-1.5-1.5v-4c0-.827.673-1.5 1.5-1.5h9c.827 0 1.5.673 1.5 1.5z"/></svg>