<svg id="Layer_1" viewBox="0 0 24 24" xmlns="http://www.w3.org/2000/svg" data-name="Layer 1"><path d="m23.268 7.732c-.974-.975-2.56-.977-3.535 0l-7.69 7.689-7.775-7.689c-.943-.945-2.592-.945-3.535 0-.975.975-.975 2.561 0 3.534l3.449 3.463c-.522.071-1.026.308-1.427.708-.974.975-.974 2.561.003 3.538l3.79 3.731c.847.834 1.968 1.293 3.157 1.293h2.797c.276 0 .5-.224.5-.5s-.224-.5-.5-.5h-2.797c-.924 0-1.796-.357-2.456-1.006l-3.787-3.729c-.584-.585-.584-1.536 0-2.121.585-.584 1.537-.584 2.122 0l1.893 1.893c.195.195.512.195.707 0 .195-.194.196-.511 0-.706l-6.745-6.769c-.585-.585-.585-1.536 0-2.121.566-.566 1.553-.568 2.123.002l15.586 15.414c.197.194.513.191.707-.004.194-.196.192-.513-.004-.707l-1.42-1.404 2.814-2.768c.473-.473.732-1.1.732-1.768s-.26-1.295-.732-1.768c-.399-.399-.924-.619-1.467-.681l3.489-3.489c.975-.975.975-2.561 0-3.535zm-.707 2.828-6.41 6.41c-.195.195-.195.512 0 .707.098.098.226.146.354.146s.256-.049.354-.146c0 0 1.536-1.509 1.561-1.533.566-.565 1.555-.567 2.121 0 .585.585.585 1.536.003 2.118l-2.821 2.774-4.967-4.912 7.686-7.685c.584-.584 1.537-.584 2.121 0s.585 1.536 0 2.121zm-15.833-1.329c-.276-.481-.274-1.055.006-1.534l4.046-6.937c.54-1.001 2.105-1.002 2.645 0l4.047 6.938c.613.97-.177 2.342-1.322 2.303h-1.149c-.276 0-.5-.224-.5-.5s.224-.5.5-.5h1.149c.489-.087.63-.333.459-.799l-4.048-6.938c-.32-.376-.597-.376-.917 0l-4.047 6.938c-.171.466-.031.711.458.799h.944c.276 0 .5.224.5.5s-.224.5-.5.5h-.944c-.555 0-1.052-.287-1.328-.769zm5.375-2.231c-.276 0-.5-.224-.5-.5v-3c0-.276.224-.5.5-.5s.5.224.5.5v3c0 .276-.224.5-.5.5zm0 1c.552 0 1 .448 1 1s-.448 1-1 1-1-.448-1-1 .448-1 1-1z"/></svg>