<svg id="Layer_1" viewBox="0 0 24 24" xmlns="http://www.w3.org/2000/svg" data-name="Layer 1"><path d="m1.75 18.32c-.18.2-1.75 1.94-1.75 3.18 0 .67.26 1.29.73 1.77s1.1.73 1.77.73 1.29-.26 1.77-.73.73-1.1.73-1.77c0-1.26-1.57-2.99-1.76-3.2-.41-.4-1.07-.4-1.49.02zm1.81 4.24c-.57.57-1.55.57-2.12 0-.28-.28-.44-.66-.44-1.06 0-.64.91-1.88 1.52-2.5.57.62 1.48 1.84 1.48 2.5 0 .4-.16.78-.44 1.06zm10.19-4.24c-.18.2-1.75 1.94-1.75 3.18 0 .67.26 1.29.73 1.77s1.1.73 1.77.73 1.29-.26 1.77-.73.73-1.1.73-1.77c0-1.26-1.57-2.99-1.76-3.2-.41-.4-1.07-.4-1.49.02zm1.81 4.24c-.57.57-1.55.57-2.12 0-.28-.28-.44-.66-.44-1.06 0-.64.91-1.88 1.52-2.5.57.62 1.48 1.84 1.48 2.5 0 .4-.16.78-.44 1.06zm7.84-21.64c-.49-.58-1.2-.92-1.96-.92h-18.87c-.77 0-1.49.34-1.97.93-.5.59-.7 1.36-.56 2.09l1.96 12.55c.04.24.24.41.47.42.23 0 .45-.15.51-.38l1.64-6.78 2.88 14.75c.05.23.25.4.48.4.23 0 .44-.16.49-.39l3.36-15.14 2.17 7.17c.13.42.83.42.96 0l2.17-7.16 2.86 13.12c.05.24.31.39.5.39.24 0 .44-.18.48-.42l2.97-18.57c.13-.75-.07-1.51-.56-2.09zm-.43 1.92-2.55 15.96-2.71-12.41c-.05-.22-.24-.38-.47-.39-.23 0-.43.14-.5.36l-2.25 7.42-2.25-7.42c-.07-.22-.23-.36-.5-.35-.23 0-.42.17-.47.39l-3.25 14.69-2.86-14.68c-.04-.23-.25-.4-.48-.4h-.01c-.23 0-.43.16-.49.38l-1.59 6.56-1.56-10.1c-.09-.46.04-.93.33-1.29.3-.36.74-.57 1.21-.57h18.87c.46 0 .9.2 1.2.56.3.35.42.82.34 1.28z"/></svg>