<svg id="Layer_1" viewBox="0 0 24 24" xmlns="http://www.w3.org/2000/svg" data-name="Layer 1"><path d="m11.998 23.455c.025.274-.178.518-.453.543-.271.025-.519-.177-.543-.453-.234-2.591-2.385-4.545-5.002-4.545s-4.768 1.954-5.002 4.545c-.025.275-.271.471-.543.453-.275-.025-.478-.269-.453-.543.282-3.11 2.86-5.455 5.998-5.455s5.716 2.345 5.998 5.455zm-9.998-11.455c0-2.206 1.794-4 4-4s4 1.794 4 4-1.794 4-4 4-4-1.794-4-4zm1 0c0 1.654 1.346 3 3 3s3-1.346 3-3-1.346-3-3-3-3 1.346-3 3zm21-5.5c0 3.584-2.916 6.5-6.5 6.5s-6.5-2.916-6.5-6.5 2.916-6.5 6.5-6.5 6.5 2.916 6.5 6.5zm-1 0c0-3.033-2.468-5.5-5.5-5.5s-5.5 2.467-5.5 5.5 2.468 5.5 5.5 5.5 5.5-2.467 5.5-5.5zm-2 0c0 .276-.224.5-.5.5h-3v1.558c0 .42-.237.79-.619.966-.378.175-.815.116-1.136-.158l-1.831-1.854c-.267-.266-.413-.62-.415-.997 0-.38.146-.736.412-1.004l1.801-1.837c.35-.303.786-.365 1.167-.19.383.175.621.545.621.967v1.551h3c.276 0 .5.224.5.5zm-4.5-2.051-.075-.075-1.802 1.838c-.081.081-.124.186-.124.298 0 .111.044.215.122.292 0 .001.002.002.004.004l1.802 1.828.073-.077z"/></svg>