<?xml version="1.0" encoding="UTF-8"?>
<svg xmlns="http://www.w3.org/2000/svg" id="Layer_1" data-name="Layer 1" viewBox="0 0 24 24">
  <path d="m22.275,6.834L14.775.958c-1.635-1.281-3.917-1.281-5.551,0L1.725,6.834c-1.096.858-1.725,2.149-1.725,3.542v9.124c0,2.481,2.019,4.5,4.5,4.5h15c2.481,0,4.5-2.019,4.5-4.5v-9.124c0-1.393-.629-2.684-1.725-3.542Zm.725,12.666c0,1.93-1.57,3.5-3.5,3.5H4.5c-1.93,0-3.5-1.57-3.5-3.5v-9.124c0-1.083.489-2.087,1.342-2.755L9.842,1.745c.635-.498,1.396-.747,2.158-.747s1.523.249,2.158.747l7.5,5.876c.853.668,1.341,1.672,1.341,2.755v9.124Zm-11.5-5v-6c0-.276.224-.5.5-.5s.5.224.5.5v6c0,.276-.224.5-.5.5s-.5-.224-.5-.5Zm6.5-.5c0,3.309-2.691,6-6,6s-6-2.691-6-6c0-1.949.956-3.784,2.556-4.909.227-.159.538-.104.697.122.159.226.104.537-.122.696-1.334.938-2.131,2.467-2.131,4.091,0,2.757,2.243,5,5,5s5-2.243,5-5c0-1.624-.797-3.153-2.131-4.091-.226-.159-.28-.471-.122-.696.159-.227.471-.281.697-.122,1.601,1.125,2.556,2.96,2.556,4.909Z"/>
</svg>
