<svg id="Layer_1" viewBox="0 0 24 24" xmlns="http://www.w3.org/2000/svg" data-name="Layer 1"><path d="m21.919 14.961-12.548-13.735c-.761-.79-1.786-1.224-2.884-1.226-1.082 0-2.094.424-2.834 1.178l-1.031.946c-1.054 1.073-1.635 2.491-1.635 3.993v.268c0 .276.224.492.5.492h1.513v1.505c0 .276.224.495.5.495h1.5v1.502c0 .276.224.498.5.498h1.5v1.499c0 .276.224.499.5.499h1.5v1.498c0 .276.224.499.5.499h1.5v1.498c0 .276.224.499.5.499h1.487v.495c-.612.687-.968 1.498-1.01 2.312-.048.949.312 1.835 1.035 2.558l.625.645c.747.747 1.73 1.12 2.711 1.12.974 0 1.944-.368 2.68-1.101l2.838-2.589c1.469-1.466 1.488-3.871.053-5.349zm-9.919.911v-1.498c0-.276-.224-.497-.5-.497h-1.5v-1.501c0-.276-.224-.499-.5-.499h-1.5v-1.498c0-.276-.224-.499-.5-.499h-1.5v-1.498c0-.276-.224-.499-.5-.499h-1.5v-1.498c0-.276-.224-.499-.5-.499h-1.507c.056-1.153.527-2.231 1.325-3.044l1.031-.946c.569-.578 1.328-.897 2.139-.897.823 0 1.592.328 2.154.91l9.826 10.756-4.48 3.81v-.103c0-.276-.224-.499-.5-.499h-1.487zm9.176 3.717-2.838 2.589c-1.101 1.097-2.893 1.098-3.987.003l-.625-.645c-.523-.524-.783-1.149-.75-1.807.033-.647.355-1.306.877-1.83l5.3-4.485 2.037 2.23c1.068 1.1 1.054 2.876-.015 3.944zm-1.822-4.453c-.182-.197-.486-.216-.691-.04l-4.04 3.447c-.021.018-.521.425-.583 1.098-.028.299.025.757.44 1.241.269.314.504.529.604.618.328.326.773.504 1.253.504.482 0 .948-.189 1.264-.504l2.91-2.663c.646-.705.632-1.798-.024-2.483l-1.132-1.219zm.449 2.997-2.895 2.647c-.287.286-.794.334-1.166-.029-.072-.066-.273-.249-.503-.517-.383-.447-.152-.767.021-.922l3.687-3.145.811.873c.299.312.305.807.045 1.093z"/></svg>