<?xml version="1.0" encoding="UTF-8"?>
<svg xmlns="http://www.w3.org/2000/svg" id="Layer_1" data-name="Layer 1" viewBox="0 0 24 24">
  <path d="m24,20.5c0,.276-.224.5-.5.5H.5c-.276,0-.5-.224-.5-.5s.224-.5.5-.5h23c.276,0,.5.224.5.5Zm-1.532-5.62c.519-.707.667-1.59.405-2.424-.392-1.25-.95-2.409-1.645-3.456H.5c-.276,0-.5-.224-.5-.5s.224-.5.5-.5h3.5V3H.5c-.276,0-.5-.224-.5-.5s.224-.5.5-.5c0,0,10.077-.008,10.113,0,4.595.193,8.711,2.524,11.253,6.161.871,1.503,1.645,2.806,1.962,3.997.307,1.155.155,2.349-.555,3.315-.713.971-1.812,1.527-3.015,1.527H.5c-.276,0-.5-.224-.5-.5s.224-.5.5-.5h19.759c.881,0,1.686-.408,2.209-1.12ZM10,3s-.007,0-.011,0h-4.989v5h5V3Zm10.495,5c-2.3-2.853-5.707-4.684-9.495-4.962v4.962h9.495Z"/>
</svg>
