<?xml version="1.0" encoding="UTF-8"?>
<svg xmlns="http://www.w3.org/2000/svg" id="Layer_1" data-name="Layer 1" viewBox="0 0 24 24">
  <path d="M10.5,23H4.5c-1.93,0-3.5-1.57-3.5-3.5V4.5c0-1.93,1.57-3.5,3.5-3.5h5.515c.334,0,.664,.03,.985,.087V6.5c0,1.378,1.122,2.5,2.5,2.5h5.813c.317,.008,.571-.319,.484-.624-.289-1.13-.877-2.163-1.702-2.987l-3.485-3.485c-1.228-1.228-2.86-1.904-4.596-1.904H4.5C2.019,0,0,2.019,0,4.5v15c0,2.481,2.019,4.5,4.5,4.5h6c.276,0,.5-.224,.5-.5s-.224-.5-.5-.5ZM12,1.368c.706,.272,1.353,.692,1.904,1.243l3.485,3.485c.542,.542,.964,1.192,1.24,1.904h-5.129c-.827,0-1.5-.673-1.5-1.5V1.368Zm5.5,9.632c-3.584,0-6.5,2.916-6.5,6.5s2.916,6.5,6.5,6.5,6.5-2.916,6.5-6.5-2.916-6.5-6.5-6.5Zm0,12c-3.033,0-5.5-2.467-5.5-5.5s2.467-5.5,5.5-5.5,5.5,2.467,5.5,5.5-2.467,5.5-5.5,5.5Zm.991-9.088c-.526-.547-1.477-.547-2.002,.002l-1.854,1.831c-.273,.319-.334,.754-.158,1.136s.546,.619,.966,.619h1.558v3c0,.276,.224,.5,.5,.5s.5-.224,.5-.5v-3h1.551c.421,0,.792-.238,.967-.621s.113-.819-.19-1.167l-1.836-1.8Zm1.06,2.588h-4.109l-.077-.074,1.828-1.802c.155-.164,.437-.166,.594,0l1.838,1.801-.075,.076Z"/>
</svg>
