<?xml version="1.0" encoding="UTF-8"?>
<svg xmlns="http://www.w3.org/2000/svg" id="Layer_1" data-name="Layer 1" viewBox="0 0 24 24">
  <path d="m8.697,6.78l-.684,2.19c-.168.54.022,1.129.473,1.466.229.172.513.267.8.267.265,0,.521-.078.742-.225l1.982-1.327,2.019,1.315c.473.308,1.092.282,1.54-.061.45-.346.631-.939.452-1.475l-.708-2.157,1.712-1.394c.427-.36.585-.954.394-1.478-.191-.523-.694-.875-1.252-.875h-2.148l-.769-2.159c-.194-.519-.696-.867-1.25-.867s-1.056.349-1.252.875l-.767,2.151h-2.148c-.557,0-1.06.351-1.25.873-.193.523-.038,1.117.396,1.483l1.719,1.398Zm-1.176-2.537c.048-.13.173-.218.312-.218h2.501c.212,0,.4-.133.471-.332l.883-2.476c.096-.261.531-.253.623-.007l.885,2.483c.07.199.259.332.471.332h2.501c.139,0,.265.088.312.219.048.13.008.279-.092.364l-1.972,1.606c-.161.131-.225.347-.159.543l.815,2.486c.045.134,0,.282-.111.367-.113.088-.268.092-.387.016l-2.295-1.495c-.168-.109-.385-.107-.551.003l-2.256,1.51c-.116.077-.273.074-.386-.01-.113-.084-.161-.232-.118-.368l.784-2.514c.061-.195-.003-.408-.162-.537l-1.974-1.605c-.105-.09-.145-.237-.096-.369Zm16.479,1.256v10.101c0,2.003-.78,3.886-2.196,5.303l-2.95,2.95c-.098.098-.226.146-.354.146s-.256-.049-.354-.146c-.195-.195-.195-.512,0-.707l2.95-2.95c1.228-1.228,1.903-2.86,1.903-4.596V5.5c0-.827-.673-1.5-1.5-1.5s-1.5.673-1.5,1.5c0,0,.002,8.036,0,8.054-.012.552-.209,1.101-.584,1.546l-2.639,2.746c-.098.102-.229.153-.36.153-.125,0-.25-.046-.347-.14-.199-.191-.205-.508-.014-.707l2.616-2.721c.225-.269.334-.613.327-.959v-.009c-.009-.346-.136-.693-.382-.968-.267-.297-.634-.474-1.032-.496-.39-.019-.782.113-1.08.38l-2.729,2.512c-.521.48-.925,1.053-1.229,1.691.291.746.452,1.542.452,2.356v4.559c0,.276-.224.5-.5.5s-.5-.224-.5-.5v-4.559c0-1.533-.647-3.009-1.776-4.048l-2.734-2.516c-.292-.263-.677-.395-1.075-.375-.398.022-.766.198-1.032.496-.494.551-.508,1.394-.032,1.96l2.594,2.695c.191.199.186.516-.014.707-.197.191-.515.187-.707-.014l-2.616-2.721c-.38-.452-.587-.999-.606-1.547-.004-.027,0-8.079,0-8.079,0-.827-.673-1.5-1.5-1.5s-1.5.673-1.5,1.5v10.101c0,1.736.676,3.368,1.903,4.596l2.95,2.95c.195.195.195.512,0,.707-.098.098-.226.146-.354.146s-.256-.049-.354-.146l-2.95-2.95c-1.416-1.417-2.196-3.3-2.196-5.303V5.5c0-1.378,1.121-2.5,2.5-2.5s2.5,1.122,2.5,2.5v5.997c.391-.294.86-.466,1.359-.494.674-.044,1.307.188,1.803.633l2.739,2.521c.43.395.793.849,1.098,1.336.306-.489.669-.94,1.099-1.336l2.734-2.516c.502-.45,1.146-.68,1.808-.637.5.027.969.199,1.359.494v-5.997c0-1.378,1.121-2.5,2.5-2.5s2.5,1.122,2.5,2.5Z"/>
</svg>
