<svg id="Layer_1" viewBox="0 0 24 24" xmlns="http://www.w3.org/2000/svg" data-name="Layer 1"><path d="m24 13.546c0 .585-.412 1.454-1.546 1.454h-.549l-.517 2.434c-.438 2.066-2.289 3.566-4.402 3.566h-.986v.5c0 1.379-1.121 2.5-2.5 2.5h-8c-1.472 0-2.5-1.028-2.5-2.5v-1.28c0-.926-.331-1.87-.957-2.732-1.487-2.051-2.168-4.561-1.969-7.259.073-.98.29-1.957.646-2.905.097-.259.388-.389.644-.292.259.097.39.386.292.644-.322.858-.519 1.742-.584 2.627-.182 2.459.434 4.74 1.779 6.597.751 1.034 1.148 2.183 1.148 3.32v1.28c0 1.107.808 1.5 1.5 1.5h8c.827 0 1.5-.673 1.5-1.5v-1c0-.276.224-.5.5-.5h1.486c1.644 0 3.083-1.166 3.424-2.773l.601-2.83c.049-.231.251-.396.487-.396h.956c.493 0 .546-.317.546-.454 0-.866-2.607-6.791-4.015-8.531-2.218-2.96-5.854-4.449-9.519-3.898-.441.066-.885.168-1.317.304-.265.086-.544-.064-.627-.328-.082-.263.064-.544.328-.626.482-.151.976-.265 1.468-.339 4.022-.603 8.028 1.033 10.456 4.273 1.374 1.698 4.226 7.862 4.226 9.145zm-23.854-9.692c-.195-.195-.195-.512 0-.707l3-3.001c.195-.195.512-.195.707 0s.195.512 0 .707l-1.147 1.147 1.717 1.716c.945-.926 2.575-.923 3.516.016 0 0 4.237 4.258 4.261 4.31.509.623.8 1.386.8 2.2v2.05l.854.854c.195.195.195.512 0 .707s-.512.195-.707 0l-.854-.854h-2.051c-.922 0-1.823-.374-2.475-1.025l-4.035-4.035c-.969-.969-.972-2.54-.016-3.516l-1.717-1.716-1.146 1.146c-.195.195-.512.195-.707 0zm4.965.585-.672.671c-.585.585-.585 1.537 0 2.122l4.035 4.035c.465.465 1.109.732 1.768.732h1.758v-1.757c0-.432-.119-.843-.325-1.211l-1.072 1.072c-.195.195-.512.195-.707 0s-.195-.512 0-.707l1.146-1.146-1.024-1.024-1.146 1.146c-.195.195-.512.195-.707 0s-.195-.512 0-.707l1.146-1.146-1.062-1.062-1.146 1.146c-.195.195-.512.195-.707 0s-.195-.512 0-.707l1.146-1.146-.311-.311c-.283-.283-.66-.439-1.061-.439s-.777.156-1.061.439z"/></svg>