<?xml version="1.0" encoding="UTF-8"?>
<svg xmlns="http://www.w3.org/2000/svg" id="Layer_1" data-name="Layer 1" viewBox="0 0 24 24">
  <path d="M19.5,7H6.269L20.693,.961c.255-.106,.375-.399,.269-.654-.107-.254-.4-.374-.654-.268L3.083,7.25c-1.785,.597-3.083,2.266-3.083,4.25v8c0,2.481,2.019,4.5,4.5,4.5h15c2.481,0,4.5-2.019,4.5-4.5V11.5c0-2.481-2.019-4.5-4.5-4.5ZM3.134,8.278c.448-.119,.876-.297,1.366-.278h15c1.391,0,2.585,.822,3.149,2H1.351c.368-.768,.997-1.387,1.783-1.722Zm19.866,11.222c0,1.93-1.57,3.5-3.5,3.5H4.5c-1.93,0-3.5-1.57-3.5-3.5V11.5c0-.171,.027-.335,.051-.5H22.949c.024,.165,.051,.329,.051,.5v8ZM7,14.5v2h2.5c.276,0,.5,.224,.5,.5s-.224,.5-.5,.5h-2.5v3c0,.276-.224,.5-.5,.5s-.5-.224-.5-.5v-6c0-.827,.673-1.5,1.5-1.5h2c.276,0,.5,.224,.5,.5s-.224,.5-.5,.5h-2c-.276,0-.5,.225-.5,.5Zm10.993-.5l.47,6.483c.02,.279-.201,.517-.481,.517-.278,.029-.539-.165-.556-.451l-.42-6.343-1.566,3.444c-.171,.377-.707,.377-.878,0l-1.566-3.444-.496,6.349c-.02,.251-.229,.445-.481,.445-.28,0-.501-.238-.481-.517l.47-6.483c.043-.705,.472-1,.988-1,.342,0,.66,.242,.841,.64l1.164,2.56,1.164-2.56c.181-.398,.499-.64,.841-.64,.516,0,.945,.295,.988,1Z"/>
</svg>
