<svg id="Layer_1" viewBox="0 0 24 24" xmlns="http://www.w3.org/2000/svg" data-name="Layer 1"><path d="m.04 5.305c.107-.255.398-.372.655-.266l3.52 1.49c.254.107.373.401.265.655-.107.258-.407.372-.655.266l-3.52-1.49c-.254-.107-.373-.401-.265-.655zm6.49-1.09c.107.258.407.372.655.266.254-.107.373-.401.265-.655l-1.49-3.521c-.106-.255-.399-.372-.655-.266-.254.107-.373.401-.265.655zm17.165 13.824-3.52-1.49c-.256-.107-.548.011-.655.266-.108.254.011.548.265.655l3.52 1.49c.248.106.548-.008.655-.266.108-.254-.011-.548-.265-.655zm-1.78-5.956-2.604 2.604c-.745.776-2.085.776-2.829 0l-.676-.676c-.776-.744-.776-2.084 0-2.828l2.454-2.455c.858-.858.942-2.239.187-3.077-.403-.447-.954-.702-1.553-.717-.631-.012-1.161.209-1.584.632l-2.561 2.561c-.778.779-2.049.78-2.829 0l-.676-.676c-.776-.744-.776-2.084 0-2.828l2.408-2.408c2.803-2.801 7.334-2.957 10.104-.348 1.416 1.333 2.212 3.137 2.24 5.078.029 1.942-.711 3.767-2.084 5.14zm-9.439-5.095-2.091-2.091-.432.432c-.388.372-.388 1.042 0 1.414l.676.676c.392.39 1.025.389 1.415 0l.432-.432zm6.56 6.56-2.091-2.091-.432.432c-.389.372-.387 1.042 0 1.414l.676.676c.379.378 1.036.379 1.415 0l.432-.432zm2.172-2.172c1.181-1.18 1.816-2.749 1.792-4.418-.025-1.668-.709-3.219-1.927-4.365-2.381-2.242-6.288-2.095-8.712.328l-1.269 1.269 2.091 2.091 1.422-1.422c.599-.599 1.389-.926 2.232-.926.903 0 1.749.375 2.354 1.049 1.105 1.227 1.006 3.225-.223 4.453l-1.315 1.315 2.091 2.091 1.465-1.465zm-3.738 8.409c-.107-.255-.4-.373-.655-.266-.254.107-.373.401-.265.655l1.49 3.521c.107.258.407.372.655.266.254-.107.373-.401.265-.655zm-2.716-3.302c.776.744.776 2.084 0 2.828l-2.604 2.605c-1.347 1.347-3.129 2.085-5.029 2.085-.037 0-.073 0-.11 0-1.941-.029-3.744-.825-5.078-2.241-2.608-2.771-2.452-7.304.35-10.105l2.407-2.408c.756-.757 2.073-.755 2.829 0l.676.676c.776.744.776 2.084 0 2.828l-2.561 2.561c-.423.423-.647.986-.632 1.585.016.598.27 1.149.717 1.551.837.754 2.219.671 3.077-.187l2.454-2.454c.756-.757 2.073-.756 2.829 0l.676.676zm-9.79-6.098 2.09 2.091.432-.432c.389-.372.387-1.042 0-1.414l-.676-.676c-.391-.39-1.025-.39-1.415 0l-.432.432zm7.944 9.358-2.091-2.09-1.315 1.315c-1.249 1.249-3.205 1.346-4.453.223-.653-.588-1.024-1.393-1.048-2.269-.022-.876.306-1.699.925-2.318l1.422-1.422-2.09-2.091-1.269 1.269c-2.423 2.422-2.57 6.331-.328 8.712 1.146 1.217 2.696 1.901 4.364 1.926 1.707.029 3.238-.611 4.418-1.791l1.465-1.465zm1.139-2.553-.676-.676c-.378-.376-1.034-.378-1.415 0l-.432.432 2.091 2.09.432-.432c.388-.373.388-1.042 0-1.414z"/></svg>