<?xml version="1.0" encoding="UTF-8"?>
<svg xmlns="http://www.w3.org/2000/svg" id="Layer_1" data-name="Layer 1" viewBox="0 0 24 24">
  <path d="M24,4.5v3c0,.276-.224,.5-.5,.5s-.5-.224-.5-.5v-3c0-1.93-1.57-3.5-3.5-3.5h-3c-.276,0-.5-.224-.5-.5s.224-.5,.5-.5h3c2.481,0,4.5,2.019,4.5,4.5ZM.5,8c.276,0,.5-.224,.5-.5v-3c0-1.93,1.57-3.5,3.5-3.5h2.961c.276,0,.5-.224,.5-.5s-.224-.5-.5-.5h-2.961C2.019,0,0,2.019,0,4.5v3c0,.276,.224,.5,.5,.5Zm6.961,15h-2.961c-1.93,0-3.5-1.57-3.5-3.5v-3c0-.276-.224-.5-.5-.5s-.5,.224-.5,.5v3c0,2.481,2.019,4.5,4.5,4.5h2.961c.276,0,.5-.224,.5-.5s-.224-.5-.5-.5Zm16.039-7c-.276,0-.5,.224-.5,.5v3c0,1.93-1.57,3.5-3.5,3.5h-3c-.276,0-.5,.224-.5,.5s.224,.5,.5,.5h3c2.481,0,4.5-2.019,4.5-4.5v-3c0-.276-.224-.5-.5-.5ZM14,6.5c0-1.379,1.122-2.5,2.5-2.5s2.5,1.121,2.5,2.5-1.122,2.5-2.5,2.5-2.5-1.121-2.5-2.5Zm1,0c0,.827,.673,1.5,1.5,1.5s1.5-.673,1.5-1.5-.673-1.5-1.5-1.5-1.5,.673-1.5,1.5Zm5.446,14.054c.128,0,.256-.049,.354-.146,.195-.195,.195-.512,0-.707L11.229,10.131c-1.505-1.506-3.954-1.506-5.459,0l-3.038,3.038c-.195,.195-.195,.512,0,.707s.512,.195,.707,0l3.038-3.038c1.115-1.115,2.93-1.115,4.045,0l9.57,9.569c.098,.098,.226,.146,.354,.146Z"/>
</svg>
