<svg id="Layer_1" viewBox="0 0 24 24" xmlns="http://www.w3.org/2000/svg" data-name="Layer 1"><path d="m24 16.5c0-.072.027.062 0 0zm0 0v6c0 1.036-1.758 1.5-3.5 1.5s-3.5-.464-3.5-1.5v-6c0-1 1.776-1.471 3.5-1.5 1.621 0 3.5.5 3.5 1.5zm-5.955 0c.235.185 1.073.5 2.455.5s2.22-.315 2.455-.5c-.235-.185-1.073-.5-2.455-.5s-2.22.315-2.455.5zm-.045 2.957c.145.173 1.002.543 2.5.543 1.531 0 2.391-.386 2.506-.554l-.004-1.854c-.667.274-1.583.407-2.502.407s-1.833-.133-2.5-.406v1.863zm5.013 2.983-.004-1.85c-.668.276-1.586.41-2.509.41s-1.833-.133-2.5-.406v1.906c.087.105.952.5 2.5.5s2.413-.395 2.513-.56zm-20.527-9.44h.026c.265 0 .485-.207.499-.474.132-2.528 1.336-4.899 3.305-6.504.214-.175.245-.49.071-.704s-.491-.246-.704-.072c-2.187 1.784-3.524 4.418-3.67 7.228-.015.276.197.511.473.525zm18.502-.474c.014.267.234.474.499.474h.026c.275-.015.487-.25.473-.525-.146-2.809-1.483-5.443-3.67-7.228-.214-.174-.529-.143-.704.072-.174.214-.143.529.071.704 1.969 1.605 3.173 3.976 3.305 6.504zm-12.128 3.454c-.266-.077-.418-.355-.341-.62l1.367-4.688c.114-.387.461-.646.863-.646s.749.259.862.646l1.368 4.689c.077.265-.075.543-.341.62-.258.077-.543-.073-.62-.34l-.187-.64h-2.166l-.187.64c-.078.264-.353.417-.62.34zm1.098-1.98h1.583l-.791-2.715-.791 2.715zm4.541-4c-.276 0-.5.224-.5.5v5c0 .276.224.5.5.5s.5-.224.5-.5v-5c0-.276-.224-.5-.5-.5zm-.131 11.685c-1.537.418-3.201.418-4.738 0-.268-.073-.54.086-.613.351-.072.267.085.542.352.614.854.232 1.738.35 2.631.35s1.777-.118 2.631-.35c.267-.072.424-.347.352-.614-.072-.266-.343-.425-.613-.351zm-7.369-5.185v6c0 1.036-1.758 1.5-3.5 1.5s-3.5-.464-3.5-1.5v-6c0-1 1.776-1.471 3.5-1.5 1.724.028 3.5.5 3.5 1.5zm-5.955 0c.235.185 1.073.5 2.455.5s2.22-.315 2.455-.5c-.235-.185-1.073-.5-2.455-.5s-2.22.315-2.455.5zm-.045 2.957c.145.173 1.002.543 2.5.543 1.531 0 2.391-.386 2.506-.554l-.004-1.854c-.667.274-1.583.407-2.502.407s-1.833-.133-2.5-.406v1.863zm5.013 2.983-.004-1.85c-.668.276-1.586.41-2.509.41s-1.833-.133-2.5-.406v1.906c.087.105.952.5 2.5.5s2.413-.395 2.513-.56zm9.488-20.94v6c0 1.036-1.758 1.5-3.5 1.5s-3.5-.464-3.5-1.5v-6c0-1 1.776-1.471 3.5-1.5 1.724.028 3.5.5 3.5 1.5zm-5.955 0c.235.185 1.073.5 2.455.5s2.22-.315 2.455-.5c-.235-.185-1.073-.5-2.455-.5s-2.22.315-2.455.5zm-.045 2.957c.145.173 1.002.543 2.5.543 1.531 0 2.391-.386 2.506-.554l-.004-1.854c-.667.274-1.583.407-2.502.407s-1.833-.133-2.5-.406v1.863zm5.013 2.983-.004-1.85c-.668.276-1.586.41-2.509.41s-1.833-.133-2.5-.406v1.906c.087.105.952.5 2.5.5s2.413-.395 2.513-.56z"/></svg>