<?xml version="1.0" encoding="UTF-8"?>
<svg xmlns="http://www.w3.org/2000/svg" id="Layer_1" data-name="Layer 1" viewBox="0 0 24 24">
  <path d="m24,19.5c0,.276-.224.5-.5.5h-3.5v3.5c0,.276-.224.5-.5.5s-.5-.224-.5-.5v-3.5h-3.5c-.276,0-.5-.224-.5-.5s.224-.5.5-.5h3.5v-3.5c0-.276.224-.5.5-.5s.5.224.5.5v3.5h3.5c.276,0,.5.224.5.5Zm-8.652,2.981c-1.08.344-2.206.519-3.348.519-6.065,0-11-4.935-11-11S5.935,1,12,1s11,4.935,11,11c0,1.144-.174,2.271-.519,3.348-.084.264.061.545.324.629.265.081.544-.062.628-.324.376-1.176.566-2.405.566-3.652C24,5.383,18.617,0,12,0S0,5.383,0,12s5.383,12,12,12c1.245,0,2.474-.19,3.652-.565.263-.084.408-.365.325-.628-.084-.264-.366-.408-.628-.325Zm-4.348-15.981v5.223l-3.765,2.354c-.234.146-.305.455-.159.688.095.152.258.235.424.235.09,0,.182-.024.265-.076l4-2.5c.146-.091.235-.251.235-.424v-5.5c0-.276-.224-.5-.5-.5s-.5.224-.5.5Z"/>
</svg>
