<svg id="Layer_1" viewBox="0 0 24 24" xmlns="http://www.w3.org/2000/svg" data-name="Layer 1"><path d="m21.5 14c-.276 0-.5.224-.5.5v5c0 1.93-1.57 3.5-3.5 3.5h-3.5v-8.5c0-.276-.224-.5-.5-.5s-.5.224-.5.5v8.5h-2v-10.5c0-.276-.224-.5-.5-.5h-7.5c-1.103 0-2-.897-2-2s.897-2 2-2c0 0 5.364.003 5.512 0 .276-.007.495-.213.488-.489 0-.002-.001-.003-.001-.005s.001-.004.001-.006c0-.276-.224-.5-.5-.5-.537.037-2.28-.024-2.487-.26-.959-.544-1.297-1.767-.753-2.727.544-.959 1.768-1.296 2.726-.753.132.075.421.305.873 1.01.149.231.458.3.691.151.232-.149.3-.458.151-.691-.439-.685-.838-1.123-1.221-1.34-1.44-.816-3.273-.309-4.09 1.13-.653 1.151-.448 2.546.392 3.48h-1.782c-1.654 0-3 1.346-3 3 0 1.302.839 2.402 2 2.816v6.684c0 2.481 2.019 4.5 4.5 4.5h11c2.481 0 4.5-2.019 4.5-4.5v-5c0-.276-.224-.5-.5-.5zm-18.5 5.5v-6.5h7v10h-3.5c-1.93 0-3.5-1.57-3.5-3.5zm14.5-19.5c-3.584 0-6.5 2.916-6.5 6.5s2.916 6.5 6.5 6.5 6.5-2.916 6.5-6.5-2.916-6.5-6.5-6.5zm0 12c-3.032 0-5.5-2.467-5.5-5.5s2.468-5.5 5.5-5.5 5.5 2.467 5.5 5.5-2.468 5.5-5.5 5.5zm-.5-4.5v-5c0-.276.224-.5.5-.5s.5.224.5.5v5c0 .276-.224.5-.5.5s-.5-.224-.5-.5zm1.5 2.5c0 .552-.448 1-1 1s-1-.448-1-1 .448-1 1-1 1 .448 1 1z"/></svg>