<svg id="Layer_1" viewBox="0 0 24 24" xmlns="http://www.w3.org/2000/svg" data-name="Layer 1"><path d="m3.5 13h3c1.93 0 3.5-1.57 3.5-3.5v-2c0-1.391-.822-2.585-2-3.149v-1.351c0-1.654-1.346-3-3-3s-3 1.346-3 3v1.351c-1.178.564-2 1.758-2 3.149v2c0 1.93 1.57 3.5 3.5 3.5zm-.5-10c0-1.103.897-2 2-2s2 .897 2 2v1.051c-.165-.024-.329-.051-.5-.051h-3c-.171 0-.335.027-.5.051zm-2 4.5c0-1.379 1.122-2.5 2.5-2.5h3c1.378 0 2.5 1.121 2.5 2.5v2c0 1.379-1.122 2.5-2.5 2.5h-3c-1.378 0-2.5-1.121-2.5-2.5zm3 1c0-.552.448-1 1-1s1 .448 1 1-.448 1-1 1-1-.448-1-1zm20 3.855v7.145c0 2.481-2.019 4.5-4.5 4.5h-6.367c-6.305 0-11.587-3.861-12.845-9.389-.062-.27.107-.537.376-.599.266-.066.537.106.598.376 1.154 5.07 6.036 8.611 11.87 8.611h6.367c1.93 0 3.5-1.57 3.5-3.5v-7.145c0-5.963-4.494-10.939-10.23-11.329-.734-.051-1.477-.027-2.206.066-.276.033-.524-.158-.56-.432-.035-.274.158-.525.432-.561.795-.098 1.603-.122 2.402-.07 6.259.426 11.163 5.841 11.163 12.327z"/></svg>