<svg id="Layer_1" viewBox="0 0 24 24" xmlns="http://www.w3.org/2000/svg" data-name="Layer 1"><path d="m13 5.5c0-.276.224-.5.5-.5h7c.276 0 .5.224.5.5s-.224.5-.5.5h-7c-.276 0-.5-.224-.5-.5zm8 3c0-.276-.224-.5-.5-.5h-7c-.276 0-.5.224-.5.5s.224.5.5.5h7c.276 0 .5-.224.5-.5zm-14 1.5c-1.378 0-2.5-1.122-2.5-2.5s1.122-2.5 2.5-2.5 2.5 1.122 2.5 2.5-1.122 2.5-2.5 2.5zm0-1c.827 0 1.5-.673 1.5-1.5s-.673-1.5-1.5-1.5-1.5.673-1.5 1.5.673 1.5 1.5 1.5zm12.5-9h-15c-2.481 0-4.5 2.019-4.5 4.5v11c0 2.481 2.019 4.5 4.5 4.5h7c.276 0 .5-.224.5-.5s-.224-.5-.5-.5h-7c-1.93 0-3.5-1.57-3.5-3.5v-11c0-1.93 1.57-3.5 3.5-3.5h15c1.93 0 3.5 1.57 3.5 3.5v6c0 .276.224.5.5.5s.5-.224.5-.5v-6c0-2.481-2.019-4.5-4.5-4.5zm-16.495 14.429c-.04.273.15.527.423.566.276.047.527-.15.566-.423.212-1.466 1.504-2.571 3.005-2.571s2.793 1.105 3.005 2.571c.038.275.298.464.566.423.273-.039.463-.293.423-.566-.282-1.955-2-3.429-3.995-3.429s-3.712 1.474-3.995 3.429zm20.995.1v3.707c-.047 2.355-1.382 4.258-3.861 5.512-.335.169-.776.252-1.139.252-.414 0-.75-.109-1.121-.327-2.492-1.462-3.833-3.338-3.879-5.427v-3.718c0-.864.551-1.626 1.371-1.898l2.631-.873c.644-.214 1.354-.214 1.997 0l2.631.872c.82.272 1.371 1.035 1.371 1.898zm-1 0c0-.432-.275-.813-.685-.949l-2.631-.872c-.221-.073-.452-.11-.684-.11s-.463.037-.684.11l-2.631.873c-.41.136-.685.517-.685.949v3.707c.038 1.737 1.177 3.28 3.385 4.575.403.237.89.253 1.303.044 2.158-1.092 3.273-2.649 3.312-4.629v-3.697z"/></svg>