<svg id="Layer_1" viewBox="0 0 24 24" xmlns="http://www.w3.org/2000/svg" data-name="Layer 1"><path d="m5 15.5c0 .276-.224.5-.5.5-1.93 0-3.5 1.57-3.5 3.5v4c0 .276-.224.5-.5.5s-.5-.224-.5-.5v-4c0-2.481 2.019-4.5 4.5-4.5.276 0 .5.224.5.5zm14.5-.5c-.276 0-.5.224-.5.5s.224.5.5.5c1.93 0 3.5 1.57 3.5 3.5v4c0 .276.224.5.5.5s.5-.224.5-.5v-4c0-2.481-2.019-4.5-4.5-4.5zm-1 6h-13c-.276 0-.5.224-.5.5s.224.5.5.5h13c.276 0 .5-.224.5-.5s-.224-.5-.5-.5zm-8.488-11.573c.016-.545.201-1.087.572-1.527l2.55-2.74c.188-.202.505-.212.707-.025.202.188.213.504.025.707l-2.533 2.721c-.459.547-.445 1.39.049 1.94.267.298.634.475 1.032.496.397.016.782-.112 1.08-.38l3.375-3.106c.719-.661 1.131-1.6 1.131-2.575v-4.438c0-.276.224-.5.5-.5s.5.224.5.5v4.437c0 1.255-.529 2.461-1.453 3.312l-2.212 2.035c1.059.948 1.665 2.28 1.665 3.716 0 2.757-2.243 5-5 5s-5-2.243-5-5c0-1.997 1.202-3.785 3.012-4.573zm.625 1.743c-.197-.219-.345-.467-.45-.729-1.325.675-2.188 2.044-2.188 3.56 0 2.206 1.794 4 4 4s4-1.794 4-4c0-1.181-.521-2.266-1.413-3.028l-.42.387c-.467.418-1.053.642-1.668.642-.712.001-1.388-.299-1.861-.83zm-4.138-1.17c.276 0 .5-.224.5-.5v-3.121c0-1.091.396-2.143 1.114-2.964l2.263-2.586c.183-.208.161-.523-.047-.706-.206-.181-.522-.162-.705.047l-2.263 2.586c-.877 1.002-1.361 2.289-1.361 3.622v3.121c0 .276.224.5.5.5z"/></svg>