<svg id="Layer_1" viewBox="0 0 24 24" xmlns="http://www.w3.org/2000/svg" data-name="Layer 1"><path d="m19.85 17.991c.197.193.201.51.008.707-2.087 2.129-4.877 3.302-7.857 3.302-.175 0-.35-.004-.523-.013-.276-.013-.489-.247-.476-.522s.236-.521.523-.476c2.837.12 5.611-.94 7.619-2.99.194-.197.512-.199.707-.008zm-18.169-9.005c.261.065.54-.097.604-.367 1.096-4.486 5.09-7.619 9.715-7.619s8.619 3.133 9.715 7.619c.065.269.34.436.604.367.269-.065.433-.336.367-.604-1.205-4.935-5.599-8.382-10.686-8.382s-9.481 3.447-10.687 8.381c-.065.268.099.539.367.604zm5.662 8.802c.641.748 1.657 2.418 1.657 3.712 0 1.379-1.122 2.5-2.5 2.5s-2.5-1.121-2.5-2.5c0-1.271 1.018-2.948 1.66-3.708.21-.248.517-.391.841-.392h.002c.323 0 .628.141.839.388zm.657 3.712c0-.917-.823-2.368-1.417-3.062-.058-.057-.111-.054-.159 0-.597.706-1.424 2.162-1.424 3.062 0 .827.673 1.5 1.5 1.5s1.5-.673 1.5-1.5zm-5.5-4.5c-1.378 0-2.5-1.121-2.5-2.5 0-1.269 1.018-2.948 1.66-3.708.21-.249.516-.391.84-.392.301.01.631.141.842.387.641.75 1.658 2.42 1.658 3.713 0 1.379-1.122 2.5-2.5 2.5zm1.5-2.5c0-.917-.823-2.368-1.417-3.063-.054-.064-.107-.057-.159 0-.597.707-1.424 2.165-1.424 3.062 0 .827.673 1.5 1.5 1.5s1.5-.673 1.5-1.5zm20 0c0 1.379-1.121 2.5-2.5 2.5s-2.5-1.121-2.5-2.5c0-1.27 1.019-2.948 1.66-3.708.21-.248.516-.391.84-.392h.004c.322 0 .628.141.839.387.641.751 1.657 2.422 1.657 3.713zm-1 0c0-.916-.823-2.368-1.417-3.063-.06-.07-.11-.061-.159 0-.597.707-1.424 2.164-1.424 3.062 0 .827.673 1.5 1.5 1.5s1.5-.673 1.5-1.5zm-18-4c0 .276.224.5.5.5s.5-.224.5-.5c0-1.215.771-2.5 1.5-2.5s1.5 1.285 1.5 2.5c0 .276.224.5.5.5s.5-.224.5-.5c0-1.652-1.069-3.5-2.5-3.5s-2.5 1.848-2.5 3.5zm11.5-3.5c-1.431 0-2.5 1.848-2.5 3.5 0 .276.224.5.5.5s.5-.224.5-.5c0-1.215.771-2.5 1.5-2.5s1.5 1.285 1.5 2.5c0 .276.224.5.5.5s.5-.224.5-.5c0-1.652-1.069-3.5-2.5-3.5zm-1.713 9.999h-5.586c-.424 0-.809-.196-1.031-.525-.192-.286-.229-.63-.101-.942.513-1.258 2.028-2.531 3.93-2.531s3.435 1.309 3.924 2.54c.124.312.084.653-.107.937-.223.327-.607.522-1.029.522zm-5.586-.999h5.586c.126 0 .201-.07.208-.097-.374-.933-1.596-1.903-2.996-1.903-1.446 0-2.627.983-3.004 1.908.006.022.08.092.206.092z"/></svg>