<svg id="Layer_1" viewBox="0 0 24 24" xmlns="http://www.w3.org/2000/svg" data-name="Layer 1"><path d="m6.838 7.868-2.757 2.527c-1.958 1.796-3.081 4.349-3.081 7.004v6.101c0 .276-.224.5-.5.5s-.5-.224-.5-.5v-6.101c0-2.936 1.241-5.757 3.405-7.74l2.757-2.527c.203-.188.519-.173.706.03s.173.52-.03.706zm14.162.031v4.101h.5c.276 0 .5.224.5.5s-.224.5-.5.5h-4c-.276 0-.5-.224-.5-.5s.224-.5.5-.5v-4h-2v1.5c0 .276-.224.5-.5.5s-.5-.224-.5-.5v-1.5h-1.5v.5c0 .276-.224.5-.5.5s-.5-.224-.5-.5v-.601c-.582-.218-1-.775-1-1.432 0-.562.306-1.077.799-1.346l3.747-2.044c.598-.326 1.311-.327 1.908 0l3.747 2.044c.492.268.799.783.799 1.345 0 .657-.418 1.215-1 1.432zm-9-1.432c0 .294.239.533.533.533h7.934c.294 0 .533-.239.533-.533 0-.195-.106-.374-.277-.467l-3.747-2.045c-.149-.081-.312-.121-.476-.121s-.326.04-.476.121l-3.747 2.044c-.171.093-.277.272-.277.468zm8 5.533v-4h-1.5v4zm4-7.5v13c0 2.481-2.019 4.5-4.5 4.5h-6c-1.097 0-2.121-.407-2.939-1.12-.363.565-.561 1.211-.561 1.885v.735c0 .276-.224.5-.5.5s-.5-.224-.5-.5v-.735c0-.931.283-1.825.818-2.587l3.887-5.532c.495-.721.362-1.69-.313-2.254-.645-.535-1.6-.516-2.219.047l-4.337 3.932c-.204.186-.52.171-.706-.034s-.17-.521.034-.706l4.337-3.932c.987-.897 2.504-.929 3.531-.074 1.01.842 1.247 2.252.615 3.376h8.353v-10.501c0-1.93-1.57-3.5-3.5-3.5h-6c-1.93 0-3.5 1.57-3.5 3.5v5c0 .276-.224.5-.5.5s-.5-.224-.5-.5v-5c0-2.481 2.019-4.5 4.5-4.5h6c2.481 0 4.5 2.019 4.5 4.5zm-1 13v-1.5h-9c-.008 0-.014-.004-.022-.004l-2.853 4.06c.649.604 1.483.944 2.374.944h6c1.93 0 3.5-1.57 3.5-3.5zm-5 .5h-3c-.276 0-.5.224-.5.5s.224.5.5.5h3c.276 0 .5-.224.5-.5s-.224-.5-.5-.5z"/></svg>