<?xml version="1.0" encoding="UTF-8"?>
<svg xmlns="http://www.w3.org/2000/svg" id="Layer_1" data-name="Layer 1" viewBox="0 0 24 24">
  <path d="M12,9.5v-3.5h-.5c-.276,0-.5-.224-.5-.5s.224-.5,.5-.5h2c.276,0,.5,.224,.5,.5s-.224,.5-.5,.5h-.5v3.5c0,.276-.224,.5-.5,.5s-.5-.224-.5-.5Zm-2.5-3.5c.276,0,.5-.224,.5-.5s-.224-.5-.5-.5h-1.5c-.276,0-.5,.224-.5,.5v4c0,.276,.224,.5,.5,.5s.5-.224,.5-.5v-1.5h1c.276,0,.5-.224,.5-.5s-.224-.5-.5-.5h-1v-1h1Zm-4-.5v2.48l-1.083-2.53c-.277-.733-1.445-.502-1.417,.284v3.766c0,.276,.224,.5,.5,.5s.5-.224,.5-.5v-2.484l1.082,2.529c.281,.739,1.444,.5,1.418-.283v-3.763c0-.276-.224-.5-.5-.5s-.5,.224-.5,.5Zm17.864,7.681l-6.806,7.639c-1.801,2.021-4.387,3.181-7.093,3.181H3.5c-1.93,0-3.5-1.57-3.5-3.5v-5c0-1.93,1.57-3.5,3.5-3.5H13.358c1.208,0,2.229,.814,2.542,1.922l3.732-4.102c.888-1.019,2.564-1.089,3.548-.166,1.011,.922,1.093,2.504,.184,3.526Zm-.857-2.787c-.593-.556-1.6-.513-2.135,.1l-4.495,4.94c-.301,.945-1.124,1.678-2.146,1.824l-6.172,.739c-.285,.035-.523-.164-.556-.437-.033-.274,.163-.523,.437-.556l6.161-.737c.792-.113,1.399-.812,1.399-1.624,0-.905-.737-1.642-1.642-1.642H3.5c-1.378,0-2.5,1.122-2.5,2.5v5c0,1.378,1.122,2.5,2.5,2.5h5.965c2.422,0,4.735-1.037,6.346-2.846l6.806-7.639c.548-.615,.498-1.567-.11-2.122ZM1.5,11c.276,0,.5-.224,.5-.5V5.5c0-.948,.55-1.829,1.402-2.246L7.402,1.298c.698-.342,1.498-.342,2.196,0l4,1.956c.852,.417,1.402,1.298,1.402,2.246v5c0,.276,.224,.5,.5,.5s.5-.224,.5-.5V5.5c0-1.327-.771-2.561-1.962-3.144L10.038,.4c-.978-.478-2.098-.478-3.075,0L2.962,2.356c-1.192,.583-1.962,1.817-1.962,3.144v5c0,.276,.224,.5,.5,.5Z"/>
</svg>
