<?xml version="1.0" encoding="UTF-8"?>
<svg xmlns="http://www.w3.org/2000/svg" id="Layer_1" data-name="Layer 1" viewBox="0 0 24 24">
  <path d="m14.851,4.629c-.082-.319.159-.629.488-.629.23,0,.431.156.488.38l1.091,4.309,1.052-4.305c.055-.225.257-.384.489-.384h.038c.329,0,.569.31.487.629l-1.51,5.872c-.065.254-.294.432-.557.432s-.491-.178-.557-.432l-1.51-5.872Zm-7.071-.629c-.299,0-.578.212-.736.56l-1.018,2.24-1.018-2.24c-.158-.348-.437-.56-.736-.56-.451,0-.827.258-.864.875l-.406,5.602c-.021.282.203.523.486.523.255,0,.467-.197.486-.451l.38-5.034,1.229,2.703c.173.381.714.381.888,0l1.228-2.696.345,5.024c.018.256.23.454.486.454h.035c.283,0,.507-.24.486-.523l-.406-5.602c-.037-.617-.413-.875-.864-.875Zm6.22,1.973v3.053c0,1.089-.897,1.975-2,1.975s-2-.886-2-1.975v-3.053c0-1.088.897-1.973,2-1.973s2,.885,2,1.973Zm-1,0c0-.527-.458-.973-1-.973s-1,.445-1,.973v3.053c0,.528.458.975,1,.975s1-.446,1-.975v-3.053Zm11-1.473v9.515c0,1.735-.676,3.368-1.904,4.597l-3.485,3.484c-1.227,1.228-2.859,1.904-4.596,1.904H4.5c-2.481,0-4.5-2.019-4.5-4.5V4.5C0,2.019,2.019,0,4.5,0h15c2.481,0,4.5,2.019,4.5,4.5Zm-9.985,18.5c.335,0,.663-.038.985-.096v-5.404c0-1.379,1.122-2.5,2.5-2.5h5.404c.058-.323.096-.651.096-.985V4.5c0-1.93-1.57-3.5-3.5-3.5H4.5c-1.93,0-3.5,1.57-3.5,3.5v15c0,1.93,1.57,3.5,3.5,3.5h9.515Zm8.606-7h-5.12c-.827,0-1.5.673-1.5,1.5v5.121c.704-.273,1.354-.682,1.904-1.232l3.485-3.484c.55-.551.959-1.2,1.231-1.904Z"/>
</svg>
