<svg id="Layer_1" viewBox="0 0 24 24" xmlns="http://www.w3.org/2000/svg" data-name="Layer 1"><path d="m2.869 5.958c-.237.654-.369 1.338-.369 2.042 0 3.309 2.691 6 6 6s6-2.691 6-6c0-.564-.086-1.12-.241-1.658l.642-2.295c.174-.518.119-1.01-.159-1.422-.271-.403-.704-.649-1.168-.675l-4.574-.464v-.986c0-.276-.224-.5-.5-.5s-.5.224-.5.5v.885l-3.668-.372c-.693-.044-1.38.273-1.837.847-.46.576-.609 1.314-.394 2.064l.768 2.033zm5.631 7.042c-2.757 0-5-2.243-5-5 0-.337.039-.675.104-1h9.785c.065.326.111.665.111 1 0 2.757-2.243 5-5 5zm-5.224-10.516c.251-.314.631-.504.975-.474l9.245.937c.173.01.321.094.418.237.101.149.113.328.033.57l-.632 2.256h-9.358l-.907-2.398c-.112-.396-.03-.806.226-1.127zm13.724 17.516c0 .552-.448 1-1 1s-1-.448-1-1 .448-1 1-1 1 .448 1 1zm0-4c0 .552-.448 1-1 1s-1-.448-1-1 .448-1 1-1 1 .448 1 1zm4 0c0 .552-.448 1-1 1s-1-.448-1-1 .448-1 1-1 1 .448 1 1zm-3-4c-3.309 0-6 2.691-6 5.997 0 3.426 2.961 6.003 5.209 6.003.964 0 1.815-.916 1.791-1.93v-1.528c0-.826.627-1.502 1.437-1.54.611-.04 1.218.346 1.456.942.132.33.438.537.8.54.389.014.68-.196.805-.495.295-.706.502-1.254.502-2.162 0-3.284-2.737-5.827-6-5.827zm4.692 7.3c-.46-.837-1.382-1.374-2.312-1.296-1.335.062-2.381 1.177-2.381 2.538v1.528c0 .287-.129.556-.354.736-.207.167-.454.229-.705.175-2.259-.491-3.954-2.632-3.941-4.981 0-2.757 2.243-5 5-5 2.712 0 4.9 2.104 4.992 4.794-.028.513-.128 1.018-.3 1.506zm-12.649-2.666c-.036.272-.287.467-.561.431-.325-.043-.655-.064-.983-.064-3.81 0-7.036 2.819-7.504 6.559-.033.275-.289.469-.558.434-.274-.034-.468-.284-.434-.559.53-4.237 4.183-7.434 8.496-7.434.371 0 .745.024 1.113.072.274.036.467.287.431.562z"/></svg>