<?xml version="1.0" encoding="UTF-8"?>
<svg xmlns="http://www.w3.org/2000/svg" id="Layer_1" data-name="Layer 1" viewBox="0 0 24 24">
  <path d="M20.5,0h-6c-1.93,0-3.5,1.57-3.5,3.5v5c0,1.93,1.57,3.5,3.5,3.5h6c1.93,0,3.5-1.57,3.5-3.5V3.5c0-1.93-1.57-3.5-3.5-3.5Zm-6,1h6c1.208,0,2.217,.86,2.449,2H12.051c.232-1.14,1.242-2,2.449-2Zm6,10h-6c-1.379,0-2.5-1.122-2.5-2.5V4h11v4.5c0,1.378-1.121,2.5-2.5,2.5Zm-8,4H1.05c.232-1.14,1.243-2,2.45-2h6c.276,0,.5-.224,.5-.5s-.224-.5-.5-.5H3.5c-1.93,0-3.5,1.57-3.5,3.5v5c0,1.93,1.57,3.5,3.5,3.5h6c1.93,0,3.5-1.57,3.5-3.5v-5c0-.276-.224-.5-.5-.5Zm-.5,5.5c0,1.379-1.121,2.5-2.5,2.5H3.5c-1.379,0-2.5-1.121-2.5-2.5v-4.5H12v4.5Zm11.847-2.86c.199,.191,.205,.508,.014,.707-.098,.102-.229,.153-.36,.153-.125,0-.25-.046-.347-.14l-2.153-2.07v4.21c0,1.93-1.57,3.5-3.5,3.5h-2c-.276,0-.5-.224-.5-.5s.224-.5,.5-.5h2c1.379,0,2.5-1.121,2.5-2.5v-4.21l-2.153,2.07c-.197,.192-.516,.186-.707-.014s-.186-.516,.014-.707l2.301-2.212c.573-.57,1.518-.572,2.099,.006l2.294,2.206ZM.153,6.36c-.199-.191-.205-.508-.014-.707s.51-.204,.707-.014l2.153,2.07V3.5c0-1.93,1.57-3.5,3.5-3.5h2c.276,0,.5,.224,.5,.5s-.224,.5-.5,.5h-2c-1.379,0-2.5,1.122-2.5,2.5V7.71l2.153-2.07c.198-.19,.517-.186,.707,.014,.191,.199,.186,.516-.014,.707l-2.301,2.212c-.286,.286-.664,.429-1.044,.429s-.764-.145-1.055-.435L.153,6.36Z"/>
</svg>
