<svg id="Layer_1" viewBox="0 0 24 24" xmlns="http://www.w3.org/2000/svg" data-name="Layer 1"><path d="m23.957 9.566c.269-.889-.622-1.789-1.514-1.524-1.12.298-2.722.92-3.988 2.192-1.324 1.33-1.948 3.017-2.232 4.106-.113-.581-.223-1.384-.223-2.341 0-.669.109-1.332.324-1.973.355-.963-.461-2.055-1.479-2.027h-1.949c-.139-.632-.396-1.997-.396-3.471 0-.775.145-1.62.431-2.511.152-.474.071-.978-.223-1.38-.296-.406-.755-.639-1.259-.639h-2.436c-.497 0-.968.239-1.261.641-.292.401-.374.899-.225 1.369.309.968.472 1.829.472 2.49 0 .898-.139 1.93-.269 2.704-.276-.949-.82-2.266-1.874-3.319-1.029-1.027-2.313-1.562-3.21-1.83-.941-.312-1.909.658-1.591 1.599.273.904.814 2.197 1.846 3.228.785.784 1.713 1.282 2.526 1.597-.996.346-2.191.933-3.184 1.93-1.267 1.273-1.895 2.893-2.2 4.027-.273.888.631 1.794 1.513 1.524 1.12-.298 2.721-.92 3.988-2.192 1.306-1.312 1.932-2.973 2.221-4.064.118.628.234 1.45.234 2.269 0 1.657-.477 3.377-.481 3.395-.011.082-.018.161-.007.243.005.022.488 2.219.488 3.892 0 .661-.163 1.522-.472 2.49-.15.47-.068.968.224 1.369.293.401.765.641 1.261.641h5.942c.501 0 .956-.231 1.25-.636.291-.401.37-.902.217-1.374-.28-.863-.423-1.691-.423-2.461 0-1.046.13-2.05.255-2.781.271.952.816 2.296 1.887 3.367 1.03 1.028 2.313 1.562 3.21 1.83.447.134.941.014 1.274-.322.333-.334.454-.823.316-1.276-.272-.904-.814-2.197-1.846-3.228-.785-.784-1.713-1.282-2.526-1.597.996-.346 2.19-.933 3.184-1.93 1.27-1.274 1.897-2.894 2.201-4.026zm-20.348-3.392c-.884-.884-1.356-2.016-1.596-2.81-.049-.266.115-.395.348-.351.786.234 1.907.698 2.789 1.578 1.053 1.053 1.525 2.463 1.724 3.286-.818-.192-2.215-.655-3.265-1.704zm1.228 6.887c-1.11 1.113-2.536 1.665-3.537 1.931-.216.026-.314-.073-.291-.298.272-1.018.831-2.464 1.943-3.581 1.277-1.281 2.996-1.803 3.927-2.002-.214.934-.761 2.662-2.042 3.95zm6.484 9.939h-2.307c-.355.012-.652-.367-.533-.705.344-1.081.519-2.021.519-2.795 0-1.246-.238-2.698-.39-3.5h3.261c-.153.764-.372 2.103-.372 3.529 0 .83.144 1.717.429 2.635.137.399-.184.848-.608.836zm-2.676-14h3.196c-.152.634-.341 1.682-.341 3 0 1.329.192 2.375.345 3h-3.208c.153-.693.364-1.859.364-3.029 0-1.149-.203-2.282-.355-2.971zm3.334-7.287c-.317.989-.479 1.937-.479 2.816 0 1.429.22 2.732.373 3.471h-3.267c.151-.788.394-2.241.394-3.5 0-.774-.175-1.714-.52-2.795-.118-.338.178-.717.533-.705h2.436c.36-.011.65.371.529.713zm.895 7.287h1.971c.357-.012.655.371.531.71-.25.743-.376 1.513-.376 2.29 0 1.317.188 2.366.34 3h-2.461c-.136-.492-.38-1.568-.38-3 0-1.411.236-2.488.374-3zm2.523 13.776c-.103.143-.264.224-.44.224h-2.126c.151-.354.172-.751.054-1.133-.255-.821-.384-1.608-.384-2.338 0-1.463.253-2.864.393-3.529h2.483c-.153.751-.376 2.089-.376 3.529 0 .875.159 1.807.472 2.771.054.163.026.338-.075.477zm4.994-4.95c.885.884 1.355 2.016 1.596 2.811.034.269-.08.384-.349.35-.785-.234-1.906-.698-2.788-1.578-1.053-1.053-1.525-2.463-1.724-3.286.818.192 2.215.655 3.265 1.704zm-3.27-2.937c.214-.934.761-2.662 2.043-3.95 1.109-1.113 2.535-1.665 3.536-1.931.216-.026.314.072.29.299-.271 1.016-.829 2.462-1.943 3.58-1.276 1.281-2.995 1.803-3.926 2.002z"/></svg>