<svg id="Layer_1" viewBox="0 0 24 24" xmlns="http://www.w3.org/2000/svg" data-name="Layer 1"><path d="m9 12c3.309 0 6-2.691 6-6s-2.691-6-6-6-6 2.691-6 6 2.691 6 6 6zm0-11c2.757 0 5 2.243 5 5s-2.243 5-5 5-5-2.243-5-5 2.243-5 5-5zm14.2 18h-.251c-.232-1.14-1.242-2-2.449-2h-6c-1.378 0-2.5 1.121-2.5 2.5v2c0 1.379 1.122 2.5 2.5 2.5h6c1.207 0 2.217-.86 2.449-2h.251c.441 0 .8-.358.8-.8v-1.4c0-.441-.359-.8-.8-.8zm-10.2 2.5v-2c0-.827.673-1.5 1.5-1.5h.5v5h-.5c-.827 0-1.5-.673-1.5-1.5zm7.5 1.5h-4.5v-5h4.5c.827 0 1.5.673 1.5 1.5v2c0 .827-.673 1.5-1.5 1.5zm-10.501-8.456c-.016.275-.26.498-.528.47-.156-.009-.312-.014-.471-.014-4.411 0-8 3.589-8 8v.5c0 .276-.224.5-.5.5s-.5-.224-.5-.5v-.5c0-4.963 4.038-9 9-9 .178 0 .354.005.529.016.276.017.486.253.47.528zm5.501-1.544c.295 0 .431-.907.55-1.707.2-1.336.448-2.999 1.596-4.147.106-.105.254-.157.403-.144.149.015.284.096.367.22.244.367.78.849 1.4 1.407 1.766 1.589 4.184 3.765 4.184 6.871 0 .276-.224.5-.5.5s-.5-.224-.5-.5c0-2.661-2.227-4.664-3.853-6.127-.439-.395-.838-.754-1.15-1.088-.622.908-.806 2.139-.958 3.156-.188 1.258-.382 2.559-1.54 2.559-.762 0-1.281-.549-1.595-1.051-.296.461-.673 1.188-.92 2.172-.067.268-.34.426-.606.364-.268-.067-.431-.339-.364-.606.527-2.11 1.586-3.188 1.631-3.232.123-.122.301-.171.467-.133.168.04.305.164.36.327.102.301.509 1.159 1.026 1.159z"/></svg>