<svg id="Layer_1" viewBox="0 0 24 24" xmlns="http://www.w3.org/2000/svg" data-name="Layer 1"><path d="m18.5 17h-14.5v-12.5c0-1.93 1.57-3.5 3.5-3.5h7c1.272 0 2.445.691 3.062 1.805.134.242.439.33.68.195.242-.134.329-.438.195-.68-.793-1.431-2.302-2.32-3.937-2.32h-7c-2.481 0-4.5 2.019-4.5 4.5v15c0 2.481 2.019 4.5 4.5 4.5h7c2.481 0 4.5-2.019 4.5-4.5v-2c0-.276-.224-.5-.5-.5zm-.5 2.5c0 1.93-1.57 3.5-3.5 3.5h-7c-1.93 0-3.5-1.57-3.5-3.5v-1.5h14zm-9 1c0-.276.224-.5.5-.5h3c.276 0 .5.224.5.5s-.224.5-.5.5h-3c-.276 0-.5-.224-.5-.5zm14-13.5s0 0 0 0v-3.5c.008-.335-.322-.547-.633-.5-.223 0-.419.147-.48.362-.299 1.041-1.169 1.638-2.386 1.638h-2.5c-1.654 0-3 1.346-3 3 0 .64.205 1.232.549 1.719l1.69 4.307c.232.592.793.974 1.429.974 1.053.031 1.844-1.141 1.423-2.106l-.76-1.894h1.171c1.217 0 2.087.597 2.386 1.638.073.273.35.392.613.362.276 0 .5-.224.5-.5v-3.5s0 0 0 0c.551 0 1-.449 1-1s-.449-1-1-1zm-4.838 6.267c.067.168.048.35-.053.498-.224.333-.794.271-.939-.104l-1.109-2.826c.297.099.609.165.939.165h.252zm1.338-3.267h-2.5c-1.103 0-2-.897-2-2s.897-2 2-2h2.5c1.021 0 1.885-.33 2.5-.923v5.846c-.615-.593-1.479-.923-2.5-.923z"/></svg>