<svg id="Layer_1" viewBox="0 0 24 24" xmlns="http://www.w3.org/2000/svg" data-name="Layer 1"><path d="m23.5 23h-2.5v-6.165c.996-.195 1.805-.57 2.573-1.175.903-.662.234-2.183-.863-1.979-.727.122-1.107.32-2.005.319h-1.705v-4.165c.996-.195 1.805-.57 2.573-1.175.403-.318.537-.849.332-1.32-.206-.473-.681-.74-1.196-.659-.727.122-1.106.321-2.004.319h-2.705v-2.004c.989-.002 1.363-.15 1.778-.361.934-.425.951-1.853-.054-2.188-.286-.104-.66-.196-1.051-.291-.95-.166-1.742-.592-2.501-1.035-.856-.471-1.916-1.052-1.94-1.065-.148-.079-.324-.079-.473 0-.031.017-1.005.558-1.832 1.018-.783.461-1.602.918-2.586 1.083-.396.095-.775.187-1.062.292-1.006.336-.986 1.747-.06 2.184.384.198.783.363 1.776.363h.003v2.004h-2.27c-.89-.012-1.587-.228-2.426-.355-.506-.074-.979.192-1.181.656-.204.467-.074.998.323 1.32.757.615 1.559 1.001 2.553 1.203v4.176h-1.27c-.92.01-1.573-.236-2.426-.355-.505-.075-.979.191-1.181.655-.204.467-.074.998.323 1.321.757.615 1.559 1.001 2.553 1.203v6.176h-2.496c-.276 0-.5.224-.5.5s.224.5.5.5h23c.276 0 .5-.224.5-.5s-.224-.5-.5-.5zm-15.503-19.003c-.831 0-1.067-.122-1.317-.251-.128-.066-.168-.17-.164-.239.003-.04.018-.084.107-.117.256-.094.597-.174.951-.258.61-.146 1.24-.297 1.686-.541.321-.178 2.318-1.288 2.737-1.521.617.338 2.002 1.098 2.771 1.521.445.243 1.068.394 1.671.539.35.085.686.165.942.258.07.026.105.067.109.129.004.068-.032.161-.146.217 0 0-.018.009-.018.009-.281.142-.503.253-1.344.253-1.021 0-2.139-.609-3.219-1.198l-.517-.279c-.146-.078-.323-.078-.469 0l-.465.25c-1.062.575-2.265 1.228-3.318 1.228zm7.003.873v2.131h-6v-2.132c.97-.234 1.924-.75 2.792-1.22l.222-.119.273.147c.843.459 1.769.963 2.713 1.193zm-11.922 2.975c-.088-.026-.035-.256.086-.21.267.038.521.09.775.143.544.112 1.11.237 1.795.222h12.971c.739 0 1.214-.116 1.633-.218.175-.043.343-.084.524-.113.083-.054.198.171.092.206-1.029.81-2.118 1.125-3.885 1.125h-10.069c-1.799 0-2.898-.324-3.922-1.155zm11.422 4.155c-.276 0-.5.224-.5.5v1.5h-4v-1.5c0-.276-.224-.5-.5-.5s-.5.224-.5.5v1.5h-3v-4.043c.316.026.644.043 1 .043h10.069c.33 0 .635-.015.931-.037v4.037h-3v-1.5c0-.276-.224-.5-.5-.5zm-13.422 2.846c-.088-.027-.036-.255.086-.211.268.038.522.091.778.144.543.111 1.106.224 1.792.222h16.971c.738 0 1.213-.116 1.631-.218.176-.043.345-.085.526-.113.086-.054.197.172.092.206-1.029.81-2.118 1.125-3.885 1.125h-14.069c-1.799 0-2.898-.324-3.922-1.154zm18.922 8.154h-2v-3.5c0-.276-.224-.5-.5-.5s-.5.224-.5.5v3.5h-2v-3.5c0-.276-.224-.5-.5-.5s-.5.224-.5.5v3.5h-4v-3.5c0-.276-.224-.5-.5-.5s-.5.224-.5.5v3.5h-2v-3.5c0-.276-.224-.5-.5-.5s-.5.224-.5.5v3.5h-2v-6.043c.316.026.644.043 1 .043h14.069c.33 0 .635-.015.931-.037z"/></svg>