<?xml version="1.0" encoding="UTF-8"?>
<svg xmlns="http://www.w3.org/2000/svg" id="Layer_1" data-name="Layer 1" viewBox="0 0 24 24">
  <path d="M23.566,20.553l-2.707,2.795c-.099,.102-.229,.152-.359,.152-.125,0-.251-.047-.348-.141-.198-.192-.204-.509-.012-.707l2.568-2.652H.5c-.276,0-.5-.224-.5-.5s.224-.5,.5-.5H22.709l-2.568-2.652c-.192-.198-.187-.515,.012-.707,.199-.191,.515-.187,.707,.012l2.712,2.801c.573,.575,.573,1.519-.005,2.1ZM17.5,1c3.032,0,5.5,2.467,5.5,5.5s-2.468,5.5-5.5,5.5h-4c-3.032,0-5.5-2.467-5.5-5.5,0-1.161,.356-2.27,1.032-3.208,.161-.224,.11-.537-.114-.698-.223-.161-.535-.112-.698,.114-.798,1.109-1.22,2.42-1.22,3.792,0,3.584,2.916,6.5,6.5,6.5h4c3.584,0,6.5-2.916,6.5-6.5S21.084,0,17.5,0c-.276,0-.5,.224-.5,.5s.224,.5,.5,.5ZM6.5,13c.276,0,.5-.224,.5-.5s-.224-.5-.5-.5c-3.032,0-5.5-2.467-5.5-5.5S3.468,1,6.5,1h4c3.032,0,5.5,2.467,5.5,5.5,0,1.161-.356,2.27-1.032,3.208-.161,.224-.11,.537,.114,.698,.088,.063,.19,.094,.292,.094,.155,0,.308-.072,.406-.208,.798-1.109,1.22-2.42,1.22-3.792,0-3.584-2.916-6.5-6.5-6.5H6.5C2.916,0,0,2.916,0,6.5s2.916,6.5,6.5,6.5Z"/>
</svg>
