<?xml version="1.0" encoding="UTF-8"?>
<svg xmlns="http://www.w3.org/2000/svg" id="Outline" viewBox="0 0 24 24">
  <path d="m20.38,4.693L13.682.431c-1.053-.577-2.311-.577-3.363,0L3.62,4.694c-1.015.646-1.62,1.75-1.62,2.953v11.854c0,2.481,2.019,4.5,4.5,4.5h11c2.481,0,4.5-2.019,4.5-4.5V7.646c0-1.203-.605-2.306-1.62-2.952Zm.62,14.807c0,1.93-1.57,3.5-3.5,3.5H6.5c-1.93,0-3.5-1.57-3.5-3.5V7.646c0-.859.433-1.648,1.157-2.109L10.812,1.3c.752-.404,1.642-.402,2.36-.009l6.67,4.246c.725.461,1.157,1.25,1.157,2.108v11.854ZM12,5c-1.103,0-2,.897-2,2s.897,2,2,2,2-.897,2-2-.897-2-2-2Zm0,3c-.552,0-1-.449-1-1s.448-1,1-1,1,.449,1,1-.448,1-1,1Z"/>
</svg>
