<svg id="Layer_1" viewBox="0 0 24 24" xmlns="http://www.w3.org/2000/svg" data-name="Layer 1"><path d="m2 6h2c1.103 0 2-.897 2-2v-.5h2c.551 0 1 .449 1 1v.5c0 .276.224.5.5.5s.5-.224.5-.5v-.5c0-1.103-.897-2-2-2h-2v-.5c0-1.103-.897-2-2-2h-2c-1.103 0-2 .897-2 2v2c0 1.103.897 2 2 2zm-1-4c0-.551.449-1 1-1h2c.551 0 1 .449 1 1v2c0 .551-.449 1-1 1h-2c-.551 0-1-.449-1-1zm21-2h-2c-1.103 0-2 .897-2 2v.5h-2c-1.103 0-2 .897-2 2v.5c0 .276.224.5.5.5s.5-.224.5-.5v-.5c0-.551.448-1 1-1h2v.5c0 1.103.897 2 2 2h2c1.103 0 2-.897 2-2v-2c0-1.103-.897-2-2-2zm1 4c0 .551-.448 1-1 1h-2c-.552 0-1-.449-1-1v-2c0-.551.448-1 1-1h2c.552 0 1 .449 1 1zm-1 14h-2c-1.103 0-2 .897-2 2v.5h-2c-.552 0-1-.449-1-1v-.5c0-.276-.224-.5-.5-.5s-.5.224-.5.5v.5c0 1.103.897 2 2 2h2v.5c0 1.103.897 2 2 2h2c1.103 0 2-.897 2-2v-2c0-1.103-.897-2-2-2zm1 4c0 .551-.448 1-1 1h-2c-.552 0-1-.449-1-1v-2c0-.551.448-1 1-1h2c.552 0 1 .449 1 1zm-6.002-8.146v-3.186c-.003-.898-.498-1.727-1.27-2.177l-2.504-1.414c-.76-.43-1.703-.43-2.461 0l-2.496 1.414c-.782.443-1.268 1.276-1.268 2.175v3.129c0 .895.482 1.726 1.259 2.17l2.515 1.437c.754.431 1.695.437 2.454.016l2.484-1.379c.794-.44 1.287-1.278 1.287-2.186zm-5.743-5.906c.456-.257 1.022-.258 1.477 0 0 0 2.611 1.495 2.664 1.536l-3.396 1.941-3.399-1.943c.053-.04 2.654-1.534 2.654-1.534zm-2.501 7.15c-.466-.267-.755-.766-.755-1.302v-3.129c0-.12.019-.237.047-.351l3.452 1.973v4.34c-.078-.028-2.744-1.531-2.744-1.531zm6.472.067s-2.645 1.448-2.728 1.476v-4.35l3.453-1.973c.027.114.047.23.047.35v3.186c0 .545-.296 1.047-.772 1.312zm-5.726 3.335c-.276 0-.5.224-.5.5v.5c0 .551-.449 1-1 1h-2v-.5c0-1.103-.897-2-2-2h-2c-1.103 0-2 .897-2 2v2c0 1.103.897 2 2 2h2c1.103 0 2-.897 2-2v-.5h2c1.103 0 2-.897 2-2v-.5c0-.276-.224-.5-.5-.5zm-4.5 3.5c0 .551-.449 1-1 1h-2c-.551 0-1-.449-1-1v-2c0-.551.449-1 1-1h2c.551 0 1 .449 1 1z"/></svg>