<svg id="Layer_1" viewBox="0 0 24 24" xmlns="http://www.w3.org/2000/svg" data-name="Layer 1"><path d="m14.999 15.534c-.052.744-.085 1.493-.283 2.243-.698 2.644-2.274 4.223-4.216 4.223-2.561.043-3.575-1.951-6-2-1.677 0-3.269 1.627-3.476 3.554-.027.256-.244.446-.497.446-.295.002-.531-.26-.498-.554.264-2.451 2.27-4.446 4.47-4.446 2.561-.043 3.575 1.951 6 2 2.163 0 3.034-2.662 3.25-3.479.171-.643.204-1.353.251-2.056.02-.275.26-.485.534-.465.275.02.483.258.464.533zm8.501 4.466c-.276 0-.5.224-.5.5 0 1.379-1.122 2.5-2.5 2.5s-2.5-1.121-2.5-2.5c0-1.984 1.496-3.694 2.138-4.338 1.15-1.15 1.15-3.093 0-4.243-1.197-1.224-3.08-1.208-4.242 0-.195.195-.195.512 0 .707s.512.195.707 0c.79-.822 2.008-.838 2.828 0 .753.754.753 2.075 0 2.829-.731.731-2.431 2.687-2.431 5.045 0 1.93 1.57 3.5 3.5 3.5s3.5-1.57 3.5-3.5c0-.276-.224-.5-.5-.5zm-7.175-10.4c.197-.193.2-.51.006-.707l-3.975-4.041 2.117-2.082 5.843 5.911c.194.196.511.198.707.004s.198-.511.004-.707l-5.842-5.91.341-.336c.945-.945 2.593-.943 3.534-.002l4.084 4.121c.194.195.511.198.707.004s.197-.512.003-.707l-4.084-4.123c-1.322-1.322-3.631-1.319-4.947-.003l-14.674 14.429c-.197.193-.2.51-.006.707.193.197.51.199.707.006l5.094-5.009 5.164 5.231c.195.196.511.199.707.004.197-.193.199-.51.005-.707l-5.163-5.23 2.125-2.089 3.909 3.976c.193.197.51.199.707.006s.2-.51.006-.707l-3.909-3.976 2.147-2.111 3.975 4.042c.193.197.51.199.707.006z"/></svg>