<?xml version="1.0" encoding="UTF-8"?>
<svg xmlns="http://www.w3.org/2000/svg" id="Layer_1" data-name="Layer 1" viewBox="0 0 24 24">
  <path d="M3.396,3.36l-.421,1.263c-.132,.447-.816,.447-.948,0l-.423-1.269-1.27-.449c-.445-.141-.432-.824,.018-.948l1.256-.393,.419-1.257c.136-.408,.812-.408,.948,0l.421,1.263,1.263,.421c.447,.132,.447,.816,0,.948l-1.263,.421Zm-.09,4.555c-.41-.157-.397-.788,.018-.929l1.937-.733,.776-1.938c.15-.381,.777-.381,.928,0l.778,1.943,1.943,.778c.412,.148,.412,.78,0,.928l-1.943,.778-.778,1.943c-.148,.412-.78,.412-.928,0l-.78-1.948-1.95-.822Zm1.54-.437l.991,.418c.123,.052,.221,.151,.27,.275l.394,.982,.394-.982c.051-.127,.151-.228,.278-.278l.982-.394-.982-.394c-.127-.051-.228-.151-.278-.278l-.394-.982-.394,.982c-.052,.13-.156,.232-.287,.282l-.974,.368Zm8.742,11.364l.383,2.822c.24,1.162-.771,2.371-1.971,2.335-1.212,.03-2.212-1.171-1.968-2.356l.356-2.795c-3.686-.698-6.628-3.752-7.265-7.771-.043-.272,.144-.528,.416-.572,.268-.043,.529,.143,.572,.416,.646,4.11,3.985,7.061,7.889,7.078,4.393-.013,8.005-3.805,8-8.5,0-4.687-3.589-8.5-8-8.5-1.578,0-3.104,.487-4.411,1.409-.226,.158-.537,.104-.697-.121-.158-.226-.104-.538,.121-.697,1.478-1.041,3.202-1.591,4.987-1.591,4.963,0,9,4.262,9,9.5,0,4.666-3.205,8.548-7.412,9.343Zm-.992,.125c-.402,.039-.814,.039-1.216,.003l-.36,2.825c-.058,.318,.021,.617,.212,.845,.381,.457,1.154,.457,1.535,0,.19-.228,.27-.526,.216-.819l-.387-2.853Z"/>
</svg>
