<svg id="Layer_1" viewBox="0 0 24 24" xmlns="http://www.w3.org/2000/svg" data-name="Layer 1"><path d="m22.232 18.27c-.815 1.393-2.768 1.859-4.126.99-.235-.145-.309-.452-.165-.688.146-.236.452-.31.688-.165.455.279.993.364 1.512.24.52-.125.959-.444 1.237-.899.279-.456.364-.993.24-1.513-.125-.52-.444-.959-.899-1.237l-.746-.458c-.187-.114-.277-.337-.223-.55.165-.646.249-1.315.249-1.989s-.084-1.343-.249-1.989c-.055-.212.036-.436.224-.55l.745-.457c.939-.576 1.236-1.81.659-2.75-.542-.929-1.846-1.241-2.75-.661l-.746.458c-.188.115-.428.093-.593-.051-.86-.759-1.849-1.313-2.937-1.647-.21-.064-.354-.258-.354-.478v-.874c0-1.103-.897-2-2-2s-2 .897-2 2v.874c0 .22-.143.414-.353.478-1.088.334-2.077.888-2.938 1.647-.165.146-.405.165-.592.051l-.747-.458c-.941-.577-2.174-.28-2.75.661-.576.94-.28 2.174.661 2.75l.745.457c.187.115.277.338.223.55-.165.646-.249 1.315-.249 1.989s.084 1.344.249 1.989c.054.213-.036.436-.223.55l-.745.457c-.929.543-1.241 1.845-.661 2.751.279.455.719.774 1.238.899.519.123 1.056.038 1.512-.24.236-.144.543-.069.688.165.145.235.07.544-.165.688-.478.292-1.015.442-1.562.442-1.033.005-2.03-.546-2.563-1.433-.87-1.358-.402-3.312.991-4.126l.438-.268c-.13-.614-.196-1.243-.196-1.876s.066-1.262.196-1.875l-.438-.268c-1.41-.864-1.855-2.714-.991-4.125.863-1.41 2.715-1.855 4.125-.991l.439.269c.803-.653 1.698-1.155 2.668-1.497v-.512c0-1.654 1.346-3 3-3s3 1.346 3 3v.512c.97.342 1.865.844 2.668 1.497l.438-.269c1.359-.869 3.311-.402 4.126.991.864 1.411.42 3.261-.99 4.125l-.438.268c.13.614.195 1.243.195 1.875s-.065 1.262-.195 1.876l.438.269c1.392.813 1.86 2.768.99 4.125zm-5.813-5.272c.27.032.521-.168.551-.444.02-.182.03-.366.03-.553 0-2.757-2.243-5-5-5s-5 2.243-5 5c0 .188.01.373.03.555.028.256.245.445.497.445.295.002.532-.261.498-.555-.016-.146-.024-.295-.024-.445 0-2.206 1.794-4 4-4s4 1.794 4 4c0 .151-.009.3-.024.447-.029.274.169.521.443.55zm-5.12 3.932c-.391.391-.391 1.024 0 1.414.391.391 1.024.391 1.414 0 .391-.391.391-1.024 0-1.414s-1.024-.391-1.414 0zm4.014 1.188c1.113 1.17 1.729 2.581 1.693 3.896-.005.14-.013.279-.027.419-.025.274-.149.536-.349.734-.46.456-1.195.474-1.671.037l-1.319-1.204h-1.134v1.5c0 .276-.224.5-.5.5s-.5-.224-.5-.5v-1.5h-1.131l-1.314 1.227c-.234.22-.531.329-.828.329-.579.017-1.153-.481-1.205-1.072-.199-1.734.709-3.365 1.67-4.366.214-2.011.817-4.285 1.888-7.136.225-.596.782-.981 1.419-.981s1.194.385 1.418.98c1.056 2.807 1.658 5.081 1.889 7.137zm.693 3.867c.029-1.089-.526-2.288-1.525-3.288-.081-.081-.132-.188-.144-.303-.207-2.014-.794-4.257-1.849-7.061-.116-.309-.399-.333-.482-.333-.084 0-.367.024-.483.333-1.071 2.85-1.658 5.092-1.847 7.057-.011.117-.063.227-.147.31-.837.82-1.673 2.215-1.506 3.67.018.164.237.246.356.126l1.459-1.361c.093-.087.215-.135.341-.135h3.657c.125 0 .245.047.337.131l1.462 1.335c.122.117.337.034.351-.131.012-.118.02-.234.022-.351z"/></svg>