<svg id="Layer_1" viewBox="0 0 24 24" xmlns="http://www.w3.org/2000/svg" data-name="Layer 1"><path d="m5.5 9c.421 0 .801-.176 1.074-.456.96 2.039 3.028 3.456 5.426 3.456s4.467-1.418 5.426-3.456c.273.281.653.456 1.074.456.827 0 1.5-.673 1.5-1.5v-3c0-.827-.673-1.5-1.5-1.5-.421 0-.801.176-1.074.456-.96-2.039-3.028-3.456-5.426-3.456s-4.467 1.418-5.426 3.456c-.273-.281-.653-.456-1.074-.456-.827 0-1.5.673-1.5 1.5v3c0 .827.673 1.5 1.5 1.5zm6.5 2c-2.757 0-5-2.243-5-5 0-.342.035-.677.101-1h2.899c.817 0 1.543-.394 2-1.002.457.608 1.184 1.002 2 1.002h2.899c.066.323.101.658.101 1 0 2.757-2.243 5-5 5zm6.5-7c.275 0 .5.225.5.5v3c0 .275-.225.5-.5.5s-.5-.225-.5-.5v-3c0-.275.225-.5.5-.5zm-6.5-3c2.045 0 3.802 1.237 4.576 3h-2.576c-.827 0-1.5-.673-1.5-1.5 0-.276-.224-.5-.5-.5s-.5.224-.5.5c0 .827-.673 1.5-1.5 1.5h-2.576c.774-1.763 2.531-3 4.576-3zm-7 3.5c0-.275.224-.5.5-.5s.5.225.5.5v3c0 .275-.224.5-.5.5s-.5-.225-.5-.5zm16 18.5v.5c0 .276-.224.5-.5.5s-.5-.224-.5-.5v-.5c0-4.411-3.589-8-8-8s-8 3.589-8 8v.5c0 .276-.224.5-.5.5s-.5-.224-.5-.5v-.5c0-4.963 4.038-9 9-9s9 4.037 9 9z"/></svg>