<?xml version="1.0" encoding="UTF-8"?>
<svg xmlns="http://www.w3.org/2000/svg" id="Layer_1" data-name="Layer 1" viewBox="0 0 24 24">
  <path d="M3,10c1.103,0,2-.897,2-2s-.897-2-2-2-2,.897-2,2,.897,2,2,2Zm0-3c.552,0,1,.448,1,1s-.448,1-1,1-1-.448-1-1,.448-1,1-1Zm5-1c-1.103,0-2,.897-2,2s.897,2,2,2,2-.897,2-2-.897-2-2-2Zm0,3c-.552,0-1-.448-1-1s.448-1,1-1,1,.448,1,1-.448,1-1,1Zm5,1c1.103,0,2-.897,2-2s-.897-2-2-2-2,.897-2,2,.897,2,2,2Zm0-3c.552,0,1,.448,1,1s-.448,1-1,1-1-.448-1-1,.448-1,1-1Zm10.363,9.181l-6.806,7.64c-.099,.11-.235,.167-.373,.167-.118,0-.237-.042-.333-.127-.206-.184-.224-.499-.04-.706l6.806-7.64c.548-.614,.499-1.565-.11-2.121-.593-.555-1.6-.513-2.134,.101l-4.503,4.948s-.004,.003-.006,.005c-.305,.938-1.117,1.666-2.133,1.811l-6.172,.738c-.273,.036-.523-.162-.556-.437-.033-.274,.162-.523,.437-.556l6.161-.737c.793-.113,1.398-.812,1.398-1.624,0-.905-.737-1.643-1.643-1.643H3.5c-1.379,0-2.5,1.121-2.5,2.5v5c0,.276-.224,.5-.5,.5s-.5-.224-.5-.5v-5c0-1.93,1.57-3.5,3.5-3.5H13.357c1.209,0,2.221,.822,2.533,1.932l3.742-4.112c.89-1.016,2.563-1.099,3.548-.166,1.012,.923,1.094,2.505,.183,3.526ZM5.011,13.398c.288-1.39,1.545-2.398,2.989-2.398s2.701,1.009,2.989,2.398c.142,.631-.853,.843-.979,.203-.192-.928-1.038-1.602-2.011-1.602s-1.818,.674-2.011,1.602c-.057,.271-.324,.449-.591,.388-.271-.056-.444-.32-.388-.591Zm7.989-2.398c1.444,0,2.701,1.009,2.989,2.398,.142,.631-.853,.843-.979,.203-.192-.928-1.038-1.602-2.011-1.602-.139,0-.274,.014-.405,.039-.258,.047-.533-.124-.586-.396-.052-.271,.125-.533,.396-.586,.191-.037,.392-.057,.595-.057ZM.011,13.398c.288-1.39,1.545-2.398,2.989-2.398,.203,0,.403,.02,.595,.057,.271,.053,.448,.315,.396,.586-.054,.272-.328,.442-.586,.396-.131-.025-.267-.039-.405-.039-.973,0-1.818,.674-2.011,1.602-.125,.64-1.12,.428-.979-.203ZM5.778,2.678c-.28-.22-.099-.696,.255-.684h1.181l.418-1.156c.112-.331,.625-.331,.737,0l.418,1.156h1.181c.354-.012,.535,.466,.253,.685l-.931,.748,.385,1.156c.126,.338-.296,.65-.588,.447l-1.084-.696-1.066,.703c-.29,.207-.714-.1-.594-.439l.37-1.17-.936-.75Zm5.433,.87c-.225-.177-.079-.56,.205-.55h.951l.336-.931c.09-.266,.503-.266,.594,0l.336,.931h.951c.285-.01,.431,.375,.204,.551l-.75,.602,.31,.931c.101,.272-.239,.523-.474,.36l-.872-.56-.858,.566c-.233,.167-.575-.081-.478-.353l.298-.942-.753-.604ZM1.213,3.548c-.225-.177-.079-.56,.205-.55h.951l.336-.931c.09-.266,.503-.266,.594,0l.336,.931h.951c.133,0,.252,.082,.298,.205,.046,.123,.008,.262-.094,.346l-.749,.602,.31,.931c.101,.272-.239,.523-.474,.36l-.872-.56-.858,.566c-.233,.167-.575-.081-.478-.353l.298-.942-.753-.604Z"/>
</svg>
