<svg id="Layer_1" viewBox="0 0 24 24" xmlns="http://www.w3.org/2000/svg" data-name="Layer 1"><path d="m21.247 18.571c1.039-.573 1.753-1.666 1.753-2.934 0-2.637-1.88-4.91-4.471-5.403l-4.259-.811c-1.085-.207-1.896-1.083-2.016-2.17l-.454-5.106c-.099-.688-.482-1.308-1.054-1.703-.571-.396-1.289-.535-1.983-.379l-5.157 1.362c-1.534.405-2.606 1.796-2.606 3.384v9.689c0 1.624.872 3.036 2.165 3.828-.982.493-1.665 1.5-1.665 2.672 0 1.654 1.346 3 3 3 1.044 0 1.962-.537 2.5-1.348.538.811 1.456 1.348 2.5 1.348s1.962-.537 2.5-1.348c.538.811 1.456 1.348 2.5 1.348s1.962-.537 2.5-1.348c.538.811 1.456 1.348 2.5 1.348 1.654 0 3-1.346 3-3 0-1.001-.497-1.883-1.253-2.429zm-19.247-4.071v-9.689c0-1.134.766-2.127 1.862-2.417l5.138-1.357c.805-.209 1.71.411 1.808 1.226l.332 3.738h-3.14c-.276 0-.5.224-.5.5s.224.5.5.5h3.229l.031.352c.049.447.188.862.386 1.241l-2.752 1.672c-.236.144-.311.451-.168.687.146.238.455.309.688.167l2.817-1.712c.409.42.925.731 1.51.904l-1.676 2.941c-.137.24-.053.545.188.682.236.135.543.055.682-.187l1.83-3.212 3.577.681c2.12.404 3.658 2.263 3.658 4.421 0 1.303-1.06 2.362-2.362 2.362h-14.138c-1.93 0-3.5-1.57-3.5-3.5zm2.5 8.5c-1.103 0-2-.897-2-2s.897-2 2-2 2 .897 2 2-.897 2-2 2zm5 0c-1.103 0-2-.897-2-2s.897-2 2-2 2 .897 2 2-.897 2-2 2zm5 0c-1.103 0-2-.897-2-2s.897-2 2-2 2 .897 2 2-.897 2-2 2zm5 0c-1.103 0-2-.897-2-2s.897-2 2-2 2 .897 2 2-.897 2-2 2z"/></svg>