<?xml version="1.0" encoding="UTF-8"?>
<svg xmlns="http://www.w3.org/2000/svg" id="Layer_1" data-name="Layer 1" viewBox="0 0 24 24">
  <path d="m15.299,12c2.412-1.942,5.183-4.367,5.67-8.026.134-1.006-.172-2.019-.839-2.781-.664-.758-1.622-1.192-2.629-1.192H6.5c-1.007,0-1.965.436-2.629,1.193-.667.764-.974,1.778-.839,2.785.489,3.656,3.258,6.08,5.669,8.021-2.411,1.941-5.18,4.365-5.669,8.021-.134,1.005.171,2.019.839,2.781.666.76,1.626,1.196,2.635,1.196h10.989c1.009,0,1.97-.436,2.635-1.195.667-.762.973-1.774.84-2.777-.487-3.659-3.258-6.084-5.67-8.026Zm4.078,10.145c-.476.544-1.162.855-1.883.855H6.505c-.721,0-1.406-.312-1.882-.856-.478-.546-.697-1.271-.601-1.989.469-3.508,3.419-5.868,5.79-7.764.119-.095.188-.238.188-.391s-.069-.296-.188-.391c-2.37-1.896-5.32-4.256-5.79-7.764-.097-.721.123-1.447.601-1.993.474-.542,1.158-.853,1.876-.853h11.001c.719,0,1.402.311,1.876.852.478.545.696,1.271.6,1.989-.467,3.511-3.418,5.872-5.789,7.769-.118.095-.188.238-.188.391s.069.296.188.391c2.371,1.896,5.322,4.258,5.789,7.769.096.717-.123,1.44-.6,1.985Zm-6.64-7.301c-.095-.076-.185-.157-.269-.244-.188-.191-.527-.191-.716,0-.084.087-.173.168-.27.244-2.038,1.631-4.146,3.316-4.747,5.523-.041.15-.009.312.085.436.095.124.242.196.397.196h9.781c.156,0,.304-.072.397-.196.095-.124.126-.285.084-.436-.613-2.22-2.809-3.976-4.745-5.523Zm-4.807,5.155c.734-1.619,2.481-3.018,4.18-4.376h0s0,0,0,0c1.614,1.291,3.419,2.734,4.174,4.376H7.93Z"/>
</svg>
