<svg id="Layer_1" viewBox="0 0 24 24" xmlns="http://www.w3.org/2000/svg" data-name="Layer 1"><path d="m23.181 9.655c-.496-.452-1.141-.675-1.809-.652-.67.032-1.288.322-1.739.818l-3.732 4.102c-.314-1.108-1.335-1.923-2.543-1.923h-9.858c-1.93 0-3.5 1.57-3.5 3.5v5c0 1.93 1.57 3.5 3.5 3.5h5.965c2.706 0 5.291-1.159 7.093-3.18l6.806-7.64c.911-1.022.829-2.604-.183-3.526zm-.563 2.861-6.806 7.639c-1.612 1.809-3.925 2.846-6.347 2.846h-5.965c-1.378 0-2.5-1.121-2.5-2.5v-5c0-1.379 1.122-2.5 2.5-2.5h9.857c.905 0 1.643.737 1.643 1.643 0 .812-.605 1.511-1.398 1.624l-6.161.737c-.274.032-.47.281-.437.556.033.273.274.479.556.437l6.172-.738c1.022-.146 1.846-.879 2.146-1.824l4.496-4.94c.271-.298.643-.473 1.046-.492.403-.02.79.12 1.088.393.609.555.658 1.506.11 2.122zm-15.618-6.016v-1c0-.276.224-.5.5-.5h1c.276 0 .5.224.5.5v1c0 .276-.224.5-.5.5h-1c-.276 0-.5-.224-.5-.5zm-1.5 3.5h5c1.378 0 2.5-1.122 2.5-2.5v-3.313c0-.833-.412-1.607-1.102-2.072l-2.5-1.687c-.85-.573-1.947-.573-2.797 0l-2.5 1.687c-.69.465-1.102 1.24-1.102 2.072v3.313c0 1.378 1.122 2.5 2.5 2.5zm-1.5-5.813c0-.5.247-.964.661-1.243l2.5-1.687c.255-.172.547-.258.839-.258s.584.086.839.258l2.5 1.687c.414.279.661.744.661 1.243v3.313c0 .827-.673 1.5-1.5 1.5h-5c-.827 0-1.5-.673-1.5-1.5z"/></svg>