<?xml version="1.0" encoding="UTF-8"?>
<svg xmlns="http://www.w3.org/2000/svg" id="Layer_1" data-name="Layer 1" viewBox="0 0 24 24">
  <path d="m17.081,14.46c2.954-.755,4.919-2.228,4.919-3.96,0-2.242-3.296-4.048-7.765-4.424,1.084-.635,1.765-1.543,1.765-2.576,0-1.962-2.416-3.5-5.5-3.5s-5.5,1.538-5.5,3.5c0,1.343,1.145,2.472,2.847,3.061-2.913.76-4.847,2.222-4.847,3.939,0,1.654,1.799,3.068,4.534,3.85-4.453.724-7.534,2.508-7.534,4.65,0,2.804,5.271,5,12,5s12-2.196,12-5c0-2.042-2.802-3.756-6.919-4.54ZM6,3.5c0-1.355,2.061-2.5,4.5-2.5s4.5,1.145,4.5,2.5-2.061,2.5-4.5,2.5-4.5-1.145-4.5-2.5Zm-2,7c0-1.69,3.416-3.5,8.5-3.5s8.5,1.81,8.5,3.5-3.415,3.5-8.5,3.5-8.5-1.81-8.5-3.5Zm8,12.5c-6.482,0-11-2.108-11-4s4.518-4,11-4,11,2.108,11,4-4.518,4-11,4Z"/>
</svg>
