<svg id="Layer_1" viewBox="0 0 24 24" xmlns="http://www.w3.org/2000/svg" data-name="Layer 1"><path d="m8.5 16h7c1.93 0 3.5-1.57 3.5-3.5v-9c0-1.93-1.57-3.5-3.5-3.5h-7c-1.93 0-3.5 1.57-3.5 3.5v9c0 1.93 1.57 3.5 3.5 3.5zm-2.5-12.5c0-1.378 1.121-2.5 2.5-2.5h7c1.379 0 2.5 1.122 2.5 2.5v9c0 1.378-1.121 2.5-2.5 2.5h-7c-1.379 0-2.5-1.122-2.5-2.5zm18 3v9c0 2.481-2.019 4.5-4.5 4.5h-7v3h5c.276 0 .5.224.5.5s-.224.5-.5.5h-11c-.276 0-.5-.224-.5-.5s.224-.5.5-.5h5v-3h-7c-2.481 0-4.5-2.019-4.5-4.5v-9c0-1.602.862-3.095 2.25-3.897.235-.139.543-.058.683.182.139.239.057.545-.183.683-1.079.625-1.75 1.787-1.75 3.032v9c0 1.93 1.57 3.5 3.5 3.5h15c1.93 0 3.5-1.57 3.5-3.5v-9c0-1.246-.671-2.408-1.75-3.032-.239-.138-.321-.444-.183-.683s.447-.32.683-.182c1.388.802 2.25 2.296 2.25 3.897zm-16-1.5c0-.552.448-1 1-1s1 .448 1 1-.448 1-1 1-1-.448-1-1zm7 5c.552 0 1 .448 1 1s-.448 1-1 1-1-.448-1-1 .448-1 1-1zm-5.435 1.252 4-7c.138-.242.444-.323.683-.186.24.137.323.442.187.682l-4 7c-.139.242-.447.322-.683.186-.24-.137-.323-.442-.187-.682z"/></svg>