<svg id="Layer_1" viewBox="0 0 24 24" xmlns="http://www.w3.org/2000/svg" data-name="Layer 1"><path d="m22.5 16c-.827 0-1.5.673-1.5 1.5v2.5h-3v-8c0-4.963-4.037-9-9-9s-9 4.037-9 9 4.037 9 9 9h13.5c.827 0 1.5-.673 1.5-1.5v-2c0-.827-.673-1.5-1.5-1.5zm-5.5 4h-8c-4.411 0-8-3.589-8-8s3.589-8 8-8 8 3.589 8 8zm6-.5c0 .275-.225.5-.5.5h-.5v-2.5c0-.275.225-.5.5-.5s.5.225.5.5zm-14-12.5c-2.757 0-5 2.243-5 5s2.243 5 5 5 5-2.243 5-5-2.243-5-5-5zm0 9c-2.206 0-4-1.794-4-4s1.794-4 4-4 4 1.794 4 4-1.794 4-4 4z"/></svg>