<svg id="Layer_1" viewBox="0 0 24 24" xmlns="http://www.w3.org/2000/svg" data-name="Layer 1"><path d="m17.5 11c-3.584 0-6.5 2.916-6.5 6.5s2.916 6.5 6.5 6.5 6.5-2.916 6.5-6.5-2.916-6.5-6.5-6.5zm0 12c-3.032 0-5.5-2.468-5.5-5.5s2.468-5.5 5.5-5.5 5.5 2.468 5.5 5.5-2.468 5.5-5.5 5.5zm3.35-6.857c.192.198.187.515-.012.707l-2.703 2.614c-.359.355-.835.533-1.311.533s-.949-.177-1.312-.531l-1.364-1.347c-.196-.193-.198-.51-.004-.707.194-.196.511-.198.707-.004l1.362 1.345c.336.329.886.327 1.222-.004l2.707-2.618c.199-.191.517-.187.707.012zm-19.85-2.614c-.03.976 1.025 1.731 1.939 1.392l5.367-2.265c.154-.065.331-.048.471.044.14.093.224.249.224.417v5.661c0 .168-.084.324-.224.417l-2.104 1.394c-.42.278-.671.746-.671 1.251-.007.792.86 1.286 1.605 1.135l1.74-.673c.256-.1.547.03.646.288.098.259-.031.548-.289.646l-1.827.697c-.189.037-.375.056-.556.056-1.223.026-2.335-.927-2.318-2.148 0-.842.418-1.621 1.12-2.085l1.88-1.245v-4.639l-4.707 1.984c-1.572.591-3.333-.669-3.293-2.326 0-1.037.565-1.99 1.476-2.487l6.524-4.286v-3.623c-.003-1.531 1.072-2.862 2.497-3.093.879-.147 1.771.102 2.443.673.671.571 1.057 1.404 1.057 2.286v3.756l2.794 1.835c.23.151.295.462.144.692-.151.231-.463.294-.692.144l-3.02-1.983c-.141-.093-.226-.25-.226-.418v-4.026c0-.588-.257-1.144-.705-1.524-.455-.388-1.036-.547-1.635-.448-.946.154-1.66 1.06-1.66 2.106v3.892c0 .168-.085.325-.226.418l-6.784 4.454c-.624.343-.99.96-.99 1.631z"/></svg>