<svg id="Layer_1" viewBox="0 0 24 24" xmlns="http://www.w3.org/2000/svg" data-name="Layer 1"><path d="m14.346 23.774s0 0 0 0c.005.001.002 0 0 0zm8.21-11.138c.295.606.444 1.255.444 1.925 0 1.313-.583 2.559-1.599 3.414-.255.215-.401.521-.401.84v2.019c-.028 3.167-3.277 3.167-4.5 3.167-.857 0-1.58-.08-2.154-.226-.004-.001-.003 0 0 0-.893.226-1.8.226-2.346.226s-1.452 0-2.345-.225c-.582.152-1.287.225-2.155.225-1.223 0-4.472 0-4.5-3.162v-2.023c0-.319-.146-.625-.401-.841-1.016-.854-1.599-2.1-1.599-3.413 0-.67.149-1.318.444-1.926.107-.221.061-.462-.121-.629-1.167-1.073-1.609-2.742-1.128-4.253.517-1.621 2.136-2.754 3.938-2.754h.626c.745-1.111 1.971-1.873 3.378-1.985.445-1.745 2.036-3.015 3.862-3.015s3.422 1.273 3.864 3.022c1.414.122 2.632.879 3.373 1.978h.629c1.803 0 3.422 1.133 3.938 2.755.481 1.51.039 3.179-1.127 4.251-.183.167-.229.408-.122.63zm-14.519 10.353c-.605-.518-1.027-1.301-1.037-2.485v-2.499c0-.305-.127-.594-.348-.793-1.05-.946-1.652-2.3-1.652-3.712 0-.755.17-1.485.504-2.17.098-.199.055-.429-.109-.586-.899-.855-1.395-2.008-1.395-3.244 0-.526.091-1.031.257-1.5-1.372 0-2.723.847-3.109 2.058-.364 1.142-.03 2.402.852 3.212.503.463.643 1.187.345 1.802-.229.471-.345.972-.345 1.489 0 1.019.453 1.983 1.243 2.648.481.406.757.991.757 1.605v2.019c.014 1.538 1.027 2.167 3.5 2.167.188 0 .367-.004.537-.011zm7.963-2.493v-2.491c0-.587.247-1.146.678-1.535.841-.758 1.322-1.84 1.322-2.97 0-.602-.136-1.184-.402-1.73-.288-.589-.161-1.292.318-1.748.699-.667 1.084-1.562 1.084-2.521 0-1.93-1.57-3.5-3.5-3.5-.249 0-.51-.178-.545-.425-.21-1.468-1.479-2.575-2.955-2.575s-2.745 1.107-2.955 2.575c-.035.247-.246.43-.495.43-1.88.003-3.55 1.565-3.55 3.495 0 .96.385 1.854 1.084 2.521.479.457.606 1.16.318 1.749-.267.547-.402 1.129-.402 1.73 0 1.13.481 2.212 1.322 2.97.431.389.678.948.678 1.535v2.495c.015 1.666 1.037 2.407 3.5 2.492v-11.493c0-.276.224-.5.5-.5s.5.224.5.5v11.492c2.463-.085 3.485-.826 3.5-2.496zm6.852-12.438c-.386-1.212-1.737-2.059-3.109-2.059.167.469.258.974.258 1.5 0 1.236-.495 2.389-1.395 3.245-.164.156-.207.386-.109.585.334.685.504 1.415.504 2.17 0 1.412-.603 2.766-1.652 3.712-.221.199-.348.488-.348.793v2.495c-.01 1.187-.432 1.97-1.038 2.489.17.007.35.011.538.011 2.473 0 3.486-.629 3.5-2.172v-2.014c0-.614.275-1.199.757-1.604.79-.666 1.243-1.631 1.243-2.649 0-.518-.116-1.019-.345-1.488-.298-.616-.158-1.34.346-1.803.881-.81 1.215-2.07.851-3.211z"/></svg>