<?xml version="1.0" encoding="UTF-8"?>
<svg xmlns="http://www.w3.org/2000/svg" id="Layer_1" data-name="Layer 1" viewBox="0 0 24 24">
  <path d="m19,3.351V.5c0-.276-.224-.5-.5-.5s-.5.224-.5.5v2.551c-.165-.024-.329-.051-.5-.051h-2.5V.5c0-.276-.224-.5-.5-.5s-.5.224-.5.5v2.5h-4V.5c0-.276-.224-.5-.5-.5s-.5.224-.5.5v2.5h-2.5c-.171,0-.335.027-.5.051V.5c0-.276-.224-.5-.5-.5s-.5.224-.5.5v2.851c-1.178.564-2,1.758-2,3.149v13c0,2.481,2.019,4.5,4.5,4.5h9c2.481,0,4.5-2.019,4.5-4.5V6.5c0-1.391-.822-2.585-2-3.149Zm1,16.149c0,1.93-1.57,3.5-3.5,3.5H7.5c-1.93,0-3.5-1.57-3.5-3.5V6.5c0-1.378,1.122-2.5,2.5-2.5h11c1.378,0,2.5,1.122,2.5,2.5v13Zm-3-10c0,.276-.224.5-.5.5H7.5c-.276,0-.5-.224-.5-.5s.224-.5.5-.5h9c.276,0,.5.224.5.5Zm0,4c0,.276-.224.5-.5.5H7.5c-.276,0-.5-.224-.5-.5s.224-.5.5-.5h9c.276,0,.5.224.5.5Zm-4,4c0,.276-.224.5-.5.5h-5c-.276,0-.5-.224-.5-.5s.224-.5.5-.5h5c.276,0,.5.224.5.5Z"/>
</svg>
