<?xml version="1.0" encoding="UTF-8"?>
<svg xmlns="http://www.w3.org/2000/svg" id="Layer_1" data-name="Layer 1" viewBox="0 0 24 24">
  <path d="M18,7.5c0,.276-.224,.5-.5,.5H6.5c-.276,0-.5-.224-.5-.5s.224-.5,.5-.5h11c.276,0,.5,.224,.5,.5Zm0,3c0-.276-.224-.5-.5-.5H6.5c-.276,0-.5,.224-.5,.5s.224,.5,.5,.5h11c.276,0,.5-.224,.5-.5Zm-8.5,12.5H4.5c-1.93,0-3.5-1.57-3.5-3.5v-7.5C1,5.935,5.935,1,12,1s11,4.935,11,11c0,1.097-.161,2.18-.479,3.218-.08,.265,.068,.544,.332,.625,.268,.078,.544-.069,.625-.332,.346-1.134,.521-2.314,.521-3.511C24,5.383,18.617,0,12,0S0,5.383,0,12v7.5c0,2.481,2.019,4.5,4.5,4.5h5c.276,0,.5-.224,.5-.5s-.224-.5-.5-.5Zm14.418-1.475l-4.497-7.709c-.298-.511-.829-.816-1.421-.816s-1.123,.306-1.421,.816l-4.498,7.709c-.3,.516-.302,1.132-.005,1.648,.297,.518,.83,.826,1.426,.826h1.997c.276,0,.5-.224,.5-.5s-.224-.5-.5-.5h-1.997c-.337,0-.503-.227-.56-.324-.056-.097-.167-.355,.002-.646l4.497-7.709c.169-.289,.446-.32,.558-.32s.389,.031,.558,.32l4.497,7.709c.17,.291,.058,.55,.002,.646-.056,.098-.223,.324-.56,.324h-1.997c-.276,0-.5,.224-.5,.5s.224,.5,.5,.5h1.997c.597,0,1.13-.309,1.427-.826,.297-.517,.295-1.133-.006-1.648Zm-5.418-1.025v-3c0-.276-.224-.5-.5-.5s-.5,.224-.5,.5v3c0,.276,.224,.5,.5,.5s.5-.224,.5-.5Zm-.5,1.5c-.552,0-1,.448-1,1s.448,1,1,1,1-.448,1-1-.448-1-1-1Zm-4-8.5c0-.276-.224-.5-.5-.5H6.5c-.276,0-.5,.224-.5,.5s.224,.5,.5,.5h7c.276,0,.5-.224,.5-.5Zm-7.5,2.5c-.276,0-.5,.224-.5,.5s.224,.5,.5,.5h5.5c.276,0,.5-.224,.5-.5s-.224-.5-.5-.5H6.5Z"/>
</svg>
