<svg id="Layer_1" viewBox="0 0 24 24" xmlns="http://www.w3.org/2000/svg" data-name="Layer 1"><path d="m23.71 6.245c-.237-.359-.614-.603-1.037-.665-1.619-.241-2.861-.785-3.687-1.61l-1.242-1.288c-.436-.438-1.016-.681-1.634-.682h-.004c-.617 0-1.197.24-1.634.677l-.796.796c-.898.898-.9 2.361-.011 3.256l.562.583-2.93 2.93-2.591-2.591 2.039-1.932c.479-.459.746-1.077.754-1.74.007-.664-.247-1.287-.716-1.756l-.508-.509c-.925-.927-2.404-.957-3.364-.074 0 0-3.928 3.541-3.936 3.549-2.78 2.857-3.126 5.683-2.927 7.55.057.537.406.986.911 1.173.499.185 1.061.074 1.453-.299l3.155-2.989 2.675 2.675-5.946 6.011c-.842.842-.842 2.213 0 3.057.421.421.975.632 1.527.632s1.108-.211 1.531-.634l5.944-6.009 6.011 6.011c.421.421.975.632 1.527.632s1.107-.211 1.529-.632c.842-.844.842-2.215 0-3.057l-6.013-6.013 2.081-2.082c.034.168.076.345.1.499.065.422.309.798.668 1.034.362.237.807.311 1.222.201 2.761-.724 4.761-2.721 5.487-5.479.11-.417.036-.863-.203-1.227zm-21.985 6.642c-.167.157-.35.114-.419.087-.071-.026-.239-.111-.264-.34-.256-2.402.633-4.669 2.64-6.736l3.904-3.519c.566-.523 1.438-.503 1.983.042l.508.509c.276.276.427.646.423 1.038-.005.393-.163.758-.443 1.026zm2.922 8.773c-.453.454-1.19.452-1.643 0-.452-.453-.452-1.19.002-1.645l5.944-6.009 1.642 1.642-5.946 6.011zm15.014 0c-.454.454-1.19.452-1.643 0l-11.724-11.724 1.687-1.598 11.679 11.679c.452.452.452 1.189 0 1.643zm-6.013-9.069-1.643-1.643 2.917-2.917c.581.582.953 1.33 1.21 2.075zm9.299-5.374c-.642 2.435-2.337 4.127-4.774 4.767-.28.08-.611-.127-.647-.421-.135-.602-.16-1.192-.424-1.705-.345-1.03-.827-1.89-1.467-2.53l-1.252-1.298c-.508-.511-.506-1.34.003-1.85l.796-.796c.247-.247.576-.384.927-.384h.002c.351 0 .68.138.921.381l1.243 1.289c.986.986 2.418 1.626 4.253 1.898.294.036.502.365.421.648z"/></svg>