<?xml version="1.0" encoding="UTF-8"?>
<svg xmlns="http://www.w3.org/2000/svg" id="Layer_1" data-name="Layer 1" viewBox="0 0 24 24">
  <path d="M20,9.985c0-1.737-.677-3.369-1.904-4.596l-3.484-3.485c-1.229-1.228-2.861-1.904-4.597-1.904H4.5C2.019,0,0,2.019,0,4.5v15c0,2.481,2.019,4.5,4.5,4.5h12c.585,0,1.152-.11,1.688-.328,.256-.104,.379-.396,.274-.651-.103-.256-.396-.381-.651-.275-.415,.169-.856,.254-1.312,.254H4.5c-1.93,0-3.5-1.57-3.5-3.5V4.5c0-1.93,1.57-3.5,3.5-3.5h5.515c.335,0,.663,.038,.985,.096V6.5c0,1.378,1.122,2.5,2.5,2.5h5.404c.058,.323,.096,.651,.096,.985v.515c0,.276,.224,.5,.5,.5s.5-.224,.5-.5v-.515Zm-6.5-1.985c-.827,0-1.5-.673-1.5-1.5V1.379c.704,.273,1.354,.682,1.904,1.231l3.484,3.485c.55,.55,.959,1.199,1.232,1.904h-5.121Zm10.5,12.5c0,.276-.224,.5-.5,.5h-2.5c-.552,0-1-.449-1-1v-6.5c0-.276,.224-.5,.5-.5s.5,.224,.5,.5v6.5h2.5c.276,0,.5,.224,.5,.5Zm-12.041-1.608c.037-.228,.076-1.006-.975-1.432-.112-.042-1.208-.458-1.699-.763-.671-.473-.978-1.163-.88-1.917,.103-.784,.626-1.421,1.365-1.665,.901-.298,1.821-.046,2.737,.747,.208,.181,.231,.497,.05,.706-.182,.209-.497,.23-.706,.05-.648-.562-1.208-.737-1.769-.553-.371,.122-.634,.446-.687,.845-.049,.38,.103,.717,.427,.948,.334,.205,1.214,.554,1.524,.671,1.394,.563,1.73,1.71,1.599,2.523-.183,1.127-1.163,1.945-2.329,1.945-.878,0-1.947-.552-2.474-1.085-.194-.196-.192-.513,.005-.707,.195-.194,.512-.192,.707,.005,.414,.419,1.237,.787,1.762,.787,.673,0,1.238-.465,1.342-1.105Zm6.624,.984c.262-.395,.416-.868,.416-1.377v-3c0-1.378-1.121-2.5-2.5-2.5s-2.5,1.122-2.5,2.5v3c0,1.378,1.121,2.5,2.5,2.5,.509,0,.981-.154,1.377-.416l.52,.52c.098,.098,.226,.146,.354,.146s.256-.049,.354-.146c.195-.195,.195-.512,0-.707l-.52-.52Zm-2.084,.123c-.827,0-1.5-.673-1.5-1.5v-3c0-.827,.673-1.5,1.5-1.5s1.5,.673,1.5,1.5v3c0,.231-.057,.447-.15,.643l-.246-.246c-.195-.195-.512-.195-.707,0s-.195,.512,0,.707l.246,.246c-.196,.094-.412,.15-.643,.15Z"/>
</svg>
