<?xml version="1.0" encoding="UTF-8"?>
<svg xmlns="http://www.w3.org/2000/svg" id="Layer_1" data-name="Layer 1" viewBox="0 0 24 24">
  <path d="m22,16.184v-4.184c0-1.302-.839-2.402-2-2.816V.5c0-.276-.224-.5-.5-.5s-.5.224-.5.5v1.5h-2V.5c0-.276-.224-.5-.5-.5s-.5.224-.5.5v1.5h-2V.5c0-.276-.224-.5-.5-.5s-.5.224-.5.5v1.5h-2V.5c0-.276-.224-.5-.5-.5s-.5.224-.5.5v1.5h-2V.5c0-.276-.224-.5-.5-.5s-.5.224-.5.5v1.5h-2V.5c0-.276-.224-.5-.5-.5s-.5.224-.5.5v8.851c-1.178.564-2,1.758-2,3.149v3.684c-1.161.414-2,1.514-2,2.816v2.5c0,1.378,1.122,2.5,2.5,2.5h8c.276,0,.5-.224.5-.5v-2.5c0-.551.449-1,1-1s1,.449,1,1v2.5c0,.276.224.5.5.5h8c1.379,0,2.5-1.122,2.5-2.5v-2.5c0-1.302-.839-2.402-2-2.816ZM5,3h14v6h-2v-3.5c0-.276-.224-.5-.5-.5s-.5.224-.5.5v3.5h-2v-2c0-1.103-.897-2-2-2s-2,.897-2,2v2h-2v-3.5c0-.276-.224-.5-.5-.5s-.5.224-.5.5v3.5h-1.5c-.171,0-.335.027-.5.051V3Zm8,6h-2v-2c0-.551.449-1,1-1s1,.449,1,1v2Zm-10,3.5c0-1.378,1.122-2.5,2.5-2.5h13.5c1.103,0,2,.897,2,2v4h-3v-3.5c0-.276-.224-.5-.5-.5s-.5.224-.5.5v3.5h-3v-2c0-1.103-.897-2-2-2s-2,.897-2,2v2h-3v-3.5c0-.276-.224-.5-.5-.5s-.5.224-.5.5v3.5h-3v-3.5Zm10,3.5h-2v-2c0-.551.449-1,1-1s1,.449,1,1v2Zm10,5.5c0,.827-.673,1.5-1.5,1.5h-.5v-3.5c0-.276-.224-.5-.5-.5s-.5.224-.5.5v3.5h-3v-3.5c0-.276-.224-.5-.5-.5s-.5.224-.5.5v3.5h-2v-2c0-1.103-.897-2-2-2s-2,.897-2,2v2h-2v-3.5c0-.276-.224-.5-.5-.5s-.5.224-.5.5v3.5h-3v-3.5c0-.276-.224-.5-.5-.5s-.5.224-.5.5v3.5h-.5c-.827,0-1.5-.673-1.5-1.5v-2.5c0-1.103.897-2,2-2h18c1.103,0,2,.897,2,2v2.5Z"/>
</svg>
