<svg id="Layer_1" viewBox="0 0 24 24" xmlns="http://www.w3.org/2000/svg" data-name="Layer 1"><path d="m23.5 10h-2.616c-.421 0-.825-.179-1.108-.49l-2.415-2.652c-.474-.545-1.16-.858-1.885-.858h-6.396c-.921 0-1.765.503-2.201 1.314l-1.319 2.449c-.131.243-.04.546.203.677.241.131.547.041.678-.203l1.319-2.449c.262-.486.768-.788 1.32-.788h3.043l-2.964 6.48c-.25.555-.202 1.192.128 1.703s.891.816 1.5.816h6.713c.275 0 .5.224.5.5v4c0 .276.224.5.5.5s.5-.224.5-.5v-4c0-.827-.673-1.5-1.5-1.5h-3.71l3.189-7.076 2.056 2.259c.473.52 1.146.817 1.849.817h2.616c.276 0 .5-.224.5-.5s-.224-.5-.5-.5zm-10.808 5h-1.905c-.271 0-.513-.131-.66-.359s-.168-.501-.057-.747l3.154-6.894h2.252c.262 0 .512.076.736.203-.004.007-3.519 7.797-3.519 7.797zm3.693-10c1.379 0 2.5-1.122 2.5-2.5s-1.121-2.5-2.5-2.5-2.5 1.122-2.5 2.5 1.121 2.5 2.5 2.5zm0-4c.827 0 1.5.673 1.5 1.5s-.673 1.5-1.5 1.5-1.5-.673-1.5-1.5.673-1.5 1.5-1.5zm-5.438 17.724-.585 1.171c-.342.682-1.027 1.105-1.789 1.105h-5.073c-.276 0-.5-.224-.5-.5s.224-.5.5-.5h5.073c.381 0 .724-.212.895-.553l.585-1.17c.125-.247.424-.346.671-.224.247.124.347.424.224.671zm-9.947 1.276c-.552 0-1-.448-1-1s.448-1 1-1 1 .448 1 1-.448 1-1 1zm0 2c-.552 0-1-.448-1-1s.448-1 1-1 1 .448 1 1-.448 1-1 1zm0 2c-.552 0-1-.448-1-1s.448-1 1-1 1 .448 1 1-.448 1-1 1zm17-1c0 .552-.448 1-1 1s-1-.448-1-1 .448-1 1-1 1 .448 1 1zm2 0c0 .552-.448 1-1 1s-1-.448-1-1 .448-1 1-1 1 .448 1 1zm2 0c0 .552-.448 1-1 1s-1-.448-1-1 .448-1 1-1 1 .448 1 1z"/></svg>