<svg id="Layer_1" viewBox="0 0 24 24" xmlns="http://www.w3.org/2000/svg" data-name="Layer 1"><path d="m0 6.5v-2c0-2.481 2.019-4.5 4.5-4.5h2c.276 0 .5.224.5.5s-.224.5-.5.5h-2c-1.93 0-3.5 1.57-3.5 3.5v2c0 .276-.224.5-.5.5s-.5-.224-.5-.5zm19.5-6.5h-2c-.276 0-.5.224-.5.5s.224.5.5.5h2c1.93 0 3.5 1.57 3.5 3.5v2c0 .276.224.5.5.5s.5-.224.5-.5v-2c0-2.481-2.019-4.5-4.5-4.5zm4 17c-.276 0-.5.224-.5.5v2c0 1.93-1.57 3.5-3.5 3.5h-2c-.276 0-.5.224-.5.5s.224.5.5.5h2c2.481 0 4.5-2.019 4.5-4.5v-2c0-.276-.224-.5-.5-.5zm-17 6h-2c-1.93 0-3.5-1.57-3.5-3.5v-2c0-.276-.224-.5-.5-.5s-.5.224-.5.5v2c0 2.481 2.019 4.5 4.5 4.5h2c.276 0 .5-.224.5-.5s-.224-.5-.5-.5zm17.5-11.5c0 .276-.224.5-.5.5h-23c-.276 0-.5-.224-.5-.5s.224-.5.5-.5h5.5v-1.5c0-1.208.86-2.217 2-2.449v-1.551c0-1.379 1.121-2.5 2.5-2.5h3c1.379 0 2.5 1.121 2.5 2.5v1.551c1.14.232 2 1.242 2 2.449v1.5h5.5c.276 0 .5.224.5.5zm-15-4.5h6v-1.5c0-.827-.673-1.5-1.5-1.5h-3c-.827 0-1.5.673-1.5 1.5zm-2 4h10v-1.5c0-.827-.673-1.5-1.5-1.5h-7c-.827 0-1.5.673-1.5 1.5zm11 3.5c0-.276-.224-.5-.5-.5s-.5.224-.5.5v.5c0 2.757-2.243 5-5 5s-5-2.243-5-5v-.5c0-.276-.224-.5-.5-.5s-.5.224-.5.5v.5c0 3.309 2.691 6 6 6s6-2.691 6-6z"/></svg>