<?xml version="1.0" encoding="UTF-8"?>
<svg xmlns="http://www.w3.org/2000/svg" id="Layer_1" data-name="Layer 1" viewBox="0 0 24 24">
  <path d="M2.19,18.899c-1.07-.807-1.805-1.955-2.069-3.234-.391-1.89,.199-3.805,1.577-5.122,.329-.314,.469-.82,.387-1.388-.135-.923-.107-1.863,.083-2.796C2.804,3.222,5.338,.724,8.473,.143c3.574-.669,7.061,1.056,8.675,4.278,.194,.389,.56,.668,1.001,.767,3.445,.772,5.852,3.779,5.852,7.312,0,.276-.224,.5-.5,.5s-.5-.224-.5-.5c0-3.014-2.133-5.678-5.07-6.336-.735-.165-1.347-.638-1.677-1.296-1.412-2.819-4.465-4.324-7.598-3.743C5.917,1.633,3.703,3.816,3.147,6.559c-.167,.819-.191,1.645-.074,2.452,.13,.893-.119,1.714-.685,2.255-1.128,1.078-1.609,2.646-1.289,4.196,.215,1.042,.816,1.979,1.691,2.639,.221,.166,.265,.479,.099,.7-.167,.222-.481,.263-.7,.099Zm5.957,1.556l-2.146,2.146v-7.601c0-.276-.224-.5-.5-.5s-.5,.224-.5,.5v7.602l-2.146-2.146c-.195-.195-.512-.195-.707,0s-.195,.512,0,.707l2.475,2.476c.462,.482,1.294,.482,1.756,0l2.476-2.476c.195-.195,.195-.512,0-.707s-.512-.195-.707,0Zm10.854-7.955v3c0,1.379-1.121,2.5-2.5,2.5s-2.5-1.121-2.5-2.5v-3c0-1.379,1.121-2.5,2.5-2.5s2.5,1.121,2.5,2.5Zm-1,0c0-.827-.673-1.5-1.5-1.5s-1.5,.673-1.5,1.5v3c0,.827,.673,1.5,1.5,1.5s1.5-.673,1.5-1.5v-3Zm-7.5-1.5c.684,0,1.282,.463,1.452,1.125,.07,.268,.344,.429,.609,.359,.267-.069,.428-.342,.359-.609-.285-1.104-1.28-1.875-2.421-1.875-1.378,0-2.5,1.121-2.5,2.5v3c0,1.379,1.122,2.5,2.5,2.5,1.141,0,2.136-.771,2.421-1.875,.069-.268-.092-.54-.359-.609-.266-.066-.54,.092-.609,.359-.17,.662-.768,1.125-1.452,1.125-.827,0-1.5-.673-1.5-1.5v-3c0-.827,.673-1.5,1.5-1.5Zm11.445,8.355c.867-.436,2.055-1.03,2.055-2.355,0-.804-.532-2-2-2-.931,0-1.619,.492-1.89,1.35-.083,.264,.062,.544,.326,.627,.262,.083,.544-.063,.627-.326,.141-.443,.438-.65,.937-.65,.913,0,.996,.769,1,1,0,.658-.595,1.006-1.503,1.461-.736,.369-1.497,.751-1.497,1.539,0,.484,.351,1,1,1h2.5c.276,0,.5-.224,.5-.5s-.224-.5-.5-.5h-2.5c0-.171,.592-.468,.945-.645Z"/>
</svg>
