<svg id="Layer_1" viewBox="0 0 24 24" xmlns="http://www.w3.org/2000/svg" data-name="Layer 1"><path d="m7 3.5v3c0 .276-.224.5-.5.5s-.5-.224-.5-.5v-3c0-.276.224-.5.5-.5s.5.224.5.5zm1.5-.5c-.276 0-.5.224-.5.5v3c0 .276.224.5.5.5s.5-.224.5-.5v-3c0-.276-.224-.5-.5-.5zm2 0c-.276 0-.5.224-.5.5v3c0 .276.224.5.5.5s.5-.224.5-.5v-3c0-.276-.224-.5-.5-.5zm2 0c-.276 0-.5.224-.5.5v3c0 .276.224.5.5.5s.5-.224.5-.5v-3c0-.276-.224-.5-.5-.5zm2 0c-.276 0-.5.224-.5.5v3c0 .276.224.5.5.5s.5-.224.5-.5v-3c0-.276-.224-.5-.5-.5zm4.5 11.5v.586c0 .132.054.261.146.354l1.414 1.414c.279.279.439.666.439 1.061v1.586c0 2.481-2.019 4.5-4.5 4.5h-8.999c-2.481 0-4.5-2.019-4.5-4.5v-15.001c0-2.481 2.019-4.5 4.5-4.5h7c2.481 0 4.5 2.019 4.5 4.5v2.293l1.268 1.268c.473.473.732 1.1.732 1.768v2.672c0 .827-.673 1.5-1.5 1.5-.275 0-.5.225-.5.5zm-1 .586v-.586c0-.827.673-1.5 1.5-1.5.275 0 .5-.225.5-.5v-2.672c0-.395-.16-.781-.439-1.061l-1.414-1.414c-.094-.094-.146-.221-.146-.354v-2.5c0-1.93-1.57-3.5-3.5-3.5h-7.001c-1.93 0-3.5 1.57-3.5 3.5v15c0 1.93 1.57 3.5 3.5 3.5h9c1.93 0 3.5-1.57 3.5-3.5v-1.586c0-.132-.054-.261-.146-.354l-1.414-1.414c-.279-.279-.439-.666-.439-1.061z"/></svg>