<?xml version="1.0" encoding="UTF-8"?>
<svg xmlns="http://www.w3.org/2000/svg" id="Layer_1" data-name="Layer 1" viewBox="0 0 24 24">
  <path d="M14.152,16.359c-.198-.192-.203-.509-.011-.707,.193-.2,.509-.202,.707-.012l3.152,3.057V3.5c0-.276,.224-.5,.5-.5s.5,.224,.5,.5v15.198l3.152-3.057c.198-.19,.514-.188,.707,.012,.192,.198,.188,.515-.011,.707l-3.318,3.218c-.567,.56-1.496,.534-2.065-.005l-3.313-3.213ZM4,2.5c0-1.379,1.122-2.5,2.5-2.5s2.5,1.121,2.5,2.5-1.122,2.5-2.5,2.5-2.5-1.121-2.5-2.5Zm1,0c0,.827,.673,1.5,1.5,1.5s1.5-.673,1.5-1.5-.673-1.5-1.5-1.5-1.5,.673-1.5,1.5ZM24,23.5c0,.276-.224,.5-.5,.5H.5c-.276,0-.5-.224-.5-.5s.224-.5,.5-.5h3.5v-6.351c-1.178-.564-2-1.758-2-3.149v-4c0-1.93,1.57-3.5,3.5-3.5h2c1.93,0,3.5,1.57,3.5,3.5v4c0,1.391-.822,2.585-2,3.149v6.351h14.5c.276,0,.5,.224,.5,.5ZM5.5,16h2c1.378,0,2.5-1.121,2.5-2.5v-4c0-1.379-1.122-2.5-2.5-2.5h-2c-1.378,0-2.5,1.121-2.5,2.5v4c0,1.379,1.122,2.5,2.5,2.5Zm2.5,.949c-.165,.024-.329,.051-.5,.051h-2c-.171,0-.335-.027-.5-.051v6.051h3v-6.051Z"/>
</svg>
