<svg id="Layer_1" viewBox="0 0 24 24" xmlns="http://www.w3.org/2000/svg" data-name="Layer 1"><path d="m22.466 1.535c-.988-.99-2.303-1.535-3.703-1.535-1.398 0-2.714.545-3.703 1.534l-1.497 1.497c-.975.975-.975 2.561 0 3.536l.521.521c.585.585 1.537.584 2.122 0l.941-.941c.188-.189.518-.189.707 0 .195.194.195.512 0 .707l-.942.942c-.583.585-.583 1.536 0 2.121l1.551 1.551c-4.863 4.798-9.528 8.613-12.61 10.409.086-.279.146-.57.146-.876 0-1.654-1.346-3-3-3-.771 0-1.468.301-2 .78v-18.281c0-.276-.224-.5-.5-.5s-.499.224-.499.5v20.5c0 1.654 1.346 3 3 3 .343 0 .667-.07.975-.176 3.454-1.011 10.193-6.642 15.791-12.24l2.699-2.639c2.043-2.042 2.043-5.366.001-7.41zm-19.466 21.465c-1.105 0-2-.895-2-2s.895-2 2-2 2 .895 2 2-.895 2-2 2zm18.762-14.766-2.588 2.53-1.554-1.554c-.195-.195-.195-.512 0-.707l.942-.942c.584-.585.583-1.537 0-2.122-.284-.283-.661-.439-1.061-.439s-.778.156-1.061.439l-.94.941c-.189.188-.518.189-.708 0l-.521-.521c-.585-.585-.585-1.537 0-2.122l1.497-1.497c.8-.8 1.864-1.241 2.996-1.241 1.132 0 2.196.441 2.996 1.242 1.652 1.653 1.651 4.343.002 5.992z"/></svg>