<?xml version="1.0" encoding="UTF-8"?>
<svg xmlns="http://www.w3.org/2000/svg" id="Layer_1" data-name="Layer 1" viewBox="0 0 24 24">
  <path d="M5.5,9c.558,0,1.076-.195,1.5-.52v1.52c0,.276,.224,.5,.5,.5s.5-.224,.5-.5v-2.021c.875,.015,1.66-.339,2.229-.979h2.271c1.379,0,2.5-1.121,2.5-2.5,0-1.053-.646-1.97-1.627-2.333-.661-.856-1.706-1.326-2.85-1.123-.464-.652-1.208-1.044-2.023-1.044-.809,0-1.566,.4-2.033,1.06-1.423,.254-2.467,1.478-2.467,2.94,0,.156,.015,.312,.044,.477-.652,.464-1.044,1.208-1.044,2.023,0,1.379,1.121,2.5,2.5,2.5Zm-.662-3.837c.219-.108,.327-.358,.258-.592-.394-1.193,.479-2.444,1.717-2.55,.162-.016,.308-.11,.388-.252,.268-.475,.766-.77,1.3-.77,.569,0,1.081,.321,1.337,.838,.108,.219,.355,.324,.592,.258,.84-.273,1.731,.066,2.222,.777,.065,.095,.161,.165,.271,.197,.645,.19,1.078,.765,1.078,1.43,0,.827-.673,1.5-1.5,1.5h-2.508c-.157,0-.306,.074-.399,.199-.507,.669-1.351,.967-2.164,.705-.233-.066-.483,.039-.592,.258-.256,.517-.768,.838-1.337,.838-.827,0-1.5-.673-1.5-1.5,0-.569,.321-1.081,.838-1.337Zm18.343,4.491c-.986-.928-2.658-.851-3.548,.166l-3.732,4.103c-.314-1.108-1.335-1.923-2.543-1.923H3.5c-1.93,0-3.5,1.57-3.5,3.5v5c0,1.93,1.57,3.5,3.5,3.5h5.965c2.706,0,5.291-1.159,7.093-3.18l6.806-7.64c.911-1.021,.829-2.604-.183-3.526Zm-.563,2.86l-6.806,7.64c-1.612,1.809-3.926,2.846-6.347,2.846H3.5c-1.379,0-2.5-1.121-2.5-2.5v-5c0-1.379,1.121-2.5,2.5-2.5H13.357c.905,0,1.643,.737,1.643,1.643,0,.812-.605,1.511-1.398,1.624l-6.161,.737c-.274,.032-.47,.281-.437,.556,.032,.274,.282,.477,.556,.437l6.172-.738c1.022-.146,1.846-.879,2.146-1.824l4.496-4.939c.535-.613,1.541-.659,2.134-.101,.609,.556,.658,1.507,.11,2.121Z"/>
</svg>
