<svg id="Layer_1" viewBox="0 0 24 24" xmlns="http://www.w3.org/2000/svg" data-name="Layer 1"><path d="m19.732 12.732-6.707 6.707c-.651.651-1.025 1.554-1.025 2.475v1.586c0 .276.224.5.5.5h1.586c.936 0 1.814-.364 2.475-1.025l6.707-6.707c.473-.472.732-1.1.732-1.768s-.26-1.296-.732-1.768c-.975-.975-2.561-.975-3.535 0zm2.828 2.828-6.707 6.707c-.472.472-1.1.732-1.768.732h-1.086v-1.086c0-.658.267-1.302.732-1.768l6.707-6.707c.584-.585 1.537-.585 2.121 0 .283.283.439.66.439 1.061s-.156.777-.439 1.061zm-.172-10.639-3.31-3.311c-1.023-1.024-2.441-1.611-3.89-1.611h-4.689c-2.481 0-4.5 2.019-4.5 4.5v2.5h-1.5c-1.103 0-2-.897-2-2v-1.071c.86-.224 1.5-1 1.5-1.929.001-1.102-.896-1.999-1.999-1.999s-2 .897-2 2c0 .929.64 1.705 1.5 1.929v1.071c0 1.654 1.346 3 3 3h1.5v3h-1.5c-1.654 0-3 1.346-3 3v1.071c-.86.224-1.5 1-1.5 1.929 0 1.103.897 2 2 2s2-.897 2-2c0-.929-.64-1.705-1.5-1.929v-1.071c0-1.103.897-2 2-2h1.5v5.626c0 2.055 1.388 3.847 3.375 4.358.261.069.541-.09.609-.36.068-.268-.093-.54-.359-.609-1.546-.397-2.625-1.792-2.625-3.39v-13.125c0-1.93 1.57-3.5 3.5-3.5h4.689c.273 0 .544.032.811.081v4.419c0 1.378 1.121 2.5 2.5 2.5h4.421c.048.265.079.535.079.81v1.19c0 .276.224.5.5.5s.5-.224.5-.5v-1.19c0-1.47-.572-2.851-1.611-3.889zm-21.388-2.921c0-.551.448-1 1-1s1 .449 1 1-.448 1-1 1-1-.449-1-1zm2 15c0 .551-.448 1-1 1s-1-.449-1-1 .448-1 1-1 1 .449 1 1zm15.5-10c-.827 0-1.5-.673-1.5-1.5v-4.108c.507.223.977.531 1.372.925l3.31 3.311c.401.401.71.868.932 1.372h-4.113zm-8.5 3.5c0-.276.224-.5.5-.5h9c.276 0 .5.224.5.5s-.224.5-.5.5h-9c-.276 0-.5-.224-.5-.5zm0 3c0-.276.224-.5.5-.5h5c.276 0 .5.224.5.5s-.224.5-.5.5h-5c-.276 0-.5-.224-.5-.5zm2.5 3.5h-2c-.276 0-.5-.224-.5-.5s.224-.5.5-.5h2c.276 0 .5.224.5.5s-.224.5-.5.5z"/></svg>