<?xml version="1.0" encoding="UTF-8"?>
<svg xmlns="http://www.w3.org/2000/svg" id="Layer_1" data-name="Layer 1" viewBox="0 0 24 24">
  <path d="m19.5,6h-2.5v-.5c0-2.481-2.019-4.5-4.5-4.5H4.5C2.019,1,0,3.019,0,5.5v10c0,1.496.944,2.776,2.268,3.276-.176.385-.268.799-.268,1.224,0,1.654,1.346,3,3,3s3-1.346,3-3c0-.344-.06-.68-.176-1h8.352c-.116.319-.176.656-.176,1,0,1.654,1.346,3,3,3s3-1.346,3-3c0-.426-.092-.84-.268-1.224,1.324-.5,2.268-1.78,2.268-3.276v-5c0-2.481-2.019-4.5-4.5-4.5Zm0,1c1.93,0,3.5,1.57,3.5,3.5v1.5h-6v-5h2.5ZM1,15.5V5.5c0-1.93,1.57-3.5,3.5-3.5h8c1.93,0,3.5,1.57,3.5,3.5v12.5H3.5c-1.378,0-2.5-1.121-2.5-2.5Zm6,4.5c0,1.103-.897,2-2,2s-2-.897-2-2c0-.354.097-.698.282-1.007.072.004.145.007.218.007h3.223c.182.307.277.649.277,1Zm14,0c0,1.103-.897,2-2,2s-2-.897-2-2c0-.352.095-.693.277-1h3.223c.073,0,.146-.003.219-.007.185.309.281.652.281,1.007Zm-.5-2h-3.5v-5h6v2.5c0,1.379-1.121,2.5-2.5,2.5Z"/>
</svg>
