<svg id="Layer_1" viewBox="0 0 24 24" xmlns="http://www.w3.org/2000/svg" data-name="Layer 1"><path d="m21.5 10c-.276 0-.5.224-.5.5v3c0 1.485-.934 2.749-2.242 3.257-.273-.819-.758-2.608-.758-5.029 0-2.742.596-4.489.778-4.96.337-.874.29-1.765-.131-2.445-.285-.459-.687-.816-1.16-1.035-.526-.252-1.045-.648-1.381-1.187-.279-.52-1.132-2.101-3.606-2.101h-1c-2.488 0-3.322 1.594-3.597 2.117-.327.522-.851.91-1.39 1.17-.458.209-.85.552-1.133.991-.447.692-.506 1.598-.161 2.482.356.912.78 2.482.78 4.777 0 2.457-.5 4.364-.769 5.215-1.302-.51-2.231-1.772-2.231-3.253v-3c0-.276-.224-.5-.5-.5s-.5.224-.5.5v3c0 2.481 2.019 4.5 4.5 4.5h5v5h-5c-.276 0-.5.224-.5.5s.224.5.5.5h11c.276 0 .5-.224.5-.5s-.224-.5-.5-.5h-5v-5h5c2.481 0 4.5-2.019 4.5-4.5v-3c0-.276-.224-.5-.5-.5zm-15.279-5.179c.181-.279.426-.495.711-.626.742-.361 1.428-.879 1.857-1.614.248-.474.828-1.581 2.711-1.581h1c1.878 0 2.473 1.104 2.727 1.575.443.747 1.123 1.274 1.843 1.62.295.136.547.362.729.653.254.411.271.979.048 1.558-.198.511-.846 2.405-.846 5.321 0 .767.046 1.47.118 2.108-.921-.301-2.869-.836-5.118-.836-2.266 0-4.228.543-5.141.843.083-.699.141-1.466.141-2.305 0-2.451-.462-4.148-.849-5.141-.224-.573-.197-1.163.069-1.576zm.279 12.179c-.099 0-.192-.021-.289-.029.148-.475.329-1.16.482-2.01.061-.023 2.459-.961 5.307-.961 2.763 0 5.101.882 5.282.953.153.86.338 1.542.494 2.019-.093.007-.181.028-.276.028z"/></svg>