<?xml version="1.0" encoding="UTF-8"?>
<svg xmlns="http://www.w3.org/2000/svg" id="Layer_1" data-name="Layer 1" viewBox="0 0 24 24">
  <path d="M11.379,1.015c-2.034,.508-5.475,2.422-6.705,4.985h-1.674c-1.654,0-3,1.346-3,3v6c0,1.654,1.346,3,3,3h1.674c1.23,2.563,4.671,4.477,6.705,4.985,.04,.01,.081,.015,.121,.015,.11,0,.219-.037,.308-.106,.121-.095,.192-.24,.192-.394V1.5c0-.154-.071-.299-.192-.394s-.279-.13-.429-.091Zm-.379,20.811c-1.96-.691-4.722-2.476-5.536-4.511-.075-.19-.26-.314-.464-.314H3c-1.103,0-2-.897-2-2v-6c0-1.103,.897-2,2-2h2c.204,0,.389-.125,.464-.314,.814-2.035,3.576-3.82,5.536-4.511V21.826Zm13-5.326c0,.276-.224,.5-.5,.5-1.758,0-3.267-.559-4.479-1.592-1.097,.946-2.565,1.592-4.521,1.592-.276,0-.5-.224-.5-.5s.224-.5,.5-.5c1.652,0,2.876-.531,3.796-1.302-.711-.814-1.291-1.824-1.703-3.037-.089-.261,.052-.545,.312-.634,.262-.089,.545,.051,.635,.313,.302,.887,.763,1.843,1.456,2.659,1.443-1.701,1.853-4.002,1.962-4.998h-6.458c-.276,0-.5-.224-.5-.5s.224-.5,.5-.5h4v-1.5c0-.276,.224-.5,.5-.5s.5,.224,.5,.5v1.5h4c.276,0,.5,.224,.5,.5s-.224,.5-.5,.5h-1.521c-.108,1.462-.691,3.905-2.264,5.71,.921,.767,2.147,1.29,3.786,1.29,.276,0,.5,.224,.5,.5Z"/>
</svg>
