<svg id="Layer_1" viewBox="0 0 24 24" xmlns="http://www.w3.org/2000/svg" data-name="Layer 1"><path d="m19.5 15h-15c-2.481 0-4.5 2.019-4.5 4.5s2.019 4.5 4.5 4.5h15c2.481 0 4.5-2.019 4.5-4.5s-2.019-4.5-4.5-4.5zm-18.5 4.5c0-1.93 1.57-3.5 3.5-3.5s3.5 1.57 3.5 3.5-1.57 3.5-3.5 3.5-3.5-1.57-3.5-3.5zm8 0c0-1.421-.675-2.675-1.706-3.5h4.206c1.93 0 3.5 1.57 3.5 3.5s-1.57 3.5-3.5 3.5h-4.206c1.032-.825 1.706-2.079 1.706-3.5zm10.5 3.5h-5.206c1.032-.825 1.706-2.079 1.706-3.5s-.675-2.675-1.706-3.5h5.206c1.93 0 3.5 1.57 3.5 3.5s-1.57 3.5-3.5 3.5zm-16.536-10.018c.267-.072.424-.348.351-.613-.209-.769-.315-1.565-.315-2.369 0-2.29.867-4.376 2.28-5.966-.179.815-.28 1.649-.28 2.497 0 2.219.628 4.376 1.816 6.238.149.235.46.3.69.153.232-.148.301-.458.152-.69-1.085-1.702-1.659-3.674-1.659-5.701 0-1.306.237-2.579.698-3.787.868-.636 1.851-1.118 2.914-1.412-.402 1.002-.613 2.08-.613 3.168 0 4.686 3.813 8.5 8.5 8.5 1.095 0 2.178-.214 3.184-.62-.065.262.089.531.352.602.259.072.542-.082.614-.352.397-1.568.483-3.278.095-4.844-.982-4.486-5.147-7.814-9.743-7.786-5.393-.006-10.03 4.454-10 10 0 .893.118 1.777.35 2.631.072.267.346.423.614.352zm17.727-5.28c-.54.195-1.106.298-1.691.298-2.757 0-5-2.243-5-5 0-.585.103-1.151.298-1.691 3.116.825 5.569 3.277 6.394 6.393zm-7.386-6.596c-.203.608-.305 1.242-.305 1.894 0 3.309 2.691 6 6 6 .653 0 1.287-.103 1.894-.305.063.427.106.861.106 1.305 0 .39-.027.778-.077 1.162-1.053.542-2.229.838-3.423.838-4.136 0-7.5-3.364-7.5-7.5 0-1.192.294-2.364.834-3.416.383-.05.77-.084 1.166-.084.444 0 .878.043 1.305.106z"/></svg>