<svg id="Layer_1" viewBox="0 0 24 24" xmlns="http://www.w3.org/2000/svg" data-name="Layer 1"><path d="m23.5 11c.276 0 .5-.224.5-.5s-.224-.5-.5-.5h-1.5v-2h1.5c.276 0 .5-.224.5-.5s-.224-.5-.5-.5h-1.5v-.5c0-2.481-2.019-4.5-4.5-4.5h-.5v-1.5c0-.276-.224-.5-.5-.5s-.5.224-.5.5v1.5h-2v-1.5c0-.276-.224-.5-.5-.5s-.5.224-.5.5v1.5h-2v-1.5c0-.276-.224-.5-.5-.5s-.5.224-.5.5v1.5h-2v-1.5c0-.276-.224-.5-.5-.5s-.5.224-.5.5v1.5h-.5c-2.481 0-4.5 2.019-4.5 4.5v.5h-1.5c-.276 0-.5.224-.5.5s.224.5.5.5h1.5v2h-1.5c-.276 0-.5.224-.5.5s.224.5.5.5h1.5v2h-1.5c-.276 0-.5.224-.5.5s.224.5.5.5h1.5v2h-1.5c-.276 0-.5.224-.5.5s.224.5.5.5h1.5v.5c0 2.481 2.019 4.5 4.5 4.5h.5v1.5c0 .276.224.5.5.5s.5-.224.5-.5v-1.5h2v1.5c0 .276.224.5.5.5s.5-.224.5-.5v-1.5h2v1.5c0 .276.224.5.5.5s.5-.224.5-.5v-1.5h2v1.5c0 .276.224.5.5.5s.5-.224.5-.5v-1.5h.5c2.481 0 4.5-2.019 4.5-4.5v-.5h1.5c.276 0 .5-.224.5-.5s-.224-.5-.5-.5h-1.5v-2h1.5c.276 0 .5-.224.5-.5s-.224-.5-.5-.5h-1.5v-2zm-2.5 2h-1.5c-.276 0-.5.224-.5.5s.224.5.5.5h1.5v2h-1.5c-.276 0-.5.224-.5.5s.224.5.5.5h1.5v.5c0 1.93-1.57 3.5-3.5 3.5h-.5v-1.5c0-.276-.224-.5-.5-.5s-.5.224-.5.5v1.5h-2v-1.5c0-.276-.224-.5-.5-.5s-.5.224-.5.5v1.5h-2v-1.5c0-.276-.224-.5-.5-.5s-.5.224-.5.5v1.5h-2v-1.5c0-.276-.224-.5-.5-.5s-.5.224-.5.5v1.5h-.5c-1.93 0-3.5-1.57-3.5-3.5v-.5h1.5c.276 0 .5-.224.5-.5s-.224-.5-.5-.5h-1.5v-2h1.5c.276 0 .5-.224.5-.5s-.224-.5-.5-.5h-1.5v-2h1.5c.276 0 .5-.224.5-.5s-.224-.5-.5-.5h-1.5v-2h1.5c.276 0 .5-.224.5-.5s-.224-.5-.5-.5h-1.5v-.5c0-1.93 1.57-3.5 3.5-3.5h.5v1.5c0 .276.224.5.5.5s.5-.224.5-.5v-1.5h2v1.5c0 .276.224.5.5.5s.5-.224.5-.5v-1.5h2v1.5c0 .276.224.5.5.5s.5-.224.5-.5v-1.5h2v1.5c0 .276.224.5.5.5s.5-.224.5-.5v-1.5h.5c1.93 0 3.5 1.57 3.5 3.5v.5h-1.5c-.276 0-.5.224-.5.5s.224.5.5.5h1.5v2h-1.5c-.276 0-.5.224-.5.5s.224.5.5.5h1.5z"/></svg>