<?xml version="1.0" encoding="UTF-8"?>
<svg xmlns="http://www.w3.org/2000/svg" id="Layer_1" data-name="Layer 1" viewBox="0 0 24 24">
  <path d="M5.612,11.852l-.906-4.244c-.067-.313,.172-.608,.492-.608,.238,0,.443,.166,.492,.399l.9,4.244c.025,.131,.146,.357,.236,.357,.101,0,.211-.224,.239-.372l.836-4.223c.047-.236,.253-.405,.494-.405h.016c.318,0,.557,.292,.493,.604l-.858,4.215c-.094,.485-.471,1.181-1.221,1.181s-1.132-.727-1.214-1.148Zm4.388,.648v-4.5c0-.551,.448-1,1-1h1c1.103,0,2,.897,2,2s-.897,2-2,2h-1v1.5c0,.276-.224,.5-.5,.5s-.5-.224-.5-.5Zm1-2.5h1c.552,0,1-.449,1-1s-.448-1-1-1h-1v2Zm4.5,3c.276,0,.5-.224,.5-.5v-3.564l1.54,3.593c.143,.336,.492,.52,.852,.446,.358-.073,.608-.38,.608-.745V7.5c0-.276-.224-.5-.5-.5s-.5,.224-.5,.5v3.564l-1.55-3.617c-.143-.334-.488-.514-.847-.443-.355,.073-.604,.377-.604,.74v4.755c0,.276,.224,.5,.5,.5Zm8.5,5.5c0,1.378-1.121,2.5-2.5,2.5H2.5c-1.379,0-2.5-1.122-2.5-2.5,0-1.207,.86-2.217,2-2.449V7.5c0-2.481,2.019-4.5,4.5-4.5h11c2.481,0,4.5,2.019,4.5,4.5v8.551c1.14,.232,2,1.242,2,2.449ZM3,7.5v8.5h5.5c.133,0,.26,.053,.354,.146l.854,.854h4.586l.854-.854c.094-.094,.221-.146,.354-.146h5.5V7.5c0-1.93-1.57-3.5-3.5-3.5H6.5c-1.93,0-3.5,1.57-3.5,3.5Zm20,11c0-.827-.673-1.5-1.5-1.5h-5.793l-.854,.854c-.094,.094-.221,.146-.354,.146h-5c-.133,0-.26-.053-.354-.146l-.854-.854H2.5c-.827,0-1.5,.673-1.5,1.5s.673,1.5,1.5,1.5H21.5c.827,0,1.5-.673,1.5-1.5Z"/>
</svg>
