<svg id="Layer_1" viewBox="0 0 24 24" xmlns="http://www.w3.org/2000/svg" data-name="Layer 1"><path d="m17.5 0c-3.584 0-6.5 2.916-6.5 6.5s2.916 6.5 6.5 6.5 6.5-2.916 6.5-6.5-2.916-6.5-6.5-6.5zm0 12c-3.033 0-5.5-2.467-5.5-5.5s2.467-5.5 5.5-5.5 5.5 2.467 5.5 5.5-2.467 5.5-5.5 5.5zm-.5-4.5v-5c0-.276.224-.5.5-.5s.5.224.5.5v5c0 .276-.224.5-.5.5s-.5-.224-.5-.5zm1.5 2.5c0 .552-.448 1-1 1s-1-.448-1-1 .448-1 1-1 1 .448 1 1zm.96 5.006c-.27-.044-.528.143-.572.416-.34 2.142-1.446 4.091-3.116 5.489-.688.576-1.455 1.033-2.266 1.377.613-.755.995-1.692.993-2.716 0-1.776-1.154-3.231-3.192-5.65-.312-.374-.787-.589-1.304-.591h-.008c-.52 0-.999.213-1.315.586-2.249 2.634-3.166 3.883-3.18 5.656-.004 1.01.34 1.953.947 2.724-3.455-1.438-5.665-4.911-5.431-8.898.109-1.856 1.287-4.483 2.341-6.012.266-.386.549-.386.642-.386.371 0 .502.321.548.517.263 1.078.545 2.953 1.96 2.983 1.971-.032 2.246-1.98 2.466-3.546.137-.973.272-2.103.625-3.084.068-.188.162-.352.279-.487.18-.209.157-.525-.053-.705-.209-.181-.525-.158-.705.053-.196.228-.351.496-.46.797-.392 1.086-.531 2.258-.676 3.287-.265 1.881-.531 2.67-1.484 2.686-.569-.047-.815-1.573-.979-2.217-.184-.779-.781-1.283-1.521-1.283-.591 0-1.098.284-1.466.819-1.353 1.999-2.533 4.769-2.533 7.462 0 5.431 4.377 9.717 10.062 9.717 2.307 0 4.563-.825 6.352-2.323 1.855-1.552 3.084-3.718 3.461-6.099.043-.272-.143-.529-.416-.572zm-10.018-.442c.125-.147.332-.234.555-.234h.003c.221 0 .418.085.542.234 1.889 2.242 2.958 3.58 2.958 5.008.002 1.853-1.563 3.387-3.493 3.427-1.908.037-3.545-1.51-3.506-3.421.011-1.439.86-2.575 2.941-5.014z"/></svg>