<svg id="Layer_1" viewBox="0 0 24 24" xmlns="http://www.w3.org/2000/svg" data-name="Layer 1"><path d="m21.719 12.75c-.176-.305-.424-.548-.701-.75.276-.202.525-.445.701-.75l1.01-1.75c.446-.771.446-1.729 0-2.5l-1.01-1.75c-.445-.771-1.274-1.25-2.165-1.25h-2.021c-.328 0-.639.084-.935.205-.02-.389-.117-.775-.317-1.121l-1.058-1.833c-.444-.772-1.274-1.251-2.164-1.251h-2.117c-.891 0-1.72.479-2.165 1.25l-1.059 1.833c-.2.347-.297.733-.317 1.121-.295-.121-.607-.205-.935-.205h-2.021c-.891 0-1.72.479-2.165 1.25l-1.01 1.75c-.446.771-.446 1.729 0 2.5l1.01 1.75c.176.305.424.548.701.75-.276.202-.525.445-.701.75l-1.01 1.75c-.446.771-.446 1.729 0 2.5l1.01 1.75c.445.771 1.274 1.25 2.165 1.25h2.021c.328 0 .639-.084.935-.205.02.389.117.775.317 1.121l1.058 1.833c.444.771 1.274 1.25 2.165 1.25h2.117c.891 0 1.721-.479 2.164-1.25l1.059-1.833c.2-.347.297-.733.317-1.121.295.121.607.205.935.205h2.021c.891 0 1.72-.479 2.165-1.25l1.01-1.75c.446-.771.446-1.729 0-2.5l-1.01-1.75zm-2.165-7.75c.534 0 1.032.288 1.3.75l1.01 1.75c.267.463.267 1.037 0 1.5l-1.01 1.75c-.268.462-.766.75-1.3.75h-2.021c-.477 0-.916-.238-1.197-.616-.022-.043-1.165-2.028-1.187-2.063-.176-.427-.16-.915.073-1.321l1.011-1.75c.268-.462.766-.75 1.3-.75zm-9.838 9.68c-.028-.059-1.156-2.016-1.187-2.063-.178-.393-.178-.84 0-1.233.032-.047 1.16-2.005 1.188-2.063.277-.401.731-.654 1.224-.654h2.117c.493 0 .947.252 1.225.654.028.059 1.156 2.016 1.187 2.063.178.393.178.84 0 1.233-.032.047-1.16 2.005-1.188 2.063-.277.401-.731.654-1.224.654h-2.117c-.493 0-.947-.252-1.225-.654zm-1.132-11.096 1.059-1.833c.266-.463.764-.75 1.298-.75h2.117c.534 0 1.032.287 1.299.75l1.059 1.833c.267.462.267 1.037 0 1.5l-1.06 1.833c-.266.462-.764.75-1.298.75h-2.117c-.534 0-1.032-.287-1.299-.75l-1.059-1.833c-.267-.463-.267-1.038 0-1.5zm-5.438 7.166-1.01-1.75c-.267-.463-.267-1.037 0-1.5l1.01-1.75c.268-.462.766-.75 1.3-.75h2.021c.534 0 1.032.288 1.3.75l1.01 1.75c.234.406.25.894.074 1.321-.022.034-1.165 2.019-1.187 2.063-.281.378-.72.616-1.197.616h-2.021c-.534 0-1.032-.288-1.3-.75zm1.3 8.25c-.534 0-1.032-.288-1.3-.75l-1.01-1.75c-.267-.463-.267-1.037 0-1.5l1.01-1.75c.268-.462.766-.75 1.3-.75h2.021c.477 0 .916.238 1.197.616.022.043 1.165 2.028 1.187 2.063.176.427.16.915-.073 1.321l-1.011 1.75c-.268.462-.766.75-1.3.75zm10.97 1.417-1.06 1.834c-.266.462-.764.75-1.298.75h-2.117c-.534 0-1.032-.287-1.299-.75l-1.059-1.833c-.267-.462-.267-1.037 0-1.5l1.06-1.833c.266-.462.764-.75 1.298-.75h2.117c.534 0 1.032.287 1.299.75l1.059 1.833c.267.463.267 1.038 0 1.5zm6.447-3.917-1.01 1.75c-.268.462-.766.75-1.3.75h-2.021c-.534 0-1.032-.288-1.3-.75l-1.01-1.75c-.234-.406-.25-.894-.074-1.321.022-.034 1.165-2.019 1.187-2.063.281-.378.72-.616 1.197-.616h2.021c.534 0 1.032.288 1.3.75l1.01 1.75c.267.463.267 1.037 0 1.5z"/></svg>