<svg id="Layer_1" viewBox="0 0 24 24" xmlns="http://www.w3.org/2000/svg" data-name="Layer 1"><path d="m23.343 13.384c.256-.776-.117-1.625-.87-1.975-.973-.45-1.812-.528-2.566-.245-.635.24-1.168.753-1.604 1.497-1.327-1.081-3.008-1.803-4.707-1.563l4.002-4.005c.501.874 1.118 1.468 1.854 1.735.316.115.647.173.995.173.614 0 1.281-.18 2.016-.542.726-.358 1.077-1.179.835-1.95-.15-.478-.323-.902-.516-1.27 1.01-1.279 1.198-2.834 1.216-3.682.009-.421-.15-.814-.446-1.111-.296-.295-.68-.442-1.11-.444-.848.018-2.402.204-3.682 1.216-.366-.192-.791-.365-1.269-.515-.773-.243-1.593.108-1.951.835-.567 1.149-.688 2.134-.37 3.01.265.731.853 1.343 1.716 1.842l-3.961 3.964c.259-2.018-.899-3.801-1.588-4.658.745-.436 1.257-.97 1.497-1.604.285-.755.204-1.594-.246-2.565-.348-.752-1.194-1.127-1.974-.87-.357.119-.679.252-.962.397-1.005-.783-2.189-1.003-3.038-1.045-.428-.034-.854.14-1.16.443-.305.305-.468.728-.446 1.16.043.851.264 2.035 1.046 3.042-.146.283-.279.605-.397.962-.256.776.117 1.625.87 1.975.594.274 1.138.411 1.643.411.322 0 .629-.056.923-.166.609-.23 1.126-.71 1.552-1.406.976 1.245 2.341 3.749.088 6.12l-2.812 2.814c.264-2.046-.925-3.852-1.589-4.676.427-.25.799-.524 1.06-.839.176-.213.146-.528-.067-.704-.214-.177-.528-.146-.704.067-.274.333-.703.629-1.271.881-.114.05-.205.141-.256.255-.366.828-.822 1.351-1.354 1.551-.491.186-1.077.114-1.792-.216-.291-.136-.438-.459-.341-.753.141-.425.302-.785.479-1.07.119-.19.095-.438-.057-.603-.774-.84-.982-1.929-1.021-2.694-.025-.314.252-.567.557-.557.456.023 1.138.115 1.798.425.251.118.548.01.665-.241.117-.25.01-.548-.24-.665-.808-.378-1.628-.49-2.173-.517-.426-.029-.855.14-1.16.443-.306.306-.469.729-.447 1.162.043.85.264 2.034 1.046 3.041-.146.283-.279.605-.397.962-.256.776.117 1.625.87 1.975.594.274 1.138.411 1.643.411.322 0 .629-.056.923-.166.609-.23 1.126-.71 1.552-1.406.96 1.23 2.364 3.776.049 6.164l-5.548 5.552c-.195.195-.195.512 0 .707s.512.195.707 0c0 0 5.493-5.492 5.496-5.495 2.396-2.386 4.933-1.016 6.22-.003-.696.426-1.175.943-1.405 1.552-.285.755-.204 1.594.246 2.565.349.753 1.197 1.13 1.974.87.356-.119.679-.252.962-.397 1.006.782 2.19 1.003 3.04 1.045.43.022.855-.14 1.16-.443.305-.305.468-.728.446-1.161-.038-.741-.193-1.431-.461-2.047-.11-.253-.403-.367-.658-.26-.253.11-.37.405-.259.658.274.631.357 1.272.379 1.698.008.153-.047.297-.154.403s-.251.155-.403.153c-.766-.038-1.854-.246-2.694-1.021-.165-.153-.412-.178-.602-.058-.286.177-.647.338-1.071.479-.295.095-.617-.05-.752-.341-.331-.716-.402-1.302-.217-1.793.201-.532.723-.988 1.551-1.354.114-.05.205-.142.255-.255.258-.586.564-1.021.909-1.295.216-.171.253-.486.081-.702-.172-.218-.486-.254-.702-.081-.337.267-.638.631-.901 1.083-.892-.718-2.665-1.851-4.669-1.581 0 0 2.721-2.713 2.724-2.716 2.415-2.404 5.013-.946 6.22-.003-.695.426-1.175.943-1.404 1.552-.285.755-.204 1.594.246 2.565.349.753 1.198 1.129 1.974.87.356-.119.679-.252.962-.397 1.006.782 2.19 1.003 3.04 1.045.43.022.855-.14 1.16-.443.305-.305.468-.728.446-1.161-.043-.85-.264-2.034-1.046-3.041.146-.283.279-.605.397-.962zm-13.25-8.035c-.366.828-.822 1.351-1.354 1.551-.491.186-1.077.114-1.792-.216-.291-.136-.438-.459-.341-.753.141-.425.302-.785.479-1.07.119-.19.095-.438-.057-.603-.773-.84-.982-1.929-1.021-2.694-.02-.31.241-.574.557-.557.766.038 1.854.246 2.694 1.021.164.153.411.176.602.058.286-.177.647-.338 1.071-.479.293-.094.617.05.752.341.331.716.402 1.302.217 1.793-.201.532-.723.988-1.551 1.354-.114.05-.205.141-.255.255zm6.018-1.142c-.22-.606-.113-1.335.327-2.228.138-.283.463-.416.754-.323.545.172 1.003.372 1.363.594.19.119.437.096.602-.058 1.084-.999 2.537-1.175 3.307-1.19.301.002.543.236.534.534-.017.771-.193 2.224-1.192 3.307-.152.165-.176.411-.057.603.221.355.426.827.594 1.362.094.299-.042.616-.323.755-.893.439-1.623.544-2.228.326-.636-.231-1.177-.843-1.608-1.818-.051-.114-.142-.205-.255-.255-.976-.432-1.587-.973-1.818-1.608zm6.882 13.229c.008.153-.047.297-.154.403-.106.106-.24.159-.402.153-.766-.038-1.854-.246-2.694-1.021-.165-.153-.412-.176-.602-.058-.286.177-.647.338-1.071.479-.294.094-.617-.05-.752-.341-.331-.716-.402-1.302-.217-1.793.201-.532.723-.988 1.551-1.354.114-.05.205-.141.255-.255.366-.828.822-1.351 1.354-1.551.491-.188 1.077-.114 1.792.216.291.136.438.459.341.753-.141.425-.302.785-.479 1.07-.119.19-.095.438.057.603.774.84.982 1.929 1.021 2.694z"/></svg>