<svg id="Layer_1" viewBox="0 0 24 24" xmlns="http://www.w3.org/2000/svg" data-name="Layer 1"><path d="m9 0c-3.309 0-6 2.691-6 6s2.691 6 6 6 6-2.691 6-6-2.691-6-6-6zm0 11c-2.757 0-5-2.243-5-5s2.243-5 5-5 5 2.243 5 5-2.243 5-5 5zm5.824 5.139c.21.179.236.494.057.705s-.494.235-.705.057c-1.442-1.226-3.281-1.9-5.177-1.9-4.411 0-8 3.589-8 8v.5c0 .276-.224.5-.5.5s-.5-.224-.5-.5v-.5c0-4.963 4.038-9 9-9 2.133 0 4.202.76 5.824 2.139zm2.319-10.789c-.193-.197-.189-.514.008-.707l2.231-2.182c.615-.615 1.622-.615 2.241.004l2.227 2.178c.197.193.201.51.008.707-.193.198-.51.2-.707.008l-2.15-2.103v5.245c0 .276-.224.5-.5.5s-.5-.224-.5-.5v-5.246l-2.15 2.103c-.197.193-.514.191-.707-.008zm6.857 9.923v.227c0 .276-.224.5-.5.5s-.5-.224-.5-.5v-.227c0-.702-.543-1.273-1.21-1.273h-2.58c-.667 0-1.21.571-1.21 1.273 0 .567.363 1.071.882 1.226l3.52 1.043c.941.279 1.598 1.178 1.598 2.185 0 1.254-.991 2.273-2.21 2.273h-.79v1.5c0 .276-.224.5-.5.5s-.5-.224-.5-.5v-1.5h-.79c-1.219 0-2.21-1.02-2.21-2.273v-.227c0-.276.224-.5.5-.5s.5.224.5.5v.227c0 .702.543 1.273 1.21 1.273h2.58c.667 0 1.21-.571 1.21-1.273 0-.567-.363-1.071-.882-1.226l-3.52-1.043c-.941-.279-1.598-1.178-1.598-2.185 0-1.254.991-2.273 2.21-2.273h.79v-1.5c0-.276.224-.5.5-.5s.5.224.5.5v1.5h.79c1.219 0 2.21 1.02 2.21 2.273z"/></svg>