<?xml version="1.0" encoding="UTF-8"?>
<svg xmlns="http://www.w3.org/2000/svg" id="Layer_1" data-name="Layer 1" viewBox="0 0 24 24">
  <path d="M12,0C5.383,0,0,5.383,0,12s5.383,12,12,12,12-5.383,12-12S18.617,0,12,0Zm0,23c-6.065,0-11-4.935-11-11S5.935,1,12,1s11,4.935,11,11-4.935,11-11,11Zm5.304-13.025c-6.45-3.426-7.038-3.738-7.108-3.774h0c-.848-.389-1.836-.208-2.523,.461-.637,.633-.849,1.581-.51,2.393,.079,.155,1.147,2.243,1.506,2.945-.439,.854-1.296,2.512-1.449,2.775-.284,.59-.293,1.275-.027,1.88,.244,.553,.689,.977,1.254,1.194,.265,.102,.541,.152,.816,.152,.312,0,.625-.065,.918-.195,1.584-.685,6.914-3.634,7.125-3.751,.775-.394,1.255-1.178,1.252-2.047-.003-.869-.488-1.649-1.255-2.033Zm-.466,3.197c-.055,.03-5.513,3.051-7.056,3.718-.312,.137-.658,.147-.975,.025-.314-.121-.562-.357-.698-.665-.148-.336-.144-.717-.007-1.006,.19-.321,1.433-2.741,1.574-3.016,.073-.143,.074-.313,0-.456,0,0-1.527-2.984-1.605-3.136-.163-.394-.034-.926,.304-1.262,.252-.246,.575-.375,.9-.375,.167,0,.335,.035,.493,.105,.337,.179,7.067,3.754,7.078,3.759,.445,.222,.711,.651,.713,1.147,.002,.497-.262,.927-.721,1.161Z"/>
</svg>
