<svg id="Layer_1" viewBox="0 0 24 24" xmlns="http://www.w3.org/2000/svg" data-name="Layer 1"><path d="m20 11c0 .552-.448 1-1 1s-1-.448-1-1 .448-1 1-1 1 .448 1 1zm2-1c.552 0 1-.448 1-1s-.448-1-1-1-1 .448-1 1 .448 1 1 1zm0 2c-.552 0-1 .448-1 1s.448 1 1 1 1-.448 1-1-.448-1-1-1zm-5.5-.5c0 .276-.224.5-.5.5h-2.5c-.465-.057-.925-.178-1.312-.465l-1.188-.849v6.505l.618.309c.853.427 1.382 1.283 1.382 2.236v3.764c0 .276-.224.5-.5.5s-.5-.224-.5-.5v-3.764c0-.572-.318-1.086-.829-1.342l-4.236-2.118c-.594-.297-1.075-.743-1.41-1.281-.009 0-.016.005-.025.005h-1c-1.93 0-3.5-1.57-3.5-3.5v-2c0-1.93 1.57-3.5 3.5-3.5h.5v-3c0-1.654 1.346-3 3-3s3 1.346 3 3v3.362l2.783 4.638h2.217c.276 0 .5.224.5.5zm-10.5-5.5h4v-2h-1.5c-.276 0-.5-.224-.5-.5s.224-.5.5-.5h1.5c0-1.103-.897-2-2-2s-2 .897-2 2zm-.89 8c-.069-.276-.11-.561-.11-.854v-6.146h-.5c-1.378 0-2.5 1.122-2.5 2.5v2c0 1.378 1.122 2.5 2.5 2.5zm7.099-3.679-1.993-3.321h-4.217v6.146c0 .953.529 1.811 1.382 2.236l2.618 1.309v-6.225c0-.333.184-.636.481-.789.296-.153.649-.127.921.067zm-6.143 7.688c-.271-.049-.533.125-.586.396l-.971 5c-.053.271.125.534.396.587.265.052.535-.123.586-.396l.971-5c.053-.271-.125-.534-.396-.587z"/></svg>