<svg id="Layer_1" viewBox="0 0 24 24" xmlns="http://www.w3.org/2000/svg" data-name="Layer 1"><path d="m22.764 12.364c-.225-.222-.488-.378-.766-.495-.13-1.869-.453-3.614-.961-5.185-.207-.644-.661-1.157-1.279-1.446-.632-.295-1.368-.315-2.021-.053-.49.198-.952.422-1.4.664-.394-1.772-1.203-3.47-2.403-4.935-.953-1.162-2.914-1.162-3.867 0-1.202 1.466-2.009 3.164-2.403 4.936-.449-.243-.912-.467-1.402-.665-.651-.262-1.387-.242-2.019.053-.618.289-1.073.803-1.281 1.447-.507 1.572-.83 3.317-.96 5.186-.277.117-.541.273-.766.495-.582.575-.842 1.398-.694 2.203 1.037 6.048 5.744 9.432 11.459 9.432 5.821 0 10.423-3.384 11.46-9.432.146-.805-.113-1.629-.696-2.204zm-4.652-6.252c.396-.159.841-.147 1.223.031.363.17.63.471.752.848.46 1.424.755 3.005.89 4.697-.119.006-.237.003-.357.027-1.559.305-3.025.885-4.339 1.699-.467-1.658-1.245-3.291-2.464-4.626 1.421-1.139 2.73-2.044 4.295-2.676zm-7.183 10.154c-.683-.854-1.467-1.616-2.339-2.261.381-1.604 1.12-3.099 2.217-4.44.588-.719 1.799-.718 2.387 0 1.098 1.343 1.838 2.839 2.218 4.444-.871.645-1.653 1.405-2.336 2.259-.672-.299-1.474-.299-2.147-.002zm-.088-14.718c.57-.696 1.75-.696 2.32 0 1.173 1.431 1.951 3.1 2.278 4.833-.841.531-1.657 1.141-2.511 1.836-.594-.216-1.26-.216-1.853 0-.854-.696-1.669-1.305-2.511-1.836.327-1.733 1.103-3.402 2.277-4.834zm-6.927 5.443c.121-.377.389-.678.752-.848.382-.178.826-.19 1.221-.031 1.566.631 2.875 1.537 4.296 2.676-1.219 1.335-1.998 2.969-2.465 4.627-1.315-.815-2.782-1.397-4.338-1.702-.12-.023-.238-.02-.357-.025.135-1.691.43-3.273.89-4.697zm-2.39 7.398c-.087-.479.067-.97.414-1.312.336-.332.793-.47 1.25-.381 2.756.54 5.204 2.019 6.934 4.165-1.165 1.36-2.037 3.349-2.48 5.392-4.435-1.686-5.746-5.83-6.118-7.864zm7.076 8.173c.386-1.904 1.207-3.753 2.245-5.017.566-.691 1.744-.691 2.311 0 1.038 1.265 1.858 3.114 2.245 5.017-.995.271-2.112.439-3.4.439s-2.405-.168-3.4-.439zm13.875-8.173c-.372 2.034-1.683 6.178-6.118 7.864-.442-2.042-1.315-4.03-2.477-5.39 1.729-2.147 4.17-3.626 6.931-4.166.463-.094.916.049 1.251.38.347.343.502.833.414 1.312z"/></svg>