<svg id="Layer_1" viewBox="0 0 24 24" xmlns="http://www.w3.org/2000/svg" data-name="Layer 1"><path d="m12 0c-6.617 0-12 5.383-12 12v6.5c.007 1.836.823 3.383 2.127 4.09 1.026.661 2.19 1.41 3.873 1.41 1.785 0 3.346-.84 4.231-2.11.363-.445.961-.897 1.774-.89.862-.01 1.446.508 1.828.979.895 1.219 2.424 2.021 4.167 2.021 1.683 0 2.846-.75 3.873-1.41 1.307-.715 2.122-2.264 2.127-4.09v-6.5c0-6.617-5.383-12-12-12zm-2.024 19.902c-.209 1.766-1.918 3.098-3.976 3.098-1.389 0-2.376-.636-3.331-1.251-1.079-.553-1.71-1.883-1.669-3.4.479-.507 2.43-2.349 5.301-2.349 1.093 0 2.125.44 2.831 1.234.66.744.96 1.691.844 2.668zm3.055.119c.007.061.03.116.04.176-.36-.127-.735-.197-1.066-.197-.337 0-.714.067-1.075.193.111-.456.061-.937-.004-1.387.363.126.741.194 1.079.194.333 0 .708-.07 1.07-.198-.064.398-.093.804-.044 1.219zm8.3 1.728c-.955.615-1.942 1.251-3.331 1.251-2.057 0-3.766-1.332-3.976-3.098-.116-.977.184-1.924.844-2.668.706-.794 1.737-1.234 2.831-1.234 2.871 0 4.821 1.842 5.301 2.349-.007 1.494-.626 2.843-1.669 3.4zm1.669-4.77c-1.009-.841-2.841-1.979-5.301-1.979-1.379 0-2.683.562-3.578 1.57-.18.22-.325.445-.497.665-.186.386-.987.765-1.619.765-.62 0-1.393-.345-1.59-.709-.191-.233-.332-.491-.536-.721-.895-1.008-2.199-1.57-3.578-1.57-2.459 0-4.292 1.137-5.301 1.979v-4.979c0-6.065 4.935-11 11-11s11 4.935 11 11z"/></svg>