<svg id="Layer_1" viewBox="0 0 24 24" xmlns="http://www.w3.org/2000/svg" data-name="Layer 1"><path d="m6.5 15c3.584 0 6.5-2.916 6.5-6.5s-2.916-6.5-6.5-6.5-6.5 2.916-6.5 6.5 2.916 6.5 6.5 6.5zm0-12c3.033 0 5.5 2.467 5.5 5.5s-2.467 5.5-5.5 5.5-5.5-2.467-5.5-5.5 2.467-5.5 5.5-5.5zm-.5 6.5v-5c0-.276.224-.5.5-.5s.5.224.5.5v5c0 .276-.224.5-.5.5s-.5-.224-.5-.5zm-.5 2.5c0-.552.448-1 1-1s1 .448 1 1-.448 1-1 1-1-.448-1-1zm17.58-3.85c-.568-.284-1.236-.223-1.799.205l-2.281 2.301c.068-2.106-1.333-3.994-3.375-4.515-.263-.068-.54.092-.609.36s.092.54.36.609c1.545.397 2.625 1.792 2.625 3.39v7c0 1.93-1.57 3.5-3.5 3.5h-10.001c-1.93 0-3.5-1.57-3.5-3.5v-2c0-.276-.224-.5-.5-.5s-.5.224-.5.5v2c0 2.481 2.019 4.5 4.5 4.5h10c2.553.006 4.601-2.144 4.5-4.69l2.336 2.328c.295.221.645.334.997.334.894.015 1.667-.76 1.667-1.667v-8.665c0-.64-.353-1.206-.92-1.489zm-.08 10.154c0 .258-.138.48-.368.596-.229.116-.49.092-.643-.017l-2.989-2.986v-3.821l2.936-2.97c.206-.153.466-.178.697-.062.23.115.368.337.368.595v8.665z"/></svg>