<svg id="Layer_1" viewBox="0 0 24 24" xmlns="http://www.w3.org/2000/svg" data-name="Layer 1"><path d="m1.75 16c.101.257-.026.547-.284.647-.251.099-.547-.024-.647-.284-.543-1.389-.818-2.856-.818-4.363-.001-6.617 5.382-12 11.999-12 2.992 0 5.797 1.091 8 3.072v-2.572c0-.276.224-.5.5-.5s.5.224.5.5v3c0 .827-.673 1.5-1.5 1.5h-3c-.276 0-.5-.224-.5-.5s.224-.5.5-.5h3c.009 0 .016-.005.025-.005-2.046-1.927-4.694-2.995-7.525-2.995-6.065 0-11 4.935-11 11 0 1.382.252 2.728.75 4zm21.432-8.363c-.101-.258-.391-.385-.647-.284-.258.101-.385.391-.284.647.498 1.272.75 2.618.75 4 0 6.065-4.935 11-11 11-2.831 0-5.479-1.067-7.525-2.995.009 0 .016-.005.025-.005h3c.276 0 .5-.224.5-.5s-.224-.5-.5-.5h-3c-.827 0-1.5.673-1.5 1.5v3c0 .276.224.5.5.5s.5-.224.5-.5v-2.572c2.202 1.981 5.007 3.072 8 3.072 6.617 0 12-5.383 12-12 0-1.507-.275-2.975-.818-4.363zm-12.682 10.863v-.694c-1.093-.281-2.086-.866-2.86-1.685l-.605.333c-.725.401-1.639.135-2.038-.587-.399-.726-.135-1.641.589-2.039l.606-.335c-.127-.491-.191-.991-.191-1.493s.064-1.002.191-1.493l-.606-.335c-.724-.4-.987-1.314-.59-2.038.401-.724 1.317-.989 2.039-.588l.605.333c.774-.818 1.768-1.403 2.86-1.685v-.694c0-.827.673-1.5 1.5-1.5s1.5.673 1.5 1.5v.694c1.093.281 2.086.866 2.86 1.685l.605-.333c.723-.403 1.638-.136 2.038.587.398.725.135 1.639-.588 2.039l-.607.335c.127.491.191.992.191 1.493s-.064 1.002-.191 1.493l.607.335c.724.399.987 1.313.589 2.038-.402.725-1.316.989-2.039.588l-.605-.333c-.774.818-1.768 1.403-2.86 1.685v.694c0 .827-.673 1.5-1.5 1.5s-1.5-.673-1.5-1.5zm.591-1.588c.237.044.409.251.409.492v1.096c0 .275.225.5.5.5s.5-.225.5-.5v-1.096c0-.241.172-.448.409-.492 1.159-.213 2.209-.831 2.955-1.74.152-.187.415-.236.628-.12l.956.527c.245.134.549.045.681-.196.133-.241.045-.546-.196-.68l-.958-.529c-.211-.116-.309-.367-.232-.596.172-.516.259-1.047.259-1.578s-.087-1.062-.259-1.58c-.076-.229.022-.479.233-.595l.958-.528c.24-.134.329-.439.195-.681-.132-.239-.435-.328-.68-.195l-.956.527c-.211.117-.475.066-.628-.12-.746-.909-1.796-1.527-2.955-1.74-.237-.044-.409-.251-.409-.492v-1.096c0-.275-.225-.5-.5-.5s-.5.225-.5.5v1.096c0 .241-.172.448-.409.492-1.159.213-2.209.831-2.955 1.74-.153.186-.417.235-.628.12l-.956-.527c-.245-.133-.548-.045-.681.196-.133.24-.044.546.197.68l.957.528c.211.116.31.366.233.595-.172.518-.259 1.049-.259 1.58s.087 1.062.259 1.578c.076.229-.021.479-.232.596l-.958.529c-.242.134-.33.438-.197.68.135.241.438.328.681.196l.956-.527c.209-.116.474-.067.628.12.746.909 1.796 1.527 2.955 1.74zm.909-1.912c.276 0 .5-.224.5-.5v-5c0-.276-.224-.5-.5-.5s-.5.224-.5.5v5c0 .276.224.5.5.5zm2 0c.276 0 .5-.224.5-.5v-3c0-.276-.224-.5-.5-.5s-.5.224-.5.5v3c0 .276.224.5.5.5zm-4-3c-.276 0-.5.224-.5.5v2c0 .276.224.5.5.5s.5-.224.5-.5v-2c0-.276-.224-.5-.5-.5z"/></svg>