<svg id="Layer_1" viewBox="0 0 24 24" xmlns="http://www.w3.org/2000/svg" data-name="Layer 1"><path d="m10.708 10.955.63 2.045h-1.274zm11.889 7.655c-.596.902-1.746 1.369-3.353 1.369-.293 0-.602-.016-.924-.047-.275-.026-.477-.271-.45-.545.027-.276.275-.475.546-.45 1.684.163 2.866-.15 3.347-.878.257-.39.318-.904.182-1.529-.392-1.795-2.301-4.138-5.002-6.266.576 4.531-.944 13.737-4.944 13.737-1.101 0-2.128-.779-2.971-2.251-.138-.24-.055-.545.186-.683.236-.138.544-.055.682.186.457.798 1.192 1.749 2.104 1.749 1.491 0 3.113-2.815 3.734-7.18-3.01 2.159-7.911 4.236-10.974 4.179-1.311.025-2.821-.387-3.42-1.489-.638-1.108-.383-2.635.735-4.417.149-.234.46-.301.689-.157.234.147.305.456.158.689-.897 1.427-1.151 2.629-.716 3.385.232.405.665.69 1.284.848 1.69.433 4.441-.144 7.382-1.455-.609-.331-1.291-.713-1.763-1.006-4.307-2.682-7.461-6.102-8.032-8.715-.196-.898-.087-1.67.325-2.293.722-1.09 2.246-1.542 4.405-1.309.274.03.473.276.443.551-.029.275-.277.475-.551.443-1.739-.189-2.97.12-3.464.867-.257.389-.318.903-.182 1.528.392 1.795 2.3 4.138 5.002 6.266-.574-4.533 1.362-14.073 4.945-13.737 1.1 0 2.127.778 2.969 2.25 0 0 0 0 .001.001.366.638.688 1.401.967 2.261 2.684-.628 5.249-1.086 6.722.977.651 1.133.373 2.698-.806 4.525-.15.234-.463.297-.69.149-.232-.15-.3-.459-.149-.691.948-1.471 1.225-2.708.778-3.485-.232-.404-.665-.689-1.284-.848-1.689-.429-4.434.143-7.37 1.45.59.324 1.256.704 1.751 1.011 4.31 2.681 7.463 6.102 8.034 8.714.196.898.087 1.67-.325 2.293zm-14.331-10.43c.366-.246.721-.502 1.099-.733 1.903-1.165 3.824-2.047 5.61-2.635-.256-.784-.544-1.489-.872-2.062 0 0 0 0 0-.001-.645-1.127-1.391-1.747-2.102-1.747-1.491 0-3.113 2.815-3.734 7.18zm4.535 6.173-1.518-4.932c-.077-.25-.308-.421-.57-.421-.26 0-.491.169-.569.417l-1.552 4.933c-.101.322.139.65.477.65.218 0 .411-.142.477-.35l.205-.65h1.896l.199.647c.065.21.258.353.478.353.336 0 .577-.325.478-.647zm2.199-4.853c0-.276-.224-.5-.5-.5s-.5.224-.5.5v5c0 .276.224.5.5.5s.5-.224.5-.5z"/></svg>