<svg id="Layer_1" viewBox="0 0 24 24" xmlns="http://www.w3.org/2000/svg" data-name="Layer 1"><path d="m24 7.167v12.333c0 2.481-2.019 4.5-4.5 4.5-.276 0-.5-.224-.5-.5v-6c0-.827-.673-1.5-1.5-1.5h-2c-.827 0-1.5.673-1.5 1.5v6c0 .276-.224.5-.5.5h-3c-.276 0-.5-.198-.5-.474v-6.026c0-.827-.673-1.5-1.5-1.5h-2c-.827 0-1.5.673-1.5 1.5v6c0 .276-.224.5-.5.5-2.481 0-4.5-2.019-4.5-4.5v-12.333c0-1.823 1.087-3.453 2.77-4.154l3.538-1.474c.252-.106.549.014.654.269s-.015.548-.27.654l-3.538 1.474c-1.309.545-2.154 1.813-2.154 3.231v12.333c0 1.76 1.306 3.221 3 3.464v-5.464c0-1.378 1.121-2.5 2.5-2.5h2c1.379 0 2.5 1.122 2.5 2.5v5.526h2v-5.526c0-1.378 1.121-2.5 2.5-2.5h2c1.379 0 2.5 1.122 2.5 2.5v5.464c1.694-.243 3-1.704 3-3.464v-12.333c0-1.417-.846-2.686-2.154-3.231l-3.538-1.474c-.255-.106-.375-.399-.27-.654.106-.255.402-.376.654-.269l3.538 1.474c1.683.701 2.77 2.331 2.77 4.154zm-16-2.167c0-1.417 1.05-2.612 1.371-2.944.146-.148.364-.194.554-.113s.312.27.306.476c-.004.167.043.457.141.557.195.021.254-.003.398-.743.121-.62.272-1.391.853-2.061.159-.222.551-.226.731-.026.249.249.566.511.905.792 1.221 1.013 2.741 2.274 2.741 4.062 0 2.206-1.794 4-4 4s-4-1.794-4-4zm5 1.96c0-.268-.104-.519-.293-.708l-.707-.707-.707.707c-.39.39-.39 1.025 0 1.415.377.377 1.035.379 1.414 0 .188-.189.293-.44.293-.707zm-4-1.96c0 .896.403 1.693 1.028 2.243-.085-.602.096-1.235.558-1.698l1.061-1.061c.195-.195.512-.195.707 0l1.061 1.061c.378.378.586.88.586 1.415 0 .096-.014.189-.028.282.625-.55 1.028-1.346 1.028-2.242 0-1.318-1.265-2.367-2.38-3.292-.185-.153-.363-.301-.529-.445-.186.375-.267.787-.34 1.163-.131.665-.31 1.574-1.307 1.574-.31 0-.583-.114-.791-.329-.055-.057-.103-.117-.145-.181-.291.461-.509.995-.509 1.509zm-3 3h.5c.276 0 .5-.224.5-.5s-.224-.5-.5-.5h-.5c-1.103 0-2 .897-2 2v2c0 1.103.897 2 2 2h3.085c.847 0 1.604-.536 1.887-1.333.092-.26-.045-.546-.305-.638s-.545.044-.639.305c-.141.398-.52.667-.943.667h-3.085c-.552 0-1-.449-1-1v-2c0-.551.448-1 1-1zm12 4h-3.085c-.424 0-.803-.268-.943-.667-.094-.262-.378-.399-.639-.305-.26.092-.396.377-.305.638.282.798 1.04 1.333 1.887 1.333h3.085c1.103 0 2-.897 2-2v-2c0-1.103-.897-2-2-2h-.5c-.276 0-.5.224-.5.5s.224.5.5.5h.5c.552 0 1 .449 1 1v2c0 .551-.448 1-1 1z"/></svg>