<svg id="Layer_1" viewBox="0 0 24 24" xmlns="http://www.w3.org/2000/svg" data-name="Layer 1"><path d="m5 23.5c0 .276-.224.5-.5.5-2.481 0-4.5-2.019-4.5-4.5v-15c0-2.481 2.019-4.5 4.5-4.5h11c2.481 0 4.5 2.019 4.5 4.5v4c0 .276-.224.5-.5.5s-.5-.224-.5-.5v-4c0-1.93-1.57-3.5-3.5-3.5h-11c-1.93 0-3.5 1.57-3.5 3.5v15c0 1.93 1.57 3.5 3.5 3.5.276 0 .5.224.5.5zm11-18c0-.276-.224-.5-.5-.5h-11c-.276 0-.5.224-.5.5s.224.5.5.5h11c.276 0 .5-.224.5-.5zm-11.5 3.5c-.276 0-.5.224-.5.5s.224.5.5.5h4c.276 0 .5-.224.5-.5s-.224-.5-.5-.5zm19.5 13.085c0 1.056-.859 1.915-1.915 1.915-1.653 0-3.923-3.197-4.362-3.838-.498-.728-1.329-1.162-2.223-1.162s-1.725.435-2.223 1.162c-.438.641-2.709 3.838-4.362 3.838-1.056 0-1.915-.859-1.915-1.915 0-.83.352-4.278 1.429-7.46.405-1.353 1.303-2.199 2.571-2.497v-.628c0-.276.224-.5.5-.5s.5.224.5.5v.5h7v-.5c0-.276.224-.5.5-.5s.5.224.5.5v.627c1.268.296 2.164 1.136 2.557 2.454 1.091 3.226 1.443 6.674 1.443 7.504zm-1 0c0-.678-.33-4.048-1.376-7.139-.395-1.318-1.293-1.946-2.695-1.946h-6.857c-1.401 0-2.299.628-2.67 1.866-1.072 3.171-1.401 6.541-1.401 7.219 0 .505.411.915.915.915.678 0 2.231-1.494 3.537-3.402.685-1 1.824-1.598 3.048-1.598s2.364.598 3.048 1.598c1.305 1.908 2.858 3.402 3.537 3.402.504 0 .915-.41.915-.915z"/></svg>