<svg id="Layer_1" viewBox="0 0 24 24" xmlns="http://www.w3.org/2000/svg" data-name="Layer 1"><path d="m9.001 3.501v-3c0-.276.223-.5.5-.5s.5.224.5.5v3c0 .276-.224.5-.5.5s-.5-.224-.5-.5zm4.5.5c.276 0 .5-.224.5-.5v-3c0-.276-.224-.5-.5-.5s-.5.224-.5.5v3c0 .276.224.5.5.5zm-8 0c.276 0 .5-.224.5-.5v-3c0-.276-.224-.5-.5-.5s-.5.224-.5.5v3c0 .276.224.5.5.5zm7 17.999h-12c-.276 0-.5.224-.5.5s.224.5.5.5h12c.276 0 .5-.224.5-.5s-.224-.5-.5-.5zm11.065-.655c.44.464.557 1.116.305 1.703-.252.588-.806.952-1.444.952h-5.851c-.642 0-1.196-.367-1.447-.958s-.13-1.244.316-1.706l2.622-2.719c.76-.787 2.11-.787 2.868 0l2.63 2.725.002.002zm-.724.69-2.628-2.724c-.188-.195-.442-.303-.714-.303s-.525.107-.715.303l-2.622 2.72c-.245.253-.15.539-.116.621.035.082.176.349.527.349h5.851c.35 0 .491-.265.525-.347.035-.081.13-.365-.109-.618zm-11.239-7.711c.27.246.415.595.395.955-.076 1.43-.578 2.569-1.492 3.388-1.375 1.231-3.253 1.335-3.847 1.335l-.386.002c-.74 0-2.892-.13-4.484-1.534-1.072-.945-1.668-2.268-1.771-3.933-.026-.423.141-.832.457-1.122.313-.286.725-.415 1.139-.351 2.994.458 4.322 2.57 4.915 4.248.561-1.371 1.711-2.948 4.085-3.294.355-.05.719.059.99.307zm-5.658 4.674c-.19-1.268-1.013-4.415-4.483-4.946-.233-.042-.469.189-.446.422.243 3.913 3.603 4.461 4.929 4.524zm4.812-3.99c-2.762.509-3.507 2.873-3.694 3.981 1.155-.084 3.769-.623 3.937-3.762.004-.083-.019-.26-.243-.219zm-10.509-4.428c-.094-.592-.173-1.195-.233-1.804-.072-.714.161-1.428.64-1.957.471-.52 1.143-.818 1.844-.818l14.505.003c.7 0 1.371.298 1.841.817.479.529.713 1.243.642 1.958-.007.074-.019.148-.027.222h.442c2.567 0 4.099 1.148 4.099 3.071 0 2.13-1.877 3.929-4.099 3.929h-2.138c-.191.432-.387.826-.59 1.139-1.018 1.565-2.699 2.592-4.614 2.816-.269.032-.523-.163-.555-.439-.031-.273.165-.522.439-.555 1.618-.188 3.036-1.052 3.891-2.367.952-1.464 1.839-4.719 2.157-7.915.043-.435-.099-.867-.389-1.187-.285-.314-.676-.492-1.1-.492h-14.505c-.425 0-.816.175-1.102.49-.29.32-.431.753-.388 1.186.059.589.136 1.173.228 1.745.043.273-.143.529-.415.573-.28.041-.529-.143-.573-.415zm19.09-.579c-.258 1.836-.679 3.587-1.179 5h1.742c1.651 0 3.099-1.368 3.099-2.929 0-1.802-1.942-2.071-3.099-2.071z"/></svg>