<svg id="Layer_1" viewBox="0 0 24 24" xmlns="http://www.w3.org/2000/svg" data-name="Layer 1"><path d="m7.5 18c-.276 0-.5.224-.5.5v1c0 1.103-.897 2-2 2h-1.071c-.224-.86-1-1.5-1.929-1.5-1.103 0-2 .897-2 2s.897 2 2 2c.929 0 1.705-.64 1.929-1.5h1.071c1.654 0 3-1.346 3-3v-1c0-.276-.224-.5-.5-.5zm-5.5 5c-.551 0-1-.448-1-1s.449-1 1-1 1 .448 1 1-.449 1-1 1zm-.609-5.268c-.897-.895-1.391-2.131-1.391-3.482 0-1.359.584-2.655 1.603-3.558.337-.298.499-.771.444-1.295-.073-.696-.061-1.406.038-2.112.514-3.704 3.582-6.738 7.294-7.213 3.605-.459 7.004 1.312 8.668 4.515.167.322.487.571.879.682 2.987.854 5.074 3.622 5.074 6.731 0 2.835-1.691 5.372-4.308 6.464-.253.103-.547-.014-.654-.27-.106-.255.014-.548.269-.654 2.243-.935 3.692-3.109 3.692-5.54 0-2.666-1.788-5.038-4.348-5.77-.655-.187-1.199-.618-1.492-1.183-1.468-2.827-4.474-4.388-7.653-3.983-3.273.419-5.978 3.093-6.432 6.359-.086.625-.098 1.255-.034 1.87.089.85-.193 1.633-.775 2.148-.804.712-1.266 1.736-1.266 2.809 0 1.084.39 2.068 1.097 2.773.632.63 1.48.977 2.389.977.004 0 .011.002.014 0 .275 0 .499.223.5.498 0 .281-.254.483-.514.502-1.176 0-2.274-.45-3.095-1.268zm20.609 2.268c-.929 0-1.705.64-1.929 1.5h-1.071c-1.103 0-2-.897-2-2v-1c0-.276-.224-.5-.5-.5s-.5.224-.5.5v1c0 1.654 1.346 3 3 3h1.071c.224.86 1 1.5 1.929 1.5 1.103 0 2-.897 2-2s-.897-2-2-2zm0 3c-.551 0-1-.448-1-1s.449-1 1-1 1 .448 1 1-.449 1-1 1zm-10-14c-1.103 0-2 .897-2 2s.897 2 2 2 2-.897 2-2-.897-2-2-2zm0 3c-.551 0-1-.449-1-1s.449-1 1-1 1 .449 1 1-.449 1-1 1zm.5 8.071v-1.571c0-.276-.224-.5-.5-.5s-.5.224-.5.5v1.571c-.86.224-1.5 1-1.5 1.929 0 1.103.897 2 2 2s2-.897 2-2c0-.929-.64-1.705-1.5-1.929zm-.5 2.929c-.551 0-1-.448-1-1s.449-1 1-1 1 .448 1 1-.449 1-1 1zm5.172-8.959c.424-.686.171-1.66-.532-2.054l-.234-.137c.064-.299.094-.576.094-.85s-.03-.55-.094-.85l.234-.137c.703-.394.956-1.367.533-2.053-.394-.704-1.366-.956-2.053-.534l-.223.131c-.408-.34-.881-.606-1.396-.786v-.271c0-.827-.673-1.5-1.5-1.5s-1.5.673-1.5 1.5v.271c-.515.18-.988.446-1.396.786l-.223-.131c-.685-.423-1.66-.17-2.053.533-.424.686-.171 1.659.532 2.053l.234.137c-.064.299-.094.576-.094.85s.03.55.094.85l-.234.137c-.703.393-.956 1.368-.533 2.053.394.703 1.368.96 2.053.533l.223-.131c.408.34.881.606 1.396.786v.271c0 .827.673 1.5 1.5 1.5s1.5-.673 1.5-1.5v-.271c.515-.18.988-.446 1.396-.786l.223.131c.687.426 1.659.17 2.053-.532zm-1.823-3.996c.103.361.151.664.151.955s-.048.594-.151.955c-.062.219.031.453.228.568l.556.327c.235.131.319.456.177.685-.132.235-.454.319-.684.178l-.541-.318c-.196-.116-.446-.085-.607.077-.43.432-.984.743-1.603.903-.221.058-.375.257-.375.484v.642c0 .275-.224.5-.5.5s-.5-.225-.5-.5v-.642c0-.228-.154-.427-.375-.484-.619-.16-1.173-.472-1.603-.903-.161-.162-.413-.193-.607-.077l-.541.318c-.23.141-.552.057-.685-.179-.141-.228-.056-.553.178-.684l.556-.327c.196-.115.29-.349.228-.568-.103-.361-.151-.664-.151-.955s.048-.594.151-.955c.062-.219-.031-.453-.228-.568l-.556-.327c-.235-.131-.318-.455-.177-.685.132-.234.454-.32.684-.177l.541.318c.197.116.446.083.607-.078.43-.43.984-.743 1.603-.903.221-.057.375-.256.375-.484v-.642c0-.276.224-.5.5-.5s.5.224.5.5v.642c0 .228.154.427.375.484.619.16 1.173.473 1.603.903.161.162.41.194.607.078l.541-.318c.228-.143.553-.057.685.178.141.228.057.553-.178.684l-.556.327c-.196.115-.29.349-.228.568z"/></svg>