<svg id="Layer_1" viewBox="0 0 24 24" xmlns="http://www.w3.org/2000/svg" data-name="Layer 1"><path d="m19.83 4.58c-1.55-2.72-4.47-4.58-7.83-4.58-5 0-9.07 4.17-8.99 9.06v13.44c-.01.4.14.78.43 1.06.28.28.66.44 1.06.44.83 0 1.5-.67 1.5-1.5v-5.5c0-.55.45-1 1-1s1 .45 1 1v3.5c0 .83.67 1.5 1.5 1.5s1.5-.67 1.5-1.5v-1.5c0-.55.45-1 1-1s1 .45 1 1v3.5c0 .83.67 1.5 1.5 1.5s1.5-.67 1.5-1.5v-5.5c0-.55.45-1 1-1s1 .45 1 1v3.5c0 .83.67 1.5 1.5 1.5s1.5-.67 1.5-1.5v-11.5c0-1.61-.43-3.11-1.17-4.42zm.17 4.91-1.86-.98c-.13-.07-.23-.2-.27-.34l-.33-1.33c-.06-.23.04-.47.24-.59l1.37-.82c.54 1.08.85 2.28.85 3.57zm-8.63-8.46-.81 1.78c-.19.41-.16.89.07 1.28l.41.68-.17-.09c-.53-.26-1.17-.16-1.59.26l-.52.51c-.29.29-.42.67-.4 1.05h-.5c-.42 0-.83-.16-1.13-.46l-1.44-1.39c1.32-2.03 3.53-3.43 6.08-3.63zm8.13 19.97c-.28 0-.5-.22-.5-.5v-3.5c0-1.1-.9-2-2-2s-2 .9-2 2v5.5c0 .28-.22.5-.5.5s-.5-.22-.5-.5v-3.5c0-1.1-.9-2-2-2s-2 .9-2 2v1.5c0 .28-.22.5-.5.5s-.5-.22-.5-.5v-3.5c0-1.1-.9-2-2-2s-2 .9-2 2v5.5c0 .41-.56.64-.85.35-.09-.09-.15-.22-.15-.35v-13.72s.01 0 .01 0c.03-1.15.31-2.23.78-3.21l1.25 1.2c.49.47 1.14.73 1.82.73h.94l.83.84s.01.01.02.02v.6c0 .52.19 1.03.55 1.42l.8.88v1.63c0 .62.5 1.12 1.12 1.12.43 0 .81-.24 1-.62l1.51-3.05c.28-.57.08-1.28-.47-1.61l-1.53-.92c-.33-.2-.7-.3-1.09-.3h-1.31l-.79-.82c-.14-.15-.13-.38 0-.52l.51-.51c.12-.12.29-.15.44-.07l.7.35c.32.16.7.1.95-.16.27-.27.32-.68.12-1.01l-.71-1.19c-.06-.11-.07-.24-.02-.35l1-2.2c2.58.15 4.83 1.52 6.19 3.54l-1.38.82c-.58.34-.87 1.04-.7 1.69l.33 1.33c.11.42.39.78.77.98l2.33 1.23v9.88c0 .28-.22.5-.5.5zm-7.63-10.28-.93-1.02c-.19-.2-.29-.47-.29-.74v-.46h.9c.2 0 .4.05.57.16l1.53.92c.1.06.14.2.09.3l-1.51 3.05c-.05.1-.23.06-.23-.05v-1.82c0-.12-.05-.25-.13-.34z"/></svg>