<svg id="Layer_1" viewBox="0 0 24 24" xmlns="http://www.w3.org/2000/svg" data-name="Layer 1"><path d="m22.797 4.52c-1.172-.403-2.935-1.146-4.701-2.934-1.031-1.002-2.4-1.578-3.858-1.586h-4.477c-1.456 0-2.862.578-3.858 1.586-1.767 1.788-3.529 2.53-4.702 2.934-.719.248-1.202.928-1.202 1.69 0 .987.803 1.79 1.791 1.79h5.21v12.5c0 1.93 1.57 3.5 3.5 3.5h3c1.93 0 3.5-1.57 3.5-3.5v-12.5h5.209c.987 0 1.791-.803 1.791-1.79 0-.763-.483-1.442-1.203-1.69zm-21.006 2.48c-.436 0-.791-.354-.791-.79 0-.337.212-.636.528-.745 1.267-.436 3.173-1.239 5.087-3.176.117-.118.255-.213.385-.316v5.027zm14.209 4h-3.5c-.276 0-.5.224-.5.5s.224.5.5.5h3.5v3h-3.5c-.276 0-.5.224-.5.5s.224.5.5.5h3.5v3h-3.5c-.276 0-.5.224-.5.5s.224.5.5.5h3.5v.5c0 1.379-1.122 2.5-2.5 2.5h-3c-1.378 0-2.5-1.121-2.5-2.5v-19.138c.55-.233 1.149-.362 1.762-.362h4.477c.613 0 1.212.129 1.762.362v5.638h-3.5c-.276 0-.5.224-.5.5s.224.5.5.5h3.5v3zm6.209-4h-5.209v-5.027c.13.104.268.198.385.316 1.914 1.937 3.82 2.74 5.086 3.176.316.109.528.408.528.745 0 .436-.354.79-.791.79z"/></svg>