<svg id="Layer_1" viewBox="0 0 24 24" xmlns="http://www.w3.org/2000/svg" data-name="Layer 1"><path d="m19.5 2h-1.5v-1.5c0-.276-.224-.5-.5-.5s-.5.224-.5.5v1.5h-10v-1.5c0-.276-.224-.5-.5-.5s-.5.224-.5.5v1.5h-1.5c-2.481 0-4.5 2.019-4.5 4.5v13c0 2.481 2.019 4.5 4.5 4.5h15c2.481 0 4.5-2.019 4.5-4.5v-13c0-2.481-2.019-4.5-4.5-4.5zm-11 13v-7h7v7zm7 1v7h-7v-7zm-14.5-8h6.5v7h-6.5zm15.5 0h6.5v7h-6.5zm-12-5h15c1.93 0 3.5 1.57 3.5 3.5v.5h-22v-.5c0-1.93 1.57-3.5 3.5-3.5zm-3.5 16.5v-3.5h6.5v7h-3c-1.93 0-3.5-1.57-3.5-3.5zm18.5 3.5h-3v-7h6.5v3.5c0 1.93-1.57 3.5-3.5 3.5zm-5.396-10.104c.195.195.195.512 0 .707s-.512.195-.707 0l-1.396-1.396-1.396 1.396c-.195.195-.512.195-.707 0s-.195-.512 0-.707l1.396-1.396-1.396-1.396c-.195-.195-.195-.512 0-.707s.512-.195.707 0l1.396 1.396 1.396-1.396c.195-.195.512-.195.707 0s.195.512 0 .707l-1.396 1.396zm8.048 5.221c.193.197.191.514-.006.707l-1.775 1.746c-.288.285-.667.428-1.047.428-.378 0-.757-.142-1.045-.426l-.767-.747c-.198-.193-.202-.51-.01-.707.194-.198.511-.201.707-.01l.769.749c.193.189.501.189.69 0l1.776-1.747c.196-.193.513-.191.707.006zm-15.468.707-1.774 1.746c-.288.284-.668.427-1.047.427s-.757-.142-1.046-.425l-.767-.747c-.198-.193-.202-.51-.01-.707.194-.198.511-.201.707-.01l.769.749c.193.189.502.188.691 0l1.775-1.747c.196-.193.513-.191.707.006.193.196.191.514-.006.707z"/></svg>