<svg id="Layer_1" viewBox="0 0 24 24" xmlns="http://www.w3.org/2000/svg" data-name="Layer 1"><path d="m12.5 9.896c0 2.371-1.512 4.468-3.761 5.218l-2.581.86c-.255.087-.545-.052-.633-.316-.087-.262.055-.545.316-.632l2.581-.86c1.841-.614 3.077-2.33 3.077-4.27v-8.896c0-.276.224-.5.5-.5s.5.224.5.5v8.896zm-2.299 10.683c-.232-.147-.542-.082-.69.152-.421.658-1.068 1.131-1.822 1.332l-2.959.789c-.294.098-.596.148-.897.148-1.513.026-2.868-1.31-2.832-2.836 0-1.437.164-2.874.479-4.239l2.096-7.007c.532-2.307 2.558-3.918 4.926-3.918.276 0 .5-.224.5-.5s-.224-.5-.5-.5c-2.837 0-5.264 1.93-5.892 4.663l-2.098 7.006c-.34 1.47-.512 2.982-.512 4.495-.049 2.065 1.785 3.873 3.834 3.836.408 0 .815-.068 1.183-.19l2.93-.78c.996-.266 1.851-.891 2.406-1.76.149-.232.081-.542-.151-.69zm5.299-15.579c2.368 0 4.394 1.611 4.934 3.95l.507 1.694c.079.266.365.414.623.335.265-.079.415-.358.336-.623l-.499-1.663c-.637-2.764-3.063-4.694-5.9-4.694-.276 0-.5.224-.5.5s.224.5.5.5zm8.5 13c0 3.309-2.691 6-6 6s-6-2.691-6-6 2.691-6 6-6 6 2.691 6 6zm-1 0c0-2.757-2.243-5-5-5s-5 2.243-5 5 2.243 5 5 5 5-2.243 5-5zm-7 1c-.552 0-1 .448-1 1s.448 1 1 1 1-.448 1-1-.448-1-1-1zm3-3c0 1.103-.897 2-2 2s-2-.897-2-2 .897-2 2-2 2 .897 2 2zm-1 0c0-.551-.448-1-1-1s-1 .449-1 1 .448 1 1 1 1-.449 1-1zm4 3c0 .827-.673 1.5-1.5 1.5s-1.5-.673-1.5-1.5.673-1.5 1.5-1.5 1.5.673 1.5 1.5zm-1 0c0-.276-.225-.5-.5-.5s-.5.224-.5.5.225.5.5.5.5-.224.5-.5z"/></svg>