<svg id="Layer_1" viewBox="0 0 24 24" xmlns="http://www.w3.org/2000/svg" data-name="Layer 1"><path d="m17 15v2h.5c.276 0 .5.224.5.5s-.224.5-.5.5h-.5v2h.5c.276 0 .5.224.5.5s-.224.5-.5.5h-1c-.276 0-.5-.224-.5-.5v-6c0-.276.224-.5.5-.5h1c.276 0 .5.224.5.5s-.224.5-.5.5zm-5.5.5v4c0 .827-.673 1.5-1.5 1.5s-1.5-.673-1.5-1.5v-4c0-.827.673-1.5 1.5-1.5s1.5.673 1.5 1.5zm-1 0c0-.276-.225-.5-.5-.5s-.5.224-.5.5v4c0 .276.225.5.5.5s.5-.224.5-.5zm-7-.5c.275 0 .5.224.5.5s.224.5.5.5.5-.224.5-.5c0-.827-.673-1.5-1.5-1.5s-1.5.673-1.5 1.5v4c0 .827.673 1.5 1.5 1.5s1.5-.673 1.5-1.5c0-.276-.224-.5-.5-.5s-.5.224-.5.5-.225.5-.5.5-.5-.224-.5-.5v-4c0-.276.225-.5.5-.5zm18.5.5v4c0 .827-.673 1.5-1.5 1.5h-1c-.276 0-.5-.224-.5-.5v-6c0-.276.224-.5.5-.5h1c.827 0 1.5.673 1.5 1.5zm-1 0c0-.276-.225-.5-.5-.5h-.5v5h.5c.275 0 .5-.224.5-.5zm-13.5 4.5h-.5v-5.5c0-.276-.224-.5-.5-.5s-.5.224-.5.5v6c0 .276.224.5.5.5h1c.276 0 .5-.224.5-.5s-.224-.5-.5-.5zm6.354-5c.214.022.506.176.763.484.177.213.492.24.704.064.212-.177.24-.492.063-.704-.454-.546-.993-.845-1.513-.845-.825-.002-1.521.688-1.521 1.521 0 1.053.626 1.642 1.129 2.114.485.456.869.816.869 1.535 0 .401-.266.831-.661.831-.301 0-.58-.151-.787-.426-.167-.221-.481-.264-.7-.098-.221.167-.265.48-.099.701.395.523.973.823 1.586.823 1.026 0 1.661-.95 1.661-1.831 0-1.151-.656-1.768-1.185-2.264-.504-.474-.813-.795-.813-1.386 0-.322.287-.52.504-.52zm-3.854-13c0-1.103.897-2 2-2s2 .897 2 2-.897 2-2 2-2-.897-2-2zm1 0c0 .551.448 1 1 1s1-.449 1-1-.448-1-1-1-1 .449-1 1zm13 13v5c0 2.206-1.794 4-4 4h-16c-2.206 0-4-1.794-4-4v-5c0-2.118 1.66-3.84 3.745-3.974l4.925-5.848c.179-.211.493-.238.705-.06.211.178.238.493.061.705l-4.36 5.178h13.849l-4.36-5.178c-.178-.211-.15-.527.061-.705.211-.177.525-.15.705.06l4.925 5.848c2.085.134 3.745 1.856 3.745 3.974zm-1 0c0-1.654-1.346-3-3-3h-16c-1.654 0-3 1.346-3 3v5c0 1.654 1.346 3 3 3h16c1.654 0 3-1.346 3-3z"/></svg>