<svg id="Layer_1" viewBox="0 0 24 24" xmlns="http://www.w3.org/2000/svg" data-name="Layer 1"><path d="m21 18c-.073 0-.141.016-.212.021l-3.559-14.587c-.492-2.022-2.29-3.434-4.371-3.434h-1.358c-.276 0-.5.224-.5.5s.224.5.5.5h1.358c1.619 0 3.017 1.098 3.4 2.671l2.234 9.159-2.88 3.519c-.858 1.049-2.127 1.65-3.482 1.65h-11.63c-.276 0-.5.224-.5.5s.224.5.5.5h1.28c-.48.532-.78 1.229-.78 2 0 1.654 1.346 3 3 3s3-1.346 3-3c0-.771-.301-1.468-.78-2h5.911c1.656 0 3.208-.735 4.256-2.017l2.403-2.937 1.025 4.2c-1.066.461-1.814 1.521-1.814 2.754 0 1.654 1.346 3 3 3s3-1.346 3-3-1.346-3-3-3zm-15 3c0 1.103-.897 2-2 2s-2-.897-2-2 .897-2 2-2 2 .897 2 2zm15 2c-1.103 0-2-.897-2-2s.897-2 2-2 2 .897 2 2-.897 2-2 2zm-15-8c3.309 0 6-2.691 6-6s-2.691-6-6-6-6 2.691-6 6 2.691 6 6 6zm0-11c2.757 0 5 2.243 5 5s-2.243 5-5 5-5-2.243-5-5 2.243-5 5-5zm-1.841 6.501h.855s-.345.996-.345.996c-.08.23-.043.486.098.685.142.199.372.318.616.318.223 0 .434-.098.575-.267l2.746-3.248c.191-.29.206-.648.038-.959-.174-.324-.51-.525-.875-.525h-.785l.28-.742c.106-.286.066-.606-.107-.857-.174-.25-.46-.4-.765-.4h-1.183c-.489 0-.922.312-1.078.775l-.996 2.979c-.09.296-.035.608.149.856s.467.39.775.39zm1.02-3.909c.02-.055.071-.093.13-.093h1.083l-.5 1.323c-.058.154-.037.326.057.461.093.135.247.216.411.216h1.451l-1.767 2.085.146-.422c.053-.153.028-.322-.065-.454-.094-.131-.246-.209-.407-.209h-1.529l.991-2.907z"/></svg>