<?xml version="1.0" encoding="UTF-8"?>
<svg xmlns="http://www.w3.org/2000/svg" id="Layer_1" data-name="Layer 1" viewBox="0 0 24 24">
  <path d="M19.476,14.656l-.746-.749c.172-.607,.271-1.245,.271-1.907,0-.648-.096-1.274-.261-1.87l.756-.755c1.329-1.275,1.331-3.57,.002-4.846-1.276-1.329-3.573-1.329-4.847,.002l-.74,.741c-.608-.173-1.248-.272-1.911-.272-.649,0-1.276,.096-1.873,.262l-.746-.751c-1.267-1.33-3.596-1.354-4.846-.014-1.334,1.272-1.338,3.568-.011,4.847l.747,.749c-.354,1.193-.358,2.585-.009,3.78l-.751,.746c-1.333,1.271-1.339,3.567-.014,4.846,1.273,1.333,3.569,1.338,4.846,.01l.749-.746c1.193,.354,2.586,.358,3.781,.009l.746,.751c1.272,1.334,3.566,1.341,4.846,.014,1.334-1.272,1.338-3.568,.011-4.847ZM15.357,5.237c.902-.943,2.53-.943,3.433-.001,.941,.903,.941,2.529-.002,3.431l-.428,.427c-.695-1.514-1.911-2.736-3.421-3.438l.418-.419Zm-10.124,3.4c-.941-.905-.938-2.531,.007-3.432,.906-.94,2.531-.934,3.432,.01l.421,.424c-1.514,.695-2.735,1.912-3.438,3.421l-.422-.424Zm3.403,10.129c-.904,.94-2.531,.936-3.431-.007-.939-.906-.935-2.532,.01-3.431l.424-.421c.695,1.513,1.912,2.735,3.421,3.437l-.425,.423Zm-2.637-6.767c0-3.309,2.691-6,6-6s6,2.691,6,6-2.691,6-6,6-6-2.691-6-6Zm12.76,6.794c-.906,.94-2.531,.934-3.432-.01l-.421-.424c1.514-.695,2.735-1.912,3.438-3.421l.422,.424c.941,.905,.938,2.531-.007,3.432Zm2.99-14.294c1.24,0,2.25-1.009,2.25-2.25s-1.01-2.25-2.25-2.25-2.25,1.009-2.25,2.25,1.01,2.25,2.25,2.25Zm0-3.5c.689,0,1.25,.561,1.25,1.25s-.561,1.25-1.25,1.25-1.25-.561-1.25-1.25,.561-1.25,1.25-1.25ZM2.25,4.5c1.24,0,2.25-1.009,2.25-2.25S3.49,0,2.25,0,0,1.009,0,2.25s1.01,2.25,2.25,2.25Zm0-3.5c.689,0,1.25,.561,1.25,1.25s-.561,1.25-1.25,1.25-1.25-.561-1.25-1.25,.561-1.25,1.25-1.25ZM21.75,19.5c-1.24,0-2.25,1.009-2.25,2.25s1.01,2.25,2.25,2.25,2.25-1.009,2.25-2.25-1.01-2.25-2.25-2.25Zm0,3.5c-.689,0-1.25-.561-1.25-1.25s.561-1.25,1.25-1.25,1.25,.561,1.25,1.25-.561,1.25-1.25,1.25ZM2.25,19.5c-1.24,0-2.25,1.009-2.25,2.25s1.01,2.25,2.25,2.25,2.25-1.009,2.25-2.25-1.01-2.25-2.25-2.25Zm0,3.5c-.689,0-1.25-.561-1.25-1.25s.561-1.25,1.25-1.25,1.25,.561,1.25,1.25-.561,1.25-1.25,1.25Z"/>
</svg>
