<?xml version="1.0" encoding="UTF-8"?>
<svg xmlns="http://www.w3.org/2000/svg" id="Layer_1" data-name="Layer 1" viewBox="0 0 24 24">
  <path d="M23,9v7.5c0,3.032-2.468,5.5-5.5,5.5h-1.5v1.5c0,.276-.224,.5-.5,.5s-.5-.224-.5-.5v-1.5c0-.552,.448-1,1-1h1.5c2.31,0,4.197-1.756,4.449-4h-3.449c-.276,0-.5-.224-.5-.5s.224-.5,.5-.5h3.5v-3h-3.5c-.276,0-.5-.224-.5-.5s.224-.5,.5-.5h3.5v-3h-3.5c-.276,0-.5-.224-.5-.5s.224-.5,.5-.5h3.379c-.457-2-2.242-3.5-4.379-3.5h-1.118c-.695,0-1.296-.488-1.461-1.188-.319-1.362-1.521-2.312-2.921-2.312s-2.602,.951-2.921,2.312c-.164,.699-.764,1.188-1.46,1.188h-1.119c-2.137,0-3.922,1.5-4.379,3.5H15.5c.276,0,.5,.224,.5,.5s-.224,.5-.5,.5H2v7.5c0,2.481,2.019,4.5,4.5,4.5h1.5c.551,0,1,.448,1,1v1.5c0,.276-.224,.5-.5,.5s-.5-.224-.5-.5v-1.5h-1.5c-3.033,0-5.5-2.468-5.5-5.5v-7.5C1,5.967,3.467,3.5,6.5,3.5h1.119c.233,0,.429-.167,.487-.416,.426-1.816,2.027-3.084,3.895-3.084s3.469,1.268,3.894,3.083c.06,.249,.255,.417,.488,.417h1.118c3.032,0,5.5,2.467,5.5,5.5Zm-10,12h-2c-.551,0-1,.448-1,1v1.5c0,.276,.224,.5,.5,.5s.5-.224,.5-.5v-1.5h2v1.5c0,.276,.224,.5,.5,.5s.5-.224,.5-.5v-1.5c0-.552-.448-1-1-1ZM12,2c1.103,0,2,.897,2,2s-.897,2-2,2-2-.897-2-2,.897-2,2-2Zm0,1c-.551,0-1,.449-1,1s.449,1,1,1,1-.449,1-1-.449-1-1-1Z"/>
</svg>
