<?xml version="1.0" encoding="UTF-8"?>
<svg xmlns="http://www.w3.org/2000/svg" id="Layer_1" data-name="Layer 1" viewBox="0 0 24 24">
  <path d="M11.096,14c0,.552-.448,1-1,1s-1-.448-1-1,.448-1,1-1,1,.448,1,1Zm5.717-6.217c.128,0,.256-.049,.354-.146,.195-.195,.195-.512,0-.707-1.889-1.889-4.4-2.929-7.071-2.929s-5.182,1.04-7.071,2.929c-.195,.195-.195,.512,0,.707s.512,.195,.707,0c1.7-1.7,3.96-2.636,6.364-2.636s4.664,.936,6.364,2.636c.098,.098,.226,.146,.354,.146Zm-9.546,3.389c-.195,.195-.195,.512,0,.707s.512,.195,.707,0c1.169-1.17,3.073-1.17,4.243,0,.098,.098,.226,.146,.354,.146s.256-.049,.354-.146c.195-.195,.195-.512,0-.707-1.56-1.56-4.097-1.56-5.657,0Zm7.425-1.268c.128,0,.256-.049,.354-.146,.195-.195,.195-.512,0-.707-1.322-1.322-3.08-2.05-4.95-2.05s-3.627,.728-4.95,2.05c-.195,.195-.195,.512,0,.707s.512,.195,.707,0c2.34-2.339,6.146-2.339,8.485,0,.098,.098,.226,.146,.354,.146Zm2.808,9.096c-.552,0-1,.448-1,1s.448,1,1,1,1-.448,1-1-.448-1-1-1Zm-3.536-2.536c-.195,.195-.195,.512,0,.707s.512,.195,.707,0c1.56-1.56,4.098-1.56,5.657,0,.098,.098,.226,.146,.354,.146s.256-.049,.354-.146c.195-.195,.195-.512,0-.707-1.949-1.949-5.122-1.949-7.071,0Zm1.415,1.415c-.195,.195-.195,.512,0,.707s.512,.195,.707,0c.756-.756,2.072-.756,2.828,0,.098,.098,.226,.146,.354,.146s.256-.049,.354-.146c.195-.195,.195-.512,0-.707-1.133-1.134-3.109-1.134-4.242,0Zm8.621-.379c0,3.584-2.916,6.5-6.5,6.5s-6.5-2.916-6.5-6.5,2.916-6.5,6.5-6.5,6.5,2.916,6.5,6.5Zm-1,0c0-3.033-2.467-5.5-5.5-5.5s-5.5,2.467-5.5,5.5,2.467,5.5,5.5,5.5,5.5-2.467,5.5-5.5Zm-14.422,1.389c-4.391-.697-7.578-4.435-7.578-8.889C1,5.038,5.038,1,10,1c4.454,0,8.192,3.187,8.889,7.578,.043,.273,.301,.461,.572,.416,.273-.043,.459-.299,.416-.572C19.102,3.542,14.949,0,10,0,4.486,0,0,4.486,0,10c0,4.949,3.542,9.102,8.422,9.876,.026,.004,.053,.006,.079,.006,.242,0,.454-.175,.493-.422,.043-.272-.143-.529-.416-.572Z"/>
</svg>
