<?xml version="1.0" encoding="UTF-8"?>
<svg xmlns="http://www.w3.org/2000/svg" id="Layer_1" data-name="Layer 1" viewBox="0 0 24 24">
  <path d="m23.243,13.827l-2.243,2.243v2.43c0,1.379-1.121,2.5-2.5,2.5h-2.43l-2.243,2.243c-.504.504-1.165.756-1.827.756s-1.323-.252-1.827-.756l-2.243-2.243h-2.43c-1.379,0-2.5-1.121-2.5-2.5v-2.43l-2.243-2.243c-1.007-1.007-1.007-2.647,0-3.654l2.243-2.243v-2.43c0-1.378,1.121-2.5,2.5-2.5h2.43l2.243-2.243c.975-.977,2.68-.977,3.654,0l2.243,2.243h2.43c.439,0,.871.116,1.25.334.239.138.321.444.183.683-.138.241-.446.322-.683.183-.228-.131-.486-.201-.75-.201h-2.637c-.133,0-.26-.053-.354-.146l-2.39-2.39c-.598-.599-1.643-.599-2.24,0l-2.39,2.39c-.094.094-.221.146-.354.146h-2.637c-.827,0-1.5.673-1.5,1.5v2.637c0,.133-.053.26-.146.354l-2.39,2.39c-.617.618-.617,1.623,0,2.24l2.39,2.39c.094.094.146.221.146.354v2.637c0,.827.673,1.5,1.5,1.5h2.637c.133,0,.26.053.354.146l2.39,2.39c.598.598,1.643.598,2.24,0l2.39-2.39c.094-.094.221-.146.354-.146h2.637c.827,0,1.5-.673,1.5-1.5v-2.637c0-.133.053-.26.146-.354l2.39-2.39c.617-.618.617-1.623,0-2.24l-.89-.89c-.195-.195-.195-.512,0-.707s.512-.195.707,0l.89.89c1.007,1.007,1.007,2.647,0,3.654Zm-12.364-.307l-3.027-2.995c-.197-.194-.514-.193-.707.004-.194.196-.192.513.004.707l3.027,2.995c.516.511,1.192.766,1.869.766s1.357-.257,1.873-.77l8.935-8.877c.195-.194.197-.511.002-.707-.193-.195-.51-.198-.707-.002l-8.935,8.877c-.641.637-1.688.641-2.334.002Z"/>
</svg>
