<?xml version="1.0" encoding="UTF-8"?>
<svg xmlns="http://www.w3.org/2000/svg" id="Layer_1" data-name="Layer 1" viewBox="0 0 24 24">
  <path d="m23.5,8h-2.753c-1.255,0-2.421.678-3.042,1.77-.214.375-.404.707-.477.829-1.091,1.822-2.991,2.991-3.205,3.119-.781.467-1.862.314-2.488-.356-.38-.406-.567-.95-.528-1.533.041-.617.429-1.211,1.037-1.59,1.279-.797,1.956-1.744,1.956-2.739,0-.735-.322-1.43-.885-1.907-.561-.475-1.301-.681-2.036-.559-1.186.196-2.079,1.305-2.079,2.579v4.887c0,.441-.192.858-.529,1.144-.341.29-.774.408-1.227.335-.709-.115-1.244-.797-1.244-1.586v-5.893c0-1.134.345-2.189.936-3.065l.302-.403s.002-.005.003-.007c1.01-1.235,2.543-2.025,4.259-2.025h12c.276,0,.5-.224.5-.5s-.224-.5-.5-.5h-13.721c-1.582,0-3.119.318-4.569.947l-3.707,1.605c-.587.25-1.067.743-1.318,1.353-.252.619-.246,1.298.014,1.911.26.614.743,1.092,1.362,1.345.297.121.611.183.934.183.096,0,.189-.018.284-.029l-1.409,1.88c-.35.573-.456,1.245-.299,1.89.156.652.827,1.913,2.417,1.913.199,0,1.25-.307,1.521-.51.044,1.233.917,2.29,2.076,2.479.731.121,1.476-.084,2.035-.561.56-.476.881-1.17.881-1.905v-4.887c0-.791.534-1.475,1.242-1.592.452-.071.885.044,1.227.335.338.287.531.704.531,1.144,0,.798-.808,1.469-1.485,1.891-.881.549-1.443,1.436-1.506,2.372-.058.861.225,1.672.796,2.282.567.607,1.368.955,2.196.955.542,0,1.073-.147,1.536-.424.384-.229,2.358-1.474,3.55-3.464.075-.125.27-.464.487-.847.443-.78,1.276-1.264,2.173-1.264h2.753c.276,0,.5-.224.5-.5s-.224-.5-.5-.5ZM3.1,6.219c-.377.161-.796.166-1.161.017-.372-.152-.662-.439-.819-.81-.156-.367-.159-.773-.009-1.143.15-.367.437-.663.787-.812l3.709-1.606c.694-.3,1.41-.519,2.141-.663-.491.348-.932.761-1.308,1.229,0,0-.001,0-.002.002l-2.572,3.432-.766.355Zm.751,5.734c-.163.039-.329.052-.491.039-.229-.02-.445-.092-.646-.215-.339-.206-.577-.535-.672-.927-.094-.387-.029-.789.154-1.094l2.83-3.774c-.014.172-.026.344-.026.518v4.452l-.228.344c-.195.32-.54.565-.922.658Zm8.649,4.047h-5c-1.379,0-2.5,1.122-2.5,2.5v3c0,1.378,1.121,2.5,2.5,2.5h5c1.379,0,2.5-1.122,2.5-2.5v-3c0-1.378-1.121-2.5-2.5-2.5Zm1.5,5.5c0,.827-.673,1.5-1.5,1.5h-5c-.827,0-1.5-.673-1.5-1.5v-3c0-.827.673-1.5,1.5-1.5h5c.827,0,1.5.673,1.5,1.5v3Zm-2-2c0,.276-.224.5-.5.5h-3c-.276,0-.5-.224-.5-.5s.224-.5.5-.5h3c.276,0,.5.224.5.5Z"/>
</svg>
