<?xml version="1.0" encoding="UTF-8"?>
<svg xmlns="http://www.w3.org/2000/svg" id="Layer_1" data-name="Layer 1" viewBox="0 0 24 24">
  <path d="M24,1.5c0-.827-.673-1.5-1.5-1.5s-1.5,.673-1.5,1.5c0,.651,.419,1.201,1,1.408v5.592c0,1.378-1.121,2.5-2.5,2.5h-.5v-1.5C19,4.262,14.738,0,9.5,0S0,4.262,0,9.5v10c0,2.481,2.019,4.5,4.5,4.5H14.5c2.481,0,4.5-2.019,4.5-4.5v-7.5h.5c1.93,0,3.5-1.57,3.5-3.5V2.908c.581-.207,1-.757,1-1.408ZM7.5,15v-7h4.5v7H7.5Zm-6.5,0v-5.5c0-.513,.053-1.012,.141-1.5H6.5v7H1Zm12-7h4.859c.087,.488,.141,.987,.141,1.5v5.5h-5v-7ZM9.5,1c3.817,0,7.053,2.529,8.124,6H1.376C2.447,3.529,5.683,1,9.5,1Zm5,22H4.5c-1.93,0-3.5-1.57-3.5-3.5v-3.5H18v3.5c0,1.93-1.57,3.5-3.5,3.5Zm-3.576-12.464l-1.663,3.561c-.085,.182-.266,.288-.453,.288-.071,0-.144-.015-.212-.047-.25-.117-.358-.415-.241-.665l1.649-3.529c.007-.021-.01-.062-.027-.088-.018-.026-.05-.056-.106-.056h-1.37c-.276,0-.5-.224-.5-.5s.224-.5,.5-.5h1.37c.372,0,.721,.184,.932,.49,.21,.308,.256,.698,.122,1.046Zm6,0l-1.663,3.561c-.085,.182-.266,.288-.453,.288-.071,0-.144-.015-.212-.047-.25-.117-.358-.415-.241-.665l1.649-3.529c.007-.021-.01-.062-.027-.088-.018-.026-.05-.056-.106-.056h-1.37c-.276,0-.5-.224-.5-.5s.224-.5,.5-.5h1.37c.372,0,.721,.184,.932,.49,.21,.308,.256,.698,.122,1.046Zm-12,0l-1.663,3.561c-.085,.182-.266,.288-.453,.288-.071,0-.144-.015-.212-.047-.25-.117-.358-.415-.241-.665l1.649-3.529c.007-.021-.01-.062-.027-.088-.018-.026-.05-.056-.106-.056h-1.37c-.276,0-.5-.224-.5-.5s.224-.5,.5-.5h1.37c.372,0,.721,.184,.932,.49,.21,.308,.256,.698,.122,1.046Z"/>
</svg>
