<svg id="Layer_1" viewBox="0 0 24 24" xmlns="http://www.w3.org/2000/svg" data-name="Layer 1"><path d="m14 13.001h3.5c3.584 0 6.5-2.916 6.5-6.5s-2.916-6.501-6.5-6.501-6.5 2.916-6.5 6.5v3.5c0 1.654 1.346 3 3 3zm-2-6.5c0-3.033 2.468-5.5 5.5-5.5s5.5 2.467 5.5 5.5-2.468 5.5-5.5 5.5h-3.5c-1.103 0-2-.897-2-2zm6.5 3.499c0 .552-.448 1-1 1s-1-.448-1-1 .448-1 1-1 1 .448 1 1zm-3.5-5.5c0-.765.344-1.478.942-1.956.599-.478 1.378-.654 2.141-.478.915.209 1.642.936 1.851 1.851.254 1.114-.239 2.228-1.229 2.773-.441.243-.705.648-.705 1.084v.225c0 .276-.224.5-.5.5s-.5-.224-.5-.5v-.225c0-.806.457-1.539 1.223-1.96.594-.328.89-1 .736-1.675-.122-.535-.563-.977-1.099-1.099-.47-.107-.93-.007-1.295.286-.359.287-.565.714-.565 1.173 0 .276-.224.5-.5.5s-.5-.224-.5-.5zm9 8.5v6.5c0 2.481-2.019 4.5-4.5 4.5h-15c-2.481 0-4.5-2.019-4.5-4.5v-9c0-1.286.549-2.44 1.416-3.261l7.746-7.107c.203-.187.519-.173.706.03s.174.52-.03.706l-5.624 5.161c.096-.006.188-.029.286-.029h4c.276 0 .5.224.5.5s-.224.5-.5.5h-4c-1.918.01-3.504 1.57-3.5 3.5v9c0 1.93 1.57 3.5 3.5 3.5h15c1.93 0 3.5-1.57 3.5-3.5v-6.5c0-.276.224-.5.5-.5s.5.224.5.5zm-15-2.5c0 .276-.224.5-.5.5h-5c-.276 0-.5-.224-.5-.5s.224-.5.5-.5h5c.276 0 .5.224.5.5zm0 3c0 .276-.224.5-.5.5h-5c-.276 0-.5-.224-.5-.5s.224-.5.5-.5h5c.276 0 .5.224.5.5zm0 3c0 .276-.224.5-.5.5h-5c-.276 0-.5-.224-.5-.5s.224-.5.5-.5h5c.276 0 .5.224.5.5zm0 3c0 .276-.224.5-.5.5h-5c-.276 0-.5-.224-.5-.5s.224-.5.5-.5h5c.276 0 .5.224.5.5zm5.113-3.833c-.092-.26.045-.546.305-.638.26-.093.546.043.639.305.141.398.52.667.943.667s.803-.268.943-.667c.094-.261.379-.395.639-.305.26.092.396.377.305.638-.282.798-1.04 1.333-1.887 1.333s-1.604-.536-1.887-1.333zm1.887 3.333c2.206 0 4-1.794 4-4 0-.151-.009-.3-.024-.447-.029-.274.169-.521.443-.55.27-.025.521.168.551.444.02.182.03.366.03.553 0 2.757-2.243 5-5 5-2.553 0-4.689-1.911-4.97-4.445-.03-.274.168-.522.442-.552.267-.027.521.167.552.442.225 2.027 1.934 3.555 3.976 3.555z"/></svg>