<svg id="Layer_1" viewBox="0 0 24 24" xmlns="http://www.w3.org/2000/svg" data-name="Layer 1"><path d="m8.5 20h-1c-.827 0-1.5.673-1.5 1.5v1c0 .827.673 1.5 1.5 1.5h1c.827 0 1.5-.673 1.5-1.5v-1c0-.827-.673-1.5-1.5-1.5zm.5 2.5c0 .276-.224.5-.5.5h-1c-.276 0-.5-.224-.5-.5v-1c0-.276.224-.5.5-.5h1c.276 0 .5.224.5.5zm7.5-2.5h-1c-.827 0-1.5.673-1.5 1.5v1c0 .827.673 1.5 1.5 1.5h1c.827 0 1.5-.673 1.5-1.5v-1c0-.827-.673-1.5-1.5-1.5zm.5 2.5c0 .276-.224.5-.5.5h-1c-.276 0-.5-.224-.5-.5v-1c0-.276.224-.5.5-.5h1c.276 0 .5.224.5.5zm5.5-2.5h-1c-.827 0-1.5.673-1.5 1.5v1c0 .827.673 1.5 1.5 1.5h1c.827 0 1.5-.673 1.5-1.5v-1c0-.827-.673-1.5-1.5-1.5zm.5 2.5c0 .276-.224.5-.5.5h-1c-.276 0-.5-.224-.5-.5v-1c0-.276.224-.5.5-.5h1c.276 0 .5.224.5.5zm-20.5-2.5h-1c-.827 0-1.5.673-1.5 1.5v1c0 .827.673 1.5 1.5 1.5h1c.827 0 1.5-.673 1.5-1.5v-1c0-.827-.673-1.5-1.5-1.5zm.5 2.5c0 .276-.224.5-.5.5h-1c-.276 0-.5-.224-.5-.5v-1c0-.276.224-.5.5-.5h1c.276 0 .5.224.5.5zm9.418-17.337c-.224.224-.521.337-.818.337s-.599-.114-.827-.341l-.839-.796c-.2-.19-.208-.507-.019-.707.191-.2.507-.208.707-.019l.848.805c.075.074.181.074.245.009l1.862-1.81c.199-.194.515-.188.707.01.193.198.188.515-.01.707l-1.857 1.805zm-5.133 7.488c.193.198.188.515-.01.707l-1.857 1.805c-.224.224-.521.337-.818.337s-.599-.114-.827-.341l-.839-.796c-.2-.19-.208-.507-.019-.707.191-.201.507-.208.707-.019l.848.805c.075.073.181.074.245.009l1.862-1.81c.198-.193.516-.188.707.01zm7.715 2.849c0 1.378 1.122 2.5 2.5 2.5h3c1.378 0 2.5-1.122 2.5-2.5v-3c0-1.378-1.122-2.5-2.5-2.5h-3c-1.378 0-2.5 1.122-2.5 2.5v1h-2.5v-5.5h1c1.378 0 2.5-1.122 2.5-2.5v-3c0-1.378-1.122-2.5-2.5-2.5h-3c-1.378 0-2.5 1.122-2.5 2.5v3c0 1.378 1.122 2.5 2.5 2.5h1v5.5h-2.5v-1c0-1.378-1.122-2.5-2.5-2.5h-3c-1.378 0-2.5 1.122-2.5 2.5v3c0 1.378 1.122 2.5 2.5 2.5h3c1.378 0 2.5-1.122 2.5-2.5v-1h6zm-6-10v-3c0-.827.673-1.5 1.5-1.5h3c.827 0 1.5.673 1.5 1.5v3c0 .827-.673 1.5-1.5 1.5h-3c-.827 0-1.5-.673-1.5-1.5zm-1 10c0 .827-.673 1.5-1.5 1.5h-3c-.827 0-1.5-.673-1.5-1.5v-3c0-.827.673-1.5 1.5-1.5h3c.827 0 1.5.673 1.5 1.5zm8-3c0-.827.673-1.5 1.5-1.5h3c.827 0 1.5.673 1.5 1.5v3c0 .827-.673 1.5-1.5 1.5h-3c-.827 0-1.5-.673-1.5-1.5zm1.146 2.646 1.146-1.146-1.146-1.146c-.195-.195-.195-.512 0-.707s.512-.195.707 0l1.146 1.146 1.146-1.146c.195-.195.512-.195.707 0s.195.512 0 .707l-1.146 1.146 1.146 1.146c.195.195.195.512 0 .707s-.512.195-.707 0l-1.146-1.146-1.146 1.146c-.195.195-.512.195-.707 0s-.195-.512 0-.707z"/></svg>