<svg id="Layer_1" viewBox="0 0 24 24" xmlns="http://www.w3.org/2000/svg" data-name="Layer 1"><path d="m8 4c0-2.21-1.79-4-4-4s-4 1.79-4 4 1.79 4 4 4 4-1.79 4-4zm-7 0c0-1.65 1.35-3 3-3s3 1.35 3 3-1.35 3-3 3-3-1.35-3-3zm9.15-1.15c-.2-.2-.2-.51 0-.71s.51-.2.71 0l4.15 4.15v-2.79c0-.28.22-.5.5-.5s.5.22.5.5v3.17c0 .74-.6 1.33-1.33 1.33h-3.17c-.28 0-.5-.22-.5-.5s.22-.5.5-.5h2.79zm-2.15 11.82c0 .74-.6 1.33-1.33 1.33h-3.17c-.28 0-.5-.22-.5-.5s.22-.5.5-.5h2.79l-4.15-4.15c-.2-.2-.2-.51 0-.71s.51-.2.71 0l4.15 4.15v-2.79c0-.28.22-.5.5-.5s.5.22.5.5zm1 8.83c0 .28-.22.5-.5.5s-.5-.22-.5-.5c0-8.55 6.95-15.5 15.5-15.5.28 0 .5.22.5.5s-.22.5-.5.5c-8 0-14.5 6.5-14.5 14.5zm14.42-11.5c.3.02.58-.19.58-.5 0-.28-.22-.5-.5-.5-6.89 0-12.5 5.61-12.5 12.5 0 .28.22.5.5.5s.5-.22.5-.5c0-1.91.48-3.71 1.31-5.3l1.97 1.91c.6.58 1.43.89 2.33.89h1.34c.1.08.94.94 1.05.96v.93c0 .26.02.49.07.71.05.27.33.45.59.39.27-.06.45-.32.39-.59-.03-.16-.05-.34-.05-.51v-.89h1.39c.26 0 .56.16.86.34.24.14.54.07.69-.17.14-.24.07-.54-.17-.69-.42-.25-.87-.48-1.37-.48h-1.95l-1.09-1.06c-.25-.27-.24-.69.02-.95l.69-.69c.21-.21.53-.26.79-.13l.95.47c.36.18.8.11 1.08-.18.31-.31.36-.78.14-1.15l-.96-1.6c-.12-.19-.13-.43-.04-.63l1.4-3.1zm-2.22 4.25.85 1.42-.76-.38c-.65-.33-1.43-.2-1.94.31l-.69.69c-.46.46-.6 1.12-.41 1.71h-.64c-.46 0-1.11-.11-1.64-.61l-2.15-2.08c1.84-2.87 4.92-4.87 8.47-5.25l-1.19 2.62c-.23.5-.19 1.09.09 1.56z"/></svg>