<?xml version="1.0" encoding="UTF-8"?>
<svg xmlns="http://www.w3.org/2000/svg" id="Layer_1" data-name="Layer 1" viewBox="0 0 24 24">
  <path d="M12.5,5c1.378,0,2.5-1.122,2.5-2.5s-1.122-2.5-2.5-2.5-2.5,1.122-2.5,2.5,1.122,2.5,2.5,2.5Zm0-4c.827,0,1.5,.673,1.5,1.5s-.673,1.5-1.5,1.5-1.5-.673-1.5-1.5,.673-1.5,1.5-1.5Zm7.224,12.553c-1.854-.927-4.023-3.297-5.318-5.046-.794-1.17-1.808-2.606-3.406-2.507-4.858,0-5.837,7.785-5.988,12.426-.022,.68,.226,1.323,.699,1.812,.355,.367,.801,.609,1.289,.71v2.552c0,.276,.224,.5,.5,.5s.5-.224,.5-.5v-2.5h3v2.5c0,.276,.224,.5,.5,.5s.5-.224,.5-.5v-2.554c.477-.099,.914-.333,1.265-.688,.474-.478,.73-1.111,.724-1.784l-.02-1.775c-.034-2.764-.064-5.37,.101-6.988,1.347,1.708,3.202,3.628,4.93,4.59v9.199c0,.276,.224,.5,.5,.5s.5-.224,.5-.5V14c0-.189-.107-.362-.276-.447Zm-6.625-4.188c-.199,1.661-.167,4.296-.129,7.347l.02,1.773c.004,.403-.15,.783-.435,1.07-.284,.287-.663,.445-1.066,.445h-3.978c-.412,0-.795-.163-1.081-.458-.283-.292-.432-.677-.419-1.084,.113-3.445,.824-11.458,4.989-11.458,1.223-.025,2.272,1.151,2.099,2.365Z"/>
</svg>
