<svg id="Layer_1" viewBox="0 0 24 24" xmlns="http://www.w3.org/2000/svg" data-name="Layer 1"><path d="m19 16.5c0-.552.448-1 1-1s1 .448 1 1-.448 1-1 1-1-.448-1-1zm5-3.02v4.02c0 1.379-1.122 2.5-2.5 2.5h-21c-.276 0-.5-.224-.5-.5s.224-.5.5-.5h15.5v-4h-12c-1.103 0-2-.897-2-2v-2.39l-.179-.045c-1.283-.325-2.068-1.634-1.75-2.918.555-2.459 3.248-4.076 5.679-3.417l14.014 3.78c2.483.67 4.218 2.911 4.233 5.456 0 .005.003.009.003.014zm-8.482.52-12.518-3.139v2.139c0 .552.449 1 1 1zm7.455-1c-.207-1.897-1.575-3.513-3.469-4.023l-14.005-3.778c-1.9-.518-4.024.761-4.457 2.688-.186.751.273 1.518 1.023 1.708l13.577 3.404h7.331zm.027 1h-6v5h4.5c.827 0 1.5-.673 1.5-1.5z"/></svg>