<?xml version="1.0" encoding="UTF-8"?>
<svg xmlns="http://www.w3.org/2000/svg" id="Layer_1" data-name="Layer 1" viewBox="0 0 24 24">
  <path d="M7.962,14.962c.552,0,1,.448,1,1s-.448,1-1,1-1-.448-1-1,.448-1,1-1Zm9.538,6H3.462c-1.024,0-1.736-.227-2.115-.674-.472-.558-.335-1.379-.273-1.748,.528-3.33,2.848-6.06,6.052-7.123,.263-.087,.404-.37,.317-.632-.086-.262-.371-.406-.632-.317C3.249,11.649,.673,14.683,.077,18.436c-.065,.393-.265,1.588,.507,2.499,.577,.682,1.546,1.027,2.878,1.027h14.038c.276,0,.5-.224,.5-.5s-.224-.5-.5-.5Zm6.354,2.892c-.098,.098-.226,.146-.354,.146s-.256-.049-.354-.146L.146,.854C-.049,.658-.049,.342,.146,.146S.658-.049,.854,.146L10.669,9.962h12.293v-.5c0-3.584-2.916-6.5-6.5-6.5H8.462c-.276,0-.5-.224-.5-.5s.224-.5,.5-.5h8c4.136,0,7.5,3.364,7.5,7.5v8c0,1.538-.77,2.931-2.034,3.759l1.926,1.926c.195,.195,.195,.512,0,.707Zm-2.655-3.362c1.089-.624,1.763-1.762,1.763-3.03v-6.5H11.669l9.53,9.53Zm-8.237-4.53c0-.552-.448-1-1-1s-1,.448-1,1,.448,1,1,1,1-.448,1-1Z"/>
</svg>
