<svg width="1106" height="1058" viewBox="0 0 1106 1058" fill="none" xmlns="http://www.w3.org/2000/svg">
<path d="M1099.19 591.791C1097.27 589.869 1094.99 588.343 1092.48 587.303C1089.97 586.262 1087.28 585.727 1084.56 585.727C1081.84 585.727 1079.15 586.262 1076.64 587.303C1074.13 588.343 1071.85 589.869 1069.93 591.791L1002.36 659.368C989.675 672.047 972.476 679.17 954.544 679.168C936.612 679.167 919.414 672.043 906.735 659.362C894.056 646.681 886.933 629.483 886.934 611.55C886.936 593.618 894.06 576.421 906.741 563.741L925.748 544.734C956.299 514.225 974.175 473.285 975.784 430.139C977.394 386.992 962.618 344.835 934.424 312.134L949.956 299.025C964.267 286.866 975.903 271.873 984.131 254.992C992.359 238.112 997 219.709 997.761 200.946C998.522 182.182 995.388 163.464 988.554 145.972C981.721 128.48 971.338 112.594 958.059 99.3154C944.78 86.0365 928.894 75.6531 911.402 68.8199C893.91 61.9866 875.192 58.8518 856.429 59.6131C837.665 60.3744 819.262 65.0153 802.382 73.2431C785.501 81.4709 770.508 93.1072 758.349 107.418L745.654 122.477L629.271 6.05896C625.391 2.17947 620.13 -4.08771e-08 614.643 0C609.157 4.08771e-08 603.895 2.17947 600.016 6.05896C596.136 9.93845 593.957 15.2002 593.957 20.6866C593.957 26.173 596.136 31.4347 600.016 35.3142L718.881 154.191L8.82261 995.667C2.76904 1002.86 -0.366999 1012.06 0.0342505 1021.45C0.4355 1030.84 4.34485 1039.74 10.9897 1046.39C17.6345 1053.03 26.5314 1056.95 35.922 1057.35C45.3126 1057.76 54.5136 1054.63 61.7067 1048.58L902.828 338.801C924.325 363.587 935.623 395.602 934.445 428.39C933.267 461.178 919.701 492.299 896.481 515.479L877.498 534.486C867.332 544.596 859.261 556.612 853.747 569.847C848.233 583.081 845.385 597.274 845.365 611.611C845.346 625.948 848.155 640.148 853.633 653.397C859.11 666.647 867.148 678.685 877.286 688.823C887.424 698.961 899.462 706.999 912.712 712.476C925.961 717.953 940.161 720.763 954.498 720.743C968.835 720.724 983.028 717.875 996.262 712.361C1009.5 706.848 1021.51 698.777 1031.62 688.611L1099.2 621.046C1103.07 617.164 1105.25 611.902 1105.25 606.416C1105.25 600.931 1103.07 595.67 1099.19 591.791ZM790.027 134.097C798.483 124.127 808.914 116.019 820.661 110.284C832.409 104.549 845.218 101.313 858.28 100.778C871.341 100.244 884.372 102.424 896.548 107.18C908.725 111.936 919.783 119.165 929.025 128.411C938.267 137.657 945.491 148.718 950.242 160.897C954.992 173.076 957.166 186.107 956.626 199.169C956.086 212.23 952.844 225.038 947.104 236.783C941.364 248.528 933.251 258.955 923.278 267.406L905.547 282.371L845.264 222.087C851.546 217.056 858.642 213.134 866.245 210.491C870.608 212.886 875.689 213.628 880.555 212.579C885.421 211.53 889.746 208.762 892.736 204.782C895.726 200.802 897.18 195.878 896.832 190.912C896.485 185.947 894.358 181.273 890.843 177.749C849.803 136.673 729.85 255.869 771.28 297.3C774.802 300.825 779.479 302.961 784.45 303.314C789.421 303.667 794.352 302.214 798.337 299.221C802.322 296.229 805.092 291.898 806.139 287.026C807.186 282.153 806.438 277.067 804.034 272.702C806.78 264.94 810.839 257.707 816.032 251.319L873.869 309.132L69.6618 987.724L790.027 134.097Z" fill="white"/>
</svg>
