<svg width="1419" height="1400" viewBox="0 0 1419 1400" fill="none" xmlns="http://www.w3.org/2000/svg">
<path d="M1290.07 1124.31H1207.8V832.581C1207.8 820.66 1205.45 808.855 1200.89 797.841C1196.33 786.827 1189.64 776.82 1181.21 768.39C1172.78 759.96 1162.77 753.274 1151.76 748.711C1140.75 744.149 1128.94 741.801 1117.02 741.801H891.253C867.196 741.864 844.142 751.448 827.131 768.459C810.12 785.47 800.535 808.524 800.473 832.581V1124.31H547.518V946.293C547.45 925.381 540.453 905.082 527.62 888.571C514.788 872.06 496.844 860.268 476.596 855.04L586.052 401.849C614.261 396.263 640.971 384.784 664.437 368.162C687.902 351.541 707.594 330.152 722.222 305.395H895.272V367.807C895.396 390.324 903.375 412.093 917.833 429.356C932.291 446.619 952.322 458.295 974.468 462.369V502.322C974.468 508.592 976.959 514.605 981.392 519.038C985.826 523.472 991.839 525.962 998.109 525.962C1004.38 525.962 1010.39 523.472 1014.83 519.038C1019.26 514.605 1021.75 508.592 1021.75 502.322V462.369C1043.85 458.246 1063.83 446.549 1078.24 429.291C1092.65 412.032 1100.6 390.29 1100.71 367.807V306.341H1130.02C1143.59 306.341 1157.02 303.669 1169.56 298.477C1182.09 293.285 1193.48 285.675 1203.07 276.082C1212.67 266.489 1220.28 255.1 1225.47 242.566C1230.66 230.032 1233.33 216.598 1233.33 203.031C1233.33 189.464 1230.66 176.031 1225.47 163.496C1220.28 150.962 1212.67 139.574 1203.07 129.98C1193.48 120.387 1182.09 112.778 1169.56 107.586C1157.02 102.394 1143.59 99.7217 1130.02 99.7217H721.75C699.056 61.3967 664.405 31.5842 623.122 14.8659C581.839 -1.85242 536.208 -4.5514 493.242 7.18372C450.276 18.9188 412.352 44.4387 385.299 79.8213C358.246 115.204 343.561 158.491 343.5 203.031C343.432 223.983 346.703 244.812 353.192 264.733L84.8712 852.676C61.5073 855.083 39.8755 866.099 24.1873 883.579C8.49919 901.058 -0.122363 923.751 0.00131235 947.238V1304.45C0.00131235 1329.53 9.96412 1353.58 27.698 1371.31C45.4319 1389.05 69.4843 1399.01 94.5638 1399.01H1290.07C1324.1 1398.95 1356.71 1385.4 1380.77 1361.34C1404.83 1337.28 1418.38 1304.67 1418.44 1270.64V1252.91C1418.44 1218.84 1404.92 1186.17 1380.86 1162.06C1356.79 1137.95 1324.14 1124.37 1290.07 1124.31ZM1053.66 367.807C1053.17 380.641 1047.68 392.773 1038.36 401.609C1029.03 410.445 1016.62 415.282 1003.78 415.088H991.489C978.746 415.1 966.49 410.187 957.283 401.376C948.076 392.566 942.629 380.538 942.08 367.807V306.341H1052.95L1053.66 367.807ZM742.317 146.057H1130.02C1137.41 146.057 1144.73 147.513 1151.55 150.34C1158.38 153.168 1164.58 157.312 1169.81 162.537C1175.03 167.762 1179.18 173.964 1182.01 180.791C1184.83 187.617 1186.29 194.933 1186.29 202.322C1186.29 209.7 1184.83 217.005 1182 223.818C1179.17 230.631 1175.02 236.818 1169.79 242.024C1164.57 247.23 1158.36 251.352 1151.54 254.154C1144.71 256.955 1137.4 258.382 1130.02 258.35H742.317C753.034 221.767 753.034 182.877 742.317 146.294V146.057ZM546.573 45.8211C586.84 45.497 625.678 60.7303 654.987 88.344C684.296 115.958 701.814 153.82 703.887 194.035C705.961 234.25 692.429 273.713 666.115 304.195C639.801 334.676 602.735 353.822 562.648 357.641C557.447 357.641 552.246 357.641 546.809 357.641C505.365 357.641 465.619 341.177 436.313 311.872C407.008 282.567 390.544 242.82 390.544 201.376C390.544 159.933 407.008 120.186 436.313 90.8807C465.619 61.5754 505.365 45.1119 546.809 45.1119L546.573 45.8211ZM379.67 318.398C397.435 343.813 420.767 364.84 447.888 379.875C475.008 394.91 505.203 403.557 536.171 405.159L428.133 851.73H137.353L379.67 318.398ZM500.237 1147.95V1351.49H94.5638C82.024 1351.49 69.9979 1346.51 61.1309 1337.64C52.264 1328.78 47.2826 1316.75 47.2826 1304.21V946.293C47.2826 933.753 52.264 921.727 61.1309 912.86C69.9979 903.993 82.024 899.011 94.5638 899.011H452.956C465.495 899.011 477.522 903.993 486.389 912.86C495.256 921.727 500.237 933.753 500.237 946.293V1147.95ZM847.754 832.345C847.754 826.633 848.879 820.976 851.065 815.699C853.251 810.421 856.455 805.626 860.495 801.587C864.534 797.547 869.329 794.343 874.607 792.157C879.884 789.971 885.541 788.846 891.253 788.846H1117.02C1122.73 788.846 1128.39 789.971 1133.67 792.157C1138.94 794.343 1143.74 797.547 1147.78 801.587C1151.82 805.626 1155.02 810.421 1157.21 815.699C1159.39 820.976 1160.52 826.633 1160.52 832.345V1124.31H847.754V832.345ZM1371.16 1270.64C1371.1 1292.13 1362.53 1312.72 1347.34 1327.91C1332.15 1343.1 1311.56 1351.67 1290.07 1351.73H547.518V1171.59H1290.07C1311.6 1171.65 1332.22 1180.25 1347.42 1195.49C1362.62 1210.73 1371.16 1231.38 1371.16 1252.91V1270.64ZM546.573 306.814C567.306 306.86 587.587 300.752 604.845 289.262C622.104 277.773 635.564 261.419 643.52 242.273C651.475 223.126 653.569 202.05 649.536 181.712C645.503 161.375 635.523 142.693 620.863 128.032C606.202 113.371 587.519 103.392 567.182 99.3588C546.845 95.3254 525.768 97.4192 506.622 105.375C487.476 113.331 471.122 126.791 459.632 144.05C448.143 161.308 442.034 181.589 442.081 202.322C442.143 230.016 453.172 256.557 472.755 276.14C492.337 295.722 518.879 306.751 546.573 306.814ZM546.573 144.639C557.934 144.592 569.055 147.916 578.528 154.189C588.001 160.463 595.4 169.404 599.792 179.883C604.183 190.362 605.368 201.908 603.197 213.061C601.026 224.213 595.597 234.472 587.596 242.539C579.595 250.606 569.382 256.119 558.248 258.381C547.113 260.644 535.558 259.554 525.043 255.249C514.529 250.944 505.526 243.618 499.175 234.197C492.824 224.777 489.409 213.684 489.362 202.322C489.331 194.778 490.786 187.302 493.645 180.32C496.503 173.338 500.708 166.988 506.021 161.632C511.333 156.275 517.649 152.018 524.607 149.102C531.565 146.187 539.029 144.67 546.573 144.639Z" fill="white"/>
</svg>
