<svg width="1487" height="1409" viewBox="0 0 1487 1409" fill="none" xmlns="http://www.w3.org/2000/svg">
<path d="M1265.42 332.72H1422.46C1443.89 332.72 1472.23 356.461 1480.98 375.341C1494.57 404.689 1481.35 466.758 1478.37 500.401C1463.52 667.336 1452.57 840.269 1432.21 1006.09C1423.56 1076.64 1393.46 1123.39 1333.74 1161.35L1318.9 1108.97C1342.93 1090.11 1364.54 1067.62 1376.27 1038.88C1397.08 851.075 1415.66 662.226 1432.2 473.767C1433.85 455.011 1439.84 415.495 1437.61 399.171C1436.67 392.357 1431.49 385.863 1424.25 385.916C1372.54 387.211 1320.69 384.745 1269.02 384.905C1266.95 384.905 1266.73 385.029 1265.4 386.839V476.446C1277.1 477.741 1288.33 484.662 1290.08 497.011C1288.4 600.654 1315.49 698.353 1173.93 689.463C1064.79 682.596 1098.18 569.762 1093.39 495.201C1095.52 484.52 1104.32 478.185 1114.58 476.464V386.857H883.907V476.464C896.203 478.185 904.951 486.418 906.814 498.804C903.603 569.744 931.478 682.738 828.102 689.481C767.772 693.402 712.996 678.089 708.17 608.728C706.271 581.331 705.295 527.088 708.436 500.613C710.14 486.276 718.479 477.582 733.083 476.464V386.857C731.752 385.047 731.539 384.94 729.463 384.922C678.378 384.763 627.098 387.282 575.959 385.881C561.232 389.483 562.367 402.72 562.758 415.229C565.544 503.754 578.461 596.059 584.015 684.974C584.193 687.76 585.754 697.714 581.442 696.436L534.314 677.504L512.986 411.787C506.58 377.843 544.109 332.755 577.822 332.755H733.083C733.775 290.755 729.977 249.465 738.938 208.192C785.25 -5.33948 1055.67 -73.441 1200.67 93.1398C1226.01 122.258 1265.42 194.032 1265.42 232.448V332.702V332.72ZM1213.96 478.22V250.228C1181.19 -14.0518 809.683 -10.9466 784.576 255.551V478.22H832.467L832.396 260.785C852.251 50.6606 1142.79 49.2943 1166.13 257.236L1166.05 478.22H1213.96ZM1114.6 332.72V253.759C1114.6 194.458 1046.8 148.182 991.205 151.66C939.818 154.871 883.924 203.632 883.924 257.307V332.72H1114.6ZM857.308 527.904H757.942C757.463 529.199 759.716 530.033 759.716 530.565V619.285C759.716 624.857 771.694 635.805 777.336 637.154C785.374 639.07 831.881 639.106 839.618 637.083C846.165 635.379 857.308 624.094 857.308 617.511V527.904ZM1238.8 527.904H1141.21V612.188C1141.21 623.136 1154.02 636.621 1165.13 637.952C1174.94 639.141 1212.38 639.247 1221.18 637.154C1226.83 635.805 1238.8 624.857 1238.8 619.285V527.904Z" fill="white"/>
<path d="M480.68 711.144C501.015 708.5 524.969 722.252 542.642 731.656C627.867 777.081 717.421 831.892 801.048 881.362C899.332 939.492 979.393 999.839 1092.9 1029.56C1175.7 1051.23 1257.23 1046.01 1283.01 1148.2C1325.37 1316.02 1122.87 1393.88 991.228 1404.46C889.076 1412.65 776.615 1404.65 673.717 1404.39C483.803 1403.91 293.889 1404.86 103.975 1404.54C37.5233 1401.85 -2.98625 1349.36 0.172181 1284.63C3.29513 1220.84 13.9238 1146.69 21.5715 1082.46C31.4016 999.857 41.4093 906.683 57.5741 825.682C68.3624 771.598 96.2205 745.088 153.782 749.649C249.28 757.208 220.517 873.271 305.334 890.873C337.681 897.58 397.478 883.598 413.43 851.499C418.221 841.846 414.477 813.545 415.684 800.521C418.842 766.062 442.388 716.13 480.68 711.144ZM614.204 831.36C574.741 813.225 539.998 784.782 500.713 766.488C481.762 757.669 478.018 768.173 471.4 785.225C457.755 820.358 473.263 845.165 454.153 877.991C410.29 953.385 274.796 966.356 218.548 896.054C200.041 872.916 185.207 816.898 165.191 803.91C151.546 795.056 124.487 795.481 113.823 809.162C106.352 818.779 102.2 857.302 99.9113 871.55C84.2788 968.787 73.3485 1067.07 62.3472 1164.93C84.5095 1165.85 106.778 1165.89 128.976 1166.62C225.166 1169.83 326.076 1168.46 421.663 1175.58C522.166 1183.05 620.237 1209.64 720.011 1221.46C860.402 1238.11 1014.24 1225.03 1151.53 1192.1C1162.23 1189.52 1231 1169.92 1234.5 1164.98C1237.99 1160.05 1222.97 1135.16 1219.22 1130.36C1186.61 1088.56 1117.96 1088.31 1069.83 1075.69C990.927 1055.02 918.851 1013.45 850.749 969.958L847.467 971.378C834.584 988.057 822.625 1005.68 809.317 1022C803.728 1028.87 793.738 1043.31 787.208 1047.8C766.075 1062.39 739.459 1037.79 750.46 1014.6C758.48 997.692 787.651 969.178 800.463 952.835C801.829 951.079 806.176 945.773 805.804 944.141L755.535 913.248L698.541 985.751C680.815 998.65 657.18 987.223 656.736 965.221C656.541 955.32 663.798 947.92 669.281 940.539C674.764 933.157 712.559 890.607 711.796 887.271L657.996 858.1C653.524 859.236 616.741 914.313 608.81 922.653C586.008 946.696 552.951 923.274 565.958 895.771C570.27 886.65 616.581 834.571 614.186 831.342L614.204 831.36ZM1235.24 1219.95C1068.56 1271.06 886.84 1291.05 712.931 1271.15C597.826 1257.96 485.134 1224.83 368.52 1223.41L119.962 1218.23L58.1241 1212.71C56.6514 1213.12 55.7287 1219.3 55.4803 1221C52.659 1240.09 47.46 1279.06 48.0633 1297.12C49.0747 1327.68 78.2813 1351.6 107.648 1352.98C338.923 1353.8 570.216 1352 801.492 1352.93C892.075 1353.28 981.966 1362.72 1070.62 1338.31C1134.56 1320.69 1209.94 1285.59 1235.24 1219.94V1219.95Z" fill="white"/>
</svg>
