<svg width="1085" height="1085" viewBox="0 0 1085 1085" fill="none" xmlns="http://www.w3.org/2000/svg">
<path d="M477.735 845.801C471.895 867.595 472.649 890.631 479.902 911.996C487.154 933.361 500.58 952.096 518.48 965.831C536.38 979.566 557.951 987.685 580.465 989.16C602.979 990.636 625.425 985.402 644.965 974.121C664.504 962.84 680.26 946.018 690.239 925.782C700.218 905.547 703.973 882.806 701.028 860.437C698.083 838.067 688.571 817.073 673.695 800.11C658.818 783.147 639.246 770.975 617.452 765.136C602.982 761.252 587.887 760.258 573.032 762.21C558.177 764.163 543.853 769.024 530.877 776.515C517.902 784.006 506.53 793.981 497.411 805.87C488.293 817.758 481.607 831.327 477.735 845.801ZM606.941 804.36C616.265 806.852 625.006 811.158 632.665 817.031C640.323 822.904 646.749 830.229 651.574 838.587C656.399 846.945 659.529 856.173 660.785 865.742C662.041 875.311 661.398 885.033 658.893 894.354C655.131 908.389 647.291 920.994 636.365 930.574C625.439 940.154 611.917 946.279 597.51 948.175C583.103 950.07 568.458 947.651 555.426 941.223C542.393 934.796 531.56 924.648 524.295 912.063C517.03 899.478 513.66 885.022 514.611 870.522C515.562 856.022 520.791 842.13 529.637 830.601C538.483 819.073 550.549 810.427 564.309 805.756C578.069 801.085 592.905 800.6 606.941 804.36Z" fill="white"/>
<path d="M1078.94 302.348C1078.26 299.766 1077.07 297.344 1075.45 295.221C1073.83 293.098 1071.8 291.316 1069.49 289.978C1067.18 288.64 1064.63 287.773 1061.98 287.425C1059.33 287.077 1056.64 287.255 1054.06 287.951L702.803 382.039L796.949 30.7789C797.641 28.1965 797.815 25.5028 797.463 22.8527C797.111 20.2025 796.239 17.648 794.897 15.3358C793.555 13.0236 791.769 10.9993 789.643 9.37889C787.516 7.75853 785.091 6.57409 782.505 5.89359C767.946 2.02618 752.95 0.0454364 737.886 0C700.021 0.0684424 663.232 12.6043 633.204 35.6706C603.176 58.737 581.579 91.05 571.751 127.617L488.058 439.537L415.154 459.062C414.14 453.524 412.918 448.064 411.487 442.681C400.798 402.684 378.486 366.757 347.374 339.443C316.263 312.128 277.75 294.655 236.706 289.232C195.662 283.809 153.932 290.681 116.795 308.978C79.6569 327.275 48.7801 356.176 28.0697 392.023C7.35932 427.871 -2.25407 469.056 0.445526 510.368C3.14512 551.681 18.0364 591.264 43.2358 624.112C68.4352 656.96 102.81 681.596 142.013 694.905C181.216 708.213 223.486 709.596 263.475 698.878L430.595 654.096L385.836 821.24C378.724 847.789 376.911 875.479 380.501 902.729C384.09 929.979 393.012 956.255 406.756 980.057C420.5 1003.86 438.798 1024.72 460.605 1041.45C482.411 1058.18 507.3 1070.45 533.849 1077.56C560.398 1084.68 588.088 1086.49 615.338 1082.9C642.588 1079.31 668.864 1070.39 692.666 1056.65C716.468 1042.9 737.33 1024.6 754.06 1002.8C770.791 980.99 783.062 956.101 790.174 929.552C804.424 875.927 796.841 818.839 769.085 770.794C741.33 722.748 695.665 687.66 642.092 673.215C636.678 671.792 631.202 670.574 625.664 669.561L645.259 596.587L957.155 513.056C979.008 507.258 999.501 497.202 1017.46 483.466C1035.42 469.731 1050.49 452.585 1061.81 433.012C1073.12 413.44 1080.46 391.825 1083.41 369.409C1086.36 346.993 1084.85 324.215 1078.97 302.383L1078.94 302.348ZM631.65 712.452C663.877 721.084 692.82 739.079 714.82 764.161C736.82 789.243 750.888 820.285 755.246 853.362C759.604 886.439 754.055 920.066 739.301 949.989C724.548 979.913 701.253 1004.79 672.361 1021.47C643.469 1038.16 610.279 1045.9 576.987 1043.72C543.695 1041.54 511.797 1029.54 485.327 1009.23C458.856 988.924 439.002 961.224 428.275 929.632C417.548 898.041 416.429 863.978 425.061 831.751L475.865 642.019L599.932 608.85L580.406 681.545C579.625 684.445 579.498 687.482 580.033 690.437C580.568 693.392 581.753 696.191 583.501 698.633C585.249 701.074 587.517 703.097 590.142 704.556C592.766 706.015 595.682 706.873 598.679 707.069C609.815 707.811 620.856 709.613 631.65 712.452ZM533.42 427.367L610.918 138.105C618.437 110.178 634.94 85.5032 657.879 67.8899C680.819 50.2766 708.918 40.7046 737.839 40.6519C742.576 40.657 747.309 40.9204 752.016 41.4408L657.475 394.221L533.42 427.367ZM946.691 473.773L252.975 659.665C220.758 668.289 186.708 667.166 155.129 656.438C123.551 645.71 95.8622 625.859 75.5655 599.395C55.2688 572.931 43.2752 541.042 41.1015 507.762C38.9277 474.482 46.6714 441.304 63.3532 412.425C80.0351 383.546 104.906 360.262 134.821 345.517C164.736 330.772 198.351 325.23 231.416 329.59C264.481 333.949 295.51 348.016 320.581 370.011C345.651 392.006 363.637 420.941 372.263 453.157C375.118 463.925 376.924 474.943 377.657 486.059C377.858 489.053 378.72 491.965 380.181 494.586C381.642 497.206 383.665 499.471 386.106 501.216C388.547 502.961 391.344 504.143 394.296 504.678C397.249 505.213 400.283 505.087 403.181 504.308C469.843 486.465 860.108 381.923 1043.46 332.814C1043.98 337.483 1044.24 342.177 1044.24 346.875C1044.17 375.816 1034.57 403.928 1016.93 426.87C999.289 449.813 974.585 466.308 946.633 473.808L946.691 473.773Z" fill="white"/>
<path d="M179.846 386.568C158.05 392.406 138.475 404.576 123.596 421.538C108.716 438.5 99.2006 459.494 96.2519 481.864C93.3033 504.235 97.054 526.977 107.03 547.216C117.006 567.454 132.759 584.28 152.298 595.566C171.836 606.852 194.282 612.091 216.798 610.621C239.314 609.151 260.888 601.037 278.793 587.306C296.697 573.575 310.128 554.843 317.388 533.478C324.647 512.114 325.408 489.077 319.575 467.281C315.708 452.801 309.025 439.226 299.908 427.332C290.791 415.437 279.418 405.456 266.441 397.96C253.464 390.464 239.136 385.6 224.277 383.645C209.419 381.69 194.32 382.684 179.846 386.568ZM228.398 567.738C214.363 571.498 199.528 571.011 185.77 566.34C172.011 561.669 159.946 553.024 151.101 541.497C142.255 529.97 137.026 516.079 136.074 501.58C135.122 487.081 138.491 472.626 145.754 460.041C153.017 447.457 163.848 437.309 176.878 430.879C189.908 424.45 204.552 422.028 218.958 423.921C233.364 425.813 246.886 431.934 257.813 441.511C268.741 451.087 276.584 463.689 280.35 477.722C285.374 496.547 282.726 516.597 272.987 533.472C263.247 550.347 247.212 562.671 228.398 567.738Z" fill="white"/>
<path d="M568.937 492.027C564.261 492.03 559.691 493.418 555.804 496.018C551.918 498.617 548.889 502.311 547.101 506.631C545.313 510.952 544.847 515.705 545.76 520.291C546.674 524.877 548.927 529.089 552.234 532.394C555.541 535.7 559.754 537.95 564.34 538.862C568.926 539.773 573.68 539.304 578 537.514C582.319 535.724 586.011 532.694 588.609 528.806C591.206 524.918 592.593 520.347 592.593 515.671C592.593 512.565 591.981 509.49 590.792 506.62C589.603 503.751 587.86 501.144 585.663 498.948C583.467 496.753 580.859 495.011 577.989 493.824C575.119 492.636 572.043 492.026 568.937 492.027Z" fill="white"/>
</svg>
