<?xml version="1.0" encoding="UTF-8"?>
<svg id="a" data-name="图层 1" xmlns="http://www.w3.org/2000/svg" width="1080" height="1080" viewBox="0 0 1080 1080">
  <defs>
    <style>
      .b {
        stroke-miterlimit: 10;
      }

      .b, .c {
        fill: none;
        stroke: #fff;
        stroke-width: 10px;
      }

      .c {
        stroke-linecap: round;
        stroke-linejoin: round;
      }
    </style>
  </defs>
  <path class="b" d="M327.2,538v-99.7c0-24.8,20.1-44.9,44.9-44.9h315.3c24.8,0,44.9,20.1,44.9,44.9v253.2c0,12-9.7,21.8-21.8,21.8h-372.5c-12,0-21.8-9.7-21.8-21.8v-61.7c0-15.5,12.6-28.1,28.1-28.1h220.6c9.9,0,17.9-8,17.9-17.9v-53.1c0-13-10.5-23.5-23.5-23.5h-123.8c-13,0-23.5,10.5-23.5,23.5v7.3c0,9.7-7.9,17.6-17.6,17.6h-49.8c-9.7,0-17.6-7.9-17.6-17.6Z"/>
  <circle class="b" cx="654.1" cy="537.1" r="44.9"/>
  <line class="c" x1="624.1" y1="616.8" x2="684.1" y2="616.8"/>
  <path class="b" d="M737.6,452.3h13.7c6.4,0,11.6,5.2,11.6,11.6v68.4c0,6.4-5.2,11.6-11.6,11.6h-13.7"/>
  <line class="b" x1="412.3" y1="394.2" x2="412.3" y2="527.3"/>
  <line class="c" x1="371.8" y1="559.3" x2="371.8" y2="587.1"/>
  <line class="c" x1="439.1" y1="366.1" x2="439.1" y2="389.1"/>
  <line class="c" x1="669.8" y1="366.1" x2="669.8" y2="389.1"/>
  <path class="c" d="M584.4,574.4h-221.4c-6.9,0-13.4,3.2-17.6,8.6l-23.3,29.6"/>
</svg>