<svg width="1513" height="1514" viewBox="0 0 1513 1514" fill="none" xmlns="http://www.w3.org/2000/svg">
<g clip-path="url(#clip0_414_26078)">
<path d="M171.948 790.67C154.206 790.67 139.822 776.286 139.822 758.518V692.111H83.44C77.1069 692.111 66.005 674.933 66.7229 667.805L67.0562 296.234C68.8766 258.8 118.233 207.495 155.231 207.495H241.124V79.3217H183.435C180.615 79.3217 169.615 70.8606 167.154 67.3993C155.923 51.477 160.257 29.0679 177.666 19.735L907.808 18.9915C927.936 25.504 934.704 50.4001 922.731 67.3993C920.295 70.8606 909.27 79.3217 906.45 79.3217H784.661V207.52H921.833C962.677 207.52 1015.42 260.21 1015.42 301.105V345.975H1114.13L1117.98 342.129V39.1699C1117.98 21.017 1132.69 6.2998 1150.85 6.2998H1452.7C1470.81 6.2998 1485.5 20.9401 1485.57 39.0417L1487.29 478.122C1487.39 494.249 1478.24 508.249 1462.7 512.505H1142.51C1097.11 505.454 1129.13 435.047 1114.16 407.536H1015.44V524.197C1015.44 525.504 1011.96 540.247 1011.14 542.965C1001.37 575.809 968.933 604.064 933.397 599.834V892.127H1488.5C1493.11 892.127 1504.29 905.947 1505.03 911.485C1502.06 955.047 1509.42 1004.58 1505.29 1047.38C1504.32 1057.5 1497.65 1074.17 1485.93 1074.17H1424.4L1420.42 1083.01L1419.35 1484.48C1414.89 1498.04 1404.81 1503.38 1391.07 1504.92C1327.4 1512.04 1251 1499.58 1185.95 1504.92C1173.85 1506.69 1156.46 1488.12 1156.46 1477.99V1289.54H356.477V1477.99C356.477 1490.81 339.709 1503.86 327.12 1505.04C261.431 1511.12 186.255 1500.45 119.541 1504.71C107.311 1505.07 92.3882 1488.87 92.3882 1478.02V1074.19H24.443C15.3409 1074.19 8.41813 1055.48 7.64894 1047.4C3.6235 1005.38 10.8026 956.841 7.90534 914.074C7.6233 908.485 20.4432 892.152 24.443 892.152H869.272V599.859H361.605V662.344C361.605 678.009 348.888 690.727 333.222 690.727H289.224V816.284C289.224 820.284 288.507 824.284 286.891 827.951C280.763 841.745 267.764 848.411 255.124 847.026C240.329 845.411 229.458 832.284 229.304 817.413L227.92 696.393L224.074 692.547L205.203 692.188L204.075 759.159C203.767 776.697 189.486 790.747 171.948 790.747V790.67ZM361.605 79.3217H302.634V207.52H361.605V79.3217ZM482.112 79.3217H423.141V207.52H482.112V79.3217ZM602.619 79.3217H543.647V207.52H602.619V79.3217ZM723.125 79.3217H664.154V207.52H723.125V79.3217ZM1423.09 79.3217H1176.95V451.098H1423.09V79.3217ZM951.319 538.273V293.413C951.319 284.927 933.448 272.645 924.474 271.543C873.118 265.338 796.686 271.876 742.253 271.722C547.416 271.209 349.811 270.415 154.385 273.363C141.975 275.235 130.156 292.337 128.284 303.669V633.14H300.07V575.194C300.07 554.093 317.197 536.991 338.299 537.042L951.319 538.299V538.273ZM1446.17 953.636H66.7485V1012.61H1446.17V953.636ZM292.378 1074.14H156.488V1440.79H292.378V1074.14ZM1156.44 1074.14H356.477V1227.98H1156.44V1074.14ZM1358.99 1440.79V1077.99L1355.14 1074.14H1220.54V1440.79H1358.99Z" fill="white" stroke="black" stroke-width="12.8199" stroke-miterlimit="10"/>
<path d="M812.017 600.049H752.327L750.789 892.342H812.017V600.049Z" fill="white" stroke="black" stroke-width="12.8199" stroke-miterlimit="10"/>
</g>
<defs>
<clipPath id="clip0_414_26078">
<rect width="1513" height="1513.69" fill="white"/>
</clipPath>
</defs>
</svg>
