<svg width="96" height="96" viewBox="0 0 96 96" fill="none" xmlns="http://www.w3.org/2000/svg">
<path d="M94.0334 68.1026C93.2977 66.9523 92.7398 65.6975 92.3784 64.3806C91.5784 61.2326 94.4014 60.4976 94.4014 55.8406C94.4014 51.1836 92.4014 50.7946 92.4014 47.1106C92.4014 43.3546 94.4014 43.1436 94.4014 38.3806C94.4014 33.6566 92.4014 33.4096 92.4014 29.6606C92.4014 25.9116 94.4014 25.6916 94.4014 20.9406C94.4014 16.2406 92.4014 15.9206 92.4014 12.2106C92.5076 10.9075 92.977 9.66033 93.7564 8.61064C94.7884 6.89464 96.3464 4.30364 93.5964 1.54564C90.8464 -1.21236 88.2474 0.356638 86.5294 1.38964C85.4765 2.16806 84.2267 2.63606 82.9214 2.74064C79.1214 2.74064 78.9664 0.740638 74.1914 0.740638C69.4914 0.740638 69.1754 2.74064 65.4614 2.74064C61.7664 2.74064 61.4254 0.740638 56.7314 0.740638C52.0124 0.740638 51.7524 2.74064 48.0104 2.74064C44.2464 2.74064 44.0414 0.740638 39.2914 0.740638C34.5734 0.740638 34.3114 2.74064 30.5714 2.74064C29.2629 2.63588 28.0103 2.1653 26.9564 1.38264C25.2424 0.351638 22.6494 -1.20536 19.9044 1.54364C17.1594 4.29264 18.7044 6.89564 19.7384 8.61464C20.5167 9.66704 20.9853 10.916 21.0914 12.2206C21.1286 13.4856 20.8386 14.7387 20.2494 15.8586C19.7201 16.9077 19.3658 18.0363 19.2004 19.1996C15.8754 19.6446 15.5674 21.0906 12.2114 21.0906C10.9063 20.9848 9.65683 20.5158 8.60443 19.7366C6.88843 18.7076 4.29343 17.1456 1.54243 19.9056C-1.20857 22.6656 0.354426 25.2516 1.38543 26.9656C2.16633 28.0203 2.63609 29.2726 2.74143 30.5806C2.74143 34.2746 0.741427 34.6166 0.741427 39.3106C0.741427 44.0286 2.74143 44.2906 2.74143 48.0306C2.74143 51.7306 0.741427 52.0676 0.741427 56.7606C0.741427 61.4786 2.74143 61.7406 2.74143 65.4806C2.74143 69.1806 0.741427 69.5236 0.741427 74.2106C0.741427 78.9286 2.74143 79.1906 2.74143 82.9306C2.63578 84.2368 2.166 85.4871 1.38543 86.5396C0.354426 88.2546 -1.20357 90.8496 1.54643 93.5996C4.29643 96.3496 6.89543 94.7876 8.61343 93.7546C9.66619 92.9755 10.916 92.5065 12.2214 92.4006C16.0064 92.4006 16.1944 94.4006 20.9514 94.4006C25.6424 94.4006 25.9664 92.4006 29.6814 92.4006C33.4464 92.4006 33.6514 94.4006 38.4014 94.4006C43.1214 94.4006 43.4074 92.4006 47.1314 92.4006C50.8554 92.4006 51.1314 94.4006 55.8514 94.4006C60.5714 94.4006 60.8314 92.4006 64.5714 92.4006C65.8772 92.5058 67.1272 92.9753 68.1794 93.7556C69.2843 94.5482 70.5834 95.0264 71.9384 95.1396C72.5646 95.1217 73.1805 94.9756 73.7481 94.7104C74.3157 94.4452 74.8229 94.0665 75.2384 93.5976C78.1504 90.6856 76.7814 88.3406 75.6814 86.4566C74.8744 85.0716 73.8264 83.0816 73.8724 81.4756C73.9264 79.6216 75.3824 78.7816 75.8974 75.9466C77.0813 75.7855 78.2302 75.4289 79.2974 74.8916C80.416 74.3028 81.6679 74.0131 82.9314 74.0506C84.2342 74.1567 85.4813 74.6254 86.5314 75.4036C87.636 76.1944 88.9337 76.6719 90.2874 76.7856C90.9155 76.7673 91.5331 76.6204 92.1022 76.3542C92.6713 76.088 93.1798 75.708 93.5964 75.2376C96.5054 72.3326 95.1344 69.9866 94.0334 68.1026ZM72.7634 91.1236C72.0394 91.8456 71.8744 91.8926 69.9834 90.7556C68.3943 89.6317 66.5159 88.9878 64.5714 88.9006C59.8904 88.9006 59.5474 90.9006 55.8514 90.9006C52.1304 90.9006 51.8514 88.9006 47.1314 88.9006C42.4394 88.9006 42.1224 90.9006 38.4014 90.9006C34.6804 90.9006 34.4014 88.9006 29.6814 88.9006C24.9814 88.9006 24.6654 90.9006 20.9514 90.9006C17.1954 90.9006 16.9844 88.9006 12.2214 88.9006C10.2777 88.9876 8.39991 89.6311 6.81143 90.7546C4.91143 91.8966 4.74543 91.8446 4.01843 91.1236C3.29143 90.4026 3.24843 90.2356 4.38543 88.3416C5.51043 86.7534 6.15473 84.875 6.24143 82.9306C6.24143 78.2496 4.24143 77.9066 4.24143 74.2106C4.24143 70.4416 6.24143 70.2106 6.24143 65.4806C6.24143 60.7996 4.24143 60.4566 4.24143 56.7606C4.24143 52.9606 6.24143 52.8056 6.24143 48.0306C6.24143 43.3496 4.24143 43.0066 4.24143 39.3106C4.24143 35.5156 6.24143 35.3556 6.24143 30.5806C6.15508 28.6343 5.51081 26.7539 4.38543 25.1636C3.24743 23.2686 3.29643 23.1036 4.02043 22.3766C4.35143 22.0446 4.56643 21.8536 4.88343 21.8536C5.58133 22.0015 6.23734 22.3035 6.80343 22.7376C8.39149 23.8604 10.2685 24.5035 12.2114 24.5906C16.8624 24.5906 17.2004 22.6156 20.9314 22.5906C24.7164 22.5906 24.9044 24.5906 29.6614 24.5906C34.3424 24.5906 34.6854 22.5906 38.3814 22.5906C42.1814 22.5906 42.3364 24.5906 47.1114 24.5906C51.7924 24.5906 52.1354 22.5906 55.8314 22.5906C59.6314 22.5906 59.7864 24.5906 64.5614 24.5906C66.5063 24.5039 68.3853 23.8608 69.9754 22.7376C71.8674 21.6006 72.0344 21.6486 72.7654 22.3796C73.4964 23.1106 73.5404 23.2686 72.4034 25.1636C71.2812 26.7515 70.6384 28.6282 70.5514 30.5706C70.5514 35.2516 72.5514 35.5946 72.5514 39.2906C72.5514 43.0116 70.5514 43.2906 70.5514 48.0106C70.5514 52.7026 72.5514 53.0196 72.5514 56.7406C72.5514 60.4616 70.5514 60.7406 70.5514 65.4606C70.5514 70.1136 72.5734 70.5236 72.5514 74.2806C72.5334 77.3326 70.3374 78.1906 70.3514 81.5416C70.5395 83.9266 71.331 86.2246 72.6514 88.2196C73.7254 90.0506 73.7674 90.1196 72.7634 91.1236ZM91.1244 72.7626C90.3934 73.4916 90.2244 73.5396 88.3364 72.4036C86.7496 71.2807 84.8734 70.6375 82.9314 70.5506C81.165 70.5107 79.4162 70.9093 77.8414 71.7106C77.2347 72.015 76.5934 72.2446 75.9314 72.3946C75.4684 69.0756 74.0514 68.8216 74.0514 65.4606C74.0514 61.7406 76.0514 61.4606 76.0514 56.7406C76.0514 52.0206 74.0514 51.7346 74.0514 48.0106C74.0514 44.2866 76.0514 44.0106 76.0514 39.2906C76.0514 34.5706 74.0514 34.3106 74.0514 30.5706C74.1569 29.2659 74.6256 28.0167 75.4044 26.9646C76.4354 25.2506 77.9914 22.6506 75.2384 19.9036C72.4854 17.1566 69.8914 18.7036 68.1744 19.7366C67.1202 20.5165 65.8686 20.9856 64.5614 21.0906C60.8674 21.0906 60.5254 19.0906 55.8314 19.0906C51.1134 19.0906 50.8514 21.0906 47.1114 21.0906C43.4164 21.0906 43.0744 19.0906 38.3814 19.0906C33.6634 19.0906 33.4014 21.0906 29.6614 21.0906C26.3234 21.0906 26.0444 19.6776 22.7484 19.2116C22.8991 18.5554 23.1277 17.9196 23.4294 17.3176C24.2327 15.7399 24.632 13.9876 24.5914 12.2176C24.5044 10.2755 23.8617 8.39914 22.7394 6.81164C21.5994 4.91164 21.6494 4.74464 22.3794 4.01164C23.1094 3.27864 23.2644 3.24364 25.1524 4.37664C26.7423 5.50543 28.6236 6.15254 30.5714 6.24064C35.2524 6.24064 35.5954 4.24064 39.2914 4.24064C43.0104 4.24064 43.2914 6.24064 48.0104 6.24064C52.6914 6.24064 53.0314 4.24064 56.7314 4.24064C60.5314 4.24064 60.6864 6.24064 65.4614 6.24064C70.1524 6.24064 70.4764 4.24064 74.1914 4.24064C77.8864 4.24064 78.2274 6.24064 82.9214 6.24064C84.8652 6.15337 86.743 5.5095 88.3314 4.38564C90.2314 3.24664 90.3954 3.29364 91.1224 4.01564C91.8494 4.73764 91.8954 4.90964 90.7574 6.80164C89.6325 8.38918 88.9882 10.2669 88.9014 12.2106C88.9014 16.9026 90.9014 17.2196 90.9014 20.9406C90.9014 24.6616 88.9014 24.9406 88.9014 29.6606C88.9014 34.3806 90.9014 34.6316 90.9014 38.3806C90.9014 42.1656 88.9014 42.3536 88.9014 47.1106C88.9014 51.7926 90.9014 52.1326 90.9014 55.8406C90.9014 59.5486 87.7274 60.2646 88.9844 65.2406C89.4224 66.8781 90.1058 68.4398 91.0114 69.8726C92.0794 71.6956 92.1204 71.7666 91.1244 72.7626Z" fill="white"/>
<path d="M64.0957 79.7696C63.797 79.7697 63.5033 79.8462 63.2425 79.9918C62.9817 80.1375 62.7625 80.3474 62.6057 80.6016H60.0957C59.6316 80.6016 59.1864 80.786 58.8583 81.1142C58.5301 81.4424 58.3457 81.8875 58.3457 82.3516C58.3457 82.8158 58.5301 83.2609 58.8583 83.5891C59.1864 83.9173 59.6316 84.1016 60.0957 84.1016H64.0957C64.3256 84.1018 64.5532 84.0566 64.7655 83.9687C64.9779 83.8808 65.1709 83.7519 65.3334 83.5894C65.496 83.4268 65.6249 83.2339 65.7128 83.0215C65.8007 82.8091 65.8458 82.5815 65.8457 82.3516V81.5196C65.8458 81.2898 65.8007 81.0622 65.7128 80.8498C65.6249 80.6374 65.496 80.4444 65.3334 80.2819C65.1709 80.1194 64.9779 79.9905 64.7655 79.9026C64.5532 79.8147 64.3256 79.7695 64.0957 79.7696Z" fill="white"/>
<path d="M64.0957 67.7696C63.6316 67.7696 63.1864 67.954 62.8583 68.2822C62.5301 68.6104 62.3457 69.0555 62.3457 69.5196V73.5196C62.3457 73.9838 62.5301 74.4289 62.8583 74.7571C63.1864 75.0853 63.6316 75.2696 64.0957 75.2696C64.5598 75.2696 65.0049 75.0853 65.3331 74.7571C65.6613 74.4289 65.8457 73.9838 65.8457 73.5196V69.5196C65.8458 69.2898 65.8007 69.0622 65.7128 68.8498C65.6249 68.6374 65.496 68.4444 65.3334 68.2819C65.1709 68.1194 64.9779 67.9905 64.7655 67.9026C64.5532 67.8147 64.3256 67.7695 64.0957 67.7696Z" fill="white"/>
<path d="M64.0957 55.7696C63.6316 55.7696 63.1864 55.954 62.8583 56.2822C62.5301 56.6104 62.3457 57.0555 62.3457 57.5196V61.5196C62.3457 61.9838 62.5301 62.4289 62.8583 62.7571C63.1864 63.0853 63.6316 63.2696 64.0957 63.2696C64.5598 63.2696 65.0049 63.0853 65.3331 62.7571C65.6613 62.4289 65.8457 61.9838 65.8457 61.5196V57.5196C65.8458 57.2898 65.8007 57.0622 65.7128 56.8498C65.6249 56.6374 65.496 56.4444 65.3334 56.2819C65.1709 56.1194 64.9779 55.9905 64.7655 55.9026C64.5532 55.8147 64.3256 55.7695 64.0957 55.7696Z" fill="white"/>
<path d="M12.8906 51.3096C13.1205 51.3098 13.3481 51.2646 13.5605 51.1767C13.7729 51.0888 13.9658 50.9599 14.1284 50.7974C14.2909 50.6348 14.4198 50.4419 14.5077 50.2295C14.5956 50.0171 14.6408 49.7895 14.6406 49.5596V45.5596C14.6406 45.0955 14.4563 44.6504 14.1281 44.3222C13.7999 43.994 13.3548 43.8096 12.8906 43.8096C12.4265 43.8096 11.9814 43.994 11.6532 44.3222C11.325 44.6504 11.1406 45.0955 11.1406 45.5596V49.5596C11.1406 50.0238 11.325 50.4689 11.6532 50.7971C11.9814 51.1253 12.4265 51.3096 12.8906 51.3096Z" fill="white"/>
<path d="M60.2227 31.1436C60.2228 30.9138 60.1776 30.6862 60.0897 30.4738C60.0018 30.2614 59.8729 30.0684 59.7104 29.9059C59.5479 29.7434 59.3549 29.6145 59.1425 29.5266C58.9301 29.4387 58.7025 29.3935 58.4727 29.3936H54.4727C54.0085 29.3936 53.5634 29.578 53.2352 29.9062C52.907 30.2344 52.7227 30.6795 52.7227 31.1436C52.7227 31.6078 52.907 32.0529 53.2352 32.3811C53.5634 32.7093 54.0085 32.8936 54.4727 32.8936H58.4727C58.7025 32.8938 58.9301 32.8486 59.1425 32.7607C59.3549 32.6728 59.5479 32.5439 59.7104 32.3814C59.8729 32.2188 60.0018 32.0259 60.0897 31.8135C60.1776 31.6011 60.2228 31.3735 60.2227 31.1436Z" fill="white"/>
<path d="M64.0957 31.7696C63.6316 31.7696 63.1864 31.954 62.8583 32.2822C62.5301 32.6104 62.3457 33.0555 62.3457 33.5196V37.5196C62.3457 37.9838 62.5301 38.4289 62.8583 38.7571C63.1864 39.0853 63.6316 39.2696 64.0957 39.2696C64.5598 39.2696 65.0049 39.0853 65.3331 38.7571C65.6613 38.4289 65.8457 37.9838 65.8457 37.5196V33.5196C65.8458 33.2898 65.8007 33.0622 65.7128 32.8498C65.6249 32.6374 65.496 32.4444 65.3334 32.2819C65.1709 32.1194 64.9779 31.9905 64.7655 31.9026C64.5532 31.8147 64.3256 31.7695 64.0957 31.7696Z" fill="white"/>
<path d="M48.2227 31.1436C48.2228 30.9138 48.1776 30.6862 48.0897 30.4738C48.0018 30.2614 47.8729 30.0684 47.7104 29.9059C47.5479 29.7434 47.3549 29.6145 47.1425 29.5266C46.9301 29.4387 46.7025 29.3935 46.4727 29.3936H42.4727C42.0085 29.3936 41.5634 29.578 41.2352 29.9062C40.907 30.2344 40.7227 30.6795 40.7227 31.1436C40.7227 31.6078 40.907 32.0529 41.2352 32.3811C41.5634 32.7093 42.0085 32.8936 42.4727 32.8936H46.4727C46.7025 32.8938 46.9301 32.8486 47.1425 32.7607C47.3549 32.6728 47.5479 32.5439 47.7104 32.3814C47.8729 32.2188 48.0018 32.0259 48.0897 31.8135C48.1776 31.6011 48.2228 31.3735 48.2227 31.1436Z" fill="white"/>
<path d="M52.0957 80.6016H48.0957C47.6316 80.6016 47.1865 80.786 46.8583 81.1142C46.5301 81.4424 46.3457 81.8875 46.3457 82.3516C46.3457 82.8158 46.5301 83.2609 46.8583 83.5891C47.1865 83.9173 47.6316 84.1016 48.0957 84.1016H52.0957C52.5598 84.1016 53.005 83.9173 53.3331 83.5891C53.6613 83.2609 53.8457 82.8158 53.8457 82.3516C53.8457 81.8875 53.6613 81.4424 53.3331 81.1142C53.005 80.786 52.5598 80.6016 52.0957 80.6016Z" fill="white"/>
<path d="M64.0957 43.7696C63.6316 43.7696 63.1864 43.954 62.8583 44.2822C62.5301 44.6104 62.3457 45.0555 62.3457 45.5196V49.5196C62.3457 49.9838 62.5301 50.4289 62.8583 50.7571C63.1864 51.0853 63.6316 51.2696 64.0957 51.2696C64.5598 51.2696 65.0049 51.0853 65.3331 50.7571C65.6613 50.4289 65.8457 49.9838 65.8457 49.5196V45.5196C65.8458 45.2898 65.8007 45.0622 65.7128 44.8498C65.6249 44.6374 65.496 44.4444 65.3334 44.2819C65.1709 44.1194 64.9779 43.9905 64.7655 43.9026C64.5532 43.8147 64.3256 43.7695 64.0957 43.7696Z" fill="white"/>
<path d="M12.8906 75.3096C13.1205 75.3098 13.3481 75.2646 13.5605 75.1767C13.7729 75.0888 13.9658 74.9599 14.1284 74.7974C14.2909 74.6348 14.4198 74.4419 14.5077 74.2295C14.5956 74.0171 14.6408 73.7895 14.6406 73.5596V69.5596C14.6406 69.0955 14.4563 68.6504 14.1281 68.3222C13.7999 67.994 13.3548 67.8096 12.8906 67.8096C12.4265 67.8096 11.9814 67.994 11.6532 68.3222C11.325 68.6504 11.1406 69.0955 11.1406 69.5596V73.5596C11.1406 74.0238 11.325 74.4689 11.6532 74.7971C11.9814 75.1253 12.4265 75.3096 12.8906 75.3096Z" fill="white"/>
<path d="M12.8906 39.3096C13.1205 39.3098 13.3481 39.2646 13.5605 39.1767C13.7729 39.0888 13.9658 38.9599 14.1284 38.7974C14.2909 38.6348 14.4198 38.4419 14.5077 38.2295C14.5956 38.0171 14.6408 37.7895 14.6406 37.5596V33.5596C14.6406 33.0955 14.4563 32.6504 14.1281 32.3222C13.7999 31.994 13.3548 31.8096 12.8906 31.8096C12.4265 31.8096 11.9814 31.994 11.6532 32.3222C11.325 32.6504 11.1406 33.0955 11.1406 33.5596V37.5596C11.1406 38.0238 11.325 38.4689 11.6532 38.7971C11.9814 39.1253 12.4265 39.3096 12.8906 39.3096Z" fill="white"/>
<path d="M12.8906 63.3096C13.1205 63.3098 13.3481 63.2646 13.5605 63.1767C13.7729 63.0888 13.9658 62.9599 14.1284 62.7974C14.2909 62.6348 14.4198 62.4419 14.5077 62.2295C14.5956 62.0171 14.6408 61.7895 14.6406 61.5596V57.5596C14.6406 57.0955 14.4563 56.6504 14.1281 56.3222C13.7999 55.994 13.3548 55.8096 12.8906 55.8096C12.4265 55.8096 11.9814 55.994 11.6532 56.3222C11.325 56.6504 11.1406 57.0955 11.1406 57.5596V61.5596C11.1406 62.0238 11.325 62.4689 11.6532 62.7971C11.9814 63.1253 12.4265 63.3096 12.8906 63.3096Z" fill="white"/>
<path d="M16.0967 80.6016H14.3537C14.1474 80.286 13.8448 80.0454 13.4907 79.9157C13.1367 79.786 12.7503 79.7741 12.3889 79.8817C12.0276 79.9894 11.7107 80.2109 11.4854 80.5132C11.2601 80.8156 11.1385 81.1826 11.1387 81.5596V82.3506C11.1387 82.8148 11.323 83.2599 11.6512 83.5881C11.9794 83.9163 12.4245 84.1006 12.8887 84.1006H16.0967C16.5608 84.1006 17.0059 83.9163 17.3341 83.5881C17.6623 83.2599 17.8467 82.8148 17.8467 82.3506C17.8467 81.8865 17.6623 81.4414 17.3341 81.1132C17.0059 80.785 16.5608 80.6016 16.0967 80.6016Z" fill="white"/>
<path d="M28.0957 80.6016H24.0957C23.6316 80.6016 23.1865 80.786 22.8583 81.1142C22.5301 81.4424 22.3457 81.8875 22.3457 82.3516C22.3457 82.8158 22.5301 83.2609 22.8583 83.5891C23.1865 83.9173 23.6316 84.1016 24.0957 84.1016H28.0957C28.5598 84.1016 29.005 83.9173 29.3331 83.5891C29.6613 83.2609 29.8457 82.8158 29.8457 82.3516C29.8457 81.8875 29.6613 81.4424 29.3331 81.1142C29.005 80.786 28.5598 80.6016 28.0957 80.6016Z" fill="white"/>
<path d="M36.2227 31.1436C36.2228 30.9138 36.1776 30.6862 36.0897 30.4738C36.0018 30.2614 35.8729 30.0684 35.7104 29.9059C35.5479 29.7434 35.3549 29.6145 35.1425 29.5266C34.9301 29.4387 34.7025 29.3935 34.4727 29.3936H30.4727C30.0085 29.3936 29.5634 29.578 29.2352 29.9062C28.907 30.2344 28.7227 30.6795 28.7227 31.1436C28.7227 31.6078 28.907 32.0529 29.2352 32.3811C29.5634 32.7093 30.0085 32.8936 30.4727 32.8936H34.4727C34.7025 32.8938 34.9301 32.8486 35.1425 32.7607C35.3549 32.6728 35.5479 32.5439 35.7104 32.3814C35.8729 32.2188 36.0018 32.0259 36.0897 31.8135C36.1776 31.6011 36.2228 31.3735 36.2227 31.1436Z" fill="white"/>
<path d="M24.2227 31.1436C24.2228 30.9138 24.1776 30.6862 24.0897 30.4738C24.0018 30.2614 23.8729 30.0684 23.7104 29.9059C23.5479 29.7434 23.3549 29.6145 23.1425 29.5266C22.9301 29.4387 22.7025 29.3935 22.4727 29.3936H18.4727C18.0085 29.3936 17.5634 29.578 17.2352 29.9062C16.907 30.2344 16.7227 30.6795 16.7227 31.1436C16.7227 31.6078 16.907 32.0529 17.2352 32.3811C17.5634 32.7093 18.0085 32.8936 18.4727 32.8936H22.4727C22.7025 32.8938 22.9301 32.8486 23.1425 32.7607C23.3549 32.6728 23.5479 32.5439 23.7104 32.3814C23.8729 32.2188 24.0018 32.0259 24.0897 31.8135C24.1776 31.6011 24.2228 31.3735 24.2227 31.1436Z" fill="white"/>
<path d="M40.0957 80.6016H36.0957C35.6316 80.6016 35.1865 80.786 34.8583 81.1142C34.5301 81.4424 34.3457 81.8875 34.3457 82.3516C34.3457 82.8158 34.5301 83.2609 34.8583 83.5891C35.1865 83.9173 35.6316 84.1016 36.0957 84.1016H40.0957C40.5598 84.1016 41.005 83.9173 41.3331 83.5891C41.6613 83.2609 41.8457 82.8158 41.8457 82.3516C41.8457 81.8875 41.6613 81.4424 41.3331 81.1142C41.005 80.786 40.5598 80.6016 40.0957 80.6016Z" fill="white"/>
<path d="M82.4512 55.8326C82.2213 55.8325 81.9937 55.8777 81.7813 55.9656C81.5689 56.0535 81.376 56.1824 81.2134 56.3449C81.0509 56.5074 80.922 56.7004 80.8341 56.9128C80.7462 57.1252 80.701 57.3528 80.7012 57.5826V61.5826C80.7012 62.0468 80.8855 62.4919 81.2137 62.8201C81.5419 63.1483 81.987 63.3326 82.4512 63.3326C82.9153 63.3326 83.3604 63.1483 83.6886 62.8201C84.0168 62.4919 84.2012 62.0468 84.2012 61.5826V57.5826C84.2013 57.3528 84.1561 57.1252 84.0682 56.9128C83.9803 56.7004 83.8514 56.5074 83.6889 56.3449C83.5264 56.1824 83.3334 56.0535 83.121 55.9656C82.9086 55.8777 82.681 55.8325 82.4512 55.8326Z" fill="white"/>
<path d="M82.4512 31.8326C82.2213 31.8325 81.9937 31.8777 81.7813 31.9656C81.5689 32.0535 81.376 32.1824 81.2134 32.3449C81.0509 32.5074 80.922 32.7004 80.8341 32.9128C80.7462 33.1252 80.701 33.3528 80.7012 33.5826V37.5826C80.7012 38.0468 80.8855 38.4919 81.2137 38.8201C81.5419 39.1483 81.987 39.3326 82.4512 39.3326C82.9153 39.3326 83.3604 39.1483 83.6886 38.8201C84.0168 38.4919 84.2012 38.0468 84.2012 37.5826V33.5826C84.2013 33.3528 84.1561 33.1252 84.0682 32.9128C83.9803 32.7004 83.8514 32.5074 83.6889 32.3449C83.5264 32.1824 83.3334 32.0535 83.121 31.9656C82.9086 31.8777 82.681 31.8325 82.4512 31.8326Z" fill="white"/>
<path d="M35.2441 11.0396H31.2441C30.78 11.0396 30.3349 11.224 30.0067 11.5522C29.6785 11.8804 29.4941 12.3255 29.4941 12.7896C29.4941 13.2538 29.6785 13.6989 30.0067 14.0271C30.3349 14.3553 30.78 14.5396 31.2441 14.5396H35.2441C35.7083 14.5396 36.1534 14.3553 36.4816 14.0271C36.8098 13.6989 36.9941 13.2538 36.9941 12.7896C36.9941 12.3255 36.8098 11.8804 36.4816 11.5522C36.1534 11.224 35.7083 11.0396 35.2441 11.0396Z" fill="white"/>
<path d="M82.4511 11.0396H79.2441C78.78 11.0396 78.3349 11.224 78.0067 11.5522C77.6785 11.8804 77.4941 12.3255 77.4941 12.7896C77.4941 13.2538 77.6785 13.6989 78.0067 14.0271C78.3349 14.3553 78.78 14.5396 79.2441 14.5396H80.9851C81.1916 14.855 81.4942 15.0953 81.8481 15.2248C82.202 15.3544 82.5883 15.3664 82.9496 15.2589C83.3108 15.1514 83.6277 14.9302 83.8532 14.6282C84.0787 14.3262 84.2007 13.9595 84.2011 13.5826V12.7896C84.2013 12.5598 84.1561 12.3322 84.0682 12.1198C83.9803 11.9074 83.8514 11.7144 83.6889 11.5519C83.5263 11.3894 83.3334 11.2605 83.121 11.1726C82.9086 11.0847 82.681 11.0395 82.4511 11.0396Z" fill="white"/>
<path d="M82.4512 43.8326C82.2213 43.8325 81.9937 43.8777 81.7813 43.9656C81.5689 44.0535 81.376 44.1824 81.2134 44.3449C81.0509 44.5074 80.922 44.7004 80.8341 44.9128C80.7462 45.1252 80.701 45.3528 80.7012 45.5826V49.5826C80.7012 50.0468 80.8855 50.4919 81.2137 50.8201C81.5419 51.1483 81.987 51.3326 82.4512 51.3326C82.9153 51.3326 83.3604 51.1483 83.6886 50.8201C84.0168 50.4919 84.2012 50.0468 84.2012 49.5826V45.5826C84.2013 45.3528 84.1561 45.1252 84.0682 44.9128C83.9803 44.7004 83.8514 44.5074 83.6889 44.3449C83.5264 44.1824 83.3334 44.0535 83.121 43.9656C82.9086 43.8777 82.681 43.8325 82.4512 43.8326Z" fill="white"/>
<path d="M82.4512 19.8326C82.2213 19.8325 81.9937 19.8777 81.7813 19.9656C81.5689 20.0535 81.376 20.1824 81.2134 20.3449C81.0509 20.5074 80.922 20.7004 80.8341 20.9128C80.7462 21.1252 80.701 21.3528 80.7012 21.5826V25.5826C80.7012 26.0468 80.8855 26.4919 81.2137 26.8201C81.5419 27.1483 81.987 27.3326 82.4512 27.3326C82.9153 27.3326 83.3604 27.1483 83.6886 26.8201C84.0168 26.4919 84.2012 26.0468 84.2012 25.5826V21.5826C84.2013 21.3528 84.1561 21.1252 84.0682 20.9128C83.9803 20.7004 83.8514 20.5074 83.6889 20.3449C83.5264 20.1824 83.3334 20.0535 83.121 19.9656C82.9086 19.8777 82.681 19.8325 82.4512 19.8326Z" fill="white"/>
<path d="M47.2441 11.0396H43.2441C42.78 11.0396 42.3349 11.224 42.0067 11.5522C41.6785 11.8804 41.4941 12.3255 41.4941 12.7896C41.4941 13.2538 41.6785 13.6989 42.0067 14.0271C42.3349 14.3553 42.78 14.5396 43.2441 14.5396H47.2441C47.7083 14.5396 48.1534 14.3553 48.4816 14.0271C48.8098 13.6989 48.9941 13.2538 48.9941 12.7896C48.9941 12.3255 48.8098 11.8804 48.4816 11.5522C48.1534 11.224 47.7083 11.0396 47.2441 11.0396Z" fill="white"/>
<path d="M71.2441 11.0396H67.2441C66.78 11.0396 66.3349 11.224 66.0067 11.5522C65.6785 11.8804 65.4941 12.3255 65.4941 12.7896C65.4941 13.2538 65.6785 13.6989 66.0067 14.0271C66.3349 14.3553 66.78 14.5396 67.2441 14.5396H71.2441C71.7083 14.5396 72.1534 14.3553 72.4816 14.0271C72.8098 13.6989 72.9941 13.2538 72.9941 12.7896C72.9941 12.3255 72.8098 11.8804 72.4816 11.5522C72.1534 11.224 71.7083 11.0396 71.2441 11.0396Z" fill="white"/>
<path d="M59.2441 11.0396H55.2441C54.78 11.0396 54.3349 11.224 54.0067 11.5522C53.6785 11.8804 53.4941 12.3255 53.4941 12.7896C53.4941 13.2538 53.6785 13.6989 54.0067 14.0271C54.3349 14.3553 54.78 14.5396 55.2441 14.5396H59.2441C59.7083 14.5396 60.1534 14.3553 60.4816 14.0271C60.8098 13.6989 60.9941 13.2538 60.9941 12.7896C60.9941 12.3255 60.8098 11.8804 60.4816 11.5522C60.1534 11.224 59.7083 11.0396 59.2441 11.0396Z" fill="white"/>
</svg>
