<svg width="1513" height="1514" viewBox="0 0 1513 1514" fill="none" xmlns="http://www.w3.org/2000/svg">
<path d="M1484.68 983.515H1368.69C1365.64 949.679 1350.05 918.205 1324.99 895.274C1299.92 872.343 1267.19 859.611 1233.22 859.578H1185.08V677.436C1185.08 669.925 1182.09 662.722 1176.78 657.412C1171.47 652.101 1164.27 649.117 1156.76 649.117H1033.66C1026.15 649.117 1018.95 652.101 1013.64 657.412C1008.33 662.722 1005.34 669.925 1005.34 677.436V859.578H978.191V417.814C978.191 307.003 934.171 200.73 855.816 122.375C777.46 44.0196 671.188 0 560.376 0C449.565 0 343.292 44.0196 264.937 122.375C186.581 200.73 142.562 307.003 142.562 417.814V1097.35C98.1977 1133.14 62.3786 1178.37 37.7157 1229.76C13.0528 1281.15 0.16774 1337.39 0 1394.39L0 1485.65C0 1493.16 2.98352 1500.37 8.29421 1505.68C13.6049 1510.99 20.8077 1513.97 28.3182 1513.97H1340.99C1348.5 1513.97 1355.7 1510.99 1361.01 1505.68C1366.32 1500.37 1369.31 1493.16 1369.31 1485.65V1262.17H1484.68C1492.19 1262.17 1499.4 1259.18 1504.71 1253.87C1510.02 1248.56 1513 1241.36 1513 1233.85V1011.83C1513 1004.32 1510.02 997.12 1504.71 991.809C1499.4 986.498 1492.19 983.515 1484.68 983.515ZM1061.98 705.754H1128.44V859.481H1061.98V705.754ZM560.344 56.6364C656.106 56.7391 747.917 94.8237 815.633 162.535C883.35 230.245 921.443 322.053 921.555 417.814V859.578H792.553C840.822 807.996 867.825 740.085 868.155 669.442V439.336C868.163 396.265 852.763 354.612 824.739 321.905C820.235 316.471 813.864 312.914 806.875 311.932C799.885 310.95 792.781 312.614 786.954 316.597C729.234 356.081 628.211 386.179 516.718 396.908C440.911 405.231 364.27 401.721 289.541 386.503C285.797 385.638 281.915 385.544 278.134 386.227C274.352 386.909 270.748 388.354 267.542 390.473C264.336 392.592 261.595 395.342 259.485 398.554C257.375 401.766 255.94 405.373 255.268 409.157C253.508 419.121 252.615 429.218 252.598 439.336V669.442C253.226 722.913 268.746 775.15 297.416 820.29C326.086 865.43 366.77 901.685 414.902 924.985V1013.31H381.082C317.523 1013.2 254.965 1029.13 199.198 1059.62V417.814C199.305 322.057 237.392 230.252 305.103 162.541C372.814 94.8304 464.619 56.7434 560.376 56.6364H560.344ZM533.191 901.926C411.002 889.401 310.691 793.621 309.413 672.225C309.154 652.435 309.299 507.462 309.251 448.091C379.721 458.863 451.276 460.608 522.187 453.285C629.198 442.913 728.619 415.258 795.255 377.975C805.915 396.669 811.52 417.817 811.518 439.336C811.518 525.828 811.664 653.842 811.356 672.209C810.504 709.703 800.431 746.411 782.027 779.09C763.623 811.768 737.456 839.411 705.835 859.578H631.738C613.3 859.593 595.057 863.354 578.116 870.634C561.176 877.913 545.892 888.559 533.191 901.926ZM471.538 947.445C481.555 950.342 491.765 952.591 502.073 954.484C497.813 967.765 495.629 981.623 495.601 995.57V1037.27L471.49 1024.55L471.538 947.445ZM381.082 1069.94H436.44C455.338 1081.16 475.143 1090.77 495.649 1098.68V1289.85C495.666 1305.51 501.894 1320.53 512.967 1331.6C524.04 1342.67 539.053 1348.9 554.713 1348.92H606.155V1412.37C606.155 1419.88 609.138 1427.08 614.449 1432.39C619.76 1437.7 626.962 1440.68 634.473 1440.68C641.983 1440.68 649.186 1437.7 654.497 1432.39C659.808 1427.08 662.791 1419.88 662.791 1412.37V1348.92H714.265C729.925 1348.9 744.938 1342.67 756.011 1331.6C767.084 1320.53 773.312 1305.51 773.329 1289.85V1181.11C773.338 1171.74 777.052 1162.76 783.661 1156.12C790.27 1149.48 799.237 1145.72 808.605 1145.67H962.333C971.707 1145.7 980.687 1149.45 987.301 1156.1C993.915 1162.74 997.622 1171.74 997.609 1181.11V1457.33H412.377C410.212 1429.82 400.835 1403.37 385.192 1380.63L444.676 1320.13C447.284 1317.47 449.342 1314.33 450.735 1310.88C452.127 1307.42 452.826 1303.73 452.792 1300.01C452.757 1296.29 451.99 1292.61 450.533 1289.18C449.077 1285.76 446.96 1282.65 444.304 1280.05C441.648 1277.44 438.504 1275.38 435.052 1273.99C431.6 1272.6 427.908 1271.9 424.186 1271.93C420.464 1271.97 416.785 1272.73 413.36 1274.19C409.934 1275.65 406.829 1277.76 404.222 1280.42L345.207 1340.44C326.604 1327.42 305.398 1318.58 283.052 1314.55V1210.61C283.052 1203.1 280.069 1195.9 274.758 1190.59C269.447 1185.28 262.245 1182.29 254.734 1182.29C247.224 1182.29 240.021 1185.28 234.71 1190.59C229.4 1195.9 226.416 1203.1 226.416 1210.61V1314.51C199.837 1319.31 174.935 1330.86 154.099 1348.04L76.4267 1282.04C99.4564 1219.79 141.001 1166.1 195.469 1128.18C249.937 1090.26 314.714 1069.93 381.082 1069.94ZM254.864 1368.46C279.408 1368.49 303.114 1377.4 321.611 1393.53C340.108 1409.66 352.149 1431.94 355.515 1456.25H154.132C157.499 1431.92 169.552 1409.64 188.066 1393.5C206.58 1377.37 230.306 1368.47 254.864 1368.46ZM56.7011 1394.35C56.7188 1376.39 58.2017 1358.46 61.1349 1340.74L117.771 1391.36C106.124 1411.54 99.1249 1434.07 97.2851 1457.3H56.6364L56.7011 1394.35ZM1054.31 1457.3V1181.11C1054.31 1156.72 1044.63 1133.33 1027.39 1116.07C1010.16 1098.8 986.788 1089.08 962.397 1089.04H808.136C783.839 1089.25 760.606 1099.03 743.484 1116.27C726.362 1133.51 716.734 1156.81 716.693 1181.11V1289.85C716.695 1290.17 716.634 1290.49 716.512 1290.78C716.391 1291.08 716.212 1291.35 715.987 1291.57C715.761 1291.8 715.492 1291.98 715.197 1292.1C714.901 1292.22 714.585 1292.28 714.265 1292.28H554.713C554.069 1292.28 553.452 1292.02 552.996 1291.57C552.541 1291.11 552.285 1290.5 552.285 1289.85V995.505C552.328 974.461 560.718 954.294 575.614 939.428C590.509 924.563 610.694 916.214 631.738 916.214H1233.22C1254.26 916.219 1274.44 924.569 1289.34 939.433C1304.23 954.297 1312.62 974.462 1312.67 995.505C1312.67 989.858 1312.67 1072.3 1312.67 1457.33L1054.31 1457.3ZM1456.43 1205.5H1369.37V1040.15H1456.43V1205.5Z" fill="white"/>
<path d="M1181.15 976.237C1160.96 976.237 1141.22 982.226 1124.42 993.446C1107.63 1004.67 1094.55 1020.61 1086.82 1039.27C1079.09 1057.93 1077.07 1078.46 1081.01 1098.27C1084.95 1118.08 1094.68 1136.27 1108.96 1150.55C1123.24 1164.83 1141.44 1174.55 1161.24 1178.49C1181.05 1182.43 1201.58 1180.41 1220.24 1172.67C1238.9 1164.94 1254.84 1151.85 1266.06 1135.06C1277.28 1118.27 1283.26 1098.52 1283.26 1078.33C1283.23 1051.26 1272.46 1025.31 1253.32 1006.17C1234.17 987.032 1208.22 976.267 1181.15 976.237ZM1181.15 1123.8C1172.16 1123.8 1163.37 1121.13 1155.89 1116.14C1148.41 1111.14 1142.59 1104.04 1139.14 1095.73C1135.7 1087.42 1134.8 1078.28 1136.56 1069.46C1138.31 1060.64 1142.64 1052.53 1149 1046.18C1155.36 1039.82 1163.46 1035.49 1172.28 1033.73C1181.1 1031.98 1190.25 1032.88 1198.56 1036.32C1206.86 1039.76 1213.97 1045.59 1218.96 1053.07C1223.96 1060.54 1226.63 1069.33 1226.63 1078.33C1226.61 1090.38 1221.82 1101.94 1213.29 1110.47C1204.77 1118.99 1193.21 1123.79 1181.15 1123.8Z" fill="white"/>
</svg>
