<?xml version="1.0" encoding="UTF-8"?>
<svg id="a" data-name="图层 1" xmlns="http://www.w3.org/2000/svg" width="1080" height="1080" viewBox="0 0 1080 1080">
  <defs>
    <style>
      .b {
        stroke-width: 8px;
      }

      .b, .c {
        fill: none;
        stroke: #fff;
        stroke-linecap: round;
        stroke-linejoin: round;
      }

      .c {
        stroke-width: 10px;
      }
    </style>
  </defs>
  <path class="c" d="M698,578.1h35.1c11.8,0,21.4,9.6,21.4,21.4v41c0,11.8-9.6,21.4-21.4,21.4h-35.1v-83.8h0Z"/>
  <line class="c" x1="374.4" y1="538.3" x2="374.4" y2="581.4"/>
  <path class="c" d="M697.8,404.5h17.9c5.8,0,10.5,4.7,10.5,10.5v33c0,5.8-4.7,10.5-10.5,10.5h-17.9v-54.1h0Z"/>
  <path class="c" d="M697.8,660.6v-268.3c0-6.8-5.5-12.2-12.2-12.2h-336.4c-6.8,0-12.2,5.5-12.2,12.2v86.4h.1l7,48.1c.9,6,6,10.5,12.1,10.5h33.6c6.1,0,11.2-4.5,12.1-10.5l5.5-37.6c.9-6,6-10.5,12.1-10.5h108c6.8,0,12.2,5.5,12.2,12.2v87.7c0,6.8-5.5,12.2-12.2,12.2h-190.5c-6.8,0-12.2,5.5-12.2,12.2v45.8c0,6.8,5.5,12.2,12.2,12.2h89.1"/>
  <path class="c" d="M426.1,661.3v48.6c0,6.8,5.5,12.2,12.2,12.2h247.2c6.8,0,12.2-5.5,12.2-12.2v-49.3"/>
  <g>
    <g>
      <circle class="b" cx="583.5" cy="435.5" r="12.5"/>
      <circle class="b" cx="649.3" cy="570.4" r="12.5"/>
      <circle class="b" cx="632.8" cy="536.7" r="12.5"/>
      <circle class="b" cx="616.4" cy="503" r="12.5"/>
      <circle class="b" cx="599.9" cy="469.2" r="12.5"/>
    </g>
    <rect class="b" x="509" y="480" width="214.8" height="46" transform="translate(798.3 -271.5) rotate(64)"/>
  </g>
  <line class="c" x1="377.2" y1="378.7" x2="377.2" y2="357.1"/>
  <polyline class="c" points="633.2 378.9 637 357.2 658.8 357.2 662.6 378.5"/>
  <polyline class="b" points="667.9 596.1 674.3 608.5 633.2 628.5 528 412 569.1 392 574.5 403.1"/>
  <line class="c" x1="698" y1="661.3" x2="426.1" y2="661.3"/>
  <line class="b" x1="553" y1="399.1" x2="543.5" y2="378.8"/>
  <path class="c" d="M331.6,592l29.4-15.1c1.8-.9,3.9-1.4,5.9-1.4h172.7"/>
  <line class="c" x1="360.9" y1="382.2" x2="360.9" y2="536.9"/>
  <circle class="c" cx="660.6" cy="420" r="8.2"/>
  <rect class="c" x="457.6" y="409.6" width="42.3" height="30.5"/>
  <polyline class="c" points="419.2 410.4 419.2 423.7 454.4 429.9"/>
</svg>