<svg width="1169" height="780" viewBox="0 0 1169 780" fill="none" xmlns="http://www.w3.org/2000/svg">
<path d="M1168.37 623.381L1104.54 151.396C1101.64 130.301 1091.21 110.964 1075.18 96.9512C1059.14 82.9381 1038.59 75.1929 1017.29 75.1432H637.576C607.302 75.1715 577.086 77.7854 547.257 82.9564V50.6988C547.241 37.2578 541.895 24.3719 532.391 14.8676C522.887 5.36344 510.001 0.0171066 496.56 0.00146484H420.614C407.173 0.0171066 394.287 5.36344 384.783 14.8676C375.279 24.3719 369.932 37.2578 369.917 50.6988V147.531C258.114 212.366 173.849 315.812 132.967 438.417L76.4183 607.069C55.8772 607.955 36.4691 616.729 22.2345 631.564C7.99988 646.4 0.0356986 666.154 0 686.714L0 699.882C0.025026 721.045 8.44292 741.334 23.4071 756.298C38.3714 771.262 58.66 779.68 79.8226 779.705H1089.01C1110.17 779.677 1130.45 771.258 1145.41 756.294C1160.38 741.33 1168.79 721.043 1168.82 699.882V627.589C1168.79 627.01 1168.43 623.96 1168.37 623.381ZM411.288 50.6988C411.288 48.2253 412.27 45.8532 414.019 44.1041C415.768 42.3551 418.141 41.3726 420.614 41.3726H496.56C499.033 41.3726 501.405 42.3551 503.154 44.1041C504.903 45.8532 505.886 48.2253 505.886 50.6988V91.6798C473.381 100.036 441.724 111.397 411.323 125.616L411.288 50.6988ZM172.187 451.549C204.811 353.945 267.306 269.073 350.827 208.946C434.348 148.82 534.664 116.483 637.576 116.514H1017.34C1028.62 116.535 1039.52 120.636 1048.02 128.062C1056.52 135.487 1062.05 145.736 1063.58 156.916L1124.38 606.904H120.118L172.187 451.549ZM1127.42 699.882C1127.41 710.071 1123.36 719.841 1116.16 727.049C1108.96 734.257 1099.19 738.315 1089.01 738.334H79.8226C69.6275 738.324 59.8527 734.27 52.6436 727.061C45.4346 719.852 41.3805 710.077 41.3711 699.882V686.714C41.3836 676.521 45.4392 666.75 52.6478 659.543C59.8565 652.337 69.6295 648.284 79.8226 648.275H1127.42V699.882Z" fill="white"/>
<path d="M975.405 264.284C973.086 246.942 964.561 231.027 951.408 219.489C938.254 207.951 921.365 201.57 903.868 201.53H661.552C526.8 201.53 411.67 301.53 381.623 444.733L376.659 468.374C376.028 471.385 376.076 474.499 376.801 477.49C377.525 480.48 378.908 483.271 380.848 485.659C382.788 488.047 385.236 489.973 388.014 491.295C390.792 492.617 393.83 493.303 396.907 493.303H923.23C933.499 493.299 943.648 491.105 953.001 486.865C962.354 482.626 970.694 476.44 977.465 468.72C984.236 461 989.282 451.924 992.266 442.099C995.249 432.273 996.102 421.924 994.766 411.743L975.405 264.284ZM605.074 451.932V401.554H804.129V451.932H605.074ZM923.23 451.932H845.5V380.904C845.5 375.417 843.32 370.156 839.441 366.277C835.562 362.397 830.3 360.218 824.814 360.218H584.389C578.904 360.221 573.644 362.402 569.765 366.28C565.887 370.159 563.706 375.418 563.703 380.904V451.967H422.332C448.727 328.788 546.918 242.901 661.505 242.901H903.821C911.284 242.918 918.488 245.638 924.099 250.559C929.711 255.479 933.349 262.266 934.341 269.663L953.691 417.145C954.268 421.484 953.912 425.897 952.646 430.088C951.379 434.279 949.232 438.151 946.348 441.445C943.464 444.739 939.909 447.378 935.922 449.187C931.935 450.995 927.608 451.931 923.23 451.932Z" fill="white"/>
</svg>
