<?xml version="1.0" encoding="UTF-8"?>
<svg id="a" data-name="图层 1" xmlns="http://www.w3.org/2000/svg" width="1080" height="1080" viewBox="0 0 1080 1080">
  <defs>
    <style>
      .b {
        fill: none;
        stroke: #fff;
        stroke-linecap: round;
        stroke-linejoin: round;
        stroke-width: 10px;
      }
    </style>
  </defs>
  <path class="b" d="M697,655.8h-376c-7.9,0-15.1-4.4-18.8-11.4l-12.5-24h438.4l-12.5,24c-3.6,7-10.9,11.4-18.8,11.4Z"/>
  <path class="b" d="M309.9,425.7v129.9c0,7.7,6.2,13.9,13.9,13.9h40.3c5.5,0,10.4-3.2,12.7-8.2l27.4-61.1c1.6-3.5,5-5.7,8.9-5.7h175.8c5.4,0,9.7,4.4,9.7,9.7v115.4h130.5v-28.2l22.1-10.4c10.8-5.1,17.7-16,17.7-27.9v-127.9c0-4.9-4-8.9-8.9-8.8-58.8.4-381.6,2.4-441.1.6-5-.1-9.1,3.8-9.1,8.8Z"/>
  <path class="b" d="M771.4,435.5h6.4c6.5,0,11.7,5.3,11.7,11.7v50.1c0,6.5-5.3,11.7-11.7,11.7h-6.4"/>
  <g>
    <line class="b" x1="342.5" y1="685.2" x2="342.5" y2="659.4"/>
    <line class="b" x1="675.5" y1="685.2" x2="675.5" y2="659.4"/>
  </g>
  <line class="b" x1="728.7" y1="418.1" x2="728.7" y2="591.4"/>
  <rect class="b" x="628.5" y="461.6" width="72.4" height="114.2"/>
  <line class="b" x1="342.9" y1="571" x2="342.9" y2="605.7"/>
  <polyline class="b" points="353.6 415.7 356.1 394.1 371.2 394.1 373.7 415.3"/>
  <path class="b" d="M290.4,619.2l15-15.6c4.1-4.3,9.9-6.8,15.8-6.8h276.1"/>
</svg>