<?xml version="1.0" encoding="UTF-8"?>
<svg id="a" data-name="图层 1" xmlns="http://www.w3.org/2000/svg" width="1080" height="1080" viewBox="0 0 1080 1080">
  <defs>
    <style>
      .b {
        fill: none;
        stroke: #fff;
        stroke-linecap: round;
        stroke-linejoin: round;
        stroke-width: 10px;
      }
    </style>
  </defs>
  <g>
    <path class="b" d="M316.6,543.6v114.3c0,7.9,6.4,14.2,14.2,14.2h389c7.9,0,14.2-6.4,14.2-14.2v-262.1c0-7.9-6.4-14.2-14.2-14.2h-312.4c-11.3,0-20.4,9.1-20.4,20.4v66c0,11.3,9.1,20.4,20.4,20.4h115.8c3.5,0,6.4,2.9,6.4,6.4v34c0,3.5-2.8,6.4-6.3,6.4-31.2.5-168.7,2.5-200.3,1.9-3.6,0-6.5,2.8-6.5,6.4Z"/>
    <path class="b" d="M353.6,674.1v40.4c0,3.4,2.7,6.1,6.1,6.1h331.3c3.4,0,6.1-2.7,6.1-6.1v-42.3"/>
    <path class="b" d="M734,528.5h21.7c3.6,0,6.5,2.9,6.5,6.5v77.3c0,3.6-2.9,6.5-6.5,6.5h-18.2"/>
    <circle class="b" cx="489.9" cy="419.5" r="17.5"/>
    <circle class="b" cx="647.2" cy="419.5" r="17.5"/>
    <circle class="b" cx="594.8" cy="419.5" r="17.5"/>
    <circle class="b" cx="542.3" cy="419.5" r="17.5"/>
    <rect class="b" x="608.6" y="470.5" width="89.8" height="124" rx="8.3" ry="8.3"/>
    <path class="b" d="M318.3,537.7l20.5-22c3.5-3.3,8.2-5.2,13-5.2h174.8"/>
    <line class="b" x1="428" y1="488.4" x2="428" y2="524.7"/>
  </g>
  <path class="b" d="M498.9,378.1v-11.3c0-3.8,3.1-6.9,6.9-6.9h140.2c3.8,0,6.9,3.1,6.9,6.9v14.6"/>
  <polyline class="b" points="427.1 380.8 429.1 358.2 441.1 358.2 443.2 380.4"/>
</svg>