<svg width="1259" height="939" viewBox="0 0 1259 939" fill="none" xmlns="http://www.w3.org/2000/svg">
<path d="M1167.05 701.437L835.761 547.376C817.955 539.045 802.885 525.823 792.308 509.252C781.732 492.681 776.086 473.445 776.029 453.786C776 427.903 765.706 403.087 747.403 384.784C729.1 366.482 704.285 356.187 678.401 356.158H652.823V301.26C652.891 284.031 647.387 267.242 637.132 253.399C626.876 239.555 612.419 229.398 595.918 224.444L578.417 219.059C563.647 214.63 550.706 205.543 541.525 193.155C532.344 180.766 527.416 165.741 527.476 150.321C527.321 136.857 529.84 123.495 534.885 111.011C539.931 98.5264 547.403 87.1671 556.87 77.5909C566.336 68.0148 577.609 60.4123 590.034 55.2235C602.46 50.0348 615.792 47.363 629.257 47.363C642.723 47.363 656.054 50.0348 668.48 55.2235C680.906 60.4123 692.178 68.0148 701.645 77.5909C711.111 87.1671 718.584 98.5264 723.629 111.011C728.675 123.495 731.193 136.857 731.038 150.321C731.038 156.57 733.52 162.562 737.938 166.98C742.357 171.398 748.349 173.88 754.597 173.88C760.845 173.88 766.838 171.398 771.256 166.98C775.674 162.562 778.156 156.57 778.156 150.321C778.343 130.649 774.63 111.134 767.231 92.9043C759.832 74.675 748.894 58.0925 735.049 44.1152C721.204 30.1378 704.726 19.0426 686.568 11.4706C668.41 3.89861 648.931 0 629.257 0C609.583 0 590.105 3.89861 571.947 11.4706C553.789 19.0426 537.311 30.1378 523.466 44.1152C509.621 58.0925 498.683 74.675 491.284 92.9043C483.885 111.134 480.171 130.649 480.358 150.321C480.228 175.871 488.369 200.776 503.567 221.314C518.764 241.853 540.201 256.921 564.672 264.265L582.173 269.65C588.989 271.702 594.959 275.9 599.195 281.621C603.43 287.341 605.705 294.277 605.678 301.394V356.293H580.1C554.254 356.343 529.479 366.629 511.198 384.9C492.916 403.171 482.617 427.94 482.553 453.786C482.51 473.441 476.876 492.678 466.309 509.25C455.741 525.822 440.677 539.045 422.875 547.376L91.543 701.437C64.2282 714.224 41.1158 734.519 24.9058 759.952C8.69581 785.385 0.0574884 814.906 0 845.065L0 915.446C0.00303433 919.404 1.00277 923.298 2.90698 926.768C4.8112 930.238 7.55861 933.173 10.8958 935.301C14.2329 937.43 18.0523 938.684 22.0018 938.948C25.9512 939.211 29.9034 938.476 33.494 936.81L503.338 718.265C542.781 699.876 585.772 690.347 629.291 690.347C672.81 690.347 715.8 699.876 755.243 718.265L1225.16 936.81C1228.75 938.476 1232.7 939.211 1236.65 938.948C1240.6 938.684 1244.42 937.43 1247.75 935.301C1251.09 933.173 1253.84 930.238 1255.74 926.768C1257.65 923.298 1258.65 919.404 1258.65 915.446V845.065C1258.58 814.901 1249.94 785.377 1233.72 759.944C1217.5 734.511 1194.38 714.219 1167.05 701.437ZM1211.48 878.506L775.127 675.549C729.46 654.258 679.684 643.225 629.298 643.225C578.911 643.225 529.136 654.258 483.468 675.549L47.0504 878.506V845.065C47.0799 823.862 53.1476 803.106 64.5435 785.225C75.9394 767.344 92.1921 753.079 111.4 744.099L442.691 590.051C468.63 577.938 490.584 558.691 505.986 534.561C521.389 510.43 529.604 482.414 529.671 453.786C529.685 440.395 535.011 427.555 544.48 418.086C553.95 408.617 566.789 403.29 580.181 403.276H678.455C691.837 403.305 704.663 408.637 714.12 418.105C723.578 427.573 728.897 440.404 728.911 453.786C728.977 482.412 737.189 510.428 752.59 534.558C767.99 558.688 789.941 577.936 815.877 590.051L1147.18 744.126C1166.39 753.106 1182.64 767.371 1194.04 785.252C1205.43 803.133 1211.5 823.889 1211.53 845.092L1211.48 878.506Z" fill="white"/>
</svg>
