<svg width="953" height="1053" viewBox="0 0 953 1053" fill="none" xmlns="http://www.w3.org/2000/svg">
<path d="M952.411 503.787C952.411 462.707 933.611 459.037 933.611 429.79C933.611 400.812 952.411 396.748 952.411 355.702C952.632 338.375 948.054 321.324 939.183 306.438C937.553 303.149 935.037 300.38 931.918 298.445C928.799 296.51 925.202 295.484 921.531 295.484H462.527V220.09C462.489 189.647 450.378 160.463 428.852 138.936C407.325 117.41 378.14 105.299 347.698 105.261H324.113V47.5417C324.101 34.9385 319.089 22.8547 310.179 13.9418C301.268 5.0289 289.185 0.0149024 276.582 0L185.979 0C173.38 0.0208592 161.303 5.03749 152.397 13.9497C143.491 22.862 138.483 34.9424 138.471 47.5417V105.261H114.83C99.7472 105.25 84.8105 108.213 70.874 113.98C56.9376 119.747 44.2747 128.205 33.6097 138.87C22.9448 149.535 14.4869 162.198 8.7198 176.135C2.95274 190.071 -0.0103344 205.008 2.70806e-05 220.09C2.70806e-05 221.216 2.70806e-05 874.169 2.70806e-05 875.982C0.041769 906.439 12.1656 935.636 33.7108 957.164C55.256 978.693 84.4623 990.794 114.92 990.812H138.392V1004.5C138.419 1017.28 143.515 1029.53 152.561 1038.55C161.607 1047.58 173.865 1052.64 186.643 1052.64H275.997C288.759 1052.62 300.995 1047.55 310.019 1038.52C319.044 1029.5 324.12 1017.26 324.135 1004.5V990.812H929.423C933.566 990.815 937.605 989.511 940.965 987.085C944.324 984.66 946.833 981.236 948.133 977.302C951.121 967.838 952.565 957.955 952.411 948.032C952.411 906.952 933.611 903.282 933.611 874.034C933.611 845.057 952.411 840.992 952.411 799.947C952.411 758.901 933.611 755.197 933.611 725.949C933.611 697.095 952.411 693.009 952.411 651.963C952.411 610.917 933.611 606.796 933.611 577.965C933.611 549.134 952.411 544.878 952.411 503.787ZM177.873 47.5417C177.873 45.383 178.731 43.3128 180.257 41.7863C181.784 40.2599 183.854 39.4024 186.013 39.4024H276.616C278.773 39.4053 280.84 40.2642 282.364 41.7903C283.888 43.3164 284.744 45.385 284.744 47.5417V105.261H177.873V47.5417ZM114.83 144.663H347.675C367.671 144.69 386.841 152.645 400.981 166.785C415.12 180.924 423.076 200.094 423.102 220.09V789.623C402.254 771.287 375.44 761.174 347.675 761.175H114.92C87.1486 761.13 60.3086 771.185 39.4024 789.466V220.09C39.392 210.182 41.3359 200.369 45.1228 191.213C48.9097 182.057 54.4653 173.738 61.4714 166.732C68.4775 159.726 76.7967 154.17 85.9527 150.383C95.1086 146.596 104.922 144.653 114.83 144.663ZM284.688 1004.5C284.685 1006.82 283.763 1009.04 282.126 1010.68C280.488 1012.31 278.268 1013.23 275.952 1013.24H186.643C184.312 1013.25 182.072 1012.34 180.413 1010.7C178.754 1009.06 177.813 1006.83 177.795 1004.5V895.672H284.744V1004.47L284.688 1004.5ZM304.389 856.303H158.037C152.812 856.303 147.801 858.379 144.106 862.073C140.412 865.768 138.336 870.779 138.336 876.004V951.432H114.92C94.939 951.429 75.7734 943.509 61.6195 929.405C47.4656 915.302 39.4768 896.165 39.4024 876.184V875.971V875.295C39.5304 855.383 47.5479 836.335 61.6974 822.324C75.8469 808.314 94.974 800.485 114.886 800.554H347.72C367.725 800.554 386.91 808.501 401.055 822.647C415.201 836.792 423.147 855.977 423.147 875.982C423.147 895.986 415.201 915.172 401.055 929.317C386.91 943.462 367.725 951.409 347.72 951.409H324.079V875.982C324.079 870.765 322.011 865.762 318.329 862.067C314.647 858.372 309.65 856.287 304.434 856.269L304.389 856.303ZM913.009 503.787C913.009 532.697 894.208 536.93 894.208 577.875C894.208 618.82 913.009 622.625 913.009 651.872C913.009 680.636 894.208 685.027 894.208 725.859C894.208 766.691 913.009 771.025 913.009 799.857C913.009 828.688 894.208 832.999 894.208 873.944C894.208 917.365 914.281 917.974 912.941 951.364H434.169C452.465 930.498 462.545 903.688 462.527 875.937V334.92H909.226C911.981 341.502 913.271 348.605 913.009 355.736C913.009 384.646 894.208 388.879 894.208 429.823C894.208 470.768 913.009 475.001 913.009 503.787Z" fill="white"/>
</svg>
