<svg width="1524" height="1764" viewBox="0 0 1524 1764" fill="none" xmlns="http://www.w3.org/2000/svg">
<path d="M462.135 720.688L784.238 552.508L809.644 547.836L1069.5 202.072C1070.73 198.302 1068.64 199.806 1067.22 198.803C1045.4 183.623 1022.5 175.462 1010.59 149.193C998.017 121.481 1003.65 99.9245 1015.24 73.6558C1082.28 -78.3417 1194.97 63.3288 1284.13 106.281C1309.75 123.426 1319.28 153.645 1313.48 183.403C1309.93 201.671 1280.38 250.478 1266.1 262.329C1219.28 301.231 1170.39 268.385 1129.94 239.429L875.376 581.043L988.251 692.454L1189.04 492.05C1205.82 481.021 1221.54 485.433 1236.2 497.063C1249.29 507.45 1302.85 560.269 1310.86 572.801C1322.29 590.708 1316.77 620.265 1302.39 635.505L781.691 1155.53C767.694 1162.1 752.455 1162.2 739.08 1154.6C727.509 1148.05 670.781 1091.64 661.637 1079.67C649.225 1063.4 649.144 1038.66 659.812 1021.6L754.941 925.223H629.613L462.175 1013.45V1466.64H766.973V1420.52H599.535C591.273 1420.52 575.351 1404.54 574.589 1395.33C577.256 1354.12 570.579 1307.62 574.389 1267.06C575.772 1252.18 582.189 1246.12 595.043 1239.61L1469.33 1238.54C1482.08 1242.21 1492.81 1251.54 1494.68 1265.33C1498.17 1291.02 1497.56 1362.99 1494.96 1389.58C1494.28 1396.56 1490.79 1405.44 1485.93 1410.63C1483.43 1413.32 1470.45 1420.56 1467.79 1420.56H1298.34C1297.8 1422.02 1300.35 1422.96 1300.35 1423.57V1466.68H1457.76C1477.39 1466.68 1505.97 1496.2 1512.44 1514.26C1518.66 1531.57 1519.42 1592.45 1515.99 1611.16C1509.35 1647.57 1468.59 1674.68 1432.67 1671.21C1436.28 1713.42 1407.65 1751.77 1364.96 1756.9C1342.8 1759.57 1304.2 1759.38 1283.78 1750.96C1252.32 1737.97 1236.9 1706.15 1237.02 1673.2H283.668C287.539 1707.07 268.529 1741.36 236.104 1752.99C213.585 1761.07 153.869 1760.13 131.911 1749.82C102.595 1736.06 88.6383 1704.44 90.3026 1673.12C87.9565 1669.73 75.8649 1671.8 70.5911 1670.77C3.43542 1657.7 1.45023 1587.58 6.96465 1531.91C10.2533 1498.68 38.0259 1473 69.2275 1465.5L69.0069 671.56C71.8744 632.056 100.108 603.101 138.489 596.664C219.36 601.476 309.155 589.505 389.004 596.383C419.203 598.99 462.115 631.595 462.115 663.639V720.788L462.135 720.688ZM1097.24 71.3698C1092.1 72.9139 1062.67 115.866 1071.61 124.268L1208.65 211.777C1213.64 214.163 1218.47 214.364 1223.29 211.476C1225.27 210.273 1247.85 175.683 1248.75 172.615C1250.08 168.143 1249.55 165.456 1247.09 161.325L1107.76 72.0717C1104.46 70.5076 1100.73 70.3271 1097.24 71.3698ZM726.828 1051.51C734.267 1051.95 759.252 1083.6 761.919 1083.6L1243.3 598.388L1211.09 566.324L726.828 1051.51ZM462.135 935.249C474.528 930.657 486.559 924.361 498.27 918.245C531.416 900.94 591.032 859.692 625.482 856.965L823.661 856.624L939.223 739.999L814.076 614.952L462.135 801.901V935.249ZM395.962 1466.64L393.576 671.941C392.232 667.449 385.415 664.581 380.983 664.481C307.31 669.574 224.875 657.864 152.245 664.441C146.51 664.962 135.3 668.953 135.3 675.57V1466.64H395.962ZM1428.66 1304.21H636.591V1350.34H1428.66V1304.21ZM1232.15 1420.52H835.111V1466.64H1232.15V1420.52ZM1448.25 1537.28L1435.78 1534.72L75.9451 1536.62C74.2005 1537.99 73.5789 1539.79 73.1778 1541.88C72.1151 1547.53 72.5362 1595.62 74.1203 1598.97C76.0253 1602.98 83.6452 1605.42 88.0568 1605.08L1437.73 1605.02C1443.3 1604.68 1449.54 1601.93 1450.68 1595.92C1452.33 1587.25 1451.62 1557.6 1450.8 1547.75C1450.5 1544.08 1450.52 1540.39 1448.25 1537.28ZM219.501 1673.18H155.333C154.972 1678.23 154.932 1688.98 160.667 1690.91C164.497 1692.19 213.124 1691.67 215.51 1690.26C219.841 1687.72 219.761 1677.83 219.501 1673.18ZM1366.5 1673.18H1302.33C1302.33 1679.11 1300.53 1688.7 1307.75 1690.83C1311.98 1692.07 1356.9 1692.05 1361.09 1690.83C1368.31 1688.72 1366.48 1679.11 1366.5 1673.18Z" fill="white" stroke="black" stroke-width="10.0262" stroke-miterlimit="10"/>
</svg>
