<svg width="1096" height="1096" viewBox="0 0 1096 1096" fill="none" xmlns="http://www.w3.org/2000/svg">
<path d="M936.082 80.2744H383.555V52.8643C383.539 38.8488 377.965 25.4118 368.054 15.5014C358.144 5.59097 344.707 0.0164855 330.691 0.000976562H275.004C260.987 0.0164795 247.549 5.59059 237.637 15.5007C227.725 25.4108 222.148 38.8477 222.129 52.8643V80.2744H159.621C117.312 80.324 76.7498 97.1491 46.8274 127.06C16.9051 156.972 0.0651235 197.528 0 239.837L0 566.79C0.0186145 582.768 6.37478 598.086 17.6738 609.382C28.9728 620.679 44.2918 627.032 60.2695 627.048H74.0625V652.056C74.0811 666.296 79.7471 679.948 89.8176 690.016C99.8881 700.084 113.541 705.747 127.781 705.763H142.688V776.626C142.688 782.065 144.848 787.281 148.694 791.127C152.54 794.973 157.756 797.134 163.195 797.134C168.634 797.134 173.851 794.973 177.697 791.127C181.542 787.281 183.703 782.065 183.703 776.626V705.751H198.633C212.872 705.736 226.524 700.072 236.592 690.003C246.661 679.935 252.324 666.283 252.34 652.044V627.036H266.133C282.104 627.011 297.414 620.654 308.706 609.358C319.997 598.062 326.349 582.75 326.367 566.778V479.263C326.386 462.91 332.889 447.232 344.451 435.668C356.014 424.103 371.69 417.597 388.043 417.575H586.43C602.783 417.597 618.459 424.103 630.021 435.668C641.583 447.232 648.087 462.91 648.106 479.263V852.118H20.5078C15.0698 852.121 9.85531 854.283 6.01003 858.128C2.16474 861.974 0.0031048 867.188 0 872.626L0 978.587C0.0186278 1009.64 12.3637 1039.42 34.3234 1061.38C56.2831 1083.34 86.0615 1095.69 117.117 1095.7H978.586C1009.64 1095.69 1039.42 1083.34 1061.38 1061.38C1083.34 1039.42 1095.68 1009.64 1095.7 978.587V239.837C1095.64 197.528 1078.8 156.972 1048.88 127.06C1018.95 97.1491 978.391 80.324 936.082 80.2744ZM263.145 52.8643C263.151 49.7219 264.403 46.7103 266.626 44.4894C268.849 42.2686 271.862 41.0197 275.004 41.0166H330.691C333.833 41.0197 336.844 42.2689 339.066 44.4901C341.287 46.7113 342.536 49.723 342.539 52.8643V80.2744H263.145V52.8643ZM41.0156 297.856H110.977C119.384 297.866 127.444 301.21 133.389 307.155C139.334 313.1 142.678 321.16 142.688 329.567V434.45C142.678 442.858 139.334 450.918 133.389 456.863C127.444 462.808 119.384 466.152 110.977 466.161H41.0156V297.856ZM211.313 652.044C211.309 655.407 209.973 658.632 207.596 661.011C205.219 663.39 201.996 664.729 198.633 664.735H127.781C124.415 664.732 121.188 663.395 118.806 661.015C116.425 658.636 115.084 655.41 115.078 652.044V627.036H211.313V652.044ZM586.43 376.56H388.078C360.845 376.584 334.734 387.412 315.475 406.667C296.216 425.921 285.383 452.03 285.352 479.263V566.778C285.345 571.882 283.314 576.774 279.705 580.382C276.095 583.99 271.201 586.018 266.098 586.021H60.2695C55.1661 586.018 50.2723 583.99 46.6625 580.382C43.0527 576.774 41.0218 571.882 41.0156 566.778V507.177H110.977C130.258 507.155 148.744 499.486 162.378 485.852C176.012 472.218 183.681 453.732 183.703 434.45V329.567C183.681 310.286 176.012 291.8 162.378 278.166C148.744 264.532 130.258 256.863 110.977 256.841H41.0156V239.837C41.0653 208.401 53.579 178.269 75.8127 156.046C98.0465 133.823 128.186 121.324 159.621 121.29H936.082C967.518 121.324 997.657 133.823 1019.89 156.046C1042.12 178.269 1054.64 208.401 1054.69 239.837V852.118H689.121V479.263C689.09 452.036 678.261 425.933 659.01 406.679C639.759 387.426 613.657 376.594 586.43 376.56ZM296.742 893.134V953.403H133.629V893.134H296.742ZM1054.69 978.587C1054.67 998.765 1046.65 1018.11 1032.38 1032.38C1018.11 1046.65 998.764 1054.67 978.586 1054.69H117.117C96.9395 1054.67 77.5936 1046.65 63.3258 1032.38C49.058 1018.11 41.0342 998.765 41.0156 978.587V893.134H92.5781V973.911C92.5812 979.349 94.7429 984.564 98.5882 988.409C102.433 992.254 107.648 994.416 113.086 994.419H317.25C322.689 994.419 327.905 992.258 331.751 988.412C335.597 984.566 337.758 979.35 337.758 973.911V893.134H1054.69V978.587Z" fill="white"/>
<path d="M869.125 462.465C892.02 462.467 914.402 455.68 933.44 442.962C952.478 430.244 967.316 412.166 976.08 391.014C984.843 369.862 987.137 346.587 982.672 324.131C978.206 301.675 967.183 281.048 950.994 264.858C934.805 248.668 914.179 237.642 891.724 233.174C869.269 228.707 845.993 230.999 824.841 239.76C803.688 248.521 785.609 263.358 772.888 282.394C760.168 301.431 753.379 323.812 753.379 346.707C753.413 377.395 765.618 406.817 787.317 428.518C809.016 450.219 838.437 462.428 869.125 462.465ZM869.125 271.977C883.909 271.974 898.361 276.356 910.654 284.568C922.947 292.78 932.529 304.453 938.187 318.111C943.846 331.769 945.327 346.798 942.443 361.297C939.56 375.797 932.441 389.116 921.987 399.57C911.534 410.023 898.215 417.142 883.715 420.025C869.216 422.909 854.187 421.428 840.529 415.769C826.871 410.111 815.198 400.529 806.986 388.236C798.774 375.943 794.392 361.491 794.395 346.707C794.419 326.895 802.301 307.901 816.31 293.892C830.319 279.883 849.313 272.001 869.125 271.977Z" fill="white"/>
<path d="M773.887 753.699H964.363C969.802 753.699 975.018 751.539 978.864 747.693C982.71 743.847 984.871 738.63 984.871 733.191C984.871 727.752 982.71 722.536 978.864 718.69C975.018 714.844 969.802 712.684 964.363 712.684H773.887C768.448 712.684 763.231 714.844 759.385 718.69C755.539 722.536 753.379 727.752 753.379 733.191C753.379 738.63 755.539 743.847 759.385 747.693C763.231 751.539 768.448 753.699 773.887 753.699Z" fill="white"/>
</svg>
