<?xml version="1.0" encoding="UTF-8"?>
<svg id="a" data-name="图层 1" xmlns="http://www.w3.org/2000/svg" width="1080" height="1080" viewBox="0 0 1080 1080">
  <defs>
    <style>
      .b {
        stroke-miterlimit: 10;
      }

      .b, .c {
        fill: none;
        stroke: #fff;
        stroke-width: 8px;
      }

      .c {
        stroke-linecap: round;
        stroke-linejoin: round;
      }
    </style>
  </defs>
  <circle class="c" cx="656.6" cy="517.6" r="11.1"/>
  <circle class="c" cx="411.7" cy="473.9" r="13.4"/>
  <path class="b" d="M319.5,409.2v120.7c0,1.9,1.5,3.4,3.4,3.4h50c2.3,0,4.4-1.2,5.6-3.1l16.1-26.2c2-3.3,5.6-5.3,9.5-5.3h170.5c15.6,0,27.9,13.2,26.9,28.8l-12.9,189.1c-.4,6,4.4,11.1,10.4,11.1h142.7c6.2,0,11-5.3,10.4-11.5l-30.4-296.6c-.5-4.6-4.3-8.1-8.9-8.1h-309.4c-5.4,0-10.5-2.4-13.9-6.6l-17.6-21.6c-1.9-2-4.5-3.1-7.2-3.1h-42.2c-.9,0-1.6.7-1.7,1.6l-1.1,27.4Z"/>
  <path class="b" d="M590.5,652l-261.5-17.5c-3.5-.2-6.1-3.1-6.1-6.6v-22.9h273.7"/>
  <polyline class="b" points="322.9 605.1 357.1 583.8 568.5 583.8 595.4 583.8"/>
  <path class="b" d="M722.8,432.6h10.6c7.1,0,12.8,5.8,12.8,12.8v61.4c0,7.1-5.8,12.8-12.8,12.8h-.6"/>
  <path class="b" d="M748.5,451.6h6.1c2.8,0,5,2.3,5,5v39.1c0,2.8-2.3,5-5,5h-7.3"/>
  <line class="b" x1="351.9" y1="534.3" x2="351.9" y2="595.8"/>
  <polyline class="b" points="402.2 583.5 367.6 605.8 367.6 638.2"/>
  <polyline class="c" points="334.2 379.1 335.7 351.7 344.2 351.7 345.7 378.6"/>
  <polyline class="c" points="353.1 383.3 353.1 464.3 368.9 464.3 368.9 383.2"/>
  <polyline class="c" points="458.1 459.4 458.1 424.2 414.5 424.2 414.5 460"/>
  <circle class="c" cx="461.5" cy="471.1" r="11.1"/>
  <line class="c" x1="425.3" y1="477.8" x2="450" y2="472"/>
  <polyline class="c" points="406.3 486.3 377.6 479.7 336.3 479.7 336.3 467 378.7 467 397 471.2"/>
  <path class="c" d="M665,526.6v43.6c0,2.6-2.1,4.7-4.7,4.7h-7.3c-2.6,0-4.7-2.1-4.7-4.7v-44.1"/>
  <path class="c" d="M648.3,506.7v-29.8c0-2.6,2.1-4.7,4.7-4.7h7.3c2.6,0,4.7,2.1,4.7,4.7v30.3"/>
  <polyline class="c" points="670.8 514.5 712.2 514.5 712.2 526.5 670.2 526.5"/>
  <path class="c" d="M598.8,727.6h-47.1c-2.2,0-4.1-1.4-4.8-3.6l-7.7-25.8c-.9-3.2,1.4-6.4,4.8-6.4h42.5"/>
</svg>