<svg width="94" height="87" viewBox="0 0 94 87" fill="none" xmlns="http://www.w3.org/2000/svg">
<path d="M92.4479 11.5422L72.7479 3.01922C72.6879 2.99422 72.6279 2.97122 72.5669 2.95222L63.1968 0.0772211C62.7802 -0.0350036 62.3382 -0.00724697 61.9389 0.156222C57.1411 2.21223 51.9673 3.24489 46.7479 3.18822C41.5304 3.24118 36.3589 2.20865 31.5619 0.156222C31.3372 0.0559934 31.0945 0.00286456 30.8485 0.000112674C30.6026 -0.00263921 30.3587 0.0450435 30.1319 0.140221L20.9479 2.95222C20.8859 2.97122 20.8249 2.99422 20.7649 3.01922L1.05485 11.5422C0.635939 11.7237 0.304484 12.0617 0.131134 12.484C-0.0422173 12.9064 -0.0437538 13.3798 0.126853 13.8032L7.46485 31.9952C7.61622 32.3654 7.88912 32.6731 8.23864 32.8676C8.58815 33.0621 8.99345 33.1318 9.38785 33.0652L18.5599 31.4652V85.1072C18.5601 85.5713 18.7446 86.0162 19.0727 86.3444C19.4008 86.6725 19.8458 86.857 20.3099 86.8572H73.2099C73.6739 86.857 74.1189 86.6725 74.447 86.3444C74.7751 86.0162 74.9596 85.5713 74.9599 85.1072V31.4692L84.1319 33.0692C84.5263 33.1346 84.9312 33.0643 85.2805 32.8697C85.6298 32.6752 85.9028 32.368 86.0549 31.9982L93.3729 13.8062C93.5448 13.3828 93.5443 12.9089 93.3715 12.4858C93.1986 12.0627 92.8671 11.7241 92.4479 11.5422ZM46.7479 6.68822C51.2417 6.7215 55.7115 6.02927 59.9849 4.63822C58.7759 7.11951 56.8939 9.21102 54.5535 10.6741C52.213 12.1373 49.5085 12.9131 46.7484 12.9131C43.9882 12.9131 41.2837 12.1373 38.9432 10.6741C36.6028 9.21102 34.7208 7.11951 33.5119 4.63822C37.7853 6.02719 42.2544 6.71937 46.7479 6.68822ZM83.3339 29.3732L73.5079 27.6642C73.2564 27.6206 72.9984 27.6326 72.752 27.6992C72.5056 27.7657 72.2768 27.8854 72.0815 28.0497C71.8862 28.2141 71.7292 28.4191 71.6215 28.6505C71.5137 28.8819 71.4579 29.134 71.4579 29.3892V83.3612H22.0579V29.3892C22.0576 29.134 22.0017 28.882 21.8939 28.6507C21.7861 28.4194 21.6291 28.2144 21.4339 28.0501C21.2386 27.8858 21.0098 27.7662 20.7635 27.6995C20.5172 27.6329 20.2593 27.6208 20.0079 27.6642L10.1799 29.3732L4.00985 14.0732L22.0629 6.27022L29.5329 3.98322C30.7002 7.62103 33.0008 10.7899 36.0983 13.0264C39.1957 15.2629 42.9275 16.4497 46.7479 16.4132C50.5802 16.4944 54.3345 15.3243 57.4422 13.0803C60.5498 10.8362 62.8414 7.64052 63.9699 3.97722L71.4419 6.27022L89.4879 14.0772L83.3339 29.3732Z" fill="white"/>
</svg>
