<?xml version="1.0" encoding="UTF-8"?>
<svg id="Layer_1" xmlns="http://www.w3.org/2000/svg" version="1.1" viewBox="0 0 841.9 595.3">
  <!-- Generator: Adobe Illustrator 30.4.0, SVG Export Plug-In . SVG Version: 2.1.4 Build 226)  -->
  <defs>
    <style>
      .st0 {
        fill: #fff;
      }
    </style>
  </defs>
  <g id="zpyfic">
    <g>
      <path class="st0" d="M118,527.7V67.5h605.9v460.2H118ZM346.2,202.9c1.5,2.8,4,5.3,7.2,6.4l.9.3c.1,0,0,.4-.2.4h-.7s-5.8.2-5.8.2l-7.5.3-7.2.2-5.5.4c-9.7.8-20.4,8.5-26.7,16.1-3.7,4.4-6.4,9.3-9.7,14.1l-4.4-3.8c-3.6-5.9-10.5-8.4-16.8-5.8-.2-1-.4-1.8-.8-2.2-1.4-1.5-3.5,0-5.4,2.4s-.5,3,.4,4.2c-2.5,3.4-3.7,10.6-2.7,13.9,1.6,4.9,6.3,7.5,10.8,8.8s2.7.8,4.1.4l5.7-1.6c-1,1.7-2.6,3-4.5,3.5l.3,2.5-21.6,34.9c.7-4.5-2.3-10.2-5.9-11.6s-7.8-1.1-10.8,1.7-2.1-1.6-7.3-.7v1.3c0,0-4.8-.4-4.8-.4-2-.2-4.3,1-4.9,3l-1.6,6-.6-.4.4-3.8c.1-1.2,1.6-2.6,2.4-3.7-2.7.5-3.2,3.2-3.4,5.5-.5,4.6,3.3,7.7,7.7,8.2l8.9,1c1.6.2,3,.5,4.2,1.7l-11.8.2-13,.6,3.3-31.8,4.6-49c1.1-.5,2.7.4,3.8.9,4.4-.8,11.8-.2,12.1.3l.5,1.1c.8,1.8,3,1.8,4.6,1.3s1.8-2.8,2.4-4.1l7.7-7.7.2,3.5,3,.5c1.3,1.2,2.9,1.8,4.8,1.8l15.2-.4c2.2,0,4.1-.7,5-2.4s.9-4-.4-5.3c-2.2-2.2-4.3-2.6-7.1-2.5l-14.5.5,1.5,1c1-.4.9-.4.2,0l-1,.4-.6.3c-1,1.1-2,1.5-3.6,1.4h-.9c0,0-.7-.1-.7-.1,1.3-3.2,2.2-6.3,2.6-9.8,1.4-12.3,2.2-24.3,2.5-36.7l.4-18.1v-12.2s-.2-11.2-.2-11.2l5.1-.2c.7,0,2.2-.4,2.5-.9s0-2.2-.6-2.4l-2.6-.9c-.8.5-.1,0,.3-.2l10-.3,2.2-.3,10.7-.3,12.2-.4,12.4-.3c.2,0,.8.3.6.5l-.7.7c-.2.2.5.9.8.9l7.1-.2c.6,0,1.3-1.4,1.4-1.9l2.1-.3c.4,0,.5-1.2.6-1.5l.2-13.6,1.2-.2c.2,0,.6-.3.8-.5s-.2-.4-.4-.5h-1.3c0-.1,2.9-5.8,2.9-5.8.1-.2,1.3-.3,1.3,0v1.1c.2,2.6-.5,5.3-1.6,7.8-.4,0-1.3-.4-1.3,0l-.2,1.6-.3,2.5v8c0,2.3-1.3,3.9-3.3,4.4,4.6.3,8.5,0,8.1-3.5l12.9-.4,11.8-.4,10.4-.3,5.4.4c-1.2.5-2.6.8-3,1.5s.6,2.2,1.3,2.2l6.4.3,14.8,2.5,5.5.5c2.4.2,5.1.7,7.5.3l12.1-1.7c.5,0,1.7-.5,1.8-1l.4-2c7.6.8,15.2.4,22.8-.5l.9-.4c.1,0,.2-.2,0-.2h-1.1c0-.1-4.9,0-4.9,0,0-.8-.7-2.5-1.9-2.6l-6.7-.5-5,.2c-2.2,0-3.9.2-5.9.8l-4.1-.8.4-.8,18.3-.4,9.4-.4c4.6-.2,8.9-.4,13.5.3s.9-.1.8,0l-.2.8-.3,1.1-4.5.6c-1.2.2-1.9-.1-2.8,1.3l7.4,1.6c1,.2,2.5,1.2,3.7,1.2h4.7c1.7,0,3.4.2,4.9-.7s0-2.1-.6-2.4l-2.9-1.2-.4-1.6-4-.9,27.4-1.4,6.4-.3,10-.2c.2,0,.7-.4.7-.5l-.3-.9c-1.1.3-2.3.5-3.7.6l-9.3.4h-10.2c.1-1.8-.5-2.3-1.3-3.2s-.9-2.2-1.6-2.4l-2.8-.6c-1.6-.3-2.8-.9-4.4-.5-3.1.7-7.5.6-10.6-.3s-2.9,0-4.6.7-3.1.6-3.3,1.5-.4,1.3-1.4,2l-.7,3.7-13,.4-11.4.4-13.1.3c-1-1.3-2.2-1.9-4.3-1.5v-7c0-.6-.3-1.8-1-1.9l-6.3-.6v-4.7c-2.7-1-4.9-1-7.4.3v3.8c-.1,0-.6.7-.6.7l-2.3-.4c-6.9-1.3-10.5,3.6-11.6,0-2-1.1-4.7-1.2-6.7-.2l-2.5,1.3c-3.8,2-6,.6-7.5,2.6-2.3,3.2-1.4,7.6,1.7,9.2l-15,.5-13.9.5h-4.7s0-13.4,0-13.4v-6.4c.2-.7-.5-1.8-1-2.1s-2.1.2-2.4.8l-3.2,6.4-.4,14.9c-.7.3-1.6,0-2.4-.4-2-1.1-5.3-1.3-7.1,0s-1.4,1-2.3,1.1l-10,.3-13.4.4-11.2.3-3.8.3-13.4.3c-.3-4.2-.7-8.5-1.4-12.7s-3-7-6.3-9.4-4.2-3.4-7.2-2.8-8.1-.8-9.1,3.1-.6,4.6-.7,6.9l-.4,15.5-9.2.3v-7.2c-1.3-.6-2.6-.9-4.1-1.2v-16c1.1-.2,2.9-.8,3-1.5v-5.5c.2-2.6-11.4-2.9-17.4-1.7s-1.7,1.5-1.7,2.5v5c.1,0,2.7,1.4,2.7,1.4.3,5.3.3,10.5,0,15.8-1.1,0-3.4.6-3.5,1.6v7.3c-.1,0-8.9.3-8.9.3l-5.1.2-8.9.2c-.8,0-2.4,1-2.9,1.7l-7.3,10.1c-.8,1.1-.8,4-.8,5.4l.2,20.1.4,14.7.4,11.5.5,9.6.4,9.3.2,7c2.1,20,5.3,39.5,8.8,59.2l1.5,8.2,1.2,2.4c-1.2,2.1-.1,4.2.2,6.2l1.9,10.4,2.7,1.8.5,4.3,11.7,4.5c2.1.8,4.1,1.2,6.6,1.1v7.2c0,.7.6,1.5,1.3,2l.2,4.6c0,1.7.3,2.5,1,4.2s.3,3.9.1,5.4h-3.4c-2.6,2.6-1.9,5.8-.8,8.8s-1.2,7.6,2.4,12.8l-8.4.6-5.9.4-6.7.4-7.2.4-6.7.4-6.7.4-7.6.4-7.6.4-5.5.3-3.9.2c-8.5.5-17,1.5-16.2,9.9s-.3,3.2,1.1,3.9c2,1.1,3.7-.8,5.2,1.1s4.9,3,7.7,2.8c2.1,1,4.1,1,6.4.4,1.2-.2,3-.3,3.9.2l3,8c.3.8.2,2.4.2,3.4,0,1.6-.6,2.7-1.2,4.1-2.5,5.9-1.3,12.6,2.2,17.8.8.4,2.7.1,3.4.4l21.8,6.4c2.6.7,3.4-.3,5.5-1.3l15.5-7.6,2.9-1.3,3.3,3.5.2,4.2v35.7c0,1.4-.3,2.7.7,3.8,1.8,1.8,7.3,1.7,8.5-1.3v-25.1s.3-4,.3-4c.6-.4,2.5-1.2,3.4-.9l4.6,1.3,25.3,4.6.3,2.8,3.7,1.9.3,4.1v42.7c1.4,1.9,3.3,2.4,5.6,1.9,1.4.3,4.3-.6,4.7-2.4v-41.5c.1,0,8.7-.7,8.7-.7l.2,2.4c0,.4,1,.6,1.7.9.4.2.6,1.7.4,2.3s-.9,1-1.6,1.5v4.6c2.4,1.1,4.4,1.2,6.7,0v-4.8c-1.3-.6-1.6-1.2-1.7-2.5s1.3-1.5,2.5-1.8c7.3,2,14.5,3.5,22.2,4.4l29.5,3.2,16.4,6.5c8.9,3.1,18,4.7,27.4,4.5,1.1,2.9,6.6,4.6,7.5,2.7s.4-2.5.4-3.4l26.4-5.2h39.8c5,5.9,11.5,9.9,19.2,10.9h6.1s.3,5.3.3,5.3c3.2,1.5,6.1,1.5,9.6,1.5s4.2.4,5.5-1.3l.6-.8s2.2,1.7,7.4,1.2l5.9-.5,3.5-.3,11.7-.9,47.9-4.1c.7,4.3,8.2,4.5,13.5,4.5s5.7,0,8.2-1c4.2-1.5,1.6-5.5,3.7-5.6l4.3-.4c1.5-.1,2.8-1.4,3.1-2.8l5.4-19.6c0-.6.4-1.2.5-.5l.3,7.3c.1,2.7,8.8,2.7,8.8-.4l.3-18.3.2-6.1c1-.2,2.2-.4,2.7-.7s.7-1.6.9-2.3c2.5-2.5,4.5-5.6,4.6-9.5l1.2-33.8c3.3-.3,5.2-.2,5.4-3l3.4-.6c4.3-.7,10.9,0,11-5.1v-4.7c0-1.6-.7-3.7-2.4-4.4l-9-3.3v-2.2s12.2-1.3,12.2-1.3l5.8-.5,5.9-.4,18.5-1.4c1.5-.1,1.7-3.1,1.5-4.5l9-.2c2.1,0,5.4-3.2,6.2-5.3,1.4-3.7,1.5-7.5,1.7-11.4l.2-3.5.3-16.5.2-25.5-.7-10.1c-.3-4.2-1.3-7.7-4.3-10.6l-4.8-4.6,2.3-27c8.3-.6,15-4.9,18.9-12.2,11.7-22,10.5-51.1-1.6-72.8-2.8-4.5-6.1-8.1-11-10-1.4-5.4-4.5-9.5-9.3-12l-9.3-2.5-9.8-2.4c-8.1-2-15.8-3.9-24.2-4.5l-11-.8-12.4-.3-18.9-.3-8.9.3-14.2.3c-3,0-5.5.3-8.4-1.6l2.8-1.9c.2-.2.6-.9.5-1.1s-.6-1-.9-1.1l-5.4-1.1c-.6-.1-1.1-.3-1.4-.4s.6-1,.9-1.1l3.4-1.3-.4-9.3c0-1.4,0-2.9-1.7-3.4-4.1-1.1-11.6-1.5-15.1.6l-1.1,11.5c1,1.3,4.4,1.4,3.2,1.6l-.9.2c-.3,0-1,.1-1,.4l-.2,1.6c-4.2,1-6.1-1.1-7.7,2-1.2,0-2.8.4-2.9,1.7s.5,1.9,1.4,3.3l-10.7.4c-1.6,0-2.1-2.2-7-1-2.1-2.4-4.8-4.2-7.8-4.2s-5.9,1.4-7.9,3.7l-4.3.2.4.4h3.6c0,0-1.7,3.6-1.7,3.6l-3.7.2c-.5,0-1.4.9-1.4,1.4s.7,1.5,1.2,1.5c5.1.7,9.7,1.8,14.8,1.5l12.7-.9c.5,0,1.2-1.2,1-1.6s-1-1.2-1.6-1.2l-3.5-.3-1.4-3.8h4.1s1.3,1.3,1.3,1.3h12.3s-3.5.8-3.5.8c-.6.1-.7,2-.3,2.6,2.6,1,5.8,1.4,8.7,1.4h5.2c.5,0,1.2.7,1.6,1.1,2.4,1.2,5.6,1,8.2.4l.9-1.5c.2-.3,1.7,0,1.7-.3l.4-2.7c1.5-.3,4-.6,5.5-1.4s2.5-1.6,4.4-1.6h24.1c2.9,0,6.3,1.3,9.1,2.1l24.1,6.6c1.5.4,2.9,1.7,4.1,2.7l-12.3.3-4.2.3-13.3.3-18.8.4-18.2.4-17.6.4-16.9.4-19.7.4-21.1.4-20.6.4-19.9.4-16.8.4-18.2.4-17.6.4-19.8.4-20.3.4-20.1.4-15.8.4c-2.6,0-5,.5-7.6-.2s-3.5-1.1-5.1-1.1h-12.5c0-.1,1-2.8,1-2.8.3-.8-1.1-2.2-1.9-2.4s-2.6.4-3,1.3l-1.9,4.4h-4c-2.6-.1-4.8,0-7.3-.6l-4.7-1.1c-1.6-1.5-4.7-1.9-5.7.1l.6.8c0,.1-.4,0-.7,0l-4.3.3c1.9.7,3.2.6,5.4.7-3.6,2.9-4.3,7-4.4,11.2s-3.2,7.1,2.6,11.1l.3,30.1c0,2.6,1.9,5.3,4.2,6.4s3.4.4,4.4-.1c2.8-1.4-1.1-4.1-.6-8.3l.3-3.1,2.6-27.8c2.5,0,5.6-.4,7.8-1.8s3.3-4.9,4.4-7.5l4.4-10.4h13.8c0,0,4.6,1.2,4.6,1.2,5,.2,9.6,0,14.5,0l19.3-.4,19.4-.4,18.5-.4,19.9-.4,18.9-.4,16.5-.4,19.3-.4,19-.4,21-.4,20.7-.4,17.6-.4,19-.4,18-.4,18.6-.4,17.2-.4,15.2-.4h6.7c1.5,2.2,2,4.6,2.3,7.3l.3,3.4v21.7c-.1,0-.6,14.3-.6,14.3l-.4,12.3-.4,13-.4,12.3-.3,6.5-.5,13-.3,13.1-.2,4.2-.3,11.2-.4,12.2-.4,12.1-.4,12.3-.5,11.7-.4,13.1-.5,12.1-.4,13.5-.4,13-5.8.3-6.8.4-7.2.4-7.2.4-7.2.4-6.7.4-6.7.4-6.7.4-6.7.4-6.7.4-5.5.4-6.7.4-7.2.4-6.3.4-6.7.4-4.2.3.9-2.2-13.1-72.7-12.1-67.1c-1.6-9.1-10.3-15.5-19.1-15.7l-14.1-.4c-8.4-.2-16.8-.2-25.3,0l-21.4.4-18.6.4-14.7.4-14.6.4-12,.3-4.7.3c-6.9.4-12.1-1.7-15.7-7.2l-.3.2ZM606.9,117.4c-.2-3.6-12.3-2.9-11.1,0s11.2,2,11.1,0ZM312.4,147.4c-2.2-4.5-3.1-8.3-.3-12.1-4,2.5-2.8,8.9.3,12.1ZM557.3,312.3l6.9-.4,7.6-.4,6.7-.4,7.6-.4,6.7-.4,6.4-.4c3.5-.2,7,0,10.2-1.7s6.3-5.6,6.9-10l8.5-57.6,8-53.9,3.4-24c-.4-5.3-3-9.4-7.9-11.3s-6.7-.6-10.1-.6l-15.3.4-15.9.4-17.3.4-17.2.4-18.7.3-4.8.4c-6.7.5-12.6,7.2-11.5,14.1l6.2,35.9,10.9,65.2,5.5,33.2c1,6,5.2,10.1,11.3,10.9s3.9,0,6.2,0ZM462.9,172.8c.1-.1.8-.1,1,0l5.5,5c.2.2,1.4,0,1.6,0s.2-1,0-1.2l-6.2-5.5,6-5.6c.3-.3.5-1.5.2-1.6s-1.4,0-1.6.2l-6.1,5.6-6.3-5.4c-.3-.3-1.4-.2-1.6.2s0,1.2.2,1.5l6,5.1-6.6,6.3c.4.6.8,1,1.2,1s1-.3,1.2-.5l5-4.7.4-.4ZM426.8,173l11.5-.3v-2c0,0-11.6.3-11.6.3-.5-1.2.2-4.1,1.8-4.2l9.9-.4v-2s-10.1.4-10.1.4c-2,0-3.7,2.6-3.7,4.6v5.5c.1,1.6,2,4,3.7,3.9l10.1-.2v-2c.1,0-9.8.1-9.8.1-1.6,0-2.3-2.8-1.7-3.8ZM441.5,172.8l11.7-.4-.2-1.9-11.4.3c-.6-1.3,0-4.2,1.8-4.2l9.8-.5v-1.9s-10.1.4-10.1.4c-2.6.1-3.8,3.3-3.7,5.4v4.1c0,2,2,4.5,4.1,4.4l9.8-.2v-2c0,0-9.4.2-9.4.2-1.7,0-2.8-2-2.3-3.8ZM403.2,179.5c2.3,0,4.3-2,4.3-4.2v-5.8c0-2.4-2.2-4.3-4.4-4.2l-7.7.3c-1.8,0-3.6,2.6-3.6,4.2v5.2c0,2.2,1.7,4.7,4.1,4.6h7.3ZM423.2,177h-7.9c-1.1.1-2,0-2.5-.3s-1-1.7-1-2.5v-9s-2,0-2,0v9c0,2,1.3,5,3.7,5h8.8c.4-.2,1.2-.4,1.5-.5s-.3-1.6-.6-1.6ZM377.6,174.1l12,5.7,1.4-.4c.2,0,.2-.5.2-1l-11.8-5.5,11.8-5.8-.4-1.4c0-.2-.9,0-1.1,0l-12,6.1v-5.9c-.1,0-2.1,0-2.1,0v13.7s2,0,2,0v-5.7ZM463.2,173.2l-.3.2-4.8,4.7,10.4-.3-5.3-4.6ZM333.5,182.3h.6s-4.5-7.4-4.5-7.4l-.2.6,4.1,6.8ZM346.3,202.4l-10.6-17.6h-.7s10.8,18,10.8,18l.5-.3ZM246,245.5c-1.1-1.5-1.7-3.2-1.1-4.9s1.4-2.1,2.5-3.4c-2.1.4-2.9,2.3-3.3,3.9s.1,3.4,1.4,4.6,2.3.8,3.1,0l-2.5-.3ZM259.2,261.9l1.1-15.8c.3-4.1-4.3-5.8-4.4-5.8l-.8.4c-.4.2-1.5.5-1.5.9l.2,2.2-2.9-1.1c-.6-.2-.7-1.9-.4-2.4s1.3-1.4,1.8-1.2l3.4,1.1c-1.1-1.7-3.1-2.5-4.9-1.7s-3.3,2.7-1.8,4.2,3.7,1.7,5.7,2.4c1,2.7.5,5.6.3,8.5l-.4,5.9-.4,5.9-.4,5.5c-.1,1.4,1.9,2.2,3,1.8s2-1.5,2.1-3.1l.5-7.7ZM597.1,338.1l.3-6.2v-6.9c0,0-1.9-1.2-1.9-1.2v-4.9c-.1-.2-.4-.8-.2-1l.7-.7-6.3-.2c1.8-1.8,4.1-2.7,6.6-2.2s4.3,2.2,4.3,4.6v15s-.4,4.2-.4,4.2l-.3,3,.5-.2.6-4.9.3-12.4c0-2.8.5-6.6-2.1-8.6s-3.4-1.5-5.3-1.2c-4.5.6-7.6,4.8-7.9,9.2l-.3,3.8-.3,9.7v3.4c0,2.8,1.5,5.7,4.4,6.3-4.9-3.6-3.8-8.2-3.6-13.7l.3-9.4c0-2,.9-4,2.5-5.4v16.9c0,0-.5,8.4-.5,8.4l-1.4-1c.9,2.3,2.9,2.9,5.3,2.8s3.8-1.4,4.5-3.1l-1.9,1.2v-2.2c.9-.3,1.6-.6,1.9-.9s.3-1.5.3-2.1Z"/>
      <path d="M346.5,202.7c3.6,5.5,8.9,7.6,15.7,7.2l4.7-.3,12-.3,14.6-.4,14.7-.4,18.6-.4,21.4-.4c8.5-.2,16.8-.2,25.3,0l14.1.4c8.8.2,17.5,6.6,19.1,15.7l12.1,67.1,13.1,72.7-.9,2.2,4.2-.3,6.7-.4,6.3-.4,7.2-.4,6.7-.4,5.5-.4,6.7-.4,6.7-.4,6.7-.4,6.7-.4,6.7-.4,7.2-.4,7.2-.4,7.2-.4,6.8-.4,5.8-.3.4-13,.4-13.5.5-12.1.4-13.1.5-11.7.4-12.3.4-12.1.4-12.2.3-11.2.2-4.2.3-13.1.5-13,.3-6.5.4-12.3.4-13,.4-12.3.4-14.3v-21.7c.1,0-.2-3.4-.2-3.4-.3-2.8-.8-5.1-2.3-7.4h-6.7c0,.1-15.2.5-15.2.5l-17.2.4-18.6.4-18,.4-19,.4-17.6.4-20.7.4-21,.4-19,.4-19.3.4-16.5.4-18.9.4-19.9.4-18.5.4-19.4.4-19.3.4c-4.9.1-9.6.3-14.5,0l-4.6-1.1h-13.8c0,0-4.4,10.3-4.4,10.3-1.1,2.7-1.6,5.8-4.4,7.5s-5.2,1.7-7.8,1.8l-2.6,27.8-.3,3.1c-.4,4.2,3.4,6.9.6,8.3s-3.3.6-4.4.1c-2.3-1.1-4.2-3.8-4.2-6.4l-.3-30.1c-5.8-4-2.7-8.8-2.6-11.1,0-4.3.8-8.3,4.4-11.2-2.2,0-3.5,0-5.4-.7l4.3-.3c.3,0,.8,0,.7,0l-.6-.8c1-2.1,4.1-1.7,5.7-.1l4.7,1.1c2.5.6,4.7.5,7.3.5h4c0,0,1.9-4.3,1.9-4.3.4-.9,2.1-1.5,3-1.3s2.2,1.6,1.9,2.4l-1,2.7h12.5c1.6.1,3.5.8,5.1,1.3,2.6.7,5,.3,7.6.2l15.8-.4,20.1-.4,20.3-.4,19.8-.4,17.6-.4,18.2-.4,16.8-.4,19.9-.4,20.6-.4,21.1-.4,19.7-.4,16.9-.4,17.6-.4,18.2-.4,18.8-.4,13.3-.3,4.2-.3,12.3-.3c-1.2-1.1-2.6-2.3-4.1-2.7l-24.1-6.6c-2.9-.8-6.2-2.1-9.1-2.1h-24.1c-1.8,0-2.9.8-4.4,1.6s-4,1.2-5.5,1.4l-.4,2.7c0,.3-1.6,0-1.7.3l-.9,1.5c-2.5.6-5.8.8-8.2-.4-.4-.4-1.1-1.2-1.6-1.2h-5.2c-2.9.1-6.1-.3-8.7-1.3-.4-.6-.3-2.5.3-2.6l3.5-.8h-12.3s-1.3-1.3-1.3-1.3h-4.1s1.4,3.8,1.4,3.8l3.5.3c.5,0,1.4.8,1.6,1.2s-.5,1.6-1,1.6l-12.7.9c-5.1.4-9.7-.8-14.8-1.5s-1.3-1-1.2-1.5.9-1.4,1.4-1.4l3.7-.2,1.7-3.5h-3.6c0,0-.4-.5-.4-.5l4.3-.2c2-2.3,4.8-3.8,7.9-3.7s5.8,1.8,7.8,4.2c5-1.2,5.4,1.1,7,1l10.7-.4c-.9-1.4-1.5-2.5-1.4-3.3.1-1.3,1.8-1.7,2.9-1.7,1.5-3,3.5-1,7.7-2l.2-1.6c0-.3.8-.3,1-.4l.9-.2c1.2-.3-2.2-.3-3.2-1.6l1.1-11.5c3.5-2.1,11-1.7,15.1-.6s1.7,2,1.7,3.4l.4,9.3-3.4,1.3c-.3.1-1.1,1-.9,1.1s.8.3,1.4.4l5.4,1.1c.3,0,.8.8.9,1.1s-.3,1-.5,1.1l-2.8,1.9c2.9,1.8,5.5,1.6,8.4,1.6l14.2-.3,8.9-.3,18.9.3,12.4.3,11,.8c8.3.6,16,2.5,24.2,4.5l9.8,2.4,9.3,2.5c4.7,2.5,7.9,6.6,9.3,12,4.8,1.9,8.2,5.5,11,10,12,21.6,13.2,50.8,1.6,72.8-3.9,7.3-10.6,11.6-18.9,12.2l-2.3,27,4.8,4.6c3,2.9,4,6.4,4.3,10.6l.7,10.1-.2,25.5-.3,16.5-.2,3.5c-.2,3.9-.3,7.7-1.7,11.4s-4.1,5.2-6.2,5.3l-9,.2c.2,1.4,0,4.4-1.5,4.5l-18.5,1.4-5.9.4-5.8.5-12.3,1.3v2.2s9,3.3,9,3.3c1.7.6,2.5,2.7,2.5,4.4v4.7c-.2,5.2-6.8,4.4-11.1,5.1l-3.4.6c-.2,2.8-2.1,2.7-5.4,3l-1.2,33.8c-.1,3.8-2.1,6.9-4.6,9.5-.2.7-.4,2-.9,2.3s-1.7.5-2.7.7l-.2,6.1-.3,18.3c0,3.2-8.7,3.1-8.8.4l-.3-7.3c-.1-.7-.4-.1-.5.5l-5.4,19.6c-.4,1.3-1.6,2.6-3.1,2.8l-4.3.4c-2.1.2.5,4.2-3.7,5.6s-5.4.9-8.2,1c-5.3,0-12.8-.2-13.5-4.5l-47.9,4.1-11.7.9-3.5.3-5.9.5c-5.2.5-7.4-1.2-7.4-1.2l-.6.8c-1.2,1.6-3.6,1.3-5.5,1.3-3.5,0-6.3,0-9.6-1.5l-.3-5.3h-6.1c-7.6-1-14.1-5-19.2-10.9h-39.8s-26.4,5.2-26.4,5.2c0,.9,0,2.7-.4,3.4-1,1.9-6.4.2-7.5-2.7-9.4.2-18.5-1.3-27.4-4.5l-16.4-6.5-29.5-3.2c-7.7-.8-15-2.4-22.2-4.4-1.2.3-2.6,1-2.5,1.8,0,1.3.4,1.9,1.8,2.5v4.8c-2.3,1.2-4.4,1.1-6.7,0v-4.6c.6-.5,1.4-1,1.5-1.5s0-2.1-.4-2.3c-.7-.2-1.7-.4-1.7-.9l-.2-2.4-8.6.7v41.5c-.5,1.8-3.4,2.7-4.8,2.4-2.4.5-4.2,0-5.6-1.9v-42.7s-.3-4.1-.3-4.1l-3.7-1.9-.3-2.8-25.3-4.6-4.6-1.3c-.9-.2-2.8.5-3.4.9l-.3,4v25.1c-1.3,3-6.8,3.1-8.6,1.3s-.7-2.3-.7-3.8v-35.7s-.2-4.2-.2-4.2l-3.3-3.5-2.9,1.3-15.5,7.6c-2.1,1-3,2.1-5.5,1.3l-21.8-6.4c-.8-.2-2.7,0-3.4-.4-3.5-5.2-4.7-12-2.2-17.8s1.1-2.5,1.2-4.1,0-2.6-.2-3.4l-3-8c-1-.5-2.7-.5-3.9-.2-2.3.7-4.3.6-6.4-.4-2.8.2-5.9-.6-7.7-2.8s-3.2,0-5.2-1.1-1-2.7-1.1-3.9c-.8-8.4,7.8-9.4,16.2-9.9l3.9-.2,5.5-.3,7.6-.4,7.6-.4,6.7-.4,6.7-.4,7.2-.4,6.7-.4,5.9-.4,8.4-.6c-3.6-5.2-1.3-9.6-2.4-12.8s-1.8-6.2.8-8.7h3.4c.1-1.6.4-4.2-.1-5.6s-.9-2.4-1-4.2l-.2-4.6c-.7-.5-1.4-1.3-1.4-2v-7.2c-2.4.1-4.4-.3-6.5-1.1l-11.7-4.5-.5-4.3-2.7-1.8-1.9-10.4c-.4-2.1-1.4-4.1-.2-6.2l-1.2-2.4-1.5-8.2c-3.5-19.8-6.8-39.2-8.8-59.2l-.2-7-.4-9.3-.5-9.6-.4-11.5-.4-14.7-.2-20.1c0-1.5,0-4.3.8-5.4l7.3-10.1c.5-.7,2-1.6,2.9-1.7l8.9-.2,5.1-.2,8.7-.3v-7.3c.2-1,2.5-1.6,3.6-1.6.3-5.3.2-10.4,0-15.8l-2.6-1.4v-5c-.1-.9.5-2.2,1.6-2.5,6-1.3,17.5-1,17.5,1.7v5.5c-.2.7-2.1,1.3-3.1,1.5v16c1.4.3,2.7.6,4,1.2v7.2c0,0,9.3-.3,9.3-.3l.4-15.5c0-2.3.1-4.7.7-6.9,1-3.9,5.1-2.4,9.1-3.1s5,1.2,7.2,2.8c3.3,2.4,5.6,5.2,6.3,9.4s1.1,8.6,1.4,12.7l13.4-.3,3.8-.3,11.2-.3,13.4-.4,10-.3c.8,0,1.5-.5,2.3-1.1,1.8-1.3,5.2-1.1,7.1,0s1.7.7,2.4.4l.4-14.9,3.2-6.4c.3-.6,1.8-1.1,2.4-.8s1.2,1.4,1.1,2.1v6.4c-.1,0,0,13.4,0,13.4h4.7s13.9-.5,13.9-.5l15-.5c-3.2-1.6-4-6.1-1.7-9.2s3.6-.6,7.5-2.6l2.5-1.3c2-1.1,4.7-.9,6.7.2,1.1,3.6,4.7-1.3,11.6,0l2.3.4.4-.7v-3.8c2.6-1.3,4.8-1.3,7.4-.3v4.7c0,0,6.4.6,6.4.6.6,0,1.1,1.3,1,1.9v7c2.1-.5,3.3.2,4.3,1.5l13.1-.3,11.4-.4,13-.4.7-3.7c1-.7,1.1-.9,1.4-2s2.4-1.1,3.3-1.5c1.7-.7,2.8-1.2,4.6-.7,3.1.8,7.5,1,10.6.3s2.8.2,4.4.5l2.8.6c.7.1,1.1,1.8,1.6,2.4.7.9,1.4,1.5,1.3,3.4h10.2c0-.1,9.3-.5,9.3-.5,1.3,0,2.6-.2,3.7-.6l.3.9c0,.2-.5.5-.7.5l-10,.2-6.4.3-27.4,1.4,4,.9.4,1.6,2.9,1.2c.6.3,1.2,2,.6,2.4-1.4.9-3.2.7-4.9.7h-4.7c-1.2,0-2.7-.9-3.7-1.2l-7.4-1.6c.8-1.5,1.6-1.2,2.8-1.3l4.5-.6.3-1.1.2-.8c0-.1-.7,0-.8,0-4.6-.7-8.8-.5-13.5-.3l-9.4.4-18.3.4-.4.8,4.1.8c2-.6,3.8-.7,5.9-.8l5-.2,6.7.5c1.1,0,1.8,1.8,1.9,2.6l4.9-.2h1.1c.2.1.1.3,0,.3l-.9.4c-7.6,1-15.2,1.4-22.8.5l-.4,2c0,.5-1.3.9-1.8,1l-12.1,1.7c-2.5.3-5.1,0-7.5-.3l-5.5-.5-14.8-2.5-6.4-.3c-.8,0-1.8-1.4-1.3-2.2s1.8-1,3-1.5l-5.4-.4-10.4.3-11.8.4-12.9.4c.4,3.4-3.5,3.8-8.1,3.5,2-.6,3.3-2.1,3.3-4.4v-8s.4-2.5.4-2.5l.2-1.6c0-.3.9,0,1.3,0,1-2.5,1.8-5.1,1.6-7.8v-1.1c0-.3-1.2-.2-1.3,0l-2.9,5.6h1.3c.2.1.5.5.4.6s-.6.4-.8.5l-1.2.2-.2,13.6c0,.4-.2,1.5-.6,1.5l-2.1.3c-.1.6-.8,1.9-1.4,1.9l-7.1.2c-.4,0-1.1-.7-.8-.9l.7-.7c.1-.2-.4-.5-.6-.5l-12.4.3-12.2.4-10.7.3-2.2.3-10,.3c-.5.3-1.1.7-.3.2l2.6.9c.6.2.9,1.9.6,2.4s-1.8.9-2.5.9l-5.1.2.2,11.2v12.2s-.4,18.1-.4,18.1c-.3,12.4-1,24.4-2.5,36.7s-1.3,6.7-2.6,9.8h.7c0,0,.9.1.9.1,1.6.1,2.5-.2,3.6-1.4l.6-.3,1-.4c.7-.3.8-.3-.2,0l-1.5-1,14.5-.5c2.9,0,5,.3,7.1,2.5s1.3,3.4.4,5.3-2.8,2.3-5,2.4l-15.2.4c-1.9,0-3.5-.6-4.8-1.8l-3-.5-.2-3.5-7.7,7.7c-.6,1.3-.7,3.7-2.4,4.1s-3.8.5-4.6-1.3l-.5-1.1c-.2-.5-7.7-1.1-12.1-.3-1-.6-2.7-1.4-3.8-.9l-4.6,49-3.3,31.8,13-.6,11.8-.2c-1.2-1.1-2.6-1.5-4.2-1.7l-8.9-1c-4.4-.5-8.1-3.6-7.7-8.2s.7-5,3.4-5.5c-.8,1-2.3,2.4-2.4,3.7l-.4,3.8.6.4,1.6-6c.5-2,2.8-3.2,4.9-3l4.9.4v-1.3c5.1-.9,6.3,1.6,7.2.7,3-2.8,7.1-3.2,10.8-1.7s6.6,7.1,5.9,11.6l21.6-34.9-.3-2.5c1.9-.5,3.5-1.8,4.5-3.5l-5.7,1.6c-1.4.4-2.7,0-4.1-.4-4.6-1.3-9.3-3.9-10.8-8.8s.2-10.5,2.7-13.9c-.9-1.1-1.6-2.7-.4-4.2,1.9-2.4,4-3.9,5.4-2.4s.5,1.2.8,2.2c6.3-2.6,13.2,0,16.8,5.8l4.4,3.8c3.2-4.8,6-9.7,9.7-14.1,6.3-7.6,17-15.3,26.7-16.1l5.5-.4,7.2-.2,7.5-.3,5.8-.2h.7c.1,0,.4-.4.2-.4l-.9-.3c-3.2-1.1-5.7-3.7-7.2-6.4l-.3-.2-10.8-18h.7s10.6,17.7,10.6,17.7v.3ZM224.4,92.1c-5.6-1.4-11.1-1.5-16.7-.1,5.7,1.4,11.2,1.2,16.7.1ZM568.4,92.7c-4.7-1.5-9.5-1.8-14.4-.2,4.6,1.4,9.4,1.6,14.4.2ZM224.5,93.3l-9.3.4c-2.7.1-5.2-.3-7.9-.8l.2,5c5.9,1,11.3,1.2,17,0v-4.6ZM569.3,103.8l-.5-10.2c-3.3.9-6.9,1.1-10.4.6l-4.7-.7-.3,3.5-.7,6.4c5.2,1.4,11.3,1.7,16.6.4ZM243.4,223.4c-.6.2-1.5.3-1.6.7l-.2,2.1c2.1,0,4.1-.8,5.7-2.3,6.1-5.5,8.9-7.9,10-17.4,1.6-13.9,2.6-27.6,2.8-41.6l.2-23.6c0-9.6-.4-18.9-1.5-28.4s-3.2-8.4-7.3-12-4.4-2-7.4-1.8l-3.6.3c5.3,3.7,9.1,6.7,10.1,13.5s1.4,18.2,1.6,27.4l.3,12v11c0,0-.3,15.5-.3,15.5-.2,11.6-.8,23-2.8,34.5s-2.8,7.7-5.9,10.3ZM220.8,99.6c-3.6-.1-6.8-.1-10.2,0l3.2.6c2.3.4,4.8.1,7-.6ZM250.9,140.6l.2,15.8.4-.2-.2-17.7-.4-10.3-.2-4.2-.4-4.6c-.9-10.6-1.2-13.4-10.9-19.8-1.5,1.1-2,2.8-1.8,4.2l1.2-2.2,6.7,5.7c3.6,3.1,4.1,10.2,4.5,15.8l.4,6,.3,6.3.3,5.3ZM221.5,100.8c-2.1.1-3.7.4-5.3.3l-6-.4v16.2c4.1.6,7.3.6,11.2,0v-16.2ZM236.6,129.7c.7,0,1.5-.2,1.7-.4,1.8-1.5,6.3-2.3,7.7,1.3l.9-19.9c0-1.1-1.1-2.4-1.9-3l-6.2-5.1c-.5,2.3-.6,4.3-.6,6.5l-.2,11.4c0,.8-.3,2-.6,3.1l-.4-9.1-.3,15.1ZM401,109v-5.2c-.1,0-5.6-.3-5.6-.3v5.3s5.6.1,5.6.1ZM563.5,107.6l1.8-2.1-8.7-.2,1.9,2.3h5ZM327.9,121l2.4.4v-13.9c-.5,2.2-1,3.4-2.1,4.7-.9,2.7-.5,5.9-.3,8.9ZM394.9,109.9l-.7-1.7c0-.2-.9,0-1.2.1l-4.8.8,6.7.8ZM407.9,108.6l-5.9-.7v2.1c0,0,5.9-1.4,5.9-1.4ZM567,108.8c-.9-1.8-2.2-.3-3-.2-2.4,0-4.4-.5-6.7.5,3.3,1,6.3.2,9.6-.2ZM548.6,109.8l8.1.9c5.5.6,11,.4,16.2-1.6l-4.4-1c-.2,1-.9,1.9-1.7,1.9l-4.8.3c-2.9.2-6.2-.4-8.8-.9-1.2-1.1-3.3-1.3-4.5.5ZM549.1,112.2l-2-1.6c-.4-.3.4-1.4.7-2-.9,0-1.6,1.2-1.6,2.3s.6,1.8,1.1,1.7l1.8-.4ZM393.2,119c-4.1-.4-7.2-.6-10.7-1.5l5.8-.3c1.3,0,3.4,1,4.6,1l6.3-.2,8.8-.5v-7.8c-7.3,1.4-14.4,1.4-21.3-.2l-.2,4.7-5,1.2v4.1c0,0,1.7-.3,1.7-.3v4.3s8.8,1.3,8.8,1.3c.9-.7,1.1-2.3,1.1-3.2v-2.7ZM479.1,112.3c0-.5-.6-1.2-1.1-1.4s-1.3.4-1.8.8c-.5-.7-1.8-1.7-2.8-1.7l-8.8.6-6.4-1.1c0,.4.2,1.3.5,1.2l1.1-.2c.4,0,1.5.4,1.3.8s-.9,1.2-1.3,1.1l-6.1-.4c1.6.9,3.6,1.3,5.4,1.5,5.7.4,19.9.7,19.9-1.3ZM366.6,118.4c-1.4-3.2-.8-5.6,1.6-7.9-.9-.3-2.8-.6-3.5-.1-1.5,1.1-1.7,3.1-1.6,4.7s1.2,3.7,3.5,3.3ZM386.3,113.6l-.4-3.4h-4.5c0,.1.3,4.3.3,4.3l4.6-.8ZM380.6,119.5v-8.8s-3.4.3-3.4.3v9.1s3.4-.5,3.4-.5ZM551.5,117.8c-3-.8-4-1.7-5.1-3.9l-1.5-3c-.1-.3-1.1-.4-1.3-.2s-.3,1.1-.2,1.4l2.1,4.3-3.2.7c3.1.6,6.1.8,9.2.7ZM371.3,117.2c-.3-2.3.1-4.1,2-6.1h-3.7c-2.6,3-1.7,8-.1,8h2c-.3-.4-.8-1-.6-1.2l.5-.8ZM510.6,118l1-2.7c2.4-3.5,7.2-4.1,11.1-2.9-4.6-3.4-11.1-.7-12.8,4.5s0,.9-.1,1.1l-1.1.9,3.6.3-1.6-1.2ZM372.6,116.7c.6,1.6,1.8,2.7,3.6,3.1v-8.3c-1.8.1-3.8,1-3.7,3.2.3-.3,1.2-1.1,1.3-.7l.5,1.5c0,.2,0,1.2-.3,1.2h-1.3ZM557.3,112.7c-.1.7-.4,1.8-.8,1.9l-2,.5c1.9.2,3,0,5,.6-2.7.8-5,.7-7.7.1,1-1.9,2.2-2,4.4-2.5-2.1-1.6-4.5-1.2-6.1.7s-.7,1.2-.6,1.6,1.1,1,1.5,1l10.3-.3c2.1,0,4-1.3,3.7-3.6h-7.7ZM570.6,115.3c.6.4,2.3-.4,2.6-.9-1.9-1.3-4-2.2-6.1-1.2l3.5,2ZM513.2,118.4c-.6-2.2.6-3.7,2.7-4.8-1.6,0-3,1.2-3.8,2.9s.3,2,1.1,1.9ZM478.7,114.5c-7.7.7-14.9.9-22.4.5s-2.7-.5-4-.9v3.2c0,0,28.4-1,28.4-1l-.4-2c0-.3-1.2.2-1.7.3ZM521.4,114c-2.2-.5-4.8-.2-6.9,1.5s-.6,2.9.1,3.4,2,.6,2.8.6c-.4-1.7-.5-3.7.6-4.7s2.5-.5,3.1-.4l.3-.3ZM636.3,352.7l10.9-1.1,4.3-.3,6.6-.5,18.3-1.5c.7.3,2.7,0,2.8-.9l3.3-38.1,4-46.5,6.6-74,.5-5.5.4-4.7.9-11.3.4-4.7.4-5.1.9-13c.3-3.9.1-7.7-1.3-11.3s-4.4-8.4-8.8-9.6l-13.4-3.5-18.9-4.6-9.9-1.1-11.7-.9-17.9-.5h-9c0,0,16.7,4.7,16.7,4.7l12.2,3.3c1.6.4,2.8,1.3,4,2.3,2.5,2.2,3.8,4.6,4.1,8.2l.4,5.3v19.2c0,0-.6,13-.6,13l-.4,14.8-.4,13.8-.3,11.6-.2,3.8-.4,11.8-.4,11.4-.3,9.1-.4,11.7-.4,11.9-.4,13-.4,12.3-.4,12.1-.4,12.2-.4,12.3-.5,11.7-.2,9.2ZM249.1,121.7l-1.2-7.6-.6,9,1.2.2c.3,0,.6-1.3.6-1.6ZM521.7,114.2l-.2.3c.5.3,1.2,1.1,1.5,1.6s-.2,2-.4,2.2l-1.1-2.9c-.2-.6-2-.7-2.4-.2-1.1,1.3-1.1,3-.3,4.4,1.3.1,3,.1,4.3-.4s1-2.3.6-3.1-1.2-1.5-1.9-1.8ZM393.8,122.9c2.2-.3,4.2-.2,6.4,0,4.2.6,8.2-.1,12.2-1v-4.1c0,0-11.9,1-11.9,1-2.3.2-4.7-1.1-6.8.4v3.7ZM555.7,119c-3.4-.9-6.4-.4-9.5-.5l-5.1-.7c3.2,2.2,10.3,1.8,14.7,1.2ZM214.6,125v-5.9c.1,0-8.2-.8-8.2-.8v7.5c3.4.6,6.2.7,9.4.6-.5-.5-1.3-1-1.3-1.4ZM225.6,124.5v-6.1c0,0-8.5.8-8.5.8v5.7c0,0,8.5-.4,8.5-.4ZM563.5,121.1v-2.4c.1,0-2.6-.5-2.6-.5l-4.4.2v2.4c2.4.4,4.4.4,7,.3ZM464,119.6c-2.8-.5-5.1-.5-7.8,0,2.7,1.1,5.2,1.3,7.8,0ZM527.7,120.7l4.5-.9c-2.1-.7-3.6,0-5.4.2s-2.6.2-3.9.8c1.8.2,3.2.2,4.8-.1ZM382.3,122.9l.2-2.6-4.5.7c.9,1.5,2.2,1.9,4.3,1.9ZM435.2,121.1c-3.2-.7-6.3-1.2-9.4-.8l-6.2.8c5.4.8,10.3.9,15.7,0ZM398.3,127.2h7.7s11.8-2,11.8-2c.3-.9.4-2.9-.3-3.4s-2.6-1.1-4.1-1.3l.2,2.3c-3.4.3-6.8,1.2-10.1,1.1l-8.8-.3c-1.3,0-2.1,2.5-1.3,3.1l4.8.5ZM377.3,121.1h-2.3c-.2.3-.4,2,0,2h2.1c.4,0,.2-1,.1-2ZM466.3,121.9h-7.1c-1.7-.6-3.4-1-5.2-.7l6,1.4c2.1.5,4.4,0,6.4-.7ZM321.6,123c-.1-.8-.2-1.2-.2-1.2h-6.3c-.3-.1.4,1.2.9,1.2h5.6ZM455.7,122.2l-6.5-.7c1.9,1.2,3.6,1.1,5.6,1.3h1c.2.1.1-.7,0-.6ZM330.7,122.6c-.2-.7-2.6-1.2-2.9-.6l-1.3,2.3c1.3.3,3.9,0,4.3-1.6ZM434.1,122.4l-12.1-.2-3.1-.3c.7.7,1.2.8,2.2.8l6.4.2,6.6-.5ZM468,123.1c-2-.3-4.1.4-6,.3l-5.1-.3c1.1,1.4,8.5,1.2,11.1,0ZM249.5,129.9l-.3-5.5-1.8-.2-.2,4.9,2.2.7ZM391,125.6c-4-.5-7.6-2.4-11.3-1.2l11.3,1.8,1,.3c.2,0,.4-.7.2-.7h-1.1ZM240.3,139.6v-5c-.1,0,.5-.2.5-.2l.4,5.5c1-2.5.7-5.5-.7-7.5.7-.1,1.7.9,1.7,1.5v4.4c1.3-.5,2.6-.9,3.6-.6s1.9,1.8,1.9,3c.1,2.2-.5,4.2-2.6,4.8l1-2c-1.5.2-2.5-.1-2.7-.9-.4-1.5,0-2.3,1.2-2.9l-.5-1.1c-.2-.5-2.3.2-2.8,5.1l-.6,5.7-.6-2,.2,3.9c1.3-2.7,2.1-4.3,3.7-6.9,1.4,1.3-2.3,4-2.3,6.6l.6,48.5.3,10.6,1.9,1.7c-1.8.8-3.3.7-4.9,0l-.4-23-.4-44.6c0-4.3-.4-8.4-2.5-11.9l-7.3-2.4c1.1-.6,1.8-.8,2.7-1.2.7-1.3,1.7-2.5,3.8-1.8l.2-2.5h-4.1c0,0-5.2.4-5.2.4.7.3,1.9.7,2,1.3s0,1.9-.1,2.3c-4.6,1.2-8.5.4-12.7-.6s-9,.6-10.6-2.7l-4.7.3,18.6,5.7c.6.2,1.9,1.1,2.1,1.7.9,4,2,7.7,2.1,11.7l.3,18.7.3,26.7.3,13.9v12c0,0,4.4-.1,4.4-.1l.9,1c.1.1.9-.5,1.1-.5h8.6c1.2,0,2.2,1.3,2.4,2.3l4.4-2.6c2-4.4,2.5-9.1,2.8-14l.4-5.1.9-14.2.3-15.3v-5.5c0,0-.3-23.7-.3-23.7l-.4-7.3-2.4-.4c-.5,0-.9,1-1.3,1.5l-8.1.6c2,4.3,2,8.5,2.6,12.7.2-1.9,0-3.6,0-5.5ZM267.6,127.2l-.5-1c0-.2,0-.5,0-1.1l-6.1-.2.5,2.8,6.2-.5ZM205.2,306.5l4.6.4c1.7.1,3.3.2,5,0l1.5-13,2.1-21.8,1-10.4,3.4-35.7h-5c-2.6-.1-4-2.8-4-4.9s1.4-4.5,4-4.9,3.4-.2,5.4-.2v-19.1s-.4-7.2-.4-7.2l-.2-26.3-.2-12.9c0-6-.5-13-2.7-18.2h-12.5s4.7-.6,4.7-.6l5.6-.3-18.1-5.4c-2.9-.9-5.5-.7-8.5-.5l-4.8.3,20.2,6v.6c.1,0-21.7-6.4-21.7-6.4-1.4-.4-2.9-.3-3.7.9l-7.2,9.9c-.5.6-.7,2.3-.8,3.1v18.5s.3,6.7.3,6.7l.3,12.9.4,10.5.5,9.2.4,9.7.3,6.5c.2,4.5.9,8.7,1.5,13.2,2.5,18.2,5.3,36.1,8.8,54.1,2,3.1,2.4,6.6,1.6,10.1l1.6,8.7c3.8,2.1,7.8,3.7,11.9,5.3s3.5.6,5.2-.2l-.3,1ZM227.8,126.8h-7.4c-.2,0-.8-.4-.7-.6l.2-1-3.1,1c3.7,1.4,7.5,2.3,11,.5ZM296.9,141l4.8-11.4c-.3,0-1.2.1-1.1,0s.3-.4.4-.5l.7-.5c.5-.3-.7-1.4-1.2-1.3s-1.5.7-1.7,1.2l-3.7,9,1.8,3.6ZM242.9,130.7c.6,0,1.6,0,2.2,0-1.4-2.3-4.6-2.5-6.2-.7-1.3.3-3.4.2-4.9,0-.6-.9-.8-.4-.4.4,3.1,1,6.7,1,9.4.2ZM278.1,148.8c-3.3-4.9-2.6-11,1.6-14.8s2.2-1.5,3.9-1.9c-3.7-1.3-7.5.5-9.6,3.9s-2.3,6.2-.6,9.2l1.7,1.4c1,.8,1.7,1.9,3,2.2ZM281.4,140.2c1-3.7,4.2-5.7,8.2-5.9-2.5-1.6-5.7-1.8-8.2-.2-3.7,2.4-5.2,7.1-3.8,11.3s4.1,5.4,7.6,5.3c-3.9-2-5-6.2-3.8-10.6ZM294.6,133.2h-4.5s3.5,2.4,3.5,2.4l1-2.4ZM293.5,148.3c1.9-2,2.7-4.6,2.1-7.5s-1.9-4.6-4.6-5.4-6,.7-7.6,2.7-2.2,5.8-.8,8.6,3,3.5,5,3.8,4.4-.5,6-2.2ZM700.5,188.8v-3.4s-1.4-17.1-1.4-17.1c1.1,3.8,2.1,7.9,2,12.1v13.5c-.5,10.4-3.3,20.2-7.4,29.8,3.9-1.5,7.6-1.7,11.5-1.1,4.1-5.5,6.4-11.5,8.3-18,2.9-10.3,3.5-20.7,2-31.4-1.6-10.8-4.9-21.6-11.3-30.4-1.8-2.5-4.4-4.4-7.1-5.6.5,2.4.6,4,.5,6.1l-.4,4.3-.9,13.4-.4,5.1-.4,4.7-1,11.7-2.9,32-.4,5.4-.4,6.5c6.4-9.3,9.7-26.3,9.8-37.7ZM274,149.7l-1.9-4.5c-1.7,3.3-.8,6.8,2,8.6,0-1.3.3-3.2,0-4.1ZM281.2,184.5l2.9-32.7c-4-.8-7-1.4-9.9-4.6.4,1.2,1.5,2.8,1.5,4.1l-.2,33.3h5.7ZM241.6,199.7l-.5-5.7-.4-23.5-.3-17.6-.4.2v37c.7,6.4.3,12.4.5,18.7l.2,1.1c0,.2.6,0,.9,0v-10.4ZM242.2,223c6.7-4.1,7.1-12.6,7.8-20.2l.4-4.3.4-5.9.3-5.5.3-5.1v-21.5c0,0-.3.2-.3.2l-.2,21-.4,7.4-.4,5.9-.4,5.1-.5,5c-.4,4-.9,7.7-2.5,11.4l-4.6,3.1c-.7.5-.7,2.8,0,3.3ZM282.7,189l-1.6-3.3h-5s1.6,2.4,1.6,2.4c.6-1,1.2-1.8,1.8-1.8s1.8.4,1.9.9,0,1.4-.2,2.1l1.6-.2ZM472.9,358.1c4.3,1.5,8.4,2.3,12.9,2.7l43.1,4.4c.6,0,1.6-.3,1.8-.6s.5-1.5.4-1.9l-5.1-28.7-13.8-77.1-6.3-33.8c-1.8-9.7-11.5-14.8-21-14.8h-48c0,.1-20.7.5-20.7.5l-15.9.4-15.2.4-14.7.4-12.5.3-8,.3-3.8.2-9.6.3-4.7.4h-3c-5.9.6-11.7,2.6-16.4,6.2,5.4-2,11.1-6,16.7-5.3-3.3,4-6,7.5-8.6,11.5l12.5-.5,10.9-.4,16.1-.4h49.6s13.5.4,13.5.4l16.8.8c2.8.1,5.5.6,7.8,1.8l-9.4-1.4-7.3-.3c4.2,2.7,7,6.6,7.7,11.7l5.5,37.8,9,71.8.2,3.6,5.2,2.6-.3.4-5.4-2.6-.8-6.5-6.9.4-5.9.4-6.7.4-6.7.4-6.7.4-6.3.4-7.2.5-5.9.4-6.7.4-6.7.4-6.3.4-5.9.4-6.7.4-7.2.5-5.5.4-6.7.4-6.7.4-6.7.4-5.5.4-7.1.4-7.2.4-6.7.4-6.7.4-6.3.4-7.2.4-6.7.4-6.7.4-6.7.4-6.3.4-7.2.4-6.7.4-6.7.4-7.6.4-6.7.4-4.5.3-.2,4.8,3.4,1.6c0,.7,0,2.1-.2,3.1,8.2-.1,34.9.6,35.2,6.6s-7.6,4.3-12.2,4.9-4.1.9-6.6.1l5.9-.6.2-.5-22.1,1.4,1.5,1.3-11.9.8-4.6.3-6.7.4-5.9.4-5.9.4-6.7.5-5.5.4-5.9.4-5.5.6.3.3,10.6,5.4-.7.3-10.3-5.2-.5-.4c-1.5,1-.6,2.4-2.7,3.1l.5,2.5c1,.5,3,1.2,3.4,2.1.7,1.4.7,3.2.7,5l6.4,3.6c1.3-1.3,2.4.4,7,1.3,8.7,1.6,17.2,1.1,26,.6l5.1-.3c.4,0,1.4,0,1.5.3l.4,1.8,6-.4,5.1-.4,5.9-.4,5.9-.4,5.5-.4,5.9-.4,5.9-.4,5.9-.4,5.9-.4,5.9-.4,6.7-.5,5.5-.4,5.9-.4,5.9-.4,5.9-.4,6.7-.5,5.9-.4,5.9-.4,5.9-.4,6.7-.5,5.5-.4,5.9-.4,5.9-.4,5.9-.4,6.7-.5,5.5-.4,6.7-.5,5.5-.4,5.9-.4,6.7-.5,5.5-.4,6.7-.4,5.9-.4,7.1-.5,5.9-.4,6.7-.4,5.9-.4,5.9-.4,6.7-.5,5.5-.4,6.7-.5,5.9-.4,6.7-.4,5.9-.4,6.7-.4,5.9-.4,5.9-.4,7.1-.5,5.5-.4,6.7-.5,5.9-.4,6.7-.4,5.9-.4,6.7-.4,5.9-.4,6.7-.4,6.7-.4,5.5-.4,6.7-.5,5.9-.4,6.7-.5,5.5-.4,5.5-.4,6.7-.4,6.7-.4,5.5-.4,5.5-.4,7-.9.5-2.7,6-.4c4.5-.3,8.5-1.1,8.4-4.6v-5.5c-1,.8-2.1,1.7-3.2,1.9l-6.9,1-5.5.4-5.9.4-6.7.4-6.7.4-6.7.4-5.9.4-7.1.5-5.5.4-7.6.5-6.7.4-6.7.4-5.9.4-6.7.4-6.7.4-6.7.4-6.3.4-7.2.5-5.9.4-7.1.5-6.3.4-7.6.4-6.7.4-5.9.4-6.7.4-7.2.4-6.3.4-7.2.4-6.7.4-6.7.4-6.7.4-6.7.4-7.2.4-5.9.4-7.1.5-5.9.4-6.7.5-5.5.4-7.1.5-5.9.4-6.7.4-5.9.4-6.7.5-5.5.4-7.1.5-6.7.4-5.9.4-5.9.4-7.1.5-5.9.4-6.7.4-5.9.4-6.7.4-5.9.4-6.7.5-5.5.4-7.1.5-5.5.4-6.7.5-5.9.4-5.9.4-7.1.5-5.9.4-6.7.4-5.9.4-6.7.5-5.5.4-5.1.4-15.1.3c-3.8,0-7.3,0-11.2-1-.7-.2-.7-.4,0-.4,2.2.3,4.4.7,6.4.7h4.7s10.1,0,10.1,0l5.9-.4,6.3-.4,5.9-.4,5.5-.4,7.1-.5,5.9-.4,5.9-.4,6.7-.4,6.7-.4,5.5-.4,6.7-.5,5.5-.4,7.1-.5,5.9-.4,6.7-.4,5.5-.4,6.7-.5,5.5-.4,6.7-.5,5.9-.4,6.7-.4,6.7-.4,5.9-.4,7.2-.5,6.7-.4,5.5-.4,7.1-.5,5.5-.4,6.7-.4,6.7-.4,5.9-.4,6.7-.4,5.9-.4,6.7-.5,5.9-.4,4.6-.3,5.1-.3,6.7-.4,6.7-.4,7.2-.4,7.2-.4,6.3-.4,7.2-.5,5.9-.4,7.1-.4,7.2-.4,6.7-.4,6.7-.4,6.7-.4,7.2-.4,5.9-.4,6.7-.4,6.7-.4,6.7-.4,6.7-.4,5.9-.4,7.1-.5,6.7-.4,6.7-.4,6.7-.4,6.7-.4,5.9-.4,6.7-.4,6.7-.4,6.7-.4,6.7-.4,5.9-.4,5.9-.4,4.6-.5c2.2-.2,4-.9,5.6-2.6-.9-1-1.9-1.7-3.1-2.1l-7.4-2.5.2,2.8-5,.2-6.8.4-7.2.4-7.6.4-6.7.4-7.1.5-5.9.4-7.1.5-5.9.4-6.7.4-7.1.5-5.9.4-6.7.4-7.2.4-6.3.4c-3.2.2-6,.3-9.3,0l-30.3-3.1-16.6-1.9c-3-.3-5.8-1.2-8.3-2.4h-.5c0-.1-7.1-3.4-7.1-3.4l.7-.3,6.9,3.2.4.3ZM298,239.6l5.3-.3,6.8-.6,7.4-11.3c3.3-5,6.7-9.6,10.6-14.5-8.9,1.1-20.9,8.4-26.9,15.4s-5.4,7.3-8.1,11.5l5-.2ZM277.6,214.5l-.2-.4h-11.2s.2.4.2.4h11.2ZM266.9,221.2l8.2-.2c-.8-2-.9-3.9.8-5.9h-4.2c0,0-5.9.2-5.9.2-1.9,0-3.6-.2-5.1,1.2l6.3.5v4.2ZM281.7,219.7l1-1.2c.2-.2-.2-.9-.4-1.1l-1.9-1.8c-1.5-1.3-3.7,0-4.4,1.3-.9,1.7-.5,3.9,1.2,4.7s3.3-.4,4.6-1.9ZM225.6,224.9l.4-8-2.1-.2v8.3c-.1,0,1.7,0,1.7,0ZM227.8,224.1l.2,2.1h.5c0-.1,0-9.3,0-9.3l-2-.3,1.1.8c.2.1.1,1,.1,1.4l-1.2-.9v7.9c.2,0,.8-.2.9-.4l.2-1.2ZM240.5,219.3c0-2.7-6.2-2.5-10.3-2l-.3,8.9,10.7.2v-7ZM223,221.7v-4.4c.1,0-3.1,0-3.1,0-2.2,0-3.8,1.3-4,3.4s.4,4.1,2.6,4.1h4.5s0-3.1,0-3.1ZM265.1,218.5h-5.2c-1.6,0-2.6,0-4.2-.5v2.7c0,0,9.6,0,9.6,0,.4,0,.9-.9.8-1.3s-.7-.9-1-.9ZM275.6,222.5c-2.1-1.5-4.5-.6-6.9-.5h-7.8c0,.1-.2.5-.2.5h14.9ZM248.5,355l6.3-.4,6.7-.4,6.7-.4,6.7-.4,6.7-.4,6.7-.4,7.2-.4,7.1-.4,5.5-.4,7.2-.5,6.3-.4,6.7-.4,6.7-.4,7.1-.4,5.9-.4,6.7-.4,6.7-.4,5.9-.4,6.7-.4,5.9-.4,7.1-.5,5.5-.4,7.2-.5,6.7-.4,5.9-.4,7.2-.5,6.7-.4,5.9-.4,6.7-.4,6.7-.4,6-.4-3.3-25.9c-3.4-27.3-6.7-54.3-11.1-81.4-.5-2.9-2.5-5.6-4.2-7.5s-5.4-3.2-8.7-3.3l-14.8-.4h-52.5s-14.8.4-14.8.4l-9.7.4-13,.7-8.8,13.7c-.4.6-2,1-2.6,1.1.3.9.3,2.3-.2,3.3l-7.1,13c-.4.7-2.2,1.2-2.7,1.6l-1.2,3-5.5,10.6c-.7,1.4-1.9,2.2-3.6,2.4l-1.4,3.9-5.2,10.5c-.5.9-1.6,1.6-2.7,1.9l-.7,1.8-5.8,11.8c-.7,1.4-1.9,2.2-3.1,2.8-.9,1.7-1.7,3.1-4,3.2l-17.1.9-11,.6c-4.9.2-5.9-2.7-9.9-2.5l1.2,1.8c.2.4-.4,1.5-.6,2l2,.3c.5,0,.9,1.3,1.2,2.1s-.4,2-1.1,2l-4.2.2v6.9s2.6.5,2.6.5c.5.1,1.6.7,1.5,1.2v1.9c0,.6.2,2-.3,2.3s-1.6.5-2.4.6c-1.8,3.8-4.2,2.4-4.4,6.3l-.3,4.8-.7,15,7.3-.3,7.6-.4,6.8-.4,5.1-.3ZM704,223.7c-4.3-.9-7.9,0-11,2l-2.9,4.2c5.4-.6,10.3-2.4,13.9-6.2ZM241.4,229.1c.7.2,2.1.1,3.1-.3s1.4-1.5,1.4-2.6c-1.6,0-.5,2.7-4.5,2.8ZM265.5,234.7l3.5-3.1c0-.4-.4-1.1-.7-1.4-1.2-.9-3.9,1.3-4.5,3.6s.3,1.2.6,1.3.9-.2,1.2-.5ZM273.6,233.3c3.2-.5,6.3.5,8.8,2.6s1.7.7,2.3.9c-4.3-5.6-12.1-6.5-17.4-1.8s-6.6,12.1-2.7,18,2.7,2.7,4.3,3.4c-1.9-2.6-3.9-4.9-4.2-8-.7-7.5,2.6-13.9,9.1-15ZM266.6,249.2c-1.8-6.3,1.6-12.9,8-14.2s4.1.6,6.2.8c-4.9-3.4-10.6-1.6-13.6,3s-2.6,13.7,3.5,17.5,5.7,2,8.6,1.1l-3.1-.7c-4.5-.5-8.3-2.8-9.7-7.5ZM269.4,248c-.9-4,.9-7.4,4.5-9.2l-1.5-.5,4.1-1.6c-1.4-.2-2.7-.2-3.6,0-3,2.3-5.8,4.7-6,8.5s1.9,8.7,6.4,9.7l-3.2-3.4-.8-3.4ZM278.9,241c1.9-1.8,4.1-2.8,6.9-2.4-3.5-3-8-2.5-11,.5s-3.8,5.9-3.5,9.3,3.7,7.9,8.4,7.9c-5.2-3.2-5.3-11.1-.9-15.3ZM286.4,255.8c5.4-2.8,6.9-10.6,2.5-14.9s-7.8-1.8-10.2,1.2-3.1,10.5.9,13.1,4.3,1.9,6.8.6ZM293.8,256.9l4.5-.3c.8,0,2.1-.9,2.5-1.6l6.4-11.8c.6-1.1,1-2.3.3-3.5l-5.9.3-7.7.4c-.7,0-1.9.5-2.1,1s-.2,1.5,0,2.1c1.8,5.9-.8,12.2-6.7,13.7l8.6-.4ZM289,272.6c.5,0,1.7-1.3,1.7-1.5l7-13.5h-5.4c0,0-9.2.6-9.2.6l-8,14.4c1.5.8,2.6.6,4.2.5l9.7-.6ZM274.7,273.4c0-.8,0-1.6.3-2.1l6-10.8h-.6s-7.9,13.2-7.9,13.2l2.2-.4ZM693.9,340.5c1.5-2.6,2-5.7,2.2-8.5l.3-5.1.3-18.3v-27.6c.1,0-.4-7.3-.4-7.3-.3-4.3-1.7-8.2-4.9-11.2l-3.9-.3-.7,7.7c2.5-.2,4.9-.8,7.7.3l-7.7.5-1.4,15.2-3.6,42.2-1.4,16.5,10.1-.5,3.4-3.7ZM267.4,289.6l11-.6c1.3,0,2.2-1.2,2.7-2.3l6.3-13-7.8.3-6.7.3-7.5,14c0,.3.2,1.1.5,1.2s.9,0,1.5,0ZM264.8,289.8c-.2-3.7,3.5-6.5,3.9-9.6l-6.4,10,2.5-.3ZM245.9,287.7l4.8.3c-3.7-2-8.1-1.4-10.8,1.5,2.2-.8,3.9-1.9,6-1.8ZM226.7,290l1-.2c.1,0,0,0-.1-.7-4.3.6-6,4.9-5.4,9.2l.8-4.2c.3-1.8,1.9-3.3,3.4-4h.4ZM226.8,290.5c-3.7,1.5-4.6,8.5-3.5,10.3s1.9,1.3,3,1.4l10.1,1.4c1.2.2,2.5.1,3.5.8,3.2,2.2,7.3,3,10.8.9s5.9-7.8,4-12-9.1-5.3-12.7-2l-15-1.1-.2.2ZM268.1,305.2c2,.2,3.3-1,3.6-2.7l6.2-12.5-15.1.6-7.3,15.2,6.9-.2,5.7-.5ZM255,305.4l4.8-11-5.8,9.1.9,1.9ZM205.2,307.2c-1.1,0-3.1,0-3.9-.3l-9.9-4,.2,3,13.4,5,.2-3.8ZM237.7,309.9l8.7-.2c2.2,0,3.8-.7,5.1-2.4.6.3.8.4,1.1.3s.7-1,.5-1.1l-1.4-.6c-2.7,1.8-5.8,2-9,1.1l-14.9.2,6.2,2.6h3.6ZM268.1,306.3l-4,.2-5.2.3-4.9-.2-2.1,2.7,11.8-.5c1.8,0,3.6,0,4.4-2.5ZM227.4,311.1c-.8-1.7-1-2.2-1.1-3.8l-8.4.4-.4,4c2.9.2,6.7,0,9.8-.7ZM217,308l-6.8-.3-4.5-.2v3.9c0,0,11.2-.3,11.2-.3v-3.1ZM217,314.6c0-.7-.6-2.5-1.3-2.5h-5.7s0,8.3,0,8.3c2.6.5,4.8.7,7,.5v-6.3ZM224.8,316.7c-2.6.6-3.2.1-4.5-.8l.3-1.7-2.8-.7v10.3s5,.3,5,.3l2-.2v-7.2ZM221.7,334.1l1.2-.8-4.4-.4c.9.7,2.1.8,1.5,2.4-1.5-1.3-3.1-3-4.1-4.6v-4.7c-.1-1.4.2-2.4,1.1-4l-5.8-.2v6.6s2.8,2.1,2.8,2.1v5.9c-.1,0,5.3-.3,5.3-.3v3.5c0,.5.3,1.3.6,1.5s1.6-.2,1.6-.6c.2-1.6.1-4.6,0-6.4ZM224.5,332c.2,0,1-1.2,1-1.7v-5s-4.4.2-4.4.2l-4.3-.8-.3,3.7c0,.8.3,2.5.9,3,1.2.9,4.1,1.5,4.7,0s1.2-1.4,1.4-1.1l1.1,1.7ZM228.7,328.8c-.6-.9-1.2-1.7-.9-1.9l1.4-1.2-2.6-.4.2,3.6c.2.4,2.1.1,1.9-.2ZM212.8,336.2l.8-.2v-5.3c0,0-.8,0-.8,0v5.5ZM210.7,342.7v-4.8c0,0-.8,0-.8,0l-.3,5.8c-.2,0,.3,0,.6,0s.4-.7.4-.9ZM216,365.1c0-.9,0-2.1.4-2.3l1.8-.5,1.8-.4c1-.2-1.7-3.5-1.5-6.8l.6-13.3-.7-3.7h-5.1s-.5,19.4-.5,19.4l-.3,1.2c0,.2.5.2.7,0l2.3.6v3.5s-1-1.6-1-1.6c-.5-.8-.6-1.1-1.3-1.8l.6,4.5,2.2,1ZM220.6,359.3l.5-11v-6.7s-.7-.1-.7-.1l-.6,14.7c0,.8.5,2.3.9,3.2ZM208.7,352.5c0,1.5,1.1,3.1,2.6,4.2l.4-13.8c-.7,1.2-1.5,1.8-3,1.8v7.8ZM138.7,377.9c2.3-.6,4.6.9,4.6.5v-1.1c-.3-1.4-.1-2.9.9-3.9s2.1-1,3.3-1.1l4.7-.3,5.1-.4,5.5-.4,6.3-.4,4.6-.3,4.7-.3,6.7-.5,5.9-.4,5.9-.4,11.2-1.2.3-2.4c0-.4,1.6-.4,1.8-.7l.9-1.4,1.7-.5c0-.9-.3-3.6-1.5-4.1-1.9-.8-4.5-.2-6.6,0l-6.8.4-7.2.4-5.9.4-7.1.5-6.7.4-7.2.4-6.7.4-7.2.4-6,.4c-6.6.4-15.6,1.6-15.3,7.8l.3,4.4,1.2-2.4c.3-.5,1.2-1.2,1.8-1.1s1.5.7,1.7,1.2l1.4,4,4,1.9ZM221.4,369.1l-1.5,1.5c-.9.9-2.8-.3-4,0s-2.2-.1-2.5-1.2l-.9-3c.5-.5.8-1.4.5-1.9s-1.5-.6-1.6-.1l-.3,4.1-2,.3,7.3,3.3c1.8.8,4.7-1.3,4.8-2.9ZM224.2,364.4h-6.3c-.6-.7-1-.5-.6.6,2.2.2,5,1,6.9-.6ZM223.7,367.4v-1.4s-6.7.4-6.7.4v2.9c2.7.7,3.2-2.3,6.7-1.9ZM223.9,378.9c.6-.7,1.5-1.1,2.2-1.2l11.3-.7v-1.5c1.2-.4,2.7,0,3.2,1l1-1.4c.8-1.1,5,2.6,7.4,2.2,3.9-.6,9.9-1.9,9.9-3.9s-11.7-4.9-16.6-5l-9.7-.3,12.9,5.7c-3.5.5-5.8-1.8-8.5-2.9l-4.1-1.8c-1.6-.7-2.7-1.4-4.5-1.1l2.1,1.2c.3.2.4,1.5,0,1.7-.7.4-2.1.7-3.3,1.1l4.5,2.3c.2.1.7.7.8.9.4.7-3.1,2-6.4.4s-3-1.3-4.5-1.5c.9.6,2.1,1.3,2.6,2-1.1,1.4-2.5,1-3.6.3-5.4-3.2-10.9-4.4-12.3-6s0-1,0-1.6l-5.5.5,5.3,2.3,6.4,2.8c3.3,1.4,6.6,2.9,9.4,4.7ZM173.6,382.8l6.3-.4,6.3-.4,5.9-.4,5.5-.4,7.1-.5,5.5-.4,5.9-.4,6.4-.4-19.7-8.8c-2.3-1-4-1.1-6.5-.9l-5.4.4-7.1.5-5.5.4-5.1.4-4.6.3-5.9.4-5.9.4-5,.4-5.6.6,20.4,10,7.1-.7ZM133.3,374.2l-1.9-2.7c-1,1-1.3,1.6-1.6,2.8h3.5ZM165.1,385.3c.4.2,1.1-.7,1-1.1l-20.2-9.8-1-.2c-.1,0-.3.6-.4.8l20.6,10.3ZM148.9,378.1l-4.8-2.4v3.2c0,0,4.8-.8,4.8-.8ZM213.1,405.6l1.5-1.2c.2-.2.4-.7.5-1s-.9-.3-1.2-.3l-6.8.6c3.1,1.7,4.8,3.7,5.8,6.8l3.3,9.7c.7,2.2,3.4,3.3,5.3,3.8-2.3-2.5-3.2-5.4-4.1-8.4l-2.8-9.7c4,6.1,2.9,17.7,11.1,19.2l33.9,6.4c3.7.7,5.2,4.4,4.7,8.1l15-1.1.2-5.2c.1-2.2,1.9-5.3,4.5-5.5l21.9-1.8c2.5-.2,5.5.8,6.4,3.4s.6,3.7.7,5.6c.6.4,2.1.8,2.9.7l7.2-.5,4.7-.4,5.5-.4,5.9-.4,5.5-.4,5.1-.4,5.9-.5,4.6-.4,5.5-.4,6.6-.5,18.3-1.4,6.3-.5,5.5-.4,5.5-.4,5.5-.4,5.5-.4,5.2-.4,12.1-.9,5.5-.4,5.5-.4,52.1-3.9,4.3-.3,6.3-.4,5.9-.4,5.5-.4,5.9-.4,5.9-.4,5.9-.4,5.5-.4,5.9-.4,5.5-.4,5.9-.4,5.1-.4,5.9-.4,5.5-.4,5.9-.4,5.1-.4,5.5-.4,5.5-.4,5.5-.4,5.5-.4,5.5-.4c3.9-.3,7.6-.9,9.9-4.3l1.1-32-4.6.2-5.9.4-6.7.5-5.9.4-6.7.5-5.5.4-6.7.5-5.5.4-7.1.5-5.5.4-6.7.5-5.9.4-6.7.4-5.9.4-6.7.4-5.9.4-6.7.4-5.9.4-6.7.4-5.9.4-6.7.5-5.9.4-5.9.4-6.7.5-5.9.4-5.9.4-6.7.5-5.9.4-6.7.4-5.9.4-6.7.5-5.5.4-6.7.5-5.9.4-6.7.4-5.9.4-7.1.5-5.9.4-5.9.4-5.9.4-5.9.4-6.7.5-5.5.4-6.7.5-5.5.4-5.9.4-5.5.4-6.7.5-5.5.4-6.7.5-5.5.4-6.7.5-5.9.4-5.9.4-5.9.4-5.9.4-5.9.4-6.7.5-5.5.4-5.5.4-6.7.5-5.5.4-5.5.4-5.5.4-5.9.4-5.9.4-5.4.4-5.5.5ZM155.4,381.2l-2.5-1,2,5.3.5-4.3ZM158.7,387.9l-.7,1.5c-.1.2-.8.3-.6.2l1.9-6.2-3.1-1.4v5.6c-.1,0-.5,4.8-.5,4.8l2.9.9.2-5.5ZM164.7,390.4l-2.2-1.7c-.8-.7-1.1-2.7-1.3-4.2-.6.4-1.3,1.7-1.4,2.6l-.3,6.6,9-.5-3.8-2.9ZM164.7,386.2l-2.5-1.1c.3,1.5.7,2.5,1.5,3.4l1-2.3ZM155.6,410.6c.2.6,1.2,1.7,1.8,1.7s1.6-.8,1.8-1.3c3.4-7.2.3-20.4-4.1-16.6,1,.4,2.1,1,2.3,1.8,1.6,4.9,2.1,13.7-1.8,14.5ZM187.3,416.6l16.5-7.9c-.9-1.4-1.2-2.7-1.1-4.5h-12.3c-4.6-.1-8.8-1.2-13.1-2.6-1.2,0-2.3,0-3.3-.6l-5.2-2.9-.5-3.9-8.9.5c2.4,4.9,3,13.4-.1,17.5l19.9,5.8c.3,0,.7.3.8.1v-.7c1.2.8,2.6,1.5,3.7,1.3s1.9-1.2,2.4-2.1c1.1-2.2-.3-3.8-2.1-5.4,1.2-.3,2.5.7,3,1.9s.4,2.3.3,3.5ZM157.2,405.9c0,.7-1.7,1.7-2,1.3l-1.3-1.8c.1,1.7.6,3.2,2.2,4.6,1.5-2.4,2.4-5.3,1.8-7.9l-1.3-5.4c0-.4-.9-1-1.2-1-1.4.2-1.8,2.6-2,4.9l1.6-3.1c1.3.5,2.1,2.1,2.1,3.2v5.3ZM155.6,406.5c1.4-2.7,1.5-5.7-.5-8-1.3,2.8-1.1,5.6.5,8ZM205,408c1.6.4,3.1-.5,4.6-1.3l-4-3-2,.4c-.1,1.1,0,3.6,1.4,3.9ZM213,422.8l-2.3-7.6c3.8,4.2,2.6,10.5,6.1,9.8l2.7-.6c-2.5-1.6-4.1-3.5-5-6.2l-3.8-10.8-4.9,1.5,3.8,4.4-.3,4.2v38c2.4,1.8,5.5,1.7,7.6-.3v-29.3c-2.3.4-3.2-.9-3.9-3.1ZM492.1,423.4v3.9c2.8,1.4,5.6,1.9,8.6,1.7l5.4-.4-.3,3.8,5.4-.2,5.1-.5,2.5-.4c.2-1.1.8-3.2,1.7-3.3l8-.7,5.5-.4,5.9-.4,5.5-.4,5.5-.4,5.5-.4,5.9-.4,5.1-.4,5.5-.4,5.5-.4,5.5-.4,5.1-.4,5.1-.4,5.1-.4,5.4-.5,14.2-1.3c4.3-.4,6.9-4.9,7.2-9.2-3,2.7-6.1,2.9-9.6,3.2l-5.9.4-5.5.4-5.5.4-5.1.4-5.9.5-5.5.4-5.1.4-5.5.4-5.9.4-5.5.4-5.9.4-5.9.4-5.9.4-5.5.4-5.5.4-5.9.4-5.9.4-5.5.4-6.7.5-5.5.4-4.5.3-.2,5.8h-.7s0-5.7,0-5.7l-5.4.4ZM619,422.1c.6,0,1.8-.8,2.1-1.4l-7.3,1.1,5.1.3ZM613.4,423.8c.3-.4-.1-1.7-.5-1.7l-1.6-.2v5.3c-.1,0,2.1-3.4,2.1-3.4ZM494.8,433l-.8-1.4-2.9-.2v-7.9s-4.7.4-4.7.4l-5,.4v28.5c0,4.2-2,7.8-6,8.4l7.1,3.5,14.1,6c2.9,1.3,6.8,0,9.9-.2l4.7-.4,7.6-.6,5.5-.4,5-.4,5.9-.5,63.4-5.4c2.2-.2,3.2-1.1,3.7-3.1l6.2-22.4c1.4-5.1,1.9-9.9,2.1-15.4l-7.2.5-5.1.4-5.1.4-5.1.4-5.1.4-5.9.4-5.5.4-5.5.4-5.1.4-5.5.4-5.9.5-5.1.4-5.5.4-5.9.4-5.5.4c-2.6.2-5.5,0-7.7,1-.2,1.1-.7,3-1.5,3.1l-5,.5-5.6.5c-.9,0-2.5-.2-2.9-1s-.2-1.7-.2-2.7h-2.3c0,.1-.3,3-.3,3-2.4,1-5.2,1.1-7.7.2ZM617,447.6l.4-4.4v-19.8c.1,0-2.9,0-2.9,0l-3,5.3-1.5,7.5v11.8c1.9,1.7,5.2,1.8,7-.2ZM475.2,460.3c3.3-.4,5.2-3.9,5.2-7.1v-28.7c.1,0-1.5,0-1.5,0v12.7c-.1,0-.6,19.2-.6,19.2-.4,2-1.6,3.2-3.1,3.9ZM471.8,429.5c.2-.5,1.4-1.1,1.9-1.3l2,4.1,2.2,5,.3-12.8-5.8.5c.5,1.2.8,1.9.8,2.4s-1.1,1.2-1.6,1.2c-1-1.8,1.5-3.6-.2-3.8s-1.1.3-1.1.6v7.8c.1,0,1.4-3.8,1.4-3.8ZM469.5,435.4l-.2-10.3-4.5.4.3,9.8h4.4ZM449.5,438.9l12.3-2c.6,0,1.8-.4,2.2-.9s.3-1.4.3-2.2l-.3-8.5h-3.3c-.2,5.8-.6,9.9-5.7,10.2l-6.7.4,1.3,2.9ZM444.5,440l3.9-.8-1.5-4.1,9.1-.7c2.8-.2,3.5-4.7,3.6-8.5-2,0-3.8,0-5.2.7-2.6,1.4-5.3,1.6-7.7.2l-12.2.9c.4,3.2.1,5.9-1.1,8.5l9.5-.8,1.6,4.6ZM381.8,453c.3-1.6.3-2.6,0-3.8l-8.2-.4-4.3-.3-4.6-.4-25.8-2.4,10.2,4.3-.7.3-15.3-6-20-8.2c-1,.1-2.1.2-2.9,0l1.9-.6v-3.6c0-2.7-1.8-5.3-4.7-4.9,1.1.5,2.4,1.1,2.2,2.6-2.1-2.6-4.9-3.1-7.5-2.1,1.2,1.7,1.6,3.7,1.4,5.5l-10.8-3v3.4c9,2.4,17.3,5.5,25.8,8.9l27,10.9c8.4,3.4,16.9,5.8,25.8,6.5h10.8c.4-1.2.3-2.7-.2-3.7l-7.1.2-5.1-.3c-6.7-.5-13.1-2.4-19.5-5.4l18.8,1.4,12.7.9ZM302.7,431.7c-.3-1.1-.9-2.8-1.5-3.9-2.1-.4-4.3-.2-6.4.2l7.9,3.7ZM292.7,428.2c-.6-.2-1.8-.1-2.6.1l7.4,2.4.3-.5-5.1-2ZM432.1,428l-2.9.2,1.6,4.4c1.6-1.5,1.3-2.3,1.3-4.6ZM432.6,435.6c1.2-2.2,2-5.8.3-8-.3,1.7.4,5.1-1.7,5.4s-2.5-3.1-2.7-4.6c-.7,4.3,3,9.1,4.1,7.1ZM394,448.9l17.4.4,17.4-4.8,14.7-4.2-1.3-3.7-8.9.7c-4.3.3-5.5-4-6.2-9l-7.2.4-5.5.4-5.5.4-5.9.4-5.5.4-5.5.4-6.2.6.2,17.3,7.8.2ZM494.1,430.5c.2-.3,0-1.4-.5-1.5l-1.6-.5.2,2.2c0,.4,1.6.2,1.9-.2ZM292.1,433.6v-3.3c-.7-.1-1.4-.4-2.1-.9-1.6-1.2-4.1-.3-5,1.4v3.2c-.1,0,7-.5,7-.5ZM501.5,432.1c.3-.3.5-2.2.3-1.9l-6.7-.4v2.3c1.8.5,4.8.6,6.4,0ZM284.1,434.3l-.3-3.6c0-.4-1.4-.7-1.7-.5-1.4.6-1.7,2.6-1.8,4.8l3.8-.6ZM260.4,436.5c0-2.2-1-2.5-2.2-3.6l-5.8-1.5c0,1.3.4,2.1,1.2,2.4l6.8,2.7ZM385,448.6v-17.2s-5.4.4-5.4.4v15.8c1.2-1.5,1.9-2.4,3.4-1.8s1.2,1.6,2,2.9ZM327.9,435.7l-5.3.4-6,.6,19.1,7.8,22.8,2.3,10.8.9,4.7.4h4.6c0,.1,0-16.3,0-16.3l-7.1.5-5.5.4-5.5.4-5.1.4-5.1.4-5.9.5-5.1.4-5.5.4-6.1.5ZM263.4,439.1c.4-3.3-1.4-6.9-5.3-6.9,5.1,2,1.4,6.6,5.3,6.9ZM474.9,442.2c1.8-2.8,1.3-7.1-1.3-8.6-.1,1,.6,1.6,1.5,2.4l-.2,6.2ZM314.1,442.1c-8.1-3.2-15.5-5.4-23.5-7.4l-6.8.5.6,1.6c9.7,3,19.9,4.9,29.7,5.3ZM275.4,441.7c2.9.9,4.7.8,6.8,0l-1.1-.7c-.1,0-.3,0,.5-.2,1.2-1.2,1.5-2.7,1.5-5h-2.8c0,1.5,0,3-.5,3.7l-3.5.3c-.1,0-.6.3-.8.4s0,.3,0,.3l1.1.2-1.4,1ZM468,440.9c1.6,0,3.5-.2,5.3-.9.4-1.2.2-3.1-.4-3.9l-4.9.2c.3,1.5.4,3,.2,4.3l-.3.3ZM467.8,440.3v-2.5c0-.6-1.3-1.4-1.9-1.5s-1.5.7-2,1.4c-8.9,1-17.6,2.6-26.3,5.1l-22.5,6.5,9,.5c1,0,2.9-.2,4-.6,12-3.7,23.8-6.9,36.3-8.3,1.1.1,2.5.8,3.2-.3v-.3ZM265.1,440.5c-2.3-.6-4-1.2-5.8-2.2l-2.7-1.5v45.3c2.4,2.3,6.4,2.2,8.5-.3v-41.3ZM331,448.5c-4.1-1.6-8.1-3.7-12.6-4.8s-8.6-.9-13-1.5c-7.4-1-14.4-2.7-21.5-4.5l-.9,3.4c9.7,2.9,19.6,4.5,29.7,5.5l18.3,1.8ZM470.5,454.6c-.4,1.5-.4,3,.2,3.7,1.5,1.8,3.6,1.5,5.1.5s2.1-2.8,1.8-4.7l.4-14.4c-.7,2.1-.9,3.8-2.7,5.3,2.8,3.8,2.6,11.4-.2,11.9s-1.6-.3-2.1-.6l-2.5-1.7ZM468.1,448.4c1-2.1,1.5-4.4,1.3-6.2l-5.7-.2-11.9,1.9,3.8,5.7,8.6-.5,4-.8ZM474.6,443.5l-2.9-1.2-1-.4c-.2,0-.2.9-.3,1.2l-.7,4.4c.8.5,2.9.2,3.5-1.2l1.3-2.9ZM279.7,444.4c0-.4-.3-1.3-.7-1.3s-1.1,0-1.1.2v1.5c0,.4.1,1.2.3,1.5s1.3.1,1.3-.2l.2-1.8ZM449.6,449.7h4.4s-3.4-5.6-3.4-5.6l-3.8.8,2.8,4.8ZM448.2,449.6l-2.5-4.5-14.5,4.1c5.8.7,11.2.7,17,.4ZM473.6,447.2c1.9,2.6,2,5,.5,7.7,2.3-.7,1.8-7.5-.5-7.7ZM281.3,451.1v-3.1c0,0-5,0-5,0l.2,3.1h4.8ZM384.3,453.5l13.7.3,23.2.4h30.7s12.9-.6,12.9-.6c1.2.5,2.5.5,4.1.4s3.4.2,5-.6c.3-1.2.3-3.2,0-4.3-1.8-.8-3.4-.2-5.2.2l-4.1.8-8.1.4h-30.7s-21.9-.5-21.9-.5l-11.2-.3-8.4-.3v4.1ZM378.4,455.6v-1.7s-22.2-1.7-22.2-1.7c4.5,1.9,9.4,3.3,14.4,3.4h7.8ZM389.6,454.3l-5.8-.2c-.2.4-.4.7-.4.7s.3.2.6.5l5.6-1ZM384.5,459.4l23.6-4.4c-5-.3-9.6-.8-14.3-.3l-9.7,1.2.4,3.5ZM469.1,455.1l-4.7-.4-3.6.2c3.1,2.4,6.1,3.7,9.5,4.6-1-1.2-1.3-2.9-1.2-4.4ZM472.1,460.9c-5-.9-9.1-2.5-12.8-6h-5.4c5.7,6.7,16,12,24.5,9.5-1.9-1.6-4.2-3-6.3-3.4ZM385,463.5c.3-1.7.2-2.8,0-3.5-1.3,1.4-2.1,1.9-3.7,2.4l3.7,1.1ZM492.9,470.4l-14.1-6.4v6.4c4.1,1.5,11.5,2.3,14.1,0ZM593.1,467.7c.7-.6.7-2.8.5-3.4l-12.7,1-9.9.9c.6,1.1,1.5,1.9,2.6,2.2,5.3,1.6,15.4,2.3,19.6-.7Z"/>
      <path d="M557.3,312.3c-2.2.1-4.2.3-6.2,0-6.1-.7-10.3-4.8-11.3-10.9l-5.5-33.2-10.9-65.2-6.2-35.9c-1.2-6.9,4.8-13.6,11.5-14.1l4.8-.4,18.7-.3,17.2-.4,17.3-.4,15.9-.4,15.3-.4c3.5,0,6.9-.7,10.1.6,4.9,1.8,7.5,6,7.9,11.3l-3.4,24-8,53.9-8.5,57.6c-.6,4.4-2.9,8-6.9,10s-6.7,1.5-10.2,1.7l-6.4.4-6.7.4-7.6.4-6.7.4-7.6.4-6.9.4ZM566.2,311l7.4-.4,6.7-.4,7.6-.5,5.9-.4,7.1-.4c6.6,0,13.4-3,14.5-10.1l5-33.8,5.9-39.6,7.1-48,2-15.1c.3-5.4-4-10.8-9.2-10.8h-14.5s-17.2.4-17.2.4l-15.5.4-17.3.4-17.6.4-14.5.4c-6.7.2-12.5,6.7-11.3,13.8l9.2,53.8,6.8,40.4,6.5,39.4c.7,4.5,3.2,8.2,7.4,9.9s7.2.8,10.9.6l7.4-.4Z"/>
      <path d="M597.1,338.1c0,.6,0,1.8-.3,2.1s-1.1.6-2,.9v2.2s1.9-1.2,1.9-1.2c-.7,1.8-2.8,3-4.5,3.1-2.4.1-4.5-.4-5.3-2.8l1.4,1,.6-8.4v-16.9c-1.7,1.4-2.6,3.4-2.6,5.4l-.3,9.4c-.2,5.5-1.3,10.1,3.6,13.7-2.9-.6-4.4-3.6-4.4-6.3v-3.4s.3-9.7.3-9.7l.3-3.8c.3-4.5,3.5-8.6,7.9-9.2s3.9,0,5.3,1.2c2.6,2,2.1,5.8,2.1,8.6l-.3,12.4-.6,4.9-.5.2.3-3,.4-4.2v-15c0-2.4-2.1-4.2-4.3-4.6s-4.8.4-6.6,2.2l6.3.2-.7.7c-.1.1.1.8.1,1v4.9c.1,0,2.1,1.2,2.1,1.2v6.9c0,0-.4,6.2-.4,6.2ZM594.4,323.8c.7-2.1.8-4.1-.3-6.1l-4.4.4v6s4.7-.2,4.7-.2ZM593.7,339.3l.5-6.5c.2-2.7,0-5.1.7-7.8l-3.7.3v9.7s-.2,4.4-.2,4.4h2.7ZM596.2,339.9l.3-15c-2.2,3-1.4,6.4-1.6,9.6l-.3,4.8,1.6.6ZM589.6,339.6l.8-.2v-13.8s-.7,7-.7,7v7.1ZM594,344.1v-3s-4.5,0-4.5,0v3.2c0,0,4.5-.1,4.5-.1Z"/>
      <path d="M403.2,179.5h-7.3c-2.4.1-4.1-2.4-4.1-4.5v-5.2c0-1.6,1.8-4.2,3.6-4.2l7.7-.3c2.3,0,4.5,1.9,4.5,4.2v5.8c0,2.2-2.1,4.2-4.4,4.2ZM404.1,177.4c.8-.7,1.6-2,1.6-2.8v-5.3c-.1-1.2-1.4-2.2-2.6-2.1l-6.9.2c-1.3,0-2.5,1.5-2.5,2.8v4.8c0,.9,1.2,2.5,2,2.5h8.4Z"/>
      <path d="M426.8,173c-.6,1,.1,3.8,1.7,3.8h9.9c0-.1-.1,1.9-.1,1.9l-10.1.2c-1.7,0-3.5-2.3-3.6-3.9v-5.5c-.1-1.9,1.6-4.5,3.6-4.6l10.1-.4v2s-9.9.4-9.9.4c-1.6,0-2.3,3-1.8,4.2l11.7-.3v2c0,0-11.6.3-11.6.3Z"/>
      <path d="M441.5,172.8c-.5,1.8.6,3.8,2.3,3.8l9.3-.2v2c0,0-9.7.2-9.7.2-2.2,0-4-2.4-4.1-4.4v-4.1c0-2.1,1.1-5.3,3.7-5.4l10.1-.4v1.9s-9.8.5-9.8.5c-1.8,0-2.5,3-1.8,4.2l11.4-.3.2,1.9-11.7.4Z"/>
      <path d="M462.5,173.2l-5,4.7c-.2.2-1,.5-1.2.5s-.7-.5-1.2-1l6.6-6.3-6-5.1c-.3-.3-.4-1.2-.2-1.5s1.2-.5,1.6-.2l6.3,5.4,6.1-5.6c.2-.2,1.4-.2,1.6-.2s.2,1.3-.2,1.6l-6,5.6,6.2,5.5c.2.2.2,1,0,1.2s-1.4.3-1.6,0l-5.5-5c-.2-.2-.8-.2-1,0l.3.4,5.3,4.6-10.4.3,4.8-4.7-.4-.3Z"/>
      <path d="M259.2,261.9l-.5,7.7c-.1,1.6-.6,2.7-2.1,3.1s-3.1-.5-3-1.8l.4-5.5.4-5.9.4-5.9c.2-2.9.7-5.8-.3-8.5-1.9-.7-4.4-1.2-5.7-2.4s.5-3.7,1.8-4.2,3.8,0,4.9,1.7l-3.4-1.1c-.5-.2-1.6.7-1.8,1.2s-.2,2.2.4,2.4l2.9,1.1-.2-2.2c0-.4,1.1-.7,1.5-.9l.8-.4c0,0,4.7,1.7,4.4,5.8l-1.1,15.8ZM255.8,243.6l-.9-1.7-.6.3,1.5,2.7c.7,2.9.3,5.8,0,8.8l-.4,5.5-.4,5.9-.4,5.2c0,.7,1,1.8,1.7,1.6,1-.2,1.6-1.1,1.6-2.1l.4-6.8.3-5.5.6-11.6c0-1.3-1.1-3.2-2-3.6s-1.4-.2-1.4,0l.3,1.1c0,0,.1.1.6.3.4,1.6.5,3.6.4,5.4l-.3,5.5-.4,6.3-.4,5.5c-.1,1.7-.3,3.3-.8,4.9-.2-3.4.3-6.1.5-9.2l.5-7.5c.2-3.7.5-7.3,0-10.7l-.4-.2Z"/>
      <path d="M377.6,174.1v5.7c0,0-2.1,0-2.1,0v-13.7s2,0,2,0v5.9c.1,0,12.2-6.1,12.2-6.1.2,0,1-.2,1.1,0l.4,1.4-11.8,5.8,11.8,5.5c0,.5,0,1-.2,1l-1.4.4-12-5.7Z"/>
      <path d="M423.2,177c.4,0,.9,1.4.6,1.6s-1.1.4-1.5.4h-8.8c-2.4.2-3.8-2.8-3.8-4.8v-9c0,0,2.1,0,2.1,0v9c0,.8.3,1.9,1,2.5s1.4.5,2.5.5h7.9Z"/>
      <path d="M606.9,117.4c0,1.9-10.4,1.8-11.1,0-1.1-2.8,11-3.5,11.1,0ZM605.2,116.7c-2.4-.9-4.9-1.2-7.1,0h7.1Z"/>
      <path d="M246,245.5l2.5.3c-.8.7-2.2.9-3.1,0s-1.7-3.1-1.4-4.6,1.2-3.5,3.3-3.9c-1.1,1.3-2.2,2.4-2.5,3.4-.6,1.7,0,3.4,1.1,4.9Z"/>
      <path d="M312.4,147.4c-3.1-3.2-4.3-9.6-.3-12.1-2.8,3.8-1.9,7.7.3,12.1Z"/>
      <polygon points="333.5 182.3 329.4 175.5 329.6 174.9 334.1 182.3 333.5 182.3"/>
      <path class="st0" d="M248.5,355l-5.1.3-6.8.4-7.6.4-7.3.3.7-15,.3-4.8c.2-3.9,2.6-2.5,4.4-6.3.8,0,2-.3,2.4-.6s.2-1.7.2-2.3v-1.9c0-.5-1-1.1-1.5-1.2l-2.6-.5v-6.9s4.1-.2,4.1-.2c.7,0,1.3-1.4,1.1-2s-.7-2-1.2-2.1l-2-.3c.2-.5.8-1.6.6-2l-1.2-1.8c4-.2,5,2.7,9.9,2.5l11-.6,17.1-.9c2.3-.1,3.1-1.5,4-3.2,1.2-.6,2.4-1.4,3.1-2.8l5.8-11.8.7-1.8c1.1-.3,2.3-1,2.7-1.9l5.2-10.5,1.4-3.9c1.7-.1,2.9-1,3.6-2.4l5.5-10.6,1.2-3c.5-.3,2.3-.8,2.7-1.6l7.1-13c.5-1,.5-2.3.2-3.3.6,0,2.2-.4,2.6-1.1l8.8-13.7,13-.7,9.7-.4,14.8-.4h52.5s14.8.4,14.8.4c3.3,0,6.3.6,8.7,3.3s3.8,4.6,4.2,7.5c4.4,27.1,7.7,54.1,11.1,81.4l3.3,25.9-6,.4-6.7.4-6.7.4-5.9.4-6.7.4-7.2.5-5.9.4-6.7.4-7.2.5-5.5.4-7.1.5-5.9.4-6.7.4-5.9.4-6.7.4-6.7.4-5.9.4-7.1.4-6.7.4-6.7.4-6.3.4-7.2.5-5.5.4-7.1.4-7.2.4-6.7.4-6.7.4-6.7.4-6.7.4-6.7.4-6.3.4Z"/>
      <path class="st0" d="M168.1,384.2l5.5-.6,5.9-.4,5.5-.4,6.7-.5,5.9-.4,5.9-.4,6.7-.4,4.6-.3,11.9-.8-1.5-1.3,22.1-1.4-.2.5-5.9.6c2.4.8,4.4.1,6.6-.1,4.6-.6,12.4-1.9,12.2-4.9-.3-6-27.1-6.7-35.2-6.6.2-1,.3-2.4.2-3.1l-3.4-1.6.2-4.8,4.5-.3,6.7-.4,7.6-.4,6.7-.4,6.7-.4,7.2-.4,6.3-.4,6.7-.4,6.7-.4,6.7-.4,7.2-.4,6.3-.4,6.7-.4,6.7-.4,7.2-.4,7.1-.4,5.5-.4,6.7-.4,6.7-.4,6.7-.4,5.5-.4,7.2-.5,6.7-.4,5.9-.4,6.3-.4,6.7-.4,6.7-.4,5.9-.4,7.2-.5,6.3-.4,6.7-.4,6.7-.4,6.7-.4,5.9-.4,6.9-.4.8,6.5,5.4,2.6.3-.4-5.2-2.6-.2-3.6-9-71.8-5.5-37.8c-.7-5.1-3.5-9.1-7.7-11.7l7.3.3,9.4,1.4c-2.3-1.2-5-1.7-7.8-1.8l-16.8-.8-13.5-.4h-49.6s-16.1.4-16.1.4l-10.9.4-12.5.5c2.6-4,5.3-7.5,8.6-11.5-5.6-.7-11.3,3.3-16.7,5.3,4.7-3.6,10.5-5.6,16.4-6.1h3c0,0,4.7-.5,4.7-.5l9.6-.3,3.8-.2,8-.3,12.5-.3,14.7-.4,15.2-.4,15.9-.4,20.7-.4h48c9.5-.1,19.2,4.9,21,14.7l6.3,33.8,13.8,77.1,5.1,28.7c0,.4-.2,1.6-.4,1.9s-1.2.7-1.8.6l-43.1-4.4c-4.6-.5-8.7-1.3-12.9-2.7l-.4.2c2.5,1.2,5.3,2.1,8.3,2.4l16.6,1.9,30.3,3.1c3.3.3,6.1.3,9.3,0l6.3-.4,7.2-.4,6.7-.4,5.9-.4,7.1-.5,6.7-.4,5.9-.4,7.1-.5,5.9-.4,7.1-.5,6.7-.4,7.6-.4,7.2-.4,6.8-.4,5-.2-.2-2.8,7.4,2.5c1.1.4,2.1,1.1,3.1,2.1-1.6,1.7-3.4,2.3-5.6,2.6l-4.6.5-5.9.4-5.9.4-6.7.4-6.7.4-6.7.4-6.7.4-5.9.4-6.7.4-6.7.4-6.7.4-6.7.4-7.1.5-5.9.4-6.7.4-6.7.4-6.7.4-6.7.4-5.9.4-7.2.4-6.7.4-6.7.4-6.7.4-7.2.4-7.1.4-5.9.4-7.2.5-6.3.4-7.2.4-7.2.4-6.7.4-6.7.4-5.1.3-4.6.3-5.9.4-6.7.5-5.9.4-6.7.4-5.9.4-6.7.4-6.7.4-5.5.4-7.1.5-5.5.4-6.7.4-7.2.5-5.9.4-6.7.4-6.7.4-5.9.4-6.7.5-5.5.4-6.7.5-5.5.4-6.7.4-5.9.4-7.1.5-5.5.4-6.7.5-5.5.4-6.7.4-6.7.4-5.9.4-5.9.4-7.1.5-5.5.4-5.9.4-6.3.4-5.9.4h-10.1c0,0-4.7,0-4.7,0-1.9,0-4.2-.4-6.4-.7-.7,0-.8.2,0,.4,3.9.9,7.4,1,11.2,1l15.1-.3,5.1-.4,5.5-.4,6.7-.5,5.9-.4,6.7-.4,5.9-.4,7.1-.5,5.9-.4,5.9-.4,6.7-.5,5.5-.4,7.1-.5,5.5-.4,6.7-.5,5.9-.4,6.7-.4,5.9-.4,6.7-.4,5.9-.4,7.1-.5,5.9-.4,5.9-.4,6.7-.4,7.1-.5,5.5-.4,6.7-.5,5.9-.4,6.7-.4,5.9-.4,7.1-.5,5.5-.4,6.7-.5,5.9-.4,7.1-.5,5.9-.4,7.2-.4,6.7-.4,6.7-.4,6.7-.4,6.7-.4,7.2-.4,6.3-.4,7.2-.4,6.7-.4,5.9-.4,6.7-.4,7.6-.4,6.3-.4,7.1-.5,5.9-.4,7.2-.5,6.3-.4,6.7-.4,6.7-.4,6.7-.4,5.9-.4,6.7-.4,6.7-.4,7.6-.5,5.5-.4,7.1-.5,5.9-.4,6.7-.4,6.7-.4,6.7-.4,5.9-.4,5.5-.4,6.9-1c1.1-.2,2.2-1.1,3.1-1.9v5.5c.1,3.5-3.9,4.2-8.4,4.6l-6,.4-.5,2.7-7,.9-5.5.4-5.5.4-6.7.4-6.7.4-5.5.4-5.5.4-6.7.5-5.9.4-6.7.5-5.5.4-6.7.4-6.7.4-5.9.4-6.7.4-5.9.4-6.7.4-5.9.4-6.7.5-5.5.4-7.1.5-5.9.4-5.9.4-6.7.4-5.9.4-6.7.4-5.9.4-6.7.5-5.5.4-6.7.5-5.9.4-5.9.4-6.7.4-5.9.4-7.1.5-5.9.4-6.7.4-5.5.4-6.7.5-5.9.4-5.5.4-6.7.5-5.5.4-6.7.5-5.9.4-5.9.4-5.9.4-5.5.4-6.7.5-5.9.4-5.9.4-5.9.4-6.7.5-5.9.4-5.9.4-5.9.4-5.5.4-6.7.5-5.9.4-5.9.4-5.9.4-5.9.4-5.9.4-5.5.4-5.9.4-5.9.4-5.1.4-6,.4-.4-1.8c0-.3-1.1-.3-1.5-.3l-5.1.3c-8.8.6-17.3,1.1-26-.6-4.6-.9-5.8-2.6-7-1.3l-6.4-3.6c0-1.8,0-3.6-.7-5s-2.4-1.5-3.4-2.1l-.5-2.5c2.1-.7,1.2-2,2.7-3.1l.5-.3ZM475,357.3l.4-.7-15.2-115.5c-.4-2.8-1.3-5.2-2.8-7.4,1.4,3.7,2.1,6.7,2.7,10.6l14.9,113.1ZM472.5,357.8l-6.9-3.2-.7.3,7.1,3.3.5-.4ZM290.3,372.6l-1-1.1c-3.6-1.1-7.2-1.3-11.1-1.5-5-.4-15.6.1-16.4,2.5s.7,1.4,1.2,1.4l9.3,1.1c6.6.8,19.7-.6,17.9-2.5ZM168.4,384.5l-.3.4,10.3,5.2.7-.3-10.6-5.4Z"/>
      <path class="st0" d="M213.1,405.6l5.5-.5,5.4-.4,5.9-.4,5.9-.4,5.5-.4,5.5-.4,5.5-.4,6.7-.5,5.5-.4,5.5-.4,6.7-.5,5.9-.4,5.9-.4,5.9-.4,5.9-.4,5.9-.4,6.7-.5,5.5-.4,6.7-.5,5.5-.4,6.7-.5,5.5-.4,5.9-.4,5.5-.4,6.7-.5,5.5-.4,6.7-.5,5.9-.4,5.9-.4,5.9-.4,5.9-.4,7.1-.5,5.9-.4,6.7-.4,5.9-.4,6.7-.5,5.5-.4,6.7-.5,5.9-.4,6.7-.4,5.9-.4,6.7-.5,5.9-.4,5.9-.4,6.7-.5,5.9-.4,5.9-.4,6.7-.5,5.9-.4,6.7-.4,5.9-.4,6.7-.4,5.9-.4,6.7-.4,5.9-.4,6.7-.4,5.9-.4,6.7-.5,5.5-.4,7.1-.5,5.5-.4,6.7-.5,5.5-.4,6.7-.5,5.9-.4,6.7-.5,5.9-.4,4.6-.2-1.1,32c-2.3,3.3-6,4-9.9,4.3l-5.5.4-5.5.4-5.5.4-5.5.4-5.5.4-5.1.4-5.9.4-5.5.4-5.9.4-5.1.4-5.9.4-5.5.4-5.9.4-5.5.4-5.9.4-5.9.4-5.9.4-5.5.4-5.9.4-6.3.4-4.3.3-52.1,3.9-5.5.4-5.5.4-12.1.9-5.2.4-5.5.4-5.5.4-5.5.4-5.5.4-6.3.5-18.3,1.4-6.6.5-5.5.4-4.6.4-5.9.5-5.1.4-5.5.4-5.9.4-5.5.4-4.7.4-7.2.5c-.8,0-2.3-.3-2.9-.7-.1-1.9-.2-4-.7-5.6-.9-2.6-3.9-3.6-6.4-3.4l-21.9,1.8c-2.6.2-4.4,3.3-4.5,5.5l-.2,5.2-15,1.1c.6-3.7-.9-7.4-4.7-8.1l-33.9-6.4c-8.1-1.5-7.1-13.1-11.1-19.2l2.8,9.7c.9,3,1.8,5.9,4.1,8.4-1.9-.5-4.6-1.6-5.3-3.8l-3.3-9.7c-1-3.1-2.7-5.1-5.8-6.8l6.8-.6c.3,0,1.2,0,1.2.3s-.3.8-.5,1l-1.5,1.2Z"/>
      <path class="st0" d="M636.3,352.7l.2-9.2.5-11.7.4-12.3.4-12.2.4-12.1.4-12.3.4-13,.4-11.9.4-11.7.3-9.1.4-11.4.4-11.8.2-3.8.3-11.6.4-13.8.4-14.8.5-13v-19.2c0,0-.3-5.3-.3-5.3-.3-3.5-1.7-5.9-4.1-8.2s-2.4-1.9-4-2.3l-12.2-3.3-16.7-4.6h9c0,0,17.9.4,17.9.4l11.7.9,9.9,1.1,18.9,4.6,13.4,3.5c4.4,1.2,7.2,5.5,8.8,9.6s1.6,7.3,1.3,11.3l-.9,13-.4,5.1-.4,4.7-.9,11.3-.4,4.7-.5,5.5-6.6,74-4,46.5-3.3,38.1c0,.8-2.1,1.2-2.8.9l-18.3,1.5-6.6.5-4.3.3-10.9,1.1ZM650.4,126.1l15.1-.3,15.8-.3,3.9-.6c-.8-.3-1.6-.3-2.6-.3l-15.3.3-15.9.3-8.1.4c2,1.5,4.6.4,7.1.4Z"/>
      <path class="st0" d="M205.2,306.5l.3-1c-1.7.8-3.5.9-5.2.2-4.1-1.7-8-3.3-11.9-5.3l-1.6-8.7c.8-3.6.4-7-1.6-10.1-3.6-18-6.3-35.9-8.8-54.1s-1.3-8.7-1.5-13.2l-.3-6.5-.4-9.7-.5-9.2-.4-10.5-.3-12.9-.3-6.7v-18.5c.1-.7.4-2.4.8-3.1l7.2-9.9c.9-1.2,2.4-1.3,3.7-.9l21.9,6.4v-.6c-.1,0-20.3-6-20.3-6l4.8-.3c3-.2,5.6-.4,8.5.5l18.1,5.4-5.6.3-4.7.6h12.5c2.1,5.2,2.6,12.2,2.7,18.2l.2,12.9.2,26.3.3,7.2v19.1c-2,0-3.7-.1-5.4.2-2.6.4-4,2.7-4,4.9s1.4,4.8,4,4.8h5c0,0-3.4,35.8-3.4,35.8l-1,10.4-2.1,21.8-1.5,13c-1.6.2-3.2.2-5,0l-4.6-.4ZM184.6,139.5c-1,2.6.9,5.2,1.8,4.5s1.1-3,3.4-6.4,1.8-3.2,2.1-4.8c-1.5-1.5-6,3.5-7.1,6.4,2.1-2,3.5-3.7,5.9-5.6-1.1,3-3.4,5.7-4.9,9.8l-1.2-3.9ZM207.4,288.5l.6-6.7.3-8.7.4-10.1.5-10,.4-10.2.5-9.3c.6-12.4,0-24.6,0-37l-.4-38.7-.3-15.8c0-2.7-.9-5.5-1.3-8h-.7c.5,3.1,1.5,6.3,1.5,9.7l.3,31.8.4,35.3c0,6.9.4,13.5,0,20.3l-.4,8-.4,9.8-.4,10.4-.4,10.2-.4,11.7v7.4ZM196.7,184.9v-20.9c0-1.5-1.5-4.3-2.8-4.6l-16.1-4.7c-1.5.4-2.6,2.9-2.5,4.6l1.2,18.5c.2,3,1.8,5.3,4,7.1,6.6,5.6,16.3,4.8,16.3,0ZM187.1,245.1c3.9-2,1.2-18.9-2.8-18.8s-1.6,21,2.8,18.8ZM199.2,275.9c3.1.2,4.1-10.1-1-17.7s-1.7-1.3-2.4-1.1c-2.9.7-2.5,8.7-.5,14.1s1.3,4.6,3.8,4.8ZM207.1,300.4l.5-11.1c-.6.9-.7,1.4-1.2,2.8v-4c-.1,0-6.7-.8-6.7-.8-1.6,4.7.9,11.5,4.6,11s1.4-1.1,2.2-2.1v8.5s.6-4.2.6-4.2Z"/>
      <path class="st0" d="M494.8,433c2.5.9,5.4.8,7.7-.2l.3-2.9h2.3c0,.9-.1,2,.2,2.6s2,1.1,2.9,1l5.6-.5,5-.5c.8,0,1.4-2,1.5-3.1,2.3-1,5.2-.9,7.7-1l5.5-.4,5.9-.4,5.5-.4,5.1-.4,5.9-.5,5.5-.4,5.1-.4,5.5-.4,5.5-.4,5.9-.4,5.1-.4,5.1-.4,5.1-.4,5.1-.4,7.2-.5c-.3,5.5-.7,10.3-2.1,15.4l-6.2,22.4c-.6,2-1.6,2.9-3.7,3.1l-63.4,5.4-5.9.5-5,.4-5.5.4-7.6.6-4.7.4c-3.1.2-6.9,1.4-9.9.2l-14.1-6-7.1-3.5c3.9-.5,5.9-4.2,5.9-8.4v-28.5s5.1-.4,5.1-.4l4.7-.4v7.9s2.9.2,2.9.2l.8,1.4ZM500.3,468.6l4.3-13.6c.9-2.6,1.9-5.3,2-8.1v-12.2c0,0-.3.2-.3.2l-.2,11c0,6-5.4,15.6-5.7,22.7ZM495.7,468.5c0,.8,1,1,.7,0,1.6-9.6,3.3-18.7,4-28.4l-.8,3.9-3.9,24.5Z"/>
      <path class="st0" d="M240.3,139.6c0,2,.2,3.6,0,5.5-.6-4.3-.6-8.5-2.6-12.7l8.1-.6c.4-.5.9-1.5,1.3-1.5l2.4.4.4,7.3.4,23.7v5.5c0,0-.4,15.3-.4,15.3l-.9,14.2-.4,5.1c-.4,4.8-.8,9.5-2.8,14l-4.4,2.6c-.2-1-1.1-2.4-2.4-2.4h-8.6c-.3,0-1,.7-1.1.6l-.9-1h-4.3c0,.1,0-11.8,0-11.8l-.3-13.9-.3-26.7-.3-18.7c0-4-1.2-7.7-2.1-11.7s-1.4-1.5-2.1-1.7l-18.6-5.7,4.7-.3c1.6,3.3,5.9,1.6,10.6,2.7s8.1,1.8,12.7.6c.2-.3.3-1.7.1-2.3s-1.4-1-2-1.3l5.2-.4h4.1c0,0-.2,2.6-.2,2.6-2.1-.7-3,.4-3.8,1.8-.9.3-1.6.6-2.7,1.2l7.3,2.4c2.1,3.6,2.4,7.7,2.5,11.9l.4,44.6.4,23c1.6.6,3.1.7,4.9,0l-1.9-1.7-.3-10.6-.6-48.5c0-2.6,3.7-5.2,2.3-6.6-1.6,2.6-2.4,4.1-3.7,6.9l-.2-3.9.6,2,.6-5.7c.5-4.8,2.5-5.6,2.8-5.1l.5,1.1c-1.2.6-1.6,1.4-1.2,2.9s1.2,1.2,2.7.9l-1,2c2.1-.6,2.8-2.7,2.6-4.8s-.9-2.6-1.9-3-2.3,0-3.6.6v-4.4c0-.6-1-1.6-1.7-1.5,1.4,2,1.7,5,.7,7.5l-.4-5.5-.6.2v5Z"/>
      <path class="st0" d="M700.5,188.8c0,11.3-3.4,28.4-9.8,37.7l.4-6.5.4-5.4,2.9-32,1-11.7.4-4.7.4-5.1.9-13.4.4-4.3c.2-2,0-3.7-.5-6.1,2.8,1.1,5.3,3,7.1,5.6,6.4,8.8,9.7,19.6,11.3,30.4,1.6,10.6.9,21-2,31.4s-4.1,12.6-8.3,18c-3.9-.6-7.6-.4-11.5,1.1,4-9.6,6.8-19.4,7.3-29.8v-13.5c0-4.2-.9-8.3-2-12.1l1.4,17.1v3.4ZM710.2,159.8c1.8-1.4.4-4.2-1.2-5-3.5-1.7-9.3-3-10.3-1s.8,6.7,3.9,7.4,5.6.1,7.6-1.5ZM704.5,184.7l-.2-3.2c0-.7.3-2.1.7-2.6s1.8-.8,2.4-.7l5.1.8c-2.1-1.5-5.1-2.2-7.5-1.2s-2.4,3-2.4,4.7.5,3.7,2.3,4.4,4.4,0,5.9-1.2l-5.1.6c-.6,0-1.3-1.2-1.3-1.8ZM701.8,210.4c-1.8-2.1.4-6.5,3.2-6.3l6,.6c-1.5-2.2-7.1-2.2-9.4.4s-1.7,3.6-1.1,5.5,1.7,1.5,2.4,1.4c4.9-.7,10.4-1.8,9.2-6.1-1.2,4.2-8.5,6.6-10.2,4.6Z"/>
      <path class="st0" d="M693.9,340.5l-3.4,3.7-10.1.5,1.4-16.5,3.6-42.2,1.4-15.2,7.7-.5c-2.8-1.1-5.2-.5-7.7-.3l.7-7.7,3.9.3c3.2,3,4.6,6.9,4.9,11.2l.5,7.3v27.6c-.1,0-.5,18.3-.5,18.3l-.3,5.1c-.2,2.8-.7,5.9-2.2,8.5Z"/>
      <path class="st0" d="M243.4,223.4c3.1-2.6,5.2-6.2,5.9-10.3,2-11.5,2.5-22.9,2.8-34.5l.3-15.5v-11c0,0-.3-12-.3-12-.2-9.2-.4-18.2-1.6-27.4s-4.7-9.8-10.1-13.5l3.6-.3c3-.2,5.2-.1,7.4,1.8,4.1,3.6,6.5,4.5,7.3,12s1.6,18.8,1.5,28.4l-.2,23.6c-.1,14.1-1.2,27.7-2.8,41.6s-3.9,11.9-10,17.4-3.6,2.2-5.7,2.3l.2-2.1c0-.3,1-.5,1.6-.7Z"/>
      <path class="st0" d="M492.1,423.4l5.4-.4v5.7s.7,0,.7,0l.2-5.8,4.5-.3,5.5-.4,6.7-.5,5.5-.4,5.9-.4,5.9-.4,5.5-.4,5.5-.4,5.9-.4,5.9-.4,5.9-.4,5.5-.4,5.9-.4,5.5-.4,5.1-.4,5.5-.4,5.9-.5,5.1-.4,5.5-.4,5.5-.4,5.9-.4c3.5-.3,6.6-.5,9.6-3.2-.3,4.3-2.9,8.8-7.2,9.2l-14.2,1.3-5.4.5-5.1.4-5.1.4-5.1.4-5.5.4-5.5.4-5.5.4-5.1.4-5.9.4-5.5.4-5.5.4-5.5.4-5.9.4-5.5.4-8,.7c-.9,0-1.5,2.2-1.7,3.3l-2.5.4-5.1.5-5.4.2.3-3.8-5.4.4c-3.1.2-5.8-.3-8.6-1.7v-3.9Z"/>
      <path class="st0" d="M394,448.9l-7.8-.2-.2-17.3,6.2-.6,5.5-.4,5.5-.4,5.9-.4,5.5-.4,5.5-.4,7.2-.4c.7,5,1.9,9.3,6.2,9l8.9-.7,1.3,3.7-14.7,4.2-17.4,4.8-17.4-.4Z"/>
      <path class="st0" d="M138.7,377.9l-4-1.9-1.4-4c-.2-.5-1.2-1.2-1.7-1.2s-1.5.6-1.8,1.1l-1.2,2.4-.3-4.4c-.4-6.2,8.7-7.4,15.3-7.8l6-.4,7.2-.4,6.7-.4,7.2-.4,6.7-.4,7.1-.5,5.9-.4,7.2-.4,6.8-.4c2.1-.1,4.8-.7,6.6,0s1.6,3.1,1.5,4.1l-1.7.5-.9,1.4c-.2.3-1.7.3-1.8.7l-.3,2.4-11.2,1.2-5.9.4-5.9.4-6.7.5-4.7.3-4.6.3-6.3.4-5.5.4-5.1.4-4.7.3c-1.2,0-2.7.4-3.3,1.1-1,1.1-1.2,2.5-1,3.9v1.1c.2.4-2.1-1.1-4.4-.5ZM139.8,370.8l-.3-.8-8.3-4.4v.7c-.1,0,8.6,4.5,8.6,4.5Z"/>
      <polygon class="st0" points="327.9 435.7 334 435.2 339.5 434.8 344.5 434.4 350.4 433.9 355.5 433.5 360.5 433.1 366 432.7 371.5 432.3 378.6 431.8 378.6 448.1 374.1 448 369.4 447.6 358.5 446.8 335.7 444.5 316.6 436.6 322.6 436.1 327.9 435.7"/>
      <path class="st0" d="M173.6,382.8l-7.1.7-20.4-10,5.6-.6,5-.4,5.9-.4,5.9-.4,4.6-.3,5.1-.4,5.5-.4,7.1-.5,5.4-.4c2.5-.2,4.2-.1,6.5.9l19.7,8.8-6.4.4-5.9.4-5.5.4-7.1.5-5.5.4-5.9.4-6.3.4-6.3.4ZM170.3,377.3c-2.4-1.5-4.8-1.1-6.9-.3,1.9,1.8,5,2.1,6.9.3Z"/>
      <path class="st0" d="M187.3,416.6c.1-1.3.2-2.5-.3-3.5s-1.8-2.1-3-1.9c1.8,1.6,3.2,3.2,2.1,5.4s-1.6,1.9-2.4,2.1-2.6-.5-3.6-1.3v.7c-.2.2-.6,0-.9-.1l-19.9-5.8c3.1-4.1,2.5-12.5.1-17.5l8.9-.5.5,3.9,5.2,2.9c1,.6,2.2.7,3.3.6,4.3,1.3,8.5,2.4,13.1,2.5h12.3c0,1.9.2,3.2,1.1,4.6l-16.5,7.9Z"/>
      <path class="st0" d="M226.3,290.1c-1.4.7-3,2.2-3.4,4l-.8,4.2c-.5-4.3,1.2-8.6,5.4-9.2.2.6.3.6.1.7l-1,.2.3.3,15,1.1c3.7-3.3,10.4-3,12.7,2s-.3,9.7-4,12-7.7,1.3-10.8-.9-2.3-.6-3.5-.8l-10.1-1.4c-1.1-.1-2.5-.7-3-1.4-1.1-1.8-.2-8.8,3.5-10.3l-.5-.5ZM239.7,298.4c.8-1.5.1-3.4-1-4s-3.3-.5-4.3.7c-1.5,1.7-1.1,4,.5,5s3.8.5,4.8-1.6Z"/>
      <path class="st0" d="M265.1,440.5v41.3c-2.1,2.5-6.2,2.6-8.5.3v-45.3s2.7,1.5,2.7,1.5c1.8,1,3.5,1.5,5.8,2.2Z"/>
      <path class="st0" d="M298,239.6l-5,.2c2.7-4.2,5-7.9,8.1-11.5,6.1-7,18.1-14.3,26.9-15.4-3.9,4.9-7.3,9.5-10.6,14.5l-7.4,11.3-6.8.6-5.3.3Z"/>
      <path class="st0" d="M381.8,453l-12.7-.9-18.8-1.4c6.5,3,12.8,4.9,19.5,5.4l5.1.3,7.1-.2c.5.9.6,2.4.2,3.6h-10.8c-9-.6-17.5-3-25.8-6.4l-27-10.9c-8.5-3.4-16.8-6.5-25.7-8.9v-3.4c-.1,0,10.7,3,10.7,3,.1-1.9-.2-3.8-1.4-5.5,2.6-1,5.3-.4,7.5,2.1.3-1.5-1.1-2.1-2.2-2.6,2.9-.3,4.7,2.3,4.7,4.9v3.6c0,0-2,.6-2,.6.9.1,1.9.1,2.9,0l20,8.2,15.3,6,.7-.3-10.2-4.3,25.8,2.4,4.6.4,4.3.3,8.2.4c.2,1.2.3,2.2,0,3.8Z"/>
      <path class="st0" d="M384.3,453.5v-4.1s8.4.3,8.4.3l11.2.3,21.9.4h30.7s8.1-.3,8.1-.3l4.1-.8c1.7-.4,3.4-1,5.2-.2.4,1.1.4,3.1,0,4.3-1.6.7-3.4.5-5,.6s-2.9,0-4.1-.4l-12.9.6h-30.7s-23.2-.3-23.2-.3l-13.7-.3Z"/>
      <path class="st0" d="M213,422.8c.7,2.2,1.6,3.5,4,3.1v29.3c-2.1,2-5.2,2.1-7.6.3v-38s.3-4.2.3-4.2l-3.8-4.4,4.9-1.5,3.8,10.8c.9,2.7,2.5,4.6,5,6.2l-2.7.6c-3.5.8-2.3-5.5-6.1-9.8l2.3,7.6Z"/>
      <path class="st0" d="M281.2,184.5h-5.7c0,.1.2-33.2.2-33.2,0-1.3-1-2.9-1.5-4.1,2.9,3.2,5.8,3.8,9.9,4.6l-2.9,32.7Z"/>
      <path class="st0" d="M393.2,119v2.7c0,.9-.2,2.6-1.1,3.2l-8.8-1.3v-4.3s-1.8.3-1.8.3v-4.1c0,0,5.1-1.2,5.1-1.2l.2-4.7c6.9,1.6,14,1.6,21.3.2v7.8s-8.9.5-8.9.5l-6.3.2c-1.2,0-3.4-1-4.6-1l-5.8.3c3.5.9,6.6,1.1,10.7,1.5Z"/>
      <path class="st0" d="M223.9,378.9c-2.8-1.8-6.1-3.2-9.4-4.7l-6.4-2.8-5.3-2.3,5.5-.5c0,.6-.3,1.3,0,1.6,1.3,1.6,6.9,2.8,12.3,6s2.6,1.1,3.6-.3c-.5-.7-1.7-1.4-2.6-2,1.5.2,2.9.7,4.5,1.5,3.3,1.6,6.8.3,6.4-.4s-.5-.7-.8-.9l-4.5-2.3c1.2-.4,2.6-.7,3.3-1.1s.3-1.5,0-1.7l-2.1-1.2c1.7-.2,2.8.4,4.5,1.1l4.1,1.8c2.7,1.2,5.1,3.5,8.5,2.9l-12.9-5.7,9.7.3c4.9.1,16.6,2.5,16.6,5s-6,3.3-9.9,3.9-6.6-3.3-7.4-2.2l-1,1.4c-.5-.9-2.1-1.4-3.3-1v1.5c0,0-11.3.7-11.3.7-.7,0-1.6.5-2.2,1.2Z"/>
      <path class="st0" d="M268.1,305.2l-5.7.5-6.9.2,7.3-15.2,15.1-.6-6.2,12.5c-.3,1.6-1.6,2.9-3.6,2.7Z"/>
      <path class="st0" d="M267.4,289.6c-.6,0-1.2,0-1.5,0s-.5-.9-.5-1.2l7.5-14,6.7-.3,7.8-.3-6.3,13c-.5,1.1-1.4,2.2-2.7,2.3l-11,.6Z"/>
      <path class="st0" d="M289,272.6l-9.7.6c-1.6,0-2.7.3-4.2-.5l8-14.4,9.2-.6h5.4c0,0-7,13.4-7,13.4,0,.2-1.3,1.4-1.7,1.5Z"/>
      <path class="st0" d="M444.5,440l-1.6-4.6-9.5.8c1.2-2.7,1.5-5.3,1.1-8.5l12.2-.9c2.4,1.4,5.1,1.1,7.7-.2s3.2-.7,5.2-.7c0,3.8-.8,8.3-3.6,8.5l-9.1.7,1.5,4.1-3.9.8Z"/>
      <path class="st0" d="M293.8,256.9l-8.6.4c5.8-1.5,8.4-7.9,6.7-13.7s-.2-1.6,0-2.1,1.4-1,2.1-1l7.7-.4,5.9-.3c.7,1.2.3,2.4-.3,3.5l-6.4,11.8c-.4.7-1.7,1.5-2.5,1.6l-4.5.3Z"/>
      <path class="st0" d="M236.6,129.7l.3-15.1.4,9.1c.3-1.1.6-2.3.6-3.1l.2-11.4c0-2.2.1-4.1.6-6.5l6.2,5.1c.8.6,2,1.9,1.9,3l-.9,19.9c-1.4-3.6-5.9-2.8-7.7-1.3s-1,.3-1.7.4Z"/>
      <path class="st0" d="M221.5,100.8v16.2c-3.9.5-7.2.5-11.3,0v-16.2s5.9.4,5.9.4c1.6,0,3.2-.1,5.3-.3Z"/>
      <path class="st0" d="M468.3,440.6c.1-1.3,0-2.7-.2-4.3l4.9-.2c.6.8.8,2.8.4,3.9-1.9.6-3.7,1-5.3.9l-.3-.3c-.7,1.1-2.1.4-3.2.3-12.5,1.3-24.4,4.5-36.3,8.3s-3,.6-4,.6l-9-.5,22.5-6.5c8.7-2.5,17.4-4.1,26.3-5.1.5-.7,1.4-1.4,2-1.4s1.8.9,1.8,1.5v2.5c0,0,.6.4.6.4Z"/>
      <path class="st0" d="M617,447.6c-1.7,2-5.1,1.9-7,.2v-11.8s1.5-7.5,1.5-7.5l3-5.3h3s-.1,19.8-.1,19.8l-.4,4.4Z"/>
      <path class="st0" d="M569.3,103.8c-5.4,1.3-11.4,1-16.6-.4l.7-6.4.3-3.5,4.7.7c3.4.5,7.1.3,10.4-.6l.5,10.2Z"/>
      <path class="st0" d="M331,448.5l-18.3-1.8c-10.1-1-20-2.6-29.7-5.5l.9-3.4c7.1,1.8,14.1,3.5,21.5,4.5s8.8.4,13,1.5,8.5,3.2,12.6,4.8Z"/>
      <path class="st0" d="M286.4,255.8c-2.5,1.3-4.8.7-6.8-.6-4-2.6-4.3-9.1-.9-13.1s7.3-4,10.2-1.2c4.4,4.3,2.9,12.1-2.5,14.9ZM287.9,245.7c-1.4-2.2-4-2.3-5.7-.9s-2.1,3.5-1.1,5.4,2.8,2.9,4.8,2.1,3.5-4.3,2-6.6Z"/>
      <path class="st0" d="M216,365.1l-2.2-1-.6-4.5c.7.6.8,1,1.3,1.8l1,1.6v-3.5s-2.3-.6-2.3-.6c-.2.2-.8.2-.7,0l.3-1.2.5-19.5h5.1s.7,3.7.7,3.7l-.6,13.3c-.1,3.3,2.6,6.6,1.5,6.8l-1.8.4-1.8.5c-.4.1-.4,1.3-.4,2.3Z"/>
      <path class="st0" d="M293.5,148.3c-1.6,1.7-3.6,2.5-6,2.2s-3.9-1.7-5-3.8-1.2-6.1.8-8.6,4.6-3.6,7.6-2.7,4.2,3.3,4.6,5.4-.1,5.5-2.1,7.5ZM293.2,143.6c.5-2.4-.8-4.3-2.4-4.8s-3.9,0-5,1.8-1.2,3.5,0,5.2,2.7,1.7,4.4,1.3,2.7-1.8,3-3.5Z"/>
      <path class="st0" d="M468.1,448.4l-4,.8-8.6.5-3.8-5.7,11.9-1.9,5.7.2c.2,1.8-.2,4-1.3,6.2Z"/>
      <path class="st0" d="M278.9,241c-4.4,4.2-4.3,12.1.9,15.3-4.7,0-8-3.3-8.4-7.9s1-6.9,3.5-9.3,7.5-3.5,11-.5c-2.8-.4-5,.6-6.9,2.4Z"/>
      <path class="st0" d="M398.3,127.2l-4.8-.5c-.8-.6,0-3.1,1.3-3.1l8.8.3c3.3.1,6.7-.8,10.1-1.1l-.2-2.3c1.5.2,3.2.5,4.1,1.3s.5,2.6.3,3.4l-11.8,2h-7.7Z"/>
      <path class="st0" d="M593.1,467.7c-4.1,3-14.2,2.3-19.6.7s-1.9-1.1-2.6-2.2l9.9-.9,12.7-1c.2.6.2,2.9-.5,3.4Z"/>
      <path class="st0" d="M472.1,460.9c2.1.4,4.4,1.9,6.3,3.4-8.5,2.5-18.8-2.8-24.5-9.3h5.4c3.7,3.4,7.8,5,12.8,5.9Z"/>
      <path class="st0" d="M224.5,93.3v4.6c-5.8,1.2-11.2,1.1-17,0l-.2-5c2.7.5,5.2.9,7.9.8l9.3-.4Z"/>
      <path class="st0" d="M314.1,442.1c-9.8-.4-20-2.2-29.7-5.3l-.6-1.6,6.8-.5c8,1.9,15.4,4.2,23.5,7.4Z"/>
      <path class="st0" d="M221.7,334.1c.2,1.8.2,4.7,0,6.4s-1.3.9-1.6.6-.6-1.1-.6-1.5v-3.5s-5.4.3-5.4.3v-5.9c.1,0-2.7-2.1-2.7-2.1v-6.6s5.7.2,5.7.2c-.9,1.6-1.3,2.6-1.2,4v4.7c1.1,1.6,2.8,3.3,4.2,4.6.5-1.6-.6-1.7-1.5-2.4l4.4.4-1.2.8Z"/>
      <path class="st0" d="M385,448.6c-.8-1.3-1.2-2.6-2-2.9-1.5-.6-2.2.3-3.2,1.8v-15.8c-.1,0,5.2-.4,5.2-.4v17.2Z"/>
      <path class="st0" d="M393.8,122.9v-3.7c2-1.5,4.4-.2,6.7-.4l11.8-1v4.1c-4,.9-7.9,1.5-12.1,1s-4.2-.3-6.4,0Z"/>
      <path class="st0" d="M449.5,438.9l-1.3-2.9,6.7-.4c5.2-.3,5.5-4.4,5.7-10.1h3.3c0-.1.3,8.4.3,8.4,0,.8,0,1.7-.3,2.2s-1.6.8-2.2.9l-12.3,2Z"/>
      <path class="st0" d="M281.4,140.2c-1.2,4.4,0,8.6,3.8,10.6-3.5,0-6.6-2-7.6-5.3s.1-8.9,3.8-11.3,5.7-1.5,8.2.2c-4,.2-7.2,2.2-8.2,5.9Z"/>
      <path class="st0" d="M479.1,112.3c0,2-14.2,1.7-19.9,1.3s-3.8-.6-5.4-1.5l6.1.4c.4,0,1.1-.9,1.3-1.1s-.9-.9-1.3-.8l-1.1.2c-.3,0-.5-.8-.5-1.2l6.4,1.1,8.8-.6c1,0,2.3,1,2.8,1.7.6-.4,1.4-.9,1.8-.8s1.1.9,1.1,1.4Z"/>
      <path class="st0" d="M273.6,233.3c-6.5,1-9.7,7.5-9.1,15s2.3,5.4,4.2,8c-1.6-.7-3.3-1.9-4.3-3.4-3.8-5.9-2.5-13.5,2.7-18s13.2-3.8,17.4,1.8c-.7-.1-1.9-.5-2.3-.9-2.5-2.1-5.6-3.1-8.8-2.6Z"/>
      <path class="st0" d="M214.6,125c0,.4.8.9,1.3,1.4-3.2.1-6,0-9.3-.6v-7.5c0,0,8.2.8,8.2.8v5.9Z"/>
      <path class="st0" d="M384.5,459.4l-.4-3.5,9.7-1.2c4.7-.6,9.2,0,14.3.3l-23.6,4.4Z"/>
      <path class="st0" d="M240.5,219.3v7s-10.6-.2-10.6-.2l.3-8.9c4.1-.5,10.3-.7,10.3,2ZM231.7,223.8c2.2.5,3-.9,3-2.4s-.8-2.2-2.3-2.2-1.9,1.1-2.1,1.9.5,2.5,1.3,2.7ZM238.1,224.1c1.6-.3,1.8-1.8,1.7-3.1s-1.3-2.1-2.6-1.9-2.1,1.8-1.9,3.2,1.4,2.1,2.8,1.8Z"/>
      <path class="st0" d="M475.2,460.3c1.5-.7,2.7-1.9,3.1-3.9l.5-19.2v-12.7c.1,0,1.8,0,1.8,0v28.7c-.1,3.2-2,6.7-5.4,7.1Z"/>
      <path class="st0" d="M217,314.6v6.3c-2.3.2-4.5,0-7.1-.5v-8.3s5.8,0,5.8,0c.7,0,1.3,1.8,1.3,2.5Z"/>
      <path class="st0" d="M224.8,316.7v7.2c0,0-2,.2-2,.2l-5-.3v-10.3s2.8.7,2.8.7l-.3,1.7c1.3.9,1.9,1.3,4.5.8Z"/>
      <path class="st0" d="M492.9,470.4c-2.6,2.3-10,1.5-14,0v-6.4c0,0,14,6.4,14,6.4Z"/>
      <path class="st0" d="M250.9,140.6l-.3-5.3-.3-6.3-.4-6c-.3-5.6-.9-12.8-4.5-15.8l-6.7-5.7-1.2,2.2c-.2-1.4.2-3.1,1.8-4.2,9.7,6.4,10,9.1,10.9,19.8l.4,4.6.2,4.2.4,10.3.2,17.7-.4.2-.2-15.8Z"/>
      <path class="st0" d="M224.5,332l-1.1-1.7c-.2-.3-1.2.7-1.4,1.1-.5,1.4-3.5.8-4.7,0s-1-2.2-.9-3l.3-3.7,4.3.8,4.5-.2v5c0,.6-.9,1.8-1.1,1.7Z"/>
      <path class="st0" d="M266.9,221.2v-4.2c.1,0-6.2-.5-6.2-.5,1.5-1.5,3.2-1.1,5.1-1.2l5.9-.3h4.2c-1.7,2-1.6,3.9-.8,6l-8.2.2Z"/>
      <path class="st0" d="M278.1,148.8c-1.3-.3-2-1.4-3-2.2l-1.7-1.4c-1.6-3-1-6.4.6-9.2s5.8-5.2,9.6-3.9c-1.7.4-2.9.9-3.9,1.9-4.2,3.9-4.9,9.9-1.6,14.8Z"/>
      <path class="st0" d="M478.7,114.5c.4,0,1.6-.7,1.7-.3l.4,2-28.5,1v-3.2c1.3.4,2.7.9,4,.9,7.5.5,14.7.3,22.4-.5Z"/>
      <path class="st0" d="M237.7,309.9h-3.6c0,0-6.2-2.6-6.2-2.6l14.9-.2c3.1.9,6.3.7,9-1.1l1.4.6c.2.1-.2,1-.5,1.1s-.5,0-1.1-.3c-1.3,1.6-2.9,2.3-5.1,2.4l-8.7.2Z"/>
      <polygon class="st0" points="225.6 124.5 217 124.9 217 119.2 225.6 118.3 225.6 124.5"/>
      <path class="st0" d="M223,221.7v3.2c0,0-4.6,0-4.6,0-2.1,0-2.8-2.5-2.6-4.1s1.8-3.3,4-3.4h3.2s-.1,4.3-.1,4.3Z"/>
      <path class="st0" d="M557.3,112.7h7.7c.3,2.3-1.6,3.6-3.7,3.7l-10.3.3c-.4,0-1.4-.6-1.5-1s.3-1.3.6-1.6c1.6-2,4-2.3,6.1-.7-2.2.5-3.4.6-4.4,2.5,2.6.6,5,.7,7.7-.1-2-.5-3.2-.4-5-.6l2-.5c.5-.1.7-1.2.8-1.9Z"/>
      <path class="st0" d="M266.6,249.2c1.4,4.7,5.2,7,9.7,7.5l3.1.7c-2.8.9-6.1.4-8.6-1.1-6.1-3.8-7.3-11.6-3.5-17.5s8.6-6.4,13.6-3c-2.1-.2-4.2-1.2-6.2-.8-6.4,1.4-9.9,8-8,14.2Z"/>
      <polygon class="st0" points="469.5 435.4 465.1 435.3 464.8 425.5 469.3 425.2 469.5 435.4"/>
      <path class="st0" d="M704,223.7c-3.7,3.8-8.5,5.6-13.9,6.2l2.9-4.2c3.2-2,6.7-2.9,11-2Z"/>
      <path class="st0" d="M448.2,449.6c-5.8.4-11.3.3-17-.4l14.5-4.1,2.5,4.5Z"/>
      <path class="st0" d="M241.6,199.7v10.4c-.2,0-.7.2-.8,0l-.2-1.1c-.3-6.3.2-12.4-.4-18.7v-37c-.1,0,.3-.2.3-.2l.3,17.6.4,23.5.5,5.7Z"/>
      <path class="st0" d="M242.2,223c-.7-.6-.7-2.8,0-3.3l4.6-3.1c1.6-3.7,2.1-7.4,2.5-11.4l.5-5,.4-5.1.4-5.9.4-7.4.2-21,.4-.2v21.5c0,0-.4,5.1-.4,5.1l-.3,5.5-.4,5.9-.4,4.3c-.6,7.5-1.1,16-7.8,20.2Z"/>
      <path class="st0" d="M155.6,410.6c3.9-.8,3.4-9.5,1.8-14.5s-1.4-1.4-2.3-1.8c4.4-3.7,7.5,9.4,4.1,16.6s-1.3,1.3-1.8,1.3-1.5-1-1.8-1.7Z"/>
      <path class="st0" d="M205.2,307.2l-.2,3.8-13.4-5-.2-3,9.9,4c.8.3,2.8.2,3.9.3Z"/>
      <path class="st0" d="M471.8,429.5l-1.3,3.8v-7.8c-.1-.3.7-.7,1-.6,1.7.2-.8,2,.2,3.8.5,0,1.7-.8,1.6-1.2s-.3-1.3-.8-2.4l5.8-.5-.3,12.8-2.2-5-2-4.1c-.6.2-1.8.8-1.9,1.3Z"/>
      <polygon class="st0" points="217 308 216.9 311.1 205.6 311.3 205.7 307.4 210.2 307.6 217 308"/>
      <path class="st0" d="M378.4,455.6h-7.8c-5-.2-9.9-1.5-14.4-3.5l22.2,1.7v1.7Z"/>
      <path class="st0" d="M470.5,454.6l2.5,1.7c.5.3,1.6.7,2.1.6,2.8-.6,3-8.2.2-11.9,1.7-1.4,1.9-3.1,2.7-5.3l-.4,14.4c.2,1.9-.3,3.7-1.8,4.7s-3.6,1.3-5.1-.5-.5-2.2-.2-3.7Z"/>
      <path class="st0" d="M296.9,141l-1.8-3.6,3.7-9c.2-.5,1.2-1.1,1.7-1.2s1.7,1,1.2,1.3l-.7.5c-.1,0-.3.4-.4.5s.7,0,1.1,0l-4.8,11.4Z"/>
      <path class="st0" d="M227.4,311.1c-3.1.6-7,.9-9.8.7l.4-4,8.4-.4c.1,1.6.3,2.1,1.1,3.8Z"/>
      <path class="st0" d="M164.7,390.4l3.8,2.9-9,.5.3-6.6c0-.8.8-2.2,1.4-2.6.3,1.5.5,3.5,1.3,4.2l2.2,1.7Z"/>
      <path class="st0" d="M281.7,219.7c-1.3,1.6-2.4,3.1-4.6,1.9s-2.1-3-1.2-4.7,2.9-2.6,4.4-1.3l1.9,1.8c.2.2.6.9.4,1.1l-1,1.2Z"/>
      <path class="st0" d="M268.1,306.3c-.8,2.5-2.6,2.4-4.4,2.5l-11.8.5,2.1-2.7,4.9.2,5.2-.3,4-.2Z"/>
      <path class="st0" d="M208.7,352.5v-7.8c1.5,0,2.3-.6,3-1.8l-.4,13.8c-1.5-1.1-2.6-2.7-2.6-4.2Z"/>
      <path class="st0" d="M165.1,385.3l-20.6-10.3c0-.2.2-.8.4-.8l1,.2,20.2,9.8c.1.4-.6,1.3-1,1.1Z"/>
      <path class="st0" d="M269.4,248l.8,3.4,3.2,3.4c-4.5-1-6.6-5.2-6.4-9.7s2.9-6.2,6-8.5c.9-.2,2.1-.2,3.6,0l-4.1,1.6,1.5.5c-3.5,1.8-5.3,5.2-4.5,9.2Z"/>
      <path class="st0" d="M292.1,433.6l-7.1.5v-3.2c.9-1.8,3.5-2.7,5.1-1.4s1.3.8,2.1.9v3.3Z"/>
      <polygon class="st0" points="380.6 119.5 377.2 120 377.2 111 380.6 110.6 380.6 119.5"/>
      <polygon class="st0" points="401 109 395.5 108.9 395.4 103.6 400.9 103.9 401 109"/>
      <path class="st0" d="M327.9,121c-.2-3-.6-6.2.3-8.9,1.1-1.3,1.7-2.5,2.1-4.7v13.9s-2.4-.4-2.4-.4Z"/>
      <path class="st0" d="M158.7,387.9l-.2,5.5-2.9-.9.4-4.8v-5.6c.1,0,3.3,1.4,3.3,1.4l-1.9,6.2c-.1,0,.5,0,.6-.2l.7-1.5Z"/>
      <path class="st0" d="M371.3,117.2l-.5.8c-.2.2.3.8.6,1.3h-2c-1.5-.2-2.4-5.2.1-8.2h3.7c-1.8,2.1-2.3,3.9-2,6.2Z"/>
      <path class="st0" d="M275.4,441.7l1.4-1-1.1-.2c-.1,0-.2-.2,0-.3s.6-.4.8-.4l3.5-.3c.5-.7.5-2.2.5-3.7h2.8c0,2.2-.3,3.8-1.5,5-.8.3-.6.2-.5.2l1.1.7c-2.1.8-4,.9-6.8,0Z"/>
      <path class="st0" d="M548.6,109.8c1.2-1.8,3.3-1.6,4.5-.5,2.6.5,6,1.1,8.8.9l4.8-.3c.8,0,1.4-.9,1.7-1.9l4.4,1c-5.2,2-10.7,2.2-16.2,1.6l-8.1-.9Z"/>
      <path class="st0" d="M366.6,118.4c-2.2.4-3.4-1.3-3.5-3.3s.1-3.6,1.6-4.7,2.6-.2,3.5.1c-2.4,2.3-3,4.7-1.6,7.9Z"/>
      <path class="st0" d="M265.1,218.5c.3,0,1,.6,1,.9s-.5,1.3-.8,1.3h-9.5c0,0,0-2.6,0-2.6,1.6.4,2.6.6,4.2.5h5.2Z"/>
      <path class="st0" d="M224.4,92.1c-5.5,1.1-11,1.2-16.7-.1,5.6-1.4,11.1-1.3,16.7.1Z"/>
      <polygon class="st0" points="449.6 449.7 446.8 444.9 450.7 444.1 454.1 449.7 449.6 449.7"/>
      <path class="st0" d="M521.1,114.3c-.6,0-2.5-.1-3.1.4-1.1,1-1,3.1-.6,4.7-.8,0-2.2-.2-2.8-.6s-.8-2.8-.1-3.4c2-1.7,4.6-2,6.9-1.5l.3.2c.7.4,1.6,1.1,1.9,1.8s.2,2.8-.6,3.1c-1.3.5-3.1.6-4.3.4-.8-1.4-.8-3.2.3-4.4s2.2-.3,2.4.2l1.1,2.9c.3-.2.7-1.7.4-2.2s-1-1.2-1.5-1.6l-.4-.2Z"/>
      <path class="st0" d="M469.1,455.1c0,1.5.2,3.2,1.2,4.4-3.3-.9-6.4-2.2-9.5-4.6l3.6-.2,4.7.4Z"/>
      <path class="st0" d="M568.4,92.7c-5,1.5-9.7,1.3-14.4-.2,4.9-1.6,9.7-1.3,14.4.2Z"/>
      <path class="st0" d="M221.4,369.1c-.2,1.6-3,3.7-4.8,2.9l-7.3-3.3,2-.3.3-4.1c0-.4,1.3-.2,1.6.1s0,1.3-.5,1.9l.9,3c.3,1.1,1.4,1.5,2.5,1.2s3.2.9,4,0l1.5-1.5Z"/>
      <path class="st0" d="M551.5,117.8c-3.1,0-6.1-.1-9.2-.7l3.2-.7-2.1-4.3c-.2-.3,0-1.2.2-1.4s1.2,0,1.3.2l1.5,3c1.1,2.2,2.1,3.1,5.1,3.9Z"/>
      <path class="st0" d="M372.6,116.7h1.3c.2,0,.4-.9.3-1.2l-.5-1.5c-.1-.4-1,.4-1.3.7,0-2.1,1.9-3,3.9-3.2v8.3c-1.9-.4-3.1-1.5-3.7-3.1Z"/>
      <path class="st0" d="M563.5,121.1c-2.6.2-4.6.1-7-.3v-2.4c0,0,4.4-.2,4.4-.2l2.7.5v2.4Z"/>
      <path class="st0" d="M220.6,359.3c-.3-.9-.9-2.4-.9-3.2l.6-14.7h.7c0,.1,0,6.9,0,6.9l-.5,11Z"/>
      <path class="st0" d="M157.2,405.9v-5.3c0-1.1-.9-2.7-2.2-3.2l-1.6,3.1c.2-2.3.6-4.7,2-4.9s1.1.6,1.2,1l1.3,5.4c.6,2.6-.3,5.5-1.8,7.9-1.6-1.4-2.1-3-2.2-4.6l1.3,1.8c.3.5,2-.6,2-1.3Z"/>
      <path class="st0" d="M510.6,118l1.6,1.2-3.6-.3,1.1-.9c.2-.2,0-.8.1-1.1,1.7-5.2,8.1-7.9,12.8-4.5-3.9-1.1-8.7-.6-11.1,2.9l-1,2.7Z"/>
      <path class="st0" d="M474.6,443.5l-1.3,2.9c-.6,1.3-2.7,1.7-3.5,1.2l.7-4.4c0-.3,0-1.3.3-1.2l1,.4,2.9,1.2Z"/>
      <path class="st0" d="M435.2,121.1c-5.4.9-10.3.8-15.7,0l6.2-.8c3.2-.4,6.2,0,9.4.8Z"/>
      <path class="st0" d="M260.4,436.5l-6.8-2.7c-.7-.3-1.2-1-1.2-2.4l5.8,1.5c1.2,1,2.1,1.3,2.2,3.6Z"/>
      <polygon class="st0" points="386.3 113.6 381.7 114.4 381.4 110.3 385.9 110.2 386.3 113.6"/>
      <path class="st0" d="M432.6,435.6c-1.1,2-4.8-2.8-4.1-7.1.2,1.5.5,5,2.7,4.6s1.4-3.7,1.7-5.4c1.7,2.2.8,5.7-.3,8Z"/>
      <path class="st0" d="M205,408c-1.4-.3-1.6-2.9-1.4-3.9l2-.4,4,3c-1.5.9-3,1.7-4.6,1.3Z"/>
      <polygon class="st0" points="225.6 224.9 223.8 225 223.9 216.7 226 216.9 225.6 224.9"/>
      <path class="st0" d="M501.5,432.1c-1.7.6-4.6.4-6.4,0v-2.3c0,0,6.6.4,6.6.4.2-.2,0,1.6-.3,1.9Z"/>
      <path class="st0" d="M227.8,224.1l-.2,1.2c0,.3-.7.5-1,.4v-7.9c.1,0,1.3.9,1.3.9,0-.4,0-1.2-.1-1.4l-1.1-.8,2,.3v9.2s-.5.1-.5.1l-.2-2.1Z"/>
      <path class="st0" d="M274,149.7c.4.8.2,2.8,0,4.1-2.8-1.8-3.7-5.3-2-8.6l1.9,4.5Z"/>
      <polygon class="st0" points="281.3 451.1 276.5 451.1 276.3 448 281.2 448 281.3 451.1"/>
      <path class="st0" d="M223.7,367.4c-3.5-.4-4,2.6-6.6,1.9v-2.9c0,0,6.6-.4,6.6-.4v1.4Z"/>
      <path class="st0" d="M267.6,127.2l-6.2.5-.5-2.8,6.1.2c0,.7,0,1,0,1.1l.5,1Z"/>
      <path class="st0" d="M302.7,431.7l-7.9-3.7c2.2-.3,4.3-.6,6.4-.2.6,1.1,1.2,2.8,1.5,3.9Z"/>
      <path class="st0" d="M242.9,130.7c-2.6.8-6.3.8-9.4-.2-.3-.9-.1-1.3.4-.4,1.6.2,3.7.3,4.9,0,1.6-1.8,4.8-1.6,6.2.7-.6,0-1.6,0-2.2,0Z"/>
      <path class="st0" d="M265.5,234.7c-.3.2-.9.6-1.2.5s-.6-1-.6-1.3c.6-2.3,3.3-4.5,4.5-3.6s.6,1,.7,1.4l-3.5,3.1Z"/>
      <path class="st0" d="M284.1,434.3l-3.8.6c.1-2.2.4-4.2,1.8-4.8s1.7.1,1.7.5l.3,3.6Z"/>
      <polygon class="st0" points="563.5 107.6 558.5 107.6 556.6 105.3 565.3 105.5 563.5 107.6"/>
      <path class="st0" d="M274.7,273.4l-2.2.4,7.9-13.2h.6s-6,10.8-6,10.8c-.2.4-.3,1.2-.3,2.1Z"/>
      <path class="st0" d="M155.6,406.5c-1.6-2.4-1.8-5.2-.5-8,2,2.3,1.9,5.4.5,8Z"/>
      <path class="st0" d="M263.4,439.1c-3.9-.3-.2-4.9-5.3-6.9,3.8,0,5.7,3.6,5.3,6.9Z"/>
      <polygon class="st0" points="255 305.4 254.1 303.5 259.9 294.4 255 305.4"/>
      <path class="st0" d="M555.7,119c-4.4.5-11.5.9-14.7-1.2l5.1.7c3.2.1,6.2-.4,9.5.5Z"/>
      <polygon class="st0" points="249.5 129.9 247.2 129.2 247.4 124.2 249.2 124.4 249.5 129.9"/>
      <path class="st0" d="M264.8,289.8l-2.5.3,6.4-10c-.3,3.1-4.1,6-3.9,9.6Z"/>
      <path class="st0" d="M249.1,121.7c0,.3-.2,1.6-.6,1.6l-1.2-.2.6-9,1.2,7.6Z"/>
      <path class="st0" d="M227.8,126.8c-3.5,1.8-7.3.9-11-.5l3.1-1-.2,1c0,.1.6.6.7.6h7.4Z"/>
      <path class="st0" d="M567,108.8c-3.4.5-6.3,1.3-9.6.2,2.3-1,4.3-.5,6.7-.5s2.1-1.5,3,.2Z"/>
      <path class="st0" d="M570.6,115.3l-3.5-2c2-1,4.2-.2,6.1,1.2-.3.4-2,1.2-2.6.9Z"/>
      <path class="st0" d="M432.1,428c0,2.3.3,3.1-1.3,4.6l-1.6-4.4,2.9-.2Z"/>
      <path class="st0" d="M282.7,189l-1.6.2c.1-.7.3-1.6.2-2.1s-1.3-.9-1.9-.9-1.2.8-1.8,1.8l-1.6-2.3h5s1.6,3.3,1.6,3.3Z"/>
      <path class="st0" d="M466.3,121.9c-1.9.7-4.3,1.2-6.4.7l-6-1.4c1.8-.3,3.5.1,5.2.7h7.1Z"/>
      <path class="st0" d="M321.6,123h-5.6c-.5,0-1.2-1.3-.9-1.3h6.3c0,0,0,.4.2,1.3Z"/>
      <path class="st0" d="M382.3,122.9c-2,0-3.3-.4-4.3-1.9l4.5-.7-.2,2.6Z"/>
      <path class="st0" d="M391,125.6h1.1c.2.1,0,.9-.2.8l-1-.3-11.3-1.8c3.8-1.1,7.4.8,11.3,1.2Z"/>
      <path class="st0" d="M613.4,423.8l-2.2,3.4v-5.3c.1,0,1.7.2,1.7.2.4,0,.7,1.3.5,1.7Z"/>
      <path class="st0" d="M245.9,287.7c-2.1-.1-3.8,1-6,1.8,2.7-2.9,7.1-3.5,10.8-1.5l-4.8-.3Z"/>
      <path class="st0" d="M434.1,122.4l-6.6.5-6.4-.2c-.9,0-1.5-.1-2.2-.8l3.1.3,12.1.2Z"/>
      <polygon class="st0" points="148.9 378.1 144.1 379 144.1 375.8 148.9 378.1"/>
      <path class="st0" d="M275.6,222.5h-14.9s.2-.4.2-.4h7.8c2.4-.2,4.7-1.1,6.9.4Z"/>
      <path class="st0" d="M330.7,122.6c-.4,1.7-2.9,1.9-4.3,1.6l1.3-2.3c.3-.6,2.8,0,2.9.6Z"/>
      <polygon class="st0" points="407.9 108.6 401.9 109.9 401.9 107.9 407.9 108.6"/>
      <path class="st0" d="M468,123.1c-2.6,1.2-10,1.4-11.1,0l5.1.3c1.9.1,4-.6,6-.3Z"/>
      <path class="st0" d="M464,119.6c-2.6,1.4-5.1,1.1-7.8,0,2.7-.5,5-.6,7.8,0Z"/>
      <path class="st0" d="M394.9,109.9l-6.7-.8,4.8-.8c.3,0,1.1-.3,1.2-.1l.7,1.7Z"/>
      <path class="st0" d="M228.7,328.8c.2.3-1.7.6-1.9.2l-.2-3.6,2.6.4-1.4,1.2c-.3.3.3,1.1.9,1.9Z"/>
      <path class="st0" d="M527.7,120.7c-1.6.3-3,.3-4.8.1,1.3-.6,2.4-.7,3.9-.8s3.3-.9,5.4-.2l-4.5.9Z"/>
      <path class="st0" d="M474.9,442.2l.2-6.2c-.9-.7-1.7-1.4-1.5-2.4,2.6,1.5,3.2,5.8,1.3,8.6Z"/>
      <path class="st0" d="M385,463.5l-3.7-1.1c1.6-.5,2.4-.9,3.7-2.4.3.7.4,1.8,0,3.5Z"/>
      <path class="st0" d="M220.8,99.6c-2.2.7-4.7,1-7,.6l-3.2-.6c3.4-.1,6.6-.1,10.2,0Z"/>
      <path class="st0" d="M133.3,374.2h-3.5c.3-1,.6-1.7,1.6-2.7l1.9,2.7Z"/>
      <path class="st0" d="M224.2,364.4c-1.9,1.5-4.7.8-6.9.6-.4-1.1,0-1.2.6-.7h6.3Z"/>
      <path class="st0" d="M292.7,428.2l5.1,2-.3.5-7.4-2.4c.7-.2,2-.3,2.6-.1Z"/>
      <path class="st0" d="M549.1,112.2l-1.8.4c-.5.1-1.1-1.1-1.1-1.7,0-1.1.8-2.3,1.6-2.3-.3.6-1.1,1.7-.7,2l2,1.6Z"/>
      <polygon class="st0" points="294.6 133.2 293.6 135.6 290 133.2 294.6 133.2"/>
      <polygon class="st0" points="155.4 381.2 154.9 385.5 152.9 380.2 155.4 381.2"/>
      <path class="st0" d="M279.7,444.4l-.2,1.8c0,.4-1.2.6-1.3.2s-.3-1.2-.3-1.5v-1.5c0-.3.8-.3,1.1-.2s.7.8.7,1.3Z"/>
      <path class="st0" d="M513.2,118.4c-.8,0-1.4-1.1-1.1-1.9.7-1.7,2.2-2.9,3.8-2.9-2.1,1.1-3.3,2.6-2.7,4.8Z"/>
      <path class="st0" d="M619,422.1l-5.1-.3,7.3-1.1c-.4.6-1.5,1.4-2.1,1.4Z"/>
      <path class="st0" d="M377.3,121.1c0,1,.2,1.9-.1,1.9h-2.1c-.4,0-.3-1.6,0-2h2.3Z"/>
      <path class="st0" d="M210.7,342.7c0,.2-.3.9-.4.9-.2,0-.8,0-.6,0l.3-5.8h.7s0,4.8,0,4.8Z"/>
      <path class="st0" d="M494.1,430.5c-.2.3-1.8.6-1.9.2l-.2-2.2,1.6.5c.4.1.7,1.2.5,1.5Z"/>
      <polygon class="st0" points="277.6 214.5 266.4 214.5 266.2 214.1 277.4 214 277.6 214.5"/>
      <polygon class="st0" points="212.8 336.2 212.8 330.7 213.5 330.7 213.6 336 212.8 336.2"/>
      <path class="st0" d="M164.7,386.2l-1,2.3c-.8-1-1.2-2-1.5-3.4l2.5,1.1Z"/>
      <path class="st0" d="M389.6,454.3l-5.6,1c-.3-.3-.6-.5-.6-.5s.2-.3.4-.7l5.8.2Z"/>
      <path class="st0" d="M455.7,122.2c.1,0,.2.7,0,.7h-1c-1.9-.3-3.7-.3-5.6-1.4l6.5.7Z"/>
      <path class="st0" d="M241.4,229.1c3.9-.2,2.8-2.9,4.5-2.8,0,1.1-.7,2.3-1.4,2.6s-2.4.4-3.1.3Z"/>
      <path class="st0" d="M473.6,447.2c2.4.2,2.9,7,.5,7.7,1.4-2.7,1.4-5.1-.5-7.7Z"/>
      <path class="st0" d="M566.2,311l-7.4.4c-3.7.2-7.4.8-10.9-.6s-6.7-5.4-7.4-9.9l-6.5-39.4-6.8-40.4-9.2-53.8c-1.2-7.1,4.6-13.6,11.3-13.8l14.5-.4,17.6-.4,17.3-.4,15.5-.4,17.2-.4h14.5c5.3,0,9.5,5.4,9.2,10.8l-2,15.1-7.1,48-5.9,39.6-5,33.8c-1,7.2-7.9,10.2-14.5,10.1l-7.1.4-5.9.4-7.6.5-6.7.4-7.4.4ZM542.4,300.9c.9,5.5,5.3,9.7,10.9,9.4l48.9-2.6c7-.4,11.6-4.2,12.7-11.3l6-41.5,6.2-42.2,7.1-49.6c.7-4.9-3.4-9.9-7.9-10.4s-10.6,0-16,.2l-15.2.4-15.6.4-16.8.4-16,.4-14.7.2c-3.9,0-7.3,1.7-9.4,4.4s-2.8,6.5-2.1,10.4l10.9,64,11.1,67.3Z"/>
      <path class="st0" d="M593.7,339.3h-2.7s.2-4.4.2-4.4v-9.7s3.6-.3,3.6-.3c-.7,2.7-.5,5.1-.7,7.8l-.5,6.5Z"/>
      <path class="st0" d="M594.4,323.8l-4.8.2v-6s4.5-.4,4.5-.4c1.1,2,1,4,.3,6.1Z"/>
      <path class="st0" d="M596.2,339.9l-1.6-.6.3-4.8c.2-3.2-.6-6.6,1.6-9.6l-.3,15Z"/>
      <polygon class="st0" points="594 344.1 589.5 344.2 589.5 341 594 341.1 594 344.1"/>
      <polygon class="st0" points="589.6 339.6 589.7 332.5 590.4 325.5 590.4 339.4 589.6 339.6"/>
      <path class="st0" d="M404.1,177.4h-8.4c-.8,0-2-1.6-2-2.4v-4.8c0-1.3,1.2-2.7,2.5-2.8l6.9-.2c1.1,0,2.4.9,2.5,2.1v5.3c.1.8-.7,2.1-1.5,2.8Z"/>
      <path class="st0" d="M256.1,243.3l-.3-1.1c0-.3,1.1-.2,1.4,0,1,.4,2.1,2.3,2,3.6l-.6,11.6-.3,5.5-.4,6.8c0,1-.6,1.9-1.6,2.1s-1.8-.9-1.7-1.6l.4-5.2.4-5.9.4-5.5c.2-2.9.6-5.9,0-8.8l-1.5-2.7.6-.3.9,1.7.3-.3ZM256.7,243.6l-.5.2c.5,3.4.3,7,0,10.7l-.5,7.5c-.2,3.1-.7,5.8-.5,9.2.5-1.6.7-3.2.8-4.9l.4-5.5.4-6.3.3-5.5c0-1.9,0-3.8-.4-5.4Z"/>
      <path class="st0" d="M605.2,116.7h-7.1c2.2-1.2,4.7-.9,7.1,0Z"/>
      <path d="M290.3,372.6c1.7,1.9-11.3,3.3-17.9,2.5l-9.3-1.1c-.5,0-1.4-1-1.2-1.4.8-2.4,11.3-2.9,16.4-2.5,3.9.2,7.4.4,11.1,1.5l1,1.1ZM289.2,372.8c-2.4-.9-4.2-1.2-6.1-1.6l.8,1.4c.2.3-.8,1-1.1.9s-.5-.4-.9-.9.2-.6.7-1.2l-4-.5h-5.5c-3.6.2-6.8.6-10.5,1.8,2.6,1.3,5.2,1.7,8,1.7h8.1c3.6,0,7,.2,10.5-1.5Z"/>
      <path d="M475,357.3l-14.9-113.1c-.5-3.9-1.3-6.9-2.7-10.6,1.5,2.2,2.5,4.6,2.8,7.4l15.2,115.5-.4.7Z"/>
      <path d="M650.4,126.1c-2.5,0-5.1,1.2-7.1-.4l8.1-.4,15.9-.3,15.3-.3c1,0,1.8,0,2.6.3l-3.9.6-15.8.3-15.1.3Z"/>
      <path d="M196.7,184.9c0,4.8-9.7,5.6-16.3,0s-3.8-4.1-4-7.1l-1.2-18.5c-.1-1.7,1-4.2,2.5-4.6l16.1,4.7c1.3.4,2.8,3.1,2.8,4.6v20.9ZM193.3,186.4c.7-.3,1.3-2.3,1.3-3v-17c.1-1.8-.5-4.4-1.9-5.6l-15.4-4.5c-.6.9-1.3,2.5-1.2,3.8l1.3,17.6c.2,3.1,2,5,4.4,6.6,3.4,2.2,7.4,3.6,11.5,2ZM194.7,186.7c.4-.3,1.2-1.5,1.2-2.1v-20.6c0-1-1.1-2.9-1.9-3.5.3,1.3,1.4,3.2,1.4,4.7v17.8c0,1.1-.5,2.5-.7,3.8Z"/>
      <path d="M207.4,288.5v-7.4s.5-11.7.5-11.7l.4-10.2.4-10.4.4-9.8.4-8c.4-6.8,0-13.4,0-20.3l-.4-35.3-.3-31.8c0-3.4-1-6.6-1.5-9.7h.7c.4,2.4,1.2,5.3,1.3,7.9l.3,15.8.4,38.7c.1,12.5.7,24.7,0,37l-.5,9.3-.4,10.2-.5,10-.4,10.1-.3,8.7-.6,6.7Z"/>
      <path d="M207.1,300.4l-.6,4.2v-8.5c-.7,1.1-1.3,2-2.1,2.1-3.7.5-6.2-6.3-4.6-11l6.6.8v4c.6-1.4.7-1.9,1.3-2.8l-.5,11.1ZM202.3,295.8c-.8-2.3-.7-4.8-.2-7.1-.2-.5-2.2-.6-2.3,0-.3,3.4,1.2,8.4,3.8,8.6l-1.3-1.5ZM203.3,295.2c1.5-2.1.4-3.9-.5-5.3-.3,2.1-.3,3.8.5,5.3ZM203.9,289.7c2.2,4.8-.7,6,.7,6.9s2-5.6-.7-6.9Z"/>
      <path d="M187.1,245.1c-4.4,2.2-7.3-18.8-2.8-18.8s6.7,16.9,2.8,18.8ZM184.3,227.4c-1.8-.4-2.7,12.2,2.1,17,3.6-3.1.6-16.4-2.1-17Z"/>
      <path d="M199.2,275.9c-2.6-.2-3.2-3-3.8-4.8-2-5.4-2.4-13.4.5-14.1s1.9.5,2.4,1.1c5.1,7.6,4.1,17.9,1,17.7ZM197.1,258.5c-.2-.3-1.1-.6-1.3-.5-2.9,1.6-.2,16.8,3.2,17s2.7-10.9-1.9-16.5Z"/>
      <path d="M184.6,139.5l1.2,3.9c1.5-4.1,3.8-6.8,4.9-9.8-2.3,2-3.8,3.7-5.9,5.6,1.1-2.9,5.6-7.9,7.1-6.4-.4,1.5-1.3,3.5-2.1,4.8-2.3,3.4-2.1,5.4-3.4,6.4s-2.8-1.9-1.8-4.5Z"/>
      <path d="M500.3,468.6c.3-7,5.7-16.7,5.7-22.7l.2-11,.4-.2v12.2c0,2.7-1.2,5.5-2,8.1l-4.3,13.6Z"/>
      <path d="M495.7,468.5l3.9-24.5.8-3.9c-.6,9.6-2.3,18.7-4,28.4.2,1.1-.7.9-.7,0Z"/>
      <path d="M710.2,159.8c-2,1.6-5.3,2-7.6,1.5s-4.9-5.4-3.9-7.4,6.8-.7,10.3,1,3,3.6,1.2,5ZM710.2,157.8c-.3-2.8-8.9-5-10.2-3.3s.8,5.5,2.9,5.8c3.6.4,7.5-.9,7.3-2.5Z"/>
      <path d="M701.8,210.4c1.7,2,9-.3,10.2-4.6,1.2,4.3-4.3,5.4-9.2,6.1s-2.2-.7-2.4-1.4c-.6-1.8-.2-4,1.1-5.5,2.3-2.6,7.9-2.7,9.4-.4l-6-.6c-2.7-.3-4.9,4.2-3.2,6.3Z"/>
      <path d="M704.5,184.7c0,.6.8,1.9,1.3,1.8l5.1-.6c-1.5,1.2-4.1,1.9-5.9,1.2s-2.3-2.9-2.3-4.4.5-4,2.4-4.7,5.4-.4,7.5,1.2l-5.1-.8c-.6,0-2,.3-2.4.7s-.8,1.8-.7,2.6l.2,3.2Z"/>
      <polygon points="139.8 370.8 131 366.3 131.2 365.6 139.5 370 139.8 370.8"/>
      <path d="M170.3,377.3c-1.9,1.9-5.1,1.5-6.9-.3,2.1-.8,4.6-1.2,6.9.3Z"/>
      <path d="M239.7,298.4c-1,2.1-3.1,2.6-4.8,1.6s-1.9-3.3-.5-5,2.9-1.5,4.3-.7,1.8,2.5,1,4ZM235.5,296.7l1.5.9c.1,0,.3-.2.4-.3l-1.1-2.1c-1.1.5-1.8,1.9-1.4,2.8s1.8,1.6,2.8.8,1.2-1.7,1-2.5-1.4-1.3-1.7-1.1c.7,1,1.3,1.6,1.1,2.1s-1.4,1.6-1.7,1.3c-.6-.5-1.1-1.7-1-2Z"/>
      <path d="M287.9,245.7c1.5,2.3.5,5.6-2,6.6s-4.1-.6-4.8-2.1-.5-4.1,1.1-5.4,4.3-1.3,5.7.9ZM283.9,250.1c.6.1,2-.5,2.1-1.1s0-1.6-.2-2.5c-.7,0-1.8.9-2.2,1.4s-.2,2,.4,2.2Z"/>
      <path d="M293.2,143.6c-.4,1.8-1.8,3.3-3,3.5s-3.6-.3-4.4-1.3c-1.2-1.7-1.1-3.6,0-5.2s3-2.5,5-1.8,2.9,2.5,2.4,4.8Z"/>
      <path d="M238.1,224.1c-1.4.3-2.6-.9-2.8-1.8s.3-3,1.9-3.2,2.4,1,2.6,1.9,0,2.7-1.7,3.1Z"/>
      <path d="M231.7,223.8c-.9-.2-1.5-1.9-1.3-2.7s1.2-1.9,2.1-1.9c1.5,0,2.3,1.2,2.3,2.2,0,1.5-.8,2.9-3,2.4Z"/>
      <path d="M542.4,300.9l-11.1-67.3-10.9-64c-.7-4-.2-7.3,2.1-10.4s5.5-4.3,9.4-4.4l14.7-.2,16-.4,16.8-.4,15.6-.4,15.2-.4c5.4-.1,10.5-.7,16-.2s8.6,5.5,7.9,10.4l-7.1,49.6-6.2,42.2-6,41.5c-1,7.1-5.6,10.9-12.7,11.3l-48.9,2.6c-5.6.3-10-3.9-10.9-9.4ZM543.7,301.8c.8,4.5,5,7.7,9.3,7.5l49.2-2.5c5.9-.3,10.7-3.4,11.6-9.6l6.2-43,9.4-63.4,3.5-24.4c1.6-5-.6-10.9-5.8-12.5s-6.7-.3-10-.2l-12.3.3-16.8.4-15.2.4-17.3.4-17.2.3-7.2.2c-5.1.1-10.9,4.8-9.9,10.9l9.6,57.1,13,78Z"/>
      <path class="st0" d="M289.2,372.8c-3.5,1.7-6.9,1.5-10.5,1.5h-8.1c-2.8,0-5.4-.4-8-1.7,3.6-1.2,6.9-1.6,10.5-1.7h5.5c0-.1,4,.4,4,.4-.5.6-.9.9-.7,1.2.3.5.6.8.9.9s1.3-.6,1.1-.9l-.8-1.4c1.9.3,3.7.6,6.1,1.6Z"/>
      <path class="st0" d="M193.3,186.4c-4.1,1.6-8.1.2-11.5-2s-4.1-3.5-4.4-6.6l-1.3-17.6c0-1.2.5-2.8,1.2-3.8l15.4,4.5c1.4,1.1,2.1,3.8,1.9,5.6v17c0,.7-.6,2.7-1.3,3ZM188,170.5l-2.5-.6-.4,4.5-1.5-.5v-4.3c0,0-1.8-.6-1.8-.6-.6-.2-2-.4-2.4-.3-.3.8-.4,1.1-.6,1s-.5-.1-.5-.1,0-.4.1-1.1c0-.2-1,0-1,.2l.3,4.9,1.1-1.3c.5,1.9,2.4,2.4,3.9,1.9.6.5,1.5,1.2,2.3,1.4l8.1,1.9c-1.4-2.8-1-3.4,0-5.8-.5.4-.8.7-1.6,1.5-.3-2.2-2-2.4-3.7-2.7Z"/>
      <path class="st0" d="M194.7,186.7c.3-1.3.8-2.6.8-3.8v-17.8c0-1.5-1.2-3.4-1.5-4.7.8.6,1.8,2.5,1.8,3.5v20.6c0,.6-.7,1.8-1.2,2.1Z"/>
      <path class="st0" d="M202.3,295.8l1.3,1.5c-2.6-.2-4.1-5.2-3.8-8.6,0-.6,2.1-.5,2.3,0-.5,2.3-.6,4.8.2,7.1Z"/>
      <path class="st0" d="M203.9,289.7c2.7,1.2,1.5,7.4.7,6.9-1.4-.8,1.5-2.1-.7-6.9Z"/>
      <path class="st0" d="M203.3,295.2c-.8-1.5-.8-3.1-.5-5.3.9,1.4,2,3.2.5,5.3Z"/>
      <path class="st0" d="M184.3,227.4c2.7.6,5.6,13.9,2.1,17-4.7-4.8-3.9-17.5-2.1-17Z"/>
      <path class="st0" d="M197.1,258.5c4.6,5.6,4.3,16.5,1.9,16.5-3.4-.1-6.1-15.4-3.2-17s1.1.2,1.3.5Z"/>
      <path class="st0" d="M710.2,157.8c.2,1.6-3.7,2.9-7.3,2.5s-4-4.4-2.9-5.8,9.8.5,10.2,3.3Z"/>
      <path class="st0" d="M235.5,296.7c-.1.3.4,1.5,1,2s1.6-.7,1.7-1.3-.4-1.1-1.1-2.1c.3-.2,1.5.5,1.7,1.1s-.3,1.9-1,2.5c-1,.8-2.4.3-2.8-.8s.3-2.4,1.4-2.8l1.1,2.1c0,.1-.3.4-.4.3l-1.5-.9Z"/>
      <path class="st0" d="M283.9,250.1c-.6-.1-.7-1.7-.4-2.2s1.5-1.3,2.2-1.4c.2.9.3,1.8.2,2.5s-1.4,1.3-2.1,1.1Z"/>
      <path class="st0" d="M543.7,301.8l-13-78-9.6-57.1c-1-6,4.8-10.7,9.9-10.9l7.2-.2,17.2-.3,17.3-.4,15.2-.4,16.8-.4,12.3-.3c3.3,0,6.8-.7,10,.2,5.3,1.6,7.4,7.5,5.8,12.5l-3.5,24.4-9.4,63.4-6.2,43c-.9,6.2-5.7,9.3-11.6,9.6l-49.2,2.5c-4.3.2-8.5-2.9-9.3-7.5ZM570.2,203.8l12.4-.4,13.5-.4,11.8-.4.4-17.7.2-13.4-7,.3-15.1.4-17.8.4-19,.3-.3,20.7-.3,10.8,8.2-.3,12.8-.4ZM584.4,243.2c6.1-3.2,9.5-9.3,10-15.9s-2.7-14-9-17.1-11.8-1.9-16.6,1.7c-9.4,7.2-10.1,22-2.1,29.1,5,4.4,11.6,5.4,17.7,2.2ZM609.3,222.2c2.5-1.3,3.6-3.9,3.5-6.5s-2.2-5.6-5-6-5.6,1.3-6.7,4.2-.6,5.2,1.1,7.1,4.5,2.6,7,1.3ZM554.5,220.8c1.4-3.5-.1-7.6-3.7-8.8s-4.2,0-5.7,1.2-2.4,3.3-2.4,5.5,2.1,5.7,5,6.2,5.5-1.2,6.7-4.1ZM612.2,236.9c.9-3.4-.9-7.1-4.3-7.9s-6.7,1.7-7.5,5.2,1.2,6.7,4.3,7.5,6.5-1.1,7.5-4.8ZM548.9,243.9c3-.2,5.1-2.8,5.6-5s-.2-5.4-2.5-7-4.2-1.2-6.2,0-2.9,3-3,5.3c-.2,3.5,2.3,6.9,6.1,6.6ZM594.4,261.1l-7.8.2-6.4.5c2.6.3,5.2,0,8.1,0l6.7-.3,6.4-.3c.7,0,2.4-.4,2.4-1.2v-9.1c0-.6-1.5-.9-2.1-.9l-11.2.4-9.5.2c-.1,0-1,.6-.8.7h.9s6.6-.3,6.6-.3l5.9-.3h9.7c0,0,0,9.6,0,9.6l-3.4.4-5.7.3ZM574.4,252l-8.5,9.4.7.2,7.8-8.5v6.1s-1.1-2.5-1.1-2.5c-.6.5-1.3,1.4-1.1,1.9s.9,1.4,1.3,1.8c.4.2.6.2.7.4l.8,1.1.4-8.3c0-.6-.5-2-.9-2.4h-6.7c-1.5,0-3,.9-2.9,2.5v8.7c1.5.9,3.3.5,4.7.4l4.7-.3-.4-.5-8.4.3-.4-7.8c0-.7.6-2.5,1.3-2.5h8ZM560.1,262.5c.1-.1.5-.9.5-1.1v-8.9c-.1-.8-2.3-1.1-3-1-4.2.8-7.2-.3-7.2,2.1v9c1.2.6,2.6.7,3.8.6l5.7-.6-.6-.3-6.3.2h-1.4c-.4,0-.8-1-.8-1.4v-6.3c0-.7.5-1.9.9-2.5h8s-4.7,5.6-4.7,5.6l.4.4,4.6-5.4v6.5s-1.2-2.9-1.2-2.9c-.6,1.2-.6,2.9-.1,3.7s1.3.5,1.2.7l-.3,1.1.5.3ZM594.3,257.1l-2.9,1c-.3,0-.5-1.2-.3-1h1.9s-.2-3-.2-3v-1.1c0-.2-.7,0-.7,0v1.1c0,1.2,0,2.1-1,2.8l-.2-3.5-2.2,1.9c.7.2,1.8.4,1.8.7s-.5.9-1.1,1.6c.4.3,1.9,1,2.7,1.1s2.3-1,2.3-1.7ZM584.1,258.8c.6-1.4.6-1.8.9-1.9l1.2-.5c.2,0-.3-.6-.5-.7l-.7-.2c-.3-.6-.9-1.6-.8-1.5-.3.6-.5,1.3-.8,1.5l-1.2.9s1,.4,1.3.5l.8,1.9ZM588.7,277.1l-4.7.4-4.2.4c3,.4,6,.3,9.2-.4l.2-7.3c0-.8.6-3.2-.6-3.3l-7.1-.2c-1.3,0-2.5,1.2-2.5,2.5v7.6s.8.9.8.9v-10c3.2-.6,5.7-.7,8.9-.5v9.9ZM603.8,267.1c-1.1,3.2-.7,5.8-.7,9.6l-8.9.2v-10.2c.1,0-.4.3-.4.3v8.1c-.1.7-.1,1.5,0,1.9.5,1.3,3.5.1,7.5.3s2.5-.4,2.5-1.8v-8.4ZM565.3,278.4l7.1.2c.7,0,2.4-.6,2.4-1.4v-10c-3.5-.2-6.4-.5-9.3.5,3,.8,5.8-.5,8.6.1l-4.1,4.4.4.3,4-3.9v7.7c0,3-5.9.8-9.1,2ZM560.5,277.7v-9.2c-.6-.8-2.3-1.1-3.3-1l-6.7.7-.2,4.5c-.1,2.1-1,4.5.4,6.6,3.7.3,9.8,0,9.8-1.5ZM569.4,270.5c-.1-.4-.2-.5,0-.7l.6-.7c.2-.2-1.1-.2-1.3,0l-.8.9-.5-1.1c0-.1-1.1.4-1,.6l1.8,1.7c-.6.4-.7.7,0,.6.5.2,1.5.5,1.5.2l-.4-1.5ZM582.5,273.3c.4-.3,1-1,1.2-1.4s-.8-1.1-1.3-1.2-1.6.4-1.6.9v1.4c0,0,0,.9,0,.9,0,.2.5.3.6.2l1-.8ZM597.1,273.3l3-.2c.4,0,1-.3,1.2-.6s-.5-.6-.8-.6l-4.3.4c-.3,0,.4.9.8.9ZM573,275.3l.5,2c.9-2,.7-3.4-1.1-5l-.7,5,1.3-2ZM600.4,293.2c1.1,0,2.3-.4,3.1-.9v-10.3c-3.5-.3-6.7-.3-9.6.6l-.5,6.9c-.1,1.6.1,4.1,2.1,4l4.9-.2ZM587.8,293.2h-8.2s-.1-9.2-.1-9.2l-.4.2v9c.6.8,2.4,1,3.3.9l4.8-.4c.9,0,2-.7,2-1.6v-8.6c0-1-1.9-.9-2.6-.9l-6.3.3.2.3h8.2c0,0,0,8,0,8l-2-1.5-.2-4.7c-1.4.6-1.9,1.9-1.8,2.8l1.5-1.8-.7,5.4c1.5-.5,1.9-.6,2.7,0s.2,1.8-.5,1.8ZM574.4,293.6c.1-.2.5-1.1.5-1.4v-8.2c-.2-1.4-6.2-1.3-9.9-.3-.9,3.2-1.2,8.6.3,10.8h7.5c.4,0,1.2-.4,1.4-.6l-.4-.4-2.7.3c-2.1.2-4,.3-5.9,0v-9.7s6.8-.5,6.8-.5c.5,0,1.5,0,1.9.3s.7,1.6.7,2.1l-.5,4.3v3.1c-.1,0,.4.3.4.3ZM558.5,288.5v4.7s1.1-.3,1.1-.3c.2,0,.2.7,0,.9s-.7.5-.9.5h-8c0,.1.2-9.9.2-9.9h8.4c-2.8,3.7-5.8,6.1-8.2,9.7,3.3-2.6,5.5-5.3,8.3-8.6l1.1.5-.8-2c-.2-.5-1.6-.4-2.1-.4l-5.2.3c-1.1,0-2.4.3-2.4,1.8v7.7c0,.5.5,1.6.9,1.6h1.6s7.3-.3,7.3-.3c.4-2.6.4-4.7,0-7.1l-.5,4.5-1-3.6ZM555,287c.4-.3-.3-2.3-.7-2.2l-2.9,1.8c.9.5,2.6,1,3.6.4ZM583.2,285.3c0-.4-1.5-.6-1.5-.2v1.4c.1,0,.5,4.4.5,4.4,1.6.2.1-1.1.9-5.6ZM568.9,290.4v.5s4.3.2,4.3.2l-1.2-3.4c-.5.6-.5,1.6,0,2.6h-3Z"/>
      <path d="M188,170.5c1.7.3,3.4.6,3.7,2.7.8-.8,1.1-1.1,1.6-1.5-1.1,2.3-1.4,2.9,0,5.8l-8.1-1.9c-.8-.2-1.7-.9-2.3-1.4-1.5.5-3.4,0-3.9-1.9l-1.1,1.3-.3-4.9c0-.2,1.1-.4,1-.2,0,.7-.1,1.1-.1,1.1s.3,0,.5.1c.2,0,.3-.2.6-1,.4,0,1.8.1,2.4.3l1.7.6v4.3c0,0,1.6.5,1.6.5l.4-4.5,2.5.6ZM182,169.6c-2,1.2-1.3,3.1.1,4v-4ZM188.1,174.8l2.2,1.4c1.2-1.5,1.1-3.4-.7-4.4s-1.2.2-1.1.5c.5,1.2,2.4,1.3,1.6,1.6l-2,.8Z"/>
      <path d="M570.2,203.8l-12.8.4-8.2.3.3-10.8.3-20.7,19-.3,17.8-.4,15.1-.4,7-.3-.2,13.4-.4,17.7-11.8.4-13.5.4-12.4.4ZM564.7,203.3l12.5-.4,13.8-.4,12.4-.3,3.8-.3.3-5.6.3-15.7.3-8.7-5.2.3-13.3.3-19.3.4-17,.3-3.1.5-.2,5.4-.3,20.5c0,1.4-.5,3.1,0,4l14.8-.4Z"/>
      <path d="M584.4,243.2c-6.1,3.2-12.7,2.3-17.7-2.2-8-7.1-7.4-21.9,2.1-29.1s11.2-4.4,16.6-1.7,9.5,10.3,9,17.1-4,12.7-10,15.9ZM586.3,240.9c8-6.2,9.9-18.1,3.4-26.1-5-6.2-13.2-7.1-19.8-2.5s-10.2,16.5-5.4,24.6,14.5,9.7,21.8,4.1Z"/>
      <path d="M554.5,220.8c-1.2,2.9-3.9,4.5-6.7,4.1s-5-3.1-5-6.2.7-4.2,2.4-5.5,3.6-2,5.7-1.2c3.5,1.2,5.1,5.3,3.7,8.8ZM552.7,214.5c-2.3,2.9-4.3,5.5-7,8,1.5-3.6,4.6-5.3,6.4-8.6-1.4-1.2-3.6-1.6-5.5-.5s-2.6,2.6-2.9,4.6,1.1,5.1,3.5,5.9,4.8-.4,6.1-2.6,1.1-4.6-.6-6.7Z"/>
      <path d="M574.4,252h-8c-.7,0-1.3,1.8-1.3,2.5l.4,7.8,8.4-.3.4.5-4.7.3c-1.5,0-3.2.5-4.6-.4v-8.7c-.1-1.6,1.4-2.6,2.8-2.6h6.7c.4.5.9,1.9.9,2.5l-.4,8.3-.8-1.1c0-.1-.3-.2-.7-.4-.3-.4-1.1-1.3-1.3-1.8s.5-1.4,1.1-1.9l1.1,2.5v-6.1s-7.8,8.5-7.8,8.5l-.7-.2,8.5-9.4Z"/>
      <path d="M609.3,222.2c-2.5,1.3-5.4.6-7-1.3s-2.1-4.6-1.1-7.1,3.8-4.7,6.7-4.2,4.9,2.9,5,6-1.1,5.1-3.5,6.5ZM610.4,220c2-2.4,2-5.8,0-7.6l-2.5,2.6,1.9-3.2c-1.9-1.8-5-1.5-6.8.6l.5,1.9-.4.3-.6-1.7c-1.7,2.7-1.5,6,.7,7.9s5.2,1.5,7-.8Z"/>
      <path d="M548.9,243.9c-3.9.3-6.3-3.2-6.1-6.6s1.3-4.3,3-5.3,4.3-1.3,6.2,0,3.2,4.2,2.5,7-2.6,4.7-5.6,5ZM544.9,237.6l.7-.3,8.1-.2c0-3-2.5-5.7-5.7-5.2s-4.3,2.8-4.4,5.1,1,5,3.6,5.9,6.6-1.8,6.5-5.2h-8.9Z"/>
      <path d="M560.5,277.7c0,1.5-6.1,1.8-9.8,1.5-1.4-2.1-.6-4.5-.4-6.6l.2-4.5,6.7-.7c.9,0,2.7.2,3.3,1v9.2ZM560,277.7v-8.6s-8.6,9.1-8.6,9.1c2.2-3.7,5.1-6.4,8.2-9.7-.9-.4-1.9-.4-3-.3l-5.8.4v10.2s6.4-.3,6.4-.3c.7,0,2.1-.2,2.8-.8Z"/>
      <path d="M612.2,236.9c-.9,3.7-4.2,5.6-7.5,4.8s-5.2-4.2-4.3-7.5,3.9-6,7.5-5.2,5.2,4.4,4.3,7.9ZM611.3,236.8c.9-3.1-.5-5.8-3.2-6.9s-5.3.6-6.5,3.3,0,6.3,2.9,7.4,5.9-.7,6.8-3.8Z"/>
      <path d="M559.9,262.7l-5.7.6c-1.1.1-2.6,0-3.7-.6v-9c0-2.4,2.9-1.3,7.1-2.1s2.8.1,2.8,1v8.9c.1.2-.2,1-.3,1.1s-.2.2-.2.2ZM559.6,262.2l.3-1.1c0-.3-1.1-.5-1.2-.7-.5-.7-.5-2.5.1-3.7l1.2,2.9v-6.5s-4.6,5.4-4.6,5.4l-.4-.4,4.7-5.6h-8c-.4.6-.9,1.8-.9,2.5v6.3c0,.4.4,1.4.8,1.4h1.4s6.3-.2,6.3-.2c0,0,.1,0,.3-.2Z"/>
      <path d="M558.5,288.5l1,3.6.5-4.5c.4,2.3.4,4.4,0,7.1l-7.3.3h-1.6c-.4,0-1-1.1-1-1.5v-7.7c0-1.5,1.3-1.8,2.5-1.8l5.2-.3c.5,0,2,0,2.1.4l.8,2-1.1-.5c-2.8,3.3-5,6-8.3,8.6,2.4-3.6,5.4-6,8.2-9.6h-8.4s-.2,10.1-.2,10.1h8c.2-.1.8-.6.9-.7.1-.2.1-1,0-.9l-1,.3v-4.7Z"/>
      <path d="M587.8,293.2c.7,0,1-1.5.5-1.8-.9-.6-1.2-.5-2.7,0l.7-5.4-1.5,1.8c0-1,.4-2.2,1.8-2.8l.2,4.7,2,1.5v-7.9s-8.2,0-8.2,0l-.2-.3,6.3-.3c.7,0,2.5,0,2.5.9v8.6c0,.9-1.1,1.5-2,1.6l-4.8.4c-.9,0-2.8,0-3.3-.9v-9c0,0,.3-.2.3-.2v9.3c.1,0,8.3,0,8.3,0Z"/>
      <path d="M574.1,293.9c-.3.2-1.1.5-1.4.5h-7.5c-1.4-2.1-1.1-7.5-.3-10.7,3.8-1,9.8-1,9.8.3v8.2c.1.3-.2,1.2-.3,1.4s-.2.2-.3.3ZM573.8,293.4v-3.1c.1,0,.7-4.3.7-4.3,0-.5-.2-1.8-.7-2.1s-1.4-.4-1.9-.3l-6.8.5v9.7c1.9.3,3.8.2,5.9,0l2.7-.3v-.2Z"/>
      <path d="M588.7,277.1v-9.9c-3.2-.2-5.7,0-8.8.5v10c0,0-.9-.9-.9-.9v-7.6c0-1.3,1.2-2.6,2.5-2.5l7.1.2c1.3,0,.7,2.4.6,3.3l-.2,7.3c-3.3.8-6.2.8-9.2.4l4.2-.4,4.7-.4Z"/>
      <path d="M600.4,293.2l-4.9.2c-2,0-2.2-2.4-2.1-4l.5-6.9c2.9-.9,6.2-.8,9.6-.6v10.3c-.7.6-2,.9-3,.9ZM600.8,292.8c.6,0,2.2-.7,2.2-1.4v-9.1s-5.1.1-5.1.1l-3.7.3v9.9s6.6.1,6.6.1Z"/>
      <path d="M565.3,278.4c3.2-1.2,9.1,1,9.1-2v-7.7s-4,3.9-4,3.9l-.4-.3,4.1-4.4c-2.8-.7-5.6.6-8.6-.1,2.9-.9,5.8-.7,9.4-.5v10c0,.8-1.7,1.4-2.4,1.4l-7.1-.2Z"/>
      <path d="M603.8,267.1v8.4c.1,1.4-1.2,1.8-2.4,1.8-4-.2-7,1-7.5-.3s-.2-1.2-.2-1.9v-8.1c.1,0,.6-.3.6-.3v10.2c-.1,0,8.8-.2,8.8-.2,0-3.8-.4-6.4.7-9.6Z"/>
      <path d="M594.4,261.1l5.7-.3,3.4-.4v-9.7c0,0-9.7,0-9.7,0l-5.9.3-6.6.3h-.9c-.1,0,.7-.7.8-.7l9.5-.2,11.2-.4c.6,0,2.1.3,2.1.9v9.1c0,.8-1.7,1.2-2.4,1.2l-6.4.3-6.7.3c-2.8.1-5.4.4-8.1,0l6.4-.5,7.8-.2Z"/>
      <path d="M555,287c-1,.6-2.7.1-3.6-.4l2.9-1.8c.4-.1,1.1,1.9.7,2.2Z"/>
      <path class="st0" d="M188.1,174.8l2-.8c.8-.3-1.1-.4-1.6-1.6s.8-.7,1.1-.5c1.8,1,1.9,2.8.7,4.4l-2.2-1.4Z"/>
      <path class="st0" d="M182,169.6v4c-1.3-1-2-2.8,0-4Z"/>
      <path d="M594.3,257.1c0,.6-1.6,1.8-2.3,1.7s-2.3-.8-2.7-1.1c.6-.7,1-1.3,1.1-1.6s-1.1-.5-1.8-.7l2.2-1.9.2,3.5c1-.6,1.1-1.5,1.1-2.8v-1.1c0-.2.6-.3.6,0v1.1c0,0,.3,3.1.3,3.1h-1.9c-.2-.2,0,1.1.3,1l2.9-1Z"/>
      <path d="M584.1,258.8l-.8-1.9c-.2-.1-1.3-.5-1.3-.5l1.2-.9c.3-.2.5-.9.8-1.5,0,0,.5,1,.8,1.5l.7.2c.2,0,.8.6.5.7l-1.2.5c-.3.1-.3.5-.9,1.9Z"/>
      <path class="st0" d="M564.7,203.3l-14.8.4c-.5-1,0-2.6,0-4l.3-20.5.2-5.4,3.1-.5,17-.3,19.3-.4,13.3-.3,5.2-.3-.3,8.7-.3,15.7-.3,5.6-3.8.3-12.4.3-13.8.4-12.5.4ZM599.3,187v-10c0,0-7.6.4-7.6.4l-4.2.2v9.6s11.8-.2,11.8-.2ZM583.4,183l-.4,3.1-3.4.4c1.4,1.2,3.1.7,4-.2s.5-2.4.4-3.6.6-3.1.1-3.9c-.8-1.2-3-1.5-3.9-.1l3.1.5-.2,2.8c-1.6.1-2.1.2-3,.7l3.3.3ZM571,186.1l-2.9.6c.9.7,2.7.9,3.5,0s.5-2.7.6-3.9.5-3.2-.3-4-2.6-.9-3.6,0l3.2.4v2.9s-3.5.8-3.5.8l3.3.6-.3,2.6ZM577,185.9l-2.9.7c.9.9,2.7.9,3.3.2.9-1,.9-3,.2-4.1.8-.9,1.3-3.3,0-4.2s-2.5-.4-3.5.4l3.3.5-.2,2.7c-1.6.2-2,.2-3.1.7,1.4.5,1.7.4,3.1.4l-.2,2.7ZM565.3,186.2c-1.6.3-2.3.4-3,.7,1.2,1,3,.8,3.8-.2s.2-2.8.2-3.7v-4.2c0,0-3.7,0-3.7,0l3.1.4v3.2c-1.7,0-2.3.1-3.1.7l3.1.3-.3,2.8ZM563,195.6c.7-2.6.6-3.4.5-5.9l-1.6,1.9c0,.2-.2.9,0,.9h.6s.6,3.1.6,3.1Z"/>
      <path class="st0" d="M586.3,240.9c-7.2,5.6-17.1,3.8-21.8-4.1s-2.3-19.2,5.4-24.6,14.8-3.6,19.8,2.5c6.5,8,4.6,19.8-3.4,26.1ZM577.9,216.7l.9-.3v-2.1s2.5-.8,2.5-.8l-2.4-.8-.6-2.3-.8,2.4-2.2.8,2.3.8.2,2.3ZM578.7,235c-3.2.5-6-1.5-7.3-3.8-2.8-5.4.9-11.4,5.1-12.4s4.6.3,7,1.6c-1.6-2.6-5.1-3-7.7-2.1-4,1.3-6,4.7-6.1,8.8s1.3,6.2,4,7.7,5.7,1.5,8.5-.4c4.2-2.9,5.8-9.9,1.6-13.8.8,3.4,2.4,5.8,1,9.1s-2.8,4.8-6.1,5.3ZM588.6,230.2l3.5-3.7c-1.4-1.6-1.9-2.8-4.1-3.4.7,1.6,1.4,2.4,2.4,3.5-.6,1.1-2.6,1.4-1.8,3.7ZM567.7,229.8l-2-2.5,2.5-3c-.1-.2-.8-.6-.9-.5l-3.3,3.5,2.9,3.2c.2.2,1.1-.6.9-.7ZM578.6,230.3c1,0,2-1.3,2-2.1-.1-2.1-3.4-1.5-3.5-2.9s.7-1,1.1-1,1,.5,1.2.8l.4.7c0,.1.6-.5.6-.7,0-.9-1.5-1.9-2.7-1.6s-2,1.5-1.2,3l3.2,1.4c.2.6-1.1,1.7-1.6,1.4l-1.9-1.3c-.1,0,0,1.2.2,1.6s1.2.6,2.3.6Z"/>
      <path d="M597.1,273.3c-.4,0-1.1-.8-.8-.9l4.3-.4c.3,0,.9.3.8.6s-.8.6-1.2.6l-3,.2Z"/>
      <path d="M573,275.3l-1.3,2,.7-5c1.8,1.6,2,3.1,1.1,5l-.5-2Z"/>
      <path d="M569.4,270.5l.4,1.5c0,.3-1,0-1.5-.2-.8,0-.7-.2,0-.6l-1.8-1.7c-.1-.1.9-.7,1-.6l.5,1.1.8-.9c.2-.2,1.4-.2,1.3,0l-.6.7c-.1.1,0,.3,0,.7Z"/>
      <path d="M583.2,285.3c-.8,4.6.7,5.8-.9,5.6l-.4-4.4v-1.4c-.2-.4,1.4-.2,1.3.2Z"/>
      <path class="st0" d="M552.7,214.5c1.8,2.1,1.9,4.5.6,6.7s-3.8,3.4-6.1,2.6-3.8-3.2-3.5-5.9,1.4-3.8,2.9-4.6,4.1-.7,5.5.5c-1.8,3.3-4.9,5-6.4,8.6,2.7-2.5,4.7-5.1,7-8Z"/>
      <path class="st0" d="M610.4,220c-1.8,2.2-4.8,2.7-7,.8s-2.5-5.2-.7-7.9l.6,1.7.4-.3-.5-1.9c1.8-2,4.9-2.3,6.8-.6l-1.9,3.2,2.5-2.6c1.9,1.8,1.9,5.2,0,7.6ZM610.6,216.5c.2-.4-.2-1.7-.5-1.5l-1.3.8c-.6.4.3,2.2,1,2.7l.9-1.9Z"/>
      <path class="st0" d="M544.9,237.6h8.9c0,3.5-3.2,6.4-6.5,5.3s-3.8-3.4-3.6-5.9,1.8-4.6,4.4-5.1,5.7,2.1,5.7,5.2l-8.1.2-.7.3ZM551.6,240.2l-.2-1.3c-2,.3-3.3.3-5.3.1,0,0,0,1.4,0,1.3h5.4Z"/>
      <path class="st0" d="M560,277.7c-.7.6-2.1.8-2.8.8l-6.4.3v-10.2s5.8-.4,5.8-.4c1.1,0,2.1,0,3,.3-3.2,3.4-6,6-8.2,9.7l8.6-9.1v8.6ZM558.1,276.8l1.3.9c.2-2,.2-2.8-.5-4.5l-1,2.1c-.1.3-.9.3-1.1.1l-1-1.1v3.6c.8-.7.9-1.1,1.2-1.1h1.1Z"/>
      <path class="st0" d="M611.3,236.8c-.9,3.1-4,4.8-6.8,3.8s-4.3-4.5-2.9-7.4,4-4.2,6.5-3.3,4.1,3.8,3.2,6.9ZM606,236.5c1-.2,2.3-.5,2.7-1.2s0-2.6-.6-2.7c-.9-.2-2.4-.2-3.4-.2l.2,6.7,1.1-2.6Z"/>
      <path class="st0" d="M600.8,292.8h-6.6c0-.1,0-10,0-10l3.7-.3h5.1c0-.1,0,8.9,0,8.9,0,.6-1.6,1.4-2.2,1.4ZM597.4,290.3l3.2-3.2c.2-.4-.9-.8-.9-.2l-2.1,2-1.6,2,1,.2c.2,0,.3-.8.4-1Z"/>
      <path d="M599.3,187l-11.8.2v-9.6s4.2-.2,4.2-.2l7.5-.4v10ZM598.8,186.6v-8.5c-1-.7-2.6-.5-3.8-.4l-7,.3v8.7c0,0,10.9,0,10.9,0Z"/>
      <path d="M583.4,183l-3.3-.3c.9-.5,1.4-.6,3-.7l.2-2.8-3.1-.5c.9-1.4,3.1-1.1,3.9.1s-.2,2.9-.1,3.9.3,2.8-.4,3.6-2.6,1.4-4,.2l3.4-.4.4-3.1Z"/>
      <path d="M571,186.1l.3-2.6-3.3-.6,3.5-.8v-2.9s-3.2-.4-3.2-.4c1-.9,2.8-.9,3.6,0s.3,2.8.3,4,.3,3-.6,3.9-2.7.6-3.5,0l2.9-.6Z"/>
      <path d="M577,185.9l.2-2.7c-1.3,0-1.7,0-3.1-.4,1.1-.6,1.5-.6,3.1-.7l.2-2.7-3.3-.5c1-.8,2.7-.9,3.5-.4,1.3.9.9,3.3,0,4.2.6,1.2.7,3.1-.2,4.1s-2.4.7-3.3-.2l2.9-.7Z"/>
      <path d="M565.3,186.2l.3-2.8-3.1-.3c.8-.6,1.4-.6,3-.7v-3.2c.1,0-2.9-.4-2.9-.4h3.8c0,0,0,4.1,0,4.1,0,.9.3,3-.2,3.7s-2.6,1.3-3.8.2c.7-.3,1.4-.4,3-.7Z"/>
      <path d="M563,195.6l-.6-3.1h-.6c-.2,0,0-.7,0-.9l1.6-1.9c.2,2.6.3,3.4-.5,5.9Z"/>
      <path d="M578.7,235c3.3-.5,5.1-3.1,6.1-5.3,1.5-3.3-.2-5.8-1-9.1,4.2,4,2.6,10.9-1.6,13.8s-5.8,1.9-8.5.4-4.1-4.5-4-7.7,2.1-7.5,6.1-8.8,6.1-.5,7.7,2.1c-2.4-1.3-4.3-2.2-7-1.6-4.2,1-7.9,7-5.1,12.4s4.1,4.3,7.3,3.8Z"/>
      <path d="M578.6,230.3c-1,0-2-.2-2.3-.6s-.3-1.6-.2-1.6l1.9,1.3c.5.3,1.8-.8,1.6-1.4l-3.2-1.4c-.8-1.5,0-2.7,1.2-3s2.7.7,2.7,1.6-.5.8-.6.7l-.4-.7c-.2-.3-.8-.8-1.2-.8s-1.1.6-1.1,1c.1,1.4,3.4.8,3.5,2.9s-1,2.1-2,2.1Z"/>
      <path d="M567.7,229.8c.1.2-.8.9-.9.7l-2.9-3.2,3.3-3.5c.1-.1.8.3.9.5l-2.5,3,2,2.5Z"/>
      <path d="M588.6,230.2c-.8-2.2,1.1-2.5,1.8-3.7-1-1.1-1.7-1.9-2.4-3.5,2.3.6,2.8,1.8,4.1,3.4l-3.5,3.7Z"/>
      <polygon points="577.9 216.7 577.7 214.4 575.3 213.7 577.6 212.9 578.3 210.5 579 212.8 581.3 213.6 578.8 214.4 578.8 216.4 577.9 216.7"/>
      <path d="M610.6,216.5l-.9,1.9c-.7-.5-1.6-2.3-1-2.7l1.3-.8c.3-.2.7,1.1.5,1.5Z"/>
      <path d="M551.6,240.2h-5.4c0,.2-.1-1.1,0-1.2,2,.2,3.3.1,5.3-.1l.2,1.3Z"/>
      <path d="M558.1,276.8h-1.1c-.3,0-.4.3-1.1,1v-3.6s1,1.1,1,1.1c.2.2,1,.2,1.1-.1l1-2.1c.7,1.7.7,2.5.5,4.5l-1.3-.9Z"/>
      <path d="M606,236.5l-1.1,2.6-.2-6.7c1,0,2.5,0,3.4.2s.9,2.2.6,2.7-1.7,1-2.7,1.2ZM605.7,233.6c-.2.6,0,2,.4,1.9.6-.1,1.3-.3,1.6-.6s.3-1.2,0-1.4-1.8-.2-2,.2Z"/>
      <path d="M568.9,290.4h3c-.4-1.1-.4-2.1,0-2.7l1.2,3.4-4.3-.2v-.5Z"/>
      <path d="M582.5,273.3l-1,.8c-.2.1-.6,0-.6-.2v-.9s0-1.4,0-1.4c0-.4,1.2-.9,1.6-.9s1.5.8,1.3,1.2-.8,1.1-1.2,1.4Z"/>
      <path d="M597.4,290.3c-.1.1-.3,1-.4,1l-1-.2,1.6-2,2.1-2c0-.6,1.1-.3.9.2l-3.2,3.2Z"/>
      <path class="st0" d="M598.8,186.6h-10.9c0,0,0-8.7,0-8.7l7-.3c1.3,0,2.8-.3,3.9.4v8.5ZM588.7,186.1l1,.2c.7.1,2.4-.5,2.5-1.3s0-2-.1-2.7c.3-.9.6-2.7,0-3.3s-2.8-.9-3.3,0l2.5.5c.5.1.4,2,0,2.1l-2.1.4v.8c1.1,0,2.2,0,2.1.5l-.2,1.6c0,0-3.9.9-2.5,1.1ZM597.3,181.7h-1.6c-.6,0-.8-1.3-.7-2.1s1.2-.6,2.3-.5c.5-.4.6-.9.1-.9-1.5,0-2.7.2-3.1.9s-.3,2.3.2,2.8,1.6.6,2.6.7l-.2,2.3-2.6.6c.9.5,2.1.6,2.9.4,1.3-.4.7-4.2,0-4.2Z"/>
      <path class="st0" d="M605.7,233.6c.1-.4,1.6-.4,2-.2s.4,1.2,0,1.4-1,.5-1.6.6-.6-1.3-.4-1.9Z"/>
      <path d="M588.7,186.1c-1.3-.2,2.6-1.1,2.5-1.1l.2-1.6c0-.4-1-.6-2.1-.5v-.8s2-.4,2-.4c.5,0,.5-2,0-2.1l-2.5-.5c.5-1,2.5-1,3.3,0s.2,2.5,0,3.3c0,.7.3,2,.1,2.7s-1.8,1.4-2.5,1.3l-1-.2Z"/>
      <path d="M597.3,181.7c.7,0,1.3,3.7,0,4.2s-2,.1-2.9-.4l2.6-.6.2-2.3c-1-.1-2.1-.3-2.6-.7s-.5-2.2-.2-2.8,1.5-.9,3.1-.9c.5,0,.3.5-.1.9-1.1,0-2.2,0-2.3.5s0,2.1.7,2.1h1.6Z"/>
    </g>
  </g>
</svg>