<?xml version="1.0" encoding="UTF-8"?>
<svg id="a" data-name="Layer 1" xmlns="http://www.w3.org/2000/svg" width="226.8" height="141.7" viewBox="0 0 226.8 141.7">
  <defs>
    <style>
      .d {
        fill: none;
        stroke: currentColor;
        stroke-linecap: round;
        stroke-linejoin: round;
        stroke-width: 1px;
      }
    </style>
  </defs>
  <g id="b" data-name="图层_1">
    <g id="c" data-name=" 2369587497392">
      <path class="d" d="M170.4,30.2h-3.3M178.6,108.7v19.4M186.9,108.7v19.4M188.7,90.2v2.6M188.7,96.9v2.6M188.7,103.6v2.6M176.7,103v-2.6M176.7,96.3v-2.6M176.7,89.6v-2.6M198.2,30.2h-3.3M167,40.3h3.3M194.9,40.3h3.3M159,73.3l12.1,11.7h22.9l12-11.7M155.7,40.3h11.3V15.4h3.3v24.9h24.5V15.4h3.3v24.9h10.3c2.1,0,3.9,1.8,3.9,3.9s-1.8,3.9-3.9,3.9h-52.8c-2.1,0-3.9-1.8-3.9-3.9s1.8-3.9,3.9-3.9h0ZM175.2,108.7h15v-2.4h-5.4v-2.6h5.4v-4.1h-5.4v-2.6h5.4v-4.1h-5.4v-2.6h5.4v-5.2h-15v2h4.8v2.6h-4.8v4.1h4.8v2.6h-4.8v4.1h4.8v2.6h-4.8s0,5.7,0,5.7ZM206,73.3v-25.2h-47v25.2h47Z"/>
      <path class="d" d="M41.8,55.9h59.5c3,0,5.4,2.4,5.4,5.4v20.1c0,3-2.4,5.4-5.4,5.4h-59.5c-3,0-5.4-2.4-5.4-5.4v-20.1c0-3,2.4-5.4,5.4-5.4ZM54.8,63.5h4.1v15.9h-4.1v-15.9ZM84.1,63.5h4.1v15.9h-4.1v-15.9Z"/>
      <path class="d" d="M24,21.7h95.1c1,0,1.8.8,1.8,1.8v95.1c0,1-.8,1.8-1.8,1.8H24c-1,0-1.8-.8-1.8-1.8V23.5c0-1,.8-1.8,1.8-1.8ZM18.4,13.8h106.1c2.3,0,4.2,1.9,4.2,4.2v106.1c0,2.3-1.9,4.2-4.2,4.2H18.4c-2.3,0-4.2-1.9-4.2-4.2V18c0-2.3,1.9-4.2,4.2-4.2Z"/>
    </g>
  </g>
</svg>