<?xml version="1.0" encoding="UTF-8"?>
<svg id="a" data-name="Layer 1" xmlns="http://www.w3.org/2000/svg" width="226.8" height="141.7" viewBox="0 0 226.8 141.7">
  <defs>
    <style>
      .d {
        fill: none;
        stroke: currentColor;
        stroke-linecap: round;
        stroke-linejoin: round;
        stroke-width: 1px;
      }
    </style>
  </defs>
  <g id="b" data-name="图层_1">
    <g id="c" data-name=" 2368984136752">
      <path class="d" d="M179.4,106.3v22.1M210.1,61.1h-53.1v-19.3h53.1v19.3ZM156.9,61.1c9.3,7.9,16.2,26.8,18.6,40.2M210.1,61.1c-9.3,7.9-16.2,26.8-18.6,40.2M187.7,106.3v22.1M171.3,32.2V13.7h-5.8v18.5M172.5,41.8v-9.6h-8v9.6M187.5,41.8v-9.6h-8v9.6M201.3,32.2V13.7h-5.8v18.5M202.5,41.8v-9.6h-8v9.6M173.7,46.8h19.7M173.7,55.7h19.7M173.7,51.2h19.7M174,101.3l-2.7,2.7v2.3h24.5v-2.3l-2.7-2.7h-19ZM186,32.2v-13c0-1.4-1.1-2.5-2.5-2.5s-2.5,1.1-2.5,2.5v13"/>
      <path class="d" d="M77.9,87.3h-8.5v-4.8c0-2.3,1.9-4.2,4.2-4.2h0c2.3,0,4.2,1.9,4.2,4.2,0,0,0,4.8,0,4.8ZM61.5,52.6h3.1v18.2h-3.1v-18.2ZM84.1,56.2h3.1v11h-3.1v-11ZM47.8,41.7h53.2c1.4,0,2.5,1.1,2.5,2.5v53.2c0,1.4-1.1,2.5-2.5,2.5h-53.2c-1.4,0-2.5-1.1-2.5-2.5v-53.2c0-1.4,1.1-2.5,2.5-2.5Z"/>
      <path class="d" d="M26.4,21.9h95.1c1,0,1.8.8,1.8,1.8v95.1c0,1-.8,1.8-1.8,1.8H26.4c-1,0-1.8-.8-1.8-1.8V23.7c0-1,.8-1.8,1.8-1.8ZM20.9,13.9h106.1c2.3,0,4.2,1.9,4.2,4.2v106.1c0,2.3-1.9,4.2-4.2,4.2H20.9c-2.3,0-4.2-1.9-4.2-4.2V18.2c0-2.3,1.9-4.2,4.2-4.2Z"/>
    </g>
  </g>
</svg>