<?xml version="1.0" encoding="UTF-8"?>
<svg id="a" data-name="Layer 1" xmlns="http://www.w3.org/2000/svg" width="226.8" height="141.7" viewBox="0 0 226.8 141.7">
  <defs>
    <style>
      .d {
        fill: none;
        stroke: currentColor;
        stroke-linecap: round;
        stroke-linejoin: round;
        stroke-width: 1px;
      }
    </style>
  </defs>
  <g id="b" data-name="图层_1">
    <g id="c" data-name=" 2369576415792">
      <path class="d" d="M192.8,85.4v4.1h-18.9v-4.1M179.8,109.1v19.4M188.1,109.1v19.4M189.9,93.6v2.1M189.9,99.3v2.1M189.9,104.9v2.1M177.9,104.3v-2.1M177.9,98.7v-2.1M177.9,93v-2.1M160.2,73.7l12.1,11.7h22.9l12.1-11.7M157,40.7h52.8c2.1,0,3.9,1.8,3.9,3.9s-1.8,3.9-3.9,3.9h-52.8c-2.1,0-3.9-1.8-3.9-3.9s1.8-3.9,3.9-3.9h0ZM176.4,89.5v1.4h4.8v2.1h-4.8v3.5h4.8v2.1h-4.8v3.5h4.8v2.1h-4.8v4.8h15v-2.1h-5.4v-2.1h5.4v-3.5h-5.4v-2.1h5.4v-3.5h-5.4v-2.1h5.4v-4.1M207.2,73.7v-25.2h-47v25.2h47ZM172.5,40.7v-23.8c0-2-1.6-3.6-3.6-3.6s-3.6,1.6-3.6,3.6v23.8M201.6,40.7v-23.8c0-2-1.6-3.6-3.6-3.6s-3.6,1.6-3.6,3.6v23.8"/>
      <path class="d" d="M69.8,39.5c17.4,0,31.6,14.1,31.6,31.6s-14.1,31.6-31.6,31.6-31.6-14.1-31.6-31.6,14.1-31.6,31.6-31.6ZM55.1,66.3c2.6,0,4.7,2.1,4.7,4.7s-2.1,4.7-4.7,4.7-4.7-2.1-4.7-4.7,2.1-4.7,4.7-4.7ZM84.4,66.3c2.6,0,4.7,2.1,4.7,4.7s-2.1,4.7-4.7,4.7-4.7-2.1-4.7-4.7,2.1-4.7,4.7-4.7Z"/>
      <path class="d" d="M22.7,22.4h95.1c1,0,1.8.8,1.8,1.8v95.1c0,1-.8,1.8-1.8,1.8H22.7c-1,0-1.8-.8-1.8-1.8V24.1c0-1,.8-1.8,1.8-1.8ZM17.2,14.4h106.1c2.3,0,4.2,1.9,4.2,4.2v106.1c0,2.3-1.9,4.2-4.2,4.2H17.2c-2.3,0-4.2-1.9-4.2-4.2V18.6c0-2.3,1.9-4.2,4.2-4.2Z"/>
    </g>
  </g>
</svg>