<?xml version="1.0" encoding="UTF-8"?>
<svg id="a" data-name="Layer 1" xmlns="http://www.w3.org/2000/svg" width="226.8" height="141.7" viewBox="0 0 226.8 141.7">
  <defs>
    <style>
      .d {
        fill: none;
        stroke: currentColor;
        stroke-linecap: round;
        stroke-linejoin: round;
        stroke-width: 1px;
      }
    </style>
  </defs>
  <g id="b" data-name="图层_1">
    <g id="c" data-name=" 2369807825840">
      <path class="d" d="M199.2,95v31.3M207.5,95v31.3M209.3,76v2.6M209.3,82.7v2.6M209.3,89.4v2.6M197.3,88.8v-2.6M197.3,82.1v-2.6M197.3,75.4v-2.6M195.8,70.1v2.7h4.8v2.6h-4.8v4.1h4.8v2.6h-4.8v4.1h4.8v2.6h-4.8v6.2h15v-3h-5.4v-2.6h5.4v-4.1h-5.4v-2.6h5.4v-4.1h-5.4v-2.6h5.4v-5.9M212.2,29c0-4.6-1.3-4.5-5.3-8.8-2.6-2.8-6.3-6.2-10.1-6.2-6.2,0-12.5,0-18.7,0-2.6,0-3.4-.3-3.3,2.8.1,3.4,0,6.9,0,10.3,0,13,0,25.9,0,38.9,0,1-.3,3.1.4,3.8.7.7,3,.4,4,.4,4.2,0,8.4,0,12.6,0s11.5,0,17.2,0c2.9,0,3.9.5,3.7-3,0-1.4,0-2.8,0-4.2,0-5.8-.1-11.6-.2-17.4,0-4.3,0-8.7-.1-13,0-1.2,0-2.3,0-3.5h0ZM164,27.9v6.6M174.8,34.5h-25.2c-1.8,0-3.3-1.5-3.3-3.3s1.5-3.3,3.3-3.3h25.2M158,48.7v3.6M174.8,52.4h-26.7c-1,0-1.8-.8-1.8-1.8s.8-1.8,1.8-1.8h26.7"/>
      <path class="d" d="M71.3,38.8c17.4,0,31.6,14.1,31.6,31.6s-14.1,31.6-31.6,31.6-31.6-14.1-31.6-31.6,14.1-31.6,31.6-31.6ZM71.6,47.9c2.7,0,4.9,2.2,4.9,4.9s-2.2,4.9-4.9,4.9-4.9-2.2-4.9-4.9,2.2-4.9,4.9-4.9ZM57.1,66.2c2.1,0,3.8,1.7,3.8,3.8s-1.7,3.8-3.8,3.8-3.8-1.7-3.8-3.8,1.7-3.8,3.8-3.8ZM86.1,66.2c2.1,0,3.8,1.7,3.8,3.8s-1.7,3.8-3.8,3.8-3.8-1.7-3.8-3.8,1.7-3.8,3.8-3.8Z"/>
      <path class="d" d="M23.7,21.7h95.1c1,0,1.8.8,1.8,1.8v95.1c0,1-.8,1.8-1.8,1.8H23.7c-1,0-1.8-.8-1.8-1.8V23.5c0-1,.8-1.8,1.8-1.8ZM18.2,13.8h106.1c2.3,0,4.2,1.9,4.2,4.2v106.1c0,2.3-1.9,4.2-4.2,4.2H18.2c-2.3,0-4.2-1.9-4.2-4.2V18c0-2.3,1.9-4.2,4.2-4.2Z"/>
    </g>
  </g>
</svg>