<?xml version="1.0" encoding="UTF-8"?>
<svg id="a" data-name="Layer 1" xmlns="http://www.w3.org/2000/svg" width="226.8" height="141.7" viewBox="0 0 226.8 141.7">
  <defs>
    <style>
      .d {
        fill: none;
        stroke: currentColor;
        stroke-linecap: round;
        stroke-linejoin: round;
        stroke-width: 1px;
      }
    </style>
  </defs>
  <g id="b" data-name="图层_1">
    <g id="c" data-name=" 2369001642064">
      <path class="d" d="M165.2,19.2h33.9c8.8,0,16,7.2,16,16v2.5h-10.5c-1.2,0-2.2,1-2.2,2.2h0c0,1.2,1,2.2,2.2,2.2h10.5v3.7h-10.5c-1.2,0-2.2,1-2.2,2.2h0c0,1.2,1,2.2,2.2,2.2h10.5v3.7h-10.5c-1.2,0-2.2,1-2.2,2.2h0c0,1.2,1,2.2,2.2,2.2h10.5v3.7h-10.5c-1.2,0-2.2,1-2.2,2.2h0c0,1.2,1,2.2,2.2,2.2h10.5v7.3h-49.9V19.2h0ZM213.2,37.7v4.5M213.2,62.1v4.5M213.2,54v4.5M213.2,45.9v4.5M165.2,51.3h10.9c2,0,3.7,1.7,3.7,3.7s-1.7,3.7-3.7,3.7h-10.9M165.2,35.4h10.9c2,0,3.7,1.7,3.7,3.7s-1.7,3.7-3.7,3.7h-10.9M165.2,50.8h-24.1c-2,0-3.7-1.7-3.7-3.7s1.7-3.7,3.7-3.7h24.1M188,79.4h9.9c1,0,1.8.8,1.8,1.8h0c0,1-.8,1.8-1.8,1.8h-9.9M188,86.6h9.9c1,0,1.8.8,1.8,1.8h0c0,1-.8,1.8-1.8,1.8h-9.9M197.9,86.6c1,0,1.8-.8,1.8-1.8h0c0-1-.8-1.8-1.8-1.8M215.1,83h-10c-1,0-1.8-.8-1.8-1.8h0c0-1,.8-1.8,1.8-1.8h10M215.1,86.6h-10M205.1,86.6c-1,0-1.8-.8-1.8-1.8h0c0-1,.8-1.8,1.8-1.8M205.1,86.6c-1,0-1.8.8-1.8,1.8h0c0,1,.8,1.8,1.8,1.8h10M215.1,73.8v17c0,4.3-3.5,7.8-7.8,7.8h-11.5c-4.3,0-7.8-3.5-7.8-7.8v-17M197.8,98.6v29.2M205.4,98.6v29.2"/>
      <path class="d" d="M41,55.4v10.9h-3.8M100.2,66.4h-3.6v-10.6M96.5,86.6v-11.1h3.7M37.2,75.5h3.9v11.4M83.7,66.4c2.5,0,4.6,2,4.6,4.6s-2,4.6-4.6,4.6-4.6-2-4.6-4.6,2-4.6,4.6-4.6ZM54.8,66.4c2.5,0,4.6,2,4.6,4.6s-2,4.6-4.6,4.6-4.6-2-4.6-4.6,2-4.6,4.6-4.6ZM68.7,39.3c17.6,0,31.8,14.3,31.8,31.8s-14.3,31.8-31.8,31.8-31.8-14.3-31.8-31.8,14.3-31.8,31.8-31.8ZM70.7,39.4v5.1h-4v-5.1M66.7,102.9v-5.1h4v5.1"/>
      <path class="d" d="M21.3,21.7h95.1c1,0,1.8.8,1.8,1.8v95.1c0,1-.8,1.8-1.8,1.8H21.3c-1,0-1.8-.8-1.8-1.8V23.5c0-1,.8-1.8,1.8-1.8ZM15.8,13.8h106.1c2.3,0,4.2,1.9,4.2,4.2v106.1c0,2.3-1.9,4.2-4.2,4.2H15.8c-2.3,0-4.2-1.9-4.2-4.2V18c0-2.3,1.9-4.2,4.2-4.2Z"/>
    </g>
  </g>
</svg>