<?xml version="1.0" encoding="UTF-8"?>
<svg id="a" data-name="Layer 1" xmlns="http://www.w3.org/2000/svg" width="226.8" height="141.7" viewBox="0 0 226.8 141.7">
  <defs>
    <style>
      .d {
        fill: none;
        stroke: currentColor;
        stroke-linecap: round;
        stroke-linejoin: round;
        stroke-width: 1px;
      }
    </style>
  </defs>
  <g id="b" data-name="图层_1">
    <g id="c" data-name=" 2369001625072">
      <path class="d" d="M196.4,95.8v31.3M204.7,95.8v31.3M206.5,76.8v2.6M206.5,83.5v2.6M206.5,90.2v2.6M194.5,89.6v-2.6M194.5,82.9v-2.6M194.5,76.2v-2.6M193.1,70.9v2.7h4.8v2.6h-4.8v4.1h4.8v2.6h-4.8v4.1h4.8v2.6h-4.8v6.2h15v-3h-5.4v-2.6h5.4v-4.1h-5.4v-2.6h5.4v-4.1h-5.4v-2.6h5.4v-5.9M205.2,22.8c-2.6-2.8-6.5-7.1-10.3-7.1h-14.1c-2.6,0-3.3-.3-3.3,2.8v48.3c0,3.9-.3,4.2,4.4,4.2h25.2c2.9,0,3.5.5,3.5-3v-33.4c0-7.4-.4-6.3-5.4-11.7ZM177.5,35h-18.2s0-10.5,0-10.5h18.2M177.6,54.4h-18.3v-3.7h18.2M177.6,48.5h12.1c2.1,0,3.9,1.8,3.9,3.9s-1.8,3.9-3.9,3.9h-12.1M177.5,32.5h12c2.1,0,3.9,1.8,3.9,3.9s-1.8,3.9-3.9,3.9h-12"/>
      <path class="d" d="M73.3,39.2c17.5,0,31.7,14.2,31.7,31.7s-14.2,31.7-31.7,31.7-31.7-14.2-31.7-31.7,14.2-31.7,31.7-31.7ZM53,81.3h15v-4.9h-15v4.9ZM79.1,81.3h14.6v-4.9h-14.6v4.9ZM76.1,64.5h-5.1v-15.3h5.1v15.3Z"/>
      <path class="d" d="M25.8,21.7h95.1c1,0,1.8.8,1.8,1.8v95.1c0,1-.8,1.8-1.8,1.8H25.8c-1,0-1.8-.8-1.8-1.8V23.5c0-1,.8-1.8,1.8-1.8ZM20.3,13.8h106.1c2.3,0,4.2,1.9,4.2,4.2v106.1c0,2.3-1.9,4.2-4.2,4.2H20.3c-2.3,0-4.2-1.9-4.2-4.2V18c0-2.3,1.9-4.2,4.2-4.2Z"/>
    </g>
  </g>
</svg>