<?xml version="1.0" encoding="UTF-8"?>
<!DOCTYPE svg PUBLIC "-//W3C//DTD SVG 1.1//EN" "http://www.w3.org/Graphics/SVG/1.1/DTD/svg11.dtd">
<!-- Creator: CorelDRAW 2020 (64-Bit) -->
<svg xmlns="http://www.w3.org/2000/svg" xml:space="preserve" width="80mm" height="50mm" version="1.1" style="shape-rendering:geometricPrecision; text-rendering:geometricPrecision; image-rendering:optimizeQuality; fill-rule:evenodd; clip-rule:evenodd"
viewBox="0 0 8000 5000"
 xmlns:xlink="http://www.w3.org/1999/xlink"
 xmlns:xodm="http://www.corel.com/coreldraw/odm/2003">
 <defs>
  <style type="text/css">
   <![CDATA[
    .str0 {stroke:currentColor;stroke-width:35.28;stroke-linecap:round;stroke-linejoin:round;stroke-miterlimit:22.9256}
    .fil0 {fill:none}
   ]]>
  </style>
 </defs>
 <g id="图层_x0020_1">
  <metadata id="CorelCorpID_0Corel-Layer"/>
  <g id="_2369584117440">
   <path class="fil0 str0" d="M6764.14 2977.77l0 143.63 -666.17 0 0 -143.63m206.31 834.1l0 683.34m292.38 -683.34l0 683.34m64.3 -1228.23l0 74.19m0 124.45l0 74.2m0 124.45l0 74.2m-423.63 -94.56l0 -74.19m0 -124.45l0 -74.2m0 -124.45l0 -74.2m-623.62 -607.49l425.28 412.84c269.85,0 539.71,0 809.56,0l425.28 -412.84m-1774.75 -1166.16c648.89,0 1253.94,0 1863.95,0 75.84,0 137.88,62.04 137.88,137.89 0,75.83 -62.05,137.88 -137.88,137.88l-1863.95 0c-75.83,0 -137.88,-62.05 -137.88,-137.88 0,-75.85 62.04,-137.89 137.88,-137.89zm685.92 1722.63l0 51.02 170.27 0 0 74.2 -170.27 0 0 124.45 170.27 0 0 74.2 -170.27 0 0 124.45 170.27 0 0 74.19 -170.27 0 0 167.96 528.29 0 0 -73.4 -189.41 0 0 -74.2 189.41 0 0 -124.45 -52.33 0 -137.08 0 0 -74.2 189.41 0 0 -124.45 -189.41 0 0 -74.19 189.41 0 0 -144.61m558.38 -557.44l0 -890.39 -1657.96 0 0 890.39 1657.96 0zm-892.11 -1166.91l0 -854.37 102.99 0 0 854.37m438.17 0l0 -934.11 102.99 0 0 934.11m-1082.31 0l0 -934.11 -103 0 0 934.11m103 -934.11l156.16 146.19 0 787.92m823.16 -934.11l-156.16 146.19 0 787.92"/>
   <path class="fil0 str0" d="M2427.09 3268.45l161.23 0 0 -513.34 -161.23 0 0 513.34zm-183.85 -911.09l-114.47 113.52 -361.47 -364.48 114.47 -113.53 361.47 364.49zm528.93 0l114.47 113.53 361.48 -364.49 -114.48 -113.53 -361.47 364.49zm-264.46 -963.6c614.72,0 1113.05,498.33 1113.05,1113.05 0,614.72 -498.33,1113.06 -1113.05,1113.06 -614.73,0 -1113.06,-498.34 -1113.06,-1113.06 0,-614.72 498.33,-1113.05 1113.06,-1113.05z"/>
   <path class="fil0 str0" d="M840.33 790.58l3354.68 0c34.53,0 62.78,28.26 62.78,62.79l0 3354.68c0,34.53 -28.25,62.79 -62.78,62.79l-3354.68 0c-34.54,0 -62.79,-28.26 -62.79,-62.79l0 -3354.68c0,-34.53 28.25,-62.79 62.79,-62.79zm-194.08 -279.51l3742.83 0c81.54,0 148.22,66.7 148.22,148.22l0 3742.84c0,81.53 -66.68,148.22 -148.22,148.22l-3742.83 0c-81.53,0 -148.22,-66.69 -148.22,-148.22l0 -3742.84c0,-81.52 66.69,-148.22 148.22,-148.22z"/>
  </g>
 </g>
</svg>
