<?xml version="1.0" encoding="UTF-8"?>
<!DOCTYPE svg PUBLIC "-//W3C//DTD SVG 1.1//EN" "http://www.w3.org/Graphics/SVG/1.1/DTD/svg11.dtd">
<!-- Creator: CorelDRAW 2020 (64-Bit) -->
<svg xmlns="http://www.w3.org/2000/svg" xml:space="preserve" width="80mm" height="50mm" version="1.1" style="shape-rendering:geometricPrecision; text-rendering:geometricPrecision; image-rendering:optimizeQuality; fill-rule:evenodd; clip-rule:evenodd"
viewBox="0 0 8000 5000"
 xmlns:xlink="http://www.w3.org/1999/xlink"
 xmlns:xodm="http://www.corel.com/coreldraw/odm/2003">
 <defs>
  <style type="text/css">
   <![CDATA[
    .str0 {stroke:currentColor;stroke-width:35.28;stroke-linecap:round;stroke-linejoin:round;stroke-miterlimit:22.9256}
    .fil0 {fill:none}
   ]]>
  </style>
 </defs>
 <g id="图层_x0020_1">
  <metadata id="CorelCorpID_0Corel-Layer"/>
  <g id="_2368984136752">
   <path class="fil0 str0" d="M6328.56 3751.19l0 780.19m1081.83 -2375.61l-1873.92 0 0 -681.13 1873.92 0 0 681.13zm-1873.92 0c328.93,277.98 572.64,946.93 655.7,1417.63m1218.22 -1417.63c-328.92,277.98 -572.46,946.93 -655.53,1417.63m-133.92 177.79l0 780.19m-576.24 -3395.58l0 -652.92 -204.15 0 0 652.92m243.28 338.84l0 -338.84 -282.42 0 0 338.84m811.54 0l0 -338.84 -282.43 0 0 338.84m772.39 -338.84l0 -652.92 -204.14 0 0 652.92m243.28 338.84l0 -338.84 -282.42 0 0 338.84m-733.4 176.64l694.41 0m-694.41 312.31l694.41 0m-694.41 -156.16l694.41 0m-681.95 1765.97l-96.81 96.81 0 80.98c231.77,0 631.33,0 863.1,0l0 -80.98 -96.81 -96.81c-167.23,0 -502.25,0 -669.48,0zm422.79 -2437.6l0 -459.4c0,-48.43 -39.62,-88.05 -88.05,-88.05 -48.44,0 -88.05,39.62 -88.05,88.05l0 459.4"/>
   <path class="fil0 str0" d="M2747.26 3078.61l-298.21 0 0 -168.61c0,-82.01 67.09,-149.11 149.1,-149.11l0.01 0c82.01,0 149.1,67.1 149.1,149.11l0 168.61zm-578.28 -1221.35l109.64 0 0 641.25 -109.64 0 0 -641.25zm799.08 126.25l109.64 0 0 388.75 -109.64 0 0 -388.75zm-1283.49 -511.67l1877.53 0c48.35,0 87.91,39.56 87.91,87.91l0 1877.53c0,48.35 -39.56,87.9 -87.91,87.9l-1877.53 0c-48.35,0 -87.9,-39.55 -87.9,-87.9l0 -1877.53c0,-48.35 39.55,-87.91 87.9,-87.91z"/>
   <path class="fil0 str0" d="M930.85 771.61l3354.68 0c34.53,0 62.78,28.26 62.78,62.79l0 3354.68c0,34.54 -28.25,62.79 -62.78,62.79l-3354.68 0c-34.54,0 -62.79,-28.25 -62.79,-62.79l0 -3354.68c0,-34.53 28.25,-62.79 62.79,-62.79zm-194.08 -279.5l3742.83 0c81.54,0 148.22,66.69 148.22,148.21l0 3742.84c0,81.53 -66.68,148.22 -148.22,148.22l-3742.83 0c-81.53,0 -148.22,-66.69 -148.22,-148.22l0 -3742.84c0,-81.52 66.69,-148.21 148.22,-148.21z"/>
  </g>
 </g>
</svg>
