<?xml version="1.0" encoding="UTF-8"?>
<!DOCTYPE svg PUBLIC "-//W3C//DTD SVG 1.1//EN" "http://www.w3.org/Graphics/SVG/1.1/DTD/svg11.dtd">
<!-- Creator: CorelDRAW 2020 (64-Bit) -->
<svg xmlns="http://www.w3.org/2000/svg" xml:space="preserve" width="80mm" height="50mm" version="1.1" style="shape-rendering:geometricPrecision; text-rendering:geometricPrecision; image-rendering:optimizeQuality; fill-rule:evenodd; clip-rule:evenodd"
viewBox="0 0 8000 5000"
 xmlns:xlink="http://www.w3.org/1999/xlink"
 xmlns:xodm="http://www.corel.com/coreldraw/odm/2003">
 <defs>
  <style type="text/css">
   <![CDATA[
    .str0 {stroke:currentColor;stroke-width:35.28;stroke-linecap:round;stroke-linejoin:round;stroke-miterlimit:22.9256}
    .fil0 {fill:none}
   ]]>
  </style>
 </defs>
 <g id="图层_x0020_1">
  <metadata id="CorelCorpID_0Corel-Layer"/>
  <g id="_2369581186608">
   <path class="fil0 str0" d="M6365.76 3737.71l0 780.19m1081.83 -2375.61l-1873.92 0 0 -681.13 1873.92 0 0 681.13zm-1873.92 0c328.93,277.98 572.31,946.94 655.37,1417.63m1218.55 -1417.63c-328.93,277.98 -572.31,946.94 -655.37,1417.63m-134.08 177.79l0 780.19m-563.69 -3395.58l0 -526.67c0,-63.04 -51.59,-114.62 -114.63,-114.62 -63.03,0 -114.63,51.59 -114.63,114.62l0 526.67m255.84 338.84l0 -338.84 -282.42 0 0 338.84m784.95 -338.84l0 -526.67c0,-63.04 -51.59,-114.62 -114.62,-114.62 -63.03,0 -114.64,51.58 -114.64,114.62l0 526.67m255.84 338.84l0 -338.84 -282.42 0 0 338.84m784.95 -338.84l0 -526.67c0,-63.04 -51.6,-114.62 -114.63,-114.62 -63.04,0 -114.63,51.58 -114.63,114.62l0 526.67m255.84 338.84l0 -338.84 -282.43 0 0 338.84m-733.4 176.64l694.41 0m-694.41 312.31l694.41 0m-694.41 -156.16l694.41 0m-681.95 1765.97l-96.81 96.81 0 80.98c231.77,0 631.33,0 863.11,0l0 -80.98 -96.81 -96.81c-167.23,0 -502.26,0 -669.49,0z"/>
   <path class="fil0 str0" d="M3463.02 1775.94l444.75 602.18 -444.74 602.18 -1783.33 0 -444.74 -602.18 444.74 -602.18 1783.32 0zm-1448.1 443.96c86.9,0 157.34,70.44 157.34,157.33 0,86.91 -70.44,157.35 -157.34,157.35 -86.89,0 -157.33,-70.44 -157.33,-157.35 0,-86.89 70.44,-157.33 157.33,-157.33zm1112.88 0c86.9,0 157.34,70.44 157.34,157.33 0,86.91 -70.44,157.35 -157.34,157.35 -86.9,0 -157.34,-70.44 -157.34,-157.35 0,-86.89 70.44,-157.33 157.34,-157.33zm-556.44 261.93c86.9,0 157.34,70.44 157.34,157.34 0,86.9 -70.44,157.34 -157.34,157.34 -86.89,0 -157.34,-70.44 -157.34,-157.34 0,-86.9 70.45,-157.34 157.34,-157.34z"/>
   <path class="fil0 str0" d="M893.66 773.46l3354.68 0c34.53,0 62.78,28.26 62.78,62.79l0 3354.68c0,34.53 -28.25,62.79 -62.78,62.79l-3354.68 0c-34.54,0 -62.79,-28.26 -62.79,-62.79l0 -3354.68c0,-34.53 28.25,-62.79 62.79,-62.79zm-194.08 -279.51l3742.83 0c81.54,0 148.22,66.7 148.22,148.22l0 3742.84c0,81.53 -66.68,148.22 -148.22,148.22l-3742.83 0c-81.53,0 -148.22,-66.69 -148.22,-148.22l0 -3742.84c0,-81.52 66.69,-148.22 148.22,-148.22z"/>
  </g>
 </g>
</svg>
