<?xml version="1.0" encoding="UTF-8"?>
<!DOCTYPE svg PUBLIC "-//W3C//DTD SVG 1.1//EN" "http://www.w3.org/Graphics/SVG/1.1/DTD/svg11.dtd">
<!-- Creator: CorelDRAW 2020 (64-Bit) -->
<svg xmlns="http://www.w3.org/2000/svg" xml:space="preserve" width="80mm" height="50mm" version="1.1" style="shape-rendering:geometricPrecision; text-rendering:geometricPrecision; image-rendering:optimizeQuality; fill-rule:evenodd; clip-rule:evenodd"
viewBox="0 0 8000 5000"
 xmlns:xlink="http://www.w3.org/1999/xlink"
 xmlns:xodm="http://www.corel.com/coreldraw/odm/2003">
 <defs>
  <style type="text/css">
   <![CDATA[
    .str0 {stroke:currentColor;stroke-width:35.28;stroke-linecap:round;stroke-linejoin:round;stroke-miterlimit:22.9256}
    .fil0 {fill:none}
   ]]>
  </style>
 </defs>
 <g id="图层_x0020_1">
  <metadata id="CorelCorpID_0Corel-Layer"/>
  <g id="_2369821537664">
   <path class="fil0 str0" d="M6374.42 3805.81l0 683.35m292.38 -683.35l0 683.35m64.31 -1334.98l0 93.04m0 143.28l0 93.03m0 143.29l0 93.04m-423.63 -113.39l0 -93.04m0 -143.29l0 -93.03m0 -143.28l0 -93.04m-623.63 -481.91l425.29 412.83c269.85,0 539.7,0 809.55,0l423.12 -412.83m-1772.58 -1166.17c648.89,0 1253.94,0 1863.94,0 75.84,0 137.89,62.05 137.89,137.89 0,75.84 -62.06,137.88 -137.89,137.88l-1863.94 0c-75.84,0 -137.89,-62.04 -137.89,-137.88 0,-75.84 62.05,-137.89 137.89,-137.89zm685.92 1579l0 69.08 170.27 0 0 93.04 -170.27 0 0 143.28 170.27 0 0 93.03 -170.27 0 0 143.29 170.27 0 0 93.04 -170.27 0 0 199.34 528.28 0 0 -85.95 -189.41 0 0 -93.04 189.41 0 0 -143.29 -52.32 0 -137.09 0 0 -93.03 189.41 0 0 -143.28 -189.41 0 0 -93.04 189.41 0 0 -182.47m558.38 -412.83l0 -890.4 -1657.96 0 0 890.4 1657.96 0zm-1255.92 -1166.17l0 -814.12c0,-71.27 -58.31,-129.58 -129.59,-129.58 -71.27,0 -129.58,58.32 -129.58,129.58l0 814.12m1398.8 0l0 -814.12c0,-71.27 -58.31,-129.58 -129.58,-129.58 -71.27,0 -129.58,58.32 -129.58,129.58l0 814.12m0 -395.47l259.16 0m-569.82 395.47l0 -814.12 -259.16 0 0 814.12m-569.82 -395.47l259.17 0"/>
   <path class="fil0 str0" d="M2452.05 3640.2c614.72,0 1113.06,-498.33 1113.06,-1113.05 0,-614.73 -498.34,-1113.06 -1113.06,-1113.06 -614.72,0 -1113.06,498.33 -1113.06,1113.06 0,614.72 498.34,1113.05 1113.06,1113.05zm-518.5 -1275.63c95.42,0 172.77,77.35 172.77,172.77 0,95.42 -77.35,172.77 -172.77,172.77 -95.42,0 -172.77,-77.35 -172.77,-172.77 0,-95.42 77.35,-172.77 172.77,-172.77zm1037.01 0c95.42,0 172.76,77.35 172.76,172.77 0,95.42 -77.34,172.77 -172.76,172.77 -95.42,0 -172.77,-77.35 -172.77,-172.77 0,-95.42 77.35,-172.77 172.77,-172.77zm-667.61 607.27l298.21 0 0 168.62c0,82 -67.1,149.1 -149.1,149.1l-0.01 0c-82.01,0 -149.1,-67.1 -149.1,-149.1l0 -168.62z"/>
   <path class="fil0 str0" d="M770.19 805.48l3354.68 0c34.53,0 62.79,28.26 62.79,62.79l0 3354.68c0,34.54 -28.26,62.79 -62.79,62.79l-3354.68 0c-34.53,0 -62.79,-28.25 -62.79,-62.79l0 -3354.68c0,-34.53 28.26,-62.79 62.79,-62.79zm-194.08 -279.5l3742.84 0c81.53,0 148.22,66.69 148.22,148.21l0 3742.84c0,81.53 -66.69,148.22 -148.22,148.22l-3742.84 0c-81.52,0 -148.22,-66.69 -148.22,-148.22l0 -3742.84c0,-81.52 66.7,-148.21 148.22,-148.21z"/>
  </g>
 </g>
</svg>
