<?xml version="1.0" encoding="UTF-8"?>
<!DOCTYPE svg PUBLIC "-//W3C//DTD SVG 1.1//EN" "http://www.w3.org/Graphics/SVG/1.1/DTD/svg11.dtd">
<!-- Creator: CorelDRAW 2020 (64-Bit) -->
<svg xmlns="http://www.w3.org/2000/svg" xml:space="preserve" width="80mm" height="50mm" version="1.1" style="shape-rendering:geometricPrecision; text-rendering:geometricPrecision; image-rendering:optimizeQuality; fill-rule:evenodd; clip-rule:evenodd"
viewBox="0 0 8000 5000"
 xmlns:xlink="http://www.w3.org/1999/xlink"
 xmlns:xodm="http://www.corel.com/coreldraw/odm/2003">
 <defs>
  <style type="text/css">
   <![CDATA[
    .str0 {stroke:currentColor;stroke-width:35.28;stroke-linecap:round;stroke-linejoin:round;stroke-miterlimit:22.9256}
    .fil0 {fill:none}
   ]]>
  </style>
 </defs>
 <g id="图层_x0020_1">
  <metadata id="CorelCorpID_0Corel-Layer"/>
  <g id="_2369581090656">
   <path class="fil0 str0" d="M6283.38 3832.4l0 683.34m292.38 -683.34l0 683.34m64.3 -1334.97l0 93.03m0 143.28l0 93.04m0 143.28l0 93.04m-423.63 -113.39l0 -93.03m0 -143.29l0 -93.04m0 -143.28l0 -93.03m-623.62 -481.92l425.28 412.84c269.85,0 539.7,0 809.55,0l425.29 -412.84m-1774.75 -1166.16c648.89,0 1253.94,0 1863.95,0 75.83,0 137.88,62.04 137.88,137.88 0,75.84 -62.04,137.89 -137.88,137.89l-1863.95 0c-75.84,0 -137.88,-62.05 -137.88,-137.89 0,-75.84 62.04,-137.88 137.88,-137.88zm685.92 1579l0 69.08 170.27 0 0 93.03 -170.27 0 0 143.28 170.27 0 0 93.04 -170.27 0 0 143.29 170.27 0 0 93.03 -170.27 0 0 199.35 528.29 0 0 -85.96 -189.42 0 0 -93.04 189.42 0 0 -143.28 -52.33 0 -137.09 0 0 -93.04 189.42 0 0 -143.28 -189.42 0 0 -93.03 189.42 0 0 -182.47m558.37 -412.84l0 -890.39 -1657.95 0 0 890.39 1657.95 0zm-1255.92 -1166.16l0 -814.12c0,-71.28 -58.31,-129.59 -129.58,-129.59 -71.27,0 -129.59,58.32 -129.59,129.59l0 814.12m1398.8 0l0 -814.12c0,-71.28 -58.31,-129.59 -129.58,-129.59 -71.27,0 -129.58,58.32 -129.58,129.59l0 814.12m0 -395.48l259.16 0m-569.81 395.48l0 -814.12c0,-71.28 -58.32,-129.59 -129.59,-129.59 -71.27,0 -129.58,58.32 -129.58,129.59l0 814.12m0 -395.48l259.17 0m-828.99 0l259.17 0"/>
   <path class="fil0 str0" d="M1639.34 2012.75l1827.68 0c72.53,0 131.86,59.33 131.86,131.85l0 706.48c0,72.52 -59.33,131.85 -131.86,131.85l-1827.68 0c-72.52,0 -131.85,-59.33 -131.85,-131.85l0 -706.48c0,-72.52 59.33,-131.85 131.85,-131.85zm337.23 357.59c70.41,0 127.5,57.08 127.5,127.5 0,70.41 -57.09,127.5 -127.5,127.5 -70.41,0 -127.5,-57.09 -127.5,-127.5 0,-70.42 57.09,-127.5 127.5,-127.5zm576.62 0c70.41,0 127.5,57.08 127.5,127.5 0,70.41 -57.09,127.5 -127.5,127.5 -70.42,0 -127.5,-57.09 -127.5,-127.5 0,-70.42 57.08,-127.5 127.5,-127.5zm576.61 0c70.41,0 127.5,57.08 127.5,127.5 0,70.41 -57.09,127.5 -127.5,127.5 -70.42,0 -127.5,-57.09 -127.5,-127.5 0,-70.42 57.08,-127.5 127.5,-127.5z"/>
   <path class="fil0 str0" d="M861.23 778.9l3354.68 0c34.53,0 62.79,28.26 62.79,62.79l0 3354.68c0,34.54 -28.26,62.79 -62.79,62.79l-3354.68 0c-34.54,0 -62.79,-28.25 -62.79,-62.79l0 -3354.68c0,-34.53 28.25,-62.79 62.79,-62.79zm-194.08 -279.5l3742.84 0c81.53,0 148.21,66.69 148.21,148.21l0 3742.84c0,81.53 -66.68,148.22 -148.21,148.22l-3742.84 0c-81.53,0 -148.22,-66.69 -148.22,-148.22l0 -3742.84c0,-81.52 66.69,-148.21 148.22,-148.21z"/>
  </g>
 </g>
</svg>
