<svg id="Layer_1" viewBox="0 0 24 24" xmlns="http://www.w3.org/2000/svg" data-name="Layer 1"><path d="m23 22h-8v-5c0-.553-.447-1-1-1s-1 .447-1 1v5h-2v-5.307c1.308-1.17 2-2.961 2-4.693v-1c0-.552-.447-1-1-1s-1 .448-1 1-.448 1-1 1h-5c-2.206 0-4 1.794-4 4v6c-.553 0-1 .447-1 1s.447 1 1 1h22c.553 0 1-.447 1-1s-.447-1-1-1zm-18 0h-2v-4h2zm4 0h-2v-4h.5c.539 0 1.037-.078 1.5-.208zm14.001-22-6.995-.005c-.266 0-.52.105-.707.293-.852.853-1.271 2.028-1.151 3.227l.26 2.6-.995 1.404c-.474.669-.397 1.583.183 2.163l.325.326c.607.607 1.574.661 2.244.124l1.285-1.03c.293.023 2.705.288 2.94.274 1.057 0 2.067-.416 2.823-1.171l.495-.495c.188-.188.293-.442.293-.708v-6.002c0-.552-.447-1-.999-1z"/></svg>