<svg id="Layer_1" viewBox="0 0 24 24" xmlns="http://www.w3.org/2000/svg" data-name="Layer 1"><path d="m11 11v-11h-6c-2.757 0-5 2.243-5 5v6zm-8.015-6.236 1.299-.492.52-1.301c.114-.285.39-.472.697-.472s.583.187.697.472l.523 1.308 1.308.523c.285.114.472.39.472.697s-.187.583-.472.697l-1.308.523-.523 1.308c-.114.285-.39.472-.697.472s-.583-.187-.697-.472l-.526-1.316-1.318-.555c-.283-.119-.464-.398-.459-.705.006-.307.198-.579.484-.687zm8.015 8.236h-11v6c0 2.757 2.243 5 5 5h6zm-2.972 6.197-1.308.523-.523 1.308c-.114.285-.39.472-.697.472s-.583-.187-.697-.472l-.526-1.316-1.318-.555c-.283-.119-.464-.398-.459-.705.006-.307.198-.579.484-.687l1.299-.492.52-1.301c.114-.285.39-.472.697-.472s.583.187.697.472l.523 1.308 1.308.523c.285.114.472.39.472.697s-.187.583-.472.697zm4.972-8.197h11v-6c0-2.757-2.243-5-5-5h-6zm2.985-6.236 1.299-.492.52-1.301c.114-.285.39-.472.697-.472s.583.187.697.472l.523 1.308 1.308.523c.285.114.472.39.472.697s-.187.583-.472.697l-1.308.523-.523 1.308c-.114.285-.39.472-.697.472s-.583-.187-.697-.472l-.526-1.316-1.318-.555c-.283-.119-.464-.398-.459-.705.006-.307.198-.579.484-.687zm-2.985 8.236v11h6c2.757 0 5-2.243 5-5v-6zm8.028 6.196-1.308.523-.523 1.308c-.114.285-.39.472-.697.472s-.583-.187-.697-.472l-.526-1.316-1.318-.555c-.283-.119-.464-.398-.459-.705.006-.307.198-.579.484-.687l1.299-.492.52-1.301c.114-.285.39-.472.697-.472s.583.187.697.472l.523 1.308 1.308.523c.285.114.472.39.472.697s-.187.583-.472.697z"/></svg>