<svg id="Layer_1" viewBox="0 0 24 24" xmlns="http://www.w3.org/2000/svg" data-name="Layer 1"><path d="m3 17c-.344 0-.677.043-1 .11v-6.11c0-2.757 2.243-5 5-5h6.779c-.498.552-.779 1.252-.779 2 0 .366.073.72.198 1.053-.27-.06-.567-.013-.823.179l-1.492 1.119c-.27-.784-1.007-1.351-1.883-1.351h-3c-1.105 0-2 .895-2 2v2c0 1.105.895 2 2 2h3c.868 0 1.599-.556 1.876-1.329l1.499 1.124c.67.502 1.625.025 1.625-.812v-3.762c.551.497 1.252.779 2 .779.801 0 1.555-.312 2.121-.879l1.379-1.379 1.379 1.379c.316.316 1.121.691 1.121.691s-.019 6.078 0 6.298c-.323-.067-.656-.11-1-.11h-5.151c-.983 0-1.92.359-2.646 1h-2.404c-.726-.641-1.663-1-2.646-1zm17.914-12.5 2.793-2.793c.391-.391.391-1.023 0-1.414s-1.023-.391-1.414 0l-2.793 2.793-2.793-2.793c-.391-.391-1.023-.391-1.414 0s-.391 1.023 0 1.414l2.793 2.793-2.793 2.793c-.391.391-.391 1.023 0 1.414s1.023.391 1.414 0l2.793-2.793 2.793 2.793c.391.391 1.023.391 1.414 0s.391-1.023 0-1.414zm-14.914 8.5h3v-2h-3zm15.5 6h-5.652c-.588 0-1.147.259-1.527.708l-.247.292h-4.149l-.247-.292c-.38-.449-.939-.708-1.527-.708h-5.651c-1.381 0-2.5 1.119-2.5 2.5s1.119 2.5 2.5 2.5h19c1.381 0 2.5-1.119 2.5-2.5s-1.119-2.5-2.5-2.5z"/></svg>