<?xml version="1.0" encoding="UTF-8"?>
<svg xmlns="http://www.w3.org/2000/svg" id="Layer_1" data-name="Layer 1" viewBox="0 0 24 24">
  <path d="M10.798,20h2.189l1.156,2.593c.226,.504,0,1.096-.506,1.32-.492,.224-1.095,.003-1.32-.506l-1.52-3.407ZM24,5V15c0,2.757-2.243,5-5,5h-6.013l-1.338-3h5.993c.272,0,.537,.114,.726,.311l.653,.687c.773-.005,1.472-.31,2.002-.797l-1.206-1.269c-.564-.593-1.357-.933-2.175-.933h-2.561l-2.73-6.121,2.645-1.511c.115-.065,.216-.153,.297-.258l1.793-2.5c.336-.438,.255-1.065-.184-1.402-.438-.338-1.065-.255-1.402,.183l-1.67,2.341-4.971,2.84c-1.396,.798-2.483,2.064-3.061,3.565l-1.732,4.505c-.198,.516,.06,1.094,.574,1.292,.503,.197,1.094-.053,1.293-.575l1.707-4.438,3.157,7.079H5c-2.757,0-5-2.243-5-5V5C0,2.243,2.243,0,5,0h14c2.757,0,5,2.243,5,5Zm-14,.5c0-1.381-1.119-2.5-2.5-2.5s-2.5,1.119-2.5,2.5,1.119,2.5,2.5,2.5,2.5-1.119,2.5-2.5Zm.607,4.376l-.755,.431c-.332,.19-.626,.43-.902,.689l1.807,4.003h2.135l-2.285-5.124Z"/>
</svg>
