<?xml version="1.0" encoding="UTF-8"?>
<svg xmlns="http://www.w3.org/2000/svg" id="Layer_1" data-name="Layer 1" viewBox="0 0 24 24">
  <path d="M18.236,10.918h0c-.635-.269-.932-1.003-.663-1.638h0c.269-.636,1.002-.933,1.638-.664h0c.635,.269,.932,1.003,.663,1.638h0c-.269,.636-1.002,.933-1.638,.664Zm2.559-2.842c.031-.021,.137-.07,.456-.097,1.349-.114,2.433-1.089,2.699-2.428,.218-1.096-.209-2.242-1.087-2.919-.75-.579-1.701-.775-2.607-.538-.906,.237-1.664,.891-2.028,1.75-.215,.508,.022,1.095,.531,1.311,.51,.215,1.096-.022,1.311-.531,.124-.292,.382-.514,.692-.596,.179-.048,.527-.083,.879,.187,.273,.211,.416,.6,.347,.947-.104,.525-.529,.792-.904,.824-.397,.033-.912,.11-1.378,.412-.463,.301-.595,.92-.294,1.384,.192,.295,.513,.455,.84,.455,.187,0,.375-.052,.544-.161Zm-15.058,2.926h0c.635-.269,.932-1.003,.663-1.638h0c-.269-.635-1.003-.932-1.638-.663h0c-.635,.269-.932,1.003-.663,1.638h0c.269,.635,1.003,.932,1.638,.663Zm-.664-3.702c.001-.019,.021-.125,.249-.404,.856-1.048,.91-2.506,.132-3.627-.636-.918-1.753-1.409-2.853-1.249-.938,.136-1.74,.683-2.2,1.5C-.059,4.335-.116,5.335,.248,6.193c.215,.508,.801,.746,1.311,.531,.509-.216,.746-.803,.531-1.311-.124-.292-.104-.633,.054-.912,.09-.16,.307-.438,.745-.501,.34-.053,.72,.118,.921,.408,.305,.44,.201,.932-.037,1.223-.294,.361-.64,.857-.693,1.503-.046,.55,.363,1.034,.914,1.08,.028,.002,.056,.003,.084,.003,.515,0,.952-.395,.996-.917Zm8.177,.95h0c0-.691-.56-1.25-1.25-1.25h0c-.69,0-1.25,.56-1.25,1.25h0c0,.691,.56,1.25,1.25,1.25h0c.69,0,1.25-.56,1.25-1.25Zm-.379-2.275c.072-.083,.356-.232,.526-.322,1.198-.631,1.816-1.952,1.538-3.289-.228-1.093-1.067-1.981-2.14-2.263-.917-.241-1.869-.05-2.611,.522-.741,.572-1.184,1.47-1.184,2.402,0,.552,.448,1,1,1s1-.448,1-1c0-.317,.151-.623,.405-.819,.146-.111,.455-.282,.881-.171,.334,.087,.618,.39,.689,.736,.109,.524-.178,.937-.511,1.112-.476,.25-1.067,.562-1.363,1.167-.243,.496-.051,1.118,.445,1.36,.147,.072,.302,.106,.454,.106,.359,0,.699-.194,.87-.542Zm8.127,11.6c-.287,2.007-2.138,3.424-4.166,3.424h-2.793s0,2,0,2c0,.552-.448,1-1,1h0c-.552,0-1-.448-1-1v-3.5c0-1.044-.289-2.045-.83-2.909-.345-.552-1.11-.65-1.57-.19h0c-.338,.338-.371,.855-.119,1.261,.339,.547,.52,1.179,.52,1.838-.005,1.877-1.573,3.512-3.5,3.5-1.933,0-3.5-1.567-3.5-3.5,0-1.417,.846-2.631,2.057-3.181-.029-.187-.057-.374-.057-.569,0-1.879,1.386-3.42,3.188-3.693,.107-.025,.224-.044,.358-.051,.703-1.224,2.011-2.005,3.454-2.005,1.219,0,2.368,.57,3.121,1.518,1.085,.107,2.06,.683,2.686,1.578,2.01,.413,3.459,2.331,3.152,4.48Z"/>
</svg>
