<svg id="Layer_1" viewBox="0 0 24 24" xmlns="http://www.w3.org/2000/svg" data-name="Layer 1"><path d="m24 13.001c0 .97-.701 2-2 2h-.33l-.219 1.655c-.329 2.487-2.449 4.345-4.957 4.345h-.494c0 1.654-1.346 3-3 3h-6c-1.632-.002-3.001-1.334-3-3.001v-3.586l-1.414-1.414c-.375-.375-.586-.884-.586-1.414v-.77c-1.161-.414-2-1.514-2-2.816 0-1.839 1.663-3.297 3.565-2.948 1.178.216 2.146 1.172 2.376 2.348.304 1.556-.605 2.94-1.941 3.416v.891l1.414 1.414c.375.375.586.884.586 1.414v3.465c0 .552.448 1 1 1h1v-5.293c0-.53-.211-1.039-.586-1.414l-.828-.828c.871-.898 1.414-2.115 1.414-3.465 0-1.118-.38-2.14-1-2.973v-4.027h-1.184c-.414 1.161-1.514 2-2.816 2-1.839 0-3.297-1.663-2.948-3.565.216-1.178 1.172-2.146 2.347-2.376 1.556-.304 2.94.605 3.416 1.941h1.184c1.105 0 2 .895 2 2v2.998c0 .535.418 1.015.953 1.003 1.126-.026 2.047.879 2.047 1.999v12h1c.552 0 1-.448 1-1v-11c0-1.86-1.276-3.429-3-3.873v-2.127c0-1.683-1.048-3.12-2.523-3.71.321-.075.646-.137.976-.183 4.036-.554 7.909 1.057 10.348 4.312.542.67 1.388 2.078 2.18 3.581h-3.98c-.553 0-1 .447-1 1s.447 1 1 1h4.97c.6 1.305 1.03 2.458 1.03 3.001z"/></svg>