<svg id="Layer_1" viewBox="0 0 24 24" xmlns="http://www.w3.org/2000/svg" data-name="Layer 1"><path d="m23.707 22.293-5.969-5.969c1.412-1.725 2.262-3.927 2.262-6.324 0-5.514-4.486-10-10-10s-10 4.486-10 10 4.486 10 10 10c2.398 0 4.6-.85 6.324-2.262l5.969 5.969c.391.391 1.023.391 1.414 0s.391-1.023 0-1.414zm-9.708-11.385v2.592c0 .499-.367.921-.861.99-.484.071-.964-.234-1.1-.714-.236-.823-.913-1.276-1.905-1.276h-1.038l.801 1.69c.361.86-.271 1.81-1.203 1.81-.521 0-.992-.31-1.198-.788l-1.817-3.835c-.418-.516-.679-1.163-.679-1.877 0-1.654 1.346-3 3-3h2.134c.992 0 1.669-.453 1.905-1.276.137-.479.609-.785 1.1-.714.494.069.861.492.861.99v2.592c.581.207 1 .757 1 1.408s-.42 1.201-1.001 1.408zm-1.999-2.807v2.797c-.548-.259-1.18-.398-1.866-.398h-2.134c-.551 0-1-.449-1-1s.449-1 1-1h2.134c.687 0 1.318-.139 1.866-.398z"/></svg>