<svg id="Layer_1" viewBox="0 0 24 24" xmlns="http://www.w3.org/2000/svg" data-name="Layer 1"><path d="m8.641 13.528c-.679 1.049-.766 2.16-.254 3.214.385.79 1.109 1.533 2.154 2.209 1.162.75 2.123 1.03 2.91 1.03 1.4 0 2.253-.886 2.71-1.593 1.025-1.587 1.592-6.76 1.76-8.54l5.892-8.268c.32-.449.216-1.074-.234-1.395-.448-.319-1.073-.217-1.394.234l-5.757 8.078c-1.298.63-6.677 3.313-7.786 5.03zm1.679 1.086c.362-.56 1.866-1.545 3.565-2.514l-3.035 4.578c-.305-.275-.537-.548-.664-.81-.144-.296-.239-.676.135-1.254zm2.216 3.139 2.932-4.421c-.283 1.801-.633 3.424-.987 3.971-.238.371-.663.984-1.945.45zm11.298-2.603c-.408 1.398-1.08 3.155-1.997 5.223-.976 2.204-3.166 3.628-5.576 3.628h-8.522c-2.411 0-4.6-1.424-5.576-3.628-.917-2.067-1.589-3.824-1.997-5.223-.36-1.233-.127-2.528.641-3.553.761-1.015 1.924-1.597 3.192-1.597h5.672c-1.199.819-2.206 1.664-2.708 2.441-1.063 1.644-1.196 3.481-.373 5.177.547 1.122 1.511 2.136 2.867 3.014 1.388.896 2.732 1.35 3.995 1.35 1.785 0 3.344-.891 4.389-2.508 1.128-1.746 1.729-5.987 2.02-8.9l.389-.545c1.17.072 2.236.621 2.945 1.568.767 1.024 1.001 2.319.641 3.553z"/></svg>