<svg id="Layer_1" viewBox="0 0 24 24" xmlns="http://www.w3.org/2000/svg" data-name="Layer 1"><path d="m18 0c-3.314 0-6 2.686-6 6s2.686 6 6 6 6-2.686 6-6-2.686-6-6-6zm3.683 5.712-2.703 2.614c-.452.446-1.052.671-1.653.671s-1.203-.225-1.663-.674l-1.354-1.332c-.395-.387-.4-1.02-.014-1.414.386-.395 1.019-.401 1.414-.014l1.354 1.331c.144.142.38.139.522-.002l2.713-2.624c.397-.381 1.031-.37 1.414.029.382.398.369 1.031-.029 1.414zm-8.396 6.74c1.301.951 2.895 1.525 4.626 1.544-.431 6.165-6.33 9.035-8.19 9.783-.211.081-.51.221-.743.221-.267 0-.573-.171-.805-.285-1.917-.958-8.175-4.542-8.175-10.427v-4.583c0-1.963 1.252-3.697 3.115-4.314l5.547-1.839c.205-.067.425-.067.63 0l1.301.432c-.38.932-.593 1.949-.593 3.018 0 .692.099 1.36.264 2h-2.272c-.806 0-1.282.923-.798 1.567.108.144.226.281.346.412-1.96.731-3.54 2.831-3.54 5.03 0 1.649 1.346 2.991 3 2.991h4c1.654 0 3-1.342 3-2.991 0-.898-.268-1.778-.713-2.557zm-1.287 2.557c0 .546-.449.991-1 .991h-4c-.551 0-1-.444-1-.991 0-1.606 1.542-3.304 3-3.304s3 1.698 3 3.304z"/></svg>