<?xml version="1.0" encoding="UTF-8"?>
<svg xmlns="http://www.w3.org/2000/svg" id="Layer_1" data-name="Layer 1" viewBox="0 0 24 24">
  <path d="M23.973,17.863l-.4,2.719c-.286,1.949-1.987,3.418-3.957,3.418h-4.616c-1.97,0-3.671-1.47-3.958-3.419l-.399-2.718c-.249-1.46,.993-2.898,2.474-2.863h3.788l2.199-4.443c.245-.496,.843-.699,1.34-.453,.495,.245,.698,.845,.453,1.34l-1.76,3.557h2.363c1.481-.035,2.723,1.403,2.474,2.863ZM2,6C2,2.691,4.691,0,8,0s6,2.691,6,6-2.691,6-6,6S2,9.309,2,6Zm6.665,12.153c-.19-1.295,.192-2.605,1.047-3.595,.094-.108,.208-.191,.31-.289-.647-.169-1.322-.269-2.022-.269C3.589,14,0,17.589,0,22c0,.97,.701,2,2,2H10.566c-.776-.856-1.326-1.925-1.503-3.128l-.399-2.718Z"/>
</svg>
