<svg id="Layer_1" viewBox="0 0 24 24" xmlns="http://www.w3.org/2000/svg" data-name="Layer 1"><path d="m23.414 16.963-8.069-14.086c-.751-1.21-1.939-1.877-3.345-1.877s-2.63.685-3.386 1.908l-8.01 14.026c-.768 1.24-.805 2.743-.098 4.022.72 1.299 1.981 2.044 3.462 2.044h16.064c1.459 0 2.754-.765 3.463-2.047.705-1.275.668-2.778-.081-3.99zm-12.117-1.263c0 1.348-1.164 2.427-2.539 2.288-1.197-.122-2.06-1.22-2.06-2.422v-4.766c0-.442.358-.8.8-.8s.8.358.8.8v4.9c0 .386.314.7.7.7s.7-.314.7-.7v-4.9c0-.442.358-.8.8-.8s.8.358.8.8v4.9zm5.255.838c-.12.668-.62 1.462-1.555 1.462s-1.442-.837-1.546-1.416l-1.037-5.637c-.091-.492.287-.946.788-.946.387 0 .719.276.788.657l1.007 5.488.984-5.482c.069-.384.403-.664.793-.664.503 0 .883.455.793.95z"/></svg>