<svg id="Layer_1" viewBox="0 0 24 24" xmlns="http://www.w3.org/2000/svg" data-name="Layer 1"><path d="m8 2.5c0-1.381 1.119-2.5 2.5-2.5s2.5 1.119 2.5 2.5-1.119 2.5-2.5 2.5-2.5-1.119-2.5-2.5zm10 10.5c2.206 0 4-1.794 4-4s-1.794-4-4-4-4 1.794-4 4 1.794 4 4 4zm5.744 8.565c-.372-.411-1.004-.445-1.412-.075-.366.329-.84.51-1.332.51-.889 0-1.793-.586-2.058-1.333-.141-.399-.519-.667-.942-.667s-.802.267-.942.667c-.265.748-1.169 1.333-2.058 1.333s-1.793-.585-2.057-1.333c-.141-.4-.519-.667-.943-.667s-.802.267-.943.667c-.264.748-1.167 1.333-2.057 1.333s-1.793-.585-2.057-1.333c-.141-.4-.519-.667-.943-.667s-.802.267-.943.667c-.264.748-1.167 1.333-2.057 1.333-.493 0-.965-.181-1.332-.51-.41-.37-1.043-.334-1.412.075-.369.411-.335 1.043.075 1.412.734.66 1.682 1.023 2.668 1.023 1.127 0 2.222-.472 3-1.225.778.753 1.873 1.225 3 1.225s2.222-.472 3-1.225c.778.753 1.872 1.225 3 1.225s2.222-.472 3-1.225c.778.753 1.872 1.225 3 1.225.987 0 1.935-.363 2.668-1.023.411-.369.445-1.001.076-1.412zm-20.737-1.561c.05-.003.145-.047.195-.087.445-1.15 1.558-1.917 2.798-1.917s2.353.767 2.797 1.917c.102.079.304.079.405 0 .445-1.15 1.558-1.917 2.798-1.917s2.353.767 2.798 1.917c.097.077.293.087.405 0 .442-1.149 1.556-1.917 2.797-1.917s2.353.766 2.797 1.916c.053.042.15.084.203.084.483-.44 1.097-.694 1.747-.746l-14.872-10.188c-.548-.373-.875-.991-.875-1.654v-6.412c0-.552-.448-1-1-1s-1 .448-1 1v6.412c0 1.326.655 2.563 1.748 3.307l1.413.968-5.711 7.928c.196.109.385.235.557.39z"/></svg>