<svg id="Layer_1" viewBox="0 0 24 24" xmlns="http://www.w3.org/2000/svg" data-name="Layer 1"><path d="m11.082 24h-1.992c-2.256 0-4.091-1.835-4.091-4.091v-7.168c0-1.361.674-2.629 1.803-3.391l5.409-3.65c.694-.469 1.548-.695 2.341-.699.804.002 1.622.231 2.314.7l5.336 3.653c1.123.758 1.797 2.026 1.797 3.387v1.809c-1.19-1.62-2.64-2.913-3.591-3.755-.969-.858-1.92-.804-2.4-.696-.476.107-1.35.46-1.847 1.623-.32.75-.509 1.544-.655 2.293-.396-.317-.869-.506-1.383-.537-.963-.05-1.869.465-2.398 1.398-.177.312-1.725 3.104-1.725 5.125 0 1.454.398 2.818 1.082 3.999zm6.917 0c-.561 0-1.121-.234-1.522-.703-.693-.81-.558-2.046.195-2.8l.77-1.096c.308-.308.807-.308 1.115 0l.769 1.097c.753.754.888 1.99.195 2.8-.401.468-.962.702-1.522.702h3.141c.794 0 1.561-.382 1.973-1.06.002-.004.005-.008.007-.012 2.699-4.47-1.443-8.337-4.043-10.64-.38-.336-.881-.243-1.081.224-.934 2.191-.549 5.488-2.368 5.488-.676 0-.896-1.534-1.104-2.035-.25-.6-.741-.669-1.062-.103-.582 1.03-1.465 3-1.465 4.139 0 1.008.25 1.956.69 2.789.401.758 1.212 1.21 2.069 1.21h3.24zm-14.999-4.091v-3.909c-.222-.487-.351-1.205-.474-1.5-.25-.6-.635-.594-1.062-.103-.465.536-1.465 2.064-1.465 3.604 0 2.756 1.859 5.074 4.391 5.777-.868-1.053-1.391-2.401-1.391-3.87zm0-7.168c0-2.027 1.003-3.914 2.684-5.049l5.192-3.504c-.464-.994-.952-1.869-1.21-2.326-.32-.566-.812-.498-1.062.103-.208.501-.104 2.035-1.104 2.035-1.5 0-1-2-1.5-3.531-.185-.566-.637-.61-1.083-.215-2.6 2.303-6.736 6.168-4.038 10.635.533.882 1.269 1.619 2.121 2.156zm20.333-5.038c.216.146.42.306.613.476-.322-2.659-2.394-5.136-3.902-6.856-.393-.448-.8-.437-1.102.078-.454.775-.741 1.729-1.02 2.606.021.014 5.411 3.697 5.411 3.697z"/></svg>