<svg id="Layer_1" viewBox="0 0 24 24" xmlns="http://www.w3.org/2000/svg" data-name="Layer 1"><path d="m23 10h-1.026l-3.273-4h4.299c.552 0 1-.448 1-1s-.448-1-1-1h-15.55c-.086-.117-.173-.233-.277-.337l-.835-.835c-.374-.374-.836-.622-1.337-.741v-1.087c0-.552-.448-1-1-1s-1 .448-1 1v1.155c-.588.268-1 .858-1 1.545v.3h-1.001c-.552 0-1 .448-1 1s.448 1 1 1h1v.3c0 .687.412 1.277 1 1.545v14.155h-2c-.552 0-1 .448-1 1s.448 1 1 1h6c.552 0 1-.448 1-1s-.448-1-1-1h-2v-14h1.3c.938 0 1.7-.763 1.7-1.7v-.3h7.299l-3.273 4h-1.026c-.552 0-1 .448-1 1s.448 1 1 1h12c.552 0 1-.448 1-1s-.448-1-1-1zm-6-2.921 2.39 2.921h-4.779l2.39-2.921zm3.5 6.921h-7c-1.93 0-3.5 1.57-3.5 3.5v3c0 1.93 1.57 3.5 3.5 3.5h7c1.93 0 3.5-1.57 3.5-3.5v-3c0-1.93-1.57-3.5-3.5-3.5zm-4.5 6c0 .552-.448 1-1 1h-1c-.552 0-1-.448-1-1v-1c0-.552.448-1 1-1h1c.552 0 1 .448 1 1zm5 0c0 .552-.448 1-1 1h-1c-.552 0-1-.448-1-1v-1c0-.552.448-1 1-1h1c.552 0 1 .448 1 1z"/></svg>