<svg id="Layer_1" viewBox="0 0 24 24" xmlns="http://www.w3.org/2000/svg" data-name="Layer 1"><path d="m6 6v-.336l1.054-3.276c.266-.827 1.035-1.388 1.904-1.388h2.042c0-.552.448-1 1-1s1 .448 1 1h2.042c.869 0 1.638.561 1.904 1.388l1.054 3.276v.336c0 1.214-1.082 2.176-2.335 1.973-.984-.16-1.665-1.083-1.665-2.079v-.23l.842-2.664h-1.842v6h2c.553 0 1 .448 1 1s-.447 1-1 1h-6c-.552 0-1-.448-1-1s.448-1 1-1h2v-6h-1.842l.842 2.664v.23c0 .996-.681 1.92-1.665 2.079-1.253.203-2.335-.758-2.335-1.973zm3.708 8.55c-1.007-.934-2.66-.748-3.412.498-.488.81-.35 1.855.245 2.589l1.788 2.304c.339.436.26 1.064-.177 1.403-.436.339-1.064.26-1.403-.177l-1.788-2.304c-1.122-1.383-1.285-3.345-.378-4.848.123-.204.266-.391.417-.568v-4.844c0-1.308-.941-2.499-2.242-2.63-1.496-.15-2.758 1.021-2.758 2.487v9.547c-.008 1.963.731 3.836 2.004 5.299.383.44.939.692 1.522.692h9.474c.552 0 1-.448 1-1v-1.82c0-1.655-.684-3.237-1.89-4.371l-2.402-2.258zm7.996.498s0 0 0 0c-.752-1.246-2.405-1.432-3.412-.498l-.832.782.02.019c1.141 1.073 1.921 2.464 2.283 3.968l1.695-1.682c.595-.734.733-1.78.245-2.589zm3.538-9.074c-1.301.13-2.242 1.322-2.242 2.63v4.844c.151.177.293.363.417.568.906 1.503.744 3.465-.378 4.848l-3.038 3.024v2.112h4.475c.583 0 1.139-.253 1.522-.692 1.273-1.463 2.011-3.336 2.003-5.298v-9.548c0-1.466-1.261-2.637-2.758-2.487z"/></svg>