<svg id="Layer_1" viewBox="0 0 24 24" xmlns="http://www.w3.org/2000/svg" data-name="Layer 1"><path d="m4 19c0 2.757 2.243 5 5 5h6c2.757 0 5-2.243 5-5v-1h-16zm7 1h2c.552 0 1 .448 1 1s-.448 1-1 1h-2c-.552 0-1-.448-1-1s.448-1 1-1zm3.589-6.175 5.411-3.031v5.206h-16v-5.206l5.414 3.032c1.596.894 3.578.893 5.175 0zm-1.211-7.992c.071.07.122.158.122.259v1.315c0 .133-.071.257-.186.324l-1.123.659c-.118.069-.265.069-.381 0l-1.124-.66c-.115-.067-.186-.191-.186-.324v-1.315c0-.101.051-.189.122-.259l.682.4c.43.252.962.252 1.392 0l.682-.4zm9.308-.731-2.893-1.446c-.591-2.102-2.505-3.656-4.793-3.656h-6c-2.288 0-4.202 1.554-4.793 3.656l-2.893 1.447c-.777.388-1.272 1.169-1.292 2.037-.021.868.438 1.671 1.195 2.095l2.783 1.558v-2.292l-1.806-1.011c-.155-.087-.175-.228-.173-.303.001-.077.028-.216.187-.295l1.792-.896v2.506l6.391 3.579c.992.556 2.227.556 3.22 0l6.389-3.578v-2.506l1.792.896c.159.079.186.219.188.295s-.019.217-.173.304l-1.806 1.011v2.293l2.783-1.559c.757-.424 1.216-1.227 1.195-2.096-.021-.868-.516-1.649-1.292-2.037zm-7.186 2.305c0 .839-.45 1.624-1.173 2.049l-1.124.66c-.742.434-1.663.435-2.404 0l-1.125-.66c-.724-.425-1.173-1.21-1.173-2.049v-1.315c0-.839.45-1.624 1.173-2.049l1.124-.66c.742-.435 1.663-.435 2.404 0l1.125.66c.724.425 1.173 1.21 1.173 2.049z"/></svg>