<svg id="Layer_1" viewBox="0 0 24 24" xmlns="http://www.w3.org/2000/svg" data-name="Layer 1"><path d="m10.181 21.835c-2.964-.545-5.42-2.366-6.844-4.835h3.231c.427 1.015.981 2.034 1.662 3.055.308.463.933.581 1.387.277.46-.306.584-.927.277-1.387-.435-.652-.805-1.301-1.122-1.945h.229c.553 0 1-.448 1-1s-.447-1-1-1h-1.024c-.31-1.018-.476-2.02-.476-3 0-1.039.18-2.047.472-3h5.028c.553 0 1-.448 1-1s-.447-1-1-1h-4.222c1.025-2.082 2.411-3.724 3.223-4.586.745.789 1.973 2.224 2.96 4.06.263.49.878.666 1.354.406.486-.262.669-.868.407-1.354-.677-1.258-1.445-2.332-2.134-3.185 3.033.802 5.545 2.987 6.73 6.022.201.52.794.768 1.295.568.515-.201.77-.781.568-1.295-1.805-4.621-6.169-7.612-11.128-7.634-6.628-.031-12.058 5.361-12.054 11.998 0 5.793 4.13 10.757 9.819 11.802.53.101 1.067-.257 1.164-.803.1-.543-.26-1.064-.803-1.164zm-4.681-9.835c0 .99.131 1.991.39 3h-3.422c-.299-.952-.468-1.958-.468-3s.163-2.052.461-3h3.442c-.246.956-.403 1.958-.403 3zm3.888-9.642c-.94 1.167-2.024 2.767-2.81 4.642h-3.225c1.308-2.253 3.466-3.945 6.035-4.642zm12.612 12.198v-1.556c0-2.206-1.794-4-4-4s-4 1.794-4 4v1.556c-1.19.694-2 1.97-2 3.444v2c0 2.206 1.794 4 4 4h4c2.206 0 4-1.794 4-4v-2c0-1.474-.81-2.75-2-3.444zm-4 5.944c-.828 0-1.5-.672-1.5-1.5s.672-1.5 1.5-1.5 1.5.672 1.5 1.5-.672 1.5-1.5 1.5zm2-6.5h-4v-1c0-1.103.897-2 2-2s2 .897 2 2z"/></svg>