<?xml version="1.0" encoding="UTF-8"?>
<svg xmlns="http://www.w3.org/2000/svg" id="Layer_1" data-name="Layer 1" viewBox="0 0 24 24">
  <path d="M4.142,6.474C4.729,3.309,7.245,.77,10.401,.156c2.396-.467,4.832,.142,6.684,1.668,1.853,1.527,2.915,3.778,2.915,6.176,.011,2.904-1.6,5.544-4.092,7h-2.908v-5.184c1.161-.414,2-1.514,2-2.816,0-.552-.447-1-1-1s-1,.448-1,1-.448,1-1,1-1-.449-1-1-.447-1-1-1-1,.448-1,1c0,1.302,.839,2.402,2,2.816v5.184h-2.898c-3.021-1.734-4.613-5.053-3.96-8.526Zm4.858,10.526v2.016c0,1.591,.493,2.891,1.465,3.862l.828,.829c.372,.387,1.042,.387,1.414,0l.828-.829c.944-.944,1.465-2.2,1.465-3.535v-2.343h-6Z"/>
</svg>
