<svg id="Layer_1" viewBox="0 0 24 24" xmlns="http://www.w3.org/2000/svg" data-name="Layer 1"><path d="m17.378 6.953c.401.41.622.966.622 1.568 0 4.183-5.876 9.478-9.478 9.478-.016 0-.03 0-.046 0-.594-.01-1.138-.235-1.505-.601l-.868-.96c-.121-.147-.122-.255-.026-.407l1.564-1.231c.222-.278.441-.199.659.033l.839.588c.272.191.621.235.931.116 2.705-1.032 4.337-2.66 5.454-5.445.126-.313.085-.67-.108-.946l-.588-.839c-.219-.207-.289-.447-.033-.659l1.235-1.569c.123-.095.3-.082.445.061l.902.814zm6.622-1.953v14c0 2.757-2.243 5-5 5h-14c-2.757 0-5-2.243-5-5v-14c0-2.757 2.243-5 5-5h14c2.757 0 5 2.243 5 5zm-4 3.521c0-1.145-.435-2.209-1.225-2.999-.012-.012-.024-.023-.037-.035l-.886-.798c-.9-.9-2.365-.9-3.266 0-.028.028-.055.058-.079.088l-1.253 1.592c-.407.43-.63.99-.63 1.585 0 .583.215 1.134.608 1.562l.226.322c-.812 1.779-1.903 2.875-3.618 3.632l-.33-.231c-.862-.793-2.293-.785-3.146.021l-1.586 1.249c-.031.024-.061.051-.089.079-.437.437-.677 1.016-.677 1.633s.24 1.197.642 1.596l.867.959c.788.791 1.854 1.226 2.999 1.226.02 0 .039 0 .059-.002 4.928-.05 11.421-6.562 11.421-11.477z"/></svg>