<svg id="Layer_1" viewBox="0 0 24 24" xmlns="http://www.w3.org/2000/svg" data-name="Layer 1"><path d="m22.601 17.7c-.441-.332-1.069-.243-1.4.199s-.242 1.069.199 1.4c.382.286.601.724.601 1.2 0 .827-.673 1.5-1.5 1.5s-1.5-.673-1.5-1.5v-12.408c0-3.742-3.058-8.091-7-8.091s-7.001 4.349-7.001 8.091v12.409c0 .827-.673 1.5-1.5 1.5s-1.5-.673-1.5-1.5c0-.477.219-.914.601-1.2.441-.332.53-.958.199-1.4-.331-.441-.96-.529-1.4-.199-.876.658-1.399 1.705-1.399 2.8 0 1.93 1.57 3.5 3.5 3.5s3.5-1.57 3.5-3.5v-3.5c0-.551.448-1 1-1s1 .449 1 1v6c0 .552.447 1 1 1s1-.448 1-1v-6c0-.551.448-1 1-1s1 .449 1 1v6c0 .552.447 1 1 1s1-.448 1-1v-6c0-.551.448-1 1-1s1 .449 1 1v3.5c0 1.93 1.57 3.5 3.5 3.5s3.5-1.57 3.5-3.5c0-1.095-.523-2.142-1.399-2.8zm-12.601-6.7c-.828 0-1.5-.672-1.5-1.5s.672-1.5 1.5-1.5 1.5.672 1.5 1.5-.672 1.5-1.5 1.5zm4 0c-.828 0-1.5-.672-1.5-1.5s.672-1.5 1.5-1.5 1.5.672 1.5 1.5-.672 1.5-1.5 1.5z"/></svg>