<svg id="Layer_1" viewBox="0 0 24 24" xmlns="http://www.w3.org/2000/svg" data-name="Layer 1"><path d="m18 12c-3.314 0-6 2.686-6 6s2.686 6 6 6 6-2.686 6-6-2.686-6-6-6zm3.683 5.712-2.703 2.614c-.452.446-1.052.671-1.653.671s-1.203-.225-1.663-.674l-1.354-1.332c-.395-.387-.4-1.02-.014-1.414.386-.395 1.019-.401 1.414-.014l1.354 1.331c.144.142.38.139.522-.002l2.713-2.624c.397-.381 1.031-.37 1.414.029.382.398.369 1.031-.029 1.414zm-10.593 4.318-3.302 1.844c-.636.232-1.347.14-1.902-.248s-.886-1.024-.886-1.701v-.004c0-.823.411-1.585 1.1-2.037l1.9-1.417v-4.551l-4.453 1.44c-.818.276-1.726.141-2.427-.363-.702-.504-1.121-1.32-1.121-2.184 0-1.099.599-2.107 1.546-2.624l6.454-3.767v-3.418c0-.882.385-1.715 1.058-2.286.545-.464 1.234-.699 1.943-.701.709.001 1.398.237 1.942.7.672.571 1.058 1.404 1.058 2.286v3.42l6.454 3.767c.203.111.387.249.556.401-.929-.378-1.945-.588-3.01-.588-4.418 0-8 3.582-8 8 0 1.47.398 2.846 1.09 4.03z"/></svg>