<svg id="Layer_1" viewBox="0 0 24 24" xmlns="http://www.w3.org/2000/svg" data-name="Layer 1"><path d="m16 3.624c0-1.447 1.177-2.624 2.624-2.624h.376c0-.552.447-1 1-1s1 .448 1 1h.268c1.067 0 2.063.575 2.598 1.5.095.163.135.325.135.5 0 .339-.185.683-.499.866-.48.276-1.091.113-1.366-.365-.179-.309-.511-.5-.867-.5h-2.644c-.344 0-.624.28-.624.624 0 .307.22.565.521.616l3.285.548c1.271.211 2.193 1.3 2.193 2.588 0 1.447-1.177 2.624-2.624 2.624h-.376c0 .553-.447 1-1 1s-1-.447-1-1h-.268c-1.067 0-2.063-.574-2.598-1.499-.277-.478-.113-1.089.364-1.366.479-.278 1.09-.113 1.366.365.179.308.511.5.867.5h2.644c.344 0 .624-.28.624-.624 0-.307-.22-.565-.521-.616l-3.285-.548c-1.271-.211-2.193-1.3-2.193-2.588zm7.707 18.669c.391.391.391 1.023 0 1.414s-1.023.391-1.414 0l-5.966-5.966c-1.724 1.411-3.926 2.258-6.327 2.258-5.523.001-10-4.476-10-9.999s4.477-10 10-10c1.705 0 3.309.429 4.714 1.182-.445.711-.714 1.544-.714 2.442s.253 1.737.697 2.451c-.277.331-.48.722-.596 1.151-.207.775-.1 1.584.302 2.275.71 1.231 1.914 2.079 3.275 2.375.46.567 1.114.962 1.868 1.078-.385 1.245-.999 2.389-1.805 3.373zm-17.707-8.293c0-.553-.447-1-1-1s-1 .447-1 1v1.274c.572.65 1.247 1.206 2 1.644zm4-1c0-.553-.447-1-1-1s-1 .447-1 1v4.737c.641.166 1.308.263 2 .263zm1.456-3.767c.57.57 1.544.166 1.544-.639v-2.31c0-.709-.575-1.284-1.284-1.284h-2.31c-.806 0-1.209.974-.639 1.544l.57.57-1.453 1.453-.495-.495c-.792-.794-2.178-.795-2.972 0l-2.394 2.395c.047.818.217 1.601.493 2.336l3.388-3.388.495.496c.818.818 2.152.817 2.971 0l1.381-1.381.705.705zm2.544 2.767c0-.553-.447-1-1-1s-1 .447-1 1v5.737c.71-.184 1.381-.46 2-.819z"/></svg>