<svg id="Layer_1" viewBox="0 0 24 24" xmlns="http://www.w3.org/2000/svg" data-name="Layer 1"><path d="m23 7.278v-.778c0-.827-.673-1.5-1.5-1.5h-1c-.827 0-1.5.673-1.5 1.5v.778c-.595.347-1 .985-1 1.722v1.887c0 1.333.831 2.513 2 2.939v5.174c0 1.654-1.346 3-3 3h-2.026c.635-.838 1.026-1.87 1.026-3v-14c0-2.757-2.243-5-5-5h-6c-2.757 0-5 2.243-5 5v14c0 2.757 2.243 5 5 5h12c2.757 0 5-2.243 5-5v-5.175c.34-.12.659-.299.939-.537.674-.572 1.061-1.406 1.061-2.288v-2c0-.737-.405-1.375-1-1.722zm-14 13.722h-2c-.553 0-1-.448-1-1s.447-1 1-1h2c.553 0 1 .448 1 1s-.447 1-1 1zm1.868-10.007-2 3.504c-.276.484-.894.643-1.364.372-.479-.274-.646-.885-.372-1.365l1.432-2.503h-2.162c-.489 0-.936-.249-1.192-.666-.257-.416-.279-.926-.06-1.363l1.982-3.468c.273-.479.883-.645 1.365-.372.479.274.646.885.371 1.365l-1.433 2.503h2.163c.481 0 .923.243 1.182.648s.291.909.088 1.344z"/></svg>