<svg id="Layer_1" viewBox="0 0 24 24" xmlns="http://www.w3.org/2000/svg" data-name="Layer 1"><path d="m22.42 16.356c-.255-.138-.42-.458-.42-.817v-7.54c1 0 1.772-.468 1.96-1.384.176-.814-.232-1.623-.991-1.966-.034-.016-12.668-4.115-12.668-4.115-2.903-.988-5.392-.603-7.414 1.165l-2.021 1.873c-.8.699-1.075 1.794-.701 2.79.373.995 1.302 1.637 2.364 1.637h1.471v14h-3c-.553 0-1 .448-1 1s.447 1 1 1h13c.553 0 1-.448 1-1s-.447-1-1-1h-3v-14h9v7.54c0 1.102.564 2.089 1.473 2.578.325.175.527.513.527.882 0 .551-.448 1-1 1s-1-.449-1-1-.447-1-1-1-1 .448-1 1c0 1.654 1.346 3 3 3s3-1.346 3-3c0-1.105-.605-2.118-1.58-2.643zm-13.42 3.729-2.586-2.586 2.586-2.586zm-3-5v-5.172l2.586 2.586zm0 4.828 2.086 2.086h-2.086zm3-9.828-2.086-2.086h2.086z"/></svg>