<svg id="Layer_1" viewBox="0 0 24 24" xmlns="http://www.w3.org/2000/svg" data-name="Layer 1"><path d="m9 21c0 .553-.447 1-1 1h-1v1c0 .553-.447 1-1 1s-1-.447-1-1v-1h-1c-.553 0-1-.447-1-1s.447-1 1-1h1v-1c0-.553.447-1 1-1s1 .447 1 1v1h1c.553 0 1 .447 1 1zm14-10h-1v-1c0-.552-.447-1-1-1s-1 .448-1 1v1h-1c-.553 0-1 .448-1 1s.447 1 1 1h1v1c0 .553.447 1 1 1s1-.447 1-1v-1h1c.553 0 1-.448 1-1s-.447-1-1-1zm-22-7h1v1c0 .552.447 1 1 1s1-.448 1-1v-1h1c.553 0 1-.448 1-1s-.447-1-1-1h-1v-1c0-.552-.447-1-1-1s-1 .448-1 1v1h-1c-.553 0-1 .448-1 1s.447 1 1 1zm17.141 10.859c-1.234-.372-2.141-1.506-2.141-2.859s.907-2.487 2.141-2.859c.372-1.234 1.506-2.141 2.859-2.141s2.487.907 2.859 2.141c.014.004.027.008.04.013.059-.37.1-.738.1-1.103 0-3.888-2.916-7.05-6.5-7.05-2.313 0-4.348 1.317-5.5 3.296-1.023-1.757-2.744-2.987-4.736-3.242.452.525.736 1.2.736 1.946 0 1.354-.907 2.487-2.141 2.859-.372 1.234-1.506 2.141-2.859 2.141-1.237 0-2.301-.753-2.759-1.825-.153.598-.241 1.225-.241 1.875 0 2.841 1.869 5.847 4.251 8.523.494-.357 1.095-.573 1.749-.573 1.354 0 2.487.907 2.859 2.141 1.234.372 2.141 1.506 2.141 2.859 0 .33-.067.642-.165.939.384.093.773.156 1.165.156 1.136 0 2.273-.389 3.2-1.166 1.475-1.237 3.053-2.691 4.461-4.26-.728-.367-1.281-1.018-1.52-1.81z"/></svg>