<svg id="Layer_1" viewBox="0 0 24 24" xmlns="http://www.w3.org/2000/svg" data-name="Layer 1"><path d="m24 15.197v7.803c0 .552-.448 1-1 1h-22c-.552 0-1-.448-1-1v-7.803c0-3.397 1.476-6.535 4-8.703v7.506c0 4.418 3.582 8 8 8s8-3.582 8-8v-7.506c2.524 2.168 4 5.306 4 8.703zm-18-1.197v-9c0-2.761 2.239-5 5-5h2c2.761 0 5 2.239 5 5v9c0 3.314-2.686 6-6 6s-6-2.686-6-6zm9.028-1.197-1.308-.523-.523-1.308c-.114-.285-.39-.472-.697-.472s-.583.187-.697.472l-.52 1.301-1.299.492c-.287.108-.479.381-.484.687-.005.307.176.586.459.705l1.318.556.526 1.316c.114.285.39.472.697.472s.583-.187.697-.472l.523-1.308 1.308-.523c.285-.114.472-.39.472-.697s-.187-.583-.472-.697zm-6.028-7.343c-.005.256.147.488.382.587l1.099.463.439 1.097c.095.237.325.393.58.393s.486-.156.58-.393l.436-1.09 1.09-.436c.237-.095.393-.325.393-.58s-.156-.486-.393-.58l-1.09-.436-.436-1.09c-.095-.237-.325-.393-.58-.393s-.486.156-.58.393l-.433 1.084-1.082.41c-.239.09-.399.317-.404.573z"/></svg>