<?xml version="1.0" encoding="UTF-8"?>
<svg xmlns="http://www.w3.org/2000/svg" id="Layer_1" data-name="Layer 1" viewBox="0 0 24 24">
  <path d="m12,8c-2.757,0-5,2.243-5,5s2.243,5,5,5,5-2.243,5-5-2.243-5-5-5Zm0,9h0c-.552,0-1-.448-1-1h0c0-.552.448-1,1-1h0c.552,0,1,.448,1,1h0c0,.552-.448,1-1,1Zm0-3h0c-.552,0-1-.448-1-1v-3c0-.552.448-1,1-1h0c.552,0,1,.448,1,1v3c0,.552-.448,1-1,1Zm4-12h-.171c-.413-1.164-1.525-2-2.829-2h-2c-1.304,0-2.416.836-2.829,2h-.171c-2.757,0-5,2.243-5,5v12c0,2.757,2.243,5,5,5h8c2.757,0,5-2.243,5-5V7c0-2.757-2.243-5-5-5Zm-4,18c-3.86,0-7-3.14-7-7s3.14-7,7-7,7,3.14,7,7-3.14,7-7,7Z"/>
</svg>
