<svg id="Layer_1" viewBox="0 0 24 24" xmlns="http://www.w3.org/2000/svg" data-name="Layer 1"><path d="m11.2 16.038c.442 0 .8.358.8.8v6.23c0 .535-.434.97-.97.97-.383 0-.731-.226-.886-.576l-1.544-3.478v3.254c0 .442-.358.8-.8.8-.442 0-.8-.358-.8-.8v-6.226c0-.537.437-.972.974-.969.381.002.725.227.88.576l1.546 3.482v-3.263c0-.442.358-.8.8-.8zm6.6 2.3v3.4c0 1.269-1.031 2.3-2.3 2.3s-2.3-1.031-2.3-2.3v-3.4c0-1.269 1.031-2.3 2.3-2.3s2.3 1.031 2.3 2.3zm-1.6 0c0-.386-.314-.7-.7-.7s-.7.314-.7.7v3.4c0 .386.314.7.7.7s.7-.314.7-.7zm6.2-1.636-.984 5.482-1.007-5.488c-.07-.38-.402-.657-.788-.657-.5 0-.878.454-.788.946l1.037 5.637c.103.58.61 1.416 1.546 1.416s1.435-.794 1.555-1.462l1.015-5.588c.09-.495-.29-.95-.793-.95-.39 0-.724.28-.793.664zm-17.4 6.536v-6.226c0-.796.311-1.544.875-2.104.564-.562 1.34-.857 2.109-.864.588.003 14.535-.006 15.209-.006.278 0 .546.055.806.133v-4.171h-23.999v9c0 2.757 2.243 5 5 5h.119c-.07-.244-.119-.496-.119-.762zm19-16.238c0-2.757-2.243-5-5-5h-1v-1c0-.553-.448-1-1-1s-1 .447-1 1v1h-8v-1c0-.553-.448-1-1-1s-1 .447-1 1v1h-1c-2.757 0-5 2.243-5 5v1h24z"/></svg>