<svg id="Layer_1" viewBox="0 0 24 24" xmlns="http://www.w3.org/2000/svg" data-name="Layer 1"><path d="m17.005 16.008c.442 0 .8.358.8.8v4.931c0 1.348-1.164 2.427-2.539 2.288-1.197-.122-2.06-1.22-2.06-2.422v-4.796c0-.442.358-.8.8-.8.442 0 .8.358.8.8v4.931c0 .386.314.7.7.7s.7-.314.7-.7v-4.931c0-.442.358-.8.8-.8zm-6.151 7.412-.165-.782h-2.379l-.175.79c-.079.356-.394.61-.759.61-.494 0-.863-.456-.76-.939l1.165-5.479c.168-.864.87-1.582 1.742-1.581.894.006 1.563.69 1.753 1.627l1.142 5.435c.107.5-.296.963-.804.937-.368 0-.685-.257-.761-.617zm-.502-2.382-.641-3.044c-.047-.231-.144-.334-.168-.349l-.017-.006c-.071.042-.146.146-.176.296l-.686 3.104h1.688zm11.947.1h.101v.368c0 .479-.361.898-.838.93-.524.035-.962-.381-.962-.898v-2.968c0-.479.361-.898.838-.93.375-.025.705.181.863.489.132.258.409.409.699.409.606 0 .99-.647.703-1.182-.415-.772-1.222-1.3-2.155-1.318-1.401-.027-2.548 1.154-2.548 2.556v2.887c0 1.402 1.147 2.582 2.548 2.556 1.358-.026 2.452-1.135 2.452-2.5v-1.201c0-.441-.358-.799-.799-.799h-.901c-.441 0-.799.358-.799.799 0 .443.358.801.799.801zm1.701-14.139c0-2.757-2.243-5-5-5h-1v-.999c0-.553-.448-1-1-1s-1 .447-1 1v1h-8v-1c0-.553-.448-1-1-1s-1 .447-1 1v1h-1c-2.757 0-5 2.243-5 5v1h24v-1zm-19.34 15.681 1.165-5.477c.354-1.82 1.911-3.165 3.696-3.165h.004c.921.006 12.062 0 12.062 0 .876.017 1.708.296 2.413.769v-4.808h-24v9c0 2.657 2.079 4.81 4.696 4.969-.11-.416-.129-.856-.036-1.29z"/></svg>