<svg id="Layer_1" viewBox="0 0 24 24" xmlns="http://www.w3.org/2000/svg" data-name="Layer 1"><path d="m16.867 16.303c.275-.479.111-1.09-.368-1.366l-.659-.38c.094-.339.16-.689.16-1.058s-.066-.719-.16-1.058l.659-.38c.479-.276.643-.887.368-1.366-.275-.478-.888-.643-1.366-.368l-.649.374c-.5-.51-1.14-.876-1.852-1.061v-.642c0-.552-.448-1-1-1s-1 .448-1 1v.642c-.712.185-1.351.551-1.852 1.061l-.649-.374c-.478-.274-1.09-.11-1.366.368-.275.479-.111 1.09.368 1.366l.659.38c-.094.339-.16.689-.16 1.058s.066.719.16 1.058l-.659.38c-.479.276-.643.887-.368 1.366.186.321.521.501.868.501.169 0 .341-.043.498-.133l.649-.374c.5.51 1.14.876 1.852 1.061v.642c0 .552.448 1 1 1s1-.448 1-1v-.642c.712-.185 1.351-.551 1.852-1.061l.649.374c.157.09.329.133.498.133.346 0 .682-.18.868-.501zm-4.867-1.303c-.827 0-1.5-.673-1.5-1.5s.673-1.5 1.5-1.5 1.5.673 1.5 1.5-.673 1.5-1.5 1.5zm-11-11.5c0-1.93 1.57-3.5 3.5-3.5s3.5 1.57 3.5 3.5-1.57 3.5-3.5 3.5-3.5-1.57-3.5-3.5zm15 0c0-1.93 1.57-3.5 3.5-3.5s3.5 1.57 3.5 3.5-1.57 3.5-3.5 3.5-3.5-1.57-3.5-3.5zm-8.564 15.139c.751.75.751 1.972 0 2.723l-2.346 2.346c-.195.195-.451.293-.707.293s-.512-.098-.707-.293c-.391-.391-.391-1.023 0-1.414l1.293-1.293h-.969c-2.206-.001-4-1.795-4-4.001v-2c0-.552.448-1 1-1s1 .448 1 1v2c0 1.103.897 2 2 2h.969l-1.293-1.293c-.391-.391-.391-1.023 0-1.414s1.023-.391 1.414 0zm16.564-3.639v2c0 2.206-1.794 4-4 4h-.969l1.293 1.293c.391.391.391 1.023 0 1.414-.195.195-.451.293-.707.293s-.512-.098-.707-.293l-2.346-2.346c-.751-.75-.751-1.972 0-2.723l2.346-2.346c.391-.391 1.023-.391 1.414 0s.391 1.023 0 1.414l-1.293 1.293h.969c1.103 0 2-.897 2-2v-2c0-.552.448-1 1-1s1 .448 1 1zm-4.5-7c1.873 0 3.552.97 4.383 2.53.165.31.155.684-.025.985-.181.301-.506.485-.857.485h-4.121c.209-.749.139-1.576-.279-2.302-.315-.547-.782-.947-1.313-1.2.672-.317 1.423-.498 2.213-.498zm-19.357 3.515c-.181-.301-.19-.675-.025-.985.831-1.561 2.51-2.53 4.383-2.53.791 0 1.541.182 2.214.499-.532.253-.999.653-1.314 1.201-.417.725-.488 1.552-.278 2.301h-4.123c-.351 0-.676-.184-.857-.485z"/></svg>