<svg id="Layer_1" viewBox="0 0 24 24" xmlns="http://www.w3.org/2000/svg" data-name="Layer 1"><path d="m24 7v1c0 .552-.447 1-1 1s-1-.448-1-1v-1c0-1.103-.897-2-2-2h-1.029l1.25 1.307c.383.398.37 1.031-.027 1.414-.398.382-1.031.371-1.414-.028l-2.212-2.301c-.761-.761-.761-2.023.013-2.798l2.198-2.287c.383-.399 1.015-.411 1.414-.028.397.383.41 1.016.027 1.414l-1.257 1.307h1.036c2.206 0 4 1.794 4 4zm-18.779 9.307c-.383-.397-1.015-.411-1.414-.027-.397.383-.41 1.016-.027 1.414l1.25 1.307h-1.029c-1.103 0-2-.897-2-2 0-.553-.447-1-1-1s-1.001.446-1.001.999c0 2.206 1.794 4 4 4h1.035l-1.256 1.307c-.383.398-.37 1.031.027 1.414.398.382 1.031.371 1.414-.027l2.199-2.288c.773-.774.773-2.036.013-2.798l-2.212-2.301zm8.279-8.307c-3.038 0-5.5 2.462-5.5 5.5v.5h-2.5c-1.933 0-3.5-1.567-3.5-3.5v-7c0-1.933 1.567-3.5 3.5-3.5h4.108c.781 0 1.53.304 2.09.848l1.391 1.351c.582.565.91 1.341.91 2.153v3.649h-.5zm-3.5-3h2v-.649c0-.27-.109-.529-.303-.717l-1.391-1.351c-.187-.181-.437-.283-.697-.283h-.609v2c0 .552.448 1 1 1zm11.09 7.198c.582.565.91 1.341.91 2.152v6.149c0 1.933-1.567 3.5-3.5 3.5h-5c-1.933 0-3.5-1.567-3.5-3.5v-7c0-1.933 1.567-3.5 3.5-3.5h4.108c.78 0 1.53.304 2.09.847l1.391 1.351zm-1.09 2.152c0-.27-.109-.529-.303-.717l-1.391-1.351c-.187-.181-.437-.283-.697-.283h-.609v2c0 .552.448 1 1 1h2z"/></svg>