<svg id="Layer_1" viewBox="0 0 24 24" xmlns="http://www.w3.org/2000/svg" data-name="Layer 1"><path d="m8.151 14c.983 0 1.92.359 2.646 1h2.404c.726-.641 1.664-1 2.646-1h5.151c.344 0 .677.043 1 .11v-6.11c0-2.757-2.243-5-5-5h-9.998c-2.757 0-5 2.243-5 5v6.11c.323-.067.656-.11 1-.11zm5.849-6c0-.553.447-1 1-1s1 .447 1 1v4c0 .553-.447 1-1 1s-1-.447-1-1zm4 2c0-.553.447-1 1-1s1 .447 1 1v2c0 .553-.447 1-1 1s-1-.447-1-1zm-7 0c.553 0 1 .447 1 1v1c0 .553-.447 1-1 1s-1-.447-1-1v-1c0-.553.447-1 1-1zm-6.707-1.707 1.5-1.5c.391-.391 1.023-.391 1.414 0l.793.793.802-.802-.596-.596c-.438-.438-.128-1.188.492-1.188h2.303c.552 0 1 .448 1 1v2.303c0 .62-.75.931-1.188.492l-.596-.596-1.509 1.509c-.195.195-.451.293-.707.293s-.512-.098-.707-.293l-.793-.793-.793.793c-.391.391-1.023.391-1.414 0s-.391-1.023 0-1.414zm19.707 10.207c0 1.381-1.119 2.5-2.5 2.5h-19c-1.381 0-2.5-1.119-2.5-2.5s1.119-2.5 2.5-2.5h5.651c.589 0 1.147.259 1.527.708l.247.292h4.149l.247-.292c.38-.449.938-.708 1.527-.708h5.652c1.381 0 2.5 1.119 2.5 2.5z"/></svg>