<?xml version="1.0" encoding="UTF-8"?>
<svg xmlns="http://www.w3.org/2000/svg" id="Layer_1" data-name="Layer 1" viewBox="0 0 24 24">
  <path d="M8.001,17.998h-3.437c-.358-.877-.926-1.702-1.695-2.417C.72,13.58-.298,10.752,.076,7.82,.591,3.78,3.905,.515,7.957,.057c2.567-.289,5.13,.522,7.038,2.227,1.91,1.707,3.006,4.154,3.006,6.714,0,.337-.021,.671-.058,1.003h-2.943c-2.749,0-4.986,2.23-4.999,4.977v-4.164c1.161-.414,2-1.514,2-2.816,0-.552-.447-1-1-1s-1,.448-1,1-.448,1-1,1-1-.449-1-1-.447-1-1-1-1,.448-1,1c0,1.302,.839,2.402,2,2.816v7.184Zm2.1,2H5.001v.31c0,2.035,1.655,3.69,3.69,3.69h.619c1.02,0,1.945-.417,2.613-1.088-.912-.719-1.583-1.733-1.823-2.912Zm13.157,3.843c.457-.239,.741-.707,.742-1.224v-7.615c0-1.654-1.345-3-2.999-3h-6c-1.655-.001-3.001,1.344-3.001,2.999v3.998c0,1.654,1.347,3,3.001,3h4.649l2.183,1.752c.424,.295,.971,.328,1.426,.09Z"/>
</svg>
