<svg id="Layer_1" viewBox="0 0 24 24" xmlns="http://www.w3.org/2000/svg" data-name="Layer 1"><path d="m15.5 9h-1.5v-3h1.5zm-1.06 5.88c.843-.991.722-2.478-.27-3.321-.894-.759-2.21-.746-3.088.032l-4.136 3.701c-.412.369-1.044.334-1.412-.078-.369-.412-.334-1.044.078-1.412l1.388-1.242v-6.185l-3.585 3.137c-2.17 1.899-3.415 4.642-3.415 7.526v5.807c0 .639.518 1.155 1.156 1.155h7.688c.639 0 1.156-.517 1.156-1.155 0-1.019.311-2.014.892-2.851l3.547-5.112v-.002zm3.061-8.88v3h1.5v-3zm-1.405 10h7.905v1.5c0 2.485-2.015 4.5-4.5 4.5h-7.5s4.073-5.971 4.095-6zm.905 2h-1c-.552 0-1 .448-1 1s.448 1 1 1h1c.552 0 1-.448 1-1s-.448-1-1-1zm2.999-18h-7c-2.209 0-4 1.791-4 4v6.771l.756-.676c.628-.575 1.42-.911 2.244-1.029v-3.066c-.552 0-1-.448-1-1 0-.366.2-.837.521-1.012l4.193-2.287c.49-.267 1.083-.267 1.573 0l4.192 2.287c.321.175.521.646.521 1.012 0 .552-.448 1-1 1v3c.552 0 1 .448 1 1s-.448 1-1 1h-4.7c.566.88.816 1.954.641 3h7.059v-10c0-2.209-1.791-4-4-4z"/></svg>