<svg id="Layer_1" viewBox="0 0 24 24" xmlns="http://www.w3.org/2000/svg" data-name="Layer 1"><path d="m23 8c-.552 0-1 .447-1 1v2h-4v-2c0-.553-.448-1-1-1s-1 .447-1 1v2h-4v-2c0-.553-.448-1-1-1s-1 .447-1 1v2h-2c-.552 0-1 .447-1 1v5.126c0 .456.309.854.75.969 1.325.341 2.25 1.535 2.25 2.905v2c0 .553.448 1 1 1s1-.447 1-1v-2c0-1.654 1.346-3 3-3s3 1.346 3 3v2c0 .553.448 1 1 1s1-.447 1-1v-2c0-1.264.799-2.399 1.988-2.825 1.222-.438 2.012-1.516 2.012-2.747v-6.428c0-.553-.448-1-1-1zm-16 14h-2v-14h1.3c.938 0 1.7-.763 1.7-1.7v-.3h15c.552 0 1-.447 1-1s-.448-1-1-1h-15.55c-.086-.117-.173-.233-.277-.337l-.836-.837c-.374-.373-.836-.62-1.337-.74v-1.086c0-.553-.448-1-1-1s-1 .447-1 1v1.155c-.588.268-1 .858-1 1.545v.3h-1c-.552 0-1 .447-1 1s.448 1 1 1h1v.3c0 .687.412 1.277 1 1.545v14.155h-2c-.552 0-1 .447-1 1s.448 1 1 1h6c.552 0 1-.447 1-1s-.448-1-1-1z"/></svg>