<svg id="Layer_1" viewBox="0 0 24 24" xmlns="http://www.w3.org/2000/svg" data-name="Layer 1"><path d="m23.993 7.917c0 .272-.09.678-.521 1.061l-2.356 1.757c-.331.302-.911.346-1.335.148-.462-.207-.761-.661-.761-1.155v-2.002l-.409.3c-.442.325-1.069.232-1.398-.216-.326-.445-.229-1.071.216-1.397l1.245-.912-1.245-.911c-.446-.326-.543-.951-.217-1.397.326-.445.952-.544 1.397-.216l.41.3v-2.003c0-.494.299-.948.761-1.155.444-.201.958-.143 1.332.146 0 0 2.306 1.556 2.339 1.586.366.325.55.698.549 1.108-.001.409-.187.779-.551 1.101-.031.027-2.091 1.432-2.091 1.432s2.013 1.263 2.055 1.3c.144.127.58.514.58 1.126zm-22.993 8.083c0 4.411 3.589 8 8 8s8-3.589 8-8v-4h-16zm15.914-6c-.507-.201-.969-.535-1.315-1.006-.743-1.015-.747-2.338-.127-3.346-1.284-1.611-3.258-2.648-5.473-2.648v7h6.914zm-6.914-9c0-.552-.448-1-1-1s-1 .448-1 1v2h2zm-2 2c-3.86 0-7 3.14-7 7h7z"/></svg>