<svg id="Layer_1" viewBox="0 0 24 24" xmlns="http://www.w3.org/2000/svg" data-name="Layer 1"><path d="m2.301 15.509c-1.298.321-1.896 1.793-1.233 2.954.522.914 1.148 1.765 1.908 2.509.739.763 1.587 1.394 2.499 1.921 1.158.668 2.634.078 2.96-1.219l2.071-7.428c.117-.465-.303-.888-.769-.773l-7.436 2.037zm3.199 4.491c-.828 0-1.5-.672-1.5-1.5s.672-1.5 1.5-1.5 1.5.672 1.5 1.5-.672 1.5-1.5 1.5zm6.967-20.008c-6.84-.259-12.467 5.209-12.467 11.991 0 .249.009.495.027.739.047.664.701 1.116 1.347.956l8.863-2.189c1.367-.338 2.601.902 2.257 2.267l-2.229 8.846c-.163.647.287 1.304.953 1.353.258.019.519.029.783.029 6.783 0 12.251-5.627 11.991-12.468-.236-6.178-5.347-11.289-11.525-11.524zm-7.967 9.991c-.828 0-1.5-.672-1.5-1.5s.672-1.5 1.5-1.5 1.5.672 1.5 1.5-.672 1.5-1.5 1.5zm4-4.5c-.828 0-1.5-.672-1.5-1.5s.672-1.5 1.5-1.5 1.5.672 1.5 1.5-.672 1.5-1.5 1.5zm4.5-1c0-.828.672-1.5 1.5-1.5s1.5.672 1.5 1.5-.672 1.5-1.5 1.5-1.5-.672-1.5-1.5zm2.5 16.5c-.828 0-1.5-.672-1.5-1.5s.672-1.5 1.5-1.5 1.5.672 1.5 1.5-.672 1.5-1.5 1.5zm0-10c-.828 0-1.5-.672-1.5-1.5s.672-1.5 1.5-1.5 1.5.672 1.5 1.5-.672 1.5-1.5 1.5zm4 5c-.828 0-1.5-.672-1.5-1.5s.672-1.5 1.5-1.5 1.5.672 1.5 1.5-.672 1.5-1.5 1.5zm1-5c-.828 0-1.5-.672-1.5-1.5s.672-1.5 1.5-1.5 1.5.672 1.5 1.5-.672 1.5-1.5 1.5z"/></svg>