<svg id="Layer_1" viewBox="0 0 24 24" xmlns="http://www.w3.org/2000/svg" data-name="Layer 1"><path d="m20.154 22.847c-.863.709-1.953 1.153-3.154 1.153h-12c-.43 0-.841-.072-1.239-.174l7.134-7.133c.44-.44 1.047-.687 1.648-.675.624.005 1.205.255 1.641.707l5.971 6.122zm-14.154-11.847c.551 0 1-.449 1-1s-.449-1-1-1-1 .449-1 1 .449 1 1 1zm-6 8v-12c0-2.757 2.243-5 5-5h6.082c-.684 1.178-1.082 2.542-1.082 4 0 4.411 3.589 8 8 8 1.458 0 2.822-.398 4-1.082v6.082c0 .827-.221 1.595-.578 2.283l-5.803-5.951c-.809-.838-1.896-1.305-3.059-1.314-1.14-.004-2.258.438-3.08 1.261l-7.598 7.598c-1.138-.917-1.882-2.305-1.882-3.877zm3-9c0 1.654 1.346 3 3 3s3-1.346 3-3-1.346-3-3-3-3 1.346-3 3zm21-4c0 3.314-2.686 6-6 6s-6-2.686-6-6 2.686-6 6-6 6 2.686 6 6zm-7-1c0 .553.448 1 1 1s1-.447 1-1v-2c0-.553-.448-1-1-1s-1 .447-1 1zm2.5 3.5c0-.828-.672-1.5-1.5-1.5s-1.5.672-1.5 1.5.672 1.5 1.5 1.5 1.5-.672 1.5-1.5z"/></svg>