<svg id="Layer_1" viewBox="0 0 24 24" xmlns="http://www.w3.org/2000/svg" data-name="Layer 1"><path d="m10.129 24h-2.219c-.631 0-1.076-.622-.859-1.214.232-.632.449-1.441.449-2.256 0-.782-.2-1.569-.42-2.201-.228-.652.255-1.328.945-1.328h2.116c.593 0 1.002.586.795 1.141-.227.607-.436 1.427-.436 2.388 0 .94.2 1.733.421 2.324.209.557-.198 1.147-.793 1.147zm6.371-3.529c0 .961.209 1.781.436 2.388.207.555-.202 1.141-.795 1.141h-2.116c-.691 0-1.173-.676-.945-1.328.221-.632.42-1.42.42-2.201 0-.765-.191-1.524-.406-2.137-.23-.654.25-1.334.943-1.334h2.092c.595 0 1.002.59.793 1.147-.221.59-.421 1.384-.421 2.324zm-6.371-5.471h-2.092c-.693 0-1.173-.68-.943-1.334.215-.612.406-1.371.406-2.136 0-.782-.2-1.569-.42-2.202-.228-.652.255-1.328.945-1.328h2.116c.593 0 1.002.586.795 1.141-.227.607-.436 1.428-.436 2.388 0 .94.2 1.733.421 2.323.209.557-.198 1.147-.793 1.147zm-.07-9h-1.945c-.69 0-1.188-.684-.946-1.33.183-.487.332-1.062.332-1.641 0-.596-.158-1.196-.348-1.704-.241-.643.261-1.325.948-1.325h1.972c.59 0 1.016.592.797 1.14-.2.502-.37 1.147-.37 1.89 0 .722.161 1.342.353 1.827.219.551-.202 1.144-.795 1.144zm6.441 5.471c0 .961.209 1.781.436 2.388.207.555-.203 1.141-.795 1.141h-2.116c-.691 0-1.173-.676-.945-1.328.221-.632.42-1.42.42-2.202 0-.765-.191-1.524-.406-2.136-.23-.654.25-1.334.943-1.334h2.092c.595 0 1.002.59.793 1.147-.221.59-.421 1.384-.421 2.323zm-11.522-8.787c-.852-.851-1.896-1.347-2.742-1.632-.744-.251-1.436.445-1.184 1.187.29.853.793 1.907 1.649 2.763 1.745 1.743 4.298 1.998 4.298 1.998s-.277-2.572-2.022-4.316zm2.022 4.316s-2.948.294-4.963 2.307c-1.083 1.082-1.676 2.44-1.993 3.466-.225.727.452 1.407 1.181 1.184 1.018-.311 2.363-.896 3.441-1.973 2.015-2.013 2.334-4.984 2.334-4.984zm12.013 13.297c.884.883 1.975 1.382 2.835 1.66.679.219 1.329-.433 1.108-1.111-.283-.866-.789-1.969-1.677-2.857-1.737-1.736-4.279-1.989-4.279-1.989s.275 2.561 2.013 4.297zm-2.013-4.297s2.948-.294 4.963-2.307c1.083-1.082 1.676-2.44 1.993-3.465.225-.727-.452-1.407-1.181-1.184-1.018.311-2.363.896-3.441 1.973-2.015 2.013-2.334 4.984-2.334 4.984z"/></svg>