<svg id="Layer_1" viewBox="0 0 24 24" xmlns="http://www.w3.org/2000/svg" data-name="Layer 1"><path d="m23.989 3.69c.155 2.357-1.357 4.31-4.143 4.31-2.154 0-3.846-1.57-3.846-3.5 0-.135.008-.267.024-.398.07-.579-.337-1.102-.921-1.102-.504-.047-.992.287-1.057.8-.03.229-.047.463-.047.7 0 1.328.474 2.548 1.261 3.5h-6.521c.787-.952 1.261-2.172 1.261-3.5 0-.237-.016-.471-.047-.7-.065-.513-.552-.847-1.057-.8-.584 0-.991.523-.921 1.102.016.13.024.263.024.398 0 1.93-1.692 3.5-3.846 3.5-2.785 0-4.297-1.953-4.142-4.31.138-2.092 1.937-3.69 4.034-3.69h15.91c2.097 0 3.896 1.598 4.034 3.69zm-1.989 19.31c0 .552-.448 1-1 1h-18c-.552 0-1-.448-1-1 0-.552.448-1 1-1h1v-12h16v12h1c.552 0 1 .448 1 1zm-14-10c-.552 0-1 .448-1 1v7c0 .552.448 1 1 1 .552 0 1-.448 1-1v-7c0-.552-.448-1-1-1zm4 0c-.552 0-1 .448-1 1v7c0 .552.448 1 1 1 .552 0 1-.448 1-1v-7c0-.552-.448-1-1-1zm4 0c-.552 0-1 .448-1 1v7c0 .552.448 1 1 1 .552 0 1-.448 1-1v-7c0-.552-.448-1-1-1z"/></svg>