<svg id="Layer_1" viewBox="0 0 24 24" xmlns="http://www.w3.org/2000/svg" data-name="Layer 1"><path d="m14.714 14.42-1.843 2.77 1.86 6.81h5.269c.553 0 1-.448 1-1 0-4.017-2.646-7.426-6.286-8.58zm-3.586 2.77-1.843-2.77c-3.64 1.154-6.286 4.563-6.286 8.58 0 .552.448 1 1 1h5.269zm-2.056-4.833c-1.315.323-2.548.859-3.656 1.575-.802.518-1.821-.198-1.601-1.126.534-2.25 1.12-4.713 1.409-5.921.227 2.427 1.738 4.479 3.848 5.472zm9.522 1.575c-.411-.265-.844-.497-1.287-.711-.448-1.729-1.168-4.453-1.2-4.589-.824 1.415-2.357 2.368-4.108 2.368-2.364 0-4.329-1.736-4.69-3.999h.69c2.378.038 4.907-1.178 6.082-3.296.318-.538.034-1.226-.553-1.438-.006-.002-.013-.005-.019-.007-.437-.156-.921.041-1.158.44-1.001 1.623-2.517 2.325-4.582 2.301h-2.088c.059-.239.1-.395.117-.45.854-2.722 3.347-4.551 6.202-4.551s5.347 1.829 6.202 4.55c.035.112 1.775 7.333 1.994 8.256.22.929-.8 1.644-1.601 1.126z"/></svg>