<svg id="Layer_1" viewBox="0 0 24 24" xmlns="http://www.w3.org/2000/svg" data-name="Layer 1"><path d="m18.5 24c-.244 0-.453-.102-.648-.206-1.138-.568-4.853-2.701-4.853-6.272v-3.187c0-1.295.826-2.439 2.055-2.848l2.5-.829c.609-.201 1.279-.201 1.89 0l2.5.829c1.229.408 2.056 1.553 2.056 2.848v3.187c0 4.029-3.763 5.857-4.917 6.322-.178.074-.339.156-.583.156zm-7.472-6h-6.028c-.552 0-1-.447-1-1s.448-1 1-1h5.999v-1.665c0-.114.019-.223.027-.335h-6.026c-.552 0-1-.447-1-1s.448-1 1-1h6.582c.589-1.114 1.587-1.994 2.842-2.411l2.501-.829c.349-.115.711-.176 1.075-.212v-1.547c.005-2.821-2-5-5.171-5-.413-1.164-1.525-2-2.829-2h-2c-1.304 0-2.416.836-2.829 2-3.171-.001-5.176 2.178-5.171 4.999v12c0 2.757 2.243 5 5 5h9.493c-1.586-1.277-3.282-3.272-3.465-6zm-6.028-10h8c.552 0 1 .447 1 1s-.448 1-1 1h-8c-.552 0-1-.447-1-1s.448-1 1-1z"/></svg>