<svg id="Layer_1" viewBox="0 0 24 24" xmlns="http://www.w3.org/2000/svg" data-name="Layer 1"><path d="m22.296 21.948c.132-.258.409-.409.699-.409.606 0 .99.647.703 1.181-.415.772-1.222 1.3-2.155 1.318-1.401.027-2.548-1.154-2.548-2.556v-2.887c0-1.402 1.147-2.582 2.548-2.556.933.018 1.741.546 2.155 1.318.287.534-.097 1.181-.703 1.181-.29 0-.567-.151-.699-.409-.158-.308-.488-.514-.863-.489-.478.032-.838.451-.838.93v2.936c0 .479.361.898.838.93.375.025.705-.181.863-.489zm-6.696-4.31h1.101c.442 0 .8-.358.8-.8 0-.442-.358-.8-.8-.8h-1.9c-.442 0-.8.358-.8.8v6.4c0 .442.358.8.8.8h1.9c.442 0 .8-.358.8-.8 0-.442-.358-.8-.8-.8h-1.101v-1.551h1.101c.442 0 .8-.358.8-.8 0-.442-.358-.8-.8-.8h-1.101v-1.65zm-3 .7v3.4c0 1.27-1.03 2.3-2.3 2.3h-1.5c-.442 0-.8-.358-.8-.8v-6.4c0-.442.358-.8.8-.8h1.5c1.27 0 2.3 1.03 2.3 2.3zm-1.6 0c0-.386-.314-.7-.7-.7s-.7 0-.7 0v4.802s.314 0 .7 0 .7-.314.7-.7v-3.4zm13-11.338c0-2.757-2.243-5-5-5h-1v-1c0-.553-.448-1-1-1s-1 .447-1 1v1h-8v-1c0-.553-.448-1-1-1s-1 .447-1 1v1h-1c-2.757 0-5 2.243-5 5v1h24zm-18 16.238v-6.4c0-1.544 1.256-2.8 2.8-2.8h12.781c.879.018 1.712.299 2.419.774v-4.812h-24v9c0 2.757 2.243 5 5 5h1.119c-.07-.244-.119-.496-.119-.762z"/></svg>