<svg id="Layer_1" viewBox="0 0 24 24" xmlns="http://www.w3.org/2000/svg" data-name="Layer 1"><path d="m13.5 13h4c3.59 0 6.5-2.91 6.5-6.5s-2.91-6.5-6.5-6.5-6.5 2.91-6.5 6.5v4c0 1.381 1.119 2.5 2.5 2.5zm4-2.001c-.552 0-1-.448-1-1s.448-1 1-1 1 .448 1 1-.448 1-1 1zm0-9c1.654 0 3 1.346 3 3 0 1.067-.574 2.062-1.498 2.598-.507.27-1.124.373-1.503.402-.491 0-.919-.362-.989-.862-.076-.547.305-1.052.852-1.128.244-.034.561-.108.653-.151.293-.171.485-.503.485-.859 0-.551-.449-1-1-1s-1 .449-1 1-.448 1-1 1-1-.448-1-1c0-1.654 1.346-3 3-3zm0 13.001c.337 0 .667-.025.994-.063 0 .021.006.042.006.063 0 1.378-1.122 2.5-2.5 2.5s-2.5-1.122-2.5-2.5zm2.946-.537c.022.178.054.353.054.537 0 2.481-2.019 4.5-4.5 4.5s-4.5-2.019-4.5-4.5c0-.159.031-.31.047-.465-1.501-.73-2.547-2.257-2.547-4.035v-4c0-.169.016-.334.025-.5h-2.984l4.636-4.264c.407-.374.433-1.006.06-1.413-.374-.407-1.008-.431-1.413-.059-.001 0-8.105 7.491-8.144 7.545-.726.868-1.18 1.971-1.18 3.191v8c0 2.761 2.239 5 5 5h14c2.761 0 5-2.239 5-5v-7.034c-.94 1.116-2.162 1.98-3.554 2.497zm-12.446 5.537h-3c-.552 0-1-.448-1-1s.448-1 1-1h3c.552 0 1 .448 1 1s-.448 1-1 1zm0-4h-3c-.552 0-1-.448-1-1s.448-1 1-1h3c.552 0 1 .448 1 1s-.448 1-1 1zm-1-4h-2c-.552 0-1-.448-1-1s.448-1 1-1h2c.552 0 1 .448 1 1s-.448 1-1 1z"/></svg>