<?xml version="1.0" encoding="UTF-8"?>
<svg xmlns="http://www.w3.org/2000/svg" id="Layer_1" data-name="Layer 1" viewBox="0 0 24 24">
  <path d="M24,11.5c0-1.434-.87-2.692-2.15-3.226C21.027,3.512,16.905,0,12,0,5.096,0,3.124,4.674,1.819,7.766c-.44,1.043-.895,2.121-1.322,2.37-.818,.441-.547,1.772,.379,1.856,.218,.028,3.52,.403,7.26-1.109-.085,.188-.136,.396-.136,.617,0,.828,.672,1.5,1.5,1.5s1.5-.672,1.5-1.5c0-.706-.49-1.295-1.148-1.454,1.734-.97,3.475-2.384,4.976-4.485,.041-.061,.826-1.225,1.378-2.373,2.042,1.258,3.479,3.415,3.747,5.962,.047,.441,.379,.799,.816,.879,.713,.129,1.23,.749,1.23,1.471,0,.827-.673,1.5-1.5,1.5h-.5c-.575,.038-1.082,.498-1.233,1.047-.281,1.172-.995,2.191-2.305,3.255-.1-2.336-1.745-3.302-2.985-3.302l-2.953-.013c-1.272,0-2.983,1.006-3.001,3.478-1.241-1.077-1.731-1.927-2.113-2.767-.194-.428-.625-.698-1.095-.698-.787,0-1.381,.746-1.179,1.507,.922,3.477,3.093,6.206,6.818,7.993,1.295,.636,2.792,.637,4.088,0,3.781-1.857,6.085-4.618,6.838-8.272l.028-.27c1.736-.205,3.093-1.669,3.093-3.459Zm-12,7.5c-.735,0-1.392-.101-1.988-.262l.007-.738c0-1.5,.682-2.013,1.517-2.013l.927,.013c.834,0,1.517,.513,1.517,2.013l.009,.647c-.639,.213-1.307,.339-1.989,.339Zm2.5-6c-.828,0-1.5-.672-1.5-1.5s.672-1.5,1.5-1.5,1.5,.672,1.5,1.5-.672,1.5-1.5,1.5Z"/>
</svg>
