<?xml version="1.0" encoding="UTF-8"?>
<svg xmlns="http://www.w3.org/2000/svg" id="Layer_1" data-name="Layer 1" viewBox="0 0 24 24">
  <path d="m15,16.545V1.349c-1.472-.853-3.176-1.349-5-1.349C4.477,0,0,4.477,0,10s4.477,10,10,10c.088,0,.173-.011.261-.013-.482-1.099-.281-2.429.618-3.327,1.093-1.094,2.979-1.14,4.121-.115Zm-5-.545c-.552,0-1-.448-1-1h0s-.268,0-.268,0c-1.068,0-2.063-.574-2.598-1.499-.276-.478-.113-1.089.365-1.366.477-.277,1.09-.114,1.366.365.178.308.511.5.867.5h2.268c.551,0,1-.448,1-1,0-.378-.271-.698-.644-.76l-3.042-.507c-1.341-.223-2.315-1.373-2.315-2.733,0-1.654,1.346-3,3-3,0-.552.448-1,1-1s1,.448,1,1h0s.268,0,.268,0c1.068,0,2.063.574,2.598,1.499.277.478.113,1.089-.364,1.366-.48.277-1.09.113-1.367-.365-.178-.308-.511-.5-.867-.5h-2.268c-.551,0-1,.448-1,1,0,.378.271.698.644.76l3.042.507c1.341.223,2.315,1.373,2.315,2.733,0,1.654-1.346,3-3,3,0,.552-.448,1-1,1Zm13.707,3.588l-3.535,3.536c-.585.584-1.354.877-2.122.877s-1.536-.292-2.121-.876l-3.636-3.636c-.391-.391-.391-1.023,0-1.414s1.023-.391,1.414,0l3.293,3.293V1c0-.552.447-1,1-1s1,.448,1,1v20.467l3.293-3.293c.391-.391,1.023-.391,1.414,0,.391.39.391,1.023,0,1.414Z"/>
</svg>
