<svg id="Layer_1" viewBox="0 0 24 24" xmlns="http://www.w3.org/2000/svg" data-name="Layer 1"><path d="m5.394 21.99c-.945-.026-1.823-.406-2.476-1.092-1.089-1.144-1.2-2.987-.263-4.384.407-.608.973-1.591 1.372-2.784l-2.379.694c-.91.331-1.842-.478-1.613-1.419.151-.621.465-1.313.465-2.006s-.314-1.385-.465-2.006c-.229-.941.702-1.75 1.613-1.419l2.379.694c-.398-1.193-.965-2.175-1.372-2.784-.937-1.396-.826-3.24.263-4.384.677-.711 1.592-1.102 2.576-1.102h.013l1.557 4.931c.621 1.967.936 4.01.936 6.071 0 2.122-.317 4.248-.908 6.12l-1.698 4.868zm6.698-4.868c.591-1.872.908-3.998.908-6.12 0-2.062-.315-4.104-.936-6.071l-1.506-4.77c-.764-.099-1.537-.161-2.32-.161h-.634l1.367 4.328c.683 2.162 1.029 4.408 1.029 6.674 0 2.324-.349 4.658-1.01 6.75l-1.481 4.248h.729c.742 0 1.477-.048 2.201-.139zm11.908-6.122c0 .906-.255 1.779-.736 2.523-.869 1.404-3.069 4.07-5.568 5.682-.131.651-.305 1.296-.518 1.918-.592 1.721-2.226 2.877-4.067 2.877-.893 0-1.13-.721-.886-1.184l1.766-5.063c.661-2.092 1.01-4.427 1.01-6.75 0-2.266-.346-4.512-1.029-6.674l-1.178-3.73c2.044.54 3.947 1.432 5.57 2.655 2.453 1.848 4.019 3.86 4.9 5.223.481.745.736 1.617.736 2.523zm-4-1.5c0-.828-.672-1.5-1.5-1.5s-1.5.672-1.5 1.5.672 1.5 1.5 1.5 1.5-.672 1.5-1.5z"/></svg>