<svg id="Layer_1" viewBox="0 0 24 24" xmlns="http://www.w3.org/2000/svg" data-name="Layer 1"><path d="m14.269 6.481c-.813.813-1.269 1.915-1.269 3.064v.955c0 .276.224.5.5.5h.955c1.149 0 2.252-.457 3.064-1.269l5.715-5.715c.85-.85 1.013-2.236.252-3.167-.875-1.07-2.456-1.129-3.409-.176zm-14.269 13.519c0 2.209 1.791 4 4 4h16c2.209 0 4-1.791 4-4v-7h-24zm5.5-3c.828 0 1.5.672 1.5 1.5s-.672 1.5-1.5 1.5-1.5-.672-1.5-1.5.672-1.5 1.5-1.5zm5.551-6h-11.051v-1c0-2.209 1.791-4 4-4h8.085c-.705 1.039-1.085 2.262-1.085 3.545v.955c0 .171.018.338.051.5zm11.813-3.786c.701.721 1.136 1.701 1.136 2.786v1h-4.922z"/></svg>