<svg id="Layer_1" viewBox="0 0 24 24" xmlns="http://www.w3.org/2000/svg" data-name="Layer 1"><path d="m15.354 6h4.646v4h-2.102c-.337-1.649-1.457-2.967-2.544-4zm-11.354 4h2.115c.338-1.611 1.388-2.713 1.779-3.117l.856-.883h-4.75zm16-10h-2v4h6c0-2.209-1.791-4-4-4zm-4 0h-8v4h8zm8 21c0 .552-.448 1-1 1h-8.184c-.414 1.161-1.514 2-2.816 2s-2.402-.839-2.816-2h-8.184c-.552 0-1-.448-1-1s.448-1 1-1h8.184c.302-.847.969-1.514 1.816-1.816v-3.33c-1.722-.446-3-1.997-3-3.859 0-.8.322-1.474.742-2.04.235-.317.724-.275.899.079.159.324.359.628.548.628.675 0 .652-1.783 1.241-3.167.217-.511.868-.658 1.286-.293 1.366 1.193 3.286 2.854 3.286 4.793 0 1.862-1.278 3.413-3 3.859v3.33c.847.302 1.514.969 1.816 1.816h8.184c.552 0 1 .448 1 1zm-12.884-7.37c.244.244.564.366.884.366s.64-.122.883-.366c.488-.488.488-1.279 0-1.767l-.884-.884-.884.884c-.488.488-.488 1.279 0 1.767zm4.194 2.37h4.69c2.209 0 4-1.791 4-4h-6.09c-.281 1.666-1.246 3.101-2.6 4zm6.69-6h2v-4h-2zm-16-10h-2c-2.209 0-4 1.791-4 4h6zm-2 16h4.69c-1.354-.899-2.319-2.334-2.6-4h-6.09c0 2.209 1.791 4 4 4zm-2-10h-2v4h2z"/></svg>