<svg id="Layer_1" viewBox="0 0 24 24" xmlns="http://www.w3.org/2000/svg" data-name="Layer 1"><path d="m3.15 10h9.964c-.057-.158-.088-.322-.088-.5 0-.828.672-1.5 1.5-1.5s1.5.672 1.5 1.5c0 .178-.031.342-.088.5h5.062c.29 0 .565-.119.756-.338.189-.22.275-.511.234-.798-.179-1.241-.908-2.342-1.959-3.011-.087-2.278-2.121-4.101-4.433-3.82-.742-1.24-2.082-2.027-3.564-2.027s-2.822.787-3.564 2.027c-2.467-.31-4.587 1.782-4.428 4.214-.901.57-1.573 1.46-1.856 2.496-.082.301-.02.623.17.87.189.248.483.387.795.387zm6.383-4.993c.828 0 1.5.672 1.5 1.5s-.672 1.5-1.5 1.5-1.5-.672-1.5-1.5.672-1.5 1.5-1.5zm13.831 8.167c-.578-.746-1.45-1.174-2.392-1.174h-17.944c-.941 0-1.813.428-2.392 1.174-.413.533-.636 1.185-.636 1.826 0 5.077 7 9 9 9h6c2 0 9-3.923 9-9 0-.641-.223-1.293-.636-1.826zm-11.014 7.807h-.699c-1.485-.107-4.729-.788-5.144-4.71-.083-.783.625-1.415 1.386-1.243 2.51.568 3.616 2.505 4.107 4.02.491-1.515 1.598-3.452 4.107-4.02.761-.172 1.469.46 1.386 1.243-.414 3.922-3.659 4.603-5.144 4.71z"/></svg>