<svg id="Layer_1" viewBox="0 0 24 24" xmlns="http://www.w3.org/2000/svg" data-name="Layer 1"><path d="m20 6h-2c-.477 0-.887.336-.98.804l-.357 1.785c-.281 1.402-1.512 2.411-2.942 2.411h-3.442c-1.43 0-2.661-1.009-2.942-2.412l-.357-1.784c-.093-.467-.504-.804-.98-.804h-1.5c-2.485 0-4.5 2.015-4.5 4.5v3c0 2.485 2.015 4.5 4.5 4.5h15.5c2.209 0 4-1.791 4-4v-4c0-2.209-1.791-4-4-4zm-10.977 1.399c-.145-.724.409-1.399 1.147-1.399h3.66c.738 0 1.291.675 1.147 1.399l-.132.661c-.109.547-.589.94-1.147.94h-3.396c-.557 0-1.037-.393-1.147-.94z"/></svg>