<?xml version="1.0" encoding="UTF-8"?>
<svg xmlns="http://www.w3.org/2000/svg" id="Layer_1" data-name="Layer 1" viewBox="0 0 24 24">
  <path d="M17.834,4.743L22.294,.292c.389-.389,1.023-.39,1.414,.001,.39,.391,.39,1.024-.002,1.415l-4.459,4.45c-1.054,1.099-2.953,1.098-4.007,0-.391-.391-.391-1.024,0-1.415,.391-.39,1.023-.39,1.414,0,.314,.315,.865,.315,1.18,0ZM1.74,6.158c1.054,1.099,2.952,1.1,4.007,0L10.206,1.708c.392-.391,.392-1.023,.002-1.415-.391-.392-1.025-.39-1.414-.001L4.334,4.743c-.314,.315-.866,.315-1.179,.001l-1.447-1.451c-.391-.392-1.023-.392-1.414-.002-.392,.39-.392,1.023-.002,1.414l1.448,1.452Zm14.328,11.707l-4.068-4.864v-3c0-.552-.447-1-1-1s-1,.448-1,1v3h-2.415l2.999,3.587c.914,1.111,.914,2.715,.004,3.82l-3.042,3.593h4.404l4.127-4.875c.294-.358,.294-.893-.009-1.261Zm5.791-3.042c-.737-.895-1.746-1.49-2.858-1.717v-3.105c0-.552-.447-1-1-1s-1,.448-1,1v3h-2.392l2.999,3.587c.914,1.111,.914,2.715,.004,3.82l-3.042,3.593h3.429c1.5,0,2.906-.664,3.86-1.822l1.457-1.771c.91-1.105,.91-2.709,0-3.814l-1.458-1.771Zm-12.814,3.042l-4.045-4.837v-3.028c0-.552-.447-1-1-1s-1,.448-1,1v3.164c-1.721,.446-3,1.995-3,3.858v2.952c0,2.219,1.807,4.014,4.026,4l.927-.006,4.1-4.842c.294-.358,.294-.893-.009-1.261Zm-.522-13.121c-.391,.391-.391,1.024,0,1.415,1.053,1.099,2.953,1.099,4.006,0L16.988,1.708c.392-.39,.392-1.023,.002-1.415-.391-.392-1.023-.391-1.414-.001l-4.461,4.452c-.315,.316-.865,.314-1.179,0-.391-.391-1.023-.39-1.414,0Z"/>
</svg>
