<svg id="Layer_1" viewBox="0 0 24 24" xmlns="http://www.w3.org/2000/svg" data-name="Layer 1"><path d="m16.088.8c-.379-.504-.972-.8-1.603-.8h-1.61l1.128 3h-4.008l1.128-3h-1.608c-.631 0-1.225.296-1.603.8l-1.561 2.077c-.493.656-.463 1.565.071 2.188l5.577 5.935-2.064-6h4.129l-2.064 6 5.579-5.935c.535-.622.564-1.532.071-2.188l-1.561-2.077zm-8.972 17.2c-.425 0-.856-.067-1.28-.209l-3.846-1.281v.98c0 2.153 1.377 4.064 3.42 4.744l4.436 1.478c.374.121.758.22 1.146.287v-8.711l-.46.766c-.742 1.236-2.045 1.945-3.416 1.945zm9.752 0c-1.371 0-2.674-.708-3.416-1.945l-.453-.766v8.706c.422-.074.833-.182 1.229-.314h.01l4.336-1.446c2.042-.681 3.42-2.592 3.42-4.744v-.981l-3.846 1.282c-.424.142-.855.209-1.28.209zm6.846-6.736h.001s-1.102-1.835-1.102-1.835c-.362-.603-1.094-.873-1.76-.651l-7.861 2.62 2.175 3.625c.482.804 1.458 1.165 2.348.868l5.119-1.706c1.211-.404 1.737-1.825 1.08-2.921zm-23.425-.032c-.667 1.112-.132 2.556 1.098 2.966l5.082 1.694c.889.296 1.865-.065 2.348-.868l2.176-3.625-7.862-2.621c-.667-.222-1.399.049-1.761.652l-1.08 1.802z"/></svg>