<svg id="Layer_1" viewBox="0 0 24 24" xmlns="http://www.w3.org/2000/svg" data-name="Layer 1"><path d="m6 19c0 1.654-1.346 3-3 3s-3-1.346-3-3 1.346-3 3-3 3 1.346 3 3zm4-5.183v-1.817c0-1.63.978-3.026 2.377-3.65-.414-.216-.878-.35-1.377-.35-1.654 0-3 1.346-3 3 0 1.303.837 2.405 2 2.817zm1-7.817c1.654 0 3-1.346 3-3s-1.346-3-3-3-3 1.346-3 3 1.346 3 3 3zm-8 2c-1.654 0-3 1.346-3 3s1.346 3 3 3 3-1.346 3-3-1.346-3-3-3zm17.829 10.753-4.829-2.292v-4.355c0-.996-.681-1.92-1.664-2.08-1.253-.204-2.336.758-2.336 1.973v7.99c-.64-.531-1.122-.936-1.145-.957-.922-.861-2.373-.813-3.235.109-.863.923-.819 2.372.098 3.23l1.821 1.628h14.462v-.593c0-2.055-1.258-3.901-3.171-4.653zm-17.829-18.753c-1.654 0-3 1.346-3 3s1.346 3 3 3 3-1.346 3-3-1.346-3-3-3z"/></svg>