<svg id="Layer_1" viewBox="0 0 24 24" xmlns="http://www.w3.org/2000/svg" data-name="Layer 1"><path d="m9.78 20.187c.468 1.048.19 2.402-.828 3.225-.508.411-1.169.589-1.823.589-.798 0-1.51-.499-1.783-1.248l-2.554-6.27c.841.329 1.751.518 2.708.518h2.887l1.393 3.187zm3.22-9.164v-2.903c0-1.379.711-2.661 1.88-3.392l1.12-.7v-2.964c0-.588-.477-1.064-1.064-1.064-.504 0-.915.361-1.037.851-.531 2.143-3.067 3.149-5.399 3.149h-.5v11h.5c2.332 0 4.868 1.006 5.399 3.149.121.489.532.851 1.037.851.588 0 1.064-.477 1.064-1.064v-2.821l-1.12-.701c-1.169-.731-1.88-2.013-1.88-3.392zm-7 3.977v-11h-.5c-3.038 0-5.5 2.462-5.5 5.5s2.462 5.5 5.5 5.5zm9-3.977c0 .69.355 1.33.94 1.696l2.56 1.6v-4.168l-3.5-2zm5.56-6.162c-.649-.405-1.471-.405-2.12 0l-2.468 1.542 3.528 2.016 3.528-2.016zm-.06 5.29v4.168l2.56-1.6c.585-.366.94-1.006.94-1.696v-2.872z"/></svg>