<svg id="Layer_1" viewBox="0 0 24 24" xmlns="http://www.w3.org/2000/svg" data-name="Layer 1"><path d="m7 4h-6c-.553 0-1-.447-1-1s.447-1 1-1h6c.553 0 1 .447 1 1s-.447 1-1 1zm-1 3c0-.553-.447-1-1-1h-4c-.553 0-1 .447-1 1s.447 1 1 1h4c.553 0 1-.447 1-1zm-2 4c0-.553-.447-1-1-1h-2c-.553 0-1 .447-1 1s.447 1 1 1h2c.553 0 1-.447 1-1zm9-9h-3.184c.112.314.184.648.184 1 0 1.302-.839 2.402-2 2.816v4.184h5zm7.97 2.97c-.802-1.804-2.595-2.97-4.569-2.97h-1.4v8h8.205zm-17.912 15.03c-.034.162-.058.328-.058.5 0 1.381 1.119 2.5 2.5 2.5s2.5-1.119 2.5-2.5c0-.172-.024-.338-.058-.5zm13 0c-.034.162-.058.328-.058.5 0 1.381 1.119 2.5 2.5 2.5s2.5-1.119 2.5-2.5c0-.172-.024-.338-.058-.5h-4.885zm7.827-8h-18.069c-.414 1.161-1.514 2-2.816 2h-3c0 2.206 1.794 4 4 4h16c2.206 0 4-1.794 4-4v-.727c0-.431-.039-.856-.116-1.273z"/></svg>