<svg id="Layer_1" viewBox="0 0 24 24" xmlns="http://www.w3.org/2000/svg" data-name="Layer 1"><path d="m6.931 20c.034.162.058.328.058.5 0 1.381-1.119 2.5-2.5 2.5s-2.5-1.119-2.5-2.5c0-.172.024-.338.058-.5zm6.438-10.937-3.431-4.922c-.935-1.341-2.467-2.141-4.102-2.141h-.336c-1.381 0-2.5 1.119-2.5 2.5v4.5h9.5c.295 0 .585.022.869.063zm-2.323 10.937c-.034.162-.058.328-.058.5 0 1.381 1.119 2.5 2.5 2.5s2.5-1.119 2.5-2.5c0-.172-.024-.338-.058-.5h-4.885zm12.587-15.718-2.919-2.92c-.484-.484-1.268-.484-1.752 0-.984.983-1.21 2.435-.692 3.642-1.191.023-2.247.739-2.706 1.841l-1.731 4.154h-9.845c-2.654 0-3.988 2.009-3.988 4v1c0 1.105.884 2 1.988 2h14c1.103 0 2-.897 2-2h.012v-1.045c0-1.543-.893-2.866-2.182-3.517l1.592-3.822c.156-.374.514-.615.919-.615h2.969c.846 0 1.692-.322 2.336-.966.484-.484.484-1.268 0-1.752z"/></svg>