<svg id="Layer_1" viewBox="0 0 24 24" xmlns="http://www.w3.org/2000/svg" data-name="Layer 1"><path d="m11 4.653v2.825c0 1.251-.668 2.407-1.751 3.032l-2 1.154c-1.082.624-2.415.624-3.497 0l-2-1.153c-1.084-.625-1.751-1.781-1.751-3.032v-2.825c-.001-1.251.667-2.407 1.75-3.032l2-1.154c1.082-.624 2.415-.624 3.497 0l2 1.153c1.084.625 1.751 1.781 1.751 3.032zm11.249-3.031-2-1.154c-1.082-.624-2.415-.624-3.497 0l-2 1.153c-1.084.625-1.751 1.781-1.751 3.032v2.825c0 1.251.668 2.407 1.751 3.032l2 1.154c1.082.624 2.415.624 3.497 0l2-1.153c1.084-.625 1.751-1.781 1.751-3.032v-2.825c0-1.251-.668-2.407-1.751-3.032zm-14.214 11.827c-1.102.635-1.772 1.818-1.751 3.09l.042 2.543c0 1.251.667 2.406 1.75 3.031l2.458 1.419c1.134.654 2.538.621 3.64-.086l2.042-1.31c1.003-.644 1.61-1.754 1.61-2.946l-.044-2.728c-.02-1.231-.685-2.36-1.751-2.975l-2.283-1.317c-1.082-.624-2.415-.624-3.498 0l-2.216 1.278z"/></svg>