<svg id="Layer_1" viewBox="0 0 24 24" xmlns="http://www.w3.org/2000/svg" data-name="Layer 1"><path d="m20.367 24h-2.734c-1.51 0-2.79-1.13-2.977-2.628l-.641-5.124c-.071-.568.105-1.142.485-1.571s.926-.677 1.5-.677h6c.573 0 1.12.247 1.5.677s.556 1.003.485 1.571l-.641 5.124c-.187 1.498-1.467 2.628-2.977 2.628zm-12.367-11c-1.654 0-3 1.346-3 3s1.346 3 3 3 3-1.346 3-3-1.346-3-3-3zm4.672 8.62-.386-3.086c-.872 1.469-2.458 2.466-4.286 2.466-2.757 0-5-2.243-5-5s2.243-5 5-5c2.034 0 3.781 1.225 4.562 2.973.128-.218.27-.428.44-.621.649-.735 1.546-1.18 2.507-1.3-.505-1.607-1.389-3.08-2.613-4.305l-.603-.603c-.186-.187-.293-.444-.293-.707v-4.437c.552 0 1-.448 1-1s-.448-1-1-1h-8c-.552 0-1 .448-1 1s.448 1 1 1v4.438c0 .263-.107.521-.293.707l-.602.603c-2.002 2.002-3.105 4.664-3.105 7.495v3.757c0 2.757 2.243 5 5 5h6c.822 0 1.586-.218 2.271-.571-.306-.547-.518-1.155-.599-1.809z"/></svg>