<svg id="Layer_1" viewBox="0 0 24 24" xmlns="http://www.w3.org/2000/svg" data-name="Layer 1"><path d="m20 24h-16c-.552 0-1-.447-1-1v-2c0-2.412.986-4.892 2.511-6.317 1.01-.991 2.782-.87 3.694.197l2.795 3.515 2.769-3.471c.951-1.114 2.684-1.23 3.729-.231 1.519 1.424 2.501 3.899 2.501 6.308v2c0 .553-.448 1-1 1zm-6.707-12.136c-3.87.813-7.293-2.133-7.293-5.864h2.5c1.956 0 3.744-.846 4.992-2.226.491-.543.261-1.433-.448-1.619-.007-.002-.014-.004-.02-.005-.358-.091-.754-.006-1 .269-.881.979-2.142 1.582-3.524 1.582h-2.15c.826-2.328 3.043-4.001 5.65-4.001 3.731 0 6.677 3.422 5.864 7.293-.476 2.265-2.307 4.096-4.571 4.571z"/></svg>