<svg id="Layer_1" viewBox="0 0 24 24" xmlns="http://www.w3.org/2000/svg" data-name="Layer 1"><path d="m23.363 13.173c.413.533.636 1.185.636 1.826 0 5.077-7 9-9 9h-6c-1.999 0-8.999-3.923-8.999-9 0-.641.223-1.293.636-1.826.578-.746 1.45-1.173 2.392-1.173h17.944c.941 0 1.813.427 2.392 1.173zm-11.363-3.189h3.999c-.003-1.1-.899-1.994-1.999-1.994s-1.996.894-1.999 1.994zm-3.977 0h2.071c-.519-.764-1.191-1.287-1.699-1.603-.161.376-.315.922-.372 1.603zm-1.995.016c.148-2.265 1.173-3.531 1.226-3.593.301-.382.682-.434 1.11-.285.076.029 1.244.49 2.378 1.565.725-1.022 1.91-1.697 3.256-1.697 2.204 0 3.996 1.791 3.999 3.994h2.972c.7 0 1.374.149 1.994.418-.072-1.293-.751-2.458-1.756-3.198l2.497-2.497c.391-.391.391-1.023 0-1.414s-1.023-.391-1.414 0l-3 3s-.002.004-.004.005c-.342-.749-.901-1.344-1.585-1.728l2.548-2.912c.363-.415.321-1.047-.095-1.411-.415-.364-1.047-.323-1.411.095l-3.307 3.779c-.151.023-.29.06-.402.114-.815-.807-1.891-1.25-3.031-1.25h-.009c-1.145.003-2.226.451-2.949 1.241-.31-.082-.626-.123-.942-.123-1.524.004-2.892.915-3.41 2.275-2.027.29-3.561 2.003-3.685 4.033.626-.275 1.308-.412 2.017-.412h3.001z"/></svg>