<svg id="Layer_1" viewBox="0 0 24 24" xmlns="http://www.w3.org/2000/svg" data-name="Layer 1"><path d="m18.999 21.75h-6v-7c0-.552-.448-1-1-1s-1 .448-1 1v7h-6c-.552 0-1 .448-1 1s.448 1 1 1h14c.552 0 1-.448 1-1s-.448-1-1-1z"/><path d="m23.945 13.423-2.988-8.651c-.215-.62-.778-1.021-1.434-1.022h-.003c-.654 0-1.217.398-1.435 1.017l-3.03 8.652c-.037.106-.056.218-.056.331v.302c0 2.506 2 4.698 4.503 4.698 2.414.055 4.541-2.088 4.496-4.5v-.5c0-.111-.019-.221-.055-.327zm-6.536-.673 2.108-6.02 2.079 6.02z"/><path d="m8.945 13.423-2.988-8.651c-.215-.62-.778-1.021-1.434-1.022h-.003c-.654 0-1.217.398-1.435 1.017l-3.029 8.652c-.037.106-.056.218-.056.331v.302c0 2.506 2 4.698 4.503 4.698 2.414.055 4.541-2.088 4.496-4.5v-.5c0-.111-.019-.221-.055-.327zm-6.535-.673 2.108-6.02 2.079 6.02z"/><path d="m10.315 6.983 3.041.507c.373.062.644.382.644.76 0 .551-.449 1-1 1h-2.268c-.356 0-.688-.192-.867-.5-.277-.479-.89-.643-1.366-.365-.479.277-.642.888-.365 1.366.535.925 1.53 1.499 2.598 1.499h.268c0 .553.448 1 1 1s1-.448 1-1c1.654 0 3-1.346 3-3 0-1.36-.974-2.51-2.315-2.733l-3.041-.507c-.373-.062-.644-.382-.644-.76 0-.551.449-1 1-1h2.268c.356 0 .688.192.867.5.277.479.89.643 1.366.365.479-.277.642-.888.365-1.366-.535-.925-1.53-1.499-2.598-1.499h-.268c0-.553-.448-1-1-1s-1 .448-1 1c-1.654 0-3 1.346-3 3 0 1.36.974 2.51 2.315 2.733z"/></svg>