<svg id="Layer_1" viewBox="0 0 24 24" xmlns="http://www.w3.org/2000/svg" data-name="Layer 1"><path d="m3 6c-.307 0-.583-.187-.697-.472l-.526-1.316-1.318-.556c-.283-.118-.464-.397-.459-.704.006-.307.198-.579.484-.687l1.299-.492.52-1.301c.114-.285.39-.472.697-.472s.583.187.697.472l.523 1.308 1.308.523c.285.114.472.39.472.697s-.187.583-.472.697l-1.308.523-.523 1.308c-.114.285-.39.472-.697.472zm18.869 4.003h-6.755l.163 1.997h6.432zm.2-2.003 1.784-3.719c.314-.841.123-1.808-.537-2.416-1.193-1.099-3.08-1.865-4.815-1.865-1.629 0-3.621.773-4.815 1.873-.661.609-.852 1.576-.537 2.417l1.785 3.71zm-6.629 6.003.632 7.762c.103 1.264 1.16 2.235 2.428 2.235 1.27 0 2.326-.973 2.427-2.238l.621-7.759h-6.109zm-2.473-5.725c-1.299-.805-2.826-1.278-4.467-1.278-4.694 0-8.5 3.806-8.5 8.5s3.806 8.5 8.5 8.5c2.137 0 4.084-.794 5.577-2.096zm-1.36 6.802-1.09.436-.436 1.09c-.095.237-.325.393-.58.393s-.486-.156-.58-.393l-.439-1.097-1.099-.463c-.236-.099-.387-.332-.382-.587s.165-.482.404-.573l1.082-.41.433-1.084c.095-.237.325-.393.58-.393s.486.156.58.393l.436 1.09 1.09.436c.237.095.393.325.393.58s-.156.486-.393.58z"/></svg>