<svg id="Layer_1" viewBox="0 0 24 24" xmlns="http://www.w3.org/2000/svg" data-name="Layer 1"><path d="m24 20.003c0 2.401-2.13 4.315-4.602 3.953-2.162-.317-3.58-2.324-3.372-4.498.115-1.2.592-2.298 1.132-3.543.863-1.989 1.842-4.242 1.842-7.902-.012-.638-.096-1.411-.176-1.604-.21-.507.026-1.095.533-1.309.486-.207 1.038.006 1.272.473.666-.562.846-.728.893-.775.636-.635.636-1.668 0-2.303-.614-.614-1.689-.616-2.305 0-.118.118-.485.544-1.045 1.208-.75.89-1.153 2.034-1.126 3.198.099 4.175.051 4.215-.354 4.548-5.714 4.675-15.037 12.342-15.038 12.342-.396.327-.978.3-1.342-.065-.363-.363-.411-.96-.087-1.357 1.353-1.657 11.137-13.634 15.519-18.878-1.184-.534-3.883-1.473-8.244-1.473-2.82 0-6.192.951-6.226.961-.535.154-1.084-.156-1.236-.686-.151-.532.156-1.085.687-1.236.149-.043 3.671-1.038 6.775-1.038 5.344 0 8.452 1.309 9.573 1.893.367-.43.625-.724.73-.83 1.825-1.825 5.457-1.218 6.08 1.803.279 1.353-.265 2.744-1.306 3.652-.264.23-.742.637-1.58 1.335.045 4.063-1.107 6.792-2.004 8.838-.555 1.278-.993 2.288-.993 3.293 0 1.442 1.536 2.531 3.057 1.723.638-.339.911-1.049.944-1.77.024-.53.462-.953.999-.953.553 0 1 .447 1 .999z"/></svg>