<svg id="Layer_1" viewBox="0 0 24 24" xmlns="http://www.w3.org/2000/svg" data-name="Layer 1"><path d="m5.131 5.498c-.277-1.082-.116-2.207.454-3.166.563-.948 1.46-1.618 2.524-1.887 2.303-.582 5.479-.583 7.781 0 1.064.269 1.961.938 2.524 1.886.57.959.731 2.084.454 3.166l-.946 3.697c-.004-.008-.007-.015-.01-.023-.886-1.905-2.81-3.139-4.913-3.167v-2.005c0-.552-.447-1-1-1s-1 .448-1 1v2.005c-2.103.027-4.027 1.261-4.913 3.167-.004.008-.007.015-.01.023l-.946-3.697zm13.869 13.684c0 4.818-4.905 4.818-7 4.818s-7 0-7-4.818c0-2.42 1.577-6.321 2.9-9.167.559-1.203 1.771-1.983 3.1-2.01v1.995c0 .552.447 1 1 1s1-.448 1-1v-1.995c1.329.027 2.54.807 3.1 2.01 1.323 2.846 2.9 6.747 2.9 9.167zm-5-.182c0-.553-.447-1-1-1h-2c-.553 0-1 .447-1 1s.447 1 1 1h2c.553 0 1-.447 1-1z"/></svg>