<svg id="Layer_1" viewBox="0 0 24 24" xmlns="http://www.w3.org/2000/svg" data-name="Layer 1"><path d="m9.006 8.494-5.993-2.004 4.705-1.563c.348.412.8.725 1.321.902-.01.057-.026.114-.033.172zm-6.01-2.01v.011l.016-.005-.016-.005zm7.004-2.484c.552 0 1-.448 1-1 0-.296.13-.576.358-.767.23-.193.527-.27.832-.217.391.069.725.402.794.793.093.532-.212.908-.501 1.067-.701.385-1.257 1.105-1.452 1.878-.135.536.19 1.079.725 1.214.521.135 1.081-.185 1.214-.725.064-.257.293-.515.477-.616 1.124-.62 1.729-1.892 1.506-3.165-.213-1.211-1.208-2.205-2.418-2.417-.887-.156-1.783.083-2.464.655s-1.071 1.409-1.071 2.298c0 .552.448 1 1 1zm6.568 1.017c-.288.652-.708 1.244-1.248 1.726-.192.171-.314.406-.314.663v1.089l5.994-2-4.432-1.477zm-9.452 12.983c-.425 0-.856-.067-1.28-.209l-3.846-1.281v.98c0 2.153 1.377 4.064 3.42 4.744l4.436 1.478c.374.121.758.22 1.146.287v-8.71l-.46.766c-.742 1.236-2.045 1.945-3.416 1.945zm9.752 0c-1.371 0-2.674-.708-3.416-1.945l-.453-.766v8.706c.422-.074 1.239-.314 1.239-.314l4.336-1.446c2.042-.681 3.42-2.592 3.42-4.744v-.981l-3.846 1.282c-.424.142-.855.209-1.28.209zm6.846-6.736h.001s-1.721-2.867-1.721-2.867l-9.003 3.001 2.175 3.625c.482.804 1.458 1.165 2.348.868l5.119-1.706c1.211-.404 1.737-1.825 1.08-2.921zm-11.715-3.265c-.552 0-1 .448-1 1s.448 1 1 1 1-.448 1-1-.448-1-1-1zm-11.709 3.235c-.667 1.112-.132 2.556 1.098 2.966l5.082 1.694c.889.296 1.865-.065 2.348-.868l2.176-3.625-9.005-3.002z"/></svg>