<svg id="Layer_1" viewBox="0 0 24 24" xmlns="http://www.w3.org/2000/svg" data-name="Layer 1"><path d="m5 2.5c0-1.379 1.121-2.5 2.5-2.5h9c1.379 0 2.5 1.121 2.5 2.5s-1.121 2.5-2.5 2.5h-9c-1.379 0-2.5-1.121-2.5-2.5zm19 11.5v5c0 2.757-2.243 5-5 5h-14c-2.757 0-5-2.243-5-5v-5c0-2.757 2.243-5 5-5h2v-2h10v2h2c2.757 0 5 2.243 5 5zm-8 3c0-1.068-.416-2.073-1.18-2.836l-1.389-1.358c-.789-.772-2.074-.772-2.863 0l-1.396 1.366c-.755.755-1.172 1.76-1.172 2.828s.417 2.073 1.171 2.828c.755.756 1.76 1.172 2.829 1.172s2.072-.416 2.828-1.172c.756-.755 1.172-1.76 1.172-2.828zm-3.967-2.765-1.455 1.358c-.37.37-.578.872-.578 1.406s.208 1.036.586 1.414c.755.756 2.072.756 2.828 0 .378-.378.586-.88.586-1.414s-.208-1.036-.586-1.414l-1.381-1.351z"/></svg>