<svg id="Layer_1" viewBox="0 0 24 24" xmlns="http://www.w3.org/2000/svg" data-name="Layer 1"><path d="m23 13.723v.777c0 1.93-1.57 3.5-3.5 3.5h-2.028c-1.239 3.49-4.563 6-8.472 6-2.122 0-4.071-.742-5.611-1.975l3.591-3.591c.595.351 1.28.566 2.02.566 1.862 0 3.412-1.278 3.859-3h6.641c.827 0 1.5-.673 1.5-1.5v-.777c-.595-.346-1-.984-1-1.723 0-1.105.895-2 2-2s2 .895 2 2c0 .738-.405 1.376-1 1.723zm-18 1.277c0-1.862 1.278-3.413 3-3.859v-6.641c0-1.93-1.57-3.5-3.5-3.5h-.777c-.346-.595-.984-1-1.723-1-1.105 0-2 .895-2 2s.895 2 2 2c.738 0 1.376-.405 1.723-1h.777c.827 0 1.5.673 1.5 1.5 0 0 .005 2.017.005 2.026-3.492 1.237-6.005 4.563-6.005 8.474 0 2.122.742 4.071 1.975 5.611l3.591-3.591c-.351-.595-.566-1.28-.566-2.02zm7.859-1h5.082c-.386-3.47-2.754-6.343-5.941-7.474v-2.026c0-.827.673-1.5 1.5-1.5h.777c.346.595.984 1 1.723 1 1.105 0 2-.895 2-2s-.895-2-2-2c-.738 0-1.376.405-1.723 1h-.777c-1.93 0-3.5 1.57-3.5 3.5v6.641c1.401.363 2.496 1.458 2.859 2.859z"/></svg>