<svg id="Layer_1" viewBox="0 0 24 24" xmlns="http://www.w3.org/2000/svg" data-name="Layer 1"><path d="m10.445 2.913c-.18-.898.154-1.812.873-2.384.712-.566 1.668-.688 2.494-.312 3.408 1.541 9.387 6.047 10.173 13.159.145 1.303-.715 2.502-1.999 2.788l-5.268 1.176c-.238.054-.479.08-.717.08-.62 0-1.227-.179-1.76-.525-.735-.479-1.235-1.216-1.408-2.077l-2.388-11.904zm-7.945 3.087c1.381 0 2.5-1.119 2.5-2.5s-1.119-2.5-2.5-2.5-2.5 1.119-2.5 2.5 1.119 2.5 2.5 2.5zm1.816 1.48 1.753.629c.335.12.697.15 1.048.083l1.696-.321c.546-.101 1.066.254 1.168.796.103.543-.254 1.066-.796 1.169l-1.696.321c-.702.133-1.427.077-2.097-.166l-.942-.338.799 4.212 1.919.403c.793.167 1.403.789 1.554 1.586l.372 1.959c.103.543-.253 1.066-.796 1.169-.529.104-1.068-.25-1.168-.796l-.372-1.96-3.782-.796c-1.506-.379-2.266-1.759-2.488-2.927l-.439-2.31c-.271-1.433.644-2.815 2.04-3.083.862-.168 1.525.096 2.228.37zm19.428 14.085c-.372-.413-1.004-.443-1.412-.076-.366.329-.84.511-1.332.511-.889 0-1.793-.586-2.058-1.333-.141-.4-.519-.667-.942-.667s-.802.267-.942.667c-.265.747-1.169 1.333-2.058 1.333s-1.793-.586-2.057-1.333c-.141-.399-.519-.667-.943-.667s-.802.268-.943.667c-.264.747-1.167 1.333-2.057 1.333s-1.793-.586-2.057-1.333c-.141-.399-.519-.667-.943-.667s-.802.268-.943.667c-.264.747-1.167 1.333-2.057 1.333-.493 0-.965-.182-1.332-.511-.41-.367-1.043-.334-1.412.076s-.335 1.043.075 1.412c.734.659 1.682 1.022 2.668 1.022 1.127 0 2.222-.472 3-1.225.778.753 1.873 1.225 3 1.225s2.222-.472 3-1.225c.778.753 1.872 1.225 3 1.225s2.222-.472 3-1.226c.778.754 1.872 1.226 3 1.226.987 0 1.935-.363 2.668-1.022.411-.369.445-1.002.076-1.412z"/></svg>