<svg id="Layer_1" viewBox="0 0 24 24" xmlns="http://www.w3.org/2000/svg" data-name="Layer 1"><path d="m24 7v1h-24v-1c0-2.757 2.243-5 5-5h1v-1c0-.552.448-1 1-1s1 .448 1 1v1h8v-1c0-.552.448-1 1-1s1 .448 1 1v1h1c2.757 0 5 2.243 5 5zm0 12.5c0 .828-.672 1.5-1.5 1.5h-1.654l-1.911 2.421c-.195.357-.569.579-.975.579h-.025c-.69 0-1.165-.694-.915-1.337l.647-1.663h-1.83c-.732 0-1.405-.4-1.756-1.042l-.977-1.791c-.297-.52.078-1.167.677-1.167.207 0 .405.082.551.228l1.11.772h2.241l-.654-1.659c-.254-.644.221-1.341.913-1.341.407 0 .781.222.975.579l1.929 2.421h1.654c.828 0 1.5.672 1.5 1.5zm-9.045 3.401c-1.107-.25-2.072-.964-2.63-1.985l-.977-1.791c-.471-.824-.467-1.888.029-2.741.496-.854 1.417-1.384 2.404-1.384.438 0 .87.106 1.258.303.082-.353.229-.691.438-.999.556-.816 1.478-1.304 2.465-1.304 1.066 0 2.052.545 2.621 1.435l1.246 1.565h.69c.539 0 1.044.133 1.5.351v-6.351h-23.999v9c0 2.757 2.243 5 5 5h10.128c-.124-.354-.187-.725-.173-1.099z"/></svg>