<svg id="Layer_1" viewBox="0 0 24 24" xmlns="http://www.w3.org/2000/svg" data-name="Layer 1"><path d="m8.731 11 .618-1.963c.201-.62.774-1.037 1.426-1.037h2.45c.651 0 1.226.417 1.427 1.036l.579 1.964zm14.268 0c0 2.938-1.144 5.7-3.222 7.778l-3.991 3.689c-1.002.981-2.354 1.533-3.787 1.533s-2.783-.551-3.807-1.552l-3.943-3.643c-2.106-2.105-3.25-4.867-3.25-7.805s1.145-5.701 3.222-7.778c2.078-2.077 4.841-3.222 7.779-3.222s5.7 1.145 7.777 3.222c2.078 2.077 3.222 4.839 3.222 7.778zm-5.499 1.5c-.038-.345-.107-.829-.209-1.244l-.737-2.838c-.471-1.447-1.809-2.418-3.329-2.418h-2.45c-1.521 0-2.859.972-3.329 2.418l-.761 2.918c-.079.336-.148.819-.186 1.164-.061.557.173 1.41.55 1.83.131.146.286.262.45.362v.807c0 .552.448 1 1 1s1-.448 1-1v-.5h5.083v.5c0 .552.447 1 1 1s1-.448 1-1v-.807c.164-.101.32-.217.451-.363.376-.42.527-1.273.466-1.83z"/></svg>