<svg id="Layer_1" viewBox="0 0 24 24" xmlns="http://www.w3.org/2000/svg" data-name="Layer 1"><path d="m17.5 22.039 3.878 1.789c1.66.765 3.274-1.173 2.356-2.831l-4.341-7.84c-.424-.769-1.157-1.153-1.892-1.157-.735.003-1.468.387-1.892 1.156l-4.34 7.839c-.918 1.659.695 3.597 2.356 2.831l3.877-1.787zm-7.983-2.012 4.34-7.839c.752-1.363 2.111-2.182 3.636-2.187 1.54.008 2.898.828 3.65 2.192l2.678 4.836-2.322-12.894c-.422-2.396-2.492-4.134-4.924-4.134h-9.084c-2.435-.001-4.506 1.739-4.926 4.137l-2.449 14c-.255 1.458.145 2.945 1.097 4.079.952 1.133 2.347 1.783 3.828 1.783h4.5c-.687-1.21-.724-2.708-.024-3.974zm1.482-16.026c0-.552.448-1 1-1s1 .448 1 1v2c0 .552-.448 1-1 1s-1-.448-1-1zm0 7c0-.552.448-1 1-1s1 .448 1 1v2c0 .552-.448 1-1 1s-1-.448-1-1z"/></svg>