<svg id="Layer_1" viewBox="0 0 24 24" xmlns="http://www.w3.org/2000/svg" data-name="Layer 1"><path d="m14.184 13.875c-.428-.353-.912-.59-1.416-.729l4.507-4.507c.852-.852 2.233-.852 3.086 0s.852 2.234 0 3.086l-3.953 3.953zm-2.643-3.875h-8.382l-1.219 3.343c-.189.524-.777.786-1.282.597-.519-.189-.786-.763-.597-1.282l3.83-10.501c.471-1.327 1.692-2.157 3.109-2.157s2.639.831 3.112 2.166l2.368 6.492c.112.307.067.648-.12.916s-.493.427-.819.427zm-1.429-2-1.881-5.157c-.289-.812-1.015-.875-1.23-.875s-.942.062-1.228.867l-1.884 5.166h6.224zm12.198 4.478c-.153.234-.33.456-.535.661l-5.227 5.228-3.626-2.94c-.748-.621-1.922-.555-2.566.228-.643.771-.538 1.917.233 2.56l2.287 1.833c.71.569 1.124 1.43 1.124 2.341 0 .89.722 1.612 1.612 1.612h6.776c.89 0 1.612-.722 1.612-1.612v-4.388c0-4-1.69-5.522-1.69-5.522zm-14.226 5.353-.181.181c-.578.578-.903 1.362-.903 2.179v1.309c0 .276.224.5.5.5h1.309c.817 0 1.601-.325 2.179-.903l-1.65-1.323c-.634-.528-1.051-1.212-1.254-1.944z"/></svg>