<?xml version="1.0" encoding="UTF-8"?>
<svg xmlns="http://www.w3.org/2000/svg" id="Layer_1" data-name="Layer 1" viewBox="0 0 24 24">
  <path d="m18,12c-3.314,0-6,2.686-6,6s2.686,6,6,6,6-2.686,6-6-2.686-6-6-6Zm.619,8.414c-.378.378-.88.586-1.414.586h-.002c-.534,0-1.036-.209-1.413-.587l-1.305-1.305c-.39-.39-.39-1.024,0-1.414h0c.39-.39,1.024-.39,1.414,0l1.306,1.306,2.908-2.908c.39-.39,1.024-.39,1.414,0h0c.39.39.39,1.024,0,1.414l-2.908,2.908ZM20,.949H4C1.791.949,0,2.74,0,4.949v1h24v-1c0-2.209-1.791-4-4-4Zm-10,17.051c0-4.411,3.589-8,8-8,2.39,0,4.533,1.059,6,2.726v-4.778H0v7c0,2.209,1.791,4,4,4h6.062c-.037-.312-.062-.627-.062-.949Zm-4.5-3.051c-.828,0-1.5-.672-1.5-1.5s.672-1.5,1.5-1.5,1.5.672,1.5,1.5-.672,1.5-1.5,1.5Z"/>
</svg>
