<svg id="Layer_1" viewBox="0 0 24 24" xmlns="http://www.w3.org/2000/svg" data-name="Layer 1"><path d="m19 11c-1.335 0-2.591-.52-3.536-1.465-1.949-1.95-1.949-5.123 0-7.072l1.789-1.756c.481-.472 1.114-.707 1.747-.707.659 0 1.265.236 1.747.708l1.781 1.747c1.958 1.958 1.958 5.13.008 7.08-.944.945-2.2 1.465-3.535 1.465zm4.95-.051c-1.322 1.322-3.08 2.051-4.95 2.051s-3.628-.729-4.95-2.051c-2.431-2.432-2.69-6.221-.788-8.949h-8.262c-2.757 0-5 2.243-5 5v8c0 2.757 2.243 5 5 5h6v2h-4c-.552 0-1 .448-1 1s.448 1 1 1h10c.552 0 1-.448 1-1s-.448-1-1-1h-4v-2h6c2.757 0 5-2.243 5-5v-4.106c-.017.018-.032.037-.05.055z"/></svg>