<svg id="Layer_1" viewBox="0 0 24 24" xmlns="http://www.w3.org/2000/svg" data-name="Layer 1"><path d="m22.957 5h-1.346l-1.066-1.535c-.194-.29-.52-.465-.868-.465h-1.22c-.216 0-.423-.103-.552-.276l-1.048-1.307c-.197-.263-.506-.417-.835-.417h-1.565c0-.576-.358-1-.935-1h-.522c-.277 0-.542.11-.738.306l-1.565 1.565c-.196.196-.306.461-.306.738v.522l-.977.717c-.132.099-.294.153-.458.153h-.007l-.708-.007-1.138-.553c-.45-.347-1.092-.271-1.448.169l-.77.95c-.184.227-.263.519-.223.803-.207-.122-.456-.174-.704-.131l-2.303.384c-.984.164-1.698 1.007-1.698 2.005 0 .894.573 1.674 1.426 1.94l.562.176 2.494 1.475 2.519 3.514c-.25.13-.444.359-.524.645l-1.256 3.227-.926.959c-.189.194-.293.455-.293.725v.588c0 .466.309.875.757 1.003l2.958.795c.669.192 1.451.332 2.147.332.623-.006 1.167.034 1.757.234l2.138.713c.21.083.629.046.852.054.449 0 .848-.287.989-.713l.902-2.287h1.194l2.155.49c.908.25 1.867-.068 2.448-.805l.262-.333c.719-.915.649-2.233-.164-3.065l-.482-.494v-.219l.671-.746c.238-.265.324-.634.228-.978l-.51-1.979c-.138-.438-.85-.823-1.302-.871l.39-.522h.884c.341 0 .661-.167.857-.448.195-.28.24-.638.121-.959l-.405-1.089 1.099-1.979c.136-.249.088-.686.096-.959 0-.576-.467-1.043-1.043-1.043z"/></svg>