<svg id="Layer_1" viewBox="0 0 24 24" xmlns="http://www.w3.org/2000/svg" data-name="Layer 1"><path d="m11 2.551c0-1.38 1.119-2.5 2.5-2.5s2.5 1.119 2.5 2.5-1.119 2.5-2.5 2.5-2.5-1.119-2.5-2.5zm13-.051v19c0 1.378-1.121 2.5-2.5 2.5h-1c-1.379 0-2.5-1.122-2.5-2.5v-5.5c0-.552.447-1 1-1s1-.449 1-1-.448-1-1-1h-.867c-1.048 0-2.034-.559-2.572-1.458l-1.791-2.987-2.849 6.946 1.683 1.064c.875.554 1.396 1.501 1.396 2.536v3.898c0 .552-.447 1-1 1s-1-.448-1-1v-3.898c0-.345-.174-.661-.466-.846l-3.65-2.309c-1.232-.779-1.726-2.324-1.172-3.674l1.753-4.273h-.718c-.381 0-.724.212-.895.553l-1.447 2.895c-.247.494-.848.694-1.342.447s-.694-.848-.447-1.342l1.447-2.895c.512-1.023 1.54-1.658 2.684-1.658h5.123c1.049 0 2.035.559 2.573 1.458l1.833 3.057c.157.261.427.437.725.477v-8.491c0-1.378 1.121-2.5 2.5-2.5h1c1.379 0 2.5 1.122 2.5 2.5zm-23 1.5h2v1.278c0 .642.679.963 1.076.509l2.459-2.278c.246-.281.246-.737 0-1.019l-2.459-2.278c-.397-.454-1.076-.132-1.076.509v1.278h-2c-.553 0-1 .448-1 1s.447 1 1 1zm6.409 17.984c-.707 1.147-1.919 1.97-3.266 2.014-2.275.074-4.143-1.748-4.143-4.007 0-.761.493-1.987.987-2.53.292-.321.615-.299.782.102.139.335.279.923.731.923 1.068 0 .814-1.511 1.177-2.847.18-.663.765-.825 1.278-.369 1.75 1.558 4.179 3.912 2.454 6.712zm-2.384-1.645-.584-.521c-.234-.234-.613-.234-.847 0l-.585.521c-.573.573-.675 1.512-.148 2.127.609.712 1.704.712 2.313 0 .527-.615.424-1.554-.148-2.127z"/></svg>