<svg id="Layer_1" viewBox="0 0 24 24" xmlns="http://www.w3.org/2000/svg" data-name="Layer 1"><path d="m18 12c-3.314 0-6 2.686-6 6s2.686 6 6 6 6-2.686 6-6-2.686-6-6-6zm-1 3c0-.553.448-1 1-1s1 .447 1 1v2c0 .553-.448 1-1 1s-1-.447-1-1zm1 7c-.828 0-1.5-.672-1.5-1.5s.672-1.5 1.5-1.5 1.5.672 1.5 1.5-.672 1.5-1.5 1.5zm0-12v-5.5c0-2.481-2.018-4.5-4.5-4.5h-9c-2.482 0-4.5 2.019-4.5 4.5v18.5c0 .371.205.711.533.885.328.172.725.15 1.031-.06l2.105-1.439 2.106 1.439c.17.116.367.175.564.175s.395-.059.565-.175l2.1-1.439 2.1 1.439c.341.232.789.232 1.13 0l.167-.115c-1.481-1.452-2.402-3.473-2.402-5.711 0-4.418 3.582-8 8-8zm-9.75 3h-.25v1c0 .552-.447 1-1 1s-1-.448-1-1v-1h-.484c-1.116 0-1.962-.774-2.381-1.499-.277-.478-.113-1.09.364-1.366.477-.277 1.09-.114 1.366.364.166.286.445.501.65.501h2.734c.413 0 .75-.336.75-.75 0-.27-.193-.498-.459-.542l-3.375-.438c-1.27-.211-2.166-1.269-2.166-2.52 0-1.517 1.233-2.75 2.75-2.75h.25v-1c0-.552.447-1 1-1s1 .448 1 1v1h.484c1.116 0 1.962.774 2.381 1.499.277.478.113 1.09-.364 1.366s-1.09.113-1.366-.364c-.166-.286-.445-.501-.65-.501h-2.734c-.413 0-.75.337-.75.75 0 .27.193.497.459.542l3.375.438c1.27.211 2.166 1.269 2.166 2.52 0 1.517-1.233 2.75-2.75 2.75z"/></svg>