<svg id="Layer_1" viewBox="0 0 24 24" xmlns="http://www.w3.org/2000/svg" data-name="Layer 1"><path d="m21.383 18h-8.766l1.043-3h6.679l1.043 3zm1.617 4h-.226l-.696-2h-10.157l-.696 2h-.226c-.552 0-1 .448-1 1s.448 1 1 1h12c.552 0 1-.448 1-1s-.448-1-1-1zm-3.356-9-.979-2.816c-.246-.708-.915-1.184-1.665-1.184s-1.418.476-1.664 1.183l-.98 2.817zm-8.937-11-8.707 8.707v-2.828l5.879-5.879h-5.879v-1c0-.552-.448-1-1-1s-1 .448-1 1v18c0 .552.448 1 1 1s1-.448 1-1v-6h3.086l11-11zm1.532 11 1.208-3.474c.524-1.511 1.953-2.526 3.553-2.526.652 0 1.27.176 1.816.477l3.184-3.184v2.828l-1.754 1.754c.12.206.228.421.308.652 0 0 3.446 9.571 3.446 9.473v-18c0-.552-.448-1-1-1s-1 .448-1 1v1h-3.086l-11 11z"/></svg>