<svg id="Layer_1" viewBox="0 0 24 24" xmlns="http://www.w3.org/2000/svg" data-name="Layer 1"><path d="m23 17h-4.245l-4.691-2.556 5.864-3.216c.64-.352 1.038-1.014 1.038-1.729s-.398-1.377-1.039-1.729l-5.847-3.207 4.677-2.565h4.244c.553 0 1-.447 1-1s-.447-1-1-1h-22.001c-.553.002-1 .449-1 1.002s.447 1 1 1h4.245l4.691 2.556-5.864 3.216c-.64.352-1.038 1.014-1.038 1.729s.398 1.377 1.039 1.729l5.847 3.207-4.677 2.565h-4.243c-.553 0-1 .447-1 1s.447 1 1 1h22c.553 0 1-.447 1-1s-.447-1-1-1zm-13.597-15h5.194l-2.597 1.424zm-4.369 7.525 6.989-3.833 6.943 3.782-6.989 3.833zm6.966 6.05 2.597 1.424h-5.194zm-4.058 5.424c.034.162.058.328.058.5 0 1.381-1.119 2.5-2.5 2.5s-2.5-1.119-2.5-2.5c0-.172.024-.338.058-.5zm13 0c.034.162.058.328.058.5 0 1.381-1.119 2.5-2.5 2.5s-2.5-1.119-2.5-2.5c0-.172.024-.338.058-.5h4.885z"/></svg>