<svg id="Layer_1" viewBox="0 0 24 24" xmlns="http://www.w3.org/2000/svg" data-name="Layer 1"><path d="m20.167 18.753c.524-.791.833-1.736.833-2.753 0-2.757-2.243-5-5-5s-5 2.243-5 5 2.243 5 5 5c1.017 0 1.962-.309 2.753-.833l3.54 3.54c.195.195.451.293.707.293s.512-.098.707-.293c.391-.391.391-1.023 0-1.414zm-12.667-6.753c0-1.04.187-2.046.48-3h13.556c.299.948.464 1.955.464 3 0 .552.447 1 1 1s1-.448 1-1c0-6.617-5.383-12-12-12-.016 0-.031.002-.047.002-.004 0-.008 0-.013 0-6.589.034-11.94 5.402-11.94 11.998s5.383 12 12 12c.414 0 .786-.256.934-.643s.042-.825-.267-1.102c-.052-.046-5.167-4.691-5.167-10.255zm-1.605 3h-3.427c-.299-.948-.468-1.954-.468-3s.169-2.052.468-3h3.427c-.246.955-.395 1.959-.395 3s.15 2.045.395 3zm6.105-12.586c.814.864 2.207 2.506 3.229 4.586h-6.457c1.024-2.082 2.415-3.723 3.228-4.586zm8.645 4.586h-3.221c-.79-1.88-1.88-3.478-2.821-4.646 2.573.695 4.733 2.391 6.042 4.646zm-11.245-4.657c-.942 1.167-2.026 2.776-2.816 4.657h-3.234c1.31-2.258 3.473-3.963 6.05-4.657zm-6.05 14.657h3.234c.79 1.881 1.875 3.49 2.816 4.657-2.577-.694-4.74-2.399-6.05-4.657z"/></svg>