<svg id="Layer_1" viewBox="0 0 24 24" xmlns="http://www.w3.org/2000/svg" data-name="Layer 1"><path d="m18.501 13.494c-.224.01-.453-.102-.648-.206-1.139-.569-4.853-2.704-4.853-6.272v-3.186c0-1.295.826-2.44 2.056-2.848l2.5-.829c.617-.204 1.271-.204 1.888 0l2.501.83c1.229.408 2.056 1.552 2.056 2.848v3.186c0 4.032-3.764 5.858-4.917 6.322-.178.074-.388.165-.582.156zm2.999 5.506c1.381 0 2.5 1.119 2.5 2.5 0 1.381-1.119 2.5-2.5 2.5h-19c-1.381 0-2.5-1.119-2.5-2.5 0-1.381 1.119-2.5 2.5-2.5h5.651c.589 0 1.147.259 1.527.708l.247.292h4.149l.247-.292c.38-.449.938-.708 1.527-.708zm-1.671-3.807c-.253.106-.759.292-1.326.301h-.029c-.736 0-1.312-.308-1.564-.443-1.349-.674-5.909-3.32-5.909-8.036v-1.016h-4c-2.757 0-5 2.243-5 5v6.11c.323-.067.656-.11 1-.11h5.151c.983 0 1.92.359 2.646 1h2.404c.726-.641 1.664-1 2.646-1h5.151c.344 0 .677.043 1 .11v-3.075c-.886.595-1.701.97-2.171 1.158z"/></svg>