<svg id="Layer_1" viewBox="0 0 24 24" xmlns="http://www.w3.org/2000/svg" data-name="Layer 1"><path d="m24 17h-1v7h-2v-7h-1v7h-2v-7h-1v-8.5c0-1.381 1.119-2.5 2.5-2.5h2c1.381 0 2.5 1.119 2.5 2.5zm-3.5-12c1.381 0 2.5-1.119 2.5-2.5s-1.119-2.5-2.5-2.5-2.5 1.119-2.5 2.5 1.119 2.5 2.5 2.5zm-7.5 1h-2c-1.381 0-2.5 1.119-2.5 2.5v8.5h1v7h2v-7h1v7h2v-7h1v-8.5c0-1.381-1.119-2.5-2.5-2.5zm-1-1c1.381 0 2.5-1.119 2.5-2.5s-1.119-2.5-2.5-2.5-2.5 1.119-2.5 2.5 1.119 2.5 2.5 2.5zm-7.5 1h-2c-1.381 0-2.5 1.119-2.5 2.5v8.5h1v7h2v-7h1v7h2v-7h1v-8.5c0-1.381-1.119-2.5-2.5-2.5zm-1-1c1.381 0 2.5-1.119 2.5-2.5s-1.119-2.5-2.5-2.5-2.5 1.119-2.5 2.5 1.119 2.5 2.5 2.5z"/></svg>