<svg id="Layer_1" viewBox="0 0 24 24" xmlns="http://www.w3.org/2000/svg" data-name="Layer 1"><path d="m13.916 15c.506 0 .795.612.447.98-.592.628-1.431 1.02-2.362 1.02s-1.77-.392-2.362-1.02c-.347-.368-.059-.98.447-.98h3.831zm7.935-6.726c-.825-4.761-4.947-8.274-9.851-8.274-6.904 0-8.876 4.674-10.181 7.767-.44 1.042-.895 2.12-1.322 2.369-.371.216-.562.645-.477 1.064.086.42.43.739.856.792.22.028 3.521.402 7.257-1.104-.084.187-.133.394-.133.612 0 .828.672 1.5 1.5 1.5s1.5-.672 1.5-1.5c0-.705-.488-1.292-1.143-1.452 1.728-.967 3.462-2.375 4.956-4.466.209-.293.838-1.585 1.128-2.541 2.18 1.232 3.732 3.455 4.013 6.11.046.441.379.799.815.878.713.13 1.23.749 1.23 1.472 0 .827-.673 1.5-1.5 1.5-.557-.125-1.172.034-1.369.624-.916 2.597-3.999 5.376-7.128 5.376h-.003c-2.899 0-5.598-2.283-6.766-4.539-.254-.49-.856-.681-1.348-.428-.49.254-.682.857-.428 1.348.881 1.7 2.5 3.481 4.542 4.572v3.047c0 .553.448 1 1 1h6c.553 0 1-.447 1-1v-3.046c2.123-1.127 3.841-3.019 4.732-4.962 1.821-.12 3.268-1.641 3.268-3.492 0-1.434-.869-2.692-2.149-3.226zm-7.351 4.726c-.828 0-1.5-.672-1.5-1.5s.672-1.5 1.5-1.5 1.5.672 1.5 1.5-.672 1.5-1.5 1.5z"/></svg>