<?xml version="1.0" encoding="UTF-8"?>
<svg xmlns="http://www.w3.org/2000/svg" id="Layer_1" data-name="Layer 1" viewBox="0 0 24 24">
  <path d="m1.5,4c0-1.105.895-2,2-2s2,.895,2,2-.895,2-2,2-2-.895-2-2Zm19,2c1.105,0,2-.895,2-2s-.895-2-2-2-2,.895-2,2,.895,2,2,2Zm-8.5-2c1.105,0,2-.895,2-2s-.895-2-2-2-2,.895-2,2,.895,2,2,2Zm7.829,14.753l-5.829-2.292v-5.355c0-.996-.681-1.92-1.664-2.08-1.253-.204-2.336.758-2.336,1.973v9.817c-1.076-.886-2.111-1.752-2.145-1.784-.922-.861-2.373-.813-3.235.109-.863.923-.819,2.372.098,3.23l1.821,1.628h16.462v-.593c0-2.055-1.258-3.901-3.171-4.653Zm-7.829-13.753c-1.688,0-3.104.979-3.482,2.296-.103.36.248.704.69.704h5.584c.442,0,.793-.344.69-.704-.378-1.317-1.794-2.296-3.482-2.296ZM3.5,7C1.812,7,.396,7.979.018,9.296c-.103.36.248.704.69.704h5.584c.442,0,.793-.344.69-.704-.378-1.317-1.794-2.296-3.482-2.296Zm17,0c-1.688,0-3.104.979-3.482,2.296-.103.36.248.704.69.704h5.584c.442,0,.793-.344.69-.704-.378-1.317-1.794-2.296-3.482-2.296Z"/>
</svg>
