<svg id="Layer_1" viewBox="0 0 24 24" xmlns="http://www.w3.org/2000/svg" data-name="Layer 1"><path d="m23 10c.553 0 1-.447 1-1v-1c0-2.757-2.243-5-5-5h-13v2c0 .553-.447 1-1 1s-1-.447-1-1v-1.899c-2.279.465-4 2.485-4 4.899v8c0 2.414 1.721 4.434 4 4.899v-1.899c0-.553.447-1 1-1s1 .447 1 1v2h13c2.757 0 5-2.243 5-5v-1c0-.553-.447-1-1-1-1.103 0-2-.897-2-2s.897-2 2-2zm-17 5c0 .553-.447 1-1 1s-1-.447-1-1v-1c0-.553.447-1 1-1s1 .447 1 1zm0-5c0 .553-.447 1-1 1s-1-.447-1-1v-1c0-.553.447-1 1-1s1 .447 1 1zm12.968 3.158c-.097.707-.45 1.259-.968 1.567v.275c0 .553-.447 1-1 1s-1-.447-1-1h-4c0 .553-.447 1-1 1s-1-.447-1-1v-.278c-.595-.347-1-.985-1-1.722v-2.5c0-1.378 1.121-2.5 2.5-2.5h3.682c1.201 0 2.283.714 2.757 1.818l.88 2.053c.12.281.182.578.182.884 0 .085-.023.349-.032.403zm-2.868-2.552.583 1.394h-5.684v-1.5c0-.276.225-.5.5-.5h3.682c.4 0 .761.238.919.606z"/></svg>