<svg id="Layer_1" viewBox="0 0 24 24" xmlns="http://www.w3.org/2000/svg" data-name="Layer 1"><path d="m20.924 17.021c.019-.148.049-.285.064-.437.066-.663-.152-1.326-.597-1.817-.44-.486-1.067-.765-1.722-.765l-9.337-.002c-.655 0-1.282.278-1.722.765-.445.491-.663 1.154-.597 1.818.209 2.094.763 3.845 1.647 5.205.901 1.385 2.453 2.212 4.151 2.212h2.378c1.116 0 2.164-.362 3.011-1h2.4c1.843 0 3.4-1.505 3.4-3.286 0-1.583-1.175-2.588-3.076-2.693zm-.324 3.979h-.825c.309-.605.561-1.273.76-2h.065c.929 0 1.4.24 1.4.714 0 .686-.654 1.286-1.4 1.286zm-10.6-21c-5.523 0-10 4.477-10 10 0 3.85 2.179 7.187 5.368 8.858-.149-.662-.273-1.347-.346-2.077-.122-1.227.281-2.45 1.105-3.36.817-.902 1.985-1.421 3.204-1.421l9.338.002c.373 0 .735.064 1.09.157.153-.696.24-1.417.24-2.159.001-5.523-4.476-10-9.999-10zm1 10c0 .553-.448 1-1 1h-3c-.552 0-1-.447-1-1s.448-1 1-1h2v-3c0-.553.448-1 1-1s1 .447 1 1z"/></svg>