<svg id="Layer_1" viewBox="0 0 24 24" xmlns="http://www.w3.org/2000/svg" data-name="Layer 1"><path d="m7 4.5c0-1.381 1.119-2.5 2.5-2.5s2.5 1.119 2.5 2.5-1.119 2.5-2.5 2.5-2.5-1.119-2.5-2.5zm8 8.5c0 .552-.447 1-1 1h-.993c-.635 0-1.238-.306-1.613-.818l-1.317-1.799-1.625 5.016 2.285 1.3c.78.444 1.264 1.277 1.264 2.173v3.128c0 .552-.448 1-1 1s-1-.448-1-1v-3.128c0-.179-.097-.346-.253-.435l-4.333-2.466c-1.272-.803-1.766-2.348-1.212-3.698l1.143-3.355c.485-1.188 1.575-1.918 2.797-1.918h.359c.88 0 1.771.393 2.324 1.024l2.183 2.976h.993c.553 0 1 .448 1 1zm9-10.5v1.737c0 1.231-.882 2.268-2.097 2.467l-3.561.583c-.236.347-.315.563-.335.656.267.201 1.187.393 1.696.499 1.391.29 3.296.686 3.296 2.399 0 2.495-3.771 3.16-6 3.16-.553 0-1-.448-1-1s.447-1 1-1c1.84 0 3.854-.566 3.992-1.103-.266-.201-1.187-.393-1.696-.499-1.391-.29-3.296-.686-3.296-2.399 0-.522.211-1.092.616-1.718.002-.017 0-.033.002-.05l.677-4.136s0 0 0 0c.199-1.214 1.236-2.096 2.467-2.096h1.737c1.379 0 2.5 1.122 2.5 2.5zm-20.056 15.847-.283.653h-2.661c-.552 0-1 .448-1 1s.448 1 1 1h2.681c.8 0 1.523-.477 1.838-1.212l.157-.366-1.252-.713c-.173-.109-.324-.238-.48-.362z"/></svg>