<svg id="Layer_1" viewBox="0 0 24 24" xmlns="http://www.w3.org/2000/svg" data-name="Layer 1"><path d="m22.5 12c-.827 0-1.5.673-1.5 1.5v3c0 .276.224.5.5.5s.5-.224.5-.5v-1h1v1c0 .276.224.5.5.5s.5-.224.5-.5v-3c0-.827-.673-1.5-1.5-1.5zm-.5 2.5v-1c0-.276.225-.5.5-.5s.5.224.5.5v1zm-7-1.5v1h.808c.276 0 .5.224.5.5s-.224.5-.5.5h-.808v1h.808c.276 0 .5.224.5.5s-.224.5-.5.5h-.808c-.552 0-1-.449-1-1v-3c0-.551.448-1 1-1h.808c.276 0 .5.224.5.5s-.224.5-.5.5zm3 3.5v-3.5h-.5c-.276 0-.5-.224-.5-.5s.224-.5.5-.5h2c.276 0 .5.224.5.5s-.224.5-.5.5h-.5v3.5c0 .276-.224.5-.5.5s-.5-.224-.5-.5zm-8-3.5v3c0 .551.448 1 1 1h.5c.827 0 1.5-.673 1.5-1.5 0-.384-.145-.734-.383-1 .238-.266.383-.616.383-1 0-.827-.673-1.5-1.5-1.5h-.5c-.552 0-1 .449-1 1zm1 0h.5c.275 0 .5.224.5.5s-.225.5-.5.5h-.5zm0 2h.5c.275 0 .5.224.5.5s-.225.5-.5.5h-.5zm-10.7-6.005c.186.321.522.501.868.501.356.037.957-.421 1.261-.573.553.581 1.267 1 2.071 1.196v.881c0 .552.447 1 1 1s1-.448 1-1v-.881c.804-.196 1.518-.615 2.071-1.196.307.153.902.608 1.261.573.346 0 .683-.18.868-.501.275-.479.11-1.09-.368-1.366l-.771-.444c.111-.379.189-.771.189-1.185s-.078-.806-.189-1.185l.771-.444c.479-.275.644-.887.368-1.366s-.887-.644-1.366-.368l-.763.439c-.553-.581-1.267-1-2.071-1.196v-.881c0-.551-.447-.999-1-.999s-1 .448-1 1v.881c-.804.196-1.518.615-2.071 1.196l-.763-.439c-.479-.276-1.09-.111-1.366.368-.275.479-.11 1.09.368 1.366l.771.444c-.111.379-.189.771-.189 1.185s.078.806.189 1.185l-.771.444c-.479.275-.644.887-.368 1.366zm5.2-4.495c.827 0 1.5.673 1.5 1.5s-.673 1.5-1.5 1.5-1.5-.673-1.5-1.5.673-1.5 1.5-1.5zm18.5 17c0 1.381-1.119 2.5-2.5 2.5h-19c-1.381 0-2.5-1.119-2.5-2.5s1.119-2.5 2.5-2.5h5.651c.589 0 1.147.259 1.527.708l.247.292h4.149l.247-.292c.38-.449.938-.708 1.527-.708h5.652c1.381 0 2.5 1.119 2.5 2.5zm-2.101-11.5h-9.478c.682-1.178 1.079-2.541 1.079-4h3.5c2.414 0 4.434 1.721 4.899 4zm-13.899 3.596v2.404c0 .353.073.688.185 1.003-.011 0-.022-.003-.034-.003h-5.151c-.344 0-.677.043-1 .11v-3.924c1.058.517 2.243.815 3.5.815.874 0 1.713-.145 2.5-.404z"/></svg>