<svg id="Layer_1" viewBox="0 0 24 24" xmlns="http://www.w3.org/2000/svg" data-name="Layer 1"><path d="m20 19.877c-.22 0-.441-.072-.625-.22-1.086-.871-2.662-.871-3.748 0-.431.343-1.061.275-1.406-.154-.346-.431-.277-1.061.154-1.406 1.812-1.453 4.44-1.453 6.252 0 .431.346.5.976.154 1.406-.197.246-.488.374-.78.374zm3.726-2.999c.38-.4.363-1.033-.038-1.413-3.47-3.289-8.906-3.289-12.376 0-.401.38-.417 1.013-.038 1.413.38.402 1.013.419 1.414.038 2.698-2.557 6.926-2.557 9.624 0 .4.38 1.034.364 1.414-.038zm-7.726 5.622c0 .828.672 1.5 1.5 1.5s1.5-.672 1.5-1.5-.672-1.5-1.5-1.5-1.5.672-1.5 1.5zm0-18.5v3.685c-.936-.45-1.961-.684-3-.685h-8c-1.039.001-2.064.235-3 .685v-3.685c0-2.209 1.791-4 4-4h6c2.209 0 4 1.791 4 4zm-8-.5c0-.553-.448-1-1-1s-1 .447-1 1v1c0 .553.448 1 1 1s1-.447 1-1zm4 0c0-.553-.448-1-1-1s-1 .447-1 1v1c0 .553.448 1 1 1s1-.447 1-1zm2.091 18.232c-.545-.172-.937-.578-1.43-.976 0 0-2.288-1.92-2.84-2.504-.549-.579-.841-1.34-.82-2.142.021-.801.354-1.546.936-2.098 1.988-1.885 4.505-2.875 7.055-2.992-.912-1.219-2.353-2.019-3.992-2.021h-8c-2.76.003-4.997 2.24-5 5v1c0 4.971 4.029 9 9 9 1.851 0 3.571-.56 5.002-1.519.001-.258.035-.508.089-.75z"/></svg>