<svg id="Layer_1" viewBox="0 0 24 24" xmlns="http://www.w3.org/2000/svg" data-name="Layer 1"><path d="m23.921 5.352c-.332 1.8-1.804 3.253-3.606 3.575s-3.429-.446-4.4-1.735c-1.386.635-2.621.773-3.916.799v.009h-6v-2.5c0-1.381 1.119-2.5 2.5-2.5h1c1.381 0 2.5 1.119 2.5 2.5v.491c1.111-.024 2.046-.138 3.088-.617-.171-.867-.121-1.814.403-2.817.775-1.482 2.274-2.533 3.945-2.557 2.791-.039 5.017 2.475 4.486 5.352zm-9.313 4.648h-11.216c-2.058 1.649-3.392 4.164-3.392 7-.001 1.597.425 3.171 1.188 4.542.861 1.546 2.539 2.458 4.309 2.458h7.006c1.77 0 3.448-.912 4.309-2.458.763-1.371 1.189-2.944 1.188-4.542 0-2.836-1.334-5.351-3.392-7z"/></svg>