<svg id="Layer_1" viewBox="0 0 24 24" xmlns="http://www.w3.org/2000/svg" data-name="Layer 1"><path d="m19 8c0-.552.448-1 1-1h1c.552 0 1 .448 1 1s-.448 1-1 1h-1c-.552 0-1-.448-1-1zm4 3h-1c-.552 0-1 .448-1 1s.448 1 1 1h1c.552 0 1-.448 1-1s-.448-1-1-1zm-1 5c0-.552-.448-1-1-1h-1c-.552 0-1 .448-1 1s.448 1 1 1h1c.552 0 1-.448 1-1zm0-11h1c.552 0 1-.448 1-1s-.448-1-1-1h-1c-.552 0-1 .448-1 1s.448 1 1 1zm-4 6h-1c-.552 0-1 .448-1 1s.448 1 1 1h1c.552 0 1-.448 1-1s-.448-1-1-1zm-3 6v4c0 .552-.448 1-1 1h-9c-2.757 0-5-2.243-5-5v-10c0-2.757 2.243-5 5-5h9c.552 0 1 .448 1 1v2h-2c-.552 0-1 .448-1 1s.448 1 1 1h3c.552 0 1 .448 1 1s-.448 1-1 1h-1v4h-2c-.552 0-1 .448-1 1s.448 1 1 1h3c.552 0 1 .448 1 1s-.448 1-1 1zm-10.5-7.5c0 1.381 1.119 2.5 2.5 2.5s2.5-1.119 2.5-2.5-1.119-2.5-2.5-2.5-2.5 1.119-2.5 2.5zm6.437 6.149c-.594-1.584-2.176-2.649-3.937-2.649s-3.343 1.064-3.937 2.649c-.194.518.068 1.094.585 1.288.518.195 1.094-.068 1.288-.585.303-.808 1.132-1.351 2.063-1.351s1.761.543 2.063 1.351c.193.522.784.778 1.288.585.517-.194.779-.77.585-1.288zm12.063 3.351h-1c-.552 0-1 .448-1 1s.448 1 1 1h1c.552 0 1-.448 1-1s-.448-1-1-1zm-5 0h-1c-.552 0-1 .448-1 1s.448 1 1 1h1c.552 0 1-.448 1-1s-.448-1-1-1zm-1-14h1c.552 0 1-.448 1-1s-.448-1-1-1h-1c-.552 0-1 .448-1 1s.448 1 1 1z"/></svg>