<svg id="Layer_1" viewBox="0 0 24 24" xmlns="http://www.w3.org/2000/svg" data-name="Layer 1"><path d="m8.337 8.659 1.663 4.02v6.32c0 2.757-2.243 5-5 5s-5-2.243-5-5v-13c0-.552.448-1 1-1s1 .448 1 1v13c0 1.654 1.346 3 3 3s3-1.346 3-3v-11.434c.084.367.19.733.337 1.093zm-3.337 11.34c.552 0 1-.448 1-1v-16c0-.551.449-1 1-1s1 .449 1 1v1.439c.257-1.115.783-2.155 1.536-3.024-.531-.847-1.466-1.415-2.536-1.415-1.654 0-3 1.346-3 3v16c0 .552.448 1 1 1zm18.926-4.877-4.484-11.012c-1.042-2.552-3.967-3.783-6.52-2.739-2.552 1.042-3.78 3.967-2.737 6.523l5.889 14.238c.578 1.506 2.431 2.283 3.912 1.644 1.531-.625 2.268-2.38 1.642-3.914l-5.857-14.243c-.209-.51-.793-.755-1.305-.544-.511.21-.754.794-.544 1.305l5.856 14.241c.208.511-.037 1.096-.547 1.304-.496.214-1.112-.045-1.306-.552l-5.889-14.239c-.625-1.531.112-3.286 1.643-3.912 1.533-.624 3.287.112 3.911 1.642l4.484 11.011c.208.511.792.757 1.303.549.512-.208.757-.792.549-1.303z"/></svg>