<?xml version="1.0" encoding="UTF-8"?>
<svg xmlns="http://www.w3.org/2000/svg" id="Layer_1" data-name="Layer 1" viewBox="0 0 24 24">
  <path d="m23.949,18.293l-1.284-9c-.35-2.447-2.478-4.293-4.95-4.293h-2.566c.219-.456.351-.961.351-1.5,0-1.93-1.57-3.5-3.5-3.5s-3.5,1.57-3.5,3.5c0,.539.133,1.044.351,1.5h-2.491c-2.493,0-4.572,1.789-4.944,4.254L.057,18.254c-.218,1.441.202,2.901,1.153,4.007.951,1.105,2.333,1.739,3.791,1.739h13.998c1.45,0,2.827-.628,3.777-1.724.95-1.095,1.377-2.547,1.173-3.983ZM12,2c.827,0,1.5.673,1.5,1.5s-.673,1.5-1.5,1.5-1.5-.673-1.5-1.5.673-1.5,1.5-1.5Zm1,18v1c0,.553-.448,1-1,1s-1-.447-1-1v-1h-.268c-1.067,0-2.063-.574-2.598-1.499-.276-.479-.113-1.09.365-1.366.477-.278,1.089-.114,1.366.364.179.31.511.501.867.501h2.268c.552,0,1-.448,1-1,0-.379-.271-.698-.645-.761l-3.04-.506c-1.342-.224-2.315-1.374-2.315-2.733,0-1.654,1.346-3,3-3v-1c0-.553.448-1,1-1s1,.447,1,1v1h.268c1.067,0,2.063.574,2.598,1.499.277.479.113,1.09-.364,1.366-.48.278-1.092.112-1.366-.364-.179-.31-.511-.501-.867-.501h-2.268c-.551,0-1,.448-1,1,0,.379.271.698.644.761l3.041.506c1.342.224,2.315,1.374,2.315,2.733,0,1.654-1.346,3-3,3Z"/>
</svg>
