<svg id="Layer_1" viewBox="0 0 24 24" xmlns="http://www.w3.org/2000/svg" data-name="Layer 1"><path d="m22.892 15.564c-1.212-1.212-1.892-2.855-1.892-4.568v-5.919c0-.929-.601-1.793-1.503-2.015-1.343-.331-2.497.718-2.497 1.986v2.805s-7.439-7.414-7.439-7.414c-.586-.586-1.535-.586-2.121 0-.586.585-.586 1.536 0 2.121l4.123 4.014c.24.234.243.62.006.857l-.011.011c-.243.243-.632.245-.875.007-1.468-1.441-6.123-6.01-6.123-6.01-.586-.586-1.535-.586-2.121 0-.586.585-.586 1.536 0 2.121l6.113 6c.247.242.249.639.004.884-.241.241-.631.243-.875.005l-5.12-5.01c-.586-.586-1.535-.586-2.121 0-.586.585-.586 1.536 0 2.121l5.121 4.999c.245.239.247.632.005.874l-.011.011c-.244.244-.634.249-.881.012-.731-.701-2.113-2.018-2.113-2.018-.585-.586-1.535-.586-2.121 0s-.586 1.535 0 2.121l5.929 5.904c1.451 1.442 3.269 2.277 5.167 2.482 1.088.095 2.055.606 2.871 1.303.543.463 1.214.75 1.928.75h5.419c1.241 0 2.246-1.006 2.246-2.246v-3.839c0-.796-.316-1.559-.879-2.121l-.229-.229zm-13.392.436c-.828 0-1.5-.672-1.5-1.5s.672-1.5 1.5-1.5 1.5.672 1.5 1.5-.672 1.5-1.5 1.5zm3.5-3.5c0-.828.672-1.5 1.5-1.5s1.5.672 1.5 1.5-.672 1.5-1.5 1.5-1.5-.672-1.5-1.5zm4.5 6.5c-.828 0-1.5-.672-1.5-1.5s.672-1.5 1.5-1.5 1.5.672 1.5 1.5-.672 1.5-1.5 1.5zm4 4c-.828 0-1.5-.672-1.5-1.5s.672-1.5 1.5-1.5 1.5.672 1.5 1.5-.672 1.5-1.5 1.5z"/></svg>