<svg id="Layer_1" viewBox="0 0 24 24" xmlns="http://www.w3.org/2000/svg" data-name="Layer 1"><path d="m17 2.5c0-1.381 1.119-2.5 2.5-2.5s2.5 1.119 2.5 2.5-1.119 2.5-2.5 2.5-2.5-1.119-2.5-2.5zm-5 3.5c0 3.314-2.686 6-6 6s-6-2.686-6-6 2.686-6 6-6 6 2.686 6 6zm-4.447-.505-2.792-.559c-.304-.061-.514-.36-.449-.678.055-.272.309-.458.587-.458h2.307c.203 0 .387.087.515.226.154.167.437.274.664.274.655 0 1.01-.763.592-1.266-.422-.509-1.059-.833-1.77-.833h-.405v-.4c0-.442-.358-.8-.8-.8s-.8.358-.8.8v.4h-.28c-1.091 0-2.046.786-2.199 1.866-.163 1.158.613 2.216 1.725 2.439l2.791.559c.304.062.514.359.451.677-.054.273-.308.46-.586.46h-2.334c-.203 0-.387-.087-.515-.226-.154-.167-.437-.274-.664-.274-.655 0-1.01.763-.592 1.266.422.509 1.059.833 1.77.833h.431v.4c0 .442.358.8.8.8s.8-.358.8-.8v-.4h.28c1.091 0 2.046-.785 2.199-1.865.164-1.158-.613-2.217-1.725-2.439zm15.599 7.186c-.515-.469-1.186-.712-1.878-.678-.697.032-1.339.334-1.794.835l-3.541 3.737c.032.21.065.42.065.638 0 2.083-1.555 3.876-3.617 4.17l-4.252.596c-.547.078-1.053-.302-1.131-.848-.078-.547.302-1.053.848-1.131l4.162-.583c.936-.134 1.748-.806 1.94-1.732.296-1.425-.79-2.685-2.164-2.685h-8.787c-1.657 0-3 1.343-3 3v3c0 1.657 1.343 3 3 3h9.806c2.244 0 4.384-.942 5.9-2.597l4.633-5.058c.948-1.062.862-2.707-.189-3.665zm-7.152-.681h1.518l.509-.538c.793-.872 1.923-1.4 3.153-1.458 1.023-.043 1.993.254 2.819.825v-.33c0-2.481-2.019-4.5-4.5-4.5s-4.5 2.019-4.5 4.5v.5c0 .552.447 1 1 1z"/></svg>