<svg id="Layer_1" viewBox="0 0 24 24" xmlns="http://www.w3.org/2000/svg" data-name="Layer 1"><path d="m14 7v-6.54c.913.346 1.753.879 2.465 1.59l3.484 3.486c.712.711 1.245 1.551 1.591 2.464h-6.54c-.552 0-1-.449-1-1zm-8.559-2.849 2.97.985c1.548.513 2.588 1.953 2.588 3.584v3.019c-.007.369-.047.799-.136 1.261h6.058l1.741-1.741c.812-.812 1.891-1.259 3.039-1.259h-6.702c-1.654 0-3-1.346-3-3v-6.976c-.161-.011-.322-.024-.485-.024h-4.515c-2.638 0-4.784 2.062-4.964 4.657l1.521-.505c.62-.205 1.271-.204 1.886 0zm17.886 8.522c-.897-.897-2.353-.897-3.25 0l-6.807 6.807c-.813.813-1.27 1.915-1.27 3.065v1.455h1.455c1.15 0 2.252-.457 3.065-1.27l6.807-6.807c.897-.897.897-2.353 0-3.25zm-14.77 4.327h4.365l2-2h-4.768c-.364.677-.878 1.36-1.597 2zm-5.42 1.672c-.413-.211-.786-.429-1.137-.651v.98c0 2.757 2.243 5 5 5h3v-1.455c0-1.283.38-2.507 1.085-3.545h-6.584c-.472 0-.943-.113-1.364-.328zm1.364-1.672c.129 0 .259-.025.381-.075 3.346-1.378 4.086-3.57 4.118-5.186v-3.019c0-.767-.489-1.444-1.218-1.686l-2.968-.984c-.204-.067-.424-.067-.629 0l-2.966.984c-.729.241-1.219.918-1.219 1.686v3.041c.045 2.057 1.407 3.783 4.046 5.13.143.073.298.109.455.109z"/></svg>