<?xml version="1.0" encoding="UTF-8"?>
<svg xmlns="http://www.w3.org/2000/svg" id="Layer_1" data-name="Layer 1" viewBox="0 0 24 24">
  <path d="M23.981,5.519c0,1.381-1.119,2.5-2.5,2.5s-2.5-1.119-2.5-2.5,1.119-2.5,2.5-2.5,2.5,1.119,2.5,2.5Zm-1.011,9.739c.021,.079,.03,.16,.03,.242v4c0,.553-.447,1-1,1s-1-.447-1-1v-3.877l-.27-1.08c-.145-.58-.383-1.127-.661-1.653l-3.795,4.651c-.779,.922-1.803,1.459-2.76,1.459h-5.243c-.16,0-.312,.078-.406,.209l-2.052,2.872c-.322,.452-.95,.552-1.395,.232-.449-.321-.554-.945-.232-1.395l2.052-2.872c.468-.655,1.229-1.047,2.033-1.047h4.132l-3.303-2.877c-.091-.079-.207-.123-.328-.123h-3.771c-.553,0-1-.447-1-1s.447-1,1-1h3.771c.604,0,1.188,.219,1.643,.615l1.799,1.566,4.13-5.069-2.388-1.876c-.606-.476-.955-1.192-.955-1.966V2.356L2.973,11.548c-.618,.566-.973,1.373-.973,2.212v9.24c0,.553-.447,1-1,1s-1-.447-1-1V13.76c0-1.397,.591-2.741,1.621-3.687L12.324,.263c.185-.169,.426-.263,.676-.263h1c.553,0,1,.447,1,1V5.271c0,.154,.069,.298,.19,.393l4.157,3.268c1.637,1.285,2.817,3.106,3.322,5.128l.3,1.199Z"/>
</svg>
