<svg id="Layer_1" viewBox="0 0 24 24" xmlns="http://www.w3.org/2000/svg" data-name="Layer 1"><path d="m9 4.556v-1.056c0-1.93-1.57-3.5-3.5-3.5s-3.5 1.57-3.5 3.5v1.056c-1.19.694-2 1.97-2 3.444v2c0 2.206 1.794 4 4 4h3c2.206 0 4-1.794 4-4v-2c0-1.474-.81-2.75-2-3.444zm-3.5 5.944c-.828 0-1.5-.672-1.5-1.5s.672-1.5 1.5-1.5 1.5.672 1.5 1.5-.672 1.5-1.5 1.5zm1.5-6.5h-3v-.5c0-.827.673-1.5 1.5-1.5s1.5.673 1.5 1.5zm17 1.001v16.85c0 .794-.435 1.52-1.134 1.894-.698.375-1.543.336-2.205-.105l-4.514-3.638h-11.147c-2.757 0-5-2.243-5-5v-.54c1.063.954 2.462 1.54 4 1.54h3c3.309 0 6-2.691 6-6v-2c0-1.704-.745-3.321-2-4.448v-.052c0-1.329-.474-2.549-1.261-3.502h9.261c2.757 0 5 2.244 5 5.001z"/></svg>