<svg id="Layer_1" viewBox="0 0 24 24" xmlns="http://www.w3.org/2000/svg" data-name="Layer 1"><path d="m11.473 24.038c-.419 0-.768-.324-.798-.742l-.265-3.66-.798 1.756c-.304.668-1.253.668-1.557 0l-.798-1.756-.265 3.66c-.03.418-.379.742-.798.742-.465 0-.832-.394-.798-.858l.445-6.142c.043-.705.472-1 .988-1 .342 0 .66.242.841.64l1.164 2.56 1.164-2.56c.181-.398.499-.64.841-.64.516 0 .945.295.988 1l.445 6.142c.034.463-.333.858-.798.858zm6.037-.618-.165-.782h-2.379l-.175.79c-.079.356-.394.61-.759.61-.494 0-.863-.456-.76-.939l1.165-5.479c.168-.864.87-1.582 1.742-1.581.894.006 1.563.69 1.753 1.627l1.142 5.435c.107.5-.296.963-.804.937-.368 0-.685-.257-.761-.617zm-.502-2.382-.641-3.044c-.047-.231-.144-.334-.168-.349l-.017-.006c-.071.042-.146.146-.176.296l-.686 3.104h1.688zm6.241-5c-.286 0-.548.163-.674.42l-1.122 2.29-1.122-2.29c-.126-.257-.387-.42-.674-.42-.555 0-.918.582-.674 1.08l1.652 3.37v2.749c0 .442.358.8.8.8.442 0 .8-.358.8-.8v-2.678s1.687-3.442 1.687-3.442c.244-.498-.119-1.08-.674-1.08zm.751-9.038c0-2.757-2.243-5-5-5h-1v-1c0-.553-.448-1-1-1s-1 .447-1 1v1h-8v-1c0-.553-.448-1-1-1s-1 .447-1 1v1h-1c-2.757 0-5 2.243-5 5v1h24zm-20.6 16.035.445-6.142c.102-1.672 1.329-2.855 2.982-2.855h16.422c.259 0 .51.042.751.11v-4.148h-24v9c0 2.216 1.451 4.073 3.447 4.729-.041-.228-.063-.46-.046-.694z"/></svg>