<svg id="Layer_1" viewBox="0 0 24 24" xmlns="http://www.w3.org/2000/svg" data-name="Layer 1"><path d="m20.799 17.03-3.1-13.175c-.534-2.27-2.535-3.855-4.867-3.855h-.832c-.553 0-1 .448-1 1s.447 1 1 1h.832c1.399 0 2.6.951 2.92 2.313l1.821 7.74-3.147 3.846c-.571.7-1.418 1.101-2.321 1.101h-11.105c-.553 0-1 .448-1 1s.447 1 1 1h.351c-.219.456-.351.961-.351 1.5 0 1.93 1.57 3.5 3.5 3.5s3.5-1.57 3.5-3.5c0-.539-.133-1.044-.351-1.5h4.456c1.506 0 2.916-.668 3.869-1.834l2.177-2.66.69 2.931c-1.09.594-1.84 1.736-1.84 3.062 0 1.93 1.57 3.5 3.5 3.5s3.5-1.57 3.5-3.5c0-1.827-1.413-3.315-3.201-3.47zm-14.799-2.03c3.314 0 6-2.686 6-6s-2.686-6-6-6-6 2.686-6 6 2.686 6 6 6zm-2.977-5.738 1.313-3.691c.125-.344.437-.571.785-.571h1.665c.352 0 .589.382.45.725l-.844 2.275h2.073c.424-.002.681.497.448.873l-3.266 3.93c-.089.124-.228.196-.375.197-.324.001-.554-.335-.452-.661l.519-2.339h-1.793c-.364.002-.626-.369-.523-.738z"/></svg>