<svg id="Layer_1" viewBox="0 0 24 24" xmlns="http://www.w3.org/2000/svg" data-name="Layer 1"><path d="m12 9c0-3.309 2.691-6 6-6h1.031l-1.276-1.293c-.391-.39-.391-1.023 0-1.414s1.023-.391 1.414 0l2.327 2.343c.729.729.728 1.914 0 2.642l-2.387 2.386c-.391.391-1.023.391-1.414 0s-.391-1.024 0-1.414l1.25-1.25h-.945c-2.206 0-4 1.794-4 4s1.794 4 4 4 4-1.794 4-4c0-.271-.026-.54-.08-.802-.109-.541.241-1.069.782-1.178.54-.107 1.068.241 1.179.782.079.392.119.795.119 1.198 0 3.309-2.691 6-6 6s-6-2.691-6-6zm9.5 10h-5.652c-.588 0-1.147.259-1.527.708l-.247.292h-4.149l-.247-.292c-.38-.449-.939-.708-1.527-.708h-5.651c-1.381 0-2.5 1.119-2.5 2.5s1.119 2.5 2.5 2.5h19c1.381 0 2.5-1.119 2.5-2.5s-1.119-2.5-2.5-2.5zm-13.349-2c.983 0 1.92.359 2.646 1h2.404c.726-.641 1.664-1 2.646-1h2.151c-4.418 0-8-3.582-8-8 0-1.062.211-2.073.587-3h-3.587c-2.757 0-5 2.243-5 5v6.11c.323-.067.656-.11 1-.11h5.151z"/></svg>