<svg id="Layer_1" viewBox="0 0 24 24" xmlns="http://www.w3.org/2000/svg" data-name="Layer 1"><path d="m23.993 9c0 1.105-.859 2.029-1.963 2.029-1.351.068-2.655.266-3.679.462l4.271-4.39c.796.264 1.371 1.014 1.371 1.899zm-22.274 6.919c-1.728 1.729-1.711 2.927-1.711 3.721 0 .983.307 1.954 1.009 2.649l.702.702c.639.639 1.503 1.001 2.405 1.008h.01c1.222 0 2.358-.159 3.888-1.666 1.661-2.406 2.523-6.045 2.837-14.296-.962.873-2.2 1.896-3.513 2.976-2.011 1.654-4.089 3.365-5.629 4.905zm21.7-15.324c-.786-.786-2.06-.786-2.845 0l-1.598 1.599c-.042 1.382-.169 3.792-.527 6.329l4.989-5.101c.768-.789.759-2.049-.019-2.828zm-8.441-.595c-1.091 0-1.969.886-1.978 1.978-.063 7.731-.405 12.773-1.227 16.332 1.328-1.492 2.625-3.006 3.807-4.392.223-1.517.452-3.031.573-3.75.264-1.362.446-2.759.571-4.04.131-1.351.209-2.723.247-4.076.031-1.124-.869-2.052-1.993-2.052z"/></svg>