<svg id="Layer_1" viewBox="0 0 24 24" xmlns="http://www.w3.org/2000/svg" data-name="Layer 1"><path d="m6.065 15.991c.717.033 1.435-.053 2.131-.189-.136.69-.221 1.42-.186 2.145-.54.136-1.123-.008-1.536-.421-.409-.409-.546-.988-.409-1.535zm2.925-2.495c.956-1.96 2.545-3.549 4.505-4.505.331-.874.504-1.795.504-2.741 0-1.812-.63-3.478-1.676-4.799-.241.185-.475.381-.693.6l-9.58 9.58c-.218.218-.414.452-.599.693 1.321 1.046 2.987 1.676 4.799 1.676.944 0 1.865-.173 2.741-.504zm-1.373 6.509c-.933 0-1.856-.363-2.558-1.065-.854-.854-1.203-2.045-.995-3.195-1.324-.305-2.542-.88-3.6-1.664-.301.788-.465 1.631-.465 2.5v2.42c0 2.757 2.243 5 5 5h2.419c.87 0 1.712-.164 2.501-.465-.783-1.057-1.358-2.273-1.663-3.595-.212.038-.426.065-.639.065zm2.382-2.255c0 1.812.63 3.478 1.676 4.799.241-.185.475-.381.693-.6l9.581-9.58c.218-.218.414-.452.599-.693-1.321-1.046-2.987-1.676-4.799-1.676-4.273 0-7.75 3.477-7.75 7.75zm7.934-9.741c.136-.543-.001-1.128-.409-1.535-.408-.408-.992-.546-1.535-.409.033.718-.053 1.436-.189 2.131.686-.135 1.411-.22 2.133-.187zm1.067-8.009h-2.419c-.87 0-1.712.164-2.501.465.784 1.058 1.359 2.275 1.664 3.599 1.145-.205 2.345.144 3.197.997.85.85 1.2 2.05.995 3.195 1.323.305 2.541.88 3.599 1.664.301-.788.465-1.631.465-2.5v-2.42c0-2.757-2.243-5-5-5z"/></svg>