<svg id="Layer_1" viewBox="0 0 24 24" xmlns="http://www.w3.org/2000/svg" data-name="Layer 1"><path d="m22 9h-20c-.347 0-.678-.058-1-.142v10.142c0 2.757 2.243 5 5 5h12c2.757 0 5-2.243 5-5v-10.142c-.322.084-.653.142-1 .142zm-4.422 7.065-5.579 5.935 2.064-6h-4.129l2.064 6-5.577-5.935c-.534-.623-.564-1.532-.071-2.188l1.561-2.077c.378-.504.972-.8 1.603-.8h1.608l-1.128 3h4.008l-1.128-3h1.61c.631 0 1.224.296 1.603.8l1.561 2.077c.493.656.464 1.566-.071 2.188zm6.422-12.065v1c0 1.105-.895 2-2 2h-20c-1.105 0-2-.895-2-2v-1c0-2.209 1.791-4 4-4h16c2.209 0 4 1.791 4 4z"/></svg>