<svg id="Layer_1" viewBox="0 0 24 24" xmlns="http://www.w3.org/2000/svg" data-name="Layer 1"><path d="m.982 6.5v-1c0-.828.672-1.5 1.5-1.5h.849c-.222.626-.349 1.298-.349 2h2.5c1.956 0 3.744-.846 4.992-2.226.491-.543.261-1.433-.448-1.619-.007-.002-.013-.004-.02-.005-.358-.091-.754-.006-1 .268-.881.979-2.142 1.582-3.524 1.582h-2.15c.826-2.327 3.043-4 5.65-4s4.826 1.673 5.652 4h.848c.828 0 1.5.672 1.5 1.5v1c0 .828-.672 1.5-1.5 1.5h-.841c-.674 1.93-2.343 3.439-4.366 3.864-3.143.66-5.991-1.159-6.95-3.864h-.843c-.828 0-1.5-.672-1.5-1.5zm22.018 11.203c-.132-.428-.46-2.444-3-2.68v-.024c0-.552-.448-1-1-1s-1 .448-1 1h-2c0-.552-.448-1-1-1s-1 .448-1 1v.024c-2.54.236-2.868 2.252-3 2.68-.746 2.424-1 4.455-1 5.058 0 .683.556 1.238 1.238 1.238.951 0 2.531-1.442 3.456-2.793.52-.76 1.385-1.207 2.306-1.207.921 0 1.786.447 2.306 1.207.924 1.351 2.505 2.793 3.456 2.793.683 0 1.238-.556 1.238-1.238 0-.603-.253-2.635-1-5.058zm-15 5.058c0-.85.29-3.055 1.088-5.647.371-1.391 1.036-2.305 1.781-2.917-.603-.128-1.228-.197-1.87-.197-4.97 0-8.999 4.029-8.999 9 0 0 0 1 1.128 1h7.12c-.159-.382-.248-.8-.248-1.238z"/></svg>