<svg id="Layer_1" viewBox="0 0 24 24" xmlns="http://www.w3.org/2000/svg" data-name="Layer 1"><path d="m9.794 15.945-3.035-4.587 4.241-4.741v-5.617c0-.553.448-1 1-1h3c.552 0 1 .448 1 1v2c0 .552-.448 1-1 1h-2v2.618l3.961 4.429-2.534 3.862c-.096.131-.302.131-.398-.005l-.721-.992c-.189-.26-.509-.413-.813-.412-.321 0-.623.157-.809.419l-1.438 2.013c-.074.104-.176.12-.231.12-.04.002-.16-.016-.223-.106zm13.398 2.068-4.851-5.423-2.226 3.393c-.375.61-1.054 1.007-1.799 1.036-.71.023-1.366-.274-1.807-.812l-.634.887c-.428.601-1.122.958-1.859.958-.006 0-.012 0-.017 0-.743-.005-1.439-.373-1.862-.985l-2.756-4.166-4.574 5.112c-.018.021-.035.041-.052.062-.853 1.125-.993 2.609-.365 3.874.628 1.266 1.896 2.051 3.308 2.051h16.605c1.412 0 2.68-.785 3.307-2.051.629-1.265.488-2.749-.417-3.937zm-7.192-12.013h2c.552 0 1-.448 1-1v-2c0-.552-.448-1-1-1h-1v1c0 1.105-.895 2-2 2 0 0 0 1 1 1z"/></svg>