<svg id="Layer_1" viewBox="0 0 24 24" xmlns="http://www.w3.org/2000/svg" data-name="Layer 1"><path d="m19 0c-2.761 0-5 2.239-5 5s2.239 5 5 5 5-2.239 5-5-2.239-5-5-5zm1.707 6.707c-.391.391-1.023.391-1.414 0l-1-1c-.188-.188-.293-.442-.293-.707v-2c0-.552.448-1 1-1s1 .448 1 1v1.586l.707.707c.391.391.391 1.023 0 1.414zm-1.707 5.293c-3.866 0-7-3.134-7-7 0-1.96.808-3.729 2.106-5h-10.106c-2.206 0-4 1.794-4 4v12c0 2.206 1.794 4 4 4h2.923l3.749 3.157c.382.339.861.507 1.337.507.468 0 .931-.163 1.292-.484l3.848-3.18h2.852c2.206 0 4-1.794 4-4v-6.106c-1.271 1.298-3.04 2.106-5 2.106zm-13.5 0c-.828 0-1.5-.672-1.5-1.5s.672-1.5 1.5-1.5 1.5.672 1.5 1.5-.672 1.5-1.5 1.5zm5 0c-.828 0-1.5-.672-1.5-1.5s.672-1.5 1.5-1.5 1.5.672 1.5 1.5-.672 1.5-1.5 1.5z"/></svg>