<svg id="Layer_1" viewBox="0 0 24 24" xmlns="http://www.w3.org/2000/svg" data-name="Layer 1"><path d="m16.989 10.03c-3.858 0-6.985 3.127-6.985 6.985s3.127 6.985 6.985 6.985 6.985-3.127 6.985-6.985-3.127-6.985-6.985-6.985zm-1.451 5.731 3.254.543c1.275.212 2.199 1.309 2.189 2.604-.011 1.448-1.231 2.597-2.679 2.597h-.315s0 0 0 0c0 .551-.447.998-.998.998-.551 0-.998-.447-.998-.998-1.111 0-2.083-.608-2.599-1.509-.379-.661.11-1.484.872-1.484.359 0 .685.195.867.505.174.295.494.493.861.493h2.345c.333 0 .628-.251.648-.584.02-.323-.205-.601-.519-.654l-3.279-.547c-1.274-.212-2.198-1.31-2.188-2.604.011-1.448 1.231-2.597 2.679-2.597h.315s0 0 0 0c0-.551.447-.998.998-.998.551 0 .998.447.998.998 1.111 0 2.083.608 2.599 1.509.379.661-.11 1.484-.872 1.484-.359 0-.685-.196-.867-.505-.174-.295-.494-.493-.861-.493h-2.371c-.359 0-.647.305-.621.669.021.292.254.524.543.572zm-15.512-7.778v-1.996c0 2.204 3.351 3.991 7.484 3.991s7.484-1.787 7.484-3.991v1.996c0 .097-.014.193-.027.288-2.166.499-4.028 1.779-5.28 3.53-.689.112-1.419.173-2.176.173-4.135 0-7.485-1.787-7.485-3.991zm0-3.992c0-2.204 3.35-3.991 7.484-3.991s7.484 1.787 7.484 3.991-3.351 3.991-7.484 3.991-7.484-1.786-7.484-3.991zm10.841 19.581c-1.01.271-2.149.428-3.357.428-4.134 0-7.484-1.787-7.484-3.991v-1.996c0 2.204 3.351 3.991 7.484 3.991.669 0 1.309-.057 1.926-.144.405.63.887 1.203 1.432 1.713zm-10.841-7.555v-1.996c0 2.204 3.351 3.991 7.484 3.991.189 0 .368-.018.554-.025.074.684.231 1.342.449 1.972-.33.024-.66.049-1.003.049-4.134.001-7.484-1.787-7.484-3.991zm0-3.991v-1.996c0 2.204 3.351 3.991 7.484 3.991.351 0 .697-.014 1.035-.039-.23.639-.394 1.309-.473 2.005-.189.008-.37.029-.562.029-4.134.001-7.484-1.786-7.484-3.99z"/></svg>