<svg id="Layer_1" viewBox="0 0 24 24" xmlns="http://www.w3.org/2000/svg" data-name="Layer 1"><path d="m12.274 8.199h-.674v-1.599h.674c.442 0 .8.358.8.8s-.358.8-.8.8zm.327 1.64h-1.001v1.599h1.001c.442 0 .8-.358.8-.8s-.358-.8-.8-.8zm-6.673-3.239c-.088 0-.146.146-.176.296l-.686 3.104h1.688l-.646-3.06c-.047-.231-.092-.339-.18-.339zm18.072-1.601v8.001c0 2.757-2.243 5-5 5h-6v2h2c1.654 0 3 1.346 3 3 0 .552-.447 1-1 1s-1-.448-1-1-.448-1-1-1h-6c-.551 0-1 .449-1 1s-.448 1-1 1-1-.448-1-1c0-1.654 1.346-3 3-3h2v-2h-6c-2.757 0-5-2.243-5-5v-8c0-2.757 2.243-5 5-5h14c2.757 0 5 2.243 5 5zm-15.18 7.062-1.142-5.435c-.19-.937-.859-1.621-1.753-1.627-.873-.001-1.575.717-1.742 1.581l-1.165 5.479c-.103.484.266.939.76.939.365 0 .68-.253.759-.61l.175-.79h2.379l.165.782c.076.36.393.617.761.617.509.026.911-.437.804-.937zm5.358-3.218c.297-.391.484-.871.495-1.397.027-1.347-1.221-2.447-2.569-2.447h-1.104c-.552 0-1 .448-1 1v6.038c0 .552.448 1 1 1h1.49c1.186 0 2.274-.813 2.474-1.982.152-.886-.191-1.689-.786-2.212zm3.422 1.624v-2.936c0-.479.361-.898.838-.93.375-.025.705.181.863.489.132.258.409.409.699.409.606 0 .99-.647.703-1.181-.414-.772-1.222-1.3-2.155-1.318-1.401-.027-2.548 1.154-2.548 2.556v2.887c0 1.402 1.147 2.582 2.548 2.556.933-.018 1.741-.547 2.155-1.318.287-.534-.097-1.182-.703-1.182-.29 0-.567.151-.699.409-.158.308-.488.514-.863.489-.478-.032-.838-.451-.838-.93z"/></svg>