<svg id="Layer_1" viewBox="0 0 24 24" xmlns="http://www.w3.org/2000/svg" data-name="Layer 1"><path d="m4.972 22.285c-.34 0-.671-.173-.858-.485-.284-.474-.131-1.088.343-1.372 3.543-2.126 3.543-6.697 3.543-9.427 0-1.067.574-2.062 1.498-2.597.479-.276 1.09-.114 1.367.364s.114 1.09-.364 1.367c-.309.179-.501.511-.501.867 0 2.947 0 8.433-4.514 11.142-.161.097-.338.143-.514.143zm4.963 1.421c2.283-2.297 3.616-5.534 3.962-9.621.046-.55-.362-1.034-.912-1.081-.554-.046-1.035.361-1.081.912-.305 3.605-1.445 6.425-3.388 8.38-.389.392-.387 1.025.005 1.414.195.194.45.291.705.291.257 0 .514-.099.709-.295zm5.168-.14c1.512-2.209 2.23-5.25 2.567-7.412.085-.546-.289-1.057-.834-1.142-.546-.081-1.057.289-1.142.834-.43 2.768-1.226 5.108-2.241 6.59-.312.456-.195 1.078.26 1.39.173.118.37.175.564.175.319 0 .632-.152.826-.435zm-7.826-15.898c.56-.625 1.271-1.103 2.057-1.382.521-.184.793-.756.608-1.276-.184-.52-.758-.797-1.276-.608-1.101.39-2.097 1.058-2.879 1.932-.368.412-.333 1.043.078 1.412.191.171.429.255.666.255.274 0 .548-.112.746-.333zm-2.026 1.347c-.548-.092-1.061.274-1.153.818-.065.382-.098.774-.098 1.167 0 4.135-1.132 6.627-3.187 7.017-.542.103-.899.626-.796 1.169.101.546.64.9 1.169.796 1.798-.342 4.813-1.963 4.813-8.982 0-.281.023-.562.069-.832.092-.545-.274-1.061-.818-1.153zm14.451 14.399c1.241-2.732 1.986-5.877 2.215-9.348.036-.551-.381-1.027-.932-1.064-.558-.032-1.027.382-1.064.932-.212 3.23-.899 6.141-2.04 8.652-.228.503-.006 1.096.497 1.324.134.061.274.089.413.089.38 0 .744-.218.911-.586zm-17.702-9.413v-3c0-4.962 4.038-9 9-9 .552 0 1-.448 1-1s-.448-1-1-1c-6.065 0-11 4.935-11 11v3c0 .552.448 1 1 1s1-.448 1-1zm17.5-8c0 .828-.672 1.5-1.5 1.5s-1.5-.672-1.5-1.5.672-1.5 1.5-1.5 1.5.672 1.5 1.5zm-.5 6v-2c0-.552-.448-1-1-1s-1 .448-1 1v2c0 .552.448 1 1 1s1-.448 1-1zm-4.4-2.2c.441-.332.531-.958.199-1.4-.523-.696-.799-1.526-.799-2.4 0-2.205 1.794-4 4-4s4 1.794 4 4c0 .873-.276 1.704-.799 2.399-.332.441-.243 1.068.199 1.4.44.332 1.068.243 1.4-.199.786-1.045 1.201-2.29 1.201-3.6-.001-3.308-2.693-6-6.001-6s-6 2.691-6 6c0 1.31.415 2.556 1.201 3.601.196.262.496.399.8.399.209 0 .419-.065.6-.201z"/></svg>