<?xml version="1.0" encoding="UTF-8"?>
<svg xmlns="http://www.w3.org/2000/svg" id="Layer_1" data-name="Layer 1" viewBox="0 0 24 24">
  <path d="M24,5v1c0,.552-.448,1-1,1v.003c0,1.103-.894,1.997-1.997,1.997H1.647c-.989,.013-1.72-.852-1.647-1.811v-2.189c0-.53,.434-1.02,.963-1.001,.58,.021,1.057-.456,1.036-1.036-.019-.53,.471-.963,1.001-.963H19c0-.552,.448-1,1-1s1,.448,1,1c1.081,0,1.961,.866,1.996,1.946,.001,.034,.003,.054,.004,.054,.552,0,1,.448,1,1Zm-9.936,7.862c-.384,1.279-1.539,2.138-2.874,2.138h-2.483l.663-2h1.63c.552,0,1-.448,1-1s-.448-1-1-1H2.529c-.026,.209-.079,.469-.176,.809L.172,18.004c-.718,1.873,.824,4.051,2.83,3.996h.763c1.57,0,2.956-1.001,3.449-2.491l.839-2.532c.039,.005,.073,.023,.114,.023h3.024c2.225,0,4.15-1.432,4.79-3.563l.731-2.437h-2.088l-.558,1.862Z"/>
</svg>
