<svg id="Layer_1" viewBox="0 0 24 24" xmlns="http://www.w3.org/2000/svg" data-name="Layer 1"><path d="m5.46 9.631c.008-.006.016-.011.024-.017.634-.441.95-1.247.74-1.99-.146-.517-.224-1.061-.224-1.624h2.5c1.956 0 3.744-.846 4.992-2.226.492-.543.261-1.433-.448-1.619-.007-.002-.013-.004-.02-.005-.358-.091-.753-.006-1 .268-.881.979-2.142 1.582-3.524 1.582h-2.15c.826-2.327 3.043-4 5.65-4 3.731 0 6.677 3.422 5.864 7.293-.02.097-.044.193-.07.288-.21.762.074 1.584.723 2.035.007.005.015.01.022.016.576.398.618 1.263.066 1.694-.476.371-1.104.675-1.883.675-.985 0-1.742-.216-2.326-.503-.355.154-.72.287-1.104.367-1.32.277-2.585.109-3.683-.371-.584.289-1.344.506-2.333.506-.78 0-1.408-.304-1.883-.675-.552-.431-.51-1.296.066-1.694zm6.54 4.369c-4.962 0-9 4.038-9 9 0 .552.448 1 1 1h16c.552 0 1-.448 1-1 0-4.962-4.038-9-9-9z"/></svg>