<svg id="Layer_1" viewBox="0 0 24 24" xmlns="http://www.w3.org/2000/svg" data-name="Layer 1"><path d="m9.001 22.001h-2.999c-.553 0-1-.448-1-1s.447-1 1-1h2.999c.553 0 1 .448 1 1s-.447 1-1 1zm8.282 1.999v-1h-.201c-.655 0-1.242-.299-1.63-.767-.385-.464-.058-1.166.545-1.166h.07c.209 0 .4.098.541.252.118.128.287.209.474.209h1.936c.256 0 .49-.173.54-.424.058-.293-.135-.566-.415-.623l-2.57-.514c-.954-.191-1.639-1.05-1.608-2.028.036-1.088.962-1.936 2.05-1.936h.268v-.28c0-.397.322-.72.72-.72s.72.322.72.72v.28h.201c.655 0 1.242.299 1.63.767.385.464.058 1.166-.545 1.166h-.07c-.209 0-.4-.098-.541-.252-.118-.128-.287-.208-.474-.208h-1.935c-.256 0-.49.172-.541.422-.059.293.134.568.414.624l2.571.515c.954.19 1.64 1.05 1.608 2.029-.036 1.087-.962 1.935-2.05 1.935h-.268v1h2.275c1.656 0 2.999-1.415 2.999-3.161 0-2.846-1.993-5.592-4.353-6.511.27-.292.528-.614.732-.956.359-.603-.116-1.367-.818-1.367h-3.117c-.702 0-1.177.764-.818 1.367.204.342.462.664.732.956-2.361.919-4.353 3.665-4.353 6.511 0 1.746 1.343 3.161 2.999 3.161h2.284zm-7.172-15.186-2.401-2.257c-1.007-.934-2.66-.748-3.411.498-.488.809-.35 1.854.245 2.588l1.788 2.303c.339.436.259 1.064-.177 1.403s-1.064.259-1.403-.177l-1.788-2.303c-.008-.009-.011-.021-.018-.03-1.103-1.41-1.253-3.335-.36-4.816.552-.915 1.416-1.555 2.415-1.854v-1.518c0-1.307-.941-2.498-2.241-2.629-1.495-.15-2.756 1.02-2.756 2.486v7.506c0 2.133.853 4.178 2.369 5.68l1.791 1.775c.37.343.855.533 1.359.533h5.477c.552 0 1-.448 1-1v-3.819c0-1.655-.684-3.236-1.889-4.37zm9.302-2.801c.729 1.21.752 2.712.139 3.991h.004c.932 0 1.788.464 2.34 1.203.06-.396.101-.797.101-1.203v-7.505c0-1.465-1.261-2.636-2.757-2.486-1.301.13-2.241 1.321-2.241 2.629v1.518c.999.299 1.864.939 2.415 1.854zm-5.533 5.485c.523-.921 1.504-1.493 2.56-1.493h.729l.288-.371c.595-.734.733-1.779.245-2.588-.751-1.246-2.404-1.431-3.411-.498l-1.925 1.81c.728.963 1.218 2.084 1.458 3.265.021-.041.033-.085.056-.125z"/></svg>