<svg id="Layer_1" viewBox="0 0 24 24" xmlns="http://www.w3.org/2000/svg" data-name="Layer 1"><path d="m10.597 24.038c-.419 0-.768-.324-.798-.742l-.265-3.66-.798 1.756c-.304.668-1.253.668-1.557 0l-.798-1.756-.265 3.66c-.03.418-.379.742-.798.742-.465 0-.832-.394-.798-.858l.445-6.142c.043-.705.472-1 .988-1 .342 0 .66.242.841.64l1.164 2.56 1.164-2.56c.181-.398.499-.64.841-.64.516 0 .945.295.988 1l.445 6.142c.034.463-.333.858-.798.858zm12.349-3.462.739 2.43c.156.514-.228 1.033-.765 1.033h-.064c-.356 0-.669-.235-.768-.576l-.705-2.424h-.784v2.2c0 .442-.358.8-.8.8-.442 0-.8-.358-.8-.8v-6.4c0-.442.358-.8.8-.8h1.567c1.284 0 2.456.908 2.613 2.182.121.976-.324 1.854-1.047 2.362.024-.014.036-.023.055-.035-.018.012-.018.012-.042.029zm-.546-2.038c0-.496-.404-.9-.9-.9h-.9v1.8h.9c.496 0 .9-.404.9-.9zm-5.864 4.882-.165-.782h-2.379l-.175.79c-.079.356-.394.61-.759.61-.494 0-.863-.456-.76-.939l1.165-5.479c.168-.864.87-1.582 1.742-1.581.894.006 1.563.69 1.753 1.627l1.142 5.435c.107.5-.296.963-.804.937-.368 0-.685-.257-.761-.617zm-.502-2.382-.641-3.044c-.047-.231-.144-.334-.168-.349l-.017-.006c-.071.042-.146.146-.176.296l-.686 3.104h1.688zm7.966-14.038c0-2.757-2.243-5-5-5h-1v-1c0-.553-.448-1-1-1s-1 .447-1 1v1h-8v-1c0-.553-.448-1-1-1s-1 .447-1 1v1h-1c-2.757 0-5 2.243-5 5v1h24zm-21.476 16.038.445-6.144c.103-1.672 1.329-2.855 2.983-2.855h15.414c.977 0 1.88.307 2.633.812v-4.851h-23.999v9c0 1.86 1.027 3.463 2.534 4.325-.003-.096-.016-.191-.009-.287z"/></svg>