<svg id="Layer_1" viewBox="0 0 24 24" xmlns="http://www.w3.org/2000/svg" data-name="Layer 1"><path d="m8.8 13.92c-.17-.45-.45-.84-.8-1.15v-9.77c0-1.65 1.35-3 3-3h2c1.65 0 3 1.35 3 3v1h-3c-.55 0-1 .45-1 1s.45 1 1 1h3v2h-3c-.55 0-1 .45-1 1s.45 1 1 1h3v2.77c-.35.31-.62.7-.8 1.15-.11.08-.3.08-.41 0-.44-1.15-1.56-1.92-2.8-1.92s-2.36.77-2.8 1.92c-.11.08-.3.08-.41 0zm13.53 7.57c-.37.33-.84.51-1.33.51-.89 0-1.79-.59-2.06-1.33-.14-.4-.52-.67-.94-.67s-.8.27-.94.67c-.26.75-1.17 1.33-2.06 1.33s-1.79-.59-2.06-1.33c-.14-.4-.52-.67-.94-.67s-.8.27-.94.67c-.26.75-1.17 1.33-2.06 1.33s-1.79-.59-2.06-1.33c-.14-.4-.52-.67-.94-.67s-.8.27-.94.67c-.26.75-1.17 1.33-2.06 1.33-.49 0-.97-.18-1.33-.51-.41-.37-1.04-.33-1.41.08-.37.41-.33 1.04.08 1.41.73.66 1.68 1.02 2.67 1.02 1.13 0 2.22-.47 3-1.23.78.75 1.87 1.23 3 1.23s2.22-.47 3-1.23c.78.75 1.87 1.23 3 1.23s2.22-.47 3-1.23c.78.75 1.87 1.23 3 1.23.99 0 1.93-.36 2.67-1.02.41-.37.45-1 .08-1.41s-1-.44-1.41-.08zm-19.33-3.49c1.13 0 2.22-.47 3-1.23.78.75 1.87 1.23 3 1.23s2.22-.47 3-1.23c.78.75 1.87 1.23 3 1.23s2.22-.47 3-1.23c.78.75 1.87 1.23 3 1.23.99 0 1.93-.36 2.67-1.02.41-.37.45-1 .08-1.41s-1-.44-1.41-.08c-.37.33-.84.51-1.33.51-.89 0-1.79-.59-2.06-1.33-.14-.4-.52-.67-.94-.67s-.8.27-.94.67c-.26.75-1.17 1.33-2.06 1.33s-1.79-.59-2.06-1.33c-.14-.4-.52-.67-.94-.67s-.8.27-.94.67c-.26.75-1.17 1.33-2.06 1.33s-1.79-.59-2.06-1.33c-.14-.4-.52-.67-.94-.67s-.8.27-.94.67c-.26.75-1.17 1.33-2.06 1.33-.49 0-.97-.18-1.33-.51-.41-.37-1.04-.33-1.41.08-.37.41-.33 1.04.08 1.41.73.66 1.68 1.02 2.67 1.02zm-1.05-12h1.05v4c0 .55.45 1 1 1s1-.45 1-1v-4h1.05c.85 0 1.28-1.04.67-1.63l-2.02-1.98c-.38-.38-1-.38-1.38 0l-2.02 1.98c-.61.6-.19 1.63.67 1.63zm17.36 4.61c.38.38 1 .38 1.38 0l2.02-1.98c.61-.6.19-1.63-.67-1.63h-1.05v-4c0-.55-.45-1-1-1s-1 .45-1 1v4h-1.05c-.85 0-1.28 1.04-.67 1.63l2.02 1.98z"/></svg>