<svg id="Layer_1" viewBox="0 0 24 24" xmlns="http://www.w3.org/2000/svg" data-name="Layer 1"><path d="m20.492 19.662c.292.213.464.552.464.913 0 .538-.38 1.002-.908 1.107l-1.592.318h-4c-.306.613-.933 1-1.618 1h-.882l-.347.347c-.418.418-.986.653-1.577.653-.534.015-1.119 0-1.599-.261l-1.136-.568c-.209-.105-.342-.319-.342-.553 0-.341.277-.618.618-.618h.882c.237-.585.776-1.021 1.424-1.007h.176c.366.004.575-.416.352-.706-.424-.638-1.09-1.081-1.855-1.174-.346-.065-.597-.368-.597-.72 0-.245.122-.474.326-.61l1.174-.782-.423-.845c-.068-.129-.083-.278-.077-.422 0-.405.328-.733.733-.733h1.5c.424 0 .768-.344.768-.768 0-.152-.045-.3-.129-.426l-.871-1.307v-.415c0-.599-.486-1.085-1.085-1.085h-.462c-.6 0-1.166-.283-1.526-.763l-.928-1.237v-1c-.552 0-1-.448-1-1 0-.64.254-1.254.707-1.707l.293-.293-.287-.287c-.418-.418-.496-1.069-.188-1.574.215-.352.522-.64.888-.831l.587-.308.201-.401c.194-.388.513-.7.905-.885l.861-.407c.428-.202.895-.307 1.368-.307.368 0 .667.298.667.667 0 .21-.099.407-.267.533l-1.6 1.2c-.084.063-.133.162-.133.267 0 .184.149.333.333.333h3.687c.541 0 .979.438.979.979 0 .325-.162.63-.432.812l-1.713 1.156c-.207.139-.254.423-.105.623l.01.014c.148.198.102.481-.102.621-.353.242-.182.796.247.796h.756c.498 0 .939.325 1.086.801l.267.863c.077.248.236.462.451.607.187.126.332.304.417.512l.123.3c.096.234.266.429.485.555.284.142.532.365.638.67l1.37 3.692h.886c.383 0 .739.194.947.515l.248.383c.248.383.242.877-.016 1.253l-.701 1.022.671.489zm-15.748-9.529-1.373.855c-.257.16-.414.442-.414.745v.05c0 .599.587 1.022 1.155.833.221-.074.462-.056.67.048l.219.11c.282.141.617.12.879-.055l.432-.288c.368-.246.496-.727.298-1.123l-.411-.822c-.249-.525-.986-.617-1.456-.352zm2.213-9.403v-.079c0-.36-.292-.651-.651-.651h-1.079c-.173 0-.338.069-.461.191l-.618.618c-.122.122-.191.288-.191.461v.96c0 .173-.069.338-.191.461l-.432.432c-.22.22-.254.564-.081.822l.51.766c.121.181.324.29.542.29.36 0 .651-.292.651-.651v-1.079c0-.173.069-.338.191-.461l1.618-1.618c.122-.122.191-.288.191-.461z"/></svg>