<?xml version="1.0" encoding="UTF-8"?>
<svg xmlns="http://www.w3.org/2000/svg" id="Layer_1" data-name="Layer 1" viewBox="0 0 24 24">
  <path d="M16,14.556v-1.556c0-2.206-1.794-4-4-4s-4,1.794-4,4v1.556c-1.19,.694-2,1.97-2,3.444v2c0,2.206,1.794,4,4,4h4c2.206,0,4-1.794,4-4v-2c0-1.474-.81-2.75-2-3.444Zm-4,5.944c-.828,0-1.5-.672-1.5-1.5s.672-1.5,1.5-1.5,1.5,.672,1.5,1.5-.672,1.5-1.5,1.5Zm2-6.5h-4v-1c0-1.103,.897-2,2-2s2,.897,2,2v1Zm10-1.503c0,2.872-1.624,5.369-4,6.628v-1.125c0-1.703-.745-3.321-2-4.448v-.552c0-3.309-2.691-6-6-6s-6,2.691-6,6v.552c-1.255,1.127-2,2.745-2,4.448v1.783c-2.305-.655-4-2.775-4-5.287,0-1.546,.656-3.029,1.801-4.07,.273-.248,.405-.593,.346-.901-.184-.946-.195-1.919-.033-2.89C2.66,3.346,5.225,.734,8.497,.134c3.592-.661,7.183,1.167,8.735,4.438,.14,.296,.41,.503,.742,.569,3.492,.696,6.026,3.789,6.026,7.354Z"/>
</svg>
