<svg id="Layer_1" viewBox="0 0 24 24" xmlns="http://www.w3.org/2000/svg" data-name="Layer 1"><path d="m9 12c-3.309 0-6-2.691-6-6s2.691-6 6-6 6 2.691 6 6-2.691 6-6 6zm8.398 11.26c.45-.32.555-.945.234-1.395-.32-.449-.944-.555-1.395-.234-.798.568-1.879.476-2.573-.217-.779-.78-.779-2.048 0-2.828l1.414-1.414c.599-.6 1.514-.755 2.277-.392.497.238 1.095.027 1.333-.471.238-.499.027-1.095-.472-1.333-1.521-.728-3.355-.416-4.553.782l-1.414 1.415c-1.559 1.56-1.559 4.097 0 5.656.757.757 1.749 1.172 2.749 1.172.837 0 1.673-.224 2.398-.74zm4.016-3.996 1.414-1.415c.756-.755 1.172-1.76 1.172-2.828s-.416-2.073-1.172-2.829c-1.387-1.386-3.551-1.569-5.146-.432-.45.32-.555.945-.234 1.395s.944.557 1.395.234c.799-.569 1.88-.476 2.572.217.378.378.586.88.586 1.415s-.208 1.036-.586 1.414l-1.414 1.414c-.6.6-1.516.755-2.277.392-.497-.238-1.095-.027-1.333.471s-.027 1.095.472 1.333c.548.262 1.136.389 1.72.389 1.039 0 2.066-.404 2.833-1.171zm-10.578-3.506 1.215-1.215c-.954-.345-1.979-.544-3.051-.544-4.963.001-9 4.039-9 9.001 0 .552.447 1 1 1h9.639c-2.117-2.353-2.065-5.978.197-8.242z"/></svg>