<svg id="Layer_1" viewBox="0 0 24 24" xmlns="http://www.w3.org/2000/svg" data-name="Layer 1"><path d="m20 24h-16c-.553 0-1-.448-1-1v-1c0-2.414.986-4.894 2.512-6.318.504-.471 1.165-.711 1.861-.679.7.033 1.368.353 1.833.877l2.795 3.515 2.77-3.471c.501-.565 1.17-.883 1.87-.915.688-.035 1.354.211 1.858.683 1.519 1.424 2.501 3.9 2.501 6.308v1c0 .552-.447 1-1 1zm-9.206-19.717c.648-.404 1.177-.946 1.557-1.584.237-.398.721-.595 1.158-.44.006.002.013.005.019.007.588.212.871.9.553 1.438-1.174 2.118-3.704 3.334-6.082 3.296-.038 0-.41 0-.69 0 .361 2.264 2.327 3.999 4.69 3.999 1.751 0 3.284-.953 4.108-2.368.031.129.682 2.5 1.132 4.219.481.202.944.437 1.387.702.783.469 1.743-.208 1.525-1.094-.958-3.898-1.932-7.851-1.95-7.909-.855-2.722-3.348-4.55-6.202-4.55s-5.347 1.83-6.201 4.551c-.017.054-.058.211-.117.45h2.088c1.25 0 2.214-.212 3.025-.717zm-1.973 7.936c-1.974-1.034-3.379-3.006-3.596-5.333-.121.507-.703 2.857-1.377 5.578-.217.875.728 1.572 1.5 1.107 1.056-.636 2.226-1.101 3.474-1.352z"/></svg>