<svg id="Layer_1" viewBox="0 0 24 24" xmlns="http://www.w3.org/2000/svg" data-name="Layer 1"><path d="m23.892 8.45-3.149 6.239.884.476c1.011.542 1.553 1.705 1.316 2.827-.304 1.438-.936 2.887-1.877 4.303-.675 1.021-1.975 1.412-3.095.989-.21-.078-.419-.171-.629-.257.462-1.069 1.036-2.979 1.202-4.108.053-.362-.395-.569-.656-.313-1.235 1.211-2.665 2.5-3.416 3.019-.477-.276-.942-.56-1.375-.858-.615-.423-1.017-1.089-1.101-1.827-.085-.743.158-1.487.666-2.042.809-.885 1.52-1.796 2.112-2.709.744-1.146 2.208-1.524 3.407-.88l.8.431 3.125-6.191c.249-.492.851-.69 1.343-.442.493.249.691.851.442 1.343zm-15.392.55c4.694 0 8.5-2.015 8.5-4.5s-3.806-4.5-8.5-4.5-8.5 2.015-8.5 4.5 3.806 4.5 8.5 4.5zm0 5c1.608 0 3.076-.201 4.329-.524.087-.126.188-.251.269-.376.875-1.348 2.316-2.082 3.807-2.095.056-.146.095-.293.095-.438v-2.167c-1.876 1.596-4.92 2.6-8.5 2.6s-6.624-1.004-8.5-2.6v2.167c0 1.621 3.635 3.433 8.5 3.433zm3.464 8.414c-.586-.403-1.052-.936-1.391-1.542-.669.077-1.357.128-2.073.128-3.58 0-6.624-1.004-8.5-2.6v2.167c0 1.621 3.635 3.433 8.5 3.433 1.86 0 3.538-.266 4.904-.684-.545-.317-1.02-.612-1.44-.902zm-3.464-3.414c.52 0 1.019-.029 1.508-.068-.07-1.117.276-2.21.965-3.094-.792.095-1.609.162-2.474.162-3.58 0-6.624-.839-8.5-2.174v1.74c0 1.621 3.635 3.434 8.5 3.434z"/></svg>