<svg id="Layer_1" viewBox="0 0 24 24" xmlns="http://www.w3.org/2000/svg" data-name="Layer 1"><path d="m23 9h-5c-.398 0-.759-.237-.917-.603-.159-.366-.084-.791.188-1.082.785-.836 1.962-1.316 3.229-1.316s2.445.479 3.229 1.316c.179.191.271.47.271.694 0 .491-.464 1-1 .991zm-16.082 14.397c.158-.366.084-.791-.189-1.082-.785-.836-1.962-1.315-3.229-1.315s-2.444.479-3.229 1.315c-.177.189-.271.435-.271.685 0 .538.446 1 1 1h5c.399 0 .759-.237.918-.603zm13.582-18.397c1.381 0 2.5-1.119 2.5-2.5s-1.119-2.5-2.5-2.5-2.5 1.119-2.5 2.5 1.119 2.5 2.5 2.5zm-17 15c1.381 0 2.5-1.119 2.5-2.5s-1.119-2.5-2.5-2.5-2.5 1.119-2.5 2.5 1.119 2.5 2.5 2.5zm1.5-9.706.759-.528c.745-.556 1.771-.538 2.525.062l1.442 1.149c.044.035.071.035.116 0l1.361-1.083c.779-.621 1.827-.62 2.605 0l1.361 1.083c.043.034.071.035.115 0l.823-.656c-.365-.298-.666-.678-.861-1.129-.476-1.096-.254-2.37.564-3.244.304-.324.648-.61 1.02-.859-.519-.734-.831-1.624-.831-2.589 0-.808.231-1.557.606-2.213-.507-.173-1.041-.287-1.606-.287h-10.337c.217.455.338.964.338 1.5zm13.066 1.116c-.045-.035-.071-.035-.116 0l-1.419 1.131c-.779.62-1.826.621-2.606 0l-1.362-1.084c-.044-.035-.07-.035-.114 0l-1.362 1.083c-.779.621-1.827.621-2.606 0l-1.442-1.149c-.047-.037-.072-.031-.11-.004l-1.928 1.342v.546c1.742.621 3 2.271 3 4.224 0 .965-.312 1.855-.831 2.589.371.248.714.533 1.018.857.657.7.923 1.658.76 2.577.632-.453 1.052-1.182 1.053-2.018.005-2.488 2.014-4.505 4.501-4.505h5.499v-4.049l-1.934-1.541zm-16.566-11.41c-.828 0-1.5.672-1.5 1.5v1c0 1.381 1.119 2.5 2.5 2.5h.5v-3.5c0-.828-.672-1.5-1.5-1.5zm20.499 19h-7.498c-1.381 0-2.5 1.119-2.5 2.5 0 .924-.28 1.784-.76 2.5h9.35c1.586 0 2.925-1.054 3.355-2.5.017-.057.033-.176.047-.332.106-1.165-.824-2.168-1.993-2.168z"/></svg>