<?xml version="1.0" encoding="UTF-8"?>
<svg xmlns="http://www.w3.org/2000/svg" id="Layer_1" data-name="Layer 1" viewBox="0 0 24 24">
  <path d="m12,0C5.373,0,0,5.373,0,12s5.373,12,12,12,12-5.373,12-12S18.627,0,12,0Zm-4.156,10.117l-3.045,5.472c-.146.264-.419.411-.7.411-.132,0-.265-.032-.388-.101-.387-.215-.525-.702-.311-1.088l2.901-5.212h-2.502c-.441,0-.8-.358-.8-.8s.358-.8.8-.8h2.737c.511,0,.976.259,1.244.694s.292.966.062,1.423Zm3.656,5.883h-1.7c-.441,0-.8-.358-.8-.8s.358-.8.8-.8h1.7c.496,0,.9-.404.9-.9s-.404-.9-.9-.9h-1.2c-.717,0-1.3-.583-1.3-1.3v-1.5c0-.993.808-1.8,1.8-1.8h1.9c.441,0,.8.358.8.8s-.358.8-.8.8h-1.9c-.11,0-.2.09-.2.2v1.2h.9c1.379,0,2.5,1.122,2.5,2.5s-1.121,2.5-2.5,2.5Zm3.5-6.769c0-.69.56-1.25,1.25-1.25s1.25.56,1.25,1.25-.56,1.25-1.25,1.25-1.25-.56-1.25-1.25Zm1.344,6.75c-.635,0-1.017-.705-.67-1.237l4.178-6.4c.148-.226.4-.363.67-.363.635,0,1.017.705.67,1.237l-4.178,6.4c-.148.226-.4.363-.67.363Zm4.406,0c-.69,0-1.25-.56-1.25-1.25s.56-1.25,1.25-1.25,1.25.56,1.25,1.25-.56,1.25-1.25,1.25Z"/>
</svg>
