<svg id="Layer_1" viewBox="0 0 24 24" xmlns="http://www.w3.org/2000/svg" data-name="Layer 1"><path d="m1.672 15.313 4.026-12.515c.656-2.097 2.904-3.272 5.007-2.616 1.596.766 1.307 1.836 1.307 1.836s.827.033.52 1.007-1.486 4.693-1.768 5.539-.976.46-.976.46l-2.331 7.683c-1.002-1.049-2.41-1.707-3.971-1.707-.636 0-1.244.114-1.813.314zm22.133-1.947c-.51-1.571-1.794-1.29-1.794-1.29s-.151-.743-.996-.487-4.613 1.436-5.459 1.744-.524 1.04-.524 1.04l-7.551 2.359c.702.746 1.192 1.681 1.395 2.691.211 1.038.103 2.161-.295 3.137l3.36-1.115 9.242-3.068c2.104-.657 3.281-2.905 2.623-5.012zm-20.319 10.634c1.932 0 3.498-1.567 3.498-3.5s-1.566-3.5-3.498-3.5-3.499 1.567-3.499 3.5 1.566 3.5 3.498 3.5z"/></svg>