<svg id="Layer_1" viewBox="0 0 24 24" xmlns="http://www.w3.org/2000/svg" data-name="Layer 1"><path d="m16.791 13.27-4.789 2.737-4.792-2.739c.243-.237.516-.447.819-.619l1.996-1.13c1.214-.688 2.724-.689 3.939-.002l2.004 1.132c.304.172.579.382.823.62zm-10.79 2.86v2.715c0 1.432.771 2.763 2.015 3.473l2.021 1.155c.303.173.628.304.963.393v-6.127s-4.824-2.758-4.824-2.758c-.111.369-.175.754-.175 1.149zm7.001 1.609v6.138c.333-.085.658-.211.962-.38l1.979-1.099c1.27-.704 2.059-2.044 2.059-3.496v-2.771c0-.396-.064-.781-.175-1.15l-4.824 2.757zm7.998-8.315v-.424c0-4.962-4.037-9-9-9s-9 4.038-9 9v.424c-1.763.774-3 2.531-3 4.576 0 2.414 1.72 4.434 3.999 4.899v-2.767c0-2.138 1.148-4.118 2.995-5.189-.031-1.261-1.04-1.943-1.994-1.943 0-3.86 3.141-7 7-7s7 3.14 7 7c-.955 0-1.963.683-1.994 1.943 1.848 1.07 2.995 3.051 2.995 5.189v2.767c2.279-.465 3.999-2.485 3.999-4.899 0-2.045-1.237-3.802-3-4.576z"/></svg>