<svg id="Layer_1" viewBox="0 0 24 24" xmlns="http://www.w3.org/2000/svg" data-name="Layer 1"><path d="m22.999 24c-.226 0-.452-.076-.64-.232-.249-.208-1.238-1.046-2.364-2.191-1.035 1.054-1.967 1.863-2.35 2.187-.422.358-1.053.304-1.408-.117-.357-.421-.305-1.052.116-1.409.711-.602 1.51-1.348 2.277-2.143-1.391-1.629-2.631-3.522-2.631-5.094 0-2.206 1.794-4 4-4s4 1.794 4 4c0 1.563-1.246 3.461-2.649 5.104.791.811 1.604 1.556 2.29 2.128.724.561.256 1.802-.642 1.768zm-2.999-11c-1.103 0-2 .897-2 2 0 .915.854 2.257 1.981 3.599 1.156-1.38 2.019-2.733 2.019-3.599 0-1.103-.897-2-2-2zm-17.948-4.349-1.656 7.177c-.314 1.364-.475 2.767-.475 4.169 0 1.07.415 2.074 1.17 2.827.748.748 1.777 1.176 2.826 1.176h.006c.427 0 .853-.07 1.204-.19l2.637-.703c1.861-.496 3.156-2.181 3.156-4.107v-4.152c-.6.539-1.302.974-2.103 1.241l-2.581.86c-.51.175-1.091-.104-1.265-.632-.175-.524.108-1.09.632-1.265l2.581-.86c1.636-.545 2.735-2.07 2.735-3.795v-6.397h-3.022c-2.794 0-5.219 1.929-5.847 4.651zm10.869-7.651c0-.552-.447-1-1-1s-1 .448-1 1v3h2zm1.315 12.348c.72-2.507 3.028-4.348 5.763-4.348.682 0 1.336.12 1.947.331l-.157-.679c-.628-2.723-3.053-4.651-5.847-4.651h-3.022v6.396c0 1.154.5 2.21 1.315 2.952z"/></svg>