<svg id="Layer_1" viewBox="0 0 24 24" xmlns="http://www.w3.org/2000/svg" data-name="Layer 1"><path d="m22.389 13.593c-1.039-1.039-2.42-1.611-3.889-1.611s-2.85.572-3.889 1.611c-2.145 2.145-2.145 5.634.008 7.786l1.833 1.792c.565.553 1.307.829 2.049.829s1.484-.276 2.049-.829l1.84-1.8c2.145-2.145 2.145-5.634 0-7.778zm-3.889 5.383c-.828 0-1.5-.672-1.5-1.5s.672-1.5 1.5-1.5 1.5.672 1.5 1.5-.672 1.5-1.5 1.5zm-5.28 3.833c-.637-.637-1.128-1.362-1.489-2.131-.182.196-.438.323-.727.323h-1c-.553 0-1-.448-1-1s.447-1 1-1h1c.061 0 .114.024.172.035-.142-.672-.188-1.358-.145-2.04-.009 0-.017.005-.027.005h-1c-.553 0-1-.448-1-1s.447-1 1-1h1c.143 0 .278.032.401.086.356-1.063.948-2.063 1.793-2.907 1.057-1.057 2.374-1.759 3.807-2.047v-9.133c0-.552-.447-1-1-1s-1 .448-1 1v2h-3v-2c0-.552-.447-1-1-1s-1 .448-1 1v2h-3v-2c0-.552-.447-1-1-1s-1 .448-1 1v2h-3.002v-2c0-.552-.447-1-1-1s-1 .448-1 1v18c0 2.757 2.243 5 5 5h9.434l-1.218-1.191zm-1.217-17.809h3v3h-3zm-1 6c.553 0 1 .448 1 1s-.447 1-1 1h-1c-.553 0-1-.448-1-1s.447-1 1-1zm-5 10h-1c-.553 0-1-.448-1-1s.447-1 1-1h1c.553 0 1 .448 1 1s-.447 1-1 1zm0-4h-1c-.553 0-1-.448-1-1s.447-1 1-1h1c.553 0 1 .448 1 1s-.447 1-1 1zm0-4h-1c-.553 0-1-.448-1-1s.447-1 1-1h1c.553 0 1 .448 1 1s-.447 1-1 1zm1-8h3v3h-3z"/></svg>