<svg id="Layer_1" viewBox="0 0 24 24" xmlns="http://www.w3.org/2000/svg" data-name="Layer 1"><path d="m12 24c-6.617 0-12-5.383-12-12 0-.553.448-1 1-1s1 .447 1 1c0 5.514 4.486 10 10 10s10-4.486 10-10c0-.553.448-1 1-1s1 .447 1 1c0 6.617-5.383 12-12 12zm4.56-16.561c-.585-.585-1.536-.585-2.121 0s-.585 1.536 0 2.121 1.536.585 2.121 0 .585-1.536 0-2.121zm7.44.561c0-4.411-3.589-8-8-8-.552 0-1 .447-1 1s.448 1 1 1c3.309 0 6 2.691 6 6 0 .553.448 1 1 1s1-.447 1-1zm-3.5 0c0-2.481-2.019-4.5-4.5-4.5-.552 0-1 .447-1 1s.448 1 1 1c1.378 0 2.5 1.121 2.5 2.5 0 .553.448 1 1 1s1-.447 1-1zm-1 3c-.466 0-.902-.116-1.296-.306-.076.094-.142.194-.229.281h-.002c-.682.683-1.578 1.022-2.474 1.022s-1.792-.34-2.474-1.021c-1.365-1.366-1.365-3.586-.001-4.951.088-.088.188-.154.282-.23-.19-.393-.306-.829-.306-1.294 0-.655.217-1.256.574-1.75-.357-.494-.574-1.095-.574-1.75 0-.318.063-.619.155-.907-.378-.055-.762-.093-1.155-.093-4.072-.001-7.436 3.059-7.931 6.999h4.931c.552 0 1 .447 1 1s-.448 1-1 1h-5v2h5c.552 0 1 .447 1 1s-.448 1-1 1h-4.931c.495 3.94 3.859 7 7.931 7 4.411 0 8-3.589 8-8v-1.051c-.163.028-.329.051-.5.051z"/></svg>