<?xml version="1.0" encoding="UTF-8"?>
<svg xmlns="http://www.w3.org/2000/svg" id="Layer_1" data-name="Layer 1" viewBox="0 0 24 24">
  <path d="m23.707,20.588l-2.535,2.535c-.585.584-1.354.877-2.122.877s-1.536-.292-2.121-.876l-2.636-2.636c-.391-.391-.391-1.023,0-1.414s1.023-.391,1.414,0l2.293,2.293V1c0-.552.447-1,1-1s1,.448,1,1v20.467l2.293-2.293c.391-.391,1.023-.391,1.414,0s.391,1.023,0,1.414ZM6.5,2C2.91,2,0,3.343,0,5s2.91,3,6.5,3,6.5-1.343,6.5-3-2.91-3-6.5-3Zm0,12c-3.792,0-6.5-1.529-6.5-3.5v2c0,1.995,2.794,3.5,6.5,3.5s6.5-1.505,6.5-3.5v-2c0,1.971-2.708,3.5-6.5,3.5Zm0-4c-3.792,0-6.5-1.529-6.5-3.5v2c0,1.995,2.794,3.5,6.5,3.5s6.5-1.505,6.5-3.5v-2c0,1.971-2.708,3.5-6.5,3.5Zm0,12c-3.792,0-6.5-1.529-6.5-3.5v2c0,1.995,2.794,3.5,6.5,3.5s6.5-1.505,6.5-3.5v-2c0,1.971-2.708,3.5-6.5,3.5Zm0-4c-3.792,0-6.5-1.529-6.5-3.5v2c0,1.995,2.794,3.5,6.5,3.5s6.5-1.505,6.5-3.5v-2c0,1.971-2.708,3.5-6.5,3.5Z"/>
</svg>
