<svg id="Layer_1" viewBox="0 0 24 24" xmlns="http://www.w3.org/2000/svg" data-name="Layer 1"><path d="m15.462 13.582c-.251-.084-.485-.2-.724-.307-.946 1.426-2.532 2.725-4.737 2.725-2.333 0-3.983-1.453-4.904-2.973-.321-.53.211-1.175.804-.996 1.263.38 2.959.971 4.1.97.869 0 2.056-.341 3.132-.672-1.9-1.461-3.133-3.746-3.133-6.328 0-2.325.998-4.412 2.582-5.874-.878-.079-1.743-.126-2.582-.126-1.9 0-3.911.204-5.977.604-2.332.45-4.023 2.512-4.023 4.903v9.1c.002 3.789 4.135 6.856 7.602 8.763.735.404 1.561.621 2.408.629.829-.008 1.656-.225 2.39-.629 3.467-1.906 7.6-4.974 7.602-8.764v-.388c-.532.48-1.229.781-2 .781-1.072 0-2.008-.57-2.538-1.418zm-10.395-5.575c.426-.857 1.122-1.508 1.933-1.507.809 0 1.506.651 1.934 1.506.234.468-.172.994-.756.994h-2.355c-.583 0-.989-.525-.756-.993zm12.933-.507c-.828 0-1.5-.672-1.5-1.5s.672-1.5 1.5-1.5 1.5.672 1.5 1.5-.672 1.5-1.5 1.5zm6-1.5c0 1.311-.415 2.556-1.201 3.601-.332.442-.959.53-1.4.199-.442-.332-.531-.958-.199-1.4.523-.696.799-1.526.799-2.399 0-2.206-1.794-4-4-4s-4 1.794-4 4c0 .874.276 1.704.799 2.4.332.441.243 1.068-.199 1.4-.437.33-1.067.246-1.4-.199-.786-1.045-1.201-2.291-1.201-3.601 0-3.309 2.691-6 6-6s6 2.691 6 6zm-6 3c.552 0 1 .448 1 1v2c0 .552-.448 1-1 1s-1-.448-1-1v-2c0-.552.448-1 1-1z"/></svg>