<svg id="Layer_1" viewBox="0 0 24 24" xmlns="http://www.w3.org/2000/svg" data-name="Layer 1"><path d="m20.564 4.333c.536 0 1.031.286 1.299.75l1.058 1.833c.268.464.268 1.036 0 1.5l-1.058 1.833c-.268.464-.763.75-1.299.75h-2.116c-.536 0-1.031-.286-1.299-.75l-1.059-1.834c-.268-.464-.268-1.036 0-1.5l1.058-1.833c.268-.464.763-.75 1.299-.75h2.117zm-6.207 10.25c-.268.464-.763.75-1.299.75h-2.116c-.536 0-1.031-.286-1.299-.75l-1.059-1.833c-.268-.464-.268-1.036 0-1.501l1.059-1.834c.268-.464.763-.75 1.299-.75h2.116c.536 0 1.031.286 1.299.75l1.059 1.833c.268.464.268 1.036 0 1.501zm-5.773-11.999 1.059-1.834c.268-.464.763-.75 1.299-.75h2.116c.536 0 1.031.286 1.299.75l1.059 1.833c.268.464.268 1.036 0 1.501l-1.059 1.833c-.268.464-.763.75-1.299.75h-2.117c-.536 0-1.031-.286-1.299-.749l-1.059-1.833c-.268-.464-.268-1.036 0-1.501zm-7.505 4.332 1.058-1.833c.268-.464.763-.75 1.299-.75h2.116c.536 0 1.031.286 1.299.75l1.059 1.833c.268.464.268 1.036 0 1.5l-1.058 1.833c-.268.464-.763.75-1.299.75h-2.117c-.536 0-1.031-.286-1.299-.75l-1.058-1.834c-.268-.464-.268-1.036 0-1.5zm2.357 12.75c-.536 0-1.031-.286-1.299-.75l-1.058-1.833c-.268-.464-.268-1.036 0-1.5l1.058-1.833c.268-.464.763-.75 1.299-.75h2.116c.536 0 1.031.286 1.299.75l1.059 1.834c.268.464.268 1.036 0 1.5l-1.058 1.833c-.268.464-.763.75-1.299.75h-2.117zm11.98 1.75-1.059 1.834c-.268.464-.763.75-1.299.75h-2.116c-.536 0-1.031-.286-1.299-.75l-1.059-1.833c-.268-.464-.268-1.036 0-1.501l1.059-1.833c.268-.464.763-.75 1.299-.75h2.117c.536 0 1.031.286 1.299.749l1.059 1.833c.268.464.268 1.036 0 1.501zm7.505-4.333-1.058 1.833c-.268.464-.763.75-1.299.75h-2.116c-.536 0-1.031-.286-1.299-.75l-1.059-1.833c-.268-.464-.268-1.036 0-1.5l1.058-1.833c.268-.464.763-.75 1.299-.75h2.117c.536 0 1.031.286 1.299.75l1.058 1.834c.268.464.268 1.036 0 1.5z"/></svg>