<svg id="Layer_1" viewBox="0 0 24 24" xmlns="http://www.w3.org/2000/svg" data-name="Layer 1"><path d="m21 5v-1.277c-.595-.346-1-.984-1-1.723 0-1.105.895-2 2-2s2 .895 2 2c0 .738-.405 1.376-1 1.723v1.277c0 1.654-1.346 3-3 3h-5c-.553 0-1-.448-1-1s.447-1 1-1h5c.552 0 1-.449 1-1zm2 15.277v-1.277c0-1.654-1.346-3-3-3h-5c-.553 0-1 .448-1 1s.447 1 1 1h5c.552 0 1 .449 1 1v1.277c-.595.346-1 .984-1 1.723 0 1.105.895 2 2 2s2-.895 2-2c0-.738-.405-1.376-1-1.723zm-1-10.277c-.738 0-1.376.405-1.723 1h-5.277c-.553 0-1 .448-1 1s.447 1 1 1h5.277c.346.595.984 1 1.723 1 1.105 0 2-.895 2-2s-.895-2-2-2zm-10 7v-1c-2.206 0-4-1.794-4-4s1.794-4 4-4v-1c0-1.657 1.343-3 3-3v-1c0-1.654-1.346-3-3-3s-3 1.346-3 3v.522c-1.047.37-2.016.929-2.857 1.649l-.45-.258c-.693-.4-1.503-.505-2.277-.296-.773.208-1.419.706-1.819 1.401-.825 1.434-.329 3.271 1.105 4.097l.451.259c-.102.544-.153 1.088-.153 1.625s.051 1.082.153 1.625l-.451.26c-1.434.825-1.93 2.663-1.105 4.096.399.695 1.045 1.192 1.819 1.401.775.21 1.583.104 2.277-.295l.45-.259c.841.72 1.81 1.28 2.857 1.649v.522c0 1.654 1.346 3 3 3s3-1.346 3-3v-1c-1.657 0-3-1.343-3-3zm0-7c-1.103 0-2 .897-2 2s.897 2 2 2c.238 0 .463-.049.675-.125-.416-.515-.675-1.161-.675-1.875s.259-1.36.675-1.875c-.212-.077-.437-.125-.675-.125z"/></svg>