<svg id="Layer_1" viewBox="0 0 24 24" xmlns="http://www.w3.org/2000/svg" data-name="Layer 1"><path d="m8 24c-2.411 0-4.311-1.285-5.389-3.631-1.579-.778-2.611-2.405-2.611-4.179 0-.901.258-1.769.741-2.516-.52-.806-.793-1.72-.793-2.674 0-1.085.379-2.574 2.095-3.747v-.492c0-1.821 1.314-3.209 3.233-3.542.372-1.864 1.852-3.219 3.673-3.219 2.013 0 4.051 1.374 4.051 4v15c0 2.57-2.43 5-5 5zm6.251-2.024c.076.007.149.024.227.024h3.021c1.381 0 2.5-1.119 2.5-2.5v-.5h-5c0 1.043-.277 2.055-.749 2.976zm7.358-17.68c-1.541-1.516-3.582-2.328-5.745-2.295-.387.006-.767.049-1.141.111.175.574.277 1.201.277 1.888v5c0 .552.448 1 1 1s1-.448 1-1 .447-1 1-1 1 .447 1 1c0 1.302-.839 2.402-2 2.816v5.184h3.468c.228-.391.522-.76.907-1.081.659-.55 1.279-1.163 1.66-1.932 1.737-3.513 1.048-7.259-1.426-9.691z"/></svg>