<svg id="Layer_1" viewBox="0 0 24 24" xmlns="http://www.w3.org/2000/svg" data-name="Layer 1"><path d="m4.232 6c.123-.525.348-1.079.57-1.575.567-1.324 1.792-2.22 3.198-2.389v-1.036c0-.553.447-1 1-1s1 .447 1 1v1h5.521c1.603 0 3.046.952 3.677 2.425.222.497.447 1.049.57 1.575zm-.226 2c.003.092.191 3 .191 3h3.803c.553 0 1 .447 1 1s-.447 1-1 1h-3.669l.133 2h3.536c.553 0 1 .447 1 1s-.447 1-1 1h-3.403l.133 2h3.269c.553 0 1 .447 1 1s-.447 1-1 1h-2.824c.779 1.767 2.538 3 4.566 3h4.516c2.622 0 4.813-2.05 4.989-4.668.012-.324.752-11.021.746-11.332h-15.985z"/></svg>