<svg id="Layer_1" viewBox="0 0 24 24" xmlns="http://www.w3.org/2000/svg" data-name="Layer 1"><path d="m24 16.407v2.593c0 2.757-2.243 5-5 5h-15.984c-.989 0-1.882-.464-2.449-1.273-.567-.809-.704-1.85-.366-2.784 1.271-3.5 4.89-5.943 8.799-5.943s7.527 2.443 8.798 5.942c.244.673.242 1.401.01 2.058h1.192c1.654 0 3-1.346 3-3v-2.593c0-.288-.124-.562-.342-.753l-1.054-.922c-.334.166-.706.268-1.104.268-1.381 0-2.5-1.119-2.5-2.5s1.119-2.5 2.5-2.5 2.5 1.119 2.5 2.5c0 .244-.046.476-.111.699l1.087.951c.651.57 1.024 1.394 1.024 2.258zm-21.653-2.836c1.056-.636 2.226-1.101 3.474-1.352-1.583-.861-3.001-2.386-3.321-4.219.212-1.25.577-2.346.839-3h1.43c1.25 0 2.214-.212 3.025-.717.648-.404 1.177-.946 1.557-1.584.237-.398.721-.595 1.158-.44.006.002.013.005.019.007.588.212.871.9.553 1.438-1.174 2.118-3.704 3.334-6.082 3.296-.038 0-.41 0-.69 0 .361 2.264 2.327 3.999 4.69 3.999 1.751 0 3.284-.953 4.108-2.368.031.129.682 2.5 1.132 4.219.291.122.561.279.839.425-.044-.253-.078-.51-.078-.776 0-1.267.527-2.407 1.369-3.224-.119-.484-.231-.94-.339-1.377.566-.215.97-.758.97-1.399v-1c0-.828-.672-1.5-1.5-1.5h-.52c-1.004-2.408-3.326-3.999-5.98-3.999s-4.977 1.591-5.98 4h-.52c-.828 0-1.5.672-1.5 1.5v1c0 .643.407 1.188.976 1.401-.257 1.044-.67 2.709-1.129 4.563-.217.875.728 1.572 1.5 1.107z"/></svg>