<?xml version="1.0" encoding="UTF-8"?>
<svg xmlns="http://www.w3.org/2000/svg" id="Layer_1" data-name="Layer 1" viewBox="0 0 24 24">
  <path d="M14,16h-4c-.828,0-1.5,.672-1.5,1.5v2c0,.828,.672,1.5,1.5,1.5h1v1c-.553,0-1,.448-1,1s.447,1,1,1h2c.553,0,1-.448,1-1s-.447-1-1-1v-1h1c.828,0,1.5-.672,1.5-1.5v-2c0-.828-.672-1.5-1.5-1.5Zm8.5,0h-4c-.828,0-1.5,.672-1.5,1.5v2c0,.828,.672,1.5,1.5,1.5h1v1c-.553,0-1,.448-1,1s.447,1,1,1h2c.553,0,1-.448,1-1s-.447-1-1-1v-1h1c.828,0,1.5-.672,1.5-1.5v-2c0-.828-.672-1.5-1.5-1.5Zm-17,0H1.5c-.828,0-1.5,.672-1.5,1.5v2c0,.828,.672,1.5,1.5,1.5h1v1c-.553,0-1,.448-1,1s.447,1,1,1h2c.553,0,1-.448,1-1s-.447-1-1-1v-1h1c.828,0,1.5-.672,1.5-1.5v-2c0-.828-.672-1.5-1.5-1.5Zm-1.5-1c.553,0,1-.448,1-1,0-.276,.225-.5,.5-.5h5.5v.5c0,.552,.447,1,1,1s1-.448,1-1v-.5h5.5c.275,0,.5,.224,.5,.5,0,.552,.447,1,1,1s1-.448,1-1c0-1.378-1.121-2.5-2.5-2.5h-5.5v-1.5h1.049c2.189,0,3.782-1.159,4.059-2.951,.252-1.633-.664-3.232-2.185-3.832C15.538,1.277,13.781-.113,11.786,.006c-2.123,.111-3.786,1.94-3.786,4.164h0c-1.366,.481-2.187,1.845-1.964,3.298,.222,1.443,1.542,2.532,3.071,2.532h1.893v1.5H5.5c-1.379,0-2.5,1.122-2.5,2.5,0,.552,.447,1,1,1Z"/>
</svg>
