<svg id="Layer_1" viewBox="0 0 24 24" xmlns="http://www.w3.org/2000/svg" data-name="Layer 1"><path d="m24 10v-1.085c0-.955-.555-1.839-1.428-2.258-1.451-.696-2.821-1.354-3.333-3.399l-.239-.758v-2.5c-1.654 0-2.994 1.339-2.999 2.991-2.313 1.113-3.001 3.878-3.001 5.507 0 .035.462 3.425-2 3.502-.448-.046-1.832.169-2.654.356-.591-1.702-2.488-4.356-6.346-4.356v2c3.002 0 4.11 2.12 4.425 2.932-4.22 1.644-6.313 4.906-6.427 5.089l1.694 1.062c.131-.207 3.295-5.084 9.776-5.084.27 0 .531.021.793.038l-3.945 3.226 3.529 2.336-2.792 2.4h-4.053v2h14v-2h-6.878l3.033-2.607-3.471-2.299 3.21-2.624c4.6 1.269 7.452 4.673 7.487 4.716l1.548-1.267c-.105-.129-1.508-1.802-3.929-3.337v-4.082l4-.5z"/></svg>