<svg id="Layer_1" viewBox="0 0 24 24" xmlns="http://www.w3.org/2000/svg" data-name="Layer 1"><path d="m10 19c0 2.761-2.239 5-5 5s-5-2.239-5-5c0-2.419 1.718-4.436 4-4.899v2.587c-.5.688-1 1.562-1 2.312 0 1.105.895 2 2 2s2-.895 2-2c0-.75-.5-1.625-1-2.312v-2.587c2.282.463 4 2.48 4 4.899z"/><path d="m21.922 1.072c-1.337-1.004-3.027-1.31-4.648-.842-1.56.453-3.729.77-5.274.77s-3.715-.316-5.274-.77c-1.62-.47-3.31-.163-4.648.842-1.32.991-2.078 2.509-2.078 4.163v8.871c1.271-1.298 3.04-2.106 5-2.106.695 0 1.366.105 2 .294v-4.627c1.165.148 3.016.333 5 .333s3.836-.189 5-.342v2.741c-.746.377-1.575.761-2.181 1.4-1.156 1.124-1.819 2.693-1.819 4.305v1.396c0 1.58 1.059 2.903 2.5 3.337v2.163c0 .552.447 1 1 1s1-.448 1-1v-2.163c1.441-.434 2.5-1.757 2.5-3.337v-.683c.576-.286 1.194-.567 1.681-.964 1.474-1.145 2.319-2.872 2.319-4.739v-5.879c0-1.654-.758-3.172-2.078-4.163z"/></svg>