<svg id="Layer_1" viewBox="0 0 24 24" xmlns="http://www.w3.org/2000/svg" data-name="Layer 1"><path d="m11 5.5c0-3.033 2.467-5.5 5.5-5.5s5.5 2.467 5.5 5.5-2.467 5.5-5.5 5.5-5.5-2.467-5.5-5.5zm13 14.5v3c0 .552-1 1-1 1h-12c-.552 0-1-.448-1-1v-4.278c0-.769-.365-1.492-.983-1.949l-2.337-1.726c-.12-.089-.233-.186-.339-.292l-5.462-5.462c-.563-.563-.879-1.326-.879-2.122v-3.171c0-.552.448-1 1-1h1c.552 0 1 .448 1 1v3c0 .43-.274.789-.656.93l4.191 4.191c.562.562 1.325.878 2.121.878h8.344c3.866 0 7 3.134 7 7zm-22.522-18h.522c1.103 0 2 .897 2 2v.554l.889.381c.3.128.647.062.878-.169s.297-.578.169-.878l-.59-1.376.59-1.376c.128-.3.062-.647-.169-.878s-.578-.297-.878-.169l-1.368.586-1.345-.605c-.297-.134-.646-.073-.88.153-.235.226-.308.573-.185.874z"/></svg>