<svg id="Layer_1" viewBox="0 0 24 24" xmlns="http://www.w3.org/2000/svg" data-name="Layer 1"><path d="m19.866 3.676c-.311.458-.932.577-1.389.268l-1.884-1.275c-.653-.436-1.422-.668-2.214-.668h-3.38v3h-6v-1.5c0-1.93 1.57-3.5 3.5-3.5h5.88c1.188 0 2.34.349 3.329 1.008l1.89 1.279c.457.31.577.932.268 1.389zm1.134 8.324c1.105 0 2-.895 2-2s-.895-2-2-2-2 .895-2 2 .895 2 2 2zm-5 2v5c0 2.757-2.243 5-5 5h-6c-2.757 0-5-2.243-5-5v-5c0-2.84 1.458-5.442 3.725-7h8.549c2.267 1.558 3.725 4.16 3.725 7zm-5.533.018-.961-.94c-.844-.824-2.167-.824-3.013 0l-.968.947c-1.364 1.364-1.364 3.585 0 4.949.661.661 1.54 1.025 2.475 1.025s1.813-.364 2.475-1.025c1.364-1.364 1.364-3.585-.008-4.957zm-2.359.49c-.03-.029-.069-.044-.108-.044s-.078.015-.109.045l-.959.938c-.577.577-.577 1.528.008 2.113.566.566 1.555.566 2.121 0 .585-.585.585-1.536 0-2.121l-.952-.932zm13.22 2.602c.11-.265.172-.555.172-.86 0-1.243-1.007-2.25-2.25-2.25-.463 0-.892.14-1.25.38v4.62c0 1.061-.244 2.063-.668 2.965.556 1.198 1.763 2.035 3.168 2.035 1.93 0 3.5-1.57 3.5-3.5 0-1.643-1.143-3.016-2.672-3.39z"/></svg>