<svg id="Layer_1" viewBox="0 0 24 24" xmlns="http://www.w3.org/2000/svg" data-name="Layer 1"><path d="m13 13c-1.118 0-2.141-.382-2.975-1.005-.009 0-.016.005-.025.005h-1c-.552 0-1-.447-1-1 0-.369.209-.677.505-.85-.314-.654-.505-1.377-.505-2.15h-3c-.552 0-1-.447-1-1v-2c0-.553.448-1 1-1h3v-1c0-1.13.391-2.162 1.026-3h-4.026c-2.757 0-5 2.243-5 5v14c0 2.757 2.243 5 5 5h9c2.414 0 4.434-1.721 4.899-4h.101c.553 0 1-.447 1-1v-6zm-7 7h-1c-.552 0-1-.447-1-1s.448-1 1-1h1c.552 0 1 .447 1 1s-.448 1-1 1zm0-4h-1c-.552 0-1-.447-1-1s.448-1 1-1h1c.552 0 1 .447 1 1s-.448 1-1 1zm0-4h-1c-.552 0-1-.447-1-1s.448-1 1-1h1c.552 0 1 .447 1 1s-.448 1-1 1zm4 8h-1c-.552 0-1-.447-1-1s.448-1 1-1h1c.552 0 1 .447 1 1s-.448 1-1 1zm0-4h-1c-.552 0-1-.447-1-1s.448-1 1-1h1c.552 0 1 .447 1 1s-.448 1-1 1zm4 4h-1c-.553 0-1-.447-1-1s.447-1 1-1h1c.553 0 1 .447 1 1s-.447 1-1 1zm0-4h-1c-.553 0-1-.447-1-1s.447-1 1-1h1c.553 0 1 .447 1 1s-.447 1-1 1zm10-13h-14c0-1.657 1.343-3 3-3h8c1.657 0 3 1.343 3 3zm0 2v3c0 1.657-1.343 3-3 3h-8c-1.657 0-3-1.343-3-3v-3z"/></svg>