<svg id="Layer_1" viewBox="0 0 24 24" xmlns="http://www.w3.org/2000/svg" data-name="Layer 1"><path d="m18 0c-3.314 0-6 2.686-6 6s2.686 6 6 6 6-2.686 6-6-2.686-6-6-6zm-1 3c0-.553.448-1 1-1s1 .447 1 1v2c0 .553-.448 1-1 1s-1-.447-1-1zm1 7c-.828 0-1.5-.672-1.5-1.5s.672-1.5 1.5-1.5 1.5.672 1.5 1.5-.672 1.5-1.5 1.5zm-8 6.093.957.898-.957.875zm.955-5.085-.955.89v-1.764zm9.032 2.734c.002.087.013.171.013.259 0 5.57-4.554 10.077-10.143 9.999-5.386-.076-9.781-4.472-9.857-9.858-.077-5.588 4.43-10.142 10-10.142.087 0 .172.011.259.013-.3 1.124-.341 2.405-.103 3.552l-.301-.275c-.204-.187-.471-.29-.747-.29-.611 0-1.107.496-1.107 1.107v3.367l-1.243-1.167c-.403-.378-1.036-.358-1.414.045-.378.403-.358 1.036.045 1.414l2.37 2.222-2.408 2.246c-.404.377-.426 1.009-.05 1.413.377.404 1.009.426 1.413.05l1.286-1.199v3.395c0 .611.496 1.107 1.107 1.107.277 0 .543-.104.747-.29l3.25-2.972c.43-.393.434-1.069.009-1.467l-2.428-2.278 2.087-1.946c1.403 1.214 3.227 1.953 5.228 1.953.687 0 1.351-.096 1.987-.259z"/></svg>