<svg id="Layer_1" viewBox="0 0 24 24" xmlns="http://www.w3.org/2000/svg" data-name="Layer 1"><path d="m12 7.4-1.068 1.046c-.577.578-.577 1.529.007 2.114.567.566 1.554.566 2.122 0 .582-.558.582-1.563 0-2.121l-1.061-1.04zm11.819-1.089c-.339-2.458-2.47-4.311-4.955-4.311h-2.864c0-1.103-.897-2-2-2h-4c-1.103 0-2 .897-2 2h-2.864c-2.486 0-4.616 1.854-4.956 4.311-.24 1.726-.24 3.652 0 5.378.34 2.458 2.47 4.311 4.956 4.311h13.729c2.485 0 4.616-1.854 4.955-4.311.241-1.726.241-3.652 0-5.378zm-9.345 5.664c-1.303 1.357-3.647 1.357-4.95 0-1.365-1.364-1.365-3.585 0-4.949l1.525-1.638c.528-.517 1.372-.517 1.9 0l1.518 1.63c1.366 1.31 1.367 3.648.007 4.957zm7.525 9.025c0 1.654-1.346 3-3 3-1.302 0-2.401-.839-2.816-2h-8.367c-.414 1.161-1.514 2-2.816 2-1.654 0-3-1.346-3-3s1.346-3 3-3c1.302 0 2.401.839 2.816 2h8.369c.414-1.161 1.514-2 2.816-2 1.654 0 3 1.346 3 3z"/></svg>