<svg id="Layer_1" viewBox="0 0 24 24" xmlns="http://www.w3.org/2000/svg" data-name="Layer 1"><path d="m2 2.5c0-1.381 1.119-2.5 2.5-2.5s2.5 1.119 2.5 2.5-1.119 2.5-2.5 2.5-2.5-1.119-2.5-2.5zm18.5-2.5h-12.26c.479.715.76 1.575.76 2.5 0 .529-.108 1.029-.276 1.5h5.157c1.451 0 2.784.978 3.06 2.402.372 1.915-1.092 3.598-2.942 3.598h-4v5h4v2.277c-.595.346-1 .984-1 1.723 0 1.105.895 2 2 2s2-.895 2-2c0-.738-.405-1.376-1-1.723v-2.277h4.5c1.933 0 3.5-1.567 3.5-3.5v-8c0-1.933-1.567-3.5-3.5-3.5zm-5.5 7c0-.552-.447-1-1-1h-10c-2.206 0-4 1.794-4 4v3c0 1.474.81 2.75 2 3.444v6.556c0 .553.447 1 1 1s1-.447 1-1v-6h2v6c0 .553.447 1 1 1s1-.447 1-1v-15h6c.553 0 1-.448 1-1z"/></svg>