<svg id="Layer_1" viewBox="0 0 24 24" xmlns="http://www.w3.org/2000/svg" data-name="Layer 1"><path d="m19.816 7.365c.785-1.273 1.184-2.349 1.184-3.198 0-2.298-1.869-4.167-4.167-4.167-1.146 0-2.268.532-3.066 1.51-2.025-.676-4.523-.627-6.522-.049-.812-.929-1.934-1.461-3.079-1.461-2.297 0-4.166 1.869-4.166 4.167 0 .85.398 1.925 1.181 3.193l-.35.594c-.544.922-.831 1.976-.831 3.046v1.504c0 1.249.401 2.484 1.174 3.56.971 1.465 3.508 3.942 6.21 5.186.973.485 2.04.729 3.108.729h.016c.18 0 .36-.017.539-.031-.663-1.165-1.047-2.51-1.047-3.947 0-1.807.606-3.469 1.617-4.808-.302.181-.672.308-1.117.308-1.289 0-2-1.025-2-1.55s.711-.95 2-.95 2 .425 2 .95c0 .092-.03.202-.073.317 1.441-1.401 3.404-2.267 5.573-2.267 1.051 0 2.052.208 2.972.577-.066-.923-.331-1.823-.802-2.622l-.353-.59zm-12.816 2.635c-.828 0-1.5-.672-1.5-1.5s.672-1.5 1.5-1.5 1.5.672 1.5 1.5-.672 1.5-1.5 1.5zm7 0c-.828 0-1.5-.672-1.5-1.5s.672-1.5 1.5-1.5 1.5.672 1.5 1.5-.672 1.5-1.5 1.5zm4 2c-3.314 0-6 2.686-6 6s2.686 6 6 6 6-2.686 6-6-2.686-6-6-6zm2.742 7.499-1.5 1.5c-.685.685-1.8.685-2.485 0l-1.5-1.5c-.252-.251-.329-.629-.19-.958.135-.328.456-.541.812-.541h1.121v-2c0-.553.448-1 1-1s1 .447 1 1v2h1.121c.355 0 .676.213.812.541.135.325.062.705-.19.958z"/></svg>