<svg id="Layer_1" viewBox="0 0 24 24" xmlns="http://www.w3.org/2000/svg" data-name="Layer 1"><path d="m14 16.462 5.829 2.292c1.913.752 3.171 2.598 3.171 4.653v.593h-16.462l-1.821-1.628c-.917-.858-.96-2.307-.098-3.23.861-.922 2.313-.97 3.235-.109.034.032 1.069.898 2.145 1.784v-8.817c0-1.215 1.083-2.176 2.336-1.973.983.16 1.664 1.083 1.664 2.08v4.355zm-6-2.462v-2c0-2.209 1.791-4 4-4 2.209 0 4 1.791 4 4v2h3c2.761 0 5-2.239 5-5v-4c0-2.761-2.239-5-5-5h-14c-2.761 0-5 2.239-5 5v4c0 2.761 2.239 5 5 5zm10-4c-.552 0-1-.448-1-1s.448-1 1-1h1c.552 0 1 .448 1 1s-.448 1-1 1zm-3-6h4c.553 0 1 .448 1 1s-.447 1-1 1h-4c-.553 0-1-.448-1-1s.447-1 1-1zm-5 0h1c.553 0 1 .448 1 1s-.447 1-1 1h-1c-.553 0-1-.448-1-1s.447-1 1-1zm-5 0h1c.553 0 1 .448 1 1s-.447 1-1 1h-1c-.553 0-1-.448-1-1s.447-1 1-1zm0 6c-.552 0-1-.448-1-1s.448-1 1-1h1c.552 0 1 .448 1 1s-.448 1-1 1z"/></svg>