<svg id="Layer_1" viewBox="0 0 24 24" xmlns="http://www.w3.org/2000/svg" data-name="Layer 1"><path d="m2.142 13c.447 1.72 1.999 3 3.858 3h7c2.016 0 3.671-1.504 3.944-3.445l-1.134.781c-.558.358-1.132.526-1.718.526-1.701 0-3.087-1.384-3.09-3.085l-.002-6.777v-2c0-.552-.447-1-1-1s-1 .448-1 1v2h-3c-2.206 0-4 1.794-4 4-1.103 0-2 .897-2 2v1c0 1.103.897 2 2 2zm4.358-4.5c.828 0 1.5.672 1.5 1.5s-.672 1.5-1.5 1.5-1.5-.672-1.5-1.5.672-1.5 1.5-1.5zm6.502 2.274-.002-7.772c0-1.65 1.35-3 3-3.001h1.701s0 .998 0 .998h-.325c-1.244 0-2.303.969-2.343 2.213-.037 1.118.747 2.1 1.838 2.319l2.938.588c.32.065.541.378.474.712-.057.287-.324.484-.617.484h-2.214c-.214 0-.407-.092-.542-.238-.179-.199-.433-.306-.699-.288-.689 0-1.063.803-.623 1.333.444.536 1.115.877 1.864.877h.248v1h-.572l-2.454 1.69c-.186.119-.387.173-.583.173-.566 0-1.089-.45-1.089-1.088zm5.978 12.027c.06.294-.017.599-.206.832-.19.232-.475.367-.774.367h-16c-.3 0-.584-.135-.774-.367-.189-.232-.266-.538-.206-.832.564-2.782 3.038-4.801 5.881-4.801h6.199c2.843 0 5.316 2.019 5.881 4.801zm5.02-19.801v4c0 1.657-1.343 3-3 3h-1.7v-1h.333c1.244 0 2.302-.969 2.343-2.212.037-1.119-.747-2.102-1.838-2.319l-2.939-.589c-.32-.064-.541-.379-.473-.713.058-.286.326-.483.618-.483h2.212c.214 0 .407.092.542.238.179.199.433.306.699.288.689 0 1.063-.803.623-1.333-.444-.536-1.115-.877-1.864-.877h-.257v-1h1.699c1.657 0 3.001 1.343 3.001 3z"/></svg>