<svg id="Layer_1" viewBox="0 0 24 24" xmlns="http://www.w3.org/2000/svg" data-name="Layer 1"><path d="m23.707 4.825-3.363-3.363c-1.948-1.948-5.12-1.948-7.068 0l-11.814 11.814c-1.949 1.948-1.949 5.12 0 7.068l3.363 3.363c.391.391 1.024.391 1.414 0s.391-1.024 0-1.414l-3.363-3.363c-.972-.973-1.123-2.448-.478-3.591l5.385 5.385c.391.391 1.024.391 1.414 0s.391-1.024 0-1.414l-5.471-5.471 1.459-1.459 5.471 5.471c.391.391 1.024.391 1.414 0s.391-1.024 0-1.414l-5.471-5.471 1.52-1.52 5.471 5.471c.391.391 1.024.391 1.414 0s.391-1.024 0-1.414l-5.471-5.471 1.533-1.533 5.471 5.471c.391.391 1.024.391 1.414 0s.391-1.024 0-1.414l-5.471-5.471 1.459-1.459 5.471 5.471c.391.391 1.024.391 1.414 0s.391-1.024 0-1.414l-5.353-5.354c1.123-.561 2.521-.387 3.456.548l3.363 3.363c.391.391 1.024.391 1.414 0s.391-1.024 0-1.414z"/></svg>