<svg id="Layer_1" viewBox="0 0 24 24" xmlns="http://www.w3.org/2000/svg" data-name="Layer 1"><path d="m8.131 19.007c0 .492-.4.893-.893.893h-1.738l-.013-1.785h1.752c.492 0 .893.4.893.892zm4.869-1.507c0 3.59-2.91 6.5-6.5 6.5s-6.5-2.91-6.5-6.5 2.91-6.5 6.5-6.5 6.5 2.91 6.5 6.5zm-3.269 1.507c0-.734-.481-1.507-1.058-1.843.275-.381.441-.844.441-1.349 0-1.106-.803-2.022-1.84-2.252v-.261c-.001-.443-.361-.802-.804-.802-.442 0-.8.356-.804.798v.202h-.666c-.552 0-1 .448-1 1v6c0 .552.448 1 1 1h.7v.2c0 .442.358.8.8.8.442 0 .8-.358.8-.8v-.2l.231-.029c1.237-.146 2.2-1.187 2.2-2.463zm-2.218-3.193c0-.394-.321-.715-.715-.715h-1.298v1.415h1.374c.357-.04.639-.332.639-.7zm8.987 6.185c-.933 0-1.804-.114-2.628-.28-.352.614-.777 1.18-1.266 1.685 1.138.371 2.463.595 3.894.595 4.142 0 7.5-1.791 7.5-4v-2c0 2.209-3.358 4-7.5 4zm0-14.051c4.142 0 7.5-1.791 7.5-4s-3.358-3.999-7.5-3.999-7.5 1.791-7.5 4 3.358 4 7.5 4zm0 2c-4.142 0-7.5-1.791-7.5-4v2c0 2.209 3.358 4 7.5 4s7.5-1.791 7.5-4v-2c0 2.209-3.358 4-7.5 4zm0 8.051c-.523 0-1.028-.037-1.521-.091-.032.675-.139 1.33-.319 1.955.592.08 1.201.137 1.84.137 4.142 0 7.5-1.791 7.5-4v-2c0 2.209-3.358 4-7.5 4zm0-4c-.829 0-1.62-.079-2.365-.211.32.658.555 1.363.697 2.102.539.066 1.092.109 1.668.109 4.142 0 7.5-1.791 7.5-4v-2c0 2.209-3.358 4-7.5 4z"/></svg>