<svg id="Layer_1" viewBox="0 0 24 24" xmlns="http://www.w3.org/2000/svg" data-name="Layer 1"><path d="m13.293 3.207c-.391-.391-.391-1.023 0-1.414s1.023-.391 1.414 0l1 1c.391.391.391 1.023 0 1.414s-1.023.391-1.414 0zm-4.293 1.293c.256 0 .512-.098.707-.293l1-1c.391-.391.391-1.023 0-1.414s-1.023-.391-1.414 0l-1 1c-.391.391-.391 1.023 0 1.414.195.195.451.293.707.293zm12 0c.256 0 .512-.098.707-.293l1-1c.391-.391.391-1.023 0-1.414s-1.023-.391-1.414 0l-1 1c-.391.391-.391 1.023 0 1.414.195.195.451.293.707.293zm-3-1c.553 0 1-.447 1-1v-1.5c0-.552-.447-1-1-1s-1 .448-1 1v1.5c0 .553.447 1 1 1zm-12 0c.553 0 1-.447 1-1v-1.5c0-.552-.447-1-1-1s-1 .448-1 1v1.5c0 .553.447 1 1 1zm14 5.5v-2c0-1.105-.895-2-2-2s-2 .895-2 2v2h2.914l-11 11h5.379l8.253-8.253c.279.344.454.776.454 1.253v1.121l-5.879 5.879h5.879v3c0 .552.448 1 1 1s1-.448 1-1v-10c0-2.209-1.791-4-4-4zm-18 8.707v-2.828l6-6v-1.879c0-1.105-.895-2-2-2s-2 .895-2 2v2c-2.209 0-4 1.791-4 4v10c0 .552.448 1 1 1s1-.448 1-1v-3h3l11-11h-5.293zm.293-13.5c.391.391 1.023.391 1.414 0s.391-1.023 0-1.414l-1-1c-.391-.391-1.023-.391-1.414 0s-.391 1.023 0 1.414z"/></svg>