<svg id="Layer_1" viewBox="0 0 24 24" xmlns="http://www.w3.org/2000/svg" data-name="Layer 1"><path d="m9 12c-3.309 0-6-2.691-6-6s2.691-6 6-6 6 2.691 6 6-2.691 6-6 6zm10.832 10.555 1.703-2.555h1.465c.552 0 1-.448 1-1s-.448-1-1-1h-2c-.334 0-.646.167-.832.445l-1.044 1.566-2.229-4.459c-.16-.319-.477-.529-.833-.551-.354-.029-.697.147-.894.443l-1.703 2.555h-1.465c-.552 0-1 .448-1 1s.448 1 1 1h2c.334 0 .646-.167.832-.445l1.044-1.566 2.229 4.459c.16.319.477.529.833.551.353.023.697-.147.894-.443zm-3.515.788-.86-1.72c-.439.244-.938.377-1.458.377h-2c-1.654 0-3-1.346-3-3s1.346-3 3-3h.395l.677-1.016c-1.224-.625-2.606-.984-4.072-.984-4.961 0-8.999 4.038-8.999 9 0 .552.448 1 1 1h15.766c-.176-.196-.328-.416-.449-.657z"/></svg>