<svg id="Layer_1" viewBox="0 0 24 24" xmlns="http://www.w3.org/2000/svg" data-name="Layer 1"><path d="m3.068 8.021c.518-4.537 4.323-8.021 8.932-8.021 4.646 0 8.48 3.539 8.951 8.063-.604.089-1.751.303-3.194.768-.456-1.074-1.516-1.83-2.757-1.83-1.657 0-3 1.343-3 3 0 .402.089.778.235 1.126-.717-.529-1.465-.974-2.218-1.338.087-2.039 1.396-3.756 3.216-4.449-.641-.809-1.621-1.338-2.733-1.338-1.933 0-3.5 1.567-3.5 3.5 0 .441.093.856.244 1.241-1.812-.515-3.375-.674-4.175-.72zm7.727 4.528c-2.867-1.991-6.36-2.428-7.716-2.522l.759 9.376c.06.735.294 1.415.639 2.026 1.504-4.058 3.848-6.895 6.317-8.88zm-4.779 10.563c.807.554 1.77.888 2.806.888h6.453c2.611 0 4.802-2.04 4.987-4.644l.662-9.276c-2.541.399-11.583 2.544-14.908 13.031z"/></svg>