<svg id="Layer_1" viewBox="0 0 24 24" xmlns="http://www.w3.org/2000/svg" data-name="Layer 1"><path d="m16.526 6.674c-.765-2.326-1.993-4.527-3.676-6.505 1.642.28 3.159.925 4.469 1.847-.209.676-.31 1.353-.319 1.956l-.044 3.066c-.133-.132-.276-.254-.43-.364zm2.881-.806c-.515.25-.552.973-.045 1.239.487.255 1.32.697 2.078 1.454.672.672 1.822.573 2.353-.296.39-.637.188-1.445-.362-1.95-1.338-1.23-3-.944-4.024-.447zm-7.932 1.905c.548-.956 1.526-1.62 2.673-1.737-.93-2.17-2.332-4.199-4.178-5.984-1.347.126-2.619.503-3.782 1.071 2.596 1.648 4.441 4.006 5.286 6.649zm8.37-4.308c.527-.177 1.526-.465 2.655-.465.95 0 1.694-.883 1.455-1.873-.175-.726-.889-1.154-1.635-1.123-1.913.08-2.948 1.585-3.291 2.697-.152.493.327.928.816.765zm2.582 8.537c-.807.038-1.427.733-1.427 1.541v2.958c0 .276-.224.5-.5.5s-.5-.224-.5-.5v-5.958c0-.808-.621-1.503-1.427-1.541-.861-.041-1.573.646-1.573 1.498v6c0 .276-.224.5-.5.5s-.5-.224-.5-.5v-6.958c0-.808-.621-1.503-1.427-1.541-.861-.041-1.573.646-1.573 1.498v7c0 .276-.224.5-.5.5s-.5-.224-.5-.5v-4.958c0-.808-.621-1.503-1.427-1.541-.861-.041-1.573.646-1.573 1.498v7.579l-1.771-1.759c-.709-.704-1.837-.816-2.635-.214-.994.75-1.066 2.17-.218 3.018l3.29 3.29c.375.375.884.586 1.414.586h12.92c1.105 0 2-.895 2-2v-8.5c0-.852-.711-1.539-1.573-1.498zm-15.427 2.915v-3.417c0-1.582 1.062-2.907 2.506-3.339-.115-.327-.245-.65-.397-.965-3.399 2.333-5.808 5.776-6.918 9.8.194-.406.444-.787.771-1.114 1.092-1.091 2.659-1.402 4.038-.965zm1.048-9.42c-.961-1.261-2.243-2.349-3.791-3.169-2.585 2.015-4.257 5.148-4.257 8.672 0 1.387.269 2.71.74 3.933 1.4-3.849 3.92-7.132 7.308-9.436z"/></svg>