<svg id="Layer_1" viewBox="0 0 24 24" xmlns="http://www.w3.org/2000/svg" data-name="Layer 1"><path d="m3 6c0-3.309 2.691-6 6-6s6 2.691 6 6-2.691 6-6 6-6-2.691-6-6zm18.684 11.267-3.041-.506c-.373-.062-.644-.382-.644-.761 0-.552.449-1 1-1h2.268c.356 0 .688.191.867.501.277.479.89.643 1.366.364.479-.276.642-.888.365-1.366-.535-.925-1.531-1.499-2.598-1.499h-.268c0-.553-.448-1-1-1s-1 .447-1 1c-1.654 0-3 1.346-3 3 0 1.359.974 2.51 2.315 2.733l3.041.506c.373.062.644.382.644.761 0 .552-.449 1-1 1h-2.268c-.356 0-.688-.191-.867-.501-.277-.479-.89-.642-1.366-.364-.479.276-.642.888-.365 1.366.535.925 1.531 1.499 2.598 1.499h.268c0 .553.448 1 1 1s1-.447 1-1c1.654 0 3-1.346 3-3 0-1.359-.974-2.51-2.315-2.733zm-3.982-11.055 1.298-1.279v4.068c0 .553.448 1 1 1s1-.447 1-1v-4.067l1.298 1.279c.393.388 1.026.383 1.414-.01.388-.394.383-1.026-.01-1.414l-2.195-2.164c-.83-.83-2.182-.83-3.009-.005l-2.2 2.169c-.393.388-.398 1.02-.01 1.414.387.393 1.02.398 1.414.01zm-3.299 16.291c-.695-1.201-.47-2.731.534-3.683-.584-.795-.938-1.765-.938-2.82 0-.154.032-.298.045-.448-1.44-.979-3.177-1.552-5.045-1.552-4.961 0-8.999 4.037-8.999 9 0 .553.448 1 1 1h14.741c-.535-.399-.994-.903-1.338-1.497z"/></svg>