<svg id="Layer_1" viewBox="0 0 24 24" xmlns="http://www.w3.org/2000/svg" data-name="Layer 1"><path d="m9 14.525c.94-.334 1.947-.525 3-.525s2.06.191 3 .525v4.182l-2.358-1.974c-.371-.312-.912-.312-1.283 0l-2.358 1.976v-4.184zm8 .997v3.731c.021.944-.812 1.763-1.748 1.748-.37 0-.736-.119-1.046-.351l-1.206-1.009v4.36h7c.553 0 1-.448 1-1 0-3.113-1.59-5.862-4-7.478zm-6 4.119-1.165.975c-.573.432-1.274.495-1.869.198-.596-.298-.966-.896-.966-1.562v-3.731c-2.41 1.617-4 4.365-4 7.478 0 .552.447 1 1 1h7v-4.359zm-4.293-7.643c1.173-.026 2.052-.273 2.704-.593.785.378 1.661.596 2.589.596s1.804-.218 2.589-.596c.651.32 1.53.567 2.704.593 1.234.027 2.403-.756 2.652-1.965.239-1.156-.322-2.213-1.231-2.718-.454-.253-.714-.794-.714-1.314 0-3.309-2.691-6-6-6s-6 2.69-6 5.999c0 .52-.259 1.061-.714 1.314-.909.506-1.47 1.562-1.231 2.718.249 1.209 1.418 1.992 2.652 1.965z"/></svg>