<?xml version="1.0" encoding="UTF-8"?>
<svg xmlns="http://www.w3.org/2000/svg" id="Layer_1" data-name="Layer 1" viewBox="0 0 24 24">
  <path d="m24,5v1H0v-1C0,2.791,1.791,1,4,1h16c2.209,0,4,1.791,4,4Zm-9.942,14H4c-2.209,0-4-1.791-4-4v-7h24v5h-2.317c-.992,0-1.916.502-2.455,1.334h0c-.794-.998-2.102-1.569-3.535-1.242-1.316.3-2.372,1.395-2.627,2.721-.24,1.248.192,2.405.992,3.187Zm-7.058-5.5c0-.828-.672-1.5-1.5-1.5s-1.5.672-1.5,1.5.672,1.5,1.5,1.5,1.5-.672,1.5-1.5Zm17,9c0,.828-.672,1.5-1.5,1.5s-1.5-.672-1.5-1.5.672-1.5,1.5-1.5,1.5.672,1.5,1.5Zm-7.5-7.5c-.828,0-1.5.672-1.5,1.5s.672,1.5,1.5,1.5,1.5-.672,1.5-1.5-.672-1.5-1.5-1.5Zm1.591,8.541l4.5-7c.299-.465.164-1.084-.3-1.382-.466-.301-1.084-.165-1.382.3l-4.5,7c-.299.465-.164,1.084.3,1.382.168.108.354.159.54.159.329,0,.651-.162.842-.459Z"/>
</svg>
