<svg id="Layer_1" viewBox="0 0 24 24" xmlns="http://www.w3.org/2000/svg" data-name="Layer 1"><path d="m23.999 18.904c-.028.684-.199 1.63-.848 2.3-.616.636-1.483.803-2.151.829v.967c0 .553-.448 1-1 1s-1-.447-1-1v-1.008c-.657-.024-1.523-.189-2.163-.829-.677-.677-.828-1.617-.837-2.284-.006-.485.394-.885.879-.879.667.008 1.607.16 2.284.837.49.49.753 1.101.837 1.663.109-.554.431-1.143.897-1.624.648-.669 1.566-.846 2.228-.875.487-.021.896.4.875.903zm0-7.977v4.146c0 .512-.415.927-.927.927-.351 0-.672-.198-.829-.512l-.744-1.488h-6.594l-2.304 3.295c-.715.994-1.807 1.61-3.004 1.701-1.185.092-2.361-.349-3.203-1.21-.044-.042-4.152-3.71-4.193-3.754-1.828-1.811-2.195-4.222-2.195-7.524-.105-2.183.96-4.258 2.85-5.504 2.079-1.371 4.857-1.337 6.912.084.185.128.636.539 1.06.938.85-.052 1.713.245 2.354.897l3.879 3.438c.017.015.034.031.05.047 1.066 1.085 1.193 2.771.303 4.008l-1.108 1.584h5.195l.744-1.488c.157-.314.478-.512.829-.512.512 0 .927.415.927.927zm-15.168-8.026c-1.359-1.14-3.409-1.192-4.874-.227-1.294.853-2.024 2.269-1.952 3.787 0 .7.023 1.308.063 1.867.15-.168.301-.334.478-.477 1.415-1.139 5.658-4.453 6.285-4.95z"/></svg>