<?xml version="1.0" encoding="UTF-8"?>
<svg xmlns="http://www.w3.org/2000/svg" id="Layer_1" data-name="Layer 1" viewBox="0 0 24 24">
  <path d="M24,12.036c0,.534-.208,1.036-.586,1.414l-2.293,2.293c-.391,.391-1.023,.391-1.414,0s-.391-1.023,0-1.414l1.329-1.329h-4.036c-.553,0-1-.448-1-1s.447-1,1-1h3.964l-1.257-1.257c-.391-.391-.391-1.023,0-1.414s1.023-.391,1.414,0l2.293,2.293c.378,.377,.586,.879,.586,1.414ZM9.5,5c1.381,0,2.5-1.119,2.5-2.5s-1.119-2.5-2.5-2.5-2.5,1.119-2.5,2.5,1.119,2.5,2.5,2.5Zm5.357,8.715c-.286,.478-.906,.624-1.372,.343l-1.567-.94c-.466-.28-.833-.711-1.035-1.216l-.961-2.465-1.462,6.795,.657,.558c.56,.476,.881,1.17,.881,1.905v4.306c0,.552-.448,1-1,1s-1-.448-1-1v-4.306c0-.147-.064-.286-.176-.381l-2.747-2.333c-.87-.725-1.254-1.87-.994-2.982l.891-4.23-1.693,.747c-.268,.123-.47,.366-.544,.663l-.766,3.065c-.134,.536-.679,.861-1.213,.728-.536-.134-.861-.677-.728-1.213l.766-3.065c.223-.891,.831-1.621,1.666-2.002l2.102-.928c.792-.35,1.619-.572,2.466-.681,.483-.124,1.012-.059,1.512-.081,1.297,0,2.446,.778,2.928,1.982l1.271,3.177c.041,.101,.114,.188,.207,.243l1.567,.94c.474,.284,.627,.898,.343,1.372Zm-10.5,3.854c-.534-.134-1.079,.192-1.213,.728l-1.115,4.461c-.134,.536,.192,1.079,.728,1.213,.522,.134,1.081-.188,1.213-.728l1.115-4.461c.134-.536-.192-1.079-.728-1.213Z"/>
</svg>
