<svg id="Layer_1" viewBox="0 0 24 24" xmlns="http://www.w3.org/2000/svg" data-name="Layer 1"><path d="m.69 8.02c1.65-4.66 6.09-8.02 11.31-8.02s9.66 3.36 11.31 8.02c0 0-1.2 1.09-1.65 1.46-.27-1.03-.68-2-1.25-2.87l-1.58.91c-.49.28-.73.86-.6 1.4l.63 2.51s0 .01 0 .02c-1.29.81-2.47 1.44-2.96 1.55h-.27c0-.43-.2-.85-.58-1.09l-2.56-1.6c-.32-.2-.7-.31-1.08-.31h-1.43c-.31 0-.61-.12-.83-.34l-.59-.59c-.31-.31-.31-.82 0-1.13l.53-.53c.24-.24.61-.3.92-.15l.88.44c.36.18.8.11 1.08-.18.3-.31.36-.78.14-1.15l-.84-1.4c-.17-.29-.17-.65.01-.94.29-.45.78-1.2 1.31-2.01-.2-.01-.4-.03-.61-.03-4.02 0-7.49 2.39-9.07 5.82l1.66 1.74c.26.28.63.44 1.02.44h1.95c.29 0 .56.11.77.32l.37.37c.2.2.31.47.31.74v.96c0 .21.05.41.13.6h-1.02c-1.06-.23-5.26-2.82-6.95-4.58l-.47-.4zm19.29 9.72c-.03 1.05-.12 2.1-.26 3.11-.02.14-.07.27-.1.41 1.77-1.46 3.11-3.41 3.82-5.64-1.13.78-2.33 1.53-3.46 2.12zm-15.7 3.11c-.14-1.03-.23-2.07-.26-3.12-1.13-.58-2.33-1.33-3.46-2.12.71 2.23 2.05 4.19 3.82 5.65-.03-.14-.08-.27-.1-.41zm18.12-9.42c-2.26 1.73-5.35 3.57-6.42 3.57h-7.94c-1.08 0-4.18-1.84-6.44-3.57-.66-.5-1.6-.03-1.6.79 0 .31.14.6.38.79 1.51 1.16 3.4 2.41 5.04 3.19.35.17.58.51.58.9.01 1.12.09 2.28.26 3.48.27 1.95 1.97 3.42 3.96 3.42h3.56c1.98 0 3.69-1.47 3.96-3.43.17-1.19.25-2.35.26-3.47 0-.39.23-.73.58-.9 1.64-.78 3.54-2.03 5.05-3.2.24-.19.38-.48.38-.79 0-.83-.94-1.3-1.6-.79z"/></svg>