<svg id="Layer_1" viewBox="0 0 24 24" xmlns="http://www.w3.org/2000/svg" data-name="Layer 1"><path d="m15.495 7.788c-.155-2.507-.983-4.788-2.256-7.005-.214-.475-.733-.783-1.239-.783s-.975.329-1.218.782c-1.271 2.218-2.091 4.466-2.251 7.003-1.239 1.294-1.644 2.955-1.461 4.599.031.275.166.529.362.725.492.492 1.29.492 1.781 0l1.073-1.073h.725v.963c0 .552.447 1 1 1s1-.448 1-1v-.963h.738l1.073 1.073c.492.492 1.29.492 1.781 0l.005-.005c.196-.196.332-.45.362-.726.182-1.655-.242-3.31-1.476-4.59zm-3.483.212c-.828 0-1.5-.672-1.5-1.5s.672-1.5 1.5-1.5 1.5.672 1.5 1.5-.672 1.5-1.5 1.5zm12 13.5c0 1.381-1.119 2.5-2.5 2.5h-19.001c-1.38 0-2.5-1.119-2.5-2.5s1.119-2.5 2.5-2.5h5.651c.589 0 1.147.259 1.527.708l.247.292h4.149l.247-.292c.38-.449.938-.708 1.527-.708h5.652c1.381 0 2.5 1.119 2.5 2.5zm-21.001-4.5c-.344 0-.677.043-1 .11v-6.11c0-2.657 2.09-4.817 4.709-4.971-.052.313-.095.627-.128.944-1.211 1.553-1.744 3.525-1.511 5.63.078.712.41 1.394.937 1.921 1.038 1.038 2.609 1.229 3.845.567.545.561 1.307.909 2.148.909s1.607-.35 2.153-.913c1.234.665 2.813.475 3.862-.573.522-.525.854-1.207.932-1.917.231-2.103-.308-4.073-1.526-5.625-.034-.316-.103-.63-.155-.945 2.631.141 4.735 2.307 4.735 4.973v6.11c-.323-.067-.656-.11-1-.11h-5.151c-.983 0-1.92.359-2.646 1h-2.404c-.726-.641-1.663-1-2.646-1z"/></svg>