<svg id="Layer_1" viewBox="0 0 24 24" xmlns="http://www.w3.org/2000/svg" data-name="Layer 1"><path d="m14.126 13.116 2.134-2.133c.658-.658 1.806-.121 1.686.802-.168 1.293-.753 2.525-1.703 3.458-1.133 1.133-2.64 1.757-4.243 1.757s-3.109-.624-4.243-1.757-1.757-2.64-1.757-4.243.624-3.109 1.757-4.243c.933-.95 2.165-1.535 3.458-1.703.922-.12 1.459 1.028.802 1.686l-2.133 2.134s-.004.003-.005.004c-1.169 1.17-1.169 3.073 0 4.243 1.17 1.17 3.073 1.17 4.243 0 .002-.002.003-.004.004-.005zm5.136 6.04c2.233-2.015 3.649-4.919 3.649-8.156 0-.726-.074-1.435-.212-2.121-.132-.655-.924-.914-1.397-.442l-1.016 1.015c-.262.262-.417.623-.387.992.015.183.024.368.024.555 0 4.418-3.582 8-8 8-4.447.006-7.955-3.615-8.013-8 .048-4.425 3.619-8.05 8.083-7.996.342.012 1.086-.001 1.605-.52s.875-.875.875-.875c.456-.456.24-1.256-.392-1.386-1.866-.384-3.9-.297-6.008.472-4.348 1.588-7.164 5.679-7.163 10.309 0 3.235 1.313 6.096 3.756 8.268l-2.012 3.196c-.294.467-.154 1.084.313 1.379.46.292 1.083.158 1.379-.313l1.949-3.096c1.647.984 3.561 1.563 5.615 1.563 2.114.007 4.059-.62 5.752-1.631l1.992 3.164c.296.471.919.605 1.379.313.467-.294.608-.912.313-1.379l-2.085-3.311zm2.662-14.539c-.155-.374-.52-.617-.924-.617h-2v-2c0-.404-.244-.769-.617-.924-.375-.155-.804-.07-1.09.217l-2 2c-.188.188-.293.442-.293.707v2.586l-3.707 3.707c-.181.181-.293.431-.293.707 0 .552.448 1 1 1 .276 0 .526-.112.707-.293l3.707-3.707h2.586c.265 0 .52-.105.707-.293l2-2c.286-.286.372-.716.217-1.09z"/></svg>