<?xml version="1.0" encoding="UTF-8"?>
<svg xmlns="http://www.w3.org/2000/svg" id="Layer_1" data-name="Layer 1" viewBox="0 0 24 24">
  <path d="m12,13c.827,0,1.5-.673,1.5-1.5s-.673-1.5-1.5-1.5-1.5.673-1.5,1.5.673,1.5,1.5,1.5Zm-10-3.758v-1.242c0-2.209,1.791-4,4-4h12c2.209,0,4,1.791,4,4v1.242l-7.879,7.879c-1.167,1.167-3.076,1.167-4.242,0l-7.879-7.879Zm15-1.742c0,.83.67,1.5,1.5,1.5s1.5-.67,1.5-1.5-.67-1.5-1.5-1.5-1.5.67-1.5,1.5Zm-8.5,4c0,1.93,1.57,3.5,3.5,3.5s3.5-1.57,3.5-3.5-1.57-3.5-3.5-3.5-3.5,1.57-3.5,3.5Zm-4.5-4c0,.83.67,1.5,1.5,1.5s1.5-.67,1.5-1.5-.67-1.5-1.5-1.5-1.5.67-1.5,1.5Zm11.535,11.035c-1.095,1.096-2.611,1.621-4.185,1.424-1.153-.144-2.203-.741-3.024-1.562L.418,10.488C.156,11.028.002,11.619.002,12.231v6.768c-.002,2.762,2.237,5.001,4.999,5.001h13.999c2.761,0,5-2.239,5-5v-6.772c0-.612-.154-1.202-.416-1.742l-8.048,8.048ZM3.242,2.677c.548-1.556,2.015-2.677,3.758-2.677h10c1.743,0,3.21,1.122,3.758,2.677-.827-.43-1.764-.677-2.758-.677H6c-.995,0-1.932.247-2.758.677Z"/>
</svg>
