<svg id="Layer_1" viewBox="0 0 24 24" xmlns="http://www.w3.org/2000/svg" data-name="Layer 1"><path d="m17.5 12h-15c-1.381 0-2.5-1.119-2.5-2.5 0-1.381 1.119-2.5 2.5-2.5h15c1.381 0 2.5 1.119 2.5 2.5 0 1.381-1.119 2.5-2.5 2.5zm-10.5 6v-4h-5v4zm2 0h9v-4h-9zm4 2v4h2c1.657 0 3-1.343 3-3v-1zm-2 0h-9v1c0 1.657 1.343 3 3 3h6zm10-20c-.772 0-1.468.3-2 .779-.532-.479-1.228-.779-2-.779s-1.468.3-2 .779c-.532-.479-1.228-.779-2-.779s-1.468.3-2 .779c-.532-.479-1.228-.779-2-.779-1.657 0-3 1.343-3 3v2h11c1.116 0 2.136.38 2.969 1h1.031c1.657 0 3-1.343 3-3s-1.343-3-3-3z"/></svg>