<svg id="Layer_1" viewBox="0 0 24 24" xmlns="http://www.w3.org/2000/svg" data-name="Layer 1"><path d="m18 12c-3.314 0-6 2.686-6 6s2.686 6 6 6 6-2.686 6-6-2.686-6-6-6zm3.683 5.712-2.703 2.614c-.452.446-1.052.671-1.653.671s-1.203-.225-1.663-.674l-1.354-1.332c-.395-.387-.4-1.02-.014-1.414.386-.395 1.019-.401 1.414-.014l1.354 1.331c.144.142.38.139.522-.002l2.713-2.624c.397-.381 1.031-.37 1.414.029.382.398.369 1.031-.029 1.414zm-12.683-9.712c-.828 0-1.5-.672-1.5-1.5s.672-1.5 1.5-1.5 1.5.672 1.5 1.5-.672 1.5-1.5 1.5zm1.5 1c.433 0 .82.186 1.094.479-.518.903-1.48 1.521-2.594 1.521s-2.076-.617-2.594-1.52c.274-.293.661-.48 1.094-.48zm2.5-9h-8c-2.757 0-5 2.243-5 5v14c0 2.757 2.243 5 5 5h7.721c-1.665-1.466-2.721-3.607-2.721-6h-5c-.552 0-1-.447-1-1s.448-1 1-1h5.262c.889-3.449 4.011-6 7.738-6v-5c0-2.757-2.243-5-5-5zm-4 13c-2.761 0-5-2.239-5-5s2.239-5 5-5 5 2.239 5 5-2.239 5-5 5z"/></svg>