<svg id="Layer_1" viewBox="0 0 24 24" xmlns="http://www.w3.org/2000/svg" data-name="Layer 1"><path d="m23.364 13.174c-.578-.746-1.45-1.174-2.392-1.174h-17.944c-.941 0-1.813.428-2.392 1.174-.413.533-.636 1.185-.636 1.826 0 5.077 7 9 9 9h6c2 0 9-3.923 9-9 0-.641-.223-1.293-.636-1.826zm.636-6.174c0 1.096-.25 2.154-.724 3.108-.515 1.037-1.885 1.283-2.704.465l-2.677-2.677 4.067-.508.022-.023c.061-.685-.056-1.341-.266-1.962l-3.566.446.446-3.566c-.621-.21-1.277-.327-1.962-.266l-.023.022-.508 4.067-2.677-2.677c-.819-.819-.573-2.189.465-2.704.953-.475 2.011-.725 3.107-.725 1.87 0 3.628.729 4.949 2.051 1.322 1.321 2.051 3.079 2.051 4.949zm-9.051 3c-.252-2.244-2.139-4-4.449-4s-4.197 1.756-4.449 4zm-10.917 0h-1.581c-.242-1.211-.374-2.406-.447-3.367-.076-1.014.845-1.815 1.838-1.597.696.153 1.512.365 2.331.627-1.215 1.083-2.009 2.613-2.141 4.337z"/></svg>