<svg id="Layer_1" viewBox="0 0 24 24" xmlns="http://www.w3.org/2000/svg" data-name="Layer 1"><path d="m24 7.5v14c0 1.381-1.119 2.5-2.5 2.5s-2.5-1.119-2.5-2.5v-14c0-1.381 1.119-2.5 2.5-2.5s2.5 1.119 2.5 2.5zm-14.57 7.923c.319-.493.492-1.061.561-1.511.081-.526-.377-.983-.902-.902-.6.092-1.409.367-1.971.93-.2.2-.352.434-.482.676-.146-.422-.313-.792-.459-1.074-.254-.49-.857-.685-1.348-.43-.491.253-.683.857-.43 1.348.078.15.162.338.244.541h-.234c-2.431 0-4.409 2.019-4.409 4.5s1.978 4.5 4.409 4.5c.543 0 1.085-.104 1.591-.304.506.2 1.047.304 1.591.304 2.431 0 4.409-2.019 4.409-4.5 0-1.81-1.058-3.363-2.57-4.077zm8.332-10.423h-2.129l.266-2.124c.062-.5.489-.876.992-.876h3.108c.552 0 1-.448 1-1s-.448-1-1-1h-3.108c-1.509 0-2.789 1.129-2.977 2.627l-.297 2.373h-3.618c-2.206 0-4 1.794-4 4v2.098c.385.067.745.256 1.055.476.716-.349 1.384-.489 1.729-.542.873-.136 1.769.158 2.396.785.627.626.921 1.522.788 2.396-.02.127-.049.287-.092.47 1.328 1.215 2.125 2.961 2.125 4.816 0 1.746-.686 3.331-1.795 4.5h5.557c-.48-.716-.762-1.575-.762-2.5v-13.999c0-.925.282-1.784.762-2.5z"/></svg>