<svg id="Layer_1" viewBox="0 0 24 24" xmlns="http://www.w3.org/2000/svg" data-name="Layer 1"><path d="m15.601 15.4h-1.001v-1.599h1.001c.442 0 .8.358.8.8s-.358.8-.8.8zm-6.042-4.013c0-.44-.356-.796-.796-.796h-.671v1.592h.671c.44 0 .796-.356.796-.796zm14.441-6.388v1h-24v-1c0-2.76 2.239-4.999 5-4.999h14c2.761 0 5 2.239 5 5zm-19-1.999c0-.828-.672-1.5-1.5-1.5s-1.5.672-1.5 1.5.672 1.5 1.5 1.5 1.5-.672 1.5-1.5zm4 0c0-.828-.672-1.5-1.5-1.5s-1.5.672-1.5 1.5.672 1.5 1.5 1.5 1.5-.672 1.5-1.5zm-9 5h24v10h-18.508l-2.897-1.609c-.814-.452-1.749-.49-2.595-.165zm13 8.2c0 .442.358.8.8.8h1.801c1.325 0 2.399-1.074 2.399-2.399v-.024c0-1.334-1.081-2.416-2.416-2.416h-.985v-1.361c0-.442-.358-.8-.8-.8s-.8.358-.8.8v5.4zm-6.5 0c0 .442.358.8.8.8h1.678c1.181 0 2.263-.809 2.462-1.973.151-.882-.19-1.681-.782-2.202.296-.389.482-.866.492-1.39.027-1.34-1.216-2.436-2.556-2.436h-1.294c-.442 0-.8.358-.8.8v6.4zm3.384-1.588c0-.44-.356-.796-.796-.796h-.996v1.592h.996c.44 0 .796-.356.796-.796zm14.116 6.388c0-.552-.447-1-1-1h-14c-.553 0-1 .448-1 1s.447 1 1 1h14c.553 0 1-.448 1-1zm-24-1.906v3.812c0 .833.895 1.359 1.623.955l3.431-1.906c.749-.416.749-1.494 0-1.91l-3.431-1.906c-.728-.404-1.623.122-1.623.955z"/></svg>