<svg id="Layer_1" viewBox="0 0 24 24" xmlns="http://www.w3.org/2000/svg" data-name="Layer 1"><path d="m8.769 13.23c-1.524-1.524-.604-4.914.92-6.437 1.524-1.524 3.074-.604 4.598.92s2.443 3.074.92 4.598-4.914 2.443-6.437.92zm8.358-5.208 4.438-5.106c.599-.701.558-1.746-.094-2.398-.645-.645-1.675-.693-2.378-.111l-5.189 4.424c.574.36 1.164.835 1.797 1.468.606.606 1.07 1.172 1.426 1.723zm5.333 1.978h-4.539c.258 1.337-.239 2.653-1.3 3.725-1.278 1.278-3.528 2.297-5.664 2.297-1.333 0-2.622-.397-3.602-1.377-1.234-1.233-1.539-2.958-1.295-4.645h-4.52c-1.115 0-1.858 1.153-1.397 2.168.671 1.656 1.51 2.796 3.019 4.275l-1.942 2.429c-.345.432-.274 1.061.157 1.406.431.343 1.06.275 1.406-.157l1.925-2.409c.644.453 1.357.868 2.143 1.217l-.987 2.883c-.179.522.1 1.091.623 1.27.522.18 1.091-.099 1.27-.623l.982-2.87c.703.182 1.455.307 2.253.366v3.043c0 .552.448 1 1 1s1-.448 1-1v-3.043c.803-.059 1.558-.185 2.265-.369l.985 2.87c.179.522.744.801 1.271.621.521-.179.8-.748.621-1.271l-.99-2.883c.772-.344 1.473-.751 2.107-1.196l1.921 2.413c.344.431.971.505 1.405.16.432-.344.503-.973.159-1.405l-1.937-2.433c1.523-1.486 2.384-2.629 3.055-4.296.461-1.016-.282-2.168-1.397-2.168z"/></svg>