<svg id="Layer_1" viewBox="0 0 24 24" xmlns="http://www.w3.org/2000/svg" data-name="Layer 1"><path d="m4.445 4.533c.715-.51 1.156-1.381 1.035-2.351-.158-1.274-1.33-2.182-2.613-2.182h-1.567c-.442 0-.8.358-.8.8v6.4c0 .442.358.8.8.8.442 0 .8-.358.8-.8v-2.2h.784l.698 2.402c.103.355.428.598.797.598.557 0 .957-.539.794-1.072l-.729-2.395zm-1.445-1.133h-.9v-1.8h.9c.496 0 .9.404.9.9s-.404.9-.9.9zm2.939 17.138c.719-.509 1.161-1.383 1.041-2.356-.158-1.274-1.33-2.182-2.613-2.182h-1.567c-.442 0-.8.358-.8.8v6.4c0 .442.358.8.8.8.442 0 .8-.358.8-.8v-2.2h.784l.687 2.363c.11.378.456.637.849.637.537 0 .922-.519.765-1.033zm-1.439-1.138h-.9v-1.8h.9c.496 0 .9.404.9.9s-.404.9-.9.9zm4.3-19.4c-1.269 0-2.3 1.031-2.3 2.3v3.4c0 1.269 1.031 2.3 2.3 2.3s2.3-1.031 2.3-2.3v-3.4c0-1.269-1.031-2.3-2.3-2.3zm.7 5.7c0 .386-.314.7-.7.7s-.7-.314-.7-.7v-3.4c0-.386.314-.7.7-.7s.7.314.7.7zm.8 10.3c-1.269 0-2.3 1.031-2.3 2.3v3.4c0 1.269 1.031 2.3 2.3 2.3s2.3-1.031 2.3-2.3v-3.4c0-1.269-1.031-2.3-2.3-2.3zm.7 5.7c0 .386-.314.7-.7.7s-.7-.314-.7-.7v-3.4c0-.386.314-.7.7-.7s.7.314.7.7zm12.168-20.633-.92 2.959.915 2.903c.167.53-.229 1.07-.785 1.07-.368 0-.691-.244-.792-.598l-.798-2.804-.688.002v2.6c0 .442-.358.8-.8.8-.442 0-.8-.358-.8-.8v-6.399c0-.442.358-.8.8-.8.442 0 .8.358.8.8v2.2h.784l.7-2.407c.102-.351.424-.593.79-.593h.008c.555 0 .951.538.786 1.067zm-7.367 4.842c.132-.258.409-.409.699-.409.606 0 .99.647.703 1.182-.415.772-1.222 1.3-2.155 1.318-1.401.027-2.548-1.154-2.548-2.556v-2.888c0-1.401 1.147-2.582 2.548-2.556.933.018 1.741.546 2.155 1.318.287.534-.097 1.182-.703 1.182-.29 0-.567-.151-.699-.409-.158-.308-.488-.514-.863-.489-.478.032-.838.45-.838.929v2.938c0 .479.361.897.838.929.375.025.705-.181.863-.489zm.898 16.491c.442 0 .8.358.8.8 0 .442-.358.8-.8.8h-1.9c-.442 0-.8-.358-.8-.8v-6.4c0-.442.358-.8.8-.8.442 0 .8.358.8.8v5.6zm4.5 0c.442 0 .8.358.8.8 0 .442-.358.8-.8.8h-1.9c-.442 0-.8-.358-.8-.8v-6.4c0-.442.358-.8.8-.8.442 0 .8.358.8.8v5.6zm-7.2-7.7c0 .442-.358.8-.8.8h-1.577c-1.267 0-2.425-.889-2.598-2.145-.166-1.203.526-2.264 1.55-2.673-.307-.346-.574-.762-.574-1.182 0-.828.672-1.5 1.5-1.5s1.5.672 1.5 1.5c0 .348-.186.693-.422.999 0 .002.001.003.002.005-.014.018-.068.101-.142.217.34.455.868 1.165.954 1.292.244.359.09.987-.602.987-.207 0-.578-.043-.788-.327l-.49-.655c-.69.085-.911.535-.911.982 0 .496.404.9.9.9h1.701c.442 0 .799.358.799.8zm-1.333-1.7s0 0 .001 0z"/></svg>