<svg id="Layer_1" viewBox="0 0 24 24" xmlns="http://www.w3.org/2000/svg" data-name="Layer 1"><path d="m15 0c-1.537 0-2.763.494-3.645 1.468-.721.797-1.069 1.782-1.233 2.639-.221-.067-.461-.107-.721-.107-1.155 0-2.401 1.155-2.401 3.021 0 2.194 1.794 3.979 4 3.979s4-1.785 4-3.979c0-1.866-1.254-3.021-2.417-3.021-.137 0-.268.012-.394.032.128-.435.331-.874.654-1.228.493-.541 1.198-.804 2.156-.804.552 0 1-.448 1-1s-.448-1-1-1zm-4.277 15c.172.295.277.634.277 1 0 1.105-.895 2-2 2s-2-.895-2-2c0-.366.106-.705.277-1h-5.566c-.463 0-.879.267-1.061.68-.305.694-.65 1.48-.65 2.82 0 1.625.388 2.642.819 3.625.501 1.139 1.636 1.875 2.892 1.875h16.289c2.206 0 4-1.794 4-4v-3c0-.728-.196-1.411-.537-2zm5.777 8c-1.381 0-2.5-1.119-2.5-2.5s1.119-2.5 2.5-2.5 2.5 1.119 2.5 2.5-1.119 2.5-2.5 2.5zm-5.5-10h-9.289c-.09 0-.18.004-.268.012.93-1.949 2.18-3.333 3.718-4.613.626 2.635 3.006 4.601 5.839 4.601zm11.914 0h-11.914c3.181 0 5.791-2.479 5.988-5.6l3.697 2.915c.926.757 1.677 1.67 2.229 2.686z"/></svg>