<svg id="Layer_1" viewBox="0 0 24 24" xmlns="http://www.w3.org/2000/svg" data-name="Layer 1"><path d="m24 16.838c0 .442-.358.8-.8.8h-.95v5.601c0 .442-.358.8-.8.8-.442 0-.8-.358-.8-.8v-5.601h-.851c-.442 0-.8-.358-.8-.8 0-.442.358-.8.8-.8h3.4c.442 0 .8.358.8.8zm-11.734 1.5v3.4c0 1.269-1.031 2.3-2.3 2.3s-2.3-1.031-2.3-2.3v-3.4c0-1.269 1.031-2.3 2.3-2.3s2.3 1.031 2.3 2.3zm-1.6 0c0-.386-.314-.7-.7-.7s-.7.314-.7.7v3.4c0 .386.314.7.7.7s.7-.314.7-.7zm5.272 4.098c-.478-.032-.838-.451-.838-.93v-2.936c0-.479.361-.898.838-.93.375-.025.705.181.863.489.132.258.409.409.699.409.606 0 .99-.647.703-1.181-.415-.772-1.222-1.3-2.155-1.318-1.401-.027-2.548 1.154-2.548 2.556v2.887c0 1.402 1.147 2.582 2.548 2.556.933-.018 1.741-.547 2.155-1.318.287-.534-.097-1.181-.703-1.181-.29 0-.567.151-.699.409-.158.308-.488.514-.863.489zm-15.938-3.436c0 2.757 2.243 5 5 5h1.325c-.411-.659-.659-1.43-.659-2.262v-3.4c0-2.371 1.929-4.3 4.3-4.3h13.228c.278 0 .546.055.806.133v-4.171h-24zm19-17h-1v-1c0-.553-.448-1-1-1s-1 .447-1 1v1h-8v-1c0-.553-.448-1-1-1s-1 .447-1 1v1h-1c-2.757 0-5 2.243-5 5v1h24v-1c0-2.757-2.243-5-5-5z"/></svg>