<svg id="Layer_1" viewBox="0 0 24 24" xmlns="http://www.w3.org/2000/svg" data-name="Layer 1"><path d="m23 13h-2c-.553 0-1-.447-1-1s.447-1 1-1h2c.553 0 1 .447 1 1s-.447 1-1 1zm-1.934-4.743 1.443-.855c.476-.281.632-.896.351-1.37-.28-.475-.893-.632-1.37-.351l-1.443.855c-.476.281-.632.896-.351 1.37.283.48.903.629 1.37.351zm1.795 9.707c.28-.476.122-1.089-.354-1.369l-1.532-.903c-.475-.28-1.089-.123-1.369.354-.28.476-.122 1.089.354 1.369l1.532.903c.467.278 1.087.127 1.369-.354zm-4.861-12.499v15.035c0 2.763-5.657 3.5-9 3.5s-9-.737-9-3.5v-15.035c2.179 1.21 5.784 1.535 9 1.535s6.821-.325 9-1.535zm-8.161 10.026s2.059-1.404 2.09-1.432c.365-.32.551-.69.553-1.101 0-.41-.184-.783-.549-1.108-.033-.03-2.339-1.586-2.339-1.586-.375-.289-.888-.346-1.332-.146-.462.207-.761.661-.761 1.155v2.002l-.41-.3c-.446-.328-1.071-.229-1.397.216-.326.446-.229 1.071.217 1.397l1.245.911-1.245.912c-.445.326-.542.952-.216 1.397.329.448.956.54 1.398.216l.409-.3v2.002c0 .494.299.948.761 1.155.425.198 1.005.154 1.335-.148l2.354-1.757c.432-.383.523-.788.523-1.061 0-.612-.437-.999-.58-1.126-.042-.037-2.055-1.3-2.055-1.3zm-.839-10.491c-3.343 0-9-.527-9-2.5s5.657-2.5 9-2.5 9 .527 9 2.5-5.657 2.5-9 2.5z"/></svg>