<svg id="Layer_1" viewBox="0 0 24 24" xmlns="http://www.w3.org/2000/svg" data-name="Layer 1"><path d="m10.589 11h-10.589v-.5c0-2.314 1.753-4.198 4-4.45v-1.05c0-.552.448-1 1-1s1 .448 1 1v1h4v2c0 1.061.212 2.073.589 3zm7.411-11c-3.309 0-6 2.691-6 6h12c0-3.309-2.691-6-6-6zm-3 15.411v5.589c0 1.654 1.346 3 3 3s3-1.346 3-3v-5.589c-.927.377-1.939.589-3 .589s-2.073-.212-3-.589zm3-1.411c3.309 0 6-2.691 6-6h-12c0 3.309 2.691 6 6 6zm-5 .235c-.455-.366-.869-.78-1.235-1.235h-11.765v6.5c0 2.485 2.015 4.5 4.5 4.5h9.526c-.635-.838-1.026-1.87-1.026-3z"/></svg>