<svg id="Layer_1" viewBox="0 0 24 24" xmlns="http://www.w3.org/2000/svg" data-name="Layer 1"><path d="m5.36 24c-.144 0-.289-.031-.428-.096-1.512-.717-2.921-1.651-4.189-2.778-.151-.135-.299-.271-.441-.411-.395-.386-.402-1.019-.016-1.414.385-.394 1.019-.402 1.414-.016.121.118.245.233.372.347 1.126 1 2.377 1.829 3.718 2.464.499.237.712.833.475 1.332-.171.361-.529.572-.904.572zm17.64-13.307c-.423 0-.815-.27-.952-.694-.128-.397-.26-.802-.399-1.209l-.157-.454c-.187-.52.085-1.092.604-1.278.521-.184 1.094.085 1.278.605l.167.48c.144.417.279.833.411 1.242.169.526-.12 1.089-.645 1.258-.102.033-.205.049-.307.049zm-1.802-4.693c-.362 0-.711-.197-.889-.541-.639-1.233-1.375-2.239-2.25-3.075-.223-.213-.452-.416-.689-.608-.429-.348-.495-.978-.146-1.407.347-.428.976-.495 1.406-.147.278.226.549.465.811.715 1.038.991 1.903 2.169 2.644 3.603.254.491.062 1.094-.428 1.348-.147.076-.305.112-.459.112zm.44 10.165c-.801-1.481-1.409-3.127-1.997-4.719-1.008-2.729-1.96-5.306-3.805-7.051-1.781-1.685-4.226-2.546-6.655-2.372-2.046.148-3.909.983-5.374 2.367 3.277 4.874 8.589 7.69 8.655 7.724.489.255.679.859.424 1.349-.179.342-.527.538-.888.538-.155 0-.313-.036-.462-.113-.281-.147-5.522-2.941-9.062-7.92-1.133 1.727-1.592 3.797-1.288 5.912.363 2.52 1.775 4.818 3.875 6.305 3.49 2.472 7.336 2.789 10.296 2.789 1.096 0 2.877-.175 4.141-.407.96-.176 1.784-.804 2.204-1.68.42-.875.396-1.866-.064-2.72zm-17.83-11.775c-.759-1.129-1.409-2.367-1.859-3.708-.177-.524-.743-.805-1.267-.63-.523.176-.806.743-.63 1.266.577 1.717 1.438 3.262 2.423 4.648.137-.209.279-.415.435-.612.276-.35.581-.665.898-.964z"/></svg>