<svg id="Layer_1" viewBox="0 0 24 24" xmlns="http://www.w3.org/2000/svg" data-name="Layer 1"><path d="m13 21.977v1.023c0 .553-.448 1-1 1s-1-.447-1-1v-1.023c-4.813-.238-8.72-4.065-8.986-8.922-.03-.552.393-1.023.944-1.053.539-.064 1.022.392 1.053.943.217 3.956 3.493 7.055 7.459 7.055h1.059c3.966 0 7.243-3.099 7.459-7.055.03-.552.504-1.007 1.053-.943.551.029.974.501.944 1.053-.266 4.857-4.173 8.685-8.986 8.922zm-7-19.977h1v4h10v-4h1c.552 0 1-.447 1-1s-.448-1-1-1h-12c-.552 0-1 .447-1 1s.448 1 1 1zm1 6v4c0 2.757 2.243 5 5 5s5-2.243 5-5v-4z"/></svg>