<svg id="Layer_1" viewBox="0 0 24 24" xmlns="http://www.w3.org/2000/svg" data-name="Layer 1"><path d="m15.448 11c-.227 0-.455-.054-.665-.162-.483-.25-.783-.742-.783-1.286v-6.55c0-1.654 1.346-3 3-3l4-.002c1.654 0 3 1.346 3 3v3c0 1.654-1.346 3-3 3h-2.796s-1.886 1.709-1.919 1.732c-.25.178-.542.268-.836.268zm-15.448 7v1c0 2.757 2.243 5 5 5h6c2.757 0 5-2.243 5-5v-1zm9 4h-2c-.552 0-1-.447-1-1s.448-1 1-1h2c.552 0 1 .447 1 1s-.448 1-1 1zm6.448-9c-.546 0-1.093-.133-1.581-.384-1.153-.598-1.867-1.771-1.867-3.064v-6.55c0-.979.294-1.887.782-2.659-.555-.213-1.153-.343-1.782-.343h-6c-2.757 0-5 2.243-5 5v11h16v-3.046c-.181.029-.365.046-.552.046zm-9.448-10c1.381 0 2.5 1.119 2.5 2.5s-1.119 2.5-2.5 2.5-2.5-1.119-2.5-2.5 1.119-2.5 2.5-2.5zm3.351 9.937c-.504.192-1.094-.062-1.288-.586-.303-.808-1.132-1.351-2.063-1.351s-1.761.543-2.063 1.351c-.194.519-.77.779-1.288.586-.517-.194-.779-.771-.585-1.287.594-1.585 2.176-2.649 3.937-2.649s3.343 1.064 3.937 2.649c.194.517-.068 1.093-.585 1.287z"/></svg>