<svg id="Layer_1" viewBox="0 0 24 24" xmlns="http://www.w3.org/2000/svg" data-name="Layer 1"><path d="m23.707 22.293-2.362-2.362c.381-.141.655-.5.655-.93v-14.001c0-.553-.447-1-1-1h-.101c-.465-2.279-2.484-4-4.899-4h-9c-1.529 0-2.879.705-3.792 1.794l-1.501-1.501c-.391-.391-1.023-.391-1.414 0s-.391 1.023 0 1.414l22 22c.195.195.451.293.707.293s.512-.098.707-.293c.391-.391.391-1.023 0-1.414zm-9.707-11.293c0-.553.447-1 1-1h1c.553 0 1 .447 1 1s-.447 1-1 1h-1c-.553 0-1-.447-1-1zm-7-7h9c.553 0 1 .447 1 1v2c0 .553-.447 1-1 1h-6.586l-3.345-3.345c.141-.381.5-.655.93-.655zm8 16c-.553 0-1-.447-1-1 0-.229.09-.429.219-.598l-2.402-2.402h-.817c-.552 0-1-.447-1-1 0-.229.09-.429.219-.598l-2.402-2.402h-.817c-.552 0-1-.447-1-1 0-.229.09-.429.219-.598l-4.219-4.219v12.817c0 2.757 2.243 5 5 5h9c1.076 0 2.064-.356 2.88-.937l-3.063-3.063zm-7 0h-1c-.552 0-1-.447-1-1s.448-1 1-1h1c.552 0 1 .447 1 1s-.448 1-1 1zm0-4h-1c-.552 0-1-.447-1-1s.448-1 1-1h1c.552 0 1 .447 1 1s-.448 1-1 1zm4 4h-1c-.552 0-1-.447-1-1s.448-1 1-1h1c.552 0 1 .447 1 1s-.448 1-1 1z"/></svg>