<svg id="Layer_1" viewBox="0 0 24 24" xmlns="http://www.w3.org/2000/svg" data-name="Layer 1"><path d="m11 0c-6.065 0-11 4.935-11 11 0 .498.08 1.306.207 2.274.236 1.947.639 4.094.969 6.031.34 1.907 1.714 3.416 3.584 3.936 1.315.367 3.029.759 6.74.759.552 0 1-.447 1-1s-.448-1-1-1c-.871 0-1.621-.023-2.275-.061l-.716-4.939h3.491c.552 0 1-.447 1-1s-.448-1-1-1h-9.455c-.183-.626-.266-1.321-.346-1.915-.068-.979.094-1.729.487-2.262.941-1.278 3.427-1.823 8.313-1.823 5.639 0 8.435.729 9.067 2.361.174.449.643.704 1.116.622.473-.089.816-.502.816-.983.002-6.065-4.933-11-10.998-11zm-4.512 17 .685 4.724c-.771-.121-1.364-.266-1.876-.409-1.124-.312-1.948-1.217-2.152-2.36-.123-.691-.234-1.335-.339-1.954h3.682zm6.512-10h-3.865c-.552 0-1-.447-1-1s.448-1 1-1h3.865c.552 0 1 .447 1 1s-.448 1-1 1zm10.269 7.731c-1.341-1.342-5.25-.787-7.287 1.25s-2.592 5.945-1.25 7.287 5.25.787 7.287-1.25 2.592-5.945 1.25-7.287zm-2.562 3.976-2 2c-.391.391-1.023.391-1.414 0s-.391-1.023 0-1.414l2-2c.391-.391 1.023-.391 1.414 0s.391 1.023 0 1.414z"/></svg>