<svg id="Layer_1" viewBox="0 0 24 24" xmlns="http://www.w3.org/2000/svg" data-name="Layer 1"><path d="m21 23c0 .552-.448 1-1 1-.552 0-1-.448-1-1 0-.552.448-1 1-1 .552 0 1 .448 1 1zm2-4c-.552 0-1 .448-1 1 0 .552.448 1 1 1 .552 0 1-.448 1-1 0-.552-.448-1-1-1zm-3 0c-.552 0-1 .448-1 1 0 .552.448 1 1 1 .552 0 1-.448 1-1 0-.552-.448-1-1-1zm-2-3v-1c0-1.103-.897-2-2-2h-1c-1.103 0-2 .897-2 2v1c0 1.103.897 2 2 2h1c1.103 0 2-.897 2-2zm-2-1v1s-1 0-1 0v-1zm2 7v-1c0-1.103-.897-2-2-2h-1c-1.103 0-2 .897-2 2v1c0 1.103.897 2 2 2h1c1.103 0 2-.897 2-2zm-2-1v1s-1 0-1 0v-1zm8-5v-1c0-1.103-.897-2-2-2h-1c-1.103 0-2 .897-2 2v1c0 1.103.897 2 2 2h1c1.103 0 2-.897 2-2zm-2-1v1s-1 0-1 0v-1zm-10.997 5.975c-.168.008-.333.025-.503.025-5.79 0-10.5-4.71-10.5-10.5s4.71-10.5 10.5-10.5 10.5 4.71 10.5 10.5c0 .17-.017.335-.025.503-.94.006-1.794.35-2.475.9-.687-.556-1.549-.903-2.5-.903h-1c-.3 0-.591.039-.873.102-1.839-2.114-5.208-2.109-7.163-.138-.391.39-.391 1.023 0 1.414s1.023.391 1.414 0c1.061-1.06 2.719-1.148 3.892-.286-.365.342-.661.751-.878 1.208-.25-.186-.557-.301-.892-.301-.828 0-1.5.672-1.5 1.5s.672 1.5 1.5 1.5c.176 0 .342-.036.499-.092-.022.976.328 1.885.903 2.592-.551.681-.894 1.534-.9 2.475zm-5.099-11.071c1.228-1.228 2.86-1.904 4.596-1.904s3.369.676 4.596 1.904c.391.391 1.023.391 1.414 0 .391-.39.391-1.023 0-1.414-1.605-1.605-3.74-2.49-6.01-2.49s-4.405.884-6.01 2.49c-.391.391-.391 1.024 0 1.414.391.391 1.023.391 1.414 0z"/></svg>