<svg id="Layer_1" viewBox="0 0 24 24" xmlns="http://www.w3.org/2000/svg" data-name="Layer 1"><path d="m3.705 21.709-1.998 1.998c-.195.195-.451.293-.707.293s-.512-.098-.707-.293c-.391-.391-.391-1.023 0-1.414l1.998-1.998c.092.766.648 1.322 1.414 1.414zm20.295-19.39c.026-1.292-1.027-2.345-2.32-2.319-.79.016-1.799.088-3.031.27-2.243.432-4.837 2.624-4.837 2.624l-.213-.882c-.336-.868-1.397-1.186-2.159-.651-.858.603-1.907 1.95-2.707 3.27l-.251-.758c-.213-.593-.973-.77-1.419-.324l-.009.009c-1.058 1.058-2.434 3.105-2.434 5.823l-.64-.478c-.527-.275-1.166.018-1.315.594-1.01 3.906-.638 8.604-.374 10.797l14.002-14.001c.391-.391 1.023-.391 1.414 0s.391 1.023 0 1.414l-14.002 14.002c2.192.264 6.891.636 10.797-.374.575-.149.869-.788.594-1.315l-.475-.64c2.718 0 4.762-1.376 5.82-2.434l.009-.009c.445-.446.269-1.206-.324-1.419l-.758-.251c1.337-.811 2.695-1.897 3.292-2.78.516-.764.163-1.81-.705-2.119l-.849-.23s2.193-2.546 2.624-4.789c.183-1.232.254-2.24.27-3.031z"/></svg>