<?xml version="1.0" encoding="UTF-8"?>
<svg xmlns="http://www.w3.org/2000/svg" id="Layer_1" data-name="Layer 1" viewBox="0 0 24 24">
  <path d="m24,7v1H0v-1C0,4.243,2.243,2,5,2h1v-1c0-.553.447-1,1-1s1,.447,1,1v1h8v-1c0-.553.447-1,1-1s1,.447,1,1v1h1c2.757,0,5,2.243,5,5Zm-2.315,9.267l-3.04-.506c-.374-.062-.645-.382-.645-.761,0-.552.448-1,1-1h2.268c.356,0,.688.191.867.501.275.477.886.643,1.366.364.478-.276.642-.888.364-1.366-.534-.925-1.53-1.499-2.598-1.499h-.268v-1c0-.553-.447-1-1-1s-1,.447-1,1v1c-1.654,0-3,1.346-3,3,0,1.359.974,2.51,2.315,2.733l3.04.506c.374.062.645.382.645.761,0,.552-.448,1-1,1h-2.268c-.356,0-.688-.191-.867-.501-.275-.478-.888-.644-1.366-.364-.478.276-.642.888-.364,1.366.534.925,1.53,1.499,2.598,1.499h.268v1c0,.553.447,1,1,1s1-.447,1-1v-1c1.654,0,3-1.346,3-3,0-1.359-.974-2.51-2.315-2.733Zm-7.281,5.234c-.401-.691-.509-1.5-.302-2.275.145-.54.429-1.018.824-1.394-.586-.796-.926-1.777-.926-2.832,0-2.07,1.265-3.851,3.062-4.609.028-.135.072-.263.117-.391H0v9c0,2.757,2.243,5,5,5h12.182c-.033-.093-.071-.183-.095-.28-1.114-.39-2.077-1.169-2.684-2.219Z"/>
</svg>
