<svg id="Layer_1" viewBox="0 0 24 24" xmlns="http://www.w3.org/2000/svg" data-name="Layer 1"><path d="m23 24h-20c-1.654 0-3-1.346-3-3s1.346-3 3-3h20c.419 0 .794.262.938.655.145.394.028.835-.291 1.107-.176.154-.647.688-.647 1.238 0 .647.641 1.232.647 1.238.319.271.436.713.291 1.107s-.519.655-.938.655zm-12.083-23.885c-1.908.4-3.437 1.958-3.816 3.87-.411 2.074.469 3.955 1.968 5.042.322.222.466.593.431.973 0 1.105.895 2 2 2h1c1.105 0 2-.895 2-2-.035-.38.11-.751.432-.974 1.249-.906 2.068-2.364 2.068-4.025 0-3.115-2.849-5.564-6.083-4.886zm3.018 4.839c-.201.407-.535.727-.935.939v2.107c0 .552-.447 1-1 1s-1-.448-1-1v-2.107c-.4-.212-.734-.532-.935-.939-.218-.44.143-.954.634-.954h2.602c.491 0 .852.514.634.954zm9.065 8.046c0-.549.472-1.083.647-1.238.319-.271.436-.713.291-1.107s-.519-.655-.938-.655h-6.498c-.007.115-.017.226-.017.35-.178 2.042-1.897 3.65-3.985 3.65h-1c-2.087 0-3.806-1.607-3.985-3.649 0-.123-.012-.235-.019-.351h-4.496c-1.654 0-3 1.346-3 3s1.346 3 3 3h20c.419 0 .794-.262.938-.655.145-.394.028-.835-.291-1.107-.007-.005-.647-.59-.647-1.238z"/></svg>