<svg id="Layer_1" viewBox="0 0 24 24" xmlns="http://www.w3.org/2000/svg" data-name="Layer 1"><path d="m16.689 14.253-4.48 7.464c-.59 1.012.14 2.283 1.311 2.283h8.96c1.171 0 1.901-1.271 1.311-2.283l-4.48-7.464c-.586-1.004-2.037-1.004-2.622 0zm1.311 8.747c-.552 0-1-.448-1-1 0-.552.448-1 1-1 .552 0 1 .448 1 1 0 .552-.448 1-1 1zm-1-4v-1.5c0-.552.448-1 1-1 .552 0 1 .448 1 1v1.5c0 .552-.448 1-1 1-.552 0-1-.448-1-1zm7-14c0-2.757-2.243-5-5-5h-14c-2.757 0-5 2.243-5 5v2h24zm-19.5 0c-.828 0-1.5-.672-1.5-1.5s.672-1.5 1.5-1.5 1.5.672 1.5 1.5-.672 1.5-1.5 1.5zm4 0c-.828 0-1.5-.672-1.5-1.5s.672-1.5 1.5-1.5 1.5.672 1.5 1.5-.672 1.5-1.5 1.5zm-2.5 17h-2c-2.209 0-4-1.791-4-4v-9h24v8c0 .337-.053.659-.123.974l-2.838-4.729c-.637-1.093-1.773-1.745-3.039-1.745s-2.392.647-3.031 1.732l-2.002 3.336c-.135-.92-.693-1.7-1.467-2.151v-.817c0-1.67-1.129-3.19-2.765-3.525-2.249-.461-4.235 1.255-4.235 3.425v.917c-.892.52-1.5 1.477-1.5 2.583v2c0 1.654 1.346 3 3 3zm2-10c.827 0 1.5.673 1.5 1.5v.5h-3v-.5c0-.827.673-1.5 1.5-1.5zm3 7v-2c0-.552-.449-1-1-1h-4c-.551 0-1 .448-1 1v2c0 .552.449 1 1 1h4c.551 0 1-.448 1-1zm-3 .25c-.69 0-1.25-.56-1.25-1.25s.56-1.25 1.25-1.25 1.25.56 1.25 1.25-.56 1.25-1.25 1.25z"/></svg>