<svg id="Layer_1" viewBox="0 0 24 24" xmlns="http://www.w3.org/2000/svg" data-name="Layer 1"><path d="m16.615 11.835c-1.163 1.39-2.83 2.165-4.616 2.165-1.784 0-3.451-.774-4.615-2.165-.943-1.126-1.384-2.591-1.384-4.06v-2.775s4 0 4 0v3c0 1.105.895 2 2 2 1.104 0 2-.895 2-1.999v-3.001h4v2.774c-.002 1.469-.443 2.934-1.385 4.06zm1.385-10.335v1.499h-4v-1.498c0-.829.672-1.501 1.5-1.501h1c.828 0 1.5.672 1.5 1.5zm-8 0v1.499h-4v-1.498c0-.829.672-1.501 1.5-1.501h1c.828 0 1.5.672 1.5 1.501zm12.204 3.662c-.642-.536-1.397-.879-2.204-1.039v3.652c0 2.021-.659 3.918-1.852 5.343-1.315 1.571-3.153 2.562-5.148 2.813v5.996c-.664.097-1.336.097-2 0v-5.995c-1.995-.25-3.834-1.241-5.149-2.814-1.194-1.425-1.851-3.323-1.851-5.344v-3.65c-.799.161-1.559.501-2.204 1.039-1.142.953-1.796 2.352-1.796 3.838v8.791c0 2.417 1.727 4.486 4.105 4.919l6.285 1.143c.534.097 1.071.146 1.609.146s1.075-.048 1.609-.146l6.285-1.143c2.379-.433 4.105-2.502 4.105-4.919v-8.791c0-1.487-.654-2.886-1.796-3.838z"/></svg>