<svg id="Layer_1" viewBox="0 0 24 24" xmlns="http://www.w3.org/2000/svg" data-name="Layer 1"><path d="m13.293 11.864c-3.87.813-7.293-2.133-7.293-5.864h2.5c1.956 0 3.744-.846 4.992-2.226.491-.543.261-1.433-.448-1.619-.007-.002-.014-.004-.02-.005-.358-.091-.754-.006-1 .269-.881.979-2.142 1.582-3.524 1.582h-2.15c.826-2.328 3.044-4.001 5.65-4.001 3.731 0 6.677 3.422 5.864 7.293-.476 2.265-2.307 4.096-4.571 4.571zm1.421 2.556-1.843 2.77 1.86 6.81h5.269c.553 0 1-.448 1-1 0-4.017-2.646-7.426-6.286-8.58zm-3.586 2.77-1.843-2.77c-3.64 1.154-6.286 4.563-6.286 8.58 0 .552.448 1 1 1h5.269z"/></svg>