<svg id="Layer_1" viewBox="0 0 24 24" xmlns="http://www.w3.org/2000/svg" data-name="Layer 1"><path d="m22.194 17.617c.728-1.542 1.394-3.434 1.562-4.031.144-.514.201-.841.218-.95.19-1.249-.669-2.417-1.919-2.607-1.241-.189-2.407.644-2.603 1.895-.008.054-.382 1.728-1.191 3.372-.654-.562-1.431-1.246-2.129-1.899 1.443-4.075 1.868-7.977 1.868-9.518 0-.694-.044-1.124-.061-1.266-.202-1.63-1.687-2.79-3.318-2.588-1.62.2-2.62 1.48-2.62 3.286 0 0 .052 2.436-.556 4.572-1.199-1.473-2.038-3.407-2.506-4.46-.506-1.962-2.271-3.417-4.389-3.417-2.916-.044-5.188 2.867-4.388 5.676.431 1.395 1.006 2.69 1.674 3.906 1.498-.241 3.776-.752 5.852-1.801.462-.234 1.027-.059 1.292.386.299.502.103 1.151-.419 1.414-1.952.983-4.017 1.532-5.597 1.836 1.102 1.622 2.371 3.067 3.72 4.349 1.708-.214 3.885-.627 5.961-1.428.369-.143.782-.062 1.062.218.52.499.353 1.378-.319 1.639-1.617.627-3.268 1.034-4.75 1.301.002.002.005.004.007.006-1.583.34-5.948.652-5.623.586-1.632.081-2.798.944-2.996 2.552-.2 1.62.952 3.094 2.571 3.294.141.017.568.061 1.257.061 1.496 0 5.482-.447 9.874-1.828.861-.271 1.793-.185 2.601.216 1.021.506 1.916.905 2.57 1.197.536.239 1.072.413 1.621.413 1.211 0 2.384-.647 3.001-1.787.89-1.641.579-3.693-1.328-4.594z"/></svg>