<svg id="Layer_1" viewBox="0 0 24 24" xmlns="http://www.w3.org/2000/svg" data-name="Layer 1"><path d="m19 18v-1c0-2.206-1.794-4-4-4h-2v-1c0-.552-.448-1-1-1s-1 .448-1 1v1h-2c-2.206 0-4 1.794-4 4v1c-.552 0-1 .447-1 1s.448 1 1 1c0 2.206 1.794 4 4 4h6c2.206 0 4-1.794 4-4 .553 0 1-.447 1-1s-.447-1-1-1zm-9.5 2c-.828 0-1.5-.672-1.5-1.5s.672-1.5 1.5-1.5 1.5.672 1.5 1.5-.672 1.5-1.5 1.5zm5 0c-.828 0-1.5-.672-1.5-1.5s.672-1.5 1.5-1.5 1.5.672 1.5 1.5-.672 1.5-1.5 1.5zm8.5-17h-8v-.5c0-1.378-1.121-2.5-2.5-2.5h-1c-1.378 0-2.5 1.122-2.5 2.5v.5h-8c-.552 0-1 .448-1 1s.448 1 1 1h8.032c.074.676.359 1.305.847 1.793l1.121 1.121v1.086c0 .552.448 1 1 1s1-.448 1-1v-1.086l1.121-1.121c.488-.488.773-1.117.847-1.793h8.032c.553 0 1-.448 1-1s-.447-1-1-1z"/></svg>