<svg id="Layer_1" viewBox="0 0 24 24" xmlns="http://www.w3.org/2000/svg" data-name="Layer 1"><path d="m15 12h-6c-2.209 0-4 1.791-4 4v4c0 2.209 1.791 4 4 4h6c2.209 0 4-1.791 4-4v-4c0-2.209-1.791-4-4-4zm-2 5h-2c-.552 0-1-.448-1-1s.448-1 1-1h2c.552 0 1 .448 1 1s-.448 1-1 1zm9.641-13.115c.219.32.359.698.359 1.115 0 .872-.564 1.607-1.344 1.88.217.32.344.705.344 1.12 0 1.103-.897 2-2 2h-16c-1.103 0-2-.897-2-2 0-.414.127-.8.344-1.12-.78-.273-1.344-1.008-1.344-1.88 0-.417.14-.795.359-1.115-.788-.269-1.359-1.008-1.359-1.885 0-1.103.897-2 2-2h3.5c2.885 0 3.759 2.509 3.858 3 .33 1.635.977 3.663 2.642 5 1.665-1.337 2.312-3.365 2.642-5 .099-.492.974-3 3.858-3h3.5c1.103 0 2 .897 2 2 0 .878-.572 1.617-1.359 1.885z"/></svg>