<svg id="Layer_1" viewBox="0 0 24 24" xmlns="http://www.w3.org/2000/svg" data-name="Layer 1"><path d="m23.33 19.634-.549-.317c.129-.419.219-.856.219-1.317s-.09-.897-.219-1.317l.549-.317c.478-.276.642-.888.366-1.366-.277-.478-.888-.644-1.366-.366l-.544.314c-.604-.65-1.392-1.122-2.286-1.327v-.621c0-.552-.448-1-1-1s-1 .448-1 1v.621c-.894.204-1.682.677-2.286 1.327l-.544-.314c-.48-.277-1.09-.112-1.366.366-.276.479-.112 1.09.366 1.366l.549.317c-.129.419-.219.856-.219 1.317s.09.897.219 1.317l-.549.317c-.478.276-.642.888-.366 1.366.186.321.521.5.867.5.169 0 .341-.043.499-.134l.544-.314c.604.65 1.392 1.122 2.286 1.327v.621c0 .552.448 1 1 1s1-.448 1-1v-.621c.894-.204 1.682-.677 2.286-1.327l.544.314c.158.091.33.134.499.134.346 0 .682-.179.867-.5.276-.479.112-1.09-.366-1.366zm-4.83-.134c-.828 0-1.5-.672-1.5-1.5s.672-1.5 1.5-1.5 1.5.672 1.5 1.5-.672 1.5-1.5 1.5zm-7.501-6.5v-2c0-.552.448-1 1-1s1 .448 1 1v1.201c1.434-1.361 3.367-2.201 5.501-2.201 1.544 0 2.981.445 4.203 1.202l-1.244-7.069c-.422-2.396-2.492-4.134-4.924-4.134h-9.085c-2.435.001-4.506 1.741-4.925 4.139l-2.45 14c-.255 1.458.145 2.945 1.097 4.079.952 1.133 2.347 1.783 3.828 1.783h8.221c-1.665-1.466-2.721-3.607-2.721-6 0-1.491.415-2.881 1.125-4.076-.366-.148-.626-.505-.626-.924zm0-9c0-.552.448-1 1-1s1 .448 1 1v2c0 .552-.448 1-1 1s-1-.448-1-1z"/></svg>