<svg id="Layer_1" viewBox="0 0 24 24" xmlns="http://www.w3.org/2000/svg" data-name="Layer 1"><path d="m22 14c-.552 0-1-.447-1-1v-8c0-.552.448-1 1-1 1.103 0 2 .897 2 2v6c0 1.103-.897 2-2 2zm-3-9v8c0 2.206-1.794 4-4 4h-4.938l-1.114 1.826c-.92 1.508-2.54 2.388-4.19 2.388-.486 0-.973-.081-1.448-.239l-1.441 2.522c-.275.484-.894.644-1.364.372-.479-.274-.646-.885-.372-1.364l1.456-2.548c-.568-.514-1.021-1.147-1.291-1.881-.498-1.351-.367-2.838.358-4.079l5.22-9.009c1.426-2.46 4.078-3.988 6.921-3.988h2.203c2.206 0 4 1.794 4 4zm-4.191 3.846c-.28-.521-.821-.846-1.413-.846h-.975l1.475-1.883c.341-.435.264-1.063-.17-1.404-.436-.34-1.064-.264-1.404.17l-2.053 2.626c-.327.493-.357 1.123-.077 1.645s.821.846 1.413.846h.975l-1.475 1.883c-.341.435-.264 1.063.17 1.404.431.339 1.062.267 1.404-.171l2.053-2.626c.327-.493.357-1.123.077-1.645z"/></svg>