<svg id="Layer_1" viewBox="0 0 24 24" xmlns="http://www.w3.org/2000/svg" data-name="Layer 1"><path d="m20.949 15h-17.898c.252-2.244 2.139-4 4.449-4h1.051c.232-1.14 1.242-2 2.449-2h2c1.208 0 2.217.86 2.449 2h1.051c2.31 0 4.197 1.756 4.449 4zm-11.256-10.779 1.307-1.256v3.036c0 .552.447 1 1 1s1-.448 1-1v-2.993l1.32 1.225c.403.375 1.037.353 1.413-.053.375-.405.352-1.038-.054-1.413l-2.385-2.213c-.716-.714-1.974-.699-2.658-.014l-2.329 2.24c-.397.383-.41 1.016-.027 1.414.382.398 1.015.41 1.414.027zm-6.693 1.744v3.036c0 .552.447 1 1 1s1-.448 1-1v-2.992l1.32 1.225c.403.375 1.037.353 1.413-.053.375-.405.352-1.038-.054-1.413l-2.386-2.213c-.716-.714-1.974-.699-2.658-.014l-2.328 2.238c-.397.383-.41 1.016-.027 1.414.383.397 1.015.41 1.414.027l1.307-1.256zm10 11.036v1c0 .552-.447 1-1 1s-1-.448-1-1v-1h-8v2.5c0 2.481 2.019 4.5 4.5 4.5h9c2.481 0 4.5-2.019 4.5-4.5v-2.5zm10.68-11.234-2.386-2.213c-.715-.714-1.974-.699-2.658-.014l-2.329 2.24c-.397.383-.41 1.016-.027 1.414.382.397 1.015.41 1.414.027l1.307-1.256v3.036c0 .552.447 1 1 1s1-.448 1-1v-2.992l1.32 1.225c.403.375 1.037.353 1.413-.053.375-.405.352-1.038-.054-1.413z"/></svg>