<svg id="Layer_1" viewBox="0 0 24 24" xmlns="http://www.w3.org/2000/svg" data-name="Layer 1"><path d="m21.486 15.98c.024-.001.012 0 0 0l-.159.894c-.425 2.39-2.496 4.125-4.923 4.125h-8.807c-2.427 0-4.498-1.734-4.923-4.124l-.159-.953c1.884 1.247 4.539 1.382 6.487.278 1.836 1.04 4.166 1.041 5.997.001.908.524 1.933.798 3.002.798 1.207 0 2.496-.358 3.485-1.019-.011 0-.022.001 0 0zm2.514-4.98c0 1.206-.799 3-3 3-.209 0-.409.064-.562.18-.704.536-1.547.82-2.438.82s-1.735-.284-2.439-.82c-.313-.238-.806-.239-1.123 0-1.407 1.072-3.469 1.073-4.877 0-.313-.238-.806-.239-1.123 0-1.407 1.072-3.469 1.073-4.877 0-.152-.116-.352-.18-.561-.18-2.201 0-3-1.794-3-3 0-3.624 5.353-8 12-8s12 4.376 12 8zm-13.65-4.985c-.703.168-1.657.442-1.967.752-.511.511-.511 1.339 0 1.85s1.339.511 1.85 0c.31-.31.584-1.263.752-1.967.091-.383-.252-.727-.635-.635zm5.267.752c-.31-.31-1.263-.584-1.967-.752-.383-.091-.727.252-.635.635.168.703.442 1.657.752 1.967.511.511 1.339.511 1.85 0s.511-1.339 0-1.85z"/></svg>