<svg id="Layer_1" viewBox="0 0 24 24" xmlns="http://www.w3.org/2000/svg" data-name="Layer 1"><path d="m21.5 0h-6c-1.375 0-2.5 1.125-2.5 2.501l.002 7.41c0 .858.949 1.378 1.672.915l2.826-1.827h4c1.381 0 2.5-1.119 2.5-2.5v-3.999c0-1.381-1.119-2.5-2.5-2.5zm-1.5 6.999h-3c-1.105 0-2-.895-2-2h1.737l1.242.842c.315.21.726.21 1.041 0l1.242-.842h1.737c0 1.105-.895 2-2 2zm-5-3c0-1.105.895-2 2-2h3c1.105 0 2 .895 2 2zm5.655 10.862c-1.193-1.142-3.09-1.138-4.28.006l-1.906 1.606c-3.198-1.357-5.474-3.637-6.932-6.945l1.6-1.897c.557-.579.863-1.339.863-2.145s-.304-1.559-.857-2.138c0 0-1.852-2.407-1.883-2.438-1.207-1.207-3.17-1.206-4.327-.047l-1.149 1.005c-1.151 1.148-1.784 2.702-1.784 4.375 0 7.636 10.126 17.762 17.762 17.762 1.673 0 3.227-.634 4.421-1.833l.912-1.05c1.205-1.207 1.205-3.171 0-4.378-.031-.03-2.439-1.883-2.439-1.883z"/></svg>