<svg id="Layer_1" viewBox="0 0 24 24" xmlns="http://www.w3.org/2000/svg" data-name="Layer 1"><path d="m6 14.5c0 .496-.404.9-.9.9h-.5v-1.8h.5c.496 0 .9.404.9.9zm3.612 2.501h1.261l-.638-3.295-.624 3.295zm9.088-3.401c-.386 0-.7 0-.7 0v4.802s.314 0 .7 0 .7-.314.7-.7v-3.4c0-.386-.314-.7-.7-.7zm3.3-8.6v14c0 2.761-2.239 5-5 5h-10c-2.761 0-5-2.239-5-5v-14c0-2.761 2.239-5 5-5h10c2.761 0 5 2.239 5 5zm-14.401 9.548c.026-1.401-1.154-2.548-2.556-2.548h-1.244c-.442 0-.8.358-.8.8v6.4c0 .442.358.8.8.8s.8-.358.8-.8v-2.2h.5c1.365 0 2.474-1.093 2.5-2.452zm5.224 4.592-1.221-5.947c-.12-.668-.589-1.192-1.346-1.192s-1.281.587-1.385 1.167l-1.2 5.976c-.089.443.25.857.702.857.345 0 .641-.246.704-.585l.166-.889h2.006l.157.883c.061.342.358.591.705.591h.01c.453 0 .793-.416.701-.86zm1.177-10.14c0-.553-.448-1-1-1h-6c-.552 0-1 .447-1 1s.448 1 1 1h6c.552 0 1-.447 1-1zm1.4 3.8c0-.442-.358-.8-.8-.8s-.8.358-.8.8v6.4c0 .442.358.8.8.8s.8-.358.8-.8zm2.6-7.8c0-.553-.448-1-1-1h-10c-.552 0-1 .447-1 1s.448 1 1 1h10c.552 0 1-.447 1-1zm3 9.3c0-1.27-1.03-2.3-2.3-2.3h-1.5c-.442 0-.8.358-.8.8v6.4c0 .442.358.8.8.8h1.5c1.27 0 2.3-1.03 2.3-2.3z"/></svg>