<svg id="Layer_1" viewBox="0 0 24 24" xmlns="http://www.w3.org/2000/svg" data-name="Layer 1"><path d="m9 12c-3.309 0-6-2.691-6-6s2.691-6 6-6 6 2.691 6 6-2.691 6-6 6zm6 10c-.551 0-1-.448-1-1v-1c0-.552.449-1 1-1 .551 0 1 .448 1 1v1c0 .552-.449 1-1 1zm8-3h-.184c-.414-1.161-1.514-2-2.816-2h-5c-1.654 0-3 1.346-3 3v1c0 1.654 1.346 3 3 3h5c1.302 0 2.402-.839 2.816-2h.184c.552 0 1-.447 1-1v-1c0-.553-.448-1-1-1zm-12.979-3.079c.028-.638.105-1.249.227-1.831-.408-.058-.824-.09-1.248-.09-4.962 0-9 4.037-9 9 0 .553.448 1 1 1h10.026c-.635-.838-1.026-1.87-1.026-3zm4.979-.921h5c1.602 0 3.073.783 4 2.035v-.535c0-3.427-3.119-6.062-5.286-8.211-.493-.489-1.339-.338-1.601.306-.97 2.383-.216 4.905-1.513 4.905-.523 0-.863-.295-1.172-1.134-.208-.566-.976-.644-1.292-.131-.23.374-.438.731-.517.919-.381.903-.556 1.876-.599 2.856.835-.625 1.86-1.01 2.981-1.01z"/></svg>