<svg id="Layer_1" viewBox="0 0 24 24" xmlns="http://www.w3.org/2000/svg" data-name="Layer 1"><path d="m10.5 22.5c0-.828.672-1.5 1.5-1.5s1.5.672 1.5 1.5-.672 1.5-1.5 1.5-1.5-.672-1.5-1.5zm2.5-3.5v-.5c0-.316.244-.692.437-.766 1.876-.722 2.91-2.684 2.457-4.664-.334-1.466-1.498-2.63-2.964-2.964-1.218-.278-2.465.002-3.423.766s-1.507 1.903-1.507 3.128c0 .553.448 1 1 1s1-.447 1-1c0-.612.275-1.183.754-1.564.487-.389 1.101-.522 1.731-.38.71.162 1.297.749 1.459 1.46.259 1.135-.421 2.042-1.227 2.353-.979.377-1.717 1.509-1.717 2.632v.5c0 .553.448 1 1 1s1-.447 1-1zm-4.5 3.5c0-.84.31-1.602.805-2.206-.19-.393-.305-.829-.305-1.294v-.5c0-.514.089-1.024.251-1.511-1.712.134-3.251-1.251-3.251-2.989 0-1.836.824-3.546 2.26-4.691.806-.644 1.749-1.05 2.74-1.217v-6.108c0-1.093-.885-1.981-1.978-1.984h-.022c-1.896 0-3.489 1.327-3.898 3.102-1.781.41-3.112 2.016-3.102 3.92-1.248.939-2 2.41-2 3.979 0 .886.235 1.737.686 2.5-.45.763-.686 1.614-.686 2.5 0 1.686.858 3.244 2.267 4.165.719 2.279 2.812 3.835 5.233 3.835.431 0 .85-.05 1.252-.144.007-.002.013-.005.02-.007-.174-.416-.272-.871-.272-1.35zm15.5-11.5c0-1.568-.752-3.04-2-3.979.011-1.904-1.32-3.51-3.102-3.92-.409-1.774-2.002-3.102-3.898-3.102h-.022c-1.093.003-1.978.89-1.978 1.983v6.108c.125.021.25.036.375.064 2.21.504 3.965 2.259 4.469 4.47.606 2.649-.575 5.28-2.851 6.578-.026.391-.129.762-.291 1.099.491.603.798 1.361.798 2.197 0 .478-.097.934-.272 1.35.007.002.013.005.019.006.402.094.822.144 1.253.144 2.422 0 4.515-1.556 5.233-3.835 1.408-.921 2.267-2.479 2.267-4.165 0-.886-.235-1.737-.686-2.5.45-.763.686-1.614.686-2.5z"/></svg>