<svg id="Layer_1" viewBox="0 0 24 24" xmlns="http://www.w3.org/2000/svg" data-name="Layer 1"><path d="m17.5 11c-3.59 0-6.5 2.91-6.5 6.5s2.91 6.5 6.5 6.5 6.5-2.91 6.5-6.5-2.91-6.5-6.5-6.5zm3.191 9.653c-.812.83-1.939 1.347-3.191 1.347-1.228 0-2.327-.507-3.133-1.311l-.695.695c-.248.248-.672.072-.672-.278v-2.526c0-.32.259-.579.579-.579h2.526c.351 0 .526.424.278.672l-.607.607c.449.438 1.048.721 1.723.721s1.289-.275 1.738-.716c.171-.168.473-.284.774-.284.862 0 1.281 1.037.679 1.653zm1.309-4.232c0 .32-.259.579-.579.579h-2.526c-.351 0-.526-.424-.278-.672l.607-.607c-.449-.438-1.048-.721-1.723-.721s-1.289.275-1.738.716c-.171.168-.438.284-.774.284-.862 0-1.281-1.037-.679-1.653.812-.83 1.939-1.347 3.191-1.347 1.228 0 2.327.506 3.133 1.311l.695-.695c.248-.248.672-.072.672.278v2.526zm-10-9.421v-6.54c.913.346 1.753.879 2.465 1.59l3.484 3.486c.712.711 1.245 1.551 1.591 2.464h-6.54c-.552 0-1-.449-1-1zm.028 17h-7.028c-2.757 0-5-2.243-5-5v-14c0-2.757 2.243-5 5-5h4.515c.163 0 .324.013.485.024v6.976c0 1.654 1.346 3 3 3h.502c-2.678 1.431-4.502 4.251-4.502 7.5 0 2.609 1.178 4.941 3.028 6.5z"/></svg>