<svg id="Layer_1" viewBox="0 0 24 24" xmlns="http://www.w3.org/2000/svg" data-name="Layer 1"><path d="m18 12c-1.105 0-2-.895-2-2s.895-2 2-2 2 .895 2 2-.895 2-2 2m-3.35-8c-.826-2.327-3.043-4-5.65-4s-4.824 1.673-5.65 4zm-5.65 8c3.309 0 6-2.691 6-6h-12c0 3.309 2.691 6 6 6zm12.799 6.798c-1.464 1.464-3.123 2.208-4.698 2.208-.085-.017-3.749 0-3.845-.006l-3.091 2.748c-.412.365-1.044.331-1.412-.083-.367-.413-.33-1.045.083-1.412l3.165-2.813v-3.356c-.061-1.629.679-3.361 2.201-4.882 0 0 .001-.001.002-.002.512 1.619 2.008 2.8 3.797 2.8 2.174 0 3.935-1.737 3.99-3.898.165.132.326.272.481.428 2.271 2.272 2.002 5.595-.672 8.269zm-5.799.202-2-2v2zm-7.642-1.479c-.448.671-1.434.671-1.882 0l-1.289-2.662c-3.06 1.439-5.188 4.542-5.188 8.141 0 .552.448 1 1 1h5.677c-.393-1.116-.106-2.409.83-3.242l2.494-2.217v-4.242z"/></svg>