<svg id="Layer_1" viewBox="0 0 24 24" xmlns="http://www.w3.org/2000/svg" data-name="Layer 1"><path d="m11.051 7.002c-.005.151-.073.294-.189.392-.294.249-.747.113-.856-.256l-.856-2.365-1.591 1.179c-.335.235-.801.079-.929-.309l-1.156-3.884c-.093-.317.026-.658.297-.847l1.134-.795c.363-.254.868-.074.988.352l.563 2.374 1.654-1.159c.391-.274.929-.002.941.475zm2 0c.005.151.073.294.189.392.294.249.747.113.856-.256l.856-2.365 1.591 1.179c.335.235.801.079.929-.309l1.156-3.884c.093-.317-.026-.658-.297-.847l-1.135-.795c-.363-.254-.868-.074-.988.352l-.563 2.374-1.654-1.159c-.391-.274-.929-.002-.941.475v4.843zm5.873 16.381c.155-.374.069-.804-.217-1.09-1.586-1.586-3.654-2.293-6.707-2.293s-5.122.707-6.707 2.293c-.286.286-.372.716-.217 1.09s.52.617.924.617h12c.404 0 .77-.243.924-.617zm-2.424-9.883c0-2.481-2.019-4.5-4.5-4.5s-4.5 2.019-4.5 4.5 2.019 4.5 4.5 4.5 4.5-2.019 4.5-4.5zm-11.269 6.273c.794-.539 1.679-.948 2.666-1.237-1.461-1.193-2.397-3.007-2.397-5.036 0-2.207 1.108-4.157 2.794-5.333-.05-.095-.109-.184-.147-.286-.571.22-1.189.237-1.76.049-.781-.259-1.4-.88-1.658-1.662l-.852-2.859c-2.028.531-3.569 2.3-3.73 4.443-.098 1.303-.147 2.529-.147 3.648s.05 2.346.147 3.648c.185 2.468 2.199 4.446 4.685 4.601.126.008.265.016.399.024zm18.622-11.921c-.158-2.109-1.656-3.85-3.638-4.411l-.825 2.772c-.271.833-.891 1.456-1.672 1.716-.577.192-1.205.173-1.764-.043-.045.12-.112.227-.174.337 1.644 1.181 2.72 3.104 2.72 5.277 0 2.029-.936 3.843-2.397 5.036.986.289 1.871.699 2.666 1.237.134-.008.274-.016.4-.024 2.485-.154 4.5-2.133 4.685-4.601.098-1.311.147-2.537.147-3.648s-.05-2.338-.147-3.648z"/></svg>