<svg id="Layer_1" viewBox="0 0 24 24" xmlns="http://www.w3.org/2000/svg" data-name="Layer 1"><path d="m23.309 16.888c-.65-.211-1.174-.679-1.366-1.222-.141-.399-.519-.666-.942-.666s-.802.267-.942.666c-.265.748-1.169 1.333-2.058 1.333s-1.793-.586-2.058-1.333c-.141-.399-.519-.666-.942-.666s-.802.267-.942.666c-.265.748-1.169 1.333-2.058 1.333s-1.793-.586-2.058-1.333c-.141-.399-.519-.666-.942-.666s-.802.267-.942.666c-.265.748-1.168 1.333-2.058 1.333s-1.793-.585-2.057-1.333c-.141-.4-.519-.667-.943-.667s-.802.267-.943.666c-.192.543-.715 1.011-1.365 1.222-.525.17-.813.734-.643 1.259.17.526.735.815 1.259.643.652-.211 1.233-.563 1.695-1.012.148.143.316.265.485.386l2.083 5.207c.152.379.52.628.929.628h11c.409 0 .776-.249.929-.628l2.084-5.208c.168-.121.336-.243.484-.385.463.449 1.043.801 1.695 1.012.528.171 1.09-.119 1.26-.643.17-.525-.117-1.089-.643-1.259zm-20.768-3.852 3.095-7.569c.408-.87 1.212-1.403 2.122-1.439.906-.041 1.754.433 2.204 1.222l.223.357 1.209-3.971c.364-.978 1.186-1.58 2.166-1.632.964-.055 1.859.461 2.3 1.338 0 .001 0 .002.002.004l5.816 11.741c-.22-.051-.445-.086-.678-.086-1.241 0-2.354.768-2.797 1.916-.107.084-.301.083-.406 0-.444-1.15-1.558-1.916-2.797-1.916s-2.354.768-2.797 1.916c-.107.084-.301.083-.406 0-.444-1.15-1.558-1.916-2.797-1.916s-2.354.768-2.797 1.916c-.109.087-.307.078-.405 0-.445-1.15-1.558-1.917-2.797-1.917-.156 0-.309.012-.459.036z"/></svg>