<svg id="Layer_1" viewBox="0 0 24 24" xmlns="http://www.w3.org/2000/svg" data-name="Layer 1"><path d="m11.494 8.6c.594.594.931 2.577.998 3.891-1.34-.07-3.302-.406-3.892-.997-.794-.762-.794-2.133 0-2.895.762-.794 2.132-.794 2.895 0zm12.506-5.6c0 .552-.448 1-1 1h-.58l-1.118 13.415c-.214 2.571-2.403 4.585-4.983 4.585h-8.638c-2.58 0-4.769-2.014-4.983-4.585l-1.118-13.415h-.58c-.552 0-1-.448-1-1s.448-1 1-1h22c.552 0 1 .448 1 1zm-6 11.5c0-.828-.672-1.5-1.5-1.5-.565 0-1.052.317-1.307.779l-.693-.693c-.032-1.063-.052-4.184-1.592-5.9-1.577-1.578-4.145-1.578-5.723 0-1.57 1.506-1.57 4.217 0 5.723 1.688 1.528 4.843 1.563 5.9 1.592l.693.693c-.462.256-.779.742-.779 1.307 0 .828.672 1.5 1.5 1.5s1.5-.672 1.5-1.5c0-.237-.06-.459-.158-.658.199.098.421.158.658.158.828 0 1.5-.672 1.5-1.5z"/></svg>