<svg id="Layer_1" viewBox="0 0 24 24" xmlns="http://www.w3.org/2000/svg" data-name="Layer 1"><path d="m18 20v2c0 .552-.448 1-1 1h-2c-.552 0-1-.448-1-1v-2c0-.552.448-1 1-1v-1.5h-6v1.5c.552 0 1 .448 1 1v2c0 .552-.448 1-1 1h-2c-.552 0-1-.448-1-1v-2c0-.552.448-1 1-1v-1.5c0-1.103.897-2 2-2h2v-1.5c-.552 0-1-.448-1-1v-2c0-.552.448-1 1-1h2c.552 0 1 .448 1 1v2c0 .552-.448 1-1 1v1.5h2c1.103 0 2 .897 2 2v1.5c.552 0 1 .448 1 1zm6-14v2h-24v-2c0-2.757 2.243-5 5-5h14c2.757 0 5 2.243 5 5zm-18-1.5c0-.828-.672-1.5-1.5-1.5s-1.5.672-1.5 1.5.672 1.5 1.5 1.5 1.5-.672 1.5-1.5zm4 0c0-.828-.672-1.5-1.5-1.5s-1.5.672-1.5 1.5.672 1.5 1.5 1.5 1.5-.672 1.5-1.5zm-1.934 9.121c-.042-.201-.066-.408-.066-.621v-2c0-.352.072-.686.184-1h-8.184v8c0 2.468 1.802 4.512 4.158 4.915-.094-.29-.158-.594-.158-.915v-2c0-.883.391-1.67 1-2.22v-.28c0-1.883 1.312-3.456 3.066-3.879zm7.934-2.621v2c0 .213-.024.421-.066.621 1.755.423 3.066 1.996 3.066 3.879v.28c.609.549 1 1.337 1 2.22v2c0 .321-.064.625-.158.915 2.355-.403 4.158-2.446 4.158-4.915v-8h-8.184c.112.314.184.648.184 1z"/></svg>