<svg id="Layer_1" viewBox="0 0 24 24" xmlns="http://www.w3.org/2000/svg" data-name="Layer 1"><path d="m14.5 0c-3.039 0-4.968 1.357-6.518 2.448-1.223.861-2.191 1.54-3.455 1.55-.817-.25-1.537-.921-1.528-1.935v-1.063c0-.552-.448-1-1-1s-.999.448-.999 1v1.054c-.02 2.119 1.622 3.841 3.834 4.041 1.298.354 2.166 1.712 2.166 3.405v4c0 1.362-.372 3.056-2.134 3.426-2.188.171-3.879 1.929-3.863 4.025l.002 2.05c0 .552.448.999 1 .999.553 0 1-.449.999-1.001l-.002-2.057c-.007-.922.638-1.685 1.559-1.938 1.019.025 1.697.637 2.786 1.709 1.488 1.464 3.341 3.286 7.152 3.286 2.25 0 4.363-.793 5.949-2.233 1.646-1.495 2.552-3.543 2.551-5.767v-7.999c0-4.486-3.734-8-8.5-8zm-2.288 6.771 2.013-2.013c.428-.428 1.122-.428 1.55 0l2.013 2.013c.454.454.132 1.229-.509 1.229h-1.278v3c0 .552-.448 1-1 1s-1-.448-1-1v-3h-1.278c-.642 0-.963-.776-.509-1.229zm8.184 8.663c-.977.376-1.9.566-2.743.566-1.216 0-2.158-.274-3.068-.54-.812-.236-1.579-.46-2.508-.46-.571 0-1.188.082-1.833.245-.535.133-1.08-.188-1.214-.726-.135-.535.189-1.079.725-1.214.805-.203 1.586-.306 2.322-.306 1.215 0 2.157.274 3.068.54 1.332.388 2.62.764 4.534.026.512-.196 1.093.058 1.292.574s-.059 1.095-.574 1.293z"/></svg>