<svg id="Layer_1" viewBox="0 0 24 24" xmlns="http://www.w3.org/2000/svg" data-name="Layer 1"><path d="m12.732 10.007c.343 1.019 1.184 4.058 1.184 5.076 0 1.057-.859 1.917-1.916 1.917s-1.916-.86-1.916-1.917c0-.936.768-3.825 1.187-5.088.092-.277.195-.521.295-.696.111-.19.269-.299.434-.299.312 0 .423.237.47.336.064.133.154.349.263.671zm11.268-2.007v10c0 2.757-2.243 5-5 5h-14c-2.757 0-5-2.243-5-5v-12c0-2.757 2.243-5 5-5h2.528c.463 0 .927.109 1.341.316l3.155 1.578c.138.069.293.105.448.105h6.528c2.757 0 5 2.243 5 5zm-6 0c0-.553-.448-1-1-1s-1 .447-1 1v1h-1.508c-.086-.225-.163-.413-.218-.525-.435-.924-1.285-1.475-2.274-1.475-.882 0-1.69.482-2.167 1.3-.117.205-.223.445-.323.7h-1.511v-1c0-.553-.448-1-1-1s-1 .447-1 1v1c0 1.103.897 2 2 2h.89c-.087.314-.176.653-.264 1h-1.626c-.552 0-1 .447-1 1s.448 1 1 1h1.195c-.062.38-.101.721-.108 1-1.133-.046-2.09.864-2.087 2v1c0 .553.448 1 1 1s1-.447 1-1v-1h.606c.673 1.188 1.934 2 3.394 2s2.72-.812 3.394-2h.606v1c0 .553.448 1 1 1s1-.447 1-1v-1c.003-1.136-.955-2.046-2.087-2-.006-.282-.044-.622-.106-1h1.193c.552 0 1-.447 1-1s-.448-1-1-1h-1.624c-.087-.347-.177-.687-.264-1h.888c1.103 0 2-.897 2-2v-1z"/></svg>