<svg id="Layer_1" viewBox="0 0 24 24" xmlns="http://www.w3.org/2000/svg" data-name="Layer 1"><path d="m22 14.556v-1.556c0-2.206-1.794-4-4-4s-4 1.794-4 4v1.556c-1.19.694-2 1.97-2 3.444v2c0 2.206 1.794 4 4 4h4c2.206 0 4-1.794 4-4v-2c0-1.474-.81-2.75-2-3.444zm-4 5.944c-.828 0-1.5-.672-1.5-1.5s.672-1.5 1.5-1.5 1.5.672 1.5 1.5-.672 1.5-1.5 1.5zm2-6.5h-4v-1c0-1.103.897-2 2-2s2 .897 2 2zm-10 6v-2c0-1.067.293-2.1.819-3h-.826c-.552 0-.999-.448-.999-1s.447-1 .999-1h.999c.422 0 .779.263.925.633.028-.026.053-.056.082-.081v-.552c0-2.603 1.669-4.817 3.99-5.646v-2.357c0-2.76-2.237-4.997-4.997-4.997h-5.995c-2.76 0-4.997 2.237-4.997 4.997v14.003c0 2.761 2.239 5 5 5h5.99c.176 0 .348-.015.517-.037-.935-1.058-1.507-2.444-1.507-3.963zm-.006-15h.999c.552 0 .999.448.999 1s-.447 1-.999 1h-.999c-.552 0-.999-.448-.999-1s.447-1 .999-1zm0 4h.999c.552 0 .999.448.999 1s-.447 1-.999 1h-.999c-.552 0-.999-.448-.999-1s.447-1 .999-1zm-3.997 10h-.999c-.552 0-.999-.448-.999-1s.447-1 .999-1h.999c.552 0 .999.448.999 1s-.447 1-.999 1zm0-4h-.999c-.552 0-.999-.448-.999-1s.447-1 .999-1h.999c.552 0 .999.448.999 1s-.447 1-.999 1zm0-4h-.999c-.552 0-.999-.448-.999-1s.447-1 .999-1h.999c.552 0 .999.448.999 1s-.447 1-.999 1zm0-4h-.999c-.552 0-.999-.448-.999-1s.447-1 .999-1h.999c.552 0 .999.448.999 1s-.447 1-.999 1z"/></svg>