<svg id="Layer_1" viewBox="0 0 24 24" xmlns="http://www.w3.org/2000/svg" data-name="Layer 1"><path d="m14 13h2v2h-2zm10-.095v6.514c-.269-.096-.549-.166-.842-.182-.801-.046-1.573.23-2.158.763-.053 0-.15-.042-.203-.084-.444-1.15-1.558-1.916-2.797-1.916s-2.354.768-2.797 1.917c-.112.087-.309.077-.405 0-.445-1.15-1.559-1.917-2.798-1.917s-2.353.767-2.798 1.917c-.101.079-.303.079-.405 0-.445-1.15-1.558-1.917-2.797-1.917v-5.095c0-1.664.824-3.213 2.203-4.145l4.56-3.077c1.36-.917 3.116-.916 4.475 0l4.56 3.077c1.379.931 2.203 2.48 2.203 4.145zm-6 .095c0-1.103-.897-2-2-2h-2c-1.103 0-2 .897-2 2v2c0 1.103.897 2 2 2h2c1.103 0 2-.897 2-2zm5.668 9.977c.411-.369.445-1.001.076-1.412-.372-.411-1.004-.445-1.412-.075-.366.329-.84.51-1.332.51-.889 0-1.793-.586-2.058-1.333-.141-.399-.519-.667-.942-.667s-.802.267-.942.667c-.265.748-1.169 1.333-2.058 1.333s-1.793-.585-2.057-1.333c-.141-.4-.519-.667-.943-.667s-.802.267-.943.667c-.264.748-1.167 1.333-2.057 1.333s-1.793-.585-2.057-1.333c-.141-.4-.519-.667-.943-.667s-.802.267-.943.667c-.264.748-1.167 1.333-2.057 1.333-.493 0-.965-.181-1.332-.51-.41-.369-1.043-.335-1.412.075-.369.411-.335 1.043.075 1.412.734.66 1.682 1.023 2.668 1.023 1.127 0 2.222-.472 3-1.225.778.753 1.873 1.225 3 1.225s2.222-.472 3-1.225c.778.753 1.872 1.225 3 1.225s2.222-.472 3-1.225c.778.753 1.872 1.225 3 1.225.987 0 1.935-.363 2.668-1.023zm-19.668-10.072c0-2.33 1.153-4.499 3.084-5.802l3.028-2.043c-.093-.371-.115-.861-.113-.969.013-.546-.089-1.091-.303-1.62-.463-1.144-1.438-2.014-2.609-2.327-.719-.191-1.453-.192-2.172 0-1.171.313-2.146 1.183-2.609 2.326-.214.529-.316 1.074-.303 1.619.003.162-.03.459-.294.645-1.069.746-1.708 1.967-1.708 3.265 0 .588.138 1.177.41 1.749.104.219.096.307.096.307-.003.016-.032.07-.079.161-.284.559-.427 1.159-.427 1.784 0 2.206 1.794 4 4 4v-3.095z"/></svg>