<svg id="Layer_1" viewBox="0 0 24 24" xmlns="http://www.w3.org/2000/svg" data-name="Layer 1"><path d="m7 4c-.552 0-1-.448-1-1v-2c0-.552.448-1 1-1s1 .448 1 1v2c0 .552-.448 1-1 1zm-3.96.902c.488-.259.673-.864.415-1.352l-1.072-2.019c-.259-.488-.863-.674-1.352-.415-.488.259-.673.864-.415 1.352l1.071 2.019c.26.492.874.671 1.352.415zm5.96 8.098h6c0-3.309-2.691-6-6-6zm-2-6c-3.309 0-6 2.691-6 6h6zm-6 8v2c0 3.859 3.14 7 7 7s7-3.141 7-7v-2zm23 6.5v-1.5c0-.552-.448-1-1-1h-5c-.552 0-1 .448-1 1v1.5c0 1.381 1.119 2.5 2.5 2.5h2c1.381 0 2.5-1.119 2.5-2.5zm-1-5.5v1h-5v-1c0-.552.448-1 1-1h3c.552 0 1 .448 1 1z"/></svg>