<?xml version="1.0" encoding="UTF-8"?>
<svg xmlns="http://www.w3.org/2000/svg" id="Layer_1" data-name="Layer 1" viewBox="0 0 24 24">
  <path d="M24,11.5c0-1.434-.87-2.692-2.149-3.226C21.027,3.512,16.905,0,12,0,5.096,0,3.124,4.674,1.818,7.767c-.439,1.042-.895,2.121-1.321,2.369-.819,.44-.547,1.772,.379,1.856,.218,.028,3.522,.403,7.252-1.095-.081,.185-.128,.388-.128,.603,0,.828,.672,1.5,1.5,1.5s1.5-.672,1.5-1.5c0-.701-.482-1.284-1.132-1.449,1.716-.961,3.435-2.357,4.913-4.426,.117-.146,.915-1.173,1.361-2.477,2.076,1.253,3.54,3.427,3.812,6.002,.046,.441,.378,.799,.815,.879,.713,.129,1.23,.749,1.23,1.471,0,.827-.673,1.5-1.5,1.5-.088,0-.173-.014-.256-.028-.475-.08-.95,.193-1.113,.652-.285,.808-.789,1.637-1.428,2.392-.675-.284-1.308-.618-1.886-1.056-.83-.628-1.621-.96-2.501-.96-.604-.028-.845,.257-1.318,.295-.472-.038-.714-.323-1.318-.295-.88,0-1.671,.332-2.501,.96-.559,.423-1.171,.747-1.821,1.026-.392-.466-.749-.955-1.015-1.455-.259-.488-.865-.674-1.352-.414-.488,.259-.674,.865-.414,1.353,.219,.413,.472,.815,.755,1.205-.246,.066-.487,.136-.743,.198-.814,.208-.752,1.227,0,1.487,.691,.262,1.929,.641,3.615,.641,1.221,0,3.3-.601,4.223-1.684,.31-.363,.83-.363,1.139,0,.924,1.083,3.002,1.684,4.223,1.684,1.686,0,2.924-.379,3.615-.641,.752-.26,.814-1.279,0-1.487-.237-.057-.457-.122-.685-.183,.401-.548,.745-1.116,1.011-1.697,1.822-.12,3.268-1.64,3.268-3.492Zm-11,0c0-.828,.672-1.5,1.5-1.5s1.5,.672,1.5,1.5-.672,1.5-1.5,1.5-1.5-.672-1.5-1.5Zm-1.002,7.976c1.234,.88,2.819,1.325,4.002,1.467v2.057c0,.552-.447,1-1,1h-6c-.553,0-1-.448-1-1v-2.057c1.182-.143,2.764-.587,3.998-1.467Z"/>
</svg>
