<svg id="Layer_1" viewBox="0 0 24 24" xmlns="http://www.w3.org/2000/svg" data-name="Layer 1"><path d="m23.952 17.533-11.267-3.588c.802-.732 1.315-1.776 1.315-2.945 0-.732-.212-1.409-.556-2h8.244c.746 1.917 1.691 4.761 2.179 7.898.034.218.062.428.085.635zm-15.952-6.533c0 1.103.897 2 2 2s2-.897 2-2-.897-2-2-2-2 .897-2 2zm.631 3.754c-.016-.005-.031-.013-.047-.019-1.508-.573-2.584-2.028-2.584-3.735 0-2.206 1.794-4 4-4h10.846c-.094-.204-.164-.351-.2-.424-1.446-3.869-5.518-6.465-10.153-6.465-5.772 0-10.469 4.697-10.469 10.469 0 1.142.327 4.264.608 6.188.318 2.183 2.058 3.919 4.229 4.223 4.139.579 8.289 1.486 13.063 2.855.363.104.731.155 1.097.155 1.301 0 2.551-.644 3.331-1.793l.895-1.46c.254-.42.424-.802.541-1.167l-15.158-4.827z"/></svg>