<svg id="Layer_1" viewBox="0 0 24 24" xmlns="http://www.w3.org/2000/svg" data-name="Layer 1"><path d="m5.242 6.981c-.44-1.129-.251-2.346.494-3.177.276-.31.605-.553.977-.723.366-.178.744-.434.979-.786.348-.568 1.405-2.296 3.808-2.296h1c2.402 0 3.46 1.728 3.808 2.296.22.34.59.596.982.788.368.168.697.411.976.723.743.829.933 2.046.492 3.175-.289.74-.773 2.294-.773 4.382 0 .506.027.997.07 1.466-1.505-.403-3.664-.829-6.055-.829s-4.549.427-6.055.829c.043-.469.07-.959.07-1.466 0-2.088-.484-3.642-.773-4.382zm16.758 2.019c-.553 0-1 .447-1 1v3c0 1.446-1.028 2.655-2.391 2.937-.072-.269-.148-.583-.222-.929-1.331-.415-3.696-1.008-6.387-1.008s-5.056.593-6.387 1.008c-.074.347-.15.66-.222.929-1.363-.282-2.391-1.492-2.391-2.937v-3c0-.553-.447-1-1-1s-1 .447-1 1v3c0 2.757 2.243 5 5 5h5v4h-4c-.553 0-1 .447-1 1s.447 1 1 1h10c.553 0 1-.447 1-1s-.447-1-1-1h-4v-4h5c2.757 0 5-2.243 5-5v-3c0-.553-.447-1-1-1z"/></svg>