<svg id="Layer_1" viewBox="0 0 24 24" xmlns="http://www.w3.org/2000/svg" data-name="Layer 1"><path d="m18 4h-.496c.074-.186.135-.348.174-.466.036-.108.14-.536.275-1.158.128-.581-.014-1.181-.387-1.645-.374-.465-.931-.731-1.527-.731h-8.079c-.597 0-1.153.267-1.527.731-.373.464-.515 1.064-.387 1.645.136.622.239 1.05.275 1.157.04.118.1.281.175.467h-.496c-.553 0-1 .448-1 1s.447 1 1 1h1.566c.681.996 1.662 2.045 3.043 2.725.124.061.258.098.391.139v.636c0 .827-.673 1.5-1.5 1.5h-.5c-.553 0-1 .448-1 1s.447 1 1 1h6c.553 0 1-.448 1-1s-.447-1-1-1h-.5c-.827 0-1.5-.673-1.5-1.5v-.636c.132-.041.266-.078.391-.139 1.381-.68 2.362-1.729 3.043-2.725h1.566c.553 0 1-.448 1-1s-.447-1-1-1zm-2 13v5c0 1.105-.895 2-2 2h-4c-1.105 0-2-.895-2-2v-5c0-1.105.895-2 2-2h4c1.105 0 2 .895 2 2zm-10 2v3c0 1.105-.895 2-2 2h-2c-1.105 0-2-.895-2-2v-3c0-1.105.895-2 2-2h2c1.105 0 2 .895 2 2zm18 1v2c0 1.105-.895 2-2 2h-2c-1.105 0-2-.895-2-2v-2c0-1.105.895-2 2-2h2c1.105 0 2 .895 2 2z"/></svg>