<svg id="Layer_1" viewBox="0 0 24 24" xmlns="http://www.w3.org/2000/svg" data-name="Layer 1"><path d="m5.5 12c-1.93 0-3.5 1.57-3.5 3.5s1.57 3.5 3.5 3.5 3.5-1.57 3.5-3.5-1.57-3.5-3.5-3.5zm16.5 3.5c0-1.93-1.57-3.5-3.5-3.5s-3.5 1.57-3.5 3.5 1.57 3.5 3.5 3.5 3.5-1.57 3.5-3.5zm2-12.5v3c0 1.654-1.346 3-3 3h-2.647l-2.127 1.71c-.889.697-2.245.028-2.225-1.088v-6.62c-.001-1.653 1.345-2.999 2.998-3.002h4c1.654 0 3.001 1.345 3.001 2.999zm-24 3v-3c0-1.654 1.347-3 3.001-3h3.999c1.654.003 3 1.349 3 3.002v6.617c.03 1.082-1.302 1.781-2.171 1.132l-2.181-1.751h-2.648c-1.654 0-3-1.346-3-3zm23.778 16.372c.533.617.036 1.655-.778 1.628h-9c-.815.027-1.311-1.011-.778-1.628 1.197-1.485 3.171-2.372 5.278-2.372s4.081.887 5.278 2.372zm-13 0c.533.617.036 1.655-.778 1.628h-9c-.815.027-1.311-1.011-.778-1.628 1.197-1.485 3.171-2.372 5.278-2.372s4.081.887 5.278 2.372z"/></svg>