<svg id="Layer_1" viewBox="0 0 24 24" xmlns="http://www.w3.org/2000/svg" data-name="Layer 1"><path d="m22.5 5.416v-1.816c0-1.671-1.13-3.191-2.767-3.525-2.249-.459-4.233 1.256-4.233 3.425v1.916c-.893.52-1.5 1.476-1.5 2.584v2c0 1.657 1.343 3 3 3h4c1.657 0 3-1.343 3-3v-2c0-1.108-.607-2.064-1.5-2.584zm-5-1.916c0-.827.673-1.5 1.5-1.5s1.5.673 1.5 1.5v1.5h-3zm1.5 7c-.828 0-1.5-.672-1.5-1.5s.672-1.5 1.5-1.5 1.5.672 1.5 1.5-.672 1.5-1.5 1.5zm4.783 3.651c-.641 3.514-2.794 6.506-5.783 8.238v-1.389c0-3.309-2.691-6-6-6s-6 2.691-6 6v1.389c-3.584-2.078-6-5.956-6-10.389 0-6.617 5.383-12 12-12 .876 0 1.728.1 2.551.279-.674.928-1.051 2.046-1.051 3.221v.946c-.211.207-.394.437-.564.676-.302-.073-.612-.122-.936-.122-2.206 0-4 1.794-4 4s1.794 4 4 4c.32 0 .628-.048.927-.119.907 1.278 2.391 2.119 4.073 2.119h4c1.029 0 1.987-.314 2.783-.849zm-11.783-6.151v2c0 .339.035.67.1.99-1.133.084-2.104-.861-2.1-1.99-.005-1.129.968-2.074 2.101-1.99-.067.323-.101.654-.101.99zm4 13v2.314c-1.252.444-2.598.686-4 .686s-2.748-.242-4-.686v-2.314c0-2.206 1.794-4 4-4s4 1.794 4 4z"/></svg>