<svg id="Layer_1" viewBox="0 0 24 24" xmlns="http://www.w3.org/2000/svg" data-name="Layer 1"><path d="m23.837 16.781c-1.478-5.701-4.322-10.956-8.228-15.199-.926-1.006-2.241-1.583-3.609-1.583-1.367 0-2.683.577-3.607 1.583-3.907 4.242-6.752 9.499-8.23 15.199-.688 2.653.88 5.391 3.494 6.103 2.723.74 5.529 1.116 8.343 1.116s5.62-.376 8.343-1.116c2.614-.712 4.182-3.449 3.494-6.103zm-11.837 1.719c-2.757 0-5-2.243-5-5s2.243-5 5-5 5 2.243 5 5-2.243 5-5 5zm3-5c0 1.654-1.346 3-3 3s-3-1.346-3-3 1.346-3 3-3 3 1.346 3 3z"/></svg>