<svg id="Layer_1" viewBox="0 0 24 24" xmlns="http://www.w3.org/2000/svg" data-name="Layer 1"><path d="m0 7v-2c0-2.757 2.243-5 5-5h2c.552 0 1 .447 1 1s-.448 1-1 1h-2c-1.654 0-3 1.346-3 3v2c0 .553-.448 1-1 1s-1-.447-1-1zm19-7h-2c-.552 0-1 .447-1 1s.448 1 1 1h2c1.654 0 3 1.346 3 3v2c0 .553.448 1 1 1s1-.447 1-1v-2c0-2.757-2.243-5-5-5zm4 16c-.552 0-1 .447-1 1v2c0 1.654-1.346 3-3 3h-2c-.552 0-1 .447-1 1s.448 1 1 1h2c2.757 0 5-2.243 5-5v-2c0-.553-.448-1-1-1zm-16 6h-2c-1.654 0-3-1.346-3-3v-2c0-.553-.448-1-1-1s-1 .447-1 1v2c0 2.757 2.243 5 5 5h2c.552 0 1-.447 1-1s-.448-1-1-1zm17-10c0 .553-.448 1-1 1h-9.278c-.347.595-.984 1-1.722 1s-1.376-.405-1.722-1h-9.278c-.552 0-1-.447-1-1s.448-1 1-1h4v-3c0-2.209 1.791-4 4-4h6c2.209 0 4 1.791 4 4v3h4c.552 0 1 .447 1 1zm-7.101-1c-.463-2.282-2.48-4-4.899-4s-4.436 1.718-4.899 4h3.177c.347-.595.984-1 1.722-1s1.376.405 1.722 1zm2.101 5v-1h-3.022c-.913 1.208-2.347 2-3.978 2s-3.065-.792-3.978-2h-3.022v1c0 2.209 1.791 4 4 4h6c2.209 0 4-1.791 4-4z"/></svg>