<svg id="Layer_1" viewBox="0 0 24 24" xmlns="http://www.w3.org/2000/svg" data-name="Layer 1"><path d="m24 23c0 .553-.448 1-1 1h-22c-.552 0-1-.447-1-1s.448-1 1-1h2.948c-.252-3.553-1.807-6.259-3.812-8.283-.327-.33.058-.861.477-.659 2.307 1.113 4.716 4.854 5.085 7.333.082.548.146 1.083.202 1.609h2.549c-.241-2.935-1.503-5.196-2.846-7.218-.308-.464.237-1.012.698-.701 1.576 1.064 3.143 3.12 3.856 5.412.85-2.246 2.531-4.264 4.157-5.412.385-.272.859.196.621.603-1.292 2.209-2.653 3.994-2.888 7.316h2.034c.016-.163.029-.324.057-.492.476-2.892 2.493-6.205 4.583-7.451.473-.282.994.318.653.75-1.411 1.784-2.746 4.13-3.239 7.194h1.963c.057-.526.121-1.061.202-1.609.369-2.479 2.778-6.22 5.085-7.333.419-.202.805.329.477.659-2.005 2.024-3.56 4.73-3.812 8.283h2.948c.552 0 1 .447 1 1zm-20.027-9.946c-.617-1.219-.973-2.594-.973-4.054 0-4.971 4.029-9 9-9s9 4.029 9 9c0 1.204-.241 2.35-.669 3.4-.783-.508-1.801-.557-2.633-.061-.37.22-.732.498-1.089.804-.114-.179-.245-.349-.409-.499-.851-.78-2.102-.86-3.04-.196-.985.696-2 1.681-2.896 2.843-.85-1.198-1.849-2.194-2.845-2.867-1.005-.678-2.305-.557-3.163.295-.106.105-.201.218-.285.335zm11.027-5.054c0 .552.448 1 1 1s1-.448 1-1-.448-1-1-1-1 .448-1 1zm-2-3c0 .552.448 1 1 1s1-.448 1-1-.448-1-1-1-1 .448-1 1zm-2 3c0 .552.448 1 1 1s1-.448 1-1-.448-1-1-1-1 .448-1 1z"/></svg>