<svg id="Layer_1" viewBox="0 0 24 24" xmlns="http://www.w3.org/2000/svg" data-name="Layer 1"><path d="m19.083 10.292c-.446-.395-.849-.332-1.083.215-.937 2.191-.549 5.492-2.37 5.492-.676 0-.896-1.534-1.104-2.035-.25-.6-.741-.669-1.062-.103-.582 1.03-1.465 3-1.465 4.139 0 3.192 2.492 5.802 5.637 5.989 2.234.133 4.327-1.147 5.484-3.063 2.698-4.467-1.438-8.333-4.038-10.636zm.439 11.005c-.802.936-2.242.936-3.044 0-.693-.81-.558-2.046.195-2.8l.77-1.096c.308-.308.807-.308 1.115 0l.769 1.097c.753.754.888 1.99.195 2.8zm-9.522-3.298v5c0 .553-.447 1-1 1s-1-.447-1-1c0 0 .006-3.813.008-4.061-3.945-.484-7.008-3.814-7.008-7.839v-3.101c-.553 0-1-.447-1-1s.447-1 1-1h3v-4.998c0-.553.447-1 1-1s1 .447 1 1v5h6v-5c0-.553.447-1 1-1s1 .447 1 1v5h3c.553 0 1 .447 1 1s-.447 1-1 1v.591c-.309.247-.613.602-.839 1.131-.32.75-.509 1.544-.655 2.293-.396-.317-.87-.506-1.383-.537-.982-.056-1.87.465-2.398 1.398-.177.312-1.724 3.102-1.725 5.124z"/></svg>