<svg id="Layer_1" viewBox="0 0 24 24" xmlns="http://www.w3.org/2000/svg" data-name="Layer 1"><path d="m11 8v1h-2v-1c0-.552.449-1 1-1s1 .448 1 1zm1.996 6.019c-.21.281-.406.572-.576.881-.129.061-.269.1-.42.1h-4c-.551 0-1-.448-1-1v-2c0-.552.449-1 1-1h4c.551 0 1 .448 1 1v2c0 .007-.004.012-.004.019zm-1.996-1.019c0-.552-.448-1-1-1s-1 .448-1 1 .448 1 1 1 1-.448 1-1zm5.573-10.874-6.258-2.075c-.205-.068-.425-.068-.63 0l-6.259 2.075c-2.049.68-3.426 2.587-3.426 4.746v5.171c0 6.98 6.864 10.479 9.447 11.797.169.095.36.163.553.159.192.004.384-.064.553-.159.565-.288 1.34-.687 2.197-1.198-.788-1.187-1.25-2.61-1.25-4.142 0-.514.052-1.015.151-1.5h-3.651c-1.654 0-3-1.346-3-3v-2c0-1.302.838-2.402 2-2.816v-1.184c0-1.654 1.346-3 3-3s3 1.346 3 3v1.184c1.217.426 2.066 1.628 2 2.979 1.159-.733 2.528-1.163 4-1.163.34 0 .672.03 1 .074v-4.202c0-2.159-1.377-4.066-3.427-4.746zm7.299 19.109c-.272.486-.888.65-1.361.383l-.631-.354c-.505.526-1.153.905-1.879 1.094v.642c0 .553-.447 1-1 1s-1-.447-1-1v-.642c-.727-.189-1.374-.568-1.879-1.094l-.631.354c-.473.267-1.089.104-1.361-.383-.271-.481-.099-1.091.383-1.361l.637-.357c-.086-.327-.147-.663-.147-1.017s.061-.69.147-1.017l-.637-.357c-.481-.271-.653-.88-.383-1.361.27-.482.878-.654 1.361-.383l.631.354c.505-.526 1.153-.905 1.879-1.094v-.642c0-.553.447-1 1-1s1 .447 1 1v.642c.727.189 1.374.568 1.879 1.094l.631-.354c.481-.271 1.091-.1 1.361.383.271.481.099 1.091-.383 1.361l-.637.357c.086.327.147.663.147 1.017s-.061.69-.147 1.017l.637.357c.481.271.653.88.383 1.361zm-3.372-2.735c0-.827-.673-1.5-1.5-1.5s-1.5.673-1.5 1.5.673 1.5 1.5 1.5 1.5-.673 1.5-1.5z"/></svg>