<svg id="Layer_1" viewBox="0 0 24 24" xmlns="http://www.w3.org/2000/svg" data-name="Layer 1"><path d="m24 22.819c0 .681-.366 1.186-1 1.181h-8.426c-.329 0-.648-.114-.902-.322l-3.017-2.465c-.771-.643-.875-1.789-.233-2.56s1.789-.875 2.56-.233l1.019.87v-5.791c0-.911.852-1.632 1.792-1.479.737.12 1.208.812 1.208 1.56v3.215l3.682 1.315c1.985.708 3.318 2.39 3.318 4.709zm-23.941-14.819h5.083c.364-1.399 1.459-2.494 2.858-2.858v-5.083c-4.171.461-7.48 3.77-7.941 7.941zm5.083 2h-5.083c.385 3.475 2.752 6.335 5.941 7.462v2.038c0 .827-.673 1.5-1.5 1.5h-.777c-.346-.595-.984-1-1.723-1-1.105 0-2 .895-2 2s.895 2 2 2c.738 0 1.376-.405 1.723-1h.777c1.93 0 3.5-1.57 3.5-3.5v-6.642c-1.395-.365-2.494-1.459-2.858-2.858zm7.858-1c0 .347-.058.678-.142 1h2.642c.733-.032 1.763.321 2.305.861.126-.601.195-1.223.195-1.861 0-.339-.024-.671-.061-1h1.561c.827 0 1.5.673 1.5 1.5v.777c-.595.346-1 .984-1 1.723 0 1.105.895 2 2 2s2-.895 2-2c0-.738-.405-1.376-1-1.723v-.777c0-1.93-1.57-3.5-3.5-3.5h-2.022c-1.13-3.191-4.002-5.557-7.478-5.941v5.083c1.72.447 3 1.999 3 3.858z"/></svg>