<svg id="Layer_1" viewBox="0 0 24 24" xmlns="http://www.w3.org/2000/svg" data-name="Layer 1"><path d="m24 20.037c0 1.059-.413 2.054-1.161 2.802-.748.749-1.743 1.161-2.802 1.161s-2.054-.412-2.802-1.161c-.867-.866-3.376-3.732-4.695-5.248l4.998-4.998c1.531 1.296 4.429 3.77 5.3 4.642.749.748 1.161 1.744 1.161 2.802zm-2.5-.037c0-.828-.672-1.5-1.5-1.5s-1.5.672-1.5 1.5.672 1.5 1.5 1.5 1.5-.672 1.5-1.5zm-4.673-9.523c-.712-4.693-3.636-8.41-4.29-9.185-.653-.776-1.604-1.245-2.611-1.288-.999-.045-1.974.339-2.681 1.046l-6.196 6.196c-.707.706-1.088 1.683-1.046 2.68.043 1.007.513 1.958 1.288 2.61 2.904 2.444 5.981 3.877 9.171 4.305l6.365-6.365z"/></svg>