<svg id="Layer_1" viewBox="0 0 24 24" xmlns="http://www.w3.org/2000/svg" data-name="Layer 1"><path d="m16.98 22.802c.139.599-.365 1.212-.979 1.197h-14.998c-.614.015-1.119-.599-.979-1.197.815-3.92 4.381-6.764 8.478-6.764s7.663 2.845 8.478 6.764zm-14.977-16.831c0-.55.447-.995 1-.995h.025c.254-2.785 2.611-4.976 5.474-4.976 2.813 0 5.211 2.232 5.473 4.976h.026c.553 0 1 .445 1 .995s-.447.995-1 .995h-10.999c-.553 0-1-.445-1-.995zm19.411 5.971 2.293-2.282c.391-.389.391-1.019 0-1.407s-1.023-.389-1.414 0l-2.293 2.282-2.293-2.282c-.391-.389-1.023-.389-1.414 0s-.391 1.019 0 1.407l1.099 1.093-4.331 4.311c1.635.764 3.051 1.926 4.107 3.371l3.971-3.952 1.154 1.149c.391.389 1.023.389 1.414 0s.391-1.019 0-1.407l-2.293-2.282zm-12.912 1.991c2.813 0 5.211-2.189 5.473-4.933h-10.947c.254 2.785 2.611 4.933 5.474 4.933z"/></svg>