<svg id="Layer_1" viewBox="0 0 24 24" xmlns="http://www.w3.org/2000/svg" data-name="Layer 1"><path d="m23 6.829c0 1.005-.372 1.968-1.047 2.711l-6.953 7.673v5.787c.011.539-.5 1-1 1-.187 0-.373-.053-.536-.156l-4-2.543c-.289-.184-.464-.502-.464-.844v-3.244l-6.954-7.673c-.674-.743-1.046-1.706-1.046-2.711 0-1.695 1.088-3.166 2.707-3.662.101-.027.576-.127 1.4-.155-.061.295-.107.595-.107.902v2.906c0 1.609.873 3.106 2.272 3.907l2.512 1.436c.677.387 1.448.591 2.232.591.764 0 1.519-.195 2.184-.563l2.489-1.382c1.429-.793 2.315-2.301 2.315-3.934v-2.96c0-.305-.041-.603-.1-.896.584.032 1.144.091 1.389.149 1.619.496 2.707 1.967 2.707 3.662zm-12-.989-3.95-2.26c-.015.112-.045.22-.045.334v2.906c0 .894.482 1.726 1.26 2.17.103.053 2.68 1.558 2.732 1.527l.004-4.677zm1.007-1.731 3.909-2.234c-.062-.043-2.687-1.553-2.687-1.553-.377-.211-.729-.322-1.231-.322-.43 0-.854.113-1.229.325 0 0-2.612 1.506-2.674 1.549zm.998 1.733-.004 4.689c-.056.091 2.674-1.454 2.718-1.473.793-.44 1.281-1.278 1.281-2.186v-2.957c0-.114-.025-.222-.04-.333l-3.956 2.261z"/></svg>