<svg id="Layer_1" viewBox="0 0 24 24" xmlns="http://www.w3.org/2000/svg" data-name="Layer 1"><path d="m22 20c-.738 0-1.376.405-1.723 1h-1.277c-.552 0-1-.448-1-1v-2h5c.553 0 1-.447 1-1s-.447-1-1-1h-3v-11c0-2.757-2.243-5-5-5h-6c-2.757 0-5 2.243-5 5v11h-3c-.553 0-1 .447-1 1s.447 1 1 1h5v2c0 .552-.448 1-1 1h-1.277c-.346-.595-.984-1-1.723-1-1.105 0-2 .895-2 2s.895 2 2 2c.738 0 1.376-.405 1.723-1h1.277c1.654 0 3-1.346 3-3v-2h3v2.277c-.595.346-1 .984-1 1.723 0 1.105.895 2 2 2s2-.895 2-2c0-.738-.405-1.376-1-1.723v-2.277h3v2c0 1.654 1.346 3 3 3h1.277c.346.595.984 1 1.723 1 1.105 0 2-.895 2-2s-.895-2-2-2zm-12-6h-1c-.553 0-1-.447-1-1s.447-1 1-1h1c.553 0 1 .448 1 1s-.447 1-1 1zm0-4h-1c-.553 0-1-.448-1-1s.447-1 1-1h1c.553 0 1 .448 1 1s-.447 1-1 1zm0-4h-1c-.553 0-1-.448-1-1s.447-1 1-1h1c.553 0 1 .448 1 1s-.447 1-1 1zm5 8h-1c-.553 0-1-.447-1-1s.447-1 1-1h1c.553 0 1 .448 1 1s-.447 1-1 1zm0-4h-1c-.553 0-1-.448-1-1s.447-1 1-1h1c.553 0 1 .448 1 1s-.447 1-1 1zm0-4h-1c-.553 0-1-.448-1-1s.447-1 1-1h1c.553 0 1 .448 1 1s-.447 1-1 1z"/></svg>