<svg id="Layer_1" viewBox="0 0 24 24" xmlns="http://www.w3.org/2000/svg" data-name="Layer 1"><path d="m18 12c-3.314 0-6 2.686-6 6s2.686 6 6 6 6-2.686 6-6-2.686-6-6-6zm3.683 5.712-2.703 2.614c-.452.446-1.052.671-1.653.671s-1.203-.225-1.663-.674l-1.354-1.332c-.395-.387-.4-1.02-.014-1.414.386-.395 1.019-.401 1.414-.014l1.354 1.331c.144.142.38.139.522-.002l2.713-2.624c.397-.381 1.031-.37 1.414.029.382.398.369 1.031-.029 1.414zm-11.683.288c0-1.59.468-3.072 1.271-4.318-.167-.179-.272-.417-.272-.682v-2c0-.552.448-1 1-1s1 .448 1 1v.762c1.371-1.101 3.11-1.762 5.001-1.762 1.786 0 3.437.589 4.77 1.582l-1.311-7.448c-.422-2.396-2.492-4.134-4.924-4.134h-9.085c-2.435 0-4.506 1.74-4.925 4.138l-2.45 14c-.255 1.458.145 2.945 1.097 4.079.952 1.133 2.347 1.783 3.828 1.783h7.717c-1.664-1.467-2.717-3.612-2.717-6zm.999-14c0-.552.448-1 1-1s1 .448 1 1v2c0 .552-.448 1-1 1s-1-.448-1-1z"/></svg>