<svg id="Layer_1" viewBox="0 0 24 24" xmlns="http://www.w3.org/2000/svg" data-name="Layer 1"><path d="m9 2.5c0-1.381 1.119-2.5 2.5-2.5s2.5 1.119 2.5 2.5-1.119 2.5-2.5 2.5-2.5-1.119-2.5-2.5zm13.994 3.39c.061.549-.334 1.043-.883 1.104l-8.11.901v10.865c0 .715-.256 1.409-.722 1.952l-2.519 2.938c-.361.42-.993.467-1.41.108-.419-.359-.468-.991-.108-1.41l2.519-2.938c.155-.181.241-.412.241-.65v-2.76h-1.153c-.032.054-.054.113-.096.16l-2.165 2.464c-.33.375-.75.663-1.218.835l-4.024 1.479c-.505.19-1.094-.07-1.283-.594-.19-.518.075-1.093.594-1.283l4.023-1.479c.156-.058.296-.154.406-.279l1.916-2.181v-7.348l-4.842-2.079c-.734-.365-1.158-1.051-1.158-1.813v-2.882c0-.552.448-1 1-1s1 .448 1 1v2.882l4.937 2.118h3.008l8.945-.994c.546-.068 1.043.333 1.104.883zm-1.994-1.89c1.105 0 2-.895 2-2s-.895-2-2-2-2 .895-2 2 .895 2 2 2z"/></svg>