<svg id="Layer_1" viewBox="0 0 24 24" xmlns="http://www.w3.org/2000/svg" data-name="Layer 1"><path d="m17 3.5c0-1.93 1.57-3.5 3.5-3.5s3.5 1.57 3.5 3.5-1.57 3.5-3.5 3.5-3.5-1.57-3.5-3.5zm5 5.287v10.213c0 2.757-2.243 5-5 5h-12c-2.757 0-5-2.243-5-5v-12c0-2.757 2.243-5 5-5h10.213c-.136.478-.213.979-.213 1.5 0 2.132 1.222 3.981 3 4.893v1.607h2v-1.025c.165.015.331.025.5.025.521 0 1.022-.077 1.5-.213zm-18 11.213h-1.816c.302.847.969 1.514 1.816 1.816zm0-4h-2v2h2zm0-4h-2v2h2zm0-4h-2v2h2zm0-3.816c-.847.302-1.514.969-1.816 1.816h1.816zm11.949 7.816h-10v2h10zm3.867 8h-1.816v1.816c.847-.302 1.514-.969 1.816-1.816zm.184-4h-2v2h2zm0-4h-2v2h2z"/></svg>