<svg id="Layer_1" viewBox="0 0 24 24" xmlns="http://www.w3.org/2000/svg" data-name="Layer 1"><path d="m9 8.528c-1.047-.828-2.432-2.095-3.354-3.527h6.702c-.924 1.429-2.299 2.691-3.348 3.527zm15 8.472c0 3.866-3.134 7-7 7s-7-3.134-7-7 3.134-7 7-7 7 3.134 7 7zm-3 1.897c.01-1.297-.916-2.397-2.193-2.61l-3.261-.544c-.289-.048-.523-.281-.544-.574-.026-.365.263-.67.622-.67h2.376c.367 0 .689.199.862.494.182.31.509.506.869.506.763 0 1.253-.825.874-1.487-.518-.903-1.491-1.513-2.605-1.513 0-.552-.448-1-1-1s-1 .448-1 1h-.315c-1.451 0-2.673 1.152-2.685 2.603-.01 1.297.915 2.397 2.192 2.61l3.286.548c.315.052.54.331.52.655-.02.334-.315.585-.649.585h-2.35c-.367 0-.688-.199-.862-.494-.182-.31-.509-.506-.869-.506-.763 0-1.253.825-.874 1.487.518.903 1.491 1.513 2.605 1.513 0 .552.448 1 1 1s1-.448 1-1h.315c1.451 0 2.673-1.152 2.685-2.603zm-9.651 5.103h-7.344c-1.17 0-2.279-.51-3.043-1.398-.753-.874-1.087-2.024-.917-3.157.406-2.699 1.885-5.198 4.401-7.444-2.518-2.247-3.997-4.746-4.403-7.445-.17-1.133.165-2.283.917-3.157.765-.889 1.874-1.399 3.044-1.399h9.99c1.17 0 2.279.508 3.044 1.396.752.873 1.087 2.023.918 3.155-.179 1.193-.582 2.346-1.181 3.46-4.866.12-8.775 4.094-8.775 8.989 0 2.829 1.308 5.35 3.349 7zm-3.672-13.969.704.559c.365.288.88.288 1.245-.002l.69-.551c1.559-1.24 3.625-3.23 4.609-5.662.125-.308.088-.658-.098-.934s-.496-.441-.829-.441h-9.999c-.333 0-.643.166-.829.441s-.223.625-.098.934c.986 2.444 3.048 4.425 4.605 5.656z"/></svg>