<svg id="Layer_1" viewBox="0 0 24 24" xmlns="http://www.w3.org/2000/svg" data-name="Layer 1"><path d="m7.48 11h2.02v4h-2.02c-.276 0-.5-.224-.5-.5v-3c0-.276.224-.5.5-.5zm13.52 1c0 1.103.897 2 2 2 .553 0 1 .448 1 1v1c0 2.757-2.243 5-5 5h-14c-2.757 0-5-2.243-5-5v-8c0-2.757 2.243-5 5-5h14c2.757 0 5 2.243 5 5v1c0 .552-.447 1-1 1-1.103 0-2 .897-2 2zm-5-.5c0-1.378-1.122-2.5-2.5-2.5h-.31c.389-.469.41-1.135-.017-1.594-.475-.51-1.278-.537-1.825-.095-.651.526-.815 1.568-.847 2.189-.033-.621-.198-1.663-.849-2.189-.547-.442-1.351-.415-1.825.095-.427.459-.406 1.125-.017 1.594h-.329c-1.378 0-2.5 1.122-2.5 2.5v3c0 1.378 1.122 2.5 2.5 2.5h6.02c1.378 0 2.5-1.122 2.5-2.5v-3zm-2.5-.5h-2v4h2c.276 0 .5-.224.5-.5v-3c0-.276-.224-.5-.5-.5z"/></svg>