<svg id="Layer_1" viewBox="0 0 24 24" xmlns="http://www.w3.org/2000/svg" data-name="Layer 1"><path d="m18 17.704c-.132-.428-.46-2.444-3-2.68.013-.56-.439-1.025-1-1.024-.552 0-1 .448-1 1h-2c0-.552-.448-1-1-1-.561 0-1.013.464-1 1.024-2.54.236-2.868 2.252-3 2.68-.746 2.424-1 4.455-1 5.058 0 .683.556 1.238 1.238 1.238.951 0 2.531-1.442 3.456-2.793.52-.76 1.385-1.207 2.306-1.207s1.786.447 2.306 1.207c.924 1.351 2.505 2.793 3.456 2.793.683 0 1.238-.556 1.238-1.238 0-.603-.253-2.635-1-5.058zm6-5.208c0 2.707-1.447 5.074-3.603 6.391-.137-.576-.31-1.193-.5-1.825-.629-2.358-2.129-3.357-3.434-3.772-.542-.778-1.444-1.289-2.463-1.289-.768 0-1.469.29-2 .766-.531-.476-1.232-.766-2-.766-1.016 0-1.916.508-2.459 1.289-1.306.417-2.812 1.426-3.453 3.826-.273.887-.482 1.721-.645 2.478-2.016-.817-3.443-2.792-3.443-5.097 0-1.546.656-3.03 1.801-4.07.272-.248.405-.594.346-.902-.184-.943-.194-1.916-.033-2.889.546-3.291 3.112-5.904 6.383-6.503 3.59-.658 7.184 1.167 8.734 4.439.141.295.411.502.742.569 3.492.697 6.026 3.79 6.026 7.354z"/></svg>