<svg id="Layer_1" viewBox="0 0 24 24" xmlns="http://www.w3.org/2000/svg" data-name="Layer 1"><path d="m19.778 3.222c-2.077-2.077-4.84-3.222-7.778-3.222s-5.701 1.145-7.778 3.222c-2.078 2.077-3.222 4.839-3.222 7.778s1.144 5.7 3.25 7.805l3.943 3.643c1.023 1.001 2.375 1.552 3.807 1.552s2.784-.551 3.786-1.533l3.992-3.689c2.078-2.078 3.222-4.84 3.222-7.778s-1.144-5.701-3.222-7.778zm-4.778 11.778c-1.381 0-2.5-1.119-2.5-2.5 0-.657.259-1.25.673-1.696l-.256-.588-1.754 1.052c.208.365.337.781.337 1.232 0 1.381-1.119 2.5-2.5 2.5s-2.5-1.119-2.5-2.5 1.119-2.5 2.5-2.5c.012 0 .024.003.036.004l-.602-1.004h-.434c-.552 0-1-.448-1-1s.448-1 1-1h.434c.698 0 1.355.372 1.715.97l.695 1.158 1.271-.763c-.234-.44-.221-1.044.078-1.547.304-.512.841-.818 1.436-.818h1.372c.552 0 1 .448 1 1s-.448 1-1 1h-.869l.871 2c1.38.001 2.498 1.12 2.498 2.5s-1.119 2.5-2.5 2.5z"/></svg>