<svg id="Layer_1" viewBox="0 0 24 24" xmlns="http://www.w3.org/2000/svg" data-name="Layer 1"><path d="m14.999 10.123c.499-.304.956-.681 1.361-1.123h1.64v2h-3.001zm-4.525-1.57c-3.563-1.964-2.541-4.859-1.455-6.201.187-.23.551-.188.671.082.169.383.113 1.004.472 1.004.749 0 .569-1.744 1.38-3.166.159-.279.534-.349.774-.137 1.37 1.216 3.683 2.749 3.683 4.847 0 2.148-1.685 3.902-3.806 4.012-.598.031-1.194-.153-1.719-.442zm.333-1.111c.62.723 1.732.723 2.351 0 .536-.625.432-1.58-.15-2.162l-.682-.682c-.19-.19-.497-.19-.687 0l-.682.682c-.582.582-.686 1.537-.15 2.162zm10.066-4.37-4.099-1.648c.996 1.399 1.676 3.491.851 5.576h.375c1.105 0 2 .895 2 2v2c0 1.105-.895 2-2 2h-3c-1.105 0-2-.895-2-2v-.101c-.329.06-.662.099-1 .1-.338 0-.671-.04-1-.1v.101c0 1.105-.895 2-2 2h-3c-1.105 0-2-.895-2-2v-2c0-1.105.895-2 2-2h.375c-.825-2.085-.145-4.177.851-5.576l-4.099 1.648c-1.899.76-3.127 2.573-3.127 4.619v11.1c0 1.406.49 2.803 1.493 3.788.7.686 1.566 1.141 2.507 1.327v-5.405c0-1.381 1.119-2.5 2.5-2.5h2c1.381 0 2.5 1.119 2.5 2.5v5.5h2v-5.5c0-1.381 1.119-2.5 2.5-2.5h2c1.381 0 2.5 1.119 2.5 2.5v5.405c.941-.186 1.807-.641 2.507-1.327 1.004-.985 1.494-2.382 1.493-3.788v-11.1c0-2.046-1.228-3.859-3.127-4.619zm-14.873 7.928h3v-.877c-.499-.304-.956-.681-1.361-1.123h-1.64v2zm11.501 7h-2c-.276 0-.5.224-.5.5v5.5h3v-5.5c0-.276-.224-.5-.5-.5zm-9 0h-2c-.276 0-.5.224-.5.5v5.5h3v-5.5c0-.276-.224-.5-.5-.5z"/></svg>