<svg id="Layer_1" viewBox="0 0 24 24" xmlns="http://www.w3.org/2000/svg" data-name="Layer 1"><path d="m24 1c0-.552-.448-1-1-1h-22c-.552 0-1 .448-1 1 0 .552.448 1 1 1h1.5v15.163c-1.648.494-2.794 2.15-2.433 4.03.253 1.317 1.292 2.409 2.599 2.711 2.295.53 4.335-1.198 4.335-3.404 0-1.583-1.058-2.905-2.5-3.337v-15.163h5v15.163c-1.648.494-2.794 2.15-2.433 4.03.253 1.317 1.292 2.409 2.599 2.711 2.295.53 4.335-1.198 4.335-3.404 0-1.583-1.058-2.905-2.5-3.337v-15.163h3.234l3.928 14.533c-1.18.732-1.899 2.134-1.59 3.684.261 1.308 1.299 2.389 2.6 2.688 2.293.526 4.329-1.202 4.329-3.405 0-1.901-1.518-3.44-3.407-3.491l-3.786-14.009h6.193c.552 0 1-.448 1-1z"/></svg>