<svg id="Layer_1" viewBox="0 0 24 24" xmlns="http://www.w3.org/2000/svg" data-name="Layer 1"><path d="m6 11.123v-2.773c0-.756.914-1.135 1.449-.6l.693.693 2.444-2.444-2.444-2.444-.693.693c-.535.535-1.449.156-1.449-.6v-2.771c0-.484.393-.877.877-.877h2.773c.756 0 1.135.914.6 1.449l-.693.693 2.444 2.444 2.444-2.444-.693-.693c-.535-.535-.156-1.449.6-1.449h2.773c.484 0 .877.392.877.877v2.772c0 .756-.914 1.135-1.449.6l-.693-.693-2.444 2.444 2.444 2.444.693-.693c.535-.535 1.449-.156 1.449.6v2.773c0 .484-.393.877-.877.877h-2.773c-.756 0-1.135-.914-.6-1.449l.693-.693-2.444-2.444-2.444 2.444.693.693c.535.535.156 1.449-.6 1.449h-2.773c-.484 0-.877-.393-.877-.877zm14-9.022v9.022c0 1.586-1.291 2.877-2.877 2.877h-10.246c-1.586 0-2.877-1.291-2.877-2.877v-9.022c-2.279.465-4 2.485-4 4.899v8c0 2.757 2.243 5 5 5h6v2h-4c-.553 0-1 .447-1 1s.447 1 1 1h10c.553 0 1-.447 1-1s-.447-1-1-1h-4v-2h6c2.757 0 5-2.243 5-5v-8c0-2.414-1.721-4.434-4-4.899z"/></svg>