<svg id="Layer_1" viewBox="0 0 24 24" xmlns="http://www.w3.org/2000/svg" data-name="Layer 1"><path d="m18 4c-1.105 0-2-.895-2-2s.895-2 2-2 2 .895 2 2-.895 2-2 2zm-7-.5c0-.828-.672-1.5-1.5-1.5s-1.5.672-1.5 1.5.672 1.5 1.5 1.5 1.5-.672 1.5-1.5zm-5.01 15.174-.336.336c-.408.413-.704.865-.654 1.49 0 .827-.673 1.5-1.5 1.5s-1.5-.673-1.5-1.5v-19.5c0-.553-.448-1-1-1s-1 .447-1 1v19.5c0 1.93 1.57 3.5 3.5 3.5 1.944.007 3.469-1.594 3.5-3.5v-1.407c0-.527-.638-.791-1.01-.419zm17.966-8.977c-.167-1.133-1.545-1.6-2.355-.79l-2.287 2.287c-.407-.459-1.01-1.08-1.771-1.711.706-.774.575-2.027-.322-2.587-1.831-1.268-4.37-1.148-6.151.143-.315.025-.624.072-.928.136.329.873.856 2.672.856 5.316 0 2.621-.517 4.442-.844 5.341.469.099.949.169 1.446.169 1.33 0 2.569-.4 3.668-.965.246.251.461.471.461.471.596.596 1.541.663 2.216.157.678-.509.742-1.416.143-2.015l-.318-.324c.654-.564 1.177-1.106 1.543-1.518l2.287 2.287c.81.81 2.189.343 2.355-.79.142-.965-.051-1.865-.721-2.803.67-.938.863-1.837.721-2.803zm-14.956 2.793c0-2.409-.495-4.01-.746-4.668-1.239.579-2.31 1.38-3.121 2.114-.72.653-1.133 1.588-1.133 2.563s.413 1.91 1.133 2.562c.813.737 1.887 1.544 3.129 2.128.257-.7.738-2.323.738-4.701z"/></svg>