<?xml version="1.0" encoding="UTF-8"?>
<svg xmlns="http://www.w3.org/2000/svg" id="Layer_1" data-name="Layer 1" viewBox="0 0 24 24">
  <path d="m4.85,10.25c0-.358.292-.65.65-.65s.65.292.65.65-.292.65-.65.65-.65-.292-.65-.65Zm6.65-.65c-.496,0-.9.404-.9.9v3c0,.496.404.9.9.9s.9-.404.9-.9v-3c0-.496-.404-.9-.9-.9Zm-6,3.001c-.496,0-.899.404-.899.9s.403.899.899.899.899-.403.899-.899-.403-.9-.899-.9Zm18.5-.601c0,6.627-5.373,12-12,12S0,18.627,0,12,5.373,0,12,0s12,5.373,12,12Zm-16.001,1.501c0-.714-.304-1.354-.785-1.81.33-.392.536-.89.536-1.441,0-1.241-1.009-2.25-2.25-2.25s-2.25,1.009-2.25,2.25c0,.551.207,1.049.536,1.441-.481.456-.785,1.096-.785,1.81,0,1.378,1.121,2.499,2.499,2.499s2.499-1.121,2.499-2.499Zm6.001-3.001c0-1.381-1.119-2.5-2.5-2.5s-2.5,1.119-2.5,2.5v3c0,1.381,1.119,2.5,2.5,2.5s2.5-1.119,2.5-2.5v-3Zm2.25-.019c.69,0,1.25-.56,1.25-1.25s-.56-1.25-1.25-1.25-1.25.56-1.25,1.25.56,1.25,1.25,1.25Zm.765,5.137l4.178-6.4c.347-.532-.034-1.237-.67-1.237-.27,0-.522.136-.67.363l-4.178,6.4c-.347.532.034,1.237.67,1.237.27,0,.522-.136.67-.363Zm4.985-.887c0-.69-.56-1.25-1.25-1.25s-1.25.56-1.25,1.25.56,1.25,1.25,1.25,1.25-.56,1.25-1.25Z"/>
</svg>
