<svg id="Layer_1" viewBox="0 0 24 24" xmlns="http://www.w3.org/2000/svg" data-name="Layer 1"><path d="m20 24h-16c-.552 0-1-.447-1-1 0-4.963 4.038-9 9-9s9 4.037 9 9c0 .553-.447 1-1 1zm-14.462-14.942c.422 0 .802-.175 1.074-.456.96 2.038 3.028 3.456 5.426 3.456s4.466-1.417 5.426-3.456c.273.28.652.456 1.074.456.828 0 1.5-.672 1.5-1.5v-3c0-.828-.672-1.5-1.5-1.5-.428 0-.812.182-1.086.47-.957-2.043-3.013-3.47-5.414-3.47s-4.456 1.427-5.414 3.469c-.273-.288-.657-.47-1.086-.47-.828 0-1.5.672-1.5 1.5v3c0 .828.672 1.5 1.5 1.5zm4-5c.831 0 1.509-.599 1.948-1.226.268-.383.835-.383 1.103 0 .439.628 1.117 1.226 1.948 1.226h2.592c-.056.157-.092.324-.092.5v1.5h-3c-.768 0-1.469-.29-2-.766-.531.476-1.232.766-2 .766h-3s-.036-1.843-.092-2h2.592z"/></svg>