<svg id="Layer_1" viewBox="0 0 24 24" xmlns="http://www.w3.org/2000/svg" data-name="Layer 1"><path d="m19 14c-2.761 0-5 2.239-5 5s2.239 5 5 5 5-2.239 5-5-2.239-5-5-5zm2 6h-1v1c0 .552-.448 1-1 1s-1-.448-1-1v-1h-1c-.552 0-1-.448-1-1s.448-1 1-1h1v-1c0-.552.448-1 1-1s1 .448 1 1v1h1c.552 0 1 .448 1 1s-.448 1-1 1zm-9-1c0 .696.103 1.367.293 2 .189.629.707 1.5.446 1.941-.15.396-.528 1.059-1.739 1.059-1.245 0-1.609-.699-1.741-1.059-.267-.152-.641-.307-1.033-.468-1.362-.562-3.227-1.332-3.227-3.273 0-1.489.962-2.972 3-3.712v-4.632c-.333.688-.869 1.259-1.567 1.633-.663.339-1.365.499-2.049.499-1.407 0-2.735-.68-3.48-1.888-.73-1.184-.863-2.335-.863-4.177 0-1.303.378-4.537 3.889-6.419 1.937-1.041 4.424-.402 5.548 1.418.515.835.656 1.824.397 2.786-.252.934-.87 1.745-1.701 2.308l.656.656c.75.75 1.171 1.767 1.171 2.827v4.565c.324-.03.642-.065 1-.065s.676.035 1 .065v-4.564c0-1.061.422-2.079 1.172-2.829l.656-.656c-.831-.563-1.449-1.375-1.701-2.308-.259-.962-.118-1.951.397-2.786 1.123-1.82 3.611-2.46 5.548-1.418 3.51 1.882 3.889 5.116 3.889 6.419 0 1.842-.134 2.993-.865 4.179-.751 1.219-2.097 1.898-3.495 1.899-.66 0-1.332-.152-1.958-.472-.759-.406-1.307-.985-1.643-1.675v2.183c0 .649-.221 1.273-.61 1.793-.871 1.163-1.39 2.604-1.39 4.17z"/></svg>