<svg id="Layer_1" viewBox="0 0 24 24" xmlns="http://www.w3.org/2000/svg" data-name="Layer 1"><path d="m20.845 12.208c-.742-1.919-2.619-3.208-4.671-3.208h-8.348c-2.052 0-3.929 1.29-4.671 3.209-1.875 4.851-2.155 7.523-2.155 8.686 0 1.741 1.318 3.105 3 3.105 1.962 0 3.75-2.23 4.64-3.561.185-.275.492-.439.823-.439h5.044c.334 0 .644.167.828.447.704 1.068 2.566 3.553 4.664 3.553 1.682 0 3-1.364 3-3.105 0-1.162-.28-3.835-2.155-8.686zm-12.345 3.792c-.827 0-1.5-.673-1.5-1.5s.673-1.5 1.5-1.5 1.5.673 1.5 1.5-.673 1.5-1.5 1.5zm7 0c-.827 0-1.5-.673-1.5-1.5s.673-1.5 1.5-1.5 1.5.673 1.5 1.5-.673 1.5-1.5 1.5zm-5-14.486c0-.829.672-1.5 1.5-1.5s1.5.672 1.5 1.5-.672 1.5-1.5 1.5-1.5-.672-1.5-1.5zm8.5 1.5c.828 0 1.5-.672 1.5-1.5s-.672-1.5-1.5-1.5-1.5.672-1.5 1.5.672 1.5 1.5 1.5zm-14 0c.828 0 1.5-.672 1.5-1.5s-.672-1.5-1.5-1.5-1.5.672-1.5 1.5.672 1.5 1.5 1.5zm2.882 3.458c.174-.326.155-.72-.05-1.027-.604-.905-1.663-1.445-2.832-1.445s-2.228.54-2.832 1.445c-.205.307-.224.701-.05 1.027.174.325.513.528.882.528h4c.369 0 .708-.203.882-.528zm7 0c.174-.326.155-.72-.05-1.027-.604-.905-1.663-1.445-2.832-1.445s-2.228.54-2.832 1.445c-.205.307-.224.701-.05 1.027.174.325.513.528.882.528h4c.369 0 .708-.203.882-.528zm7 0c.174-.326.155-.72-.05-1.027-.604-.905-1.663-1.445-2.832-1.445s-2.228.54-2.832 1.445c-.205.307-.224.701-.05 1.027.174.325.513.528.882.528h4c.369 0 .708-.203.882-.528z"/></svg>