<svg id="Layer_1" viewBox="0 0 24 24" xmlns="http://www.w3.org/2000/svg" data-name="Layer 1"><path d="m19 0h-14c-2.757 0-5 2.243-5 5v10c0 2.757 2.243 5 5 5h1.44l4.088 3.44c.42.374.949.56 1.473.56.515 0 1.026-.18 1.427-.536l4.194-3.464h1.378c2.757 0 5-2.243 5-5v-10c0-2.757-2.243-5-5-5zm-12.251 14.629c.366.414.327 1.046-.087 1.411-.412.365-1.045.328-1.412-.087-2.999-3.394-2.999-8.513 0-11.906.366-.414.998-.452 1.412-.087s.453.997.087 1.411c-2.332 2.639-2.332 6.619 0 9.258zm3-2.646c.366.414.327 1.046-.087 1.411-.412.365-1.045.328-1.412-.087-1.666-1.886-1.666-4.729 0-6.615.367-.413.997-.453 1.412-.087.414.365.453.997.087 1.411-.999 1.131-1 2.836 0 3.967zm2.251-.483c-.828 0-1.5-.672-1.5-1.5s.672-1.5 1.5-1.5 1.5.672 1.5 1.5-.672 1.5-1.5 1.5zm3.75 1.808c-.367.415-1 .452-1.412.087-.414-.365-.453-.997-.087-1.411 1-1.131 1-2.836 0-3.967-.366-.414-.327-1.046.087-1.411.413-.366 1.045-.326 1.412.087 1.667 1.886 1.667 4.729 0 6.615zm3 2.646c-.367.415-.999.452-1.412.087-.414-.365-.453-.997-.087-1.411 2.332-2.639 2.332-6.619 0-9.258-.366-.414-.327-1.046.087-1.411s1.046-.327 1.412.087c2.999 3.394 2.999 8.513 0 11.906z"/></svg>