<svg id="Layer_1" viewBox="0 0 24 24" xmlns="http://www.w3.org/2000/svg" data-name="Layer 1"><path d="m19.394 12.094c1.179.05 2.497-.047 3.503-.757.947-.668 1.312-2.02 1.03-3.117-.393-1.529-2.065-2.463-3.592-2.166-.846.164-1.499.753-2.176 1.242-.697.504-1.657.963-2.497.429-.322-.205-.552-.551-.615-.928-.105-.622.265-1.148.533-1.675 1.22-2.4-.8-5.496-3.535-5.085-1.312.197-2.4 1.159-2.827 2.417-.572 1.684.536 3.045.74 4.657.083.657-.151 1.29-.724 1.651-.78.491-1.791.089-2.437-.436-.951-.772-1.612-1.858-2.857-2.197-1.116-.304-2.347-.009-3.125.869-.898 1.013-1.092 2.627-.383 3.791.486.799 1.331 1.258 2.193 1.552 1.069.365 3.278.307 3.325 1.916.023.769-.349 1.246-.828 1.734-.782.795-1.865 1.113-2.725 1.789-1.537 1.209-1.924 3.566-.568 5.071 1.799 1.997 5.073 1.261 5.981-1.198.192-.521.36-1.056.601-1.557.587-1.221 1.921-2.168 3.294-2.096 1.104.058 2.138.741 2.556 1.724.411.968.525 2.18 1.266 2.976 1.423 1.527 3.681 1.756 5.211.435 1.042-.9 1.487-2.411 1.151-3.739-.367-1.454-1.62-2.105-2.81-2.826-.289-.176-.593-.35-.871-.544-2.282-1.592-1.057-4.026 1.189-3.931z"/></svg>