<svg id="Layer_1" viewBox="0 0 24 24" xmlns="http://www.w3.org/2000/svg" data-name="Layer 1"><path d="m19 1h-14c-2.757 0-5 2.243-5 5v8c0 2.757 2.243 5 5 5h6v2h-4c-.553 0-1 .448-1 1s.447 1 1 1h10c.553 0 1-.448 1-1s-.447-1-1-1h-4v-2h6c2.757 0 5-2.243 5-5v-8c0-2.757-2.243-5-5-5zm-11 4c1.381 0 2.5 1.119 2.5 2.5s-1.119 2.5-2.5 2.5-2.5-1.119-2.5-2.5 1.119-2.5 2.5-2.5zm3.351 9.937c-.504.193-1.094-.063-1.287-.585-.303-.808-1.132-1.351-2.063-1.351s-1.761.543-2.063 1.351c-.193.518-.773.779-1.287.585-.518-.194-.779-.77-.586-1.288.594-1.584 2.176-2.649 3.937-2.649s3.343 1.064 3.937 2.649c.193.518-.068 1.094-.586 1.288zm7.649.063h-4c-.553 0-1-.448-1-1s.447-1 1-1h4c.553 0 1 .448 1 1s-.447 1-1 1zm0-4h-4c-.553 0-1-.448-1-1s.447-1 1-1h4c.553 0 1 .448 1 1s-.447 1-1 1zm0-4h-4c-.553 0-1-.448-1-1s.447-1 1-1h4c.553 0 1 .448 1 1s-.447 1-1 1z"/></svg>