<svg id="Layer_1" viewBox="0 0 24 24" xmlns="http://www.w3.org/2000/svg" data-name="Layer 1"><path d="m15.999 7.903c-.011-4.155-.728-7.191-.728-7.191-.138-.6-.816-.896-1.349-.589l-2.113 1.555c-.989-.432-2.105-.677-3.31-.677s-2.317.245-3.305.677l-2.108-1.555c-.534-.307-1.212-.011-1.35.589 0 0-.718 2.814-.728 7.197-.007.054-.004.571-.005.636 0 3.559 2.878 6.455 6.417 6.455h2.167c3.539 0 6.417-2.896 6.417-6.455 0-.075.003-.578-.005-.643zm-7.495 2.097c-.966 0-1.5-.771-1.5-1.208s.534-.792 1.5-.792 1.5.354 1.5.792-.534 1.208-1.5 1.208zm15.496-3v.974c0 4.617-2.273 8.939-6.082 11.561-.575.396-.918 1.023-.918 1.677v1.789c0 .552-.448 1-1 1h-15c-.552 0-1-.448-1-1v-1c0-2.532 1.186-4.789 3.028-6.256 1.281.791 2.782 1.256 4.392 1.256h1.08c-.828 0-1.5.672-1.5 1.5s.672 1.5 1.5 1.5 1.5-.672 1.5-1.5-.672-1.5-1.5-1.5h1.087c2.587 0 4.904-1.181 6.449-3.031 3.234-.315 5.964-3.434 5.964-6.969 0-.552.448-1 1-1s1 .448 1 1z"/></svg>