<svg id="Layer_1" viewBox="0 0 24 24" xmlns="http://www.w3.org/2000/svg" data-name="Layer 1"><path d="m12.059 2.9c-.038 0-.071.026-.079.063l-.811 3.437h1.757l-.787-3.437c-.009-.037-.041-.063-.079-.063zm5.941.1v8.603c.034 1.081-1.289 1.79-2.171 1.162-.091-.055-2.564-1.721-2.656-1.766h-4.173c-1.657 0-3-1.343-3-3v-4.999c0-1.657 1.343-3 3-3h6c1.657 0 3 1.343 3 3zm-3.806 6.5c.45 0 .783-.418.683-.857l-1.363-5.947c-.267-1.569-2.627-1.535-2.898-.049l-1.413 5.993c-.104.439.23.86.681.86.324 0 .606-.223.681-.539l.274-1.161h2.409l.264 1.156c.073.318.356.544.683.544zm-2.194 8.501c0 .551-.448 1-1 1s-1-.449-1-1 .448-1 1-1 1 .449 1 1zm7.999-6.95v.553c.039 1.202-.649 2.369-1.797 2.984-.518.277-1.076.414-1.629.414-.671 0-1.331-.202-1.896-.602-.163-.107-.474-.314-.83-.553-.421-.282-.915-.613-1.269-.848h-3.578c-1.627 0-3.06-.793-3.974-2h-.526c-2.485 0-4.5 2.015-4.5 4.5v4c0 2.485 2.015 4.5 4.5 4.5h15c2.485 0 4.5-2.015 4.5-4.5v-4c0-2.314-1.754-4.198-4.001-4.45zm-6.051 7.515c-.216 1.178-1.172 2.146-2.348 2.376-1.556.304-2.94-.605-3.416-1.941h-4.184c-.552 0-1-.448-1-1s.448-1 1-1h4.184c.414-1.161 1.514-2 2.816-2 1.839 0 3.297 1.664 2.948 3.565zm6.052.435h-3c-.552 0-1-.448-1-1s.448-1 1-1h3c.552 0 1 .448 1 1s-.448 1-1 1z"/></svg>