<svg id="Layer_1" viewBox="0 0 24 24" xmlns="http://www.w3.org/2000/svg" data-name="Layer 1"><path d="m16.093 13.308-4.808 8.242c-.633 1.086.15 2.45 1.407 2.45h9.616c1.257 0 2.041-1.364 1.407-2.45l-4.808-8.242c-.629-1.078-2.186-1.078-2.814 0zm1.407 9.692c-.552 0-1-.448-1-1 0-.552.448-1 1-1 .552 0 1 .448 1 1 0 .552-.448 1-1 1zm-1-4v-2.002c0-.552.448-1 1-1 .552 0 1 .448 1 1v2.002c0 .552-.448 1-1 1-.552 0-1-.448-1-1zm-8.964-12h-2.536c0-3.86 3.14-7 7-7s7 3.14 7 7h-2.565c-.252-2.244-2.139-4-4.449-4s-4.197 1.756-4.449 4zm2 0h4.899c-.232-1.14-1.242-2-2.449-2s-2.217.86-2.449 2zm-.078 17h-6.958c-1.378 0-2.5-1.122-2.5-2.5 0-1.063.669-1.966 1.606-2.328l-.593-5.841c-.087-1.132.297-2.234 1.052-3.049.754-.815 1.824-1.282 2.935-1.282h14c1.11 0 2.18.467 2.935 1.282s1.139 1.917 1.054 3.024l-.262 2.58-2.092-3.587c-1.281-2.373-4.989-2.373-6.27 0l-4.808 8.243c-.629 1.078-.657 2.355-.1 3.457z"/></svg>