<svg id="Layer_1" viewBox="0 0 24 24" xmlns="http://www.w3.org/2000/svg" data-name="Layer 1"><path d="m10.527 11.057.53 1.404h-1.064l.535-1.404zm11.94 7.247c-.611.967-1.608 1.544-2.884 1.669-.033.003-.066.005-.099.005-.509 0-.943-.386-.994-.902-.054-.55.348-1.039.897-1.093 1.362-.211 1.708-.855 1.562-1.902-.178-.751-.971-2.203-3.957-4.413.127 7.734-1.63 12.476-4.992 12.333-1.113 0-2.102-.504-2.857-1.458-.344-.433-.271-1.062.162-1.405.432-.343 1.062-.271 1.404.162.498.628.976.701 1.291.701 1.412 0 2.395-2.111 2.797-5.816-2.898 1.828-7.536 3.952-9.846 3.814-1.562 0-2.704-.564-3.418-1.694-.506-.8-.908-2.127.048-3.905.262-.487.869-.668 1.354-.407.486.262.669.868.407 1.354-.541 1.006-.327 1.56-.119 1.889.769 1.217 3.166.948 6.648-.664-4.81-2.705-8.363-5.918-8.766-8.19-.228-.956-.08-1.884.428-2.686.606-.959 1.593-1.535 2.854-1.666.558-.053 1.041.342 1.099.891.057.549-.343 1.041-.892 1.098-1.347.217-1.689.86-1.543 1.9.178.751.971 2.203 3.956 4.413-.125-7.733 1.63-12.474 4.993-12.332 1.118 0 2.11.509 2.869 1.473.342.434.268 1.062-.166 1.404-.435.342-1.063.266-1.404-.167-.502-.636-.981-.71-1.299-.71-1.412 0-2.395 2.111-2.797 5.816 6.818-4.156 11.538-4.977 13.264-2.12.483.765.884 2.031.047 3.723-.245.494-.843.699-1.34.452-.495-.245-.698-.845-.453-1.34.462-.932.253-1.454.057-1.766-.771-1.217-3.165-.948-6.646.663 4.807 2.711 8.361 5.915 8.763 8.189.228.956.08 1.884-.428 2.686zm-9.466-4.125-1.772-4.695c-.11-.291-.389-.484-.7-.484s-.589.192-.699.482l-1.788 4.693c-.151.397.142.823.567.823h.003c.252 0 .479-.156.568-.393l.352-.932h1.983l.352.934c.089.236.315.393.568.393.424 0 .717-.424.568-.821zm2.263-4.561c0-.341-.277-.618-.618-.618s-.618.277-.618.618v4.763c0 .341.277.618.618.618s.618-.277.618-.618z"/></svg>