<svg id="Layer_1" viewBox="0 0 24 24" xmlns="http://www.w3.org/2000/svg" data-name="Layer 1"><path d="m1 7c-.552 0-1-.448-1-1v-1c0-2.757 2.243-5 5-5h1c.552 0 1 .448 1 1s-.448 1-1 1h-1c-1.654 0-3 1.346-3 3v1c0 .552-.448 1-1 1zm23-1v-1c0-2.757-2.243-5-5-5h-1c-.552 0-1 .448-1 1s.448 1 1 1h1c1.654 0 3 1.346 3 3v1c0 .552.448 1 1 1s1-.448 1-1zm-17 17c0-.553-.448-1-1-1h-1c-1.654 0-3-1.346-3-3v-1c0-.553-.448-1-1-1s-1 .447-1 1v1c0 2.757 2.243 5 5 5h1c.552 0 1-.447 1-1zm17-4v-1c0-.553-.448-1-1-1s-1 .447-1 1v1c0 1.654-1.346 3-3 3h-1c-.552 0-1 .447-1 1s.448 1 1 1h1c2.757 0 5-2.243 5-5zm-3.129-3.212c-1.722 2.038-4.567 4.212-8.871 4.212s-7.149-2.174-8.871-4.212c-.598-.707-.101-1.788.825-1.788h4.601c.693 1.191 1.968 2 3.445 2s2.752-.809 3.445-2h4.601c.926 0 1.423 1.081.825 1.788zm3.129-4.788c0 .552-.448 1-1 1h-22c-.552 0-1-.448-1-1s.448-1 1-1h.846c1.35-2.2 4.499-6 10.154-6s8.804 3.8 10.154 6h.846c.552 0 1 .448 1 1zm-8.564-1c-.69-1.191-1.96-2-3.436-2s-2.746.809-3.436 2h6.871z"/></svg>