<svg id="Layer_1" viewBox="0 0 24 24" xmlns="http://www.w3.org/2000/svg" data-name="Layer 1"><path d="m3.101 14c.465-2.279 2.484-4 4.899-4h3v-9c0-.552.448-1 1-1s1 .448 1 1v9h3c2.414 0 4.434 1.721 4.899 4zm13.899 2v3c0 .552-.447 1-1 1s-1-.448-1-1v-3h-2v3c0 .552-.448 1-1 1s-1-.448-1-1v-3h-2v3c0 .552-.448 1-1 1s-1-.448-1-1v-3h-4v5c0 .449-.551 1-1 1-.552 0-1 .448-1 1s.448 1 1 1h15c2.206 0 4-1.794 4-4v-4zm-11.803-9.972.523-1.308 1.308-.523c.285-.114.472-.39.472-.697s-.187-.583-.472-.697l-1.308-.523-.523-1.308c-.114-.285-.39-.472-.697-.472s-.583.187-.697.472l-.52 1.301-1.299.492c-.287.108-.479.381-.484.687-.005.307.176.586.459.705l1.318.556.526 1.316c.114.285.39.472.697.472s.583-.187.697-.472zm16 2 .523-1.308 1.308-.523c.285-.114.472-.39.472-.697s-.187-.583-.472-.697l-1.308-.523-.523-1.308c-.114-.285-.39-.472-.697-.472s-.583.187-.697.472l-.52 1.301-1.299.492c-.287.108-.479.381-.484.687-.005.307.176.586.459.705l1.318.556.526 1.316c.114.285.39.472.697.472s.583-.187.697-.472z"/></svg>