<svg id="Layer_1" viewBox="0 0 24 24" xmlns="http://www.w3.org/2000/svg" data-name="Layer 1"><path d="m7.718 24c-2.61.006-5.058-1.333-6.496-3.56-1.594-2.45-1.609-5.752-.039-8.215.944-1.48 2.292-2.57 3.896-3.153 1.771-.643 3.238-2.184 4.134-4.34.385-.928.943-1.763 1.659-2.479 1.644-1.647 3.914-2.447 6.235-2.213 2.318.242 4.391 1.524 5.687 3.517 1.594 2.451 1.609 5.753.039 8.215-.944 1.48-2.292 2.571-3.896 3.153-1.771.644-3.238 2.185-4.134 4.341-.385.928-.943 1.763-1.659 2.479-1.454 1.455-3.396 2.255-5.427 2.255zm-6.457-14.923c.914-.818 1.967-1.46 3.134-1.884 1.238-.449 2.292-1.595 2.97-3.228.413-.996.993-1.9 1.71-2.705l-.573-.132c-1.689-.388-3.432.108-4.66 1.337l-1.376 1.376c-1.227 1.228-1.727 2.97-1.337 4.66l.133.576zm21.48 5.856c-.911.813-1.96 1.451-3.122 1.872-1.236.449-2.291 1.596-2.969 3.229-.414.998-.996 1.903-1.714 2.709.539.131 1.15.272 1.7.26 1.308 0 2.57-.514 3.522-1.467l1.376-1.376c1.227-1.227 1.727-2.969 1.337-4.66l-.131-.566z"/></svg>