<svg id="Layer_1" viewBox="0 0 24 24" xmlns="http://www.w3.org/2000/svg" data-name="Layer 1"><path d="m22.358 19.5h.642c.552 0 1-.447 1-1s-.448-1-1-1h-.642c-.094-.363-.238-.704-.425-1.019l.495-.495c.408.02.821-.114 1.133-.425.586-.586.586-1.536 0-2.121s-1.536-.586-2.121 0c-.312.312-.445.725-.425 1.133l-.495.495c-.316-.186-.656-.33-1.019-.425v-1.142c0-.552-.448-1-1-1s-1 .448-1 1v1.142c-.363.094-.704.238-1.019.425l-.495-.495c.02-.408-.114-.821-.425-1.133-.586-.586-1.536-.586-2.121 0s-.586 1.536 0 2.121c.312.312.725.445 1.133.425l.495.495c-.186.316-.33.656-.425 1.019h-.642c-.552 0-1 .447-1 1s.448 1 1 1h.642c.094.363.238.704.425 1.019l-.495.495c-.408-.02-.821.114-1.133.425-.586.586-.586 1.536 0 2.121.586.586 1.536.586 2.121 0 .312-.312.445-.725.425-1.133l.495-.495c.316.186.656.33 1.019.425v.642c0 .553.448 1 1 1s1-.447 1-1v-.642c.363-.094.704-.238 1.019-.425l.495.495c-.02.408.114.821.425 1.133.586.586 1.536.586 2.121 0 .586-.586.586-1.536 0-2.121-.312-.312-.725-.445-1.133-.425l-.495-.495c.186-.316.33-.656.425-1.019zm-3.358-9.5v1.025c-.166-.011-.331-.025-.5-.025-.778 0-1.529.119-2.234.339-.591-.232-1.255-.381-1.915-.324-.929.04-1.589.332-2.117.58-.484.227-.867.405-1.463.405-.456 0-.914-.102-1.362-.303-.502-.226-1.095 0-1.321.503-.227.504 0 1.096.503 1.321.707.317 1.44.479 2.181.479.101 0 .186-.014.281-.02-.026.171-.052.342-.052.52 0 .58.154 1.118.404 1.6-.257.754-.404 1.559-.404 2.4s.151 1.642.406 2.396c-.173.333-.295.693-.353 1.078-3.901-.176-5.675-1.296-7.541-2.48-.162-.103-.336-.208-.504-.312-.007.002-.013.006-.02.009-.681.614-.988 1.511-.988 2.81v1c0 .553-.448 1-1 1s-1-.447-1-1v-1c0-3.017 1.366-4.83 4.148-5.556.93-.543 1.852-1.344 1.852-2.444v-9.1c-1.898-.376-3.491-1.797-3.969-3.652-.138-.534.185-1.08.72-1.218.531-.135 1.08.185 1.218.72.33 1.282 1.633 2.249 3.031 2.249h5c3.859 0 7 3.141 7 7z"/></svg>