<svg id="Layer_1" viewBox="0 0 24 24" xmlns="http://www.w3.org/2000/svg" data-name="Layer 1"><path d="m19.309 10.01c-2.089-.127-3.932 1.166-4.845 3.049-.643 1.327-.537 2.507-.171 3.565 0 0-.293.376-.293.876 0 1-.022 1.5-.022 1.5h-1c-.552 0-1 .448-1 1v1h-.978c-.552 0-1 .448-1 1v1c0 .552.448 1 1 1h.776c.53 0 1.039-.211 1.414-.586l3.827-3.827c.948.411 2.044.544 3.193.267 1.885-.454 3.373-2.035 3.71-3.945.538-3.055-1.7-5.723-4.611-5.9zm.691 5.491c-.828 0-1.5-.672-1.5-1.5s.672-1.5 1.5-1.5 1.5.672 1.5 1.5-.672 1.5-1.5 1.5zm-11.816 8.5h-3.184c-2.757 0-5-2.243-5-5v-8.501c0-1.548.699-2.983 1.917-3.936l6.999-5.484c1.815-1.422 4.352-1.422 6.167 0l7 5.484c1.107.867 1.779 2.131 1.893 3.516-1.205-1.218-2.822-1.962-4.546-2.067-1.275-.078-2.516.237-3.62.843-3.333-1.555-7.426-.969-10.173 1.779-.391.391-.391 1.023 0 1.414s1.023.391 1.414 0c1.87-1.87 4.543-2.457 6.918-1.765-.484.521-.903 1.121-1.24 1.788-1.511-.221-3.104.232-4.264 1.392-.391.391-.391 1.023 0 1.414s1.023.391 1.414 0c.61-.61 1.42-.895 2.221-.868-.128.798-.118 1.611.067 2.44-.068.211-.123.448-.15.707-.915.31-1.633 1.05-1.912 1.979-1.219.381-2.105 1.521-2.105 2.863v1c0 .352.072.686.184 1z"/></svg>