<svg id="Layer_1" viewBox="0 0 24 24" xmlns="http://www.w3.org/2000/svg" data-name="Layer 1"><path d="m23.245 9.709c-.497-.498-1.192-.775-1.89-.738-2.1.085-3.724.746-4.828 1.965-1.655 1.83-1.6 4.339-1.483 5.417l-2.052 2.052v-7.477c.796-.614 2.873-2.463 3.007-5.145.086-1.714-.635-3.401-2.141-5.014-.959-1.025-2.746-1.025-3.705 0-1.506 1.613-2.227 3.3-2.141 5.014.132 2.649 2.162 4.487 2.979 5.124v7.498l-2.052-2.052c.117-1.077.172-3.587-1.484-5.417-1.104-1.219-2.728-1.88-4.827-1.965-.716-.039-1.394.24-1.89.738-.496.498-.765 1.187-.736 1.891.085 2.1.746 3.724 1.965 4.828 1.407 1.272 3.219 1.534 4.471 1.534.531 0 .942-.046 1.199-.083l3.355 3.355v1.729c0 .552.448 1 1 1s1-.448 1-1v-1.729l3.355-3.355c.256.037.667.083 1.199.083 1.252 0 3.065-.262 4.471-1.535 1.219-1.104 1.88-2.728 1.965-4.827.029-.704-.24-1.393-.738-1.89z"/></svg>