<svg id="Layer_1" viewBox="0 0 24 24" xmlns="http://www.w3.org/2000/svg" data-name="Layer 1"><path d="m23.073 10.015c-.351 0-.672.198-.829.512l-.744 1.488h-5.195l1.108-1.585c.89-1.237.763-2.923-.303-4.008-.016-.017-.033-.032-.05-.047l-3.878-3.437c-.643-.655-1.509-.952-2.362-.898-.444-.419-.886-.823-1.052-.937-2.054-1.42-4.831-1.454-6.912-.084-1.89 1.246-2.955 3.321-2.85 5.504 0 3.303.367 5.714 2.196 7.525.041.044 4.149 3.712 4.193 3.754.842.86 2.018 1.301 3.203 1.209 1.196-.091 2.289-.706 3.004-1.7l2.304-3.295h6.594l.744 1.487c.157.314.478.512.829.512.512 0 .927-.415.927-.927v-4.146c0-.512-.415-.927-.927-.927zm-20.527-2.148c-.177.142-.329.309-.478.477-.039-.559-.062-1.167-.063-1.868-.072-1.518.658-2.934 1.952-3.787 1.406-.925 3.284-.902 4.674.06.072.05.131.114.2.168-.627.497-4.87 3.812-6.285 4.95zm19.54 9.576c.475.511 1.915 2.171 1.915 3.558 0 .801-.312 1.555-.879 2.121-.566.566-1.319.879-2.121.879s-1.555-.312-2.121-.879c-.567-.566-.879-1.32-.879-2.121 0-1.359 1.436-3.036 1.876-3.518.637-.626 1.611-.626 2.209-.04z"/></svg>