<svg id="Layer_1" viewBox="0 0 24 24" xmlns="http://www.w3.org/2000/svg" data-name="Layer 1"><path d="m12.884 17.612c0 .44-.356.796-.796.796h-.996v-1.592h.996c.44 0 .796.356.796.796zm-.325-3.224c0-.44-.356-.796-.796-.796h-.671v1.592h.671c.44 0 .796-.356.796-.796zm9.441-3.903v8.515c0 2.757-2.243 5-5 5h-10c-2.757 0-5-2.243-5-5v-14c0-2.757 2.243-5 5-5h4.515c.163 0 .324.013.485.024v6.976c0 1.654 1.346 3 3 3h6.976c.011.161.024.322.024.485zm-13.4 3.814c0-1.269-1.031-2.3-2.3-2.3s-2.3 1.031-2.3 2.3v3.4c0 1.269 1.031 2.3 2.3 2.3s2.3-1.031 2.3-2.3zm5.058 1.526c.296-.389.482-.866.492-1.39.027-1.34-1.216-2.436-2.556-2.436h-1.294c-.442 0-.8.358-.8.8v6.4c0 .442.358.8.8.8h1.678c1.181 0 2.263-.809 2.462-1.973.151-.882-.19-1.681-.782-2.202zm6.342-3.026c0-.442-.358-.8-.8-.8s-.8.358-.8.8v4.9c0 .386-.314.7-.7.7-.643 0-.7-.601-.7-.601 0-.442-.358-.8-.8-.8-.43 0-.775.341-.793.767.036 1.237 1.047 2.233 2.293 2.233 1.269 0 2.3-1.031 2.3-2.3v-4.9zm-5-4.8h6.54c-.347-.913-.88-1.753-1.591-2.464l-3.484-3.486c-.712-.711-1.552-1.244-2.465-1.59v6.541c0 .551.448 1 1 1zm-8.7 5.601c-.386 0-.7.314-.7.7v3.4c0 .386.314.7.7.7s.7-.314.7-.7v-3.4c0-.386-.314-.7-.7-.7z"/></svg>