<svg id="Layer_1" viewBox="0 0 24 24" xmlns="http://www.w3.org/2000/svg" data-name="Layer 1"><path d="m15.266 11.656c-.496.663-1.436.799-2.1.303l-3.203-2.396c-.663-.496-.799-1.436-.303-2.1s1.436-.799 2.1-.303l3.203 2.396c.663.496.799 1.436.303 2.1zm-2.698 1.104-3.203-2.396c-.663-.496-1.603-.361-2.1.303s-.361 1.603.303 2.1l3.203 2.396c.663.496 1.603.361 2.1-.303s.361-1.603-.303-2.1zm4.791-6.407-3.203-2.396c-.663-.496-1.603-.361-2.1.303s-.361 1.603.303 2.1l3.203 2.396c.663.496 1.603.361 2.1-.303s.361-1.603-.303-2.1zm4.575 9.78c1.34-1.746 2.066-3.886 2.066-6.087v-7.046c0-1.215-1.083-2.176-2.336-1.973-.983.16-1.664 1.083-1.664 2.08v4.434c.004.757-.275 1.492-.736 2.109-.445.595-1.05.986-1.707 1.203-.018.718-.249 1.413-.688 2-.436.582-1.03.999-1.707 1.222-.022.712-.254 1.4-.69 1.982l-.019.025c-.893 1.181-2.575 1.414-3.755.519l-8.3-6.29c-.663-.496-1.603-.361-2.1.303-.496.663-.361 1.603.303 2.1l11.177 8.248c2.287 1.687 5.504 1.233 7.234-1.022l2.921-3.807z"/></svg>