<svg id="Layer_1" viewBox="0 0 24 24" xmlns="http://www.w3.org/2000/svg" data-name="Layer 1"><path d="m20 0c-.745 0-1.46.203-2.081.583-1.017-.677-2.387-.764-3.473-.212-.438-.242-.933-.371-1.447-.371h-1.346c-1.151 0-3.968.484-5.295 1.452-.634.462-.384 1.475.398 1.544.803.072 2.434.269 3.181.748.25.292.333.519.467.762.623 1.07 1.893 1.664 3.107 1.447.92.942 2.389 1.29 3.644.849.742.762 1.754 1.197 2.844 1.197 2.206 0 4-1.794 4-4s-1.794-4-4-4zm2.97 9.246c-.637-.354-1.415-.331-2.1.101l-3.74 4.148v-2.5c0-.727-.395-1.397-1.03-1.749-.637-.354-1.416-.331-2.1.101l-4 4.15v5.504c0 .552-.447 1-1 1s-1-.448-1-1v-12.001c.553 0 1-.448 1-1s-.447-1-1-1h-7c-.553 0-1 .448-1 1s.447 1 1 1v12c0 2.757 2.243 5 5 5h13c2.757 0 5-2.243 5-5v-8.005c0-.727-.395-1.397-1.03-1.749zm-8.97 10.754c-.552 0-1-.448-1-1v-1c0-.552.448-1 1-1 .552 0 1 .448 1 1v1c0 .552-.448 1-1 1zm6 0c-.552 0-1-.448-1-1v-1c0-.552.448-1 1-1 .552 0 1 .448 1 1v1c0 .552-.448 1-1 1z"/></svg>