<svg id="Layer_1" viewBox="0 0 24 24" xmlns="http://www.w3.org/2000/svg" data-name="Layer 1"><path d="m24 18.664v.336c0 1.214-1.082 2.176-2.335 1.973-.984-.16-1.665-1.083-1.665-2.079v-.23l.842-2.664h-1.842v6h2c.552 0 1 .448 1 1s-.448 1-1 1h-6c-.552 0-1-.448-1-1s.448-1 1-1h2v-6h-1.842l.842 2.664v.23c0 .996-.681 1.92-1.665 2.079-1.253.203-2.335-.758-2.335-1.973v-.336l1.054-3.276c.266-.827 1.035-1.388 1.904-1.388h2.042c0-.552.448-1 1-1s1 .448 1 1h2.042c.869 0 1.638.561 1.904 1.388zm-12.85-3.889c.534-1.66 2.064-2.775 3.808-2.775h.808c.55-.613 1.348-1 2.234-1 .773 0 1.468.305 2 .787v-6.787c0-2.761-2.239-5-5-5h-9v16h4.756zm.85 8.225c0-.174.015-.345.043-.511-.224-.125-.437-.273-.635-.442-.895-.762-1.408-1.872-1.408-3.047v-.65l.112-.35h-7.112c-1.657 0-3 1.343-3 3s1.343 3 3 3h9.184c-.112-.314-.184-.648-.184-1zm-9-7h1v-15.9c-2.328.475-4 2.524-4 4.9v12.025c.859-.655 1.927-.986 3-1.025z"/></svg>