<svg id="Layer_1" viewBox="0 0 24 24" xmlns="http://www.w3.org/2000/svg" data-name="Layer 1"><path d="m19 0h-14c-2.757 0-5 2.243-5 5v2h24v-2c0-2.757-2.243-5-5-5zm-14.5 5c-.828 0-1.5-.672-1.5-1.5s.672-1.5 1.5-1.5 1.5.672 1.5 1.5-.672 1.5-1.5 1.5zm4 0c-.828 0-1.5-.672-1.5-1.5s.672-1.5 1.5-1.5 1.5.672 1.5 1.5-.672 1.5-1.5 1.5zm4 0c-.828 0-1.5-.672-1.5-1.5s.672-1.5 1.5-1.5 1.5.672 1.5 1.5-.672 1.5-1.5 1.5zm1.263 18.441-1.196-1.152c-.831-.831-.748-2.231.249-2.949.79-.567 1.884-.393 2.562.285l.622.573v-6.698c0-.827.673-1.5 1.5-1.5s1.5.673 1.5 1.5v3.323l2.486.994c1.519.607 2.514 2.078 2.514 3.714v.469c0 1.105-.895 2-2 2h-6.85c-.517 0-1.015-.2-1.387-.559zm-4.655-6.441h-4.216c.058-1.113.981-2 2.108-2s2.051.887 2.108 2zm14.892-8v8c0 .023-.006.044-.007.067-.512-.456-1.099-.84-1.765-1.106l-1.229-.491v-1.969c0-1.93-1.57-3.5-3.5-3.5s-3.5 1.57-3.5 3.5v3.509s-2.396.065-2.898.011c-.042-1.879-1.349-3.441-3.102-3.883 0 0 0-1.137-1-1.137s-1 1.137-1 1.137c-1.754.442-3.06 2.004-3.102 3.883-.502.053-.898.463-.898.979 0 .552.447 1 1 1h7.518c-.279.487-.459 1.029-.505 1.602-.039.478.03.947.16 1.398h-5.172c-2.757 0-5-2.243-5-5v-8z"/></svg>