<svg id="Layer_1" viewBox="0 0 24 24" xmlns="http://www.w3.org/2000/svg" data-name="Layer 1"><path d="m24 13.363c-.008.843-.494 1.571-1.27 1.9l-5.73 2.213v5.524c0 .552-.448 1-1 1s-1-.448-1-1v-11.713c0-.717.33-1.375.905-1.803.577-.431 1.305-.559 1.996-.355.301.09.599.2.887.329l4.011 1.999c.735.327 1.208 1.063 1.201 1.906zm-10.816 10.637h-8.184c-2.761 0-5-2.239-5-5v-14.003c0-2.76 2.237-4.997 4.997-4.997h5.996c2.76 0 4.997 2.237 4.997 4.997v2.228c-.453.142-.886.36-1.28.655-1.087.81-1.71 2.052-1.71 3.407v11.713c0 .352.072.686.184 1zm-6.189-6c0-.552-.447-1-.999-1h-.999c-.552 0-.999.448-.999 1s.447 1 .999 1h.999c.552 0 .999-.448.999-1zm0-4c0-.552-.447-1-.999-1h-.999c-.552 0-.999.448-.999 1s.447 1 .999 1h.999c.552 0 .999-.448.999-1zm0-4c0-.552-.447-1-.999-1h-.999c-.552 0-.999.448-.999 1s.447 1 .999 1h.999c.552 0 .999-.448.999-1zm0-4c0-.552-.447-1-.999-1h-.999c-.552 0-.999.448-.999 1s.447 1 .999 1h.999c.552 0 .999-.448.999-1zm4.997 12c0-.552-.447-1-.999-1h-.999c-.552 0-.999.448-.999 1s.447 1 .999 1h.999c.552 0 .999-.448.999-1zm0-4c0-.552-.447-1-.999-1h-.999c-.552 0-.999.448-.999 1s.447 1 .999 1h.999c.552 0 .999-.448.999-1zm0-4c0-.552-.447-1-.999-1h-.999c-.552 0-.999.448-.999 1s.447 1 .999 1h.999c.552 0 .999-.448.999-1zm0-4c0-.552-.447-1-.999-1h-.999c-.552 0-.999.448-.999 1s.447 1 .999 1h.999c.552 0 .999-.448.999-1z"/></svg>