<svg id="Layer_1" viewBox="0 0 24 24" xmlns="http://www.w3.org/2000/svg" data-name="Layer 1"><path d="m21 23c0 .552-.448 1-1 1-.552 0-1-.448-1-1 0-.552.448-1 1-1 .552 0 1 .448 1 1zm2-4c-.552 0-1 .448-1 1 0 .552.448 1 1 1 .552 0 1-.448 1-1 0-.552-.448-1-1-1zm-3 0c-.552 0-1 .448-1 1 0 .552.448 1 1 1 .552 0 1-.448 1-1 0-.552-.448-1-1-1zm-2-3v-1c0-1.103-.897-2-2-2h-1c-1.103 0-2 .897-2 2v1c0 1.103.897 2 2 2h1c1.103 0 2-.897 2-2zm-2-1v1s-1 0-1 0v-1zm2 7v-1c0-1.103-.897-2-2-2h-1c-1.103 0-2 .897-2 2v1c0 1.103.897 2 2 2h1c1.103 0 2-.897 2-2zm-2-1v1s-1 0-1 0v-1zm8-5v-1c0-1.103-.897-2-2-2h-1c-1.103 0-2 .897-2 2v1c0 1.103.897 2 2 2h1c1.103 0 2-.897 2-2zm-2-1v1s-1 0-1 0v-1zm-10.444 9h-6.556c-2.414 0-4.434-1.721-4.899-4h1.899c.553 0 1-.447 1-1s-.447-1-1-1h-2v-13c0-2.757 2.243-5 5-5h1c.553 0 1 .447 1 1 0 1.103.897 2 2 2s2-.897 2-2c0-.553.447-1 1-1h1c2.757 0 5 2.243 5 5v6.556c-.591-.344-1.268-.556-2-.556h-1c-2.206 0-4 1.794-4 4v1c0 .732.212 1.409.556 2h-.556c-.553 0-1 .447-1 1s.447 1 1 1h.142c-.084.322-.142.653-.142 1v1c0 .732.212 1.409.556 2zm-3.556-5c0-.553-.447-1-1-1h-1c-.553 0-1 .447-1 1s.447 1 1 1h1c.553 0 1-.447 1-1z"/></svg>