<?xml version="1.0" encoding="UTF-8"?>
<svg xmlns="http://www.w3.org/2000/svg" id="Layer_1" data-name="Layer 1" viewBox="0 0 24 24">
  <path d="m18,12c-3.314,0-6,2.686-6,6s2.686,6,6,6,6-2.686,6-6-2.686-6-6-6Zm3,7h-2v2c0,.552-.448,1-1,1h0c-.552,0-1-.448-1-1v-2h-2c-.552,0-1-.448-1-1h0c0-.552.448-1,1-1h2v-2c0-.552.448-1,1-1h0c.552,0,1,.448,1,1v2h2c.552,0,1,.448,1,1h0c0,.552-.448,1-1,1Zm-11-1c0-4.411,3.589-8,8-8,2.29,0,4.353.973,5.813,2.521l.157-1.097c.123-.861-.134-1.732-.704-2.39s-1.396-1.034-2.266-1.034h-.09C20.41,3.507,16.593,0,11.969,0S3.527,3.507,3.028,8h-.058c-.87,0-1.696.377-2.267,1.035C.133,9.692-.124,10.563,0,11.424l1.061,7.424c.421,2.937,2.975,5.151,5.94,5.151h5.726c-1.667-1.467-2.726-3.61-2.726-6Zm-4.951-10c.488-3.387,3.401-6,6.92-6s6.432,2.613,6.92,6H5.049Z"/>
</svg>
