<svg id="Layer_1" viewBox="0 0 24 24" xmlns="http://www.w3.org/2000/svg" data-name="Layer 1"><path d="m17.657 7.343c-.391-.391-.391-1.023 0-1.414l1.415-1.414c.391-.391 1.023-.391 1.414 0s.391 1.023 0 1.414l-1.415 1.414c-.195.195-.451.293-.707.293s-.512-.098-.707-.293zm-12.728 0c.195.195.451.293.707.293s.512-.098.707-.293c.391-.391.391-1.023 0-1.414l-1.415-1.414c-.391-.391-1.024-.391-1.414 0-.391.391-.391 1.023 0 1.414zm18.071 11.657h-4c-.552 0-1 .447-1 1s.448 1 1 1h4c.552 0 1-.447 1-1s-.448-1-1-1zm-3-6c0 .553.448 1 1 1h2c.552 0 1-.447 1-1s-.448-1-1-1h-2c-.552 0-1 .447-1 1zm-8-8c.552 0 1-.447 1-1v-2c0-.553-.448-1-1-1s-1 .447-1 1v2c0 .553.448 1 1 1zm0 2c-3.309 0-6 2.691-6 6 0 .553.448 1 1 1h10c.552 0 1-.447 1-1 0-3.309-2.691-6-6-6zm-11 7h2c.552 0 1-.447 1-1s-.448-1-1-1h-2c-.552 0-1 .447-1 1s.448 1 1 1zm14 3c-.552 0-1 .447-1 1v1h-13c-.552 0-1 .447-1 1s.448 1 1 1h13v1c0 .553.448 1 1 1s1-.447 1-1v-4c0-.553-.448-1-1-1z"/></svg>