<svg id="Layer_1" viewBox="0 0 24 24" xmlns="http://www.w3.org/2000/svg" data-name="Layer 1"><path d="m7 15v1c0 .552-.448 1-1 1h-1v4.352c0 1.308-.938 2.502-2.239 2.634-1.495.152-2.761-1.022-2.761-2.487v-4.5c0-1.657 1.343-3 3-3h3c.552 0 1 .448 1 1zm-.657-3.082c1.409-.163 2.701-.592 3.869-1.175-.131.223-.212.479-.212.756 0 .828.672 1.5 1.5 1.5s1.5-.672 1.5-1.5-.665-1.492-1.488-1.499c.34-.22.672-.447.984-.687 3.266-2.628 5.11-6.55 5.956-8.801-.896-.326-1.857-.513-2.864-.513h-3.176c-4.646.001-8.412 3.767-8.412 8.413v1.415c0 1.248 1.085 2.26 2.322 2.095.007 0 .014-.002.021-.003zm13.9-10.507c-.796 2.058-2.301 5.215-4.773 7.857.343.265.691.506 1.042.733-.004 0-.008-.001-.012-.001-.828 0-1.5.672-1.5 1.5s.672 1.5 1.5 1.5 1.5-.672 1.5-1.5c0-.285-.084-.549-.222-.776 1.379.695 2.814 1.115 4.299 1.238h.01c1.036.078 1.914-.767 1.914-1.806v-1.745c0-2.918-1.495-5.492-3.757-7.001zm-6.243 17.59c-1.293 0-2.58-.48-3.709-1.226-.608-.402-1.424-.041-1.52.681-.048.357.102.71.393.924.295.217.622.454.837.568v3.053c0 .552.448 1 1 1h6c.552 0 1-.448 1-1v-3.053c1.982-1.049 3.607-2.763 4.557-4.605.316-.613-.125-1.346-.812-1.411-.007 0-.014-.001-.021-.002-.389-.037-.771.153-.951.5-1.209 2.338-3.979 4.572-6.773 4.572z"/></svg>