<svg id="Layer_1" viewBox="0 0 24 24" xmlns="http://www.w3.org/2000/svg" data-name="Layer 1"><path d="m0 20v-.5c0-.828.672-1.5 1.5-1.5h21c.828 0 1.5.672 1.5 1.5v.5c0 2.209-1.791 4-4 4h-16c-2.209 0-4-1.791-4-4zm15-4c0-1.654-1.346-3-3-3s-3 1.346-3 3zm-2.877-4.988 1.089-1.635-.377-.377h-1.672l-.377.377 1.089 1.635c.083-.013.164-.013.247 0zm10.877-6.012v11.051c-.165-.024-.329-.051-.5-.051h-5.5c0-1.97-1.155-3.661-2.814-4.475l.913-1.37c.399-.597.321-1.399-.188-1.908l-.661-.661c-.372-.373-.888-.586-1.414-.586h-1.672c-.526 0-1.042.213-1.414.586l-.661.661c-.508.508-.587 1.311-.188 1.906l.914 1.372c-1.659.814-2.815 2.506-2.815 4.475h-5.5c-.171 0-.335.027-.5.051v-11.051c0-2.757 2.243-5 5-5h12c2.757 0 5 2.243 5 5zm-14.293-.707-1-1c-.391-.391-1.023-.391-1.414 0s-.391 1.023 0 1.414l1 1c.391.391 1.023.391 1.414 0s.391-1.023 0-1.414zm4.293-1.793c0-.552-.447-1-1-1s-1 .448-1 1v1.5c0 .552.447 1 1 1s1-.448 1-1zm4.707.793c-.391-.391-1.023-.391-1.414 0l-1 1c-.391.391-.391 1.023 0 1.414s1.023.391 1.414 0l1-1c.391-.391.391-1.023 0-1.414z"/></svg>