<svg id="Layer_1" viewBox="0 0 24 24" xmlns="http://www.w3.org/2000/svg" data-name="Layer 1"><path d="m18.501 24c-.36 0-.648-.206-.648-.206-1.138-.569-4.853-2.704-4.853-6.272v-3.187c0-1.295.826-2.439 2.056-2.848l2.5-.829c.609-.201 1.28-.201 1.888 0l2.501.829c1.229.408 2.056 1.552 2.056 2.848v3.187c0 4.031-3.763 5.858-4.917 6.322 0 0-.222.156-.582.156zm-7.344-5.033c-.055.01-.106.033-.164.033h-.999c-.552 0-.999-.448-.999-1s.447-1 .999-1h.999s.005.001.007.001v-2.003s-.005.001-.007.001h-.999c-.552 0-.999-.448-.999-1s.447-1 .999-1h.999c.068 0 .127.026.191.039.428-1.595 1.617-2.91 3.241-3.45l1.564-.519v-4.072c0-2.76-2.237-4.997-4.997-4.997h-5.995c-2.76 0-4.997 2.237-4.997 4.997v14.003c0 2.761 2.239 5 5 5h5.99c.974 0 1.875-.29 2.643-.771-1.102-1.073-2.107-2.49-2.477-4.262zm-1.163-13.967h.999c.552 0 .999.448.999 1s-.447 1-.999 1h-.999c-.552 0-.999-.448-.999-1s.447-1 .999-1zm0 4h.999c.552 0 .999.448.999 1s-.447 1-.999 1h-.999c-.552 0-.999-.448-.999-1s.447-1 .999-1zm-3.997 10h-.999c-.552 0-.999-.448-.999-1s.447-1 .999-1h.999c.552 0 .999.448.999 1s-.447 1-.999 1zm0-4h-.999c-.552 0-.999-.448-.999-1s.447-1 .999-1h.999c.552 0 .999.448.999 1s-.447 1-.999 1zm0-4h-.999c-.552 0-.999-.448-.999-1s.447-1 .999-1h.999c.552 0 .999.448.999 1s-.447 1-.999 1zm0-4h-.999c-.552 0-.999-.448-.999-1s.447-1 .999-1h.999c.552 0 .999.448.999 1s-.447 1-.999 1z"/></svg>