<svg id="Layer_1" viewBox="0 0 24 24" xmlns="http://www.w3.org/2000/svg" data-name="Layer 1"><path d="m15.08 24c-1.029 0-2.051-.394-2.829-1.172-.756-.755-1.172-1.76-1.172-2.828s.416-2.073 1.172-2.828l1.414-1.415c1.197-1.197 3.031-1.509 4.553-.782.499.238.71.835.472 1.333s-.837.71-1.333.471c-.764-.364-1.679-.208-2.277.392l-1.413 1.414c-.378.378-.587.88-.587 1.414s.209 1.036.586 1.414c.694.694 1.776.785 2.573.217.451-.32 1.075-.215 1.395.234.32.45.216 1.074-.234 1.395-.701.499-1.512.74-2.318.74zm6.334-4.736 1.414-1.415c.756-.755 1.172-1.76 1.172-2.828s-.416-2.073-1.172-2.829c-1.387-1.387-3.55-1.569-5.146-.432-.45.32-.555.945-.234 1.395s.945.557 1.395.234c.799-.569 1.88-.476 2.572.217.378.378.586.88.586 1.415s-.208 1.036-.586 1.414l-1.414 1.414c-.601.599-1.516.755-2.277.392-.496-.237-1.094-.026-1.333.471-.238.499-.027 1.095.472 1.333.548.262 1.136.389 1.72.389 1.039 0 2.066-.404 2.833-1.171zm2.478-13.289c-.475-2.266-2.487-3.974-4.892-3.974h-6.528c-.154 0-.309-.036-.446-.105l-3.157-1.58c-.414-.207-.878-.316-1.341-.316h-2.528c-2.757 0-5 2.243-5 5v.974h23.892zm-14.813 14.026c0-1.603.625-3.11 1.758-4.243l1.413-1.414c.845-.844 1.902-1.383 3.019-1.617-.011-.215-.003-.431.033-.648.133-.791.566-1.482 1.22-1.947 2.306-1.643 5.394-1.432 7.478.444v-2.601h-24v9.026c0 2.757 2.243 5 5 5h4.427c-.224-.635-.347-1.307-.347-2z"/></svg>