<svg id="Layer_1" viewBox="0 0 24 24" xmlns="http://www.w3.org/2000/svg" data-name="Layer 1"><path d="m4 24c-2.209 0-4-1.791-4-4s1.791-4 4-4 4 1.791 4 4-1.791 4-4 4zm10.5-8h-6.041c.954 1.063 1.541 2.463 1.541 4s-.586 2.937-1.541 4h6.041c.954-1.063 1.541-2.463 1.541-4s-.586-2.937-1.541-4zm5.5 0h-3.541c.954 1.063 1.541 2.463 1.541 4s-.586 2.937-1.541 4h3.541c2.206 0 4-1.794 4-4s-1.794-4-4-4zm-.684-4c.87 0 1.718-.129 2.538-.361.088-.534.146-1.079.146-1.639 0-.78-.098-1.536-.267-2.265-.565.173-1.151.265-1.753.265-3.297 0-5.98-2.683-5.98-5.98 0-.601.092-1.187.265-1.752-.729-.169-1.485-.267-2.265-.267-.56 0-1.104.057-1.639.146-.232.82-.361 1.668-.361 2.538 0 5.137 4.179 9.316 9.316 9.316zm.664-6c.378 0 .743-.071 1.099-.174-.997-2.165-2.741-3.908-4.905-4.905-.103.356-.173.72-.173 1.098 0 2.195 1.786 3.98 3.98 3.98zm-16.003 8.001h-.001s2.075-.001 2.075-.001c-1.766-2.117-2.973-4.717-3.381-7.577-.427 1.112-.67 2.315-.67 3.577 0 1.466.323 2.853.889 4.107.353-.066.716-.105 1.087-.106zm4.819-.001h10.52c-6.24 0-11.316-5.076-11.316-11.316 0-.652.068-1.292.176-1.923-1.401.58-2.634 1.474-3.629 2.588-.021.306-.047.612-.047.922 0 3.85 1.663 7.31 4.296 9.729z"/></svg>