<svg id="Layer_1" viewBox="0 0 24 24" xmlns="http://www.w3.org/2000/svg" data-name="Layer 1"><path d="m6.5 9c-3.006 0-6.5 1.747-6.5 4 0 1.103.897 2 2 2 .415 0 .8-.127 1.12-.344.273.78 1.008 1.344 1.88 1.344.798 0 1.483-.473 1.804-1.15.782.779 1.196 1.829 1.196 3.15 0 2.198-1.794 3.987-4 3.987-.875 0-1.68-.276-2.392-.821-.438-.334-1.065-.254-1.402.187-.336.438-.252 1.066.186 1.401 1.054.806 2.301 1.233 3.606 1.233l11 .013c.334 0 .646-.167.832-.445.048-.071 1.168-1.784 1.168-4.555 0-5.607-4.612-10-10.5-10zm16.621 13.391-.136.78c-.083.479-.499.829-.985.829h-4.132c.451-.897 1.132-2.632 1.132-5 0-4.159-2.101-7.756-5.357-9.901-.564-1.793-1.752-2.992-3.182-3.71-.182.917-.991 1.611-1.961 1.611-1.009 0-1.837-.753-1.972-1.725-.367.439-.912.725-1.528.725-1.103 0-2-.897-2-2 .006-.459.178-.929.469-1.272.965-1.37 3.401-2.728 7.09-2.728 7.565 0 13.492 5.603 13.492 12.755.148 3.468-.4 6.603-.931 9.635z"/></svg>