<svg id="Layer_1" viewBox="0 0 24 24" xmlns="http://www.w3.org/2000/svg" data-name="Layer 1"><path d="m3.5 21c1.478 0 2.631-.209 3.5-.533v2.302c0 .5-1.015 1.231-3.5 1.231s-3.5-.731-3.5-1.231v-2.264c.846.303 1.991.495 3.5.495zm18-5.951v-1.049c0-1.378-1.122-2.5-2.5-2.5h-6v-1.5h1.048c2.19 0 3.784-1.159 4.059-2.951.252-1.633-.665-3.232-2.184-3.832-.385-1.94-2.139-3.331-4.136-3.211-2.124.111-3.787 1.94-3.787 4.164-1.366.481-2.187 1.845-1.964 3.297.221 1.444 1.541 2.533 3.072 2.533h1.892v1.5h-6c-1.378 0-2.5 1.122-2.5 2.5v1.049c-1.754.167-2.5.756-2.5 1.182v2.033c.216.207 1.178.736 3.5.736 2.255 0 3.25-.546 3.5-.775v-1.994c0-.426-.746-1.015-2.5-1.182v-1.049c0-.276.224-.5.5-.5h6v1.549c-1.754.167-2.5.756-2.5 1.182v2.033c.216.207 1.178.736 3.5.736 2.255 0 3.25-.546 3.5-.775v-1.994c0-.426-.746-1.015-2.5-1.182v-1.549h6c.276 0 .5.224.5.5v1.049c-1.754.167-2.5.756-2.5 1.182v2.033c.216.207 1.178.736 3.5.736 2.255 0 3.25-.546 3.5-.775v-1.994c0-.426-.746-1.015-2.5-1.182zm-4.5 5.456v2.264c0 .5 1.015 1.231 3.5 1.231s3.5-.731 3.5-1.231v-2.302c-.869.324-2.022.533-3.5.533-1.509 0-2.654-.193-3.5-.495zm-8.5 0v2.264c0 .5 1.015 1.231 3.5 1.231s3.5-.731 3.5-1.231v-2.302c-.869.324-2.022.533-3.5.533-1.509 0-2.654-.193-3.5-.495z"/></svg>