<svg id="Layer_1" viewBox="0 0 24 24" xmlns="http://www.w3.org/2000/svg" data-name="Layer 1"><path d="m13.5 22.5c0 .828-.672 1.5-1.5 1.5s-1.5-.672-1.5-1.5.672-1.5 1.5-1.5 1.5.672 1.5 1.5zm2.394-9.429c-.334-1.466-1.497-2.63-2.964-2.965-1.217-.276-2.465.001-3.422.766-.958.764-1.508 1.904-1.508 3.128 0 .552.447 1 1 1s1-.448 1-1c0-.612.275-1.183.755-1.565.486-.389 1.102-.524 1.729-.379.711.162 1.298.749 1.46 1.46.259 1.134-.421 2.042-1.227 2.352-.979.376-1.718 1.508-1.718 2.632v.5c0 .552.447 1 1 1s1-.448 1-1v-.5c0-.316.244-.692.437-.766 1.876-.722 2.909-2.684 2.457-4.663zm-7.808-7.071 6-6h-3.564l-6.084 6zm7 0 5.678-5.678c-.549-.208-1.143-.322-1.764-.322h-2.086l-6 6zm7.404-4.576-4.576 4.576h6.086v-1c0-1.4-.579-2.668-1.51-3.576zm-22.49 15.576c0 2.757 2.243 5 5 5h3.551c.093-.644.36-1.225.755-1.706-.19-.393-.305-.829-.305-1.294v-.5c0-.514.089-1.025.252-1.51-.083.007-.167.01-.252.01-1.654 0-3-1.346-3-3 0-1.836.824-3.547 2.261-4.692 1.433-1.143 3.294-1.563 5.111-1.153 2.214.506 3.968 2.261 4.472 4.472.604 2.649-.576 5.279-2.851 6.577-.026.392-.129.763-.292 1.099.391.479.655 1.058.748 1.697h3.551c2.757 0 5-2.243 5-5v-9h-24.001zm7.674-17h-2.674c-2.757 0-5 2.243-5 5v1h1.59z"/></svg>