<svg id="Layer_1" viewBox="0 0 24 24" xmlns="http://www.w3.org/2000/svg" data-name="Layer 1"><path d="m7.625 1.943c1.239 2.872 3.212 9.038 3.366 19.015l-7.293 2.865c-.322.117-.651.174-.974.174-.713 0-1.396-.279-1.919-.802-.76-.76-1.004-1.859-.637-2.869l6.759-17.165c.179-.447.416-.855.698-1.219zm15.791 12.824c-1.914-.721-4.747-1.636-8.18-2.429l.714-2.628c.26-1.007-.656-1.923-1.663-1.663l-2.551.678c-.802-3.883-1.814-6.563-2.526-8.126 1.06-.573 2.317-.761 3.543-.446 5.276 1.359 9.735 5.817 11.094 11.094.05.194.087.388.112.582.118 1.046-.04 2.041-.543 2.937zm-7.416-10.266c0-.829-.672-1.5-1.5-1.5s-1.5.672-1.5 1.5.672 1.5 1.5 1.5 1.5-.672 1.5-1.5zm5 5.499c0-.829-.672-1.5-1.5-1.5s-1.5.672-1.5 1.5.672 1.5 1.5 1.5 1.5-.672 1.5-1.5zm-8.039 10.175 7.883-3.104c.434-.174.833-.403 1.189-.676-2.195-.786-5.501-1.801-9.489-2.588.218 1.901.358 4.076.416 6.368z"/></svg>