<svg id="Layer_1" viewBox="0 0 24 24" xmlns="http://www.w3.org/2000/svg" data-name="Layer 1"><path d="m16.447 11c-.426 0-.848-.113-1.231-.337-.762-.445-1.216-1.237-1.216-2.119v-6.087c0-.882.454-1.674 1.216-2.119.762-.443 1.673-.452 2.441-.02l5.114 3.057c.761.428 1.229 1.228 1.229 2.126s-.468 1.698-1.251 2.139l-5.069 3.03c-.392.221-.813.33-1.232.33zm-4.447-7.118-3.131-1.566c-.415-.207-.878-.316-1.341-.316h-2.528c-2.757 0-5 2.243-5 5v1h12zm-3 11.118h-3c-.551 0-1 .449-1 1v2c0 .551.449 1 1 1h3c.551 0 1-.449 1-1v-2c0-.551-.449-1-1-1zm9.706-2.654c-.727.41-1.492.613-2.259.613-.782 0-1.557-.211-2.24-.61-.931-.544-1.6-1.377-1.944-2.349h-12.263v9c0 2.761 2.239 5 5 5h14c2.761 0 5-2.239 5-5v-9h-1.371zm-3.706 6.637c0 .837-.955 1.314-1.625.812l-1.46-1.117c-.309 1.327-1.496 2.321-2.916 2.321h-3c-1.654 0-3-1.346-3-3v-2c0-1.654 1.346-3 3-3h3c1.422 0 2.609.996 2.917 2.326l1.458-1.094c.669-.502 1.625-.024 1.625.812v3.939z"/></svg>