<svg id="Layer_1" viewBox="0 0 24 24" xmlns="http://www.w3.org/2000/svg" data-name="Layer 1"><path d="m20.414 22.414c-.781.781-2.047.781-2.828 0l-12.187-12.187-3.559 3.497c-.92.92-1.47.747-1.692-.356-.073-.367-.138-1.855-.147-2.286-.031-1.547.474-3.459 2.359-5.387l4.368-4.164c.816-.747 2.075-.722 2.859.059l.803.798c.823.819.812 2.155-.025 2.96l-2.112 2.076 12.162 12.162c.781.781.781 2.047 0 2.828zm-12.657-7-4.172 4.172c-.781.781-.781 2.047 0 2.828.781.781 2.047.781 2.828 0l4.172-4.172zm13.883-9.718-4.368-4.165c-.816-.747-2.075-.722-2.859.059l-.803.798c-.823.819-.812 2.155.025 2.96l2.112 2.076-2.334 2.334 2.828 2.828 2.358-2.358 3.559 3.497c.92.92 1.47.747 1.692-.356.074-.367.138-1.855.147-2.286.031-1.547-.474-3.459-2.359-5.387z"/></svg>