<svg id="Layer_1" viewBox="0 0 24 24" xmlns="http://www.w3.org/2000/svg" data-name="Layer 1"><path d="m15.004 19.058-2.858 2.857c-1.344 1.345-3.131 2.085-5.033 2.085s-3.688-.74-5.033-2.085c-2.775-2.774-2.775-7.29 0-10.064l2.858-2.857 3.505 3.505-2.815 2.813c-.842.843-.842 2.213 0 3.056.843.842 2.213.842 3.056 0l2.815-2.813 3.504 3.504zm-2.09-4.917.701-.7c.586-.585 1.535-.585 2.121 0l1.383 1.383c.586.586.586 1.536 0 2.122l-.7.7-3.504-3.504zm-6.56-6.561.701-.7c.586-.585 1.535-.585 2.121 0l1.383 1.383c.586.586.586 1.536 0 2.122l-.7.7-3.504-3.504zm14.646 3.42v.5c0 .828-.672 1.5-1.5 1.5h-1c-.828 0-1.5-.672-1.5-1.5v-.5zm3-6c0 1.642-.798 3.09-2.02 4h-1.98v-2.277c.314-.183.575-.446.751-.763.24-.43-.07-.96-.563-.96h-2.377c-.492 0-.802.53-.563.96.177.317.437.58.751.763v2.277h-1.979c-1.439-1.071-2.287-2.889-1.944-4.886.338-1.969 1.89-3.593 3.846-4.001 3.232-.675 6.078 1.774 6.078 4.887z"/></svg>