<svg id="Layer_1" viewBox="0 0 24 24" xmlns="http://www.w3.org/2000/svg" data-name="Layer 1"><path d="m22.066 9.919-4.008-1.328c-.362-.121-.752-.121-1.114 0l-4.011 1.328c-1.156.385-1.932 1.462-1.932 2.678v3.876c0 4.162 4.207 6.589 5.493 7.232 0 0 .62.295 1.008.295.592 0 .88-.217.88-.217 1.318-.531 5.618-2.621 5.618-7.311v-3.876h.001c0-1.216-.778-2.293-1.934-2.677zm-1.375 8.734c-.812.83-1.939 1.347-3.191 1.347-1.228 0-2.327-.507-3.133-1.311l-.695.695c-.248.248-.672.072-.672-.278v-2.526c0-.32.259-.579.579-.579h2.526c.351 0 .526.424.278.672l-.607.607c.449.438 1.048.721 1.723.721s1.289-.275 1.738-.716c.171-.168.473-.284.774-.284.862 0 1.281 1.037.679 1.653zm1.309-4.232c0 .32-.259.579-.579.579h-2.526c-.351 0-.526-.424-.278-.672l.607-.607c-.449-.438-1.048-.721-1.723-.721s-1.289.275-1.738.716c-.171.168-.438.284-.774.284-.862 0-1.281-1.037-.679-1.653.812-.83 1.939-1.347 3.191-1.347 1.228 0 2.327.506 3.133 1.311l.695-.695c.248-.248.672-.072.672.278v2.526zm-22-9.921c0-2.485 3.806-4.5 8.5-4.5s8.5 2.015 8.5 4.5-3.806 4.5-8.5 4.5-8.5-2.015-8.5-4.5zm0 11.066v-1.74c1.876 1.334 4.92 2.174 8.5 2.174.17 0 .332-.011.5-.015v.487c0 .906.156 1.737.407 2.506-.297.014-.6.021-.907.021-4.865 0-8.5-1.812-8.5-3.434zm0-5v-2.167c1.876 1.596 4.92 2.6 8.5 2.6.269 0 .528-.017.79-.028-.183.512-.29 1.057-.29 1.624v1.392c-.166.004-.331.012-.5.012-4.865.001-8.5-1.812-8.5-3.432zm12.614 12.942c-1.268.323-2.692.491-4.114.491-4.224 0-8.5-1.447-8.5-4.214v-.96c1.876 1.334 4.92 2.174 8.5 2.174.627 0 1.231-.035 1.822-.084.654 1.036 1.473 1.897 2.292 2.593z"/></svg>