<svg id="Layer_1" viewBox="0 0 24 24" xmlns="http://www.w3.org/2000/svg" data-name="Layer 1"><path d="m10.926 13.742-2.995 7.624c-.201.519-.796.766-1.296.565-.515-.202-.768-.782-.565-1.296l2.224-5.662c.853-.491 1.669-1.225 2.451-1.693l.182.462zm12.762-7.815c-.333-.528-.88-.864-1.501-.922-1.356-.089-1.922-.355-2.94-1.304-.647-.556-1.316-1.131-2.082-1.411-.599-.219-1.318-.312-2.153-.284-.757.029-1.436.388-1.88.946.003.008 4.166 10.6 4.166 10.6.535.26 1.093.373 1.732.442 1.173.105 2.311-.547 2.798-1.648l2.05-4.647c.218-.592.148-1.238-.188-1.771zm-6.322 16.004c.515-.202.768-.782.565-1.296l-6.67-16.98c-.349-.963-1.24-1.61-2.272-1.65-.824-.028-1.553.065-2.152.284-.766.28-1.435.855-2.082 1.411-1.019.949-1.584 1.215-2.941 1.304-.62.058-1.167.394-1.5.922-.337.534-.406 1.179-.165 1.831l2.026 4.588c.487 1.101 1.609 1.763 2.798 1.648.525-.051 1.015-.158 1.455-.318.742-.271 1.434-.79 2.104-1.291.554-.415 1.126-.843 1.59-1.013.611-.224 1.479-.167 1.986-.094l3.963 10.088c.201.519.796.766 1.296.565z"/></svg>