<svg id="Layer_1" viewBox="0 0 24 24" xmlns="http://www.w3.org/2000/svg" data-name="Layer 1"><path d="m3 17c-.344 0-.677.043-1 .11v-6.11c0-2.757 2.243-5 5-5h3.35c-.223.627-.35 1.298-.35 2v3c0 3.309 2.691 6 6 6-1.031-.032-2.035.323-2.798 1h-2.404c-.726-.641-1.663-1-2.646-1zm18.5 2h-5.652c-.588 0-1.147.259-1.527.708l-.247.292h-4.149l-.247-.292c-.38-.449-.939-.708-1.527-.708h-5.651c-1.381 0-2.5 1.119-2.5 2.5s1.119 2.5 2.5 2.5h19c1.381 0 2.5-1.119 2.5-2.5s-1.119-2.5-2.5-2.5zm2.5-10v2c0 2.206-1.794 4-4 4h-4c-2.206 0-4-1.794-4-4v-2c0-1.474.81-2.75 2-3.444v-1.556c0-2.206 1.794-4 4-4s4 1.794 4 4v1.556c1.19.694 2 1.97 2 3.444zm-4.5 1c0-.828-.672-1.5-1.5-1.5s-1.5.672-1.5 1.5.672 1.5 1.5 1.5 1.5-.672 1.5-1.5zm.5-6c0-1.103-.897-2-2-2s-2 .897-2 2v1h4z"/></svg>