<svg id="Layer_1" viewBox="0 0 24 24" xmlns="http://www.w3.org/2000/svg" data-name="Layer 1"><path d="m9.5 5c-5.238 0-9.5 4.262-9.5 9.5s4.262 9.5 9.5 9.5 9.5-4.262 9.5-9.5-4.262-9.5-9.5-9.5zm-6 9.5c-.391-.391-.391-1.024 0-1.414l4.586-4.586c.391-.391 1.024-.391 1.414 0 .391.39.391 1.024 0 1.414l-4.586 4.586c-.391.39-1.024.39-1.414 0zm1.5 4.5c-.391-.391-.391-1.024 0-1.414l7.586-7.586c.391-.391 1.024-.391 1.414 0 .391.39.391 1.024 0 1.414l-7.586 7.586c-.391.39-1.024.39-1.414 0zm10.5-3.086-4.586 4.586c-.391.39-1.024.39-1.414 0-.391-.391-.391-1.024 0-1.414l4.586-4.586c.391-.391 1.024-.391 1.414 0 .391.39.391 1.024 0 1.414zm6.63 1.665c.232.423.37.903.37 1.421 0 1.657-1.343 3-3 3-.393 0-.763-.083-1.104-.223 1.255-1.531 2.111-3.394 2.442-5.431.001-.001.012-.011.012-.011.065-.6.159-1.208.15-1.834 0-6.341-5.159-11.5-11.5-11.5-2.772 0-5.319.987-7.307 2.627-.124-.323-.193-.673-.193-1.041 0-1.657 1.343-3 3-3 .639 0 1.225.207 1.709.55.456-1.243 1.64-2.135 3.041-2.135 1.188 0 2.212.646 2.777 1.598.888-.763 1.863-1.251 2.594-1.528.637-.242 1.333.169 1.432.843.084.576.098 1.353-.057 2.259.319-.101.651-.172 1.004-.172 1.933 0 3.5 1.567 3.5 3.5 0 .29-.056.562-.129.828 1.063.171 1.895.503 2.494.828.714.387.847 1.356.29 1.947-.389.412-.9.885-1.52 1.318 1.106.587 1.865 1.74 1.865 3.08s-.762 2.492-1.87 3.079z"/></svg>