<svg id="Layer_1" viewBox="0 0 24 24" xmlns="http://www.w3.org/2000/svg" data-name="Layer 1"><path d="m24 4.5c0 .552-.448 1-1 1s-1-.448-1-1c0-1.212-.976-2.5-2.785-2.5-.552 0-1-.448-1-1s.448-1 1-1c2.683 0 4.785 1.977 4.785 4.5zm-22 0c0-1.212.976-2.5 2.785-2.5.552 0 1-.448 1-1s-.448-1-1-1c-2.683 0-4.785 1.977-4.785 4.5 0 .552.448 1 1 1s1-.448 1-1zm6 7c0 .626.374 1 1 1s1-.374 1-1c0-.945-.615-2.091-1-2.436-.385.344-1 1.491-1 2.436zm14 11.5c0 .552-.448 1-1 1s-1-.448-1-1c-.055-1.156-.893-1.131-1.304-1.293-1.857 1.431-4.175 2.293-6.696 2.293s-4.837-.861-6.694-2.291c-.416.158-1.245.127-1.306 1.291 0 .552-.448 1-1 1s-1-.448-1-1c0-1.518.83-2.378 1.681-2.824-1.666-1.928-2.681-4.433-2.681-7.176 0-5.728 4.402-10.442 10-10.949v-1.051c0-.552.448-1 1-1s1 .448 1 1v1.051c5.598.508 10 5.221 10 10.949 0 2.742-1.015 5.247-2.681 7.176.851.446 1.681 1.307 1.681 2.824zm-10-11.5c0-1.777-1.344-4.5-3-4.5s-3 2.723-3 4.5c0 1.38.802 2.448 2 2.834v3.666c0 .552.448 1 1 1s1-.448 1-1v-3.666c1.198-.386 2-1.454 2-2.834zm4 3.317c1.066-1.177 1.528-2.377 1.498-3.419-.104-2.137-1.464-3.652-2.28-4.238-.468-.345-1.218-.159-1.218.841v10c0 .552.448 1 1 1s1-.448 1-1v-3.183z"/></svg>