<svg id="Layer_1" viewBox="0 0 24 24" xmlns="http://www.w3.org/2000/svg" data-name="Layer 1"><path d="m22 14.556v-1.556c0-2.206-1.794-4-4-4s-4 1.794-4 4v1.556c-1.19.694-2 1.97-2 3.444v2c0 2.206 1.794 4 4 4h4c2.206 0 4-1.794 4-4v-2c0-1.474-.81-2.75-2-3.444zm-4 5.944c-.828 0-1.5-.672-1.5-1.5s.672-1.5 1.5-1.5 1.5.672 1.5 1.5-.672 1.5-1.5 1.5zm2-6.5h-4v-1c0-1.103.897-2 2-2s2 .897 2 2zm-6-6c0 1.103-.897 2-2 2s-2-.897-2-2 .897-2 2-2 2 .897 2 2zm-2 5.552v-.552c0-.345.04-.68.097-1.01-.033 0-.064.01-.097.01-2.206 0-4-1.794-4-4s1.794-4 4-4c1.99 0 3.632 1.466 3.936 3.372.644-.238 1.338-.372 2.064-.372 2.952 0 5.408 2.145 5.903 4.958.061-.31.097-.63.097-.958v-6c0-2.757-2.243-5-5-5h-14c-2.757 0-5 2.243-5 5v6c0 2.757 2.243 5 5 5h5.357c.336-.932.896-1.778 1.643-2.448zm7.5-10.552c.828 0 1.5.672 1.5 1.5s-.672 1.5-1.5 1.5-1.5-.672-1.5-1.5.672-1.5 1.5-1.5zm-15 10c-.828 0-1.5-.672-1.5-1.5s.672-1.5 1.5-1.5 1.5.672 1.5 1.5-.672 1.5-1.5 1.5zm0-7c-.828 0-1.5-.672-1.5-1.5s.672-1.5 1.5-1.5 1.5.672 1.5 1.5-.672 1.5-1.5 1.5z"/></svg>