<svg id="Layer_1" viewBox="0 0 24 24" xmlns="http://www.w3.org/2000/svg" data-name="Layer 1"><path d="m8 3v4c0 1.657 1.343 3 3 3h10c1.657 0 3-1.343 3-3v-4c0-1.657-1.343-3-3-3h-10c-1.657 0-3 1.343-3 3zm3 1.5c-.828 0-1.5-.672-1.5-1.5s.672-1.5 1.5-1.5 1.5.672 1.5 1.5-.672 1.5-1.5 1.5zm0 4c-.828 0-1.5-.672-1.5-1.5s.672-1.5 1.5-1.5 1.5.672 1.5 1.5-.672 1.5-1.5 1.5zm10-4c-.828 0-1.5-.672-1.5-1.5s.672-1.5 1.5-1.5 1.5.672 1.5 1.5-.672 1.5-1.5 1.5zm0 4c-.828 0-1.5-.672-1.5-1.5s.672-1.5 1.5-1.5 1.5.672 1.5 1.5-.672 1.5-1.5 1.5zm-5-1c-1.383 0-2.5-1.117-2.5-2.5s1.117-2.5 2.5-2.5 2.5 1.117 2.5 2.5-1.117 2.5-2.5 2.5zm-13 9.5c-.344 0-.677.043-1 .11v-6.11c0-2.414 1.721-4.434 4-4.899v.899c0 2.757 2.243 5 5 5h10c.342 0 .677-.035 1-.101v5.211c-.323-.067-.656-.11-1-.11h-5.151c-.983 0-1.92.359-2.646 1h-2.404c-.726-.641-1.663-1-2.646-1zm20.972 4.503c0 1.379-1.118 2.497-2.497 2.497h-18.978c-1.379 0-2.497-1.118-2.497-2.497s1.118-2.497 2.497-2.497h5.645c.588 0 1.146.259 1.526.708l.246.291h4.144l.247-.292c.38-.449.937-.707 1.525-.707h5.646c1.379 0 2.497 1.118 2.497 2.497z"/></svg>