<svg id="Layer_1" viewBox="0 0 24 24" xmlns="http://www.w3.org/2000/svg" data-name="Layer 1"><path d="m0 12v-7c0-2.757 2.243-5 5-5h2v11.608c-1.761.244-3.652.392-5.692.392zm17-3.278c3.835-1.785 6.114-3.774 6.916-4.548-.397-2.363-2.443-4.174-4.916-4.174h-2zm7-1.945v12.223c0 2.757-2.243 5-5 5h-14c-2.757 0-5-2.243-5-5v-5h1.308c12.189 0 19.566-4.669 22.692-7.223zm-17 11.723c0-.828-.672-1.5-1.5-1.5s-1.5.672-1.5 1.5.672 1.5 1.5 1.5 1.5-.672 1.5-1.5zm6.5 0c0-.828-.672-1.5-1.5-1.5s-1.5.672-1.5 1.5.672 1.5 1.5 1.5 1.5-.672 1.5-1.5zm6.5 0c0-.828-.672-1.5-1.5-1.5s-1.5.672-1.5 1.5.672 1.5 1.5 1.5 1.5-.672 1.5-1.5zm-11-18.5v11.28c2.258-.437 4.252-1.04 6-1.716v-9.564z"/></svg>