<svg id="Layer_1" viewBox="0 0 24 24" xmlns="http://www.w3.org/2000/svg" data-name="Layer 1"><path d="m23.581 4.532c-.498-.825-1.103-1.596-1.798-2.291-.694-.694-1.466-1.299-2.295-1.797-1.166-.701-2.664-.511-3.641.465l-4.316 4.311c-.698.697-1.069 1.661-1.018 2.645.051.988.523 1.912 1.296 2.537.33.267.648.554.947.853.303.303.591.622.855.948.625.771 1.55 1.243 2.539 1.295.979.056 1.949-.319 2.647-1.017l.654-.654c.314-.315.708-.413 1.057-.259.156.069.519.295.49.944v3.496c-.003.54.443 1.001 1 .999.553 0 1-.447 1-.999 0-3.709.393-5.854.68-7.42.179-.977.32-1.748.32-2.581-.006-.52-.15-1.03-.419-1.475zm-.167 16.077c.377.377.586.878.586 1.413 0 .684-.343 1.315-.944 1.699-.603.385-1.409.407-2.029.05-.655-.377-1.027-1.035-1.027-1.749 0-.533.208-1.035.581-1.407l.787-.769c.352-.344.914-.344 1.265 0l.781.764zm-9.636-5.742-8.174 8.165c-1.253 1.252-3.303 1.298-4.573.064-.01-.009-.111-.11-.134-.135-1.22-1.248-1.192-3.297.071-4.559l8.175-8.166c.345.655.82 1.243 1.408 1.719.273.221.539.46.79.711.254.254.495.521.716.793.476.588 1.065 1.062 1.721 1.407z"/></svg>