<svg id="Layer_1" viewBox="0 0 24 24" xmlns="http://www.w3.org/2000/svg" data-name="Layer 1"><path d="m23.466 8.737c-.712.712-1.866.712-2.578 0-.242-.242-.556-.624-.896-1.061-.04 1.581-.598 3.346-1.117 4.323-.374.705-1.378.705-1.752 0-.518-.978-1.077-2.742-1.117-4.323-.34.437-.654.819-.896 1.061-.712.712-1.866.712-2.578 0s-.712-1.866 0-2.578 2.895-1.16 5.466-1.16 4.754.448 5.466 1.16.712 1.866 0 2.578zm-3.466-5.737c0-.297-.069-.576-.185-.829.131-.084.276-.159.45-.207.532-.146.845-.697.698-1.229s-.696-.847-1.229-.698c-.704.194-1.244.553-1.653.972-.028-.001-.053-.008-.081-.008s-.054.007-.081.008c-.409-.419-.949-.778-1.653-.972-.534-.149-1.083.166-1.229.698-.147.533.166 1.083.698 1.229.175.048.319.123.45.207-.116.253-.185.532-.185.829 0 1.104.895 2 2 2s2-.895 2-2zm-14.027 10.75c-.268-.464-.763-.75-1.299-.75h-2.116c-.536 0-1.031.286-1.299.75l-1.058 1.834c-.268.464-.268 1.036 0 1.5l1.058 1.833c.268.464.763.75 1.299.75h2.117c.536 0 1.031-.286 1.299-.75l1.058-1.833c.268-.464.268-1.036 0-1.5zm2.792-7.833c.268.464.763.75 1.299.75h.023c.146-.704.487-1.375 1.032-1.92.684-.684 1.761-1.102 2.91-1.359-.005-.048-.02-.093-.023-.142-.243-.216-.451-.472-.616-.763-.376-.661-.476-1.424-.304-2.161-.256-.199-.569-.322-.906-.322h-2.116c-.536 0-1.031.286-1.299.75l-1.059 1.834c-.268.464-.268 1.037 0 1.501l1.059 1.833zm4.714 12.166c-.268-.464-.763-.749-1.299-.749h-2.117c-.536 0-1.031.286-1.299.75l-1.059 1.833c-.268.464-.268 1.036 0 1.501l1.059 1.833c.268.464.763.75 1.299.75h2.116c.536 0 1.031-.286 1.299-.75l1.059-1.834c.268-.464.268-1.036 0-1.501l-1.059-1.833zm7.506-4.333c-.128-.221-.309-.399-.52-.527-.554.811-1.469 1.306-2.465 1.306-.672 0-1.307-.227-1.821-.622l-.968 1.676c-.268.464-.268 1.036 0 1.5l1.059 1.833c.268.464.763.75 1.299.75h2.116c.536 0 1.031-.286 1.299-.75l1.058-1.833c.268-.464.268-1.036 0-1.5l-1.058-1.834zm-15.012-8.667c-.268-.464-.763-.75-1.299-.75h-2.116c-.536 0-1.031.286-1.299.75l-1.058 1.833c-.268.464-.268 1.036 0 1.5l1.058 1.834c.268.464.763.75 1.299.75h2.117c.536 0 1.031-.286 1.299-.75l1.058-1.833c.268-.464.268-1.036 0-1.5l-1.059-1.833zm8.537 6.118c-1.191.217-2.47-.13-3.391-1.05-.431-.431-.722-.943-.904-1.485h-.152c-.536 0-1.031.286-1.299.75l-1.059 1.834c-.268.464-.268 1.036 0 1.501l1.059 1.833c.268.464.763.75 1.299.75h2.116c.536 0 1.031-.286 1.299-.75l1.059-1.834c.268-.464.268-1.036 0-1.501l-.028-.048z"/></svg>