<svg id="Layer_1" viewBox="0 0 24 24" xmlns="http://www.w3.org/2000/svg" data-name="Layer 1"><path d="m12 0c-6.617 0-12 5.383-12 12s5.383 12 12 12 12-5.383 12-12-5.383-12-12-12zm-10 12c0-2.398.85-4.6 2.262-6.324l14.063 14.063c-1.725 1.412-3.927 2.262-6.324 2.262-5.514 0-10-4.486-10-10zm17.738 6.324-1.438-1.438c.432-.529.699-1.186.699-1.887v-1c0-1.654-1.346-3-3-3h-1.242l.024-.189c.089-.711-.131-1.427-.606-1.964-.474-.538-1.158-.846-1.875-.846h-.543l.125-1h1.117c.552 0 1-.448 1-1s-.448-1-1-1h-1.117c-1.007 0-1.86.753-1.984 1.752l-.156 1.248h-.328l-3.738-3.738c1.725-1.412 3.927-2.262 6.324-2.262 5.514 0 10 4.486 10 10 0 2.398-.85 4.6-2.262 6.324zm-5.981-.324h-4.992c-1.51 0-2.79-1.13-2.977-2.628l-.57-4.562c-.052-.409.011-.817.155-1.194z"/></svg>