<svg id="Layer_1" viewBox="0 0 24 24" xmlns="http://www.w3.org/2000/svg" data-name="Layer 1"><path d="m5 7c0-.553.448-1 1-1h1v-2.161c0-1.71 1.086-3.23 2.704-3.785.523-.176 1.091.1 1.27.622s-.099 1.091-.622 1.271c-.809.276-1.352 1.037-1.352 1.893v2.161h1c.552 0 1 .447 1 1s-.448 1-1 1h-1v5c0 .553-.448 1-1 1s-1-.447-1-1v-5h-1c-.552 0-1-.447-1-1zm7.945 6.832c.454.304 1.078.186 1.387-.277l1.168-1.752 1.168 1.752c.308.463.933.581 1.387.277.459-.307.583-.927.277-1.387l-1.63-2.445 1.63-2.445c.306-.46.182-1.08-.277-1.387-.46-.307-1.081-.183-1.387.277l-1.168 1.752-1.168-1.752c-.306-.46-.928-.584-1.387-.277s-.583.927-.277 1.387l1.63 2.445-1.63 2.445c-.306.46-.182 1.08.277 1.387zm9.259-8.673c-.922-.771-2.073-1.169-3.287-1.148l-1.369-.01c.571.008 1.129.175 1.616.5 1.375.918 1.749 2.783.833 4.159l-.891 1.337.89 1.336c.917 1.377.543 3.242-.831 4.159-.498.331-1.072.505-1.664.505-.749 0-1.458-.279-2.001-.766-.544.487-1.252.766-2.001.766-.169 0-.335-.018-.499-.046v5.973c-.664.097-1.336.097-2 0v-5.924l-3-.004c-1.654 0-3-1.346-3-3v-3.184c-1.161-.414-2-1.514-2-2.816s.839-2.402 2-2.816v-.164c-1.162 0-2.295.384-3.204 1.143-1.142.953-1.796 2.352-1.796 3.838v8.791c0 2.417 1.727 4.486 4.105 4.919l6.285 1.143c.534.097 1.071.146 1.609.146s1.075-.048 1.609-.146l6.285-1.143c2.379-.433 4.105-2.502 4.105-4.919v-8.791c0-1.487-.654-2.886-1.796-3.838z"/></svg>