<svg id="Layer_1" viewBox="0 0 24 24" xmlns="http://www.w3.org/2000/svg" data-name="Layer 1"><path d="m24 7v1h-24v-1c0-2.757 2.243-5 5-5h1v-1c0-.552.448-1 1-1s1 .448 1 1v1h8v-1c0-.552.448-1 1-1s1 .448 1 1v1h1c2.757 0 5 2.243 5 5zm-9.5 8h-1.5v1c0 .553-.448 1-1 1s-1-.447-1-1v-1h-1.5c-.276 0-.5.225-.5.5v3c0 .275.224.5.5.5h5c.275 0 .5-.225.5-.5v-3c0-.275-.225-.5-.5-.5zm-14.5-5v9c0 2.757 2.243 5 5 5h14c2.757 0 5-2.243 5-5v-9zm17 8.5c0 1.379-1.121 2.5-2.5 2.5h-5c-1.378 0-2.5-1.121-2.5-2.5v-3c0-1.379 1.122-2.5 2.5-2.5h5c1.379 0 2.5 1.121 2.5 2.5z"/></svg>