<svg id="Layer_1" viewBox="0 0 24 24" xmlns="http://www.w3.org/2000/svg" data-name="Layer 1"><path d="m20 0h-4c-2.206 0-4 1.794-4 4v16c0 2.206 1.794 4 4 4h4c2.206 0 4-1.794 4-4v-16c0-2.206-1.794-4-4-4zm-1 19c0 .552-.447 1-1 1s-1-.448-1-1v-2c0-.552.447-1 1-1s1 .448 1 1zm0-6c0 .552-.447 1-1 1s-1-.448-1-1v-2c0-.552.447-1 1-1s1 .448 1 1zm0-6c0 .552-.447 1-1 1s-1-.448-1-1v-2c0-.552.447-1 1-1s1 .448 1 1zm-9-2h-2.5v-3h2.85c.265-.746.672-1.422 1.19-2h-7.04c-2.481 0-4.5 2.019-4.5 4.5v5.501c0 1.473.867 2.829 2.264 3.539 1.688.858 2.736 2.567 2.736 4.46v5c0 .553.448 1 1 1s1-.447 1-1v-5c0-2.046 1.236-3.806 3-4.58zm-4.5 0h-3.5v-.5c0-1.378 1.122-2.5 2.5-2.5h1z"/></svg>