<?xml version="1.0" encoding="UTF-8"?>
<svg xmlns="http://www.w3.org/2000/svg" id="Layer_1" data-name="Layer 1" viewBox="0 0 24 24">
  <path d="M17,13.5v.295c0,1.061-1.912,2.205-5,2.205s-5-1.145-5-2.205v-.295c0-1.495,2.009-2.5,5-2.5s5,1.005,5,2.5Zm-5,6.5c3.248,0,5-1.03,5-2v-1.149c-1.232,.726-2.963,1.149-5,1.149s-3.768-.423-5-1.149v1.149c0,.97,1.752,2,5,2Zm0,2c-2.074,0-3.786-.376-5-1.04v.634c0,1.11,1.31,2.407,5,2.407s5-1.296,5-2.407v-.634c-1.214,.665-2.926,1.04-5,1.04ZM17.974,5.142c-.332-.066-.603-.273-.742-.569C15.68,1.301,12.089-.527,8.497,.134,5.225,.734,2.66,3.346,2.113,6.635c-.162,.971-.15,1.943,.033,2.89,.06,.309-.073,.653-.346,.901-1.145,1.041-1.801,2.524-1.801,4.07,0,2.863,2.201,5.221,5,5.475v-6.62l.003,.002c.085-2.042,1.952-4.353,6.997-4.353s6.912,2.312,6.997,4.353l.003-.002v6.208c2.908-1.033,5-3.804,5-7.062,0-3.565-2.534-6.658-6.026-7.354Z"/>
</svg>
