<svg id="Layer_1" viewBox="0 0 24 24" xmlns="http://www.w3.org/2000/svg" data-name="Layer 1"><path d="m8.681 6.958-4.687 5.572c-.36.372-.881.542-1.391.455-1.018-.174-1.592-1.267-1.159-2.204l1.377-2.781h-.897c-.614 0-1.177-.283-1.543-.776s-.475-1.115-.297-1.703l1.605-4.174c.278-.806 1.037-1.347 1.89-1.347h1.921c1.036 0 1.761 1.026 1.413 2.003l-.913 1.997h1.094c.703 0 1.347.385 1.679 1.005.332.619.297 1.368-.092 1.953zm11.119-2.54c-2.438-3.255-6.311-4.866-10.347-4.312-.235.032-.465.08-.696.127.268.694.317 1.461.117 2.187.694.355 1.279.918 1.662 1.633.681 1.27.608 2.804-.189 4.004l-4.917 5.857c-.678.7-1.605 1.086-2.563 1.086-.912.01-1.81-.378-2.448-.999.374 1.319.993 2.566 1.841 3.674.477.623.739 1.458.739 2.354v.971c0 1.654 1.346 3 3 3h7c1.654 0 3-1.346 3-3h.494c2.498 0 4.629-1.868 4.957-4.344l.219-1.656h.33c1.299 0 2-1.03 2-2 0-1.419-2.932-7.014-4.199-8.582z"/></svg>