<svg id="Layer_1" viewBox="0 0 24 24" xmlns="http://www.w3.org/2000/svg" data-name="Layer 1"><path d="m6 2c-3.314 0-6 2.686-6 6s2.686 6 6 6 6-2.686 6-6-2.686-6-6-6zm-1 3c0-.553.448-1 1-1s1 .447 1 1v2c0 .553-.448 1-1 1s-1-.447-1-1zm1 7c-.828 0-1.5-.672-1.5-1.5s.672-1.5 1.5-1.5 1.5.672 1.5 1.5-.672 1.5-1.5 1.5zm12-1v6c0 2.757-2.243 5-5 5h-8c-2.757 0-5-2.243-5-5v-3.721c1.466 1.665 3.607 2.721 6 2.721 4.418 0 8-3.582 8-8 0-.664-.09-1.306-.243-1.923 2.396.369 4.243 2.426 4.243 4.923zm6-.687v7.319c.024 1.073-.922 2.003-1.985 1.986-.421 0-.837-.135-1.189-.399-.037-.028-.825-.81-.825-.81v-8.865s.786-.789.825-.818c.604-.454 1.399-.527 2.078-.188s1.097 1.018 1.097 1.775z"/></svg>