<svg id="Layer_1" viewBox="0 0 24 24" xmlns="http://www.w3.org/2000/svg" data-name="Layer 1"><path d="m16.465 14.684-2.616-2.047c-1.086-.85-2.611-.85-3.697 0l-2.616 2.047c-.969.758-1.535 1.92-1.535 3.15v3.165c0 1.657 1.343 3 3 3h6c1.657 0 3-1.343 3-3v-3.165c0-1.23-.566-2.392-1.535-3.15zm-2.965 4.316c0 .552-.448 1-1 1h-1c-.552 0-1-.448-1-1v-1c0-.552.448-1 1-1h1c.552 0 1 .448 1 1zm9.5-16h-8v-.5c0-1.378-1.121-2.5-2.5-2.5h-1c-1.379 0-2.5 1.122-2.5 2.5v.5h-8c-.553 0-1 .448-1 1s.447 1 1 1h8.032c.074.676.359 1.305.847 1.793l1.121 1.121v1.086c0 .552.447 1 1 1s1-.448 1-1v-1.086l1.121-1.121c.488-.488.773-1.117.847-1.793h8.032c.553 0 1-.448 1-1s-.447-1-1-1z"/></svg>