<svg id="Layer_1" viewBox="0 0 24 24" xmlns="http://www.w3.org/2000/svg" data-name="Layer 1"><path d="m23.707 22.293c.391.391.391 1.023 0 1.414s-1.023.391-1.414 0l-3.293-3.293-3.293 3.293c-.391.391-1.023.391-1.414 0s-.391-1.023 0-1.414l3.293-3.293-3.293-3.293c-.391-.391-.391-1.023 0-1.414s1.023-.391 1.414 0l3.293 3.293 3.293-3.293c.391-.391 1.023-.391 1.414 0s.391 1.023 0 1.414l-3.293 3.293zm-11.568 1.561c-.371.088-.752.146-1.15.146h-5.989c-2.761 0-5-2.239-5-5v-14.003c0-2.76 2.237-4.997 4.997-4.997h5.996c2.76 0 4.997 2.237 4.997 4.997v7.183c-1.054-.368-2.271-.141-3.111.699-1.17 1.17-1.17 3.072 0 4.242l1.878 1.879-1.878 1.879c-.805.805-1.042 1.954-.739 2.975zm-5.144-5.854c0-.552-.447-1-.999-1h-.999c-.552 0-.999.448-.999 1s.447 1 .999 1h.999c.552 0 .999-.448.999-1zm0-4c0-.552-.447-1-.999-1h-.999c-.552 0-.999.448-.999 1s.447 1 .999 1h.999c.552 0 .999-.448.999-1zm0-4c0-.552-.447-1-.999-1h-.999c-.552 0-.999.448-.999 1s.447 1 .999 1h.999c.552 0 .999-.448.999-1zm0-4c0-.552-.447-1-.999-1h-.999c-.552 0-.999.448-.999 1s.447 1 .999 1h.999c.552 0 .999-.448.999-1zm4.997 12c0-.552-.447-1-.999-1h-.999c-.552 0-.999.448-.999 1s.447 1 .999 1h.999c.552 0 .999-.448.999-1zm0-4c0-.552-.447-1-.999-1h-.999c-.552 0-.999.448-.999 1s.447 1 .999 1h.999c.552 0 .999-.448.999-1zm0-4c0-.552-.447-1-.999-1h-.999c-.552 0-.999.448-.999 1s.447 1 .999 1h.999c.552 0 .999-.448.999-1zm0-4c0-.552-.447-1-.999-1h-.999c-.552 0-.999.448-.999 1s.447 1 .999 1h.999c.552 0 .999-.448.999-1z"/></svg>