<svg id="Layer_1" viewBox="0 0 24 24" xmlns="http://www.w3.org/2000/svg" data-name="Layer 1"><path d="m5.183 5.975-1.476 1.475c-.391.391-1.023.391-1.414 0s-.391-1.024 0-1.414l1.036-1.035h-2.329c-.552 0-1-.448-1-1s.448-1 1-1h2.328l-1.035-1.035c-.391-.39-.391-1.023 0-1.414.39-.391 1.023-.391 1.414 0l1.475 1.475c1.088 1.089 1.088 2.86 0 3.949zm17.817-2.975h-2.328l1.035-1.035c.391-.391.391-1.023 0-1.414s-1.023-.391-1.414 0l-1.475 1.475c-1.089 1.089-1.089 2.86 0 3.949l1.475 1.475c.391.391 1.023.391 1.414 0s.391-1.023 0-1.414l-1.035-1.035h2.328c.553 0 1-.448 1-1s-.447-1-1-1zm-11 5c2.206 0 4-1.794 4-4s-1.794-4-4-4-4 1.794-4 4 1.794 4 4 4zm7.829 10.753-5.829-1.753v-4.893c0-.996-.681-1.92-1.664-2.08-1.253-.204-2.336.758-2.336 1.973v8.817c-1.076-.886-2.111-1.752-2.145-1.784-.922-.861-2.373-.813-3.235.109-.863.923-.819 2.372.098 3.23l1.821 1.628h16.462v-.593c0-2.055-1.258-3.901-3.171-4.653z"/></svg>