<svg id="Layer_1" viewBox="0 0 24 24" xmlns="http://www.w3.org/2000/svg" data-name="Layer 1"><path d="m0 14v5c0 2.757 2.243 5 5 5h14c2.757 0 5-2.243 5-5v-5zm7 7c0 .553-.448 1-1 1s-1-.447-1-1v-4c0-.553.448-1 1-1s1 .447 1 1zm12 0c0 .553-.448 1-1 1s-1-.447-1-1v-4c0-.553.448-1 1-1s1 .447 1 1zm-12.001-15.958v-4.203c0-.329.185-.618.483-.757.274-.124.598-.107.81.045.035.025 1.448 1.866 1.448 1.866l1.359-1.602c.506-.506 1.282-.518 1.754-.05l1.427 1.65 1.223-1.662c.242-.296.608-.399.942-.28.337.122.553.429.553.785v4.222c0 1.238-1.001 1.944-1.948 1.944l-6.111-.014c-1.07-.003-1.94-.875-1.94-1.944zm17.001 4.958v2h-5v-2c0-.552-.448-1-1-1s-1 .448-1 1v2h-10v-2c0-.552-.448-1-1-1s-1 .448-1 1v2h-5v-2c0-2.757 2.243-5 5-5-.024 2.184 1.751 3.982 3.936 3.986l6.115.014c1.958.007 3.985-1.519 3.948-4 2.757 0 5 2.243 5 5z"/></svg>