<svg id="Layer_1" viewBox="0 0 24 24" xmlns="http://www.w3.org/2000/svg" data-name="Layer 1"><path d="m23.215 21.55-4.808-8.242c-.629-1.078-2.186-1.078-2.814 0l-4.808 8.242c-.633 1.086.15 2.45 1.407 2.45h9.615c1.257 0 2.041-1.364 1.407-2.45zm-6.215 1.45c-.552 0-1-.448-1-1s.448-1 1-1 1 .448 1 1-.448 1-1 1zm1-4c0 .552-.448 1-1 1s-1-.448-1-1v-2.002c0-.552.448-1 1-1s1 .448 1 1zm-8.942 1.542c-.538.922-.634 1.99-.304 2.97-4.49-1.385-7.753-5.567-7.753-10.512 0-2.885 1.12-5.503 2.937-7.465l-.669-.743c-.371.136-.795.208-1.268.208-.552 0-1-.448-1-1s.448-1 1-1c.785 0 1-.215 1-1 0-.552.448-1 1-1s1 .448 1 1c0 .541-.103 1.01-.28 1.417l.703.781c1.585-1.186 3.494-1.959 5.577-2.147v-1.051c0-.552.448-1 1-1s1 .448 1 1v1.05c2.083.188 3.992.961 5.577 2.147l.703-.781c-.177-.407-.28-.876-.28-1.417 0-.552.448-1 1-1s1 .448 1 1c0 .785.215 1 1 1 .552 0 1 .448 1 1s-.448 1-1 1c-.473 0-.897-.072-1.268-.208l-.669.743c1.817 1.962 2.937 4.579 2.937 7.465 0 1.161-.182 2.278-.516 3.329l-2.35-4.028c-.658-1.127-1.83-1.801-3.135-1.801s-2.477.673-3.135 1.801l-.005.009c-.164-.434-.463-.802-.86-1.033v-4.276c0-.552-.448-1-1-1s-1 .448-1 1v4.277c-.595.346-1 .984-1 1.723 0 1.105.895 2 2 2 .106 0 .207-.015.309-.031z"/></svg>