<svg id="Layer_1" viewBox="0 0 24 24" xmlns="http://www.w3.org/2000/svg" data-name="Layer 1"><path d="m7 6.5c0 .275-.224.5-.5.5h-.5v-1h.5c.276 0 .5.225.5.5zm10.83 12.254-5.829-2.292v-4.355h-.001c0-.996-.681-1.92-1.664-2.08-1.253-.204-2.336.758-2.336 1.973v8.817c-1.076-.886-2.111-1.752-2.145-1.784-.922-.861-2.373-.813-3.235.109-.863.923-.819 2.372.098 3.23l1.821 1.628h16.462v-.593c0-2.055-1.258-3.901-3.171-4.653zm6.17-14.254v2c0 2.481-2.019 4.5-4.5 4.5h-5.65c-.415-1.506-1.651-2.696-3.193-2.947-1.168-.188-2.353.138-3.248.899-.635.541-1.078 1.257-1.282 2.047h-1.627c-2.481 0-4.5-2.019-4.5-4.5v-2c0-2.48 2.019-4.499 4.5-4.499h15c2.481 0 4.5 2.019 4.5 4.5zm-16.383 1c.238-.266.383-.616.383-1 0-.827-.673-1.5-1.5-1.5h-.5c-.551 0-1 .448-1 1v3c0 .552.449 1 1 1h.5c.827 0 1.5-.673 1.5-1.5 0-.384-.145-.734-.383-1zm2.383-.5v-1h.808c.276 0 .5-.224.5-.5s-.224-.5-.5-.5h-.808c-.551 0-1 .448-1 1v3c0 .552.449 1 1 1h.808c.276 0 .5-.224.5-.5s-.224-.5-.5-.5h-.808v-1h.808c.276 0 .5-.224.5-.5s-.224-.5-.5-.5zm5-1.5c0-.276-.224-.5-.5-.5h-2c-.276 0-.5.224-.5.5s.224.5.5.5h.5v3.5c0 .276.224.5.5.5s.5-.224.5-.5v-3.5h.5c.276 0 .5-.224.5-.5zm4 1c0-.827-.673-1.5-1.5-1.5s-1.5.673-1.5 1.5v3c0 .276.224.5.5.5s.5-.224.5-.5v-1h1v1c0 .276.224.5.5.5s.5-.224.5-.5zm-1.5-.5c-.276 0-.5.225-.5.5v1h1v-1c0-.275-.224-.5-.5-.5zm-11 0h-.5v1h.5c.276 0 .5-.225.5-.5s-.224-.5-.5-.5z"/></svg>