<svg id="Layer_1" viewBox="0 0 24 24" xmlns="http://www.w3.org/2000/svg" data-name="Layer 1"><path d="m16.5 6c0-.46-.089-.895-.218-1.313l.55-.317c.478-.276.643-.887.367-1.365-.276-.479-.887-.643-1.366-.368l-.544.314c-.605-.652-1.393-1.125-2.289-1.33v-.621c0-.552-.448-1-1-1-.552 0-1 .448-1 1v.621c-.896.205-1.685.678-2.289 1.33l-.544-.314c-.479-.276-1.09-.111-1.366.368-.276.479-.111 1.09.367 1.366l.55.317c-.129.418-.218.853-.218 1.313s.089.895.218 1.313l-.55.317c-.478.276-.643.887-.367 1.365.276.479.887.643 1.366.368l.544-.314c.605.652 1.393 1.125 2.289 1.33v.621c0 .552.448 1 1 1 .552 0 1-.448 1-1v-.621c.896-.205 1.685-.678 2.289-1.33l.544.314c.479.276 1.09.111 1.366-.368.276-.479.111-1.09-.367-1.366l-.55-.317c.129-.418.218-.853.218-1.313zm-4.164 1.75-1.043-1.043c-.188-.188-.293-.442-.293-.707v-1.5c0-.552.448-1 1-1 .552 0 1 .448 1 1v1.086l.75.75c.39.39.39 1.024 0 1.414-.39.39-1.024.39-1.414 0zm6.099 7.937-2.487 2.532c-.122-1.225-.669-2.378-1.587-3.212l-.874-.794 1.813-1.646c1.017-.923 2.668-.721 3.407.533.48.815.331 1.858-.272 2.586zm4.065-10.687c-.828 0-1.5.672-1.5 1.5v7.5h-.011c.05 1.022-.267 2.061-.956 2.893l-4.033 4.088v2.019c0 .552.448 1 1 1h3.309c.281 0 .549-.118.738-.326l.598-.654c1.515-1.659 2.355-3.824 2.355-6.07v-10.45c0-.828-.672-1.5-1.5-1.5zm-9.483 11.487-4.317-3.92c-1.017-.923-2.668-.721-3.407.533-.48.815-.331 1.858.272 2.586l2.548 2.573c.384.388.383 1.014-.003 1.4-.389.389-1.02.387-1.407-.004l-2.735-2.763c-.689-.832-1.005-1.871-.956-2.893h-.011v-7.499c0-.828-.672-1.5-1.5-1.5s-1.5.672-1.5 1.5v10.45c0 2.246.84 4.412 2.355 6.07l.598.654c.189.207.457.326.738.326h9.308c.552 0 1-.448 1-1v-4.292c0-.846-.357-1.652-.983-2.221z"/></svg>