<svg id="Layer_1" viewBox="0 0 24 24" xmlns="http://www.w3.org/2000/svg" data-name="Layer 1"><path d="m24 4v2.988c0 1.103-.897 2-2 2l-2.996.012h-.004c-.551 0-.998-.445-1-.996-.002-.552.443-1.002.996-1.004l1.666-.007c-1.766-3.075-5.024-4.993-8.662-4.993-5.15 0-9.541 3.993-10 9.09-.048.552-.544.957-1.086.906-.55-.05-.956-.536-.906-1.086.551-6.118 5.816-10.91 11.992-10.91 4.108 0 7.809 2.042 9.998 5.359l.002-1.359c0-.552.447-1 1-1s1 .448 1 1zm-.914 8.004c-.544-.043-1.036.356-1.086.906-.459 5.097-4.85 9.09-10 9.09-3.583 0-6.857-1.938-8.633-4.994l1.637-.006c.553-.002.998-.452.996-1.004-.002-.551-.449-.996-1-.996h-.004l-2.996.012c-1.103 0-2 .897-2 2v2.988c0 .552.447 1 1 1s1-.448 1-1l.002-1.372c2.2 3.313 5.942 5.372 9.998 5.372 6.176 0 11.441-4.792 11.992-10.91.05-.55-.356-1.036-.906-1.086zm-11.086 5.996c-3.314 0-6-2.686-6-6s2.686-6 6-6 6 2.686 6 6-2.686 6-6 6zm-.674-3.003c.602 0 1.201-.225 1.653-.671l2.703-2.614c.398-.383.411-1.016.029-1.414-.383-.399-1.017-.41-1.414-.029l-2.713 2.624c-.143.141-.379.144-.522.002l-1.354-1.331c-.396-.388-1.028-.381-1.414.014-.387.395-.381 1.027.014 1.414l1.354 1.332c.46.449 1.062.674 1.663.674z"/></svg>