<svg id="Layer_1" viewBox="0 0 24 24" xmlns="http://www.w3.org/2000/svg" data-name="Layer 1"><path d="m19.007 7.178c-1.409-1.088-3.007-2.321-3.007-3.178 0-1.673 1.65-2 4.5-2h2.5c.553 0 1-.448 1-1s-.447-1-1-1h-4.038c-2.462 0-13.962.777-13.962 5.5 0 1.712 1.049 2.843 1.892 3.752.594.642 1.108 1.195 1.108 1.748 0 1.337-.981 2.077-2.715 3.269-2.23 1.534-5.285 3.633-5.285 8.731 0 .552.448 1 1 1h19c.544 0 .988-.435 1-.979 0-.005.013-.668.039-.913.165-1.511.84-2.704 1.492-3.857.723-1.276 1.469-2.596 1.469-4.251 0-2.969-2.652-5.016-4.993-6.822zm-10.34-1.121c.519-.184 1.092.089 1.275.609.265.748 1.169 1.333 2.058 1.333s1.793-.586 2.058-1.333c.141-.399.519-.667.942-.667s.802.267.942.667c.192.543.716 1.011 1.366 1.222.525.17.812.734.643 1.259s-.73.814-1.26.643c-.652-.211-1.232-.563-1.695-1.012-.778.751-1.87 1.222-2.996 1.222-1.738 0-3.396-1.122-3.942-2.667-.185-.521.088-1.092.609-1.276zm10.284 15.09c-.17.525-.731.815-1.26.643-.652-.211-1.232-.563-1.695-1.012-.778.751-1.87 1.222-2.996 1.222s-2.222-.472-3-1.225c-.778.753-1.872 1.225-3 1.225-1.239 0-2.458-.56-3.26-1.497-.359-.419-.31-1.051.109-1.41.42-.359 1.051-.31 1.41.109.421.492 1.088.798 1.741.798.889 0 1.793-.586 2.058-1.333.141-.399.519-.667.942-.667s.802.267.942.667c.265.748 1.169 1.333 2.058 1.333s1.793-.586 2.058-1.333c.141-.399.519-.667.942-.667s.802.267.942.667c.192.543.716 1.011 1.366 1.222.525.17.812.734.643 1.259zm3-6c-.17.525-.729.816-1.26.643-.652-.211-1.232-.563-1.695-1.012-.778.751-1.87 1.222-2.996 1.222s-2.222-.472-3-1.225c-.778.753-1.872 1.225-3 1.225-.221 0-.44-.018-.658-.053-.545-.087-.916-.6-.829-1.145s.594-.919 1.146-.83c.112.018.227.027.342.027.889 0 1.793-.586 2.058-1.333.141-.399.519-.667.942-.667s.802.267.942.667c.265.748 1.169 1.333 2.058 1.333s1.793-.586 2.058-1.333c.141-.399.519-.667.942-.667s.802.267.942.667c.192.543.716 1.011 1.366 1.222.525.17.812.734.643 1.259z"/></svg>