<svg id="Layer_1" viewBox="0 0 24 24" xmlns="http://www.w3.org/2000/svg" data-name="Layer 1"><path d="m17.896 7.748-.603-.603c-.187-.187-.293-.444-.293-.707v-4.438c.553 0 1-.448 1-1s-.447-1-1-1h-10c-.553 0-1 .448-1 1s.447 1 1 1v4.438c0 .263-.106.521-.293.707l-.603.603c-2.002 2.002-3.104 4.664-3.104 7.495v3.757c0 2.757 2.243 5 5 5h8c2.757 0 5-2.243 5-5v-3.757c0-2.831-1.103-5.493-3.104-7.495zm-.614 10.989-1.545 1.544c-.461.463-1.078.719-1.736.719s-1.275-.256-1.737-.72l-1.544-1.543c-.479-.479-.718-1.108-.718-1.737h-.572c-1.338-.001-2.427-1.09-2.429-2.426v-2.146c0-.646.253-1.256.712-1.716.459-.459 1.068-.712 1.716-.712h2.146c.646 0 1.256.252 1.715.711s.712 1.069.712 1.717v.595c.637 0 1.273.232 1.737.696l1.544 1.543c.957.958.957 2.516 0 3.474zm-1.414-2.06c.178.178.178.468 0 .646l-1.546 1.545c-.218.191-.413.215-.644 0l-1.545-1.544c-.099-.099-.143-.232-.132-.362.486-.086.933-.318 1.288-.675.356-.355.586-.8.672-1.284.105-.004.221.002.361.132l1.545 1.543zm-3.867-2.177v-2c0-.276-.224-.5-.5-.5h-2c-.276 0-.5.224-.5.5v2c0 .276.224.5.5.5h2c.276 0 .5-.224.5-.5z"/></svg>