<svg id="Layer_1" viewBox="0 0 24 24" xmlns="http://www.w3.org/2000/svg" data-name="Layer 1"><path d="m12 24c4.386 0 8.226-2.366 10.317-5.888 2.064-3.477 1.765-7.95-1.197-10.703-1.607-1.494-3.758-2.408-6.12-2.408-3.309 0-6 2.691-6 6 0 2.206 1.794 4 4 4 1.654 0 3-1.346 3-3 0-.365-.106-.704-.278-.999-.347.595-.984.999-1.722.999-1.105 0-2-.895-2-2s.895-2 2-2c2.165.046 4.01 1.771 4 4 0 2.757-2.243 5-5 5-3.309 0-6-2.691-6-6 0-4.411 3.589-8 8-8 2.75 0 5.261 1.021 7.191 2.695-2.118-3.412-5.888-5.696-10.191-5.696-6.617 0-12 5.383-12 12s5.383 12 12 12zm0-2c-5.514 0-10-4.486-10-10 0-4.178 2.577-7.761 6.224-9.254-.199.605-1.04 3.071-1.724 3.754-.345.345-1.066.871-1.764 1.352-.551.38-.765 1.093-.497 1.707.379.868.762 1.882.762 2.441 0 .457-.256 1.219-.557 1.956-.283.693.024 1.492.708 1.797.697.31 1.414.712 1.899 1.197s.887 1.202 1.197 1.899c.304.684 1.104.991 1.797.708.737-.301 1.5-.557 1.956-.557.558 0 1.573.383 2.441.762.613.268 1.327.054 1.707-.497.481-.698 1.008-1.42 1.352-1.764.683-.683 3.149-1.524 3.754-1.724-1.494 3.646-5.077 6.224-9.254 6.224z"/></svg>