<svg id="Layer_1" viewBox="0 0 24 24" xmlns="http://www.w3.org/2000/svg" data-name="Layer 1"><path d="m22 13v2h-2c-.552 0-1 .447-1 1s.448 1 1 1h2c0 2.757-2.243 5-5 5v-2c0-.553-.448-1-1-1s-1 .447-1 1v2h-2v-2c0-.553-.448-1-1-1s-1 .447-1 1v2h-2v-2c0-.553-.448-1-1-1s-1 .447-1 1v2c-2.757 0-5-2.243-5-5h2c.552 0 1-.447 1-1s-.448-1-1-1h-2v-2h2c.552 0 1-.447 1-1s-.448-1-1-1h-2v-2h2c.552 0 1-.447 1-1s-.448-1-1-1h-2c0-2.757 2.243-5 5-5v2c0 .553.448 1 1 1s1-.447 1-1v-2h2v2c0 .553.448 1 1 1s1-.447 1-1v-2h2v2c0 .553.448 1 1 1s1-.447 1-1v-2c2.757 0 5 2.243 5 5h-2c-.552 0-1 .447-1 1s.448 1 1 1h2v2h-2c-.552 0-1 .447-1 1s.448 1 1 1zm-21 2c-.552 0-1 .447-1 1s.448 1 1 1h1v-2zm0-8c-.552 0-1 .447-1 1s.448 1 1 1h1v-2zm0 4c-.552 0-1 .447-1 1s.448 1 1 1h1v-2zm22 6c.552 0 1-.447 1-1s-.448-1-1-1h-1v2zm0-8c.552 0 1-.447 1-1s-.448-1-1-1h-1v2zm0 4c.552 0 1-.447 1-1s-.448-1-1-1h-1v2zm-14-12c0-.553-.448-1-1-1s-1 .447-1 1v1h2zm8 0c0-.553-.448-1-1-1s-1 .447-1 1v1h2zm-4 0c0-.553-.448-1-1-1s-1 .447-1 1v1h2zm-2 22c0 .553.448 1 1 1s1-.447 1-1v-1h-2zm4 0c0 .553.448 1 1 1s1-.447 1-1v-1h-2zm-8 0c0 .553.448 1 1 1s1-.447 1-1v-1h-2z"/></svg>