<svg id="Layer_1" viewBox="0 0 24 24" xmlns="http://www.w3.org/2000/svg" data-name="Layer 1"><path d="m24 9c0 1.105-.895 2-2 2-.738 0-1.376-.405-1.723-1h-1.277c-1.654 0-3-1.346-3-3h-3c-.552 0-1-.447-1-1s.448-1 1-1h3c0-1.654 1.346-3 3-3h1.277c.346-.595.984-1 1.723-1 1.105 0 2 .895 2 2s-.895 2-2 2c-.738 0-1.376-.405-1.723-1h-1.277c-.552 0-1 .448-1 1v2c0 .552.448 1 1 1h1.277c.346-.595.984-1 1.723-1 1.105 0 2 .895 2 2zm-23.33-1.366.549-.317c-.129-.419-.219-.856-.219-1.317s.09-.897.219-1.317l-.549-.317c-.478-.276-.642-.888-.366-1.366.276-.479.886-.644 1.366-.366l.544.314c.604-.65 1.392-1.122 2.286-1.327v-.621c0-.553.448-1 1-1s1 .447 1 1v.621c.895.204 1.682.677 2.286 1.327l.544-.314c.478-.277 1.09-.113 1.366.366s.113 1.09-.366 1.366l-.549.317c.129.419.219.855.219 1.316s-.09.897-.219 1.316l.549.317c.479.276.642.888.366 1.366-.277.483-.896.639-1.366.366l-.544-.314c-.604.65-1.392 1.122-2.286 1.327v.621c0 .553-.448 1-1 1s-1-.447-1-1v-.621c-.894-.204-1.682-.677-2.286-1.327l-.544.314c-.47.273-1.088.116-1.366-.366-.276-.479-.112-1.09.366-1.366zm3.33-1.634c0 .827.673 1.5 1.5 1.5s1.5-.673 1.5-1.5-.673-1.5-1.5-1.5-1.5.673-1.5 1.5zm17.274 6.003c-.697.032-1.339.334-1.794.835l-3.541 3.737c.032.21.065.42.065.638 0 2.083-1.555 3.876-3.617 4.17l-4.252.596c-.547.078-1.053-.302-1.131-.848-.078-.547.302-1.053.848-1.131l4.162-.583c.936-.134 1.748-.806 1.94-1.732.296-1.425-.79-2.685-2.164-2.685h-8.787c-1.657 0-3 1.343-3 3v3c0 1.657 1.343 3 3 3h9.806c2.244 0 4.384-.942 5.9-2.597l4.633-5.058c.948-1.062.862-2.707-.189-3.665-.515-.469-1.186-.712-1.878-.678z"/></svg>