<svg id="Layer_1" viewBox="0 0 24 24" xmlns="http://www.w3.org/2000/svg" data-name="Layer 1"><path d="m7 24h-4c-.552 0-1-.448-1-1v-7.833c0-.635-.236-1.208-.632-1.532-1.05-.862-1.541-2.18-1.313-3.53.259-1.536 1.519-2.791 3.063-3.052.68-.116 1.358-.043 1.983.203.908-.975 2.238-1.438 3.609-1.194 1.623.283 2.951 1.614 3.229 3.236.232 1.349-.239 2.72-1.258 3.669-.371.346-.796.609-1.263.781-.861.317-1.418 1.045-1.418 1.854v7.396c0 .552-.448 1-1 1zm16.344-21.028c-.27-1.722-1.736-2.972-3.486-2.972-1.133 0-2.13.197-3.049.601-1.994.877-4.097.46-5.509-.044-1.035-.369-2.121-.557-3.229-.557-4.092 0-5.768 2.694-6.029 5.27.816-.273 1.707-.334 2.553-.207 1.282-.893 2.876-1.251 4.465-.97 2.435.425 4.433 2.427 4.851 4.867.347 2.015-.351 4.061-1.866 5.472-.588.57-1.304.946-2.044 1.251v.776l4.752 5.788c.954 1.114 2.343 1.753 3.811 1.753 2.522 0 4.663-1.877 4.979-4.368.305-2.413.459-4.981.459-7.632 0-3.996-.357-7.115-.656-9.028z"/></svg>