<svg id="Layer_1" viewBox="0 0 24 24" xmlns="http://www.w3.org/2000/svg" data-name="Layer 1"><path d="m23.952 21.546c-.259 1.46-1.643 2.454-3.126 2.454h-1.325c-.828 0-1.5-.672-1.5-1.5v-3c0-.652.419-1.202 1-1.408v-1.092c0-1.654-1.346-3-3-3s-3 1.346-3 3v1.092c.581.207 1 .756 1 1.408v3c0 .828-.672 1.5-1.5 1.5h-1.325c-1.483 0-2.867-.994-3.126-2.454-.336-1.893 1.119-3.546 2.951-3.546v-1c0-2.757 2.243-5 5-5s5 2.243 5 5v1c1.833 0 3.287 1.653 2.951 3.546zm-8.952-19.546c3.859 0 7 3.14 7 7 0 .552.447 1 1 1s1-.448 1-1c0-4.962-4.037-9-9-9-.553 0-1 .448-1 1s.447 1 1 1zm0 8c.552 0 1-.448 1-1s-.448-1-1-1-1 .448-1 1 .448 1 1 1zm0-4c1.654 0 3 1.346 3 3 0 .552.447 1 1 1s1-.448 1-1c0-2.757-2.243-5-5-5-.553 0-1 .448-1 1s.447 1 1 1zm-7.988 12h-7.012v1c0 2.757 2.243 5 5 5h2.034c-.471-.607-.815-1.315-.955-2.105-.245-1.384.098-2.786.932-3.895zm5.645-7.148c-.405-.511-.657-1.149-.657-1.852v-8c0-.552-.448-1-1-1h-6c-2.761 0-5 2.239-5 5v11h9.08c.32-2.222 1.68-4.112 3.577-5.148z"/></svg>