<svg id="Layer_1" viewBox="0 0 24 24" xmlns="http://www.w3.org/2000/svg" data-name="Layer 1"><path d="m21.414 5h-4.414v-4.414zm-12.106 8.983h-.708v-1.383h.708c.381 0 .692.31.692.692s-.31.692-.692.692zm12.692-6.983v17h-20v-21c0-1.657 1.343-3 3-3h10v7zm-10 9.5c0-.743-.331-1.404-.846-1.862.277-.379.446-.842.446-1.347 0-1.266-1.026-2.292-2.292-2.292h-2.308v8h2.5c1.381 0 2.5-1.119 2.5-2.5zm6-2.3h-1.2v-1.2h-1.6v1.2h-1.2v1.6h1.2v1.2h1.6v-1.2h1.2zm-8.5 1.4h-.9v1.8h.9c.496 0 .9-.404.9-.9s-.404-.9-.9-.9z"/></svg>