<svg id="Layer_1" viewBox="0 0 24 24" xmlns="http://www.w3.org/2000/svg" data-name="Layer 1"><path d="m17.575 6.128c-.414-.249-.47-.827-.137-1.176.307-.321.544-.611.665-.795.814-1.238.47-2.901-.768-3.715-1.04-.683-2.639-.55-3.524.243-.482-.425-1.116-.684-1.811-.684s-1.329.259-1.812.685c-.885-.794-2.484-.927-3.524-.243-1.238.814-1.582 2.477-.768 3.715.118.18.375.468.683.781.343.349.292.934-.128 1.186-3.872 2.322-6.451 6.928-6.451 11.588 0 6.627 5.373 6.285 12 6.285s12 .342 12-6.285c0-4.659-2.558-9.262-6.425-11.585zm-6.792 3.603c-.395.718-1.297.98-2.014.585-.718-.395-.98-1.297-.585-2.014.213-.388.993-.907 1.665-1.302.497-.292 1.123.052 1.142.628.026.779.005 1.716-.208 2.103zm4.448.585c-.718.395-1.62.133-2.014-.585-.213-.388-.234-1.325-.208-2.103.019-.576.646-.92 1.142-.628.672.395 1.452.914 1.665 1.302.395.718.133 1.62-.585 2.014z"/></svg>