<svg id="Layer_1" viewBox="0 0 24 24" xmlns="http://www.w3.org/2000/svg" data-name="Layer 1"><path d="m9 2v8.092c-1.647.29-3.095 1.27-4 2.661v-7.753c0-1.654 1.346-3 3-3zm13 8h-11v-7c0-1.657 1.343-3 3-3h5c1.657 0 3 1.343 3 3zm-7-6.5c0 .828.672 1.5 1.5 1.5s1.5-.672 1.5-1.5-.672-1.5-1.5-1.5-1.5.672-1.5 1.5zm3.776 3.781c-.42-.759-1.279-1.281-2.276-1.281s-1.856.521-2.276 1.281c-.182.329.097.719.502.719h3.548c.405 0 .685-.39.502-.719zm2.659 4.722h-11.411c-1.758 0-3.335 1.177-3.834 2.862l-2.818 8.84c.513.178 1.055.295 1.628.295h12.558c2.226 0 4.15-1.432 4.802-3.607l1.524-5.114c.524-1.566-.793-3.356-2.448-3.276zm-18.435-7.003c0-.304.038-.598.09-.886-1.769.413-3.09 1.992-3.09 3.886v11c0 1.439.62 2.729 1.597 3.642l1.403-4.377z"/></svg>