<?xml version="1.0" encoding="UTF-8"?>
<svg xmlns="http://www.w3.org/2000/svg" id="Layer_1" data-name="Layer 1" viewBox="0 0 24 24">
  <path d="m22,14.556v-1.556c0-2.206-1.794-4-4-4s-4,1.794-4,4v1.556c-1.19.694-2,1.97-2,3.444v2c0,2.206,1.794,4,4,4h4c2.206,0,4-1.794,4-4v-2c0-1.474-.81-2.75-2-3.444Zm-4,5.944c-.828,0-1.5-.672-1.5-1.5s.672-1.5,1.5-1.5,1.5.672,1.5,1.5-.672,1.5-1.5,1.5Zm2-6.5h-4v-1c0-1.103.897-2,2-2s2,.897,2,2v1Zm4-8H0v-1C0,2.791,1.791,1,4,1h16c2.209,0,4,1.791,4,4v1Zm-14,12c0-1.703.745-3.321,2-4.448v-.552c0-2.086,1.071-3.924,2.69-5H0v7c0,2.209,1.791,4,4,4h6v-1Zm-4.5-3c-.828,0-1.5-.672-1.5-1.5s.672-1.5,1.5-1.5,1.5.672,1.5,1.5-.672,1.5-1.5,1.5Z"/>
</svg>
