<svg id="Layer_1" viewBox="0 0 24 24" xmlns="http://www.w3.org/2000/svg" data-name="Layer 1"><path d="m19.083 10.292c-.446-.395-.849-.332-1.083.215-.937 2.191-.549 5.492-2.37 5.492-.676 0-.896-1.534-1.104-2.035-.25-.6-.741-.669-1.062-.103-.582 1.03-1.465 3-1.465 4.139 0 3.192 2.492 5.802 5.637 5.989 2.234.133 4.327-1.147 5.484-3.063 2.698-4.467-1.438-8.333-4.038-10.636zm.439 11.005c-.802.936-2.242.936-3.044 0-.693-.81-.558-2.046.195-2.8l.77-1.096c.308-.308.807-.308 1.115 0l.769 1.097c.753.754.888 1.99.195 2.8zm.519-14.716c-.876-2.703-2.934-4.878-5.561-5.917-.366-.405-.89-.664-1.48-.664h-4c-.589 0-1.114.26-1.48.665-3.073 1.215-5.367 3.983-5.901 7.335h-.586c-.533 0-.998.403-1.031.935-.037.583.423 1.065.998 1.065h.634c.025.043.486 2 .486 2h10.394c.472-.356 1.025-.556 1.609-.522.505.031.97.215 1.361.522h.016s.006.002.009.002c.146-.745.334-1.535.652-2.28.497-1.163 1.371-1.516 1.847-1.623.132-.03.492-.099.992-.099.737 0 1.268-.717 1.041-1.418zm-16.39 1.419c.436-2.14 1.786-3.951 3.623-5.007.346.599.985 1.007 1.726 1.007h4c.741 0 1.381-.408 1.726-1.007 1.837 1.056 3.187 2.867 3.623 5.007zm9.059 16h-3.976c-2.342 0-4.398-1.662-4.889-3.952l-1.296-6.048h8.601c-.505 1.073-1.15 2.696-1.15 4.001 0 2.377 1.045 4.528 2.71 5.999z"/></svg>