<svg id="Layer_1" viewBox="0 0 24 24" xmlns="http://www.w3.org/2000/svg" data-name="Layer 1"><path d="m12.062.223c-.538-.312-1.197-.295-1.718.041-.215.139-.448.323-.703.53-.698.565-1.488 1.206-2.68 1.206s-1.982-.641-2.68-1.206c-.255-.207-.487-.392-.701-.529-.523-.337-1.182-.353-1.719-.042-.54.312-.855.895-.823 1.517l.851 17.424c.129 2.712 2.357 4.837 5.073 4.837s4.943-2.125 5.073-4.836l.85-17.422c.032-.625-.283-1.207-.823-1.52zm-5.1 9.777c-.828 0-1.5-.672-1.5-1.5s.672-1.5 1.5-1.5 1.5.672 1.5 1.5-.672 1.5-1.5 1.5zm15.001 10.001c-1.291 1.291-3.358 1.337-4.706.112l-3.124-2.84.518-10.142 7.423 8.165c1.227 1.349 1.178 3.416-.112 4.705z"/></svg>