<svg id="Layer_1" viewBox="0 0 24 24" xmlns="http://www.w3.org/2000/svg" data-name="Layer 1"><path d="m9.489 19.874-.637-.357c.086-.327.147-.663.147-1.017s-.061-.69-.147-1.017l.637-.357c.481-.271.653-.88.383-1.361-.271-.482-.879-.652-1.361-.383l-.631.354c-.505-.526-1.153-.905-1.879-1.094v-.642c0-.553-.447-1-1-1s-1 .447-1 1v.642c-.727.189-1.374.568-1.879 1.094l-.631-.354c-.482-.271-1.091-.1-1.361.383-.271.481-.099 1.091.383 1.361l.637.357c-.086.327-.147.663-.147 1.017s.061.69.147 1.017l-.637.357c-.481.271-.653.88-.383 1.361.272.486.888.65 1.361.383l.631-.354c.505.526 1.153.905 1.879 1.094v.642c0 .553.447 1 1 1s1-.447 1-1v-.642c.727-.189 1.374-.568 1.879-1.094l.631.354c.473.267 1.089.104 1.361-.383.271-.481.099-1.091-.383-1.361zm-4.489.126c-.827 0-1.5-.673-1.5-1.5s.673-1.5 1.5-1.5 1.5.673 1.5 1.5-.673 1.5-1.5 1.5zm15.688-.726 2.759-1.379c.345-.173.56-.527.553-.913-.007-.385-.235-.732-.586-.892l-8.768-3.982c-.673-.229-1.427-.07-2.004.429-.588.509-.797 1.337-.497 2.203l3.944 8.675c.159.351.506.579.892.586h.019c.378 0 .725-.214.895-.553l1.38-2.76 3.019 3.019c.391.391 1.023.391 1.414 0s.391-1.023 0-1.414l-3.019-3.019zm-1.688-19.274h-14c-2.757 0-5 2.243-5 5v2h24v-2c0-2.757-2.243-5-5-5zm-14.5 5c-.828 0-1.5-.672-1.5-1.5s.672-1.5 1.5-1.5 1.5.672 1.5 1.5-.672 1.5-1.5 1.5zm4 0c-.828 0-1.5-.672-1.5-1.5s.672-1.5 1.5-1.5 1.5.672 1.5 1.5-.672 1.5-1.5 1.5zm1.616 8.028c-1.339-1.255-3.135-2.028-5.116-2.028-1.924 0-3.672.73-5 1.921v-3.921h24v5.159l-8.708-3.944c-1.354-.461-2.837-.161-3.958.81-.623.539-1.035 1.235-1.218 2.003z"/></svg>