<?xml version="1.0" encoding="UTF-8"?>
<svg xmlns="http://www.w3.org/2000/svg" id="Layer_1" data-name="Layer 1" viewBox="0 0 24 24">
  <path d="m8,7v6c0,1.105.895,2,2,2h12c1.105,0,2-.895,2-2v-6c0-1.105-.895-2-2-2h-12c-1.105,0-2,.895-2,2Zm2.5,7c-.828,0-1.5-.672-1.5-1.5s.672-1.5,1.5-1.5,1.5.672,1.5,1.5-.672,1.5-1.5,1.5Zm0-5c-.828,0-1.5-.672-1.5-1.5s.672-1.5,1.5-1.5,1.5.672,1.5,1.5-.672,1.5-1.5,1.5Zm5.5,4c-1.657,0-3-1.343-3-3s1.343-3,3-3,3,1.343,3,3-1.343,3-3,3Zm5.5,1c-.828,0-1.5-.672-1.5-1.5s.672-1.5,1.5-1.5,1.5.672,1.5,1.5-.672,1.5-1.5,1.5Zm0-5c-.828,0-1.5-.672-1.5-1.5s.672-1.5,1.5-1.5,1.5.672,1.5,1.5-.672,1.5-1.5,1.5Zm-14.944,6H0V5C0,2.243,2.243,0,5,0h6c2.045,0,3.802,1.237,4.576,3h-5.576c-2.206,0-4,1.794-4,4v6c0,.732.212,1.409.556,2Zm-6.556,2v2c0,2.757,2.243,5,5,5h6c2.757,0,5-2.243,5-5v-2H0Zm8,5c-.828,0-1.5-.672-1.5-1.5s.672-1.5,1.5-1.5,1.5.672,1.5,1.5-.672,1.5-1.5,1.5Z"/>
</svg>
