<svg id="Layer_1" viewBox="0 0 24 24" xmlns="http://www.w3.org/2000/svg" data-name="Layer 1"><path d="m18 0c-3.314 0-6 2.686-6 6s2.686 6 6 6 6-2.686 6-6-2.686-6-6-6zm2.707 7.293c.391.391.391 1.023 0 1.414s-1.023.391-1.414 0l-1.293-1.293-1.293 1.293c-.391.391-1.023.391-1.414 0s-.391-1.023 0-1.414l1.293-1.293-1.293-1.293c-.391-.391-.391-1.023 0-1.414s1.023-.391 1.414 0l1.293 1.293 1.293-1.293c.391-.391 1.023-.391 1.414 0s.391 1.023 0 1.414l-1.293 1.293zm-10.829 9.829-6.878-6.879v-6.243c0-2.206 1.794-4 4-4h5.721c-1.665 1.466-2.721 3.607-2.721 6 0 4.175 3.199 7.599 7.279 7.964l-3.158 3.158c-1.133 1.133-3.109 1.133-4.243 0zm13.949-5.653c.108.402.173.816.173 1.238v6.292c0 2.757-2.243 5-5 5h-14c-2.757 0-5-2.243-5-5v-6.292c0-.746.184-1.472.5-2.137l7.965 7.966c.945.944 2.2 1.464 3.536 1.464s2.591-.52 3.535-1.464l4.925-4.925c1.302-.42 2.453-1.167 3.367-2.141z"/></svg>