<svg id="Layer_1" viewBox="0 0 24 24" xmlns="http://www.w3.org/2000/svg" data-name="Layer 1"><path d="m7 13.002c-.005.151-.073.294-.189.392-.294.249-.747.113-.856-.256l-.856-2.365-1.591 1.179c-.335.235-.801.079-.929-.309l-1.156-3.884c-.093-.317.026-.658.297-.847l1.135-.795c.363-.254.868-.074.988.352l.563 2.374 1.654-1.159c.391-.274.929-.002.941.475v4.844zm15-3.003v5c0 1.874-.737 3.639-2.075 4.97-1.317 1.31-3.051 2.029-4.886 2.029h-.04c-4.576-.025-6.476-1.229-8.487-2.505-.162-.103-.336-.208-.504-.312-1.166.412-2.008 1.513-2.008 2.818v1c0 .553-.447 1-1 1s-1-.447-1-1v-1c0-2.142 1.361-3.958 3.257-4.669.13-.145 3.743-1.155 3.743-3.331v-9.098c-1.898-.376-3.491-1.797-3.969-3.652-.138-.534.185-1.08.72-1.218.531-.135 1.08.185 1.218.72.33 1.282 1.633 2.249 3.031 2.249h5c3.859 0 7 3.141 7 7zm-2.596 1.383c-.575-.254-1.201-.383-1.858-.383-1.041 0-1.745.329-2.312.595-.484.227-.867.405-1.463.405-.456 0-.914-.102-1.362-.303-.502-.226-1.095 0-1.321.503-.227.504 0 1.096.503 1.321.707.317 1.44.479 2.181.479 1.04 0 1.744-.329 2.311-.594.484-.228.868-.406 1.464-.406.378 0 .73.071 1.05.213.509.223 1.098-.005 1.319-.511.223-.505-.006-1.096-.511-1.319z"/></svg>