<svg id="Layer_1" viewBox="0 0 24 24" xmlns="http://www.w3.org/2000/svg" data-name="Layer 1"><path d="m15.457 1.932-2.476-1.671c-.515-.348-1.19-.348-1.705 0l-2.476 1.671c-.42.283-.671.757-.671 1.263v3.281c0 .842.682 1.524 1.524 1.524h4.952c.842 0 1.524-.682 1.524-1.524v-3.281c0-.506-.252-.98-.671-1.263zm-2.829 4.068h-1c-.276 0-.5-.224-.5-.5v-1c0-.276.224-.5.5-.5h1c.276 0 .5.224.5.5v1c0 .276-.224.5-.5.5zm-.518 8.808c1.206 1.134 1.89 2.716 1.89 4.371v3.82c0 .552-.448 1-1 1h-7.479c-.504 0-.99-.19-1.36-.533l-1.792-1.775c-1.516-1.502-2.369-3.548-2.369-5.683v-10.546c0-1.466 1.261-2.637 2.758-2.487 1.301.13 2.242 1.322 2.242 2.63v5.844c-.151.177-.293.363-.417.568-.906 1.503-.744 3.465.378 4.848l1.788 2.304c.339.436.967.515 1.403.177.436-.339.515-.967.177-1.403l-1.788-2.304c-.595-.734-.733-1.78-.245-2.589.752-1.246 2.405-1.432 3.412-.498l2.402 2.258zm11.89-9.346v10.548c0 2.135-.854 4.182-2.371 5.685l-1.79 1.772c-.37.343-.855.533-1.36.533h-2.664c.112-.314.184-.648.184-1v-3.112l3.038-3.024c1.122-1.383 1.285-3.345.378-4.848-.123-.204-.266-.391-.417-.568v-5.844c0-1.308.941-2.499 2.242-2.63 1.496-.15 2.758 1.021 2.758 2.487zm-6.542 10.176-1.695 1.682c-.362-1.504-1.143-2.895-2.283-3.968l-.02-.019.832-.782c1.007-.934 2.66-.748 3.412.498.488.81.35 1.855-.245 2.589z"/></svg>