<svg id="Layer_1" viewBox="0 0 24 24" xmlns="http://www.w3.org/2000/svg" data-name="Layer 1"><path d="m18.137 18.923c1.892 1.749.47 5.178-2.103 5.077h-11.034c-2.757 0-5-2.243-5-5v-10.96c-.103-2.6 3.364-4.034 5.129-2.125zm5.863-5.56c0 .972-.378 1.885-1.065 2.571-1.353 1.411-3.789 1.412-5.142 0l-9.774-9.966c-1.35-1.295-1.349-3.646.007-4.943 1.119-1.121 2.825-1.322 4.162-.581.561-.292 1.177-.444 1.812-.444 1.896 0 3.489 1.327 3.898 3.102v.008c1.775.409 3.101 1.991 3.101 3.89 0 2.209-1.791 4-4 4-.55 0-1.075-.112-1.552-.313l3.766 3.84c.605.605 1.688.611 2.307-.007.635-.609.636-1.704 0-2.313-.391-.391-.391-1.023 0-1.414.391-.392 1.023-.391 1.414 0 .688.687 1.065 1.6 1.065 2.571z"/></svg>