<svg id="Layer_1" viewBox="0 0 24 24" xmlns="http://www.w3.org/2000/svg" data-name="Layer 1"><path d="m0 10v8c0 2.757 2.243 5 5 5h14c2.757 0 5-2.243 5-5v-8zm18 10h-12c-.553 0-1-.447-1-1s.447-1 1-1h1c.249-3.005 1.482-5.096 3.077-5 .897.018 1.508.445 1.923.854.414-.409 1.021-.837 1.903-.854 1.615-.096 2.847 1.993 3.097 5h1c.553 0 1 .447 1 1s-.447 1-1 1zm-3-2h-6c.261-2.287 1.013-3.079 1.058-3 .198.004.365.072.675.425.318.362.779.569 1.266.57h.002c.486 0 .947-.207 1.268-.57.31-.353.477-.421.655-.425.068-.07.813.707 1.077 3zm4-17h-14c-2.757 0-5 2.243-5 5v2h24v-2c0-2.757-2.243-5-5-5zm-14.5 5c-.828 0-1.5-.672-1.5-1.5s.672-1.5 1.5-1.5 1.5.672 1.5 1.5-.672 1.5-1.5 1.5zm4 0c-.828 0-1.5-.672-1.5-1.5s.672-1.5 1.5-1.5 1.5.672 1.5 1.5-.672 1.5-1.5 1.5z"/></svg>