<svg id="Layer_1" viewBox="0 0 24 24" xmlns="http://www.w3.org/2000/svg" data-name="Layer 1"><path d="m22.082 14.17.506 2.727c.119.644-.412 1.223-1.064 1.163-.009 0-.018-.002-.027-.003l-5.891-.057c-1.606 0-1.149-1.5-1.149-1.5l.461-2.33c.275-1.81 1.809-3.17 3.582-3.17s3.307 1.361 3.582 3.17zm-18.789-5.232c.391.391 1.023.391 1.414 0s.391-1.023 0-1.414l-1.523-1.523h17.632l-1.523 1.523c-.391.391-.391 1.023 0 1.414s1.023.391 1.414 0l2.862-2.862c.278-.278.431-.647.431-1.04s-.153-.762-.431-1.04l-2.862-2.862c-.391-.391-1.023-.391-1.414 0s-.391 1.023 0 1.414l1.452 1.452h-17.49l1.452-1.452c.391-.391.391-1.023 0-1.414s-1.023-.391-1.414 0l-2.862 2.862c-.278.278-.431.647-.431 1.04s.153.762.431 1.04zm2.207 2.062c1.93 0 3.5 1.57 3.5 3.5s-1.57 3.5-3.5 3.5-3.5-1.57-3.5-3.5 1.57-3.5 3.5-3.5zm5.437 11.649c.115.307.072.651-.115.921s-.494.43-.822.43h-9c-.328 0-.635-.161-.822-.43-.187-.27-.229-.614-.115-.921.818-2.183 3.003-3.649 5.437-3.649s4.618 1.466 5.437 3.649zm13 0c.115.307.072.651-.115.921s-.494.43-.822.43h-9c-.328 0-.635-.161-.822-.43-.187-.27-.229-.614-.115-.921.818-2.183 3.003-3.649 5.437-3.649s4.618 1.466 5.437 3.649z"/></svg>