<svg id="Layer_1" viewBox="0 0 24 24" xmlns="http://www.w3.org/2000/svg" data-name="Layer 1"><path d="m6 0c-3.314 0-6 2.686-6 6s2.686 6 6 6 6-2.686 6-6-2.686-6-6-6zm-3.5 3.25c0-.69.56-1.25 1.25-1.25s1.25.56 1.25 1.25-.56 1.25-1.25 1.25-1.25-.56-1.25-1.25zm1.959 6.403c-.252.367-.753.455-1.112.206-.364-.25-.457-.749-.206-1.112l4.4-6.4c.251-.364.75-.456 1.112-.206.364.25.457.749.206 1.112zm3.791.347c-.69 0-1.25-.56-1.25-1.25s.56-1.25 1.25-1.25 1.25.56 1.25 1.25-.56 1.25-1.25 1.25zm15.26 2.684-6.399 10.316c-.441.664-1.111 1-1.844 1-.315 0-.637-.047-.947-.19-1.015-.469-1.508-1.567-1.201-2.642l1.562-5.167h-3.679c-.959 0-1.837-.442-2.409-1.212-.243-.328-.397-.696-.491-1.077 3.397-.924 5.898-4.022 5.898-7.711 0-2.006-.743-3.834-1.963-5.238.535-.477 1.231-.763 1.991-.763h3.693c.851 0 1.65.418 2.136 1.119.485.7.596 1.595.297 2.392l-1.683 4.489h2.557c1.114 0 2.129.611 2.651 1.596.234.442.322.904.322 1.404 0 .589-.145 1.176-.49 1.684z"/></svg>