<svg id="Layer_1" viewBox="0 0 24 24" xmlns="http://www.w3.org/2000/svg" data-name="Layer 1"><path d="m12 7v-6.54c.913.346 1.753.879 2.465 1.59l3.484 3.486c.712.711 1.245 1.551 1.591 2.464h-6.54c-.552 0-1-.449-1-1zm4.238 14.631c-.798.567-1.879.477-2.572-.217-.378-.378-.586-.88-.586-1.414s.208-1.036.586-1.414l1.414-1.415c.6-.598 1.514-.754 2.276-.391.497.237 1.095.028 1.333-.471.238-.498.027-1.095-.471-1.333-1.527-.73-3.356-.415-4.553.782l-1.414 1.415c-.756.755-1.172 1.76-1.172 2.828s.416 2.073 1.172 2.828c.777.778 1.799 1.172 2.828 1.172.807 0 1.618-.24 2.318-.74.45-.32.555-.945.234-1.395s-.945-.555-1.395-.234zm6.59-9.439c-1.387-1.388-3.551-1.568-5.147-.432-.45.321-.554.945-.234 1.395.321.45.944.555 1.395.234.796-.568 1.877-.477 2.572.217.378.378.586.88.586 1.415s-.208 1.036-.586 1.414l-1.414 1.415c-.599.599-1.513.756-2.276.391-.498-.237-1.095-.028-1.333.471-.238.498-.027 1.095.471 1.333.549.262 1.136.39 1.72.39 1.04 0 2.066-.405 2.833-1.171l1.414-1.415c.756-.755 1.172-1.76 1.172-2.828s-.416-2.073-1.172-2.829zm-10.177 1.808h-7.651c-.552 0-1-.448-1-1s.448-1 1-1h10.325c.14-.728.545-1.404 1.194-1.868.072-.052.152-.084.226-.132h-3.746c-1.654 0-3-1.346-3-3v-6.976c-.161-.011-.322-.024-.485-.024h-4.514c-2.757 0-5 2.243-5 5v14c0 2.757 2.243 5 5 5h5.617c-.99-1.101-1.538-2.507-1.538-4 0-.693.123-1.365.347-2h-4.426c-.552 0-1-.448-1-1s.448-1 1-1h5.618c.411-.441 1.565-1.63 2.033-2z"/></svg>