<svg id="Layer_1" viewBox="0 0 24 24" xmlns="http://www.w3.org/2000/svg" data-name="Layer 1"><path d="m4.05 13.414-2.293 2.293c-.391.391-1.023.391-1.414 0s-.391-1.023 0-1.414l2.293-2.293-2.293-2.293c-.391-.391-.391-1.023 0-1.414s1.023-.391 1.414 0l2.293 2.293 2.293-2.293c.391-.391 1.023-.391 1.414 0s.391 1.023 0 1.414l-2.293 2.293 2.293 2.293c.391.391.391 1.023 0 1.414s-1.023.391-1.414 0zm16.779-11c-2.014-1.798-4.718-2.661-7.426-2.353-3.604.405-6.51 2.964-7.789 6.294 1.131-.591 2.558-.426 3.507.523.128.128.236.268.336.411.86-1.949 2.796-3.291 5.043-3.291 3.032 0 5.5 2.467 5.5 5.5 0 .552-.447 1-1 1s-1-.448-1-1c0-1.93-1.57-3.5-3.5-3.5-1.765 0-3.297 1.282-3.542 2.999h1c1.65.005 3.042 1.35 3.042 3.001s-1.346 3-3 3c-.553 0-1-.448-1-1s.447-1 1-1 1-.449 1-1-.448-1-1-1h-1c-.49 0-.993-.209-1.372-.582-.135.251-.295.492-.507.704l-.879.879.879.879c.567.566.879 1.32.879 2.121s-.312 1.555-.879 2.121c-.566.566-1.32.879-2.121.879-.343 0-.674-.068-.989-.179-.184 3.281 2.71 6.259 5.996 6.171 1.159 0 2.318-.327 3.303-.985.89-.596 1.603-1.405 2.061-2.34.797-1.626 1.633-2.714 2.632-3.425 2.503-1.781 3.998-4.675 3.998-7.743 0-2.701-1.156-5.284-3.171-7.085z"/></svg>