<svg id="Layer_1" viewBox="0 0 24 24" xmlns="http://www.w3.org/2000/svg" data-name="Layer 1"><path d="m10.252 12.488 4.748-5.843v-5.645c.045-.536.434-1 1-1 .654 0 1.294.184 1.848.53l1.654 1.071c.664.415.664 1.383 0 1.798l-2.502 1.601v1.645l4.139 5.26-2.857 4.067-1.27-1.595c-.199-.25-.508-.398-.826-.376-.319.014-.613.181-.79.447l-1.678 2.542zm13.524 2.496-1.289-1.42-2.489 3.47c-.348.577-.951.936-1.617.964-.654.03-1.297-.276-1.689-.815l-.386-.483-.953 1.44c-.389.545-.987.855-1.62.86h-.015c-.628 0-1.224-.301-1.596-.807l-3.165-4.111-4.274 5.26c-.701.863-.84 2.024-.361 3.028.478 1.005 1.466 1.629 2.579 1.629h16.099c.553 0 1-.447 1-1v-7.385c0-.229-.079-.452-.224-.631zm-13.244-14.864c-1.462.527-4.64 2.535-6.145 3.89h-.004c-1.737 0-3.149.851-4.142 2.094-.162.203-.241.462-.241.722h0c0 .655.53 1.185 1.184 1.185h.816l.793.793-.5.5c-.391.391-.391 1.023 0 1.414s1.023.391 1.414 0l.5-.5.793.793v.816c0 .654.53 1.184 1.184 1.184.261 0 .52-.079.723-.242 1.238-.993 2.065-2.402 2.065-4.108 1.339-1.479 3.389-4.714 3.92-6.182.56-1.404-.958-2.921-2.359-2.358zm-4.032 7.891c-.828 0-1.5-.672-1.5-1.5s.672-1.5 1.5-1.5 1.5.672 1.5 1.5-.672 1.5-1.5 1.5z"/></svg>