<svg id="Layer_1" viewBox="0 0 24 24" xmlns="http://www.w3.org/2000/svg" data-name="Layer 1"><path d="m19 9h-7.028c-.154 0-.31-.036-.448-.105l-3.155-1.578c-.415-.207-.878-.316-1.341-.316h-2.028c-2.757-.001-5 2.242-5 4.999v7c0 2.757 2.243 5 5 5h14c2.757 0 5-2.243 5-5v-5c0-2.757-2.243-5-5-5zm-4 9h-2v2c0 .553-.448 1-1 1s-1-.447-1-1v-2h-2c-.552 0-1-.447-1-1s.448-1 1-1h2v-2c0-.553.448-1 1-1s1 .447 1 1v2h2c.552 0 1 .447 1 1s-.448 1-1 1zm-7.972-13h-2.028v-1c0-2.206 1.794-4 4-4h5.671c.801 0 1.555.312 2.122.879l1.328 1.328c.567.566.879 1.32.879 2.121v2.672h-6.792l-2.945-1.473c-.69-.345-1.463-.527-2.235-.527z"/></svg>