<svg id="Layer_1" viewBox="0 0 24 24" xmlns="http://www.w3.org/2000/svg" data-name="Layer 1"><path d="m16 11c0 .552-.448 1-1 1h-1v1c0 .552-.448 1-1 1s-1-.448-1-1v-1h-1c-.552 0-1-.448-1-1s.448-1 1-1h1v-1c0-.552.448-1 1-1s1 .448 1 1v1h1c.552 0 1 .448 1 1zm5.739 6.675c-.477.623-.739 1.458-.739 2.354v.971c0 1.654-1.346 3-3 3h-7c-1.654 0-3-1.346-3-3h-.494c-2.499 0-4.629-1.868-4.957-4.345l-.219-1.655h-.33c-1.299 0-2-1.03-2-2 0-1.42 2.932-7.015 4.223-8.611 2.414-3.225 6.282-4.838 10.324-4.283 4.996.686 8.952 4.839 9.407 9.876.25 2.768-.537 5.5-2.215 7.692zm-2.739-8.435c0-1.789-1.343-3.24-3-3.24s-3 1-3 1-1.343-1-3-1-3 1.451-3 3.24c0 2.116 2.334 4.534 4.091 6.053 1.098.95 2.721.95 3.819 0 1.757-1.52 4.091-3.937 4.091-6.053z"/></svg>