<svg id="Layer_1" viewBox="0 0 24 24" xmlns="http://www.w3.org/2000/svg" data-name="Layer 1"><path d="m24 23c0 .552-.448 1-1 1h-22c-.552 0-1-.448-1-1s.448-1 1-1h2v-4.169c.958.166 1.822.169 2.363.169h1.637v4h2v-4h2v4h2v-4h2v4h2v-4h1.637c.542 0 1.405-.003 2.363-.169v4.169h2c.552 0 1 .448 1 1zm-21.647-15.238c-.421-.357-.473-.988-.115-1.41.359-.421.989-.471 1.41-.115.83.705 2.174.762 3.716.762h.637v-3.001c-.483.024-.947-.096-1.427-.323-.5-.236-.713-.832-.478-1.332.236-.499.83-.712 1.331-.477.198.093.367.13.521.133 1.022-.022 2.413-1.083 3.483-1.822.342-.235.795-.235 1.137 0 1.056.729 2.434 1.787 3.447 1.823.163.001.35-.041.558-.138.501-.236 1.096-.021 1.331.478s.022 1.095-.478 1.331c-.481.226-.954.338-1.427.329v3.001h.637c1.542 0 2.886-.057 3.716-.762.422-.356 1.052-.306 1.41.115.357.421.306 1.052-.115 1.41-1.347 1.143-3.139 1.238-5.011 1.238h-9.273c-1.872 0-3.664-.095-5.011-1.238zm8.647-.779h2v-1.983c0-.552-.448-1-1-1s-1 .448-1 1zm-5.637 9.017h13.273c1.872 0 3.664-.095 5.011-1.237.421-.357.473-.989.115-1.41-.358-.42-.989-.47-1.41-.115-.764.649-1.965.748-3.353.76v-3.167c-.958.166-1.822.169-2.363.169h-1.637v2.983h-2v-2.983h-2v2.983h-2v-2.983h-1.637c-.542 0-1.405-.003-2.363-.169v3.167c-1.388-.012-2.589-.112-3.353-.76-.422-.355-1.052-.305-1.41.115-.357.421-.306 1.053.115 1.41 1.347 1.143 3.139 1.237 5.011 1.237z"/></svg>