<svg id="Layer_1" viewBox="0 0 24 24" xmlns="http://www.w3.org/2000/svg" data-name="Layer 1"><path d="m17 0c-3.866 0-7 3.134-7 7s3.134 7 7 7 7-3.134 7-7-3.134-7-7-7zm-1.455 5.744 3.261.544c1.277.213 2.203 1.312 2.193 2.61-.011 1.451-1.234 2.603-2.685 2.603h-.315s0 0 0 0c0 .552-.448 1-1 1-.552 0-1-.448-1-1-1.113 0-2.087-.61-2.605-1.513-.38-.662.11-1.487.874-1.487.359 0 .686.196.869.506.174.296.495.494.862.494h2.35c.334 0 .629-.251.649-.585.02-.324-.206-.603-.52-.655l-3.286-.548c-1.277-.213-2.203-1.312-2.192-2.61.011-1.451 1.234-2.603 2.685-2.603h.315s0 0 0 0c0-.552.448-1 1-1 .552 0 1 .448 1 1 1.113 0 2.087.61 2.605 1.513.38.662-.11 1.487-.874 1.487-.36 0-.686-.196-.869-.506-.174-.295-.495-.494-.862-.494h-2.376c-.36 0-.649.305-.622.67.021.292.255.525.544.574zm8.455 6.901v4.355c0 1.629-.795 3.065-2.004 3.978 0 .008.004.014.004.022v2c0 .553-.447 1-1 1s-1-.447-1-1v-1.101c-.323.066-.658.101-1 .101h-14c-.342 0-.677-.035-1-.101v1.101c0 .553-.447 1-1 1s-1-.447-1-1v-2c0-.008.004-.014.004-.022-1.21-.913-2.004-2.349-2.004-3.978h2c.553 0 1-.447 1-1s-.447-1-1-1h-2v-6h2c.553 0 1-.447 1-1s-.447-1-1-1h-2c0-2.757 2.243-5 5-5h4.522c-.96 1.431-1.522 3.151-1.522 5 0 .512.053 1.012.136 1.501-.711.986-1.136 2.193-1.136 3.499 0 3.309 2.691 6 6 6 1.783 0 3.382-.786 4.482-2.024 2.629-.14 4.962-1.405 6.518-3.331zm-15-.645c0-.253.03-.5.075-.74 1.151 2.133 3.14 3.742 5.52 4.404-.489.214-1.028.336-1.595.336-2.206 0-4-1.794-4-4z"/></svg>