<svg id="Layer_1" viewBox="0 0 24 24" xmlns="http://www.w3.org/2000/svg" data-name="Layer 1"><path d="m15.001 17.003c0 .612-.185 1.18-.5 1.654v4.69c0 .581-.703.872-1.113.461l-1.386-1.386-1.386 1.386c-.411.411-1.113.12-1.113-.461v-4.69c-.315-.474-.5-1.042-.5-1.654 0-1.656 1.343-2.999 3-2.999s3 1.343 3 2.999zm-5.448-4.333c-.268-.071-.533-.154-.794-.248l-3.759-1.363v3.193c-1.075-.272-2.057-.534-2.797-.72-1.121-.281-2.203.571-2.203 1.726v4.462c0 1.155 1.082 2.007 2.203 1.726 1.408-.353 3.67-.977 5.837-1.426-.642-.841-1.038-1.879-1.038-3.018 0-1.866 1.035-3.474 2.551-4.333zm12.243.862c-.74.185-1.722.448-2.797.72v-3.198l-3.773 1.368c-.257.093-.518.175-.782.245 1.519.858 2.557 2.467 2.557 4.336 0 1.14-.397 2.178-1.039 3.019 2.166.449 4.426 1.073 5.834 1.426 1.121.281 2.203-.571 2.203-1.726v-4.462c0-1.155-1.082-2.007-2.203-1.726zm-20.308-5.874 7.953 2.885c.823.299 1.687.448 2.552.448h.008s.005 0 .008 0c.865 0 1.729-.149 2.552-.448l7.953-2.885c.902-.327 1.486-1.171 1.486-2.15 0-.978-.582-1.823-1.484-2.151l-7.998-2.909c-.812-.296-1.664-.444-2.517-.448-.853.004-1.705.152-2.517.448l-7.998 2.909c-.902.329-1.485 1.173-1.484 2.151 0 .979.584 1.823 1.486 2.15z"/></svg>