<svg id="Layer_1" viewBox="0 0 24 24" xmlns="http://www.w3.org/2000/svg" data-name="Layer 1"><path d="m6 10.408v-2.779c0-1.933.7-3.8 1.969-5.257l1.47-1.687c.38-.436.93-.686 1.508-.686h7.553c.828 0 1.5.672 1.5 1.5v3.464c0 1.692-.714 3.305-1.967 4.442l-3.334 3.027c-1.017.923-2.668.721-3.407-.533-.48-.815-.331-1.858.272-2.586l2.817-2.842c.384-.388.383-1.014-.003-1.4-.389-.389-1.02-.387-1.407.004l-1.99 2.008c-2.118.31-3.924 1.564-4.981 3.326zm14 4.592h-1.08c-.304 2.122-1.558 3.938-3.318 5h2.397c.552 0 1 .448 1 1s-.448 1-1 1h-11.999c-.552 0-1-.448-1-1s.448-1 1-1h2.397c-1.76-1.062-3.013-2.878-3.318-5h-1.08c-2.208 0-3.999 1.791-3.999 4v3c0 1.105.895 2 2 2h20c1.105 0 2-.895 2-2v-3c0-2.209-1.791-4-4-4zm-13-1c0 2.757 2.243 5 5 5s5-2.243 5-5c0-.298-.028-.593-.08-.882l-.876.795c-.782.711-1.785 1.094-2.825 1.094-1.489.006-2.896-.797-3.649-2.093-.534-.907-.674-1.973-.457-2.986-1.292.917-2.112 2.414-2.112 4.072z"/></svg>