<svg id="Layer_1" viewBox="0 0 24 24" xmlns="http://www.w3.org/2000/svg" data-name="Layer 1"><path d="m11 3.056v4.594c-1.26 1.608-3.248 3.421-6 4.06v-6.71c0-.552-.448-1-1-1s-1 .448-1 1v3h-1.079c-2 0-2.006-1.79-1.872-2.5.584-3.559 3.117-4.969 5.261-5.371.88-.165 1.782.073 2.459.659 1.012.876 1.73 1.712 3.23 2.268zm-6 13.069c1.862 1.795 3.84 3.057 6 3.806v-9.309c-1.773 1.677-3.807 2.739-6 3.148v2.354zm8-13.069v4.594c1.26 1.608 3.248 3.421 6 4.06v-6.71c0-.552.448-1 1-1s1 .448 1 1v3h1.079c2 0 2.006-1.79 1.872-2.5-.584-3.559-3.117-4.969-5.262-5.371-.88-.165-1.782.073-2.459.659-1.012.876-1.73 1.712-3.23 2.268zm6 10.714c-2.193-.409-4.227-1.471-6-3.148v9.309c2.16-.75 4.138-2.011 6-3.806v-2.354zm1.165 4.017c-1.755 1.639-3.637 2.873-5.649 3.705-.806.333-1.661.505-2.516.508-.816.003-1.632-.147-2.405-.457-2.062-.827-3.963-2.065-5.761-3.754-.622.934-1.37 2.596-1.684 4.436-.157.923.544 1.774 1.48 1.774h16.74c.937 0 1.638-.851 1.48-1.775-.314-1.841-1.063-3.504-1.685-4.438z"/></svg>