<svg id="Layer_1" viewBox="0 0 24 24" xmlns="http://www.w3.org/2000/svg" data-name="Layer 1"><path d="m12 13c-3.038 0-5.5 2.462-5.5 5.5s2.462 5.5 5.5 5.5 5.5-2.462 5.5-5.5-2.462-5.5-5.5-5.5zm1.086 8-1.793-1.793c-.188-.188-.293-.442-.293-.707v-2.5c0-.552.448-1 1-1 .552 0 1 .448 1 1v2.086l1.5 1.5c.39.39.39 1.024 0 1.414-.39.39-1.024.39-1.414 0zm-6.086-21h3.455c.186 0 .362.019.545.026v5.974h-4zm6 .239c3.761.719 6.574 2.998 8.482 5.761h-8.482zm-13 5.761v-5c0-.552.447-1 1-1h4v6zm23.222 8.362c-.764 1.041-1.941 1.638-3.231 1.638h-.926c-1.031-2.911-3.8-5-7.064-5s-6.034 2.089-7.064 5h-3.937c-.553 0-1-.447-1-1v-7h22.667c.47.925.855 1.871 1.148 2.807.384 1.223.168 2.519-.594 3.555z"/></svg>