<svg id="Layer_1" viewBox="0 0 24 24" xmlns="http://www.w3.org/2000/svg" data-name="Layer 1"><path d="m12.564 12.43c-.277.459-.652.83-1.074 1.099.047-.475-.127-.974-.484-1.331l-.584-.521c-.234-.234-.613-.234-.847 0l-.585.521c-.375.375-.543.906-.471 1.401-.912-.52-1.53-1.492-1.53-2.607 0-.366.13-.937.308-1.41.335.25.75.418 1.204.418 1.5 0 1.722-1.469 1.854-2.347.034-.22.067-.443.111-.663 1.854 1.741 3.219 3.586 2.099 5.44zm11.436-2.43c.005 6.899-5.225 13.172-12.012 14-.688 0-1.361-.242-1.903-.694-.689-.576-1.085-1.42-1.085-2.316v-1.041c-5.046-.503-9-4.772-9-9.949 0-5.514 4.486-10 10-10 3.884 0 7.25 2.23 8.905 5.474-1.711.794-2.905 2.516-2.905 4.526s1.194 3.733 2.905 4.526c-1.511 2.96-4.452 5.055-7.905 5.402v1.062c0 .302.134.586.367.781.131.109.408.285.792.213 4.642-.843 8.332-4.518 9.47-9.053-.203.044-.413.069-.628.069-1.654 0-3-1.346-3-3s1.346-3 3-3 3 1.346 3 3zm-9.724 3.464c2.276-3.77-1.5-7.115-3.112-8.543-.535-.474-1.049-.448-1.308-.39-.256.057-.726.249-.999.889-.291.68-.396 1.375-.48 1.934-.016.107-.035.229-.054.346-.213-.388-.512-.618-.891-.684-.67-.119-1.136.389-1.288.556-.716.787-1.155 2.521-1.155 3.419 0 2.646 2.068 4.843 4.708 5 .092.006.185.008.276.008 1.718 0 3.348-.953 4.304-2.536z"/></svg>