<svg id="Layer_1" viewBox="0 0 24 24" xmlns="http://www.w3.org/2000/svg" data-name="Layer 1"><path d="m17.975 14.701-2.727-3.612.594-.779c.622-.822 1.573-1.301 2.607-1.31 1.03.025 1.994.453 2.632 1.267l2.209 2.753-1.107 1.46-.604-.755c-.343-.429-.859-.668-1.404-.668-.548.004-1.056.254-1.368.657l-.832.988zm-11.344-.798c.193-.25.489-.397.81-.388.316.006.611.162.795.419l1.688 2.364 3.234-4.656-2.524-3.343c-.416-.534-.996-.91-1.635-1.117v-2.181l2.414-1.509c.732-.458.732-1.524 0-1.982l-2.005-1.255c-.267-.167-.575-.255-.889-.255h-.519c-.499 0-.895.372-.97.85-.018.026-.03.069-.03.15v6.175c-.637.203-1.206.579-1.621 1.125l-2.279 2.932 2.458 4.059 1.072-1.387zm4.79 3.747c-.355.491-.909.773-1.494.773h-.006c-.587-.002-1.142-.288-1.483-.766l-1.047-1.466-.386.499c-.344.474-.91.753-1.542.729-.614-.027-1.171-.357-1.488-.885l-2.187-3.611-.734.945c-.684.877-1.054 1.956-1.054 3.067v4.065c0 1.657 1.343 3 3 3h17.501c.162 0 .326-.04.475-.121.386-.097.744-.258 1.077-.458l-7.626-10.1-3.006 4.328zm12.167-1.714c-.364.444-.865.682-1.4.682-.004 0-.008 0-.012 0-.54-.003-1.042-.247-1.379-.668l-.613-.766-.973 1.155 4.259 5.641c.335-.585.53-1.259.53-1.979v-4.608l-.412.544z"/></svg>