<svg id="Layer_1" viewBox="0 0 24 24" xmlns="http://www.w3.org/2000/svg" data-name="Layer 1"><path d="m8 8v7h-8v-7zm11-6h-1v-1c0-.552-.447-1-1-1s-1 .448-1 1v1h-8v-1c0-.552-.447-1-1-1s-1 .448-1 1v1h-1c-2.414 0-4.434 1.721-4.899 4h23.798c-.465-2.279-2.484-4-4.899-4zm5 6h-8v7h8zm-2.94 8.897-1.473 1.531-.691-.649c-.4-.368-1.02-.349-1.397.042-.389.404-.369 1.049.044 1.429l.623.586c.766.765 2.079.763 2.823.019l.004-.004 1.511-1.571c.373-.389.37-1.005-.007-1.39-.395-.404-1.045-.401-1.436.007zm-16.071 2.957.004-.004 1.511-1.571c.373-.389.37-1.005-.007-1.39-.395-.404-1.045-.401-1.436.007l-1.473 1.531-.691-.649c-.4-.368-1.02-.349-1.397.042-.389.404-.369 1.049.044 1.429l.623.586c.766.765 2.079.763 2.823.019zm9.182-11.061c-.391-.391-1.023-.391-1.414 0l-.793.793-.793-.793c-.391-.391-1.023-.391-1.414 0s-.391 1.023 0 1.414l.793.793-.793.793c-.391.391-.391 1.023 0 1.414s1.023.391 1.414 0l.793-.793.793.793c.391.391 1.023.391 1.414 0s.391-1.023 0-1.414l-.793-.793.793-.793c.391-.391.391-1.023 0-1.414zm-10.171 15.207h16c1.474 0 2.75-.81 3.444-2h-7.444v-7h-8v7h-7.444c.694 1.19 1.97 2 3.444 2z"/></svg>