<svg id="Layer_1" viewBox="0 0 24 24" xmlns="http://www.w3.org/2000/svg" data-name="Layer 1"><path d="m20.5 7c1.93 0 3.5-1.57 3.5-3.5s-1.57-3.5-3.5-3.5-3.5 1.57-3.5 3.5 1.57 3.5 3.5 3.5zm-4.408 12 .569.38c-.914.99-2.211 1.62-3.661 1.62h-5.697l-3.964 2.644c-.359.239-.748.356-1.19.356-.348 0-.696-.081-1.015-.252-.699-.375-1.134-1.101-1.134-1.894v-12.854c0-2.437 1.755-4.466 4.065-4.906-.039.297-.065.598-.065.906v7c0 3.859 3.141 7 7 7zm7.908-11.261v10.115c0 .793-.435 1.519-1.134 1.894-.318.171-.667.255-1.015.255-.416 0-.831-.121-1.191-.36l-3.963-2.643h-5.697c-2.757 0-5-2.243-5-5v-7c0-2.757 2.243-5 5-5h5.261c-.787.952-1.261 2.171-1.261 3.5 0 3.033 2.467 5.5 5.5 5.5 1.329 0 2.548-.474 3.5-1.261z"/></svg>