<svg id="Layer_1" viewBox="0 0 24 24" xmlns="http://www.w3.org/2000/svg" data-name="Layer 1"><path d="m11.257 24h-6.257c-2.761 0-5-2.239-5-5v-14c0-2.761 2.239-5 5-5h8c2.761 0 5 2.239 5 5h-3c-2.331 0-4.272 1.602-4.826 3.76l-3.76-3.76h1.586c.552 0 1-.448 1-1 0-.552-.448-1-1-1h-3c-1.105 0-2 .895-2 2v3c0 .552.448 1 1 1 .552 0 1-.448 1-1v-1.586l5 5v7.586h-2c-.552 0-1 .448-1 1s.448 1 1 1h2.025c.102 1.134.546 2.17 1.232 3zm8.743-17h-4.414c-1.98 0-3.586 1.605-3.586 3.586s6 6 6 6v-1.586c0-.552.448-1 1-1s1 .448 1 1v3c0 1.105-.895 2-2 2h-3c-.552 0-1-.448-1-1s.448-1 1-1h1.586l-4.586-4.586v7c0 1.98 1.605 3.586 3.586 3.586h4.828c1.98 0 3.586-1.605 3.586-3.586v-9.414c0-2.209-1.791-4-4-4z"/></svg>