<svg id="Layer_1" viewBox="0 0 24 24" xmlns="http://www.w3.org/2000/svg" data-name="Layer 1"><path d="m11.11 8c-1.319 0-2.568.142-3.732.414.847-2.117 2.913-3.414 5.622-3.414 3.237 0 5.613 2.04 6.022 5.175-2.133-1.401-4.83-2.175-7.911-2.175zm11.64 1.53c.667-.344 1.026-1.141.811-1.917-.215-.765-.944-1.238-1.673-1.141.513-.559.585-1.453.133-2.1-.461-.646-1.293-.818-1.959-.452.308-.721.081-1.572-.565-2.013-.636-.442-1.467-.312-1.97.248.072-.765-.39-1.487-1.118-1.702-.725-.21-1.475.162-1.795.846-.135-.775-.866-1.358-1.614-1.294-.748-.064-1.479.519-1.613 1.294-.32-.684-1.07-1.055-1.795-.846-.729.215-1.191.937-1.118 1.702-.503-.56-1.334-.689-1.97-.248-.646.441-.873 1.292-.565 2.013-.667-.366-1.498-.194-1.959.452-.452.647-.38 1.541.133 2.1-.729-.097-1.457.377-1.673 1.141-.196.667.042 1.258.479 1.664.411.382 1.877.723 2.325-.762.948-3.137 3.681-5.516 7.756-5.516 4.6 0 7.593 3 7.993 6.772.029.267.004.536-.071.789-.174.591-.084 1.225.326 1.685.749.845 2.206.753 2.635-.291.1-.216.099-.528.099-.789 0-.797-.513-1.486-1.232-1.637zm-11.75 5.47c-3.326 0-5.683 1.956-6.005 4.984l12.005.016c-.317-3.044-2.674-5-6-5zm10.982 6.168c.2 1.193-1.232 2.832-5.338 2.832h-11.288c-4.105 0-5.537-1.638-5.338-2.832 0-.797.513-1.486 1.232-1.637-.667-.344-1.026-1.141-.811-1.917.216-.765.944-1.238 1.673-1.141-.513-.559-.585-1.453-.133-2.1.461-.646 1.293-.818 1.959-.452-.308-.721-.081-1.572.565-2.013.636-.442 1.467-.312 1.97.248-.072-.765.39-1.487 1.118-1.702.725-.21 1.475.162 1.795.846.134-.775.865-1.358 1.613-1.294.748-.064 1.479.519 1.613 1.294.32-.684 1.07-1.055 1.795-.846.729.215 1.191.937 1.118 1.702.503-.56 1.334-.689 1.97-.248.646.441.873 1.292.565 2.013.666-.366 1.498-.194 1.959.452.452.647.38 1.541-.133 2.1.729-.097 1.457.377 1.673 1.141.215.776-.143 1.573-.811 1.917.719.151 1.232.84 1.232 1.637zm-2.989-1.395c-.4-3.772-3.394-6.772-7.993-6.772s-7.593 3-7.994 6.772c-.06.564.117 1.13.497 1.556.381.427.927.672 1.497.672h12c.57 0 1.116-.245 1.497-.672.38-.426.556-.992.496-1.556z"/></svg>