<svg id="Layer_1" viewBox="0 0 24 24" xmlns="http://www.w3.org/2000/svg" data-name="Layer 1"><path d="m5.5 19c-1.381 0-2.5-1.119-2.5-2.5s1.119-2.5 2.5-2.5 2.5 1.119 2.5 2.5-1.119 2.5-2.5 2.5m2.485-11.015h2v2h-2zm2 4v4.5c0-1.56-.795-2.933-2-3.74v-.76zm13.722 10.308c.39.39.39 1.024 0 1.414-.39.39-1.024.39-1.414 0l-4.015-4.015c-.777-.777-3.282-.751-5.701-.719-.52.006-1.052.012-1.592.012h-.03c-.544-.007-1.064-.09-1.617-.208.341-.572.559-1.223.62-1.92.263.047.538.081.816.097.655.039 1.211-.479 1.211-1.135v-3.835l4.012.012c.553.002 1.003-.447 1.003-1 0-.551-.446-.998-.997-1l-4.018-.012v-2l2.513.01c.553.002 1.002-.445 1.002-.998 0-.551-.447-.998-.998-.998h-2.502l-.005-1.995c.003-.554-.446-1.005-1-1.005-.55 0-.997.445-1 .995l-.01 1.99h-2l.011-2.982c.002-.554-.446-1.004-1-1.004-.551 0-.998.445-1 .996l.004 3.004h-3.007c-.548 0-.993.445-.993.993 0 .548.445.992.993.992h2.992v2h-2.074c-.772 0-1.244.833-.868 1.507.093.167.191.331.294.493.113.153.218.283.318.403-.632.289-1.188.717-1.626 1.248-2.752-3.82-2.729-8.128.235-11.228l-.007-.007c3.593-3.592 8.883-3.129 13.164 1.152 2.326 2.326 3.53 4.926 3.564 7.413v.022c0 .427-.005.868-.01 1.315-.025 2.195-.059 5.201.717 5.978z"/></svg>