<svg id="Layer_1" viewBox="0 0 24 24" xmlns="http://www.w3.org/2000/svg" data-name="Layer 1"><path d="m9.993 5h-4v-2.705c0-.581.323-1.103.843-1.363l1.641-.821c.327-.164.708-.146 1.019.046.311.193.497.526.497.891zm13.712 11.717-1.302-3.472c-.277-.737-.721-1.381-1.278-1.898.931-.535 2.119-1.463 2.781-2.938.226-.504 0-1.096-.503-1.321-.502-.226-1.096 0-1.322.503-.982 2.002-2.796 2.318-3.117 2.581-.437-.115-.895-.182-1.358-.172l.23-3h-3.696l.236 3h-3.382v-1.5c0-.828-.672-1.5-1.5-1.5h-3c-.828 0-1.5.672-1.5 1.5v1.681c-1.539.412-2.835 1.538-3.407 3.072l-1.304 3.499c-.274.822-.35 1.695-.221 2.566.405 2.744 2.926 4.682 5.699 4.682h12.487c3.066 0 5.788-2.506 5.752-5.572-.007-.571-.102-1.136-.295-1.711zm-9.712-11.717h4l.943-3.038c.096-.46-.066-.95-.443-1.231-.627-.467-1.693-.738-2.496-.731-.808-.007-1.874.268-2.504.74-.376.282-.537.771-.441 1.231l.941 3.03z"/></svg>