<svg id="Layer_1" viewBox="0 0 24 24" xmlns="http://www.w3.org/2000/svg" data-name="Layer 1"><path d="m21 23c0 .552-.448 1-1 1-.552 0-1-.448-1-1 0-.552.448-1 1-1 .552 0 1 .448 1 1zm2-4c-.552 0-1 .448-1 1 0 .552.448 1 1 1 .552 0 1-.448 1-1 0-.552-.448-1-1-1zm-3 0c-.552 0-1 .448-1 1 0 .552.448 1 1 1 .552 0 1-.448 1-1 0-.552-.448-1-1-1zm-2-3v-1c0-1.103-.897-2-2-2h-1c-1.103 0-2 .897-2 2v1c0 1.103.897 2 2 2h1c1.103 0 2-.897 2-2zm-2-1v1s-1 0-1 0v-1zm2 7v-1c0-1.103-.897-2-2-2h-1c-1.103 0-2 .897-2 2v1c0 1.103.897 2 2 2h1c1.103 0 2-.897 2-2zm-2-1v1s-1 0-1 0v-1zm8-5v-1c0-1.103-.897-2-2-2h-1c-1.103 0-2 .897-2 2v1c0 1.103.897 2 2 2h1c1.103 0 2-.897 2-2zm-2-1v1s-1 0-1 0v-1zm-10-9c-1.103 0-2 .897-2 2s.897 2 2 2 2-.897 2-2-.897-2-2-2zm-1 10h-6c-2.757 0-5-2.243-5-5v-6c0-2.757 2.243-5 5-5h14c2.757 0 5 2.243 5 5v6c0 .181-.035.352-.053.527-.579-.326-1.237-.527-1.947-.527h-1c-.951 0-1.813.347-2.5.903-.687-.556-1.549-.903-2.5-.903h-1c-.149 0-.291.028-.436.044.87-.734 1.436-1.819 1.436-3.044 0-2.206-1.794-4-4-4s-4 1.794-4 4 1.794 4 4 4c.149 0 .291-.028.436-.044-.87.734-1.436 1.819-1.436 3.044zm7-11.5c0 .828.672 1.5 1.5 1.5s1.5-.672 1.5-1.5-.672-1.5-1.5-1.5-1.5.672-1.5 1.5zm-12 7c0-.828-.672-1.5-1.5-1.5s-1.5.672-1.5 1.5.672 1.5 1.5 1.5 1.5-.672 1.5-1.5zm0-7c0-.828-.672-1.5-1.5-1.5s-1.5.672-1.5 1.5.672 1.5 1.5 1.5 1.5-.672 1.5-1.5z"/></svg>