<svg id="Layer_1" viewBox="0 0 24 24" xmlns="http://www.w3.org/2000/svg" data-name="Layer 1"><path d="m22 9.586v-7.586h1c.552 0 1-.447 1-1s-.448-1-1-1h-22c-.552 0-1 .447-1 1s.448 1 1 1h1v11c0 .552.449 1 1 1s1-.448 1-1v-5c0-1.654 1.346-3 3-3s3 1.346 3 3v3c0 .552.449 1 1 1s1-.448 1-1v-5.817l-1.476-1.476c-.391-.391-.391-1.023 0-1.414.339-.339.851-.365 1.238-.117l10.531 10.531c.391.391 1.023.391 1.414 0s.391-1.023 0-1.414zm-8-2.403 8 8v3.817c0 2.757-2.243 5-5 5h-10c-2.757 0-5-2.243-5-5v-3.184c.314.112.648.184 1 .184 1.654 0 3-1.346 3-3v-5c0-.552.449-1 1-1s1 .448 1 1v3c0 1.654 1.346 3 3 3s3-1.346 3-3z"/></svg>