<svg id="Layer_1" viewBox="0 0 24 24" xmlns="http://www.w3.org/2000/svg" data-name="Layer 1"><path d="m17.5 21.5c0 1.381-1.119 2.5-2.5 2.5s-2.5-1.119-2.5-2.5 1.119-2.5 2.5-2.5 2.5 1.119 2.5 2.5zm4-2.5c-1.381 0-2.5 1.119-2.5 2.5s1.119 2.5 2.5 2.5 2.5-1.119 2.5-2.5-1.119-2.5-2.5-2.5zm-12.5 0c-1.381 0-2.5 1.119-2.5 2.5s1.119 2.5 2.5 2.5 2.5-1.119 2.5-2.5-1.119-2.5-2.5-2.5zm-6.5 0c-1.381 0-2.5 1.119-2.5 2.5s1.119 2.5 2.5 2.5 2.5-1.119 2.5-2.5-1.119-2.5-2.5-2.5zm16.6-1.005c2.15 0 3.9-1.75 3.9-3.901 0-2.851-2.028-5.324-4.823-5.883l-1.741-.348-2.067 3.628c-.275.484-.893.644-1.364.374-.479-.273-.647-.885-.374-1.364l1.738-3.051-.067-.013c-.218-.044-.42-.124-.605-.231l-3.024 1.837c-.464.284-1.085.141-1.374-.335-.287-.473-.137-1.087.335-1.374l3.043-1.849-.064-.489h-3.614c-.553 0-1-.447-1-1s.447-1 1-1h3.352l-.056-.424c-.118-.824-.578-1.568-1.263-2.042-.686-.475-1.543-.646-2.414-.448l-4.708 1.333c-1.714.485-2.91 2.068-2.91 3.849v8.731c0 2.206 1.794 4 4 4z"/></svg>