<?xml version="1.0" encoding="UTF-8"?>
<svg xmlns="http://www.w3.org/2000/svg" id="Layer_1" data-name="Layer 1" viewBox="0 0 24 24">
  <path d="m12.4,10.5v3c0,.496-.404.9-.9.9s-.9-.404-.9-.9v-3c0-.496.404-.9.9-.9s.9.404.9.9Zm11.6,1.5c0,6.627-5.373,12-12,12S0,18.627,0,12,5.373,0,12,0s12,5.373,12,12Zm-19.178,2.4c.268-.26.691-.575.963-.777.993-.738,2.229-1.657,2.229-3.023,0-1.434-1.128-2.6-2.514-2.6s-2.514,1.167-2.514,2.6c0,.442.358.8.8.8s.8-.358.8-.8c0-.552.41-1,.915-1s.915.449.915,1c0,.562-.841,1.188-1.584,1.739-.914.679-1.859,1.382-1.859,2.411,0,.606.431,1.25,1.229,1.25h3c.442,0,.8-.358.8-.8s-.358-.8-.8-.8h-2.378Zm9.178-3.9c0-1.381-1.119-2.5-2.5-2.5s-2.5,1.119-2.5,2.5v3c0,1.381,1.119,2.5,2.5,2.5s2.5-1.119,2.5-2.5v-3Zm2.25-.019c.69,0,1.25-.56,1.25-1.25s-.56-1.25-1.25-1.25-1.25.56-1.25,1.25.56,1.25,1.25,1.25Zm.765,5.137l4.178-6.4c.347-.532-.034-1.237-.67-1.237-.27,0-.522.136-.67.363l-4.178,6.4c-.347.532.034,1.237.67,1.237.27,0,.522-.136.67-.363Zm4.985-.887c0-.69-.56-1.25-1.25-1.25s-1.25.56-1.25,1.25.56,1.25,1.25,1.25,1.25-.56,1.25-1.25Z"/>
</svg>
