<svg id="Layer_1" viewBox="0 0 24 24" xmlns="http://www.w3.org/2000/svg" data-name="Layer 1"><path d="m23.883 11.469c.362-.634-.153-1.491-.883-1.469h-10c-.731-.022-1.245.834-.883 1.469.195.368.645 1.105 1.409 1.811l-.61.978c-.292.469-.149 1.085.319 1.378.462.289 1.083.153 1.378-.319l.574-.92c.528.246 1.131.432 1.813.528v1.076c0 .552.448 1 1 1s1-.448 1-1v-1.076c.663-.093 1.252-.273 1.769-.509l.598.96c.294.473.916.609 1.378.32.469-.292.612-.909.32-1.378l-.627-1.007c.785-.716 1.247-1.469 1.445-1.843zm-12.883-1.469h-10c-.731-.022-1.245.834-.883 1.469.195.368.645 1.105 1.409 1.811l-.61.978c-.292.469-.149 1.085.319 1.378.462.289 1.083.153 1.378-.319l.574-.92c.528.246 1.131.432 1.813.528v1.076c0 .552.448 1 1 1s1-.448 1-1v-1.076c.663-.093 1.252-.273 1.769-.509l.598.96c.294.473.916.609 1.378.32.469-.292.612-.909.32-1.378l-.627-1.007c.785-.716 1.247-1.469 1.445-1.843.362-.634-.153-1.491-.883-1.469z"/></svg>