<svg id="Layer_1" viewBox="0 0 24 24" xmlns="http://www.w3.org/2000/svg" data-name="Layer 1"><path d="m21.333 10.632c-2.423-2.342-5.853-2.632-7.889-2.633-.532-.912-1.407-1.591-2.454-1.861-.029-1.363-.563-2.642-1.531-3.61-.64-.64-1.439-1.106-2.311-1.348l-3.909-1.086c-.547-.152-1.112-.094-1.622.109l4.09 4.09c.391.391.391 1.023 0 1.414-.195.195-.451.293-.707.293s-.512-.098-.707-.293l-4.09-4.09c-.203.511-.261 1.076-.109 1.622l1.087 3.908c.242.872.708 1.67 1.349 2.312.968.967 2.247 1.501 3.609 1.53.269 1.047.948 1.921 1.86 2.454 0 2.036.29 5.468 2.632 7.89 1.71 1.77 4.19 2.667 7.369 2.667.552 0 1-.448 1-1s-.448-1-1-1c-2.616 0-4.612-.692-5.931-2.057-1.642-1.698-2.001-4.185-2.058-5.944 2.197-.006 3.983-1.792 3.989-3.989 1.76.058 4.245.418 5.944 2.06 1.365 1.32 2.057 3.314 2.057 5.93 0 .552.448 1 1 1s1-.448 1-1c0-3.178-.897-5.657-2.667-7.368zm-11.333.868c-.827 0-1.5-.673-1.5-1.5s.673-1.5 1.5-1.5 1.5.673 1.5 1.5-.673 1.5-1.5 1.5z"/></svg>