<svg id="Layer_1" viewBox="0 0 24 24" xmlns="http://www.w3.org/2000/svg" data-name="Layer 1"><path d="m0 6.5c0-1.381 1.119-2.5 2.5-2.5s2.5 1.119 2.5 2.5-1.119 2.5-2.5 2.5-2.5-1.119-2.5-2.5zm4 15.5h-3c-.552 0-1 .448-1 1s.448 1 1 1h3c.552 0 1-.448 1-1s-.448-1-1-1zm17.5-13c1.381 0 2.5-1.119 2.5-2.5s-1.119-2.5-2.5-2.5-2.5 1.119-2.5 2.5 1.119 2.5 2.5 2.5zm-15 9h-1.5v-5.5c0-1.381-1.119-2.5-2.5-2.5s-2.5 1.119-2.5 2.5v4.5c0 1.637 1.318 2.971 2.948 2.999.017 0 3.552.001 3.552.001.276 0 .5.224.5.5v2.5c0 .552.448 1 1 1s1-.448 1-1v-2.5c0-1.378-1.122-2.5-2.5-2.5zm8.5 2.5v2.5c0 .552.448 1 1 1s1-.448 1-1v-2.5c0-.276.224-.5.5-.5 0 0 3.535 0 3.552-.001 1.63-.028 2.948-1.362 2.948-2.999v-4.5c0-1.381-1.119-2.5-2.5-2.5s-2.5 1.119-2.5 2.5v5.5s-1.5 0-1.5 0c-1.378 0-2.5 1.122-2.5 2.5zm8 1.5h-3c-.552 0-1 .448-1 1s.448 1 1 1h3c.552 0 1-.448 1-1s-.448-1-1-1zm-6-8c0-.552-.448-1-1-1h-8c-.552 0-1 .448-1 1s.448 1 1 1h8c.552 0 1-.448 1-1zm-.178-10c-.303-.844-.974-1.514-1.822-1.816.088-1.164-.822-2.19-2-2.184h-2c-1.178-.005-2.087 1.02-2 2.184-.847.302-1.519.971-1.822 1.816zm-3.822 2v1c0 .552-.448 1-1 1s-1-.448-1-1v-1h-4v1c0 1.654 1.346 3 3 3h4c1.654 0 3-1.346 3-3v-1z"/></svg>