<svg id="Layer_1" viewBox="0 0 24 24" xmlns="http://www.w3.org/2000/svg" data-name="Layer 1"><path d="m18 12c-3.314 0-6 2.686-6 6s2.686 6 6 6 6-2.686 6-6-2.686-6-6-6zm2.688 6.6h-5.003c.268 1.032 1.2 1.8 2.315 1.8.544 0 1.167-.156 1.564-.467.348-.273.843-.253 1.183.03.318.265.344.758.038 1.037-.702.64-1.758 1-2.785 1-2.498-.01-4.502-2.32-3.89-4.954.332-1.439 1.502-2.606 2.941-2.937 2.309-.531 4.356.935 4.836 2.999.188.76-.415 1.492-1.199 1.492zm-.513-1.6h-4.35c.381-.824 1.209-1.4 2.175-1.4s1.794.576 2.175 1.4zm-9.098-5c.469 0 .908.117 1.303.309 1.445-1.427 3.429-2.309 5.62-2.309v-2.343c0-1.326-.527-2.598-1.464-3.536l-2.657-2.657c-.938-.938-2.209-1.464-3.536-1.464h-5.343c-2.761 0-5 2.239-5 5v14c0 2.761 2.239 5 5 5h7.721c-1.183-1.042-2.049-2.428-2.457-4h-3.187c-1.657 0-3-1.343-3-3h5.994c.089-.698.261-1.37.516-2h-1.51v-3zm-4 3h-3c0-1.657 1.343-3 3-3z"/></svg>