<svg id="Layer_1" viewBox="0 0 24 24" xmlns="http://www.w3.org/2000/svg" data-name="Layer 1"><path d="m6.211 14.146c-.108.464-.419.854-.83 1.094l-2.59 1.513c-.467.279-1.086.131-1.371-.348-.282-.475-.127-1.088.348-1.371l2.709-1.612c.241-.13.355-.357.301-.54-.088-.29-.155-.585-.201-.882h-3.577c-.553 0-1-.448-1-1s.447-1 1-1h3.575c.074-.488.206-.958.387-1.404l-3.078-1.803c-.477-.279-.637-.892-.358-1.368.279-.477.893-.637 1.368-.357l3.1 1.814c.284-.342.604-.655.951-.934l-1.834-3.093c-.281-.475-.125-1.088.351-1.37.474-.281 1.089-.125 1.37.351l1.843 3.109c.425-.167.869-.29 1.326-.363v-3.582c0-.552.447-1 1-1s1 .448 1 1v3.577c.504.079.965.214 1.384.387l1.823-3.115c.279-.477.893-.638 1.368-.357.477.279.637.892.358 1.368l-1.843 3.146c.242.203.455.41.641.608.172.184.425.228.63.108l2.641-1.75c.46-.306 1.081-.179 1.386.282.305.46.179 1.081-.282 1.386l-2.447 1.429c-.451.263-.99.352-1.493.21-1.472-.416-3.087-.419-4.676.088-.914.291-1.765.774-2.502 1.388-1.529 1.271-2.404 2.786-2.776 4.391zm8.789 5.095c-.544.679-1 1.458-1 1.759 0 .267.104.518.293.707.379.377 1.035.377 1.414 0 .188-.189.293-.44.293-.707 0-.33-.478-1.109-1-1.759zm5.306-5.094s-.627-.144-.763-.47c-1.053-2.539-3.693-4.033-6.439-3.638-2.378.347-4.359 2.152-4.929 4.493-.219.897-.232 1.801-.057 2.731-1.606.689-2.446 2.432-1.996 4.144.31 1.176 1.27 2.135 2.445 2.445.273.072.553.112.834.121.653.018 2.53.026 4.49.026h1.094c-.795-.004-1.544-.315-2.107-.878-.566-.566-.879-1.32-.879-2.121 0-1.359 1.437-3.036 1.876-3.518.636-.627 1.61-.626 2.209-.04.476.511 1.915 2.171 1.915 3.558 0 .801-.313 1.555-.879 2.121-.563.563-1.311.874-2.106.877 1.737-.003 3.368-.011 4.082-.024.354-.007.712-.051 1.064-.131 1.832-.419 3.285-1.87 3.704-3.696.611-2.66-.952-5.295-3.56-6z"/></svg>