<svg id="Layer_1" viewBox="0 0 24 24" xmlns="http://www.w3.org/2000/svg" data-name="Layer 1"><path d="m18 0c-3.31 0-6 2.69-6 6s2.69 6 6 6 6-2.69 6-6-2.69-6-6-6zm-1 3c0-.55.45-1 1-1s1 .45 1 1v2c0 .55-.45 1-1 1s-1-.45-1-1zm1 7c-.83 0-1.5-.67-1.5-1.5s.67-1.5 1.5-1.5 1.5.67 1.5 1.5-.67 1.5-1.5 1.5zm-8.08 6.39-3 7c-.16.38-.53.61-.92.61-.13 0-.27-.03-.39-.08-.51-.22-.74-.81-.52-1.31l3-7c.22-.51.8-.75 1.31-.53s.74.81.52 1.31zm13.99-5.02c.49 3.34-1.24 6.35-3.93 7.77-.46.24-.96-.26-.75-.73l.48-1.13c.25-.58.36-1.24.23-1.86-.12-.6-.42-1.11-.82-1.52 1.89-.27 3.56-1.19 4.79-2.54zm-17.67 3.45-1.81 4.22c-.19.45-.73.68-1.18.47-2.14-.96-3.57-3.26-3.19-5.84.18-1.26.87-2.38 1.78-3.28.25-.24.37-.57.31-.87-.18-.95-.19-1.92-.03-2.89.54-3.28 3.11-5.89 6.38-6.49 1.31-.24 2.62-.15 3.83.22-1.44 1.45-2.33 3.44-2.33 5.64 0 3.38 2.1 6.26 5.06 7.43-.4.02-.68-.11-.87-.19-.74-.32-1.58-.4-2.3-.04-.82.42-1.4.16-1.71.03-.74-.32-1.55-.33-2.3-.03s-1.33.87-1.64 1.6zm11.68 1.57-3 7c-.16.38-.53.61-.92.61-.13 0-.27-.03-.39-.08-.51-.22-.74-.81-.53-1.31l3-7c.22-.51.81-.74 1.31-.53.51.22.74.81.53 1.31zm-4 0-3 7c-.16.38-.53.61-.92.61-.13 0-.27-.03-.39-.08-.51-.22-.74-.81-.52-1.31l3-7c.22-.51.81-.74 1.31-.53.51.22.74.81.53 1.31z"/></svg>