<svg id="Layer_1" viewBox="0 0 24 24" xmlns="http://www.w3.org/2000/svg" data-name="Layer 1"><path d="m14.5 24h-12.8c-.939 0-1.7-.761-1.7-1.7v-.6c0-.939.761-1.7 1.7-1.7h3.8l1 1h3l1-1h4c.939 0 1.7.761 1.7 1.7v.6c0 .939-.761 1.7-1.7 1.7zm.5-20.5c.234 0 .469-.082.658-.248 1.906-1.667 4.778-1.667 6.683 0 .414.361 1.046.321 1.411-.095.363-.416.321-1.047-.095-1.411-2.654-2.322-6.661-2.323-9.315.001-.416.364-.458.995-.095 1.411.198.226.475.341.753.341zm-13.3 14.5h4.628l1 1h1.344l1-1h4.828c.171 0 .335.028.5.051v-3.551c0-1.933-1.567-3.5-3.5-3.5h-7c-1.933 0-3.5 1.567-3.5 3.5v3.571c.227-.044.46-.071.7-.071zm19.3-12h-1v-1c0-.552-.447-1-1-1s-1 .448-1 1v1h-8c-1.654 0-3 1.346-3 3h4.5c2.512 0 4.631 1.695 5.287 4h4.213c1.654 0 3-1.346 3-3v-1c0-1.654-1.346-3-3-3z"/></svg>