<svg id="Layer_1" viewBox="0 0 24 24" xmlns="http://www.w3.org/2000/svg" data-name="Layer 1"><path d="m2.053 6.2c.253-1.874 1.54-3.466 3.373-4.074l6.259-2.075c.205-.067.425-.067.63 0l6.259 2.075c1.833.608 3.12 2.2 3.373 4.073-.462-.126-.945-.199-1.447-.199h-17c-.501 0-.985.073-1.447.2zm21.654 17.507c-.195.195-.451.293-.707.293s-.512-.098-.707-.293l-2.54-2.54c-.791.524-1.736.833-2.753.833-2.757 0-5-2.243-5-5s2.243-5 5-5 5 2.243 5 5c0 1.017-.309 1.962-.833 2.753l2.54 2.54c.391.391.391 1.023 0 1.414zm-13.413-4.707h-5.4c2.191 2.484 5.025 4.076 6.259 4.693 0 0 .542.307.85.307s.791-.24.791-.24c.287-.115.671-.285 1.101-.494-1.722-.856-3.042-2.394-3.6-4.266zm10.206-11h-17c-1.93 0-3.5 1.57-3.5 3.5v2c0 1.93 1.57 3.5 3.5 3.5h6.5c0-3.866 3.134-7 7-7 3.145 0 5.805 2.074 6.688 4.928.197-.437.312-.919.312-1.428v-2c0-1.93-1.57-3.5-3.5-3.5z"/></svg>