<svg id="Layer_1" viewBox="0 0 24 24" xmlns="http://www.w3.org/2000/svg" data-name="Layer 1"><path d="m.271 4.449c-.378-.403-.357-1.036.046-1.413 2.088-1.958 4.817-3.036 7.683-3.036s5.595 1.078 7.684 3.036c.403.377.424 1.01.046 1.413-.196.21-.463.316-.729.316-.245 0-.491-.089-.684-.271-1.717-1.608-3.96-2.495-6.316-2.495s-4.601.887-6.317 2.496c-.401.378-1.036.359-1.413-.046zm3.546 2.205c-.403.377-.424 1.01-.046 1.414.38.403 1.012.424 1.413.045 1.58-1.48 4.053-1.48 5.633 0 .192.181.438.271.684.271.267 0 .533-.106.729-.316.378-.403.357-1.036-.046-1.414-2.346-2.199-6.021-2.199-8.367 0zm20.184 11.347v2c0 2.206-1.794 4-4 4h-4c-2.206 0-4-1.794-4-4v-2c0-1.474.81-2.75 2-3.444v-1.556c0-2.206 1.794-4 4-4s4 1.794 4 4v1.556c1.19.694 2 1.97 2 3.444zm-4.5 1c0-.828-.672-1.5-1.5-1.5s-1.5.672-1.5 1.5.672 1.5 1.5 1.5 1.5-.672 1.5-1.5zm.5-6c0-1.103-.897-2-2-2s-2 .897-2 2v1h4zm-10 5c0-1.067.293-2.1.819-3h-1.819v-4c0-.552-.447-1-1-1s-1 .448-1 1v4h-3c-2.206 0-4 1.794-4 4v1c0 2.206 1.794 4 4 4h7.54c-.954-1.063-1.54-2.462-1.54-4z"/></svg>