<svg id="Layer_1" viewBox="0 0 24 24" xmlns="http://www.w3.org/2000/svg" data-name="Layer 1"><path d="m24 8c0 1.654-1.346 3-3 3 0 .553-.447 1-1 1s-1-.447-1-1h-.268c-1.067 0-2.063-.574-2.598-1.499-.277-.479-.113-1.09.364-1.366.479-.279 1.091-.114 1.366.364.179.31.511.501.867.501h2.268c.552 0 1-.448 1-1 0-.379-.271-.698-.645-.761l-3.04-.506c-1.342-.224-2.315-1.374-2.315-2.733 0-1.654 1.346-3 3-3 0-.553.447-1 1-1s1 .447 1 1h.268c1.067 0 2.063.574 2.598 1.499.277.479.113 1.09-.364 1.366-.48.277-1.091.113-1.366-.364-.179-.31-.511-.501-.867-.501h-2.268c-.552 0-1 .448-1 1 0 .379.271.698.645.761l3.04.506c1.342.224 2.315 1.374 2.315 2.733zm-2 15c0 .552-.448 1-1 1h-18c-.552 0-1-.448-1-1s.448-1 1-1v-7h5.257c-.4-.596-.629-1.281-.709-2h-4.548c-.552 0-1-.448-1-1s.448-1 1-1v-9c-.552 0-1-.448-1-1s.448-1 1-1h13.031c-1.225.912-2.031 2.359-2.031 4 0 1.055.34 2.036.926 2.832-.396.376-.68.854-.824 1.394-.207.775-.1 1.584.302 2.275.71 1.231 1.914 2.079 3.275 2.375.55.68 1.381 1.124 2.322 1.124.352 0 .686-.072 1-.184v8.184c.552 0 1 .448 1 1zm-8.232-12.268-1.02-.997c-.416-.407-1.081-.407-1.496 0l-1.02.997c-.976.976-.976 2.559 0 3.536.488.488 1.128.732 1.768.732s1.28-.244 1.768-.732c.976-.976.976-2.559 0-3.536z"/></svg>