<svg id="Layer_1" viewBox="0 0 24 24" xmlns="http://www.w3.org/2000/svg" data-name="Layer 1"><path d="m22.996 6v-2c0-.552-.448-1-1-1s-.996.448-.996 1v2h-1v-2c0-.552-.451-1-1.003-1s-.997.448-.997 1v2h-1v-2c0-.552-.451-1-1.003-1s-.997.448-.997 1v2h-5.002c0-1.654-1.345-3-2.999-3h-2.999c-2.206 0-4 1.794-4 4s1.794 4 3.999 4h2.999c1.654 0 2.999-1.346 2.999-3h5.002v2c0 .552.445 1 .997 1s1.003-.448 1.003-1v-2h1v2c0 .552.445 1 .997 1s1.003-.448 1.003-1v-2h1v2c0 .552.444 1 .996 1s1-.448 1-1v-2c.552 0 1-.448 1-1s-.448-1-1-1zm.883 9.469c.362-.634-.153-1.491-.883-1.469h-9.998c-.731-.022-1.245.834-.883 1.469.195.368.645 1.105 1.409 1.811l-.61.978c-.292.469-.149 1.085.319 1.378.461.289 1.083.153 1.378-.319l.574-.92c.528.246 1.131.432 1.813.528v1.076c0 .552.448 1 1 1s1-.448 1-1v-1.076c.663-.093 1.251-.273 1.768-.509l.598.96c.294.473.916.609 1.378.32.469-.292.612-.909.32-1.378l-.627-1.007c.785-.716 1.247-1.469 1.445-1.843zm-12.881-1.469h-9.998c-.731-.022-1.245.834-.883 1.469.195.368.645 1.105 1.409 1.811l-.61.978c-.292.469-.149 1.085.319 1.378.461.289 1.083.153 1.378-.319l.574-.92c.528.246 1.131.432 1.813.528v1.076c0 .552.448 1 1 1s1-.448 1-1v-1.076c.663-.093 1.251-.273 1.768-.509l.598.96c.294.473.916.609 1.378.32.469-.292.612-.909.32-1.378l-.627-1.007c.785-.716 1.247-1.469 1.445-1.843.362-.634-.153-1.491-.883-1.469z"/></svg>