<svg id="Layer_1" viewBox="0 0 24 24" xmlns="http://www.w3.org/2000/svg" data-name="Layer 1"><path d="m2 18v1c0 2.757 2.243 5 5 5h6c2.757 0 5-2.243 5-5v-1zm9 4h-2c-.553 0-1-.448-1-1s.447-1 1-1h2c.553 0 1 .448 1 1s-.447 1-1 1zm11-15.444v-1.556c0-2.206-1.794-4-4-4s-4 1.794-4 4v1.556c-1.19.694-2 1.97-2 3.444v2c0 2.206 1.794 4 4 4h4c2.206 0 4-1.794 4-4v-2c0-1.474-.81-2.75-2-3.444zm-4 5.944c-.828 0-1.5-.672-1.5-1.5s.672-1.5 1.5-1.5 1.5.672 1.5 1.5-.672 1.5-1.5 1.5zm2-6.5h-4v-1c0-1.103.897-2 2-2s2 .897 2 2zm-8.46 10h-9.54v-11c0-2.757 2.243-5 5-5h7.69c-1.62 1.076-2.69 2.914-2.69 5v.552c-1.255 1.127-2 2.745-2 4.448v2c0 1.538.586 2.937 1.54 4z"/></svg>