<?xml version="1.0" encoding="UTF-8"?>
<svg xmlns="http://www.w3.org/2000/svg" id="Layer_1" data-name="Layer 1" viewBox="0 0 24 24">
  <path d="M20,16H4c-2.206,0-4,1.794-4,4s1.794,4,4,4H20c2.206,0,4-1.794,4-4s-1.794-4-4-4Zm0,6h-4v-4h4c1.103,0,2,.897,2,2s-.897,2-2,2ZM12,0c-3.86,0-7,3.141-7,7s3.14,7,7,7,7-3.141,7-7S15.86,0,12,0Zm2.5,9.5c-.195,.195-.451,.293-.707,.293s-.512-.098-.707-.293l-1.793-1.793c-.188-.188-.293-.441-.293-.707v-3c0-.553,.448-1,1-1s1,.447,1,1v2.586l1.5,1.5c.391,.391,.391,1.023,0,1.414Z"/>
</svg>
