<svg id="Layer_1" viewBox="0 0 24 24" xmlns="http://www.w3.org/2000/svg" data-name="Layer 1"><path d="m19 6.045v-1.045c0-1.103-.897-2-2-2-.553 0-1-.448-1-1s.447-1 1-1c2.206 0 4 1.794 4 4v1.008l1.305-1.226c.397-.383 1.03-.374 1.414.022.384.397.374 1.03-.023 1.414l-2.27 2.198c-.389.389-.904.583-1.421.583-.521 0-1.042-.198-1.439-.594l-2.26-2.188c-.397-.384-.407-1.017-.023-1.414.385-.396 1.018-.406 1.414-.022l1.305 1.263zm-16.435 2.361c.397.396.919.594 1.439.594.517 0 1.032-.195 1.421-.583l2.27-2.198c.397-.384.407-1.017.023-1.414-.384-.396-1.017-.406-1.414-.022l-1.305 1.226v-1.008c0-1.103.897-2 2-2 .553 0 1-.448 1-1s-.447-1-1-1c-2.206 0-4 1.794-4 4v1.045l-1.305-1.263c-.397-.384-1.029-.374-1.414.022-.384.397-.374 1.03.023 1.414l2.26 2.188zm9.435-4.406c1.105 0 2-.895 2-2s-.895-2-2-2-2 .895-2 2 .895 2 2 2zm-2.231 4h4.461c.681 0 1.095-.749.74-1.33-.612-1.001-1.71-1.67-2.971-1.67s-2.359.669-2.971 1.67c-.355.581.059 1.33.74 1.33zm13.231 2.904h-4.383c-.465 0-.924-.108-1.341-.316l-.649-.324c-1.284-.646-2.835-.393-3.852.625l-3.432 3.299c-.371.372-.455.967-.181 1.347.342.507 1.109.573 1.527.135l2.336-2.302 7.161 6.596h2.814c.552 0 1-.448 1-1v-7.058c0-.552-.448-1-1-1zm-10.928 6.246c-1.222 1.274-3.534 1.07-4.535-.412-.833-1.153-.678-2.816.355-3.886l2.667-2.479c-.927-.475-2.044-.5-3.014-.015l-.649.324c-.417.208-.876.317-1.342.317h-4.554c-.552.001-1 .449-1 1.001v7c0 .552.448 1 1 1h2.81c1.115 0 2.198.372 3.076 1.058l2.709 2.114c.687.536 1.533.827 2.404.827s1.717-.291 2.404-.827l3.381-2.639-4.778-4.279-.935.895z"/></svg>