<svg id="Layer_1" viewBox="0 0 24 24" xmlns="http://www.w3.org/2000/svg" data-name="Layer 1"><path d="m6 6v-.336l1.054-3.276c.266-.827 1.035-1.388 1.904-1.388h2.042c0-.552.447-1 1-1s1 .448 1 1h2.042c.869 0 1.638.561 1.904 1.388l1.054 3.276v.336c0 1.214-1.082 2.176-2.335 1.973-.984-.16-1.665-1.083-1.665-2.079v-.23l.842-2.664h-1.842v6h2c.553 0 1 .448 1 1s-.447 1-1 1h-6c-.553 0-1-.448-1-1s.447-1 1-1h2v-6h-1.842l.842 2.664v.23c0 .996-.681 1.92-1.665 2.079-1.253.203-2.335-.758-2.335-1.973zm4 10c0 1.105.895 2 2 2s2-.895 2-2-.895-2-2-2-2 .895-2 2zm7-1.5c0 1.381 1.119 2.5 2.5 2.5s2.5-1.119 2.5-2.5-1.119-2.5-2.5-2.5-2.5 1.119-2.5 2.5zm-12.5 2.5c1.381 0 2.5-1.119 2.5-2.5s-1.119-2.5-2.5-2.5-2.5 1.119-2.5 2.5 1.119 2.5 2.5 2.5zm15.25 1c-2.347 0-4.25 1.903-4.25 4.25v.25c0-1.933-1.567-3.5-3.5-3.5s-3.5 1.567-3.5 3.5v-.25c0-2.347-1.903-4.25-4.25-4.25s-4.25 1.903-4.25 4.25v.75c0 .552.448 1 1 1h6.5c.552 0 1-.448 1-1 0 .552.448 1 1 1h5c.552 0 1-.448 1-1 0 .552.448 1 1 1h6.5c.552 0 1-.448 1-1v-.75c0-2.347-1.903-4.25-4.25-4.25z"/></svg>