<svg id="Layer_1" viewBox="0 0 24 24" xmlns="http://www.w3.org/2000/svg" data-name="Layer 1"><path d="m20 16v-11c0-2.757-2.243-5-5-5h-6c-2.757 0-5 2.243-5 5v11zm-9.575-4.417c-.488.232-1.095.025-1.331-.48-.235-.5-.02-1.095.48-1.331.946-.444 1.425-1.377 1.425-2.773 0-.552.448-1 1-1s1 .448 1 1c0 2.175-.915 3.803-2.575 4.583zm4.502-.067c-.356.591-.811 1.153-1.353 1.669-.399.381-1.032.367-1.414-.034-.381-.399-.366-1.033.034-1.414.412-.393.755-.815 1.02-1.254.285-.473.9-.626 1.373-.34.473.285.625.899.34 1.373zm-.135-6.002c.544-.091 1.061.276 1.152.82.09.579.058 1.123.027 1.736-.037.552-.523.968-1.067.928-.551-.039-.966-.517-.928-1.067.021-.439.051-.852-.005-1.264-.091-.545.276-1.061.82-1.152zm-2.792-2.514c.457 0 .905.077 1.334.229.521.185.793.756.609 1.277s-.756.793-1.277.609c-.213-.076-.438-.114-.666-.114-1.103 0-2 .897-2 2 0 .552-.448 1-1 1s-1-.448-1-1c0-2.206 1.794-4 4-4zm-8 15v1c0 2.757 2.243 5 5 5h6c2.757 0 5-2.243 5-5v-1zm9 4h-2c-.552 0-1-.448-1-1s.448-1 1-1h2c.552 0 1 .448 1 1s-.448 1-1 1z"/></svg>