<svg id="Layer_1" viewBox="0 0 24 24" xmlns="http://www.w3.org/2000/svg" data-name="Layer 1"><path d="m1 8c-.553 0-1-.447-1-1v-2c0-2.757 2.243-5 5-5h2c.553 0 1 .447 1 1s-.447 1-1 1h-2c-1.654 0-3 1.346-3 3v2c0 .553-.447 1-1 1zm23-1v-2c0-2.757-2.243-5-5-5h-2c-.553 0-1 .447-1 1s.447 1 1 1h2c1.654 0 3 1.346 3 3v2c0 .553.447 1 1 1s1-.447 1-1zm0 12v-2c0-.553-.447-1-1-1s-1 .447-1 1v2c0 1.654-1.346 3-3 3h-2c-.553 0-1 .447-1 1s.447 1 1 1h2c2.757 0 5-2.243 5-5zm-16 4c0-.553-.447-1-1-1h-2c-1.654 0-3-1.346-3-3v-2c0-.553-.447-1-1-1s-1 .447-1 1v2c0 2.757 2.243 5 5 5h2c.553 0 1-.447 1-1zm10-8c0 3.309-2.691 6-6 6s-6-2.691-6-6zm-10-9v-1c0-1.105.895-2 2-2h4c1.105 0 2 .895 2 2v1zm15 5c.552 0 1 .448 1 1 0 .552-.448 1-1 1h-22c-.552 0-1-.448-1-1 0-.552.448-1 1-1h5c0-1.657 1.343-3 3-3h6c1.657 0 3 1.343 3 3z"/></svg>