<?xml version="1.0" encoding="UTF-8"?>
<svg xmlns="http://www.w3.org/2000/svg" id="Layer_1" data-name="Layer 1" viewBox="0 0 24 24">
  <path d="M1.565,2.1C1.253,1.011,2.109-.06,3.24,.003l5.073,.51c.831,.046,1.388,.873,1.118,1.661l-.17,.326H1.778l-.213-.4ZM15.03,14h7c.58,.013,1.073-.539,.993-1.114-.25-2.183-2.184-3.83-4.498-3.83-2.257,0-4.186,1.636-4.485,3.806-.095,.581,.401,1.151,.99,1.137Zm-13.53-.112l5.3-4.684c-.407-.121-.831-.204-1.278-.204-2.316,0-4.224,1.75-4.473,4-.014,.128-.016,.657,.45,.888Zm17-5.888c1.93,0,3.5-1.57,3.5-3.5s-1.57-3.5-3.5-3.5-3.5,1.57-3.5,3.5,1.57,3.5,3.5,3.5Zm-10.379,8.328c-.391-.391-1.023-.391-1.414,0s-.391,1.023,0,1.414l1.258,1.258H1c-.553,0-1,.447-1,1s.447,1,1,1h7.035l-1.328,1.328c-.391,.391-.391,1.023,0,1.414s1.023,.391,1.414,0l2.292-2.292c.778-.743,.777-2.085,0-2.829l-2.293-2.293Zm14.879,2.672h-6.965l1.258-1.258c.391-.391,.391-1.023,0-1.414s-1.023-.391-1.414,0l-2.293,2.293c-.775,.743-.776,2.086,0,2.828l2.293,2.293c.391,.391,1.023,.391,1.414,0s.391-1.023,0-1.414l-1.328-1.328h7.035c.553,0,1-.447,1-1s-.447-1-1-1Zm-13.004-6c-.119-1.077-.625-2.032-1.367-2.743l-4.235,3.743h4.63c1,0,.991-.836,.973-1Zm-4.496-5c1.93,0,3.5-1.57,3.5-3.5H2c0,1.93,1.57,3.5,3.5,3.5Z"/>
</svg>
