<svg id="Layer_1" viewBox="0 0 24 24" xmlns="http://www.w3.org/2000/svg" data-name="Layer 1"><path d="m.785 21.752c-.739-1.152-.98-2.575-.61-3.918 1.064-3.863 3.529-8 6.594-11.064s7.201-5.531 11.065-6.595c1.343-.373 2.766-.131 3.918.609-2.908 2.29-7.381 6.184-11.079 9.883-3.702 3.701-7.598 8.177-9.888 11.085zm12.548-8.425c-3.703 3.703-8.181 7.6-11.089 9.891.789.507 1.704.781 2.637.781.429 0 .861-.057 1.285-.174 3.864-1.064 8-3.53 11.065-6.595s5.53-7.201 6.594-11.064c.37-1.343.13-2.766-.609-3.918-2.29 2.908-6.184 7.38-9.883 11.079z"/></svg>