<svg id="Layer_1" viewBox="0 0 24 24" xmlns="http://www.w3.org/2000/svg" data-name="Layer 1"><path d="m11 2.284c-.612-.373-1.387-.373-2 0v19.428c.612.373 1.387.373 2 0z"/><path d="m7 2.284c-.741-.451-1.721-.362-2.361.277l-.436.437h-1.203c-1.657 0-3 1.343-3 3v1h2c.552 0 1 .448 1 1s-.448 1-1 1h-2v2h2c.552 0 1 .448 1 1s-.448 1-1 1h-2v2h2c.552 0 1 .448 1 1s-.448 1-1 1h-2v1c0 1.657 1.343 3 3 3h1.202l.437.438c.639.638 1.62.727 2.36.276v-19.428z"/><path d="m21 2.998h-1.202l-.437-.438c-.639-.638-1.62-.727-2.36-.276v19.428c.306.187.652.285 1 .285.493 0 .986-.188 1.361-.562l.436-.437h1.203c1.657 0 3-1.343 3-3v-12c0-1.657-1.343-3-3-3zm.5 15c-.828 0-1.5-.672-1.5-1.5s.672-1.5 1.5-1.5 1.5.672 1.5 1.5-.672 1.5-1.5 1.5zm0-4.5c-.828 0-1.5-.672-1.5-1.5s.672-1.5 1.5-1.5 1.5.672 1.5 1.5-.672 1.5-1.5 1.5zm0-4.5c-.828 0-1.5-.672-1.5-1.5s.672-1.5 1.5-1.5 1.5.672 1.5 1.5-.672 1.5-1.5 1.5z"/><path d="m15 2.284c-.612-.373-1.387-.373-2 0v19.428c.612.373 1.387.373 2 0z"/></svg>