<svg id="Layer_1" viewBox="0 0 24 24" xmlns="http://www.w3.org/2000/svg" data-name="Layer 1"><path d="m19.777 3.222c-2.077-2.077-4.839-3.222-7.777-3.222s-5.7 1.145-7.778 3.222c-4.289 4.289-4.289 11.267.028 15.584l3.942 3.642c1.024 1.001 2.377 1.553 3.808 1.553s2.783-.552 3.786-1.533l3.991-3.688c4.289-4.289 4.289-11.268 0-15.557zm-2.777 8.778c0 1.165-.674 2.166-1.647 2.662l.499.815c.289.472.141 1.087-.33 1.375-.163.1-.344.147-.521.147-.337 0-.665-.17-.854-.478l-.932-1.522h-2.431l-.932 1.522c-.188.308-.517.478-.854.478-.178 0-.358-.048-.521-.147-.471-.288-.619-.903-.33-1.375l.499-.815c-.972-.497-1.647-1.497-1.647-2.662v-3c0-2.206 1.794-4 4-4h2c2.206 0 4 1.794 4 4v3zm-8-1v-2c0-1.103.897-2 2-2h2c1.103 0 2 .897 2 2v2z"/></svg>