<svg id="Layer_1" viewBox="0 0 24 24" xmlns="http://www.w3.org/2000/svg" data-name="Layer 1"><path d="m17.016 16.008c.442 0 .8.358.8.8v4.931c0 1.348-1.164 2.427-2.539 2.288-1.197-.122-2.06-1.22-2.06-2.422v-4.796c0-.442.358-.8.8-.8.442 0 .8.358.8.8v4.931c0 .386.314.7.7.7s.7-.314.7-.7v-4.931c0-.442.358-.8.8-.8zm-5.769 0c-.442 0-.8.358-.8.8v4.931c0 .386-.314.7-.7.7s-.7-.314-.7-.7v.1c0-.442-.358-.8-.8-.8-.416 0-.747.322-.785.728.074 1.137.904 2.143 2.046 2.26 1.376.14 2.539-.94 2.539-2.288v-4.931c0-.442-.358-.8-.8-.8zm11.953.03c-.442 0-.8.358-.8.8v3.263l-1.546-3.482c-.155-.348-.499-.574-.88-.576-.537-.003-.974.432-.974.969v6.226c0 .442.358.8.8.8.442 0 .8-.358.8-.8v-3.254l1.544 3.478c.156.35.503.576.886.576.535 0 .97-.434.97-.97v-6.23c0-.442-.358-.8-.8-.8zm.8-9.038c0-2.757-2.243-5-5-5h-1v-1c0-.553-.448-1-1-1s-1 .447-1 1v1h-8v-1c0-.553-.448-1-1-1s-1 .447-1 1v1h-1c-2.757 0-5 2.243-5 5v1h24zm-18.534 14.897c-.007-.105-.005-.212.004-.317.142-1.517 1.489-2.644 2.977-2.535v-2.237c0-1.544 1.256-2.8 2.8-2.8.506 0 11.361.03 11.953.03.28 0 .545.054.8.131v-4.169h-24v9c0 2.761 2.239 5 5 5h1.14c-.379-.614-.624-1.328-.675-2.103z"/></svg>