<svg id="Layer_1" viewBox="0 0 24 24" xmlns="http://www.w3.org/2000/svg" data-name="Layer 1"><path d="m13 1c0-.552.447-1 1-1h3c2.206 0 4 1.795 4 4v1.945l1.301-1.272c.396-.387 1.029-.377 1.414.016.387.395.379 1.028-.016 1.414l-2.528 2.472c-.32.32-.744.48-1.168.48-.427 0-.855-.162-1.181-.487l-2.521-2.465c-.395-.386-.402-1.019-.016-1.414.386-.393 1.021-.402 1.414-.016l1.301 1.272v-1.945c0-1.103-.897-2-2-2h-3c-.553 0-1-.448-1-1zm-.617 10.047 1.099.463.439 1.097c.095.237.325.393.58.393s.486-.156.58-.393l.436-1.09 1.09-.436c.237-.095.393-.325.393-.58s-.156-.486-.393-.58l-1.09-.436-.436-1.09c-.095-.237-.325-.393-.58-.393s-.486.156-.58.393l-.433 1.084-1.082.41c-.239.09-.399.317-.404.573s.147.488.382.587zm-12.383-5.047c0-3.314 2.686-6 6-6s6 2.686 6 6-2.686 6-6 6-6-2.686-6-6zm4.447.504 2.791.559c.304.062.514.359.451.677-.054.273-.308.46-.586.46h-2.334c-.203 0-.387-.087-.515-.226-.154-.167-.437-.274-.664-.274-.655 0-1.01.763-.592 1.266.422.509 1.059.833 1.77.833h.431v.4c0 .442.358.8.8.8s.8-.358.8-.8v-.4h.28c1.091 0 2.046-.785 2.199-1.865.164-1.158-.613-2.217-1.725-2.439l-2.792-.559c-.304-.061-.514-.36-.449-.678.055-.272.309-.458.587-.458h2.307c.203 0 .387.087.515.226.154.167.437.274.664.274.655 0 1.01-.763.592-1.266-.422-.509-1.059-.833-1.77-.833h-.405v-.4c0-.442-.358-.8-.8-.8s-.8.358-.8.8v.4h-.28c-1.091 0-2.046.786-2.199 1.866-.163 1.158.613 2.216 1.725 2.439zm16.826 5.499c-.697.032-1.339.334-1.794.835l-3.541 3.737c.032.21.065.42.065.638 0 2.083-1.555 3.876-3.617 4.17l-4.252.596c-.547.078-1.053-.302-1.131-.848-.078-.547.302-1.053.848-1.131l4.162-.583c.936-.134 1.748-.806 1.94-1.732.296-1.425-.79-2.685-2.164-2.685h-8.786c-1.657 0-3 1.343-3 3v3c0 1.657 1.343 3 3 3h9.806c2.244 0 4.384-.942 5.9-2.597l4.633-5.058c.438-.491.656-1.106.659-1.721.004-.715-.283-1.429-.848-1.944-.515-.469-1.186-.712-1.878-.678z"/></svg>