<svg id="Layer_1" viewBox="0 0 24 24" xmlns="http://www.w3.org/2000/svg" data-name="Layer 1"><path d="m7.402 9c0-.552.448-1 1-1s1 .448 1 1-.448 1-1 1-1-.448-1-1zm14.098 7h-5.652c-.588 0-1.147.259-1.527.708l-.247.292h-4.149l-.247-.292c-.38-.449-.939-.708-1.527-.708h-5.651c-1.381 0-2.5 1.119-2.5 2.5s1.119 2.5 2.5 2.5h19c1.381 0 2.5-1.119 2.5-2.5s-1.119-2.5-2.5-2.5zm-18.5-2c-.344 0-.677.043-1 .11v-6.11c0-2.757 2.243-5 5-5h10c2.757 0 5 2.243 5 5v6.11c-.323-.067-.656-.11-1-.11h-5.151c-.983 0-1.92.359-2.646 1h-2.404c-.726-.641-1.663-1-2.646-1zm12-7c0 .553.447 1 1 1h2c.553 0 1-.447 1-1s-.447-1-1-1h-2c-.553 0-1 .447-1 1zm0 4c0 .553.447 1 1 1h2c.553 0 1-.447 1-1s-.447-1-1-1h-2c-.553 0-1 .447-1 1zm-9.543-1.454-.154.089c-.478.276-.642.888-.364 1.366.185.32.521.499.866.499.17 0 .342-.043.5-.135l.161-.093c.275.235.589.419.936.543v.184c0 .553.447 1 1 1s1-.447 1-1v-.184c.347-.124.661-.309.936-.543l.161.093c.158.092.33.135.5.135.346 0 .682-.179.866-.499.277-.479.113-1.09-.364-1.366l-.154-.089c.072-.353.072-.739 0-1.092l.154-.089c.478-.276.642-.888.364-1.366-.275-.479-.888-.645-1.366-.364l-.161.093c-.275-.235-.589-.42-.936-.543v-.184c0-.553-.447-1-1-1s-1 .447-1 1v.184c-.347.124-.661.309-.936.543l-.161-.093c-.481-.28-1.091-.114-1.366.364-.277.479-.113 1.09.364 1.366l.154.089c-.072.353-.072.739 0 1.092z"/></svg>