<svg id="Layer_1" viewBox="0 0 24 24" xmlns="http://www.w3.org/2000/svg" data-name="Layer 1"><path d="m15 20h-6c-2.206 0-4-1.794-4-4v-1h14v1c0 2.206-1.794 4-4 4zm-13-13v-2c0-1.654 1.346-3 3-3h2c.553 0 1-.447 1-1s-.447-1-1-1h-2c-2.757 0-5 2.243-5 5v2c0 .553.447 1 1 1s1-.447 1-1zm22 0v-2c0-2.757-2.243-5-5-5h-2c-.553 0-1 .447-1 1s.447 1 1 1h2c1.654 0 3 1.346 3 3v2c0 .553.447 1 1 1s1-.447 1-1zm0 12v-2c0-.553-.447-1-1-1s-1 .447-1 1v2c0 1.654-1.346 3-3 3h-2c-.553 0-1 .447-1 1s.447 1 1 1h2c2.757 0 5-2.243 5-5zm-16 4c0-.553-.447-1-1-1h-2c-1.654 0-3-1.346-3-3v-2c0-.553-.447-1-1-1s-1 .447-1 1v2c0 2.757 2.243 5 5 5h2c.553 0 1-.447 1-1zm6-15c0 .552.448 1 1 1h3.985c-.038-.742-.335-1.437-.864-1.966l-2.155-2.155c-.529-.529-1.224-.826-1.966-.864zm9 3h-8c-1.654 0-3-1.346-3-3v-4h-3c-2.206 0-4 1.794-4 4v3h-4c-.553 0-1 .447-1 1s.447 1 1 1h22c.553 0 1-.447 1-1s-.447-1-1-1z"/></svg>