<svg id="Layer_1" viewBox="0 0 24 24" xmlns="http://www.w3.org/2000/svg" data-name="Layer 1"><path d="m24 12v7c0 2.757-2.243 5-5 5h-14c-2.757 0-5-2.243-5-5v-7c0-.815.215-1.573.562-2.254l7.903 7.79c.945.944 2.201 1.464 3.536 1.464s2.591-.52 3.536-1.464l7.852-7.883c.378.703.612 1.494.612 2.347zm-12 4.971c.777 0 1.555-.283 2.122-.85l7.981-8.011c-.855-.684-1.925-1.11-3.102-1.11h-2.427c.418.962.547 2.059.295 3.165-.418 1.831-1.872 3.284-3.703 3.702-.384.088-.776.133-1.165.133-.552 0-1-.447-1-1s.448-1 1-1c.239 0 .481-.027.719-.082 1.071-.244 1.954-1.128 2.198-2.198.23-1.009-.051-2.006-.692-2.72h-5.233c-.02-.546-.24-1.066-.628-1.454l-.375-.375c-.365-.365-.99-.107-.99.41v1.419h-2c-1.214 0-2.314.452-3.181 1.175l8.06 7.947c.567.566 1.344.849 2.122.85zm2.072-12.523c-.662-.301-1.072-.906-1.072-1.579v-1.869c0-.553-.448-1-1-1s-1 .447-1 1v1.869c0 1.444.88 2.778 2.243 3.399.388.177.714.432.983.731h2.348c-.477-1.098-1.335-2.02-2.5-2.552z"/></svg>