<svg id="Layer_1" viewBox="0 0 24 24" xmlns="http://www.w3.org/2000/svg" data-name="Layer 1"><path d="m14.902 4.094c.538-.18 1.088-.444 1.523-.855.668-.632.948-1.487 1.062-2.167.103-.614-.428-1.148-1.044-1.063-.729.101-1.67.362-2.36 1.014-.77.728-1.064 1.796-1.179 2.548-.2-1.461-.675-2.381-1.018-3.035-.256-.49-.862-.68-1.35-.422-.489.256-.679.86-.422 1.35.315.602.688 1.33.827 2.536h-.85c-2.902 0-5.091 2.253-5.091 5.24 0 3.283 2.188 5.76 5.091 5.76.555 0 1.103-.096 1.629-.285.184-.064.378-.065.562 0 .525.188 1.073.284 1.628.284 2.902 0 5.091-2.477 5.091-5.76 0-2.683-1.674-4.709-4.098-5.146zm9.098 4.906v8.791c0 2.417-1.727 4.486-4.105 4.919l-6.285 1.143c-.534.097-1.071.146-1.609.146s-1.075-.048-1.609-.146l-6.285-1.143c-2.379-.433-4.105-2.502-4.105-4.919v-8.791c0-1.487.654-2.886 1.796-3.838.951-.793 2.144-1.19 3.361-1.152-1.332 1.309-2.157 3.151-2.157 5.23 0 4.424 3.049 7.76 7.091 7.76.305 0 .609-.024.909-.065v4.991c.664.097 1.336.097 2 0v-4.997c.301.041.604.07.909.07 4.042 0 7.091-3.336 7.091-7.76 0-2.096-.775-3.927-2.083-5.227 1.214-.02 2.365.378 3.287 1.148 1.142.953 1.796 2.352 1.796 3.838z"/></svg>