<svg id="Layer_1" viewBox="0 0 24 24" xmlns="http://www.w3.org/2000/svg" data-name="Layer 1"><path d="m16 5c0-1.654 1.346-3 3-3v-1c0-.552.447-1 1-1s1 .448 1 1v1.003h.271c1.063 0 2.057.573 2.593 1.495.278.477.116 1.089-.361 1.367-.479.277-1.09.116-1.367-.362-.183-.312-.505-.5-.866-.5l-2.271-.003c-.551 0-.999.449-.999 1 0 .378.271.698.644.76l3.041.507c1.342.223 2.315 1.31 2.315 2.733 0 1.654-1.346 3-3 3v1c0 .552-.447 1-1 1s-1-.448-1-1v-1.002h-.27c-1.066 0-2.061-.574-2.596-1.496-.277-.478-.114-1.09.364-1.367.477-.276 1.09-.114 1.366.364.179.308.51.499.866.499l2.27.002c.551 0 .999-.449.999-1 0-.378-.271-.698-.644-.76l-3.041-.507c-1.342-.223-2.315-1.373-2.315-2.733zm5.5 14h-5.652c-.588 0-1.147.259-1.527.708l-.247.292h-4.149l-.247-.292c-.38-.449-.939-.708-1.527-.708h-5.651c-1.381 0-2.5 1.119-2.5 2.5s1.119 2.5 2.5 2.5h19c1.381 0 2.5-1.119 2.5-2.5s-1.119-2.5-2.5-2.5zm-13.349-2c.983 0 1.92.359 2.646 1h2.404c.726-.641 1.664-1 2.646-1h5.151c.344 0 .677.043 1 .11v-1.89c-.532.48-1.229.78-2 .78-1.409 0-2.585-.979-2.906-2.291-1.114-.389-2.082-1.156-2.69-2.205-.402-.693-.51-1.502-.304-2.277.145-.541.43-1.02.824-1.396-.394-.536-.665-1.161-.808-1.832h-7.117c-2.757 0-5 2.243-5 5v6.11c.323-.067.656-.11 1-.11h5.151z"/></svg>