<svg id="Layer_1" viewBox="0 0 24 24" xmlns="http://www.w3.org/2000/svg" data-name="Layer 1"><path d="m15.3 9.4h-.7v-4.802h.7c.386 0 .7.314.7.7v3.402c0 .386-.314.7-.7.7zm-5.584-1.4-.638-3.295-.624 3.295zm-9.615 7c.465 2.279 2.484 4 4.899 4h6v2h-4c-.553 0-1 .447-1 1s.447 1 1 1h10c.553 0 1-.447 1-1s-.447-1-1-1h-4v-2h6c2.414 0 4.434-1.721 4.899-4zm-.101-2v-7c0-2.757 2.243-5 5-5h14c2.757 0 5 2.243 5 5v7zm13-2.8c0 .442.358.8.8.8h1.5c1.27 0 2.3-1.03 2.3-2.3v-3.4c0-1.27-1.03-2.3-2.3-2.3h-1.5c-.442 0-.8.358-.8.8zm-6.486-.057c-.089.443.25.857.702.857.345 0 .641-.246.704-.585l.166-.889h2.006l.157.883c.061.342.358.591.705.591h.01c.453 0 .793-.416.701-.86l-1.221-5.947c-.12-.668-.589-1.192-1.346-1.192-.757 0-1.281.586-1.385 1.166l-1.2 5.976z"/></svg>