<svg id="Layer_1" viewBox="0 0 24 24" xmlns="http://www.w3.org/2000/svg" data-name="Layer 1"><path d="m20 14h-4v-1c0-1.103.897-2 2-2 .568 0 1.111.243 1.491.667.37.413 1.002.446 1.412.078.411-.368.446-1 .078-1.412-.759-.847-1.846-1.333-2.981-1.333-2.206 0-4 1.794-4 4v1.556c-1.19.694-2 1.97-2 3.444v2c0 2.206 1.794 4 4 4h4c2.206 0 4-1.794 4-4v-2c0-2.206-1.794-4-4-4zm-2 6.5c-.828 0-1.5-.672-1.5-1.5s.672-1.5 1.5-1.5 1.5.672 1.5 1.5-.672 1.5-1.5 1.5zm6-10.776v3.276c.034-3.289-2.774-6.03-6-6-3.314 0-6 2.686-6 6v.552c-1.255 1.127-2 2.745-2 4.448v2c0 1.538.586 2.937 1.54 4h-6.54c-2.757 0-5-2.243-5-5v-9.276c0-1.665.824-3.215 2.204-4.145l6.999-4.724c1.699-1.146 3.895-1.146 5.594 0l7 4.724c1.379.93 2.203 2.479 2.203 4.145z"/></svg>