<?xml version="1.0" encoding="UTF-8"?>
<svg xmlns="http://www.w3.org/2000/svg" id="Layer_1" data-name="Layer 1" viewBox="0 0 24 24">
  <path d="M17.946,12.333l-2.526,5.057c-.199,.5-.822,.75-1.311,.53-.474-.171-.742-.824-.557-1.253l2.526-5.057c.199-.499,.82-.751,1.311-.53,.474,.171,.742,.824,.557,1.253Zm6.054-7.333v14c0,2.757-2.243,5-5,5H5c-2.757,0-5-2.243-5-5V5C0,2.243,2.243,0,5,0h14c2.757,0,5,2.243,5,5Zm-13,1.5c0,1.381,1.119,2.5,2.5,2.5s2.5-1.119,2.5-2.5-1.119-2.5-2.5-2.5-2.5,1.119-2.5,2.5Zm7.17,2.738c-1.432-.662-3.335,.101-3.907,1.534l-2.265,4.534-1.984-2.659c-.795-.966-2.38-.819-2.988,.299l-2.914,5.592c-.255,.49-.065,1.094,.425,1.349,.479,.253,1.092,.07,1.349-.425l2.762-5.304,3.333,4.469c.329,.495,.8,.89,1.347,1.134,1.432,.661,3.335-.1,3.907-1.534l2.525-5.056c.661-1.471-.094-3.334-1.591-3.933Z"/>
</svg>
