<svg id="Layer_1" viewBox="0 0 24 24" xmlns="http://www.w3.org/2000/svg" data-name="Layer 1"><path d="m14 5c0-.553.447-1 1-1h3v-3c0-.553.447-1 1-1s1 .447 1 1v3h3c.553 0 1 .447 1 1s-.447 1-1 1h-3v3c0 .553-.447 1-1 1s-1-.447-1-1v-3h-3c-.553 0-1-.447-1-1zm-9.5 7c-1.381 0-2.5 1.119-2.5 2.5s1.119 2.5 2.5 2.5 2.5-1.119 2.5-2.5-1.119-2.5-2.5-2.5zm7.5 2c1.381 0 2.5-1.119 2.5-2.5s-1.119-2.5-2.5-2.5-2.5 1.119-2.5 2.5 1.119 2.5 2.5 2.5zm-8.262 5.034c-1.753.478-3.248 1.938-3.704 3.69-.167.643.303 1.276.967 1.276h2.999c.552 0 1-.448 1-1v-3.001c0-.312-.145-.606-.392-.795-.248-.189-.571-.25-.87-.17zm18.262-4.534c0-1.381-1.119-2.5-2.5-2.5s-2.5 1.119-2.5 2.5 1.119 2.5 2.5 2.5 2.5-1.119 2.5-2.5zm-10 1.5c-2.757 0-5 2.243-5 5v2c0 .553.447 1 1 1h8c.553 0 1-.447 1-1v-2c0-2.757-2.243-5-5-5zm11.966 6.724c-.456-1.752-1.951-3.211-3.704-3.69-.299-.08-.622-.019-.87.17-.247.189-.392.483-.392.795v3.001c0 .552.448 1 1 1h2.999c.664 0 1.134-.633.967-1.276z"/></svg>