<svg id="Layer_1" viewBox="0 0 24 24" xmlns="http://www.w3.org/2000/svg" data-name="Layer 1"><path d="m10.709 14.971c-.525-.334-1.301-.707-2.17-.73.598-.631.883-1.443 1.018-2.051.1-.449-.298-.848-.748-.748-.607.135-1.419.42-2.051 1.018-.023-.869-.396-1.645-.73-2.17-.247-.388-.81-.388-1.057 0-.334.525-.707 1.301-.73 2.17-.631-.598-1.443-.883-2.051-1.018-.449-.1-.848.298-.748.748.135.608.42 1.42 1.018 2.051-.869.024-1.645.396-2.17.73-.388.247-.388.81 0 1.057.525.334 1.301.707 2.17.73-.598.631-.883 1.443-1.018 2.051-.1.449.298.848.748.748.607-.135 1.419-.42 2.051-1.018.023.869.396 1.645.73 2.17.247.388.811.388 1.057 0 .334-.525.707-1.301.73-2.17.631.598 1.443.883 2.051 1.018.449.1.848-.298.748-.748-.135-.607-.42-1.419-1.018-2.051.869-.023 1.645-.396 2.17-.73.388-.247.388-.81 0-1.057zm-4.435 1.304-.425.992c-.132.309-.569.31-.703.002l-.429-.987-.986-.429c-.308-.134-.307-.571.002-.703l.992-.424.426-.996c.132-.308.569-.31.703-.002l.43.986.987.431c.307.134.306.57-.002.703l-.996.427zm2.726-13.275v-2c0-.553.448-1 1-1s1 .447 1 1v2c0 .553-.448 1-1 1s-1-.447-1-1zm4 0v-2c0-.553.448-1 1-1s1 .447 1 1v2c0 .553-.448 1-1 1s-1-.447-1-1zm-8 0v-2c0-.553.448-1 1-1s1 .447 1 1v2c0 .553-.448 1-1 1s-1-.447-1-1zm15 20c0 .553-.448 1-1 1h-18c-.552 0-1-.447-1-1s.448-1 1-1h18c.552 0 1 .447 1 1zm0-14h-2.008c0-1.654-1.346-3-3-3h-9.999c-.802 0-1.556.312-2.123.88-.566.567-.878 1.321-.877 2.123v.425c.21-.004.422.016.632.062.146.033.29.069.432.11.076-.138.153-.266.228-.383.482-.761 1.312-1.218 2.216-1.218s1.733.457 2.218 1.222c.074.115.149.242.226.378.141-.04.284-.077.43-.109.886-.195 1.792.067 2.432.707.639.639.901 1.548.703 2.43-.029.134-.065.277-.108.429.128.071.256.146.382.227.763.484 1.219 1.313 1.219 2.217s-.456 1.732-1.219 2.217c-.126.08-.254.156-.382.228.044.151.08.297.109.432.124.552.066 1.114-.151 1.615 1.735-.088 3.353-.805 4.59-2.043.574-.575 1.029-1.235 1.367-1.947h2.686c2.28 0 4-1.521 4-3.538 0-2.006-1.682-3.462-4-3.462zm0 5h-2.084c.047-.331.079-.666.079-1.006v-1.994s2.005 0 2.005 0c.743 0 2 .308 2 1.462 0 1.01-1.006 1.538-2 1.538z"/></svg>