<svg id="Layer_1" viewBox="0 0 24 24" xmlns="http://www.w3.org/2000/svg" data-name="Layer 1"><path d="m13.399 14.51 2.683-2.683s0 0 .001-.001l5.356-5.356c.586-.586 1.535-.586 2.121 0s.586 1.535 0 2.121l-5.491 5.491c-.488.488-.67 1.256-.327 1.855.466.814 1.474.99 2.166.514l1.511-1.522c.58-.586 1.524-.593 2.112-.019.59.575.605 1.519.036 2.112l-3.812 3.844zm3.041 9.49h-4.452c-.601 0-1.179-.231-1.615-.645l-.373-.355h-1.561c-1.499-.141-2.819-.712-3.932-1.825l-4.09-4.137c-.57-.594-.554-1.537.035-2.112s1.533-.566 2.113.019l1.489 1.501c.568.389 1.379.329 1.898-.188.582-.558.582-1.564 0-2.122l-5.543-5.545c-.586-.586-.586-1.535 0-2.121s1.535-.586 2.121 0l14.97 14.97c.945.945.276 2.56-1.061 2.56zm-3.191-23.283 4.267 7.109c.562.964-.133 2.174-1.249 2.174h-8.534c-1.116 0-1.811-1.21-1.249-2.174l4.267-7.109c.558-.956 1.94-.956 2.497 0zm-.249 7.283c0-.552-.448-1-1-1-.552 0-1 .448-1 1 0 .552.448 1 1 1 .552 0 1-.448 1-1zm-1-2c.552 0 1-.448 1-1v-1.5c0-.552-.448-1-1-1-.552 0-1 .448-1 1v1.5c0 .552.448 1 1 1z"/></svg>