<?xml version="1.0" encoding="UTF-8"?>
<svg xmlns="http://www.w3.org/2000/svg" id="Layer_1" data-name="Layer 1" viewBox="0 0 24 24">
  <path d="M3,16c-1.379,0-2.5-1.121-2.5-2.5v-3c0-1.378,1.121-2.5,2.5-2.5s2.5,1.122,2.5,2.5v3c0,1.379-1.121,2.5-2.5,2.5Zm0-6c-.275,0-.5,.224-.5,.5v3c0,.275,.225,.5,.5,.5s.5-.225,.5-.5v-3c0-.276-.225-.5-.5-.5Zm6,6c-1.379,0-2.5-1.121-2.5-2.5v-3c0-1.378,1.121-2.5,2.5-2.5s2.5,1.122,2.5,2.5v3c0,1.379-1.121,2.5-2.5,2.5Zm0-6c-.275,0-.5,.224-.5,.5v3c0,.275,.225,.5,.5,.5s.5-.225,.5-.5v-3c0-.276-.225-.5-.5-.5Zm6,6c-1.379,0-2.5-1.121-2.5-2.5v-3c0-1.378,1.121-2.5,2.5-2.5s2.5,1.122,2.5,2.5v3c0,1.379-1.121,2.5-2.5,2.5Zm0-6c-.275,0-.5,.224-.5,.5v3c0,.275,.225,.5,.5,.5s.5-.225,.5-.5v-3c0-.276-.225-.5-.5-.5Zm6,6c-1.379,0-2.5-1.121-2.5-2.5v-3c0-1.378,1.121-2.5,2.5-2.5s2.5,1.122,2.5,2.5v3c0,1.379-1.121,2.5-2.5,2.5Zm0-6c-.275,0-.5,.224-.5,.5v3c0,.275,.225,.5,.5,.5s.5-.225,.5-.5v-3c0-.276-.225-.5-.5-.5Z"/>
</svg>
