<svg id="Layer_1" viewBox="0 0 24 24" xmlns="http://www.w3.org/2000/svg" data-name="Layer 1"><path d="m6 3.5c0-1.381 1.119-2.5 2.5-2.5s2.5 1.119 2.5 2.5-1.119 2.5-2.5 2.5-2.5-1.119-2.5-2.5zm14.831 7.057c-.186.277-.497.443-.831.443h-4.424c-.477 0-.952-.068-1.41-.202l-2.983-.878 1.314 4.409c.331.99.503 2.055.503 3.132v5.539c0 .553-.448 1-1 1s-1-.447-1-1v-5.539c0-.155-.028-.307-.037-.461h-1.383l-3.712 6.496c-.275.484-.894.644-1.364.372-.479-.274-.646-.885-.372-1.364l3.787-6.627-1.875-6.212c-.21-.779.018-1.574.586-2.104.569-.529 1.376-.701 2.111-.443l5.989 1.761c.275.08.56.121.847.121h2.932l-2.803-6.827-1.315.559c-.507.213-1.095-.021-1.311-.53-.216-.508.021-1.096.53-1.312l1.824-.775c.723-.305 1.571.026 1.893.742l3.599 8.763c.126.309.091.66-.095.937z"/></svg>