<svg id="Layer_1" viewBox="0 0 24 24" xmlns="http://www.w3.org/2000/svg" data-name="Layer 1"><path d="m23 16c0 1.105-.895 2-2 2-.738 0-1.376-.405-1.723-1h-5.081l2.418 3.039c.125-.024.253-.039.385-.039 1.105 0 2 .895 2 2s-.895 2-2 2-2-.895-2-2c0-.224.045-.436.113-.637l-3.113-3.912-3.113 3.912c.068.201.113.413.113.637 0 1.105-.895 2-2 2s-2-.895-2-2 .895-2 2-2c.132 0 .26.014.385.039l2.418-3.039h-5.079c-.346.595-.984 1-1.723 1-1.105 0-2-.895-2-2s.895-2 2-2c.738 0 1.376.405 1.723 1h6.277v-2c0-.553.448-1 1-1s1 .447 1 1v2h6.277c.346-.595.984-1 1.723-1 1.105 0 2 .895 2 2zm-7.089-14.125c-.063-.044-2.684-1.55-2.684-1.55-.746-.421-1.706-.427-2.46 0 0 0-.001 0-.002 0 0 0-2.613 1.506-2.675 1.549l3.912 2.236zm-2.911 8.657c.076-.033 2.713-1.473 2.713-1.473.793-.44 1.287-1.278 1.287-2.186v-2.958c0-.114-.03-.223-.045-.334l-3.952 2.261-.003 4.689zm-4.74-1.541s2.662 1.493 2.736 1.527l.003-4.677-3.954-2.26c-.015.112-.045.22-.045.335v2.905c0 .895.482 1.726 1.26 2.171z"/></svg>