<svg id="Layer_1" viewBox="0 0 24 24" xmlns="http://www.w3.org/2000/svg" data-name="Layer 1"><path d="m4.5 20c3.5 0 4.5-1 4.5-1v2.833c0 1.377-1.641 2.167-4.5 2.167s-4.5-.79-4.5-2.167v-2.76s1 .926 4.5.926zm10.5-.926v2.76c0 1.377 1.641 2.167 4.5 2.167s4.5-.79 4.5-2.167v-2.833s-1 1-4.5 1-4.5-.926-4.5-.926zm4.5-19.074c-2.65 0-4.5.617-4.5 1.5v2.467c.178.253 1.319 1.033 4.5 1.033s4.322-.78 4.5-1.033v-2.467c0-.883-1.85-1.5-4.5-1.5zm-4.5 6v2.833c0 1.377 1.641 2.167 4.5 2.167s4.5-.79 4.5-2.167v-2.833s-1 1-4.5 1-4.5-1-4.5-1zm-6 0h6v-2.033h-6zm10.5 7c-1.801 0-3.215.289-3.947.749l-6.553-5.638v-2.111s-1 1-4.5 1-4.5-1-4.5-1v2.833c0 1.207 1.262 1.962 3.5 2.13v2.069c-2.102.136-3.5.701-3.5 1.467v2.467c.178.253 1.319 1.033 4.5 1.033 3.044 0 4.279-.811 4.5-1.079v-2.421c0-.767-1.398-1.332-3.5-1.467v-2.069c1.26-.095 2.207-.377 2.797-.82l6.703 5.768v1.055c.178.253 1.319 1.033 4.5 1.033 3.044 0 4.279-.811 4.5-1.079v-2.421c0-.883-1.85-1.5-4.5-1.5zm-15-8c3.181 0 4.322-.78 4.5-1.033v-2.467c0-.883-1.85-1.5-4.5-1.5s-4.5.617-4.5 1.5v2.467c.178.253 1.319 1.033 4.5 1.033z"/></svg>