<?xml version="1.0" encoding="UTF-8"?>
<svg xmlns="http://www.w3.org/2000/svg" id="Layer_1" data-name="Layer 1" viewBox="0 0 24 24">
  <path d="M22.513,3.969l-2.56-2.527c-1.96-1.933-5.128-1.915-7.062,.037L1.449,12.954c-1.935,1.872-1.916,5.226,.037,7.078h0l2.56,2.526c1.957,1.932,5.126,1.917,7.062-.037l11.442-11.475c1.935-1.872,1.917-5.227-.038-7.078Zm-10.513,3.531c.828,0,1.5,.672,1.5,1.5s-.672,1.5-1.5,1.5-1.5-.672-1.5-1.5,.672-1.5,1.5-1.5Zm-3,3c.828,0,1.5,.672,1.5,1.5s-.672,1.5-1.5,1.5-1.5-.672-1.5-1.5,.672-1.5,1.5-1.5Zm2.436,9.092c-.39,.392-1.021,.397-1.415,.009l-5.569-5.5c-.393-.389-.396-1.021-.009-1.415,.39-.394,1.021-.396,1.415-.009l5.569,5.5c.393,.389,.396,1.021,.009,1.415Zm.564-3.092c-.828,0-1.5-.672-1.5-1.5s.672-1.5,1.5-1.5,1.5,.672,1.5,1.5-.672,1.5-1.5,1.5Zm3-3c-.828,0-1.5-.672-1.5-1.5s.672-1.5,1.5-1.5,1.5,.672,1.5,1.5-.672,1.5-1.5,1.5Zm4.558-2.186c-.389,.393-1.021,.397-1.415,.009l-5.569-5.5c-.393-.388-.396-1.021-.009-1.414,.389-.394,1.021-.396,1.415-.009l5.569,5.5c.393,.388,.396,1.021,.009,1.414ZM1.02,10.552c-1.463-1.944-1.339-4.72,.421-6.505L3.969,1.487C4.908,.535,6.162,.007,7.499,0c1.109-.006,2.153,.365,3.023,1.022L1.02,10.552Zm21.96,2.896c.665,.884,1.017,1.933,1.017,2.992,0,1.27-.479,2.54-1.438,3.513l-2.526,2.56h0c-.94,.952-2.195,1.48-3.533,1.487-1.109,.006-2.152-.365-3.021-1.022l9.502-9.529Z"/>
</svg>
