<svg id="Layer_1" viewBox="0 0 24 24" xmlns="http://www.w3.org/2000/svg" data-name="Layer 1"><path d="m19.05 7.529 2.953 1.342c1.264.574 2.493-.88 1.794-2.123l-3.306-5.88c-.323-.577-1.041-.868-1.491-.868-.55 0-1.068.29-1.391.867l-3.305 5.879c-.699 1.244.529 2.698 1.794 2.123zm-11.05 8.471h13v4c0 2.206-1.794 4-4 4h-5c-2.206 0-4-1.794-4-4zm13-5.388v3.388h-14c-.552 0-1 .449-1 1v3c0 1.654-1.346 3-3 3s-3-1.346-3-3v-11.343c0-1.335.521-2.591 1.465-3.535l2.828-2.829c.391-.391 1.023-.391 1.414 0 .391.39.391 1.023 0 1.414l-1.707 1.707v2.586c0 1.103-.897 2-2 2v10c0 .551.448 1 1 1s1-.449 1-1v-3c0-1.654 1.346-3 3-3h1v-3c0-2.121 1.664-3.844 3.752-3.975l1.232-.014-.424.755c-.753 1.338-.563 2.996.472 4.123.984 1.072 2.458 1.4 3.787.847.035-.014 2.23-1.011 2.23-1.011l1.95.887z"/></svg>