<svg id="Layer_1" viewBox="0 0 24 24" xmlns="http://www.w3.org/2000/svg" data-name="Layer 1"><path d="m4.443 14.002c-1.704.011-2.208.473-2.321.617-.205.261-.532.404-.86.378-.333-.025-.63-.214-.795-.504-.49-.865-.602-1.896-.312-2.904.353-1.231 1.413-2.514 3.045-3.155 0 0 3.747 2.65 3.769 2.675-.016.025-2.526 2.893-2.526 2.893zm19.519 3.825c.031.742-.324 1.429-.951 1.834-.727.473-1.837.498-2.436-.186-.009-.012-.651-.874-1.653-1.685-.127 1.511-.397 2.984-.734 3.879-.257.683-.84 1.166-1.559 1.297-.768.137-1.552-.154-2.019-.779l-1.669-2.481c-1.092 1.273-3.136 3.259-5.882 4.171-.856.287-1.804.066-2.435-.604-.616-.651-.792-1.578-.46-2.418.584-1.404 1.835-2.7 1.835-4.355 0-.372-.044-.741-.117-1.108l2.532-2.884c.88-1.057.766-2.197-.34-3.085l-3.843-2.705c.894-3.692 4.426-6.718 8.269-6.718 2.388-.034 4.807.933 7 1 .353-.046 1.311-.366 1.715-.457 1.264-.339 2.561.891 2.243 2.169-.249 1.314-1.423 2.502-1.458 3.788 0 .324.19 1.021.41 1.827.544 1.99 1.366 4.999 1.552 9.5zm-10.724-12.827h-1.375c-1.838 0-2.55 1.127-2.826 1.999-.156.495.199 1.001.718 1.001h1.373c1.875 0 2.578-1.172 2.842-2.051.143-.475-.236-.949-.732-.949z"/></svg>