<svg id="Layer_1" viewBox="0 0 24 24" xmlns="http://www.w3.org/2000/svg" data-name="Layer 1"><path d="m11.72 15.904 5.096 5.096h-11.816c-2.757 0-5-2.243-5-5v-8c0-1.077.35-2.069.931-2.886l4.779 4.779-1.415 5.879c-.151.626.324 1.227.967 1.227.463 0 .864-.319.969-.77l.285-1.23h2.967l.285 1.23c.105.451.506.77.969.77.598 0 1.043-.521.983-1.096zm-2.904-2.904-1.491-1.491-.346 1.491h1.836zm9.183 0v-2c0-1.103-.897-2-2-2h-1v6h1c1.103 0 2-.897 2-2zm6 3v-8c0-2.757-2.243-5-5-5h-13.999c-.186 0-.366.019-.546.04l-2.747-2.747c-.391-.391-1.023-.391-1.414 0s-.391 1.023 0 1.414l6.133 6.133c.31-.437.796-.84 1.574-.84 1.872 0 2.078 2.017 2.078 2.017l.785 3.261 2.137 2.137v-5.914c0-.827.673-1.5 1.5-1.5h1.5c2.206 0 4 1.794 4 4v2c0 2.206-1.794 4-4 4h-.414l6.707 6.707c.391.391 1.023.391 1.414 0s.391-1.023 0-1.414l-2.083-2.083c1.418-.877 2.376-2.421 2.376-4.21z"/></svg>