<svg id="Layer_1" viewBox="0 0 24 24" xmlns="http://www.w3.org/2000/svg" data-name="Layer 1"><path d="m13.293 11.864c-3.87.813-7.293-2.133-7.293-5.864h2.5c1.956 0 3.744-.846 4.992-2.226.491-.543.261-1.433-.448-1.619-.007-.002-.014-.004-.02-.005-.358-.091-.754-.006-1 .269-.881.979-2.142 1.582-3.524 1.582h-2.15c.826-2.328 3.044-4.001 5.65-4.001 3.731 0 6.677 3.422 5.864 7.293-.476 2.265-2.307 4.096-4.571 4.571zm8.707 11.136c0 .553-.447 1-1 1h-18c-.553 0-1-.447-1-1 0-3.525 2.042-6.574 5-8.05v3.328c-.595.346-1 .984-1 1.723 0 1.105.895 2 2 2s2-.895 2-2c0-.738-.405-1.376-1-1.723v-4.046c.644-.147 1.312-.232 2-.232h2c.338 0 .671.022 1 .059v4.125c-1.161.414-2 1.514-2 2.816v1c0 .553.447 1 1 1s1-.447 1-1v-1c0-.552.448-1 1-1s1 .448 1 1v1c0 .553.447 1 1 1s1-.447 1-1v-1c0-1.302-.839-2.402-2-2.816v-3.659c3.49 1.239 6 4.565 6 8.475z"/></svg>