<svg id="Layer_1" viewBox="0 0 24 24" xmlns="http://www.w3.org/2000/svg" data-name="Layer 1"><path d="m12.942 10.441c.712.958 1.224 2.121 1.552 3.221-.781.751-1.496 1.575-2.14 2.464-.236-.05-.472-.05-.708 0-.644-.889-1.359-1.713-2.14-2.464.327-1.1.84-2.263 1.552-3.221.219-.294.581-.441.942-.441s.724.147.942.441zm1.316-1.378c.098.101.204.192.289.307.674.907 1.193 1.883 1.582 2.904 1.644-1.247 3.489-2.212 5.471-2.842-.1-.582-.229-1.139-.411-1.739-.256-.843-.856-1.54-1.649-1.912-.004-.002-.008-.004-.012-.006-.677-.315-1.48-.149-2.083.292-1.299.95-2.4 2.036-3.186 2.995zm8.158 2.928c-.52-.376-1.534-.182-1.925-.007-2.445 1.098-4.59 2.798-6.243 4.955.203.18.386.385.544.613.847 1.224 1.838 3.34 2.375 5.387 3.144-1.432 5.328-4.26 6.122-8.152.209-1.024-.023-2.181-.873-2.796zm-10.417 6.009c-.44 0-.881.193-1.148.58-.665.962-1.644 3.07-2.128 5.022 1.021.259 2.115.398 3.277.398s2.255-.139 3.277-.398c-.484-1.952-1.463-4.06-2.128-5.022-.268-.387-.708-.58-1.148-.58zm-2.548-8.63c.085-.115.191-.206.289-.307-.786-.959-1.887-2.046-3.186-2.995-.603-.441-1.406-.607-2.083-.292-.004.002-.008.004-.012.006-.793.373-1.394 1.069-1.649 1.912-.182.6-.312 1.157-.411 1.739 1.983.63 3.827 1.595 5.471 2.842.389-1.021.907-1.997 1.582-2.904zm2.117-1.221c.284-.059.578-.059.861 0 .904-1.171 2.203-2.498 3.769-3.653-.413-1.174-1.002-2.297-1.782-3.312-.578-.752-1.459-1.184-2.416-1.184s-1.838.432-2.417 1.184c-.78 1.014-1.37 2.137-1.782 3.312 1.566 1.155 2.865 2.481 3.769 3.653zm-1.818 8.791c-1.653-2.157-3.798-3.857-6.243-4.955-.391-.176-1.406-.369-1.925.007-.85.614-1.082 1.771-.873 2.796.794 3.892 2.978 6.72 6.122 8.152.538-2.046 1.529-4.163 2.375-5.387.158-.228.341-.433.544-.613z"/></svg>