<svg id="Layer_1" viewBox="0 0 24 24" xmlns="http://www.w3.org/2000/svg" data-name="Layer 1"><path d="m24 22c0 1.105-.895 2-2 2-.738 0-1.376-.405-1.723-1h-1.277c-1.654 0-3-1.346-3-3v-1c0-.553.448-1 1-1s1 .447 1 1v1c0 .552.449 1 1 1h1.277c.346-.595.984-1 1.723-1 1.105 0 2 .895 2 2zm-11-1.723v-1.277c0-.553-.448-1-1-1s-1 .447-1 1v1.277c-.595.346-1 .984-1 1.723 0 1.105.895 2 2 2s2-.895 2-2c0-.738-.405-1.376-1-1.723zm-6-2.277c-.552 0-1 .447-1 1v1c0 .552-.449 1-1 1h-1.277c-.346-.595-.984-1-1.723-1-1.105 0-2 .895-2 2s.895 2 2 2c.738 0 1.376-.405 1.723-1h1.277c1.654 0 3-1.346 3-3v-1c0-.553-.448-1-1-1zm12.895.211c.104.38.527.568.853.347 2.834-1.924 4.302-5.959 2.282-9.903-.995-1.944-2.99-2.995-5.109-3.525-.311-.078-.562-.291-.7-.58-1.795-3.753-6.278-5.595-10.353-3.939-2.383.969-4.14 3.116-4.68 5.631-.236 1.101-.25 2.208-.042 3.282.057.298-.064.629-.317.875-.892.864-1.559 1.969-1.756 3.195-.334 2.071.506 3.958 1.949 5.139.237.194.545.28.851.274.573-.004 1.093-.365 1.266-.911.384-1.214 1.521-2.096 2.861-2.096 1.044 0 1.962.537 2.5 1.348.355-.536.886-.932 1.5-1.152v-.816c-.896-.205-1.685-.678-2.289-1.331l-.544.314c-.478.276-1.09.111-1.365-.367-.276-.479-.112-1.09.367-1.366l.55-.317c-.129-.418-.218-.853-.218-1.312s.089-.895.218-1.312l-.55-.317c-.479-.276-.643-.887-.367-1.366.276-.478.887-.643 1.365-.367l.544.314c.605-.652 1.393-1.126 2.289-1.331v-.621c0-.552.448-1 1-1 .552 0 1 .448 1 1v.621c.896.205 1.685.678 2.289 1.331l.544-.314c.478-.276 1.09-.111 1.365.367.276.479.112 1.09-.367 1.366l-.55.317c.129.418.218.853.218 1.312s-.089.895-.218 1.312l.55.317c.479.276.643.887.367 1.366-.276.478-.887.643-1.365.367l-.544-.314c-.605.652-1.393 1.126-2.289 1.331v.816c.614.22 1.145.617 1.5 1.152.538-.811 1.456-1.348 2.5-1.348 1.381 0 2.548.938 2.895 2.211zm-5.395-7.211c0-1.379-1.122-2.5-2.5-2.5s-2.5 1.121-2.5 2.5 1.122 2.5 2.5 2.5 2.5-1.121 2.5-2.5z"/></svg>