<svg id="Layer_1" viewBox="0 0 24 24" xmlns="http://www.w3.org/2000/svg" data-name="Layer 1"><path d="m16 10c-.553 0-1 .448-1 1v1h-6v-1c0-.552-.448-1-1-1s-1 .448-1 1v12c0 .552.448 1 1 1s1-.448 1-1v-1h6v1c0 .552.447 1 1 1s1-.448 1-1v-12c0-.552-.447-1-1-1zm-1 4v2h-6v-2zm-6 6v-2h6v2zm15-7.504c0 3.258-2.091 6.029-5 7.059v-8.556c0-1.654-1.346-3-3-3-1.302 0-2.402.839-2.816 2h-2.369c-.414-1.161-1.514-2-2.816-2-1.654 0-3 1.346-3 3v8.971c-2.799-.254-5-2.611-5-5.475 0-1.546.656-3.03 1.801-4.07.272-.248.405-.594.346-.902-.184-.943-.194-1.916-.033-2.889.547-3.289 3.113-5.902 6.384-6.501 3.59-.658 7.184 1.167 8.734 4.439.141.295.411.502.742.569 3.492.697 6.026 3.79 6.026 7.354z"/></svg>