<svg id="Layer_1" viewBox="0 0 24 24" xmlns="http://www.w3.org/2000/svg" data-name="Layer 1"><path d="m1.999 9h12c.005 3.293-2.689 6.004-6 6-3.26 0-6-2.5-6-6zm0-2h12c.552 0 1-.448 1-1s-.448-1-1-1h-.023c-.239-2.635-2.343-4.739-4.977-4.977v2.977c0 .552-.448 1-1 1s-1-.448-1-1v-2.977c-2.634.238-4.738 2.342-4.977 4.977h-.023c-.552 0-1 .448-1 1s.448 1 1 1zm13.001 14.318c-1.459-1.016-2.467-2.554-2.837-4.287-1.156-.645-2.548-1.031-4.163-1.031-4.715 0-7.578 3.231-7.993 6.876-.082.579.406 1.137.992 1.124h14.352c-.219-.456-.351-.961-.351-1.5zm7.31-9.482c-.506-.447-1.31-.061-1.31.614v1.438c0 .997-.679 1.922-1.662 2.084-1.252.206-2.338-.758-2.338-1.972v-1.55c0-.675-.804-1.06-1.31-.614-1.036.915-1.69 2.251-1.69 3.742 0 2.049 1.236 3.806 3 4.578v2.344c0 .828.672 1.5 1.5 1.5h1c.828 0 1.5-.672 1.5-1.5v-2.344c1.764-.772 3-2.529 3-4.578 0-1.491-.654-2.827-1.69-3.742z"/></svg>