<svg id="Layer_1" viewBox="0 0 24 24" xmlns="http://www.w3.org/2000/svg" data-name="Layer 1"><path d="m15 15c0 1.654-1.346 3-3 3s-3-1.346-3-3 1.346-3 3-3 3 1.346 3 3zm7.546.509-7.038 7.038c-.967.967-2.238 1.451-3.509 1.451s-2.542-.484-3.509-1.451l-7.036-7.038c-1.935-1.936-1.935-5.083 0-7.018l7.037-7.037c1.935-1.935 5.083-1.935 7.018 0l1.157 1.157c-1.202.295-2.148 1.208-2.503 2.386-.232 0-.474-.001-.666-.001-1.499 0-2.151 1.128-2.366 1.5-.276.478-.113 1.089.365 1.366.158.091.33.134.5.134.345 0 .681-.179.867-.5.29-.5.449-.5.634-.5.077 0 .363 0 .664.002.432 1.444 1.754 2.503 3.338 2.503 1.644 0 3.013-1.138 3.389-2.666l1.657 1.657c1.935 1.935 1.935 5.082 0 7.018zm-5.623.377c.417-2.412-.91-4.579-2.923-5.462v-.424c0-.552-.448-1-1-1h-2c-.552 0-1 .448-1 1v.424c-1.763.774-3 2.531-3 4.576 0 3.11 2.854 5.566 6.08 4.886 1.953-.411 3.503-2.034 3.844-4zm-1.103-10.381.866-.328.347-.867c.076-.19.26-.314.464-.314s.388.125.464.314l.349.872.872.349c.19.076.314.26.314.464s-.125.388-.314.464l-.872.349-.349.872c-.076.19-.26.314-.464.314s-.388-.125-.464-.314l-.351-.877-.879-.37c-.188-.079-.31-.265-.306-.47.004-.204.132-.386.323-.458z"/></svg>