<svg id="Layer_1" viewBox="0 0 24 24" xmlns="http://www.w3.org/2000/svg" data-name="Layer 1"><path d="m10 5v3s-5 0-5 0v-3zm10-1v5c0 .55-.45 1-1 1h-1.14c-.45 1.72-2 3-3.86 3h-10c-2.21 0-4-1.79-4-4v-5c0-2.21 1.79-4 4-4h10c1.86 0 3.41 1.28 3.86 3h1.14c.55 0 1 .45 1 1zm-8 1c0-1.1-.9-2-2-2h-5c-1.1 0-2 .9-2 2v3c0 1.1.9 2 2 2h5c1.1 0 2-.9 2-2zm11.97 16.66c.2 1.25-.76 2.34-1.97 2.34h-10c-1.21 0-2.18-1.08-1.97-2.34.16-.98 1.08-1.66 2.08-1.66h1.89c.55 0 1-.45 1-1 0-.55-.45-1-1-1h-8.86c-.98 0-1.89-.64-2.1-1.59-.11-.52 0-1.01.23-1.41h11.72c1.12 0 2.14-.38 2.97-1h4.03c1.21 0 2.18 1.08 1.97 2.34-.16.98-1.08 1.66-2.08 1.66h-1.89c-.55 0-1 .45-1 1 0 .55.45 1 1 1h1.89c1 0 1.92.68 2.08 1.66z"/></svg>