<?xml version="1.0" encoding="UTF-8"?>
<svg xmlns="http://www.w3.org/2000/svg" id="Layer_1" data-name="Layer 1" viewBox="0 0 24 24">
  <path d="m7.086,10H2c-1.105,0-2-.895-2-2v-1c0-1.105.895-2,2-2h5.086c.53,0,1.039.211,1.414.586l1.207,1.207c.391.391.391,1.024,0,1.414l-1.207,1.207c-.375.375-.884.586-1.414.586Zm13.414,13.414l1.207-1.207c.391-.391.391-1.024,0-1.414l-1.207-1.207c-.375-.375-.884-.586-1.414-.586H2c-1.105,0-2,.895-2,2v1c0,1.105.895,2,2,2h17.086c.53,0,1.039-.211,1.414-.586Zm-6-7l1.207-1.207c.391-.391.391-1.024,0-1.414l-1.207-1.207c-.375-.375-.884-.586-1.414-.586H2c-1.105,0-2,.895-2,2v1c0,1.105.895,2,2,2h11.086c.53,0,1.039-.211,1.414-.586Zm9.196-7.414c-.186.32-.521.5-.867.5-.169,0-.341-.043-.499-.134l-.544-.314c-.604.65-1.392,1.122-2.286,1.327v.621c0,.553-.448,1-1,1s-1-.447-1-1v-.621c-.894-.204-1.682-.677-2.286-1.327l-.544.314c-.158.091-.33.134-.499.134-.346,0-.682-.18-.867-.5-.276-.479-.112-1.09.366-1.366l.549-.317c-.129-.419-.219-.856-.219-1.317s.09-.897.219-1.317l-.549-.317c-.478-.276-.642-.888-.366-1.366.276-.478.886-.643,1.366-.366l.544.314c.604-.65,1.392-1.122,2.286-1.327v-.621c0-.553.448-1,1-1s1,.447,1,1v.621c.894.204,1.682.677,2.286,1.327l.544-.314c.479-.276,1.089-.111,1.366.366.276.479.112,1.09-.366,1.366l-.549.317c.129.419.219.856.219,1.317s-.09.897-.219,1.317l.549.317c.478.276.642.888.366,1.366Zm-3.696-3c0-.827-.673-1.5-1.5-1.5s-1.5.673-1.5,1.5.673,1.5,1.5,1.5,1.5-.673,1.5-1.5Z"/>
</svg>
