<svg id="Layer_1" viewBox="0 0 24 24" xmlns="http://www.w3.org/2000/svg" data-name="Layer 1"><path d="m15.988 11.726c.158 1.78-1.24 3.274-2.988 3.274h-3.978c-.691 0-1.181-.666-.975-1.325.502-1.609 1.936-4.165 4.24-4.608 1.755-.338 3.542.879 3.7 2.659zm.034-3.662c.74.558 1.279 1.309 1.611 2.141l5.659-6.085c.943-.942.945-2.47.003-3.413-.941-.942-2.467-.943-3.409-.002-.032.032-5.573 6.513-5.573 6.513.609.175 1.191.456 1.708.846zm-4.27-.929 1.041-1.217c1.471-1.721 2.548-2.981 3.35-3.918h-11.143c-2.757 0-5 2.243-5 5v2h8.559c.87-.882 1.928-1.584 3.193-1.865zm-7.252-.135c-.828 0-1.5-.672-1.5-1.5s.672-1.5 1.5-1.5 1.5.672 1.5 1.5-.672 1.5-1.5 1.5zm2.5-1.5c0-.828.672-1.5 1.5-1.5s1.5.672 1.5 1.5-.672 1.5-1.5 1.5-1.5-.672-1.5-1.5zm14.484 3.5h2.516v-2c0-.218-.037-.426-.064-.637zm-3.553 3.822c-.159.946-.585 1.837-1.241 2.553-.945 1.033-2.29 1.625-3.689 1.625h-3.978c-.958 0-1.869-.46-2.436-1.231-.566-.771-.734-1.776-.448-2.69.208-.668.522-1.381.918-2.078h-7.057v8c0 2.757 2.243 5 5 5h14c2.757 0 5-2.243 5-5v-8h-4.375l-1.694 1.822zm.069 8.178h-12c-.552 0-1-.448-1-1s.448-1 1-1h12c.552 0 1 .448 1 1s-.448 1-1 1z"/></svg>