<svg id="Layer_1" viewBox="0 0 24 24" xmlns="http://www.w3.org/2000/svg" data-name="Layer 1"><path d="m10.035 12c-.433-.52-1.035-1-1.035-2.41 0-.775.41-1.329.773-1.746.17-.196.493-.089.507.17.026.484.109.986.547.986 1.158 0-.326-2 .424-3.172.134-.332.559-.432.839-.208 1.027.822 2.911 2.476 2.911 3.969 0 1.411-.602 1.891-1.035 2.411zm13.227 1.724c-.502-.168-1.394-.336-2.291-.451.989-.145 2.099-.592 2.581-1.797.613-1.535.476-3.395.296-4.543-.089-.568-.726-.864-1.219-.569-.472.282-1.061.698-1.655 1.261.693-1.064 1.393-2.628.718-3.987-.62-1.247-1.787-2.818-2.733-3.435-.725-.474-1.702-.04-1.818.818-.201 1.481-.195 4.316.982 6.765.844 4.943-.615 8.02-2.027 9.746-.912 1.115-1.976 1.875-2.976 2.332l.632-5.864h-3.5l.625 5.8c-.925-.465-1.913-1.209-2.793-2.282-1.991-2.433-2.784-5.784-2.302-9.532 1.277-2.492 1.287-5.443 1.08-6.965-.116-.858-1.093-1.292-1.818-.818-.946.617-2.113 2.188-2.733 3.435-.675 1.359.024 2.923.718 3.987-.594-.563-1.183-.978-1.655-1.261-.493-.295-1.13 0-1.219.569-.18 1.148-.317 3.008.296 4.543.481 1.205 1.591 1.652 2.581 1.797-.896.115-1.788.284-2.291.451-.726.242-.98 1.144-.472 1.717.755.853 2.662 1.972 4.027 2.409-.806.393-1.494.805-1.912 1.154-.539.451-.5 1.298.084 1.69.797.534 2.483 1.146 4.066 1.246-.146.19-.275.374-.367.543-.335.612.06 1.371.754 1.443 1.243.128 3.432.155 5.084-.489 1.661.643 3.876.617 5.119.489.694-.072 1.089-.831.754-1.443-.093-.169-.224-.354-.373-.545 1.574-.106 3.241-.714 4.033-1.244.584-.391.624-1.239.084-1.69-.418-.349-1.106-.761-1.912-1.154 1.365-.438 3.272-1.556 4.027-2.409.508-.573.254-1.475-.472-1.717z"/></svg>