<svg id="Layer_1" viewBox="0 0 24 24" xmlns="http://www.w3.org/2000/svg" data-name="Layer 1"><path d="m23 11h-3.343c-1.336 0-2.592.521-3.536 1.465l-1.866 1.866c-1.145-.529-2.594-.347-3.51.571l-3.752 3.752c-1.181 1.181-1.292 3.055-.254 4.268.587.685 1.44 1.078 2.341 1.078.822 0 1.596-.32 2.178-.902l3.841-3.841c.582-.582.902-1.355.902-2.178 0-.475-.118-.929-.321-1.344l1.856-1.856c.566-.566 1.32-.879 2.122-.879h3.343c.553 0 1-.447 1-1s-.447-1-1-1zm-18-3.5v-1c0-.275.225-.5.5-.5h6c.275 0 .5.225.5.5v1c0 .275-.225.5-.5.5h-6c-.275 0-.5-.225-.5-.5zm.578 9.74 3.752-3.752c.925-.927 2.234-1.459 3.591-1.459.249 0 .492.037.736.072l1.05-1.05c.667-.667 1.446-1.182 2.293-1.53v-3.521c0-3.309-2.691-6-6-6h-5c-3.309 0-6 2.691-6 6v6c0 3.109 1.787 5.803 4.384 7.127.257-.687.645-1.337 1.194-1.886zm-2.578-10.74c0-1.379 1.121-2.5 2.5-2.5h6c1.379 0 2.5 1.121 2.5 2.5v1c0 1.379-1.121 2.5-2.5 2.5h-6c-1.379 0-2.5-1.121-2.5-2.5z"/></svg>