<svg id="Layer_1" viewBox="0 0 24 24" xmlns="http://www.w3.org/2000/svg" data-name="Layer 1"><path d="m23.414 3.397-.957.957c-.574.574-.701 1.425-.383 2.122.185.405.044.888-.271 1.203-.42.42-1.101.42-1.521 0l-.576-.576-4.293 4.293c-.39.391-.902.586-1.414.586-.172 0-.343-.031-.511-.075l-.782.799c-.391.391-1.024.391-1.414 0-.391-.39-.391-1.024 0-1.414l.782-.799c-.176-.666-.011-1.403.511-1.925l4.293-4.293-.576-.576c-.42-.42-.42-1.101 0-1.521.315-.315.798-.457 1.204-.271.697.319 1.548.191 2.122-.383l.88-.88c.705-.705 1.839-.877 2.648-.295 1.03.741 1.116 2.188.257 3.046zm-.145 9.114c-.614-.965-1.546-2.188-2.827-3.314l-3.846 3.846c.258.602.408 1.262.408 1.957-.001 2.756-2.244 4.998-5 4.998s-4.999-2.242-5-4.998c0-1.73.885-3.255 2.224-4.153.168-.419.455-.791.786-1.108.058-.963.461-1.89 1.157-2.585l1.141-1.141c-.104-.002-.203-.013-.309-.013-6.188 0-9.716 4.083-11.267 6.517-.491.765-.736 1.624-.736 2.483s.245 1.718.736 2.483c1.551 2.434 5.079 6.517 11.269 6.517s9.717-4.081 11.265-6.511c.493-.768.739-1.628.74-2.489 0-.86-.247-1.721-.74-2.489zm-9.133 1.594c-.594.595-1.369.891-2.142.891-1.006.018-2.073-.563-2.575-1.489-.256.441-.414.947-.414 1.492.001 1.653 1.346 2.998 3 2.998s2.999-1.345 3-2.998c0-.392-.081-.763-.218-1.107-.172.034-.344.07-.521.081l-.129.131z"/></svg>