<?xml version="1.0" encoding="UTF-8"?>
<svg xmlns="http://www.w3.org/2000/svg" id="Layer_1" data-name="Layer 1" viewBox="0 0 24 24">
  <path d="M22,1h-4c-.553,0-1,.447-1,1s.447,1,1,1h2.586l-3.833,3.833c-.791-.524-1.736-.833-2.753-.833-2.757,0-5,2.243-5,5,0,2.414,1.721,4.434,4,4.899v3.101h-2c-.553,0-1,.447-1,1s.447,1,1,1h2v2c0,.553,.447,1,1,1s1-.447,1-1v-2h2c.553,0,1-.447,1-1s-.447-1-1-1h-2v-3.101c2.279-.465,4-2.484,4-4.899,0-1.017-.309-1.962-.833-2.753l3.833-3.833v2.586c0,.553,.447,1,1,1s1-.447,1-1V3c0-1.103-.897-2-2-2ZM8.353,15.124l-4.899,1.879c-.686,.235-1.338-.428-1.088-1.106l2-3.906L.46,10.386c-.599-.263-.617-1.104-.029-1.392l4.005-1.84L1.036,2.093c-.4-.672,.34-1.444,1.033-1.077L7.502,3.844l1.769-3.307c.382-.715,1.411-.715,1.793,0l1.627,3.591c-3.239,.614-5.69,3.455-5.69,6.873,0,1.544,.506,2.967,1.353,4.124Z"/>
</svg>
