<svg id="Layer_1" viewBox="0 0 24 24" xmlns="http://www.w3.org/2000/svg" data-name="Layer 1"><path d="m13 15.679v-1.759c3.387-.488 6-3.401 6-6.92 0-3.859-3.14-7-7-7s-7 3.141-7 7c0 3.519 2.613 6.432 6 6.92v1.759l-4.814 6.74c-.321.449-.217 1.074.233 1.395.447.321 1.073.217 1.395-.232l3.186-4.46v3.879c0 .553.448 1 1 1s1-.447 1-1v-3.879l3.186 4.46c.195.273.503.419.815.419.201 0 .404-.061.58-.187.45-.32.554-.945.233-1.395zm-2.5-9.679c-.552 0-1 .447-1 1s.448 1 1 1h.5v2.858c-1.72-.447-3-2-3-3.858 0-2.206 1.795-4 4-4s4 1.794 4 4c0 1.858-1.28 3.411-3 3.858v-2.858h.5c.552 0 1-.447 1-1s-.448-1-1-1z"/></svg>