<svg id="Layer_1" viewBox="0 0 24 24" xmlns="http://www.w3.org/2000/svg" data-name="Layer 1"><path d="m11.433 21.289-2.274 2.189c-.348.335-.811.522-1.294.522h-5.865c-1.105 0-2-.895-2-2v-1.469c0-1.636.996-3.106 2.514-3.714l2.486-.994v-3.323c0-.827.673-1.5 1.5-1.5s1.5.673 1.5 1.5v6.698l.622-.573c.677-.678 1.772-.851 2.562-.285.997.718 1.08 2.118.249 2.949zm10.053-4.471-2.486-.994v-3.323c0-.827-.673-1.5-1.5-1.5s-1.5.673-1.5 1.5v6.698l-.622-.573c-.677-.678-1.772-.851-2.562-.285-.997.718-1.08 2.118-.249 2.949l2.274 2.189c.348.335.811.522 1.294.522h5.865c1.105 0 2-.895 2-2v-1.469c0-1.636-.996-3.106-2.514-3.714zm2.514-11.818v4c0 2.045-1.237 3.802-3 4.576v-1.076c0-1.12-.538-2.107-1.359-2.748.215-.183.359-.447.359-.752 0-.552-.448-1-1-1h-1c-.552 0-1 .448-1 1 0 .015.008.027.008.041-.003 0-.005.002-.008.002v.007c-1.694.245-3 1.688-3 3.45v1.5h-4v-1.5c0-1.762-1.306-3.205-3-3.45v-.007s-.005-.002-.008-.002c0-.014.008-.027.008-.041 0-.552-.448-1-1-1h-1c-.552 0-1 .448-1 1 0 .305.144.568.359.752-.821.641-1.359 1.629-1.359 2.748v1.076c-1.763-.774-3-2.531-3-4.576v-4c0-2.757 2.243-5 5-5h14c2.757 0 5 2.243 5 5zm-15 0c0 .552.447 1 1 1h1c.553 0 1-.448 1-1s-.447-1-1-1h-1c-.553 0-1 .448-1 1zm-2 0c0-.552-.447-1-1-1h-1c-.553 0-1 .448-1 1s.447 1 1 1h1c.553 0 1-.448 1-1zm8 4c0-.552-.448-1-1-1h-4c-.552 0-1 .448-1 1s.448 1 1 1h4c.552 0 1-.448 1-1zm5-4c0-.552-.447-1-1-1h-4c-.553 0-1 .448-1 1s.447 1 1 1h4c.553 0 1-.448 1-1z"/></svg>