<?xml version="1.0" encoding="UTF-8"?>
<svg xmlns="http://www.w3.org/2000/svg" id="Layer_1" data-name="Layer 1" viewBox="0 0 24 24">
  <path d="M23.647,10.033l-2.214,1.107,1.929,1.929c.44,.44,.108,1.165-.474,1.165-.039,0-.079-.003-.121-.01l-1.335-.222,.547,2.19c.119,.477-.262,.851-.668,.851-.165,0-.334-.062-.475-.203l-3.373-4.255c.321-.608,.519-1.289,.53-2.021l.007-.009,1.667-.788c.294-.139,.298-.557,.006-.701l-1.673-.826-.03-.037c-.043-.648-.222-1.254-.512-1.799l3.379-4.398c.141-.141,.31-.203,.475-.203,.406,0,.788,.373,.668,.851l-.547,2.19,1.335-.223c.041-.007,.081-.01,.121-.01,.582,0,.913,.726,.474,1.165l-1.929,1.929,2.214,1.107c.503,.251,.503,.969,0,1.22ZM14,6c0-.552-.447-1-1-1s-1,.448-1,1H3c-.539,0-1.02,.425-1.001,.963,.021,.58-.456,1.057-1.036,1.036-.538-.019-.963,.462-.963,1.001v1.591c0,.005,0,.01,0,.015,.004,.785,.699,1.394,1.484,1.394H14c1.105,0,2-.895,2-2v-2c0-1.105-.895-2-2-2ZM1.331,14L.096,18.049c-.436,1.473,.668,2.951,2.205,2.951h.715c1.322,0,2.488-.865,2.873-2.13l.568-1.87h1.176c.883,0,1.662-.579,1.916-1.425l.452-1.575H1.331Z"/>
</svg>
