<?xml version="1.0" encoding="UTF-8"?>
<svg xmlns="http://www.w3.org/2000/svg" id="Layer_1" data-name="Layer 1" viewBox="0 0 24 24">
  <path d="M6.332,12.002c-.396,0-.795-.067-1.177-.207l-2.88-1.047c-1.361-.495-2.275-1.801-2.275-3.248v-2.981C0,3.318,.607,2.222,1.625,1.587L3.323,.525h0c1.182-.737,2.681-.697,3.82,.104l2.388,1.68c.919,.646,1.468,1.703,1.468,2.827v2.405c0,1.028-.453,1.996-1.244,2.655l-1.208,1.006c-.628,.524-1.417,.8-2.216,.8Zm13.629-3.002h-1.607c-.904,0-1.77-.43-2.317-1.15l-1.446-1.908c-.806-1.063-.787-2.533,.046-3.573l1.021-1.277c.556-.693,1.383-1.091,2.271-1.091h2.489c1.261,0,2.372,.806,2.764,2.005l.674,2.067c.344,1.051,.068,2.188-.719,2.968l-1.13,1.119h0c-.548,.542-1.274,.841-2.045,.841ZM3.081,22.001c-.27,0-.543-.061-.799-.187l-1.265-.618c-.617-.301-1.016-.939-1.016-1.628v-1.271c0-.718,.424-1.368,1.08-1.658l1.522-.673c.794-.355,1.73-.089,2.225,.627l.852,1.232c.461,.668,.42,1.569-.1,2.191l-1.108,1.33c-.354,.425-.867,.653-1.391,.653Zm20.68-4.979l-1.416-3.697c-.532-1.388-1.888-2.32-3.373-2.32l-3.963-.003h-.005c-.968,0-1.91,.397-2.586,1.09l-2.39,2.449c-.663,.679-1.028,1.575-1.028,2.524v1.416c0,.908,.338,1.777,.953,2.446l1.75,1.904c.682,.743,1.652,1.169,2.662,1.169h4.866c1.31,0,2.52-.711,3.158-1.854l1.154-2.071c.523-.938,.602-2.052,.217-3.053Zm-7.746,4.979h-1.122c-.56,0-1.094-.235-1.473-.647l-1.486-1.617c-.374-.407-.347-1.039,.06-1.413h0c.407-.374,1.039-.347,1.413,.059l1.189,1.294c.189,.206,.456,.323,.736,.323h.682c.552,0,1,.448,1,1s-.448,1-1,1Z"/>
</svg>
