<svg id="Layer_1" viewBox="0 0 24 24" xmlns="http://www.w3.org/2000/svg" data-name="Layer 1"><path d="m23.993 7.915c0 .272-.091.679-.523 1.062l-2.354 1.757c-.331.303-.911.346-1.336.148-.462-.207-.761-.661-.761-1.155v-2.002l-.409.299c-.441.325-1.07.232-1.397-.216-.326-.446-.229-1.071.216-1.397l1.245-.911-1.245-.911c-.445-.326-.542-.951-.216-1.397.325-.445.949-.544 1.397-.216l.409.299v-2.002c0-.494.299-.948.761-1.155.447-.2.958-.142 1.332.146 0 0 2.306 1.556 2.34 1.586.365.325.55.698.549 1.108 0 .409-.187.779-.552 1.101-.03.027-2.091 1.432-2.091 1.432s2.013 1.262 2.054 1.298c.144.127.581.514.582 1.127zm-7.993 4.085c0 1.477-.809 2.752-2 3.445v6.555c0 1.105-.895 2-2 2-1.105 0-2-.895-2-2v-6.555c-1.191-.693-2-1.968-2-3.445 0-1.42.743-2.659 1.86-3.365.494-.312 1.14.074 1.14.658v2.208c0 .552.448 1 1 1s1-.448 1-1v-2.208c0-.584.646-.969 1.14-.658 1.117.706 1.86 1.945 1.86 3.365zm-10 0c0-3.314 2.686-6 6-6 1.116 0 2.157.31 3.053.841.061-.476.227-.939.507-1.341-.403-.578-.617-1.308-.56-2-.013-.005 0-.5 0-.5 0-1.657-1.343-3-3-3s-3 1.343-3 3v.513c-1.043.369-2.008.927-2.848 1.646l-.447-.259c-1.436-.828-3.272-.336-4.1 1.1s-.336 3.272 1.1 4.1l.444.256c-.2 1.088-.2 2.202 0 3.29l-.444.256c-1.432.831-1.923 2.663-1.098 4.098.827 1.436 2.662 1.929 4.097 1.102l.003-.002.445-.257c.563.482 1.187.884 1.848 1.212v-3.592c-1.225-1.099-2-2.688-2-4.463zm15.295 1.899-.444-.256c.043-.234.072-.469.097-.704-.202.037-.407.06-.615.06-.853.007-1.733-.345-2.335-.954-.013 1.756-.783 3.329-1.998 4.418v3.591c.661-.329 1.285-.731 1.848-1.214l.447.258c1.436.828 3.272.336 4.1-1.1s.336-3.272-1.1-4.1z"/></svg>