<svg id="Layer_1" viewBox="0 0 24 24" xmlns="http://www.w3.org/2000/svg" data-name="Layer 1"><path d="m21.14 3.864s-.692-.857-1.713-.857c-.939 0-1.594.172-2.023.577-.968.914.115 1.136.596 1.136 0 0-.135.729.538.979s1.457.449 1.457.449c.275.825-.329 3.49.506 5.402-.165-.186-.665-.677-1.501-.92v-.509c0-1.728-1.102-3.253-2.741-3.796l-3.631-1.205c-.41-.135-.845-.136-1.258 0l-3.629 1.204c-1.64.543-2.741 2.068-2.741 3.797v.508c-.836.243-1.336.734-1.501.92.835-1.912.231-4.577.506-5.402 0 0 .784-.199 1.457-.449s.538-.979.538-.979c.481 0 1.564-.222.596-1.136-.429-.405-1.084-.577-2.023-.577-1.021 0-1.713.857-1.713.857-2.747 3.247-2.871 5.838-2.86 7.583.003.502.203.975.559 1.329.77.766 2.353 1.971 4.73 2.182.647 2.239 2.429 4.18 5.357 5.778.452.248.944.372 1.438.372.424 0 .85-.092 1.251-.277 3.006-1.381 4.806-3.356 5.416-5.875 2.355-.221 3.924-1.418 4.689-2.179.356-.354.556-.827.559-1.329.012-1.745-.112-4.336-2.859-7.582zm-7.14 10.136h-1v1c0 .553-.448 1-1 1s-1-.447-1-1v-1h-1c-.552 0-1-.447-1-1s.448-1 1-1h1v-1c0-.553.448-1 1-1s1 .447 1 1v1h1c.552 0 1 .447 1 1s-.448 1-1 1z"/></svg>