<svg id="Layer_1" viewBox="0 0 24 24" xmlns="http://www.w3.org/2000/svg" data-name="Layer 1"><path d="m23 5h-1c-.552 0-1 .448-1 1v5c0 .551-.449 1-1 1h-1v-5c0-2.757-2.243-5-5-5h-9c-2.757 0-5 2.243-5 5v10c0 2.757 2.243 5 5 5h9c2.757 0 5-2.243 5-5v-3h1c1.654 0 3-1.346 3-3v-4c.552 0 1-.448 1-1s-.448-1-1-1zm-16 12h-1v1c0 .553-.448 1-1 1s-1-.447-1-1v-1h-1c-.552 0-1-.447-1-1s.448-1 1-1h1v-1c0-.552.448-1 1-1s1 .448 1 1v1h1c.552 0 1 .447 1 1s-.448 1-1 1zm4.5.5c-.828 0-1.5-.672-1.5-1.5s.672-1.5 1.5-1.5 1.5.672 1.5 1.5-.672 1.5-1.5 1.5zm-7-6.5c-.827 0-1.5-.673-1.5-1.5v-3c0-.827.673-1.5 1.5-1.5h10c.827 0 1.5.673 1.5 1.5v3c0 .827-.673 1.5-1.5 1.5zm11 6.5c-.828 0-1.5-.672-1.5-1.5s.672-1.5 1.5-1.5 1.5.672 1.5 1.5-.672 1.5-1.5 1.5zm-10.5-10.5h9v2h-9z"/></svg>