<svg id="Layer_1" viewBox="0 0 24 24" xmlns="http://www.w3.org/2000/svg" data-name="Layer 1"><path d="m11 0c-6.075 0-11 4.925-11 11 0 5.447 3.964 9.958 9.162 10.834.068-.445.218-.883.456-1.291l4.808-8.242c.658-1.127 1.83-1.801 3.135-1.801s2.477.673 3.135 1.801l.914 1.567c.247-.916.391-1.874.391-2.867-.001-6.076-4.926-11.001-11.001-11.001zm1 11c0 .552-.447 1-1 1h-4c-.553 0-1-.448-1-1s.447-1 1-1h3v-4c0-.552.447-1 1-1s1 .448 1 1zm4.154 2.308-4.808 8.242c-.633 1.086.15 2.45 1.407 2.45h9.616c1.257 0 2.041-1.364 1.407-2.45l-4.808-8.242c-.629-1.078-2.186-1.078-2.814 0zm1.407 9.692c-.552 0-1-.448-1-1 0-.552.448-1 1-1 .552 0 1 .448 1 1 0 .552-.448 1-1 1zm-1-4v-2.002c0-.552.448-1 1-1 .552 0 1 .448 1 1v2.002c0 .552-.448 1-1 1-.552 0-1-.448-1-1z"/></svg>