<svg id="Layer_1" viewBox="0 0 24 24" xmlns="http://www.w3.org/2000/svg" data-name="Layer 1"><path d="m22 23c0 .553-.447 1-1 1h-18c-.553 0-1-.447-1-1 0-3.525 2.042-6.574 5-8.05v3.328c-.595.346-1 .984-1 1.723 0 1.105.895 2 2 2s2-.895 2-2c0-.738-.405-1.376-1-1.723v-4.046c.644-.147 1.312-.232 2-.232h2c.338 0 .671.022 1 .059v4.125c-1.161.414-2 1.514-2 2.816v1c0 .553.447 1 1 1s1-.447 1-1v-1c0-.552.448-1 1-1s1 .448 1 1v1c0 .553.447 1 1 1s1-.447 1-1v-1c0-1.302-.839-2.402-2-2.816v-3.659c3.49 1.239 6 4.565 6 8.475zm-11.206-18.717c.648-.404 1.177-.946 1.557-1.584.237-.398.721-.595 1.158-.44.006.002.013.005.019.007.588.212.871.9.553 1.438-1.174 2.118-3.704 3.334-6.082 3.296-.038 0-.41 0-.69 0 .361 2.264 2.327 3.999 4.69 3.999 1.751 0 3.284-.953 4.108-2.368.031.129.682 2.5 1.132 4.219.481.202.944.437 1.387.702.783.469 1.743-.208 1.525-1.094-.958-3.898-1.932-7.851-1.95-7.909-.855-2.722-3.348-4.55-6.202-4.55s-5.347 1.83-6.201 4.551c-.017.054-.058.211-.117.45h2.088c1.25 0 2.214-.212 3.025-.717zm-1.973 7.936c-1.974-1.034-3.379-3.006-3.596-5.333-.121.507-.703 2.857-1.377 5.578-.217.875.728 1.572 1.5 1.107 1.056-.636 2.226-1.101 3.474-1.352z"/></svg>