<svg id="Layer_1" viewBox="0 0 24 24" xmlns="http://www.w3.org/2000/svg" data-name="Layer 1"><path d="m11.73 7.973-1.859 4.027h4.258l-1.859-4.027c1.526-.139 2.73-1.411 2.73-2.973 0-1.302-.839-2.402-2-2.816v-1.184c0-.552-.447-1-1-1s-1 .448-1 1v1.184c-1.161.414-2 1.514-2 2.816 0 1.562 1.204 2.834 2.73 2.973zm.27-3.973c.552 0 1 .449 1 1s-.448 1-1 1-1-.449-1-1 .448-1 1-1z"/><path d="m23 2c-.553 0-1 .448-1 1 0 1.103-.897 2-2 2h-3c0 1.652-.811 3.104-2.046 4.015l1.378 2.985h1.668c.553 0 1 .448 1 1s-.447 1-1 1h-.745l1.653 3.581c.231.501.013 1.095-.489 1.327-.49.23-1.095.017-1.327-.489l-2.04-4.419h-6.104l-2.04 4.419c-.232.506-.837.718-1.327.489-.502-.231-.721-.825-.489-1.327l1.653-3.581h-.745c-.553 0-1-.448-1-1s.447-1 1-1h1.668l1.378-2.985c-1.235-.91-2.046-2.363-2.046-4.015h-3c-1.103 0-2-.897-2-2 0-.552-.447-1-1-1s-1 .448-1 1v16c0 2.757 2.243 5 5 5h14c2.757 0 5-2.243 5-5v-16c0-.552-.447-1-1-1z"/></svg>