<svg id="Layer_1" viewBox="0 0 24 24" xmlns="http://www.w3.org/2000/svg" data-name="Layer 1"><path d="m23.682 6.958-4.688 5.572c-.36.372-.881.542-1.391.455-1.018-.174-1.592-1.267-1.159-2.204l1.377-2.781h-.897c-.614 0-1.177-.283-1.543-.776s-.475-1.114-.297-1.702l1.606-4.175c.278-.806 1.037-1.347 1.89-1.347h1.921c1.036 0 1.761 1.026 1.413 2.003l-.913 1.997h1.094c.703 0 1.347.385 1.679 1.005.332.619.297 1.368-.092 1.953zm-3.251 6.964c-.678.7-1.605 1.086-2.563 1.086-1.317.004-2.554-.738-3.159-1.908-.521-.991-.55-2.142-.08-3.158l.252-.511c-.423-.258-.798-.6-1.106-1.015-.748-1.007-.969-2.273-.606-3.473 0 0 1.726-4.478 1.762-4.561-.304.077-.585.158-.846.233-.742.215-1.328.385-2.085.385s-1.343-.17-2.085-.385c-.945-.274-2.122-.615-3.915-.615-4.746 0-6 3.925-6 6 0 6.443 3.355 12.786 5.768 16.885.409.695 1.151 1.115 1.958 1.115 1.256 0 2.274-1.018 2.274-2.274v-6.619c0-.996.681-1.92 1.664-2.08 1.253-.204 2.336.758 2.336 1.973v6.726c0 1.256 1.018 2.274 2.274 2.274.806 0 1.549-.42 1.958-1.115 1.882-3.197 4.329-7.759 5.319-12.667z"/></svg>