<svg id="Layer_1" viewBox="0 0 24 24" xmlns="http://www.w3.org/2000/svg" data-name="Layer 1"><path d="m23.892 8.45-3.149 6.239.884.476c1.011.542 1.553 1.705 1.316 2.827-.304 1.438-.936 2.887-1.877 4.303-.675 1.021-1.975 1.412-3.095.989-.21-.078-.419-.171-.629-.257.462-1.069 1.036-2.979 1.202-4.108.053-.362-.395-.569-.656-.313-1.235 1.211-2.665 2.5-3.416 3.019-.477-.276-.942-.56-1.375-.858-.615-.423-1.017-1.089-1.101-1.827-.085-.743.158-1.487.666-2.042.809-.885 1.52-1.796 2.112-2.709.744-1.146 2.208-1.524 3.407-.88l.8.431 3.125-6.191c.249-.492.851-.69 1.343-.442.493.249.691.851.442 1.343zm-11.892.55c-.485 0-.995-.115-1.397-.317l-2.524-1.262c-.555-.277-1.166-.422-1.787-.422h-2.292c-2.209 0-4 1.791-4 4v8c0 2.761 2.239 5 5 5h9.581c-.779-.451-1.971-1.128-2.617-1.585-1.091-.75-1.804-1.935-1.954-3.249-.15-1.316.279-2.636 1.178-3.618.735-.805 1.378-1.628 1.91-2.447 1.101-1.696 3.099-2.439 4.961-1.969l1.076-2.131zm-3.023-3.365 2.52 1.259c.103.051.303.106.503.106h6v-1.694c0-.776-.301-1.522-.84-2.081l-2.222-2.306c-.565-.587-1.345-.919-2.16-.919h-4.778c-2.209 0-4 1.791-4 4v1h2.292c.927 0 1.856.219 2.685.635z"/></svg>