<svg id="Layer_1" viewBox="0 0 24 24" xmlns="http://www.w3.org/2000/svg" data-name="Layer 1"><path d="m15.984 6.062-.568-.314c.053-.241.085-.49.085-.747s-.032-.506-.085-.747l.568-.314c.483-.267.659-.876.391-1.359-.267-.483-.875-.658-1.359-.391l-.57.315c-.4-.392-.897-.675-1.446-.841v-.663c0-.552-.448-1-1-1s-1 .448-1 1v.663c-.549.165-1.047.449-1.446.841l-.57-.315c-.482-.267-1.091-.092-1.359.391s-.092 1.092.391 1.359l.568.314c-.053.241-.085.49-.085.747s.032.506.085.747l-.568.314c-.483.267-.659.876-.391 1.359.269.488.885.656 1.359.391l.57-.315c.4.392.897.675 1.446.841v.663c0 .552.448 1 1 1s1-.448 1-1v-.663c.549-.165 1.047-.449 1.446-.841l.57.315c.474.265 1.09.097 1.359-.391.268-.483.092-1.092-.391-1.359zm8.016 9.938c0 4.418-3.582 8-8 8h-8c-4.418 0-8-3.582-8-8 0-3.665 2.468-6.747 5.83-7.694 1.18 2.198 3.5 3.694 6.17 3.694.394 0 .778-.042 1.155-.105-1.3.903-2.155 2.402-2.155 4.105 0 2.761 2.239 5 5 5s5-2.239 5-5-2.239-5-5-5c-.17 0-.33.033-.495.05 1.122-.652 2.05-1.599 2.665-2.744 3.362.947 5.83 4.029 5.83 7.694z"/></svg>