<svg id="Layer_1" viewBox="0 0 24 24" xmlns="http://www.w3.org/2000/svg" data-name="Layer 1"><path d="m17 17c-2.757 0-5-2.243-5-5v-4h-7c-.552 0-1-.447-1-1v-2c0-.553.448-1 1-1h7v-1c0-1.13.391-2.162 1.026-3h-8.026c-2.757 0-5 2.243-5 5v14c0 2.757 2.243 5 5 5h9c2.414 0 4.434-1.721 4.899-4h.101c.553 0 1-.447 1-1v-2zm-11 3h-1c-.552 0-1-.447-1-1s.448-1 1-1h1c.552 0 1 .447 1 1s-.448 1-1 1zm0-4h-1c-.552 0-1-.447-1-1s.448-1 1-1h1c.552 0 1 .447 1 1s-.448 1-1 1zm0-4h-1c-.552 0-1-.447-1-1s.448-1 1-1h1c.552 0 1 .447 1 1s-.448 1-1 1zm4 8h-1c-.552 0-1-.447-1-1s.448-1 1-1h1c.552 0 1 .447 1 1s-.448 1-1 1zm0-4h-1c-.552 0-1-.447-1-1s.448-1 1-1h1c.552 0 1 .447 1 1s-.448 1-1 1zm0-4h-1c-.552 0-1-.447-1-1s.448-1 1-1h1c.552 0 1 .447 1 1s-.448 1-1 1zm4 8h-1c-.553 0-1-.447-1-1s.447-1 1-1h1c.553 0 1 .447 1 1s-.447 1-1 1zm7-20h-4c-1.657 0-3 1.343-3 3v9c0 1.657 1.343 3 3 3h4c1.657 0 3-1.343 3-3v-9c0-1.657-1.343-3-3-3zm-1.5 12.5h-1c-.553 0-1-.447-1-1s.447-1 1-1h1c.553 0 1 .447 1 1s-.447 1-1 1z"/></svg>