<svg id="Layer_1" viewBox="0 0 24 24" xmlns="http://www.w3.org/2000/svg" data-name="Layer 1"><path d="m20.5 7c1.93 0 3.5-1.57 3.5-3.5s-1.57-3.5-3.5-3.5-3.5 1.57-3.5 3.5 1.57 3.5 3.5 3.5zm-6 8.5c0 1.933-1.567 3.5-3.5 3.5s-3.5-1.567-3.5-3.5 1.567-3.5 3.5-3.5 3.5 1.567 3.5 3.5zm.5-12c0-.206.014-.41.036-.61-.56-.554-1.306-.887-2.104-.89h-3.864c-.929.003-1.806.434-2.376 1.168l-1.413 1.832h9.933c-.135-.477-.212-.979-.212-1.5zm5.955 5.477c.645.842 1.043 1.881 1.045 3.023v7c-.003 2.76-2.24 4.997-5 5h-12c-2.76-.003-4.997-2.24-5-5v-7c.003-2.76 2.24-4.997 5-5h11.257c1.009 1.221 2.535 2 4.243 2 .154 0 .305-.011.455-.023zm-4.455 6.523c0-3.038-2.462-5.5-5.5-5.5s-5.5 2.462-5.5 5.5 2.462 5.5 5.5 5.5c3.036-.003 5.497-2.464 5.5-5.5z"/></svg>