<svg id="Layer_1" viewBox="0 0 24 24" xmlns="http://www.w3.org/2000/svg" data-name="Layer 1"><path d="m16 0c-4.411 0-8 3.589-8 8 0 1.846.634 3.542 1.688 4.898l-3.515 3.515-1.793-1.793c-.391-.391-1.023-.391-1.414 0s-.391 1.024 0 1.414l1.793 1.793-1.259 1.259-1.793-1.793c-.391-.391-1.023-.391-1.414 0s-.391 1.023 0 1.414l1.793 1.793-1.793 1.793c-.391.391-.391 1.023 0 1.414.195.195.451.293.707.293s.512-.098.707-.293l9.395-9.395c1.355 1.054 3.052 1.688 4.898 1.688 4.411 0 8-3.589 8-8s-3.589-8-8-8zm0 4c1.105 0 2 .895 2 2s-.895 2-2 2-2-.895-2-2 .895-2 2-2zm3.162 8.943c-.507.184-1.093-.084-1.276-.61-.282-.797-1.04-1.333-1.886-1.333s-1.604.536-1.886 1.333c-.184.521-.757.795-1.276.61-.521-.184-.794-.755-.61-1.276.563-1.595 2.08-2.667 3.772-2.667s3.208 1.072 3.772 2.667c.184.521-.089 1.092-.61 1.276z"/></svg>