<svg id="Layer_1" viewBox="0 0 24 24" xmlns="http://www.w3.org/2000/svg" data-name="Layer 1"><path d="m18 12c-3.31 0-6 2.69-6 6s2.69 6 6 6 6-2.69 6-6-2.69-6-6-6zm0 5c.55 0 1 .45 1 1s-.45 1-1 1-1-.45-1-1 .45-1 1-1zm-3.34-1.2c.18-.27.38-.51.61-.72.26-.24.68-.2.87.1l.48.73c.14.22.13.51-.06.7-.25.26-.43.58-.51.94-.06.26-.28.45-.55.45h-.88c-.36 0-.62-.32-.56-.68.09-.53.29-1.05.6-1.52zm3.34 6.2c-.53 0-1.04-.11-1.5-.3-.33-.14-.46-.53-.27-.83l.46-.74c.14-.22.42-.33.66-.24.2.07.42.11.65.11s.45-.04.65-.11c.25-.09.53.02.66.24l.46.74c.19.3.06.7-.27.83-.46.19-.97.3-1.5.3zm1.95-4.45c-.08-.36-.26-.68-.51-.94-.18-.19-.2-.48-.06-.7l.48-.73c.2-.3.61-.34.87-.1.23.21.43.45.61.72.31.48.51.99.6 1.52.06.35-.21.68-.56.68h-.88c-.27 0-.49-.19-.55-.45zm-12.87-.11c.48.51 1.92 2.17 1.92 3.56 0 .8-.31 1.55-.88 2.12t0 0c-.57.57-1.32.88-2.12.88s-1.56-.31-2.12-.88c-.57-.57-.88-1.32-.88-2.12 0-1.36 1.44-3.04 1.88-3.52.64-.62 1.61-.62 2.21-.04zm16.92-4.94c0 .07-.01.14-.01.21-1.47-1.66-3.6-2.71-5.99-2.71-4.41 0-7.99 3.57-8 7.98-.51-.82-1.05-1.47-1.52-1.97-1.39-1.36-3.59-1.34-5.01.04-.55.59-1.21 1.4-1.75 2.42-1.06-1-1.72-2.41-1.72-3.97s.66-3.03 1.8-4.07c.27-.25.4-.59.34-.9-.18-.95-.19-1.92-.03-2.89.55-3.29 3.12-5.9 6.39-6.5 3.59-.66 7.18 1.17 8.73 4.44.14.29.41.5.74.57 3.49.7 6.03 3.79 6.03 7.35z"/></svg>