<svg id="Layer_1" viewBox="0 0 24 24" xmlns="http://www.w3.org/2000/svg" data-name="Layer 1"><path d="m14 7.5c0 .443-.195.836-.5 1.111v1.389c0 .552-.448 1-1 1s-1-.448-1-1v-1.389c-.305-.275-.5-.668-.5-1.111 0-.828.672-1.5 1.5-1.5s1.5.672 1.5 1.5zm4 10.5v1.5c0 .827.673 1.5 1.5 1.5h.777c.346-.595.984-1 1.723-1 1.105 0 2 .895 2 2s-.895 2-2 2c-.738 0-1.376-.405-1.723-1h-.777c-1.93 0-3.5-1.57-3.5-3.5v-1.5h-3v2.277c.595.346 1 .984 1 1.723 0 1.105-.895 2-2 2s-2-.895-2-2c0-.738.405-1.376 1-1.723v-2.277h-6c-.342 0-.677-.035-1-.101v1.101c0 .553-.448 1-1 1s-1-.447-1-1v-2c0-.008.004-.014.004-.022-1.21-.913-2.004-2.349-2.004-3.978h2c.552 0 1-.447 1-1s-.448-1-1-1h-2v-4h2c.552 0 1-.447 1-1s-.448-1-1-1h-2c0-2.757 2.243-5 5-5h14c2.757 0 5 2.243 5 5v8c0 2.757-2.243 5-5 5zm-1-9.026v-2.538c0-.862-.552-1.627-1.371-1.898l-2.419-.802c-.461-.153-.96-.153-1.421 0l-2.419.802c-.818.271-1.371 1.036-1.371 1.898v2.538c.053 2.405 1.966 3.983 3.391 4.861.697.43 1.562.459 2.281.068 1.42-.772 3.274-2.243 3.328-4.93z"/></svg>