<?xml version="1.0" encoding="UTF-8"?>
<svg xmlns="http://www.w3.org/2000/svg" id="Layer_1" data-name="Layer 1" viewBox="0 0 24 24">
  <path d="m24,17.5v.5h-12v-.5c0-1.758,1.308-3.204,3-3.449,0-1.103.897-2.051,2-2.051h2c1.103,0,2,.948,2,2.051,1.692.245,3,1.691,3,3.449Zm-6,3.5c-.552,0-1-.448-1-1h-5v.5c0,1.93,1.57,3.5,3.5,3.5h5c1.93,0,3.5-1.57,3.5-3.5v-.5h-5c0,.552-.448,1-1,1Zm-8-.5v-3c0-.895.23-1.743.624-2.5h-.631c-.552,0-.999-.448-.999-1s.447-1,.999-1h.999c.348,0,.64.189.819.459.444-.404.946-.746,1.506-.99.481-1.143,1.469-2.008,2.672-2.328v-5.144c0-2.76-2.237-4.997-4.997-4.997h-5.996C2.237,0,0,2.237,0,4.997v14.003c0,2.761,2.239,5,5,5,0,0,6.161-.012,6.247-.018-.779-.949-1.247-2.162-1.247-3.482Zm-.006-15.5h.999c.552,0,.999.448.999,1s-.447,1-.999,1h-.999c-.552,0-.999-.448-.999-1s.447-1,.999-1Zm0,4h.999c.552,0,.999.448.999,1s-.447,1-.999,1h-.999c-.552,0-.999-.448-.999-1s.447-1,.999-1Zm-3.997,10h-.999c-.552,0-.999-.448-.999-1s.447-1,.999-1h.999c.552,0,.999.448.999,1s-.447,1-.999,1Zm0-4h-.999c-.552,0-.999-.448-.999-1s.447-1,.999-1h.999c.552,0,.999.448.999,1s-.447,1-.999,1Zm0-4h-.999c-.552,0-.999-.448-.999-1s.447-1,.999-1h.999c.552,0,.999.448.999,1s-.447,1-.999,1Zm0-4h-.999c-.552,0-.999-.448-.999-1s.447-1,.999-1h.999c.552,0,.999.448.999,1s-.447,1-.999,1Z"/>
</svg>
