<svg id="Layer_1" viewBox="0 0 24 24" xmlns="http://www.w3.org/2000/svg" data-name="Layer 1"><path d="m16.5 5c3.044 0 4.279-.811 4.5-1.079v-2.421c0-.883-1.85-1.5-4.5-1.5s-4.5.617-4.5 1.5v2.421c.221.268 1.456 1.079 4.5 1.079m-12.229 8.303-2.674 9.339c-.977-.913-1.597-2.203-1.597-3.642v-13c0-2.206 1.794-4 4-4h2c.464 0 .928.109 1.342.316l2.658 1.33v5.356c-2.628.011-4.981 1.772-5.729 4.301zm19.613.974-1.524 6.116c-.651 2.175-2.576 3.607-4.802 3.607h-12.558c-.573 0-1.115-.117-1.628-.295l2.818-9.843c.499-1.685 2.076-2.862 3.834-2.862h11.411c1.655-.08 2.973 1.71 2.448 3.276zm-11.883-5.276v-2.777c1.079.466 2.57.777 4.5.777s3.421-.311 4.5-.777v2.777h-9.001z"/></svg>