<svg id="Layer_1" viewBox="0 0 24 24" xmlns="http://www.w3.org/2000/svg" data-name="Layer 1"><path d="m23.999 5.614c0-1.354-.909-2.54-2.216-2.893l-9.782-2.644c-1.293-.334-2.609.454-2.927 1.752l-.027.114c-.171.724.255 1.449.961 1.663v1.394c0 .552.447 1 .999 1h6.994v1.999h-4.996l1.998 1.999h5.999c1.656 0 2.998-1.344 2.997-3.001v-1.382zm-3.002 2.384c-.552 0-.999-.448-.999-1s.447-1 .999-1 .999.448.999 1-.447 1-.999 1zm-13.441 2.862-2.526-2.528c.415-.211.87-.334 1.349-.334h2.646c.557 0 1.086.16 1.549.442l-2.419 2.421c-.215.214-.38.218-.598 0zm8.172 2.603c.755.755 1.171 1.76 1.171 2.828s-.416 2.072-1.171 2.827l-3.708 3.71c-.755.756-1.758 1.172-2.826 1.172s-2.071-.416-2.827-1.172l-5.198-5.204c-1.558-1.559-1.558-4.096 0-5.655l2.336-2.337 2.64 2.641c.457.458 1.064.71 1.711.71s1.256-.252 1.712-.71l2.486-2.488 3.675 3.677z"/></svg>