<svg id="Layer_1" viewBox="0 0 24 24" xmlns="http://www.w3.org/2000/svg" data-name="Layer 1"><path d="m18 14c-.156 0-.312-.036-.455-.109-3.62-1.847-5.486-4.187-5.547-6.956v-2.597c.001-1.39.889-2.619 2.209-3.058l3.479-1.152c.204-.068.425-.068.629 0l3.477 1.152c1.321.438 2.208 1.668 2.208 3.059v2.575c-.064 3.149-1.954 5.502-5.619 7.011-.122.05-.251.075-.381.075zm6 3.977v2c0 2.209-3.358 4-7.5 4-3.57 0-6.552-1.332-7.309-3.114-.546.068-1.107.114-1.691.114-4.142 0-7.5-1.791-7.5-4v-2c0 2.209 3.358 4 7.5 4 1.109 0 1.679-.128 1.679-.128.746 1.79 3.741 3.128 7.321 3.128 4.142 0 7.5-1.791 7.5-4zm-1.211-4.175c-.706.648-1.783 1.284-2.91 1.826-1.258.606-2.735.553-3.943-.149-1.477-.858-2.874-1.882-3.642-2.814-1.419.513-2.48 1.281-2.977 2.178-.585.079-1.187.134-1.818.134-4.142 0-7.5-1.791-7.5-4v2c0 2.209 3.358 4 7.5 4 .585 0 1.144-.048 1.69-.117.755 1.784 3.738 3.117 7.31 3.117 4.142 0 7.5-1.791 7.5-4 0-.803-.448-1.549-1.211-2.175zm-15.289-.825c1.65 0 3.17-.288 4.409-.769-1.442-1.799-1.876-3.601-1.908-5.041v-1.957c-.783-.148-1.622-.233-2.5-.233-4.143 0-7.501 1.791-7.501 4s3.358 4 7.5 4z"/></svg>