<svg id="Layer_1" viewBox="0 0 24 24" xmlns="http://www.w3.org/2000/svg" data-name="Layer 1"><path d="m15.461 1.225c-1.294-1.05-2.988-1.451-4.648-1.102-2.199.463-3.906 2.278-4.249 4.518-.334 2.187.661 4.35 2.534 5.511.247.153.4.46.4.846 0 1.103.897 2 2 2h1c1.103 0 2-.897 2-2.046 0-.339.158-.649.412-.807 1.62-1.011 2.588-2.748 2.588-4.647 0-1.666-.742-3.223-2.037-4.273zm-1.528 3.727c-.201.407-.535.727-.935.939v3.107c0 .552-.447 1-1 1s-1-.448-1-1v-3.107c-.4-.212-.734-.532-.935-.939-.218-.44.143-.954.634-.954h2.602c.491 0 .852.514.634.954zm10.066 2.048v10.792c0 2.417-1.727 4.486-4.105 4.919l-6.285 1.143c-1.068.194-2.151.194-3.219 0l-6.285-1.143c-2.379-.433-4.105-2.502-4.105-4.919v-10.792c0-1.487.654-2.886 1.796-3.838 1.004-.838 2.279-1.24 3.567-1.147-.376.718-.649 1.496-.776 2.324-.423 2.772.723 5.52 2.943 7.164.228 1.804 1.666 3.221 3.47 3.449v6.976c.664.097 1.336.097 2 0v-6.977c1.787-.229 3.215-1.641 3.461-3.443 1.913-1.41 3.038-3.615 3.038-6.01 0-1.234-.308-2.419-.864-3.478 1.318-.093 2.576.312 3.569 1.142 1.142.953 1.796 2.352 1.796 3.838z"/></svg>