<svg id="Layer_1" viewBox="0 0 24 24" xmlns="http://www.w3.org/2000/svg" data-name="Layer 1"><path d="m3 17c-.344 0-.677.043-1 .11v-6.11c0-2.761 2.239-5 5-5v-1.419c0-.516.624-.775.99-.41l.375.375c.388.388.607.908.628 1.454h5.233c.667.743.945 1.793.661 2.844-.231.857-.859 1.593-1.683 1.923-.39.156-.8.234-1.204.234-.552 0-1 .447-1 1s.448 1 1 1c.389 0 .781-.045 1.165-.133 1.831-.418 3.284-1.871 3.703-3.702.252-1.106.123-2.203-.295-3.165h.427c2.761 0 5 2.239 5 5v6.11c-.323-.067-.656-.11-1-.11h-5.151c-.983 0-1.92.359-2.646 1h-2.404c-.726-.641-1.663-1-2.646-1h-5.153zm18.5 2h-5.652c-.588 0-1.147.259-1.527.708l-.247.292h-4.149l-.247-.292c-.38-.449-.939-.708-1.527-.708h-5.651c-1.381 0-2.5 1.119-2.5 2.5s1.119 2.5 2.5 2.5h19c1.381 0 2.5-1.119 2.5-2.5s-1.119-2.5-2.5-2.5zm-7.428-15.552c-.662-.301-1.072-.906-1.072-1.579v-.869c0-.553-.448-1-1-1s-1 .447-1 1v.869c0 1.444.88 2.778 2.243 3.399.388.177.714.432.983.731h2.348c-.477-1.098-1.335-2.02-2.5-2.552z"/></svg>