<svg id="Layer_1" viewBox="0 0 24 24" xmlns="http://www.w3.org/2000/svg" data-name="Layer 1"><path d="m10.881 8.914-.643.643c-.195.195-.451.293-.707.293s-.512-.098-.707-.293c-.391-.391-.391-1.023 0-1.414l.643-.643-.643-.643c-.391-.391-.391-1.023 0-1.414.39-.391 1.023-.391 1.414 0l.643.643.643-.643c.391-.391 1.023-.391 1.414 0s.39 1.023 0 1.414l-.643.643.643.643c.134.11.163.286.287.388.119-.049.231-.109.354-.15l3.479-1.152c.605-.204 1.282-.203 1.896.003l3.469 1.149c.578.192 1.098.483 1.559.841.004-.075.019-.146.019-.222v-3c0-2.761-2.239-5-5-5s-14 0-14 0c-2.762.001-5.001 2.24-5.001 5.001v3c0 2.761 2.239 4.999 5 4.999h5.001v-.662c0-1.44.594-2.767 1.576-3.728zm-4.174-.77c.391.391.391 1.023 0 1.414-.39.391-1.024.391-1.414 0l-.643-.643-.643.643c-.39.391-1.024.391-1.414 0-.391-.391-.391-1.023 0-1.414l.643-.643-.643-.643c-.391-.391-.391-1.023 0-1.414.39-.391 1.023-.391 1.414 0l.643.643.643-.643c.391-.391 1.023-.391 1.414 0s.391 1.023 0 1.414l-.643.643zm17.293 5.195v2.574c-.063 3.151-1.953 5.504-5.618 7.012-.27.11-.575.1-.835-.034-3.62-1.847-5.486-4.187-5.547-6.956v-2.596c0-1.391.889-2.62 2.209-3.059l3.478-1.152c.203-.068.426-.068.629 0l3.478 1.152c1.321.438 2.207 1.667 2.207 3.059z"/></svg>