<?xml version="1.0" encoding="UTF-8"?>
<svg xmlns="http://www.w3.org/2000/svg" id="Layer_1" data-name="Layer 1" viewBox="0 0 24 24">
  <path d="m19,22c0,1.105-.895,2-2,2s-2-.895-2-2,.895-2,2-2,2,.895,2,2Zm-12-2c-1.105,0-2,.895-2,2s.895,2,2,2,2-.895,2-2-.895-2-2-2ZM23.941,6.588l-.879,4.393c-.466,2.329-2.527,4.019-4.902,4.019H6.736c.416,1.174,1.528,2,2.82,2h9.443c.553,0,1,.448,1,1s-.447,1-1,1h-9.443c-2.534,0-4.669-1.898-4.966-4.416L3.215,2.883c-.06-.503-.486-.883-.993-.883h-1.222c-.553,0-1-.448-1-1S.447,0,1,0h1.222c1.52,0,2.801,1.139,2.979,2.648l.041.352h15.757c.902,0,1.748.4,2.32,1.098s.799,1.605.622,2.49Zm-4.941,2.412c0-.801-.312-1.555-.855-2.097l-1.48-1.586c-.376-.404-1.01-.425-1.414-.048-.403.377-.425,1.01-.048,1.414l1.23,1.317h-6.433c-.552,0-1,.448-1,1s.448,1,1,1h6.432l-1.23,1.317c-.377.404-.355,1.037.048,1.414.193.18.438.269.683.269.267,0,.534-.106.731-.317l1.457-1.561c.567-.567.879-1.32.879-2.122Z"/>
</svg>
