<?xml version="1.0" encoding="UTF-8"?>
<svg xmlns="http://www.w3.org/2000/svg" id="Layer_1" data-name="Layer 1" viewBox="0 0 24 24">
  <path d="M1.5,0h0c.828,0,1.5,.672,1.5,1.5h0c0,.828-.672,1.5-1.5,1.5h0c-.828,0-1.5-.672-1.5-1.5H0C0,.672,.672,0,1.5,0Zm3.5,3.5h0c0,.828,.672,1.5,1.5,1.5h0c.828,0,1.5-.672,1.5-1.5h0c0-.828-.672-1.5-1.5-1.5h0c-.828,0-1.5,.672-1.5,1.5ZM1,6.5h0c0,.828,.672,1.5,1.5,1.5h0c.828,0,1.5-.672,1.5-1.5h0c0-.828-.672-1.5-1.5-1.5h0c-.828,0-1.5,.672-1.5,1.5Zm18.8-2.08C17.363,1.165,13.497-.447,9.453,.108c-.467,.064-.921,.168-1.367,.29,1.131,.581,1.914,1.746,1.914,3.102,0,0-.017,.5,0,.5,.873,0,1.679,.376,2.239,1.012,1.152-.093,2.224,.386,2.941,1.239,1.102,.468,1.82,1.533,1.82,2.75,0,1.654-1.346,3-3,3h-2.057c-.532,.525-1.203,.868-1.943,.969v6.031c0,.552-.448,1-1,1s-1-.448-1-1v-5.171c-.315,.112-.652,.171-1,.171-1.654,0-3-1.346-3-3,0-.35,.064-.686,.18-1.001,0,0-.933,0-1.68,0-.9,0-1.713-.351-2.334-.911-.052,.295-.093,.593-.121,.895-.25,2.768,.537,5.5,2.215,7.692,.477,.623,.739,1.458,.739,2.354v.971c0,1.654,1.346,3,3,3h7c1.654,0,3-1.346,3-3h.494c2.499,0,4.629-1.868,4.957-4.344l.219-1.656h.33c1.299,0,2-1.03,2-2,0-1.42-2.932-7.015-4.2-8.582ZM7,12.001c.377,0,.718-.215,.89-.561,.217-.437,.716-.652,1.183-.514,.168,.051,.304,.074,.427,.074,.471,0,.906-.219,1.192-.601,.189-.251,.485-.399,.8-.399h2.508c.551,0,1-.449,1-1,0-.441-.289-.823-.72-.951-.221-.065-.412-.204-.542-.394-.282-.411-.745-.656-1.239-.656-.123,0-.259,.023-.427,.074-.468,.139-.966-.077-1.183-.514-.171-.346-.512-.561-.89-.561-.359,0-.683,.192-.864,.515-.161,.286-.451,.474-.777,.505-.775,.073-1.359,.71-1.359,1.48,0,.123,.023,.259,.074,.427,.14,.467-.077,.966-.514,1.183-.346,.171-.561,.512-.561,.89,0,.551,.449,1,1,1Z"/>
</svg>
