<svg id="Layer_1" viewBox="0 0 24 24" xmlns="http://www.w3.org/2000/svg" data-name="Layer 1"><path d="m19.947 17.139c-.259-1.521-.83-2.554-1.289-3.384-.382-.691-.658-1.19-.658-1.755 0-1.046.331-2.34.597-3.38.226-.883.403-1.58.403-2.12 0-.194-.06-.388-.165-.551-.009-.013-.835-1.297-.835-2.949v-2c0-.513-.388-.942-.897-.995-.515-.058-.978.289-1.082.791-.067.326-.178.639-.328.931-.559 1.093-2.13 2.272-3.692 2.272s-3.134-1.179-3.693-2.273c-.149-.291-.26-.604-.327-.93-.106-.501-.568-.848-1.084-.79-.51.052-.897.482-.897.995v2c0 1.652-.826 2.936-.832 2.945-.109.164-.168.357-.168.555 0 .54.178 1.237.403 2.12.186.727.398 1.576.512 2.38h9.085c.553 0 1 .448 1 1s-.447 1-1 1h-9.266c-.109.233-.238.477-.392.755-.459.83-1.03 1.863-1.289 3.384-.222 1.309.275 2.687 1.299 3.596l2.535 2.253c.733.652 1.677 1.011 2.658 1.011h2.91c.981 0 1.925-.359 2.657-1.01l2.536-2.254c1.023-.909 1.521-2.287 1.299-3.596z"/></svg>