<?xml version="1.0" encoding="UTF-8"?>
<svg xmlns="http://www.w3.org/2000/svg" id="Layer_1" data-name="Layer 1" viewBox="0 0 24 24">
  <path d="m9.767,4.22c-.324-1.06.276-2.181,1.338-2.5L16.554.085c1.059-.318,2.175.284,2.491,1.344l.55,1.842c.315,1.055-.282,2.167-1.336,2.486l-5.433,1.646c-1.055.32-2.171-.275-2.493-1.33l-.566-1.854Zm8.987,3.176l-5.438,1.648c-1.06.321-1.657,1.442-1.332,2.501l.549,1.788c.322,1.049,1.428,1.643,2.48,1.331l5.464-1.619c1.073-.318,1.676-1.454,1.339-2.521l-.575-1.817c-.331-1.044-1.439-1.628-2.487-1.31Zm5.198,7.423c-.17-.525-.733-.815-1.258-.646l-11.029,3.544L7.397,3.233c-.347-1.183-1.14-2.149-2.233-2.72C4.073-.058,2.827-.157,1.656.232l-.958.319C.174.726-.109,1.292.066,1.816c.174.523.738.809,1.265.632l.958-.319c.649-.217,1.341-.161,1.948.156.607.317,1.048.854,1.241,1.512l4.212,14.29c-.222-.053-.452-.088-.69-.088-1.657,0-3,1.343-3,3s1.343,3,3,3,3-1.343,3-3c0-.434-.097-.844-.264-1.217l11.569-3.707c.526-.169.815-.732.646-1.258Z"/>
</svg>
