<?xml version="1.0" encoding="UTF-8"?>
<svg xmlns="http://www.w3.org/2000/svg" id="Layer_1" data-name="Layer 1" viewBox="0 0 24 24">
  <path d="m8.4,10.519v3c0,.496-.404.9-.9.9s-.9-.404-.9-.9v-3c0-.496.404-.9.9-.9s.9.404.9.9Zm14.972,5.291c-1.594,4.757-6.078,8.189-11.372,8.189C5.373,24,0,18.627,0,12S5.373,0,12,0s12,5.373,12,12c0,.723-.075,1.428-.198,2.116-.219-.362-.599-.616-1.052-.616-.69,0-1.25.56-1.25,1.25s.56,1.25,1.25,1.25c.231,0,.436-.08.622-.189ZM4,8.863c0-.476-.385-.861-.861-.861-.233,0-.456.094-.618.262l-1.63,1.682c-.308.317-.299.824.018,1.131.317.307.824.299,1.131-.018l.36-.372v4.532c0,.442.358.8.8.8s.8-.358.8-.8v-6.357Zm6,1.657c0-1.381-1.119-2.5-2.5-2.5s-2.5,1.119-2.5,2.5v3c0,1.381,1.119,2.5,2.5,2.5s2.5-1.119,2.5-2.5v-3Zm6,0c0-1.381-1.119-2.5-2.5-2.5s-2.5,1.119-2.5,2.5v3c0,1.381,1.119,2.5,2.5,2.5s2.5-1.119,2.5-2.5v-3Zm2.25-.019c.69,0,1.25-.56,1.25-1.25s-.56-1.25-1.25-1.25-1.25.56-1.25,1.25.56,1.25,1.25,1.25Zm4.942-1.263c.347-.532-.034-1.237-.67-1.237-.27,0-.522.136-.67.363l-4.178,6.4c-.347.532.034,1.237.67,1.237.27,0,.522-.136.67-.363l4.178-6.4Zm-9.692.382c-.496,0-.9.404-.9.9v3c0,.496.404.9.9.9s.9-.404.9-.9v-3c0-.496-.404-.9-.9-.9Z"/>
</svg>
