<svg id="Layer_1" viewBox="0 0 24 24" xmlns="http://www.w3.org/2000/svg" data-name="Layer 1"><path d="m18 9c0 3.314-2.686 6-6 6-2.611 0-4.827-1.671-5.651-4h1.651c1.775 0 3.365-.775 4.463-2zm0-2h-5v-2h1c.552 0 1-.448 1-1 0-.552-.448-1-1-1h-1v-1c0-.552-.448-1-1-1-.552 0-1 .448-1 1v1h-1c-.552 0-1 .448-1 1 0 .552.448 1 1 1h1v2h-5v-4c0-1.657 1.343-3 3-3h6c1.657 0 3 1.343 3 3zm.499 9.692c-1.046-1.001-2.776-.881-3.729.232l-2.77 3.471-2.795-3.515c-.911-1.069-2.685-1.183-3.694-.198-1.525 1.424-2.512 3.904-2.512 6.318 0 .552.447 1 1 1h16.001c.553 0 1-.448 1-1 0-2.408-.982-4.884-2.501-6.308z"/></svg>