<svg id="Layer_1" viewBox="0 0 24 24" xmlns="http://www.w3.org/2000/svg" data-name="Layer 1"><path d="m16.939 15.979c3.221-1.788 7.061-4.796 7.061-8.979 0-.552-.448-1-1-1s-1 .448-1 1c0 1.64-.892 3.094-2.065 4.302-.676-.435-1.889-1.356-2.95-2.856.859-.863 3.015-3.426 3.015-7.446 0-.552-.448-1-1-1s-1 .448-1 1c0 2.795-1.269 4.706-2.049 5.62-.562-1.267-.951-2.792-.951-4.62 0-.552-.448-1-1-1s-1 .448-1 1c0 5.99 3.499 9.309 5.387 10.664-.847.644-1.708 1.173-2.417 1.566-.193.107-.366.235-.533.368-.171-.091-2.436-1.357-2.436-4.599 0-.552-.448-1-1-1s-1 .448-1 1c0 1.099.2 2.032.503 2.822.209 1.021.063 1.816-.25 2.429-.453.89-1.708 1.007-2.345.239-.362-.436-.825-.794-1.382-1.04-.737-.325-1.514-.73-2.246-1.22 1.654-1.486 5.72-5.793 5.72-12.23-.001-.551-.449-.999-1.001-.999s-1 .448-1 1c0 2.082-.51 3.919-1.219 5.478-.754-.798-1.781-2.285-1.781-4.478 0-.552-.448-1-1-1s-1 .448-1 1c0 3.308 1.797 5.399 2.797 6.308-1.179 1.873-2.498 3.125-3.084 3.632-1.008-1.041-1.712-2.338-1.712-3.94 0-.552-.448-1-1-1s-1.001.448-1.001 1c0 3.479 2.323 6.343 6.719 8.28 1.169.515 1.324 1.879.875 2.96-.169.405-.315.804-.435 1.188-.233.748-.195 1.573.206 2.246.499.837 1.363 1.325 2.315 1.325h4.642c.854 0 1.638-.393 2.15-1.079.3-.402.46-.866.503-1.345.799-.249 1.882-.612 3.581-1.745.459-.306.583-.927.277-1.387-.307-.459-.927-.585-1.387-.277-1.344.896-2.208 1.225-2.892 1.445-.101-.262-.208-.527-.329-.796-.437-.97-.332-2.257.715-2.837z"/></svg>