<svg id="Layer_1" viewBox="0 0 24 24" xmlns="http://www.w3.org/2000/svg" data-name="Layer 1"><path d="m2 16v7c0 .553-.447 1-1 1s-1-.447-1-1v-7c0-.553.447-1 1-1s1 .447 1 1zm5-5v12c0 .553-.447 1-1 1s-1-.447-1-1v-12c0-.553.447-1 1-1s1 .447 1 1zm4 6c-.553 0-1-.447-1-1v-6.5c0-.553.447-1 1-1s1 .447 1 1v6.5c0 .553-.447 1-1 1zm10-8c.553 0 1 .447 1 1v3.5c0 .553-.447 1-1 1s-1-.447-1-1v-3.5c0-.553.447-1 1-1zm-10.477-4.062c-.564-.564-1.482-.564-2.047 0l-6.769 6.769c-.391.391-1.023.391-1.414 0s-.391-1.023 0-1.414l6.769-6.77c1.344-1.344 3.531-1.344 4.875 0l2.539 2.539c.547.547 1.5.547 2.047 0l4.062-4.062h-2.586c-.553 0-1-.447-1-1s.447-1 1-1h4c1.103 0 2 .897 2 2v4c0 .553-.447 1-1 1s-1-.447-1-1v-2.586l-4.062 4.062c-1.344 1.344-3.531 1.344-4.875 0l-2.539-2.539zm5.477 5.062c.553 0 1 .447 1 1v2c0 .553-.447 1-1 1s-1-.447-1-1v-2c0-.553.447-1 1-1zm7.524 8.671c-.797-.997-2.577-2.671-5.547-2.671-2.932 0-4.703 1.635-5.498 2.609-.668.819-.635 1.981.079 2.761.896.983 2.792 2.63 5.419 2.63 2.968 0 4.748-1.674 5.545-2.671.636-.794.637-1.863.002-2.658zm-5.502 2.829c-.86 0-1.558-.672-1.558-1.5s.698-1.5 1.558-1.5 1.558.672 1.558 1.5-.698 1.5-1.558 1.5z"/></svg>