<svg id="Layer_1" viewBox="0 0 24 24" xmlns="http://www.w3.org/2000/svg" data-name="Layer 1"><path d="m23.493 20.904c.506.532.645 1.312.355 1.986-.289.674-.95 1.109-1.683 1.109h-5.332c-.735 0-1.397-.438-1.685-1.114-.288-.678-.145-1.458.365-1.989l1.943-2.021.014-.014c1.126-1.126 2.957-1.124 4.081 0l1.942 2.042zm-13.467-16.904c.553 0 1-.447 1-1v-2c-.001-.553-.448-1-1-1s-1 .447-1 1v2c0 .553.447 1 1 1zm4 0c.553 0 1-.447 1-1v-2c-.001-.553-.448-1-1.001-1s-1 .447-1 1v2c0 .553.447 1 1 1zm-7.999 0c.553 0 1-.447 1-1v-2c-.001-.553-.448-1-1.001-1s-1 .447-1 1v2c0 .553.447 1 1 1zm5.974 17h-11c-.553 0-1 .447-1 1s.447 1 1 1h10.999c.553 0 1-.447 1-1s-.447-1-1-1zm-6.876-2.016c.196.03.583.016.733-.006 1.264-.116 3.79-.846 4.138-3.899.076-.667-.515-1.2-1.169-1.048-1.933.448-2.88 1.993-3.314 3.187-.483-1.558-1.658-3.714-4.431-4.187-.579-.099-1.118.387-1.08.974.269 4.102 3.618 4.872 5.121 4.979zm-4.845-7.88c-.111-.58-.206-1.176-.266-1.806-.081-.845.199-1.688.769-2.315.565-.622 1.369-.979 2.207-.979l7.01-.002 7.011.002c.837 0 1.64.356 2.206.979.503.553.764 1.275.767 2.018h.016c2.468 0 4 1.204 4 3.143 0 2.091-1.832 3.857-4 3.857h-2.208c-.045.067-.08.146-.127.211-1.252 1.746-3.342 2.789-5.592 2.789h-1.787c.865-.887 1.513-2.092 1.696-3.694.109-.96-.253-1.915-.97-2.554-.715-.636-1.701-.888-2.639-.669-1.01.234-1.91.694-2.673 1.352-1.097-1.263-2.551-2.08-4.279-2.374-.388-.068-.772-.042-1.142.043zm18.568 2.896h1.153c1.065 0 2-.868 2-1.857 0-.758-.673-1.143-2-1.143h-.265c-.203 1.094-.507 2.087-.888 3z"/></svg>