<?xml version="1.0" encoding="UTF-8"?>
<svg xmlns="http://www.w3.org/2000/svg" id="Layer_1" data-name="Layer 1" viewBox="0 0 24 24">
  <path d="m16,11.394v2.116c0,.611-.315,1.178-.832,1.502l-2.168,1.355v-3.258l3-1.715Zm-7.343-1.804l3.343,1.91,3.343-1.91-2.185-1.366c-.709-.443-1.608-.443-2.316,0l-2.185,1.366Zm-.657,1.804v2.116c0,.611.315,1.178.832,1.502l2.168,1.355v-3.258s-3-1.715-3-1.715ZM11.986,0c1.657,0,3,1.343,3,3,0,.008-.002.016-.002.024l2.978,1.787c.536-.499,1.249-.811,2.039-.811,1.657,0,3,1.343,3,3,0,1.304-.837,2.403-2,2.816v4.367c1.163.413,2,1.512,2,2.816,0,1.657-1.343,3-3,3-.79,0-1.503-.312-2.039-.811l-2.978,1.787c0,.008.002.016.002.024,0,1.657-1.343,3-3,3s-3-1.343-3-3c0-.014.004-.026.004-.04l-2.951-1.771c-.536.499-1.249.811-2.039.811-1.657,0-3-1.343-3-3,0-1.304.837-2.403,2-2.816v-4.367c-1.163-.413-2-1.512-2-2.816,0-1.657,1.343-3,3-3,.79,0,1.503.312,2.039.811l2.951-1.771c0-.014-.004-.026-.004-.04,0-1.657,1.343-3,3-3Zm2.282,4.927c-.55.651-1.363,1.073-2.282,1.073-.914,0-1.722-.417-2.273-1.062l-2.755,1.653c.019.135.041.269.041.409,0,1.304-.837,2.403-2,2.816v4.367c1.163.413,2,1.512,2,2.816,0,.14-.023.274-.041.409l2.755,1.653c.55-.645,1.359-1.062,2.273-1.062.919,0,1.731.422,2.282,1.073l2.773-1.664c-.019-.135-.041-.269-.041-.409,0-1.304.837-2.403,2-2.816v-4.367c-1.163-.413-2-1.512-2-2.816,0-.14.023-.274.041-.409l-2.773-1.664Z"/>
</svg>
