<svg id="Layer_1" viewBox="0 0 24 24" xmlns="http://www.w3.org/2000/svg" data-name="Layer 1"><path d="m24 15.007v3.033c0 3.652-3.398 5.304-4.44 5.723-.172.073-.371.147-.559.147-.218 0-.436-.093-.626-.195-1.026-.513-4.375-2.438-4.375-5.675v-3.033c0-1.08.688-2.033 1.713-2.373l2.973-.985c.204-.067.425-.067.629 0l2.972.985c1.025.34 1.713 1.293 1.713 2.373zm0-10.007v6.278c-.332-.222-.691-.412-1.084-.542l-1.935-.642c.101-.574-.41-1.1-.981-1.094h-6c-.552 0-1 .448-1 1s.448 1 1 1h.457c-1.492.759-2.457 2.294-2.457 4.007v3.033c0 .705.117 1.354.305 1.959h-7.305c-2.757 0-5-2.243-5-5v-9.999c0-2.757 2.243-5 5-5h14c2.757 0 5 2.243 5 5zm-20.5 2.5c0 1.381 1.119 2.5 2.5 2.5s2.5-1.119 2.5-2.5-1.119-2.5-2.5-2.5-2.5 1.119-2.5 2.5zm6.437 6.149c-.594-1.584-2.176-2.649-3.937-2.649s-3.343 1.064-3.937 2.649c-.194.518.068 1.094.585 1.288.519.194 1.094-.068 1.288-.585.303-.808 1.132-1.351 2.063-1.351s1.761.543 2.063 1.351c.193.522.784.778 1.288.585.517-.194.779-.77.585-1.288zm11.063-7.649c0-.552-.448-1-1-1h-6c-.552 0-1 .448-1 1s.448 1 1 1h6c.552 0 1-.448 1-1z"/></svg>