<svg id="Layer_1" viewBox="0 0 24 24" xmlns="http://www.w3.org/2000/svg" data-name="Layer 1"><path d="m11 18.227-2.86-.698c-.671-.191-1.14-.812-1.14-1.511v-3.469c-.029-.968.994-1.735 1.913-1.442l1.569.448c.305.087.518.37.518.687zm9.077-4.553c.897-.897 2.353-.897 3.25 0s.897 2.353 0 3.25l-5.807 5.807c-.813.813-1.915 1.27-3.065 1.27h-1.455v-1.455c0-1.15.457-2.252 1.27-3.065zm-3.674-2.323c-.38-.287-.86-.375-1.315-.245l-1.57.448c-.305.087-.518.37-.518.687v5.681l4-4v-1.373c0-.475-.217-.912-.597-1.198zm-5.403 11.194c0-.752.137-1.48.386-2.166l-3.758-.917c-1.562-.446-2.628-1.858-2.628-3.444v-3.469c-.064-2.257 2.31-4.046 4.462-3.365l1.569.448c.364.104.688.288.969.519.281-.232.604-.415.968-.519l1.57-.448c1.958-.621 4.169.817 4.402 2.849 1.468-1.24 3.568-1.357 5.138-.314v-1.234c0-1.547-.699-2.982-1.917-3.936l-6.999-5.486c-.89-.696-1.995-1.083-3.113-1.063-1.146.008-2.242.367-3.132 1.064l-7 5.484c-1.218.954-1.917 2.389-1.917 3.936v8.516c0 2.757 2.243 5 5 5h6z"/></svg>