<svg id="Layer_1" viewBox="0 0 24 24" xmlns="http://www.w3.org/2000/svg" data-name="Layer 1"><path d="m20.796 7.769-.868-1.302v-1.771c0-.315-.143-.614-.389-.812l-2.907-2.389c-.271-.219-.632-.288-.966-.184l-2.083.65c-.027-.554-.566-.96-1.128-.96h-.714l-1.075-.811c-.175-.123-.46-.189-.674-.189-.522 0-.964.385-1.034.902l-.201 1.469-.802.629h-.288c-1.293 0-2.411.965-2.599 2.245l-.377 2.972-.675.158c-.434.101-.756.468-.801.912l-.308 3.058c-.021.207.021.416.119.599l.301.558c-.446.759-.463 1.688-.034 2.467.214.388.471.85.687 1.227.341.595.92 1.027 1.59 1.186l.449.107-.419 1.206c-.169.486-.181 1.003-.037 1.494.303 1.041 1.273 1.812 2.359 1.812h1.331l2.195.913c.19.091.424.091.631.087.273 0 .534-.107.729-.297.087-.085.186-.21.297-.375l.626.1c.143.023.29.016.431-.021l2.014-.406.766-.027c.572 0 1.008-.504 1.014-1.076v-1.397l.327-.412c.885-1.116.926-2.681-.092-3.676l-.775-.758-1.331-1.154c1.049-.139 1.783-.622 2.424-1.477l.376-.501h.802c.342 0 .662-.167.857-.448.195-.28.24-.638.122-.959l-.374-1.007.591-1.338c.144-.327.112-.704-.086-1.001z"/></svg>