<svg id="Layer_1" viewBox="0 0 24 24" xmlns="http://www.w3.org/2000/svg" data-name="Layer 1"><path d="m21 6c-.307 0-.583-.187-.697-.472l-.526-1.316-1.318-.556c-.283-.119-.464-.398-.459-.705.006-.307.198-.579.484-.687l1.299-.492.52-1.301c.114-.284.39-.471.697-.471s.583.187.697.472l.523 1.308 1.308.523c.285.114.472.39.472.697s-.187.583-.472.697l-1.308.523-.523 1.308c-.114.285-.39.472-.697.472zm-10.919 17.171-.495-.472c-.859-.859-.773-2.305.257-3.047.808-.582 1.943-.411 2.647.294l.51.525v-7.929c0-.9.771-1.66 1.711-1.527.759.108 1.289.819 1.289 1.585v4.9c0 .275.223.499.499.499h.012c.276 0 .499-.223.499-.499-.003-2.308-.006-5.451-.006-6.004 0-.827.671-1.497 1.498-1.497s1.502.675 1.498 1.505l.003 5.996c0 .275.223.499.499.499s.499-.223.499-.499v-3.959c0-.808.622-1.504 1.43-1.541.861-.039 1.57.648 1.57 1.5s0 .007 0 .007v7.492c0 1.657-1.343 3-3 3h-8.849c-.771 0-1.512-.297-2.07-.829zm3.919-19.171h-9c-2.761 0-5 2.239-5 5v9c0 2.761 2.239 5 5 5h2.416c-.306-.635-.46-1.328-.403-2.038.095-1.171.7-2.24 1.661-2.932.687-.495 1.499-.745 2.326-.721v-4.766c0-1.034.447-2.016 1.226-2.691.76-.66 1.769-.961 2.767-.816.287.041.562.118.822.226.642-.771 1.608-1.261 2.688-1.261.136 0 .268.024.402.039-.448-2.301-2.471-4.039-4.903-4.039zm-5.972 8.697-1.308.523-.523 1.308c-.114.285-.39.472-.697.472s-.583-.187-.697-.472l-.526-1.316-1.318-.556c-.283-.119-.464-.398-.459-.705.006-.307.198-.579.484-.687l1.299-.492.52-1.301c.114-.285.39-.472.697-.472s.583.187.697.472l.523 1.308 1.308.523c.285.114.472.39.472.697s-.187.583-.472.697z"/></svg>