<svg id="Layer_1" viewBox="0 0 24 24" xmlns="http://www.w3.org/2000/svg" data-name="Layer 1"><path d="m8 13v-1c0-1.103.897-2 2-2h4c1.103 0 2 .897 2 2v1c0 1.103-.897 2-2 2h-4c-1.103 0-2-.897-2-2zm16-8v14c0 2.757-2.243 5-5 5h-14c-2.757 0-5-2.243-5-5v-14c0-2.757 2.243-5 5-5h14c2.757 0 5 2.243 5 5zm-18 15.5c0-.828-.672-1.5-1.5-1.5s-1.5.672-1.5 1.5.672 1.5 1.5 1.5 1.5-.672 1.5-1.5zm4 0c0-.828-.672-1.5-1.5-1.5s-1.5.672-1.5 1.5.672 1.5 1.5 1.5 1.5-.672 1.5-1.5zm11 0c0-.828-.672-1.5-1.5-1.5s-1.5.672-1.5 1.5.672 1.5 1.5 1.5 1.5-.672 1.5-1.5zm1-15.5c0-1.654-1.346-3-3-3h-4v.671c0 .801-.312 1.555-.879 2.122l-1.121 1.121v1.086c0 .552-.448 1-1 1s-1-.448-1-1v-1.086l-1.121-1.121c-.567-.566-.879-1.32-.879-2.122v-.671h-4c-1.654 0-3 1.346-3 3v12h20z"/></svg>