<?xml version="1.0" encoding="UTF-8"?>
<svg xmlns="http://www.w3.org/2000/svg" id="Layer_1" data-name="Layer 1" viewBox="0 0 24 24">
  <path d="m9,12c-3.309,0-6-2.691-6-6S5.691,0,9,0s6,2.691,6,6-2.691,6-6,6Zm12,2h-5c-1.654,0-3,1.346-3,3v4c0,1.654,1.346,3,3,3h5c1.654,0,3-1.346,3-3v-4c0-1.654-1.346-3-3-3Zm-2,5h-1c-.552,0-1-.447-1-1s.448-1,1-1h1c.552,0,1,.447,1,1s-.448,1-1,1Zm-8-2c0-.107.017-.21.024-.315l-1.167,1.359c-.451.524-1.262.524-1.713,0l-2.689-3.13c-.417-.486-1.136-.594-1.675-.249-2.624,1.682-3.779,4.544-3.779,7.23v1.105c0,.552.448,1,1,1h11.026c-.635-.838-1.026-1.87-1.026-3v-4Z"/>
</svg>
