<svg id="Layer_1" viewBox="0 0 24 24" xmlns="http://www.w3.org/2000/svg" data-name="Layer 1"><path d="m23.24 11.238c-.491.491-1.144.762-1.838.762-.695 0-1.348-.271-1.839-.763l-6.325-6.331c-.792-.793-1.229-1.847-1.229-2.968v-.938c0-.552.448-1 1-1h.936c1.123 0 2.179.438 2.972 1.232l6.325 6.331c1.012 1.014 1.012 2.663-.001 3.676zm-7.266 1.908-2.005-1.133c-.307-.173-.633-.302-.969-.388v-1.626c0-2.206-1.794-4-4-4h-5c-1.103 0-2-.897-2-2s.897-2 2-2h5c.552 0 1-.448 1-1s-.448-1-1-1h-5c-2.206.001-4 1.795-4 4.001s1.794 4 4 4h5c1.103 0 2 .897 2 2v1.627c-.335.086-.662.215-.969.389l-1.996 1.13c-.303.172-.576.381-.819.618l4.792 2.739 4.789-2.737c-.244-.238-.518-.448-.822-.62zm-2.969 5.09-.003 5.746c.335-.083.661-.208.968-.379l1.979-1.099c1.27-.704 2.053-2.044 2.053-3.496v-2.38c0-.396-.059-.781-.17-1.15l-4.825 2.758zm-7-1.61v2.324c0 1.432.772 2.762 2.016 3.473l2.021 1.155c.304.174.622.304.955.391l.003-5.736-4.82-2.757c-.111.369-.175.755-.175 1.15z"/></svg>