<?xml version="1.0" encoding="UTF-8"?>
<svg xmlns="http://www.w3.org/2000/svg" id="Layer_1" data-name="Layer 1" viewBox="0 0 24 24">
  <path d="M23.103,12c.579,0,1.012,.534,.869,1.095-.39,1.534-1.609,4.448-4.115,6.472-1.132,.914-2.295,1.47-3.357,1.807,0,0,1-3.375,4.066-6.941-3.103,1.718-5.314,4.825-6.277,7.412-.18,.459-.327,.936-.456,1.408-.122,.445-.535,.747-.997,.747h0c-.684,0-1.192-.651-1.005-1.309,.141-.496,.305-1,.5-1.496,.166-1.36,.992-4.675,3.755-6.906,2.459-1.986,5.498-2.29,7.017-2.289ZM0,21.5v1c0,.828,.672,1.5,1.5,1.5s1.5-.672,1.5-1.5v-3.5h-.5c-1.381,0-2.5,1.119-2.5,2.5ZM23.945,2.5c-.43-1.446-1.77-2.5-3.355-2.5H11.24c.48,.716,.76,1.576,.76,2.5,0,1.381,1.119,2.5,2.5,2.5h7.498c1.17,0,2.099-1.003,1.993-2.168-.014-.156-.03-.275-.047-.332ZM9.907,22.146c.149-.525,.306-1.004,.476-1.455,.125-.809,.526-2.71,1.675-4.69h-3.057c-.552,0-1-.447-1-1s.448-1,1-1h4.506c.393-.44,.828-.867,1.323-1.267h0c.337-.272,.684-.512,1.032-.733h-6.862c-.552,0-1-.447-1-1s.448-1,1-1h7c.552,0,1,.447,1,1,0,.149-.037,.287-.096,.414,1.059-.53,2.115-.865,3.096-1.075v-3.339h-5.499c-2.488,0-4.497-2.017-4.501-4.505-.003-1.48-1.292-2.659-2.81-2.477-1.279,.154-2.19,1.335-2.19,2.624V22.5c0,.536-.122,1.045-.338,1.5h5.329c-.217-.589-.26-1.231-.084-1.854Z"/>
</svg>
