<svg id="Layer_1" viewBox="0 0 24 24" xmlns="http://www.w3.org/2000/svg" data-name="Layer 1"><path d="m15 0h-6c-1.657 0-3 1.343-3 3v8c0 1.657 1.343 3 3 3h6c1.657 0 3-1.343 3-3v-8c0-1.657-1.343-3-3-3zm-7 4c0-.828.672-1.5 1.5-1.5s1.5.672 1.5 1.5-.672 1.5-1.5 1.5-1.5-.672-1.5-1.5zm1.984 7c-.741 0-1.186-.822-.781-1.443l4.004-6.134c.172-.264.466-.423.781-.423.741 0 1.186.822.781 1.443l-4.004 6.134c-.172.264-.466.423-.781.423zm4.516 0c-.828 0-1.5-.672-1.5-1.5s.672-1.5 1.5-1.5 1.5.672 1.5 1.5-.672 1.5-1.5 1.5zm9.5-4v8c0 2.761-2.239 5-5 5h-6v2h4c.552 0 1 .448 1 1s-.448 1-1 1h-10c-.552 0-1-.448-1-1s.448-1 1-1h4v-2h-6c-2.761 0-5-2.239-5-5v-8c0-2.45 1.765-4.48 4.092-4.908-.055.296-.092.597-.092.908v8c0 2.757 2.243 5 5 5h6c2.757 0 5-2.243 5-5v-8c0-.311-.037-.613-.092-.908 2.326.428 4.092 2.458 4.092 4.908z"/></svg>