<svg id="Layer_1" viewBox="0 0 24 24" xmlns="http://www.w3.org/2000/svg" data-name="Layer 1"><path d="m18 15c-.995 0-1.962-.243-2.828-.708-1.983.929-4.357.929-6.344 0-.867.464-1.833.708-2.828.708-3.309 0-6-2.691-6-6s2.691-6 6-6h.007c1.415-1.889 3.612-3 5.993-3s4.577 1.11 5.993 3h.007c3.309 0 6 2.691 6 6s-2.691 6-6 6zm-8.643 1.61.37 7.39h4.548l.369-7.389c-1.719.493-3.566.493-5.287 0zm8.643.39c-.459 0-.917-.044-1.367-.122l-.356 7.122c2.489 0 4.581-1.869 4.862-4.342l.396-3.492c-1.068.529-2.265.834-3.535.834zm-12 0c-1.27 0-2.467-.305-3.535-.834l.395 3.489c.28 2.475 2.374 4.345 4.864 4.345l-.356-7.122c-.451.078-.909.122-1.368.122z"/></svg>