<svg id="Layer_1" viewBox="0 0 24 24" xmlns="http://www.w3.org/2000/svg" data-name="Layer 1"><path d="m23 9c-.552 0-1-.447-1-1v-7c0-.553.448-1 1-1s1 .447 1 1v7c0 .553-.448 1-1 1zm-3-1v-5c0-.553-.448-1-1-1s-1 .447-1 1v5c0 .553.448 1 1 1s1-.447 1-1zm-4 0v-3c0-.553-.448-1-1-1s-1 .447-1 1v3c0 .553.448 1 1 1s1-.447 1-1zm-.152 11c-.588 0-1.147.259-1.527.708l-.247.292h-4.149l-.247-.292c-.38-.449-.939-.708-1.527-.708h-5.651c-1.381 0-2.5 1.119-2.5 2.5 0 1.381 1.119 2.5 2.5 2.5h19c1.381 0 2.5-1.119 2.5-2.5 0-1.381-1.119-2.5-2.5-2.5zm5.152-8.78c-.532.48-1.229.78-2 .78s-1.468-.301-2-.78c-.532.48-1.229.78-2 .78-1.654 0-3-1.346-3-3v-2h-5c-2.757 0-5 2.243-5 5v6.11c.323-.067.656-.11 1-.11h5.151c.983 0 1.92.359 2.646 1h2.404c.726-.641 1.664-1 2.646-1h5.151c.344 0 .677.043 1 .11v-6.11c0-.065-.017-.126-.019-.19-.366-.133-.697-.334-.981-.59z"/></svg>