<svg id="Layer_1" viewBox="0 0 24 24" xmlns="http://www.w3.org/2000/svg" data-name="Layer 1"><path d="m14.813 7.886-2.5-.829c-.203-.068-.426-.068-.629 0l-2.5.829c-.41.136-.685.518-.685.949v3.187c0 2.281 2.629 3.889 3.545 4.379 1.031-.454 3.455-1.798 3.455-4.379v-3.187c0-.432-.275-.813-.686-.949zm-.133 3.347-1.212 1.124c-.445.439-1.039.661-1.636.661-.602 0-1.207-.225-1.668-.677l-.557-.532c-.399-.383-.413-1.016-.031-1.414s1.016-.413 1.414-.031l.565.541c.152.15.386.149.531.007l1.235-1.146c.405-.375 1.037-.353 1.413.054.375.405.352 1.037-.054 1.413zm5.103-8.011c-2.079-2.077-4.843-3.222-7.783-3.222s-5.704 1.145-7.783 3.222c-4.292 4.289-4.292 11.267.028 15.584l3.945 3.642c1.025 1.001 2.377 1.553 3.809 1.553s2.785-.552 3.789-1.533l3.994-3.688c4.292-4.289 4.292-11.268 0-15.557zm-2.284 8.799c0 4.029-3.763 5.857-4.917 6.322-.178.074-.583.156-.583.156s-.453-.102-.648-.206c-1.138-.568-4.853-2.701-4.853-6.272v-3.187c0-1.295.826-2.439 2.055-2.848l2.5-.829c.609-.202 1.279-.201 1.89 0l2.5.829c1.229.408 2.056 1.553 2.056 2.848z"/></svg>