<svg id="Layer_1" viewBox="0 0 24 24" xmlns="http://www.w3.org/2000/svg" data-name="Layer 1"><path d="m17.5 11c-3.584 0-6.5 2.916-6.5 6.5s2.916 6.5 6.5 6.5 6.5-2.916 6.5-6.5-2.916-6.5-6.5-6.5zm-4.5 6.5c0-.879.263-1.693.7-2.386l6.186 6.186c-.693.437-1.508.7-2.386.7-2.481 0-4.5-2.019-4.5-4.5zm8.3 2.386-6.186-6.186c.693-.437 1.508-.7 2.386-.7 2.481 0 4.5 2.019 4.5 4.5 0 .879-.263 1.693-.7 2.386zm-13.3-13.886h-8v-1.5c0-1.381 1.119-2.5 2.5-2.5h.5v-1c0-.552.448-1 1-1s1 .448 1 1v1h.5c1.381 0 2.5 1.119 2.5 2.5zm4.028 18h-7.028c-2.757 0-5-2.243-5-5v-10c0-.552.448-1 1-1h10c1.287.03 2.737.479 3.521 1.547-3.223 1.208-5.521 4.308-5.521 7.953 0 2.609 1.178 4.941 3.028 6.5z"/></svg>