<svg id="Layer_1" viewBox="0 0 24 24" xmlns="http://www.w3.org/2000/svg" data-name="Layer 1"><path d="m14 2.5c0-1.381 1.119-2.5 2.5-2.5s2.5 1.119 2.5 2.5-1.119 2.5-2.5 2.5-2.5-1.119-2.5-2.5zm10 4.5c0-.552-.448-1-1-1h-7.035v.003c-1.638.019-2.965 1.354-2.965 2.997v4.45c-1.044-1.759-2.822-3.032-4.924-3.358-.564 3.057 1.979 5.98 5.086 5.838.394 1.198 1.51 2.071 2.838 2.071h6v5c0 .552.448 1 1 1 .552 0 1-.448 1-1v-5c0-1.105-.895-2-2-2h-4v-8h5c.552 0 1-.448 1-1zm-18 3.918c0-.283.018-.566.051-.846-1.123.153-2.162.57-3.05 1.191.01 5.249 4.347 9.526 9.749 9.719.629-.906 1.047-1.966 1.19-3.112-.306.04-.613.068-.921.068-3.87 0-7.019-3.149-7.019-7.02zm-4.829 2.214c-.739 1.109-1.171 2.439-1.171 3.868 0 3.859 3.14 7 7 7 1.452 0 2.801-.445 3.92-1.204-5.005-.896-8.931-4.778-9.749-9.664z"/></svg>