<svg id="Layer_1" viewBox="0 0 24 24" xmlns="http://www.w3.org/2000/svg" data-name="Layer 1"><path d="m18 0c-3.314 0-6 2.686-6 6s2.686 6 6 6 6-2.686 6-6-2.686-6-6-6zm3.683 5.712-2.703 2.614c-.452.446-1.052.671-1.653.671s-1.203-.225-1.663-.674l-1.354-1.332c-.395-.387-.4-1.02-.014-1.414.386-.395 1.019-.401 1.414-.014l1.354 1.331c.144.142.38.139.522-.002l2.713-2.624c.397-.381 1.031-.37 1.414.029.382.398.369 1.031-.029 1.414zm-21.683 13.288c0 2.757 2.243 5 5 5h6c2.757 0 5-2.243 5-5v-1h-16zm7 1h2c.552 0 1 .447 1 1s-.448 1-1 1h-2c-.552 0-1-.447-1-1s.448-1 1-1zm3-14c0-2.264.944-4.303 2.455-5.759-.464-.142-.946-.241-1.455-.241h-6c-2.757 0-5 2.243-5 5v11h16v-2.262c-3.449-.889-6-4.011-6-7.738zm-2 2.993h-1l-1.911 2.421c-.195.357-.569.579-.975.579-.426.066-.808-.317-.644-.74l.879-2.26h-1.001c-.442 0-.862-.195-1.147-.533l-1.096-1.3c-.297-.52.078-1.167.677-1.167.207 0 .405.082.551.228l1.11.772h.923l-.891-2.258c-.163-.411.2-.802.622-.742.407 0 .781.222.975.579l1.929 2.421h1c.552 0 1 .448 1 1s-.448 1-1 1z"/></svg>