<svg id="Layer_1" viewBox="0 0 24 24" xmlns="http://www.w3.org/2000/svg" data-name="Layer 1"><path d="m11.5 4.5v1h-1v-1c0-.276.225-.5.5-.5s.5.224.5.5zm-4.5-.5h-.5v1h.5c.275 0 .5-.224.5-.5s-.225-.5-.5-.5zm10.83 14.754-5.829-2.292v-4.355h-.001c0-.996-.681-1.92-1.664-2.08-1.253-.204-2.336.758-2.336 1.973v8.817c-1.076-.886-2.111-1.752-2.145-1.784-.922-.861-2.373-.813-3.235.109-.863.923-.819 2.372.098 3.23l1.821 1.628h16.462v-.593c0-2.055-1.258-3.901-3.171-4.653zm6.17-14.254v2c0 2.481-2.019 4.5-4.5 4.5h-5.65c-.415-1.506-1.651-2.696-3.193-2.947-1.168-.188-2.353.138-3.248.899-.635.541-1.078 1.257-1.282 2.047h-1.627c-2.481 0-4.5-2.019-4.5-4.5v-2c0-2.48 2.019-4.499 4.5-4.499h15c2.481 0 4.5 2.019 4.5 4.5zm-15.5 0c0-.827-.673-1.5-1.5-1.5h-.5c-.552 0-1 .448-1 1v3.5c0 .276.224.5.5.5s.5-.224.5-.5v-1.5h.5c.827 0 1.5-.673 1.5-1.5zm4 0c0-.827-.673-1.5-1.5-1.5s-1.5.673-1.5 1.5v3c0 .276.224.5.5.5s.5-.224.5-.5v-1h1v1c0 .276.224.5.5.5s.5-.224.5-.5zm2-1c0-.276-.224-.5-.5-.5s-.5.224-.5.5v4c0 .276.224.5.5.5s.5-.224.5-.5zm3.536 2.08c.285-.273.464-.655.464-1.08 0-.827-.673-1.5-1.5-1.5h-.5c-.552 0-1 .449-1 1v3.5c0 .276.224.5.5.5s.5-.224.5-.5v-1.5c.083-.002.535.007.607-.011l.408 1.632c.065.27.346.431.606.364.269-.067.431-.338.364-.606l-.45-1.799zm-1.036-1.58h-.5l-.013 1h.513c.275 0 .5-.224.5-.5s-.225-.5-.5-.5z"/></svg>