<svg id="Layer_1" viewBox="0 0 24 24" xmlns="http://www.w3.org/2000/svg" data-name="Layer 1"><path d="m21.5 5.001h-6c-1.375 0-2.5 1.125-2.5 2.501l.002 7.41c0 .858.949 1.378 1.672.915l2.826-1.827h4c1.381 0 2.5-1.119 2.5-2.5v-3.999c0-1.381-1.119-2.5-2.5-2.5zm-1.5 6.999h-3c-1.105 0-2-.895-2-2h1.737l1.242.842c.315.21.726.21 1.041 0l1.242-.842h1.737c0 1.105-.895 2-2 2zm-5-3c0-1.105.895-2 2-2h3c1.105 0 2 .895 2 2zm-3.794 7.001h-11.206v-11.001c0-2.757 2.243-5 5-5h6c2.045 0 3.799 1.238 4.573 3.001h-.073c-2.481 0-4.5 2.019-4.5 4.501l.002 7.41c0 .379.075.746.204 1.089zm-11.206 3.499c0 2.485 2.015 4.5 4.5 4.5h7c2.485 0 4.5-2.015 4.5-4.5v-1.5h-16zm7 .5h2c.552 0 1 .447 1 1s-.448 1-1 1h-2c-.552 0-1-.447-1-1s.448-1 1-1z"/></svg>