<svg id="Layer_1" viewBox="0 0 24 24" xmlns="http://www.w3.org/2000/svg" data-name="Layer 1"><path d="m23.951 13.09c-.404 4.488-3.383 8.45-7.587 10.092-.502.199-1.095-.048-1.296-.568-.201-.515.054-1.094.567-1.295 3.505-1.368 5.986-4.669 6.323-8.408.05-.55.544-.95 1.086-.906.55.05.956.536.906 1.086zm-1.418-3.546c.945-.94 1.467-2.19 1.467-3.521s-.521-2.581-1.475-3.529l-1.877-1.82c-.463-.449-1.056-.674-1.648-.674s-1.186.225-1.648.674l-1.885 1.828c-.946.94-1.467 2.191-1.467 3.521s.521 2.581 1.467 3.52c.942.939 2.198 1.457 3.533 1.457s2.589-.517 3.533-1.456zm-8.478 1.416c-.3-.298-.565-.621-.802-.96h-2.253v-3c0-.552-.448-1-1-1s-1 .448-1 1v3h-2c-.552 0-1 .448-1 1s.448 1 1 1v1c0 2.414 1.721 4.434 4 4.899v2.871c0 .383-.175.739-.48.975-.299.232-.677.313-1.044.216-4.708-1.225-7.965-6.102-7.412-11.103.506-4.589 4.205-8.288 8.793-8.795.687-.076 1.378-.084 2.053-.022.563.044 1.036-.356 1.086-.906s-.356-1.036-.906-1.086c-.361-.032-.725-.049-1.09-.049-.462 0-.908.026-1.362.075-5.512.609-9.954 5.051-10.563 10.563-.055.5-.075 1.003-.075 1.489 0 5.487 3.703 10.399 8.972 11.769.27.07.757.104 1.028.104 1.805 0 3.043-1.504 3-3.23v-2.871c2.279-.465 4-2.484 4-4.899v-.289c-1.102-.326-2.111-.919-2.945-1.751z"/></svg>