<svg id="Layer_1" viewBox="0 0 24 24" xmlns="http://www.w3.org/2000/svg" data-name="Layer 1"><path d="m9.358 6.5h.642c.552 0 1-.447 1-1s-.448-1-1-1h-.642c-.094-.363-.238-.704-.425-1.019l.495-.495c.408.02.821-.114 1.133-.425.586-.586.586-1.536 0-2.121s-1.536-.586-2.121 0c-.312.312-.445.725-.425 1.133l-.495.495c-.316-.186-.656-.33-1.019-.425v-.642c0-.552-.448-1-1-1s-1 .448-1 1v.642c-.363.094-.704.238-1.019.425l-.495-.495c.02-.408-.114-.821-.425-1.133-.587-.586-1.537-.586-2.123-.001s-.585 1.536 0 2.122c.312.312.725.445 1.133.425l.495.495c-.186.316-.33.656-.425 1.019h-.642c-.552 0-1 .447-1 1s.448 1 1 1h.642c.094.363.238.704.425 1.019l-.495.495c-.408-.02-.821.114-1.133.425-.586.586-.586 1.536 0 2.121.586.586 1.536.586 2.121 0 .312-.312.445-.725.425-1.133l.495-.495c.316.186.656.33 1.019.425v.642c0 .553.448 1 1 1s1-.447 1-1v-.642c.363-.094.704-.238 1.019-.425l.495.495c-.02.408.114.821.425 1.133.586.586 1.536.586 2.121 0 .586-.586.586-1.536 0-2.121-.312-.312-.725-.445-1.133-.425l-.495-.495c.186-.316.33-.656.425-1.019zm13.871-4.316-.767.818c.346.498.537 1.086.537 1.705 0 .801-.313 1.555-.879 2.122l-.728.732c1.054 1.618 1.607 3.482 1.607 5.439 0 3.962-2.321 7.382-5.67 9h2.67c.553 0 1 .448 1 1s-.447 1-1 1h-13.999c-.553 0-1-.448-1-1s.447-1 1-1h2.67c-1.779-.855-3.282-2.231-4.307-4h-3.363c-.553 0-1-.448-1-1s.447-1 1-1h9c.553 0 1 .448 1 1s-.447 1-1 1h-3.224c1.501 1.872 3.761 3 6.224 3 4.411 0 8-3.589 8-8 0-1.416-.375-2.765-1.068-3.968l-4.764 4.794c-.565.57-1.319.885-2.122.886h-.006c-.801 0-1.554-.312-2.121-.879 0 0-.808-.832-.858-.89 1.664-.27 2.939-1.703 2.939-3.443 0-.948-.38-1.805-.992-2.435l5.162-5.185c1.058-1.059 2.709-1.151 3.882-.297l.719-.767c.377-.404 1.011-.424 1.413-.046.403.377.424 1.01.046 1.413z"/></svg>