<svg id="Layer_1" viewBox="0 0 24 24" xmlns="http://www.w3.org/2000/svg" data-name="Layer 1"><path d="m16 24h-9c-2.757 0-5-2.243-5-5v-12c0-.553.448-1 1-1s1 .447 1 1v12c0 1.654 1.346 3 3 3h9c.552 0 1 .447 1 1s-.448 1-1 1zm6-19v10c0 2.757-2.243 5-5 5h-6c-2.757 0-5-2.243-5-5v-10c0-2.757 2.243-5 5-5h6c2.757 0 5 2.243 5 5zm-10 9c0-.553-.448-1-1-1s-1 .447-1 1v1c0 .553.448 1 1 1s1-.447 1-1zm3-2c0-.553-.448-1-1-1s-1 .447-1 1v3c0 .553.448 1 1 1s1-.447 1-1zm3 1c0-.553-.448-1-1-1s-1 .447-1 1v2c0 .553.448 1 1 1s1-.447 1-1zm0-8c0-.552-.448-1-1-1h-2.303c-.62 0-.931.75-.492 1.188l.596.596-.802.802-.793-.793c-.391-.391-1.023-.391-1.414 0l-1.5 1.5c-.391.391-.391 1.023 0 1.414s1.023.391 1.414 0l.793-.793.793.793c.195.195.451.293.707.293s.512-.098.707-.293l1.509-1.509.596.596c.438.438 1.188.128 1.188-.492v-2.303z"/></svg>