<svg id="Layer_1" viewBox="0 0 24 24" xmlns="http://www.w3.org/2000/svg" data-name="Layer 1"><path d="m12.729 10.985c0 .398-.349.735-.762.735l-.71.003-.005-1.473h.715c.413 0 .762.336.762.735zm9.271.015v2h1c.553 0 1 .447 1 1s-.447 1-1 1h-1v2h1c.553 0 1 .447 1 1s-.447 1-1 1h-1.424c-.504 1.149-1.427 2.072-2.576 2.576v1.424c0 .553-.447 1-1 1s-1-.447-1-1v-1h-2v1c0 .553-.447 1-1 1s-1-.447-1-1v-1h-2v1c0 .553-.448 1-1 1s-1-.447-1-1v-1h-2v1c0 .553-.448 1-1 1s-1-.447-1-1v-1.424c-1.149-.504-2.072-1.427-2.576-2.576h-1.424c-.552 0-1-.447-1-1s.448-1 1-1h1v-2h-1c-.552 0-1-.447-1-1s.448-1 1-1h1v-2h-1c-.552 0-1-.447-1-1s.448-1 1-1h1v-2h-1c-.552 0-1-.447-1-1s.448-1 1-1h1.424c.504-1.149 1.427-2.072 2.576-2.576v-1.424c0-.553.448-1 1-1s1 .447 1 1v1h2v-1c0-.553.448-1 1-1s1 .447 1 1v1h2v-1c0-.553.447-1 1-1s1 .447 1 1v1h2v-1c0-.553.447-1 1-1s1 .447 1 1v1.424c1.149.504 2.072 1.427 2.576 2.576h1.424c.553 0 1 .447 1 1s-.447 1-1 1h-1v2h1c.553 0 1 .447 1 1s-.447 1-1 1zm-13.725 2h-.05c-.236 0-.44.148-.536.364-.116.26-.379.451-.689.455-.391 0-.749-.302-.749-.751v-2.067c0-.449.358-.751.749-.751.288.005.543.18.668.422.106.204.32.328.55.328.471 0 .774-.501.554-.919-.334-.636-1.003-1.076-1.773-1.08-1.109-.001-2 .889-2 1.984v2.099c0 1.094.891 1.985 2 1.985.828-.004 1.536-.507 1.841-1.213.175-.404-.125-.856-.566-.856zm5.703-2.015c0-1.094-.902-1.985-2.012-1.985h-1.342c-.345 0-.625.28-.625.625v4.819c0 .345.28.625.625.625s.625-.28.625-.625v-1.471l.717-.003c1.109 0 2.012-.891 2.012-1.985zm5.021-1.36c0-.345-.28-.625-.625-.625s-.625.28-.625.625v3.443c-.001.449-.359.751-.75.751-.408-.007-.75-.34-.75-.735v-3.459c0-.345-.28-.625-.625-.625s-.625.28-.625.625v3.443s0 0 0 0v.016c0 1.09.896 1.977 2 1.984 1.109.001 2-.889 2-1.984z"/></svg>