<svg id="Layer_1" viewBox="0 0 24 24" xmlns="http://www.w3.org/2000/svg" data-name="Layer 1"><path d="m8.662 8.024c.504-2.744 1.084-5.203 1.616-6.783.254-.753.93-1.241 1.722-1.241.792 0 1.468.487 1.722 1.241.552 1.64 1.126 4.113 1.613 6.759-1.153 1.146-2.449 2.233-3.677 2.908-.916-.804-1.921-1.755-2.997-2.884zm-6.132 8.507c-.475-.186-.944-.395-1.386-.626-.66-.344-1.381.397-1.068 1.099.4.898.919 1.756 1.556 2.572 1.345 1.722 3.269 3.132 5.944 3.869-2.067-2.036-3.774-4.387-5.046-6.914zm20.327-.626c-.476.248-.955.466-1.429.655-.679 1.309-1.502 2.626-2.481 3.986-.103.806-.356 1.574-.744 2.266 1.776-.79 3.139-1.922 4.166-3.236.638-.816 1.157-1.674 1.556-2.572.313-.703-.408-1.444-1.068-1.099zm-.864-8.267c.061-.666-.32-1.28-.95-1.529-.644-.253-1.361-.061-1.782.479-1.468 1.884-3.73 4.25-5.977 5.678.912.726 1.686 1.283 2.289 1.716.574.413.988.711 1.311.997.764.648 1.356 1.517 1.717 2.497 2.027-3.261 3.072-6.34 3.393-9.839zm-6.437 8.838c-1.15-1.02-5.445-3.405-10.826-9.865-.409-.548-1.112-.753-1.751-.512-.642.243-1.033.866-.973 1.551.514 5.909 3.659 11.483 7.948 15.28.746.688 1.753 1.069 2.8 1.069 1.425 0 2.467-.557 3.2-1.458.739-.822 1.036-1.985 1.036-3.129 0-1.163-.608-2.236-1.433-2.937z"/></svg>