<svg id="Layer_1" viewBox="0 0 24 24" xmlns="http://www.w3.org/2000/svg" data-name="Layer 1"><path d="m21.721 19.807c.383.398.371 1.031-.027 1.414l-2.293 2.207c-.381.381-.9.573-1.396.573-.513 0-1.027-.195-1.419-.586l-2.279-2.193c-.398-.383-.41-1.016-.027-1.414.384-.398 1.017-.409 1.414-.027l1.307 1.258v-6.037c0-.552.448-1 1-1s1 .448 1 1v6.022l1.307-1.243c.398-.382 1.031-.371 1.414.027zm-12.414-.027-1.307 1.243v-3.022c0-.552-.448-1-1-1s-1 .448-1 1v3.037l-1.307-1.258c-.397-.382-1.03-.371-1.414.027-.383.398-.371 1.031.027 1.414l2.279 2.193c.392.392.901.586 1.414.586.5 0 1.019-.191 1.4-.572l2.293-2.207c.398-.383.41-1.016.027-1.414s-1.016-.409-1.414-.027zm-.183-13.797c-.167-.302-.494-.482-.877-.482h-2.623c-.344 0-.624.28-.624.624 0 .307.219.565.521.616l3.287.548c.587.098 1.094.389 1.476.794-.138-.513-.225-1.045-.259-1.594-.361.008-.714-.168-.901-.506zm1.876 3.894c0 1.447-1.177 2.624-2.624 2.624h-.376c0 .552-.448 1-1 1s-1-.448-1-1h-.278c-1.048 0-2.038-.571-2.582-1.49-.282-.476-.125-1.089.351-1.37.477-.282 1.089-.124 1.37.351.186.314.516.51.861.51h2.654c.344 0 .624-.28.624-.624 0-.307-.219-.565-.521-.616l-3.287-.548c-1.27-.211-2.192-1.3-2.192-2.588 0-1.447 1.177-2.624 2.624-2.624h.376c0-.552.448-1 1-1s1 .448 1 1h.247c.74 0 1.422.278 1.956.731.16-.71.411-1.385.746-2.009-1.124-.77-2.483-1.222-3.949-1.222-3.866-.002-7 3.132-7 6.998s3.134 7 7 7c2.373 0 4.466-1.184 5.732-2.99-.693-.608-1.283-1.329-1.733-2.142v.007zm13-3.876c0 3.314-2.686 6-6 6s-6-2.686-6-6 2.686-6.001 6-6.001 6 2.686 6 6zm-8.25-1.5c.69 0 1.25-.56 1.25-1.25s-.56-1.25-1.25-1.25-1.25.56-1.25 1.25.56 1.25 1.25 1.25zm5.109-1.247c.25-.364.158-.862-.206-1.112-.363-.25-.861-.158-1.112.206l-4.4 6.4c-.25.364-.158.862.206 1.112.36.249.86.161 1.112-.206zm.641 5.497c0-.69-.56-1.25-1.25-1.25s-1.25.56-1.25 1.25.56 1.25 1.25 1.25 1.25-.56 1.25-1.25z"/></svg>