<svg id="Layer_1" viewBox="0 0 24 24" xmlns="http://www.w3.org/2000/svg" data-name="Layer 1"><path d="m23.707 22.293-2.54-2.54c.524-.791.833-1.736.833-2.753 0-2.757-2.243-5-5-5s-5 2.243-5 5 2.243 5 5 5c1.017 0 1.962-.309 2.753-.833l2.54 2.54c.195.195.451.293.707.293s.512-.098.707-.293c.391-.391.391-1.023 0-1.414zm.29-5.242c0-.017.003-.034.003-.051v.038s-.003.008-.003.013zm-4.997-12.013h-14c-2.757 0-5 2.244-5 5v3c0 2.757 2.243 5 5 5h5.085c-.051-.34-.085-.685-.085-1.038 0-1.309.366-2.529.991-3.577l-.284.284c-.391.391-1.023.391-1.414 0s-.391-1.023 0-1.414l.793-.793-.793-.793c-.391-.391-.391-1.023 0-1.414s1.023-.391 1.414 0l.793.793.793-.793c.391-.391 1.023-.391 1.414 0s.391 1.023 0 1.414l-.284.284c1.048-.625 2.268-.991 3.577-.991 3.866 0 7 3.134 7 7v-6.962c0-2.757-2.243-5-5-5zm-11.793 7.255c.391.391.391 1.023 0 1.414-.195.195-.451.293-.707.293s-.512-.098-.707-.293l-.793-.793-.793.793c-.195.195-.451.293-.707.293s-.512-.098-.707-.293c-.391-.391-.391-1.023 0-1.414l.793-.793-.793-.793c-.391-.391-.391-1.023 0-1.414s1.023-.391 1.414 0l.793.793.793-.793c.391-.391 1.023-.391 1.414 0s.391 1.023 0 1.414l-.793.793z"/></svg>