<?xml version="1.0" encoding="UTF-8"?>
<svg xmlns="http://www.w3.org/2000/svg" id="Layer_1" data-name="Layer 1" viewBox="0 0 24 24">
  <path d="m9,22c0,1.105-.895,2-2,2s-2-.895-2-2,.895-2,2-2,2,.895,2,2Zm8-2c-1.105,0-2,.895-2,2s.895,2,2,2,2-.895,2-2-.895-2-2-2ZM15.75,0c-1.243,0-2.25,1.007-2.25,2.25,0-1.243-1.007-2.25-2.25-2.25s-2.25,1.007-2.25,2.25c0,1.795,2.103,4.307,3.434,5.374.625.501,1.507.501,2.132,0,1.331-1.067,3.434-3.579,3.434-5.374,0-1.243-1.007-2.25-2.25-2.25Zm7.569,4.098c-.572-.698-1.418-1.098-2.32-1.098h-1.068c-.437,2.693-3.049,5.331-4.114,6.185-.682.547-1.5.82-2.316.821-.818,0-1.636-.274-2.318-.821-1.064-.853-3.676-3.491-4.113-6.184h-1.827l-.041-.352c-.179-1.51-1.46-2.648-2.979-2.648h-1.222C.447,0,0,.448,0,1s.447,1,1,1h1.222c.507,0,.934.38.993.883l1.376,11.702c.297,2.517,2.432,4.416,4.966,4.416h9.443c.553,0,1-.448,1-1s-.447-1-1-1h-9.443c-1.292,0-2.404-.826-2.82-2h11.424c2.375,0,4.437-1.69,4.902-4.019l.879-4.393c.177-.885-.05-1.792-.622-2.49Z"/>
</svg>
