<svg id="Layer_1" viewBox="0 0 24 24" xmlns="http://www.w3.org/2000/svg" data-name="Layer 1"><path d="m7 15.5c0 1.381-1.119 2.5-2.5 2.5s-2.5-1.119-2.5-2.5 1.119-2.5 2.5-2.5 2.5 1.119 2.5 2.5zm12.5 2.5c1.381 0 2.5-1.119 2.5-2.5s-1.119-2.5-2.5-2.5-2.5 1.119-2.5 2.5 1.119 2.5 2.5 2.5zm-10.508 4.876c.036.286-.054.573-.245.789-.19.213-.462.335-.747.335h-.008l-7-.06c-.289-.003-.562-.13-.75-.349s-.272-.508-.231-.793c.311-2.166 2.239-3.799 4.486-3.799 2.287 0 4.22 1.666 4.496 3.876zm14.997-.086c.042.286-.041.577-.229.797s-.462.347-.751.35l-7 .063h-.009c-.286 0-.558-.122-.748-.336-.191-.216-.28-.505-.244-.791.283-2.208 2.216-3.873 4.496-3.873 2.238 0 4.166 1.63 4.485 3.79zm-7.989-14.79c0-1.359-.974-2.51-2.315-2.733l-3.041-.506c-.373-.062-.644-.382-.644-.761 0-.552.449-1 1-1h2.268c.356 0 .688.191.867.501.274.478.886.642 1.366.364.478-.276.642-.888.364-1.366-.534-.925-1.53-1.499-2.598-1.499h-.268c0-.553-.448-1-1-1s-1 .447-1 1c-1.654 0-3 1.346-3 3 0 1.359.974 2.51 2.315 2.733l3.04.506c.374.062.645.382.645.761 0 .552-.448 1-1 1h-2.268c-.356 0-.688-.191-.867-.501-.277-.479-.889-.642-1.366-.364-.479.276-.642.888-.365 1.366.535.925 1.531 1.499 2.598 1.499h.268c0 .553.448 1 1 1s1-.447 1-1c1.654 0 3-1.346 3-3zm3.312 2.707c.38.391.997.391 1.377 0l2.023-2.031c.61-.612.188-1.676-.665-1.676h-1.046v-4c0-.553-.447-1-1-1s-1 .447-1 1v4h-1.046c-.853 0-1.275 1.064-.665 1.676l2.023 2.031zm-17.358-4.707h1.046v4c0 .553.448 1 1 1s1-.447 1-1v-4h1.046c.853 0 1.275-1.036.665-1.632l-2.023-1.977c-.38-.38-.997-.38-1.377 0l-2.023 1.977c-.61.596-.188 1.632.665 1.632z"/></svg>