<svg id="Layer_1" viewBox="0 0 24 24" xmlns="http://www.w3.org/2000/svg" data-name="Layer 1"><path d="m16.293 4.245c-.391-.391-.391-1.024 0-1.414l2.212-2.211c.798-.799 2.192-.799 2.991 0l2.211 2.211c.391.39.391 1.023 0 1.414s-1.023.391-1.414 0l-2.212-2.211c-.048-.053-.118-.064-.162 0l-2.212 2.211c-.391.391-1.023.391-1.414 0zm6 2.548-2.212 2.212c-.045.045-.117.045-.162 0l-2.212-2.212c-.391-.391-1.023-.391-1.414 0s-.391 1.023 0 1.414l2.212 2.212c.412.412.954.619 1.495.619s1.083-.207 1.495-.619l2.212-2.212c.391-.391.391-1.023 0-1.414s-1.023-.391-1.414 0zm-13.293-1.793h-.5v7h6.5v-1c0-3.309-2.691-6-6-6zm-9 11.5c0 4.136 3.364 7.5 7.5 7.5s7.5-3.364 7.5-7.5v-2.5h-15zm0-5.5v1h6.5v-7h-.5c-3.309 0-6 2.691-6 6zm7.5-11c-.552 0-1 .448-1 1v4h2v-4c0-.552-.448-1-1-1z"/></svg>