<svg id="Layer_1" viewBox="0 0 24 24" xmlns="http://www.w3.org/2000/svg" data-name="Layer 1"><path d="m4.5 12c-1.381 0-2.5-1.119-2.5-2.5s1.119-2.5 2.5-2.5 2.5 1.119 2.5 2.5-1.119 2.5-2.5 2.5zm19.263-7.859-5.763 5.932v12.927c0 .552-.448 1-1 1h-6c-.552 0-1-.448-1-1v-6h2c.552 0 1-.448 1-1 0-.552-.448-1-1-1h-5v6.5c0 1.381-1.119 2.5-2.5 2.5h-2c-1.381 0-2.5-1.119-2.5-2.5v-4.5c0-2.209 1.791-4 4-4h6v-4.913l-9.553-5.815c-.277-.169-.447-.47-.447-.795 0-.685.715-1.135 1.332-.84l8.668 4.146v-3.783c0-.552.448-1 1-1h6c.552 0 1 .448 1 1v5.309l2-1.468v-4.123c0-.396.321-.718.718-.718.355 0 .656.259.71.609l.437 2.863.803-.59c.553-.406 1.333-.011 1.333.675 0 .218-.085.427-.237.583z"/></svg>