<svg id="Layer_1" viewBox="0 0 24 24" xmlns="http://www.w3.org/2000/svg" data-name="Layer 1"><path d="m24 12.001c0 .97-.701 2-2 2h-7c-2.209 0-4 1.791-4 4v5c0 .552-.448 1-1 1s-1-.448-1-1v-10c0-1.626 1.274-2.971 2.841-2.999 1.268-.027 2.47.209 3.624.688l2.981 1.235c.121.05.251.076.383.076h5.172zm-11 6v5.073c0 .685.724 1.134 1.336.828.985-.492 1.664-1.228 1.664-2.402v-.5h.494c2.498-.215 4.629-1.867 4.961-4.38l.059-.619h-6.514c-1.105 0-2 .895-2 2zm3.23-9.159 2.797 1.159h4.287c-.997-2.029-2.809-4.71-3.514-5.582-2.438-3.255-6.312-4.866-10.347-4.312-4.996.686-8.952 4.839-9.407 9.876-.25 2.769.537 5.5 2.215 7.692.477.623.739 1.459.739 2.355v.971c0 1.657 1.343 3 3 3 .552 0 1-.448 1-1v-10c0-2.709 2.156-4.952 4.806-4.999 1.53-.017 3.015.256 4.425.84z"/></svg>