<svg id="Layer_1" viewBox="0 0 24 24" xmlns="http://www.w3.org/2000/svg" data-name="Layer 1"><path d="m20 8c-2.206 0-4-1.794-4-4s1.794-4 4-4 4 1.794 4 4-1.794 4-4 4zm-11 3h-3c-.551 0-1 .448-1 1v2c0 .552.449 1 1 1h3c.551 0 1-.448 1-1v-2c0-.552-.449-1-1-1zm11-1c-3.308 0-6-2.691-6-6 0-.702.127-1.373.35-2h-9.35c-2.757 0-5 2.243-5 5v8c0 2.757 2.243 5 5 5h6v2h-4c-.552 0-1 .447-1 1s.448 1 1 1h10c.552 0 1-.447 1-1s-.448-1-1-1h-4v-2h6c2.757 0 5-2.243 5-5v-6.54c-1.063.954-2.463 1.54-4 1.54zm-5 4.983c0 .837-.955 1.314-1.625.812l-1.46-1.117c-.309 1.327-1.496 2.321-2.916 2.321h-3c-1.654 0-3-1.346-3-3v-2c0-1.654 1.346-3 3-3h3c1.422 0 2.609.996 2.917 2.326l1.458-1.094c.669-.502 1.625-.024 1.625.812v3.939z"/></svg>