<svg id="Layer_1" viewBox="0 0 24 24" xmlns="http://www.w3.org/2000/svg" data-name="Layer 1"><path d="m4 6.5v-1c0-.828.672-1.5 1.5-1.5.829 0 1.5.671 1.5 1.5v1c0 .828-.672 1.5-1.5 1.5-.828 0-1.5-.672-1.5-1.5zm-2.5 2.5c.828 0 1.5-.672 1.5-1.5v-1c0-.829-.671-1.5-1.499-1.5-.829 0-1.501.672-1.501 1.5v1c0 .828.671 1.5 1.5 1.5zm18.329 9.734c-.41.169-.858.266-1.329.266-.98 0-1.864-.407-2.5-1.059v-8.441c0-.828-.672-1.5-1.5-1.5-.829 0-1.5.671-1.5 1.5v10.5h-2c-1.105 0-2 .895-2 2s.895 2 2 2h9c2.209 0 4-1.791 4-4v-.351c-.456.219-.961.351-1.5.351-1.076 0-2.029-.499-2.671-1.266zm-17.811-7.796c-.171.028-.34.062-.518.062-.539 0-1.044-.133-1.5-.351v2.351c0 2.209 1.791 4 4 4h3.34l-3.464-2.61c-1.221-.764-1.877-2.094-1.858-3.452zm16.482 6.062c.828 0 1.5-.672 1.5-1.5v-1c0-.828-.672-1.5-1.5-1.5-.829 0-1.5.671-1.5 1.5v1c0 .828.672 1.5 1.5 1.5zm4 1c.828 0 1.5-.672 1.5-1.5v-1c0-.828-.672-1.5-1.5-1.5-.829 0-1.5.671-1.5 1.5v1c0 .828.672 1.5 1.5 1.5zm-11.5-4.997v-11.503c0-.828-.672-1.5-1.5-1.5-.829 0-1.5.671-1.5 1.5v8.527l-.998-.758c-.956-.553-2.18-.226-2.733.73s-.226 2.18.73 2.733l4.486 3.38c.916-.732 1.514-1.845 1.515-3.109z"/></svg>