<?xml version="1.0" encoding="UTF-8"?>
<svg xmlns="http://www.w3.org/2000/svg" id="Layer_1" data-name="Layer 1" viewBox="0 0 24 24">
  <path d="m23.707,19.587l-3.535,3.536c-.585.584-1.354.877-2.122.877s-1.536-.292-2.121-.876l-3.636-3.636c-.391-.391-.391-1.023,0-1.414s1.023-.391,1.414,0l3.293,3.293V1C17,.447,17.447,0,18,0s1,.448,1,1v20.467l3.293-3.293c.391-.391,1.023-.391,1.414,0,.391.39.391,1.023,0,1.414Zm-12.828-2.928c-.899.899-1.1,2.228-.618,3.327-.088.002-.173.013-.261.013C4.477,20,0,15.522,0,10S4.477,0,10,0C11.824,0,13.528.495,15,1.348v15.196c-1.143-1.025-3.028-.979-4.121.115Zm.121-12.659c0-.552-.448-1-1-1-3.86,0-7,3.14-7,7,0,2.783,1.648,5.302,4.198,6.417.131.057.267.084.4.084.385,0,.752-.224.917-.6.222-.506-.009-1.096-.515-1.317-1.822-.797-3-2.596-3-4.584,0-2.757,2.243-5,5-5,.552,0,1-.448,1-1Z"/>
</svg>
