<?xml version="1.0" encoding="UTF-8"?>
<svg xmlns="http://www.w3.org/2000/svg" id="Layer_1" data-name="Layer 1" viewBox="0 0 24 24">
  <path d="M8,5c-.552,0-1,.447-1,1v.5c0,.275-.224,.5-.5,.5h-1v-1c0-.553-.448-1-1-1s-1,.447-1,1v1h-1c-.276,0-.5-.225-.5-.5v-.5c0-.553-.448-1-1-1s-1,.447-1,1v.5c0,1.188,.834,2.18,1.947,2.434l-.393,7.066h-.054c-.828,0-1.5,.672-1.5,1.5s.672,1.5,1.5,1.5H7.5c.828,0,1.5-.672,1.5-1.5s-.672-1.5-1.5-1.5h-.054l-.393-7.066c1.112-.253,1.947-1.245,1.947-2.434v-.5c0-.553-.448-1-1-1Zm11-2c0-1.381,1.119-2.5,2.5-2.5s2.5,1.119,2.5,2.5-1.119,2.5-2.5,2.5-2.5-1.119-2.5-2.5Zm5,9c0,1.381-1.119,2.5-2.5,2.5s-2.5-1.119-2.5-2.5,1.119-2.5,2.5-2.5,2.5,1.119,2.5,2.5Zm0,9c0,1.381-1.119,2.5-2.5,2.5s-2.5-1.119-2.5-2.5,1.119-2.5,2.5-2.5,2.5,1.119,2.5,2.5ZM14,5v6h2c.552,0,1,.447,1,1s-.448,1-1,1h-2v6c0,.552,.449,1,1,1h1c.552,0,1,.447,1,1s-.448,1-1,1h-1c-1.654,0-3-1.346-3-3v-6h-1c-.552,0-1-.447-1-1s.448-1,1-1h1V5c0-1.654,1.346-3,3-3h1c.552,0,1,.447,1,1s-.448,1-1,1h-1c-.551,0-1,.448-1,1Z"/>
</svg>
