<svg id="Layer_1" viewBox="0 0 24 24" xmlns="http://www.w3.org/2000/svg" data-name="Layer 1"><path d="m6 12.5v-1c0-.276.224-.5.5-.5h2.5v2h-2.5c-.276 0-.5-.224-.5-.5zm15.5 6.5h-5.652c-.588 0-1.147.259-1.527.708l-.247.292h-4.149l-.247-.292c-.38-.449-.939-.708-1.527-.708h-5.651c-1.381 0-2.5 1.119-2.5 2.5s1.119 2.5 2.5 2.5h19c1.381 0 2.5-1.119 2.5-2.5s-1.119-2.5-2.5-2.5zm-.586-14.5 2.793-2.793c.391-.391.391-1.023 0-1.414s-1.023-.391-1.414 0l-2.793 2.793-2.793-2.793c-.391-.391-1.023-.391-1.414 0s-.391 1.023 0 1.414l2.793 2.793-2.793 2.793c-.391.391-.391 1.023 0 1.414s1.023.391 1.414 0l2.793-2.793 2.793 2.793c.391.391 1.023.391 1.414 0s.391-1.023 0-1.414zm-17.914 12.5c-.344 0-.677.043-1 .11v-6.11c0-2.757 2.243-5 5-5h6.779c-.498.552-.779 1.252-.779 2 0 .801.312 1.555.879 2.121.566.566 1.32.879 2.121.879s1.555-.312 2.121-.879l1.379-1.379 1.379 1.379c.316.316.713.543 1.121.691.016.316-.019 6.078 0 6.298-.323-.067-.656-.11-1-.11h-5.151c-.983 0-1.92.359-2.646 1h-2.404c-.726-.641-1.663-1-2.646-1zm1-4.5c0 1.381 1.119 2.5 2.5 2.5h1.5l1.309.872c.723.482 1.691-.036 1.691-.905v-1.467c.828 0 1.5-.672 1.5-1.5s-.672-1.5-1.5-1.5v-1.467c0-.869-.968-1.387-1.691-.905l-1.309.872h-1.5c-1.381 0-2.5 1.119-2.5 2.5z"/></svg>