<svg id="Layer_1" viewBox="0 0 24 24" xmlns="http://www.w3.org/2000/svg" data-name="Layer 1"><path d="m6 16c-2.206 0-4-1.794-4-4s1.794-4 4-4 4 1.794 4 4-1.794 4-4 4zm5 8h-10c-.301 0-.586-.136-.775-.368-.19-.233-.265-.54-.204-.835.576-2.779 3.091-4.797 5.979-4.797s5.403 2.018 5.979 4.797c.061.295-.014.602-.204.835-.189.232-.475.368-.775.368zm-5-8c-2.206 0-4-1.794-4-4s1.794-4 4-4 4 1.794 4 4-1.794 4-4 4zm11.5-16c-3.584 0-6.5 2.916-6.5 6.5s2.916 6.5 6.5 6.5 6.5-2.916 6.5-6.5-2.916-6.5-6.5-6.5zm2.498 7.742-1.5 1.5c-.252.253-.632.326-.957.19-.328-.136-.541-.456-.541-.812v-1.121h-2c-.553 0-1-.448-1-1s.447-1 1-1h2v-1.121c0-.355.213-.676.541-.812.329-.138.706-.062.957.19l1.5 1.5c.685.685.685 1.8 0 2.485z"/></svg>