<svg id="Layer_1" viewBox="0 0 24 24" xmlns="http://www.w3.org/2000/svg" data-name="Layer 1"><path d="m13.592.482c-.968-.643-2.217-.643-3.184 0-2.011 1.336-4.408 3.41-4.408 5.702v3.477c0 .9.397 1.745 1.09 2.316 1.245 1.027 2.28 1.664 3.69 2.271.385.166.793.25 1.214.253h.017c.42 0 .827-.083 1.211-.246 1.36-.577 2.429-1.237 3.69-2.279.691-.572 1.088-1.415 1.088-2.314v-3.477c0-2.292-2.397-4.366-4.408-5.702zm.896 8.274-2.073 1.036c-.261.13-.568.13-.829 0l-2.073-1.036c-.314-.157-.512-.478-.512-.829 0-.512.415-.927.927-.927h4.146c.512 0 .927.415.927.927 0 .351-.198.672-.512.829zm9.512 10.744s0 1.143-1 1.433v2.067c0 .552-.448 1-1 1h-1c-.552 0-1-.448-1-1v-3.988c0-.318-.153-.619-.409-.807-.007-.005-.014-.01-.021-.015-.654-.474-1.57 0-1.57.808v4.004c0 .552-.448 1-1 1h-3c-.552 0-1-.448-1-1v-2c0-.552-.448-1-1-1s-1 .448-1 1v2c0 .552-.448 1-1 1h-3c-.552 0-1-.448-1-1v-4.004c0-.807-.917-1.282-1.57-.808-.007.005-.014.01-.021.015-.256.189-.409.49-.409.807v3.988c0 .552-.448 1-1 1h-1c-.552 0-1-.448-1-1v-2.067c-.999-.29-1-1.433-1-1.433 0-4.075 3.11-5.203 5.452-5.447.838-.087 1.669.173 2.305.725 1.321 1.148 2.795 2.263 4.242 2.703 1.447-.44 2.922-1.555 4.242-2.703.636-.552 1.467-.812 2.305-.725 2.343.244 5.452 1.372 5.452 5.447z"/></svg>