<svg id="Layer_1" viewBox="0 0 24 24" xmlns="http://www.w3.org/2000/svg" data-name="Layer 1"><path d="m5 6h4v4h-4zm9.5 11.5c0 1.584-1.473 2.824-3.125 2.424-.803-.194-1.477-.814-1.738-1.598-.155-.463-.171-.913-.087-1.326h-3.55v4c0 1.657 1.343 3 3 3h6c1.657 0 3-1.343 3-3v-4h-3.55c.033.162.05.329.05.5zm9.5-12.5v11c0 2.209-1.791 4-4 4v-4c0-.552-.448-1-1-1h-14c-.552 0-1 .448-1 1v4c-2.209 0-4-1.791-4-4v-11c0-2.761 2.239-5 5-5h14c2.761 0 5 2.239 5 5zm-13 1c0-1.105-.895-2-2-2h-4c-1.105 0-2 .895-2 2v4c0 1.105.895 2 2 2h4c1.105 0 2-.895 2-2zm6 4c0-.828-.672-1.5-1.5-1.5s-1.5.672-1.5 1.5.672 1.5 1.5 1.5 1.5-.672 1.5-1.5zm0-4c0-.828-.672-1.5-1.5-1.5s-1.5.672-1.5 1.5.672 1.5 1.5 1.5 1.5-.672 1.5-1.5zm4 4c0-.828-.672-1.5-1.5-1.5s-1.5.672-1.5 1.5.672 1.5 1.5 1.5 1.5-.672 1.5-1.5zm0-4c0-.828-.672-1.5-1.5-1.5s-1.5.672-1.5 1.5.672 1.5 1.5 1.5 1.5-.672 1.5-1.5z"/></svg>