<svg id="Layer_1" viewBox="0 0 24 24" xmlns="http://www.w3.org/2000/svg" data-name="Layer 1"><path d="m18 0c-3.314 0-6 2.686-6 6s2.686 6 6 6 6-2.686 6-6-2.686-6-6-6zm-1 3c0-.552.447-1 1-1s1 .448 1 1v2c0 .552-.447 1-1 1s-1-.448-1-1zm1 7c-.828 0-1.5-.672-1.5-1.5s.672-1.5 1.5-1.5 1.5.672 1.5 1.5-.672 1.5-1.5 1.5zm-7-.13v2.13h-8.5c-1.381 0-2.5-1.119-2.5-2.5 0-1.381 1.119-2.5 2.5-2.5h3.15c-.205-.101-.402-.209-.576-.334-1.152-.826-1.418-2.435-.593-3.587.826-1.153 2.435-1.419 3.588-.593.082.059.875.778 2.041 2.246-.066.414-.11.835-.11 1.268 0 1.404.364 2.723 1 3.87zm11 4.13v5c0 2.757-2.243 5-5 5h-4v-10zm-11 0v10h-4c-2.757 0-5-2.243-5-5v-5z"/></svg>