<svg id="Layer_1" viewBox="0 0 24 24" xmlns="http://www.w3.org/2000/svg" data-name="Layer 1"><path d="m20.5 7c1.93 0 3.5-1.57 3.5-3.5s-1.57-3.5-3.5-3.5-3.5 1.57-3.5 3.5 1.57 3.5 3.5 3.5zm-1.5 11v3c0 1.657-1.343 3-3 3h-8c-1.657 0-3-1.343-3-3v-3c0-1.657 1.343-3 3-3h8c1.657 0 3 1.343 3 3zm-3.787-13h-10.213v-1c0-2.209 1.791-4 4-4h7.256c-.784.951-1.256 2.169-1.256 3.498 0 .521.077 1.024.213 1.502zm7.394 3.578c.854.893 1.391 2.088 1.393 3.422v4c-.003 1.986-1.18 3.782-3 4.576v-2.576c-.003-2.76-2.24-4.997-5-5h-8c-2.76.003-4.997 2.24-5 5v2.576c-1.82-.794-2.997-2.59-3-4.576v-4c.003-2.76 2.24-4.997 5-5h11.259c1.009 1.22 2.534 1.998 4.241 1.998.747 0 1.458-.15 2.107-.42z"/></svg>