<svg id="Layer_1" viewBox="0 0 24 24" xmlns="http://www.w3.org/2000/svg" data-name="Layer 1"><path d="m22 14.556v-1.556c0-2.206-1.794-4-4-4s-4 1.794-4 4v1.556c-1.19.694-2 1.97-2 3.444v2c0 2.206 1.794 4 4 4h4c2.206 0 4-1.794 4-4v-2c0-1.474-.81-2.75-2-3.444zm-4 5.944c-.828 0-1.5-.672-1.5-1.5s.672-1.5 1.5-1.5 1.5.672 1.5 1.5-.672 1.5-1.5 1.5zm2-6.5h-4v-1c0-1.103.897-2 2-2s2 .897 2 2zm-8.631 9.811c-1.963.546-4.144-.134-5.416-1.877-3.925-5.362-5.915-9.384-5.915-11.954.007-5.51 4.472-9.974 9.981-9.98 4.553.005 8.391 3.057 9.59 7.226-.513-.143-1.051-.226-1.609-.226-1.626 0-3.101.653-4.183 1.707-.525-1.596-2.026-2.749-3.798-2.749-2.209 0-4 1.791-4 4s1.791 4 4 4c.721 0 1.396-.194 1.981-.528v.122c-1.255 1.127-2 2.745-2 4.448v2c0 1.446.514 2.774 1.369 3.811z"/></svg>