<?xml version="1.0" encoding="UTF-8"?>
<svg xmlns="http://www.w3.org/2000/svg" id="Layer_1" data-name="Layer 1" viewBox="0 0 24 24">
  <path d="m0,22.013c.14-1.537.93-2.877,2.091-3.777.466-.361,1.146-.266,1.536.174l1.873,2.112,1.849-2.119c.387-.444,1.069-.544,1.537-.184,1.173.9,1.972,2.248,2.113,3.794h0c.014,1.093-.878,1.987-1.984,1.987H1.984C.879,24-.014,23.106,0,22.013h0Zm13,0c-.014,1.093.878,1.987,1.984,1.987h7.032c1.106,0,1.998-.894,1.984-1.987h0c-.141-1.547-.941-2.895-2.113-3.794-.469-.36-1.15-.26-1.537.184l-1.849,2.119-1.873-2.112c-.39-.44-1.07-.535-1.536-.174-1.16.9-1.951,2.24-2.091,3.777h0Zm9.5-10.013c0-2.206-1.794-4-4-4s-4,1.794-4,4,1.794,4,4,4,4-1.794,4-4Zm-6.5-8c0-2.206-1.794-4-4-4s-4,1.794-4,4,1.794,4,4,4,4-1.794,4-4Zm-6.5,8c0-2.206-1.794-4-4-4s-4,1.794-4,4,1.794,4,4,4,4-1.794,4-4Z"/>
</svg>
