<?xml version="1.0" encoding="UTF-8"?>
<svg xmlns="http://www.w3.org/2000/svg" id="Layer_1" data-name="Layer 1" viewBox="0 0 24 24">
  <path d="m12,0C5.373,0,0,5.373,0,12s5.373,12,12,12,12-5.373,12-12S18.627,0,12,0Zm-6.5,16h-1.7c-.442,0-.8-.358-.8-.8s.358-.8.8-.8h1.7c.497,0,.9-.404.9-.9s-.404-.9-.9-.9h-1.2c-.717,0-1.3-.583-1.3-1.3v-1.5c0-.993.807-1.8,1.8-1.8h1.9c.442,0,.8.358.8.8s-.358.8-.8.8h-1.9c-.11,0-.2.09-.2.2v1.2h.9c1.378,0,2.5,1.122,2.5,2.5s-1.122,2.5-2.5,2.5Zm8.5-2.5c0,1.381-1.119,2.5-2.5,2.5s-2.5-1.119-2.5-2.5v-3c0-1.381,1.119-2.5,2.5-2.5s2.5,1.119,2.5,2.5v3Zm1-4.269c0-.69.56-1.25,1.25-1.25s1.25.56,1.25,1.25-.56,1.25-1.25,1.25-1.25-.56-1.25-1.25Zm1.344,6.75c-.635,0-1.017-.705-.67-1.237l4.178-6.4c.148-.226.4-.363.67-.363.635,0,1.017.705.67,1.237l-4.178,6.4c-.148.226-.4.363-.67.363Zm4.406,0c-.69,0-1.25-.56-1.25-1.25s.56-1.25,1.25-1.25,1.25.56,1.25,1.25-.56,1.25-1.25,1.25Zm-8.35-5.481v3c0,.496-.404.9-.9.9s-.9-.404-.9-.9v-3c0-.496.404-.9.9-.9s.9.404.9.9Z"/>
</svg>
