<svg id="Layer_1" viewBox="0 0 24 24" xmlns="http://www.w3.org/2000/svg" data-name="Layer 1"><path d="m18.5 11c3.032 0 5.5-2.468 5.5-5.5s-2.468-5.5-5.5-5.5-5.5 2.468-5.5 5.5 2.468 5.5 5.5 5.5zm-3.5-5.5c0-.601.166-1.158.434-1.652l4.718 4.718c-.494.268-1.052.434-1.652.434-1.93 0-3.5-1.57-3.5-3.5zm7 0c0 .601-.166 1.158-.434 1.652l-4.718-4.718c.494-.268 1.052-.434 1.652-.434 1.93 0 3.5 1.57 3.5 3.5zm-10.805 1.672c.307 1.34.972 2.542 1.891 3.503-.313.203-.685.324-1.085.324-1.103 0-2-.897-2-2 0-.816.492-1.517 1.195-1.828zm4.805 13.828v2.314c-1.252.444-2.598.686-4 .686s-2.748-.242-4-.686v-2.314c0-2.206 1.794-4 4-4s4 1.794 4 4zm7.922-10.332c.049.438.078.881.078 1.332 0 4.433-2.416 8.311-6 10.389v-1.389c0-3.309-2.691-6-6-6s-6 2.691-6 6v1.389c-3.584-2.078-6-5.956-6-10.389 0-6.617 5.383-12 12-12 .451 0 .894.03 1.332.078-1.351 1.288-2.217 3.072-2.313 5.058-1.73.44-3.018 1.998-3.018 3.864 0 2.206 1.794 4 4 4 1.036 0 1.973-.406 2.684-1.055 1.12.665 2.421 1.055 3.816 1.055 2.132 0 4.055-.899 5.422-2.332z"/></svg>