<svg id="Layer_1" viewBox="0 0 24 24" xmlns="http://www.w3.org/2000/svg" data-name="Layer 1"><path d="m19 0h-14c-2.757 0-5 2.243-5 5v14c0 2.757 2.243 5 5 5h14c2.757 0 5-2.243 5-5v-14c0-2.757-2.243-5-5-5zm3 19c0 1.654-1.346 3-3 3h-14c-1.654 0-3-1.346-3-3v-14c0-1.654 1.346-3 3-3h1c.553 0 1 .447 1 1s-.447 1-1 1h-1c-.552 0-1 .448-1 1v14c0 .552.448 1 1 1h6v-7h-2c-.553 0-1-.447-1-1s.447-1 1-1h6c.553 0 1 .447 1 1s-.447 1-1 1h-2v7h6c.552 0 1-.448 1-1v-14c0-.552-.448-1-1-1h-5c-.552 0-1 .448-1 1v2c0 .553-.447 1-1 1s-1-.447-1-1v-2c0-1.654 1.346-3 3-3h5c1.654 0 3 1.346 3 3z"/></svg>