<svg id="Layer_1" viewBox="0 0 24 24" xmlns="http://www.w3.org/2000/svg" data-name="Layer 1"><path d="m15.994 23.996c-.688 0-1.374-.257-1.898-.771l-2.798-2.76c-.393-.388-.397-1.021-.01-1.414.388-.393 1.021-.397 1.414-.01l2.796 2.758c.274.269.721.27.995-.004l5.803-5.723c.394-.39 1.026-.387 1.414.006.389.393.386 1.025-.006 1.414l-5.803 5.723c-.525.521-1.217.781-1.907.781zm-4.068-.102c-.304.061-.614.106-.937.106h-5.989c-2.761 0-5-2.239-5-5v-14.003c0-2.76 2.237-4.997 4.997-4.997h5.996c2.76 0 4.997 2.237 4.997 4.997v14.478l-1.882-1.857c-1.176-1.163-3.08-1.148-4.244.029-1.16 1.178-1.147 3.08.03 4.241l2.033 2.006zm-2.932-17.894c0 .552.447 1 .999 1h.999c.552 0 .999-.448.999-1s-.447-1-.999-1h-.999c-.552 0-.999.448-.999 1zm0 4c0 .552.447 1 .999 1h.999c.552 0 .999-.448.999-1s-.447-1-.999-1h-.999c-.552 0-.999.448-.999 1zm-1.999 8c0-.552-.447-1-.999-1h-.999c-.552 0-.999.448-.999 1s.447 1 .999 1h.999c.552 0 .999-.448.999-1zm0-4c0-.552-.447-1-.999-1h-.999c-.552 0-.999.448-.999 1s.447 1 .999 1h.999c.552 0 .999-.448.999-1zm0-4c0-.552-.447-1-.999-1h-.999c-.552 0-.999.448-.999 1s.447 1 .999 1h.999c.552 0 .999-.448.999-1zm0-4c0-.552-.447-1-.999-1h-.999c-.552 0-.999.448-.999 1s.447 1 .999 1h.999c.552 0 .999-.448.999-1zm1.999 8c0 .552.447 1 .999 1h.999c.552 0 .999-.448.999-1s-.447-1-.999-1h-.999c-.552 0-.999.448-.999 1z"/></svg>