<svg id="Layer_1" viewBox="0 0 24 24" xmlns="http://www.w3.org/2000/svg" data-name="Layer 1"><path d="m23.194 12.804c.519.519.806 1.21.806 1.944s-.286 1.425-.806 1.945l-5.963 5.964c-.866.866-2.016 1.342-3.241 1.342h-1.074c-.507 0-.917-.41-.917-.917v-1.074c0-1.224.477-2.375 1.343-3.241l5.963-5.964c1.072-1.072 2.816-1.072 3.889 0zm-4.194-6.804h4.627c-.296-.806-.76-1.547-1.385-2.171l-2.07-2.072c-.626-.625-1.367-1.088-2.172-1.384v4.627c0 .551.448 1 1 1zm4.997 2h-4.997c-1.654 0-3-1.346-3-3v-4.997c-.024 0-.047-.003-.071-.003h-4.929c-2.757 0-5 2.243-5 5v2h-1c-1.103 0-2-.897-2-2v-1.277c.595-.346 1-.984 1-1.723 0-1.105-.895-2-2-2s-2 .895-2 2c0 .738.405 1.376 1 1.723v1.277c0 2.206 1.794 4 4 4h1v2h-1c-2.206 0-4 1.794-4 4v1.277c-.595.346-1 .984-1 1.723 0 1.105.895 2 2 2s2-.895 2-2c0-.738-.405-1.376-1-1.723v-1.277c0-1.103.897-2 2-2h1v4c0 2.416 1.724 4.437 4.005 4.899.028-1.716.705-3.327 1.922-4.544l1.355-1.355h-3.282c-.553 0-1-.448-1-1s.447-1 1-1h5.282l2-2h-7.282c-.553 0-1-.448-1-1s.447-1 1-1c0 0 10.787-.011 11.346 0 .933.018 1.859.326 2.654.893z"/></svg>