<svg id="Layer_1" viewBox="0 0 24 24" xmlns="http://www.w3.org/2000/svg" data-name="Layer 1"><path d="m18 7.5c-.828 0-1.5-.672-1.5-1.5s.672-1.5 1.5-1.5 1.5.672 1.5 1.5-.672 1.5-1.5 1.5zm-1 2.5v2c0 .552.447 1 1 1s1-.448 1-1v-2c0-.552-.447-1-1-1s-1 .448-1 1zm1-10c-3.309 0-6 2.691-6 6 0 1.311.415 2.556 1.2 3.601.196.262.497.399.801.399.209 0 .42-.065.6-.201.441-.332.53-.958.199-1.4-.523-.696-.8-1.526-.8-2.4 0-2.206 1.794-4 4-4s4 1.794 4 4c0 .874-.276 1.704-.8 2.399-.331.441-.242 1.068.199 1.4s1.067.243 1.4-.199c.785-1.045 1.2-2.29 1.2-3.601 0-3.309-2.691-6-6-6zm-6.393 17.132c-.306.565-.882.906-1.519.906-.03 0-.061 0-.091-.002-.672-.034-1.25-.442-1.509-1.063l-1.173-2.815-.875 1.378c-.183.289-.502.464-.844.464h-4.049c1.58 2.584 4.117 5.05 6.383 6.95 1.666 1.4 4.098 1.4 5.764 0 2.265-1.9 4.796-4.366 6.372-6.95h-7.846zm-5.83-4.282c.372-.585 1.032-.915 1.723-.854.691.059 1.287.494 1.554 1.134l1.063 2.553.628-1.159c.175-.322.512-.523.879-.523h4.154c-.118-.131-.226-.271-.32-.421-2.887-.969-5.04-3.533-5.401-6.65-1.06-1.185-2.572-1.903-4.2-1.928-3.364.144-5.98 2.981-5.853 6.348 0 .872.205 1.762.547 2.65h4.496z"/></svg>