<svg id="Layer_1" viewBox="0 0 24 24" xmlns="http://www.w3.org/2000/svg" data-name="Layer 1"><path d="m8.5 8.5c0-.828.672-1.5 1.5-1.5s1.5.672 1.5 1.5-.672 1.5-1.5 1.5-1.5-.672-1.5-1.5zm13.5-3.5v14c0 2.757-2.243 5-5 5h-10c-2.757 0-5-2.243-5-5v-14c0-2.757 2.243-5 5-5h10c2.757 0 5 2.243 5 5zm-15 5c0 1.105.895 2 2 2h.5v1c0 .552.448 1 1 1h3c.552 0 1-.448 1-1v-1h.5c1.105 0 2-.895 2-2v-2c0-2.921-2.517-5.265-5.499-4.976-2.598.254-4.501 2.589-4.501 5.199zm7.693 8 2.678-1.071c.513-.205.763-.787.558-1.3-.205-.515-.792-.762-1.3-.558l-4.629 1.852-4.629-1.852c-.508-.205-1.095.043-1.3.558-.205.513.045 1.095.558 1.3l2.678 1.071-2.678 1.071c-.513.205-.763.787-.558 1.3.205.519.801.76 1.3.558l4.629-1.852 4.629 1.852c.499.203 1.095-.039 1.3-.558.205-.513-.045-1.095-.558-1.3zm-.693-8c.828 0 1.5-.672 1.5-1.5s-.672-1.5-1.5-1.5-1.5.672-1.5 1.5.672 1.5 1.5 1.5z"/></svg>