<svg id="Layer_1" viewBox="0 0 24 24" xmlns="http://www.w3.org/2000/svg" data-name="Layer 1"><path d="m21.5 14.5c1.381 0 2.5-1.119 2.5-2.5s-1.119-2.5-2.5-2.5c-.665 0-1.266.264-1.714.688-.265-1.143-.775-2.191-1.472-3.088l1.4-1.4c.391.187.824.3 1.286.3 1.657 0 3-1.343 3-3s-1.343-3-3-3-3 1.343-3 3c0 .462.113.895.3 1.286l-1.4 1.4c-.897-.697-1.944-1.207-3.088-1.472.424-.448.688-1.049.688-1.714 0-1.381-1.119-2.5-2.5-2.5s-2.5 1.119-2.5 2.5c0 .665.264 1.266.688 1.714-1.143.265-2.191.775-3.088 1.472l-1.4-1.4c.187-.391.3-.824.3-1.286 0-1.657-1.343-3-3-3s-3 1.343-3 3 1.343 3 3 3c.462 0 .895-.113 1.286-.3l1.4 1.4c-.697.897-1.207 1.944-1.472 3.088-.448-.424-1.049-.688-1.714-.688-1.381 0-2.5 1.119-2.5 2.5s1.119 2.5 2.5 2.5c.665 0 1.266-.264 1.714-.688.265 1.143.775 2.191 1.472 3.088l-1.4 1.4c-.391-.187-.824-.3-1.286-.3-1.657 0-3 1.343-3 3s1.343 3 3 3 3-1.343 3-3c0-.462-.113-.895-.3-1.286l1.4-1.4c.897.697 1.944 1.207 3.088 1.472-.424.448-.688 1.049-.688 1.714 0 1.381 1.119 2.5 2.5 2.5s2.5-1.119 2.5-2.5c0-.665-.264-1.266-.688-1.714 1.143-.265 2.191-.775 3.088-1.472l1.4 1.4c-.187.391-.3.824-.3 1.286 0 1.657 1.343 3 3 3s3-1.343 3-3-1.343-3-3-3c-.462 0-.895.113-1.286.3l-1.4-1.4c.697-.897 1.207-1.944 1.472-3.088.448.424 1.049.688 1.714.688zm-12.682-.479c-.334.641-1.011 1.082-1.791 1.082-1.086 0-1.967-.881-1.967-1.967l-.008-2.066c0-1.086.881-1.967 1.967-1.967.779 0 1.457.44 1.791 1.082.218.418-.083.918-.557.918h-.016c-.22 0-.43-.117-.525-.315-.12-.249-.383-.428-.681-.433-.402.007-.725.333-.724.736 0 .095.008 1.886.008 2.024 0 .403.322.729.724.736.292-.005.549-.176.673-.417.105-.206.321-.331.552-.331.471 0 .772.5.555.918zm5.234-.885c0 1.086-.881 1.967-1.967 1.967h-1.242c-.425 0-.771-.345-.771-.77l-.006-4.453c0-.425.343-.771.768-.772l1.251-.005c1.086 0 1.967.881 1.967 1.967zm4.5 1.253c0 .394-.32.714-.714.714-.293 0-.557-.179-.664-.452l-.922-2.332v2.184c0 .331-.269.6-.6.6-.331 0-.6-.269-.6-.6v-4.683c0-.396.321-.716.716-.716.292 0 .555.177.664.448l.919 2.278v-2.126c0-.331.269-.6.6-.6s.6.269.6.6v4.686zm-5.755-3.298v2.024c0 .403-.322.729-.724.736-.144-.002-.437-.003-.754-.003.003-.642.001-2.311 0-3.49.317 0 .61 0 .754-.003.402.007.725.333.724.736z"/></svg>