<svg id="Layer_1" viewBox="0 0 24 24" xmlns="http://www.w3.org/2000/svg" data-name="Layer 1"><path d="m12 12c-.552 0-1-.448-1-1v-3c0-.552.448-1 1-1s1 .448 1 1v3c0 .552-.448 1-1 1zm5-2v-2c0-.552-.448-1-1-1s-1 .448-1 1v2c0 .552.448 1 1 1s1-.448 1-1zm-8 0v-2c0-.552-.448-1-1-1s-1 .448-1 1v2c0 .552.448 1 1 1s1-.448 1-1zm12-9c0-.552-.448-1-1-1h-16c-.552 0-1 .448-1 1 0 2.206 1.794 4 4 4h10c2.206 0 4-1.794 4-4zm-20.338 14.345 6.77 7.362c.757.824 1.825 1.292 2.944 1.292h10.623c1.657 0 3-1.343 3-3v-3c0-2.209-1.791-4-4-4h-7.787c-1.374 0-2.46 1.26-2.164 2.685.193.926 1.004 1.598 1.94 1.732l4.162.583c.547.078.927.585.848 1.131-.078.547-.585.926-1.131.848l-4.252-.596c-2.063-.294-3.617-2.087-3.617-4.17 0-.219.032-.429.065-.638l-3.541-3.737c-.455-.5-1.097-.803-1.794-.835-.692-.034-1.363.209-1.878.678-1.052.958-1.138 2.602-.189 3.665z"/></svg>