<svg id="Layer_1" viewBox="0 0 24 24" xmlns="http://www.w3.org/2000/svg" data-name="Layer 1"><path d="m22.149 12.533c-.619-.357-1.403-.057-1.671.606-.243.602-.479 1.325-.479 1.862 0 1.104.897 1.99 2 1.991v.509c0 2.481-2.019 4.5-4.5 4.5-1.997 0-3.717-1.315-4.288-3.183.244-.212.533-.484.834-.817h1.745c.75 0 1.431-.277 1.954-.732.505-.44.214-1.268-.455-1.268h-1.901c.28-.598.494-1.265.575-2h1.827c.75 0 1.431-.277 1.954-.732.505-.44.214-1.268-.455-1.268h-3.289v-2h2c1.49 0 2.776-.828 3.464-2.038 1.416-.238 2.536-1.378 2.536-2.941 0-1.583-.657-3.849-1.196-4.728-.285-.45-.965-.366-1.137.139-.228.673-.586 1.678-1.099 2.576-.216-.261-.405-.51-.555-.709-.31-.411-.925-.394-1.223.027-.411.58-.839 1.609-.785 2.674-.002 0 0 .009-.001.009 0 1.037.532 1.931 1.332 2.469-.355.321-.821.522-1.336.522h-2v-.8c0-1.181-.457-2.214-1-3.037v-2.164c0-.552-.447-1-1-1s-1 .448-1 1v.214c-.634-.251-1.365-.251-2 0v-.215c0-.552-.447-1-1-1s-1 .448-1 1v2.163c-.543.822-1 1.856-1 3.037v.8h-2c-.515 0-.981-.201-1.336-.522.8-.539 1.332-1.43 1.332-2.468-.002 0 0-.011 0-.011.053-1.065-.374-2.094-.785-2.674-.298-.42-.913-.438-1.223-.027-.15.199-.339.448-.555.709-.513-.897-.87-1.903-1.099-2.576-.171-.504-.851-.588-1.137-.139-.54.88-1.197 3.209-1.197 4.709s1.12 2.723 2.536 2.962c.688 1.211 1.975 2.038 3.464 2.038h2v2h-3.274c-.628 0-.976.779-.515 1.206.531.492 1.24.794 2.022.794h1.803c.081.735.295 1.402.575 2h-1.885c-.628 0-.976.779-.515 1.206.531.492 1.24.794 2.022.794h1.721c.529.586 1.028.992 1.295 1.191.757 2.81 3.292 4.809 6.251 4.809 3.584 0 6.5-2.916 6.5-6.5v-2.5c0-.011-.006-.02-.006-.031-.019-1.14-1.006-1.953-1.844-2.436z"/></svg>