<?xml version="1.0" encoding="UTF-8"?>
<svg xmlns="http://www.w3.org/2000/svg" id="Layer_1" data-name="Layer 1" viewBox="0 0 24 24">
  <path d="m13,18.5v2c0,1.995-2.794,3.5-6.5,3.5s-6.5-1.505-6.5-3.5v-2c0,1.971,2.708,3.5,6.5,3.5s6.5-1.529,6.5-3.5Zm-6.5-.5c-3.792,0-6.5-1.529-6.5-3.5v2c0,1.995,2.794,3.5,6.5,3.5s6.5-1.505,6.5-3.5v-2c0,1.971-2.708,3.5-6.5,3.5Zm0-4c-3.792,0-6.5-1.529-6.5-3.5v2c0,1.995,2.794,3.5,6.5,3.5s6.5-1.505,6.5-3.5v-2c0,1.971-2.708,3.5-6.5,3.5Zm5.909-6.994c.372.457.591.962.591,1.494,0,2.298-3.27,3.5-6.5,3.5S0,10.798,0,8.5c0-.532.219-1.038.591-1.494-.055-.328-.091-.662-.091-1.006C.5,2.686,3.186,0,6.5,0s6,2.686,6,6c0,.344-.035.678-.091,1.006Zm-4.352-1.511l-2.792-.559c-.304-.061-.514-.36-.449-.678.055-.272.309-.458.587-.458h2.102c.203,0,.461.087.589.226.154.167.361.274.588.274h.076c.654,0,1.01-.763.592-1.266-.422-.509-1.059-.833-1.77-.833h-.274v-.4c0-.442-.358-.8-.8-.8s-.8.358-.8.8v.4h-.28c-1.091,0-2.046.786-2.199,1.866-.163,1.158.613,2.216,1.725,2.439l2.791.559c.304.062.514.359.451.677-.054.273-.308.46-.586.46h-2.239c-.203,0-.387-.087-.515-.226-.154-.167-.361-.274-.588-.274-.703,0-1.067.836-.591,1.354.421.458,1.024.745,1.694.745h.336v.4c0,.442.358.8.8.8s.8-.358.8-.8v-.4h.28c1.091,0,2.046-.785,2.199-1.865.164-1.158-.613-2.217-1.725-2.439Zm15.65,13.679c-.391-.391-1.023-.391-1.414,0l-2.293,2.293V1c0-.552-.447-1-1-1s-1,.448-1,1v20.367l-2.293-2.293c-.391-.391-1.023-.391-1.414,0s-.391,1.023,0,1.414l2.636,2.636c.585.584,1.354.876,2.121.876s1.537-.292,2.122-.877l2.535-2.535c.391-.391.391-1.023,0-1.414Z"/>
</svg>
