<svg id="Layer_1" viewBox="0 0 24 24" xmlns="http://www.w3.org/2000/svg" data-name="Layer 1"><path d="m23.743 21.565c.369.411.335 1.043-.075 1.412-.734.66-1.682 1.023-2.668 1.023-1.128 0-2.222-.472-3-1.225-.779.753-1.873 1.225-3 1.225s-2.222-.472-3-1.225c-.779.753-1.873 1.225-3 1.225s-2.222-.472-3-1.225c-.779.753-1.873 1.225-3 1.225-.986 0-1.934-.363-2.668-1.022-.411-.369-.445-1.001-.076-1.412s1-.446 1.412-.076c.367.33.84.511 1.332.511.889 0 1.793-.586 2.057-1.333.142-.399.519-.667.943-.667s.802.267.943.667c.264.748 1.167 1.333 2.057 1.333s1.793-.586 2.057-1.333c.142-.399.519-.667.943-.667s.802.267.943.667c.264.748 1.167 1.333 2.057 1.333s1.793-.586 2.057-1.333c.142-.399.519-.667.943-.667s.802.267.943.667c.264.748 1.167 1.333 2.057 1.333.493 0 .965-.181 1.332-.51.411-.37 1.043-.335 1.412.075zm-20.743-3.565c1.127 0 2.221-.472 3-1.225.778.753 1.872 1.225 3 1.225s2.221-.472 3-1.225c.778.753 1.872 1.225 3 1.225s2.221-.472 3-1.225c.778.753 1.872 1.225 3 1.225.987 0 1.935-.363 2.668-1.023.411-.369.444-1.001.075-1.412-.369-.41-1.001-.445-1.412-.075-.366.329-.839.51-1.332.51-.89 0-1.793-.585-2.057-1.333-.141-.4-.519-.667-.943-.667s-.801.267-.943.667c-.264.748-1.168 1.333-2.057 1.333s-1.793-.585-2.057-1.333c-.141-.4-.519-.667-.943-.667s-.801.267-.943.667c-.264.748-1.168 1.333-2.057 1.333s-1.793-.585-2.057-1.333c-.141-.4-.519-.667-.943-.667s-.801.267-.943.667c-.264.748-1.168 1.333-2.057 1.333-.493 0-.966-.181-1.332-.511-.412-.369-1.043-.335-1.412.076s-.335 1.043.076 1.412c.734.659 1.682 1.022 2.668 1.022zm9.393-6.916c-.266.301-.511.616-.738.942.114-.013.228-.026.344-.026 1.239 0 2.353.767 2.797 1.917.098.077.295.086.405 0 .446-1.151 1.56-1.917 2.797-1.917s2.353.767 2.797 1.917c.051.04.146.083.203.083.073-.066.157-.116.236-.175.49-1.179.764-2.471.764-3.825 0-.367-.023-.728-.061-1.085-1.458 1.066-3.123 1.801-4.873 2.152-1.524.306-3.109.308-4.672.017zm-5.869.967c.892.159 1.668.715 2.104 1.512.522-1.381 1.277-2.678 2.279-3.81-.243-.978-.625-1.899-1.127-2.749-1.345 1.378-2.433 3.093-3.256 5.048zm14.919-5.313c-1.302-3.757-4.778-6.495-8.919-6.711 2.279 2.26 4.39 5.307 5.248 8.785 1.342-.426 2.59-1.13 3.67-2.074zm-8.639 2.385c1.005.182 2.016.214 3.011.1-.941-3.708-3.583-6.937-6.013-8.971-1.063.24-2.06.652-2.966 1.202 2.937 1.624 5.11 4.39 5.968 7.669zm-9.802 4.877c.051 0 .147-.041.2-.083.19-.49.506-.904.896-1.225.864-2.548 2.242-5.114 4.427-7.28.023-.023.053-.031.077-.051-.969-1.086-2.172-1.955-3.528-2.557-1.891 1.82-3.074 4.371-3.074 7.196 0 1.363.285 2.657.784 3.841.072.054.15.098.218.159z"/></svg>