<svg id="Layer_1" viewBox="0 0 24 24" xmlns="http://www.w3.org/2000/svg" data-name="Layer 1"><path d="m15.48.519c3.822 1.161 6.84 4.179 8.001 8.001-.749.315-1.544.48-2.367.48-3.371 0-6.114-2.743-6.114-6.115 0-.822.164-1.617.48-2.367zm4.615 16.481c-7.221 0-13.095-5.875-13.095-13.095 0-1.01.124-2 .348-2.966-1.125.475-2.159 1.12-3.079 1.897-.174.901-.272 1.819-.272 2.747 0 7.949 6.488 14.416 14.463 14.416.91 0 1.81-.094 2.695-.26.781-.922 1.429-1.959 1.905-3.088-.966.224-1.955.347-2.966.347zm-11.095-13.095c0 6.118 4.978 11.095 11.095 11.095 1.266 0 2.494-.219 3.668-.632.154-.766.237-1.557.237-2.368 0-.509-.042-1.007-.104-1.5-.89.325-1.822.5-2.782.5-4.475 0-8.114-3.64-8.114-8.115 0-.96.175-1.892.5-2.781-.493-.062-.991-.104-1.5-.104-.811 0-1.602.083-2.368.237-.413 1.174-.632 2.402-.632 3.668zm9.46 18.095c-9.143.008-16.6-7.504-16.455-16.627-1.264 1.901-2.005 4.178-2.005 6.627 0 6.617 5.383 12 12 12 2.45 0 4.728-.741 6.629-2.006-.057 0-.113.006-.169.006z"/></svg>