<?xml version="1.0" encoding="UTF-8"?>
<svg xmlns="http://www.w3.org/2000/svg" id="Layer_1" data-name="Layer 1" viewBox="0 0 24 24">
  <path d="M6,6h-2C1.794,6,0,7.794,0,10v3c0,1.474,.81,2.75,2,3.444v6.556c0,.553,.448,1,1,1s1-.447,1-1v-6h2v6c0,.553,.448,1,1,1s1-.447,1-1v-6.556c1.19-.694,2-1.97,2-3.444v-3c0-2.206-1.794-4-4-4Zm-2-3.5c0-1.381,1.119-2.5,2.5-2.5s2.5,1.119,2.5,2.5-1.119,2.5-2.5,2.5-2.5-1.119-2.5-2.5Zm7-.5c0-.553,.448-1,1-1h2c.552,0,1,.447,1,1s-.448,1-1,1h-2c-.552,0-1-.447-1-1Zm-.85,2.878c.291-.47,.907-.615,1.376-.324l1.779,1.102c.47,.291,.615,.907,.324,1.377-.292,.473-.914,.612-1.376,.324l-1.779-1.102c-.47-.291-.615-.907-.324-1.377Zm13.652,12.599l-2.261,4.981c-.545,1.297-2.038,1.881-3.285,1.345-.482-.189-.81-.564-1.153-.921l-3.316-4.737-1.845,5.191c-.185,.526-.77,.79-1.277,.607-.521-.186-.792-.757-.607-1.277l1.942-5.459c.274-.661,.817-1.085,1.472-1.185,.652-.1,1.3,.145,1.725,.654l2.069,2.953,1.924-4.084c.545-1.288,2.016-1.887,3.285-1.346,1.27,.538,1.865,2.009,1.327,3.277Zm-7.712-6.976c0-1.381,1.119-2.5,2.5-2.5s2.5,1.119,2.5,2.5-1.119,2.5-2.5,2.5-2.5-1.119-2.5-2.5Z"/>
</svg>
