<svg id="Layer_1" viewBox="0 0 24 24" xmlns="http://www.w3.org/2000/svg" data-name="Layer 1"><path d="m14.729 4.608-4.798 4.798c-.11-.729-.397-1.423-.884-1.995-.212-.249-.455-.461-.715-.648l4.276-4.276c.586-.586 1.536-.586 2.121 0 .586.586.586 1.536 0 2.121zm-3.568 9.225 1.743-1.743c.586-.586.586-1.536 0-2.121-.586-.586-1.536-.586-2.121 0l-1.743 1.743c-.586.586-.586 1.536 0 2.121.586.586 1.536.586 2.121 0zm.707 2.828c.586.586 1.536.586 2.121 0l1.743-1.743c.586-.586.586-1.536 0-2.121-.586-.586-1.536-.586-2.121 0l-1.743 1.743c-.586.586-.586 1.536 0 2.121zm9.692-4.283c-.586-.586-1.536-.586-2.121 0l-5.594 5.677c-.93.944-2.45.953-3.391.019-.526-.526-.844-1.18-.965-1.862-.702-.123-1.349-.451-1.863-.966-.365-.364-.62-.793-.79-1.247h-1.836c-.552 0-1-.448-1-1 0-.552.448-1 1-1h.893c.996 0 1.92-.681 2.08-1.664.204-1.253-.758-2.336-1.973-2.336h-1c-2.761 0-5 2.239-5 5v6c0 2.761 2.239 5 5 5h3.905c2.153 0 4.215-.868 5.72-2.407l6.936-7.093c.586-.586.586-1.536 0-2.121z"/><path d="m19.556 6h-1.735c-.55 0-.944-.531-.785-1.058l1.884-4.344c.124-.358.461-.599.84-.599h1.862c.624 0 1.053.625.83 1.208l-.85 1.792h1.592c.642 0 1.025.715.67 1.249l-4.11 4.413c-.703.753-1.862.137-1.383-.652l1.184-2.01z"/></svg>