<svg id="Layer_1" viewBox="0 0 24 24" xmlns="http://www.w3.org/2000/svg" data-name="Layer 1"><path d="m12 13.22v3.06c0 .398-.322.72-.72.72h-3.06c-.291 0-.554-.175-.665-.444-.112-.269-.05-.579.156-.785l.842-.842c-.705-.585-1.6-.929-2.553-.929-1.591 0-3.03.942-3.667 2.4-.222.507-.811.738-1.317.516-.506-.221-.737-.811-.516-1.316.956-2.187 3.115-3.6 5.5-3.6 1.494 0 2.899.555 3.976 1.506l.795-.795c.206-.206.515-.267.785-.156.269.111.444.374.444.665zm-1.016 5.864c-.506-.223-1.095.009-1.317.516-.637 1.458-2.077 2.4-3.667 2.4-.953 0-1.848-.344-2.553-.929l.842-.842c.206-.206.268-.515.156-.785-.111-.269-.374-.444-.665-.444h-3.06c-.398 0-.72.322-.72.72v3.06c0 .291.175.554.444.665.27.111.579.05.785-.156l.795-.795c1.076.951 2.481 1.506 3.976 1.506 2.386 0 4.545-1.413 5.5-3.6.221-.506-.01-1.096-.516-1.316zm13.016-12.084v10c0 1.657-1.343 3-3 3h-7.262c.165-.64.262-1.308.262-2v-5c0-1.657-1.343-3-3-3h-5c-2.393 0-4.534 1.056-6 2.721v-7.721c0-2.761 2.239-5 5-5h18c.553 0 1 .448 1 1s-.447 1-1 1h-18c-.887 0-1.686.387-2.235 1.001.563.627 1.376.999 2.235.999h16c1.657 0 3 1.343 3 3zm-3 5c0-.828-.672-1.5-1.5-1.5s-1.5.672-1.5 1.5.672 1.5 1.5 1.5 1.5-.672 1.5-1.5z"/></svg>