<?xml version="1.0" encoding="UTF-8"?>
<svg xmlns="http://www.w3.org/2000/svg" id="Layer_1" data-name="Layer 1" viewBox="0 0 24 24">
  <path d="m0,8v7c0,2.209,1.791,4,4,4h7.189c-.12-.511-.19-1.051-.19-1.623v-3.547c0-1.939,1.243-3.661,3.084-4.271l4.416-1.558H0Zm5.5,4c.828,0,1.5.672,1.5,1.5s-.672,1.5-1.5,1.5-1.5-.672-1.5-1.5.672-1.5,1.5-1.5Zm18.5-7v1H0v-1C0,2.791,1.791,1,4,1h16c2.209,0,4,1.791,4,4Zm-5.499,19c-.36,0-.648-.206-.648-.206-1.138-.569-4.853-2.704-4.853-6.272v-3.187c0-1.295.826-2.439,2.056-2.848h0l2.5-.829c.609-.201,1.28-.201,1.888,0l2.501.829c1.229.408,2.056,1.552,2.056,2.848v3.187c0,4.031-3.763,5.858-4.917,6.322,0,0-.222.156-.582.156Z"/>
</svg>
