<svg id="Layer_1" viewBox="0 0 24 24" xmlns="http://www.w3.org/2000/svg" data-name="Layer 1"><path d="m12 6c-4.971 0-9 4.029-9 9s4.029 9 9 9 9-4.029 9-9-4.029-9-9-9zm2.707 11.707c-.195.195-.451.293-.707.293s-.512-.098-.707-.293l-2-2c-.188-.188-.293-.441-.293-.707v-4c0-.552.447-1 1-1s1 .448 1 1v3.586l1.707 1.707c.391.391.391 1.023 0 1.414zm-8.707-11.915v-4.77c0-.395.222-.742.58-.908.329-.149.718-.128.972.054.042.03 1.738 2.29 1.738 2.29l1.631-1.964c.607-.607 1.539-.621 2.105-.06l1.712 2.021 1.468-2.061c.29-.355.729-.479 1.13-.336.404.146.664.515.664.942v4.792c-1.727-1.13-3.786-1.792-6-1.792s-4.273.663-6 1.792z"/></svg>