<svg id="Layer_1" viewBox="0 0 24 24" xmlns="http://www.w3.org/2000/svg" data-name="Layer 1"><path d="m21.414 23.414c-.391.391-.902.586-1.414.586s-1.024-.195-1.414-.586c-.781-.781-.781-2.047 0-2.828l.689-.79c.403-.394 1.048-.394 1.451 0l.689.79c.781.781.781 2.047 0 2.828zm-16.414-6.414v-3c0-1.103.897-2 2-2h7v-.5c0-1.565-.748-3.061-2-4l-1.017-.763c-.114-.884-.801-1.737-1.983-1.737h-4c-1.182 0-1.869.854-1.983 1.737l-1.017.763c-1.252.939-2 2.435-2 4v7.5c0 2.757 2.243 5 5 5h4c2.757 0 5-2.243 5-5h-7c-1.103 0-2-.897-2-2zm2 0h7v-3h-7zm16.326-10.118c.417.15.674.57.674 1.014 0 .61-.494 1.104-1.104 1.104h-.896v5.462c-.003.733-.385 1.379-1 1.723v.815c0 .552-.448 1-1 1-.552 0-1-.448-1-1v-.815c-.595-.346-1-.984-1-1.723v-5.462h-.896c-.61 0-1.104-.494-1.104-1.104 0-.443.257-.863.674-1.014.771-.278 1.326-1.019 1.326-1.882v-3c0-1.105.896-2 2-2 1.105 0 2 .895 2 2v3c0 .864.555 1.604 1.326 1.882z"/></svg>