<svg id="Layer_1" viewBox="0 0 24 24" xmlns="http://www.w3.org/2000/svg" data-name="Layer 1"><path d="m23.892 5.45-3.149 6.239.884.476c1.011.542 1.553 1.705 1.316 2.827-.304 1.438-.936 2.887-1.877 4.303-.675 1.021-1.975 1.412-3.095.989-.21-.078-.419-.171-.629-.257.462-1.069 1.036-2.979 1.202-4.108.053-.362-.395-.569-.656-.313-1.235 1.211-2.665 2.5-3.416 3.019-.477-.276-.942-.56-1.375-.858-.615-.423-1.017-1.089-1.101-1.827-.085-.743.158-1.487.666-2.042.809-.885 1.52-1.796 2.112-2.709.744-1.146 2.208-1.524 3.407-.88l.8.431 3.125-6.191c.249-.492.851-.69 1.343-.442.493.249.691.851.442 1.343zm-12.705 7.098c.23-.251.434-.507.645-.761-.117-.019-.232-.052-.339-.115l-.659-.38c-.5.503-1.126.882-1.835 1.066v.642c0 .553-.447 1-1 1s-1-.447-1-1v-.642c-.708-.184-1.334-.563-1.835-1.066l-.659.38c-.47.273-1.088.117-1.366-.366-.276-.479-.112-1.09.366-1.366l.657-.379c-.181-.653-.229-1.401-.018-2.13l-.641-.37c-.479-.276-.643-.888-.366-1.366.276-.479.888-.643 1.366-.366l.632.365c.505-.512 1.149-.906 1.864-1.065v-.627c0-.553.447-1 1-1s1 .447 1 1v.627c.714.159 1.359.553 1.864 1.065l.632-.365c.477-.276 1.089-.113 1.366.366.276.479.112 1.09-.366 1.366l-.641.37c.211.73.163 1.477-.018 2.13l.657.379c.187.108.309.275.393.457.067-.099.148-.197.212-.296.696-1.072 1.749-1.763 2.902-2.008v-3.093c0-2.757-2.243-5-5-5h-6c-2.757 0-5 2.243-5 5v11h10.009c-.097-1.26.318-2.511 1.179-3.452zm4.182 8.833c-.85 1.552-2.479 2.619-4.369 2.619h-6c-2.757 0-5-2.243-5-5v-1h10.632c.333.555.793 1.029 1.331 1.415 1.459 1.046 3.405 1.966 3.405 1.966zm-5.369-.381c0-.553-.447-1-1-1h-2c-.553 0-1 .447-1 1s.447 1 1 1h2c.553 0 1-.447 1-1zm-3.5-12.5c0 .827.673 1.5 1.5 1.5s1.5-.673 1.5-1.5-.673-1.5-1.5-1.5-1.5.673-1.5 1.5z"/></svg>