<svg id="Layer_1" viewBox="0 0 24 24" xmlns="http://www.w3.org/2000/svg" data-name="Layer 1"><path d="m12 0c-6.617 0-12 5.383-12 12s5.383 12 12 12 12-5.383 12-12-5.383-12-12-12zm1 21.949v-.949c0-.552-.447-1-1-1s-1 .448-1 1v.949c-4.717-.471-8.479-4.232-8.949-8.949h.949c.553 0 1-.448 1-1s-.447-1-1-1h-.949c.47-4.717 4.232-8.479 8.949-8.949v.949c0 .552.447 1 1 1s1-.448 1-1v-.949c4.717.471 8.479 4.232 8.949 8.949h-.949c-.553 0-1 .448-1 1s.447 1 1 1h.949c-.471 4.717-4.232 8.479-8.949 8.949zm3.955-11.868c.015.111.04.219.04.333v2.958c0 .908-.488 1.745-1.281 2.186-.044.019-2.774 1.564-2.718 1.473l.004-4.689 3.956-2.261zm-1.044-1.707-3.909 2.234-3.912-2.235c.062-.043 2.674-1.549 2.674-1.549.374-.211.799-.325 1.229-.325.502 0 .854.11 1.231.322 0 0 2.624 1.51 2.687 1.553zm-8.866 1.705 3.95 2.26-.004 4.677c-.052.031-2.628-1.474-2.732-1.527-.777-.445-1.26-1.276-1.26-2.17v-2.906c0-.114.03-.223.045-.334z"/></svg>