<svg id="Layer_1" viewBox="0 0 24 24" xmlns="http://www.w3.org/2000/svg" data-name="Layer 1"><path d="m7.649 13.956.641 3.044h-1.688l.686-3.104c.03-.149.105-.253.176-.296l.017.006c.024.016.121.118.168.349zm7.351-5.956h6.54c-.347-.913-.88-1.753-1.591-2.464l-3.484-3.486c-.712-.711-1.552-1.244-2.465-1.59v6.54c0 .551.448 1 1 1zm7 2.485v8.515c0 2.757-2.243 5-5 5h-10c-2.757 0-5-2.243-5-5v-14c0-2.757 2.243-5 5-5h4.515c.163 0 .324.013.485.024v6.976c0 1.654 1.346 3 3 3h6.976c.011.161.024.322.024.485zm-11.643 8.576-1.142-5.435c-.19-.937-.859-1.621-1.753-1.627-.873-.001-1.575.717-1.742 1.581l-1.165 5.479c-.103.484.266.939.76.939.365 0 .68-.254.759-.61l.175-.79h2.379l.165.782c.076.36.393.617.761.617.509.026.911-.437.804-.937zm5.75-6.112c.09-.495-.29-.95-.793-.95-.39 0-.724.28-.793.664l-.984 5.482-1.007-5.488c-.07-.38-.402-.657-.788-.657-.5 0-.878.454-.788.946l1.037 5.637c.103.58.61 1.416 1.546 1.416s1.435-.794 1.555-1.462zm2.893-.15c0-.442-.358-.8-.8-.8s-.8.358-.8.8v6.4c0 .442.358.8.8.8s.8-.358.8-.8z"/></svg>