<?xml version="1.0" encoding="UTF-8"?>
<svg xmlns="http://www.w3.org/2000/svg" id="Layer_1" data-name="Layer 1" viewBox="0 0 24 24">
  <path d="m24,2v4c0,.553-.447,1-1,1s-1-.447-1-1v-2.586l-3.293,3.293c-.195.195-.451.293-.707.293s-.512-.098-.707-.293c-.391-.391-.391-1.023,0-1.414l3.293-3.293h-2.586c-.553,0-1-.447-1-1s.447-1,1-1h4c1.103,0,2,.897,2,2Zm-3.398,5.641c.888,1.587,1.398,3.412,1.398,5.359,0,6.075-4.925,11-11,11S0,19.075,0,13,4.925,2,11,2c1.947,0,3.773.511,5.359,1.398l-.481.481c-1.17,1.17-1.17,3.072,0,4.242.566.566,1.32.879,2.121.879s1.555-.312,2.121-.879l.481-.481Zm-5.602,7.359c0-1.359-.974-2.51-2.315-2.733l-3.04-.506c-.374-.062-.645-.382-.645-.761,0-.552.448-1,1-1h2.268c.356,0,.688.191.867.501.275.478.886.643,1.366.364.478-.276.642-.888.364-1.366-.534-.925-1.53-1.499-2.598-1.499h-.268v-1c0-.553-.447-1-1-1s-1,.447-1,1v1c-1.654,0-3,1.346-3,3,0,1.359.974,2.51,2.315,2.733l3.04.506c.374.062.645.382.645.761,0,.552-.448,1-1,1h-2.268c-.356,0-.688-.191-.867-.501-.275-.479-.887-.645-1.366-.364-.478.276-.642.888-.364,1.366.534.925,1.53,1.499,2.598,1.499h.268v1c0,.553.447,1,1,1s1-.447,1-1v-1c1.654,0,3-1.346,3-3Z"/>
</svg>
