<svg id="Layer_1" viewBox="0 0 24 24" xmlns="http://www.w3.org/2000/svg" data-name="Layer 1"><path d="m2.7 13h.3v9h-.3c-1.489 0-2.7-1.211-2.7-2.7v-3.6c0-1.489 1.211-2.7 2.7-2.7zm16.3.625-1-.625v-1h2c1.657 0 3-1.343 3-3v-4c0-1.657-1.343-3-3-3h-2.2v1.2h.405c.711 0 1.348.324 1.77.833.5.603-.107 1.576-1.009 1.17-.095-.043-.18-.106-.251-.182-.128-.136-.31-.222-.511-.222h-2.307c-.278 0-.532.186-.587.458-.064.318.146.617.449.678l2.792.559c1.183.236 1.986 1.419 1.683 2.66-.238.977-1.144 1.645-2.149 1.645h-.286v.401c0 .442-.358.8-.8.8s-.8-.358-.8-.8v-.401h-.431c-.711 0-1.348-.325-1.77-.833-.5-.603.107-1.576 1.009-1.17.095.043.18.106.251.182.128.136.31.222.511.222h2.334c.278 0 .532-.187.586-.46.063-.318-.146-.615-.451-.677l-2.791-.559c-1.182-.237-1.985-1.418-1.683-2.659.238-.977 1.143-1.646 2.149-1.646h.287v-1.2h-2.2c-1.657 0-3 1.343-3 3v4c0 1.657 1.343 3 3 3h2v3h-2.299c-.812 0-1.573.36-2.088.988s-.719 1.444-.56 2.241l.575 2.877c.336 1.677 1.821 2.894 3.53 2.894h3.841v-10.374zm2.3 1.375h-.3v9h.3c1.489 0 2.7-1.211 2.7-2.7v-3.6c0-1.489-1.211-2.7-2.7-2.7zm-11.632 6.499-.576-2.877c-.277-1.387.078-2.809.974-3.901.452-.552 1.014-.985 1.64-1.278-.418-.283-.89-.448-1.407-.442h-2.299v-3h1.113c-.066-.325-.113-.656-.113-1v-4.001c0-1.94 1.122-3.607 2.741-4.435-.492-.352-1.09-.565-1.741-.565h-6c-1.657 0-3 1.343-3 3v4c0 1.657 1.343 3 3 3h2v1l-1 .625v10.375h3.841c.323 0 .633-.056.933-.138-.033-.122-.082-.238-.107-.363z"/></svg>