<svg id="Layer_1" viewBox="0 0 24 24" xmlns="http://www.w3.org/2000/svg" data-name="Layer 1"><path d="m15 11h-6c-1.103 0-2 .897-2 2v3c0 1.103.897 2 2 2h6c1.103 0 2-.897 2-2v-3c0-1.103-.897-2-2-2zm-5.5 5c-.828 0-1.5-.672-1.5-1.5s.672-1.5 1.5-1.5 1.5.672 1.5 1.5-.672 1.5-1.5 1.5zm5 0c-.828 0-1.5-.672-1.5-1.5s.672-1.5 1.5-1.5 1.5.672 1.5 1.5-.672 1.5-1.5 1.5zm7.297-10.421-7-4.724c-1.699-1.146-3.895-1.146-5.594 0l-6.999 4.724c-1.38.931-2.204 2.479-2.204 4.145v9.276c0 2.757 2.243 5 5 5h14c2.757 0 5-2.243 5-5v-9.276c0-1.665-.824-3.214-2.203-4.145zm-1.797 10.421c.008.585-.55 1.108-1.134.973-.438 1.735-1.998 3.027-3.866 3.027h-6c-1.868 0-3.429-1.292-3.866-3.027-.583.135-1.141-.388-1.134-.973v-3c-.008-.585.55-1.108 1.134-.973.438-1.734 1.998-3.027 3.866-3.027h2v-1c0-.553.448-1 1-1s1 .447 1 1v1h2c1.868 0 3.429 1.292 3.866 3.027.583-.135 1.141.388 1.134.973z"/></svg>