<svg id="Layer_1" viewBox="0 0 24 24" xmlns="http://www.w3.org/2000/svg" data-name="Layer 1"><path d="m12-.007c-6.619 0-11.999 5.387-11.999 12.007v6.003c-.048 2.367 1.234 4.296 2.595 4.945.793.473 1.419.847 2.883 1.01 2.012.226 3.867-.674 4.829-2.145.269-.401.854-.781 1.692-.808.929.033 1.428.438 1.768.903.877 1.262 2.413 2.085 4.136 2.085 1.414.01 2.716-.514 3.497-1.045 1.362-.646 2.646-2.58 2.597-4.945v-6.003c.001-6.62-5.382-12.007-11.998-12.007zm10 16.302c-1.062-.652-2.559-1.294-4.334-1.294-1.365 0-2.656.574-3.545 1.574-.209.235-.388.488-.54.752-.12.251-.903.676-1.581.676-.664 0-1.444-.423-1.581-.676-.152-.264-.331-.516-.54-.752-.888-1.001-2.18-1.574-3.545-1.574-1.775 0-3.272.641-4.334 1.294v-4.295c0-5.517 4.486-10.006 10-10.006s10 4.488 10 10.006z"/></svg>