<svg id="Layer_1" viewBox="0 0 24 24" xmlns="http://www.w3.org/2000/svg" data-name="Layer 1"><path d="m20 15s1 0 1-1v-4.086c0-.53-.211-1.039-.586-1.414l-1.414-1.414v-2.086c0-2.761-2.239-5-5-5h-6c-2.761 0-5 2.239-5 5v14c0 2.761 2.239 5 5 5h8c2.454 0 4.495-1.768 4.919-4.1.097-.534-.101-1.081-.484-1.465l-1.142-1.142c-.188-.188-.293-.442-.293-.707v-.586c0-.552.448-1 1-1zm-11-8c0 .552-.448 1-1 1s-1-.448-1-1v-2c0-.552.448-1 1-1s1 .448 1 1zm3 0c0 .552-.448 1-1 1s-1-.448-1-1v-2c0-.552.448-1 1-1s1 .448 1 1zm3 0c0 .552-.448 1-1 1s-1-.448-1-1v-2c0-.552.448-1 1-1s1 .448 1 1z"/></svg>