<?xml version="1.0" encoding="UTF-8"?>
<svg xmlns="http://www.w3.org/2000/svg" id="Layer_1" data-name="Layer 1" viewBox="0 0 24 24">
  <path d="M23.668,22.977c-.733,.66-1.681,1.023-2.668,1.023-1.128,0-2.222-.472-3-1.225-.778,.753-1.872,1.225-3,1.225s-2.222-.472-3-1.225c-.778,.753-1.872,1.225-3,1.225s-2.222-.472-3-1.225c-.778,.753-1.872,1.225-3,1.225-.987,0-1.935-.363-2.668-1.023-.411-.369-.445-1.001-.076-1.412,.371-.41,1.003-.444,1.412-.075,.366,.329,.84,.51,1.332,.51,.889,0,1.793-.586,2.058-1.333,.141-.399,.519-.667,.942-.667s.802,.267,.942,.667c.265,.748,1.169,1.333,2.058,1.333s1.793-.586,2.058-1.333c.141-.399,.519-.667,.942-.667s.802,.267,.942,.667c.265,.748,1.169,1.333,2.058,1.333s1.793-.586,2.058-1.333c.141-.399,.519-.667,.942-.667s.802,.267,.942,.667c.265,.748,1.169,1.333,2.058,1.333,.492,0,.966-.181,1.332-.51,.409-.37,1.04-.336,1.412,.075,.369,.411,.335,1.043-.076,1.412ZM2.062,17.317c-.149-.836,.074-1.684,.613-2.328,.505-.603,1.24-.951,2.024-.979l1.883-8.286c.365-1.604,1.769-2.724,3.413-2.724h.005v-1c0-1.105,.895-2,2-2s2,.895,2,2v1h.005c1.645,0,3.048,1.12,3.413,2.724l1.883,8.286c.742,.025,1.42,.331,1.916,.883,.559,.622,.825,1.48,.731,2.354-.087,.808-.501,1.784-.987,2.743-.054-.012-.121-.04-.164-.074-.444-1.15-1.558-1.916-2.797-1.916s-2.354,.768-2.797,1.917c-.107,.084-.301,.083-.406,0-.444-1.15-1.558-1.916-2.797-1.916s-2.354,.768-2.797,1.917c-.107,.084-.301,.083-.406,0-.444-1.15-1.558-1.916-2.797-1.916s-2.354,.768-2.797,1.917c-.012,.009-.03,.017-.045,.026-.503-.915-.959-1.859-1.097-2.626Zm4.759-3.612l3.835-4.261-2.288-2.543-1.546,6.803Zm7.935,.295l-2.755-3.061-2.755,3.061h5.51Zm-1.41-4.556l3.835,4.261-1.546-6.803-2.288,2.543Zm-3.35-4.444c-.195,0-.378,.044-.55,.111l2.555,2.839,2.555-2.839c-.172-.068-.355-.111-.55-.111h-4.01Z"/>
</svg>
