<svg id="Layer_1" viewBox="0 0 24 24" xmlns="http://www.w3.org/2000/svg" data-name="Layer 1"><path d="m24 19c0 .553-.447 1-1 1v1c0 .553-.447 1-1 1s-1-.447-1-1v-4c0-.553.447-1 1-1s1 .447 1 1v1c.553 0 1 .447 1 1zm-16-3c-.553 0-1 .447-1 1v1c-.553 0-1 .447-1 1s.447 1 1 1v1c0 .553.447 1 1 1s1-.447 1-1v-4c0-.553-.447-1-1-1zm11-2c-.553 0-1 .447-1 1v3h-6v-3c0-.553-.447-1-1-1s-1 .447-1 1v8c0 .553.447 1 1 1s1-.447 1-1v-3h6v3c0 .553.447 1 1 1s1-.447 1-1v-8c0-.553-.447-1-1-1zm1-4c0 .726-.082 1.432-.228 2.113-.248-.066-.503-.113-.772-.113-1.654 0-3 1.346-3 3v1h-2v-1c0-1.654-1.346-3-3-3-1.309 0-2.412.847-2.821 2.018-.06-.004-.117-.018-.179-.018-1.572 0-2.866 1.216-2.99 2.757-.4.355-.69.823-.855 1.345-2.514-1.817-4.155-4.764-4.155-8.102 0-5.523 4.477-10 10-10s10 4.477 10 10zm-9-4c0-.553-.447-1-1-1s-1 .447-1 1v3h-2c-.553 0-1 .447-1 1s.447 1 1 1h3c.553 0 1-.447 1-1z"/></svg>