<svg id="Layer_1" viewBox="0 0 24 24" xmlns="http://www.w3.org/2000/svg" data-name="Layer 1"><path d="m23.032 6.514c-1.002-1.516-2.639-2.703-4.953-3.608-.634-.288-1.243-.631-1.886-.994-.595-.335-1.21-.682-1.855-.986-1.982-.938-4.019-1.165-6.058-.674-1.876.452-3.46 1.491-4.48 2.953-.444.682-.724 1.397-.996 2.089-.722 2.13-2.985 3.956-2.792 6.163 0 1.132.466 2.216.876 3.173.185.431.36.839.479 1.214.16.505.205 1.071.252 1.671.051.647.103 1.315.303 1.999.47 1.618 1.571 2.822 3.098 3.392 1.14.425 2.401.267 3.513.13.504-.062.98-.122 1.39-.122 1.042 0 1.98.259 2.972.534.987.273 1.991.551 3.054.551.87 0 1.779-.186 2.748-.713 1.741-.815 2.779-2.593 2.84-4.79.1-.833.259-1.918.614-2.926.184-.525.423-1.037.676-1.578.158-.341.316-.681.463-1.027 1.029-2.43.939-4.661-.258-6.452zm-16.526 6.467c-.828 0-1.5-.672-1.5-1.5s.672-1.5 1.5-1.5 1.5.672 1.5 1.5-.672 1.5-1.5 1.5zm3 5c-.828 0-1.5-.672-1.5-1.5s.672-1.5 1.5-1.5 1.5.672 1.5 1.5-.672 1.5-1.5 1.5zm3-10c-.828 0-1.5-.672-1.5-1.5s.672-1.5 1.5-1.5 1.5.672 1.5 1.5-.672 1.5-1.5 1.5zm4 11c-.828 0-1.5-.672-1.5-1.5s.672-1.5 1.5-1.5 1.5.672 1.5 1.5-.672 1.5-1.5 1.5zm0-7c-.828 0-1.5-.672-1.5-1.5s.672-1.5 1.5-1.5 1.5.672 1.5 1.5-.672 1.5-1.5 1.5z"/></svg>