<svg id="Layer_1" viewBox="0 0 24 24" xmlns="http://www.w3.org/2000/svg" data-name="Layer 1"><path d="m23 3h-8v-.5c0-1.378-1.121-2.5-2.5-2.5h-1c-1.378 0-2.5 1.122-2.5 2.5v.5h-8c-.552 0-1 .448-1 1s.448 1 1 1h8.032c.074.676.359 1.305.847 1.793l1.121 1.121v1.086c0 .552.448 1 1 1s1-.448 1-1v-1.086l1.121-1.121c.488-.488.773-1.117.847-1.793h8.032c.553 0 1-.448 1-1s-.447-1-1-1zm-3.5 11h-1.684c-.414-1.161-1.514-2-2.816-2h-6c-1.654 0-3 1.346-3 3v4c0 2.757 2.243 5 5 5h2c2.045 0 3.802-1.237 4.576-3h1.924c1.93 0 3.5-1.57 3.5-3.5s-1.57-3.5-3.5-3.5zm0 5h-1.5v-3h1.5c.827 0 1.5.673 1.5 1.5s-.673 1.5-1.5 1.5z"/></svg>