<svg id="Layer_1" viewBox="0 0 24 24" xmlns="http://www.w3.org/2000/svg" data-name="Layer 1"><path d="m5.947 8.524 2.244-1.783 1.843 1.429c.588.345 1.221.756 1.968.83.46 0 .875-.32.977-.788.117-.54-.226-1.072-.766-1.189-.257-.056-.585-.24-.901-.417l-1.497-1.155 1.386-1.101c.326-.172.667-.297 1.013-.373.54-.117.883-.649.766-1.189s-.652-.884-1.189-.765c-.607.14-1.227.354-1.764.706l-1.841 1.464-2.237-1.726c-.253-1.4-1.474-2.467-2.946-2.467-1.657 0-3.003 1.346-3.003 3 0 1.044.537 1.962 1.348 2.5-.811.538-1.348 1.456-1.348 2.5 0 1.654 1.346 3 3 3 1.475 0 2.698-1.071 2.947-2.476zm-.455-2.192c-.222-.33-.508-.612-.839-.832.336-.223.624-.511.847-.847l1.065.826zm-2.492-4.332c.552 0 1 .449 1 1s-.448 1-1 1-1-.449-1-1 .448-1 1-1zm-1 6c0-.551.448-1 1-1s1 .449 1 1-.448 1-1 1-1-.449-1-1zm21.975 6.105c0 .918-.664 1.895-1.896 1.895h-.213l-.15 1.033c-.298 2.256-2.249 3.967-4.537 3.967h-.179c0 1.654-1.346 3-3 3h-6c-1.654 0-3-1.346-3-3v-.707c0-.812-.236-1.569-.667-2.132-1.383-2.024-1.962-3.247-2.223-5.251.29.052.585.09.89.09 2.14 0 4.003-1.353 4.702-3.315l.504-.4.604.468c.867.563 1.94 1.202 3.191 1.248 1.401 0 2.634-.994 2.931-2.364.171-.783.025-1.586-.409-2.26-.228-.354-.521-.65-.861-.876.341-.226.634-.522.861-.876.427-.663.571-1.45.414-2.22 2.463.653 3.415 1.473 5.234 3.529 1.23 1.52 3.805 6.881 3.805 8.173z"/></svg>