<?xml version="1.0" encoding="UTF-8"?>
<svg xmlns="http://www.w3.org/2000/svg" id="Layer_1" data-name="Layer 1" viewBox="0 0 24 24">
  <path d="m13.5,7c0,.827-.673,1.5-1.5,1.5s-1.5-.673-1.5-1.5.673-1.5,1.5-1.5,1.5.673,1.5,1.5Zm8.5-3v6c0,2.209-1.791,4-4,4h-5v7.467l2.293-2.293c.391-.391,1.023-.391,1.414,0s.391,1.024,0,1.414l-2.459,2.458c-.45.449-1.013.791-1.639.903-1.006.18-1.986-.132-2.68-.826l-2.636-2.636c-.391-.39-.391-1.023,0-1.414s1.023-.391,1.414,0l2.293,2.293v-7.366h-5c-2.209,0-4-1.791-4-4v-6C2,1.791,3.791,0,6,0h12c2.209,0,4,1.791,4,4Zm-15,6.5c0-.828-.672-1.5-1.5-1.5s-1.5.672-1.5,1.5.672,1.5,1.5,1.5,1.5-.672,1.5-1.5Zm0-7c0-.828-.672-1.5-1.5-1.5s-1.5.672-1.5,1.5.672,1.5,1.5,1.5,1.5-.672,1.5-1.5Zm8.5,3.5c0-1.93-1.57-3.5-3.5-3.5s-3.5,1.57-3.5,3.5,1.57,3.5,3.5,3.5,3.5-1.57,3.5-3.5Zm4.5,3.5c0-.828-.672-1.5-1.5-1.5s-1.5.672-1.5,1.5.672,1.5,1.5,1.5,1.5-.672,1.5-1.5Zm0-7c0-.828-.672-1.5-1.5-1.5s-1.5.672-1.5,1.5.672,1.5,1.5,1.5,1.5-.672,1.5-1.5Z"/>
</svg>
