<svg id="Layer_1" viewBox="0 0 24 24" xmlns="http://www.w3.org/2000/svg" data-name="Layer 1"><path d="m22.062 10.512c1.741-2.723 1.938-4.984 1.938-7.22 0-1.815-1.477-3.292-3.292-3.292-2.236 0-4.497.197-7.22 1.938-.015-.234-.102-.466-.281-.645-.391-.391-1.023-.391-1.414 0l-2 2c-.391.391-.391 1.023 0 1.414.058.058.13.09.198.131-1.559 1.566-3 3.202-4.365 4.9-.393-.321-.966-.312-1.332.054l-2 2c-.391.391-.391 1.023 0 1.414.152.152.343.227.54.26-.773 1.127-1.52 2.283-2.235 3.481-.989 1.657-.732 3.761.622 5.116l.716.716c.804.804 1.871 1.221 2.952 1.221.741 0 1.489-.196 2.164-.598 1.198-.715 2.354-1.462 3.481-2.235.034.196.109.388.26.539.391.391 1.023.391 1.414 0l2-2c.366-.366.375-.939.054-1.332 1.699-1.366 3.334-2.807 4.9-4.366.041.068.073.139.131.198.391.391 1.023.391 1.414 0l2-2c.391-.391.391-1.023 0-1.414-.179-.179-.41-.266-.645-.281z"/></svg>