<svg id="Layer_1" viewBox="0 0 24 24" xmlns="http://www.w3.org/2000/svg" data-name="Layer 1"><path d="m24 11c0-1.568-.752-3.04-2-3.979v-.021c0-1.897-1.327-3.489-3.102-3.898-.409-1.774-2.002-3.102-3.898-3.102h-.022c-1.093.003-1.978.89-1.978 1.983v18.963c0 1.368.916 2.598 2.247 2.91.402.094.822.144 1.253.144 2.422 0 4.515-1.556 5.233-3.835 1.408-.921 2.267-2.479 2.267-4.165 0-.886-.235-1.737-.686-2.5.45-.763.686-1.614.686-2.5zm-16.226-10.464-1.879-.456c-2.032-.365-4.118.529-5.249 2.439-.448.758-.646 1.635-.646 2.516v13.142c0 2.417 1.728 4.483 4.105 4.915l4.81.874c1.147.208 2.085-.575 2.085-1.74v-17.766c0-1.934-1.381-3.589-3.226-3.923zm-.799 17.367c-.105.464-.518.778-.974.778-.073 0-3.223-.707-3.223-.707-.539-.123-.876-.658-.753-1.197s.658-.875 1.197-.753l3 .682c.539.123.876.658.753 1.197zm2.004-3.699c-.099.472-.515.795-.978.795-.068 0-5.206-1.066-5.206-1.066-.541-.113-.887-.643-.774-1.184s.645-.885 1.184-.774l5 1.045c.541.113.887.643.774 1.184zm0-4c-.099.472-.515.795-.978.795-.068 0-5.206-1.066-5.206-1.066-.541-.113-.887-.643-.774-1.184s.645-.887 1.184-.774l5 1.045c.541.113.887.643.774 1.184zm0-3.955c-.099.472-.515.795-.978.795-.068 0-5.206-1.066-5.206-1.066-.541-.113-.887-.643-.774-1.184s.645-.884 1.184-.774l5 1.045c.541.113.887.643.774 1.184z"/></svg>