<svg id="Layer_1" viewBox="0 0 24 24" xmlns="http://www.w3.org/2000/svg" data-name="Layer 1"><path d="m19.374 6.657c-1.086-.871-2.662-.871-3.748 0-.432.346-1.06.276-1.406-.154-.346-.431-.276-1.061.154-1.406 1.812-1.453 4.439-1.453 6.252 0 .431.346.5.976.154 1.406-.348.433-.977.498-1.406.154zm-8.1-2.779c.38.402 1.013.419 1.413.038 2.699-2.557 6.926-2.557 9.625 0 .4.38 1.033.364 1.413-.038.38-.4.363-1.033-.038-1.413-3.469-3.289-8.906-3.289-12.375 0-.401.38-.418 1.013-.038 1.413zm4.725 5.622c0 .828.672 1.5 1.5 1.5s1.5-.672 1.5-1.5-.672-1.5-1.5-1.5-1.5.672-1.5 1.5zm-6.998-6.391c.021-.801.354-1.546.937-2.097.398-.377.822-.707 1.258-1.013h-2.195c-2.209 0-4 1.791-4 4v1h4.625c-.414-.541-.643-1.197-.624-1.891zm13.036 4.947c-.327.306-.71.53-1.131.664.058.252.095.511.095.78 0 1.93-1.57 3.5-3.5 3.5s-3.5-1.57-3.5-3.5c0-.265.035-.52.091-.768-.544-.172-1.045-.499-1.429-.975-.188-.234-.321-.492-.428-.757h-7.235c-2.76.003-4.997 2.24-5 5v4c.003 1.986 1.18 3.782 3 4.576v-2.576c.003-2.76 2.24-4.997 5-5h8c2.76.003 4.997 2.24 5 5v2.576c1.82-.794 2.997-2.59 3-4.576v-4c-.002-1.612-.779-3.03-1.963-3.944zm-6.037 6.944h-8c-1.657 0-3 1.343-3 3v3c0 1.657 1.343 3 3 3h8c1.657 0 3-1.343 3-3v-3c0-1.657-1.343-3-3-3z"/></svg>