<svg id="Layer_1" viewBox="0 0 24 24" xmlns="http://www.w3.org/2000/svg" data-name="Layer 1"><path d="m15 14c0 1.654-1.346 3-3 3s-3-1.346-3-3 1.346-3 3-3 3 1.346 3 3zm8.265 2.491c-1.548 2.43-5.072 6.511-11.265 6.511s-9.717-4.083-11.269-6.517c-.982-1.531-.981-3.437.004-4.972.55-.863 1.355-1.934 2.435-2.957l-1.942-2.429c-.345-.432-.274-1.061.157-1.406.431-.343 1.06-.275 1.406.157l1.925 2.409c.644-.453 1.357-.868 2.143-1.217l-.987-2.883c-.179-.522.1-1.091.623-1.27.522-.18 1.091.099 1.27.623l.982 2.87c.703-.182 1.455-.307 2.253-.366v-3.044c0-.552.448-1 1-1s1 .448 1 1v3.043c.803.059 1.558.185 2.265.369l.985-2.87c.179-.522.744-.801 1.271-.621.521.179.8.748.621 1.271l-.99 2.883c.772.344 1.473.751 2.107 1.196l1.921-2.413c.344-.431.971-.505 1.405-.16.432.344.503.973.159 1.405l-1.937 2.433c1.091 1.03 1.904 2.11 2.458 2.981.984 1.533.983 3.439-.002 4.975zm-6.265-2.491c0-2.757-2.243-5-5-5s-5 2.243-5 5 2.243 5 5 5 5-2.243 5-5z"/></svg>