<svg id="Layer_1" viewBox="0 0 24 24" xmlns="http://www.w3.org/2000/svg" data-name="Layer 1"><path d="m19 10c0-1.105.895-2 2-2s2 .895 2 2-.895 2-2 2-2-.895-2-2zm2.328 7.11c.11-.265.172-.555.172-.86 0-1.243-1.007-2.25-2.25-2.25s-2.25 1.007-2.25 2.25c0 .766.384 1.44.969 1.846-.596.628-.969 1.471-.969 2.404 0 1.93 1.57 3.5 3.5 3.5s3.5-1.57 3.5-3.5c0-1.643-1.143-3.016-2.672-3.39zm-13.328-4.11c-1.103 0-2 .897-2 2s.897 2 2 2 2-.897 2-2-.897-2-2-2zm7.704-8.647c-.329-2.482-2.462-4.353-4.96-4.353h-5.488c-2.5 0-4.632 1.872-4.96 4.353-.028.211-.039.433-.063.647h15.534c-.024-.214-.035-.437-.063-.647zm.233 2.647c.035.659.063 1.324.063 2 0 3.646-.714 7.988-1.313 10.988-.465 2.325-2.527 4.012-4.902 4.012h-3.568c-2.375 0-4.438-1.688-4.902-4.012-.6-2.999-1.314-7.339-1.314-10.988 0-.676.027-1.34.063-2h15.874zm-3.937 8c0-2.206-1.794-4-4-4s-4 1.794-4 4 1.794 4 4 4 4-1.794 4-4z"/></svg>