<svg id="Layer_1" viewBox="0 0 24 24" xmlns="http://www.w3.org/2000/svg" data-name="Layer 1"><path d="m23.466 8.114c-.457.563-1.135.886-1.862.886h-.634c-.123.844-.843 1.494-1.722 1.494s-1.598-.65-1.722-1.494h-.627c-.726 0-1.405-.322-1.862-.885-.455-.561-.631-1.287-.483-1.994.162-.77.354-1.687.524-2.481.497-2.312 2.018-3.64 4.175-3.64 2.137 0 3.698 1.362 4.176 3.645l.519 2.474c.149.708-.027 1.436-.482 1.996zm-18.466 13.886c-1.074 0-2.089-.251-3-.685v1.685c0 .553.447 1 1 1h10c.553 0 1-.447 1-1v-1.685c-.911.435-1.926.685-3 .685zm6-20c.828 0 1.62.152 2.357.419.169-.522.376-1.012.636-1.452-.019-.536-.452-.967-.993-.967h-10c-.553 0-1 .447-1 1v1.685c.911-.435 1.926-.685 3-.685zm5 8.9v4.1c0 2.757-2.243 5-5 5h-6c-2.757 0-5-2.243-5-5v-6c0-2.757 2.243-5 5-5h6c.666 0 1.299.136 1.88.373l-.283 1.338c-.272 1.298.052 2.634.889 3.664.645.795 1.533 1.32 2.514 1.524zm-4 2.1h-8v1c0 1.105.895 2 2 2h4c1.105 0 2-.895 2-2zm0-2c0-.738-.405-1.376-1-1.723v-1.277c0-.553-.448-1-1-1s-1 .447-1 1v1h-2v-1c0-.553-.448-1-1-1s-1 .447-1 1v1.277c-.595.346-1 .984-1 1.723z"/></svg>