<svg id="Layer_1" viewBox="0 0 24 24" xmlns="http://www.w3.org/2000/svg" data-name="Layer 1"><path d="m5.625 16.219c.431.346.501.975.156 1.406-1.383 1.728-1.755 4.052-1.85 4.972-.085.801-.755 1.403-1.56 1.403-.696 0-1.316-.468-1.508-1.137-.268-.939-.89-3.39-.89-5.863 0-1.525.551-3.237.574-3.31.172-.524.736-.812 1.26-.642.524.171.812.734.643 1.26-.005.015-.477 1.487-.477 2.691 0 1.176.159 2.356.346 3.334.323-1.226.894-2.702 1.898-3.959.346-.43.974-.502 1.406-.156zm3.672-2.191c-.234.191-.455.372-.656.541-.68.574-1.665.574-2.345 0-.2-.169-.418-.347-.65-.537-.432-.353-.618-.926-.474-1.465.308-1.151.732-2.431 1.3-3.568-1.182.844-1.962 1.686-2.479 2.433-.269.389-.833.413-1.157.068-.191-.204-.378-.416-.561-.635-.485-.583-.463-1.44.04-2.007.776-.876 1.716-1.905 2.656-2.859-1.412.167-2.577.721-3.492 1.365-.494.347-1.164.068-1.3-.52-.075-.322-.131-.653-.168-.988-.093-.857.378-1.686 1.18-2.002.925-.364 1.889-.681 2.78-.855-.881-.461-1.725-.66-2.497-.701-.487-.026-.755-.603-.452-.986.632-.796 1.582-1.312 2.945-1.312 3.001 0 3.502 2.001 3.502 2.001s.5-2.001 3.502-2.001c1.363 0 2.313.516 2.944 1.313.303.383.036.96-.451.986-.77.041-1.612.241-2.491.701.889.174 1.85.489 2.773.852.803.316 1.274 1.144 1.181 2.001-.036.335-.093.666-.167.987-.136.588-.806.868-1.3.521-.915-.643-2.077-1.195-3.487-1.361.939.952 1.878 1.98 2.653 2.855.503.567.525 1.424.04 2.007-.182.219-.37.43-.56.635-.323.346-.887.322-1.157-.067-.517-.746-1.296-1.587-2.476-2.429.568 1.136.991 2.413 1.299 3.563.144.539-.042 1.112-.474 1.465zm1.475-4.621c.128.107.305.21.452.131.217-.128.135-.427.014-.6-.191-.314-.739-1.135-1.188-.776-.448.359.449 1.017.722 1.244zm-7.339-4.774c-.516-.66-1.497.13-1.922.521-.159.131-.323.381-.165.569.158.129.398.164.598.172.476-.024 1.965-.653 1.489-1.262zm20.371 16.586c-.03.301-.059.584-.081.847-.075.886-.772 1.583-1.658 1.658-.26.022-.541.05-.84.08-.555.056-1.092-.218-1.371-.7-.596-1.032-1.201-2.236-1.603-3.442-.239 1.432-.195 2.579-.032 3.473.085.466-.297.882-.77.866-.285-.01-.572-.027-.862-.054-.748-.069-1.329-.684-1.374-1.434-.071-1.17-.135-2.568-.144-3.912-.881 1.117-1.312 2.331-1.504 3.435-.103.595-.775.871-1.287.552-.28-.175-.554-.369-.817-.58-.672-.54-.925-1.459-.581-2.25.397-.912.854-1.817 1.361-2.57-.949.297-1.687.753-2.261 1.27-.363.326-.96.107-1.017-.378-.117-1.01.19-2.047 1.153-3.01 2.122-2.122 3.891-1.061 3.891-1.061s-1.061-1.769 1.061-3.891c.964-.964 2-1.271 3.011-1.153.485.056.704.653.378 1.016-.515.574-.969 1.31-1.266 2.257.751-.506 1.654-.962 2.563-1.358.791-.344 1.71-.092 2.25.58.211.263.405.537.58.816.32.512.044 1.183-.551 1.287-1.102.192-2.314.624-3.428 1.503 1.342.009 2.738.073 3.907.144.75.045 1.364.626 1.434 1.374.027.289.044.577.054.861.016.473-.4.855-.865.77-.893-.162-2.039-.205-3.469.033 1.205.402 2.407 1.005 3.438 1.601.483.279.756.816.7 1.371zm-10.789-2.497c-.832-.102-.966 1.15-.991 1.727-.02.205.041.498.285.519.203-.02.398-.165.545-.301.319-.353.928-1.852.161-1.945zm8.777 2.216c-.127-.167-.276-.318-.441-.448-.177-.139-.415-.237-.62-.174-.079.024-.152.073-.216.152-.207.259-.13.548-.007.82.247.461.944 1.431 1.321.649.15-.31.179-.717-.038-1z"/></svg>