<svg id="Layer_1" viewBox="0 0 24 24" xmlns="http://www.w3.org/2000/svg" data-name="Layer 1"><path d="m16.83 7.634-.549-.317c.129-.419.219-.856.219-1.317s-.09-.897-.219-1.317l.549-.317c.479-.276.643-.888.366-1.366-.277-.479-.89-.642-1.366-.366l-.544.314c-.604-.65-1.392-1.122-2.286-1.327v-.621c0-.552-.448-1-1-1s-1 .448-1 1v.621c-.894.204-1.682.677-2.286 1.327l-.544-.314c-.481-.277-1.09-.112-1.366.366-.276.479-.112 1.09.366 1.366l.549.317c-.129.419-.219.856-.219 1.317s.09.897.219 1.317l-.549.317c-.478.276-.642.888-.366 1.366.278.483.896.639 1.366.366l.544-.314c.604.65 1.392 1.122 2.286 1.327v.621c0 .552.448 1 1 1s1-.448 1-1v-.621c.894-.204 1.682-.677 2.286-1.327l.544.314c.47.273 1.088.116 1.366-.366.276-.479.112-1.09-.366-1.366zm-4.83-.134c-.827 0-1.5-.673-1.5-1.5s.673-1.5 1.5-1.5 1.5.673 1.5 1.5-.673 1.5-1.5 1.5zm6.25 7c0-1.381 1.119-2.5 2.5-2.5s2.5 1.119 2.5 2.5-1.119 2.5-2.5 2.5-2.5-1.119-2.5-2.5zm-17.5 0c0-1.381 1.119-2.5 2.5-2.5s2.5 1.119 2.5 2.5-1.119 2.5-2.5 2.5-2.5-1.119-2.5-2.5zm8.75 2c0-1.381 1.119-2.5 2.5-2.5s2.5 1.119 2.5 2.5-1.119 2.5-2.5 2.5-2.5-1.119-2.5-2.5zm14.5 4.75c0-1.795-1.455-3.25-3.25-3.25-1.795 0-3.25 1.455-3.25 3.25v2c0 .414.336.75.75.75h5c.414 0 .75-.336.75-.75zm-17.5 0v2c0 .414-.336.75-.75.75h-5c-.414 0-.75-.336-.75-.75v-2c0-1.795 1.455-3.25 3.25-3.25 1.795 0 3.25 1.455 3.25 3.25zm9 2c0 .414-.336.75-.75.75h-5.5c-.414 0-.75-.336-.75-.75 0-1.795 1.455-3.25 3.25-3.25h.5c1.795 0 3.25 1.455 3.25 3.25z"/></svg>