<svg id="Layer_1" viewBox="0 0 24 24" xmlns="http://www.w3.org/2000/svg" data-name="Layer 1"><path d="m23.338 15.345-6.77 7.362c-.757.824-1.825 1.292-2.944 1.292h-10.624c-1.657 0-3-1.343-3-3v-3c0-2.209 1.791-4 4-4h7.787c1.374 0 2.46 1.26 2.164 2.685-.193.926-1.004 1.598-1.94 1.732l-4.162.583c-.547.078-.927.585-.848 1.131.078.547.585.926 1.131.848l4.252-.596c2.062-.294 3.617-2.087 3.617-4.17 0-.219-.032-.429-.065-.638l3.541-3.737c.455-.5 1.097-.803 1.794-.835.692-.034 1.363.209 1.878.678 1.052.958 1.138 2.602.189 3.665zm-5.243 8.655h1.905c2.206 0 4-1.794 4-4v-2.42zm-14.863-12.732c-.976-.976-.976-2.559 0-3.536l1.013-.991c.419-.41 1.09-.41 1.509 0l1.013.991c.976.976.976 2.559 0 3.536-.488.488-1.128.732-1.768.732s-1.28-.244-1.768-.732zm1.936-7.713c.307.459.927.582 1.387.277l.733-.489c1.314-.876 2.858-1.343 4.437-1.343h2.275s0 2 0 2h6v-.5c0-1.933-1.567-3.5-3.5-3.5h-4.775c-1.974 0-3.905.584-5.548 1.68l-.732.488c-.46.307-.584.927-.277 1.387zm6.619 8.445c1.272 0 2.463.567 3.268 1.556.006.008.012.015.019.022l2.951-3.116c.793-.872 1.923-1.4 3.153-1.458.912-.04 1.794.183 2.562.64-.402-1.442-1.257-2.722-2.428-3.645h-8.622c-1.649 1.299-2.689 3.301-2.689 5.477v.523h1.787z"/></svg>