<svg id="Layer_1" viewBox="0 0 24 24" xmlns="http://www.w3.org/2000/svg" data-name="Layer 1"><path d="m13 9v2c0 .552-.449 1-1 1h-4c-.551 0-1-.448-1-1v-2c0-.552.449-1 1-1h1v1c0 .553.448 1 1 1s1-.447 1-1v-1h1c.551 0 1 .448 1 1zm10.707 14.707c-.195.195-.451.293-.707.293s-.512-.098-.707-.293l-5.969-5.969c-1.725 1.412-3.927 2.262-6.324 2.262-5.514 0-10-4.486-10-10s4.486-10 10-10 10 4.486 10 10c0 2.397-.85 4.599-2.262 6.324l5.969 5.969c.391.391.391 1.023 0 1.414zm-8.707-14.707c0-1.483-1.084-2.71-2.5-2.949v-.051c0-1.103-.897-2-2-2h-1c-1.103 0-2 .897-2 2v.051c-1.416.24-2.5 1.466-2.5 2.949v2c0 1.654 1.346 3 3 3h4c1.654 0 3-1.346 3-3z"/></svg>