<svg id="Layer_1" viewBox="0 0 24 24" xmlns="http://www.w3.org/2000/svg" data-name="Layer 1"><path d="m23 19c-3.361 0-6.65-1.165-9.483-3.079 1.381-1.26 3.001-1.998 4.574-2.705 1.529-.688 2.974-1.338 4.057-2.421 2.465-2.465 2.465-6.478 0-8.943-2.466-2.465-6.478-2.464-8.943 0-1.083 1.083-1.732 2.527-2.42 4.057-.708 1.573-1.446 3.194-2.706 4.574-1.914-2.833-3.079-6.122-3.079-9.483 0-.552-.448-1-1-1s-1 .448-1 1c0 3.051.861 6.05 2.334 8.763-3.103.848-5.334 3.68-5.334 6.987 0 3.998 3.252 7.25 7.25 7.25 3.307 0 6.139-2.231 6.987-5.334 2.713 1.473 5.712 2.334 8.763 2.334.552 0 1-.447 1-1s-.448-1-1-1zm-15.75 3c-2.895 0-5.25-2.355-5.25-5.25 0-2.593 1.898-4.778 4.438-5.174 1.589 2.342 3.644 4.397 5.986 5.986-.396 2.54-2.58 4.438-5.173 4.438z"/></svg>