<svg id="Layer_1" viewBox="0 0 24 24" xmlns="http://www.w3.org/2000/svg" data-name="Layer 1"><path d="m13.617 8.279c-.249-.813-.838-1.279-1.617-1.279-1.028 0-4 2.248-4 6.537 0 1.909 1.794 3.463 4 3.463s4-1.554 4-3.463c0-.927-.165-1.394-.768-2.171-.736-.952-1.28-1.99-1.615-3.087zm-1.617 6.721c-.828 0-1.5-.596-1.5-1.5 0-1.273.856-2.5 1.5-2.5s1.5 1.227 1.5 2.5c0 .904-.672 1.5-1.5 1.5zm11.934-9.82c-.385-2.383-2.571-4.18-5.086-4.18h-12.606c-3.392 0-5.76 1.602-6.176 4.18-.269 1.665.309 3.338 1.543 4.475.146.135.391.416.391.792v7.554c0 2.757 2.243 5 5 5h10c2.757 0 5-2.243 5-5v-7.555c0-.376.242-.654.387-.787 1.237-1.139 1.815-2.812 1.547-4.479zm-11.934 13.82c-3.309 0-6-2.45-6-5.463 0-5.132 3.611-8.537 6-8.537 1.669 0 3.021 1.032 3.529 2.693.265.865.697 1.688 1.285 2.448.875 1.131 1.186 2.02 1.186 3.396 0 3.013-2.691 5.463-6 5.463z"/></svg>