<svg id="Layer_1" viewBox="0 0 24 24" xmlns="http://www.w3.org/2000/svg" data-name="Layer 1"><path d="m12 4c-.553 0-1-.448-1-1v-2c0-.552.447-1 1-1s1 .448 1 1v2c0 .552-.447 1-1 1zm1 19v-2c0-.552-.447-1-1-1s-1 .448-1 1v2c0 .552.447 1 1 1s1-.448 1-1zm11-11c0-.552-.447-1-1-1h-2c-.553 0-1 .448-1 1s.447 1 1 1h2c.553 0 1-.448 1-1zm-6.621-7.285 1.003-1.73c.277-.478.114-1.09-.364-1.367-.478-.278-1.09-.114-1.366.364l-1.003 1.73c-.277.478-.114 1.09.364 1.367.469.274 1.088.118 1.366-.364zm5.003 13.303c.277-.478.114-1.09-.364-1.367l-1.73-1.003c-.477-.278-1.089-.114-1.366.364s-.114 1.09.364 1.367l1.73 1.003c.469.274 1.088.118 1.366-.364zm-4.364 4.364c.479-.277.642-.889.364-1.367l-1.003-1.73c-.276-.478-.889-.64-1.366-.364-.479.277-.642.889-.364 1.367l1.003 1.73c.279.482.897.638 1.366.364zm2.27-14.03 1.73-1.003c.479-.277.642-.889.364-1.367-.276-.477-.889-.64-1.366-.364l-1.73 1.003c-.479.277-.642.889-.364 1.367.279.482.897.638 1.366.364z"/></svg>