<svg id="Layer_1" viewBox="0 0 24 24" xmlns="http://www.w3.org/2000/svg" data-name="Layer 1"><path d="m23 18h-22c-.552 0-1 .447-1 1-.005.628.562 1.068 1.169 1l.127.305c.934 2.245 3.109 3.695 5.54 3.695h10.329c2.432 0 4.606-1.451 5.54-3.696l.126-.304c.606.068 1.174-.372 1.169-1 0-.553-.448-1-1-1zm-6.008-15.178c-.025-.282-.08-.546-.136-.808 2.252-.101 3.678 1.156 4.081 3.589.231 1.366.901 7.085 1.283 10.397h-4.316c-.223-3.354-.785-11.744-.912-13.178zm-10.897 13.178h-4.315c.382-3.313 1.052-9.031 1.284-10.397.401-2.432 1.828-3.69 4.081-3.589-.056.262-.111.526-.136.808-.128 1.434-.689 9.824-.912 13.178zm9.805 0h-7.801c.228-3.419.777-11.615.9-13 .18-2.013 1.343-3 3-3s2.821.987 3 3c.124 1.385.673 9.581.9 13z"/></svg>