<svg id="Layer_1" viewBox="0 0 24 24" xmlns="http://www.w3.org/2000/svg" data-name="Layer 1"><path d="m24 14v5c0 2.757-2.243 5-5 5h-14c-2.757 0-5-2.243-5-5v-5c0-2.757 2.243-5 5-5h2.861l-2.429 11.798c-.111.541.237 1.07.778 1.181.539.112 1.069-.238 1.181-.778l2.512-12.202h4.193l2.512 12.202c.109.545.653.89 1.181.778.541-.111.89-.64.778-1.181l-2.429-11.798h2.862c2.757 0 5 2.243 5 5zm-13.722-6.819c.11-.537-.025-1.088-.371-1.513-.346-.424-.859-.668-1.407-.668-.827 0-1.5-.673-1.5-1.5s.673-1.5 1.5-1.5h7c.827 0 1.5.673 1.5 1.5s-.673 1.5-1.5 1.5c-.548 0-1.061.243-1.406.667-.347.424-.482.976-.372 1.514l.375 1.819h2.042l-.413-2.007c1.826-.116 3.275-1.638 3.275-3.493 0-1.93-1.57-3.5-3.5-3.5h-7c-1.93 0-3.5 1.57-3.5 3.5 0 1.854 1.449 3.376 3.274 3.493l-.413 2.007h2.042l.375-1.819z"/></svg>