<svg id="Layer_1" viewBox="0 0 24 24" xmlns="http://www.w3.org/2000/svg" data-name="Layer 1"><path d="m8.893 24.001c-.999.021-2.256-.245-3.154-.496-.533-.145-.848-.693-.703-1.227.144-.533.692-.854 1.227-.703.685.197 1.897.46 2.726.425 1.023-.014 1.86-.247 2.475-.449 1.003-.329 2.387-.686 4.168-.5 1.133.118 2.376.573 2.729.71.516.198.772.777.573 1.292-.198.517-.778.773-1.292.573-.582-.224-1.512-.512-2.217-.586-1.398-.141-2.473.127-3.337.411-.755.253-1.909.556-3.194.55zm15.107-11.516c0 3.442-2.336 6.336-5.503 7.213-.791-.35-1.97-.527-2.776-.649-1.805-.187-3.201.17-4.217.499-.602.195-1.42.415-2.405.444-1.008.021-1.65-.099-2.818-.436-.436-.129-.869.058-1.103.413-2.883-.168-5.179-2.56-5.179-5.484 0-1.546.656-3.03 1.801-4.07.272-.248.405-.594.346-.902-.184-.943-.194-1.916-.033-2.889.547-3.29 3.113-5.902 6.384-6.501 3.59-.658 7.184 1.167 8.734 4.439.141.295.411.502.742.569 3.492.697 6.026 3.79 6.026 7.354zm-5.734 3.039c-.77-.177-1.837-.403-2.544-.476-1.805-.187-3.201.169-4.217.499-.626.203-1.479.438-2.518.451-.819.028-1.892-.184-2.666-.447-.521-.178-1.091.103-1.269.626-.178.522.103 1.091.626 1.269.93.317 2.291.592 3.334.553 1.307-.017 2.348-.302 3.109-.549.881-.286 1.971-.56 3.396-.411.473.048 1.29.202 2.301.435.538.128 1.075-.213 1.198-.751.124-.538-.213-1.074-.751-1.198z"/></svg>