<svg id="Layer_1" viewBox="0 0 24 24" xmlns="http://www.w3.org/2000/svg" data-name="Layer 1"><path d="m8 20h8v.31c0 2.035-1.655 3.69-3.69 3.69h-.619c-2.035 0-3.69-1.655-3.69-3.69v-.31zm9.994-17.712c-1.908-1.705-4.471-2.516-7.038-2.227-4.052.457-7.366 3.723-7.881 7.763-.374 2.931.644 5.76 2.793 7.761.769.715 1.336 1.54 1.695 2.417h8.775c.319-.824.855-1.589 1.594-2.237 1.95-1.708 3.068-4.173 3.068-6.763 0-2.56-1.096-5.007-3.006-6.714zm-6.998 12.193c-.052.031-2.628-1.474-2.732-1.527-.777-.445-1.26-1.276-1.26-2.17v-2.906c0-.114.03-.223.045-.334l3.95 2.26-.004 4.677zm-2.901-8.643c.062-.043 2.674-1.549 2.674-1.549.374-.211.799-.325 1.229-.325.502 0 .854.11 1.231.322 0 0 2.624 1.51 2.687 1.553l-3.909 2.234zm8.905 5c0 .908-.488 1.745-1.281 2.186-.044.019-2.774 1.564-2.718 1.473l.004-4.689 3.956-2.261c.015.111.04.219.04.333v2.958z"/></svg>