<svg id="Layer_1" viewBox="0 0 24 24" xmlns="http://www.w3.org/2000/svg" data-name="Layer 1"><path d="m24 9c0-1.657-2.462-3-5.5-3s-5.5 1.343-5.5 3 2.462 3 5.5 3 5.5-1.343 5.5-3zm0 7.5v-2c0 1.971-2.292 3.5-5.5 3.5s-5.5-1.529-5.5-3.5v2c0 1.995 2.364 3.5 5.5 3.5s5.5-1.505 5.5-3.5zm0-4v-2c0 1.971-2.292 3.5-5.5 3.5s-5.5-1.529-5.5-3.5v2c0 1.995 2.364 3.5 5.5 3.5s5.5-1.505 5.5-3.5zm-11 4.5c0-1.657-2.462-3-5.5-3s-5.5 1.343-5.5 3 2.462 3 5.5 3 5.5-1.343 5.5-3zm3.579-12.841c-1.6-2.499-4.393-4.159-7.579-4.159-4.971 0-9 4.029-9 9 0 1.829.549 3.528 1.486 4.948 1.345-1.197 3.493-1.948 6.014-1.948 1.285 0 2.465.204 3.5.554v-3.554c0-2.404 2.296-4.303 5.579-4.841zm-7.579 5.841h-2.5c-.552 0-1-.448-1-1 0-.552.448-1 1-1h1.5v-2.5c0-.552.448-1 1-1 .552 0 1 .448 1 1v3.5c0 .552-.448 1-1 1zm15 8.5v2c0 1.995-2.364 3.5-5.5 3.5s-5.5-1.505-5.5-3.5v-2c0 1.971 2.292 3.5 5.5 3.5s5.5-1.529 5.5-3.5zm-11 0v2c0 1.995-2.364 3.5-5.5 3.5s-5.5-1.505-5.5-3.5v-2c0 1.971 2.292 3.5 5.5 3.5s5.5-1.529 5.5-3.5z"/></svg>