<svg id="Layer_1" viewBox="0 0 24 24" xmlns="http://www.w3.org/2000/svg" data-name="Layer 1"><path d="m9.112 8.408h-.996v-1.592h.996c.44 0 .796.356.796.796s-.356.796-.796.796zm7.288-.807c0-.442-.358-.8-.8-.8h-1.001v1.599h1.001c.442 0 .8-.358.8-.8zm-6.818-3.213c0-.44-.356-.796-.796-.796h-.671v1.592h.671c.44 0 .796-.356.796-.796zm-7.582 7.612v-7c0-2.761 2.239-5 5-5h10c2.761 0 5 2.239 5 5v7zm11.8-2h1.801c1.325 0 2.399-1.074 2.399-2.399v-.022c0-1.336-1.083-2.418-2.418-2.418h-.982v-1.361c0-.442-.358-.8-.8-.8-.442 0-.8.358-.8.8v5.4c0 .442.358.8.8.8zm-6.476 0h1.678c1.181 0 2.263-.809 2.462-1.973.151-.882-.19-1.681-.782-2.202.296-.389.482-.866.492-1.39.027-1.34-1.216-2.436-2.556-2.436h-1.294c-.442 0-.8.358-.8.8v6.4c0 .442.358.8.8.8zm14.676 4v5c0 2.761-2.239 5-5 5h-10c-2.761 0-5-2.239-5-5v-5zm-5 2h-10c-.552 0-1 .448-1 1 0 .552.448 1 1 1h10c.552 0 1-.448 1-1 0-.552-.448-1-1-1zm-4 4h-6c-.552 0-1 .448-1 1 0 .552.448 1 1 1h6c.552 0 1-.448 1-1 0-.552-.448-1-1-1z"/></svg>