<svg id="Layer_1" viewBox="0 0 24 24" xmlns="http://www.w3.org/2000/svg" data-name="Layer 1"><path d="m23.837 16.145c-.576 2.016-2.285 3.903-3.709 5.322-1.617 1.61-3.901 2.534-6.268 2.534h-3.722c-2.367 0-4.651-.924-6.268-2.534-1.669-1.662-2.923-3.144-3.555-4.855-.324-.877-.415-1.828-.151-2.725.377-1.28 1.242-2.114 2.287-2.554.694-.22 1.418-.332 2.147-.332h.401v3c0 2.312 2.629 4.022 5.055 2.296.716-.509.965-1.395.945-2.273-.013-.562.441-1.023 1-1.023.551 0 1 .449 1 1v2c0 1.85 1.683 3.314 3.598 2.942 1.424-.277 2.402-1.609 2.402-3.06v-4.882h.401c.728 0 1.452.112 2.147.332.634.268 1.202.682 1.633 1.253.771 1.023 1.011 2.32.657 3.56zm-21.418-12.007c.615-.285 1.448-.12 1.809.476-.167.447-.269.932-.262 1.435-1.08.62-1.81 1.709-1.967 2.951h2.966c1.103 0 2 .897 2 2v3c0 .551.449 1 1 1s1-.449 1-1c0-.834.343-1.588.894-2.133-1.093-1.231-1.193-3.09-.194-4.419.332-.441.958-.531 1.4-.198.441.332.53.959.198 1.4-.446.592-.385 1.435.14 1.959.209.21.472.351.759.41 1.56.105 2.801 1.394 2.801 2.98v2c0 .551.449 1 1 1s1-.449 1-1v-5c0-1.103.897-2 2-2h2.966c-.157-1.242-.887-2.33-1.967-2.951.014-1.01-.369-1.937-.984-2.648.026.937-.307 1.879-1.007 2.579-.675.675-1.576 1.021-2.48 1.021-.736 0-1.475-.229-2.096-.696-.441-.332-.53-.959-.198-1.4s.958-.53 1.4-.198c.591.445 1.435.385 1.959-.141.526-.525.586-1.368.141-1.959-.124-.165-.701-.605-1.263-.569-.696-1.234-2.014-2.036-3.472-2.036s-2.775.802-3.472 2.036c-.175-.024-.352-.036-.528-.036-.971 0-1.849.361-2.543.938-1.034-.957-2.558-1.209-3.843-.616-.501.232-.72.826-.488 1.327.232.503.827.722 1.327.488z"/></svg>