<svg id="Layer_1" viewBox="0 0 24 24" xmlns="http://www.w3.org/2000/svg" data-name="Layer 1"><path d="m21 0h-7c-1.657 0-3 1.343-3 3v3h13v-3c0-1.657-1.343-3-3-3zm-6.5 4.5c-.828 0-1.5-.672-1.5-1.5s.672-1.5 1.5-1.5 1.5.672 1.5 1.5-.672 1.5-1.5 1.5zm6.5-.5h-2c-.552 0-1-.448-1-1s.448-1 1-1h2c.552 0 1 .448 1 1s-.448 1-1 1zm-10 6c0 1.657 1.343 3 3 3h7c1.657 0 3-1.343 3-3v-3h-13zm8-1h2c.552 0 1 .448 1 1s-.448 1-1 1h-2c-.552 0-1-.448-1-1s.448-1 1-1zm-4.5-.5c.828 0 1.5.672 1.5 1.5s-.672 1.5-1.5 1.5-1.5-.672-1.5-1.5.672-1.5 1.5-1.5zm-5.5-6.5c0 .552-.447 1-1 1h-1c-1.103 0-2 .897-2 2v2.029l1.307-1.25c.399-.383 1.031-.37 1.414.028s.37 1.031-.027 1.414l-2.301 2.212c-.38.378-.883.569-1.388.569-.51 0-1.021-.193-1.41-.582l-2.288-2.199c-.397-.383-.41-1.016-.027-1.414s1.015-.411 1.414-.028l1.307 1.256v-2.035c-.001-2.206 1.793-4 3.999-4h1c.553 0 1 .448 1 1zm12 14v1c0 2.206-1.794 4-4 4h-2.029l1.25 1.307c.383.398.37 1.031-.027 1.414-.398.382-1.031.371-1.414-.028l-2.212-2.301c-.761-.761-.761-2.023.013-2.798l2.199-2.287c.382-.398 1.015-.412 1.414-.028.397.383.41 1.016.027 1.414l-1.257 1.307h2.036c1.103 0 2-.897 2-2v-1c0-.552.447-1 1-1s1 .448 1 1zm-12-1.5v2.421c-.221.268-1.456 1.079-4.5 1.079s-4.279-.811-4.5-1.079v-2.421c0-.883 1.85-1.5 4.5-1.5s4.5.617 4.5 1.5zm-4.5 5.5c1.93 0 3.421-.311 4.5-.777v2.61c0 1.377-1.641 2.167-4.5 2.167s-4.5-.79-4.5-2.167v-2.61c1.079.466 2.57.777 4.5.777z"/></svg>