<svg id="Layer_1" viewBox="0 0 24 24" xmlns="http://www.w3.org/2000/svg" data-name="Layer 1"><path d="m1.999 19h10v2c0 1.657-1.343 3-3 3h-4c-1.657 0-3-1.343-3-3zm10.202-2c.44-2.437 1.424-8.176 1.786-12.666.089-1.117-.294-2.228-1.052-3.049-.754-.817-1.823-1.285-2.936-1.285h-6c-1.112 0-2.182.469-2.936 1.286-.757.821-1.14 1.932-1.05 3.048.361 4.49 1.345 10.229 1.785 12.666zm2.626-4c-.23 1.583-.45 2.972-.618 4h3.791c1.626 0 3-1.341 3-2.929 0-1.072-.304-1.518-.902-2.323l-.59-.792c-.344-.461-1.043-.436-1.352.05l-.274.432c-.16.258-.882 1.562-2.382 1.562zm6.673 6h-7.5v2.5c0 .925-.282 1.784-.762 2.5h8.262c1.381 0 2.5-1.119 2.5-2.5s-1.119-2.5-2.5-2.5z"/></svg>