<svg id="Layer_1" viewBox="0 0 24 24" xmlns="http://www.w3.org/2000/svg" data-name="Layer 1"><path d="m14 7v-6.54c.913.346 1.753.879 2.465 1.59l3.484 3.486c.712.711 1.245 1.551 1.591 2.464h-6.54c-.552 0-1-.449-1-1zm8 3.485v8.515c0 2.757-2.243 5-5 5h-10c-2.757 0-5-2.243-5-5v-14c0-2.757 2.243-5 5-5h4.515c.163 0 .324.013.485.024v6.976c0 1.654 1.346 3 3 3h6.976c.011.161.024.322.024.485zm-14 2.314c0-.442-.358-.8-.8-.8h-3.401c-.442 0-.8.358-.8.8s.358.8.8.8h.851v5.6c0 .442.358.8.8.8s.8-.358.8-.8v-5.6h.951c.442 0 .8-.358.8-.8zm2.6 0c0-.442-.358-.8-.8-.8-.442 0-.8.358-.8.8v6.4c0 .442.358.8.8.8.442 0 .8-.358.8-.8zm3 2.601v-1.801h1.601c.442 0 .8-.358.8-.8s-.358-.8-.8-.8h-2.4c-.442 0-.8.358-.8.8v6.4c0 .442.358.8.8.8s.8-.358.8-.8v-2.2h1.601c.442 0 .8-.358.8-.8s-.358-.8-.8-.8h-1.601zm5 0v-1.801h1.601c.442 0 .8-.358.8-.8s-.358-.8-.8-.8h-2.4c-.442 0-.8.358-.8.8v6.4c0 .442.358.8.8.8s.8-.358.8-.8v-2.2h1.601c.442 0 .8-.358.8-.8s-.358-.8-.8-.8h-1.601z"/></svg>