<svg id="Layer_1" viewBox="0 0 24 24" xmlns="http://www.w3.org/2000/svg" data-name="Layer 1"><path d="m22.097 12.904c-1.07-1.07-2.497-1.729-4.018-1.856-.229-.02-.406-.16-.486-.385-.708-1.997-2.258-3.549-4.254-4.255-.225-.08-.365-.257-.384-.485-.128-1.522-.788-2.949-1.857-4.019-1.228-1.228-2.86-1.904-4.596-1.904h-2.643c-1.225 0-2.315.731-2.776 1.862-.494 1.209-1.083 2.994-1.083 4.638 0 1.736.676 3.369 1.903 4.596.392.392.836.731 1.319 1.007.468.269.756.751.791 1.322.026.444.096.894.206 1.333.614 2.447 2.593 4.422 5.045 5.028.436.107.876.175 1.308.201.574.035 1.057.323 1.325.789.276.483.615.927 1.007 1.319 1.228 1.228 2.86 1.904 4.596 1.904 1.639 0 3.426-.588 4.638-1.082 1.131-.463 1.862-1.553 1.862-2.777v-2.641c0-1.736-.676-3.368-1.903-4.596zm-18.097-6.404c0-1.381 1.119-2.5 2.5-2.5s2.5 1.119 2.5 2.5-1.119 2.5-2.5 2.5-2.5-1.119-2.5-2.5zm6.952 9.595c-1.683 0-3.048-1.364-3.048-3.048s1.364-3.048 3.048-3.048 3.048 1.364 3.048 3.048-1.364 3.048-3.048 3.048zm6.548 3.905c-1.381 0-2.5-1.119-2.5-2.5s1.119-2.5 2.5-2.5 2.5 1.119 2.5 2.5-1.119 2.5-2.5 2.5z"/></svg>