<svg id="Layer_1" viewBox="0 0 24 24" xmlns="http://www.w3.org/2000/svg" data-name="Layer 1"><path d="m19 0h-14c-2.757 0-5 2.243-5 5v2h24v-2c0-2.757-2.243-5-5-5zm-14.5 5c-.828 0-1.5-.672-1.5-1.5s.672-1.5 1.5-1.5 1.5.672 1.5 1.5-.672 1.5-1.5 1.5zm4 0c-.828 0-1.5-.672-1.5-1.5s.672-1.5 1.5-1.5 1.5.672 1.5 1.5-.672 1.5-1.5 1.5zm4 0c-.828 0-1.5-.672-1.5-1.5s.672-1.5 1.5-1.5 1.5.672 1.5 1.5-.672 1.5-1.5 1.5zm-12.5 4v8c0 2.757 2.243 5 5 5h11v-1.552c-1.255-1.127-2-2.745-2-4.448 0-3.309 2.691-6 6-6 1.538 0 2.937.586 4 1.54v-2.54zm6.75 2.5c1.105 0 2 .895 2 2s-.895 2-2 2-2-.895-2-2 .895-2 2-2zm3.49 7.669c-.197.217-.468.328-.741.328-.24 0-.48-.086-.672-.26-1.036-.94-3.119-.94-4.155 0-.408.372-1.041.34-1.413-.068-.371-.409-.341-1.042.068-1.413.881-.801 2.129-1.26 3.422-1.26s2.541.459 3.422 1.26c.409.371.439 1.004.068 1.413zm13.76-3.169c0-2.206-1.794-4-4-4s-4 1.794-4 4c0 1.474.81 2.75 2 3.444v3.927c0 .559.676.839 1.072.444l.928-.928.928.928c.395.395 1.072.115 1.072-.444v-3.927c1.19-.694 2-1.97 2-3.444z"/></svg>