<svg id="Layer_1" viewBox="0 0 24 24" xmlns="http://www.w3.org/2000/svg" data-name="Layer 1"><path d="m18 12c-3.314 0-6 2.686-6 6s2.686 6 6 6 6-2.686 6-6-2.686-6-6-6zm2.932 5.459c-.136.328-.456.541-.812.541h-1.121v3c0 .552-.447 1-1 1s-1-.448-1-1v-3h-1.121c-.355 0-.676-.213-.812-.541-.138-.329-.062-.706.19-.957l1.5-1.5c.685-.685 1.8-.685 2.485 0l1.5 1.5c.253.252.326.632.19.957zm-13.932-12.459c0-2.761 2.239-5 5-5s5 2.239 5 5c0 1.105-.895 2-2 2h-2.798l1.63-2.445c.307-.46.183-1.08-.277-1.387-.462-.307-1.081-.183-1.387.277l-2.37 3.555h-.798c-1.105 0-2-.895-2-2zm3 13c0-4.418 3.582-8 8-8 2.393 0 4.534 1.056 6 2.721v-5.721c0-2.761-2.239-5-5-5h-.674c.439.925.674 1.946.674 3 0 2.209-1.791 4-4 4h-6.534l.008-.013c-1.941-.158-3.474-1.79-3.474-3.772 0-1.152.28-2.239.747-3.215h-.747c-2.761 0-5 2.239-5 5v12c0 2.761 2.239 5 5 5h7.721c-1.665-1.466-2.721-3.607-2.721-6z"/></svg>