<svg id="Layer_1" viewBox="0 0 24 24" xmlns="http://www.w3.org/2000/svg" data-name="Layer 1"><path d="m5 16h3v8h-3zm10 0v3h4.002l-.002-3zm9-1.5v5c0 2.481-2.019 4.5-4.5 4.5h-9.5v-8c0-1.103-.897-2-2-2h-3c-1.103 0-2 .897-2 2v7.724c-1.742-.621-3-2.271-3-4.224v-5c0-2.481 2.019-4.5 4.5-4.5h.235l5.875-3.357c-.952-.503-1.61-1.492-1.61-2.643 0-.553.447-1 1-1s1 .447 1 1 .448 1 1 1 1-.448 1-1c0-.369-.202-.707-.528-.883-.585-.313-1.472-.79-1.472-2.117 0-.553.447-1 1-1s1 .447 1 1c0 .088.011.121.011.122.04.036.308.18.408.234.976.525 1.581 1.538 1.581 2.644 0 1.15-.658 2.139-1.61 2.643l5.875 3.357h.235c2.481 0 4.5 2.019 4.5 4.5zm-8.765-4.5-3.235-1.849-3.235 1.849zm5.765 6c0-1.103-.897-2-2-2h-4c-1.103 0-2 .897-2 2v3c0 1.103.897 2 2 2h4c1.103 0 2-.897 2-2z"/></svg>