<svg id="Layer_1" viewBox="0 0 24 24" xmlns="http://www.w3.org/2000/svg" data-name="Layer 1"><path d="m17.467 1.681c.332.537.533 1.163.533 1.839v2.96c0 1.941-1.579 3.52-3.52 3.52h-4.96c-1.941 0-3.52-1.579-3.52-3.52v-2.96c0-.676.201-1.302.533-1.839l3.507 3.508c.541.54 1.25.81 1.96.81s1.42-.271 1.96-.811zm-6.014 2.093c.301.301.792.301 1.093 0l3.429-3.429c-.455-.215-.958-.345-1.495-.345h-4.96c-.536 0-1.039.13-1.495.345zm8.517-.668c.011.138.029.276.029.414v2.96c0 3.044-2.476 5.52-5.52 5.52h-4.96c-3.044 0-5.52-2.476-5.52-5.52v-2.96c0-.139.019-.276.029-.414-1.731.397-3.029 1.943-3.029 3.793 0 .955.35 1.875.985 2.589l7.015 7.893v2.62c0 .314.148.611.4.8l4 3c.176.133.388.2.6.2.5 0 1.011-.461 1-1v-5.62l7.015-7.892c.636-.715.985-1.635.985-2.59 0-1.85-1.298-3.396-3.029-3.793z"/></svg>