<svg id="Layer_1" viewBox="0 0 24 24" xmlns="http://www.w3.org/2000/svg" data-name="Layer 1"><path d="m24 18.664v.336c0 1.214-1.082 2.176-2.335 1.973-.984-.16-1.665-1.083-1.665-2.079v-.23l.842-2.664h-1.842v6h2c.552 0 1 .448 1 1s-.448 1-1 1h-6c-.552 0-1-.448-1-1s.448-1 1-1h2v-6h-1.842l.842 2.664v.23c0 .996-.681 1.92-1.665 2.079-1.253.203-2.335-.758-2.335-1.973v-.336l1.054-3.276c.266-.827 1.035-1.388 1.904-1.388h2.042c0-.552.448-1 1-1s1 .448 1 1h2.042c.869 0 1.638.561 1.904 1.388zm-11-10.664h6.54c-.347-.913-.88-1.753-1.591-2.464l-3.484-3.486c-.712-.711-1.552-1.244-2.465-1.59v6.54c0 .551.448 1 1 1zm-.948 14.483c-.225-.126-.444-.266-.644-.437-.895-.762-1.408-1.872-1.408-3.047h-5c-.553 0-1-.447-1-1s.447-1 1-1h5.434l.643-2h-6.078c-.553 0-1-.447-1-1s.447-1 1-1h7.326c.712-.625 1.633-1 2.632-1h.823c.549-.609 1.337-1 2.22-1 .771 0 1.468.301 2 .78v-1.78h-7c-1.654 0-3-1.346-3-3v-6.975c-.161-.011-.322-.024-.485-.024h-4.515c-2.757 0-5 2.243-5 5v14c0 2.757 2.243 5 5 5h7.184c-.112-.314-.184-.648-.184-1 0-.177.023-.348.052-.517z"/></svg>