<svg id="Layer_1" viewBox="0 0 24 24" xmlns="http://www.w3.org/2000/svg" data-name="Layer 1"><path d="m23.265 19.379-.983-.566c.129-.418.218-.853.218-1.313s-.09-.895-.218-1.313l.983-.566c.479-.275.644-.887.367-1.366-.274-.478-.887-.643-1.365-.367l-.977.563c-.605-.652-1.393-1.126-2.289-1.33v-1.121c0-.552-.447-1-1-1s-1 .448-1 1v1.121c-.896.205-1.685.678-2.289 1.33l-.977-.563c-.479-.276-1.09-.111-1.365.367-.276.479-.111 1.09.367 1.366l.983.566c-.129.418-.218.853-.218 1.313s.09.895.218 1.313l-.983.566c-.479.275-.644.887-.367 1.366.277.482.895.64 1.365.367l.977-.563c.605.652 1.396 1.125 2.289 1.332v1.119c0 .552.447 1 1 1s1-.448 1-1v-1.119c.893-.207 1.685-.68 2.289-1.332l.977.563c.47.273 1.088.116 1.365-.367.276-.479.111-1.09-.367-1.366zm-5.265-.379c-.827 0-1.5-.673-1.5-1.5s.673-1.5 1.5-1.5 1.5.673 1.5 1.5-.673 1.5-1.5 1.5zm-5.472 5h-7.528c-2.757 0-5-2.243-5-5v-9.276c0-1.665.824-3.215 2.204-4.145l6.999-4.724c1.699-1.146 3.895-1.146 5.594 0l7 4.724c1.379.93 2.203 2.479 2.203 4.145v1.756c-1.537-1.532-3.658-2.48-6-2.48-4.694 0-8.5 3.806-8.5 8.5 0 2.609 1.178 4.941 3.028 6.5z"/></svg>