<svg id="Layer_1" viewBox="0 0 24 24" xmlns="http://www.w3.org/2000/svg" data-name="Layer 1"><path d="m4.241 8.539c.023.869.396 1.645.73 2.17.247.388.81.388 1.057 0 .334-.525.707-1.301.73-2.17.631.598 1.443.883 2.051 1.018.449.1.848-.298.748-.748-.135-.607-.42-1.419-1.018-2.051.869-.023 1.645-.396 2.17-.73.388-.247.388-.81 0-1.057-.525-.334-1.301-.707-2.17-.73.598-.631.883-1.443 1.018-2.051.1-.449-.299-.848-.748-.748-.607.135-1.419.42-2.051 1.018-.023-.869-.396-1.645-.73-2.17-.247-.388-.811-.388-1.057 0-.334.525-.707 1.301-.73 2.17-.631-.598-1.443-.883-2.051-1.018-.449-.1-.848.298-.748.748.135.607.42 1.419 1.018 2.051-.869.023-1.645.396-2.17.73-.388.247-.388.81 0 1.057.525.334 1.301.707 2.17.73-.598.631-.883 1.443-1.018 2.051-.1.449.298.848.748.748.607-.135 1.419-.42 2.051-1.018zm-.507-3.388.992-.424.426-.996c.132-.308.569-.31.703-.002l.43.986.987.431c.307.134.306.57-.002.703l-.996.427-.424.992c-.132.309-.569.31-.703.002l-.429-.987-.986-.429c-.308-.134-.307-.571.002-.703zm20.266 3.992c0 2.091-1.832 3.857-4 3.857h-.354c.042.137.084.286.127.409.238.688.29 1.44.15 2.173-.378 1.98-2.185 3.417-4.296 3.417h-3.627v3h4c.553 0 1 .448 1 1s-.447 1-1 1h-10c-.553 0-1-.448-1-1s.447-1 1-1h4v-3h-3.627c-2.111 0-3.918-1.437-4.296-3.417-.14-.733-.088-1.485.15-2.174.187-.543.38-1.241.526-1.932.102-.024.204-.048.303-.077.076.137.151.264.226.379.484.765 1.313 1.222 2.218 1.222s1.733-.457 2.216-1.218c.074-.117.151-.245.228-.383.141.04.284.077.43.109.877.198 1.791-.065 2.431-.705.234-.234.398-.512.528-.803h7.687c.024.305.076.648.139 1h.843c1.065 0 2-.868 2-1.857 0-.758-.673-1.143-2-1.143h-8.702c.136-.077.366-.21.484-.285.762-.485 1.217-1.314 1.216-2.217 0-.902-.456-1.73-1.218-2.215 0 0-.231-.156-.505-.283h6.265c.76 0 1.465.343 1.933.941.459.586.62 1.333.458 2.059 2.468 0 4.066 1.205 4.066 3.143z"/></svg>