<svg id="Layer_1" viewBox="0 0 24 24" xmlns="http://www.w3.org/2000/svg" data-name="Layer 1"><path d="m21.315 17.385 2.395.939c-.048.244-.102.486-.162.726-.332 1.312-1.595 2.158-2.948 1.962-.646-.095-1.56-.202-2.308-.197-.756.008-1.42.109-1.939.291l-2.27 2.051c-.528.531-1.282.844-2.083.844s-1.554-.312-2.121-.879l-2.033-1.939c-.543-.231-1.282-.358-2.138-.368-.748-.005-1.662.103-2.308.197-1.354.196-2.616-.649-2.948-1.962-.06-.239-.114-.482-.162-.726l2.395-.939c.388-.149.426-.677.067-.888-.342-.201-1.665-.878-2.752-1.236.002-.324.014-.645.039-.963.097-1.226 1.106-2.178 2.333-2.265.33-.023.664-.033 1-.033.385 1.206.903 2.341 1.12 2.712.243.414.852.37 1.024-.078l.839-2.339c.233.047.465.098.694.156 1.313.33 2.156 1.598 1.96 2.948-.134.933-.202 1.729-.195 2.308.007.734.103 1.382.276 1.897l1.91 1.821v-8.5c-.294-.664-.817-1.389-1.522-2.109-.676-.691-1.65-1.45-2.35-1.966-1.134-.837-1.462-2.381-.765-3.591.173-.3.357-.597.549-.888l2.594 1.066c.544.242 1.121-.252.969-.828-.103-.388-.69-1.911-1.19-3.138.262-.26.531-.511.806-.751.553-.483 1.231-.72 1.909-.72s1.356.237 1.91.721c.283.247.559.506.827.773-.522 1.246-1.111 2.696-1.212 3.077-.159.601.443 1.116 1.011.864l2.568-1.037c.186.283.364.57.532.861.698 1.211.369 2.755-.765 3.592-1.005.741-1.816 1.421-2.349 1.965-.706.721-1.229 1.446-1.522 2.11v8.516l1.852-1.674c.21-.537.326-1.246.334-2.058.007-.578-.062-1.375-.195-2.308-.196-1.351.646-2.618 1.96-2.948.229-.058.46-.109.694-.156l.839 2.339c.172.448.781.491 1.024.078.218-.371.735-1.506 1.12-2.712.336 0 .67.009 1 .033 1.227.086 2.236 1.039 2.333 2.265.025.318.037.639.039.963-1.087.358-2.41 1.035-2.752 1.236-.359.21-.321.738.067.888z"/></svg>