<?xml version="1.0" encoding="UTF-8"?>
<svg xmlns="http://www.w3.org/2000/svg" id="Layer_1" data-name="Layer 1" viewBox="0 0 24 24">
  <path d="m3.984,5H1.896c.059-.239.1-.395.117-.45C2.867,1.829,5.36,0,8.215,0c.987,0,1.923.231,2.771.629-.46.506-.858,1.067-1.177,1.678-.024-.011-.04-.032-.065-.041-.006-.002-.013-.005-.019-.007-.437-.156-.921.041-1.158.44-.38.637-.909,1.18-1.557,1.584-.81.506-1.775.717-3.025.717Zm12.913,7c3.309,0,6-2.691,6-6S20.206,0,16.897,0s-6,2.691-6,6,2.691,6,6,6Zm-15.266,1.932c1.108-.716,2.341-1.253,3.656-1.575-2.11-.993-3.621-3.045-3.848-5.472-.289,1.208-.875,3.67-1.409,5.921-.22.929.799,1.644,1.601,1.126Zm6.435-7.953c-1.081.674-2.609,1.02-3.852,1.02-.038,0-.41,0-.69,0,.361,2.264,2.327,3.999,4.69,3.999.748,0,1.45-.182,2.08-.491-.88-1.285-1.398-2.837-1.398-4.509,0-.227.015-.451.034-.673-.271.236-.554.459-.865.653Zm15.932,13.02h0c-.18-1.968-1.197-3.684-2.69-4.829-.597-.458-1.464-.331-1.957.235l-2.353,2.697-2.384-2.688c-.497-.56-1.362-.681-1.955-.222-1.477,1.145-2.482,2.851-2.661,4.807h0c-.002.123,0,3,0,3,0,1.103.897,2,2,2h10c1.103,0,2-.897,2-2,0,0,.001-2.877,0-3Zm-16,.363l-3.383-3.841c-.497-.56-1.362-.681-1.955-.222C1.185,16.445.179,18.151,0,20.107H0c-.002.123,0,1.893,0,1.893,0,1.103.897,2,2,2h6.555c-.345-.591-.556-1.268-.556-2,0-.001,0-1.6,0-2.637Z"/>
</svg>
