<?xml version="1.0" encoding="UTF-8"?>
<svg xmlns="http://www.w3.org/2000/svg" id="Layer_1" data-name="Layer 1" viewBox="0 0 24 24">
  <path d="M9,2.5c0-1.381,1.119-2.5,2.5-2.5s2.5,1.119,2.5,2.5-1.119,2.5-2.5,2.5-2.5-1.119-2.5-2.5Zm15,1.5V20c0,2.337-2.014,4.212-4.399,3.981-2.078-.202-3.601-2.07-3.601-4.158v-4.822h2c.552,0,1-.448,1-1h0c0-.552-.448-1-1-1h-3.512c-.877,0-1.689-.459-2.141-1.21l-1.053-1.749-2.269,5.533,1.802,1.14c.724,.458,1.163,1.255,1.163,2.112v4.174c0,.552-.447,1-1,1s-1-.448-1-1v-4.174c0-.171-.088-.331-.233-.423l-3.883-2.456c-1.23-.778-1.724-2.327-1.172-3.674l1.753-4.273H3.927c-.19,0-.364,.107-.449,.277l-1.584,3.17c-.246,.493-.847,.693-1.342,.447-.494-.247-.694-.848-.447-1.342l1.585-3.171c.423-.847,1.289-1.382,2.236-1.382h5.009c1.403,0,2.704,.735,3.427,1.937l1.698,2.82c.091,.15,.253,.242,.429,.242h1.512V4.178c0-2.088,1.523-3.956,3.601-4.158,2.384-.232,4.399,1.644,4.399,3.981ZM4.872,17.083c-.508-.205-1.086,.042-1.3,.543,0,.003-.166,.374-.418,.374H1c-.553,0-1,.448-1,1s.447,1,1,1H3.154c1.301,0,2.045-1.031,2.279-1.641,.195-.509-.057-1.072-.562-1.276Z"/>
</svg>
