<svg id="Layer_1" viewBox="0 0 24 24" xmlns="http://www.w3.org/2000/svg" data-name="Layer 1"><path d="m20.499 24c-1.93 0-3.5-1.57-3.5-3.5s1.57-3.5 3.5-3.5 3.5 1.57 3.5 3.5-1.57 3.5-3.5 3.5zm0-9c.357 0 .706.037 1.045.102 0 0 2.365-6.274 2.374-6.307.063-.238.081-.48.081-.719 0-.576-.18-1.343-.605-1.897-.576-.75-1.449-1.179-2.395-1.179h-14.898l-.165-1.167c-.333-2.221-2.205-3.833-4.45-3.833h-.486c-.553 0-1 .448-1 1s.447 1 1 1h.486c1.247 0 2.287.896 2.471 2.121l2.33 16.445c.095.667.576 1.208 1.228 1.38.142.038.285.056.427.056.51 0 1-.234 1.321-.652l3.514-4.569 3.249.532c.998-1.397 2.629-2.312 4.474-2.312zm-12.343 4.506-.529-3.733c.34.154.698.278 1.082.342l1.825.299z"/></svg>