<svg id="Layer_1" viewBox="0 0 24 24" xmlns="http://www.w3.org/2000/svg" data-name="Layer 1"><path d="m22 7v3c0 3.86-3.141 7-7 7h-3c-1.105 0-2-.895-2-2s.895-2 2-2 2 .895 2 2h1c2.757 0 5-2.243 5-5v-3c0-2.757-2.243-5-5-5h-6c-2.757 0-5 2.243-5 5v3c0 .552-.447 1-1 1s-1-.448-1-1v-3c0-3.86 3.141-7 7-7h6c3.859 0 7 3.14 7 7zm-6.9 11h-6.199c-2.843 0-5.316 2.019-5.881 4.801-.06.294.017.599.206.832.19.232.475.367.774.367h16c.3 0 .584-.135.774-.367.189-.232.266-.538.206-.832-.564-2.782-3.038-4.801-5.881-4.801zm.332-5.044c-.696-1.171-1.97-1.956-3.432-1.956s-2.735.786-3.432 1.956c-1.451-.211-2.568-1.447-2.568-2.956v-3c0-1.657 1.343-3 3-3h6c1.657 0 3 1.343 3 3v3c0 1.509-1.118 2.746-2.568 2.956zm-4.432-4.456c0-.828-.672-1.5-1.5-1.5s-1.5.672-1.5 1.5.672 1.5 1.5 1.5 1.5-.672 1.5-1.5zm5 0c0-.828-.672-1.5-1.5-1.5s-1.5.672-1.5 1.5.672 1.5 1.5 1.5 1.5-.672 1.5-1.5z"/></svg>