<svg id="Layer_1" viewBox="0 0 24 24" xmlns="http://www.w3.org/2000/svg" data-name="Layer 1"><path d="m13.414 15.586c.378.378.586.88.586 1.414s-.208 1.036-.586 1.414c-.755.756-2.072.756-2.828 0-.78-.78-.78-2.048-.008-2.82l1.417-1.396zm6.586-3.586v7c0 2.757-2.243 5-5 5h-6c-2.757 0-5-2.243-5-5v-7c0-2.206 1.794-4 4-4v-1c0-1.019.768-1.852 1.754-1.975l.699-3.739c.139-.745.79-1.285 1.548-1.285s1.409.54 1.548 1.285l.699 3.739c.986.123 1.754.956 1.754 1.975v1c2.206 0 4 1.794 4 4zm-4 5c0-1.068-.416-2.073-1.18-2.836l-1.427-1.396c-.767-.75-2.018-.751-2.787 0l-1.435 1.404c-1.56 1.56-1.56 4.097 0 5.656.755.756 1.76 1.172 2.829 1.172s2.073-.416 2.829-1.172c.755-.755 1.171-1.76 1.171-2.828z"/></svg>