<svg id="Layer_1" viewBox="0 0 24 24" xmlns="http://www.w3.org/2000/svg" data-name="Layer 1"><path d="m12.054 0c1.687 0 2.946 1.343 2.946 3s-1.26 3-2.946 3-3.054-1.343-3.054-3 1.367-3 3.054-3zm9.152 20.824-3.839-3.021 4.057-1.897c.5-.234.716-.829.482-1.33-.234-.5-.826-.715-1.33-.482l-8.128 3.801c-.281.14-.615.14-.919-.012l-8.106-3.789c-.499-.232-1.095-.019-1.329.482s-.018 1.096.482 1.33l4.057 1.896-3.839 3.022c-1.471.865-.713 3.269 1.005 3.176h6.371c-.111-.313-.171-.649-.171-1 0-1.657 1.343-3 3-3h4l2.466 2h-6.466c-.552 0-1 .447-1 1s.448 1 1 1h7.202c1.717.093 2.472-2.312 1.004-3.176zm-8.759-4.93 4-2c.339-.17.553-.516.553-.895 0-2.757-2.243-5-5-5s-5 2.243-5 5c0 .379.214.725.553.895l4 2c.281.141.613.141.895 0z"/></svg>