<svg id="Layer_1" viewBox="0 0 24 24" xmlns="http://www.w3.org/2000/svg" data-name="Layer 1"><path d="m24 5.5c0 1.105-.895 2-2 2v-4c1.105 0 2 .895 2 2zm-6.372-5.19-2.898 2.19h-.73c-1.105 0-2 .895-2 2v2c0 1.105.895 2 2 2h.85l2.777 2.19c.968.747 2.372.057 2.372-1.166v-8.049c0-1.223-1.404-1.913-2.372-1.166zm6.372 8.634v10.056c0 2.757-2.243 5-5 5h-14c-2.757 0-5-2.243-5-5v-14c0-2.757 2.243-5 5-5h9.72l-.662.5h-.059c-2.206 0-4 1.794-4 4v2c0 2.206 1.794 4 4 4h.157l2.249 1.773c.62.479 1.358.724 2.105.727h-3.511c-.552 0-1 .448-1 1s.448 1 1 1h4c.552 0 1-.448 1-1s-.448-1-1-1h-.469c.518-.001 1.04-.119 1.528-.359 1.197-.588 1.941-1.782 1.941-3.116v-.025c.732 0 1.409-.212 2-.556zm-14 6.056c0-.552-.448-1-1-1h-1v-8c0-.552-.448-1-1-1s-1 .448-1 1v8h-1c-.552 0-1 .448-1 1s.448 1 1 1h1v2c0 .552.448 1 1 1s1-.448 1-1v-2h1c.552 0 1-.448 1-1zm10 3c0-.552-.448-1-1-1h-4c-.552 0-1 .448-1 1s.448 1 1 1h4c.552 0 1-.448 1-1z"/></svg>