<svg id="Layer_1" viewBox="0 0 24 24" xmlns="http://www.w3.org/2000/svg" data-name="Layer 1"><path d="m24 2v3.988c0 .552-.447 1-1 1s-1-.448-1-1v-2.574l-3.293 3.293c-.391.391-1.023.391-1.414 0s-.391-1.023 0-1.414l3.293-3.293-2.598.012c-.553 0-1-.448-1-1s.448-1 1-1l3.988-.012c1.116 0 2.023.897 2.023 2zm-18.719 15.281-3.276 3.276.007-2.543c.002-.552-.444-1.001-.997-1.003h-.003c-.551 0-.998.445-1 .997l-.012 3.991c0 1.103.897 2 2 2h4c.553 0 1-.447 1-1s-.447-1-1-1l-2.611.002 3.306-3.306c.391-.391.391-1.023 0-1.414s-1.023-.391-1.414 0zm-4.269-10.281h.006c.553-.003.997-.454.994-1.006l-.015-2.584 3.296 3.296c.391.391 1.023.391 1.414 0s.391-1.023 0-1.414l-3.281-3.28h2.562c.553 0 1-.448 1-1s-.447-1-1-1h-4c-1.102 0-1.988.897-1.988 2.006l.012 3.988c.003.55.45.994 1 .994zm21.991 10h-.003c-.551 0-.998.445-1 .997l-.007 2.6-3.284-3.302c-.39-.392-1.022-.395-1.414-.004-.392.39-.394 1.022-.004 1.414l3.265 3.283-2.556.012c-.553 0-1 .447-1 1s.447 1 1 1l3.988-.012c1.103 0 2-.897 2-1.997l.012-3.988c.002-.552-.444-1.001-.997-1.003zm-7.029-9.581-2.005-1.133c-1.214-.685-2.724-.685-3.938.002l-1.996 1.13c-.303.172-.576.381-.819.618l4.792 2.739 4.789-2.737c-.244-.238-.518-.448-.822-.62zm2.026 3.482c0-.396-.059-.781-.17-1.15l-4.825 2.758-.003 5.746c.335-.083.661-.208.968-.379l1.979-1.099c1.27-.704 2.053-2.044 2.053-3.496v-2.38zm-11.995-.002v2.324c0 1.432.772 2.762 2.016 3.473l2.021 1.155c.304.174.622.304.955.391l.003-5.736-4.82-2.757c-.111.369-.175.755-.175 1.15z"/></svg>