<svg id="Layer_1" viewBox="0 0 24 24" xmlns="http://www.w3.org/2000/svg" data-name="Layer 1"><path d="m19.013 12.5c0 .553.447 1 1 1s1-.447 1-1c1.654 0 2.987-1.372 2.987-3 0-.909-.394-1.725-1.034-2.275.345-.488.547-1.083.547-1.725 0-1.483-1.084-2.71-2.5-2.949v-.051c0-.553-.447-1-1-1s-1 .447-1 1c-1.103 0-2 .897-2 2v6c0 1.103.897 2 2 2zm0-8h1.5c.552 0 1 .448 1 1s-.448 1-1 1h-1.5zm0 4h2c.552 0 1 .448 1 1s-.448 1-1 1h-2zm-4 1h-15.013v-1c0-2.209 1.791-4 4-4h11.013zm5 6c-1.015 0-1.91-.509-2.453-1.283-1.182-.464-2.081-1.472-2.405-2.717h-15.155v7c0 2.209 1.791 4 4 4h16c2.209 0 4-1.791 4-4v-5.015c-.47.354-1.003.618-1.581.789-.547.74-1.418 1.226-2.406 1.226zm-14.513 3c-.828 0-1.5-.672-1.5-1.5s.672-1.5 1.5-1.5 1.5.672 1.5 1.5-.672 1.5-1.5 1.5z"/></svg>