<svg id="Layer_1" viewBox="0 0 24 24" xmlns="http://www.w3.org/2000/svg" data-name="Layer 1"><path d="m13.553 13h-1.053v-2.095c2.653-.488 4.641-2.876 4.492-5.703s-2.573-5.161-5.411-5.202c-3.075-.044-5.581 2.435-5.581 5.499 0 2.696 1.941 4.934 4.5 5.405v2.047c-.173-.044-.337-.117-.465-.244l-1.075-1.075c-.841-.841-2.209-.843-3.052 0-.027.026-1.59 1.99-1.59 1.99-.191.24-.477.378-.783.378h-1.035c-1.381 0-2.5 1.119-2.5 2.5v4.014c0 1.396 1.144 2.554 2.539 2.494 1.01-.044 2.013.087 2.973.385 1.132.351 2.291.607 3.477.607h2.336c1.973 0 3.65-1.44 3.954-3.39.721-4.624.721-5.092.721-5.268 0-1.313-1.075-2.342-2.447-2.342zm-4.6-4.768c-.385-.464-.058-1.166.545-1.166.232-.016.454.078.611.252.118.128.287.209.474.209h1.937c.256 0 .49-.173.54-.424.058-.293-.135-.566-.415-.623l-2.571-.515c-.954-.191-1.64-1.05-1.608-2.029.036-1.088.962-1.936 2.05-1.936h.268v-.28c0-.398.322-.72.72-.72s.72.322.72.72v.28h.201c.655 0 1.242.299 1.631.767.385.464.058 1.167-.545 1.167h-.07c-.209 0-.4-.098-.541-.252-.118-.128-.287-.209-.474-.209h-1.936c-.256 0-.49.172-.541.422-.059.293.134.568.414.624l2.572.515c.954.19 1.64 1.051 1.608 2.03-.036 1.088-.962 1.936-2.051 1.936h-.268v.28c0 .398-.322.72-.72.72s-.72-.322-.72-.72v-.28h-.201c-.655 0-1.242-.299-1.631-.768zm14.759 3.97c-.388.393-1.021.398-1.414.01l-1.298-1.279v5.068c0 .553-.447 1-1 1s-1-.447-1-1v-5.068l-1.298 1.279c-.394.388-1.026.383-1.414-.01-.388-.394-.384-1.026.01-1.414l2.2-2.169c.826-.825 2.179-.825 3.009.005l2.195 2.164c.394.388.397 1.021.01 1.414z"/></svg>