<svg id="Layer_1" viewBox="0 0 24 24" xmlns="http://www.w3.org/2000/svg" data-name="Layer 1"><path d="m15.618 15.862c.391.391.391 1.023 0 1.414s-1.023.391-1.414 0l-1.04-1.04-6.649 6.649c-1.486 1.486-3.895 1.486-5.38 0-1.486-1.486-1.486-3.895 0-5.38l6.297-6.297c-1.444-.458-3.057-.089-4.144.999-.39.391-1.024.391-1.414 0-.391-.39-.391-1.023 0-1.414 1.602-1.603 3.974-2.161 6.107-1.507v-8.286c-.001-.552.447-1 .999-1s1 .448 1 1v9.152zm7.468-14.968c-1.192-1.192-3.124-1.192-4.315 0l-7.698 7.698 4.316 4.315 7.698-7.698c1.192-1.192 1.192-3.124 0-4.316z"/></svg>