<svg id="Layer_1" viewBox="0 0 24 24" xmlns="http://www.w3.org/2000/svg" data-name="Layer 1"><path d="m22.32 1.682c-1.083-1.084-2.524-1.682-4.056-1.682h-.001c-1.532 0-2.973.597-4.056 1.68l-1.156 1.156c-1.358 1.358-1.358 3.567 0 4.925l.888.888 2.355-2.356c.39-.391 1.023-.391 1.414 0 .391.39.391 1.023 0 1.414l-2.355 2.356 1.901 1.902c-4.288 4.198-7.773 6.986-10.254 8.538 0 0 0-.002 0-.003 0-1.93-1.57-3.5-3.5-3.5-.539 0-1.044.133-1.5.351v-16.351c0-.552-.448-1-1-1s-1 .448-1 1v19.5c0 1.93 1.57 3.5 3.5 3.5.25 0 .492-.028.727-.078 4.14-.777 11.465-7.596 14.941-11.036.087-.045 3.15-3.087 3.15-3.087 2.238-2.237 2.238-5.878.002-8.116zm-18.82 20.318c-.827 0-1.5-.673-1.5-1.5s.673-1.5 1.5-1.5 1.5.673 1.5 1.5-.673 1.5-1.5 1.5z"/></svg>