<svg id="Layer_1" viewBox="0 0 24 24" xmlns="http://www.w3.org/2000/svg" data-name="Layer 1"><path d="m.293 4.707c-.391-.391-.391-1.023 0-1.414l3-3c.391-.391 1.023-.391 1.414 0s.391 1.023 0 1.414l-.793.793 1.125 1.125c.773-.816 2.073-.836 2.868-.039l.318.318-1.432 1.432c-.39.39-.39 1.024 0 1.414.391.391 1.024.391 1.414 0l1.432-1.432 1.574 1.574-1.401 1.401c-.39.39-.39 1.024 0 1.414.391.391 1.024.391 1.414 0l1.272-1.272c.315.581.502 1.228.502 1.901v1.25l.707.707c.391.391.391 1.023 0 1.414s-1.023.391-1.414 0l-.707-.707h-1.25c-1.061 0-2.078-.421-2.828-1.172l-3.922-3.922c-.781-.781-.781-2.047 0-2.828l-1.086-1.164-.793.793c-.391.391-1.023.391-1.414 0zm19.507-.288c-2.438-3.255-6.311-4.866-10.347-4.312-.614.084-1.212.222-1.79.406l4.964 4.964 1.346 1.483c.707 1.152 1.105 2.478 1.027 3.797 1.273 1.148 1.342 3.15.121 4.363-1.164 1.216-3.263 1.145-4.363-.121h-.422c-1.603 0-3.109-.624-4.242-1.757l-5.57-5.569c-.238.743-.406 1.514-.478 2.311-.25 2.768.537 5.5 2.215 7.692.477.623.739 1.458.739 2.354v.971c0 1.654 1.346 3 3 3h7c1.654 0 3-1.346 3-3h.494c2.498 0 4.629-1.868 4.957-4.344l.219-1.656h.33c1.299 0 2-1.03 2-2 0-1.419-2.932-7.014-4.199-8.582z"/></svg>