<?xml version="1.0" encoding="UTF-8"?>
<svg xmlns="http://www.w3.org/2000/svg" id="Layer_1" data-name="Layer 1" viewBox="0 0 24 24">
  <path d="M5,15.73c-.167,.256-.318,.524-.445,.808l-2.643,5.872c-.227,.509-.83,.726-1.322,.502-.504-.227-.729-.819-.502-1.322l2.643-5.872c1.284-2.854,4.128-4.699,7.255-4.715,.02-.009,.663,0,.684-.003,.7,0,1.381,.091,2.046,.236l-7.668,8.764h-.046v-4.27ZM6.115,3h7.997l.319-.826c.27-.787-.287-1.615-1.118-1.661L7.311,.003c-1.131-.063-1.987,1.008-1.675,2.097l.479,.9Zm.885,21h5c1.105,0,2-.895,2-2H5c0,1.105,.895,2,2,2ZM23,15h-4c2.097-.354,5-1.749,5-5,0-.552-.448-1-1-1s-1,.448-1,1c0,2.023-1.813,2.681-3,2.896V1c0-.552-.448-1-1-1s-1,.448-1,1c-.552,0-1,.448-1,1s.448,1,1,1v5c-.552,0-1,.448-1,1v7c0,.553,.448,1,1,1v6c0,.553,.448,1,1,1h1c1.381-.007,2.135-1.175,1.97-2.242l-1.189-4.758h3.219c.552,0,1-.447,1-1s-.448-1-1-1Zm-13-6c2.209,0,4-1.791,4-4H6c0,2.209,1.791,4,4,4Zm4,11v-7.195l-6.296,7.195h6.296Z"/>
</svg>
