<svg id="Layer_1" viewBox="0 0 24 24" xmlns="http://www.w3.org/2000/svg" data-name="Layer 1"><path d="m23.223 18.073c-.268-.388-.654-.675-1.118-.83l-4.348-1.465-.944-1.89c.548-.339 1.064-.697 1.551-1.074.574-.445.374-1.362-.325-1.557l-4.752-1.328c-.476-.216-.322-.929.201-.929h7.486c.576 0 1.096-.327 1.367-.834.151-.283.292-.571.424-.865.273-.61-.186-1.301-.854-1.301-2.476 0-7.467 0-7.467 0-.516 0-.615-.732-.119-.87l8.685-1.981c.672-.153 1.082-.854.863-1.508-.368-1.166-1.698-1.881-2.882-1.57l-8.382 2.064c-1.912.471-3.371 2.019-3.717 3.942-.333 1.85-1.053 3.262-1.441 3.922h-4.025c-1.022.012-3.051.621-3.413 2.839-.11.588.389 1.175.987 1.161h3.029c.903 1.063 3.414 3.807 5.942 4.705l-.762 2.057-.221.276c-1.033.153-1.989.781-1.989 1.962 0 .553.447 1 1 1 .519 0 .945-.395.995-.9.116-.051.341-.097.505-.1.304 0 .591-.138.781-.375.566-.751 2.398-2.881 3.037-3.625h2.583l3.191 3.224c.457.528 1.145.818 1.833.776 1.727-.105 2.475-.899 2.798-1.547.499-.996.321-2.197-.5-3.38z"/></svg>