<svg id="Layer_1" viewBox="0 0 24 24" xmlns="http://www.w3.org/2000/svg" data-name="Layer 1"><path d="m17.923 16.031c.102.181.101.252-.062.445-.596.704-1.343 1.605-2.384 1.522-3.602 0-9.478-5.294-9.478-9.477 0-.602.221-1.158.623-1.568l.938-.849c.111-.112.287-.12.408-.026l1.235 1.57c.256.213.186.452-.033.659l-.588.839c-.193.276-.234.633-.108.946 1.117 2.785 2.749 4.413 5.454 5.445.309.117.658.075.931-.116l.839-.588c.218-.233.437-.311.659-.033l1.564 1.231zm6.077-11.031v14c0 2.757-2.243 5-5 5h-14c-2.757 0-5-2.243-5-5v-14c0-2.757 2.243-5 5-5h14c2.757 0 5 2.243 5 5zm-4.013 11.22c0-.617-.24-1.196-.677-1.633-.028-.028-.058-.054-.089-.079l-1.586-1.249c-.854-.807-2.283-.814-3.146-.021l-.33.231c-1.715-.757-2.807-1.853-3.618-3.632l.226-.322c.394-.427.608-.978.608-1.562 0-.595-.223-1.155-.63-1.585l-1.253-1.592c-.024-.031-.051-.061-.079-.088-.903-.901-2.368-.9-3.229-.035l-.923.833c-.013.011-.025.023-.037.035-.79.79-1.225 1.854-1.225 2.999 0 4.912 6.484 11.418 11.411 11.477.022.001.045.002.068.002 1.146 0 2.211-.435 3.033-1.262l.798-.885c.437-.436.677-1.016.677-1.633z"/></svg>