<svg id="Layer_1" viewBox="0 0 24 24" xmlns="http://www.w3.org/2000/svg" data-name="Layer 1"><path d="m18.944 5h-13.892c.255-1.894 1.918-3 3.948-3 0-1.105.895-2 2-2h2c1.105 0 2 .895 2 2 2.016 0 3.671 1.499 3.944 3zm-9.944 4c.818 0 1.615.184 2.367.545l.763.367c.906-.599 1.947-.913 3.024-.913 1.189-.023 2.569.551 3.685 1h.161v-3h-6c0 .552-.447 1-1 1s-1-.448-1-1h-6v3h.326c1.468-.664 2.702-1 3.674-1zm14 3s-4.764-.007-4.769 0c-1.056-.471-1.564-.894-3.077-1-.871 0-1.705.323-2.348.909l-3.463 3.316c-.371.372-.455.967-.181 1.347.342.507 1.109.573 1.527.135l1.663-1.474c.379-.335.948-.335 1.326 0l5.379 4.767h3.942c.552 0 1-.448 1-1v-6c0-.552-.448-1-1-1zm-10.949 6.172c-1.253 1.256-3.51 1.034-4.51-.43-.846-1.172-.68-2.861.419-3.962l2.541-2.432c-.465-.224-.974-.348-1.5-.348-1.023 0-2.544.67-3.231 1h-4.77c-.552 0-1 .448-1 1v6c0 .552.448 1 1 1h4.531l4.065 3.173c.687.536 1.533.827 2.404.827s1.717-.291 2.404-.827l2.784-2.173-4.142-3.71z"/></svg>