<svg id="Layer_1" viewBox="0 0 24 24" xmlns="http://www.w3.org/2000/svg" data-name="Layer 1"><path d="m21.315 13.796-.608-.342c.08-.485.121-.979.121-1.474 0-.482-.039-.963-.115-1.438l.603-.339c1.442-.811 1.956-2.644 1.145-4.086-.393-.698-1.034-1.202-1.806-1.418-.772-.22-1.583-.12-2.279.273l-.548.308c-.83-.741-1.789-1.321-2.827-1.711v-.57c-.001-1.653-1.347-2.999-3.001-2.999s-3 1.346-3 3v.461c-1.106.369-2.128.951-3.015 1.716l-.359-.202c-.699-.395-1.509-.491-2.28-.274-.771.216-1.413.72-1.806 1.418-.811 1.442-.297 3.275 1.145 4.086l.323.181c-.094.525-.142 1.06-.142 1.596 0 .549.05 1.095.148 1.631l-.329.185c-1.442.811-1.956 2.644-1.145 4.086.81 1.439 2.642 1.952 4.085 1.145l.387-.218c.88.753 1.894 1.327 2.988 1.691v.5c0 1.654 1.346 3 3 3s3-1.346 3-3v-.608c1.028-.386 1.978-.958 2.801-1.688l.574.323c1.44.81 3.274.296 4.085-1.145.811-1.442.297-3.275-1.145-4.086zm-4.315-3.927c0 .625-.506 1.131-1.131 1.131h-2.095c-.688 0-1.033-.832-.546-1.318l.275-.275c-.45-.261-.968-.406-1.503-.406-1.654 0-3 1.346-3 3s1.346 3 3 3c.915 0 1.769-.41 2.342-1.126.346-.43.976-.498 1.406-.154.431.346.5.975.155 1.406-.955 1.19-2.378 1.874-3.903 1.874-2.757 0-5-2.243-5-5s2.243-5 5-5c1.072 0 2.098.353 2.942.968l.74-.74c.487-.487 1.318-.142 1.318.546v2.095z"/></svg>