<svg id="Layer_1" viewBox="0 0 24 24" xmlns="http://www.w3.org/2000/svg" data-name="Layer 1"><path d="m21.893 18.006c.382 0 .751-.061 1.107-.157 0 3.314-2.686 6.151-6 6.151h-10c-3.314 0-6-2.787-6-6.1.238.071.485.127.741.161 2.266.295 3.404.948 4.505 1.906.783.682 1.767 1.022 2.751 1.022s1.973-.342 2.761-1.025c.38-.33.796-.625 1.242-.88.157-.09.5-.315 1 .069 1.517 1.165 3.83 1.014 5.318-.247.322-.273.681-.527 1.065-.754.16-.095.337-.146.51-.146zm-20.893-10.006v-1c0-3.866 3.134-7 7-7h8c3.866 0 7 3.134 7 7v1c0 1.105-.895 2-2 2h-18c-1.105 0-2-.895-2-2zm15-4.5c0 .828.672 1.5 1.5 1.5s1.5-.672 1.5-1.5-.672-1.5-1.5-1.5-1.5.672-1.5 1.5zm-4 3c0 .828.672 1.5 1.5 1.5s1.5-.672 1.5-1.5-.672-1.5-1.5-1.5-1.5.672-1.5 1.5zm10 5.506h-19.957c-1.128 0-2.043.915-2.043 2.044 0 1.012.82 1.873 2 2.027 2.712.354 4.197 1.196 5.559 2.381.827.719 2.059.714 2.887-.004.657-.57 1.385-1.046 2.161-1.423.775-.376 1.704-.217 2.36.342.841.717 2.219.718 3.056.008.42-.356.87-.672 1.341-.951.464-.274.99-.423 1.528-.423h1c.888 0 1.75-.52 2.01-1.369.421-1.373-.594-2.631-1.904-2.631z"/></svg>