<svg id="Layer_1" viewBox="0 0 24 24" xmlns="http://www.w3.org/2000/svg" data-name="Layer 1"><path d="m21 23c0 .552-.448 1-1 1-.552 0-1-.448-1-1 0-.552.448-1 1-1 .552 0 1 .448 1 1zm2-4c-.552 0-1 .448-1 1 0 .552.448 1 1 1 .552 0 1-.448 1-1 0-.552-.448-1-1-1zm-3 0c-.552 0-1 .448-1 1 0 .552.448 1 1 1 .552 0 1-.448 1-1 0-.552-.448-1-1-1zm-2-3v-1c0-1.103-.897-2-2-2h-1c-1.103 0-2 .897-2 2v1c0 1.103.897 2 2 2h1c1.103 0 2-.897 2-2zm-2-1v1s-1 0-1 0v-1zm2 7v-1c0-1.103-.897-2-2-2h-1c-1.103 0-2 .897-2 2v1c0 1.103.897 2 2 2h1c1.103 0 2-.897 2-2zm-2-1v1s-1 0-1 0v-1zm8-5v-1c0-1.103-.897-2-2-2h-1c-1.103 0-2 .897-2 2v1c0 1.103.897 2 2 2h1c1.103 0 2-.897 2-2zm-2-1v1s-1 0-1 0v-1zm-12-9c-1.654 0-3 1.346-3 3h6c0-1.654-1.346-3-3-3zm1 16v-1c0-.951.347-1.813.903-2.5-.128-.158-.243-.323-.346-.5h-8.557c-1.657 0-3 1.343-3 3s1.343 3 3 3h8.556c-.344-.591-.556-1.268-.556-2zm-8-6h8v-1c0-2.206 1.794-4 4-4h-10c-.552 0-1-.448-1-1s.448-1 1-1c0-2.414 1.721-4.434 4-4.899v-.601c0-.552.448-1 1-1s1 .448 1 1v.601c2.279.465 4 2.484 4 4.899.552 0 1 .448 1 1s-.448 1-1 1h1c.951 0 1.813.347 2.5.903.436-.353.942-.616 1.5-.761v-6.142c0-2.761-2.239-5-5-5h-10.033c-2.743 0-4.967 2.229-4.967 4.973v12.052c.699-.527 1.525-.86 2.395-.964.199-.041.402-.061.605-.061z"/></svg>