<svg id="Layer_1" viewBox="0 0 24 24" xmlns="http://www.w3.org/2000/svg" data-name="Layer 1"><path d="m4 23.899c-2.279-.465-4-2.484-4-4.899v-9c0-2.414 1.721-4.434 4-4.899zm20-13.899v9c0 2.757-2.243 5-5 5h-13v-19h6.922l-1.066 1.066c-1.196 1.196-1.855 2.787-1.855 4.479v.954c0 1.379 1.121 2.5 2.5 2.5h.955c1.691 0 3.282-.659 4.479-1.855l2.066-2.066v.922c0 .553.447 1 1 1s1-.447 1-1v-2c0-.256-.103-.484-.261-.661l1.283-1.283c.608.828.979 1.84.979 2.943zm-12 10c0-.553-.447-1-1-1h-1v-1c0-.553-.447-1-1-1s-1 .447-1 1v2c0 .553.447 1 1 1h2c.553 0 1-.447 1-1zm10-2c0-.553-.447-1-1-1s-1 .447-1 1v1h-1c-.553 0-1 .447-1 1s.447 1 1 1h2c.553 0 1-.447 1-1zm-1.923-17.327c.953-.953 2.534-.894 3.409.176.761.93.598 2.317-.252 3.167l-6.715 6.715c-.813.813-1.915 1.269-3.064 1.269h-.955c-.276 0-.5-.224-.5-.5v-.954c0-1.15.457-2.252 1.27-3.065z"/></svg>