<svg id="Layer_1" viewBox="0 0 24 24" xmlns="http://www.w3.org/2000/svg" data-name="Layer 1"><path d="m14.333 9h-.333v13.523c0 .337-.404.51-.648.278l-1.352-1.301-1.352 1.301c-.244.233-.648.06-.648-.278v-13.523h-.333c-2.917 0-4.667-1.167-4.665-3.617.002-1.935 1.658-3.448 3.558-3.381s3.206 1.558 3.44 3.535c.234-1.978 1.541-3.469 3.44-3.535 1.9-.067 3.556 1.446 3.558 3.381.002 2.45-1.748 3.617-4.665 3.617zm-10.888-.915c-1.689-.473-3.494.945-3.446 2.697v4.437c-.048 1.751 1.758 3.171 3.446 2.697 1.341-.336 2.901-.731 4.554-.995l-.065-8.075c-1.728-.293-3.351-.476-4.489-.762zm19.483.502c-.677-.528-1.544-.711-2.375-.502-1.139.285-2.892.468-4.62.762l.065 8.075c1.954.258 3.539.871 5.232 1.079 1.48.029 2.804-1.291 2.768-2.781v-4.437c0-.864-.39-1.664-1.071-2.195z"/></svg>