<?xml version="1.0" encoding="UTF-8"?>
<svg xmlns="http://www.w3.org/2000/svg" id="Layer_1" data-name="Layer 1" viewBox="0 0 24 24">
  <path d="m20,3H4C1.791,3,0,4.791,0,7v10c0,2.209,1.791,4,4,4h16c2.209,0,4-1.791,4-4V7c0-2.209-1.791-4-4-4Zm-13.425,13h0c-.402,0-.758-.26-.881-.643l-1.094-3.412v3.254c0,.442-.358.8-.8.8h0c-.442,0-.8-.358-.8-.8v-6.271c0-.513.417-.927.929-.924h0c.4.002.753.261.875.642l1.095,3.416v-3.263c0-.442.358-.8.8-.8h0c.442,0,.8.358.8.8v6.275c0,.511-.414.925-.925.925Zm5.625-6.4h-1.101v1.801h1.101c.442,0,.8.358.8.8h0c0,.442-.358.8-.8.8h-1.101v1.4h1.101c.442,0,.8.358.8.8h0c0,.442-.358.8-.8.8h-1.9c-.442,0-.8-.358-.8-.8v-6.4c0-.442.358-.8.8-.8h1.9c.442,0,.8.358.8.8h0c0,.442-.358.8-.8.8Zm8.598,5.4c-.04.705-.439,1-.917,1-.318,0-.613-.242-.781-.64l-1.08-2.56-1.08,2.56c-.168.398-.463.64-.781.64-.479,0-.878-.295-.917-1l-.414-6.143c-.031-.463.337-.855.801-.854h0c.42.002.767.327.795.746l.216,3.206.643-1.523c.275-.652,1.199-.652,1.474,0l.643,1.523.216-3.2c.028-.417.372-.742.79-.746h0c.466-.005.838.389.806.854l-.413,6.138Z"/>
</svg>
