<svg id="Layer_1" viewBox="0 0 24 24" xmlns="http://www.w3.org/2000/svg" data-name="Layer 1"><path d="m11.014 8.53 4.065 2.287c.923.519.923 1.848 0 2.367l-4.065 2.287c-.905.509-2.024-.145-2.024-1.184v-4.573c0-1.039 1.119-1.693 2.024-1.184zm-6.085 11.955c.391-.391.391-1.023 0-1.414-3.898-3.899-3.898-10.244 0-14.143.391-.391.391-1.023 0-1.414s-1.023-.391-1.414 0c-4.679 4.679-4.679 12.293 0 16.971.391.391 1.023.391 1.414 0zm15.556 0c4.678-4.679 4.678-12.292 0-16.971-.391-.391-1.023-.391-1.414 0s-.391 1.023 0 1.414c3.898 3.899 3.898 10.244 0 14.143-.391.391-.391 1.023 0 1.414s1.023.391 1.414 0zm-12.728-2.828c.391-.391.391-1.024 0-1.414-1.133-1.133-1.757-2.64-1.757-4.243s.624-3.109 1.757-4.243c.391-.39.391-1.023 0-1.414s-1.023-.391-1.414 0c-1.511 1.511-2.343 3.52-2.343 5.657s.832 4.146 2.343 5.657c.391.391 1.023.391 1.414 0zm9.9 0c1.511-1.511 2.343-3.52 2.343-5.657s-.832-4.146-2.343-5.657c-.391-.391-1.023-.391-1.414 0s-.391 1.024 0 1.414c1.133 1.133 1.757 2.64 1.757 4.243s-.624 3.109-1.757 4.243c-.391.39-.391 1.023 0 1.414s1.023.391 1.414 0z"/></svg>