<?xml version="1.0" encoding="UTF-8"?>
<svg xmlns="http://www.w3.org/2000/svg" id="Layer_1" data-name="Layer 1" viewBox="0 0 24 24">
  <path d="m23.707,22.293l-2.54-2.54c.524-.791.833-1.736.833-2.753,0-2.757-2.243-5-5-5s-5,2.243-5,5,2.243,5,5,5c1.017,0,1.962-.309,2.753-.833l2.54,2.54c.195.195.451.293.707.293s.512-.098.707-.293c.391-.391.391-1.023,0-1.414ZM12.618,1.529C12.062.572,11.069,0,9.962,0c-1.109,0-2.104.572-2.661,1.531L.423,13.38c-.56.963-.563,2.113-.008,3.079.556.965,1.552,1.541,2.664,1.541h7c-.047-.327-.08-.66-.08-1,0-.917.181-1.79.502-2.592-.158.056-.325.092-.502.092-.828,0-1.5-.672-1.5-1.5s.672-1.5,1.5-1.5c.732,0,1.339.524,1.471,1.217,1.281-1.651,3.278-2.717,5.529-2.717.174,0,.345.014.516.026L12.618,1.529Zm-1.618,7.471c0,.552-.447,1-1,1s-1-.448-1-1v-3c0-.552.447-1,1-1s1,.448,1,1v3Z"/>
</svg>
