<svg id="Layer_1" viewBox="0 0 24 24" xmlns="http://www.w3.org/2000/svg" data-name="Layer 1"><path d="m11 2.5c0-1.381 1.119-2.5 2.5-2.5s2.5 1.119 2.5 2.5-1.119 2.5-2.5 2.5-2.5-1.119-2.5-2.5zm12.319 9.232c-.43-.377-.999-.553-1.57-.479-3.656.475-7.209.747-9.749.747s-6.093-.272-9.75-.747c-.566-.075-1.141.101-1.571.479-.432.379-.679.927-.679 1.503v.402c0 1.419.903 2.52 2.198 2.677 3.039.367 6.043.6 8.482.665l2.851 1.782c.294.184.47.5.47.848v3.392c0 .552.447 1 1 1s1-.448 1-1v-3.392c0-1.042-.527-1.993-1.41-2.544l-.197-.123c2.222-.097 4.803-.313 7.41-.627 1.253-.151 2.197-1.219 2.197-2.483v-.594c0-.577-.248-1.125-.681-1.505zm-13.906 7.137c-.507-.217-1.096.018-1.313.525-.158.369-.519.606-.919.606h-3.181c-.552 0-1 .448-1 1s.448 1 1 1h3.181c1.202 0 2.284-.714 2.757-1.818.218-.508-.018-1.096-.525-1.313zm-4.799-13.007c.384 1.278 1.539 2.138 2.874 2.138h1.726l-.764 1.863c1.313.088 2.522.137 3.55.137.906 0 1.95-.037 3.084-.106l.792-1.894h2.136c1.335 0 2.49-.859 2.874-2.138l1.072-3.575c.158-.529-.142-1.086-.671-1.245-.531-.161-1.087.142-1.245.671l-1.072 3.574c-.128.426-.513.713-.958.713h-10.524c-.445 0-.83-.287-.958-.712l-1.072-3.575c-.158-.529-.715-.829-1.245-.671-.529.159-.83.716-.671 1.245z"/></svg>