<svg id="Layer_1" viewBox="0 0 24 24" xmlns="http://www.w3.org/2000/svg" data-name="Layer 1"><path d="m2.997 21.876c.048.006.22.026.494.048l-1.783 1.783c-.195.195-.451.293-.707.293s-.512-.098-.707-.293c-.391-.391-.391-1.023 0-1.414l1.783-1.783c.023.274.042.445.048.493.056.457.416.817.872.873zm20.271-11.876c.508-2.044.695-4.076.731-5.813.016-.786-.186-1.54-.578-2.193l-8.007 8.006zm-16.268-5.698c-.119.11-.237.224-.353.339-5.095 5.095-4.749 13.701-4.571 15.869l4.924-4.924zm14.217 10.698c.594-.954 1.068-1.967 1.444-3h-9.247l-3 3zm-15.594 7.006c3.504 0 9.714-.631 13.735-4.652.116-.116.229-.234.34-.354h-11.284l-4.924 4.924c.457.037 1.199.082 2.133.082zm14.19-22.006c-1.738.036-3.769.223-5.813.731v7.854l8.005-8.004c-.657-.392-1.415-.592-2.192-.581zm-7.813 1.338c-1.033.376-2.045.85-3 1.444v10.804l3-3v-9.247z"/></svg>