<svg id="Layer_1" viewBox="0 0 24 24" xmlns="http://www.w3.org/2000/svg" data-name="Layer 1"><path d="m9 10c0 1.321-.731 2.22-1.5 2.799-.768-.58-1.5-1.479-1.5-2.799s.731-2.22 1.499-2.8c.769.58 1.501 1.479 1.501 2.8zm2 5.493c0 .832-.675 1.507-1.507 1.507h-1.004l.49 2.5c.152.914-.553 1.5-1.479 1.5s-1.632-.586-1.479-1.5l.4-2.5h-.914c-.832 0-1.507-.675-1.507-1.507-2.575-.849-4-2.746-4-5.493s1.425-4.644 4-5.493c0-.832.675-1.507 1.507-1.507h.993v-2c0-.552.448-1 1-1s1 .448 1 1v2h.993c.832 0 1.507.675 1.507 1.507 2.575.85 4 2.747 4 5.493s-1.425 4.644-4 5.493zm0-5.493c0-2.692-1.875-4.201-2.993-4.861-.313-.186-.703-.186-1.017 0-1.117.66-2.99 2.168-2.99 4.861s1.875 4.201 2.993 4.861c.157.093.333.139.508.139s.352-.047.509-.14c1.117-.66 2.99-2.169 2.99-4.86zm5.5 5.799c.768-.58 1.5-1.479 1.5-2.799 0-1.048-.463-1.827-1.038-2.395-.103 1.587-.608 2.979-1.471 4.116.276.442.637.799 1.009 1.079zm3.5-8.293c0-.832-.675-1.507-1.507-1.507h-.993v-4.999c0-.552-.448-1-1-1s-1 .448-1 1v4.292c.603.798 1.033 1.719 1.27 2.747.082.023.162.056.237.1 1.118.66 2.993 2.169 2.993 4.861s-1.874 4.2-2.99 4.86c-.157.093-.333.14-.509.14s-.352-.046-.508-.139c-.57-.337-1.334-.897-1.949-1.719-.422.312-.871.601-1.375.837-.185.395-.443.748-.755 1.046.338.177.693.339 1.085.468 0 .832.675 1.507 1.507 1.507h.914l-.4 2.5c-.152.914.553 1.5 1.479 1.5s1.632-.586 1.479-1.5l-.49-2.5h1.004c.832 0 1.507-.675 1.507-1.507 2.575-.849 4-2.746 4-5.493s-1.425-4.644-4-5.493z"/></svg>