<?xml version="1.0" encoding="UTF-8"?>
<svg xmlns="http://www.w3.org/2000/svg" id="Layer_1" data-name="Layer 1" viewBox="0 0 24 24">
  <path d="m22.5,24h-3c-.828,0-1.5-.672-1.5-1.5s.672-1.5,1.5-1.5h3c.828,0,1.5.672,1.5,1.5s-.672,1.5-1.5,1.5Zm1.5-11.5c0-.828-.672-1.5-1.5-1.5h-3c-.828,0-1.5.672-1.5,1.5s.672,1.5,1.5,1.5h3c.828,0,1.5-.672,1.5-1.5Zm-8,10c0-.828-.672-1.5-1.5-1.5h-3c-.829,0-1.5.672-1.5,1.5s.671,1.5,1.5,1.5h3c.828,0,1.5-.672,1.5-1.5Zm2-5c0-.828-.672-1.5-1.5-1.5h-2c-.828,0-1.5.672-1.5,1.5s.672,1.5,1.5,1.5h2c.828,0,1.5-.672,1.5-1.5Zm6,0c0-.828-.672-1.5-1.5-1.5h-1c-.828,0-1.5.672-1.5,1.5s.672,1.5,1.5,1.5h1c.828,0,1.5-.672,1.5-1.5ZM2.999,7h12c.552,0,1-.448,1-1s-.448-1-1-1h-.023C14.737,2.365,12.633.261,9.999.023v2.977c0,.552-.448,1-1,1s-1-.448-1-1V.023c-2.634.239-4.738,2.343-4.977,4.977h-.023c-.552,0-1,.448-1,1s.448,1,1,1Zm.002,2.146c.078,3.241,2.738,5.854,5.998,5.854s5.92-2.613,5.998-5.854l.002-.146H2.999l.002.146Zm4.999,13.354c0-1.881,1.496-3.41,3.359-3.486-.223-.46-.359-.97-.359-1.514,0-.439.091-.856.239-1.243-.717-.162-1.465-.257-2.24-.257C4.284,16,.422,19.231.007,22.876c-.032.285.053.571.243.786.189.215.463.338.75.338h7.352c-.219-.456-.351-.961-.351-1.5Z"/>
</svg>
