<svg id="Layer_1" viewBox="0 0 24 24" xmlns="http://www.w3.org/2000/svg" data-name="Layer 1"><path d="m5 5h-5c0-2.757 2.243-5 5-5zm2 0h17c0-2.757-2.243-5-5-5h-12zm-2 2h-5v12c0 2.757 2.243 5 5 5zm15.626 10.75c.375-.389.372-1.006-.006-1.392-.394-.403-1.044-.401-1.435.006l-1.592 1.653-.524-.483c-.4-.368-1.02-.349-1.397.042-.389.404-.369 1.049.044 1.429l.457.42c.766.765 2.079.763 2.823.019l.004-.004 1.626-1.689zm-8.5-8c.375-.389.372-1.006-.006-1.392-.394-.403-1.044-.401-1.435.006l-1.592 1.653-.524-.483c-.4-.368-1.02-.349-1.397.042-.389.404-.369 1.049.044 1.429l.457.42c.766.765 2.079.763 2.823.019l.004-.004 1.626-1.689zm1.874-2.75v7h8v4.5c0 1.933-1.567 3.5-3.5 3.5h-4.5v-8h-7v10h12c2.757 0 5-2.243 5-5v-12z"/></svg>