<svg id="Layer_1" viewBox="0 0 24 24" xmlns="http://www.w3.org/2000/svg" data-name="Layer 1"><path d="m14 7v-6.54c.913.346 1.753.879 2.465 1.59l3.484 3.486c.712.711 1.245 1.551 1.591 2.464h-6.54c-.552 0-1-.449-1-1zm-1.771 7.985c0-.394-.342-.726-.75-.733-.402.007-.725.333-.724.736 0 .095.008 1.886.008 2.024 0 .403.322.729.724.736.408-.007.75-.338.75-.733l-.008-2.015zm9.747-4.985h-6.976c-1.654 0-3-1.346-3-3v-6.976c-.161-.011-.322-.024-.485-.024h-4.515c-2.757 0-5 2.243-5 5v14c0 2.757 2.243 5 5 5h10c2.757 0 5-2.243 5-5v-8.515c0-.163-.013-.324-.024-.485zm-13.254 8.368c0 .346-.28.627-.626.627l-1.468.003c-.347 0-.629-.28-.629-.627l-.005-4.744c0-.347.281-.628.628-.628s.627.28.627.626c.001 1.249.003 2.869.004 4.118.71-.001.592-.003.837-.004.348-.002.631.28.631.628zm4.765-1.353c0 1.094-.902 1.985-2.012 1.985-1.086 0-1.967-.881-1.967-1.967l-.008-2.066c0-1.086.881-1.967 1.967-1.967 1.109 0 2.012.891 2.012 1.985v.015l.008 2zm5 0c0 1.094-.902 1.985-2.012 1.985-1.086 0-1.967-.881-1.967-1.967l-.008-2.066c0-1.086.881-1.967 1.967-1.967.772 0 1.445.432 1.782 1.064.223.417-.08.921-.553.921-.228 0-.441-.122-.548-.324-.125-.237-.38-.404-.669-.409-.402.007-.725.333-.724.736 0 .095.008 1.886.008 2.024 0 .403.322.729.724.736.32-.005.593-.212.698-.491-.036 0-.063 0-.085 0-.349.004-.633-.278-.633-.627 0-.346.28-.626.625-.627l.766-.002c.346-.001.627.278.628.624v.374s.001.015.001.015z"/></svg>