<svg id="Layer_1" viewBox="0 0 24 24" xmlns="http://www.w3.org/2000/svg" data-name="Layer 1"><path d="m12 .508c.502.242.973.551 1.378.957l3.157 3.156c.406.406.715.877.957 1.379h-4.492c-.551 0-1-.448-1-1zm12 17.492v2c0 2.206-1.794 4-4 4h-4c-2.206 0-4-1.794-4-4v-2c0-1.474.81-2.75 2-3.444v-1.556c0-2.206 1.794-4 4-4s4 1.794 4 4v1.556c1.19.694 2 1.97 2 3.444zm-4.5 1c0-.828-.672-1.5-1.5-1.5s-1.5.672-1.5 1.5.672 1.5 1.5 1.5 1.5-.672 1.5-1.5zm.5-6c0-1.103-.897-2-2-2s-2 .897-2 2v1h4zm-10 7v-2c0-1.704.745-3.321 2-4.448v-.552c0-2.086 1.071-3.924 2.69-5h-1.69c-1.654 0-3-1.346-3-3v-4.985c-.053-.002-.104-.015-.157-.015h-4.843c-2.757 0-5 2.243-5 5v12c0 2.757 2.243 5 5 5h5.35c-.223-.627-.35-1.298-.35-2z"/></svg>