<svg id="Layer_1" viewBox="0 0 24 24" xmlns="http://www.w3.org/2000/svg" data-name="Layer 1"><path d="m24 19c0 .552-.447 1-1 1v1c0 .552-.447 1-1 1s-1-.448-1-1v-4c0-.552.447-1 1-1s1 .448 1 1v1c.553 0 1 .448 1 1zm-16-3c-.553 0-1 .448-1 1v1c-.553 0-1 .448-1 1s.447 1 1 1v1c0 .552.447 1 1 1s1-.448 1-1v-4c0-.552-.447-1-1-1zm11-2c-.553 0-1 .448-1 1v3h-6v-3c0-.552-.447-1-1-1s-1 .448-1 1v8c0 .552.447 1 1 1s1-.448 1-1v-3h6v3c0 .552.447 1 1 1s1-.448 1-1v-8c0-.552-.447-1-1-1zm-10.821.018c.409-1.171 1.513-2.018 2.821-2.018 1.654 0 3 1.346 3 3v.596c1.788-1.053 3-3.082 3-5.414 0-3.33-2.47-6.038-5.562-6.169.115-.088.234-.169.339-.274.758-.758 1.104-1.853 1.213-2.643.088-.635-.451-1.174-1.086-1.086-.79.109-1.885.455-2.643 1.213-.29.29-.502.627-.674.973-.256-.833-.562-1.405-.709-1.675-.265-.485-.872-.664-1.357-.398-.484.265-.663.872-.398 1.357.297.543.661 1.364.806 2.521h-1.133c-3.201-.001-5.796 2.767-5.796 6.181 0 3.158 2.222 5.759 5.089 6.131.312-1.323 1.495-2.313 2.911-2.313.061 0 .118.014.179.018z"/></svg>