<svg id="Layer_1" viewBox="0 0 24 24" xmlns="http://www.w3.org/2000/svg" data-name="Layer 1"><path d="m1.927 10.269c.301-.357.847-.359 1.151-.004.738.864 1.922 2.832 1.922 4.235 0 1.381-1.119 2.5-2.5 2.5s-2.5-1.119-2.5-2.5c0-1.371 1.189-3.358 1.927-4.231zm2.073 11.231c0 1.381 1.119 2.5 2.5 2.5s2.5-1.119 2.5-2.5c0-1.403-1.184-3.372-1.922-4.235-.303-.355-.849-.353-1.151.004-.738.874-1.927 2.861-1.927 4.231zm15-7c0 1.381 1.119 2.5 2.5 2.5s2.5-1.119 2.5-2.5c0-1.403-1.184-3.372-1.922-4.235-.303-.355-.849-.353-1.151.004-.738.874-1.927 2.861-1.927 4.231zm-7-14.5c-5.124 0-9.417 3.509-10.64 8.251.355-.162.744-.251 1.144-.251.806 0 1.568.352 2.093.965.117.136.272.341.439.573.179-1.757 1.338-3.538 2.964-3.538 1.768 0 3 2.108 3 4 0 .552-.448 1-1 1s-1-.448-1-1c0-1.054-.679-2-1-2s-1 .946-1 2c.004.562-.495 1.057-1.061.988.564 1.048 1.061 2.316 1.061 3.512 0 .188-.033.366-.055.548.487.079.944.282 1.323.596-.137-.196-.196-.449-.126-.705.465-1.694 2.016-2.939 3.858-2.939s3.393 1.245 3.858 2.939c.146.532-.245 1.061-.797 1.061h-6.435c.838.993 2.374 3.368 2.374 5.5 0 .153-.03.298-.045.447.344.032.692.053 1.045.053 3.084 0 5.868-1.273 7.866-3.318-1.674-.656-2.866-2.278-2.866-4.182 0-1.186.506-2.461 1.074-3.515-.569.083-1.079-.419-1.074-.985 0-1.054-.68-2-1-2s-1 .946-1 2c0 .552-.447 1-1 1s-1-.448-1-1c0-1.892 1.232-4 3-4 1.629 0 2.79 1.789 2.965 3.551.165-.231.319-.436.435-.573.522-.619 1.286-.975 2.096-.978.4-.001.788.086 1.143.246-1.225-4.74-5.517-8.246-10.639-8.246z"/></svg>