<svg id="Layer_1" viewBox="0 0 24 24" xmlns="http://www.w3.org/2000/svg" data-name="Layer 1"><path d="m7 12c0 1.654 1.346 3 3 3h14v-6h-14c-1.654 0-3 1.346-3 3zm7.5-1.5c.828 0 1.5.672 1.5 1.5s-.672 1.5-1.5 1.5-1.5-.672-1.5-1.5.672-1.5 1.5-1.5zm9.5 6.5v1c0 2.757-2.243 5-5 5h-1.91c-.756 0-1.474-.281-2.022-.792-1.672-1.558-4.463-1.558-6.135 0-.549.511-1.267.792-2.022.792h-1.91c-2.757 0-5-2.243-5-5v-12c-.001-2.757 2.242-5 4.999-5h1.91c.756 0 1.474.281 2.022.792 1.672 1.558 4.463 1.558 6.135 0 .549-.511 1.267-.792 2.022-.792h1.91c2.757 0 5 2.243 5 5v1h-14c-2.757 0-5 2.243-5 5s2.243 5 5 5h14z"/></svg>