<svg id="Layer_1" viewBox="0 0 24 24" xmlns="http://www.w3.org/2000/svg" data-name="Layer 1"><path d="m11.5 11c0 .552-.447 1-1 1h-.5v.5c0 .552-.447 1-1 1s-1-.448-1-1v-1.5c0-.552.447-1 1-1h1.5c.553 0 1 .448 1 1zm-1 5h-.5v-.5c0-.552-.447-1-1-1s-1 .448-1 1v1.5c0 .552.447 1 1 1h1.5c.553 0 1-.448 1-1s-.447-1-1-1zm4.5-1.5c-.553 0-1 .448-1 1v.5h-.5c-.553 0-1 .448-1 1s.447 1 1 1h1.5c.553 0 1-.448 1-1v-1.5c0-.552-.447-1-1-1zm0-4.5h-1.5c-.553 0-1 .448-1 1s.447 1 1 1h.5v.5c0 .552.447 1 1 1s1-.448 1-1v-1.5c0-.552-.447-1-1-1zm9-4v13.548c0 1.575-1.056 3.057-2.972 4.174-.314.184-.668.275-1.021.275-.348 0-.695-.089-1.006-.267-.628-.36-1.002-1.007-1.002-1.73v-10.678c0-1.122.628-2.144 1.64-2.667 1.5-.777 2.36-1.746 2.36-2.656 0-1.932-4.019-4-10-4s-9.999 2.069-9.999 4.001c0 .911.86 1.879 2.36 2.656 1.012.523 1.64 1.545 1.64 2.667v10.678c0 .723-.374 1.37-1.002 1.73-.311.178-.657.267-1.005.267-.354 0-.707-.092-1.021-.275-1.916-1.117-2.972-2.6-2.972-4.174v-13.549c0-3.477 5.047-6 12-6s12 2.523 12 6z"/></svg>