<svg id="Layer_1" viewBox="0 0 24 24" xmlns="http://www.w3.org/2000/svg" data-name="Layer 1"><path d="m15 5.001h-6c-.552 0-1-.448-1-1v-3.5c0-.198.116-.376.297-.457.181-.08.392-.047.538.085l1.377 1.242.856-.955c.498-.555 1.367-.555 1.864 0l.856.955 1.377-1.242c.146-.131.356-.164.538-.085.181.081.297.259.297.457v3.5c0 .552-.448 1-1 1zm-5 3.999c0 1.103.897 2 2 2s2-.897 2-2-.892-1.994-1.99-1.999h-.019c-1.099.005-1.99.899-1.99 1.999zm8-7.376v2.377c0 1.51-1.125 2.75-2.579 2.957.359.6.579 1.293.579 2.042 0 2.206-1.794 4-4 4s-4-1.794-4-4c0-.749.22-1.442.579-2.042-1.454-.207-2.579-1.447-2.579-2.957v-2.377c-3.581 2.078-6 5.946-6 10.376s2.416 8.311 6 10.389v-1.389c0-3.309 2.691-6 6-6s6 2.691 6 6v1.389c3.584-2.078 6-5.956 6-10.389s-2.419-8.298-6-10.376zm-6 15.376c-2.206 0-4 1.794-4 4v2.314c1.252.444 2.598.686 4 .686s2.748-.242 4-.686v-2.314c0-2.206-1.794-4-4-4z"/></svg>