<svg id="Layer_1" viewBox="0 0 24 24" xmlns="http://www.w3.org/2000/svg" data-name="Layer 1"><path d="m9 2c-1.074 0-2.089.251-3 .685v-1.685c0-.553.447-1 1-1h10c.553 0 1 .447 1 1v1.685c-.911-.435-1.926-.685-3-.685zm0 20c-1.074 0-2.089-.251-3-.685v1.685c0 .553.447 1 1 1h10c.553 0 1-.447 1-1v-1.685c-.911.435-1.926.685-3 .685zm11-13v6c0 2.757-2.243 5-5 5h-6c-2.757 0-5-2.243-5-5v-6c0-2.757 2.243-5 5-5h6c2.757 0 5 2.243 5 5zm-3 .381c0-.603-.218-1.208-.677-1.667l-.5-.435c-.372-.372-.975-.372-1.347 0l-.833 1.085c-.372.372-.372.975 0 1.347l.709.891c-.751 1.87-2.024 3.091-3.75 3.75l-.891-.709c-.372-.372-.975-.372-1.347 0l-1.085.833c-.372.372-.372.975 0 1.347l.435.5c.459.46 1.064.677 1.667.677 3.095 0 7.619-4.286 7.619-7.619z"/></svg>