<svg id="Layer_1" viewBox="0 0 24 24" xmlns="http://www.w3.org/2000/svg" data-name="Layer 1"><path d="m19.777 3.222c-2.077-2.077-4.839-3.222-7.777-3.222s-5.7 1.145-7.778 3.222c-4.289 4.289-4.289 11.267.028 15.584l3.943 3.642c1.024 1.001 2.375 1.553 3.807 1.553s2.784-.552 3.787-1.533l3.991-3.688c4.289-4.289 4.289-11.268 0-15.557zm-4.777 11.778c-1.381 0-2.5-1.119-2.5-2.5 0-.333.068-.649.186-.939l-1.234.463c.03.154.048.313.048.476 0 1.381-1.119 2.5-2.5 2.5s-2.5-1.119-2.5-2.5 1.119-2.5 2.5-2.5c.121 0 .237.019.354.036l-.188-1.036h-.666c-.552 0-1-.447-1-1s.448-1 1-1h.666c.967 0 1.795.69 1.968 1.643l.065.357h2.15l-.182-1h-.666c-.552 0-1-.447-1-1s.448-1 1-1h.665c.731 0 1.382.396 1.731 1h.604c.553 0 1 .447 1 1s-.447 1-1 1h-.12l.195 1.073c1.102.26 1.925 1.245 1.925 2.427 0 1.381-1.119 2.5-2.5 2.5z"/></svg>