<svg id="Layer_1" viewBox="0 0 24 24" xmlns="http://www.w3.org/2000/svg" data-name="Layer 1"><path d="m21 14h-6c-1.657 0-3 1.343-3 3v4c0 1.657 1.343 3 3 3h6c1.657 0 3-1.343 3-3v-4c0-1.657-1.343-3-3-3zm-2.33 8.001c-.253 0-.479-.157-.568-.393l-.352-.934h-1.983l-.351.931c-.089.236-.316.393-.569.393h.001c-.426 0-.72-.426-.568-.824l1.787-4.691c.11-.29.388-.482.699-.482s.59.193.7.484l1.772 4.695c.149.397-.144.821-.568.821zm2.829-.619c0 .341-.277.618-.618.618s-.618-.277-.618-.618v-4.764c0-.341.277-.618.618-.618s.618.277.618.618zm-4.735-3.325.53 1.404h-1.065zm-9.764-2.334v.277c0 .551.449 1 1 1h2c0-2.757 2.243-5 5-5h4.899c-.327-1.605-1.434-2.919-2.899-3.564v-1.436c0-3.86-3.14-7-7-7s-7 3.14-7 7v1.424c-1.763.774-3 2.531-3 4.576v6c0 2.757 2.243 5 5 5h6.026c-.635-.838-1.026-1.87-1.026-3v-2h-2c-1.654 0-3-1.346-3-3v-.277c-.595-.346-1-.984-1-1.723 0-1.105.895-2 2-2s2 .895 2 2c0 .738-.405 1.376-1 1.723zm-2-7.723v-1c0-2.757 2.243-5 5-5s5 2.243 5 5v1z"/></svg>