<svg id="Layer_1" viewBox="0 0 24 24" xmlns="http://www.w3.org/2000/svg" data-name="Layer 1"><path d="m13 2.5c0-1.381 1.119-2.5 2.5-2.5s2.5 1.119 2.5 2.5-1.119 2.5-2.5 2.5-2.5-1.119-2.5-2.5zm6.933 14.589-1.444 6.14c-.108.46-.52.771-.973.771-.635.008-1.128-.612-.975-1.229l1.444-6.14c.034-.402-.1-.571-.499-.631h-6.485c-1.878.052-3.427-1.897-2.906-3.711l1.749-4.949c.166-.753.607-1.402 1.249-1.835.664-.449 1.462-.612 2.25-.459.787.153 1.431.71 1.916 1.267.009.011 4.109 5.057 4.109 5.057.349.428.284 1.058-.144 1.407-.426.347-1.058.286-1.407-.144l-3.202-3.824-1.615 5.192h4.486c.772 0 1.49.347 1.97.953.479.605.653 1.384.477 2.136zm-14.933-.089v-8c0-.552-.447-1-1-1s-1 .448-1 1v14c0 .552.448 1 1 1h5c.552 0 1-.448 1-1 0 0 0-1 1-1h.181c2.956 0 4.287-1.827 4.77-3.472.224-.764-.357-1.528-1.153-1.528z"/></svg>