<svg id="Layer_1" viewBox="0 0 24 24" xmlns="http://www.w3.org/2000/svg" data-name="Layer 1"><path d="m22.894 3.246c-1.425 3.048-3.385 5.866-6.061 8.502l-8.32 8.304 1.194 1.241c.391.391.391 1.023 0 1.414s-1.023.391-1.414 0l-2.793-2.793-2.793 2.793c-.391.391-1.023.391-1.414 0s-.391-1.023 0-1.414l2.793-2.793-2.793-2.793c-.391-.391-.391-1.023 0-1.414s1.023-.391 1.414 0l1.277 1.229 8.326-8.311c1.745-1.895 4.961-4.367 8.454-6.05 1.332-.642 2.756.746 2.13 2.085zm-18.939 9.479 6.942-6.93c1.347-1.464 3.308-3.041 5.43-4.414l-4.013-1.33c-.205-.067-.425-.067-.63 0l-6.258 2.075c-2.05.679-3.427 2.586-3.427 4.746v5.136c.698 0 1.396.233 1.956.716zm14.281.448-6.924 6.912c.89 1.052.911 2.613.067 3.722.185.088.44.193.622.193.308 0 .791-.24.791-.24 2.161-.869 9.208-4.283 9.208-11.717v-3.287c-1.093 1.55-2.34 3.015-3.764 4.417z"/></svg>