<svg id="Layer_1" viewBox="0 0 24 24" xmlns="http://www.w3.org/2000/svg" data-name="Layer 1"><path d="m15.6 19.288h1.101c.442 0 .8.358.8.8 0 .442-.358.8-.8.8h-1.101v1.551h1.101c.442 0 .8.358.8.8 0 .442-.358.8-.8.8h-1.9c-.442 0-.8-.358-.8-.8v-6.4c0-.442.358-.8.8-.8h1.9c.442 0 .8.358.8.8 0 .442-.358.8-.8.8h-1.101v1.65zm8.364 2.768c-.2 1.169-1.288 1.982-2.474 1.982h-1.49c-.552 0-1-.448-1-1v-6.038c0-.552.448-1 1-1h1.104c1.347 0 2.596 1.1 2.569 2.447-.011.526-.197 1.006-.495 1.397.595.523.938 1.326.786 2.212zm-2.69-4.457h-.674v1.599h.674c.442 0 .8-.358.8-.8s-.358-.8-.8-.8zm1.127 4.039c0-.442-.358-.8-.8-.8h-1.001v1.599h1.001c.442 0 .8-.358.8-.8zm-9.4-4.801c0-.442-.358-.8-.8-.8h-2.4c-.442 0-.8.358-.8.8v6.4c0 .442.358.8.8.8.442 0 .8-.358.8-.8v-2.2h1.601c.442 0 .8-.358.8-.8 0-.442-.358-.8-.8-.8h-1.601v-1.801h1.601c.442 0 .8-.358.8-.8zm-6 6.401v-6.4c0-1.544 1.256-2.8 2.8-2.8l11.304-.039c1.052 0 2.072.39 2.896 1.053v-5.053h-24.001v9c0 2.761 2.239 5 5 5h2.118c-.069-.244-.118-.496-.118-.761zm16.999-16.238c0-2.757-2.243-5-5-5h-1v-1c0-.553-.448-1-1-1s-1 .447-1 1v1h-8v-1c0-.553-.448-1-1-1s-1 .447-1 1v1h-1c-2.757 0-5 2.243-5 5v1h24z"/></svg>