<svg id="Layer_1" viewBox="0 0 24 24" xmlns="http://www.w3.org/2000/svg" data-name="Layer 1"><path d="m22.443 5.164c-.49-.109-.973-.164-1.443-.164-2.939 0-5.606 2.107-8.186 4.145-1.402 1.108-2.853 2.254-4.32 3.02-.012.007-.652.37-1.634.716 2.028.9 3.866 2.352 5.563 3.693 2.135 1.687 4.338 3.427 6.077 3.427h4.5c.352 0 .686.072 1 .184v-13.064c0-.934-.646-1.754-1.557-1.957zm-6.943 8.836c-.828 0-1.5-.672-1.5-1.5s.672-1.5 1.5-1.5 1.5.672 1.5 1.5-.672 1.5-1.5 1.5zm4-3c-.828 0-1.5-.672-1.5-1.5s.672-1.5 1.5-1.5 1.5.672 1.5 1.5-.672 1.5-1.5 1.5zm3.5 11h-4.5c-2.435 0-4.915-1.96-7.314-3.855-2.579-2.038-5.245-4.145-8.186-4.145-.742 0-1.516.137-2.302.408-.411.142-.698.519-.698.954v5.638c0 1.657 1.343 3 3 3h20c.553 0 1-.448 1-1s-.447-1-1-1zm-19.5-3c-.828 0-1.5-.672-1.5-1.5s.672-1.5 1.5-1.5 1.5.672 1.5 1.5-.672 1.5-1.5 1.5zm4 3c-.828 0-1.5-.672-1.5-1.5s.672-1.5 1.5-1.5 1.5.672 1.5 1.5-.672 1.5-1.5 1.5zm-7.455-9.482c1.104-.374 2.174-.561 3.259-.505 1.426-.32 3.875-1.322 4.204-1.589 1.36-.711 2.734-1.796 4.062-2.846 1.147-.906 2.359-1.861 3.65-2.665-.415-.291-.749-.534-.927-.682-2.596-2.053-5.316-4.234-8.293-4.231-1.94 0-3.711.939-5.109 1.865-.56.371-.891.997-.891 1.668v9.005c.016-.006.029-.014.045-.02zm6.455-9.518c.828 0 1.5.672 1.5 1.5s-.672 1.5-1.5 1.5-1.5-.672-1.5-1.5.672-1.5 1.5-1.5z"/></svg>