<svg id="Layer_1" viewBox="0 0 24 24" xmlns="http://www.w3.org/2000/svg" data-name="Layer 1"><path d="m15.992 7.981c-.845 0-1.69-.317-2.335-.951l-2.357-2.317c-.394-.387-.399-1.021-.012-1.414.386-.395 1.02-.399 1.415-.012l2.357 2.317c.516.507 1.356.506 1.87-.004l5.366-5.311c.394-.387 1.027-.386 1.415.008.388.393.385 1.025-.007 1.414l-5.368 5.312c-.646.639-1.495.959-2.344.959zm4.008.209v10.81c0 .553-.447 1-1 1h-.101c-.465 2.279-2.484 4-4.899 4h-9c-2.757 0-5-2.243-5-5v-14c0-2.757 2.243-5 5-5h9c1.563 0 2.953.728 3.87 1.855l-1.88 1.861-1.888-1.856c-.573-.562-1.339-.858-2.133-.859-.801.008-1.551.327-2.109.897-.555.565-.858 1.311-.858 2.103h-4.002c-.552 0-1 .447-1 1v2c0 .553.448 1 1 1h6.789l.465.457c1 .983 2.328 1.524 3.737 1.524 1.417 0 2.749-.546 3.751-1.537l.257-.255zm-13 10.81c0-.553-.448-1-1-1h-1c-.552 0-1 .447-1 1s.448 1 1 1h1c.552 0 1-.447 1-1zm0-4c0-.553-.448-1-1-1h-1c-.552 0-1 .447-1 1s.448 1 1 1h1c.552 0 1-.447 1-1zm0-4c0-.553-.448-1-1-1h-1c-.552 0-1 .447-1 1s.448 1 1 1h1c.552 0 1-.447 1-1zm4 8c0-.553-.448-1-1-1h-1c-.552 0-1 .447-1 1s.448 1 1 1h1c.552 0 1-.447 1-1zm0-4c0-.553-.448-1-1-1h-1c-.552 0-1 .447-1 1s.448 1 1 1h1c.552 0 1-.447 1-1zm0-4c0-.553-.448-1-1-1h-1c-.552 0-1 .447-1 1s.448 1 1 1h1c.552 0 1-.447 1-1zm4 8c0-.553-.447-1-1-1h-1c-.553 0-1 .447-1 1s.447 1 1 1h1c.553 0 1-.447 1-1zm0-4c0-.553-.447-1-1-1h-1c-.553 0-1 .447-1 1s.447 1 1 1h1c.553 0 1-.447 1-1zm0-4c0-.553-.447-1-1-1h-1c-.553 0-1 .447-1 1s.447 1 1 1h1c.553 0 1-.447 1-1z"/></svg>