<svg id="Layer_1" viewBox="0 0 24 24" xmlns="http://www.w3.org/2000/svg" data-name="Layer 1"><path d="m9 4.001v7.25c0 .964.691 1.748 1.653 1.748.551 0 1.692-.769 1.692-.769l2.051-1.231h5.603c2.209 0 4-1.791 4-4v-2.999c.001-2.209-1.79-4-4-4h-7c-2.209.001-4 1.792-3.999 4.001zm12-.002c.552 0 1 .448 1 1v1c0 .552-.448 1-1 1-.552 0-1-.448-1-1v-1c0-.552.448-1 1-1zm-3-1c.552 0 1 .448 1 1v3c0 .552-.448 1-1 1-.552 0-1-.448-1-1v-3c0-.552.448-1 1-1zm-3-1c.552 0 1 .448 1 1v5c0 .552-.448 1-1 1-.552 0-1-.448-1-1v-5c0-.552.448-1 1-1zm-3 6c-.552 0-1-.448-1-1v-3c0-.552.448-1 1-1 .552 0 1 .448 1 1v3c0 .552-.448 1-1 1zm6.462 7.001h-.5v-.02c0-.72-.204-1.404-.558-2.009h-2.492l-1.532.92c-.751.5-1.823 1.08-2.765 1.08-2.049 0-3.653-1.646-3.653-3.748v-.226l-.965.002c-2.204 0-3.997 1.795-3.997 4h-.5c-.827 0-1.5.673-1.5 1.5v2c0 .827.673 1.5 1.5 1.5h.5c0 2.206 1.794 4 4 4h7.962c2.206 0 4-1.794 4-4h.5c.827 0 1.5-.673 1.5-1.5v-2c0-.827-.673-1.5-1.5-1.5zm-11.462 4.5s-.003 0-.004 0-.003 0-.004 0c-.828 0-1.5-.672-1.5-1.5s.672-1.5 1.5-1.5h.004s.003 0 .004 0c.828 0 1.5.672 1.5 1.5s-.672 1.5-1.5 1.5zm6.009 0s-.003 0-.004 0-.003 0-.004 0c-.828 0-1.5-.672-1.5-1.5s.672-1.5 1.5-1.5h.004s.003 0 .004 0c.828 0 1.5.672 1.5 1.5s-.672 1.5-1.5 1.5z"/></svg>