<?xml version="1.0" encoding="UTF-8"?>
<svg xmlns="http://www.w3.org/2000/svg" id="Layer_1" data-name="Layer 1" viewBox="0 0 24 24">
  <path d="M9,9v-2h0c-.552,0-1-.448-1-1s.448-1,1-1h0v-1.75c0-1.792,1.458-3.25,3.25-3.25,1.659,0,3.048,1.242,3.23,2.89,.061,.549-.335,1.043-.884,1.104-.537,.056-1.043-.335-1.104-.884-.07-.633-.604-1.11-1.242-1.11-.689,0-1.25,.561-1.25,1.25v1.75h2c.552,0,1,.448,1,1s-.448,1-1,1h-2v2h4c.552,0,1,.448,1,1s-.448,1-1,1h-6c-.552,0-1-.448-1-1s.448-1,1-1h0ZM19.102,3h-1.63c0,1.099-.59,2.089-1.511,2.611,.017,.129,.039,.256,.039,.389,0,.395-.081,.77-.22,1.116,1.275,.346,2.22,1.501,2.22,2.884,0,1.654-1.346,3-3,3h-6c-1.654,0-3-1.346-3-3,0-.771,.304-1.464,.783-1.996-.482-.532-.783-1.231-.783-2.004,0-.883,.391-1.67,1-2.22,0,0,.021-.696,.025-.78h-2.127c-2.149,0-3.898,1.749-3.898,3.898,0,.955,.35,1.875,.985,2.589l7.015,7.893v2.62c0,.314,.148,.611,.4,.8l4,3c.176,.133,.388,.2,.6,.2,.152,0,.306-.035,.447-.105,.339-.17,.553-.516,.553-.895v-5.62l7.015-7.892c.636-.715,.985-1.635,.985-2.59,0-2.149-1.749-3.898-3.898-3.898Z"/>
</svg>
