<svg id="Layer_1" viewBox="0 0 24 24" xmlns="http://www.w3.org/2000/svg" data-name="Layer 1"><path d="m23.757 21.3-5.226-8.96c-.683-1.171-2.376-1.171-3.059 0l-5.227 8.96c-.689 1.181.163 2.663 1.53 2.663h10.453c1.024 0 1.773-.641 1.773-1.745 0-.306-.071-.622-.243-.918zm-6.757 1.663c-.552 0-1-.448-1-1s.448-1 1-1 1 .448 1 1-.448 1-1 1zm1-4c0 .552-.448 1-1 1s-1-.448-1-1v-3c0-.552.448-1 1-1s1 .448 1 1zm-8.228-.822c.146-.352.228-.737.228-1.141 0-1.304-.836-2.415-2-2.828v-9.282c0-.552-.447-1-1-1s-1 .448-1 1v9.282c-1.164.413-2 1.524-2 2.828 0 1.654 1.346 3 3 3 .981 0 1.846-.48 2.394-1.211l-.877 1.504c-.648 1.112-.682 2.427-.117 3.566-.453.092-.921.141-1.4.141-3.859 0-7-3.14-7-7 0-1.827.724-3.584 2-4.89v-7.11c0-2.757 2.243-5 5-5s5 2.243 5 5v7.11c.279.286.527.597.752.922z"/></svg>