<svg id="Layer_1" viewBox="0 0 24 24" xmlns="http://www.w3.org/2000/svg" data-name="Layer 1"><path d="m24 16.407v2.593c0 2.757-2.243 5-5 5h-15.984c-.989 0-1.882-.464-2.449-1.273s-.704-1.85-.365-2.783c1.271-3.5 4.889-5.943 8.798-5.943s7.527 2.443 8.798 5.942c.244.673.242 1.401.01 2.058h1.192c1.654 0 3-1.346 3-3v-2.593c0-.288-.124-.562-.342-.753l-1.054-.922c-.334.166-.706.268-1.104.268-1.381 0-2.5-1.119-2.5-2.5s1.119-2.5 2.5-2.5 2.5 1.119 2.5 2.5c0 .244-.046.476-.111.699l1.087.951c.651.57 1.024 1.394 1.024 2.258zm-23-9.907v-1c0-.828.672-1.5 1.5-1.5h.849c-.222.626-.349 1.298-.349 2h2.5c1.956 0 3.744-.846 4.992-2.226.491-.543.261-1.433-.448-1.619-.007-.002-.013-.004-.02-.005-.358-.091-.754-.006-1 .268-.881.979-2.142 1.582-3.524 1.582h-2.15c.826-2.327 3.043-4 5.65-4s4.826 1.673 5.652 4h.848c.828 0 1.5.672 1.5 1.5v1c0 .828-.672 1.5-1.5 1.5h-.841c-.674 1.93-2.343 3.439-4.366 3.864-3.143.66-5.991-1.159-6.95-3.864h-.843c-.828 0-1.5-.672-1.5-1.5z"/></svg>