<svg id="Layer_1" viewBox="0 0 24 24" xmlns="http://www.w3.org/2000/svg" data-name="Layer 1"><path d="m18 0c-3.314 0-6 2.686-6 6s2.686 6 6 6 6-2.686 6-6-2.686-6-6-6zm-1 3c0-.553.448-1 1-1s1 .447 1 1v2c0 .553-.448 1-1 1s-1-.447-1-1zm1 7c-.828 0-1.5-.672-1.5-1.5s.672-1.5 1.5-1.5 1.5.672 1.5 1.5-.672 1.5-1.5 1.5zm0 4v1c0 4.971-4.029 9-9 9s-9-4.029-9-9v-1c.003-2.76 2.24-4.997 5-5h5.587c1.187 2.931 4.056 5 7.413 5zm-7.931-7c-.041-.328-.069-.661-.069-1 0-2.358 1.026-4.47 2.649-5.935-.212-.035-.426-.065-.649-.065h-6c-2.209 0-4 1.791-4 4v3.685c.936-.45 1.961-.684 3-.685zm-4.069-3.5c0-.553.448-1 1-1s1 .447 1 1v1c0 .553-.448 1-1 1s-1-.447-1-1z"/></svg>