<svg id="Layer_1" viewBox="0 0 24 24" xmlns="http://www.w3.org/2000/svg" data-name="Layer 1"><path d="m17 17h-6c0-1.654 1.346-3 3-3s3 1.346 3 3zm7-6v8c0 2.757-2.243 5-5 5h-10c-2.757 0-5-2.243-5-5v-8c0-2.045 1.237-3.802 3-4.576v-2.424h-5v19c0 .552-.447 1-1 1s-1-.448-1-1v-22c0-.552.447-1 1-1s1 .448 1 1v1h19c.552 0 1-.449 1-1s.447-1 1-1 1 .448 1 1c0 1.654-1.346 3-3 3v2.424c1.763.774 3 2.531 3 4.576zm-15-5h10v-2h-10zm11 12c0-.552-.447-1-1-1 0-2.414-1.721-4.434-4-4.899 0 0 0-1.101-1-1.101s-1 1.101-1 1.101c-2.279.465-4 2.484-4 4.899-.553 0-1 .448-1 1s.447 1 1 1h10c.553 0 1-.448 1-1z"/></svg>