<svg id="Layer_1" viewBox="0 0 24 24" xmlns="http://www.w3.org/2000/svg" data-name="Layer 1"><path d="m18 0c-3.314 0-6 2.686-6 6s2.686 6 6 6 6-2.686 6-6-2.686-6-6-6zm3.683 5.712-2.703 2.614c-.452.446-1.052.671-1.653.671s-1.203-.225-1.663-.674l-1.354-1.332c-.395-.387-.4-1.02-.014-1.414.386-.395 1.019-.401 1.414-.014l1.354 1.331c.144.142.38.139.522-.002l2.713-2.624c.397-.381 1.031-.37 1.414.029.382.398.369 1.031-.029 1.414zm-6.787 7.66-.896 1.008v8.62c0 .379-.214.725-.553.895-.142.071-.295.105-.447.105-.212 0-.423-.068-.6-.2l-4-3c-.252-.188-.4-.485-.4-.8v-5.62l-7.016-7.893c-.635-.715-.984-1.634-.984-2.59 0-2.149 1.749-3.897 3.898-3.897h8.828c-1.667 1.467-2.726 3.609-2.726 5.999 0 3.311 2.022 6.158 4.896 7.373z"/></svg>