<svg id="Layer_1" viewBox="0 0 24 24" xmlns="http://www.w3.org/2000/svg" data-name="Layer 1"><path d="m24 23c0 .552-.447 1-1 1h-20c-1.654 0-3-1.346-3-3v-20c0-.552.448-1 1-1s1 .448 1 1v20c0 .551.449 1 1 1h20c.553 0 1 .448 1 1zm-2-14h-4c-.553 0-1 .448-1 1s.447 1 1 1h2.623l-4.937 4.937c-.356.356-.978.357-1.336 0l-1.114-1.115c-1.096-1.095-2.877-1.095-3.972 0l-3.471 3.471c-.391.391-.391 1.023 0 1.414.195.195.451.293.707.293s.512-.098.707-.293l3.471-3.471c.315-.315.828-.315 1.144 0l1.115 1.115c1.114 1.112 3.053 1.111 4.164 0l4.899-4.899v2.549c0 .552.447 1 1 1s1-.448 1-1v-4c0-1.103-.897-2-2-2zm-11.997 1.532c-.056.091 2.674-1.454 2.718-1.473.793-.44 1.281-1.278 1.281-2.186v-2.958c0-.114-.025-.222-.04-.333l-3.956 2.261-.004 4.689zm2.915-8.657c-.062-.043-2.687-1.553-2.687-1.553-.377-.211-.729-.322-1.231-.322-.43 0-.854.113-1.229.325 0 0-2.612 1.506-2.674 1.549l3.912 2.235zm-7.651 7.115c.103.053 2.68 1.558 2.732 1.527l.004-4.677-3.95-2.26c-.015.112-.045.22-.045.334v2.906c0 .894.482 1.726 1.26 2.17z"/></svg>