<svg id="Layer_1" viewBox="0 0 24 24" xmlns="http://www.w3.org/2000/svg" data-name="Layer 1"><path d="m0 7c0-.552.448-1 1-1h1.62c.114-.5.313-.966.578-1.387l-1.175-1.175c-.391-.391-.391-1.023 0-1.414s1.023-.391 1.414 0l1.175 1.175c.422-.265.887-.464 1.387-.578v-1.621c.001-.552.449-1 1.001-1s1 .448 1 1v1.626c.528.122 1.024.326 1.464.615-.757.433-1.388 1.084-1.785 1.905l-2.518 5.954c-.191-.086-.375-.185-.55-.296l-1.16 1.16c-.195.195-.451.293-.707.293s-.512-.098-.707-.293c-.391-.391-.391-1.023 0-1.414l1.16-1.16c-.266-.42-.458-.889-.572-1.389h-1.625c-.552-.001-1-.449-1-1.001zm23.308 9.888c-.65-.211-1.173-.679-1.365-1.222-.141-.399-.519-.667-.943-.667s-.802.267-.943.667c-.264.748-1.167 1.333-2.057 1.333s-1.793-.585-2.057-1.333c-.141-.4-.519-.667-.943-.667s-.802.267-.943.667c-.264.748-1.167 1.333-2.057 1.333s-1.793-.585-2.057-1.333c-.141-.4-.519-.667-.943-.667s-.802.267-.943.667c-.264.748-1.167 1.333-2.057 1.333s-1.793-.585-2.057-1.333c-.141-.4-.519-.667-.943-.667s-.802.267-.943.667c-.192.543-.715 1.011-1.365 1.222-.525.17-.813.734-.643 1.259.17.526.735.815 1.259.643.652-.211 1.233-.563 1.695-1.012 1.072 1.036 2.782 1.483 4.243 1.03l1.825 4.563c.152.379.52.628.929.628h10.826c.402 0 .765-.241.921-.612l2.174-5.161c.109-.258.104-.55-.012-.804-.117-.255-.334-.449-.601-.535zm-14.898-3.837c.213-.033.412-.051.59-.051 1.239 0 2.353.767 2.797 1.917.102.079.304.079.405 0 .445-1.15 1.558-1.917 2.798-1.917s2.353.767 2.797 1.917c.102.079.304.079.405 0 .445-1.15 1.558-1.917 2.798-1.917.367 0 .736.088 1.086.25.897.415 1.914-.319 1.914-1.307 0-.196-.041-.39-.12-.569l-4.015-9.061c-.008-.018-.016-.036-.025-.053-.425-.825-1.266-1.303-2.213-1.256-.937.05-1.726.616-2.078 1.53l-1.348 4.151-.565-.879c-.436-.741-1.24-1.172-2.12-1.144-.869.035-1.641.536-2.036 1.354l-2.303 5.45c-.35.828.345 1.725 1.233 1.586z"/></svg>