<?xml version="1.0" encoding="UTF-8"?>
<svg xmlns="http://www.w3.org/2000/svg" id="Layer_1" data-name="Layer 1" viewBox="0 0 24 24">
  <path d="M18.5,3c0-1.105,.895-2,2-2s2,.895,2,2-.895,2-2,2-2-.895-2-2Zm5.229,4.315c-.785-.836-1.962-1.315-3.229-1.315s-2.444,.479-3.229,1.315c-.272,.291-.347,.716-.188,1.082,.158,.366,.52,.603,.918,.603h5c.398,0,.76-.237,.918-.603,.158-.366,.084-.791-.188-1.082ZM8,3.5v3c0,1.378-1.122,2.5-2.5,2.5H2.5c-1.378,0-2.5-1.122-2.5-2.5V3.5C0,2.122,1.122,1,2.5,1h3c1.378,0,2.5,1.122,2.5,2.5Zm-2.5,.5c0-.552-.448-1-1-1h-1c-.552,0-1,.448-1,1s.448,1,1,1h1c.552,0,1-.448,1-1ZM14.198,1.06c-.468-.408-1.198-.076-1.198,.545v.395h-2c-.552,0-1,.448-1,1s.448,1,1,1h2v.403c0,.619,.728,.952,1.196,.547l1.528-1.321c.369-.331,.369-.908,0-1.239l-1.525-1.33Zm-.198,5.94h-2v-.403c0-.619-.728-.952-1.196-.547l-1.528,1.321c-.369,.331-.369,.908,0,1.239l1.525,1.33c.468,.408,1.198,.076,1.198-.545v-.395h2c.553,0,1-.448,1-1s-.447-1-1-1Zm9.148,4.681c-1.007-.963-2.764-.882-3.672,.157l-3.541,3.737c.032,.21,.065,.42,.065,.638,0,2.083-1.555,3.876-3.617,4.17l-4.252,.596c-.547,.078-1.053-.302-1.131-.848-.078-.547,.302-1.053,.848-1.131l4.162-.583c.936-.134,1.748-.806,1.94-1.732,.296-1.425-.79-2.685-2.164-2.685H4c-2.209,0-4,1.791-4,4v2c0,2.209,1.791,4,4,4H12.263c1.949,0,3.811-.813,5.135-2.243l5.939-6.412c.948-1.062,.862-2.707-.189-3.665Z"/>
</svg>
