<svg id="Layer_1" viewBox="0 0 24 24" xmlns="http://www.w3.org/2000/svg" data-name="Layer 1"><path d="m18 12c-3.314 0-6 2.686-6 6s2.686 6 6 6 6-2.686 6-6-2.686-6-6-6zm-1 3c0-.553.448-1 1-1s1 .447 1 1v2c0 .553-.448 1-1 1s-1-.447-1-1zm1 7c-.828 0-1.5-.672-1.5-1.5s.672-1.5 1.5-1.5 1.5.672 1.5 1.5-.672 1.5-1.5 1.5zm-13.657-11h-4.343c0-2.757 2.243-5 5-5h6v-4.364c0-.904.732-1.636 1.636-1.636.24 0 .476.053.694.154l3.2 1.498c.627.392.627 1.304 0 1.696l-3.53 1.652v1h6c2.757 0 5 2.243 5 5h-2.136c-1.147-.636-2.463-1-3.864-1-.185 0-.366.015-.548.028l-2.623-2.856c-1.511-1.512-4.117-1.542-5.687.03l-2.678 2.919c-.559.559-1.332.879-2.121.879zm5.657 7c0-3.421 2.162-6.339 5.189-7.48l-1.805-1.964c-.696-.695-2.043-.726-2.798.03l-2.678 2.919c-.974.975-2.23 1.495-3.565 1.495h-4.343v8c0 1.654 1.346 3 3 3h9.726c-1.667-1.467-2.726-3.61-2.726-6zm-5 4h-1c-.552 0-1-.447-1-1s.448-1 1-1h1c.552 0 1 .447 1 1s-.448 1-1 1zm0-4h-1c-.552 0-1-.447-1-1s.448-1 1-1h1c.552 0 1 .447 1 1s-.448 1-1 1z"/></svg>