<svg id="Layer_1" viewBox="0 0 24 24" xmlns="http://www.w3.org/2000/svg" data-name="Layer 1"><path d="m23.644 5.396-2.366 1.927.979 2.98c.134.403-.002.847-.339 1.106s-.801.277-1.156.046l-2.754-1.793-2.708 1.812c-.352.236-.816.224-1.156-.031-.34-.254-.481-.696-.354-1.101l.941-3.016-2.377-1.934c-.32-.271-.437-.713-.292-1.107s.519-.655.938-.655h3.001l1.062-2.98c.146-.391.52-.651.937-.651s.792.26.937.651l1.062 2.98h3.001c.42 0 .795.263.939.657s.026.837-.295 1.108zm-11.644 10.026c.768 0 1.537-.292 2.122-.876l.924-.924c-.1.01-.201.022-.302.022-.636 0-1.27-.201-1.802-.602-1.014-.758-1.441-2.084-1.061-3.297l.536-1.721-1.327-1.08c-.986-.836-1.339-2.171-.906-3.348.079-.214.187-.41.309-.597h-5.494c-1.806 0-3.377.972-4.256 2.411l9.134 9.135c.585.584 1.353.876 2.122.876zm11.138-2.427c-1.012.773-2.401.83-3.466.138l-.793-.516-3.343 3.344c-.975.975-2.255 1.462-3.536 1.462s-2.561-.487-3.536-1.462l-8.418-8.419c-.014.153-.046.301-.046.458v11c0 2.757 2.243 5 5 5h14c2.757 0 5-2.243 5-5v-7.062c-.199.405-.489.77-.862 1.057z"/></svg>