<svg id="Layer_1" viewBox="0 0 24 24" xmlns="http://www.w3.org/2000/svg" data-name="Layer 1"><path d="m19 3h-14c-2.757 0-5 2.243-5 5v8c0 2.757 2.243 5 5 5h14c2.757 0 5-2.243 5-5v-8c0-2.757-2.243-5-5-5zm-15 11c-1.105 0-2-.895-2-2s.895-2 2-2 2 .895 2 2-.895 2-2 2zm7.674.928c.162.533-.237 1.072-.794 1.072-.369 0-.694-.244-.797-.598l-.698-2.402h-.784v2.2c0 .442-.358.8-.8.8s-.8-.358-.8-.8v-6.2c0-.552.448-1 1-1h1.367c1.284 0 2.456.908 2.613 2.182.12.968-.319 1.839-1.033 2.348 0 0 .726 2.397.726 2.397zm4.026-3.678c.442 0 .8.358.8.8s-.358.8-.8.8h-1.101v1.551h1.101c.442 0 .8.358.8.8s-.358.8-.8.8h-1.7c-.552 0-1-.448-1-1v-6c0-.552.448-1 1-1h1.7c.442 0 .8.358.8.8s-.358.8-.8.8h-1.101v1.65h1.101zm4.128 3.15c.299.003.52-.172.63-.411.135-.292.416-.489.738-.489.58 0 .97.597.734 1.127-.359.804-1.156 1.378-2.102 1.373-1.269 0-2.3-1.031-2.3-2.3v-3.4c0-1.269 1.031-2.3 2.3-2.3.946-.004 1.743.57 2.102 1.373.236.529-.154 1.127-.734 1.127-.322 0-.603-.197-.738-.489-.11-.239-.331-.414-.63-.411-.386 0-.7.314-.7.7v3.4c0 .386.314.7.7.7zm-9.428-3.9c0 .496-.404.9-.9.9h-.9v-1.8h.9c.496 0 .9.404.9.9z"/></svg>