<svg id="Layer_1" viewBox="0 0 24 24" xmlns="http://www.w3.org/2000/svg" data-name="Layer 1"><path d="m16.196 12.127c-2.57.499-4.625 2.593-5.088 5.17-.421 2.344.418 4.513 1.951 5.948.432.404 1.124.335 1.503-.119l.938-1.125h4l.936 1.123c.381.457 1.078.521 1.512.114 1.262-1.185 2.051-2.868 2.051-4.737 0-4.016-3.642-7.182-7.804-6.373zm4.511 4.58-1.715 1.715c.001.026.008.051.008.078 0 .828-.672 1.5-1.5 1.5s-1.5-.672-1.5-1.5.672-1.5 1.5-1.5c.027 0 .052.006.078.008l1.715-1.715c.39-.391 1.024-.391 1.414 0s.39 1.024 0 1.414zm-1.707-16.707h-14c-2.757 0-5 2.243-5 5v2h24v-2c0-2.757-2.243-5-5-5zm-14.5 5c-.828 0-1.5-.672-1.5-1.5s.672-1.5 1.5-1.5 1.5.672 1.5 1.5-.672 1.5-1.5 1.5zm4 0c-.828 0-1.5-.672-1.5-1.5s.672-1.5 1.5-1.5 1.5.672 1.5 1.5-.672 1.5-1.5 1.5zm1.264 17h-4.764c-2.757 0-5-2.243-5-5v-8h24v4.039c-.331-.393-.691-.767-1.096-1.1-1.966-1.622-4.55-2.27-7.09-1.775-3.383.657-6.065 3.382-6.675 6.779-.314 1.749-.078 3.503.624 5.057z"/></svg>