<svg id="Layer_1" viewBox="0 0 24 24" xmlns="http://www.w3.org/2000/svg" data-name="Layer 1"><path d="m5 18h17v1c0 2.761-2.239 5-5 5h-12c-1.657 0-3-1.343-3-3s1.343-3 3-3zm17-13v11h-17c-1.073.039-2.141.37-3 1.025v-12.052c0-2.744 2.224-4.973 4.967-4.973h10.033c2.761 0 5 2.239 5 5zm-8.5 7.5c0-.828-.672-1.5-1.5-1.5s-1.5.672-1.5 1.5.672 1.5 1.5 1.5 1.5-.672 1.5-1.5zm1.421-8.194c-.251-1.102-1.126-1.976-2.227-2.228-.913-.208-1.845.002-2.563.575s-1.13 1.428-1.13 2.346c0 .552.448 1 1 1s1-.448 1-1c0-.306.138-.591.377-.783.142-.113.441-.289.871-.188.347.079.644.376.723.722.13.572-.209 1.028-.612 1.183-.788.303-1.359 1.172-1.359 2.066v.333c0 .552.448 1 1 1s1-.448 1-1v-.333c0-.065.062-.182.077-.2 1.406-.542 2.182-2.011 1.844-3.494z"/></svg>