<svg id="Layer_1" viewBox="0 0 24 24" xmlns="http://www.w3.org/2000/svg" data-name="Layer 1"><path d="m23.995 15.175c0-.834-.067-1.674-.198-2.492l-1.293-8.428c-.377-2.455-2.454-4.236-4.94-4.236h-.566c-.552 0-1 .447-1 .998s.448.998 1 .998h.566c1.492 0 2.738 1.069 2.964 2.541l1.272 8.292c-.218-.077-.445-.134-.68-.165-2.453-.321-6.137-.684-9.119-.684-2.946 0-6.586.357-9.011.673-.278.036-.541.115-.795.214l1.278-8.331c.226-1.472 1.472-2.541 2.964-2.541h.566c.552 0 1-.447 1-.998s-.449-.997-1.001-.997h-.566c-2.486 0-4.563 1.781-4.94 4.236l-1.291 8.421c-.133.825-.2 1.665-.2 2.499 0 0 .078 1.328.089 1.394l.684 4.094c.323 1.934 1.981 3.337 3.944 3.337h2.04c1.431 0 2.761-.771 3.471-2.012l.835-1.46c.279-.488.745-.541.932-.541.149.028.653.052.933.541l.835 1.46c.71 1.241 2.04 2.012 3.471 2.012h2.096c1.938 0 3.593-1.383 3.936-3.289.227-1.265.499-2.825.712-4.229.042-.277.011-1.307.011-1.307zm-16.176-5.183h8.361c1.093 0 1.774-1.185 1.224-2.129l-4.18-7.161c-.273-.468-.724-.702-1.224-.702-.531 0-.95.234-1.224.702l-4.181 7.162c-.551.944.13 2.129 1.224 2.129zm3.181-6.994c0-.552.448-.999 1-.999s1 .447 1 .999v1.998c0 .552-.448.999-1 .999s-1-.447-1-.999zm1 3.997c.552 0 1 .448 1 1s-.448 1-1 1-1-.448-1-1 .448-1 1-1z"/></svg>