<svg id="Layer_1" viewBox="0 0 24 24" xmlns="http://www.w3.org/2000/svg" data-name="Layer 1"><path d="m23 6c0 .553-.448 1-1 1h-.611l-1.486 12.586c-.297 2.517-2.432 4.414-4.966 4.414h-5.868c-2.534 0-4.668-1.897-4.965-4.414l-.069-.586h6.465c1.93 0 3.5-1.57 3.5-3.5v-2c0-1.93-1.57-3.5-3.5-3.5h-7.527l-.354-3h-.618c-.552 0-1-.447-1-1s.448-1 1-1h4.999c2.206 0 4-1.794 4-4 0-.553.448-1 1-1s1 .447 1 1c0 1.538-.586 2.937-1.54 4h10.54c.552 0 1 .447 1 1zm-11 9.5v-2c0-.827-.673-1.5-1.5-1.5h-7.291l.59 5h6.701c.827 0 1.5-.673 1.5-1.5z"/></svg>