<svg id="Layer_1" viewBox="0 0 24 24" xmlns="http://www.w3.org/2000/svg" data-name="Layer 1"><path d="m18 12c-3.314 0-6 2.686-6 6s2.686 6 6 6 6-2.686 6-6-2.686-6-6-6zm.5 9.5h-.5c-.553 0-1-.447-1-1s.447-1 1-1h.5c.552 0 1-.448 1-1s-.448-1-1-1h-1.5v1.066c-.152.427-.723.597-1.079.241l-1.648-1.648c-.364-.364-.364-.954 0-1.318l1.648-1.648c.356-.356.927-.186 1.079.241v1.065h1.5c1.654 0 3 1.346 3 3s-1.346 3-3 3zm-17.245-17.065c.232-.22.489-.417.773-.579l5.808-3.288s0 0 0 0c.656-.371 1.4-.568 2.151-.568h.004c.753 0 1.497.195 2.152.565l5.824 3.291c.287.162.545.36.778.581l-8.743 4.997zm7.736 17.18c-.33-.087-.652-.217-.954-.39l-6.021-3.442c-1.243-.71-2.016-2.041-2.016-3.473v-6.973c0-.415.072-.819.194-1.205l8.805 5.032c0 1.149-.005 6.886-.008 10.451zm2.006-7.48c.001-1.406.002-2.523.002-2.966l8.807-5.033c.122.385.194.789.194 1.203v2.923c-.64-.165-1.308-.262-2-.262-3.016 0-5.64 1.67-7.003 4.135z"/></svg>