<svg id="Layer_1" viewBox="0 0 24 24" xmlns="http://www.w3.org/2000/svg" data-name="Layer 1"><path d="m23.007 10.132c-1.991 4.378-6.018 7.957-8.469 9.868 2.213-2.671 5.646-7.602 7.268-12.206.675-1.917-.454-3.999-2.425-4.618-.489-.153-.984-.195-1.465-.155.053.319.087.644.087.978 0 4.858-4.147 13.864-4.574 14.818l-.286.639c1.168-4.575 2.861-12.324 2.861-15.457 0-2.209-1.791-4-4-4s-4 1.791-4 4c0 3.133 1.693 10.882 2.861 15.457l-.286-.639c-.427-.954-4.574-9.959-4.574-14.818 0-.334.034-.659.087-.978-.481-.041-.977.001-1.465.155-1.972.619-3.101 2.701-2.425 4.618 1.622 4.604 5.055 9.535 7.268 12.206-2.451-1.912-6.478-5.49-8.469-9.868-1.01 1.075-1.312 2.696-.626 4.098 1.133 2.316 4.902 4.931 7.627 6.598v.172c0 1.657 1.343 3 3 3h2c1.657 0 3-1.343 3-3v-.172c2.726-1.667 6.494-4.282 7.627-6.598.686-1.402.384-3.023-.623-4.099z"/></svg>