<svg id="Layer_1" viewBox="0 0 24 24" xmlns="http://www.w3.org/2000/svg" data-name="Layer 1"><path d="m9 13h6v4c0 3.859-3.141 7-7 7s-7-3.141-7-7v-3c-.553 0-1-.447-1-1s.447-1 1-1h6c.553 0 1 .447 1 1s-.447 1-1 1v3c0 .552.448 1 1 1s1-.448 1-1zm-6-5.623v1.623c0 .553.447 1 1 1s1-.447 1-1v-1.631c1.723-.446 3-2.009 3-3.869 0-1.244-.572-2.354-1.465-3.087-.411-.337-1.035-.034-1.035.498v1.589c0 .828-.672 1.5-1.5 1.5s-1.5-.672-1.5-1.5v-1.59c0-.529-.62-.836-1.03-.5-1.151.94-1.769 2.506-1.326 4.177.362 1.365 1.484 2.454 2.856 2.79zm18.34 10.259c-.331-.402-.819-.635-1.34-.636-.56-.004-1.076.269-1.411.713-.671.807-1.589 1.912-1.589 3.287 0 1.654 1.346 3 3 3s3-1.346 3-3c-.007-1.404-.959-2.502-1.66-3.364zm1.66-4.636v-6c0-3.859-3.141-7-7-7s-7 3.141-7 7v4h6v-4c0-.552.448-1 1-1s1 .448 1 1v6c-.553 0-1 .447-1 1s.447 1 1 1h6c.553 0 1-.447 1-1s-.447-1-1-1z"/></svg>