<?xml version="1.0" encoding="UTF-8"?>
<svg xmlns="http://www.w3.org/2000/svg" id="Layer_1" data-name="Layer 1" viewBox="0 0 24 24">
  <path d="m12,0C5.373,0,0,5.373,0,12s5.373,12,12,12,12-5.373,12-12S18.627,0,12,0Zm-4.155,10.115l-3.046,5.474c-.146.264-.419.411-.7.411-.132,0-.266-.032-.389-.101-.386-.215-.525-.702-.31-1.088l2.901-5.212h-2.502c-.442,0-.8-.358-.8-.8s.358-.8.8-.8h2.737c.51,0,.975.259,1.243.692.269.435.293.966.065,1.423Zm6.155,3.385c0,1.381-1.119,2.5-2.5,2.5s-2.5-1.119-2.5-2.5v-3c0-1.381,1.119-2.5,2.5-2.5s2.5,1.119,2.5,2.5v3Zm1-4.269c0-.69.56-1.25,1.25-1.25s1.25.56,1.25,1.25-.56,1.25-1.25,1.25-1.25-.56-1.25-1.25Zm1.344,6.75c-.635,0-1.017-.705-.67-1.237l4.178-6.4c.148-.226.4-.363.67-.363.635,0,1.017.705.67,1.237l-4.178,6.4c-.148.226-.4.363-.67.363Zm4.406,0c-.69,0-1.25-.56-1.25-1.25s.56-1.25,1.25-1.25,1.25.56,1.25,1.25-.56,1.25-1.25,1.25Zm-8.35-5.481v3c0,.496-.404.9-.9.9s-.9-.404-.9-.9v-3c0-.496.404-.9.9-.9s.9.404.9.9Z"/>
</svg>
