<svg id="Layer_1" viewBox="0 0 24 24" xmlns="http://www.w3.org/2000/svg" data-name="Layer 1"><path d="m15.229 6.73c-.597.597-1.369 1.018-2.229 1.186v15.084c0 .552-.447 1-1 1s-1-.448-1-1v-15.161c-.743-.202-1.413-.623-1.959-1.169l-2.748-2.67c-.391-.391-.391-1.024 0-1.414.195-.195.451-.293.707-.293s.512.098.707.293l1.009.93v-2.688c0-.457.371-.828.828-.828s.828.371.828.828v.672h1.418v-.672c-.001-.457.369-.828.826-.828s.828.371.828.828v.682h1.392v-.678c.001-.459.373-.832.832-.832s.831.372.831.831v2.835c0 1.195-.486 2.278-1.271 3.062zm8.725 8.974c.03.096.045.196.045.296v.5c.045 2.413-2.082 4.555-4.497 4.5-2.503 0-4.503-2.192-4.503-4.698v-.302c0-.102.016-.203.046-.299l3.029-9.652c.225-.656.788-1.008 1.425-1.048h3.5c.553 0 1 .448 1 1s-.447 1-1 1h-1.739l2.695 8.704zm-2.311-.704-2.126-6.869-2.156 6.869zm-12.688.704c.03.096.045.196.045.296v.5c.045 2.413-2.082 4.555-4.497 4.5-2.503 0-4.503-2.192-4.503-4.698v-.302c0-.102.016-.203.046-.299l2.73-8.701h-1.776c-.553 0-1-.448-1-1s.447-1 1-1h3.525c.656.002 1.218.404 1.433 1.023zm-2.312-.704-2.126-6.869-2.156 6.869z"/></svg>