<svg id="Layer_1" viewBox="0 0 24 24" xmlns="http://www.w3.org/2000/svg" data-name="Layer 1"><path d="m18 0c-3.314 0-6 2.685-6 5.999s2.686 6 6 6 6-2.686 6-6-2.5-5.999-6-5.999zm-1 2.999c0-.553.448-1 1-1s1 .447 1 1v2c0 .553-.448 1-1 1s-1-.447-1-1zm1 7c-.828 0-1.5-.672-1.5-1.5s.672-1.5 1.5-1.5 1.5.672 1.5 1.5-.672 1.5-1.5 1.5zm6 9.001v3c0 1.105-.895 2-2 2h-4.617c-2.152 0-4.063-1.377-4.743-3.419l-1.077-3.229-2.878 1.678c-.612.348-1.288.525-1.972.525-.367 0-.737-.051-1.101-.154-.357-.102-.693-.249-1.001-.437l-1.592.883c-.591.328-1.336.111-1.66-.482l-.844-1.547c-.321-.588-.107-1.324.479-1.649l1.137-.63c-.118-.176-.263-.33-.431-.461l-1.312-1.018c-.263-.204-.408-.526-.385-.858s.209-.632.499-.798l9.552-5.505c.425 3.787 3.492 6.768 7.316 7.067l-4.041 2.356 1.209 3.626c.408 1.225 1.555 2.051 2.846 2.051h4.617v-3c0-.552.448-1 1-1s1 .448 1 1z"/></svg>