<svg id="Layer_1" viewBox="0 0 24 24" xmlns="http://www.w3.org/2000/svg" data-name="Layer 1"><path d="m12 10c-2.757 0-5-2.243-5-5s2.243-5 5-5 5 2.243 5 5-2.243 5-5 5zm-9.5-5c-.828 0-1.5.672-1.5 1.5s.672 1.5 1.5 1.5 1.5-.672 1.5-1.5-.672-1.5-1.5-1.5zm20.5 17h-5v-6.943c.52.207 1.031.441 1.525.707l3.001 1.616c.477.258 1.091.084 1.354-.406.262-.486.08-1.093-.406-1.355l-3.001-1.616c-2.435-1.311-5.183-2.003-7.947-2.003h-1.052c-2.764 0-5.512.692-7.947 2.003l-3.001 1.616c-.486.263-.668.869-.406 1.355s.869.668 1.354.406l3.001-1.616c.494-.266 1.005-.5 1.525-.707v6.943h-5c-.552 0-1 .447-1 1s.448 1 1 1h22c.552 0 1-.447 1-1s-.448-1-1-1zm-10.5-3c-.828 0-1.5-.672-1.5-1.5s.672-1.5 1.5-1.5 1.5.672 1.5 1.5-.672 1.5-1.5 1.5zm9-12c-.828 0-1.5.672-1.5 1.5s.672 1.5 1.5 1.5 1.5-.672 1.5-1.5-.672-1.5-1.5-1.5z"/></svg>