<svg id="Layer_1" viewBox="0 0 24 24" xmlns="http://www.w3.org/2000/svg" data-name="Layer 1"><path d="m16.872 15.458 1.49-1.49c1.29-1.29 3.381-1.29 4.67 0 1.29 1.29 1.29 3.381 0 4.67l-1.491 1.491-4.67-4.67zm-1.414 1.414-1.491 1.491c-1.29 1.29-1.29 3.381 0 4.67s3.381 1.29 4.67 0l1.49-1.491-4.67-4.67zm-1.458-14.372c0-1.381-1.119-2.5-2.5-2.5h-7c-1.381 0-2.5 1.119-2.5 2.5 0 1.381 1.119 2.5 2.5 2.5h7c1.381 0 2.5-1.119 2.5-2.5zm-1.814 21.5h-7.186c-2.761 0-5-2.239-5-5v-6.048c0-2.182 1.769-3.952 3.952-3.952l.048-2h8.01l-.01 2c2.209 0 4 1.791 4 4v.502l-3.336 3.336c-.649.649-1.172 1.432-1.434 2.312-.532 1.786-.111 3.525.956 4.85zm-3.186-7h1c.552 0 1-.448 1-1 0-.552-.448-1-1-1h-1v-1c0-.552-.448-1-1-1-.552 0-1 .448-1 1v1h-1c-.552 0-1 .448-1 1 0 .552.448 1 1 1h1v1c0 .552.448 1 1 1 .552 0 1-.448 1-1z"/></svg>