<svg id="Layer_1" viewBox="0 0 24 24" xmlns="http://www.w3.org/2000/svg" data-name="Layer 1"><path d="m17.5 9c-2.481 0-4.5-2.019-4.5-4.5s2.019-4.5 4.5-4.5 4.5 2.019 4.5 4.5-2.019 4.5-4.5 4.5zm-3.5 15h-13c-.553 0-1-.448-1-1v-.5c0-4.136 3.364-7.5 7.5-7.5s7.5 3.364 7.5 7.5v.5c0 .552-.447 1-1 1zm3-13c-2.301 0-4.339 1.121-5.616 2.839 2.245 1.011 4.026 2.865 4.94 5.161h6.677c1 0 1-1 1-1 0-3.86-3.14-7-7-7zm-5-4v-4.295c0-.32-.195-.597-.498-.706-.301-.107-.63-.015-.848.252l-1.101 1.546-1.284-1.516c-.425-.421-1.124-.411-1.579.045l-1.223 1.474s-1.271-1.694-1.303-1.717c-.191-.136-.482-.152-.729-.04-.268.124-.434.385-.434.681v4.276zm-8.949 2c.252 2.244 2.139 4 4.449 4s4.197-1.756 4.449-4z"/></svg>