<svg id="Layer_1" viewBox="0 0 24 24" xmlns="http://www.w3.org/2000/svg" data-name="Layer 1"><path d="m3.919 19.322c1.325.898 3.242.913 4.464-.37 2.329-2.312 2.268-5.142 2.048-6.557-.077-.494-.544-.821-1.036-.731-2.456.449-6.059.963-6.847 3.805 2.036.105 3.237-.399 6.239-1.79 0 0-.899 2.069-3.297 3.105 0 0-.814.393-2.367.55-.671-.011-.922.035-1.647-.129-.516-.117-1.036.177-1.185.685-.162.551.181 1.134.743 1.251 1.526.319 2.473.213 2.885.179zm9.081-16.322v-2c0-.553.448-1 1-1s1 .447 1 1v2c0 .553-.448 1-1 1s-1-.447-1-1zm-4 0v-2c0-.553.448-1 1-1s1 .447 1 1v2c0 .553-.448 1-1 1s-1-.447-1-1zm-4 0v-2c0-.553.448-1 1-1s1 .447 1 1v2c0 .553-.448 1-1 1s-1-.447-1-1zm15 20c0 .553-.448 1-1 1h-18c-.552 0-1-.447-1-1s.448-1 1-1h18c.552 0 1 .447 1 1zm0-14h-2.008c0-1.654-1.346-3-3-3h-10c-.802 0-1.556.312-2.123.88-.566.567-.87 1.321-.87 2.123v3.514c1.811-1.879 4.737-2.406 6.688-2.757l.348-.063c.765-.139 1.564.037 2.194.486.638.453 1.056 1.129 1.177 1.903.275 1.763.323 5.07-2.259 7.913h.847c1.871 0 3.629-.729 4.952-2.053.574-.575 1.029-1.235 1.367-1.947h2.686c2.28 0 4-1.521 4-3.538 0-2.006-1.682-3.462-4-3.462zm0 5h-2.084c.047-.331.079-.666.079-1.006v-1.994s2.005 0 2.005 0c.743 0 2 .308 2 1.462 0 1.01-1.006 1.538-2 1.538z"/></svg>