<svg id="Layer_1" viewBox="0 0 24 24" xmlns="http://www.w3.org/2000/svg" data-name="Layer 1"><path d="m10.286 17.973c.391.391.391 1.023 0 1.414s-1.023.391-1.414 0l-.327-.327c.1 1.471.382 2.481.936 3.439.276.479.113 1.09-.365 1.366-.469.275-1.088.118-1.366-.364-.827-1.431-1.126-2.895-1.215-4.551l-.464.464c-.391.391-1.023.391-1.414 0s-.391-1.023 0-1.414l1.415-1.414c.754-.755 2.072-.757 2.828 0zm-10.286-9.573v2.167c0 1.621 3.635 3.433 8.5 3.433.182 0 .353-.014.53-.02.424-1.189 1.088-2.261 1.938-3.16-.787.113-1.608.18-2.468.18-3.58 0-6.624-1.004-8.5-2.6zm2.485 9.515c.133-.486.377-.948.758-1.329l1.026-1.026c-1.724-.375-3.193-.969-4.269-1.734v1.74c0 .821.934 1.689 2.485 2.348zm6.015-8.915c4.694 0 8.5-2.015 8.5-4.5s-3.806-4.5-8.5-4.5-8.5 2.015-8.5 4.5 3.806 4.5 8.5 4.5zm15.062 11.5c-.278.482-.896.639-1.366.366l-.973-.562c-.705.794-1.644 1.375-2.723 1.594v1.101c0 .553-.448 1-1 1s-1-.447-1-1v-1.101c-1.079-.22-2.018-.801-2.723-1.594l-.973.562c-.47.273-1.088.116-1.366-.366-.276-.479-.112-1.09.366-1.366l.974-.562c-.166-.497-.278-1.019-.278-1.572s.111-1.075.278-1.572l-.974-.562c-.478-.276-.642-.888-.366-1.366s.886-.643 1.366-.366l.973.562c.705-.794 1.644-1.375 2.723-1.594v-1.101c0-.552.448-1 1-1s1 .448 1 1v1.101c1.079.22 2.018.801 2.723 1.594l.973-.562c.479-.277 1.09-.111 1.366.366.276.479.112 1.09-.366 1.366l-.974.562c.166.497.278 1.019.278 1.572s-.111 1.075-.278 1.572l.974.562c.478.276.642.888.366 1.366zm-4.562-3.5c0-.827-.673-1.5-1.5-1.5s-1.5.673-1.5 1.5.673 1.5 1.5 1.5 1.5-.673 1.5-1.5zm-15.757 3.828c-.203-.203-.358-.433-.49-.673-1.073-.352-2.008-.799-2.752-1.329v.96c0 2.132 2.541 3.477 5.639 3.983-.335-.703-.572-1.407-.741-2.108-.624-.097-1.201-.379-1.656-.833z"/></svg>