<svg id="Layer_1" viewBox="0 0 24 24" xmlns="http://www.w3.org/2000/svg" data-name="Layer 1"><path d="m15.064 8.567c.239-.793 1.076-1.243 1.869-1.004.793.239 1.243 1.076 1.004 1.869s-1.076 1.243-1.869 1.004c-.793-.239-1.243-1.076-1.004-1.869zm-3.064-2.567c.553 0 1-.448 1-1v-4c0-.552-.447-1-1-1s-1 .448-1 1v4c0 .552.447 1 1 1zm5.215.458c.515.158 1.088-.139 1.243-.673l1.142-3.833c.158-.53-.144-1.086-.673-1.244-.53-.158-1.087.145-1.243.673l-1.142 3.833c-.158.53.144 1.086.673 1.244zm-10.148 1.105c-.793.239-1.243 1.076-1.004 1.869s1.076 1.243 1.869 1.004c.793-.239 1.243-1.076 1.004-1.869s-1.076-1.243-1.869-1.004zm16.933 6.937c0 1.852-1.446 3.372-3.268 3.492-1.406 3.063-4.866 6.009-8.732 6.009s-7.327-2.945-8.732-6.009c-1.822-.12-3.268-1.641-3.268-3.492 0-1.697 1.068-2.676 2-3.138v-.362c0-1.115.455-1.793.837-2.164.407-.395.881-.599 1.286-.708-.156.6-.167 1.245.024 1.882.456 1.512 1.85 2.49 3.354 2.49.333 0 .672-.048 1.007-.149.596-.18 1.111-.517 1.526-.958.561.382 1.237.607 1.965.607s1.405-.225 1.966-.607c.415.441.93.778 1.526.958.335.101.673.149 1.007.149 1.504 0 2.897-.979 3.354-2.492.192-.638.181-1.287.022-1.889 1.536.407 2.125 1.853 2.125 2.881v.362c.933.462 2 1.44 2 3.138zm-14 1c0-.828-.672-1.5-1.5-1.5s-1.5.672-1.5 1.5.672 1.5 1.5 1.5 1.5-.672 1.5-1.5zm7 0c0-.828-.672-1.5-1.5-1.5s-1.5.672-1.5 1.5.672 1.5 1.5 1.5 1.5-.672 1.5-1.5zm-11.458-9.714c.155.534.728.831 1.243.673.529-.158.831-.714.673-1.244l-1.142-3.833c-.157-.528-.713-.832-1.243-.673-.529.158-.831.714-.673 1.244zm6.458 4.214c.828 0 1.5-.672 1.5-1.5s-.672-1.5-1.5-1.5-1.5.672-1.5 1.5.672 1.5 1.5 1.5z"/></svg>