<svg id="Layer_1" viewBox="0 0 24 24" xmlns="http://www.w3.org/2000/svg" data-name="Layer 1"><path d="m21 3h-9.142c-.447-1.72-1.999-3-3.858-3-2.061 0-6 1.558-6 4s3.939 4 6 4c1.859 0 3.411-1.28 3.858-3h9.142c.553 0 1-.448 1-1s-.447-1-1-1zm-21 13c0-.552.447-1 1-1h.464l.069-.584c.297-2.518 2.432-4.416 4.966-4.416h11.004c2.534 0 4.669 1.898 4.966 4.416l.069.584h.464c.553 0 1 .448 1 1s-.447 1-1 1h-22.002c-.553 0-1-.448-1-1zm22.536 3-.069.584c-.297 2.518-2.432 4.416-4.966 4.416h-11.003c-2.534 0-4.669-1.898-4.966-4.416l-.069-.584h7.756l.121.485c.223.892 1.021 1.515 1.94 1.515h1.438c.92 0 1.718-.623 1.94-1.515l.121-.485h7.756z"/></svg>