<svg id="Layer_1" viewBox="0 0 24 24" xmlns="http://www.w3.org/2000/svg" data-name="Layer 1"><path d="m14.5 10c0 1.103-.897 2-2 2h-2v-4h2c1.103 0 2 .897 2 2zm5.278 8.778-3.992 3.688c-1.003.981-2.355 1.533-3.787 1.533s-2.783-.552-3.807-1.553l-3.943-3.642c-4.316-4.315-4.316-11.293-.027-15.582 2.078-2.077 4.84-3.222 7.778-3.222s5.7 1.145 7.778 3.222c4.289 4.289 4.289 11.268 0 15.557zm-3.278-8.778c0-2.206-1.794-4-4-4h-2c-1.103 0-2 .897-2 2v8c0 .553.448 1 1 1s1-.447 1-1v-2h2c2.206 0 4-1.794 4-4z"/></svg>