<svg id="Layer_1" viewBox="0 0 24 24" xmlns="http://www.w3.org/2000/svg" data-name="Layer 1"><path d="m23.974 7.916c0 .272-.091.678-.523 1.061l-2.354 1.757c-.331.302-.911.346-1.335.148-.462-.207-.761-.661-.761-1.155v-2.002l-.409.3c-.442.325-1.069.232-1.398-.216-.326-.445-.229-1.071.216-1.397l1.245-.912-1.245-.911c-.446-.326-.543-.951-.217-1.397.326-.445.952-.544 1.397-.216l.41.3v-2.003c0-.494.299-.948.761-1.155.444-.201.958-.143 1.332.146 0 0 2.306 1.556 2.339 1.586.366.325.55.698.549 1.108s-.188.78-.553 1.101c-.031.027-2.09 1.432-2.09 1.432s2.014 1.263 2.055 1.3c.144.127.58.514.58 1.126zm.026 7.084v4c0 2.757-2.243 5-5 5h-14c-2.757 0-5-2.243-5-5v-4c0-2.757 2.243-5 5-5h6v-9c0-.553.448-1 1-1s1 .447 1 1v9h4.015c0 .019.002.033.002.053.117 1.151.845 2.17 1.899 2.642 1.099.517 2.507.373 3.432-.399l.539-.402c.686.856 1.114 1.927 1.114 3.107zm-15 0c0 .553.448 1 1 1h1c.552 0 1-.447 1-1s-.448-1-1-1h-1c-.552 0-1 .447-1 1zm-3 4c0-.552-.448-1-1-1s-1 .448-1 1 .448 1 1 1 1-.448 1-1zm1-4c0-.553-.448-1-1-1h-1c-.552 0-1 .447-1 1s.448 1 1 1h1c.552 0 1-.447 1-1zm9 4c0-.553-.448-1-1-1h-6c-.552 0-1 .447-1 1s.448 1 1 1h6c.552 0 1-.447 1-1zm4 0c0-.552-.448-1-1-1s-1 .448-1 1 .448 1 1 1 1-.448 1-1zm0-4c0-.553-.448-1-1-1h-4c-.552 0-1 .447-1 1s.448 1 1 1h4c.552 0 1-.447 1-1z"/></svg>