<?xml version="1.0" encoding="UTF-8"?>
<svg xmlns="http://www.w3.org/2000/svg" id="Layer_1" data-name="Layer 1" viewBox="0 0 24 24">
  <path d="m3.498,14.019C1.568,14.019-.002,12.449-.002,10.519l.021-.627.889-3.216c.599-2.167,2.571-3.668,4.819-3.668h.271v4c0,.552.448,1,1,1h0c.552,0,1-.448,1-1V3.007h4.298c-.705,2.386-.114,5.081,1.778,6.973l4.063,3.974c-.208.039-.42.065-.639.065h-.875c-1.044,0-1.983-.46-2.625-1.188-.642.728-1.581,1.188-2.625,1.188h-1.75c-1.05,0-1.983-.475-2.625-1.209-.642.735-1.575,1.209-2.625,1.209h-.875Zm13.125,2c-.927,0-1.827-.234-2.625-.668-.798.434-1.698.668-2.625.668h-1.75c-.924,0-1.826-.238-2.625-.679-.799.44-1.701.679-2.625.679h-.875c-.612,0-1.199-.105-1.75-.29v4.279c0,2.209,1.791,4,4,4h9.5c2.209,0,4-1.791,4-4v-4.279c-.551.186-1.138.29-1.75.29h-.875ZM22.538,1.464h0c-.945-.944-2.2-1.464-3.535-1.464s-2.591.52-3.536,1.464c-1.95,1.949-1.95,5.122.026,7.096l1.99,1.849c.428.397.976.596,1.524.596s1.101-.2,1.529-.6l2.001-1.871c1.95-1.949,1.95-5.122,0-7.071Zm-3.54,5.036c-.828,0-1.5-.672-1.5-1.5s.672-1.5,1.5-1.5,1.5.672,1.5,1.5-.672,1.5-1.5,1.5Z"/>
</svg>
