<svg id="Layer_1" viewBox="0 0 24 24" xmlns="http://www.w3.org/2000/svg" data-name="Layer 1"><path d="m24 4v12c0 1.862-1.278 3.412-3 3.859v-19.718c1.722.446 3 1.997 3 3.859zm-7-4h2v20h-11v3.241c0 .675-.816 1.013-1.294.536l-1.206-1.206-1.206 1.206c-.477.477-1.294.139-1.294-.536v-3.382c-1.722-.446-3-1.997-3-3.859v-12c0-2.209 1.791-4 4-4h3c2.209 0 4 1.791 4 4v13c0 .552.448 1 1 1s1-.448 1-1v-13c0-2.209 1.791-4 4-4zm-9 14c0-.552-.448-1-1-1h-3c-.552 0-1 .448-1 1s.448 1 1 1h3c.552 0 1-.448 1-1zm0-4c0-.552-.448-1-1-1h-3c-.552 0-1 .448-1 1s.448 1 1 1h3c.552 0 1-.448 1-1zm0-4c0-.552-.448-1-1-1h-3c-.552 0-1 .448-1 1s.448 1 1 1h3c.552 0 1-.448 1-1z"/></svg>