<svg id="Layer_1" viewBox="0 0 24 24" xmlns="http://www.w3.org/2000/svg" data-name="Layer 1"><path d="m16 9v-5c0-1.654 1.346-3 3-3h1.277c.346-.595.984-1 1.723-1 1.105 0 2 .895 2 2s-.895 2-2 2c-.738 0-1.376-.405-1.723-1h-1.277c-.551 0-1 .448-1 1v5c0 .553-.448 1-1 1s-1-.447-1-1zm-14-5c.738 0 1.376-.405 1.723-1h1.277c.551 0 1 .448 1 1v5c0 .553.448 1 1 1s1-.447 1-1v-5c0-1.654-1.346-3-3-3h-1.277c-.346-.595-.984-1-1.723-1-1.105 0-2 .895-2 2s.895 2 2 2zm9-.277v5.277c0 .553.448 1 1 1s1-.447 1-1v-5.277c.595-.346 1-.984 1-1.723 0-1.105-.895-2-2-2s-2 .895-2 2c0 .738.405 1.376 1 1.723zm9 1.734v3.543c0 1.654-1.346 3-3 3h-10c-1.654 0-3-1.346-3-3v-3.543c-.6.35-1.289.543-2 .543-.732 0-1.409-.212-2-.556v9.556c0 2.757 2.243 5 5 5h6v2h-4c-.552 0-1 .447-1 1s.448 1 1 1h10c.552 0 1-.447 1-1s-.448-1-1-1h-4v-2h6c2.757 0 5-2.243 5-5v-9.556c-.591.344-1.268.556-2 .556-.711 0-1.4-.193-2-.543z"/></svg>