<svg id="Layer_1" viewBox="0 0 24 24" xmlns="http://www.w3.org/2000/svg" data-name="Layer 1"><path d="m13.324 18.27c-.293-.249-.4-.654-.267-1.015.132-.361.476-.601.86-.601h2.751l.974-2.732c.133-.359.476-.597.859-.597s.726.238.859.597l.974 2.732h2.751c.385 0 .729.241.861.602.132.362.024.768-.271 1.016l-2.169 1.767.897 2.732c.123.37-.002.777-.311 1.014s-.734.254-1.06.042l-2.524-1.644-2.482 1.661c-.323.216-.748.205-1.059-.028-.312-.233-.441-.638-.325-1.009l.862-2.765-2.179-1.773zm8.419-3.615h1.341c.203 0 .4.028.593.069.205-.877.324-1.786.324-2.724 0-.552-.447-1-1-1s-1 .448-1 1c0 .855-.12 1.681-.322 2.474l.065.181zm-11.742-2.655c0 .552-.448 1-1 1h-4.932c.495 4.019 4.042 7.159 8.195 6.988-1.089-.788-1.548-2.2-1.084-3.426.415-1.137 1.516-1.906 2.736-1.906h1.34c.076-.197.516-1.502.616-1.655h-.873c-.553 0-1-.448-1-1s.447-1 1-1h5v-2h-5c-.553 0-1-.448-1-1s.447-1 1-1h4.931c-.495-3.94-3.859-7-7.931-7s-7.435 3.059-7.93 6.999h4.931c.552 0 1 .448 1 1s-.448 1-1 1h-5v2h5c.552 0 1 .448 1 1zm2.732 10.209.078-.25c-.268.022-.537.041-.81.041-5.21 0-9.492-3.908-9.959-9.09-.049-.549-.523-.944-1.086-.906-.551.05-.956.536-.907 1.086.561 6.22 5.699 10.91 11.951 10.91.249 0 .492-.022.736-.037-.177-.559-.187-1.17-.004-1.754z"/></svg>