<svg id="Layer_1" viewBox="0 0 24 24" xmlns="http://www.w3.org/2000/svg" data-name="Layer 1"><path d="m8.535 3.501c.084-.229.303-.382.548-.382h1.751l.619-1.738c.085-.228.303-.38.547-.38s.462.151.547.38l.619 1.738h1.751c.245 0 .464.153.548.383s.015.488-.172.647l-1.38 1.124.57 1.738c.078.235 0 .494-.198.646-.197.151-.467.162-.675.027l-1.606-1.046-1.579 1.057c-.205.138-.476.131-.675-.017-.199-.149-.281-.406-.206-.642l.549-1.759-1.387-1.129c-.186-.158-.255-.416-.17-.646zm-7.999 2c-.085.229-.017.487.17.646l1.387 1.129-.549 1.759c-.074.236.008.493.206.642.198.148.469.155.675.017l1.579-1.057 1.606 1.046c.207.135.478.124.675-.027s.276-.41.198-.646l-.57-1.738 1.38-1.124c.187-.158.256-.416.172-.647-.084-.23-.303-.383-.548-.383h-1.751l-.619-1.738c-.085-.228-.303-.38-.547-.38s-.462.151-.547.38l-.619 1.738h-1.751c-.245 0-.464.153-.548.382zm23.464 17.261c0 .682-.555 1.238-1.238 1.238-.951 0-2.532-1.442-3.456-2.793-.52-.76-1.385-1.207-2.306-1.207s-1.786.447-2.306 1.207c-.925 1.351-2.505 2.793-3.456 2.793-.682 0-1.238-.555-1.238-1.238 0-.603.254-2.634 1-5.058.132-.428.46-2.444 3-2.68v-.024c0-.552.448-1 1-1s1 .448 1 1h2c0-.552.448-1 1-1s1 .448 1 1v.024c2.54.236 2.868 2.252 3 2.68.747 2.423 1 4.455 1 5.058zm-5-10.762c1.019 0 1.921.51 2.463 1.289.865.275 1.811.818 2.537 1.832v-4.621c0-1.381-1.119-2.5-2.5-2.5h-1.5c-1.381 0-2.5 1.119-2.5 2.5v1.91c.442-.257.953-.41 1.5-.41zm-9.912 5.116c.64-2.401 2.146-3.41 3.453-3.827.543-.781 1.442-1.289 2.459-1.289.171 0 .337.019.5.047v-.547c0-1.381-1.119-2.5-2.5-2.5h-2c-1.381 0-2.5 1.119-2.5 2.5v7.839c.155-.69.346-1.435.588-2.224zm-5.088-6.116h-1.5c-1.381 0-2.5 1.119-2.5 2.5v7.999c0 1.381 1.119 2.5 2.5 2.5h1.5c1.381 0 2.5-1.119 2.5-2.5v-7.999c0-1.381-1.119-2.5-2.5-2.5zm12.036-8.499c-.085.229-.017.487.17.646l1.387 1.129-.549 1.759c-.074.236.008.493.206.642.198.148.469.155.675.017l1.579-1.057 1.606 1.046c.207.135.478.124.675-.027s.276-.41.198-.646l-.57-1.738 1.38-1.124c.187-.158.256-.416.172-.647-.084-.23-.303-.383-.548-.383h-1.751l-.619-1.738c-.085-.228-.303-.38-.547-.38s-.462.151-.547.38l-.619 1.738h-1.751c-.245 0-.464.153-.548.382z"/></svg>