<svg id="Layer_1" viewBox="0 0 24 24" xmlns="http://www.w3.org/2000/svg" data-name="Layer 1"><path d="m14 7v-6.54c.913.346 1.753.879 2.465 1.59l3.484 3.486c.712.711 1.245 1.551 1.591 2.464h-6.54c-.552 0-1-.449-1-1zm8 3.485v8.515c0 2.757-2.243 5-5 5h-10c-2.757 0-5-2.243-5-5v-14c0-2.757 2.243-5 5-5h4.515c.163 0 .324.013.485.024v6.976c0 1.654 1.346 3 3 3h6.976c.011.161.024.322.024.485zm-14.5 5.814c0-.441-.358-.799-.799-.799h-.901c-.442 0-.8.358-.8.8-.003.484.425.844.9.8v.368c0 .479-.361.898-.838.93-.524.035-.962-.381-.962-.898v-2.968c0-.479.361-.898.838-.93.375-.025.705.181.863.489.132.258.409.409.699.409.606 0 .99-.647.703-1.182-.414-.772-1.222-1.3-2.155-1.318-1.401-.027-2.548 1.154-2.548 2.556v2.887c0 1.402 1.147 2.583 2.548 2.556 1.358-.026 2.452-1.135 2.452-2.5v-1.201zm4.25 2.901c0-.442-.358-.8-.8-.8h-.851v-5.6c0-.442-.358-.8-.8-.8s-.8.358-.8.8v6.4c0 .442.358.8.8.8h1.65c.442 0 .8-.358.8-.8zm4.75-6.4c0-.442-.358-.8-.8-.8h-3.401c-.442 0-.8.358-.8.8s.358.8.8.8h.851v5.6c0 .442.358.8.8.8s.8-.358.8-.8v-5.6h.951c.442 0 .8-.358.8-.8zm2.6 2.601v-1.801h1.601c.442 0 .8-.358.8-.8s-.358-.8-.8-.8h-2.4c-.442 0-.8.358-.8.8v6.4c0 .442.358.8.8.8s.8-.358.8-.8v-2.2h1.601c.442 0 .8-.358.8-.8s-.358-.8-.8-.8h-1.601z"/></svg>