<svg id="Layer_1" viewBox="0 0 24 24" xmlns="http://www.w3.org/2000/svg" data-name="Layer 1"><path d="m11 24h-10c-.301 0-.585-.136-.775-.368-.19-.233-.265-.54-.204-.835.576-2.779 3.09-4.797 5.979-4.797s5.403 2.018 5.979 4.797c.061.295-.014.602-.204.835-.19.232-.475.368-.775.368zm-5-8c-2.206 0-4-1.794-4-4s1.794-4 4-4 4 1.794 4 4-1.794 4-4 4zm11.5-16c-3.584 0-6.5 2.916-6.5 6.5s2.916 6.5 6.5 6.5 6.5-2.916 6.5-6.5-2.916-6.5-6.5-6.5zm2.742 7.499-1.5 1.5c-.685.685-1.8.685-2.485 0l-1.5-1.5c-.252-.251-.329-.629-.19-.957.135-.328.456-.541.812-.541h1.121v-2c0-.552.448-1 1-1s1 .448 1 1v2h1.121c.355 0 .676.213.812.541.135.325.062.705-.19.957z"/></svg>