<svg id="Layer_1" viewBox="0 0 24 24" xmlns="http://www.w3.org/2000/svg" data-name="Layer 1"><path d="m20 0c-.553 0-1 .447-1 1v4.339l-6-3.136v-1.203c0-.552-.448-1-1-1s-1 .447-1 1v1.202l-6 3.136v-4.338c0-.552-.448-1-1-1s-1 .447-1 1v15.909c0 1.868 1.029 3.566 2.684 4.431l4 2.092c.725.378 1.52.567 2.315.567s1.591-.189 2.315-.568l4-2.09c1.656-.865 2.685-2.563 2.685-4.432v-15.909c.001-.552-.446-1-.999-1zm-1.548 7.309-5.452 2.849v-5.698zm-7.452-2.849v5.699l-5.452-2.849 5.452-2.849zm-6 4.82 4.361 2.279-4.361 2.279zm6 9.321c-.131-.047-.265-.082-.39-.147l-5.062-2.645 5.452-2.849zm2.389-.146c-.125.065-.258.1-.389.147v-5.642l5.452 2.849zm5.611-4.616-4.362-2.279 4.362-2.279v4.559z"/></svg>