<svg id="Layer_1" viewBox="0 0 24 24" xmlns="http://www.w3.org/2000/svg" data-name="Layer 1"><path d="m18 0c-3.314 0-6 2.686-6 6s2.686 6 6 6 6-2.686 6-6-2.686-6-6-6zm-1 3c0-.552.448-1 1-1s1 .448 1 1v2c0 .552-.448 1-1 1s-1-.448-1-1zm1 7c-.828 0-1.5-.672-1.5-1.5s.672-1.5 1.5-1.5 1.5.672 1.5 1.5-.672 1.5-1.5 1.5zm-8.011 5.01c2.26 2.638 2.505 4.018 2.505 4.49 0 1.488-1.293 2.488-2.5 2.488-1.179 0-2.494-1.022-2.494-2.488 0-.946 1.012-2.761 2.489-4.49zm10.018-1.274s0 .002 0 .003c0 5.656-4.489 10.261-10.006 10.261 2.349 0 4.494-1.949 4.494-4.5 0-1.393-.856-3.311-3.008-5.817-.373-.438-.908-.676-1.485-.683-.571.012-1.126.246-1.497.68-1.325 1.542-3.003 3.948-3.003 5.82 0 2.526 2.152 4.5 4.5 4.5-5.52 0-10.002-4.605-10.002-10.261 0-2.239.863-4.251 2.577-6.134.428-.47 1.082-.671 1.703-.524.631.149 1.132.629 1.307 1.252.101.364.197.809.307 1.211.233-1.071.847-3.702 1.676-5.792.301-.675 1.129-1.752 2.43-1.752.256 0 .593.068.941.237-.599 1.122-.941 2.402-.941 3.763 0 4.418 3.582 8 8 8 .694 0 1.364-.098 2.006-.264z"/></svg>