<svg id="Layer_1" viewBox="0 0 24 24" xmlns="http://www.w3.org/2000/svg" data-name="Layer 1"><path d="m18 7c3.309 0 6 2.691 6 6h-6zm-2 0c-3.309 0-6 2.691-6 6h6zm-6 8v2c0 3.86 3.141 7 7 7s7-3.14 7-7v-2zm11.866-10.866.943-1.634c.276-.478.112-1.09-.366-1.366s-1.09-.113-1.366.366l-.943 1.634c-.276.478-.112 1.09.366 1.366.47.273 1.088.116 1.366-.366zm-3.866-1.134v-2c0-.552-.447-1-1-1s-1 .448-1 1v2c0 .552.447 1 1 1s1-.448 1-1zm-12.5 18.81 1.634-.943c.479-.276.642-.888.366-1.366-.276-.479-.889-.644-1.366-.366l-1.634.943c-.479.276-.642.888-.366 1.366.278.483.896.639 1.366.366zm1.5-5.81c0-.552-.448-1-1-1h-2c-.552 0-1 .448-1 1s.448 1 1 1h2c.552 0 1-.448 1-1zm1.13-4.396c-.663.252-1.379.396-2.13.396-3.314 0-6-2.686-6-6s2.686-6 6-6 6 2.686 6 6c0 .029-.004.056-.004.085-1.999 1.162-3.448 3.162-3.866 5.519zm-1.308-1.804h.28c1.091 0 2.046-.785 2.199-1.865.164-1.158-.613-2.217-1.725-2.439l-2.792-.559c-.304-.061-.514-.36-.449-.678.055-.272.309-.458.587-.458h2.102c.203 0 .387.087.515.226.154.167.437.274.664.274.654 0 1.01-.763.592-1.266-.422-.509-1.059-.833-1.77-.833h-.2v-.4c0-.442-.358-.8-.8-.8s-.8.358-.8.8v.4h-.28c-1.091 0-2.046.786-2.199 1.866-.163 1.158.613 2.216 1.725 2.439l2.791.559c.304.062.514.359.451.677-.054.273-.308.46-.586.46h-2.103c-.203 0-.387-.087-.515-.226-.154-.167-.437-.274-.664-.274-.654 0-1.01.763-.592 1.266.422.509 1.059.833 1.77.833h.2v.408c0 .436.353.792.789.792h.02c.437 0 .79-.356.79-.792v-.408z"/></svg>