<svg id="Layer_1" viewBox="0 0 24 24" xmlns="http://www.w3.org/2000/svg" data-name="Layer 1"><path d="m24 2.768c0 .729-.295 1.442-.811 1.957l-3.189 3.189v4.201c0 .741-.869 1.14-1.431.658l-1.81-1.552c-.482-.413-.759-1.016-.759-1.65v-1.656l-3.189-3.189c-.516-.515-.811-1.229-.811-1.957 0-1.526 1.241-2.768 2.768-2.768h6.465c1.526 0 2.768 1.241 2.768 2.768zm-13 15.232c0 .553-.447 1-1 1s-1-.447-1-1v-1h-9v2c0 2.757 2.243 5 5 5h10c2.757 0 5-2.243 5-5v-2h-9zm8-3.025c-.624-.028-1.233-.255-1.734-.686l-1.807-1.549c-.926-.793-1.458-1.951-1.458-3.17 0-.867-.703-1.57-1.57-1.57h-5.431v-1c0-.552.448-1 1-1h1.5c.553 0 1-.447 1-1s-.447-1-1-1h-1.5c-1.654 0-3 1.346-3 3v1c-2.761 0-5 2.239-5 5v2h19z"/></svg>