<svg id="Layer_1" viewBox="0 0 24 24" xmlns="http://www.w3.org/2000/svg" data-name="Layer 1"><path d="m9.588 8.171 1.769-1.002c.197-.112.419-.168.641-.168s.441.056.639.167l1.777 1.004-2.411 1.378-2.414-1.38zm1.412 3.11-2.499-1.428v2.08c0 .465.251.898.655 1.129l1.841 1.052zm2 .003-.003 2.86 1.835-1.019c.412-.229.669-.665.669-1.137v-2.133zm9.001-4.412v5.171c0 7.434-7.047 10.848-9.207 11.717-.217.081-.535.24-.791.24-.277 0-.609-.191-.85-.307-2.147-1.074-9.152-5.086-9.152-11.65v-5.171c0-2.16 1.377-4.067 3.427-4.746l6.258-2.075c.203-.067.426-.067.629 0l6.259 2.075c2.05.679 3.427 2.586 3.427 4.746zm-4.5 2.673c0-1.188-.643-2.289-1.677-2.873l-2.204-1.245c-1.002-.566-2.247-.565-3.249.002l-2.195 1.243c-1.033.584-1.675 1.685-1.675 2.872v2.389c0 1.181.637 2.278 1.662 2.865l2.217 1.267c.504.288 1.071.433 1.639.433.553 0 1.105-.138 1.601-.412l2.184-1.212c1.048-.582 1.698-1.688 1.698-2.885v-2.443z"/></svg>