<svg id="Layer_1" viewBox="0 0 24 24" xmlns="http://www.w3.org/2000/svg" data-name="Layer 1"><path d="m23 0c-.553 0-1 .448-1 1v1h-2v-1c0-.552-.447-1-1-1s-1 .448-1 1v2.5c0 1.207.86 2.217 2 2.449v2c-2.244-.252-4-2.139-4-4.449v-2.295c-1.53-.783-3.231-1.205-5-1.205-2.938 0-5.701 1.145-7.778 3.222-2.078 2.077-3.222 4.84-3.222 7.778s1.145 5.7 3.25 7.805l3.943 3.643c1.023 1.001 2.375 1.552 3.807 1.552s2.785-.551 3.787-1.533l3.991-3.689c2.077-2.076 3.22-4.836 3.221-7.771 0-.002.001-.004.001-.006v-5.052c1.14-.232 2-1.242 2-2.449v-2.5c0-.552-.447-1-1-1zm-6.966 14.33c-.131.146-.287.262-.451.363v.807c0 .552-.447 1-1 1s-1-.448-1-1v-.5h-5.083v.5c0 .552-.448 1-1 1s-1-.448-1-1v-.807c-.164-.101-.319-.216-.45-.362-.376-.42-.61-1.273-.55-1.83.038-.345.107-.828.186-1.164l.761-2.918c.47-1.446 1.808-2.418 3.329-2.418h2.45c1.521 0 2.858.972 3.329 2.418l.737 2.838c.102.415.171.899.209 1.244.061.556-.09 1.41-.466 1.83zm-2.382-5.293.579 1.964h-6.5l.618-1.963c.201-.62.774-1.037 1.426-1.037h2.45c.651 0 1.226.417 1.427 1.036z"/></svg>