<svg id="Layer_1" viewBox="0 0 24 24" xmlns="http://www.w3.org/2000/svg" data-name="Layer 1"><path d="m24 8.499v1h-8v-4c0-1.105.895-2 2-2h1c2.761 0 5 2.239 5 5zm-21.942 11c-.034.162-.058.328-.058.5 0 1.381 1.119 2.5 2.5 2.5s2.5-1.119 2.5-2.5c0-.172-.024-.338-.058-.5zm13.942-4h-12v-3.799c.291.228.804.644 1.124.817l4.796-9.57c-.174-.066-.344-.143-.524-.192l-4.168-1.141c-1.48-.405-3.062.297-3.752 1.673l-1.133 2.26c-.689 1.375-.309 3.061.904 4.006l.753.587v5.359h-1c-.552 0-1 .447-1 1s.448 1 1 1h20c1.654 0 3-1.346 3-3v-3h-8zm1.058 4c-.034.162-.058.328-.058.5 0 1.381 1.119 2.5 2.5 2.5s2.5-1.119 2.5-2.5c0-.172-.024-.338-.058-.5h-4.885zm-8.659-6h1.924c1.322 0 2.51-.734 3.102-1.915l.717-1.43c.592-1.183.468-2.574-.325-3.634l-1.154-1.541c-.29-.387-.638-.722-1.009-1.028l-4.687 9.354c.469.114.947.193 1.433.193z"/></svg>