<svg id="Layer_1" viewBox="0 0 24 24" xmlns="http://www.w3.org/2000/svg" data-name="Layer 1"><path d="m2.085 2.572c-.383-1.283.578-2.572 1.917-2.572h7c1.341 0 2.302 1.294 1.915 2.578l-.568 1.422h-9.674zm19.417 11.428h-6c-1.381 0-2.5 1.119-2.5 2.5v3.5c0 2.209 1.791 4 4 4h3c2.209 0 3.998-1.791 3.998-4v-3.5c0-1.381-1.118-2.5-2.498-2.5zm-10.502 6v-3.5c0-2.271 1.698-4.134 3.886-4.438-.425-2.858-2.01-4.996-2.977-6.062h-8.818c-1.123 1.239-3.091 3.917-3.091 7.5v5.5c0 2.757 2.243 5 5 5h5c.768 0 1.488-.188 2.139-.499-.712-.987-1.139-2.194-1.139-3.501z"/></svg>