<svg id="Layer_1" viewBox="0 0 24 24" xmlns="http://www.w3.org/2000/svg" data-name="Layer 1"><path d="m12.034 14.63.708 1.025c.372.539.339 1.259-.08 1.762l-.894 1.072c-.477.572-1.309.693-1.929.28l-1.19-.793c-.406-.27-.649-.726-.649-1.213v-.695c0-.577.34-1.1.868-1.334l1.376-.609c.641-.283 1.392-.071 1.79.505zm-11.034 3.37c.256 0 .512-.098.707-.293l10.962-10.962c1.607 1.911 2.606 4.1 3.151 6.403.117.495.542.856 1.05.863.636.009 1.132-.527 1.103-1.163-.164-3.552-1.089-6.477-2.809-8.599l.543-.543c.391-.391.391-1.023 0-1.414s-1.023-.391-1.414 0l-.543.543c-2.122-1.72-5.047-2.645-8.599-2.808-.635-.029-1.171.467-1.163 1.103.007.509.368.933.863 1.051 2.304.545 4.493 1.543 6.403 3.151l-10.961 10.961c-.391.391-.391 1.023 0 1.414.195.195.451.293.707.293zm23 2.007c0 2.207-1.787 3.996-3.993 4l-19.007.032c-.553 0-1-.448-1-1s.447-1 1-1h11.172c.265 0 .52-.105.707-.293l.827-.828c.563-.563 1.326-.879 2.122-.879h2.172c.552 0 1-.448 1-1v-1.172c0-.795.316-1.558.878-2.12l1.829-1.83c.187-.187.293-.442.293-.707v-12.21c0-.552.447-1 1-1s1 .448 1 1z"/></svg>