<svg id="Layer_1" viewBox="0 0 24 24" xmlns="http://www.w3.org/2000/svg" data-name="Layer 1"><path d="m12 6v-3.799c-.646-.131-1.315-.201-2-.201-5.523 0-10 4.477-10 10s4.477 10 10 10c2.254 0 4.327-.755 6-2.014v-7.672c-2.361-1.126-4-3.53-4-6.315zm-1 6c0 .266-.105.52-.293.707l-2 2c-.391.391-1.023.391-1.414 0s-.391-1.023 0-1.414l1.707-1.707v-3.586c0-.553.447-1 1-1s1 .447 1 1zm13-11v5c0 2.414-1.721 4.434-4 4.899v12.101c0 .553-.447 1-1 1s-1-.447-1-1v-12.101c-2.279-.465-4-2.484-4-4.899v-5c0-.553.447-1 1-1s1 .447 1 1v5c0 1.302.839 2.402 2 2.816v-7.816c0-.553.447-1 1-1s1 .447 1 1v7.816c1.161-.414 2-1.514 2-2.816v-5c0-.553.447-1 1-1s1 .447 1 1z"/></svg>