<svg id="Layer_1" viewBox="0 0 24 24" xmlns="http://www.w3.org/2000/svg" data-name="Layer 1"><path d="m14.631 3c-.533 0-1.057.131-1.566.351.131-1.075.421-1.449.479-1.512.422-.273.58-.826.35-1.286-.247-.494-.847-.695-1.342-.447-.364.182-1.553 1.038-1.553 4.394v.383c-1.769 1.95-3 5.188-3 8.617 0 1.817.427 3.552 1.235 5.017.267.483.091 1.092-.393 1.358-.153.084-.319.125-.482.125-.353 0-.694-.187-.876-.517-.971-1.76-1.484-3.828-1.484-5.983 0-3.453 1.087-6.68 2.774-8.991.464-.636-.092-1.513-.861-1.343-3.966.877-6.912 5.221-6.912 10.334 0 5.789 3.754 10.5 8.368 10.5.713 0 1.42-.112 2.103-.333.346-.112.711-.112 1.057 0 .683.221 1.391.333 2.104.333 4.614 0 8.369-4.71 8.369-10.5s-3.755-10.5-8.37-10.5zm.869 16c-.828 0-1.5-.672-1.5-1.5s.672-1.5 1.5-1.5 1.5.672 1.5 1.5-.672 1.5-1.5 1.5zm2-4c-.828 0-1.5-.672-1.5-1.5s.672-1.5 1.5-1.5 1.5.672 1.5 1.5-.672 1.5-1.5 1.5z"/></svg>