<svg id="Layer_1" viewBox="0 0 24 24" xmlns="http://www.w3.org/2000/svg" data-name="Layer 1"><path d="m7.996 10.088c0-.358.049-.704.139-1.034.281-.041.568-.062.861-.062 2.569 0 4.766 1.623 5.62 3.896-.703.682-1.661 1.102-2.715 1.102-2.153 0-3.904-1.751-3.904-3.902zm11.838-5.236c1.463.39 2.847-.054 3.781-.96-.184-.491-.431-.951-.731-1.372l.822-.81c.39-.39.39-1.023 0-1.414-.39-.39-1.024-.39-1.414 0l-.822.81c-.98-.698-2.18-1.11-3.474-1.11-.292 0-.58.021-.861.062-.18.655-.194 1.377.009 2.121.353 1.289 1.398 2.329 2.69 2.674zm1.066 2.141c-3.256 0-5.904-2.648-5.904-5.902 0-.099.003-.197.007-.295-1.796 1.038-3.007 2.979-3.007 5.197 0 .585.085 1.151.242 1.686 1.809.805 3.266 2.261 4.071 4.07.535.157 1.102.242 1.687.242 3.268 0 5.933-2.625 5.998-5.876-.9.556-1.96.878-3.094.878zm-14.904 3.095c0-.099.003-.197.007-.295-1.796 1.038-3.007 2.979-3.007 5.197 0 1.293.412 2.493 1.111 3.474h.001s-3.815 3.825-3.815 3.825c-.39.39-.39 1.023 0 1.414.391.39 1.024.39 1.414 0l3.816-3.824c.981.699 2.18 1.11 3.473 1.11 3.268 0 5.933-2.625 5.998-5.876-.9.556-1.96.878-3.094.878-3.256 0-5.904-2.648-5.904-5.902z"/></svg>