<svg id="Layer_1" viewBox="0 0 24 24" xmlns="http://www.w3.org/2000/svg" data-name="Layer 1"><path d="m23.326 1.105c-.573-.703-1.421-1.105-2.328-1.105h-8.998c.828 0 1.5.672 1.5 1.5s-.672 1.5-1.5 1.5-1.5-.672-1.5-1.5.672-1.5 1.5-1.5h-8.998c-.906 0-1.755.403-2.328 1.105-.57.701-.794 1.61-.612 2.496.206.999.59 2.052.929 2.981.187.512.365.997.494 1.427.342 1.14.516 2.311.516 3.479v4.692c0 .666-.205 1.374-.421 2.124-.215.732-.365 1.333-.523 2.136-.171.875.058 1.772.627 2.464.574.697 1.42 1.096 2.321 1.096h7.996c-.828 0-1.5-.672-1.5-1.5s.672-1.5 1.5-1.5 1.5.672 1.5 1.5-.672 1.5-1.5 1.5h7.996c.901 0 1.748-.399 2.321-1.096.569-.691.798-1.589.627-2.464-.158-.803-.308-1.404-.523-2.136-.216-.75-.421-1.458-.421-2.124v-4.692c0-1.169.173-2.34.516-3.48.128-.429.306-.914.493-1.426.339-.93.723-1.983.929-2.982.182-.885-.042-1.794-.612-2.495zm-11.326 3.895c.828 0 1.5.672 1.5 1.5s-.672 1.5-1.5 1.5-1.5-.672-1.5-1.5.672-1.5 1.5-1.5zm0 5c.828 0 1.5.672 1.5 1.5s-.672 1.5-1.5 1.5-1.5-.672-1.5-1.5.672-1.5 1.5-1.5zm5.139 7.585-1.532.656c-.368.157-.607.519-.607.919v1.319c0 .427-.483.676-.831.427l-1.588-1.134c-.348-.248-.815-.248-1.163 0l-1.588 1.134c-.348.248-.831 0-.831-.427v-1.319c0-.4-.239-.762-.607-.919l-1.532-.656c-.482-.241-.482-.928 0-1.169l1.532-.656c.368-.157.607-.519.607-.919v-1.272c0-.447.505-.707.869-.447l1.55 1.107c.348.248.815.248 1.163 0l1.55-1.107c.364-.26.869 0 .869.447v1.272c0 .4.239.762.607.919l1.532.656c.482.241.482.928 0 1.169zm-3.639-.585c0 .828-.672 1.5-1.5 1.5s-1.5-.672-1.5-1.5.672-1.5 1.5-1.5 1.5.672 1.5 1.5z"/></svg>