<svg id="Layer_1" viewBox="0 0 24 24" xmlns="http://www.w3.org/2000/svg" data-name="Layer 1"><path d="m20.686 23.662c-.19.215-.463.338-.75.338h-15.872c-.564.016-1.121-.56-.992-1.124.489-1.857 1.082-3.722 3.509-5.384 1.027-.703 2.03-.595 2.919.315.564.579 1.722 1.192 2.5 1.192s1.936-.613 2.5-1.192c.889-.91 1.892-1.018 2.919-.315 2.427 1.662 3.02 3.527 3.509 5.384.073.277-.053.57-.242.786zm-17.667-15.181c.562-.188 1.481-.481 2.481-.481 0 0-1.977.784-2.494 3.534-.099.529.46.933.946.702.565-.269 1.048-.237 1.048-.237 0 1.854.043 3.005-.145 4.298.195-.153.379-.307.597-.456 1.478-1.013 3.139-1.042 4.549-.166v-2.098c-1.44-.655-2.512-1.937-2.87-3.472-.13-.559.221-1.111.783-1.226 2.99-.617 3.854-3.183 4.088-4.38.233 1.196 1.098 3.763 4.088 4.38.562.116.913.668.783 1.226-.358 1.534-1.43 2.817-2.87 3.472v2.098c1.409-.877 3.066-.848 4.549.166.218.149.401.303.597.456-.189-1.292-.145-2.443-.145-4.298 0 0 .483-.032 1.048.237.486.231 1.046-.174.946-.702-.517-2.751-2.494-3.534-2.494-3.534 1 0 1.918.293 2.481.481.556.185 1.112-.333.98-.904-.348-1.51-1.452-3.763-3.961-4.077.478-.239 1.75-.364 2.228-.429.72-.098 1.032-.97.516-1.482-.785-.778-2.834-1.589-4.653-1.589-3.144 0-4.091 1.818-4.091 1.818s-.947-1.818-4.091-1.818c-1.819 0-3.868.811-4.653 1.589-.516.512-.205 1.384.516 1.482.478.065 1.75.19 2.228.429-2.509.314-3.613 2.567-3.961 4.077-.132.571.424 1.089.98.904z"/></svg>