<svg id="Layer_1" viewBox="0 0 24 24" xmlns="http://www.w3.org/2000/svg" data-name="Layer 1"><path d="m19.751 14.076c-1.083-3.322-1.751-6.007-1.751-7.076 0-.552.449-1 1-1s1 .448 1 1 .448 1 1 1 1-.447 1-1c0-1.654-1.346-3-3-3s-3 1.346-3 3c0 .592.136 1.418.334 2.329l-4.707 3.6-.538-.497c-.405-.373-1.038-.348-1.413.058-.374.406-.349 1.038.058 1.413l.281.259-1.589 1.215c-.896-.847-2.097-1.376-3.425-1.376-2.757 0-5 2.243-5 5s2.243 5 5 5 5-2.243 5-5c0-.708-.152-1.38-.419-1.991l7.28-5.567c.266.959.555 1.912.825 2.755-2.118.581-3.687 2.503-3.687 4.803 0 2.757 2.243 5 5 5s5-2.243 5-5c0-2.5-1.85-4.558-4.249-4.924zm-13.751-2.076c3.314 0 6-2.686 6-6s-2.686-6-6-6-6 2.686-6 6 2.686 6 6 6zm-2.977-5.738 1.313-3.691c.125-.344.437-.571.785-.571h1.665c.352 0 .589.382.45.725l-.844 2.275h2.073c.424-.002.681.497.448.873l-3.266 3.93c-.089.124-.228.196-.375.197-.324.001-.554-.335-.452-.661l.519-2.339h-1.793c-.364.002-.626-.369-.523-.738z"/></svg>