<svg id="Layer_1" viewBox="0 0 24 24" xmlns="http://www.w3.org/2000/svg" data-name="Layer 1"><path d="m21.5 14.066v1.349c0 .996-.681 1.92-1.664 2.08-1.253.204-2.336-.758-2.336-1.973v-1.456c0-.489-.576-.744-.946-.424-.949.821-1.554 2.026-1.554 3.38 0 1.956 1.256 3.605 3 4.224v1.753c0 .552.448 1 1 1h1c.552 0 1-.448 1-1v-1.753c1.744-.62 3-2.268 3-4.224 0-1.354-.604-2.56-1.554-3.38-.37-.32-.946-.065-.946.424zm-5.905 8.121c-1.082.512-2.294.812-3.594.813-3.074-.003-5.699-1.594-7.119-4h-.882c-1.105 0-2 .895-2 2v2c0 .552-.448 1-1 1s-1-.448-1-1v-2c0-2.209 1.791-4 4-4h.042c-.185-.686-.292-1.406-.293-2.157-.016-.534.093-1.282.264-1.843h-3.013c-.552 0-1-.448-1-1s.448-1 1-1h3.516l1.006-4h-1.522c-2.209 0-4-1.791-4-4v-2c0-.552.448-1 1-1s1 .448 1 1v2c0 1.105.895 2 2 2h2.08c.992-2.396 3.329-3.997 5.918-4 2.591.003 4.929 1.604 5.92 4h2.081c1.105 0 2-.895 2-2v-2c0-.552.447-1 1-1s1 .448 1 1v2c0 2.209-1.791 4-4 4h-1.523l.882 3.507c-3.524.075-6.36 2.95-6.36 6.493 0 2.122 1.021 4.001 2.595 5.187z"/></svg>