<svg id="Layer_1" viewBox="0 0 24 24" xmlns="http://www.w3.org/2000/svg" data-name="Layer 1"><path d="m11 3v-2c0-.552.447-1 1-1s1 .448 1 1v2c0 .552-.447 1-1 1s-1-.448-1-1zm5 1c.553 0 1-.448 1-1v-2c0-.552-.447-1-1-1s-1 .448-1 1v2c0 .552.447 1 1 1zm-8 0c.553 0 1-.448 1-1v-2c0-.552-.447-1-1-1s-1 .448-1 1v2c0 .552.447 1 1 1zm15.121 16.928c-1.157 1.916-3.25 3.196-5.484 3.063-3.145-.188-5.637-2.797-5.637-5.989 0-1.139.882-3.11 1.465-4.139.32-.566.812-.498 1.062.103.208.501.428 2.035 1.104 2.035 1.82 0 1.433-3.302 2.37-5.492.234-.548.637-.61 1.083-.215 2.6 2.303 6.736 6.168 4.038 10.636zm-3.794-2.43-.769-1.097c-.308-.308-.807-.308-1.115 0l-.77 1.096c-.754.754-.889 1.99-.195 2.8.802.937 2.242.937 3.044 0 .693-.809.559-2.046-.195-2.8zm-5.204-7.02c.514.031.987.22 1.383.537.146-.749.335-1.544.655-2.293 1.217-1.993 2.286-2.224 4.247-.927.787.697 1.916 1.703 2.957 2.946.173-.382.335-.776.469-1.198.339-1.063.153-2.193-.51-3.1-.67-.917-1.704-1.443-2.837-1.443h-16.976c-1.133 0-2.167.526-2.837 1.443-.663.907-.849 2.036-.51 3.1 1.272 3.986 4.418 6.137 5.922 6.969l-.752 1.505c-1.302.087-2.333 1.16-2.333 2.483 0 1.381 1.119 2.5 2.5 2.5s2.5-1.119 2.5-2.5c0-.709-.298-1.345-.772-1.8l.85-1.7h1.922c0-2.021 1.548-4.812 1.725-5.124.529-.934 1.436-1.456 2.398-1.398z"/></svg>