<svg id="Layer_1" viewBox="0 0 24 24" xmlns="http://www.w3.org/2000/svg" data-name="Layer 1"><path d="m15.063 14.082v3.837c0 .266-.216.482-.482.482s-.482-.216-.482-.482v-3.837c0-.266.216-.482.482-.482s.482.216.482.482zm-.063-6.082h6.54c-.347-.913-.88-1.753-1.591-2.464l-3.484-3.486c-.712-.711-1.552-1.244-2.465-1.59v6.54c0 .551.448 1 1 1zm7 2.485v2.315c0-.442-.358-.8-.8-.8s-.8.358-.8.8v2.835l-1.078-3.008c-.133-.371-.484-.62-.878-.622-.52-.003-.943.418-.943.938v6.257c0 .442.358.8.8.8s.8-.358.8-.8v-2.912l1.081 3.085c.131.375.486.627.883.627.494 0 .888-.386.923-.872-.07 2.696-2.274 4.872-4.987 4.872h-10.001c-2.757 0-5-2.243-5-5v-.677c.272.965 1.149 1.677 2.2 1.677 1.269 0 2.3-1.031 2.3-2.3v-4.9c0-.442-.358-.8-.8-.8s-.8.358-.8.8v4.9c0 .386-.314.7-.7.7-.643 0-.7-.601-.7-.601 0-.442-.358-.8-.8-.8-.309 0-.569.18-.7.437v-12.436c0-2.757 2.243-5 5-5h4.515c.163 0 .324.013.485.024v6.976c0 1.654 1.346 3 3 3h6.976c.011.161.024.322.024.485zm-10.159 7.134c0-1.68-1.303-2.216-2.082-2.536-1.035-.425-1.035-.752-1.035-.892 0-.359.247-.591.628-.591.144 0 .286.04.413.095.308.133.663.08.901-.157.393-.392.284-1.064-.222-1.293-.306-.138-.677-.245-1.093-.245-1.271 0-2.228.942-2.228 2.191 0 1.539 1.525 2.166 2.026 2.372.897.369 1.091.556 1.091 1.056 0 .601-.614.779-.696.781-.356 0-.653-.118-.87-.246-.285-.168-.643-.129-.896.083-.423.353-.376 1.021.1 1.3.419.246.983.463 1.667.463.938 0 2.296-.848 2.296-2.381zm4.823-3.537c0-1.148-.933-2.082-2.082-2.082s-2.082.933-2.082 2.082v3.837c0 1.148.933 2.082 2.082 2.082s2.082-.933 2.082-2.082z"/></svg>