<svg id="Layer_1" viewBox="0 0 24 24" xmlns="http://www.w3.org/2000/svg" data-name="Layer 1"><path d="m18 12c-3.314 0-6 2.686-6 6s2.686 6 6 6 6-2.686 6-6-2.686-6-6-6zm2.207 8.207c-.195.195-.451.293-.707.293s-.512-.098-.707-.293l-1.5-1.5c-.188-.188-.293-.442-.293-.707v-2.5c0-.552.448-1 1-1s1 .448 1 1v2.086l1.207 1.207c.391.391.391 1.023 0 1.414zm1.252-16.073c-.422-2.396-2.492-4.134-4.924-4.134h-9.085c-2.435 0-4.506 1.74-4.925 4.138l-2.45 14c-.255 1.458.145 2.945 1.097 4.079.952 1.133 2.347 1.783 3.828 1.783h7.717c-1.664-1.467-2.717-3.612-2.717-6 0-1.59.468-3.072 1.271-4.318-.167-.179-.272-.417-.272-.682v-2c0-.552.448-1 1-1s1 .448 1 1v.762c1.371-1.101 3.11-1.762 5.001-1.762 1.786 0 3.437.589 4.77 1.582zm-8.46 1.866c0 .552-.448 1-1 1s-1-.448-1-1v-2c0-.552.448-1 1-1s1 .448 1 1z"/></svg>