<svg id="Layer_1" viewBox="0 0 24 24" xmlns="http://www.w3.org/2000/svg" data-name="Layer 1"><path d="m12 0c-6.617 0-12 5.383-12 12s5.383 12 12 12 12-5.383 12-12-5.383-12-12-12zm10 12c0 2.398-.85 4.6-2.262 6.325l-2.925-2.925c.393.059.788.1 1.187.1.552 0 1-.447 1-1s-.448-1-1-1c-1.258 0-2.504-.416-3.613-1.103.367-.146.735-.277 1.099-.404 1.036-.364 1.931-.678 2.534-1.281.632-.632.98-1.473.98-2.367s-.348-1.735-.98-2.367c-1.218-1.218-3.519-1.217-4.734 0-.604.603-.918 1.498-1.282 2.536-.127.362-.258.73-.403 1.096-.685-1.107-1.1-2.352-1.1-3.608 0-.552-.448-1-1-1s-1 .448-1 1c0 .399.041.794.1 1.186l-2.925-2.925c1.725-1.412 3.927-2.262 6.324-2.262 5.514 0 10 4.486 10 10zm-20 0c0-2.398.85-4.6 2.262-6.324l14.062 14.063c-1.725 1.412-3.926 2.262-6.324 2.262-5.514 0-10-4.486-10-10zm11.236 5.451c-.869.946-2.104 1.549-3.486 1.549-2.619 0-4.75-2.131-4.75-4.75 0-1.382.604-2.617 1.549-3.486l1.413 1.414c-.584.505-.963 1.242-.963 2.073 0 1.517 1.233 2.75 2.75 2.75.831 0 1.568-.378 2.073-.963l1.413 1.413z"/></svg>