<svg id="Layer_1" viewBox="0 0 24 24" xmlns="http://www.w3.org/2000/svg" data-name="Layer 1"><path d="m14 7v-6.54c.913.346 1.753.879 2.465 1.59l3.484 3.486c.712.711 1.245 1.551 1.591 2.464h-6.54c-.552 0-1-.449-1-1zm3.229 7.985c0-.394-.342-.726-.75-.733-.402.007-.725.333-.724.736 0 .095.008 1.886.008 2.024 0 .403.322.729.724.736.408-.007.75-.338.75-.733l-.008-2.015zm4.747-4.985h-6.976c-1.654 0-3-1.346-3-3v-6.976c-.161-.011-.322-.024-.485-.024h-4.515c-2.757 0-5 2.243-5 5v14c0 2.757 2.243 5 5 5h10c2.757 0 5-2.243 5-5v-8.515c0-.163-.013-.324-.024-.485zm-15.104 9c-.346 0-.627-.281-.627-.627l-.005-4.745c0-.347.281-.628.628-.628s.627.28.627.626c.002 1.472.004 3.457.005 4.746 0 .347-.281.628-.628.628zm6.505-1.549c-.158.888-.998 1.533-2.002 1.549-.834.011-1.634-.321-2.168-.911v-.003c-.232-.255-.213-.65.042-.882h.002c.255-.233.65-.214.881.042.286.316.736.505 1.204.505.448 0 .764-.265.81-.521.062-.345-.451-.562-.61-.621-.752-.277-1.43-.58-1.43-.58-.6-.382-.864-.969-.777-1.579.094-.649.568-1.178 1.239-1.38.245-.095.779-.067 1.037-.07.807.116 1.383.58 1.415.607l.002.002c.263.221.298.614.076.877l-.004.005c-.221.263-.613.297-.876.076-.025-.021-.633-.495-1.29-.299-.293.088-.351.282-.362.361-.008.059-.013.206.13.302.016 0 .614.263 1.272.506 1.223.451 1.529 1.336 1.408 2.014zm5.102-.436c0 1.094-.902 1.985-2.012 1.985-1.086 0-1.967-.881-1.967-1.967l-.008-2.066c0-1.086.881-1.967 1.967-1.967 1.109 0 2.012.891 2.012 1.985v.015l.008 2z"/></svg>