<svg id="Layer_1" viewBox="0 0 24 24" xmlns="http://www.w3.org/2000/svg" data-name="Layer 1"><path d="m20 24h-16c-.552 0-1-.447-1-1s.448-1 1-1h16c.552 0 1 .447 1 1s-.448 1-1 1zm-2.296-13.913s0 0 0 0c-.752-1.246-2.405-1.432-3.412-.498l-.832.782.02.019c1.141 1.073 1.921 2.464 2.283 3.968l1.695-1.682c.595-.734.733-1.78.245-2.589zm3.538-10.074c-1.301.13-2.242 1.322-2.242 2.63v5.843c.151.177.293.363.417.568.906 1.503.744 3.465-.378 4.848l-3.038 3.024v2.074c0 .552.448 1 1 1h2.526c.527 0 1.033-.208 1.407-.579l.695-.688c1.517-1.502 2.371-3.549 2.371-5.685v-10.548c0-1.466-1.261-2.637-2.758-2.487zm-16.768 19.987h8.526c.552 0 1-.448 1-1v-2.782c0-1.655-.684-3.237-1.89-4.371l-2.402-2.258c-1.007-.934-2.66-.748-3.412.498-.488.81-.35 1.855.245 2.589l1.788 2.304c.339.436.26 1.064-.177 1.403-.436.339-1.064.26-1.403-.177l-1.788-2.304c-1.122-1.383-1.285-3.345-.378-4.848.123-.204.266-.391.417-.568v-5.843c0-1.308-.941-2.499-2.242-2.63-1.496-.15-2.758 1.021-2.758 2.487v10.547c0 2.134.853 4.18 2.369 5.683l.697.691c.375.371.88.579 1.408.579z"/></svg>