<?xml version="1.0" encoding="UTF-8"?>
<svg xmlns="http://www.w3.org/2000/svg" id="Layer_1" data-name="Layer 1" viewBox="0 0 24 24">
  <path d="M14,17c0,.351-.097,.695-.278,1h-3.444c-.181-.305-.278-.649-.278-1,0-1.103,.897-2,2-2s2,.897,2,2Zm5.685-4.676c.862,1.411,1.315,3.016,1.315,4.676,.005,1.654-.461,3.256-1.301,4.645-.894,1.478-2.522,2.355-4.249,2.355h-6.899c-1.727,0-3.355-.877-4.249-2.355-.841-1.389-1.306-2.991-1.301-4.645,0-1.66,.453-3.265,1.315-4.676-1.558-3.288-2.315-5.523-2.315-6.824C2,3.446,3.299,0,12,0s10,3.446,10,5.5c0,1.301-.758,3.536-2.315,6.824Zm-3.685,4.676c0-2.206-1.794-4-4-4s-4,1.794-4,4c-.011,.725,.205,1.419,.573,2.035,.359,.602,1.018,.965,1.719,.965h3.417c.701,0,1.36-.363,1.719-.965,.367-.615,.583-1.31,.573-2.035Zm1.394-12.125c-.771-.399-2.333-.875-5.394-.875-3.23,0-4.771,.551-5.402,.879-.471,.216-.644,.593-.507,1.136,.118,.46,.433,1.464,1.246,3.297,1.361-.828,2.954-1.312,4.663-1.312s3.305,.478,4.666,1.305c.812-1.834,1.123-2.838,1.238-3.298,.067-.507-.105-.883-.51-1.132Z"/>
</svg>
