<svg id="Layer_1" viewBox="0 0 24 24" xmlns="http://www.w3.org/2000/svg" data-name="Layer 1"><path d="m13 24c-1.654 0-3-1.346-3-3s1.346-3 3-3 3 1.346 3 3-1.346 3-3 3zm-5-3c0-1.13.391-2.162 1.026-3h-5.026c-2.206 0-4 1.794-4 4 0 0 0 2 2 2h7.026c-.635-.838-1.026-1.87-1.026-3zm15-21c-1.85 0-3.349 1.014-4.223 2.854l-.694 1.46-1.245-.593c-1.989-.948-4.379-.102-5.323 1.875l-1.812 3.679c-.969 1.967-.161 4.364 1.8 5.345l1.359.68-.356.75c.165-.016.324-.05.493-.05.566 0 1.101.115 1.608.288l5.976-12.576c.539-1.136 1.353-1.712 2.416-1.712.553 0 1-.448 1-1s-.447-1-1-1z"/></svg>