<svg id="Layer_1" viewBox="0 0 24 24" xmlns="http://www.w3.org/2000/svg" data-name="Layer 1"><path d="m4.305 5.352c-.443-.8-.795-1.567-.989-2.353-.197-.796.044-1.639.612-2.231.523-.544 1.27-.82 2.02-.731 2.131.252 4.496 1.748 5.843 2.666 1.612 1.099 3.331 1.786 5.052 2.025l.002.005c-2.494 2.447-5.769 1.686-5.843 1.669-1.407-.397-4.118-1.052-6.697-1.051zm18.695.143v-1.5c0-.552-.448-1-1-1-.552 0-1 .448-1 1v2.673c-.697.644-1.537 1.635-2.143 3.041-2.857 5.714-8.571 6.286-8.571 6.286-3.866.387-7.617 1.363-9.492 2.704-.497.355-.793.922-.793 1.533h-.001c0 .65.33 1.259.887 1.594 2.165 1.303 6.558 2.169 10.542 2.169 4.571 0 12.571-2.286 12.571-14.857 0-2.443-1-3.643-1-3.643zm-17.909 9.354c2.088-.51 4.044-.75 4.995-.845.177-.02 4.649-.58 6.958-5.144.789-1.805 1.889-3.047 2.784-3.833-.598.322-1.241.769-1.852 1.385-3.278 2.947-7.368 1.953-7.519 1.915-2.771-.783-6.445-1.38-8.856-.641-.664.204-1.175.738-1.43 1.385-.292.74-.213 1.585.247 2.235.957 1.354 2.898 2.531 4.673 3.544z"/></svg>