<svg id="Layer_1" viewBox="0 0 24 24" xmlns="http://www.w3.org/2000/svg" data-name="Layer 1"><path d="m10.058 18.038c-.552 0-1-.447-1-1v-2c0-.553.448-1 1-1 .355 0 .652.196.83.474 1.306-2.646 4.025-4.474 7.17-4.474.352 0 .696.031 1.037.075-.521-.714-1.218-1.292-2.037-1.651v-1.424c0-3.86-3.14-7-7-7s-7 3.14-7 7v1.424c-1.763.774-3 2.531-3 4.576v6c0 2.757 2.243 5 5 5h7.726c-1.667-1.467-2.726-3.61-2.726-6zm-5-11c0-2.757 2.243-5 5-5s5 2.243 5 5v1h-10zm12.942 4.962c-3.314 0-6 2.686-6 6s2.686 6 6 6 6-2.686 6-6-2.686-6-6-6zm2.707 7.293c.391.391.391 1.023 0 1.414s-1.023.391-1.414 0l-1.293-1.293-1.293 1.293c-.391.391-1.023.391-1.414 0s-.391-1.023 0-1.414l1.293-1.293-1.293-1.293c-.391-.391-.391-1.023 0-1.414s1.023-.391 1.414 0l1.293 1.293 1.293-1.293c.391-.391 1.023-.391 1.414 0s.391 1.023 0 1.414l-1.293 1.293z"/></svg>