<svg id="Layer_1" viewBox="0 0 24 24" xmlns="http://www.w3.org/2000/svg" data-name="Layer 1"><path d="m22.213 22.468c0 .564-.457 1.021-1.021 1.021h-13.277c-.564 0-1.021-.457-1.021-1.021s.457-1.021 1.021-1.021h13.277c.564 0 1.021.457 1.021 1.021zm-18.894-1.532c-.846 0-1.532.686-1.532 1.532s.686 1.532 1.532 1.532 1.532-.686 1.532-1.532-.686-1.532-1.532-1.532zm17.872-4.596h-13.276c-.564 0-1.021.457-1.021 1.021s.457 1.021 1.021 1.021h13.277c.564 0 1.021-.457 1.021-1.021s-.457-1.021-1.021-1.021zm-17.872-.51c-.846 0-1.532.686-1.532 1.532s.686 1.532 1.532 1.532 1.532-.686 1.532-1.532-.686-1.532-1.532-1.532zm14.809-7.66c2.252 0 4.085-1.833 4.085-4.085s-1.833-4.085-4.085-4.085-4.085 1.833-4.085 4.085 1.833 4.085 4.085 4.085zm-8.171 5.107c0 1.128.914 2.043 2.043 2.043s2.043-.914 2.043-2.043h1.073c1.235 0 2.386-.553 3.158-1.517.388-.485.652-1.04.785-1.625-.304.047-.613.078-.931.078-3.379 0-6.128-2.749-6.128-6.128 0-1.496.541-2.868 1.435-3.933-.457-.091-.93-.152-1.435-.152-3.319 0-5.662 2.007-6.428 5.506-.202.926-.424 1.919-.632 2.845-.27 1.203.016 2.445.787 3.408.771.964 1.922 1.517 3.158 1.517h1.073z"/></svg>