<svg id="Layer_1" viewBox="0 0 24 24" xmlns="http://www.w3.org/2000/svg" data-name="Layer 1"><path d="m12 22c-6.617 0-12-5.383-12-12 0-4.561 3.439-8 8-8 1.511 0 2.881.432 4 1.184 1.119-.752 2.489-1.184 4-1.184 4.561 0 8 3.439 8 8 0 6.617-5.383 12-12 12zm-4-18c-3.421 0-6 2.579-6 6 0 5.514 4.486 10 10 10s10-4.486 10-10c0-3.421-2.579-6-6-6-.92 0-1.761.212-2.479.595.934 1.187 1.479 2.707 1.479 4.405s-.545 3.219-1.479 4.405c.718.383 1.559.595 2.479.595h1c.553 0 1 .447 1 1s-.447 1-1 1h-1c-1.511 0-2.881-.432-4-1.184-1.119.752-2.489 1.184-4 1.184h-1c-.553 0-1-.447-1-1s.447-1 1-1h1c.92 0 1.761-.212 2.479-.595-.934-1.187-1.479-2.707-1.479-4.405s.545-3.219 1.479-4.405c-.718-.383-1.559-.595-2.479-.595zm4 1.888c-.635.837-1 1.905-1 3.112s.365 2.275 1 3.112c.635-.837 1-1.905 1-3.112s-.365-2.275-1-3.112z"/></svg>