<svg id="Layer_1" viewBox="0 0 24 24" xmlns="http://www.w3.org/2000/svg" data-name="Layer 1"><path d="m13.99 17.687c.035.145.009.312-.252.312-.031 0-7.172-.01-7.441-.01-.297 0-.317-.152-.288-.312.536-1.601 2.14-2.677 3.99-2.677s3.455 1.08 3.991 2.687zm6.01 1.171c0 4.946-4.585 5.089-6.311 5.143h-6.86c-2.217-.031-6.829-.095-6.829-5.143 0-5.527 4.393-9.857 10-9.857s10 4.33 10 9.857zm-4.112-1.803c-.809-2.425-3.175-4.055-5.888-4.055s-5.077 1.624-5.886 4.042c-.221.66-.117 1.371.286 1.952.415.597 1.098.969 1.833.994.173.005 6.786.01 7.48.01.749-.001 1.462-.38 1.886-.99.404-.58.51-1.292.289-1.953zm-1.888-17.055c-5.134 0-9.239 3.634-9.897 8.489 1.733-.948 3.738-1.489 5.897-1.489 5.127 0 9.4 3.028 11.148 7.409 1.507-.61 2.852-1.874 2.852-4.552 0-5.527-4.393-9.857-10-9.857z"/></svg>