<svg id="Layer_1" viewBox="0 0 24 24" xmlns="http://www.w3.org/2000/svg" data-name="Layer 1"><path d="m18 4.5c-.828 0-1.5.672-1.5 1.5s.672 1.5 1.5 1.5 1.5-.672 1.5-1.5-.672-1.5-1.5-1.5zm0 8.5c-.552 0-1-.448-1-1v-2c0-.552.448-1 1-1s1 .448 1 1v2c0 .552-.448 1-1 1zm-3.999-3c-.304 0-.604-.138-.8-.399-.786-1.045-1.201-2.291-1.201-3.601 0-3.309 2.691-6 6-6s6 2.691 6 6c0 1.311-.415 2.556-1.201 3.601-.331.441-.958.53-1.4.199-.442-.332-.531-.958-.199-1.4.523-.696.799-1.526.799-2.399 0-2.206-1.794-4-4-4s-4 1.794-4 4c0 .874.276 1.704.799 2.4.332.441.243 1.068-.199 1.4-.18.135-.391.201-.6.201zm-5.581-2.835 1.929 6.835h-4.077l1.929-6.835c.028-.114.19-.114.219 0zm15.58 4.114v7.724c0 2.761-2.239 4.996-5 4.996h-14c-2.761 0-5-2.239-5-5v-13.999c0-2.761 2.235-5 4.996-5h7.724c-1.634 1.439-2.676 3.53-2.714 5.869-.216-.306-.493-.55-.818-.686-.619-.26-1.271-.242-1.839.05-.557.285-.957.797-1.098 1.405l-3.091 11.108c-.175.63.299 1.254.953 1.254.443 0 .832-.294.952-.72l.643-2.28h5.206l.643 2.28c.121.426.509.72.952.72.655 0 1.128-.623.953-1.253l-1.983-7.122c.97 1.365 2.358 2.406 3.976 2.949.356.574.897 1.012 1.543 1.242v3.184c0 .552.448 1 1 1s1-.448 1-1v-3.184c.646-.23 1.187-.668 1.543-1.241 1.348-.453 2.537-1.251 3.457-2.296z"/></svg>