<svg id="Layer_1" viewBox="0 0 24 24" xmlns="http://www.w3.org/2000/svg" data-name="Layer 1"><path d="m23.306 15h-2.306v-2.155c1.728-.446 2.911-1.914 2.986-3.845h-4.986c-1.103 0-2-.897-2-2v-3h-7.876c-.08-.145-.124-.311-.124-.485v-.515c0-.553-.448-1-1-1s-1 .447-1 1v.515c0 1.333.857 2.487 2.135 2.873l2.865.857v1.11c0 .669.152 1.299.407 1.872l-9.501 5.956c-.57.456-1.138.903-1.706 1.36-.563.563-.994 1.267-1.136 2.05-.228 1.258.161 2.485 1.036 3.362.72.718 1.687 1.045 2.654 1.045s1.936-.327 2.655-1.046c.45-.564.895-1.122 1.345-1.686l5.903-9.377c.398.336.847.613 1.342.8v2.309h-1c-.552 0-1 .448-1 1s.448 1 1 1h7.732c.806 0 1.534-.321 2.07-.841.432-.419.106-1.159-.496-1.159zm-17.505 5.617-2.39-2.39 6.432-4.032-4.043 6.422zm13.199-5.617h-2v-2h2zm0-11h-2v-2h-3c-.552 0-1-.447-1-1s.448-1 1-1h8c.552 0 1 .447 1 1s-.448 1-1 1h-3zm0 3v-3c2.988.154 4.236 1.576 4.717 3z"/></svg>