<svg id="Layer_1" viewBox="0 0 24 24" xmlns="http://www.w3.org/2000/svg" data-name="Layer 1"><path d="m20.999 0h-5c-1.65.002-2.999 1.352-2.999 3.002l.002 7.772c0 .638.524 1.088 1.089 1.088.196 0 .397-.054.583-.173l2.454-1.69h3.872c1.657 0 3-1.343 3-3v-3.999c0-1.657-1.344-3-3.001-3zm.372 4.745-1.203.98.498 1.516c.068.205-.001.431-.172.563-.172.132-.407.141-.588.023l-1.401-.912-1.378.922c-.179.12-.415.114-.588-.016-.173-.129-.245-.354-.18-.56l.479-1.534-1.209-.984c-.163-.138-.222-.363-.148-.563.073-.2.264-.333.477-.333h1.527l.54-1.516c.074-.199.264-.331.477-.331s.403.132.477.331l.54 1.516h1.527c.214 0 .405.134.478.334.073.201.013.426-.15.564zm-11.493 9.801-9.134-9.135c.879-1.439 2.45-2.411 4.256-2.411h6s0 .002 0 .003l.002 7.771c0 1.703 1.386 3.088 3.089 3.088.282 0 .56-.041.835-.121l-.805.805c-.585.584-1.353.876-2.122.876-.768 0-1.537-.292-2.122-.876zm14.122-3.572v8.026c0 2.757-2.243 5-5 5h-14c-2.757 0-5-2.243-5-5v-11c0-.157.032-.305.046-.458l8.418 8.418c.975.975 2.255 1.462 3.536 1.462s2.561-.487 3.536-1.462l3.96-3.96h1.504c1.13 0 2.162-.391 3-1.026z"/></svg>