<svg id="Layer_1" viewBox="0 0 24 24" xmlns="http://www.w3.org/2000/svg" data-name="Layer 1"><path d="m23.993 20.915c0 .272-.091.679-.523 1.062l-2.354 1.757c-.331.303-.911.346-1.336.148-.462-.207-.761-.661-.761-1.155v-2.002l-.409.299c-.441.325-1.07.232-1.397-.216-.326-.446-.229-1.071.216-1.397l1.245-.911-1.245-.911c-.445-.326-.542-.951-.216-1.397.325-.446.949-.543 1.397-.216l.409.299v-2.002c0-.494.299-.948.761-1.155.446-.2.959-.142 1.332.146 0 0 2.306 1.556 2.34 1.586.365.325.55.698.549 1.108 0 .409-.187.779-.552 1.101-.03.027-2.091 1.432-2.091 1.432s2.013 1.262 2.054 1.298c.144.127.581.514.582 1.127zm-7.993-16.915v3.685c-.936-.45-1.961-.684-3-.685h-8c-1.039.001-2.064.235-3 .685v-3.685c0-2.209 1.791-4 4-4h6c2.209 0 4 1.791 4 4zm-8 0c0-.552-.448-1-1-1s-1 .448-1 1 .448 1 1 1 1-.448 1-1zm4 0c0-.552-.448-1-1-1s-1 .448-1 1 .448 1 1 1 1-.448 1-1zm3.56 14.5c-.713-1.022-.737-2.428.038-3.488.364-.5.863-.868 1.438-1.065.061-.601.293-1.163.65-1.635-.696-1.925-2.521-3.309-4.685-3.312h-8.001c-2.76.003-4.997 2.24-5 5v1c0 4.971 4.029 9 9 9 2.447 0 4.663-.98 6.286-2.565-.429-.963-.321-2.082.274-2.935z"/></svg>