<svg id="Layer_1" viewBox="0 0 24 24" xmlns="http://www.w3.org/2000/svg" data-name="Layer 1"><path d="m8.734 7.322c-.586-.586-.586-1.535 0-2.121l.7-.7 3.504 3.504-.7.7c-.586.586-1.536.586-2.122 0l-1.383-1.383zm-3.052-3.248c.318.455.946.559 1.393.245.452-.317.562-.941.244-1.393l-1.755-2.5c-.316-.452-.939-.562-1.393-.245-.452.317-.562.941-.244 1.393l1.754 2.5zm1.639 4.66c-.586-.586-1.535-.586-2.121 0l-.701.7 3.504 3.504.7-.7c.586-.586.586-1.536 0-2.122l-1.383-1.383zm7.991-3.104c.843-.842 2.213-.842 3.056 0 .842.843.842 2.213 0 3.056l-.959.961 3.504 3.504 1.003-1.004c1.345-1.344 2.085-3.131 2.085-5.033s-.74-3.688-2.085-5.033c-2.774-2.775-7.29-2.775-10.064 0l-1.003 1.004 3.505 3.504.959-.961zm-.018 6.132c-.585.586-.585 1.535 0 2.121l1.383 1.383c.586.586 1.536.586 2.122 0l.7-.7-3.504-3.504-.7.701zm-6.609 6.605c-.843.842-2.213.842-3.056 0-.842-.843-.842-2.213 0-3.056l.961-.959-3.505-3.504-1.004 1.003c-2.775 2.774-2.775 7.29 0 10.064 1.344 1.345 3.132 2.085 5.033 2.085s3.688-.74 5.033-2.085l1.004-1.003-3.504-3.504-.961.959zm12.389-1.686c-.453-.318-1.076-.208-1.393.245-.317.452-.208 1.076.244 1.393l2.5 1.754c.447.315 1.074.21 1.393-.245.317-.452.208-1.076-.244-1.393zm-2.756 3.245c-.316-.451-.94-.562-1.393-.245-.452.317-.562.941-.244 1.393l1.754 2.5c.318.455.946.559 1.393.245.452-.317.562-.941.244-1.393zm-4.436-4.631c-.586-.586-1.535-.586-2.121 0l-.701.7 3.504 3.504.7-.7c.586-.586.586-1.536 0-2.122l-1.383-1.383zm-10.956-7.976c.447.315 1.074.21 1.393-.245.317-.452.208-1.076-.244-1.393l-2.5-1.754c-.452-.317-1.076-.207-1.393.245s-.208 1.076.244 1.393z"/></svg>