<svg id="Layer_1" viewBox="0 0 24 24" xmlns="http://www.w3.org/2000/svg" data-name="Layer 1"><path d="m5 18h17v1c0 2.761-2.239 5-5 5h-12c-1.657 0-3-1.343-3-3s1.343-3 3-3zm9.121-12.621c.566.566.879 1.319.879 2.121s-.312 1.555-.871 2.113l-1.762 1.724c-.203.199-.532.197-.734 0l-1.754-1.716c-.566-.566-.878-1.319-.878-2.121s.312-1.555.878-2.121c.567-.566 1.32-.879 2.122-.879s1.555.312 2.121.879zm-.621 2.121c0-.828-.672-1.5-1.5-1.5s-1.5.672-1.5 1.5.672 1.5 1.5 1.5 1.5-.672 1.5-1.5zm8.5-2.5v11h-17c-1.073.039-2.141.37-3 1.025v-12.052c0-2.744 2.224-4.973 4.967-4.973h10.033c2.761 0 5 2.239 5 5zm-5 2.5c0-1.336-.521-2.591-1.465-3.535s-2.2-1.465-3.535-1.465-2.591.521-3.536 1.465-1.464 2.199-1.464 3.535.52 2.591 1.472 3.543l1.762 1.724c.487.477 1.126.715 1.766.715s1.279-.238 1.766-.715l1.77-1.731c.944-.943 1.465-2.199 1.465-3.535z"/></svg>