<?xml version="1.0" encoding="UTF-8"?>
<svg xmlns="http://www.w3.org/2000/svg" id="Layer_1" data-name="Layer 1" viewBox="0 0 24 24">
  <path d="M6,14c2.206,0,4-1.794,4-4s-1.794-4-4-4-4,1.794-4,4,1.794,4,4,4Zm-1.321,2.142C1.892,16.74,0,19.358,0,22.209h0c0,.989,.802,1.791,1.791,1.791H10.209c1.077,.006,1.885-.942,1.791-2,0-3.74-3.439-6.691-7.321-5.858ZM20.999,0h-6c-1.65,.002-2.999,1.352-2.999,3.002l.002,8.772c0,.638,.524,1.088,1.089,1.088,.196,0,.397-.054,.583-.173l2.454-1.69h4.872c1.657,0,3-1.343,3-3V3C24,1.343,22.656,0,20.999,0Zm-2.999,10c-.552,0-1-.448-1-1s.448-1,1-1,1,.448,1,1-.448,1-1,1Zm1.502-3.402c-.507,.27-1.124,.373-1.503,.402-.491,0-.919-.362-.989-.862-.076-.547,.305-1.052,.852-1.128,.244-.034,.561-.108,.653-.151,.293-.171,.485-.503,.485-.859,0-.551-.449-1-1-1s-1,.449-1,1-.448,1-1,1-1-.448-1-1c0-1.654,1.346-3,3-3s3,1.346,3,3c0,1.067-.574,2.062-1.498,2.598Z"/>
</svg>
