<svg id="Layer_1" viewBox="0 0 24 24" xmlns="http://www.w3.org/2000/svg" data-name="Layer 1"><path d="m20 19.877c-.22 0-.441-.072-.625-.22-1.086-.871-2.662-.871-3.748 0-.431.344-1.061.276-1.406-.154-.346-.431-.277-1.061.154-1.406 1.812-1.453 4.44-1.453 6.252 0 .431.346.5.976.154 1.406-.197.246-.488.374-.78.374zm3.726-2.999c.38-.4.363-1.033-.038-1.413-3.47-3.289-8.906-3.289-12.376 0-.401.38-.417 1.013-.038 1.413.38.402 1.013.419 1.414.038 2.698-2.557 6.926-2.557 9.624 0 .193.184.441.274.688.274.265 0 .529-.104.726-.312zm-7.726 5.622c0 .828.672 1.5 1.5 1.5s1.5-.672 1.5-1.5-.672-1.5-1.5-1.5-1.5.672-1.5 1.5zm5.5-13.5c-1.193 0-2.189-.841-2.438-1.96-1.402.052-3.024.173-4.562.46-2.41.449-5.352.496-7.5.5-.552 0-1 .448-1 1-.008.607.416 1.055 1 1 2.186-.007 4.768-.08 7-.409v1.989c-1.473.494-2.866 1.297-4.063 2.432-.582.552-.914 1.297-.936 2.098-.021.802.271 1.562.82 2.142.552.584 2.838 2.502 2.838 2.502.289.22.54.545.862.727-.734 1.487-2.251 2.519-4.022 2.519h-4.999c-2.485 0-4.5-2.015-4.5-4.5v-15c0-2.485 2.015-4.5 4.5-4.5h5c2.485 0 4.5 2.015 4.5 4.5v.561c2.594-.473 5.444-1.033 7.295-1.059 1.221-.023 2.374.733 2.641 1.925.364 1.627-.87 3.073-2.436 3.073zm-16 6.5c0 .516.261.971.658 1.241l-.627 1.296c-.14.482.221.963.723.963h1.494c.502 0 .863-.481.723-.963l-.627-1.296c.397-.27.658-.725.658-1.241 0-.828-.672-1.5-1.5-1.5s-1.5.672-1.5 1.5z"/></svg>