<svg id="Layer_1" viewBox="0 0 24 24" xmlns="http://www.w3.org/2000/svg" data-name="Layer 1"><path d="m14 10.107c0-.996-.681-1.92-1.664-2.08-1.253-.204-2.336.758-2.336 1.973v10.4c-1.076-.886-2.111-1.752-2.145-1.784-.922-.861-2.373-.813-3.235.109-.863.923-.819 2.372.098 3.23l1.436 1.283c.55.491 1.261.763 1.999.763h14.797c1.051 0 1.051-1.103 1.051-1.103 0-2.055-1.087-3.391-2.999-4.144l-7.001-2.754v-5.893zm-1-8.107v3c0 .552-.448 1-1 1s-1-.448-1-1v-1.586l-7.586 7.586h1.586c.552 0 1 .448 1 1s-.448 1-1 1h-3c-1.103 0-2-.897-2-2v-3c0-.552.448-1 1-1s1 .448 1 1v1.586l7.586-7.586h-1.586c-.552 0-1-.448-1-1s.448-1 1-1h3c1.103 0 2 .897 2 2z"/></svg>