<svg id="Layer_1" viewBox="0 0 24 24" xmlns="http://www.w3.org/2000/svg" data-name="Layer 1"><path d="m20 24h-16c-.637.017-1.146-.646-.966-1.257 1.055-3.971 4.742-6.743 8.966-6.743s7.911 2.772 8.966 6.743c.18.611-.33 1.273-.966 1.257zm-3.027-12.097c.079-.822-.041-1.703-.25-2.427.786-.344 1.523-.829 2.18-1.36-.236 1.468-.932 2.776-1.93 3.787zm-4.973-11.903c-3.343 0-6.13 2.347-6.825 5.481 1.51 1.53 3.042 2.519 4.325 2.519h5c1.254 0 2.815-.983 4.327-2.513-.693-3.137-3.482-5.487-6.827-5.487zm-3 12.002c-.105 1.035.627 2.007 1.702 1.998h2.292c1.399-.005 2.096-.903 2.006-1.998 0-.869-.097-1.534-.203-2.002h-5.596c-.104.464-.201 1.13-.201 2.002zm-2-.5c0-.724.094-1.404.274-2.026-.785-.344-1.522-.828-2.177-1.359.236 1.468.932 2.776 1.93 3.787-.007-.135-.027-.263-.027-.402z"/></svg>