<svg id="Layer_1" viewBox="0 0 24 24" xmlns="http://www.w3.org/2000/svg" data-name="Layer 1"><path d="m11.615 7.788c-.102.133-.26.211-.428.212-.37.001-.632-.361-.515-.712l.762-2.285h-1.865c-.415.002-.715-.397-.597-.795l1.332-3.59c.144-.371.5-.616.897-.616h1.754c.402 0 .672.412.513.78l-.959 2.22h1.88c.484-.003.777.535.511.94zm-.615 6.212v-4.595c-1.889-.347-3.436-1.658-4.119-3.405h-4.881v3c-1.105 0-2 .895-2 2v1c0 1.105.895 2 2 2zm6.5-10h4.213c-.532-1.502-1.767-2.713-3.363-3.17-.719-.206-1.477-.361-2.254-.491.87.973 1.404 2.253 1.404 3.661zm-9.596-3.661c-.776.13-1.535.285-2.254.491-1.596.457-2.831 1.669-3.363 3.17h4.213c0-1.408.534-2.688 1.404-3.661zm14.096 8.661v-3h-4.881c-.683 1.747-2.231 3.057-4.119 3.405v4.595h9c1.105 0 2-.895 2-2v-1c0-1.105-.895-2-2-2zm-4 8c0 .552-.448 1-1 1s-1-.448-1-1v-1h-8v1c0 .552-.448 1-1 1s-1-.448-1-1v-1h-4v1c0 1.627.793 3.061 2 3.975v.525c0 1.378 1.122 2.5 2.5 2.5 1.207 0 2.217-.86 2.449-2h6.101c.232 1.14 1.242 2 2.449 2 1.378 0 2.5-1.122 2.5-2.5v-.525c1.207-.914 2-2.348 2-3.975v-1h-4v1z"/></svg>