<svg id="Layer_1" viewBox="0 0 24 24" xmlns="http://www.w3.org/2000/svg" data-name="Layer 1"><path d="m8.535 1.465c-.944-.944-2.2-1.465-3.535-1.465s-2.592.521-3.535 1.465c-.944.943-1.465 2.199-1.465 3.535s.521 2.592 1.473 3.543l1.762 1.724c.486.477 1.126.715 1.766.715s1.279-.238 1.766-.715l1.77-1.731c.944-.943 1.465-2.199 1.465-3.535s-.521-2.591-1.465-3.535zm-3.535 5.035c-.828 0-1.5-.672-1.5-1.5s.672-1.5 1.5-1.5 1.5.672 1.5 1.5-.672 1.5-1.5 1.5zm3.942 14.5c.034.162.058.328.058.5 0 1.381-1.119 2.5-2.5 2.5s-2.5-1.119-2.5-2.5c0-.172.024-.338.058-.5h4.885zm-4.942-2c-2.209 0-4-1.791-4-4v-5.109c.026.027 1.835 1.804 1.835 1.804.846.829 1.971 1.286 3.165 1.286s2.319-.457 3.164-1.285l1.784-1.746c1.323-1.321 2.052-3.079 2.052-4.95 0-.968-.199-1.904-.571-2.768 2.06.618 3.571 2.506 3.571 4.768v12zm15.942 2c.034.162.058.328.058.5 0 1.381-1.119 2.5-2.5 2.5s-2.5-1.119-2.5-2.5c0-.172.024-.338.058-.5h4.885zm4.058-10v1h-7v-6h2c2.761 0 5 2.239 5 5zm-7 3h7v1c0 2.209-1.791 4-4 4h-3z"/></svg>