<svg id="Layer_1" viewBox="0 0 24 24" xmlns="http://www.w3.org/2000/svg" data-name="Layer 1"><path d="m9.075 16.915c1.234 1.234 1.234 3.234 0 4.468-.653.653-2.902 2.037-3.998 2.544-.61.282-1.272-.302-1.052-.937.211-.606.628-1.261.961-1.975-.722.337-1.396.74-1.976.942-.635.221-1.22-.441-.938-1.052.507-1.096 1.88-3.337 2.534-3.99 1.234-1.234 3.234-1.234 4.468 0zm13.706-12.072c.682-1.022 1.219-2.173 1.219-3.343 0-.538-.154-1.5-1.538-1.5h-2.485c-2.354 0-3.709.896-4.42 1.616.405.654 3.636 2.769 7.225 3.227zm-1.132 1.696c-3.654-.808-5.832-2.084-7.327-3.069-.829-.546-1.855-.62-2.745-.202-.868.407-1.448 1.218-1.561 2.225-.1.903.252 1.79.941 2.374 1.201 1.017 5.962 3.21 9.186 3.985.311.075.617.148.929.148 1.558.033 2.927-1 2.927-2.894 0-1.308-1.047-2.281-2.35-2.568zm1.043 7.192c-.634.286-.977.269-1.69.269-.519 0-1.037-.078-1.53-.24-2.745-.901-8.228-3.031-9.807-4.366-.721-.61-1.225-1.412-1.477-2.294-.182.043-.365.084-.54.163-.96.429-1.609 1.308-1.742 2.409-.033.365.004.711.045 1.13-.437-.515-.839-.965-1.332-1.297-.524-.353-1.121-.511-1.709-.499-.205-.584-.756-1.005-1.41-1.005-.828 0-1.5.672-1.5 1.5 0 .39.153.742.397 1.009-.755 1.333-.38 3.044.911 3.913.58.391 1.62.578 2.692.578 1.621 0 2.805-.271 3.891-.705.681.662 1.595 1.334 2.821 1.965.735 1.097 1.288 2.344 1.288 3.614v3.125c0 .552.448 1 1 1s1-.448 1-1v-3.125c0-.786-.148-1.668-.465-2.448.573.19 1.183.371 1.845.541.394.81.62 1.7.62 2.61v2.422c0 .552.448 1 1 1s1-.448 1-1v-2.422c0-.714-.11-1.419-.298-2.101.571.118 1.209.178 1.813.314.305.656.484 1.369.484 2.102v2.107c0 .552.448 1 1 1s1-.448 1-1v-2.107c0-.672-.121-1.328-.307-1.964.52-.11 1.003-.352 1.392-.718.556-.524.89-1.263.914-2.028.027-.88-.46-1.837-1.306-2.452z"/></svg>