<svg id="Layer_1" viewBox="0 0 24 24" xmlns="http://www.w3.org/2000/svg" data-name="Layer 1"><path d="m20.78 19.503c-.348.433-.977.498-1.406.154-1.086-.871-2.662-.871-3.748 0-.432.346-1.06.276-1.406-.154-.346-.431-.276-1.061.154-1.406 1.812-1.453 4.439-1.453 6.252 0 .431.346.5.976.154 1.406zm1.532-2.587c.4.38 1.033.364 1.413-.038.38-.4.363-1.033-.038-1.413-3.469-3.289-8.906-3.289-12.375 0-.401.38-.418 1.013-.038 1.413.38.403 1.014.418 1.413.038 2.699-2.557 6.926-2.557 9.625 0zm-4.812 4.084c-.828 0-1.5.672-1.5 1.5s.672 1.5 1.5 1.5 1.5-.672 1.5-1.5-.672-1.5-1.5-1.5zm-13.244-5h-4.256v4.5c0 1.933 1.567 3.5 3.5 3.5h2.955c.965 0 1.676-.873 1.525-1.826-.42-2.639-2.555-4.731-3.723-6.174zm18.083 4.755c-.377.468-.88.789-1.435.965.058.252.095.511.095.78 0 .532-.129 1.032-.342 1.484 1.858-.084 3.342-1.605 3.342-3.484v-1.52c-.327.109-.669.169-1.015.168-.051.569-.262 1.13-.645 1.607zm1.66-15.755v8.137c-2.41-1.773-5.37-2.438-8.198-1.998-1.948-1.944-3.59-4.835-3.802-9.139-.362 7.35-4.89 10.602-8 12h-3.999v-9c0-2.761 2.239-5 5-5h14c2.761 0 5 2.239 5 5zm-15.071-1.848c.083-.606-.389-1.152-1-1.152-.492 0-.926.355-.991.842-.353 2.618-1.436 4.301-2.6 5.367-.21.192-.337.454-.337.738 0 .853 1.009 1.31 1.645.741 1.476-1.319 2.85-3.369 3.284-6.537zm11.071 5.795c0-.284-.127-.545-.336-.737-1.161-1.066-2.228-2.749-2.578-5.366-.065-.488-.499-.844-.992-.844-.611 0-1.083.546-1 1.152.431 3.166 1.793 5.216 3.262 6.535.635.57 1.645.113 1.645-.739z"/></svg>