<svg id="Layer_1" viewBox="0 0 24 24" xmlns="http://www.w3.org/2000/svg" data-name="Layer 1"><path d="m11 4v-3c0-.552.448-1 1-1s1 .448 1 1v3c0 .551-.448 1-1 1s-1-.449-1-1zm2.602 7.577 6.398-3.445v-2.547c.002-2.377-1.408-4.534-3.582-5.493-.663-.305-1.418.179-1.418.909v2.999c0 1.301-.838 2.401-1.999 2.815l.006 4.995c.203-.066.406-.132.594-.234zm-2.594.289-.007-5.05c-1.162-.414-2.001-1.514-2.001-2.816v-2.998c0-.729-.755-1.213-1.418-.909-2.174.958-3.584 3.115-3.582 5.492v2.903l6.352 3.145c.211.104.432.173.656.233zm8.992-1.463-5.451 2.936c-.772.415-1.549.661-2.52.661-.885 0-1.772-.182-2.564-.574l-5.531-2.739c-.6.718-.934 1.61-.934 2.556v1.758c0 4.963 4.037 9 9 9s9-4.037 9-9v-1.951c0-.984-.354-1.914-1-2.646z"/></svg>