<svg id="Layer_1" viewBox="0 0 24 24" xmlns="http://www.w3.org/2000/svg" data-name="Layer 1"><path d="m15 16v-11c0-2.757-2.243-5-5-5h-5c-2.757 0-5 2.243-5 5v11zm-10.778-8.934c.152-1.08 1.108-1.866 2.199-1.866h.28v-.4c0-.442.358-.8.8-.8s.8.358.8.8v.4h.2c.711 0 1.348.324 1.77.833.418.504.063 1.266-.592 1.266h-.076c-.227 0-.434-.107-.588-.274-.128-.139-.312-.226-.515-.226h-2.102c-.278 0-.532.186-.587.458-.064.318.146.617.449.678l2.792.559c1.112.222 1.889 1.282 1.725 2.439-.153 1.08-1.108 1.865-2.199 1.865h-.28v.4c0 .442-.358.8-.8.8s-.8-.358-.8-.8v-.4h-.2c-.711 0-1.348-.325-1.77-.833-.418-.504-.063-1.266.592-1.266h.076c.227 0 .434.107.588.274.128.139.312.226.515.226h2.103c.278 0 .532-.187.586-.46.063-.318-.146-.615-.451-.677l-2.791-.559c-1.112-.223-1.888-1.281-1.725-2.439zm-4.222 10.934v1c0 2.757 2.243 5 5 5h5c2.757 0 5-2.243 5-5v-1zm8 4h-1c-.552 0-1-.447-1-1s.448-1 1-1h1c.552 0 1 .447 1 1s-.448 1-1 1zm9-12v-8c1.611 0 3.071.949 3.726 2.421l2.48 5.579zm0 2v6h3c2.209 0 4-1.791 4-4v-1.151c0-.288-.04-.569-.089-.849zm6 7.188v.812c0 1.654-1.346 3-3 3s-3-1.346-3-3h3c1.093 0 2.116-.299 3-.812z"/></svg>