<svg id="Layer_1" viewBox="0 0 24 24" xmlns="http://www.w3.org/2000/svg" data-name="Layer 1"><path d="m23 3h-8v-.5c0-1.378-1.122-2.5-2.5-2.5h-1c-1.378 0-2.5 1.122-2.5 2.5v.5h-8c-.552 0-1 .448-1 1s.448 1 1 1h8.032c.074.676.359 1.305.847 1.793l1.121 1.121v1.086c0 .552.448 1 1 1s1-.448 1-1v-1.086l1.121-1.121c.488-.488.773-1.117.847-1.793h8.032c.552 0 1-.448 1-1s-.448-1-1-1zm-1.995 13.467-.983 1.146-.506-.17c-.352-.128-.743.039-.894.382l-1.365 1.78c-1.167-.024-3.677-1.395-6.38-2.193.074.353.124.714.124 1.089 0 .877-.211 1.749-.612 2.523-.254.484-.872.677-1.348.428-.491-.253-.683-.856-.429-1.348.258-.497.388-1.037.388-1.604 0-1.192-.749-2.185-1-2.442v-4.058c0-1.654-1.346-3-3-3h-1c-1.654 0-3 1.346-3 3v1.5c0 3.245.835 5.554 1.333 6.641.334.731.884 1.304 1.588 1.653 1.623.804 5.207 2.206 8.59 2.206 2.989 0 5.607-.462 8.267-2.112 0 0 1.431-.758 1.96-2.161.545-1.444.167-2.678-.484-3.314-.35-.342-.92-.307-1.25.054zm-15.505 3.533c-.827 0-1.5-.673-1.5-1.5s.673-1.5 1.5-1.5 1.5.673 1.5 1.5-.673 1.5-1.5 1.5z"/></svg>