<svg id="Layer_1" viewBox="0 0 24 24" xmlns="http://www.w3.org/2000/svg" data-name="Layer 1"><path d="m18 7.5c-.828 0-1.5-.672-1.5-1.5s.672-1.5 1.5-1.5 1.5.672 1.5 1.5-.672 1.5-1.5 1.5zm-1 2.5v2c0 .552.447 1 1 1s1-.448 1-1v-2c0-.552-.447-1-1-1s-1 .448-1 1zm-2.999 0c.209 0 .42-.065.6-.201.441-.332.53-.958.199-1.4-.523-.696-.8-1.526-.8-2.4 0-2.206 1.794-4 4-4s4 1.794 4 4c0 .874-.276 1.704-.8 2.399-.331.441-.242 1.068.199 1.4.44.332 1.067.243 1.4-.199.785-1.045 1.2-2.29 1.2-3.601 0-3.309-2.691-6-6-6s-6 2.691-6 6c0 1.311.415 2.556 1.2 3.601.196.262.497.399.801.399zm7.992 2c-.341 0-.675-.062-.993-.174v.174c0 1.654-1.346 3-3 3s-3-1.346-3-3v-.199c-.645.214-1.356.215-2-.004v10.131c-.664.097-1.336.097-2 0v-12.075c-.65-1.175-1-2.485-1-3.853 0-.648.086-1.275.232-1.879-.581-.808-1.444-1.399-2.458-1.583l-1.88-.457c-1.464-.263-2.956.128-4.099 1.081-1.142.953-1.796 2.352-1.796 3.838v10.792c0 2.417 1.727 4.486 4.105 4.919l6.285 1.143c.534.097 1.071.146 1.609.146s1.075-.048 1.609-.146l6.285-1.143c2.379-.433 4.105-2.502 4.105-4.919v-6.556c-.439.394-.984.65-1.579.734-.143.021-.286.03-.428.03z"/></svg>