<svg id="Layer_1" viewBox="0 0 24 24" xmlns="http://www.w3.org/2000/svg" data-name="Layer 1"><path d="m23.33 7.634-.549-.317c.129-.419.219-.856.219-1.317s-.09-.897-.219-1.317l.549-.317c.479-.276.643-.888.366-1.366-.277-.479-.89-.642-1.366-.366l-.544.314c-.604-.65-1.392-1.122-2.286-1.327v-.621c0-.552-.447-1-1-1s-1 .448-1 1v.621c-.894.204-1.682.677-2.286 1.327l-.544-.314c-.478-.276-1.09-.113-1.366.366s-.112 1.09.366 1.366l.549.317c-.129.419-.219.856-.219 1.317s.09.897.219 1.317l-.549.317c-.479.276-.643.888-.366 1.366.186.321.521.5.867.5.17 0 .342-.043.499-.134l.544-.314c.604.65 1.392 1.122 2.286 1.327v.621c0 .552.447 1 1 1s1-.448 1-1v-.621c.894-.204 1.682-.677 2.286-1.327l.544.314c.157.091.329.134.499.134.346 0 .682-.179.867-.5.276-.479.112-1.09-.366-1.366zm-4.83-.134c-.827 0-1.5-.673-1.5-1.5s.673-1.5 1.5-1.5 1.5.673 1.5 1.5-.673 1.5-1.5 1.5zm-18.5-6.5c0-.552.447-1 1-1h9c.553 0 1 .448 1 1s-.447 1-1 1v6h-9v-6c-.553 0-1-.448-1-1zm10 9v9.5c0 2.481-2.019 4.5-4.5 4.5s-4.5-2.019-4.5-4.5v-9.5zm6.764 8.057.53 1.404h-1.065zm7.236-1.057v4c0 1.657-1.343 3-3 3h-6c-1.657 0-3-1.343-3-3v-4c0-1.657 1.343-3 3-3h6c1.657 0 3 1.343 3 3zm-4.762 4.18-1.772-4.695c-.11-.291-.389-.484-.7-.484s-.589.192-.699.482l-1.787 4.691c-.152.398.142.825.568.825h-.001c.253 0 .48-.158.569-.394l.351-.931h1.983l.352.934c.089.236.315.393.568.393.424 0 .717-.424.568-.821zm2.261-4.562c0-.341-.277-.618-.618-.618s-.618.277-.618.618v4.764c0 .341.277.618.618.618s.618-.277.618-.618z"/></svg>