<svg id="Layer_1" viewBox="0 0 24 24" xmlns="http://www.w3.org/2000/svg" data-name="Layer 1"><path d="m24 8v-5c0-1.657-1.343-3-3-3h-5c-1.657 0-3 1.343-3 3v3.853l-1.818 2.459c-.222.335-.243.762-.053 1.115s.556.573.957.573h8.914c1.657 0 3-1.343 3-3zm-3.378 1.5h-.002c-.326 0-.609-.225-.682-.543l-.265-1.157h-2.409l-.274 1.161c-.075.316-.356.539-.681.539-.451 0-.784-.421-.681-.86l1.413-5.993c.201-.866 1.137-1.406 2.056-1.021.439.184.734.606.842 1.07l1.363 5.948c.1.438-.232.856-.682.856zm-2.102-6.537.811 3.437h-1.757l.787-3.437c.009-.037.041-.063.079-.063s.071.026.079.063zm5.48 18.037v-5c0-1.657-1.343-3-3-3h-8.914c-.401 0-.768.22-.957.573s-.169.78.053 1.115l1.818 2.459v3.853c0 1.657 1.343 3 3 3h5c1.657 0 3-1.343 3-3zm-2-4.863c0 .34-.276.616-.616.616h-.316c-.121 1.275-.617 2.731-1.607 3.866.542.329 1.192.564 1.984.639.315.03.555.296.555.613v.021c0 .366-.316.648-.68.613-1.137-.109-2.059-.489-2.808-1.022-.753.538-1.686.915-2.832 1.022-.364.034-.679-.248-.679-.614v-.021c0-.321.248-.584.568-.614.788-.075 1.438-.307 1.977-.635-.329-.377-.605-.79-.83-1.22-.215-.411.09-.903.553-.903.228 0 .44.123.545.325.185.352.415.69.692 1 .818-.92 1.192-2.108 1.303-3.071h-4.191c-.34 0-.616-.276-.616-.616v-.021c0-.34.276-.616.616-.616h2.257v-.384c0-.34.276-.616.616-.616h.021c.34 0 .616.276.616.616v.384h2.257c.34 0 .616.276.616.616v.021zm-12.339-.137h-9.661v-12c0-2.209 1.791-4 4-4h7.556c-.345.591-.556 1.268-.556 2v4.204c-.254.346-.613.824-.842 1.129-.507.674-.679.904-.771 1.085-.506.914-.519 2.024-.02 2.953.124.232.277.44.45.628-.172.188-.325.396-.449.627-.501.932-.487 2.046.023 2.962.05.097.131.218.271.411zm1.339 5v-3h-11v2c0 2.209 1.791 4 4 4h8.026c-.635-.838-1.026-1.87-1.026-3zm-3 1h-2c-.552 0-1-.448-1-1s.448-1 1-1h2c.552 0 1 .448 1 1s-.448 1-1 1z"/></svg>