<svg id="Layer_1" viewBox="0 0 24 24" xmlns="http://www.w3.org/2000/svg" data-name="Layer 1"><path d="m4.09 17.43c.48.51 1.92 2.17 1.92 3.56 0 .8-.31 1.55-.88 2.12t0 0c-.57.57-1.32.88-2.12.88s-1.56-.31-2.12-.88c-.58-.56-.89-1.31-.89-2.11 0-1.49 1.44-3.04 1.88-3.53.64-.62 1.61-.62 2.21-.04zm11.49 0c.48.51 1.92 2.17 1.92 3.56 0 .8-.31 1.55-.88 2.12t0 0c-.57.57-1.32.88-2.12.88s-1.56-.31-2.12-.88c-.57-.57-.88-1.32-.88-2.12 0-1.36 1.44-3.04 1.88-3.52.64-.62 1.61-.62 2.21-.04zm-7.05 5.57h-.02c-.47-.01-.86-.35-.96-.8l-2.54-14.7-1.02 6.7c-.1.48-.54.83-1.01.8-.49-.02-.89-.38-.96-.87l-1.97-10.66c-.16-.82.08-1.71.64-2.4s1.41-1.07 2.29-1.07h18.04c.88 0 1.71.39 2.28 1.06s.8 1.56.65 2.43l-2.5 18.17c-.08.47-.48.83-.96.84-.51 0-.9-.32-1-.78l-2.49-14.22-1.55 6.87c-.11.82-.51 1.12-.96 1.13-.47-.02-.85-.29-.97-.72l-1.52-7.28-2.51 14.74c-.11.45-.51.76-.97.76z"/></svg>