<svg id="Layer_1" enable-background="new 0 0 24 24" viewBox="0 0 24 24" xmlns="http://www.w3.org/2000/svg"><path d="m13.3 19.5c-.8.8-1.3 1.9-1.3 3.1v1c0 .3.2.5.5.5h1c1.1 0 2.3-.5 3.1-1.3l6.7-6.7c.9-.9 1-2.2.3-3.2-.9-1.1-2.5-1.1-3.4-.2zm2.7-5.6v-8.4c0-3.3-2.2-5.5-5-5.5h-6c-2.7 0-5 2.2-5 5v11h13.9zm-9-5.9c0 .6-.4 1.5-1 2.2-.6-.7-1-1.6-1-2.2s.4-1 1-1 1 .4 1 1zm2 6c-1.1 0-2.1-.4-3-1.1-.5.4-1.1.7-1.7.9s-1.3-.3-1.3-.9c0-.5.3-.8.8-1 .3-.1.5-.2.7-.3-.9-1.2-1.5-2.5-1.5-3.6 0-1.6 1.3-3 3-3s3 1.3 3 3c0 1.1-.6 2.4-1.5 3.5.5.3 1 .5 1.5.5.1 0 .6 0 1.2-.3-.1-.3-.2-.7-.2-1.1 0-.7.4-1.4 1.1-1.6 1-.2 1.9.5 1.9 1.5 0 1.5-1 2.9-2.5 3.3-.4.1-.9.2-1.5.2zm1 9.5v-1c0-1.7.7-3.3 1.9-4.5h-11.9v1c0 2.8 2.2 5 5 5h5.1c-.1-.2-.1-.3-.1-.5z"/></svg>