<svg id="Layer_1" viewBox="0 0 24 24" xmlns="http://www.w3.org/2000/svg" data-name="Layer 1"><path d="m12 10c0 1.103-.897 2-2 2s-2-.897-2-2 .897-2 2-2 2 .897 2 2zm8 12c-.552 0-1 .448-1 1 0 .552.448 1 1 1 .552 0 1-.448 1-1 0-.552-.448-1-1-1zm3-3c-.552 0-1 .448-1 1 0 .552.448 1 1 1 .552 0 1-.448 1-1 0-.552-.448-1-1-1zm-3 0c-.552 0-1 .448-1 1 0 .552.448 1 1 1 .552 0 1-.448 1-1 0-.552-.448-1-1-1zm-2-3v-1c0-1.103-.897-2-2-2h-1c-1.103 0-2 .897-2 2v1c0 1.103.897 2 2 2h1c1.103 0 2-.897 2-2zm-2-1v1s-1 0-1 0v-1zm2 7v-1c0-1.103-.897-2-2-2h-1c-1.103 0-2 .897-2 2v1c0 1.103.897 2 2 2h1c1.103 0 2-.897 2-2zm-2-1v1s-1 0-1 0v-1zm8-5v-1c0-1.103-.897-2-2-2h-1c-1.103 0-2 .897-2 2v1c0 1.103.897 2 2 2h1c1.103 0 2-.897 2-2zm-2-1v1s-1 0-1 0v-1zm-11 6c0-.951.347-1.813.903-2.5-.556-.687-.903-1.549-.903-2.5v-1c0-.423.084-.823.206-1.206-.383.122-.783.206-1.206.206-2.206 0-4-1.794-4-4s1.794-4 4-4 4 1.794 4 4c0 .423-.084.823-.206 1.206.383-.122.783-.206 1.206-.206h1c.951 0 1.813.347 2.5.903.415-.336.893-.587 1.42-.736.342-2.934-.602-5.991-2.849-8.238-1.888-1.889-4.399-2.929-7.071-2.929s-5.183 1.04-7.071 2.929c-3.899 3.899-3.899 10.243.014 14.156l3.784 3.637c.881.847 2.04 1.321 3.262 1.335h.022c.337-.004.666-.05.989-.122z"/></svg>