<svg id="Layer_1" viewBox="0 0 24 24" xmlns="http://www.w3.org/2000/svg" data-name="Layer 1"><path d="m24 2.43c0 2.07-2.754 4.455-3.953 5.382-.325.251-.769.251-1.094 0-1.199-.927-3.953-3.391-3.953-5.382 0-1.342 1.007-2.43 2.25-2.43s2.25.908 2.25 2.25c0-1.342 1.007-2.25 2.25-2.25s2.25 1.088 2.25 2.43zm-17 17.57c-1.105 0-2 .895-2 2s.895 2 2 2 2-.895 2-2-.895-2-2-2zm10 0c-1.105 0-2 .895-2 2s.895 2 2 2 2-.895 2-2-.895-2-2-2zm4.27-10.606c-.521.403-1.145.604-1.77.604s-1.25-.202-1.772-.606c-1.33-1.028-4.313-3.617-4.689-6.393h-7.797l-.041-.352c-.179-1.508-1.46-2.647-2.979-2.647h-1.222c-.553 0-1 .448-1 1s.447 1 1 1h1.222c.507 0 .934.38.993.883l1.376 11.702c.297 2.517 2.432 4.416 4.966 4.416h9.443c.553 0 1-.448 1-1s-.447-1-1-1h-9.443c-1.292 0-2.404-.826-2.82-2h11.424c2.375 0 4.437-1.69 4.902-4.019l.801-4.005c-.931 1.064-1.953 1.922-2.594 2.418z"/></svg>