<svg id="Layer_1" viewBox="0 0 24 24" xmlns="http://www.w3.org/2000/svg" data-name="Layer 1"><path d="m6.5 13c3.59 0 6.5-2.91 6.5-6.5s-2.91-6.5-6.5-6.5-6.5 2.91-6.5 6.5v4c0 1.381 1.119 2.5 2.5 2.5zm0-2c-.552 0-1-.448-1-1s.448-1 1-1 1 .448 1 1-.448 1-1 1zm1.447-3.371c-.396.217-.715.552-.718.556-.197.208-.462.313-.729.313-.246 0-.491-.09-.684-.271-.401-.377-.424-1.006-.048-1.409.053-.058.542-.572 1.213-.941.29-.16.595-.535.502-1.067-.069-.391-.403-.724-.794-.793-.305-.055-.602.023-.832.217-.228.191-.358.47-.358.767 0 .552-.448 1-1 1s-1-.448-1-1c0-.889.391-1.726 1.071-2.298s1.578-.811 2.464-.655c1.21.212 2.205 1.206 2.418 2.417.223 1.273-.382 2.545-1.506 3.165zm6.323 3.851c-.813.813-1.27 1.916-1.27 3.065v.954c0 .276.224.5.5.5h.955c1.149 0 2.252-.457 3.064-1.269l5.715-5.715c.85-.85 1.013-2.236.252-3.167-.875-1.07-2.456-1.129-3.409-.176l-5.807 5.807zm.579-3.407c.096-.51.151-1.035.151-1.573 0-.87-.132-1.709-.375-2.5h4.359c-.106.088-.223.161-.321.259zm9.151 3.005v10.776c0 .793-.435 1.519-1.134 1.894-.318.171-.667.256-1.015.256-.416 0-.831-.121-1.19-.36l-3.964-2.644h-5.697c-2.757 0-5-2.243-5-5v-1.025c.166.01.331.025.5.025 1.683 0 3.248-.496 4.569-1.34-.041.292-.069.586-.069.886v.954c0 1.379 1.122 2.5 2.5 2.5h.955c1.691 0 3.282-.659 4.479-1.855l5.066-5.066z"/></svg>