<svg id="Layer_1" viewBox="0 0 24 24" xmlns="http://www.w3.org/2000/svg" data-name="Layer 1"><path d="m24 7h-9c0 1.105-.895 2-2 2h-2c-1.105 0-2-.895-2-2h-9v1c0 2.209 1.791 4 4 4h16c2.209 0 4-1.791 4-4zm0-3c0-2.209-1.791-4-4-4h-5c0 1.105-.895 2-2 2h-2c-1.105 0-2-.896-2-2h-5c-2.209 0-4 1.791-4 4v1h24zm0 18c0 1.105-.895 2-2 2h-9.038c-1.897.009-3.758-.521-5.365-1.53l-6.654-4.756c-.934-.585-1.223-1.813-.647-2.753.58-.948 1.819-1.245 2.766-.664l5.892 4.265c.734.872 1.82 1.438 3.046 1.438h4c.552 0 1-.448 1-1 0-.552-.448-1-1-1h-3.893c-.996 0-1.92-.681-2.08-1.664-.204-1.253.758-2.336 1.973-2.336h4c4.418 0 8 3.582 8 8z"/></svg>