<svg id="Layer_1" viewBox="0 0 24 24" xmlns="http://www.w3.org/2000/svg" data-name="Layer 1"><path d="m4 18c-1.105 0-2-.895-2-2s.895-2 2-2h3.422c-.268.613-.422 1.288-.422 2s.154 1.387.422 2zm14 2h-3.027c-.833.62-1.854 1-2.973 1s-2.14-.38-2.973-1h-3.027c-1.105 0-2 .895-2 2s.895 2 2 2h12c1.105 0 2-.895 2-2s-.895-2-2-2zm-14-14h16c1.215 0 2.176-1.083 1.973-2.336-.16-.983-1.083-1.664-2.08-1.664h-6.893v-1c0-.552-.448-1-1-1s-1 .448-1 1v1h-6.893c-.996 0-1.92.681-2.08 1.664-.204 1.253.758 2.336 1.973 2.336zm8 13c1.657 0 3-1.343 3-3s-1.343-3-3-3-3 1.343-3 3 1.343 3 3 3zm8-5h-3.422c.268.613.422 1.288.422 2s-.154 1.387-.422 2h3.422c1.105 0 2-.895 2-2s-.895-2-2-2zm2-6h-20c-1.105 0-2 .895-2 2s.895 2 2 2h7.027c.833-.62 1.854-1 2.973-1s2.14.38 2.973 1h7.027c1.105 0 2-.895 2-2s-.895-2-2-2z"/></svg>