<?xml version="1.0" encoding="UTF-8"?>
<svg xmlns="http://www.w3.org/2000/svg" id="Layer_1" data-name="Layer 1" viewBox="0 0 24 24">
  <path d="m15.293,7.293l1.293-1.293-1.293-1.293c-.39-.39-.39-1.024,0-1.414h0c.39-.39,1.024-.39,1.414,0l1.293,1.293,1.293-1.293c.39-.39,1.024-.39,1.414,0h0c.39.39.39,1.024,0,1.414l-1.293,1.293,1.293,1.293c.39.39.39,1.024,0,1.414h0c-.39.39-1.024.39-1.414,0l-1.293-1.293-1.293,1.293c-.39.39-1.024.39-1.414,0h0c-.39-.39-.39-1.024,0-1.414Zm7.523,2.275l-.238,1.32c-.431,2.383-2.5,4.113-4.921,4.113H5.736c.416,1.174,1.528,2,2.82,2h10.443c.553,0,1,.447,1,1s-.447,1-1,1h-10.443c-2.534,0-4.669-1.898-4.966-4.415L2.215,2.883c-.06-.503-.486-.883-.993-.883h-.222c-.553,0-1-.448-1-1S.447,0,1,0h.222c1.52,0,2.801,1.139,2.979,2.648l.041.352h8.567c-.512.883-.809,1.906-.809,3,0,3.314,2.686,6,6,6,1.976,0,3.723-.959,4.816-2.432Zm-15.816,10.432c-1.105,0-2,.895-2,2s.895,2,2,2,2-.895,2-2-.895-2-2-2Zm10,0c-1.105,0-2,.895-2,2s.895,2,2,2,2-.895,2-2-.895-2-2-2Z"/>
</svg>
