<svg id="Layer_1" viewBox="0 0 24 24" xmlns="http://www.w3.org/2000/svg" data-name="Layer 1"><path d="m12 0c-4.96 0-9 4.04-9 9v14c0 .55.45 1 1 1s1-.45 1-1v-5c0-.83.67-1.5 1.5-1.5s1.5.67 1.5 1.5v3c0 .55.45 1 1 1s1-.45 1-1v-1c0-1.1.9-2 2-2s2 .9 2 2v3c0 .55.45 1 1 1s1-.45 1-1v-5c0-.83.67-1.5 1.5-1.5s1.5.67 1.5 1.5v3c0 .55.45 1 1 1s1-.45 1-1v-12c0-4.96-4.04-9-9-9zm2.48 10.18-1.48 3.21c-.17.37-.54.61-.95.61-.58 0-1.05-.47-1.05-1.05v-1.95l-1-1.29v-1.21l-.5-.5h-1.19c-.52 0-1.02-.21-1.38-.58l-1.67-1.69c1.25-2.58 3.93-4.34 7.02-4.23.1.19.08.15.18.35-.63.96-1.17 1.79-1.17 1.79l.8 1.34c.16.26.12.6-.1.82-.2.2-.52.26-.78.13l-.99-.5-.49.49c-.32.32-.31.83.02 1.14l.47.44h.99c.52 0 1.02.15 1.46.43l1.43.93c.44.28.6.84.38 1.31zm4.92.01-1.89-.59c-.49-.15-.86-.55-.99-1.04l-.26-1.05c-.15-.6.1-1.24.61-1.58l1.45-.96c.74 1.16 1.18 2.55 1.18 4.03 0 .41-.04.8-.1 1.19z"/></svg>