<svg id="Layer_1" viewBox="0 0 24 24" xmlns="http://www.w3.org/2000/svg" data-name="Layer 1"><path d="m15.859 13.575-1.394 2.554-6.216-3.524c-.23-.126-.317-.43-.189-.664l.905-1.686c.129-.235.423-.326.652-.204zm7.555 3.388-8.07-14.086c-.75-1.21-1.938-1.877-3.345-1.877s-2.631.685-3.386 1.908l-8.011 14.026c-.767 1.24-.804 2.744-.098 4.022.72 1.299 1.981 2.044 3.462 2.044h16.065c1.459 0 2.753-.765 3.463-2.047.705-1.276.668-2.779-.081-3.99zm-4.875-.117-.367.672c-.247.453-.819.614-1.266.356l-.848-.489-.097.178c-.392.719-1.297.977-2.009.573l-2.071-1.174-.424.84c-.68 1.348-2.061 2.198-3.571 2.198h-.887c-.552 0-1-.448-1-1 0-.552.448-1 1-1h.887c.755 0 1.445-.425 1.785-1.099l.467-.926-2.863-1.623c-1.188-.648-1.63-2.163-.973-3.369l.905-1.686c.656-1.2 2.169-1.649 3.373-.998l7.999 4.505c.561.316.603 1.107.079 1.481l-1.232.88.764.443c.432.251.586.8.347 1.239z"/></svg>