<svg id="Layer_1" viewBox="0 0 24 24" xmlns="http://www.w3.org/2000/svg" data-name="Layer 1"><path d="m24 6.98c-.02-1.57-.64-3.04-1.75-4.15l-2.54-2.54c-.39-.39-1.02-.39-1.41 0s-.39 1.02 0 1.41l1.71 1.71v2.59c0 1.1.9 2 2 2v10c0 .55-.45 1-1 1s-1-.45-1-1v-1c0-1.65-1.35-3-3-3h-1v-3h-2.2c-.43-.73-.93-1.4-1.46-2h3.66v-4c0-2.76-2.24-5-5-5h-6c-2.77 0-5.01 2.24-5.01 5v4h3.66c-.52.6-1.03 1.27-1.46 2h-2.2v8c0 2.76 2.24 5 5 5h6c2.76 0 5-2.24 5-5v-3h1c.55 0 1 .45 1 1v1c0 1.65 1.35 3 3 3s3-1.35 3-3c0 0 0-11.01 0-11.02zm-15 12.92v1.1c0 .55-.45 1-1 1s-1-.45-1-1v-1.1c-2.28-.46-4-2.48-4-4.9 0-2.26 1.75-4.39 3.21-5.78 1-.95 2.57-.95 3.57 0 1.47 1.39 3.21 3.52 3.21 5.78 0 2.41-1.72 4.43-4 4.9zm2-4.9c0 1.3-.84 2.4-2 2.82v-2.82c0-.55-.45-1-1-1s-1 .45-1 1v2.82c-1.16-.41-2-1.51-2-2.82 0-1.63 1.62-3.41 2.59-4.33.23-.22.59-.22.82 0 .97.92 2.59 2.7 2.59 4.33z"/></svg>