<svg id="Layer_1" viewBox="0 0 24 24" xmlns="http://www.w3.org/2000/svg" data-name="Layer 1"><path d="m13.411 10.533-3.545-2.083-1.602-1.597c.472-.472.732-1.1.732-1.768s-.26-1.295-.732-1.768l-2.292-2.292c-1.322-1.322-3.628-1.322-4.95 0-1.358 1.302-1.358 3.647 0 4.95l2.292 2.293c.472.472 1.1.732 1.768.732s1.296-.26 1.768-.732 1.586 1.581 1.586 1.581l2.102 3.56c.394.667 1.312.784 1.86.236l1.25-1.25c.549-.549.431-1.468-.238-1.862zm10.586 2.967v9.5c0 .552-.448 1-1 1h-18c-.552 0-1-.448-1-1v-9.5c0-.89.134-1.754.369-2.581.722.12 1.468.079 2.158-.154.138.122.405.405.473.578v.659c0 3.839 3.136 6.979 7.01 6.998 3.854-.02 6.99-3.159 6.99-6.998v-5.408c1.895 1.777 3 4.243 3 6.906zm-14.365-11.642c.714-1.114 1.959-1.858 3.385-1.858h1.959c2.221 0 4.021 1.791 4.021 4.001v8.001c0 2.753-2.237 4.984-5 4.998-1.166-.006-2.225-.423-3.075-1.092.208.065.43.086.646.084.839 0 1.641-.329 2.246-.934l1.249-1.25c.703-.703 1.034-1.671.908-2.657-.126-.985-.69-1.839-1.546-2.342l-3.661-2.288c.153-.457.233-.94.233-1.436 0-1.202-.468-2.332-1.318-3.182l-.046-.046z"/></svg>