<?xml version="1.0" encoding="UTF-8"?>
<svg xmlns="http://www.w3.org/2000/svg" id="Layer_1" data-name="Layer 1" viewBox="0 0 24 24">
  <path d="M1.5,18c0-1.105,.895-2,2-2s2,.895,2,2-.895,2-2,2-2-.895-2-2Zm2,3c-1.268,0-2.444,.479-3.229,1.315-.602,.6-.12,1.713,.729,1.685H6c.849,.028,1.331-1.085,.729-1.685-.785-.836-1.962-1.315-3.229-1.315Zm20.5-2.5v3c0,1.378-1.121,2.5-2.5,2.5h-3c-1.379,0-2.5-1.122-2.5-2.5v-3c0-1.378,1.121-2.5,2.5-2.5h3c1.379,0,2.5,1.122,2.5,2.5Zm-2.5,.5c0-.552-.447-1-1-1h-1c-.553,0-1,.448-1,1s.447,1,1,1h1c.553,0,1-.448,1-1Zm-8.623-.064c-.532,.073-.8,.073-1.417,.044l.221-1.291c.103-.6-.548-1.043-1.069-.728l-2.546,1.539c-.528,.332-.65,1.048-.263,1.537l1.886,2.311c.386,.473,1.149,.272,1.252-.33l.183-1.07c.893,.068,1.25,.073,2.009-.032,.496-.072,.866-.494,.866-.995,0-.601-.528-1.072-1.123-.985Zm-5.105-7.504l-1.3-2.676c-.282-.556-.985-.743-1.506-.402l-2.474,1.667c-.506,.341-.376,1.119,.214,1.277l1.127,.301c-.032,.286-.057,.574-.057,.869,0,.283,.035,.947,.141,1.495,.084,.433,.457,.75,.898,.766,.006,0,.013,0,.019,0,.591,.021,1.079-.504,.966-1.084-.074-.381-.171-1.094,.006-1.52l1.145,.305c.588,.157,1.089-.45,.823-.998Zm8.758,1.217l2.518,1.585c.533,.323,1.228,.11,1.491-.455l1.22-2.722c.25-.557-.272-1.149-.856-.971l-.986,.301-.051,.016c-.188-.639-.44-1.251-.764-1.817-.283-.496-.952-.614-1.408-.271-.004,.003-.009,.007-.013,.01-.36,.272-.484,.753-.299,1.164,.228,.504,.462,1.119,.573,1.496l-1.254,.382c-.583,.178-.687,.958-.171,1.282Zm-1.068-4.65c-.17,0-.342-.043-.499-.134l-.338-.195c-.446,.439-1.006,.754-1.625,.926v.403c0,.552-.447,1-1,1s-1-.448-1-1v-.403c-.619-.173-1.179-.488-1.625-.926l-.338,.195c-.47,.273-1.088,.116-1.366-.366-.276-.479-.112-1.09,.366-1.366l.346-.2c-.171-.595-.171-1.273,0-1.868l-.346-.2c-.479-.276-.643-.888-.366-1.366s.889-.642,1.366-.366l.338,.195c.446-.439,1.006-.754,1.625-.926v-.403c0-.552,.447-1,1-1s1,.448,1,1v.403c.619,.173,1.179,.488,1.625,.926l.338-.195c.476-.276,1.089-.112,1.366,.366,.276,.479,.112,1.09-.366,1.366l-.346,.2c.171,.595,.171,1.273,0,1.868l.346,.2c.479,.276,.643,.888,.366,1.366-.186,.321-.521,.5-.867,.5Zm-1.963-3c0-.827-.673-1.5-1.5-1.5s-1.5,.673-1.5,1.5,.673,1.5,1.5,1.5,1.5-.673,1.5-1.5Z"/>
</svg>
