<svg id="Layer_1" viewBox="0 0 24 24" xmlns="http://www.w3.org/2000/svg" data-name="Layer 1"><path d="m9.493 20.25-3.401 3.296c-.932.911-2.504.374-2.683-.917l-.218-1.568-1.765-.182c-1.344-.139-1.911-1.785-.939-2.723l2.306-2.223c.5 1.388 1.65 2.486 3.076 2.894.735.211 1.505.247 2.231.105.36.534.84.963 1.393 1.318zm4.778-2.482c-.233.361-.564.679-.994.918-.782.433-1.771.433-2.553 0-.431-.239-.761-.557-.994-.918-.416-.644-1.181-.987-1.929-.817-.428.097-.896.091-1.38-.048-.859-.246-1.559-.946-1.805-1.805-.139-.484-.145-.953-.048-1.382.17-.748-.173-1.513-.817-1.928-.362-.233-.679-.564-.918-.995-.219-.394-.325-.842-.323-1.289-.002-.447.105-.894.323-1.289.239-.431.557-.761.918-.995.644-.416.987-1.181.817-1.928-.097-.429-.091-.897.048-1.381.246-.859.946-1.559 1.805-1.805.484-.139.952-.145 1.38-.048.748.17 1.513-.172 1.929-.817.233-.361.563-.679.994-.918.782-.433 1.772-.433 2.553 0 .431.239.761.557.994.918.416.644 1.181.987 1.929.817.428-.097.896-.091 1.38.048.859.246 1.559.946 1.805 1.805.139.484.145.953.048 1.381-.17.748.173 1.513.817 1.928.362.233.679.564.918.995.219.394.325.842.323 1.289.002.447-.105.894-.323 1.289-.239.431-.557.761-.918.995-.644.416-.987 1.181-.817 1.928.097.429.091.897-.048 1.382-.246.859-.946 1.559-1.805 1.805-.484.139-.952.145-1.38.048-.748-.17-1.513.172-1.929.817zm-3.271-7.81-3-1.715v2.533c0 .718.384 1.38 1.008 1.736l1.992 1.139zm1.002-1.646 3.174-1.814-2.195-1.24c-.611-.345-1.359-.345-1.969 0l-2.186 1.238 3.176 1.815zm2.969 4.262c.635-.353 1.029-1.022 1.029-1.749v-2.58l-3 1.715v3.708zm8.541 5.581-2.306-2.223c-.5 1.388-1.65 2.486-3.076 2.894-.735.211-1.505.247-2.231.105-.36.534-.84.963-1.393 1.318l3.401 3.296c.932.911 2.504.374 2.683-.917l.218-1.568 1.765-.182c1.344-.139 1.911-1.785.939-2.723z"/></svg>