<svg id="Layer_1" viewBox="0 0 24 24" xmlns="http://www.w3.org/2000/svg" data-name="Layer 1"><path d="m16 2.556v-1.556c0-.552-.447-1-1-1s-1 .448-1 1v1h-2v-1c0-.552-.447-1-1-1s-1 .448-1 1v1h-2v-1c0-.552-.447-1-1-1s-1 .448-1 1v1h-2v-1c0-.552-.447-1-1-1s-1 .448-1 1v1.556c-1.19.694-2 1.97-2 3.444v13c0 2.757 2.243 5 5 5h8c2.757 0 5-2.243 5-5v-13c0-1.474-.81-2.75-2-3.444zm-13 5.944c0-.828.672-1.5 1.5-1.5s1.5.672 1.5 1.5-.672 1.5-1.5 1.5-1.5-.672-1.5-1.5zm3 10.497c.002.552-.444 1.001-.997 1.003h-.003c-.551 0-.998-.445-1-.997-.018-5.278 2.749-7.661 5.19-9.763.331-.285.647-.562.953-.838l-.871-.871c-.564-.564-.164-1.528.633-1.528h3.094c.552 0 1 .448 1 1v3.109c0 .792-.957 1.188-1.517.628l-.925-.925c-.352.32-.708.635-1.062.939-2.32 1.998-4.511 3.884-4.496 8.241zm8.207-1.204c.391.391.391 1.023 0 1.414s-1.023.391-1.414 0l-.793-.793-.793.793c-.391.391-1.023.391-1.414 0s-.391-1.023 0-1.414l.793-.793-.793-.793c-.391-.391-.391-1.023 0-1.414s1.023-.391 1.414 0l.793.793.793-.793c.391-.391 1.023-.391 1.414 0s.391 1.023 0 1.414l-.793.793zm7.793 6.207c-.171 0-.341-.065-.471-.195l-.552-.552c-.63-.63-.977-1.467-.977-2.357v-18.896c0-1.103.897-2 2-2s2 .897 2 2v18.895c0 .891-.347 1.728-.977 2.357l-.552.552c-.13.13-.301.195-.471.195z"/></svg>