<svg id="Layer_1" viewBox="0 0 24 24" xmlns="http://www.w3.org/2000/svg" data-name="Layer 1"><path d="m24 17c0 1.105-.895 2-2 2-.366 0-.705-.106-1-.277v4.277c0 .553-.448 1-1 1s-1-.447-1-1v-5.732c-.589-.271-1-.863-1-1.554 0-.947.768-1.714 1.714-1.714.74 0 1.364.471 1.604 1.127.214-.078.441-.127.681-.127 1.105 0 2 .895 2 2zm-19.714-3c-.74 0-1.364.471-1.604 1.127-.214-.078-.441-.127-.681-.127-1.105 0-2 .895-2 2s.895 2 2 2c.366 0 .705-.106 1-.277v4.277c0 .553.448 1 1 1s1-.447 1-1v-5.732c.589-.271 1-.863 1-1.554 0-.947-.768-1.714-1.714-1.714zm19.714-5.5c0 .866-.173 1.841-.5 2.817-.158.368-.289.625-.425.868-.258.488-.926.667-1.393.369-.607-.368-1.257-.555-1.933-.555-2.068 0-3.75 1.683-3.75 3.75 0 .815.274 1.602.792 2.274.135.175.208.39.208.61v3.284c0 .44-.288.829-.709.957-.271.082-.537.124-.791.124-1.933-.047-2.584-1.121-3.5-1.96-.915.838-1.568 1.913-3.5 1.96-.654.024-1.523-.289-1.5-1.081v-3.284c0-.221.073-.436.208-.61.518-.673.792-1.459.792-2.274 0-2.067-1.682-3.75-3.75-3.75-.676 0-1.326.187-1.933.555-.468.296-1.136.119-1.394-.37-.135-.243-.266-.5-.39-.779-.361-1.064-.534-2.039-.534-2.905.002-3.584 2.918-6.5 6.502-6.5 1.693-.033 3.215.704 4.5 1.745v-2.745c0-.553.448-1 1-1s1 .447 1 1v2.745c1.285-1.041 2.807-1.778 4.5-1.745 3.584 0 6.5 2.916 6.5 6.5zm-7.024.682c-.191-1.166-1.695-1.567-2.558-.76l-2.418 2.077-2.418-2.077c-.863-.807-2.367-.406-2.558.76-.074.443.026.912.277 1.285l1.933 2.399c.626.931 1.604 1.772 2.766 1.816 1.162-.045 2.14-.885 2.766-1.816l1.933-2.399c.251-.374.351-.842.277-1.285z"/></svg>