<?xml version="1.0" encoding="UTF-8"?>
<svg xmlns="http://www.w3.org/2000/svg" id="Layer_1" data-name="Layer 1" viewBox="0 0 24 24">
  <path d="M5.013,7h-.013C5,3.14,8.14,0,12,0s7,3.14,7,7c0,.219-.017,.447-.041,.678-.198-.411-.438-.799-.726-1.154-.934-1.151-2.771-2.524-6.222-2.524s-5.28,1.37-6.212,2.519c-.294,.363-.539,.759-.739,1.179-.025-.234-.048-.468-.048-.698Zm.772,7.508c-1.748,1.679-2.785,4.017-2.785,6.492h0c0,1.657,1.343,3,3,3h5v-3.356c-1.326-1.293-3.191-3.141-5.215-6.135Zm12.442,.011c-2.039,3.015-3.877,4.831-5.228,6.149v3.331h5c1.657,0,3-1.343,3-3h0c0-2.469-1.032-4.802-2.772-6.48Zm-1.443-1.434c-1.68,2.628-3.851,4.86-4.772,5.754h-.014c-.92-.894-3.091-3.126-4.772-5.754-.552-.863-.882-1.877-.803-2.899,.072-.927,.378-1.75,.908-2.403,.946-1.167,2.56-1.783,4.668-1.783h.012c2.108,0,3.722,.617,4.668,1.783,.53,.653,.836,1.476,.908,2.403,.079,1.022-.251,2.035-.803,2.899Zm-2.37-.085h-4.809c.515,.719,1.048,1.402,1.557,2h1.696c.508-.598,1.041-1.281,1.555-2Z"/>
</svg>
