<svg id="Layer_1" viewBox="0 0 24 24" xmlns="http://www.w3.org/2000/svg" data-name="Layer 1"><path d="m17.762 24c-7.636 0-17.762-10.126-17.762-17.762 0-1.672.633-3.226 1.784-4.374l1.15-1.005c.534-.538 1.312-.859 2.138-.859s1.604.322 2.189.907c.03.031.059.063.085.098l1.797 2.339c.553.579.857 1.335.857 2.138s-.306 1.565-.863 2.145l-1.158 1.456c1.458 3.309 3.734 5.589 6.932 6.947l1.464-1.165c1.193-1.147 3.087-1.149 4.282-.007l2.34 1.797c.034.026.067.055.098.086 1.206 1.207 1.206 3.17 0 4.376l-.912 1.05c-1.194 1.2-2.748 1.833-4.421 1.833zm1.067-23.293c-.247-.22-.64-.165-.809.121-.952 1.61-.733 3.916-1.587 3.916-.404 0-.341-.698-.531-1.129-.135-.305-.545-.352-.755-.092-.805.995-1.579 2.748-.866 4.461.763 1.833 2.485 3.127 4.467 3.01 2.371-.139 4.251-2.106 4.251-4.511 0-2.376-2.634-4.403-4.171-5.775zm.83 8.28c-.62.723-1.732.723-2.351 0-.536-.625-.432-1.58.15-2.162l.682-.682c.19-.19.497-.19.687 0l.682.682c.582.582.686 1.538.15 2.162z"/></svg>