<svg id="Layer_1" viewBox="0 0 24 24" xmlns="http://www.w3.org/2000/svg" data-name="Layer 1"><path d="m16.623 15h-16.246c.106-.436.228-.869.38-1.294l.853-2.388c.709-1.985 2.602-3.318 4.709-3.318h4.362c2.107 0 4 1.333 4.709 3.318l.853 2.388c.152.425.273.858.38 1.294zm6.377-15c-.552 0-1 .448-1 1v1h-2v-1c0-.552-.448-1-1-1s-1 .448-1 1v2c0 1.304.837 2.403 2 2.816v9.184c0 1.654-1.346 3-3 3h-.003c-.002-.335-.015-.668-.043-1h-2.954v1c0 .552-.448 1-1 1s-1-.448-1-1v-1h-7v1c0 .552-.448 1-1 1s-1-.448-1-1v-1h-2.954c-.03.358-.046.717-.046 1.079 0 1.461.812 2.722 2 3.397v.524c0 1.103.897 2 2 2s2-.897 2-2h5c0 1.103.897 2 2 2s2-.897 2-2v-.524c.617-.351 1.129-.862 1.483-1.476h.517c2.757 0 5-2.243 5-5v-9.184c1.163-.413 2-1.512 2-2.816v-2c0-.552-.448-1-1-1z"/></svg>