<?xml version="1.0" encoding="UTF-8"?>
<svg xmlns="http://www.w3.org/2000/svg" id="Layer_1" data-name="Layer 1" viewBox="0 0 24 24">
  <path d="m2,2.5c0-1.381,1.119-2.5,2.5-2.5s2.5,1.119,2.5,2.5-1.119,2.5-2.5,2.5-2.5-1.119-2.5-2.5Zm13,4.5c0,.553-.448,1-1,1h-6v15c0,.553-.448,1-1,1s-1-.447-1-1v-6h-2v6c0,.553-.448,1-1,1s-1-.447-1-1v-6.556c-1.19-.694-2-1.97-2-3.444v-3c0-2.206,1.794-4,4-4h10c.552,0,1,.447,1,1Zm9,13v2c0,1.105-.895,2-2,2h-2c-1.105,0-2-.895-2-2v-2c0-1.105.895-2,2-2h2c1.105,0,2,.895,2,2Zm-8,0v2c0,1.105-.895,2-2,2h-2c-1.105,0-2-.895-2-2v-2c0-1.105.895-2,2-2h2c1.105,0,2,.895,2,2Zm4-8v2c0,1.105-.895,2-2,2h-2c-1.105,0-2-.895-2-2v-2c0-1.105.895-2,2-2h2c1.105,0,2,.895,2,2Z"/>
</svg>
