<svg id="Layer_1" viewBox="0 0 24 24" xmlns="http://www.w3.org/2000/svg" data-name="Layer 1"><path d="m19 3h-14c-2.757 0-5 2.243-5 5v8c0 2.757 2.243 5 5 5h14c2.757 0 5-2.243 5-5v-8c0-2.757-2.243-5-5-5zm-8.8 8.25c.442 0 .8.358.8.8s-.358.8-.8.8h-1.601v1.551h1.601c.442 0 .8.358.8.8s-.358.8-.8.8h-2.2c-.552 0-1-.448-1-1v-6c0-.552.448-1 1-1h2.2c.442 0 .8.358.8.8s-.358.8-.8.8h-1.601v1.65h1.601zm6.771 2.69c-.194 1.193-1.234 2.058-2.471 2.058-.68.001-1.335-.207-1.885-.582-.406-.277-.464-.854-.115-1.201l.041-.041c.259-.258.657-.294.971-.105.294.177.638.276.99.276.547 0 .803-.376.857-.698.085-.524-.548-.796-.621-.825-.524-.212-1.135-.484-1.714-.762-.659-.307-1.07-1.209-.954-2.098.114-.862.688-1.563 1.5-1.831.931-.288 1.698-.055 2.222.229.42.227.53.781.238 1.159l-.035.045c-.223.289-.614.375-.948.226-.281-.125-.63-.197-1.034-.078-.36.118-.437.385-.436.468.004.351.248.46.352.506.335.153.785.359 1.341.585 1.476.597 1.847 1.769 1.702 2.666z"/></svg>