<svg id="Layer_1" viewBox="0 0 24 24" xmlns="http://www.w3.org/2000/svg" data-name="Layer 1"><path d="m0 16v-12c0-2.206 1.794-4 4-4s4 1.794 4 4v12c0 2.206-1.794 4-4 4s-4-1.794-4-4zm24-9v12c0 2.757-2.243 5-5 5h-14c-2.151 0-3.988-1.365-4.693-3.274 1.019.798 2.301 1.274 3.693 1.274 3.309 0 6-2.691 6-6v-12c0-.701-.121-1.374-.343-2h9.343c2.757 0 5 2.243 5 5zm-8 12.5c0-.828-.672-1.5-1.5-1.5s-1.5.672-1.5 1.5.672 1.5 1.5 1.5 1.5-.672 1.5-1.5zm0-4c0-.828-.672-1.5-1.5-1.5s-1.5.672-1.5 1.5.672 1.5 1.5 1.5 1.5-.672 1.5-1.5zm5 4c0-.828-.672-1.5-1.5-1.5s-1.5.672-1.5 1.5.672 1.5 1.5 1.5 1.5-.672 1.5-1.5zm0-4c0-.828-.672-1.5-1.5-1.5s-1.5.672-1.5 1.5.672 1.5 1.5 1.5 1.5-.672 1.5-1.5zm0-9c0-.828-.672-1.5-1.5-1.5h-5c-.828 0-1.5.672-1.5 1.5v4c-.002.847.705 1.527 1.55 1.5.232-1.141 1.24-2 2.45-2 1.203 0 2.205.85 2.444 1.981.837.09 1.561-.654 1.556-1.481zm-4-.5c-.828 0-1.5.672-1.5 1.5s.672 1.5 1.5 1.5 1.5-.672 1.5-1.5-.672-1.5-1.5-1.5z"/></svg>