<svg id="Layer_1" viewBox="0 0 24 24" xmlns="http://www.w3.org/2000/svg" data-name="Layer 1"><path d="m12.974 22.011c-.191 1.175-1.215 2.028-2.436 2.028-.664 0-1.3-.195-1.839-.552-.388-.257-.448-.802-.119-1.131.236-.235.603-.283.888-.111.316.191.688.297 1.069.297.604 0 1.031-.404 1.096-.795.088-.55-.602-.873-.817-.959-.915-.371-1.751-.78-1.753-.78-.692-.484-1.027-1.231-.921-2.049.111-.845.674-1.534 1.471-1.796.839-.277 1.603-.076 2.152.203.405.205.518.733.238 1.095l-.011.014c-.195.253-.539.347-.831.216-.308-.138-.72-.237-1.156-.096-.412.136-.517.447-.515.577.005.442.335.57.433.615.282.128.806.368 1.366.595 1.461.591 1.828 1.745 1.685 2.627zm11.026-3.472v.022c0 1.368-1.109 2.478-2.478 2.478h-.922v2.2c0 .442-.358.8-.8.8-.442 0-.8-.358-.8-.8v-6.4c0-.442.358-.8.8-.8h1.7c1.381 0 2.5 1.119 2.5 2.5zm-1.6 0c0-.496-.404-.9-.9-.9h-.9v1.8h.9c.496 0 .9-.404.9-.9zm-6.8-.9h1.101c.442 0 .8-.358.8-.8 0-.442-.358-.8-.8-.8h-1.9c-.442 0-.8.358-.8.8v6.4c0 .442.358.8.8.8h1.9c.442 0 .8-.358.8-.8 0-.442-.358-.8-.8-.8h-1.101v-1.551h1.101c.442 0 .8-.358.8-.8 0-.442-.358-.8-.8-.8h-1.101v-1.65zm8.4-10.639c0-2.757-2.243-5-5-5h-1v-1c0-.553-.448-1-1-1s-1 .447-1 1v1h-8v-1c0-.553-.448-1-1-1s-1 .447-1 1v1h-1c-2.757 0-5 2.243-5 5v1h24zm-17.62 16.146c-.081-.81.197-1.604.767-2.185-.781-.885-1.145-2.046-.988-3.258.213-1.618 1.296-2.934 2.827-3.439.491-.161 1.002-.237 1.515-.229.734.011 11 .004 11 .004.925 0 1.784.282 2.5.762v-4.8h-24.001v9c0 2.761 2.239 5 5 5h1.627c-.123-.269-.217-.552-.247-.854z"/></svg>