<svg id="Layer_1" viewBox="0 0 24 24" xmlns="http://www.w3.org/2000/svg" data-name="Layer 1"><path d="m16 2.101v-1.101c0-.552-.448-1-1-1h-6c-.552 0-1 .448-1 1v1.101c-2.279.465-4 2.484-4 4.899v12c0 2.757 2.243 5 5 5h6c2.757 0 5-2.243 5-5v-12c0-2.414-1.721-4.434-4-4.899zm1 10.9s0 0 0 0c0 2.415-1.721 4.434-4 4.898v1.101c0 .552-.448 1-1 1s-1-.448-1-1v-1.101c-2.279-.465-4-2.485-4-4.899 0-2.573 2.303-5.332 3.521-6.431.843-.761 2.114-.76 2.957 0 1.219 1.1 3.522 3.859 3.522 6.432zm-2 .001c0 1.302-.839 2.402-2 2.816v-3.816c0-.552-.448-1-1-1s-1 .448-1 1v3.816c-1.161-.414-2-1.514-2-2.816 0-1.63 1.673-3.874 2.861-4.946.08-.072.198-.071.278 0 1.188 1.073 2.861 3.316 2.861 4.947z"/></svg>