<svg id="Layer_1" viewBox="0 0 24 24" xmlns="http://www.w3.org/2000/svg" data-name="Layer 1"><path d="m20 11.5c0 .828-.672 1.5-1.5 1.5s-1.5-.672-1.5-1.5.672-1.5 1.5-1.5 1.5.672 1.5 1.5zm2.5-4.5c-.828 0-1.5.672-1.5 1.5s.672 1.5 1.5 1.5 1.5-.672 1.5-1.5-.672-1.5-1.5-1.5zm0 6c-.828 0-1.5.672-1.5 1.5s.672 1.5 1.5 1.5 1.5-.672 1.5-1.5-.672-1.5-1.5-1.5zm-17.522 10.208.853-4c.115-.54-.229-1.071-.77-1.187-.541-.112-1.072.23-1.187.771l-.853 4c-.115.54.229 1.071.77 1.187.527.115 1.074-.225 1.187-.771zm5.968-11.897c.38.438.931.689 1.51.689h1.544c.552 0 1-.448 1-1 0-.552-.448-1-1-1h-1.544l-2.393-2.756c-.018-.023-.044-.04-.063-.062v-2.182h-2c-.552 0-1-.448-1-1 0-.552.448-1 1-1h2c0-1.71-1.431-3.086-3.161-2.996-1.622.085-2.839 1.541-2.839 3.166v2.83s-.5 0-.5 0c-1.933 0-3.5 1.567-3.5 3.5v2c0 1.933 1.567 3.5 3.5 3.5h.823c.346.807.953 1.493 1.749 1.931l3.928 2.16v3.909c0 .552.448 1 1 1 .552 0 1-.448 1-1v-3.908c0-.729-.397-1.401-1.036-1.752l-.964-.53v-6.588l.946 1.09z"/></svg>