<svg id="Layer_1" viewBox="0 0 24 24" xmlns="http://www.w3.org/2000/svg" data-name="Layer 1"><path d="m10 11h-10c0-2.757 2.243-5 5-5h5.819c-.527.9-.819 1.933-.819 3zm14 4.46v3.54c0 2.757-2.243 5-5 5h-14c-2.757 0-5-2.243-5-5v-6h10.35c.826 2.327 3.043 4 5.65 4h4c1.538 0 2.937-.586 4-1.54zm-17 3.04c0-.828-.672-1.5-1.5-1.5s-1.5.672-1.5 1.5.672 1.5 1.5 1.5 1.5-.672 1.5-1.5zm17-9.5v2c0 2.206-1.794 4-4 4h-4c-2.206 0-4-1.794-4-4v-2c0-1.474.81-2.75 2-3.444v-1.556c0-2.206 1.794-4 4-4s4 1.794 4 4v1.556c1.19.694 2 1.97 2 3.444zm-4.5 1c0-.828-.672-1.5-1.5-1.5s-1.5.672-1.5 1.5.672 1.5 1.5 1.5 1.5-.672 1.5-1.5zm.5-6c0-1.103-.897-2-2-2s-2 .897-2 2v1h4z"/></svg>