<svg id="Layer_1" viewBox="0 0 24 24" xmlns="http://www.w3.org/2000/svg" data-name="Layer 1"><path d="m24 16v6c0 1.105-.895 2-2 2h-3c-1.105 0-2-.895-2-2v-6c0-1.105.895-2 2-2h3c1.105 0 2 .895 2 2zm-15.5-11c1.381 0 2.5-1.119 2.5-2.5s-1.119-2.5-2.5-2.5-2.5 1.119-2.5 2.5 1.119 2.5 2.5 2.5zm-4.5 15h-2c-1.105 0-2 .895-2 2s.895 2 2 2h2c1.105 0 2-.895 2-2s-.895-2-2-2zm11-1v3c0 1.105-.895 2-2 2h-3c-1.105 0-2-.895-2-2v-3c0-.738.405-1.376 1-1.723v-1.555l-3.171-1.047-.652 1.957c-.273.818-1.036 1.367-1.897 1.367h-2.28c-.552 0-1-.448-1-1s.448-1 1-1h2.279l.688-2.064c-.828-.586-1.254-1.635-.988-2.662l.897-3.348c.234-1.095 1.262-1.926 2.432-1.926h4.637c.181 0 .359-.049.515-.143l2.024-1.215c.475-.285 1.088-.13 1.372.343.284.474.131 1.088-.343 1.372l-2.025 1.215c-.467.28-1 .428-1.544.428h-1.515l-1.404 5.295 1.6.529c.821.271 1.373 1.034 1.373 1.899v1.277h2c1.105 0 2 .895 2 2zm3-7c.553 0 1-.448 1-1v-5l3.445-2.067c.705-.423.705-1.444 0-1.867l-2.587-1.552c-.561-.337-1.203-.514-1.857-.514-.543-.011-.989.467-1 1v10c0 .552.447 1 1 1z"/></svg>