<?xml version="1.0" encoding="UTF-8"?>
<svg xmlns="http://www.w3.org/2000/svg" id="Layer_1" data-name="Layer 1" viewBox="0 0 24 24">
  <path d="M15,2.5c0-1.381,1.119-2.5,2.5-2.5s2.5,1.119,2.5,2.5-1.119,2.5-2.5,2.5-2.5-1.119-2.5-2.5Zm9-1.5V3.563c0,.893-.394,1.733-1.08,2.305l-1.925,1.605c0,.009,.005,.017,.005,.027v15.5c0,.553-.447,1-1,1s-1-.447-1-1v-6h-3v6c0,.553-.447,1-1,1s-1-.447-1-1V7.5c0-.009,.005-.017,.005-.027l-1.926-1.605c-.686-.571-1.08-1.412-1.08-2.305V1c0-.553,.448-1,1-1s1,.447,1,1V3.563c0,.298,.131,.577,.359,.768l2.003,1.669h4.275l2.002-1.669c.229-.19,.36-.47,.36-.768V1c0-.553,.447-1,1-1s1,.447,1,1ZM3.5,5c1.381,0,2.5-1.119,2.5-2.5S4.881,0,3.5,0,1,1.119,1,2.5s1.119,2.5,2.5,2.5Zm8.5,7c0,.553-.448,1-1,1h-1.848c-.69,0-1.356-.289-1.828-.794l-1.324-1.418v3.397c0,1.302-.839,2.402-2,2.816v6c0,.553-.448,1-1,1s-1-.447-1-1v-6c-1.161-.414-2-1.514-2-2.816v-5.184c0-1.654,1.346-3,3-3,.967,0,1.819,.467,2.368,1.18l3.418,3.661c.094,.102,.228,.159,.366,.159h1.848c.552,0,1,.447,1,1Z"/>
</svg>
