<?xml version="1.0" encoding="UTF-8"?>
<svg xmlns="http://www.w3.org/2000/svg" id="Layer_1" data-name="Layer 1" viewBox="0 0 24 24">
  <path d="M9,12c3.309,0,6-2.691,6-6S12.309,0,9,0,3,2.691,3,6s2.691,6,6,6Zm14.973,1.095c-.39,1.534-1.609,4.448-4.115,6.472-1.132,.914-2.295,1.47-3.357,1.807,0,0,1-3.375,4.066-6.941-3.103,1.718-5.314,4.825-6.277,7.412-.18,.459-.327,.936-.456,1.408-.122,.445-.535,.747-.997,.747-.684,0-1.192-.651-1.005-1.309,.141-.496,.305-1,.5-1.495,.166-1.36,.992-4.675,3.755-6.906,2.459-1.986,5.498-2.29,7.017-2.289,.579,0,1.012,.534,.869,1.095Zm-14.066,9.05c-.177,.624-.134,1.265,.084,1.854H1c-.552,0-1-.447-1-1,0-4.963,4.038-9,9-9,1.362,0,2.649,.313,3.807,.857-1.737,2.353-2.276,4.869-2.425,5.834-.17,.451-.326,.93-.476,1.455Z"/>
</svg>
