<svg id="Layer_1" viewBox="0 0 24 24" xmlns="http://www.w3.org/2000/svg" data-name="Layer 1"><path d="m21.486 16.818-2.486-.994v-3.323c0-.827-.673-1.5-1.5-1.5s-1.5.673-1.5 1.5v6.698l-.622-.573c-.677-.678-1.772-.851-2.562-.285-.997.718-1.08 2.118-.249 2.949l2.274 2.189c.348.335.811.522 1.294.522h5.865c1.105 0 2-.895 2-2v-1.469c0-1.636-.996-3.106-2.514-3.714zm-10.306 5.912c-.844-.844-1.26-1.974-1.167-3.127.069-.862.42-1.666.987-2.302v-12.841c0-1.934-1.381-3.589-3.226-3.923l-1.879-.457c-1.464-.263-2.957.128-4.099 1.081s-1.796 2.352-1.796 3.838v12.793c0 2.417 1.727 4.486 4.105 4.919l6.285 1.143c.534.097 1.071.146 1.609.146.159 0 .318-.013.476-.021l-1.297-1.249zm-4.205-4.827c-.105.464-.518.778-.974.778-.073 0-3.223-.707-3.223-.707-.539-.123-.876-.658-.753-1.197s.658-.875 1.197-.753l3 .682c.539.123.876.658.753 1.197zm2.004-3.699c-.099.472-.515.795-.978.795-.068 0-5.206-1.066-5.206-1.066-.541-.113-.887-.643-.774-1.184s.645-.885 1.184-.774l5 1.045c.541.113.887.643.774 1.184zm0-4c-.099.472-.515.795-.978.795-.068 0-5.206-1.066-5.206-1.066-.541-.113-.887-.643-.774-1.184s.645-.887 1.184-.774l5 1.045c.541.113.887.643.774 1.184zm0-3.955c-.099.472-.515.795-.978.795-.068 0-5.206-1.066-5.206-1.066-.541-.113-.887-.643-.774-1.184s.645-.884 1.184-.774l5 1.045c.541.113.887.643.774 1.184zm5.021 9.745v-3.495c0-1.93 1.57-3.5 3.5-3.5s3.5 1.57 3.5 3.5v1.969l1.229.491c.669.267 1.258.653 1.771 1.112v-11.072c0-1.487-.654-2.886-1.796-3.838-1.141-.953-2.629-1.348-4.157-1.069l-1.764.432c-1.902.347-3.283 2.002-3.283 3.936v11.646c.324-.077.656-.122 1-.112zm1.795-10.928 5-1.045c.541-.108 1.071.234 1.184.774s-.234 1.07-.774 1.184c0 0-5.138 1.066-5.206 1.066-.463 0-.879-.324-.978-.795-.113-.541.234-1.07.774-1.184z"/></svg>