<svg id="Layer_1" viewBox="0 0 24 24" xmlns="http://www.w3.org/2000/svg" data-name="Layer 1"><path d="m18 12c-3.314 0-6 2.686-6 6s2.686 6 6 6 6-2.686 6-6-2.686-6-6-6zm-1.5 10c-.828 0-1.5-.672-1.5-1.5s.672-1.5 1.5-1.5 1.5.672 1.5 1.5-.672 1.5-1.5 1.5zm.5-4c-1.105 0-2-.895-2-2s.895-2 2-2 2 .895 2 2-.895 2-2 2zm4 2c-.828 0-1.5-.672-1.5-1.5s.672-1.5 1.5-1.5 1.5.672 1.5 1.5-.672 1.5-1.5 1.5zm-8-9.608v-6.396h3.022c2.794 0 5.219 1.929 5.847 4.651l.634 2.746c-1.284-.878-2.834-1.393-4.503-1.393-1.805 0-3.466.608-4.806 1.62-.125-.39-.194-.803-.194-1.228zm-2.453 10.494c-.531 1.067-1.494 1.895-2.703 2.218l-2.637.703c-.352.12-.777.189-1.204.19h-.006c-1.049 0-2.078-.428-2.826-1.176-.755-.753-1.17-1.757-1.17-2.827 0-1.402.16-2.805.475-4.169l1.656-7.177c.628-2.723 3.053-4.651 5.847-4.651h3.022v6.396c0 1.725-1.1 3.25-2.735 3.795l-2.581.86c-.523.175-.807.741-.632 1.265.174.529.754.807 1.265.632l2.581-.86c.587-.196 1.12-.483 1.6-.835-.316.859-.498 1.783-.498 2.751 0 1.018.199 1.989.547 2.885zm2.453-16.89h-2v-3c0-.553.447-1 1-1s1 .448 1 1z"/></svg>