<svg id="Layer_1" viewBox="0 0 24 24" xmlns="http://www.w3.org/2000/svg" data-name="Layer 1"><path d="m13.063 13.59c.127-.109.247-.225.393-.312l3-1.8c.954-.572 2.137-.57 3.087 0l3.001 1.8c.146.087.266.203.393.312l-4.937 2.962zm3.937 4.695-4.931-2.959c-.031.173-.069.345-.069.524v3.066c0 1.048.558 2.15 1.456 2.688l3.001 1.801c.172.103.358.167.543.233zm2 0v5.353c.185-.066.371-.129.544-.233l3-1.801c.898-.538 1.456-1.64 1.456-2.688v-3.066c0-.179-.038-.351-.069-.524zm-6.572 5.202c-1.498-.898-2.428-2.541-2.428-4.287v-3.4c0-1.748.931-3.391 2.429-4.288l2.998-1.799c.949-.569 2.034-.79 3.093-.679-.241-.49-.502-.994-.801-1.524-.893-1.585-2.058-3.371-3.459-5.305-1.034-1.444-2.608-2.273-4.222-2.205-1.649-.068-3.332.78-4.35 2.199-3.774 5.208-5.688 9.16-5.688 11.747 0 2.721 1.026 5.245 2.891 7.109 1.899 1.898 4.425 2.944 7.109 2.944.912 0 1.804-.132 2.662-.372l-.234-.141z"/></svg>