<svg id="Layer_1" viewBox="0 0 24 24" xmlns="http://www.w3.org/2000/svg" data-name="Layer 1"><path d="m22.13 17.579c.232.423.37.903.37 1.421 0 1.657-1.343 3-3 3-.393 0-.763-.083-1.104-.223 1.255-1.531 2.119-3.38 2.45-5.418.001-.001.004-.025.004-.025.065-.6.159-1.208.15-1.834 0-6.341-5.159-11.5-11.5-11.5-2.772 0-5.319.987-7.307 2.627-.124-.323-.193-.673-.193-1.041 0-1.657 1.343-3 3-3 .639 0 1.225.207 1.709.55.456-1.244 1.64-2.136 3.041-2.136 1.188 0 2.212.646 2.777 1.598.888-.763 1.863-1.251 2.594-1.528.637-.242 1.333.169 1.432.843.084.576.098 1.353-.057 2.259.319-.101.651-.172 1.004-.172 1.933 0 3.5 1.567 3.5 3.5 0 .29-.056.562-.129.828 1.063.171 1.895.503 2.494.828.714.387.847 1.356.29 1.947-.389.412-.9.885-1.52 1.318 1.106.587 1.865 1.74 1.865 3.08s-.762 2.492-1.87 3.079zm-3.13-3.079c0 5.238-4.262 9.5-9.5 9.5s-9.5-4.262-9.5-9.5 4.262-9.5 9.5-9.5 9.5 4.262 9.5 9.5zm-6 0c0-1.93-1.57-3.5-3.5-3.5s-3.5 1.57-3.5 3.5 1.57 3.5 3.5 3.5 3.5-1.57 3.5-3.5z"/></svg>