<svg id="Layer_1" viewBox="0 0 24 24" xmlns="http://www.w3.org/2000/svg" data-name="Layer 1"><path d="m19 0h-14c-2.757 0-5 2.243-5 5v8c0 2.757 2.243 5 5 5h6v-6.848c0-1.643.928-3.089 2.421-3.773 1.494-.683 3.194-.441 4.438.63l5.804 5.004c.122.105.231.22.337.337v-8.35c0-2.757-2.243-5-5-5zm-12 13c0 .552-.448 1-1 1s-1-.448-1-1v-8c0-.552.448-1 1-1s1 .448 1 1zm15.357 1.527-5.803-5.003c-.645-.556-1.526-.68-2.299-.327-.774.354-1.254 1.104-1.254 1.955v7.709c0 .771.438 1.444 1.145 1.755.254.112.52.167.782.167.466 0 .921-.173 1.286-.506l1.469-1.343 2.292 4.518c.578 1.169 2.385.241 1.784-.904l-2.266-4.467 1.815-.193c.761-.081 1.4-.605 1.629-1.336.228-.73 0-1.525-.579-2.024z"/></svg>