<svg id="Layer_1" viewBox="0 0 24 24" xmlns="http://www.w3.org/2000/svg" data-name="Layer 1"><path d="m9.849 2.594-2.5-1.957c-1.086-.849-2.612-.849-3.698 0l-2.5 1.957c-.727.569-1.151 1.44-1.151 2.363v3.544c0 1.381 1.119 2.5 2.5 2.5h6c1.381 0 2.5-1.119 2.5-2.5v-3.544c0-.923-.425-1.794-1.151-2.363zm-3.849 5.406h-1c-.552 0-1-.448-1-1v-1c0-.552.448-1 1-1h1c.552 0 1 .448 1 1v1c0 .552-.448 1-1 1zm15.5 8c0-1.105-.895-2-2-2h-2c-1.105 0-2 .895-2 2s0 0 0 0c-1.381 0-2.5 1.119-2.5 2.5v3c0 1.381 1.119 2.5 2.5 2.5h6c1.381 0 2.5-1.119 2.5-2.5v-3c0-1.381-1.119-2.5-2.5-2.5zm-4.5 3c0-.552.448-1 1-1h1c.552 0 1 .448 1 1 0 .552-.448 1-1 1h-1c-.552 0-1-.448-1-1zm-7.414-6-6.745 6.745c-1.567-1.852-2.579-4.184-2.791-6.745zm2.17 10.989c-2.857-.058-5.468-1.11-7.5-2.83l8.45-8.451c.092-.092.165-.201.216-.323.051-.121.078-.251.078-.385v-11.95c6.158.509 11 5.66 11 11.95 0 .888-.103 1.751-.286 2.584-.189-.108-.387-.203-.592-.282-.64-1.358-2.022-2.302-3.622-2.302h-2c-1.599 0-2.982.943-3.622 2.302-1.682.652-2.878 2.288-2.878 4.198v3c0 .92.28 1.775.756 2.489z"/></svg>