<svg id="Layer_1" viewBox="0 0 24 24" xmlns="http://www.w3.org/2000/svg" data-name="Layer 1"><path d="m4 8c-2.21 0-4-1.79-4-4s1.79-4 4-4 4 1.79 4 4-1.79 4-4 4zm6-1c0 .55.45 1 1 1h3.17c1.01 0 1.83-.82 1.83-1.83v-3.17c0-.55-.45-1-1-1s-1 .45-1 1v1.59l-2.29-2.29c-.39-.39-1.02-.39-1.41 0s-.39 1.02 0 1.41l2.29 2.29h-1.59c-.55 0-1 .45-1 1zm-2 4c0-.55-.45-1-1-1s-1 .45-1 1v1.59l-2.29-2.29c-.39-.39-1.02-.39-1.41 0s-.39 1.02 0 1.41l2.29 2.29h-1.59c-.55 0-1 .45-1 1s.45 1 1 1h3.17c1.01 0 1.83-.82 1.83-1.83zm15-1c.55 0 1-.45 1-1s-.45-1-1-1c-8.27 0-15 6.73-15 15 0 .55.45 1 1 1s1-.45 1-1c0-7.17 5.83-13 13-13zm0 2c-6.07 0-11 4.93-11 11 0 .55.45 1 1 1h8l-.82-1.31c-.43-.45-.68-1.04-.68-1.66v-.53l-.55-.5h-1.26c-.66 0-1.28-.27-1.73-.75l-.73-.78c1.46-2.5 4.1-4.23 7.15-4.44-.63.96-1.14 1.75-1.14 1.75l.85 1.42c.17.28.12.64-.11.88-.22.22-.55.27-.83.13l-1.06-.53-1.14 1.14 1.14 1.14h1.22c.45 0 .88.13 1.26.36l1.42 1.16v-8.5c0-.55-.45-1-1-1z"/></svg>