<svg id="Layer_1" viewBox="0 0 24 24" xmlns="http://www.w3.org/2000/svg" data-name="Layer 1"><path d="m12 24h-1c-.553 0-1-.447-1-1s.447-1 1-1h1c.553 0 1 .447 1 1s-.447 1-1 1zm6-1c0-.553-.447-1-1-1h-1c-.553 0-1 .447-1 1s.447 1 1 1h1c.553 0 1-.447 1-1zm6-6v-1c0-.553-.447-1-1-1s-1 .447-1 1v1c0 .553.447 1 1 1s1-.447 1-1zm-2.998 7h.498c1.379 0 2.5-1.122 2.5-2.5v-.5c0-.553-.447-1-1-1s-1 .447-1 1v.5c0 .275-.225.499-.502.499h-.5c-.553.002-.999.45-.998 1.003 0 .552.448.998 1 .998zm2.998-12v-.5c0-.668-.261-1.296-.732-1.768-.473-.471-1.099-.73-1.762-.73h-.503s-.002-.001-.003-.001c-.551 0-.998.446-1 .997-.002.552.444 1.001.997 1.003h.504c.343.052.448.156.499.5v.5c0 .552.447 1 1 1s1-.448 1-1zm-13.49.99c.655-.771.561-1.928-.21-2.583-.695-.59-1.718-.58-2.401.025l-2.952 2.437c-.421.347-1.041.299-1.403-.109-.383-.431-.329-1.094.118-1.458l1.314-1.071v-4.327l-2.925 2.56c-1.302 1.139-2.049 2.785-2.049 4.515v8.021c0 1.657 1.343 3 3 3h2c1.657 0 3-1.343 3-3v-4.453l2.51-3.556zm-3.51-8.99c0-2.209 1.791-4 4-4h3c2.209 0 4 1.791 4 4v7h-5.157c-.171-.797-.58-1.549-1.248-2.117-1.318-1.12-3.229-1.188-4.595-.268v-4.616zm5.744 9h5.256c0 2.209-1.791 4-4 4h-3.872l1.973-2.796c.296-.368.503-.778.642-1.204z"/></svg>