<svg id="Layer_1" viewBox="0 0 24 24" xmlns="http://www.w3.org/2000/svg" data-name="Layer 1"><path d="m10.707 22.293c.391.391.391 1.023 0 1.414s-1.023.391-1.414 0l-3.793-3.793-2.793 2.793c-.391.391-1.023.391-1.414 0s-.391-1.023 0-1.414l2.793-2.793-3.793-3.793c-.391-.391-.391-1.023 0-1.414s1.023-.391 1.414 0l1.731 1.731 5.098-5.074-5.036-5.036-1.793 1.793c-.391.391-1.023.391-1.414 0s-.391-1.023 0-1.414l5-5c.391-.391 1.023-.391 1.414 0s.391 1.023 0 1.414l-1.793 1.793 5.04 5.04 3.061-3.046c2.392-2.411 5.017-4.203 7.797-5.324.86-.347 1.842-.143 2.503.518.661.662.863 1.646.515 2.505-1.132 2.789-2.925 5.412-5.33 7.795l-9.572 9.525 1.78 1.78zm11.144-8.575-1.632-1.632c-.105.107-.204.217-.312.323l-3.05 3.035 2.85 2.85c.391.391.391 1.023 0 1.414s-1.023.391-1.414 0l-2.853-2.853-3.369 3.352 1.646 1.645c1.384 1.386 3.227 2.148 5.188 2.148h2.096c1.654 0 3-1.346 3-3v-2.096c0-1.963-.764-3.806-2.149-5.187z"/></svg>