<svg id="Layer_1" viewBox="0 0 24 24" xmlns="http://www.w3.org/2000/svg" data-name="Layer 1"><path d="m24 16v-7c0-2.757-2.243-5-5-5h-1.101c-.465-2.279-2.484-4-4.899-4h-2c-2.414 0-4.434 1.721-4.899 4h-1.101c-2.757 0-5 2.243-5 5v7zm-10-5h-1v1c0 .552-.448 1-1 1s-1-.448-1-1v-1h-1c-.552 0-1-.448-1-1s.448-1 1-1h1v-1c0-.552.448-1 1-1s1 .448 1 1v1h1c.552 0 1 .448 1 1s-.448 1-1 1zm-3-9h2c1.302 0 2.402.839 2.816 2h-7.631c.414-1.161 1.514-2 2.816-2zm13 16v1c0 2.757-2.243 5-5 5h-14c-2.757 0-5-2.243-5-5v-1h6v1c0 .552.448 1 1 1s1-.448 1-1v-1h8v1c0 .552.448 1 1 1s1-.448 1-1v-1z"/></svg>