<svg id="Layer_1" viewBox="0 0 24 24" xmlns="http://www.w3.org/2000/svg" data-name="Layer 1"><path d="m12.463 9h5.921c.303 1.267 1.08 4.571 1.585 6.7.22.929-.8 1.644-1.601 1.126-.447-.289-.919-.54-1.403-.768-.17-.679-.829-3.308-.857-3.426-.824 1.415-2.357 2.368-4.108 2.368-2.364 0-4.329-1.736-4.69-3.999h.69c1.615 0 3.484-.788 4.463-2zm-1.463-4h-1c-.552 0-1-.448-1-1s.448-1 1-1h1v-1c0-.552.448-1 1-1s1 .448 1 1v1h1c.552 0 1 .448 1 1s-.448 1-1 1h-1v2h5v-4c0-1.657-1.343-3-3-3h-6c-1.657 0-3 1.343-3 3v4h5zm7.358 13.683c-1.042-1.002-2.777-.881-3.729.232l-2.629 3.481-2.669-3.515c-.911-1.068-2.685-1.188-3.694-.198-1.018.951-2.137 2.317-2.606 4.096-.164.62.333 1.221.975 1.221h15.988c.641 0 1.139-.601.975-1.221-.469-1.779-1.598-3.147-2.611-4.096zm-12.727-1.857c.733-.474 1.525-.86 2.355-1.167-1.374-1.018-2.364-2.535-2.652-4.344l-.105-.658c-.315 1.321-.772 3.244-1.199 5.042-.22.929.8 1.644 1.601 1.126z"/></svg>