<svg id="Layer_1" viewBox="0 0 24 24" xmlns="http://www.w3.org/2000/svg" data-name="Layer 1"><path d="m2.002 12h4.999v11.997h-2.999c-2.209 0-3.999-1.79-3.999-3.999v-5.998c0-1.104.895-1.999 1.999-1.999zm2-6.998c1.378 0 2.499-1.121 2.499-2.499s-1.121-2.5-2.499-2.5-2.499 1.121-2.499 2.499 1.121 2.499 2.499 2.499zm0 1c-1.753 0-3.335 1.063-3.934 2.645-.258.627.257 1.373.935 1.354h5.998c.678.019 1.193-.727.935-1.354-.599-1.582-2.181-2.645-3.934-2.645zm15.996-1c1.38 0 2.499-1.119 2.499-2.499s-1.119-2.5-2.499-2.5-2.499 1.119-2.499 2.499 1.119 2.499 2.499 2.499zm-7.998 0c1.38 0 2.499-1.119 2.499-2.499s-1.119-2.5-2.499-2.5-2.499 1.119-2.499 2.499 1.119 2.499 2.499 2.499zm9.997 6.998h-4.999v11.997h2.999c2.209 0 3.999-1.79 3.999-3.999v-5.998c0-1.104-.895-1.999-1.999-1.999zm1-1.999c.678.019 1.193-.727.935-1.354-.599-1.582-2.181-2.645-3.934-2.645s-3.335 1.063-3.934 2.645c-.258.627.257 1.373.935 1.354zm-10.997-3.999c-1.753 0-3.335 1.063-3.934 2.645-.258.627.257 1.373.935 1.354h5.998c.678.019 1.193-.727.935-1.354-.599-1.582-2.181-2.645-3.934-2.645zm-2.999 17.995h5.998v-11.997h-5.998z"/></svg>