<svg id="Layer_1" viewBox="0 0 24 24" xmlns="http://www.w3.org/2000/svg" data-name="Layer 1"><path d="m9.5 2.5c0-1.381 1.119-2.5 2.5-2.5s2.5 1.119 2.5 2.5-1.119 2.5-2.5 2.5-2.5-1.119-2.5-2.5zm4 11.5c0-1.546 1.562-2.426 1.5-4 0-1.657-1.343-3-3-3s-3 1.343-3 3c-.062 1.574 1.5 2.454 1.5 4 0 1-1.16 1.188-1.5 1.242-2.208.35-4 1.037-4 1.758 0 1.036 3.686 2 7 2s6.5-.964 6.5-2c0-.709-1.494-1.383-3.5-1.739-.333-.059-1.5-.261-1.5-1.261zm3.179-2.254c-.04.1-.082.197-.126.292-.316.675-.01 1.492.7 1.719 2.268.725 3.747 1.907 3.747 3.243 0 2.209-4.029 4-9 4s-9-1.791-9-4c0-1.337 1.48-2.519 3.75-3.244.709-.227 1.015-1.041.702-1.716-.044-.094-.085-.191-.125-.291-.244-.622-.943-.943-1.572-.719-3.449 1.229-5.755 3.441-5.755 5.971 0 3.866 5.373 7 12 7s12-3.134 12-7c0-2.529-2.304-4.74-5.75-5.969-.628-.224-1.325.096-1.571.715z"/></svg>