<?xml version="1.0" encoding="UTF-8"?>
<svg xmlns="http://www.w3.org/2000/svg" id="Layer_1" data-name="Layer 1" viewBox="0 0 24 24">
  <path d="M2.5,2.5C2.5,1.119,3.619,0,5,0s2.5,1.119,2.5,2.5-1.119,2.5-2.5,2.5-2.5-1.119-2.5-2.5Zm15.128,15.933c.376,.375,.869,.563,1.363,.566,.003,0,.006,.002,.009,.002s.006-.002,.009-.002c.494-.002,.987-.191,1.363-.567l3.334-3.335c.391-.391,.391-1.023,0-1.414s-1.023-.391-1.414,0l-2.293,2.352V4c0-.553-.448-1-1-1s-1,.447-1,1V15.976l-2.293-2.293c-.391-.391-1.023-.391-1.414,0s-.391,1.023,0,1.414l3.335,3.336Zm6.372,4.567c0,.553-.448,1-1,1H1c-.552,0-1-.447-1-1s.448-1,1-1h1v-5.556c-1.19-.694-2-1.97-2-3.444v-3c0-2.206,1.794-4,4-4h2c2.206,0,4,1.794,4,4v3c0,1.474-.81,2.75-2,3.444v5.556h15c.552,0,1,.447,1,1Zm-20-1h2v-5h-2v5Z"/>
</svg>
