<svg id="Layer_1" viewBox="0 0 24 24" xmlns="http://www.w3.org/2000/svg" data-name="Layer 1"><path d="m3 18v5c0 .552-.448 1-1 1s-1-.448-1-1v-5c0-.552.448-1 1-1s1 .448 1 1zm19-10c.553 0 1-.448 1-1v-6c0-.552-.447-1-1-1s-1 .448-1 1v6c0 .552.447 1 1 1zm-15 6c-.552 0-1 .448-1 1v8c0 .552.448 1 1 1s1-.448 1-1v-8c0-.552-.448-1-1-1zm5-2.5c-.552 0-1 .448-1 1v10.5c0 .552.448 1 1 1s1-.448 1-1v-10.5c0-.552-.448-1-1-1zm5-2.5c.553 0 1-.448 1-1v-3c0-.552-.447-1-1-1s-1 .448-1 1v3c0 .552.447 1 1 1zm4.685 7.267-3.041-.507c-.373-.062-.644-.382-.644-.76 0-.551.448-1 1-1h2.268c.356 0 .688.192.867.5.275.479.885.642 1.366.365.478-.277.642-.888.364-1.366-.534-.925-1.53-1.499-2.597-1.499h-.268v-1c0-.552-.447-1-1-1s-1 .448-1 1v1c-1.654 0-3 1.346-3 3 0 1.36.974 2.51 2.315 2.733l3.041.507c.373.062.644.382.644.76 0 .551-.448 1-1 1h-2.268c-.356 0-.688-.192-.867-.5-.275-.479-.886-.643-1.366-.365-.478.277-.642.888-.364 1.366.534.925 1.53 1.499 2.598 1.499h.268v1c0 .552.447 1 1 1s1-.448 1-1v-1c1.654 0 3-1.346 3-3 0-1.36-.974-2.51-2.315-2.733zm-11.136-9.267h-1.68c-.325 0-.63.155-.815.422-.451.651-1.202 1.078-2.053 1.078-.322 0-.627-.066-.909-.177l-1.602 1.602c-.518.518-.334 1.401.348 1.667.671.262 1.401.407 2.164.407 2.444 0 4.546-1.47 5.479-3.571.298-.67-.197-1.429-.931-1.429zm-2.49-2.413c.182.264.489.413.809.413h1.679c.737 0 1.228-.764.927-1.437-.602-1.349-1.688-2.435-3.037-3.037-.673-.301-1.438.19-1.438.927v1.679c0 .321.149.628.413.809.253.174.472.393.646.646zm-5.985 3.925 1.602-1.602c-.111-.282-.177-.588-.177-.909 0-.852.427-1.603 1.078-2.053.267-.185.422-.491.422-.815v-1.682c0-.734-.759-1.228-1.429-.931-2.1.934-3.57 3.036-3.57 5.48 0 .763.145 1.493.407 2.164.266.682 1.15.866 1.667.348z"/></svg>