<svg id="Layer_1" viewBox="0 0 24 24" xmlns="http://www.w3.org/2000/svg" data-name="Layer 1"><path d="m17.31 15.138c-.063.506-.494.875-.991.875-.597.005-1.073-.533-.994-1.125.132-.972.095-2.947-1.316-5.002l-.009-.003c-.679-.987-2.713-1.586-3.727-2.02-.385-.165-.378-.711.009-.871.727-.301 2.105-.71 2.958-.66-1.663-2.411-1.197-4.91-.934-6.033.086-.364.585-.41.74-.069.417.92 1.454 3.115 2.518 4.535.436-1.767 1.095-3.013 1.716-3.639.278-.281.717-.067.719.328.002.544.002 2.698.002 3.756.481-.481.75-.654 1.444-1.147.164-.117.394-.072.508.094s.002.33-.094.508c-.141.263-.48.926-.724 2.094l.396.575c.462.672.556 1.506.325 2.237l1.969 2.861c.313.455.198 1.078-.257 1.391-.45.311-1.076.201-1.391-.257l-1.701-2.471s-.736-1.041-1.828-.518c.801 1.91.783 3.6.662 4.56zm-5.286-4.357c0-.035-.002-.02-.004-.002-.82-.452-1.774-.752-2.534-1.076-.915-.391-1.503-1.288-1.498-2.284.006-.999.606-1.892 1.53-2.273.222-.092.511-.199.842-.306-.246-.893-.331-1.839-.29-2.826-1.837.043-3.325.716-4.311 1.472l-3.001-1.453c-.45-.165-.868.309-.649.735l1.755 3.055c-.142.278-.262.55-.353.841l-2.915-.603c-.515-.015-.791.601-.437.976l2.841 3.006v.565l-2.66.482c-.374.102-.462.594-.147.819l2.786 1.864c-.017.368-.044.784-.088 1.239l-2.551.463c-.374.102-.462.594-.147.82l2.265 1.516c-.393 1.792-1.044 3.545-2.098 4.423-.717.558-.267 1.798.64 1.768h13c.551.011 1.032-.488 1-1.038-.143-3.736-1.044-5.741-1.839-7.51-.648-1.442-1.314-2.798-1.136-4.67zm11.932 7.923c-.417-1.829-2.289-3.007-4.182-2.631s-3.151 2.178-2.673 3.992c.633 2.4 2.74 2.652 4.308 3.799.393.287.987.099 1.076-.38.26-1.406-1.89-2.714-1.367-3.76.17-.34.589-.481.936-.315.466.223.815.516 1.065.786.362.391.741.143.802-.188.091-.497.104-1.003.035-1.303z"/></svg>