<svg id="Layer_1" viewBox="0 0 24 24" xmlns="http://www.w3.org/2000/svg" data-name="Layer 1"><path d="m18.009 11.996c-3.314 0-6 2.686-6 6-.033 3.306 2.749 5.989 5.941 6.004.589.003 1.059-.501 1.059-1.089v-2.372c0-.808.621-1.503 1.427-1.541.663-.031 1.237.368 1.466.942.132.33.438.556.793.556h.034c.337 0 .646-.2.776-.511.282-.672.455-1.401.493-2.166-.094-3.231-2.737-5.823-5.991-5.823zm-2 9.5c-.828 0-1.5-.672-1.5-1.5s.672-1.5 1.5-1.5 1.5.672 1.5 1.5-.672 1.5-1.5 1.5zm0-4c-.828 0-1.5-.672-1.5-1.5s.672-1.5 1.5-1.5 1.5.672 1.5 1.5-.672 1.5-1.5 1.5zm4 0c-.828 0-1.5-.672-1.5-1.5s.672-1.5 1.5-1.5 1.5.672 1.5 1.5-.672 1.5-1.5 1.5zm-7.264 6.504h-11.745c-.3 0-.584-.135-.774-.367s-.265-.538-.206-.832c.8-3.94 4.366-6.801 8.48-6.801.177 0 .353.006.527.017l1.239-.01c-.162.632-.258 1.289-.258 1.969-.021 2.101.794 4.096 2.295 5.619.141.143.291.274.441.405zm-11.126-19.851c-.241-.835-.083-1.621.407-2.235.488-.611 1.231-.943 1.975-.9l3.5.267v-.281c0-.552.448-1 1-1s1 .448 1 1v.434l4.297.328c.558.031 1.074.325 1.396.804.325.482.396 1.072.198 1.661l-.253.773h-13.199zm12.992 2.851c.036.27.075.539.075.814 0 3.411-2.775 6.186-6.186 6.186s-6.186-2.775-6.186-6.186c0-.275.029-.546.07-.814z"/></svg>