<svg id="Layer_1" viewBox="0 0 24 24" xmlns="http://www.w3.org/2000/svg" data-name="Layer 1"><path d="m5.995 13.99h12.012v7.007c0 1.658-1.344 3.003-3.003 3.003h-2.002v-7.007c0-.553-.448-1.001-1.001-1.001-.553 0-1.001.448-1.001 1.001v7.007h-2.002c-1.658 0-3.003-1.344-3.003-3.003v-7.007zm10.382-13.99c-.139.683-.517 2.149-.841 2.885-.261.592-1.007.781-1.522.389l-1.013-1.295v6.006c0 .553-.448 1-1 1-.553 0-1-.448-1-1v-6.007l-1.013 1.295c-.515.392-1.261.203-1.522-.389-.324-.736-.702-2.202-.841-2.885-3.429.048-6.706 2.859-6.635 6.484v6.506c0 1.658 1.344 3.003 3.003 3.003v-8.008c0-.553.448-1.001 1.001-1.001.553 0 1.001.448 1.001 1.001v4.004h12.011v-4.004c0-.553.448-1 1-1h.001c.553 0 1 .448 1 1v8.008c1.658 0 3.003-1.344 3.003-3.003v-6.506c.071-3.625-3.206-6.436-6.633-6.483z"/></svg>