<svg id="Layer_1" viewBox="0 0 24 24" xmlns="http://www.w3.org/2000/svg" data-name="Layer 1"><path d="m23.987 11.346c.087.545-.284 1.058-.83 1.145-.591.099-1.742.229-1.957.569-.427.729-.933 1.471-1.738 1.956-.814.49-1.926.76-2.824.694-.328-.024-.575.048-.768.489-.391.925-1.136 1.726-2.092 2.244-.534.33-1.146.496-1.766.496-.632 0-1.271-.173-1.839-.524-.908-.491-1.653-1.291-2.049-2.225-.187-.432-.434-.507-.764-.481-.903.067-2.01-.204-2.824-.694-.806-.486-1.312-1.227-1.738-1.956-.216-.34-1.366-.47-1.958-.569-.545-.087-.917-.6-.83-1.145.087-.546.604-.92 1.145-.829 1.186.191 2.66.339 3.369 1.534.338.578.645 1.012 1.043 1.253.451.272 1.161.447 1.64.412 1.237-.096 2.246.52 2.753 1.686.224.527.653.98 1.212 1.284.519.318 1.129.318 1.602.027.607-.331 1.037-.784 1.256-1.302.511-1.174 1.513-1.784 2.757-1.695.481.033 1.188-.14 1.64-.412.398-.24.705-.675 1.043-1.253.708-1.195 2.183-1.343 3.369-1.534.538-.091 1.058.283 1.145.829zm-1.146 4.238c-1.185.191-2.659.339-3.368 1.534-.338.578-.645 1.012-1.044 1.253-.45.272-1.163.445-1.64.413-1.249-.094-2.246.52-2.757 1.694-.22.519-.648.971-1.256 1.302-.473.291-1.083.29-1.602-.027-.56-.304-.989-.757-1.212-1.284-.507-1.165-1.507-1.783-2.752-1.685-.48.031-1.189-.141-1.64-.413-.399-.241-.706-.675-1.044-1.253-.709-1.195-2.183-1.343-3.368-1.534-.545-.088-1.058.285-1.146.829-.087.545.284 1.058.829 1.145.591.099 1.742.23 1.958.569.426.729.931 1.47 1.737 1.956.812.49 1.916.76 2.824.694.33-.026.576.048.764.48.396.934 1.14 1.734 2.049 2.225.569.35 1.208.524 1.839.524.619 0 1.231-.167 1.765-.497.957-.518 1.702-1.318 2.093-2.244.192-.441.439-.509.768-.489.904.071 2.011-.204 2.824-.694.806-.486 1.312-1.228 1.737-1.956.216-.338 1.367-.47 1.958-.569.545-.087.916-.6.829-1.145-.087-.544-.597-.916-1.146-.829zm-10.719-9.612c-.023.026.784.018.733-.006 1.264-.116 3.79-.846 4.138-3.898.076-.667-.515-1.199-1.169-1.048-1.933.448-2.88 1.993-3.313 3.186-.483-1.557-1.657-3.712-4.429-4.185-.579-.099-1.118.387-1.08.974.269 4.101 3.617 4.871 5.121 4.977zm-10.509 1.714c.854.152 1.117.326 1.187.445.426.729.931 1.47 1.737 1.956.813.49 1.93.768 2.823.694.335-.023.577.048.765.481.396.934 1.14 1.734 2.049 2.225.569.35 1.207.524 1.839.524.619 0 1.231-.166 1.766-.496.956-.518 1.701-1.318 2.093-2.244.192-.441.437-.512.768-.49.903.065 2.011-.204 2.824-.694.807-.487 1.312-1.228 1.737-1.956.07-.119.332-.293 1.187-.445.935-.167 1.613-.976 1.613-1.924 0-.753-.44-1.447-1.122-1.768-.001 0-.003-.002-.005-.002l-3.893-1.808c-.312 3.748-3.327 5.489-5.772 5.756-.377.077-.972.111-1.416.011-2.88-.265-5.965-1.938-6.659-5.82l-4.012 1.863c-.682.321-1.122 1.015-1.122 1.768 0 .948.678 1.757 1.613 1.924z"/></svg>