<svg id="Layer_1" viewBox="0 0 24 24" xmlns="http://www.w3.org/2000/svg" data-name="Layer 1"><path d="m21 1c0 .552-.447 1-1 1h-5.196c-1.864 1.536-3.764 2.037-5.472 1.998-3.077-.121-5.25-1.666-6.102-2.606-.497-.535-.122-1.388.507-1.392h16.263c.553 0 1 .448 1 1zm2 13h-22c-.553 0-1 .448-1 1s.447 1 1 1h7.9c-3.671 0-6.871 2.498-7.761 6.06-.246.986.499 1.94 1.515 1.94h12.744c1.231 0 2.419-.454 3.336-1.276l3.578-3.205c.824-.732.905-1.991.182-2.822-.729-.838-2-.927-2.838-.197l-3.333 2.934c-.524 1.236-1.659 2.172-3.05 2.371l-3.808.544c-.547.078-1.054-.302-1.132-.849s.302-1.054.849-1.132l3.808-.544c1.091-.155 1.87-1.23 1.595-2.364-.215-.883-1.074-1.459-1.982-1.461h10.397c.553 0 1-.448 1-1s-.447-1-1-1zm-19-5h8.627c.445 1.723 2.013 3 3.873 3h3.5c.553 0 1-.448 1-1s-.447-1-1-1h-3.5c-.739 0-1.385-.403-1.731-1h5.231c.553 0 1-.448 1-1s-.447-1-1-1h-5.231c.346-.597.992-1 1.731-1h3.5c.553 0 1-.448 1-1s-.447-1-1-1h-3.5c-1.861 0-3.428 1.277-3.873 3h-8.627c-.553 0-1 .448-1 1s.447 1 1 1z"/></svg>