<svg id="Layer_1" viewBox="0 0 24 24" xmlns="http://www.w3.org/2000/svg" data-name="Layer 1"><path d="m24 7.5v14c0 1.381-1.119 2.5-2.5 2.5s-2.5-1.119-2.5-2.5v-14c0-1.381 1.119-2.5 2.5-2.5s2.5 1.119 2.5 2.5zm-13 11c0 3.038-2.462 5.5-5.5 5.5s-5.5-2.462-5.5-5.5c0-2.645 1.867-4.852 4.355-5.379-.08-.295-.18-.562-.273-.775-.22-.507.013-1.096.519-1.316.508-.219 1.096.012 1.316.519.063.145.113.288.165.431.011-.011.018-.025.029-.036.615-.615 1.502-.865 2.121-.939.446-.054.816.316.762.762-.068.564-.296 1.342-.799 1.942 1.672.943 2.804 2.734 2.804 4.791zm-5-1c0-.552-.448-1-1-1s-1 .448-1 1 .448 1 1 1 1-.448 1-1zm2 2.5c0-.552-.448-1-1-1s-1 .448-1 1 .448 1 1 1 1-.448 1-1zm1-3c0-.552-.448-1-1-1s-1 .448-1 1 .448 1 1 1 1-.448 1-1zm8.762-12h-2.129l.266-2.125c.062-.499.489-.875.992-.875h3.108c.553 0 1-.448 1-1s-.447-1-1-1h-3.108c-1.51 0-2.79 1.129-2.977 2.627l-.297 2.373h-3.618c-2.258-.004-4.076 1.888-4 4.141.182.065.362.138.528.236.571-.214 1.099-.314 1.466-.358.828-.102 1.635.18 2.221.765.585.586.864 1.396.765 2.222-.036.295-.107.694-.244 1.134 1.394 1.363 2.264 3.26 2.264 5.36 0 2.174-.935 4.129-2.418 5.5h7.18c-.48-.716-.762-1.575-.762-2.5v-14c0-.925.282-1.784.762-2.5z"/></svg>