<svg id="Layer_1" viewBox="0 0 24 24" xmlns="http://www.w3.org/2000/svg" data-name="Layer 1"><path d="m0 7.5c0-.552.447-1 1-1h1.601c.13-.638.383-1.23.731-1.754l-1.321-1.321c-.391-.391-.391-1.023 0-1.414s1.023-.391 1.414 0l1.321 1.321c.525-.347 1.116-.601 1.754-.731v-1.601c0-.552.447-1 1-1s1 .448 1 1v1.607c.637.13 1.222.387 1.744.736l1.331-1.331c.391-.391 1.023-.391 1.414 0s.391 1.023 0 1.414l-1.345 1.345c.41.629.7 1.344.795 2.126-.292.227-.581.455-.865.679-2.112 1.77-4.04 3.048-6.335 3.6l-1.814 1.814c-.195.195-.451.293-.707.293s-.512-.098-.707-.293c-.391-.391-.391-1.023 0-1.414l1.333-1.333c-.35-.52-.603-1.108-.735-1.742h-1.609c-.553-.001-1-.449-1-1.001zm23.998 12.684c-.314-.112-.648-.184-1-.184h-4.499c-1.739 0-3.942-1.74-6.076-3.427-1.732-1.369-3.613-2.851-5.692-3.746 2.035-.5 4.087-2.105 6.083-3.682 2.579-2.038 5.244-4.145 8.184-4.145.751 0 1.535.141 2.33.418.435.152.701.643.67 1.082zm-6.999-7.684c0-.828-.671-1.5-1.5-1.5s-1.5.672-1.5 1.5.671 1.5 1.5 1.5 1.5-.672 1.5-1.5zm3.999-3c0-.828-.671-1.5-1.5-1.5s-1.5.672-1.5 1.5.671 1.5 1.5 1.5 1.5-.672 1.5-1.5zm3.002 13.5c0 .552-.447 1-1 1h-20c-1.654 0-3-1.5-3-3v-5.638c0-.362.269-.804.67-.944.795-.277 1.579-.418 2.33-.418 2.94 0 5.606 2.107 8.186 4.145 2.399 1.896 4.88 3.855 7.314 3.855h4.5c.553 0 1 .448 1 1zm-19-5.5c0-.828-.672-1.5-1.5-1.5s-1.5.672-1.5 1.5.672 1.5 1.5 1.5 1.5-.672 1.5-1.5zm4 3c0-.828-.672-1.5-1.5-1.5s-1.5.672-1.5 1.5.672 1.5 1.5 1.5 1.5-.672 1.5-1.5z"/></svg>