<svg id="Layer_1" viewBox="0 0 24 24" xmlns="http://www.w3.org/2000/svg" data-name="Layer 1"><path d="m17.5 11c-3.59 0-6.5 2.91-6.5 6.5s2.91 6.5 6.5 6.5 6.5-2.91 6.5-6.5-2.91-6.5-6.5-6.5zm3.191 9.653c-.812.83-1.939 1.347-3.191 1.347-1.228 0-2.327-.507-3.133-1.311l-.695.695c-.248.248-.672.072-.672-.278v-2.526c0-.32.259-.579.579-.579h2.526c.351 0 .526.424.278.672l-.607.607c.449.438 1.048.721 1.723.721s1.289-.275 1.738-.716c.171-.168.473-.284.774-.284.862 0 1.281 1.037.679 1.653zm1.309-4.232c0 .32-.259.579-.579.579h-2.526c-.351 0-.526-.424-.278-.672l.607-.607c-.449-.438-1.048-.721-1.723-.721s-1.289.275-1.738.716c-.171.168-.438.284-.774.284-.862 0-1.281-1.037-.679-1.653.812-.83 1.939-1.347 3.191-1.347 1.228 0 2.327.506 3.133 1.311l.695-.695c.248-.248.672-.072.672.278v2.526zm-15-10.421v-6h7v6zm2.76 15h-4.76c-2.76 0-5-2.24-5-5v-11c0-2.76 2.24-5 5-5v6c0 1.1.9 2 2 2h7c1.1 0 2-.9 2-2v-5.72c.33.15.64.35.89.61l3.24 3.27c.56.56.87 1.31.87 2.11v3.49c-1.068-.484-2.251-.76-3.5-.76-1.881 0-3.613.618-5.021 1.652-.566-.397-1.24-.652-1.979-.652-1.93 0-3.5 1.57-3.5 3.5 0 1.401.842 2.594 2.043 3.15-.028.28-.043.563-.043.85 0 1.249.276 2.432.76 3.5zm1.2-8.928c-.623.75-1.111 1.612-1.449 2.547-.317-.275-.521-.676-.521-1.129 0-.83.67-1.5 1.5-1.5.165 0 .321.032.47.082z"/></svg>