<svg id="Layer_1" viewBox="0 0 24 24" xmlns="http://www.w3.org/2000/svg" data-name="Layer 1"><path d="m8.095 1.873c.062-.043 2.675-1.549 2.675-1.549h.002c.754-.426 1.715-.42 2.46 0 0 0 2.621 1.507 2.684 1.55l-3.909 2.235zm2.905 3.966-3.95-2.26c-.015.112-.045.22-.045.335v2.905c0 .894.482 1.726 1.259 2.171 0 0 2.657 1.493 2.732 1.527l.004-4.677zm2.005.003-.004 4.689c.076-.033 2.718-1.473 2.718-1.473.793-.44 1.281-1.278 1.281-2.186v-2.957c0-.114-.024-.222-.039-.334zm3.995 4.765v1.391c0 2.923-2.51 5.261-5.492 4.976-2.599-.248-4.508-2.581-4.508-5.192v-1.237c-1.185-.799-1.925-2.114-1.983-3.545h-5.017v5c0 6.627 5.373 12 12 12s12-5.373 12-12v-5h-5.003c-.041 1.461-.79 2.8-1.997 3.607zm-11.995-5.609h-5.005v-2.5c0-1.381 1.119-2.498 2.5-2.498h2c.707 0 1.342.294 1.797.765-.813.83-1.291 1.957-1.291 3.149v1.084zm18.995-2.5v2.5h-4.995v-1.083c0-1.195-.48-2.323-1.298-3.155.454-.468 1.088-.76 1.792-.76h2c1.381 0 2.5 1.117 2.5 2.498z"/></svg>