<?xml version="1.0" encoding="UTF-8"?>
<svg xmlns="http://www.w3.org/2000/svg" id="Layer_1" data-name="Layer 1" viewBox="0 0 24 24">
  <path d="M23.201,2.021c-.468-.097-.934,.149-1.12,.586-1.059,2.278-3.288,4.733-4.685,5.38-.743-.742-2.239-1.987-3.896-1.987h-3c-1.656,0-3.152,1.245-3.896,1.986-1.396-.645-3.625-3.102-4.685-5.38-.388-.982-1.951-.664-1.919,.394v6.834c0,3.842,3.267,9.394,9.51,12.571,1.582,.805,3.398,.805,4.98,0,6.243-3.177,9.51-8.729,9.51-12.571V3c0-.475-.334-.884-.799-.979ZM14.804,11.769c-.74,.187-2.098,.231-2.804,.231-.681,0-2.053-.049-2.78-.225-.55-.133-.872-.735-.648-1.254,.37-.857,1.186-1.521,2.122-1.521h2.645c.939,0,1.744,.673,2.095,1.537,.207,.51-.097,1.098-.631,1.233Z"/>
</svg>
