<svg id="Layer_1" viewBox="0 0 24 24" xmlns="http://www.w3.org/2000/svg" data-name="Layer 1"><path d="m22.087 13.8c-.379-.504-.972-.8-1.603-.8h-1.61l1.128 3h-4.008l1.128-3h-1.608c-.631 0-1.225.296-1.603.8l-1.561 2.077c-.493.656-.463 1.565.071 2.188l5.577 5.935-2.064-6h4.129l-2.064 6 5.579-5.935c.535-.622.564-1.532.071-2.188l-1.561-2.077zm-20.721-9.392c.339-.361.728-.679 1.17-.929l4.997-2.83c1.52-.86 3.404-.861 4.924-.002l4.758 2.688c.524.296.98.677 1.371 1.109l-8.578 4.903zm7.638 17.48c-.512-.105-1.009-.28-1.467-.539l-5.005-2.839c-1.562-.886-2.533-2.553-2.533-4.349v-6.331c0-.596.116-1.174.316-1.718l8.688 4.966v10.811zm2-7.55v-3.257s8.629-4.932 8.629-4.932c.196.511.327 1.051.364 1.613v3.237s-4.484 0-4.484 0c-1.254 0-2.451.598-3.201 1.598l-1.308 1.74zm1.656 6.901-.193.109c-.456.259-.951.433-1.462.538v-2.41s1.655 1.762 1.655 1.762z"/></svg>