<svg id="Layer_1" viewBox="0 0 24 24" xmlns="http://www.w3.org/2000/svg" data-name="Layer 1"><path d="m21.962 1.5c-1.017 0-1.881.758-2.011 1.762-.435 3.321-3.622 5.722-7.951 6.16v-.922c0-.553-.447-1-1-1s-1 .447-1 1v1h-2v-1c0-.553-.447-1-1-1s-1 .447-1 1v1h-2.505c-1.88-.039-3.534 1.623-3.495 3.503 0 1.929 1.569 3.497 3.498 3.497h2.503v3h-2.938l-1.816-.937c-.597-.239-1.247.201-1.247.844v2.183c0 .643.65 1.083 1.247.844l1.813-.934h11.44c1.93 0 3.5-1.57 3.5-3.5s-1.57-3.5-3.5-3.5h-2.5v-2.921c4.329.438 7.516 2.84 7.951 6.159.13 1.005.994 1.763 2.011 1.763 1.124 0 2.038-.914 2.038-2.038v-13.925c0-1.124-.914-2.038-2.038-2.038zm-18.464 13c-.825 0-1.497-.672-1.497-1.497-.016-.806.689-1.519 1.497-1.503h2.503v3zm4.503 5v-3h2v3zm6.5-3c.827 0 1.5.673 1.5 1.5s-.673 1.5-1.5 1.5h-2.5v-3zm-6.5-2v-3h2v3z"/></svg>