<svg id="Layer_1" viewBox="0 0 24 24" xmlns="http://www.w3.org/2000/svg" data-name="Layer 1"><path d="m22.849 15.594-2.5-1.957c-1.089-.852-2.608-.852-3.697 0l-2.5 1.957c-.731.572-1.151 1.434-1.151 2.363v3.043c0 1.654 1.346 3 3 3h5c1.654 0 3-1.346 3-3v-3.043c0-.929-.42-1.791-1.151-2.363zm-2.849 3.906c0 .552-.448 1-1 1h-1c-.552 0-1-.448-1-1v-1c0-.552.448-1 1-1h1c.552 0 1 .448 1 1zm-7.974 4.5h-9.383c-1.308 0-2.499-.941-2.63-2.242-.15-1.496 1.021-2.758 2.487-2.758h1c1.933 0 3.5-1.567 3.5-3.5v-11.5h12c2.761 0 5 2.239 5 5v4.955l-2.419-1.893c-.185-.145-.382-.265-.581-.38v-1.682c0-1.105-.895-2-2-2h-3c-.552 0-1 .448-1 1s.448 1 1 1h3v1.039c-1.249-.126-2.534.205-3.581 1.023l-2.5 1.957c-.353.276-.657.597-.919.945v-5.964c0-.552-.448-1-1-1s-1 .448-1 1v8c0 .739.405 1.377 1 1.723v2.277c0 1.13.391 2.162 1.026 3zm-9.526-7c-.925 0-1.784.282-2.5.762v-14.262c0-1.933 1.567-3.5 3.5-3.5.828 0 1.5.672 1.5 1.5v14c0 .828-.672 1.5-1.5 1.5z"/></svg>