<svg id="Layer_1" viewBox="0 0 24 24" xmlns="http://www.w3.org/2000/svg" data-name="Layer 1"><path d="m22 16c1.103 0 2-.897 2-2v-1c0-.553-.448-1-1-1s-1 .447-1 1v1h-1.508c-.086-.225-.163-.413-.218-.525-.435-.924-1.285-1.475-2.274-1.475-.882 0-1.69.482-2.167 1.3-.117.205-.223.445-.323.7h-1.511v-1c0-.553-.448-1-1-1s-1 .447-1 1v1c0 1.103.897 2 2 2h.89c-.087.314-.176.653-.264 1h-1.626c-.552 0-1 .447-1 1s.448 1 1 1h1.195c-.062.38-.101.721-.108 1h-.087c-1.103 0-2 .897-2 2v1c0 .553.448 1 1 1s1-.447 1-1v-1h.606c.673 1.188 1.934 2 3.394 2s2.72-.812 3.394-2h.606v1c0 .553.448 1 1 1s1-.447 1-1v-1c0-1.103-.897-2-2-2h-.087c-.006-.282-.044-.622-.106-1h1.193c.552 0 1-.447 1-1s-.448-1-1-1h-1.623c-.088-.347-.178-.687-.264-1zm-12 7v-1c0-.794.233-1.535.633-2.158-.396-.509-.633-1.148-.633-1.842s.237-1.333.633-1.842c-.4-.623-.633-1.364-.633-2.158v-1c0-1.654 1.346-3 3-3 .88 0 1.673.381 2.222.986.784-.634 1.751-.986 2.778-.986.714 0 1.391.176 2 .482v-5.482c0-2.757-2.243-5-5-5h-10c-2.757 0-5 2.243-5 5v14c0 2.757 2.243 5 5 5h5.184c-.112-.314-.184-.648-.184-1zm2-18h3c.552 0 1 .447 1 1s-.448 1-1 1h-3c-.552 0-1-.447-1-1s.448-1 1-1zm-8.707.207c-.391-.391-.391-1.023 0-1.414s1.023-.391 1.414 0l.793.793.793-.793c.391-.391 1.023-.391 1.414 0s.391 1.023 0 1.414l-.793.793.793.793c.391.391.391 1.023 0 1.414s-1.023.391-1.414 0l-.793-.793-.793.793c-.391.391-1.023.391-1.414 0s-.391-1.023 0-1.414l.793-.793zm5.195 7.986-2.222 2.306c-.459.474-1.22.471-1.675-.007l-1.302-1.318c-.381-.386-.385-1.005-.009-1.395l.006-.007c.387-.403 1.029-.409 1.425-.015l.726.723 1.612-1.673c.391-.406 1.04-.408 1.434-.005.378.386.38 1.003.005 1.392z"/></svg>