<svg id="Layer_1" viewBox="0 0 24 24" xmlns="http://www.w3.org/2000/svg" data-name="Layer 1"><path d="m15.83 24h-10.83c-2.757 0-5-2.243-5-5v-10.861c0-1.282.735-2.383 1.919-2.874 1.184-.492 2.483-.234 3.39.671l12.737 12.705c.917.914 1.178 2.225.684 3.421-.494 1.195-1.605 1.938-2.899 1.938zm4.835-9h-2.177c-.687 0-1.356-.282-1.835-.773l-.925-.947c-.47-.482-.729-1.118-.729-1.791v-.603c0-.672.259-1.308.729-1.79s1.292-1.324 1.292-1.324c.479-.491 1.147-.772 1.834-.772h1.389c.823 0 1.601.399 2.082 1.067l1.192 1.66c.614.855.646 1.981.083 2.87l-.771 1.214c-.473.745-1.282 1.189-2.164 1.189zm-9.005-8h-1.462c-.629 0-1.243-.258-1.683-.708l-.744-.763c-.431-.442-.668-1.025-.668-1.642v-.462c0-.617.237-1.2.668-1.642l1.048-1.074c.44-.451 1.054-.709 1.683-.709h.807c.755 0 1.469.366 1.91.979l.96 1.336c.564.784.593 1.817.076 2.633l-.611.961c-.433.683-1.175 1.091-1.985 1.091zm5.34-4.987v.225c0 .329.129.644.358.88l.491.503c.237.243.562.38.901.38h.997c.431 0 .832-.22 1.063-.584l.371-.585c.276-.434.26-.992-.04-1.41l-.644-.896c-.237-.329-.617-.524-1.023-.524h-.48c-.339 0-.664.137-.901.38l-.735.753c-.23.235-.358.551-.358.88z"/></svg>