<svg id="Layer_1" viewBox="0 0 24 24" xmlns="http://www.w3.org/2000/svg" data-name="Layer 1"><path d="m23.268 22.036c-1.053-.292-1.565-.827-1.617-.882-.582-.582-.98-1.367-1.123-2.212-.275-1.626-1.504-2.854-3.131-3.13-.844-.143-1.629-.541-2.211-1.123s-.98-1.367-1.123-2.211c-.256-1.514-1.393-2.677-3.042-3.112-1.041-.274-1.42-.666-1.993-1.259.611-.779.955-1.654.972-2.573.022-1.205-.505-2.38-1.524-3.398-1.96-1.96-5.939-2.953-7.616-1.276s-.683 5.656 1.277 7.616c.999.999 2.147 1.524 3.326 1.524.719.001 1.409-.211 2.052-.578.716.735 1.353 1.44 2.995 1.878.417.11 1.406.477 1.58 1.511.211 1.25.808 2.419 1.681 3.292s2.043 1.471 3.292 1.682c.775.131 1.36.716 1.491 1.49.211 1.25.809 2.42 1.643 3.251.088.1.914.986 2.535 1.438.518.147 1.085-.159 1.231-.696.147-.532-.164-1.083-.696-1.231zm-11.079-.019c-.242-.046-.619-.328-.796-.501-.332-.332-.559-.781-.641-1.265-.205-1.214-1.122-2.131-2.337-2.337-.414-.07-.811-.26-1.124-.522.443-.604.696-1.29.708-1.987.012-.679-.189-1.703-1.216-2.73-.759-.759-1.853-1.33-3.001-1.565-1.295-.266-2.412-.044-3.064.608-1.375 1.375-.623 4.485.958 6.065.999.999 1.995 1.217 2.673 1.217h.058c.453-.008.903-.117 1.329-.312 0 0 0 .001.002.002.624.624 1.457 1.05 2.346 1.199.368.062.636.329.698.697.15.89.576 1.724 1.199 2.346.144.145.911.874 1.833 1.052.529.104 1.069-.248 1.17-.794.104-.542-.251-1.066-.793-1.171zm.487-15.234c.811.811 1.753 1.217 2.686 1.217.706 0 1.403-.243 2.034-.711.254.31.447.68.516 1.092.206 1.213 1.122 2.13 2.337 2.335.484.082.934.31 1.248.624.236.25.49.639.512.784.066.55.579.938 1.116.868.549-.069.937-.569.868-1.117-.112-.897-.894-1.753-1.064-1.932-.624-.623-1.457-1.048-2.347-1.198-.368-.062-.636-.33-.697-.696-.148-.885-.571-1.713-1.188-2.334.601-1.324.298-2.828-.913-4.039-1.581-1.58-4.69-2.333-6.066-.958-.652.652-.874 1.769-.608 3.064.235 1.148.806 2.242 1.565 3.001z"/></svg>