<svg id="Layer_1" viewBox="0 0 24 24" xmlns="http://www.w3.org/2000/svg" data-name="Layer 1"><path d="m22 18h-2c-1.103 0-2 .897-2 2h-1c-.552 0-1-.449-1-1s-.447-1-1-1-1 .448-1 1c0 1.654 1.346 3 3 3h1c0 1.103.897 2 2 2h2c1.103 0 2-.897 2-2v-2c0-1.103-.897-2-2-2zm-20-12h2c1.103 0 2-.897 2-2h1c.551 0 1 .449 1 1s.448 1 1 1 1-.448 1-1c0-1.654-1.346-3-3-3h-1c0-1.103-.897-2-2-2h-2c-1.103 0-2 .897-2 2v2c0 1.103.897 2 2 2zm20-6h-2c-1.103 0-2 .897-2 2h-1c-1.654 0-3 1.346-3 3 0 .552.447 1 1 1s1-.448 1-1 .448-1 1-1h1c0 1.103.897 2 2 2h2c1.103 0 2-.897 2-2v-2c0-1.103-.897-2-2-2zm-13 18c-.552 0-1 .448-1 1s-.449 1-1 1h-1c0-1.103-.897-2-2-2h-2c-1.103 0-2 .897-2 2v2c0 1.103.897 2 2 2h2c1.103 0 2-.897 2-2h1c1.654 0 3-1.346 3-3 0-.552-.448-1-1-1zm6.714-2.441c-.044.019-2.774 1.564-2.718 1.473l.004-4.689 3.956-2.261c.015.111.04.219.04.333v2.958c0 .908-.488 1.745-1.281 2.186zm.197-7.184-3.909 2.234-3.912-2.235c.062-.043 2.674-1.549 2.674-1.549.374-.211.799-.325 1.229-.325.502 0 .854.11 1.231.322 0 0 2.624 1.51 2.687 1.553zm-8.866 1.705 3.95 2.26-.004 4.677c-.052.031-2.628-1.474-2.732-1.527-.777-.445-1.26-1.276-1.26-2.17v-2.906c0-.114.03-.223.045-.334z"/></svg>