<svg id="Layer_1" viewBox="0 0 24 24" xmlns="http://www.w3.org/2000/svg" data-name="Layer 1"><path d="m12 6h-12c0-3.309 2.691-6 6-6s6 2.691 6 6zm-6 8c3.309 0 6-2.691 6-6h-12c0 3.309 2.691 6 6 6zm18 0v4.999c0 1.657-1.343 3-3 3h-4.872l-2.454 1.69c-.186.119-.387.173-.583.173-.565 0-1.089-.45-1.089-1.088l-.002-8.772c0-1.65 1.349-3 2.999-3.002h6c1.657 0 3.001 1.343 3.001 3zm-5 6c0-.552-.448-1-1-1s-1 .448-1 1 .448 1 1 1 1-.448 1-1zm2-5c0-1.654-1.346-3-3-3s-3 1.346-3 3c0 .552.448 1 1 1s1-.449 1-1 .449-1 1-1 1 .449 1 1c0 .356-.192.688-.485.859-.092.043-.409.117-.653.151-.547.076-.928.581-.852 1.128.07.5.498.862.989.862.379-.029.996-.132 1.503-.402.924-.536 1.498-1.531 1.498-2.598zm-15 1c-1.061 0-2.073-.212-3-.589v5.589c0 1.654 1.346 3 3 3s3-1.346 3-3v-5.589c-.927.377-1.939.589-3 .589z"/></svg>