<?xml version="1.0" encoding="UTF-8"?>
<svg xmlns="http://www.w3.org/2000/svg" id="Layer_1" data-name="Layer 1" viewBox="0 0 24 24">
  <path d="M19.309,10.009c-2.089-.127-3.932,1.166-4.845,3.049-.643,1.327-.537,2.507-.171,3.565,0,0-.293,.376-.293,.876,0,1-.022,1.5-.022,1.5h-1c-.552,0-1,.448-1,1v1h-.978c-.552,0-1,.448-1,1v1c0,.552,.448,1,1,1h.776c.53,0,1.039-.211,1.414-.586l3.827-3.827c.948,.411,2.044,.544,3.193,.267,1.885-.454,3.373-2.035,3.71-3.945,.538-3.055-1.7-5.723-4.611-5.9Zm.691,5.491c-.828,0-1.5-.672-1.5-1.5s.672-1.5,1.5-1.5,1.5,.672,1.5,1.5-.672,1.5-1.5,1.5ZM0,4.5C0,2.015,3.806,0,8.5,0s8.5,2.015,8.5,4.5-3.806,4.5-8.5,4.5S0,6.985,0,4.5Zm0,6.067v-2.167c1.876,1.596,4.92,2.6,8.5,2.6,2.175,0,4.147-.375,5.785-1.024-.645,.62-1.206,1.355-1.62,2.21-.228,.471-.376,.954-.486,1.44-1.102,.232-2.341,.373-3.679,.373C3.635,14,0,12.188,0,10.567Zm0,5v-1.74c1.876,1.334,4.92,2.174,8.5,2.174,1.265,0,2.458-.11,3.561-.304,.027,.251,.049,.502,.106,.755-.068,.211-.123,.448-.15,.707-.84,.284-1.498,.941-1.819,1.765-.546,.049-1.113,.077-1.699,.077-4.865,0-8.5-1.812-8.5-3.434Zm8.182,8.427c-4.118-.071-8.182-1.51-8.182-4.207v-.96c1.819,1.293,4.741,2.115,8.179,2.164-.113,.316-.179,.655-.179,1.009v1c0,.35,.072,.681,.182,.993Z"/>
</svg>
