<svg id="Layer_1" viewBox="0 0 24 24" xmlns="http://www.w3.org/2000/svg" data-name="Layer 1"><path d="m22.988 20.547c-.019.012-.031.021-.055.035.723-.508 1.168-1.386 1.047-2.362-.158-1.274-1.33-2.182-2.613-2.182h-1.567c-.442 0-.8.358-.8.8v6.4c0 .442.358.8.8.8.442 0 .8-.358.8-.8v-2.2h.784l.705 2.424c.099.342.412.576.768.576h.064c.537 0 .922-.519.765-1.033l-.739-2.43c.023-.017.024-.016.042-.029zm-1.488-1.109h-.9v-1.8h.9c.496 0 .9.404.9.9s-.404.9-.9.9zm-10.484 4.599c.509.026.911-.437.804-.937l-1.142-5.435c-.19-.937-.859-1.621-1.753-1.627-.873-.001-1.575.717-1.742 1.581l-1.165 5.479c-.103.484.266.939.76.939.365 0 .68-.253.759-.61l.175-.79h2.379l.165.782c.076.36.393.617.761.617zm-2.951-2.999.686-3.104c.03-.149.105-.253.176-.296l.017.006c.024.016.121.118.168.349l.641 3.044h-1.688zm7.294-5h-1.7c-.442 0-.8.358-.8.8v6.4c0 .442.358.8.8.8.442 0 .8-.358.8-.8v-2.2h.922c1.368 0 2.478-1.109 2.478-2.478v-.022c0-1.381-1.119-2.5-2.5-2.5zm0 3.4h-.9v-1.8h.9c.496 0 .9.404.9.9s-.404.9-.9.9zm8.641-11.438h-24v-1c0-2.757 2.243-5 5-5h1v-1c0-.553.448-1 1-1s1 .447 1 1v1h8v-1c0-.553.448-1 1-1s1 .447 1 1v1h1c2.757 0 5 2.243 5 5zm-19.925 15.907c-2.318-.435-4.075-2.462-4.075-4.907v-9h24v4.851c-.753-.505-1.656-.812-2.633-.812 0 0-11.444.006-12.44 0h-.004c-1.785 0-3.343 1.345-3.696 3.166l-1.165 5.476c-.088.412-.081.83.014 1.227z"/></svg>