<svg id="Layer_1" viewBox="0 0 24 24" xmlns="http://www.w3.org/2000/svg" data-name="Layer 1"><path d="m21 23c0 .552-.448 1-1 1-.552 0-1-.448-1-1 0-.552.448-1 1-1 .552 0 1 .448 1 1zm2-4c-.552 0-1 .448-1 1 0 .552.448 1 1 1 .552 0 1-.448 1-1 0-.552-.448-1-1-1zm-3 0c-.552 0-1 .448-1 1 0 .552.448 1 1 1 .552 0 1-.448 1-1 0-.552-.448-1-1-1zm-2-3v-1c0-1.103-.897-2-2-2h-1c-1.103 0-2 .897-2 2v1c0 1.103.897 2 2 2h1c1.103 0 2-.897 2-2zm-2-1v1s-1 0-1 0v-1zm2 7v-1c0-1.103-.897-2-2-2h-1c-1.103 0-2 .897-2 2v1c0 1.103.897 2 2 2h1c1.103 0 2-.897 2-2zm-2-1v1s-1 0-1 0v-1zm8-5v-1c0-1.103-.897-2-2-2h-1c-1.103 0-2 .897-2 2v1c0 1.103.897 2 2 2h1c1.103 0 2-.897 2-2zm-2-1v1s-1 0-1 0v-1zm-1.005-7c1.58.019 2.898-1.202 3-2.777.121-2.762-2.02-5.098-4.782-5.218-.073-.003-14.218-.005-14.218-.005-2.762 0-4.995 2.238-4.995 5 0 1.657 1.339 3 2.995 3zm-9.995 14v-1c0-.951.347-1.813.903-2.5-.556-.687-.903-1.549-.903-2.5v-1c0-2.206 1.794-4 4-4h1c.951 0 1.813.347 2.5.903.687-.556 1.549-.903 2.5-.903h1c.347 0 .678.058 1 .142v-1.142h-21.005c-.552 0-.995.448-.995 1v8c.003 2.76 2.235 4.997 4.995 5h5.561c-.345-.591-.556-1.268-.556-2z"/></svg>