<svg id="Layer_1" viewBox="0 0 24 24" xmlns="http://www.w3.org/2000/svg" data-name="Layer 1"><path d="m17.297 16.501h-.015c-.727-.005-1.383-.343-1.802-.927-.396-.456-.554-.96-.68-1.365-.153-.526-.295-.772-.781-.875-1.488-.132-3.157-1.809-3.299-3.377-.104-.412-.375-.584-.874-.728-.4-.132-.947-.311-1.495-.811-.516-.384-.857-1.081-.844-1.811.012-.718.353-1.365.936-1.774.497-.349 1.022-.672 1.603-.988t.002 0c1.126-.609 2.558-.39 3.477.535l6.106 6.143c.945.951 1.142 2.413.477 3.556-.298.512-.63 1.019-.989 1.505-.423.575-1.103.918-1.822.918zm5.754-14.606c-.28-.321-.623-.665-.944-.944-1.548-1.352-3.92-1.249-5.401.235l-1.773 1.773s.007.006.01.009l6.081 6.117 1.79-1.79c1.483-1.482 1.587-3.855.236-5.4zm-9.14 14.92c-.486-.582-.742-1.185-.902-1.648-1.857-.54-3.559-2.26-4.111-4.149-.481-.174-1.154-.471-1.825-1.061-.42-.332-.764-.758-1.026-1.235l-5.409 5.431c-.579.581-.783 1.433-.534 2.222.239.757.865 1.311 1.658 1.452.315.051.555.299.605.615.132.798.504 1.508 1.104 2.108.594.595 1.276.949 2.084 1.083.332.058.566.284.622.629.137.769.691 1.395 1.448 1.635.222.07.449.104.674.104.573 0 1.131-.223 1.549-.639l5.414-5.391c-.519-.284-.984-.666-1.352-1.156z"/></svg>