<svg id="Layer_1" viewBox="0 0 24 24" xmlns="http://www.w3.org/2000/svg" data-name="Layer 1"><path d="m12.013 7v-6.54c.913.346 1.753.879 2.465 1.59l3.484 3.486c.712.711 1.245 1.551 1.591 2.464h-6.54c-.552 0-1-.449-1-1zm-5 8h-2v2h2zm-2-2h2v-2h-2zm14.976-3h-6.976c-1.654 0-3-1.346-3-3v-6.976c-.161-.011-.322-.024-.485-.024h-4.515c-2.757 0-5 2.243-5 5v14c0 2.757 2.243 5 5 5h5.051c-.033-.162-.051-.329-.051-.5v-.955c0-1.283.381-2.506 1.085-3.545h-6.085c-1.103 0-2-.897-2-2v-6c0-1.103.897-2 2-2h2c1.103 0 2 .897 2 2v2h2c1.103 0 2 .897 2 2v1.922l5.663-5.663c.384-.384.842-.674 1.331-.888-.004-.124-.01-.248-.018-.371zm-8.976 5h-2v2h2zm9.077-2.327c.953-.953 2.534-.894 3.409.176.761.93.598 2.317-.252 3.167l-6.715 6.715c-.813.813-1.915 1.269-3.064 1.269h-.955c-.276 0-.5-.224-.5-.5v-.955c0-1.149.457-2.252 1.269-3.064z"/></svg>