<svg id="Layer_1" viewBox="0 0 24 24" xmlns="http://www.w3.org/2000/svg" data-name="Layer 1"><path d="m16.82 19.231-.32.769h3.5c1 0 1 1 1 1 0 1.657-1.343 3-3 3h-12c-1.657 0-3-1.343-3-3 0 0 0-1 1-1h3.5l-.32-.769c-.311-.745-1.039-1.231-1.846-1.231h-1.333c-.552 0-1-.448-1-1s.448-1 1-1h4l2.553 5.106c.274.548.834.894 1.447.894s1.173-.346 1.447-.894l2.553-5.106h4c.552 0 1 .448 1 1s-.448 1-1 1h-1.333c-.807 0-1.536.485-1.846 1.231zm5.18-11.113c0 .778-.726 1.358-1.483 1.177-2.854-.68-4.76-1.329-8.517-1.295-3.663-.085-5.364.277-8.522 1.199-.739.216-1.478-.341-1.478-1.111 0-.406.213-.783.561-.992l.461-.277c.551-.331 1.014-.793 1.354-1.338.248-.397.472-.782.693-1.16 1.352-2.319 2.519-4.321 6.931-4.321s5.579 2.002 6.931 4.321c.221.378.445.763.693 1.16.34.545.803 1.008 1.354 1.338l.436.261c.364.218.587.612.587 1.036zm-6-3.618c0-.828-.672-1.5-1.5-1.5s-1.5.672-1.5 1.5.672 1.5 1.5 1.5 1.5-.672 1.5-1.5zm-4 12.5c3.5 0 4-1 4-1v-2.559c.814-.735 1.438-1.676 1.755-2.755-1.906-.459-3.082-.685-5.755-.685-2.913 0-3.854.032-5.796.527.302 1.143.944 2.141 1.796 2.911v2.562s.5 1 4 1z"/></svg>