<svg id="Layer_1" viewBox="0 0 24 24" xmlns="http://www.w3.org/2000/svg" data-name="Layer 1"><path d="m10.919.113c-1.896.397-3.422 1.937-3.811 3.835s.307 3.65 1.574 4.774c.361.32.922.261 1.23-.109l.211-.253c.19-.228.471-.36.768-.36h2.14c.297 0 .578.132.768.36l.242.29c.305.366.859.428 1.22.117 1.061-.913 1.738-2.256 1.738-3.767.001-3.114-2.846-5.564-6.08-4.887zm2.581 4.887c0 .828-.672 1.5-1.5 1.5s-1.5-.672-1.5-1.5.672-1.5 1.5-1.5c.027 0 .052.006.078.008l1.215-1.215c.39-.39 1.024-.39 1.414 0 .39.39.39 1.024 0 1.414l-1.215 1.215c.001.026.008.051.008.078zm-4.682 10.025 2.176-3.625-7.948-2.65c-.617-.206-1.293.045-1.628.602l-1.127 1.88c-.667 1.112-.133 2.556 1.097 2.966l5.082 1.694c.889.296 1.865-.065 2.348-.868zm2.175 8.975v-8.712l-.46.766c-.742 1.236-2.045 1.945-3.416 1.945-.425 0-.856-.067-1.28-.209l-3.846-1.281v.98c0 2.153 1.377 4.064 3.42 4.744l4.436 1.478c.374.121.758.22 1.146.287zm12.723-12.733-1.148-1.913c-.334-.557-1.011-.808-1.628-.602l-7.947 2.649 2.176 3.625c.482.804 1.458 1.165 2.348.868l5.119-1.706c1.211-.404 1.737-1.825 1.08-2.921h.001zm-6.847 6.736c-1.371 0-2.674-.708-3.416-1.945l-.46-.766v8.706c.422-.074.84-.182 1.236-.314h.01l4.336-1.446c2.043-.681 3.42-2.592 3.42-4.744v-.981l-3.846 1.282c-.424.142-.855.209-1.28.209z"/></svg>