<svg id="Layer_1" viewBox="0 0 24 24" xmlns="http://www.w3.org/2000/svg" data-name="Layer 1"><path d="m23 9.95c0-1.654-1.346-3-3-3h-.443c.682-1.687 1.443-3.738 1.443-4.5 0-1.381-1.119-2.45-2.5-2.45s-2.5 1.069-2.5 2.45c0 .762.761 2.813 1.443 4.5h-.443c-1.654 0-3 1.346-3 3-.553 0-1 .447-1 1s.447 1 1 1h9c.553 0 1-.447 1-1s-.447-1-1-1zm.992 11.218c-.014.156-.03.275-.047.332-.43 1.446-1.77 2.5-3.355 2.5h-9.35c.48-.716.76-1.576.76-2.5 0-1.381 1.119-2.5 2.5-2.5h7.498c1.17 0 2.099 1.003 1.993 2.168zm-20.992-19.668v3.5h-.5c-1.381 0-2.5-1.119-2.5-2.5v-1c0-.828.672-1.5 1.5-1.5s1.5.672 1.5 1.5zm7 20c0 1.466-1.261 2.637-2.758 2.487-1.301-.13-2.242-1.322-2.242-2.63v-19.857c0-.536-.122-1.045-.338-1.5h10.088c-.471.703-.75 1.544-.75 2.45 0 .487.105 1.244.743 3.039-1.221.62-2.154 1.727-2.544 3.063-.728.548-1.199 1.418-1.199 2.397 0 1.654 1.346 3 3 3h6v3.05h-5.5c-2.485 0-4.5 2.015-4.5 4.5z"/></svg>