<?xml version="1.0" encoding="UTF-8"?>
<svg xmlns="http://www.w3.org/2000/svg" id="Layer_1" data-name="Layer 1" viewBox="0 0 24 24">
  <path d="M18,0c-3.314,0-6,2.686-6,6s2.686,6,6,6,6-2.686,6-6S21.314,0,18,0Zm-2,7.812v-3.625c0-.714,.767-1.165,1.391-.818l3.262,1.812c.642,.357,.642,1.28,0,1.637l-3.262,1.812c-.624,.347-1.391-.105-1.391-.818Zm2,6.188c-4.418,0-8-3.582-8-8,0-1.459,.397-2.822,1.079-3.999H4.999C2.243,2.001,0,4.244,0,7.001V15.001C0,17.757,2.243,20.001,4.999,20.001h6v2H6.999c-.552,0-1,.447-1,1s.448,1,1,1h10c.553,0,1-.447,1-1s-.447-1-1-1h-4v-2h6c2.757,0,5-2.243,5-5v-3.721c-1.466,1.664-3.607,2.72-5.999,2.72ZM5.999,6.001c1.381,0,2.5,1.119,2.5,2.5s-1.119,2.5-2.5,2.5-2.5-1.119-2.5-2.5,1.119-2.5,2.5-2.5Zm3.351,9.937c-.504,.192-1.094-.062-1.288-.586-.303-.808-1.132-1.351-2.063-1.351s-1.761,.543-2.063,1.351c-.193,.519-.769,.779-1.288,.586-.517-.194-.779-.771-.585-1.287,.594-1.585,2.176-2.649,3.937-2.649s3.343,1.064,3.937,2.649c.194,.517-.068,1.093-.585,1.287Z"/>
</svg>
