<svg id="Layer_1" viewBox="0 0 24 24" xmlns="http://www.w3.org/2000/svg" data-name="Layer 1"><path d="m8.336 20.215c-.638-.415-.302-1.501.462-1.476h1.898l.441-1.691c.2-.878 1.54-.878 1.74 0l.441 1.691h1.886c.762-.025 1.097 1.053.461 1.468l-1.453 1.015.566 1.722c.257.7-.622 1.353-1.22.908l-1.558-1.085-1.553 1.085c-.593.445-1.465-.198-1.216-.896l.553-1.733-1.451-1.01h.001zm-8.001-4.75 1.451 1.01-.553 1.733c-.249.699.624 1.341 1.216.896l1.553-1.085 1.558 1.085c.597.445 1.477-.208 1.22-.908l-.566-1.722 1.453-1.015c.637-.415.301-1.493-.461-1.468h-1.886l-.441-1.691c-.2-.878-1.54-.878-1.74 0l-.441 1.691h-1.9c-.764-.025-1.1 1.06-.462 1.476h-.001zm23.329.013c.638-.415.302-1.501-.462-1.476h-1.898s-.441-1.691-.441-1.691c-.2-.878-1.54-.878-1.74 0l-.441 1.691h-1.886c-.762-.025-1.097 1.053-.461 1.468l1.453 1.015-.566 1.722c-.257.7.622 1.353 1.22.908l1.558-1.085 1.553 1.085c.593.445 1.465-.198 1.216-.896l-.553-1.733 1.451-1.01h-.001zm-6.873-13.194-4.789 2.737-4.792-2.739c.243-.237.517-.447.819-.618l1.996-1.13c1.214-.687 2.724-.688 3.938-.002l2.005 1.133c.304.172.578.382.822.62zm1.204 5.242c0 1.452-.783 2.792-2.053 3.496l-1.979 1.099c-.307.17-.633.296-.968.379l.003-5.746 4.825-2.758c.111.369.17.754.17 1.15v2.38zm-11.82-3.531 4.82 2.757-.003 5.736c-.332-.087-.65-.217-.955-.391l-2.021-1.155c-1.243-.711-2.016-2.041-2.016-3.473v-2.324c0-.395.064-.781.175-1.15z"/></svg>