<svg id="Layer_1" viewBox="0 0 24 24" xmlns="http://www.w3.org/2000/svg" data-name="Layer 1"><path d="m14.858 6.514c1.325 1.985 2.142 5.471 2.142 7.905 0 5.291-3.806 9.581-8.5 9.581s-8.5-4.29-8.5-9.581c0-2.404.829-5.977 2.118-7.932.516-.782 1.714-.585 1.938.323.993 4.024 2.611 8.401 3.597 10.638.325.737 1.37.736 1.694 0 .981-2.229 2.59-6.584 3.584-10.584.223-.896 1.413-1.119 1.927-.349zm-6.359 7.706c.834-2.195 1.751-4.949 2.408-7.521-.741-.454-1.555-.7-2.407-.7s-1.664.248-2.407.703c.655 2.568 1.571 5.321 2.406 7.517zm8.006-8.837c.511-1.523 1.005-3.13 1.402-4.683-.741-.454-1.555-.7-2.407-.7s-1.664.248-2.407.703c.282 1.104.616 2.238.967 3.352.97.027 1.887.509 2.445 1.328zm-4.676-.462c.1-.097.208-.185.32-.268-.4-1.265-.779-2.569-1.093-3.842-.224-.908-1.422-1.105-1.938-.323-.612.928-1.115 2.224-1.481 3.583 1.429-.193 2.897.091 4.192.85zm10.029-4.407c-.514-.77-1.704-.547-1.927.349-.596 2.397-1.411 4.912-2.181 7.03.819 2.171 1.25 4.669 1.25 6.526 0 1-.128 1.965-.345 2.891 3.131-1.413 5.345-4.858 5.345-8.891 0-2.434-.817-5.92-2.142-7.905z"/></svg>