<svg id="Layer_1" viewBox="0 0 24 24" xmlns="http://www.w3.org/2000/svg" data-name="Layer 1"><path d="m17 11h-10c-2.206 0-4 1.794-4 4v8c0 .552.448 1 1 1h16c.552 0 1-.448 1-1v-8c0-2.206-1.794-4-4-4zm-8 10c0 .552-.448 1-1 1s-1-.448-1-1v-1c0-.552.448-1 1-1s1 .448 1 1zm0-5c0 .552-.448 1-1 1s-1-.448-1-1v-1c0-.552.448-1 1-1s1 .448 1 1zm4 5c0 .552-.448 1-1 1s-1-.448-1-1v-1c0-.552.448-1 1-1s1 .448 1 1zm0-5c0 .552-.448 1-1 1s-1-.448-1-1v-1c0-.552.448-1 1-1s1 .448 1 1zm4 5c0 .552-.448 1-1 1s-1-.448-1-1v-1c0-.552.448-1 1-1s1 .448 1 1zm0-5c0 .552-.448 1-1 1s-1-.448-1-1v-1c0-.552.448-1 1-1s1 .448 1 1zm1-8.5v1.5h-12v-1.5c0-1.933 1.567-3.5 3.5-3.5h1.5v-3c0-.552.448-1 1-1s1 .448 1 1v3h1.5c1.933 0 3.5 1.567 3.5 3.5z"/></svg>