<svg id="Layer_1" viewBox="0 0 24 24" xmlns="http://www.w3.org/2000/svg" data-name="Layer 1"><path d="m23 11c.552 0 1-.448 1-1s-.448-1-1-1h-1v-2h1c.552 0 1-.448 1-1s-.448-1-1-1h-1.424c-.504-1.149-1.427-2.072-2.576-2.576v-1.424c0-.552-.448-1-1-1s-1 .448-1 1v1h-2v-1c0-.552-.448-1-1-1s-1 .448-1 1v1h-2v-1c0-.552-.448-1-1-1s-1 .448-1 1v1h-2v-1c0-.552-.448-1-1-1s-1 .448-1 1v1.424c-1.149.504-2.072 1.427-2.576 2.576h-1.424c-.552 0-1 .448-1 1s.448 1 1 1h1v2h-1c-.552 0-1 .448-1 1s.448 1 1 1h1v2h-1c-.552 0-1 .448-1 1s.448 1 1 1h1v2h-1c-.552 0-1 .448-1 1s.448 1 1 1h1.424c.504 1.149 1.427 2.072 2.576 2.576v1.424c0 .552.448 1 1 1s1-.448 1-1v-1h2v1c0 .552.448 1 1 1s1-.448 1-1v-1h2v1c0 .552.448 1 1 1s1-.448 1-1v-1h2v1c0 .552.448 1 1 1s1-.448 1-1v-1.424c1.149-.504 2.072-1.427 2.576-2.576h1.424c.552 0 1-.448 1-1s-.448-1-1-1h-1v-2h1c.552 0 1-.448 1-1s-.448-1-1-1h-1v-2zm-5 4.095c0 1.602-1.303 2.905-2.905 2.905h-6.19c-1.602 0-2.905-1.303-2.905-2.905v-4.102c0-.967.479-1.867 1.28-2.408l3.095-2.089c.987-.665 2.262-.665 3.25 0l3.095 2.089c.802.541 1.28 1.441 1.28 2.408zm-2.399-4.852-3.095-2.089c-.153-.104-.33-.155-.506-.155s-.353.052-.506.155l-3.095 2.089c-.25.168-.399.448-.399.75v4.102c0 .499.406.905.905.905h6.19c.499 0 .905-.406.905-.905v-4.102c0-.301-.149-.581-.398-.75zm-2.101 3.256c0 .552-.448 1-1 1h-1c-.552 0-1-.448-1-1v-1c0-.552.448-1 1-1h1c.552 0 1 .448 1 1z"/></svg>