<svg id="Layer_1" viewBox="0 0 24 24" xmlns="http://www.w3.org/2000/svg" data-name="Layer 1"><path d="m20.132 14.985c-.34.182-.887.386-1.632.386-.679 0-1.364-.278-1.713-.444-1.385-.691-5.788-3.256-5.788-7.926v-3.477c0-1.417.678-2.712 1.773-3.524h-7.772c-2.757 0-5 2.243-5 5v9c0 2.757 2.243 5 5 5h6v3h-4c-.553 0-1 .447-1 1s.447 1 1 1h10c.553 0 1-.447 1-1s-.447-1-1-1h-4v-3h6c2.757 0 5-2.243 5-5v-1.741c-1.345 1.52-3.021 2.369-3.868 2.726zm-13.132-7.985c1.105 0 2 .895 2 2s-.895 2-2 2-2-.895-2-2 .895-2 2-2zm3.351 8.937c-.504.192-1.094-.063-1.287-.586-.303-.808-1.132-1.351-2.063-1.351s-1.761.543-2.063 1.351c-.193.519-.773.778-1.287.586-.518-.194-.779-.771-.586-1.287.594-1.585 2.176-2.649 3.937-2.649s3.343 1.064 3.937 2.649c.193.517-.068 1.093-.586 1.287zm7.297-2.816s.525.25.853.25c.501 0 .745-.184.745-.184 1.115-.449 4.754-2.218 4.754-6.187v-3.477c0-1.029-.658-1.94-1.637-2.265l-3.392-1.124c-.306-.102-.636-.102-.943 0l-3.394 1.124c-.978.326-1.635 1.237-1.635 2.266v3.477c0 3.522 3.56 5.576 4.648 6.12zm-1.619-8.959c.162-.983 1.087-1.662 2.084-1.662h.776c.997 0 1.922.679 2.084 1.662.206 1.252-.758 2.338-1.972 2.338v3h.5c.276 0 .5.224.5.5s-.224.5-.5.5h-1c-.276 0-.5-.224-.5-.5v-3.5c-1.214 0-2.178-1.086-1.972-2.338zm.972.324c0-.551.449-1 1-1h1c.551 0 1 .449 1 1s-.449 1-1 1h-1c-.551 0-1-.449-1-1z"/></svg>