<svg id="Layer_1" viewBox="0 0 24 24" xmlns="http://www.w3.org/2000/svg" data-name="Layer 1"><path d="m15 13c0 .97-.701 2-2 2h-.33l-.219 1.656c-.328 2.486-2.448 4.344-4.956 4.344h-.495c0 1.654-1.346 3-3 3h-3c-.552 0-1-.448-1-1v-21.951c0-.499.367-.941.864-.992 3.894-.395 7.582 1.217 9.936 4.361 1.268 1.566 4.2 7.161 4.2 8.582zm8.718-1 .252-1.199c.186-.913-.512-1.801-1.444-1.801h-2.526c-2 0-2.111 1.5-2.111 1.5l-.311 1.5h6.139zm-6.554 2-.829 4h-.336c-1.105 0-2 .895-2 2v1c0 1.105.895 2 2 2h2.964c1.418 0 2.642-.993 2.935-2.38l1.398-6.62h-6.134z"/></svg>