<svg id="Layer_1" viewBox="0 0 24 24" xmlns="http://www.w3.org/2000/svg" data-name="Layer 1"><path d="m22.358 6.5c-.094.363-.238.704-.425 1.019l.495.495c.408-.02.821.114 1.133.425.586.586.586 1.536 0 2.121-.586.586-1.536.586-2.121 0-.312-.312-.445-.725-.425-1.133l-.495-.495c-.316.186-.656.33-1.019.425v.642c0 .553-.448 1-1 1s-1-.447-1-1v-.642c-.363-.094-.704-.238-1.019-.425l-.495.495c.02.408-.114.821-.425 1.133-.586.586-1.536.586-2.121 0-.586-.586-.586-1.536 0-2.121.312-.312.725-.445 1.133-.425l.495-.495c-.186-.316-.33-.656-.425-1.019h-.642c-.552 0-1-.447-1-1s.448-1 1-1h.642c.094-.363.238-.704.425-1.019l-.495-.495c-.408.02-.821-.114-1.133-.425-.586-.586-.586-1.536 0-2.121s1.536-.586 2.121 0c.312.312.445.725.425 1.133l.495.495c.316-.186.656-.33 1.019-.425v-.642c0-.552.448-1 1-1s1 .448 1 1v.642c.363.094.704.238 1.019.425l.495-.495c-.02-.408.114-.821.425-1.133.586-.586 1.536-.586 2.121 0s.586 1.536 0 2.121c-.312.312-.725.445-1.133.425l-.495.495c.186.316.33.656.425 1.019h.642c.552 0 1 .447 1 1s-.448 1-1 1zm-6.263 6.099c-.48.248-1.017.401-1.595.401-1.933 0-3.5-1.567-3.5-3.5 0-.578.153-1.114.401-1.595-.256-.756-.401-1.563-.401-2.405 0-.873.157-1.708.431-2.487-4.199.101-6.888 1.323-7.933 3.575-.907-.526-1.498-1.497-1.498-2.588v-3c0-.553-.448-1-1-1s-1 .447-1 1v3c0 2.02 1.211 3.808 3.02 4.588-.008.137-.02.271-.02.412 0 4.222 3.489 9.257 8 9.922v4.078c0 .553.448 1 1 1s1-.447 1-1v-4.082c3.179-.47 5.845-3.107 7.144-6.105-.53.119-1.078.186-1.644.186-.842 0-1.649-.145-2.405-.401z"/></svg>