<svg id="Layer_1" viewBox="0 0 24 24" xmlns="http://www.w3.org/2000/svg" data-name="Layer 1"><path d="m21.966 1.451c-.634-.639-1.511-1.109-2.562-1.277-1.024-.164-1.038.459-.736.774.397.418.388 1.026-.003 1.417-.392.392-1.029.392-1.421 0l-2.072-2.072c-.391-.39-1.024-.39-1.414 0s-.391 1.023 0 1.413l2.07 2.07c.394.394.394 1.032 0 1.425-.394.394-1.032.394-1.426 0l-3.212-3.21c-.391-.39-1.024-.39-1.414 0s-.391 1.023 0 1.414l3.228 3.227c.385.385.385 1.008 0 1.393s-1.009.385-1.394 0l-3.228-3.227c-.391-.39-1.024-.39-1.414 0s-.391 1.023 0 1.414l3.205 3.204c.397.397.397 1.041 0 1.438s-1.041.397-1.438 0l-2.064-2.063c-.391-.39-1.024-.39-1.414 0s-.391 1.023 0 1.413l2.123 2.123c.364.364.364.955 0 1.319s-.959.364-1.323-.003c0 0-1.062-.33-.869.862.125.771.535 1.424.949 1.969l-5.823 5.82c-.39.39-.39 1.023 0 1.413s1.024.39 1.414 0l5.879-5.876c1.177.787 2.595 1.169 4.155 1.169 3.132-.036 6.029-1.424 8.431-3.81 4.245-4.281 5.04-10.444 1.773-13.738zm-9.379 15.527c-.307.036-.617-.065-.835-.283l-1.365-1.364c-.391-.39-.391-1.023 0-1.414.391-.39 1.024-.39 1.414 0l1.377 1.377c.587.587.235 1.605-.591 1.684zm4.546-1.803c-.397.288-.947.25-1.294-.097l-2.627-2.626c-.391-.39-.391-1.023 0-1.414.39-.39 1.023-.39 1.414 0l2.63 2.628c.432.432.379 1.159-.122 1.508zm3.023-3.034c-.348.505-1.078.56-1.512.127l-2.625-2.623c-.391-.39-.391-1.023 0-1.414s1.023-.39 1.414 0l2.622 2.621c.341.341.374.892.1 1.289zm.115-3.923-1.385-1.384c-.391-.39-.391-1.023 0-1.414.391-.39 1.024-.39 1.414 0l1.374 1.374c.217.217.334.522.291.827-.099.827-1.106 1.186-1.695.597z"/></svg>