<svg id="Layer_1" viewBox="0 0 24 24" xmlns="http://www.w3.org/2000/svg" data-name="Layer 1"><path d="m10 15c.352 0 .686-.072 1-.184v2.184c0 .551-.449 1-1 1h-1c-.551 0-1-.449-1-1v-2.184c.314.112.648.184 1 .184zm4 0c-.352 0-.686-.072-1-.184v2.184c0 .551.449 1 1 1h1c.551 0 1-.449 1-1v-2.184c-.314.112-.648.184-1 .184zm-5 8h1c.551 0 1-.449 1-1v-2.184c-.314.112-.648.184-1 .184h-1c-.352 0-.686-.072-1-.184v2.184c0 .551.449 1 1 1zm5 0h1c.551 0 1-.449 1-1v-2.184c-.314.112-.648.184-1 .184h-1c-.352 0-.686-.072-1-.184v2.184c0 .551.449 1 1 1zm-11.987-13.714.031 6.637c0 .577-.251 1.339-.495 2.076-.184.548-.332 1.04-.452 1.565-.254 1.081-.003 2.2.686 3.071.688.867 1.715 1.365 2.82 1.365h2.178c-.48-.532-.78-1.229-.78-2v-12h-.902c-1.092 0-2.144-.255-3.085-.714zm20.891 10.279c-.107-.461-.231-.906-.376-1.383-.227-.759-.483-1.619-.483-2.263l-.031-6.611c-.922.44-1.943.693-3.013.693h-1v12c0 .771-.301 1.468-.78 2h2.178c1.105 0 2.132-.498 2.82-1.365.689-.871.94-1.99.686-3.071zm-14.904-9.565v2c0 .551.449 1 1 1h1c.551 0 1-.449 1-1v-2.179c-.314.112-.648.179-1 .179zm5-.179v2.179c0 .551.449 1 1 1h1c.551 0 1-.449 1-1v-2h-2c-.352 0-.686-.067-1-.179zm-2-8.821v6c0 .552-.448 1-1 1h-4.902c-2.069 0-3.937-1.268-4.647-3.154-.118-.312-.231-.652-.335-1.018-.261-.914-.08-1.875.494-2.635.573-.758 1.445-1.193 2.393-1.193h6.997c.552 0 1 .448 1 1zm-4 2.5c0-.828-.672-1.5-1.5-1.5s-1.5.672-1.5 1.5.672 1.5 1.5 1.5 1.5-.672 1.5-1.5zm16.986.281c-.072.271-.149.528-.229.771-.681 2.062-2.592 3.448-4.757 3.448h-5c-.552 0-1-.448-1-1v-6c0-.552.448-1 1-1h7.084c.937 0 1.803.427 2.375 1.171.575.747.767 1.699.526 2.61zm-3.986-.281c0-.828-.672-1.5-1.5-1.5s-1.5.672-1.5 1.5.672 1.5 1.5 1.5 1.5-.672 1.5-1.5z"/></svg>