<svg id="Layer_1" viewBox="0 0 24 24" xmlns="http://www.w3.org/2000/svg" data-name="Layer 1"><path d="m7.5 5h-4c-1.933 0-3.5 1.567-3.5 3.5v3c0 1.933 1.567 3.5 3.5 3.5h1v2h-1.5c-.552 0-1 .448-1 1s.448 1 1 1h5c.552 0 1-.448 1-1s-.448-1-1-1h-1.5v-2h1c1.933 0 3.5-1.567 3.5-3.5v-3c0-1.933-1.567-3.5-3.5-3.5zm13 0h-4c-1.933 0-3.5 1.567-3.5 3.5v3c0 1.933 1.567 3.5 3.5 3.5h1v2h-1.5c-.552 0-1 .448-1 1s.448 1 1 1h5c.552 0 1-.448 1-1s-.448-1-1-1h-1.5v-2h1c1.933 0 3.5-1.567 3.5-3.5v-3c0-1.933-1.567-3.5-3.5-3.5z"/></svg>