<svg id="Layer_1" viewBox="0 0 24 24" xmlns="http://www.w3.org/2000/svg" data-name="Layer 1"><path d="m23 2h-2.184c-.414-1.161-1.514-2-2.816-2s-2.402.839-2.816 2h-6.369c-.414-1.161-1.514-2-2.816-2s-2.401.839-2.815 2h-2.184c-.552 0-1 .447-1 1s.448 1 1 1h2.184c.302.847.969 1.514 1.816 1.816v5.184c0 .553.448 1 1 1s1-.447 1-1v-5.184c.847-.302 1.514-.969 1.816-1.816h6.369c.302.847.969 1.514 1.816 1.816v5.184c0 .553.448 1 1 1s1-.447 1-1v-5.184c.847-.302 1.514-.969 1.816-1.816h2.184c.552 0 1-.447 1-1s-.448-1-1-1zm-18.005 17.304-3.95-2.26c-.015.112-.045.22-.045.334v2.906c0 .894.482 1.726 1.26 2.17.103.053 2.68 1.558 2.732 1.527l.004-4.677zm1.007-1.731 3.909-2.234c-.062-.043-2.687-1.553-2.687-1.553-.377-.211-.729-.322-1.231-.322-.43 0-.854.113-1.229.325 0 0-2.612 1.506-2.674 1.549zm.998 1.733-.004 4.689c-.056.091 2.674-1.454 2.718-1.473.793-.44 1.281-1.278 1.281-2.186v-2.958c0-.114-.025-.222-.04-.333l-3.956 2.261zm9.995-.003-3.95-2.26c-.015.112-.045.22-.045.334v2.906c0 .894.482 1.726 1.26 2.17.103.053 2.68 1.558 2.732 1.527l.004-4.677zm1.007-1.731 3.909-2.234c-.062-.043-2.687-1.553-2.687-1.553-.377-.211-.729-.322-1.231-.322-.43 0-.854.113-1.229.325 0 0-2.612 1.506-2.674 1.549zm.998 1.733-.004 4.689c-.056.091 2.674-1.454 2.718-1.473.793-.44 1.281-1.278 1.281-2.186v-2.958c0-.114-.025-.222-.04-.333l-3.956 2.261z"/></svg>