<svg id="Layer_1" viewBox="0 0 24 24" xmlns="http://www.w3.org/2000/svg" data-name="Layer 1"><path d="m18.473 14.416-1.749-.656c-.473-1.036-1.513-1.76-2.724-1.76-1.654 0-3 1.346-3 3 0 .67.229 1.283.601 1.783-.92.911-2.05 2.216-2.946 2.216-.596 0-1.031-.599-1.263-.809-.146-.133-.325-.193-.504-.193-.376 0-.751.265-.825.674-.488 2.69 1.247 5.327 4.317 5.327h3.968c1.662 0 3.661-1.143 3.661-3.6 0-1.289-1.021-2.772-1.693-3.514 0 0 0 0 0-.001.055-.068.117-.129.166-.202l1.992-.747c.317-.119.527-.422.527-.76s-.21-.641-.527-.76zm4.527-11.416h-8v-.5c0-1.378-1.121-2.5-2.5-2.5h-1c-1.379 0-2.5 1.122-2.5 2.5v.5h-8c-.553 0-1 .448-1 1s.447 1 1 1h8.032c.074.676.359 1.305.847 1.793l1.121 1.121v1.086c0 .552.447 1 1 1s1-.448 1-1v-1.086l1.121-1.121c.488-.488.773-1.117.847-1.793h8.032c.553 0 1-.448 1-1s-.447-1-1-1z"/></svg>