<svg id="Layer_1" viewBox="0 0 24 24" xmlns="http://www.w3.org/2000/svg" data-name="Layer 1"><path d="m18.658 10.705c1.43-1.407 1.74-3.536.792-5.426-.655-1.304-1.973-2.13-3.571-2.257-.443-1.77-2.026-3.023-3.879-3.023s-3.433 1.251-3.878 3.021c-2.306.193-4.122 2.135-4.122 4.492 0 1.192.466 2.315 1.311 3.161.112.113.146.275.087.415-.264.615-.397 1.267-.397 1.934 0 1.563.754 3.04 2 3.981v3.374c.019 2.172 1.364 3.388 4 3.622v-11.978c0-.554.447-1.002 1-1.002s1 .448 1 1.002v11.979c2.636-.235 3.981-1.451 4-3.631v-3.365c1.246-.94 2-2.417 2-3.981 0-.666-.134-1.317-.397-1.935-.059-.138-.036-.292.056-.383zm3.943 1.444c.265.617.398 1.269.398 1.936 0 1.589-.737 3.039-2 3.983v2.301c-.017 1.944-1.088 3.121-3.188 3.52 1.001-1.225 1.18-2.678 1.188-3.52v-2.467c1.267-1.3 2-3.059 2-4.879 0-.586-.073-1.164-.219-1.727 1.424-1.966 1.625-4.561.469-6.889 1.411.624 2.468 1.921 2.7 3.492.211 1.431-.253 2.834-1.271 3.849-.106.106-.136.263-.077.401zm-21.28-.401c-1.018-1.014-1.482-2.417-1.271-3.848.232-1.571 1.289-2.869 2.7-3.492-1.156 2.328-.955 4.923.469 6.889-.146.563-.219 1.141-.219 1.727 0 1.82.733 3.579 2 4.879v2.467c.007.843.187 2.295 1.188 3.52-2.1-.399-3.171-1.577-3.188-3.52v-2.301c-1.263-.944-2-2.394-2-3.983 0-.667.134-1.319.398-1.936.059-.138.029-.295-.077-.401z"/></svg>