<svg id="Layer_1" viewBox="0 0 24 24" xmlns="http://www.w3.org/2000/svg" data-name="Layer 1"><path d="m19.068 4.802-1.869-1.869c-1.236-1.235-3.251-1.241-4.489-.009-2.822 2.806-10.952 10.825-10.952 10.825-1.283 1.283-1.912 3.056-1.726 4.863.187 1.806 1.181 3.423 2.728 4.435.974.636 2.103.953 3.232.953 1.204 0 2.41-.36 3.429-1.076 1.291-.908 2.165-2.247 2.461-3.772.437-2.247 1.33-4.058 2.65-5.378l4.536-4.473c1.24-1.24 1.24-3.258 0-4.498zm-9.861 9.904-2.5 2.5c-.391.391-1.023.391-1.414 0s-.391-1.023 0-1.414l2.5-2.5c.391-.391 1.023-.391 1.414 0s.391 1.023 0 1.414zm14.509-12.226c-.766.773-1.614 1.631-2.267 2.292-.248-.503-.559-.976-.966-1.383l-1.869-1.87c-.157-.157-.334-.28-.505-.412l.617-.617c.422-.422 1.037-.587 1.613-.432l2.93.785c.729.195.978 1.102.447 1.638z"/></svg>