<?xml version="1.0" encoding="UTF-8"?>
<svg xmlns="http://www.w3.org/2000/svg" id="Layer_1" data-name="Layer 1" viewBox="0 0 24 24">
  <path d="M17,7H7v-.5c0-1.381,1.119-2.5,2.5-2.5h.766c-.168-.869-.266-1.638-.266-2,0-1.105,.895-2,2-2s2,.895,2,2c0,.362-.097,1.131-.266,2h.766c1.381,0,2.5,1.119,2.5,2.5v.5Zm.887,2.44l-.385-.44H6.498l-.385,.44c-.667,.762-1.184,1.63-1.542,2.56h2.429c.552,0,1,.448,1,1s-.448,1-1,1h-2.925c-.044,.352-.075,.706-.075,1.063v.937h3c.552,0,1,.448,1,1s-.448,1-1,1h-3v1c0,.343,.035,.677,.101,1h2.899c.552,0,1,.448,1,1s-.448,1-1,1h-1.977c.913,1.208,2.347,2,3.977,2h6c2.761,0,5-2.239,5-5v-3.937c0-2.068-.751-4.066-2.113-5.623Z"/>
</svg>
