<svg id="Layer_1" viewBox="0 0 24 24" xmlns="http://www.w3.org/2000/svg" data-name="Layer 1"><path d="m12 6c-.801 0-1.555.312-2.121.879-.566.566-.879 1.319-.879 2.121s.315 1.558.888 2.129l1.902 1.764c.117.109.303.109.42 0l1.938-1.798c.54-.541.853-1.294.853-2.096s-.313-1.555-.879-2.121c-.566-.567-1.32-.879-2.121-.879zm0 4.5c-.828 0-1.5-.672-1.5-1.5s.672-1.5 1.5-1.5 1.5.672 1.5 1.5-.672 1.5-1.5 1.5zm4-10.5h-8c-2.757 0-5 2.243-5 5v10c0 2.414 1.721 4.434 4 4.899v2.101h-1c-.553 0-1 .448-1 1s.447 1 1 1h12c.553 0 1-.448 1-1s-.447-1-1-1h-1v-2.101c2.279-.465 4-2.484 4-4.899v-10c0-2.757-2.243-5-5-5zm-1 22h-6v-2h6zm.535-9.464-1.964 1.823c-.44.409-1.006.613-1.571.613s-1.131-.205-1.571-.613l-1.928-1.789c-.978-.975-1.501-2.234-1.501-3.57s.521-2.592 1.465-3.536c.945-.944 2.2-1.464 3.535-1.464s2.59.52 3.535 1.464c.944.944 1.465 2.2 1.465 3.536s-.521 2.592-1.465 3.536z"/></svg>