<svg id="Layer_1" viewBox="0 0 24 24" xmlns="http://www.w3.org/2000/svg" data-name="Layer 1"><path d="m13 22c0 1.105-.895 2-2 2h-9c-1.105 0-2-.895-2-2s.895-2 2-2h9c1.105 0 2 .895 2 2zm10-17h-3c0-1.105-.895-2-2-2h-1v6h1c1.105 0 2-.895 2-2h3c.552 0 1-.448 1-1s-.448-1-1-1zm-8.469-3.609.469.391v8.437l-.469.391c-1.078.899-2.438 1.391-3.842 1.391h-.815l-.75 6h-6.396l.67-6.076c-1.922-.291-3.398-1.936-3.398-3.94v-3.984c0-2.21 1.791-4.001 4-4.001h6.69c1.404 0 2.763.492 3.842 1.391zm-3.531 6.609c0-.552-.448-1-1-1h-5c-.552 0-1 .448-1 1s.448 1 1 1h5c.552 0 1-.448 1-1zm0-4c0-.552-.448-1-1-1h-5c-.552 0-1 .448-1 1s.448 1 1 1h5c.552 0 1-.448 1-1z"/></svg>