<svg id="Layer_1" viewBox="0 0 24 24" xmlns="http://www.w3.org/2000/svg" data-name="Layer 1"><path d="m23.265 8.379-.983-.567c.129-.418.218-.853.218-1.313s-.09-.895-.218-1.313l.983-.567c.479-.275.643-.887.367-1.366-.276-.478-.886-.643-1.366-.367l-.977.563c-.605-.652-1.393-1.126-2.289-1.33v-1.121c0-.552-.448-1-1-1s-1 .448-1 1v1.121c-.896.205-1.685.678-2.289 1.33l-.977-.563c-.48-.276-1.09-.112-1.366.367s-.112 1.09.367 1.366l.983.567c-.129.418-.218.853-.218 1.313s.09.895.218 1.313l-.983.567c-.479.275-.643.887-.367 1.366.277.482.895.64 1.366.367l.977-.563c.605.652 1.393 1.126 2.289 1.33v1.121c0 .552.448 1 1 1s1-.448 1-1v-1.121c.896-.205 1.685-.678 2.289-1.33l.977.563c.47.273 1.088.116 1.366-.367.276-.479.112-1.09-.367-1.366zm-5.265-.379c-.827 0-1.5-.673-1.5-1.5s.673-1.5 1.5-1.5 1.5.673 1.5 1.5-.673 1.5-1.5 1.5zm6 4.52v2.48c0 2.757-2.243 5-5 5h-6v2h4c.552 0 1 .448 1 1s-.448 1-1 1h-10c-.552 0-1-.448-1-1s.448-1 1-1h4v-2h-6c-2.757 0-5-2.243-5-5v-8c0-2.757 2.243-5 5-5h5.798c-.818 1.306-1.298 2.845-1.298 4.5 0 4.694 3.806 8.5 8.5 8.5 2.342 0 4.463-.948 6-2.48z"/></svg>