<svg id="Layer_1" viewBox="0 0 24 24" xmlns="http://www.w3.org/2000/svg" data-name="Layer 1"><path d="m10 19c0 2.757-2.243 5-5 5s-5-2.243-5-5 2.243-5 5-5 5 2.243 5 5zm3.5-14c1.381 0 2.5-1.119 2.5-2.5s-1.119-2.5-2.5-2.5-2.5 1.119-2.5 2.5 1.119 2.5 2.5 2.5zm5.74 9.024-2.263-3.66c-.119-.203-.008-.364.277-.364h1.746c.552 0 1-.447 1-1s-.448-1-1-1h-1.674c-.166 0-.328.023-.486.056l-3.656-1.678c-1.417-.789-3.231-.288-4.056 1.124l-1.19 2.116c-.446.733-.558 1.624-.305 2.444.245.794.809 1.451 1.555 1.813l1.812 1.169v3.955c0 .553.448 1 1 1s1-.447 1-1v-3.955c0-.684-.343-1.312-.916-1.68l-.825-.533 2.313-4.079 1.576.725c-.219.557-.254 1.239.039 1.792l1.921 3.107c-1.82.748-3.107 2.536-3.107 4.622 0 2.757 2.243 5 5 5s5-2.243 5-5c0-2.675-2.117-4.848-4.76-4.976z"/></svg>