<svg id="Layer_1" viewBox="0 0 24 24" xmlns="http://www.w3.org/2000/svg" data-name="Layer 1"><path d="m11.888 2.103-2.476-1.671c-.858-.578-1.966-.578-2.824 0l-2.476 1.671c-.696.47-1.112 1.252-1.112 2.092v3.281c0 1.392 1.132 2.524 2.524 2.524h4.952c1.392 0 2.524-1.132 2.524-2.524v-3.281c0-.84-.416-1.623-1.112-2.092zm-2.888 3.897c0 .276-.224.5-.5.5h-1c-.276 0-.5-.224-.5-.5v-1c0-.276.224-.5.5-.5h1c.276 0 .5.224.5.5zm14.341 7.345-6.872 7.44c-1.893 2.049-4.556 3.215-7.346 3.215h-5.12c-2.209 0-4-1.791-4-4v-4c0-2.209 1.791-4 4-4h7.787c1.374 0 2.46 1.26 2.164 2.685-.193.926-1.004 1.598-1.94 1.732l-4.162.583c-.547.078-.927.585-.848 1.131.078.547.585.926 1.131.848l4.252-.596c2.062-.294 3.617-2.087 3.617-4.17 0-.219-.032-.429-.065-.638l3.541-3.737c.455-.5 1.097-.803 1.794-.835.692-.034 1.363.209 1.878.678 1.052.958 1.138 2.602.189 3.665z"/></svg>