<svg id="Layer_1" viewBox="0 0 24 24" xmlns="http://www.w3.org/2000/svg" data-name="Layer 1"><path d="m24 3c0 2.631-3.391 5.403-5.074 6.688-.546.416-1.306.416-1.851 0-1.684-1.285-5.074-4.057-5.074-6.688 0-1.657 1.343-3 3-3s3 1.343 3 3c0-1.657 1.343-3 3-3s3 1.343 3 3zm-12 12.422c.768 0 1.537-.292 2.122-.876l2.738-2.738c-.353-.12-.691-.296-.999-.531-3.943-3.008-5.86-5.716-5.86-8.277h-5c-1.806 0-3.377.972-4.256 2.411l9.134 9.135c.585.584 1.353.876 2.122.876zm8.546-4.473-5.011 5.011c-.975.975-2.255 1.462-3.536 1.462s-2.561-.487-3.536-1.462l-8.417-8.418c-.014.153-.046.301-.046.458v11c0 2.757 2.243 5 5 5h14c2.757 0 5-2.243 5-5v-11.334c-.864 1.058-2.012 2.15-3.454 3.284z"/></svg>