<svg id="Layer_1" viewBox="0 0 24 24" xmlns="http://www.w3.org/2000/svg" data-name="Layer 1"><path d="m21.5 5h-19c-1.381 0-2.5-1.119-2.5-2.5 0-1.381 1.119-2.5 2.5-2.5h19c1.381 0 2.5 1.119 2.5 2.5 0 1.381-1.119 2.5-2.5 2.5zm-.5 2h-18c-.712 0-1.386-.154-2-.424v6.424c0 6.065 4.935 11 11 11s11-4.935 11-11v-6.424c-.614.269-1.288.424-2 .424zm-9 14c-3.309 0-6-2.691-6-6s2.691-6 6-6 6 2.691 6 6-2.691 6-6 6zm0-10c-2.206 0-4 1.794-4 4s1.794 4 4 4 4-1.794 4-4-1.794-4-4-4zm0 6c-1.103 0-2-.897-2-2s.897-2 2-2 2 .897 2 2-.897 2-2 2z"/></svg>