<?xml version="1.0" encoding="UTF-8"?>
<svg xmlns="http://www.w3.org/2000/svg" id="Layer_1" data-name="Layer 1" viewBox="0 0 24 24">
  <path d="m18,12c-3.309,0-6,2.691-6,6s2.691,6,6,6,6-2.691,6-6-2.691-6-6-6Zm0,10c-2.206,0-4-1.794-4-4,0-.74.216-1.424.567-2.019l5.452,5.453c-.595.351-1.279.567-2.019.567Zm3.433-1.981l-5.452-5.453c.595-.351,1.279-.567,2.019-.567,2.206,0,4,1.794,4,4,0,.74-.216,1.424-.567,2.019ZM2.995,8C1.339,8-.005,6.657-.005,5-.005,2.238,2.233,0,4.995,0c0,0,14.145.002,14.218.005,2.762.12,4.903,2.456,4.782,5.218-.102,1.575-1.42,2.796-3,2.777H2.995Zm9.715,16h-6.715c-2.76-.003-4.997-2.24-5-5v-8c0-.552.448-1,1-1h15.995c-4.409.003-7.995,3.59-7.995,8,0,2.387,1.051,4.533,2.715,6Z"/>
</svg>
