<svg id="Layer_1" viewBox="0 0 24 24" xmlns="http://www.w3.org/2000/svg" data-name="Layer 1"><path d="m1.928 9.699c.146-.365.31-.721.491-1.068.852-1.633 2.57-2.631 4.412-2.631h6.003l1.474-3.538c.62-1.491 2.077-2.462 3.692-2.462h3c.552 0 1 .448 1 1s-.448 1-1 1h-3c-.807 0-1.535.485-1.846 1.231l-1.154 2.769h2.17c1.841 0 3.56.998 4.411 2.631.181.347.345.702.491 1.066-.746.393-1.695.379-2.419-.138-.996-.71-2.337-.704-3.326.015-.819.595-1.875.538-2.707-.038-.977-.676-2.273-.673-3.246.005-.824.575-1.877.64-2.686.044-.992-.73-2.341-.738-3.339-.026-.727.518-1.671.525-2.421.141zm20.748 1.925c-.524.242-1.095.376-1.676.376-.881 0-1.77-.288-2.507-.81-.295-.209-.69-.211-.986-.001-1.475 1.047-3.542 1.046-5.015 0-.295-.209-.69-.21-.985 0-1.472 1.045-3.534 1.045-5.006.007-.298-.21-.697-.218-.994-.007-1.223.869-2.862 1.032-4.182.431-.207.912-.325 1.852-.325 2.809-.002 2.923.981 5.667 2.736 7.815.927 1.135 2.347 1.756 3.813 1.756h5.544c2.864-2.792 2.907-5.967 2.907-6 0-.552.448-1 1-1s1 .448 1 1c0 .145-.039 3.044-2.25 6h.701c1.466 0 2.885-.621 3.813-1.756 1.755-2.148 2.738-4.893 2.736-7.815 0-.955-.118-1.893-.324-2.805z"/></svg>