<svg id="Layer_1" viewBox="0 0 24 24" xmlns="http://www.w3.org/2000/svg" data-name="Layer 1"><path d="m10 9c-.827 0-1.5-.673-1.5-1.5s.673-1.5 1.5-1.5 1.5.673 1.5 1.5-.673 1.5-1.5 1.5zm-.822 5.093c-1.2.248-2.226 1.024-2.779 2.161-.242.502-.85.702-1.336.463-.497-.241-.704-.839-.463-1.336.868-1.788 2.587-3.024 4.523-3.314.09-.387.218-.766.423-1.113-1.714-.225-3.046-1.68-3.046-3.454 0-1.93 1.57-3.5 3.5-3.5s3.5 1.57 3.5 3.5c0 .533-.129 1.034-.344 1.487.368.018.738.088 1.101.211l5.657 2.049c.051-.409.086-.824.086-1.247 0-5.523-4.477-10-10-10s-10 4.477-10 10 4.477 10 10 10c.431 0 .853-.036 1.27-.089-.033-.13-2.084-5.686-2.092-5.817zm14.529 8.183-3.687-3.689 2.687-2.687c.242-.242.344-.59.27-.924-.075-.334-.314-.606-.636-.723l-8.731-3.162c-.717-.245-1.495-.065-2.031.472-.54.54-.717 1.327-.464 2.047l3.156 8.714c.116.322.39.562.724.636.33.074.683-.027.924-.269l2.689-2.689 3.687 3.689c.391.391 1.023.39 1.414 0 .391-.391.391-1.024 0-1.415z"/></svg>