<svg id="Layer_1" viewBox="0 0 24 24" xmlns="http://www.w3.org/2000/svg" data-name="Layer 1"><path d="m10 2c0-1.105.895-2 2-2s2 .895 2 2-.895 2-2 2-2-.895-2-2zm2 18c-1.105 0-2 .895-2 2s.895 2 2 2 2-.895 2-2-.895-2-2-2zm6.5-10.4c-.221 0-.4.179-.4.4v4c0 .221.179.4.4.4s.4-.179.4-.4v-4c0-.221-.179-.4-.4-.4zm-8.6.4v4c0 .221-.179.4-.4.4s-.4-.179-.4-.4v-4c0-.221.179-.4.4-.4s.4.179.4.4zm13.1 11h-4.695c2.835-1.992 4.695-5.28 4.695-9s-1.861-7.008-4.695-9h4.695c.553 0 1-.448 1-1s-.447-1-1-1h-7.141c.083.321.141.653.141 1 0 2.209-1.791 4-4 4s-4-1.791-4-4c0-.347.058-.679.141-1h-7.141c-.553 0-1 .448-1 1s.447 1 1 1h4.695c-2.834 1.992-4.695 5.28-4.695 9s1.861 7.008 4.695 9h-4.695c-.553 0-1 .448-1 1s.447 1 1 1h7.141c-.083-.321-.141-.653-.141-1 0-2.209 1.791-4 4-4s4 1.791 4 4c0 .347-.058.679-.141 1h7.141c.553 0 1-.448 1-1s-.447-1-1-1zm-16.8-5h-1.4c-.442 0-.8-.358-.8-.8v-6.4c0-.442.358-.8.8-.8s.8.358.8.8v5.601h.601c.442 0 .8.358.8.8s-.358.8-.8.8zm5.3-2c0 1.103-.897 2-2 2s-2-.897-2-2v-4c0-1.103.897-2 2-2s2 .897 2 2zm2.5.4c.221 0 .4-.18.4-.4v-.429c-.311-.11-.533-.406-.533-.754 0-.442.358-.816.8-.816h.533c.441 0 .8.375.8.816v1.184c0 1.103-.897 2-2 2s-2-.897-2-2v-4c0-1.103.897-2 2-2s2 .897 2 2c0 .442-.358.8-.8.8s-.8-.358-.8-.8c0-.221-.18-.4-.4-.4s-.4.18-.4.4v4c0 .221.18.4.4.4zm2.5-.4v-4c0-1.103.897-2 2-2s2 .897 2 2v4c0 1.103-.897 2-2 2s-2-.897-2-2z"/></svg>