<svg id="Layer_1" viewBox="0 0 24 24" xmlns="http://www.w3.org/2000/svg" data-name="Layer 1"><path d="m24 6.857c0 2.004-.978 6.143-4 6.143-1.103 0-2-.897-2-2s.897-2 2-2c.557 0 1.061.23 1.424.599.377-.886.576-1.998.576-2.742 0-1.231-.387-1.857-2.5-1.857-.552 0-1-.447-1-1s.448-1 1-1c2.986 0 4.5 1.298 4.5 3.857zm-7-1.857c0 2.761-2.239 5-5 5s-5-2.239-5-5 2.239-5 5-5 5 2.239 5 5zm-2 0c0-.552-.448-1-1-1h-1v-1c0-.552-.448-1-1-1s-1 .448-1 1v1h-1c-.552 0-1 .448-1 1s.448 1 1 1h1v1c0 .552.448 1 1 1s1-.448 1-1v-1h1c.552 0 1-.448 1-1zm-11 4c-.557 0-1.061.23-1.424.599-.377-.886-.576-1.998-.576-2.742 0-1.231.387-1.857 2.5-1.857.552 0 1-.447 1-1s-.448-1-1-1c-2.986 0-4.5 1.298-4.5 3.857 0 2.004.978 6.143 4 6.143 1.103 0 2-.897 2-2s-.897-2-2-2zm12.03 1.706c-1.14.809-2.525 1.294-4.03 1.294s-2.89-.479-4.029-1.286c.124.983-.246 1.969-.803 2.703.767.913 1.719 1.604 2.672 2.044-.826.557-1.32 1.554-1.142 2.625l.987 4.111c.254 1.058 1.2 1.803 2.288 1.803 1.063 0 1.993-.712 2.271-1.738l1.131-4.176c.181-1.084-.329-2.091-1.173-2.644.943-.441 1.881-1.124 2.632-2.022-.56-.736-.931-1.727-.805-2.714z"/></svg>