<svg id="Layer_1" viewBox="0 0 24 24" xmlns="http://www.w3.org/2000/svg" data-name="Layer 1"><path d="m23.892 9.45-3.149 5.787.884.476c1.011.542 1.553 1.705 1.316 2.827-.304 1.438-.936 2.887-1.877 4.303-.675 1.021-1.975 1.412-3.095.989-.21-.078-.419-.171-.629-.257.462-1.069 1.036-2.979 1.202-4.108.053-.362-.395-.569-.656-.313-1.235 1.211-2.665 2.5-3.416 3.019-.477-.276-.942-.56-1.375-.858-.615-.423-1.017-1.089-1.101-1.827-.085-.743.158-1.487.666-2.042.809-.885 1.52-1.796 2.112-2.709.744-1.146 2.208-1.524 3.407-.88l.8.431 3.125-5.739c.249-.492.851-.69 1.343-.442.493.249.691.851.442 1.343zm-20.892-3.45h18c1.657 0 3-1.343 3-3s-1.343-3-3-3h-11v2c0 .552-.448 1-1 1s-1-.448-1-1v-2h-2v2c0 .552-.448 1-1 1s-1-.448-1-1v-2h-1c-1.657 0-3 1.343-3 3s1.343 3 3 3zm0 8h9.846c.081-.117.175-.234.251-.352 1.111-1.712 3.137-2.459 5.02-1.954l2.012-3.694h-10.129v2c0 .552-.448 1-1 1s-1-.448-1-1v-2h-2v2c0 .552-.448 1-1 1s-1-.448-1-1v-2h-1c-1.657 0-3 1.343-3 3s1.343 3 3 3zm7.01 5.714c-.161-1.362.318-2.714 1.259-3.714h-5.269v2c0 .552-.448 1-1 1s-1-.448-1-1v-2h-1c-1.657 0-3 1.343-3 3s1.343 3 3 3h7.974c-.516-.658-.868-1.438-.964-2.286z"/></svg>