<svg id="Layer_1" viewBox="0 0 24 24" xmlns="http://www.w3.org/2000/svg" data-name="Layer 1"><path d="m20 4.965c-1.222 0-4 4.253-4 9.5s2.472 9.5 4 9.5 4-4.219 4-9.465-2.778-9.535-4-9.535zm0 16.785s-.93-3.235-.93-7.226.93-7.226.93-7.226.93 3.235.93 7.226-.93 7.226-.93 7.226z"/><path d="m16.929.864c-.537-1.054-5.523-1.523-10.17.854s-7.328 6.434-6.657 7.751 5.523 1.523 10.17-.854c4.647-2.376 7.194-6.698 6.657-7.752zm-8.057 5.131c-3.534 1.807-6.808 2.471-6.808 2.471s2.457-2.267 5.991-4.074 6.808-2.472 6.808-2.472-2.457 2.267-5.991 4.074z"/><path d="m4.304 14.22c-3.697 3.697-5.001 8.386-3.955 9.431s5.735-.259 9.431-3.955 4.792-8.594 3.955-9.431-5.735.258-9.431 3.955zm3.333 3.416c-2.812 2.812-5.727 4.455-5.727 4.455s1.643-2.916 4.455-5.727c2.812-2.812 5.727-4.455 5.727-4.455s-1.643 2.916-4.455 5.727z"/></svg>