<svg id="Layer_1" viewBox="0 0 24 24" xmlns="http://www.w3.org/2000/svg" data-name="Layer 1"><path d="m12.996 10.532c-.056.091 2.674-1.454 2.718-1.473.793-.44 1.281-1.278 1.281-2.186v-2.958c0-.114-.025-.222-.04-.333l-3.956 2.261-.004 4.689zm2.915-8.657c-.062-.043-2.687-1.553-2.687-1.553-.377-.211-.729-.322-1.231-.322-.43 0-.854.113-1.229.325 0 0-2.612 1.506-2.674 1.549l3.912 2.235zm-7.651 7.115c.103.053 2.68 1.558 2.732 1.527l.004-4.677-3.95-2.26c-.015.112-.045.22-.045.334v2.906c0 .894.482 1.726 1.26 2.17zm1.449 3.561c-1.007-.934-2.66-.748-3.412.498-.488.81-.35 1.855.245 2.589l1.788 2.304c.339.436.26 1.064-.177 1.403-.436.339-1.064.26-1.403-.177l-1.788-2.304c-1.122-1.383-1.285-3.345-.378-4.848.123-.204.266-.391.417-.568v-5.844c0-1.308-.941-2.499-2.242-2.63-1.497-.149-2.759 1.022-2.759 2.488v10.547c0 2.134.853 4.18 2.369 5.682l1.792 1.775c.37.343.855.533 1.36.533h7.479c.552 0 1-.448 1-1v-3.82c0-1.655-.684-3.237-1.89-4.371l-2.402-2.258zm11.533-9.576c-1.301.13-2.242 1.322-2.242 2.63v5.844c.151.177.293.363.417.568.906 1.503.744 3.465-.378 4.848l-3.038 3.024v3.112c0 .352-.072.686-.184 1h2.664c.504 0 .99-.19 1.36-.533l1.79-1.772c1.517-1.502 2.371-3.549 2.371-5.685v-10.549c0-1.466-1.261-2.637-2.758-2.487zm-3.538 10.074s0 0 0 0c-.752-1.246-2.405-1.432-3.412-.498l-.832.782c1.151 1.075 1.939 2.474 2.304 3.987l1.695-1.682c.595-.734.733-1.78.245-2.589z"/></svg>