<svg id="Layer_1" viewBox="0 0 24 24" xmlns="http://www.w3.org/2000/svg" data-name="Layer 1"><path d="m3.665 6.251c1.159-.945 2.548-1.644 4.107-1.999.541-.124 1.104.005 1.54.353.437.349.688.869.688 1.426v6.554zm15.729 8.437c-.349-.437-.869-.688-1.426-.688h-6.968v9.946c4.21-.416 7.771-3.428 8.748-7.717.124-.542-.005-1.104-.353-1.541zm-10.395-.274-6.749-6.75c-1.705 2.089-2.552 4.859-2.152 7.756.606 4.387 4.094 7.875 8.481 8.481.142.02.28.015.421.029v-9.516zm11.006-8.572-.004 4.689c-.056.091 2.674-1.454 2.718-1.473.793-.44 1.281-1.278 1.281-2.186v-2.957c0-.114-.025-.222-.04-.333l-3.956 2.261zm.225-5.52c-.377-.211-.729-.322-1.231-.322-.43 0-.854.113-1.229.325 0 0-2.612 1.506-2.674 1.549l3.912 2.235 3.909-2.234c-.062-.043-2.687-1.553-2.687-1.553zm-6.225 3.592v2.906c0 .894.482 1.726 1.26 2.17.103.053 2.68 1.558 2.732 1.527l.004-4.677-3.95-2.26c-.015.112-.045.22-.045.334z"/></svg>