<svg id="Layer_1" viewBox="0 0 24 24" xmlns="http://www.w3.org/2000/svg" data-name="Layer 1"><path d="m.476 11.503c-.51-.812-.615-1.79-.289-2.683 1.602-4.384 5.873-7.42 10.813-7.783-.02-.565.434-1.037 1-1.037.5 0 1.02.472 1 1.037 4.94.363 9.211 3.399 10.813 7.783.326.893.221 1.87-.289 2.683-.534.85-1.419 1.394-2.427 1.492-.032.003-1.143.005-1.143.005-.219-1.749-1.454-3.228-3.172-3.743-.958-4.07-3.969-6.868-4.109-6.995-.381-.35-.967-.35-1.348 0-.14.127-3.151 2.926-4.108 6.995-1.72.514-2.954 1.994-3.173 3.744h-1.045c-1.105-.104-1.99-.647-2.524-1.497zm23.524 10.497c0 1.105-1 2-2 2-1.105 0-2-.895-2-2 0-.738.405-1.376 1-1.723v-.777c0-.827-.673-1.5-1.5-1.5h-1.548c-.351 3.165-2.746 4.775-4.647 5.703-.413.202-.859.3-1.304.297-.463-.003-.924-.117-1.347-.34-1.85-.978-4.247-2.545-4.603-5.66h-1.55c-.827 0-1.5.673-1.5 1.5v.777c.595.346 1 .984 1 1.723 0 1.105-.895 2-2 2s-2-.895-2-2c0-.738.405-1.376 1-1.723v-.777c0-1.93 1.57-3.5 3.5-3.5h1.5v-2.429c0-1.077.69-2.032 1.712-2.371l2.988-.99c.844-.28 1.757-.28 2.601 0l2.987.99c1.023.339 1.713 1.295 1.713 2.372v2.428h1.5c1.93 0 3.5 1.57 3.5 3.5v.777c.595.346 1 .984 1 1.723zm-10.447-6.005-2.792-.559c-.304-.061-.514-.36-.449-.678.055-.272.309-.458.587-.458h2.307c.203 0 .387.087.515.226.154.167.437.274.664.274.655 0 1.01-.763.592-1.266-.422-.509-1.059-.833-1.77-.833h-.405v-.4c0-.442-.358-.8-.8-.8s-.8.358-.8.8v.4h-.28c-1.091 0-2.046.786-2.199 1.866-.163 1.158.613 2.216 1.725 2.439l2.791.559c.304.062.514.359.451.677-.054.273-.308.46-.586.46h-2.334c-.203 0-.387-.087-.515-.226-.154-.167-.437-.274-.664-.274-.655 0-1.01.763-.592 1.266.422.509 1.059.833 1.77.833h.431v.4c0 .442.358.8.8.8s.8-.358.8-.8v-.4h.28c1.091 0 2.046-.785 2.199-1.865.164-1.158-.613-2.217-1.725-2.439zm-4.011-7.508.529-.175c1.244-.412 2.614-.412 3.86 0l.528.175c-.676-1.795-1.758-3.231-2.458-4.035-.701.805-1.782 2.241-2.459 4.036z"/></svg>