<svg id="Layer_1" viewBox="0 0 24 24" xmlns="http://www.w3.org/2000/svg" data-name="Layer 1"><path d="m2.395 16.061c-.87.104-1.696.437-2.395.964v-12.025c0-2.376 1.672-4.425 4-4.9v15.9h-1c-.203 0-.406.02-.605.061zm15.605-6.061c.692 0 1.359.097 2 .263v-5.263c0-2.761-2.239-5-5-5h-9v16h4.263c.892-3.445 4.017-6 7.737-6zm-8 8h-7c-1.657 0-3 1.343-3 3s1.343 3 3 3h9.726c-1.667-1.467-2.726-3.61-2.726-6zm8-6c-3.314 0-6 2.686-6 6s2.686 6 6 6 6-2.686 6-6-2.686-6-6-6zm2.688 6.6h-5.003c.268 1.032 1.2 1.8 2.315 1.8.544 0 1.167-.156 1.564-.467.348-.273.843-.253 1.183.03.318.265.344.758.038 1.037-.702.64-1.758 1-2.785 1-2.498-.01-4.502-2.32-3.89-4.954.332-1.439 1.502-2.606 2.941-2.937 2.309-.531 4.356.935 4.836 2.999.188.76-.415 1.492-1.199 1.492zm-.513-1.6h-4.35c.381-.824 1.209-1.4 2.175-1.4s1.794.576 2.175 1.4z"/></svg>