<svg id="Layer_1" viewBox="0 0 24 24" xmlns="http://www.w3.org/2000/svg" data-name="Layer 1"><path d="m21 11h-10c-1.657 0-3 1.343-3 3v7c0 1.657 1 3 3 3 .569 0 1.144-.132 1.547-.547l1.16-1.16c.188-.188.442-.293.707-.293h.586c.552 0 1 .448 1 1v.328c0 .371.301.672.672.672.828 0 1.558-.316 2.121-.878l1.122-1.122h1.086c1.657 0 3-1.343 3-3v-5c0-1.657-1.343-3-3-3zm-1 8h-1c-.553 0-1-.447-1-1s.447-1 1-1h1c.553 0 1 .447 1 1s-.447 1-1 1zm0-3h-1c-.553 0-1-.447-1-1s.447-1 1-1h1c.553 0 1 .447 1 1s-.447 1-1 1zm-14 5v-7c0-2.757 2.243-5 5-5h7v-4c0-2.757-2.243-5-5-5h-5.343c-1.336 0-2.592.521-3.536 1.465l-2.656 2.656c-.944.944-1.465 2.2-1.465 3.536v11.343c0 2.757 2.5 5 5 5h2.026c-.635-.838-1.026-1.87-1.026-3zm6-17c0-.553.447-1 1-1s1 .447 1 1v2c0 .553-.447 1-1 1s-1-.447-1-1zm-3 0c0-.553.447-1 1-1s1 .447 1 1v2c0 .553-.447 1-1 1s-1-.447-1-1zm-3 0c0-.553.447-1 1-1s1 .447 1 1v2c0 .553-.447 1-1 1s-1-.447-1-1z"/></svg>