<svg id="Layer_1" viewBox="0 0 24 24" xmlns="http://www.w3.org/2000/svg" data-name="Layer 1"><path d="m17 5.142v-.642c0-.828-.672-1.5-1.5-1.5h-2.5v-2c0-.553-.448-1-1-1s-1 .447-1 1v2h-2.5c-.828 0-1.5.672-1.5 1.5v.642c-1.72.447-3 1.999-3 3.858v1c0 1.201.542 2.266 1.382 3-.84.734-1.382 1.799-1.382 3v4c0 2.209 1.791 4 4 4h8c2.209 0 4-1.791 4-4v-4c0-1.201-.542-2.266-1.382-3 .84-.734 1.382-1.799 1.382-3v-1c0-1.859-1.28-3.411-3-3.858zm-1 8.858h-8c-.552 0-1-.448-1-1s.448-1 1-1h8c.552 0 1 .448 1 1s-.448 1-1 1z"/></svg>