<svg id="Layer_1" viewBox="0 0 24 24" xmlns="http://www.w3.org/2000/svg" data-name="Layer 1"><path d="m17.5 8c-3.59 0-6.5 2.91-6.5 6.5 0 2.3 1.198 4.316 3 5.471v3.024c0 .857 1.005 1.319 1.655.761l1.845-1.581 1.845 1.581c.65.558 1.655.095 1.655-.761v-3.024c1.802-1.155 3-3.172 3-5.471 0-3.59-2.91-6.5-6.5-6.5zm1.315 11h-.315c0 .552-.448 1-1 1s-1-.448-1-1c-1.113 0-2.087-.61-2.605-1.513-.38-.662.11-1.487.874-1.487.359 0 .686.196.869.506.174.296.495.494.862.494h2.35c.334 0 .629-.251.649-.585.02-.324-.206-.602-.52-.655l-3.286-.548c-1.277-.213-2.203-1.312-2.192-2.61.011-1.451 1.234-2.603 2.685-2.603h.315c0-.552.448-1 1-1s1 .448 1 1c1.113 0 2.087.61 2.605 1.513.38.662-.11 1.487-.874 1.487-.359 0-.686-.196-.869-.506-.174-.295-.495-.494-.862-.494h-2.376c-.36 0-.649.305-.622.67.021.292.255.525.544.574l3.261.544c1.277.213 2.203 1.312 2.193 2.61-.011 1.451-1.234 2.603-2.685 2.603zm5.185-15v2.791c0 .795-.899 1.278-1.544.814-.007-.005-.014-.01-.022-.016-.266-.19-.434-.487-.434-.813v-1.341c0-.467-.294-.908-.747-1.022-1.042-.262-1.465-1.065-1.636-1.673-.123-.436-.511-.74-.964-.74h-13.306c-.454 0-.842.307-.965.744-.171.605-.591 1.4-1.619 1.665-.458.118-.763.553-.763 1.026v9.217c0 .454.305.841.742.965.609.172 1.411.595 1.672 1.637.113.452.555.745 1.022.745h4.583c.545 0 .99.437 1 .982.01.559-.44 1.018-1 1.018h-6.018c-2.209 0-4-1.791-4-4v-11.999c-.001-2.209 1.79-4 3.999-4h16c2.209 0 4 1.791 4 4zm-18 8c0 .552.448 1 1 1h2.141c-.087.488-.141.987-.141 1.5 0 .509.046 1.01.134 1.5h-3.124c-.436-.87-1.14-1.574-2.01-2.01v-7.975c.865-.439 1.574-1.145 2.01-2.015h11.98c.436.87 1.14 1.574 2.01 2.01v.378c-.792-.245-1.628-.388-2.5-.388-1.442 0-2.8.364-3.991 1h-6.509c-.552 0-1 .448-1 1s.448 1 1 1h4.031c-.511.601-.938 1.273-1.268 2h-2.763c-.552 0-1 .448-1 1z"/></svg>