<?xml version="1.0" encoding="UTF-8"?>
<svg xmlns="http://www.w3.org/2000/svg" id="Layer_1" data-name="Layer 1" viewBox="0 0 24 24">
  <path d="M16.361,8.06l-.734,1.405c-.172,.329-.512,.535-.883,.535h-5.484c-.372,0-.713-.206-.885-.535l-.7-1.334c-.431-1.002-.35-2.07,.183-2.929L10.262,.193c.208-.344,.738-.197,.738,.205V6c0,.553,.448,1,1,1s1-.447,1-1V.399c0-.402,.53-.55,.738-.205l2.377,4.964c.562,.903,.644,1.972,.247,2.902Zm7.639,6.44c0,1.852-1.446,3.372-3.268,3.492-1.406,3.063-4.866,6.009-8.732,6.009s-7.327-2.945-8.732-6.009c-1.822-.12-3.268-1.641-3.268-3.492,0-1.697,1.068-2.676,2-3.138v-.362c0-1.115,.455-1.793,.837-2.164,.871-.847,2.062-.831,2.19-.836h.514s.762,1.809,1.061,2.393c.519,.991,1.537,1.607,2.657,1.607h5.482c1.118,0,2.137-.615,2.658-1.608,.307-.608,1.067-2.392,1.067-2.392h.534c2.201,0,3,1.794,3,3v.362c.933,.462,2,1.44,2,3.138Zm-14,1c0-.828-.672-1.5-1.5-1.5s-1.5,.672-1.5,1.5,.672,1.5,1.5,1.5,1.5-.672,1.5-1.5Zm7,0c0-.828-.672-1.5-1.5-1.5s-1.5,.672-1.5,1.5,.672,1.5,1.5,1.5,1.5-.672,1.5-1.5Z"/>
</svg>
