<svg id="Layer_1" viewBox="0 0 24 24" xmlns="http://www.w3.org/2000/svg" data-name="Layer 1"><path d="m19 2c0-1.105.895-2 2-2s2 .895 2 2-.895 2-2 2-2-.895-2-2zm-3 6c1.105 0 2-.895 2-2s-.895-2-2-2-2 .895-2 2 .895 2 2 2zm-6.994 1.592v-9.542c-5.049.501-9.006 4.771-9.006 9.95 0 2.401.851 4.605 2.267 6.331zm6.994-.592c-1.349 0-2.499.807-2.948 1.942-.203.512.22 1.058.794 1.058h4.309c.574 0 .997-.547.794-1.058-.449-1.135-1.6-1.942-2.948-1.942zm7.948-2.059c-.449-1.135-1.6-1.941-2.948-1.941-.382 0-.744.071-1.083.189.054.262.083.533.083.811 0 .732-.211 1.41-.555 2h3.709c.574 0 .997-.547.794-1.059zm-.241 15.352-5.969-5.969c.628-.767 1.137-1.632 1.517-2.563-.346.144-.714.239-1.101.239h-4.309c-.952 0-1.837-.467-2.368-1.248-.512-.755-.619-1.708-.285-2.548.313-.79.833-1.465 1.477-1.995-.421-.634-.67-1.392-.67-2.208 0-2.202 1.788-3.992 3.988-3.999-1.417-1.065-3.124-1.765-4.981-1.951v9.955c0 .265-.105.52-.293.707l-7.031 7.031c1.724 1.409 3.923 2.257 6.318 2.257s4.6-.85 6.324-2.262l5.969 5.969c.391.391 1.023.391 1.414 0s.391-1.023 0-1.414z"/></svg>