<svg id="Layer_1" viewBox="0 0 24 24" xmlns="http://www.w3.org/2000/svg" data-name="Layer 1"><path d="m12 0c-6.617 0-12 5.383-12 12s5.383 12 12 12 12-5.383 12-12-5.383-12-12-12zm10 12c0 2.398-.85 4.6-2.262 6.324l-2.753-2.753c.002-.025.014-.046.014-.071v-9.5c0-1-1-1-1-1v-.5c0-.276-.224-.5-.5-.5h-1c-.276 0-.5.224-.5.5v.5s-1 0-1 1v1h-3c-.45 0-.885.112-1.284.302l-3.04-3.04c1.725-1.412 3.927-2.262 6.324-2.262 5.514 0 10 4.486 10 10zm-20 0c0-2.398.85-4.6 2.262-6.324l14.063 14.063c-1.725 1.412-3.927 2.262-6.324 2.262-5.514 0-10-4.486-10-10zm12.463 6.697c-.459.181-.95.29-1.463.29h-2c-2.206 0-4-1.794-4-4v-3.753z"/></svg>