<svg id="Layer_1" viewBox="0 0 24 24" xmlns="http://www.w3.org/2000/svg" data-name="Layer 1"><path d="m18 13c0 .552-.448 1-1 1h-8c-.552 0-1-.448-1-1s.448-1 1-1h8c.552 0 1 .448 1 1zm-9-3h8v-6h-8v2h-8c-.552 0-1 .448-1 1s.448 1 1 1h8zm0-8h8c.552 0 1-.448 1-1s-.448-1-1-1h-8c-.552 0-1 .448-1 1s.448 1 1 1zm11 12.944c.135.038 2.107-.593 2.283-.633.53-.157.832-.713.676-1.243-.157-.529-.71-.83-1.242-.675l-2 .591c-.53.157-.832.713-.676 1.243.129.435.527.717.959.717zm0 7.056h-1v-.5c0-1.381-1.119-2.5-2.5-2.5h-7c-1.381 0-2.5 1.119-2.5 2.5v.5h-1c-.553 0-1 .448-1 1s.447 1 1 1h14c.553 0 1-.448 1-1s-.447-1-1-1zm-15.717-9.607c-.529-.154-1.085.146-1.242.675-.156.53.146 1.086.676 1.243l2 .591c.515.157 1.087-.141 1.242-.675.156-.53-.146-1.086-.676-1.243zm18 4.796-2-.591c-.529-.156-1.085.146-1.242.675-.156.53.146 1.086.676 1.243l2 .591c.515.157 1.087-.141 1.242-.675.156-.53-.146-1.086-.676-1.243zm-15.324.084c-.156-.53-.713-.832-1.242-.675l-2 .591c-.53.157-.832.713-.676 1.243.155.534.727.832 1.242.675l2-.591c.53-.157.832-.713.676-1.243z"/></svg>