<svg id="Layer_1" viewBox="0 0 24 24" xmlns="http://www.w3.org/2000/svg" data-name="Layer 1"><path d="m.101 16h23.798c-.465 2.279-2.484 4-4.899 4h-6v2h4c.552 0 1 .448 1 1s-.448 1-1 1h-10c-.552 0-1-.448-1-1s.448-1 1-1h4v-2h-6c-2.414 0-4.434-1.721-4.899-4zm11.445-3.892c.261.133.566.145.836.034 3.752-1.546 4.582-3.994 4.618-5.794v-2.833c0-1.199-.765-2.259-1.903-2.637l-2.222-.737c-.563-.187-1.185-.187-1.749 0l-2.222.737c-1.138.377-1.903 1.437-1.903 2.637v2.854c.05 2.294 1.58 4.225 4.546 5.739zm-.909 1.781c-4.575-2.334-5.59-5.354-5.637-7.476v-2.898c0-.526.087-1.035.247-1.515h-.247c-2.757 0-5 2.243-5 5v7h10.937c-.1-.038-.205-.062-.3-.111zm8.363-11.889h-.247c.16.479.247.989.247 1.515v2.833c-.039 1.994-.851 5.581-5.855 7.644-.01.004-.021.005-.031.009h10.886v-7.001c0-2.757-2.243-5-5-5z"/></svg>