<svg id="Layer_1" viewBox="0 0 24 24" xmlns="http://www.w3.org/2000/svg" data-name="Layer 1"><path d="m14 7v-6.54c.913.346 1.753.879 2.465 1.59l3.484 3.486c.712.711 1.245 1.551 1.591 2.464h-6.54c-.552 0-1-.449-1-1zm-1.914 9.816h-.996v1.592h.996c.44 0 .796-.356.796-.796s-.356-.796-.796-.796zm.471-2.428c0-.44-.356-.796-.796-.796h-.671v1.592h.671c.44 0 .796-.356.796-.796zm9.443-3.903v8.515c0 2.757-2.243 5-5 5h-10c-2.757 0-5-2.243-5-5v-14c0-2.757 2.243-5 5-5h4.515c.163 0 .324.013.485.024v6.976c0 1.654 1.346 3 3 3h6.976c.011.161.024.322.024.485zm-16.4 4.915v-1.801h1.601c.442 0 .8-.358.8-.8s-.358-.8-.8-.8h-2.4c-.442 0-.8.358-.8.8v6.4c0 .442.358.8.8.8s.8-.358.8-.8v-2.2h1.601c.442 0 .8-.358.8-.8s-.358-.8-.8-.8h-1.601zm8.057.425c.296-.389.482-.866.492-1.39.027-1.34-1.216-2.436-2.556-2.436h-1.294c-.442 0-.8.358-.8.8v6.4c0 .442.358.8.8.8h1.678c1.181 0 2.263-.809 2.462-1.973.151-.882-.19-1.681-.782-2.202zm4.848.174 1.409-2.827c.269-.539-.123-1.173-.726-1.173-.307 0-.589.174-.726.449l-.864 1.733-.864-1.733c-.137-.275-.418-.449-.726-.449-.602 0-.994.634-.726 1.173l1.409 2.827-1.409 2.827c-.269.539.123 1.173.726 1.173.307 0 .589-.174.726-.449l.864-1.733.864 1.733c.137.275.418.449.726.449.602 0 .994-.634.726-1.173z"/></svg>