<svg id="Layer_1" viewBox="0 0 24 24" xmlns="http://www.w3.org/2000/svg" data-name="Layer 1"><path d="m23 20h-1v-16h1c.553 0 1-.448 1-1s-.447-1-1-1h-8.051c-.232-1.14-1.242-2-2.449-2h-1c-1.208 0-2.217.86-2.449 2h-8.051c-.553 0-1 .448-1 1s.447 1 1 1h1v16h-1c-.553 0-1 .448-1 1s.447 1 1 1h8.051c.232 1.14 1.242 2 2.449 2h1c1.208 0 2.217-.86 2.449-2h8.051c.553 0 1-.448 1-1s-.447-1-1-1zm-3.758-2.799-11.23 2.799s-3.032 0-3.042 0c-.748-.016-.862-1.088-.136-1.269l13.924-3.47c.535-.135 1.078.192 1.212.728.135.536-.191 1.079-.728 1.213zm0-4-14 3.5c-.522.134-1.08-.188-1.212-.728-.135-.536.191-1.079.728-1.213l14-3.5c.535-.136 1.078.192 1.212.728.135.536-.191 1.079-.728 1.213zm0-4-14 3.5c-.522.134-1.08-.188-1.212-.728-.135-.536.191-1.079.728-1.213l14-3.5c.535-.137 1.078.192 1.212.728.135.536-.191 1.079-.728 1.213zm-14-.5c-.522.134-1.08-.188-1.212-.728-.135-.536.191-1.079.728-1.213l11.008-2.761s3.254 0 3.264 0c.714.014.824 1.036.132 1.21l-13.919 3.491z"/></svg>