<svg id="Layer_1" viewBox="0 0 24 24" xmlns="http://www.w3.org/2000/svg" data-name="Layer 1"><path d="m12.928 7.999c.065 0 .131 0 .229.011-1.399.859-2.156 2.243-2.156 3.99s.756 3.13 2.154 3.989c-.068.007-.128.011-.176.011-1.042.047-2.079-.419-2.855-1.208-.751-.763-1.16-1.767-1.124-2.755l.002-.032v-.032c-.029-.994.394-2.005 1.157-2.774.759-.764 1.758-1.199 2.77-1.199zm11.108 4.001c0 .801-.312 1.555-.879 2.121l-2.157 2.158v1.721c0 1.654-1.346 3-3 3h-1.722l-2.157 2.157c-.585.585-1.353.877-2.121.877s-1.536-.292-2.121-.877l-2.157-2.157h-1.722c-1.654 0-3-1.346-3-3v-1.721l-2.157-2.158c-.567-.566-.879-1.32-.879-2.121s.312-1.555.879-2.122l2.157-2.157v-1.721c0-1.654 1.346-3 3-3h1.721l2.158-2.158c1.171-1.169 3.073-1.168 4.242 0l2.158 2.158h1.721c1.654 0 3 1.346 3 3v1.721l2.157 2.158c.566.566.879 1.32.879 2.121zm-11.036 0c0-1.308.596-2.136 1.874-2.607.637-.235 1.078-.803 1.125-1.448.044-.611-.273-1.178-.828-1.479-.522-.284-1.718-.466-2.149-.466-1.548-.014-3.121.62-4.281 1.789-1.14 1.147-1.772 2.679-1.739 4.207-.047 1.525.57 3.054 1.697 4.199 1.135 1.152 2.663 1.807 4.19 1.807.525.008 1.696-.161 2.282-.467.556-.301.873-.868.829-1.479-.047-.645-.488-1.213-1.125-1.447-1.278-.472-1.874-1.3-1.874-2.607z"/></svg>