<svg id="Layer_1" viewBox="0 0 24 24" xmlns="http://www.w3.org/2000/svg" data-name="Layer 1"><path d="m23.954 9.983c-.258-2.861-1.648-5.435-3.715-7.252-.013.015-2.387 2.403-2.387 2.403-.559.559-1.301.867-2.091.867s-1.533-.308-2.092-.867l-1.148-1.149c-.391-.391-.391-1.023 0-1.414s1.023-.391 1.414 0l1.149 1.149c.362.362.993.363 1.354 0l2.172-2.172c-1.225-.733-2.597-1.24-4.064-1.441-4.041-.556-7.909 1.057-10.323 4.282-1.291 1.596-4.223 7.191-4.223 8.611 0 .97.701 2 2 2h.33l.219 1.655c.327 2.477 2.458 4.345 4.957 4.345h.494c0 1.654 1.346 3 3 3h7c1.654 0 3-1.346 3-3v-.971c0-.896.263-1.732.739-2.354 1.678-2.192 2.465-4.924 2.215-7.692zm-12.954 5.017c-.552 0-1-.448-1-1s.448-1 1-1 1 .448 1 1-.448 1-1 1zm1.397-3.346c-.1.053-.727.418-.783.46-.174.132-.387.203-.605.203-.972 0-1.383-1.251-.593-1.817.194-.139.928-.552 1.048-.616.333-.175.62-.587.511-1.112-.072-.346-.355-.648-.689-.736-.425-.111-.736.06-.881.171-.127.098-.228.217-.298.351-.15.283-.544.47-.861.441-.741 0-1.23-.796-.869-1.443.199-.357.472-.675.806-.932.742-.573 1.695-.763 2.61-.522 1.073.282 1.913 1.17 2.14 2.263.278 1.336-.339 2.658-1.537 3.289zm9.31 1.139c.391.391.391 1.023 0 1.414s-1.023.391-1.414 0l-1.293-1.293-1.293 1.293c-.391.391-1.023.391-1.414 0s-.391-1.023 0-1.414l1.293-1.293-1.293-1.293c-.391-.391-.391-1.023 0-1.414s1.023-.391 1.414 0l1.293 1.293 1.293-1.293c.391-.391 1.023-.391 1.414 0s.391 1.023 0 1.414l-1.293 1.293z"/></svg>