<svg id="Layer_1" viewBox="0 0 24 24" xmlns="http://www.w3.org/2000/svg" data-name="Layer 1"><path d="m8 13c-2.757 0-5-2.243-5-5s2.243-5 5-5 5 2.243 5 5-2.243 5-5 5zm15.514 2.33-5.518-3.298c0-.011.003-.021.003-.032 0-1.105-.895-2-2-2s-2 .895-2 2 .895 2 2 2c.351 0 .675-.098.962-.257l5.523 3.301c.466.281 1.086.135 1.372-.343.284-.474.131-1.088-.343-1.372zm-23.514 7.67c0 .552.448 1 1 1h4.683l1.545-5.658-1.912-2.869c-3.093 1.107-5.316 4.091-5.316 7.527zm10.684-7.527-1.912 2.869 1.545 5.658h4.683c.552 0 1-.448 1-1 0-3.468-2.223-6.42-5.316-7.527zm10.8 3.404c-.482-.266-1.092-.093-1.359.39-.612 1.103-1.363 2.127-2.233 3.045-.38.401-.363 1.034.038 1.414.401.379 1.033.363 1.414-.038.985-1.041 1.836-2.202 2.53-3.452.268-.483.094-1.091-.39-1.359zm.109-10.358c.24 1.009.375 2.05.401 3.096.013.552.475.99 1.024.975.552-.014.98-.537.98-1.089 0-1.18-.188-2.3-.46-3.444-.128-.538-.67-.871-1.204-.741-.537.127-.869.667-.741 1.204zm-1.469-3.786c.183.33.524.515.875.515.164 0 .331-.041.484-.125.483-.268.658-.877.39-1.359-.693-1.25-1.544-2.411-2.53-3.452-.38-.4-1.013-.417-1.414-.038-.401.38-.418 1.013-.038 1.414.87.918 1.621 1.943 2.233 3.046z"/></svg>