<svg id="Layer_1" viewBox="0 0 24 24" xmlns="http://www.w3.org/2000/svg" data-name="Layer 1"><path d="m5 24h-4c-.552 0-1-.448-1-1s.448-1 1-1h4c.552 0 1 .448 1 1s-.448 1-1 1zm9-1c0-.552-.447-1-1-1h-4c-.552 0-1 .448-1 1s.448 1 1 1h4c.553 0 1-.448 1-1zm-4-4c0-.552-.448-1-1-1h-4c-.552 0-1 .448-1 1s.448 1 1 1h4c.552 0 1-.448 1-1zm-7.816 1c-.112-.314-.184-.648-.184-1 0-1.654 1.346-3 3-3h2.49l-.471-2.739c-.353-2.118.583-4.238 2.385-5.412.854-.556 1.9-.849 3.026-.849h7.338c-.176-2.062-.414-3.335-.609-4.202-.284-1.265-1.347-2.23-2.644-2.402-1.274-.17-2.983-.35-6.03-.396-3.016.046-4.725.226-5.999.396-1.297.172-2.36 1.137-2.645 2.402-.319 1.416-.753 3.909-.842 9.219.068 4.037.338 6.441.604 7.983zm20.816-4c-1.155 0-3.434-1.136-4.745-3.655-.318-.61.111-1.345.799-1.345.408-.041.805.137.997.513.964 1.781 2.505 2.471 2.949 2.487h.682l.214-1.083c.217-1.303-.343-2.636-1.509-3.394-.569-.37-1.254-.523-1.933-.523h-8.025c-.679 0-1.365.154-1.934.525-1.166.759-1.724 2.089-1.506 3.397l.539 3.131c1.402.251 2.472 1.473 2.472 2.947 0 .352-.072.686-.184 1h1.184c1.654 0 3 1.346 3 3 0 .352-.072.686-.184 1h3.425c1.467 0 2.708-1.046 2.957-2.491l.694-3.516c.587.067 1.111-.403 1.107-.994 0-.552-.447-1-1-1z"/></svg>