<svg id="Layer_1" viewBox="0 0 24 24" xmlns="http://www.w3.org/2000/svg" data-name="Layer 1"><path d="m18 0c-3.314 0-6 2.686-6 6s2.686 6 6 6 6-2.686 6-6-2.686-6-6-6zm3.278 7.935c-.153 1.08-1.108 1.865-2.199 1.865h-.28v.4c0 .442-.358.8-.8.8s-.8-.358-.8-.8v-.4h-.2c-.711 0-1.348-.325-1.77-.833-.418-.504-.063-1.266.592-1.266.252-.017.493.084.664.274.128.139.312.226.515.226h2.103c.278 0 .532-.187.586-.46.063-.318-.146-.615-.451-.677l-2.791-.559c-1.112-.223-1.888-1.281-1.725-2.439.152-1.08 1.108-1.866 2.199-1.866h.28v-.4c0-.442.358-.8.8-.8s.8.358.8.8v.4h.2c.711 0 1.348.324 1.77.833.418.504.063 1.266-.592 1.266-.252.017-.493-.084-.664-.274-.128-.139-.312-.226-.515-.226h-2.102c-.278 0-.532.186-.587.458-.064.318.146.617.449.678l2.792.559c1.112.222 1.889 1.282 1.725 2.439zm-10.458 8.299-2.135 2.133c-.843.842-2.213.842-3.056 0-.842-.843-.842-2.213 0-3.056l2.135-2.133-3.505-3.505-2.178 2.177c-2.775 2.774-2.775 7.29 0 10.064 1.344 1.345 3.132 2.085 5.033 2.085s3.688-.74 5.033-2.085l2.178-2.177-3.504-3.504zm4.919 2.091.7-.7c.586-.586.586-1.536 0-2.122l-1.383-1.383c-.586-.586-1.535-.586-2.121 0l-.701.7 3.504 3.504zm-6.561-6.561.7-.7c.586-.586.586-1.536 0-2.122l-1.383-1.383c-.586-.586-1.535-.586-2.121 0l-.701.7 3.504 3.504z"/></svg>