<svg id="Layer_1" viewBox="0 0 24 24" xmlns="http://www.w3.org/2000/svg" data-name="Layer 1"><path d="m7 4c-4.056 0-7 2.751-7 7 0 4.293 3.533 9 7 9s7-4.707 7-9c0-4.249-2.944-7-7-7zm-4 6.5c0-.829.671-1.5 1.5-1.5s1.5.671 1.5 1.5-.671 1.5-1.5 1.5-1.5-.671-1.5-1.5zm4.003 5.499c-1.07 0-1.915-.549-2.383-1.118-.3-.365 0-.882.507-.882h3.748c.505 0 .806.516.507.881-.466.569-1.308 1.118-2.379 1.118zm2.497-3.999c-.829 0-1.5-.671-1.5-1.5s.671-1.5 1.5-1.5 1.5.671 1.5 1.5-.671 1.5-1.5 1.5zm-2.527-9.999c1.467-1.246 3.364-2.001 5.439-2.001h3.176c1.007 0 1.969.187 2.864.513-.593 1.58-1.692 3.978-3.415 6.178-1.428-2.887-4.341-4.691-8.037-4.691-.009 0-.018.001-.027.001zm17.027 6.411v1.745c0 1.039-.878 1.884-1.914 1.806-1.944-.127-3.907-.916-5.586-1.963.004 0 .008.001.012.001-.208-.135-.412-.288-.617-.434-.03-.224-.064-.446-.108-.662 2.279-2.564 3.696-5.528 4.456-7.494 2.262 1.509 3.757 4.083 3.757 7.001zm-1.443 6.93c-.95 1.841-2.575 3.556-4.557 4.605v3.053c0 .552-.448 1-1 1h-6c-.552 0-1-.448-1-1v-1.778c1.067-.543 2.064-1.346 2.931-2.334.354.069.711.113 1.069.113 2.794 0 5.564-2.234 6.773-4.572.18-.347.562-.537.951-.5.007 0 .014.001.021.002.687.065 1.128.798.812 1.411z"/></svg>