<svg id="Layer_1" viewBox="0 0 24 24" xmlns="http://www.w3.org/2000/svg" data-name="Layer 1"><path d="m21 18c0 .553-.448 1-1 1h-2.62c-.454 1.75-2.03 3-3.858 3h-.522v-8c0-.553-.448-1-1-1s-1 .447-1 1v8h-.522c-1.828 0-3.404-1.25-3.858-3h-2.62c-.552 0-1-.447-1-1s.448-1 1-1h2.213l-1.116-5.799c-.383-1.99.485-3.955 2.051-5.044.524 2.201 2.491 3.843 4.852 3.843s4.328-1.642 4.852-3.843c1.565 1.089 2.434 3.054 2.051 5.044l-1.116 5.799h2.213c.552 0 1 .447 1 1zm-10 5c0 .553.448 1 1 1s1-.447 1-1v-1h-2zm12-23h-3.224c-1.702 0-3.329.529-4.706 1.53l-1.374.999c-.483-.333-1.067-.53-1.696-.53s-1.214.197-1.697.53l-1.374-1c-1.376-1-3.003-1.529-4.705-1.529h-3.224c-.552 0-1 .447-1 1s.448 1 1 1h3.224c1.276 0 2.497.396 3.529 1.147l1.384 1.007c-.08.27-.136.55-.136.846 0 1.654 1.346 3 3 3s3-1.346 3-3c0-.296-.056-.576-.136-.846l1.384-1.006c1.032-.751 2.252-1.147 3.529-1.147h3.224c.552 0 1-.447 1-1s-.448-1-1-1z"/></svg>