<svg id="Layer_1" viewBox="0 0 24 24" xmlns="http://www.w3.org/2000/svg" data-name="Layer 1"><path d="m7.051 19c-.553 0-1-.447-1-1s.447-1 1-1h2.949v-2h-2.949c-.553 0-1-.447-1-1s.447-1 1-1h2.949v-2h-2.949c-.553 0-1-.447-1-1s.447-1 1-1h2.949v-2h-2.949c-.553 0-1-.447-1-1s.447-1 1-1h2.949v-1.5c0-1.933-1.567-3.5-3.5-3.5h-3c-1.933 0-3.5 1.567-3.5 3.5v17c0 1.933 1.567 3.5 3.5 3.5h3c1.933 0 3.5-1.567 3.5-3.5v-1.5zm14.923-11.836-2.005-1.133c-1.214-.685-2.724-.685-3.938.002l-1.996 1.13c-.303.172-.576.381-.819.618l4.792 2.739 4.789-2.737c-.244-.238-.518-.448-.822-.62zm2.026 3.482c0-.396-.059-.781-.17-1.15l-4.825 2.758-.003 5.746c.335-.083.661-.208.968-.379l1.979-1.099c1.27-.704 2.053-2.044 2.053-3.496v-2.38zm-11.995-.002v2.324c0 1.432.772 2.762 2.016 3.473l2.021 1.155c.304.174.622.304.955.391l.003-5.736-4.82-2.757c-.111.369-.175.755-.175 1.15z"/></svg>