<svg id="Layer_1" viewBox="0 0 24 24" xmlns="http://www.w3.org/2000/svg" data-name="Layer 1"><path d="m22 13h-2.546c-.953 0-1.79.559-2.401 1.488-.233.392-.442.872-.617 1.396-.662-.81-2.465-2.885-4.436-2.885s-3.825 1.998-4.487 2.808c-.174-.52-.362-.967-.577-1.335-.611-.919-1.442-1.472-2.39-1.472h-2.545c-1.14 0-2 2.365-2 5.5s.86 5.5 2 5.5h2.545c1.179 0 2.173-.86 2.787-2.215.872.85 2.592 2.215 4.667 2.215s3.796-1.366 4.668-2.216c.615 1.355 1.608 2.216 2.786 2.216h2.546c1.14 0 2-2.365 2-5.5s-.86-5.5-2-5.5zm-17.455 9h-.991c.277-.94.446-2.139.446-3.5s-.169-2.56-.446-3.5h.991c.579 0 1.455 1.396 1.455 3.5s-.875 3.5-1.455 3.5zm15.901 0h-.992c-.579 0-1.454-1.396-1.454-3.5s.875-3.5 1.454-3.5h.992c-.277.94-.446 2.139-.446 3.5s.169 2.56.446 3.5zm-19.908-13.866c-.352-.752-.538-1.588-.538-2.419 0-3.152 2.563-5.715 5.715-5.715h12.57c3.151 0 5.715 2.563 5.715 5.715 0 .831-.186 1.667-.537 2.419l-1.344 2.875c-.106-.024-2.55-.001-2.665-.009-1.297 0-2.486.549-3.456 1.607-1.324-1.068-2.663-1.607-3.998-1.607-1.54 0-2.931.732-4.021 1.571-.945-1.02-2.136-1.571-3.434-1.571-.115.007-2.559-.015-2.664.009l-1.344-2.875z"/></svg>