<svg id="Layer_1" viewBox="0 0 24 24" xmlns="http://www.w3.org/2000/svg" data-name="Layer 1"><path d="m18.5 0c.828 0 1.5.672 1.5 1.5s-.672 1.5-1.5 1.5-1.5-.672-1.5-1.5.672-1.5 1.5-1.5zm1.5 6.5c0 .828.672 1.5 1.5 1.5s1.5-.672 1.5-1.5-.672-1.5-1.5-1.5-1.5.672-1.5 1.5zm4 11.5v2c0 2.206-1.794 4-4 4h-4c-2.206 0-4-1.794-4-4v-2c0-1.474.81-2.75 2-3.444v-1.556c0-2.206 1.794-4 4-4s4 1.794 4 4v1.556c1.19.694 2 1.97 2 3.444zm-4.5 1c0-.828-.672-1.5-1.5-1.5s-1.5.672-1.5 1.5.672 1.5 1.5 1.5 1.5-.672 1.5-1.5zm.5-6c0-1.103-.897-2-2-2s-2 .897-2 2v1h4zm-8.477 10.981c-3.06-.121-6.082-1.397-8.346-3.847-4.269-4.62-4.167-11.992.221-16.501 2.103-2.161 4.815-3.354 7.593-3.584 1.215-.101 2.365.668 2.682 1.845.518 1.922 1.525 3.736 3.015 5.255-2.679.6-4.689 2.993-4.689 5.851v.552c-1.255 1.127-2 2.744-2 4.448v2c0 1.528.579 2.92 1.523 3.981zm-5.523-14.481c0 .828.672 1.5 1.5 1.5s1.5-.672 1.5-1.5-.672-1.5-1.5-1.5-1.5.672-1.5 1.5zm3 5c0-.828-.672-1.5-1.5-1.5s-1.5.672-1.5 1.5.672 1.5 1.5 1.5 1.5-.672 1.5-1.5z"/></svg>