<svg id="Layer_1" viewBox="0 0 24 24" xmlns="http://www.w3.org/2000/svg" data-name="Layer 1"><path d="m23 17.704c-.132-.428-.46-2.444-3-2.68v-.024c0-.552-.448-1-1-1s-1 .448-1 1h-2c0-.552-.448-1-1-1s-1 .448-1 1v.024c-2.54.236-2.868 2.252-3 2.68-.746 2.424-1 4.455-1 5.058 0 .683.556 1.238 1.238 1.238.951 0 2.531-1.442 3.456-2.793.52-.76 1.385-1.207 2.306-1.207s1.786.447 2.306 1.207c.924 1.351 2.505 2.793 3.456 2.793.683 0 1.238-.556 1.238-1.238 0-.603-.253-2.635-1-5.058zm-14.682 2.506c-.782-.351-1.513-.808-2.166-1.367l-.445.257s-.002.001-.003.002c-1.436.827-3.27.334-4.097-1.102-.825-1.435-.334-3.267 1.098-4.098l.444-.256c-.2-1.088-.2-2.202 0-3.29l-.444-.256c-1.436-.828-1.928-2.664-1.1-4.1s2.664-1.928 4.1-1.1l.447.259c.84-.719 1.805-1.277 2.848-1.646v-.513c0-1.657 1.343-3 3-3s3 1.343 3 3v.513c1.043.367 2.009.923 2.85 1.641l.445-.257c1.436-.828 3.272-.336 4.1 1.1s.336 3.272-1.1 4.1l-.444.256c.145.789.181 1.592.116 2.388-.527-.46-1.214-.741-1.967-.741-.768 0-1.469.29-2 .766-.292-.262-.639-.46-1.018-.592.147-2.261-1.729-4.182-3.982-4.174-2.209 0-4 1.791-4 4 0 1.415.739 2.652 1.848 3.363-.307.483-.573 1.053-.76 1.752-.35 1.137-.597 2.189-.77 3.095z"/></svg>