<svg id="Layer_1" viewBox="0 0 24 24" xmlns="http://www.w3.org/2000/svg" data-name="Layer 1"><path d="m17.5 7c1.93 0 3.5-1.57 3.5-3.5s-1.57-3.5-3.5-3.5-3.5 1.57-3.5 3.5 1.57 3.5 3.5 3.5zm-2.5 1.393c-1.778-.912-3-2.761-3-4.893 0-.978.259-1.895.708-2.691-.782-.507-1.709-.809-2.708-.809-2.757 0-5 2.243-5 5v7.111c-1.276 1.305-2 3.062-2 4.889 0 3.859 3.141 7 7 7s7-3.141 7-7c0-1.826-.724-3.584-2-4.889zm-5 11.607c-1.654 0-3-1.346-3-3 0-1.304.836-2.415 2-2.828v-6.172c0-.553.447-1 1-1s1 .447 1 1v6.172c1.164.413 2 1.524 2 2.828 0 1.654-1.346 3-3 3z"/></svg>