<svg id="Layer_1" viewBox="0 0 24 24" xmlns="http://www.w3.org/2000/svg" data-name="Layer 1"><path d="m10.4 10.3v3.4c0 .386-.314.7-.7.7s-1.101 0-1.101 0v-4.802s.715 0 1.101 0 .7.314.7.7zm13.6-2.3v8c0 2.757-2.243 5-5 5h-14c-2.757 0-5-2.243-5-5v-8c0-2.757 2.243-5 5-5h14c2.757 0 5 2.243 5 5zm-12 2.3c0-1.27-1.03-2.3-2.3-2.3h-1.7c-.552 0-1 .448-1 1v6c0 .552.448 1 1 1h1.7c1.27 0 2.3-1.03 2.3-2.3zm2.6.95v-1.65h1.601c.442 0 .8-.358.8-.8s-.358-.8-.8-.8h-2.2c-.552 0-1 .448-1 1v6c0 .552.448 1 1 1h2.2c.442 0 .8-.358.8-.8s-.358-.8-.8-.8h-1.601v-1.551h1.601c.442 0 .8-.358.8-.8s-.358-.8-.8-.8h-1.601z"/></svg>