<svg id="Layer_1" viewBox="0 0 24 24" xmlns="http://www.w3.org/2000/svg" data-name="Layer 1"><path d="m24 4c0-2.21-1.79-4-4-4s-4 1.79-4 4 1.79 4 4 4 4-1.79 4-4zm-15-2c-1.074 0-2.089.251-3 .685v-1.685c0-.553.447-1 1-1h8.536c-.518.577-.924 1.254-1.188 2zm6 20c1.074 0 2.089-.251 3-.685v1.685c0 .553-.447 1-1 1h-10c-.553 0-1-.447-1-1v-1.685c.911.435 1.926.685 3 .685zm-1-18h-5c-2.757 0-5 2.243-5 5v6c0 2.757 2.243 5 5 5h6c2.757 0 5-2.243 5-5v-5c-3.315 0-6-2.685-6-6zm-4.5 5h5c.264 0 .508.074.723.193l-2.516 2.516c-.378.377-1.036.377-1.414 0l-2.516-2.516c.215-.12.459-.193.723-.193zm6.5 5.5c0 .828-.672 1.5-1.5 1.5h-5c-.828 0-1.5-.672-1.5-1.5v-3.256l1.879 1.879c.585.585 1.353.877 2.121.877s1.536-.292 2.121-.877l1.879-1.879z"/></svg>