<svg id="Layer_1" viewBox="0 0 24 24" xmlns="http://www.w3.org/2000/svg" data-name="Layer 1"><path d="m10.262 20c.406 1.574 1.275 2.958 2.458 4h-10.72c-1.105 0-2-.895-2-2s.895-2 2-2zm-10.262-4c0 1.105.895 2 2 2h8c0-1.459.397-2.822 1.079-4h-9.079c-1.105 0-2 .895-2 2zm24 2c0 3.314-2.686 6-6 6s-6-2.686-6-6 2.686-6 6-6 6 2.686 6 6zm-4.447-.505-2.792-.559c-.304-.061-.514-.36-.449-.678.055-.272.309-.458.587-.458h2.307c.203 0 .387.087.515.226.154.167.437.274.664.274.655 0 1.01-.763.592-1.266-.422-.509-1.059-.833-1.77-.833h-.405v-.4c0-.442-.358-.8-.8-.8s-.8.358-.8.8v.4h-.28c-1.091 0-2.046.786-2.199 1.866-.163 1.158.613 2.216 1.725 2.439l2.791.559c.304.062.514.359.451.677-.054.273-.308.46-.586.46h-2.334c-.203 0-.387-.087-.515-.226-.154-.167-.437-.274-.664-.274-.655 0-1.01.763-.592 1.266.422.509 1.059.833 1.77.833h.431v.4c0 .442.358.8.8.8s.8-.358.8-.8v-.4h.28c1.091 0 2.046-.785 2.199-1.865.164-1.158-.613-2.217-1.725-2.439zm4.447-13.489c0-.845-.619-1.544-1.584-1.78l-7.902-1.934c-1.584-.388-3.334-.389-4.922-.004l-8 1.94c-.966.234-1.592.925-1.592 1.772s.627 1.554 1.594 1.788l7.954 1.924c.789.19 1.617.286 2.446.286.828 0 1.657-.095 2.446-.286l7.561-1.829v5.117c0 .552.447 1 1 1s1-.448 1-1v-6.994zm-6 5.994c.339 0 .672.028 1 .069v-1.402l-4.09.989c-.94.227-1.92.342-2.916.342h-.007c-.992 0-1.97-.115-2.909-.341l-4.079-.987v3.33h7.721c1.409-1.241 3.254-2 5.279-2z"/></svg>