<svg id="Layer_1" viewBox="0 0 24 24" xmlns="http://www.w3.org/2000/svg" data-name="Layer 1"><path d="m16 5v-2c0-1.657 1.343-3 3-3h2c1.657 0 3 1.343 3 3v2zm-8 0v-2c0-1.657-1.343-3-3-3h-2c-1.657 0-3 1.343-3 3v2zm8 2v4.785c0 2.16-1.583 4.003-3.604 4.196-1.146.108-2.243-.253-3.086-1.021-.833-.758-1.31-1.836-1.31-2.961v-5h-8v4.637c-.008 6.784 5.205 12.363 12.003 12.363 3.165 0 6.141-1.214 8.403-3.435 2.317-2.275 3.594-5.316 3.594-8.563v-5.002h-8zm-.997-3.559c.267-.404-.073-.941-.557-.941h-2l.682-1.704c.153-.381-.128-.796-.539-.796h-1.617c-.316 0-.597.198-.703.495l-1.332 3.727c-.12.398.178.778.593.778h2.064l-.791 2.554c-.069.221.096.446.328.446.103 0 .201-.047.266-.127l3.606-4.433z"/></svg>