<svg id="Layer_1" viewBox="0 0 24 24" xmlns="http://www.w3.org/2000/svg" data-name="Layer 1"><path d="m10.763 12.057.53 1.404h-1.064l.535-1.404zm2.474 3.122-1.772-4.695c-.11-.291-.389-.484-.7-.484s-.589.192-.699.482l-1.788 4.693c-.151.397.142.823.567.823h.003c.252 0 .479-.156.568-.393l.352-.932h1.983l.352.934c.089.236.315.393.568.393.424 0 .717-.424.568-.821zm2.263-4.561c0-.341-.277-.618-.618-.618s-.618.277-.618.618v4.763c0 .341.277.618.618.618s.618-.277.618-.618zm-1.278 12.134c.538-.122.876-.658.754-1.196s-.651-.878-1.197-.754c-1.16.263-2.396.263-3.557 0-.544-.125-1.075.215-1.197.754s.216 1.074.754 1.196c.726.165 1.473.248 2.222.248s1.496-.083 2.222-.248zm6.834-9.758c.549-.061.944-.555.884-1.104-.24-2.166-1.205-4.228-2.718-5.806-.382-.399-1.016-.411-1.413-.03-.399.382-.413 1.015-.03 1.414 1.227 1.281 1.979 2.886 2.173 4.643.059.551.565.946 1.104.884zm-17.007-.884c.194-1.757.946-3.362 2.173-4.643.383-.399.369-1.032-.03-1.414-.397-.381-1.031-.369-1.413.03-1.513 1.578-2.478 3.64-2.718 5.806-.061.549.335 1.043.884 1.104.539.062 1.046-.333 1.104-.884zm7.951-8.11c2.255 0 3.25-.546 3.5-.775v-1.994c0-.5-1.015-1.231-3.5-1.231s-3.5.731-3.5 1.231v2.033c.216.207 1.178.736 3.5.736zm0 2c-1.509 0-2.654-.193-3.5-.495v2.264c0 .5 1.015 1.231 3.5 1.231s3.5-.731 3.5-1.231v-2.302c-.869.324-2.022.533-3.5.533zm-8.5 13c2.255 0 3.25-.546 3.5-.775v-1.994c0-.5-1.015-1.231-3.5-1.231s-3.5.731-3.5 1.231v2.033c.216.207 1.178.736 3.5.736zm0 2c-1.509 0-2.654-.193-3.5-.495v2.264c0 .5 1.015 1.231 3.5 1.231s3.5-.731 3.5-1.231v-2.302c-.869.324-2.022.533-3.5.533zm17-2c2.255 0 3.25-.546 3.5-.775v-1.994c0-.5-1.015-1.231-3.5-1.231s-3.5.731-3.5 1.231v2.033c.216.207 1.178.736 3.5.736zm0 2c-1.509 0-2.654-.193-3.5-.495v2.264c0 .5 1.015 1.231 3.5 1.231s3.5-.731 3.5-1.231v-2.302c-.869.324-2.022.533-3.5.533z"/></svg>