<svg id="Layer_1" viewBox="0 0 24 24" xmlns="http://www.w3.org/2000/svg" data-name="Layer 1"><path d="m7.5 16c-3.908 0-7.201 3.042-7.497 6.924-.021.278.074.552.264.756s.455.32.733.32h13c.278 0 .544-.116.733-.32s.285-.478.264-.756c-.296-3.882-3.589-6.924-7.497-6.924zm0-2c3.032 0 5.5-2.467 5.5-5.5s-2.468-5.5-5.5-5.5-5.5 2.467-5.5 5.5 2.468 5.5 5.5 5.5zm16.5-8.964c0 .393-.153.762-.431 1.04l-2.862 2.862c-.904.931-2.345-.511-1.414-1.414l1.523-1.523h-4.816c-.553 0-1-.448-1-1s.447-1 1-1h4.745l-1.452-1.452c-.391-.391-.391-1.023 0-1.414s1.023-.391 1.414 0l2.862 2.862c.277.278.431.647.431 1.04z"/></svg>