<svg id="Layer_1" viewBox="0 0 24 24" xmlns="http://www.w3.org/2000/svg" data-name="Layer 1"><path d="m23.707 23.707c-.391.391-1.023.391-1.414 0l-2.406-2.406c-.693.436-1.508.699-2.387.699-2.485 0-4.5-2.015-4.5-4.5s2.015-4.5 4.5-4.5 4.5 2.015 4.5 4.5c0 .88-.262 1.694-.699 2.387l2.406 2.406c.391.391.391 1.023 0 1.414zm-10.133-23.45c-1.026-.342-2.137-.342-3.163 0l-7.404 2.467 8.993 3.008 8.994-3.002zm1.641 11.165c.712-.268 1.48-.421 2.285-.421.83 0 1.621.161 2.35.445l2.784-.928c1.211-.404 1.737-1.825 1.08-2.921h.001s-1.148-1.912-1.148-1.912c-.334-.557-1.011-.808-1.628-.602l-7.947 2.649c.061.089 2.151 3.61 2.223 3.691zm-13.798-5.738-1.127 1.88c-.667 1.112-.133 2.556 1.097 2.966l5.082 1.694c.889.296 1.865-.065 2.348-.868l2.176-3.625-7.948-2.649c-.617-.206-1.293.045-1.628.602zm1.573-2.967v.012l.017-.006zm4.126 11.614c-.425 0-.856-.067-1.28-.209l-3.836-1.281v4.559c0 2.153 1.368 4.064 3.41 4.744l4.436 1.478c.374.121.758.22 1.146.287v-12.29l-.46.766c-.742 1.236-2.044 1.945-3.416 1.945z"/></svg>