<?xml version="1.0" encoding="UTF-8"?>
<svg xmlns="http://www.w3.org/2000/svg" id="Layer_1" data-name="Layer 1" viewBox="0 0 24 24">
  <path d="m12.4,10.5v3c0,.496-.404.9-.9.9s-.9-.404-.9-.9v-3c0-.496.404-.9.9-.9s.9.404.9.9Zm11.6,1.5c0,6.627-5.373,12-12,12S0,18.627,0,12,5.373,0,12,0s12,5.373,12,12Zm-16.013,1.239c-.068-.664-.414-1.231-.908-1.629.302-.433.468-.969.409-1.548-.122-1.198-1.221-2.062-2.425-2.062h-1.262c-.442,0-.8.358-.8.8s.358.8.8.8h1.398c.387,0,.702.315.702.702,0,.38-.305.687-.683.698h-.417c-.442,0-.8.358-.8.8s.358.8.8.8h.699c.497,0,.901.404.901.9s-.404.9-.901.9h-1.699c-.442,0-.8.358-.8.8s.358.8.8.8h1.699c1.465,0,2.64-1.266,2.487-2.761Zm6.013-2.739c0-1.381-1.119-2.5-2.5-2.5s-2.5,1.119-2.5,2.5v3c0,1.381,1.119,2.5,2.5,2.5s2.5-1.119,2.5-2.5v-3Zm2.25-.019c.69,0,1.25-.56,1.25-1.25s-.56-1.25-1.25-1.25-1.25.56-1.25,1.25.56,1.25,1.25,1.25Zm.765,5.137l4.178-6.4c.347-.532-.034-1.237-.67-1.237-.27,0-.522.136-.67.363l-4.178,6.4c-.347.532.034,1.237.67,1.237.27,0,.522-.136.67-.363Zm4.985-.887c0-.69-.56-1.25-1.25-1.25s-1.25.56-1.25,1.25.56,1.25,1.25,1.25,1.25-.56,1.25-1.25Z"/>
</svg>
