<svg id="Layer_1" viewBox="0 0 24 24" xmlns="http://www.w3.org/2000/svg" data-name="Layer 1"><path d="m19 1h-14c-2.757 0-5 2.243-5 5v8c0 2.757 2.243 5 5 5h6v2h-4c-.552 0-1 .448-1 1s.448 1 1 1h10c.552 0 1-.448 1-1s-.448-1-1-1h-4v-2h6c2.757 0 5-2.243 5-5v-8c0-2.757-2.243-5-5-5zm0 2c.828 0 1.5.672 1.5 1.5s-.672 1.5-1.5 1.5-1.5-.672-1.5-1.5.672-1.5 1.5-1.5zm-7 0c.828 0 1.5.672 1.5 1.5s-.672 1.5-1.5 1.5-1.5-.672-1.5-1.5.672-1.5 1.5-1.5zm-2.315 4.886c.615-.55 1.424-.886 2.315-.886s1.7.335 2.315.886c.438.391.179 1.114-.408 1.114h-3.814c-.587 0-.846-.723-.408-1.114zm4.315 4.114c0 1.105-.895 2-2 2s-2-.895-2-2 .895-2 2-2 2 .895 2 2zm-9-9c.828 0 1.5.672 1.5 1.5s-.672 1.5-1.5 1.5-1.5-.672-1.5-1.5.672-1.5 1.5-1.5zm1.907 6h-3.814c-.587 0-.846-.723-.408-1.114.615-.55 1.424-.886 2.315-.886s1.7.335 2.315.886c.438.391.179 1.114-.408 1.114zm7.338 8h-4.49c-.705 0-1.018-.733-.49-1.127.729-.543 1.684-.873 2.735-.873s2.007.33 2.735.873c.528.393.215 1.127-.49 1.127zm6.662-8h-3.814c-.587 0-.846-.723-.408-1.114.615-.55 1.424-.886 2.315-.886s1.7.335 2.315.886c.438.391.179 1.114-.408 1.114z"/></svg>