<svg id="Layer_1" viewBox="0 0 24 24" xmlns="http://www.w3.org/2000/svg" data-name="Layer 1"><path d="m18 12c-3.314 0-6 2.686-6 6s2.686 6 6 6 6-2.686 6-6-2.686-6-6-6zm2.932 5.459c-.136.328-.456.541-.812.541h-1.121v2c0 .553-.448 1-1 1s-1-.447-1-1v-2h-1.121c-.355 0-.676-.213-.812-.541-.138-.329-.062-.706.19-.958l1.5-1.5c.685-.685 1.8-.685 2.485 0l1.5 1.5c.253.252.326.632.19.958zm-.932-16.459c0 1.861-1.283 3.416-3.007 3.86.281.341.48.75.627 1.14h-1.62c-2.757 0-5 2.243-5 5v3.13c-.322.582-.568 1.211-.738 1.87h-1.262v-5c0-2.757-2.243-5-5-5h-1.62c.141-.394.358-.785.613-1.144-1.717-.45-2.993-2-2.993-3.856 0-.553.448-1 1-1s1 .447 1 1c0 1.103.897 2 2 2h12c1.103 0 2-.897 2-2 0-.553.448-1 1-1s1 .447 1 1zm-10 17c0 1.459.397 2.822 1.079 4h-4.079c-1.105 0-2-.895-2-2s.895-2 2-2zm-3-2c-.796 0-1.535.24-2.158.642l-2.45-6.43c-.267-.702-.409-1.449-.374-2.2 0-.004 0-.008 0-.013h1.982c.364 0 .709.075 1.032.194-.021.099-.032.201-.032.306 0 .828.672 1.5 1.5 1.5.105 0 .207-.011.306-.032.119.323.194.668.194 1.032v5zm9-8h1.982c0 1.5-.299 2.016-.299 2.016-1.769.07-3.39.707-4.683 1.744v-.76c0-.364.075-.709.194-1.032.099.021.201.032.306.032.828 0 1.5-.672 1.5-1.5 0-.105-.011-.207-.032-.306.323-.119.668-.194 1.032-.194z"/></svg>