<svg id="Layer_1" viewBox="0 0 24 24" xmlns="http://www.w3.org/2000/svg" data-name="Layer 1"><path d="m21.997 13.853-12.122-12.652c-1.667-1.599-4.334-1.551-5.952.108l-1.265 1.374c-1.069 1.121-1.658 2.592-1.658 4.142v1.175c0 .552.448 1 1 1h2v2c0 .552.448 1 1 1h2v2c0 .552.448 1 1 1h2v2c0 .553.448 1 1 1h.27c-.632 1.272-.434 2.852.624 3.914l1.044 1.048c.655.666 1.532 1.034 2.468 1.038h.014c.931 0 1.805-.362 2.474-1.031l4.086-4.208c1.335-1.335 1.354-3.525.018-4.908zm-1.442 3.505-4.086 4.208c-.28.28-.653.435-1.05.435h-.006c-.397-.002-.771-.158-1.051-.442l-.935-.947c-.57-.579-.567-1.518.006-2.091l5.172-5.16 1.978 1.907c.559.578.551 1.512-.028 2.091z"/></svg>