<svg id="Layer_1" viewBox="0 0 24 24" xmlns="http://www.w3.org/2000/svg" data-name="Layer 1"><path d="m23.059 8.677c-1.626 1.626-5.512 1.394-7.495 1.15-.732-.09-1.301-.659-1.391-1.391-.244-1.983-.476-5.87 1.15-7.495 1.175-1.175 2.993-1.262 4.062-.193 1.068 1.068.982 2.887-.193 4.062 1.175-1.175 2.993-1.262 4.062-.193 1.068 1.068.982 2.887-.193 4.062zm-8.055 10.381-2.858 2.857c-1.344 1.345-3.131 2.085-5.033 2.085s-3.688-.74-5.033-2.085c-2.775-2.774-2.775-7.29 0-10.064l2.858-2.857 3.505 3.505-2.815 2.813c-.842.843-.842 2.213 0 3.056.843.842 2.213.842 3.056 0l2.815-2.813 3.504 3.504zm-2.09-4.917.701-.7c.586-.585 1.535-.585 2.121 0l1.383 1.383c.586.586.586 1.536 0 2.122l-.7.7-3.504-3.504zm-6.56-6.561.701-.7c.586-.585 1.535-.585 2.121 0l1.383 1.383c.586.586.586 1.536 0 2.122l-.7.7-3.504-3.504z"/></svg>