<svg id="Layer_1" viewBox="0 0 24 24" xmlns="http://www.w3.org/2000/svg" data-name="Layer 1"><path d="m10 9h4.969l-.561 2.242c-.111.446-.51.758-.97.758h-3.438zm13.512 9.155-2.306-2.223c-.5 1.388-1.65 2.486-3.076 2.894-.735.211-1.505.247-2.231.105-.36.534-.84.963-1.393 1.318l3.401 3.296c.932.911 2.504.374 2.683-.917l.218-1.568 1.765-.182c1.344-.139 1.911-1.785.939-2.723zm-15.412.776c-.726.142-1.496.106-2.231-.105-1.426-.408-2.576-1.506-3.076-2.894l-2.305 2.223c-.972.938-.405 2.584.939 2.723l1.765.182.218 1.568c.179 1.291 1.751 1.828 2.683.917l3.401-3.296c-.553-.355-1.033-.784-1.393-1.318zm6.17-1.163c-.233.361-.564.679-.994.918-.782.433-1.771.433-2.553 0-.431-.239-.761-.557-.994-.918-.416-.644-1.181-.987-1.929-.817-.428.097-.896.091-1.38-.048-.859-.246-1.559-.946-1.805-1.805-.139-.484-.145-.953-.048-1.382.17-.748-.173-1.513-.817-1.928-.728-.452-1.269-1.391-1.242-2.284-.028-.892.513-1.832 1.242-2.284.644-.416.987-1.181.817-1.928-.097-.429-.091-.897.048-1.381.246-.859.946-1.559 1.805-1.805.484-.139.952-.145 1.38-.048.748.17 1.513-.172 1.929-.817.233-.361.563-.679.994-.918.782-.433 1.772-.433 2.553 0 .431.239.761.557.994.918.416.644 1.181.987 1.929.817.428-.097.896-.091 1.38.048.859.246 1.559.946 1.805 1.805.139.484.145.953.048 1.381-.17.748.173 1.513.817 1.928.728.452 1.269 1.391 1.242 2.284.028.892-.513 1.832-1.242 2.284-.644.416-.987 1.181-.817 1.928.097.429.091.897-.048 1.382-.246.859-.946 1.559-1.805 1.805-.484.139-.952.145-1.38.048-.748-.17-1.513.172-1.929.817zm2.078-6.041.621-2.485c.165-1.068-.588-2.235-1.97-2.243h-2.429l.387-1.205c.042-.25.021-.387.005-.447-.14-.515-.56-.848-1.069-.848-.433.004-.702.25-.987.635l-1.479 1.865h-.427c-1.103 0-2 .897-2 2v3c0 1.103.897 2 2 2h4.438c1.379 0 2.576-.935 2.911-2.272z"/></svg>