<svg id="Layer_1" viewBox="0 0 24 24" xmlns="http://www.w3.org/2000/svg" data-name="Layer 1"><path d="m0 6v-1c0-2.757 2.243-5 5-5h2.528c.463 0 .927.109 1.341.316l3.156 1.578c.138.069.293.105.447.105h6.528c2.414 0 4.434 1.721 4.899 4h-23.899zm20.077 6.673c.953-.953 2.534-.894 3.409.176.761.93.598 2.317-.252 3.167l-6.715 6.715c-.813.813-1.915 1.269-3.064 1.269h-.955c-.276 0-.5-.224-.5-.5v-.955c0-1.149.457-2.252 1.269-3.064zm-8.222 5.393 6.808-6.808c.857-.857 2.058-1.321 3.252-1.253.751.037 1.461.291 2.085.689v-2.695h-24v9c0 2.757 2.243 5 5 5h5.027c.126-1.487.762-2.868 1.829-3.934z"/></svg>