<svg id="Layer_1" viewBox="0 0 24 24" xmlns="http://www.w3.org/2000/svg" data-name="Layer 1"><path d="m9.5 13c-.828 0-1.5-.672-1.5-1.5s.672-1.5 1.5-1.5 1.5.672 1.5 1.5-.672 1.5-1.5 1.5zm5-3c-.828 0-1.5.672-1.5 1.5s.672 1.5 1.5 1.5 1.5-.672 1.5-1.5-.672-1.5-1.5-1.5zm9.45 2.017c-.515 8.006-6.95 7.983-6.95 7.983h-1v3c0 .552-.447 1-1 1h-6c-.553 0-1-.448-1-1v-3h-1s-6.436.023-6.95-7.985c-.072-.335-.026-.674-.05-1.015 0-7.222 6.037-11 12-11s12 3.778 12 11c-.005.173-.025.847-.05 1.017zm-4.819 1.605c.163-.459.64-.731 1.113-.652.083.014.168.028.256.028.827 0 1.5-.673 1.5-1.5s-.673-1.499-1.5-1.499h-2.25c-1.065 0-2.07-.398-2.849-1.111-.357.083-.754.113-1.172.111-.789 0-1.56-.226-2.229-.648-.703.443-1.515.651-2.366.649-.367 0-.715-.037-1.036-.111-.777.712-1.782 1.11-2.848 1.11h-2.25c-.827 0-1.5.673-1.5 1.5s.673 1.499 1.5 1.499c.146.002.283-.045.427-.043.417 0 .799.262.942.667.916 2.597 4.001 5.377 7.131 5.377s6.215-2.78 7.131-5.377zm-5.215 1.377h-3.831c-.506 0-.795.612-.447.98.592.628 1.431 1.02 2.362 1.02s1.77-.392 2.362-1.02c.347-.368.059-.98-.447-.98z"/></svg>