<svg id="Layer_1" viewBox="0 0 24 24" xmlns="http://www.w3.org/2000/svg" data-name="Layer 1"><path d="m14 5c0-.552.447-1 1-1h3v-3c0-.552.447-1 1-1s1 .448 1 1v3h3c.553 0 1 .448 1 1s-.447 1-1 1h-3v3c0 .552-.447 1-1 1s-1-.448-1-1v-3h-3c-.553 0-1-.448-1-1zm-2 2c-1.103 0-2 .897-2 2s.897 2 2 2 2-.897 2-2-.897-2-2-2zm0 10c-2.206 0-4 1.794-4 4v2.314c1.252.444 2.598.686 4 .686s2.748-.242 4-.686v-2.314c0-2.206-1.794-4-4-4zm7-5c-1.304 0-2.519-.364-3.563-.987-.695 1.183-1.968 1.987-3.437 1.987-2.206 0-4-1.794-4-4s1.794-4 4-4c0-1.874.741-3.572 1.94-4.829-.633-.104-1.278-.171-1.94-.171-6.617 0-12 5.383-12 12 0 4.433 2.416 8.311 6 10.389v-1.389c0-3.309 2.691-6 6-6s6 2.691 6 6v1.389c3.584-2.078 6-5.956 6-10.389 0-.662-.068-1.307-.171-1.94-1.256 1.199-2.954 1.94-4.829 1.94z"/></svg>