<svg id="Layer_1" viewBox="0 0 24 24" xmlns="http://www.w3.org/2000/svg" data-name="Layer 1"><path d="m1.15 4.849c-.96-.96-1.141-2.699-1.15-3.802-.005-.581.466-1.052 1.047-1.047 1.103.009 2.842.19 3.802 1.15.966.966 1.142 2.714 1.149 3.816h.001s0 0 .001 0c.007-1.102.184-2.85 1.149-3.816.962-.96 2.701-1.141 3.804-1.15.581-.005 1.052.466 1.047 1.047-.009 1.103-.19 2.842-1.15 3.802-.975.975-2.75 1.146-3.85 1.15v2.001c0 .552-.447 1-1 1s-1-.448-1-1v-2.001c-1.099-.004-2.874-.174-3.85-1.15zm16.85 7.151c3.314 0 6-1.343 6-3s-2.686-3-6-3-6 1.343-6 3 2.686 3 6 3zm0 2c-3.5 0-6-1.529-6-3.5v2c0 1.995 2.579 3.5 6 3.5s6-1.505 6-3.5v-2c0 1.971-2.5 3.5-6 3.5zm0 4c-3.5 0-6-1.529-6-3.5 0 1.971-2.5 3.5-6 3.5s-6-1.529-6-3.5v2c0 1.995 2.579 3.5 6 3.5s6-1.505 6-3.5c0 1.995 2.579 3.5 6 3.5s6-1.505 6-3.5v-2c0 1.971-2.5 3.5-6 3.5zm0 4c-3.5 0-6-1.529-6-3.5 0 1.971-2.5 3.5-6 3.5s-6-1.529-6-3.5v2c0 1.995 2.579 3.5 6 3.5s6-1.505 6-3.5c0 1.995 2.579 3.5 6 3.5s6-1.505 6-3.5v-2c0 1.971-2.5 3.5-6 3.5zm-12-6c3.314 0 6-1.343 6-3s-2.686-3-6-3-6 1.343-6 3 2.686 3 6 3z"/></svg>