<svg id="Layer_1" viewBox="0 0 24 24" xmlns="http://www.w3.org/2000/svg" data-name="Layer 1"><path d="m17.966 16.008c.442 0 .8.358.8.8v4.931c0 1.348-1.164 2.427-2.539 2.288-1.197-.122-2.06-1.22-2.06-2.422v-4.796c0-.442.358-.8.8-.8.442 0 .8.358.8.8v4.931c0 .386.314.7.7.7s.7-.314.7-.7v-4.931c0-.442.358-.8.8-.8zm-5.769 0c-.442 0-.8.358-.8.8v4.931c0 .386-.314.7-.7.7s-.7-.314-.7-.7v.1c0-.442-.358-.8-.8-.8-.416 0-.747.322-.785.728.074 1.137.904 2.143 2.046 2.26 1.376.14 2.539-.94 2.539-2.288v-4.931c0-.442-.358-.8-.8-.8zm9.403 6.43v-5.6c0-.442-.358-.8-.8-.8-.442 0-.8.358-.8.8v6.4c0 .442.358.8.8.8h2.4c.442 0 .8-.358.8-.8 0-.442-.358-.8-.8-.8zm-21.6-12.438v9c0 2.761 2.239 5 5 5h2.091c-.379-.614-.624-1.328-.674-2.104l-.01-.157.014-.157c.141-1.518 1.492-2.65 2.977-2.537v-2.237c0-1.544 1.256-2.8 2.8-2.8.363 0 7.577.016 11.803.024v-4.032zm24-3c0-2.757-2.243-5-5-5h-1v-1c0-.553-.448-1-1-1s-1 .447-1 1v1h-8v-1c0-.553-.448-1-1-1s-1 .447-1 1v1h-1c-2.757 0-5 2.243-5 5v1h24z"/></svg>