<svg id="Layer_1" viewBox="0 0 24 24" xmlns="http://www.w3.org/2000/svg" data-name="Layer 1"><path d="m23.933 7.616c-.727 2.656-2.669 4.595-5.327 5.318-.523.143-1.086.054-1.545-.242-.462-.298-.778-.78-.864-1.322-.153-.948-.513-2.255-1.362-3.104l-1.057-1.061c-1.032-1.037-1.031-2.682-.021-3.692l.751-.751c.49-.49 1.142-.761 1.835-.761h.004c.695 0 1.349.273 1.838.766l1.046 1.051c.885.883 2.19 1.238 3.132 1.385.543.084 1.027.398 1.328.863.298.461.387 1.026.244 1.552zm-9.808 5.694.486-.486c-.181-.358-.326-.735-.391-1.138-.146-.912-.438-1.644-.801-2.006l-.659-.662-1.464 1.464-3.045-3.045 2.112-2.076c.837-.805.848-2.141.025-2.96l-.803-.798c-.784-.78-2.043-.806-2.859-.059l-4.366 4.164c-1.884 1.928-2.39 3.84-2.359 5.387.009.431.073 1.919.147 2.286.222 1.103.772 1.277 1.692.356l3.559-3.497 12.187 12.187c.781.781 2.047.781 2.828 0 .781-.781.781-2.047 0-2.828zm-12.039 6.276c-.781.781-.781 2.047 0 2.828.781.781 2.047.781 2.828 0l4.958-4.873-2.829-2.828-4.957 4.874z"/></svg>