<svg id="Layer_1" viewBox="0 0 24 24" xmlns="http://www.w3.org/2000/svg" data-name="Layer 1"><path d="m20.999 0h-3.999c-1.65.002-2.999 1.352-2.999 3.002l.002 6.772c0 .638.524 1.088 1.089 1.088.196 0 .397-.054.583-.173l2.454-1.69h2.872c1.657 0 3-1.343 3-3v-2.999c-.001-1.657-1.345-3-3.002-3zm1.264 4.221-2.049 1.961c-.452.446-1.052.671-1.653.671s-1.203-.225-1.663-.674l-1.097-1.075c-.395-.387-.4-1.02-.014-1.414.386-.395 1.019-.401 1.414-.014l1.096 1.074c.144.142.38.139.522-.002l2.059-1.97c.397-.381 1.031-.37 1.414.029.382.398.369 1.031-.029 1.414zm-7.171 8.64c-1.704 0-3.089-1.385-3.089-3.088l-.002-6.771c0-.979.293-1.888.781-2.66-.555-.213-1.152-.343-1.782-.343h-6c-2.757.001-5 2.244-5 5.001v11h16v-3.282c-.299.095-.602.143-.908.143zm-13.092-5.861c0-2.206 1.794-4 4-4 .457 0 .905.077 1.334.229.521.185.793.756.609 1.277s-.756.793-1.277.609c-.213-.076-.438-.114-.666-.114-1.103 0-2 .897-2 2 0 .552-.448 1-1 1s-1-.448-1-1zm2.425 4.583c-.488.232-1.095.025-1.331-.48-.235-.5-.02-1.095.48-1.331.946-.444 1.425-1.377 1.425-2.773 0-.552.448-1 1-1s1 .448 1 1c0 2.175-.915 3.803-2.575 4.583zm4.502-.067c-.356.591-.811 1.153-1.353 1.669-.399.381-1.032.367-1.414-.034-.381-.399-.366-1.033.034-1.414.412-.393.755-.815 1.02-1.254.285-.473.9-.626 1.373-.34.473.285.625.899.34 1.373zm1.045-3.446c-.037.552-.523.968-1.067.928-.551-.039-.966-.517-.928-1.067.021-.439.051-.852-.005-1.264-.091-.545.276-1.061.82-1.152s1.061.276 1.152.82c.09.579.058 1.123.027 1.736zm-9.972 10.93c0 2.757 2.243 5 5 5h6c2.757 0 5-2.243 5-5v-1h-16zm7 1h2c.552 0 1 .448 1 1s-.448 1-1 1h-2c-.552 0-1-.448-1-1s.448-1 1-1z"/></svg>