<svg id="Layer_1" viewBox="0 0 24 24" xmlns="http://www.w3.org/2000/svg" data-name="Layer 1"><path d="m24 17h-12c0-1.302.839-2.402 2-2.816v-1.184c0-.552.448-1 1-1s1 .448 1 1v1h4v-1c0-.552.448-1 1-1s1 .448 1 1v1.184c1.161.414 2 1.514 2 2.816zm-12 2v2c0 1.654 1.346 3 3 3h6c1.654 0 3-1.346 3-3v-2zm1-17h-.171c-.413-1.164-1.525-2-2.829-2h-2c-1.304 0-2.416.836-2.829 2h-.171c-2.757 0-5 2.243-5 5v12c0 2.757 2.243 5 5 5h6.026c-.635-.838-1.026-1.87-1.026-3v-4c0-.341.042-.674.109-1h-.109c-.552 0-1-.448-1-1s.448-1 1-1h1.022c.28-.369.604-.704.978-.985v-.015c0-.352.072-.686.184-1h-2.184c-.552 0-1-.448-1-1s.448-1 1-1h5c1.304 0 2.416.836 2.829 2h.171v-5c0-2.757-2.243-5-5-5zm-7 14h-1c-.552 0-1-.448-1-1s.448-1 1-1h1c.552 0 1 .448 1 1s-.448 1-1 1zm0-4h-1c-.552 0-1-.448-1-1s.448-1 1-1h1c.552 0 1 .448 1 1s-.448 1-1 1zm0-4h-1c-.552 0-1-.448-1-1s.448-1 1-1h1c.552 0 1 .448 1 1s-.448 1-1 1zm7 0h-3c-.552 0-1-.448-1-1s.448-1 1-1h3c.552 0 1 .448 1 1s-.448 1-1 1z"/></svg>