<svg id="Layer_1" viewBox="0 0 24 24" xmlns="http://www.w3.org/2000/svg" data-name="Layer 1"><path d="m22.5 11c-.827 0-1.5.673-1.5 1.5v3c0 .276.224.5.5.5s.5-.224.5-.5v-1h1v1c0 .276.224.5.5.5s.5-.224.5-.5v-3c0-.827-.673-1.5-1.5-1.5zm-.5 2.5v-1c0-.276.225-.5.5-.5s.5.224.5.5v1zm-7-1.5v1h.808c.276 0 .5.224.5.5s-.224.5-.5.5h-.808v1h.808c.276 0 .5.224.5.5s-.224.5-.5.5h-.808c-.552 0-1-.449-1-1v-3c0-.551.448-1 1-1h.808c.276 0 .5.224.5.5s-.224.5-.5.5zm3 3.5v-3.5h-.5c-.276 0-.5-.224-.5-.5s.224-.5.5-.5h2c.276 0 .5.224.5.5s-.224.5-.5.5h-.5v3.5c0 .276-.224.5-.5.5s-.5-.224-.5-.5zm-6.5-4.5h-.5c-.552 0-1 .449-1 1v3c0 .551.448 1 1 1h.5c.827 0 1.5-.673 1.5-1.5 0-.384-.145-.734-.383-1 .238-.266.383-.616.383-1 0-.827-.673-1.5-1.5-1.5zm0 4h-.5v-1h.5c.275 0 .5.224.5.5s-.225.5-.5.5zm0-2h-.5v-1h.5c.275 0 .5.224.5.5s-.225.5-.5.5zm-5-2v-.881c.804-.196 1.518-.615 2.071-1.196.307.153.902.608 1.261.573.346 0 .683-.18.868-.501.275-.479.11-1.09-.368-1.366l-.771-.444c.111-.379.189-.771.189-1.185s-.078-.806-.189-1.185l.771-.444c.479-.275.644-.887.368-1.366s-.887-.644-1.366-.368l-.763.439c-.553-.581-1.267-1-2.071-1.196v-.881c0-.551-.447-.999-1-.999s-1 .448-1 1v.881c-.804.196-1.518.615-2.071 1.196l-.763-.439c-.479-.276-1.09-.111-1.366.368-.275.479-.11 1.09.368 1.366l.771.444c-.111.379-.189.771-.189 1.185s.078.806.189 1.185l-.771.444c-.479.275-.644.887-.368 1.366.186.321.522.501.868.501.356.037.957-.421 1.261-.573.553.581 1.267 1 2.071 1.196v.881c0 .552.447 1 1 1s1-.448 1-1zm-2.5-5c0-.827.673-1.5 1.5-1.5s1.5.673 1.5 1.5-.673 1.5-1.5 1.5-1.5-.673-1.5-1.5zm1 13c0 2.757 2.243 5 5 5h6c2.757 0 5-2.243 5-5v-1h-16zm7 1h2c.552 0 1 .447 1 1s-.448 1-1 1h-2c-.552 0-1-.447-1-1s.448-1 1-1zm-1.221-20h5.221c2.757 0 5 2.243 5 5v4h-8.087c.376-.927.587-1.938.587-3 0-2.393-1.056-4.534-2.721-6zm-2.779 13.596v1.404c0 .352.072.686.184 1h-3.184v-2.025c.166.01.331.025.5.025.874 0 1.713-.145 2.5-.404z"/></svg>