<svg id="Layer_1" viewBox="0 0 24 24" xmlns="http://www.w3.org/2000/svg" data-name="Layer 1"><path d="m11 3.05c0 2.404-3.114 5.172-4.656 6.395-.494.392-1.195.392-1.689 0-1.541-1.223-4.655-3.991-4.655-6.395 0-1.922 1.231-3.05 2.75-3.05s2.75 1.091 2.75 2.444c0-1.46 1.231-2.444 2.75-2.444s2.75 1.128 2.75 3.05zm5.987-.282 6.246 11.393c1.475 2.652.732 5.999-1.743 7.755-.661.469-1.195.827-1.521 1.007-2.093 1.155-4.461 1.35-6.594.734s-4.032-2.044-5.186-4.137l-1.306-2.259c-.4-.726-.137-1.638.589-2.038s1.638-.137 2.038.589l.54.936c.176.281.54.375.83.215l.022-.012c.303-.167.412-.549.243-.851l-1.321-2.368c-.44-.797-.078-1.822.819-2.141.704-.251 1.486.11 1.847.764l1.285 2.303c.168.299.545.407.845.241.301-.166.411-.545.245-.847l-1.914-3.474c-.44-.797-.078-1.822.819-2.141.704-.251 1.486.11 1.847.764l1.874 3.401c.166.302.546.412.848.245.3-.165.41-.542.247-.843l-4.224-7.786c-.4-.725-.137-1.638.589-2.038s1.638-.137 2.038.589zm2.772.897.488-.889c.4-.726 1.312-.989 2.038-.589.725.4.989 1.313.589 2.038l-1.395 2.575-1.719-3.135z"/></svg>