<svg id="Layer_1" viewBox="0 0 24 24" xmlns="http://www.w3.org/2000/svg" data-name="Layer 1"><path d="m24 12v7c0 2.757-2.243 5-5 5h-7c-5.675 0-10.432-3.964-11.674-9.267 1.016.791 2.289 1.267 3.674 1.267h3c3.309 0 6-2.691 6-6v-2c0-1.704-.745-3.321-2-4.448v-.052c0-1.24-.417-2.381-1.112-3.302.687-.123 1.391-.198 2.112-.198 6.617 0 12 5.383 12 12zm-13-4v2c0 2.206-1.794 4-4 4h-3c-2.206 0-4-1.794-4-4v-2c0-1.474.81-2.75 2-3.444v-1.056c0-1.93 1.57-3.5 3.5-3.5s3.5 1.57 3.5 3.5v1.056c1.19.694 2 1.97 2 3.444zm-4 1c0-.828-.672-1.5-1.5-1.5s-1.5.672-1.5 1.5.672 1.5 1.5 1.5 1.5-.672 1.5-1.5zm0-5.5c0-.827-.673-1.5-1.5-1.5s-1.5.673-1.5 1.5v.5h3z"/></svg>