<svg id="Layer_1" viewBox="0 0 24 24" xmlns="http://www.w3.org/2000/svg" data-name="Layer 1"><path d="m7.42 13.008c.996-.501 2.232-.845 3.58-.961v2.452l-3.58-1.492zm-1.822 1.407c-.382.489-.598 1.025-.598 1.584s.217 1.095.598 1.584l3.802-1.584zm5.402 5.536v-2.452l-3.58 1.492c.996.501 2.232.845 3.58.961zm2-7.904v2.452l3.58-1.492c-.996-.501-2.232-.845-3.58-.961zm9.912 10.402c-.843.985-2.07 1.55-3.368 1.55h-15.088c-1.298 0-2.525-.565-3.368-1.55-.841-.982-1.209-2.278-1.01-3.554l1.615-10.895h20.197l2.027 10.867c.204 1.305-.164 2.601-1.005 3.583zm-1.912-6.45c-.342-4.213-4.637-5.892-9-6-4.361.107-8.66 1.788-9 6 0 3.364 3.953 6 9 6s9-2.636 9-6zm-6.4 0 3.802 1.584c.382-.489.598-1.025.598-1.584s-.217-1.095-.598-1.584zm-1.6 3.952c1.349-.116 2.584-.46 3.58-.961l-3.58-1.492v2.452zm-11.021-13.951h19.999c.124.005 1.357-1.772 1.437-1.817 1.313-1.71.093-4.183-2.063-4.183h-18.747c-2.156 0-3.375 2.473-2.063 4.183 0 0 1.413 1.805 1.437 1.817z"/></svg>