<svg id="Layer_1" viewBox="0 0 24 24" xmlns="http://www.w3.org/2000/svg" data-name="Layer 1"><path d="m23.273 18.766c-1.073-1.072-3.416-2.258-5.005-2.622 3.57-3.529 5.729-8.062 5.722-12.033 0-2.261-1.841-4.101-4.101-4.101-3.97-.006-8.495 2.148-12.024 5.714-.392-1.795-1.795-4.163-2.63-4.998-1.075-1.074-2.618-.935-4.029.477-.661.659-1.067 1.367-1.177 2.045-.119.735.115 1.403.697 1.987.967.967 3.996 2.693 5.815 2.721l9.481 9.481c.012 1.801 1.768 4.864 2.741 5.838.234.235.822.718 1.666.718.65 0 1.453-.287 2.363-1.196.661-.66 1.067-1.367 1.177-2.045.119-.735-.115-1.403-.697-1.986zm-7.799-4.732-1.414-1.414c.582-.526.968-1.213.964-1.787.007-.475-.182-.93-.532-1.282-.355-.356-.88-.546-1.321-.552-.565-.007-1.235.376-1.769.964l-1.414-1.414c.925-.988 2.047-1.546 3.162-1.549 1.043.008 2.027.405 2.76 1.141.734.737 1.13 1.705 1.115 2.724-.01 1.113-.577 2.261-1.55 3.171zm-9.187 2.938c.509-.813 1.463-2.28 2.626-3.815l1.951 1.951c-1.535 1.163-3.002 2.117-3.815 2.625zm8.712 2.27c-2.057 1.494-5.119 3.414-6.939 4.335-1.523.772-3.377.478-4.6-.748l-2.29-2.293c-1.219-1.22-1.519-3.068-.744-4.598.92-1.817 2.839-4.876 4.333-6.936l2.727 2.727c-1.658 2.213-2.461 3.461-3.027 4.398-.409.677-.299 1.545.26 2.104l1.071 1.071c.56.56 1.427.669 2.104.26.936-.565 2.18-1.365 4.398-3.027l2.707 2.706z"/></svg>