<svg id="Layer_1" viewBox="0 0 24 24" xmlns="http://www.w3.org/2000/svg" data-name="Layer 1"><path d="m22.99 15h-12.98l.6-1.682c.708-1.985 2.601-3.318 4.709-3.318h2.361c2.108 0 4.001 1.333 4.709 3.319l.6 1.681zm1.01 4.732c0-.926-.118-1.841-.348-2.732h-2.652v1c0 .552-.447 1-1 1s-1-.448-1-1v-1h-5v1c0 .552-.447 1-1 1s-1-.448-1-1v-1h-2.652c-.229.891-.348 1.806-.348 2.732 0 1.159.877 2.107 2 2.241v.527c0 .827.673 1.5 1.5 1.5s1.5-.673 1.5-1.5v-.5h5v.5c0 .827.673 1.5 1.5 1.5s1.5-.673 1.5-1.5v-.527c1.123-.134 2-1.082 2-2.241zm-14.88 3.678c-1.276-.743-2.12-2.123-2.12-3.678 0-.916.121-1.831.316-2.732l1.411-4.354c.223-.625.54-1.195.915-1.717-.377-.143-.647-.501-.647-.929 0-.552.447-1 .999-1h.999c.188 0 .354.066.504.156 1.115-.729 2.431-1.156 3.823-1.156h.67v-3.003c0-2.76-2.237-4.997-4.997-4.997h-5.996c-2.76 0-4.997 2.237-4.997 4.997v14.003c0 2.761 2.239 5 5 5h4.343c-.09-.189-.167-.384-.223-.59zm.873-18.41h.999c.552 0 .999.448.999 1s-.447 1-.999 1h-.999c-.552 0-.999-.448-.999-1s.447-1 .999-1zm-3.997 14h-.999c-.552 0-.999-.448-.999-1s.447-1 .999-1h.999c.552 0 .999.448.999 1s-.447 1-.999 1zm0-4h-.999c-.552 0-.999-.448-.999-1s.447-1 .999-1h.999c.552 0 .999.448.999 1s-.447 1-.999 1zm0-4h-.999c-.552 0-.999-.448-.999-1s.447-1 .999-1h.999c.552 0 .999.448.999 1s-.447 1-.999 1zm0-4h-.999c-.552 0-.999-.448-.999-1s.447-1 .999-1h.999c.552 0 .999.448.999 1s-.447 1-.999 1z"/></svg>