<svg id="Layer_1" viewBox="0 0 24 24" xmlns="http://www.w3.org/2000/svg" data-name="Layer 1"><path d="m8.414 3c.372.372.586.888.586 1.414v3.086c0 1.379-1.121 2.5-2.5 2.5h-3c-1.379 0-2.5-1.121-2.5-2.5v-4c0-1.379 1.121-2.5 2.5-2.5h2.086c.526 0 1.042.214 1.414.586zm11.332 4h-2.746c-.553 0-1 .447-1 1s.447 1 1 1h4c1.103 0 2-.897 2-2v-4c0-.553-.447-1-1-1s-1 .447-1 1v2.102c-1.864-3.098-5.253-5.102-9-5.102-.747 0-1.491.078-2.21.233-.54.116-.884.648-.768 1.188s.648.887 1.188.768c.582-.125 1.184-.188 1.79-.188 3.372 0 6.39 2.001 7.746 5zm-15.246 6c-2.65 0-4.5.617-4.5 1.5v2.421c.221.268 1.456 1.079 4.5 1.079s4.279-.811 4.5-1.079v-2.421c0-.883-1.85-1.5-4.5-1.5zm-4.5 6.223v2.61c0 1.377 1.641 2.167 4.5 2.167s4.5-.79 4.5-2.167v-2.61c-1.079.466-2.57.777-4.5.777s-3.421-.311-4.5-.777zm19.5-6.223c-2.65 0-4.5.617-4.5 1.5v2.421c.221.268 1.456 1.079 4.5 1.079s4.279-.811 4.5-1.079v-2.421c0-.883-1.85-1.5-4.5-1.5zm-4.5 6.223v2.61c0 1.377 1.641 2.167 4.5 2.167s4.5-.79 4.5-2.167v-2.61c-1.079.466-2.57.777-4.5.777s-3.421-.311-4.5-.777z"/></svg>