<svg id="Layer_1" viewBox="0 0 24 24" xmlns="http://www.w3.org/2000/svg" data-name="Layer 1"><path d="m16 4c0-1.654 1.346-3 3-3 0-.553.447-1 1-1s1 .447 1 1h.268c1.067 0 2.063.574 2.598 1.499.277.479.113 1.09-.364 1.366-.481.277-1.091.113-1.366-.364-.179-.31-.511-.501-.867-.501h-2.268c-.552 0-1 .448-1 1 0 .379.271.698.645.761l3.04.506c1.342.224 2.315 1.374 2.315 2.733 0 1.654-1.346 3-3 3 0 .553-.447 1-1 1s-1-.447-1-1h-.268c-1.067 0-2.063-.574-2.598-1.499-.277-.479-.113-1.09.364-1.366.48-.279 1.091-.113 1.366.364.179.31.511.501.867.501h2.268c.552 0 1-.448 1-1 0-.379-.271-.698-.645-.761l-3.04-.506c-1.342-.224-2.315-1.374-2.315-2.733zm6.406 8.774c.583-.172 1.12-.441 1.593-.799v3.026c0 2.757-2.243 5-5 5h-6v2h4c.553 0 1 .447 1 1s-.447 1-1 1h-9.999c-.552 0-1-.447-1-1s.448-1 1-1h4v-2h-6c-2.757 0-5-2.243-5-5v-8c0-2.758 2.243-5.001 5-5.001h9.424c-.269.614-.424 1.288-.424 2 0 1.055.34 2.036.926 2.832-.396.376-.68.854-.824 1.394-.207.775-.1 1.584.302 2.275.71 1.231 1.914 2.079 3.275 2.375.55.68 1.381 1.124 2.322 1.124.989 0 1.86-.487 2.406-1.226zm-17.406-.774c0-.553-.448-1-1-1s-1 .447-1 1v3c0 .553.448 1 1 1s1-.447 1-1zm4-4c0-.553-.448-1-1-1s-1 .447-1 1v7c0 .553.448 1 1 1s1-.447 1-1zm4 3c0-.553-.447-1-1-1s-1 .447-1 1v4c0 .553.447 1 1 1s1-.447 1-1z"/></svg>